<svg clip-rule="evenodd" fill-rule="evenodd" stroke-linejoin="round" stroke-miterlimit="2" viewBox="0 0 600 478" xmlns="http://www.w3.org/2000/svg"><g fill="#fff" fill-rule="nonzero"><path d="m48.016 384.931c-10.483 0-21.464 7.295-24.966 16.622l-6.063 16.223c-.432 1.167-.789 2.41-.962 3.718-.659 5.22 1.751 10.97 13.035 14.104l12.645 3.48 11.37 3.091c2.031.562 2.464.994 2.561 1.081-.097.021-.216.529-.216.529l-4.745 12.624c-.562 1.459-2.777 3.102-5.058 3.102h-21.875c-1.016 0-1.578-.325-1.751-.616-.032-.076-.194-.314.011-.876 0-.021 4.831-12.807 4.831-12.807h-20.556l-5.188 13.769c-1.675 4.431-1.405 8.776.724 12.137 2.443 3.859 7.101 6.085 12.786 6.085h30.132c10.473 0 21.432-7.284 24.944-16.622l6.658-17.768c.389-1.038.756-2.324.919-3.653.626-4.907-1.297-11.078-12.851-14.191l-9.662-2.594-14.612-3.956c-2.054-.616-2.292-1.08-2.313-1.102.021 0 .162-.692.162-.692l4.118-10.937c.605-1.611 2.929-3.07 4.896-3.07h21.14c1.016 0 1.545.325 1.718.606.065.097.216.281-.011.886l-4.993 13.315h20.567l5.372-14.266c1.664-4.486 1.394-8.819-.746-12.181-2.442-3.836-7.1-6.041-12.753-6.041z"/><path d="m103.77 384.931-34.596 92.266h20.589s11.316-30.197 12.883-34.39h30.953c10.495 0 21.454-7.296 24.934-16.623l8.668-23.053c.475-1.329.8-2.594.962-3.847.389-3.059-.206-5.923-1.719-8.312-2.432-3.836-7.09-6.041-12.753-6.041zm40.713 17.811c1.08 0 1.664.303 1.815.573.13.173.044.529-.043.789l-6.722 17.865c-.627 1.708-2.832 3.015-5.015 3.015h-25.182c1.999-5.349 7.046-18.783 8.343-22.242z"/><path d="m197.86 384.931c-10.408 0-21.313 7.295-24.771 16.622l-21.573 57.422c-1.696 4.475-1.437 8.841.735 12.224 2.4 3.836 7.004 5.998 12.602 5.998h33.148c10.494 0 21.443-7.284 24.955-16.622l21.562-57.444c1.632-4.464 1.351-8.797-.778-12.159-2.443-3.836-7.101-6.041-12.743-6.041zm-25.42 73.828c-.054-.043-.14-.227.022-.746 0-.021 19.595-52.331 19.595-52.331.626-1.611 2.928-2.94 5.014-2.94h24.837c.983 0 1.524.281 1.686.497.14.227.043.605-.076.865l-19.594 52.299c-.627 1.643-2.789 2.961-4.853 2.961h-24.815c-1.07 0-1.664-.346-1.816-.605"/><path d="m257.296 384.931-34.607 92.266h20.621s11.413-30.435 12.991-34.661h17.823c.724 3.945 6.365 34.661 6.365 34.661h22.016s-5.707-30.997-6.636-36.098c8.225-2.562 14.796-8.041 17.498-15.142l8.549-22.826c.508-1.329.821-2.626.994-3.912.378-3.07-.227-5.912-1.708-8.279-2.453-3.837-7.1-6.009-12.818-6.009zm41.923 17.811c1.092 0 1.621.303 1.838.573.032.086.032.184.032.346-.022.162-.097.324-.119.443l-6.668 17.789c-.66 1.632-2.843 2.94-4.994 2.94h-26.381c1.999-5.328 7.014-18.632 8.289-22.091z"/><path d="m332.844 384.931-6.669 17.811h28.079c-2.691 7.209-27.938 74.455-27.938 74.455h20.545s26.231-69.894 27.938-74.455h28.101l6.679-17.811z"/><path d="m487.915 353.068c-2.659 7.49-12.299 13.575-21.507 13.575h-415.496c-9.241 0-14.526-6.085-11.889-13.575l127.814-338.782c2.691-7.479 12.31-13.585 21.529-13.585h399.089c9.165 0 14.515 6.106 11.867 13.585zm26.245-187.154h-92.612l-84.853 62.415 20.081-62.415h-148.175c6.452-6.647 15.909-10.711 32.099-13.521l67.895-11.997c27.052-4.809 66.047-18.373 76.822-52.007 15.79-49.478-35.504-59.702-93.65-59.702-45.155 0-106.208 8.17-131.034 69.148h76.52c9.435-22.967 29.591-24.761 48.97-24.761 16.612 0 27.808 4.064 24.523 14.245-2.356 7.425-8.69 12.008-18.168 13.812l-55.877 11.23c-45.273 9.176-95.022 29.808-118.064 97.951h154.011l-42.366 132.45h69.84l15.196-47.522 29.516-20.362 26.609 67.884h92.85l-50.981-108.489z"/><path d="m431.559 384.931c-10.538 0-21.497 7.295-25.02 16.622l-6.053 16.201c-.443 1.189-.789 2.432-.94 3.729-.681 5.231 1.708 10.981 12.991 14.115.032 0 24.015 6.571 24.015 6.571 2.043.562 2.486.994 2.572 1.081-.086.021-.194.529-.194.529l-4.766 12.624c-.541 1.459-2.756 3.102-5.048 3.102h-21.875c-.983 0-1.578-.325-1.751-.616-.032-.076-.194-.314.022-.876 0-.021 4.799-12.807 4.799-12.807h-20.546l-5.188 13.769c-1.697 4.464-1.383 8.776.724 12.159 2.475 3.837 7.112 6.063 12.775 6.063h30.132c10.538 0 21.476-7.284 24.988-16.622l6.636-17.768c.389-1.038.767-2.324.93-3.653.572-4.886-1.276-11.078-12.851-14.191l-9.197-2.475-15.067-4.075c-2.064-.616-2.312-1.102-2.312-1.102l.129-.692 4.129-10.937c.594-1.611 2.94-3.07 4.874-3.07h21.162c.962 0 1.567.325 1.751.606.021.097.173.313-.043.886l-5.004 13.315h20.588l5.372-14.266c1.697-4.486 1.405-8.787-.757-12.181-2.453-3.836-7.1-6.041-12.753-6.041z"/></g></svg>