<svg clip-rule="evenodd" fill-rule="evenodd" stroke-linejoin="round" stroke-miterlimit="2" viewBox="0 0 600 188" xmlns="http://www.w3.org/2000/svg"><g fill="#fff" fill-rule="nonzero"><path d="m151.607 82.898v.511c21.925.43 38.113 5.018 48.564 13.768 10.452 8.75 15.679 19.326 15.679 31.725 0 13.849-5.94 25.283-17.845 34.275-11.88 9.018-27.712 13.527-47.444 13.527-17.054 0-30.234-3.598-39.565-10.764-9.329-7.165-13.994-15.324-13.994-24.505 0-6.092 2.09-11.03 6.272-14.762 4.18-3.73 9.202-5.581 15.04-5.581 5.48 0 10.197 1.636 14.098 4.883 3.924 3.276 5.862 7.597 5.862 12.939 0 7.139-4.538 13.123-13.639 17.955-1.783.94-2.702 2.012-2.702 3.194 0 2.199 2.549 4.134 7.675 5.798 5.098 1.664 10.298 2.469 15.651 2.469 17.514 0 26.283-13.555 26.283-40.66 0-26.84-10.527-40.26-31.559-40.26l-17.464.749c-3.517 0-5.302-1.368-5.302-4.103 0-3.144 1.86-4.728 5.559-4.728l12.72.511c12.975 0 21.669-3.032 26.079-9.126 4.436-6.066 6.627-14.708 6.627-25.927 0-11.541-1.657-20.048-4.996-25.47-3.34-5.449-9.076-8.159-17.182-8.159-4.41 0-8.565.779-12.44 2.36-3.875 1.558-5.837 3.087-5.837 4.618 0 1.422 1.274 2.899 3.824 4.43 6.677 4.481 10.043 9.338 10.043 14.573 0 5.153-1.86 9.232-5.608 12.292-3.748 3.034-7.955 4.563-12.646 4.563-5.403 0-10.222-1.746-14.453-5.207-4.233-3.489-6.374-7.783-6.374-12.962 0-8.804 4.717-16.428 14.149-22.842 9.432-6.444 21.515-9.662 36.303-9.662 16.34 0 30.107 3.65 41.323 10.922 11.242 7.275 16.849 16.587 16.849 27.995 0 22.436-19.858 35.991-59.55 40.661"/><path d="m256.229 165.215v-154.329h-22.993v-8.344h92.129c26.641 0 47.747 7.945 63.275 23.86 15.524 15.889 23.299 35.965 23.299 60.2 0 12.561-2.37 24.398-7.112 35.429-4.742 11.058-12.033 21.123-21.873 30.167-9.842 9.046-19.935 14.87-30.285 17.474-10.35 2.603-23.046 3.891-38.137 3.891h-81.296v-8.348zm44.333-154.329v154.329h14.351c21.95 0 35.207-6.064 39.769-18.17 4.564-12.131 6.834-32.85 6.834-62.187 0-22.946-1.405-39.454-4.207-49.466-2.778-10.036-7.037-16.641-12.722-19.778-5.684-3.143-12.924-4.728-21.669-4.728h-22.356"/><path d="m437.662 87.41c0-25.582 8.003-46.515 24.065-62.808 16.034-16.262 35.282-24.396 57.714-24.396 20.828 0 39.465 7.648 55.906 22.947 16.446 15.299 24.653 37.065 24.653 65.274 0 26.438-7.75 47.64-23.3 63.584-15.551 15.943-34.542 23.915-56.976 23.915-24.245 0-44-8.483-59.219-25.392-15.222-16.909-22.843-37.951-22.843-63.124zm111.913.723c0-26.196-.51-43.454-1.529-51.773-1.045-8.35-3.698-15.06-7.979-20.159-4.284-5.098-11.345-7.649-21.159-7.649-8.286 0-14.887 2.066-19.809 6.173-4.919 4.134-7.978 10.736-9.203 19.836-1.198 9.098-1.809 26.866-1.809 53.304 0 26.167.507 43.506 1.554 51.959 1.019 8.456 3.775 15.193 8.235 20.212 4.462 5.018 11.472 7.515 21.032 7.515 7.926 0 14.403-2.012 19.397-6.038 4.999-4.054 8.136-10.603 9.384-19.701 1.274-9.099 1.886-27 1.886-53.679"/><path d="m0 182.044c0-2.907 13.429-5.263 30.001-5.263 16.571 0 30.001 2.356 30.001 5.263 0 2.909-13.429 5.264-30.001 5.264-16.573 0-30.001-2.355-30.001-5.264z"/><path d="m4.499 132.418c0-14.123 11.414-25.566 25.502-25.566 14.087 0 25.5 11.443 25.5 25.566 0 14.122-11.414 25.566-25.5 25.566-14.088 0-25.502-11.444-25.502-25.566z"/><path d="m6.25 65.749c-2.502 1.668-3.78 8.686-4.354 13.179-.328 2.564-.328 5.16 0 7.724.574 4.493 1.852 11.512 4.354 13.18 2.499 1.672 12.222 2.897 18.426 3.529 3.541.36 7.109.36 10.649 0 6.205-.632 15.928-1.857 18.426-3.529 2.502-1.668 3.781-8.687 4.355-13.18.327-2.564.328-5.16 0-7.724-.574-4.493-1.853-11.512-4.355-13.179-2.498-1.673-12.221-2.899-18.426-3.53-3.54-.361-7.108-.361-10.649 0-6.204.631-15.927 1.857-18.426 3.53z"/><path d="m30.001.206 29.872 29.949-29.872 29.942-29.872-29.942 29.872-29.949z"/></g></svg>