<?xml version="1.0" encoding="UTF-8" standalone="no"?><!DOCTYPE svg PUBLIC "-//W3C//DTD SVG 1.1//EN" "http://www.w3.org/Graphics/SVG/1.1/DTD/svg11.dtd"><svg width="100%" height="100%" viewBox="0 0 600 188" version="1.1" xmlns="http://www.w3.org/2000/svg" xmlns:xlink="http://www.w3.org/1999/xlink" xml:space="preserve" xmlns:serif="http://www.serif.com/" style="fill-rule:evenodd;clip-rule:evenodd;stroke-linejoin:round;stroke-miterlimit:2;"><g id="_3do" serif:id="3do"><g><path id="path18" d="M151.607,83.08l0,0.511c21.925,0.429 38.113,5.018 48.564,13.768c10.452,8.75 15.679,19.326 15.679,31.724c-0,13.85 -5.94,25.283 -17.845,34.276c-11.88,9.018 -27.712,13.527 -47.444,13.527c-17.054,-0 -30.234,-3.599 -39.565,-10.764c-9.329,-7.165 -13.994,-15.324 -13.994,-24.505c-0,-6.092 2.09,-11.031 6.272,-14.762c4.18,-3.73 9.202,-5.581 15.04,-5.581c5.48,-0 10.197,1.636 14.098,4.883c3.924,3.276 5.862,7.596 5.862,12.938c-0,7.14 -4.538,13.124 -13.639,17.955c-1.783,0.941 -2.702,2.012 -2.702,3.195c-0,2.199 2.549,4.133 7.675,5.797c5.098,1.665 10.298,2.47 15.651,2.47c17.514,-0 26.283,-13.555 26.283,-40.661c-0,-26.839 -10.527,-40.259 -31.559,-40.259l-17.464,0.749c-3.517,-0 -5.302,-1.368 -5.302,-4.103c-0,-3.144 1.86,-4.728 5.559,-4.728l12.72,0.51c12.975,0 21.669,-3.032 26.079,-9.125c4.436,-6.066 6.627,-14.708 6.627,-25.927c0,-11.541 -1.657,-20.048 -4.996,-25.47c-3.34,-5.45 -9.076,-8.159 -17.182,-8.159c-4.41,-0 -8.565,0.779 -12.44,2.359c-3.875,1.559 -5.837,3.088 -5.837,4.619c-0,1.421 1.274,2.899 3.824,4.43c6.677,4.481 10.043,9.338 10.043,14.572c-0,5.153 -1.86,9.233 -5.608,12.293c-3.748,3.034 -7.955,4.563 -12.646,4.563c-5.403,-0 -10.222,-1.746 -14.453,-5.207c-4.233,-3.489 -6.374,-7.784 -6.374,-12.963c0,-8.803 4.717,-16.428 14.149,-22.841c9.432,-6.444 21.515,-9.663 36.303,-9.663c16.34,0 30.107,3.651 41.323,10.923c11.242,7.275 16.849,16.587 16.849,27.995c0,22.436 -19.858,35.991 -59.55,40.661" style="fill:#fff;fill-rule:nonzero;"/><path id="path20" d="M256.229,165.397l-0,-154.329l-22.993,0l0,-8.344l92.129,0c26.641,0 47.747,7.945 63.275,23.86c15.524,15.888 23.299,35.965 23.299,60.2c-0,12.561 -2.37,24.398 -7.112,35.428c-4.742,11.058 -12.033,21.124 -21.873,30.168c-9.842,9.046 -19.935,14.869 -30.285,17.474c-10.35,2.602 -23.046,3.891 -38.137,3.891l-81.296,-0l0,-8.348l22.993,-0Zm44.333,-154.329l-0,154.329l14.351,-0c21.95,-0 35.207,-6.064 39.769,-18.17c4.564,-12.132 6.834,-32.85 6.834,-62.187c-0,-22.946 -1.405,-39.454 -4.207,-49.466c-2.778,-10.036 -7.037,-16.641 -12.722,-19.778c-5.684,-3.143 -12.924,-4.728 -21.669,-4.728l-22.356,0" style="fill:#fff;fill-rule:nonzero;"/><path id="path22" d="M437.662,87.592c-0,-25.582 8.003,-46.515 24.065,-62.808c16.034,-16.262 35.282,-24.396 57.714,-24.396c20.828,0 39.465,7.648 55.906,22.947c16.446,15.299 24.653,37.065 24.653,65.274c-0,26.438 -7.75,47.64 -23.3,63.584c-15.551,15.943 -34.542,23.915 -56.976,23.915c-24.245,0 -44,-8.483 -59.219,-25.392c-15.222,-16.909 -22.843,-37.951 -22.843,-63.124Zm111.913,0.723c0,-26.196 -0.51,-43.455 -1.529,-51.773c-1.045,-8.35 -3.698,-15.06 -7.979,-20.16c-4.284,-5.097 -11.345,-7.648 -21.159,-7.648c-8.286,0 -14.887,2.066 -19.809,6.173c-4.919,4.134 -7.978,10.736 -9.203,19.836c-1.198,9.097 -1.809,26.865 -1.809,53.303c-0,26.168 0.507,43.507 1.554,51.96c1.019,8.456 3.775,15.193 8.235,20.211c4.462,5.019 11.472,7.516 21.032,7.516c7.926,-0 14.403,-2.013 19.397,-6.039c4.999,-4.053 8.136,-10.602 9.384,-19.7c1.274,-9.099 1.886,-27.001 1.886,-53.679" style="fill:#fff;fill-rule:nonzero;"/></g><g><path d="M-0,182.226c-0,-2.907 13.429,-5.263 30.001,-5.263c16.571,-0 30.001,2.356 30.001,5.263c0,2.909 -13.429,5.264 -30.001,5.264c-16.573,0 -30.001,-2.355 -30.001,-5.264Z" style="fill:#fff;fill-rule:nonzero;"/><path d="M4.499,132.599c0,-14.123 11.414,-25.566 25.502,-25.566c14.087,0 25.5,11.443 25.5,25.566c0,14.123 -11.414,25.567 -25.5,25.567c-14.088,-0 -25.502,-11.444 -25.502,-25.567Z" style="fill:#fff;fill-rule:nonzero;"/><path d="M6.25,65.93c-2.502,1.669 -3.78,8.686 -4.354,13.18c-0.328,2.564 -0.328,5.16 -0,7.724c0.574,4.493 1.852,11.512 4.354,13.18c2.499,1.672 12.222,2.897 18.426,3.528c3.541,0.361 7.109,0.361 10.649,0c6.205,-0.631 15.928,-1.856 18.426,-3.528c2.502,-1.668 3.781,-8.687 4.355,-13.18c0.327,-2.564 0.328,-5.16 0,-7.724c-0.574,-4.494 -1.853,-11.512 -4.355,-13.18c-2.498,-1.672 -12.221,-2.898 -18.426,-3.53c-3.54,-0.36 -7.108,-0.36 -10.649,0c-6.204,0.632 -15.927,1.858 -18.426,3.53Z" style="fill:#fff;fill-rule:nonzero;"/><path d="M30.001,0.388l29.872,29.949l-29.872,29.942l-29.872,-29.942l29.872,-29.949Z" style="fill:#fff;fill-rule:nonzero;"/></g></g></svg>