<svg clip-rule="evenodd" fill-rule="evenodd" stroke-linejoin="round" stroke-miterlimit="2" viewBox="0 0 600 212" xmlns="http://www.w3.org/2000/svg"><g fill="#fff" fill-rule="nonzero"><path d="m65.136 99.51v.609c26.153.512 45.462 5.986 57.929 16.423 12.468 10.437 18.703 23.053 18.703 37.842 0 16.521-7.086 30.159-21.287 40.885-14.17 10.758-33.055 16.136-56.593 16.136-20.342 0-36.064-4.292-47.194-12.839-11.129-8.547-16.694-18.28-16.694-29.231 0-7.267 2.494-13.158 7.482-17.609 4.986-4.449 10.976-6.657 17.941-6.657 6.536 0 12.163 1.952 16.816 5.825 4.681 3.908 6.992 9.061 6.992 15.433 0 8.516-5.413 15.655-16.269 21.418-2.126 1.121-3.223 2.4-3.223 3.811 0 2.623 3.041 4.93 9.155 6.915 6.082 1.985 12.284 2.945 18.669 2.945 20.892 0 31.352-16.168 31.352-48.501 0-32.016-12.557-48.024-37.644-48.024l-20.833.894c-4.195 0-6.325-1.632-6.325-4.895 0-3.75 2.22-5.639 6.631-5.639l15.174.609c15.477 0 25.847-3.617 31.108-10.885 5.291-7.236 7.905-17.545 7.905-30.928 0-13.766-1.976-23.914-5.959-30.381-3.984-6.501-10.826-9.733-20.495-9.733-5.261 0-10.217.93-14.84 2.815-4.622 1.859-6.963 3.683-6.963 5.509 0 1.696 1.521 3.458 4.562 5.284 7.965 5.345 11.98 11.139 11.98 17.383 0 6.147-2.219 11.013-6.69 14.663-4.47 3.619-9.489 5.443-15.084 5.443-6.446 0-12.193-2.082-17.241-6.211-5.049-4.162-7.602-9.285-7.602-15.462 0-10.501 5.626-19.596 16.877-27.247 11.251-7.686 25.664-11.525 43.303-11.525 19.492 0 35.913 4.354 49.292 13.029 13.411 8.677 20.1 19.785 20.1 33.393 0 26.763-23.689 42.932-71.035 48.503"/><path d="m189.933 197.701v-184.091h-27.426v-9.953h109.896c31.778 0 56.954 9.477 75.477 28.461 18.518 18.953 27.792 42.901 27.792 71.81 0 14.983-2.827 29.103-8.483 42.26-5.656 13.191-14.353 25.198-26.091 35.986-11.741 10.79-23.78 17.737-36.126 20.843-12.346 3.105-27.49 4.641-45.492 4.641h-96.973v-9.957zm52.883-184.091v184.091h17.119c26.183 0 41.996-7.234 47.438-21.674 5.444-14.471 8.152-39.185 8.152-74.179 0-27.372-1.676-47.063-5.019-59.006-3.313-11.971-8.393-19.85-15.175-23.592-6.78-3.749-15.416-5.64-25.848-5.64z"/><path d="m406.355 104.891c0-30.515 9.546-55.485 28.707-74.919 19.126-19.399 42.086-29.101 68.843-29.101 24.845 0 47.076 9.123 66.688 27.372 19.618 18.249 29.407 44.212 29.407 77.862 0 31.536-9.244 56.827-27.794 75.846-18.549 19.017-41.203 28.527-67.963 28.527-28.92 0-52.486-10.119-70.639-30.289-18.157-20.17-27.249-45.27-27.249-75.298zm133.496.863c0-31.248-.608-51.835-1.825-61.757-1.245-9.961-4.41-17.965-9.516-24.048-5.111-6.08-13.534-9.123-25.24-9.123-9.884 0-17.759 2.464-23.629 7.364-5.868 4.93-9.517 12.806-10.979 23.661-1.428 10.852-2.158 32.046-2.158 63.583 0 31.214.606 51.896 1.854 61.98 1.217 10.086 4.503 18.123 9.824 24.109 5.322 5.986 13.684 8.964 25.088 8.964 9.454 0 17.18-2.4 23.138-7.202 5.962-4.836 9.704-12.648 11.193-23.5 1.52-10.854 2.25-32.208 2.25-64.031"/><path d="m483.394 147.041c0-10.956 8.855-19.834 19.784-19.834 10.928 0 19.783 8.878 19.783 19.834 0 10.955-8.856 19.834-19.783 19.834-10.929 0-19.784-8.879-19.784-19.834z"/><path d="m484.752 95.321c-1.941 1.294-2.932 6.738-3.377 10.224-.255 1.989-.255 4.003-.001 5.992.446 3.486 1.437 8.93 3.378 10.225 1.939 1.297 9.482 2.247 14.295 2.737 2.747.28 5.515.28 8.262 0 4.813-.49 12.356-1.44 14.293-2.737 1.942-1.295 2.934-6.739 3.379-10.225.254-1.989.254-4.003 0-5.992-.445-3.486-1.437-8.931-3.379-10.224-1.937-1.298-9.48-2.249-14.293-2.739-2.747-.28-5.515-.28-8.262 0-4.813.49-12.356 1.441-14.295 2.739z"/><path d="m503.178 44.474 23.174 23.234-23.174 23.228-23.174-23.228z"/></g></svg>