<?xml version="1.0" encoding="UTF-8" standalone="no"?><!DOCTYPE svg PUBLIC "-//W3C//DTD SVG 1.1//EN" "http://www.w3.org/Graphics/SVG/1.1/DTD/svg11.dtd"><svg width="100%" height="100%" viewBox="0 0 600 212" version="1.1" xmlns="http://www.w3.org/2000/svg" xmlns:xlink="http://www.w3.org/1999/xlink" xml:space="preserve" xmlns:serif="http://www.serif.com/" style="fill-rule:evenodd;clip-rule:evenodd;stroke-linejoin:round;stroke-miterlimit:2;"><g id="_3do_alt" serif:id="3do_alt"><path id="path18" d="M65.136,99.114l0,0.61c26.153,0.512 45.462,5.986 57.929,16.423c12.468,10.437 18.703,23.053 18.703,37.842c-0,16.52 -7.086,30.159 -21.287,40.885c-14.17,10.757 -33.055,16.136 -56.593,16.136c-20.342,0 -36.064,-4.292 -47.194,-12.839c-11.129,-8.547 -16.694,-18.28 -16.694,-29.231c-0,-7.267 2.494,-13.158 7.482,-17.609c4.986,-4.449 10.976,-6.657 17.941,-6.657c6.536,-0 12.163,1.952 16.816,5.825c4.681,3.907 6.992,9.061 6.992,15.433c0,8.516 -5.413,15.655 -16.269,21.418c-2.126,1.121 -3.223,2.4 -3.223,3.81c0,2.624 3.041,4.931 9.155,6.916c6.082,1.985 12.284,2.945 18.669,2.945c20.892,0 31.352,-16.169 31.352,-48.501c-0,-32.016 -12.557,-48.024 -37.644,-48.024l-20.833,0.893c-4.195,0 -6.325,-1.631 -6.325,-4.894c0,-3.75 2.22,-5.64 6.631,-5.64l15.174,0.61c15.477,-0 25.847,-3.617 31.108,-10.886c5.291,-7.235 7.905,-17.544 7.905,-30.927c0,-13.767 -1.976,-23.914 -5.959,-30.381c-3.984,-6.501 -10.826,-9.733 -20.495,-9.733c-5.261,-0 -10.217,0.93 -14.84,2.815c-4.622,1.859 -6.963,3.683 -6.963,5.509c0,1.695 1.521,3.458 4.562,5.284c7.965,5.345 11.98,11.139 11.98,17.383c-0,6.147 -2.219,11.013 -6.69,14.663c-4.47,3.619 -9.489,5.443 -15.084,5.443c-6.446,-0 -12.193,-2.082 -17.241,-6.211c-5.049,-4.162 -7.602,-9.285 -7.602,-15.462c-0,-10.502 5.626,-19.597 16.877,-27.247c11.251,-7.686 25.664,-11.526 43.303,-11.526c19.492,0 35.913,4.354 49.292,13.029c13.411,8.678 20.1,19.786 20.1,33.394c-0,26.763 -23.689,42.932 -71.035,48.502" style="fill:#fff;fill-rule:nonzero;"/><path id="path20" d="M189.933,197.305l0,-184.09l-27.426,0l-0,-9.953l109.896,0c31.778,0 56.954,9.477 75.477,28.461c18.518,18.953 27.792,42.9 27.792,71.81c-0,14.983 -2.827,29.103 -8.483,42.26c-5.656,13.191 -14.353,25.198 -26.091,35.986c-11.741,10.79 -23.78,17.736 -36.126,20.843c-12.346,3.105 -27.49,4.641 -45.492,4.641l-96.973,0l-0,-9.958l27.426,0Zm52.883,-184.09l-0,184.09l17.119,0c26.183,0 41.996,-7.233 47.438,-21.673c5.444,-14.471 8.152,-39.185 8.152,-74.179c-0,-27.372 -1.676,-47.063 -5.019,-59.006c-3.313,-11.972 -8.393,-19.85 -15.175,-23.592c-6.78,-3.75 -15.416,-5.64 -25.848,-5.64l-26.667,0" style="fill:#fff;fill-rule:nonzero;"/><path id="path22" d="M406.355,104.496c0,-30.515 9.546,-55.485 28.707,-74.92c19.126,-19.399 42.086,-29.101 68.843,-29.101c24.845,0 47.076,9.124 66.688,27.373c19.618,18.248 29.407,44.212 29.407,77.862c-0,31.536 -9.244,56.826 -27.794,75.846c-18.549,19.017 -41.203,28.527 -67.963,28.527c-28.92,-0 -52.486,-10.119 -70.639,-30.289c-18.157,-20.17 -27.249,-45.27 -27.249,-75.298Zm133.496,0.862c-0,-31.247 -0.608,-51.834 -1.825,-61.756c-1.245,-9.961 -4.41,-17.965 -9.516,-24.048c-5.111,-6.08 -13.534,-9.123 -25.24,-9.123c-9.884,0 -17.759,2.464 -23.629,7.364c-5.868,4.93 -9.517,12.806 -10.979,23.66c-1.428,10.853 -2.158,32.047 -2.158,63.583c0,31.215 0.606,51.897 1.854,61.981c1.217,10.086 4.503,18.122 9.824,24.108c5.322,5.986 13.684,8.965 25.088,8.965c9.454,-0 17.18,-2.4 23.138,-7.203c5.962,-4.835 9.704,-12.647 11.193,-23.499c1.52,-10.855 2.25,-32.208 2.25,-64.032" style="fill:#fff;fill-rule:nonzero;"/><g><path d="M483.394,146.646c0,-10.957 8.855,-19.834 19.784,-19.834c10.928,0 19.783,8.877 19.783,19.834c-0,10.955 -8.856,19.833 -19.783,19.833c-10.929,0 -19.784,-8.878 -19.784,-19.833Z" style="fill:#fff;fill-rule:nonzero;"/><path d="M484.752,94.925c-1.941,1.295 -2.932,6.739 -3.377,10.225c-0.255,1.989 -0.255,4.002 -0.001,5.992c0.446,3.486 1.437,8.93 3.378,10.224c1.939,1.297 9.482,2.248 14.295,2.738c2.747,0.279 5.515,0.279 8.262,0c4.813,-0.49 12.356,-1.441 14.293,-2.738c1.942,-1.294 2.934,-6.738 3.379,-10.224c0.254,-1.99 0.254,-4.003 0,-5.993c-0.445,-3.485 -1.437,-8.93 -3.379,-10.224c-1.937,-1.297 -9.48,-2.248 -14.293,-2.738c-2.747,-0.28 -5.515,-0.28 -8.262,-0.001c-4.813,0.491 -12.356,1.442 -14.295,2.739Z" style="fill:#fff;fill-rule:nonzero;"/><path d="M503.178,44.079l23.174,23.233l-23.174,23.229l-23.174,-23.229l23.174,-23.233Z" style="fill:#fff;fill-rule:nonzero;"/></g></g></svg>