<svg clip-rule="evenodd" fill-rule="evenodd" stroke-linejoin="round" stroke-miterlimit="2" viewBox="0 0 600 394" xmlns="http://www.w3.org/2000/svg"><g fill="#fff"><g fill-rule="nonzero"><path d="m0 392.631h23.636v-50.759c8.137 4.262 14.142 6.006 21.117 6.006 22.28 0 41.072-19.761 41.072-43.01 0-23.829-18.986-42.815-42.816-42.815-12.98 0-25.379 6.005-33.322 16.08-7.943 9.88-9.687 16.661-9.687 37.391v77.107zm43.009-107.524c10.462 0 19.18 9.106 19.18 19.955s-8.524 19.567-19.373 19.567c-10.656 0-19.18-8.718-19.18-19.954 0-10.656 8.912-19.568 19.373-19.568z"/><path d="m150.339 319.786c-4.456 4.262-8.137 6.006-13.368 6.006-7.943 0-13.368-3.875-17.048-11.624h40.103c11.237 0 18.598-5.812 18.598-14.531 0-19.179-19.761-36.809-41.459-36.809-23.442 0-42.041 18.598-42.041 42.234 0 23.83 18.599 42.622 42.235 42.622 18.211 0 32.935-10.462 39.716-27.898zm-31.191-22.861c2.712-7.362 9.299-12.012 17.436-12.012s13.561 3.875 16.855 12.012z"/><path d="m190.055 354.658c1.162 8.137 2.325 12.206 4.456 16.662 6.587 13.561 21.698 22.667 37.778 22.667 12.981 0 25.186-6.006 33.129-16.08 6.587-8.525 8.525-15.887 8.525-33.129v-36.616c0-12.012-2.325-20.149-8.137-28.092-7.944-11.237-20.924-17.824-34.679-17.824-24.023 0-43.203 19.18-43.203 42.816 0 23.248 18.598 42.428 41.266 42.428 7.362 0 11.624-1.356 21.117-6.974v7.362c0 15.305-6.394 24.023-17.63 24.023-9.687 0-16.662-6.2-18.986-17.243zm41.072-69.357c10.655 0 18.986 8.718 18.986 20.148 0 10.656-8.524 19.374-19.18 19.374-10.655 0-19.18-8.718-19.18-19.761s8.525-19.761 19.374-19.761z"/><path d="m372.748 346.715v-36.422c0-13.949-2.325-21.892-8.718-30.417-8.137-10.849-20.924-17.242-34.485-17.242-23.636 0-43.01 19.18-43.01 42.622 0 22.667 18.793 42.428 40.297 42.428 7.556 0 14.143-2.325 22.086-7.75v6.781zm-43.203-61.027c10.461 0 19.18 9.106 19.18 19.955 0 10.656-8.719 19.568-18.987 19.568-10.655 0-19.373-8.912-19.373-19.955 0-10.849 8.524-19.568 19.18-19.568z"/><path d="m437.843 265.734c-9.299-3.681-13.949-4.65-20.342-4.65-18.793 0-32.16 11.624-32.16 27.898 0 13.561 6.974 21.505 22.667 25.379 9.105 2.325 11.043 3.488 11.043 7.169s-3.875 5.812-10.462 5.812c-6.975 0-12.012-1.744-22.086-7.362v23.442c7.943 3.681 15.499 5.424 24.411 5.424 19.18 0 31.966-11.043 31.966-27.51 0-7.75-2.906-15.112-8.137-19.955-3.681-3.293-7.362-5.037-16.274-7.749-6.78-1.938-8.911-3.488-8.911-6.394 0-3.293 3.681-5.231 9.686-5.231 6.394 0 11.818 1.55 18.599 5.231z"/><path d="m529.868 263.603h-23.83v41.846c0 7.75-.194 9.687-1.162 12.593-1.55 5.037-6.781 8.525-12.206 8.525-5.424 0-10.655-3.488-12.399-8.331-.968-2.712-1.162-5.618-1.162-12.593v-42.04h-23.83v42.428c0 12.205 1.55 18.792 5.619 25.767 6.587 10.461 18.792 17.048 31.579 17.048 12.786 0 24.41-6.199 31.191-16.855 5.037-7.555 6.2-12.593 6.2-26.348z"/><path d="m594.963 265.734c-9.299-3.681-13.949-4.65-20.342-4.65-18.793 0-32.161 11.624-32.161 27.898 0 13.561 6.975 21.505 22.668 25.379 9.105 2.325 11.042 3.488 11.042 7.169s-3.874 5.812-10.461 5.812c-6.975 0-12.012-1.744-22.086-7.362v23.442c7.943 3.681 15.499 5.424 24.411 5.424 19.179 0 31.966-11.043 31.966-27.51 0-7.75-2.906-15.112-8.137-19.955-3.681-3.293-7.362-5.037-16.274-7.749-6.78-1.938-8.912-3.488-8.912-6.394 0-3.293 3.681-5.231 9.687-5.231 6.394 0 11.818 1.55 18.599 5.231z"/></g><path d="m280.303 122.293v.378c11.744 11.744 21.19 25.226 21.942 42.399.198 4.527-.385 9.194-1.272 13.629-.547 2.736-1.857 5.59-.984 8.328 7.41-3.455 8.328-10.293 8.328-17.414 0-12.906-3.557-25.795-11.14-36.342-2.915-4.053-10.916-15.141-16.874-10.978z"/><path d="m278.032 4.56c6.59 4.147 16.113 5.525 23.471 8.08 20.877 7.248 39.408 17.354 46.942 39.619-11.74-2.716-21.226-11.068-32.557-14.806-3.757-1.239-8.192-1.304-12.114-1.472 3.201 6.169 10.372 11.569 15.109 16.656 12.257 13.166 21.945 26.049 20.476 44.671-4.785-1.856-10.456-3.942-14.385-7.307-2.976-2.548-3.816-6.271-6.474-8.932-4.195-4.193-14.58-9.222-20.404-10.261l1.893-8.328c-12.732 3.032-24.063-5.307-35.207-10.274-2.94-1.31-5.769-2.85-8.707-4.164-1.06-.474-2.724-.916-3.221-2.098-.581-1.381.652-4.037.998-5.421 1.23-4.921 2.362-9.88 3.738-14.764-3.333-.51-5.947 2.9-8.329 4.891-7.382 6.171-9.467 16.489-17.414 21.967-4.932 3.399-11.128 2.067-15.481 6.836-1.793 1.964-2.963 4.885-2.513 7.57.517 3.073 2.639 6.071.776 9.07-3.277 5.276-11.227 5.724-14.921 11.372-5.439 8.313-7.02 19.437-11.498 28.392-5.254 10.51-13.021 18.063-20 27.257-5.321 7.01-6.64 14.617-7.641 23.092-.57 4.83-.417 10.589 3.251 14.272 2.545 2.556 5.958 3.424 8.971 5.207 3.002 1.775 5.985 4.971 9.465 5.736 2.617.575 5.838-.743 8.328-1.477 15.459-4.552 17.755-21.476 29.906-30.007 7.059-4.955 16.833-5.221 24.985-7.416 3.282-.884 7.263-1.563 9.597 1.587 3.814 5.145-.43 14.021-2.876 18.912-8.261 16.521-24.829 25.079-34.733 40.128-3.366 5.114-5.8 10.758-7.411 16.657-.617 2.258-1.312 5.412.974 6.814 6.568-16.929 21.012-26.077 35.207-36.124 5.254-3.719 9.921-8.277 15.142-11.954v8.329h.379c2.154-4.213 2.501-9.692 4.954-13.608 2.059-3.289 5.885-3.51 6.85-7.97 2.768-12.804-3.359-25.461-4.882-37.857-.985-8.023 1.998-15.852 2.163-23.849h-.378c-4.939 11.862-9.759 28.563-22.714 33.899-4.087 1.684-8.466 2.622-12.871 2.836-2.853.139-5.112.889-5.679-2.664l17.414-5.679v-.378l-8.707-4.922 5.618-6.814-1.23-5.678 11.89-15.9c-2.711-1.01-7.319-2.874-9.475.05-1.618 2.196-1.378 6.596-4.546 7.462-3.786 1.034-9.755-3.157-13.614-3.726l.379-3.029c2.553-.11 8.577.225 10.441-1.634 3.307-3.3 2.09-8.801 6.973-11.582 2.814-1.602 6.426-.42 9.464-.412v2.271c2.959-2.084 5.36-4.899 8.328-7.03 7.037-5.051 14.859-7.355 23.471-7.355v.379l-14.385 6.057 2.271 11.735c6.648-1.538 15.433-6.836 22.335-5.011 4.394 1.163 6.999 5.13 10.979 6.904v.757l-10.6 3.407c1.501 3.841 4.824 3.407 8.328 3.407 5.178 0 10.349-.628 15.521-.763 1.56-.04 3.347-.672 4.884-.252 1.983.544 1.537 2.375.39 3.504-2.226 2.187-4.645 4.284-7.545 5.508-2.415 1.02-5.343 1.633-7.95 1.846 1.449 2.552 4.882 3.024 7.571 3.028 6.417.01 11.857-2.901 17.793-4.921l-10.978 21.199c4.417 0 12.447-.545 14.673 4.667.764 1.787-1.874 5.829-2.658 7.447-3.539 7.31-8.302 14.8-14.302 20.334-2.862 2.642-7.845 5.16-9.827 8.437 6.833-.001 11.693-4.827 17.035-8.654 14.298-10.246 25.258-23.402 31.799-39.802 11.974-30.025 10.252-70.689-10.391-96.533-10.555-13.215-25.198-22.224-41.093-27.635l1.135-1.893c12.023 3.38 23.626 6.511 34.449 13.041 22.476 13.559 35.207 38.539 35.207 64.564h.757c.136-6.669 1.105-12.975.269-19.685-2.241-18.011-13.201-32.238-25.633-44.671 8.355 1.934 15.817 7.535 21.612 13.634 17.971 18.916 22.124 43.819 12.837 67.757 5.8-2.704 7.458-10.915 8.423-16.656 2.802-16.667-2.536-31.968-10.315-46.564 21.271 11.369 31.023 42.184 25.087 64.735-2.37 8.998-7.405 15.394-12.216 23.092 7.809-1.616 11.595-7.963 13.734-15.143 3.733-12.523 3.301-26.07 3.301-38.991h.379c3.017 7.974 7.79 14.523 9.683 23.092 4.687 21.266-5.201 42.099-22.176 54.891v.379c14.408-3.415 22.608-16.784 26.878-29.906 2.57 6.08 1.87 14.504.606 20.82-4.706 23.536-21.946 37.661-44.141 43.914v.378c13.492 0 24.145-3.249 34.056-12.905 3.994-3.892 6.984-8.642 10.615-12.837-.822 19.112-12.421 35.912-29.907 43.795-8.552 3.856-18.47 5.056-27.635 6.649-5.974 1.037-12.102 2.673-18.171 2.933v1.893c27.011 2.132 60.907-5.344 75.383-30.663 6.64-11.612 4.872-22.204 4.872-34.828 0-6.569 1.257-13.171 1.129-19.685-.262-13.29-2.995-27.235-7.447-39.749-13.477-37.867-43.845-63.454-80.751-77.581-4.637-1.776-9.623-2.348-14.385-3.701-19.5-5.54-39.321-13.127-59.056-3.895zm-56.406 119.247v.379c-7.778 7.842-16.226 16.506-22.335 25.742 7.323-.004 14.741-3.326 19.379-9.086 2.026-2.515 3.837-9.392 7.122-10.248 2.862-.746 6.505 3.2 8.705 4.57-2.166 4.265-8.915 7.805-12.492 11.043-4.286 3.877-8.428 7.937-12.491 12.049-2.538 2.568-4.719 5.501-7.952 7.269-3.399 1.859-7.258 1.883-10.978 2.574l-1.415-4.314-7.292-.607c4.154-12.767 12.008-24.472 18.852-35.964 2.372-3.982 4.366-10.503 9.54-11.242 5.101-.729 8.203 4.681 11.357 7.835zm120.383 29.907c1.745-6.39 3.331-11.546 1.348-18.171-1.026-3.426-3.934-6.753-4.46-10.222-1.207-8.023 3.752-13.423-2.945-20.442-3.895 9.196-8.65-5.081-13.628-3.833-2.438.612-5.043 3.155-7.193 4.468-.749.458-2.287 1.585-3.099.634-.82-.96.494-2.999.884-3.919 1.416-3.335 1.836-6.625 1.836-10.221l-6.814 1.136-8.328-14.007c6.07.771 13.308 1.896 17.482 6.848 2.078 2.463 2.309 6.518 4.868 8.427 4.619 3.44 10.801 4.135 15.506 7.993 5.8 4.755 9.99 11.179 13.685 17.617 1.371 2.384 3.434 5.185 3.873 7.949.371 2.315-.814 5.037-1.533 7.193-2.181 6.55-5.876 14.262-11.482 18.55zm-48.835-74.956c1.865 1.906 2.919 4.034 2.696 5.758s-1.723 3.042-4.967 3.328zm-10.978-12.492v.757c-4.469 3.213-9.16 8.837-14.385 10.6.548-4.341.051-10.005-5.3-11.208-2.335-.525-4.229.856-6.436 1.24-6.599 1.149-12.274 2.166-18.549 4.995-2.391 1.078-4.333 3.014-6.814 3.837 0-5.302 1.011-9.223 6.057-11.929 1.859-.997 8.261-2.397 8.827-4.6.677-2.628-5.266-.503-6.178-.268-6.859 1.764-14.134 4.863-21.199 5.44 3.199-6.166 10.403-6.451 16.278-8.223 4.307-1.299 7.904-4.125 12.493-4.583 12.388-1.24 25.276 7.393 35.206 13.942z"/></g></svg>