<svg clip-rule="evenodd" fill-rule="evenodd" stroke-linejoin="round" stroke-miterlimit="2" viewBox="0 0 600 139" xmlns="http://www.w3.org/2000/svg"><g fill="#fff"><path d="m214.18 0-25.02 39.207-.203.255-.153.254c-14.916 22.709-14.041 18.911.255 42.259l.406.711 24.156 36.513h33.155l-33.766-51.056c-.021-.037-.03-.066-.051-.102-2.805-4.866-4.163-7.635-.203-14.493l34.173-53.548h-32.749z"/><path d="m259.49 0-25.02 39.207-.203.255-.153.254c-14.917 22.709-14.041 18.911.254 42.259l.407.711 24.155 36.513h33.105l-33.715-51.056c-.021-.037-.03-.066-.051-.102-2.806-4.866-4.163-7.635-.203-14.493l34.173-53.548h-32.749z"/><path d="m296.663 0h29.749v119.199h-29.749z"/><path d="m430.202 28.223h29.8v90.975h-29.8z"/><path d="m466.969 28.427v90.772h27.664v-51.616c0-6.775 5.022-11.798 11.797-11.798 6.776 0 11.798 5.023 11.798 11.798v51.616h29.851v-51.361c0-6.776 5.022-11.798 11.798-11.798 6.775 0 11.797 5.022 11.797 11.798v51.361h27.664v-51.361c0-21.623-8.685-38.852-39.767-38.242-9.742 0-16.05 4.326-22.121 10.273-6.075-6.788-15.967-10.829-31.325-10.527-3.52 0-6.995.498-10.323 1.424v-2.339h-28.833z"/><path d="m377.976 26.596c-25.505 0-46.479 20.974-46.479 46.479 0 23.646 18.035 43.369 40.987 46.124h10.934c4.83-.585 9.453-1.903 13.73-3.865v3.865h27.308v-91.789h-27.308v3.407c-5.862-2.69-12.346-4.221-19.172-4.221zm0 27.664c10.538 0 18.816 8.278 18.816 18.815 0 10.538-8.278 18.816-18.816 18.816-10.537 0-18.815-8.278-18.815-18.816 0-10.537 8.278-18.815 18.815-18.815z"/><path d="m140.952 0c-2.83 4.522-53.762 84.384-75.974 119.199h32.749c4.555-7.161 5.851-9.233 10.069-15.866l33.359-.255c.002 5.369 0 10.752 0 16.121h30.868c.012-39.728-.03-79.471-.102-119.199zm.102 50.954.051 11.697c.003 3.441-.004 6.08 0 9.509l-13.578.102z"/><path d="m430.202 0h29.8v22.273h-29.8z"/><path d="m600 138.42v-11.435h-561.381l89.752-123.84-128.371 135.275z"/></g></svg>