<svg clip-rule="evenodd" fill-rule="evenodd" stroke-linejoin="round" stroke-miterlimit="2" viewBox="0 0 600 140" xmlns="http://www.w3.org/2000/svg"><g fill="#fff"><path d="m214.18.713-25.02 39.207-.203.254-.153.255c-14.916 22.708-14.041 18.911.255 42.258l.406.712 24.156 36.512h33.155l-33.766-51.056c-.021-.036-.03-.066-.051-.102-2.805-4.865-4.163-7.634-.203-14.493l34.173-53.547h-32.749z"/><path d="m259.49.713-25.02 39.207-.203.254-.153.255c-14.917 22.708-14.041 18.911.254 42.258l.407.712 24.155 36.512h33.105l-33.715-51.056c-.021-.036-.03-.066-.051-.102-2.806-4.865-4.163-7.634-.203-14.493l34.173-53.547h-32.749z"/><path d="m296.663.713h29.749v119.199h-29.749z"/><path d="m430.202 28.936h29.8v90.975h-29.8z"/><path d="m466.969 29.139v90.772h27.664v-51.615c0-6.775 5.022-11.798 11.797-11.798 6.776 0 11.798 5.023 11.798 11.798v51.615h29.851v-51.361c0-6.775 5.022-11.798 11.798-11.798 6.775 0 11.797 5.023 11.797 11.798v51.361h27.664v-51.361c0-21.622-8.685-38.851-39.767-38.241-9.742 0-16.05 4.325-22.121 10.272-6.075-6.787-15.967-10.828-31.325-10.526-3.52 0-6.995.497-10.323 1.423v-2.339z"/><path d="m377.976 27.309c-25.505 0-46.479 20.974-46.479 46.479 0 23.645 18.035 43.369 40.987 46.123h10.934c4.83-.584 9.453-1.902 13.73-3.865v3.865h27.308v-91.789h-27.308v3.407c-5.862-2.689-12.346-4.22-19.172-4.22zm0 27.663c10.538 0 18.816 8.278 18.816 18.816 0 10.537-8.278 18.815-18.816 18.815-10.537 0-18.815-8.278-18.815-18.815 0-10.538 8.278-18.816 18.815-18.816z"/><path d="m140.952.713c-2.83 4.521-53.762 84.384-75.974 119.198h32.749c4.555-7.16 5.851-9.233 10.069-15.866l33.359-.254c.002 5.368 0 10.752 0 16.12h30.868c.012-39.727-.03-79.471-.102-119.198h-30.969zm.102 50.954.051 11.696c.003 3.441-.004 6.08 0 9.51l-13.578.101z"/><path d="m430.202.713h29.8v22.273h-29.8z"/><path d="m600 139.132v-11.434h-561.381l89.752-123.841-128.371 135.275z"/></g></svg>