<svg clip-rule="evenodd" fill-rule="evenodd" stroke-linejoin="round" stroke-miterlimit="2" viewBox="0 0 600 332" xmlns="http://www.w3.org/2000/svg"><g fill="#fff" fill-rule="nonzero"><path d="m524.296.404c-62.599 0-68.153 119.142-68.153 119.142h133.025s-2.272-119.142-64.872-119.142z"/><path d="m524.801 207.64v-19.436c58.309-1.514 64.872-57.047 64.872-57.047h-136.054s8.078 54.523 64.872 57.047v17.669c-44.174-11.863-63.357-15.145-66.386-13.378-2.525 1.515 28.523 8.078 70.172 20.951 41.649 13.126 72.444 31.552 76.483 25.747 4.544-5.553-29.281-19.184-73.959-31.553z"/><path d="m53.008 186.786v-7.825c-4.291 3.534-8.582 6.058-12.873 7.573-4.291 1.767-8.583 2.524-13.379 2.524-8.077 0-14.64-2.524-19.436-7.32-5.048-4.796-7.32-11.106-7.32-18.931 0-8.078 2.777-14.641 8.077-19.437 5.301-4.796 12.369-7.32 21.204-7.32 3.029 0 6.563.505 10.349 1.515 3.786 1.009 8.33 2.524 13.126 4.291v-4.796c0-7.573-1.515-12.874-4.292-16.407-2.776-3.534-7.067-5.301-13.125-5.301-4.291 0-7.825.757-11.107 2.524-3.281 1.767-6.058 4.291-8.834 8.077l-14.388-3.786c2.524-6.31 7.067-11.359 13.125-14.64 6.059-3.534 13.631-5.301 22.213-5.301 10.854 0 18.932 2.524 23.728 7.825s7.32 14.135 7.32 26.252v35.591h12.368v14.388h-26.756zm0-22.97v-6.058c-4.544-2.776-8.582-4.543-11.611-5.805-3.282-1.01-6.311-1.767-9.34-1.767-4.796 0-8.582 1.009-11.611 3.281s-4.291 5.048-4.291 8.835c0 3.281 1.262 6.058 3.786 8.077 2.524 2.272 5.806 3.282 9.592 3.282 3.281 0 6.815-.758 10.602-2.525 4.038-1.262 8.329-3.786 12.873-7.32z"/><path d="m150.947 135.293c-1.515-6.058-4.292-10.602-7.825-13.631-3.787-3.029-8.33-4.796-13.883-4.796-7.825 0-14.136 2.524-18.679 7.573-4.544 5.048-6.816 12.116-6.816 21.203 0 8.835 2.272 15.65 6.816 20.698 4.543 5.049 10.601 7.573 18.426 7.573 5.553 0 10.602-1.515 15.145-4.291 4.544-2.777 8.078-6.815 10.854-12.116l12.874 6.31c-3.282 7.825-8.33 14.136-15.145 18.427-7.068 4.543-14.893 6.815-23.728 6.815-12.368 0-22.465-4.039-30.29-11.864s-11.611-18.426-11.611-31.3c0-12.62 3.786-22.97 11.106-31.047 7.573-8.077 16.912-12.116 28.523-12.116 4.796 0 9.087.757 12.874 2.272 4.038 1.514 7.572 3.786 11.359 7.067v-7.32h13.125v30.543z"/><path d="m254.438 145.894c0 12.874-3.786 23.475-11.358 31.3-7.573 8.078-17.67 11.864-29.786 11.864s-22.213-4.039-29.785-11.864c-7.573-7.825-11.359-18.426-11.359-31.3 0-12.873 3.786-23.474 11.359-31.299 7.572-7.825 17.417-11.864 29.785-11.864 12.369 0 22.213 4.039 29.786 11.864 7.572 7.825 11.358 18.426 11.358 31.299zm-41.396 28.019c7.825 0 13.883-2.524 18.174-7.573 4.291-5.048 6.563-11.863 6.563-20.698s-2.272-15.902-6.563-20.698c-4.291-5.049-10.349-7.573-18.174-7.573-7.573 0-13.631 2.524-18.175 7.573-4.291 5.048-6.562 11.863-6.562 20.698s2.271 15.65 6.562 20.698c4.544 5.049 10.602 7.573 18.175 7.573z"/><path d="m274.632 172.398v-54.27h-11.611v-13.63h25.746v16.155c2.777-6.311 6.311-10.854 10.35-13.631 4.038-2.777 9.339-4.039 15.902-4.039h6.31v15.903h-.504c-2.525-.253-4.292-.253-5.554-.253-8.834 0-15.397 2.524-19.436 7.573-4.039 5.048-6.058 13.126-6.058 24.232v21.708h14.64v14.388h-41.144v-14.388h11.359z"/><path d="m340.261 172.398v-54.27h-11.611v-13.63h25.746v12.621c5.554-4.544 10.602-7.573 14.893-9.592 4.544-2.02 9.087-3.029 13.378-3.029 7.068 0 12.369 2.019 15.145 6.058 3.029 4.039 4.544 11.864 4.544 23.475v38.367h12.116v14.388h-27.009v-46.697c0-9.845-.757-15.903-2.272-18.427-1.514-2.524-4.291-3.786-8.077-3.786-3.534 0-7.068 1.01-10.854 3.029-3.534 2.019-7.32 5.301-11.611 9.592v41.901h12.116v14.388h-38.62v-14.388z"/><path d="m16.912 292.122c.252 7.067 2.777 12.873 7.32 17.416 4.544 4.544 10.854 6.563 18.427 6.563 5.301 0 10.349-1.262 14.893-3.786 4.543-2.524 8.329-6.058 11.106-10.602l12.873 6.816c-4.291 7.572-9.592 13.126-16.407 17.164-6.563 3.787-14.388 5.806-22.97 5.806-12.873 0-22.97-4.039-30.795-11.864-7.573-7.825-11.359-18.426-11.359-31.552 0-12.874 3.786-23.475 11.359-31.3 7.572-7.825 17.417-11.864 29.785-11.864 12.621 0 22.466 4.039 29.533 12.369 7.068 8.33 10.602 19.941 10.602 35.086h-64.367zm1.262-12.117h46.698c-.758-7.067-3.282-12.368-7.32-16.154-4.039-3.787-9.34-5.554-16.155-5.554-6.816 0-12.116 2.02-16.155 5.806-4.039 3.534-6.563 8.835-7.068 15.902z"/><path d="m98.948 225.483h-11.863v-13.631h26.504v102.482h12.116v14.388h-38.62v-14.388h11.863z"/><path d="m148.17 292.122c.252 7.067 2.777 12.873 7.32 17.416 4.544 4.544 10.854 6.563 18.427 6.563 5.301 0 10.349-1.262 14.892-3.786 4.544-2.524 8.33-6.058 11.107-10.602l12.873 6.816c-4.291 7.572-9.592 13.126-16.407 17.164-6.563 3.787-14.388 5.806-22.97 5.806-12.874 0-22.97-4.039-30.795-11.864-7.573-7.825-11.359-18.426-11.359-31.552 0-12.874 3.786-23.475 11.359-31.3 7.572-7.825 17.417-11.864 29.785-11.864 12.621 0 22.465 4.039 29.533 12.369s10.602 19.941 10.602 35.086h-64.367zm1.262-12.117h46.698c-.758-7.067-3.282-12.368-7.321-16.154-4.038-3.787-9.339-5.554-16.154-5.554-6.816 0-12.117 2.02-16.155 5.806-4.039 3.534-6.563 8.835-7.068 15.902z"/><path d="m285.233 277.229c-1.514-6.058-4.291-10.602-7.825-13.631-3.786-3.029-8.329-4.796-13.883-4.796-7.825 0-14.135 2.524-18.679 7.573-4.543 5.048-6.815 12.116-6.815 21.203 0 8.835 2.272 15.65 6.815 20.698 4.544 5.049 10.602 7.573 18.427 7.573 5.553 0 10.602-1.515 15.145-4.291 4.544-2.777 8.078-6.815 10.854-12.116l12.874 6.31c-3.282 7.825-8.33 14.136-15.146 18.427-7.067 4.543-14.892 6.815-23.727 6.815-12.368 0-22.465-4.039-30.29-11.864s-11.612-18.426-11.612-31.3c0-12.621 3.787-22.97 11.107-31.047 7.572-8.078 16.912-12.116 28.523-12.116 4.796 0 9.087.757 12.874 2.272 4.038 1.514 7.572 3.786 11.358 7.067v-7.32h13.126v30.543z"/><path d="m331.426 306.005c0 4.038.505 6.815 1.515 8.077 1.009 1.515 2.776 2.272 5.048 2.272 1.262 0 2.524-.253 3.786-.505s3.029-1.01 4.796-1.767v14.388c-2.019.757-4.291 1.514-6.31 2.019-2.272.505-4.291.758-6.563.758-6.311 0-10.854-1.515-13.378-4.544s-3.787-9.087-3.787-18.174v-48.465h-10.854v-13.63h10.854v-10.854l14.893-12.369v23.223h15.398v13.63h-15.398z"/><path d="m371.813 314.334v-54.27h-11.611v-13.63h25.747v16.155c2.776-6.311 6.31-10.854 10.349-13.631s9.339-4.039 15.902-4.039h6.311v15.903h-.505c-2.524-.253-4.291-.253-5.553-.253-8.835 0-15.398 2.524-19.437 7.573-4.038 5.048-6.058 13.126-6.058 24.232v21.708h14.641v14.388h-41.145v-14.388h11.359z"/><path d="m505.343 287.83c0 12.874-3.786 23.475-11.359 31.3-7.573 8.078-17.669 11.864-29.785 11.864-12.117 0-22.213-4.039-29.786-11.864-7.572-7.825-11.359-18.426-11.359-31.3 0-12.873 3.787-23.475 11.359-31.3 7.573-7.825 17.417-11.863 29.786-11.863 12.368 0 22.212 4.038 29.785 11.863s11.359 18.427 11.359 31.3zm-41.144 28.019c7.825 0 13.883-2.524 18.174-7.573 4.291-5.048 6.563-11.863 6.563-20.698s-2.272-15.902-6.563-20.698c-4.291-5.049-10.349-7.573-18.174-7.573-7.573 0-13.631 2.524-18.175 7.573-4.291 5.048-6.562 11.863-6.562 20.698s2.271 15.65 6.562 20.698c4.544 5.049 10.602 7.573 18.175 7.573z"/><path d="m525.789 314.334v-54.27h-11.611v-13.63h25.746v12.621c5.553-4.544 10.602-7.573 14.893-9.592 4.544-2.02 9.087-3.029 13.378-3.029 7.068 0 12.369 2.019 15.145 6.058 3.029 4.038 4.544 11.863 4.544 23.475v38.367h12.116v14.388h-27.009v-46.697c0-9.845-.757-15.903-2.272-18.427-1.514-2.524-4.291-3.786-8.077-3.786-3.534 0-7.068 1.01-10.854 3.029-3.534 2.019-7.32 5.301-11.611 9.592v41.901h12.116v14.388h-38.62v-14.388z"/></g></svg>