<svg clip-rule="evenodd" fill-rule="evenodd" stroke-linejoin="round" stroke-miterlimit="2" viewBox="0 0 600 155" xmlns="http://www.w3.org/2000/svg"><g fill="#fff"><path d="m13.913 154.085h-13.913v-.363l118.972-153.319h12.822l-.015 153.682h-10.92v-68.585c-14.3-10.787-33.229-12.358-50.667-3.942l-56.279 72.527zm106.946-81.816v-56.003l-38.974 50.225c13.63-2.92 27.294-.91 38.974 5.778z"/><g fill-rule="nonzero"><path d="m163.995 72.666-1.753 11.362.259.26c3.55-5.064 6.363-8.419 8.441-10.064 2.077-1.644 4.545-2.467 7.401-2.467 1.775 0 3.42.303 4.935.909v12.791c-2.381-1.342-4.697-2.013-6.947-2.013-2.208 0-4.177.552-5.909 1.656-1.731 1.103-3.83 3.462-6.298 7.077-2.467 3.614-3.744 5.811-3.83 6.59l-4.675 33.632h-11.297l8.375-59.733z"/><path d="m226.91 119.089-1.298 10.907c-5.194 2.857-10.735 4.285-16.621 4.285-8.008 0-14.403-2.499-19.186-7.499-4.783-4.999-7.175-11.676-7.175-20.029 0-10.086 3.625-18.591 10.876-25.516 7.25-6.926 16.523-10.389 27.821-10.389 2.856 0 6.276.347 10.258 1.039l-1.493 9.999c-2.814-.649-5.692-.974-8.636-.974-7.834 0-14.337 2.51-19.51 7.531-5.172 5.021-7.759 10.886-7.759 17.595 0 5.627 1.461 10.053 4.383 13.278s6.915 4.837 11.979 4.837c5.367 0 10.821-1.688 16.361-5.064z"/><path d="m254.378 41.696-5.713 40.579.259.26c6.709-7.791 13.613-11.687 20.712-11.687 4.372 0 7.78 1.483 10.226 4.448 2.445 2.965 3.668 6.958 3.668 11.979 0 1.428-.108 2.9-.325 4.415l-5.713 40.709h-11.297l5.713-41.359c.13-1.038.195-2.012.195-2.921 0-5.844-2.316-8.765-6.947-8.765-3.376 0-7.207 2.175-11.492 6.525s-6.493 6.914-6.623 7.694l-5.453 38.826h-11.298l12.791-90.703z"/><path d="m293.994 53.967c0-1.818.638-3.365 1.915-4.642s2.803-1.915 4.578-1.915c1.774 0 3.3.638 4.577 1.915s1.915 2.824 1.915 4.642c0 1.775-.638 3.301-1.915 4.578s-2.803 1.915-4.577 1.915c-1.775 0-3.301-.638-4.578-1.915s-1.915-2.803-1.915-4.578zm10.064 18.699-8.376 59.733h-11.297l8.375-59.733z"/><path d="m322.207 72.666-1.559 10.388c6.969-7.531 13.916-11.297 20.842-11.297 7.704 0 12.228 4.48 13.569 13.44 7.272-8.96 14.717-13.44 22.335-13.44 4.242 0 7.651 1.45 10.226 4.35 2.576 2.9 3.863 6.969 3.863 12.206 0 1.645-.13 3.442-.389 5.389l-5.454 38.697h-11.297l5.583-39.216c.217-1.342.325-2.597.325-3.766 0-5.843-2.143-8.765-6.428-8.765-1.082 0-2.272.227-3.571.682-1.298.454-2.748 1.201-4.35 2.24-1.601 1.039-3.776 2.922-6.525 5.648-2.748 2.727-4.188 4.48-4.318 5.26l-5.453 37.917h-11.298l5.324-37.788c.303-1.861.455-3.527.455-4.999 0-5.973-2.359-8.96-7.077-8.96-2.987 0-6.698 2.089-11.135 6.266s-6.72 6.698-6.85 7.564l-5.324 37.917h-11.297l8.505-59.733z"/><path d="m442.524 116.816-1.623 10.778c-6.06 4.458-12.704 6.687-19.932 6.687-7.532 0-13.581-2.629-18.147-7.888-4.567-5.259-6.85-12.26-6.85-21.004 0-9.739 2.738-17.93 8.213-24.575 5.476-6.644 12.174-9.966 20.095-9.966 6.06 0 11.102 2.327 15.128 6.98 4.025 4.653 6.038 10.659 6.038 18.017 0 1.818-.13 3.679-.39 5.584h-37.267c-.347 1.991-.52 3.895-.52 5.713 0 5.497 1.504 9.837 4.513 13.018 3.008 3.181 6.784 4.772 11.329 4.772 5.541 0 12.012-2.705 19.413-8.116zm-32.982-23.243h24.996c0-4.156-.941-7.435-2.824-9.837s-4.534-3.603-7.953-3.603c-6.493 0-11.233 4.48-14.219 13.44z"/><path d="m509.597 41.696-12.79 90.703c-4.372 1.255-9.458 1.882-15.258 1.882-10.085 0-17.844-2.402-23.276-7.206-5.432-4.805-8.148-11.622-8.148-20.452 0-8.657 3.527-16.784 10.583-24.38 7.055-7.597 16.621-11.395 28.697-11.395h4.74l4.155-29.152zm-22.854 82.976 6.103-44.409h-2.922c-8.44 0-15.246 2.564-20.419 7.693-5.172 5.13-7.759 11.265-7.759 18.407 0 5.93 1.71 10.507 5.13 13.732 3.419 3.225 8.31 4.837 14.673 4.837 2.294 0 4.025-.087 5.194-.26z"/><path d="m553.509 116.816-1.623 10.778c-6.06 4.458-12.704 6.687-19.933 6.687-7.531 0-13.58-2.629-18.147-7.888-4.566-5.259-6.85-12.26-6.85-21.004 0-9.739 2.738-17.93 8.214-24.575 5.475-6.644 12.173-9.966 20.094-9.966 6.06 0 11.103 2.327 15.128 6.98 4.026 4.653 6.038 10.659 6.038 18.017 0 1.818-.129 3.679-.389 5.584h-37.268c-.346 1.991-.519 3.895-.519 5.713 0 5.497 1.504 9.837 4.512 13.018s6.785 4.772 11.33 4.772c5.54 0 12.011-2.705 19.413-8.116zm-32.983-23.243h24.997c0-4.156-.942-7.435-2.825-9.837-1.882-2.402-4.534-3.603-7.953-3.603-6.493 0-11.232 4.48-14.219 13.44z"/><path d="m600 77.081v11.817c-6.882-5.238-12.877-7.856-17.985-7.856-2.294 0-4.22.617-5.778 1.85-1.558 1.234-2.337 2.716-2.337 4.448 0 1.125.487 2.326 1.46 3.603.974 1.277 4.047 3.647 9.22 7.109 5.172 3.463 8.657 6.645 10.453 9.545s2.695 5.843 2.695 8.83c0 5.237-1.743 9.522-5.227 12.855s-7.91 4.999-13.277 4.999c-6.623 0-13.527-2.618-20.712-7.856l1.948-10.907c7.445 5.93 13.569 8.895 18.374 8.895 2.251 0 4.101-.628 5.551-1.883 1.45-1.256 2.175-2.835 2.175-4.74 0-1.428-.53-2.889-1.59-4.382-1.061-1.494-4.145-4.015-9.252-7.564-5.108-3.55-8.484-6.709-10.129-9.48-1.645-2.77-2.467-5.562-2.467-8.375 0-5.151 1.71-9.295 5.129-12.434 3.419-3.138 7.964-4.707 13.635-4.707 5.973 0 12.011 2.078 18.114 6.233z"/></g></g></svg>