<svg clip-rule="evenodd" fill-rule="evenodd" stroke-linejoin="round" stroke-miterlimit="2" viewBox="0 0 600 332" xmlns="http://www.w3.org/2000/svg"><g fill="#fff" fill-rule="nonzero"><path d="m524.296.491c-62.599 0-68.153 119.142-68.153 119.142h133.025s-2.272-119.142-64.872-119.142z"/><path d="m524.801 207.727v-19.436c58.309-1.515 64.872-57.047 64.872-57.047h-136.054s8.078 54.522 64.872 57.047v17.669c-44.174-11.864-63.357-15.145-66.386-13.378-2.525 1.514 28.523 8.077 70.172 20.951 41.649 13.125 72.444 31.552 76.483 25.746 4.544-5.553-29.281-19.184-73.959-31.552z"/><path d="m53.008 186.873v-7.825c-4.291 3.534-8.582 6.058-12.873 7.572-4.291 1.767-8.583 2.525-13.379 2.525-8.077 0-14.64-2.525-19.436-7.32-5.048-4.796-7.32-11.107-7.32-18.932 0-8.077 2.777-14.64 8.077-19.436 5.301-4.796 12.369-7.32 21.204-7.32 3.029 0 6.563.504 10.349 1.514s8.33 2.524 13.126 4.291v-4.796c0-7.572-1.515-12.873-4.292-16.407-2.776-3.534-7.067-5.301-13.125-5.301-4.291 0-7.825.758-11.107 2.524-3.281 1.767-6.058 4.292-8.834 8.078l-14.388-3.786c2.524-6.311 7.067-11.359 13.125-14.641 6.059-3.534 13.631-5.3 22.213-5.3 10.854 0 18.932 2.524 23.728 7.824 4.796 5.301 7.32 14.136 7.32 26.252v35.591h12.368v14.388h-26.756zm0-22.97v-6.058c-4.544-2.777-8.582-4.544-11.611-5.806-3.282-1.01-6.311-1.767-9.34-1.767-4.796 0-8.582 1.01-11.611 3.282-3.029 2.271-4.291 5.048-4.291 8.834 0 3.282 1.262 6.058 3.786 8.078 2.524 2.271 5.806 3.281 9.592 3.281 3.281 0 6.815-.757 10.602-2.524 4.038-1.262 8.329-3.786 12.873-7.32z"/><path d="m150.947 135.379c-1.515-6.058-4.292-10.601-7.825-13.63-3.787-3.029-8.33-4.796-13.883-4.796-7.825 0-14.136 2.524-18.679 7.572-4.544 5.049-6.816 12.116-6.816 21.204 0 8.834 2.272 15.65 6.816 20.698 4.543 5.048 10.601 7.573 18.426 7.573 5.553 0 10.602-1.515 15.145-4.292 4.544-2.776 8.078-6.815 10.854-12.116l12.874 6.311c-3.282 7.825-8.33 14.135-15.145 18.426-7.068 4.544-14.893 6.816-23.728 6.816-12.368 0-22.465-4.039-30.29-11.864s-11.611-18.427-11.611-31.3c0-12.621 3.786-22.97 11.106-31.048 7.573-8.077 16.912-12.116 28.523-12.116 4.796 0 9.087.758 12.874 2.272 4.038 1.515 7.572 3.786 11.359 7.068v-7.32h13.125v30.542z"/><path d="m254.438 145.981c0 12.873-3.786 23.475-11.358 31.3-7.573 8.077-17.67 11.864-29.786 11.864s-22.213-4.039-29.785-11.864c-7.573-7.825-11.359-18.427-11.359-31.3s3.786-23.475 11.359-31.3c7.572-7.825 17.417-11.864 29.785-11.864 12.369 0 22.213 4.039 29.786 11.864 7.572 7.825 11.358 18.427 11.358 31.3zm-41.396 28.019c7.825 0 13.883-2.525 18.174-7.573s6.563-11.864 6.563-20.698c0-8.835-2.272-15.903-6.563-20.699-4.291-5.048-10.349-7.572-18.174-7.572-7.573 0-13.631 2.524-18.175 7.572-4.291 5.049-6.562 11.864-6.562 20.699 0 8.834 2.271 15.65 6.562 20.698 4.544 5.048 10.602 7.573 18.175 7.573z"/><path d="m274.632 172.485v-54.27h-11.611v-13.631h25.746v16.155c2.777-6.31 6.311-10.854 10.35-13.631 4.038-2.776 9.339-4.038 15.902-4.038h6.31v15.902h-.504c-2.525-.252-4.292-.252-5.554-.252-8.834 0-15.397 2.524-19.436 7.572-4.039 5.049-6.058 13.126-6.058 24.233v21.708h14.64v14.387h-41.144v-14.387h11.359z"/><path d="m340.261 172.485v-54.27h-11.611v-13.631h25.746v12.621c5.554-4.543 10.602-7.572 14.893-9.592 4.544-2.019 9.087-3.029 13.378-3.029 7.068 0 12.369 2.02 15.145 6.058 3.029 4.039 4.544 11.864 4.544 23.475v38.368h12.116v14.388h-27.009v-46.698c0-9.844-.757-15.902-2.272-18.426-1.514-2.524-4.291-3.787-8.077-3.787-3.534 0-7.068 1.01-10.854 3.03-3.534 2.019-7.32 5.3-11.611 9.591v41.902h12.116v14.388h-38.62v-14.388z"/><path d="m16.912 292.208c.252 7.068 2.777 12.873 7.32 17.417 4.544 4.544 10.854 6.563 18.427 6.563 5.301 0 10.349-1.262 14.893-3.786 4.543-2.525 8.329-6.058 11.106-10.602l12.873 6.815c-4.291 7.573-9.592 13.126-16.407 17.165-6.563 3.786-14.388 5.805-22.97 5.805-12.873 0-22.97-4.038-30.795-11.863-7.573-7.825-11.359-18.427-11.359-31.553 0-12.873 3.786-23.475 11.359-31.3 7.572-7.825 17.417-11.863 29.785-11.863 12.621 0 22.466 4.038 29.533 12.368 7.068 8.33 10.602 19.941 10.602 35.087h-64.367zm1.262-12.116h46.698c-.758-7.068-3.282-12.369-7.32-16.155-4.039-3.786-9.34-5.553-16.155-5.553-6.816 0-12.116 2.019-16.155 5.806-4.039 3.533-6.563 8.834-7.068 15.902z"/><path d="m98.948 225.569h-11.863v-13.63h26.504v102.482h12.116v14.388h-38.62v-14.388h11.863z"/><path d="m148.17 292.208c.252 7.068 2.777 12.873 7.32 17.417 4.544 4.544 10.854 6.563 18.427 6.563 5.301 0 10.349-1.262 14.892-3.786 4.544-2.525 8.33-6.058 11.107-10.602l12.873 6.815c-4.291 7.573-9.592 13.126-16.407 17.165-6.563 3.786-14.388 5.805-22.97 5.805-12.874 0-22.97-4.038-30.795-11.863-7.573-7.825-11.359-18.427-11.359-31.553 0-12.873 3.786-23.475 11.359-31.3 7.572-7.825 17.417-11.863 29.785-11.863 12.621 0 22.465 4.038 29.533 12.368s10.602 19.941 10.602 35.087h-64.367zm1.262-12.116h46.698c-.758-7.068-3.282-12.369-7.321-16.155-4.038-3.786-9.339-5.553-16.154-5.553-6.816 0-12.117 2.019-16.155 5.806-4.039 3.533-6.563 8.834-7.068 15.902z"/><path d="m285.233 277.315c-1.514-6.058-4.291-10.601-7.825-13.63-3.786-3.029-8.329-4.796-13.883-4.796-7.825 0-14.135 2.524-18.679 7.572-4.543 5.049-6.815 12.116-6.815 21.204 0 8.834 2.272 15.65 6.815 20.698 4.544 5.048 10.602 7.572 18.427 7.572 5.553 0 10.602-1.514 15.145-4.291 4.544-2.776 8.078-6.815 10.854-12.116l12.874 6.311c-3.282 7.825-8.33 14.135-15.146 18.426-7.067 4.544-14.892 6.816-23.727 6.816-12.368 0-22.465-4.039-30.29-11.864s-11.612-18.427-11.612-31.3c0-12.621 3.787-22.97 11.107-31.048 7.572-8.077 16.912-12.116 28.523-12.116 4.796 0 9.087.758 12.874 2.272 4.038 1.515 7.572 3.786 11.358 7.068v-7.32h13.126v30.542z"/><path d="m331.426 306.091c0 4.039.505 6.815 1.515 8.078 1.009 1.514 2.776 2.271 5.048 2.271 1.262 0 2.524-.252 3.786-.505 1.262-.252 3.029-1.009 4.796-1.766v14.387c-2.019.758-4.291 1.515-6.31 2.02-2.272.505-4.291.757-6.563.757-6.311 0-10.854-1.514-13.378-4.544-2.524-3.029-3.787-9.087-3.787-18.174v-48.464h-10.854v-13.631h10.854v-10.854l14.893-12.368v23.222h15.398v13.631h-15.398z"/><path d="m371.813 314.421v-54.27h-11.611v-13.631h25.747v16.155c2.776-6.31 6.31-10.854 10.349-13.631 4.039-2.776 9.339-4.038 15.902-4.038h6.311v15.902h-.505c-2.524-.252-4.291-.252-5.553-.252-8.835 0-15.398 2.524-19.437 7.572-4.038 5.049-6.058 13.126-6.058 24.233v21.708h14.641v14.387h-41.145v-14.387h11.359z"/><path d="m505.343 287.917c0 12.873-3.786 23.475-11.359 31.3-7.573 8.077-17.669 11.864-29.785 11.864-12.117 0-22.213-4.039-29.786-11.864-7.572-7.825-11.359-18.427-11.359-31.3s3.787-23.475 11.359-31.3c7.573-7.825 17.417-11.864 29.786-11.864 12.368 0 22.212 4.039 29.785 11.864s11.359 18.427 11.359 31.3zm-41.144 28.018c7.825 0 13.883-2.524 18.174-7.572s6.563-11.864 6.563-20.698c0-8.835-2.272-15.903-6.563-20.699-4.291-5.048-10.349-7.572-18.174-7.572-7.573 0-13.631 2.524-18.175 7.572-4.291 5.049-6.562 11.864-6.562 20.699 0 8.834 2.271 15.65 6.562 20.698 4.544 5.048 10.602 7.572 18.175 7.572z"/><path d="m525.789 314.421v-54.27h-11.611v-13.631h25.746v12.621c5.553-4.543 10.602-7.572 14.893-9.592 4.544-2.019 9.087-3.029 13.378-3.029 7.068 0 12.369 2.02 15.145 6.058 3.029 4.039 4.544 11.864 4.544 23.475v38.368h12.116v14.388h-27.009v-46.698c0-9.844-.757-15.902-2.272-18.426-1.514-2.524-4.291-3.787-8.077-3.787-3.534 0-7.068 1.01-10.854 3.029-3.534 2.02-7.32 5.301-11.611 9.592v41.902h12.116v14.388h-38.62v-14.388z"/></g></svg>