<?xml version="1.0" encoding="UTF-8" standalone="no"?><!DOCTYPE svg PUBLIC "-//W3C//DTD SVG 1.1//EN" "http://www.w3.org/Graphics/SVG/1.1/DTD/svg11.dtd"><svg width="100%" height="100%" viewBox="0 0 600 332" version="1.1" xmlns="http://www.w3.org/2000/svg" xmlns:xlink="http://www.w3.org/1999/xlink" xml:space="preserve" xmlns:serif="http://www.serif.com/" style="fill-rule:evenodd;clip-rule:evenodd;stroke-linejoin:round;stroke-miterlimit:2;"><g id="acorn_electron"><g><path d="M524.296,0.663c-62.599,-0 -68.153,119.142 -68.153,119.142l133.025,-0c0,-0 -2.272,-119.142 -64.872,-119.142Z" style="fill:#fff;fill-rule:nonzero;"/><path d="M524.801,207.899l0,-19.436c58.309,-1.515 64.872,-57.047 64.872,-57.047l-136.054,-0c0,-0 8.078,54.522 64.872,57.047l-0,17.669c-44.174,-11.864 -63.357,-15.145 -66.386,-13.378c-2.525,1.514 28.523,8.077 70.172,20.95c41.649,13.126 72.444,31.553 76.483,25.747c4.544,-5.553 -29.281,-19.184 -73.959,-31.552Z" style="fill:#fff;fill-rule:nonzero;"/></g><g><path d="M53.008,187.045l-0,-7.825c-4.291,3.534 -8.582,6.058 -12.873,7.572c-4.291,1.767 -8.583,2.525 -13.379,2.525c-8.077,-0 -14.64,-2.525 -19.436,-7.321c-5.048,-4.796 -7.32,-11.106 -7.32,-18.931c0,-8.077 2.777,-14.64 8.077,-19.436c5.301,-4.796 12.369,-7.32 21.204,-7.32c3.029,-0 6.563,0.504 10.349,1.514c3.786,1.01 8.33,2.524 13.126,4.291l-0,-4.796c-0,-7.572 -1.515,-12.873 -4.292,-16.407c-2.776,-3.534 -7.067,-5.301 -13.125,-5.301c-4.291,0 -7.825,0.757 -11.107,2.524c-3.281,1.767 -6.058,4.292 -8.834,8.078l-14.388,-3.786c2.524,-6.311 7.067,-11.359 13.125,-14.641c6.059,-3.534 13.631,-5.301 22.213,-5.301c10.854,0 18.932,2.525 23.728,7.825c4.796,5.301 7.32,14.136 7.32,26.252l-0,35.591l12.368,0l0,14.388l-26.756,-0l-0,0.505Zm-0,-22.97l-0,-6.058c-4.544,-2.777 -8.582,-4.544 -11.611,-5.806c-3.282,-1.01 -6.311,-1.767 -9.34,-1.767c-4.796,0 -8.582,1.01 -11.611,3.281c-3.029,2.272 -4.291,5.049 -4.291,8.835c-0,3.282 1.262,6.058 3.786,8.078c2.524,2.271 5.806,3.281 9.592,3.281c3.281,0 6.815,-0.757 10.602,-2.524c4.038,-1.262 8.329,-3.786 12.873,-7.32Z" style="fill:#fff;fill-rule:nonzero;"/><path d="M150.947,135.551c-1.515,-6.058 -4.292,-10.601 -7.825,-13.63c-3.787,-3.029 -8.33,-4.796 -13.883,-4.796c-7.825,-0 -14.136,2.524 -18.679,7.572c-4.544,5.049 -6.816,12.116 -6.816,21.204c0,8.834 2.272,15.649 6.816,20.698c4.543,5.048 10.601,7.572 18.426,7.572c5.553,0 10.602,-1.514 15.145,-4.291c4.544,-2.776 8.078,-6.815 10.854,-12.116l12.874,6.311c-3.282,7.825 -8.33,14.135 -15.145,18.426c-7.068,4.544 -14.893,6.816 -23.728,6.816c-12.368,-0 -22.465,-4.039 -30.29,-11.864c-7.825,-7.825 -11.611,-18.427 -11.611,-31.3c-0,-12.621 3.786,-22.97 11.106,-31.048c7.573,-8.077 16.912,-12.116 28.523,-12.116c4.796,0 9.087,0.758 12.874,2.272c4.038,1.515 7.572,3.786 11.359,7.068l-0,-7.32l13.125,-0l0,30.542l-13.125,0Z" style="fill:#fff;fill-rule:nonzero;"/><path d="M254.438,146.153c0,12.873 -3.786,23.475 -11.358,31.3c-7.573,8.077 -17.67,11.864 -29.786,11.864c-12.116,-0 -22.213,-4.039 -29.785,-11.864c-7.573,-7.825 -11.359,-18.427 -11.359,-31.3c-0,-12.873 3.786,-23.475 11.359,-31.3c7.572,-7.825 17.417,-11.864 29.785,-11.864c12.369,0 22.213,4.039 29.786,11.864c7.572,7.825 11.358,18.427 11.358,31.3Zm-41.396,28.018c7.825,0 13.883,-2.524 18.174,-7.572c4.291,-5.049 6.563,-11.864 6.563,-20.698c-0,-8.835 -2.272,-15.903 -6.563,-20.699c-4.291,-5.048 -10.349,-7.572 -18.174,-7.572c-7.573,-0 -13.631,2.524 -18.175,7.572c-4.291,5.049 -6.562,11.864 -6.562,20.699c-0,8.834 2.271,15.649 6.562,20.698c4.544,5.048 10.602,7.572 18.175,7.572Z" style="fill:#fff;fill-rule:nonzero;"/><path d="M274.632,172.657l-0,-54.27l-11.611,-0l-0,-13.631l25.746,0l0,16.155c2.777,-6.31 6.311,-10.854 10.35,-13.631c4.038,-2.776 9.339,-4.038 15.902,-4.038l6.31,-0l0,15.902l-0.504,0c-2.525,-0.252 -4.292,-0.252 -5.554,-0.252c-8.834,-0 -15.397,2.524 -19.436,7.572c-4.039,5.049 -6.058,13.126 -6.058,24.232l0,21.708l14.64,0l0,14.388l-41.144,0l0,-14.388l11.359,0l-0,0.253Z" style="fill:#fff;fill-rule:nonzero;"/><path d="M340.261,172.657l-0,-54.27l-11.611,-0l-0,-13.631l25.746,0l0,12.621c5.554,-4.543 10.602,-7.572 14.893,-9.592c4.544,-2.019 9.087,-3.029 13.378,-3.029c7.068,0 12.369,2.02 15.145,6.058c3.029,4.039 4.544,11.864 4.544,23.475l-0,38.368l12.116,-0l0,14.388l-27.009,-0l0,-46.698c0,-9.844 -0.757,-15.902 -2.272,-18.426c-1.514,-2.524 -4.291,-3.787 -8.077,-3.787c-3.534,0 -7.068,1.01 -10.854,3.029c-3.534,2.02 -7.32,5.301 -11.611,9.592l-0,41.902l12.116,-0l-0,14.388l-38.62,-0l-0,-14.388l12.116,-0Z" style="fill:#fff;fill-rule:nonzero;"/></g><g><path d="M16.912,292.38c0.252,7.068 2.777,12.873 7.32,17.417c4.544,4.543 10.854,6.563 18.427,6.563c5.301,-0 10.349,-1.262 14.893,-3.786c4.543,-2.525 8.329,-6.059 11.106,-10.602l12.873,6.815c-4.291,7.573 -9.592,13.126 -16.407,17.165c-6.563,3.786 -14.388,5.805 -22.97,5.805c-12.873,0 -22.97,-4.038 -30.795,-11.863c-7.573,-7.825 -11.359,-18.427 -11.359,-31.553c-0,-12.873 3.786,-23.475 11.359,-31.3c7.572,-7.825 17.417,-11.863 29.785,-11.863c12.621,-0 22.466,4.038 29.533,12.368c7.068,8.33 10.602,19.941 10.602,35.086l-64.367,0l0,-0.252Zm1.262,-12.116l46.698,-0c-0.758,-7.068 -3.282,-12.369 -7.32,-16.155c-4.039,-3.786 -9.34,-5.553 -16.155,-5.553c-6.816,-0 -12.116,2.019 -16.155,5.805c-4.039,3.534 -6.563,8.835 -7.068,15.903Z" style="fill:#fff;fill-rule:nonzero;"/><path d="M98.948,225.741l-11.863,0l-0,-13.63l26.504,-0l-0,102.482l12.116,-0l-0,14.388l-38.62,-0l-0,-14.388l11.863,-0l0,-88.852Z" style="fill:#fff;fill-rule:nonzero;"/><path d="M148.17,292.38c0.252,7.068 2.777,12.873 7.32,17.417c4.544,4.543 10.854,6.563 18.427,6.563c5.301,-0 10.349,-1.262 14.892,-3.786c4.544,-2.525 8.33,-6.059 11.107,-10.602l12.873,6.815c-4.291,7.573 -9.592,13.126 -16.407,17.165c-6.563,3.786 -14.388,5.805 -22.97,5.805c-12.874,0 -22.97,-4.038 -30.795,-11.863c-7.573,-7.825 -11.359,-18.427 -11.359,-31.553c-0,-12.873 3.786,-23.475 11.359,-31.3c7.572,-7.825 17.417,-11.863 29.785,-11.863c12.621,-0 22.465,4.038 29.533,12.368c7.068,8.33 10.602,19.941 10.602,35.086l-64.367,0l-0,-0.252Zm1.262,-12.116l46.698,-0c-0.758,-7.068 -3.282,-12.369 -7.321,-16.155c-4.038,-3.786 -9.339,-5.553 -16.154,-5.553c-6.816,-0 -12.117,2.019 -16.155,5.805c-4.039,3.534 -6.563,8.835 -7.068,15.903Z" style="fill:#fff;fill-rule:nonzero;"/><path d="M285.233,277.487c-1.514,-6.058 -4.291,-10.601 -7.825,-13.63c-3.786,-3.029 -8.329,-4.796 -13.883,-4.796c-7.825,-0 -14.135,2.524 -18.679,7.572c-4.543,5.049 -6.815,12.116 -6.815,21.203c0,8.835 2.272,15.65 6.815,20.699c4.544,5.048 10.602,7.572 18.427,7.572c5.553,0 10.602,-1.514 15.145,-4.291c4.544,-2.776 8.078,-6.815 10.854,-12.116l12.874,6.311c-3.282,7.825 -8.33,14.135 -15.146,18.426c-7.067,4.544 -14.892,6.816 -23.727,6.816c-12.368,-0 -22.465,-4.039 -30.29,-11.864c-7.825,-7.825 -11.612,-18.427 -11.612,-31.3c0,-12.621 3.787,-22.97 11.107,-31.048c7.572,-8.077 16.912,-12.116 28.523,-12.116c4.796,0 9.087,0.757 12.874,2.272c4.038,1.515 7.572,3.786 11.358,7.068l0,-7.32l13.126,-0l0,30.542l-13.126,0Z" style="fill:#fff;fill-rule:nonzero;"/><path d="M331.426,306.263c0,4.039 0.505,6.815 1.515,8.077c1.009,1.515 2.776,2.272 5.048,2.272c1.262,0 2.524,-0.252 3.786,-0.505c1.262,-0.252 3.029,-1.009 4.796,-1.767l0,14.388c-2.019,0.758 -4.291,1.515 -6.31,2.02c-2.272,0.505 -4.291,0.757 -6.563,0.757c-6.311,-0 -10.854,-1.515 -13.378,-4.544c-2.524,-3.029 -3.787,-9.087 -3.787,-18.174l0,-48.464l-10.854,-0l0,-13.631l10.854,0l0,-10.854l14.893,-12.368l0,23.222l15.398,0l-0,13.631l-15.398,-0l0,45.94Z" style="fill:#fff;fill-rule:nonzero;"/><path d="M371.813,314.593l0,-54.27l-11.611,-0l-0,-13.631l25.747,0l-0,16.155c2.776,-6.31 6.31,-10.854 10.349,-13.631c4.039,-2.776 9.339,-4.038 15.902,-4.038l6.311,-0l-0,15.902l-0.505,0c-2.524,-0.252 -4.291,-0.252 -5.553,-0.252c-8.835,-0 -15.398,2.524 -19.437,7.572c-4.038,5.049 -6.058,13.126 -6.058,24.232l0,21.708l14.641,0l-0,14.388l-41.145,0l0,-14.388l11.359,0l0,0.253Z" style="fill:#fff;fill-rule:nonzero;"/><path d="M505.343,288.089c-0,12.873 -3.786,23.475 -11.359,31.3c-7.573,8.077 -17.669,11.864 -29.785,11.864c-12.117,-0 -22.213,-4.039 -29.786,-11.864c-7.572,-7.825 -11.359,-18.427 -11.359,-31.3c0,-12.873 3.787,-23.475 11.359,-31.3c7.573,-7.825 17.417,-11.864 29.786,-11.864c12.368,0 22.212,4.039 29.785,11.864c7.573,7.825 11.359,18.427 11.359,31.3Zm-41.144,28.018c7.825,0 13.883,-2.524 18.174,-7.572c4.291,-5.049 6.563,-11.864 6.563,-20.699c-0,-8.834 -2.272,-15.902 -6.563,-20.698c-4.291,-5.048 -10.349,-7.572 -18.174,-7.572c-7.573,-0 -13.631,2.524 -18.175,7.572c-4.291,5.048 -6.562,11.864 -6.562,20.698c-0,8.835 2.271,15.65 6.562,20.699c4.544,5.048 10.602,7.572 18.175,7.572Z" style="fill:#fff;fill-rule:nonzero;"/><path d="M525.789,314.593l-0,-54.27l-11.611,-0l-0,-13.631l25.746,0l0,12.621c5.553,-4.543 10.602,-7.572 14.893,-9.592c4.544,-2.019 9.087,-3.029 13.378,-3.029c7.068,0 12.369,2.02 15.145,6.058c3.029,4.039 4.544,11.864 4.544,23.475l-0,38.368l12.116,-0l-0,14.388l-27.009,-0l0,-46.698c0,-9.844 -0.757,-15.902 -2.272,-18.426c-1.514,-2.525 -4.291,-3.787 -8.077,-3.787c-3.534,0 -7.068,1.01 -10.854,3.029c-3.534,2.02 -7.32,5.301 -11.611,9.592l-0,41.902l12.116,-0l-0,14.388l-38.62,-0l-0,-14.388l12.116,-0Z" style="fill:#fff;fill-rule:nonzero;"/></g></g></svg>