<svg clip-rule="evenodd" fill-rule="evenodd" stroke-linejoin="round" stroke-miterlimit="2" viewBox="0 0 600 195" xmlns="http://www.w3.org/2000/svg"><g fill="#fff"><path d="m481.854 95.956h52.857 53.156c.15 0-23.542 0-52.781 0z"/><path d="m481.854 96.031c0-.024 0-.049 0-.075v-.001c.002-1.327.03-2.845.08-4.386-.006-.1-.009-.197-.008-.29 0-.013 0-.026 0-.038 0-.054.001-.107.003-.158.075-1.574.15-3.749.3-5.398.3-3.674.675-7.497 1.275-11.621.6-3.973 1.349-8.247 2.249-12.445.9-4.199 2.024-8.397 3.299-12.596 1.274-4.198 2.699-8.322 4.423-12.371.472-1.113.961-2.221 1.467-3.319.977-2.165 2.014-4.269 3.138-6.288l.006-.011c.208-.385.418-.77.63-1.153.071-.127.142-.254.213-.381.023-.042.047-.084.071-.126.008-.014.015-.029.023-.043.002-.002.048-.08.05-.082.024-.041.049-.083.074-.124.074-.123.148-.247.222-.37.231-.381.464-.761.7-1.139l.023-.037c1.758-2.893 3.705-5.572 5.754-7.994l.015-.018c.129-.152.259-.303.39-.453l.004-.006c.673-.796 1.394-1.573 2.128-2.322.366-.376.735-.744 1.108-1.104l.004-.004c.188-.183.377-.366.567-.548.059-.056.118-.112.177-.168.035-.034.07-.067.105-.1.003-.003-.005.005-.008.008-.006.005-.011.011-.017.016-.019.019-.039.038-.058.057-.056.055-.111.111-.166.167l.011-.01c.258-.238.518-.474.781-.706.245-.216.493-.429.744-.639l.006-.005c.706-.604 1.422-1.182 2.148-1.731l.008-.006-.002.001c.1-.076.201-.151.302-.226 1.723-1.249 3.495-2.35 5.331-3.274l.007-.003c.637-.323 1.284-.625 1.941-.905.219-.093.439-.183.661-.271.068-.028.136-.054.204-.081.023-.009.046-.018.069-.027 0 0 .034-.013.034-.013.005-.001-.009.004-.013.006-.009.004-.018.008-.027.012-.027.012-.053.024-.08.036l.004-.002c.311-.12.623-.236.937-.346.099-.035.197-.069.296-.102.033-.012.065-.023.098-.034.014-.004.027-.009.04-.013.007-.002.013-.005.02-.007.004-.001-.009.004-.014.006-.005.001-.009.003-.014.005-.014.005-.027.01-.041.016-.041.015-.082.031-.123.048-.131.053-.261.109-.389.169l-.007.003c.244-.085.49-.168.738-.247.281-.168.605-.253.907-.348.097-.035.194-.069.292-.101-.093.037-.191.07-.292.101l-.001.001c-.11.041-.22.084-.328.129l-.005.002.026-.009c-.009.004-.018.007-.028.01l-.007.003c-.018.008-.036.015-.054.023l-.011.005c.665-.236 1.346-.439 2.036-.616.546-.143 1.1-.27 1.675-.387.923-.189 1.868-.338 2.831-.444.713-.086 1.438-.149 2.174-.189l.001-.001c.305-.017.611-.031.916-.041.095-.003.19-.006.285-.009.037 0 .073-.001.11-.002.001 0 .043-.001.044-.001.004 0-.009 0-.013.001l-.052.002c-.039.002-.078.004-.117.006h-.001c.26-.006.52-.009.783-.009h.674c-.086 0-.172.001-.259.002h-.008c.493.004.985.017 1.477.042l.018.001c.192.002.384.008.576.016.066.002.131.005.197.009.019.001.039.002.059.003.007 0 .013.001.02.001.006 0 .025-.003.02.001h-.042c-.029 0-.057 0-.085 0-.112-.001-.225-.003-.338-.006l.006.001c.081.005.162.011.242.017l.022.002c.329.023.657.05.985.083.106.011.213.022.319.034.035.004.07.008.105.012.015.002.03.003.045.005.005.001.02.002.015.002-.007 0-.013-.001-.02-.002-.007 0-.014-.001-.02-.002-.027-.002-.054-.004-.081-.007h-.008c.255.028.509.06.762.094.244.033.486.069.729.108l.023.004c.077.01.155.021.232.033l.023.003c.101.014.203.029.305.045.034.005.069.01.103.016.011.002.023.003.034.005.006.001.023.004.018.003-.016-.002-.031-.005-.046-.007-.038-.006-.077-.012-.115-.018-.099-.015-.199-.029-.299-.044l-.017-.002c-.056-.008-.112-.016-.168-.023l.01.002c.293.048.584.099.875.155.094.018.188.037.281.056.034.006.068.013.102.02.009.002.017.004.026.006.008.001.034.004.025.005s-.018-.004-.028-.005c-.019-.004-.037-.007-.056-.01-.065-.012-.13-.023-.195-.034l-.011-.002c.172.034.344.068.515.104.148.03.298.062.45.097.794.14 1.559.338 2.313.577h.003c.206.058.453.088 3.457 1.147 2.699 1.2 5.173 2.549 7.572 4.349.795.576 1.569 1.184 2.325 1.823l.011.007c.099.077.199.154.298.232.029.023.058.047.088.07.011.009.023.018.035.028.006.004.012.009.017.014.001 0 .035.031.035.031.023.021.046.042.069.063.075.068.15.137.224.205.229.211.456.424.681.638l.01.009c.244.226.485.453.724.684.476.459.943.929 1.401 1.407.797.832 1.567 1.69 2.314 2.568l.015.018c.111.111.217.227.32.345.098.113.194.229.287.347.048.06.095.121.142.182.018.024.037.048.055.072.007.01.014.019.021.029.004.005.009.011.014.016.009.012.017.023.026.034.023.028.045.056.068.084.075.096.151.191.226.287l.005.006c.725.906 1.425 1.846 2.102 2.814l.005.008c.141.193.28.386.419.58.045.063.09.126.134.189.015.021.03.042.045.063.001.001.03.041.03.042.002.003.044.065.046.068.031.046.061.092.092.137.099.149.198.298.296.447.288.438.57.88.846 1.325l.024.039c.558.875 1.097 1.761 1.621 2.656.017.028.033.056.049.084.009.014.017.028.025.042.014.024.028.047.042.071.028.047.056.094.084.141.084.141.167.282.248.425.069.121.136.244.201.367.023.044.046.089.068.133.007.014.014.028.021.042.004.007.007.014.011.021.003.007.007.013.011.02.007.014.015.027.022.041.023.04.045.08.067.121.063.115.126.23.189.345.184.339.366.679.545 1.021l.019.035c.042.078.084.156.126.235.014.026.028.052.042.079.001.002.027.05.028.052.021.039.041.078.061.116.046.091.093.181.139.272.127.246.252.494.375.742.354.709.696 1.425 1.027 2.145l.017.035c.737 1.549 1.442 3.132 2.111 4.741l.019.046c.035.081.07.163.105.244.04.078.084.155.127.231.015.027.03.054.045.081.005.01.011.02.016.03.001.003.003.007.005.011.001.001.001.002.002.003.005.013.01.026.016.039.01.025.021.051.031.077.032.077.063.154.095.232.089.22.177.44.264.66.28.706.551 1.415.814 2.127l.006.015c.746 1.954 1.433 3.942 2.079 5.965.283.849.551 1.689.818 2.581 1.2 4.199 2.325 8.397 3.299 12.596.9 4.198 1.65 8.472 2.175 12.445l-.258-1.85c.085.506.163.993.219 1.476l.002.014c.058.399.114.799.169 1.199.05.365.098.731.145 1.097l.001.008c.46 3.339 1.276 8.324 1.297 8.738.517 3.021 1.383 8.826 1.067 11.21 0 0-1.518.063-1.518.075h-105.563zm104.25-23.34.004.024c.048.315.095.63.141.945l.005.03c.014.125.027.249.039.374.096.652.307 2.173.321 2.288-.102-.753-.209-1.515-.321-2.288-.06-.454-.123-.911-.189-1.373z"/><path d="m588.095 103.829c.081.012.162.025.242.04.032.006.065.013.097.02.021.004.043.009.064.014h.002c.024.001.038.001.042.001.002.002.005.005.008.007.013.003.026.006.039.009.023.006.046.013.068.019.016.005.032.009.048.013.013.004.026.007.04.01h.002c.011.002.023.004.034.006.015.003.031.005.047.006.016.002.033.003.049.004.013 0 .026.001.038.001h.002c.05.03.095.057.135.082.013.004.023.009.033.016.041.013.086.029.131.052.012.022.023.041.034.058l.002.001c.102.065.146.09.189.09.026.013.051.027.076.042.027.016.053.034.079.052.021.017.043.034.063.052s.04.037.059.057c.006.005.011.01.016.015s.009.009.013.014c.006.006.012.012.018.018.019.02.037.04.055.06v.001c.013.006.025.013.036.022.008.006.016.012.022.02.005.005.008.01.011.016l.002.006v.001.006.014l.001.002c.009.011.017.022.026.032.008.01.016.019.025.029.007.008.014.016.022.023.007.008.015.015.024.022h.001c.019.014.035.021.051.021.012.013.024.026.034.04.011.014.022.029.031.045.011.018.021.036.029.055.012.025.022.051.031.078v.001c.002.001.004.002.006.003.003.001.007.002.01.002.002.001.004.001.006.001h.003s-.002.002-.002.002c-.001.001-.002.002-.003.002-.004.004-.009.008-.013.011v.001c.007.027.012.055.015.082v.001c.017.04.03.076.042.108h.001c.01.022.018.044.026.067.01.028.019.056.029.083v.001c.017.041.033.07.055.092.075.15.075.225.15.375v.375c0 .18-.001.36-.003.54-.003.183-.006.366-.011.549l.001-.004.011-.092c.001-.006.001-.013.002-.019.001-.003 0 .007 0 .011l-.001.041c-.001.035-.002.07-.003.104-.003.101-.006.201-.009.301-.011.3-.024.599-.041.898-.052.919-.134 1.836-.247 2.749-.089.719-.196 1.436-.323 2.149-.128.717-.275 1.43-.441 2.139-.183.784-.39 1.562-.619 2.333-.096.323-.196.644-.3.964-.052.163-.106.325-.161.487l-.003.009c-.053.157-.107.314-.162.471-.108.31-.22.618-.336.925-.117.31-.237.618-.361.924-.063.156-.127.312-.192.467l-.002.004c-.06.146-.122.291-.184.436-.124.287-.251.572-.38.856-.331.725-.683 1.441-1.053 2.146-.408.78-.84 1.547-1.293 2.301-.341.568-.694 1.129-1.059 1.682-.277.42-.561.836-.851 1.247-.222.315-.447.627-.676.937-.177.238-.356.476-.537.711-1.15 1.498-2.383 2.932-3.685 4.3-.184.193-.37.385-.556.576-.242.247-.487.492-.733.735-.324.319-.651.634-.982.946-.436.409-.877.812-1.324 1.208-.589.522-1.187 1.032-1.795 1.531-.8.656-1.615 1.293-2.446 1.91-1.059.788-2.142 1.544-3.245 2.268-.778.51-1.565 1.005-2.362 1.483-.794.477-1.598.938-2.41 1.383-.997.547-2.008 1.07-3.03 1.569-1.032.503-2.077.981-3.132 1.433-.249.107-.498.212-.749.316-.124.051-.249.103-.373.153l-.005.002c-.11.045-.219.09-.329.134-.218.088-.436.174-.656.26-.959.375-1.928.728-2.904 1.058-.52.176-1.043.345-1.568.507-.515.159-1.033.312-1.552.457-.504.141-1.01.275-1.517.403-.497.124-.995.242-1.495.352-.427.095-.855.184-1.284.267-.419.082-.84.158-1.262.228-.23.039-.461.075-.692.11l-.013.002h-.313l-.002.001c-.02.006-.039.012-.059.018-.019.006-.038.013-.057.019-.594.224-.87.655-.993 1.087-.004-.008-.007-.016-.011-.024v.003c-.007.028-.013.058-.018.087-.023.129-.035.26-.04.392-.003.063-.005.127-.005.19-.001.053-.001.106-.001.159v.017 5.024h.075v.251c.008.018.017.037.025.055.01.019.02.038.03.057.026.043.055.085.085.125.189.175.325.404.534.56l.001.001.003.004.001.001c.022.017.043.033.065.05.11.084.225.162.342.237.153.097.309.186.469.271v.001c.07.035.139.07.209.105.067.033.134.065.201.097l.004.002c-.056-.028-.113-.059-.17-.093.448.224.897.374 1.419.597l.006.003h-1.042l1.267.375 55.105 21.967c2.624 1.2 2.1 1.499-.675 2.474l-8.921 3.449c-2.474.825-2.399.75-6.523-1.5-27.215-14.544-71.45-29.839-103.538-39.136-2.1-.525-2.025-1.499-1.725-2.399.6-1.424 1.8-1.349 2.699-1.199l48.883 11.995 1.649.488v-3.862c0-.685 0-1.622-1.089-1.949h-.26c-19.793-2.999-49.408-20.842-49.408-49.857.075-.525.075-.6.15-.75.015-.015.028-.033.038-.053.047-.193.064-.273.112-.322.011-.018.022-.036.032-.053.018-.037.04-.072.065-.104.154-.243.227-.316.353-.443l.225-.225c.048 0 .089-.007.127-.02.017-.017.023-.033.023-.054.024.003.048.006.073.009.045-.025.093-.055.152-.084v-.001c0-.074.15-.075.225-.149l.068.003c.002-.001.005-.002.007-.003.099 0 .165-.033.22-.055.002-.005.004-.009.004-.014l.001-.006c.015 0 .03 0 .046.001h.009c.007-.001.013-.001.02-.001l.449-.075h63.089.033c3.475-.012 6.95-.018 10.425-.021 3.568-.002 7.136-.001 10.705.003h.086c.756-.001 1.513-.001 2.27 0 .716.001 1.433.003 2.149.007h.118c1.51.003 3.02.006 4.53.011h.025 12.883.003zm-45.162 61.532-.007-.004.007.004c.004.003.008.006.012.009s.007.006.011.01l.002.002-.002-.002c-.004-.004-.007-.007-.011-.01s-.008-.006-.012-.009zm-.017-.011.01.006zm-.058-.027.015.006c.008.004.017.007.024.011l.012.007.006.003-.012-.007c-.002-.001-.004-.002-.006-.003-.007-.004-.016-.007-.024-.011zm-.012-.006.011.005zm-.017-.007.011.005zm-.039-.016-.021-.01.027.013.004.001.028.012zm-.029-.013-.017-.008zm-.018-.009-.004-.002zm-.034-.019.011.007.015.008-.018-.01zm-.014-.008.013.008zm0 0-.008-.005c.002.002.005.003.008.005zm-.032-.02.003.001.018.012c.001.001.001.001.002.001l-.005-.003zm-.003-.003.003.002zm-.001 0-.002-.002c.001.001.002.001.002.002zm-.003-.003-.003-.002zm-.004-.003-.002-.001c.001.001.001.001.002.001zm-.011-.008-.014-.011.007.005.011.009c.001.001.003.002.005.004zm-.015-.012-.005-.004zm-.031-.027-.002-.003c.001.001.002.002.002.003.008.007.015.014.023.02l.003.003-.003-.003c-.007-.006-.015-.013-.023-.02zm-.01-.01.006.006zm-.649-.177c.086.037.172.073.261.112l-.003-.001c-.042-.018-.084-.036-.126-.053l-.002-.001c-.043-.019-.087-.038-.13-.057z"/><path d="m582.469 105.178c-.3 0-7.423.525-23.917-.525.15 0 17.694-.899 27.066 0-2.174.375-3.149.525-3.149.525z"/><path d="m582.319 104.803c-4.498.375-4.498.375-18.294-.15 8.997-.225 15.07-.375 19.044 0-.15 0-.525.15-.75.15z"/><path d="m195.081 134.193c-1.949 13.87-12.671 25.191-33.213 25.191-24.966 0-42.06-17.619-42.06-42.585 0-26.915 20.542-48.733 43.784-48.733 16.869 0 29.165 12.446 29.165 24.367 0 7.422-4.574 12.295-10.721 12.295-5.998 0-10.722-4.873-10.722-10.946 0-5.548 3.824-9.596 9.522-9.596.6 0 1.35.15 1.949.15-2.324-8.622-8.622-13.646-17.843-13.646-16.27 0-23.242 14.245-23.242 43.41 0 28.04 5.998 41.46 22.642 41.46 17.694 0 25.866-10.571 27.44-21.667z"/><path d="m285.124 114.925c0 25.491-19.943 44.684-42.585 44.684-24.891 0-42.21-19.568-42.21-44.684 0-27.141 18.968-46.859 43.935-46.859 22.642 0 40.86 19.343 40.86 46.859zm-63.128.749c0 27.216 7.123 41.236 20.393 41.236 12.821 0 20.843-14.245 20.843-41.086 0-29.539-7.423-45.134-20.543-45.134-13.72 0-20.693 14.995-20.693 44.984z"/><path d="m0 155.785h17.319l46.408-146.273h3.224l48.883 146.273h14.695v3.299h-53.306v-3.299h17.244l-14.095-43.784h-44.085l-13.645 43.784h18.518v3.299h-41.16zm77.822-49.857-20.092-60.429-19.569 60.429z"/><path d="m285.424 155.71h14.47v-81.271h-14.02v-3.374c11.396 0 21.667.375 30.889-1.049v21.967c7.197-14.995 15.819-22.342 25.641-22.342 8.172 0 12.52 4.273 12.52 11.995 0 5.698-3.448 9.672-9.221 9.672-5.248 0-9.147-4.723-9.147-9.672 0-1.649.45-2.774.45-3.748 0-1.2-.225-1.65-.975-1.65-7.197 0-18.818 17.169-18.818 33.738v45.734h15.969v3.224h-47.758z"/><path d="m359.273 155.71h11.846v-80.971h-11.846v-3.674h3.973c8.922 0 17.094.45 24.517-.974v25.041c6.373-17.469 17.544-26.391 32.463-26.391 15.145 0 24.367 9.222 24.367 25.191v61.778h11.396v3.224h-40.561v-3.224h12.446v-62.453c0-11.77-4.349-17.468-13.571-17.468-13.57 0-26.09 16.494-26.09 39.136v40.785h11.62v3.224h-40.56z"/></g></svg>