<svg clip-rule="evenodd" fill-rule="evenodd" stroke-linejoin="round" stroke-miterlimit="2" viewBox="0 0 600 193" xmlns="http://www.w3.org/2000/svg"><g fill="#fff"><path d="m327.547 34.868h19.101 19.209c.055 0-8.507 0-19.074 0z"/><path d="m327.547 34.895c0-.009 0-.018 0-.027 0-.48.01-1.028.029-1.585-.003-.036-.004-.071-.003-.105-.001-.005-.001-.009-.001-.014 0-.019.001-.038.002-.057.027-.569.054-1.354.108-1.95.109-1.328.244-2.71.461-4.2.217-1.436.488-2.98.813-4.498.325-1.517.731-3.034 1.192-4.551.46-1.518.975-3.008 1.598-4.471.171-.402.348-.803.53-1.199.353-.783.728-1.543 1.134-2.273l.002-.004c.076-.139.151-.278.228-.416.026-.046.051-.092.077-.138.009-.015.017-.03.026-.046.003-.005.005-.01.008-.015.001-.001.018-.029.018-.03.009-.015.018-.03.027-.044.026-.045.053-.09.08-.134.084-.138.168-.275.253-.412l.008-.013c.636-1.046 1.339-2.014 2.08-2.889l.005-.007c.047-.054.094-.109.141-.163l.002-.002c.243-.288.503-.569.769-.84.132-.136.265-.269.4-.399l.001-.001c.069-.066.137-.132.206-.198.021-.02.042-.041.063-.061.013-.012.026-.024.038-.036.001-.001-.002.002-.003.003-.002.002-.004.004-.006.006-.007.007-.014.014-.021.02-.02.02-.04.041-.06.061l.004-.004c.093-.086.187-.171.282-.255.089-.078.179-.155.269-.231l.002-.002c.255-.218.514-.427.777-.625l.003-.003-.001.001c.036-.028.073-.055.109-.082.623-.451 1.263-.849 1.927-1.183l.002-.001c.23-.117.464-.226.701-.327.08-.034.159-.066.239-.098.025-.01.05-.02.074-.029.009-.003.017-.007.025-.01 0 0 .012-.005.012-.005.002 0-.003.002-.004.002-.004.002-.007.003-.01.005-.01.004-.019.008-.029.013l.001-.001c.113-.043.226-.085.339-.125.036-.013.071-.025.107-.037.012-.004.024-.008.036-.012.004-.002.009-.003.014-.005.002-.001.005-.002.007-.002.002-.001-.003.001-.005.002-.002 0-.003.001-.005.002-.005.001-.01.003-.015.005-.015.006-.03.012-.044.018-.048.019-.095.039-.141.061l-.002.001c.088-.031.177-.061.266-.089.102-.061.219-.092.328-.126.035-.013.07-.025.106-.037-.034.014-.07.026-.106.037-.04.015-.08.031-.119.047l-.001.001.009-.003c-.003.001-.007.002-.01.003l-.003.001c-.006.003-.013.006-.019.008l-.004.002c.24-.085.486-.159.736-.222.197-.052.397-.098.605-.14.333-.068.675-.122 1.023-.161.258-.031.519-.054.785-.068h.001c.11-.007.22-.012.331-.015.034-.001.069-.002.103-.003.013-.001.026-.001.04-.001 0 0 .015-.001.015-.001.002 0-.003.001-.004.001h-.019c-.014.001-.028.002-.042.003h-.001c.094-.003.188-.004.283-.004h.244c-.031 0-.062.001-.094.001h-.003c.178.002.356.006.534.015l.007.001c.069.001.138.002.208.005.023.001.047.002.071.004.007 0 .014 0 .021.001h.007c.003 0 .009-.001.008.001h-.016c-.01 0-.02-.001-.03-.001-.041 0-.081-.001-.122-.002l.002.001c.029.002.058.004.087.006l.008.001c.119.008.238.018.356.03.039.004.077.008.116.012.012.001.025.003.038.004.005.001.01.001.016.002.002 0 .007.001.005.001s-.005-.001-.007-.001c-.003 0-.005 0-.007-.001-.01 0-.02-.001-.03-.002h-.002c.092.01.183.021.275.034.088.012.176.025.263.039l.009.001c.028.004.056.008.083.012l.009.001c.036.005.073.011.11.016.012.002.025.004.037.006.004.001.008.001.013.002.002 0 .008.001.006.001-.006-.001-.011-.002-.017-.002-.013-.003-.027-.005-.041-.007-.036-.005-.072-.011-.108-.016l-.006-.001c-.021-.002-.041-.005-.061-.008l.004.001c.105.017.211.036.316.056.034.007.068.013.101.02.013.002.025.005.037.008.003 0 .006.001.009.001.004.001.013.002.01.002-.004.001-.007-.001-.01-.002-.007-.001-.014-.002-.021-.003-.023-.004-.047-.008-.07-.012l-.004-.001c.062.012.124.025.186.038.053.01.108.022.163.034.287.051.563.123.836.209.075.021.164.032 1.25.415.975.433 1.869.921 2.736 1.571.288.208.567.428.84.659l.004.003c.036.027.072.055.108.083.011.009.021.017.032.026.004.003.008.006.012.01.002.001.005.003.007.005 0 0 .012.011.012.011.009.008.017.015.025.023.027.025.054.049.081.074.083.076.165.153.246.231l.004.003c.088.081.175.164.261.247.172.166.341.336.507.508.288.301.566.611.836.928l.006.007c.04.04.078.082.115.125.036.041.07.082.104.125.017.022.034.044.051.066.007.008.013.017.02.026.002.003.005.007.008.01.001.002.003.004.004.006.004.004.007.008.01.012.008.01.016.021.024.031.028.034.055.069.082.103l.002.003c.262.327.515.667.76 1.017l.001.002c.051.07.102.14.152.21.016.023.032.045.048.068.006.008.011.015.017.023 0 0 .01.015.01.015.001.001.016.024.017.025.011.016.022.033.033.049.036.054.072.108.107.162.104.158.206.318.306.479l.009.014c.201.316.396.636.585.96.006.01.012.02.018.03.003.005.006.01.009.015.005.009.01.017.015.026.011.017.021.034.031.051.03.051.06.102.089.153.025.044.049.088.073.133.008.016.016.032.025.048.002.005.005.01.007.015.001.003.003.005.004.008.001.002.003.005.004.007.003.005.005.01.008.015.008.014.016.029.024.044.023.041.046.083.069.124.066.123.132.246.196.369l.007.013c.016.028.031.056.046.085.005.009.01.019.015.028.001.001.01.018.01.019.008.014.015.028.022.042.017.033.034.065.051.098.045.089.09.179.135.268.128.257.251.515.371.775l.006.013c.267.56.521 1.132.763 1.713l.007.017c.013.03.025.059.038.088.015.029.03.056.046.084.005.009.011.019.016.029.002.004.004.007.006.011 0 .001.001.002.002.004v.001c.002.005.004.009.006.014.004.009.008.019.012.028.011.028.022.056.034.084.032.079.064.159.095.238.101.255.199.511.294.769l.002.005c.27.706.518 1.425.752 2.156.102.307.199.61.296.933.433 1.517.839 3.034 1.192 4.551.325 1.518.596 3.062.785 4.498l-.093-.669c.031.183.059.359.079.534l.001.005c.021.144.042.289.061.433.018.132.036.264.053.397v.002c.166 1.207.461 3.008.469 3.158.186 1.092.5 3.19.385 4.051 0 0-.548.023-.548.027zm37.673-8.434.002.008c.017.114.034.228.051.342l.001.011c.006.045.01.09.014.135.035.236.111.785.117.827-.037-.272-.076-.548-.117-.827-.021-.164-.044-.329-.068-.496z"/><path d="m365.94 37.713c.029.005.058.009.087.015.012.002.024.004.035.007.008.002.016.003.023.005h.001.015c.001.001.002.002.003.003.005.001.01.002.014.003.009.002.017.005.025.007.006.002.011.003.017.005.005.001.01.002.015.003.004.001.009.002.013.003.005.001.011.001.017.002.006 0 .012.001.017.001h.014.001c.018.011.034.021.049.03.004.002.008.003.012.006.014.005.031.01.047.019.004.008.008.015.012.021h.001c.037.024.053.033.068.033.01.004.019.009.028.015s.019.012.028.019c.008.006.016.012.023.019.007.006.014.013.021.02.002.002.004.004.006.006.002.001.003.003.005.004.002.003.004.005.006.007.007.007.014.014.02.022.005.002.009.005.013.008.003.002.006.004.008.007.002.002.003.004.004.006l.001.002v.001.002.005c.003.004.006.008.01.012.003.004.006.007.009.01.002.003.005.006.007.009.003.003.006.005.009.008.008.005.013.007.019.007.005.005.009.01.012.015.004.005.008.01.012.016.003.006.007.013.01.02.004.009.008.018.011.028.001.001.002.001.002.001.002.001.003.001.004.001.001.001.001.001.002.001h.001c-.001.001-.001.001-.002.001-.001.002-.003.003-.004.004.002.01.004.02.005.03.006.015.011.028.015.039l.001.001c.003.007.006.015.009.024.004.01.007.02.011.03.006.015.011.025.019.033.028.054.028.082.055.136v.135c0 .065-.001.13-.002.196 0 .066-.002.132-.003.198v-.002l.004-.033c0-.002 0-.004.001-.007 0-.001 0 .003 0 .004l-.001.015c0 .013 0 .025-.001.038-.001.036-.002.072-.003.109-.004.108-.009.216-.015.324-.019.332-.048.663-.089.993-.032.26-.071.519-.117.777-.046.259-.099.517-.159.773-.066.283-.141.564-.224.843-.035.117-.071.233-.108.348-.019.059-.039.118-.058.176l-.001.004c-.02.056-.039.113-.059.17-.039.112-.08.223-.122.334-.042.112-.085.223-.13.334-.023.056-.046.113-.069.169l-.001.001c-.022.053-.044.106-.067.158-.044.104-.09.207-.137.309-.12.262-.247.521-.38.776-.148.281-.304.559-.468.831-.123.206-.251.408-.382.608-.101.152-.203.302-.308.451-.08.114-.162.226-.244.338-.064.087-.129.172-.194.257-.416.542-.862 1.06-1.332 1.554-.067.07-.134.139-.201.208-.088.09-.176.178-.265.266-.117.115-.235.229-.355.342-.157.148-.317.293-.478.436-.213.189-.429.373-.649.554-.289.237-.584.467-.884.69-.382.285-.774.558-1.173.82-.28.184-.565.363-.853.536-.287.172-.577.338-.871.499-.36.198-.726.387-1.095.567-.373.182-.75.355-1.132.518-.09.039-.18.077-.27.114-.045.019-.09.037-.135.056h-.002c-.04.017-.079.033-.119.049-.079.031-.158.063-.237.094-.347.135-.697.263-1.049.382-.188.064-.377.125-.567.183-.186.058-.373.113-.561.165-.182.051-.365.1-.548.146-.18.045-.36.087-.54.127-.155.034-.309.067-.464.097-.152.029-.304.057-.456.082-.084.014-.167.027-.25.04l-.005.001h-.113-.001c-.007.002-.014.004-.021.006-.007.003-.014.005-.021.007-.215.081-.314.237-.359.393-.001-.003-.002-.005-.004-.008-.002.011-.004.021-.006.032-.009.047-.013.094-.015.142-.001.022-.001.045-.002.068v.058.006 1.815h.027v.091c.003.007.006.013.009.02.004.007.007.014.011.021.01.015.02.03.031.045.068.063.117.146.193.202v.001l.001.001h.001c.007.006.015.012.023.018.04.031.081.059.124.086.055.035.111.067.169.098.025.013.05.026.076.038.024.012.048.024.072.035l.002.001c-.021-.01-.041-.021-.062-.033.162.08.324.135.513.215l.002.001h-.376l.457.136 19.914 7.938c.949.434.759.542-.243.894l-3.225 1.247c-.894.298-.867.271-2.357-.542-9.835-5.256-25.82-10.784-37.416-14.143-.759-.19-.732-.542-.623-.867.216-.515.65-.488.975-.434l17.665 4.335.596.177v-1.396c0-.248 0-.586-.394-.704h-.094c-7.152-1.084-17.854-7.532-17.854-18.018.027-.189.027-.217.054-.271.005-.005.01-.012.013-.019.017-.07.023-.099.041-.116.004-.007.008-.013.012-.019.006-.014.014-.026.023-.038.056-.088.082-.114.128-.16l.081-.081c.017 0 .032-.003.046-.008.006-.006.008-.011.008-.019.009.001.018.002.026.003.017-.009.034-.02.055-.03v-.001c.001-.026.055-.027.082-.054l.024.002c.001-.001.002-.001.003-.002.035 0 .059-.011.079-.019.001-.002.002-.004.002-.005v-.003c.006 0 .011.001.017.001h.003c.002 0 .005-.001.007-.001l.163-.027h22.799.012c1.255-.004 2.511-.006 3.767-.007 1.289-.001 2.579-.001 3.868.001h.031c.274-.001.547-.001.821 0 .259 0 .517.001.776.002h.043c.546.001 1.091.003 1.637.004h.009 4.656zm-16.321 22.237-.002-.002.002.002c.002.001.003.002.005.003.001.001.002.002.003.003l.001.001-.001-.001c-.001-.001-.002-.002-.003-.003-.002-.001-.003-.002-.005-.003zm-.006-.004.004.002zm-.021-.01.005.002c.004.001.007.003.009.004l.005.003.002.001-.005-.003s-.001 0-.002-.001c-.002-.001-.005-.003-.009-.004zm-.004-.002.004.002zm-.007-.003.005.002zm-.013-.006-.008-.003.01.004.001.001.01.004zm-.011-.004-.006-.003zm-.007-.004h-.001zm-.012-.006.004.002.006.003-.007-.003zm-.005-.003.005.003zm0 0-.003-.002c.001.001.002.001.003.002zm-.011-.008.001.001.006.004c0 .001.001.001.001.001l-.002-.001zm-.001 0h.001zm-.002-.002h-.001zm-.001-.001h-.001zm-.004-.003-.005-.004.002.002.004.003c.001.001.001.001.002.002zm-.006-.004-.002-.001zm-.011-.01-.001-.001c.001.001.001.001.001.001.003.003.006.005.008.008l.001.001-.001-.001c-.002-.003-.005-.005-.008-.008zm-.004-.003.003.002zm-.234-.064c.031.013.062.026.094.04h-.001c-.015-.007-.03-.013-.046-.019v-.001c-.016-.006-.031-.013-.047-.02z"/><path d="m363.907 38.201c-.109 0-2.683.19-8.643-.19.054 0 6.394-.325 9.781 0-.786.136-1.138.19-1.138.19z"/><path d="m363.852 38.065c-1.625.136-1.625.136-6.61-.054 3.251-.081 5.445-.135 6.881 0-.054 0-.189.054-.271.054z"/><path d="m223.913 48.686c-.704 5.013-4.579 9.104-12.003 9.104-9.022 0-15.199-6.367-15.199-15.39 0-9.726 7.423-17.61 15.823-17.61 6.096 0 10.539 4.497 10.539 8.805 0 2.682-1.653 4.443-3.874 4.443-2.168 0-3.875-1.761-3.875-3.955 0-2.005 1.382-3.468 3.441-3.468.217 0 .488.054.705.054-.84-3.116-3.116-4.931-6.449-4.931-5.879 0-8.399 5.148-8.399 15.687 0 10.133 2.168 14.983 8.183 14.983 6.394 0 9.347-3.82 9.916-7.83z"/><path d="m256.453 41.723c0 9.212-7.207 16.148-15.39 16.148-8.995 0-15.253-7.071-15.253-16.148 0-9.808 6.854-16.933 15.877-16.933 8.182 0 14.766 6.99 14.766 16.933zm-22.813.271c0 9.835 2.574 14.902 7.369 14.902 4.633 0 7.532-5.148 7.532-14.848 0-10.675-2.682-16.31-7.423-16.31-4.959 0-7.478 5.419-7.478 16.256z"/><path d="m153.415 56.489h6.259l16.771-52.86h1.165l17.665 52.86h5.31v1.192h-19.263v-1.192h6.231l-5.094-15.823h-15.931l-4.931 15.823h6.692v1.192h-14.874zm28.123-18.017-7.261-21.838-7.071 21.838z"/><path d="m256.561 56.462h5.229v-29.37h-5.066v-1.219c4.118 0 7.83.136 11.162-.379v7.938c2.601-5.418 5.717-8.074 9.266-8.074 2.954 0 4.525 1.545 4.525 4.335 0 2.06-1.246 3.496-3.333 3.496-1.896 0-3.305-1.707-3.305-3.496 0-.596.163-1.002.163-1.354 0-.434-.082-.596-.353-.596-2.601 0-6.8 6.204-6.8 12.192v16.527h5.771v1.165h-17.259z"/><path d="m283.248 56.462h4.281v-29.261h-4.281v-1.328h1.436c3.225 0 6.178.163 8.86-.352v9.049c2.303-6.312 6.34-9.537 11.732-9.537 5.473 0 8.805 3.333 8.805 9.104v22.325h4.118v1.165h-14.657v-1.165h4.497v-22.569c0-4.254-1.571-6.313-4.904-6.313-4.904 0-9.428 5.961-9.428 14.143v14.739h4.199v1.165h-14.658z"/><path d="m13.913 192.79h-13.913v-.363l118.972-153.318h12.822l-.015 153.681h-10.92v-68.585c-14.3-10.787-33.229-12.358-50.667-3.942l-56.279 72.527zm106.946-81.815v-56.004l-38.974 50.225c13.63-2.92 27.294-.909 38.974 5.779z"/><g fill-rule="nonzero"><path d="m163.995 111.371-1.753 11.363.259.259c3.55-5.064 6.363-8.419 8.441-10.063 2.077-1.645 4.545-2.468 7.401-2.468 1.775 0 3.42.303 4.935.909v12.791c-2.381-1.342-4.697-2.013-6.947-2.013-2.208 0-4.177.552-5.909 1.656-1.731 1.104-3.83 3.463-6.298 7.077-2.467 3.614-3.744 5.811-3.83 6.59l-4.675 33.632h-11.297l8.375-59.733z"/><path d="m226.91 157.794-1.298 10.908c-5.194 2.856-10.735 4.285-16.621 4.285-8.008 0-14.403-2.5-19.186-7.499-4.783-5-7.175-11.676-7.175-20.03 0-10.085 3.625-18.591 10.876-25.516 7.25-6.926 16.523-10.388 27.821-10.388 2.856 0 6.276.346 10.258 1.038l-1.493 9.999c-2.814-.649-5.692-.974-8.636-.974-7.834 0-14.337 2.511-19.51 7.532-5.172 5.021-7.759 10.886-7.759 17.595 0 5.627 1.461 10.052 4.383 13.277s6.915 4.837 11.979 4.837c5.367 0 10.821-1.688 16.361-5.064z"/><path d="m254.378 80.402-5.713 40.579.259.259c6.709-7.791 13.613-11.686 20.712-11.686 4.372 0 7.78 1.482 10.226 4.447 2.445 2.965 3.668 6.958 3.668 11.979 0 1.428-.108 2.9-.325 4.415l-5.713 40.709h-11.297l5.713-41.358c.13-1.039.195-2.013.195-2.922 0-5.843-2.316-8.765-6.947-8.765-3.376 0-7.207 2.175-11.492 6.525s-6.493 6.915-6.623 7.694l-5.453 38.826h-11.298l12.791-90.702z"/><path d="m293.994 92.673c0-1.818.638-3.366 1.915-4.643 1.277-1.276 2.803-1.915 4.578-1.915 1.774 0 3.3.639 4.577 1.915 1.277 1.277 1.915 2.825 1.915 4.643 0 1.774-.638 3.3-1.915 4.577s-2.803 1.915-4.577 1.915c-1.775 0-3.301-.638-4.578-1.915s-1.915-2.803-1.915-4.577zm10.064 18.698-8.376 59.733h-11.297l8.375-59.733z"/><path d="m322.207 111.371-1.559 10.389c6.969-7.532 13.916-11.298 20.842-11.298 7.704 0 12.228 4.48 13.569 13.44 7.272-8.96 14.717-13.44 22.335-13.44 4.242 0 7.651 1.451 10.226 4.351 2.576 2.9 3.863 6.968 3.863 12.206 0 1.645-.13 3.441-.389 5.389l-5.454 38.696h-11.297l5.583-39.216c.217-1.342.325-2.597.325-3.766 0-5.843-2.143-8.765-6.428-8.765-1.082 0-2.272.228-3.571.682-1.298.455-2.748 1.201-4.35 2.24-1.601 1.039-3.776 2.922-6.525 5.649-2.748 2.727-4.188 4.48-4.318 5.259l-5.453 37.917h-11.298l5.324-37.787c.303-1.862.455-3.528.455-5 0-5.973-2.359-8.96-7.077-8.96-2.987 0-6.698 2.089-11.135 6.266s-6.72 6.698-6.85 7.564l-5.324 37.917h-11.297l8.505-59.733z"/><path d="m442.524 155.521-1.623 10.778c-6.06 4.459-12.704 6.688-19.932 6.688-7.532 0-13.581-2.63-18.147-7.889-4.567-5.259-6.85-12.26-6.85-21.004 0-9.739 2.738-17.93 8.213-24.574 5.476-6.644 12.174-9.966 20.095-9.966 6.06 0 11.102 2.326 15.128 6.979 4.025 4.653 6.038 10.659 6.038 18.017 0 1.818-.13 3.679-.39 5.584h-37.267c-.347 1.991-.52 3.895-.52 5.713 0 5.498 1.504 9.837 4.513 13.018 3.008 3.182 6.784 4.772 11.329 4.772 5.541 0 12.012-2.705 19.413-8.116zm-32.982-23.243h24.996c0-4.156-.941-7.434-2.824-9.837-1.883-2.402-4.534-3.603-7.953-3.603-6.493 0-11.233 4.48-14.219 13.44z"/><path d="m509.597 80.402-12.79 90.702c-4.372 1.255-9.458 1.883-15.258 1.883-10.085 0-17.844-2.403-23.276-7.207-5.432-4.805-8.148-11.622-8.148-20.452 0-8.657 3.527-16.783 10.583-24.38 7.055-7.596 16.621-11.394 28.697-11.394h4.74l4.155-29.152zm-22.854 82.976 6.103-44.41h-2.922c-8.44 0-15.246 2.564-20.419 7.694-5.172 5.129-7.759 11.264-7.759 18.406 0 5.93 1.71 10.508 5.13 13.732 3.419 3.225 8.31 4.837 14.673 4.837 2.294 0 4.025-.086 5.194-.259z"/><path d="m553.509 155.521-1.623 10.778c-6.06 4.459-12.704 6.688-19.933 6.688-7.531 0-13.58-2.63-18.147-7.889-4.566-5.259-6.85-12.26-6.85-21.004 0-9.739 2.738-17.93 8.214-24.574 5.475-6.644 12.173-9.966 20.094-9.966 6.06 0 11.103 2.326 15.128 6.979 4.026 4.653 6.038 10.659 6.038 18.017 0 1.818-.129 3.679-.389 5.584h-37.268c-.346 1.991-.519 3.895-.519 5.713 0 5.498 1.504 9.837 4.512 13.018 3.008 3.182 6.785 4.772 11.33 4.772 5.54 0 12.011-2.705 19.413-8.116zm-32.983-23.243h24.997c0-4.156-.942-7.434-2.825-9.837-1.882-2.402-4.534-3.603-7.953-3.603-6.493 0-11.232 4.48-14.219 13.44z"/><path d="m600 115.786v11.817c-6.882-5.237-12.877-7.856-17.985-7.856-2.294 0-4.22.617-5.778 1.85-1.558 1.234-2.337 2.716-2.337 4.448 0 1.125.487 2.326 1.46 3.603.974 1.277 4.047 3.647 9.22 7.11 5.172 3.462 8.657 6.644 10.453 9.544s2.695 5.843 2.695 8.83c0 5.237-1.743 9.522-5.227 12.855s-7.91 5-13.277 5c-6.623 0-13.527-2.619-20.712-7.856l1.948-10.908c7.445 5.93 13.569 8.895 18.374 8.895 2.251 0 4.101-.628 5.551-1.883s2.175-2.835 2.175-4.74c0-1.428-.53-2.889-1.59-4.382-1.061-1.493-4.145-4.015-9.252-7.564-5.108-3.549-8.484-6.709-10.129-9.479-1.645-2.771-2.467-5.562-2.467-8.376 0-5.151 1.71-9.295 5.129-12.433s7.964-4.707 13.635-4.707c5.973 0 12.011 2.077 18.114 6.232z"/></g></g></svg>