<?xml version="1.0" encoding="UTF-8" standalone="no"?><!DOCTYPE svg PUBLIC "-//W3C//DTD SVG 1.1//EN" "http://www.w3.org/Graphics/SVG/1.1/DTD/svg11.dtd"><svg width="100%" height="100%" viewBox="0 0 600 118" version="1.1" xmlns="http://www.w3.org/2000/svg" xmlns:xlink="http://www.w3.org/1999/xlink" xml:space="preserve" xmlns:serif="http://www.serif.com/" style="fill-rule:evenodd;clip-rule:evenodd;stroke-linejoin:round;stroke-miterlimit:2;"><g id="acorn_electron_flat"><path d="M255.223,0.54c-30.473,-0 -33.177,57.997 -33.177,57.997l64.756,-0c-0,-0 -1.106,-57.997 -31.579,-57.997Z" style="fill:#fff;fill-rule:nonzero;"/><path d="M255.468,101.42l0,-9.461c28.385,-0.737 31.579,-27.77 31.579,-27.77l-66.229,0c-0,0 3.932,26.541 31.579,27.77l-0,8.601c-21.504,-5.775 -30.842,-7.372 -32.317,-6.512c-1.228,0.737 13.885,3.932 34.16,10.198c20.274,6.39 35.265,15.36 37.231,12.534c2.212,-2.704 -14.254,-9.339 -36.003,-15.36Z" style="fill:#fff;fill-rule:nonzero;"/><path d="M25.804,81.269l-0,-3.809c-2.089,1.72 -4.178,2.949 -6.267,3.686c-2.089,0.86 -4.178,1.229 -6.512,1.229c-3.932,-0 -7.127,-1.229 -9.462,-3.564c-2.457,-2.334 -3.563,-5.406 -3.563,-9.215c0,-3.932 1.352,-7.127 3.932,-9.462c2.58,-2.335 6.021,-3.563 10.322,-3.563c1.474,-0 3.194,0.245 5.037,0.737c1.844,0.491 4.055,1.229 6.39,2.089l-0,-2.335c-0,-3.686 -0.737,-6.266 -2.089,-7.987c-1.352,-1.72 -3.44,-2.58 -6.389,-2.58c-2.089,-0 -3.81,0.369 -5.407,1.229c-1.597,0.86 -2.949,2.089 -4.301,3.932l-7.003,-1.843c1.228,-3.072 3.44,-5.53 6.389,-7.127c2.949,-1.72 6.635,-2.581 10.813,-2.581c5.284,0 9.216,1.229 11.55,3.81c2.335,2.58 3.564,6.881 3.564,12.779l-0,17.325l6.021,0l-0,7.004l-13.025,-0l-0,0.246Zm-0,-11.182l-0,-2.949c-2.212,-1.352 -4.178,-2.212 -5.652,-2.826c-1.598,-0.492 -3.072,-0.86 -4.547,-0.86c-2.334,-0 -4.178,0.491 -5.652,1.597c-1.475,1.106 -2.089,2.458 -2.089,4.301c0,1.597 0.614,2.949 1.843,3.932c1.229,1.106 2.826,1.597 4.669,1.597c1.598,0 3.318,-0.368 5.161,-1.229c1.966,-0.614 4.055,-1.843 6.267,-3.563Z" style="fill:#fff;fill-rule:nonzero;"/><path d="M73.479,56.202c-0.737,-2.949 -2.088,-5.161 -3.809,-6.635c-1.843,-1.475 -4.055,-2.335 -6.758,-2.335c-3.809,0 -6.881,1.229 -9.093,3.686c-2.211,2.458 -3.317,5.898 -3.317,10.322c-0,4.301 1.106,7.618 3.317,10.076c2.212,2.457 5.161,3.686 8.97,3.686c2.704,0 5.161,-0.737 7.373,-2.089c2.212,-1.351 3.932,-3.317 5.283,-5.898l6.267,3.072c-1.597,3.809 -4.055,6.881 -7.372,8.97c-3.441,2.212 -7.25,3.318 -11.551,3.318c-6.021,-0 -10.936,-1.966 -14.745,-5.776c-3.809,-3.809 -5.652,-8.969 -5.652,-15.236c-0,-6.144 1.843,-11.182 5.406,-15.114c3.687,-3.932 8.233,-5.898 13.885,-5.898c2.335,0 4.424,0.369 6.267,1.106c1.966,0.737 3.686,1.843 5.529,3.441l0,-3.564l6.39,0l-0,14.868l-6.39,0Z" style="fill:#fff;fill-rule:nonzero;"/><path d="M123.858,61.363c0,6.267 -1.843,11.427 -5.529,15.236c-3.686,3.932 -8.601,5.776 -14.499,5.776c-5.898,-0 -10.813,-1.966 -14.5,-5.776c-3.686,-3.809 -5.529,-8.969 -5.529,-15.236c-0,-6.267 1.843,-11.428 5.529,-15.237c3.687,-3.809 8.479,-5.775 14.5,-5.775c6.021,0 10.813,1.966 14.499,5.775c3.686,3.809 5.529,8.97 5.529,15.237Zm-20.151,13.639c3.809,0 6.758,-1.229 8.847,-3.686c2.089,-2.458 3.195,-5.775 3.195,-10.076c-0,-4.301 -1.106,-7.741 -3.195,-10.076c-2.089,-2.457 -5.038,-3.686 -8.847,-3.686c-3.687,-0 -6.636,1.229 -8.847,3.686c-2.089,2.458 -3.195,5.775 -3.195,10.076c-0,4.301 1.106,7.618 3.195,10.076c2.211,2.457 5.16,3.686 8.847,3.686Z" style="fill:#fff;fill-rule:nonzero;"/><path d="M133.688,74.265l0,-26.418l-5.652,-0l0,-6.636l12.533,0l0,7.864c1.352,-3.072 3.072,-5.283 5.038,-6.635c1.966,-1.352 4.547,-1.966 7.741,-1.966l3.072,0l0,7.741l-0.246,0c-1.228,-0.123 -2.088,-0.123 -2.703,-0.123c-4.3,0 -7.495,1.229 -9.461,3.687c-1.966,2.457 -2.949,6.389 -2.949,11.796l-0,10.567l7.127,-0l-0,7.004l-20.029,-0l-0,-7.004l5.529,-0l0,0.123Z" style="fill:#fff;fill-rule:nonzero;"/><path d="M165.636,74.265l-0,-26.418l-5.652,-0l-0,-6.636l12.533,0l-0,6.144c2.703,-2.212 5.161,-3.686 7.25,-4.669c2.211,-0.983 4.423,-1.475 6.512,-1.475c3.44,0 6.021,0.983 7.372,2.949c1.475,1.966 2.212,5.775 2.212,11.428l0,18.677l5.898,-0l0,7.004l-13.147,-0l-0,-22.732c-0,-4.792 -0.369,-7.741 -1.106,-8.97c-0.738,-1.229 -2.089,-1.843 -3.932,-1.843c-1.721,-0 -3.441,0.491 -5.284,1.474c-1.72,0.983 -3.563,2.581 -5.652,4.669l-0,20.398l5.898,-0l-0,7.004l-18.8,-0l-0,-7.004l5.898,-0Z" style="fill:#fff;fill-rule:nonzero;"/><path d="M316.158,63.452c0.123,3.44 1.352,6.266 3.563,8.478c2.212,2.212 5.284,3.195 8.97,3.195c2.581,-0 5.038,-0.614 7.25,-1.843c2.212,-1.229 4.055,-2.949 5.407,-5.161l6.266,3.318c-2.089,3.686 -4.669,6.389 -7.987,8.355c-3.194,1.843 -7.004,2.826 -11.181,2.826c-6.267,0 -11.182,-1.966 -14.991,-5.775c-3.686,-3.809 -5.53,-8.97 -5.53,-15.359c0,-6.267 1.844,-11.428 5.53,-15.237c3.686,-3.809 8.478,-5.775 14.499,-5.775c6.144,0 10.936,1.966 14.377,6.021c3.44,4.055 5.16,9.707 5.16,17.08l-31.333,-0l0,-0.123Zm0.614,-5.898l22.732,-0c-0.368,-3.441 -1.597,-6.021 -3.563,-7.864c-1.966,-1.843 -4.546,-2.704 -7.864,-2.704c-3.318,0 -5.898,0.983 -7.864,2.827c-1.966,1.72 -3.195,4.3 -3.441,7.741Z" style="fill:#fff;fill-rule:nonzero;"/><path d="M356.093,31.013l-5.776,-0l0,-6.636l12.902,0l0,49.888l5.898,-0l0,7.004l-18.8,-0l0,-7.004l5.776,-0l-0,-43.252Z" style="fill:#fff;fill-rule:nonzero;"/><path d="M380.053,63.452c0.123,3.44 1.352,6.266 3.564,8.478c2.211,2.212 5.283,3.195 8.97,3.195c2.58,-0 5.037,-0.614 7.249,-1.843c2.212,-1.229 4.055,-2.949 5.407,-5.161l6.266,3.318c-2.089,3.686 -4.669,6.389 -7.987,8.355c-3.194,1.843 -7.003,2.826 -11.181,2.826c-6.267,0 -11.182,-1.966 -14.991,-5.775c-3.686,-3.809 -5.529,-8.97 -5.529,-15.359c-0,-6.267 1.843,-11.428 5.529,-15.237c3.686,-3.809 8.478,-5.775 14.499,-5.775c6.144,0 10.936,1.966 14.377,6.021c3.44,4.055 5.16,9.707 5.16,17.08l-31.333,-0l0,-0.123Zm0.615,-5.898l22.732,-0c-0.369,-3.441 -1.598,-6.021 -3.564,-7.864c-1.966,-1.843 -4.546,-2.704 -7.864,-2.704c-3.317,0 -5.898,0.983 -7.864,2.827c-1.966,1.72 -3.195,4.3 -3.44,7.741Z" style="fill:#fff;fill-rule:nonzero;"/><path d="M446.775,56.202c-0.738,-2.949 -2.089,-5.161 -3.81,-6.635c-1.843,-1.475 -4.054,-2.335 -6.758,-2.335c-3.809,0 -6.881,1.229 -9.093,3.686c-2.211,2.458 -3.317,5.898 -3.317,10.322c-0,4.301 1.106,7.618 3.317,10.076c2.212,2.457 5.161,3.686 8.97,3.686c2.704,0 5.161,-0.737 7.373,-2.089c2.212,-1.351 3.932,-3.317 5.284,-5.898l6.266,3.072c-1.597,3.809 -4.055,6.881 -7.372,8.97c-3.441,2.212 -7.25,3.318 -11.551,3.318c-6.021,-0 -10.936,-1.966 -14.745,-5.776c-3.809,-3.809 -5.652,-8.969 -5.652,-15.236c0,-6.144 1.843,-11.182 5.407,-15.114c3.686,-3.932 8.232,-5.898 13.884,-5.898c2.335,0 4.424,0.369 6.267,1.106c1.966,0.737 3.686,1.843 5.53,3.441l-0,-3.564l6.389,0l0,14.868l-6.389,0Z" style="fill:#fff;fill-rule:nonzero;"/><path d="M469.261,70.21c-0,1.966 0.245,3.318 0.737,3.932c0.491,0.737 1.352,1.106 2.457,1.106c0.615,-0 1.229,-0.123 1.844,-0.246c0.614,-0.123 1.474,-0.491 2.334,-0.86l0,7.004c-0.983,0.368 -2.089,0.737 -3.072,0.983c-1.106,0.246 -2.089,0.368 -3.194,0.368c-3.072,0 -5.284,-0.737 -6.513,-2.211c-1.229,-1.475 -1.843,-4.424 -1.843,-8.847l0,-23.592l-5.284,-0l0,-6.636l5.284,0l0,-5.283l7.25,-6.021l-0,11.304l7.495,0l0,6.636l-7.495,-0l-0,22.363Z" style="fill:#fff;fill-rule:nonzero;"/><path d="M488.921,74.265l-0,-26.418l-5.653,-0l0,-6.636l12.534,0l-0,7.864c1.351,-3.072 3.072,-5.283 5.038,-6.635c1.966,-1.352 4.546,-1.966 7.741,-1.966l3.072,0l-0,7.741l-0.246,0c-1.229,-0.123 -2.089,-0.123 -2.703,-0.123c-4.301,0 -7.496,1.229 -9.462,3.687c-1.966,2.457 -2.949,6.389 -2.949,11.796l0,10.567l7.127,-0l0,7.004l-20.029,-0l0,-7.004l5.53,-0l-0,0.123Z" style="fill:#fff;fill-rule:nonzero;"/><path d="M553.922,61.363c-0,6.267 -1.843,11.427 -5.53,15.236c-3.686,3.932 -8.601,5.776 -14.499,5.776c-5.898,-0 -10.813,-1.966 -14.499,-5.776c-3.686,-3.809 -5.53,-8.969 -5.53,-15.236c0,-6.267 1.844,-11.428 5.53,-15.237c3.686,-3.809 8.478,-5.775 14.499,-5.775c6.021,0 10.813,1.966 14.499,5.775c3.687,3.809 5.53,8.97 5.53,15.237Zm-20.029,13.639c3.809,0 6.758,-1.229 8.847,-3.686c2.089,-2.458 3.195,-5.775 3.195,-10.076c-0,-4.301 -1.106,-7.741 -3.195,-10.076c-2.089,-2.457 -5.038,-3.686 -8.847,-3.686c-3.686,-0 -6.635,1.229 -8.847,3.686c-2.089,2.458 -3.195,5.775 -3.195,10.076c0,4.301 1.106,7.618 3.195,10.076c2.212,2.457 5.161,3.686 8.847,3.686Z" style="fill:#fff;fill-rule:nonzero;"/><path d="M563.875,74.265l-0,-26.418l-5.653,-0l0,-6.636l12.534,0l-0,6.144c2.703,-2.212 5.16,-3.686 7.249,-4.669c2.212,-0.983 4.424,-1.475 6.513,-1.475c3.44,0 6.021,0.983 7.372,2.949c1.475,1.966 2.212,5.775 2.212,11.428l-0,18.677l5.898,-0l0,7.004l-13.148,-0l0,-22.732c0,-4.792 -0.368,-7.741 -1.106,-8.97c-0.737,-1.229 -2.088,-1.843 -3.932,-1.843c-1.72,-0 -3.44,0.491 -5.283,1.474c-1.72,0.983 -3.564,2.581 -5.652,4.669l-0,20.398l5.898,-0l-0,7.004l-18.8,-0l-0,-7.004l5.898,-0Z" style="fill:#fff;fill-rule:nonzero;"/></g></svg>