<?xml version="1.0" encoding="UTF-8" standalone="no"?><!DOCTYPE svg PUBLIC "-//W3C//DTD SVG 1.1//EN" "http://www.w3.org/Graphics/SVG/1.1/DTD/svg11.dtd"><svg width="100%" height="100%" viewBox="0 0 600 194" version="1.1" xmlns="http://www.w3.org/2000/svg" xmlns:xlink="http://www.w3.org/1999/xlink" xml:space="preserve" xmlns:serif="http://www.serif.com/" style="fill-rule:evenodd;clip-rule:evenodd;stroke-linejoin:round;stroke-miterlimit:2;"><g id="acorn_archimedes"><g><path d="M327.547,35.27c-0.054,0 8.507,0 19.101,0l19.209,0c0.055,0 -8.507,0 -19.074,0l-19.236,0Z" style="fill:#fff;"/><path d="M327.547,35.297c-0,-0.009 -0,-0.018 -0,-0.027l-0,0l-0,-0c0,-0.48 0.01,-1.028 0.029,-1.586c-0.003,-0.036 -0.004,-0.071 -0.003,-0.104c-0.001,-0.005 -0.001,-0.01 -0.001,-0.014c0,-0.02 0.001,-0.039 0.002,-0.057c0.027,-0.569 0.054,-1.355 0.108,-1.951c0.109,-1.327 0.244,-2.709 0.461,-4.199c0.217,-1.436 0.488,-2.981 0.813,-4.498c0.325,-1.517 0.731,-3.034 1.192,-4.552c0.46,-1.517 0.975,-3.007 1.598,-4.47c0.171,-0.403 0.348,-0.803 0.53,-1.2c0.353,-0.782 0.728,-1.543 1.134,-2.272l0.002,-0.004c0.076,-0.139 0.151,-0.278 0.228,-0.417c0.026,-0.045 0.051,-0.091 0.077,-0.137c0.009,-0.016 0.017,-0.031 0.026,-0.046c0.003,-0.005 0.005,-0.01 0.008,-0.015c0.001,-0.001 0.018,-0.029 0.018,-0.03c0.009,-0.015 0.018,-0.03 0.027,-0.045c0.026,-0.044 0.053,-0.089 0.08,-0.133c0.084,-0.138 0.168,-0.276 0.253,-0.412l0.008,-0.013c0.636,-1.046 1.339,-2.014 2.08,-2.889l0.005,-0.007c0.047,-0.055 0.094,-0.109 0.141,-0.164l0.002,-0.002c0.243,-0.287 0.503,-0.568 0.769,-0.839c0.132,-0.136 0.265,-0.269 0.4,-0.399l0.001,-0.001c0.069,-0.067 0.137,-0.133 0.206,-0.198c0.021,-0.021 0.042,-0.041 0.063,-0.061c0.013,-0.012 0.026,-0.024 0.038,-0.036c0.001,-0.001 -0.002,0.002 -0.003,0.003c-0.002,0.002 -0.004,0.003 -0.006,0.005c-0.007,0.007 -0.014,0.014 -0.021,0.021c-0.02,0.02 -0.04,0.04 -0.06,0.06l0.004,-0.003c0.093,-0.086 0.187,-0.171 0.282,-0.255c0.089,-0.078 0.179,-0.155 0.269,-0.231l0.002,-0.002c0.255,-0.218 0.514,-0.427 0.777,-0.626l0.003,-0.002l-0.001,0.001c0.036,-0.028 0.073,-0.055 0.109,-0.082c0.623,-0.452 1.263,-0.849 1.927,-1.183l0.002,-0.001c0.23,-0.117 0.464,-0.226 0.701,-0.327c0.08,-0.034 0.159,-0.067 0.239,-0.098c0.025,-0.01 0.05,-0.02 0.074,-0.03c0.009,-0.003 0.017,-0.006 0.025,-0.009c0,-0 0.012,-0.005 0.012,-0.005c0.002,-0 -0.003,0.001 -0.004,0.002c-0.004,0.002 -0.007,0.003 -0.01,0.004c-0.01,0.005 -0.019,0.009 -0.029,0.013l0.001,-0c0.113,-0.044 0.226,-0.086 0.339,-0.125c0.036,-0.013 0.071,-0.025 0.107,-0.037c0.012,-0.004 0.024,-0.008 0.036,-0.012c0.004,-0.002 0.009,-0.004 0.014,-0.005c0.002,-0.001 0.005,-0.002 0.007,-0.003c0.002,0 -0.003,0.002 -0.005,0.002c-0.002,0.001 -0.003,0.002 -0.005,0.002c-0.005,0.002 -0.01,0.004 -0.015,0.006c-0.015,0.006 -0.03,0.011 -0.044,0.017c-0.048,0.02 -0.095,0.04 -0.141,0.061l-0.002,0.002c0.088,-0.031 0.177,-0.061 0.266,-0.09c0.102,-0.061 0.219,-0.091 0.328,-0.125c0.035,-0.013 0.07,-0.025 0.106,-0.037c-0.034,0.013 -0.07,0.025 -0.106,0.037l-0,-0c-0.04,0.015 -0.08,0.03 -0.119,0.047l-0.001,0l0.009,-0.003c-0.003,0.001 -0.007,0.003 -0.01,0.004l-0.003,0.001c-0.006,0.003 -0.013,0.005 -0.019,0.008l-0.004,0.002c0.24,-0.085 0.486,-0.159 0.736,-0.223c0.197,-0.051 0.397,-0.097 0.605,-0.139c0.333,-0.069 0.675,-0.123 1.023,-0.161c0.258,-0.031 0.519,-0.054 0.785,-0.069l0.001,0c0.11,-0.006 0.22,-0.011 0.331,-0.015c0.034,-0.001 0.069,-0.002 0.103,-0.003c0.013,0 0.026,-0 0.04,-0.001c-0,0 0.015,0 0.015,0c0.002,0 -0.003,0 -0.004,0l-0.019,0.001c-0.014,0.001 -0.028,0.001 -0.042,0.002l-0.001,0c0.094,-0.002 0.188,-0.003 0.283,-0.003l0.244,0c-0.031,0 -0.062,0 -0.094,0.001l-0.003,-0c0.178,0.001 0.356,0.006 0.534,0.015l0.007,0c0.069,0.001 0.138,0.003 0.208,0.006c0.023,0.001 0.047,0.002 0.071,0.003c0.007,0.001 0.014,0.001 0.021,0.001c0.003,0.001 0.005,0.001 0.007,0.001c0.003,-0 0.009,-0.001 0.008,0c-0,0 -0.016,0 -0.016,0c-0.01,0 -0.02,0 -0.03,0c-0.041,-0 -0.081,-0.001 -0.122,-0.002l0.002,0c0.029,0.002 0.058,0.004 0.087,0.007l0.008,0c0.119,0.009 0.238,0.019 0.356,0.03c0.039,0.004 0.077,0.008 0.116,0.013c0.012,0.001 0.025,0.002 0.038,0.004c0.005,0.001 0.01,0.001 0.016,0.002c0.002,0 0.007,0 0.005,0c-0.002,0 -0.005,-0 -0.007,-0c-0.003,-0 -0.005,-0.001 -0.007,-0.001c-0.01,-0.001 -0.02,-0.002 -0.03,-0.002l-0.002,-0.001c0.092,0.011 0.183,0.022 0.275,0.035c0.088,0.011 0.176,0.025 0.263,0.038l0.009,0.002c0.028,0.004 0.056,0.008 0.083,0.012l0.009,0.001c0.036,0.005 0.073,0.01 0.11,0.016c0.012,0.002 0.025,0.004 0.037,0.006c0.004,0.001 0.008,0.001 0.013,0.002c0.002,0 0.008,0.001 0.006,0.001c-0.006,-0.001 -0.011,-0.002 -0.017,-0.003c-0.013,-0.002 -0.027,-0.004 -0.041,-0.006c-0.036,-0.005 -0.072,-0.011 -0.108,-0.016l-0.006,-0.001c-0.021,-0.003 -0.041,-0.005 -0.061,-0.008l0.004,0.001c0.105,0.017 0.211,0.035 0.316,0.056c0.034,0.006 0.068,0.013 0.101,0.02c0.013,0.002 0.025,0.005 0.037,0.007c0.003,0.001 0.006,0.001 0.009,0.002c0.004,0.001 0.013,0.002 0.01,0.002c-0.004,0 -0.007,-0.001 -0.01,-0.002c-0.007,-0.001 -0.014,-0.002 -0.021,-0.003c-0.023,-0.005 -0.047,-0.009 -0.07,-0.013l-0.004,-0c0.062,0.012 0.124,0.024 0.186,0.037c0.053,0.011 0.108,0.023 0.163,0.035c0.287,0.051 0.563,0.123 0.836,0.209l0,-0c0.075,0.021 0.164,0.032 1.25,0.414c0.975,0.434 1.869,0.922 2.736,1.572c0.288,0.208 0.567,0.428 0.84,0.659l0.004,0.002c0.036,0.028 0.072,0.056 0.108,0.084c0.011,0.009 0.021,0.017 0.032,0.025c0.004,0.004 0.008,0.007 0.012,0.01c0.002,0.002 0.005,0.004 0.007,0.005c-0,0.001 0.012,0.012 0.012,0.012c0.009,0.007 0.017,0.015 0.025,0.023c0.027,0.024 0.054,0.049 0.081,0.074c0.083,0.076 0.165,0.153 0.246,0.23l0.004,0.004c0.088,0.081 0.175,0.163 0.261,0.246c0.172,0.167 0.341,0.336 0.507,0.509c0.288,0.301 0.566,0.611 0.836,0.928l0.006,0.007c0.04,0.04 0.078,0.082 0.115,0.124c0.036,0.041 0.07,0.083 0.104,0.125c0.017,0.022 0.034,0.044 0.051,0.066c0.007,0.009 0.013,0.018 0.02,0.027c0.002,0.003 0.005,0.006 0.008,0.01c0.001,0.002 0.003,0.004 0.004,0.006c0.004,0.004 0.007,0.008 0.01,0.012c0.008,0.01 0.016,0.02 0.024,0.03c0.028,0.035 0.055,0.069 0.082,0.104l0.002,0.002c0.262,0.328 0.515,0.667 0.76,1.017l0.001,0.003c0.051,0.07 0.102,0.14 0.152,0.21c0.016,0.022 0.032,0.045 0.048,0.068c0.006,0.007 0.011,0.015 0.017,0.023c-0,-0 0.01,0.015 0.01,0.015c0.001,0.001 0.016,0.023 0.017,0.025c0.011,0.016 0.022,0.033 0.033,0.049c0.036,0.054 0.072,0.108 0.107,0.162c0.104,0.158 0.206,0.318 0.306,0.478l0.009,0.014c0.201,0.316 0.396,0.637 0.585,0.96c0.006,0.01 0.012,0.021 0.018,0.031c0.003,0.005 0.006,0.01 0.009,0.015c0.005,0.008 0.01,0.017 0.015,0.025c0.011,0.017 0.021,0.034 0.031,0.051c0.03,0.051 0.06,0.102 0.089,0.154c0.025,0.044 0.049,0.088 0.073,0.133c0.008,0.016 0.016,0.032 0.025,0.048c0.002,0.005 0.005,0.01 0.007,0.015c0.001,0.002 0.003,0.005 0.004,0.007c0.001,0.003 0.003,0.005 0.004,0.008c0.003,0.005 0.005,0.009 0.008,0.014c0.008,0.015 0.016,0.03 0.024,0.044c0.023,0.042 0.046,0.083 0.069,0.125c0.066,0.122 0.132,0.245 0.196,0.369l0.007,0.012c0.016,0.029 0.031,0.057 0.046,0.085c0.005,0.01 0.01,0.019 0.015,0.029c0.001,0.001 0.01,0.018 0.01,0.019c0.008,0.014 0.015,0.028 0.022,0.042c0.017,0.032 0.034,0.065 0.051,0.098c0.045,0.089 0.09,0.178 0.135,0.268c0.128,0.256 0.251,0.515 0.371,0.775l0.006,0.013c0.267,0.56 0.521,1.132 0.763,1.713l0.007,0.017c0.013,0.029 0.025,0.059 0.038,0.088l0,0c0.015,0.028 0.03,0.056 0.046,0.083c0.005,0.01 0.011,0.02 0.016,0.03c0.002,0.003 0.004,0.007 0.006,0.011c0,0.001 0.001,0.002 0.002,0.003c-0,0.001 0,0.001 0,0.002c0.002,0.004 0.004,0.009 0.006,0.014c0.004,0.009 0.008,0.018 0.012,0.028c0.011,0.027 0.022,0.055 0.034,0.083c0.032,0.08 0.064,0.159 0.095,0.239c0.101,0.255 0.199,0.511 0.294,0.768l0.002,0.006c0.27,0.706 0.518,1.425 0.752,2.156c0.102,0.307 0.199,0.61 0.296,0.932c0.433,1.518 0.839,3.035 1.192,4.552c0.325,1.517 0.596,3.062 0.785,4.498l-0.093,-0.669c0.031,0.183 0.059,0.359 0.079,0.533l0.001,0.006c0.021,0.144 0.042,0.288 0.061,0.433c0.018,0.132 0.036,0.264 0.053,0.396l-0,0.003c0.166,1.207 0.461,3.008 0.469,3.158c0.186,1.092 0.5,3.19 0.385,4.051c0,0 -0.548,0.023 -0.548,0.027l-38.148,0Zm37.673,-8.434l0.002,0.008c0.017,0.114 0.034,0.228 0.051,0.342l0.001,0.01c0.006,0.046 0.01,0.091 0.014,0.136c0.035,0.235 0.111,0.785 0.117,0.827c-0.037,-0.273 -0.076,-0.548 -0.117,-0.827c-0.021,-0.164 -0.044,-0.33 -0.068,-0.496Z" style="fill:#fff;"/><path d="M365.94,38.115c0.029,0.004 0.058,0.009 0.087,0.015c0.012,0.002 0.024,0.004 0.035,0.007c0.008,0.001 0.016,0.003 0.023,0.005l0.001,-0c0.009,0 0.014,0 0.015,0c0.001,0.001 0.002,0.002 0.003,0.003l0,-0c0.005,0.001 0.01,0.002 0.014,0.003c0.009,0.002 0.017,0.005 0.025,0.007c0.006,0.002 0.011,0.003 0.017,0.005c0.005,0.001 0.01,0.002 0.015,0.003l0,0c0.004,0.001 0.009,0.002 0.013,0.002c0.005,0.001 0.011,0.002 0.017,0.003c0.006,0 0.012,0.001 0.017,0.001c0.005,0 0.01,0 0.014,0l0.001,0c0.018,0.011 0.034,0.021 0.049,0.03c0.004,0.001 0.008,0.003 0.012,0.006c0.014,0.004 0.031,0.01 0.047,0.018c0.004,0.008 0.008,0.015 0.012,0.021l0.001,0.001c0.037,0.023 0.053,0.032 0.068,0.032l0,0c0.01,0.005 0.019,0.01 0.028,0.015c0.009,0.006 0.019,0.013 0.028,0.019c0.008,0.006 0.016,0.013 0.023,0.019c0.007,0.007 0.014,0.014 0.021,0.021c0.002,0.001 0.004,0.003 0.006,0.005c0.002,0.002 0.003,0.003 0.005,0.005c0.002,0.002 0.004,0.004 0.006,0.007c0.007,0.007 0.014,0.014 0.02,0.022l0,-0c0.005,0.002 0.009,0.005 0.013,0.008c0.003,0.002 0.006,0.004 0.008,0.007c0.002,0.002 0.003,0.004 0.004,0.006l0.001,0.002c-0,-0 -0,-0 -0,-0c-0,0 -0,0 -0,0l-0,0.002c-0,0.002 -0,0.004 -0,0.005l0,0.001c0.003,0.004 0.006,0.008 0.01,0.012c0.003,0.003 0.006,0.007 0.009,0.01c0.002,0.003 0.005,0.006 0.007,0.009c0.003,0.002 0.006,0.005 0.009,0.007l0,0c0.008,0.006 0.013,0.008 0.019,0.008c0.005,0.005 0.009,0.009 0.012,0.014c0.004,0.006 0.008,0.011 0.012,0.017c0.003,0.006 0.007,0.013 0.01,0.02c0.004,0.009 0.008,0.018 0.011,0.028l0,0c0.001,0 0.002,0.001 0.002,0.001c0.002,0.001 0.003,0.001 0.004,0.001c0.001,0 0.001,0 0.002,0l0.001,0c0,0 0,0 0,0c0,0 -0,0.001 -0,0.001c-0.001,0 -0.001,0.001 -0.002,0.001c-0.001,0.001 -0.003,0.003 -0.004,0.004l-0,0c0.002,0.01 0.004,0.02 0.005,0.03l0,-0l0,0c0.006,0.015 0.011,0.028 0.015,0.039l0.001,0c0.003,0.008 0.006,0.016 0.009,0.024c0.004,0.01 0.007,0.021 0.011,0.03l-0,0.001c0.006,0.015 0.011,0.025 0.019,0.033c0.028,0.054 0.028,0.081 0.055,0.135l-0,0.136c-0,0.065 -0.001,0.13 -0.002,0.195c-0,0.066 -0.002,0.132 -0.003,0.199l-0,-0.002l0.004,-0.033c0,-0.002 0,-0.005 0.001,-0.007c-0,-0.001 -0,0.003 -0,0.004l-0.001,0.015c-0,0.012 -0,0.025 -0.001,0.038c-0.001,0.036 -0.002,0.072 -0.003,0.108c-0.004,0.108 -0.009,0.217 -0.015,0.325c-0.019,0.332 -0.048,0.663 -0.089,0.993c-0.032,0.26 -0.071,0.519 -0.117,0.777c-0.046,0.259 -0.099,0.517 -0.159,0.773c-0.066,0.283 -0.141,0.564 -0.224,0.843c-0.035,0.116 -0.071,0.232 -0.108,0.348c-0.019,0.059 -0.039,0.118 -0.058,0.176l-0.001,0.003c-0.02,0.057 -0.039,0.114 -0.059,0.171c-0.039,0.112 -0.08,0.223 -0.122,0.334c-0.042,0.112 -0.085,0.223 -0.13,0.334c-0.023,0.056 -0.046,0.112 -0.069,0.168l-0.001,0.002c-0.022,0.053 -0.044,0.105 -0.067,0.158c-0.044,0.103 -0.09,0.206 -0.137,0.309c-0.12,0.262 -0.247,0.521 -0.38,0.776c-0.148,0.281 -0.304,0.558 -0.468,0.831c-0.123,0.205 -0.251,0.408 -0.382,0.608c-0.101,0.152 -0.203,0.302 -0.308,0.45c-0.08,0.114 -0.162,0.227 -0.244,0.339c-0.064,0.086 -0.129,0.172 -0.194,0.257c-0.416,0.541 -0.862,1.059 -1.332,1.554c-0.067,0.07 -0.134,0.139 -0.201,0.208c-0.088,0.089 -0.176,0.178 -0.265,0.266c-0.117,0.115 -0.235,0.229 -0.355,0.341c-0.157,0.148 -0.317,0.294 -0.478,0.437c-0.213,0.189 -0.429,0.373 -0.649,0.553c-0.289,0.238 -0.584,0.468 -0.884,0.691c-0.382,0.284 -0.774,0.558 -1.173,0.819c-0.28,0.185 -0.565,0.363 -0.853,0.536c-0.287,0.173 -0.577,0.339 -0.871,0.5c-0.36,0.198 -0.726,0.387 -1.095,0.567c-0.373,0.182 -0.75,0.354 -1.132,0.518c-0.09,0.038 -0.18,0.076 -0.27,0.114c-0.045,0.018 -0.09,0.037 -0.135,0.055l-0.002,0.001c-0.04,0.016 -0.079,0.032 -0.119,0.048c-0.079,0.032 -0.158,0.063 -0.237,0.094c-0.347,0.136 -0.697,0.263 -1.049,0.383c-0.188,0.063 -0.377,0.124 -0.567,0.183c-0.186,0.057 -0.373,0.113 -0.561,0.165c-0.182,0.051 -0.365,0.1 -0.548,0.146c-0.18,0.045 -0.36,0.087 -0.54,0.127c-0.155,0.034 -0.309,0.066 -0.464,0.096c-0.152,0.03 -0.304,0.057 -0.456,0.083c-0.084,0.014 -0.167,0.027 -0.25,0.04l-0.005,0l-0.113,0l-0.001,0.001c-0.007,0.002 -0.014,0.004 -0.021,0.006c-0.007,0.002 -0.014,0.005 -0.021,0.007l0,0c-0.215,0.081 -0.314,0.237 -0.359,0.393c-0.001,-0.003 -0.002,-0.006 -0.004,-0.009l0,0.001c-0.002,0.011 -0.004,0.021 -0.006,0.032c-0.009,0.046 -0.013,0.094 -0.015,0.141c-0.001,0.023 -0.001,0.046 -0.002,0.069c0,0.019 0,0.038 0,0.057l0,0.007l0,1.815l0.027,0l0,0.091l0,-0c0.003,0.006 0.006,0.013 0.009,0.02c0.004,0.007 0.007,0.014 0.011,0.02l0,0c0.01,0.016 0.02,0.031 0.031,0.045c0.068,0.064 0.117,0.146 0.193,0.203l0,0l0.001,0.002l0.001,-0c0.007,0.006 0.015,0.012 0.023,0.018c0.04,0.03 0.081,0.059 0.124,0.086c0.055,0.035 0.111,0.067 0.169,0.098l0,-0c0.025,0.013 0.05,0.025 0.076,0.038c0.024,0.012 0.048,0.024 0.072,0.035l0.002,0.001c-0.021,-0.01 -0.041,-0.022 -0.062,-0.034c0.162,0.081 0.324,0.135 0.513,0.216l0.002,0.001l-0.376,-0l0.457,0.135l19.914,7.939c0.949,0.433 0.759,0.542 -0.243,0.894l-3.225,1.246c-0.894,0.298 -0.867,0.271 -2.357,-0.542c-9.835,-5.256 -25.82,-10.783 -37.416,-14.143c-0.759,-0.189 -0.732,-0.541 -0.623,-0.867c0.216,-0.514 0.65,-0.487 0.975,-0.433l17.665,4.335l0.596,0.176l0,-1.395c0,-0.248 0,-0.587 -0.394,-0.705l-0.094,0c-7.152,-1.083 -17.854,-7.532 -17.854,-18.017c0.027,-0.19 0.027,-0.217 0.054,-0.271c0.005,-0.005 0.01,-0.012 0.013,-0.019c0.017,-0.07 0.023,-0.099 0.041,-0.116c0.004,-0.007 0.008,-0.014 0.012,-0.02c0.006,-0.013 0.014,-0.026 0.023,-0.037c0.056,-0.088 0.082,-0.115 0.128,-0.16l0.081,-0.082c0.017,0 0.032,-0.002 0.046,-0.007c0.006,-0.006 0.008,-0.012 0.008,-0.02c0.009,0.002 0.018,0.003 0.026,0.004c0.017,-0.009 0.034,-0.02 0.055,-0.031l0,0c0.001,-0.027 0.055,-0.027 0.082,-0.054l0.024,0.001c0.001,-0 0.002,-0 0.003,-0.001c0.035,0 0.059,-0.012 0.079,-0.02l0,0c0.001,-0.001 0.002,-0.003 0.002,-0.005l0,-0.002c0,0 -0,0 0,0c0.006,0 0.011,0 0.017,0.001l0.003,-0c0.002,-0.001 0.005,-0.001 0.007,-0.001l0.163,-0.027l22.799,-0l0.012,-0c1.255,-0.004 2.511,-0.006 3.767,-0.007c1.289,-0.001 2.579,-0.001 3.868,0l0.031,0.001c0.274,-0.001 0.547,-0.001 0.821,-0.001c0.259,0.001 0.517,0.002 0.776,0.003l0.043,0c0.546,0.001 1.091,0.002 1.637,0.004l0.009,-0l4.656,-0l0.001,0Zm-16.321,22.236l-0.002,-0.001l0.002,0.001c0.002,0.001 0.003,0.003 0.005,0.004c0.001,0.001 0.002,0.002 0.003,0.003l0.001,0.001l-0.001,-0.001c-0.001,-0.001 -0.002,-0.002 -0.003,-0.003c-0.002,-0.001 -0.003,-0.003 -0.005,-0.004Zm-0.006,-0.003l0.004,0.002l-0.004,-0.002Zm-0.021,-0.01l0.005,0.002c0.004,0.001 0.007,0.003 0.009,0.004l0.005,0.002l0.002,0.001l-0.005,-0.002c-0,-0 -0.001,-0.001 -0.002,-0.001c-0.002,-0.001 -0.005,-0.003 -0.009,-0.004l-0.005,-0.002Zm-0.004,-0.002l0.004,0.001l-0.004,-0.001Zm-0.007,-0.003l0.005,0.002l-0.005,-0.002Zm-0.013,-0.006l-0.008,-0.003l0.01,0.004l0.001,0.001l0.01,0.004l-0.013,-0.006Zm-0.011,-0.005l-0.006,-0.003l0.006,0.003Zm-0.007,-0.003l-0.001,-0.001l0.001,0.001Zm-0.012,-0.006l0.004,0.002l0.006,0.003l-0.007,-0.004l-0.003,-0.001Zm-0.005,-0.003l0.005,0.002l-0.005,-0.002Zm0,-0l-0.003,-0.002c0.001,0 0.002,0.001 0.003,0.002Zm-0.011,-0.008l0.001,0.001l0.006,0.004c0,0 0.001,0 0.001,0l-0.002,-0.001l-0.006,-0.004Zm-0.001,-0.001l0.001,0.001l-0.001,-0.001Zm-0.001,0l-0,-0c-0,-0 0,-0 0,0Zm-0.001,-0.001l-0.001,-0.001l0.001,0.001Zm-0.001,-0.001l-0.001,-0c0,-0 0,-0 0.001,0Zm-0.004,-0.003l-0.005,-0.004l0.002,0.002l0.004,0.003c0.001,0.001 0.001,0.001 0.002,0.001l-0.003,-0.002Zm-0.006,-0.004l-0.002,-0.002l0.002,0.002Zm-0.011,-0.01l-0.001,-0.001c0.001,0 0.001,0.001 0.001,0.001c0.003,0.003 0.006,0.005 0.008,0.007l0.001,0.001l-0.001,-0.001c-0.002,-0.002 -0.005,-0.004 -0.008,-0.007Zm-0.004,-0.004l0.003,0.003l-0.003,-0.003Zm-0.234,-0.064c0.031,0.014 0.062,0.027 0.094,0.041l-0.001,-0.001c-0.015,-0.006 -0.03,-0.012 -0.046,-0.019l0,0c-0.016,-0.007 -0.031,-0.014 -0.047,-0.021Z" style="fill:#fff;"/><path d="M363.907,38.603c-0.109,-0 -2.683,0.189 -8.643,-0.19c0.054,-0 6.394,-0.325 9.781,-0c-0.786,0.135 -1.138,0.19 -1.138,0.19Z" style="fill:#fff;"/><path d="M363.852,38.467c-1.625,0.136 -1.625,0.136 -6.61,-0.054c3.251,-0.081 5.445,-0.136 6.881,-0c-0.054,-0 -0.189,0.054 -0.271,0.054Z" style="fill:#fff;"/><path d="M223.913,49.088c-0.704,5.012 -4.579,9.103 -12.003,9.103c-9.022,0 -15.199,-6.367 -15.199,-15.389c-0,-9.727 7.423,-17.611 15.823,-17.611c6.096,0 10.539,4.498 10.539,8.806c0,2.682 -1.653,4.443 -3.874,4.443c-2.168,0 -3.875,-1.761 -3.875,-3.956c0,-2.005 1.382,-3.468 3.441,-3.468c0.217,0 0.488,0.055 0.705,0.055c-0.84,-3.116 -3.116,-4.932 -6.449,-4.932c-5.879,0 -8.399,5.148 -8.399,15.688c0,10.133 2.168,14.983 8.183,14.983c6.394,-0 9.347,-3.821 9.916,-7.83l1.192,0.108Z" style="fill:#fff;"/><path d="M256.453,42.125c-0,9.212 -7.207,16.148 -15.39,16.148c-8.995,-0 -15.253,-7.072 -15.253,-16.148c-0,-9.808 6.854,-16.934 15.877,-16.934c8.182,0 14.766,6.99 14.766,16.934Zm-22.813,0.271c-0,9.835 2.574,14.901 7.369,14.901c4.633,0 7.532,-5.147 7.532,-14.847c0,-10.675 -2.682,-16.311 -7.423,-16.311c-4.959,0 -7.478,5.419 -7.478,16.257Z" style="fill:#fff;"/><path d="M153.415,56.891l6.259,-0l16.771,-52.86l1.165,-0l17.665,52.86l5.31,-0l0,1.192l-19.263,0l-0,-1.192l6.231,-0l-5.094,-15.823l-15.931,0l-4.931,15.823l6.692,-0l0,1.192l-14.874,0l-0,-1.192Zm28.123,-18.017l-7.261,-21.838l-7.071,21.838l14.332,-0Z" style="fill:#fff;"/><path d="M256.561,56.864l5.229,-0l0,-29.37l-5.066,0l-0,-1.219c4.118,-0 7.83,0.135 11.162,-0.379l0,7.938c2.601,-5.419 5.717,-8.074 9.266,-8.074c2.954,0 4.525,1.545 4.525,4.335c-0,2.059 -1.246,3.495 -3.333,3.495c-1.896,0 -3.305,-1.707 -3.305,-3.495c-0,-0.596 0.163,-1.002 0.163,-1.355c-0,-0.433 -0.082,-0.596 -0.353,-0.596c-2.601,0 -6.8,6.205 -6.8,12.193l-0,16.527l5.771,-0l-0,1.165l-17.259,-0l-0,-1.165Z" style="fill:#fff;"/><path d="M283.248,56.864l4.281,-0l0,-29.261l-4.281,-0l0,-1.328l1.436,-0c3.225,-0 6.178,0.163 8.86,-0.352l0,9.049c2.303,-6.313 6.34,-9.537 11.732,-9.537c5.473,0 8.805,3.333 8.805,9.104l0,22.325l4.118,-0l0,1.165l-14.657,-0l-0,-1.165l4.497,-0l0,-22.569c0,-4.254 -1.571,-6.313 -4.904,-6.313c-4.904,-0 -9.428,5.96 -9.428,14.143l-0,14.739l4.199,-0l0,1.165l-14.658,-0l0,-1.165Z" style="fill:#fff;"/></g><g><path d="M13.913,193.192l-13.913,0l0,-0.363l118.972,-153.319l12.822,0l-0.015,153.682l-10.92,0l-0,-68.585c-14.3,-10.787 -33.229,-12.359 -50.667,-3.942l-56.279,72.527Zm106.946,-81.816l-0,-56.003l-38.974,50.225c13.63,-2.92 27.294,-0.91 38.974,5.778Z" style="fill:#fff;"/><path d="M163.995,111.773l-1.753,11.362l0.259,0.26c3.55,-5.064 6.363,-8.419 8.441,-10.064c2.077,-1.644 4.545,-2.467 7.401,-2.467c1.775,0 3.42,0.303 4.935,0.909l-0,12.791c-2.381,-1.342 -4.697,-2.013 -6.947,-2.013c-2.208,-0 -4.177,0.552 -5.909,1.656c-1.731,1.103 -3.83,3.462 -6.298,7.077c-2.467,3.614 -3.744,5.81 -3.83,6.59l-4.675,33.631l-11.297,0l8.375,-59.732l11.298,0Z" style="fill:#fff;fill-rule:nonzero;"/><path d="M226.91,158.196l-1.298,10.907c-5.194,2.857 -10.735,4.285 -16.621,4.285c-8.008,0 -14.403,-2.499 -19.186,-7.499c-4.783,-4.999 -7.175,-11.676 -7.175,-20.029c0,-10.086 3.625,-18.591 10.876,-25.517c7.25,-6.925 16.523,-10.388 27.821,-10.388c2.856,0 6.276,0.346 10.258,1.039l-1.493,9.999c-2.814,-0.65 -5.692,-0.974 -8.636,-0.974c-7.834,-0 -14.337,2.51 -19.51,7.531c-5.172,5.021 -7.759,10.886 -7.759,17.595c0,5.627 1.461,10.053 4.383,13.278c2.922,3.224 6.915,4.837 11.979,4.837c5.367,-0 10.821,-1.688 16.361,-5.064Z" style="fill:#fff;fill-rule:nonzero;"/><path d="M254.378,80.803l-5.713,40.579l0.259,0.26c6.709,-7.791 13.613,-11.687 20.712,-11.687c4.372,0 7.78,1.483 10.226,4.448c2.445,2.965 3.668,6.958 3.668,11.979c0,1.428 -0.108,2.9 -0.325,4.415l-5.713,40.708l-11.297,0l5.713,-41.358c0.13,-1.038 0.195,-2.012 0.195,-2.921c-0,-5.844 -2.316,-8.765 -6.947,-8.765c-3.376,-0 -7.207,2.175 -11.492,6.525c-4.285,4.35 -6.493,6.914 -6.623,7.693l-5.453,38.826l-11.298,0l12.791,-90.702l11.297,0Z" style="fill:#fff;fill-rule:nonzero;"/><path d="M293.994,93.074c0,-1.818 0.638,-3.365 1.915,-4.642c1.277,-1.277 2.803,-1.915 4.578,-1.915c1.774,-0 3.3,0.638 4.577,1.915c1.277,1.277 1.915,2.824 1.915,4.642c0,1.775 -0.638,3.301 -1.915,4.578c-1.277,1.277 -2.803,1.915 -4.577,1.915c-1.775,-0 -3.301,-0.638 -4.578,-1.915c-1.277,-1.277 -1.915,-2.803 -1.915,-4.578Zm10.064,18.699l-8.376,59.732l-11.297,0l8.375,-59.732l11.298,0Z" style="fill:#fff;fill-rule:nonzero;"/><path d="M322.207,111.773l-1.559,10.388c6.969,-7.531 13.916,-11.297 20.842,-11.297c7.704,0 12.228,4.48 13.569,13.44c7.272,-8.96 14.717,-13.44 22.335,-13.44c4.242,0 7.651,1.45 10.226,4.35c2.576,2.9 3.863,6.969 3.863,12.206c0,1.645 -0.13,3.442 -0.389,5.389l-5.454,38.696l-11.297,0l5.583,-39.215c0.217,-1.342 0.325,-2.597 0.325,-3.766c-0,-5.843 -2.143,-8.765 -6.428,-8.765c-1.082,0 -2.272,0.227 -3.571,0.682c-1.298,0.454 -2.748,1.201 -4.35,2.24c-1.601,1.039 -3.776,2.921 -6.525,5.648c-2.748,2.727 -4.188,4.48 -4.318,5.259l-5.453,37.917l-11.298,0l5.324,-37.787c0.303,-1.861 0.455,-3.527 0.455,-4.999c-0,-5.973 -2.359,-8.96 -7.077,-8.96c-2.987,0 -6.698,2.089 -11.135,6.266c-4.437,4.176 -6.72,6.698 -6.85,7.563l-5.324,37.917l-11.297,0l8.505,-59.732l11.298,0Z" style="fill:#fff;fill-rule:nonzero;"/><path d="M442.524,155.923l-1.623,10.778c-6.06,4.458 -12.704,6.687 -19.932,6.687c-7.532,0 -13.581,-2.629 -18.147,-7.888c-4.567,-5.259 -6.85,-12.26 -6.85,-21.004c-0,-9.739 2.738,-17.93 8.213,-24.575c5.476,-6.644 12.174,-9.966 20.095,-9.966c6.06,0 11.102,2.327 15.128,6.98c4.025,4.653 6.038,10.659 6.038,18.017c-0,1.818 -0.13,3.679 -0.39,5.584l-37.267,-0c-0.347,1.991 -0.52,3.895 -0.52,5.713c0,5.497 1.504,9.836 4.513,13.018c3.008,3.181 6.784,4.772 11.329,4.772c5.541,-0 12.012,-2.705 19.413,-8.116Zm-32.982,-23.244l24.996,0c0,-4.155 -0.941,-7.434 -2.824,-9.836c-1.883,-2.402 -4.534,-3.603 -7.953,-3.603c-6.493,-0 -11.233,4.48 -14.219,13.439Z" style="fill:#fff;fill-rule:nonzero;"/><path d="M509.597,80.803l-12.79,90.702c-4.372,1.256 -9.458,1.883 -15.258,1.883c-10.085,0 -17.844,-2.402 -23.276,-7.206c-5.432,-4.805 -8.148,-11.622 -8.148,-20.452c-0,-8.657 3.527,-16.784 10.583,-24.38c7.055,-7.597 16.621,-11.395 28.697,-11.395l4.74,0l4.155,-29.152l11.297,0Zm-22.854,82.976l6.103,-44.409l-2.922,-0c-8.44,-0 -15.246,2.564 -20.419,7.693c-5.172,5.13 -7.759,11.265 -7.759,18.407c0,5.93 1.71,10.507 5.13,13.732c3.419,3.225 8.31,4.837 14.673,4.837c2.294,-0 4.025,-0.087 5.194,-0.26Z" style="fill:#fff;fill-rule:nonzero;"/><path d="M553.509,155.923l-1.623,10.778c-6.06,4.458 -12.704,6.687 -19.933,6.687c-7.531,0 -13.58,-2.629 -18.147,-7.888c-4.566,-5.259 -6.85,-12.26 -6.85,-21.004c0,-9.739 2.738,-17.93 8.214,-24.575c5.475,-6.644 12.173,-9.966 20.094,-9.966c6.06,0 11.103,2.327 15.128,6.98c4.026,4.653 6.038,10.659 6.038,18.017c0,1.818 -0.129,3.679 -0.389,5.584l-37.268,-0c-0.346,1.991 -0.519,3.895 -0.519,5.713c-0,5.497 1.504,9.836 4.512,13.018c3.008,3.181 6.785,4.772 11.33,4.772c5.54,-0 12.011,-2.705 19.413,-8.116Zm-32.983,-23.244l24.997,0c-0,-4.155 -0.942,-7.434 -2.825,-9.836c-1.882,-2.402 -4.534,-3.603 -7.953,-3.603c-6.493,-0 -11.232,4.48 -14.219,13.439Z" style="fill:#fff;fill-rule:nonzero;"/><path d="M600,116.188l0,11.817c-6.882,-5.238 -12.877,-7.856 -17.985,-7.856c-2.294,-0 -4.22,0.616 -5.778,1.85c-1.558,1.234 -2.337,2.716 -2.337,4.448c-0,1.125 0.487,2.326 1.46,3.603c0.974,1.277 4.047,3.647 9.22,7.109c5.172,3.463 8.657,6.645 10.453,9.545c1.796,2.9 2.695,5.843 2.695,8.83c-0,5.237 -1.743,9.522 -5.227,12.855c-3.484,3.333 -7.91,4.999 -13.277,4.999c-6.623,0 -13.527,-2.618 -20.712,-7.856l1.948,-10.907c7.445,5.93 13.569,8.895 18.374,8.895c2.251,-0 4.101,-0.628 5.551,-1.883c1.45,-1.256 2.175,-2.835 2.175,-4.74c0,-1.428 -0.53,-2.889 -1.59,-4.382c-1.061,-1.494 -4.145,-4.015 -9.252,-7.564c-5.108,-3.55 -8.484,-6.709 -10.129,-9.48c-1.645,-2.77 -2.467,-5.562 -2.467,-8.375c-0,-5.151 1.71,-9.296 5.129,-12.434c3.419,-3.138 7.964,-4.707 13.635,-4.707c5.973,0 12.011,2.078 18.114,6.233Z" style="fill:#fff;fill-rule:nonzero;"/></g></g></svg>