<svg clip-rule="evenodd" fill-rule="evenodd" stroke-linejoin="round" stroke-miterlimit="2" viewBox="0 0 600 121" xmlns="http://www.w3.org/2000/svg"><g fill="#fff" fill-rule="nonzero"><path d="m16.912 81.187c.252 7.068 2.777 12.874 7.32 17.417 4.544 4.544 10.854 6.563 18.427 6.563 5.301 0 10.349-1.262 14.893-3.786 4.543-2.524 8.329-6.058 11.106-10.602l12.873 6.815c-4.291 7.573-9.592 13.126-16.407 17.165-6.563 3.786-14.388 5.806-22.97 5.806-12.873 0-22.97-4.039-30.795-11.864-7.573-7.825-11.359-18.427-11.359-31.552 0-12.874 3.786-23.475 11.359-31.3 7.572-7.825 17.417-11.864 29.785-11.864 12.621 0 22.466 4.039 29.533 12.368 7.068 8.33 10.602 19.942 10.602 35.087h-64.367zm1.262-12.116h46.698c-.758-7.068-3.282-12.368-7.32-16.155-4.039-3.786-9.34-5.553-16.155-5.553-6.816 0-12.116 2.019-16.155 5.806-4.039 3.534-6.563 8.834-7.068 15.902z"/><path d="m98.948 14.549h-11.863v-13.631h26.504v102.482h12.116v14.388h-38.62v-14.388h11.863z"/><path d="m148.17 81.187c.252 7.068 2.777 12.874 7.32 17.417 4.544 4.544 10.854 6.563 18.427 6.563 5.301 0 10.349-1.262 14.892-3.786 4.544-2.524 8.33-6.058 11.107-10.602l12.873 6.815c-4.291 7.573-9.592 13.126-16.407 17.165-6.563 3.786-14.388 5.806-22.97 5.806-12.874 0-22.97-4.039-30.795-11.864-7.573-7.825-11.359-18.427-11.359-31.552 0-12.874 3.786-23.475 11.359-31.3 7.572-7.825 17.417-11.864 29.785-11.864 12.621 0 22.465 4.039 29.533 12.368 7.068 8.33 10.602 19.942 10.602 35.087h-64.367zm1.262-12.116h46.698c-.758-7.068-3.282-12.368-7.321-16.155-4.038-3.786-9.339-5.553-16.154-5.553-6.816 0-12.117 2.019-16.155 5.806-4.039 3.534-6.563 8.834-7.068 15.902z"/><path d="m285.233 66.295c-1.514-6.059-4.291-10.602-7.825-13.631-3.786-3.029-8.329-4.796-13.883-4.796-7.825 0-14.135 2.524-18.679 7.573-4.543 5.048-6.815 12.116-6.815 21.203 0 8.834 2.272 15.65 6.815 20.698 4.544 5.048 10.602 7.573 18.427 7.573 5.553 0 10.602-1.515 15.145-4.291 4.544-2.777 8.078-6.816 10.854-12.117l12.874 6.311c-3.282 7.825-8.33 14.135-15.146 18.426-7.067 4.544-14.892 6.816-23.727 6.816-12.368 0-22.465-4.039-30.29-11.864s-11.612-18.427-11.612-31.3c0-12.621 3.787-22.97 11.107-31.047 7.572-8.078 16.912-12.117 28.523-12.117 4.796 0 9.087.758 12.874 2.272 4.038 1.515 7.572 3.787 11.358 7.068v-7.32h13.126v30.543z"/><path d="m331.426 95.07c0 4.039.505 6.816 1.515 8.078 1.009 1.514 2.776 2.271 5.048 2.271 1.262 0 2.524-.252 3.786-.504 1.262-.253 3.029-1.01 4.796-1.767v14.388c-2.019.757-4.291 1.514-6.31 2.019-2.272.505-4.291.757-6.563.757-6.311 0-10.854-1.514-13.378-4.543s-3.787-9.087-3.787-18.175v-48.464h-10.854v-13.631h10.854v-10.854l14.893-12.368v23.222h15.398v13.631h-15.398z"/><path d="m371.813 103.4v-54.27h-11.611v-13.631h25.747v16.155c2.776-6.31 6.31-10.854 10.349-13.63 4.039-2.777 9.339-4.039 15.902-4.039h6.311v15.902h-.505c-2.524-.252-4.291-.252-5.553-.252-8.835 0-15.398 2.524-19.437 7.572-4.038 5.049-6.058 13.126-6.058 24.233v21.708h14.641v14.388h-41.145v-14.388h11.359z"/><path d="m505.343 76.896c0 12.873-3.786 23.475-11.359 31.3-7.573 8.077-17.669 11.864-29.785 11.864-12.117 0-22.213-4.039-29.786-11.864-7.572-7.825-11.359-18.427-11.359-31.3s3.787-23.475 11.359-31.3c7.573-7.825 17.417-11.864 29.786-11.864 12.368 0 22.212 4.039 29.785 11.864s11.359 18.427 11.359 31.3zm-41.144 28.019c7.825 0 13.883-2.525 18.174-7.573s6.563-11.864 6.563-20.698c0-8.835-2.272-15.903-6.563-20.699-4.291-5.048-10.349-7.572-18.174-7.572-7.573 0-13.631 2.524-18.175 7.572-4.291 5.049-6.562 11.864-6.562 20.699 0 8.834 2.271 15.65 6.562 20.698 4.544 5.048 10.602 7.573 18.175 7.573z"/><path d="m525.789 103.4v-54.27h-11.611v-13.631h25.746v12.621c5.553-4.543 10.602-7.572 14.893-9.592 4.544-2.019 9.087-3.029 13.378-3.029 7.068 0 12.369 2.02 15.145 6.058 3.029 4.039 4.544 11.864 4.544 23.475v38.368h12.116v14.388h-27.009v-46.698c0-9.844-.757-15.902-2.272-18.426-1.514-2.524-4.291-3.786-8.077-3.786-3.534 0-7.068 1.009-10.854 3.029-3.534 2.019-7.32 5.3-11.611 9.592v41.901h12.116v14.388h-38.62v-14.388z"/></g></svg>