<svg clip-rule="evenodd" fill-rule="evenodd" stroke-linejoin="round" stroke-miterlimit="2" viewBox="0 0 600 155" xmlns="http://www.w3.org/2000/svg"><g fill="#fff"><path d="m556.824 94.921v38.587l-24.088-.088v-93.705l43.381 37.338v-34.518h23.883v94.692z"/><path d="m86.12 87.947c0-25.918 21.038-46.953 46.955-46.953 11.68 0 22.372 4.299 30.596 11.36l-15.516 17.607c-4.067-3.429-9.328-5.492-15.08-5.492-12.959 0-23.477 10.518-23.477 23.477 0 12.958 10.518 23.477 23.477 23.477 5.839 0 11.187-2.15 15.312-5.695l15.487 17.636c-8.224 7.176-19.002 11.507-30.799 11.507-25.919.001-46.955-21.006-46.955-46.923z"/><path d="m206.527 42.533h23.943v91.323h-23.944z"/><path d="m276.058 154.746-45.299-120.35h-37.86v99.808h-24.785v-99.808h-54.857l12.726-23.972h122.471l27.602 72.117 27.634-72.117h118.577l13.074 23.972h-113.956z" fill-rule="nonzero"/><path d="m352.592 133.508v-20.166h16.446c2.673 0 7.758-.203 9.036-4.444 2.644-8.833-24.436-23.158-24.436-45.123 0-16.62 12.028-21.588 20.194-21.588h24.929v19.815h-15.4s-4.416 0-5.637 1.773c-6.683 9.559 24.756 23.535 24.756 49.219 0 13.424-11.506 20.514-22.984 20.514z"/><path d="m321.734 42.185h23.972v91.322h-23.972z"/><path d="m406.374 42.185h23.971v91.322h-23.971z"/><path d="m434.703 87.919c0-25.947 21.066-47.012 47.041-47.012 25.947 0 47.011 21.065 47.011 47.012 0 25.976-21.066 47.041-47.011 47.041-25.975 0-47.041-21.066-47.041-47.041zm23.68 0c0 12.9 10.461 23.361 23.361 23.361 12.871 0 23.332-10.461 23.332-23.361 0-12.872-10.461-23.332-23.332-23.332-12.9 0-23.361 10.459-23.361 23.332z"/><path d="m67.931 133.856-6.364-16.997h-29.723l-6.362 16.997h-25.482l46.722-133.773 46.722 133.773zm-28.824-41.406h14.151l-7.089-23.361z"/></g></svg>