<?xml version="1.0" encoding="UTF-8" standalone="no"?><!DOCTYPE svg PUBLIC "-//W3C//DTD SVG 1.1//EN" "http://www.w3.org/Graphics/SVG/1.1/DTD/svg11.dtd"><svg width="100%" height="100%" viewBox="0 0 600 155" version="1.1" xmlns="http://www.w3.org/2000/svg" xmlns:xlink="http://www.w3.org/1999/xlink" xml:space="preserve" xmlns:serif="http://www.serif.com/" style="fill-rule:evenodd;clip-rule:evenodd;stroke-linejoin:round;stroke-miterlimit:2;"><g id="activision"><path d="M556.824,94.853l-0,38.588l-24.088,-0.088l-0,-93.706l43.381,37.338l-0,-34.518l23.883,0l-0,94.692l-43.176,-42.306Z" style="fill:#fff;"/><path d="M86.12,87.88c0,-25.918 21.038,-46.953 46.955,-46.953c11.68,-0 22.372,4.299 30.596,11.359l-15.516,17.608c-4.067,-3.429 -9.328,-5.492 -15.08,-5.492c-12.959,0 -23.477,10.518 -23.477,23.477c-0,12.958 10.518,23.477 23.477,23.477c5.839,-0 11.187,-2.15 15.312,-5.695l15.487,17.636c-8.224,7.176 -19.002,11.507 -30.799,11.507c-25.919,0.001 -46.955,-21.006 -46.955,-46.923l0,-0.001Z" style="fill:#fff;"/><path d="M206.527,42.466l23.943,0l-0,91.323l-23.944,-0l0.001,-91.323Z" style="fill:#fff;"/><path d="M276.058,154.679l-45.299,-120.35l-37.86,0l0,99.808l-24.785,-0l-0,-99.808l-54.857,0l12.726,-23.972l122.471,0l27.602,72.117l27.634,-72.117l118.577,0l13.074,23.972l-113.956,0l-45.327,120.35" style="fill:#fff;fill-rule:nonzero;"/><path d="M352.592,133.441l-0,-20.166l16.446,-0c2.673,-0 7.758,-0.203 9.036,-4.445c2.644,-8.832 -24.436,-23.157 -24.436,-45.123c-0,-16.62 12.028,-21.588 20.194,-21.588l24.929,0l-0,19.816l-15.4,0c-0,0 -4.416,0 -5.637,1.772c-6.683,9.56 24.756,23.535 24.756,49.22c-0,13.424 -11.506,20.514 -22.984,20.514l-26.904,-0Z" style="fill:#fff;"/><rect x="321.734" y="42.118" width="23.972" height="91.322" style="fill:#fff;"/><rect x="406.374" y="42.118" width="23.971" height="91.322" style="fill:#fff;"/><path d="M434.703,87.851c-0,-25.947 21.066,-47.011 47.041,-47.011c25.947,-0 47.011,21.064 47.011,47.011c0,25.977 -21.066,47.042 -47.011,47.042c-25.975,-0 -47.041,-21.066 -47.041,-47.042Zm23.68,0c-0,12.9 10.461,23.361 23.361,23.361c12.871,0 23.332,-10.46 23.332,-23.361c-0,-12.871 -10.461,-23.331 -23.332,-23.331c-12.9,-0 -23.361,10.458 -23.361,23.331Z" style="fill:#fff;"/><path d="M67.931,133.789l-6.364,-16.997l-29.723,-0l-6.362,16.997l-25.482,-0l46.722,-133.773l46.722,133.773l-25.513,-0Zm-28.824,-41.406l14.151,-0l-7.089,-23.361l-7.062,23.361l0,-0Z" style="fill:#fff;"/></g></svg>