<svg clip-rule="evenodd" fill-rule="evenodd" stroke-linejoin="round" stroke-miterlimit="2" viewBox="0 0 600 143" xmlns="http://www.w3.org/2000/svg"><path d="m0 .422h600v141.935h-600v-141.935zm245.451 119.235h2.987l2.164-12.934c-.999-.04-1.98-.128-2.943-.26zm-110.245-12.903c3.619 0 7.143-.635 10.464-1.792h-1.345l3.597-20.471c-2.28 1.58-5.078 2.539-8.034 2.554-6.278.033-11.074-4.176-11.453-9.682h-21.097c-.86 16.327 11.403 29.391 27.868 29.391zm115.396-.031c.406.015.814.031 1.226.031 16.581 0 31.261-13.018 33.533-29.391h-29.846zm-27.165-29.36c-.543 14.968 9.778 27.123 24.221 29.1l4.87-29.1zm-64.417 27.599h21.744l4.851-27.599h-21.745zm36.082 0h21.744l4.85-27.599h-21.744zm129.712-32.423-11.672-24.686h-21.027l-4.661 26.523h10.138l-.5 2.987h-10.163l-4.85 27.599h21.027l4.606-26.208 11.404 26.208h21.027l10.036-57.109h-21.027zm-286.343 32.423h27.001l2.868-9.081h16.487v9.081h24.731l-3.978-27.599h-53.064zm522.581-57.109h-26.643l-7.258 8.895-4.69-8.895h-23.058l13.74 26.064-19.183 23.511-8.297-49.575h-22.939l-23.861 47.923 2.236-59.632h-25.432l-15.257 31.164-4.869-31.164h-25.051l-19.355 68.817h23.775l8.259-30.491 4.764 30.491h13.739l15.449-31.554-1.183 31.554h40.693l3.345-8.124h14.311l.743 8.124h38.71l9.637-11.633 6.133 11.633h23.059l-15.101-28.642zm-95.661 35.834 6.294-15.285 1.398 15.285zm-411.356-9.311h-15.224l-.5 2.987h14.204l1.521-2.987h51.114l-5.269-36.559h-27.241zm203.948-29.611c-.243-.006-.485-.019-.73-.019-16.663 0-31.4 13.145-33.561 29.631h29.336zm-70.122 19.814h12.184l2.939-16.726h-45.678l-2.939 16.726h11.75l-1.722 9.797h21.744zm39.021-16.726h-21.744l-4.661 26.523h21.744zm58.747 26.523c.668-15.244-9.92-27.623-24.694-29.402l-4.92 29.402zm-143.678-10.127c3.657-.019 6.805 1.409 8.881 3.685l3.297-18.761c-3.978-2.137-8.589-3.351-13.592-3.351-16.184 0-30.517 12.62-32.898 28.554h21.013c1.238-5.668 6.902-10.093 13.299-10.127zm120.962-31.091h-2.988l-1.941 11.607c1 .023 1.984.093 2.951.209z" fill="#fff"/></svg>