<svg clip-rule="evenodd" fill-rule="evenodd" stroke-linejoin="round" stroke-miterlimit="2" viewBox="0 0 600 100" xmlns="http://www.w3.org/2000/svg"><g fill="#fff" fill-rule="nonzero"><path d="m118.958 35.752c4.197-.022 7.811 1.617 10.194 4.229l3.784-21.533c-4.567-2.454-9.859-3.847-15.601-3.847-18.576 0-35.028 14.485-37.761 32.774h24.12c1.42-6.505 7.921-11.585 15.264-11.623"/><path d="m70.669 5.413h-31.266l-21.355 41.963h58.67z"/><path d="m283.871 47.376c.767-17.498-11.386-31.707-28.344-33.748l-5.647 33.748z"/><path d="m171.653 36.131h13.984l3.375-19.199h-52.43l-3.374 19.199h13.487l-1.976 11.245h24.958z"/><path d="m138.55 82.481h24.958l5.567-31.677h-24.958z"/><path d="m179.964 82.481h24.958l5.567-31.677h-24.958z"/><path d="m.183 82.481h30.993l3.291-10.422h18.924v10.422h28.386l-4.565-31.677h-60.908l-16.121 31.677z"/><path d="m111.216 84.538c4.153 0 8.199-.728 12.011-2.057h-1.545l4.129-23.495c-2.617 1.813-5.828 2.913-9.222 2.93-7.205.039-12.71-4.792-13.145-11.112h-24.214c-.989 18.74 13.087 33.734 31.986 33.734"/><path d="m216.441 16.932h-24.958l-5.35 30.444h24.958z"/><path d="m328.847 45.266-13.397-28.334h-24.135l-5.35 30.443h11.637l-.574 3.429h-11.665l-5.567 31.677h24.135l5.286-30.08 13.09 30.08h24.135l11.519-65.549h-24.135z"/><path d="m243.667 84.503c.466.018.934.035 1.407.035 19.032 0 35.882-14.941 38.489-33.734h-34.257z"/><path d="m252.139 13.388c-.28-.007-.557-.021-.838-.021-19.125 0-36.041 15.087-38.522 34.009h33.672z"/><path d="m490.201 58.063 7.224-17.544 1.605 17.544zm109.799-41.131h-30.581l-8.331 10.21-5.382-10.21h-26.466l15.771 29.916-22.019 26.986-9.523-56.902h-26.329l-27.388 55.006 2.567-68.445h-29.191l-17.512 35.769-5.588-35.769h-28.754l-22.216 78.988h27.29l9.478-34.998 5.469 34.998h15.77l17.732-36.218-1.358 36.218h46.707l3.84-9.325h16.426l.853 9.325h44.431l11.061-13.352 7.04 13.352h26.466l-17.332-32.875z"/><path d="m212.487 50.804c-.623 17.18 11.224 31.131 27.801 33.401l5.59-33.401z"/><path d="m.573 47.376-.573 3.428h16.304l1.745-3.428z"/><path d="m237.754 99.349h3.429l2.484-14.846c-1.146-.045-2.273-.146-3.379-.298z"/><path d="m257.797.065h-3.429l-2.229 13.323c1.148.027 2.279.107 3.388.24l2.27-13.563z"/></g></svg>