<svg clip-rule="evenodd" fill-rule="evenodd" stroke-linejoin="round" stroke-miterlimit="2" viewBox="0 0 600 100" xmlns="http://www.w3.org/2000/svg"><g fill="#fff" fill-rule="nonzero"><path d="m118.958 35.737c4.197-.022 7.811 1.617 10.194 4.229l3.784-21.533c-4.567-2.453-9.859-3.846-15.601-3.846-18.576 0-35.028 14.485-37.761 32.774h24.12c1.42-6.506 7.921-11.585 15.264-11.624"/><path d="m70.669 5.399h-31.266l-21.355 41.962h58.67z"/><path d="m283.871 47.361c.767-17.497-11.386-31.706-28.344-33.748l-5.647 33.748z"/><path d="m171.653 36.116h13.984l3.375-19.198h-52.43l-3.374 19.198h13.487l-1.976 11.245h24.958z"/><path d="m138.55 82.467h24.958l5.567-31.678h-24.958z"/><path d="m179.964 82.467h24.958l5.567-31.678h-24.958z"/><path d="m.183 82.467h30.993l3.291-10.422h18.924v10.422h28.386l-4.565-31.678h-60.908l-16.121 31.678z"/><path d="m111.216 84.524c4.153 0 8.199-.728 12.011-2.057h-1.545l4.129-23.496c-2.617 1.814-5.828 2.914-9.222 2.931-7.205.039-12.71-4.793-13.145-11.113h-24.214c-.989 18.74 13.087 33.735 31.986 33.735"/><path d="m216.441 16.918h-24.958l-5.35 30.443h24.958z"/><path d="m328.847 45.252-13.397-28.335h-24.135l-5.35 30.444h11.637l-.574 3.428h-11.665l-5.567 31.678h24.135l5.286-30.081 13.09 30.081h24.135l11.519-65.55h-24.135z"/><path d="m243.667 84.488c.466.018.934.036 1.407.036 19.032 0 35.882-14.942 38.489-33.735h-34.257z"/><path d="m252.139 13.373c-.28-.006-.557-.021-.838-.021-19.125 0-36.041 15.088-38.522 34.009h33.672z"/><path d="m490.201 58.048 7.224-17.544 1.605 17.544zm109.799-41.13h-30.581l-8.331 10.21-5.382-10.21h-26.466l15.771 29.916-22.019 26.986-9.523-56.902h-26.329l-27.388 55.005 2.567-68.445h-29.191l-17.512 35.77-5.588-35.77h-28.754l-22.216 78.989h27.29l9.478-34.999 5.469 34.999h15.77l17.732-36.218-1.358 36.218h46.707l3.84-9.325h16.426l.853 9.325h44.431l11.061-13.353 7.04 13.353h26.466l-17.332-32.876z"/><path d="m212.487 50.789c-.623 17.18 11.224 31.132 27.801 33.402l5.59-33.402z"/><path d="m.573 47.361-.573 3.429h16.304l1.745-3.429z"/><path d="m237.754 99.334h3.429l2.484-14.846c-1.146-.045-2.273-.146-3.379-.297z"/><path d="m257.797.05h-3.429l-2.229 13.323c1.148.027 2.279.107 3.388.24l2.27-13.563z"/></g></svg>