<?xml version="1.0" encoding="UTF-8" standalone="no"?><!DOCTYPE svg PUBLIC "-//W3C//DTD SVG 1.1//EN" "http://www.w3.org/Graphics/SVG/1.1/DTD/svg11.dtd"><svg width="100%" height="100%" viewBox="0 0 600 278" version="1.1" xmlns="http://www.w3.org/2000/svg" xmlns:xlink="http://www.w3.org/1999/xlink" xml:space="preserve" xmlns:serif="http://www.serif.com/" style="fill-rule:evenodd;clip-rule:evenodd;stroke-linejoin:round;stroke-miterlimit:2;"><g id="amazon_games_alt"><path id="path843" d="M96.138,117.574c2.245,-7.58 2.06,-17.118 2.06,-26.944l-0,-70.326c-0,-3.379 0.824,-13.019 -0.515,-15.017c-1.339,-1.998 -6.489,-1.545 -10.094,-1.545c-10.299,-0 -14.873,-1.422 -15.8,8.404l-0.391,0.268c-8.075,-6.18 -15.758,-12.051 -30.569,-11.783l-4.924,0.392c-2.859,0.426 -5.672,1.115 -8.404,2.06c-10.064,4.141 -18.05,12.164 -22.145,22.247c-1.953,4.89 -3.389,9.972 -4.284,15.161c-1.084,5.103 -1.348,10.346 -0.783,15.532c0.783,4.862 0.309,9.105 1.298,13.349c3.584,15.223 10.732,27.088 23.833,32.753c7.219,3.098 15.169,4.091 22.927,2.863c5.219,-0.913 10.225,-2.778 14.77,-5.5l5.562,-4.12l0.124,0c0.622,4.62 0.546,9.307 -0.227,13.905c-2.307,13.163 -6.18,17.592 -19.302,19.94c-3.68,0.65 -7.437,0.741 -11.144,0.268l-10.876,-1.422l-15.944,-3.852c-1.189,0.233 -2.174,1.069 -2.596,2.204c-0.35,5.36 -0.177,10.741 0.515,16.068c1.833,3.049 7.725,4.264 11.412,5.438c12.36,3.935 32.321,5.83 45.71,1.174c15.326,-5.273 25.029,-15.593 29.787,-31.517Zm-27.212,-76.032l0,36.131c-2.72,1.935 -5.731,3.423 -8.919,4.408c-21.815,6.839 -30.055,-8.487 -30.055,-28.612c-0.314,-6.181 0.475,-12.368 2.328,-18.272c1.916,-4.944 4.882,-9.27 9.723,-11.268c1.73,-0.7 3.811,-0.535 5.685,-1.298c5.463,-0.189 10.914,0.649 16.068,2.472l4.82,2.287c1.174,2.06 0.35,10.938 0.35,14.152Zm87.692,68.905c6.084,-1.177 11.913,-3.416 17.221,-6.613l6.86,-5.046c1.771,2.286 1.071,5.767 3.357,7.518c2.287,1.751 19.941,2.39 21.63,0c1.689,-2.389 0.906,-7.56 0.906,-11.144l0,-46.225c0,-9.002 0.68,-19.075 -1.421,-26.161c-4.923,-16.665 -19.013,-22.392 -40.787,-22.165l-11.659,0.762c-6.667,0.907 -13.252,2.34 -19.693,4.285c-2.802,0.968 -7.087,1.689 -8.24,4.264c-1.154,2.575 -0.927,16.15 0.638,17.221c2.308,1.586 13.39,-2.06 16.48,-2.719c8.94,-1.937 29.334,-3.914 34.319,2.472c3.584,4.614 2.987,13.616 2.904,21.897c-2.06,0.494 -5.603,-0.865 -7.766,-1.298l-9.846,-1.03c-3.625,-0.405 -7.29,-0.273 -10.877,0.391c-16.891,2.905 -28.839,9.332 -32.753,24.987c-6.056,24.081 14.811,43.651 38.727,38.604Zm-4.923,-44.68c2.451,-1.442 5.5,-1.051 8.548,-2.204c6.901,-0 12.731,1.05 18.54,1.297c1.05,2.307 0.288,14.07 0.247,17.613c-4.923,6.53 -24.719,13.039 -31.455,3.749c-4.841,-6.86 -1.607,-17.098 4.12,-20.455Zm79.369,32.959c0,3.605 -0.432,7.168 1.813,8.549c1.277,0.762 4.305,0.391 6.18,0.391c4.305,-0 19.116,0.906 20.723,-1.174c2.06,-2.575 0.906,-16.109 0.906,-20.847l0,-56.525c3.895,-2.257 8.143,-3.838 12.566,-4.676c6.963,-1.627 16.191,-1.648 19.672,2.987c3.07,4.12 2.596,11.453 2.596,18.643l-0,39.139c-0,5.314 -1.195,20.166 1.813,22.02c1.854,1.113 10.299,0.392 13.204,0.392c2.904,-0 11.412,0.7 13.225,-0.659c2.43,-1.834 1.421,-14.997 1.421,-19.694c0,-19.404 0.041,-38.829 0.124,-58.275c0.988,-1.628 5.047,-2.287 7.003,-2.967c8.529,-3.007 21.877,-4.985 26.018,3.358c2.059,4.326 1.421,12.195 1.421,18.54l-0,38.809c-0,4.614 -1.03,17.159 0.906,19.693c1.133,1.462 3.77,1.174 6.345,1.174c3.873,0 19.219,0.68 20.991,-0.659c2.554,-1.936 1.545,-9.764 1.545,-14.111l-0,-40.272c-0,-16.973 1.318,-32.444 -6.18,-42.105c-13.431,-17.509 -48.841,-8.137 -61.798,2.987l-0.515,0c-4.965,-8.343 -13.514,-13.039 -27.027,-12.833l-5.438,0.391c-3.692,0.49 -7.332,1.311 -10.877,2.451c-4.53,1.678 -8.907,3.746 -13.08,6.18l-6.345,3.894c-2.307,-2.781 -0.906,-7.293 -4.12,-9.188c-1.256,-0.762 -17.859,-0.968 -20.187,-0.391c-0.87,0.221 -1.644,0.72 -2.204,1.421c-1.36,2.06 -0.66,15.635 -0.66,19.549l-0.041,73.808Zm198.414,4.387c12.71,7.972 35.658,9.703 53.744,5.191c4.552,-1.132 13.431,-2.739 15.017,-6.468c0.488,-5.17 0.571,-10.37 0.247,-15.552c-0.314,-0.82 -0.904,-1.505 -1.669,-1.937c-1.627,-0.7 -4.119,0.495 -5.706,0.907l-13.348,2.451c-4.861,0.926 -9.834,1.107 -14.749,0.536c-3.461,-0.26 -6.901,-0.742 -10.3,-1.442c-10.135,-3.07 -16.871,-10.63 -16.974,-23.566c2.41,-1.092 10.3,-0.247 13.596,-0.247l32.959,-0c4.738,-0 12.36,0.968 15.264,-1.174c3.893,-2.905 3.605,-22.351 2.348,-28.613c-4.264,-21.217 -17.056,-32.959 -42.743,-32.506l-3.111,0.124l-9.331,1.297c-10.012,2.514 -18.643,7.128 -24.205,14.111c-3.103,3.749 -5.675,7.908 -7.642,12.36c-5.068,12.03 -6.468,33.824 -2.184,48.244c3.461,11.515 9.538,20.455 18.787,26.223l-0,0.061Zm7.622,-67.071c2.327,-6.695 6.18,-11.577 12.957,-13.72l5.788,-1.112c15.367,-0.144 19.611,7.807 19.425,23.195c-2.059,0.948 -8.754,0.247 -11.659,0.247l-27.933,0c-0.844,-2.163 0.763,-6.756 1.422,-8.672l-0,0.062Zm159.954,27.191c-6.18,-10.712 -19.61,-14.893 -31.599,-19.817c-5.686,-2.327 -14.997,-4.284 -16.336,-10.876c-2.822,-14.09 26.141,-10.012 34.71,-7.89c2.39,0.577 7.931,2.74 9.456,0.762c1.524,-1.977 0.782,-6.777 0.782,-9.826c0,-2.533 0.33,-5.767 -0.659,-7.395c-1.483,-2.492 -5.376,-3.193 -8.404,-4.12c-7.793,-2.451 -15.934,-3.62 -24.102,-3.46l-7.395,0.515c-4.609,0.674 -9.123,1.884 -13.451,3.605c-7.371,2.998 -13.286,8.759 -16.48,16.047c-4.594,11.37 -0.288,26.449 6.613,31.99c8.239,6.654 19.425,10.444 30.034,14.77c5.355,2.184 11.432,3.44 12.565,9.847c3.069,17.406 -29.89,11.103 -39.757,8.549c-2.06,-0.557 -8.569,-2.761 -10.299,-1.813c-2.349,1.339 -1.422,7.931 -1.422,11.515c0,2.06 -0.309,4.985 0.515,6.344c2.472,4.12 16.13,6.716 22.145,7.911c23.895,4.738 45.154,-3.337 52.837,-18.396c3.852,-7.271 4.553,-20.846 0.247,-28.324l0,0.062Zm-83.922,102.173l-4.532,0.268c-4.392,0.101 -8.768,0.577 -13.08,1.421c-9.753,1.695 -19.162,4.98 -27.851,9.723c-2.06,1.257 -10.299,5.315 -8.796,9.064c1.175,3.007 13.102,0.515 16.954,0.247c7.621,-0.515 11.35,-1.174 18.539,-1.153l13.204,-0c3.949,-0.062 7.896,0.193 11.804,0.762c2.594,0.573 5.024,1.729 7.107,3.378c3.007,2.575 2.451,11.309 1.421,15.408c-3.046,13.216 -7.025,26.198 -11.906,38.851c-0.845,2.06 -7.499,15.038 -0.124,13.472c3.337,-0.721 10.094,-8.24 12.174,-10.753c10.3,-13.163 16.789,-28.324 21.63,-47.379c1.112,-4.429 3.666,-21.835 1.153,-25.893c-4.12,-6.716 -25.934,-7.642 -37.697,-7.416Zm-16.088,37.079l-11.783,5.171l-19.549,7.374c-17.386,6.736 -36.749,11.144 -56.092,15.944l-22.659,4.264l-26.677,3.502l-8.548,0.639c-3.42,0.721 -7.437,0.309 -11.268,0.906c-8.463,0.982 -16.987,1.333 -25.502,1.051l-19.302,0.123l-13.863,-0.515l-8.92,-0.515c-2.06,-0.412 -4.491,-0.123 -6.736,-0.535l-27.068,-2.967c-8.013,-1.503 -16.623,-2.06 -24.224,-4.12l-6.345,-1.05l-23.545,-5.274c-16.809,-5.252 -33.516,-9.352 -49.212,-15.408c-17.427,-6.736 -35.617,-14.09 -51.025,-23.195l-15.264,-8.796c-2.781,-1.668 -5.027,-4.12 -9.455,-4.12c-3.296,1.628 -4.306,3.77 -2.06,7.643c1.661,2.248 3.671,4.216 5.953,5.829l7.004,6.468c10.093,8.034 20.228,16.295 31.208,23.443c9.476,6.179 19.569,11.432 29.519,17.221l14.893,7.127c8.508,3.749 17.345,7.622 26.285,11.124l22.927,7.642c12.36,4.12 25.811,6.18 39.139,9.455l28.098,4.12l9.064,0.659l15.284,1.154l5.562,0c5.409,0.76 10.894,0.808 16.315,0.144l5.83,-0.144l7.127,-0.124l24.348,-1.936c10.918,-2.431 22.413,-2.06 32.754,-5.191l23.833,-5.809c14.204,-4.11 28.171,-8.999 41.838,-14.646c16.993,-7.103 33.289,-15.771 48.676,-25.894c5.273,-3.543 12.73,-6.18 14.131,-13.595c1.154,-6.283 -5.273,-8.673 -10.691,-7.169Z" style="fill:#fff;"/></g></svg>