<?xml version="1.0" encoding="UTF-8" standalone="no"?><!DOCTYPE svg PUBLIC "-//W3C//DTD SVG 1.1//EN" "http://www.w3.org/Graphics/SVG/1.1/DTD/svg11.dtd"><svg width="100%" height="100%" viewBox="0 0 600 366" version="1.1" xmlns="http://www.w3.org/2000/svg" xmlns:xlink="http://www.w3.org/1999/xlink" xml:space="preserve" xmlns:serif="http://www.serif.com/" style="fill-rule:evenodd;clip-rule:evenodd;stroke-linejoin:round;stroke-miterlimit:2;"><g id="amazon_games"><path id="path843" d="M96.138,205.865c2.245,-7.581 2.06,-17.118 2.06,-26.944l-0,-70.327c-0,-3.378 0.824,-13.018 -0.515,-15.017c-1.339,-1.998 -6.489,-1.544 -10.094,-1.544c-10.299,-0 -14.873,-1.422 -15.8,8.404l-0.391,0.268c-8.075,-6.18 -15.758,-12.051 -30.569,-11.783l-4.924,0.391c-2.859,0.426 -5.672,1.116 -8.404,2.06c-10.064,4.142 -18.05,12.164 -22.145,22.248c-1.953,4.89 -3.389,9.971 -4.284,15.161c-1.084,5.103 -1.348,10.346 -0.783,15.532c0.783,4.861 0.309,9.105 1.298,13.348c3.584,15.223 10.732,27.089 23.833,32.753c7.219,3.099 15.169,4.091 22.927,2.864c5.219,-0.914 10.225,-2.778 14.77,-5.5l5.562,-4.12l0.124,-0c0.622,4.62 0.546,9.307 -0.227,13.904c-2.307,13.163 -6.18,17.592 -19.302,19.941c-3.68,0.65 -7.437,0.74 -11.144,0.267l-10.876,-1.421l-15.944,-3.852c-1.189,0.232 -2.174,1.069 -2.596,2.204c-0.35,5.36 -0.177,10.741 0.515,16.068c1.833,3.048 7.725,4.264 11.412,5.438c12.36,3.934 32.321,5.83 45.71,1.174c15.326,-5.273 25.029,-15.594 29.787,-31.517Zm-27.212,-76.033l0,36.132c-2.72,1.934 -5.731,3.423 -8.919,4.408c-21.815,6.839 -30.055,-8.487 -30.055,-28.612c-0.314,-6.181 0.475,-12.368 2.328,-18.272c1.916,-4.944 4.882,-9.27 9.723,-11.268c1.73,-0.7 3.811,-0.536 5.685,-1.298c5.463,-0.19 10.914,0.649 16.068,2.472l4.82,2.287c1.174,2.06 0.35,10.938 0.35,14.151Zm87.692,68.906c6.084,-1.178 11.913,-3.416 17.221,-6.613l6.86,-5.047c1.771,2.287 1.071,5.768 3.357,7.519c2.287,1.751 19.941,2.39 21.63,0c1.689,-2.389 0.906,-7.56 0.906,-11.144l0,-46.225c0,-9.002 0.68,-19.075 -1.421,-26.162c-4.923,-16.665 -19.013,-22.391 -40.787,-22.165l-11.659,0.763c-6.667,0.907 -13.252,2.34 -19.693,4.284c-2.802,0.968 -7.087,1.689 -8.24,4.264c-1.154,2.575 -0.927,16.15 0.638,17.221c2.308,1.587 13.39,-2.059 16.48,-2.719c8.94,-1.936 29.334,-3.914 34.319,2.472c3.584,4.615 2.987,13.616 2.904,21.897c-2.06,0.495 -5.603,-0.865 -7.766,-1.297l-9.846,-1.03c-3.625,-0.406 -7.29,-0.274 -10.877,0.391c-16.891,2.905 -28.839,9.332 -32.753,24.987c-6.056,24.081 14.811,43.65 38.727,38.604Zm-4.923,-44.681c2.451,-1.442 5.5,-1.05 8.548,-2.204c6.901,0 12.731,1.051 18.54,1.298c1.05,2.307 0.288,14.069 0.247,17.613c-4.923,6.53 -24.719,13.039 -31.455,3.749c-4.841,-6.86 -1.607,-17.098 4.12,-20.456Zm79.369,32.959c0,3.605 -0.432,7.169 1.813,8.549c1.277,0.762 4.305,0.392 6.18,0.392c4.305,-0 19.116,0.906 20.723,-1.175c2.06,-2.574 0.906,-16.108 0.906,-20.846l0,-56.525c3.895,-2.257 8.143,-3.838 12.566,-4.676c6.963,-1.627 16.191,-1.648 19.672,2.987c3.07,4.12 2.596,11.453 2.596,18.642l-0,39.139c-0,5.315 -1.195,20.167 1.813,22.021c1.854,1.112 10.299,0.391 13.204,0.391c2.904,0 11.412,0.701 13.225,-0.659c2.43,-1.833 1.421,-14.996 1.421,-19.693c0,-19.404 0.041,-38.83 0.124,-58.276c0.988,-1.627 5.047,-2.286 7.003,-2.966c8.529,-3.007 21.877,-4.985 26.018,3.358c2.059,4.326 1.421,12.195 1.421,18.539l-0,38.81c-0,4.614 -1.03,17.159 0.906,19.693c1.133,1.462 3.77,1.174 6.345,1.174c3.873,-0 19.219,0.68 20.991,-0.659c2.554,-1.937 1.545,-9.764 1.545,-14.111l-0,-40.272c-0,-16.974 1.318,-32.444 -6.18,-42.105c-13.431,-17.51 -48.841,-8.137 -61.798,2.987l-0.515,-0c-4.965,-8.343 -13.514,-13.04 -27.027,-12.834l-5.438,0.392c-3.692,0.49 -7.332,1.31 -10.877,2.451c-4.53,1.678 -8.907,3.746 -13.08,6.18l-6.345,3.893c-2.307,-2.781 -0.906,-7.292 -4.12,-9.187c-1.256,-0.762 -17.859,-0.968 -20.187,-0.392c-0.87,0.221 -1.644,0.721 -2.204,1.422c-1.36,2.06 -0.66,15.635 -0.66,19.549l-0.041,73.807Zm198.414,4.388c12.71,7.972 35.658,9.702 53.744,5.191c4.552,-1.133 13.431,-2.74 15.017,-6.468c0.488,-5.17 0.571,-10.37 0.247,-15.553c-0.314,-0.819 -0.904,-1.505 -1.669,-1.936c-1.627,-0.7 -4.119,0.494 -5.706,0.906l-13.348,2.452c-4.861,0.926 -9.834,1.107 -14.749,0.535c-3.461,-0.259 -6.901,-0.741 -10.3,-1.442c-10.135,-3.069 -16.871,-10.629 -16.974,-23.565c2.41,-1.092 10.3,-0.248 13.596,-0.248l32.959,0c4.738,0 12.36,0.969 15.264,-1.174c3.893,-2.904 3.605,-22.35 2.348,-28.612c-4.264,-21.218 -17.056,-32.959 -42.743,-32.506l-3.111,0.123l-9.331,1.298c-10.012,2.513 -18.643,7.128 -24.205,14.111c-3.103,3.749 -5.675,7.908 -7.642,12.359c-5.068,12.03 -6.468,33.825 -2.184,48.244c3.461,11.515 9.538,20.456 18.787,26.223l-0,0.062Zm7.622,-67.072c2.327,-6.694 6.18,-11.576 12.957,-13.719l5.788,-1.112c15.367,-0.144 19.611,7.807 19.425,23.195c-2.059,0.947 -8.754,0.247 -11.659,0.247l-27.933,-0c-0.844,-2.163 0.763,-6.757 1.422,-8.672l-0,0.061Zm159.954,27.192c-6.18,-10.712 -19.61,-14.894 -31.599,-19.817c-5.686,-2.328 -14.997,-4.285 -16.336,-10.876c-2.822,-14.091 26.141,-10.012 34.71,-7.89c2.39,0.577 7.931,2.74 9.456,0.762c1.524,-1.977 0.782,-6.777 0.782,-9.826c0,-2.534 0.33,-5.768 -0.659,-7.395c-1.483,-2.493 -5.376,-3.193 -8.404,-4.12c-7.793,-2.452 -15.934,-3.62 -24.102,-3.461l-7.395,0.515c-4.609,0.675 -9.123,1.885 -13.451,3.605c-7.371,2.999 -13.286,8.759 -16.48,16.047c-4.594,11.371 -0.288,26.45 6.613,31.991c8.239,6.654 19.425,10.444 30.034,14.77c5.355,2.183 11.432,3.44 12.565,9.846c3.069,17.407 -29.89,11.104 -39.757,8.549c-2.06,-0.556 -8.569,-2.76 -10.299,-1.813c-2.349,1.339 -1.422,7.931 -1.422,11.516c0,2.059 -0.309,4.985 0.515,6.344c2.472,4.12 16.13,6.716 22.145,7.91c23.895,4.738 45.154,-3.337 52.837,-18.395c3.852,-7.272 4.553,-20.847 0.247,-28.324l0,0.062Zm-83.922,102.173l-4.532,0.268c-4.392,0.101 -8.768,0.576 -13.08,1.421c-9.753,1.695 -19.162,4.98 -27.851,9.723c-2.06,1.256 -10.299,5.315 -8.796,9.064c1.175,3.007 13.102,0.515 16.954,0.247c7.621,-0.515 11.35,-1.174 18.539,-1.154l13.204,0c3.949,-0.061 7.896,0.194 11.804,0.762c2.594,0.574 5.024,1.729 7.107,3.379c3.007,2.575 2.451,11.309 1.421,15.408c-3.046,13.215 -7.025,26.198 -11.906,38.851c-0.845,2.06 -7.499,15.037 -0.124,13.472c3.337,-0.721 10.094,-8.24 12.174,-10.753c10.3,-13.163 16.789,-28.324 21.63,-47.379c1.112,-4.429 3.666,-21.835 1.153,-25.893c-4.12,-6.716 -25.934,-7.643 -37.697,-7.416Zm-16.088,37.079l-11.783,5.17l-19.549,7.375c-17.386,6.736 -36.749,11.144 -56.092,15.944l-22.659,4.264l-26.677,3.502l-8.548,0.638c-3.42,0.721 -7.437,0.309 -11.268,0.907c-8.463,0.982 -16.987,1.333 -25.502,1.05l-19.302,0.124l-13.863,-0.515l-8.92,-0.515c-2.06,-0.412 -4.491,-0.124 -6.736,-0.536l-27.068,-2.966c-8.013,-1.504 -16.623,-2.06 -24.224,-4.12l-6.345,-1.05l-23.545,-5.274c-16.809,-5.253 -33.516,-9.352 -49.212,-15.408c-17.427,-6.736 -35.617,-14.09 -51.025,-23.195l-15.264,-8.796c-2.781,-1.669 -5.027,-4.12 -9.455,-4.12c-3.296,1.627 -4.306,3.77 -2.06,7.642c1.661,2.248 3.671,4.216 5.953,5.83l7.004,6.468c10.093,8.034 20.228,16.294 31.208,23.442c9.476,6.18 19.569,11.433 29.519,17.221l14.893,7.128c8.508,3.749 17.345,7.622 26.285,11.124l22.927,7.642c12.36,4.12 25.811,6.18 39.139,9.455l28.098,4.12l9.064,0.659l15.284,1.154l5.562,-0c5.409,0.759 10.894,0.808 16.315,0.144l5.83,-0.144l7.127,-0.124l24.348,-1.936c10.918,-2.431 22.413,-2.06 32.754,-5.191l23.833,-5.809c14.204,-4.11 28.171,-9 41.838,-14.647c16.993,-7.102 33.289,-15.771 48.676,-25.893c5.273,-3.543 12.73,-6.18 14.131,-13.596c1.154,-6.282 -5.273,-8.672 -10.691,-7.168Z" style="fill:#fff;"/><g><path id="path12" d="M335.64,14.095l0,-9.198c0,-1.392 1.058,-2.326 2.326,-2.326l41.179,-0c1.322,-0 2.379,0.951 2.379,2.326l-0,7.876c-0.018,1.322 -1.128,3.048 -3.101,5.78l-21.339,30.465c7.93,-0.194 16.299,0.987 23.488,5.04c1.621,0.916 2.062,2.255 2.185,3.577l0,9.814c0,1.339 -1.48,2.908 -3.03,2.097c-12.669,-6.643 -29.497,-7.365 -43.505,0.07c-1.427,0.776 -2.925,-0.775 -2.925,-2.114l-0,-9.321c-0,-1.498 0.017,-4.053 1.515,-6.326l24.722,-35.452l-21.515,-0c-1.321,-0 -2.379,-0.934 -2.379,-2.308" style="fill:#fff;"/><path id="path14" d="M185.426,71.484l-12.528,0c-1.198,-0.088 -2.149,-0.987 -2.238,-2.132l0,-64.297c0,-1.286 1.075,-2.308 2.414,-2.308l11.683,0c1.216,0.053 2.185,0.987 2.273,2.15l-0,8.405l0.229,-0c3.048,-8.123 8.775,-11.912 16.493,-11.912c7.841,0 12.739,3.789 16.263,11.912c3.031,-8.123 9.921,-11.912 17.303,-11.912c5.251,0 10.996,2.168 14.502,7.031c3.965,5.409 3.154,13.268 3.154,20.158l-0.018,40.579c0,1.287 -1.074,2.326 -2.413,2.326l-12.511,0c-1.251,-0.088 -2.255,-1.092 -2.255,-2.326l-0,-34.078c-0,-2.713 0.246,-9.479 -0.353,-12.052c-0.934,-4.317 -3.735,-5.533 -7.365,-5.533c-3.031,0 -6.203,2.027 -7.489,5.269c-1.286,3.242 -1.163,8.669 -1.163,12.316l0,34.078c0,1.287 -1.075,2.326 -2.414,2.326l-12.51,0c-1.269,-0.088 -2.256,-1.092 -2.256,-2.326l-0.017,-34.078c-0,-7.171 1.18,-17.726 -7.718,-17.726c-9.004,0 -8.652,10.291 -8.652,17.726l0,34.078c0,1.287 -1.074,2.326 -2.414,2.326" style="fill:#fff;"/><path id="path16" d="M416.976,1.39c18.59,0 28.651,15.964 28.651,36.263c-0,19.612 -11.119,35.17 -28.651,35.17c-18.255,0 -28.193,-15.964 -28.193,-35.857c0,-20.017 10.062,-35.576 28.193,-35.576m0.106,13.127c-9.233,0 -9.815,12.581 -9.815,20.422c0,7.859 -0.123,24.634 9.709,24.634c9.709,-0 10.167,-13.533 10.167,-21.779c0,-5.427 -0.229,-11.911 -1.868,-17.057c-1.409,-4.475 -4.211,-6.22 -8.193,-6.22" style="fill:#fff;"/><path id="path18" d="M469.732,71.484l-12.476,0c-1.251,-0.088 -2.255,-1.092 -2.255,-2.326l-0.018,-64.314c0.106,-1.181 1.146,-2.097 2.414,-2.097l11.612,0c1.093,0.053 1.991,0.793 2.238,1.797l-0,9.832l0.229,0c3.507,-8.792 8.423,-12.986 17.074,-12.986c5.621,0 11.101,2.027 14.625,7.577c3.278,5.145 3.278,13.797 3.278,20.017l-0,40.474c-0.141,1.128 -1.181,2.026 -2.414,2.026l-12.564,0c-1.145,-0.088 -2.097,-0.934 -2.22,-2.026l0,-34.924c0,-7.03 0.811,-17.321 -7.841,-17.321c-3.048,0 -5.85,2.044 -7.242,5.146c-1.762,3.929 -1.991,7.841 -1.991,12.175l-0,34.624c-0.018,1.287 -1.11,2.326 -2.449,2.326" style="fill:#fff;"/><path id="path28" d="M302.814,40.772c-0,4.881 0.123,8.951 -2.344,13.286c-1.991,3.524 -5.163,5.691 -8.669,5.691c-4.811,0 -7.63,-3.665 -7.63,-9.074c0,-10.678 9.568,-12.617 18.643,-12.617l-0,2.714m12.633,30.536c-0.828,0.74 -2.026,0.793 -2.96,0.3c-4.158,-3.454 -4.916,-5.057 -7.189,-8.353c-6.872,7.013 -11.753,9.11 -20.651,9.11c-10.555,0 -18.748,-6.502 -18.748,-19.523c-0,-10.167 5.497,-17.092 13.356,-20.475c6.802,-2.996 16.299,-3.524 23.559,-4.352l-0,-1.621c-0,-2.978 0.229,-6.502 -1.533,-9.075c-1.516,-2.308 -4.441,-3.26 -7.031,-3.26c-4.775,0 -9.022,2.45 -10.061,7.524c-0.212,1.128 -1.04,2.238 -2.185,2.291l-12.141,-1.304c-1.022,-0.229 -2.167,-1.057 -1.867,-2.625c2.784,-14.731 16.105,-19.171 28.016,-19.171c6.097,-0 14.061,1.621 18.871,6.237c6.097,5.692 5.516,13.286 5.516,21.55l-0,19.523c-0,5.868 2.431,8.44 4.722,11.612c0.793,1.128 0.969,2.485 -0.053,3.33c-2.555,2.133 -7.101,6.097 -9.603,8.317l-0.018,-0.035" style="fill:#fff;"/><path id="path30" d="M138.574,40.772c-0,4.881 0.123,8.951 -2.344,13.286c-1.991,3.524 -5.145,5.691 -8.669,5.691c-4.81,0 -7.612,-3.665 -7.612,-9.074c-0,-10.678 9.568,-12.617 18.625,-12.617l-0,2.714m12.634,30.536c-0.829,0.74 -2.027,0.793 -2.961,0.3c-4.158,-3.454 -4.898,-5.057 -7.189,-8.353c-6.872,7.013 -11.735,9.11 -20.651,9.11c-10.537,0 -18.748,-6.502 -18.748,-19.523c-0,-10.167 5.515,-17.092 13.356,-20.475c6.802,-2.996 16.299,-3.524 23.559,-4.352l-0,-1.621c-0,-2.978 0.229,-6.502 -1.516,-9.075c-1.533,-2.308 -4.458,-3.26 -7.03,-3.26c-4.775,0 -9.039,2.45 -10.079,7.524c-0.212,1.128 -1.04,2.238 -2.167,2.291l-12.158,-1.304c-1.022,-0.229 -2.15,-1.057 -1.868,-2.625c2.801,-14.731 16.105,-19.171 28.016,-19.171c6.097,-0 14.061,1.621 18.872,6.237c6.096,5.692 5.515,13.286 5.515,21.55l-0,19.523c-0,5.868 2.431,8.44 4.722,11.612c0.811,1.128 0.987,2.485 -0.035,3.33c-2.555,2.133 -7.101,6.097 -9.603,8.317l-0.035,-0.035" style="fill:#fff;"/></g></g></svg>