<?xml version="1.0" encoding="UTF-8" standalone="no"?><!DOCTYPE svg PUBLIC "-//W3C//DTD SVG 1.1//EN" "http://www.w3.org/Graphics/SVG/1.1/DTD/svg11.dtd"><svg width="100%" height="100%" viewBox="0 0 600 182" version="1.1" xmlns="http://www.w3.org/2000/svg" xmlns:xlink="http://www.w3.org/1999/xlink" xml:space="preserve" xmlns:serif="http://www.serif.com/" style="fill-rule:evenodd;clip-rule:evenodd;stroke-linejoin:round;stroke-miterlimit:2;"><g id="amazon"><path id="path8" d="M372.228,142.11c-34.867,25.7 -85.404,39.412 -128.916,39.412c-61.011,-0 -115.936,-22.566 -157.49,-60.097c-3.264,-2.951 -0.339,-6.973 3.579,-4.675c44.844,26.091 100.291,41.788 157.567,41.788c38.628,0 81.121,-7.992 120.193,-24.577c5.903,-2.507 10.839,3.866 5.067,8.149" style="fill:#fff;"/><path id="path10" d="M386.724,125.525c-4.44,-5.693 -29.461,-2.69 -40.692,-1.358c-3.421,0.418 -3.943,-2.559 -0.862,-4.701c19.928,-14.025 52.627,-9.977 56.441,-5.276c3.813,4.728 -0.993,37.505 -19.719,53.15c-2.873,2.402 -5.616,1.123 -4.336,-2.064c4.205,-10.499 13.634,-34.031 9.168,-39.751" style="fill:#fff;"/><path id="path12" d="M346.816,20.454l-0,-13.633c-0,-2.063 1.567,-3.448 3.447,-3.448l61.037,0c1.959,0 3.526,1.411 3.526,3.448l0,11.674c-0.026,1.959 -1.671,4.519 -4.597,8.567l-31.628,45.157c11.753,-0.287 24.159,1.463 34.815,7.47c2.403,1.358 3.056,3.343 3.238,5.302l0,14.547c0,1.985 -2.194,4.31 -4.492,3.108c-18.778,-9.846 -43.721,-10.917 -64.484,0.105c-2.116,1.149 -4.336,-1.149 -4.336,-3.134l0,-13.817c0,-2.22 0.026,-6.007 2.246,-9.376l36.643,-52.548l-31.889,-0c-1.959,-0 -3.526,-1.385 -3.526,-3.422" style="fill:#fff;"/><path id="path14" d="M124.163,105.519l-18.569,0c-1.776,-0.13 -3.187,-1.462 -3.317,-3.16l-0,-95.303c-0,-1.907 1.593,-3.422 3.578,-3.422l17.316,0c1.802,0.079 3.238,1.463 3.369,3.187l-0,12.458l0.339,-0c4.519,-12.04 13.007,-17.656 24.446,-17.656c11.623,0 18.883,5.616 24.107,17.656c4.492,-12.04 14.704,-17.656 25.648,-17.656c7.783,0 16.297,3.213 21.494,10.421c5.877,8.018 4.675,19.667 4.675,29.879l-0.026,60.149c0,1.906 -1.593,3.447 -3.578,3.447l-18.543,0c-1.855,-0.13 -3.343,-1.619 -3.343,-3.447l-0,-50.512c-0,-4.022 0.365,-14.051 -0.523,-17.864c-1.384,-6.399 -5.537,-8.201 -10.917,-8.201c-4.492,-0 -9.193,3.003 -11.1,7.809c-1.907,4.806 -1.724,12.85 -1.724,18.256l0,50.512c0,1.906 -1.593,3.447 -3.578,3.447l-18.543,0c-1.881,-0.13 -3.343,-1.619 -3.343,-3.447l-0.026,-50.512c-0,-10.63 1.749,-26.274 -11.44,-26.274c-13.346,-0 -12.824,15.253 -12.824,26.274l0,50.512c0,1.906 -1.593,3.447 -3.578,3.447" style="fill:#fff;"/><path id="path16" d="M467.375,1.623c27.554,0 42.467,23.663 42.467,53.75c-0,29.069 -16.48,52.131 -42.467,52.131c-27.058,0 -41.788,-23.662 -41.788,-53.149c-0,-29.67 14.913,-52.732 41.788,-52.732m0.156,19.458c-13.685,0 -14.547,18.648 -14.547,30.27c-0,11.649 -0.183,36.513 14.391,36.513c14.391,-0 15.07,-20.059 15.07,-32.282c-0,-8.044 -0.34,-17.655 -2.769,-25.281c-2.089,-6.634 -6.242,-9.22 -12.145,-9.22" style="fill:#fff;"/><path id="path18" d="M545.571,105.519l-18.491,0c-1.855,-0.13 -3.343,-1.619 -3.343,-3.447l-0.027,-95.33c0.157,-1.749 1.698,-3.108 3.579,-3.108l17.211,0c1.619,0.079 2.951,1.176 3.317,2.664l0,14.574l0.34,0c5.197,-13.033 12.484,-19.249 25.308,-19.249c8.331,0 16.454,3.004 21.677,11.231c4.858,7.626 4.858,20.45 4.858,29.67l-0,59.992c-0.209,1.671 -1.75,3.003 -3.578,3.003l-18.622,0c-1.698,-0.13 -3.108,-1.384 -3.291,-3.003l0,-51.765c0,-10.421 1.202,-25.674 -11.622,-25.674c-4.518,0 -8.671,3.03 -10.734,7.626c-2.612,5.825 -2.952,11.623 -2.952,18.048l0,51.321c-0.026,1.906 -1.645,3.447 -3.63,3.447" style="fill:#fff;"/><path id="path28" d="M298.159,59.996c-0,7.235 0.183,13.268 -3.474,19.693c-2.951,5.223 -7.652,8.436 -12.85,8.436c-7.13,-0 -11.309,-5.433 -11.309,-13.451c0,-15.827 14.182,-18.7 27.633,-18.7l-0,4.022m18.726,45.262c-1.227,1.097 -3.004,1.175 -4.388,0.444c-6.163,-5.119 -7.287,-7.496 -10.656,-12.38c-10.186,10.395 -17.42,13.503 -30.61,13.503c-15.644,0 -27.789,-9.637 -27.789,-28.938c0,-15.07 8.149,-25.334 19.797,-30.349c10.082,-4.44 24.159,-5.223 34.92,-6.451l-0,-2.403c-0,-4.414 0.339,-9.637 -2.273,-13.45c-2.246,-3.422 -6.581,-4.832 -10.42,-4.832c-7.078,-0 -13.373,3.63 -14.914,11.152c-0.313,1.672 -1.541,3.317 -3.238,3.395l-17.995,-1.932c-1.515,-0.34 -3.213,-1.567 -2.769,-3.892c4.127,-21.834 23.872,-28.416 41.527,-28.416c9.037,0 20.842,2.403 27.972,9.246c9.037,8.436 8.175,19.693 8.175,31.942l0,28.938c0,8.697 3.604,12.51 7,17.212c1.175,1.671 1.436,3.682 -0.079,4.936c-3.787,3.16 -10.525,9.037 -14.234,12.327l-0.026,-0.052" style="fill:#fff;"/><path id="path30" d="M54.716,59.996c0,7.235 0.183,13.268 -3.473,19.693c-2.952,5.223 -7.627,8.436 -12.85,8.436c-7.13,-0 -11.283,-5.433 -11.283,-13.451c0,-15.827 14.182,-18.7 27.606,-18.7l0,4.022m18.727,45.262c-1.228,1.097 -3.004,1.175 -4.388,0.444c-6.164,-5.119 -7.261,-7.496 -10.656,-12.38c-10.186,10.395 -17.394,13.503 -30.61,13.503c-15.618,0 -27.789,-9.637 -27.789,-28.938c-0,-15.07 8.175,-25.334 19.797,-30.349c10.082,-4.44 24.159,-5.223 34.919,-6.451l0,-2.403c0,-4.414 0.34,-9.637 -2.246,-13.45c-2.272,-3.422 -6.607,-4.832 -10.421,-4.832c-7.078,-0 -13.398,3.63 -14.939,11.152c-0.313,1.672 -1.541,3.317 -3.212,3.395l-18.022,-1.932c-1.514,-0.34 -3.186,-1.567 -2.768,-3.892c4.153,-21.834 23.871,-28.416 41.527,-28.416c9.037,0 20.842,2.403 27.972,9.246c9.037,8.436 8.175,19.693 8.175,31.942l-0,28.938c-0,8.697 3.604,12.51 6.999,17.212c1.202,1.671 1.463,3.682 -0.052,4.936c-3.787,3.16 -10.525,9.037 -14.234,12.327l-0.052,-0.052" style="fill:#fff;"/></g></svg>