<?xml version="1.0" encoding="UTF-8" standalone="no"?><!DOCTYPE svg PUBLIC "-//W3C//DTD SVG 1.1//EN" "http://www.w3.org/Graphics/SVG/1.1/DTD/svg11.dtd"><svg width="100%" height="100%" viewBox="0 0 600 290" version="1.1" xmlns="http://www.w3.org/2000/svg" xmlns:xlink="http://www.w3.org/1999/xlink" xml:space="preserve" xmlns:serif="http://www.serif.com/" style="fill-rule:evenodd;clip-rule:evenodd;stroke-linejoin:round;stroke-miterlimit:2;"><g id="american_laser_games"><path id="path18" d="M90.309,230.277l-29.863,-23.744l42.097,-0l23.027,-41.377l-0,41.377l65.483,-0l-0,-205.811l-191.053,289.278l55.769,-0l34.54,-59.723l0,0Z" style="fill:#fff;fill-rule:nonzero;"/><path id="path20" d="M127.263,237.834l12.699,37.775l51.091,-0l-0,-37.775l-63.79,0Z" style="fill:#fff;fill-rule:nonzero;"/><path id="path44" d="M600,210.82l-0,-1.755l-417.383,-1.069l-9.153,3.915l426.536,-1.091l-0,-0Z" style="fill:#fff;fill-rule:nonzero;"/><path id="path68" d="M600,216.795l-0,-1.755l-431.266,-1.105l-9.324,3.988l440.59,-1.128l-0,-0Z" style="fill:#fff;fill-rule:nonzero;"/><path id="path92" d="M600,222.767l-0,-1.755l-445.151,-1.138l-9.488,4.059l454.639,-1.166l-0,-0Z" style="fill:#fff;fill-rule:nonzero;"/><path id="path116" d="M600,228.742l-0,-1.755l-459.038,-1.175l-9.654,4.13l468.692,-1.2l-0,-0Z" style="fill:#fff;fill-rule:nonzero;"/><path id="path140" d="M126.709,235.93l473.291,-1.213l-0,-1.755l-472.921,-1.211l-1.544,0.661l1.174,3.518l-0,-0Z" style="fill:#fff;fill-rule:nonzero;"/><path id="path204" d="M224.202,146.645l0,55.191l-18.665,-0l-0,-95.804l25.21,-0l7.99,44.115l8.368,-44.115l23.347,-0l0,95.804l-18.83,-0l-0,-55.191l-9.361,55.191l-8.37,-0l-9.689,-55.191Z" style="fill:#fff;fill-rule:nonzero;"/><path id="path206" d="M279.349,201.836l-0,-95.804l33.036,-0l-0,14.04l-12.389,-0l0,22.795l11.507,-0l0,14.205l-11.507,0l0,30.997l12.389,-0l-0,13.767l-33.036,-0Z" style="fill:#fff;fill-rule:nonzero;"/><path id="path208" d="M348.339,142.141l0,-16.928c0,-2.563 -0.307,-4.132 -0.918,-4.713c-0.615,-0.578 -1.861,-0.869 -3.74,-0.869l-2.031,-0l-0,26.415c0.26,0 0.632,0.024 1.115,0.065c0.48,0.041 0.825,0.059 1.047,0.059c1.748,0 2.943,-0.279 3.575,-0.839c0.632,-0.557 0.952,-1.62 0.952,-3.19Zm-27.572,59.694l0,-95.803l23.67,-0c10.282,-0 16.835,1.14 19.661,3.419c2.827,2.279 4.241,7.728 4.241,16.343l-0,9.957c-0,6.958 -0.7,11.609 -2.093,13.952c-1.396,2.344 -7.567,4.151 -11.222,5.418c3.536,0.996 9.678,2.635 11.134,4.916c1.453,2.282 2.181,5.82 2.181,10.611l-0,31.187l-20,0l0,-32.917c0,-1.997 -0.33,-3.344 -0.991,-4.036c-0.66,-0.692 -2.717,-1.038 -4.545,-1.038l-1.223,0l-0,37.991l-20.813,0Z" style="fill:#fff;fill-rule:nonzero;"/><rect id="path210" x="378.81" y="106.032" width="20.647" height="95.804" style="fill:#fff;fill-rule:nonzero;"/><path id="path212" d="M408.32,125.389c-0,-8.925 1.316,-14.466 3.954,-16.621c2.635,-2.153 10.528,-4.553 21.034,-4.553c10.742,-0 16.09,2.477 18.686,4.785c2.597,2.307 3.898,7.771 3.898,16.389l-0,13.348l-20.813,0l-0,-12.77c-0,-1.848 -0.235,-3.1 -0.699,-3.755c-0.468,-0.656 -2.334,-0.984 -3.616,-0.984c-0.971,0 -1.652,0.289 -2.039,0.867c-0.39,0.579 -0.584,1.869 -0.584,3.872l0,55.838c0,1.765 0.222,3.015 0.672,3.742c0.446,0.728 1.213,1.092 2.302,1.092c0.931,0 2.65,-0.276 3.177,-0.834c0.524,-0.554 0.787,-1.331 0.787,-2.33l-0,-22.439l20.813,0l-0,21.345c-0,8.826 -1.34,14.386 -4.014,16.677c-2.676,2.292 -7.913,4.793 -18.417,4.793c-10.623,0 -18.598,-2.529 -21.215,-4.88c-2.617,-2.349 -3.926,-7.88 -3.926,-16.59l-0,-56.992Z" style="fill:#fff;fill-rule:nonzero;"/><path id="path214" d="M483.716,167.478l6.533,0l-3.237,-36.984l-3.296,36.984Zm-24.694,34.358l15.811,-95.804l25.107,-0l11.222,95.804l-17.829,-0l-2.109,-16.89l-10.664,0l-1.574,16.89l-19.964,-0Z" style="fill:#fff;fill-rule:nonzero;"/><path id="path216" d="M515.65,201.836l0,-95.804l19.254,-0l10.313,39.271l0,-39.271l18.005,-0l-0,95.804l-16.59,-0l-13.143,-46.953l0,46.953l-17.839,-0Z" style="fill:#fff;fill-rule:nonzero;"/><path id="path222" d="M210.12,276.037l0,-28.158l-3.324,0l-0.001,31.482l22.681,0l0,-3.324l-19.356,0Z" style="fill:#fff;fill-rule:nonzero;"/><path id="path224" d="M326.262,251.204l-0,-3.325l-24.441,0l-0,31.482l24.441,0l-0,-3.324l-21.116,0l0,-10.915l20.364,0l-0,-3.324l-20.364,0l0,-10.594l21.116,-0Z" style="fill:#fff;fill-rule:nonzero;"/><path id="path226" d="M526.562,251.204l0,-3.325l-24.441,0l-0,31.482l24.441,0l0,-3.324l-21.117,0l0,-10.915l20.364,0l-0,-3.324l-20.364,0l0,-10.594l21.117,-0Z" style="fill:#fff;fill-rule:nonzero;"/><path id="path228" d="M352.373,263.809c-0.142,-0 -11.691,-0.014 -17.509,-0l0,-12.631c5.629,-0.052 16.634,-0.148 17.509,-0.148c2.155,0 3.9,1.392 3.9,3.11l-0,5.637c-0,1.716 -1.745,4.032 -3.9,4.032l0,-0Zm2.452,1.873c2.78,-0.802 4.772,-2.913 4.772,-5.407l0,-6.635c0,-3.18 -3.234,-5.761 -7.224,-5.761l-20.833,0l-0,31.482l3.324,0l0,-12.223l17.703,0c2.155,0 3.899,2.767 3.899,4.486l0,7.737l3.325,0l-0,-8.235c-0,-2.548 -2.091,-4.685 -4.966,-5.444Z" style="fill:#fff;fill-rule:nonzero;"/><path id="path230" d="M238.648,269.497l8.473,-18.046l8.472,18.046l-16.945,-0Zm10.466,-21.618l-3.988,0l-14.783,31.482l3.673,0l3.071,-6.54l20.066,0l3.071,6.54l3.673,0l-14.783,-31.482Z" style="fill:#fff;fill-rule:nonzero;"/><path id="path232" d="M424.833,269.497l8.473,-18.046l8.473,18.046l-16.946,-0Zm10.468,-21.618l-3.99,0l-14.784,31.482l3.675,0l3.072,-6.54l20.064,0l3.071,6.54l3.673,0l-14.781,-31.482Z" style="fill:#fff;fill-rule:nonzero;"/><path id="path234" d="M295.873,256.936l-0,-3.296c-0,-3.18 -3.234,-5.761 -7.224,-5.761l-13.98,0c-3.99,0 -7.224,2.581 -7.224,5.761l0,6.104c0,3.182 3.234,5.76 7.224,5.76l13.98,0c2.155,0 3.9,1.391 3.9,3.11l-0,4.31c-0,1.719 -1.745,3.113 -3.9,3.113l-13.98,0c-2.155,0 -3.899,-1.394 -3.899,-3.113l-0,-3.427l-3.325,-0l0,4.104c0,3.179 3.234,5.76 7.224,5.76l13.98,0c3.99,0 7.224,-2.581 7.224,-5.76l-0,-5.66c-0,-3.183 -3.234,-5.761 -7.224,-5.761l-13.98,0c-2.155,0 -3.899,-1.391 -3.899,-3.11l-0,-4.754c-0,-1.719 1.744,-3.113 3.899,-3.113l13.98,0c2.155,0 3.9,1.394 3.9,3.113l-0,2.62l3.324,-0Z" style="fill:#fff;fill-rule:nonzero;"/><path id="path236" d="M557.662,256.936l0,-3.296c0,-3.18 -3.233,-5.761 -7.224,-5.761l-13.98,0c-3.991,0 -7.222,2.581 -7.222,5.761l0,6.104c0,3.182 3.231,5.76 7.222,5.76l13.98,0c2.156,0 3.9,1.391 3.9,3.11l0,4.31c0,1.719 -1.744,3.113 -3.9,3.113l-13.98,0c-2.153,0 -3.898,-1.394 -3.898,-3.113l0,-3.427l-3.324,-0l0,4.104c0,3.179 3.231,5.76 7.222,5.76l13.98,0c3.991,0 7.224,-2.581 7.224,-5.76l0,-5.66c0,-3.183 -3.233,-5.761 -7.224,-5.761l-13.98,0c-2.153,0 -3.898,-1.391 -3.898,-3.11l0,-4.754c0,-1.719 1.745,-3.113 3.898,-3.113l13.98,0c2.156,0 3.9,1.394 3.9,3.113l0,2.62l3.324,-0Z" style="fill:#fff;fill-rule:nonzero;"/><path id="path238" d="M412.751,256.936l0,-3.296c0,-3.18 -3.234,-5.761 -7.224,-5.761l-16.241,0c-3.991,0 -7.225,2.581 -7.225,5.761l0,19.961c0,3.179 3.234,5.76 7.225,5.76l16.241,0c3.99,0 7.224,-2.581 7.224,-5.76l0,-9.792l-16.143,-0l-0,3.324l12.819,-0l0,5.791c0,1.719 -1.745,3.113 -3.9,3.113l-16.241,0c-2.156,0 -3.9,-1.394 -3.9,-3.113l-0,-18.608c-0,-1.719 1.744,-3.113 3.9,-3.113l16.241,0c2.155,0 3.9,1.394 3.9,3.113l0,2.62l3.324,-0Z" style="fill:#fff;fill-rule:nonzero;"/><path id="path240" d="M488.502,247.879l-14.965,27.095l-14.964,-27.095l-5.082,0l0,31.395l3.325,-0l-0,-27.704l15.346,27.791l2.751,0l15.346,-27.791l0,27.704l3.324,-0l0,-31.395l-5.081,0Z" style="fill:#fff;fill-rule:nonzero;"/></g></svg>