<?xml version="1.0" encoding="UTF-8" standalone="no"?><!DOCTYPE svg PUBLIC "-//W3C//DTD SVG 1.1//EN" "http://www.w3.org/Graphics/SVG/1.1/DTD/svg11.dtd"><svg width="100%" height="100%" viewBox="0 0 600 157" version="1.1" xmlns="http://www.w3.org/2000/svg" xmlns:xlink="http://www.w3.org/1999/xlink" xml:space="preserve" xmlns:serif="http://www.serif.com/" style="fill-rule:evenodd;clip-rule:evenodd;stroke-linejoin:round;stroke-miterlimit:2;"><g id="amstrad"><path d="M0,156.046l29.606,-0l2.334,-30.863l14.356,0l2.571,30.859l29.784,0l-19.551,-154.406l-39.252,-0l-19.848,154.41Zm33.657,-54.92l4.677,-61.58l1.699,-0l4.55,61.573l-10.926,0.007Z" style="fill:#fff;"/><path d="M525.084,155.983l52.107,-0.089c1.156,0 2.401,-0.349 3.758,-0.592c2.714,-0.492 5.03,-0.996 7.497,-2.112c1.301,-0.587 2.702,-1.367 3.957,-2.312c1.253,-0.953 2.344,-2.04 3.415,-3.778c1.066,-1.744 2.093,-4.141 2.849,-7.092c0.756,-2.947 1.332,-6.436 1.332,-9.897c0.005,-0 -0.006,-0.017 -0,-0.087l-0.234,-106.521c-0.003,-2.292 -0.585,-4.621 -1.204,-6.831c-0.601,-2.168 -1.384,-4.119 -2.467,-5.867l0.721,-0.452l-0.724,0.452c-1.088,-1.747 -2.496,-3.302 -4.127,-4.545c-1.638,-1.241 -3.542,-2.203 -4.931,-2.76c-1.398,-0.558 -2.25,-0.72 -3.193,-0.89c-0.946,-0.166 -1.88,-0.315 -2.809,-0.421c-0.935,-0.106 -1.868,-0.177 -4.145,-0.276c-2.295,-0.102 -5.879,-0.325 -9.451,-0.328l-42.351,-0.012l0,154.41Zm36.782,-130.558c0.752,0.092 1.457,0.266 2.041,0.45c0.593,0.182 1.107,0.402 1.575,0.717c0.468,0.315 0.879,0.71 1.221,1.193c1.357,2.093 1.134,4.693 1.253,6.852l-0,89.904c-0,0.668 -0,1.374 -0.104,2.1c-0.105,0.701 -0.277,1.38 -0.511,1.99c-0.23,0.611 -0.533,1.171 -0.951,1.65c-0.416,0.49 -0.918,0.872 -1.444,1.17c-0.431,0.229 -1.013,0.674 -1.895,0.691l-6.307,-0l-0,-106.752l2.911,-0l1.201,-0.017l1.01,0.052Z" style="fill:#fff;"/><path d="M197.399,127.928c0.029,4.374 0.06,8.448 0.982,12.617c0.494,2.14 1.281,4.358 2.457,6.31c1.172,1.958 2.743,3.688 4.582,5.041c1.836,1.349 3.986,2.34 5.667,2.92c1.684,0.579 2.877,0.755 4.149,0.91c1.296,0.156 2.549,0.32 3.763,0.32l34.695,-0c1.211,-0 2.386,-0.046 3.785,-0.424c1.809,-0.496 3.983,-1.388 5.825,-2.561c1.846,-1.175 3.4,-2.641 4.444,-4.175c1.049,-1.532 1.642,-3.21 2.171,-4.79c0.53,-1.578 0.957,-2.933 1.27,-4.762c0.315,-1.832 0.523,-4.165 0.639,-6.506c0.056,-1.163 0.071,-2.329 0.071,-3.506c0,-1.175 -0.013,-2.356 -0.013,-3.541l-0,-25.024c-0.004,-0.469 -0,-0.935 -0.014,-1.991c-0.01,-1.055 -0.032,-2.687 -0.106,-4.554c-0.071,-1.865 -0.197,-3.973 -0.315,-5.318c-0.112,-1.348 -0.206,-1.905 -0.328,-2.493c-0.121,-0.585 -0.269,-1.171 -0.434,-1.757c-0.165,-0.582 -0.332,-1.105 -0.797,-2.108c-0.463,-0.999 -1.214,-2.446 -2.108,-3.759c-0.891,-1.316 -1.931,-2.53 -3.092,-3.612c-1.161,-1.082 -2.464,-2.043 -3.933,-3.051c-3.057,-2.075 -6.469,-4.2 -9.748,-6.019l-14.103,-7.696c-0.862,-0.47 -1.72,-0.963 -2.556,-1.515c-0.833,-0.547 -1.624,-1.122 -2.111,-1.493c-0.858,-0.646 -1.02,-0.898 -1.325,-1.223c-0.155,-0.174 -0.349,-0.412 -0.593,-0.815c-0.594,-0.964 -1.268,-2.488 -1.416,-3.94c-0.036,-0.293 -0.046,-0.579 -0.046,-0.852c-0,-0.47 0.029,-0.904 0.029,-1.295l-0,-1.763c-0,-2.138 -0.007,-4.296 -0.007,-6.439c0,-2.214 0.007,-4.414 0.032,-6.511c-0.006,-0.198 -0.01,-0.399 -0.01,-0.61c0,-0.999 0.073,-2.132 0.46,-3.23c0.208,-0.638 0.48,-1.263 0.875,-1.864c1.151,-1.568 2.648,-2.387 4.229,-2.374c0.806,0 1.615,0.194 2.476,0.562c0.586,0.308 1.102,0.731 1.536,1.218c0.434,0.488 0.792,1.045 1.052,1.649c0.254,0.603 0.405,1.254 0.497,2.062c0.155,1.385 0.188,3.135 0.188,4.793l-0,18.638l31.666,-0c-0.002,-0.824 -0.005,-1.648 -0.005,-2.472c-0,-4.177 0.022,-8.354 0.022,-12.522c-0,-4.301 -0.026,-8.597 -0.124,-12.875c-0.092,-2.207 -0.251,-4.414 -0.385,-5.861c-0.135,-1.449 -0.24,-2.105 -0.375,-2.772c-0.138,-0.681 -0.303,-1.352 -0.493,-2.016c-0.195,-0.667 -0.392,-1.284 -0.905,-2.425c-0.505,-1.135 -1.311,-2.743 -2.334,-4.14c-1.022,-1.395 -2.292,-2.624 -3.719,-3.617c-1.43,-0.994 -3.042,-1.769 -4.398,-2.256c-2.722,-0.936 -4.769,-1.091 -7.236,-1.405c-1.151,-0.124 -2.276,-0.233 -3.383,-0.233l-0.138,0l-28.862,0.233c-3.266,0.106 -6.472,0.508 -9.83,1.448c-1.002,0.31 -1.941,0.691 -2.821,1.157c-1.835,1.007 -3.279,2.04 -4.841,3.954c-0.786,0.974 -1.631,2.236 -2.312,3.555c-1.391,2.726 -2.217,5.691 -2.28,8.585c-0.018,8.001 -0.088,15.998 -0.088,23.997c-0,2.75 0.007,5.498 0.032,8.229c0.056,1.744 0.162,3.488 0.264,4.734c0.23,2.648 0.414,3.33 0.855,5.064c0.437,1.648 1.187,3.713 2.338,5.496c0.543,0.868 1.144,1.677 2.068,2.683c0.921,1.007 2.164,2.207 3.474,3.326c2.676,2.312 5.607,4.113 8.59,5.683c6.557,3.625 13.069,7.206 19.718,10.909c0.83,0.53 1.856,1.04 2.892,2.04c2.259,2.159 2.506,4.742 2.492,6.952c0,0.276 -0.003,0.54 -0.003,0.766l0.124,3.402l0.049,21.13c0.004,0.096 0,0.184 0,0.264c0.004,1.519 -0.183,3.114 -0.97,4.853c-0.305,0.568 -0.717,1.091 -1.229,1.53c-0.996,0.83 -2.2,1.286 -3.45,1.282c-0.696,0.004 -1.398,-0.137 -2.091,-0.412c-0.611,-0.253 -1.17,-0.618 -1.645,-1.077c-2.002,-1.97 -1.723,-4.562 -1.98,-6.469l-0.015,-30.951l-31.527,0l0.036,34.762Z" style="fill:#fff;"/><path d="M161.939,68.411l0,87.568l28.35,0l-0,-154.406l-42.393,-0l-8.083,68.205l-1.691,-0.003l-7.801,-68.202l-42.33,-0l-0,154.408l28.352,-0l0,-88.054l1.695,-0.119l12.329,88.173l18.033,-0l11.845,-87.686l1.694,0.116Z" style="fill:#fff;"/><path d="M279.076,25.049l16.645,0l-0.003,130.93l31.668,0l-0,-130.93l16.516,0l-0,-23.476l-64.826,-0l0,23.476Z" style="fill:#fff;"/><path d="M437.845,155.983l29.606,-0l2.334,-30.863l14.355,0l2.571,30.859l29.785,0l-19.552,-154.406l-39.251,-0l-19.848,154.41Zm33.656,-54.92l4.678,-61.58l1.699,-0l4.55,61.573l-10.927,0.007Z" style="fill:#fff;"/><path d="M393.901,94.303c0.565,0.201 1.091,0.506 1.551,0.896c1.871,1.621 1.714,3.702 1.949,5.173c0.128,1.389 0.155,2.775 0.155,4.142c0,1.32 -0.032,2.629 -0.032,3.922c-0,0.543 0.007,1.077 0.025,1.639l0,45.906l31.616,-0l-0.033,-47.942c-0.053,-4.778 -0.378,-9.484 -1.398,-14.171c-0.282,-1.042 -0.657,-2.088 -1.134,-3.133c-0.703,-1.63 -1.656,-3.157 -2.811,-4.502c-1.158,-1.345 -2.523,-2.513 -4.032,-3.451c-1.503,-0.937 -3.16,-1.644 -4.883,-2.088l0.007,-1.648c0.838,-0.208 1.663,-0.47 2.493,-0.787c1.627,-0.618 3.156,-1.503 4.505,-2.608c1.345,-1.102 2.515,-2.43 3.439,-3.901c0.921,-1.48 1.611,-3.107 2.026,-4.831c0.35,-1.253 0.642,-2.509 0.872,-3.745c0.671,-4.513 0.967,-9.031 0.967,-13.567c0,-0.704 -0.006,-1.41 -0.02,-2.129l-0,-16.371c0.02,-0.642 0.032,-1.289 0.032,-1.934c0,-2.542 -0.163,-5.098 -0.487,-7.637c-0.197,-1.588 -0.459,-3.17 -0.739,-4.469c-0.279,-1.296 -0.572,-2.305 -0.946,-3.284c-0.378,-0.978 -0.84,-1.928 -1.381,-2.829c-0.537,-0.9 -1.151,-1.755 -1.812,-2.523c-1.069,-1.141 -2.276,-2.154 -3.589,-3.009c-2.719,-1.765 -5.777,-2.749 -8.817,-3.012c-7.329,-0.853 -14.74,-0.614 -22.202,-0.836l-34.656,0l-0,154.409l31.618,-0l0,-62.258l0.879,0.032c0.371,0.014 0.742,0.019 1.123,0.019c0.399,-0 0.806,-0.009 1.225,-0.009c1.415,-0.002 2.908,0.043 4.49,0.536Zm-6.92,-27.537l-0.793,-0.053l-0,-40.608l-0.004,-0.857c1.575,0.01 3.996,0.034 5.646,0.045c0.84,0.078 1.705,0.289 2.542,0.667l0.06,0.029l0.056,0.037c2.493,1.608 2.687,3.927 2.861,5.64c0.141,2.009 0.134,3.992 0.2,5.976c-0.003,0.805 -0.006,1.611 -0.006,2.414c-0,2.963 0.017,5.927 0.017,8.897c-0,3.068 -0.022,6.143 -0.092,9.211c-0.017,1.26 -0.123,2.519 -0.307,3.729c-0.068,0.678 -0.26,1.342 -0.582,1.946c-0.318,0.606 -0.754,1.143 -1.253,1.563c-1.311,1.158 -2.888,1.158 -4.049,1.31c-0.816,0.078 -1.638,0.115 -2.454,0.115c-0.62,0.002 -1.234,-0.022 -1.842,-0.061Z" style="fill:#fff;"/></g></svg>