<svg clip-rule="evenodd" fill-rule="evenodd" stroke-linejoin="round" stroke-miterlimit="2" viewBox="0 0 600 99" xmlns="http://www.w3.org/2000/svg"><g fill="#fff"><path d="m0 98.284h18.687l1.473-19.48h9.061l1.623 19.478h18.8l-12.341-97.459h-24.775l-12.528 97.461zm21.244-34.664 2.952-38.869h1.072l2.872 38.864z"/><path d="m331.425 98.245 32.889-.056c.73 0 1.515-.221 2.372-.374 1.713-.311 3.174-.629 4.732-1.333.821-.371 1.705-.863 2.497-1.459.791-.602 1.48-1.288 2.156-2.385.673-1.101 1.321-2.614 1.798-4.476.477-1.86.84-4.062.84-6.247.004 0-.003-.011 0-.055l-.147-67.234c-.002-1.447-.369-2.917-.76-4.312-.379-1.368-.873-2.6-1.557-3.703l.455-.285-.457.285c-.687-1.103-1.576-2.084-2.605-2.869-1.034-.783-2.235-1.39-3.112-1.742-.883-.352-1.42-.454-2.015-.562-.598-.104-1.187-.199-1.774-.265-.59-.067-1.179-.112-2.616-.174-1.448-.065-3.71-.206-5.965-.208l-26.731-.007zm23.216-82.406c.475.058.919.168 1.288.284.374.115.699.253.994.452.296.199.555.448.771.754.856 1.32.715 2.961.791 4.324v56.746c0 .422 0 .868-.066 1.325-.066.443-.175.872-.322 1.257-.145.386-.337.739-.601 1.041-.262.31-.579.55-.911.738-.272.146-.64.426-1.197.437h-3.98v-67.381h1.838l.757-.01z"/><path d="m124.595 80.537c.018 2.761.038 5.333.62 7.963.312 1.351.808 2.752 1.551 3.983.739 1.236 1.731 2.328 2.892 3.182 1.158.852 2.516 1.477 3.577 1.844 1.062.365 1.816.476 2.619.573.817.099 1.608.202 2.375.202h21.899c.764 0 1.505-.029 2.389-.267 1.141-.313 2.514-.876 3.676-1.617 1.165-.741 2.147-1.666 2.805-2.635.662-.967 1.036-2.025 1.371-3.023.334-.996.604-1.851.801-3.006.199-1.156.33-2.628.403-4.106.036-.734.045-1.47.045-2.213 0-.741-.008-1.487-.008-2.235v-15.795c-.002-.296 0-.59-.009-1.256-.006-.667-.02-1.696-.066-2.875-.046-1.177-.125-2.508-.199-3.357-.071-.851-.13-1.202-.208-1.573-.076-.37-.169-.739-.274-1.109-.104-.368-.209-.697-.503-1.33-.292-.631-.766-1.545-1.33-2.373-.562-.831-1.219-1.597-1.952-2.28s-1.555-1.289-2.482-1.926c-1.929-1.31-4.083-2.651-6.153-3.799l-8.902-4.857c-.543-.297-1.085-.609-1.613-.957-.525-.345-1.025-.708-1.332-.942-.542-.408-.644-.567-.837-.772-.097-.11-.22-.26-.374-.515-.375-.608-.8-1.57-.894-2.487-.022-.184-.029-.365-.029-.537 0-.297.019-.571.019-.818v-1.112c0-1.35-.005-2.712-.005-4.065 0-1.397.005-2.785.021-4.109-.005-.125-.007-.252-.007-.385 0-.631.046-1.346.29-2.039.132-.403.303-.797.553-1.177.726-.989 1.671-1.506 2.669-1.498.509 0 1.019.123 1.563.355.37.195.695.461.969.768.274.309.5.66.665 1.042.16.38.255.791.313 1.301.098.874.119 1.979.119 3.026v11.763h19.987c-.001-.52-.003-1.04-.003-1.56 0-2.637.014-5.273.014-7.904 0-2.714-.017-5.426-.079-8.126-.058-1.393-.158-2.786-.243-3.7s-.151-1.328-.236-1.749c-.087-.43-.192-.854-.312-1.273-.122-.421-.247-.81-.571-1.53-.319-.717-.827-1.731-1.473-2.614-.645-.88-1.447-1.656-2.347-2.282-.903-.628-1.921-1.117-2.776-1.424-1.719-.591-3.01-.689-4.568-.887-.726-.078-1.436-.147-2.135-.147h-.087l-18.217.147c-2.061.067-4.085.32-6.204.914-.633.195-1.226.436-1.781.73-1.159.635-2.07 1.288-3.056 2.496-.496.615-1.029 1.411-1.459 2.244-.878 1.72-1.399 3.591-1.439 5.418-.012 5.05-.056 10.098-.056 15.147 0 1.736.004 3.47.021 5.194.035 1.101.102 2.201.166 2.988.145 1.671.261 2.102.54 3.196.276 1.04.749 2.344 1.475 3.469.343.548.722 1.059 1.306 1.694.581.635 1.366 1.393 2.192 2.099 1.69 1.459 3.539 2.596 5.422 3.587 4.139 2.288 8.25 4.548 12.446 6.886.524.334 1.172.656 1.825 1.287 1.426 1.363 1.582 2.993 1.573 4.388 0 .174-.002.341-.002.484l.079 2.147.031 13.337c.002.06 0 .116 0 .167.002.958-.116 1.965-.613 3.062-.192.359-.452.689-.776.967-.628.523-1.388.811-2.177.809-.44.002-.882-.087-1.32-.26-.386-.16-.738-.39-1.038-.681-1.264-1.243-1.087-2.879-1.25-4.082l-.009-19.536h-19.9z"/><path d="m102.213 42.971v55.272h17.894v-97.459h-26.758l-5.101 43.05-1.067-.002-4.925-43.048h-26.718v97.46h17.896v-55.578l1.069-.076 7.782 55.654h11.382l7.477-55.346z"/><path d="m176.148 15.602h10.507l-.003 82.641h19.989v-82.641h10.424v-14.818h-40.917z"/><path d="m276.361 98.245h18.686l1.474-19.48h9.061l1.622 19.478h18.8l-12.341-97.459h-24.775zm21.243-34.665 2.952-38.868h1.073l2.872 38.864z"/><path d="m248.624 59.314c.357.127.689.319.979.565 1.181 1.023 1.082 2.336 1.23 3.265.081.877.098 1.752.098 2.615 0 .833-.02 1.659-.02 2.475 0 .343.004.68.016 1.035v28.975h19.955l-.021-30.261c-.033-3.015-.238-5.986-.882-8.944-.178-.658-.415-1.318-.716-1.978-.444-1.028-1.045-1.992-1.774-2.841-.731-.849-1.593-1.587-2.545-2.179-.949-.591-1.995-1.037-3.082-1.317l.004-1.041c.529-.131 1.05-.296 1.574-.496 1.027-.39 1.992-.949 2.843-1.647.849-.695 1.588-1.533 2.171-2.462.581-.934 1.017-1.961 1.279-3.049.22-.791.405-1.584.55-2.364.424-2.848.611-5.7.611-8.563 0-.444-.005-.89-.013-1.343v-10.334c.013-.405.02-.813.02-1.221 0-1.604-.103-3.217-.307-4.82-.125-1.002-.29-2.001-.467-2.821-.176-.818-.361-1.455-.597-2.073-.239-.617-.53-1.216-.872-1.785-.338-.568-.726-1.108-1.143-1.593-.675-.72-1.437-1.359-2.266-1.899-1.716-1.114-3.646-1.735-5.564-1.901-4.627-.538-9.304-.388-14.015-.527h-21.874v97.46h19.957v-39.297l.555.021c.234.008.468.012.709.012.252 0 .508-.006.773-.006.893-.001 1.835.027 2.834.339zm-4.368-17.381-.501-.034v-25.631l-.002-.541c.994.007 2.523.022 3.564.028.53.05 1.076.183 1.604.421l.038.019.036.023c1.573 1.015 1.695 2.479 1.805 3.56.089 1.268.085 2.52.127 3.772-.002.508-.004 1.017-.004 1.524 0 1.87.01 3.741.01 5.615 0 1.937-.014 3.878-.058 5.814-.011.796-.077 1.59-.193 2.354-.043.428-.165.847-.368 1.228-.201.383-.476.721-.791.987-.827.731-1.822.731-2.555.826-.515.05-1.034.073-1.549.073-.391.001-.779-.014-1.163-.038z"/><g fill-rule="nonzero"><path d="m454.344 88.199h-22.72c-2.719-.086-4.824-.199-6.253-.332-1.177-.11-2.053-.507-2.724-1.252-.625-.626-.996-1.635-1.11-2.995-.135-1.598-.244-4.03-.332-7.202v-54.649c0-2.652.087-4.769.259-6.293.152-1.327.616-2.327 1.451-3.093.731-.733 1.562-1.144 2.539-1.253 1.166-.129 3.274-.196 6.271-.196h22.618v15.789h10.581v-25.831h-35.854c-2.633 0-5.286.161-7.889.48-2.77.342-5.259 1.497-7.421 3.468-2.234 2.232-3.536 4.938-3.876 8.044-.317 2.889-.477 6.423-.477 10.504v54.651c0 3.641.162 6.727.481 9.176.342 2.655 1.51 4.991 3.466 6.945 1.956 1.956 4.355 3.144 7.138 3.534 2.594.365 5.938.551 9.93.551h34.64v-25.833h-10.718z"/><path d="m535.495 17.721c0-1.903-.067-3.746-.203-5.479-.145-1.824-.564-3.47-1.251-4.893-.698-1.448-1.756-2.711-3.146-3.753-1.377-1.031-3.291-1.797-5.74-2.288-.65-.091-1.255-.161-1.816-.21-.55-.045-1.255-.089-2.12-.137-.887-.045-2.04-.068-3.429-.068h-43.883v10.042h9.175v77.265h-9.175v10.043h30.283v-10.043h-9.312v-34.219h21.955c1.913 0 3.784-.046 5.564-.135 1.873-.093 3.606-.379 5.161-.854 1.63-.495 3.083-1.35 4.319-2.541 1.236-1.194 2.211-2.832 2.898-4.897.381-1.244.622-2.641.718-4.156.089-1.465.089-3.406.002-5.73zm-11.391 3.822v12.191c0 2.312-.068 4.216-.2 5.664-.112 1.282-.449 2.282-.99 2.973-.514.656-1.397 1.122-2.626 1.384-1.397.299-3.472.452-6.161.452h-19.249v-33.272h18.712c2.632 0 4.712.088 6.19.265 1.288.153 2.241.515 2.83 1.075.583.553.975 1.511 1.164 2.845.218 1.527.33 3.689.33 6.423z"/><path d="m589.277 72.411v15.789h-22.719c-2.717-.086-4.822-.199-6.253-.332-1.173-.11-2.053-.506-2.721-1.251-.625-.626-.997-1.635-1.112-2.996-.133-1.593-.244-4.023-.332-7.2v-54.652c0-2.652.087-4.769.259-6.292.155-1.329.616-2.329 1.453-3.094.731-.735 1.562-1.144 2.537-1.253 1.166-.129 3.274-.196 6.271-.196h22.618v15.789h10.585v-25.831h-35.857c-2.632 0-5.284.161-7.884.48-2.775.342-5.261 1.497-7.426 3.468-2.232 2.232-3.534 4.938-3.874 8.043-.317 2.886-.478 6.421-.478 10.505v54.651c0 3.643.161 6.731.481 9.176.344 2.655 1.509 4.989 3.467 6.945 1.956 1.956 4.358 3.144 7.138 3.534 2.594.365 5.936.551 9.93.551h34.64v-25.833h-10.723z"/></g></g></svg>