<svg clip-rule="evenodd" fill-rule="evenodd" stroke-linejoin="round" stroke-miterlimit="2" viewBox="0 0 600 599" xmlns="http://www.w3.org/2000/svg"><g fill="#fff"><path d="m251.351 76.409c6.718 0 12.163 5.446 12.163 12.162 0 6.718-5.445 12.162-12.163 12.162-6.717 0-12.162-5.444-12.162-12.162 0-6.716 5.445-12.162 12.162-12.162z" fill-rule="nonzero"/><path d="m348.649 76.409c6.717 0 12.162 5.446 12.162 12.162 0 6.718-5.445 12.162-12.162 12.162-6.718 0-12.163-5.444-12.163-12.162 0-6.716 5.445-12.162 12.163-12.162z" fill-rule="nonzero"/><path d="m341.62 29.463 13.136-19.703c6.205-9.309 18.801-11.828 28.11-5.622 9.308 6.205 11.827 18.801 5.622 28.11l-9.436 14.153c30.88 20.092 50.678 51.616 50.678 86.765v8.114c6.779-5.095 15.202-8.114 24.324-8.114 22.375 0 40.541 18.165 40.541 40.54v104.054c0 22.375-18.166 40.541-40.541 40.541-9.122 0-17.545-3.02-24.324-8.115v17.574c0 23.138-18.754 41.892-41.892 41.892h-1.352v41.892c0 22.375-18.165 40.541-40.54 40.541s-40.541-18.166-40.541-40.541v-41.892h-10.81v41.892c0 22.375-18.166 40.541-40.541 40.541s-40.54-18.166-40.54-40.541v-41.892h-1.352c-23.136 0-41.892-18.754-41.892-41.892v-17.574c-6.779 5.095-15.202 8.115-24.324 8.115-22.375 0-40.541-18.166-40.541-40.541v-104.054c0-22.375 18.166-40.54 40.541-40.54 9.122 0 17.545 3.019 24.324 8.114v-8.114l.001-.236c.09-35.059 19.871-66.487 50.677-86.529l-9.436-14.153c-6.205-9.309-3.686-21.905 5.622-28.11 9.309-6.206 21.905-3.687 28.11 5.622l13.136 19.704c13.045-3.731 27.039-5.758 41.62-5.758s28.575 2.027 41.62 5.757zm-111.89 323.973v58.108c0 13.425 10.899 24.324 24.324 24.324s24.324-10.899 24.324-24.324v-58.108h43.244v60.239c0 13.425 10.899 24.324 24.324 24.324s24.324-10.899 24.324-24.324v-60.239h17.568c14.181 0 25.676-11.494 25.676-25.676v-178.378h-227.028v178.378c0 14.182 11.496 25.676 25.676 25.676zm-108.108-179.73v104.054c0 13.425 10.899 24.325 24.324 24.325s24.324-10.9 24.324-24.325v-104.054c0-13.425-10.899-24.324-24.324-24.324s-24.324 10.899-24.324 24.324zm308.108 0v104.054c0 13.425 10.899 24.325 24.324 24.325s24.324-10.9 24.324-24.325v-104.054c0-13.425-10.899-24.324-24.324-24.324s-24.324 10.899-24.324 24.324zm-54.735-150.454-19.136 28.704c34.332 15.939 57.655 46.152 57.655 81.21h-227.028c0-35.058 23.323-65.271 57.655-81.21l-19.136-28.704c-1.241-1.861-.737-4.38 1.125-5.622 1.861-1.241 4.38-.737 5.622 1.125l19.986 29.979c14.671-5.658 31.042-8.811 48.262-8.811 17.221 0 33.591 3.153 48.262 8.811l19.986-29.979c1.242-1.862 3.761-2.366 5.622-1.125 1.862 1.242 2.366 3.761 1.125 5.622z"/><path d="m40.541 581.814c-13.434 0-24.325-10.89-24.325-24.324 0-13.433 10.891-24.324 24.325-24.324h24.324v64.865h16.216v-81.081h-40.54c-22.39 0-40.541 18.151-40.541 40.54 0 22.391 18.151 40.541 40.541 40.541h8.108v-16.217z"/><path d="m113.514 598.031v-40.541c0-13.433 10.89-24.324 24.324-24.324s24.324 10.891 24.324 24.324v40.541h16.216v-40.541c0-22.389-18.15-40.54-40.54-40.54-22.391 0-40.541 18.151-40.541 40.54v40.541z"/><path d="m194.595 598.031h40.54c22.391 0 40.541-18.15 40.541-40.541 0-22.389-18.15-40.54-40.541-40.54h-40.54v16.216h40.54c13.434 0 24.324 10.891 24.324 24.324 0 13.434-10.89 24.324-24.324 24.324h-40.54z"/><path d="m291.892 573.706h48.649c8.955 0 16.216 7.262 16.216 16.217v8.108h16.216v-8.108c0-9.084-3.736-17.297-9.755-23.182 5.977-5.201 9.755-12.864 9.755-21.413 0-15.673-12.706-28.378-28.378-28.378h-52.703v16.216h52.703c6.716 0 12.162 5.445 12.162 12.162 0 6.719-5.446 12.162-12.162 12.162h-52.703z"/><path d="m429.73 516.95c-22.389 0-40.541 18.151-40.541 40.54 0 22.391 18.152 40.541 40.541 40.541 22.39 0 40.54-18.15 40.54-40.541 0-22.389-18.15-40.54-40.54-40.54zm0 16.216c13.434 0 24.324 10.891 24.324 24.324 0 13.434-10.89 24.324-24.324 24.324s-24.325-10.89-24.325-24.324c0-13.433 10.891-24.324 24.325-24.324z"/><path d="m486.486 516.95h16.216v81.081h-16.216z"/><path d="m518.919 598.031h40.54c22.391 0 40.541-18.15 40.541-40.541 0-22.389-18.15-40.54-40.541-40.54h-40.54v16.216h40.54c13.435 0 24.325 10.891 24.325 24.324 0 13.434-10.89 24.324-24.325 24.324h-40.54z"/></g></svg>