<svg clip-rule="evenodd" fill-rule="evenodd" stroke-linejoin="round" stroke-miterlimit="2" viewBox="0 0 600 92" xmlns="http://www.w3.org/2000/svg"><g fill="#fff" fill-rule="nonzero"><path d="m28.743 29.366c8.588 0 15.722 4.433 19.116 9.212v-8.034h13.09v59.633h-9.42c-.005 0-.01 0-.015 0-2.043 0-3.725-1.682-3.725-3.725 0-.005 0-.01 0-.015v-4.295c-3.324 4.849-10.458 9.281-19.046 9.281-16.345 0-28.743-13.99-28.743-31.028s12.398-31.029 28.743-31.029m2.355 11.913c-10.597 0-17.8 8.38-17.8 19.116 0 10.735 7.134 19.116 17.8 19.116 10.597 0 17.8-8.381 17.8-19.116 0-10.736-7.134-19.116-17.8-19.116m44.742-10.735h13.159v8.103c3.602-5.956 10.389-9.281 18.146-9.281 13.852 0 22.787 9.766 22.787 24.934v35.877h-9.419c-.006 0-.011 0-.016 0-2.043 0-3.725-1.682-3.725-3.725 0-.005 0-.01 0-.015v-29.99c0-9.419-4.778-15.168-12.397-15.168-8.727 0-15.376 6.787-15.376 19.531v29.367h-9.419c-.005 0-.01 0-.015 0-2.044 0-3.725-1.682-3.725-3.725 0-.005 0-.01 0-.015zm93.224-1.178c8.588 0 15.722 4.433 19.116 9.212v-37.816h13.09v89.484h-9.42c-.005 0-.01 0-.015 0-2.043 0-3.725-1.682-3.725-3.725 0-.005 0-.01 0-.015v-4.294c-3.324 4.779-10.527 9.211-19.115 9.211-16.346 0-28.743-13.99-28.743-31.028.069-17.038 12.466-31.029 28.812-31.029m2.355 11.913c-10.597 0-17.8 8.38-17.8 19.116 0 10.735 7.134 19.116 17.8 19.116 10.596 0 17.8-8.381 17.8-19.116 0-10.736-7.204-19.116-17.8-19.116m44.603-10.735h13.229v10.596c2.347-6.663 8.657-11.167 15.722-11.22 1.72-.004 3.436.159 5.125.485v13.506c-2.121-.715-4.342-1.089-6.58-1.108-7.549 0-14.336 6.302-14.336 18.284v29.09h-9.42c-.005 0-.01 0-.015 0-2.043 0-3.725-1.682-3.725-3.725 0-.005 0-.01 0-.015zm69.537 60.879c-17.661 0-31.236-13.713-31.236-31.028s13.575-31.029 31.236-31.029c17.662 0 31.237 13.714 31.237 31.029s-13.575 31.028-31.237 31.028m0-12.189c10.528 0 17.869-8.242 17.869-18.839s-7.41-18.839-17.869-18.839c-10.597 0-18.007 8.242-18.007 18.839s7.41 18.839 18.007 18.839m48.413-61.711c-4.813-.031-8.765-3.983-8.796-8.796.085-4.781 4.015-8.68 8.796-8.727 4.806 0 8.761 3.955 8.761 8.761 0 4.807-3.955 8.762-8.761 8.762m-6.51 13.021h13.09v59.633h-9.35c-.005 0-.011 0-.016 0-2.043 0-3.724-1.682-3.724-3.725 0-.005 0-.01 0-.015zm52.637-1.178c8.589 0 15.722 4.433 19.116 9.212v-37.816h13.09v89.484h-9.419c-.005 0-.01 0-.015 0-2.044 0-3.725-1.682-3.725-3.725 0-.005 0-.01 0-.015v-4.294c-3.325 4.779-10.528 9.211-19.116 9.211-16.345 0-28.743-13.99-28.743-31.028.069-17.038 12.467-31.029 28.812-31.029m2.424 11.913c-10.596 0-17.799 8.38-17.799 19.116 0 10.735 7.133 19.116 17.799 19.116 10.597 0 17.8-8.381 17.8-19.116 0-10.736-7.203-19.116-17.8-19.116"/><path d="m557.128 67.667c-3.647 0-6.649-3.001-6.649-6.649 0-3.647 3.002-6.649 6.649-6.649 3.648 0 6.649 3.002 6.649 6.649 0 3.648-3.001 6.649-6.649 6.649m-73.208 0c-3.647 0-6.649-3.001-6.649-6.649 0-3.647 3.002-6.649 6.649-6.649 3.648 0 6.649 3.002 6.649 6.649 0 3.648-3.001 6.649-6.649 6.649m75.563-39.894 13.298-22.925c.237-.415.362-.884.362-1.362 0-1.506-1.239-2.745-2.745-2.745-.993 0-1.912.539-2.396 1.406l-13.437 23.202c-10.671-4.876-22.274-7.381-34.006-7.341-11.747-.029-23.365 2.45-34.076 7.272l-13.437-23.202c-.488-.854-1.399-1.383-2.383-1.383-1.505 0-2.744 1.239-2.744 2.745 0 .469.12.93.348 1.339l13.229 22.925c-23.214 12.661-38.506 36.251-40.586 62.611h159.09c-2.017-26.345-17.298-49.933-40.517-62.542"/></g></svg>