<svg clip-rule="evenodd" fill-rule="evenodd" stroke-linejoin="round" stroke-miterlimit="2" viewBox="0 0 600 131" xmlns="http://www.w3.org/2000/svg"><path d="m49.207 108.307c-14.25 0-25.78-11.911-25.78-26.72 0-14.529 11.53-26.618 25.78-26.618 9.47 0 18.94 4.411 22.969 12.47.28.559.649 1.309.649 2.25v23.618c0 .47-.28 1.5-.471 1.78-4.398 8.059-13.398 13.22-23.147 13.22m46.778 20.338v-93.735h-23.16v7.868c-6.47-6.279-15.28-9.737-26.148-9.737-26.529 0-46.677 21.559-46.677 48.546 0 27.101 20.148 48.94 46.677 48.94 10.868 0 19.678-3.661 26.148-9.941v8.059zm100.574 0v-50.706c0-24.94-19.397-44.898-44.147-44.898-24.838 0-44.147 19.958-44.147 44.898v50.706h23.147v-50.706c0-12.28 8.632-21.661 21-21.661 12.279 0 21 9.381 21 21.661v50.706zm58.868-20.338c-14.25 0-25.779-11.911-25.779-26.72 0-14.529 11.529-26.618 25.779-26.618 9.47 0 18.47 4.69 22.97 12.47.279.559.648 1.309.648 2.25v23.72c0 .47-.28 1.398-.458 1.678-4.411 8.059-13.41 13.22-23.16 13.22m46.778 20.338v-121.853h-23.16v35.986c-6.458-6.279-15.279-10.029-26.148-10.029-26.529 0-46.677 21.851-46.677 48.838 0 27.101 20.148 48.94 46.677 48.94 10.869 0 19.69-3.661 26.148-9.941v8.059zm35.428 0v-50.058c0-14.809 7.779-22.678 22.588-22.678v-22.868c-29.809 0-45.736 15.839-45.736 45.546v50.058zm73.206-21.457c-14.059 0-25.487-11.44-25.487-25.601 0-14.059 11.428-25.487 25.487-25.487 14.249 0 25.601 11.428 25.601 25.487 0 14.161-11.352 25.601-25.601 25.601m0 23.339c27.101 0 49.028-21.839 49.028-48.94 0-26.987-21.927-48.546-49.028-48.546-26.987 0-48.927 21.559-48.927 48.546 0 27.101 21.94 48.94 48.927 48.94m71.147-102.736c7.41 0 13.41-6.101 13.41-13.499 0-7.5-6-13.5-13.41-13.5-7.399 0-13.398 6-13.398 13.5 0 7.398 5.999 13.499 13.398 13.499m11.529 7.119h-23.161v93.735h23.161zm59.719 73.397c-14.25 0-25.779-11.911-25.779-26.72 0-14.529 11.529-26.618 25.779-26.618 9.47 0 18.457 4.69 22.957 12.47.293.559.661 1.309.661 2.25v23.809c0 .47-.279 1.309-.47 1.589-4.398 8.059-13.398 13.22-23.148 13.22m46.766 20.338v-121.853h-23.148v35.986c-6.47-6.279-15.279-9.737-26.148-9.737-26.529 0-46.689 21.559-46.689 48.546 0 27.101 20.16 49.029 46.689 49.029 10.869 0 19.678-3.75 26.148-10.03v8.059z" fill="#fff" fill-rule="nonzero"/></svg>