<?xml version="1.0" encoding="UTF-8" standalone="no"?><!DOCTYPE svg PUBLIC "-//W3C//DTD SVG 1.1//EN" "http://www.w3.org/Graphics/SVG/1.1/DTD/svg11.dtd"><svg width="100%" height="100%" viewBox="0 0 600 131" version="1.1" xmlns="http://www.w3.org/2000/svg" xmlns:xlink="http://www.w3.org/1999/xlink" xml:space="preserve" xmlns:serif="http://www.serif.com/" style="fill-rule:evenodd;clip-rule:evenodd;stroke-linejoin:round;stroke-miterlimit:2;"><g id="android_2014"><path id="path34481" d="M49.207,107.849c-14.25,-0 -25.78,-11.911 -25.78,-26.72c0,-14.529 11.53,-26.618 25.78,-26.618c9.47,-0 18.94,4.411 22.969,12.47c0.28,0.559 0.649,1.309 0.649,2.25l-0,23.618c-0,0.47 -0.28,1.5 -0.471,1.78c-4.398,8.059 -13.398,13.22 -23.147,13.22m46.778,20.338l0,-93.735l-23.16,0l-0,7.869c-6.47,-6.28 -15.28,-9.738 -26.148,-9.738c-26.529,0 -46.677,21.559 -46.677,48.546c0,27.101 20.148,48.94 46.677,48.94c10.868,-0 19.678,-3.661 26.148,-9.941l-0,8.059l23.16,0Zm100.574,0l0,-50.706c0,-24.94 -19.397,-44.898 -44.147,-44.898c-24.838,0 -44.147,19.958 -44.147,44.898l-0,50.706l23.147,0l0,-50.706c0,-12.28 8.632,-21.661 21,-21.661c12.279,0 21,9.381 21,21.661l-0,50.706l23.147,0Zm58.868,-20.338c-14.25,-0 -25.779,-11.911 -25.779,-26.72c-0,-14.529 11.529,-26.618 25.779,-26.618c9.47,-0 18.47,4.691 22.97,12.47c0.279,0.559 0.648,1.309 0.648,2.25l-0,23.72c-0,0.47 -0.28,1.398 -0.458,1.678c-4.411,8.059 -13.41,13.22 -23.16,13.22m46.778,20.338l0,-121.853l-23.16,-0l-0,35.987c-6.458,-6.28 -15.279,-10.03 -26.148,-10.03c-26.529,0 -46.677,21.851 -46.677,48.838c0,27.101 20.148,48.94 46.677,48.94c10.869,-0 19.69,-3.661 26.148,-9.941l-0,8.059l23.16,0Zm35.428,0l-0,-50.058c-0,-14.809 7.779,-22.677 22.588,-22.677l0,-22.869c-29.809,0 -45.736,15.839 -45.736,45.546l-0,50.058l23.148,0Zm73.206,-21.457c-14.059,0 -25.487,-11.44 -25.487,-25.601c0,-14.059 11.428,-25.487 25.487,-25.487c14.249,0 25.601,11.428 25.601,25.487c-0,14.161 -11.352,25.601 -25.601,25.601m-0,23.339c27.101,-0 49.028,-21.839 49.028,-48.94c0,-26.987 -21.927,-48.546 -49.028,-48.546c-26.987,0 -48.927,21.559 -48.927,48.546c-0,27.101 21.94,48.94 48.927,48.94m71.147,-102.735c7.41,-0 13.41,-6.102 13.41,-13.5c0,-7.5 -6,-13.5 -13.41,-13.5c-7.399,0 -13.398,6 -13.398,13.5c-0,7.398 5.999,13.5 13.398,13.5m11.529,7.118l-23.161,0l0,93.735l23.161,0l-0,-93.735Zm59.719,73.397c-14.25,-0 -25.779,-11.911 -25.779,-26.72c-0,-14.529 11.529,-26.618 25.779,-26.618c9.47,-0 18.457,4.691 22.957,12.47c0.293,0.559 0.661,1.309 0.661,2.25l0,23.809c0,0.47 -0.279,1.309 -0.47,1.589c-4.398,8.059 -13.398,13.22 -23.148,13.22m46.766,20.338l0,-121.853l-23.148,-0l0,35.987c-6.47,-6.28 -15.279,-9.738 -26.148,-9.738c-26.529,0 -46.689,21.559 -46.689,48.546c-0,27.101 20.16,49.029 46.689,49.029c10.869,-0 19.678,-3.75 26.148,-10.03l0,8.059l23.148,0Z" style="fill:#fff;fill-rule:nonzero;"/></g></svg>