<svg clip-rule="evenodd" fill-rule="evenodd" stroke-linejoin="round" stroke-miterlimit="2" viewBox="0 0 600 90" xmlns="http://www.w3.org/2000/svg"><g fill="#fff" fill-rule="nonzero"><path d="m33.842 74.269c-9.8 0-17.73-8.191-17.73-18.376 0-9.993 7.93-18.307 17.73-18.307 6.513 0 13.026 3.034 15.797 8.576.193.385.446.901.446 1.548v16.243c0 .324-.192 1.032-.323 1.224-3.025 5.543-9.215 9.092-15.92 9.092m32.172 13.988v-64.466h-15.929v5.411c-4.45-4.319-10.508-6.696-17.983-6.696-18.245 0-32.102 14.827-32.102 33.387 0 18.638 13.857 33.658 32.102 33.658 7.475 0 13.533-2.518 17.983-6.837v5.543zm69.17 0v-34.873c0-17.153-13.341-30.878-30.363-30.878-17.082 0-30.362 13.725-30.362 30.878v34.873h15.92v-34.873c0-8.446 5.936-14.897 14.442-14.897 8.445 0 14.443 6.451 14.443 14.897v34.873zm40.486-13.988c-9.801 0-17.73-8.191-17.73-18.376 0-9.993 7.929-18.307 17.73-18.307 6.513 0 12.702 3.226 15.797 8.576.192.385.446.901.446 1.548v16.313c0 .324-.192.962-.315 1.154-3.033 5.543-9.223 9.092-15.928 9.092m32.172 13.988v-83.805h-15.929v24.75c-4.441-4.319-10.508-6.898-17.983-6.898-18.245 0-32.102 15.029-32.102 33.589 0 18.638 13.857 33.658 32.102 33.658 7.475 0 13.542-2.518 17.983-6.837v5.543zm24.365 0v-34.427c0-10.185 5.35-15.597 15.535-15.597v-15.727c-20.501 0-31.455 10.893-31.455 31.324v34.427zm50.347-14.757c-9.669 0-17.528-7.868-17.528-17.607 0-9.669 7.859-17.529 17.528-17.529 9.8 0 17.607 7.86 17.607 17.529 0 9.739-7.807 17.607-17.607 17.607m0 16.051c18.639 0 33.72-15.02 33.72-33.658 0-18.56-15.081-33.387-33.72-33.387-18.56 0-33.649 14.827-33.649 33.387 0 18.638 15.089 33.658 33.649 33.658m48.931-70.656c5.097 0 9.224-4.196 9.224-9.285 0-5.158-4.127-9.284-9.224-9.284-5.088 0-9.214 4.126-9.214 9.284 0 5.089 4.126 9.285 9.214 9.285m7.93 4.896h-15.929v64.466h15.929zm41.071 50.478c-9.8 0-17.729-8.191-17.729-18.376 0-9.993 7.929-18.307 17.729-18.307 6.514 0 12.694 3.226 15.789 8.576.201.385.455.901.455 1.548v16.374c0 .324-.193.901-.324 1.093-3.025 5.543-9.214 9.092-15.92 9.092m32.164 13.988v-83.805h-15.92v24.75c-4.45-4.319-10.509-6.696-17.983-6.696-18.246 0-32.111 14.827-32.111 33.387 0 18.638 13.865 33.719 32.111 33.719 7.474 0 13.533-2.579 17.983-6.898v5.543z"/><path d="m559.876 68.416c-3.414 0-6.223-2.809-6.223-6.223s2.809-6.223 6.223-6.223 6.223 2.809 6.223 6.223-2.809 6.223-6.223 6.223m-68.516 0c-3.414 0-6.223-2.809-6.223-6.223s2.809-6.223 6.223-6.223 6.223 2.809 6.223 6.223-2.809 6.223-6.223 6.223m70.72-37.337 12.445-21.456c.222-.388.339-.828.339-1.275 0-1.409-1.16-2.569-2.569-2.569-.929 0-1.789.505-2.242 1.316l-12.575 21.715c-9.988-4.564-20.847-6.908-31.828-6.871-10.993-.027-21.867 2.294-31.891 6.806l-12.576-21.715c-.457-.799-1.309-1.294-2.23-1.294-1.409 0-2.569 1.16-2.569 2.569 0 .439.113.87.327 1.253l12.38 21.456c-21.726 11.849-36.037 33.927-37.985 58.598h148.894c-1.888-24.656-16.189-46.732-37.92-58.533"/></g></svg>