<?xml version="1.0" encoding="UTF-8" standalone="no"?><!DOCTYPE svg PUBLIC "-//W3C//DTD SVG 1.1//EN" "http://www.w3.org/Graphics/SVG/1.1/DTD/svg11.dtd"><svg width="100%" height="100%" viewBox="0 0 600 201" version="1.1" xmlns="http://www.w3.org/2000/svg" xmlns:xlink="http://www.w3.org/1999/xlink" xml:space="preserve" xmlns:serif="http://www.serif.com/" style="fill-rule:evenodd;clip-rule:evenodd;stroke-linejoin:round;stroke-miterlimit:2;"><g id="apple_appstore"><path d="M552.22,0l-504.413,0c-1.838,0 -3.655,0 -5.489,0.01c-1.535,0.01 -3.058,0.039 -4.607,0.064c-3.367,0.039 -6.726,0.336 -10.048,0.886c-3.317,0.562 -6.531,1.622 -9.531,3.144c-2.997,1.534 -5.736,3.528 -8.116,5.909c-2.393,2.375 -4.388,5.119 -5.908,8.129c-1.524,3.003 -2.581,6.221 -3.134,9.543c-0.558,3.318 -0.858,6.674 -0.898,10.038c-0.047,1.538 -0.051,3.08 -0.076,4.617l-0,115.896c0.025,1.557 0.029,3.065 0.076,4.622c0.04,3.364 0.34,6.72 0.898,10.038c0.552,3.324 1.609,6.544 3.134,9.548c1.519,3 3.514,5.733 5.908,8.094c2.371,2.392 5.112,4.388 8.116,5.91c3,1.526 6.213,2.592 9.531,3.163c3.322,0.546 6.681,0.842 10.048,0.887c1.549,0.034 3.072,0.053 4.607,0.053c1.834,0.01 3.65,0.01 5.489,0.01l504.413,0c1.802,0 3.633,0 5.435,-0.01c1.528,0 3.095,-0.019 4.622,-0.053c3.361,-0.042 6.713,-0.339 10.028,-0.887c3.329,-0.575 6.553,-1.641 9.568,-3.163c3.002,-1.523 5.739,-3.519 8.109,-5.91c2.387,-2.37 4.387,-5.102 5.925,-8.094c1.514,-3.006 2.56,-6.226 3.104,-9.548c0.559,-3.318 0.87,-6.673 0.93,-10.038c0.02,-1.557 0.02,-3.065 0.02,-4.622c0.039,-1.822 0.039,-3.633 0.039,-5.484l-0,-104.937c-0,-1.837 -0,-3.658 -0.039,-5.475c-0,-1.537 -0,-3.08 -0.02,-4.617c-0.06,-3.365 -0.371,-6.72 -0.93,-10.038c-0.545,-3.32 -1.592,-6.538 -3.104,-9.544c-3.095,-6.03 -8.004,-10.941 -14.034,-14.038c-3.015,-1.518 -6.24,-2.578 -9.568,-3.144c-3.314,-0.552 -6.667,-0.849 -10.028,-0.886c-1.527,-0.024 -3.094,-0.054 -4.622,-0.064l-5.435,-0.009Zm-509.877,196.174c-1.528,0 -3.019,-0.019 -4.534,-0.053c-3.14,-0.041 -6.273,-0.315 -9.372,-0.818c-2.89,-0.498 -5.69,-1.424 -8.307,-2.747c-2.593,-1.313 -4.958,-3.034 -7.005,-5.098c-2.076,-2.039 -3.804,-4.404 -5.117,-7.002c-1.327,-2.614 -2.245,-5.417 -2.722,-8.309c-0.516,-3.108 -0.795,-6.251 -0.835,-9.401c-0.032,-1.058 -0.074,-4.579 -0.074,-4.579l0,-115.827c0,0 0.044,-3.467 0.074,-4.485c0.038,-3.145 0.315,-6.283 0.83,-9.387c0.478,-2.9 1.397,-5.711 2.725,-8.333c1.307,-2.596 3.026,-4.963 5.09,-7.01c2.061,-2.066 4.434,-3.796 7.031,-5.127c2.611,-1.319 5.406,-2.238 8.29,-2.727c3.11,-0.508 6.253,-0.783 9.404,-0.822l4.524,-0.062l515.285,0l4.579,0.064c3.122,0.037 6.237,0.31 9.318,0.815c2.913,0.495 5.737,1.421 8.378,2.747c5.202,2.681 9.438,6.925 12.108,12.134c1.307,2.605 2.212,5.392 2.684,8.267c0.52,3.129 0.812,6.292 0.871,9.463c0.015,1.42 0.015,2.945 0.015,4.463c0.04,1.88 0.04,3.67 0.04,5.475l-0,104.937c-0,1.821 -0,3.599 -0.04,5.391c-0,1.63 -0,3.124 -0.02,4.661c-0.058,3.115 -0.344,6.221 -0.856,9.294c-0.468,2.913 -1.382,5.737 -2.708,8.373c-1.322,2.569 -3.04,4.914 -5.092,6.948c-2.049,2.075 -4.418,3.806 -7.017,5.127c-2.633,1.334 -5.453,2.263 -8.363,2.757c-3.1,0.506 -6.232,0.779 -9.373,0.818c-1.468,0.034 -3.006,0.053 -4.499,0.053l-5.435,0.01l-509.877,-0.01Z" style="fill:#fff;fill-rule:nonzero;"/><path id="_Path_" d="M125.334,99.726c0.114,-8.836 4.76,-17.021 12.288,-21.649c-4.772,-6.816 -12.495,-10.99 -20.81,-11.251c-8.756,-0.919 -17.244,5.24 -21.706,5.24c-4.548,-0 -11.418,-5.148 -18.815,-4.996c-9.722,0.314 -18.593,5.724 -23.322,14.223c-10.084,17.459 -2.563,43.118 7.097,57.23c4.833,6.911 10.481,14.63 17.872,14.356c7.232,-0.3 9.933,-4.611 18.663,-4.611c8.649,-0 11.183,4.611 18.724,4.437c7.761,-0.126 12.65,-6.941 17.313,-13.917c3.473,-4.924 6.145,-10.366 7.918,-16.124c-9.2,-3.891 -15.211,-12.95 -15.222,-22.938Z" style="fill:#fff;fill-rule:nonzero;"/><path id="_Path_2_" serif:id="_Path_2" d="M111.092,57.545c4.229,-5.078 6.315,-11.611 5.811,-18.2c-6.463,0.679 -12.438,3.77 -16.725,8.653c-4.233,4.818 -6.38,11.127 -5.963,17.527c6.547,0.067 12.774,-2.877 16.877,-7.98Z" style="fill:#fff;fill-rule:nonzero;"/><g><path d="M212.103,114.353l-23.734,-0l-5.699,16.829l-10.053,0l22.48,-62.264l10.444,-0l22.48,62.264l-10.224,0l-5.694,-16.829Zm-21.276,-7.766l18.813,-0l-9.274,-27.313l-0.26,-0l-9.279,27.313Z" style="fill:#fff;fill-rule:nonzero;"/><path d="M276.57,108.487c0,14.107 -7.55,23.17 -18.944,23.17c-5.88,0.308 -11.442,-2.785 -14.284,-7.942l-0.215,-0l-0,22.485l-9.318,-0l-0,-60.414l9.019,0l0,7.551l0.171,-0c2.969,-5.126 8.535,-8.217 14.455,-8.026c11.522,0 19.116,9.108 19.116,23.176Zm-9.577,-0c-0,-9.191 -4.75,-15.233 -11.997,-15.233c-7.119,-0 -11.908,6.169 -11.908,15.233c-0,9.146 4.789,15.272 11.908,15.272c7.247,-0 11.997,-5.998 11.997,-15.272Z" style="fill:#fff;fill-rule:nonzero;"/><path d="M326.537,108.487c-0,14.107 -7.553,23.17 -18.947,23.17c-5.88,0.308 -11.442,-2.785 -14.283,-7.942l-0.216,-0l-0,22.485l-9.318,-0l-0,-60.414l9.019,0l0,7.551l0.172,-0c2.968,-5.126 8.534,-8.217 14.454,-8.026c11.522,0 19.119,9.108 19.119,23.176Zm-9.58,-0c-0,-9.191 -4.75,-15.233 -11.997,-15.233c-7.119,-0 -11.908,6.169 -11.908,15.233c-0,9.146 4.789,15.272 11.908,15.272c7.247,-0 11.996,-5.998 11.996,-15.272l0.001,-0Z" style="fill:#fff;fill-rule:nonzero;"/><path d="M359.554,113.834c0.69,6.174 6.689,10.228 14.885,10.228c7.854,0 13.505,-4.054 13.505,-9.621c0,-4.833 -3.408,-7.727 -11.477,-9.71l-8.07,-1.944c-11.433,-2.762 -16.741,-8.109 -16.741,-16.785c-0,-10.743 9.362,-18.123 22.651,-18.123c13.162,0 22.181,7.38 22.485,18.123l-9.406,-0c-0.563,-6.214 -5.7,-9.965 -13.206,-9.965c-7.507,0 -12.643,3.795 -12.643,9.318c0,4.402 3.281,6.992 11.306,8.975l6.86,1.685c12.775,3.021 18.078,8.153 18.078,17.26c0,11.649 -9.274,18.945 -24.032,18.945c-13.808,-0 -23.131,-7.125 -23.734,-18.387l9.539,0.001Z" style="fill:#fff;fill-rule:nonzero;"/><path d="M417.901,75.043l-0,10.743l8.632,0l0,7.379l-8.632,0l-0,25.026c-0,3.888 1.728,5.7 5.523,5.7c1.025,-0.018 2.048,-0.09 3.065,-0.216l0,7.335c-1.706,0.319 -3.44,0.464 -5.175,0.431c-9.191,0 -12.775,-3.452 -12.775,-12.256l-0,-26.02l-6.601,0l0,-7.379l6.601,0l-0,-10.743l9.362,0Z" style="fill:#fff;fill-rule:nonzero;"/><path d="M431.528,108.487c-0,-14.284 8.412,-23.259 21.53,-23.259c13.162,0 21.535,8.975 21.535,23.259c-0,14.322 -8.329,23.258 -21.535,23.258c-13.201,0 -21.53,-8.936 -21.53,-23.258Zm33.57,-0c0,-9.798 -4.49,-15.581 -12.04,-15.581c-7.551,-0 -12.041,5.827 -12.041,15.581c0,9.837 4.49,15.575 12.041,15.575c7.55,0 12.041,-5.738 12.041,-15.575l-0.001,-0Z" style="fill:#fff;fill-rule:nonzero;"/><path d="M482.275,85.786l8.888,0l-0,7.727l0.215,-0c1.235,-4.956 5.816,-8.397 10.919,-8.202c1.074,-0.003 2.145,0.113 3.193,0.348l0,8.716c-1.356,-0.414 -2.77,-0.605 -4.187,-0.563c-0.126,-0.005 -0.253,-0.008 -0.38,-0.008c-5.151,-0 -9.39,4.239 -9.39,9.389c0,0.355 0.02,0.71 0.061,1.063l-0,26.926l-9.319,-0l0,-45.396Z" style="fill:#fff;fill-rule:nonzero;"/><path d="M548.452,117.849c-1.254,8.241 -9.279,13.896 -19.547,13.896c-13.206,0 -21.403,-8.848 -21.403,-23.043c0,-14.239 8.241,-23.474 21.011,-23.474c12.56,0 20.458,8.628 20.458,22.392l-0,3.192l-32.062,0l-0,0.564c-0.031,0.346 -0.047,0.694 -0.047,1.043c0,6.486 5.338,11.823 11.824,11.823c0.145,-0 0.29,-0.003 0.435,-0.008c4.508,0.422 8.789,-2.185 10.483,-6.385l8.848,-0Zm-31.499,-13.549l22.695,0c0.011,-0.202 0.017,-0.404 0.017,-0.607c-0,-5.989 -4.928,-10.917 -10.917,-10.917c-0.078,0 -0.157,0.001 -0.235,0.003c-0.023,-0.001 -0.045,-0.001 -0.068,-0.001c-6.305,0 -11.492,5.188 -11.492,11.493c-0,0.009 -0,0.019 -0,0.029l-0,0Z" style="fill:#fff;fill-rule:nonzero;"/></g></g></svg>