<?xml version="1.0" encoding="UTF-8" standalone="no"?><!DOCTYPE svg PUBLIC "-//W3C//DTD SVG 1.1//EN" "http://www.w3.org/Graphics/SVG/1.1/DTD/svg11.dtd"><svg width="100%" height="100%" viewBox="0 0 600 205" version="1.1" xmlns="http://www.w3.org/2000/svg" xmlns:xlink="http://www.w3.org/1999/xlink" xml:space="preserve" xmlns:serif="http://www.serif.com/" style="fill-rule:evenodd;clip-rule:evenodd;stroke-linejoin:round;stroke-miterlimit:2;"><g id="apple-ii"><path d="M9.744,73.321l-0.206,0.322c-4.915,8.224 -7.957,17.371 -8.911,26.901l-0.022,0.226c-0.487,4.387 -0.681,8.802 -0.579,13.215c0.075,4.586 0.457,9.161 1.144,13.695l0.033,0.216c1.397,9.133 3.886,18.046 7.414,26.585l0.169,0.406c3.493,8.546 8.032,16.783 13.348,24.336l0.253,0.359c11.171,15.57 23.769,24.541 30.869,24.657c14.528,0.231 27.011,-9.647 37.487,-9.473c0.108,0.019 0.219,0.019 0.328,-0l0.27,-0c0.102,0.019 0.207,0.019 0.309,-0c10.418,-0.347 23.151,9.396 37.621,8.971c7.007,-0.191 19.331,-9.196 30.226,-24.713l0.257,-0.368c5.283,-7.586 9.631,-15.841 13.072,-24.421l0.164,-0.409c0.559,-1.389 1.08,-2.798 1.582,-4.225c-11.059,-3.635 -20.029,-11.845 -24.603,-22.544l-0.054,-0.126c-2.6,-5.938 -3.953,-12.348 -3.974,-18.83c-0.029,-2.686 0.177,-5.388 0.613,-8.04l0.043,-0.256c1.762,-10.842 7.713,-20.509 16.556,-27.012l0.209,-0.153c1.532,-1.116 3.137,-2.128 4.804,-3.029c-11.749,-18.29 -30.734,-20.991 -36.657,-21.57c-12.945,-1.273 -31.216,8.895 -41.133,9.126l-0.251,0c-9.935,0 -28.264,-10.032 -41.229,-8.605c-16.055,2.09 -30.39,11.161 -39.152,24.759Z" style="fill:#fff;fill-rule:nonzero;"/><path d="M125.085,0.522c-1.004,-0.849 -19.429,2.663 -30.754,15.435c-11.325,12.772 -10.495,32.432 -9.492,33.165c1.003,0.733 19.698,-2.219 30.753,-15.435c11.055,-13.216 10.496,-32.335 9.493,-33.165Z" style="fill:#fff;fill-rule:nonzero;"/><rect x="395.266" y="51.476" width="24.406" height="90.215" style="fill:#fff;fill-rule:nonzero;"/><path d="M186.668,76.46c-18.444,0 -31.775,15.531 -31.775,32.625c-0,17.094 13.331,32.625 31.775,32.625l14.046,-0l-0,-18.58l-8.123,0c-0.28,0.018 -0.56,0.027 -0.841,0.027c-7.409,-0 -13.505,-6.097 -13.505,-13.506c-0,-0.188 0.004,-0.377 0.012,-0.566c-0,-7.331 6.945,-13.254 14.334,-13.254l12.985,-0l-0,45.879l24.406,-0l-0,-65.25l-43.314,0Z" style="fill:#fff;fill-rule:nonzero;"/><path d="M278.292,76.46l-43.294,0l-0,89.617l24.406,-0l-0,-70.246l12.965,-0c7.408,-0 14.354,5.923 14.354,13.254c0.008,0.189 0.012,0.378 0.012,0.568c-0,7.408 -6.097,13.505 -13.506,13.505c-0.287,-0 -0.574,-0.009 -0.86,-0.028l-8.123,0l0,18.58l14.046,-0c18.463,-0 31.775,-15.551 31.775,-32.625c0,-17.074 -13.312,-32.625 -31.775,-32.625Z" style="fill:#fff;fill-rule:nonzero;"/><path d="M359.111,76.46l-43.313,0l-0,89.617l24.425,-0l-0,-70.246l12.965,-0c7.389,-0 14.334,5.923 14.334,13.254c0.008,0.189 0.012,0.378 0.012,0.566c0,7.409 -6.096,13.506 -13.505,13.506c-0.281,-0 -0.561,-0.009 -0.841,-0.027l-8.123,0l0,18.58l14.046,-0c18.463,-0 31.776,-15.551 31.776,-32.625c-0,-17.074 -13.313,-32.625 -31.776,-32.625Z" style="fill:#fff;fill-rule:nonzero;"/><path d="M486.021,117.709l13.775,-21.878l0,-19.294l-43.313,0c-18.444,0 -31.756,15.531 -31.756,32.625c-0,17.094 13.312,32.625 31.756,32.625l42.156,-0l-0,-18.657l-36.213,0c-0.287,0.019 -0.574,0.028 -0.861,0.028c-7.409,-0 -13.506,-6.097 -13.506,-13.505c0,-0.19 0.004,-0.379 0.012,-0.568c0,-7.331 6.946,-13.254 14.355,-13.254l16.322,-0l-13.776,21.878l21.049,-0Z" style="fill:#fff;fill-rule:nonzero;"/><path d="M557.307,141.787l0,-83.203l-37.838,0l0,18.136l13.484,-0l-0,46.932l-13.484,-0l0,18.135l37.838,-0Z" style="fill:#fff;"/><path d="M562.162,58.584l-0,83.203l37.838,-0l-0,-18.135l-13.483,-0l-0,-46.932l13.483,-0l-0,-18.136l-37.838,0Z" style="fill:#fff;"/></g></svg>