<svg clip-rule="evenodd" fill-rule="evenodd" stroke-linejoin="round" stroke-miterlimit="2" viewBox="0 0 600 127" xmlns="http://www.w3.org/2000/svg"><g fill="#fff" fill-rule="nonzero"><path d="m88.419 121.312c-6.828 6.627-14.362 5.594-21.543 2.469-7.635-3.187-14.614-3.389-22.677 0-10.041 4.334-15.37 3.074-21.417-2.469-34.141-35.149-29.102-88.692 9.701-90.707 9.411.504 16 5.203 21.543 5.593 8.239-1.675 16.126-6.475 24.944-5.845 10.595.856 18.52 5.039 23.811 12.56-21.795 13.102-16.63 41.826 3.389 49.889-4.006 10.52-9.146 20.913-17.764 28.598zm-35.149-91.085c-1.021-15.622 11.641-28.472 26.204-29.732 2.003 18.015-16.377 31.496-26.204 29.732z"/><path d="m187.708 110.288c0-1.653 1.512-2.065 5.092-2.478 4.407-.414 4.679-2.339 4.679-8.671 0-14.867-.96-42.121-1.512-56.85-.138-2.064-.138-2.754-.689-2.754-.55 0-.689.827-1.24 2.065-2.616 6.884-6.881 20.372-17.48 54.234-3.855 12.8-3.442 15.417-6.057 15.417-1.652 0-2.064-1.102-3.442-6.884-4.541-17.067-15.141-51.893-18.583-62.629-.414-1.239-.687-1.928-1.378-1.928-.548 0-.548 1.102-.823 3.028-.963 12.937-1.787 35.101-1.787 47.077 0 9.084-.141 17.206 4.541 17.894 2.477.416 6.057.552 6.057 2.479 0 1.1-.825 1.926-2.756 1.926-2.751 0-4.952-.552-10.185-.552-4.817 0-7.568.552-9.496.552-1.379 0-2.202-.275-2.202-1.926 0-2.063 2.064-1.79 4.404-2.34 3.993-.826 4.542-3.994 4.954-10.739.826-14.727 2.34-46.937 2.34-58.362.138-7.433 0-8.809-4.679-9.498-2.34-.275-4.542-.55-4.542-2.202 0-1.928 1.788-2.064 3.717-2.065 2.89 0 6.744.413 9.774.413 2.34 0 5.917-.413 8.121-.412 1.514 0 2.064.412 2.754 2.477 5.094 16.792 10.188 33.585 15.143 50.241 1.099 3.994 1.926 7.16 2.89 7.16.824 0 1.513-1.927 2.75-5.923 5.233-16.791 10.464-33.584 15.694-50.241.822-2.615 1.651-3.716 3.166-3.717 2.063 0 5.505.413 8.121.413 2.753 0 6.742-.413 9.634-.412 1.517 0 2.891.549 2.891 1.926 0 1.79-1.788 2.204-5.782 2.477-2.477.276-3.165 2.066-3.165 8.259 0 13.627 1.654 45.836 2.066 62.768 0 5.094 1.237 7.021 3.991 7.297 3.442.824 4.956 1.103 4.956 2.616 0 1.515-1.238 1.789-3.163 1.789-2.89 0-6.196-.552-12.526-.552-5.507 0-10.048.552-13.078.552-1.79 0-3.165-.552-3.165-1.789v-.134z"/><path d="m253.365 60.873c0-6.469-1.516-9.086-5.781-9.086-6.608 0-9.635 4.956-11.84 11.7-.964 2.891-2.615 5.23-4.679 6.607-1.516 1.102-3.442 1.927-5.505 1.927-2.616 0-3.58-1.103-3.58-3.579 0-7.982 11.84-20.508 28.907-20.508 5.094 0 9.086.687 11.422 2.753 2.343 1.79 2.894 4.405 2.894 8.672v39.367c0 3.442 1.099 5.919 3.853 5.919 2.204 0 3.442-1.238 4.13-2.477.552-1.24 1.099-2.615 1.924-2.615.827 0 1.103.686 1.103 2.339 0 3.026-4.679 11.147-12.666 11.147-5.781 0-7.432-4.679-8.535-7.434-.414-1.101-.823-1.926-1.512-1.926-1.103 0-3.305 2.617-6.747 5.095-3.165 2.478-7.433 4.679-12.939 4.679-6.468 0-11.563-4.402-11.563-12.388 0-7.294 5.095-12.249 16.242-19.131 4.407-2.891 7.707-4.818 10.188-6.469 3.716-2.201 4.68-3.442 4.68-6.606v-7.985h.004zm-18.723 37.714c0 5.095 2.893 7.709 6.884 7.709 3.028 0 5.919-1.79 8.536-4.406 2.477-2.476 3.303-4.404 3.303-7.845v-14.04c0-1.653-.276-2.065-.964-2.065-.685 0-1.375.275-3.165 1.378-2.89 1.926-5.644 4.127-7.984 6.469-3.853 3.578-6.608 7.707-6.608 12.663z"/><path d="m274.698 82.759c0-20.097 13.077-34.825 29.733-34.825 3.718 0 8.672.687 11.839 2.615 2.89 1.652 3.164 2.201 3.303 5.506v4.956c0 1.238-.139 3.303-.415 4.542-.276 2.478-1.24 3.304-3.027 3.304-2.478 0-3.165-3.578-5.781-9.359-1.926-4.544-3.719-6.883-7.707-6.883-7.983 0-15.005 10.461-15.005 25.187 0 19.548 7.436 28.22 16.656 28.22 4.96 0 8.672-2.065 11.425-6.057 1.652-2.478 2.755-5.917 3.857-5.917.822 0 1.376.824 1.376 1.926 0 6.468-6.881 17.481-20.783 17.481-15.281 0-25.466-12.526-25.466-30.559z"/><path d="m330.447 64.863c0-4.403-.964-5.506-5.232-6.194-1.651-.276-2.336-.688-2.336-1.653 0-1.239 1.237-1.788 4.403-2.751 4.402-1.241 8.259-3.305 11.148-4.958 1.375-.824 2.202-1.376 2.755-1.376.822 0 1.098.551 1.098 2.064v50.795c0 4.681-.044 7.033 1.734 7.568 2.432.737 3.442.827 3.442 2.205 0 1.237-.552 1.653-2.201 1.653-2.89 0-2.836-.552-8.892-.552-6.607 0-6.415.552-9.028.552-1.101 0-2.066-.552-2.066-1.653 0-1.378.965-1.795 2.757-2.205 2.189-.499 2.421-1.652 2.421-7.158zm5.919-25.601c-3.582 0-6.883-2.892-6.883-8.122 0-5.092 3.028-8.259 7.022-8.259 3.854 0 6.881 3.028 6.881 8.121 0 5.368-3.027 8.26-6.881 8.26z"/><path d="m358.525 64.863c0-4.679-.551-5.23-3.99-5.643-2.477-.275-3.305-.414-3.305-1.515 0-1.377 1.376-1.652 4.266-2.615 4.955-1.79 8.811-3.992 10.874-5.644 1.24-.963 1.929-1.514 2.62-1.514.822 0 1.1 1.101 1.1 2.339v5.507c0 1.927.137 2.34.551 2.34 1.241 0 3.441-2.34 6.466-4.679 3.168-2.34 7.436-4.818 12.526-4.818 4.68 0 9.086 1.515 12.248 4.818 2.893 3.028 4.545 7.434 4.545 13.213v35.101c0 4.818 1.221 6.333 4.391 6.744 0 0 2.038.688 2.038 2.065 0 1.238-.965 1.654-2.479 1.654-1.654 0-3.536-.552-10.005-.552-6.193 0-6.856.552-9.056.552-1.518 0-2.202-.414-2.202-1.79 0-.962.983-1.434 2.34-1.79 1.27-.331 3.137-1.787 3.137-5.642v-34.963c0-3.305-.685-6.196-2.34-8.399-1.925-2.476-4.818-3.854-8.259-3.854-3.582 0-7.019 1.378-9.635 3.718-2.478 2.339-3.857 5.093-3.857 8.396v35.101c0 3.578.67 5.061 3.994 5.642.582.102 1.216.398 1.216 1.635 0 1.377-.964 1.788-2.066 1.788-1.652 0-1.215-.397-9.334-.397-7.022 0-7.132.552-9.334.552-1.652 0-2.617-.552-2.617-1.79s1.107-1.889 2.48-2.065c2.979-.375 3.686-2.201 3.686-7.707v-35.788z"/><path d="m431.45 98.314c0 5.365 1.516 7.704 4.82 7.704 2.616 0 4.266-1.788 5.367-3.44 1.239-1.654 2.064-3.305 3.166-3.305.822 0 1.376.414 1.376 1.378 0 2.064-3.719 12.802-14.454 12.802-3.99 0-7.018-1.1-9.081-3.303-2.201-2.478-3.027-5.782-3.027-11.012v-42.396c0-1.515-.689-2.066-1.655-2.203-.961-.138-2.202-.138-3.301-.138-1.241 0-2.343-.137-2.343-1.653 0-.963.826-1.926 2.619-3.578 4.265-3.305 7.846-7.02 12.525-15.279 1.24-2.339 1.652-3.166 2.616-3.166.96 0 1.375.551 1.375 2.89v13.077c0 2.066.688 2.891 2.758 2.891h7.433c2.339 0 2.89.55 2.89 2.478 0 2.203-.552 2.89-3.166 2.89-2.339 0-4.816-.139-7.156-.139-2.205 0-2.758.552-2.758 3.028z"/><path d="m472.059 113.453c-15.967 0-26.983-14.866-26.983-32.762 0-17.62 10.6-32.76 27.117-32.76 16.793 0 27.117 15.279 27.117 32.623 0 18.031-11.011 32.898-27.117 32.898h-.134zm.548-3.853c9.5 0 13.903-14.452 13.903-27.53 0-15.28-4.818-30.282-14.59-30.282-9.497 0-14.038 13.765-14.038 27.531 0 15.277 4.955 30.282 14.588 30.282h.137z"/><path d="m500.402 65.414c0-11.562 10.048-17.48 21.886-17.48 4.403 0 9.363.824 11.979 2.202.684.413.964 1.376 1.099 3.303.139 1.239.139 2.753.139 4.819v3.578c-.139 2.203-.412 3.442-1.654 3.442-1.787 0-2.062-2.616-4.267-7.297-1.652-3.578-3.992-6.332-8.395-6.332-5.369 0-9.641 3.717-9.641 8.81 0 6.605 6.609 9.773 13.493 13.763 6.744 3.993 13.764 8.809 13.764 18.722 0 13.35-10.738 20.508-23.675 20.508-4.131 0-8.121-.687-10.877-1.652-.962-.276-1.925-.551-2.618-1.103-.684-.413-1.237-1.1-1.375-3.854-.137-1.927-.137-4.541-.137-8.122 0-5.506.41-7.018 1.787-7.018 1.928 0 2.062 2.202 4.13 7.983 2.063 5.368 5.229 9.91 10.877 9.91 6.194 0 10.598-4.128 10.598-10.324 0-8.121-6.47-11.702-12.803-15.556-6.881-3.856-14.316-8.259-14.316-18.17v-.137h.005v.005z"/><path d="m544.116 29.901c0-3.992-.55-4.955-4.266-5.369-2.339-.552-3.165-.688-3.165-1.927 0-1.377.965-1.515 3.858-2.34 5.505-1.652 8.947-2.89 11.149-4.129 1.787-.828 2.615-1.24 3.442-1.24.821 0 .958.55.958 2.478v39.093c0 .825.279 1.238.827 1.238.552 0 1.237-.414 1.788-.964 3.442-3.164 8.808-8.121 16.791-8.121 10.323 0 16.38 7.019 16.656 17.894v35.237c0 4.682 1.243 6.469 4.545 6.882 2.202.277 3.301.689 3.301 1.928s-.962 1.653-2.063 1.653c-1.238 0-5.368-.552-11.421-.552-6.609 0-9.086.552-11.015.552-1.513 0-2.339-.552-2.339-1.789s.963-1.515 2.477-1.789c3.442-.55 4.544-1.787 4.544-5.642v-34.963c0-3.442-.551-6.469-2.2-8.535-1.928-2.615-4.821-3.856-8.54-3.856-3.576 0-7.018 1.378-9.633 3.717-2.48 2.341-3.721 5.095-3.721 8.537v34.688c0 3.576 1.241 5.367 5.369 6.054 2.066.418 2.614.689 2.614 1.928s-.96 1.654-2.062 1.654c-1.652 0-3.719-.551-12.113-.551-6.744 0-8.945.551-11.288.551-1.237 0-2.201-.415-2.201-1.79 0-1.238 1.241-1.925 2.616-2.064 4.403-.413 5.094-2.064 5.094-7.707z"/></g></svg>