<?xml version="1.0" encoding="UTF-8" standalone="no"?><!DOCTYPE svg PUBLIC "-//W3C//DTD SVG 1.1//EN" "http://www.w3.org/Graphics/SVG/1.1/DTD/svg11.dtd"><svg width="100%" height="100%" viewBox="0 0 600 127" version="1.1" xmlns="http://www.w3.org/2000/svg" xmlns:xlink="http://www.w3.org/1999/xlink" xml:space="preserve" xmlns:serif="http://www.serif.com/" style="fill-rule:evenodd;clip-rule:evenodd;stroke-linejoin:round;stroke-miterlimit:2;"><g id="apple_macintosh"><path d="M88.419,121.312c-6.828,6.627 -14.362,5.594 -21.543,2.469c-7.635,-3.187 -14.614,-3.389 -22.677,0c-10.041,4.334 -15.37,3.074 -21.417,-2.469c-34.141,-35.149 -29.102,-88.692 9.701,-90.707c9.411,0.504 16,5.203 21.543,5.593c8.239,-1.675 16.126,-6.475 24.944,-5.845c10.595,0.856 18.52,5.039 23.811,12.56c-21.795,13.102 -16.63,41.826 3.389,49.889c-4.006,10.52 -9.146,20.913 -17.764,28.598l0.013,-0.088Zm-35.149,-91.085c-1.021,-15.622 11.641,-28.472 26.204,-29.732c2.003,18.015 -16.377,31.496 -26.204,29.732Z" style="fill:#fff;fill-rule:nonzero;"/><g><path d="M187.708,110.288c0,-1.653 1.512,-2.065 5.092,-2.478c4.407,-0.414 4.679,-2.339 4.679,-8.671c0,-14.867 -0.96,-42.121 -1.512,-56.85c-0.138,-2.064 -0.138,-2.754 -0.689,-2.754c-0.55,0 -0.689,0.827 -1.24,2.065c-2.616,6.884 -6.881,20.372 -17.48,54.234c-3.855,12.8 -3.442,15.417 -6.057,15.417c-1.652,0 -2.064,-1.102 -3.442,-6.884c-4.541,-17.067 -15.141,-51.893 -18.583,-62.629c-0.414,-1.239 -0.687,-1.928 -1.378,-1.928c-0.548,0 -0.548,1.102 -0.823,3.028c-0.963,12.937 -1.787,35.101 -1.787,47.077c-0,9.084 -0.141,17.206 4.541,17.894c2.477,0.416 6.057,0.552 6.057,2.479c-0,1.1 -0.825,1.926 -2.756,1.926c-2.751,0 -4.952,-0.552 -10.185,-0.552c-4.817,0 -7.568,0.552 -9.496,0.552c-1.379,0 -2.202,-0.275 -2.202,-1.926c0,-2.063 2.064,-1.79 4.404,-2.34c3.993,-0.826 4.542,-3.994 4.954,-10.739c0.826,-14.727 2.34,-46.937 2.34,-58.362c0.138,-7.433 -0,-8.809 -4.679,-9.498c-2.34,-0.275 -4.542,-0.55 -4.542,-2.202c0,-1.928 1.788,-2.064 3.717,-2.065c2.89,-0 6.744,0.413 9.774,0.413c2.34,-0 5.917,-0.413 8.121,-0.412c1.514,-0 2.064,0.412 2.754,2.477c5.094,16.792 10.188,33.585 15.143,50.241c1.099,3.994 1.926,7.16 2.89,7.16c0.824,-0 1.513,-1.927 2.75,-5.923c5.233,-16.791 10.464,-33.584 15.694,-50.241c0.822,-2.615 1.651,-3.716 3.166,-3.717c2.063,-0 5.505,0.413 8.121,0.413c2.753,-0 6.742,-0.413 9.634,-0.412c1.517,-0 2.891,0.549 2.891,1.926c-0,1.79 -1.788,2.204 -5.782,2.477c-2.477,0.276 -3.165,2.066 -3.165,8.259c0,13.627 1.654,45.836 2.066,62.768c-0,5.094 1.237,7.021 3.991,7.297c3.442,0.824 4.956,1.103 4.956,2.616c-0,1.515 -1.238,1.789 -3.163,1.789c-2.89,0 -6.196,-0.552 -12.526,-0.552c-5.507,0 -10.048,0.552 -13.078,0.552c-1.79,0 -3.165,-0.552 -3.165,-1.789l0,-0.134l-0.005,-0.002Z" style="fill:#fff;fill-rule:nonzero;"/><path d="M253.365,60.873c0,-6.469 -1.516,-9.086 -5.781,-9.086c-6.608,-0 -9.635,4.956 -11.84,11.7c-0.964,2.891 -2.615,5.23 -4.679,6.607c-1.516,1.102 -3.442,1.927 -5.505,1.927c-2.616,-0 -3.58,-1.103 -3.58,-3.579c0,-7.982 11.84,-20.508 28.907,-20.508c5.094,-0 9.086,0.687 11.422,2.753c2.343,1.79 2.894,4.405 2.894,8.672l-0,39.367c-0,3.442 1.099,5.919 3.853,5.919c2.204,-0 3.442,-1.238 4.13,-2.477c0.552,-1.24 1.099,-2.615 1.924,-2.615c0.827,-0 1.103,0.686 1.103,2.339c-0,3.026 -4.679,11.147 -12.666,11.147c-5.781,0 -7.432,-4.679 -8.535,-7.434c-0.414,-1.101 -0.823,-1.926 -1.512,-1.926c-1.103,-0 -3.305,2.617 -6.747,5.095c-3.165,2.478 -7.433,4.679 -12.939,4.679c-6.468,0 -11.563,-4.402 -11.563,-12.388c0,-7.294 5.095,-12.249 16.242,-19.131c4.407,-2.891 7.707,-4.818 10.188,-6.469c3.716,-2.201 4.68,-3.442 4.68,-6.606l-0,-7.985l0.004,-0l0,-0.001Zm-18.723,37.714c-0,5.095 2.893,7.709 6.884,7.709c3.028,-0 5.919,-1.79 8.536,-4.406c2.477,-2.476 3.303,-4.404 3.303,-7.845l0,-14.04c0,-1.653 -0.276,-2.065 -0.964,-2.065c-0.685,-0 -1.375,0.275 -3.165,1.378c-2.89,1.926 -5.644,4.127 -7.984,6.469c-3.853,3.578 -6.608,7.707 -6.608,12.663l-0.002,0.137Z" style="fill:#fff;fill-rule:nonzero;"/><path d="M274.698,82.759c0,-20.097 13.077,-34.825 29.733,-34.825c3.718,-0 8.672,0.687 11.839,2.615c2.89,1.652 3.164,2.201 3.303,5.506l0,4.956c0,1.238 -0.139,3.303 -0.415,4.542c-0.276,2.478 -1.24,3.304 -3.027,3.304c-2.478,0 -3.165,-3.578 -5.781,-9.359c-1.926,-4.544 -3.719,-6.883 -7.707,-6.883c-7.983,-0 -15.005,10.461 -15.005,25.187c0,19.548 7.436,28.22 16.656,28.22c4.96,-0 8.672,-2.065 11.425,-6.057c1.652,-2.478 2.755,-5.917 3.857,-5.917c0.822,-0 1.376,0.824 1.376,1.926c0,6.468 -6.881,17.481 -20.783,17.481c-15.281,0 -25.466,-12.526 -25.466,-30.559l-0.005,-0.137Z" style="fill:#fff;fill-rule:nonzero;"/><path d="M330.447,64.863c-0,-4.403 -0.964,-5.506 -5.232,-6.194c-1.651,-0.276 -2.336,-0.688 -2.336,-1.653c-0,-1.239 1.237,-1.788 4.403,-2.751c4.402,-1.241 8.259,-3.305 11.148,-4.958c1.375,-0.824 2.202,-1.376 2.755,-1.376c0.822,-0 1.098,0.551 1.098,2.064l0,50.795c0,4.681 -0.044,7.033 1.734,7.568c2.432,0.737 3.442,0.827 3.442,2.205c-0,1.237 -0.552,1.653 -2.201,1.653c-2.89,0 -2.836,-0.552 -8.892,-0.552c-6.607,0 -6.415,0.552 -9.028,0.552c-1.101,0 -2.066,-0.552 -2.066,-1.653c0,-1.378 0.965,-1.795 2.757,-2.205c2.189,-0.499 2.421,-1.652 2.421,-7.158l-0.003,-36.337Zm5.919,-25.601c-3.582,-0 -6.883,-2.892 -6.883,-8.122c0,-5.092 3.028,-8.259 7.022,-8.259c3.854,-0 6.881,3.028 6.881,8.121c-0,5.368 -3.027,8.26 -6.881,8.26l-0.139,-0Z" style="fill:#fff;fill-rule:nonzero;"/><path d="M358.525,64.863c0,-4.679 -0.551,-5.23 -3.99,-5.643c-2.477,-0.275 -3.305,-0.414 -3.305,-1.515c0,-1.377 1.376,-1.652 4.266,-2.615c4.955,-1.79 8.811,-3.992 10.874,-5.644c1.24,-0.963 1.929,-1.514 2.62,-1.514c0.822,-0 1.1,1.101 1.1,2.339l-0,5.507c-0,1.927 0.137,2.34 0.551,2.34c1.241,-0 3.441,-2.34 6.466,-4.679c3.168,-2.34 7.436,-4.818 12.526,-4.818c4.68,0 9.086,1.515 12.248,4.818c2.893,3.028 4.545,7.434 4.545,13.213l-0,35.101c-0,4.818 1.221,6.333 4.391,6.744c-0,-0 2.038,0.688 2.038,2.065c-0,1.238 -0.965,1.654 -2.479,1.654c-1.654,0 -3.536,-0.552 -10.005,-0.552c-6.193,0 -6.856,0.552 -9.056,0.552c-1.518,0 -2.202,-0.414 -2.202,-1.79c-0,-0.962 0.983,-1.434 2.34,-1.79c1.27,-0.331 3.137,-1.787 3.137,-5.642l-0,-34.963c-0,-3.305 -0.685,-6.196 -2.34,-8.399c-1.925,-2.476 -4.818,-3.854 -8.259,-3.854c-3.582,0 -7.019,1.378 -9.635,3.718c-2.478,2.339 -3.857,5.093 -3.857,8.396l0,35.101c0,3.578 0.67,5.061 3.994,5.642c0.582,0.102 1.216,0.398 1.216,1.635c0,1.377 -0.964,1.788 -2.066,1.788c-1.652,0 -1.215,-0.397 -9.334,-0.397c-7.022,0 -7.132,0.552 -9.334,0.552c-1.652,0 -2.617,-0.552 -2.617,-1.79c0,-1.238 1.107,-1.889 2.48,-2.065c2.979,-0.375 3.686,-2.201 3.686,-7.707l0,-35.788l0.001,0Z" style="fill:#fff;fill-rule:nonzero;"/><path d="M431.45,98.314c0,5.365 1.516,7.704 4.82,7.704c2.616,0 4.266,-1.788 5.367,-3.44c1.239,-1.654 2.064,-3.305 3.166,-3.305c0.822,0 1.376,0.414 1.376,1.378c-0,2.064 -3.719,12.802 -14.454,12.802c-3.99,0 -7.018,-1.1 -9.081,-3.303c-2.201,-2.478 -3.027,-5.782 -3.027,-11.012l-0,-42.396c-0,-1.515 -0.689,-2.066 -1.655,-2.203c-0.961,-0.138 -2.202,-0.138 -3.301,-0.138c-1.241,-0 -2.343,-0.137 -2.343,-1.653c-0,-0.963 0.826,-1.926 2.619,-3.578c4.265,-3.305 7.846,-7.02 12.525,-15.279c1.24,-2.339 1.652,-3.166 2.616,-3.166c0.96,-0 1.375,0.551 1.375,2.89l0,13.077c0,2.066 0.688,2.891 2.758,2.891l7.433,-0c2.339,-0 2.89,0.55 2.89,2.478c0,2.203 -0.552,2.89 -3.166,2.89c-2.339,0 -4.816,-0.139 -7.156,-0.139c-2.205,0 -2.758,0.552 -2.758,3.028l-0.004,40.474Z" style="fill:#fff;fill-rule:nonzero;"/><path d="M472.059,113.453c-15.967,0 -26.983,-14.866 -26.983,-32.762c0,-17.62 10.6,-32.76 27.117,-32.76c16.793,-0 27.117,15.279 27.117,32.623c0,18.031 -11.011,32.898 -27.117,32.898l-0.134,0l-0,0.001Zm0.548,-3.853c9.5,0 13.903,-14.452 13.903,-27.53c0,-15.28 -4.818,-30.282 -14.59,-30.282c-9.497,-0 -14.038,13.765 -14.038,27.531c-0,15.277 4.955,30.282 14.588,30.282l0.137,0l0,-0.001Z" style="fill:#fff;fill-rule:nonzero;"/><path d="M500.402,65.414c0,-11.562 10.048,-17.48 21.886,-17.48c4.403,-0 9.363,0.824 11.979,2.202c0.684,0.413 0.964,1.376 1.099,3.303c0.139,1.239 0.139,2.753 0.139,4.819l-0,3.578c-0.139,2.203 -0.412,3.442 -1.654,3.442c-1.787,0 -2.062,-2.616 -4.267,-7.297c-1.652,-3.578 -3.992,-6.332 -8.395,-6.332c-5.369,-0 -9.641,3.717 -9.641,8.81c0,6.605 6.609,9.773 13.493,13.763c6.744,3.993 13.764,8.809 13.764,18.722c-0,13.35 -10.738,20.508 -23.675,20.508c-4.131,0 -8.121,-0.687 -10.877,-1.652c-0.962,-0.276 -1.925,-0.551 -2.618,-1.103c-0.684,-0.413 -1.237,-1.1 -1.375,-3.854c-0.137,-1.927 -0.137,-4.541 -0.137,-8.122c-0,-5.506 0.41,-7.018 1.787,-7.018c1.928,-0 2.062,2.202 4.13,7.983c2.063,5.368 5.229,9.91 10.877,9.91c6.194,0 10.598,-4.128 10.598,-10.324c-0,-8.121 -6.47,-11.702 -12.803,-15.556c-6.881,-3.856 -14.316,-8.259 -14.316,-18.17l-0,-0.137l0.005,-0l0,0.005l0.001,-0Z" style="fill:#fff;fill-rule:nonzero;"/><path d="M544.116,29.901c0,-3.992 -0.55,-4.955 -4.266,-5.369c-2.339,-0.552 -3.165,-0.688 -3.165,-1.927c0,-1.377 0.965,-1.515 3.858,-2.34c5.505,-1.652 8.947,-2.89 11.149,-4.129c1.787,-0.828 2.615,-1.24 3.442,-1.24c0.821,0 0.958,0.55 0.958,2.478l0,39.093c0,0.825 0.279,1.238 0.827,1.238c0.552,-0 1.237,-0.414 1.788,-0.964c3.442,-3.164 8.808,-8.121 16.791,-8.121c10.323,-0 16.38,7.019 16.656,17.894l0,35.237c0,4.682 1.243,6.469 4.545,6.882c2.202,0.277 3.301,0.689 3.301,1.928c-0,1.239 -0.962,1.653 -2.063,1.653c-1.238,0 -5.368,-0.552 -11.421,-0.552c-6.609,0 -9.086,0.552 -11.015,0.552c-1.513,0 -2.339,-0.552 -2.339,-1.789c-0,-1.237 0.963,-1.515 2.477,-1.789c3.442,-0.55 4.544,-1.787 4.544,-5.642l0,-34.963c0,-3.442 -0.551,-6.469 -2.2,-8.535c-1.928,-2.615 -4.821,-3.856 -8.54,-3.856c-3.576,-0 -7.018,1.378 -9.633,3.717c-2.48,2.341 -3.721,5.095 -3.721,8.537l0,34.688c0,3.576 1.241,5.367 5.369,6.054c2.066,0.418 2.614,0.689 2.614,1.928c0,1.239 -0.96,1.654 -2.062,1.654c-1.652,0 -3.719,-0.551 -12.113,-0.551c-6.744,-0 -8.945,0.551 -11.288,0.551c-1.237,0 -2.201,-0.415 -2.201,-1.79c0,-1.238 1.241,-1.925 2.616,-2.064c4.403,-0.413 5.094,-2.064 5.094,-7.707l-0.002,-70.756Z" style="fill:#fff;fill-rule:nonzero;"/></g></g></svg>