<svg clip-rule="evenodd" fill-rule="evenodd" stroke-linejoin="round" stroke-miterlimit="2" viewBox="0 0 600 178" xmlns="http://www.w3.org/2000/svg"><g fill="#fff" fill-rule="nonzero"><path d="m124.084 170.184c-9.582 9.3-20.155 7.85-30.233 3.466-10.714-4.473-20.508-4.756-31.823 0-14.091 6.081-21.57 4.313-30.056-3.466-47.913-49.327-40.841-124.466 13.613-127.295 13.207.707 22.454 7.302 30.233 7.85 11.563-2.352 22.63-9.088 35.006-8.204 14.869 1.202 25.99 7.072 33.415 17.627-30.586 18.387-23.337 58.697 4.756 70.013-5.622 14.762-12.835 29.348-24.929 40.133zm-49.327-127.826c-1.432-21.923 16.336-39.956 36.774-41.724 2.812 25.282-22.984 44.2-36.774 41.724z"/><path d="m193.169 144.258h15.953v-41.58c0-8.2 5.381-14.158 13.069-14.158 7.432 0 12.045 4.677 12.045 12.236v43.5h15.504v-41.963c0-8.136 5.253-13.774 12.941-13.774 7.816 0 12.172 4.741 12.172 13.07v42.668h15.953v-46.575c0-13.582-8.777-22.615-22.167-22.615-9.803 0-17.874 5.253-21.143 13.646h-.384c-2.499-8.713-9.354-13.646-18.963-13.646-9.225 0-16.401 5.189-19.348 13.069h-.32v-11.788h-15.312zm132.555-10.955c-6.919 0-11.531-3.524-11.531-9.098 0-5.381 4.42-8.841 12.108-9.353l15.696-.961v5.189c0 8.2-7.239 14.223-16.273 14.223zm-4.805 12.044c8.713 0 17.234-4.549 21.143-11.916h.32v10.827h15.376v-46.769c0-13.646-10.955-22.551-27.804-22.551-17.298 0-28.125 9.098-28.83 21.782h14.799c1.025-5.638 5.83-9.289 13.39-9.289 7.88 0 12.685 4.1 12.685 11.211v4.869l-17.939 1.025c-16.529 1.025-25.818 8.265-25.818 20.309 0 12.237 9.545 20.501 22.679 20.501zm106.865-44.783c-1.089-14.286-12.172-25.626-30.11-25.626-19.732 0-32.546 13.646-32.546 35.364 0 22.039 12.813 35.299 32.674 35.299 17.042 0 28.765-9.994 30.046-25.178h-15.055c-1.474 7.688-6.727 12.3-14.799 12.3-10.123 0-16.657-8.2-16.657-22.423 0-13.966 6.47-22.423 16.529-22.423 8.52 0 13.581 5.445 14.863 12.685h15.055zm49.27-50.291c-26.971 0-43.885 18.387-43.885 47.794 0 29.406 16.912 47.729 43.885 47.729 26.907 0 43.822-18.323 43.822-47.729 0-29.407-16.913-47.794-43.822-47.794zm0 14.094c16.465 0 26.971 13.07 26.971 33.699 0 20.565-10.506 33.635-26.971 33.635-16.529 0-26.971-13.069-26.971-33.635 0-20.629 10.443-33.699 26.971-33.699zm50.551 53.881c.705 17.042 14.671 27.548 35.941 27.548 22.359 0 36.454-11.019 36.454-28.573 0-13.775-7.944-21.527-26.715-25.819l-10.635-2.434c-11.34-2.691-16.017-6.279-16.017-12.429 0-7.688 7.047-12.813 17.49-12.813 10.571 0 17.81 5.189 18.579 13.838h15.76c-.384-16.273-13.838-27.293-34.21-27.293-20.118 0-34.404 11.084-34.404 27.485 0 13.198 8.072 21.398 25.113 25.306l11.98 2.819c11.66 2.755 16.401 6.599 16.401 13.262 0 7.688-7.752 13.198-18.899 13.198-11.276 0-19.796-5.574-20.821-14.095h-16.016z"/></g></svg>