<svg clip-rule="evenodd" fill-rule="evenodd" stroke-linejoin="round" stroke-miterlimit="2" viewBox="0 0 600 177" xmlns="http://www.w3.org/2000/svg"><g fill="#fff" fill-rule="nonzero"><path d="m124.084 169.742c-9.582 9.299-20.155 7.85-30.233 3.465-10.714-4.473-20.508-4.756-31.823 0-14.091 6.082-21.57 4.314-30.056-3.465-47.913-49.327-40.841-124.467 13.613-127.296 13.207.707 22.454 7.302 30.233 7.85 11.563-2.351 22.63-9.087 35.006-8.203 14.869 1.202 25.99 7.072 33.415 17.627-30.586 18.387-23.337 58.697 4.756 70.012-5.622 14.763-12.835 29.349-24.929 40.134zm-49.327-127.826c-1.432-21.923 16.336-39.957 36.774-41.725 2.812 25.282-22.984 44.2-36.774 41.725z"/><path d="m193.169 143.815h15.953v-41.579c0-8.201 5.381-14.159 13.069-14.159 7.432 0 12.045 4.677 12.045 12.237v43.5h15.504v-41.963c0-8.137 5.253-13.774 12.941-13.774 7.816 0 12.172 4.74 12.172 13.069v42.669h15.953v-46.576c0-13.582-8.777-22.615-22.167-22.615-9.803 0-17.874 5.254-21.143 13.646h-.384c-2.499-8.713-9.354-13.646-18.963-13.646-9.225 0-16.401 5.19-19.348 13.07h-.32v-11.788h-15.312zm132.555-10.955c-6.919 0-11.531-3.523-11.531-9.097 0-5.382 4.42-8.841 12.108-9.354l15.696-.961v5.19c0 8.2-7.239 14.222-16.273 14.222zm-4.805 12.045c8.713 0 17.234-4.549 21.143-11.917h.32v10.828h15.376v-46.769c0-13.646-10.955-22.551-27.804-22.551-17.298 0-28.125 9.097-28.83 21.782h14.799c1.025-5.638 5.83-9.29 13.39-9.29 7.88 0 12.685 4.1 12.685 11.211v4.87l-17.939 1.025c-16.529 1.025-25.818 8.264-25.818 20.309 0 12.236 9.545 20.501 22.679 20.501zm106.865-44.783c-1.089-14.287-12.172-25.626-30.11-25.626-19.732 0-32.546 13.646-32.546 35.363 0 22.04 12.813 35.3 32.674 35.3 17.042 0 28.765-9.995 30.046-25.179h-15.055c-1.474 7.688-6.727 12.301-14.799 12.301-10.123 0-16.657-8.201-16.657-22.423 0-13.967 6.47-22.424 16.529-22.424 8.52 0 13.581 5.446 14.863 12.685h15.055zm49.27-50.292c-26.971 0-43.885 18.387-43.885 47.794s16.912 47.73 43.885 47.73c26.907 0 43.822-18.323 43.822-47.73s-16.913-47.794-43.822-47.794zm0 14.095c16.465 0 26.971 13.069 26.971 33.699 0 20.565-10.506 33.635-26.971 33.635-16.529 0-26.971-13.07-26.971-33.635 0-20.629 10.443-33.699 26.971-33.699zm50.551 53.88c.705 17.042 14.671 27.549 35.941 27.549 22.359 0 36.454-11.02 36.454-28.574 0-13.774-7.944-21.526-26.715-25.818l-10.635-2.435c-11.34-2.691-16.017-6.278-16.017-12.429 0-7.687 7.047-12.813 17.49-12.813 10.571 0 17.81 5.19 18.579 13.839h15.76c-.384-16.273-13.838-27.293-34.21-27.293-20.118 0-34.404 11.083-34.404 27.484 0 13.198 8.072 21.399 25.113 25.307l11.98 2.819c11.66 2.755 16.401 6.599 16.401 13.262 0 7.687-7.752 13.197-18.899 13.197-11.276 0-19.796-5.574-20.821-14.094h-16.016z"/></g></svg>