<svg clip-rule="evenodd" fill-rule="evenodd" stroke-linejoin="round" stroke-miterlimit="2" viewBox="0 0 600 170" xmlns="http://www.w3.org/2000/svg"><g fill="#fff"><path d="m510.379.298h-420.758c-53.612-.126-89.621 38.418-89.621 84.627 0 46.2 35.922 84.299 89.699 84.318h420.602c53.767-.019 89.699-38.118 89.699-84.318 0-46.209-36.019-84.753-89.621-84.627zm-.242 148.236h-420.274c-42.735.145-68.708-28.538-68.708-63.725 0-35.196 26.138-63.647 68.708-63.725h420.274c42.57.078 68.699 28.529 68.699 63.725 0 35.187-25.964 63.87-68.699 63.725z"/><g fill-rule="nonzero"><path d="m84.817 126.345c-1.154-58.14 12.341-86.091 40.484-83.854 29.298-2.482 42.967 25.504 41.01 83.959l-28.109-.053-.105-29.105h-25.434l-.053 29.053zm40.484-76.512c-8.81-.734-12.97 11.694-12.481 37.286h25.801c.455-25.067-3.985-37.496-13.32-37.286z"/><path d="m196.936 75.477c2.657-3.776 6.625-6.223 11.905-7.342 16.256-1.364 24.367 4.615 24.332 17.935h-18.879c.14-6.013-3.583-8.898-11.17-8.653-4.125.909-6.205 2.954-6.24 6.136v42.739h-25.539v-57.842h23.022-4.982 7.604z"/><path d="m235.026 95.562c2.587-18.46 13.512-28.126 32.775-29 5.175.174 9.711.699 13.609 1.573s7.176 2.29 9.833 4.248c2.657 1.957 4.702 4.536 6.135 7.735 1.434 3.199 2.273 7.193 2.518 11.983h-22.288c.035-2.133-.131-4.231-.498-6.293-.367-2.063-.953-3.907-1.757-5.533s-1.835-2.937-3.094-3.933-2.744-1.495-4.458-1.495c-1.643 0-3.05.63-4.221 1.888-1.171 1.259-2.133 2.902-2.884 4.93-.752 2.028-1.285 4.317-1.6 6.87-.314 2.552-.437 5.104-.367 7.656-.07 3.181.018 6.144.262 8.889.245 2.744.734 5.13 1.469 7.158.734 2.028 1.748 3.627 3.041 4.799 1.294 1.171 2.937 1.774 4.93 1.809 1.853.035 3.426-.35 4.719-1.154 1.294-.804 2.308-1.879 3.042-3.225s1.215-2.876 1.442-4.589.219-3.443-.026-5.191h22.288-4.563 4.563c-.77 3.146-1.766 5.873-2.99 8.18-1.223 2.308-2.657 4.274-4.3 5.9s-3.505 2.946-5.585 3.959c-2.08 1.014-4.379 1.783-6.896 2.308-9.964 2.132-19.316 1.503-28.056-1.888-8.705-3.426-14.369-11.257-16.991-23.494l-.052-4.09z"/><path d="m350.816 67.401 24.595.052v58.944h-24.647l-.053-1.992c-1.922 1.503-7.778 2.08-17.568 1.73-9.998-.21-17.34-3.391-22.025-9.544-4.685-6.188-6.73-12.901-6.136-20.138.105-6.642 1.976-12.673 5.612-18.092s10.593-9.422 20.871-12.009c9.754-.664 16.205.332 19.351 2.989zm-9.177 5.558c-6.573.28-9.981 5.367-10.226 15.261v15.837c.524 9.719 4.003 14.806 10.436 15.261 6.293-.665 9.387-3.479 9.282-8.443v-27.637c.489-6.258-2.675-9.684-9.492-10.279z"/><path d="m426.122 39.869h24.595-4.929 4.929v86.528h-24.647l-.053-1.992c-1.923 1.503-7.779 2.08-17.568 1.73-9.998-.21-17.34-3.391-22.025-9.544-4.685-6.188-6.73-12.901-6.136-20.138.105-6.642 1.976-12.673 5.612-18.092s10.593-9.422 20.871-12.009c9.754-.664 16.205.332 19.351 2.989zm-9.177 33.09c-6.573.28-9.981 5.367-10.226 15.261v15.837c.524 9.719 4.003 14.806 10.436 15.261 6.293-.665 9.387-3.479 9.282-8.443v-27.637c.489-6.258-2.675-9.684-9.492-10.279z"/><path d="m455.384 95.562c2.588-18.46 13.513-28.126 32.776-29 20.662.629 31.483 10.505 32.462 29.629h-41.534c-.315 12.691 1.224 19.875 4.615 21.553 3.391 1.644 6.747 1.434 10.069-.629 3.391-2.063 4.737-6.765 4.038-14.107h22.287-4.562 4.562c-3.111 12.551-9.649 19.893-19.613 22.026-9.964 2.132-19.316 1.503-28.056-1.888-8.705-3.426-14.369-11.257-16.991-23.494zm33.091-22.603c-6.083.315-9.212 5.017-9.387 14.107h18.197c-.07-8.67-3.006-13.372-8.81-14.107z"/></g></g></svg>