<?xml version="1.0" encoding="UTF-8" standalone="no"?><!DOCTYPE svg PUBLIC "-//W3C//DTD SVG 1.1//EN" "http://www.w3.org/Graphics/SVG/1.1/DTD/svg11.dtd"><svg width="100%" height="100%" viewBox="0 0 600 209" version="1.1" xmlns="http://www.w3.org/2000/svg" xmlns:xlink="http://www.w3.org/1999/xlink" xml:space="preserve" xmlns:serif="http://www.serif.com/" style="fill-rule:evenodd;clip-rule:evenodd;stroke-linejoin:round;stroke-miterlimit:2;"><g id="arcade_hacks_bold"><g id="arcade_bold"><path d="M51.607,77.754c12.522,-0 19.797,8.968 19.797,19.628c0,10.998 -7.275,19.458 -19.797,19.458c-12.521,0 -19.797,-8.46 -19.797,-19.458c0,-10.66 7.276,-19.628 19.797,-19.628Zm49.577,-23.858l-30.795,0l0,8.46c-6.43,-7.614 -16.92,-11.336 -26.903,-11.336c-25.72,-0 -43.486,21.319 -43.486,46.192c0,24.874 18.105,46.363 43.824,46.363c10.152,-0 20.812,-3.892 26.227,-12.522l0.338,0l0,9.645l30.795,0l0,-86.802Z" style="fill:#fff;fill-rule:nonzero;"/><path d="M152.453,53.896l-30.795,0l0,86.802l30.795,0l0,-35.025c0,-14.89 4.231,-26.227 21.32,-26.227c4.738,-0 8.799,0.508 13.029,2.876l0,-29.61l-5.922,-0c-12.014,-0 -22.166,4.737 -28.088,15.397l-0.339,0l0,-14.213Z" style="fill:#fff;fill-rule:nonzero;"/><path d="M260.914,56.096c-6.092,-3.384 -13.198,-5.076 -20.305,-5.076c-27.242,-0 -48.562,19.289 -48.562,47.208c0,26.226 21.489,45.347 47.208,45.347c7.446,-0 14.891,-1.523 21.659,-4.907l-0,-26.058c-4.061,3.723 -9.983,5.922 -15.398,5.922c-12.69,0 -21.658,-8.798 -21.658,-21.32c-0,-12.013 9.306,-21.15 21.15,-21.15c5.923,-0 11.337,2.707 15.906,6.091l-0,-26.057Z" style="fill:#fff;fill-rule:nonzero;"/><path d="M325.381,77.754c12.521,-0 19.797,8.968 19.797,19.628c-0,10.998 -7.276,19.458 -19.797,19.458c-12.521,0 -19.797,-8.46 -19.797,-19.458c-0,-10.66 7.276,-19.628 19.797,-19.628Zm49.577,-23.858l-30.796,0l0,8.46c-6.429,-7.614 -16.92,-11.336 -26.903,-11.336c-25.719,-0 -43.486,21.319 -43.486,46.192c0,24.874 18.105,46.363 43.824,46.363c10.153,-0 20.812,-3.892 26.227,-12.522l0.338,0l0,9.645l30.796,0l-0,-86.802Z" style="fill:#fff;fill-rule:nonzero;"/><path d="M460.745,140.698l30.795,0l-0,-140.44l-30.795,0l-0,62.098c-6.43,-7.614 -16.921,-11.336 -26.904,-11.336c-25.719,-0 -43.486,21.319 -43.486,46.192c0,24.874 18.105,46.363 43.824,46.363c10.153,-0 20.813,-3.892 26.227,-12.522l0.339,0l-0,9.645Zm-18.782,-62.944c12.521,-0 19.797,8.968 19.797,19.628c-0,10.998 -7.276,19.458 -19.797,19.458c-12.521,0 -19.797,-8.46 -19.797,-19.458c-0,-10.66 7.276,-19.628 19.797,-19.628Z" style="fill:#fff;fill-rule:nonzero;"/><path d="M535.702,84.691c1.861,-8.968 9.306,-13.705 18.274,-13.705c8.291,-0 15.906,5.414 17.428,13.705l-35.702,0Zm64.298,14.552c0,-29.611 -17.428,-48.223 -47.547,-48.223c-28.257,-0 -48.054,17.428 -48.054,46.362c0,29.949 21.489,46.193 50.254,46.193c9.983,-0 19.797,-2.369 27.75,-7.276c7.952,-4.907 14.044,-12.352 16.413,-22.505l-29.611,0c-3.384,5.753 -8.122,7.953 -14.721,7.953c-12.69,0 -19.289,-6.768 -19.289,-19.289l64.805,-0l0,-3.215Z" style="fill:#fff;fill-rule:nonzero;"/></g><g id="playlist_hacks"><path d="M142.135,167.845l14.271,0c0.694,0 1.041,-1.021 1.041,-3.062c0,-2.042 -0.347,-3.063 -1.041,-3.063l-14.271,0c-0.653,0 -0.98,1.021 -0.98,3.063c0,2.041 0.327,3.062 0.98,3.062Zm0,8.146l14.271,-0c0.694,-0 1.041,-1.021 1.041,-3.062c0,-2.042 -0.347,-3.063 -1.041,-3.063l-14.271,0c-0.653,0 -0.98,1.021 -0.98,3.063c0,2.041 0.327,3.062 0.98,3.062Zm0,16.292l14.271,-0c0.694,-0 1.041,-1.021 1.041,-3.063c0,-2.041 -0.347,-3.062 -1.041,-3.062l-14.271,0c-0.653,0 -0.98,1.021 -0.98,3.062c0,2.042 0.327,3.063 0.98,3.063Zm0,-8.146l55,-0c0.694,-0 1.042,-1.021 1.042,-3.062c-0,-2.042 -0.348,-3.063 -1.042,-3.063l-55,0c-0.653,0 -0.98,1.021 -0.98,3.063c0,2.041 0.327,3.062 0.98,3.062Zm0,16.292l14.271,-0c0.694,-0 1.041,-1.021 1.041,-3.063c0,-2.041 -0.347,-3.062 -1.041,-3.062l-14.271,-0c-0.653,-0 -0.98,1.021 -0.98,3.062c0,2.042 0.327,3.063 0.98,3.063Zm0,-40.73l14.271,0c0.694,0 1.041,-1.021 1.041,-3.062c0,-2.042 -0.347,-3.062 -1.041,-3.062l-14.271,-0c-0.653,-0 -0.98,1.02 -0.98,3.062c0,2.041 0.327,3.062 0.98,3.062Zm0,48.876l14.271,-0c0.694,-0 1.041,-1.021 1.041,-3.063c0,-2.041 -0.347,-3.062 -1.041,-3.062l-14.271,-0c-0.653,-0 -0.98,1.021 -0.98,3.062c0,2.042 0.327,3.063 0.98,3.063Zm40.73,-40.73l14.27,0c0.694,0 1.042,-1.021 1.042,-3.062c-0,-2.042 -0.348,-3.063 -1.042,-3.063l-14.27,0c-0.654,0 -0.98,1.021 -0.98,3.063c-0,2.041 0.326,3.062 0.98,3.062Zm-0,8.146l14.27,-0c0.694,-0 1.042,-1.021 1.042,-3.062c-0,-2.042 -0.348,-3.063 -1.042,-3.063l-14.27,0c-0.654,0 -0.98,1.021 -0.98,3.063c-0,2.041 0.326,3.062 0.98,3.062Zm-0,16.292l14.27,-0c0.694,-0 1.042,-1.021 1.042,-3.063c-0,-2.041 -0.348,-3.062 -1.042,-3.062l-14.27,0c-0.654,0 -0.98,1.021 -0.98,3.062c-0,2.042 0.326,3.063 0.98,3.063Zm-0,8.146l14.27,-0c0.694,-0 1.042,-1.021 1.042,-3.063c-0,-2.041 -0.348,-3.062 -1.042,-3.062l-14.27,-0c-0.654,-0 -0.98,1.021 -0.98,3.062c-0,2.042 0.326,3.063 0.98,3.063Zm-0,-40.73l14.27,0c0.694,0 1.042,-1.021 1.042,-3.062c-0,-2.042 -0.348,-3.062 -1.042,-3.062l-14.27,-0c-0.654,-0 -0.98,1.02 -0.98,3.062c-0,2.041 0.326,3.062 0.98,3.062Zm-0,48.876l14.27,-0c0.694,-0 1.042,-1.021 1.042,-3.063c-0,-2.041 -0.348,-3.062 -1.042,-3.062l-14.27,-0c-0.654,-0 -0.98,1.021 -0.98,3.062c-0,2.042 0.326,3.063 0.98,3.063Z" style="fill:#fff;fill-rule:nonzero;"/><path d="M215.448,167.845l14.271,0c0.694,0 1.041,-1.021 1.041,-3.062c0,-2.042 -0.347,-3.063 -1.041,-3.063l-14.271,0c-0.653,0 -0.98,1.021 -0.98,3.063c0,2.041 0.327,3.062 0.98,3.062Zm24.438,0l14.27,0c0.695,0 1.042,-1.021 1.042,-3.062c-0,-2.042 -0.347,-3.063 -1.042,-3.063l-14.27,0c-0.653,0 -0.98,1.021 -0.98,3.063c-0,2.041 0.327,3.062 0.98,3.062Zm-16.292,-8.146l22.417,0c0.694,0 1.041,-1.021 1.041,-3.062c-0,-2.042 -0.347,-3.062 -1.041,-3.062l-22.417,-0c-0.653,-0 -0.98,1.02 -0.98,3.062c0,2.041 0.327,3.062 0.98,3.062Zm-16.292,16.292l14.271,-0c0.694,-0 1.041,-1.021 1.041,-3.062c0,-2.042 -0.347,-3.063 -1.041,-3.063l-14.271,0c-0.653,0 -0.98,1.021 -0.98,3.063c0,2.041 0.327,3.062 0.98,3.062Zm40.73,-0l14.27,-0c0.694,-0 1.042,-1.021 1.042,-3.062c-0,-2.042 -0.348,-3.063 -1.042,-3.063l-14.27,0c-0.654,0 -0.98,1.021 -0.98,3.063c-0,2.041 0.326,3.062 0.98,3.062Zm-40.73,8.146l14.271,-0c0.694,-0 1.041,-1.021 1.041,-3.062c0,-2.042 -0.347,-3.063 -1.041,-3.063l-14.271,0c-0.653,0 -0.98,1.021 -0.98,3.063c0,2.041 0.327,3.062 0.98,3.062Zm40.73,-0l14.27,-0c0.694,-0 1.042,-1.021 1.042,-3.062c-0,-2.042 -0.348,-3.063 -1.042,-3.063l-14.27,0c-0.654,0 -0.98,1.021 -0.98,3.063c-0,2.041 0.326,3.062 0.98,3.062Zm-40.73,8.146l55,-0c0.694,-0 1.042,-1.021 1.042,-3.063c-0,-2.041 -0.348,-3.062 -1.042,-3.062l-55,0c-0.653,0 -0.98,1.021 -0.98,3.062c0,2.042 0.327,3.063 0.98,3.063Zm0,8.146l14.271,-0c0.694,-0 1.041,-1.021 1.041,-3.063c0,-2.041 -0.347,-3.062 -1.041,-3.062l-14.271,-0c-0.653,-0 -0.98,1.021 -0.98,3.062c0,2.042 0.327,3.063 0.98,3.063Zm40.73,-0l14.27,-0c0.694,-0 1.042,-1.021 1.042,-3.063c-0,-2.041 -0.348,-3.062 -1.042,-3.062l-14.27,-0c-0.654,-0 -0.98,1.021 -0.98,3.062c-0,2.042 0.326,3.063 0.98,3.063Zm-40.73,8.146l14.271,-0c0.694,-0 1.041,-1.021 1.041,-3.063c0,-2.041 -0.347,-3.062 -1.041,-3.062l-14.271,-0c-0.653,-0 -0.98,1.021 -0.98,3.062c0,2.042 0.327,3.063 0.98,3.063Zm40.73,-0l14.27,-0c0.694,-0 1.042,-1.021 1.042,-3.063c-0,-2.041 -0.348,-3.062 -1.042,-3.062l-14.27,-0c-0.654,-0 -0.98,1.021 -0.98,3.062c-0,2.042 0.326,3.063 0.98,3.063Z" style="fill:#fff;fill-rule:nonzero;"/><path d="M280.615,167.845l14.271,0c0.694,0 1.041,-1.021 1.041,-3.062c0,-2.042 -0.347,-3.063 -1.041,-3.063l-14.271,0c-0.653,0 -0.98,1.021 -0.98,3.063c0,2.041 0.327,3.062 0.98,3.062Zm32.584,0l14.27,0c0.695,0 1.042,-1.021 1.042,-3.062c-0,-2.042 -0.347,-3.063 -1.042,-3.063l-14.27,0c-0.654,0 -0.98,1.021 -0.98,3.063c-0,2.041 0.326,3.062 0.98,3.062Zm-24.438,-8.146l30.562,0c0.695,0 1.042,-1.021 1.042,-3.062c-0,-2.042 -0.347,-3.062 -1.042,-3.062l-30.562,-0c-0.653,-0 -0.98,1.02 -0.98,3.062c0,2.041 0.327,3.062 0.98,3.062Zm-16.292,16.292l14.271,-0c0.694,-0 1.041,-1.021 1.041,-3.062c0,-2.042 -0.347,-3.063 -1.041,-3.063l-14.271,0c-0.653,0 -0.98,1.021 -0.98,3.063c0,2.041 0.327,3.062 0.98,3.062Zm0,16.292l14.271,-0c0.694,-0 1.041,-1.021 1.041,-3.063c0,-2.041 -0.347,-3.062 -1.041,-3.062l-14.271,0c-0.653,0 -0.98,1.021 -0.98,3.062c0,2.042 0.327,3.063 0.98,3.063Zm0,-8.146l14.271,-0c0.694,-0 1.041,-1.021 1.041,-3.062c0,-2.042 -0.347,-3.063 -1.041,-3.063l-14.271,0c-0.653,0 -0.98,1.021 -0.98,3.063c0,2.041 0.327,3.062 0.98,3.062Zm8.146,16.292l14.271,-0c0.694,-0 1.041,-1.021 1.041,-3.063c0,-2.041 -0.347,-3.062 -1.041,-3.062l-14.271,-0c-0.653,-0 -0.98,1.021 -0.98,3.062c0,2.042 0.327,3.063 0.98,3.063Zm32.584,-0l14.27,-0c0.695,-0 1.042,-1.021 1.042,-3.063c-0,-2.041 -0.347,-3.062 -1.042,-3.062l-14.27,-0c-0.654,-0 -0.98,1.021 -0.98,3.062c-0,2.042 0.326,3.063 0.98,3.063Zm-24.438,8.146l30.562,-0c0.695,-0 1.042,-1.021 1.042,-3.063c-0,-2.041 -0.347,-3.062 -1.042,-3.062l-30.562,-0c-0.653,-0 -0.98,1.021 -0.98,3.062c0,2.042 0.327,3.063 0.98,3.063Z" style="fill:#fff;fill-rule:nonzero;"/><path d="M337.636,167.845l14.271,0c0.694,0 1.041,-1.021 1.041,-3.062c0,-2.042 -0.347,-3.063 -1.041,-3.063l-14.271,0c-0.653,0 -0.98,1.021 -0.98,3.063c0,2.041 0.327,3.062 0.98,3.062Zm0,8.146l14.271,-0c0.694,-0 1.041,-1.021 1.041,-3.062c0,-2.042 -0.347,-3.063 -1.041,-3.063l-14.271,0c-0.653,0 -0.98,1.021 -0.98,3.063c0,2.041 0.327,3.062 0.98,3.062Zm0,16.292l38.709,-0c0.694,-0 1.041,-1.021 1.041,-3.063c-0,-2.041 -0.347,-3.062 -1.041,-3.062l-38.709,0c-0.653,0 -0.98,1.021 -0.98,3.062c0,2.042 0.327,3.063 0.98,3.063Zm0,-8.146l30.563,-0c0.694,-0 1.041,-1.021 1.041,-3.062c-0,-2.042 -0.347,-3.063 -1.041,-3.063l-30.563,0c-0.653,0 -0.98,1.021 -0.98,3.063c0,2.041 0.327,3.062 0.98,3.062Zm0,16.292l14.271,-0c0.694,-0 1.041,-1.021 1.041,-3.063c0,-2.041 -0.347,-3.062 -1.041,-3.062l-14.271,-0c-0.653,-0 -0.98,1.021 -0.98,3.062c0,2.042 0.327,3.063 0.98,3.063Zm0,8.146l14.271,-0c0.694,-0 1.041,-1.021 1.041,-3.063c0,-2.041 -0.347,-3.062 -1.041,-3.062l-14.271,-0c-0.653,-0 -0.98,1.021 -0.98,3.062c0,2.042 0.327,3.063 0.98,3.063Zm0,-48.876l14.271,0c0.694,0 1.041,-1.021 1.041,-3.062c0,-2.042 -0.347,-3.062 -1.041,-3.062l-14.271,-0c-0.653,-0 -0.98,1.02 -0.98,3.062c0,2.041 0.327,3.062 0.98,3.062Zm32.584,8.146l14.271,0c0.694,0 1.041,-1.021 1.041,-3.062c-0,-2.042 -0.347,-3.063 -1.041,-3.063l-14.271,0c-0.653,0 -0.98,1.021 -0.98,3.063c-0,2.041 0.327,3.062 0.98,3.062Zm-8.146,8.146l14.271,-0c0.694,-0 1.041,-1.021 1.041,-3.062c-0,-2.042 -0.347,-3.063 -1.041,-3.063l-14.271,0c-0.653,0 -0.98,1.021 -0.98,3.063c0,2.041 0.327,3.062 0.98,3.062Zm16.292,-16.292l14.27,0c0.695,0 1.042,-1.021 1.042,-3.062c-0,-2.042 -0.347,-3.062 -1.042,-3.062l-14.27,-0c-0.653,-0 -0.98,1.02 -0.98,3.062c-0,2.041 0.327,3.062 0.98,3.062Zm-16.292,40.73l22.417,-0c0.694,-0 1.041,-1.021 1.041,-3.063c-0,-2.041 -0.347,-3.062 -1.041,-3.062l-22.417,-0c-0.653,-0 -0.98,1.021 -0.98,3.062c0,2.042 0.327,3.063 0.98,3.063Zm8.146,8.146l22.416,-0c0.695,-0 1.042,-1.021 1.042,-3.063c-0,-2.041 -0.347,-3.062 -1.042,-3.062l-22.416,-0c-0.653,-0 -0.98,1.021 -0.98,3.062c-0,2.042 0.327,3.063 0.98,3.063Z" style="fill:#fff;fill-rule:nonzero;"/><path d="M402.803,167.845l14.271,0c0.694,0 1.041,-1.021 1.041,-3.062c0,-2.042 -0.347,-3.063 -1.041,-3.063l-14.271,0c-0.653,0 -0.98,1.021 -0.98,3.063c0,2.041 0.327,3.062 0.98,3.062Zm32.584,0l14.271,0c0.694,0 1.041,-1.021 1.041,-3.062c-0,-2.042 -0.347,-3.063 -1.041,-3.063l-14.271,0c-0.653,0 -0.98,1.021 -0.98,3.063c0,2.041 0.327,3.062 0.98,3.062Zm-24.438,-8.146l30.563,0c0.694,0 1.041,-1.021 1.041,-3.062c-0,-2.042 -0.347,-3.062 -1.041,-3.062l-30.563,-0c-0.653,-0 -0.98,1.02 -0.98,3.062c0,2.041 0.327,3.062 0.98,3.062Zm-8.146,16.292l14.271,-0c0.694,-0 1.041,-1.021 1.041,-3.062c0,-2.042 -0.347,-3.063 -1.041,-3.063l-14.271,0c-0.653,0 -0.98,1.021 -0.98,3.063c0,2.041 0.327,3.062 0.98,3.062Zm40.73,16.292l14.27,-0c0.695,-0 1.042,-1.021 1.042,-3.063c-0,-2.041 -0.347,-3.062 -1.042,-3.062l-14.27,0c-0.653,0 -0.98,1.021 -0.98,3.062c-0,2.042 0.327,3.063 0.98,3.063Zm-32.584,-8.146l38.709,-0c0.694,-0 1.041,-1.021 1.041,-3.062c-0,-2.042 -0.347,-3.063 -1.041,-3.063l-38.709,0c-0.653,0 -0.98,1.021 -0.98,3.063c0,2.041 0.327,3.062 0.98,3.062Zm-8.146,16.292l14.271,-0c0.694,-0 1.041,-1.021 1.041,-3.063c0,-2.041 -0.347,-3.062 -1.041,-3.062l-14.271,-0c-0.653,-0 -0.98,1.021 -0.98,3.062c0,2.042 0.327,3.063 0.98,3.063Zm40.73,-0l14.27,-0c0.695,-0 1.042,-1.021 1.042,-3.063c-0,-2.041 -0.347,-3.062 -1.042,-3.062l-14.27,-0c-0.653,-0 -0.98,1.021 -0.98,3.062c-0,2.042 0.327,3.063 0.98,3.063Zm-32.584,8.146l38.709,-0c0.694,-0 1.041,-1.021 1.041,-3.063c-0,-2.041 -0.347,-3.062 -1.041,-3.062l-38.709,-0c-0.653,-0 -0.98,1.021 -0.98,3.062c0,2.042 0.327,3.063 0.98,3.063Z" style="fill:#fff;fill-rule:nonzero;"/></g></g></svg>