<svg clip-rule="evenodd" fill-rule="evenodd" stroke-linejoin="round" stroke-miterlimit="2" viewBox="0 0 600 209" xmlns="http://www.w3.org/2000/svg"><g fill="#fff" fill-rule="nonzero"><path d="m51.607 77.754c12.522 0 19.797 8.968 19.797 19.628 0 10.998-7.275 19.458-19.797 19.458-12.521 0-19.797-8.46-19.797-19.458 0-10.66 7.276-19.628 19.797-19.628zm49.577-23.858h-30.795v8.46c-6.43-7.614-16.92-11.336-26.903-11.336-25.72 0-43.486 21.319-43.486 46.192 0 24.874 18.105 46.363 43.824 46.363 10.152 0 20.812-3.892 26.227-12.522h.338v9.645h30.795z"/><path d="m152.453 53.896h-30.795v86.802h30.795v-35.025c0-14.89 4.231-26.227 21.32-26.227 4.738 0 8.799.508 13.029 2.876v-29.61h-5.922c-12.014 0-22.166 4.737-28.088 15.397h-.339z"/><path d="m260.914 56.096c-6.092-3.384-13.198-5.076-20.305-5.076-27.242 0-48.562 19.289-48.562 47.208 0 26.226 21.489 45.347 47.208 45.347 7.446 0 14.891-1.523 21.659-4.907v-26.058c-4.061 3.723-9.983 5.922-15.398 5.922-12.69 0-21.658-8.798-21.658-21.32 0-12.013 9.306-21.15 21.15-21.15 5.923 0 11.337 2.707 15.906 6.091z"/><path d="m325.381 77.754c12.521 0 19.797 8.968 19.797 19.628 0 10.998-7.276 19.458-19.797 19.458s-19.797-8.46-19.797-19.458c0-10.66 7.276-19.628 19.797-19.628zm49.577-23.858h-30.796v8.46c-6.429-7.614-16.92-11.336-26.903-11.336-25.719 0-43.486 21.319-43.486 46.192 0 24.874 18.105 46.363 43.824 46.363 10.153 0 20.812-3.892 26.227-12.522h.338v9.645h30.796z"/><path d="m460.745 140.698h30.795v-140.44h-30.795v62.098c-6.43-7.614-16.921-11.336-26.904-11.336-25.719 0-43.486 21.319-43.486 46.192 0 24.874 18.105 46.363 43.824 46.363 10.153 0 20.813-3.892 26.227-12.522h.339zm-18.782-62.944c12.521 0 19.797 8.968 19.797 19.628 0 10.998-7.276 19.458-19.797 19.458s-19.797-8.46-19.797-19.458c0-10.66 7.276-19.628 19.797-19.628z"/><path d="m535.702 84.691c1.861-8.968 9.306-13.705 18.274-13.705 8.291 0 15.906 5.414 17.428 13.705zm64.298 14.552c0-29.611-17.428-48.223-47.547-48.223-28.257 0-48.054 17.428-48.054 46.362 0 29.949 21.489 46.193 50.254 46.193 9.983 0 19.797-2.369 27.75-7.276 7.952-4.907 14.044-12.352 16.413-22.505h-29.611c-3.384 5.753-8.122 7.953-14.721 7.953-12.69 0-19.289-6.768-19.289-19.289h64.805z"/><path d="m142.135 167.845h14.271c.694 0 1.041-1.021 1.041-3.062 0-2.042-.347-3.063-1.041-3.063h-14.271c-.653 0-.98 1.021-.98 3.063 0 2.041.327 3.062.98 3.062zm0 8.146h14.271c.694 0 1.041-1.021 1.041-3.062 0-2.042-.347-3.063-1.041-3.063h-14.271c-.653 0-.98 1.021-.98 3.063 0 2.041.327 3.062.98 3.062zm0 16.292h14.271c.694 0 1.041-1.021 1.041-3.063 0-2.041-.347-3.062-1.041-3.062h-14.271c-.653 0-.98 1.021-.98 3.062 0 2.042.327 3.063.98 3.063zm0-8.146h55c.694 0 1.042-1.021 1.042-3.062 0-2.042-.348-3.063-1.042-3.063h-55c-.653 0-.98 1.021-.98 3.063 0 2.041.327 3.062.98 3.062zm0 16.292h14.271c.694 0 1.041-1.021 1.041-3.063 0-2.041-.347-3.062-1.041-3.062h-14.271c-.653 0-.98 1.021-.98 3.062 0 2.042.327 3.063.98 3.063zm0-40.73h14.271c.694 0 1.041-1.021 1.041-3.062 0-2.042-.347-3.062-1.041-3.062h-14.271c-.653 0-.98 1.02-.98 3.062 0 2.041.327 3.062.98 3.062zm0 48.876h14.271c.694 0 1.041-1.021 1.041-3.063 0-2.041-.347-3.062-1.041-3.062h-14.271c-.653 0-.98 1.021-.98 3.062 0 2.042.327 3.063.98 3.063zm40.73-40.73h14.27c.694 0 1.042-1.021 1.042-3.062 0-2.042-.348-3.063-1.042-3.063h-14.27c-.654 0-.98 1.021-.98 3.063 0 2.041.326 3.062.98 3.062zm0 8.146h14.27c.694 0 1.042-1.021 1.042-3.062 0-2.042-.348-3.063-1.042-3.063h-14.27c-.654 0-.98 1.021-.98 3.063 0 2.041.326 3.062.98 3.062zm0 16.292h14.27c.694 0 1.042-1.021 1.042-3.063 0-2.041-.348-3.062-1.042-3.062h-14.27c-.654 0-.98 1.021-.98 3.062 0 2.042.326 3.063.98 3.063zm0 8.146h14.27c.694 0 1.042-1.021 1.042-3.063 0-2.041-.348-3.062-1.042-3.062h-14.27c-.654 0-.98 1.021-.98 3.062 0 2.042.326 3.063.98 3.063zm0-40.73h14.27c.694 0 1.042-1.021 1.042-3.062 0-2.042-.348-3.062-1.042-3.062h-14.27c-.654 0-.98 1.02-.98 3.062 0 2.041.326 3.062.98 3.062zm0 48.876h14.27c.694 0 1.042-1.021 1.042-3.063 0-2.041-.348-3.062-1.042-3.062h-14.27c-.654 0-.98 1.021-.98 3.062 0 2.042.326 3.063.98 3.063z"/><path d="m215.448 167.845h14.271c.694 0 1.041-1.021 1.041-3.062 0-2.042-.347-3.063-1.041-3.063h-14.271c-.653 0-.98 1.021-.98 3.063 0 2.041.327 3.062.98 3.062zm24.438 0h14.27c.695 0 1.042-1.021 1.042-3.062 0-2.042-.347-3.063-1.042-3.063h-14.27c-.653 0-.98 1.021-.98 3.063 0 2.041.327 3.062.98 3.062zm-16.292-8.146h22.417c.694 0 1.041-1.021 1.041-3.062 0-2.042-.347-3.062-1.041-3.062h-22.417c-.653 0-.98 1.02-.98 3.062 0 2.041.327 3.062.98 3.062zm-16.292 16.292h14.271c.694 0 1.041-1.021 1.041-3.062 0-2.042-.347-3.063-1.041-3.063h-14.271c-.653 0-.98 1.021-.98 3.063 0 2.041.327 3.062.98 3.062zm40.73 0h14.27c.694 0 1.042-1.021 1.042-3.062 0-2.042-.348-3.063-1.042-3.063h-14.27c-.654 0-.98 1.021-.98 3.063 0 2.041.326 3.062.98 3.062zm-40.73 8.146h14.271c.694 0 1.041-1.021 1.041-3.062 0-2.042-.347-3.063-1.041-3.063h-14.271c-.653 0-.98 1.021-.98 3.063 0 2.041.327 3.062.98 3.062zm40.73 0h14.27c.694 0 1.042-1.021 1.042-3.062 0-2.042-.348-3.063-1.042-3.063h-14.27c-.654 0-.98 1.021-.98 3.063 0 2.041.326 3.062.98 3.062zm-40.73 8.146h55c.694 0 1.042-1.021 1.042-3.063 0-2.041-.348-3.062-1.042-3.062h-55c-.653 0-.98 1.021-.98 3.062 0 2.042.327 3.063.98 3.063zm0 8.146h14.271c.694 0 1.041-1.021 1.041-3.063 0-2.041-.347-3.062-1.041-3.062h-14.271c-.653 0-.98 1.021-.98 3.062 0 2.042.327 3.063.98 3.063zm40.73 0h14.27c.694 0 1.042-1.021 1.042-3.063 0-2.041-.348-3.062-1.042-3.062h-14.27c-.654 0-.98 1.021-.98 3.062 0 2.042.326 3.063.98 3.063zm-40.73 8.146h14.271c.694 0 1.041-1.021 1.041-3.063 0-2.041-.347-3.062-1.041-3.062h-14.271c-.653 0-.98 1.021-.98 3.062 0 2.042.327 3.063.98 3.063zm40.73 0h14.27c.694 0 1.042-1.021 1.042-3.063 0-2.041-.348-3.062-1.042-3.062h-14.27c-.654 0-.98 1.021-.98 3.062 0 2.042.326 3.063.98 3.063z"/><path d="m280.615 167.845h14.271c.694 0 1.041-1.021 1.041-3.062 0-2.042-.347-3.063-1.041-3.063h-14.271c-.653 0-.98 1.021-.98 3.063 0 2.041.327 3.062.98 3.062zm32.584 0h14.27c.695 0 1.042-1.021 1.042-3.062 0-2.042-.347-3.063-1.042-3.063h-14.27c-.654 0-.98 1.021-.98 3.063 0 2.041.326 3.062.98 3.062zm-24.438-8.146h30.562c.695 0 1.042-1.021 1.042-3.062 0-2.042-.347-3.062-1.042-3.062h-30.562c-.653 0-.98 1.02-.98 3.062 0 2.041.327 3.062.98 3.062zm-16.292 16.292h14.271c.694 0 1.041-1.021 1.041-3.062 0-2.042-.347-3.063-1.041-3.063h-14.271c-.653 0-.98 1.021-.98 3.063 0 2.041.327 3.062.98 3.062zm0 16.292h14.271c.694 0 1.041-1.021 1.041-3.063 0-2.041-.347-3.062-1.041-3.062h-14.271c-.653 0-.98 1.021-.98 3.062 0 2.042.327 3.063.98 3.063zm0-8.146h14.271c.694 0 1.041-1.021 1.041-3.062 0-2.042-.347-3.063-1.041-3.063h-14.271c-.653 0-.98 1.021-.98 3.063 0 2.041.327 3.062.98 3.062zm8.146 16.292h14.271c.694 0 1.041-1.021 1.041-3.063 0-2.041-.347-3.062-1.041-3.062h-14.271c-.653 0-.98 1.021-.98 3.062 0 2.042.327 3.063.98 3.063zm32.584 0h14.27c.695 0 1.042-1.021 1.042-3.063 0-2.041-.347-3.062-1.042-3.062h-14.27c-.654 0-.98 1.021-.98 3.062 0 2.042.326 3.063.98 3.063zm-24.438 8.146h30.562c.695 0 1.042-1.021 1.042-3.063 0-2.041-.347-3.062-1.042-3.062h-30.562c-.653 0-.98 1.021-.98 3.062 0 2.042.327 3.063.98 3.063z"/><path d="m337.636 167.845h14.271c.694 0 1.041-1.021 1.041-3.062 0-2.042-.347-3.063-1.041-3.063h-14.271c-.653 0-.98 1.021-.98 3.063 0 2.041.327 3.062.98 3.062zm0 8.146h14.271c.694 0 1.041-1.021 1.041-3.062 0-2.042-.347-3.063-1.041-3.063h-14.271c-.653 0-.98 1.021-.98 3.063 0 2.041.327 3.062.98 3.062zm0 16.292h38.709c.694 0 1.041-1.021 1.041-3.063 0-2.041-.347-3.062-1.041-3.062h-38.709c-.653 0-.98 1.021-.98 3.062 0 2.042.327 3.063.98 3.063zm0-8.146h30.563c.694 0 1.041-1.021 1.041-3.062 0-2.042-.347-3.063-1.041-3.063h-30.563c-.653 0-.98 1.021-.98 3.063 0 2.041.327 3.062.98 3.062zm0 16.292h14.271c.694 0 1.041-1.021 1.041-3.063 0-2.041-.347-3.062-1.041-3.062h-14.271c-.653 0-.98 1.021-.98 3.062 0 2.042.327 3.063.98 3.063zm0 8.146h14.271c.694 0 1.041-1.021 1.041-3.063 0-2.041-.347-3.062-1.041-3.062h-14.271c-.653 0-.98 1.021-.98 3.062 0 2.042.327 3.063.98 3.063zm0-48.876h14.271c.694 0 1.041-1.021 1.041-3.062 0-2.042-.347-3.062-1.041-3.062h-14.271c-.653 0-.98 1.02-.98 3.062 0 2.041.327 3.062.98 3.062zm32.584 8.146h14.271c.694 0 1.041-1.021 1.041-3.062 0-2.042-.347-3.063-1.041-3.063h-14.271c-.653 0-.98 1.021-.98 3.063 0 2.041.327 3.062.98 3.062zm-8.146 8.146h14.271c.694 0 1.041-1.021 1.041-3.062 0-2.042-.347-3.063-1.041-3.063h-14.271c-.653 0-.98 1.021-.98 3.063 0 2.041.327 3.062.98 3.062zm16.292-16.292h14.27c.695 0 1.042-1.021 1.042-3.062 0-2.042-.347-3.062-1.042-3.062h-14.27c-.653 0-.98 1.02-.98 3.062 0 2.041.327 3.062.98 3.062zm-16.292 40.73h22.417c.694 0 1.041-1.021 1.041-3.063 0-2.041-.347-3.062-1.041-3.062h-22.417c-.653 0-.98 1.021-.98 3.062 0 2.042.327 3.063.98 3.063zm8.146 8.146h22.416c.695 0 1.042-1.021 1.042-3.063 0-2.041-.347-3.062-1.042-3.062h-22.416c-.653 0-.98 1.021-.98 3.062 0 2.042.327 3.063.98 3.063z"/><path d="m402.803 167.845h14.271c.694 0 1.041-1.021 1.041-3.062 0-2.042-.347-3.063-1.041-3.063h-14.271c-.653 0-.98 1.021-.98 3.063 0 2.041.327 3.062.98 3.062zm32.584 0h14.271c.694 0 1.041-1.021 1.041-3.062 0-2.042-.347-3.063-1.041-3.063h-14.271c-.653 0-.98 1.021-.98 3.063 0 2.041.327 3.062.98 3.062zm-24.438-8.146h30.563c.694 0 1.041-1.021 1.041-3.062 0-2.042-.347-3.062-1.041-3.062h-30.563c-.653 0-.98 1.02-.98 3.062 0 2.041.327 3.062.98 3.062zm-8.146 16.292h14.271c.694 0 1.041-1.021 1.041-3.062 0-2.042-.347-3.063-1.041-3.063h-14.271c-.653 0-.98 1.021-.98 3.063 0 2.041.327 3.062.98 3.062zm40.73 16.292h14.27c.695 0 1.042-1.021 1.042-3.063 0-2.041-.347-3.062-1.042-3.062h-14.27c-.653 0-.98 1.021-.98 3.062 0 2.042.327 3.063.98 3.063zm-32.584-8.146h38.709c.694 0 1.041-1.021 1.041-3.062 0-2.042-.347-3.063-1.041-3.063h-38.709c-.653 0-.98 1.021-.98 3.063 0 2.041.327 3.062.98 3.062zm-8.146 16.292h14.271c.694 0 1.041-1.021 1.041-3.063 0-2.041-.347-3.062-1.041-3.062h-14.271c-.653 0-.98 1.021-.98 3.062 0 2.042.327 3.063.98 3.063zm40.73 0h14.27c.695 0 1.042-1.021 1.042-3.063 0-2.041-.347-3.062-1.042-3.062h-14.27c-.653 0-.98 1.021-.98 3.062 0 2.042.327 3.063.98 3.063zm-32.584 8.146h38.709c.694 0 1.041-1.021 1.041-3.063 0-2.041-.347-3.062-1.041-3.062h-38.709c-.653 0-.98 1.021-.98 3.062 0 2.042.327 3.063.98 3.063z"/></g></svg>