<?xml version="1.0" encoding="UTF-8" standalone="no"?><!DOCTYPE svg PUBLIC "-//W3C//DTD SVG 1.1//EN" "http://www.w3.org/Graphics/SVG/1.1/DTD/svg11.dtd"><svg width="100%" height="100%" viewBox="0 0 600 164" version="1.1" xmlns="http://www.w3.org/2000/svg" xmlns:xlink="http://www.w3.org/1999/xlink" xml:space="preserve" xmlns:serif="http://www.serif.com/" style="fill-rule:evenodd;clip-rule:evenodd;stroke-linejoin:round;stroke-miterlimit:2;"><g id="arcade_bold_outline"><path d="M384.674,71.462l-0,-6.247c-0,-7.154 -5.799,-12.952 -12.952,-12.952c-0,-0 -29.466,-0 -29.466,-0c-2.056,-0 -4,0.478 -5.727,1.331c-6.288,-2.707 -13.228,-4.084 -20.015,-4.084c-16.964,0 -31.263,7.341 -40.961,18.851l0,-1.042c0,-4.703 -2.55,-9.037 -6.662,-11.322c-7.719,-4.288 -16.712,-6.487 -25.718,-6.487c-14.909,0 -28.321,4.793 -38.615,13.116c-0.721,-6.468 -6.208,-11.497 -12.869,-11.497c0,0 -5.666,0 -5.666,0c-6.999,0 -13.499,1.27 -19.282,3.836c-2.189,-1.694 -4.935,-2.702 -7.917,-2.702c-0,-0 -29.466,-0 -29.466,-0c-3.914,-0 -7.423,1.736 -9.795,4.483c-2.372,-2.747 -5.881,-4.483 -9.795,-4.483c-0,-0 -29.466,-0 -29.466,-0c-2.056,-0 -4,0.478 -5.726,1.331c-6.289,-2.707 -13.228,-4.084 -20.016,-4.084c-32.032,0 -54.56,26.173 -54.56,57.151c0,30.938 22.893,57.312 54.884,57.312c6.717,0 13.546,-1.369 19.642,-4.108c1.738,0.868 3.7,1.356 5.776,1.356c0,0 29.466,0 29.466,0c3.914,0 7.423,-1.736 9.795,-4.483c2.372,2.747 5.881,4.483 9.795,4.483c-0,0 29.466,0 29.466,0c7.153,0 12.951,-5.799 12.951,-12.952l0,-33.513c0,-2.754 0.083,-5.345 0.582,-7.607c0.295,-1.335 0.679,-2.542 1.572,-3.396c1.13,-1.08 2.934,-1.14 5.294,-1.14c1.675,0 3.196,-0.003 4.693,0.475c-0.107,1.492 -0.16,3.008 -0.16,4.544c0,32.432 26.318,56.341 58.122,56.341c9.119,0 18.226,-1.917 26.515,-6.062c4.388,-2.194 7.16,-6.679 7.16,-11.585l0,-1.498c9.794,11.667 24.249,19.145 41.285,19.145c6.717,0 13.546,-1.369 19.641,-4.108c1.739,0.868 3.701,1.356 5.777,1.356c-0,0 29.466,0 29.466,0c7.153,0 12.952,-5.799 12.952,-12.952l-0,-6.55c9.744,13.428 25.206,22.254 43.712,22.254c6.718,0 13.547,-1.369 19.642,-4.108c1.739,0.868 3.701,1.356 5.777,1.356c-0,0 29.465,0 29.465,0c7.154,0 12.952,-5.799 12.952,-12.952l0,-3.328c1.431,1.593 2.957,3.093 4.571,4.497c10.732,9.34 25.654,14.535 42.866,14.535c12.012,0 23.784,-2.987 33.353,-8.891c10.451,-6.448 18.403,-16.27 21.516,-29.612c0.559,-2.397 1.472,-8.069 1.472,-13.79l0,-3.076c0,-18.025 -5.718,-32.553 -15.605,-42.724c-9.959,-10.244 -24.376,-16.37 -42.841,-16.37c-17.185,0 -31.684,5.615 -42,15.314c-1.162,1.092 -2.273,2.238 -3.332,3.435c0,-24.154 0,-54.367 0,-54.367c0,-7.153 -5.798,-12.952 -12.952,-12.952c0,0 -29.465,0 -29.465,0c-7.154,0 -12.952,5.799 -12.952,12.952l-0,37.24c-4.191,-1.077 -8.521,-1.622 -12.79,-1.622c-18.444,0 -33.737,8.678 -43.389,21.952Zm-186.509,7.899l0,-15.28c0,-3.576 -2.899,-6.476 -6.476,-6.476l-5.666,0c-7.886,0 -15.051,1.813 -21.034,5.626c-0.837,-2.606 -3.281,-4.492 -6.165,-4.492l-29.466,-0c-3.577,-0 -6.476,2.899 -6.476,6.476l-0,83.054c-0,3.577 2.899,6.476 6.476,6.476l29.466,0c3.576,0 6.476,-2.899 6.476,-6.476l-0,-33.513c-0,-6.519 0.571,-12.258 4.154,-15.684c2.128,-2.035 5.324,-2.935 9.769,-2.935c3.373,0 6.29,0.241 9.302,1.927c0.746,0.418 1.554,0.677 2.376,0.778c-0.44,2.827 -0.669,5.763 -0.669,8.79c0,28.763 23.44,49.865 51.646,49.865c8.121,0 16.236,-1.687 23.619,-5.378c2.194,-1.097 3.58,-3.34 3.58,-5.793l0,-24.932c0,-2.568 -1.517,-4.894 -3.868,-5.928c-2.351,-1.034 -5.091,-0.581 -6.984,1.154c-2.73,2.502 -6.717,3.964 -10.357,3.964c-8.318,0 -14.247,-5.716 -14.247,-13.923c0,-7.817 6.055,-13.762 13.762,-13.762c4.257,0 8.079,2.124 11.364,4.557c1.965,1.456 4.583,1.68 6.768,0.579c2.184,-1.1 3.562,-3.337 3.562,-5.783l0,-24.933c0,-2.352 -1.275,-4.519 -3.331,-5.661c-6.774,-3.763 -14.67,-5.672 -22.573,-5.672c-19.251,0 -35.755,8.86 -45.008,23.375Zm291.581,36.48c1.808,12.149 7.308,21.759 15.298,28.712c9.657,8.404 23.129,12.944 38.615,12.944c10.782,0 21.363,-2.626 29.952,-7.926c9.03,-5.572 15.92,-14.045 18.61,-25.572c0.449,-1.925 1.303,-9.788 1.303,-12.319l0,-3.076c0,-16.095 -4.943,-29.128 -13.773,-38.21c-8.864,-9.119 -21.76,-14.408 -38.197,-14.408c-15.352,0 -28.349,4.892 -37.564,13.557c-7.457,7.009 -12.524,16.528 -14.244,28.199l0,-83.85c0,-3.576 -2.899,-6.476 -6.476,-6.476l-29.465,0c-3.577,0 -6.476,2.9 -6.476,6.476l-0,46.482c-5.943,-2.914 -12.688,-4.388 -19.266,-4.388c-28.321,0 -48.085,23.286 -48.085,50.675c0,27.369 20.109,50.836 48.408,50.836c7.067,0 14.286,-1.727 20.312,-5.248c1.184,1.52 3.031,2.496 5.107,2.496l29.465,0c3.577,0 6.476,-2.899 6.476,-6.476l0,-32.428Zm-414.55,36.408c1.183,1.52 3.031,2.496 5.106,2.496l29.466,0c3.577,0 6.476,-2.899 6.476,-6.476l-0,-83.054c-0,-3.577 -2.899,-6.476 -6.476,-6.476l-29.466,-0c-2.026,-0 -3.834,0.93 -5.021,2.387c-6.282,-3.413 -13.599,-5.14 -20.721,-5.14c-28.32,0 -48.084,23.286 -48.084,50.675c-0,27.369 20.108,50.836 48.408,50.836c7.067,0 14.285,-1.727 20.312,-5.248Zm261.953,0c1.184,1.52 3.031,2.496 5.107,2.496l29.466,0c3.576,0 6.476,-2.899 6.476,-6.476l-0,-83.054c-0,-3.577 -2.9,-6.476 -6.476,-6.476l-29.466,-0c-2.026,-0 -3.835,0.93 -5.021,2.387c-6.282,-3.413 -13.6,-5.14 -20.721,-5.14c-28.32,0 -48.084,23.286 -48.084,50.675c-0,27.369 20.108,50.836 48.408,50.836c7.066,0 14.285,-1.727 20.311,-5.248Zm-75.178,-47.061c-2.511,-0.122 -4.981,-0.974 -7.079,-2.529c-2.199,-1.628 -4.66,-3.284 -7.509,-3.284c-4.08,0 -7.286,3.148 -7.286,7.286c0,4.435 3.277,7.447 7.771,7.447c2.099,0 4.407,-0.819 5.981,-2.262c2.278,-2.088 5.169,-3.247 8.133,-3.388c-0.02,-0.598 -0.028,-1.197 -0.028,-1.797c-0,-0.493 0.005,-0.984 0.017,-1.473Z" style="fill:#fff;"/><g><path d="M62.331,88.042c11.981,0 18.943,8.581 18.943,18.781c-0,10.523 -6.962,18.618 -18.943,18.618c-11.98,0 -18.942,-8.095 -18.942,-18.618c0,-10.2 6.962,-18.781 18.942,-18.781Zm47.437,-22.827l-29.466,-0l0,8.095c-6.152,-7.286 -16.19,-10.848 -25.742,-10.848c-24.609,0 -41.608,20.4 -41.608,44.199c-0,23.799 17.323,44.36 41.932,44.36c9.714,0 19.914,-3.723 25.094,-11.98l0.324,-0l0,9.228l29.466,0l-0,-83.054Z" style="fill:#fff;fill-rule:nonzero;"/><path d="M158.824,65.215l-29.466,-0l-0,83.054l29.466,0l-0,-33.513c-0,-14.247 4.047,-25.095 20.399,-25.095c4.533,0 8.419,0.486 12.466,2.753l0,-28.333l-5.666,0c-11.495,0 -21.209,4.533 -26.876,14.733l-0.323,0l-0,-13.599Z" style="fill:#fff;fill-rule:nonzero;"/><path d="M262.601,67.319c-5.828,-3.238 -12.628,-4.857 -19.428,-4.857c-26.066,0 -46.465,18.457 -46.465,45.17c0,25.095 20.561,43.389 45.17,43.389c7.124,0 14.247,-1.457 20.723,-4.695l0,-24.932c-3.885,3.562 -9.552,5.666 -14.733,5.666c-12.142,0 -20.723,-8.419 -20.723,-20.399c0,-11.495 8.905,-20.238 20.238,-20.238c5.666,0 10.847,2.591 15.218,5.829l0,-24.933Z" style="fill:#fff;fill-rule:nonzero;"/><path d="M324.285,88.042c11.981,0 18.942,8.581 18.942,18.781c0,10.523 -6.961,18.618 -18.942,18.618c-11.981,0 -18.942,-8.095 -18.942,-18.618c-0,-10.2 6.961,-18.781 18.942,-18.781Zm47.437,-22.827l-29.466,-0l-0,8.095c-6.152,-7.286 -16.19,-10.848 -25.742,-10.848c-24.609,0 -41.608,20.4 -41.608,44.199c-0,23.799 17.323,44.36 41.932,44.36c9.714,0 19.913,-3.723 25.094,-11.98l0.324,-0l-0,9.228l29.466,0l-0,-83.054Z" style="fill:#fff;fill-rule:nonzero;"/><path d="M453.805,148.269l29.465,0l0,-134.377l-29.465,0l-0,59.418c-6.153,-7.286 -16.19,-10.848 -25.742,-10.848c-24.609,0 -41.609,20.4 -41.609,44.199c0,23.799 17.324,44.36 41.932,44.36c9.714,0 19.914,-3.723 25.095,-11.98l0.324,-0l-0,9.228Zm-17.971,-60.227c11.98,0 18.942,8.581 18.942,18.781c0,10.523 -6.962,18.618 -18.942,18.618c-11.981,0 -18.942,-8.095 -18.942,-18.618c-0,-10.2 6.961,-18.781 18.942,-18.781Z" style="fill:#fff;fill-rule:nonzero;"/><path d="M525.526,94.68c1.781,-8.58 8.905,-13.114 17.485,-13.114c7.933,0 15.219,5.181 16.676,13.114l-34.161,0Zm61.522,13.924c0,-28.333 -16.676,-46.142 -45.494,-46.142c-27.037,0 -45.979,16.676 -45.979,44.361c-0,28.656 20.561,44.198 48.084,44.198c9.552,0 18.942,-2.266 26.551,-6.961c7.61,-4.695 13.438,-11.819 15.705,-21.533l-28.333,0c-3.238,5.505 -7.771,7.609 -14.085,7.609c-12.142,0 -18.457,-6.476 -18.457,-18.456l62.008,-0l0,-3.076Z" style="fill:#fff;fill-rule:nonzero;"/></g></g></svg>