<svg clip-rule="evenodd" fill-rule="evenodd" stroke-linejoin="round" stroke-miterlimit="2" viewBox="0 0 600 317" xmlns="http://www.w3.org/2000/svg"><g fill="#fff"><path d="m384.674 70.861v-6.248c0-7.153-5.799-12.952-12.952-12.952h-29.466c-2.056 0-4 .479-5.727 1.332-6.288-2.707-13.228-4.084-20.015-4.084-16.964 0-31.263 7.341-40.961 18.851v-1.042c0-4.704-2.55-9.038-6.662-11.322-7.719-4.288-16.712-6.487-25.718-6.487-14.909 0-28.321 4.793-38.615 13.116-.721-6.468-6.208-11.497-12.869-11.497h-5.666c-6.999 0-13.499 1.27-19.282 3.836-2.189-1.694-4.935-2.703-7.917-2.703h-29.466c-3.914 0-7.423 1.737-9.795 4.484-2.372-2.747-5.881-4.484-9.795-4.484h-29.466c-2.056 0-4 .479-5.726 1.332-6.289-2.707-13.228-4.084-20.016-4.084-32.032 0-54.56 26.173-54.56 57.151 0 30.938 22.893 57.312 54.884 57.312 6.717 0 13.546-1.369 19.642-4.108 1.738.868 3.7 1.356 5.776 1.356h29.466c3.914 0 7.423-1.736 9.795-4.483 2.372 2.747 5.881 4.483 9.795 4.483h29.466c7.153 0 12.951-5.799 12.951-12.952v-33.513c0-2.754.083-5.345.582-7.607.295-1.335.679-2.542 1.572-3.396 1.13-1.081 2.934-1.14 5.294-1.14 1.675 0 3.196-.003 4.693.475-.107 1.492-.16 3.007-.16 4.544 0 32.432 26.318 56.341 58.122 56.341 9.119 0 18.226-1.917 26.515-6.062 4.388-2.194 7.16-6.679 7.16-11.585v-1.499c9.794 11.668 24.249 19.146 41.285 19.146 6.717 0 13.546-1.369 19.641-4.108 1.739.868 3.701 1.356 5.777 1.356h29.466c7.153 0 12.952-5.799 12.952-12.952v-6.55c9.744 13.428 25.206 22.254 43.712 22.254 6.718 0 13.547-1.369 19.642-4.108 1.739.868 3.701 1.356 5.777 1.356h29.465c7.154 0 12.952-5.799 12.952-12.952v-3.328c1.431 1.593 2.957 3.092 4.571 4.497 10.732 9.34 25.654 14.535 42.866 14.535 12.012 0 23.784-2.987 33.353-8.891 10.451-6.448 18.403-16.27 21.516-29.612.559-2.397 1.472-8.07 1.472-13.79v-3.076c0-18.025-5.718-32.553-15.605-42.724-9.959-10.244-24.376-16.37-42.841-16.37-17.185 0-31.684 5.615-42 15.314-1.162 1.092-2.273 2.238-3.332 3.435 0-24.154 0-54.367 0-54.367 0-7.153-5.798-12.952-12.952-12.952h-29.465c-7.154 0-12.952 5.799-12.952 12.952v37.24c-4.191-1.078-8.521-1.622-12.79-1.622-18.444 0-33.737 8.678-43.389 21.952zm-186.509 7.899v-15.28c0-3.576-2.899-6.476-6.476-6.476h-5.666c-7.886 0-15.051 1.813-21.034 5.626-.837-2.607-3.281-4.493-6.165-4.493h-29.466c-3.577 0-6.476 2.9-6.476 6.476v83.055c0 3.577 2.899 6.476 6.476 6.476h29.466c3.576 0 6.476-2.899 6.476-6.476v-33.513c0-6.52.571-12.258 4.154-15.684 2.128-2.035 5.324-2.935 9.769-2.935 3.373 0 6.29.24 9.302 1.927.746.418 1.554.677 2.376.777-.44 2.828-.669 5.764-.669 8.791 0 28.763 23.44 49.865 51.646 49.865 8.121 0 16.236-1.687 23.619-5.379 2.194-1.097 3.58-3.339 3.58-5.792v-24.932c0-2.569-1.517-4.894-3.868-5.928s-5.091-.582-6.984 1.154c-2.73 2.502-6.717 3.964-10.357 3.964-8.318 0-14.247-5.716-14.247-13.923 0-7.817 6.055-13.762 13.762-13.762 4.257 0 8.079 2.124 11.364 4.557 1.965 1.455 4.583 1.68 6.768.579 2.184-1.1 3.562-3.337 3.562-5.783v-24.933c0-2.352-1.275-4.519-3.331-5.661-6.774-3.763-14.67-5.672-22.573-5.672-19.251 0-35.755 8.86-45.008 23.375zm291.581 36.48c1.808 12.149 7.308 21.758 15.298 28.712 9.657 8.404 23.129 12.944 38.615 12.944 10.782 0 21.363-2.627 29.952-7.926 9.03-5.572 15.92-14.045 18.61-25.573.449-1.924 1.303-9.788 1.303-12.318v-3.076c0-16.096-4.943-29.128-13.773-38.21-8.864-9.119-21.76-14.408-38.197-14.408-15.352 0-28.349 4.892-37.564 13.556-7.457 7.01-12.524 16.529-14.244 28.2v-83.85c0-3.576-2.899-6.476-6.476-6.476h-29.465c-3.577 0-6.476 2.9-6.476 6.476v46.482c-5.943-2.915-12.688-4.388-19.266-4.388-28.321 0-48.085 23.286-48.085 50.675 0 27.368 20.109 50.836 48.408 50.836 7.067 0 14.286-1.727 20.312-5.248 1.184 1.52 3.031 2.496 5.107 2.496h29.465c3.577 0 6.476-2.899 6.476-6.476zm-414.55 36.408c1.183 1.52 3.031 2.496 5.106 2.496h29.466c3.577 0 6.476-2.899 6.476-6.476v-83.055c0-3.576-2.899-6.476-6.476-6.476h-29.466c-2.026 0-3.834.931-5.021 2.388-6.282-3.413-13.599-5.14-20.721-5.14-28.32 0-48.084 23.286-48.084 50.675 0 27.368 20.108 50.836 48.408 50.836 7.067 0 14.285-1.727 20.312-5.248zm261.953 0c1.184 1.52 3.031 2.496 5.107 2.496h29.466c3.576 0 6.476-2.899 6.476-6.476v-83.055c0-3.576-2.9-6.476-6.476-6.476h-29.466c-2.026 0-3.835.931-5.021 2.388-6.282-3.413-13.6-5.14-20.721-5.14-28.32 0-48.084 23.286-48.084 50.675 0 27.368 20.108 50.836 48.408 50.836 7.066 0 14.285-1.727 20.311-5.248zm-75.178-47.061c-2.511-.122-4.981-.975-7.079-2.529-2.199-1.628-4.66-3.284-7.509-3.284-4.08 0-7.286 3.148-7.286 7.286 0 4.434 3.277 7.447 7.771 7.447 2.099 0 4.407-.819 5.981-2.262 2.278-2.088 5.169-3.248 8.133-3.388-.02-.599-.028-1.197-.028-1.797 0-.493.005-.984.017-1.473z"/><g fill-rule="nonzero"><path d="m62.331 87.441c11.981 0 18.943 8.581 18.943 18.781 0 10.523-6.962 18.618-18.943 18.618-11.98 0-18.942-8.095-18.942-18.618 0-10.2 6.962-18.781 18.942-18.781zm47.437-22.828h-29.466v8.095c-6.152-7.285-16.19-10.847-25.742-10.847-24.609 0-41.608 20.4-41.608 44.199s17.323 44.36 41.932 44.36c9.714 0 19.914-3.723 25.094-11.98h.324v9.228h29.466z"/><path d="m158.824 64.613h-29.466v83.055h29.466v-33.513c0-14.247 4.047-25.095 20.399-25.095 4.533 0 8.419.486 12.466 2.753v-28.333h-5.666c-11.495 0-21.209 4.533-26.876 14.733h-.323z"/><path d="m262.601 66.718c-5.828-3.238-12.628-4.857-19.428-4.857-26.066 0-46.465 18.457-46.465 45.17 0 25.095 20.561 43.389 45.17 43.389 7.124 0 14.247-1.457 20.723-4.695v-24.932c-3.885 3.561-9.552 5.666-14.733 5.666-12.142 0-20.723-8.419-20.723-20.399 0-11.495 8.905-20.238 20.238-20.238 5.666 0 10.847 2.591 15.218 5.829z"/><path d="m324.285 87.441c11.981 0 18.942 8.581 18.942 18.781 0 10.523-6.961 18.618-18.942 18.618s-18.942-8.095-18.942-18.618c0-10.2 6.961-18.781 18.942-18.781zm47.437-22.828h-29.466v8.095c-6.152-7.285-16.19-10.847-25.742-10.847-24.609 0-41.608 20.4-41.608 44.199s17.323 44.36 41.932 44.36c9.714 0 19.913-3.723 25.094-11.98h.324v9.228h29.466z"/><path d="m453.805 147.668h29.465v-134.377h-29.465v59.417c-6.153-7.285-16.19-10.847-25.742-10.847-24.609 0-41.609 20.4-41.609 44.199s17.324 44.36 41.932 44.36c9.714 0 19.914-3.723 25.095-11.98h.324zm-17.971-60.227c11.98 0 18.942 8.581 18.942 18.781 0 10.523-6.962 18.618-18.942 18.618-11.981 0-18.942-8.095-18.942-18.618 0-10.2 6.961-18.781 18.942-18.781z"/><path d="m525.526 94.079c1.781-8.58 8.905-13.114 17.485-13.114 7.933 0 15.219 5.181 16.676 13.114zm61.522 13.924c0-28.333-16.676-46.142-45.494-46.142-27.037 0-45.979 16.676-45.979 44.361 0 28.656 20.561 44.198 48.084 44.198 9.552 0 18.942-2.266 26.551-6.961 7.61-4.696 13.438-11.819 15.705-21.533h-28.333c-3.238 5.505-7.771 7.609-14.085 7.609-12.142 0-18.457-6.476-18.457-18.456h62.008z"/></g><path d="m202.5 254.078c.624-2.422 1.366-4.975 2.226-7.658 1.554-4.848 3.391-9.93 5.51-15.243 2.12-5.313 4.387-10.58 6.801-15.801 2.415-5.22 4.874-10.201 7.377-14.94 2.504-4.74 4.921-8.92 7.251-12.541s4.487-6.53 6.47-8.729c1.983-2.198 3.621-3.362 4.913-3.492 1.051-.105 1.395 1.085 1.032 3.569-.363 2.485-1.209 5.855-2.537 10.11-1.328 4.254-2.999 9.155-5.013 14.703-2.015 5.548-4.15 11.312-6.407 17.292s-4.509 12-6.758 18.061-4.235 11.688-5.959 16.88c-1.723 5.192-3.102 9.757-4.135 13.697-1.033 3.939-1.46 6.798-1.282 8.575.235 2.344 1.524 3.398 3.867 3.163 1.616-.162 3.428-1.017 5.436-2.565 2.007-1.548 4.061-3.448 6.161-5.699s4.184-4.663 6.252-7.237c1.734-2.158 3.351-4.19 4.852-6.095.73-2.563 1.685-5.196 2.865-7.901 1.526-3.499 3.382-6.97 5.566-10.413 2.185-3.442 4.586-6.56 7.203-9.353 2.617-2.792 5.384-5.11 8.301-6.953 2.916-1.843 5.869-2.915 8.859-3.214 4.848-.487 8.781-.126 11.799 1.081 3.019 1.207 5.245 2.657 6.68 4.349 1.435 1.693 2.126 3.296 2.074 4.811-.052 1.516-.684 2.334-1.896 2.455-.485.049-.923-.254-1.315-.908-.393-.655-.871-1.362-1.437-2.121s-1.308-1.44-2.225-2.042c-.917-.601-2.144-.825-3.679-.671-3.313.332-6.538 1.737-9.677 4.214-3.138 2.478-6.02 5.481-8.645 9.008-2.625 3.528-4.941 7.29-6.948 11.287-2.007 3.996-3.596 7.685-4.766 11.067-1.171 3.382-1.851 6.164-2.04 8.345-.189 2.182.282 3.216 1.413 3.103 1.293-.13 2.824-1.14 4.593-3.032 1.769-1.891 3.639-4.2 5.609-6.928 1.971-2.728 4.019-5.708 6.143-8.941 2.124-3.232 4.232-6.219 6.324-8.958 2.092-2.74 4.083-5.062 5.974-6.965 1.89-1.904 3.643-2.937 5.259-3.099.889-.089 1.721.073 2.497.484.776.412 1.224 1.224 1.346 2.436.089.889-.314 2.562-1.211 5.018-.896 2.457-1.885 5.209-2.967 8.255-1.082 3.047-2.038 6.122-2.87 9.225-.831 3.103-1.137 5.745-.919 7.927.244 2.424 1.537 3.518 3.88 3.283 1.616-.162 3.428-1.017 5.435-2.565 2.008-1.548 4.041-3.445 6.101-5.692s4.122-4.678 6.186-7.292c1.584-2.008 3.085-3.899 4.501-5.673-.418-.461-.828-.924-1.231-1.388-1.661-1.915-2.589-3.842-2.783-5.781-.413-4.121.002-7.917 1.245-11.387 1.243-3.471 2.857-6.51 4.84-9.116 1.982-2.607 4.141-4.68 6.476-6.22s4.351-2.395 6.047-2.565c4.525-.454 8.129.082 10.812 1.609 2.683 1.526 4.143 3.461 4.378 5.804.137 1.374.055 2.79-.248 4.248-.302 1.459-.74 2.788-1.314 3.988-.573 1.201-1.227 2.205-1.962 3.013s-1.507 1.253-2.315 1.334c-1.212.121-1.802-.472-1.77-1.781s.231-2.778.599-4.406c.367-1.629.686-3.13.956-4.503.27-1.374.082-2.029-.564-1.964-.566.057-1.608.855-3.127 2.395-1.518 1.54-3.067 3.389-4.646 5.546-1.579 2.158-2.946 4.397-4.101 6.716-1.155 2.32-1.655 4.247-1.501 5.782.113 1.131.936 2.416 2.467 3.854 1.532 1.438 3.195 2.964 4.989 4.58 1.794 1.615 3.476 3.324 5.044 5.125 1.568 1.802 2.441 3.591 2.619 5.369.138 1.374-.118 2.889-.768 4.545-.65 1.657-1.575 3.219-2.774 4.686-1.2 1.467-2.626 2.711-4.278 3.734s-3.407 1.627-5.266 1.814c-3.716.372-7.011.07-9.884-.907s-5.255-2.145-7.146-3.506c-.24-.173-.471-.345-.693-.515-1.615 1.741-3.306 3.289-5.075 4.643-2.577 1.973-5.159 3.088-7.744 3.348-2.505.251-4.806.094-6.903-.471s-3.958-1.419-5.582-2.562c-1.625-1.143-2.985-2.496-4.08-4.059s-1.89-3.177-2.383-4.842c-1.51 2.029-3.031 3.957-4.562 5.783-1.53 1.827-3.061 3.449-4.592 4.868-1.531 1.418-3.007 2.566-4.429 3.443s-2.739 1.377-3.951 1.498c-1.616.162-3.22.038-4.812-.374s-3.038-1.205-4.34-2.38c-1.301-1.176-2.396-2.739-3.285-4.69-.577-1.265-1.026-2.714-1.348-4.347-1.023 1.506-2.103 2.965-3.24 4.379-2.25 2.796-4.643 5.178-7.179 7.147-2.537 1.968-5.098 3.082-7.684 3.341-2.343.235-4.595-.049-6.757-.853-2.162-.803-4.104-2.057-5.825-3.761-1.722-1.705-3.155-3.785-4.299-6.241-.914-1.963-1.561-4.123-1.942-6.478-1.604 2.817-3.375 5.688-5.311 8.613-2.835 4.283-5.961 8.514-9.378 12.693-3.416 4.178-7.056 7.971-10.917 11.378s-7.883 6.238-12.063 8.494c-4.181 2.255-8.453 3.602-12.817 4.04-4.605.462-9.021.17-13.248-.875-4.226-1.045-8.018-2.848-11.376-5.409-3.358-2.56-6.139-5.872-8.342-9.936s-3.58-8.843-4.131-14.338c-.818-8.16-.342-16.635 1.429-25.423 1.771-8.787 4.417-17.398 7.938-25.83 3.52-8.433 7.695-16.442 12.525-24.027s9.87-14.293 15.121-20.124c5.25-5.831 10.489-10.56 15.716-14.185 5.227-3.626 10.062-5.662 14.506-6.107 3.394-.341 6.588-.232 9.582.324 2.994.557 5.626 1.578 7.897 3.064 2.271 1.487 4.124 3.484 5.559 5.992 1.435 2.509 2.331 5.541 2.687 9.096.316 3.151.085 6.541-.694 10.169-.778 3.629-1.943 7.275-3.493 10.94-1.551 3.665-3.418 7.219-5.603 10.662-2.185 3.442-4.547 6.536-7.088 9.28-2.54 2.744-5.192 4.989-7.955 6.735s-5.478 2.753-8.144 3.02c-3.313.333-6.02-.008-8.121-1.022-2.101-1.013-3.649-2.204-4.643-3.574-.994-1.369-1.451-2.67-1.371-3.902.081-1.232.646-1.901 1.696-2.007.485-.048.788.125.91.521.121.396.246.833.376 1.309.129.477.376.901.739 1.273.364.371 1.112.5 2.243.387 3.07-.308 6.134-1.901 9.192-4.778 3.057-2.878 5.929-6.389 8.614-10.535 2.686-4.146 5.036-8.585 7.051-13.317 2.014-4.731 3.476-9.081 4.384-13.049.907-3.967 1.113-7.212.615-9.732-.498-2.521-1.878-3.668-4.14-3.441-3.717.372-7.953 2.286-12.707 5.742s-9.561 8.019-14.419 13.688c-4.859 5.67-9.564 12.263-14.115 19.779s-8.48 15.541-11.786 24.074c-3.307 8.534-5.787 17.373-7.441 26.516s-2.031 18.199-1.131 27.168c.178 1.778.556 3.515 1.135 5.212.578 1.696 1.421 3.183 2.528 4.459 1.107 1.277 2.512 2.258 4.213 2.944 1.701.687 3.723.912 6.066.677 5.979-.599 11.623-2.512 16.931-5.737 5.308-3.226 10.244-7.108 14.808-11.646 4.564-4.539 8.732-9.364 12.504-14.476s7.132-9.856 10.08-14.232c1.952-2.898 3.696-5.472 5.23-7.719zm108.559 4.305c1.756 1.721 3.402 3.399 4.937 5.035 1.645 1.753 2.544 3.397 2.698 4.932.219 2.181-.924 3.398-3.429 3.649-1.454.146-3.076.043-4.866-.308s-3.546-.766-5.267-1.247c-.444-.124-.879-.244-1.304-.362 1.857-2.43 3.551-5.007 5.083-7.729.771-1.37 1.487-2.693 2.148-3.97zm47.799-44.865c4.525-.454 8.129.082 10.812 1.608 2.683 1.527 4.142 3.462 4.377 5.805.138 1.374.055 2.79-.247 4.248-.303 1.459-.741 2.788-1.314 3.988s-1.228 2.204-1.963 3.013c-.735.808-1.506 1.253-2.314 1.334-1.212.121-1.802-.473-1.771-1.782.032-1.309.232-2.777.599-4.406.367-1.628.686-3.129.956-4.503.271-1.373.083-2.028-.564-1.963-.565.057-1.607.855-3.126 2.395s-3.068 3.388-4.647 5.546-2.946 4.397-4.101 6.716c-1.154 2.319-1.655 4.247-1.501 5.782.114 1.131.936 2.416 2.468 3.854 1.531 1.437 3.194 2.964 4.989 4.58 1.794 1.615 3.475 3.324 5.043 5.125 1.568 1.802 2.441 3.591 2.62 5.369.137 1.373-.119 2.889-.769 4.545-.65 1.657-1.574 3.219-2.774 4.686-1.199 1.466-2.625 2.711-4.277 3.734-1.652 1.022-3.408 1.627-5.266 1.813-3.717.373-7.012.071-9.885-.906-2.872-.977-5.254-2.146-7.146-3.507-1.891-1.361-3.202-2.637-3.934-3.829-.731-1.191-.774-1.819-.128-1.884.647-.065 1.683.096 3.109.484 1.427.387 3 .821 4.722 1.301 1.721.481 3.477.896 5.266 1.247 1.79.351 3.412.454 4.867.308 2.505-.251 3.648-1.468 3.429-3.649-.154-1.536-1.053-3.18-2.698-4.933s-3.417-3.554-5.317-5.404c-1.899-1.85-3.679-3.732-5.34-5.646-1.661-1.915-2.589-3.842-2.784-5.781-.413-4.121.002-7.917 1.246-11.388 1.243-3.47 2.856-6.509 4.839-9.116 1.983-2.606 4.142-4.679 6.477-6.219 2.334-1.54 4.35-2.395 6.047-2.565zm102.378 19.944c-.413-.902-.664-1.806-.755-2.714-.414-4.121.002-7.917 1.245-11.387 1.243-3.471 2.856-6.51 4.839-9.116 1.983-2.607 4.142-4.68 6.477-6.22s4.351-2.395 6.047-2.565c4.525-.454 8.129.082 10.812 1.609 2.683 1.526 4.142 3.461 4.377 5.804.138 1.374.056 2.79-.247 4.248-.302 1.459-.74 2.788-1.314 3.988-.573 1.2-1.227 2.205-1.962 3.013s-1.507 1.253-2.315 1.334c-1.212.121-1.802-.472-1.77-1.781s.231-2.778.599-4.406c.367-1.629.686-3.13.956-4.503.27-1.374.082-2.029-.564-1.964-.566.057-1.608.855-3.127 2.395-1.518 1.54-3.067 3.388-4.646 5.546s-2.946 4.397-4.101 6.716c-1.155 2.32-1.655 4.247-1.501 5.782.113 1.131.936 2.416 2.467 3.854 1.532 1.438 3.195 2.964 4.989 4.58 1.794 1.615 3.475 3.324 5.044 5.125 1.568 1.802 2.441 3.591 2.619 5.369.138 1.374-.118 2.889-.768 4.545-.65 1.657-1.575 3.219-2.774 4.686-1.2 1.467-2.626 2.711-4.278 3.734s-3.407 1.627-5.266 1.814c-3.717.372-7.011.07-9.884-.907s-5.255-2.146-7.146-3.507-3.203-2.637-3.934-3.828c-.271-.441-.447-.804-.529-1.09-.736.968-1.501 1.916-2.295 2.842-2.411 2.812-4.986 5.213-7.725 7.202-2.738 1.988-5.522 3.124-8.35 3.408-2.909.291-5.739-.057-8.49-1.046-2.752-.989-5.197-2.376-7.334-4.162-2.027-1.692-3.714-3.657-5.062-5.893-1.011 1.469-2.071 2.892-3.181 4.272-2.249 2.796-4.642 5.178-7.179 7.147-2.537 1.968-5.098 3.082-7.684 3.341-3.474.349-6.421.052-8.842-.888-2.42-.941-4.392-2.294-5.916-4.059-1.523-1.765-2.689-3.831-3.498-6.198-.809-2.368-1.335-4.763-1.578-7.187-.227-2.263-.102-4.887.374-7.873s1.17-6.034 2.082-9.145 1.951-6.174 3.118-9.188c1.167-3.015 2.305-5.7 3.416-8.055 1.11-2.356 2.122-4.274 3.034-5.752.913-1.479 1.612-2.243 2.097-2.292.969-.097 2.024.042 3.163.417 1.14.376 2.235.919 3.285 1.63 1.051.71 1.926 1.5 2.625 2.368.699.869 1.093 1.748 1.182 2.636.057.566-.237 1.697-.883 3.394s-1.46 3.758-2.441 6.182c-.981 2.425-2.019 5.1-3.113 8.025s-2.101 5.903-3.021 8.934c-.92 3.03-1.641 6.02-2.161 8.969-.52 2.95-.659 5.637-.416 8.061.235 2.343 1.565 3.393 3.989 3.15 1.616-.162 3.407-1.015 5.374-2.559s4.001-3.441 6.101-5.692c2.101-2.251 4.185-4.664 6.252-7.238l1.058-1.317c-.21-3.713.295-7.747 1.514-12.101 1.352-4.829 3.264-9.366 5.735-13.613 2.472-4.247 5.273-7.854 8.403-10.82s6.271-4.608 9.422-4.924c1.616-.162 3.38-.073 5.291.266 1.911.338 3.729.972 5.454 1.901 1.726.929 3.201 2.209 4.426 3.841 1.224 1.632 1.954 3.619 2.189 5.962.097.97.009 2.326-.266 4.067-.274 1.741-.792 3.487-1.556 5.236-.763 1.75-1.752 3.278-2.968 4.583-1.215 1.305-2.672 2.043-4.369 2.213-1.05.105-2.068-.078-3.054-.551-.986-.472-1.776-1.025-2.37-1.659-.594-.635-.92-1.234-.976-1.8-.057-.566.359-.893 1.248-.982 1.293-.13 2.567-1.053 3.823-2.771 1.256-1.717 2.255-3.552 2.998-5.503.743-1.952 1.096-3.722 1.059-5.309-.036-1.588-.661-2.321-1.873-2.2-1.939.195-4.197 1.686-6.774 4.475-2.577 2.788-4.966 6.231-7.166 10.328-2.201 4.098-3.977 8.561-5.329 13.389s-1.814 9.384-1.384 13.666c.129 1.293.457 2.321.982 3.085.526.763 1.132 1.314 1.819 1.653.687.34 1.382.556 2.085.648.703.093 1.256.119 1.66.079 1.778-.179 3.751-1.05 5.92-2.614 2.17-1.564 4.385-3.48 6.647-5.747s4.465-4.712 6.609-7.335c2.145-2.622 4.146-5.047 6.004-7.274 1.174-1.407 2.249-2.666 3.226-3.777zm2.894 4.049c1.41 1.577 2.901 3.132 4.475 4.664 1.899 1.85 3.671 3.652 5.316 5.404 1.645 1.753 2.544 3.398 2.698 4.933.219 2.181-.924 3.398-3.429 3.649-1.454.146-3.076.043-4.866-.308s-3.546-.766-5.267-1.247c-1.721-.48-3.295-.914-4.721-1.301-1.286-.349-2.255-.515-2.907-.497 1.27-1.727 2.45-3.521 3.541-5.382 1.882-3.208 3.443-6.16 4.682-8.855.167-.362.326-.715.478-1.06zm-61.157-34.539c-1.802-.88-2.939-2.459-3.413-4.738-.473-2.278-.141-4.658.998-7.139s2.754-4.275 4.847-5.383c2.092-1.108 4.039-1.221 5.842-.341 1.883.872 3.041 2.45 3.474 4.732.432 2.283.08 4.664-1.059 7.145s-2.754 4.276-4.847 5.383c-2.092 1.108-4.039 1.222-5.842.341z"/></g></svg>