<?xml version="1.0" encoding="UTF-8" standalone="no"?><!DOCTYPE svg PUBLIC "-//W3C//DTD SVG 1.1//EN" "http://www.w3.org/Graphics/SVG/1.1/DTD/svg11.dtd"><svg width="100%" height="100%" viewBox="0 0 600 144" version="1.1" xmlns="http://www.w3.org/2000/svg" xmlns:xlink="http://www.w3.org/1999/xlink" xml:space="preserve" xmlns:serif="http://www.serif.com/" style="fill-rule:evenodd;clip-rule:evenodd;stroke-linejoin:round;stroke-miterlimit:2;"><g id="arcade_bold"><path d="M51.607,77.496c12.522,-0 19.797,8.968 19.797,19.628c0,10.998 -7.275,19.458 -19.797,19.458c-12.521,0 -19.797,-8.46 -19.797,-19.458c0,-10.66 7.276,-19.628 19.797,-19.628Zm49.577,-23.858l-30.795,-0l0,8.46c-6.43,-7.614 -16.92,-11.337 -26.903,-11.337c-25.72,0 -43.486,21.32 -43.486,46.193c-0,24.873 18.105,46.362 43.824,46.362c10.152,0 20.812,-3.891 26.227,-12.521l0.338,0l0,9.645l30.795,-0l0,-86.802Z" style="fill:#fff;fill-rule:nonzero;"/><path d="M152.453,53.638l-30.795,-0l0,86.802l30.795,-0l0,-35.025c0,-14.89 4.231,-26.227 21.32,-26.227c4.738,-0 8.799,0.507 13.029,2.876l0,-29.611l-5.922,0c-12.014,0 -22.166,4.738 -28.088,15.398l-0.339,0l0,-14.213Z" style="fill:#fff;fill-rule:nonzero;"/><path d="M260.914,55.838c-6.092,-3.385 -13.198,-5.077 -20.305,-5.077c-27.242,0 -48.562,19.29 -48.562,47.209c0,26.226 21.489,45.346 47.208,45.346c7.446,0 14.891,-1.522 21.659,-4.907l-0,-26.057c-4.061,3.722 -9.983,5.922 -15.398,5.922c-12.69,0 -21.658,-8.799 -21.658,-21.32c-0,-12.013 9.306,-21.15 21.15,-21.15c5.923,-0 11.337,2.707 15.906,6.091l-0,-26.057Z" style="fill:#fff;fill-rule:nonzero;"/><path d="M325.381,77.496c12.521,-0 19.797,8.968 19.797,19.628c-0,10.998 -7.276,19.458 -19.797,19.458c-12.521,0 -19.797,-8.46 -19.797,-19.458c-0,-10.66 7.276,-19.628 19.797,-19.628Zm49.577,-23.858l-30.796,-0l0,8.46c-6.429,-7.614 -16.92,-11.337 -26.903,-11.337c-25.719,0 -43.486,21.32 -43.486,46.193c0,24.873 18.105,46.362 43.824,46.362c10.153,0 20.812,-3.891 26.227,-12.521l0.338,0l0,9.645l30.796,-0l-0,-86.802Z" style="fill:#fff;fill-rule:nonzero;"/><path d="M460.745,140.44l30.795,-0l-0,-140.44l-30.795,-0l-0,62.098c-6.43,-7.614 -16.921,-11.337 -26.904,-11.337c-25.719,0 -43.486,21.32 -43.486,46.193c0,24.873 18.105,46.362 43.824,46.362c10.153,0 20.813,-3.891 26.227,-12.521l0.339,0l-0,9.645Zm-18.782,-62.944c12.521,-0 19.797,8.968 19.797,19.628c-0,10.998 -7.276,19.458 -19.797,19.458c-12.521,0 -19.797,-8.46 -19.797,-19.458c-0,-10.66 7.276,-19.628 19.797,-19.628Z" style="fill:#fff;fill-rule:nonzero;"/><path d="M535.702,84.433c1.861,-8.968 9.306,-13.705 18.274,-13.705c8.291,-0 15.906,5.414 17.428,13.705l-35.702,0Zm64.298,14.552c-0,-29.611 -17.428,-48.224 -47.547,-48.224c-28.257,0 -48.054,17.429 -48.054,46.363c0,29.949 21.489,46.192 50.254,46.192c9.983,0 19.797,-2.368 27.75,-7.275c7.952,-4.907 14.044,-12.352 16.413,-22.505l-29.611,0c-3.384,5.753 -8.122,7.953 -14.721,7.953c-12.69,0 -19.289,-6.768 -19.289,-19.289l64.805,-0l-0,-3.215Z" style="fill:#fff;fill-rule:nonzero;"/></g></svg>