<svg clip-rule="evenodd" fill-rule="evenodd" stroke-linejoin="round" stroke-miterlimit="2" viewBox="0 0 600 102" xmlns="http://www.w3.org/2000/svg"><g fill="#fff" fill-rule="nonzero"><path d="m172.921 23.698c-3.76 12.637-7.311 25.272-11.07 37.91h22.036c-3.655-12.638-7.311-25.273-10.966-37.91zm-9.19-18.694c3.864-5.013 12.01-5.849 16.71-1.671 1.984 1.671 3.342 3.968 4.072 6.371 8.878 30.495 17.754 60.99 26.632 91.485h-15.666c-2.506-8.355-4.908-16.814-7.31-25.274h-30.287c-2.507 8.46-4.908 16.814-7.31 25.274h-15.561c8.459-29.138 16.814-58.171 25.273-87.204.836-3.133 1.254-6.475 3.447-8.981z"/><path d="m272.552 61.608h21.931c-3.654-12.638-7.309-25.378-10.965-38.015-3.655 12.742-7.31 25.377-10.966 38.015zm1.254-55.978c2.715-3.969 8.041-5.848 12.637-4.699 4.281.94 7.518 4.595 8.563 8.773 8.877 30.495 17.755 60.885 26.632 91.38h-15.666c-2.403-8.459-4.804-16.813-7.311-25.273h-30.286c-2.402 8.46-4.909 16.814-7.31 25.273h-15.561c8.459-29.242 16.919-58.484 25.378-87.726.94-2.506 1.252-5.43 2.924-7.728z"/><path d="m199.344.827h56.708v15.352h-20.887v85.01h-14.934v-85.01h-20.887v-15.352z"/><path d="m338.347 1.453c1.462-.522 2.924-.626 4.491-.626h17.858c10.026.208 19.634 6.37 24.02 15.455 3.029 5.849 3.342 12.742 2.611 19.112-.522 6.789-3.343 13.473-8.564 17.963-2.715 2.402-6.161 3.969-9.086 6.057-1.567 1.254-1.67 3.656-.836 5.327 7.938 12.218 16.188 24.229 24.229 36.343h-17.753c-7.729-11.592-15.353-23.288-23.081-34.985-2.297-3.343-2.923-7.729-1.566-11.488 1.044-2.924 3.551-5.014 6.371-6.163 5.431-2.088 10.652-5.326 13.681-10.338 2.297-3.864 2.193-8.564 1.148-12.741-1.148-5.43-6.474-9.713-12.114-9.504h-11.592c-1.776 0-3.343 1.462-3.343 3.237v81.878h-15.037v-88.144c0-5.012 3.654-9.816 8.563-11.383z"/><path d="m400.903.827h15.875v100.363h-15.875z"/><path d="m44.735.68h7.599v17.922c.048 4.97-.096 9.941-.334 14.959-.335 7.169-.813 14.386-1.96 21.507-.812 4.875-2.533 9.607-4.636 14.1-3.441 7.216-8.794 13.334-14.864 18.496-5.4 4.779-11.9 8.22-18.687 10.61-3.824 1.338-7.791 2.342-11.853 2.915v-15.007c4.875-.717 9.511-2.437 13.86-4.732 5.162-2.724 9.75-6.356 13.669-10.705 4.015-4.445 7.217-9.607 9.654-15.055 2.868-6.309 4.398-13.096 5.449-19.882 1.29-8.651 1.864-17.397 2.055-26.143.048-3.059.048-6.022.048-8.985z"/><path d="m55.441.68c4.683-.049 9.32 0 14.003 0v100.414h-14.003c-.048-10.658 0-21.364-.048-32.022.048-22.798.048-45.595.048-68.392z"/><path d="m72.551.68h7.551c-.095 10.227.287 20.407 1.482 30.587 1.004 7.886 2.389 15.82 5.544 23.132 2.963 7.122 7.264 13.717 12.856 19.022 5.353 5.066 11.805 8.985 18.831 11.231 1.96.622 3.967 1.1 6.022 1.434v15.008c-4.015-.526-7.934-1.578-11.757-2.868-4.541-1.577-8.938-3.633-13-6.261-2.963-1.912-5.64-4.158-8.221-6.548-4.253-3.918-8.029-8.363-10.897-13.43-2.246-3.919-3.871-8.172-5.161-12.474-1.147-4.349-1.673-8.842-2.103-13.334-.861-9.654-1.195-19.357-1.147-29.059v-16.44z"/><path d="m454.116 65.23 1.82 1.429c6.372 4.94 14.042 8.972 22.234 8.972 3.515 0 9.102-1.429 9.102-5.853 0-4.421-4.682-4.809-7.93-5.46l-7.154-1.299c-13.909-2.471-25.611-10.664-25.611-26.008-.005-23.273 21.192-36.275 42.516-36.275 11.179 0 21.452 2.73 31.075 8.582l-9.623 25.095c-6.11-4.157-13.001-7.411-20.672-7.411-3.12 0-7.673 1.168-7.673 5.199 0 3.643 4.423 4.16 7.15 4.811l8.063 1.823c15.082 3.379 26.006 11.442 26.006 28.086 0 23.404-21.324 34.978-42.52 34.978-12.355 0-26.654-3.38-37.708-8.973z"/><path d="m525.104 2.296h74.896v27.504l-19.634.055v70.483h-35.627v-70.484l-19.635-.054v-27.504z"/></g></svg>