<?xml version="1.0" encoding="UTF-8" standalone="no"?><!DOCTYPE svg PUBLIC "-//W3C//DTD SVG 1.1//EN" "http://www.w3.org/Graphics/SVG/1.1/DTD/svg11.dtd"><svg width="100%" height="100%" viewBox="0 0 600 173" version="1.1" xmlns="http://www.w3.org/2000/svg" xmlns:xlink="http://www.w3.org/1999/xlink" xml:space="preserve" xmlns:serif="http://www.serif.com/" style="fill-rule:evenodd;clip-rule:evenodd;stroke-linejoin:round;stroke-miterlimit:2;"><g id="atari_800_alt"><g><g><path d="M54.576,0.542l8.457,-0l0,19.947c0.053,5.532 -0.106,11.064 -0.372,16.649c-0.373,7.978 -0.904,16.011 -2.181,23.936c-0.904,5.426 -2.819,10.692 -5.16,15.692c-3.829,8.032 -9.787,14.841 -16.543,20.586c-6.01,5.319 -13.245,9.149 -20.798,11.808c-4.255,1.49 -8.67,2.607 -13.192,3.245l0,-16.702c5.426,-0.798 10.586,-2.713 15.426,-5.267c5.745,-3.031 10.852,-7.074 15.213,-11.915c4.469,-4.946 8.032,-10.691 10.745,-16.755c3.192,-7.022 4.894,-14.575 6.064,-22.128c1.436,-9.628 2.075,-19.362 2.287,-29.096c0.054,-3.405 0.054,-6.702 0.054,-10Z" style="fill:#fff;fill-rule:nonzero;"/><path d="M66.491,0.542c5.213,-0.054 10.372,-0 15.585,-0l-0,111.757l-15.585,-0c-0.054,-11.862 0,-23.777 -0.054,-35.639c0.054,-25.373 0.054,-50.746 0.054,-76.118Z" style="fill:#fff;fill-rule:nonzero;"/><path d="M85.534,0.542l8.404,-0c-0.106,11.383 0.319,22.713 1.649,34.043c1.117,8.776 2.659,17.606 6.17,25.744c3.298,7.926 8.085,15.267 14.309,21.171c5.957,5.639 13.139,10 20.958,12.5c2.181,0.692 4.415,1.224 6.702,1.596l0,16.703c-4.468,-0.585 -8.83,-1.756 -13.085,-3.192c-5.053,-1.755 -9.947,-4.043 -14.468,-6.968c-3.298,-2.128 -6.277,-4.628 -9.15,-7.288c-4.734,-4.361 -8.936,-9.308 -12.128,-14.946c-2.499,-4.362 -4.308,-9.096 -5.744,-13.884c-1.277,-4.84 -1.862,-9.841 -2.341,-14.84c-0.957,-10.745 -1.33,-21.543 -1.276,-32.341l-0,-18.298Z" style="fill:#fff;fill-rule:nonzero;"/><path d="M19.309,132.618c-1.915,6.437 -3.724,12.872 -5.638,19.309l11.223,-0c-1.861,-6.437 -3.723,-12.872 -5.585,-19.309Zm-4.681,-9.521c1.968,-2.553 6.117,-2.979 8.511,-0.852c1.011,0.852 1.702,2.022 2.074,3.246c4.522,15.532 9.043,31.064 13.564,46.596l-7.978,0c-1.277,-4.256 -2.5,-8.564 -3.724,-12.873l-15.426,0c-1.277,4.309 -2.5,8.564 -3.723,12.873l-7.926,0c4.309,-14.841 8.564,-29.628 12.873,-44.416c0.425,-1.596 0.638,-3.298 1.755,-4.574Z" style="fill:#fff;fill-rule:nonzero;"/><path d="M70.055,151.927l11.17,-0c-1.862,-6.437 -3.723,-12.925 -5.585,-19.362c-1.862,6.49 -3.724,12.925 -5.585,19.362Zm0.638,-28.511c1.383,-2.022 4.096,-2.979 6.436,-2.394c2.181,0.479 3.83,2.341 4.362,4.469c4.521,15.532 9.043,31.011 13.564,46.543l-7.979,-0c-1.223,-4.309 -2.447,-8.564 -3.723,-12.873l-15.426,0c-1.224,4.309 -2.5,8.564 -3.723,12.873l-7.926,-0c4.309,-14.894 8.617,-29.788 12.926,-44.682c0.479,-1.277 0.638,-2.766 1.489,-3.936Z" style="fill:#fff;fill-rule:nonzero;"/><path d="M32.767,120.969l28.883,0l0,7.819l-10.638,0l-0,43.299l-7.607,0l0,-43.299l-10.638,0l-0,-7.819Z" style="fill:#fff;fill-rule:nonzero;"/><path d="M103.566,121.288c0.745,-0.266 1.489,-0.319 2.287,-0.319l9.096,0c5.107,0.106 10,3.245 12.235,7.872c1.542,2.979 1.702,6.49 1.329,9.735c-0.266,3.457 -1.702,6.862 -4.362,9.149c-1.382,1.223 -3.138,2.021 -4.627,3.085c-0.798,0.638 -0.851,1.862 -0.426,2.713c4.043,6.223 8.245,12.341 12.341,18.511l-9.043,-0c-3.936,-5.904 -7.819,-11.862 -11.756,-17.82c-1.17,-1.702 -1.489,-3.936 -0.798,-5.851c0.532,-1.489 1.809,-2.553 3.245,-3.139c2.767,-1.063 5.426,-2.712 6.969,-5.265c1.17,-1.968 1.117,-4.362 0.585,-6.49c-0.585,-2.765 -3.298,-4.947 -6.17,-4.84l-5.905,-0c-0.904,-0 -1.702,0.745 -1.702,1.649l-0,41.702l-7.66,0l0,-44.894c0,-2.553 1.862,-5 4.362,-5.798Z" style="fill:#fff;fill-rule:nonzero;"/><rect x="135.428" y="120.969" width="8.086" height="51.118" style="fill:#fff;fill-rule:nonzero;"/></g></g><g><g><path d="M524.8,161.504c-41.464,-0 -75.204,-33.736 -75.204,-75.202c-0,-41.469 33.74,-75.201 75.204,-75.201c41.468,0 75.2,33.734 75.2,75.203c-0.002,41.464 -33.732,75.2 -75.2,75.2Zm-0,-144.881c-38.422,0 -69.68,31.258 -69.68,69.679c-0,38.422 31.258,69.68 69.68,69.68c38.418,-0 69.676,-31.258 69.676,-69.68c0,-38.419 -31.258,-69.679 -69.676,-69.679Zm-0,120.911c-28.242,-0 -51.227,-22.981 -51.227,-51.225c0,-28.246 22.985,-51.224 51.227,-51.224c28.242,-0 51.223,22.978 51.223,51.224c-0.002,28.244 -22.981,51.225 -51.223,51.225Zm-0,-96.924c-25.2,0 -45.703,20.503 -45.703,45.699c0,25.2 20.503,45.703 45.703,45.703c25.198,-0 45.699,-20.503 45.699,-45.703c-0,-25.198 -20.503,-45.699 -45.699,-45.699Z" style="fill:#fff;fill-rule:nonzero;"/><path d="M366.753,161.504c-41.465,-0 -75.204,-33.736 -75.204,-75.202c0.002,-41.469 33.739,-75.201 75.204,-75.201c41.468,0 75.2,33.734 75.2,75.203c-0,41.464 -33.732,75.2 -75.2,75.2Zm-0,-144.881c-38.419,0 -69.68,31.258 -69.68,69.679c-0,38.422 31.261,69.68 69.68,69.68c38.418,-0 69.676,-31.258 69.676,-69.68c0.002,-38.419 -31.256,-69.679 -69.676,-69.679Zm-0,120.911c-28.246,-0 -51.227,-22.981 -51.227,-51.225c0,-28.246 22.981,-51.224 51.227,-51.224c28.242,-0 51.223,22.978 51.223,51.224c-0,28.244 -22.981,51.225 -51.223,51.225Zm-0,-96.924c-25.201,0 -45.703,20.503 -45.703,45.699c0,25.2 20.502,45.703 45.703,45.703c25.2,-0 45.699,-20.503 45.699,-45.703c0.002,-25.198 -20.501,-45.699 -45.699,-45.699Z" style="fill:#fff;fill-rule:nonzero;"/><path d="M232.886,161.504c-29.043,-0 -52.668,-23.625 -52.668,-52.672c0,-17.428 8.806,-33.88 23.161,-43.629c-3.668,-5.659 -5.588,-12.172 -5.588,-19.006c-0.002,-19.35 15.742,-35.096 35.095,-35.096c19.354,0 35.099,15.746 35.099,35.094c0,6.834 -1.929,13.344 -5.596,19.006c14.362,9.749 23.165,26.197 23.165,43.629c0.004,29.049 -23.624,52.674 -52.668,52.674Zm0,-144.881c-16.308,0 -29.577,13.266 -29.577,29.574c-0,6.606 2.14,12.861 6.183,18.085l1.91,2.463l-2.677,1.597c-14.179,8.482 -22.985,23.996 -22.985,40.49c0,25.994 21.152,47.15 47.146,47.15c25.998,-0 47.15,-21.156 47.15,-47.15c-0,-16.498 -8.809,-32.01 -22.986,-40.49l-2.67,-1.597l1.903,-2.463c4.046,-5.224 6.182,-11.479 6.182,-18.085c-0.002,-16.306 -13.271,-29.574 -29.579,-29.574Zm0,123.021c-16.985,-0 -30.809,-13.815 -30.809,-30.812c-0,-16.984 13.818,-30.81 30.809,-30.81c16.986,0 30.81,13.821 30.81,30.81c-0,16.997 -13.82,30.812 -30.81,30.812Zm0,-56.098c-13.945,0 -25.286,11.348 -25.286,25.29c0,13.945 11.346,25.289 25.286,25.289c13.946,0 25.286,-11.346 25.286,-25.289c-0,-13.942 -11.34,-25.29 -25.286,-25.29Zm0,-21.86c-8.537,0 -15.48,-6.946 -15.48,-15.483c0,-8.536 6.943,-15.478 15.48,-15.478c8.538,-0 15.48,6.942 15.48,15.478c0.004,8.537 -6.942,15.483 -15.48,15.483Zm0,-25.443c-5.493,-0 -9.958,4.47 -9.958,9.958c0,5.495 4.467,9.961 9.958,9.961c5.498,0 9.962,-4.47 9.962,-9.961c-0,-5.49 -4.466,-9.958 -9.962,-9.958Z" style="fill:#fff;fill-rule:nonzero;"/></g></g></g></svg>