<svg clip-rule="evenodd" fill-rule="evenodd" stroke-linejoin="round" stroke-miterlimit="2" viewBox="0 0 600 92" xmlns="http://www.w3.org/2000/svg"><g fill="#fff" fill-rule="nonzero"><path d="m157.104 21.542c-3.416 11.481-6.643 22.96-10.058 34.442h20.02c-3.321-11.482-6.642-22.961-9.962-34.442zm-8.35-16.985c3.51-4.554 10.911-5.313 15.181-1.518 1.803 1.518 3.037 3.606 3.7 5.788 8.066 27.706 16.13 55.411 24.195 83.118h-14.232c-2.277-7.592-4.459-15.277-6.641-22.963h-27.517c-2.277 7.686-4.459 15.276-6.642 22.963h-14.137c7.686-26.473 15.276-52.851 22.962-79.228.759-2.846 1.138-5.882 3.131-8.16z"/><path d="m247.621 55.984h19.925c-3.32-11.482-6.641-23.056-9.962-34.537-3.321 11.576-6.642 23.055-9.963 34.537zm1.139-50.857c2.467-3.606 7.306-5.313 11.481-4.27 3.89.854 6.831 4.175 7.78 7.97 8.065 27.706 16.13 55.317 24.195 83.022h-14.233c-2.182-7.686-4.364-15.275-6.641-22.962h-27.516c-2.182 7.687-4.46 15.276-6.642 22.962h-14.137c7.685-26.567 15.371-53.134 23.056-79.701.854-2.277 1.138-4.934 2.657-7.021z"/><path d="m181.109.762h51.521v13.948h-18.977v77.235h-13.568v-77.235h-18.976v-13.948z"/><path d="m307.397 1.332c1.328-.475 2.657-.57 4.08-.57h16.225c9.109.189 17.838 5.788 21.823 14.042 2.751 5.314 3.036 11.576 2.372 17.364-.475 6.168-3.037 12.24-7.781 16.32-2.466 2.182-5.598 3.606-8.255 5.503-1.423 1.139-1.517 3.321-.759 4.839 7.211 11.101 14.707 22.013 22.013 33.019h-16.129c-7.022-10.532-13.949-21.158-20.97-31.785-2.087-3.037-2.656-7.022-1.423-10.437.949-2.657 3.226-4.555 5.788-5.599 4.934-1.897 9.678-4.839 12.43-9.393 2.087-3.51 1.992-7.78 1.043-11.575-1.043-4.934-5.882-8.824-11.006-8.635h-10.532c-1.613 0-3.037 1.329-3.037 2.941v74.388h-13.662v-80.08c0-4.555 3.321-8.919 7.78-10.342z"/><path d="m364.231.762h14.423v91.182h-14.423z"/><path d="m40.643.629h6.904v16.283c.043 4.516-.087 9.032-.304 13.591-.304 6.513-.738 13.07-1.78 19.539-.738 4.43-2.302 8.728-4.212 12.81-3.127 6.557-7.99 12.115-13.504 16.804-4.907 4.342-10.812 7.469-16.978 9.64-3.474 1.216-7.078 2.127-10.769 2.649v-13.635c4.429-.651 8.641-2.214 12.592-4.299 4.69-2.475 8.858-5.775 12.419-9.726 3.648-4.038 6.557-8.728 8.771-13.678 2.605-5.732 3.995-11.898 4.95-18.063 1.173-7.86 1.694-15.806 1.867-23.752.044-2.779.044-5.471.044-8.163z"/><path d="m50.37.629c4.255-.044 8.467 0 12.722 0v91.229h-12.722c-.044-9.683 0-19.41-.044-29.093.044-20.712.044-41.424.044-62.136z"/><path d="m65.915.629h6.86c-.087 9.292.26 18.541 1.346 27.79.912 7.164 2.171 14.372 5.037 21.015 2.692 6.471 6.6 12.463 11.68 17.283 4.863 4.602 10.726 8.163 17.109 10.203 1.78.565 3.604.999 5.471 1.303v13.635c-3.648-.478-7.208-1.433-10.682-2.606-4.125-1.433-8.12-3.3-11.81-5.688-2.693-1.737-5.124-3.778-7.469-5.949-3.865-3.56-7.295-7.598-9.9-12.201-2.041-3.561-3.517-7.425-4.69-11.333-1.042-3.952-1.519-8.033-1.911-12.115-.781-8.771-1.085-17.586-1.041-26.4v-14.937z"/><path d="m535.246 91.902h-11.869c-25.124 0-45.564-20.44-45.564-45.564 0-25.125 20.44-45.565 45.564-45.565h11.869v3.888h-11.869c-22.981 0-41.676 18.696-41.676 41.677 0 22.98 18.696 41.676 41.676 41.676h11.869z"/><path d="m535.246 84.589h-11.869c-21.091 0-38.251-17.159-38.251-38.251s17.159-38.251 38.251-38.251h11.869v3.889h-11.869c-18.948 0-34.363 15.415-34.363 34.363 0 18.947 15.415 34.363 34.363 34.363h11.869v3.888z"/><path d="m523.372 77.343c-16.96-.018-30.905-13.978-30.905-30.937 0-16.896 13.84-30.827 30.735-30.937l12.033-.069.023 3.888-12.033.069c-14.801.054-26.949 12.248-26.949 27.049 0 14.839 12.21 27.049 27.049 27.049h.048.157l11.706-.066.023 3.888-11.706.066z"/><path d="m535.246 69.964h-11.869c-12.96 0-23.625-10.665-23.625-23.625s10.665-23.625 23.625-23.625h11.869v3.888h-11.869c-10.802.037-19.67 8.935-19.67 19.737s8.868 19.7 19.67 19.736h11.869z"/><path d="m569.071 70.045h-24.162v-3.888h24.163c.966 0 1.761-.795 1.761-1.761 0-.453-.175-.889-.488-1.217l-15.734-16.457c-7.644-7.997-9.692-19.283-5.344-29.456s13.922-16.493 24.985-16.493h23.793v3.888h-23.794c-9.48 0-17.684 5.416-21.41 14.133-3.725 8.717-1.971 18.389 4.58 25.241l15.734 16.457c1.005 1.051 1.566 2.451 1.566 3.905 0 3.098-2.549 5.648-5.648 5.648-.001 0-.001 0-.002 0z"/><path d="m570.438 77.331h-25.529v-3.888h25.53.001c4.86 0 8.86-4 8.86-8.86 0-2.259-.864-4.434-2.413-6.077l-16.498-17.506c-5.435-5.767-6.86-13.871-3.72-21.145 3.141-7.275 10.014-11.797 17.94-11.797h23.435v3.889h-23.435c-8.586.001-15.651 7.066-15.651 15.652 0 3.989 1.525 7.831 4.261 10.734l16.498 17.506c2.228 2.365 3.47 5.494 3.47 8.743 0 6.994-5.754 12.749-12.748 12.749z"/><path d="m571.558 84.616h-26.649v-3.888h26.651c8.753 0 15.957-7.203 15.957-15.957 0-4.09-1.573-8.027-4.39-10.991l-16.496-17.362c-2.203-2.319-3.433-5.397-3.433-8.595 0-6.846 5.633-12.478 12.478-12.478h22.368v3.888h-22.368c-4.173 0-6.814 2.688-7.893 5.202s-1.208 6.279 1.666 9.305l16.497 17.362c5.557 5.847 7.032 14.085 3.849 21.497-3.182 7.413-10.17 12.017-18.237 12.017z"/><path d="m573.048 91.902h-28.139v-3.888h28.14c9.358 0 17.46-5.344 21.144-13.946s1.961-18.154-4.496-24.927l-16.171-16.964c-1.001-1.05-1.561-2.447-1.561-3.898 0-3.099 2.55-5.649 5.649-5.649h.001 20.43v3.889h-20.43c-.966 0-1.761.794-1.761 1.76 0 .453.174.888.487 1.215l16.171 16.964c7.548 7.919 9.562 19.084 5.255 29.141-4.307 10.056-13.78 16.303-24.719 16.303z"/><path d="m437.955 91.944-4.026-.021 26.943-91.155 3.874-.006z"/><path d="m445.604 91.944-4.026-.021 26.943-91.155 3.875-.006z"/><path d="m453.353 91.944-4.026-.021 26.943-91.155 3.874-.006z"/><path d="m436.145 45.533-13.189-44.765h4.001l11.214 37.894z"/><path d="m432.238 58.789-17.097-58.021h4.001l15.122 51.146z"/><path d="m428.347 71.989-20.987-71.221h4l19.014 64.345z"/><path d="m426.58 91.945-26.902-91.177h3.999l24.767 83.754 24.779-83.754 3.874-.006-26.787 91.182z"/></g></svg>