<?xml version="1.0" encoding="UTF-8" standalone="no"?><!DOCTYPE svg PUBLIC "-//W3C//DTD SVG 1.1//EN" "http://www.w3.org/Graphics/SVG/1.1/DTD/svg11.dtd"><svg width="100%" height="100%" viewBox="0 0 600 160" version="1.1" xmlns="http://www.w3.org/2000/svg" xmlns:xlink="http://www.w3.org/1999/xlink" xml:space="preserve" xmlns:serif="http://www.serif.com/" style="fill-rule:evenodd;clip-rule:evenodd;stroke-linejoin:round;stroke-miterlimit:2;"><g id="atari_jaguar_flat"><g><g><path d="M43.237,0.904l6.7,0l0,15.803c0.043,4.383 -0.084,8.766 -0.295,13.19c-0.295,6.321 -0.716,12.685 -1.727,18.964c-0.717,4.298 -2.234,8.47 -4.088,12.432c-3.034,6.363 -7.754,11.757 -13.106,16.308c-4.762,4.214 -10.493,7.248 -16.477,9.355c-3.371,1.18 -6.869,2.065 -10.451,2.571l-0,-13.232c4.298,-0.633 8.386,-2.149 12.221,-4.172c4.551,-2.402 8.597,-5.605 12.052,-9.44c3.54,-3.919 6.363,-8.47 8.513,-13.274c2.528,-5.563 3.877,-11.547 4.804,-17.531c1.137,-7.628 1.643,-15.339 1.812,-23.051c0.042,-2.697 0.042,-5.31 0.042,-7.923Z" style="fill:#fff;fill-rule:nonzero;"/><path d="M52.677,0.904c4.129,-0.042 8.217,0 12.347,0l-0,88.539l-12.347,-0c-0.043,-9.398 -0,-18.837 -0.043,-28.235c0.043,-20.101 0.043,-40.203 0.043,-60.304Z" style="fill:#fff;fill-rule:nonzero;"/><path d="M67.763,0.904l6.659,0c-0.085,9.019 0.252,17.995 1.306,26.971c0.885,6.953 2.107,13.948 4.888,20.396c2.613,6.279 6.405,12.094 11.336,16.772c4.72,4.467 10.409,7.922 16.604,9.903c1.728,0.548 3.497,0.969 5.309,1.264l0,13.233c-3.54,-0.464 -6.995,-1.391 -10.366,-2.529c-4.004,-1.391 -7.881,-3.203 -11.462,-5.52c-2.613,-1.686 -4.973,-3.667 -7.249,-5.774c-3.75,-3.455 -7.079,-7.374 -9.608,-11.841c-1.981,-3.456 -3.413,-7.206 -4.551,-10.999c-1.012,-3.835 -1.475,-7.796 -1.855,-11.757c-0.758,-8.513 -1.053,-17.068 -1.011,-25.622l0,-14.497Z" style="fill:#fff;fill-rule:nonzero;"/><path d="M15.297,105.541c-1.517,5.099 -2.95,10.197 -4.467,15.297l8.892,-0c-1.475,-5.1 -2.95,-10.198 -4.425,-15.297Zm-3.708,-7.544c1.559,-2.022 4.846,-2.36 6.743,-0.674c0.8,0.674 1.348,1.601 1.643,2.571c3.582,12.305 7.164,24.61 10.746,36.915l-6.321,0c-1.012,-3.371 -1.981,-6.784 -2.95,-10.198l-12.221,-0c-1.012,3.414 -1.981,6.785 -2.95,10.198l-6.279,0c3.413,-11.757 6.785,-23.473 10.198,-35.188c0.337,-1.264 0.506,-2.612 1.391,-3.624Z" style="fill:#fff;fill-rule:nonzero;"/><path d="M55.5,120.838l8.849,-0c-1.474,-5.1 -2.949,-10.24 -4.424,-15.34c-1.475,5.142 -2.95,10.24 -4.425,15.34Zm0.506,-22.588c1.095,-1.601 3.245,-2.36 5.099,-1.896c1.728,0.379 3.034,1.854 3.455,3.54c3.582,12.305 7.165,24.568 10.747,36.873l-6.322,0c-0.969,-3.413 -1.938,-6.784 -2.95,-10.198l-12.221,-0c-0.969,3.414 -1.98,6.785 -2.949,10.198l-6.279,0c3.413,-11.799 6.826,-23.599 10.24,-35.398c0.379,-1.012 0.505,-2.192 1.18,-3.119Z" style="fill:#fff;fill-rule:nonzero;"/><path d="M25.959,96.312l22.883,-0l-0,6.194l-8.429,0l0,34.303l-6.026,0l0,-34.303l-8.428,0l0,-6.194Z" style="fill:#fff;fill-rule:nonzero;"/><path d="M82.049,96.565c0.59,-0.211 1.18,-0.253 1.812,-0.253l7.206,-0c4.046,0.084 7.923,2.57 9.693,6.236c1.222,2.36 1.348,5.142 1.053,7.712c-0.211,2.74 -1.349,5.437 -3.456,7.249c-1.095,0.969 -2.486,1.601 -3.666,2.444c-0.632,0.505 -0.674,1.475 -0.337,2.149c3.203,4.93 6.532,9.777 9.777,14.665l-7.164,0c-3.119,-4.677 -6.195,-9.397 -9.313,-14.117c-0.927,-1.349 -1.18,-3.119 -0.633,-4.636c0.422,-1.179 1.433,-2.023 2.571,-2.486c2.192,-0.843 4.299,-2.149 5.521,-4.172c0.927,-1.559 0.885,-3.456 0.463,-5.141c-0.463,-2.191 -2.612,-3.919 -4.888,-3.835l-4.678,0c-0.716,0 -1.348,0.59 -1.348,1.306l-0,33.039l-6.068,-0l-0,-35.567c-0,-2.023 1.474,-3.961 3.455,-4.593Z" style="fill:#fff;fill-rule:nonzero;"/><rect x="107.291" y="96.312" width="6.406" height="40.498" style="fill:#fff;fill-rule:nonzero;"/></g></g><g><path d="M240.086,32.212c0.611,0.15 0.899,-0.479 1.348,-0.749c0.72,-0.432 7.475,-2.548 7.547,-2.626c0.683,-0.677 -0.342,-2.331 0.246,-2.697c0.629,-0.396 1.954,-0.21 2.475,-0.522c2.608,-1.564 6.528,-1.636 9.07,-3.224c0.779,-0.492 1.516,-1.775 2.32,-2.098c1.654,-0.66 3.686,-0.636 5.472,-1.349c0.923,-0.372 1.175,-1.834 1.727,-2.476c1.043,-1.217 2.212,-1.486 3.446,-2.469c1.775,-1.427 -6.809,0.281 -3.674,-2.854c3.009,-3.009 15.165,-1.822 16.34,-2.997l0.222,-0.371c0.821,-0.822 2.847,0.161 2.847,-2.098l0,-0.75c-0.096,-0.066 -7.816,0.756 -8.392,0.899c-5.041,1.259 -11.539,0.678 -16.262,2.098c-2.044,0.612 -12.576,2.272 -13.349,3.045l-1.865,1.301c-8.763,1.751 -17.617,2.734 -26.386,4.196c-4.346,0.726 -10.694,0.923 -14.489,2.188c-3.464,1.157 -9.045,1.427 -12.492,2.386c-2.71,0.755 -10.34,-0.875 -12.738,0.15c-0.551,0.234 -1.114,2.931 -0.749,3.297c0.323,0.329 1.319,0.245 1.721,0.527c0.353,0.246 0.976,0.558 0.749,1.121c-0.306,0.761 -3.393,-0.144 -4.196,1.199c-0.977,1.63 2.481,3.884 3.074,4.873c0.912,1.517 -2.673,2.2 -1.875,4.196l1.498,0c0.75,0 1.385,0.24 1.876,0.977l0.654,0.522c1.432,2.026 34.797,-3.597 34.797,-3.597c-0,0 -9.747,83.159 -49.165,87.541c-8.998,1.001 -18.547,-10.556 -19.189,-10.796c-0.592,-0.222 -1.749,-0.276 -2.133,0.012c-0.384,0.294 -0.809,2.098 0.378,3.447c4.483,5.101 17.827,16.052 31.134,15.729c41.372,-0.995 58.013,-98.031 58.013,-98.031Z" style="fill:#fff;fill-rule:nonzero;"/><path d="M258.818,68.669l-0.072,-0.03c-0,-2.253 5.095,-9.453 5.922,-12.743l0,-0.078c0.552,-0.276 0.719,-2.11 0.899,-2.248c1.475,-1.103 3.848,-6.318 6.072,-8.542l2.398,-2.326c0.162,-0.162 0.51,-0.312 0.671,-0.15c0.39,0.39 -0.089,7.331 -0.221,8.009c-0.432,2.14 0.269,8.853 -0.15,9.83c-0.45,1.055 -2.302,1.583 -4.22,2.626c-2.602,1.42 -5.557,3.243 -7.325,3.596c-0.989,0.198 -0.839,2.248 -3.896,2.248l-0.078,-0.192Zm-21.658,8.063l0,0.221c0,4.202 2.926,1.277 3.897,2.248c0.185,0.186 -0.084,2.056 -0.222,2.326c-3.459,6.911 -6.426,14.099 -10.868,20.764c-0.264,0.39 -0.24,0.923 -0.449,1.349c-1.553,3.105 -3.975,6.522 -5.245,9.063c-0.486,0.971 -0.576,2.044 -1.127,3.153c-0.06,0.12 -0.3,2.092 -0.45,1.799c0,2.649 -2.769,7.355 -1.798,9.291c0.288,0.581 0.132,-0.462 0.449,-0.671c0.702,-0.474 1.763,-0.851 2.248,-1.577c0.414,-0.623 1.289,-4.76 1.577,-4.945c1.043,-0.695 1.648,-2.117 1.648,-0.228c0,0.869 0.042,1.438 -0.228,2.248c-0.113,0.341 0.114,0.791 0,1.127l-0.299,0.671l-0,1.127l0.299,-0.45l0.228,-0.449c0.126,-0.252 0.042,-0.534 0.222,-0.899c0.336,-0.671 0.09,-0.516 0.078,-0.528c-0,-0.006 0.072,-0.072 0.372,-0.372c0.551,-0.551 0.119,-1.696 0.677,-2.247c0.252,-0.258 1.492,-2.386 1.798,-2.998l1.349,-2.475c0.216,-0.438 0.36,-1.212 0.671,-0.899c1.613,1.612 1.223,5.862 0.45,8.17c-0.072,0.216 -0.558,1.462 -0.45,1.57c0.15,0.15 0.264,-0.353 0.45,-0.449c2.116,-1.055 0.563,-3.333 1.127,-3.897c2.158,-2.157 2.493,-6.089 4.723,-8.32c3.747,-3.746 10.748,-27.909 14.315,-31.475c2.829,-2.83 18.084,-6.097 20.986,-8.992c1.882,-1.888 1.798,3.393 1.798,4.046c-0,1.834 -0.108,16.173 -0,16.484c0.485,1.457 1.337,2.29 1.798,3.675c0.713,2.146 -0.647,10.592 1.649,12.894c0.329,0.329 0.203,-0.432 0.227,-0.45c0.282,-0.288 1.121,-2.29 1.121,-2.775c0,-0.474 0.114,-1.685 0.45,-1.349c0.258,0.252 2.254,7.277 2.475,7.493c0.48,0.479 -0.078,1.42 0.222,2.026c0.162,0.318 0.618,0.587 0.678,0.671c0.089,0.144 0.149,0.606 0.221,0.456c0.486,-0.971 0.306,-2.41 0.899,-3.603c0.492,-0.977 0.468,-3.236 1.127,-3.896c1.025,-1.025 2.524,2.602 2.698,2.775c0.174,0.174 0.947,0.852 1.127,0.672l-0,-4.568c-0,-7.157 -0,-46.545 0.222,-46.995c0.323,-0.647 1.876,-24.606 1.876,-27.358c-0,-3.411 -0.57,-2.589 -2.326,-4.346c-0.366,-0.359 -0.156,-3.752 -0.228,-3.824l-1.798,-1.571c-0.689,-0.695 -5.635,2.248 -7.643,2.248c-4.376,0 -3.297,1.421 -5.473,3.597c-0.113,0.12 -0.329,-0.108 -0.449,-0.222c-0.468,-0.473 -0.45,-0.491 -0.45,-1.349l0,-0.677c-0.335,-0.168 -2.05,0.545 -2.248,0.677c-1.198,0.798 -2.253,3.681 -2.919,5.018c-1.271,2.541 -3.231,4.507 -4.573,7.199c-0.54,1.079 -1.109,4.999 -1.799,5.694c-3.32,3.315 -9.321,13.17 -11.317,17.162c-0.228,0.455 -1.127,3.596 -1.127,3.596c-0.953,0.953 -5.443,8.758 -5.844,9.969c-0.192,0.569 -3.585,1.954 -4.274,2.248c-0.671,0.293 -1.577,0.156 -2.098,0.677c-0.324,0.324 -0.138,0.33 -0.138,0.342c0,0.012 -0.06,0.024 -0.312,0.108Z" style="fill:#fff;fill-rule:nonzero;"/><path d="M334.849,22.561l-0.03,-0.018l0.15,0c0.443,0.15 0.965,0.12 1.349,0.372c0.377,0.252 0.089,-0.27 0.449,0c0.552,0.42 1.631,1.565 2.398,1.954c0.407,0.198 1.115,0.072 1.576,0.072l0.6,0c0.216,0.869 2.655,4.981 3.596,5.545c0.54,0.324 1.751,0.312 2.476,0.677c0.174,0.084 0.569,-0.012 0.749,0.072l0.3,0c-0,1.181 -2.937,2.014 -2.098,2.847c1.247,1.253 1.517,2.752 -1.277,3.453c-2.086,0.522 -4.442,-0.282 -6.444,0.522c-2.355,0.941 -4.729,2.829 -7.199,3.446l-0.072,0c-11.754,3.921 -24.061,20.579 -24.061,33.131l0,0.449c0,8.284 4.904,17.743 12.444,20.758c1.037,0.42 1.859,1.583 3.147,1.799c1.019,0.174 2.392,0.827 3.675,0.827c0.899,-0 5.952,0.785 6.666,0.372c1.714,-0.978 3.62,-1.559 5.322,-2.698c0.906,-0.599 0.204,-3.572 -0.149,-3.746c-1.925,-0.965 -0.228,-12.81 0.527,-15.064c0.623,-1.87 1.948,-4.795 0.899,-5.844l-0.3,-0.3c-0.071,-0.072 -1.288,-0.318 -1.426,-0.228c-1.589,1.061 -6.018,0.378 -6.672,0.749c-2.29,1.307 -4.603,2.326 -6.893,3.597c-0.612,0.342 -4.43,2.685 -4.874,1.798c-0.095,-0.198 0.486,-0.557 0.6,-0.671c0.479,-0.48 1.474,-1.499 2.098,-1.876c1.325,-0.792 2.302,-4.442 3.674,-5.545c3.921,-3.135 10.988,-6.42 16.191,-7.721c0.12,-0.03 0.318,0.042 0.372,-0.072l0.149,-0.299l2.854,-1.277c0.971,-0.486 1.534,-1.852 2.547,-2.02c0.845,-0.144 1.199,0.971 1.799,1.271c2.211,1.109 4.645,-1.301 4.645,1.276l0,2.021c-1.217,1.216 -0.33,4.333 -1.049,5.772c-0.348,0.695 -3.075,11.323 -3.075,11.617c0,0.372 -1.001,4.885 -1.049,4.945c-0.366,0.462 -0.521,12.678 -0.521,14.315c-0,2.445 0.629,4.513 1.348,6.671c0.144,0.437 0.45,1.247 0.45,1.649c-0,0.263 0.24,0.282 0.15,0.377c-0.486,0.486 -1.109,-0.701 -1.277,-0.749c-3.944,-1.127 -7.745,-7.673 -7.871,-7.721c-1.99,-0.797 -1.876,2.59 -3.446,3.375c-1.469,0.732 -3.657,2.727 -4.7,4.118c-1.199,1.601 -13.673,1.486 -14.788,0.378c-1.624,-1.625 -4.711,-1.403 -6.444,-2.698c-0.989,-0.743 -10.999,-9.686 -11.167,-10.268c-0.485,-1.702 -1.648,-4.202 -2.475,-5.85c-0,-0 -1.733,-8.278 -2.116,-13.415c-1.259,-16.784 8.056,-33.353 19.505,-43.171c1.636,-1.403 3.441,-4.01 5.395,-4.796c2.332,-0.929 4.352,-1.348 6.821,-2.17c1.751,-0.587 3.909,-0.869 5.473,-1.654c0.258,-0.126 0.689,-0.461 1.049,-0.372l0.03,0.018Z" style="fill:#fff;fill-rule:nonzero;"/><path d="M441.847,59.043c0.102,-0 0.743,-2.284 1.121,-2.926c1.582,-2.625 3.231,-5.922 5.023,-8.314c1.546,-2.062 9.213,-11.82 7.421,-2.853c-0.372,1.852 -1.199,2.745 -1.199,4.801c-0,3.837 -0.905,3.411 -3.746,4.119c-2.854,0.713 -6.133,5.173 -8.62,5.173Zm-61.909,-40.324l-0.3,0c0.401,0.402 -0.3,0.3 -0.3,0.3c-0.269,0.27 -1.282,1.163 -1.498,1.798c-0.354,1.061 -4.25,5.539 -3.597,7.499c-0.066,-0.066 -0.791,0.485 -0.899,0.599c-0.737,0.738 -1.408,2.86 -2.098,3.897c-0.617,0.923 -4.226,10.58 -4.801,12.288c-0.12,0.378 0.156,1.492 -0,1.804c-1.169,2.344 -2.704,4.814 -3.896,7.193c-1.727,3.459 -2.986,9.573 -5.096,13.787c-1.384,2.769 -2.997,9.897 -3.896,15.591c-0.449,2.841 0,7.337 0,9.897c0,0.905 -0.012,3.572 0.3,4.196c0.126,0.252 0.695,1.396 0.899,1.199c-0.318,0.953 1.445,1.444 1.798,1.798c0.072,0.072 0.702,1.6 0.899,1.798c0.018,0.018 0.876,0.324 0.6,0.6c2.859,-0.953 6.971,1.348 10.795,-1.199c0.798,-0.534 6.774,-4.238 6.894,-4.196l0.899,-1.199c0.863,-1.301 2.536,-2.08 3.297,-3.597c0.743,-1.486 3.914,-6.599 5.395,-6.599c-2.447,0.353 -0.6,14.476 -0.6,16.19l0.6,0c-0,0.654 0.395,3.099 1.199,2.698c-0.222,0.671 1.534,1.72 2.098,2.098c3.494,2.331 8.565,-3.429 9.896,-2.098c0.216,0.215 -1.301,2.811 -1.498,3.596c-0.181,0.707 -4.664,10.658 -5.395,11.395c-0.75,0.75 -3.003,3.578 -3.003,4.796c-0,0.821 -0.126,1.067 0.299,1.498c0,0 -0.096,0.702 0.306,0.3l-0,0.599c0.354,-0.353 1.175,1.476 1.199,1.499c0.564,0.569 3.986,-0.929 3.596,-2.098c0.36,0.359 0.534,-1.079 0.9,-1.199c1.378,-0.461 1.702,1.097 2.098,0.899c1.408,-0.701 4.196,-5.113 4.196,-1.798l0.599,-0l-0,-0.599c0.18,0.089 1.073,-0.516 1.199,-0.6c0.797,-0.527 5.125,-6.989 5.694,-8.692c0.204,-0.599 1.763,-2.571 2.098,-2.403l0,-0.6c0.276,0.276 0.582,-0.575 0.606,-0.599c0.234,-0.235 0.988,-0.558 1.498,-0.899c0.204,-0.138 0.27,-0.462 0.6,-0.3c-0.246,-0.719 0.359,-1.559 0.899,-2.098c3.68,-3.686 11.761,-20.83 14.686,-26.68c0.192,-0.378 4.285,-6.037 4.801,-6.294l3.297,-0.3c0.21,-0 1.163,-0.336 0.899,-0.6c0.504,0.168 7.672,-5.7 10.191,-5.7c-0.18,-0.174 0.982,-0.839 1.198,-0.899c1.109,-0.276 2.188,-0.899 3.297,-0.899l0,-0.6c0.366,0 2.5,-1.097 3.003,-0.599c1.175,1.181 -1.204,10.693 -1.204,10.795c-0,0.894 0.905,4.184 0.899,4.196l0.605,0c0,4.178 0.6,8.29 0.6,12.594l-0,1.199c0.113,0.114 1.678,-0.12 1.798,0c1.654,1.655 0.275,8.968 2.697,11.389c0.084,0.084 0,0.186 0,0.3c0,0.671 0.323,0.899 0.899,0.899c0,1.103 -0.072,1.271 -0.599,1.798c-0.073,0.072 0.3,0.948 0.3,1.499c0.755,-0.378 0.563,0.869 0.599,0.899c0.965,0.971 -0.036,3.069 -0.599,4.202c-0.012,0.018 -0.204,1.996 0.299,1.499c-0.353,1.055 0.6,0.401 0.6,1.498l0.599,0c-0.126,0.127 0.756,0.762 0.899,1.199c0.27,0.815 0.6,1.558 0.6,2.398l0.3,-0l-0,0.899l0.599,-0l0.3,0.599l-0,0.6c0.641,0.641 0.7,-1.889 0.299,-2.698c-0.611,-1.222 0.3,-4.238 0.3,-5.694c0,-1.924 0.893,-10.772 1.199,-11.695c1.3,-3.896 0.803,-25.026 1.199,-26.68c1.498,-6.294 2.398,-17.839 2.398,-25.782c-0,-5.311 0.839,-11.743 2.098,-16.79c0.396,-1.588 0.539,-4.07 1.198,-5.395c0.192,-0.383 0.714,-0.521 0.9,-0.899c0.023,-0.042 0.191,-1.69 -0.3,-1.199l-0,-1.498l-0.6,-0c0,-0.102 0.168,-1.367 -0.299,-0.899l-0,-0.606c-1.122,0 -2.608,-0.599 -3.897,-0.599c-0.144,-0 -2.674,-0.324 -2.397,-0.6l-0.6,0c0.318,-0.311 -0.798,-0.797 -1.199,-0.599l0,-0.599l-0.299,-0.3l-0.899,-0c0.251,-0.246 -0.834,-0.833 -0.9,-0.899c-0.474,-0.474 -0.263,-1.583 -0.899,-1.799c-0.576,-0.191 -1.373,0.732 -1.798,0.3c0.533,1.613 -1.648,1.199 -2.098,2.098c-0.869,1.738 0.264,4.262 -0.599,6l-2.998,2.698c-0.084,0.084 -0.084,0.216 0,0.299c-1.007,0 -2.829,1.913 -3.003,1.799c0.162,0.156 -0.138,0.443 -0.299,0.599c-0.558,0.558 -1.961,1.223 -2.398,2.098c-0.905,1.81 -3.549,3.507 -4.496,5.395c-1.559,3.117 -5.203,8.602 -8.392,10.196c-0.563,0.282 -1.636,3.381 -2.398,2.997c0.174,0.522 -2.271,2.746 -2.703,3.597c-1.007,2.014 -4.22,8.134 -5.395,9.891c-0.617,0.929 -2.649,1.648 -2.398,2.403c-0.012,-0.012 -3.224,2.002 -2.997,2.698c-0.467,-0.234 -4.963,3.458 -5.394,3.896c-0.888,0.887 -4.407,0.713 -4.802,1.499c-0.276,0.557 1.637,3.326 0.905,4.795c-0.479,0.953 -2.104,1.337 -2.104,2.398l1.505,-0c1.504,-0 2.368,-0.899 3.596,-0.899c0.198,-0 0.498,-0.102 0.3,0.299c-0.707,1.415 -8.991,13.889 -9.597,14.093c-0.395,0.132 -3.59,-0.294 -3.596,-0.3c-0.355,-0.354 -0.546,-1.552 -0.899,-1.199c-0,-0.677 -0.084,-5.832 -0,-6c1.528,-3.051 1.45,-7.097 2.997,-10.19c2.056,-4.106 6.252,-15.819 8.098,-18.589c0.479,-0.719 1.157,-1.055 0.899,-2.098l0.3,0c1.319,-4.897 4.406,-9.62 5.994,-14.392c0.396,-1.181 2.002,-5.898 2.697,-6.594l1.199,-0.899c-0.156,-0.467 1.205,-2.691 0.6,-3.297c-0.096,-0.095 -1.121,-0.977 -0.899,-1.198l-0.6,-0l-0.3,-0.3l0,-0.6c-0.989,0.984 0.846,-5.64 -0.299,-4.495c-0,-2.422 -4.928,-2.098 -6.894,-2.098l-0.299,-0.3l-0,-0.599c-0.228,0.221 -0.588,-0.306 -0.899,-0.306c-0.654,-0 -3.201,0.036 -3.603,0.306c-1.96,1.306 -6.234,12.234 -8.092,14.086l-0.899,2.398c-0.259,0.515 -1.259,0.965 -0.9,1.498l-0.299,0c0.875,2.632 -1.577,4.616 -2.698,6.3c-0.21,0.312 -1.798,9.951 -1.798,11.39l-0.599,-0c-0,0.269 -0.312,1.492 -0.6,1.198c0.324,1.301 -1.714,3.951 -2.098,5.096c-4.088,12.264 -2.757,7.852 -11.395,16.49c-1.582,1.588 -2.823,4.082 -4.795,5.395c-0.995,0.666 -1.835,0.935 -2.698,1.798c-0.084,0.084 -0.084,0.221 0,0.3l-0.599,-0c0.437,0.438 -2.188,1.115 -1.799,1.504c-0.137,-0.048 -3.812,3.789 -6.599,2.398c-3.741,-1.87 3.423,-15.519 3.003,-16.79c0.018,0.024 0.833,-0.767 1.199,-1.499c0.809,-1.63 0.503,-4.507 1.498,-5.994c2.308,-3.465 4.796,-4.891 4.796,-9.896l0.299,-0.6l0.6,0c-0.018,-0.036 0.599,-1.229 0.599,-1.798c0.084,0.084 0.216,0.084 0.3,-0l1.499,-1.499c1.594,-1.594 1.702,-4.603 2.697,-6.593c0.51,-1.019 2.23,-1.763 2.697,-2.698c0.421,-0.845 -0.365,-3.471 0.3,-4.801c0.101,-0.198 0.642,-1.457 0.899,-1.199c-0.204,-0.612 5.413,-8.056 5.101,-8.692l0.6,0c-0.348,-0.695 2.697,-6.066 2.697,-6.294l-0.599,0l-0,-0.599c-0.444,0.437 -1.577,-1.577 -1.798,-1.804c-0.084,-0.078 -0.222,-0.078 -0.3,-0l-0,-0.6l-0.6,0c0.395,-0.396 -0.299,-0.3 -0.299,-0.3c-0.024,-0.018 -0.216,-1.882 -0.606,-1.498c0,-0.678 -0.947,-2.853 -0.899,-2.997l-0.599,-0c1.139,-2.272 -3.543,-1.613 -4.796,-1.199c-0.677,0.228 -2.242,2.104 -2.697,1.798Z" style="fill:#fff;fill-rule:nonzero;"/><path d="M473.305,129.613c-0.09,0 -0.055,-0.18 -0.055,-0.27l0,-1.498c0,-1.109 1.266,-3.081 0.972,-3.368c-2.824,-2.824 3.183,-11.114 4.651,-14.543c0.156,-0.372 -0.12,-3.333 0,-3.447c0.091,-0.095 1.14,-0.455 0.971,-0.749c-0.3,-0.522 -0.88,-2.014 -0.521,-2.847c0.282,-0.66 1.247,-0.941 1.498,-1.505c0.695,-1.558 0.534,-2.559 1.421,-3.896c0.156,-0.235 0.162,-1.397 0.528,-1.948c0.233,-0.354 0.227,-0.834 0.449,-1.199c0.702,-1.175 1.816,-1.217 2.17,-2.398c0.63,-2.098 -0.509,-4.783 -0,-6.072c0.953,-2.386 4.436,-13.979 5.101,-14.836l0.75,-0.977c1.354,-1.768 0.041,-3.968 0.749,-5.623c0.725,-1.696 1.648,-3.47 2.619,-5.095c0.534,-0.887 0.66,-4.364 1.948,-6.521c0.15,-0.24 1.043,-4.58 0.75,-4.868c-0.359,-0.365 -1.511,1.205 -1.948,1.499c-0.762,0.509 -1.619,0.419 -2.398,1.199c-0.24,0.239 -7.589,1.828 -7.043,-0.528c-0.126,0.126 -0.906,-0.641 -0.978,-0.671c-0.659,-0.288 -0.395,0.156 -1.199,-0.3c-0.095,-0.06 -2.378,-0.138 -2.469,-0.228c-1.624,-1.618 -1.618,-2.242 -3.602,-3.375c-0.499,-0.281 -0.084,-0.569 -0.972,-0.299c0.222,-0.162 -0.737,-0.432 -0.749,-0.45c-0.389,-0.383 0.234,-3.453 0.449,-3.668c1.499,-1.499 6.834,-4.73 6.073,-7.271c0.551,-0.24 0.078,-0.006 0.521,-0.45c0.144,-0.144 1.325,-0.821 1.727,-0.977c1.205,-0.45 4.082,-1.187 5.095,-1.948c0.641,-0.48 1.073,-0.6 1.948,-0.971c3.566,-1.529 7.067,-2.758 10.868,-3.897c0.815,-0.245 1.061,-1.144 1.948,-1.504c0.701,-0.276 2.091,-0.246 2.697,-0.671l0.749,-0.528c3.89,-2.715 14.08,-1.498 16.041,-2.619c1.229,-0.702 2.47,-2.248 3.375,-2.698c1.475,-0.737 17.605,1.75 18.737,2.398c1.895,1.079 2.956,1.079 4.346,2.47c0.085,0.083 1.523,2.193 1.948,1.954c-0.017,1.288 3.19,1.798 3.375,2.17c0.636,1.276 1.589,2.481 2.919,3.147c0.169,0.083 0.636,1.684 0.75,1.948c0.432,1.001 1.348,1.798 1.948,2.397c0.876,0.876 -0.101,2.572 0.449,3.675c0.283,0.563 -0.311,2.571 -0.221,3.147c-0.587,1.373 0.264,4.082 -0.21,5.635c-1.222,3.974 -2.913,6.605 -5.413,10.178c-1.547,2.212 -4.135,2.661 -5.322,4.352c-0.21,0.299 -0.684,2.014 -1.199,2.17c-1.194,0.359 -5.341,2.493 -6.294,3.446c-0.857,0.863 -1.804,1.697 -2.925,2.176l-0.971,0.228l-0.528,-0c0,0.156 5.233,4.927 5.623,5.317c2.913,2.913 4.393,7.547 6.821,9.968c1.697,1.703 4.292,3.855 5.772,6.073c0.061,0.095 0.186,-0.042 0.3,-0c6.732,2.69 13.655,12.546 19.859,15.291c-0.156,0.27 1.307,1.349 1.499,1.499c0.983,0.755 3.273,2.955 3.896,3.896c1.013,1.516 13.026,12.75 15.789,15.513c0.27,0.27 0.755,3.147 0.474,3.447c0.593,-1.967 -9.807,-6.606 -10.49,-8.32c-0.774,-1.931 -10.197,-9.118 -12.595,-9.969c-0.089,-0.03 -6.359,-6.108 -7.043,-6.516c-1.756,-1.055 -4.772,-2.098 -6.594,-3.374c-2.655,-1.859 -3.686,-4.688 -5.323,-6.594c-1.084,-1.265 -2.876,-0.935 -4.572,-3.896c-0.157,-0.276 -1.649,-1.007 -1.948,-1.427l-0.523,-0.749c-0.737,-1.049 -1.798,-1.499 -2.697,-2.398c-0.114,-0.114 -0.282,-1.06 -0.677,-1.277c-0.324,-0.174 -1.822,-1.157 -1.498,-1.648l-0.673,-0c0.157,-0.27 -0.874,-0.851 -0.976,-1.199c-0.132,-0.438 -1.463,-1.984 -1.948,-2.47c-0.102,-0.102 -1.709,0.12 -1.948,0l-1.199,-0.755c-0.156,-0.084 -0.972,-0.45 -0.749,-0.671c-1.014,-0 -3.136,-2.158 -3.896,-2.926c-0.528,-0.521 -3.346,-0.347 -4.125,-2.169c-0.414,-0.966 -1.612,-1.349 -2.476,-1.949c-0.509,-0.359 -1.18,-0.629 -1.42,-1.198l-0.45,-0.978c-0.138,-0.317 -0.108,-0.365 -0.102,-0.365c0.012,0.006 -0.012,0.09 -0.425,-0.156c-0.276,-0.168 -0.222,-0.198 -0.222,-0.45l-0,-0.527l-0,0.749l0.45,0.45l0.299,0.749c0.168,0.552 0.222,0.486 0.222,1.199c0,0.713 0.252,1.504 0.749,1.948c1.217,1.097 2.548,2.218 3.597,3.447c1.084,1.265 3.578,3.057 4.873,4.352c2.548,2.541 6.612,4.885 9.746,8.014c1.301,1.307 1.703,2.38 2.621,3.602c0.071,0.09 -0.103,0.24 -0,0.3l2.697,0.672c2.344,2.739 6.396,4.351 8.02,8.02c0.258,-0.167 0.342,0.222 0.449,0.3c1.122,0.785 3.513,2.762 3.675,3.824c0.702,-0.282 0.917,0.755 1.42,0.971c5.665,2.428 12.199,8.524 16.569,12.894c0.396,0.395 2.367,3.638 3.147,3.896c1.211,0.408 4.292,1.877 5.095,2.926c0.324,0.413 0.593,1.701 0.749,2.169c0.006,0.024 8.458,8.668 9.22,8.998c0.078,0.029 -0.024,0.137 -0,0.222c0.305,1.03 1.948,0.97 1.948,1.948c-0,0.401 0.365,1.042 -0,1.199c-0.138,0.059 -0.66,-0.27 -0.75,-0.45c-0.065,-0.126 -5.688,-5.557 -5.844,-5.617c-4.07,-1.63 -15.598,-12.972 -21.136,-15.741c-4.298,-2.152 -10.286,-8.937 -13.793,-12.444c-1.738,-1.738 -2.746,-3.189 -3.896,-4.346c-0.473,-0.473 -2.392,-0.803 -2.924,-1.426l-0.523,-0.75c-4.513,-1.996 -6.905,-5.694 -10.645,-6.815l-0.75,-0.45c-0.078,-0.042 -0.185,0.078 -0.221,0c-0.258,-0.593 -12.373,-14.356 -12.894,-14.62c-0.977,-0.485 -11.03,-6.911 -11.389,-7.265c-0.576,-0.575 0.126,-1.654 0.449,-2.398c1.984,-4.627 3.699,0.87 7.044,-2.475c0.497,-0.498 -2.513,-3.159 -3.147,-3.375c-0.39,-0.126 -1.079,-0.725 -0.75,-0.971l-0.677,-0.228c-0,-1.361 0.12,-2.05 0.977,-2.697c0.366,-0.276 0.348,-0.875 0.671,-1.199c0.51,-0.504 1.919,0.629 1.949,0.677c1.887,2.506 3.596,3.447 7.798,3.447c0.653,-0 1.553,0.294 1.948,-0.228c2.686,-3.584 6.744,-10.939 9.441,-14.086c0.138,-0.162 0.383,-1.799 0.229,-1.955c-0.475,-0.467 -1.374,-2.056 -1.649,-2.697l-3.447,-1.199c-0.546,-0.162 -0.299,-0.389 -0.449,-0.749c-0.037,-0.078 -0.145,0.036 -0.229,-0c-0.97,-0.414 -3.213,-1.702 -3.446,-2.17l-0.678,-0c-0.269,-0 -2.151,-0.078 -2.247,-0c-0.367,0.312 -0.198,0.408 -0.21,0.438c-0.007,0.012 -0.055,0.012 -0.24,0.012c-8.146,-0 -9.387,0.893 -12.366,7.343c-0.294,0.635 -0.917,1.156 -0.971,1.948c-0.582,0.329 -0.438,-2.11 -2.476,-1.499c-0.419,0.126 -1.906,7.163 -2.398,7.793l-3.446,4.351c-3.267,4.904 -4.754,22.509 -7.271,25.033c-0.174,0.173 -0,0.497 -0,0.749c-0,3.207 -0.564,5.185 -1.649,7.72c-0.377,0.882 -0.989,9.477 -1.726,11.689c-0.707,2.122 -1.445,2.65 -2.17,4.346c-1.486,3.459 1.055,6.12 -2.476,8.77c-0.072,0.054 0,0.137 0,0.228c0,1.091 0.091,3.344 -0.671,3.668c-0.276,0.12 -2.266,-0.432 -2.476,-0.521c-0.365,-0.156 -0.228,-0.876 0,-1.199c0.402,-0.576 2.02,-2.17 2.476,-2.626c0.432,-0.431 -0,-2.919 0.222,-3.447c0.156,-0.365 1.882,-2.104 2.176,-2.397c0.443,-0.444 0.401,-1.205 0.749,-1.727c0.156,-0.234 -0.689,-1.661 -0.749,-1.72c-0.078,-0.072 0.072,-2.326 -0,-2.398c-0.516,-0.515 -1.721,1.486 -1.948,1.949c-0.564,1.114 -3.651,9.195 -3.675,9.219c-1.505,1.504 -3.261,7.073 -4.125,7.571c-1.126,0.641 -1.558,-5.365 -3.896,-1.277c-0.102,0.186 -0.119,2.613 -0.221,2.925c-0.42,1.241 -1.157,1.799 -1.654,3.447l-0,1.42c-0.42,0.318 -0.726,-1.408 -1.721,-0.749c-2.769,1.846 -1.079,1.097 -2.176,-0c-0.078,-0.084 -0.186,-0.03 -0.299,-0l0.071,0.059" style="fill:#fff;fill-rule:nonzero;"/><path d="M508.053,71.882l-0.03,-0.024c0.798,0.456 1.445,-0.006 2.027,0.228c2.092,0.833 3.992,0.57 5.994,1.571c2.782,1.39 6.018,5.628 9.597,6.821c0.191,0.066 0.036,0.426 0.15,0.6c0.383,0.617 1.234,1.834 1.798,2.397c1.39,1.397 6.03,7.217 7.193,7.799c0.432,0.215 1.648,0.971 1.798,1.348c0.186,0.456 0.893,2.242 1.049,2.398c1.558,1.559 2.452,1.481 4.346,2.62c0.432,0.257 1.445,2.002 1.648,2.625c0.126,0.36 0.654,0.396 0.978,0.6c1.252,0.785 7.187,6.186 7.793,6.593c0.784,0.522 1.06,1.954 2.174,2.398c0.673,0.27 0.558,1.481 1.199,1.798c2.908,1.457 11.396,5.773 14.015,8.398c0.54,0.54 0.582,1.499 1.199,1.948c1.439,1.043 4.61,2.248 5.623,3.597c1.948,2.602 7.786,10.1 10.568,11.617c0.593,0.324 0.953,0.131 0.971,0.977c0.066,-0.066 0.168,-0.066 0.228,-0c0.311,0.312 0.875,1.091 1.426,1.421c1.217,0.73 2.776,3.015 3.747,3.824c0.137,0.12 0.269,0.102 0.449,0.15c0.689,0.174 7.085,3.926 5.773,5.245c-0.234,0.228 -0.797,0.27 -0.977,-0c-0.738,-1.103 -1.679,-2.146 -2.848,-2.848c-0.299,-0.179 -1.162,-0.137 -1.348,-0.599c-1.451,-3.621 -13.343,-9.399 -14.992,-12.144c-0.102,-0.174 -1.157,-0.198 -1.199,-0.222c-0.504,-0.299 -2.595,-1.175 -2.626,-1.198c-0.91,-0.912 -2.079,-2.674 -2.997,-3.226c-2.224,-1.331 -7.606,-7.355 -8.17,-7.571c-3.362,-1.258 -5.982,-4.304 -9.818,-6.216c-0.516,-0.263 -1.198,-0.305 -1.571,-0.749c-2.403,-2.883 -17.839,-14.296 -17.989,-16.041l-0.599,0c0.079,-0.054 -0.581,-0.479 -0.821,-0.599c-0.114,-0.06 -0.288,0.09 -0.378,-0l-2.026,-1.199c-0.132,-0.054 -2.979,-4.556 -3.968,-5.545l-0.45,-0.455c-2.775,-2.77 -5.269,-5.593 -8.769,-7.343c-0.078,-0.036 -1.649,-2.919 -2.176,-3.447c-0.061,-0.06 -0.139,0.024 -0.222,0c-2.871,-0.719 -5.353,-0.42 -7.421,-1.798c-0.731,-0.486 -1.199,-3.111 -1.199,-4.574l0,-0.222c0,-0.149 -0.09,-0.257 0,-0.377c0.12,-0.156 1.019,-0.24 0.821,-0.372l0.03,-0.204Z" style="fill:#fff;fill-rule:nonzero;"/><path d="M591.967,152.577c0.234,-0.234 0.792,-0.048 0.977,0.228c0.57,0.857 1.451,1.253 1.799,2.17c0.371,0.995 2.301,0.515 2.847,1.427c0.276,0.461 0.485,0.539 0.749,0.977c0.264,0.437 0.45,0.467 0.45,1.049l-0,0.971l-0.228,0.599c-0,0 0.204,0.047 -0.222,-0.372c-0.347,-0.353 0.198,-0.102 -0.15,-0.449l-0.227,-0.15c-0.042,-0.078 0.065,-0.168 -0,-0.228c-0.288,-0.287 -0.331,-0.503 -0.6,-0.821c-0.216,-0.264 -1.019,-0.497 -1.421,-0.977c-0.425,-0.51 -1.384,-0.785 -1.798,-1.199c-0.239,-0.234 -2.853,-2.205 -3.375,-2.398c-2.193,-0.821 -3.98,-2.032 -5.772,-3.824c-1.481,-1.481 -7.655,-4.903 -8.242,-6.371c-0.048,-0.115 -0.288,0.089 -0.378,-0c-0.701,-0.702 -1.139,-1.014 -2.17,-1.422c-0.533,-0.215 -12.168,-9.273 -12.217,-9.368c-0.071,-0.138 -0.071,-0.18 -0.065,-0.18c0.018,-0.012 0.084,0.12 -0.162,-0.048c-2.991,-1.99 -5.826,-5.161 -8.992,-6.744c-0.335,-0.168 -2.547,-3.513 -2.547,-4.046l-0,-0.15c-4.082,-2.721 -6.666,-1.81 -11.845,-8.02c-0.083,-0.102 -0.017,-0.33 -0.149,-0.372c-2.398,-0.803 -14.746,-14.086 -15.436,-15.819c-0.413,-1.019 -2.212,-0.851 -2.775,-1.798c-0.779,-1.301 -0.468,-2.164 -1.427,-3.597c-0.299,-0.449 -4.693,-1.468 -4.795,-1.576c-1.229,-1.229 -1.787,-3.285 -2.548,-4.046c-0.917,-0.917 -3.41,-1.367 -4.196,-2.548c-0.06,-0.09 0,-0.989 0,-1.199c0.162,0.102 0.665,-0.419 0.75,-0.449l2.847,-0c0.941,0.563 4.238,3.423 4.945,3.596c2.716,0.684 5.275,1.211 7.421,2.997c3.123,2.602 1.828,4.328 3.375,7.421c1.247,2.5 13.601,13.607 16.184,16.191c0.99,0.983 1.637,3.093 2.853,3.824c0.468,0.281 3.567,0.792 3.747,0.971c1.115,1.115 2.955,2.134 3.819,2.997c0.317,0.318 0.515,2.212 0.826,2.398c0.438,0.264 4.994,4.07 5.173,4.424c0.145,0.294 0.792,-0.12 0.971,0.15c0.486,0.731 2.291,1.373 2.997,1.798c0.546,0.33 1.739,2.56 2.398,2.997c0.42,0.281 2.986,2.584 3.004,2.626c0.276,0.743 1.091,0.419 1.648,0.977c1.385,1.384 4.646,1.871 5.995,3.219c6.137,6.138 12.833,10.286 17.161,14.614" style="fill:#fff;fill-rule:nonzero;"/></g></g></svg>