<svg clip-rule="evenodd" fill-rule="evenodd" stroke-linejoin="round" stroke-miterlimit="2" viewBox="0 0 600 149" xmlns="http://www.w3.org/2000/svg"><g fill="#fff" fill-rule="nonzero"><path d="m352.726 70.903c9.458-5.573 15.358-15.011 15.358-25.487 0-24.739-26.131-36.007-50.411-36.007-24.283 0-50.411 11.268-50.411 36.007 0 10.48 5.898 19.914 15.354 25.487-13.452 6.231-20.978 16.842-20.978 30.062 0 24.919 28.184 37.956 56.028 37.956s56.03-13.037 56.03-37.956c.009-13.22-7.519-23.836-20.97-30.062zm-35.051-15.682c-6.194 0-11.232-3.994-11.232-8.909s5.038-8.911 11.232-8.911c6.188 0 11.231 3.996 11.231 8.911-.003 4.915-5.04 8.909-11.231 8.909zm0 31.746c6.894 0 12.5 4.598 12.5 10.261 0 5.488-5.608 9.96-12.5 9.96-6.896 0-12.5-4.463-12.5-9.96 0-5.663 5.606-10.261 12.5-10.261z"/><path d="m471.579 30.484c-10.342-13.787-25.535-21.079-43.933-21.079s-33.591 7.288-43.933 21.079c-8.694 11.599-13.483 27.191-13.483 43.905 0 32.343 17.753 64.979 57.423 64.979s57.427-32.638 57.427-64.979c-.011-16.716-4.802-32.307-13.501-43.905zm-43.933 70.405c-13.829 0-15.342-17.977-15.342-26.653 0-8.593 1.52-26.353 15.342-26.353 13.829 0 15.34 17.76 15.34 26.353.004 8.676-1.511 26.653-15.34 26.653z"/><path d="m586.499 30.484c-10.338-13.787-25.535-21.079-43.929-21.079-18.398 0-33.592 7.288-43.933 21.079-8.694 11.599-13.485 27.191-13.485 43.905 0 32.343 17.754 64.979 57.425 64.979 39.665 0 57.423-32.638 57.423-64.979-.009-16.716-4.8-32.307-13.501-43.905zm-43.929 70.405c-13.833 0-15.344-17.977-15.344-26.653 0-8.593 1.52-26.353 15.344-26.353 13.823 0 15.338 17.76 15.338 26.353.006 8.676-1.511 26.653-15.338 26.653z"/><path d="m164.023 11.22v39.432h53.995l-40.283 88.129h45.608l54.162-127.561z"/><path d="m47.061.435h7.293v17.2c.046 4.77-.092 9.541-.321 14.357-.321 6.88-.78 13.806-1.881 20.64-.78 4.679-2.431 9.22-4.449 13.532-3.302 6.926-8.44 12.797-14.265 17.751-5.183 4.586-11.421 7.889-17.934 10.182-3.67 1.284-7.477 2.248-11.376 2.798v-14.402c4.678-.688 9.128-2.339 13.302-4.541 4.954-2.615 9.357-6.101 13.118-10.275 3.853-4.265 6.926-9.219 9.266-14.448 2.752-6.055 4.22-12.568 5.229-19.081 1.238-8.302 1.788-16.696 1.972-25.09.046-2.936.046-5.779.046-8.623z"/><path d="m57.336.435c4.494-.046 8.944 0 13.438 0v96.369h-13.438c-.047-10.229 0-20.503-.047-30.732.047-21.879.047-43.758.047-65.637z"/><path d="m73.756.435h7.247c-.091 9.816.275 19.585 1.422 29.355.963 7.569 2.293 15.183 5.321 22.2 2.844 6.835 6.972 13.165 12.338 18.256 5.137 4.862 11.33 8.623 18.072 10.779 1.881.596 3.807 1.055 5.78 1.376v14.403c-3.853-.505-7.614-1.514-11.284-2.752-4.357-1.514-8.577-3.487-12.476-6.009-2.844-1.835-5.412-3.991-7.889-6.284-4.082-3.761-7.706-8.027-10.458-12.889-2.156-3.761-3.715-7.844-4.954-11.972-1.101-4.174-1.605-8.486-2.018-12.797-.826-9.265-1.147-18.577-1.101-27.888v-15.778z"/><path d="m16.65 114.325c-1.651 5.55-3.211 11.1-4.862 16.65h9.678c-1.605-5.55-3.21-11.1-4.816-16.65zm-4.036-8.21c1.697-2.202 5.275-2.569 7.339-.734.871.734 1.468 1.743 1.789 2.798 3.899 13.393 7.797 26.787 11.696 40.18h-6.88c-1.101-3.669-2.156-7.384-3.211-11.1h-13.302c-1.101 3.716-2.156 7.385-3.211 11.1h-6.834c3.715-12.797 7.385-25.548 11.1-38.3.367-1.376.551-2.843 1.514-3.944z"/><path d="m60.408 130.975h9.633c-1.606-5.55-3.211-11.145-4.816-16.696-1.606 5.596-3.211 11.146-4.817 16.696zm.551-24.585c1.192-1.743 3.532-2.569 5.55-2.064 1.88.413 3.302 2.018 3.761 3.853 3.899 13.393 7.798 26.741 11.697 40.134h-6.881c-1.055-3.715-2.11-7.384-3.211-11.1h-13.301c-1.055 3.716-2.156 7.385-3.211 11.1h-6.834c3.715-12.843 7.43-25.686 11.146-38.529.413-1.101.55-2.385 1.284-3.394z"/><path d="m28.255 104.28h24.906v6.743h-9.173v37.336h-6.559v-37.336h-9.174z"/><path d="m89.305 104.555c.642-.229 1.285-.275 1.973-.275h7.843c4.404.091 8.623 2.798 10.55 6.788 1.33 2.569 1.468 5.596 1.146 8.394-.229 2.982-1.467 5.917-3.761 7.89-1.192 1.055-2.706 1.743-3.99 2.66-.688.55-.734 1.605-.367 2.339 3.486 5.367 7.109 10.642 10.641 15.962h-7.797c-3.395-5.091-6.743-10.228-10.137-15.365-1.009-1.468-1.284-3.395-.688-5.046.458-1.284 1.559-2.202 2.798-2.706 2.385-.918 4.678-2.34 6.009-4.541 1.009-1.697.963-3.761.504-5.596-.504-2.385-2.844-4.266-5.321-4.174h-5.091c-.78 0-1.468.642-1.468 1.422v35.96h-6.605v-38.712c0-2.202 1.606-4.312 3.761-5z"/><path d="m116.78 104.28h6.972v44.079h-6.972z"/></g></svg>