<svg clip-rule="evenodd" fill-rule="evenodd" stroke-linejoin="round" stroke-miterlimit="2" viewBox="0 0 600 85" xmlns="http://www.w3.org/2000/svg"><g fill="#fff"><g fill-rule="nonzero"><path d="m144.702 20.01c-3.146 10.575-6.118 21.148-9.264 31.723h18.44c-3.058-10.575-6.117-21.148-9.176-31.723zm-7.69-15.643c3.233-4.195 10.049-4.894 13.982-1.399 1.661 1.399 2.797 3.321 3.408 5.332 7.429 25.518 14.857 51.036 22.286 76.556h-13.109c-2.098-6.993-4.107-14.071-6.118-21.15h-25.344c-2.097 7.079-4.107 14.07-6.117 21.15h-13.022c7.079-24.383 14.071-48.679 21.149-72.974.7-2.622 1.049-5.418 2.885-7.515z"/><path d="m228.074 51.733h18.352c-3.058-10.575-6.116-21.236-9.175-31.81-3.059 10.662-6.118 21.235-9.177 31.81zm1.049-46.842c2.272-3.321 6.729-4.894 10.575-3.932 3.583.786 6.291 3.845 7.166 7.341 7.428 25.518 14.857 50.949 22.285 76.467h-13.109c-2.01-7.078-4.02-14.069-6.118-21.149h-25.343c-2.01 7.08-4.108 14.071-6.118 21.149h-13.021c7.079-24.469 14.158-48.939 21.236-73.409.787-2.098 1.049-4.544 2.447-6.467z"/><path d="m166.813.871h47.454v12.847h-17.479v71.138h-12.497v-71.138h-17.478v-12.847z"/><path d="m283.131 1.396c1.224-.437 2.448-.525 3.759-.525h14.944c8.39.174 16.429 5.331 20.1 12.934 2.534 4.894 2.796 10.662 2.185 15.993-.437 5.681-2.797 11.274-7.167 15.031-2.271 2.01-5.156 3.321-7.603 5.069-1.311 1.049-1.398 3.059-.699 4.457 6.642 10.225 13.546 20.275 20.275 30.412h-14.856c-6.468-9.7-12.848-19.487-19.315-29.276-1.922-2.796-2.446-6.467-1.311-9.613.874-2.447 2.972-4.195 5.332-5.157 4.545-1.747 8.914-4.456 11.449-8.651 1.922-3.233 1.835-7.166.961-10.662-.961-4.544-5.419-8.127-10.138-7.952h-9.701c-1.485 0-2.796 1.223-2.796 2.708v68.516h-12.584v-73.759c0-4.195 3.058-8.214 7.165-9.525z"/><path d="m335.479.871h13.284v83.984h-13.284z"/><path d="m37.435.748h6.359v14.998c.04 4.159-.08 8.319-.28 12.518-.28 5.999-.68 12.038-1.64 17.997-.68 4.08-2.12 8.039-3.879 11.799-2.88 6.039-7.359 11.158-12.439 15.477-4.519 4-9.958 6.879-15.637 8.879-3.2 1.12-6.519 1.96-9.919 2.44v-12.559c4.079-.6 7.959-2.039 11.598-3.959 4.32-2.28 8.159-5.319 11.439-8.959 3.359-3.719 6.039-8.038 8.078-12.598 2.4-5.279 3.68-10.958 4.56-16.637 1.08-7.239 1.56-14.558 1.72-21.877.04-2.56.04-5.039.04-7.519z"/><path d="m46.394.748c3.919-.04 7.798 0 11.717 0v84.028h-11.717c-.041-8.919 0-17.878-.041-26.796.041-19.078.041-38.155.041-57.232z"/><path d="m60.711.748h6.319c-.08 8.559.24 17.077 1.24 25.596.84 6.599 2 13.238 4.639 19.357 2.48 5.959 6.079 11.479 10.759 15.918 4.479 4.239 9.878 7.519 15.757 9.398 1.64.521 3.32.92 5.04 1.2v12.559c-3.36-.44-6.639-1.32-9.839-2.4-3.799-1.32-7.479-3.04-10.878-5.239-2.48-1.6-4.719-3.48-6.879-5.48-3.56-3.279-6.719-6.998-9.119-11.238-1.88-3.279-3.239-6.839-4.319-10.438-.96-3.64-1.4-7.399-1.76-11.159-.72-8.078-1-16.197-.96-24.316v-13.758z"/></g><path d="m416.824 84.856v-18.114h6.918v-16.73h-6.918v-49.058h-16.605l-29.686 42.014c-6.038 8.427-6.541 9.434-6.541 13.711 0 3.522 1.509 6.667 4.025 8.302 2.139 1.509 3.648 1.761 9.183 1.761h22.39v18.114zm-3.042-3.042h-11.15v-18.114h-25.432c-4.455 0-5.708.011-7.429-1.204l-.047-.034c-1.775-1.153-2.69-3.367-2.69-5.783 0-3.759.666-4.534 5.972-11.94l.005-.008c.006-.008 28.784-40.736 28.784-40.736h11.987v49.058h6.918v10.647h-6.918zm-33.712-28.761h22.562v-33.842zm19.52-3.041h-13.836l13.836-20.756z"/><path d="m558.05 84.856c-23.131 0-41.953-18.82-41.953-41.952 0-23.133 18.822-41.95 41.953-41.95 23.133 0 41.95 18.818 41.95 41.951-.001 23.131-18.817 41.951-41.95 41.951zm0-80.822c-21.434 0-38.871 17.437-38.871 38.87 0 21.434 17.437 38.871 38.871 38.871 21.431 0 38.869-17.437 38.869-38.871 0-21.432-17.438-38.87-38.869-38.87zm0 67.45c-15.755 0-28.577-12.82-28.577-28.576 0-15.757 12.822-28.575 28.577-28.575s28.574 12.818 28.574 28.575c-.001 15.756-12.819 28.576-28.574 28.576zm0-54.069c-14.058 0-25.496 11.438-25.496 25.493 0 14.058 11.438 25.496 25.496 25.496 14.057 0 25.493-11.438 25.493-25.496 0-14.057-11.438-25.493-25.493-25.493z" fill-rule="nonzero"/><path d="m469.883 84.856c-23.131 0-41.952-18.82-41.952-41.952.001-23.133 18.821-41.95 41.952-41.95 23.133 0 41.951 18.818 41.951 41.951 0 23.131-18.818 41.951-41.951 41.951zm0-80.822c-21.432 0-38.871 17.437-38.871 38.87 0 21.434 17.439 38.871 38.871 38.871s38.869-17.437 38.869-38.871c.001-21.432-17.436-38.87-38.869-38.87zm0 67.45c-15.757 0-28.577-12.82-28.577-28.576 0-15.757 12.82-28.575 28.577-28.575 15.755 0 28.575 12.818 28.575 28.575 0 15.756-12.82 28.576-28.575 28.576zm0-54.069c-14.058 0-25.495 11.438-25.495 25.493 0 14.058 11.437 25.496 25.495 25.496s25.493-11.438 25.493-25.496c.001-14.057-11.436-25.493-25.493-25.493z" fill-rule="nonzero"/></g></svg>