<svg clip-rule="evenodd" fill-rule="evenodd" stroke-linejoin="round" stroke-miterlimit="2" viewBox="0 0 600 79" xmlns="http://www.w3.org/2000/svg"><g fill="#fff" fill-rule="nonzero"><path d="m132.495 18.433c-2.881 9.683-5.602 19.365-8.482 29.047h16.884c-2.801-9.682-5.602-19.364-8.402-29.047zm-7.042-14.323c2.961-3.841 9.202-4.481 12.803-1.281 1.521 1.281 2.561 3.041 3.121 4.882 6.802 23.366 13.603 46.731 20.405 70.098h-12.003c-1.92-6.403-3.76-12.884-5.601-19.366h-23.206c-1.921 6.482-3.761 12.883-5.602 19.366h-11.923c6.482-22.326 12.884-44.572 19.365-66.818.641-2.4.961-4.961 2.641-6.881z"/><path d="m208.834 47.48h16.804c-2.801-9.682-5.601-19.444-8.402-29.127-2.801 9.763-5.601 19.445-8.402 29.127zm.96-42.89c2.081-3.041 6.162-4.481 9.683-3.601 3.28.72 5.761 3.521 6.561 6.722 6.802 23.366 13.604 46.651 20.406 70.017h-12.004c-1.84-6.482-3.681-12.883-5.601-19.365h-23.206c-1.84 6.482-3.761 12.883-5.601 19.365h-11.923c6.482-22.405 12.963-44.811 19.445-67.217.72-1.92.96-4.161 2.24-5.921z"/><path d="m152.74.909h43.451v11.763h-16.004v65.137h-11.443v-65.137h-16.004v-11.763z"/><path d="m259.246 1.389c1.121-.4 2.241-.48 3.442-.48h13.683c7.682.16 15.043 4.881 18.405 11.842 2.32 4.482 2.56 9.763 2 14.644-.4 5.202-2.561 10.323-6.562 13.764-2.08 1.84-4.721 3.041-6.962 4.641-1.2.96-1.28 2.801-.64 4.081 6.082 9.362 12.403 18.565 18.565 27.847h-13.603c-5.922-8.882-11.764-17.844-17.685-26.806-1.76-2.561-2.24-5.922-1.201-8.803.801-2.24 2.721-3.841 4.882-4.721 4.162-1.6 8.162-4.081 10.483-7.922 1.76-2.96 1.68-6.562.88-9.762-.88-4.161-4.961-7.442-9.282-7.282h-8.883c-1.36 0-2.561 1.12-2.561 2.48v62.736h-11.522v-67.537c0-3.841 2.801-7.521 6.561-8.722z"/><path d="m307.178.909h12.164v76.899h-12.164z"/><path d="m34.277.796h5.822v13.733c.037 3.808-.073 7.617-.256 11.462-.257 5.493-.623 11.022-1.501 16.479-.623 3.735-1.942 7.361-3.553 10.803-2.636 5.53-6.738 10.217-11.389 14.172-4.138 3.662-9.118 6.299-14.318 8.129-2.93 1.026-5.969 1.795-9.082 2.235v-11.499c3.735-.55 7.287-1.868 10.62-3.626 3.955-2.087 7.47-4.87 10.473-8.203 3.076-3.405 5.53-7.36 7.398-11.535 2.197-4.834 3.369-10.034 4.174-15.234.989-6.628 1.428-13.33 1.575-20.031.037-2.344.037-4.614.037-6.885z"/><path d="m42.48.796c3.588-.036 7.141 0 10.729 0v76.939h-10.729c-.037-8.166 0-16.369-.037-24.535.037-17.468.037-34.936.037-52.404z"/><path d="m55.59.796h5.786c-.074 7.837.219 15.637 1.135 23.437.769 6.043 1.831 12.122 4.248 17.724 2.27 5.457 5.566 10.51 9.851 14.575 4.101 3.882 9.045 6.885 14.428 8.606 1.501.476 3.039.842 4.614 1.098v11.499c-3.076-.403-6.079-1.208-9.009-2.197-3.478-1.208-6.847-2.783-9.96-4.797-2.271-1.465-4.321-3.186-6.299-5.017-3.259-3.003-6.152-6.409-8.349-10.29-1.721-3.003-2.966-6.263-3.955-9.558-.879-3.333-1.282-6.775-1.612-10.217-.659-7.398-.915-14.832-.878-22.265v-12.598z"/><path d="m365.28 10.779-4.626 15.264 5.219-.3c14.371 0 23.824 12.307 23.824 25.988 0 15.657-12.206 26.385-27.468 26.385-9.16 0-18.319-4.822-22.646-12.996l6.896-6.498c2.264 6.301 9.845 11.028 16.439 11.028 10.039 0 17.919-8.27 17.919-18.217 0-9.551-8.165-17.621-17.714-17.621-5.218 0-10.636 2.46-13.881 6.598h-1.776l11.421-38.106h29.727v8.466h-23.334v.009z"/><path d="m438.619 68.073v8.471h-47.944l32.494-39.876c3.051-3.736 6.594-8.366 6.594-13.289 0-7.777-6.894-14.175-14.571-14.175-7.584 0-13.783 6.107-14.279 13.587h-9.252c1.472-13.193 10.039-22.058 23.531-22.058 12.603 0 23.427 9.353 23.427 22.25 0 5.512-2.071 11.023-5.507 15.264l-24.417 29.826z"/><path d="m479.175.738c-21.259 0-38.551 17.431-38.551 38.859 0 21.259 17.292 38.551 38.551 38.551 21.877 0 39.013-16.997 39.013-38.705s-17.136-38.705-39.013-38.705zm29.901 38.859c0 16.77-13.338 29.905-30.372 29.905-15.972 0-28.963-13.415-28.963-29.905 0-16.661 12.989-30.217 28.963-30.217 17.312 0 30.372 12.991 30.372 30.217z"/><path d="m560.987.738c-21.259 0-38.552 17.431-38.552 38.859 0 21.259 17.293 38.551 38.552 38.551 21.875 0 39.013-17.001 39.013-38.705s-17.138-38.705-39.013-38.705zm29.898 38.859c0 16.77-13.338 29.905-30.371 29.905-15.972 0-28.968-13.415-28.968-29.905 0-16.661 12.996-30.217 28.968-30.217 17.318 0 30.371 12.991 30.371 30.217z"/></g></svg>