<?xml version="1.0" encoding="UTF-8" standalone="no"?><!DOCTYPE svg PUBLIC "-//W3C//DTD SVG 1.1//EN" "http://www.w3.org/Graphics/SVG/1.1/DTD/svg11.dtd"><svg width="100%" height="100%" viewBox="0 0 600 245" version="1.1" xmlns="http://www.w3.org/2000/svg" xmlns:xlink="http://www.w3.org/1999/xlink" xml:space="preserve" xmlns:serif="http://www.serif.com/" style="fill-rule:evenodd;clip-rule:evenodd;stroke-linejoin:round;stroke-miterlimit:2;"><g id="atari_st_alt"><g><g><g><path d="M289.606,152.191l3.873,3.041c13.558,10.51 29.877,19.089 47.308,19.089c7.479,0 19.365,-3.041 19.365,-12.453c-0,-9.406 -9.962,-10.233 -16.873,-11.618l-15.221,-2.763c-29.593,-5.257 -54.49,-22.691 -54.49,-55.338c-0.012,-49.515 45.089,-77.181 90.459,-77.181c23.786,0 45.642,5.809 66.117,18.26l-20.475,53.395c-13,-8.845 -27.66,-15.768 -43.982,-15.768c-6.64,-0 -16.326,2.485 -16.326,11.062c0,7.749 9.41,8.849 15.212,10.234l17.155,3.88c32.09,7.189 55.334,24.344 55.334,59.757c-0,49.795 -45.372,74.422 -90.469,74.422c-26.287,0 -56.711,-7.191 -80.231,-19.091l23.244,-58.928Z" style="fill:#fff;fill-rule:nonzero;"/><path d="M440.647,18.287l159.353,-0l-0,58.52l-41.775,0.118l-0,149.964l-75.803,0l0,-149.966l-41.775,-0.116l-0,-58.52Z" style="fill:#fff;fill-rule:nonzero;"/></g></g></g><g><g><path d="M77.501,0.803l12.01,0l0,28.327c0.076,7.855 -0.151,15.711 -0.529,23.642c-0.529,11.33 -1.283,22.736 -3.096,33.991c-1.285,7.705 -4.004,15.184 -7.328,22.284c-5.438,11.406 -13.898,21.075 -23.492,29.233c-8.535,7.553 -18.808,12.992 -29.534,16.768c-6.043,2.115 -12.313,3.702 -18.734,4.608l0,-23.718c7.705,-1.133 15.032,-3.852 21.906,-7.478c8.158,-4.306 15.41,-10.047 21.604,-16.921c6.345,-7.024 11.406,-15.182 15.258,-23.794c4.532,-9.97 6.949,-20.696 8.611,-31.422c2.039,-13.673 2.946,-27.496 3.248,-41.319c0.076,-4.834 0.076,-9.517 0.076,-14.201Z" style="fill:#fff;fill-rule:nonzero;"/><path d="M94.421,0.803c7.403,-0.076 14.73,0 22.132,0l-0,158.702l-22.132,0c-0.076,-16.844 0,-33.764 -0.076,-50.609c0.076,-36.031 0.076,-72.062 0.076,-108.093Z" style="fill:#fff;fill-rule:nonzero;"/><path d="M121.463,0.803l11.935,0c-0.151,16.165 0.453,32.254 2.342,48.343c1.586,12.464 3.776,25.003 8.761,36.56c4.684,11.255 11.482,21.679 20.32,30.064c8.46,8.006 18.658,14.201 29.761,17.751c3.098,0.982 6.27,1.737 9.518,2.266l-0,23.718c-6.345,-0.831 -12.539,-2.493 -18.582,-4.532c-7.176,-2.493 -14.125,-5.741 -20.545,-9.895c-4.684,-3.022 -8.914,-6.572 -12.993,-10.349c-6.723,-6.193 -12.69,-13.218 -17.223,-21.225c-3.55,-6.194 -6.118,-12.917 -8.157,-19.716c-1.813,-6.874 -2.644,-13.974 -3.324,-21.074c-1.36,-15.258 -1.889,-30.593 -1.813,-45.926l0,-25.985Z" style="fill:#fff;fill-rule:nonzero;"/><path d="M27.42,188.36c-2.719,9.141 -5.288,18.28 -8.007,27.42l15.938,-0c-2.643,-9.14 -5.287,-18.279 -7.931,-27.42Zm-6.647,-13.521c2.794,-3.625 8.686,-4.23 12.086,-1.209c1.435,1.209 2.417,2.871 2.945,4.609c6.422,22.056 12.842,44.113 19.262,66.17l-11.33,-0c-1.813,-6.044 -3.55,-12.162 -5.288,-18.281l-21.906,0c-1.813,6.119 -3.55,12.162 -5.287,18.281l-11.255,-0c6.118,-21.075 12.161,-42.075 18.28,-63.074c0.604,-2.266 0.906,-4.683 2.493,-6.496Z" style="fill:#fff;fill-rule:nonzero;"/><path d="M99.482,215.78l15.862,-0c-2.643,-9.14 -5.287,-18.355 -7.931,-27.495c-2.644,9.216 -5.287,18.355 -7.931,27.495Zm0.906,-40.488c1.964,-2.87 5.817,-4.23 9.14,-3.399c3.097,0.68 5.439,3.324 6.195,6.346c6.42,22.056 12.841,44.037 19.262,66.094l-11.331,-0c-1.738,-6.119 -3.475,-12.161 -5.288,-18.28l-21.905,-0c-1.738,6.119 -3.551,12.161 -5.288,18.28l-11.255,-0c6.119,-21.15 12.237,-42.301 18.356,-63.451c0.679,-1.813 0.906,-3.928 2.114,-5.59Z" style="fill:#fff;fill-rule:nonzero;"/><path d="M46.531,171.818l41.016,-0l0,11.104l-15.107,-0l-0,61.487l-10.802,-0l0,-61.487l-15.107,-0l0,-11.104Z" style="fill:#fff;fill-rule:nonzero;"/><path d="M147.07,172.271c1.057,-0.378 2.115,-0.453 3.248,-0.453l12.917,-0c7.252,0.15 14.201,4.607 17.374,11.179c2.19,4.23 2.416,9.215 1.888,13.823c-0.378,4.91 -2.418,9.745 -6.194,12.993c-1.964,1.737 -4.457,2.87 -6.572,4.38c-1.133,0.907 -1.208,2.645 -0.605,3.853c5.741,8.838 11.709,17.525 17.525,26.287l-12.841,-0c-5.59,-8.385 -11.104,-16.844 -16.694,-25.305c-1.661,-2.417 -2.115,-5.59 -1.133,-8.309c0.755,-2.115 2.568,-3.626 4.608,-4.457c3.928,-1.51 7.705,-3.852 9.896,-7.478c1.661,-2.794 1.586,-6.194 0.83,-9.215c-0.83,-3.928 -4.683,-7.025 -8.762,-6.874l-8.385,0c-1.284,0 -2.417,1.058 -2.417,2.341l0,59.221l-10.877,0l0,-63.753c0,-3.625 2.644,-7.1 6.194,-8.233Z" style="fill:#fff;fill-rule:nonzero;"/><rect x="192.316" y="171.818" width="11.482" height="72.591" style="fill:#fff;fill-rule:nonzero;"/></g></g></g></svg>