<svg clip-rule="evenodd" fill-rule="evenodd" stroke-linejoin="round" stroke-miterlimit="2" viewBox="0 0 600 160" xmlns="http://www.w3.org/2000/svg"><g fill="#fff" fill-rule="nonzero"><path d="m43.237.826h6.7v15.803c.043 4.383-.084 8.765-.295 13.19-.295 6.321-.716 12.684-1.727 18.963-.717 4.299-2.234 8.471-4.088 12.432-3.034 6.364-7.754 11.758-13.106 16.309-4.762 4.214-10.493 7.248-16.477 9.355-3.371 1.18-6.869 2.065-10.451 2.571v-13.233c4.298-.632 8.386-2.149 12.221-4.172 4.551-2.402 8.597-5.604 12.052-9.439 3.54-3.919 6.363-8.47 8.513-13.275 2.528-5.562 3.877-11.546 4.804-17.53 1.137-7.628 1.643-15.339 1.812-23.051.042-2.697.042-5.31.042-7.923z"/><path d="m52.677.826c4.129-.042 8.217 0 12.347 0v88.538h-12.347c-.043-9.397 0-18.837-.043-28.234.043-20.101.043-40.203.043-60.304z"/><path d="m67.763.826h6.659c-.085 9.018.252 17.994 1.306 26.97.885 6.954 2.107 13.949 4.888 20.396 2.613 6.28 6.405 12.095 11.336 16.773 4.72 4.467 10.409 7.922 16.604 9.903 1.728.548 3.497.969 5.309 1.264v13.232c-3.54-.463-6.995-1.39-10.366-2.528-4.004-1.391-7.881-3.203-11.462-5.52-2.613-1.686-4.973-3.667-7.249-5.774-3.75-3.455-7.079-7.374-9.608-11.841-1.981-3.456-3.413-7.207-4.551-10.999-1.012-3.835-1.475-7.797-1.855-11.758-.758-8.512-1.053-17.067-1.011-25.621v-14.497z"/><path d="m15.297 105.462c-1.517 5.1-2.95 10.198-4.467 15.298h8.892c-1.475-5.1-2.95-10.198-4.425-15.298zm-3.708-7.543c1.559-2.023 4.846-2.36 6.743-.674.8.674 1.348 1.601 1.643 2.571 3.582 12.305 7.164 24.61 10.746 36.915h-6.321c-1.012-3.371-1.981-6.784-2.95-10.198h-12.221c-1.012 3.414-1.981 6.785-2.95 10.198h-6.279c3.413-11.757 6.785-23.473 10.198-35.188.337-1.264.506-2.612 1.391-3.624z"/><path d="m55.5 120.76h8.849c-1.474-5.1-2.949-10.241-4.424-15.34-1.475 5.142-2.95 10.24-4.425 15.34zm.506-22.588c1.095-1.602 3.245-2.36 5.099-1.896 1.728.379 3.034 1.854 3.455 3.54 3.582 12.305 7.165 24.568 10.747 36.873h-6.322c-.969-3.414-1.938-6.785-2.95-10.198h-12.221c-.969 3.413-1.98 6.784-2.949 10.198h-6.279c3.413-11.8 6.826-23.599 10.24-35.399.379-1.011.505-2.191 1.18-3.118z"/><path d="m25.959 96.234h22.883v6.194h-8.429v34.303h-6.026v-34.303h-8.428z"/><path d="m82.049 96.486c.59-.21 1.18-.252 1.812-.252h7.206c4.046.084 7.923 2.57 9.693 6.236 1.222 2.36 1.348 5.141 1.053 7.712-.211 2.739-1.349 5.436-3.456 7.248-1.095.97-2.486 1.602-3.666 2.444-.632.506-.674 1.476-.337 2.15 3.203 4.93 6.532 9.777 9.777 14.665h-7.164c-3.119-4.678-6.195-9.397-9.313-14.117-.927-1.349-1.18-3.119-.633-4.636.422-1.18 1.433-2.023 2.571-2.486 2.192-.843 4.299-2.15 5.521-4.172.927-1.559.885-3.456.463-5.141-.463-2.192-2.612-3.919-4.888-3.835h-4.678c-.716 0-1.348.59-1.348 1.306v33.039h-6.068v-35.567c0-2.023 1.474-3.961 3.455-4.594z"/><path d="m107.291 96.234h6.406v40.498h-6.406z"/><path d="m240.086 32.134c.611.15.899-.48 1.348-.749.72-.432 7.475-2.548 7.547-2.626.683-.677-.342-2.332.246-2.697.629-.396 1.954-.21 2.475-.522 2.608-1.564 6.528-1.636 9.07-3.225.779-.491 1.516-1.774 2.32-2.098 1.654-.659 3.686-.635 5.472-1.348.923-.372 1.175-1.835 1.727-2.476 1.043-1.217 2.212-1.487 3.446-2.47 1.775-1.426-6.809.282-3.674-2.853 3.009-3.009 15.165-1.822 16.34-2.997l.222-.372c.821-.821 2.847.162 2.847-2.098v-.749c-.096-.066-7.816.755-8.392.899-5.041 1.259-11.539.678-16.262 2.098-2.044.612-12.576 2.272-13.349 3.045l-1.865 1.301c-8.763 1.75-17.617 2.733-26.386 4.196-4.346.725-10.694.923-14.489 2.188-3.464 1.157-9.045 1.427-12.492 2.386-2.71.755-10.34-.875-12.738.15-.551.233-1.114 2.931-.749 3.296.323.33 1.319.246 1.721.528.353.246.976.557.749 1.121-.306.761-3.393-.144-4.196 1.199-.977 1.63 2.481 3.884 3.074 4.873.912 1.517-2.673 2.2-1.875 4.196h1.498c.75 0 1.385.24 1.876.977l.654.522c1.432 2.026 34.797-3.597 34.797-3.597s-9.747 83.159-49.165 87.54c-8.998 1.001-18.547-10.556-19.189-10.795-.592-.222-1.749-.276-2.133.012-.384.293-.809 2.098.378 3.446 4.483 5.101 17.827 16.053 31.134 15.729 41.372-.994 58.013-98.03 58.013-98.03z"/><path d="m258.818 68.591-.072-.03c0-2.254 5.095-9.453 5.922-12.744v-.078c.552-.275.719-2.11.899-2.247 1.475-1.103 3.848-6.318 6.072-8.542l2.398-2.326c.162-.162.51-.312.671-.15.39.39-.089 7.331-.221 8.008-.432 2.14.269 8.854-.15 9.831-.45 1.055-2.302 1.583-4.22 2.626-2.602 1.42-5.557 3.242-7.325 3.596-.989.198-.839 2.248-3.896 2.248zm-21.658 8.062v.222c0 4.202 2.926 1.277 3.897 2.248.185.186-.084 2.056-.222 2.326-3.459 6.911-6.426 14.098-10.868 20.764-.264.39-.24.923-.449 1.349-1.553 3.105-3.975 6.522-5.245 9.063-.486.971-.576 2.044-1.127 3.153-.06.12-.3 2.092-.45 1.798 0 2.65-2.769 7.355-1.798 9.291.288.581.132-.461.449-.67.702-.474 1.763-.851 2.248-1.577.414-.623 1.289-4.76 1.577-4.946 1.043-.694 1.648-2.116 1.648-.227 0 .869.042 1.438-.228 2.247-.113.342.114.792 0 1.127l-.299.672v1.127l.299-.45.228-.45c.126-.251.042-.533.222-.899.336-.67.09-.515.078-.527 0-.006.072-.072.372-.372.551-.551.119-1.696.677-2.248.252-.257 1.492-2.385 1.798-2.997l1.349-2.475c.216-.438.36-1.212.671-.9 1.613 1.613 1.223 5.863.45 8.171-.072.215-.558 1.462-.45 1.57.15.15.264-.354.45-.449 2.116-1.055.563-3.333 1.127-3.897 2.158-2.158 2.493-6.089 4.723-8.32 3.747-3.746 10.748-27.909 14.315-31.476 2.829-2.829 18.084-6.096 20.986-8.991 1.882-1.888 1.798 3.393 1.798 4.046 0 1.834-.108 16.173 0 16.484.485 1.457 1.337 2.29 1.798 3.675.713 2.146-.647 10.592 1.649 12.893.329.33.203-.431.227-.449.282-.288 1.121-2.29 1.121-2.775 0-.474.114-1.685.45-1.349.258.252 2.254 7.277 2.475 7.493.48.479-.078 1.42.222 2.026.162.317.618.587.678.671.089.144.149.606.221.456.486-.971.306-2.41.899-3.603.492-.977.468-3.236 1.127-3.896 1.025-1.025 2.524 2.601 2.698 2.775s.947.851 1.127.672v-4.568c0-7.157 0-46.546.222-46.995.323-.648 1.876-24.607 1.876-27.358 0-3.411-.57-2.59-2.326-4.346-.366-.36-.156-3.752-.228-3.824l-1.798-1.571c-.689-.695-5.635 2.248-7.643 2.248-4.376 0-3.297 1.421-5.473 3.597-.113.12-.329-.108-.449-.222-.468-.474-.45-.492-.45-1.349v-.677c-.335-.168-2.05.545-2.248.677-1.198.797-2.253 3.681-2.919 5.017-1.271 2.542-3.231 4.508-4.573 7.199-.54 1.079-1.109 5-1.799 5.695-3.32 3.315-9.321 13.169-11.317 17.162-.228.455-1.127 3.596-1.127 3.596-.953.953-5.443 8.758-5.844 9.969-.192.569-3.585 1.954-4.274 2.248-.671.293-1.577.155-2.098.677-.324.324-.138.33-.138.342s-.06.024-.312.107z"/><path d="m334.849 22.483-.03-.018h.15c.443.15.965.12 1.349.372.377.252.089-.27.449 0 .552.419 1.631 1.564 2.398 1.954.407.198 1.115.072 1.576.072h.6c.216.869 2.655 4.981 3.596 5.545.54.323 1.751.311 2.476.677.174.084.569-.012.749.072h.3c0 1.181-2.937 2.014-2.098 2.847 1.247 1.253 1.517 2.752-1.277 3.453-2.086.521-4.442-.282-6.444.521-2.355.942-4.729 2.83-7.199 3.447h-.072c-11.754 3.92-24.061 20.578-24.061 33.13v.45c0 8.284 4.904 17.743 12.444 20.758 1.037.42 1.859 1.583 3.147 1.798 1.019.174 2.392.828 3.675.828.899 0 5.952.785 6.666.371 1.714-.977 3.62-1.558 5.322-2.697.906-.6.204-3.573-.149-3.747-1.925-.965-.228-12.809.527-15.063.623-1.87 1.948-4.796.899-5.845l-.3-.299c-.071-.072-1.288-.318-1.426-.228-1.589 1.061-6.018.378-6.672.749-2.29 1.307-4.603 2.326-6.893 3.597-.612.342-4.43 2.685-4.874 1.798-.095-.198.486-.557.6-.671.479-.48 1.474-1.499 2.098-1.876 1.325-.792 2.302-4.442 3.674-5.545 3.921-3.135 10.988-6.42 16.191-7.721.12-.03.318.042.372-.072l.149-.299 2.854-1.277c.971-.486 1.534-1.852 2.547-2.02.845-.144 1.199.971 1.799 1.271 2.211 1.108 4.645-1.301 4.645 1.276v2.02c-1.217 1.217-.33 4.334-1.049 5.773-.348.695-3.075 11.323-3.075 11.617 0 .371-1.001 4.885-1.049 4.945-.366.462-.521 12.678-.521 14.314 0 2.446.629 4.514 1.348 6.672.144.437.45 1.247.45 1.648 0 .264.24.283.15.378-.486.486-1.109-.701-1.277-.749-3.944-1.127-7.745-7.673-7.871-7.721-1.99-.797-1.876 2.59-3.446 3.375-1.469.732-3.657 2.727-4.7 4.118-1.199 1.6-13.673 1.486-14.788.378-1.624-1.625-4.711-1.403-6.444-2.698-.989-.743-10.999-9.686-11.167-10.268-.485-1.702-1.648-4.202-2.475-5.85 0 0-1.733-8.278-2.116-13.416-1.259-16.784 8.056-33.352 19.505-43.17 1.636-1.403 3.441-4.011 5.395-4.796 2.332-.929 4.352-1.348 6.821-2.17 1.751-.587 3.909-.869 5.473-1.654.258-.126.689-.462 1.049-.372l.03.018z"/><path d="m441.847 58.964c.102 0 .743-2.283 1.121-2.925 1.582-2.625 3.231-5.922 5.023-8.314 1.546-2.062 9.213-11.821 7.421-2.853-.372 1.852-1.199 2.745-1.199 4.801 0 3.837-.905 3.411-3.746 4.118-2.854.714-6.133 5.173-8.62 5.173zm-61.909-40.323h-.3c.401.402-.3.3-.3.3-.269.269-1.282 1.162-1.498 1.798-.354 1.061-4.25 5.539-3.597 7.499-.066-.066-.791.485-.899.599-.737.737-1.408 2.859-2.098 3.896-.617.924-4.226 10.58-4.801 12.289-.12.377.156 1.492 0 1.804-1.169 2.344-2.704 4.813-3.896 7.193-1.727 3.459-2.986 9.573-5.096 13.787-1.384 2.769-2.997 9.896-3.896 15.591-.449 2.841 0 7.336 0 9.897 0 .905-.012 3.572.3 4.196.126.251.695 1.396.899 1.198-.318.953 1.445 1.445 1.798 1.799.072.072.702 1.6.899 1.798.018.018.876.324.6.599 2.859-.953 6.971 1.349 10.795-1.198.798-.535 6.774-4.238 6.894-4.196l.899-1.199c.863-1.301 2.536-2.08 3.297-3.597.743-1.486 3.914-6.6 5.395-6.6-2.447.354-.6 14.477-.6 16.191h.6c0 .653.395 3.099 1.199 2.697-.222.672 1.534 1.721 2.098 2.098 3.494 2.332 8.565-3.428 9.896-2.098.216.216-1.301 2.812-1.498 3.597-.181.707-4.664 10.658-5.395 11.395-.75.749-3.003 3.578-3.003 4.795 0 .822-.126 1.067.299 1.499 0 0-.096.701.306.3v.599c.354-.353 1.175 1.475 1.199 1.499.564.569 3.986-.929 3.596-2.098.36.359.534-1.079.9-1.199 1.378-.462 1.702 1.097 2.098.899 1.408-.701 4.196-5.114 4.196-1.798h.599v-.6c.18.09 1.073-.515 1.199-.599.797-.528 5.125-6.989 5.694-8.692.204-.599 1.763-2.571 2.098-2.403v-.6c.276.276.582-.575.606-.599.234-.235.988-.558 1.498-.899.204-.138.27-.463.6-.3-.246-.719.359-1.559.899-2.098 3.68-3.686 11.761-20.83 14.686-26.681.192-.377 4.285-6.036 4.801-6.294l3.297-.299c.21 0 1.163-.336.899-.6.504.168 7.672-5.7 10.191-5.7-.18-.174.982-.84 1.198-.9 1.109-.275 2.188-.899 3.297-.899v-.599c.366 0 2.5-1.097 3.003-.599 1.175 1.18-1.204 10.693-1.204 10.795 0 .893.905 4.184.899 4.196h.605c0 4.178.6 8.29.6 12.594v1.199c.113.114 1.678-.12 1.798 0 1.654 1.654.275 8.967 2.697 11.389.084.084 0 .186 0 .3 0 .671.323.899.899.899 0 1.103-.072 1.271-.599 1.798-.073.072.3.947.3 1.499.755-.378.563.869.599.899.965.971-.036 3.069-.599 4.202-.012.018-.204 1.996.299 1.499-.353 1.054.6.401.6 1.498h.599c-.126.127.756.761.899 1.199.27.815.6 1.558.6 2.398h.3v.899h.599l.3.599v.6c.641.641.7-1.889.299-2.698-.611-1.222.3-4.238.3-5.694 0-1.925.893-10.772 1.199-11.695 1.3-3.896.803-25.026 1.199-26.681 1.498-6.294 2.398-17.839 2.398-25.781 0-5.311.839-11.743 2.098-16.79.396-1.588.539-4.07 1.198-5.395.192-.383.714-.521.9-.899.023-.042.191-1.69-.3-1.199v-1.498h-.6c0-.102.168-1.367-.299-.9v-.605c-1.122 0-2.608-.599-3.897-.599-.144 0-2.674-.324-2.397-.6h-.6c.318-.312-.798-.797-1.199-.599v-.6l-.299-.299h-.899c.251-.246-.834-.834-.9-.9-.474-.473-.263-1.582-.899-1.798-.576-.192-1.373.731-1.798.3.533 1.612-1.648 1.199-2.098 2.098-.869 1.738.264 4.262-.599 6l-2.998 2.698c-.084.084-.084.215 0 .299-1.007 0-2.829 1.912-3.003 1.799.162.155-.138.443-.299.599-.558.557-1.961 1.223-2.398 2.098-.905 1.81-3.549 3.507-4.496 5.395-1.559 3.117-5.203 8.602-8.392 10.196-.563.282-1.636 3.381-2.398 2.997.174.522-2.271 2.746-2.703 3.597-1.007 2.014-4.22 8.134-5.395 9.89-.617.929-2.649 1.649-2.398 2.404-.012-.012-3.224 2.002-2.997 2.697-.467-.233-4.963 3.459-5.394 3.897-.888.887-4.407.713-4.802 1.498-.276.558 1.637 3.327.905 4.796-.479.953-2.104 1.336-2.104 2.397h1.505c1.504 0 2.368-.899 3.596-.899.198 0 .498-.102.3.3-.707 1.415-8.991 13.889-9.597 14.093-.395.132-3.59-.294-3.596-.3-.355-.354-.546-1.553-.899-1.199 0-.677-.084-5.832 0-6 1.528-3.051 1.45-7.098 2.997-10.191 2.056-4.106 6.252-15.818 8.098-18.588.479-.719 1.157-1.055.899-2.098h.3c1.319-4.897 4.406-9.621 5.994-14.392.396-1.181 2.002-5.898 2.697-6.594l1.199-.899c-.156-.467 1.205-2.691.6-3.297-.096-.096-1.121-.977-.899-1.199h-.6l-.3-.299v-.6c-.989.983.846-5.64-.299-4.495 0-2.422-4.928-2.098-6.894-2.098l-.299-.3v-.6c-.228.222-.588-.305-.899-.305-.654 0-3.201.036-3.603.305-1.96 1.307-6.234 12.235-8.092 14.087l-.899 2.398c-.259.515-1.259.965-.9 1.498h-.299c.875 2.632-1.577 4.616-2.698 6.3-.21.312-1.798 9.951-1.798 11.389h-.599c0 .27-.312 1.493-.6 1.199.324 1.301-1.714 3.95-2.098 5.095-4.088 12.265-2.757 7.853-11.395 16.491-1.582 1.588-2.823 4.082-4.795 5.394-.995.666-1.835.936-2.698 1.799-.084.084-.084.221 0 .299h-.599c.437.439-2.188 1.116-1.799 1.505-.137-.048-3.812 3.788-6.599 2.398-3.741-1.871 3.423-15.519 3.003-16.79.018.024.833-.768 1.199-1.499.809-1.63.503-4.508 1.498-5.994 2.308-3.465 4.796-4.891 4.796-9.897l.299-.599h.6c-.018-.036.599-1.229.599-1.798.084.084.216.084.3 0l1.499-1.499c1.594-1.594 1.702-4.604 2.697-6.594.51-1.019 2.23-1.762 2.697-2.697.421-.845-.365-3.471.3-4.801.101-.198.642-1.457.899-1.199-.204-.612 5.413-8.057 5.101-8.692h.6c-.348-.695 2.697-6.066 2.697-6.294h-.599v-.599c-.444.437-1.577-1.577-1.798-1.805-.084-.078-.222-.078-.3 0v-.599h-.6c.395-.396-.299-.3-.299-.3-.024-.018-.216-1.882-.606-1.498 0-.678-.947-2.854-.899-2.998h-.599c1.139-2.271-3.543-1.612-4.796-1.198-.677.227-2.242 2.104-2.697 1.798z"/><path d="m473.305 129.535c-.09 0-.055-.18-.055-.27v-1.498c0-1.109 1.266-3.081.972-3.369-2.824-2.823 3.183-11.113 4.651-14.542.156-.372-.12-3.333 0-3.447.091-.095 1.14-.456.971-.749-.3-.522-.88-2.014-.521-2.848.282-.659 1.247-.941 1.498-1.504.695-1.559.534-2.559 1.421-3.896.156-.235.162-1.397.528-1.949.233-.353.227-.833.449-1.198.702-1.175 1.816-1.217 2.17-2.398.63-2.098-.509-4.783 0-6.072.953-2.386 4.436-13.979 5.101-14.836l.75-.977c1.354-1.768.041-3.968.749-5.623.725-1.696 1.648-3.47 2.619-5.095.534-.887.66-4.364 1.948-6.522.15-.239 1.043-4.579.75-4.867-.359-.366-1.511 1.205-1.948 1.499-.762.509-1.619.419-2.398 1.198-.24.24-7.589 1.829-7.043-.527-.126.126-.906-.641-.978-.671-.659-.288-.395.155-1.199-.3-.095-.06-2.378-.138-2.469-.228-1.624-1.618-1.618-2.242-3.602-3.375-.499-.281-.084-.569-.972-.299.222-.162-.737-.432-.749-.45-.389-.384.234-3.453.449-3.669 1.499-1.498 6.834-4.729 6.073-7.271.551-.239.078-.006.521-.449.144-.144 1.325-.821 1.727-.977 1.205-.45 4.082-1.187 5.095-1.948.641-.48 1.073-.6 1.948-.971 3.566-1.529 7.067-2.758 10.868-3.897.815-.245 1.061-1.145 1.948-1.504.701-.276 2.091-.246 2.697-.672l.749-.527c3.89-2.716 14.08-1.499 16.041-2.62 1.229-.701 2.47-2.247 3.375-2.697 1.475-.737 17.605 1.75 18.737 2.398 1.895 1.079 2.956 1.079 4.346 2.469.085.084 1.523 2.194 1.948 1.954-.017 1.289 3.19 1.799 3.375 2.17.636 1.277 1.589 2.482 2.919 3.147.169.084.636 1.685.75 1.949.432 1.001 1.348 1.798 1.948 2.397.876.875-.101 2.572.449 3.675.283.563-.311 2.571-.221 3.147-.587 1.372.264 4.082-.21 5.634-1.222 3.975-2.913 6.606-5.413 10.179-1.547 2.211-4.135 2.661-5.322 4.351-.21.3-.684 2.015-1.199 2.17-1.194.36-5.341 2.494-6.294 3.447-.857.863-1.804 1.696-2.925 2.176l-.971.228h-.528c0 .156 5.233 4.927 5.623 5.317 2.913 2.913 4.393 7.546 6.821 9.968 1.697 1.703 4.292 3.854 5.772 6.072.061.096.186-.042.3 0 6.732 2.691 13.655 12.546 19.859 15.292-.156.269 1.307 1.348 1.499 1.498.983.756 3.273 2.955 3.896 3.897 1.013 1.516 13.026 12.749 15.789 15.513.27.27.755 3.147.474 3.446.593-1.966-9.807-6.605-10.49-8.32-.774-1.93-10.197-9.117-12.595-9.968-.089-.03-6.359-6.108-7.043-6.516-1.756-1.055-4.772-2.098-6.594-3.375-2.655-1.858-3.686-4.687-5.323-6.593-1.084-1.265-2.876-.935-4.572-3.897-.157-.275-1.649-1.007-1.948-1.426l-.523-.75c-.737-1.048-1.798-1.498-2.697-2.397-.114-.114-.282-1.061-.677-1.277-.324-.174-1.822-1.157-1.498-1.648h-.673c.157-.27-.874-.852-.976-1.199-.132-.438-1.463-1.984-1.948-2.47-.102-.102-1.709.12-1.948 0l-1.199-.755c-.156-.084-.972-.45-.749-.672-1.014 0-3.136-2.157-3.896-2.925-.528-.521-3.346-.347-4.125-2.17-.414-.965-1.612-1.348-2.476-1.948-.509-.359-1.18-.629-1.42-1.199l-.45-.977c-.138-.317-.108-.365-.102-.365.012.006-.012.09-.425-.156-.276-.168-.222-.198-.222-.45v-.527.749l.45.45.299.749c.168.551.222.485.222 1.199 0 .713.252 1.504.749 1.948 1.217 1.097 2.548 2.218 3.597 3.447 1.084 1.264 3.578 3.057 4.873 4.351 2.548 2.542 6.612 4.886 9.746 8.015 1.301 1.306 1.703 2.379 2.621 3.602.071.09-.103.24 0 .3l2.697.671c2.344 2.74 6.396 4.352 8.02 8.021.258-.168.342.221.449.299 1.122.786 3.513 2.763 3.675 3.825.702-.282.917.755 1.42.971 5.665 2.428 12.199 8.524 16.569 12.894.396.395 2.367 3.638 3.147 3.896 1.211.407 4.292 1.877 5.095 2.926.324.413.593 1.701.749 2.169.006.024 8.458 8.668 9.22 8.997.078.03-.024.138 0 .223.305 1.03 1.948.97 1.948 1.948 0 .401.365 1.042 0 1.199-.138.059-.66-.271-.75-.45-.065-.126-5.688-5.557-5.844-5.617-4.07-1.631-15.598-12.972-21.136-15.741-4.298-2.152-10.286-8.937-13.793-12.444-1.738-1.738-2.746-3.189-3.896-4.346-.473-.474-2.392-.803-2.924-1.427l-.523-.749c-4.513-1.996-6.905-5.695-10.645-6.815l-.75-.45c-.078-.042-.185.078-.221 0-.258-.593-12.373-14.356-12.894-14.62-.977-.486-11.03-6.911-11.389-7.265-.576-.576.126-1.655.449-2.398 1.984-4.627 3.699.869 7.044-2.475.497-.498-2.513-3.159-3.147-3.375-.39-.126-1.079-.726-.75-.971l-.677-.228c0-1.361.12-2.05.977-2.697.366-.276.348-.876.671-1.199.51-.504 1.919.629 1.949.677 1.887 2.506 3.596 3.447 7.798 3.447.653 0 1.553.293 1.948-.228 2.686-3.585 6.744-10.94 9.441-14.087.138-.161.383-1.798.229-1.954-.475-.467-1.374-2.056-1.649-2.697l-3.447-1.199c-.546-.162-.299-.39-.449-.749-.037-.078-.145.036-.229 0-.97-.414-3.213-1.703-3.446-2.17h-.678c-.269 0-2.151-.078-2.247 0-.367.311-.198.407-.21.437-.007.012-.055.012-.24.012-8.146 0-9.387.893-12.366 7.343-.294.636-.917 1.157-.971 1.948-.582.33-.438-2.11-2.476-1.498-.419.126-1.906 7.163-2.398 7.792l-3.446 4.352c-3.267 4.904-4.754 22.509-7.271 25.032-.174.174 0 .498 0 .75 0 3.207-.564 5.185-1.649 7.72-.377.882-.989 9.477-1.726 11.689-.707 2.122-1.445 2.65-2.17 4.346-1.486 3.459 1.055 6.12-2.476 8.77-.072.054 0 .137 0 .227 0 1.091.091 3.345-.671 3.669-.276.12-2.266-.432-2.476-.522-.365-.155-.228-.875 0-1.198.402-.576 2.02-2.17 2.476-2.626.432-.432 0-2.919.222-3.447.156-.365 1.882-2.104 2.176-2.397.443-.444.401-1.205.749-1.727.156-.234-.689-1.661-.749-1.72-.078-.072.072-2.326 0-2.398-.516-.515-1.721 1.486-1.948 1.948-.564 1.115-3.651 9.196-3.675 9.22-1.505 1.504-3.261 7.073-4.125 7.571-1.126.641-1.558-5.366-3.896-1.278-.102.186-.119 2.614-.221 2.926-.42 1.241-1.157 1.799-1.654 3.447v1.42c-.42.318-.726-1.409-1.721-.749-2.769 1.846-1.079 1.097-2.176 0-.078-.084-.186-.03-.299 0l.071.059"/><path d="m508.053 71.804-.03-.024c.798.456 1.445-.006 2.027.228 2.092.833 3.992.569 5.994 1.57 2.782 1.391 6.018 5.629 9.597 6.822.191.066.036.425.15.599.383.618 1.234 1.835 1.798 2.398 1.39 1.397 6.03 7.217 7.193 7.799.432.215 1.648.971 1.798 1.348.186.456.893 2.242 1.049 2.398 1.558 1.559 2.452 1.481 4.346 2.619.432.258 1.445 2.003 1.648 2.626.126.36.654.396.978.599 1.252.786 7.187 6.186 7.793 6.594.784.522 1.06 1.954 2.174 2.398.673.27.558 1.481 1.199 1.798 2.908 1.457 11.396 5.773 14.015 8.398.54.54.582 1.499 1.199 1.948 1.439 1.043 4.61 2.248 5.623 3.597 1.948 2.602 7.786 10.1 10.568 11.617.593.323.953.131.971.977.066-.066.168-.066.228 0 .311.311.875 1.091 1.426 1.421 1.217.73 2.776 3.015 3.747 3.824.137.12.269.102.449.15.689.173 7.085 3.926 5.773 5.245-.234.227-.797.27-.977 0-.738-1.103-1.679-2.146-2.848-2.848-.299-.179-1.162-.138-1.348-.599-1.451-3.621-13.343-9.399-14.992-12.145-.102-.173-1.157-.197-1.199-.221-.504-.299-2.595-1.175-2.626-1.199-.91-.911-2.079-2.674-2.997-3.225-2.224-1.331-7.606-7.355-8.17-7.571-3.362-1.259-5.982-4.304-9.818-6.216-.516-.264-1.198-.306-1.571-.749-2.403-2.883-17.839-14.297-17.989-16.041h-.599c.079-.054-.581-.479-.821-.599-.114-.06-.288.09-.378 0l-2.026-1.199c-.132-.054-2.979-4.556-3.968-5.545l-.45-.455c-2.775-2.77-5.269-5.593-8.769-7.343-.078-.036-1.649-2.92-2.176-3.447-.061-.06-.139.024-.222 0-2.871-.719-5.353-.42-7.421-1.798-.731-.486-1.199-3.111-1.199-4.574v-.222c0-.15-.09-.258 0-.377.12-.156 1.019-.24.821-.372z"/><path d="m591.967 152.499c.234-.234.792-.048.977.228.57.857 1.451 1.253 1.799 2.17.371.995 2.301.515 2.847 1.426.276.462.485.54.749.977.264.438.45.468.45 1.049v.971l-.228.6s.204.047-.222-.372c-.347-.353.198-.102-.15-.449l-.227-.15c-.042-.078.065-.168 0-.228-.288-.288-.331-.503-.6-.821-.216-.264-1.019-.498-1.421-.977-.425-.51-1.384-.785-1.798-1.199-.239-.234-2.853-2.205-3.375-2.398-2.193-.821-3.98-2.032-5.772-3.824-1.481-1.481-7.655-4.903-8.242-6.371-.048-.115-.288.089-.378 0-.701-.702-1.139-1.014-2.17-1.422-.533-.215-12.168-9.273-12.217-9.368-.071-.139-.071-.181-.065-.181.018-.012.084.12-.162-.048-2.991-1.99-5.826-5.161-8.992-6.743-.335-.169-2.547-3.513-2.547-4.046v-.15c-4.082-2.721-6.666-1.81-11.845-8.02-.083-.102-.017-.33-.149-.372-2.398-.803-14.746-14.087-15.436-15.819-.413-1.019-2.212-.851-2.775-1.798-.779-1.301-.468-2.164-1.427-3.597-.299-.449-4.693-1.468-4.795-1.576-1.229-1.229-1.787-3.285-2.548-4.046-.917-.918-3.41-1.367-4.196-2.548-.06-.09 0-.989 0-1.199.162.102.665-.419.75-.449h2.847c.941.563 4.238 3.422 4.945 3.596 2.716.684 5.275 1.211 7.421 2.997 3.123 2.602 1.828 4.328 3.375 7.421 1.247 2.5 13.601 13.607 16.184 16.191.99.983 1.637 3.093 2.853 3.824.468.281 3.567.791 3.747.971 1.115 1.115 2.955 2.134 3.819 2.997.317.318.515 2.212.826 2.398.438.264 4.994 4.07 5.173 4.424.145.293.792-.12.971.15.486.73 2.291 1.372 2.997 1.798.546.33 1.739 2.559 2.398 2.997.42.281 2.986 2.584 3.004 2.626.276.743 1.091.419 1.648.977 1.385 1.384 4.646 1.87 5.995 3.219 6.137 6.138 12.833 10.286 17.161 14.614"/></g></svg>