<?xml version="1.0" encoding="UTF-8" standalone="no"?><!DOCTYPE svg PUBLIC "-//W3C//DTD SVG 1.1//EN" "http://www.w3.org/Graphics/SVG/1.1/DTD/svg11.dtd"><svg width="100%" height="100%" viewBox="0 0 600 717" version="1.1" xmlns="http://www.w3.org/2000/svg" xmlns:xlink="http://www.w3.org/1999/xlink" xml:space="preserve" xmlns:serif="http://www.serif.com/" style="fill-rule:evenodd;clip-rule:evenodd;stroke-linejoin:round;stroke-miterlimit:2;"><g id="atari_tall"><path d="M227.832,0.634l35.307,-0l-0,83.271c0.222,23.093 -0.444,46.188 -1.555,69.503c-1.554,33.308 -3.773,66.839 -9.103,99.925c-3.775,22.651 -11.77,44.635 -21.54,65.509c-15.988,33.53 -40.858,61.953 -69.06,85.936c-25.092,22.205 -55.293,38.193 -86.825,49.295c-17.765,6.218 -36.195,10.882 -55.071,13.547l0,-69.726c22.649,-3.331 44.189,-11.325 64.397,-21.984c23.983,-12.657 45.301,-29.534 63.509,-49.741c18.653,-20.65 33.531,-44.633 44.856,-69.949c13.323,-29.311 20.429,-60.843 25.315,-92.375c5.994,-40.193 8.659,-80.828 9.548,-121.465c0.222,-14.212 0.222,-27.979 0.222,-41.746Z" style="fill:#fff;fill-rule:nonzero;"/><path d="M277.574,0.634c21.761,-0.224 43.301,-0 65.061,-0l0,466.542l-65.061,-0c-0.224,-49.519 0,-99.26 -0.224,-148.778c0.224,-105.922 0.224,-211.844 0.224,-317.764Z" style="fill:#fff;fill-rule:nonzero;"/><path d="M357.07,0.634l35.085,-0c-0.444,47.52 1.331,94.818 6.885,142.116c4.662,36.639 11.101,73.501 25.756,107.474c13.769,33.088 33.753,63.732 59.734,88.381c24.87,23.537 54.849,41.746 87.491,52.182c9.106,2.889 18.431,5.108 27.979,6.663l-0,69.726c-18.653,-2.443 -36.86,-7.329 -54.627,-13.323c-21.094,-7.329 -41.523,-16.878 -60.397,-29.089c-13.769,-8.884 -26.203,-19.321 -38.196,-30.424c-19.761,-18.207 -37.304,-38.858 -50.629,-62.397c-10.436,-18.209 -17.985,-37.972 -23.981,-57.958c-5.33,-20.207 -7.771,-41.081 -9.772,-61.953c-3.997,-44.855 -5.552,-89.934 -5.328,-135.011l0,-76.387Z" style="fill:#fff;fill-rule:nonzero;"/><path d="M80.608,552.002c-7.995,26.87 -15.545,53.736 -23.539,80.606l46.854,0c-7.771,-26.87 -15.544,-53.736 -23.315,-80.606Zm-19.541,-39.749c8.215,-10.658 25.536,-12.435 35.529,-3.553c4.22,3.553 7.107,8.439 8.66,13.546c18.876,64.841 37.75,129.681 56.625,194.524l-33.309,-0c-5.33,-17.767 -10.436,-35.752 -15.544,-53.74l-64.398,-0c-5.33,17.988 -10.436,35.751 -15.544,53.74l-33.086,-0c17.987,-61.956 35.751,-123.689 53.738,-185.42c1.777,-6.662 2.665,-13.767 7.329,-19.097Z" style="fill:#fff;fill-rule:nonzero;"/><path d="M292.45,632.608l46.632,0c-7.771,-26.87 -15.542,-53.958 -23.315,-80.828c-7.773,27.092 -15.544,53.958 -23.317,80.828Zm2.665,-119.023c5.774,-8.439 17.099,-12.434 26.87,-9.992c9.104,1.999 15.986,9.77 18.209,18.653c18.873,64.841 37.75,129.459 56.625,194.3l-33.31,-0c-5.108,-17.987 -10.214,-35.75 -15.544,-53.738l-64.396,-0c-5.108,17.988 -10.438,35.751 -15.544,53.738l-33.087,-0c17.987,-62.176 35.974,-124.353 53.961,-186.528c1.998,-5.33 2.663,-11.547 6.216,-16.433Z" style="fill:#fff;fill-rule:nonzero;"/><path d="M136.789,503.371l120.578,0l-0,32.643l-44.413,-0l0,180.756l-31.754,-0l0,-180.756l-44.411,-0l0,-32.643Z" style="fill:#fff;fill-rule:nonzero;"/><path d="M432.347,504.704c3.109,-1.111 6.218,-1.333 9.549,-1.333l37.972,0c21.318,0.443 41.746,13.546 51.074,32.863c6.438,12.437 7.105,27.092 5.55,40.637c-1.11,14.435 -7.107,28.647 -18.209,38.195c-5.772,5.107 -13.101,8.439 -19.319,12.879c-3.331,2.665 -3.552,7.772 -1.777,11.326c16.877,25.98 34.419,51.517 51.518,77.275l-37.749,-0c-16.434,-24.648 -32.644,-49.517 -49.076,-74.388c-4.884,-7.107 -6.217,-16.434 -3.331,-24.427c2.221,-6.217 7.55,-10.66 13.547,-13.103c11.548,-4.44 22.65,-11.324 29.09,-21.983c4.884,-8.215 4.662,-18.208 2.442,-27.09c-2.442,-11.546 -13.768,-20.652 -25.758,-20.208l-24.649,0c-3.776,0 -7.107,3.11 -7.107,6.883l0,174.094l-31.974,-0l-0,-187.417c-0,-10.658 7.771,-20.872 18.207,-24.203Z" style="fill:#fff;fill-rule:nonzero;"/><rect x="565.359" y="503.371" width="33.754" height="213.398" style="fill:#fff;fill-rule:nonzero;"/></g></svg>