<svg clip-rule="evenodd" fill-rule="evenodd" stroke-linejoin="round" stroke-miterlimit="2" viewBox="0 0 600 83" xmlns="http://www.w3.org/2000/svg"><g fill="#fff"><path d="m91.43 8.691h37.771v45.459h-37.771z"/><path d="m91.263 59.498h95.597v14.206h-95.597z"/><path d="m152.265 8.691h43.954l30.585 25.069-23.9 16.212z"/><path d="m208.085 53.648 69.86-45.124h32.924l-67.854 44.122v21.058h-34.93z"/><path d="m320.395 8.357 96.767 65.848h20.891v-66.015h-18.885v45.458l-68.188-45.291z"/><path d="m315.548 15.042 37.437 23.732v34.93h-37.604l.167-58.662z"/><path d="m448.081 8.022 68.689 34.095 12.368-5.516 20.557 9.694h29.414l-74.372-38.44z"/><path d="m534.987 19.053 18.551 7.354 46.462-17.215h-48.467z"/><path d="m596.764 75.709-68.69-34.094-12.367 5.516-20.557-9.694h-29.414l74.371 38.439z"/><path d="m509.481 65.64-18.175-8.649-46.461 17.214h48.467z"/><path d="m2.13.94h70.133c1.091.115 2.015 1.04 2.131 2.132v77.591c-.117 1.089-1.037 2.01-2.126 2.129h-70.138c-1.091-.117-2.016-1.041-2.13-2.135v-77.586c.116-1.091 1.04-2.014 2.13-2.131zm10.977 55.207c-.446.506-.524 1.198-.728 1.816-1.722 5.918-3.437 11.838-5.151 17.758 1.059.001 2.118-.002 3.176.002.495-1.716.993-3.429 1.496-5.141 2.058.001 4.116-.002 6.174.002.495 1.713.986 3.427 1.488 5.138 1.064-.003 2.129 0 3.193-.001-1.801-6.206-3.613-12.409-5.416-18.614-.143-.499-.422-.962-.82-1.297-.974-.852-2.618-.679-3.412.337zm35.542-.717c-.994.318-1.739 1.304-1.745 2.352.004 5.979 0 11.959.002 17.939 1.023.001 2.045-.001 3.068.001.004-5.554-.002-11.109.002-16.664-.004-.36.33-.669.686-.661.786-.007 1.572.002 2.359-.003 1.138-.039 2.215.831 2.458 1.936.209.851.232 1.811-.23 2.588-.607 1.035-1.689 1.693-2.786 2.111-.574.223-1.09.655-1.305 1.245-.277.77-.151 1.663.31 2.337 1.568 2.369 3.127 4.746 4.702 7.112 1.204-.005 2.407 0 3.61-.002-1.645-2.467-3.32-4.915-4.932-7.402-.169-.347-.153-.832.175-1.081.596-.442 1.29-.743 1.848-1.239 1.055-.91 1.63-2.282 1.737-3.655.154-1.31.092-2.7-.521-3.895-.885-1.84-2.837-3.108-4.881-3.146-1.215-.001-2.429.003-3.643-.002-.309-.007-.621.028-.914.129zm-13.121.851c-.348.464-.418 1.056-.599 1.593-1.726 5.948-3.459 11.895-5.171 17.848 1.057-.002 2.114 0 3.172-.001.491-1.714.998-3.423 1.489-5.137 2.054-.005 4.109-.001 6.163-.002.5 1.713.99 3.427 1.485 5.14 1.066-.005 2.131.003 3.197-.005-1.801-6.201-3.61-12.4-5.411-18.6-.228-.839-.89-1.584-1.754-1.783-.944-.248-2.016.142-2.571.947zm25.861-.978v20.418c1.076.001 2.152-.002 3.227.001.003-6.807.001-13.612.002-20.419zm-41.017 0c-.001 1.039 0 2.077 0 3.115 1.418.001 2.835-.002 4.253.001-.002 5.767-.001 11.535-.001 17.302h3.046c.001-5.767.001-11.535.001-17.302 1.416-.003 2.833 0 4.251-.001v-3.115zm-5.386 4.647c.749 2.574 1.494 5.147 2.242 7.721-1.495 0-2.99.005-4.486-.003.75-2.572 1.489-5.147 2.244-7.718zm20.283 7.721c.74-2.579 1.492-5.155 2.236-7.733.738 2.579 1.491 5.155 2.232 7.734-1.489 0-2.978.001-4.468-.001zm-1.44-60.496c.007 10.14 0 20.279.003 30.417.007 4.747-.015 9.494.011 14.241 2.073-.018 4.146-.004 6.219-.008.001-14.885.001-29.77 0-44.655-2.078.003-4.156-.008-6.233.005zm-4.749-.003c-.003 1.316.007 2.633-.005 3.95-.09 3.887-.332 7.777-.913 11.623-.464 3.026-1.146 6.047-2.42 8.845-1.083 2.434-2.509 4.725-4.298 6.704-1.732 1.917-3.79 3.543-6.077 4.751-1.927 1.013-4.001 1.778-6.16 2.103.002 2.226.002 4.452 0 6.677 1.793-.252 3.554-.706 5.264-1.296 3.024-1.045 5.9-2.588 8.309-4.708 2.693-2.287 5.089-5.006 6.613-8.22.935-1.994 1.688-4.094 2.052-6.272.529-3.159.729-6.361.88-9.556.092-2.213.155-4.427.143-6.643-.002-2.654.003-5.307-.002-7.961-1.129.003-2.257-.001-3.386.003zm12.369-.001c-.001 2.439 0 4.879 0 7.318-.028 4.312.118 8.628.508 12.924.202 1.988.424 3.986.944 5.919.568 1.924 1.293 3.81 2.286 5.555 1.269 2.242 2.96 4.222 4.849 5.964 1.146 1.054 2.339 2.063 3.651 2.906 1.797 1.169 3.753 2.08 5.776 2.784 1.699.578 3.444 1.036 5.224 1.278-.002-2.224-.001-4.449 0-6.674-.906-.131-1.797-.351-2.669-.629-3.123-1-5.998-2.739-8.369-5.001-2.484-2.366-4.39-5.3-5.713-8.456-1.395-3.263-2.019-6.791-2.462-10.294-.541-4.509-.695-9.055-.659-13.593-1.121-.004-2.244-.002-3.366-.001z" fill-rule="nonzero"/></g></svg>