<?xml version="1.0" encoding="UTF-8" standalone="no"?><!DOCTYPE svg PUBLIC "-//W3C//DTD SVG 1.1//EN" "http://www.w3.org/Graphics/SVG/1.1/DTD/svg11.dtd"><svg width="100%" height="100%" viewBox="0 0 600 162" version="1.1" xmlns="http://www.w3.org/2000/svg" xmlns:xlink="http://www.w3.org/1999/xlink" xml:space="preserve" xmlns:serif="http://www.serif.com/" style="fill-rule:evenodd;clip-rule:evenodd;stroke-linejoin:round;stroke-miterlimit:2;"><g id="atari_jaguar_flat_alt"><g><path d="M247.811,36.117c0.598,0.147 0.88,-0.469 1.32,-0.733c0.703,-0.423 7.314,-2.493 7.384,-2.569c0.669,-0.663 -0.334,-2.282 0.241,-2.64c0.616,-0.387 1.912,-0.205 2.422,-0.51c2.552,-1.531 6.388,-1.601 8.875,-3.156c0.763,-0.481 1.484,-1.736 2.27,-2.053c1.619,-0.645 3.607,-0.622 5.355,-1.32c0.904,-0.363 1.15,-1.794 1.69,-2.422c1.02,-1.191 2.164,-1.455 3.372,-2.417c1.737,-1.396 -6.663,0.276 -3.595,-2.792c2.944,-2.944 14.84,-1.783 15.989,-2.933l0.217,-0.363c0.804,-0.804 2.787,0.158 2.787,-2.053l-0,-0.733c-0.094,-0.065 -7.649,0.739 -8.212,0.879c-4.933,1.232 -11.292,0.663 -15.914,2.053c-2,0.599 -12.306,2.224 -13.062,2.98l-1.825,1.273c-8.575,1.713 -17.239,2.675 -25.82,4.106c-4.253,0.71 -10.464,0.903 -14.177,2.141c-3.39,1.132 -8.851,1.396 -12.225,2.334c-2.651,0.739 -10.118,-0.856 -12.464,0.147c-0.539,0.229 -1.091,2.868 -0.733,3.226c0.316,0.323 1.291,0.241 1.684,0.516c0.345,0.241 0.955,0.546 0.733,1.097c-0.3,0.745 -3.321,-0.141 -4.106,1.173c-0.956,1.596 2.428,3.801 3.008,4.769c0.892,1.484 -2.616,2.153 -1.835,4.106l1.467,-0c0.733,-0 1.354,0.235 1.835,0.956l0.64,0.51c1.401,1.983 34.05,-3.519 34.05,-3.519c-0,-0 -9.538,81.374 -48.11,85.661c-8.805,0.98 -18.148,-10.329 -18.776,-10.564c-0.581,-0.217 -1.713,-0.269 -2.088,0.012c-0.375,0.288 -0.792,2.053 0.37,3.373c4.387,4.991 17.444,15.708 30.465,15.391c40.485,-0.973 56.768,-95.926 56.768,-95.926Z" style="fill:#fff;fill-rule:nonzero;"/><path d="M266.141,71.792l-0.071,-0.03c0,-2.205 4.986,-9.25 5.796,-12.47l-0,-0.076c0.539,-0.27 0.704,-2.065 0.88,-2.2c1.442,-1.079 3.765,-6.182 5.941,-8.358l2.347,-2.276c0.158,-0.159 0.498,-0.305 0.657,-0.147c0.381,0.381 -0.088,7.174 -0.217,7.837c-0.423,2.094 0.264,8.663 -0.147,9.619c-0.44,1.033 -2.252,1.549 -4.129,2.569c-2.546,1.391 -5.438,3.174 -7.168,3.52c-0.968,0.193 -0.821,2.199 -3.813,2.199l-0.076,-0.187Zm-21.193,7.889l0,0.217c0,4.112 2.863,1.249 3.813,2.2c0.182,0.181 -0.082,2.011 -0.217,2.275c-3.384,6.763 -6.288,13.796 -10.634,20.319c-0.258,0.381 -0.235,0.903 -0.44,1.32c-1.519,3.038 -3.889,6.381 -5.133,8.868c-0.475,0.951 -0.563,2.001 -1.102,3.086c-0.059,0.117 -0.294,2.047 -0.44,1.759c-0,2.593 -2.71,7.198 -1.76,9.092c0.282,0.568 0.129,-0.452 0.44,-0.656c0.686,-0.464 1.724,-0.833 2.2,-1.543c0.404,-0.61 1.261,-4.658 1.542,-4.84c1.021,-0.679 1.613,-2.071 1.613,-0.223c0,0.851 0.041,1.408 -0.223,2.2c-0.111,0.334 0.112,0.774 0,1.103l-0.293,0.657l0,1.103l0.293,-0.44l0.223,-0.44c0.123,-0.247 0.041,-0.522 0.217,-0.88c0.329,-0.657 0.088,-0.505 0.077,-0.516c-0,-0.006 0.07,-0.071 0.363,-0.364c0.54,-0.54 0.118,-1.66 0.663,-2.2c0.246,-0.252 1.461,-2.334 1.76,-2.932l1.319,-2.423c0.212,-0.428 0.352,-1.185 0.657,-0.88c1.578,1.578 1.197,5.737 0.44,7.995c-0.07,0.211 -0.545,1.431 -0.44,1.537c0.147,0.146 0.258,-0.346 0.44,-0.44c2.071,-1.032 0.552,-3.261 1.103,-3.813c2.112,-2.111 2.44,-5.959 4.622,-8.141c3.666,-3.666 10.517,-27.31 14.007,-30.8c2.769,-2.769 17.697,-5.966 20.536,-8.799c1.842,-1.848 1.759,3.32 1.759,3.959c0,1.795 -0.105,15.826 0,16.131c0.476,1.425 1.308,2.24 1.76,3.595c0.698,2.1 -0.633,10.365 1.613,12.617c0.323,0.323 0.2,-0.422 0.223,-0.44c0.276,-0.281 1.097,-2.24 1.097,-2.715c-0,-0.464 0.111,-1.649 0.44,-1.32c0.252,0.246 2.205,7.121 2.422,7.332c0.47,0.469 -0.076,1.39 0.217,1.982c0.159,0.311 0.605,0.575 0.663,0.657c0.088,0.141 0.147,0.593 0.217,0.446c0.475,-0.95 0.299,-2.358 0.88,-3.525c0.481,-0.956 0.458,-3.167 1.103,-3.813c1.003,-1.003 2.469,2.546 2.639,2.716c0.17,0.17 0.927,0.833 1.103,0.657l0,-4.47c0,-7.003 0,-45.546 0.217,-45.986c0.316,-0.633 1.836,-24.078 1.836,-26.771c-0,-3.337 -0.557,-2.533 -2.276,-4.252c-0.358,-0.352 -0.152,-3.672 -0.223,-3.742l-1.759,-1.537c-0.675,-0.681 -5.514,2.199 -7.479,2.199c-4.282,0 -3.226,1.391 -5.355,3.52c-0.112,0.117 -0.323,-0.106 -0.44,-0.217c-0.458,-0.464 -0.44,-0.481 -0.44,-1.32l-0,-0.663c-0.329,-0.164 -2.006,0.534 -2.2,0.663c-1.173,0.78 -2.205,3.602 -2.856,4.91c-1.244,2.487 -3.162,4.41 -4.476,7.044c-0.528,1.056 -1.085,4.892 -1.76,5.572c-3.249,3.244 -9.121,12.887 -11.074,16.794c-0.223,0.445 -1.103,3.519 -1.103,3.519c-0.932,0.933 -5.326,8.57 -5.719,9.755c-0.187,0.557 -3.507,1.912 -4.182,2.199c-0.657,0.288 -1.542,0.153 -2.053,0.663c-0.316,0.317 -0.135,0.323 -0.135,0.334c0,0.012 -0.058,0.024 -0.305,0.106Z" style="fill:#fff;fill-rule:nonzero;"/><path d="M340.54,26.673l-0.029,-0.017l0.147,-0c0.434,0.146 0.944,0.117 1.319,0.363c0.37,0.247 0.088,-0.263 0.44,0c0.54,0.411 1.596,1.531 2.346,1.913c0.399,0.193 1.092,0.07 1.543,0.07l0.587,0c0.211,0.851 2.598,4.874 3.519,5.426c0.528,0.316 1.713,0.305 2.423,0.663c0.17,0.082 0.557,-0.012 0.733,0.07l0.293,-0c0,1.155 -2.874,1.971 -2.053,2.786c1.22,1.226 1.484,2.692 -1.249,3.379c-2.042,0.51 -4.347,-0.276 -6.306,0.51c-2.305,0.921 -4.628,2.769 -7.044,3.373l-0.071,-0c-11.502,3.836 -23.544,20.136 -23.544,32.419l-0,0.44c-0,8.106 4.798,17.362 12.177,20.312c1.014,0.411 1.818,1.549 3.079,1.76c0.997,0.17 2.34,0.81 3.596,0.81c0.88,-0 5.824,0.768 6.522,0.363c1.678,-0.956 3.543,-1.525 5.209,-2.639c0.886,-0.587 0.199,-3.496 -0.147,-3.666c-1.883,-0.945 -0.223,-12.535 0.516,-14.741c0.61,-1.83 1.907,-4.692 0.88,-5.718l-0.293,-0.294c-0.07,-0.07 -1.261,-0.311 -1.396,-0.223c-1.554,1.039 -5.889,0.37 -6.528,0.734c-2.241,1.278 -4.505,2.275 -6.746,3.519c-0.598,0.334 -4.335,2.628 -4.769,1.76c-0.093,-0.194 0.476,-0.546 0.587,-0.657c0.469,-0.47 1.443,-1.467 2.053,-1.836c1.296,-0.775 2.252,-4.347 3.596,-5.426c3.836,-3.068 10.751,-6.282 15.843,-7.555c0.117,-0.029 0.31,0.041 0.363,-0.07l0.147,-0.294l2.792,-1.249c0.95,-0.475 1.501,-1.812 2.493,-1.977c0.827,-0.14 1.173,0.951 1.759,1.244c2.165,1.085 4.546,-1.273 4.546,1.249l0,1.977c-1.19,1.191 -0.322,4.241 -1.026,5.649c-0.34,0.68 -3.009,11.08 -3.009,11.367c-0,0.364 -0.98,4.781 -1.027,4.839c-0.358,0.452 -0.51,12.406 -0.51,14.007c-0,2.393 0.616,4.417 1.32,6.529c0.141,0.427 0.44,1.22 0.44,1.613c-0,0.258 0.234,0.276 0.146,0.369c-0.475,0.475 -1.085,-0.686 -1.249,-0.733c-3.86,-1.103 -7.578,-7.508 -7.702,-7.555c-1.947,-0.78 -1.836,2.534 -3.372,3.303c-1.437,0.716 -3.578,2.668 -4.599,4.029c-1.173,1.566 -13.379,1.454 -14.47,0.37c-1.59,-1.59 -4.611,-1.373 -6.306,-2.64c-0.968,-0.727 -10.763,-9.478 -10.928,-10.048c-0.475,-1.665 -1.613,-4.111 -2.422,-5.724c-0,-0 -1.695,-8.101 -2.071,-13.128c-1.231,-16.423 7.884,-32.636 19.087,-42.244c1.601,-1.372 3.367,-3.924 5.279,-4.692c2.282,-0.909 4.259,-1.32 6.675,-2.124c1.713,-0.574 3.825,-0.85 5.355,-1.619c0.253,-0.123 0.675,-0.451 1.027,-0.363l0.029,0.017Z" style="fill:#fff;fill-rule:nonzero;"/><path d="M445.241,62.371c0.101,0 0.728,-2.234 1.097,-2.862c1.549,-2.569 3.162,-5.795 4.916,-8.136c1.512,-2.017 9.015,-11.567 7.261,-2.792c-0.363,1.813 -1.173,2.687 -1.173,4.699c0,3.754 -0.886,3.337 -3.666,4.029c-2.792,0.698 -6.001,5.062 -8.435,5.062Zm-60.58,-39.457l-0.293,-0c0.392,0.393 -0.293,0.293 -0.293,0.293c-0.264,0.264 -1.255,1.138 -1.467,1.76c-0.346,1.038 -4.158,5.419 -3.519,7.337c-0.064,-0.064 -0.774,0.475 -0.88,0.587c-0.721,0.721 -1.378,2.798 -2.053,3.813c-0.604,0.903 -4.135,10.352 -4.698,12.024c-0.117,0.37 0.152,1.461 -0,1.766c-1.144,2.293 -2.646,4.71 -3.813,7.038c-1.689,3.385 -2.921,9.368 -4.986,13.491c-1.354,2.71 -2.932,9.684 -3.812,15.257c-0.44,2.779 -0,7.179 -0,9.684c-0,0.886 -0.012,3.496 0.293,4.106c0.123,0.246 0.681,1.366 0.88,1.173c-0.311,0.933 1.414,1.413 1.76,1.76c0.07,0.07 0.686,1.566 0.879,1.759c0.018,0.018 0.857,0.317 0.587,0.587c2.798,-0.933 6.822,1.32 10.564,-1.173c0.78,-0.523 6.628,-4.147 6.745,-4.106l0.88,-1.173c0.845,-1.273 2.481,-2.036 3.226,-3.52c0.728,-1.454 3.831,-6.458 5.279,-6.458c-2.393,0.346 -0.586,14.166 -0.586,15.843l0.586,0c0,0.64 0.388,3.033 1.174,2.64c-0.217,0.657 1.501,1.683 2.052,2.053c3.42,2.281 8.382,-3.355 9.685,-2.053c0.211,0.21 -1.273,2.751 -1.467,3.519c-0.176,0.692 -4.563,10.429 -5.279,11.151c-0.733,0.733 -2.939,3.501 -2.939,4.692c0,0.804 -0.123,1.044 0.294,1.467c-0,-0 -0.094,0.686 0.299,0.293l-0,0.586c0.346,-0.346 1.15,1.444 1.173,1.467c0.552,0.557 3.901,-0.909 3.519,-2.053c0.352,0.351 0.522,-1.056 0.88,-1.173c1.349,-0.452 1.666,1.073 2.053,0.88c1.379,-0.687 4.106,-5.004 4.106,-1.76l0.587,-0l-0,-0.587c0.176,0.088 1.05,-0.504 1.173,-0.586c0.78,-0.516 5.015,-6.839 5.572,-8.505c0.2,-0.587 1.725,-2.516 2.053,-2.353l0,-0.586c0.27,0.27 0.569,-0.563 0.593,-0.587c0.228,-0.229 0.967,-0.545 1.466,-0.879c0.199,-0.135 0.264,-0.453 0.587,-0.294c-0.241,-0.704 0.351,-1.525 0.879,-2.053c3.602,-3.606 11.509,-20.383 14.371,-26.108c0.188,-0.369 4.193,-5.906 4.698,-6.158l3.227,-0.294c0.205,0 1.137,-0.328 0.879,-0.586c0.493,0.164 7.508,-5.578 9.972,-5.578c-0.176,-0.171 0.961,-0.822 1.173,-0.88c1.085,-0.27 2.141,-0.88 3.226,-0.88l0,-0.587c0.358,0 2.447,-1.073 2.939,-0.586c1.149,1.155 -1.179,10.464 -1.179,10.564c-0,0.874 0.886,4.094 0.88,4.106l0.592,-0c0,4.088 0.587,8.112 0.587,12.323l-0,1.173c0.111,0.112 1.642,-0.117 1.759,0c1.619,1.619 0.27,8.775 2.64,11.145c0.082,0.082 -0,0.182 -0,0.293c-0,0.657 0.316,0.88 0.88,0.88c-0,1.079 -0.071,1.244 -0.587,1.76c-0.071,0.07 0.293,0.927 0.293,1.466c0.739,-0.369 0.552,0.851 0.587,0.88c0.944,0.95 -0.035,3.003 -0.587,4.112c-0.011,0.017 -0.198,1.953 0.294,1.466c-0.346,1.033 0.586,0.393 0.586,1.467l0.587,-0c-0.124,0.123 0.739,0.745 0.88,1.173c0.264,0.798 0.586,1.524 0.586,2.346l0.293,0l0,0.88l0.587,-0l0.293,0.586l0,0.587c0.628,0.628 0.686,-1.848 0.294,-2.639c-0.599,-1.196 0.293,-4.147 0.293,-5.573c-0,-1.883 0.874,-10.54 1.173,-11.444c1.272,-3.812 0.786,-24.489 1.173,-26.107c1.467,-6.159 2.346,-17.457 2.346,-25.228c0,-5.197 0.822,-11.491 2.053,-16.43c0.388,-1.554 0.528,-3.983 1.173,-5.279c0.188,-0.375 0.698,-0.51 0.88,-0.88c0.023,-0.041 0.188,-1.654 -0.293,-1.173l0,-1.466l-0.587,-0c0,-0.1 0.165,-1.338 -0.293,-0.88l0,-0.593c-1.097,0 -2.551,-0.586 -3.812,-0.586c-0.141,-0 -2.617,-0.317 -2.347,-0.587l-0.586,0c0.311,-0.305 -0.781,-0.78 -1.173,-0.586l-0,-0.587l-0.294,-0.293l-0.88,-0c0.246,-0.241 -0.815,-0.816 -0.879,-0.88c-0.464,-0.463 -0.258,-1.549 -0.88,-1.76c-0.564,-0.187 -1.344,0.716 -1.76,0.294c0.522,1.577 -1.613,1.173 -2.053,2.053c-0.85,1.701 0.258,4.17 -0.586,5.871l-2.933,2.639c-0.082,0.083 -0.082,0.212 -0,0.294c-0.986,-0 -2.769,1.871 -2.939,1.759c0.158,0.153 -0.135,0.435 -0.293,0.587c-0.546,0.546 -1.918,1.197 -2.346,2.053c-0.886,1.771 -3.473,3.431 -4.4,5.279c-1.525,3.05 -5.091,8.417 -8.211,9.977c-0.552,0.276 -1.602,3.309 -2.347,2.933c0.17,0.511 -2.223,2.687 -2.645,3.52c-0.986,1.97 -4.129,7.959 -5.279,9.678c-0.604,0.909 -2.593,1.613 -2.346,2.352c-0.012,-0.012 -3.156,1.959 -2.933,2.64c-0.458,-0.229 -4.857,3.384 -5.279,3.812c-0.868,0.868 -4.312,0.698 -4.699,1.467c-0.269,0.545 1.602,3.255 0.886,4.692c-0.469,0.933 -2.059,1.308 -2.059,2.346l1.473,0c1.472,0 2.316,-0.88 3.519,-0.88c0.193,0 0.487,-0.099 0.293,0.294c-0.692,1.384 -8.798,13.59 -9.391,13.79c-0.387,0.129 -3.513,-0.288 -3.519,-0.294c-0.347,-0.346 -0.534,-1.519 -0.88,-1.173c0,-0.662 -0.082,-5.707 0,-5.871c1.496,-2.986 1.42,-6.945 2.933,-9.972c2.012,-4.018 6.118,-15.479 7.924,-18.189c0.47,-0.704 1.133,-1.032 0.88,-2.053l0.294,0c1.29,-4.792 4.311,-9.414 5.865,-14.083c0.387,-1.156 1.959,-5.772 2.64,-6.452l1.173,-0.88c-0.153,-0.458 1.179,-2.634 0.586,-3.226c-0.094,-0.094 -1.097,-0.956 -0.88,-1.173l-0.586,-0l-0.293,-0.294l-0,-0.586c-0.968,0.962 0.827,-5.52 -0.294,-4.399c0,-2.37 -4.821,-2.053 -6.745,-2.053l-0.293,-0.294l-0,-0.586c-0.223,0.217 -0.575,-0.299 -0.88,-0.299c-0.64,-0 -3.132,0.035 -3.525,0.299c-1.918,1.278 -6.101,11.971 -7.919,13.784l-0.88,2.346c-0.253,0.505 -1.232,0.945 -0.88,1.467l-0.293,-0c0.856,2.575 -1.543,4.516 -2.64,6.164c-0.205,0.305 -1.759,9.737 -1.759,11.145l-0.587,-0c0,0.264 -0.305,1.461 -0.586,1.173c0.316,1.273 -1.678,3.866 -2.053,4.986c-4.001,12.001 -2.698,7.684 -11.151,16.136c-1.548,1.555 -2.762,3.995 -4.692,5.279c-0.974,0.652 -1.795,0.915 -2.64,1.76c-0.082,0.082 -0.082,0.216 0,0.293l-0.586,0c0.428,0.429 -2.141,1.092 -1.76,1.472c-0.135,-0.046 -3.731,3.707 -6.458,2.347c-3.66,-1.83 3.349,-15.186 2.939,-16.43c0.017,0.024 0.815,-0.751 1.173,-1.466c0.792,-1.596 0.492,-4.411 1.466,-5.866c2.258,-3.39 4.693,-4.786 4.693,-9.684l0.293,-0.587l0.586,0c-0.017,-0.035 0.587,-1.202 0.587,-1.759c0.082,0.082 0.211,0.082 0.293,-0l1.467,-1.467c1.56,-1.56 1.666,-4.504 2.639,-6.452c0.499,-0.997 2.182,-1.724 2.64,-2.639c0.411,-0.827 -0.358,-3.397 0.293,-4.699c0.099,-0.193 0.628,-1.425 0.88,-1.173c-0.2,-0.598 5.297,-7.883 4.991,-8.505l0.587,0c-0.34,-0.68 2.64,-5.936 2.64,-6.159l-0.587,0l0,-0.586c-0.434,0.428 -1.543,-1.543 -1.76,-1.766c-0.082,-0.076 -0.217,-0.076 -0.293,0l0,-0.587l-0.587,0c0.387,-0.387 -0.293,-0.293 -0.293,-0.293c-0.023,-0.017 -0.211,-1.842 -0.592,-1.466c-0,-0.663 -0.928,-2.792 -0.88,-2.933l-0.587,-0c1.115,-2.223 -3.466,-1.578 -4.692,-1.173c-0.663,0.223 -2.194,2.059 -2.64,1.76Z" style="fill:#fff;fill-rule:nonzero;"/><path d="M476.024,131.427c-0.088,0 -0.053,-0.176 -0.053,-0.264l-0,-1.466c-0,-1.085 1.238,-3.015 0.951,-3.296c-2.764,-2.763 3.114,-10.875 4.551,-14.23c0.153,-0.364 -0.117,-3.262 0,-3.373c0.089,-0.093 1.115,-0.446 0.95,-0.733c-0.293,-0.511 -0.861,-1.971 -0.51,-2.787c0.276,-0.645 1.22,-0.92 1.467,-1.472c0.679,-1.525 0.522,-2.504 1.389,-3.812c0.153,-0.23 0.159,-1.367 0.517,-1.907c0.229,-0.346 0.223,-0.816 0.44,-1.173c0.686,-1.15 1.777,-1.191 2.123,-2.346c0.616,-2.053 -0.498,-4.681 -0,-5.942c0.933,-2.335 4.341,-13.679 4.992,-14.517l0.733,-0.957c1.326,-1.73 0.04,-3.883 0.733,-5.501c0.71,-1.66 1.613,-3.397 2.563,-4.986c0.523,-0.868 0.646,-4.27 1.907,-6.382c0.146,-0.235 1.02,-4.481 0.733,-4.763c-0.351,-0.358 -1.478,1.179 -1.906,1.467c-0.745,0.498 -1.584,0.41 -2.347,1.173c-0.234,0.234 -7.425,1.789 -6.892,-0.517c-0.123,0.124 -0.885,-0.627 -0.956,-0.656c-0.645,-0.282 -0.387,0.152 -1.173,-0.294c-0.094,-0.058 -2.328,-0.135 -2.417,-0.223c-1.589,-1.583 -1.583,-2.193 -3.525,-3.302c-0.487,-0.276 -0.082,-0.557 -0.951,-0.293c0.218,-0.159 -0.72,-0.423 -0.733,-0.44c-0.38,-0.376 0.23,-3.379 0.44,-3.59c1.467,-1.466 6.688,-4.628 5.943,-7.115c0.539,-0.235 0.076,-0.006 0.509,-0.44c0.142,-0.141 1.297,-0.803 1.69,-0.956c1.179,-0.44 3.995,-1.161 4.986,-1.906c0.628,-0.47 1.05,-0.587 1.906,-0.951c3.49,-1.495 6.916,-2.698 10.635,-3.812c0.797,-0.241 1.038,-1.12 1.906,-1.472c0.686,-0.27 2.046,-0.241 2.639,-0.657l0.734,-0.517c3.806,-2.657 13.777,-1.466 15.696,-2.563c1.203,-0.686 2.417,-2.199 3.302,-2.639c1.443,-0.722 17.228,1.712 18.336,2.346c1.854,1.056 2.892,1.056 4.252,2.417c0.083,0.082 1.491,2.146 1.907,1.912c-0.017,1.261 3.121,1.759 3.302,2.123c0.622,1.249 1.555,2.428 2.857,3.08c0.164,0.082 0.622,1.648 0.733,1.906c0.423,0.979 1.319,1.76 1.906,2.346c0.857,0.856 -0.099,2.516 0.44,3.596c0.276,0.551 -0.304,2.516 -0.217,3.079c-0.574,1.343 0.259,3.995 -0.205,5.514c-1.196,3.889 -2.851,6.464 -5.297,9.96c-1.513,2.164 -4.047,2.604 -5.208,4.258c-0.205,0.293 -0.669,1.971 -1.173,2.123c-1.168,0.352 -5.226,2.441 -6.159,3.373c-0.839,0.845 -1.766,1.66 -2.863,2.129l-0.949,0.223l-0.517,0c0,0.153 5.121,4.822 5.503,5.203c2.85,2.851 4.299,7.385 6.674,9.755c1.66,1.665 4.2,3.771 5.648,5.941c0.059,0.094 0.182,-0.041 0.293,0c6.588,2.633 13.363,12.277 19.434,14.964c-0.153,0.264 1.278,1.319 1.466,1.466c0.962,0.739 3.203,2.892 3.813,3.813c0.991,1.484 12.746,12.476 15.45,15.18c0.264,0.264 0.739,3.079 0.463,3.373c0.58,-1.925 -9.596,-6.464 -10.265,-8.142c-0.756,-1.889 -9.978,-8.921 -12.324,-9.754c-0.087,-0.03 -6.223,-5.977 -6.892,-6.376c-1.718,-1.033 -4.669,-2.053 -6.452,-3.303c-2.598,-1.818 -3.607,-4.587 -5.209,-6.452c-1.061,-1.237 -2.815,-0.915 -4.474,-3.812c-0.153,-0.27 -1.613,-0.986 -1.906,-1.397l-0.512,-0.733c-0.721,-1.026 -1.76,-1.466 -2.639,-2.346c-0.111,-0.111 -0.276,-1.038 -0.662,-1.249c-0.317,-0.17 -1.784,-1.132 -1.466,-1.613l-0.659,-0c0.153,-0.264 -0.855,-0.833 -0.955,-1.173c-0.129,-0.429 -1.431,-1.942 -1.906,-2.417c-0.1,-0.1 -1.672,0.117 -1.906,-0l-1.173,-0.739c-0.153,-0.082 -0.952,-0.44 -0.734,-0.657c-0.991,-0 -3.068,-2.112 -3.812,-2.863c-0.517,-0.51 -3.274,-0.34 -4.036,-2.123c-0.405,-0.944 -1.578,-1.32 -2.423,-1.906c-0.498,-0.352 -1.155,-0.616 -1.39,-1.173l-0.44,-0.956c-0.135,-0.311 -0.105,-0.358 -0.1,-0.358c0.012,0.006 -0.011,0.088 -0.416,-0.153c-0.27,-0.164 -0.217,-0.193 -0.217,-0.44l-0,-0.516l-0,0.733l0.44,0.44l0.293,0.733c0.164,0.54 0.217,0.476 0.217,1.174c0,0.698 0.247,1.472 0.733,1.906c1.191,1.073 2.493,2.17 3.52,3.373c1.061,1.237 3.502,2.991 4.768,4.258c2.493,2.487 6.47,4.781 9.537,7.842c1.273,1.279 1.666,2.329 2.565,3.526c0.07,0.088 -0.1,0.234 -0,0.293l2.639,0.657c2.293,2.68 6.258,4.258 7.847,7.848c0.253,-0.164 0.335,0.217 0.44,0.293c1.098,0.769 3.438,2.704 3.596,3.743c0.687,-0.276 0.898,0.739 1.39,0.95c5.544,2.375 11.937,8.341 16.213,12.617c0.387,0.387 2.317,3.56 3.08,3.812c1.184,0.399 4.199,1.837 4.985,2.863c0.317,0.405 0.58,1.665 0.734,2.123c0.005,0.024 8.275,8.482 9.021,8.804c0.076,0.03 -0.024,0.135 -0,0.218c0.299,1.008 1.906,0.95 1.906,1.906c0,0.393 0.357,1.02 0,1.173c-0.135,0.059 -0.646,-0.264 -0.733,-0.439c-0.064,-0.124 -5.566,-5.438 -5.719,-5.497c-3.983,-1.596 -15.263,-12.693 -20.682,-15.403c-4.206,-2.106 -10.065,-8.745 -13.497,-12.177c-1.701,-1.701 -2.687,-3.121 -3.813,-4.253c-0.463,-0.463 -2.34,-0.786 -2.861,-1.396l-0.512,-0.733c-4.416,-1.953 -6.756,-5.572 -10.417,-6.669l-0.733,-0.44c-0.076,-0.041 -0.182,0.076 -0.216,-0c-0.253,-0.581 -12.107,-14.048 -12.618,-14.306c-0.956,-0.475 -10.792,-6.763 -11.144,-7.109c-0.563,-0.564 0.123,-1.619 0.44,-2.347c1.941,-4.528 3.619,0.851 6.892,-2.422c0.487,-0.487 -2.459,-3.091 -3.08,-3.303c-0.381,-0.123 -1.056,-0.709 -0.733,-0.95l-0.663,-0.223c0,-1.331 0.118,-2.006 0.956,-2.639c0.358,-0.27 0.341,-0.857 0.657,-1.173c0.499,-0.493 1.877,0.616 1.907,0.663c1.847,2.451 3.519,3.372 7.631,3.372c0.639,0 1.519,0.288 1.906,-0.223c2.628,-3.507 6.599,-10.704 9.238,-13.784c0.135,-0.158 0.375,-1.759 0.224,-1.912c-0.464,-0.458 -1.344,-2.012 -1.613,-2.64l-3.373,-1.173c-0.534,-0.158 -0.293,-0.381 -0.44,-0.733c-0.036,-0.076 -0.142,0.035 -0.223,0c-0.95,-0.405 -3.145,-1.666 -3.373,-2.123l-0.663,-0c-0.264,-0 -2.106,-0.076 -2.199,-0c-0.359,0.305 -0.194,0.399 -0.206,0.428c-0.006,0.012 -0.053,0.012 -0.234,0.012c-7.972,-0 -9.186,0.874 -12.101,7.185c-0.288,0.622 -0.898,1.132 -0.95,1.906c-0.569,0.323 -0.429,-2.064 -2.423,-1.466c-0.41,0.123 -1.865,7.009 -2.346,7.625l-3.373,4.259c-3.197,4.798 -4.651,22.025 -7.115,24.495c-0.17,0.17 0,0.486 0,0.733c0,3.138 -0.551,5.073 -1.613,7.555c-0.369,0.862 -0.968,9.273 -1.689,11.438c-0.692,2.076 -1.414,2.592 -2.123,4.252c-1.455,3.385 1.032,5.989 -2.423,8.582c-0.07,0.053 0,0.134 0,0.222c0,1.068 0.089,3.273 -0.657,3.59c-0.27,0.117 -2.217,-0.422 -2.422,-0.51c-0.358,-0.153 -0.224,-0.857 -0,-1.173c0.393,-0.563 1.976,-2.123 2.422,-2.569c0.422,-0.423 0,-2.857 0.217,-3.373c0.153,-0.358 1.842,-2.059 2.129,-2.346c0.434,-0.434 0.393,-1.179 0.734,-1.69c0.152,-0.229 -0.675,-1.625 -0.734,-1.683c-0.076,-0.07 0.071,-2.276 0,-2.346c-0.504,-0.505 -1.683,1.454 -1.906,1.906c-0.551,1.091 -3.572,8.998 -3.596,9.021c-1.472,1.473 -3.191,6.922 -4.036,7.409c-1.102,0.627 -1.524,-5.25 -3.812,-1.25c-0.1,0.182 -0.117,2.558 -0.217,2.863c-0.41,1.214 -1.132,1.76 -1.619,3.373l0,1.389c-0.41,0.311 -0.71,-1.378 -1.684,-0.733c-2.709,1.807 -1.055,1.074 -2.128,0c-0.077,-0.082 -0.182,-0.029 -0.294,0l0.071,0.058" style="fill:#fff;fill-rule:nonzero;"/><path d="M510.027,74.936l-0.029,-0.024c0.78,0.446 1.413,-0.006 1.982,0.223c2.047,0.815 3.907,0.557 5.866,1.537c2.722,1.361 5.889,5.508 9.391,6.675c0.187,0.064 0.035,0.416 0.146,0.586c0.375,0.605 1.209,1.795 1.76,2.347c1.361,1.366 5.901,7.062 7.039,7.631c0.422,0.21 1.613,0.95 1.759,1.32c0.182,0.445 0.874,2.193 1.027,2.346c1.524,1.526 2.399,1.449 4.253,2.563c0.422,0.252 1.413,1.959 1.613,2.569c0.123,0.353 0.639,0.387 0.956,0.587c1.226,0.768 7.033,6.053 7.626,6.452c0.767,0.51 1.037,1.912 2.128,2.346c0.658,0.264 0.546,1.45 1.173,1.76c2.845,1.425 11.151,5.649 13.713,8.218c0.529,0.528 0.57,1.466 1.174,1.906c1.408,1.021 4.511,2.2 5.502,3.519c1.906,2.547 7.619,9.883 10.341,11.368c0.58,0.317 0.933,0.128 0.95,0.956c0.066,-0.065 0.165,-0.065 0.223,-0c0.305,0.305 0.857,1.068 1.396,1.391c1.191,0.714 2.716,2.95 3.666,3.741c0.135,0.118 0.264,0.1 0.44,0.147c0.674,0.17 6.933,3.842 5.649,5.132c-0.229,0.223 -0.78,0.265 -0.956,0c-0.722,-1.079 -1.643,-2.099 -2.786,-2.786c-0.294,-0.175 -1.138,-0.135 -1.32,-0.586c-1.42,-3.544 -13.057,-9.198 -14.67,-11.884c-0.1,-0.17 -1.132,-0.194 -1.173,-0.216c-0.493,-0.294 -2.54,-1.151 -2.57,-1.174c-0.891,-0.892 -2.035,-2.616 -2.933,-3.156c-2.176,-1.302 -7.443,-7.197 -7.995,-7.408c-3.29,-1.232 -5.853,-4.212 -9.606,-6.083c-0.505,-0.258 -1.173,-0.299 -1.538,-0.733c-2.352,-2.821 -17.456,-13.989 -17.602,-15.696l-0.587,-0c0.077,-0.053 -0.569,-0.47 -0.803,-0.587c-0.112,-0.059 -0.282,0.088 -0.37,0l-1.983,-1.173c-0.129,-0.053 -2.915,-4.458 -3.883,-5.426l-0.44,-0.445c-2.715,-2.71 -5.155,-5.473 -8.581,-7.186c-0.076,-0.035 -1.613,-2.856 -2.129,-3.373c-0.059,-0.058 -0.136,0.024 -0.217,0c-2.81,-0.703 -5.238,-0.41 -7.262,-1.759c-0.715,-0.475 -1.173,-3.044 -1.173,-4.476l0,-0.217c0,-0.146 -0.088,-0.252 0,-0.369c0.117,-0.153 0.997,-0.235 0.804,-0.364l0.029,-0.199Z" style="fill:#fff;fill-rule:nonzero;"/><path d="M592.14,153.898c0.228,-0.228 0.774,-0.046 0.956,0.223c0.557,0.839 1.419,1.226 1.759,2.124c0.364,0.973 2.253,0.504 2.787,1.396c0.269,0.451 0.475,0.528 0.733,0.956c0.258,0.428 0.44,0.457 0.44,1.026l-0,0.951l-0.223,0.586c-0,0 0.199,0.046 -0.217,-0.364c-0.34,-0.346 0.193,-0.1 -0.147,-0.44l-0.223,-0.146c-0.041,-0.076 0.064,-0.164 0,-0.223c-0.281,-0.282 -0.323,-0.493 -0.586,-0.804c-0.211,-0.258 -0.997,-0.486 -1.39,-0.956c-0.417,-0.498 -1.355,-0.768 -1.76,-1.173c-0.234,-0.229 -2.792,-2.158 -3.302,-2.346c-2.147,-0.804 -3.896,-1.989 -5.649,-3.742c-1.449,-1.449 -7.49,-4.798 -8.065,-6.235c-0.047,-0.112 -0.282,0.087 -0.37,0c-0.686,-0.686 -1.114,-0.992 -2.123,-1.391c-0.522,-0.211 -11.907,-9.074 -11.955,-9.167c-0.07,-0.135 -0.07,-0.177 -0.064,-0.177c0.018,-0.011 0.082,0.118 -0.159,-0.046c-2.926,-1.948 -5.7,-5.051 -8.798,-6.599c-0.328,-0.165 -2.493,-3.438 -2.493,-3.96l0,-0.146c-3.994,-2.663 -6.523,-1.772 -11.59,-7.848c-0.082,-0.1 -0.017,-0.323 -0.146,-0.364c-2.347,-0.786 -14.43,-13.784 -15.104,-15.479c-0.405,-0.998 -2.165,-0.833 -2.716,-1.76c-0.763,-1.273 -0.458,-2.118 -1.396,-3.519c-0.294,-0.44 -4.593,-1.438 -4.693,-1.543c-1.202,-1.203 -1.748,-3.214 -2.493,-3.959c-0.897,-0.898 -3.337,-1.338 -4.106,-2.493c-0.059,-0.088 0,-0.968 0,-1.173c0.158,0.099 0.651,-0.411 0.734,-0.44l2.786,-0c0.921,0.551 4.147,3.349 4.839,3.519c2.657,0.669 5.162,1.185 7.262,2.933c3.056,2.546 1.789,4.235 3.302,7.261c1.22,2.446 13.309,13.315 15.837,15.843c0.968,0.962 1.601,3.027 2.792,3.743c0.458,0.275 3.49,0.774 3.666,0.95c1.091,1.091 2.892,2.088 3.737,2.933c0.31,0.311 0.504,2.164 0.808,2.346c0.429,0.258 4.887,3.983 5.062,4.329c0.142,0.287 0.775,-0.117 0.951,0.146c0.475,0.715 2.241,1.344 2.932,1.76c0.535,0.323 1.702,2.505 2.347,2.933c0.411,0.275 2.921,2.528 2.939,2.57c0.27,0.726 1.067,0.41 1.613,0.955c1.355,1.355 4.546,1.831 5.866,3.151c6.005,6.005 12.557,10.064 16.793,14.299" style="fill:#fff;fill-rule:nonzero;"/></g><path id="path28" d="M3.732,0.851l122.886,0c1.912,0.203 3.531,1.824 3.735,3.736l0,135.954c-0.205,1.909 -1.818,3.522 -3.726,3.731l-122.895,-0c-1.912,-0.204 -3.533,-1.825 -3.732,-3.74l-0,-135.947c0.204,-1.91 1.821,-3.528 3.732,-3.734Zm19.234,96.734c-0.782,0.886 -0.918,2.099 -1.276,3.183c-3.017,10.369 -6.022,20.741 -9.024,31.114c1.855,0.002 3.709,-0.003 5.564,0.003c0.867,-3.005 1.739,-6.008 2.622,-9.007c3.606,0.002 7.211,-0.004 10.817,0.003c0.868,3.001 1.727,6.005 2.607,9.003c1.864,-0.005 3.73,-0 5.595,-0.002c-3.155,-10.875 -6.33,-21.743 -9.49,-32.615c-0.25,-0.874 -0.739,-1.685 -1.437,-2.273c-1.707,-1.493 -4.586,-1.189 -5.978,0.591Zm62.277,-1.257c-1.742,0.558 -3.047,2.285 -3.058,4.121c0.006,10.478 -0,20.955 0.003,31.433c1.793,0.002 3.584,-0.002 5.377,0.002c0.006,-9.732 -0.004,-19.466 0.003,-29.198c-0.008,-0.631 0.578,-1.173 1.201,-1.158c1.377,-0.013 2.756,0.003 4.134,-0.007c1.993,-0.067 3.88,1.457 4.307,3.393c0.365,1.492 0.407,3.173 -0.403,4.535c-1.064,1.814 -2.959,2.966 -4.881,3.699c-1.007,0.39 -1.911,1.147 -2.288,2.182c-0.485,1.348 -0.265,2.913 0.543,4.093c2.749,4.152 5.48,8.317 8.24,12.462c2.109,-0.008 4.217,0 6.325,-0.003c-2.882,-4.322 -5.818,-8.612 -8.642,-12.97c-0.296,-0.607 -0.267,-1.457 0.306,-1.893c1.046,-0.775 2.262,-1.302 3.238,-2.172c1.849,-1.594 2.858,-3.998 3.044,-6.403c0.271,-2.296 0.161,-4.731 -0.913,-6.825c-1.55,-3.224 -4.97,-5.447 -8.553,-5.512c-2.127,-0.002 -4.254,0.004 -6.382,-0.004c-0.542,-0.012 -1.088,0.048 -1.601,0.225Zm-22.991,1.492c-0.61,0.812 -0.733,1.85 -1.05,2.791c-3.024,10.422 -6.06,20.843 -9.061,31.273c1.854,-0.004 3.705,-0 5.559,-0.002c0.86,-3.002 1.748,-5.998 2.608,-9.001c3.6,-0.009 7.2,-0.001 10.8,-0.003c0.875,3.001 1.734,6.005 2.602,9.006c1.868,-0.008 3.734,0.006 5.601,-0.008c-3.156,-10.865 -6.324,-21.727 -9.481,-32.592c-0.4,-1.469 -1.559,-2.774 -3.073,-3.123c-1.654,-0.435 -3.533,0.248 -4.505,1.659Zm45.313,-1.713l0,35.775c1.885,0.002 3.771,-0.003 5.654,0.002c0.007,-11.927 0.002,-23.851 0.003,-35.777l-5.657,-0Zm-71.869,-0c-0.002,1.819 -0,3.638 -0,5.457c2.484,0.002 4.967,-0.003 7.451,0.002c-0.003,10.105 -0.001,20.211 -0.001,30.316l5.336,-0c0.004,-10.105 0.002,-20.211 0.002,-30.316c2.483,-0.005 4.966,0 7.45,-0.002l-0,-5.457l-20.238,-0Zm-9.437,8.141c1.311,4.51 2.616,9.02 3.928,13.529c-2.62,0 -5.24,0.008 -7.861,-0.004c1.314,-4.507 2.61,-9.02 3.933,-13.525Zm35.539,13.529c1.297,-4.519 2.614,-9.032 3.917,-13.55c1.294,4.52 2.614,9.033 3.912,13.552c-2.61,-0 -5.218,0.002 -7.829,-0.002Zm-2.524,-106c0.013,17.767 0.002,35.532 0.006,53.297c0.013,8.316 -0.027,16.635 0.02,24.951c3.631,-0.031 7.265,-0.006 10.896,-0.014c0.002,-26.08 0.002,-52.162 0,-78.244c-3.641,0.007 -7.282,-0.014 -10.922,0.01Zm-8.32,-0.006c-0.006,2.307 0.013,4.614 -0.009,6.922c-0.158,6.811 -0.582,13.626 -1.6,20.366c-0.813,5.301 -2.008,10.595 -4.241,15.497c-1.896,4.264 -4.395,8.279 -7.529,11.746c-3.036,3.359 -6.642,6.209 -10.649,8.327c-3.376,1.773 -7.011,3.115 -10.793,3.684c0.003,3.899 0.003,7.8 0,11.7c3.141,-0.443 6.226,-1.238 9.224,-2.271c5.298,-1.831 10.337,-4.535 14.558,-8.25c4.719,-4.008 8.916,-8.772 11.587,-14.403c1.638,-3.494 2.958,-7.174 3.595,-10.99c0.928,-5.535 1.278,-11.146 1.543,-16.744c0.161,-3.877 0.271,-7.757 0.25,-11.639c-0.003,-4.65 0.005,-9.3 -0.003,-13.95c-1.978,0.005 -3.955,-0.002 -5.933,0.005Zm21.672,-0.002c-0.001,4.274 0,8.549 0,12.823c-0.049,7.555 0.208,15.118 0.891,22.645c0.354,3.483 0.743,6.984 1.654,10.372c0.995,3.371 2.265,6.676 4.005,9.734c2.225,3.928 5.187,7.397 8.497,10.449c2.008,1.847 4.099,3.616 6.396,5.093c3.149,2.047 6.577,3.644 10.121,4.878c2.977,1.012 6.035,1.815 9.154,2.239c-0.004,-3.898 -0.002,-7.796 -0,-11.694c-1.588,-0.231 -3.149,-0.615 -4.676,-1.103c-5.472,-1.753 -10.509,-4.8 -14.665,-8.763c-4.353,-4.145 -7.693,-9.285 -10.01,-14.817c-2.444,-5.717 -3.537,-11.899 -4.313,-18.036c-0.949,-7.9 -1.219,-15.867 -1.156,-23.818c-1.965,-0.007 -3.931,-0.004 -5.898,-0.002Z" style="fill:#fff;fill-rule:nonzero;"/></g></svg>