<svg clip-rule="evenodd" fill-rule="evenodd" stroke-linejoin="round" stroke-miterlimit="2" viewBox="0 0 600 717" xmlns="http://www.w3.org/2000/svg"><g fill="#fff" fill-rule="nonzero"><path d="m227.832.634h35.307v83.271c.222 23.093-.444 46.188-1.555 69.503-1.554 33.308-3.773 66.839-9.103 99.925-3.775 22.651-11.77 44.635-21.54 65.509-15.988 33.53-40.858 61.953-69.06 85.936-25.092 22.205-55.293 38.193-86.825 49.295-17.765 6.218-36.195 10.882-55.071 13.547v-69.726c22.649-3.331 44.189-11.325 64.397-21.984 23.983-12.657 45.301-29.534 63.509-49.741 18.653-20.65 33.531-44.633 44.856-69.949 13.323-29.311 20.429-60.843 25.315-92.375 5.994-40.193 8.659-80.828 9.548-121.465.222-14.212.222-27.979.222-41.746z"/><path d="m277.574.634c21.761-.224 43.301 0 65.061 0v466.542h-65.061c-.224-49.519 0-99.26-.224-148.778.224-105.922.224-211.844.224-317.764z"/><path d="m357.07.634h35.085c-.444 47.52 1.331 94.818 6.885 142.116 4.662 36.639 11.101 73.501 25.756 107.474 13.769 33.088 33.753 63.732 59.734 88.381 24.87 23.537 54.849 41.746 87.491 52.182 9.106 2.889 18.431 5.108 27.979 6.663v69.726c-18.653-2.443-36.86-7.329-54.627-13.323-21.094-7.329-41.523-16.878-60.397-29.089-13.769-8.884-26.203-19.321-38.196-30.424-19.761-18.207-37.304-38.858-50.629-62.397-10.436-18.209-17.985-37.972-23.981-57.958-5.33-20.207-7.771-41.081-9.772-61.953-3.997-44.855-5.552-89.934-5.328-135.011v-76.387z"/><path d="m80.608 552.002c-7.995 26.87-15.545 53.736-23.539 80.606h46.854c-7.771-26.87-15.544-53.736-23.315-80.606zm-19.541-39.749c8.215-10.658 25.536-12.435 35.529-3.553 4.22 3.553 7.107 8.439 8.66 13.546 18.876 64.841 37.75 129.681 56.625 194.524h-33.309c-5.33-17.767-10.436-35.752-15.544-53.74h-64.398c-5.33 17.988-10.436 35.751-15.544 53.74h-33.086c17.987-61.956 35.751-123.689 53.738-185.42 1.777-6.662 2.665-13.767 7.329-19.097z"/><path d="m292.45 632.608h46.632c-7.771-26.87-15.542-53.958-23.315-80.828-7.773 27.092-15.544 53.958-23.317 80.828zm2.665-119.023c5.774-8.439 17.099-12.434 26.87-9.992 9.104 1.999 15.986 9.77 18.209 18.653 18.873 64.841 37.75 129.459 56.625 194.3h-33.31c-5.108-17.987-10.214-35.75-15.544-53.738h-64.396c-5.108 17.988-10.438 35.751-15.544 53.738h-33.087c17.987-62.176 35.974-124.353 53.961-186.528 1.998-5.33 2.663-11.547 6.216-16.433z"/><path d="m136.789 503.371h120.578v32.643h-44.413v180.756h-31.754v-180.756h-44.411z"/><path d="m432.347 504.704c3.109-1.111 6.218-1.333 9.549-1.333h37.972c21.318.443 41.746 13.546 51.074 32.863 6.438 12.437 7.105 27.092 5.55 40.637-1.11 14.435-7.107 28.647-18.209 38.195-5.772 5.107-13.101 8.439-19.319 12.879-3.331 2.665-3.552 7.772-1.777 11.326 16.877 25.98 34.419 51.517 51.518 77.275h-37.749c-16.434-24.648-32.644-49.517-49.076-74.388-4.884-7.107-6.217-16.434-3.331-24.427 2.221-6.217 7.55-10.66 13.547-13.103 11.548-4.44 22.65-11.324 29.09-21.983 4.884-8.215 4.662-18.208 2.442-27.09-2.442-11.546-13.768-20.652-25.758-20.208h-24.649c-3.776 0-7.107 3.11-7.107 6.883v174.094h-31.974v-187.417c0-10.658 7.771-20.872 18.207-24.203z"/><path d="m565.359 503.371h33.754v213.398h-33.754z"/></g></svg>