<svg clip-rule="evenodd" fill-rule="evenodd" stroke-linejoin="round" stroke-miterlimit="2" viewBox="0 0 600 77" xmlns="http://www.w3.org/2000/svg"><g fill="#fff"><g fill-rule="nonzero"><path d="m129.219 17.909c-2.809 9.444-5.463 18.886-8.272 28.329h16.466c-2.731-9.443-5.463-18.885-8.194-28.329zm-6.867-13.969c2.887-3.746 8.974-4.37 12.486-1.249 1.483 1.249 2.498 2.966 3.044 4.761 6.634 22.788 13.267 45.576 19.9 68.364h-11.706c-1.873-6.243-3.668-12.564-5.463-18.886h-22.632c-1.873 6.322-3.668 12.565-5.463 18.886h-11.628c6.321-21.773 12.565-43.469 18.886-65.165.624-2.341.937-4.838 2.576-6.711z"/><path d="m203.671 46.238h16.388c-2.731-9.443-5.462-18.963-8.194-28.407-2.732 9.522-5.463 18.964-8.194 28.407zm.936-41.83c2.029-2.966 6.009-4.37 9.444-3.512 3.199.703 5.618 3.434 6.399 6.556 6.633 22.788 13.267 45.498 19.901 68.286h-11.707c-1.795-6.322-3.59-12.564-5.463-18.886h-22.632c-1.795 6.322-3.668 12.564-5.463 18.886h-11.628c6.322-21.852 12.643-43.704 18.964-65.555.703-1.873.936-4.058 2.185-5.775z"/><path d="m148.964.818h42.377v11.472h-15.609v63.526h-11.16v-63.526h-15.608z"/><path d="m252.837 1.287c1.093-.391 2.185-.469 3.356-.469h13.345c7.492.156 14.672 4.761 17.95 11.55 2.263 4.371 2.497 9.521 1.95 14.282-.39 5.073-2.497 10.067-6.399 13.423-2.029 1.795-4.604 2.966-6.79 4.526-1.17.937-1.248 2.732-.624 3.981 5.931 9.13 12.096 18.105 18.106 27.158h-13.267c-5.776-8.662-11.473-17.403-17.248-26.144-1.716-2.497-2.185-5.775-1.17-8.584.78-2.185 2.653-3.747 4.761-4.605 4.058-1.561 7.96-3.98 10.223-7.726 1.717-2.887 1.639-6.4.858-9.521-.858-4.058-4.838-7.258-9.052-7.102h-8.663c-1.327 0-2.498 1.093-2.498 2.419v61.185h-11.237v-65.867c0-3.746 2.731-7.336 6.399-8.506z"/><path d="m299.584.818h11.863v74.998h-11.863z"/><path d="m33.429.708h5.679v13.393c.036 3.715-.072 7.429-.25 11.179-.25 5.357-.607 10.75-1.464 16.072-.608 3.643-1.893 7.178-3.465 10.536-2.571 5.393-6.571 9.964-11.107 13.821-4.036 3.572-8.893 6.143-13.965 7.929-2.857 1-5.821 1.75-8.857 2.178v-11.214c3.643-.536 7.107-1.821 10.357-3.536 3.858-2.036 7.286-4.75 10.215-8 3-3.321 5.393-7.179 7.214-11.25 2.143-4.714 3.286-9.786 4.072-14.857.964-6.465 1.393-13 1.535-19.536.036-2.286.036-4.5.036-6.715z"/><path d="m41.429.708c3.5-.036 6.965 0 10.465 0v75.037h-10.465c-.035-7.964 0-15.964-.035-23.929.035-17.036.035-34.072.035-51.108z"/><path d="m54.215.708h5.643c-.071 7.643.214 15.251 1.108 22.858.749 5.893 1.785 11.821 4.142 17.285 2.215 5.322 5.429 10.251 9.607 14.215 4 3.786 8.822 6.715 14.072 8.393 1.465.465 2.964.822 4.5 1.072v11.214c-3-.393-5.928-1.179-8.786-2.143-3.392-1.178-6.678-2.714-9.714-4.678-2.214-1.429-4.214-3.108-6.143-4.893-3.179-2.929-6-6.25-8.143-10.036-1.679-2.929-2.893-6.108-3.857-9.322-.857-3.25-1.25-6.607-1.572-9.964-.643-7.215-.893-14.465-.857-21.715v-12.286z"/></g><path d="m375.221 75.784h-39.462c-1.579 0-3.157-.947-4.736-3.157-1.578-2.21-2.21-4.42-2.21-6.63 0-3.473 2.526-7.892 7.577-13.575 5.051-5.367 10.102-11.05 15.469-16.416 5.051-5.367 7.893-9.787 7.893-12.944 0-1.579-.632-3.157-2.21-4.736-1.263-1.578-3.157-2.21-5.367-2.21s-4.104.632-5.683 2.21c-1.578 1.579-2.21 3.473-2.21 5.999h-15.153c0-6.314 2.21-11.681 6.945-16.417 4.736-4.42 10.103-6.945 16.417-6.945s11.681 2.21 16.1 6.945c4.42 4.42 6.63 9.787 6.63 16.101s-3.157 12.944-9.155 18.942c-5.998 6.314-11.681 12.312-17.364 17.995l26.519.316z"/><path d="m435.204 51.159c0 7.261-2.525 13.26-7.892 18.311s-11.681 7.261-18.942 7.261c-6.946 0-12.628-2.841-17.048-8.208s-6.946-11.681-6.946-18.627c0-2.841 1.579-7.892 5.052-15.469 3.472-7.577 6.945-15.154 10.733-22.415 3.789-7.261 5.683-11.049 5.683-11.049h17.364l-12.944 27.15c7.261 0 13.259 2.21 17.995 6.63 4.42 4.104 6.945 9.786 6.945 16.416zm-15.469.632c0-2.842-.947-5.367-2.841-7.262-1.895-1.894-4.42-3.157-6.946-3.157-2.525 0-5.051.948-6.945 3.157-1.894 2.21-2.842 4.42-2.842 6.946 0 3.157.948 5.367 2.526 7.261 1.894 1.578 4.104 2.526 7.261 2.526s5.367-.948 7.261-2.842c1.579-1.894 2.526-4.104 2.526-6.629z"/><path d="m480.349 76.099c-10.418 0-19.889-3.472-27.466-10.102-7.892-6.63-11.68-15.469-11.68-26.519 0-10.734 3.788-20.205 11.365-27.466 7.577-7.577 16.732-11.365 26.834-11.365 10.103 0 18.942 3.788 26.519 11.365s11.365 16.417 11.365 26.203c0 9.787-3.472 18.627-10.418 26.519-6.629 7.577-15.469 11.365-26.519 11.365zm21.468-37.884c0-5.682-2.21-10.733-6.63-15.153-4.419-4.42-9.471-6.63-15.153-6.63-6.63 0-11.997 2.21-16.417 6.945-4.419 4.736-6.629 10.103-6.629 16.101 0 6.314 2.21 11.681 6.945 15.785 4.42 4.104 10.102 5.999 16.416 5.999 5.999 0 11.05-2.21 15.47-6.314 3.788-4.42 5.998-9.787 5.998-16.733z"/><path d="m563.063 76.099c-10.418 0-19.889-3.472-27.466-10.102-7.892-6.63-11.681-15.469-11.681-26.519 0-10.734 3.789-20.205 11.365-27.466 7.577-7.577 16.733-11.365 26.835-11.365s18.942 3.788 26.519 11.365 11.365 16.417 11.365 26.203c0 9.787-3.473 18.627-10.418 26.519-6.63 7.577-15.469 11.365-26.519 11.365zm21.468-37.884c0-5.682-2.21-10.733-6.63-15.153s-9.471-6.63-15.154-6.63c-6.629 0-11.996 2.21-16.416 6.945-4.42 4.736-6.63 10.103-6.63 16.101 0 6.314 2.21 11.681 6.946 15.785 4.419 4.104 10.102 5.999 16.416 5.999 5.998 0 11.05-2.21 15.469-6.314 3.789-4.42 5.999-9.787 5.999-16.733z"/></g></svg>