<?xml version="1.0" encoding="UTF-8" standalone="no"?><!DOCTYPE svg PUBLIC "-//W3C//DTD SVG 1.1//EN" "http://www.w3.org/Graphics/SVG/1.1/DTD/svg11.dtd"><svg width="100%" height="100%" viewBox="0 0 600 134" version="1.1" xmlns="http://www.w3.org/2000/svg" xmlns:xlink="http://www.w3.org/1999/xlink" xml:space="preserve" xmlns:serif="http://www.serif.com/" style="fill-rule:evenodd;clip-rule:evenodd;stroke-linejoin:round;stroke-miterlimit:2;"><g id="atari_2600_alt3"><g><path d="M599.546,111.383l-0,18.927c-0,0.757 -0.455,1.514 -1.514,2.271c-1.06,0.757 -2.12,1.06 -3.18,1.06c-1.666,0 -3.786,-1.211 -6.511,-3.634c-2.574,-2.423 -5.3,-4.845 -7.874,-7.419c-2.574,-2.423 -4.694,-3.786 -6.208,-3.786c-0.757,0 -1.514,0.303 -2.271,1.06c-0.757,0.606 -1.06,1.514 -1.06,2.574c-0,1.06 0.303,1.969 1.06,2.726c0.757,0.757 1.665,1.06 2.877,1.06l-0,7.268c-3.029,-0 -5.603,-1.06 -7.874,-3.331c-2.12,-2.272 -3.331,-4.846 -3.331,-7.874c-0,-3.029 1.06,-5.603 3.331,-7.723c2.12,-2.119 4.694,-3.179 7.722,-3.179c3.029,-0 6.208,1.514 9.085,4.391c3.029,2.877 5.906,5.602 8.631,8.328l0.152,-12.719l6.965,-0Z" style="fill:#fff;"/><path d="M587.735,82.613c3.483,0 6.36,1.212 8.782,3.786c2.423,2.574 3.483,5.602 3.483,9.085c-0,3.331 -1.363,6.057 -3.937,8.176c-2.574,2.12 -5.602,3.332 -8.934,3.332c-1.362,-0 -3.785,-0.758 -7.419,-2.423c-3.634,-1.666 -7.268,-3.331 -10.751,-5.148c-3.482,-1.817 -5.299,-2.726 -5.299,-2.726l-0,-8.328l13.022,6.208c-0,-3.482 1.06,-6.359 3.179,-8.631c1.969,-2.119 4.694,-3.331 7.874,-3.331Zm0.303,7.42c-1.363,-0 -2.574,0.454 -3.483,1.363c-0.908,0.908 -1.514,2.119 -1.514,3.331c0,1.211 0.454,2.422 1.514,3.331c1.06,0.908 2.12,1.363 3.332,1.363c1.514,-0 2.574,-0.455 3.482,-1.212c0.757,-0.908 1.212,-1.968 1.212,-3.482c-0,-1.514 -0.455,-2.574 -1.363,-3.483c-0.909,-0.757 -1.969,-1.211 -3.18,-1.211Z" style="fill:#fff;"/><path d="M599.697,60.961c0,4.996 -1.665,9.539 -4.845,13.173c-3.18,3.785 -7.42,5.602 -12.719,5.602c-5.149,0 -9.691,-1.817 -13.174,-5.451c-3.634,-3.634 -5.451,-8.025 -5.451,-12.87c0,-4.846 1.817,-9.085 5.451,-12.719c3.634,-3.634 7.874,-5.451 12.568,-5.451c4.694,-0 8.934,1.665 12.719,4.996c3.634,3.18 5.451,7.42 5.451,12.72Zm-18.17,-10.297c-2.726,0 -5.148,1.06 -7.268,3.18c-2.12,2.12 -3.18,4.542 -3.18,7.268c0,3.18 1.06,5.754 3.331,7.874c2.272,2.12 4.846,3.179 7.723,3.179c3.028,0 5.602,-1.059 7.571,-3.331c1.968,-2.12 2.877,-4.845 2.877,-7.873c-0,-2.877 -1.06,-5.3 -3.029,-7.42c-2.12,-1.817 -4.694,-2.877 -8.025,-2.877Z" style="fill:#fff;"/><path d="M599.697,21.289c0,4.997 -1.665,9.539 -4.845,13.173c-3.18,3.786 -7.42,5.603 -12.719,5.603c-5.149,-0 -9.691,-1.817 -13.174,-5.451c-3.634,-3.634 -5.451,-8.025 -5.451,-12.871c0,-4.845 1.817,-9.085 5.451,-12.719c3.634,-3.634 7.874,-5.451 12.568,-5.451c4.694,0 8.934,1.666 12.719,4.997c3.634,3.18 5.451,7.419 5.451,12.719Zm-18.17,-10.296c-2.726,-0 -5.148,1.06 -7.268,3.179c-2.12,2.12 -3.18,4.543 -3.18,7.268c0,3.18 1.06,5.754 3.331,7.874c2.272,2.12 4.846,3.18 7.723,3.18c3.028,-0 5.602,-1.06 7.571,-3.331c1.968,-2.12 2.877,-4.846 2.877,-7.874c-0,-2.877 -1.06,-5.3 -3.029,-7.419c-2.12,-1.817 -4.694,-2.877 -8.025,-2.877Z" style="fill:#fff;"/></g><g><path d="M227.893,31.364c-4.955,16.654 -9.635,33.307 -14.59,49.961l29.041,0c-4.817,-16.654 -9.634,-33.307 -14.451,-49.961Zm-12.112,-24.637c5.092,-6.606 15.827,-7.707 22.022,-2.203c2.615,2.203 4.404,5.231 5.367,8.397c11.7,40.189 23.398,80.378 35.097,120.569l-20.645,-0c-3.304,-11.012 -6.469,-22.16 -9.634,-33.309l-39.915,-0c-3.304,11.149 -6.469,22.159 -9.635,33.309l-20.507,-0c11.148,-38.401 22.159,-76.664 33.308,-114.926c1.101,-4.13 1.651,-8.534 4.542,-11.837Z" style="fill:#fff;fill-rule:nonzero;"/><path d="M359.196,81.325l28.903,0c-4.816,-16.654 -9.633,-33.444 -14.451,-50.099c-4.817,16.792 -9.634,33.445 -14.452,50.099Zm1.652,-73.772c3.579,-5.231 10.598,-7.708 16.654,-6.193c5.643,1.238 9.909,6.055 11.287,11.561c11.698,40.189 23.398,80.241 35.097,120.43l-20.646,0c-3.166,-11.148 -6.331,-22.158 -9.635,-33.308l-39.914,0c-3.166,11.15 -6.469,22.16 -9.634,33.308l-20.508,0c11.149,-38.537 22.297,-77.076 33.446,-115.613c1.239,-3.304 1.651,-7.157 3.853,-10.185Z" style="fill:#fff;fill-rule:nonzero;"/><path d="M262.715,1.222l74.736,-0l-0,20.232l-27.528,0l0,112.036l-19.682,-0l0,-112.036l-27.526,0l-0,-20.232Z" style="fill:#fff;fill-rule:nonzero;"/><path d="M445.906,2.048c1.928,-0.688 3.855,-0.826 5.919,-0.826l23.536,-0c13.213,0.274 25.875,8.395 31.656,20.369c3.991,7.708 4.404,16.792 3.44,25.187c-0.688,8.948 -4.404,17.756 -11.286,23.674c-3.578,3.166 -8.12,5.231 -11.974,7.982c-2.065,1.652 -2.202,4.818 -1.101,7.021c10.46,16.102 21.333,31.931 31.931,47.896l-23.397,0c-10.186,-15.277 -20.233,-30.691 -30.418,-46.107c-3.028,-4.405 -3.854,-10.186 -2.065,-15.14c1.376,-3.853 4.68,-6.607 8.396,-8.122c7.158,-2.752 14.04,-7.019 18.031,-13.625c3.028,-5.092 2.89,-11.286 1.513,-16.791c-1.513,-7.156 -8.533,-12.8 -15.965,-12.525l-15.278,0c-2.34,0 -4.404,1.927 -4.404,4.266l-0,107.906l-19.819,0l0,-116.164c0,-6.606 4.817,-12.936 11.285,-15.001Z" style="fill:#fff;fill-rule:nonzero;"/><rect x="528.35" y="1.222" width="20.922" height="132.268" style="fill:#fff;fill-rule:nonzero;"/></g><g><path d="M58.956,1.028l10.015,0l0,23.62c0.063,6.551 -0.126,13.101 -0.441,19.715c-0.441,9.448 -1.07,18.959 -2.582,28.344c-1.071,6.425 -3.339,12.661 -6.11,18.581c-4.535,9.512 -11.589,17.574 -19.589,24.376c-7.117,6.299 -15.684,10.834 -24.628,13.983c-5.039,1.764 -10.267,3.087 -15.621,3.843l-0,-19.778c6.424,-0.945 12.534,-3.212 18.266,-6.236c6.803,-3.59 12.85,-8.377 18.015,-14.109c5.291,-5.858 9.511,-12.66 12.723,-19.841c3.779,-8.314 5.795,-17.258 7.181,-26.203c1.7,-11.4 2.456,-22.927 2.708,-34.454c0.063,-4.031 0.063,-7.936 0.063,-11.841Z" style="fill:#fff;fill-rule:nonzero;"/><path d="M73.066,1.028c6.172,-0.063 12.282,0 18.454,0l0,132.336l-18.454,-0c-0.064,-14.046 -0,-28.155 -0.064,-42.202c0.064,-30.044 0.064,-60.089 0.064,-90.134Z" style="fill:#fff;fill-rule:nonzero;"/><path d="M95.615,1.028l9.952,0c-0.126,13.479 0.377,26.895 1.953,40.312c1.322,10.392 3.148,20.848 7.305,30.485c3.906,9.385 9.574,18.078 16.944,25.069c7.054,6.677 15.558,11.842 24.817,14.802c2.583,0.819 5.228,1.449 7.936,1.89l0,19.778c-5.291,-0.693 -10.455,-2.079 -15.495,-3.779c-5.983,-2.079 -11.778,-4.788 -17.131,-8.252c-3.906,-2.519 -7.433,-5.48 -10.835,-8.629c-5.605,-5.165 -10.581,-11.023 -14.361,-17.699c-2.96,-5.165 -5.101,-10.771 -6.802,-16.44c-1.512,-5.732 -2.204,-11.653 -2.772,-17.573c-1.134,-12.724 -1.575,-25.51 -1.511,-38.297l-0,-21.667Z" style="fill:#fff;fill-rule:nonzero;"/></g></g></svg>