<?xml version="1.0" encoding="UTF-8" standalone="no"?><!DOCTYPE svg PUBLIC "-//W3C//DTD SVG 1.1//EN" "http://www.w3.org/Graphics/SVG/1.1/DTD/svg11.dtd"><svg width="100%" height="100%" viewBox="0 0 600 145" version="1.1" xmlns="http://www.w3.org/2000/svg" xmlns:xlink="http://www.w3.org/1999/xlink" xml:space="preserve" xmlns:serif="http://www.serif.com/" style="fill-rule:evenodd;clip-rule:evenodd;stroke-linejoin:round;stroke-miterlimit:2;"><g id="atari"><g><g><path d="M248.94,33.382c-5.413,18.193 -10.525,36.383 -15.937,54.576l31.723,-0c-5.261,-18.193 -10.524,-36.383 -15.786,-54.576Zm-13.23,-26.912c5.562,-7.217 17.289,-8.419 24.055,-2.406c2.857,2.406 4.812,5.714 5.863,9.172c12.781,43.901 25.559,87.802 38.339,131.704l-22.552,-0c-3.609,-12.029 -7.066,-24.206 -10.524,-36.385l-43.602,-0c-3.608,12.179 -7.065,24.206 -10.524,36.385l-22.401,-0c12.178,-41.947 24.206,-83.744 36.384,-125.54c1.203,-4.511 1.804,-9.322 4.962,-12.93Z" style="fill:#fff;fill-rule:nonzero;"/><path d="M392.37,87.958l31.573,-0c-5.262,-18.193 -10.523,-36.534 -15.786,-54.726c-5.263,18.343 -10.524,36.533 -15.787,54.726Zm1.805,-80.586c3.909,-5.714 11.576,-8.419 18.192,-6.765c6.164,1.353 10.824,6.614 12.329,12.629c12.778,43.901 25.559,87.652 38.338,131.552l-22.553,0c-3.458,-12.178 -6.915,-24.204 -10.524,-36.384l-43.6,0c-3.458,12.18 -7.067,24.206 -10.524,36.384l-22.402,0c12.178,-42.096 24.357,-84.194 36.535,-126.291c1.353,-3.608 1.803,-7.817 4.209,-11.125Z" style="fill:#fff;fill-rule:nonzero;"/><path d="M286.978,0.456l81.639,0l-0,22.101l-30.07,0l-0,122.383l-21.5,-0l0,-122.383l-30.069,0l0,-22.101Z" style="fill:#fff;fill-rule:nonzero;"/><path d="M487.089,1.359c2.105,-0.752 4.21,-0.903 6.465,-0.903l25.71,0c14.433,0.3 28.264,9.171 34.58,22.25c4.359,8.421 4.81,18.343 3.758,27.514c-0.752,9.774 -4.812,19.396 -12.329,25.86c-3.908,3.458 -8.87,5.714 -13.08,8.72c-2.256,1.804 -2.405,5.263 -1.203,7.668c11.426,17.59 23.304,34.881 34.88,52.32l-25.558,0c-11.126,-16.687 -22.102,-33.526 -33.227,-50.365c-3.307,-4.811 -4.209,-11.127 -2.256,-16.538c1.504,-4.209 5.113,-7.218 9.172,-8.872c7.819,-3.006 15.336,-7.667 19.696,-14.883c3.307,-5.563 3.157,-12.329 1.653,-18.342c-1.653,-7.818 -9.321,-13.983 -17.439,-13.682l-16.689,0c-2.556,0 -4.812,2.105 -4.812,4.66l0,117.872l-21.649,0l0,-126.892c0,-7.217 5.262,-14.132 12.328,-16.387Z" style="fill:#fff;fill-rule:nonzero;"/><rect x="577.146" y="0.456" width="22.854" height="144.484" style="fill:#fff;fill-rule:nonzero;"/></g><g><path d="M64.401,0.245l10.94,-0l-0,25.801c0.069,7.156 -0.138,14.311 -0.482,21.536c-0.481,10.32 -1.169,20.71 -2.82,30.961c-1.17,7.019 -3.647,13.83 -6.675,20.298c-4.954,10.39 -12.659,19.196 -21.398,26.627c-7.774,6.881 -17.132,11.834 -26.902,15.274c-5.505,1.927 -11.216,3.372 -17.064,4.198l-0,-21.605c7.018,-1.032 13.692,-3.509 19.953,-6.811c7.431,-3.922 14.037,-9.151 19.679,-15.413c5.779,-6.398 10.389,-13.829 13.898,-21.673c4.128,-9.082 6.33,-18.852 7.844,-28.622c1.857,-12.454 2.683,-25.045 2.958,-37.636c0.069,-4.404 0.069,-8.67 0.069,-12.935Z" style="fill:#fff;fill-rule:nonzero;"/><path d="M79.814,0.245c6.742,-0.07 13.416,-0 20.159,-0l-0,144.557l-20.159,0c-0.07,-15.343 -0,-30.755 -0.07,-46.098c0.07,-32.82 0.07,-65.64 0.07,-98.459Z" style="fill:#fff;fill-rule:nonzero;"/><path d="M104.445,0.245l10.872,-0c-0.138,14.724 0.412,29.379 2.133,44.034c1.444,11.353 3.439,22.775 7.98,33.301c4.267,10.252 10.459,19.747 18.509,27.385c7.706,7.293 16.995,12.935 27.109,16.168c2.821,0.895 5.711,1.583 8.669,2.065l0,21.604c-5.78,-0.757 -11.421,-2.27 -16.926,-4.128c-6.536,-2.271 -12.866,-5.229 -18.714,-9.013c-4.266,-2.752 -8.119,-5.987 -11.835,-9.427c-6.123,-5.641 -11.559,-12.04 -15.687,-19.334c-3.234,-5.641 -5.573,-11.765 -7.431,-17.958c-1.651,-6.261 -2.408,-12.729 -3.028,-19.196c-1.238,-13.898 -1.72,-27.866 -1.651,-41.833l0,-23.668Z" style="fill:#fff;fill-rule:nonzero;"/></g></g></g></svg>