<svg clip-rule="evenodd" fill-rule="evenodd" stroke-linejoin="round" stroke-miterlimit="2" viewBox="0 0 600 148" xmlns="http://www.w3.org/2000/svg"><g fill="#fff" fill-rule="nonzero"><path d="m46.616.837h7.224v17.038c.045 4.725-.091 9.45-.318 14.22-.318 6.815-.773 13.676-1.863 20.446-.773 4.634-2.408 9.132-4.407 13.403-3.272 6.861-8.36 12.676-14.13 17.583-5.134 4.543-11.314 7.814-17.765 10.086-3.635 1.272-7.406 2.227-11.268 2.772v-14.267c4.634-.681 9.041-2.317 13.176-4.498 4.907-2.589 9.269-6.042 12.994-10.177 3.817-4.225 6.861-9.132 9.178-14.312 2.726-5.997 4.18-12.449 5.18-18.9 1.226-8.224 1.771-16.538 1.953-24.853.046-2.907.046-5.724.046-8.541z"/><path d="m56.793.837c4.452-.046 8.86 0 13.312 0v95.457h-13.312c-.046-10.132 0-20.309-.046-30.441.046-21.672.046-43.344.046-65.016z"/><path d="m73.058.837h7.179c-.091 9.723.272 19.4 1.409 29.078.954 7.496 2.271 15.038 5.27 21.989 2.817 6.77 6.906 13.04 12.222 18.084 5.088 4.815 11.222 8.541 17.901 10.676 1.863.591 3.771 1.045 5.724 1.364v14.266c-3.816-.5-7.542-1.5-11.177-2.726-4.316-1.5-8.496-3.453-12.357-5.952-2.817-1.817-5.362-3.953-7.815-6.225-4.044-3.725-7.633-7.95-10.359-12.766-2.136-3.726-3.68-7.77-4.907-11.859-1.091-4.135-1.59-8.405-1.999-12.676-.818-9.178-1.136-18.401-1.091-27.624v-15.629z"/><path d="m16.493 113.65c-1.636 5.497-3.181 10.995-4.816 16.492h9.586c-1.59-5.497-3.18-10.995-4.77-16.492zm-3.998-8.133c1.68-2.181 5.224-2.544 7.269-.727.863.727 1.454 1.727 1.772 2.772 3.862 13.266 7.724 26.533 11.586 39.8h-6.815c-1.091-3.635-2.136-7.315-3.181-10.995h-13.176c-1.09 3.68-2.135 7.315-3.18 10.995h-6.77c3.68-12.676 7.315-25.307 10.995-37.938.364-1.363.545-2.817 1.5-3.907z"/><path d="m59.837 130.142h9.541c-1.59-5.497-3.18-11.04-4.77-16.538-1.591 5.543-3.181 11.041-4.771 16.538zm.545-24.352c1.182-1.727 3.499-2.545 5.498-2.045 1.862.409 3.271 1.999 3.725 3.817 3.862 13.266 7.724 26.488 11.586 39.754h-6.815c-1.045-3.68-2.09-7.314-3.181-10.995h-13.175c-1.045 3.681-2.136 7.315-3.181 10.995h-6.769c3.68-12.721 7.36-25.443 11.04-38.164.409-1.091.545-2.363 1.272-3.362z"/><path d="m27.988 103.7h24.671v6.679h-9.087v36.983h-6.498v-36.983h-9.086z"/><path d="m88.46 103.972c.637-.227 1.273-.272 1.954-.272h7.77c4.361.09 8.541 2.771 10.45 6.724 1.317 2.544 1.453 5.543 1.135 8.314-.227 2.954-1.454 5.861-3.726 7.815-1.181 1.045-2.68 1.727-3.952 2.635-.682.545-.727 1.59-.364 2.317 3.453 5.316 7.042 10.541 10.541 15.811h-7.724c-3.362-5.043-6.679-10.131-10.041-15.22-.999-1.454-1.272-3.362-.681-4.998.454-1.272 1.544-2.181 2.771-2.681 2.363-.908 4.635-2.317 5.952-4.497 1-1.681.954-3.726.5-5.543-.5-2.363-2.817-4.226-5.27-4.135h-5.044c-.772 0-1.454.636-1.454 1.408v35.621h-6.542v-38.347c0-2.18 1.59-4.27 3.725-4.952z"/><path d="m115.675 103.7h6.906v43.662h-6.906z"/><path d="m207.961 26.217-7.726 25.494 8.716-.5c24.004 0 39.793 20.555 39.793 43.405 0 26.152-20.388 44.07-45.879 44.07-15.298 0-30.597-8.055-37.823-21.706l11.518-10.853c3.781 10.524 16.442 18.419 27.456 18.419 16.768 0 29.929-13.813 29.929-30.426 0-15.953-13.637-29.433-29.586-29.433-8.716 0-17.764 4.11-23.186 11.021h-2.966l19.076-63.646h49.653v14.141h-38.975z"/><path d="m330.455 121.912v14.148h-80.078l54.273-66.602c5.096-6.24 11.014-13.973 11.014-22.196 0-12.99-11.515-23.675-24.337-23.675-12.668 0-23.021 10.199-23.85 22.692h-15.453c2.459-22.035 16.768-36.84 39.303-36.84 21.049 0 39.128 15.62 39.128 37.162 0 9.206-3.459 18.411-9.199 25.494l-40.782 49.817z"/><path d="m398.193 9.446c-35.507 0-64.39 29.114-64.39 64.904 0 35.508 28.883 64.39 64.39 64.39 36.541 0 65.162-28.389 65.162-64.647s-28.621-64.647-65.162-64.647zm49.942 64.904c0 28.01-22.278 49.949-50.728 49.949-26.677 0-48.376-22.407-48.376-49.949 0-27.828 21.695-50.47 48.376-50.47 28.914 0 50.728 21.699 50.728 50.47z"/><path d="m534.838 9.446c-35.507 0-64.389 29.114-64.389 64.904 0 35.508 28.882 64.39 64.389 64.39 36.537 0 65.162-28.396 65.162-64.647s-28.625-64.647-65.162-64.647zm49.938 64.904c0 28.01-22.278 49.949-50.727 49.949-26.678 0-48.384-22.407-48.384-49.949 0-27.828 21.706-50.47 48.384-50.47 28.925 0 50.727 21.699 50.727 50.47z"/></g></svg>