<svg clip-rule="evenodd" fill-rule="evenodd" stroke-linejoin="round" stroke-miterlimit="2" viewBox="0 0 600 92" xmlns="http://www.w3.org/2000/svg"><g fill="#fff" fill-rule="nonzero"><path d="m157.104 21.185c-3.416 11.481-6.643 22.961-10.058 34.442h20.02c-3.321-11.481-6.642-22.961-9.962-34.442zm-8.35-16.984c3.51-4.554 10.911-5.313 15.181-1.518 1.803 1.518 3.037 3.606 3.7 5.788 8.066 27.706 16.13 55.411 24.195 83.117h-14.232c-2.277-7.591-4.459-15.276-6.641-22.962h-27.517c-2.277 7.686-4.459 15.276-6.642 22.962h-14.137c7.686-26.472 15.276-52.85 22.962-79.227.759-2.847 1.138-5.883 3.131-8.16z"/><path d="m247.621 55.627h19.925c-3.32-11.481-6.641-23.056-9.962-34.537-3.321 11.576-6.642 23.056-9.963 34.537zm1.139-50.857c2.467-3.606 7.306-5.313 11.481-4.269 3.89.854 6.831 4.174 7.78 7.97 8.065 27.706 16.13 55.316 24.195 83.022h-14.233c-2.182-7.686-4.364-15.276-6.641-22.962h-27.516c-2.182 7.686-4.46 15.276-6.642 22.962h-14.137c7.685-26.567 15.371-53.135 23.056-79.701.854-2.278 1.138-4.934 2.657-7.022z"/><path d="m181.109.406h51.521v13.948h-18.977v77.234h-13.568v-77.234h-18.976v-13.948z"/><path d="m307.397.975c1.328-.474 2.657-.569 4.08-.569h16.225c9.109.189 17.838 5.788 21.823 14.042 2.751 5.314 3.036 11.576 2.372 17.363-.475 6.168-3.037 12.241-7.781 16.32-2.466 2.183-5.598 3.606-8.255 5.503-1.423 1.139-1.517 3.322-.759 4.84 7.211 11.101 14.707 22.013 22.013 33.019h-16.129c-7.022-10.532-13.949-21.158-20.97-31.786-2.087-3.036-2.656-7.022-1.423-10.437.949-2.656 3.226-4.555 5.788-5.598 4.934-1.898 9.678-4.839 12.43-9.393 2.087-3.511 1.992-7.781 1.043-11.576-1.043-4.933-5.882-8.824-11.006-8.634h-10.532c-1.613 0-3.037 1.328-3.037 2.941v74.388h-13.662v-80.081c0-4.554 3.321-8.918 7.78-10.342z"/><path d="m364.231.406h14.423v91.182h-14.423z"/><path d="m40.643.272h6.904v16.283c.043 4.516-.087 9.032-.304 13.591-.304 6.513-.738 13.07-1.78 19.54-.738 4.429-2.302 8.728-4.212 12.81-3.127 6.556-7.99 12.114-13.504 16.804-4.907 4.342-10.812 7.468-16.978 9.639-3.474 1.216-7.078 2.128-10.769 2.649v-13.634c4.429-.652 8.641-2.215 12.592-4.299 4.69-2.475 8.858-5.775 12.419-9.727 3.648-4.038 6.557-8.727 8.771-13.678 2.605-5.731 3.995-11.897 4.95-18.063 1.173-7.859 1.694-15.805 1.867-23.752.044-2.778.044-5.471.044-8.163z"/><path d="m50.37.272c4.255-.043 8.467 0 12.722 0v91.229h-12.722c-.044-9.683 0-19.409-.044-29.092.044-20.712.044-41.425.044-62.137z"/><path d="m65.915.272h6.86c-.087 9.293.26 18.541 1.346 27.79.912 7.165 2.171 14.373 5.037 21.016 2.692 6.47 6.6 12.462 11.68 17.282 4.863 4.603 10.726 8.163 17.109 10.204 1.78.565 3.604.999 5.471 1.303v13.634c-3.648-.477-7.208-1.433-10.682-2.605-4.125-1.433-8.12-3.3-11.81-5.688-2.693-1.737-5.124-3.778-7.469-5.949-3.865-3.56-7.295-7.599-9.9-12.202-2.041-3.56-3.517-7.425-4.69-11.333-1.042-3.951-1.519-8.033-1.911-12.114-.781-8.771-1.085-17.586-1.041-26.401v-14.937z"/><path d="m535.246 91.546h-11.869c-25.124 0-45.564-20.44-45.564-45.565 0-25.124 20.44-45.564 45.564-45.564h11.869v3.888h-11.869c-22.981 0-41.676 18.696-41.676 41.676 0 22.981 18.696 41.677 41.676 41.677h11.869z"/><path d="m535.246 84.233h-11.869c-21.091 0-38.251-17.16-38.251-38.252 0-21.091 17.159-38.251 38.251-38.251h11.869v3.889h-11.869c-18.948 0-34.363 15.416-34.363 34.363 0 18.948 15.415 34.364 34.363 34.364h11.869v3.888z"/><path d="m523.372 76.987c-16.96-.019-30.905-13.979-30.905-30.938 0-16.895 13.84-30.826 30.735-30.937l12.033-.068.023 3.888-12.033.068c-14.801.055-26.949 12.248-26.949 27.049 0 14.839 12.21 27.05 27.049 27.05h.048.157l11.706-.066.023 3.888-11.706.066z"/><path d="m535.246 69.607h-11.869c-12.96 0-23.625-10.664-23.625-23.625 0-12.96 10.665-23.625 23.625-23.625h11.869v3.888h-11.869c-10.802.037-19.67 8.935-19.67 19.737s8.868 19.7 19.67 19.737h11.869z"/><path d="m569.071 69.689h-24.162v-3.889h24.163c.966 0 1.761-.794 1.761-1.76 0-.453-.175-.889-.488-1.217l-15.734-16.457c-7.644-7.997-9.692-19.284-5.344-29.457 4.348-10.172 13.922-16.492 24.985-16.492h23.793v3.888h-23.794c-9.48 0-17.684 5.415-21.41 14.132-3.725 8.717-1.971 18.39 4.58 25.242l15.734 16.457c1.005 1.051 1.566 2.45 1.566 3.904 0 3.099-2.549 5.649-5.648 5.649-.001 0-.001 0-.002 0z"/><path d="m570.438 76.974h-25.529v-3.888h25.53.001c4.86 0 8.86-3.999 8.86-8.86 0-2.258-.864-4.433-2.413-6.077l-16.498-17.506c-5.435-5.767-6.86-13.87-3.72-21.145 3.141-7.275 10.014-11.796 17.94-11.796h23.435v3.889h-23.435c-8.586 0-15.651 7.065-15.651 15.651 0 3.99 1.525 7.832 4.261 10.735l16.498 17.506c2.228 2.364 3.47 5.494 3.47 8.743 0 6.993-5.754 12.748-12.748 12.748z"/><path d="m571.558 84.26h-26.649v-3.888h26.651c8.753 0 15.957-7.204 15.957-15.957 0-4.09-1.573-8.027-4.39-10.992l-16.496-17.362c-2.203-2.318-3.433-5.397-3.433-8.595 0-6.845 5.633-12.478 12.478-12.478h22.368v3.889h-22.368c-4.173 0-6.814 2.687-7.893 5.201s-1.208 6.28 1.666 9.305l16.497 17.362c5.557 5.848 7.032 14.085 3.849 21.498-3.182 7.412-10.17 12.017-18.237 12.017z"/><path d="m573.048 91.546h-28.139v-3.888h28.14c9.358 0 17.46-5.344 21.144-13.946s1.961-18.154-4.496-24.927l-16.171-16.964c-1.001-1.051-1.561-2.447-1.561-3.899 0-3.098 2.55-5.648 5.649-5.648h.001 20.43v3.888h-20.43c-.966 0-1.761.795-1.761 1.761 0 .452.174.887.487 1.215l16.171 16.964c7.548 7.918 9.562 19.084 5.255 29.14-4.307 10.057-13.78 16.304-24.719 16.304z"/><path d="m437.955 91.588-4.026-.021 26.943-91.156 3.874-.005z"/><path d="m445.604 91.588-4.026-.021 26.943-91.156 3.875-.005z"/><path d="m453.353 91.588-4.026-.021 26.943-91.156 3.874-.005z"/><path d="m436.145 45.177-13.189-44.766 4.001.001 11.214 37.893z"/><path d="m432.238 58.433-17.097-58.022 4.001.001 15.122 51.146z"/><path d="m428.347 71.632-20.987-71.221 4 .001 19.014 64.344z"/><path d="m426.58 91.588-26.902-91.176 3.999-.001 24.767 83.754 24.779-83.754 3.874-.005-26.787 91.181z"/></g></svg>