<svg clip-rule="evenodd" fill-rule="evenodd" stroke-linejoin="round" stroke-miterlimit="2" viewBox="0 0 600 156" xmlns="http://www.w3.org/2000/svg"><g fill="#fff" fill-rule="nonzero"><path d="m359.25 74.794c9.209-5.426 14.953-14.615 14.953-24.814 0-24.087-25.442-35.058-49.081-35.058-23.643 0-49.081 10.971-49.081 35.058 0 10.203 5.742 19.388 14.949 24.814-13.098 6.067-20.425 16.397-20.425 29.268 0 24.262 27.441 36.955 54.55 36.955s54.551-12.693 54.551-36.955c.009-12.871-7.32-23.206-20.416-29.268zm-34.127-15.268c-6.03 0-10.935-3.889-10.935-8.674s4.905-8.676 10.935-8.676c6.025 0 10.936 3.891 10.936 8.676-.004 4.785-4.907 8.674-10.936 8.674zm0 30.909c6.712 0 12.171 4.476 12.171 9.99 0 5.343-5.46 9.697-12.171 9.697-6.713 0-12.17-4.345-12.17-9.697 0-5.514 5.459-9.99 12.17-9.99z"/><path d="m474.967 35.442c-10.069-13.424-24.861-20.523-42.774-20.523-17.912 0-32.705 7.095-42.774 20.523-8.464 11.293-13.127 26.473-13.127 42.746 0 31.489 17.285 63.265 55.908 63.265 38.624 0 55.912-31.777 55.912-63.265-.01-16.275-4.675-31.455-13.145-42.746zm-42.774 68.547c-13.464 0-14.937-17.502-14.937-25.949 0-8.367 1.48-25.659 14.937-25.659 13.464 0 14.936 17.292 14.936 25.659.004 8.447-1.472 25.949-14.936 25.949z"/><path d="m586.855 35.442c-10.065-13.424-24.861-20.523-42.77-20.523-17.913 0-32.705 7.095-42.774 20.523-8.465 11.293-13.129 26.473-13.129 42.746 0 31.489 17.286 63.265 55.91 63.265 38.618 0 55.908-31.777 55.908-63.265-.009-16.275-4.673-31.455-13.145-42.746zm-42.77 68.547c-13.468 0-14.939-17.502-14.939-25.949 0-8.367 1.48-25.659 14.939-25.659 13.458 0 14.934 17.292 14.934 25.659.005 8.447-1.472 25.949-14.934 25.949z"/><path d="m175.526 16.685v38.392h52.57l-39.22 85.804h44.405l52.732-124.196z"/><path d="m4.042.526h133.081c2.071.219 3.824 1.974 4.045 4.045v147.235c-.222 2.067-1.969 3.814-4.034 4.04h-133.092c-2.071-.221-3.826-1.976-4.042-4.051v-147.225c.221-2.07 1.973-3.821 4.042-4.044zm20.83 104.76c-.847.959-.994 2.273-1.382 3.446-3.267 11.23-6.522 22.463-9.774 33.696 2.009.002 4.018-.003 6.027.003.939-3.254 1.883-6.506 2.839-9.754 3.905.002 7.809-.005 11.714.004.941 3.249 1.871 6.503 2.824 9.749 2.019-.005 4.04 0 6.059-.002-3.417-11.777-6.855-23.546-10.277-35.321-.271-.946-.801-1.825-1.557-2.461-1.848-1.617-4.967-1.288-6.473.64zm67.443-1.362c-1.886.604-3.3 2.475-3.312 4.463.007 11.347 0 22.694.004 34.041 1.941.002 3.881-.002 5.823.002.006-10.54-.004-21.081.003-31.62-.009-.683.626-1.27 1.301-1.255 1.491-.013 2.984.004 4.477-.006 2.159-.073 4.202 1.577 4.665 3.674.395 1.615.44 3.436-.437 4.911-1.153 1.964-3.205 3.212-5.286 4.006-1.091.423-2.069 1.242-2.478 2.362-.525 1.46-.287 3.155.588 4.434 2.977 4.496 5.935 9.007 8.924 13.495 2.283-.008 4.567 0 6.85-.003-3.122-4.68-6.301-9.326-9.359-14.046-.321-.658-.29-1.577.331-2.05 1.132-.839 2.449-1.41 3.507-2.353 2.002-1.725 3.094-4.33 3.296-6.934.294-2.487.175-5.124-.989-7.391-1.679-3.491-5.382-5.899-9.262-5.97-2.304-.001-4.608.006-6.911-.003-.587-.014-1.179.052-1.735.243zm-24.898 1.616c-.661.88-.793 2.003-1.137 3.023-3.275 11.287-6.563 22.572-9.813 33.867 2.007-.004 4.013 0 6.02-.002.932-3.251 1.893-6.496 2.825-9.747 3.898-.011 7.797-.002 11.696-.004.947 3.25 1.877 6.503 2.818 9.753 2.022-.009 4.043.007 6.066-.009-3.419-11.766-6.85-23.529-10.269-35.295-.433-1.592-1.687-3.005-3.327-3.383-1.791-.471-3.826.269-4.879 1.797zm49.073-1.856v38.744c2.041.002 4.083-.003 6.123.002.007-12.916.002-25.83.003-38.746zm-77.833 0c-.001 1.971 0 3.94 0 5.911 2.691.002 5.38-.003 8.07.002-.003 10.943-.002 21.888-.002 32.831h5.78c.003-10.943.002-21.888.002-32.831 2.688-.005 5.377 0 8.068-.002v-5.911zm-10.22 8.817c1.421 4.884 2.834 9.768 4.254 14.652-2.837 0-5.674.009-8.513-.005 1.424-4.881 2.827-9.768 4.259-14.647zm38.489 14.652c1.404-4.894 2.83-9.782 4.241-14.674 1.402 4.894 2.831 9.782 4.237 14.676-2.827 0-5.652.002-8.478-.002zm-2.734-114.795c.014 19.241.002 38.48.007 57.719.014 9.006-.03 18.015.021 27.022 3.933-.035 7.867-.007 11.8-.016.002-28.244.002-56.49 0-84.735-3.943.007-7.886-.016-11.828.01zm-9.01-.007c-.007 2.499.013 4.998-.011 7.497-.171 7.376-.63 14.757-1.732 22.055-.881 5.742-2.175 11.475-4.593 16.784-2.053 4.618-4.759 8.965-8.154 12.72-3.288 3.638-7.193 6.724-11.532 9.017-3.657 1.921-7.593 3.374-11.688 3.99.003 4.223.003 8.448 0 12.671 3.401-.48 6.742-1.341 9.989-2.459 5.738-1.983 11.195-4.912 15.766-8.935 5.11-4.34 9.656-9.5 12.548-15.597 1.774-3.785 3.203-7.77 3.894-11.903 1.004-5.993 1.384-12.07 1.67-18.133.175-4.198.294-8.401.271-12.605-.003-5.035.005-10.071-.003-15.107-2.142.005-4.284-.002-6.425.005zm23.47-.002c-.002 4.629 0 9.259 0 13.888-.053 8.182.225 16.372.965 24.523.383 3.773.804 7.564 1.791 11.233 1.077 3.65 2.453 7.229 4.337 10.541 2.409 4.254 5.618 8.011 9.202 11.316 2.174 2 4.439 3.916 6.927 5.516 3.41 2.217 7.122 3.946 10.961 5.282 3.223 1.096 6.535 1.966 9.912 2.425-.003-4.221-.001-8.443 0-12.664-1.718-.25-3.41-.666-5.063-1.194-5.926-1.898-11.381-5.198-15.882-9.49-4.713-4.489-8.331-10.056-10.84-16.046-2.647-6.192-3.831-12.887-4.672-19.533-1.026-8.556-1.32-17.183-1.251-25.795-2.128-.007-4.257-.003-6.387-.002z"/></g></svg>