<svg clip-rule="evenodd" fill-rule="evenodd" stroke-linejoin="round" stroke-miterlimit="2" viewBox="0 0 600 244" xmlns="http://www.w3.org/2000/svg"><g fill="#fff" fill-rule="nonzero"><path d="m289.606 151.421 3.873 3.041c13.558 10.511 29.877 19.089 47.308 19.089 7.479 0 19.365-3.041 19.365-12.453 0-9.406-9.962-10.232-16.873-11.618l-15.221-2.763c-29.593-5.257-54.49-22.69-54.49-55.338-.012-49.515 45.089-77.181 90.459-77.181 23.786 0 45.642 5.809 66.117 18.26l-20.475 53.395c-13-8.845-27.66-15.768-43.982-15.768-6.64 0-16.326 2.486-16.326 11.062 0 7.75 9.41 8.85 15.212 10.235l17.155 3.879c32.09 7.189 55.334 24.344 55.334 59.757 0 49.796-45.372 74.423-90.469 74.423-26.287 0-56.711-7.192-80.231-19.092z"/><path d="m440.647 17.517h159.353v58.521l-41.775.118v149.963h-75.803v-149.965l-41.775-.116v-58.521z"/><path d="m77.501.034h12.01v28.326c.076 7.855-.151 15.711-.529 23.642-.529 11.331-1.283 22.737-3.096 33.992-1.285 7.705-4.004 15.183-7.328 22.284-5.438 11.406-13.898 21.074-23.492 29.232-8.535 7.553-18.808 12.992-29.534 16.769-6.043 2.115-12.313 3.701-18.734 4.608v-23.719c7.705-1.133 15.032-3.852 21.906-7.478 8.158-4.305 15.41-10.046 21.604-16.92 6.345-7.025 11.406-15.183 15.258-23.794 4.532-9.971 6.949-20.697 8.611-31.423 2.039-13.672 2.946-27.495 3.248-41.319.076-4.834.076-9.517.076-14.2z"/><path d="m94.421.034c7.403-.076 14.73 0 22.132 0v158.702h-22.132c-.076-16.845 0-33.765-.076-50.61.076-36.031.076-72.062.076-108.092z"/><path d="m121.463.034h11.935c-.151 16.165.453 32.254 2.342 48.343 1.586 12.463 3.776 25.003 8.761 36.559 4.684 11.256 11.482 21.68 20.32 30.064 8.46 8.007 18.658 14.201 29.761 17.751 3.098.983 6.27 1.737 9.518 2.266v23.719c-6.345-.831-12.539-2.493-18.582-4.532-7.176-2.493-14.125-5.742-20.545-9.895-4.684-3.022-8.914-6.573-12.993-10.349-6.723-6.194-12.69-13.219-17.223-21.226-3.55-6.194-6.118-12.917-8.157-19.715-1.813-6.874-2.644-13.975-3.324-21.075-1.36-15.258-1.889-30.592-1.813-45.926v-25.984z"/><path d="m27.42 187.591c-2.719 9.14-5.288 18.279-8.007 27.419h15.938c-2.643-9.14-5.287-18.279-7.931-27.419zm-6.647-13.522c2.794-3.625 8.686-4.229 12.086-1.208 1.435 1.208 2.417 2.87 2.945 4.608 6.422 22.056 12.842 44.113 19.262 66.17h-11.33c-1.813-6.043-3.55-12.161-5.288-18.28h-21.906c-1.813 6.119-3.55 12.161-5.287 18.28h-11.255c6.118-21.075 12.161-42.074 18.28-63.073.604-2.267.906-4.683 2.493-6.497z"/><path d="m99.482 215.01h15.862c-2.643-9.14-5.287-18.355-7.931-27.495-2.644 9.216-5.287 18.355-7.931 27.495zm.906-40.487c1.964-2.871 5.817-4.23 9.14-3.399 3.097.68 5.439 3.323 6.195 6.345 6.42 22.056 12.841 44.038 19.262 66.094h-11.331c-1.738-6.118-3.475-12.161-5.288-18.28h-21.905c-1.738 6.119-3.551 12.162-5.288 18.28h-11.255c6.119-21.15 12.237-42.301 18.356-63.451.679-1.813.906-3.927 2.114-5.589z"/><path d="m46.531 171.048h41.016v11.104h-15.107v61.487h-10.802v-61.487h-15.107z"/><path d="m147.07 171.502c1.057-.378 2.115-.454 3.248-.454h12.917c7.252.151 14.201 4.608 17.374 11.179 2.19 4.231 2.416 9.216 1.888 13.823-.378 4.911-2.418 9.745-6.194 12.993-1.964 1.737-4.457 2.871-6.572 4.381-1.133.906-1.208 2.644-.605 3.853 5.741 8.837 11.709 17.524 17.525 26.286h-12.841c-5.59-8.384-11.104-16.844-16.694-25.304-1.661-2.418-2.115-5.591-1.133-8.31.755-2.114 2.568-3.626 4.608-4.457 3.928-1.51 7.705-3.852 9.896-7.477 1.661-2.795 1.586-6.194.83-9.216-.83-3.927-4.683-7.025-8.762-6.874h-8.385c-1.284 0-2.417 1.058-2.417 2.342v59.221h-10.877v-63.753c0-3.626 2.644-7.1 6.194-8.233z"/><path d="m192.316 171.048h11.482v72.591h-11.482z"/></g></svg>