<svg clip-rule="evenodd" fill-rule="evenodd" stroke-linejoin="round" stroke-miterlimit="2" viewBox="0 0 600 250" xmlns="http://www.w3.org/2000/svg"><g fill="#fff" fill-rule="nonzero"><path d="m304.924 153.091 3.681 2.89c12.889 9.992 28.403 18.148 44.974 18.148 7.109 0 18.409-2.891 18.409-11.839 0-8.942-9.47-9.728-16.04-11.045l-14.47-2.626c-28.132-4.998-51.802-21.571-51.802-52.607-.011-47.072 42.865-73.373 85.995-73.373 22.613 0 43.391 5.522 62.855 17.359l-19.464 50.76c-12.359-8.409-26.296-14.99-41.812-14.99-6.312 0-15.52 2.363-15.52 10.516 0 7.367 8.946 8.413 14.461 9.73l16.309 3.688c30.505 6.834 52.602 23.143 52.602 56.808 0 47.338-43.132 70.75-86.003 70.75-24.991 0-53.913-6.837-76.272-18.15z"/><path d="m448.511 25.794h151.489v55.633l-39.714.112v142.563h-72.062v-142.565l-39.713-.11v-55.633z"/><path d="m6.499.074h213.992c3.33.353 6.149 3.175 6.505 6.505v236.75c-.358 3.324-3.167 6.132-6.488 6.496h-214.009c-3.33-.355-6.152-3.178-6.499-6.513v-236.736c.355-3.327 3.172-6.144 6.499-6.502zm33.494 168.451c-1.362 1.543-1.598 3.655-2.222 5.542-5.253 18.057-10.487 36.12-15.715 54.182 3.23.003 6.46-.005 9.69.006 1.51-5.234 3.028-10.462 4.565-15.685 6.28.003 12.557-.008 18.837.006 1.512 5.225 3.008 10.456 4.54 15.676 3.246-.008 6.496 0 9.743-.003-5.495-18.936-11.023-37.862-16.525-56.796-.436-1.521-1.288-2.933-2.504-3.957-2.972-2.6-7.986-2.07-10.409 1.029zm108.448-2.189c-3.033.971-5.306 3.979-5.326 7.176.012 18.246 0 36.492.006 54.737 3.122.003 6.241-.003 9.363.003.011-16.947-.006-33.897.005-50.844-.013-1.099 1.008-2.042 2.093-2.017 2.397-.022 4.798.005 7.198-.011 3.472-.117 6.757 2.536 7.501 5.908.635 2.597.708 5.525-.702 7.897-1.854 3.158-5.153 5.165-8.5 6.441-1.754.68-3.327 1.998-3.985 3.799-.843 2.348-.46 5.073.946 7.129 4.787 7.229 9.544 14.483 14.35 21.701 3.671-.014 7.343 0 11.014-.006-5.02-7.526-10.132-14.996-15.049-22.586-.516-1.057-.466-2.536.533-3.296 1.82-1.349 3.938-2.267 5.639-3.783 3.219-2.775 4.975-6.962 5.3-11.15.472-3.998.28-8.239-1.59-11.885-2.7-5.614-8.655-9.485-14.894-9.599-3.704-.003-7.409.009-11.113-.005-.944-.022-1.896.083-2.789.391zm-40.035 2.597c-1.063 1.416-1.277 3.222-1.829 4.862-5.267 18.149-10.553 36.295-15.779 54.457 3.228-.006 6.452 0 9.679-.003 1.499-5.228 3.045-10.445 4.543-15.673 6.269-.017 12.538-.003 18.806-.006 1.524 5.226 3.02 10.457 4.532 15.682 3.252-.014 6.502.011 9.754-.014-5.497-18.92-11.014-37.834-16.511-56.754-.697-2.559-2.714-4.832-5.35-5.439-2.881-.758-6.153.433-7.845 2.888zm78.907-2.983v62.299c3.283.003 6.566-.005 9.846.003.011-20.768.003-41.534.005-62.302zm-125.153 0c-.003 3.169 0 6.336 0 9.505 4.326.002 8.65-.006 12.976.002-.005 17.597-.003 35.196-.003 52.792h9.294c.005-17.596.003-35.195.003-52.792 4.323-.008 8.647 0 12.973-.002v-9.505zm-16.433 14.178c2.283 7.853 4.556 15.706 6.84 23.56-4.562 0-9.124.013-13.689-.009 2.289-7.847 4.545-15.706 6.849-23.551zm61.888 23.56c2.259-7.87 4.551-15.729 6.821-23.596 2.253 7.87 4.551 15.728 6.812 23.598-4.545 0-9.088.003-13.633-.002zm-4.396-184.588c.022 30.938.003 61.874.011 92.81.022 14.483-.047 28.968.034 43.451 6.324-.056 12.651-.011 18.975-.025.003-45.416.003-90.834 0-136.253-6.341.011-12.682-.025-19.02.017zm-14.488-.011c-.011 4.018.022 8.036-.017 12.054-.275 11.861-1.013 23.729-2.786 35.465-1.415 9.232-3.496 18.451-7.384 26.987-3.302 7.426-7.654 14.416-13.112 20.454-5.286 5.85-11.566 10.812-18.543 14.5-5.88 3.088-12.21 5.425-18.795 6.416.006 6.79.006 13.583 0 20.374 5.47-.772 10.842-2.157 16.062-3.955 9.227-3.188 18.001-7.897 25.352-14.366 8.217-6.979 15.527-15.276 20.177-25.08 2.853-6.086 5.151-12.494 6.261-19.14 1.615-9.637 2.225-19.408 2.686-29.157.28-6.751.472-13.508.436-20.268-.006-8.098.008-16.195-.006-24.293-3.444.009-6.887-.003-10.331.009zm37.74-.003c-.003 7.442 0 14.888 0 22.33-.086 13.157.361 26.327 1.551 39.433.616 6.066 1.293 12.163 2.881 18.063 1.731 5.869 3.943 11.624 6.973 16.949 3.874 6.841 9.033 12.882 14.797 18.196 3.496 3.216 7.137 6.297 11.138 8.869 5.484 3.566 11.453 6.346 17.625 8.494 5.183 1.762 10.508 3.161 15.939 3.899-.005-6.787-.003-13.575 0-20.363-2.764-.402-5.483-1.071-8.142-1.92-9.529-3.053-18.301-8.358-25.538-15.26-7.579-7.218-13.395-16.17-17.43-25.802-4.257-9.957-6.16-20.721-7.512-31.407-1.651-13.759-2.123-27.631-2.012-41.478-3.421-.012-6.846-.006-10.27-.003z"/></g></svg>