<svg clip-rule="evenodd" fill-rule="evenodd" stroke-linejoin="round" stroke-miterlimit="2" viewBox="0 0 600 208" xmlns="http://www.w3.org/2000/svg"><g fill="#fff" fill-rule="nonzero"><path d="m119.942 37.161c.816.2 1.2-.639 1.799-.999.96-.576 9.97-3.398 10.066-3.502.912-.904-.455-3.11.328-3.598.84-.528 2.607-.28 3.302-.696 3.478-2.086 8.707-2.182 12.097-4.301 1.039-.656 2.023-2.367 3.094-2.798 2.207-.88 4.917-.848 7.3-1.799 1.231-.496 1.567-2.447 2.302-3.302 1.392-1.623 2.951-1.983 4.598-3.294 2.366-1.903-9.083.375-4.901-3.806 4.013-4.014 20.227-2.431 21.795-3.998l.295-.495c1.096-1.096 3.798.216 3.798-2.799v-.999c-.128-.088-10.426 1.007-11.193 1.199-6.724 1.679-15.391.904-21.691 2.799-2.727.815-16.774 3.03-17.806 4.061l-2.486 1.735c-11.689 2.335-23.498 3.646-35.195 5.597-5.797.967-14.264 1.231-19.325 2.918-4.621 1.543-12.064 1.903-16.662 3.182-3.614 1.008-13.792-1.167-16.99.2-.735.312-1.487 3.91-1 4.397.432.44 1.76.328 2.296.704.471.328 1.302.743.999 1.495-.408 1.015-4.526-.192-5.596 1.599-1.304 2.175 3.309 5.181 4.1 6.5 1.216 2.023-3.566 2.934-2.501 5.597h1.998c1 0 1.847.32 2.502 1.303l.872.696c1.91 2.702 46.413-4.797 46.413-4.797s-13.001 110.917-65.577 116.762c-12.002 1.335-24.737-14.08-25.594-14.4-.79-.295-2.333-.367-2.845.016-.512.392-1.079 2.799.504 4.598 5.98 6.804 23.777 21.411 41.527 20.979 55.183-1.326 77.377-130.754 77.377-130.754z"/><path d="m144.928 85.788-.096-.04c0-3.006 6.796-12.608 7.899-16.998v-.104c.735-.367.959-2.814 1.199-2.998 1.967-1.471 5.133-8.427 8.099-11.393l3.198-3.102c.216-.216.68-.416.896-.2.52.52-.12 9.778-.296 10.682-.576 2.854.36 11.809-.2 13.112-.599 1.407-3.07 2.11-5.628 3.502-3.47 1.895-7.412 4.325-9.771 4.797-1.319.264-1.119 2.998-5.197 2.998zm-28.887 10.754v.296c0 5.604 3.901 1.703 5.197 2.998.248.248-.112 2.742-.296 3.102-4.613 9.218-8.571 18.805-14.495 27.695-.352.52-.32 1.232-.6 1.799-2.071 4.142-5.301 8.699-6.996 12.089-.648 1.295-.767 2.726-1.503 4.206-.08.159-.4 2.79-.6 2.398 0 3.534-3.693 9.81-2.398 12.393.384.774.176-.616.599-.895.936-.632 2.351-1.135 2.999-2.104.551-.83 1.719-6.348 2.102-6.596 1.392-.926 2.199-2.823 2.199-.303 0 1.159.056 1.918-.304 2.998-.152.456.152 1.055 0 1.503l-.4.895v1.503l.4-.599.304-.6c.168-.336.056-.711.296-1.199.448-.895.12-.688.104-.704 0-.008.096-.096.496-.495.735-.736.159-2.263.903-2.999.336-.343 1.991-3.182 2.399-3.997l1.798-3.302c.288-.584.48-1.616.896-1.2 2.151 2.151 1.631 7.82.6 10.898-.096.288-.744 1.951-.6 2.095.2.2.352-.472.6-.6 2.822-1.407.751-4.445 1.503-5.197 2.878-2.878 3.326-8.122 6.3-11.097 4.997-4.997 14.335-37.226 19.092-41.983 3.774-3.774 24.122-8.131 27.992-11.993 2.51-2.518 2.398 4.525 2.398 5.397 0 2.446-.144 21.572 0 21.987.648 1.943 1.783 3.054 2.399 4.901.951 2.862-.864 14.127 2.199 17.197.439.44.271-.575.303-.599.376-.384 1.496-3.054 1.496-3.702 0-.632.151-2.247.599-1.799.344.336 3.006 9.706 3.302 9.994.64.64-.104 1.895.296 2.703.216.423.823.782.903.895.12.192.2.808.296.608.648-1.296.408-3.214 1.2-4.805.655-1.304.623-4.317 1.503-5.197 1.367-1.368 3.366 3.47 3.598 3.701.231.232 1.263 1.136 1.503.896v-6.092c0-9.547 0-62.083.295-62.683.431-.863 2.503-32.82 2.503-36.49 0-4.549-.76-3.454-3.102-5.797-.488-.479-.208-5.005-.304-5.101l-2.399-2.094c-.919-.928-7.515 2.998-10.193 2.998-5.837 0-4.398 1.895-7.3 4.797-.152.16-.44-.144-.6-.296-.623-.632-.599-.656-.599-1.799v-.903c-.448-.224-2.735.727-2.999.903-1.599 1.064-3.006 4.909-3.893 6.692-1.695 3.39-4.31 6.013-6.101 9.602-.719 1.44-1.479 6.668-2.398 7.596-4.43 4.421-12.433 17.565-15.095 22.89-.304.608-1.503 4.797-1.503 4.797-1.272 1.272-7.26 11.681-7.796 13.296-.255.76-4.781 2.607-5.7 2.999-.896.391-2.103.207-2.799.903-.431.432-.183.44-.183.456s-.08.032-.416.144z"/><path d="m246.339 24.289-.04-.024h.2c.591.2 1.287.16 1.799.496.503.335.12-.36.599 0 .736.559 2.175 2.086 3.198 2.606.544.264 1.488.096 2.103.096h.8c.288 1.159 3.542 6.644 4.797 7.396.719.431 2.334.415 3.302.903.232.112.759-.016.999.096h.4c0 1.575-3.918 2.686-2.798 3.798 1.663 1.671 2.023 3.67-1.703 4.605-2.783.696-5.925-.376-8.595.696-3.142 1.255-6.308 3.773-9.602 4.597h-.096c-15.679 5.229-32.093 27.447-32.093 44.189v.6c0 11.049 6.54 23.666 16.598 27.687 1.383.56 2.478 2.111 4.197 2.399 1.36.232 3.191 1.103 4.902 1.103 1.199 0 7.939 1.048 8.89.496 2.287-1.303 4.829-2.079 7.1-3.598 1.207-.799.272-4.765-.2-4.997-2.566-1.287-.304-17.086.704-20.092.831-2.494 2.598-6.396 1.199-7.795l-.4-.4c-.096-.096-1.719-.424-1.903-.304-2.118 1.415-8.027.504-8.898 1-3.055 1.743-6.141 3.102-9.195 4.797-.815.456-5.908 3.582-6.5 2.398-.128-.263.648-.743.8-.895.639-.64 1.966-1.999 2.798-2.503 1.767-1.055 3.07-5.924 4.901-7.395 5.229-4.182 14.655-8.563 21.595-10.298.16-.04.424.056.496-.096l.2-.4 3.805-1.703c1.296-.647 2.047-2.47 3.398-2.694 1.128-.192 1.599 1.295 2.399 1.695 2.95 1.479 6.196-1.735 6.196 1.703v2.694c-1.623 1.623-.44 5.781-1.399 7.7-.464.927-4.102 15.103-4.102 15.494 0 .496-1.335 6.517-1.399 6.596-.487.616-.695 16.91-.695 19.093 0 3.262.839 6.02 1.799 8.899.191.583.599 1.663.599 2.198 0 .352.32.377.2.504-.647.648-1.479-.935-1.703-.999-5.261-1.503-10.33-10.234-10.498-10.298-2.654-1.063-2.502 3.454-4.597 4.501-1.959.976-4.877 3.638-6.268 5.493-1.599 2.135-18.237 1.982-19.724.504-2.167-2.167-6.285-1.871-8.595-3.598-1.319-.992-14.671-12.92-14.895-13.696-.648-2.271-2.199-5.605-3.302-7.803 0 0-2.311-11.042-2.823-17.894-1.679-22.386 10.746-44.485 26.017-57.581 2.183-1.871 4.589-5.349 7.196-6.396 3.11-1.24 5.804-1.799 9.098-2.895 2.335-.783 5.213-1.159 7.3-2.206.344-.168.919-.616 1.399-.496l.04.024z"/><path d="m389.054 72.948c.136 0 .991-3.046 1.495-3.902 2.11-3.502 4.309-7.899 6.7-11.089 2.062-2.751 12.288-15.767 9.898-3.806-.496 2.471-1.599 3.662-1.599 6.404 0 5.117-1.208 4.549-4.997 5.493-3.806.951-8.18 6.9-11.497 6.9zm-82.575-53.784h-.4c.535.536-.4.4-.4.4-.359.36-1.711 1.551-1.998 2.398-.472 1.415-5.669 7.388-4.798 10.002-.087-.088-1.055.648-1.199.8-.983.983-1.879 3.814-2.798 5.197-.824 1.231-5.637 14.111-6.404 16.39-.16.504.208 1.991 0 2.406-1.559 3.127-3.606 6.421-5.197 9.595-2.303 4.613-3.982 12.768-6.796 18.389-1.847 3.694-3.998 13.2-5.197 20.795-.6 3.789 0 9.786 0 13.2 0 1.208-.016 4.766.4 5.597.168.336.927 1.863 1.199 1.599-.424 1.271 1.927 1.927 2.399 2.399.096.096.935 2.134 1.199 2.398.024.024 1.167.432.799.8 3.814-1.271 9.299 1.799 14.4-1.599 1.063-.713 9.034-5.653 9.194-5.597l1.2-1.599c1.151-1.735 3.382-2.774 4.397-4.797.991-1.983 5.221-8.803 7.196-8.803-3.263.472-.8 19.309-.8 21.595h.8c0 .872.527 4.134 1.599 3.598-.296.896 2.046 2.295 2.798 2.798 4.66 3.111 11.425-4.573 13.2-2.798.288.287-1.735 3.75-1.999 4.797-.24.944-6.22 14.216-7.195 15.199-1 1-4.006 4.772-4.006 6.396 0 1.096-.168 1.423.4 1.999 0 0-.128.936.408.4v.799c.471-.471 1.567 1.968 1.599 1.999.752.76 5.316-1.239 4.797-2.798.479.479.711-1.439 1.199-1.599 1.839-.616 2.271 1.463 2.798 1.199 1.879-.935 5.597-6.821 5.597-2.398h.799v-.8c.24.12 1.432-.688 1.6-.799 1.063-.704 6.835-9.322 7.595-11.594.272-.799 2.351-3.429 2.798-3.206v-.799c.368.368.776-.768.808-.8.312-.312 1.318-.743 1.999-1.199.271-.184.359-.616.799-.4-.328-.959.48-2.078 1.199-2.798 4.91-4.916 15.687-27.783 19.589-35.587.256-.503 5.716-8.051 6.404-8.395l4.397-.399c.28 0 1.551-.448 1.2-.8.671.224 10.233-7.603 13.591-7.603-.239-.232 1.311-1.12 1.6-1.2 1.479-.368 2.918-1.199 4.397-1.199v-.8c.488 0 3.335-1.463 4.005-.799 1.567 1.575-1.607 14.263-1.607 14.399 0 1.192 1.208 5.581 1.2 5.597h.807c0 5.573.8 11.057.8 16.798v1.599c.152.152 2.238-.16 2.398 0 2.207 2.207.367 11.961 3.598 15.191.112.112 0 .248 0 .4 0 .895.431 1.199 1.199 1.199 0 1.471-.096 1.695-.799 2.398-.097.096.4 1.264.4 1.999 1.007-.503.751 1.16.799 1.2 1.287 1.295-.048 4.093-.799 5.604-.016.024-.271 2.663.399 1.999-.47 1.407.8.536.8 1.999h.8c-.169.169 1.007 1.015 1.199 1.599.36 1.087.799 2.078.799 3.198h.4v1.199h.8l.399.8v.799c.856.856.935-2.519.4-3.598-.815-1.63.4-5.652.4-7.595 0-2.566 1.191-14.367 1.599-15.599 1.734-5.197 1.071-33.38 1.599-35.586 1.999-8.395 3.198-23.794 3.198-34.388 0-7.084 1.119-15.662 2.798-22.394.529-2.119.72-5.429 1.599-7.196.256-.512.952-.696 1.2-1.199.031-.056.256-2.255-.4-1.6v-1.998h-.8c0-.136.224-1.823-.399-1.2v-.807c-1.496 0-3.478-.8-5.197-.8-.192 0-3.567-.431-3.198-.799h-.8c.424-.416-1.064-1.064-1.599-.8v-.799l-.4-.4h-1.199c.335-.328-1.111-1.111-1.199-1.199-.633-.632-.352-2.111-1.199-2.399-.769-.256-1.832.976-2.399.4.711 2.151-2.199 1.599-2.798 2.798-1.16 2.319.351 5.685-.8 8.003l-3.998 3.598c-.111.112-.111.288 0 .4-1.343 0-3.773 2.551-4.005 2.399.216.208-.184.591-.4.799-.743.744-2.614 1.631-3.198 2.799-1.207 2.414-4.734 4.677-5.996 7.195-2.08 4.158-6.94 11.473-11.194 13.6-.751.376-2.182 4.509-3.198 3.998.232.695-3.03 3.662-3.606 4.797-1.343 2.686-5.628 10.849-7.195 13.192-.824 1.239-3.534 2.199-3.198 3.206-.016-.016-4.302 2.67-3.998 3.598-.624-.312-6.62 4.613-7.196 5.197-1.183 1.183-5.877.951-6.404 1.999-.368.743 2.183 4.437 1.207 6.396-.639 1.271-2.806 1.783-2.806 3.198h2.007c2.007 0 3.158-1.199 4.797-1.199.264 0 .664-.136.4.399-.944 1.887-11.993 18.525-12.801 18.797-.527.177-4.789-.392-4.797-.4-.472-.471-.727-2.07-1.199-1.599 0-.903-.112-7.779 0-8.003 2.039-4.07 1.935-9.466 3.998-13.592 2.742-5.477 8.339-21.099 10.801-24.793.64-.959 1.544-1.407 1.199-2.798h.4c1.759-6.532 5.877-12.833 7.995-19.197.528-1.575 2.671-7.867 3.598-8.795l1.599-1.199c-.208-.623 1.607-3.59.8-4.397-.128-.128-1.495-1.303-1.199-1.599h-.8l-.4-.4v-.8c-1.319 1.312 1.128-7.523-.4-5.996 0-3.23-6.572-2.798-9.194-2.798l-.4-.4v-.8c-.304.296-.783-.407-1.199-.407-.872 0-4.27.048-4.805.407-2.615 1.743-8.315 16.319-10.794 18.789l-1.199 3.198c-.345.688-1.679 1.288-1.199 1.999h-.4c1.167 3.51-2.103 6.156-3.598 8.403-.28.416-2.398 13.272-2.398 15.191h-.8c0 .36-.416 1.991-.8 1.599.432 1.735-2.286 5.269-2.798 6.796-5.453 16.358-3.678 10.474-15.199 21.995-2.111 2.119-3.766 5.445-6.396 7.196-1.327.888-2.446 1.247-3.598 2.398-.112.112-.112.295 0 .4h-.799c.583.584-2.919 1.488-2.399 2.007-.184-.064-5.085 5.053-8.803 3.198-4.989-2.495 4.566-20.7 4.006-22.395.024.032 1.111-1.023 1.599-1.999 1.079-2.174.672-6.012 1.999-7.995 3.078-4.621 6.396-6.524 6.396-13.2l.4-.8h.799c-.024-.048.8-1.639.8-2.398.112.112.288.112.4 0l1.998-1.999c2.127-2.127 2.271-6.14 3.598-8.795.68-1.359 2.974-2.35 3.598-3.598.561-1.127-.488-4.629.4-6.404.135-.264.855-1.943 1.199-1.599-.272-.815 7.22-10.745 6.804-11.593h.8c-.464-.927 3.597-8.091 3.597-8.395h-.799v-.799c-.592.583-2.103-2.103-2.399-2.407-.112-.104-.295-.104-.399 0v-.799h-.8c.527-.528-.4-.4-.4-.4-.032-.024-.288-2.511-.807-1.999 0-.903-1.264-3.806-1.2-3.998h-.799c1.519-3.03-4.725-2.15-6.396-1.599-.904.304-2.99 2.807-3.598 2.399z"/><path d="m431.012 167.076c-.119 0-.072-.24-.072-.36v-1.999c0-1.479 1.688-4.11 1.296-4.493-3.767-3.766 4.245-14.823 6.204-19.397.208-.495-.16-4.445 0-4.597.121-.127 1.52-.608 1.294-.999-.399-.696-1.173-2.687-.694-3.798.375-.88 1.663-1.255 1.998-2.007.927-2.079.712-3.413 1.895-5.197.208-.312.216-1.863.704-2.598.312-.472.304-1.112.6-1.599.935-1.567 2.421-1.623 2.893-3.198.84-2.799-.679-6.381 0-8.1 1.272-3.182 5.917-18.644 6.805-19.788l.999-1.303c1.807-2.359.055-5.293 1-7.499.967-2.263 2.198-4.63 3.493-6.796.712-1.184.88-5.821 2.599-8.699.2-.32 1.391-6.109.999-6.492-.479-.488-2.014 1.607-2.598 1.998-1.015.68-2.159.56-3.198 1.599-.32.32-10.122 2.439-9.395-.703-.167.168-1.207-.856-1.304-.896-.878-.383-.526.208-1.599-.399-.127-.08-3.172-.184-3.293-.304-2.167-2.159-2.159-2.99-4.805-4.501-.664-.376-.112-.76-1.296-.4.297-.216-.983-.576-.999-.6-.519-.512.312-4.605.599-4.893 1.999-1.999 9.116-6.308 8.1-9.698.736-.32.104-.008.695-.6.193-.192 1.768-1.095 2.303-1.303 1.607-.6 5.445-1.583 6.796-2.598.856-.64 1.431-.8 2.599-1.296 4.756-2.038 9.426-3.677 14.495-5.197 1.087-.327 1.416-1.527 2.599-2.006.935-.368 2.789-.328 3.597-.896l1-.703c5.188-3.622 18.78-1.999 21.395-3.494 1.639-.936 3.294-2.999 4.501-3.598 1.967-.984 23.482 2.334 24.993 3.198 2.527 1.439 3.942 1.439 5.796 3.294.113.112 2.032 2.926 2.599 2.606-.024 1.719 4.254 2.399 4.501 2.895.848 1.703 2.119 3.31 3.894 4.197.224.112.848 2.247.999 2.599.576 1.335 1.799 2.398 2.598 3.198 1.169 1.167-.135 3.43.6 4.901.377.751-.415 3.43-.296 4.197-.782 1.831.353 5.445-.279 7.516-1.631 5.301-3.886 8.811-7.22 13.576-2.063 2.95-5.516 3.55-7.098 5.804-.281.4-.913 2.687-1.6 2.894-1.592.48-7.124 3.326-8.395 4.598-1.144 1.151-2.407 2.262-3.902 2.902l-1.294.304h-.705c0 .208 6.98 6.572 7.501 7.092 3.884 3.885 5.859 10.066 9.097 13.296 2.263 2.27 5.725 5.141 7.699 8.099.081.128.249-.056.4 0 8.979 3.589 18.214 16.734 26.489 20.396-.209.359 1.743 1.798 1.998 1.998 1.312 1.008 4.366 3.942 5.197 5.197 1.352 2.023 17.374 17.006 21.06 20.692.36.36 1.007 4.197.631 4.597.791-2.623-13.08-8.811-13.991-11.097-1.032-2.575-13.601-12.161-16.799-13.296-.119-.04-8.482-8.147-9.394-8.691-2.342-1.407-6.365-2.798-8.795-4.501-3.541-2.479-4.916-6.253-7.1-8.795-1.446-1.687-3.837-1.247-6.099-5.197-.208-.368-2.198-1.343-2.598-1.903l-.697-.999c-.983-1.399-2.399-1.999-3.598-3.198-.151-.152-.375-1.415-.902-1.703-.433-.232-2.431-1.543-1.999-2.199h-.897c.209-.36-1.166-1.135-1.302-1.599-.176-.584-1.951-2.646-2.598-3.294-.137-.136-2.279.16-2.598 0l-1.599-1.008c-.209-.111-1.297-.599-1-.895-1.352 0-4.182-2.878-5.197-3.902-.704-.695-4.462-.463-5.501-2.894-.552-1.287-2.151-1.799-3.302-2.598-.68-.48-1.575-.84-1.895-1.599l-.6-1.304c-.184-.423-.144-.487-.136-.487.016.008-.016.12-.567-.208-.368-.224-.296-.264-.296-.6v-.703.999l.599.6.4.999c.224.736.296.648.296 1.599 0 .952.336 2.007.999 2.599 1.624 1.463 3.398 2.958 4.798 4.597 1.446 1.687 4.773 4.077 6.5 5.804 3.398 3.39 8.818 6.516 12.999 10.69 1.735 1.743 2.271 3.174 3.496 4.805.095.12-.137.32 0 .4l3.597.895c3.126 3.654 8.531 5.805 10.697 10.698.344-.223.456.296.599.4 1.497 1.047 4.686 3.685 4.901 5.101.936-.376 1.224 1.007 1.895 1.295 7.556 3.238 16.271 11.37 22.1 17.198.527.527 3.157 4.853 4.197 5.196 1.615.544 5.725 2.504 6.796 3.903.432.551.791 2.269 1 2.893.008.032 11.28 11.562 12.296 12.001.104.04-.032.184 0 .297.408 1.373 2.599 1.294 2.599 2.598 0 .535.486 1.391 0 1.599-.184.079-.881-.36-1-.599-.088-.169-7.587-7.413-7.795-7.493-5.429-2.174-20.804-17.301-28.191-20.995-5.734-2.87-13.72-11.92-18.398-16.598-2.318-2.318-3.662-4.254-5.197-5.797-.631-.631-3.189-1.071-3.9-1.903l-.697-.999c-6.02-2.662-9.21-7.595-14.199-9.091l-.999-.599c-.104-.056-.248.104-.295 0-.345-.792-16.503-19.149-17.199-19.501-1.303-.647-14.711-9.218-15.191-9.69-.767-.767.168-2.206.6-3.198 2.645-6.172 4.933 1.159 9.394-3.302.664-.663-3.351-4.213-4.197-4.501-.52-.168-1.439-.968-1-1.295l-.903-.304c0-1.815.16-2.735 1.303-3.598.488-.368.464-1.167.896-1.599.679-.672 2.558.839 2.598.903 2.518 3.342 4.797 4.598 10.402 4.598.871 0 2.071.391 2.598-.304 3.582-4.781 8.995-14.592 12.593-18.789.184-.216.511-2.399.304-2.606-.632-.624-1.831-2.743-2.198-3.598l-4.598-1.599c-.728-.216-.399-.52-.599-1-.049-.104-.194.048-.305 0-1.294-.551-4.286-2.27-4.597-2.894h-.904c-.359 0-2.87-.104-2.998 0-.488.416-.264.544-.28.584-.008.016-.072.016-.319.016-10.866 0-12.521 1.191-16.495 9.794-.391.847-1.223 1.543-1.295 2.598-.775.44-.584-2.814-3.302-1.999-.56.168-2.542 9.555-3.198 10.394l-4.597 5.805c-4.358 6.54-6.34 30.022-9.698 33.388-.232.232 0 .663 0 .999 0 4.278-.752 6.916-2.199 10.298-.504 1.176-1.319 12.64-2.303 15.591-.943 2.83-1.927 3.534-2.894 5.796-1.982 4.613 1.407 8.163-3.302 11.697-.096.073 0 .183 0 .304 0 1.455.121 4.461-.895 4.893-.368.16-3.023-.576-3.302-.695-.488-.208-.305-1.168 0-1.599.535-.768 2.693-2.894 3.302-3.502.575-.576 0-3.894.295-4.598.208-.487 2.511-2.806 2.903-3.198.59-.591.535-1.607.999-2.302.208-.313-.919-2.216-.999-2.295-.104-.096.096-3.102 0-3.198-.688-.688-2.295 1.982-2.599 2.598-.751 1.487-4.869 12.266-4.901 12.297-2.007 2.007-4.349 9.434-5.501 10.099-1.503.854-2.078-7.157-5.197-1.704-.136.248-.159 3.486-.295 3.902-.56 1.655-1.543 2.399-2.207 4.598v1.894c-.56.424-.968-1.879-2.295-1-3.693 2.463-1.439 1.464-2.902 0-.104-.112-.248-.04-.4 0l.096.08"/><path d="m477.361 90.074-.04-.032c1.063.607 1.927-.008 2.702.303 2.791 1.112 5.325.76 7.995 2.095 3.711 1.855 8.028 7.508 12.801 9.099.256.088.048.567.2.799.511.824 1.647 2.447 2.398 3.198 1.855 1.863 8.043 9.627 9.594 10.402.576.287 2.199 1.295 2.399 1.799.248.608 1.191 2.99 1.399 3.198 2.078 2.08 3.27 1.976 5.797 3.494.575.344 1.927 2.67 2.198 3.502.168.48.872.528 1.304.799 1.671 1.048 9.586 8.252 10.394 8.795 1.047.696 1.415 2.607 2.901 3.198.897.36.744 1.976 1.599 2.399 3.878 1.943 15.2 7.699 18.693 11.201.72.72.776 1.999 1.599 2.599 1.919 1.391 6.149 2.998 7.5 4.797 2.599 3.47 10.385 13.471 14.096 15.495.79.431 1.271.175 1.295 1.303.089-.088.224-.088.304 0 .415.415 1.167 1.455 1.903 1.895 1.623.974 3.701 4.021 4.997 5.101.183.16.359.135.599.199.919.232 9.45 5.237 7.7 6.996-.312.304-1.064.361-1.304 0-.983-1.471-2.238-2.862-3.797-3.798-.4-.239-1.551-.183-1.799-.799-1.935-4.83-17.798-12.537-19.996-16.198-.137-.231-1.543-.264-1.599-.295-.673-.4-3.462-1.568-3.503-1.599-1.214-1.217-2.774-3.567-3.998-4.303-2.966-1.775-10.145-9.81-10.897-10.098-4.485-1.679-7.979-5.74-13.095-8.291-.688-.351-1.599-.407-2.096-.999-3.205-3.846-23.793-19.069-23.993-21.395h-.799c.104-.072-.776-.64-1.095-.8-.153-.08-.385.12-.504 0l-2.703-1.599c-.176-.072-3.973-6.076-5.293-7.395l-.599-.608c-3.702-3.694-7.028-7.46-11.697-9.794-.104-.048-2.199-3.894-2.903-4.597-.08-.08-.184.032-.295 0-3.83-.96-7.14-.56-9.899-2.399-.975-.648-1.599-4.15-1.599-6.1v-.296c0-.2-.119-.344 0-.504.16-.208 1.36-.32 1.096-.496z"/><path d="m589.286 197.705c.312-.312 1.055-.064 1.303.304.76 1.143 1.935 1.671 2.399 2.894.495 1.328 3.07.688 3.797 1.903.368.616.648.72 1 1.303.352.584.599.624.599 1.4v1.295l-.303.799s.271.063-.296-.495c-.464-.472.264-.137-.2-.6l-.304-.2c-.056-.104.087-.224 0-.304-.384-.384-.44-.671-.799-1.095-.288-.352-1.36-.664-1.895-1.303-.568-.68-1.847-1.048-2.399-1.599-.319-.312-3.806-2.942-4.501-3.198-2.926-1.096-5.31-2.711-7.7-5.101-1.974-1.975-10.209-6.54-10.993-8.499-.064-.152-.384.12-.505 0-.934-.935-1.518-1.351-2.893-1.895-.711-.288-16.23-12.369-16.295-12.496-.095-.185-.095-.241-.087-.241.024-.016.112.16-.217-.064-3.989-2.654-7.77-6.883-11.993-8.994-.447-.225-3.398-4.685-3.398-5.397v-.2c-5.444-3.629-8.89-2.414-15.797-10.697-.112-.136-.024-.44-.2-.496-3.198-1.071-19.669-18.789-20.588-21.1-.552-1.359-2.95-1.135-3.702-2.398-1.039-1.735-.623-2.886-1.903-4.797-.399-.6-6.26-1.959-6.396-2.103-1.639-1.639-2.383-4.381-3.398-5.397-1.223-1.223-4.549-1.823-5.596-3.398-.081-.12 0-1.319 0-1.599.215.136.886-.559.999-.599h3.798c1.255.751 5.652 4.565 6.596 4.797 3.622.911 7.036 1.615 9.898 3.997 4.165 3.47 2.438 5.773 4.501 9.898 1.663 3.334 18.141 18.15 21.587 21.596 1.319 1.311 2.183 4.125 3.805 5.101.625.374 4.758 1.055 4.997 1.295 1.488 1.487 3.943 2.846 5.095 3.997.423.424.687 2.951 1.102 3.198.584.352 6.66 5.429 6.899 5.901.194.392 1.057-.16 1.296.2.648.974 3.055 1.831 3.997 2.398.729.44 2.32 3.414 3.198 3.998.561.375 3.983 3.446 4.007 3.503.367.99 1.455.559 2.198 1.302 1.847 1.847 6.197 2.495 7.996 4.294 8.186 8.187 17.117 13.719 22.89 19.492"/></g></svg>