<?xml version="1.0" encoding="UTF-8" standalone="no"?><!DOCTYPE svg PUBLIC "-//W3C//DTD SVG 1.1//EN" "http://www.w3.org/Graphics/SVG/1.1/DTD/svg11.dtd"><svg width="100%" height="100%" viewBox="0 0 600 149" version="1.1" xmlns="http://www.w3.org/2000/svg" xmlns:xlink="http://www.w3.org/1999/xlink" xml:space="preserve" xmlns:serif="http://www.serif.com/" style="fill-rule:evenodd;clip-rule:evenodd;stroke-linejoin:round;stroke-miterlimit:2;"><g id="atari_7800_alt"><g><g><path d="M352.726,70.763c9.458,-5.573 15.358,-15.011 15.358,-25.486c0,-24.74 -26.131,-36.008 -50.411,-36.008c-24.283,0 -50.411,11.268 -50.411,36.008c-0,10.479 5.898,19.913 15.354,25.486c-13.452,6.231 -20.978,16.842 -20.978,30.062c-0,24.919 28.184,37.956 56.028,37.956c27.844,-0 56.03,-13.037 56.03,-37.956c0.009,-13.22 -7.519,-23.836 -20.97,-30.062Zm-35.051,-15.682c-6.194,-0 -11.232,-3.994 -11.232,-8.909c-0,-4.915 5.038,-8.91 11.232,-8.91c6.188,-0 11.231,3.995 11.231,8.91c-0.003,4.915 -5.04,8.909 -11.231,8.909Zm-0,31.746c6.894,0 12.5,4.598 12.5,10.261c-0,5.488 -5.608,9.961 -12.5,9.961c-6.896,-0 -12.5,-4.464 -12.5,-9.961c-0,-5.663 5.606,-10.261 12.5,-10.261Z" style="fill:#fff;fill-rule:nonzero;"/><path d="M471.579,30.344c-10.342,-13.787 -25.535,-21.079 -43.933,-21.079c-18.398,0 -33.591,7.288 -43.933,21.079c-8.694,11.599 -13.483,27.191 -13.483,43.905c-0,32.343 17.753,64.98 57.423,64.98c39.67,-0 57.427,-32.639 57.427,-64.98c-0.011,-16.716 -4.802,-32.307 -13.501,-43.905Zm-43.933,70.405c-13.829,0 -15.342,-17.977 -15.342,-26.652c-0,-8.594 1.52,-26.354 15.342,-26.354c13.829,-0 15.34,17.76 15.34,26.354c0.004,8.675 -1.511,26.652 -15.34,26.652Z" style="fill:#fff;fill-rule:nonzero;"/><path d="M586.499,30.344c-10.338,-13.787 -25.535,-21.079 -43.929,-21.079c-18.398,0 -33.592,7.288 -43.933,21.079c-8.694,11.599 -13.485,27.191 -13.485,43.905c-0,32.343 17.754,64.98 57.425,64.98c39.665,-0 57.423,-32.639 57.423,-64.98c-0.009,-16.716 -4.8,-32.307 -13.501,-43.905Zm-43.929,70.405c-13.833,0 -15.344,-17.977 -15.344,-26.652c-0,-8.594 1.52,-26.354 15.344,-26.354c13.823,-0 15.338,17.76 15.338,26.354c0.006,8.675 -1.511,26.652 -15.338,26.652Z" style="fill:#fff;fill-rule:nonzero;"/><path d="M164.023,11.08l0,39.432l53.995,-0l-40.283,88.129l45.608,0l54.162,-127.561l-113.482,-0Z" style="fill:#fff;fill-rule:nonzero;"/></g></g><g><g><path d="M47.061,0.295l7.293,-0l-0,17.2c0.046,4.771 -0.092,9.541 -0.321,14.357c-0.321,6.88 -0.78,13.806 -1.881,20.64c-0.78,4.679 -2.431,9.22 -4.449,13.532c-3.302,6.926 -8.44,12.797 -14.265,17.751c-5.183,4.586 -11.421,7.889 -17.934,10.182c-3.67,1.285 -7.477,2.248 -11.376,2.798l0,-14.402c4.678,-0.688 9.128,-2.339 13.302,-4.541c4.954,-2.615 9.357,-6.101 13.118,-10.275c3.853,-4.265 6.926,-9.219 9.266,-14.448c2.752,-6.055 4.22,-12.568 5.229,-19.081c1.238,-8.302 1.788,-16.696 1.972,-25.09c0.046,-2.935 0.046,-5.779 0.046,-8.623Z" style="fill:#fff;fill-rule:nonzero;"/><path d="M57.336,0.295c4.494,-0.046 8.944,-0 13.438,-0l0,96.369l-13.438,-0c-0.047,-10.229 -0,-20.503 -0.047,-30.732c0.047,-21.879 0.047,-43.758 0.047,-65.637Z" style="fill:#fff;fill-rule:nonzero;"/><path d="M73.756,0.295l7.247,-0c-0.091,9.816 0.275,19.586 1.422,29.355c0.963,7.569 2.293,15.183 5.321,22.2c2.844,6.835 6.972,13.165 12.338,18.256c5.137,4.862 11.33,8.623 18.072,10.779c1.881,0.597 3.807,1.055 5.78,1.376l-0,14.403c-3.853,-0.505 -7.614,-1.514 -11.284,-2.752c-4.357,-1.514 -8.577,-3.487 -12.476,-6.009c-2.844,-1.835 -5.412,-3.991 -7.889,-6.284c-4.082,-3.761 -7.706,-8.027 -10.458,-12.889c-2.156,-3.761 -3.715,-7.844 -4.954,-11.972c-1.101,-4.174 -1.605,-8.485 -2.018,-12.797c-0.826,-9.265 -1.147,-18.576 -1.101,-27.888l0,-15.778Z" style="fill:#fff;fill-rule:nonzero;"/><path d="M16.65,114.185c-1.651,5.55 -3.211,11.1 -4.862,16.65l9.678,0c-1.605,-5.55 -3.21,-11.1 -4.816,-16.65Zm-4.036,-8.21c1.697,-2.202 5.275,-2.569 7.339,-0.734c0.871,0.734 1.468,1.743 1.789,2.798c3.899,13.393 7.797,26.787 11.696,40.181l-6.88,-0c-1.101,-3.67 -2.156,-7.385 -3.211,-11.101l-13.302,0c-1.101,3.716 -2.156,7.385 -3.211,11.101l-6.834,-0c3.715,-12.798 7.385,-25.549 11.1,-38.301c0.367,-1.376 0.551,-2.843 1.514,-3.944Z" style="fill:#fff;fill-rule:nonzero;"/><path d="M60.408,130.835l9.633,0c-1.606,-5.55 -3.211,-11.145 -4.816,-16.696c-1.606,5.596 -3.211,11.146 -4.817,16.696Zm0.551,-24.585c1.192,-1.743 3.532,-2.569 5.55,-2.064c1.88,0.413 3.302,2.018 3.761,3.853c3.899,13.393 7.798,26.741 11.697,40.134l-6.881,0c-1.055,-3.715 -2.11,-7.384 -3.211,-11.1l-13.301,0c-1.055,3.716 -2.156,7.385 -3.211,11.1l-6.834,0c3.715,-12.843 7.43,-25.686 11.146,-38.529c0.413,-1.101 0.55,-2.385 1.284,-3.394Z" style="fill:#fff;fill-rule:nonzero;"/><path d="M28.255,104.14l24.906,0l0,6.743l-9.173,-0l-0,37.337l-6.559,-0l-0,-37.337l-9.174,-0l0,-6.743Z" style="fill:#fff;fill-rule:nonzero;"/><path d="M89.305,104.415c0.642,-0.229 1.285,-0.275 1.973,-0.275l7.843,0c4.404,0.092 8.623,2.798 10.55,6.788c1.33,2.569 1.468,5.596 1.146,8.394c-0.229,2.982 -1.467,5.917 -3.761,7.89c-1.192,1.055 -2.706,1.743 -3.99,2.66c-0.688,0.55 -0.734,1.605 -0.367,2.339c3.486,5.367 7.109,10.642 10.641,15.962l-7.797,0c-3.395,-5.091 -6.743,-10.228 -10.137,-15.365c-1.009,-1.468 -1.284,-3.395 -0.688,-5.046c0.458,-1.284 1.559,-2.202 2.798,-2.706c2.385,-0.917 4.678,-2.34 6.009,-4.541c1.009,-1.697 0.963,-3.761 0.504,-5.596c-0.504,-2.385 -2.844,-4.266 -5.321,-4.174l-5.091,0c-0.78,0 -1.468,0.642 -1.468,1.422l0,35.96l-6.605,0l0,-38.712c0,-2.202 1.606,-4.312 3.761,-5Z" style="fill:#fff;fill-rule:nonzero;"/><rect x="116.78" y="104.14" width="6.972" height="44.079" style="fill:#fff;fill-rule:nonzero;"/></g></g></g></svg>