<?xml version="1.0" encoding="UTF-8" standalone="no"?><!DOCTYPE svg PUBLIC "-//W3C//DTD SVG 1.1//EN" "http://www.w3.org/Graphics/SVG/1.1/DTD/svg11.dtd"><svg width="100%" height="100%" viewBox="0 0 600 78" version="1.1" xmlns="http://www.w3.org/2000/svg" xmlns:xlink="http://www.w3.org/1999/xlink" xml:space="preserve" xmlns:serif="http://www.serif.com/" style="fill-rule:evenodd;clip-rule:evenodd;stroke-linejoin:round;stroke-miterlimit:2;"><g id="atari_lynx_flat"><g><g><path d="M24.506,0.412l3.798,-0l0,8.957c0.024,2.484 -0.047,4.968 -0.167,7.476c-0.167,3.582 -0.406,7.189 -0.979,10.748c-0.406,2.436 -1.266,4.801 -2.317,7.046c-1.72,3.607 -4.395,6.664 -7.428,9.244c-2.699,2.388 -5.948,4.108 -9.34,5.302c-1.911,0.669 -3.893,1.171 -5.923,1.458l-0,-7.501c2.436,-0.358 4.753,-1.218 6.926,-2.364c2.58,-1.362 4.873,-3.177 6.832,-5.351c2.006,-2.221 3.606,-4.8 4.825,-7.523c1.433,-3.153 2.197,-6.545 2.723,-9.937c0.644,-4.323 0.931,-8.694 1.027,-13.065c0.023,-1.529 0.023,-3.01 0.023,-4.49Z" style="fill:#fff;fill-rule:nonzero;"/><path d="M29.857,0.412c2.341,-0.024 4.658,-0 6.998,-0l0,50.183l-6.998,-0c-0.024,-5.327 -0,-10.677 -0.024,-16.003c0.024,-11.394 0.024,-22.787 0.024,-34.18Z" style="fill:#fff;fill-rule:nonzero;"/><path d="M38.408,0.412l3.774,-0c-0.048,5.111 0.143,10.199 0.74,15.286c0.502,3.941 1.194,7.906 2.771,11.561c1.481,3.559 3.63,6.855 6.425,9.506c2.675,2.532 5.9,4.491 9.411,5.613c0.979,0.311 1.982,0.549 3.009,0.717l0,7.5c-2.006,-0.263 -3.964,-0.789 -5.875,-1.433c-2.269,-0.789 -4.467,-1.816 -6.497,-3.129c-1.481,-0.956 -2.819,-2.079 -4.109,-3.273c-2.125,-1.958 -4.012,-4.18 -5.445,-6.711c-1.123,-1.959 -1.935,-4.085 -2.58,-6.235c-0.573,-2.173 -0.836,-4.418 -1.051,-6.664c-0.43,-4.824 -0.597,-9.673 -0.573,-14.522l-0,-8.216Z" style="fill:#fff;fill-rule:nonzero;"/><path d="M8.671,59.719c-0.86,2.89 -1.673,5.78 -2.532,8.67l5.039,0c-0.836,-2.89 -1.672,-5.78 -2.507,-8.67Zm-2.102,-4.276c0.883,-1.146 2.746,-1.337 3.821,-0.382c0.454,0.382 0.765,0.908 0.932,1.457c2.03,6.975 4.06,13.949 6.091,20.924l-3.583,0c-0.574,-1.911 -1.123,-3.846 -1.672,-5.78l-6.927,-0c-0.573,1.934 -1.123,3.845 -1.672,5.78l-3.559,0c1.935,-6.664 3.846,-13.304 5.78,-19.944c0.191,-0.717 0.287,-1.481 0.789,-2.055Z" style="fill:#fff;fill-rule:nonzero;"/><path d="M31.457,68.389l5.016,0c-0.836,-2.89 -1.672,-5.804 -2.508,-8.694c-0.836,2.914 -1.672,5.804 -2.508,8.694Zm0.287,-12.802c0.621,-0.908 1.839,-1.338 2.89,-1.075c0.979,0.215 1.72,1.051 1.959,2.006c2.03,6.975 4.06,13.925 6.09,20.9l-3.583,-0c-0.549,-1.935 -1.098,-3.845 -1.671,-5.78l-6.927,-0c-0.55,1.935 -1.123,3.845 -1.672,5.78l-3.559,-0c1.935,-6.688 3.869,-13.376 5.804,-20.064c0.215,-0.573 0.287,-1.242 0.669,-1.767Z" style="fill:#fff;fill-rule:nonzero;"/><path d="M14.714,54.488l12.969,0l0,3.511l-4.777,0l0,19.443l-3.415,0l-0,-19.443l-4.777,0l-0,-3.511Z" style="fill:#fff;fill-rule:nonzero;"/><path d="M46.505,54.631c0.334,-0.119 0.669,-0.143 1.027,-0.143l4.085,0c2.293,0.048 4.49,1.457 5.493,3.535c0.693,1.338 0.764,2.914 0.597,4.371c-0.119,1.553 -0.764,3.081 -1.958,4.108c-0.621,0.55 -1.41,0.908 -2.078,1.386c-0.359,0.286 -0.382,0.836 -0.192,1.218c1.816,2.794 3.703,5.541 5.542,8.312l-4.061,-0c-1.767,-2.651 -3.511,-5.326 -5.278,-8.002c-0.526,-0.764 -0.669,-1.767 -0.359,-2.627c0.239,-0.669 0.813,-1.147 1.457,-1.409c1.243,-0.478 2.437,-1.218 3.13,-2.365c0.525,-0.884 0.501,-1.959 0.262,-2.914c-0.262,-1.242 -1.481,-2.221 -2.77,-2.173l-2.652,-0c-0.406,-0 -0.764,0.334 -0.764,0.74l-0,18.726l-3.439,0l-0,-20.159c-0,-1.147 0.835,-2.245 1.958,-2.604Z" style="fill:#fff;fill-rule:nonzero;"/><rect x="60.812" y="54.488" width="3.631" height="22.954" style="fill:#fff;fill-rule:nonzero;"/></g></g><g><rect id="rect5539" x="83.843" y="5.252" width="38.334" height="46.137" style="fill:#fff;"/><rect id="rect5541" x="83.673" y="56.816" width="97.023" height="14.418" style="fill:#fff;"/><path id="path5543" d="M145.585,5.252l44.61,-0l31.041,25.443l-24.256,16.453l-51.395,-41.896Z" style="fill:#fff;"/><path id="path5545" d="M202.238,50.88l70.902,-45.798l33.415,-0l-68.866,44.78l-0,21.372l-35.451,0l0,-20.354Z" style="fill:#fff;"/><path id="path5547" d="M316.224,4.912l98.21,66.831l21.203,0l0,-67l-19.167,-0l-0,46.137l-69.206,-45.968l-31.04,0Z" style="fill:#fff;"/><path id="path5549" d="M311.305,11.697l37.995,24.086l-0,35.451l-38.165,0l0.17,-59.537Z" style="fill:#fff;"/><path id="path5551" d="M445.814,4.573l69.715,34.603l12.552,-5.598l20.863,9.838l29.853,0l-75.481,-39.012l-57.502,0.169Z" style="fill:#fff;"/><path id="path5553" d="M534.017,15.768l18.828,7.464l47.155,-17.472l-49.19,0l-16.793,10.008Z" style="fill:#fff;"/><path id="path5551-7" d="M596.715,73.27l-69.714,-34.603l-12.552,5.598l-20.863,-9.838l-29.854,-0l75.482,39.012l57.501,-0.169Z" style="fill:#fff;"/><path id="path5553-8" d="M508.131,63.05l-18.447,-8.778l-47.154,17.471l49.19,0l16.411,-8.693Z" style="fill:#fff;"/></g></g></svg>