<svg clip-rule="evenodd" fill-rule="evenodd" stroke-linejoin="round" stroke-miterlimit="2" viewBox="0 0 600 161" xmlns="http://www.w3.org/2000/svg"><g fill="#fff" fill-rule="nonzero"><path d="m247.811 35.266c.598.147.88-.469 1.32-.733.703-.422 7.314-2.493 7.384-2.569.669-.663-.334-2.282.241-2.64.616-.387 1.912-.205 2.422-.51 2.552-1.531 6.388-1.601 8.875-3.156.763-.481 1.484-1.736 2.27-2.053 1.619-.645 3.607-.621 5.355-1.319.904-.364 1.15-1.795 1.69-2.423 1.02-1.191 2.164-1.455 3.372-2.416 1.737-1.396-6.663.275-3.595-2.793 2.944-2.944 14.84-1.783 15.989-2.932l.217-.364c.804-.804 2.787.158 2.787-2.053v-.733c-.094-.065-7.649.739-8.212.88-4.933 1.231-11.292.662-15.914 2.053-2 .598-12.306 2.223-13.062 2.979l-1.825 1.273c-8.575 1.713-17.239 2.675-25.82 4.106-4.253.71-10.464.903-14.177 2.141-3.39 1.132-8.851 1.396-12.225 2.335-2.651.739-10.118-.857-12.464.146-.539.229-1.091 2.869-.733 3.226.316.323 1.291.241 1.684.517.345.24.955.545.733 1.096-.3.745-3.321-.14-4.106 1.173-.956 1.596 2.428 3.801 3.008 4.769.892 1.484-2.616 2.153-1.835 4.106h1.467c.733 0 1.354.235 1.835.956l.64.511c1.401 1.982 34.05-3.52 34.05-3.52s-9.538 81.374-48.11 85.662c-8.805.979-18.148-10.33-18.776-10.564-.581-.217-1.713-.27-2.088.011-.375.288-.792 2.053.37 3.373 4.387 4.992 17.444 15.708 30.465 15.391 40.485-.973 56.768-95.926 56.768-95.926z"/><path d="m266.141 70.941-.071-.029c0-2.206 4.986-9.251 5.796-12.471v-.076c.539-.27.704-2.065.88-2.2 1.442-1.079 3.765-6.182 5.941-8.358l2.347-2.276c.158-.158.498-.305.657-.147.381.382-.088 7.174-.217 7.837-.423 2.094.264 8.663-.147 9.619-.44 1.033-2.252 1.549-4.129 2.57-2.546 1.39-5.438 3.173-7.168 3.519-.968.194-.821 2.2-3.813 2.2zm-21.193 7.889v.217c0 4.112 2.863 1.25 3.813 2.2.182.182-.082 2.012-.217 2.276-3.384 6.763-6.288 13.796-10.634 20.318-.258.381-.235.903-.44 1.32-1.519 3.038-3.889 6.382-5.133 8.869-.475.95-.563 2-1.102 3.085-.059.117-.294 2.047-.44 1.76 0 2.592-2.71 7.197-1.76 9.091.282.569.129-.451.44-.656.686-.463 1.724-.833 2.2-1.543.404-.61 1.261-4.658 1.542-4.839 1.021-.68 1.613-2.072 1.613-.223 0 .85.041 1.407-.223 2.199-.111.335.112.775 0 1.103l-.293.657v1.103l.293-.44.223-.44c.123-.246.041-.522.217-.88.329-.656.088-.504.077-.516 0-.006.07-.071.363-.364.54-.539.118-1.66.663-2.199.246-.253 1.461-2.335 1.76-2.933l1.319-2.423c.212-.428.352-1.185.657-.88 1.578 1.578 1.197 5.737.44 7.995-.07.211-.545 1.431-.44 1.537.147.147.258-.346.44-.44 2.071-1.032.552-3.261 1.103-3.813 2.112-2.111 2.44-5.958 4.622-8.141 3.666-3.666 10.517-27.31 14.007-30.8 2.769-2.769 17.697-5.966 20.536-8.799 1.842-1.847 1.759 3.32 1.759 3.96 0 1.794-.105 15.826 0 16.13.476 1.425 1.308 2.241 1.76 3.596.698 2.1-.633 10.364 1.613 12.617.323.322.2-.423.223-.44.276-.282 1.097-2.241 1.097-2.716 0-.464.111-1.648.44-1.32.252.246 2.205 7.121 2.422 7.332.47.469-.076 1.39.217 1.983.159.311.605.574.663.657.088.14.147.592.217.445.475-.95.299-2.358.88-3.525.481-.956.458-3.167 1.103-3.812 1.003-1.003 2.469 2.545 2.639 2.715s.927.833 1.103.657v-4.469c0-7.004 0-45.547.217-45.987.316-.633 1.836-24.078 1.836-26.77 0-3.338-.557-2.534-2.276-4.253-.358-.352-.152-3.672-.223-3.742l-1.759-1.537c-.675-.68-5.514 2.2-7.479 2.2-4.282 0-3.226 1.39-5.355 3.519-.112.117-.323-.106-.44-.217-.458-.463-.44-.481-.44-1.32v-.663c-.329-.164-2.006.534-2.2.663-1.173.78-2.205 3.602-2.856 4.91-1.244 2.487-3.162 4.411-4.476 7.044-.528 1.056-1.085 4.892-1.76 5.573-3.249 3.243-9.121 12.886-11.074 16.793-.223.446-1.103 3.519-1.103 3.519-.932.933-5.326 8.57-5.719 9.755-.187.557-3.507 1.912-4.182 2.199-.657.288-1.542.153-2.053.663-.316.317-.135.323-.135.335 0 .011-.058.023-.305.105z"/><path d="m340.54 25.823-.029-.018h.147c.434.147.944.117 1.319.364.37.246.088-.264.44 0 .54.41 1.596 1.531 2.346 1.912.399.193 1.092.07 1.543.07h.587c.211.851 2.598 4.875 3.519 5.426.528.317 1.713.305 2.423.663.17.082.557-.012.733.07h.293c0 1.156-2.874 1.971-2.053 2.786 1.22 1.226 1.484 2.693-1.249 3.379-2.042.51-4.347-.276-6.306.51-2.305.921-4.628 2.769-7.044 3.373h-.071c-11.502 3.836-23.544 20.137-23.544 32.419v.44c0 8.106 4.798 17.362 12.177 20.313 1.014.41 1.818 1.548 3.079 1.759.997.17 2.34.81 3.596.81.88 0 5.824.768 6.522.363 1.678-.956 3.543-1.525 5.209-2.639.886-.587.199-3.496-.147-3.666-1.883-.944-.223-12.535.516-14.74.61-1.83 1.907-4.693.88-5.719l-.293-.294c-.07-.07-1.261-.31-1.396-.222-1.554 1.038-5.889.369-6.528.733-2.241 1.278-4.505 2.276-6.746 3.519-.598.334-4.335 2.628-4.769 1.76-.093-.194.476-.546.587-.657.469-.469 1.443-1.467 2.053-1.836 1.296-.774 2.252-4.347 3.596-5.426 3.836-3.068 10.751-6.282 15.843-7.555.117-.029.31.041.363-.07l.147-.293 2.792-1.25c.95-.475 1.501-1.812 2.493-1.976.827-.141 1.173.95 1.759 1.243 2.165 1.085 4.546-1.273 4.546 1.249v1.977c-1.19 1.191-.322 4.241-1.026 5.649-.34.68-3.009 11.08-3.009 11.367 0 .364-.98 4.781-1.027 4.839-.358.452-.51 12.406-.51 14.007 0 2.394.616 4.417 1.32 6.529.141.428.44 1.22.44 1.613 0 .258.234.276.146.369-.475.476-1.085-.686-1.249-.733-3.86-1.102-7.578-7.508-7.702-7.555-1.947-.78-1.836 2.534-3.372 3.303-1.437.716-3.578 2.669-4.599 4.029-1.173 1.567-13.379 1.454-14.47.37-1.59-1.59-4.611-1.373-6.306-2.64-.968-.727-10.763-9.478-10.928-10.047-.475-1.666-1.613-4.112-2.422-5.725 0 0-1.695-8.101-2.071-13.127-1.231-16.424 7.884-32.637 19.087-42.245 1.601-1.372 3.367-3.924 5.279-4.692 2.282-.909 4.259-1.32 6.675-2.123 1.713-.575 3.825-.851 5.355-1.619.253-.124.675-.452 1.027-.364l.029.018z"/><path d="m445.241 61.521c.101 0 .728-2.235 1.097-2.863 1.549-2.569 3.162-5.795 4.916-8.135 1.512-2.018 9.015-11.567 7.261-2.792-.363 1.812-1.173 2.686-1.173 4.698 0 3.754-.886 3.338-3.666 4.03-2.792.698-6.001 5.062-8.435 5.062zm-60.58-39.458h-.293c.392.393-.293.293-.293.293-.264.264-1.255 1.138-1.467 1.76-.346 1.038-4.158 5.42-3.519 7.338-.064-.065-.774.475-.88.586-.721.722-1.378 2.798-2.053 3.813-.604.903-4.135 10.353-4.698 12.024-.117.37.152 1.461 0 1.766-1.144 2.293-2.646 4.71-3.813 7.039-1.689 3.384-2.921 9.367-4.986 13.49-1.354 2.71-2.932 9.685-3.812 15.257-.44 2.78 0 7.179 0 9.684 0 .886-.012 3.496.293 4.106.123.246.681 1.367.88 1.173-.311.933 1.414 1.414 1.76 1.76.07.07.686 1.566.879 1.759.018.018.857.317.587.587 2.798-.933 6.822 1.32 10.564-1.173.78-.523 6.628-4.147 6.745-4.106l.88-1.173c.845-1.273 2.481-2.036 3.226-3.52.728-1.454 3.831-6.458 5.279-6.458-2.393.347-.586 14.166-.586 15.843h.586c0 .64.388 3.033 1.174 2.64-.217.657 1.501 1.683 2.052 2.053 3.42 2.282 8.382-3.355 9.685-2.053.211.211-1.273 2.751-1.467 3.519-.176.693-4.563 10.429-5.279 11.151-.733.733-2.939 3.501-2.939 4.692 0 .804-.123 1.044.294 1.467 0 0-.094.686.299.293v.587c.346-.346 1.15 1.443 1.173 1.466.552.557 3.901-.909 3.519-2.053.352.351.522-1.056.88-1.173 1.349-.452 1.666 1.073 2.053.88 1.379-.687 4.106-5.004 4.106-1.76h.587v-.586c.176.088 1.05-.505 1.173-.587.78-.516 5.015-6.839 5.572-8.505.2-.587 1.725-2.516 2.053-2.352v-.587c.27.27.569-.563.593-.586.228-.23.967-.546 1.466-.88.199-.135.264-.452.587-.294-.241-.703.351-1.525.879-2.052 3.602-3.607 11.509-20.383 14.371-26.108.188-.37 4.193-5.907 4.698-6.159l3.227-.293c.205 0 1.137-.329.879-.587.493.164 7.508-5.578 9.972-5.578-.176-.17.961-.821 1.173-.88 1.085-.27 2.141-.88 3.226-.88v-.586c.358 0 2.447-1.074 2.939-.587 1.149 1.155-1.179 10.464-1.179 10.564 0 .874.886 4.094.88 4.106h.592c0 4.088.587 8.112.587 12.323v1.174c.111.111 1.642-.118 1.759 0 1.619 1.619.27 8.775 2.64 11.144.082.082 0 .182 0 .294 0 .656.316.879.88.879 0 1.08-.071 1.244-.587 1.76-.071.07.293.927.293 1.466.739-.369.552.851.587.88.944.951-.035 3.003-.587 4.112-.011.018-.198 1.953.294 1.467-.346 1.032.586.393.586 1.466h.587c-.124.124.739.745.88 1.173.264.798.586 1.525.586 2.346h.293v.88h.587l.293.587v.586c.628.628.686-1.848.294-2.639-.599-1.196.293-4.147.293-5.573 0-1.882.874-10.54 1.173-11.443 1.272-3.813.786-24.489 1.173-26.108 1.467-6.159 2.346-17.456 2.346-25.228 0-5.197.822-11.491 2.053-16.43.388-1.554.528-3.983 1.173-5.279.188-.375.698-.51.88-.88.023-.041.188-1.654-.293-1.173v-1.466h-.587c0-.1.165-1.338-.293-.88v-.592c-1.097 0-2.551-.587-3.812-.587-.141 0-2.617-.317-2.347-.587h-.586c.311-.305-.781-.78-1.173-.586v-.587l-.294-.293h-.88c.246-.24-.815-.815-.879-.88-.464-.463-.258-1.548-.88-1.76-.564-.187-1.344.716-1.76.294.522 1.578-1.613 1.173-2.053 2.053-.85 1.701.258 4.17-.586 5.871l-2.933 2.64c-.082.082-.082.211 0 .293-.986 0-2.769 1.871-2.939 1.76.158.152-.135.434-.293.586-.546.546-1.918 1.197-2.346 2.053-.886 1.772-3.473 3.432-4.4 5.279-1.525 3.05-5.091 8.417-8.211 9.978-.552.275-1.602 3.308-2.347 2.932.17.511-2.223 2.687-2.645 3.52-.986 1.971-4.129 7.959-5.279 9.678-.604.909-2.593 1.613-2.346 2.352-.012-.012-3.156 1.959-2.933 2.64-.458-.229-4.857 3.384-5.279 3.812-.868.868-4.312.698-4.699 1.467-.269.545 1.602 3.255.886 4.692-.469.933-2.059 1.308-2.059 2.346h1.473c1.472 0 2.316-.879 3.519-.879.193 0 .487-.1.293.293-.692 1.384-8.798 13.591-9.391 13.79-.387.13-3.513-.287-3.519-.293-.347-.346-.534-1.52-.88-1.173 0-.663-.082-5.708 0-5.872 1.496-2.986 1.42-6.945 2.933-9.971 2.012-4.018 6.118-15.48 7.924-18.19.47-.704 1.133-1.032.88-2.053h.294c1.29-4.792 4.311-9.414 5.865-14.083.387-1.156 1.959-5.772 2.64-6.452l1.173-.88c-.153-.458 1.179-2.634.586-3.226-.094-.094-1.097-.956-.88-1.173h-.586l-.293-.293v-.587c-.968.962.827-5.52-.294-4.399 0-2.37-4.821-2.053-6.745-2.053l-.293-.293v-.587c-.223.217-.575-.299-.88-.299-.64 0-3.132.035-3.525.299-1.918 1.279-6.101 11.972-7.919 13.784l-.88 2.346c-.253.505-1.232.945-.88 1.467h-.293c.856 2.575-1.543 4.516-2.64 6.165-.205.305-1.759 9.736-1.759 11.144h-.587c0 .264-.305 1.461-.586 1.173.316 1.273-1.678 3.866-2.053 4.986-4.001 12.001-2.698 7.684-11.151 16.136-1.548 1.555-2.762 3.995-4.692 5.279-.974.652-1.795.915-2.64 1.76-.082.082-.082.217 0 .293h-.586c.428.429-2.141 1.092-1.76 1.473-.135-.047-3.731 3.707-6.458 2.346-3.66-1.83 3.349-15.186 2.939-16.43.017.024.815-.75 1.173-1.466.792-1.596.492-4.411 1.466-5.866 2.258-3.39 4.693-4.786 4.693-9.684l.293-.586h.586c-.017-.036.587-1.203.587-1.76.082.082.211.082.293 0l1.467-1.466c1.56-1.561 1.666-4.505 2.639-6.453.499-.997 2.182-1.724 2.64-2.639.411-.827-.358-3.396.293-4.699.099-.193.628-1.425.88-1.173-.2-.598 5.297-7.883 4.991-8.505h.587c-.34-.68 2.64-5.936 2.64-6.159h-.587v-.586c-.434.428-1.543-1.543-1.76-1.766-.082-.076-.217-.076-.293 0v-.586h-.587c.387-.387-.293-.294-.293-.294-.023-.017-.211-1.841-.592-1.466 0-.663-.928-2.792-.88-2.933h-.587c1.115-2.223-3.466-1.578-4.692-1.173-.663.223-2.194 2.059-2.64 1.76z"/><path d="m476.024 130.577c-.088 0-.053-.176-.053-.264v-1.467c0-1.085 1.238-3.015.951-3.296-2.764-2.763 3.114-10.875 4.551-14.23.153-.364-.117-3.262 0-3.373.089-.093 1.115-.446.95-.733-.293-.511-.861-1.971-.51-2.786.276-.646 1.22-.921 1.467-1.473.679-1.525.522-2.504 1.389-3.812.153-.23.159-1.367.517-1.907.229-.346.223-.816.44-1.173.686-1.149 1.777-1.19 2.123-2.346.616-2.053-.498-4.681 0-5.942.933-2.334 4.341-13.678 4.992-14.517l.733-.956c1.326-1.731.04-3.883.733-5.502.71-1.66 1.613-3.396 2.563-4.986.523-.868.646-4.27 1.907-6.382.146-.234 1.02-4.481.733-4.763-.351-.357-1.478 1.179-1.906 1.467-.745.498-1.584.41-2.347 1.173-.234.234-7.425 1.789-6.892-.516-.123.123-.885-.628-.956-.657-.645-.282-.387.152-1.173-.294-.094-.058-2.328-.134-2.417-.222-1.589-1.584-1.583-2.194-3.525-3.303-.487-.275-.082-.557-.951-.293.218-.158-.72-.422-.733-.44-.38-.375.23-3.379.44-3.59 1.467-1.466 6.688-4.628 5.943-7.115.539-.234.076-.006.509-.44.142-.14 1.297-.803 1.69-.956 1.179-.44 3.995-1.161 4.986-1.906.628-.469 1.05-.587 1.906-.95 3.49-1.496 6.916-2.698 10.635-3.813.797-.24 1.038-1.12 1.906-1.472.686-.27 2.046-.241 2.639-.657l.734-.516c3.806-2.657 13.777-1.467 15.696-2.564 1.203-.686 2.417-2.199 3.302-2.639 1.443-.722 17.228 1.713 18.336 2.346 1.854 1.056 2.892 1.056 4.252 2.417.083.082 1.491 2.147 1.907 1.912-.017 1.261 3.121 1.76 3.302 2.123.622 1.25 1.555 2.429 2.857 3.08.164.082.622 1.648.733 1.906.423.98 1.319 1.76 1.906 2.346.857.857-.099 2.517.44 3.596.276.551-.304 2.516-.217 3.079-.574 1.344.259 3.995-.205 5.514-1.196 3.889-2.851 6.464-5.297 9.96-1.513 2.164-4.047 2.604-5.208 4.258-.205.294-.669 1.971-1.173 2.124-1.168.352-5.226 2.44-6.159 3.372-.839.845-1.766 1.66-2.863 2.13l-.949.222h-.517c0 .153 5.121 4.822 5.503 5.203 2.85 2.851 4.299 7.385 6.674 9.755 1.66 1.666 4.2 3.771 5.648 5.942.059.093.182-.041.293 0 6.588 2.633 13.363 12.276 19.434 14.963-.153.264 1.278 1.32 1.466 1.466.962.739 3.203 2.892 3.813 3.813.991 1.484 12.746 12.476 15.45 15.18.264.264.739 3.079.463 3.373.58-1.925-9.596-6.464-10.265-8.142-.756-1.888-9.978-8.921-12.324-9.754-.087-.03-6.223-5.977-6.892-6.376-1.718-1.032-4.669-2.053-6.452-3.302-2.598-1.819-3.607-4.587-5.209-6.453-1.061-1.237-2.815-.915-4.474-3.812-.153-.27-1.613-.986-1.906-1.396l-.512-.733c-.721-1.027-1.76-1.467-2.639-2.347-.111-.111-.276-1.037-.662-1.249-.317-.17-1.784-1.132-1.466-1.613h-.659c.153-.264-.855-.833-.955-1.173-.129-.428-1.431-1.942-1.906-2.417-.1-.1-1.672.117-1.906 0l-1.173-.739c-.153-.082-.952-.44-.734-.657-.991 0-3.068-2.112-3.812-2.862-.517-.511-3.274-.341-4.036-2.124-.405-.944-1.578-1.319-2.423-1.906-.498-.352-1.155-.616-1.39-1.173l-.44-.956c-.135-.311-.105-.358-.1-.358.012.006-.011.088-.416-.153-.27-.164-.217-.193-.217-.439v-.517.734l.44.439.293.734c.164.539.217.475.217 1.173s.247 1.472.733 1.906c1.191 1.074 2.493 2.17 3.52 3.373 1.061 1.238 3.502 2.991 4.768 4.258 2.493 2.487 6.47 4.781 9.537 7.843 1.273 1.278 1.666 2.328 2.565 3.525.07.088-.1.234 0 .293l2.639.657c2.293 2.681 6.258 4.259 7.847 7.848.253-.163.335.217.44.294 1.098.768 3.438 2.703 3.596 3.742.687-.276.898.739 1.39.95 5.544 2.376 11.937 8.342 16.213 12.617.387.387 2.317 3.56 3.08 3.813 1.184.398 4.199 1.836 4.985 2.863.317.404.58 1.664.734 2.122.005.024 8.275 8.483 9.021 8.805.076.029-.024.135 0 .217.299 1.008 1.906.95 1.906 1.907 0 .392.357 1.02 0 1.173-.135.058-.646-.265-.733-.44-.064-.124-5.566-5.438-5.719-5.497-3.983-1.595-15.263-12.693-20.682-15.403-4.206-2.106-10.065-8.745-13.497-12.177-1.701-1.7-2.687-3.12-3.813-4.253-.463-.463-2.34-.786-2.861-1.396l-.512-.733c-4.416-1.953-6.756-5.572-10.417-6.669l-.733-.44c-.076-.041-.182.076-.216 0-.253-.581-12.107-14.048-12.618-14.306-.956-.475-10.792-6.763-11.144-7.109-.563-.563.123-1.619.44-2.346 1.941-4.529 3.619.85 6.892-2.423.487-.487-2.459-3.091-3.08-3.302-.381-.123-1.056-.71-.733-.951l-.663-.222c0-1.332.118-2.006.956-2.64.358-.27.341-.856.657-1.173.499-.493 1.877.616 1.907.663 1.847 2.452 3.519 3.372 7.631 3.372.639 0 1.519.288 1.906-.222 2.628-3.508 6.599-10.705 9.238-13.785.135-.158.375-1.759.224-1.912-.464-.457-1.344-2.012-1.613-2.639l-3.373-1.173c-.534-.159-.293-.382-.44-.734-.036-.076-.142.036-.223 0-.95-.404-3.145-1.665-3.373-2.123h-.663c-.264 0-2.106-.076-2.199 0-.359.305-.194.399-.206.428-.006.012-.053.012-.234.012-7.972 0-9.186.874-12.101 7.185-.288.622-.898 1.132-.95 1.907-.569.322-.429-2.065-2.423-1.467-.41.123-1.865 7.01-2.346 7.626l-3.373 4.258c-3.197 4.798-4.651 22.025-7.115 24.495-.17.17 0 .487 0 .733 0 3.139-.551 5.074-1.613 7.555-.369.863-.968 9.273-1.689 11.438-.692 2.076-1.414 2.592-2.123 4.252-1.455 3.385 1.032 5.989-2.423 8.582-.07.053 0 .134 0 .223 0 1.067.089 3.273-.657 3.589-.27.118-2.217-.422-2.422-.51-.358-.152-.224-.856 0-1.173.393-.563 1.976-2.123 2.422-2.569.422-.423 0-2.857.217-3.373.153-.358 1.842-2.059 2.129-2.346.434-.434.393-1.179.734-1.689.152-.23-.675-1.626-.734-1.684-.076-.07.071-2.276 0-2.346-.504-.505-1.683 1.454-1.906 1.906-.551 1.091-3.572 8.999-3.596 9.022-1.472 1.472-3.191 6.921-4.036 7.408-1.102.627-1.524-5.25-3.812-1.25-.1.182-.117 2.558-.217 2.863-.41 1.214-1.132 1.76-1.619 3.373v1.39c-.41.311-.71-1.379-1.684-.734-2.709 1.807-1.055 1.074-2.128 0-.077-.082-.182-.029-.294 0l.071.059"/><path d="m510.027 74.085-.029-.024c.78.446 1.413-.005 1.982.223 2.047.816 3.907.557 5.866 1.537 2.722 1.361 5.889 5.508 9.391 6.675.187.065.035.417.146.587.375.604 1.209 1.795 1.76 2.346 1.361 1.367 5.901 7.062 7.039 7.631.422.211 1.613.95 1.759 1.32.182.446.874 2.194 1.027 2.346 1.524 1.526 2.399 1.449 4.253 2.563.422.253 1.413 1.959 1.613 2.569.123.353.639.388.956.587 1.226.768 7.033 6.053 7.626 6.452.767.511 1.037 1.912 2.128 2.346.658.264.546 1.45 1.173 1.76 2.845 1.426 11.151 5.649 13.713 8.218.529.528.57 1.466 1.174 1.906 1.408 1.021 4.511 2.2 5.502 3.52 1.906 2.546 7.619 9.883 10.341 11.368.58.316.933.128.95.955.066-.064.165-.064.223 0 .305.305.857 1.068 1.396 1.391 1.191.714 2.716 2.95 3.666 3.742.135.118.264.099.44.146.674.17 6.933 3.842 5.649 5.133-.229.223-.78.264-.956 0-.722-1.08-1.643-2.1-2.786-2.787-.294-.175-1.138-.134-1.32-.586-1.42-3.543-13.057-9.197-14.67-11.884-.1-.169-1.132-.193-1.173-.216-.493-.294-2.54-1.15-2.57-1.173-.891-.893-2.035-2.617-2.933-3.157-2.176-1.302-7.443-7.197-7.995-7.408-3.29-1.232-5.853-4.211-9.606-6.083-.505-.258-1.173-.299-1.538-.733-2.352-2.821-17.456-13.989-17.602-15.696h-.587c.077-.053-.569-.469-.803-.587-.112-.058-.282.088-.37 0l-1.983-1.173c-.129-.053-2.915-4.458-3.883-5.425l-.44-.446c-2.715-2.71-5.155-5.473-8.581-7.186-.076-.035-1.613-2.856-2.129-3.372-.059-.059-.136.023-.217 0-2.81-.704-5.238-.411-7.262-1.76-.715-.475-1.173-3.044-1.173-4.475v-.218c0-.146-.088-.252 0-.369.117-.153.997-.235.804-.364z"/><path d="m592.14 153.048c.228-.229.774-.047.956.223.557.838 1.419 1.225 1.759 2.123.364.974 2.253.504 2.787 1.396.269.452.475.528.733.956s.44.458.44 1.027v.95l-.223.586s.199.047-.217-.363c-.34-.346.193-.101-.147-.44l-.223-.147c-.041-.076.064-.164 0-.223-.281-.281-.323-.493-.586-.803-.211-.259-.997-.487-1.39-.957-.417-.498-1.355-.768-1.76-1.173-.234-.228-2.792-2.158-3.302-2.346-2.147-.803-3.896-1.988-5.649-3.742-1.449-1.449-7.49-4.798-8.065-6.235-.047-.112-.282.088-.37 0-.686-.686-1.114-.992-2.123-1.39-.522-.212-11.907-9.075-11.955-9.168-.07-.135-.07-.176-.064-.176.018-.012.082.117-.159-.047-2.926-1.948-5.7-5.051-8.798-6.599-.328-.165-2.493-3.437-2.493-3.959v-.147c-3.994-2.662-6.523-1.771-11.59-7.848-.082-.1-.017-.323-.146-.364-2.347-.786-14.43-13.784-15.104-15.479-.405-.997-2.165-.833-2.716-1.76-.763-1.273-.458-2.117-1.396-3.519-.294-.44-4.593-1.437-4.693-1.543-1.202-1.202-1.748-3.214-2.493-3.959-.897-.898-3.337-1.338-4.106-2.493-.059-.088 0-.968 0-1.173.158.1.651-.411.734-.44h2.786c.921.551 4.147 3.349 4.839 3.519 2.657.669 5.162 1.185 7.262 2.933 3.056 2.546 1.789 4.235 3.302 7.262 1.22 2.446 13.309 13.315 15.837 15.843.968.962 1.601 3.026 2.792 3.742.458.275 3.49.774 3.666.95 1.091 1.091 2.892 2.088 3.737 2.933.31.311.504 2.164.808 2.346.429.258 4.887 3.983 5.062 4.329.142.287.775-.117.951.147.475.715 2.241 1.343 2.932 1.759.535.323 1.702 2.505 2.347 2.933.411.275 2.921 2.528 2.939 2.57.27.727 1.067.41 1.613.955 1.355 1.355 4.546 1.831 5.866 3.151 6.005 6.006 12.557 10.065 16.793 14.3"/><path d="m3.732.001h122.886c1.912.202 3.531 1.823 3.735 3.735v135.955c-.205 1.909-1.818 3.521-3.726 3.73h-122.895c-1.912-.204-3.533-1.825-3.732-3.74v-135.947c.204-1.91 1.821-3.528 3.732-3.733zm19.234 96.734c-.782.886-.918 2.098-1.276 3.182-3.017 10.369-6.022 20.742-9.024 31.114 1.855.002 3.709-.003 5.564.003.867-3.005 1.739-6.007 2.622-9.006 3.606.001 7.211-.005 10.817.003.868 3 1.727 6.004 2.607 9.002 1.864-.005 3.73 0 5.595-.002-3.155-10.874-6.33-21.742-9.49-32.615-.25-.874-.739-1.685-1.437-2.273-1.707-1.493-4.586-1.188-5.978.592zm62.277-1.258c-1.742.558-3.047 2.285-3.058 4.121.006 10.478 0 20.955.003 31.433 1.793.002 3.584-.001 5.377.002.006-9.732-.004-19.466.003-29.197-.008-.632.578-1.173 1.201-1.159 1.377-.013 2.756.003 4.134-.006 1.993-.067 3.88 1.456 4.307 3.392.365 1.492.407 3.173-.403 4.536-1.064 1.813-2.959 2.965-4.881 3.698-1.007.391-1.911 1.148-2.288 2.182-.485 1.348-.265 2.913.543 4.094 2.749 4.151 5.48 8.316 8.24 12.461 2.109-.008 4.217 0 6.325-.003-2.882-4.322-5.818-8.611-8.642-12.97-.296-.607-.267-1.456.306-1.893 1.046-.774 2.262-1.302 3.238-2.172 1.849-1.594 2.858-3.998 3.044-6.403.271-2.296.161-4.731-.913-6.825-1.55-3.224-4.97-5.447-8.553-5.512-2.127-.002-4.254.004-6.382-.003-.542-.013-1.088.047-1.601.224zm-22.991 1.492c-.61.813-.733 1.85-1.05 2.792-3.024 10.422-6.06 20.842-9.061 31.272 1.854-.003 3.705 0 5.559-.002.86-3.002 1.748-5.998 2.608-9 3.6-.01 7.2-.002 10.8-.003.875 3 1.734 6.004 2.602 9.005 1.868-.008 3.734.006 5.601-.008-3.156-10.865-6.324-21.727-9.481-32.592-.4-1.469-1.559-2.774-3.073-3.123-1.654-.435-3.533.248-4.505 1.659zm45.313-1.713v35.775c1.885.002 3.771-.003 5.654.002.007-11.926.002-23.851.003-35.777zm-71.869 0c-.002 1.82 0 3.638 0 5.458 2.484.001 4.967-.004 7.451.001-.003 10.105-.001 20.211-.001 30.316h5.336c.004-10.105.002-20.211.002-30.316 2.483-.005 4.966 0 7.45-.001v-5.458zm-9.437 8.141c1.311 4.51 2.616 9.02 3.928 13.53-2.62 0-5.24.008-7.861-.005 1.314-4.507 2.61-9.02 3.933-13.525zm35.539 13.53c1.297-4.52 2.614-9.033 3.917-13.551 1.294 4.52 2.614 9.033 3.912 13.552-2.61 0-5.218.002-7.829-.001zm-2.524-106.001c.013 17.767.002 35.532.006 53.297.013 8.317-.027 16.635.02 24.952 3.631-.032 7.265-.007 10.896-.015.002-26.08.002-52.162 0-78.243-3.641.006-7.282-.015-10.922.009zm-8.32-.006c-.006 2.307.013 4.615-.009 6.922-.158 6.811-.582 13.627-1.6 20.366-.813 5.302-2.008 10.595-4.241 15.497-1.896 4.265-4.395 8.279-7.529 11.746-3.036 3.36-6.642 6.209-10.649 8.327-3.376 1.773-7.011 3.115-10.793 3.684.003 3.899.003 7.801 0 11.7 3.141-.443 6.226-1.238 9.224-2.271 5.298-1.831 10.337-4.535 14.558-8.25 4.719-4.008 8.916-8.772 11.587-14.402 1.638-3.495 2.958-7.175 3.595-10.991.928-5.535 1.278-11.145 1.543-16.744.161-3.877.271-7.757.25-11.639-.003-4.65.005-9.3-.003-13.95-1.978.005-3.955-.002-5.933.005zm21.672-.002c-.001 4.274 0 8.55 0 12.824-.049 7.555.208 15.118.891 22.644.354 3.484.743 6.985 1.654 10.373.995 3.37 2.265 6.675 4.005 9.733 2.225 3.928 5.187 7.397 8.497 10.449 2.008 1.847 4.099 3.616 6.396 5.093 3.149 2.048 6.577 3.644 10.121 4.878 2.977 1.012 6.035 1.815 9.154 2.239-.004-3.898-.002-7.796 0-11.694-1.588-.231-3.149-.615-4.676-1.102-5.472-1.753-10.509-4.8-14.665-8.763-4.353-4.145-7.693-9.286-10.01-14.817-2.444-5.718-3.537-11.9-4.313-18.036-.949-7.901-1.219-15.867-1.156-23.819-1.965-.007-3.931-.003-5.898-.002z"/></g></svg>