<?xml version="1.0" encoding="UTF-8" standalone="no"?><!DOCTYPE svg PUBLIC "-//W3C//DTD SVG 1.1//EN" "http://www.w3.org/Graphics/SVG/1.1/DTD/svg11.dtd"><svg width="100%" height="100%" viewBox="0 0 600 102" version="1.1" xmlns="http://www.w3.org/2000/svg" xmlns:xlink="http://www.w3.org/1999/xlink" xml:space="preserve" xmlns:serif="http://www.serif.com/" style="fill-rule:evenodd;clip-rule:evenodd;stroke-linejoin:round;stroke-miterlimit:2;"><g id="atari_st"><g><g><g><path d="M172.921,23.153c-3.76,12.637 -7.311,25.272 -11.07,37.909l22.036,0c-3.655,-12.637 -7.311,-25.272 -10.966,-37.909Zm-9.19,-18.695c3.864,-5.012 12.01,-5.848 16.71,-1.671c1.984,1.671 3.342,3.969 4.072,6.371c8.878,30.495 17.754,60.99 26.632,91.486l-15.666,-0c-2.506,-8.356 -4.908,-16.814 -7.31,-25.274l-30.287,-0c-2.507,8.46 -4.908,16.814 -7.31,25.274l-15.561,-0c8.459,-29.138 16.814,-58.171 25.273,-87.204c0.836,-3.134 1.254,-6.475 3.447,-8.982Z" style="fill:#fff;fill-rule:nonzero;"/><path d="M272.552,61.062l21.931,0c-3.654,-12.637 -7.309,-25.377 -10.965,-38.014c-3.655,12.742 -7.31,25.377 -10.966,38.014Zm1.254,-55.977c2.715,-3.969 8.041,-5.848 12.637,-4.699c4.281,0.94 7.518,4.595 8.563,8.772c8.877,30.495 17.755,60.886 26.632,91.381l-15.666,-0c-2.403,-8.46 -4.804,-16.814 -7.311,-25.274l-30.286,0c-2.402,8.46 -4.909,16.814 -7.31,25.274l-15.561,-0c8.459,-29.242 16.919,-58.484 25.378,-87.726c0.94,-2.507 1.252,-5.43 2.924,-7.728Z" style="fill:#fff;fill-rule:nonzero;"/><path d="M199.344,0.281l56.708,0l0,15.352l-20.887,0l-0,85.011l-14.934,-0l-0,-85.011l-20.887,0l-0,-15.352Z" style="fill:#fff;fill-rule:nonzero;"/><path d="M338.347,0.908c1.462,-0.522 2.924,-0.627 4.491,-0.627l17.858,0c10.026,0.208 19.634,6.371 24.02,15.456c3.029,5.849 3.342,12.741 2.611,19.112c-0.522,6.789 -3.343,13.473 -8.564,17.963c-2.715,2.402 -6.161,3.969 -9.086,6.057c-1.567,1.253 -1.67,3.656 -0.836,5.327c7.938,12.218 16.188,24.229 24.229,36.343l-17.753,-0c-7.729,-11.592 -15.353,-23.288 -23.081,-34.986c-2.297,-3.342 -2.923,-7.729 -1.566,-11.488c1.044,-2.923 3.551,-5.013 6.371,-6.162c5.431,-2.088 10.652,-5.326 13.681,-10.339c2.297,-3.863 2.193,-8.563 1.148,-12.74c-1.148,-5.431 -6.474,-9.713 -12.114,-9.504l-11.592,-0c-1.776,-0 -3.343,1.462 -3.343,3.237l0,81.877l-15.037,0l-0,-88.143c-0,-5.013 3.654,-9.816 8.563,-11.383Z" style="fill:#fff;fill-rule:nonzero;"/><rect x="400.903" y="0.281" width="15.875" height="100.363" style="fill:#fff;fill-rule:nonzero;"/></g><g><path d="M44.735,0.134l7.599,0l0,17.923c0.048,4.97 -0.096,9.941 -0.334,14.959c-0.335,7.169 -0.813,14.386 -1.96,21.507c-0.812,4.875 -2.533,9.607 -4.636,14.099c-3.441,7.217 -8.794,13.335 -14.864,18.496c-5.4,4.78 -11.9,8.221 -18.687,10.61c-3.824,1.339 -7.791,2.342 -11.853,2.916l-0,-15.007c4.875,-0.717 9.511,-2.438 13.86,-4.732c5.162,-2.724 9.75,-6.356 13.669,-10.706c4.015,-4.444 7.217,-9.606 9.654,-15.055c2.868,-6.308 4.398,-13.095 5.449,-19.882c1.29,-8.65 1.864,-17.396 2.055,-26.143c0.048,-3.059 0.048,-6.022 0.048,-8.985Z" style="fill:#fff;fill-rule:nonzero;"/><path d="M55.441,0.134c4.683,-0.048 9.32,0 14.003,0l0,100.414l-14.003,0c-0.048,-10.658 -0,-21.363 -0.048,-32.021c0.048,-22.798 0.048,-45.596 0.048,-68.393Z" style="fill:#fff;fill-rule:nonzero;"/><path d="M72.551,0.134l7.551,0c-0.095,10.228 0.287,20.408 1.482,30.588c1.004,7.886 2.389,15.82 5.544,23.132c2.963,7.121 7.264,13.717 12.856,19.022c5.353,5.066 11.805,8.985 18.831,11.231c1.96,0.622 3.967,1.1 6.022,1.434l-0,15.007c-4.015,-0.525 -7.934,-1.577 -11.757,-2.867c-4.541,-1.578 -8.938,-3.633 -13,-6.261c-2.963,-1.912 -5.64,-4.158 -8.221,-6.548c-4.253,-3.919 -8.029,-8.364 -10.897,-13.43c-2.246,-3.919 -3.871,-8.173 -5.161,-12.474c-1.147,-4.349 -1.673,-8.842 -2.103,-13.334c-0.861,-9.655 -1.195,-19.357 -1.147,-29.059l-0,-16.441Z" style="fill:#fff;fill-rule:nonzero;"/></g></g></g><g><g><path d="M454.116,64.685l1.82,1.429c6.372,4.94 14.042,8.972 22.234,8.972c3.515,-0 9.102,-1.429 9.102,-5.853c-0,-4.421 -4.682,-4.809 -7.93,-5.46l-7.154,-1.299c-13.909,-2.471 -25.611,-10.665 -25.611,-26.009c-0.005,-23.272 21.192,-36.275 42.516,-36.275c11.179,0 21.452,2.73 31.075,8.582l-9.623,25.096c-6.11,-4.157 -13.001,-7.411 -20.672,-7.411c-3.12,0 -7.673,1.168 -7.673,5.199c0,3.642 4.423,4.159 7.15,4.81l8.063,1.824c15.082,3.378 26.006,11.441 26.006,28.085c0,23.404 -21.324,34.979 -42.52,34.979c-12.355,-0 -26.654,-3.38 -37.708,-8.973l10.925,-27.696Z" style="fill:#fff;fill-rule:nonzero;"/><path d="M525.104,1.75l74.896,0l-0,27.505l-19.634,0.055l-0,70.483l-35.627,-0l-0,-70.484l-19.635,-0.054l0,-27.505Z" style="fill:#fff;fill-rule:nonzero;"/></g></g></g></svg>