<?xml version="1.0" encoding="UTF-8" standalone="no"?><!DOCTYPE svg PUBLIC "-//W3C//DTD SVG 1.1//EN" "http://www.w3.org/Graphics/SVG/1.1/DTD/svg11.dtd"><svg width="100%" height="100%" viewBox="0 0 600 661" version="1.1" xmlns="http://www.w3.org/2000/svg" xmlns:xlink="http://www.w3.org/1999/xlink" xml:space="preserve" xmlns:serif="http://www.serif.com/" style="fill-rule:evenodd;clip-rule:evenodd;stroke-linejoin:round;stroke-miterlimit:2;"><g id="atari_tall_alt"><path id="path28" d="M17.178,0.664l565.629,-0c8.802,0.931 16.254,8.391 17.193,17.193l-0,625.782c-0.946,8.788 -8.369,16.211 -17.149,17.172l-565.673,-0c-8.801,-0.939 -16.261,-8.399 -17.178,-17.216l-0,-625.745c0.939,-8.795 8.384,-16.24 17.178,-17.186Zm88.533,445.254c-3.601,4.078 -4.224,9.66 -5.875,14.648c-13.885,47.729 -27.719,95.472 -41.538,143.215c8.538,0.008 17.076,-0.015 25.614,0.015c3.99,-13.834 8.002,-27.653 12.066,-41.457c16.599,0.007 33.191,-0.022 49.79,0.014c3.997,13.812 7.951,27.638 12,41.436c8.582,-0.023 17.171,-0 25.753,-0.008c-14.523,-50.054 -29.135,-100.078 -43.68,-150.125c-1.152,-4.019 -3.403,-7.753 -6.616,-10.459c-7.856,-6.873 -21.11,-5.472 -27.514,2.721Zm286.651,-5.787c-8.017,2.567 -14.025,10.518 -14.076,18.968c0.029,48.227 0,96.455 0.015,144.682c8.252,0.008 16.496,-0.007 24.748,0.008c0.029,-44.795 -0.015,-89.597 0.015,-134.392c-0.037,-2.904 2.662,-5.398 5.53,-5.332c6.338,-0.059 12.682,0.014 19.027,-0.03c9.176,-0.308 17.861,6.705 19.826,15.617c1.68,6.865 1.871,14.604 -1.855,20.875c-4.9,8.347 -13.621,13.65 -22.467,17.024c-4.636,1.797 -8.795,5.282 -10.533,10.042c-2.23,6.205 -1.218,13.408 2.501,18.843c12.653,19.108 25.225,38.282 37.929,57.36c9.704,-0.037 19.408,-0 29.112,-0.015c-13.268,-19.892 -26.779,-39.638 -39.777,-59.699c-1.364,-2.795 -1.232,-6.704 1.408,-8.714c4.812,-3.565 10.409,-5.993 14.905,-9.998c8.508,-7.335 13.152,-18.403 14.01,-29.471c1.247,-10.57 0.741,-21.778 -4.203,-31.416c-7.137,-14.839 -22.878,-25.071 -39.367,-25.372c-9.792,-0.007 -19.584,0.022 -29.377,-0.014c-2.493,-0.059 -5.009,0.22 -7.371,1.034Zm-105.822,6.865c-2.809,3.741 -3.374,8.516 -4.833,12.851c-13.922,47.971 -27.895,95.934 -41.707,143.942c8.531,-0.015 17.054,-0 25.584,-0.008c3.961,-13.819 8.047,-27.609 12.008,-41.428c16.569,-0.044 33.139,-0.007 49.709,-0.014c4.027,13.811 7.98,27.638 11.978,41.45c8.596,-0.037 17.186,0.029 25.782,-0.037c-14.53,-50.01 -29.112,-100.005 -43.643,-150.015c-1.841,-6.763 -7.174,-12.77 -14.142,-14.376c-7.613,-2.003 -16.261,1.144 -20.736,7.635Zm208.57,-7.885l0,164.67c8.677,0.008 17.355,-0.015 26.024,0.008c0.03,-54.895 0.008,-109.783 0.015,-164.678l-26.039,0Zm-330.807,0c-0.007,8.377 0,16.746 0,25.122c11.435,0.008 22.863,-0.014 34.298,0.008c-0.014,46.511 -0.007,93.029 -0.007,139.54l24.565,0c0.015,-46.511 0.007,-93.029 0.007,-139.54c11.428,-0.022 22.856,-0 34.291,-0.008l0,-25.122l-93.154,0Zm-43.437,37.475c6.036,20.758 12.044,41.515 18.08,62.273c-12.058,0 -24.117,0.037 -36.183,-0.022c6.051,-20.743 12.015,-41.515 18.103,-62.251Zm163.584,62.273c5.971,-20.802 12.029,-41.574 18.029,-62.369c5.956,20.802 12.03,41.575 18.008,62.377c-12.015,-0 -24.022,0.007 -36.037,-0.008Zm-11.619,-487.907c0.059,81.778 0.008,163.548 0.03,245.318c0.058,38.281 -0.125,76.57 0.088,114.851c16.716,-0.147 33.44,-0.029 50.156,-0.066c0.007,-120.044 0.007,-240.095 0,-360.147c-16.76,0.03 -33.521,-0.066 -50.274,0.044Zm-38.296,-0.029c-0.029,10.621 0.059,21.242 -0.044,31.863c-0.726,31.35 -2.677,62.721 -7.364,93.741c-3.741,24.403 -9.242,48.77 -19.518,71.332c-8.729,19.629 -20.23,38.106 -34.658,54.066c-13.973,15.463 -30.572,28.577 -49.012,38.326c-15.543,8.163 -32.274,14.339 -49.68,16.958c0.015,17.949 0.015,35.905 0,53.853c14.457,-2.039 28.658,-5.699 42.455,-10.452c24.389,-8.428 47.582,-20.875 67.012,-37.973c21.719,-18.448 41.039,-40.379 53.333,-66.293c7.54,-16.086 13.613,-33.022 16.547,-50.59c4.269,-25.474 5.883,-51.3 7.101,-77.068c0.74,-17.846 1.247,-35.707 1.151,-53.575c-0.014,-21.403 0.022,-42.807 -0.014,-64.21c-9.103,0.022 -18.206,-0.007 -27.309,0.022Zm99.756,-0.007c-0.007,19.672 -0,39.352 -0,59.024c-0.227,34.775 0.953,69.587 4.1,104.23c1.629,16.034 3.418,32.149 7.614,47.743c4.577,15.514 10.423,30.726 18.433,44.802c10.239,18.081 23.875,34.049 39.11,48.096c9.242,8.501 18.865,16.643 29.442,23.442c14.494,9.425 30.272,16.775 46.585,22.452c13.701,4.658 27.777,8.355 42.132,10.306c-0.015,-17.941 -0.008,-35.883 -0,-53.824c-7.306,-1.064 -14.494,-2.831 -21.521,-5.076c-25.188,-8.068 -48.374,-22.093 -67.504,-40.335c-20.032,-19.078 -35.406,-42.741 -46.071,-68.2c-11.252,-26.318 -16.283,-54.77 -19.855,-83.017c-4.365,-36.367 -5.612,-73.035 -5.318,-109.636c-9.044,-0.029 -18.096,-0.015 -27.147,-0.007Z" style="fill:#fff;fill-rule:nonzero;"/></g></svg>