<svg clip-rule="evenodd" fill-rule="evenodd" stroke-linejoin="round" stroke-miterlimit="2" viewBox="0 0 600 220" xmlns="http://www.w3.org/2000/svg"><g fill="#fff"><path d="m410.308 219.017c-.657 0-1.275-.305-1.675-.825-6.382-8.307-58.785-76.522-58.785-76.522s-52.404 68.215-58.785 76.522c-.4.52-1.019.825-1.675.825h-53.757c-.808 0-1.545-.461-1.899-1.188-.353-.726-.261-1.591.237-2.227 14.88-18.98 86.732-110.634 86.732-110.634s-62.796-83.541-76.307-101.516c-.481-.64-.559-1.497-.202-2.213.358-.716 1.09-1.168 1.89-1.168h50.37c.642 0 1.25.292 1.651.795 5.949 7.462 51.745 64.905 51.745 64.905s45.796-57.443 51.745-64.905c.4-.503 1.008-.795 1.651-.795h50.37c.8 0 1.532.452 1.889 1.168.358.716.28 1.573-.201 2.213-13.512 17.975-76.307 101.516-76.307 101.516l62.092 79.204v-64.42h-39.255c-.812 0-1.552-.465-1.903-1.197-.352-.732-.253-1.6.254-2.234 14.827-18.535 84.956-106.195 92.366-115.458.401-.501 1.008-.792 1.649-.792h102.474c1.167 0 2.112.945 2.112 2.112v40.128c0 1.167-.945 2.112-2.112 2.112h-99.265v30.976h97.167c.799 0 1.529.451 1.888 1.166.358.714.282 1.569-.195 2.209-6.962 9.331-26.201 35.12-29.938 40.129-.398.534-1.026.849-1.692.849-8.642 0-67.23 0-67.23 0v55.617h100.481c.813 0 1.554.467 1.905 1.201.351.733.25 1.603-.261 2.237-7.509 9.31-27.934 34.637-31.794 39.424-.401.497-1.005.786-1.644.786zm-42.542-115.221c-.575.764-.564 1.819.026 2.572 8.307 10.597 65.904 84.067 79.91 101.933.451.575 1.218.801 1.909.563.692-.239 1.156-.89 1.156-1.621 0-18.445 0-82.584 0-95.059 0-.56-.223-1.097-.619-1.494-.396-.396-.933-.618-1.493-.618-7.308 0-31.076 0-31.076 0s80.257-100.321 80.257-100.321h91.268v24.992s-84.738 0-99.269 0c-1.165.002-2.108.947-2.108 2.112v46.113c0 1.166.946 2.112 2.112 2.112h89.647s-18.645 24.992-18.645 24.992-59.008 0-71.002 0c-1.166 0-2.112.945-2.112 2.112v70.753c0 1.166.946 2.112 2.112 2.112h92.223s-19.587 24.288-19.587 24.288h-148.438s-52.409-68.222-62.514-81.377c-.4-.52-1.019-.825-1.675-.825s-1.275.305-1.675.825c-10.106 13.155-62.515 81.377-62.515 81.377h-34.477s71.396-91.073 80.723-102.969c.59-.753.6-1.808.026-2.572-8.563-11.393-70.692-94.045-70.692-94.045h31.568s46.052 57.764 55.399 69.488c.402.498 1.008.786 1.648.784.641-.002 1.245-.294 1.644-.795 9.365-11.744 55.392-69.477 55.392-69.477h31.568s-62.128 82.652-70.691 94.045z"/><path d="m5.697.071h187.599c2.919.309 5.391 2.783 5.702 5.702v207.549c-.314 2.915-2.776 5.376-5.688 5.695h-187.613c-2.919-.311-5.393-2.785-5.697-5.709v-207.538c.311-2.916 2.781-5.386 5.697-5.699zm29.364 147.674c-1.195 1.353-1.402 3.204-1.949 4.858-4.605 15.83-9.193 31.665-13.777 47.5 2.832.002 5.664-.005 8.496.004 1.323-4.588 2.654-9.171 4.001-13.749 5.506.002 11.009-.008 16.514.004 1.326 4.581 2.637 9.167 3.98 13.743 2.846-.007 5.695 0 8.541-.002-4.817-16.601-9.663-33.193-14.487-49.791-.382-1.333-1.129-2.572-2.194-3.469-2.606-2.28-7.002-1.815-9.125.902zm95.071-1.919c-2.659.851-4.651 3.488-4.668 6.291.009 15.995 0 31.99.005 47.986 2.736.002 5.471-.003 8.208.002.009-14.857-.005-29.716.004-44.573-.012-.963.884-1.79 1.835-1.768 2.102-.02 4.206.005 6.31-.01 3.044-.102 5.924 2.224 6.576 5.179.557 2.277.62 4.844-.615 6.924-1.626 2.768-4.518 4.527-7.452 5.646-1.537.596-2.917 1.752-3.493 3.331-.74 2.058-.404 4.447.829 6.249 4.197 6.338 8.366 12.697 12.58 19.024 3.218-.012 6.437 0 9.655-.004-4.4-6.598-8.881-13.147-13.192-19.8-.453-.927-.409-2.224.467-2.891 1.596-1.182 3.452-1.987 4.943-3.315 2.822-2.433 4.362-6.104 4.647-9.775.413-3.506.245-7.223-1.394-10.42-2.367-4.921-7.588-8.315-13.057-8.414-3.248-.003-6.495.007-9.743-.005-.827-.02-1.662.073-2.445.343zm-35.097 2.277c-.932 1.24-1.119 2.824-1.603 4.262-4.618 15.91-9.252 31.818-13.833 47.74 2.83-.005 5.656 0 8.486-.002 1.313-4.584 2.668-9.157 3.982-13.741 5.496-.014 10.991-.002 16.487-.004 1.335 4.58 2.647 9.166 3.972 13.747 2.852-.012 5.7.01 8.551-.012-4.819-16.587-9.655-33.168-14.474-49.755-.611-2.243-2.38-4.235-4.691-4.768-2.525-.664-5.393.38-6.877 2.533zm69.175-2.615v54.615c2.878.002 5.756-.005 8.631.002.01-18.207.003-36.411.005-54.617zm-109.717 0c-.002 2.778 0 5.554 0 8.332 3.793.002 7.583-.005 11.376.002-.005 15.426-.003 30.855-.003 46.281h8.148c.005-15.426.002-30.855.002-46.281 3.79-.007 7.581 0 11.373-.002v-8.332zm-14.406 12.428c2.002 6.885 3.994 13.77 5.996 20.654-3.999 0-7.998.013-12-.007 2.007-6.88 3.985-13.769 6.004-20.647zm54.255 20.654c1.98-6.899 3.989-13.788 5.979-20.685 1.976 6.899 3.99 13.789 5.973 20.688-3.985 0-7.968.002-11.952-.003zm-3.854-161.821c.02 27.123.003 54.243.01 81.363.019 12.697-.041 25.396.029 38.092 5.544-.048 11.091-.009 16.635-.022.003-39.814.003-79.631 0-119.447-5.559.01-11.117-.022-16.674.014zm-12.701-.009c-.01 3.522.019 7.045-.015 10.568-.241 10.397-.888 20.802-2.442 31.09-1.241 8.094-3.065 16.175-6.474 23.658-2.895 6.51-6.709 12.638-11.494 17.932-4.635 5.128-10.14 9.478-16.256 12.711-5.155 2.708-10.704 4.756-16.477 5.625.005 5.953.005 11.908 0 17.861 4.795-.676 9.505-1.89 14.081-3.467 8.089-2.795 15.781-6.923 22.225-12.594 7.204-6.118 13.611-13.392 17.689-21.987 2.501-5.335 4.515-10.952 5.488-16.779 1.416-8.449 1.951-17.014 2.355-25.561.246-5.919.413-11.842.382-17.768-.005-7.099.007-14.198-.005-21.297-3.019.008-6.038-.002-9.057.008zm33.085-.003c-.002 6.525 0 13.052 0 19.577-.075 11.533.316 23.079 1.36 34.569.54 5.318 1.134 10.662 2.525 15.834 1.518 5.146 3.457 10.191 6.114 14.86 3.396 5.996 7.918 11.292 12.971 15.951 3.065 2.82 6.257 5.52 9.765 7.775 4.807 3.126 10.04 5.564 15.45 7.447 4.545 1.545 9.213 2.771 13.974 3.418-.005-5.951-.002-11.901 0-17.852-2.423-.352-4.807-.939-7.138-1.683-8.354-2.676-16.044-7.328-22.388-13.378-6.644-6.327-11.743-14.175-15.28-22.619-3.732-8.729-5.401-18.166-6.586-27.534-1.447-12.062-1.861-24.223-1.763-36.362-3-.01-6.002-.005-9.004-.003z" fill-rule="nonzero"/></g></svg>