<svg clip-rule="evenodd" fill-rule="evenodd" stroke-linejoin="round" stroke-miterlimit="2" viewBox="0 0 600 661" xmlns="http://www.w3.org/2000/svg"><path d="m17.178.664h565.629c8.802.931 16.254 8.391 17.193 17.193v625.782c-.946 8.788-8.369 16.211-17.149 17.172h-565.673c-8.801-.939-16.261-8.399-17.178-17.216v-625.745c.939-8.795 8.384-16.24 17.178-17.186zm88.533 445.254c-3.601 4.078-4.224 9.66-5.875 14.648-13.885 47.729-27.719 95.472-41.538 143.215 8.538.008 17.076-.015 25.614.015 3.99-13.834 8.002-27.653 12.066-41.457 16.599.007 33.191-.022 49.79.014 3.997 13.812 7.951 27.638 12 41.436 8.582-.023 17.171 0 25.753-.008-14.523-50.054-29.135-100.078-43.68-150.125-1.152-4.019-3.403-7.753-6.616-10.459-7.856-6.873-21.11-5.472-27.514 2.721zm286.651-5.787c-8.017 2.567-14.025 10.518-14.076 18.968.029 48.227 0 96.455.015 144.682 8.252.008 16.496-.007 24.748.008.029-44.795-.015-89.597.015-134.392-.037-2.904 2.662-5.398 5.53-5.332 6.338-.059 12.682.014 19.027-.03 9.176-.308 17.861 6.705 19.826 15.617 1.68 6.865 1.871 14.604-1.855 20.875-4.9 8.347-13.621 13.65-22.467 17.024-4.636 1.797-8.795 5.282-10.533 10.042-2.23 6.205-1.218 13.408 2.501 18.843 12.653 19.108 25.225 38.282 37.929 57.36 9.704-.037 19.408 0 29.112-.015-13.268-19.892-26.779-39.638-39.777-59.699-1.364-2.795-1.232-6.704 1.408-8.714 4.812-3.565 10.409-5.993 14.905-9.998 8.508-7.335 13.152-18.403 14.01-29.471 1.247-10.57.741-21.778-4.203-31.416-7.137-14.839-22.878-25.071-39.367-25.372-9.792-.007-19.584.022-29.377-.014-2.493-.059-5.009.22-7.371 1.034zm-105.822 6.865c-2.809 3.741-3.374 8.516-4.833 12.851-13.922 47.971-27.895 95.934-41.707 143.942 8.531-.015 17.054 0 25.584-.008 3.961-13.819 8.047-27.609 12.008-41.428 16.569-.044 33.139-.007 49.709-.014 4.027 13.811 7.98 27.638 11.978 41.45 8.596-.037 17.186.029 25.782-.037-14.53-50.01-29.112-100.005-43.643-150.015-1.841-6.763-7.174-12.77-14.142-14.376-7.613-2.003-16.261 1.144-20.736 7.635zm208.57-7.885v164.67c8.677.008 17.355-.015 26.024.008.03-54.895.008-109.783.015-164.678zm-330.807 0c-.007 8.377 0 16.746 0 25.122 11.435.008 22.863-.014 34.298.008-.014 46.511-.007 93.029-.007 139.54h24.565c.015-46.511.007-93.029.007-139.54 11.428-.022 22.856 0 34.291-.008v-25.122zm-43.437 37.475c6.036 20.758 12.044 41.515 18.08 62.273-12.058 0-24.117.037-36.183-.022 6.051-20.743 12.015-41.515 18.103-62.251zm163.584 62.273c5.971-20.802 12.029-41.574 18.029-62.369 5.956 20.802 12.03 41.575 18.008 62.377-12.015 0-24.022.007-36.037-.008zm-11.619-487.907c.059 81.778.008 163.548.03 245.318.058 38.281-.125 76.57.088 114.851 16.716-.147 33.44-.029 50.156-.066.007-120.044.007-240.095 0-360.147-16.76.03-33.521-.066-50.274.044zm-38.296-.029c-.029 10.621.059 21.242-.044 31.863-.726 31.35-2.677 62.721-7.364 93.741-3.741 24.403-9.242 48.77-19.518 71.332-8.729 19.629-20.23 38.106-34.658 54.066-13.973 15.463-30.572 28.577-49.012 38.326-15.543 8.163-32.274 14.339-49.68 16.958.015 17.949.015 35.905 0 53.853 14.457-2.039 28.658-5.699 42.455-10.452 24.389-8.428 47.582-20.875 67.012-37.973 21.719-18.448 41.039-40.379 53.333-66.293 7.54-16.086 13.613-33.022 16.547-50.59 4.269-25.474 5.883-51.3 7.101-77.068.74-17.846 1.247-35.707 1.151-53.575-.014-21.403.022-42.807-.014-64.21-9.103.022-18.206-.007-27.309.022zm99.756-.007c-.007 19.672 0 39.352 0 59.024-.227 34.775.953 69.587 4.1 104.23 1.629 16.034 3.418 32.149 7.614 47.743 4.577 15.514 10.423 30.726 18.433 44.802 10.239 18.081 23.875 34.049 39.11 48.096 9.242 8.501 18.865 16.643 29.442 23.442 14.494 9.425 30.272 16.775 46.585 22.452 13.701 4.658 27.777 8.355 42.132 10.306-.015-17.941-.008-35.883 0-53.824-7.306-1.064-14.494-2.831-21.521-5.076-25.188-8.068-48.374-22.093-67.504-40.335-20.032-19.078-35.406-42.741-46.071-68.2-11.252-26.318-16.283-54.77-19.855-83.017-4.365-36.367-5.612-73.035-5.318-109.636-9.044-.029-18.096-.015-27.147-.007z" fill="#fff" fill-rule="nonzero"/></svg>