<?xml version="1.0" encoding="UTF-8" standalone="no"?><!DOCTYPE svg PUBLIC "-//W3C//DTD SVG 1.1//EN" "http://www.w3.org/Graphics/SVG/1.1/DTD/svg11.dtd"><svg width="100%" height="100%" viewBox="0 0 600 81" version="1.1" xmlns="http://www.w3.org/2000/svg" xmlns:xlink="http://www.w3.org/1999/xlink" xml:space="preserve" xmlns:serif="http://www.serif.com/" style="fill-rule:evenodd;clip-rule:evenodd;stroke-linejoin:round;stroke-miterlimit:2;"><g id="atari_lynx_alt"><rect id="rect5539" x="0.197" y="0.985" width="44.547" height="53.614" style="fill:#fff;"/><rect id="rect5541" x="-0" y="60.907" width="112.746" height="16.754" style="fill:#fff;"/><path id="path5543" d="M71.945,0.986l51.839,-0l36.071,29.566l-28.186,19.119l-59.724,-48.685Z" style="fill:#fff;"/><path id="path5545" d="M137.779,54.008l82.392,-53.22l38.83,0l-80.026,52.037l0,24.836l-41.196,-0l0,-23.653Z" style="fill:#fff;"/><path id="path5547" d="M270.237,0.591l114.126,77.661l24.638,0l0,-77.858l-22.273,0l-0,53.614l-80.421,-53.417l-36.07,0Z" style="fill:#fff;"/><path id="path5549" d="M264.52,8.476l44.153,27.989l-0,41.196l-44.35,-0l0.197,-69.185Z" style="fill:#fff;"/><path id="path5551" d="M420.828,0.197l81.012,40.21l14.586,-6.504l24.244,11.432l34.691,0l-87.713,-45.335l-66.82,0.197Z" style="fill:#fff;"/><path id="path5553" d="M523.325,13.206l21.879,8.673l54.796,-20.302l-57.162,-0l-19.513,11.629Z" style="fill:#fff;"/><path id="path5551-7" d="M596.183,80.026l-81.012,-40.21l-14.586,6.505l-24.244,-11.433l-34.691,0l87.713,45.335l66.82,-0.197Z" style="fill:#fff;"/><path id="path5553-8" d="M493.243,68.151l-21.436,-10.201l-54.796,20.302l57.162,0l19.07,-10.101Z" style="fill:#fff;"/></g></svg>