<?xml version="1.0" encoding="UTF-8" standalone="no"?><!DOCTYPE svg PUBLIC "-//W3C//DTD SVG 1.1//EN" "http://www.w3.org/Graphics/SVG/1.1/DTD/svg11.dtd"><svg width="100%" height="100%" viewBox="0 0 600 210" version="1.1" xmlns="http://www.w3.org/2000/svg" xmlns:xlink="http://www.w3.org/1999/xlink" xml:space="preserve" xmlns:serif="http://www.serif.com/" style="fill-rule:evenodd;clip-rule:evenodd;stroke-linejoin:round;stroke-miterlimit:2;"><g id="atari_vcs_alt2"><path id="path28" d="M5.435,0.256l178.954,-0c2.785,0.294 5.143,2.655 5.44,5.439l-0,197.986c-0.3,2.78 -2.648,5.129 -5.426,5.433l-178.968,-0c-2.785,-0.297 -5.145,-2.657 -5.435,-5.447l-0,-197.974c0.297,-2.782 2.652,-5.138 5.435,-5.437Zm28.01,140.87c-1.139,1.29 -1.337,3.056 -1.859,4.634c-4.393,15.101 -8.769,30.206 -13.142,45.311c2.702,0.002 5.403,-0.005 8.104,0.004c1.263,-4.376 2.532,-8.748 3.818,-13.116c5.251,0.002 10.501,-0.007 15.752,0.005c1.265,4.37 2.516,8.744 3.797,13.109c2.715,-0.007 5.432,0 8.148,-0.002c-4.595,-15.836 -9.218,-31.663 -13.82,-47.497c-0.364,-1.272 -1.077,-2.453 -2.093,-3.309c-2.486,-2.175 -6.679,-1.731 -8.705,0.861Zm90.691,-1.831c-2.537,0.812 -4.437,3.328 -4.453,6.001c0.009,15.258 -0,30.517 0.004,45.775c2.611,0.002 5.219,-0.003 7.83,0.002c0.009,-14.172 -0.005,-28.347 0.005,-42.519c-0.012,-0.919 0.842,-1.708 1.75,-1.687c2.005,-0.018 4.012,0.005 6.019,-0.009c2.903,-0.098 5.651,2.121 6.273,4.94c0.531,2.173 0.592,4.621 -0.587,6.605c-1.55,2.641 -4.31,4.319 -7.108,5.386c-1.467,0.569 -2.783,1.671 -3.333,3.177c-0.705,1.963 -0.385,4.242 0.792,5.962c4.003,6.045 7.98,12.111 12,18.147c3.07,-0.011 6.14,0 9.21,-0.004c-4.198,-6.294 -8.472,-12.541 -12.585,-18.888c-0.431,-0.884 -0.389,-2.121 0.446,-2.757c1.522,-1.128 3.293,-1.896 4.716,-3.163c2.692,-2.321 4.16,-5.822 4.432,-9.324c0.395,-3.344 0.234,-6.89 -1.33,-9.94c-2.258,-4.694 -7.238,-7.932 -12.455,-8.027c-3.098,-0.002 -6.196,0.007 -9.294,-0.004c-0.789,-0.019 -1.585,0.069 -2.332,0.327Zm-33.48,2.172c-0.889,1.183 -1.068,2.694 -1.529,4.066c-4.405,15.177 -8.826,30.351 -13.196,45.54c2.699,-0.005 5.396,0 8.095,-0.002c1.253,-4.372 2.546,-8.735 3.799,-13.107c5.242,-0.014 10.484,-0.003 15.727,-0.005c1.274,4.37 2.525,8.744 3.789,13.114c2.72,-0.012 5.438,0.009 8.157,-0.012c-4.597,-15.822 -9.21,-31.639 -13.807,-47.461c-0.583,-2.14 -2.27,-4.041 -4.475,-4.549c-2.408,-0.633 -5.144,0.362 -6.56,2.416Zm65.988,-2.495l-0,52.099c2.745,0.002 5.49,-0.005 8.233,0.002c0.009,-17.368 0.002,-34.733 0.005,-52.101l-8.238,0Zm-104.662,0c-0.002,2.65 0,5.298 0,7.948c3.618,0.003 7.234,-0.004 10.852,0.003c-0.005,14.715 -0.003,29.433 -0.003,44.148l7.772,-0c0.005,-14.715 0.003,-29.433 0.003,-44.148c3.615,-0.007 7.231,-0 10.849,-0.003l-0,-7.948l-29.473,0Zm-13.742,11.856c1.909,6.568 3.81,13.135 5.72,19.703c-3.815,-0 -7.63,0.011 -11.448,-0.007c1.915,-6.563 3.801,-13.135 5.728,-19.696Zm51.755,19.703c1.889,-6.582 3.805,-13.154 5.704,-19.733c1.884,6.582 3.806,13.154 5.697,19.735c-3.801,0 -7.6,0.002 -11.401,-0.002Zm-3.676,-154.365c0.018,25.873 0.002,51.743 0.009,77.614c0.019,12.111 -0.039,24.225 0.028,36.337c5.289,-0.047 10.58,-0.01 15.868,-0.021c0.003,-37.98 0.003,-75.962 0,-113.944c-5.302,0.009 -10.605,-0.021 -15.905,0.014Zm-12.116,-0.009c-0.01,3.36 0.018,6.72 -0.014,10.081c-0.23,9.918 -0.847,19.844 -2.33,29.658c-1.184,7.72 -2.924,15.429 -6.175,22.568c-2.762,6.21 -6.401,12.056 -10.966,17.105c-4.42,4.892 -9.672,9.041 -15.506,12.126c-4.918,2.582 -10.211,4.536 -15.718,5.365c0.005,5.679 0.005,11.36 0,17.038c4.574,-0.645 9.067,-1.803 13.432,-3.307c7.716,-2.666 15.054,-6.604 21.202,-12.014c6.871,-5.836 12.984,-12.775 16.873,-20.974c2.386,-5.089 4.307,-10.447 5.235,-16.005c1.351,-8.06 1.861,-16.231 2.247,-24.383c0.234,-5.646 0.394,-11.297 0.364,-16.95c-0.005,-6.772 0.007,-13.544 -0.005,-20.315c-2.88,0.007 -5.759,-0.002 -8.639,0.007Zm31.56,-0.003c-0.002,6.224 0,12.451 0,18.675c-0.072,11.002 0.302,22.016 1.298,32.976c0.515,5.073 1.081,10.171 2.408,15.105c1.449,4.908 3.298,9.721 5.832,14.175c3.24,5.72 7.554,10.772 12.374,15.216c2.924,2.69 5.969,5.266 9.315,7.417c4.586,2.982 9.577,5.307 14.738,7.103c4.335,1.474 8.789,2.644 13.33,3.261c-0.004,-5.676 -0.002,-11.353 0,-17.029c-2.311,-0.337 -4.585,-0.896 -6.809,-1.606c-7.969,-2.553 -15.304,-6.99 -21.356,-12.761c-6.338,-6.036 -11.202,-13.523 -14.576,-21.577c-3.56,-8.327 -5.152,-17.329 -6.282,-26.266c-1.381,-11.505 -1.776,-23.106 -1.683,-34.686c-2.861,-0.009 -5.725,-0.005 -8.589,-0.003Z" style="fill:#fff;fill-rule:nonzero;"/><g><path d="M474.717,192.811l-22.964,-0c-48.609,-0 -88.156,-39.547 -88.156,-88.157c0,-48.609 39.547,-88.156 88.156,-88.156l22.964,0l-0,7.523l-22.964,-0c-44.463,-0 -80.633,36.171 -80.633,80.633c-0,44.462 36.171,80.634 80.633,80.634l22.964,0l-0,7.523Z" style="fill:#fff;fill-rule:nonzero;"/><path d="M474.717,178.661l-22.964,0c-40.805,0 -74.007,-33.199 -74.007,-74.006c0,-40.808 33.199,-74.008 74.007,-74.008l22.964,0l-0,7.525l-22.964,0c-36.659,0 -66.484,29.825 -66.484,66.484c-0,36.66 29.825,66.485 66.484,66.485l22.964,-0l-0,7.523l-0,-0.003Z" style="fill:#fff;fill-rule:nonzero;"/><path d="M451.743,164.643c-32.813,-0.036 -59.793,-27.045 -59.793,-59.858c0,-32.688 26.777,-59.641 59.465,-59.855l23.28,-0.133l0.044,7.523l-23.28,0.132c-28.637,0.106 -52.141,23.698 -52.141,52.334c0,28.71 23.625,52.334 52.334,52.334c0.031,0 0.062,0 0.093,-0l0.304,-0l22.648,-0.128l0.044,7.523l-22.648,0.128l-0.35,-0Z" style="fill:#fff;fill-rule:nonzero;"/><path d="M474.717,150.365l-22.964,0c-25.075,0 -45.709,-20.634 -45.709,-45.709c0,-25.075 20.634,-45.708 45.709,-45.708l22.964,-0l-0,7.522l-22.964,0c-20.899,0.071 -38.056,17.287 -38.056,38.186c-0,20.899 17.157,38.115 38.056,38.186l22.964,0l-0,7.523Z" style="fill:#fff;fill-rule:nonzero;"/><path d="M540.16,150.522l-46.748,0l-0,-7.523l46.75,0c0,0 0,0 0,0c1.869,0 3.407,-1.537 3.407,-3.406c-0,-0.877 -0.339,-1.72 -0.944,-2.354l-30.441,-31.841c-14.791,-15.472 -18.753,-37.309 -10.34,-56.991c8.413,-19.682 26.935,-31.909 48.341,-31.909l46.032,0l-0,7.523l-46.035,-0c-18.342,-0 -34.214,10.477 -41.422,27.342c-7.209,16.866 -3.814,35.579 8.86,48.836l30.441,31.841c1.945,2.033 3.031,4.741 3.031,7.554c-0,5.995 -4.933,10.928 -10.929,10.928c-0.001,0 -0.002,0 -0.003,0Z" style="fill:#fff;fill-rule:nonzero;"/><path d="M542.805,164.618l-49.393,0l-0,-7.522l49.395,-0c0,-0 0.001,-0 0.001,-0c9.404,-0 17.142,-7.738 17.142,-17.142c0,-4.37 -1.671,-8.578 -4.668,-11.758l-31.92,-33.869c-10.516,-11.158 -13.273,-26.837 -7.196,-40.911c6.077,-14.075 19.373,-22.823 34.708,-22.823l45.341,-0l0,7.524l-45.341,0c-16.612,0 -30.281,13.67 -30.281,30.282c-0,7.718 2.951,15.152 8.244,20.768l31.92,33.87c4.311,4.575 6.715,10.63 6.715,16.916c-0,13.531 -11.135,24.665 -24.665,24.665c-0.001,0 -0.002,0 -0.002,0Z" style="fill:#fff;fill-rule:nonzero;"/><path d="M544.972,178.714l-51.56,0l-0,-7.522l51.563,-0c16.936,-0.001 30.873,-13.937 30.873,-30.874c-0,-7.912 -3.042,-15.53 -8.493,-21.266l-31.917,-33.591c-4.262,-4.485 -6.641,-10.442 -6.641,-16.629c0,-13.244 10.898,-24.142 24.142,-24.142c0,-0 0,-0 0.001,-0l43.276,-0l-0,7.523l-43.276,-0c-8.075,-0 -13.184,5.2 -15.272,10.064c-2.088,4.864 -2.338,12.149 3.224,18.003l31.917,33.591c10.752,11.314 13.605,27.251 7.447,41.593c-6.157,14.342 -19.677,23.25 -35.284,23.25Z" style="fill:#fff;fill-rule:nonzero;"/><path d="M547.853,192.811l-54.441,-0l-0,-7.523l54.444,0c18.105,0 33.78,-10.339 40.908,-26.982c7.128,-16.643 3.796,-35.123 -8.698,-48.228l-31.287,-32.821c-1.937,-2.032 -3.019,-4.735 -3.019,-7.542c-0,-5.995 4.933,-10.929 10.928,-10.929c0.001,0 0.001,0 0.002,0l39.528,0l-0,7.523l-39.528,-0c-0,-0 -0,-0 -0,-0c-1.869,-0 -3.407,1.538 -3.407,3.406c0,0.875 0.338,1.718 0.942,2.351l31.287,32.821c14.604,15.32 18.5,36.924 10.168,56.38c-8.333,19.457 -26.661,31.544 -47.827,31.544Z" style="fill:#fff;fill-rule:nonzero;"/><path d="M286.481,192.892l-7.789,-0.041l52.128,-176.364l7.496,-0.01l-51.835,176.415Z" style="fill:#fff;fill-rule:nonzero;"/><path d="M301.281,192.892l-7.789,-0.041l52.128,-176.364l7.496,-0.01l-51.835,176.415Z" style="fill:#fff;fill-rule:nonzero;"/><path d="M316.273,192.892l-7.789,-0.041l52.128,-176.364l7.496,-0.01l-51.835,176.415Z" style="fill:#fff;fill-rule:nonzero;"/><path d="M282.98,103.097l-25.518,-86.61l7.74,0.001l21.697,73.315l-3.919,13.294Z" style="fill:#fff;fill-rule:nonzero;"/><path d="M275.42,128.745l-33.077,-112.258l7.74,0.001l29.258,98.956l-3.921,13.301Z" style="fill:#fff;fill-rule:nonzero;"/><path d="M267.892,154.283l-40.605,-137.796l7.74,0.001l36.786,124.492l-3.921,13.303Z" style="fill:#fff;fill-rule:nonzero;"/><path d="M264.475,192.893l-52.051,-176.405l7.739,-0.001l47.917,162.044l47.941,-162.044l7.495,-0.01l-51.826,176.414l-7.215,0.002Z" style="fill:#fff;fill-rule:nonzero;"/></g></g></svg>