<svg clip-rule="evenodd" fill-rule="evenodd" stroke-linejoin="round" stroke-miterlimit="2" viewBox="0 0 600 159" xmlns="http://www.w3.org/2000/svg"><g fill="#fff"><g fill-rule="nonzero"><path d="m105.173 14.643c-2.287 7.686-4.447 15.371-6.734 23.057h13.403c-2.223-7.686-4.446-15.371-6.669-23.057zm-5.59-11.37c2.35-3.049 7.304-3.557 10.163-1.016 1.207 1.016 2.033 2.414 2.477 3.875 5.4 18.547 10.798 37.094 16.197 55.642h-9.527c-1.525-5.082-2.986-10.226-4.447-15.372h-18.42c-1.525 5.146-2.986 10.227-4.447 15.372h-9.464c5.145-17.722 10.227-35.38 15.372-53.038.508-1.906.762-3.938 2.096-5.463z"/><path d="m165.769 37.7h13.339c-2.223-7.686-4.446-15.434-6.669-23.12-2.224 7.749-4.447 15.434-6.67 23.12zm.762-34.046c1.652-2.414 4.891-3.557 7.686-2.858 2.604.572 4.573 2.795 5.209 5.336 5.399 18.547 10.798 37.031 16.197 55.578h-9.528c-1.461-5.145-2.922-10.226-4.446-15.371h-18.42c-1.461 5.145-2.986 10.226-4.447 15.371h-9.464c5.145-17.785 10.29-35.57 15.435-53.355.572-1.525.762-3.303 1.778-4.701z"/><path d="m121.243.733h34.491v9.337h-12.704v51.704h-9.083v-51.704h-12.704v-9.337z"/><path d="m205.786 1.114c.889-.318 1.779-.381 2.732-.381h10.861c6.098.126 11.942 3.874 14.61 9.4 1.841 3.557 2.032 7.749 1.587 11.624-.317 4.129-2.033 8.194-5.208 10.925-1.652 1.461-3.748 2.414-5.527 3.684-.952.762-1.015 2.224-.508 3.24 4.828 7.431 9.846 14.736 14.737 22.104h-10.798c-4.701-7.05-9.338-14.164-14.038-21.278-1.397-2.033-1.778-4.701-.953-6.987.635-1.779 2.16-3.05 3.875-3.748 3.303-1.27 6.479-3.24 8.321-6.288 1.397-2.35 1.334-5.209.698-7.75-.698-3.302-3.938-5.907-7.367-5.78h-7.051c-1.08 0-2.033.89-2.033 1.969v49.799h-9.146v-53.61c0-3.049 2.223-5.97 5.208-6.923z"/><path d="m243.833.733h9.655v61.042h-9.655z"/><path d="m27.208.643h4.622v10.901c.029 3.023-.058 6.046-.203 9.098-.204 4.36-.494 8.75-1.192 13.081-.494 2.965-1.541 5.843-2.82 8.575-2.093 4.39-5.348 8.11-9.04 11.25-3.285 2.907-7.238 4.999-11.366 6.453-2.325.814-4.738 1.424-7.209 1.773v-9.127c2.965-.436 5.785-1.483 8.43-2.878 3.139-1.657 5.93-3.866 8.314-6.512 2.441-2.703 4.389-5.842 5.871-9.156 1.744-3.837 2.675-7.965 3.314-12.093.785-5.261 1.134-10.58 1.25-15.9.029-1.86.029-3.663.029-5.465z"/><path d="m33.72.643c2.848-.029 5.668 0 8.517 0v61.073h-8.517c-.03-6.482 0-12.994-.03-19.476.03-13.866.03-27.731.03-41.597z"/><path d="m44.126.643h4.593c-.058 6.221.174 12.412.901 18.604.611 4.796 1.453 9.622 3.372 14.069 1.802 4.331 4.418 8.343 7.82 11.569 3.255 3.082 7.179 5.465 11.453 6.831 1.191.378 2.412.669 3.662.872v9.128c-2.442-.32-4.825-.959-7.151-1.744-2.761-.959-5.435-2.209-7.906-3.808-1.803-1.163-3.43-2.529-5-3.983-2.587-2.383-4.884-5.086-6.628-8.168-1.366-2.383-2.354-4.97-3.139-7.587-.698-2.645-1.017-5.377-1.279-8.11-.524-5.872-.727-11.773-.698-17.673v-10z"/></g><path d="m4.604 80.091h44.219v53.22h-44.219z"/><path d="m4.408 139.572h111.918v16.631h-111.918z"/><path d="m75.824 80.091h51.459l35.806 29.349-27.98 18.979z"/><path d="m141.175 132.724 81.786-52.829h38.545l-79.438 51.655v24.653h-40.893z"/><path d="m272.659 79.7 113.288 77.09h24.457v-77.286h-22.109v53.22l-79.83-53.024z"/><path d="m266.985 87.526 43.828 27.784v40.893h-44.024z"/><path d="m422.144 79.309 80.417 39.914 14.479-6.456 24.066 11.348h34.436l-87.069-45.002z"/><path d="m523.888 92.222 21.718 8.609 54.394-20.153h-56.742z"/><path d="m596.211 158.551-80.416-39.914-14.479 6.456-24.067-11.348h-34.436l87.069 45.002z"/><path d="m494.027 146.763-21.278-10.126-54.394 20.153h56.742z"/></g></svg>