<?xml version="1.0" encoding="UTF-8" standalone="no"?><!DOCTYPE svg PUBLIC "-//W3C//DTD SVG 1.1//EN" "http://www.w3.org/Graphics/SVG/1.1/DTD/svg11.dtd"><svg width="100%" height="100%" viewBox="0 0 600 188" version="1.1" xmlns="http://www.w3.org/2000/svg" xmlns:xlink="http://www.w3.org/1999/xlink" xml:space="preserve" xmlns:serif="http://www.serif.com/" style="fill-rule:evenodd;clip-rule:evenodd;stroke-linejoin:round;stroke-miterlimit:2;"><g id="bally_astrocade_outline"><path id="text2559" d="M72.613,67.915l0.307,1.565c0.486,2.479 0.137,5.02 -1.046,7.623c-0.986,2.225 -2.598,4.37 -4.836,6.434c-1.714,1.624 -3.581,2.989 -5.599,4.096c-2.02,1.107 -3.811,1.814 -5.376,2.12c-2.806,0.55 -5.029,0.613 -6.671,0.19c-1.642,-0.424 -2.846,-1.119 -3.611,-2.086c-0.765,-0.968 -1.257,-2.006 -1.474,-3.115c-0.282,-1.436 -0.022,-2.791 0.779,-4.065c0.8,-1.274 1.904,-1.948 3.312,-2.022c1.2,-0.1 2.19,0.197 2.971,0.891c0.78,0.695 1.356,1.649 1.728,2.862c0.281,1.436 0.265,2.557 -0.05,3.365c3.839,-1.498 6.885,-3.756 9.139,-6.771c2.254,-3.016 3.054,-6.187 2.402,-9.514l-0.115,-0.589c-0.384,-1.957 -1.602,-3.852 -3.654,-5.684c-2.288,-1.991 -4.582,-4.015 -6.88,-6.07c-0.461,-2.349 1.61,-5.092 6.211,-8.229c7.047,-4.838 11.27,-8.003 12.671,-9.496c4.333,-4.508 5.943,-9.6 4.83,-15.277c-1.56,-7.958 -7.853,-10.856 -18.879,-8.695c-5.218,1.023 -10.19,3.047 -14.915,6.073c-4.726,3.025 -9.368,7.255 -13.926,12.689c-3.68,4.378 -7.082,9.313 -10.206,14.803c-3.124,5.491 -5.668,11.003 -7.632,16.535c-1.964,5.533 -3.124,10.504 -3.48,14.911c-0.182,2.88 -0.062,5.397 0.36,7.549c0.499,2.544 1.194,4.711 2.087,6.5c2.137,3.985 5.26,5.575 9.37,4.769c1.957,-0.383 3.694,-1.283 5.213,-2.698c1.518,-1.415 2.888,-3.326 4.109,-5.734c1.986,-4.047 3.682,-9.222 5.088,-15.527l3.323,-15.183l1.052,-3.968c2.152,-6.992 3.755,-11.777 4.809,-14.355c2.566,-6.261 5.184,-10.534 7.852,-12.818c1.451,-1.234 2.951,-2.307 4.499,-3.221c1.549,-0.913 2.943,-1.491 4.184,-1.734c1.174,-0.231 1.858,-0.026 2.052,0.614c0.166,0.51 -0.961,1.848 -3.381,4.016c-1.661,1.545 -3.109,3.489 -4.343,5.831c-2.168,4.151 -4.637,12.121 -7.408,23.911l-1.173,4.904l-2.366,10.22c-0.808,3.137 -1.324,5.168 -1.55,6.093c-0.977,3.31 -2.188,6.46 -3.634,9.452c-0.895,2.005 -1.958,3.839 -3.188,5.503c-1.928,2.615 -3.983,4.661 -6.166,6.138c-2.183,1.477 -4.514,2.458 -6.993,2.944c-3.59,0.704 -7.096,0.358 -10.519,-1.036c-3.423,-1.395 -6.212,-3.609 -8.365,-6.644c-1.582,-2.195 -2.635,-4.631 -3.16,-7.307c-0.115,-0.586 -0.209,-1.414 -0.282,-2.485l-0.083,-4.046c0.061,-2.452 0.27,-4.932 0.626,-7.44c0.356,-2.508 0.871,-4.98 1.545,-7.415c3.664,-13.795 11.273,-26.126 22.828,-36.994c10.927,-10.271 22.295,-16.564 34.103,-18.878c8.09,-1.586 14.673,-1.352 19.75,0.702c5.077,2.053 8.197,6.048 9.361,11.985c1.432,7.307 -1.024,13.615 -7.369,18.923c-7.2,4.054 -14.399,8.107 -21.598,12.16l0.348,0.744c3.424,1.225 6.283,2.68 8.579,4.365c2.295,1.685 3.775,4.223 4.44,7.616Zm116.063,-22.749l-4.108,15.335l-6.013,22.722c-0.622,2.359 -1.24,4.039 -1.856,5.041c-0.763,1.301 -1.665,2.053 -2.708,2.258c-0.459,0.09 -0.941,0.049 -1.448,-0.123c-1.458,-0.528 -2.315,-1.445 -2.57,-2.749c-0.205,-1.043 -0.083,-2.32 0.366,-3.83l6.694,-21.842l1.129,-3.574c-0.997,1.483 -2.255,2.847 -3.772,4.092c-2.105,1.7 -4.038,2.723 -5.8,3.068c-1.828,0.359 -3.385,0.02 -4.671,-1.016c-0.961,-0.759 -1.875,-1.968 -2.742,-3.628c-0.79,1.509 -1.931,3.121 -3.422,4.836c-1.231,1.327 -2.52,2.444 -3.866,3.35c-1.347,0.908 -2.706,1.495 -4.076,1.764c-2.674,0.524 -5.148,-0.177 -7.423,-2.102c-0.728,-0.602 -1.495,-1.4 -2.299,-2.394c-0.301,0.533 -0.659,1.128 -1.072,1.784c-0.414,0.657 -0.85,1.2 -1.308,1.629c-1.557,1.728 -3.336,3.279 -5.336,4.654c-2.001,1.375 -3.881,2.236 -5.641,2.58c-1.762,0.346 -3.382,0.206 -4.86,-0.419c-1.478,-0.626 -2.859,-1.626 -4.144,-3.001l-1.305,-1.472l-1.535,2.029c-3.183,4.147 -6.668,6.591 -10.452,7.333c-1.761,0.345 -3.383,0.189 -4.866,-0.468c-1.485,-0.657 -2.837,-1.68 -4.058,-3.068l-1.226,-1.586l-1.417,2.104c-1.284,1.743 -2.582,3.064 -3.896,3.966c-1.314,0.902 -2.851,1.525 -4.611,1.87c-3.068,0.601 -5.419,-0.327 -7.052,-2.786c-1.115,-1.543 -1.903,-3.488 -2.363,-5.835c-0.422,-2.155 -0.287,-4.925 0.406,-8.311c0.674,-2.774 1.616,-5.482 2.826,-8.125c1.211,-2.643 2.752,-5.231 4.625,-7.765c2.306,-3.094 4.862,-5.696 7.667,-7.804c2.804,-2.109 5.871,-3.489 9.2,-4.142c4.044,-0.792 6.386,0.443 7.025,3.706c0.374,1.213 0.076,2.457 -0.893,3.732c-0.539,0.714 -1.226,1.186 -2.061,1.418c-1.109,0.218 -1.992,0.289 -2.649,0.216c-0.658,-0.074 -1.218,-0.252 -1.68,-0.535c-0.463,-0.282 -0.824,-0.737 -1.082,-1.363c-0.258,-0.627 -0.508,-0.95 -0.748,-0.971c-0.241,-0.021 -0.525,0 -0.851,0.064c-1.565,0.307 -3.37,1.644 -5.414,4.01c-1.767,2.04 -3.343,4.449 -4.73,7.227c-1.386,2.779 -2.385,5.634 -2.996,8.564c-0.612,2.931 -0.687,5.571 -0.227,7.92c0.205,1.043 0.531,1.928 0.978,2.654c0.447,0.726 1.258,0.973 2.433,0.743c1.435,-0.281 2.992,-1.84 4.671,-4.677c1.326,-2.224 2.681,-5.165 4.064,-8.823c0.671,-1.758 1.346,-3.669 2.026,-5.734c0.679,-2.064 1.204,-3.708 1.574,-4.932c0.237,-0.52 1.399,-0.985 3.486,-1.394c1.306,-0.256 2.405,-0.353 3.297,-0.291c0.892,0.062 1.318,0.335 1.278,0.818l-2.17,9.673c-0.505,2.266 -0.817,3.784 -0.937,4.553c-0.239,1.199 -0.453,2.697 -0.642,4.496c-0.029,0.547 -0.024,0.918 0.014,1.114c0.128,0.653 0.498,1.072 1.11,1.257c0.612,0.185 1.375,0.188 2.289,0.008c0.979,-0.192 2.363,-1.259 4.15,-3.201c1.787,-1.942 2.871,-3.324 3.252,-4.145c-0.192,-0.977 -0.374,-1.907 -0.547,-2.788c-0.173,-0.881 -0.295,-1.856 -0.368,-2.925c-0.448,-2.283 -0.619,-4.536 -0.513,-6.759c0.106,-2.223 0.38,-4.8 0.82,-7.731c0.266,-1.408 0.545,-2.835 0.839,-4.281c0.293,-1.446 0.625,-2.95 0.995,-4.513c2.184,-8.558 5.272,-16.31 9.263,-23.258c4.396,-7.636 8.551,-11.838 12.468,-12.606c1.891,-0.371 3.35,-0.098 4.376,0.818c1.026,0.917 1.731,2.353 2.115,4.311c0.652,3.327 0.413,7.811 -0.715,13.453c-0.826,4.09 -2.089,8.538 -3.789,13.343c-0.474,1.381 -0.948,2.677 -1.422,3.887c-0.474,1.21 -1.08,2.701 -1.818,4.473c-1.21,2.811 -2.498,5.485 -3.864,8.022c-1.366,2.537 -3.018,5.249 -4.958,8.137l-4.327,5.928c0.319,1.631 1.132,3.013 2.439,4.146c1.306,1.133 2.938,1.508 4.895,1.124c1.304,-0.255 2.84,-1.234 4.607,-2.937c1.426,-1.363 2.578,-2.74 3.457,-4.132l-0.502,-6.201c-0.191,-4.773 0.368,-9.693 1.679,-14.758l1.268,-4.417c1.942,-6.343 4.782,-12.422 8.52,-18.235c3.738,-5.813 6.846,-8.963 9.325,-9.449c1.632,-0.32 2.881,-0.09 3.745,0.69c0.864,0.779 1.475,2.082 1.833,3.908c0.549,2.805 0.418,6.371 -0.394,10.697c-0.812,4.326 -1.996,8.573 -3.55,12.739c-1.133,2.862 -2.33,5.57 -3.591,8.122c-1.615,3.161 -3.229,5.815 -4.84,7.961c-1.286,1.74 -2.786,3.423 -4.5,5.046c-0.015,0.274 0.029,0.672 0.131,1.193c0.243,1.241 0.79,2.218 1.642,2.932c0.851,0.714 2.157,0.898 3.919,0.553c1.567,-0.307 3.052,-1.377 4.454,-3.21c1.402,-1.833 2.651,-4.618 3.746,-8.355l0.358,-1.292c0.661,-2.501 1.42,-5.02 2.277,-7.558c0.687,-2.032 1.478,-4.22 2.374,-6.562l2.725,-7.344c0.093,-0.221 0.561,-0.516 1.404,-0.885c0.842,-0.369 1.655,-0.63 2.437,-0.783c1.24,-0.243 2.241,-0.32 3.003,-0.232c0.762,0.089 1.069,0.451 0.923,1.087c-0.025,0.21 -0.163,0.712 -0.415,1.505c-0.461,1.447 -1.015,3.114 -1.662,5.003c-0.831,2.329 -1.662,4.829 -2.493,7.5c-1.003,3.176 -1.742,5.794 -2.219,7.853c-0.795,3.203 -1.045,5.556 -0.751,7.057c0.243,1.238 0.886,1.755 1.929,1.551c1.565,-0.307 2.95,-1.188 4.156,-2.643c1.205,-1.455 2.591,-4.063 4.157,-7.825c1.106,-2.656 2.084,-5.271 2.935,-7.843c0.849,-2.572 1.638,-5.114 2.366,-7.626l1.629,-6.215c0.183,-0.443 0.657,-0.79 1.421,-1.041c0.763,-0.251 1.601,-0.466 2.515,-0.645c1.304,-0.256 2.37,-0.346 3.199,-0.272c0.828,0.075 1.156,0.366 0.985,0.875l-1.527,5.687l-4.128,15.238Zm-57.051,-9.549c1.778,-5.091 3.357,-10.346 4.734,-15.764c1.562,-6.2 2.157,-10.246 1.786,-12.138c-0.154,-0.784 -0.491,-1.125 -1.013,-1.023c-1.173,0.23 -2.986,2.466 -5.441,6.707c-2.455,4.242 -4.283,8.31 -5.485,12.204c-1.202,3.894 -2.028,6.766 -2.478,8.616c-0.795,3.203 -1.419,6.408 -1.874,9.615c-0.565,4.039 -0.718,8.269 -0.459,12.69c3.212,-5.033 5.747,-9.73 7.603,-14.09l2.627,-6.817Zm23.866,-2.138c0.939,-3.165 1.76,-6.239 2.463,-9.222c0.875,-3.829 1.19,-6.363 0.947,-7.604c-0.192,-0.979 -0.646,-1.399 -1.363,-1.258c-1.045,0.205 -2.52,2.188 -4.425,5.95c-1.655,3.306 -3.201,6.996 -4.637,11.071l-1.766,6.546c-0.518,2.2 -0.865,4.232 -1.041,6.096c-0.176,1.864 -0.225,4.211 -0.146,7.041c2.032,-2.431 3.763,-4.837 5.193,-7.217c1.43,-2.381 2.606,-4.847 3.529,-7.397l1.246,-4.006Z" style="fill:#fff;fill-rule:nonzero;"/><g><path d="M450.462,187.657l7.644,-0.066l0.348,-1.252l0.049,-21.106l-1.127,-0.233l-9.511,-0.117l-0.38,-0.235l-0,-3.422l-0.793,-0.304l-3.464,-0l-0,-4.157l-0.601,-0.601l-4.163,-0l0.131,-20.66l4.507,-0.25l0.129,-3.256l0.257,-1.126l3.974,-0l0.272,-1.628l0.126,-2.504l10.142,-0.136l-0,3.475l0.304,0.793l3.693,-0l0.334,1.332l-0.367,54.784l0.605,0.728l19.91,-0l0.565,-0.68l-0.128,-64.804l-4.257,-0.25l-0.144,-4.382l-3.676,-0l-0.539,-0.65l-0.148,-3.983l-3.756,-0.251l-0.147,-3.359l-3.859,-0.146l-0.251,-2.504l-4.714,-0.251l-0.561,-2.003l-18.108,-0.132l-0.421,2.135l-4.869,0.143l0,2.428l-1.126,0.302l-2.88,0.007l-0.007,2.379l-0.297,1.106l-3.578,0.146l-0.25,4.507l-4.007,0.251l-0.251,4.257l-3.838,0.145l-0.319,4.362l-0.1,1.002l-3.506,0.151l-0.456,0.455l-0.124,34.953l0.239,0.876l3.692,0l0.34,0.55l0.316,4.834l3.756,0.251l0.251,4.758l4.006,0.25l0.145,4.382l3.111,0.008l0.599,0.381l0.152,3.242l3.756,0.251l0.271,2.358l0.396,0.396l4.717,0.174l0,1.621l0.341,0.341l7.645,-0.066Zm-5.37,-77.947l0.402,-2.035l12.838,0.093l0.529,1.89l4.248,0.225l0.255,2.549l3.691,0.139c0,0 0.144,3.273 0.144,3.273l3.736,0.249c-0,-0 0.078,2.113 0.078,2.113l2.263,2.727l2.016,-0c-0,-0 0.138,4.198 0.138,4.198l4.161,0.245l0.116,59.007l-14.39,-0l0.352,-52.579l-1.071,-4.266l-3.263,0l0,-4.312l-16.647,0.223l-0.206,4.089l-3.653,0l-0.917,4.021l-0.021,0.535c0,-0 -4.61,0.256 -4.61,0.256l-0.171,27.147l4.784,-0l0,1.955l-3.04,-0.037l3.04,1.878l0,0.962l1.558,-0l6.033,3.727l-1.742,-0.491c0,-0 2.122,0.726 2.122,0.726l7.298,0.089l-0.038,15.977l-4.692,0.041l-4.623,0.04l-0,-1.816l-5.418,-0.199l-0.305,-2.657l-3.56,-0.238l-0.094,-1.999l-2.875,-1.827l-0.858,-0.002l-0.139,-4.195l-4.066,-0.254c0,0 -0.25,-4.745 -0.25,-4.745l-3.793,-0.253c-0,-0 -0.18,-2.748 -0.18,-2.748l-1.752,-2.838l-2.449,0l0.106,-29.738l3.669,-0.158l0.39,-3.921c0.003,-0.043 0.105,-1.431 0.105,-1.431c-0,0 3.881,-0.147 3.881,-0.147l0.255,-4.331c0,0 4.016,-0.251 4.016,-0.251l0.247,-4.442c0,-0 3.002,-0.123 3.002,-0.123l0.91,-3.389l0.132,-0.001l4.018,-1.076l-0,-1.749l4.29,-0.126Z" style="fill:#fff;"/><path d="M506.72,106.608l0.077,-0.121l4.518,-0.216l0.151,-1.818l15.902,-0.132l-0,21.739l-0.792,0.304l-9.956,-0l-0.145,4.132l-4.113,0.457l-0.144,4.045l-0.752,0.101l-3.881,0.323l0,20.742l4.196,-0l0.539,0.649l0.148,3.983l3.756,0.251l0.251,3.756l10.517,-0l0.251,-3.756l2.504,-0.131l1.127,-0.254l-0,-73.012l0.601,-0.601l20.393,-0l0.792,0.304l-0.072,58.168l-0.304,23.789l-3.756,0.251l-0.147,4.232l-0.524,0.631l-3.837,0.145l-0.25,4.508l-3.756,0.25l-0.251,3.256l-2.755,0.129l-1.1,0.249l-0.151,2.627l-3.506,0.127l-1.114,0.255l-0.42,1.621l-9.444,0.065l-0,0.001l-0.012,0l-0.011,-3.334l6.882,-0.048l0.286,-1.103l3.397,-0.777l0.788,-0.028l0.121,-2.104l3.835,-0.866l0.106,-0.005l0.247,-3.199c-0,0 3.693,-0.246 3.693,-0.246l0.256,-4.594l4.275,-0.162l0.165,-4.756c0,0 3.689,-0.246 3.689,-0.246c0,0 0.265,-20.691 0.265,-20.691l0.068,-55.116l-15.116,0l0,72.945l-3.833,0.865l-0.263,3.944l-16.755,0c0,0 -0.264,-3.957 -0.264,-3.957l-3.843,-0.257l-0.165,-4.425l-4.832,-0l-0,-27.143l4.739,-0.394l0.143,-4.003c-0,0 4.111,-0.456 4.111,-0.456l0.157,-4.47l10.632,-0l0,-15.349l-9.499,0.079l-0.141,1.7l-4.729,0.226l-0.009,2.199l-4.255,0.713l-0.151,3.437c0,-0 -3.825,0.145 -3.825,0.145l-0.149,4.502l-3.959,-0l-0.151,4.521c0,-0 -4.026,0.141 -4.026,0.141l-0,3.749l-3.466,1.856c-0,-0 -1.033,-0 -1.033,-0l0.105,29.633l4.091,0.144l0.088,5.373l3.127,0.008l1.344,3.502l0,1.329l3.756,1.007l0,3.761l4.006,0.173l0.141,3.495l4.117,0l0,3.072l5.019,0.14l0.213,1.783l6.602,-0.046l0.011,3.333l-2.57,0.018c-0.404,-0.433 -0.7,-0.653 -0.728,-0.411c-0.017,0.144 -0.026,0.283 -0.027,0.417l-6.107,0.042l-0.213,-0.632l-0.149,-1.252l-5.075,-0.142l-0.309,-1.549l-0,-1.439l-3.985,-0l-0.147,-3.631l-3.485,-0.151l-0.647,-0.537l-0,-3.887l-1.127,-0.302l-2.629,-0.007l-0,-3.966l-0.304,-0.792l-3.327,-0.008l-0.692,-0.438l-0.121,-1.182l-0.063,-3.861l-4.132,-0.146l-0.128,-36.185l3.542,0l0.969,-0.518l-0,-4.971l4.131,-0.145l0.144,-4.324l1.547,-0.309l2.422,0l0.144,-4.382l3.86,-0.146l0.147,-3.36l0.797,-0.04l-0.01,2.746l0.192,-0.194l0.136,-2.568l1.389,-0.07l1.277,-0.213l0.586,1.058l-0.582,-1.059l0.347,-0.058l0,-0.08l0.463,0.837l-0.077,-3.212Zm-3.58,6.143l-0.154,0.008l-0.011,3.105l0.165,-3.113Z" style="fill:#fff;"/><path d="M572.079,109.367l0.125,3.208l-0.433,-1.039l-0.062,0.93l-0.014,0.376l-3.203,-0l0.162,0.168l-0.569,3.682l0.258,-3.85l-0.334,-0l-0.267,4.287l-0.179,0.171l-3.255,0.146l-0.857,0.411l-0.145,4.125l-3.756,0.25l-0.251,5.009l-3.005,0.129l-1.13,0.257l0.128,35.924l3.882,0.146l0.049,4.362l0.346,1.252l3.736,0.25l0.143,4.863l4.114,0.145l0.144,4.633l3.676,0l0.534,0.643l0.153,2.988l3.757,0.251l0.152,2.378l4.129,0l0.601,0.601l0,1.653l9.486,-0l9.487,-0l0.263,-1.628l0.056,-20.112l-0.797,-0.797l-12.736,-0l-0.021,-1.065l-0.017,-1.064l-0.179,-0.951l-0.659,-0.413l-2.787,0.074l-0.594,-0.367l0,-2.203l-3.881,-0.147l-0,-2.504l21.035,-0.25l0.626,-0.405l-0,-20.451l-1.209,-0.303l-17.834,0.305l-2.743,-0.342l-0,-2.4l2.323,-0.319l1.683,0l0,-2.244l1.127,-0.256l3.005,-0.129l0.251,-3.256l13.272,-0.25l-0,-22.037l-18.281,-0.121l-0.675,0.432l-0.345,1.693l-4.489,0.25l-0.25,2.504l-3.621,0.282l-0.125,0.125Zm11.238,0.024l0.4,-1.962l12.814,0.085c0,-0 0,15.454 0,15.454c0,-0 -13.029,0.246 -13.029,0.246l-0.256,3.327c-0,0 -0.353,0.015 -0.353,0.015l-4.016,0.913l0,1.767l-4.007,0.549l0,8.25l5.898,0.737l15.889,-0.272l-0,14.487l-21.661,0.258l-0,9.008l3.881,0.147l-0,0.851l3.02,1.867l1.235,-0.032l0.067,3.426l13.461,-0l-0.045,15.871l-12.873,-0l-2.254,-2.254l-2.383,0l-0.14,-2.177l-3.719,-0.248l-0.058,-1.136l-2.241,-2.699l-2.01,-0c0,-0 -0.14,-4.521 -0.14,-4.521l-4.109,-0.145l-0.14,-4.765l-4.013,-0.269l-0.064,-5.683l-3.857,-0.145l-0.106,-29.73l3.968,-0.17l0.255,-5.08c-0,0 3.8,-0.253 3.8,-0.253l0.127,-3.61l0.901,-0.861l0.154,-0.007l-0.15,0.003c-0,0 2.477,-1.09 2.477,-1.09c-0,0 1.032,-2.264 1.032,-2.264c-0.003,0.057 0.069,-1.104 0.069,-1.104c0,0 0.554,0 0.554,0c0.001,0 3.22,-0.231 3.331,-3.217l0.012,-0.318l0.019,-0.276l3.807,-0.297l0.244,-2.441l4.209,-0.235Z" style="fill:#fff;"/><path d="M376.823,123.192l0.048,2.52l-0.183,-0.194l-0.021,0.354l0.183,0.194l-0.183,-0.194l-0.08,1.368l-0.203,0.626l-3.714,0l-0.281,2.63l-0.021,31.051l0.304,2.359l3.82,0.145l0.142,5.33l3.706,0.188l0.409,0.407l0.251,4.343l3.991,0.148l0.383,0.603l0.007,3.859l3.631,0.147l0.251,3.506l3.855,0.146l0.106,1.654l2.865,0l0.001,0.001l-2.866,-0l0.045,0.703l4.007,0.126l1.127,0.259l-0,1.644l0.6,0.601l8.058,-0l0.002,0l8.058,0l0.567,-0.684l-0.13,-21.478l-12.145,-0.134l-0,-3.706l-0.304,-0.793l-3.719,0l-0.273,-0.713l-0.155,-2.667l-0.056,-1.127l-3.881,-0.008l-0.632,-0.401l0.131,-20.25l4.007,-0.251l0.626,-0.405l-0,-3.968l1.127,-0.256l3.005,-0.129l0.145,-4.132l5.113,-0.045l6.971,-0.206l0.143,-0.143l0.139,-21.377l-0.523,-0.523l-16.746,0.132l-0.155,1.877l-1.096,0.251l-4.007,0.126l-0.153,2.379l-2.852,0.007l-1.127,0.302l0,3.447l-2.629,0.007l-1.127,0.302l-0,4.136l-1.565,0.313l-2.924,0l-0.144,4.633l-3.881,0.146l-0.048,0.814Zm19.741,61.19l2.441,0.001l-0.002,-0.001l-2.439,0Zm15.784,-61.26l-3.865,0.114c0,-0 -8.268,0.074 -8.268,0.074l-0.149,4.238l-0.227,0.01l-4.015,0.913l-0,3.863l-4.613,0.288l-0.163,25.208l3.005,1.908l1.698,0.003l0.068,1.178l1.281,3.336l2.979,-0l0,4.462l12.165,0.134l0.095,15.532l-10.603,-0l0,-0.001l5.325,0l-5.325,0l0,-1.565l-4.03,-0.926l-1.305,-0.041l-0.15,-2.339l-3.876,-0.147l-0.25,-3.498l-3.416,-0.138l-0.003,-1.631l-1.841,-2.896l-2.712,-0.101c-0,0 -0.15,-2.589 -0.15,-2.589l-2.219,-2.207l-1.9,-0.096c-0,0 -0.143,-5.369 -0.143,-5.369l-4.039,-0.153l0.02,-29.486l3.086,-0l1.082,-3.339l0.132,-2.266l3.965,-0.149l0.141,-4.513l0.022,-0l4.568,-0.914l0,-3.843l3.756,-0.01l0,-3.746l3.773,-0.009l0.158,-2.468l1.304,-0.041l3.788,-0.869l0.106,-1.271l10.845,-0.086l-0.1,15.446Z" style="fill:#fff;"/><path d="M229.68,187.326l6.692,-0.014l0.335,-0.334l0.007,-10.397l0.01,-10.396l-0.292,-0.292l-9.297,0.05l-1.267,-0.318l-0,-4.203l-3.13,-0.035l-0.934,-0.367l-0.101,-3.846l-0.306,-0.306l-3.255,-0.083l-0.285,-0.285l-0.09,-14.505l-0.09,-14.504l0.445,-0.876l12.504,-0l-0,-7.513l-0.626,-0.038l-3.353,0.071l-1.03,-0.551l0,-4.22l-4.382,-0.145l-0.148,-3.38l-1.918,-0l-1.565,-0.314l-0.007,-12.833l-0.392,-0.618l-21.164,-0.064l-0.318,0.318l-0.196,12.88l-0.585,0.372l-2.128,0.008l-0.05,1.127l0.089,1.904l-0.602,0.725l-3.445,0l-0.035,1.127l0.007,3.157l-0.681,0.262l-4.673,0.087l-0,7.499l11.769,0.14l0.689,0.258l-0.134,18.15l-0.134,18.15l0.581,0.37l1.717,0.05l1.716,0.051l0.272,0.272l0.14,3.14l0.035,2.043l0.877,-0.004l1.314,0.045l1.315,0.044l0,5.009l4.022,-0l0.108,0.313l0.108,0.313l0.24,3.506l0.028,0.603l3.381,0.148l0.131,2.504l0.254,1.127l2.62,0.008l1.126,0.302l0,2.428l5.134,0.142l0.155,1.601l2.099,0.152l6.692,-0.014l0.001,-0.001Z" style="fill:#fff;"/><path d="M81.407,187.289l7.544,-0.051l0.242,-0.242l0.014,-20.834l-0.282,-0.282l-9.926,-0.017l-0.904,-0.466l0.103,-1.345l-0.075,-2.879l-4.007,-0l-0.083,-0.626l-0.116,-2.254l-0.05,-1.628l-3.945,0l-0.574,-0.692l0.169,-20.631l0.719,-0.455l3.631,-0.008l0.007,-2.629l0.29,-1.082l4.086,-0.421l0.25,-4.507l10.518,-0l0.121,2.754l0.284,2.129l3.663,-0l0.296,1.479l0.075,39.714l-0.014,14.645l0.532,0.329l20.458,0.014l0.379,-0.381l-0.107,-64.63l-0.29,-0.289l-2.608,-0.057l-0.876,-0.089l-0.006,-2.379l-0.302,-1.827l-3.91,-0.178l-0.346,-0.346l-0.162,-1.655l-0.035,-2.609l-3.882,-0.146l-0.132,-2.254l-0.253,-1.127l-3.487,0l-0.25,-1.126l-0.067,-0.877l-0.068,-0.876l-4.416,-0.085l-0.683,-0.262l-0.08,-0.828l-0.079,-0.829l-18.03,0l-0.251,1.753l-1.753,0.082l-4.632,0.043l-0,2.701l-0.793,0.304l-3.19,0l0.082,2.998l-0.537,0.538l-3.201,0.101l-0.143,4.323l-1.109,0.297l-3.361,0.007l-0.144,4.382l-3.381,0.148l-0.063,0.103l-0.315,5.258l-4.07,0.145l-0.165,1.032l-0.166,1.033l0.07,33.152l0.332,0.536l3.749,0.162l0.072,2.692l0.071,2.692l0.859,0.044l1.145,-0.038l1.146,-0.039l0.568,0.685l0.146,4.481l3.923,0.084l0.333,0.333l0.177,4.219l1.076,0.242l2.504,0.131l0.25,3.505l3.757,0.251l0.162,1.997l0.551,0.664l4.318,-0.125l0.603,0.373l0,1.431l0.499,0.167l7.544,-0.051l0.001,-0.001Z" style="fill:#fff;"/><path d="M250.899,187.267l9.882,-0.074l0.141,-0.141l0.014,-60.387l0.641,-0.246l13.341,-0.062l0.172,0.279l0.173,0.279l-0.063,11.058l-0.123,0.122l-4.125,0.141l-0.305,1.624l0.117,0.326l0.117,0.327l-0.451,0.876l-5.921,0l-0.244,2.88l0.09,12.771l2.886,6.26l1.378,3.267l0.564,0.991l1.318,3.255l1.421,3.049l1.358,3.108l1.358,3.108l1.137,2.504l1.355,3.005l0.702,1.628l8.016,0.041l12.639,0.05l0.241,-0.242l-1.951,-4.983l-1.038,-2.104l0,-0.532l-0.482,-0.869l-1.734,-4.257l-1.03,-2.505l-1.031,-2.504l-0.445,-1.001l-0.911,-2.254l-0.911,-2.254l-0.478,-0.887l-1.053,-2.869l-0.438,-0.476l-0,-1.09l-0.752,-0.624l0,-0.721l-1.195,-2.598l-0.885,-2.402l0.454,-0.453l3.755,-0.15l0.251,-4.109l0.501,-0.497l3.248,-0.152l0.14,-4.733l0.618,-0.393l1.319,-0.008l0.302,-1.126l0.007,-17.905l-0.375,-0.064l-1.118,-0.118l-0.761,-0.631l0,-2.976l-0.518,-0.969l-2.696,-0l-0.792,-0.304l-0,-3.924l-0.518,-0.319l-3.739,-0.283l-0.056,-1.305l0.083,-0.448l-0.314,-1.43l-3.676,-0l-0.792,-0.304l-0,-1.909l-0.304,-0.792l-3.899,-0l-0.304,-0.792l-0,-1.188l-7.888,-0.149l-6.081,0.154l0.12,0.461l0.121,0.461l-0.564,1.053l-3.238,-0l0,2.52l-0.626,0.213l-3.724,0.147l-0.056,1.753l-0.102,1.608l-4.382,0.144l-0.133,4.233l-0.618,0.41l-2.755,-0.051l-0.626,0.04l-0.007,3.882l-0.385,0.605l-4.491,0.146l-0.127,64.699l1.379,0.159l9.882,-0.074l-0.01,0.001Z" style="fill:#fff;"/><path d="M150.059,187.155l10.074,-0.065l0.049,-1.554l0.355,-0.575l4.728,0l0.007,-1.878l0.464,-0.733l3.535,-0.2l0,-2.602l0.634,-0.866l2.891,-0.167l0.219,-0.219l0.075,-3.861l0.563,-0.35l3.497,-0.175l0.096,-0.096l0.113,-3.752l0.229,-0.626l3.668,-0l-0.09,-20.66l-4.372,-0.031l-0.233,-0.233l-0.152,-3.865l-1.252,-0.045l-2.611,0.078l-0.238,-1.162l-0.154,-1.745l-0.153,-1.744l-0.136,-0.136l-27.009,-0.08l-0.877,-0.445l0,-3.93l-1.126,-0.302l-3.131,-0.008l0,-3.953l0.711,-0.273l3.421,0.094l0.148,-4.254l0.462,-0.462l10.265,-0.115l0.544,0.656l0.1,4.175l3.255,0.138l1.081,0.235l-0.208,0.879l0.38,3.198l20.284,-0.02l1.001,-0.048l0.094,-12.771l-0.594,-0.053l-2.838,-0.141l-0.543,-0.336l0,-4.228l-2.128,-0.05l-1.503,0.059l-0.724,-0.474l-0.042,-3.767l-0.353,-0.353l-3.05,-0.128l-0.314,-0.314l-0.206,-3.236l-2.321,-0.059l-1.502,-0.324l0,-2.246l-5.008,-0.25l-0.153,-1.831l-1.099,-0.246l-19.563,-0.078l-0.47,1.904l-4.758,0.251l-0.16,2.245l-0.592,0.376l-3.381,0.008l0,3.155l-0.6,0.601l-3.156,0l0,3.907l-0.601,0.601l-3.887,-0l-0.144,4.632l-3.602,0.147l-0.154,6.114l0.25,15.025l2.755,-0.019l1.252,0.303l0.25,4.223l3.573,0.146l0.309,1.545l-0,2.191l3.631,-0.002l25.375,0.127l0.367,0.367l0.119,3.826l0.568,0.35l3.033,0.084l0.463,0.286l-0,3.697l-0.304,0.188l-0.303,0.187l-3.525,0.03l-0.148,3.992l-0.603,0.383l-10.339,0.008l-0.304,-0.793l0,-3.966l-3.945,0l-0.491,-0.626l-0.111,-3.503l-0.105,-0.105l-10.821,-0.144l-10.821,-0.144l0,13.287l3.772,-0l0.246,0.642l0.057,1.87l0.057,1.87l4.382,0.145l0.035,1.107l0.094,3.255l3.756,0.251l0.147,3.36l3.859,0.146l0.151,2.612l2.554,0.071l2.554,0.071l0.14,1.252l0.247,1.133l10.069,-0.066Z" style="fill:#fff;"/><path d="M334.457,187.35l9.982,-0.009l0.164,-1.503l0.487,-0.501l4.202,-0.011l0.228,-0.238l0.255,-1.931l0.424,-0.423l3.506,-0.151l0.076,-1.493l0.077,-1.494l0.515,-0.621l3.088,-0.148l0.077,-3.155l0.303,-1.206l3.877,-0.146l0.148,-3.983l0.521,-0.628l3.337,-0.147l0.146,-4.731l0.541,-0.653l3.165,0l0.228,-0.376l0.314,-33.925l-0.316,-1.258l-3.422,-0l-0.352,-0.569l0.083,-4.94l-1.138,-0.076l-2.408,-0.121l-0.346,-0.343l-0.251,-4.343l-4.132,-0.146l-0.056,-2.358l0.095,-0.483l-0.309,-1.646l-3.133,0l-0.601,-0.601l0,-2.851l-0.792,-0.304l-2.917,-0l-0.344,-2.505l-1.08,-0.091l-1.753,-0.067l-2.098,-0.092l-0.334,-2.229l-20.337,0.101l-0.444,1.878l-1.829,0.059l-2.587,0.066l-0.385,0.385l-0.283,2.119l-3.756,0.25l-0.251,3.506l-3.506,0.25l-0.25,4.258l-4.092,0.144l-0.244,1.859l-0.035,2.411l-0.289,0.469l-3.71,-0l-0.142,5.384l-3.588,0.146l-0.548,0.66l0.129,34.753l3.741,0.149l0.383,0.602l0.007,4.883l1.878,0.094l1.597,0.031l0.509,0.504l0.148,4.254l1.878,0.061l1.878,0.061l0.626,0.238l0,4.273l3.476,-0l0.142,0.229l0.142,0.229l0.318,3.047l1.056,0.089l2.378,0.078l0.24,0.24l0.224,1.221l0.036,1.109l4.852,0.143l0.428,1.753l0.173,0.521l9.982,-0.01l-0.002,-0.001Zm0.021,-21.728l-5.452,0.067l-0.207,-0.636l-0.171,-3.604l-0.32,-0.319l-3.573,-0.135l-0.45,-0.45l-0.149,-3.755l-4.187,-0.347l-0.218,-0.219l-0,-20.405l0.314,-0.315l4.015,-0.091l0.163,-0.163l0.126,-3.752l0.237,-0.313l0.237,-0.313l3.642,-0l0.228,-0.626l0.104,-3.256l0.402,-0.405l10.398,0.037l0.441,0.273l-0,4.227l3.464,0l0.793,0.304l-0,3.412l0.304,0.792l3.169,-0l1.29,0.49l-0.107,20.345l-1.183,0.45l-3.473,0l-0,3.907l-0.601,0.601l-3.636,-0l-0.145,4.131l-5.453,0.068l-0.002,-0Z" style="fill:#fff;"/></g></g></svg>