<svg clip-rule="evenodd" fill-rule="evenodd" stroke-linejoin="round" stroke-miterlimit="2" viewBox="0 0 600 118" xmlns="http://www.w3.org/2000/svg"><g fill="#fff"><g fill-rule="nonzero"><path d="m284.123 27.709h24.48l-2.795 32.695h.159l19.062-32.695h24.959l-18.654 60.794h-16.266l13.273-41.889h-.159l-23.161 41.889h-12.998l2.429-41.889h-.16l-12.315 41.889h-16.268z"/><path d="m356.423 27.709h17.542l-18.332 60.794h-17.542z"/><path d="m384.239 72.92h8.455c11.481 0 15.474-12.686 16.079-18.306.98-9.108-3.167-11.321-9.068-11.321h-6.461zm-3.914-45.211h26.236c10.446 0 22.853 6.98 19.764 26.82-3.133 20.265-16.488 33.974-36.263 33.974h-28.15z"/><path d="m476.608 88.503h-16.907l3.386-31.507h-.16l-15.744 31.507h-16.905l2.386-60.794h17.223l-3.795 35.336h.159l17.432-35.336h15.31l-3.797 35.336h.158l17.274-35.336h17.861z"/><path d="m513.137 66.79h10.925l-1.344-18.219zm5.799-39.081h16.98l6.872 60.794h-17.223l-.518-8.685h-18.826l-4.578 8.685h-17.864z"/><path d="m551.122 66.195-8.739-38.486h17.747l3.384 22.649 15.912-22.649h20.574l-31.197 38.315-6.328 22.479h-17.543z"/><path d="m236.36 51.775 3.105-6.244c.31-.545-.004-.954-.943-1.232-.939-.272-2.201-.416-3.768-.416-1.101 0-2.126.06-3.07.177-.938.12-1.564.415-1.879.885l-3.301 6.83c-1.41 2.747-2.903 5.517-4.469 8.306-1.573 2.786-3.305 5.589-5.188 8.427-2.672 3.998-4.866 6.708-6.596 8.122-1.728 1.412-3.534 2.115-5.418 2.115-1.256 0-1.885-.742-1.885-2.234 0-1.802.823-4.476 2.474-8.003 1.02-2.282 2.471-5.152 4.356-8.606 1.572-2.906 3.104-5.611 4.597-8.127 1.175-2.04 2.198-3.844 3.062-5.415.47-.864.745-1.413.826-1.648.313-.707.036-1.2-.826-1.477-.864-.273-2.044-.409-3.534-.409-.943 0-1.94.115-3.004.356-1.058.239-1.667.471-1.825.701l-4.828 7.892c-1.575 2.516-2.987 4.867-4.245 7.066-1.569 2.75-3.021 5.501-4.357 8.244l-.703 1.423c-2.122 4.075-4.201 7.023-6.24 8.827-2.046 1.805-4.012 2.708-5.889 2.708-2.124 0-3.598-.51-4.421-1.526-.827-1.019-1.239-2.283-1.239-3.773 0-.628.044-1.098.118-1.415 2.359-1.49 4.474-3.102 6.362-4.821 2.354-2.125 4.829-4.834 7.419-8.139 2.044-2.665 4.043-5.532 6.009-8.594 2.746-4.471 5.083-9.123 7.008-13.954 1.924-4.829 2.89-8.934 2.89-12.308 0-2.197-.416-3.847-1.239-4.954-.827-1.091-2.22-1.642-4.182-1.642-2.988 0-7.303 2.942-12.957 8.83-5.654 5.891-10.329 12.287-14.015 19.197l-2.475 4.831c-2.67 5.577-4.438 11.151-5.3 16.733l-.826 7.295c-1.335 1.414-2.984 2.752-4.947 4.007-2.435 1.57-4.439 2.352-6.008 2.352-2.353 0-4.161-.802-5.415-2.416-1.259-1.609-1.886-3.391-1.886-5.354l6.358-5.884c2.909-2.913 5.437-5.678 7.597-8.308 2.16-2.633 4.26-5.441 6.302-8.425 1.253-1.88 2.299-3.476 3.121-4.77.825-1.297 1.672-2.687 2.532-4.179 3.064-5.181 5.536-10.052 7.42-14.608 2.594-6.279 3.889-11.419 3.889-15.43 0-2.349-.492-4.179-1.476-5.478-.981-1.295-2.607-1.944-4.885-1.944-4.713 0-10.485 3.951-17.312 11.839-6.207 7.181-11.546 15.506-16.02 24.972-.786 1.735-1.511 3.413-2.179 5.029-.673 1.619-1.315 3.215-1.943 4.793-1.177 3.313-2.082 6.255-2.711 8.818-.628 2.564-.942 5.23-.942 7.989-.159 1.262-.235 2.424-.235 3.489v3.373c-.629.819-2.201 2.102-4.712 3.846-2.516 1.75-4.359 2.623-5.536 2.623-1.102 0-1.982-.178-2.652-.533-.668-.35-1.001-.923-1.001-1.711 0-.23.079-.662.237-1.301.628-2.045 1.217-3.738 1.767-5.075.315-.863 1.022-2.554 2.12-5.077l4.708-10.743c.161-.553-.273-.963-1.295-1.239-1.019-.275-2.314-.415-3.879-.415-2.511 0-3.969.277-4.357.831-.704 1.332-1.686 3.124-2.942 5.366-1.254 2.248-2.468 4.311-3.645 6.2-2.433 3.94-4.669 7.044-6.71 9.33-2.586 2.911-4.745 4.367-6.474 4.367-1.41 0-2.291-.471-2.643-1.411-.355-.937-.527-2.032-.527-3.288 0-2.816.686-5.835 2.057-9.087 1.369-3.247 3.175-6.315 5.407-9.212 2.239-2.894 4.614-5.319 7.123-7.274 2.907-2.268 5.298-3.406 7.177-3.406.392 0 .727.042 1.004.118.276.077.491.499.645 1.255.159.767.472 1.36.942 1.778.473.416 1.081.739 1.828.97.745.23 1.781.342 3.119.342 1.015-.076 1.917-.467 2.703-1.175 1.415-1.251 2.04-2.621 1.885-4.107 0-3.909-2.441-5.869-7.304-5.869-4.001 0-7.864.904-11.593 2.713-3.727 1.803-7.279 4.237-10.654 7.292-2.751 2.519-5.125 5.169-7.125 7.954-2 2.788-3.709 5.712-5.12 8.778-1.567 3.759-2.356 6.937-2.356 9.526 0 2.832.467 5.261 1.406 7.303 1.326 3.22 3.829 4.829 7.499 4.829 2.11 0 4.023-.373 5.743-1.115 1.719-.74 3.517-1.971 5.392-3.691l2.108-2.112 1.06 2.005c1.098 1.884 2.435 3.377 4.005 4.479 1.572 1.101 3.418 1.643 5.545 1.643 4.557 0 9.153-2.037 13.792-6.122l2.241-2.005 1.178 2.005c1.174 1.884 2.551 3.359 4.124 4.415 1.571 1.062 3.417 1.596 5.545 1.596 2.115 0 4.495-.571 7.127-1.711 2.635-1.133 5.049-2.529 7.251-4.182.625-.392 1.255-.91 1.883-1.561.628-.643 1.178-1.203 1.651-1.673.707 1.333 1.415 2.429 2.122 3.294 2.204 2.748 4.91 4.122 8.136 4.122 1.649 0 3.357-.372 5.129-1.119 1.769-.746 3.517-1.742 5.244-3.003 2.118-1.648 3.809-3.269 5.073-4.858.624 2.08 1.413 3.653 2.354 4.724 1.257 1.462 2.983 2.193 5.187 2.193 2.123 0 4.6-.731 7.427-2.207 2.047-1.076 3.81-2.352 5.302-3.823l-2.133 3.87-12.649 23.825c-.896 1.605-1.339 3.019-1.339 4.246 0 1.532.783 2.754 2.356 3.672.547.312 1.094.467 1.647.467 1.252 0 2.473-.656 3.652-1.953.939-.996 2.04-2.753 3.298-5.278l11.992-25.031 8.242-16.845 8.349-16.658zm-46.365-.087c-1.651 2.748-3.575 5.339-5.775 7.769-2.2 2.435-4.75 4.832-7.655 7.187.55-3.295 1.141-6.007 1.769-8.124.625-2.116 1.49-4.397 2.59-6.832l3.532-7.183c2.593-4.401 5.223-8.329 7.893-11.787 3.057-3.923 5.219-5.886 6.48-5.886.862 0 1.293.587 1.293 1.766 0 1.494-.942 4.359-2.825 8.603-1.493 3.298-3.14 6.672-4.948 10.129zm-30.394.087c-3.141 4.634-7.144 9.502-12.011 14.608.705-5.184 1.844-10.055 3.413-14.608 1.253-3.608 2.71-7.185 4.357-10.723.943-2.033 2.554-5.174 4.833-9.416 2.276-4.241 5.316-8.541 9.128-12.898 3.806-4.359 6.419-6.543 7.831-6.543.631 0 .942.478.942 1.42 0 2.277-1.611 6.828-4.829 13.658-2.827 5.972-5.851 11.701-9.07 17.202z"/><path d="m85.029 58.779c-2.288-2.472-5.282-4.808-8.989-7.005v-.949c9.204-3.06 18.405-6.115 27.611-9.18 8.501-4.716 12.754-11.458 12.754-20.257 0-7.142-2.714-12.479-8.141-16.016-5.428-3.532-13.013-5.299-22.76-5.299-14.232 0-28.856 4.708-43.874 14.127-15.882 9.977-27.519 22.536-34.909 37.69-1.338 2.663-2.502 5.416-3.483 8.24-.981 2.829-1.79 5.655-2.413 8.476l-.825 4.714v2.946c0 3.22.667 6.276 2.003 9.181 1.807 4.004 4.534 7.203 8.185 9.598 3.652 2.395 7.633 3.592 11.953 3.592 2.983 0 5.914-.616 8.781-1.833 2.864-1.221 5.711-3.125 8.538-5.732 1.805-1.651 3.451-3.548 4.947-5.669 2.356-3.155 4.475-6.54 6.36-10.17.471-1.023 1.529-3.268 3.18-6.726l5.088-11.299 2.583-5.433c5.817-12.996 10.434-21.649 13.849-25.955 1.937-2.427 4.035-4.349 6.288-5.76 3.255-1.954 4.847-3.241 4.769-3.874-.078-.778-.825-1.175-2.227-1.175-1.488 0-3.223.357-5.216 1.061-1.996.704-3.972 1.608-5.927 2.699-3.597 2.034-7.581 6.381-11.958 13.037-1.799 2.741-4.733 7.908-8.797 15.503l-2.11 4.344-7.337 16.826c-3.07 7.015-6.217 12.646-9.438 16.903-1.968 2.523-3.995 4.435-6.08 5.73-2.084 1.3-4.305 1.951-6.666 1.951-4.952 0-8.217-2.548-9.788-7.649-.634-2.269-.948-4.936-.948-7.994 0-2.58.435-5.52 1.301-8.817 1.411-5.019 3.882-10.507 7.417-16.46 3.53-5.962 7.73-11.763 12.599-17.403 4.871-5.642 9.937-10.584 15.2-14.819 6.513-5.252 12.848-9.091 19.016-11.525 6.164-2.431 12.387-3.641 18.668-3.641 13.27 0 19.907 4.683 19.907 14.043 0 6.87-3.008 12.442-9.017 16.709-1.954 1.419-7.539 4.146-16.755 8.175-6.012 2.604-9.017 5.326-9.017 8.175 2.174 2.92 4.353 5.798 6.532 8.646 1.945 2.604 2.917 5.093 2.917 7.456v.719c0 4.025-1.661 7.537-4.979 10.519-3.314 2.985-7.383 4.908-12.203 5.771.546-.863.822-2.156.822-3.881-.158-1.494-.611-2.728-1.357-3.715-.744-.981-1.821-1.55-3.231-1.707-1.647-.24-3.077.291-4.295 1.575-1.214 1.289-1.823 2.791-1.823 4.505 0 1.325.337 2.631 1.005 3.918.669 1.283 1.903 2.356 3.717 3.211 1.812.856 4.409 1.29 7.793 1.29 1.889 0 4.134-.413 6.736-1.241 2.594-.823 5.074-1.984 7.439-3.469 3.067-1.887 5.433-4.009 7.085-6.361 1.963-2.747 2.952-5.617 2.952-8.599v-1.882c0-4.084-1.15-7.361-3.432-9.835"/></g><path d="m234.952 112.943h4.675l30.015-99.094h-4.675z"/></g></svg>