<svg clip-rule="evenodd" fill-rule="evenodd" stroke-linejoin="round" stroke-miterlimit="2" viewBox="0 0 600 188" xmlns="http://www.w3.org/2000/svg"><g fill="#fff" fill-rule="nonzero"><path d="m72.639 68.299.306 1.566c.486 2.479.138 5.021-1.046 7.625-.986 2.227-2.599 4.372-4.837 6.436-1.715 1.625-3.582 2.991-5.602 4.098s-3.812 1.815-5.378 2.121c-2.806.55-5.03.614-6.673.19-1.642-.424-2.846-1.119-3.612-2.087s-1.257-2.007-1.475-3.116c-.281-1.436-.021-2.791.779-4.066.801-1.275 1.906-1.949 3.314-2.022 1.201-.101 2.191.196 2.972.891.78.695 1.356 1.649 1.729 2.862.281 1.436.264 2.559-.051 3.367 3.841-1.499 6.888-3.757 9.143-6.774 2.254-3.017 3.055-6.189 2.403-9.518l-.115-.588c-.384-1.958-1.603-3.853-3.656-5.687-2.289-1.992-4.583-4.015-6.882-6.071-.461-2.351 1.61-5.095 6.213-8.233 7.049-4.839 11.274-8.005 12.676-9.498 4.334-4.51 5.944-9.605 4.831-15.283-1.56-7.961-7.855-10.86-18.885-8.698-5.22 1.023-10.194 3.048-14.921 6.075s-9.371 7.258-13.931 12.693c-3.681 4.38-7.084 9.317-10.209 14.809s-5.67 11.006-7.635 16.541-3.125 10.507-3.481 14.915c-.182 2.882-.062 5.399.36 7.552.499 2.546 1.195 4.713 2.088 6.503 2.138 3.986 5.262 5.576 9.373 4.771 1.958-.384 3.696-1.284 5.215-2.699 1.518-1.416 2.889-3.328 4.11-5.737 1.987-4.048 3.683-9.225 5.09-15.532l3.324-15.189 1.052-3.969c2.154-6.995 3.757-11.781 4.811-14.36 2.568-6.263 5.186-10.538 7.855-12.823 1.452-1.234 2.952-2.307 4.501-3.221s2.944-1.492 4.185-1.736c1.175-.23 1.859-.025 2.053.616.166.509-.961 1.848-3.382 4.016-1.662 1.546-3.11 3.491-4.345 5.834-2.168 4.152-4.639 12.125-7.41 23.919l-1.173 4.905-2.368 10.224c-.807 3.139-1.324 5.171-1.55 6.096-.977 3.31-2.189 6.462-3.635 9.455-.896 2.005-1.959 3.84-3.19 5.505-1.928 2.615-3.984 4.662-6.168 6.14-2.184 1.477-4.515 2.459-6.995 2.945-3.591.704-7.099.358-10.523-1.037s-6.214-3.61-8.368-6.646c-1.582-2.196-2.636-4.633-3.161-7.31-.114-.585-.209-1.414-.282-2.485l-.083-4.048c.061-2.452.27-4.933.626-7.442.356-2.51.871-4.982 1.546-7.418 3.665-13.8 11.277-26.136 22.836-37.007 10.931-10.274 22.303-16.569 34.115-18.885 8.092-1.586 14.678-1.352 19.757.702 5.078 2.055 8.2 6.051 9.364 11.99 1.433 7.31-1.025 13.62-7.371 18.93-7.203 4.055-14.405 8.109-21.606 12.164l.348.744c3.425 1.226 6.285 2.681 8.582 4.366 2.296 1.686 3.776 4.225 4.442 7.619zm116.103-22.756-4.11 15.339-6.015 22.731c-.621 2.36-1.24 4.04-1.856 5.042-.763 1.302-1.666 2.055-2.709 2.259-.459.09-.941.049-1.448-.123-1.459-.529-2.316-1.445-2.571-2.75-.205-1.043-.083-2.321.365-3.832l6.697-21.849 1.13-3.575c-.998 1.484-2.256 2.848-3.774 4.093-2.105 1.701-4.039 2.724-5.802 3.07-1.828.358-3.386.019-4.672-1.017-.962-.759-1.876-1.968-2.744-3.629-.79 1.51-1.931 3.122-3.423 4.838-1.231 1.327-2.52 2.444-3.867 3.351-1.348.908-2.707 1.495-4.077 1.764-2.675.524-5.15-.177-7.426-2.103-.729-.602-1.495-1.4-2.3-2.394-.301.533-.659 1.128-1.073 1.785s-.85 1.2-1.307 1.629c-1.558 1.728-3.338 3.28-5.339 4.656-2.001 1.375-3.882 2.236-5.643 2.581-1.763.345-3.383.205-4.861-.42-1.479-.625-2.86-1.626-4.145-3.002l-1.306-1.472-1.535 2.029c-3.185 4.148-6.671 6.594-10.457 7.336-1.761.345-3.383.189-4.868-.469-1.484-.657-2.837-1.68-4.058-3.068l-1.227-1.587-1.417 2.105c-1.284 1.743-2.584 3.065-3.898 3.967s-2.852 1.526-4.613 1.871c-3.069.601-5.42-.328-7.054-2.787-1.116-1.543-1.904-3.489-2.364-5.837-.422-2.155-.287-4.926.406-8.313.674-2.776 1.617-5.485 2.828-8.129 1.21-2.644 2.753-5.233 4.626-7.767 2.307-3.096 4.864-5.698 7.67-7.807 2.805-2.11 5.873-3.491 9.203-4.144 4.045-.792 6.388.443 7.028 3.708.374 1.213.076 2.457-.894 3.733-.539.714-1.226 1.187-2.061 1.419-1.11.217-1.993.289-2.651.215s-1.218-.252-1.681-.534c-.462-.283-.823-.738-1.081-1.364-.259-.627-.508-.951-.749-.972s-.525.001-.851.065c-1.566.306-3.371 1.644-5.416 4.011-1.767 2.041-3.345 4.45-4.731 7.23-1.387 2.779-2.387 5.635-2.998 8.567-.612 2.931-.687 5.572-.226 7.922.204 1.044.53 1.929.978 2.655.447.726 1.258.974 2.433.744 1.436-.282 2.994-1.842 4.674-4.679 1.325-2.225 2.681-5.167 4.065-8.826.67-1.759 1.346-3.671 2.026-5.736s1.205-3.71 1.575-4.934c.237-.52 1.4-.985 3.487-1.394 1.306-.256 2.406-.353 3.298-.291s1.318.334 1.279.818l-2.171 9.676c-.505 2.267-.818 3.785-.937 4.555-.239 1.199-.453 2.698-.642 4.497-.03.548-.025.919.013 1.114.128.653.498 1.073 1.111 1.258.612.185 1.375.188 2.289.008.98-.192 2.364-1.259 4.152-3.202 1.787-1.943 2.872-3.325 3.253-4.146-.192-.978-.374-1.908-.547-2.789s-.296-1.857-.369-2.926c-.448-2.285-.618-4.539-.512-6.762s.379-4.801.82-7.733c.266-1.409.545-2.837.839-4.283.293-1.446.625-2.951.995-4.515 2.186-8.561 5.274-16.316 9.267-23.266 4.397-7.639 8.554-11.842 12.472-12.61 1.892-.371 3.351-.098 4.378.818 1.026.917 1.732 2.354 2.115 4.312.653 3.328.414 7.814-.715 13.458-.826 4.092-2.09 8.541-3.79 13.348-.474 1.381-.948 2.677-1.422 3.888-.475 1.211-1.081 2.703-1.819 4.475-1.211 2.812-2.5 5.487-3.866 8.025-1.366 2.537-3.019 5.251-4.959 8.14l-4.329 5.93c.32 1.631 1.133 3.013 2.44 4.147 1.307 1.133 2.939 1.508 4.897 1.125 1.305-.256 2.841-1.235 4.608-2.939 1.427-1.363 2.579-2.741 3.459-4.133l-.502-6.203c-.192-4.775.368-9.696 1.679-14.764l1.268-4.418c1.943-6.345 4.784-12.426 8.524-18.241 3.738-5.816 6.848-8.966 9.328-9.453 1.633-.32 2.881-.09 3.746.69.864.78 1.475 2.083 1.833 3.91.55 2.806.419 6.373-.394 10.701-.812 4.327-1.996 8.575-3.551 12.743-1.133 2.864-2.33 5.572-3.592 8.125-1.616 3.163-3.23 5.817-4.842 7.963-1.287 1.742-2.787 3.425-4.501 5.049-.015.274.029.672.131 1.193.243 1.241.79 2.219 1.642 2.933.851.714 2.158.898 3.921.553 1.567-.307 3.053-1.378 4.455-3.211 1.403-1.833 2.652-4.619 3.748-8.358l.358-1.293c.661-2.501 1.42-5.022 2.278-7.56.687-2.033 1.478-4.221 2.374-6.564l2.726-7.347c.093-.221.561-.516 1.404-.885s1.656-.63 2.439-.783c1.24-.244 2.242-.321 3.004-.232.762.088 1.069.451.923 1.087-.025.21-.163.712-.415 1.506-.461 1.447-1.015 3.115-1.662 5.004-.832 2.33-1.664 4.831-2.494 7.503-1.004 3.177-1.744 5.795-2.221 7.856-.795 3.204-1.045 5.557-.75 7.059.242 1.239.885 1.756 1.929 1.551 1.566-.307 2.951-1.188 4.157-2.643 1.206-1.456 2.592-4.065 4.159-7.828 1.106-2.658 2.085-5.273 2.935-7.846.851-2.573 1.64-5.116 2.368-7.628l1.629-6.217c.184-.444.658-.791 1.421-1.042.764-.251 1.603-.466 2.517-.645 1.304-.256 2.371-.347 3.2-.272.828.074 1.156.366.985.875l-1.528 5.689zm-57.071-9.553c1.779-5.093 3.358-10.35 4.736-15.77 1.562-6.202 2.158-10.25 1.787-12.142-.154-.784-.492-1.126-1.014-1.023-1.173.23-2.987 2.466-5.443 6.71-2.456 4.243-4.285 8.312-5.487 12.208-1.202 3.895-2.028 6.768-2.478 8.618-.795 3.204-1.42 6.411-1.875 9.619-.565 4.04-.718 8.271-.459 12.694 3.213-5.035 5.748-9.733 7.605-14.095zm23.875-2.139c.939-3.166 1.76-6.241 2.464-9.225.874-3.83 1.19-6.365.947-7.606-.192-.98-.647-1.4-1.363-1.259-1.046.205-2.522 2.189-4.427 5.952-1.656 3.307-3.202 6.999-4.639 11.075l-1.766 6.548c-.518 2.201-.865 4.234-1.042 6.098-.176 1.865-.225 4.213-.146 7.043 2.033-2.431 3.764-4.838 5.195-7.219 1.43-2.382 2.607-4.848 3.53-7.399z"/><path d="m113.188 122.24v-4.499h-4.326v-4.672h-3.98v-3.461h-4.153v-3.115h-5.536v-1.729h-17.823v1.729h-6.922v3.115h-3.979v3.461h-3.461v4.672h-4.57v4.153h-3.979v5.882h-4.465v36.131h4.465v5.225h3.979v5.293h4.224v4.742h3.633v3.808h3.981v2.595h5.536v2.076h16.266v-21.628h-10.901v-4.672h-3.981v-4.672h-4.672v-21.283h4.672v-4.153h3.981v-4.5h10.728v4.5h3.841v56.408h21.595v-65.406z"/><path d="m480.452 122.24v-4.499h-4.325v-4.672h-3.98v-3.461h-4.153v-3.115h-5.538v-1.729h-17.822v1.729h-6.92v3.115h-3.981v3.461h-3.46v4.672h-4.569v4.153h-3.981v5.882h-4.463v36.131h4.463v5.225h3.981v5.293h4.223v4.742h3.634v3.808h3.979v2.595h5.537v2.076h16.266v-21.628h-10.903v-4.672h-3.979v-4.672h-4.671v-21.283h4.671v-4.153h3.979v-4.5h10.729v4.5h3.842v56.408h21.594v-65.406z"/><path d="m549.715 170.171v4.497h-4.325v4.672h-3.981v3.462h-4.153v3.114h-5.537v1.73h-17.822v-1.73h-6.921v-3.114h-3.98v-3.462h-3.461v-4.672h-4.569v-4.152h-3.98v-5.883h-4.464v-36.13h4.464v-5.226h3.98v-5.292h4.224v-4.743h3.633v-3.807h3.98v-2.596h5.536v-2.076h16.266v21.63h-10.902v4.671h-3.98v4.672h-4.671v21.283h4.671v4.153h3.98v4.499h10.729v-4.499h3.841v-73.228h21.595v82.227z"/><path d="m183.526 136.083v-13.324h-4.153v-4.931h-4.273v-4.534h-3.859v-3.512h-4.067v-2.769h-5.017v-2.25h-20.764v2.25h-5.538v2.769h-3.72v3.512h-3.893v4.534h-4.499v4.672h-3.721v21.715h4.153v4.24h4.24v3.893h29.156v4.325h4.326v4.24h-4.499v4.413h-11.161v-4.586h-3.979v-4.326h-22.236v13.237h4.153v4.499h4.326v4.499h4.327v3.547h3.806v2.768h5.191v2.683h20.591v-2.683h4.672v-2.768h4.153v-3.547h4.153v-4.412h4.065v-4.499h4.067v-20.764h-5.017v-4.067h-4.241v-4.845h-28.117v-4.325h-4.239v-4.24h4.239v-4.585h11.16v4.932h4.153v4.239z"/><path d="m228.91 165.931v-4.586h-4.239v-4.325h-3.894v-30.022h12.891v-7.7h-5.018v-4.758h-4.672v-3.634h-3.201v-13.583h-22.149v13.583h-2.855v3.634h-4.325v4.758h-5.45v7.7h12.63v36.943h4.327v5.191h3.633v5.018h4.239v5.104h3.721v3.807h3.72v2.769h5.624v1.817h15.659v-21.716z"/><path d="m285.971 152.001h4.664v-4.672h3.893v-5.277h2.336v-19.466h-2.855v-4.326h-3.634v-4.586h-4.24v-3.634h-4.672v-2.768h-4.498v-2.509h-13.93v2.509h-3.893v2.768h-4.325v3.634h-4.672v4.586h-4.153v4.239h-4.672v65.148h21.283v-60.736h14.362v11.594h-4.413v3.114h-6.662v15.487l12.978 30.541h21.976z"/><path d="m344.486 156.329v4.671h-4.326v4.326h-11.074v-4.326h-3.981v-4.671h-4.671v-20.246h4.671v-4.672h3.981v-4.326h11.074v4.326h4.326v4.672h4.326v20.246zm22.235-27.946v-5.538h-4.326v-4.671h-4.413v-4.672h-3.893v-3.547h-3.979v-2.595h-5.018v-2.596h-20.851v2.596h-4.932v2.595h-4.326v3.547h-3.547v4.672h-4.585v4.671h-3.98v5.538h-4.24v35.645h4.24v5.538h3.98v4.672h4.585v4.671h3.547v3.547h4.326v2.595h4.932v2.596h20.851v-2.596h5.018v-2.595h3.979v-3.547h3.893v-4.671h4.413v-4.672h4.326v-5.538h3.893v-35.645z"/><path d="m415.862 165.326h-12.544v-4.326h-3.98v-4.671h-4.672v-20.246h4.672v-4.672h3.98v-4.326h12.544v-22.321h-17.39v2.596h-4.931v2.595h-4.325v3.547h-3.548v4.672h-4.586v4.671h-3.98v5.538h-4.238v35.645h4.238v5.538h3.98v4.672h4.586v4.671h3.548v3.547h4.325v2.595h4.931v2.596h17.39z"/><path d="m600 165.326h-13.996v-4.326h-3.979v-4.671h17.975v-20.246h-17.975v-4.672h3.979v-4.326h13.996v-22.321h-18.841v2.596h-4.932v2.595h-4.325v3.547h-3.547v4.672h-4.586v4.671h-3.981v5.538h-4.238v35.645h4.238v5.538h3.981v4.672h4.586v4.671h3.547v3.547h4.325v2.595h4.932v2.596h18.841z"/></g></svg>