<svg clip-rule="evenodd" fill-rule="evenodd" stroke-linejoin="round" stroke-miterlimit="2" viewBox="0 0 600 188" xmlns="http://www.w3.org/2000/svg"><g fill="#fff"><path d="m72.613 67.362.307 1.565c.486 2.479.137 5.02-1.046 7.623-.986 2.225-2.598 4.37-4.836 6.434-1.714 1.624-3.581 2.989-5.599 4.096-2.02 1.107-3.811 1.814-5.376 2.12-2.806.55-5.029.613-6.671.19-1.642-.424-2.846-1.119-3.611-2.086-.765-.968-1.257-2.006-1.474-3.115-.282-1.436-.022-2.791.779-4.065.8-1.274 1.904-1.948 3.312-2.021 1.2-.101 2.19.196 2.971.89.78.695 1.356 1.649 1.728 2.862.281 1.436.265 2.557-.05 3.365 3.839-1.498 6.885-3.756 9.139-6.771 2.254-3.016 3.054-6.187 2.402-9.514l-.115-.589c-.384-1.957-1.602-3.852-3.654-5.684-2.288-1.991-4.582-4.015-6.88-6.07-.461-2.349 1.61-5.092 6.211-8.229 7.047-4.838 11.27-8.003 12.671-9.495 4.333-4.509 5.943-9.601 4.83-15.278-1.56-7.958-7.853-10.856-18.879-8.695-5.218 1.023-10.19 3.047-14.915 6.073-4.726 3.025-9.368 7.255-13.926 12.689-3.68 4.378-7.082 9.313-10.206 14.803-3.124 5.491-5.668 11.003-7.632 16.535-1.964 5.533-3.124 10.504-3.48 14.911-.182 2.88-.062 5.397.36 7.549.499 2.544 1.194 4.711 2.087 6.5 2.137 3.985 5.26 5.575 9.37 4.769 1.957-.383 3.694-1.283 5.213-2.698 1.518-1.415 2.888-3.326 4.109-5.734 1.986-4.047 3.682-9.222 5.088-15.527l3.323-15.183 1.052-3.968c2.152-6.992 3.755-11.777 4.809-14.355 2.566-6.261 5.184-10.534 7.852-12.818 1.451-1.234 2.951-2.307 4.499-3.221 1.549-.913 2.943-1.491 4.184-1.734 1.174-.231 1.858-.026 2.052.615.166.509-.961 1.847-3.381 4.015-1.661 1.545-3.109 3.489-4.343 5.831-2.168 4.151-4.637 12.121-7.408 23.911l-1.173 4.904-2.366 10.22c-.808 3.137-1.324 5.168-1.55 6.094-.977 3.309-2.188 6.459-3.634 9.451-.895 2.005-1.958 3.839-3.188 5.503-1.928 2.615-3.983 4.661-6.166 6.138s-4.514 2.458-6.993 2.944c-3.59.704-7.096.358-10.519-1.036-3.423-1.395-6.212-3.609-8.365-6.644-1.582-2.195-2.635-4.631-3.16-7.307-.115-.585-.209-1.414-.282-2.485l-.083-4.046c.061-2.452.27-4.932.626-7.44s.871-4.98 1.545-7.415c3.664-13.795 11.273-26.126 22.828-36.994 10.927-10.271 22.295-16.564 34.103-18.878 8.09-1.585 14.673-1.352 19.75.702 5.077 2.053 8.197 6.048 9.361 11.985 1.432 7.307-1.024 13.615-7.369 18.923-7.2 4.054-14.399 8.107-21.598 12.16l.348.744c3.424 1.225 6.283 2.68 8.579 4.365 2.295 1.685 3.775 4.223 4.44 7.616zm116.063-22.749-4.108 15.335-6.013 22.722c-.622 2.359-1.24 4.039-1.856 5.041-.763 1.301-1.665 2.053-2.708 2.258-.459.09-.941.049-1.448-.123-1.458-.528-2.315-1.445-2.57-2.749-.205-1.043-.083-2.32.366-3.83l6.694-21.842 1.129-3.574c-.997 1.483-2.255 2.847-3.772 4.092-2.105 1.7-4.038 2.723-5.8 3.068-1.828.359-3.385.02-4.671-1.016-.961-.759-1.875-1.968-2.742-3.627-.79 1.509-1.931 3.12-3.422 4.835-1.231 1.327-2.52 2.444-3.866 3.351-1.347.907-2.706 1.494-4.076 1.763-2.674.524-5.148-.177-7.423-2.102-.728-.602-1.495-1.4-2.299-2.394-.301.533-.659 1.128-1.072 1.784-.414.657-.85 1.2-1.308 1.629-1.557 1.728-3.336 3.279-5.336 4.654-2.001 1.375-3.881 2.236-5.641 2.58-1.762.346-3.382.206-4.86-.419-1.478-.626-2.859-1.626-4.144-3.001l-1.305-1.472-1.535 2.029c-3.183 4.147-6.668 6.591-10.452 7.333-1.761.345-3.383.189-4.866-.468-1.485-.657-2.837-1.68-4.058-3.068l-1.226-1.586-1.417 2.104c-1.284 1.743-2.582 3.064-3.896 3.966s-2.851 1.525-4.611 1.87c-3.068.601-5.419-.327-7.052-2.786-1.115-1.543-1.903-3.488-2.363-5.835-.422-2.155-.287-4.925.406-8.311.674-2.774 1.616-5.482 2.826-8.125 1.211-2.643 2.752-5.231 4.625-7.765 2.306-3.094 4.862-5.696 7.667-7.804 2.804-2.109 5.871-3.489 9.2-4.142 4.044-.792 6.386.443 7.025 3.706.374 1.213.076 2.457-.893 3.732-.539.714-1.226 1.186-2.061 1.418-1.109.218-1.992.29-2.649.216-.658-.074-1.218-.252-1.68-.535-.463-.282-.824-.737-1.082-1.363-.258-.627-.508-.95-.748-.971-.241-.021-.525 0-.851.064-1.565.307-3.37 1.644-5.414 4.01-1.767 2.04-3.343 4.449-4.73 7.227-1.386 2.779-2.385 5.634-2.996 8.564-.612 2.931-.687 5.571-.227 7.92.205 1.043.531 1.928.978 2.654s1.258.973 2.433.743c1.435-.281 2.992-1.84 4.671-4.677 1.326-2.224 2.681-5.165 4.064-8.823.671-1.758 1.346-3.669 2.026-5.734.679-2.064 1.204-3.708 1.574-4.932.237-.52 1.399-.985 3.486-1.394 1.306-.256 2.405-.353 3.297-.291s1.318.335 1.278.818l-2.17 9.673c-.505 2.266-.817 3.784-.937 4.553-.239 1.199-.453 2.697-.642 4.496-.029.547-.024.918.014 1.114.128.653.498 1.072 1.11 1.257s1.375.188 2.289.008c.979-.192 2.363-1.259 4.15-3.201s2.871-3.324 3.252-4.145c-.192-.977-.374-1.907-.547-2.788s-.295-1.856-.368-2.925c-.448-2.283-.619-4.536-.513-6.759s.38-4.8.82-7.731c.266-1.408.545-2.835.839-4.281.293-1.446.625-2.95.995-4.513 2.184-8.558 5.272-16.31 9.263-23.258 4.396-7.636 8.551-11.838 12.468-12.606 1.891-.371 3.35-.098 4.376.818 1.026.917 1.731 2.354 2.115 4.311.652 3.327.413 7.811-.715 13.453-.826 4.09-2.089 8.538-3.789 13.343-.474 1.381-.948 2.677-1.422 3.887s-1.08 2.701-1.818 4.473c-1.21 2.811-2.498 5.485-3.864 8.022s-3.018 5.249-4.958 8.137l-4.327 5.928c.319 1.631 1.132 3.013 2.439 4.146 1.306 1.133 2.938 1.508 4.895 1.124 1.304-.255 2.84-1.234 4.607-2.937 1.426-1.363 2.578-2.74 3.457-4.132l-.502-6.201c-.191-4.773.368-9.693 1.679-14.758l1.268-4.417c1.942-6.343 4.782-12.422 8.52-18.235s6.846-8.963 9.325-9.449c1.632-.32 2.881-.09 3.745.69.864.779 1.475 2.082 1.833 3.908.549 2.805.418 6.371-.394 10.697s-1.996 8.573-3.55 12.739c-1.133 2.862-2.33 5.57-3.591 8.122-1.615 3.161-3.229 5.815-4.84 7.961-1.286 1.74-2.786 3.423-4.5 5.046-.015.274.029.672.131 1.193.243 1.241.79 2.218 1.642 2.932.851.714 2.157.898 3.919.553 1.567-.307 3.052-1.377 4.454-3.21s2.651-4.618 3.746-8.355l.358-1.292c.661-2.501 1.42-5.02 2.277-7.558.687-2.032 1.478-4.22 2.374-6.562l2.725-7.344c.093-.221.561-.516 1.404-.885.842-.368 1.655-.63 2.437-.783 1.24-.243 2.241-.32 3.003-.232.762.089 1.069.451.923 1.087-.025.21-.163.712-.415 1.505-.461 1.447-1.015 3.114-1.662 5.003-.831 2.329-1.662 4.829-2.493 7.5-1.003 3.176-1.742 5.794-2.219 7.853-.795 3.203-1.045 5.556-.751 7.057.243 1.238.886 1.755 1.929 1.551 1.565-.307 2.95-1.188 4.156-2.643 1.205-1.455 2.591-4.063 4.157-7.825 1.106-2.656 2.084-5.271 2.935-7.843.849-2.572 1.638-5.114 2.366-7.626l1.629-6.215c.183-.443.657-.79 1.421-1.041.763-.251 1.601-.466 2.515-.645 1.304-.256 2.37-.346 3.199-.272.828.075 1.156.366.985.875l-1.527 5.687zm-57.051-9.549c1.778-5.091 3.357-10.346 4.734-15.764 1.562-6.2 2.157-10.246 1.786-12.138-.154-.784-.491-1.125-1.013-1.023-1.173.23-2.986 2.466-5.441 6.707-2.455 4.242-4.283 8.31-5.485 12.204s-2.028 6.766-2.478 8.616c-.795 3.203-1.419 6.408-1.874 9.615-.565 4.039-.718 8.269-.459 12.69 3.212-5.033 5.747-9.73 7.603-14.09zm23.866-2.138c.939-3.165 1.76-6.239 2.463-9.222.875-3.829 1.19-6.363.947-7.604-.192-.979-.646-1.399-1.363-1.258-1.045.205-2.52 2.188-4.425 5.95-1.655 3.306-3.201 6.996-4.637 11.072l-1.766 6.545c-.518 2.2-.865 4.232-1.041 6.096-.176 1.865-.225 4.211-.146 7.041 2.032-2.431 3.763-4.837 5.193-7.217 1.43-2.381 2.606-4.847 3.529-7.397z" fill-rule="nonzero"/><path d="m450.462 187.104 7.644-.066.348-1.252.049-21.106-1.127-.233-9.511-.117-.38-.235v-3.422l-.793-.304h-3.464v-4.157l-.601-.601h-4.163l.131-20.66 4.507-.25.129-3.256.257-1.126h3.974l.272-1.628.126-2.504 5.071-.068 5.071-.068v3.475l.304.793h3.693l.167.666.167.666-.367 54.784.605.728h19.91l.565-.68-.128-64.804-4.257-.25-.144-4.382h-3.676l-.539-.65-.148-3.983-3.756-.251-.147-3.359-3.859-.146-.251-2.504-4.714-.251-.561-2.003-18.108-.132-.421 2.135-4.869.143v2.428l-1.126.302-2.88.007-.007 2.379-.148.553-.149.553-3.578.146-.25 4.507-4.007.251-.251 4.257-3.838.145-.319 4.362-.1 1.002-3.506.151-.456.455-.124 34.953.239.876h3.692l.34.551.316 4.833 3.756.251.251 4.758 4.006.25.145 4.382 3.111.008.599.381.076 1.621.076 1.621 3.756.251.271 2.358.396.396 4.717.174v1.621l.341.341 7.644-.066z"/><path d="m521.273 187.103 9.444-.065.42-1.621 1.114-.255 3.506-.127.151-2.627 1.1-.249 2.755-.129.251-3.256 3.756-.25.25-4.508 1.919-.072 1.918-.073.524-.631.073-2.116.074-2.116 3.756-.25.304-23.79.072-58.168-.792-.304h-20.393l-.601.601v73.012l-1.127.254-2.504.131-.251 3.756h-10.517l-.251-3.756-3.756-.251-.148-3.983-.539-.649h-4.196v-20.742l3.881-.323.752-.101.072-2.023.072-2.022 4.113-.457.145-4.132h9.956l.792-.304v-21.739l-15.902.132-.151 1.818-4.518.216-.228.36-.228.36-.007 1.856-1.628.272-2.504.126-.147 3.36-3.86.146-.144 4.382h-2.422l-1.547.309-.144 4.324-4.131.145v4.971l-.969.518h-3.542l.128 36.185 2.066.073 2.066.073.063 3.861.121 1.182.346.219.346.219 3.327.008.304.792v3.966l2.629.007 1.127.302v3.887l.647.537 3.485.151.073 1.815.074 1.816h3.985v1.439l.309 1.549 5.075.142.149 1.252.213.632 9.444-.066z"/><path d="m590.194 187.163h9.487l.263-1.628.056-20.112-.797-.797h-12.736l-.021-1.065-.017-1.064-.179-.951-.659-.413-2.787.074-.594-.367v-2.203l-3.881-.147v-2.504l21.035-.25.626-.405v-20.451l-1.209-.303-17.834.305-2.743-.342v-2.4l2.323-.319h1.683v-2.244l1.127-.256 3.005-.129.251-3.256 13.272-.25v-22.037l-9.14-.06-9.141-.061-.675.432-.345 1.693-4.489.25-.25 2.504-3.621.282-.299.299-.196 2.925-.014.376h-3.686l-.267 4.287-.179.171-3.255.146-.857.411-.145 4.125-3.756.25-.251 5.009-3.005.129-1.13.257.128 35.924 3.882.146.049 4.362.346 1.252 3.736.25.143 4.863 2.057.073 2.057.072.144 4.633h3.676l.534.643.077 1.494.076 1.494 3.757.251.152 2.378h4.129l.601.601v1.653z"/><path d="m407.063 187.163h8.058l.567-.684-.13-21.478-12.145-.134v-3.706l-.304-.792h-3.719l-.273-.714-.155-2.667-.056-1.127-3.881-.008-.632-.401.131-20.25 4.007-.251.626-.405v-3.968l1.127-.256 3.005-.129.145-4.132 5.113-.045 6.971-.206.143-.143.139-21.377-.523-.523-16.746.133-.155 1.876-1.096.251-4.007.126-.076 1.19-.077 1.189-2.852.007-1.127.302v3.447l-2.629.007-1.127.302v4.136l-1.565.313h-2.924l-.144 4.633-3.881.146-.021.355-.263 4.507-.203.626h-3.714l-.281 2.63-.021 31.051.304 2.359 3.82.145.142 5.33 3.706.188.409.407.251 4.343 3.991.148.383.603.007 3.859 1.816.074 1.815.073.251 3.506 1.927.073 1.928.073.151 2.358 4.007.126 1.127.259v1.644l.6.601h8.058z"/><path d="m229.68 186.773 6.692-.014.335-.334.007-10.397.01-10.396-.292-.292-9.297.05-1.267-.318v-4.203l-3.13-.035-.934-.367-.101-3.846-.306-.306-3.255-.083-.285-.285-.09-14.505-.09-14.504.445-.876h12.504v-7.513l-.626-.038-3.353.071-1.03-.551v-4.22l-4.382-.145-.148-3.38h-1.918l-1.565-.314-.007-12.833-.392-.618-21.164-.064-.318.318-.196 12.88-.585.372-2.128.008-.05 1.127.089 1.904-.602.725h-3.445l-.035 1.127.007 3.157-.681.262-4.673.087v7.499l11.769.14.689.258-.134 18.15-.134 18.15.581.37 1.717.051 1.716.05.272.272.14 3.14.035 2.043.877-.004 1.314.045 1.315.045v5.008h4.022l.108.313.108.313.24 3.506.028.603 3.381.148.131 2.504.254 1.127 2.62.008 1.126.302v2.428l5.134.143.155 1.6 2.099.152 6.692-.014z"/><path d="m81.407 186.736 7.544-.051.242-.242.014-20.834-.282-.282-9.926-.017-.904-.466.103-1.345-.075-2.879h-4.007l-.083-.626-.116-2.254-.05-1.628h-3.945l-.574-.692.169-20.631.719-.455 3.631-.008.007-2.629.29-1.082 4.086-.421.25-4.507h10.518l.121 2.754.284 2.129h3.663l.296 1.48.075 39.713-.014 14.645.532.329 20.458.014.379-.381-.107-64.63-.29-.289-2.608-.057-.876-.089-.006-2.379-.302-1.827-3.91-.178-.346-.346-.162-1.655-.035-2.609-3.882-.146-.132-2.254-.253-1.127h-3.487l-.25-1.126-.067-.877-.068-.876-4.416-.085-.683-.262-.08-.828-.079-.829h-18.03l-.251 1.753-1.753.082-4.632.043v2.701l-.793.304h-3.19l.082 2.998-.537.538-3.201.101-.143 4.323-1.109.297-3.361.007-.144 4.382-3.381.148-.063.103-.315 5.258-4.07.145-.165 1.032-.166 1.033.07 33.152.332.536 3.749.162.072 2.692.071 2.692.859.044 1.145-.038 1.146-.039.568.685.146 4.481 3.923.084.333.333.177 4.219 1.076.242 2.504.131.25 3.505 3.757.251.162 1.997.551.664 4.318-.125.603.373v1.431l.499.167 7.544-.051z"/><path d="m250.899 186.714 9.882-.074.141-.141.014-60.387.641-.246 13.341-.062.172.279.173.279-.063 11.058-.123.122-4.125.141-.305 1.624.117.326.117.327-.451.876h-5.921l-.244 2.88.09 12.771 2.886 6.26 1.378 3.267.564.991 1.318 3.255 1.421 3.049 1.358 3.108 1.358 3.108 1.137 2.504 1.355 3.005.702 1.628 8.016.041 12.639.05.241-.242-1.951-4.983-1.038-2.104v-.532l-.482-.869-1.734-4.257-1.03-2.505-1.031-2.504-.445-1.001-.911-2.254-.911-2.254-.478-.887-1.053-2.869-.438-.476v-1.09l-.752-.624v-.721l-1.195-2.598-.885-2.402.454-.453 3.755-.15.251-4.109.501-.497 3.248-.152.14-4.733.618-.393 1.319-.008.302-1.126.007-17.905-.375-.064-1.118-.118-.761-.631v-2.976l-.518-.969h-2.696l-.792-.304v-3.924l-.518-.319-3.739-.283-.056-1.305.083-.448-.314-1.43h-3.676l-.792-.304v-1.909l-.304-.792h-3.899l-.304-.792v-1.188l-7.888-.149-6.081.154.12.461.121.461-.564 1.053h-3.238v2.52l-.626.213-3.724.147-.056 1.753-.102 1.608-4.382.144-.133 4.233-.618.41-2.755-.051-.626.041-.007 3.881-.385.605-4.491.146-.127 64.699 1.379.159 9.882-.074-.01.001z"/><path d="m150.059 186.602 10.074-.065.049-1.554.355-.575h4.728l.007-1.878.464-.733 3.535-.2v-2.602l.634-.866 2.891-.167.219-.219.075-3.861.563-.35 3.497-.175.096-.096.113-3.752.229-.626h3.668l-.09-20.66-4.372-.031-.233-.233-.152-3.865-1.252-.045-2.611.078-.238-1.162-.154-1.745-.153-1.744-.136-.136-27.009-.08-.877-.445v-3.93l-1.126-.302-3.131-.008v-3.953l.711-.273 3.421.094.148-4.254.462-.462 10.265-.115.544.656.1 4.175 3.255.138 1.081.235-.208.879.38 3.198 20.284-.02 1.001-.048.094-12.771-.594-.053-2.838-.141-.543-.336v-4.228l-2.128-.05-1.503.059-.724-.474-.042-3.767-.353-.353-3.05-.128-.314-.314-.206-3.236-2.321-.059-1.502-.324v-2.246l-5.008-.25-.153-1.831-1.099-.246-19.563-.078-.47 1.904-4.758.251-.16 2.245-.592.376-3.381.008v3.155l-.6.601h-3.156v3.907l-.601.601h-3.887l-.144 4.632-3.602.147-.154 6.114.25 15.025 2.755-.019 1.252.303.25 4.223 3.573.146.309 1.545v2.191l3.631-.002 25.375.127.367.367.119 3.826.568.35 3.033.084.463.286v3.697l-.304.188-.303.187-3.525.03-.148 3.992-.603.383-10.339.008-.304-.793v-3.966h-3.945l-.491-.626-.111-3.503-.105-.105-10.821-.144-10.821-.144v13.287h3.772l.246.642.057 1.87.057 1.87 4.382.145.035 1.107.094 3.255 3.756.251.147 3.36 3.859.146.151 2.612 2.554.071 2.554.071.14 1.252.247 1.133z"/><path d="m334.457 186.797 9.982-.009.164-1.503.487-.501 4.202-.011.228-.238.255-1.931.424-.423 3.506-.151.076-1.493.077-1.494.515-.621 3.088-.148.077-3.155.303-1.206 3.877-.146.148-3.983.521-.628 3.337-.147.146-4.731.541-.653h3.165l.228-.376.314-33.925-.316-1.258h-3.422l-.352-.569.083-4.94-1.138-.076-2.408-.121-.346-.343-.251-4.343-4.132-.146-.056-2.358.095-.483-.309-1.646h-3.133l-.601-.601v-2.851l-.792-.304h-2.917l-.344-2.505-1.08-.091-1.753-.067-2.098-.092-.334-2.229-20.337.101-.444 1.878-1.829.059-2.587.066-.385.385-.283 2.119-3.756.25-.251 3.506-3.506.25-.25 4.258-4.092.144-.244 1.859-.035 2.411-.289.469h-3.71l-.142 5.384-3.588.146-.548.66.129 34.753 3.741.149.383.602.007 4.883 1.878.094 1.597.031.509.504.148 4.254 1.878.061 1.878.061.626.238v4.273h3.476l.142.229.142.229.318 3.047 1.056.089 2.378.078.24.24.224 1.221.036 1.109 4.852.143.428 1.753.173.521 9.982-.01zm.021-21.728-5.452.067-.207-.636-.171-3.604-.32-.319-3.573-.135-.45-.45-.149-3.755-4.187-.347-.218-.219v-20.405l.314-.315 4.015-.091.163-.162.126-3.753.237-.313.237-.313h3.642l.228-.626.104-3.256.402-.405 10.398.037.441.273v4.227h3.464l.793.304v3.412l.304.792h3.169l1.29.49-.107 20.345-1.183.45h-3.473v3.907l-.601.601h-3.636l-.145 4.132-5.453.067z"/></g></svg>