<svg clip-rule="evenodd" fill-rule="evenodd" stroke-linejoin="round" stroke-miterlimit="2" viewBox="0 0 600 110" xmlns="http://www.w3.org/2000/svg"><g fill="#fff"><path d="m68.938 38.346v-4.908h-4.72v-5.096h-4.341v-3.776h-4.53v-3.398h-6.04v-1.887h-19.443v1.887h-7.551v3.398h-4.341v3.776h-3.775v5.096h-4.986v4.53h-4.341v6.418h-4.87v39.414h4.87v5.701h4.341v5.773h4.608v5.174h3.964v4.153h4.342v2.832h6.04v2.265h17.744v-23.595h-11.892v-5.097h-4.342v-5.096h-5.097v-23.218h5.097v-4.53h4.342v-4.909h11.703v4.909h4.19v61.536h23.558v-71.352z" fill-rule="nonzero"/><path d="m469.586 38.346v-4.908h-4.718v-5.096h-4.343v-3.776h-4.53v-3.398h-6.041v-1.887h-19.442v1.887h-7.55v3.398h-4.342v3.776h-3.775v5.096h-4.984v4.53h-4.343v6.418h-4.869v39.414h4.869v5.701h4.343v5.773h4.607v5.174h3.964v4.153h4.341v2.832h6.04v2.265h17.744v-23.595h-11.893v-5.097h-4.341v-5.096h-5.096v-23.218h5.096v-4.53h4.341v-4.909h11.704v4.909h4.191v61.536h23.557v-71.352zm-23.382-15.315v1.887h6.041v3.398h4.53c0-.001 0 3.776 0 3.776h4.343c0-.001 0 5.096 0 5.096h4.718v4.908h4.53v63.852h-16.057v-61.536h-4.191v-4.909h-19.204v4.909h-4.341v4.53h-5.096v30.718h5.096v5.096h4.341v5.097h11.893v16.095h-10.244v-2.265h-6.04v-2.832h-4.341v-4.153h-3.964v-5.174h-4.607v-5.773h-4.343v-5.701h-4.869v-31.914h4.869v-6.418h4.343v-4.53h4.984v-5.097c0 .001 3.775.001 3.775.001v-3.777c0 .001 4.342.001 4.342.001v-3.398h7.55v-1.887z"/><path d="m545.144 90.634v4.906h-4.718v5.097h-4.343v3.776h-4.53v3.397h-6.041v1.887h-19.442v-1.887h-7.55v-3.397h-4.342v-3.776h-3.775v-5.097h-4.984v-4.53h-4.343v-6.417h-4.869v-39.415h4.869v-5.7h4.343v-5.774h4.607v-5.174h3.964v-4.153h4.341v-2.832h6.04v-2.265h17.744v23.596h-11.893v5.096h-4.341v5.096h-5.096v23.218h5.096v4.531h4.341v4.908h11.704v-4.908h4.191v-79.884h23.557v89.701zm-43.063-65.339h6.04v-2.265h10.244v16.096h-11.893v5.096h-4.341v5.096h-5.096v30.718h5.096v4.531h4.341v4.908h19.204v-4.908h4.191v-79.884h16.057v82.201h-4.53v4.906h-4.718v5.097h-4.343v3.776h-4.53v3.397h-6.041v1.887h-11.942v-1.887h-7.55v-3.397h-4.342v-3.776h-3.775v-5.097h-4.984v-4.53h-4.343v-6.417h-4.868c-.001 0-.001-31.915-.001-31.915h4.869v-5.7h4.343v-5.774h4.607v-5.174h3.964v-4.153h4.341z"/><g fill-rule="nonzero"><path d="m145.669 53.447v-14.535h-4.53v-5.379h-4.661v-4.946h-4.21v-3.832h-4.437v-3.02h-5.473v-2.455h-22.652v2.455h-6.041v3.02h-4.058v3.832h-4.247v4.946h-4.908v5.096h-4.059v23.689h4.531v4.626h4.625v4.247h31.806v4.718h4.72v4.626h-4.909v4.813h-12.175v-5.003h-4.341v-4.719h-24.257v14.44h4.531v4.909h4.719v4.907h4.719v3.87h4.152v3.02h5.663v2.926h22.464v-2.926h5.096v-3.02h4.531v-3.87h4.53v-4.813h4.435v-4.908h4.436v-22.651h-5.473v-4.436h-4.626v-5.286h-30.673v-4.718h-4.625v-4.626h4.625v-5.001h12.175v5.379h4.53v4.625z"/><path d="m195.178 86.008v-5.002h-4.624v-4.719h-4.247v-32.75h14.062v-8.401h-5.474v-5.19h-5.096v-3.964h-3.492v-14.818h-24.162v14.818h-3.115v3.964h-4.718v5.19h-5.946v8.401h13.779v40.3h4.719v5.663h3.964v5.475h4.624v5.568h4.059v4.153h4.058v3.02h6.136v1.982h17.082v-23.69z"/><path d="m257.427 70.812h5.087v-5.096h4.247v-5.757h2.549v-21.236h-3.115v-4.719h-3.964v-5.003h-4.625v-3.964h-5.097v-3.019h-4.907v-2.738h-15.196v2.738h-4.247v3.019h-4.719v3.964h-5.096v5.003h-4.531v4.624h-5.096v71.07h23.218v-66.256h15.667v12.647h-4.814v3.398h-7.268v16.894l14.158 33.317h23.973z"/><path d="m321.26 75.533v5.097h-4.718v4.718h-12.082v-4.718h-4.342v-5.097h-5.097v-22.086h5.097v-5.097h4.342v-4.718h12.082v4.718h4.718v5.097h4.719v22.086zm24.256-30.485v-6.042h-4.719v-5.096h-4.814v-5.097h-4.247v-3.869h-4.341v-2.831h-5.474v-2.832h-22.746v2.832h-5.38v2.831h-4.72v3.869h-3.868v5.097h-5.003v5.096h-4.341v6.042h-4.626v38.884h4.626v6.041h4.341v5.097h5.003v5.097h3.868v3.868h4.72v2.832h5.38v2.831h22.746v-2.831h5.474v-2.832h4.341v-3.868h4.247v-5.097h4.814v-5.097h4.719v-6.041h4.247v-38.884z"/></g><path d="m352.218 45.048v38.884h4.623v6.041h4.342v5.097h5.003v5.097h3.87v3.868h4.718v2.832h5.38v2.831h18.97v-24.35h-13.685v-4.718h-4.341v-5.097h-5.096v-22.086h5.096v-5.097h4.341v-4.718h13.685v-24.351h-18.97v2.832h-5.38v2.831h-4.718v3.869h-3.87v5.097h-5.003v5.096h-4.342v6.042zm26.306-19.185h5.38v-2.832h11.47v16.851h-13.685v4.718h-4.341v5.097h-5.096v29.586h5.096v5.097h4.341v4.718h13.685v16.85h-11.47v-2.831h-5.38v-2.832h-4.718v-3.868h-3.87v-5.097h-5.003v-5.097h-4.342v-6.041h-4.623v-31.384h4.623v-6.042h4.342v-5.096h5.003v-5.097h3.87v-3.869h4.718v-2.831z"/><path d="m600 85.348h-15.268v-4.718h-4.341v-5.097h19.609v-22.086h-19.609v-5.097h4.341v-4.718h15.268v-24.351h-20.554v2.832h-5.38v2.831h-4.718v3.869h-3.87v5.097h-5.003v5.096h-4.342v6.042h-4.623v38.884h4.623v6.041h4.342v5.097h5.003v5.097h3.87v3.868h4.718v2.832h5.38v2.831h20.554zm-22.184-59.485h5.38v-2.832h13.054v16.851h-15.268v4.718h-4.341v12.597h19.609v14.586h-19.609v12.597h4.341v4.718h15.268v16.85h-13.054v-2.831h-5.38v-2.832h-4.718v-3.868h-3.87v-5.097h-5.003v-5.097h-4.342v-6.041h-4.623v-31.384h4.623v-6.042h4.342v-5.096h5.003v-5.097h3.87v-3.869h4.718v-2.831z"/></g></svg>