<svg clip-rule="evenodd" fill-rule="evenodd" stroke-linejoin="round" stroke-miterlimit="2" viewBox="0 0 600 279" xmlns="http://www.w3.org/2000/svg"><g fill="#fff" fill-rule="nonzero"><path d="m165.717 180.649v-6.734h-6.476v-6.994h-5.957v-5.182h-6.217v-4.662h-8.289v-2.59h-26.681v2.59h-10.362v4.662h-5.957v5.182h-5.18v6.994h-6.842v6.217h-5.957v8.806h-6.683v54.088h6.683v7.822h5.957v7.923h6.323v7.1h5.44v5.699h5.958v3.886h8.289v3.108h24.35v-32.379h-16.319v-6.994h-5.959v-6.993h-6.994v-31.862h6.994v-6.216h5.959v-6.736h16.059v6.736h5.751v84.444h32.327v-97.915z"/><path d="m421.036 180.649v-6.734h-6.475v-6.994h-5.959v-5.182h-6.216v-4.662h-8.291v-2.59h-26.679v2.59h-10.36v4.662h-5.959v5.182h-5.18v6.994h-6.84v6.217h-5.959v8.806h-6.682v54.088h6.682v7.822h5.959v7.923h6.322v7.1h5.44v5.699h5.957v3.886h8.289v3.108h24.349v-32.379h-16.32v-6.994h-5.958v-6.993h-6.992v-31.862h6.992v-6.216h5.958v-6.736h16.061v6.736h5.75v84.444h32.328v-97.915z"/><path d="m524.226 252.403v6.733h-6.474v6.994h-5.959v5.181h-6.217v4.663h-8.29v2.589h-26.68v-2.589h-10.36v-4.663h-5.959v-5.181h-5.18v-6.994h-6.84v-6.217h-5.959v-8.806h-6.681v-54.088h6.681v-7.822h5.959v-7.924h6.323v-7.099h5.439v-5.699h5.958v-3.886h8.288v-3.108h24.35v32.38h-16.321v6.992h-5.957v6.994h-6.992v31.861h6.992v6.217h5.957v6.736h16.061v-6.736h5.751v-109.622h32.327v123.094z"/><path d="m241.077 225.203h6.981v-6.994h5.829v-7.9h3.497v-29.141h-4.275v-6.477h-5.439v-6.865h-6.348v-5.439h-6.994v-4.144h-6.734v-3.756h-20.853v3.756h-5.828v4.144h-6.475v5.439h-6.994v6.865h-6.216v6.346h-6.994v97.528h31.861v-90.923h21.499v17.356h-6.605v4.663h-9.974v23.184l19.428 45.72h32.898z"/><path d="m324.839 245.15h-18.779v-6.475h-5.957v-6.994h-6.994v-30.309h6.994v-6.994h5.957v-6.474h18.779v-33.416h-26.032v3.886h-7.383v3.885h-6.475v5.309h-5.31v6.994h-6.865v6.994h-5.959v8.29h-6.344v53.361h6.344v8.29h5.959v6.994h6.865v6.994h5.31v5.309h6.475v3.885h7.383v3.886h26.032z"/><path d="m600 245.15h-20.952v-6.475h-5.957v-6.994h26.909v-30.309h-26.909v-6.994h5.957v-6.474h20.952v-33.416h-28.206v3.886h-7.382v3.885h-6.475v5.309h-5.311v6.994h-6.865v6.994h-5.958v8.29h-6.345v53.361h6.345v8.29h5.958v6.994h6.865v6.994h5.311v5.309h6.475v3.885h7.382v3.886h28.206z"/><path d="m108.047 100.303.456 2.328c.723 3.689.204 7.47-1.556 11.343-1.467 3.312-3.866 6.503-7.196 9.574-2.55 2.416-5.327 4.448-8.332 6.095-3.004 1.647-5.67 2.699-7.999 3.155-4.174.819-7.483.913-9.926.282-2.443-.63-4.234-1.665-5.373-3.104-1.139-1.44-1.87-2.985-2.193-4.635-.419-2.136-.033-4.152 1.158-6.048s2.835-2.899 4.93-3.008c1.785-.15 3.259.292 4.42 1.325 1.16 1.034 2.018 2.454 2.572 4.259.418 2.136.393 3.805-.076 5.007 5.713-2.23 10.246-5.589 13.599-10.076 3.354-4.487 4.545-9.206 3.575-14.157l-.171-.875c-.571-2.912-2.384-5.732-5.437-8.459-3.405-2.963-6.818-5.973-10.238-9.031-.686-3.496 2.395-7.578 9.242-12.245 10.485-7.199 16.77-11.909 18.855-14.129 6.446-6.709 8.842-14.286 7.186-22.732-2.321-11.842-11.684-16.154-28.091-12.939-7.765 1.522-15.163 4.534-22.194 9.036-7.032 4.503-13.939 10.796-20.722 18.881-5.475 6.516-10.537 13.858-15.186 22.028-4.648 8.17-8.433 16.371-11.356 24.604-2.922 8.233-4.648 15.628-5.178 22.186-.271 4.286-.092 8.03.536 11.233.742 3.786 1.777 7.01 3.105 9.673 3.18 5.929 7.827 8.294 13.942 7.096 2.912-.571 5.498-1.909 7.757-4.015 2.259-2.105 4.297-4.95 6.114-8.533 2.955-6.021 5.479-13.722 7.572-23.103l4.943-22.593 1.566-5.904c3.203-10.404 5.588-17.524 7.156-21.36 3.819-9.316 7.713-15.674 11.683-19.073 2.16-1.835 4.392-3.433 6.696-4.792 2.303-1.359 4.378-2.219 6.224-2.581 1.748-.343 2.766-.038 3.054.915.247.758-1.43 2.749-5.031 5.974-2.472 2.3-4.626 5.192-6.462 8.678-3.226 6.176-6.9 18.035-11.023 35.579l-1.745 7.296-3.521 15.207c-1.202 4.669-1.971 7.691-2.307 9.068-1.453 4.924-3.255 9.611-5.407 14.063-1.331 2.984-2.913 5.713-4.744 8.189-2.868 3.89-5.926 6.935-9.174 9.133-3.249 2.198-6.717 3.658-10.406 4.381-5.341 1.047-10.558.533-15.652-1.542-5.093-2.075-9.243-5.37-12.447-9.886-2.354-3.267-3.921-6.891-4.702-10.873-.17-.871-.31-2.103-.42-3.697l-.123-6.021c.091-3.648.401-7.338.931-11.07.53-3.733 1.296-7.411 2.3-11.035 5.452-20.526 16.774-38.874 33.967-55.045 16.259-15.283 33.175-24.646 50.745-28.09 12.037-2.36 21.833-2.011 29.387 1.044 7.555 3.055 12.198 9 13.929 17.834 2.131 10.873-1.524 20.258-10.964 28.157-10.714 6.031-21.427 12.063-32.138 18.094l.517 1.107c5.095 1.823 9.35 3.987 12.766 6.494 3.415 2.507 5.617 6.285 6.607 11.333zm172.7-33.849-6.114 22.817-8.947 33.811c-.924 3.51-1.845 6.009-2.761 7.5-1.135 1.936-2.478 3.056-4.03 3.36-.682.133-1.4.073-2.154-.183-2.17-.786-3.444-2.15-3.824-4.091-.305-1.552-.124-3.452.544-5.699l9.96-32.5 1.681-5.318c-1.484 2.207-3.355 4.237-5.613 6.088-3.132 2.531-6.008 4.053-8.63 4.567-2.72.533-5.036.028-6.95-1.513-1.431-1.129-2.791-2.928-4.081-5.398-1.175 2.246-2.872 4.644-5.091 7.196-1.832 1.974-3.749 3.636-5.754 4.985-2.004 1.35-4.025 2.224-6.063 2.624-3.979.78-7.661-.263-11.047-3.128-1.083-.895-2.223-2.082-3.42-3.561-.448.792-.98 1.677-1.596 2.654-.616.978-1.264 1.786-1.945 2.424-2.318 2.57-4.964 4.879-7.941 6.925s-5.775 3.326-8.394 3.839c-2.622.514-5.032.306-7.231-.624-2.199-.931-4.254-2.419-6.165-4.465l-1.943-2.19-2.283 3.018c-4.738 6.171-9.922 9.808-15.554 10.912-2.619.513-5.032.281-7.24-.697-2.209-.978-4.221-2.499-6.038-4.564l-1.824-2.361-2.109 3.132c-1.91 2.592-3.842 4.559-5.797 5.901-1.955 1.341-4.242 2.268-6.861 2.782-4.566.895-8.063-.487-10.494-4.145-1.659-2.296-2.831-5.191-3.515-8.683-.629-3.206-.427-7.328.603-12.366 1.003-4.128 2.405-8.158 4.206-12.09 1.801-3.933 4.095-7.784 6.882-11.554 3.432-4.604 7.234-8.475 11.408-11.613 4.173-3.137 8.737-5.192 13.69-6.163 6.017-1.179 9.501.659 10.453 5.515.556 1.804.113 3.655-1.33 5.553-.801 1.062-1.823 1.765-3.065 2.11-1.651.324-2.965.431-3.943.321s-1.812-.375-2.5-.795c-.689-.421-1.225-1.097-1.609-2.029s-.756-1.414-1.114-1.445c-.358-.032-.78 0-1.266.095-2.329.457-5.014 2.446-8.055 5.968-2.629 3.035-4.975 6.619-7.038 10.753-2.063 4.135-3.55 8.382-4.459 12.743-.91 4.361-1.022 8.289-.337 11.785.304 1.552.789 2.868 1.455 3.948.665 1.08 1.872 1.449 3.62 1.107 2.136-.419 4.453-2.739 6.951-6.96 1.972-3.309 3.988-7.685 6.047-13.128.997-2.616 2.002-5.461 3.014-8.532 1.011-3.072 1.792-5.518 2.343-7.34.353-.773 2.081-1.464 5.186-2.073 1.943-.381 3.579-.525 4.906-.433s1.961.498 1.902 1.217l-3.229 14.393c-.751 3.371-1.216 5.63-1.394 6.775-.355 1.783-.674 4.013-.955 6.689-.043.815-.037 1.367.02 1.658.191.971.741 1.595 1.652 1.87s2.046.28 3.406.013c1.457-.285 3.516-1.873 6.175-4.763s4.272-4.946 4.838-6.168c-.285-1.454-.556-2.837-.813-4.148s-.44-2.762-.548-4.352c-.666-3.398-.92-6.751-.762-10.058.157-3.308.564-7.142 1.22-11.504.395-2.095.811-4.218 1.248-6.37.436-2.151.929-4.39 1.48-6.716 3.25-12.733 7.845-24.269 13.784-34.606 6.54-11.363 12.724-17.616 18.551-18.758 2.815-.552 4.985-.146 6.512 1.218 1.527 1.363 2.576 3.501 3.147 6.413.97 4.951.615 11.624-1.064 20.019-1.229 6.086-3.108 12.704-5.638 19.854-.705 2.055-1.41 3.982-2.115 5.783-.706 1.801-1.607 4.02-2.706 6.656-1.801 4.183-3.718 8.162-5.749 11.937-2.033 3.774-4.492 7.81-7.378 12.108l-6.439 8.82c.476 2.427 1.686 4.483 3.63 6.169s4.372 2.244 7.284 1.673c1.94-.38 4.225-1.837 6.854-4.37 2.122-2.028 3.837-4.078 5.145-6.149l-.747-9.226c-.285-7.103.548-14.423 2.497-21.961l1.887-6.571c2.891-9.439 7.117-18.484 12.679-27.134 5.561-8.65 10.186-13.337 13.875-14.06 2.429-.476 4.286-.134 5.572 1.026 1.285 1.16 2.195 3.099 2.727 5.815.818 4.175.623 9.48-.585 15.918-1.209 6.437-2.97 12.756-5.283 18.956-1.685 4.258-3.466 8.287-5.343 12.085-2.403 4.704-4.804 8.652-7.202 11.845-1.914 2.59-4.146 5.093-6.696 7.509-.022.408.043.999.195 1.776.362 1.845 1.176 3.299 2.443 4.362 1.266 1.062 3.21 1.336 5.832.822 2.332-.457 4.541-2.049 6.627-4.776 2.087-2.727 3.945-6.871 5.574-12.433l.533-1.922c.984-3.721 2.113-7.47 3.388-11.245 1.022-3.025 2.2-6.279 3.532-9.765l4.055-10.928c.138-.328.835-.767 2.089-1.316 1.253-.549 2.462-.937 3.627-1.165 1.845-.362 3.335-.477 4.468-.346 1.133.132 1.591.672 1.374 1.618-.038.312-.244 1.059-.618 2.24-.686 2.152-1.51 4.633-2.473 7.443-1.237 3.467-2.474 7.187-3.709 11.161-1.493 4.725-2.593 8.62-3.303 11.685-1.183 4.766-1.555 8.266-1.117 10.5.361 1.843 1.318 2.612 2.871 2.308 2.328-.457 4.389-1.768 6.183-3.933 1.793-2.165 3.855-6.046 6.185-11.643 1.647-3.953 3.102-7.843 4.367-11.67s2.439-7.61 3.521-11.348l2.424-9.247c.273-.659.978-1.176 2.114-1.549 1.136-.374 2.384-.694 3.744-.96 1.94-.38 3.526-.515 4.759-.405 1.232.111 1.721.545 1.466 1.303l-2.273 8.461zm-84.892-14.21c2.647-7.576 4.995-15.394 7.045-23.456 2.323-9.226 3.209-15.247 2.658-18.061-.229-1.167-.732-1.675-1.508-1.523-1.745.342-4.444 3.669-8.096 9.981-3.653 6.312-6.374 12.365-8.162 18.159-1.789 5.794-3.018 10.067-3.687 12.82-1.182 4.766-2.112 9.535-2.789 14.307-.84 6.009-1.067 12.304-.682 18.882 4.78-7.489 8.55-14.478 11.312-20.966zm35.513-3.181c1.396-4.71 2.618-9.284 3.665-13.722 1.301-5.697 1.771-9.468 1.409-11.314-.286-1.458-.962-2.082-2.028-1.873-1.556.305-3.75 3.256-6.585 8.854-2.463 4.919-4.763 10.41-6.9 16.474l-2.627 9.739c-.77 3.274-1.287 6.298-1.549 9.072s-.335 6.266-.217 10.476c3.023-3.617 5.598-7.196 7.727-10.739 2.128-3.543 3.878-7.211 5.251-11.006z"/></g></svg>