<svg clip-rule="evenodd" fill-rule="evenodd" stroke-linejoin="round" stroke-miterlimit="2" viewBox="0 0 600 187" xmlns="http://www.w3.org/2000/svg"><g fill="#fff" fill-rule="nonzero"><path d="m72.639 67.337.306 1.566c.486 2.48.138 5.021-1.046 7.626-.986 2.226-2.599 4.371-4.837 6.436-1.715 1.624-3.582 2.99-5.602 4.098-2.02 1.107-3.812 1.814-5.378 2.121-2.806.55-5.03.613-6.673.189-1.642-.423-2.846-1.119-3.612-2.087s-1.257-2.006-1.475-3.116c-.281-1.436-.021-2.791.779-4.066.801-1.275 1.906-1.949 3.314-2.022 1.201-.101 2.191.196 2.972.891.78.695 1.356 1.649 1.729 2.863.281 1.436.264 2.558-.051 3.366 3.841-1.499 6.888-3.757 9.143-6.774 2.254-3.017 3.055-6.189 2.403-9.517l-.115-.589c-.384-1.957-1.603-3.853-3.656-5.686-2.289-1.992-4.583-4.016-6.882-6.072-.461-2.35 1.61-5.094 6.213-8.232 7.049-4.84 11.274-8.006 12.676-9.499 4.334-4.51 5.944-9.604 4.831-15.283-1.56-7.96-7.855-10.86-18.885-8.698-5.22 1.023-10.194 3.048-14.921 6.075s-9.371 7.258-13.931 12.694c-3.681 4.38-7.084 9.316-10.209 14.808-3.125 5.493-5.67 11.006-7.635 16.541s-3.125 10.507-3.481 14.916c-.182 2.881-.062 5.399.36 7.552.499 2.545 1.195 4.713 2.088 6.502 2.138 3.987 5.262 5.577 9.373 4.771 1.958-.384 3.696-1.283 5.215-2.699 1.518-1.415 2.889-3.328 4.11-5.737 1.987-4.048 3.683-9.225 5.09-15.531l3.324-15.189 1.052-3.97c2.154-6.994 3.757-11.781 4.811-14.36 2.568-6.263 5.186-10.537 7.855-12.822 1.452-1.234 2.952-2.308 4.501-3.222 1.549-.913 2.944-1.492 4.185-1.735 1.175-.23 1.859-.025 2.053.615.166.509-.961 1.848-3.382 4.016-1.662 1.546-3.11 3.491-4.345 5.834-2.168 4.152-4.639 12.125-7.41 23.92l-1.173 4.905-2.368 10.223c-.807 3.139-1.324 5.171-1.55 6.096-.977 3.311-2.189 6.462-3.635 9.455-.896 2.006-1.959 3.841-3.19 5.505-1.928 2.616-3.984 4.662-6.168 6.14s-4.515 2.459-6.995 2.945c-3.591.704-7.099.359-10.523-1.036s-6.214-3.611-8.368-6.646c-1.582-2.197-2.636-4.633-3.161-7.31-.114-.586-.209-1.414-.282-2.486l-.083-4.047c.061-2.453.27-4.934.626-7.443s.871-4.982 1.546-7.418c3.665-13.8 11.277-26.135 22.836-37.006 10.931-10.275 22.303-16.57 34.115-18.885 8.092-1.586 14.678-1.352 19.757.702 5.078 2.054 8.2 6.051 9.364 11.99 1.433 7.309-1.025 13.619-7.371 18.929-7.203 4.055-14.405 8.11-21.606 12.164l.348.745c3.425 1.225 6.285 2.68 8.582 4.366 2.296 1.685 3.776 4.225 4.442 7.618zm116.103-22.756-4.11 15.34-6.015 22.73c-.621 2.36-1.24 4.041-1.856 5.043-.763 1.301-1.666 2.054-2.709 2.259-.459.089-.941.048-1.448-.123-1.459-.529-2.316-1.446-2.571-2.75-.205-1.044-.083-2.321.365-3.832l6.697-21.85 1.13-3.575c-.998 1.484-2.256 2.849-3.774 4.093-2.105 1.702-4.039 2.725-5.802 3.07-1.828.359-3.386.02-4.672-1.017-.962-.758-1.876-1.968-2.744-3.628-.79 1.509-1.931 3.122-3.423 4.837-1.231 1.327-2.52 2.444-3.867 3.352-1.348.907-2.707 1.495-4.077 1.763-2.675.525-5.15-.176-7.426-2.102-.729-.602-1.495-1.4-2.3-2.394-.301.532-.659 1.127-1.073 1.784s-.85 1.2-1.307 1.629c-1.558 1.729-3.338 3.281-5.339 4.656-2.001 1.376-3.882 2.236-5.643 2.581-1.763.346-3.383.206-4.861-.42-1.479-.625-2.86-1.626-4.145-3.001l-1.306-1.472-1.535 2.028c-3.185 4.149-6.671 6.594-10.457 7.336-1.761.345-3.383.189-4.868-.468-1.484-.657-2.837-1.68-4.058-3.068l-1.227-1.587-1.417 2.105c-1.284 1.743-2.584 3.065-3.898 3.967s-2.852 1.525-4.613 1.87c-3.069.602-5.42-.327-7.054-2.787-1.116-1.543-1.904-3.489-2.364-5.837-.422-2.155-.287-4.926.406-8.313.674-2.775 1.617-5.485 2.828-8.129 1.21-2.643 2.753-5.232 4.626-7.767 2.307-3.095 4.864-5.698 7.67-7.807 2.805-2.109 5.873-3.49 9.203-4.143 4.045-.793 6.388.443 7.028 3.707.374 1.213.076 2.458-.894 3.734-.539.713-1.226 1.186-2.061 1.418-1.11.218-1.993.289-2.651.216-.658-.074-1.218-.252-1.681-.535-.462-.283-.823-.737-1.081-1.364-.259-.627-.508-.95-.749-.972-.241-.02-.525.001-.851.065-1.566.307-3.371 1.644-5.416 4.012-1.767 2.04-3.345 4.45-4.731 7.229-1.387 2.78-2.387 5.635-2.998 8.567-.612 2.932-.687 5.572-.226 7.923.204 1.043.53 1.928.978 2.654.447.726 1.258.974 2.433.744 1.436-.281 2.994-1.841 4.674-4.679 1.325-2.225 2.681-5.167 4.065-8.826.67-1.759 1.346-3.671 2.026-5.736s1.205-3.709 1.575-4.934c.237-.52 1.4-.985 3.487-1.394 1.306-.256 2.406-.353 3.298-.291s1.318.335 1.279.818l-2.171 9.677c-.505 2.266-.818 3.784-.937 4.554-.239 1.199-.453 2.698-.642 4.497-.03.548-.025.919.013 1.115.128.653.498 1.072 1.111 1.257.612.185 1.375.188 2.289.009.98-.192 2.364-1.26 4.152-3.203 1.787-1.942 2.872-3.325 3.253-4.146-.192-.978-.374-1.907-.547-2.789-.173-.881-.296-1.856-.369-2.926-.448-2.284-.618-4.538-.512-6.762.106-2.223.379-4.801.82-7.733.266-1.409.545-2.836.839-4.283.293-1.446.625-2.951.995-4.515 2.186-8.56 5.274-16.315 9.267-23.265 4.397-7.639 8.554-11.843 12.472-12.611 1.892-.371 3.351-.098 4.378.819 1.026.916 1.732 2.354 2.115 4.311.653 3.329.414 7.815-.715 13.459-.826 4.091-2.09 8.54-3.79 13.347-.474 1.382-.948 2.678-1.422 3.888-.475 1.211-1.081 2.703-1.819 4.475-1.211 2.813-2.5 5.487-3.866 8.025s-3.019 5.251-4.959 8.14l-4.329 5.93c.32 1.631 1.133 3.014 2.44 4.147 1.307 1.134 2.939 1.509 4.897 1.125 1.305-.256 2.841-1.235 4.608-2.938 1.427-1.364 2.579-2.741 3.459-4.134l-.502-6.202c-.192-4.775.368-9.697 1.679-14.764l1.268-4.418c1.943-6.346 4.784-12.426 8.524-18.242 3.738-5.815 6.848-8.966 9.328-9.452 1.633-.32 2.881-.09 3.746.69.864.78 1.475 2.083 1.833 3.909.55 2.806.419 6.373-.394 10.701-.812 4.328-1.996 8.576-3.551 12.744-1.133 2.863-2.33 5.571-3.592 8.124-1.616 3.163-3.23 5.817-4.842 7.964-1.287 1.741-2.787 3.424-4.501 5.048-.015.274.029.672.131 1.194.243 1.241.79 2.218 1.642 2.932.851.715 2.158.899 3.921.553 1.567-.307 3.053-1.377 4.455-3.21 1.403-1.834 2.652-4.62 3.748-8.359l.358-1.292c.661-2.502 1.42-5.022 2.278-7.56.687-2.034 1.478-4.222 2.374-6.565l2.726-7.347c.093-.221.561-.516 1.404-.885.843-.368 1.656-.63 2.439-.783 1.24-.243 2.242-.32 3.004-.232.762.089 1.069.451.923 1.088-.025.21-.163.711-.415 1.505-.461 1.447-1.015 3.115-1.662 5.004-.832 2.331-1.664 4.832-2.494 7.503-1.004 3.177-1.744 5.796-2.221 7.856-.795 3.205-1.045 5.558-.75 7.059.242 1.239.885 1.756 1.929 1.552 1.566-.307 2.951-1.188 4.157-2.644 1.206-1.455 2.592-4.065 4.159-7.828 1.106-2.657 2.085-5.272 2.935-7.845.851-2.573 1.64-5.116 2.368-7.629l1.629-6.217c.184-.443.658-.791 1.421-1.042.764-.251 1.603-.466 2.517-.645 1.304-.256 2.371-.346 3.2-.272.828.075 1.156.367.985.876l-1.528 5.688zm-57.071-9.553c1.779-5.093 3.358-10.349 4.736-15.769 1.562-6.203 2.158-10.25 1.787-12.142-.154-.785-.492-1.126-1.014-1.024-1.173.23-2.987 2.467-5.443 6.71s-4.285 8.313-5.487 12.208-2.028 6.768-2.478 8.618c-.795 3.205-1.42 6.411-1.875 9.619-.565 4.04-.718 8.272-.459 12.694 3.213-5.035 5.748-9.733 7.605-14.095zm23.875-2.138c.939-3.167 1.76-6.242 2.464-9.226.874-3.83 1.19-6.365.947-7.606-.192-.98-.647-1.399-1.363-1.259-1.046.205-2.522 2.189-4.427 5.952-1.656 3.307-3.202 6.999-4.639 11.076l-1.766 6.547c-.518 2.201-.865 4.234-1.042 6.099-.176 1.865-.225 4.212-.146 7.043 2.033-2.432 3.764-4.838 5.195-7.22 1.43-2.382 2.607-4.848 3.53-7.399z"/><path d="m113.188 121.278v-4.498h-4.326v-4.672h-3.98v-3.462h-4.153v-3.114h-5.536v-1.73h-17.823v1.73h-6.922v3.114h-3.979v3.462h-3.461v4.672h-4.57v4.152h-3.979v5.883h-4.465v36.13h4.465v5.226h3.979v5.292h4.224v4.743h3.633v3.807h3.981v2.595h5.536v2.077h16.266v-21.629h-10.901v-4.672h-3.981v-4.672h-4.672v-21.283h4.672v-4.153h3.981v-4.499h10.728v4.499h3.841v56.409h21.595v-65.407z"/><path d="m480.452 121.278v-4.498h-4.325v-4.672h-3.98v-3.462h-4.153v-3.114h-5.538v-1.73h-17.822v1.73h-6.92v3.114h-3.981v3.462h-3.46v4.672h-4.569v4.152h-3.981v5.883h-4.463v36.13h4.463v5.226h3.981v5.292h4.223v4.743h3.634v3.807h3.979v2.595h5.537v2.077h16.266v-21.629h-10.903v-4.672h-3.979v-4.672h-4.671v-21.283h4.671v-4.153h3.979v-4.499h10.729v4.499h3.842v56.409h21.594v-65.407z"/><path d="m549.715 169.209v4.498h-4.325v4.672h-3.981v3.461h-4.153v3.115h-5.537v1.729h-17.822v-1.729h-6.921v-3.115h-3.98v-3.461h-3.461v-4.672h-4.569v-4.153h-3.98v-5.882h-4.464v-36.131h4.464v-5.225h3.98v-5.293h4.224v-4.743h3.633v-3.807h3.98v-2.595h5.536v-2.077h16.266v21.63h-10.902v4.671h-3.98v4.672h-4.671v21.283h4.671v4.153h3.98v4.5h10.729v-4.5h3.841v-73.227h21.595v82.226z"/><path d="m183.526 135.121v-13.323h-4.153v-4.932h-4.273v-4.534h-3.859v-3.512h-4.067v-2.769h-5.017v-2.25h-20.764v2.25h-5.538v2.769h-3.72v3.512h-3.893v4.534h-4.499v4.672h-3.721v21.715h4.153v4.24h4.24v3.893h29.156v4.326h4.326v4.24h-4.499v4.412h-11.161v-4.586h-3.979v-4.326h-22.236v13.237h4.153v4.5h4.326v4.498h4.327v3.548h3.806v2.768h5.191v2.682h20.591v-2.682h4.672v-2.768h4.153v-3.548h4.153v-4.412h4.065v-4.499h4.067v-20.764h-5.017v-4.066h-4.241v-4.846h-28.117v-4.325h-4.239v-4.24h4.239v-4.585h11.16v4.932h4.153v4.239z"/><path d="m228.91 164.969v-4.585h-4.239v-4.326h-3.894v-30.021h12.891v-7.701h-5.018v-4.758h-4.672v-3.633h-3.201v-13.583h-22.149v13.583h-2.855v3.633h-4.325v4.758h-5.45v7.701h12.63v36.942h4.327v5.191h3.633v5.019h4.239v5.104h3.721v3.807h3.72v2.769h5.624v1.816h15.659v-21.716z"/><path d="m285.971 151.04h4.664v-4.672h3.893v-5.277h2.336v-19.467h-2.855v-4.326h-3.634v-4.586h-4.24v-3.633h-4.672v-2.768h-4.498v-2.51h-13.93v2.51h-3.893v2.768h-4.325v3.633h-4.672v4.586h-4.153v4.239h-4.672v65.148h21.283v-60.736h14.362v11.594h-4.413v3.115h-6.662v15.487l12.978 30.54h21.976z"/><path d="m344.486 155.367v4.672h-4.326v4.325h-11.074v-4.325h-3.981v-4.672h-4.671v-20.246h4.671v-4.672h3.981v-4.325h11.074v4.325h4.326v4.672h4.326v20.246zm22.235-27.945v-5.538h-4.326v-4.672h-4.413v-4.672h-3.893v-3.546h-3.979v-2.596h-5.018v-2.596h-20.851v2.596h-4.932v2.596h-4.326v3.546h-3.547v4.672h-4.585v4.672h-3.98v5.538h-4.24v35.644h4.24v5.538h3.98v4.672h4.585v4.672h3.547v3.546h4.326v2.596h4.932v2.595h20.851v-2.595h5.018v-2.596h3.979v-3.546h3.893v-4.672h4.413v-4.672h4.326v-5.538h3.893v-35.644z"/><path d="m415.862 164.364h-12.544v-4.325h-3.98v-4.672h-4.672v-20.246h4.672v-4.672h3.98v-4.325h12.544v-22.322h-17.39v2.596h-4.931v2.596h-4.325v3.546h-3.548v4.672h-4.586v4.672h-3.98v5.538h-4.238v35.644h4.238v5.538h3.98v4.672h4.586v4.672h3.548v3.546h4.325v2.596h4.931v2.595h17.39z"/><path d="m600 164.364h-13.996v-4.325h-3.979v-4.672h17.975v-20.246h-17.975v-4.672h3.979v-4.325h13.996v-22.322h-18.841v2.596h-4.932v2.596h-4.325v3.546h-3.547v4.672h-4.586v4.672h-3.981v5.538h-4.238v35.644h4.238v5.538h3.981v4.672h4.586v4.672h3.547v3.546h4.325v2.596h4.932v2.595h18.841z"/></g></svg>