<svg clip-rule="evenodd" fill-rule="evenodd" stroke-linejoin="round" stroke-miterlimit="2" viewBox="0 0 600 188" xmlns="http://www.w3.org/2000/svg"><g fill="#fff"><path d="m72.746 68.172.307 1.567c.487 2.484.137 5.029-1.048 7.637-.988 2.23-2.603 4.379-4.844 6.446-1.718 1.627-3.588 2.995-5.61 4.104-2.023 1.109-3.818 1.817-5.386 2.124-2.81.551-5.038.614-6.683.19s-2.851-1.121-3.617-2.09c-.767-.969-1.259-2.009-1.477-3.121-.282-1.438-.022-2.795.78-4.072.802-1.276 1.908-1.951 3.319-2.025 1.202-.101 2.194.196 2.976.892.781.697 1.358 1.652 1.731 2.867.282 1.439.265 2.562-.05 3.372 3.846-1.502 6.898-3.763 9.156-6.784 2.257-3.021 3.06-6.199 2.406-9.532l-.115-.589c-.384-1.961-1.605-3.859-3.661-5.695-2.292-1.995-4.59-4.022-6.893-6.081-.461-2.353 1.613-5.101 6.223-8.244 7.059-4.847 11.291-8.018 12.694-9.513 4.341-4.516 5.954-9.618 4.839-15.305-1.563-7.972-7.867-10.876-18.913-8.711-5.228 1.025-10.209 3.053-14.943 6.084s-9.385 7.268-13.952 12.712c-3.686 4.387-7.094 9.33-10.224 14.831-3.13 5.5-5.678 11.022-7.646 16.565s-3.13 10.522-3.486 14.938c-.182 2.885-.062 5.406.36 7.562.5 2.55 1.197 4.72 2.091 6.513 2.141 3.992 5.27 5.584 9.387 4.778 1.961-.385 3.702-1.286 5.223-2.703 1.521-1.418 2.893-3.333 4.116-5.746 1.99-4.053 3.689-9.238 5.098-15.554l3.328-15.212 1.054-3.975c2.157-7.005 3.763-11.799 4.818-14.381 2.572-6.273 5.194-10.553 7.867-12.842 1.454-1.235 2.956-2.311 4.508-3.226 1.551-.915 2.948-1.494 4.19-1.738 1.177-.23 1.862-.025 2.057.616.166.51-.963 1.851-3.388 4.023-1.664 1.548-3.114 3.495-4.351 5.842-2.171 4.158-4.645 12.143-7.421 23.955l-1.175 4.912-2.371 10.239c-.809 3.143-1.326 5.178-1.553 6.105-.978 3.315-2.191 6.471-3.64 9.468-.897 2.009-1.961 3.847-3.194 5.514-1.931 2.619-3.99 4.669-6.177 6.149-2.187 1.479-4.523 2.463-7.006 2.949-3.596.705-7.109.359-10.538-1.038-3.43-1.397-6.223-3.615-8.381-6.656-1.585-2.199-2.64-4.64-3.165-7.32-.115-.587-.209-1.416-.283-2.489l-.083-4.054c.061-2.456.27-4.941.627-7.454s.873-4.989 1.548-7.429c3.671-13.82 11.294-26.173 22.87-37.061 10.947-10.289 22.335-16.594 34.166-18.912 8.104-1.589 14.699-1.354 19.785.703s8.212 6.059 9.378 12.007c1.435 7.321-1.026 13.64-7.382 18.957-7.213 4.061-14.426 8.122-21.638 12.183l.349.745c3.43 1.227 6.295 2.685 8.594 4.373 2.3 1.688 3.783 4.231 4.449 7.63zm116.275-22.79-4.116 15.362-6.024 22.764c-.622 2.363-1.242 4.046-1.859 5.05-.764 1.303-1.668 2.057-2.713 2.262-.459.09-.943.049-1.451-.123-1.46-.529-2.318-1.448-2.574-2.754-.205-1.045-.083-2.324.366-3.837l6.706-21.882 1.132-3.581c-1 1.487-2.259 2.853-3.78 4.1-2.108 1.703-4.044 2.728-5.81 3.074-1.831.359-3.391.019-4.679-1.018-.963-.76-1.879-1.972-2.748-3.634-.791 1.511-1.933 3.126-3.428 4.844-1.233 1.329-2.524 2.448-3.873 3.357-1.35.908-2.711 1.497-4.083 1.766-2.679.525-5.158-.177-7.437-2.106-.729-.603-1.497-1.402-2.303-2.397-.302.533-.66 1.129-1.074 1.787-.415.658-.852 1.202-1.31 1.631-1.56 1.731-3.342 3.285-5.346 4.663-2.005 1.378-3.888 2.239-5.652 2.585-1.765.346-3.388.206-4.868-.421-1.481-.626-2.864-1.628-4.151-3.006l-1.308-1.474-1.538 2.032c-3.189 4.154-6.68 6.603-10.472 7.346-1.763.346-3.388.19-4.874-.469-1.487-.658-2.842-1.682-4.065-3.072l-1.228-1.59-1.42 2.109c-1.286 1.745-2.587 3.069-3.904 3.972-1.316.904-2.856 1.528-4.619 1.874-3.074.602-5.429-.328-7.065-2.791-1.117-1.546-1.906-3.495-2.367-5.846-.423-2.159-.288-4.934.406-8.326.675-2.779 1.619-5.492 2.832-8.14s2.757-5.241 4.633-7.779c2.311-3.1 4.871-5.706 7.681-7.819 2.81-2.112 5.882-3.495 9.217-4.149 4.051-.794 6.397.444 7.038 3.713.375 1.215.077 2.461-.895 3.739-.539.715-1.227 1.188-2.064 1.42-1.111.218-1.996.29-2.655.216-.658-.074-1.219-.252-1.683-.535-.463-.283-.824-.738-1.083-1.366s-.509-.952-.75-.973-.526 0-.853.065c-1.567.307-3.375 1.646-5.423 4.017-1.77 2.043-3.35 4.457-4.738 7.24-1.39 2.784-2.39 5.644-3.003 8.58-.612 2.936-.688 5.58-.226 7.934.205 1.045.531 1.931.979 2.659.448.727 1.261.975 2.437.744 1.438-.281 2.999-1.843 4.681-4.685 1.328-2.228 2.685-5.175 4.071-8.839.671-1.762 1.348-3.677 2.029-5.745s1.207-3.715 1.577-4.941c.238-.521 1.402-.986 3.492-1.396 1.309-.256 2.41-.354 3.303-.292.894.062 1.321.336 1.281.82l-2.174 9.69c-.506 2.27-.819 3.791-.939 4.562-.239 1.201-.453 2.702-.643 4.504-.029.548-.024.92.014 1.115.128.655.499 1.074 1.112 1.26.613.185 1.378.188 2.293.009.981-.193 2.367-1.262 4.158-3.208 1.79-1.945 2.876-3.33 3.257-4.152-.192-.979-.374-1.91-.547-2.793s-.296-1.859-.369-2.93c-.449-2.288-.62-4.545-.514-6.772.107-2.227.38-4.808.822-7.745.266-1.411.546-2.841.84-4.289s.626-2.956.997-4.522c2.188-8.573 5.282-16.339 9.28-23.3 4.404-7.65 8.567-11.86 12.491-12.629 1.894-.371 3.356-.098 4.384.82s1.734 2.357 2.119 4.318c.653 3.333.414 7.826-.717 13.478-.827 4.098-2.092 8.554-3.796 13.367-.474 1.384-.949 2.682-1.424 3.894-.475 1.213-1.082 2.707-1.821 4.482-1.213 2.816-2.504 5.495-3.872 8.036-1.368 2.542-3.023 5.259-4.967 8.152l-4.335 5.939c.32 1.634 1.135 3.018 2.444 4.153 1.309 1.136 2.943 1.511 4.904 1.127 1.307-.256 2.845-1.237 4.615-2.943 1.429-1.365 2.583-2.745 3.464-4.139l-.503-6.212c-.192-4.782.369-9.711 1.681-14.786l1.271-4.424c1.946-6.355 4.791-12.445 8.536-18.269 3.744-5.824 6.858-8.979 9.342-9.466 1.635-.32 2.886-.09 3.751.691.866.781 1.478 2.086 1.837 3.915.55 2.81.419 6.383-.395 10.717s-1.999 8.588-3.557 12.762c-1.134 2.868-2.333 5.58-3.597 8.137-1.618 3.167-3.234 5.826-4.849 7.975-1.288 1.744-2.791 3.429-4.508 5.056-.015.274.029.673.132 1.195.243 1.243.791 2.222 1.644 2.937s2.161.9 3.927.554c1.569-.308 3.057-1.379 4.462-3.216 1.404-1.836 2.655-4.626 3.753-8.37l.358-1.295c.662-2.505 1.423-5.029 2.282-7.571.688-2.036 1.48-4.227 2.377-6.574l2.731-7.358c.093-.221.561-.516 1.406-.886.844-.369 1.658-.631 2.442-.784 1.242-.244 2.245-.321 3.008-.233.763.089 1.071.452.925 1.09-.025.21-.164.712-.416 1.507-.462 1.449-1.016 3.12-1.665 5.012-.833 2.334-1.665 4.838-2.497 7.514-1.005 3.181-1.746 5.804-2.224 7.867-.796 3.209-1.047 5.566-.752 7.07.243 1.24.887 1.758 1.933 1.553 1.567-.307 2.955-1.189 4.163-2.647 1.207-1.458 2.596-4.071 4.164-7.839 1.109-2.662 2.089-5.281 2.941-7.858.851-2.576 1.641-5.123 2.37-7.64l1.632-6.226c.184-.444.659-.791 1.423-1.043.765-.251 1.605-.467 2.521-.646 1.306-.256 2.374-.347 3.204-.272.83.074 1.159.367.987.876l-1.53 5.697zm-57.156-9.567c1.782-5.101 3.363-10.365 4.744-15.793 1.564-6.212 2.16-10.265 1.789-12.16-.154-.786-.493-1.128-1.015-1.025-1.175.23-2.992 2.47-5.451 6.72-2.46 4.249-4.291 8.325-5.495 12.226-1.205 3.901-2.032 6.778-2.483 8.631-.796 3.209-1.422 6.42-1.877 9.633-.566 4.046-.719 8.284-.46 12.713 3.218-5.043 5.757-9.748 7.616-14.116zm23.911-2.142c.94-3.171 1.762-6.251 2.467-9.239.876-3.835 1.192-6.375.949-7.617-.193-.982-.648-1.402-1.366-1.261-1.047.205-2.525 2.192-4.433 5.961-1.658 3.312-3.207 7.009-4.646 11.091l-1.768 6.558c-.519 2.204-.867 4.24-1.043 6.107-.177 1.868-.226 4.219-.147 7.054 2.035-2.435 3.769-4.845 5.202-7.231 1.433-2.385 2.612-4.855 3.536-7.41z" fill-rule="nonzero"/><path d="m571.731 109.232.029 3.836h-4.018l.075 4.276-4.28.102-.145 4.739-3.922.074-.074 5.171-4.125-.058.128 36.276 3.872.146-.053 5.83 4.173.019.143 4.85 4.104.145.143 4.621h4.181l-.029 3.822 3.947.05-.007 2.373 4.877-.053v2.301l19.141.065-.042-22.516-13.354-.03-.063-3.688-4.183-.088v-2.353l-3.872.01v-2.498l21.623-.25-.017-21.011-21.705.216-.026-2.741 3.997-.086v-2.47l4.417-.088-.046-3.543 13.238-.25v-21.98l-19.194-.068-.058 2.066-4.673.053-.054 2.694zm-128.858 78.526 16.002-.132-.018-22.64-10.984-.022-.007-3.981-4.246.042v-4.695l-4.751-.051.13-20.606 4.807-.017.073-4.604h4.419l-.057-4.122 10.116-.135-.022 4.257h4.35l-.362 56.699h21.007l-.121-65.61-4.245.044-.145-4.371h-3.666l-.025-4.817-4.407-.054-.147-3.351-3.849-.146-.012-2.735-4.94-.013-.035-1.998-19.114-.131.108 2.129-4.856.143v2.422l-3.997.308-.303 3.476-3.569.146-.25 4.496-3.996.249-.25 4.247-4.095.145-.151 5.35-3.952-.045-.08 36.353 4.33.034-.026 5.598 3.974.022.25 4.746 3.996.25.155 4.679 3.69.08.152 3.556 3.746-.072.105 2.978 5.266-.058zm88.411-.134-19.562.134-.037-1.879-5.385-.142.015-2.98h-3.974l-.147-3.622-3.998-.15-.124-4.66-3.746-.062v-3.955l-4.432-.145-.063-6.12-4.122-.145-.128-36.093h4.515l-.016-5.475 4.122-.145.143-4.313 1.543-.308h2.416l.144-4.371 3.849-.146.147-3.351 4.388-.134.125-2.721.07-.112 4.507-.215.151-1.814 15.861-.132v21.981l-10.72.007-.145 4.48-4.103.097-.144 4.323-4.62.134v20.689l5.095.031-.225 4.59 3.968.029.029 3.968h10.49l.003-3.995 3.869-.136v-72.826l.599-.599h20.341l.79.303-.071 58.02-.306 23.915-3.744.064-.245 4.834-4.251.161-.25 4.496-3.747.25.013 3.51-4.108.115-.151 2.81-4.608.19zm-154.45-65.021.113 5.451h-3.916l-.194 35.948 4.217.145.142 5.889 4.105.02.25 5.002 4.363.079.007 3.85 3.801-.033.071 3.677 3.845.145.147 2.771 5.124-.035.093 2.239 17.149-.027-.13-22.078-12.114-.134v-4.452l-4.012-.035-.033-4.912-4.952.008.131-20.199 4.621-.05v-4.561l4.107.003.159-4.509 5.1-.045 7.096-.205.138-21.845-17.224-.01-.155 2.282-5.09-.034-.153 2.373-3.969.073v3.674l-3.746-.018v4.451l-4.478-.061-.143 4.994zm194.126-6.474 3.807-.167.099-3.616 4.005-.109.043-2.628 4.71.05-.088-2.255 13.261.088v15.935s-13.344.245-13.344.245l.073 3.314s-4.339.113-4.339.113v2.551l-3.996.21v8.868l21.731-.335v14.979l-21.606.257v8.471l3.871.146.029 2.816 4.213.024.065 3.247h13.431l-.045 16.357h-13.213l-.142-2.248h-4.621l.039-2.366-3.892-.069-.065-3.77-4.237-.039s-.024-4.635-.024-4.635l-4.215-.028-.14-5.009-4.007-.021-.064-5.764-3.849-.042-.108-30.16 3.972-.17.253-5.061s3.788-.115 3.788-.115l.118-4.467 4.384-.125zm-157.879 7.449-4.112.121s-7.998.071-7.998.071l-.148 4.22s-4.223.048-4.223.048v4.72l-4.602.057-.172 26.736 4.687.034.052 4.501h4.28v4.454l12.133.134.097 16.016h-11.104v-2.603l-5.305.069-.151-2.48-3.864-.001-.063-3.671-3.611.043-.003-4.664-4.528.049s-.157-4.775-.157-4.775l-4.108-.108s-.143-5.352-.143-5.352l-4.035-.153.02-29.928h4.228l.075-5.581 3.949-.149.14-4.511 4.571-.22v-4.524l3.747-.01v-3.737l3.779-.009.157-2.455 5.081-.071.108-2.11 11.326-.089zm32.583-13.891v-2.038l13.222.096.065 2.102 4.739.019.049 2.56 3.9.118c.001 0 .144 3.271.144 3.271l3.721.026s.168 5.108.168 5.108l4.185-.074s.149 4.511.149 4.511l4.148-.065.117 59.369h-14.883l.261-56.7h-4.231v-4.297l-16.091.215-.205 4.082h-4.603l.027 4.531s-4.59.255-4.59.255l-.168 26.565h4.771v4.745h4.224v3.898l3.463.054 7.543.093-.039 16.457-9.818.085v-2.017l-5.376-.003.039-3.002-3.911.107-.166-3.794-3.654-.009s-.139-4.407-.139-4.407l-4.05-.045s.03-5.014.03-5.014l-4.061.027s-.066-5.555-.066-5.555h-4.32l.107-30.178 4.319-.186-.148-5.312s3.868-.146 3.868-.146l.254-4.314s4.005-.251 4.005-.251l.247-4.436s3.948-.124 3.948-.124l.001-3.389 4.092-.117-.014-2.694zm88.44-19.285h15.605l-.068 55.24s-.267 20.884-.267 20.884-3.685.246-3.685.246l-.166 4.751-4.269.161-.019 4.811s-3.924.011-3.924.011l-.103 3.051s-4.041.113-4.041.113l-.144 2.877-4.509.076-.001 1.959-13.888.097.046-1.88-5.295-.047v-3.057h-4.095l-.142-3.497-4.005-.173-.124-4.829-3.623.023-.06-4.758-4.395-.007-.088-5.369-4.084-.143-.107-30.076s4.489-.037 4.489-.037v-5.544s4.024-.142 4.024-.142l.151-4.518h3.949l.148-4.481s3.818-.144 3.818-.144l.149-3.399 4.236-.065.008-2.866 4.736-.227.143-1.705 9.981-.083v15.839h-10.615l-.156 4.432s-4.101.026-4.101.026l-.142 4.429-4.719.121v26.839l5.062.251-.087 4.179 3.827.255s.091 3.932.091 3.932h16.39l.26-3.893.044-.002 3.765.026z"/><path d="m229.615 187.363 6.674-.014.334-.334.007-10.37.011-10.37-.291-.291-9.274.05-1.264-.317v-4.192l-3.122-.035-.931-.367-.101-3.836-.305-.305-3.247-.083-.284-.284-.09-14.468-.089-14.467.444-.874h12.471v-7.494l-.624-.037-3.344.07-1.028-.55v-4.209l-4.371-.144-.147-3.372h-1.913l-1.561-.313-.007-12.801-.392-.616-21.109-.064-.317.317-.196 12.848-.584.371-2.123.008-.049 1.124.088 1.899-.6.724h-3.436l-.035 1.124.007 3.149-.679.26-4.662.087v7.48l11.74.14.687.257-.133 18.104-.135 18.103.58.37 1.712.05 1.713.051.271.271.14 3.132.035 2.038.874-.004 1.311.044 1.311.045v4.996h4.013l.107.312.107.312.24 3.497.028.602 3.372.147.13 2.498.254 1.124 2.613.008 1.124.301v2.422l5.12.142.155 1.597 2.094.152 6.675-.014z"/><path d="m81.72 187.326 7.524-.051.242-.242.014-20.781-.282-.281-9.9-.017-.902-.465.103-1.341-.075-2.872h-3.997l-.083-.625-.116-2.248-.049-1.623h-3.935l-.573-.69.169-20.58.717-.453 3.622-.008.007-2.623.289-1.078 4.075-.42.25-4.496h10.491l.121 2.747.283 2.123h3.654l.295 1.476.075 39.613-.014 14.607.531.329 20.405.013.378-.38-.107-64.465-.288-.288-2.602-.058-.874-.088-.005-2.373-.302-1.823-3.9-.177-.345-.345-.162-1.651-.035-2.602-3.871-.146-.132-2.248-.253-1.124h-3.477l-.25-1.124-.067-.874-.067-.874-4.406-.085-.681-.261-.079-.826-.08-.826h-17.984l-.25 1.748-1.748.082-4.621.043v2.694l-.79.303h-3.183l.083 2.991-.536.536-3.193.101-.143 4.312-1.105.296-3.353.007-.144 4.371-3.372.148-.063.102-.314 5.245-4.06.144-.165 1.03-.165 1.03.07 33.068.331.534 3.74.162.071 2.685.07 2.685.858.044 1.142-.038 1.143-.038.566.682.146 4.47 3.913.084.333.333.176 4.208 1.073.241 2.498.13.249 3.497 3.747.25.163 1.992.549.662 4.306-.124.603.372v1.427l.497.167 7.525-.051z"/><path d="m250.78 187.303 9.857-.073.14-.141.014-60.233.64-.245 13.306-.062.173.278.171.278-.063 11.03-.122.122-4.115.14-.303 1.62.116.326.116.325-.449.874h-5.906l-.244 2.873.091 12.739 2.878 6.244 1.375 3.258.562.988 1.315 3.247 1.417 3.042 1.355 3.1 1.354 3.1 1.134 2.498 1.352 2.997.7 1.624 7.996.04 12.606.05.241-.241-1.946-4.97-1.035-2.099v-.53l-.481-.868-1.73-4.246-1.028-2.498-1.028-2.497-.444-1-.908-2.248-.909-2.248-.477-.885-1.05-2.861-.437-.475v-1.088l-.75-.622v-.718l-1.191-2.592-.884-2.396.453-.452 3.746-.15.25-4.098.5-.496 3.239-.151.14-4.721.617-.392 1.315-.008.301-1.124.007-17.859-.374-.064-1.115-.117-.758-.629v-2.969l-.518-.967h-2.689l-.79-.303v-3.913l-.516-.319-3.73-.283-.056-1.301.083-.447-.313-1.427h-3.667l-.79-.303v-1.904l-.303-.79h-3.889l-.304-.79v-1.184l-7.868-.149-6.065.154.121.459.12.46-.563 1.05h-3.229v2.514l-.625.213-3.715.146-.056 1.748-.101 1.604-4.371.145-.133 4.221-.616.409-2.748-.051-.624.041-.007 3.871-.384.604-4.48.146-.126 64.534 1.375.158 9.857-.073h-.01z"/><path d="m150.197 187.192 10.048-.065.049-1.55.354-.573h4.716l.007-1.874.463-.731 3.526-.199v-2.596l.632-.864 2.884-.166.218-.219.075-3.851.562-.349 3.488-.174.096-.097.112-3.742.229-.624h3.659l-.091-20.607-4.36-.032-.233-.232-.152-3.855-1.249-.045-2.604.078-.237-1.159-.153-1.741-.153-1.74-.136-.135-26.94-.08-.874-.443v-3.921l-1.124-.301-3.123-.008v-3.943l.709-.272 3.413.094.147-4.244.46-.461 10.239-.114.544.654.099 4.165 3.247.137 1.078.235-.207.877.379 3.19 20.232-.021.999-.047.093-12.739-.592-.053-2.831-.141-.542-.335v-4.216l-2.123-.051-1.498.059-.722-.472-.042-3.758-.352-.352-3.043-.128-.313-.313-.205-3.228-2.315-.059-1.499-.323v-2.24l-4.995-.25-.152-1.826-1.097-.244-19.513-.078-.469 1.899-4.746.249-.16 2.24-.59.375-3.372.008v3.147l-.599.6h-3.147v3.896l-.6.6h-3.877l-.144 4.621-3.593.146-.154 6.098.25 14.987 2.748-.019 1.249.303.25 4.212 3.563.145.308 1.541v2.185l3.622-.001 25.311.126.365.366.119 3.816.567.35 3.025.084.462.285v3.687l-.303.187-.303.187-3.516.03-.147 3.982-.602.382-10.312.008-.303-.791v-3.956h-3.935l-.491-.624-.109-3.494-.105-.105-10.794-.143-10.793-.144v13.253h3.762l.246.641.056 1.865.057 1.865 4.371.144.035 1.105.093 3.247 3.747.249.147 3.352 3.849.145.15 2.606 2.548.071 2.547.071.14 1.249.246 1.129z"/><path d="m335.127 187.387 9.957-.01.163-1.499.486-.499 4.191-.012.227-.237.255-1.926.422-.422 3.497-.15.077-1.49.076-1.49.514-.619 3.08-.148.077-3.147.302-1.203 3.867-.146.148-3.973.519-.626 3.329-.146.145-4.719.541-.652h3.156l.228-.374.313-33.839-.315-1.255h-3.414l-.35-.568.082-4.927-1.135-.075-2.402-.121-.346-.343-.25-4.332-4.121-.145-.056-2.353.095-.481-.308-1.642h-3.125l-.599-.599v-2.844l-.79-.304h-2.91l-.344-2.497-1.077-.092-1.748-.067-2.093-.091-.333-2.223-20.285.1-.443 1.873-1.824.06-2.581.065-.384.384-.282 2.114-3.747.249-.25 3.497-3.497.25-.25 4.246-4.08.145-.244 1.853-.035 2.406-.289.467h-3.7l-.142 5.37-3.578.146-.547.659.128 34.664 3.732.149.382.6.007 4.871 1.873.093 1.593.031.508.503.147 4.243 1.874.061 1.873.061.624.237v4.262h3.468l.141.228.141.229.318 3.04 1.053.088 2.372.078.239.239.224 1.218.035 1.106 4.84.143.428 1.749.172.519 9.956-.01zm.021-21.674-5.439.068-.206-.635-.171-3.594-.318-.319-3.565-.134-.448-.449-.15-3.746-4.176-.346-.217-.218v-20.353l.314-.314 4.004-.091.163-.162.126-3.744.236-.312.237-.312h3.632l.227-.625.104-3.247.401-.404 10.371.037.44.272v4.217h3.456l.79.303v3.403l.303.79h3.161l1.287.489-.106 20.293-1.181.449h-3.464v3.896l-.599.6h-3.627l-.145 4.121-5.438.068z"/></g></svg>