<?xml version="1.0" encoding="UTF-8" standalone="no"?><!DOCTYPE svg PUBLIC "-//W3C//DTD SVG 1.1//EN" "http://www.w3.org/Graphics/SVG/1.1/DTD/svg11.dtd"><svg width="100%" height="100%" viewBox="0 0 600 296" version="1.1" xmlns="http://www.w3.org/2000/svg" xmlns:xlink="http://www.w3.org/1999/xlink" xml:space="preserve" xmlns:serif="http://www.serif.com/" style="fill-rule:evenodd;clip-rule:evenodd;stroke-linejoin:round;stroke-miterlimit:2;"><g id="bally"><path id="text2559" d="M221.534,171.999l0,4.717c-0,7.472 -2.458,14.649 -7.373,21.533c-4.129,5.899 -10.028,11.208 -17.698,15.925c-5.9,3.739 -12.095,6.64 -18.585,8.705c-6.491,2.064 -12.094,3.097 -16.811,3.097c-8.457,-0 -14.947,-1.082 -19.472,-3.246c-4.525,-2.163 -7.624,-4.867 -9.295,-8.111c-1.671,-3.243 -2.507,-6.537 -2.507,-9.879c-0,-4.327 1.524,-8.113 4.573,-11.357c3.049,-3.243 6.638,-4.571 10.767,-3.983c3.54,0.39 6.246,1.815 8.115,4.276c1.87,2.461 2.999,5.557 3.39,9.29c-0.001,4.327 -0.688,7.574 -2.062,9.74c11.997,-2.166 22.124,-6.985 30.382,-14.457c8.258,-7.472 12.387,-16.222 12.387,-26.25l0,-1.774c0,-5.899 -2.457,-12.093 -7.372,-18.58c-5.51,-7.082 -11.016,-14.259 -16.519,-21.533c-0.001,-7.082 7.57,-13.867 22.712,-20.354c23.207,-10.034 37.269,-16.819 42.184,-20.354c15.142,-10.623 22.712,-24.489 22.713,-41.599c-0.001,-23.988 -16.619,-35.981 -49.854,-35.982c-15.73,0.001 -31.315,3.048 -46.753,9.142c-15.439,6.095 -31.32,15.731 -47.644,28.91c-13.173,10.617 -25.856,23.006 -38.048,37.166c-12.192,14.16 -22.712,28.712 -31.561,43.656c-8.849,14.943 -15.044,28.711 -18.585,41.302c-2.167,8.258 -3.25,15.63 -3.25,22.118c0,7.67 0.786,14.355 2.359,20.057c3.937,12.783 12.098,19.174 24.486,19.174c5.899,0 11.455,-1.621 16.667,-4.865c5.212,-3.244 10.276,-8.014 15.191,-14.309c8.066,-10.617 15.934,-24.675 23.604,-42.175l18.283,-42.184l5.311,-10.92c10.227,-19.072 17.603,-32.051 22.128,-38.934c11.012,-16.714 21.041,-27.628 30.085,-32.741c4.915,-2.755 9.88,-5.017 14.894,-6.788c5.014,-1.77 9.391,-2.655 13.13,-2.655c3.54,-0 5.41,0.984 5.608,2.952c0.192,1.573 -3.841,4.817 -12.099,9.732c-5.701,3.541 -11.01,8.36 -15.925,14.457c-8.654,10.815 -20.357,32.546 -35.108,65.194l-6.194,13.566l-12.684,28.321c-4.129,8.648 -6.784,14.25 -7.967,16.807c-4.717,9.05 -10.025,17.506 -15.924,25.368c-3.739,5.311 -7.868,10.031 -12.387,14.16c-7.082,6.494 -14.212,11.263 -21.389,14.309c-7.178,3.046 -14.503,4.569 -21.975,4.569c-10.82,-0 -20.802,-2.998 -29.945,-8.993c-9.144,-5.996 -15.978,-14.011 -20.503,-24.045c-3.343,-7.274 -5.014,-14.944 -5.014,-23.01c-0,-1.764 0.198,-4.222 0.594,-7.372l2.062,-11.793c1.572,-7.082 3.588,-14.162 6.049,-21.241c2.461,-7.078 5.362,-13.961 8.705,-20.646c18.485,-37.959 47.588,-69.425 87.312,-94.397c37.563,-23.597 74.142,-35.396 109.736,-35.396c24.384,-0 43.361,4.424 56.93,13.273c13.569,8.85 20.354,22.222 20.354,40.118c-0,22.026 -10.719,38.938 -32.156,50.736c-23.208,7.67 -46.412,15.34 -69.613,23.01l0.585,2.359c9.242,5.503 16.715,11.353 22.42,17.549c5.704,6.197 8.556,14.408 8.556,24.635Zm189.676,-60.18c8.059,-13.767 15.63,-28.122 22.712,-43.066c8.06,-17.11 12.089,-28.516 12.09,-34.217c-0.001,-2.365 -0.787,-3.547 -2.359,-3.547c-3.535,0 -10.072,5.458 -19.611,16.375c-9.54,10.917 -17.161,21.685 -22.865,32.304c-5.705,10.62 -9.737,18.486 -12.095,23.599c-4.129,8.846 -7.766,17.795 -10.91,26.845c-3.938,11.403 -6.788,23.594 -8.552,36.575c12.188,-12.783 22.217,-24.974 30.085,-36.575l11.505,-18.293Zm70.495,7.373c4.525,-8.654 8.657,-17.11 12.396,-25.368c4.717,-10.616 7.076,-17.794 7.076,-21.533c-0,-2.953 -1.081,-4.429 -3.241,-4.429c-3.151,-0 -8.561,4.918 -16.231,14.754c-6.686,8.654 -13.272,18.488 -19.759,29.5l-8.849,17.996c-2.755,6.091 -4.919,11.793 -6.491,17.104c-1.573,5.311 -3.049,12.096 -4.429,20.354c7.279,-5.9 13.672,-11.898 19.179,-17.996c5.506,-6.097 10.324,-12.585 14.453,-19.462l5.896,-10.92Zm89.68,52.807l-20.651,42.175l-30.382,62.538c-3.146,6.493 -5.897,11.018 -8.255,13.575c-2.953,3.343 -6.002,5.014 -9.146,5.014c-1.381,0 -2.759,-0.393 -4.132,-1.179c-3.932,-2.365 -5.897,-5.512 -5.897,-9.443c-0,-3.145 1.08,-6.782 3.241,-10.911l31.859,-59.594l5.311,-9.732c-3.74,3.739 -8.166,6.983 -13.278,9.732c-7.077,3.739 -13.27,5.608 -18.581,5.608c-5.51,0 -9.837,-1.869 -12.981,-5.608c-2.359,-2.749 -4.324,-6.779 -5.896,-12.09c-3.152,3.931 -7.38,7.961 -12.684,12.09c-4.328,3.151 -8.704,5.659 -13.13,7.526c-4.427,1.866 -8.704,2.799 -12.833,2.799c-8.06,0 -14.845,-3.442 -20.353,-10.325c-1.771,-2.161 -3.542,-4.912 -5.312,-8.255c-1.176,1.374 -2.552,2.897 -4.127,4.568c-1.576,1.672 -3.15,3 -4.722,3.984c-5.504,4.129 -11.55,7.62 -18.139,10.474c-6.59,2.854 -12.538,4.28 -17.842,4.28c-5.312,0 -9.935,-1.327 -13.868,-3.983c-3.935,-2.656 -7.375,-6.345 -10.321,-11.068l-2.953,-5.014l-5.608,5.014c-11.601,10.226 -23.106,15.34 -34.515,15.339c-5.305,0.001 -9.925,-1.375 -13.858,-4.127c-3.935,-2.752 -7.279,-6.489 -10.033,-11.212l-2.656,-5.302l-5.311,5.302c-4.718,4.327 -9.24,7.425 -13.566,9.295c-4.328,1.869 -9.144,2.804 -14.449,2.804c-9.248,-0 -15.544,-4.033 -18.886,-12.099c-2.359,-5.113 -3.539,-11.208 -3.538,-18.284c-0.001,-6.493 1.968,-14.457 5.905,-23.891c3.535,-7.67 7.811,-14.996 12.828,-21.979c5.017,-6.983 10.965,-13.619 17.842,-19.908c8.456,-7.67 17.355,-13.768 26.696,-18.293c9.341,-4.525 19.029,-6.787 29.064,-6.787c12.188,-0 18.283,4.918 18.283,14.754c0.396,3.733 -1.176,7.175 -4.717,10.326c-1.969,1.764 -4.231,2.745 -6.788,2.943c-3.343,0 -5.947,-0.294 -7.813,-0.882c-1.867,-0.588 -3.392,-1.424 -4.574,-2.507c-1.182,-1.083 -1.97,-2.607 -2.363,-4.573c-0.393,-1.965 -0.933,-3.047 -1.62,-3.245c-0.687,-0.198 -1.523,-0.297 -2.507,-0.297c-4.718,-0 -10.716,2.853 -17.995,8.561c-6.29,4.915 -12.238,11.011 -17.843,18.288c-5.605,7.276 -10.129,14.994 -13.57,23.153c-3.443,8.159 -5.163,15.779 -5.163,22.861c-0,3.145 0.442,5.898 1.328,8.26c0.885,2.361 3.098,3.542 6.639,3.542c4.326,-0 9.734,-3.64 16.222,-10.92c5.113,-5.701 10.718,-13.467 16.816,-23.297c2.946,-4.723 5.993,-9.888 9.141,-15.493c3.148,-5.605 5.607,-10.079 7.378,-13.422c0.984,-1.374 4.62,-2.062 10.91,-2.062c3.937,0 7.182,0.344 9.736,1.031c2.553,0.687 3.635,1.721 3.245,3.101l-11.801,26.845c-2.755,6.289 -4.526,10.517 -5.312,12.684c-1.374,3.343 -2.848,7.571 -4.42,12.684c-0.396,1.572 -0.594,2.652 -0.594,3.241c-0,1.968 0.835,3.395 2.507,4.28c1.671,0.885 3.884,1.328 6.639,1.328c2.953,-0 7.575,-2.311 13.868,-6.932c6.292,-4.621 10.225,-8.015 11.797,-10.181c0,-2.947 0,-5.748 0,-8.404c0,-2.655 0.198,-5.555 0.595,-8.7c-0.001,-6.884 0.785,-13.521 2.358,-19.913c1.572,-6.392 3.832,-13.716 6.779,-21.974c1.572,-3.937 3.195,-7.921 4.87,-11.951c1.674,-4.03 3.492,-8.208 5.455,-12.535c11.211,-23.598 24.585,-44.345 40.123,-62.241c17.103,-19.667 31.558,-29.5 43.363,-29.5c5.701,0 9.781,1.622 12.239,4.865c2.457,3.244 3.686,7.816 3.686,13.715c-0,10.029 -3.244,22.911 -9.731,38.647c-4.724,11.402 -10.92,23.594 -18.59,36.575c-2.161,3.739 -4.273,7.231 -6.337,10.474c-2.065,3.244 -4.673,7.228 -7.823,11.951c-5.114,7.472 -10.374,14.501 -15.781,21.087c-5.408,6.587 -11.748,13.52 -19.021,20.8l-15.934,14.745c-0.001,4.915 1.573,9.39 4.721,13.422c3.148,4.033 7.671,6.05 13.571,6.05c3.931,-0 8.945,-1.969 15.043,-5.906c4.914,-3.144 9.043,-6.487 12.387,-10.028l2.07,-18.283c2.16,-13.966 6.583,-27.928 13.269,-41.887l6.194,-12.099c9.248,-17.308 20.95,-33.337 35.108,-48.085c14.157,-14.749 24.972,-22.123 32.444,-22.123c4.921,0 8.414,1.377 10.479,4.132c2.063,2.755 3.096,6.884 3.096,12.387c-0,8.456 -2.41,18.732 -7.228,30.828c-4.82,12.096 -10.672,23.749 -17.555,34.96c-4.915,7.664 -9.93,14.841 -15.042,21.533c-6.488,8.258 -12.682,15.043 -18.581,20.354c-4.723,4.321 -10.035,8.351 -15.934,12.09c-0.198,0.786 -0.297,1.965 -0.297,3.537c-0,3.739 1.032,6.887 3.097,9.444c2.064,2.556 5.752,3.835 11.064,3.835c4.722,-0 9.641,-2.261 14.754,-6.783c5.113,-4.523 10.322,-11.897 15.628,-22.123l1.773,-3.547c3.343,-6.884 6.98,-13.764 10.911,-20.642c3.15,-5.509 6.691,-11.409 10.623,-17.698l12.09,-19.769c0.395,-0.588 1.921,-1.178 4.577,-1.769c2.655,-0.591 5.162,-0.887 7.521,-0.887c3.739,0 6.689,0.345 8.85,1.036c2.16,0.69 2.847,1.917 2.061,3.681c-0.193,0.595 -0.88,1.972 -2.061,4.132c-2.161,3.937 -4.718,8.463 -7.67,13.576c-3.74,6.289 -7.575,13.074 -11.505,20.354c-4.718,8.648 -8.355,15.825 -10.911,21.533c-4.129,8.846 -6.194,15.531 -6.193,20.057c-0.001,3.732 1.572,5.599 4.717,5.599c4.717,-0 9.239,-1.769 13.566,-5.307c4.327,-3.538 9.833,-10.321 16.519,-20.349c4.723,-7.082 9.05,-14.114 12.981,-21.097c3.931,-6.982 7.667,-13.913 11.208,-20.79l8.264,-17.113c0.786,-1.183 2.358,-1.921 4.717,-2.215c2.358,-0.294 4.915,-0.441 7.67,-0.441c3.93,0 7.077,0.344 9.439,1.031c2.361,0.687 3.148,1.721 2.363,3.101l-7.67,15.637l-20.651,41.887Z" style="fill:#fff;fill-rule:nonzero;"/></g></svg>