<svg clip-rule="evenodd" fill-rule="evenodd" stroke-linejoin="round" stroke-miterlimit="2" viewBox="0 0 600 188" xmlns="http://www.w3.org/2000/svg"><g fill="#fff"><g fill-rule="nonzero"><path d="m480.057 122.16v-4.513h-4.339v-4.688h-3.994v-3.473h-4.166v-3.124h-5.557v-1.736h-17.88v1.736h-6.944v3.124h-3.994v3.473h-3.471v4.688h-4.585v4.166h-3.993v5.902h-4.478v36.25h4.478v5.243h3.993v5.31h4.238v4.758h3.646v3.82h3.992v2.604h5.555v2.083h16.32v-21.7h-10.939v-4.688h-3.992v-4.687h-4.687v-21.354h4.687v-4.166h3.992v-4.515h10.765v4.515h3.854v56.595h21.666v-65.623z"/><path d="m549.548 170.25v4.512h-4.339v4.688h-3.994v3.472h-4.166v3.125h-5.556v1.736h-17.881v-1.736h-6.944v-3.125h-3.993v-3.472h-3.472v-4.688h-4.584v-4.166h-3.994v-5.902h-4.478v-36.25h4.478v-5.243h3.994v-5.31h4.237v-4.758h3.646v-3.82h3.992v-2.604h5.556v-2.083h16.319v21.701h-10.938v4.686h-3.993v4.688h-4.686v21.353h4.686v4.167h3.993v4.514h10.764v-4.514h3.854v-73.47h21.666v82.499z"/><path d="m244.547 170.25v4.512h-4.34v4.688h-3.994v3.472h-4.166v3.125h-5.556v1.736h-17.881v-1.736h-6.943v-3.125h-3.994v-3.472h-3.472v-4.688h-4.584v-4.166h-3.994v-5.902h-4.478v-36.25h4.478v-5.243h3.994v-5.31h4.237v-4.758h3.646v-3.82h3.993v-2.604h5.555v-2.083h16.319v21.701h-10.938v4.686h-3.993v4.688h-4.686v21.353h4.686v4.167h3.993v4.514h10.764v-4.514h3.854v-73.47h21.666v82.499z"/><path d="m343.641 156.362v4.687h-4.34v4.34h-11.111v-4.34h-3.994v-4.687h-4.687v-20.313h4.687v-4.688h3.994v-4.339h11.111v4.339h4.34v4.688h4.34v20.313zm22.308-28.038v-5.556h-4.34v-4.688h-4.427v-4.687h-3.906v-3.558h-3.993v-2.604h-5.034v-2.604h-20.92v2.604h-4.948v2.604h-4.341v3.558h-3.558v4.687h-4.601v4.688h-3.992v5.556h-4.254v35.762h4.254v5.557h3.992v4.687h4.601v4.687h3.558v3.559h4.341v2.604h4.948v2.604h20.92v-2.604h5.034v-2.604h3.993v-3.559h3.906v-4.687h4.427v-4.687h4.34v-5.557h3.907v-35.762z"/><path d="m415.253 165.389h-12.586v-4.34h-3.992v-4.687h-4.688v-20.313h4.688v-4.688h3.992v-4.339h12.586v-22.395h-17.447v2.604h-4.948v2.604h-4.339v3.558h-3.56v4.687h-4.601v4.688h-3.993v5.556h-4.252v35.762h4.252v5.557h3.993v4.687h4.601v4.687h3.56v3.559h4.339v2.604h4.948v2.604h17.447z"/><path d="m600 165.389h-14.042v-4.34h-3.993v-4.687h18.035v-20.313h-18.035v-4.688h3.993v-4.339h14.042v-22.395h-18.904v2.604h-4.947v2.604h-4.34v3.558h-3.559v4.687h-4.601v4.688h-3.994v5.556h-4.252v35.762h4.252v5.557h3.994v4.687h4.601v4.687h3.559v3.559h4.34v2.604h4.947v2.604h18.904z"/><path d="m295.511 165.389h-14.042v-4.34h-3.993v-4.687h18.035v-20.313h-18.035v-4.688h3.993v-4.339h14.042v-22.395h-18.903v2.604h-4.948v2.604h-4.339v3.558h-3.56v4.687h-4.601v4.688h-3.993v5.556h-4.252v35.762h4.252v5.557h3.993v4.687h4.601v4.687h3.56v3.559h4.339v2.604h4.948v2.604h18.903z"/><path d="m73.012 68.129.308 1.573c.489 2.493.138 5.048-1.051 7.665-.992 2.238-2.613 4.395-4.863 6.47-1.723 1.632-3.6 3.005-5.63 4.118s-3.832 1.824-5.405 2.133c-2.821.552-5.057.616-6.708.19s-2.861-1.125-3.631-2.098c-.769-.973-1.263-2.017-1.482-3.132-.283-1.443-.022-2.805.783-4.087.805-1.281 1.915-1.959 3.331-2.032 1.207-.102 2.202.197 2.987.895.784.699 1.364 1.658 1.738 2.878.283 1.443.266 2.571-.051 3.384 3.86-1.507 6.923-3.777 9.189-6.809 2.267-3.033 3.072-6.221 2.416-9.567l-.116-.591c-.386-1.968-1.61-3.873-3.674-5.716-2.301-2.002-4.607-4.036-6.918-6.103-.463-2.362 1.619-5.12 6.245-8.274 7.086-4.865 11.333-8.047 12.741-9.548 4.356-4.533 5.975-9.654 4.857-15.361-1.569-8.002-7.896-10.916-18.983-8.743-5.247 1.028-10.246 3.064-14.997 6.106-4.752 3.042-9.419 7.295-14.003 12.759-3.7 4.402-7.121 9.364-10.262 14.885-3.141 5.52-5.699 11.062-7.674 16.626-1.974 5.563-3.141 10.56-3.499 14.992-.183 2.896-.062 5.426.362 7.59.502 2.559 1.201 4.738 2.098 6.537 2.149 4.006 5.29 5.605 9.422 4.795 1.968-.386 3.715-1.29 5.242-2.713 1.526-1.423 2.903-3.345 4.131-5.766 1.997-4.069 3.702-9.273 5.117-15.612l3.34-15.267 1.058-3.99c2.164-7.03 3.776-11.842 4.836-14.434 2.58-6.295 5.212-10.591 7.895-12.888 1.459-1.24 2.967-2.32 4.524-3.238s2.959-1.5 4.206-1.744c1.181-.232 1.869-.026 2.064.618.167.512-.966 1.858-3.4 4.037-1.67 1.554-3.126 3.509-4.366 5.864-2.18 4.173-4.663 12.187-7.449 24.042l-1.179 4.93-2.38 10.277c-.812 3.154-1.331 5.197-1.558 6.127-.982 3.327-2.2 6.495-3.654 9.503-.9 2.016-1.969 3.861-3.206 5.534-1.938 2.629-4.004 4.686-6.199 6.171-2.196 1.485-4.539 2.472-7.032 2.961-3.609.707-7.135.36-10.577-1.042s-6.245-3.629-8.411-6.68c-1.59-2.208-2.649-4.657-3.177-7.348-.115-.589-.21-1.421-.284-2.498l-.083-4.069c.061-2.465.271-4.958.629-7.481.358-2.522.876-5.007 1.554-7.456 3.684-13.87 11.335-26.269 22.953-37.196 10.987-10.328 22.418-16.655 34.291-18.982 8.134-1.594 14.753-1.359 19.858.705 5.105 2.065 8.242 6.082 9.413 12.052 1.44 7.347-1.03 13.689-7.41 19.026-7.24 4.076-14.478 8.152-21.716 12.227l.349.749c3.443 1.231 6.318 2.694 8.626 4.388s3.796 4.247 4.465 7.658zm116.701-22.873-4.131 15.418-6.046 22.848c-.625 2.371-1.247 4.061-1.867 5.068-.766 1.308-1.674 2.065-2.723 2.27-.46.09-.945.049-1.455-.123-1.466-.532-2.327-1.453-2.584-2.765-.206-1.049-.084-2.332.367-3.851l6.731-21.962 1.136-3.593c-1.003 1.491-2.268 2.863-3.793 4.114-2.116 1.71-4.06 2.738-5.832 3.086-1.837.36-3.403.019-4.696-1.022-.967-.763-1.886-1.979-2.758-3.648-.794 1.517-1.941 3.138-3.44 4.862-1.238 1.334-2.534 2.457-3.888 3.369-1.355.912-2.72 1.503-4.098 1.773-2.688.527-5.176-.177-7.464-2.114-.732-.604-1.503-1.407-2.312-2.406-.302.535-.662 1.133-1.078 1.794-.416.66-.854 1.206-1.314 1.637-1.566 1.738-3.355 3.297-5.366 4.68-2.012 1.383-3.902 2.248-5.672 2.595-1.772.347-3.401.206-4.886-.423-1.486-.628-2.875-1.634-4.167-3.017l-1.313-1.479-1.543 2.039c-3.201 4.17-6.704 6.628-10.51 7.373-1.77.347-3.4.19-4.892-.47-1.493-.661-2.853-1.689-4.08-3.084l-1.233-1.596-1.425 2.116c-1.29 1.752-2.596 3.081-3.917 3.988-1.322.906-2.867 1.533-4.637 1.88-3.085.605-5.448-.329-7.091-2.801-1.121-1.552-1.913-3.507-2.375-5.868-.425-2.166-.289-4.951.408-8.355.677-2.79 1.625-5.513 2.842-8.171 1.217-2.657 2.767-5.259 4.65-7.807 2.319-3.111 4.889-5.727 7.709-7.847s5.904-3.508 9.251-4.165c4.066-.796 6.42.446 7.063 3.727.376 1.219.077 2.47-.898 3.752-.541.718-1.232 1.193-2.072 1.426-1.115.219-2.003.291-2.664.217s-1.224-.253-1.689-.538c-.466-.284-.828-.741-1.088-1.371-.259-.629-.51-.955-.752-.976-.243-.021-.528 0-.856.065-1.574.308-3.388 1.652-5.443 4.032-1.777 2.051-3.362 4.473-4.756 7.267s-2.399 5.664-3.013 8.611c-.615 2.946-.691 5.601-.228 7.963.206 1.049.534 1.938.983 2.668.45.73 1.265.979 2.447.748 1.443-.283 3.009-1.851 4.697-4.703 1.333-2.236 2.695-5.193 4.086-8.871.674-1.768 1.353-3.69 2.036-5.766.684-2.075 1.212-3.729 1.584-4.959.238-.523 1.406-.99 3.504-1.401 1.314-.258 2.419-.355 3.315-.293.897.062 1.326.336 1.286.822l-2.182 9.726c-.508 2.278-.822 3.805-.942 4.579-.24 1.205-.455 2.711-.645 4.52-.03.55-.025.923.013 1.12.129.656.501 1.078 1.116 1.264.616.186 1.383.188 2.302.008.985-.193 2.376-1.266 4.173-3.219 1.796-1.952 2.886-3.342 3.269-4.167-.193-.983-.376-1.917-.549-2.803-.174-.886-.298-1.866-.371-2.941-.45-2.297-.622-4.562-.515-6.797.106-2.235.381-4.826.824-7.773.267-1.416.549-2.851.844-4.305s.628-2.966 1-4.538c2.197-8.605 5.301-16.4 9.314-23.385 4.42-7.679 8.599-11.904 12.536-12.676 1.902-.372 3.369-.098 4.401.823 1.032.922 1.741 2.366 2.126 4.334.656 3.345.416 7.855-.719 13.528-.83 4.112-2.1 8.584-3.81 13.416-.476 1.388-.952 2.691-1.429 3.908s-1.086 2.716-1.828 4.498c-1.217 2.826-2.512 5.515-3.885 8.066-1.374 2.55-3.035 5.278-4.986 8.181l-4.351 5.961c.322 1.64 1.139 3.029 2.453 4.168 1.314 1.14 2.954 1.517 4.922 1.131 1.311-.257 2.855-1.241 4.632-2.953 1.434-1.371 2.593-2.756 3.476-4.155l-.504-6.234c-.193-4.8.37-9.747 1.687-14.84l1.275-4.441c1.953-6.378 4.809-12.49 8.568-18.335 3.758-5.846 6.883-9.013 9.376-9.501 1.641-.322 2.896-.091 3.765.693s1.483 2.094 1.843 3.93c.553 2.82.421 6.406-.396 10.755-.817 4.35-2.007 8.62-3.57 12.81-1.138 2.878-2.342 5.6-3.61 8.166-1.624 3.179-3.246 5.847-4.867 8.005-1.293 1.75-2.801 3.441-4.525 5.074-.014.275.03.675.133 1.2.244 1.247.794 2.229 1.65 2.947s2.169.903 3.941.556c1.576-.309 3.068-1.384 4.479-3.227 1.409-1.843 2.665-4.643 3.766-8.402l.36-1.299c.665-2.514 1.428-5.047 2.29-7.599.69-2.043 1.486-4.243 2.386-6.598l2.74-7.384c.094-.222.564-.519 1.412-.89.847-.371 1.664-.633 2.451-.787 1.247-.245 2.253-.322 3.019-.234.766.089 1.075.454.928 1.094-.025.211-.164.715-.417 1.513-.463 1.455-1.02 3.131-1.671 5.03-.836 2.342-1.672 4.856-2.507 7.541-1.008 3.194-1.752 5.826-2.231 7.897-.8 3.22-1.051 5.586-.755 7.095.244 1.245.89 1.765 1.939 1.559 1.574-.308 2.967-1.194 4.179-2.657s2.605-4.085 4.18-7.868c1.112-2.671 2.096-5.299 2.95-7.886.855-2.586 1.648-5.142 2.38-7.668l1.638-6.248c.184-.446.661-.795 1.428-1.048.768-.252 1.611-.468 2.53-.648 1.311-.257 2.383-.348 3.216-.273.832.074 1.163.368.991.88l-1.536 5.717-4.15 15.323zm-57.365-9.602c1.788-5.12 3.375-10.403 4.761-15.851 1.569-6.234 2.168-10.303 1.795-12.204-.154-.789-.494-1.132-1.018-1.029-1.18.231-3.003 2.479-5.472 6.744-2.468 4.265-4.306 8.356-5.515 12.271-1.208 3.915-2.039 6.803-2.491 8.663-.799 3.22-1.427 6.443-1.885 9.668-.567 4.061-.721 8.314-.461 12.759 3.23-5.061 5.778-9.783 7.644-14.167zm23.998-2.15c.943-3.183 1.768-6.273 2.476-9.273.879-3.849 1.197-6.398.952-7.645-.193-.985-.65-1.407-1.37-1.266-1.051.206-2.535 2.201-4.45 5.983-1.664 3.324-3.218 7.035-4.662 11.133l-1.776 6.581c-.52 2.212-.869 4.255-1.046 6.13-.178 1.874-.227 4.234-.147 7.079 2.042-2.444 3.783-4.863 5.221-7.257s2.621-4.873 3.549-7.437z"/></g><path d="m178.689 179.45.074-75.018h-8.719l.008.007h-.079v1.736h-4.037v3.125h-4.477v3.472h-3.744l-.074 75.018h8.719l-.008-.007h.08v-1.736h4.036v-3.125h4.478v-3.472z"/><path d="m129.444 187.783-10.625-.008v-2.016s-5.042-.021-5.042-.021v-2.823h-4.48v-3.473h-3.553l-13.289-74.922h21.047s10.63 59.105 10.63 59.105v.008l10.629-59.105h21.047l-13.288 74.922h-3.554v3.472h-4.48v2.824s-5.042.021-5.042.021z"/><path d="m129.444 187.783-10.625-.008v-2.016s-5.042-.021-5.042-.021v-2.823h-4.48v-3.473h-3.553l-13.289-74.922h21.047s10.63 59.105 10.63 59.105v.008l10.629-59.105h21.047l-13.288 74.922h-3.554v3.472h-4.48v2.824s-5.042.021-5.042.021zm-4.672-4.17 13.473-74.919h12.592s-11.81 66.589-11.81 66.589h-4.228v3.473h-4.48v2.841l-5.042.021v1.995zm-1.28-.001-.506-.001v-2.001l-5.042-.021v-2.841h-4.48v-3.473h-4.228s-11.81-66.589-11.81-66.589h12.592z"/></g></svg>