<?xml version="1.0" encoding="UTF-8" standalone="no"?><!DOCTYPE svg PUBLIC "-//W3C//DTD SVG 1.1//EN" "http://www.w3.org/Graphics/SVG/1.1/DTD/svg11.dtd"><svg width="100%" height="100%" viewBox="0 0 600 278" version="1.1" xmlns="http://www.w3.org/2000/svg" xmlns:xlink="http://www.w3.org/1999/xlink" xml:space="preserve" xmlns:serif="http://www.serif.com/" style="fill-rule:evenodd;clip-rule:evenodd;stroke-linejoin:round;stroke-miterlimit:2;"><g id="bally_arcade"><path id="text2559" d="M107.87,99.96l0.456,2.325c0.722,3.682 0.204,7.457 -1.553,11.324c-1.466,3.306 -3.86,6.492 -7.184,9.558c-2.547,2.412 -5.32,4.441 -8.319,6.085c-2.999,1.645 -5.661,2.695 -7.986,3.15c-4.167,0.817 -7.471,0.911 -9.91,0.282c-2.439,-0.629 -4.227,-1.663 -5.364,-3.1c-1.137,-1.437 -1.867,-2.979 -2.19,-4.627c-0.418,-2.132 -0.032,-4.145 1.157,-6.038c1.189,-1.893 2.829,-2.894 4.921,-3.003c1.783,-0.15 3.254,0.291 4.413,1.323c1.159,1.032 2.015,2.449 2.568,4.251c0.418,2.133 0.392,3.799 -0.075,5c5.703,-2.227 10.228,-5.58 13.576,-10.06c3.348,-4.48 4.538,-9.191 3.569,-14.134l-0.171,-0.874c-0.57,-2.907 -2.379,-5.722 -5.428,-8.445c-3.4,-2.957 -6.807,-5.963 -10.221,-9.016c-0.684,-3.49 2.391,-7.565 9.227,-12.225c10.468,-7.187 16.743,-11.889 18.824,-14.106c6.436,-6.698 8.828,-14.263 7.175,-22.695c-2.317,-11.822 -11.666,-16.128 -28.045,-12.917c-7.753,1.519 -15.139,4.526 -22.159,9.021c-7.02,4.495 -13.916,10.778 -20.688,18.85c-5.466,6.505 -10.52,13.835 -15.161,21.992c-4.64,8.156 -8.42,16.344 -11.337,24.563c-2.918,8.22 -4.641,15.603 -5.17,22.151c-0.27,4.279 -0.092,8.017 0.535,11.214c0.741,3.78 1.774,6.999 3.1,9.657c3.175,5.92 7.815,8.281 13.919,7.085c2.908,-0.57 5.489,-1.906 7.745,-4.008c2.255,-2.102 4.29,-4.942 6.104,-8.52c2.95,-6.011 5.469,-13.699 7.559,-23.065l4.936,-22.556l1.563,-5.894c3.197,-10.388 5.578,-17.496 7.144,-21.326c3.813,-9.301 7.701,-15.648 11.664,-19.042c2.156,-1.832 4.385,-3.427 6.685,-4.784c2.3,-1.356 4.371,-2.215 6.214,-2.577c1.745,-0.341 2.761,-0.037 3.049,0.914c0.247,0.756 -1.428,2.745 -5.023,5.964c-2.467,2.296 -4.618,5.184 -6.451,8.664c-3.221,6.166 -6.889,18.006 -11.006,35.521l-1.741,7.284l-3.516,15.183c-1.2,4.66 -1.967,7.678 -2.303,9.052c-1.45,4.916 -3.25,9.596 -5.398,14.041c-1.329,2.978 -2.908,5.703 -4.737,8.175c-2.862,3.884 -5.915,6.923 -9.159,9.118c-3.243,2.194 -6.706,3.652 -10.388,4.374c-5.333,1.045 -10.542,0.532 -15.627,-1.54c-5.085,-2.071 -9.227,-5.361 -12.427,-9.869c-2.35,-3.262 -3.914,-6.88 -4.693,-10.856c-0.171,-0.869 -0.311,-2.099 -0.42,-3.691l-0.123,-6.011c0.091,-3.642 0.401,-7.326 0.93,-11.052c0.529,-3.726 1.294,-7.398 2.295,-11.016c5.443,-20.493 16.747,-38.812 33.912,-54.956c16.233,-15.258 33.121,-24.606 50.663,-28.044c12.017,-2.356 21.797,-2.008 29.339,1.042c7.542,3.051 12.177,8.986 13.906,17.806c2.128,10.855 -1.521,20.225 -10.946,28.11c-10.697,6.022 -21.392,12.043 -32.086,18.064l0.516,1.106c5.087,1.82 9.335,3.981 12.745,6.484c3.41,2.503 5.609,6.274 6.596,11.314Zm172.418,-33.794l-6.103,22.78l-8.933,33.756c-0.922,3.504 -1.841,5.999 -2.757,7.487c-1.132,1.933 -2.473,3.051 -4.023,3.355c-0.68,0.133 -1.397,0.073 -2.15,-0.182c-2.166,-0.786 -3.439,-2.147 -3.818,-4.085c-0.304,-1.549 -0.123,-3.446 0.543,-5.69l9.944,-32.447l1.678,-5.309c-1.482,2.204 -3.35,4.23 -5.604,6.078c-3.126,2.527 -5.998,4.046 -8.615,4.559c-2.716,0.532 -5.029,0.029 -6.939,-1.51c-1.429,-1.127 -2.787,-2.923 -4.074,-5.389c-1.174,2.242 -2.868,4.637 -5.084,7.184c-1.828,1.971 -3.743,3.63 -5.743,4.977c-2.002,1.348 -4.019,2.221 -6.054,2.619c-3.973,0.779 -7.649,-0.262 -11.029,-3.122c-1.081,-0.894 -2.219,-2.079 -3.415,-3.555c-0.447,0.791 -0.978,1.674 -1.592,2.65c-0.616,0.976 -1.263,1.782 -1.943,2.419c-2.313,2.567 -4.956,4.871 -7.928,6.914c-2.972,2.043 -5.765,3.321 -8.379,3.833c-2.618,0.513 -5.025,0.305 -7.22,-0.623c-2.195,-0.929 -4.247,-2.415 -6.155,-4.458l-1.94,-2.186l-2.279,3.013c-4.73,6.16 -9.906,9.792 -15.528,10.894c-2.615,0.512 -5.025,0.28 -7.229,-0.696c-2.205,-0.976 -4.214,-2.495 -6.028,-4.556l-1.821,-2.357l-2.105,3.126c-1.907,2.588 -3.836,4.552 -5.788,5.891c-1.952,1.34 -4.236,2.265 -6.85,2.778c-4.558,0.893 -8.05,-0.486 -10.477,-4.138c-1.656,-2.293 -2.826,-5.182 -3.509,-8.669c-0.628,-3.201 -0.427,-7.316 0.602,-12.345c1.001,-4.122 2.401,-8.145 4.199,-12.071c1.798,-3.926 4.088,-7.771 6.87,-11.535c3.427,-4.597 7.223,-8.462 11.39,-11.594c4.167,-3.132 8.723,-5.183 13.668,-6.153c6.007,-1.177 9.486,0.658 10.436,5.506c0.555,1.801 0.113,3.649 -1.328,5.544c-0.799,1.06 -1.82,1.762 -3.06,2.107c-1.648,0.323 -2.96,0.429 -3.937,0.32c-0.976,-0.11 -1.808,-0.375 -2.495,-0.794c-0.688,-0.42 -1.223,-1.095 -1.607,-2.026c-0.384,-0.93 -0.754,-1.411 -1.112,-1.443c-0.358,-0.031 -0.779,0.001 -1.264,0.096c-2.325,0.456 -5.006,2.442 -8.042,5.958c-2.625,3.029 -4.967,6.608 -7.027,10.736c-2.059,4.128 -3.543,8.368 -4.451,12.722c-0.908,4.353 -1.02,8.275 -0.336,11.765c0.303,1.55 0.787,2.864 1.452,3.942c0.664,1.079 1.869,1.447 3.614,1.105c2.132,-0.418 4.446,-2.734 6.94,-6.949c1.969,-3.304 3.981,-7.672 6.037,-13.106c0.996,-2.612 1.999,-5.452 3.009,-8.518c1.01,-3.067 1.789,-5.509 2.339,-7.328c0.352,-0.772 2.078,-1.462 5.178,-2.07c1.94,-0.38 3.573,-0.524 4.898,-0.432c1.324,0.092 1.957,0.497 1.899,1.215l-3.224,14.37c-0.75,3.365 -1.214,5.62 -1.392,6.764c-0.355,1.78 -0.672,4.006 -0.953,6.678c-0.044,0.813 -0.037,1.364 0.02,1.654c0.19,0.97 0.74,1.593 1.649,1.868c0.909,0.275 2.043,0.279 3.4,0.013c1.455,-0.285 3.51,-1.871 6.165,-4.756c2.655,-2.885 4.265,-4.938 4.831,-6.157c-0.285,-1.452 -0.555,-2.833 -0.812,-4.142c-0.256,-1.308 -0.439,-2.757 -0.547,-4.345c-0.665,-3.393 -0.919,-6.74 -0.761,-10.042c0.157,-3.301 0.563,-7.129 1.218,-11.484c0.394,-2.092 0.809,-4.212 1.245,-6.36c0.436,-2.148 0.929,-4.383 1.478,-6.705c3.246,-12.712 7.833,-24.229 13.762,-34.55c6.529,-11.344 12.703,-17.587 18.521,-18.727c2.81,-0.551 4.977,-0.145 6.502,1.216c1.524,1.361 2.571,3.495 3.141,6.403c0.969,4.942 0.614,11.604 -1.063,19.986c-1.226,6.076 -3.102,12.683 -5.628,19.821c-0.704,2.052 -1.408,3.976 -2.112,5.774c-0.704,1.798 -1.604,4.014 -2.701,6.645c-1.798,4.177 -3.712,8.149 -5.74,11.917c-2.029,3.769 -4.484,7.798 -7.365,12.089l-6.429,8.806c0.475,2.422 1.683,4.475 3.624,6.159c1.94,1.683 4.365,2.24 7.272,1.67c1.937,-0.38 4.218,-1.834 6.843,-4.363c2.119,-2.025 3.831,-4.071 5.136,-6.139l-0.745,-9.211c-0.285,-7.091 0.546,-14.399 2.493,-21.925l1.884,-6.561c2.885,-9.423 7.105,-18.453 12.657,-27.089c5.553,-8.636 10.17,-13.315 13.853,-14.037c2.425,-0.475 4.279,-0.134 5.563,1.024c1.283,1.159 2.191,3.094 2.723,5.806c0.816,4.167 0.621,9.465 -0.585,15.891c-1.207,6.427 -2.965,12.735 -5.274,18.925c-1.683,4.252 -3.46,8.274 -5.334,12.066c-2.4,4.696 -4.797,8.638 -7.191,11.825c-1.91,2.586 -4.139,5.085 -6.685,7.498c-0.022,0.406 0.044,0.997 0.196,1.772c0.361,1.843 1.173,3.294 2.438,4.355c1.264,1.06 3.205,1.334 5.823,0.821c2.327,-0.456 4.533,-2.045 6.616,-4.768c2.083,-2.722 3.938,-6.86 5.565,-12.412l0.532,-1.92c0.982,-3.715 2.11,-7.457 3.383,-11.227c1.02,-3.019 2.195,-6.269 3.525,-9.748l4.049,-10.911c0.138,-0.328 0.833,-0.766 2.085,-1.314c1.252,-0.547 2.459,-0.935 3.621,-1.163c1.843,-0.361 3.33,-0.476 4.461,-0.345c1.132,0.132 1.589,0.67 1.372,1.616c-0.037,0.311 -0.243,1.056 -0.617,2.235c-0.685,2.149 -1.507,4.626 -2.468,7.432c-1.236,3.46 -2.47,7.175 -3.704,11.142c-1.49,4.718 -2.589,8.606 -3.297,11.666c-1.181,4.759 -1.553,8.253 -1.115,10.483c0.36,1.84 1.315,2.608 2.865,2.304c2.325,-0.456 4.383,-1.764 6.174,-3.926c1.79,-2.161 3.849,-6.036 6.175,-11.624c1.643,-3.947 3.097,-7.83 4.36,-11.651c1.262,-3.821 2.434,-7.598 3.515,-11.329l2.42,-9.232c0.273,-0.659 0.976,-1.175 2.111,-1.547c1.133,-0.373 2.379,-0.693 3.737,-0.959c1.937,-0.379 3.521,-0.514 4.751,-0.403c1.23,0.11 1.718,0.544 1.464,1.3l-2.269,8.447l-6.132,22.638Zm-84.752,-14.186c2.642,-7.564 4.986,-15.37 7.033,-23.419c2.319,-9.211 3.204,-15.221 2.653,-18.031c-0.228,-1.165 -0.73,-1.672 -1.505,-1.52c-1.742,0.342 -4.436,3.663 -8.083,9.964c-3.647,6.302 -6.363,12.345 -8.148,18.13c-1.786,5.784 -3.013,10.051 -3.681,12.798c-1.181,4.759 -2.109,9.52 -2.784,14.284c-0.839,6 -1.067,12.284 -0.682,18.852c4.772,-7.477 8.537,-14.455 11.294,-20.932l3.903,-10.126Zm35.455,-3.176c1.394,-4.702 2.613,-9.269 3.658,-13.7c1.299,-5.688 1.768,-9.453 1.407,-11.296c-0.285,-1.455 -0.96,-2.078 -2.025,-1.869c-1.553,0.304 -3.744,3.251 -6.573,8.839c-2.46,4.911 -4.756,10.393 -6.889,16.447l-2.623,9.724c-0.769,3.268 -1.285,6.287 -1.547,9.056c-0.262,2.77 -0.334,6.256 -0.216,10.459c3.017,-3.611 5.589,-7.184 7.714,-10.721c2.124,-3.537 3.872,-7.2 5.242,-10.988l1.852,-5.951Z" style="fill:#fff;fill-rule:nonzero;"/><path d="M377.853,277.843l11.356,-0.098l0.517,-1.86l0.073,-31.354l-1.674,-0.347l-14.129,-0.172l-0.566,-0.35l0,-5.084l-1.177,-0.452l-5.147,0l0,-6.175l-0.892,-0.893l-6.184,0l0.194,-30.69l6.696,-0.372l0.191,-4.836l0.382,-1.675l5.904,0l0.404,-2.418l0.187,-3.72l7.533,-0.1l7.533,-0.101l0,5.163l0.452,1.176l5.486,0l0.249,0.99l0.248,0.99l-0.545,81.384l0.897,1.082l29.579,-0l0.838,-1.01l-0.189,-96.27l-6.324,-0.372l-0.215,-6.51l-5.46,0l-0.8,-0.965l-0.22,-5.917l-5.581,-0.372l-0.219,-4.991l-5.732,-0.217l-0.373,-3.72l-7.003,-0.372l-0.832,-2.976l-26.901,-0.195l-0.626,3.171l-7.232,0.213l-0,3.606l-1.674,0.449l-4.278,0.01l-0.011,3.534l-0.22,0.822l-0.22,0.821l-5.316,0.217l-0.372,6.696l-5.952,0.372l-0.372,6.324l-5.702,0.216l-0.474,6.48l-0.149,1.488l-5.208,0.224l-0.677,0.677l-0.185,51.924l0.355,1.302l5.486,0l0.504,0.817l0.47,7.181l5.58,0.372l0.372,7.068l5.952,0.372l0.215,6.511l4.621,0.011l0.89,0.566l0.113,2.408l0.113,2.409l5.58,0.372l0.403,3.502l0.588,0.59l7.007,0.258l0,2.408l0.507,0.506l11.355,-0.098l0.001,0Z" style="fill:#fff;"/><path d="M483.047,277.842l14.029,-0.097l0.624,-2.409l1.655,-0.378l5.208,-0.189l0.224,-3.902l1.636,-0.369l4.092,-0.193l0.372,-4.836l5.58,-0.372l0.372,-6.696l2.85,-0.108l2.85,-0.109l0.778,-0.936l0.109,-3.144l0.11,-3.143l5.58,-0.373l0.451,-35.34l0.107,-86.412l-1.177,-0.451l-30.295,-0l-0.893,0.892l0,108.463l-1.674,0.378l-3.72,0.194l-0.372,5.58l-15.624,0l-0.372,-5.58l-5.58,-0.372l-0.22,-5.917l-0.801,-0.965l-6.233,0l-0,-30.813l5.766,-0.479l1.116,-0.151l0.107,-3.005l0.107,-3.004l6.11,-0.679l0.216,-6.138l14.789,0l1.177,-0.451l0,-32.296l-23.622,0.197l-0.226,2.701l-6.711,0.321l-0.339,0.535l-0.339,0.535l-0.01,2.756l-2.418,0.405l-3.72,0.187l-0.219,4.991l-5.733,0.217l-0.215,6.51l-3.598,0l-2.297,0.46l-0.214,6.422l-6.138,0.216l-0,7.384l-1.439,0.77l-5.262,0l0.191,53.755l3.069,0.108l3.069,0.108l0.094,5.736l0.179,1.756l0.514,0.326l0.514,0.325l4.942,0.011l0.452,1.177l-0,5.892l3.906,0.011l1.674,0.449l-0,5.774l0.961,0.797l5.177,0.224l0.109,2.697l0.11,2.697l5.919,0l0,2.139l0.46,2.3l7.538,0.211l0.222,1.86l0.316,0.939l14.03,-0.097l-0,-0.002Z" style="fill:#fff;"/><path d="M585.433,277.931l14.094,-0l0.39,-2.418l0.083,-29.878l-1.184,-1.185l-18.919,0l-0.032,-1.581l-0.026,-1.581l-0.266,-1.413l-0.979,-0.612l-4.139,0.109l-0.883,-0.546l0,-3.273l-5.766,-0.217l0,-3.72l31.249,-0.372l0.93,-0.602l-0,-30.38l-1.796,-0.451l-26.493,0.454l-4.076,-0.509l0,-3.565l3.452,-0.473l2.501,-0l-0,-3.334l1.674,-0.381l4.464,-0.192l0.372,-4.836l19.716,-0.372l0,-32.736l-13.578,-0.09l-13.578,-0.09l-1.004,0.642l-0.512,2.514l-6.669,0.372l-0.372,3.72l-5.379,0.419l-0.444,0.444l-0.291,4.345l-0.021,0.558l-5.475,0l-0.397,6.369l-0.266,0.254l-4.836,0.218l-1.272,0.61l-0.216,6.127l-5.58,0.372l-0.372,7.441l-4.464,0.191l-1.679,0.382l0.19,53.367l5.767,0.218l0.073,6.479l0.514,1.86l5.549,0.372l0.213,7.224l3.056,0.108l3.056,0.108l0.213,6.882l5.461,-0l0.794,0.956l0.114,2.219l0.114,2.219l5.58,0.372l0.226,3.534l6.135,0l0.892,0.893l0,2.455l14.092,-0Z" style="fill:#fff;"/><path d="M313.382,277.931l11.97,-0l0.843,-1.016l-0.194,-31.907l-18.042,-0.199l0,-5.506l-0.451,-1.177l-5.524,0l-0.407,-1.059l-0.229,-3.963l-0.084,-1.674l-5.766,-0.011l-0.938,-0.596l0.195,-30.083l5.952,-0.373l0.93,-0.601l0,-5.894l1.674,-0.381l4.464,-0.192l0.216,-6.138l7.596,-0.068l10.355,-0.305l0.213,-0.213l0.206,-31.757l-0.776,-0.776l-24.877,0.196l-0.231,2.788l-1.629,0.373l-5.952,0.188l-0.113,1.767l-0.114,1.767l-4.237,0.01l-1.674,0.448l-0,5.122l-3.906,0.01l-1.674,0.448l-0,6.145l-2.325,0.465l-4.343,-0l-0.214,6.882l-5.766,0.217l-0.031,0.527l-0.39,6.696l-0.302,0.93l-5.517,0l-0.418,3.906l-0.031,46.129l0.452,3.504l5.674,0.216l0.21,7.918l5.506,0.278l0.608,0.605l0.372,6.451l5.93,0.22l0.569,0.896l0.01,5.734l2.697,0.109l2.697,0.109l0.373,5.208l2.863,0.108l2.863,0.109l0.225,3.503l5.953,0.188l1.674,0.384l-0,2.441l0.892,0.893l11.97,0l0.003,0.001Z" style="fill:#fff;"/><path d="M120.935,277.297l11.206,-0.076l0.359,-0.36l0.021,-30.95l-0.419,-0.418l-14.744,-0.025l-1.343,-0.693l0.153,-1.998l-0.113,-4.278l-5.952,0l-0.123,-0.93l-0.173,-3.348l-0.073,-2.418l-5.861,0l-0.853,-1.027l0.251,-30.65l1.069,-0.676l5.394,-0.012l0.01,-3.906l0.431,-1.606l6.069,-0.626l0.372,-6.696l15.624,0l0.181,4.092l0.422,3.162l5.441,0l0.44,2.199l0.111,58.996l-0.021,21.756l0.792,0.49l30.39,0.019l0.563,-0.565l-0.159,-96.011l-0.43,-0.43l-3.875,-0.085l-1.302,-0.131l-0.008,-3.535l-0.449,-2.715l-5.808,-0.263l-0.514,-0.515l-0.241,-2.459l-0.052,-3.874l-5.766,-0.218l-0.196,-3.348l-0.377,-1.674l-5.179,0l-0.372,-1.674l-0.1,-1.302l-0.1,-1.302l-6.562,-0.126l-1.014,-0.389l-0.118,-1.23l-0.118,-1.231l-26.785,0l-0.372,2.604l-2.604,0.122l-6.882,0.064l-0,4.012l-1.177,0.452l-4.74,-0l0.123,4.454l-0.799,0.798l-4.754,0.151l-0.214,6.422l-1.646,0.441l-4.993,0.01l-0.215,6.51l-5.022,0.22l-0.094,0.152l-0.467,7.812l-6.048,0.215l-0.245,1.534l-0.245,1.534l0.104,49.249l0.492,0.796l5.571,0.241l0.105,3.999l0.106,3.999l1.277,0.066l1.701,-0.057l1.702,-0.057l0.843,1.017l0.217,6.657l5.829,0.124l0.495,0.496l0.263,6.267l1.597,0.359l3.72,0.194l0.372,5.208l5.58,0.372l0.242,2.967l0.819,0.986l6.414,-0.185l0.896,0.554l0,2.126l0.742,0.248l11.206,-0.075l0.002,-0.002Z" style="fill:#fff;"/><path d="M191.869,277.263l14.68,-0.109l0.209,-0.21l0.021,-89.707l0.952,-0.366l19.818,-0.092l0.257,0.414l0.256,0.415l-0.094,16.426l-0.183,0.183l-6.127,0.209l-0.453,2.412l0.173,0.485l0.174,0.485l-0.67,1.302l-8.796,-0l-0.363,4.278l0.135,18.972l4.287,9.3l2.047,4.853l0.838,1.471l1.959,4.836l2.11,4.53l2.017,4.617l2.018,4.618l1.688,3.72l2.013,4.464l1.043,2.418l11.909,0.06l18.775,0.074l0.359,-0.359l-2.899,-7.402l-1.541,-3.126l-0,-0.79l-0.717,-1.292l-2.575,-6.324l-1.532,-3.72l-1.531,-3.72l-0.661,-1.488l-1.353,-3.348l-1.354,-3.348l-0.71,-1.319l-1.563,-4.261l-0.652,-0.707l0,-1.62l-1.116,-0.926l0,-1.071l-1.775,-3.86l-1.315,-3.569l0.673,-0.673l5.58,-0.222l0.372,-6.104l0.744,-0.739l4.825,-0.225l0.209,-7.031l0.918,-0.584l1.959,-0.011l0.449,-1.674l0.01,-26.599l-0.558,-0.095l-1.66,-0.175l-1.13,-0.937l0,-4.422l-0.77,-1.439l-4.005,0l-1.177,-0.452l-0,-5.828l-0.769,-0.475l-5.555,-0.42l-0.083,-1.939l0.124,-0.665l-0.467,-2.125l-5.46,0l-1.177,-0.452l-0,-2.835l-0.452,-1.177l-5.793,0l-0.451,-1.177l-0,-1.763l-11.718,-0.222l-9.034,0.229l0.18,0.684l0.178,0.685l-0.837,1.564l-4.81,0l0,3.743l-0.93,0.318l-5.533,0.217l-0.083,2.604l-0.152,2.389l-6.51,0.215l-0.197,6.287l-0.918,0.61l-4.092,-0.076l-0.93,0.06l-0.011,5.767l-0.571,0.898l-6.672,0.218l-0.189,96.113l2.049,0.236l14.68,-0.11l-0.014,0.001Z" style="fill:#fff;"/></g></svg>