<svg clip-rule="evenodd" fill-rule="evenodd" stroke-linejoin="round" stroke-miterlimit="2" viewBox="0 0 600 426" xmlns="http://www.w3.org/2000/svg"><path d="m108.536 349.135c7.984 7.727 16.593 15.668 21.772 19.612l.025.018c31.752 24.041 69.99 44.628 120.468 51.558 58.688 8.083 130.947 7.506 183.916-10.933l.025-.009c2.136-.749 4.229-1.509 6.293-2.299 5.514.292 10.979.463 16.361.488 71.178.419 129.444-23.014 138.703-94.434l.003-.025c1.576-12.373.122-24.142-3.393-35.58-1.181-3.843-2.603-7.646-4.218-11.416 1.961-3.918 4.045-8.114 5.616-11.881l.375-.212 1.376-4.457c11.686-37.848-2.179-75.174-31.228-107.728 5.344-30.345-.664-56.378-17.719-79.733l-.003-.003c-23.786-32.548-72.401-43.454-117.329-36.724-20.127-10.536-43.406-18.364-71.367-22.329l-.005-.001c-73.365-10.367-128.408 15.462-186.836 47.293-46.833 25.519-86.114 51.726-108.122 90.037-4.76 3.081-9.395 6.334-13.884 9.778-34.169 26.206-50.115 55.571-49.338 84.61.76 28.385 17.759 58.752 56.805 87.308 13.053 9.56 33.873 20.335 51.704 27.062zm330.428 38.373c6.882.45 13.689.724 20.363.754 59.484.348 110.164-16.346 117.897-76.356 1.182-9.271 0-18.098-2.624-26.681-1.908-6.263-4.607-12.376-7.711-18.446-3.712 7.437-8.125 14.919-13.131 22.297-25.417 37.387-64.748 70.227-103.466 92.931-3.563 2.099-7.384 3.874-11.333 5.5-5.269-.325-10.568-.74-15.912-1.278-53.474-5.301-109.254-19.806-143.536-25.58v-.001c-35.997-6.047-90.536-11.008-134.872-21.247-9.359-2.167-18.12-4.643-26.06-7.526 8.206 8.117 17.876 17.299 23.391 21.521 29.336 22.334 64.645 41.601 111.333 48.04 56.017 7.755 125.016 7.622 175.578-10.077 3.43-1.205 6.808-2.469 10.083-3.851zm-332.597-68.032c-42.303-44.735-52.261-98.291-36.262-146.848 2.032-6.166 4.502-11.977 7.356-17.515-5.989 3.682-11.77 7.63-17.293 11.881-54.953 42.377-57.104 91.475 7.149 138.702 12.576 9.256 33.151 19.695 49.933 25.705.436.147.895.304 1.325.474-5.043-5.005-9.56-9.604-12.207-12.398zm329.211-5.419c-5.552 1.383-11.711 3.039-21.64 3.039-19.451 0-41.918-10.166-41.918-38.674 0-26.215 17.765-39.323 41.793-39.323 7.422 0 14.623 1.752 21.625 3.903l-1.568 16.295c-6.255-3.527-12.324-5.286-18.993-5.286-13.795 0-22.785 10.379-22.785 24.411 0 14.809 10.128 23.791 24.338 23.791 6.373 0 12.849-1.766 18.187-3.918zm2.972-35.947c0 23.961 12.738 38.983 36.588 38.983 23.791 0 36.544-15.022 36.544-38.983 0-24.168-12.531-39.006-36.544-39.006-24.049 0-36.588 14.838-36.588 39.006zm-159.319-37.694h30.645l12.634 50.088h.21l13.352-50.088h29.461v75.343h-19.015l.325-57.844h-.222l-15.755 57.844h-17.861l-14.964-57.844h-.188l.406 57.844h-19.022zm-154.458 0h24.759l24.642 51.197h.236l-.333-51.197h17.766v75.343h-24.153l-25.469-51.493h-.21l.635 51.493h-17.884zm70.963 75.341h19.769l5.708-16.05h27.391l5.412 16.05h21.344l-28.116-75.343h-23.821zm262.894-37.647c0-13.079 4.679-24.094 16.508-24.094 11.785 0 16.502 11.015 16.502 24.094 0 12.398-4.717 24.101-16.502 24.101-11.829 0-16.508-11.703-16.508-24.101zm-214.602 7.335h-18.298l9.389-29.491h.21zm299.266-138.359c7.512-28.736 3.8-52.882-11.681-74.196-20.53-28.227-64.046-34.644-102.497-27.465-.392.104-1.05.214-1.901.413 2.624 1.508 5.219 3.09 7.748 4.716 21.543 13.219 46.421 32.907 66.722 52.447l.001.001c15.385 14.83 30.356 31.443 41.608 44.085-.614 2.306-1.272 4.642-2.032 7.014-3.253 10.957-5.59 21.322-5.419 30.327.523 27.14 13.196 50.495 26.681 74.271 1.515 2.669 2.965 5.367 4.362 8.08.488-.997.968-1.98 1.448-2.964 2.81-5.952 7.645-14.432 9.463-20.294h.001c9.581-31.184-3.334-61.496-27.258-88.288-2.181-2.462-4.621-5.198-7.246-8.147zm-54.901 1.577h19.229v75.358h-19.229zm-363.623 75.356h30.43c12.908 0 28.079-3.8 28.079-21.81 0-9.167-4.946-14.579-14.557-16.604v-.243c8.051-2.817 12.701-8.088 12.701-17.596 0-12.967-10.032-19.104-23.443-19.104h-33.21zm139.894-75.358h24.53l24.405 51.175h.189l-.275-51.175h17.559v75.357h-23.887l-25.27-51.492h-.189l.6 51.492h-17.662zm77.355 75.355h26.282c24.589 0 42.673-9.825 42.673-37.985 0-29.181-17.551-37.372-42.673-37.372h-26.282zm-159.925 0h19.555l5.692-16.08h27.066l5.368 16.08h21.092l-27.805-75.357h-23.584zm224.553 0h19.548l5.692-16.08h27.074l5.374 16.08h21.123l-27.813-75.357h-23.591zm-262.655-31.928h5.9c6.617 0 14.158.726 14.158 8.924 0 7.689-7.312 8.753-14.351 8.753h-5.707zm217.256-28.54h7.474c14.04 0 22.424 7.778 22.424 22.786 0 15.023-8.066 22.807-22.424 22.807h-7.474zm-131.388 30.142h-18.098l9.323-29.461h.189zm224.591 0h-18.135l9.337-29.461h.189zm-310.459-30.79h5.582c6.439 0 12.627.65 12.627 7.578 0 6.344-6.52 7.992-12.827 7.992h-5.382zm127.772-75.339c68.038-20.516 135.544-37.173 138.612-37.89 2.204-.547 12.206-2.839 16.835-3.829-19.777-11.46-42.962-19.895-71.484-23.969-68.844-9.773-120.256 15.541-175.09 45.564-45.209 24.767-83.527 49.356-103.178 87.674 14.964-9.293 31.177-16.93 47.515-23.451 24.375-9.692 113.528-34.045 146.79-44.099z" fill="#fff"/></svg>