<?xml version="1.0" encoding="UTF-8" standalone="no"?><!DOCTYPE svg PUBLIC "-//W3C//DTD SVG 1.1//EN" "http://www.w3.org/Graphics/SVG/1.1/DTD/svg11.dtd"><svg width="100%" height="100%" viewBox="0 0 600 174" version="1.1" xmlns="http://www.w3.org/2000/svg" xmlns:xlink="http://www.w3.org/1999/xlink" xml:space="preserve" xmlns:serif="http://www.serif.com/" style="fill-rule:evenodd;clip-rule:evenodd;stroke-linejoin:round;stroke-miterlimit:2;"><g id="bandai_sufami_turbo"><g id="bandai_tall"><path d="M26.952,173.663l66.03,0c2.584,0 4.671,-2.093 4.671,-4.673l0,-64.146c0,-2.581 -2.087,-4.674 -4.671,-4.674l-66.03,0c-2.579,0 -4.672,2.093 -4.672,4.674l0,64.146c0,2.58 2.093,4.673 4.672,4.673Zm32.76,-26.843l4.752,15.54l6.093,-0l-8.288,-23.851l-5.791,-0l-8.305,23.851l13.522,-0l0,-5.182l-5.789,-0l3.288,-10.321l0.276,-1.036l0.242,0.999Zm-9.989,3.97c0,8.389 -6.014,11.563 -10.435,11.563l-9.842,0l-0,-23.851l9.906,-0c3.731,-0 10.371,1.81 10.371,12.288Zm27.198,11.556l-5.717,-0l-0,-23.803l5.717,0l-0,23.803Zm-32.905,-11.808c-0,-4.994 -2.355,-7.019 -6.868,-7.019l-2.093,-0l-0,13.739l3.746,0c2.018,0 5.215,-0.768 5.215,-6.72Zm4.334,-24.149c0.257,1.007 0.198,2.157 0.198,2.157c0,0 0.152,1.38 -0.692,3.002c-1.046,2.011 -2.615,2.78 -2.615,2.78c-0,-0 -0.889,0.524 -2.233,0.78c-1.438,0.279 -3.275,0.279 -3.275,0.279l-10.286,0l-0,-23.911l12.433,-0c0,-0 1.779,0.044 3.089,0.659c1.321,0.627 2.167,1.824 2.167,1.824c-0,0 0.999,1.35 1.108,3.605c0.093,1.779 -0.869,3.321 -0.869,3.321c-0,0 -0.322,0.706 -0.939,1.211c-0.602,0.485 -1.494,0.774 -1.494,0.774c-0,-0 1.352,0.256 2.291,1.453c0.636,0.811 0.865,1.071 1.117,2.066l0,-0Zm42.155,-14.914l0,23.912l-5.814,-0l-7.318,-12.471l-0.442,-0.925l-0,13.345l-5.727,0l-0,-23.861l5.824,0l7.42,12.921l0.367,0.751l0,-13.672l5.69,0Zm-30.793,8.323l4.752,15.54l6.093,0l-8.288,-23.851l-5.791,0l-8.305,23.851l13.522,0l0,-5.182l-5.789,0l3.288,-10.321l0.276,-1.036l0.242,0.999Zm-20.41,10.458c1.535,-0 3.436,-0.515 3.436,-2.426c-0,-2.151 -2.057,-2.496 -3.331,-2.496l-2.427,-0l-0,-4.48l2.2,0c1.973,0 2.949,-0.609 2.949,-2.342c-0,-1.736 -1.228,-2.281 -2.949,-2.281l-0.685,-0.006l-3.473,0.004l0,14.029l4.28,-0.002Z" style="fill:#fff;"/></g><g id="nintendo_super_famicom"><g><g><path id="path865" d="M127.641,77.124l-0,-6.464l20.567,-0c2.293,-0 3.439,-1.001 3.439,-3.004c-0,-1.958 -1.146,-2.938 -3.439,-2.938l-10.294,0c-3.613,0 -6.377,-0.805 -8.293,-2.416c-1.9,-1.625 -2.851,-3.954 -2.851,-6.986c0,-3.033 0.936,-5.354 2.808,-6.965c1.886,-1.625 4.563,-2.437 8.031,-2.437l23.136,-0l-0,6.529l-20.481,-0c-2.35,-0 -3.526,0.958 -3.526,2.873c0,1.959 1.176,2.938 3.526,2.938l10.512,0c3.526,0 6.211,0.813 8.053,2.438c1.858,1.61 2.786,3.932 2.786,6.964c0,3.076 -0.928,5.427 -2.786,7.052c-1.842,1.611 -4.527,2.416 -8.053,2.416l-23.135,-0Z" style="fill:#fff;fill-rule:nonzero;"/><path id="path867" d="M178.488,77.124c-4.237,-0 -7.56,-1.023 -9.968,-3.069c-2.409,-2.046 -3.613,-5.332 -3.613,-9.859l-0,-18.282l9.968,-0l-0,18.347c-0,2.177 0.558,3.744 1.676,4.701c1.117,0.958 2.575,1.437 4.374,1.437l8.401,-0l0,-24.485l9.969,-0l-0,31.21l-20.807,-0Z" style="fill:#fff;fill-rule:nonzero;"/><path id="path869" d="M204.714,77.124l0,-31.21l20.567,-0c4.658,-0 8.075,0.928 10.252,2.785c2.191,1.843 3.286,4.368 3.286,7.575c0,3.163 -1.081,5.673 -3.243,7.53c-2.162,1.843 -5.593,2.764 -10.295,2.764l-10.599,0l0,10.556l-9.968,-0Zm23.615,-20.829c-0,-2.611 -1.604,-3.917 -4.81,-3.917l-8.837,-0l0,7.791l8.837,0c3.206,0 4.81,-1.291 4.81,-3.874Z" style="fill:#fff;fill-rule:nonzero;"/><path id="path871" d="M275.011,52.378l-12.863,-0c-3.12,-0 -5.376,0.478 -6.769,1.436c-1.378,0.958 -2.191,2.394 -2.437,4.31l22.069,-0l-0,6.398l-22.069,0c0.101,1.872 0.841,3.352 2.22,4.44c1.393,1.088 3.721,1.633 6.986,1.633l12.863,-0l-0,6.529l-14.125,-0c-5.993,-0 -10.513,-1.306 -13.56,-3.918c-3.032,-2.626 -4.548,-6.522 -4.548,-11.687c-0,-5.166 1.516,-9.054 4.548,-11.666c3.047,-2.626 7.567,-3.939 13.56,-3.939l14.125,-0l-0,6.464Z" style="fill:#fff;fill-rule:nonzero;"/><path id="path873" d="M304.302,55.287c0,-2.858 -1.603,-2.909 -4.81,-2.909l-10.142,-0l-0,7.284l10.142,-0c3.207,-0 4.81,-1.459 4.81,-4.375Zm-5.934,10.773l-9.018,0l-0,11.064l-9.968,-0l-0,-31.21l22.526,-0c4.367,-0 7.603,1.001 9.707,3.003c2.118,1.988 3.178,3.185 3.178,6.348c-0,3.207 -1.045,5.804 -3.135,7.792c-1.059,1.016 -2.408,1.77 -4.048,2.263l8.589,11.804l-10.375,-0l-7.456,-11.064Z" style="fill:#fff;fill-rule:nonzero;"/><path id="path875" d="M335.113,61.519c-0,-5.166 1.516,-9.054 4.549,-11.666c3.047,-2.626 7.567,-3.939 13.559,-3.939l14.125,-0l0,6.464l-12.863,-0c-3.119,-0 -5.375,0.478 -6.768,1.436c-1.379,0.958 -2.191,2.394 -2.438,4.31l22.069,-0l0,6.398l-22.265,0l0,12.602l-9.968,-0l-0,-15.605Z" style="fill:#fff;fill-rule:nonzero;"/><path id="path877" d="M381.507,77.124c-3.671,-0 -6.5,-0.849 -8.488,-2.547c-1.988,-1.712 -2.982,-4.077 -2.982,-7.095c0,-3.003 0.994,-5.354 2.982,-7.051c1.988,-1.713 4.817,-2.569 8.488,-2.569l13.843,0l-0,-1.131c-0,-1.582 -0.378,-2.692 -1.132,-3.33c-0.74,-0.639 -2.024,-0.958 -3.853,-0.958l-17.955,-0l-0,-6.529l18.325,-0c5.151,-0 8.866,0.979 11.144,2.938c2.292,1.959 3.439,5.158 3.439,9.598l-0,18.674l-23.811,-0Zm13.843,-12.863l-11.166,0c-2.684,0 -4.026,1.074 -4.026,3.221c-0,2.162 1.342,3.243 4.026,3.243l11.166,0l-0,-6.464Z" style="fill:#fff;fill-rule:nonzero;"/><path id="path879" d="M447.78,77.124l0,-18.674c0,-2.089 -0.522,-3.577 -1.567,-4.462c-1.044,-0.899 -2.778,-1.349 -5.202,-1.349l-2.067,-0l-0,24.485l-9.968,-0l-0,-24.485l-8.401,-0l-0,24.485l-9.969,-0l0,-31.21l32.103,-0c5.253,-0 9.069,1.023 11.448,3.068c2.38,2.046 3.57,5.333 3.57,9.86l-0,18.282l-9.947,-0Z" style="fill:#fff;fill-rule:nonzero;"/><rect id="path881" x="460.667" y="45.914" width="9.968" height="31.21" style="fill:#fff;fill-rule:nonzero;"/><path id="path883" d="M507.482,52.508l-11.949,0c-3.628,0 -6.254,0.704 -7.879,2.111c-1.625,1.408 -2.438,3.708 -2.438,6.9c0,3.192 0.799,5.492 2.395,6.899c1.596,1.408 4.215,2.111 7.857,2.111l12.014,0l-0,6.595l-14.496,-0c-5.861,-0 -10.28,-1.306 -13.254,-3.918c-2.975,-2.626 -4.462,-6.522 -4.462,-11.687c0,-5.151 1.487,-9.04 4.462,-11.666c2.974,-2.626 7.393,-3.939 13.254,-3.939l14.496,-0l-0,6.594Z" style="fill:#fff;fill-rule:nonzero;"/><path id="path885" d="M548.65,61.983c-0,2.699 -0.45,5.035 -1.35,7.008c-0.899,1.959 -2.198,3.577 -3.895,4.854c-1.684,1.262 -3.737,2.205 -6.16,2.829c-2.408,0.609 -5.151,0.914 -8.227,0.914c-3.076,0 -5.825,-0.305 -8.249,-0.914c-2.408,-0.624 -4.454,-1.567 -6.137,-2.829c-1.683,-1.277 -2.982,-2.895 -3.896,-4.854c-0.9,-1.973 -1.349,-4.309 -1.349,-7.008c-0,-2.699 0.449,-5.028 1.349,-6.987c0.914,-1.973 2.213,-3.591 3.896,-4.853c1.683,-1.277 3.729,-2.22 6.137,-2.829c2.424,-0.624 5.173,-0.936 8.249,-0.936c3.076,-0 5.819,0.312 8.227,0.936c2.423,0.609 4.476,1.552 6.16,2.829c1.697,1.262 2.996,2.88 3.895,4.853c0.9,1.959 1.35,4.288 1.35,6.987Zm-19.632,9.01c6.442,0 9.664,-3.003 9.664,-9.01c-0,-6.007 -3.222,-9.011 -9.664,-9.011c-6.442,0 -9.663,3.004 -9.663,9.011c-0,6.007 3.221,9.01 9.663,9.01Z" style="fill:#fff;fill-rule:nonzero;"/><path id="path887" d="M590.054,77.124l-0,-18.674c-0,-2.089 -0.523,-3.577 -1.567,-4.462c-1.045,-0.899 -2.779,-1.349 -5.202,-1.349l-2.068,-0l0,24.485l-9.968,-0l0,-24.485l-8.401,-0l-0,24.485l-9.968,-0l-0,-31.21l32.102,-0c5.253,-0 9.069,1.023 11.449,3.068c2.379,2.046 3.569,5.333 3.569,9.86l-0,18.282l-9.946,-0Z" style="fill:#fff;fill-rule:nonzero;"/></g><g><rect x="164.848" y="14.019" width="9.159" height="20.257" style="fill:#fff;"/><path d="M224.937,14.057l-0,-3.014l-4.964,0l0,-4.096l-9.166,0l0.007,4.1l-4.985,0.003l-0,3.007l4.981,-0l-0.007,20.219l9.178,0l-0.008,-20.219l4.964,-0Z" style="fill:#fff;"/><path d="M150.195,25.058l-13.132,-21.243l-9.489,0l-0.004,30.461l9.433,0l0,-21.242l13.2,21.242l9.4,0l-0,-30.461l-9.415,0l0.007,21.243Z" style="fill:#fff;"/><path d="M269.906,13.085c-3.032,0.086 -5.553,1.383 -7.31,3.055c-0.007,-0.501 0,-2.128 0,-2.128l-9.088,0.004l-0.004,20.257l9.092,-0c0,-0 -0.007,-12.444 -0.007,-13.307c-0,-1.765 1.853,-3.729 4.348,-3.729c2.498,-0 4.185,1.964 4.185,3.729l-0,13.307l9.103,-0c0,-0 -0.003,-9.597 0,-11.024c0.052,-8.021 -6.898,-10.264 -10.319,-10.164Z" style="fill:#fff;"/><path d="M195.457,13.085c-3.028,0.086 -5.552,1.383 -7.305,3.055c-0.008,-0.501 -0,-2.128 -0,-2.128l-9.104,0.004l0.007,20.257l9.097,-0c-0,-0 -0.008,-12.444 -0.008,-13.307c0,-1.765 1.854,-3.729 4.348,-3.729c2.495,-0 4.185,1.964 4.185,3.729l-0,13.307l9.104,-0c-0,-0 -0.012,-9.597 -0,-11.024c0.048,-8.021 -6.902,-10.264 -10.324,-10.164Z" style="fill:#fff;"/><path d="M325.384,12.633c-7.395,0 -13.389,5.097 -13.389,11.376c0,6.283 5.994,11.376 13.389,11.376c7.394,-0 13.388,-5.093 13.388,-11.376c0,-6.279 -5.994,-11.376 -13.388,-11.376Zm3.673,15.642c-0,3.229 -1.909,4.56 -3.744,4.56c-1.838,-0 -3.755,-1.331 -3.755,-4.56c0,-1.227 0.004,-4.37 0.004,-4.37c-0,0 0.004,-2.995 0.004,-4.225c-0,-3.21 1.92,-4.534 3.743,-4.534c1.832,0 3.744,1.324 3.744,4.534c0,1.23 0,3.499 0.011,4.314c0,0.048 -0.007,3.062 -0.007,4.281Z" style="fill:#fff;"/><path d="M299.971,15.02c-1.461,-0.823 -3.01,-1.616 -5.182,-1.805c-6.602,-0.582 -11.65,5.256 -11.65,10.605c-0,7.05 5.445,9.66 6.268,10.045c3.084,1.434 7.039,1.438 10.545,-0.764c0,0.189 0.004,1.172 0.004,1.172l9.055,-0l0,-30.458l-9.04,0l-0,11.205Zm0.066,9.022c0,0 0.004,2.295 0.004,3.596c0,3.128 -2.168,3.947 -3.595,3.947c-1.453,0 -3.588,-0.819 -3.588,-3.947c-0,-1.075 0.003,-3.603 0.003,-3.603c0,-0 -0.003,-2.573 -0.003,-3.61c-0,-3.136 2.135,-3.933 3.591,-3.933c1.424,-0 3.588,0.797 3.588,3.933l0,3.617Z" style="fill:#fff;"/><path d="M250.731,24.231c0,-6.279 -6.068,-11.483 -13.518,-11.483c-7.447,0 -13.489,5.089 -13.489,11.372c0,6.279 6.042,11.372 13.489,11.372c6.186,0 11.402,-3.525 12.996,-8.31l-9.13,0.007c0,0 0.008,0.089 0.008,1.227c-0,3.707 -2.436,4.53 -3.792,4.53c-1.35,-0 -3.829,-0.823 -3.829,-4.53c-0,-1.108 0.007,-4.181 0.007,-4.181c0,0 17.258,0.007 17.258,-0.004Zm-16.657,-7.124c0.715,-1.249 2.031,-1.846 3.221,-1.849c1.193,0.003 2.509,0.6 3.221,1.849c0.585,1.012 0.611,2.198 0.6,3.97l-7.647,-0c-0.015,-1.772 0.023,-2.958 0.605,-3.97Z" style="fill:#fff;"/><rect x="164.826" y="3.804" width="9.181" height="6.227" style="fill:#fff;"/></g></g><g><path id="path1702" d="M90.659,21.389c-2.785,-0.003 -5.541,0.561 -8.103,1.655c-7.598,3.248 -12.539,10.773 -12.505,19.044c5.292,0.035 10.366,1.976 14.139,5.406c4.222,3.84 6.429,9.197 6.038,14.66l0.468,0.461c8.331,-0.022 15.863,-5.105 19.01,-12.827c3.147,-7.723 1.316,-16.629 -4.623,-22.479c-3.846,-3.788 -9.029,-5.915 -14.424,-5.92Z" style="fill:#fff;fill-rule:nonzero;"/><path id="path1702-9" d="M49.633,0.91c-2.785,-0.002 -5.541,0.561 -8.103,1.655c-7.598,3.248 -12.54,10.773 -12.505,19.044c5.292,0.036 10.366,1.976 14.139,5.406c4.222,3.84 6.428,9.197 6.037,14.66l0.469,0.461c8.331,-0.022 15.863,-5.104 19.01,-12.827c3.147,-7.723 1.316,-16.629 -4.623,-22.479c-3.846,-3.788 -9.029,-5.915 -14.424,-5.92Z" style="fill:#fff;fill-rule:nonzero;"/><ellipse id="path1724" cx="23.561" cy="48.019" rx="23.561" ry="11.834" style="fill:#fff;"/><ellipse id="path1724-2" cx="64.58" cy="68.648" rx="23.561" ry="11.834" style="fill:#fff;"/></g></g><g><path d="M163.832,105.253c-3.329,-2.159 -7.017,-3.329 -11.335,-3.329c-11.514,0 -19.16,9.266 -20.869,19.97c-1.53,9.895 2.429,14.933 9.355,20.15c3.328,2.699 7.107,4.678 6.297,9.895c-0.72,4.498 -4.588,7.377 -8.906,7.377c-3.958,-0 -6.746,-1.44 -9.535,-3.599l-2.069,12.774c2.699,2.249 7.197,3.418 10.975,3.418c12.593,0 20.959,-9.085 22.848,-21.139c2.969,-18.351 -17.361,-18.981 -15.652,-30.135c0.72,-4.138 3.688,-6.657 7.826,-6.657c3.688,0 6.747,1.979 8.996,4.318l2.069,-13.043Z" style="fill:#fff;fill-rule:nonzero;"/><path d="M172.377,103.004l-7.916,50.375c-2.069,12.683 4.498,18.53 17.002,18.53c19.34,0 22.129,-12.234 23.208,-19.43l7.827,-49.475l-13.404,-0l-7.376,46.776c-0.9,5.038 -1.709,9.985 -8.276,9.985c-7.286,0 -5.397,-7.736 -4.588,-12.863l6.927,-43.898l-13.404,-0Z" style="fill:#fff;fill-rule:nonzero;"/><path d="M217.175,103.004l-10.705,67.826l13.404,-0l4.498,-28.156l12.323,-0l1.979,-12.594l-12.323,0l2.248,-14.483l13.674,0l1.979,-12.593l-27.077,-0Z" style="fill:#fff;fill-rule:nonzero;"/><path d="M257.385,103.004l-26.447,67.826l13.314,-0l4.228,-11.424l13.583,-0l0.719,11.424l14.303,-0l-5.577,-67.826l-14.123,-0Zm4.408,45.787l-9.445,-0l5.757,-18.081l3.058,-10.255l0.18,-0l-0.09,10.255l0.54,18.081Z" style="fill:#fff;fill-rule:nonzero;"/><path d="M291.928,103.004l-12.144,67.826l14.393,-0l5.217,-48.846l0.18,0l-0.18,1.26l-0.18,15.112l1.44,32.474l10.345,-0l10.884,-32.114l4.768,-16.732l0.18,0l-8.996,48.846l13.763,-0l8.096,-67.826l-17.991,-0l-11.694,40.03l-0.18,-0l-0.27,-40.03l-17.631,-0Z" style="fill:#fff;fill-rule:nonzero;"/><path d="M346.441,103.004l-10.705,67.826l13.404,-0l10.704,-67.826l-13.403,-0Z" style="fill:#fff;fill-rule:nonzero;"/><path d="M391.855,103.004l-1.979,12.593l10.525,0l-8.726,55.233l13.404,-0l8.725,-55.233l10.615,0l1.979,-12.593l-34.543,-0Z" style="fill:#fff;fill-rule:nonzero;"/><path d="M431.706,103.004l-7.917,50.375c-2.068,12.683 4.498,18.53 17.002,18.53c19.34,0 22.129,-12.234 23.208,-19.43l7.827,-49.475l-13.404,-0l-7.376,46.776c-0.9,5.038 -1.709,9.985 -8.276,9.985c-7.286,0 -5.397,-7.736 -4.588,-12.863l6.927,-43.898l-13.403,-0Z" style="fill:#fff;fill-rule:nonzero;"/><path d="M479.202,170.83l4.947,-31.305l0.18,0l6.837,31.305l14.123,-0l-6.927,-30.855c7.287,-3.688 11.245,-10.075 12.414,-17.541c2.969,-18.531 -12.234,-19.43 -20.779,-19.43l-13.494,-0l-10.704,67.826l13.403,-0Zm8.995,-56.762l1.8,0c6.836,-0.36 8.545,3.598 7.736,8.456c-0.9,5.577 -3.958,9.715 -10.075,9.715l-2.339,-0.09l2.878,-18.081Z" style="fill:#fff;fill-rule:nonzero;"/><path d="M534.165,150.23c-0.9,5.667 -4.678,9.625 -9.985,9.355l2.878,-18.35c5.307,-0.18 8.006,3.688 7.107,8.995Zm-12.144,20.6c12.234,-0 23.028,-5.667 25.187,-19.071c0.9,-5.847 -0.72,-13.043 -5.937,-15.742c5.577,-3.418 8.546,-8.006 9.535,-14.033c0.9,-5.667 -0.539,-11.694 -4.497,-15.292c-3.779,-3.508 -8.276,-3.688 -13.494,-3.688l-13.133,-0l-10.705,67.826l13.044,-0Zm16.102,-48.576c-0.81,5.127 -4.408,8.546 -9.446,8.546l2.699,-16.552c5.127,-0.27 7.466,3.059 6.747,8.006Z" style="fill:#fff;fill-rule:nonzero;"/><path d="M580.761,101.924c-11.964,0 -25.277,9.535 -29.325,34.993c-4.048,25.457 6.297,34.992 18.261,34.992c11.964,0 25.367,-9.535 29.415,-34.992c4.048,-25.458 -6.387,-34.993 -18.351,-34.993Zm-15.022,34.993c0.899,-6.027 4.138,-22.579 13.043,-22.579c8.906,-0 6.927,16.552 6.027,22.579c-0.899,5.397 -4.228,22.579 -13.133,22.579c-8.906,-0 -6.837,-17.182 -5.937,-22.579Z" style="fill:#fff;fill-rule:nonzero;"/></g></g></svg>