<?xml version="1.0" encoding="UTF-8" standalone="no"?><!DOCTYPE svg PUBLIC "-//W3C//DTD SVG 1.1//EN" "http://www.w3.org/Graphics/SVG/1.1/DTD/svg11.dtd"><svg width="100%" height="100%" viewBox="0 0 600 406" version="1.1" xmlns="http://www.w3.org/2000/svg" xmlns:xlink="http://www.w3.org/1999/xlink" xml:space="preserve" xmlns:serif="http://www.serif.com/" style="fill-rule:evenodd;clip-rule:evenodd;stroke-linejoin:round;stroke-miterlimit:2;"><g id="bandai_namco"><path d="M104.64,326.743c0.354,0.558 0.781,1.08 1.276,1.553c8.803,8.412 19.189,17.928 25.094,22.278c31.457,23.222 69.329,43.168 119.44,49.839c29.141,3.89 61.63,5.826 93.473,4.621c32.977,-1.249 65.26,-5.882 92.521,-15.099c0.008,-0.003 0.016,-0.006 0.024,-0.008c3.731,-1.274 7.351,-2.613 10.917,-4.052c3.349,-1.352 8.701,-3.715 12.722,-5.989c0.006,-0.003 0.011,-0.006 0.017,-0.009c41.198,-23.413 83.031,-57.319 110.112,-95.817c0.006,-0.009 0.012,-0.017 0.018,-0.026c5.395,-7.732 10.211,-15.588 14.199,-23.329l-0.002,0.001l0.023,-0.04c0.5,-0.984 0.957,-1.951 1.448,-2.884c0.042,-0.079 0.082,-0.158 0.121,-0.237c3.068,-6.294 8.262,-15.301 10.254,-21.492c0.004,-0.012 0.008,-0.024 0.012,-0.036c10.824,-34.153 -3.038,-67.526 -30.094,-96.828c-2.261,-2.526 -4.813,-5.291 -7.541,-8.24l-0.001,0.002c-11.805,-12.863 -27.481,-29.678 -43.607,-44.727c-0.002,-0.002 -0.003,-0.003 -0.005,-0.005c-21.479,-20.016 -47.816,-40.156 -70.615,-53.691c-1.916,-1.197 -6.231,-3.612 -7.319,-4.218c-0.31,-0.242 -0.642,-0.461 -0.992,-0.658c-21.323,-11.989 -46.354,-20.824 -77.148,-25.065c-0.001,0 -0.001,0 -0.002,0c-73.409,-10.097 -128.316,15.64 -186.779,46.626c-48.656,25.78 -86.593,47.077 -107.745,86.979c-2.72,5.131 -8.773,16.841 -10.996,23.391c-17.574,51.563 -6.871,108.512 39.578,156.06c0.008,0.008 0.015,0.015 0.022,0.023c1.91,1.94 9.718,9.324 11.575,11.077Zm334.629,-287.528c-2.841,-1.704 -7.529,-4.182 -7.252,-4.239c-20.499,-11.526 -44.573,-19.988 -74.176,-24.065c-71.448,-9.827 -124.8,15.568 -181.7,45.726c-46.933,24.867 -83.854,45.002 -104.256,83.49c-2.579,4.866 -8.361,15.955 -10.466,22.163c-16.615,48.747 -6.278,102.53 37.635,147.482c2.747,2.791 13.957,12.9 12.667,12.45c8.524,8.145 18.562,17.382 24.277,21.591c30.44,22.471 67.071,41.817 115.562,48.271c28.696,3.832 60.689,5.741 92.045,4.554c32.128,-1.217 63.588,-5.683 90.148,-14.663c3.584,-1.224 7.062,-2.509 10.487,-3.892c3.087,-1.246 8.025,-3.415 11.732,-5.511c40.162,-22.823 80.993,-55.817 107.391,-93.346c5.175,-7.415 9.797,-14.946 13.621,-22.369c0.52,-1.022 0.995,-2.026 1.506,-2.994c2.915,-5.979 7.916,-14.503 9.809,-20.385c9.933,-31.338 -3.46,-61.752 -28.3,-88.635c-2.246,-2.51 -4.782,-5.257 -7.494,-8.189l-0.009,-0.007c-11.683,-12.731 -27.198,-29.382 -43.163,-44.281c-21.071,-19.636 -46.906,-39.404 -69.263,-52.665l-0.787,-0.478c0.093,-0.167 0.178,-0.336 0.258,-0.506c-0.084,0.17 -0.174,0.336 -0.272,0.498Zm0.43,-0.848l-0.139,0.308l0.129,-0.282l0.01,-0.026Zm0.369,-5.785c0.584,1.833 0.412,3.443 0.003,4.773c0.109,-0.352 0.191,-0.715 0.248,-1.085c0.197,-1.261 0.101,-2.518 -0.251,-3.688Z" style="fill:#fff;"/><path id="path3959" d="M138.096,152.501l5.794,0c6.683,0 13.094,0.643 13.094,7.634c-0,6.375 -6.745,7.996 -13.288,7.996l-5.6,-0l0,-15.63Zm-19.953,61.391l31.585,0c13.402,0 29.137,-3.839 29.137,-21.899c0,-9.228 -5.133,-14.652 -15.11,-16.704l0,-0.228c8.356,-2.827 13.173,-8.093 13.173,-17.682c-0,-13.014 -10.399,-19.178 -24.303,-19.178l-34.482,0l-0,75.691Zm19.953,-32.069l6.137,0c6.869,0 14.679,0.713 14.679,8.955c0,7.731 -7.599,8.779 -14.89,8.779l-5.926,0l0,-17.734Z" style="fill:#fff;fill-rule:nonzero;"/><path id="path3963" d="M177.643,213.889l20.288,-0l5.917,-16.132l28.08,0l5.574,16.132l21.89,-0l-28.855,-75.691l-24.47,-0l-28.424,75.691Zm49.583,-30.467l-18.808,0l9.686,-29.56l0.194,0l8.928,29.56Z" style="fill:#fff;fill-rule:nonzero;"/><path id="path3967" d="M263.342,138.2l25.456,0l25.351,51.397l0.194,0l-0.326,-51.397l18.236,0l-0,75.692l-24.787,-0l-26.223,-51.732l-0.185,-0l0.608,51.732l-18.324,-0l-0,-75.692Z" style="fill:#fff;fill-rule:nonzero;"/><path id="path3971" d="M343.605,213.889l27.297,-0c25.482,-0 44.282,-9.871 44.282,-38.163c0,-29.278 -18.218,-37.528 -44.282,-37.528l-27.297,-0l-0,75.691Zm19.988,-60.74l7.731,0c14.564,0 23.247,7.837 23.247,22.894c-0,15.084 -8.357,22.894 -23.247,22.894l-7.731,0l0,-45.788Z" style="fill:#fff;fill-rule:nonzero;"/><path id="path3975" d="M410.677,213.889l20.288,-0l5.944,-16.132l28.054,0l5.574,16.132l21.925,-0l-28.855,-75.691l-24.497,-0l-28.433,75.691Zm49.61,-30.467l-18.808,0l9.659,-29.56l0.212,0l8.937,29.56Z" style="fill:#fff;fill-rule:nonzero;"/><rect id="path3977" x="495.535" y="138.202" width="19.935" height="75.691" style="fill:#fff;fill-rule:nonzero;"/><path id="path3981" d="M118.147,230.348l25.694,-0l25.562,51.45l0.264,-0l-0.352,-51.45l18.43,-0l-0,75.656l-25.043,0l-26.434,-51.679l-0.202,0l0.642,51.679l-18.561,0l-0,-75.656Z" style="fill:#fff;fill-rule:nonzero;"/><path id="path3985" d="M191.806,306.011l20.507,0l5.935,-16.123l28.407,0l5.635,16.123l22.154,0l-29.19,-75.656l-24.716,0l-28.732,75.656Zm50.12,-30.431l-18.993,-0l9.756,-29.604l0.176,-0l9.061,29.604Z" style="fill:#fff;fill-rule:nonzero;"/><path id="path3989" d="M278.467,230.348l31.787,-0l13.12,50.296l0.229,0l13.842,-50.296l30.546,-0l0,75.656l-19.68,0l0.3,-58.072l-0.22,0l-16.352,58.072l-18.536,0l-15.523,-58.072l-0.203,0l0.414,58.072l-19.724,0l-0,-75.656Z" style="fill:#fff;fill-rule:nonzero;"/><path id="path3993" d="M440.705,304.291c-5.741,1.417 -12.143,3.099 -22.445,3.099c-20.209,0 -43.49,-10.241 -43.49,-38.867c-0,-26.319 18.412,-39.492 43.349,-39.492c7.705,-0 15.189,1.796 22.436,3.944l-1.638,16.361c-6.463,-3.566 -12.759,-5.319 -19.689,-5.319c-14.308,0 -23.669,10.408 -23.669,24.506c0,14.872 10.532,23.88 25.281,23.88c6.604,0 13.331,-1.77 18.861,-3.927l1.004,15.815Z" style="fill:#fff;fill-rule:nonzero;"/><path id="path3997" d="M443.783,268.235c0,24.074 13.208,39.149 37.969,39.149c24.682,-0 37.951,-15.075 37.951,-39.149c0,-24.285 -13.014,-39.202 -37.951,-39.202c-24.972,0 -37.969,14.917 -37.969,39.202m20.843,-0c-0,-13.164 4.869,-24.215 17.126,-24.215c12.248,0 17.127,11.051 17.127,24.215c-0,12.407 -4.879,24.18 -17.127,24.18c-12.257,-0 -17.126,-11.773 -17.126,-24.18" style="fill:#fff;fill-rule:nonzero;"/><path d="M429.927,26.833c-5.031,1.012 -14.989,3.232 -17.302,3.781c-3.577,0.826 -73.644,17.579 -144.282,38.198c-34.668,10.117 -127.577,34.688 -152.991,44.508c-17.418,6.698 -34.696,14.601 -50.641,24.173l0.001,0.003c-6.466,3.843 -12.687,7.963 -18.625,12.418c-31.259,23.311 -46.773,48.927 -46.064,74.759c0.703,25.581 17.443,52.343 53.625,78.078c13.537,9.666 35.671,20.565 53.799,26.846c0.47,0.181 0.968,0.363 1.426,0.528l0.016,0.005l0.067,0.026c8.531,2.977 17.916,5.559 27.95,7.826c0.007,0.002 0.014,0.003 0.021,0.005c46.193,10.311 102.977,15.313 140.466,21.428c0.003,0 0.005,0 0.007,0.001c35.728,5.797 93.809,20.391 149.5,25.764c0.008,0 0.015,0.001 0.022,0.002c5.56,0.521 11.085,0.938 16.593,1.267l0.185,0.016c7.278,0.468 14.512,0.729 21.584,0.774c0.001,0 0.003,0 0.005,0c66.428,0.379 122.13,-19.124 130.736,-83.994c1.418,-10.548 0.055,-20.601 -3.024,-30.399c-0.002,-0.006 -0.004,-0.011 -0.005,-0.016c-2.131,-6.734 -5.128,-13.39 -8.595,-19.916l-0.212,-0.368c-1.447,-2.731 -2.933,-5.434 -4.5,-8.079c-13.259,-22.611 -26.009,-44.687 -26.531,-70.505c-0.134,-8.249 2.155,-17.703 5.259,-27.755c0.804,-2.454 1.501,-4.906 2.17,-7.287c8.592,-31.691 4.143,-58.32 -13.5,-81.856c-0.002,-0.002 -0.004,-0.005 -0.006,-0.008c-22.997,-30.603 -71.477,-38.568 -114.582,-30.774c-0.493,0.088 -1.328,0.25 -2.419,0.509l-0.153,0.042Zm-367.462,121.932c-3.889,2.501 -7.673,5.122 -11.345,7.877c-57.051,42.539 -59.278,91.841 7.405,139.267c13.032,9.307 34.385,19.777 51.82,25.8c0.449,0.176 0.933,0.352 1.374,0.51c-2.745,-2.639 -2.741,-2.637 0.006,0.004c8.25,2.879 17.329,5.371 27.032,7.564c46.035,10.276 102.627,15.242 139.989,21.335c35.6,5.777 93.469,20.341 148.961,25.694c5.539,0.52 11.042,0.934 16.528,1.26c1.134,-0.451 2.258,-0.915 3.369,-1.394c-1.11,0.481 -2.232,0.945 -3.365,1.398c7.115,0.458 14.186,0.713 21.098,0.757c61.735,0.352 114.365,-16.413 122.36,-76.704c1.25,-9.289 0,-18.139 -2.712,-26.768c-1.981,-6.261 -4.781,-12.442 -8.004,-18.509c-1.175,2.275 -1.185,2.281 -0.013,0.004c-1.453,-2.747 -2.941,-5.468 -4.517,-8.127c-14.01,-23.889 -27.148,-47.338 -27.694,-74.617c-0.149,-9.043 2.246,-19.434 5.654,-30.458c0.774,-2.36 1.444,-4.72 2.086,-7.009l-0.019,-0.021c7.828,-28.874 3.96,-53.081 -12.114,-74.524c-21.3,-28.345 -66.454,-34.773 -106.378,-27.552c-0.396,0.07 -1.074,0.202 -1.963,0.413c2.126,1.18 2.126,1.19 -0.001,0.016c-4.79,0.951 -15.181,3.267 -17.479,3.813c-3.179,0.731 -73.226,17.47 -143.845,38.083c-34.518,10.074 -127.036,34.509 -152.325,44.283c-16.968,6.525 -33.804,14.212 -49.337,23.537l-0.002,0.005c-1.032,0.613 -2.058,1.233 -3.074,1.864c-0,-0 -0.347,0.175 -3.495,2.199Z" style="fill:#fff;"/></g></svg>