<svg clip-rule="evenodd" fill-rule="evenodd" stroke-linejoin="round" stroke-miterlimit="2" viewBox="0 0 600 126" xmlns="http://www.w3.org/2000/svg"><g fill="#fff" fill-rule="nonzero"><path d="m98.648 31.914c.965-.07 1.94-.1 2.927-.1 21.504 0 39.915 20.812 41.297 31.415.147 1.107.247 2.102.315 2.95-.288-28.897-45.356-66.051-81.542-66.051-27.967 0-41.003 11.324-45.303 24.037-6.411 16.041 2.052 38.901 21.842 55.174 2.071 1.7 4.193 3.275 6.352 4.717-.968.065-1.94.099-2.923.099-21.502 0-39.919-20.815-41.3-31.418-.143-1.107-.247-2.098-.313-2.95.286 28.896 45.358 66.049 81.54 66.049 27.967 0 41.002-11.32 45.307-24.036 6.406-16.041-2.051-38.897-21.845-55.174-2.068-1.7-4.194-3.271-6.354-4.712zm-40.305 48.007c-15.925-13.09-21.286-32.329-12.261-43.221 9.036-10.907 29.347-9.65 45.663 3.054 16.187 12.612 22.416 31.758 14.105 43.195 3.439-6.88-.356-17.202-9.215-24.168-9.608-7.552-21.568-8.3-26.89-1.817-5.316 6.476-2.156 17.908 7.223 25.691 7.224 5.994 16.056 8.116 22.34 5.917-10.708 5.647-27.484 2.433-40.965-8.651z"/><path d="m388.204 58.392c-3.548-1.046-7.548 3.967-10.963 11.618-3.043 12.754-9.806 31.557-10.241 44.532-.197 5.757 5.118 7.445 8.729 8.719 11.431 4.032 18.115.088 21.519-4.031 2.449-2.955-.141-5.418-3.176-4.515-4.389 1.298-9.75 2.179-10.858-2.059-1.22-4.673 5.283-23.874 9.773-38.17 2.455-7.804 4.531-14.282-4.783-16.094z"/><path d="m328.979 81.013c-7.737.8-23.112 4.894-23.112 24.783 0 .937-2.805 22.456 24.949 19.961 27.763-2.496 32.436-19.961 32.436-19.961s6.867-23.081-9.981-22.455c-10.282.379-14.97 4.989-14.97 4.989s6.86 1.347 8.341 6.272c2.812 9.338 1.775 25.095-13.33 23.668-15.16-1.432-7.755-21.458-2.978-31.612 1.649-3.492 1.243-5.915-1.355-5.645z"/><path d="m421.297 81.013c-7.739.8-23.114 4.894-23.114 24.783 0 .937-2.804 22.456 24.95 19.961 27.762-2.496 32.436-19.961 32.436-19.961s6.866-23.081-9.981-22.455c-10.282.379-14.969 4.989-14.969 4.989s6.858 1.347 8.339 6.272c2.814 9.338 1.775 25.095-13.33 23.668-15.16-1.432-7.754-21.458-2.979-31.612 1.651-3.492 1.246-5.915-1.352-5.645z"/><path d="m238.501 95.817c-1.243-24.642 32.793-35.699 44.911-36.634 12.128-.943 24.951 1.702 24.951 1.702s-1.87 24.326-7.486 24.951c-5.608.626-4.364-18.401-14.971-17.464-19.421 1.711-27.215 22.882-27.446 29.938-.102 3.414.943 18.709 14.971 17.465 14.036-1.252 17.156-8.737 19.96-9.98 2.812-1.253 8.19-3.715 7.486 2.495-1.553 13.718-27.445 17.465-27.445 17.465s-33.315 1.839-34.931-29.938z"/><path d="m468.046 123.261c-11.851.626-5.301-13.726-2.495-22.455 2.812-8.738 2.296-18.313 12.475-17.465 11.255.929 2.494 14.971 2.494 14.971s17.094-18.747 32.435-17.464c3.747.307-7.485 24.95-7.485 24.95s-2.805-9.045-9.98-7.486c-20.625 4.483-15.588 24.324-27.444 24.949z"/><path d="m152.19 39.988 7.595-31.843 7.649-6.07h7.592l-7.592 31.843 7.592-4.544 6.096-22.726 4.572-4.573h10.699l-7.621 31.843 7.621-6.042 4.545-19.731 6.125-6.07h9.173l-7.62 30.348-9.148 7.565z"/><path d="m461.002 39.988 3.881-18.179 6.899-6.625h8.868l-5.209 19.982 7.648-4.545 1.94-10.337 5.101-5.1h10.641l-5.211 19.982 7.207-4.823 2.051-8.534 6.65-6.625h7.927l-4.434 17.239-10.393 7.565z"/><path d="m401.502 39.988 7.648-7.565h32.814s2.824.831 4.436-2.744c1.466-3.327-1.388-3.327-1.388-3.327h-15.24s-4.379-1-4.406-6.375c-.082-13.217 10.78-16.628 10.78-16.628h32.035l-6.372 6.319h-16.797s-5.348 1.525-5.46 5.988c-.082 2.023 2.412 1.607 2.412 1.607h13.689s7.926 1.33 6.099 9.866c-2.386 11.224-10.644 12.858-10.644 12.858h-49.606z"/><path d="m375.45 39.988h13.688l4.16-15.741c.499-1.829 5.321-3.906 4.047-3.687-1.248.222 4.379-.832 4.379-.832s1.771.499 2.66 1.719c.915 1.191-.889 2.965-1.138 4.352-.247 1.384 1.526 1.523 1.526 1.523h7.649s4.104-1.523 5.214-3.046c1.081-1.552 2.436-3.16 2.436-4.518 0-1.359-3.02-3.048-3.02-3.048l-3.077-1.497h-22.863s-10.943 6.266-12.221 7.566c-.447.388-3.44 17.209-3.44 17.209z"/><path d="m215.43 22.611c-1.052 1.218-4.488 11.917-3.74 13.662.775 1.693 5.016 3.714 5.016 3.714h22.281s10.393-6.514 11.196-7.429c.777-.94 3.714-11.334 3.714-12.417 0-1.082-2.494-4.959-2.494-4.959h-26.05c0 .002-8.838 6.21-9.923 7.429zm17.378-2.466h6.847s-.776 8.233-2.494 10.557c-1.746 2.33-5.598 4.353-5.598 4.353s-4.323.444-4.933 0c-.638-.499-.166-4.961-.166-4.961s.582-4.821 1.385-6.235c.776-1.385 4.959-3.714 4.959-3.714z"/><path d="m298.517 22.611c-1.053 1.218-4.489 11.917-3.713 13.662.775 1.693 4.988 3.714 4.988 3.714h31.011s1.026-4.934 2.302-9.924c1.218-4.685 2.66-11.886 2.66-12.417 0-1.109 7.704-10.835 7.704-10.835h-13.47l-6.815 8.368h-14.745c.03.005-8.811 6.213-9.922 7.432zm17.377-2.466h6.816s-.748 8.233-2.495 10.557c-1.692 2.33-5.57 4.353-5.57 4.353s-4.323.444-4.961 0c-.583-.499-.165-4.961-.165-4.961s.582-4.821 1.413-6.235c.776-1.385 4.962-3.714 4.962-3.714z"/><path d="m250.574 39.988 7.039-24.804h29.765s3.935.415 5.265 2.633c1.386 2.219.943 6.042.943 6.042l-4.047 16.129h-12.416s1.441-7.897 2.827-13.636c1.385-5.738-2.494-6.207-2.494-6.207h-7.426l-4.268 14.882s-3.714 4.323-5.265 4.961z"/><path d="m556.031 39.988 7.9-24.804h29.766s3.906.415 5.293 2.633c1.387 2.219.942 6.042.942 6.042l-4.186 16.129h-13.607s2.271-6.651 3.713-12.418c1.386-5.709-2.025-7.426-2.025-7.426h-7.455l-4.159 14.881s-3.434 4.324-4.958 4.962h-11.226v.001z"/><path d="m339.449 22.611c-1.082 1.218-4.461 11.917-3.712 13.662.747 1.693 4.959 3.714 4.959 3.714h22.311s4.434-2.773 7.734-4.962c0 0-18.959.139-20.122 0-.526-.055-.332-2.353-.277-3.711h15.242s2.937-.639 7.316-4.269c4.437-3.629 4.988-4.02 4.988-6.9 0-2.853-2.495-4.962-2.495-4.962h-26.048c.054.001-8.814 6.209-9.896 7.428zm17.406-2.466h10.005s-1.109 3.799-6.568 6.207h-8.342c-.804-2.16 1.165-3.879 2.273-4.823 1.163-1.052 2.632-1.384 2.632-1.384z"/><path d="m539.902 39.988s4.213-13.331 5.545-17.599c.665-2.327-.887-2.244-3.826-2.244-2.94 0-5.073.637-9.145 7.425-4.767 7.927 7.038 10.089 7.038 10.089l-.833 2.325h-13.632s-7.456.307-7.456-8.672c0-11.03 14.104-16.132 14.104-16.132h29.792l-7.925 24.804h-13.662z"/></g></svg>