<?xml version="1.0" encoding="UTF-8" standalone="no"?><!DOCTYPE svg PUBLIC "-//W3C//DTD SVG 1.1//EN" "http://www.w3.org/Graphics/SVG/1.1/DTD/svg11.dtd"><svg width="100%" height="100%" viewBox="0 0 600 77" version="1.1" xmlns="http://www.w3.org/2000/svg" xmlns:xlink="http://www.w3.org/1999/xlink" xml:space="preserve" xmlns:serif="http://www.serif.com/" style="fill-rule:evenodd;clip-rule:evenodd;stroke-linejoin:round;stroke-miterlimit:2;"><g id="bandair_wonderswan"><g><path d="M190.645,55.839l6.942,-29.108l6.992,-5.549l6.941,0l-6.941,29.108l6.941,-4.153l5.572,-20.774l4.18,-4.181l9.78,0l-6.967,29.108l6.967,-5.523l4.155,-18.036l5.599,-5.549l8.385,0l-6.967,27.74l-8.36,6.917l-43.219,-0Z" style="fill:#fff;fill-rule:nonzero;"/><path d="M472.938,55.839l3.547,-16.618l6.307,-6.056l8.107,-0l-4.761,18.266l6.991,-4.155l1.772,-9.45l4.664,-4.661l9.728,-0l-4.764,18.266l6.588,-4.408l1.874,-7.802l6.079,-6.056l7.247,-0l-4.054,15.757l-9.5,6.917l-39.825,-0Z" style="fill:#fff;fill-rule:nonzero;"/><path d="M418.547,55.839l6.992,-6.917l29.996,0c-0,0 2.582,0.762 4.053,-2.507c1.342,-3.042 -1.265,-3.042 -1.265,-3.042l-13.934,0c0,0 -4.002,-0.913 -4.027,-5.827c-0.076,-12.083 9.856,-15.201 9.856,-15.201l29.282,0l-5.825,5.778l-15.353,-0c-0,-0 -4.89,1.394 -4.993,5.473c-0.075,1.849 2.204,1.469 2.204,1.469l12.514,0c0,0 7.244,1.216 5.574,9.019c-2.181,10.261 -9.73,11.755 -9.73,11.755l-45.344,-0Z" style="fill:#fff;fill-rule:nonzero;"/><path d="M394.734,55.839l12.513,-0l3.8,-14.389c0.457,-1.672 4.864,-3.571 3.699,-3.369c-1.141,0.202 4.003,-0.762 4.003,-0.762c-0,0 1.621,0.456 2.431,1.571c0.838,1.089 -0.81,2.712 -1.038,3.979c-0.228,1.265 1.394,1.393 1.394,1.393l6.992,-0c-0,-0 3.75,-1.393 4.764,-2.787c0.99,-1.417 2.228,-2.886 2.228,-4.128c-0,-1.241 -2.762,-2.786 -2.762,-2.786l-2.812,-1.368l-20.9,-0c-0,-0 -10.005,5.726 -11.17,6.916c-0.408,0.352 -3.142,15.73 -3.142,15.73Z" style="fill:#fff;fill-rule:nonzero;"/><path d="M248.455,39.955c-0.962,1.113 -4.103,10.893 -3.42,12.488c0.709,1.547 4.585,3.394 4.585,3.394l20.368,0c-0,0 9.5,-5.954 10.234,-6.789c0.709,-0.861 3.395,-10.362 3.395,-11.351c0,-0.988 -2.28,-4.535 -2.28,-4.535l-23.814,0c0.002,0.003 -8.078,5.678 -9.068,6.793Zm15.885,-2.255l6.257,-0c0,-0 -0.709,7.525 -2.279,9.652c-1.596,2.128 -5.117,3.978 -5.117,3.978c-0,-0 -3.952,0.406 -4.509,-0c-0.583,-0.456 -0.153,-4.536 -0.153,-4.536c0,0 0.532,-4.407 1.267,-5.7c0.71,-1.266 4.534,-3.394 4.534,-3.394Z" style="fill:#fff;fill-rule:nonzero;"/><path d="M324.407,39.955c-0.964,1.113 -4.105,10.893 -3.395,12.488c0.709,1.547 4.56,3.394 4.56,3.394l28.348,0c-0,0 0.938,-4.508 2.104,-9.07c1.113,-4.283 2.432,-10.866 2.432,-11.351c-0,-1.013 7.043,-9.904 7.043,-9.904l-12.314,0l-6.229,7.649l-13.479,0c0.026,0.004 -8.056,5.679 -9.07,6.794Zm15.884,-2.255l6.231,-0c0,-0 -0.686,7.525 -2.281,9.652c-1.546,2.128 -5.092,3.978 -5.092,3.978c-0,-0 -3.952,0.406 -4.535,-0c-0.532,-0.456 -0.152,-4.536 -0.152,-4.536c0,0 0.532,-4.407 1.292,-5.7c0.711,-1.266 4.537,-3.394 4.537,-3.394Z" style="fill:#fff;fill-rule:nonzero;"/><path d="M280.58,55.839l6.435,-22.675l27.209,0c-0,0 3.597,0.381 4.813,2.408c1.266,2.027 0.862,5.522 0.862,5.522l-3.7,14.745l-11.35,-0c0,-0 1.318,-7.22 2.585,-12.466c1.266,-5.244 -2.28,-5.673 -2.28,-5.673l-6.789,-0l-3.902,13.603c0,0 -3.395,3.952 -4.813,4.536l-9.07,-0Z" style="fill:#fff;fill-rule:nonzero;"/><path d="M559.807,55.839l7.22,-22.675l27.209,0c0,0 3.572,0.381 4.84,2.408c1.268,2.027 0.862,5.522 0.862,5.522l-3.827,14.745l-12.437,-0c-0,-0 2.076,-6.079 3.394,-11.352c1.267,-5.218 -1.851,-6.789 -1.851,-6.789l-6.815,0l-3.799,13.603c-0,0 -3.14,3.953 -4.534,4.536l-10.262,0l-0,0.002Z" style="fill:#fff;fill-rule:nonzero;"/><path d="M361.823,39.955c-0.989,1.113 -4.078,10.893 -3.393,12.488c0.684,1.547 4.534,3.394 4.534,3.394l20.394,0c0,0 4.055,-2.533 7.069,-4.536c-0,0 -17.33,0.129 -18.392,0c-0.481,-0.05 -0.304,-2.151 -0.253,-3.392l13.933,-0c-0,-0 2.685,-0.583 6.687,-3.903c4.054,-3.317 4.56,-3.674 4.56,-6.309c0,-2.607 -2.28,-4.535 -2.28,-4.535l-23.813,0c0.05,0.003 -8.056,5.678 -9.046,6.793Zm15.912,-2.255l9.145,-0c-0,-0 -1.013,3.471 -6.004,5.673l-7.624,0c-0.735,-1.974 1.064,-3.545 2.076,-4.407c1.064,-0.963 2.407,-1.266 2.407,-1.266Z" style="fill:#fff;fill-rule:nonzero;"/><path d="M545.063,55.839c-0,-0 3.851,-12.185 5.068,-16.088c0.607,-2.127 -0.81,-2.051 -3.498,-2.051c-2.687,-0 -4.636,0.582 -8.359,6.789c-4.358,7.246 6.434,9.222 6.434,9.222l-0.761,2.126l-12.463,0c-0,0 -6.816,0.28 -6.816,-7.928c-0,-10.083 12.895,-14.746 12.895,-14.746l27.233,0l-7.244,22.674l-12.489,0l-0,0.002Z" style="fill:#fff;fill-rule:nonzero;"/><path d="M156.217,21.284c0.633,-0.025 1.292,-0.052 1.951,-0.052c14.187,0 26.348,13.756 27.259,20.748c0.1,0.735 0.151,1.394 0.203,1.951c-0.178,-19.1 -29.945,-43.624 -53.86,-43.624c-18.444,0 -27.056,7.448 -29.895,15.859c-4.255,10.615 1.343,25.714 14.416,36.454c1.393,1.115 2.761,2.152 4.179,3.117c-0.608,0.052 -1.266,0.052 -1.925,0.052c-14.188,-0 -26.348,-13.756 -27.259,-20.748c-0.076,-0.735 -0.151,-1.394 -0.202,-1.951c0.177,19.101 29.944,43.624 53.859,43.624c18.443,-0 27.057,-7.472 29.894,-15.858c4.256,-10.591 -1.343,-25.687 -14.415,-36.455c-1.395,-1.116 -2.762,-2.154 -4.205,-3.117Zm-26.627,31.718c-10.539,-8.64 -14.035,-21.333 -8.133,-28.552c5.953,-7.22 19.38,-6.385 30.172,2.027c10.691,8.309 14.794,20.977 9.323,28.526c2.229,-4.536 -0.253,-11.352 -6.131,-15.987c-6.307,-4.965 -14.237,-5.472 -17.733,-1.19c-3.522,4.282 -1.418,11.832 4.763,16.972c4.788,3.979 10.589,5.369 14.744,3.928c-7.016,3.725 -18.087,1.598 -27.005,-5.724Z" style="fill:#fff;fill-rule:nonzero;"/></g><path d="M4.627,74.904l65.396,0c2.559,0 4.627,-2.073 4.627,-4.628l-0,-63.531c-0,-2.555 -2.068,-4.628 -4.627,-4.628l-65.396,-0c-2.554,-0 -4.627,2.073 -4.627,4.628l-0,63.531c-0,2.555 2.073,4.628 4.627,4.628Zm32.446,-26.586l4.706,15.391l6.035,0l-8.209,-23.622l-5.735,-0l-8.226,23.622l13.393,0l-0,-5.132l-5.734,-0l3.257,-10.222l0.273,-1.026l0.24,0.989Zm-9.893,3.933c-0,8.308 -5.957,11.452 -10.336,11.452l-9.747,-0l0,-23.623l9.811,0c3.695,0 10.272,1.793 10.272,12.171Zm26.936,11.444l-5.662,0l-0,-23.574l5.662,0l0,23.574Zm-32.589,-11.694c0,-4.946 -2.333,-6.952 -6.802,-6.952l-2.073,0l-0,13.608l3.71,-0c1.999,-0 5.165,-0.761 5.165,-6.656Zm4.293,-23.917c0.254,0.997 0.196,2.136 0.196,2.136c0,0 0.15,1.367 -0.686,2.973c-1.036,1.992 -2.59,2.753 -2.59,2.753c0,0 -0.88,0.519 -2.212,0.773c-1.423,0.276 -3.243,0.276 -3.243,0.276l-10.187,0l-0,-23.681l12.314,-0c0,-0 1.762,0.043 3.059,0.653c1.308,0.621 2.146,1.806 2.146,1.806c0,0 0.99,1.338 1.097,3.57c0.093,1.762 -0.86,3.29 -0.86,3.29c-0,-0 -0.319,0.699 -0.93,1.199c-0.596,0.48 -1.48,0.766 -1.48,0.766c0,0 1.339,0.254 2.269,1.439c0.631,0.804 0.857,1.061 1.107,2.047l0,-0Zm41.75,-14.771l0,23.682l-5.758,0l-7.248,-12.351l-0.438,-0.916l-0,13.217l-5.672,0l-0,-23.632l5.768,0l7.349,12.797l0.364,0.744l-0,-13.541l5.635,0Zm-30.497,8.243l4.706,15.391l6.035,0l-8.209,-23.622l-5.735,-0l-8.226,23.622l13.393,0l-0,-5.132l-5.734,-0l3.257,-10.222l0.273,-1.026l0.24,0.989Zm-20.214,10.357c1.519,0 3.402,-0.509 3.402,-2.402c0,-2.13 -2.036,-2.472 -3.299,-2.472l-2.403,-0l-0,-4.437l2.178,-0c1.955,-0 2.921,-0.603 2.921,-2.319c0,-1.72 -1.216,-2.26 -2.921,-2.26l-0.678,-0.005l-3.439,0.004l-0,13.894l4.239,-0.003Z" style="fill:#fff;"/></g></svg>