<?xml version="1.0" encoding="UTF-8" standalone="no"?><!DOCTYPE svg PUBLIC "-//W3C//DTD SVG 1.1//EN" "http://www.w3.org/Graphics/SVG/1.1/DTD/svg11.dtd"><svg width="100%" height="100%" viewBox="0 0 600 126" version="1.1" xmlns="http://www.w3.org/2000/svg" xmlns:xlink="http://www.w3.org/1999/xlink" xml:space="preserve" xmlns:serif="http://www.serif.com/" style="fill-rule:evenodd;clip-rule:evenodd;stroke-linejoin:round;stroke-miterlimit:2;"><g id="bandair_wonderswan_color_alt"><path d="M98.648,31.914c0.965,-0.07 1.94,-0.1 2.927,-0.1c21.504,-0 39.915,20.812 41.297,31.415c0.147,1.107 0.247,2.102 0.315,2.95c-0.288,-28.897 -45.356,-66.051 -81.542,-66.051c-27.967,0 -41.003,11.324 -45.303,24.037c-6.411,16.041 2.052,38.901 21.842,55.174c2.071,1.7 4.193,3.275 6.352,4.717c-0.968,0.065 -1.94,0.099 -2.923,0.099c-21.502,0 -39.919,-20.815 -41.3,-31.418c-0.143,-1.107 -0.247,-2.098 -0.313,-2.95c0.286,28.896 45.358,66.049 81.54,66.049c27.967,0 41.002,-11.32 45.307,-24.036c6.406,-16.041 -2.051,-38.897 -21.845,-55.174c-2.068,-1.7 -4.194,-3.271 -6.354,-4.712Zm-40.305,48.007c-15.925,-13.09 -21.286,-32.329 -12.261,-43.221c9.036,-10.907 29.347,-9.65 45.663,3.054c16.187,12.612 22.416,31.758 14.105,43.195c3.439,-6.88 -0.356,-17.202 -9.215,-24.168c-9.608,-7.552 -21.568,-8.3 -26.89,-1.817c-5.316,6.476 -2.156,17.908 7.223,25.691c7.224,5.994 16.056,8.116 22.34,5.917c-10.708,5.647 -27.484,2.433 -40.965,-8.651Z" style="fill:#fff;fill-rule:nonzero;"/><g><path d="M388.204,58.392c-3.548,-1.046 -7.548,3.967 -10.963,11.618c-3.043,12.754 -9.806,31.557 -10.241,44.532c-0.197,5.757 5.118,7.445 8.729,8.719c11.431,4.032 18.115,0.088 21.519,-4.031c2.449,-2.955 -0.141,-5.418 -3.176,-4.515c-4.389,1.298 -9.75,2.179 -10.858,-2.059c-1.22,-4.673 5.283,-23.874 9.773,-38.17c2.455,-7.804 4.531,-14.282 -4.783,-16.094Z" style="fill:#fff;fill-rule:nonzero;"/><path d="M328.979,81.013c-7.737,0.8 -23.112,4.894 -23.112,24.783c-0,0.937 -2.805,22.456 24.949,19.961c27.763,-2.496 32.436,-19.961 32.436,-19.961c0,-0 6.867,-23.081 -9.981,-22.455c-10.282,0.379 -14.97,4.989 -14.97,4.989c0,-0 6.86,1.347 8.341,6.272c2.812,9.338 1.775,25.095 -13.33,23.668c-15.16,-1.432 -7.755,-21.458 -2.978,-31.612c1.649,-3.492 1.243,-5.915 -1.355,-5.645Z" style="fill:#fff;fill-rule:nonzero;"/><path d="M421.297,81.013c-7.739,0.8 -23.114,4.894 -23.114,24.783c-0,0.937 -2.804,22.456 24.95,19.961c27.762,-2.496 32.436,-19.961 32.436,-19.961c0,-0 6.866,-23.081 -9.981,-22.455c-10.282,0.379 -14.969,4.989 -14.969,4.989c0,-0 6.858,1.347 8.339,6.272c2.814,9.338 1.775,25.095 -13.33,23.668c-15.16,-1.432 -7.754,-21.458 -2.979,-31.612c1.651,-3.492 1.246,-5.915 -1.352,-5.645Z" style="fill:#fff;fill-rule:nonzero;"/><path d="M238.501,95.817c-1.243,-24.642 32.793,-35.699 44.911,-36.634c12.128,-0.943 24.951,1.702 24.951,1.702c-0,-0 -1.87,24.326 -7.486,24.951c-5.608,0.626 -4.364,-18.401 -14.971,-17.464c-19.421,1.711 -27.215,22.882 -27.446,29.938c-0.102,3.414 0.943,18.709 14.971,17.465c14.036,-1.252 17.156,-8.737 19.96,-9.98c2.812,-1.253 8.19,-3.715 7.486,2.495c-1.553,13.718 -27.445,17.465 -27.445,17.465c-0,-0 -33.315,1.839 -34.931,-29.938Z" style="fill:#fff;fill-rule:nonzero;"/><path d="M468.046,123.261c-11.851,0.626 -5.301,-13.726 -2.495,-22.455c2.812,-8.738 2.296,-18.313 12.475,-17.465c11.255,0.929 2.494,14.971 2.494,14.971c0,-0 17.094,-18.747 32.435,-17.464c3.747,0.307 -7.485,24.95 -7.485,24.95c-0,-0 -2.805,-9.045 -9.98,-7.486c-20.625,4.483 -15.588,24.324 -27.444,24.949Z" style="fill:#fff;fill-rule:nonzero;"/></g><path d="M152.19,39.988l7.595,-31.843l7.649,-6.07l7.592,0l-7.592,31.843l7.592,-4.544l6.096,-22.726l4.572,-4.573l10.699,0l-7.621,31.843l7.621,-6.042l4.545,-19.731l6.125,-6.07l9.173,0l-7.62,30.348l-9.148,7.565l-47.278,0Z" style="fill:#fff;fill-rule:nonzero;"/><path d="M461.002,39.988l3.881,-18.179l6.899,-6.625l8.868,0l-5.209,19.982l7.648,-4.545l1.94,-10.337l5.101,-5.1l10.641,0l-5.211,19.982l7.207,-4.823l2.051,-8.534l6.65,-6.625l7.927,0l-4.434,17.239l-10.393,7.565l-43.566,0Z" style="fill:#fff;fill-rule:nonzero;"/><path d="M401.502,39.988l7.648,-7.565l32.814,-0c0,-0 2.824,0.831 4.436,-2.744c1.466,-3.327 -1.388,-3.327 -1.388,-3.327l-15.24,-0c-0,-0 -4.379,-1 -4.406,-6.375c-0.082,-13.217 10.78,-16.628 10.78,-16.628l32.035,0l-6.372,6.319l-16.797,0c0,0 -5.348,1.525 -5.46,5.988c-0.082,2.023 2.412,1.607 2.412,1.607l13.689,0c0,0 7.926,1.33 6.099,9.866c-2.386,11.224 -10.644,12.858 -10.644,12.858l-49.606,0l-0,0.001Z" style="fill:#fff;fill-rule:nonzero;"/><path d="M375.45,39.988l13.688,0l4.16,-15.741c0.499,-1.829 5.321,-3.906 4.047,-3.687c-1.248,0.222 4.379,-0.832 4.379,-0.832c-0,-0 1.771,0.499 2.66,1.719c0.915,1.191 -0.889,2.965 -1.138,4.352c-0.247,1.384 1.526,1.523 1.526,1.523l7.649,0c-0,0 4.104,-1.523 5.214,-3.046c1.081,-1.552 2.436,-3.16 2.436,-4.518c0,-1.359 -3.02,-3.048 -3.02,-3.048l-3.077,-1.497l-22.863,-0c-0,-0 -10.943,6.266 -12.221,7.566c-0.447,0.388 -3.44,17.209 -3.44,17.209Z" style="fill:#fff;fill-rule:nonzero;"/><path d="M215.43,22.611c-1.052,1.218 -4.488,11.917 -3.74,13.662c0.775,1.693 5.016,3.714 5.016,3.714l22.281,-0c0,-0 10.393,-6.514 11.196,-7.429c0.777,-0.94 3.714,-11.334 3.714,-12.417c0,-1.082 -2.494,-4.959 -2.494,-4.959l-26.05,-0c-0,0.002 -8.838,6.21 -9.923,7.429Zm17.378,-2.466l6.847,0c-0,0 -0.776,8.233 -2.494,10.557c-1.746,2.33 -5.598,4.353 -5.598,4.353c0,-0 -4.323,0.444 -4.933,-0c-0.638,-0.499 -0.166,-4.961 -0.166,-4.961c-0,0 0.582,-4.821 1.385,-6.235c0.776,-1.385 4.959,-3.714 4.959,-3.714Z" style="fill:#fff;fill-rule:nonzero;"/><path d="M298.517,22.611c-1.053,1.218 -4.489,11.917 -3.713,13.662c0.775,1.693 4.988,3.714 4.988,3.714l31.011,-0c-0,-0 1.026,-4.934 2.302,-9.924c1.218,-4.685 2.66,-11.886 2.66,-12.417c-0,-1.109 7.704,-10.835 7.704,-10.835l-13.47,0l-6.815,8.368l-14.745,0c0.03,0.005 -8.811,6.213 -9.922,7.432Zm17.377,-2.466l6.816,0c0,0 -0.748,8.233 -2.495,10.557c-1.692,2.33 -5.57,4.353 -5.57,4.353c-0,-0 -4.323,0.444 -4.961,-0c-0.583,-0.499 -0.165,-4.961 -0.165,-4.961c-0,0 0.582,-4.821 1.413,-6.235c0.776,-1.385 4.962,-3.714 4.962,-3.714Z" style="fill:#fff;fill-rule:nonzero;"/><path d="M250.574,39.988l7.039,-24.804l29.765,0c0,0 3.935,0.415 5.265,2.633c1.386,2.219 0.943,6.042 0.943,6.042l-4.047,16.129l-12.416,0c-0,0 1.441,-7.897 2.827,-13.636c1.385,-5.738 -2.494,-6.207 -2.494,-6.207l-7.426,0l-4.268,14.882c0,-0 -3.714,4.323 -5.265,4.961l-9.923,0Z" style="fill:#fff;fill-rule:nonzero;"/><path d="M556.031,39.988l7.9,-24.804l29.766,0c-0,0 3.906,0.415 5.293,2.633c1.387,2.219 0.942,6.042 0.942,6.042l-4.186,16.129l-13.607,0c0,0 2.271,-6.651 3.713,-12.418c1.386,-5.709 -2.025,-7.426 -2.025,-7.426l-7.455,-0l-4.159,14.881c0,0 -3.434,4.324 -4.958,4.962l-11.226,-0l-0,0.001l0.002,0Z" style="fill:#fff;fill-rule:nonzero;"/><path d="M339.449,22.611c-1.082,1.218 -4.461,11.917 -3.712,13.662c0.747,1.693 4.959,3.714 4.959,3.714l22.311,-0c0,-0 4.434,-2.773 7.734,-4.962c0,0 -18.959,0.139 -20.122,0c-0.526,-0.055 -0.332,-2.353 -0.277,-3.711l15.242,-0c-0,-0 2.937,-0.639 7.316,-4.269c4.437,-3.629 4.988,-4.02 4.988,-6.9c-0,-2.853 -2.495,-4.962 -2.495,-4.962l-26.048,0c0.054,0.001 -8.814,6.209 -9.896,7.428Zm17.406,-2.466l10.005,0c-0,0 -1.109,3.799 -6.568,6.207l-8.342,-0c-0.804,-2.16 1.165,-3.879 2.273,-4.823c1.163,-1.052 2.632,-1.384 2.632,-1.384Z" style="fill:#fff;fill-rule:nonzero;"/><path d="M539.902,39.988c0,0 4.213,-13.331 5.545,-17.599c0.665,-2.327 -0.887,-2.244 -3.826,-2.244c-2.94,0 -5.073,0.637 -9.145,7.425c-4.767,7.927 7.038,10.089 7.038,10.089l-0.833,2.325l-13.632,0c-0,0 -7.456,0.307 -7.456,-8.672c-0,-11.03 14.104,-16.132 14.104,-16.132l29.792,0l-7.925,24.804l-13.662,0l0,0.004Z" style="fill:#fff;fill-rule:nonzero;"/></g></svg>