<?xml version="1.0" encoding="UTF-8" standalone="no"?><!DOCTYPE svg PUBLIC "-//W3C//DTD SVG 1.1//EN" "http://www.w3.org/Graphics/SVG/1.1/DTD/svg11.dtd"><svg width="100%" height="100%" viewBox="0 0 600 277" version="1.1" xmlns="http://www.w3.org/2000/svg" xmlns:xlink="http://www.w3.org/1999/xlink" xml:space="preserve" xmlns:serif="http://www.serif.com/" style="fill-rule:evenodd;clip-rule:evenodd;stroke-linejoin:round;stroke-miterlimit:2;"><g id="bbc_micro"><path d="M351.072,105.493c0,28.997 -22.727,43.495 -68.175,43.495c-7.888,0 -20.176,-0.216 -36.865,-0.654c0.907,-22.006 1.366,-46.814 1.366,-74.43c-0,-26.519 -0.454,-49.143 -1.366,-67.871l16.967,-0c3.215,-0 8.604,-0.109 16.178,-0.325c7.574,-0.216 13.494,-0.33 17.75,-0.33c30.929,0 46.391,10.496 46.391,31.476c-0,16.178 -7.924,26.884 -23.773,32.129l0,1.639c8.445,1.386 15.813,4.828 22.098,10.325c6.286,5.513 9.429,13.69 9.429,24.546Zm-28.276,1.205c0,-14.498 -12.18,-21.753 -36.55,-21.753c-4.817,0 -8.97,0.186 -12.458,0.546c-0,15.231 0.314,29.255 0.943,42.079c2.37,0.587 5.93,0.876 10.68,0.876c12.917,0 22.377,-1.618 28.379,-4.864c6.003,-3.246 9.006,-8.872 9.006,-16.884Zm-7.646,-61.204c0,-13.04 -7.821,-19.563 -23.458,-19.563c-7.193,-0 -13.582,0.546 -19.161,1.638c0.762,7.363 1.149,20.001 1.149,37.926c2.653,0.145 5.445,0.217 8.377,0.217c22.062,-0.005 33.093,-6.74 33.093,-20.218Z" style="fill:#fff;"/><path d="M479.256,105.493c0,28.997 -22.727,43.495 -68.175,43.495c-7.888,0 -20.177,-0.216 -36.86,-0.654c0.907,-22.006 1.361,-46.814 1.361,-74.43c-0,-26.519 -0.454,-49.143 -1.361,-67.871l16.962,-0c3.21,-0 8.604,-0.109 16.178,-0.325c7.579,-0.216 13.494,-0.33 17.75,-0.33c30.929,0 46.391,10.496 46.391,31.476c-0,16.178 -7.919,26.884 -23.768,32.129l0,1.639c8.45,1.386 15.813,4.828 22.098,10.325c6.281,5.513 9.424,13.69 9.424,24.546Zm-28.276,1.205c0,-14.498 -12.185,-21.753 -36.545,-21.753c-4.817,0 -8.975,0.186 -12.463,0.546c-0,15.231 0.314,29.255 0.942,42.079c2.371,0.587 5.931,0.876 10.681,0.876c12.917,0 22.377,-1.618 28.379,-4.864c6.002,-3.246 9.006,-8.872 9.006,-16.884Zm-7.646,-61.204c0,-13.04 -7.821,-19.563 -23.458,-19.563c-7.193,-0 -13.582,0.546 -19.167,1.638c0.768,7.363 1.154,20.001 1.154,37.926c2.654,0.145 5.446,0.217 8.378,0.217c22.062,-0.005 33.093,-6.74 33.093,-20.218Z" style="fill:#fff;"/><path d="M600,122.433l-1.783,25.138c-9.918,2.473 -19.687,3.715 -29.321,3.715c-23.943,0 -42.187,-6.899 -54.718,-20.712c-12.535,-13.808 -18.795,-30.584 -18.795,-50.333c-0,-20.47 6.651,-38.287 19.949,-53.445c13.298,-15.152 31.543,-22.732 54.718,-22.732c8.516,0 16.585,1.021 24.19,3.061l-3.664,25.246c-8.243,-2.772 -16.131,-4.153 -23.669,-4.153c-14.174,0 -24.716,4.684 -31.63,14.046c-6.914,9.361 -10.367,20.748 -10.367,34.154c0,13.7 4.097,25.576 12.309,35.628c8.203,10.058 19.703,15.086 34.5,15.086c8.666,0 18.09,-1.561 28.281,-4.699Z" style="fill:#fff;"/><path d="M275.637,221.254l-16.451,-46.855c-0.093,-0.211 -0.278,-0.417 -0.649,-0.417c-0.371,-0 -0.83,0.278 -0.83,0.701l0,46.571l-7.671,0l-0,-51.327l14.143,0l14.416,39.858c0.185,0.418 0.464,0.629 0.834,0.629c0.557,-0 1.021,-0.284 1.108,-0.701l14.051,-39.791l14.328,-0l0,51.327l-7.672,0l0,-46.288c0,-0.423 -0.371,-0.634 -0.649,-0.634c-0.371,0 -0.742,0.139 -0.922,0.495l-16.266,46.432l-7.77,0Z" style="fill:#fff;"/><path d="M327.856,216.71l5.729,-0l0,-42.099l-5.729,-0l-0,-4.684l21.351,0l-0,4.684l-6.008,-0l0,42.099l6.008,-0l-0,4.544l-21.351,0l-0,-4.544Z" style="fill:#fff;"/><path d="M396.706,184.828c-0.742,-4.972 -3.88,-9.445 -11.273,-9.445c-6.75,0 -9.614,3.983 -11.088,6.714c-2.494,4.616 -2.777,11.747 -2.777,12.314c-0,11.258 2.684,22.232 13.865,22.232c5.363,-0 8.135,-2.932 8.965,-3.916c1.844,-2.38 2.215,-5.317 2.401,-6.991l9.243,1.257c-0.371,4.055 -2.308,8.46 -6.373,11.536c-5.823,4.405 -12.479,4.405 -15.066,4.405c-5.549,-0 -22.273,-2.169 -22.273,-26.854c-0,-11.819 3.972,-26.781 23.103,-26.781c4.343,-0 9.985,0.973 14.143,4.194c4.621,3.56 5.544,7.62 6.007,10.067l-8.877,1.268Z" style="fill:#fff;"/><path d="M424.065,169.927l20.887,0c18.95,0 23.015,8.671 23.015,13.916c0,9.646 -8.408,12.237 -14.509,13.7l17.745,23.711l-11.088,0l-16.085,-22.793l-10.444,-0l0,22.793l-9.521,0l-0,-51.327Zm9.428,6.008l0,17.002c5.173,0.072 11.83,0.072 15.339,-0.494c3.704,-0.629 9.521,-2.097 9.521,-7.832c0,-6.018 -5.353,-8.676 -15.524,-8.676l-9.336,-0Z" style="fill:#fff;"/><path d="M523.138,181.607c2.035,4.545 2.587,10.557 2.587,14.128c-0,12.237 -4.529,27.06 -22.83,27.06c-16.637,-0 -22.923,-12.659 -22.923,-26.364c0,-7.832 1.67,-14.963 5.549,-19.646c5.642,-6.853 12.381,-7.62 17.374,-7.62c11.464,-0.006 17.471,6.285 20.243,12.442Zm-20.053,-6.296c-5.822,0 -9.423,3.076 -11.366,7.904c-1.298,3.076 -2.035,7.62 -2.035,12.999c0,6.513 1.196,20.213 13.03,20.213c9.609,-0 13.304,-7.482 13.304,-20.491c0.005,-6.781 -0.825,-20.625 -12.933,-20.625Z" style="fill:#fff;"/><path d="M15.435,18.008c-1.613,1.253 -3.639,1.993 -5.836,1.993c-5.298,-0 -9.599,-4.302 -9.599,-9.599c-0,-5.298 4.301,-9.599 9.599,-9.599c5.297,0 9.598,4.301 9.598,9.599c0,2.708 -1.124,5.156 -2.935,6.897l-0.268,0.201l-0.559,0.508Z" style="fill:#fff;"/><circle cx="34.933" cy="10.402" r="9.599" style="fill:#fff;"/><circle cx="60.266" cy="10.402" r="9.599" style="fill:#fff;"/><path d="M91.442,18.008c-1.613,1.253 -3.639,1.993 -5.837,1.993c-5.297,-0 -9.598,-4.302 -9.598,-9.599c-0,-5.298 4.301,-9.599 9.598,-9.599c5.298,0 9.599,4.301 9.599,9.599c0,2.708 -1.124,5.156 -2.935,6.897l-0.268,0.201l-0.559,0.508Z" style="fill:#fff;"/><path d="M116.775,18.008c-1.612,1.253 -3.638,1.993 -5.836,1.993c-5.298,-0 -9.599,-4.302 -9.599,-9.599c0,-5.298 4.301,-9.599 9.599,-9.599c5.298,0 9.599,4.301 9.599,9.599c-0,2.708 -1.124,5.156 -2.936,6.897l-0.268,0.201l-0.559,0.508Z" style="fill:#fff;"/><circle cx="136.273" cy="10.402" r="9.599" style="fill:#fff;"/><circle cx="161.607" cy="10.402" r="9.599" style="fill:#fff;"/><path d="M192.777,18.008c-1.613,1.253 -3.639,1.993 -5.836,1.993c-5.298,-0 -9.599,-4.302 -9.599,-9.599c-0,-5.298 4.301,-9.599 9.599,-9.599c5.297,0 9.598,4.301 9.598,9.599c0,2.708 -1.124,5.156 -2.935,6.897l-0.268,0.201l-0.559,0.508Z" style="fill:#fff;"/><circle cx="212.274" cy="10.402" r="9.599" style="fill:#fff;"/><path d="M16.262,17.299c1.613,-1.252 3.639,-1.992 5.836,-1.992c5.298,-0 9.599,4.301 9.599,9.599c-0,5.297 -4.301,9.598 -9.599,9.598c-1.78,0 -3.447,-0.485 -4.872,-1.34c-0.747,-0.987 -1.682,-1.824 -2.756,-2.451c-1.239,-1.607 -1.971,-3.623 -1.971,-5.807c0,-2.709 1.124,-5.156 2.936,-6.898l0.268,-0.2l0.559,-0.509Z" style="fill:#fff;"/><path d="M15.703,17.808l-0.268,0.2l0.559,-0.508l0.268,-0.201l-0.559,0.509Z" style="fill:#fff;"/><path d="M92.269,17.299c1.612,-1.252 3.638,-1.992 5.836,-1.992c5.297,-0 9.599,4.301 9.599,9.599c-0,2.394 -0.879,4.585 -2.337,6.262l-0.532,0.398c-0.227,0.206 -0.455,0.413 -0.682,0.619l-0.476,0.524c-1.567,1.133 -3.493,1.795 -5.572,1.795c-5.298,0 -9.599,-4.301 -9.599,-9.598c0,-2.709 1.124,-5.156 2.936,-6.898l0.268,-0.2l0.559,-0.509Z" style="fill:#fff;"/><path d="M91.71,17.808l-0.268,0.2l0.559,-0.508l0.268,-0.201l-0.559,0.509Z" style="fill:#fff;"/><path d="M117.602,17.299c1.613,-1.252 3.639,-1.992 5.837,-1.992c5.297,-0 9.598,4.301 9.598,9.599c0,5.297 -4.301,9.598 -9.598,9.598c-1.78,0 -3.448,-0.485 -4.872,-1.34c-0.748,-0.987 -1.682,-1.824 -2.756,-2.451c-1.24,-1.607 -1.971,-3.623 -1.971,-5.807c-0,-2.709 1.124,-5.156 2.935,-6.898l0.268,-0.2l0.559,-0.509Z" style="fill:#fff;"/><path d="M117.043,17.808l-0.268,0.2l0.559,-0.508l0.268,-0.201l-0.559,0.509Z" style="fill:#fff;"/><path d="M193.604,17.299c1.613,-1.252 3.639,-1.992 5.836,-1.992c5.298,-0 9.599,4.301 9.599,9.599c-0,2.394 -0.879,4.585 -2.337,6.262l-0.532,0.398c-0.227,0.206 -0.454,0.413 -0.682,0.619l-0.476,0.524c-1.567,1.133 -3.493,1.795 -5.572,1.795c-5.298,0 -9.599,-4.301 -9.599,-9.598c0,-2.709 1.124,-5.156 2.936,-6.898l0.268,-0.2l0.559,-0.509Z" style="fill:#fff;"/><path d="M193.045,17.808l-0.268,0.2l0.559,-0.508l0.268,-0.201l-0.559,0.509Z" style="fill:#fff;"/><path d="M17.226,33.164c1.24,1.607 1.971,3.623 1.971,5.807c0,5.298 -4.301,9.599 -9.598,9.599c-5.298,-0 -9.599,-4.301 -9.599,-9.599c-0,-5.297 4.301,-9.598 9.599,-9.598c1.78,-0 3.447,0.485 4.871,1.34c0.748,0.987 1.683,1.824 2.756,2.451Z" style="fill:#fff;"/><path d="M14.47,30.713c0.746,0.988 1.684,1.821 2.756,2.451c-0.745,-0.988 -1.683,-1.821 -2.756,-2.451Z" style="fill:#fff;"/><path d="M66.164,46.532c-1.623,1.279 -3.673,2.038 -5.898,2.038c-5.297,-0 -9.598,-4.301 -9.598,-9.599c-0,-5.297 4.301,-9.598 9.598,-9.598c5.298,-0 9.599,4.301 9.599,9.598c0,2.736 -1.147,5.206 -2.991,6.949l-0.207,0.154l-0.503,0.458Z" style="fill:#fff;"/><path d="M105.367,31.168c1.567,-1.133 3.493,-1.795 5.572,-1.795c1.78,-0 3.448,0.485 4.872,1.34c0.747,0.987 1.682,1.824 2.756,2.451c1.239,1.607 1.971,3.623 1.971,5.807c-0,5.298 -4.301,9.599 -9.599,9.599c-5.298,-0 -9.599,-4.301 -9.599,-9.599c0,-2.394 0.879,-4.585 2.337,-6.262l0.532,-0.398c0.227,-0.206 0.455,-0.413 0.682,-0.619l0.476,-0.524Z" style="fill:#fff;"/><path d="M104.891,31.692c-0.227,0.206 -0.455,0.413 -0.682,0.619l-0.056,-0.126c0.227,-0.206 0.455,-0.413 0.682,-0.619l0.056,0.126Z" style="fill:#fff;"/><path d="M115.811,30.713c0.373,0.494 0.794,0.949 1.255,1.36c0.462,0.41 0.965,0.776 1.501,1.091c-0.746,-0.988 -1.684,-1.821 -2.756,-2.451Z" style="fill:#fff;"/><path d="M167.475,46.553c-1.618,1.267 -3.656,2.017 -5.868,2.017c-5.298,-0 -9.599,-4.301 -9.599,-9.599c0,-5.297 4.301,-9.598 9.599,-9.598c5.298,-0 9.599,4.301 9.599,9.598c-0,2.724 -1.138,5.185 -2.968,6.927l-0.236,0.176l-0.527,0.479Z" style="fill:#fff;"/><path d="M206.702,31.168c1.567,-1.133 3.493,-1.795 5.572,-1.795c5.298,-0 9.599,4.301 9.599,9.598c0,5.298 -4.301,9.599 -9.599,9.599c-5.297,-0 -9.598,-4.301 -9.598,-9.599c-0,-2.394 0.878,-4.585 2.336,-6.262l0.532,-0.398c0.228,-0.206 0.455,-0.413 0.682,-0.619l0.476,-0.524Z" style="fill:#fff;"/><path d="M206.226,31.692c-0.227,0.206 -0.454,0.413 -0.682,0.619l-0.056,-0.126c0.228,-0.206 0.455,-0.413 0.682,-0.619l0.056,0.126Z" style="fill:#fff;"/><path d="M52.086,61.871c-1.377,0.771 -2.965,1.208 -4.654,1.208c-5.298,-0 -9.599,-4.301 -9.599,-9.599c0,-5.298 4.301,-9.599 9.599,-9.599c5.298,0 9.599,4.301 9.599,9.599c-0,1.834 -0.515,3.548 -1.419,5c-1.45,0.805 -2.67,1.974 -3.526,3.391Z" style="fill:#fff;"/><path d="M66.874,45.92c1.623,-1.28 3.672,-2.039 5.897,-2.039c5.298,0 9.599,4.301 9.599,9.599c-0,5.298 -4.301,9.599 -9.599,9.599c-1.499,-0 -2.919,-0.345 -4.179,-0.969c-0.955,-1.675 -2.401,-3.032 -4.147,-3.869c-0.812,-1.4 -1.273,-3.027 -1.273,-4.761c0,-2.736 1.147,-5.206 2.992,-6.948l0.207,-0.155l0.503,-0.457Z" style="fill:#fff;"/><path d="M66.371,46.377l-0.207,0.155l0.503,-0.458l0.207,-0.154l-0.503,0.457Z" style="fill:#fff;"/><path d="M153.426,61.871c-1.377,0.771 -2.965,1.208 -4.654,1.208c-5.297,-0 -9.598,-4.301 -9.598,-9.599c-0,-5.298 4.301,-9.599 9.598,-9.599c5.298,0 9.599,4.301 9.599,9.599c0,1.834 -0.515,3.548 -1.418,5c-1.45,0.805 -2.67,1.974 -3.527,3.391Z" style="fill:#fff;"/><path d="M168.238,45.898c1.618,-1.267 3.657,-2.017 5.868,-2.017c5.298,0 9.599,4.301 9.599,9.599c0,5.298 -4.301,9.599 -9.599,9.599c-1.496,-0 -2.913,-0.343 -4.171,-0.966c-0.957,-1.678 -2.407,-3.039 -4.157,-3.875c-0.811,-1.4 -1.27,-3.026 -1.27,-4.758c-0,-2.724 1.137,-5.184 2.967,-6.927l0.236,-0.176l0.527,-0.479Z" style="fill:#fff;"/><path d="M167.711,46.377l-0.236,0.176l0.527,-0.479l0.236,-0.176l-0.527,0.479Z" style="fill:#fff;"/><path d="M15.467,74.453c-1.618,1.267 -3.656,2.017 -5.868,2.017c-5.298,-0 -9.599,-4.301 -9.599,-9.599c-0,-5.298 4.301,-9.599 9.599,-9.599c5.297,0 9.598,4.301 9.598,9.599c0,2.724 -1.137,5.185 -2.967,6.927l-0.236,0.176l-0.527,0.479Z" style="fill:#fff;"/><path d="M55.612,58.48c1.378,-0.771 2.965,-1.208 4.654,-1.208c1.5,0 2.919,0.345 4.179,0.969c0.956,1.675 2.402,3.032 4.147,3.869c0.812,1.4 1.273,3.027 1.273,4.761c0,5.298 -4.301,9.599 -9.599,9.599c-5.297,-0 -9.598,-4.301 -9.598,-9.599c-0,-1.834 0.515,-3.548 1.418,-5c1.45,-0.805 2.67,-1.974 3.526,-3.391Z" style="fill:#fff;"/><path d="M55.612,58.48c-0.724,0.402 -1.391,0.897 -1.984,1.467c-0.593,0.57 -1.112,1.217 -1.542,1.924c1.45,-0.804 2.666,-1.977 3.526,-3.391Z" style="fill:#fff;"/><path d="M64.445,58.241c0.477,0.838 1.078,1.595 1.777,2.248c0.7,0.653 1.498,1.201 2.37,1.621c-0.954,-1.675 -2.403,-3.029 -4.147,-3.869Z" style="fill:#fff;"/><path d="M156.953,58.48c1.377,-0.771 2.965,-1.208 4.654,-1.208c1.496,0 2.913,0.343 4.171,0.966c0.957,1.678 2.407,3.039 4.157,3.875c0.811,1.4 1.271,3.026 1.271,4.758c-0,5.298 -4.301,9.599 -9.599,9.599c-5.298,-0 -9.599,-4.301 -9.599,-9.599c0,-1.834 0.515,-3.548 1.418,-5c1.451,-0.805 2.67,-1.974 3.527,-3.391Z" style="fill:#fff;"/><path d="M156.953,58.48c-0.725,0.402 -1.392,0.897 -1.984,1.467c-0.593,0.57 -1.113,1.217 -1.543,1.924c1.45,-0.804 2.667,-1.977 3.527,-3.391Z" style="fill:#fff;"/><path d="M165.778,58.238c0.478,0.839 1.08,1.598 1.781,2.252c0.701,0.654 1.501,1.203 2.376,1.623c-0.955,-1.678 -2.408,-3.035 -4.157,-3.875Z" style="fill:#fff;"/><circle cx="212.274" cy="66.871" r="9.599" style="fill:#fff;"/><path d="M16.23,73.798c1.618,-1.267 3.656,-2.017 5.868,-2.017c5.298,0 9.599,4.301 9.599,9.599c-0,2.386 -0.873,4.571 -2.322,6.246l-0.547,0.409c-0.227,0.206 -0.454,0.413 -0.681,0.619l-0.491,0.54c-1.564,1.126 -3.485,1.785 -5.558,1.785c-1.777,-0 -3.441,-0.484 -4.865,-1.337c-0.75,-0.993 -1.69,-1.835 -2.77,-2.464c-1.235,-1.606 -1.964,-3.618 -1.964,-5.798c0,-2.724 1.138,-5.185 2.968,-6.927l0.236,-0.176l0.527,-0.479Z" style="fill:#fff;"/><path d="M15.703,74.277l-0.236,0.176l0.527,-0.479l0.236,-0.176l-0.527,0.479Z" style="fill:#fff;"/><path d="M103.662,89.194c-1.564,1.126 -3.484,1.785 -5.557,1.785c-5.298,-0 -9.599,-4.302 -9.599,-9.599c0,-5.298 4.301,-9.599 9.599,-9.599c5.297,0 9.599,4.301 9.599,9.599c-0,2.386 -0.873,4.571 -2.322,6.246l-0.547,0.409c-0.227,0.206 -0.455,0.413 -0.682,0.619l-0.491,0.54Z" style="fill:#fff;"/><path d="M115.804,87.178c-1.235,-1.606 -1.964,-3.618 -1.964,-5.798c-0,-5.298 4.301,-9.599 9.599,-9.599c5.297,0 9.598,4.301 9.598,9.599c0,5.297 -4.301,9.599 -9.598,9.599c-1.777,-0 -3.442,-0.484 -4.865,-1.337c-0.75,-0.993 -1.69,-1.835 -2.77,-2.464Z" style="fill:#fff;"/><path d="M191.805,87.178c-1.235,-1.606 -1.964,-3.618 -1.964,-5.798c0,-5.298 4.301,-9.599 9.599,-9.599c5.298,0 9.599,4.301 9.599,9.599c-0,2.386 -0.873,4.571 -2.322,6.246l-0.547,0.409c-0.227,0.206 -0.454,0.413 -0.682,0.619l-0.49,0.54c-1.565,1.126 -3.485,1.785 -5.558,1.785c-1.777,-0 -3.441,-0.484 -4.865,-1.337c-0.75,-0.993 -1.69,-1.835 -2.77,-2.464Z" style="fill:#fff;"/><path d="M17.233,89.642c1.236,1.606 1.964,3.618 1.964,5.798c0,2.724 -1.137,5.185 -2.967,6.927l-0.236,0.177l-0.527,0.479c-1.618,1.266 -3.656,2.016 -5.868,2.016c-5.298,0 -9.599,-4.301 -9.599,-9.599c-0,-5.297 4.301,-9.598 9.599,-9.598c1.777,-0 3.441,0.484 4.864,1.336c0.751,0.993 1.69,1.835 2.77,2.464Z" style="fill:#fff;"/><path d="M14.463,87.178c0.748,0.994 1.692,1.832 2.77,2.464c-0.748,-0.994 -1.691,-1.832 -2.77,-2.464Z" style="fill:#fff;"/><path d="M29.375,87.626c1.564,-1.126 3.485,-1.784 5.558,-1.784c5.297,-0 9.598,4.301 9.598,9.598c0,2.724 -1.137,5.185 -2.967,6.927l-0.236,0.177l-0.527,0.479c-1.619,1.266 -3.657,2.016 -5.868,2.016c-5.298,0 -9.599,-4.301 -9.599,-9.599c-0,-2.386 0.873,-4.571 2.322,-6.246l0.546,-0.409c0.228,-0.206 0.455,-0.413 0.682,-0.619l0.491,-0.54Z" style="fill:#fff;"/><path d="M28.884,88.166c-0.227,0.206 -0.454,0.413 -0.682,0.619l-0.055,-0.131c0.227,-0.206 0.454,-0.413 0.681,-0.619l0.056,0.131Z" style="fill:#fff;"/><path d="M105.382,87.626c1.564,-1.126 3.484,-1.784 5.557,-1.784c1.777,-0 3.442,0.484 4.865,1.336c0.75,0.993 1.69,1.835 2.77,2.464c1.235,1.606 1.964,3.618 1.964,5.798c-0,2.724 -1.137,5.185 -2.968,6.927l-0.236,0.177l-0.527,0.479c-1.618,1.266 -3.656,2.016 -5.868,2.016c-5.298,0 -9.599,-4.301 -9.599,-9.599c0,-2.386 0.873,-4.571 2.322,-6.246l0.547,-0.409c0.227,-0.206 0.455,-0.413 0.682,-0.619l0.491,-0.54Z" style="fill:#fff;"/><path d="M104.891,88.166c-0.227,0.206 -0.455,0.413 -0.682,0.619l-0.056,-0.131c0.227,-0.206 0.455,-0.413 0.682,-0.619l0.056,0.131Z" style="fill:#fff;"/><path d="M115.804,87.178c0.374,0.497 0.797,0.955 1.261,1.368c0.464,0.413 0.97,0.78 1.509,1.096c-0.748,-0.994 -1.691,-1.832 -2.77,-2.464Z" style="fill:#fff;"/><path d="M194.575,89.642c1.236,1.606 1.964,3.618 1.964,5.798c0,5.298 -4.301,9.599 -9.598,9.599c-5.298,0 -9.599,-4.301 -9.599,-9.599c-0,-5.297 4.301,-9.598 9.599,-9.598c1.776,-0 3.441,0.484 4.864,1.336c0.751,0.993 1.69,1.835 2.77,2.464Z" style="fill:#fff;"/><path d="M191.805,87.178c0.748,0.994 1.692,1.832 2.77,2.464c-0.748,-0.994 -1.691,-1.832 -2.77,-2.464Z" style="fill:#fff;"/><path d="M206.717,87.626c1.564,-1.126 3.484,-1.784 5.557,-1.784c5.298,-0 9.599,4.301 9.599,9.598c0,5.298 -4.301,9.599 -9.599,9.599c-5.297,0 -9.598,-4.301 -9.598,-9.599c-0,-2.386 0.873,-4.571 2.322,-6.246l0.546,-0.409c0.228,-0.206 0.455,-0.413 0.682,-0.619l0.491,-0.54Z" style="fill:#fff;"/><path d="M206.226,88.166c-0.227,0.206 -0.454,0.413 -0.682,0.619l-0.056,-0.131c0.228,-0.206 0.455,-0.413 0.682,-0.619l0.056,0.131Z" style="fill:#fff;"/><path d="M16.23,102.367c1.618,-1.267 3.656,-2.016 5.868,-2.016c5.298,-0 9.599,4.301 9.599,9.598c-0,5.298 -4.301,9.599 -9.599,9.599c-5.297,-0 -9.599,-4.301 -9.599,-9.599c0,-2.724 1.138,-5.184 2.968,-6.926l0.236,-0.177l0.527,-0.479Z" style="fill:#fff;"/><path d="M15.703,102.846l-0.236,0.177l0.527,-0.479l0.236,-0.177l-0.527,0.479Z" style="fill:#fff;"/><path d="M41.564,102.367c1.618,-1.267 3.656,-2.016 5.868,-2.016c5.298,-0 9.599,4.301 9.599,9.598c-0,5.298 -4.301,9.599 -9.599,9.599c-5.298,-0 -9.599,-4.301 -9.599,-9.599c0,-2.724 1.137,-5.184 2.968,-6.926l0.236,-0.177l0.527,-0.479Z" style="fill:#fff;"/><path d="M41.037,102.846l-0.236,0.177l0.527,-0.479l0.236,-0.177l-0.527,0.479Z" style="fill:#fff;"/><circle cx="72.771" cy="109.949" r="9.599" style="fill:#fff;"/><circle cx="98.105" cy="109.949" r="9.599" style="fill:#fff;"/><path d="M117.57,102.367c1.619,-1.267 3.657,-2.016 5.869,-2.016c5.297,-0 9.598,4.301 9.598,9.598c0,5.298 -4.301,9.599 -9.598,9.599c-5.298,-0 -9.599,-4.301 -9.599,-9.599c-0,-2.724 1.137,-5.184 2.967,-6.926l0.236,-0.177l0.527,-0.479Z" style="fill:#fff;"/><path d="M117.043,102.846l-0.236,0.177l0.527,-0.479l0.236,-0.177l-0.527,0.479Z" style="fill:#fff;"/><circle cx="148.772" cy="109.949" r="9.599" style="fill:#fff;"/><circle cx="174.106" cy="109.949" r="9.599" style="fill:#fff;"/><path d="M15.467,132.267c-1.618,1.267 -3.656,2.017 -5.868,2.017c-5.298,-0 -9.599,-4.301 -9.599,-9.599c-0,-5.298 4.301,-9.599 9.599,-9.599c5.297,0 9.598,4.301 9.598,9.599c0,2.724 -1.137,5.184 -2.967,6.926l-0.236,0.177l-0.527,0.479Z" style="fill:#fff;"/><path d="M40.801,132.267c-1.619,1.267 -3.657,2.017 -5.868,2.017c-5.298,-0 -9.599,-4.301 -9.599,-9.599c-0,-5.298 4.301,-9.599 9.599,-9.599c5.297,0 9.598,4.301 9.598,9.599c0,2.724 -1.137,5.184 -2.967,6.926l-0.236,0.177l-0.527,0.479Z" style="fill:#fff;"/><path d="M66.164,132.245c-1.623,1.28 -3.673,2.039 -5.898,2.039c-5.297,-0 -9.598,-4.301 -9.598,-9.599c-0,-5.298 4.301,-9.599 9.598,-9.599c5.298,0 9.599,4.301 9.599,9.599c0,2.736 -1.147,5.205 -2.991,6.948l-0.207,0.155l-0.503,0.457Z" style="fill:#fff;"/><path d="M91.474,132.267c-1.619,1.267 -3.657,2.017 -5.869,2.017c-5.297,-0 -9.598,-4.301 -9.598,-9.599c-0,-5.298 4.301,-9.599 9.598,-9.599c5.298,0 9.599,4.301 9.599,9.599c0,2.724 -1.137,5.184 -2.967,6.926l-0.236,0.177l-0.527,0.479Z" style="fill:#fff;"/><path d="M116.807,132.267c-1.618,1.267 -3.656,2.017 -5.868,2.017c-5.298,-0 -9.599,-4.301 -9.599,-9.599c0,-5.298 4.301,-9.599 9.599,-9.599c5.298,0 9.599,4.301 9.599,9.599c-0,2.724 -1.137,5.184 -2.968,6.926l-0.236,0.177l-0.527,0.479Z" style="fill:#fff;"/><circle cx="212.274" cy="124.685" r="9.599" style="fill:#fff;"/><path d="M16.23,131.611c1.618,-1.266 3.656,-2.016 5.868,-2.016c5.298,-0 9.599,4.301 9.599,9.599c-0,2.386 -0.873,4.571 -2.322,6.246l-0.547,0.409c-0.227,0.206 -0.454,0.413 -0.681,0.619l-0.491,0.54c-1.564,1.126 -3.485,1.784 -5.558,1.784c-5.297,0 -9.599,-4.301 -9.599,-9.598c0,-2.724 1.138,-5.185 2.968,-6.927l0.236,-0.176l0.527,-0.48Z" style="fill:#fff;"/><path d="M15.703,132.091l-0.236,0.176l0.527,-0.479l0.236,-0.177l-0.527,0.48Z" style="fill:#fff;"/><path d="M41.564,131.611c1.618,-1.266 3.656,-2.016 5.868,-2.016c5.298,-0 9.599,4.301 9.599,9.599c-0,2.386 -0.873,4.571 -2.322,6.246l-0.547,0.409c-0.227,0.206 -0.454,0.413 -0.682,0.619l-0.49,0.54c-1.565,1.126 -3.485,1.784 -5.558,1.784c-1.777,0 -3.442,-0.483 -4.865,-1.336c-0.75,-0.993 -1.69,-1.835 -2.77,-2.464c-1.235,-1.606 -1.964,-3.618 -1.964,-5.798c0,-2.724 1.137,-5.185 2.968,-6.927l0.236,-0.176l0.527,-0.48Z" style="fill:#fff;"/><path d="M41.037,132.091l-0.236,0.176l0.527,-0.479l0.236,-0.177l-0.527,0.48Z" style="fill:#fff;"/><path d="M66.874,131.633c1.623,-1.279 3.672,-2.038 5.897,-2.038c5.298,-0 9.599,4.301 9.599,9.599c-0,2.386 -0.873,4.571 -2.322,6.246l-0.547,0.409c-0.227,0.206 -0.454,0.413 -0.682,0.619l-0.49,0.54c-1.565,1.126 -3.485,1.784 -5.558,1.784c-1.781,0 -3.45,-0.486 -4.874,-1.341c-0.748,-0.989 -1.683,-1.826 -2.756,-2.454c-1.238,-1.606 -1.969,-3.62 -1.969,-5.803c0,-2.736 1.147,-5.206 2.992,-6.949l0.207,-0.154l0.503,-0.458Z" style="fill:#fff;"/><path d="M66.371,132.091l-0.207,0.154l0.503,-0.457l0.207,-0.155l-0.503,0.458Z" style="fill:#fff;"/><path d="M92.237,131.611c1.618,-1.266 3.656,-2.016 5.868,-2.016c5.297,-0 9.599,4.301 9.599,9.599c-0,2.386 -0.873,4.571 -2.322,6.246l-0.547,0.409c-0.227,0.206 -0.455,0.413 -0.682,0.619l-0.491,0.54c-1.564,1.126 -3.484,1.784 -5.557,1.784c-1.777,0 -3.442,-0.483 -4.865,-1.336c-0.75,-0.993 -1.69,-1.835 -2.77,-2.464c-1.235,-1.606 -1.964,-3.618 -1.964,-5.798c0,-2.724 1.137,-5.185 2.968,-6.927l0.236,-0.176l0.527,-0.48Z" style="fill:#fff;"/><path d="M91.71,132.091l-0.236,0.176l0.527,-0.479l0.236,-0.177l-0.527,0.48Z" style="fill:#fff;"/><path d="M117.57,131.611c1.619,-1.266 3.657,-2.016 5.869,-2.016c5.297,-0 9.598,4.301 9.598,9.599c0,5.297 -4.301,9.598 -9.598,9.598c-1.777,0 -3.442,-0.483 -4.865,-1.336c-0.75,-0.993 -1.69,-1.835 -2.77,-2.464c-1.235,-1.606 -1.964,-3.618 -1.964,-5.798c-0,-2.724 1.137,-5.185 2.967,-6.927l0.236,-0.176l0.527,-0.48Z" style="fill:#fff;"/><path d="M117.043,132.091l-0.236,0.176l0.527,-0.479l0.236,-0.177l-0.527,0.48Z" style="fill:#fff;"/><path d="M29.375,145.44c1.564,-1.126 3.485,-1.784 5.558,-1.784c1.776,-0 3.441,0.483 4.864,1.336c0.75,0.993 1.69,1.835 2.77,2.464c1.236,1.606 1.964,3.618 1.964,5.798c0,2.724 -1.137,5.185 -2.967,6.927l-0.236,0.176l-0.527,0.479c-1.619,1.267 -3.657,2.017 -5.868,2.017c-5.298,0 -9.599,-4.301 -9.599,-9.599c-0,-2.386 0.873,-4.571 2.322,-6.246l0.546,-0.409c0.228,-0.206 0.455,-0.413 0.682,-0.619l0.491,-0.54Z" style="fill:#fff;"/><path d="M28.884,145.98c-0.227,0.206 -0.454,0.413 -0.682,0.619l-0.055,-0.131c0.227,-0.206 0.454,-0.413 0.681,-0.619l0.056,0.131Z" style="fill:#fff;"/><path d="M39.797,144.992c0.374,0.497 0.797,0.955 1.261,1.368c0.464,0.413 0.97,0.78 1.509,1.096c-0.748,-0.994 -1.691,-1.832 -2.77,-2.464Z" style="fill:#fff;"/><path d="M54.709,145.44c1.564,-1.126 3.484,-1.784 5.557,-1.784c1.781,-0 3.45,0.486 4.875,1.341c0.747,0.989 1.682,1.826 2.756,2.454c1.238,1.606 1.968,3.62 1.968,5.803c0,2.736 -1.147,5.206 -2.991,6.949l-0.207,0.154l-0.503,0.458c-1.623,1.279 -3.673,2.038 -5.898,2.038c-5.297,0 -9.598,-4.301 -9.598,-9.599c-0,-2.386 0.873,-4.571 2.322,-6.246l0.546,-0.409c0.227,-0.206 0.455,-0.413 0.682,-0.619l0.491,-0.54Z" style="fill:#fff;"/><path d="M54.218,145.98c-0.227,0.206 -0.455,0.413 -0.682,0.619l-0.056,-0.131c0.228,-0.206 0.455,-0.413 0.682,-0.619l0.056,0.131Z" style="fill:#fff;"/><path d="M65.141,144.997c0.372,0.495 0.793,0.951 1.255,1.362c0.462,0.41 0.965,0.776 1.501,1.092c-0.745,-0.99 -1.684,-1.823 -2.756,-2.454Z" style="fill:#fff;"/><path d="M80.048,145.44c1.564,-1.126 3.484,-1.784 5.557,-1.784c1.777,-0 3.442,0.483 4.865,1.336c0.75,0.993 1.69,1.835 2.77,2.464c1.235,1.606 1.964,3.618 1.964,5.798c0,2.724 -1.137,5.185 -2.967,6.927l-0.236,0.176l-0.527,0.479c-1.619,1.267 -3.657,2.017 -5.869,2.017c-5.297,0 -9.598,-4.301 -9.598,-9.599c-0,-2.386 0.873,-4.571 2.322,-6.246l0.546,-0.409c0.227,-0.206 0.455,-0.413 0.682,-0.619l0.491,-0.54Z" style="fill:#fff;"/><path d="M79.557,145.98c-0.227,0.206 -0.455,0.413 -0.682,0.619l-0.056,-0.131c0.228,-0.206 0.455,-0.413 0.682,-0.619l0.056,0.131Z" style="fill:#fff;"/><path d="M90.47,144.992c0.374,0.497 0.797,0.955 1.261,1.368c0.464,0.413 0.97,0.78 1.509,1.096c-0.748,-0.994 -1.691,-1.832 -2.77,-2.464Z" style="fill:#fff;"/><path d="M105.382,145.44c1.564,-1.126 3.484,-1.784 5.557,-1.784c1.777,-0 3.442,0.483 4.865,1.336c0.75,0.993 1.69,1.835 2.77,2.464c1.235,1.606 1.964,3.618 1.964,5.798c-0,2.724 -1.137,5.185 -2.968,6.927l-0.236,0.176l-0.527,0.479c-1.618,1.267 -3.656,2.017 -5.868,2.017c-5.298,0 -9.599,-4.301 -9.599,-9.599c0,-2.386 0.873,-4.571 2.322,-6.246l0.547,-0.409c0.227,-0.206 0.455,-0.413 0.682,-0.619l0.491,-0.54Z" style="fill:#fff;"/><path d="M104.891,145.98c-0.227,0.206 -0.455,0.413 -0.682,0.619l-0.056,-0.131c0.227,-0.206 0.455,-0.413 0.682,-0.619l0.056,0.131Z" style="fill:#fff;"/><path d="M115.804,144.992c0.374,0.497 0.797,0.955 1.261,1.368c0.464,0.413 0.97,0.78 1.509,1.096c-0.748,-0.994 -1.691,-1.832 -2.77,-2.464Z" style="fill:#fff;"/><circle cx="212.274" cy="153.254" r="9.599" style="fill:#fff;"/><path d="M41.564,160.181c1.618,-1.267 3.656,-2.017 5.868,-2.017c5.298,0 9.599,4.301 9.599,9.599c-0,1.837 -0.518,3.555 -1.424,5.008c-1.445,0.803 -2.661,1.969 -3.516,3.38c-1.378,0.773 -2.968,1.211 -4.659,1.211c-5.298,-0 -9.599,-4.301 -9.599,-9.599c0,-2.724 1.137,-5.184 2.968,-6.927l0.236,-0.176l0.527,-0.479Z" style="fill:#fff;"/><path d="M41.037,160.66l-0.236,0.176l0.527,-0.479l0.236,-0.176l-0.527,0.479Z" style="fill:#fff;"/><path d="M66.874,160.203c1.623,-1.28 3.672,-2.039 5.897,-2.039c5.298,0 9.599,4.301 9.599,9.599c-0,1.837 -0.518,3.555 -1.424,5.008c-1.445,0.803 -2.661,1.969 -3.516,3.38c-1.379,0.773 -2.968,1.211 -4.659,1.211c-1.501,-0 -2.923,-0.346 -4.183,-0.971c-0.954,-1.67 -2.397,-3.024 -4.138,-3.86c-0.816,-1.402 -1.278,-3.031 -1.278,-4.768c0,-2.736 1.147,-5.206 2.992,-6.948l0.207,-0.155l0.503,-0.457Z" style="fill:#fff;"/><path d="M66.371,160.66l-0.207,0.155l0.503,-0.458l0.207,-0.154l-0.503,0.457Z" style="fill:#fff;"/><path d="M92.237,160.181c1.618,-1.267 3.656,-2.017 5.868,-2.017c5.297,0 9.599,4.301 9.599,9.599c-0,1.837 -0.518,3.555 -1.424,5.008c-1.445,0.803 -2.661,1.969 -3.516,3.38c-1.379,0.773 -2.968,1.211 -4.659,1.211c-1.498,-0 -2.917,-0.344 -4.176,-0.968c-0.956,-1.673 -2.402,-3.03 -4.148,-3.866c-0.814,-1.402 -1.275,-3.03 -1.275,-4.765c0,-2.724 1.137,-5.184 2.968,-6.927l0.236,-0.176l0.527,-0.479Z" style="fill:#fff;"/><path d="M91.71,160.66l-0.236,0.176l0.527,-0.479l0.236,-0.176l-0.527,0.479Z" style="fill:#fff;"/><path d="M117.57,160.181c1.619,-1.267 3.657,-2.017 5.869,-2.017c5.297,0 9.598,4.301 9.598,9.599c0,1.837 -0.517,3.555 -1.423,5.008c-1.445,0.803 -2.662,1.969 -3.516,3.38c-1.379,0.773 -2.968,1.211 -4.659,1.211c-1.499,-0 -2.917,-0.344 -4.176,-0.968c-0.956,-1.673 -2.402,-3.03 -4.148,-3.866c-0.814,-1.402 -1.275,-3.03 -1.275,-4.765c-0,-2.724 1.137,-5.184 2.967,-6.927l0.236,-0.176l0.527,-0.479Z" style="fill:#fff;"/><path d="M117.043,160.66l-0.236,0.176l0.527,-0.479l0.236,-0.176l-0.527,0.479Z" style="fill:#fff;"/><path d="M55.607,172.771c1.379,-0.772 2.968,-1.211 4.659,-1.211c1.502,0 2.923,0.346 4.184,0.971c0.954,1.67 2.397,3.024 4.138,3.86c0.815,1.402 1.277,3.032 1.277,4.768c0,2.72 -1.134,5.177 -2.959,6.919l-0.239,0.179l-0.535,0.486c-1.618,1.266 -3.655,2.015 -5.866,2.015c-5.297,-0 -9.598,-4.301 -9.598,-9.599c-0,-1.837 0.517,-3.554 1.423,-5.008c1.445,-0.803 2.662,-1.969 3.516,-3.38Z" style="fill:#fff;"/><path d="M55.607,172.771c-0.722,0.402 -1.386,0.894 -1.977,1.463c-0.592,0.568 -1.11,1.212 -1.539,1.917c1.444,-0.803 2.658,-1.971 3.516,-3.38Z" style="fill:#fff;"/><path d="M64.45,172.531c0.476,0.835 1.075,1.59 1.773,2.242c0.698,0.651 1.495,1.198 2.365,1.618c-0.953,-1.67 -2.399,-3.02 -4.138,-3.86Z" style="fill:#fff;"/><path d="M80.946,172.771c1.379,-0.772 2.968,-1.211 4.659,-1.211c1.499,0 2.917,0.344 4.176,0.968c0.956,1.674 2.402,3.031 4.148,3.866c0.814,1.402 1.275,3.03 1.275,4.765c0,2.708 -1.124,5.156 -2.935,6.898l-0.268,0.2l-0.559,0.508c-1.613,1.253 -3.639,1.993 -5.837,1.993c-5.297,-0 -9.598,-4.301 -9.598,-9.599c-0,-1.837 0.517,-3.554 1.423,-5.008c1.445,-0.803 2.662,-1.969 3.516,-3.38Z" style="fill:#fff;"/><path d="M80.946,172.771c-0.722,0.402 -1.386,0.894 -1.977,1.463c-0.592,0.568 -1.11,1.212 -1.539,1.917c1.444,-0.803 2.658,-1.971 3.516,-3.38Z" style="fill:#fff;"/><path d="M89.781,172.528c0.477,0.837 1.078,1.594 1.778,2.246c0.7,0.653 1.498,1.201 2.37,1.62c-0.954,-1.674 -2.404,-3.027 -4.148,-3.866Z" style="fill:#fff;"/><path d="M106.28,172.771c1.379,-0.772 2.968,-1.211 4.659,-1.211c1.498,0 2.917,0.344 4.176,0.968c0.956,1.674 2.402,3.031 4.148,3.866c0.814,1.402 1.275,3.03 1.275,4.765c-0,2.708 -1.124,5.156 -2.936,6.898l-0.268,0.2l-0.559,0.508c-1.612,1.253 -3.638,1.993 -5.836,1.993c-5.298,-0 -9.599,-4.301 -9.599,-9.599c0,-1.837 0.518,-3.554 1.424,-5.008c1.445,-0.803 2.661,-1.969 3.516,-3.38Z" style="fill:#fff;"/><path d="M106.28,172.771c-0.722,0.402 -1.386,0.894 -1.978,1.463c-0.591,0.568 -1.109,1.212 -1.538,1.917c1.444,-0.803 2.657,-1.971 3.516,-3.38Z" style="fill:#fff;"/><path d="M115.115,172.528c0.477,0.837 1.078,1.594 1.778,2.246c0.699,0.653 1.498,1.201 2.37,1.62c-0.955,-1.674 -2.404,-3.027 -4.148,-3.866Z" style="fill:#fff;"/><path d="M131.614,172.771c1.379,-0.772 2.968,-1.211 4.659,-1.211c5.298,0 9.599,4.301 9.599,9.599c-0,2.708 -1.124,5.156 -2.936,6.898l-0.268,0.2l-0.559,0.508c-1.613,1.253 -3.639,1.993 -5.836,1.993c-5.298,-0 -9.599,-4.301 -9.599,-9.599c0,-1.837 0.518,-3.554 1.424,-5.008c1.445,-0.803 2.661,-1.969 3.516,-3.38Z" style="fill:#fff;"/><path d="M131.614,172.771c-1.444,0.803 -2.658,1.971 -3.516,3.38c1.444,-0.803 2.657,-1.971 3.516,-3.38Z" style="fill:#fff;"/><circle cx="212.274" cy="181.159" r="9.599" style="fill:#fff;"/><path d="M66.906,188.078c1.617,-1.265 3.654,-2.014 5.865,-2.014c5.298,0 9.599,4.301 9.599,9.599c-0,2.394 -0.879,4.585 -2.337,6.262l-0.532,0.398c-0.227,0.206 -0.454,0.413 -0.682,0.62l-0.476,0.523c-1.567,1.133 -3.493,1.796 -5.572,1.796c-5.298,-0 -9.599,-4.302 -9.599,-9.599c0,-2.72 1.134,-5.177 2.96,-6.92l0.239,-0.178l0.535,-0.487Z" style="fill:#fff;"/><path d="M66.371,188.565l-0.239,0.178l0.535,-0.486l0.239,-0.179l-0.535,0.487Z" style="fill:#fff;"/><path d="M92.269,188.057c1.612,-1.253 3.638,-1.993 5.836,-1.993c5.297,0 9.599,4.301 9.599,9.599c-0,2.394 -0.879,4.585 -2.337,6.262l-0.532,0.398c-0.227,0.206 -0.455,0.413 -0.682,0.62l-0.476,0.523c-1.567,1.133 -3.493,1.796 -5.572,1.796c-1.78,-0 -3.448,-0.486 -4.872,-1.341c-0.747,-0.987 -1.682,-1.824 -2.756,-2.451c-1.239,-1.607 -1.971,-3.622 -1.971,-5.807c0,-2.708 1.124,-5.156 2.936,-6.898l0.268,-0.2l0.559,-0.508Z" style="fill:#fff;"/><path d="M91.71,188.565l-0.268,0.2l0.559,-0.508l0.268,-0.2l-0.559,0.508Z" style="fill:#fff;"/><path d="M117.602,188.057c1.613,-1.253 3.639,-1.993 5.837,-1.993c5.297,0 9.598,4.301 9.598,9.599c0,2.394 -0.878,4.585 -2.336,6.262l-0.532,0.398c-0.227,0.206 -0.455,0.413 -0.682,0.62l-0.476,0.523c-1.567,1.133 -3.493,1.796 -5.572,1.796c-1.78,-0 -3.448,-0.486 -4.872,-1.341c-0.748,-0.987 -1.682,-1.824 -2.756,-2.451c-1.24,-1.607 -1.971,-3.622 -1.971,-5.807c-0,-2.708 1.124,-5.156 2.935,-6.898l0.268,-0.2l0.559,-0.508Z" style="fill:#fff;"/><path d="M117.043,188.565l-0.268,0.2l0.559,-0.508l0.268,-0.2l-0.559,0.508Z" style="fill:#fff;"/><path d="M142.936,188.057c1.613,-1.253 3.639,-1.993 5.836,-1.993c5.298,0 9.599,4.301 9.599,9.599c0,2.394 -0.879,4.585 -2.336,6.262l-0.532,0.398c-0.228,0.206 -0.455,0.413 -0.682,0.62l-0.476,0.523c-1.567,1.133 -3.493,1.796 -5.573,1.796c-1.78,-0 -3.447,-0.486 -4.871,-1.341c-0.748,-0.987 -1.683,-1.824 -2.756,-2.451c-1.24,-1.607 -1.971,-3.622 -1.971,-5.807c-0,-2.708 1.124,-5.156 2.935,-6.898l0.268,-0.2l0.559,-0.508Z" style="fill:#fff;"/><path d="M142.377,188.565l-0.268,0.2l0.559,-0.508l0.268,-0.2l-0.559,0.508Z" style="fill:#fff;"/><path d="M80.033,201.925c1.567,-1.133 3.493,-1.795 5.572,-1.795c1.78,-0 3.448,0.485 4.872,1.34c0.748,0.988 1.682,1.824 2.756,2.451c1.24,1.608 1.971,3.623 1.971,5.808c0,2.708 -1.124,5.155 -2.935,6.897l-0.268,0.201l-0.559,0.508c-1.613,1.252 -3.639,1.992 -5.837,1.992c-5.297,0 -9.598,-4.301 -9.598,-9.598c-0,-2.395 0.878,-4.586 2.336,-6.263l0.532,-0.397c0.227,-0.207 0.455,-0.414 0.682,-0.62l0.476,-0.524Z" style="fill:#fff;"/><path d="M79.557,202.449c-0.227,0.206 -0.455,0.413 -0.682,0.62l-0.056,-0.126c0.228,-0.207 0.455,-0.414 0.682,-0.62l0.056,0.126Z" style="fill:#fff;"/><path d="M90.477,201.47c0.373,0.494 0.794,0.95 1.256,1.36c0.461,0.411 0.964,0.776 1.5,1.091c-0.745,-0.988 -1.684,-1.821 -2.756,-2.451Z" style="fill:#fff;"/><path d="M105.367,201.925c1.567,-1.133 3.493,-1.795 5.572,-1.795c1.78,-0 3.448,0.485 4.872,1.34c0.747,0.988 1.682,1.824 2.756,2.451c1.239,1.608 1.971,3.623 1.971,5.808c-0,5.297 -4.301,9.598 -9.599,9.598c-5.298,0 -9.599,-4.301 -9.599,-9.598c0,-2.395 0.879,-4.586 2.337,-6.263l0.532,-0.397c0.227,-0.207 0.455,-0.414 0.682,-0.62l0.476,-0.524Z" style="fill:#fff;"/><path d="M104.891,202.449c-0.227,0.206 -0.455,0.413 -0.682,0.62l-0.056,-0.126c0.227,-0.207 0.455,-0.414 0.682,-0.62l0.056,0.126Z" style="fill:#fff;"/><path d="M115.811,201.47c0.373,0.494 0.794,0.95 1.255,1.36c0.462,0.411 0.965,0.776 1.501,1.091c-0.746,-0.988 -1.684,-1.821 -2.756,-2.451Z" style="fill:#fff;"/><path d="M130.701,201.925c1.567,-1.133 3.493,-1.795 5.572,-1.795c1.78,-0 3.448,0.485 4.872,1.34c0.747,0.988 1.682,1.824 2.756,2.451c1.239,1.608 1.971,3.623 1.971,5.808c-0,2.708 -1.124,5.155 -2.936,6.897l-0.268,0.201l-0.559,0.508c-1.613,1.252 -3.639,1.992 -5.836,1.992c-5.298,0 -9.599,-4.301 -9.599,-9.598c0,-2.395 0.879,-4.586 2.337,-6.263l0.532,-0.397c0.227,-0.207 0.454,-0.414 0.682,-0.62l0.476,-0.524Z" style="fill:#fff;"/><path d="M130.225,202.449c-0.228,0.206 -0.455,0.413 -0.682,0.62l-0.056,-0.126c0.227,-0.207 0.455,-0.414 0.682,-0.62l0.056,0.126Z" style="fill:#fff;"/><path d="M141.145,201.47c0.373,0.494 0.793,0.95 1.255,1.36c0.462,0.411 0.965,0.776 1.501,1.091c-0.746,-0.988 -1.684,-1.821 -2.756,-2.451Z" style="fill:#fff;"/><path d="M156.035,201.925c1.567,-1.133 3.492,-1.795 5.572,-1.795c5.298,-0 9.599,4.301 9.599,9.599c-0,2.708 -1.124,5.155 -2.936,6.897l-0.268,0.201l-0.559,0.508c-1.613,1.252 -3.639,1.992 -5.836,1.992c-5.298,0 -9.599,-4.301 -9.599,-9.598c0,-2.395 0.879,-4.586 2.337,-6.263l0.532,-0.397c0.227,-0.207 0.454,-0.414 0.681,-0.62l0.477,-0.524Z" style="fill:#fff;"/><path d="M155.558,202.449c-0.227,0.206 -0.454,0.413 -0.681,0.62l-0.056,-0.126c0.227,-0.207 0.454,-0.414 0.682,-0.62l0.055,0.126Z" style="fill:#fff;"/><circle cx="212.274" cy="209.729" r="9.599" style="fill:#fff;"/><path d="M92.269,216.626c1.612,-1.252 3.638,-1.992 5.836,-1.992c5.297,-0 9.599,4.301 9.599,9.598c-0,5.298 -4.302,9.599 -9.599,9.599c-1.822,0 -3.525,-0.508 -4.971,-1.4c-0.707,-0.9 -1.572,-1.67 -2.558,-2.259c-1.298,-1.63 -2.07,-3.696 -2.07,-5.94c0,-2.708 1.124,-5.156 2.936,-6.897l0.268,-0.201l0.559,-0.508Z" style="fill:#fff;"/><path d="M91.71,217.134l-0.268,0.201l0.559,-0.508l0.268,-0.201l-0.559,0.508Z" style="fill:#fff;"/><path d="M142.936,216.626c1.613,-1.252 3.639,-1.992 5.836,-1.992c5.298,-0 9.599,4.301 9.599,9.598c0,5.298 -4.301,9.599 -9.599,9.599c-1.821,0 -3.524,-0.508 -4.97,-1.4c-0.707,-0.9 -1.573,-1.67 -2.558,-2.259c-1.298,-1.63 -2.07,-3.696 -2.07,-5.94c-0,-2.708 1.124,-5.156 2.935,-6.897l0.268,-0.201l0.559,-0.508Z" style="fill:#fff;"/><path d="M142.377,217.134l-0.268,0.201l0.559,-0.508l0.268,-0.201l-0.559,0.508Z" style="fill:#fff;"/><path d="M168.27,216.626c1.613,-1.252 3.639,-1.992 5.836,-1.992c5.298,-0 9.599,4.301 9.599,9.598c0,2.504 -0.961,4.785 -2.541,6.488c-0.463,0.347 -0.893,0.735 -1.281,1.163c-1.602,1.226 -3.606,1.948 -5.777,1.948c-5.297,0 -9.598,-4.301 -9.598,-9.599c-0,-2.708 1.124,-5.156 2.935,-6.897l0.268,-0.201l0.559,-0.508Z" style="fill:#fff;"/><path d="M167.711,217.134l-0.268,0.201l0.559,-0.508l0.268,-0.201l-0.559,0.508Z" style="fill:#fff;"/><path d="M93.134,232.431c1.298,1.63 2.07,3.695 2.07,5.939c0,2.74 -1.15,5.213 -2.999,6.956l-0.204,0.152l-0.495,0.45c-1.624,1.281 -3.675,2.041 -5.901,2.041c-5.297,-0 -9.598,-4.301 -9.598,-9.599c-0,-5.298 4.301,-9.599 9.598,-9.599c1.822,0 3.525,0.509 4.971,1.401c0.707,0.9 1.572,1.669 2.558,2.259Z" style="fill:#fff;"/><path d="M90.576,230.172c0.707,0.899 1.574,1.665 2.558,2.259c-0.706,-0.9 -1.574,-1.666 -2.558,-2.259Z" style="fill:#fff;"/><path d="M143.802,232.431c1.298,1.63 2.07,3.695 2.07,5.939c-0,2.74 -1.15,5.213 -3,6.956l-0.204,0.152l-0.495,0.45c-1.624,1.281 -3.674,2.041 -5.9,2.041c-5.298,-0 -9.599,-4.301 -9.599,-9.599c0,-5.298 4.301,-9.599 9.599,-9.599c1.821,0 3.525,0.509 4.971,1.401c0.707,0.9 1.572,1.669 2.558,2.259Z" style="fill:#fff;"/><path d="M141.244,230.172c0.706,0.899 1.574,1.665 2.558,2.259c-0.707,-0.9 -1.574,-1.666 -2.558,-2.259Z" style="fill:#fff;"/><path d="M181.164,230.72c1.602,-1.226 3.606,-1.949 5.777,-1.949c5.297,0 9.598,4.301 9.598,9.599c0,2.74 -1.15,5.213 -2.999,6.956l-0.204,0.152l-0.495,0.45c-1.624,1.281 -3.674,2.041 -5.9,2.041c-5.298,-0 -9.599,-4.301 -9.599,-9.599c-0,-2.504 0.961,-4.785 2.541,-6.487c0.463,-0.348 0.893,-0.736 1.281,-1.163Z" style="fill:#fff;"/><path d="M181.164,230.72c-0.464,0.345 -0.892,0.736 -1.281,1.163c0.464,-0.346 0.891,-0.737 1.281,-1.163Z" style="fill:#fff;"/><circle cx="212.274" cy="238.37" r="9.599" style="fill:#fff;"/><circle cx="22.098" cy="252.884" r="9.599" style="fill:#fff;"/><circle cx="47.432" cy="252.884" r="9.599" style="fill:#fff;"/><circle cx="72.771" cy="252.884" r="9.599" style="fill:#fff;"/><path d="M92.205,245.326c1.624,-1.281 3.674,-2.041 5.9,-2.041c5.297,0 9.599,4.302 9.599,9.599c-0,5.298 -4.302,9.599 -9.599,9.599c-5.298,-0 -9.599,-4.301 -9.599,-9.599c0,-2.739 1.15,-5.212 3,-6.956l0.204,-0.152l0.495,-0.45Z" style="fill:#fff;"/><path d="M91.71,245.776l-0.204,0.152l0.495,-0.45l0.204,-0.152l-0.495,0.45Z" style="fill:#fff;"/><circle cx="123.439" cy="252.884" r="9.599" style="fill:#fff;"/><path d="M142.872,245.326c1.624,-1.281 3.674,-2.041 5.9,-2.041c5.298,0 9.599,4.302 9.599,9.599c0,5.298 -4.301,9.599 -9.599,9.599c-5.297,-0 -9.598,-4.301 -9.598,-9.599c-0,-2.739 1.15,-5.212 2.999,-6.956l0.204,-0.152l0.495,-0.45Z" style="fill:#fff;"/><path d="M142.377,245.776l-0.204,0.152l0.495,-0.45l0.204,-0.152l-0.495,0.45Z" style="fill:#fff;"/><path d="M193.54,245.326c1.624,-1.281 3.674,-2.041 5.9,-2.041c5.298,0 9.599,4.302 9.599,9.599c-0,2.379 -0.867,4.557 -2.308,6.23l-0.561,0.42c-0.227,0.207 -0.454,0.413 -0.682,0.62l-0.505,0.556c-1.562,1.119 -3.477,1.773 -5.543,1.773c-5.298,-0 -9.599,-4.301 -9.599,-9.599c0,-2.739 1.15,-5.212 3,-6.956l0.204,-0.152l0.495,-0.45Z" style="fill:#fff;"/><path d="M193.045,245.776l-0.204,0.152l0.495,-0.45l0.204,-0.152l-0.495,0.45Z" style="fill:#fff;"/><path d="M206.731,259.114c1.563,-1.119 3.477,-1.773 5.543,-1.773c5.298,-0 9.599,4.301 9.599,9.599c0,5.297 -4.301,9.598 -9.599,9.598c-5.297,0 -9.598,-4.301 -9.598,-9.598c-0,-2.379 0.867,-4.557 2.307,-6.23l0.561,-0.42c0.228,-0.207 0.455,-0.413 0.682,-0.62l0.505,-0.556Z" style="fill:#fff;"/><path d="M206.226,259.67c-0.227,0.207 -0.454,0.413 -0.682,0.62l-0.056,-0.136c0.228,-0.207 0.455,-0.413 0.682,-0.62l0.056,0.136Z" style="fill:#fff;"/></g></svg>