<svg clip-rule="evenodd" fill-rule="evenodd" stroke-linejoin="round" stroke-miterlimit="2" viewBox="0 0 600 1039" xmlns="http://www.w3.org/2000/svg"><g fill="#fff"><path d="m563.703 661.909c-1.034-.021-2.156-.004-3.243.108-2.718.362-5.932.027-8.107 1.297-9.604 1.993-17.568 9.744-20.105 19.348l-.216 230.886c0 10.692 4.021 20.614 12.538 26.051 8.155 6.705 23.583 7.163 32.644 2.27 9.242-5.074 14.224-13.235 15.674-23.565v-117.172h-31.131v21.346h9.945v86.747l-.541 8.863c-1.993 4.349-6.459 5.227-10.809 4.865-4.349-.907-6.874-3.04-8.323-7.026v-222.563c.181-3.443-.741-7.557 2.702-9.188 2.537-2.9 7.583-2.019 11.026-1.838 2.355 1.269 4.533 2.578 5.62 5.297l.324 63.558h20.106v-62.369c-.544-7.249-3.389-15.686-9.188-19.673-5.708-3.806-11.682-7.096-18.916-7.242zm-85.826.54c-2.31.021-4.743.398-6.918.216l-4.215 1.081c-10.873 3.081-18.618 11.067-20.43 22.484v228.399c-.181 8.517 2.091 16.36 7.891 22.159 7.973 7.793 21.084 10.543 32.32 6.918 9.604-2.356 18.111-10.86 20.105-20.646v-233.372c0-7.611-3.179-13.696-7.891-19.132-4.168-2.899-9.372-5.723-14.809-6.81-1.631-1.178-3.742-1.32-6.053-1.297zm-113.173 1.189c-3.638.082-6.053.108-6.053.108v281.312h21.51l.216-142.856c2.777.167 5.551.432 8.324.66 4.712 1.993 10.443 4.686 11.349 10.485v131.711h19.997v-125.766c.182-11.598-3.732-22.302-12.43-28.645 6.342-3.805 10.8-10.297 12.43-17.727l.325-75.773c-.544-7.792-2.82-15.317-7.351-20.753-1.993-2.537-4.165-4.604-6.701-6.054-7.883-6.659-30.701-6.948-41.616-6.701zm-360.812.973v280.933c17.034 1.087 33.684.087 46.913-8.431 7.611-5.799 11.489-14.787 12.214-24.753v-99.013c.181-8.698-5.147-16.904-12.214-22.159 6.704-4.168 10.764-11.414 12.214-19.025l.432-65.18c-.181-25.096-13.333-33.824-25.293-38.805-10.625-4.429-23.393-2.663-34.266-3.567zm79.881.209-.216 126.584.216 126.144 2.162 10.918c3.624 10.148 13.016 16.458 23.888 17.727 4.531-1.269 10.174-.382 14.161-2.919 9.966-4.349 15.269-14.532 16.538-24.861v-253.593h-19.781v230.461c-.725 9.061 1.538 19.88-2.811 27.672-2.174 2.537-5.242 3.103-8.323 2.378-.725-1.631-3.243-1.215-3.243-3.027-1.812-1.268-1.904-3.808-2.81-5.62v-251.864zm82.799 0 .108 280.237h43.67v-23.402h-23.673v-256.835zm64.748 0 .216 280.237h43.669v-23.402h-23.78v-256.835zm63.018 0v280.237h20.646v-142.952h12.755v-22.159h-12.755v-95.77h22.483v-19.356zm180.298 19.356c3.987-.181 7.443.166 10.161 2.702l1.73 3.027v228.4c-.544 3.805-3.911 5.576-6.81 7.026-5.074.906-9.137-1.208-11.674-4.108l-1.297-5.08v-227.211c1.449-2.718 4.81-4.394 7.89-4.756zm-93.229 2.27c7.792.181 15.422 3.885 18.321 11.133-.181 15.132 0 46.83 0 73.287-1.812 5.255-6.886 8.104-12.322 8.648-1.813.362-4.55.473-5.999-.433zm-356.329.65c6.161.363 11.979 2.133 15.241 7.026 3.081 3.081 2.953 8.259 3.135 12.971l-.216 60.965c-.453 6.251-11.636 10.586-18.16 11.674zm1.837 115.443c4.324.031 7.271 2.205 10.918 4.108 3.08 2.718 5.624 6.202 5.08 11.457v88.204c-.362 7.249-3.096 14.106-9.62 17.187-3.081.181-4.953 1.694-8.215 1.513v-122.361c.679-.09 1.22-.113 1.837-.108z" fill-rule="nonzero"/><path d="m445.34 986.941c-5.103.193-10 1.569-13.511 5.08-2.9 3.624-3.933 8.727-3.027 13.62.725 7.248 8.114 7.951 13.188 9.944 5.074 1.631 11.003 1.673 14.808 5.297.906 1.268.906 3.561 0 4.648-2.899 3.987-9.375 4.187-14.268 2.918-2.537-1.63-5.115-3.258-5.297-6.701h-9.62c0 4.711 2.251 9.426 5.513 11.782 6.886 5.074 20.099 5.611 27.347 1.081 4.712-2.537 7.208-8.002 7.026-13.62-.181-4.711-3.544-8.997-7.35-10.809l-17.295-4.216c-2.718-1.087-5.808-2.679-4.54-6.485.363-2.356 2.909-2.588 4.54-3.676 4.168-.906 9.137-.197 11.674 2.703-.136 1.812.214 2.941.973 3.567l10.269.324c.362-3.444-1.141-6.975-3.135-9.512-1.812-2.9-4.845-3.92-8.107-5.189-2.922-.543-6.125-.872-9.188-.756zm-193.594.216c-8.517 1.087-16.125 5.281-19.024 14.16-2.899 10.511-3.071 23.014 4.54 30.807 5.436 5.798 15.734 7.366 23.888 4.648 6.706-2.175 11.887-9.363 12.431-16.431h-9.728c-1.088 3.081-2.181 5.755-5.081 7.567-2.899.725-6.755 2.171-9.836.54-2.899-1.631-5.545-3.764-6.269-7.026-2.175-7.067-1.975-16.505 2.918-21.942 2.899-3.625 8.479-3.103 12.647-2.378 2.718 1.269 4.533 4.342 5.621 7.242h10.16c-.362-2.9-1.433-5.824-2.702-7.999-3.443-7.249-11.954-8.463-19.565-9.188zm101.499 0c-5.187.272-10.103 1.93-13.727 4.648-7.974 6.524-9.598 19.543-7.242 29.509 2.355 7.974 7.735 14.186 15.889 15.998 8.698 1.631 17.912-.108 23.348-6.269 8.336-8.517 7.449-22.782 2.919-33.293-2.356-2.356-3.332-6.155-6.594-7.242-4.077-2.537-9.405-3.623-14.593-3.351zm-244.937.216c-6.855.518-13.085 3.56-16.755 9.404-4.893 7.793-5.099 20.271-1.837 28.969 4.893 8.517 13.228 14.135 24.645 12.323 6.523-1.088 13.025-4.543 16.106-10.161 4.711-8.336 4.711-21.822 0-30.158-3.081-5.799-9.08-8.24-15.242-10.053-2.355-.362-4.633-.497-6.917-.324zm407.725.27-.216 8.593h14.538v39.184h10.377v-39.184h14.322v-8.593zm58.046-.054c-5.697-.021-11.258.234-14.701.324v47.885c13.229-1.268 31.023 4.26 37.184-9.512 4.711-8.698 4.384-21.459.216-30.158l-3.027-3.675c-1.449-1.631-3.125-2.19-4.756-3.459-3.488-1.087-9.219-1.382-14.916-1.405zm-83.88.054v48.372h33.617v-9.08h-23.889v-39.292zm-334.331.595c-5.46.052-10.83.534-15.349.432v48.317c11.961-1.268 27.303 3.733 34.914-6.053 6.705-8.335 7.017-23.217 2.486-33.184-3.964-8.155-12.95-9.6-22.051-9.512zm227.535.053v47.94h9.512v-32.428l19.349 32.428h10.269v-47.94h-9.188l-.108 34.212-19.241-34.212zm-382.323.054-.973-.006v48.323h11.026v-16.647c7.792-.724 16.792 1.987 22.591-5.08 3.987-4.349 4.152-11.28 2.703-17.079-4.531-13.772-22.843-8.062-35.347-9.512zm272.502 0-.108 8.756h14.268l.432 39.238h10.053l.216-39.238h14.268v-8.756zm42.48 0v47.994h9.944v-47.994zm-101.283.278v32.907c-.543 2.355-.96 4.927-3.134 6.377-3.082 1.631-7.764 2.171-11.026.541-1.993-1.813-4.181-4.019-3.999-6.918v-32.907h-10.377v31.718c0 5.255 1.167 10.106 4.972 13.187 5.618 5.98 17.574 5.42 25.186 2.702 3.986-2.174 7.922-6.349 8.647-11.241v-36.366zm-153.924-.063c-5.663.068-11.712.471-17.511.108v47.885h10.332v-17.835c3.443-.091 9.351-.182 13.881 0 5.255 2.718 2.877 9.735 3.783 14.808 0 1.541.471 2.506 1.297 3.027h10.918c.181-.544.006-1.764-1.081-1.946-1.993-6.886 1.411-15.861-5.837-20.753 3.987-1.994 6.196-5.99 6.377-10.702.363-4.168-1.354-7.439-3.891-10.701-.544-.906-2.343-.353-2.162-1.621-5.074-1.903-10.443-2.338-16.106-2.27zm292.499 7.674c.516-.013 1.004-.034 1.513 0 2.039.136 4.043.789 5.945 1.514 1.631 1.631 3.453 2.651 4.54 5.188 2.9 6.524 2.585 16.252-1.945 22.051-2.356 2.718-5.383 3.529-9.188 3.891-3.624-.543-7.519-1.783-9.512-4.864-3.081-4.711-2.852-12.071-1.946-18.051.906-3.443 2.791-7.305 6.053-8.756 1.427-.679 2.991-.927 4.54-.973zm216.078.325c6.704.724 15.549-2.277 18.267 4.972 2.175 6.524 2.509 16.036-1.297 21.835-3.624 5.255-11.353 3.204-16.97 3.567zm-458.313.217c1.54 0 3.18.071 4.539.433 4.168 2.356 7.205 7.067 7.567 12.322.362 5.98-.115 13.671-5.188 17.295-3.444 2.356-9.815 3.656-13.62.757-5.255-3.443-6.304-10.158-6.486-16.863.544-5.98 3.501-11.445 8.756-13.619 1.359-.184 2.891-.325 4.431-.325zm-95.554.326c4.353-.145 8.347.218 11.133 4.431.363 2.538.696 5.647-1.297 7.459-2.899 3.08-9.375 1.294-14.268 1.837v-13.619c1.495 0 2.981-.06 4.432-.108zm38.112.108c5.617.724 12.99-1.425 17.339 1.837 1.269 2.175 1.555 5.319.649 7.675-4.168 4.892-12.008 1.796-17.988 2.702zm97.057 0c4.713.543 10.555-1.278 13.998 1.621 4.531 1.813 4.896 8.295 5.621 13.187-.543 6.161-1.043 13.715-7.566 15.89l-12.053.216z" fill-rule="nonzero"/><path d="m591.119 625.424h-590.941l-.178-624.827h591.119zm-12.685-611.51v598.909h-565.748l-.362-598.909zm-458.074 70.106-17.095 18.038-.492 30.867-27.911-26.761h-18.716v20.85l23.093 26.761h-24.078l-13.627 14.776 14.037 17.444 25.428-.082-21.569 19.414.328 24.791h21.015l31.686-27.911 44.328 94.98h49.007v24.383l-89.723-33.493-31.194 32.754 119.193 124.84h-32.179l-10.671 11.177v13.626l11.328 11.329 20.974.02-12.437 14.92v23.975h22.493l20.812-23.977-8.991 19.119v15.771h29.552l14.119-30.619 1.478-1.478.328 21.836 7.511 10.261h12.683l8.537-8.291v-70.011h8.537v69.519l7.388 8.783h14.12l7.039-8.291v-26.535l18.737 34.826h27.775v-15.771l-7.746-16.153 19.702 21.01h24.626l.165-19.368-11.985-17.567 19.044-.657 13.791-13.791v-10.179l-12.806-13.484h-31.999l117.208-124.84-33.493-32.754-86.276 33.493v-24.383h49.172l43.179-92.343 30.702 26.597h22.164v-25.284l-22.66-21.918h27.75l12.967-15.514-12.314-14.448h-26.104l24.38-25.94v-20.686h-21.425l-25.612 25.94-.328-28.347-16.664-19.675-18.47 19.675-.821 36.227-18.224-15.35h-20.933v19.455l30.62 33.328-42.358 45.313-24.627-14.612v-46.462l-77.045-47.447-80.32 47.447v46.462l-26.022 13.463-43.179-44.821 30.209-32.671v-19.024h-24.298l-14.61 14.755-.328-39.249-17.875-18.038zm347.73 19.824 3.591 4.946v42.276h14.448l30.373-33h4.597v4.844l-28.239 31.522v10.835h35.627l3.776 4.105-3.776 4.679h-35.709v16.5l22.575 20.03.405 5.369-5.397-.403-31.62-27.355h-11.671l-42.344 94.504h-54.342v59.227l97.029-38.335 17.074 17.977-131.506 137.147h57.499l5.179 5.483-5.349 5.602h-35.374v7.175l22.942 26.754-.184 5.218h-4.761l-34.698-39.147h-21.713l24.011 49.355h-8.537l-25.116-49.355h-13.709v47.769l-2.27 1.945-2.081-1.945v-70.079l53.85-55.246-8.701-9.851-60.712 60.437-58.153-60.437-7.88 9.851 51.716 55.246v70.079l-2.42 1.945-2.423-1.945v-47.769h-12.888l-24.811 49.355h-7.861l22.328-49.355h-20.686l-31.851 39.147h-5.494l-.024-5.218 21.842-27.508v-6.421h-35.039l-4.268-5.072 3.623-6.013h55.809l-130.256-137.147 15.926-17.977 98.835 38.17v-59.062h-57.462l-41.853-95.589h-10.13l-32.014 30.04-7.388.164-.328-5.91 25.447-22.492v-14.817h-36.302l-4.685-4.682 4.685-4.636h36.157l.173-10.343-27.794-31.522v-4.284h4.628l30.69 33.441h12.477v-43.358l5.315-4.864 4.372 4.864v51.798h12.313l21.59-22.854h6.156v4.794l-30.209 32.179v11.821l54.014 54.014 40.388-21.003v-48.937l67.264-40.388 64.242 40.388v51.224l37.597 20.029 57.627-60.91-32.478-37.104v-5.028h5.658l22.551 23.416h10.508l.328-53.358zm-171.306 35.812-60.698 36.776v49.417l-47.283 24.134-58.119-58.283 37.268 83.977h58.283v78.394l-102.612-40.14-4.925 7.305 128.577 137.476h7.11l8.625-16.969-46.954-50.977 17.567-21.426 59.633 60.746 62.022-60.746 18.881 21.426-49.582 50.977 6.239 16.969h8.373l131.999-137.476-5.418-7.305-102.611 40.962v-79.216h57.462l36.612-84.797-57.627 59.596-45.067-23.477v-51.224zm169.973 24.134v16.828h16.746v-16.828zm-361.521-.985v16.089h15.597v-16.089z"/></g></svg>