<svg clip-rule="evenodd" fill-rule="evenodd" stroke-linejoin="round" stroke-miterlimit="2" viewBox="0 0 600 170" xmlns="http://www.w3.org/2000/svg"><g fill="#fff"><g fill-rule="nonzero"><path d="m15.214 140.269h-15.214v14.369h84.184v-53.418h-15.89v39.049h-35.838v-86.043h14.538v-14.369h-46.994v14.369h15.214z"/><path d="m122.085 140.269h-15.383v14.369h48.347v-14.369h-15.721v-37.866l31.949-48.177h15.214v-14.369h-45.811v14.369h14.369l-23.159 35.33-25.188-35.33h14.369v-14.369h-47.163v14.369h14.031l34.146 48.177z"/><path d="m201.017 140.269h-16.397v14.369h47.163v-14.369h-16.566v-82.493h.338l54.432 98.045h18.087v-101.595h16.905v-14.369h-47.163v14.369h16.059v74.886h-.338l-49.699-89.255h-39.218v14.369h16.397z"/><path d="m318.443 140.269h-15.552v14.369h45.81v-14.369h-13.861l20.961-31.104 20.962 31.104h-13.355v14.369h47.163v-14.369h-14.875l-30.766-44.966 28.23-41.077h14.369v-14.369h-44.121v14.369h13.355l-20.117 29.075-19.778-29.075h12.848v-14.369h-46.149v14.369h14.876l29.075 42.599z"/></g><path d="m540.857 91.286h4.286v73.714h-4.286z"/><path d="m467.143 165h73.714v4.286h-73.714z"/><path d="m462.857 91.286h4.286v73.714h-4.286z"/><path d="m467.143 87h73.714v4.286h-73.714z"/><path d="m448.714 69.429h3.429v36.857h-3.429z"/><path d="m411.857 106.286h36.857v3.429h-36.857z"/><path d="m408.429 69.429h3.429v36.857h-3.429z"/><path d="m411.857 66h36.857v3.429h-36.857z"/><path d="m486 11.571h3.429v36.857h-3.429z"/><path d="m449.143 48.429h36.857v3.429h-36.857z"/><path d="m445.714 11.571h3.429v36.857h-3.429z"/><path d="m449.143 8.143h36.857v3.429h-36.857z"/><path d="m541.714 3.429h3.429v36.857h-3.429z"/><path d="m504.857 40.286h36.857v3.429h-36.857z"/><path d="m501.429 3.429h3.429v36.857h-3.429z"/><path d="m504.857 0h36.857v3.429h-36.857z"/><path d="m596.571 38.143h3.429v36.857h-3.429z"/><path d="m559.714 75h36.857v3.429h-36.857z"/><path d="m556.286 38.143h3.429v36.857h-3.429z"/><path d="m559.714 34.714h36.857v3.429h-36.857z"/></g></svg>