<?xml version="1.0" encoding="UTF-8" standalone="no"?><!DOCTYPE svg PUBLIC "-//W3C//DTD SVG 1.1//EN" "http://www.w3.org/Graphics/SVG/1.1/DTD/svg11.dtd"><svg width="100%" height="100%" viewBox="0 0 600 128" version="1.1" xmlns="http://www.w3.org/2000/svg" xmlns:xlink="http://www.w3.org/1999/xlink" xml:space="preserve" xmlns:serif="http://www.serif.com/" style="fill-rule:evenodd;clip-rule:evenodd;stroke-linejoin:round;stroke-miterlimit:2;"><g id="capcom_alt"><path d="M192.228,36.631l-13.026,-33.631l-47.826,0l-11.084,29.242l-0.537,-1.044c-0,-0 -15.343,-30.539 -54.659,-30.539c-40.699,0 -65.096,29.105 -65.096,63.175c-0,33.925 30.746,61.351 69.782,61.345l191.158,-0l-0,-31.306c7.211,-2.643 13.632,-5.998 18.681,-9.086c11.446,26.078 37.145,40.394 66.654,40.394l42.135,0l-0,-8.799c9.362,5.768 22.519,11.395 38.216,11.395c11.791,-0 22.358,-3.731 30.291,-7.728l-0,5.186l64.682,0l-0,-19.264c-0,-0 10.737,-0 10.737,-0c-0,-0 -0,19.213 -0,19.213l67.664,-0l-0,-44.43l-5.971,0.742l-6.164,-39.32l4.091,-1.149l0,-38.027l-124.264,0l-0,9.652c-10.73,-7.807 -24.333,-12.38 -39.507,-12.38c-16.514,0 -34.236,5.316 -47.498,16.367c-10.249,-10.146 -25.158,-16.237 -44.804,-16.237c-18.612,0 -32.849,6.605 -43.921,17.351c-2.726,-3.329 -5.788,-6.087 -9.574,-8.322c-6.824,-4.029 -16.265,-6.431 -31.405,-6.431l-58.755,0l0,33.631Zm-80.394,-1.353l-27.525,29.073l-18.179,-12.464c-0,0 5.981,-5.708 0.525,-9.865c-4.255,-3.242 -16.19,3.635 -15.673,17.138c0.606,15.575 10.23,24.399 20.861,24.399c9.874,-0 12.466,-7.96 12.466,-7.96l22.12,-0l0,18.352l31.098,-82.041l35.571,-0l28.562,73.738c-0,-0 2.076,3.886 4.152,4.926c-0,-0 0.119,-48.371 0.119,-49.729c-0,-1.353 -0.179,-2.85 -1.026,-3.822c-1.394,-1.605 -3.768,-2.27 -3.768,-2.27l0,-22.843l49.846,-0c25.855,-0 32.486,7.01 39.983,20.512c10.349,-13.935 24.599,-23.11 44.917,-23.11c20.902,-0 35.693,7.705 44.14,20.509c11.797,-14.103 30.786,-20.639 48.162,-20.639c21.354,-0 39.187,10.349 48.416,26.353l-0,-23.625l48.026,-0l5.062,12.845l3.77,-12.845l49.588,-0l-0,22.323c-0,-0 -2.861,0.785 -3.651,2.073c-0.769,1.272 -0.633,5.332 -0.633,5.332l6.917,44.126c0.29,1.435 0.801,2.934 2.038,4.033c1.435,1.283 3.373,1.042 3.373,1.042l-0,25.436l-49.846,-0l0,-19.214l-28.556,0l0,19.265l-46.863,-0l0,-12.523c0,0 -17.126,15.064 -39.2,15.064c-28.251,0 -47.126,-20.766 -47.126,-20.766l0,18.171l-33.225,-0c-29.573,-0 -54.96,-16.182 -62.051,-45.694c-3.362,3.216 -18.185,13.798 -35.961,17.785c-1.383,0.311 -2.073,0.828 -2.073,2.327c-0,2.734 5.84,3.708 5.84,3.708l0,21.871l-182.249,0c-33.755,0.006 -60.872,-23.1 -60.872,-52.435c0,-29.339 21.141,-54.265 56.187,-54.265c33.495,-0 46.738,25.709 46.738,25.709Z" style="fill:#fff;"/><path id="path9" d="M98.719,35.732l-14.664,15.376c-0,-0 -0.78,0.392 -1.426,0.392c-0.653,0 -1.565,-0.652 -1.565,-0.652l-1.813,-1.551c-0,0 -0.522,-0.127 -0.522,-0.652c-0,-0.512 1.429,-1.819 1.429,-4.284c-0,-2.469 -0.517,-12.724 -16.353,-12.724c-15.836,0 -22.845,14.799 -22.845,27.003c-0,12.203 7.524,34.529 32.196,34.529c14.347,0 17.386,-8.054 17.386,-8.054l4.932,-0l-0,21.035l-26.998,-0c-32.191,-0 -50.107,-25.19 -50.107,-43.361c-0,-27.863 24.228,-43.325 46.213,-43.325c21.289,0.002 34.137,16.268 34.137,16.268Z" style="fill:#fff;"/><path id="path11" d="M144.158,21.778l22.196,-0l27.002,70.617c0.774,1.941 2.074,3.77 3.37,5.318c1.294,1.559 4.411,2.604 4.411,2.604l0,6.092l-32.572,0l-0,-6.23c-0,0 2.07,0.268 3.112,-1.553c1.037,-1.819 1.037,-3.246 0.263,-5.062c-0.78,-1.821 -6.244,-16.225 -6.244,-16.225l-26.605,0c0,0 -5.448,14.537 -5.973,15.833c-0.52,1.296 -0.52,3.378 0,4.671c0.863,2.16 3.897,2.477 3.897,2.477l0,6.092l-26.095,0l-0,-6.092c-0,-0 2.373,-0.818 4.154,-2.604c1.946,-1.946 2.593,-4.027 2.593,-4.027l26.491,-71.911Zm-0.655,42.316l17.14,-0l-8.826,-24.662l-8.314,24.662Z" style="fill:#fff;"/><path id="path13" d="M211.522,21.778l41.542,-0c15.319,-0 30.632,5.445 30.632,23.099c0,17.655 -11.164,23.891 -20.767,28.305c-11.088,5.094 -25.701,9.088 -25.701,9.088l0,13.495c0,-0 0.13,0.912 1.427,2.46c1.302,1.559 2.728,1.951 2.728,1.951l-0,6.231l-30.118,-0l0,-6.093c0,0 1.816,-0.395 3.121,-1.691c1.293,-1.299 1.559,-2.858 1.559,-2.858l-0,-61.01c-0,0 0.119,-2.598 -0.912,-3.632c-1.037,-1.047 -3.508,-2.468 -3.508,-2.468l-0,-6.877l-0.003,-0Zm25.964,12.717l-0,36.086c-0,-0 24.401,-10.122 24.401,-24.402c0,-17.654 -24.401,-11.684 -24.401,-11.684Z" style="fill:#fff;"/><path id="path15" d="M373.66,35.881l-14.669,15.376c-0,-0 -0.78,0.389 -1.429,0.389c-0.645,0 -1.554,-0.649 -1.554,-0.649l-1.821,-1.562c-0,0 -0.517,-0.122 -0.517,-0.639c-0,-0.522 1.423,-1.829 1.423,-4.284c0,-2.471 -0.511,-12.726 -16.352,-12.726c-15.841,0 -22.849,14.794 -22.849,27c0,12.196 7.53,34.529 32.2,34.529c14.347,0 17.389,-8.051 17.389,-8.051l4.936,-0l0,21.029l-27.008,0c-32.188,0 -50.108,-25.181 -50.108,-43.355c0,-27.861 24.226,-43.328 46.214,-43.328c21.292,-0 34.145,16.271 34.145,16.271Z" style="fill:#fff;"/><path id="path17" d="M426.236,108.845c-28.045,0 -48.2,-20.477 -48.2,-45.396c0,-24.934 20.678,-44.245 48.2,-44.245c27.511,-0 48.189,19.311 48.189,44.245c-0,24.916 -20.158,45.396 -48.189,45.396Zm-24.932,-45.011c-0,24.924 12.723,31.154 24.932,31.154c12.193,0 25.181,-7.789 25.181,-31.154c0,-23.363 -14.539,-31.155 -25.181,-31.155c-10.647,0 -24.932,6.225 -24.932,31.155Z" style="fill:#fff;"/><path id="path19" d="M486.978,21.832l30.899,-0l11.165,34.475l11.938,-34.529l32.318,-0l0,5.058c0,0 -2.149,0.909 -3.104,2.079c-1.169,1.429 -1.169,2.465 -0.912,4.549c0.26,2.071 8.566,58.412 8.828,60.49c0.263,2.079 0.517,3.245 1.037,4.674c0.514,1.416 2.988,2.59 2.988,2.59l-0,5.237l-31.03,0l0,-5.624c0,0 2.725,-0.387 3.64,-1.691c0.91,-1.299 1.294,-2.079 1.037,-4.152c-0.26,-2.076 -7.654,-49.328 -7.654,-49.328l-13.503,41.799l-16.355,-0l-13.376,-39.209l-6.747,46.216c0,-0 -0.262,2.774 0.78,4.287c1.426,2.078 4.03,2.078 4.03,2.078l-0,5.578l-26.881,0l-0,-5.962c-0,0 2.141,-0.33 3.697,-2.152c1.556,-1.81 1.819,-4.154 1.819,-4.154l9.805,-60.945c0,0 0.588,-2.276 -0.065,-3.31c-0.684,-1.093 -4.352,-2.011 -4.352,-2.011l0,-6.043l-0.002,-0Z" style="fill:#fff;"/></g></svg>