<?xml version="1.0" encoding="UTF-8" standalone="no"?><!DOCTYPE svg PUBLIC "-//W3C//DTD SVG 1.1//EN" "http://www.w3.org/Graphics/SVG/1.1/DTD/svg11.dtd"><svg width="100%" height="100%" viewBox="0 0 600 163" version="1.1" xmlns="http://www.w3.org/2000/svg" xmlns:xlink="http://www.w3.org/1999/xlink" xml:space="preserve" xmlns:serif="http://www.serif.com/" style="fill-rule:evenodd;clip-rule:evenodd;stroke-linejoin:round;stroke-miterlimit:2;"><g id="capcom_cp3"><path id="path7" d="M106.075,27.232l-28.367,29.963l-18.736,-12.845c-0,0 6.164,-5.882 0.541,-10.167c-4.385,-3.341 -16.686,3.746 -16.153,17.662c0.625,16.053 10.544,25.146 21.5,25.146c10.176,0 12.848,-8.203 12.848,-8.203l22.797,-0l-0,18.914l32.049,-84.553l36.66,0l29.436,75.995c-0,0 2.139,4.006 4.279,5.077c-0,-0 0.123,-49.851 0.123,-51.251c-0,-1.395 -0.185,-2.937 -1.058,-3.939c-1.436,-1.654 -3.882,-2.34 -3.882,-2.34l-0,-23.542l51.371,0c26.646,0 33.48,7.225 41.206,21.141c10.667,-14.363 25.352,-23.818 46.292,-23.818c21.542,-0 36.785,7.941 45.491,21.137c12.159,-14.535 31.728,-21.271 49.636,-21.271c22.008,-0 40.386,10.666 49.898,27.159l0,-24.348l49.497,0l5.216,13.238l3.885,-13.238l51.106,0l0,23.007c0,-0 -2.948,0.809 -3.763,2.136c-0.792,1.311 -0.652,5.495 -0.652,5.495l7.129,45.477c0.299,1.479 0.826,3.024 2.101,4.156c1.478,1.323 3.475,1.074 3.475,1.074l-0,26.214l-51.371,0l0,-19.801l-29.43,-0l-0,19.854l-48.297,0l-0,-12.906c-0,0 -17.651,15.526 -40.401,15.526c-29.115,-0 -48.567,-21.403 -48.567,-21.403l-0,18.728l-34.242,-0c-30.479,-0 -56.643,-16.678 -63.951,-47.093c-3.464,3.314 -18.741,14.22 -37.062,18.329c-1.425,0.321 -2.136,0.854 -2.136,2.399c-0,2.817 6.019,3.821 6.019,3.821l0,22.541l-187.827,-0c-34.789,0.005 -62.735,-23.807 -62.735,-54.041c-0,-30.236 21.787,-55.925 57.906,-55.925c34.521,-0 48.169,26.495 48.169,26.495Zm324.025,75.82c-28.903,-0 -49.675,-21.104 -49.675,-46.786c-0,-25.698 21.31,-45.6 49.675,-45.6c28.353,0 49.663,19.902 49.663,45.6c0,25.679 -20.774,46.786 -49.663,46.786Zm151.563,-84.52c-0,0 -2.215,0.938 -3.199,2.143c-1.205,1.472 -1.205,2.541 -0.94,4.688c0.267,2.134 8.828,60.2 9.098,62.342c0.271,2.142 0.533,3.344 1.069,4.817c0.53,1.459 3.079,2.669 3.079,2.669l0,5.398l-31.979,-0l-0,-5.797c-0,0 2.808,-0.398 3.751,-1.743c0.937,-1.339 1.333,-2.142 1.068,-4.279c-0.267,-2.139 -7.888,-50.838 -7.888,-50.838l-13.916,43.078l-16.856,0l-13.784,-40.409l-6.954,47.631c-0,-0 -0.271,2.859 0.803,4.418c1.47,2.142 4.154,2.142 4.154,2.142l-0,5.749l-27.704,0l-0,-6.145c-0,0 2.206,-0.34 3.81,-2.217c1.604,-1.866 1.875,-4.282 1.875,-4.282l10.105,-62.81c0,0 0.606,-2.346 -0.067,-3.411c-0.705,-1.127 -4.485,-2.073 -4.485,-2.073l0,-6.228l31.843,-0l11.506,35.53l12.304,-35.586l33.307,0l-0,5.213Zm-442.275,-5.213l22.875,0l27.829,72.779c0.798,2 2.137,3.886 3.473,5.481c1.333,1.607 4.547,2.683 4.547,2.683l-0,6.279l-33.57,0l0,-6.421c0,0 2.134,0.276 3.208,-1.601c1.068,-1.874 1.068,-3.344 0.27,-5.216c-0.803,-1.877 -6.435,-16.722 -6.435,-16.722l-27.419,0c0,0 -5.614,14.982 -6.156,16.318c-0.535,1.336 -0.535,3.481 0,4.814c0.89,2.226 4.017,2.552 4.017,2.552l0,6.279l-26.895,0l0,-6.279c0,0 2.447,-0.842 4.282,-2.683c2.005,-2.006 2.672,-4.151 2.672,-4.151l27.302,-74.112Zm112.425,0c15.725,0.044 31.384,5.683 31.384,23.807c0,18.195 -11.506,24.621 -21.402,29.171c-11.428,5.249 -26.488,9.366 -26.488,9.366l0,13.908c0,-0 0.134,0.94 1.47,2.535c1.342,1.607 2.812,2.011 2.812,2.011l-0,6.421l-31.04,0l0,-6.278c0,-0 1.872,-0.408 3.216,-1.744c1.334,-1.339 1.607,-2.945 1.607,-2.945l0,-62.877c0,-0 0.123,-2.678 -0.94,-3.743c-1.068,-1.08 -3.615,-2.544 -3.615,-2.544l0,-7.088l42.811,0l0.185,0Zm124.101,14.535l-15.118,15.846c0,0 -0.803,0.402 -1.473,0.402c-0.664,0 -1.601,-0.669 -1.601,-0.669l-1.877,-1.61c0,0 -0.533,-0.125 -0.533,-0.658c0,-0.538 1.467,-1.886 1.467,-4.416c0,-2.546 -0.527,-13.115 -16.853,-13.115c-16.326,0 -23.547,15.246 -23.547,27.826c-0,12.569 7.76,35.587 33.184,35.587c14.787,-0 17.922,-8.299 17.922,-8.299l5.088,0l-0,21.673l-27.835,0c-33.173,0 -51.642,-25.952 -51.642,-44.682c0,-28.713 24.968,-44.654 47.628,-44.654c21.944,-0 35.19,16.769 35.19,16.769Zm-283.356,-0.153l-15.112,15.846c-0,0 -0.804,0.404 -1.47,0.404c-0.673,0 -1.613,-0.672 -1.613,-0.672l-1.869,-1.598c0,-0 -0.538,-0.131 -0.538,-0.672c0,-0.527 1.473,-1.875 1.473,-4.416c-0,-2.544 -0.533,-13.112 -16.853,-13.112c-16.32,-0 -23.545,15.252 -23.545,27.829c0,12.577 7.754,35.586 33.182,35.586c14.786,-0 17.919,-8.301 17.919,-8.301l5.082,-0l-0,21.678l-27.824,0c-33.176,0 -51.641,-25.96 -51.641,-44.687c-0,-28.716 24.97,-44.652 47.627,-44.652c21.941,0.003 35.182,16.767 35.182,16.767Zm311.846,28.961c0,25.687 13.113,32.108 25.696,32.108c12.565,0 25.951,-8.027 25.951,-32.108c0,-24.077 -14.984,-32.107 -25.951,-32.107c-10.974,-0 -25.696,6.415 -25.696,32.107Zm-168.832,-30.236l0,37.19c0,0 25.149,-10.432 25.149,-25.148c-0,-18.195 -25.149,-12.042 -25.149,-12.042Zm-96.859,30.504l17.665,0l-9.096,-25.416l-8.569,25.416Z" style="fill:#fff;"/><g><path d="M107.738,130.493l2.636,0c3.872,0 7.153,1.506 7.153,5.863c-0,4.356 -3.389,5.593 -7.153,5.593l-2.636,0l0,-11.456Zm-7.529,31.624l7.529,0l0,-14.252l3.173,0c8.068,0 14.468,-3.173 14.468,-11.94c-0,-8.981 -7.476,-11.348 -15.651,-11.348l-9.519,0l-0,37.54Z" style="fill:#fff;fill-rule:nonzero;"/><path d="M128.922,162.117l22.104,0l0,-5.916l-14.575,0l0,-31.624l-7.529,0l-0,37.54Z" style="fill:#fff;fill-rule:nonzero;"/><path d="M177.978,147.596l-10.972,0l5.432,-15.489l0.108,-0l5.432,15.489Zm-24.202,14.521l7.798,0l3.281,-8.605l15.22,0l3.227,8.605l8.336,0l-14.736,-37.54l-8.498,0l-14.628,37.54Z" style="fill:#fff;fill-rule:nonzero;"/><path d="M195.652,162.117l7.529,0l0,-14.844l13.446,-22.696l-7.96,0l-9.035,15.759l-8.874,-15.759l-8.82,0l13.714,22.696l-0,14.844Z" style="fill:#fff;fill-rule:nonzero;"/><path d="M253.723,125.277c-2.743,-0.915 -5.754,-1.345 -8.981,-1.345c-6.616,0 -13.123,3.066 -13.123,11.456c-0,12.423 16.457,9.465 16.457,16.618c0,3.389 -3.818,4.841 -6.669,4.841c-2.958,-0 -5.916,-0.915 -8.497,-2.313l-0.7,6.777c3.711,0.914 5.54,1.452 9.627,1.452c7.584,-0 14.091,-3.12 14.091,-11.348c0,-12.585 -16.457,-9.842 -16.457,-16.35c0,-4.088 3.335,-5.217 5.916,-5.217c2.635,0 5.271,0.592 7.637,1.614l0.699,-6.185Z" style="fill:#fff;fill-rule:nonzero;"/><path d="M270.873,162.117l7.53,0l-0,-14.844l13.445,-22.696l-7.96,0l-9.035,15.759l-8.874,-15.759l-8.82,0l13.714,22.696l0,14.844Z" style="fill:#fff;fill-rule:nonzero;"/><path d="M313.993,125.277c-2.743,-0.915 -5.755,-1.345 -8.982,-1.345c-6.615,0 -13.122,3.066 -13.122,11.456c-0,12.423 16.457,9.465 16.457,16.618c-0,3.389 -3.819,4.841 -6.669,4.841c-2.958,-0 -5.916,-0.915 -8.498,-2.313l-0.699,6.777c3.711,0.914 5.54,1.452 9.627,1.452c7.583,-0 14.091,-3.12 14.091,-11.348c0,-12.585 -16.457,-9.842 -16.457,-16.35c-0,-4.088 3.334,-5.217 5.916,-5.217c2.635,0 5.27,0.592 7.637,1.614l0.699,-6.185Z" style="fill:#fff;fill-rule:nonzero;"/><path d="M328.023,162.117l7.53,0l-0,-31.624l10.756,0l0,-5.916l-29.042,0l0,5.916l10.756,0l0,31.624Z" style="fill:#fff;fill-rule:nonzero;"/><path d="M349.261,162.117l22.266,0l-0,-5.916l-14.737,0l0,-10.541l13.392,-0l-0,-5.916l-13.392,-0l0,-9.251l14.629,0l-0,-5.916l-22.158,0l-0,37.54Z" style="fill:#fff;fill-rule:nonzero;"/><path d="M375.493,162.117l7.207,0l-0,-30.871l0.107,-0.107l10.111,30.978l7.207,0l10.111,-30.978l0.108,-0l-0,30.978l7.207,0l-0,-37.54l-12.048,0l-8.927,28.451l-0.108,0l-8.928,-28.451l-12.047,0l0,37.54Z" style="fill:#fff;fill-rule:nonzero;"/><path d="M459.18,162.117l-20.667,0l-0,-2.048c0.473,-0.035 1.168,-0.088 2.088,-0.158c0.919,-0.07 1.553,-0.175 1.903,-0.315c0.648,-0.262 1.09,-0.608 1.327,-1.037c0.236,-0.429 0.354,-0.976 0.354,-1.641l0,-26.419c0,-0.595 -0.114,-1.12 -0.341,-1.575c-0.228,-0.456 -0.674,-0.823 -1.34,-1.103c-0.42,-0.175 -1.041,-0.355 -1.864,-0.539c-0.823,-0.183 -1.532,-0.31 -2.127,-0.38l-0,-2.049l20.667,0l0,2.049c-0.525,0.052 -1.182,0.127 -1.969,0.223c-0.788,0.096 -1.454,0.232 -1.996,0.407c-0.683,0.227 -1.138,0.582 -1.366,1.063c-0.227,0.482 -0.341,1.029 -0.341,1.642l-0,26.392c-0,0.63 0.118,1.168 0.354,1.615c0.237,0.446 0.687,0.81 1.353,1.09c0.367,0.157 0.976,0.31 1.825,0.459c0.849,0.149 1.562,0.241 2.14,0.276l0,2.048Z" style="fill:#fff;fill-rule:nonzero;"/><path d="M479.486,162.117l-20.668,0l0,-2.048c0.473,-0.035 1.169,-0.088 2.088,-0.158c0.919,-0.07 1.554,-0.175 1.904,-0.315c0.648,-0.262 1.09,-0.608 1.326,-1.037c0.237,-0.429 0.355,-0.976 0.355,-1.641l-0,-26.419c-0,-0.595 -0.114,-1.12 -0.342,-1.575c-0.227,-0.456 -0.674,-0.823 -1.339,-1.103c-0.42,-0.175 -1.042,-0.355 -1.864,-0.539c-0.823,-0.183 -1.532,-0.31 -2.128,-0.38l0,-2.049l20.668,0l-0,2.049c-0.526,0.052 -1.182,0.127 -1.97,0.223c-0.788,0.096 -1.453,0.232 -1.996,0.407c-0.682,0.227 -1.138,0.582 -1.365,1.063c-0.228,0.482 -0.342,1.029 -0.342,1.642l0,26.392c0,0.63 0.119,1.168 0.355,1.615c0.236,0.446 0.687,0.81 1.352,1.09c0.368,0.157 0.976,0.31 1.825,0.459c0.85,0.149 1.563,0.241 2.141,0.276l-0,2.048Z" style="fill:#fff;fill-rule:nonzero;"/><path d="M499.791,162.117l-20.667,0l0,-2.048c0.473,-0.035 1.169,-0.088 2.088,-0.158c0.919,-0.07 1.554,-0.175 1.904,-0.315c0.647,-0.262 1.089,-0.608 1.326,-1.037c0.236,-0.429 0.354,-0.976 0.354,-1.641l0,-26.419c0,-0.595 -0.113,-1.12 -0.341,-1.575c-0.228,-0.456 -0.674,-0.823 -1.339,-1.103c-0.421,-0.175 -1.042,-0.355 -1.865,-0.539c-0.823,-0.183 -1.532,-0.31 -2.127,-0.38l0,-2.049l20.667,0l0,2.049c-0.525,0.052 -1.181,0.127 -1.969,0.223c-0.788,0.096 -1.453,0.232 -1.996,0.407c-0.683,0.227 -1.138,0.582 -1.366,1.063c-0.227,0.482 -0.341,1.029 -0.341,1.642l-0,26.392c-0,0.63 0.118,1.168 0.354,1.615c0.237,0.446 0.688,0.81 1.353,1.09c0.368,0.157 0.976,0.31 1.825,0.459c0.849,0.149 1.563,0.241 2.14,0.276l0,2.048Z" style="fill:#fff;fill-rule:nonzero;"/></g></g></svg>