<svg clip-rule="evenodd" fill-rule="evenodd" stroke-linejoin="round" stroke-miterlimit="2" viewBox="0 0 600 163" xmlns="http://www.w3.org/2000/svg"><g fill="#fff"><path d="m106.075 27.298-28.367 29.963-18.736-12.845s6.164-5.883.541-10.167c-4.385-3.342-16.686 3.746-16.153 17.662.625 16.052 10.544 25.145 21.5 25.145 10.176 0 12.848-8.203 12.848-8.203h22.797v18.914l32.049-84.552h36.66l29.436 75.995s2.139 4.005 4.279 5.076c0 0 .123-49.85.123-51.251 0-1.394-.185-2.937-1.058-3.938-1.436-1.654-3.882-2.34-3.882-2.34v-23.542h51.371c26.646 0 33.48 7.224 41.206 21.14 10.667-14.362 25.352-23.818 46.292-23.818 21.542 0 36.785 7.941 45.491 21.137 12.159-14.535 31.728-21.271 49.636-21.271 22.008 0 40.386 10.666 49.898 27.16v-24.348h49.497l5.216 13.238 3.885-13.238h51.106v23.006s-2.948.809-3.763 2.137c-.792 1.311-.652 5.495-.652 5.495l7.129 45.477c.299 1.478.826 3.023 2.101 4.156 1.478 1.322 3.475 1.074 3.475 1.074v26.214h-51.371v-19.802h-29.43v19.855h-48.297v-12.907s-17.651 15.526-40.401 15.526c-29.115 0-48.567-21.403-48.567-21.403v18.728h-34.242c-30.479 0-56.643-16.677-63.951-47.092-3.464 3.313-18.741 14.22-37.062 18.328-1.425.321-2.136.854-2.136 2.399 0 2.817 6.019 3.822 6.019 3.822v22.54h-187.827c-34.789.006-62.735-23.807-62.735-54.04 0-30.236 21.787-55.926 57.906-55.926 34.521 0 48.169 26.496 48.169 26.496zm324.025 75.819c-28.903 0-49.675-21.104-49.675-46.785 0-25.698 21.31-45.6 49.675-45.6 28.353 0 49.663 19.902 49.663 45.6 0 25.678-20.774 46.785-49.663 46.785zm151.563-84.519s-2.215.937-3.199 2.142c-1.205 1.473-1.205 2.541-.94 4.689.267 2.134 8.828 60.199 9.098 62.341.271 2.142.533 3.345 1.069 4.817.53 1.459 3.079 2.67 3.079 2.67v5.397h-31.979v-5.796s2.808-.399 3.751-1.744c.937-1.338 1.333-2.142 1.068-4.278-.267-2.14-7.888-50.839-7.888-50.839l-13.916 43.079h-16.856l-13.784-40.409-6.954 47.63s-.271 2.859.803 4.419c1.47 2.142 4.154 2.142 4.154 2.142v5.749h-27.704v-6.145s2.206-.341 3.81-2.218c1.604-1.866 1.875-4.281 1.875-4.281l10.105-62.81s.606-2.346-.067-3.412c-.705-1.127-4.485-2.072-4.485-2.072v-6.229h31.843l11.506 35.531 12.304-35.586h33.307v5.213zm-442.275-5.213h22.875l27.829 72.779c.798 1.999 2.137 3.885 3.473 5.481 1.333 1.606 4.547 2.683 4.547 2.683v6.279h-33.57v-6.421s2.134.276 3.208-1.601c1.068-1.875 1.068-3.345.27-5.217-.803-1.877-6.435-16.721-6.435-16.721h-27.419s-5.614 14.981-6.156 16.317c-.535 1.336-.535 3.481 0 4.814.89 2.226 4.017 2.553 4.017 2.553v6.278h-26.895v-6.278s2.447-.843 4.282-2.684c2.005-2.005 2.672-4.15 2.672-4.15l27.302-74.112zm112.425 0c15.725.043 31.384 5.683 31.384 23.806 0 18.195-11.506 24.622-21.402 29.171-11.428 5.25-26.488 9.367-26.488 9.367v13.907s.134.94 1.47 2.536c1.342 1.606 2.812 2.011 2.812 2.011v6.421h-31.04v-6.279s1.872-.407 3.216-1.743c1.334-1.339 1.607-2.946 1.607-2.946v-62.877s.123-2.677-.94-3.743c-1.068-1.079-3.615-2.544-3.615-2.544v-7.087h42.811.185zm124.101 14.535-15.118 15.846s-.803.401-1.473.401c-.664 0-1.601-.669-1.601-.669l-1.877-1.609s-.533-.126-.533-.659c0-.538 1.467-1.885 1.467-4.415 0-2.547-.527-13.116-16.853-13.116s-23.547 15.247-23.547 27.827c0 12.568 7.76 35.586 33.184 35.586 14.787 0 17.922-8.298 17.922-8.298h5.088v21.673h-27.835c-33.173 0-51.642-25.952-51.642-44.682 0-28.714 24.968-44.655 47.628-44.655 21.944 0 35.19 16.77 35.19 16.77zm-283.356-.154-15.112 15.846s-.804.405-1.47.405c-.673 0-1.613-.672-1.613-.672l-1.869-1.599s-.538-.131-.538-.672c0-.527 1.473-1.874 1.473-4.415 0-2.544-.533-13.113-16.853-13.113s-23.545 15.252-23.545 27.829 7.754 35.586 33.182 35.586c14.786 0 17.919-8.301 17.919-8.301h5.082v21.679h-27.824c-33.176 0-51.641-25.96-51.641-44.688 0-28.716 24.97-44.651 47.627-44.651 21.941.002 35.182 16.766 35.182 16.766zm311.846 28.962c0 25.687 13.113 32.108 25.696 32.108 12.565 0 25.951-8.028 25.951-32.108 0-24.078-14.984-32.108-25.951-32.108-10.974 0-25.696 6.415-25.696 32.108zm-168.832-30.236v37.19s25.149-10.433 25.149-25.149c0-18.195-25.149-12.041-25.149-12.041zm-96.859 30.504h17.665l-9.096-25.417z"/><g fill-rule="nonzero"><path d="m118.042 130.559h2.635c3.872 0 7.153 1.506 7.153 5.862s-3.388 5.593-7.153 5.593h-2.635zm-7.53 31.624h7.53v-14.253h3.173c8.067 0 14.467-3.173 14.467-11.939 0-8.982-7.475-11.348-15.65-11.348h-9.52z"/><path d="m139.225 162.183h22.105v-5.916h-14.575v-31.624h-7.53z"/><path d="m188.281 147.662h-10.971l5.432-15.49h.107zm-24.202 14.521h7.799l3.28-8.605h15.221l3.227 8.605h8.336l-14.736-37.54h-8.498z"/><path d="m205.956 162.183h7.529v-14.844l13.446-22.696h-7.96l-9.036 15.758-8.874-15.758h-8.82l13.715 22.696z"/><path d="m264.027 125.342c-2.743-.914-5.755-1.345-8.982-1.345-6.615 0-13.123 3.066-13.123 11.456 0 12.424 16.458 9.466 16.458 16.619 0 3.388-3.819 4.84-6.669 4.84-2.958 0-5.916-.914-8.498-2.313l-.699 6.777c3.711.914 5.54 1.452 9.627 1.452 7.583 0 14.091-3.119 14.091-11.348 0-12.585-16.457-9.842-16.457-16.35 0-4.087 3.334-5.217 5.916-5.217 2.635 0 5.27.592 7.637 1.614z"/><path d="m281.177 162.183h7.529v-14.844l13.446-22.696h-7.96l-9.035 15.758-8.874-15.758h-8.821l13.715 22.696z"/><path d="m324.297 125.342c-2.743-.914-5.755-1.345-8.982-1.345-6.615 0-13.123 3.066-13.123 11.456 0 12.424 16.457 9.466 16.457 16.619 0 3.388-3.818 4.84-6.668 4.84-2.959 0-5.917-.914-8.498-2.313l-.699 6.777c3.711.914 5.539 1.452 9.627 1.452 7.583 0 14.091-3.119 14.091-11.348 0-12.585-16.458-9.842-16.458-16.35 0-4.087 3.335-5.217 5.916-5.217 2.636 0 5.271.592 7.637 1.614z"/><path d="m338.327 162.183h7.53v-31.624h10.756v-5.916h-29.042v5.916h10.756z"/><path d="m359.564 162.183h22.266v-5.916h-14.736v-10.542h13.392v-5.916h-13.392v-9.25h14.629v-5.916h-22.159z"/><path d="m385.797 162.183h7.206v-30.871l.108-.108 10.111 30.979h7.207l10.111-30.979h.107v30.979h7.207v-37.54h-12.047l-8.928 28.451h-.107l-8.928-28.451h-12.047z"/><path d="m469.484 162.183h-20.668v-2.049c.473-.035 1.169-.087 2.088-.157s1.554-.175 1.904-.315c.648-.263 1.09-.609 1.326-1.038.237-.429.355-.976.355-1.641v-26.418c0-.596-.114-1.121-.342-1.576-.227-.455-.674-.823-1.339-1.103-.42-.175-1.042-.354-1.864-.538-.823-.184-1.532-.311-2.128-.381v-2.048h20.668v2.048c-.526.052-1.182.127-1.97.223s-1.453.232-1.996.407c-.682.228-1.138.582-1.365 1.064-.228.481-.342 1.028-.342 1.641v26.392c0 .63.119 1.169.355 1.615.236.447.687.81 1.352 1.09.368.158.976.311 1.825.46.85.148 1.563.24 2.141.275z"/><path d="m489.789 162.183h-20.667v-2.049c.473-.035 1.169-.087 2.088-.157s1.554-.175 1.904-.315c.647-.263 1.089-.609 1.326-1.038.236-.429.354-.976.354-1.641v-26.418c0-.596-.113-1.121-.341-1.576s-.674-.823-1.339-1.103c-.421-.175-1.042-.354-1.865-.538s-1.532-.311-2.127-.381v-2.048h20.667v2.048c-.525.052-1.181.127-1.969.223s-1.453.232-1.996.407c-.683.228-1.138.582-1.366 1.064-.227.481-.341 1.028-.341 1.641v26.392c0 .63.118 1.169.354 1.615.237.447.688.81 1.353 1.09.368.158.976.311 1.825.46.849.148 1.563.24 2.14.275z"/></g></g></svg>