<?xml version="1.0" encoding="UTF-8" standalone="no"?><!DOCTYPE svg PUBLIC "-//W3C//DTD SVG 1.1//EN" "http://www.w3.org/Graphics/SVG/1.1/DTD/svg11.dtd"><svg width="100%" height="100%" viewBox="0 0 600 164" version="1.1" xmlns="http://www.w3.org/2000/svg" xmlns:xlink="http://www.w3.org/1999/xlink" xml:space="preserve" xmlns:serif="http://www.serif.com/" style="fill-rule:evenodd;clip-rule:evenodd;stroke-linejoin:round;stroke-miterlimit:2;"><g id="capcom_cp1"><path id="path7" d="M106.075,27.442l-28.367,29.963l-18.736,-12.845c-0,-0 6.164,-5.883 0.541,-10.167c-4.385,-3.342 -16.686,3.746 -16.153,17.662c0.625,16.052 10.544,25.146 21.5,25.146c10.176,-0 12.848,-8.204 12.848,-8.204l22.797,0l-0,18.914l32.049,-84.552l36.66,-0l29.436,75.995c-0,-0 2.139,4.005 4.279,5.076c-0,0 0.123,-49.85 0.123,-51.251c-0,-1.394 -0.185,-2.937 -1.058,-3.938c-1.436,-1.654 -3.882,-2.34 -3.882,-2.34l-0,-23.542l51.371,-0c26.646,-0 33.48,7.224 41.206,21.14c10.667,-14.362 25.352,-23.818 46.292,-23.818c21.542,0 36.785,7.941 45.491,21.138c12.159,-14.536 31.728,-21.272 49.636,-21.272c22.008,0 40.386,10.666 49.898,27.16l0,-24.348l49.497,-0l5.216,13.238l3.885,-13.238l51.106,-0l0,23.006c0,0 -2.948,0.809 -3.763,2.137c-0.792,1.311 -0.652,5.495 -0.652,5.495l7.129,45.477c0.299,1.478 0.826,3.023 2.101,4.156c1.478,1.322 3.475,1.074 3.475,1.074l-0,26.214l-51.371,-0l0,-19.802l-29.43,0l-0,19.855l-48.297,-0l-0,-12.906c-0,-0 -17.651,15.525 -40.401,15.525c-29.115,0 -48.567,-21.402 -48.567,-21.402l-0,18.727l-34.242,0c-30.479,0 -56.643,-16.677 -63.951,-47.092c-3.464,3.314 -18.741,14.22 -37.062,18.329c-1.425,0.32 -2.136,0.853 -2.136,2.398c-0,2.818 6.019,3.822 6.019,3.822l0,22.54l-187.827,0c-34.789,0.006 -62.735,-23.807 -62.735,-54.04c-0,-30.236 21.787,-55.926 57.906,-55.926c34.521,0 48.169,26.496 48.169,26.496Zm324.025,75.819c-28.903,0 -49.675,-21.104 -49.675,-46.785c-0,-25.698 21.31,-45.6 49.675,-45.6c28.353,-0 49.663,19.902 49.663,45.6c0,25.678 -20.774,46.785 -49.663,46.785Zm151.563,-84.519c-0,-0 -2.215,0.937 -3.199,2.142c-1.205,1.473 -1.205,2.541 -0.94,4.689c0.267,2.134 8.828,60.199 9.098,62.341c0.271,2.142 0.533,3.345 1.069,4.817c0.53,1.459 3.079,2.67 3.079,2.67l0,5.397l-31.979,0l-0,-5.796c-0,-0 2.808,-0.399 3.751,-1.743c0.937,-1.339 1.333,-2.143 1.068,-4.279c-0.267,-2.14 -7.888,-50.838 -7.888,-50.838l-13.916,43.078l-16.856,-0l-13.784,-40.409l-6.954,47.63c-0,0 -0.271,2.86 0.803,4.419c1.47,2.142 4.154,2.142 4.154,2.142l-0,5.749l-27.704,-0l-0,-6.145c-0,-0 2.206,-0.34 3.81,-2.218c1.604,-1.866 1.875,-4.281 1.875,-4.281l10.105,-62.81c0,-0 0.606,-2.346 -0.067,-3.412c-0.705,-1.126 -4.485,-2.072 -4.485,-2.072l0,-6.229l31.843,0l11.506,35.531l12.304,-35.586l33.307,-0l-0,5.213Zm-442.275,-5.213l22.875,-0l27.829,72.779c0.798,2 2.137,3.885 3.473,5.481c1.333,1.606 4.547,2.683 4.547,2.683l-0,6.279l-33.57,-0l0,-6.421c0,-0 2.134,0.276 3.208,-1.601c1.068,-1.875 1.068,-3.345 0.27,-5.216c-0.803,-1.878 -6.435,-16.722 -6.435,-16.722l-27.419,-0c0,-0 -5.614,14.981 -6.156,16.317c-0.535,1.336 -0.535,3.481 0,4.815c0.89,2.225 4.017,2.552 4.017,2.552l0,6.279l-26.895,-0l0,-6.279c0,-0 2.447,-0.843 4.282,-2.684c2.005,-2.005 2.672,-4.15 2.672,-4.15l27.302,-74.112Zm112.425,-0c15.725,0.044 31.384,5.683 31.384,23.807c0,18.194 -11.506,24.621 -21.402,29.17c-11.428,5.25 -26.488,9.367 -26.488,9.367l0,13.907c0,0 0.134,0.94 1.47,2.536c1.342,1.606 2.812,2.011 2.812,2.011l-0,6.421l-31.04,-0l0,-6.279c0,0 1.872,-0.407 3.216,-1.743c1.334,-1.339 1.607,-2.946 1.607,-2.946l0,-62.877c0,0 0.123,-2.677 -0.94,-3.743c-1.068,-1.079 -3.615,-2.544 -3.615,-2.544l0,-7.087l42.811,-0l0.185,-0Zm124.101,14.535l-15.118,15.846c0,-0 -0.803,0.402 -1.473,0.402c-0.664,-0 -1.601,-0.67 -1.601,-0.67l-1.877,-1.609c0,-0 -0.533,-0.126 -0.533,-0.659c0,-0.538 1.467,-1.885 1.467,-4.415c0,-2.547 -0.527,-13.115 -16.853,-13.115c-16.326,-0 -23.547,15.246 -23.547,27.826c-0,12.569 7.76,35.586 33.184,35.586c14.787,0 17.922,-8.298 17.922,-8.298l5.088,-0l-0,21.673l-27.835,-0c-33.173,-0 -51.642,-25.952 -51.642,-44.682c0,-28.714 24.968,-44.655 47.628,-44.655c21.944,0 35.19,16.77 35.19,16.77Zm-283.356,-0.154l-15.112,15.847c-0,-0 -0.804,0.404 -1.47,0.404c-0.673,-0 -1.613,-0.672 -1.613,-0.672l-1.869,-1.599c0,0 -0.538,-0.131 -0.538,-0.672c0,-0.527 1.473,-1.874 1.473,-4.415c-0,-2.544 -0.533,-13.113 -16.853,-13.113c-16.32,0 -23.545,15.252 -23.545,27.829c0,12.577 7.754,35.586 33.182,35.586c14.786,0 17.919,-8.301 17.919,-8.301l5.082,0l-0,21.679l-27.824,-0c-33.176,-0 -51.641,-25.96 -51.641,-44.688c-0,-28.716 24.97,-44.651 47.627,-44.651c21.941,0.003 35.182,16.766 35.182,16.766Zm311.846,28.962c0,25.687 13.113,32.108 25.696,32.108c12.565,-0 25.951,-8.028 25.951,-32.108c0,-24.078 -14.984,-32.108 -25.951,-32.108c-10.974,0 -25.696,6.415 -25.696,32.108Zm-168.832,-30.236l0,37.19c0,-0 25.149,-10.432 25.149,-25.149c-0,-18.195 -25.149,-12.041 -25.149,-12.041Zm-96.859,30.504l17.665,-0l-9.096,-25.417l-8.569,25.417Z" style="fill:#fff;"/><g><path d="M148.859,131.624l2.635,0c3.872,0 7.153,1.506 7.153,5.862c-0,4.357 -3.388,5.594 -7.153,5.594l-2.635,-0l-0,-11.456Zm-7.53,31.624l7.53,0l-0,-14.252l3.173,-0c8.067,-0 14.467,-3.173 14.467,-11.94c0,-8.981 -7.476,-11.348 -15.651,-11.348l-9.519,0l0,37.54Z" style="fill:#fff;fill-rule:nonzero;"/><path d="M170.042,163.248l22.104,0l0,-5.916l-14.574,0l-0,-31.624l-7.53,0l0,37.54Z" style="fill:#fff;fill-rule:nonzero;"/><path d="M219.098,148.727l-10.972,-0l5.432,-15.489l0.108,-0l5.432,15.489Zm-24.202,14.521l7.798,0l3.281,-8.605l15.22,-0l3.227,8.605l8.337,0l-14.737,-37.54l-8.497,0l-14.629,37.54Z" style="fill:#fff;fill-rule:nonzero;"/><path d="M236.772,163.248l7.53,0l-0,-14.844l13.445,-22.696l-7.959,0l-9.036,15.758l-8.874,-15.758l-8.82,0l13.714,22.696l0,14.844Z" style="fill:#fff;fill-rule:nonzero;"/><path d="M294.844,126.407c-2.743,-0.914 -5.755,-1.344 -8.982,-1.344c-6.615,-0 -13.123,3.065 -13.123,11.455c0,12.424 16.457,9.466 16.457,16.619c0,3.388 -3.818,4.84 -6.669,4.84c-2.958,0 -5.916,-0.914 -8.497,-2.312l-0.699,6.776c3.711,0.915 5.539,1.452 9.627,1.452c7.583,0 14.091,-3.119 14.091,-11.348c-0,-12.585 -16.458,-9.842 -16.458,-16.349c0,-4.088 3.335,-5.217 5.916,-5.217c2.636,-0 5.271,0.591 7.637,1.613l0.7,-6.185Z" style="fill:#fff;fill-rule:nonzero;"/><path d="M311.993,163.248l7.53,0l-0,-14.844l13.445,-22.696l-7.959,0l-9.036,15.758l-8.874,-15.758l-8.82,0l13.714,22.696l0,14.844Z" style="fill:#fff;fill-rule:nonzero;"/><path d="M355.113,126.407c-2.743,-0.914 -5.754,-1.344 -8.981,-1.344c-6.615,-0 -13.123,3.065 -13.123,11.455c-0,12.424 16.457,9.466 16.457,16.619c0,3.388 -3.818,4.84 -6.669,4.84c-2.958,0 -5.916,-0.914 -8.497,-2.312l-0.7,6.776c3.711,0.915 5.54,1.452 9.627,1.452c7.584,0 14.091,-3.119 14.091,-11.348c0,-12.585 -16.457,-9.842 -16.457,-16.349c0,-4.088 3.335,-5.217 5.916,-5.217c2.635,-0 5.271,0.591 7.637,1.613l0.699,-6.185Z" style="fill:#fff;fill-rule:nonzero;"/><path d="M369.144,163.248l7.529,0l0,-31.624l10.757,0l-0,-5.916l-29.043,0l0,5.916l10.757,0l-0,31.624Z" style="fill:#fff;fill-rule:nonzero;"/><path d="M390.381,163.248l22.266,0l-0,-5.916l-14.736,0l-0,-10.541l13.391,-0l0,-5.916l-13.391,-0l-0,-9.251l14.628,0l0,-5.916l-22.158,0l0,37.54Z" style="fill:#fff;fill-rule:nonzero;"/><path d="M416.613,163.248l7.207,0l0,-30.871l0.108,-0.107l10.111,30.978l7.207,0l10.111,-30.978l0.107,-0l0,30.978l7.207,0l-0,-37.54l-12.047,0l-8.928,28.451l-0.108,-0l-8.927,-28.451l-12.048,0l0,37.54Z" style="fill:#fff;fill-rule:nonzero;"/></g></g></svg>