<?xml version="1.0" encoding="UTF-8" standalone="no"?><!DOCTYPE svg PUBLIC "-//W3C//DTD SVG 1.1//EN" "http://www.w3.org/Graphics/SVG/1.1/DTD/svg11.dtd"><svg width="100%" height="100%" viewBox="0 0 600 177" version="1.1" xmlns="http://www.w3.org/2000/svg" xmlns:xlink="http://www.w3.org/1999/xlink" xml:space="preserve" xmlns:serif="http://www.serif.com/" style="fill-rule:evenodd;clip-rule:evenodd;stroke-linejoin:round;stroke-miterlimit:2;"><g id="capcom_cp3_alt"><g><path d="M192.228,36.359l-13.026,-33.631l-47.826,0l-11.084,29.241l-0.537,-1.044c-0,0 -15.343,-30.538 -54.659,-30.538c-40.699,0 -65.096,29.104 -65.096,63.174c-0,33.926 30.746,61.352 69.782,61.345l191.158,0l-0,-31.306c7.211,-2.643 13.632,-5.997 18.681,-9.085c11.446,26.077 37.145,40.394 66.654,40.394l42.135,-0l-0,-8.799c9.362,5.768 22.519,11.394 38.216,11.394c11.791,0 22.358,-3.73 30.291,-7.727l-0,5.186l64.682,0l-0,-19.265c-0,0 10.737,0 10.737,0c-0,0 -0,19.214 -0,19.214l67.664,-0l-0,-44.431l-5.971,0.743l-6.164,-39.32l4.091,-1.149l0,-38.027l-124.264,0l-0,9.652c-10.73,-7.807 -24.333,-12.38 -39.507,-12.38c-16.514,-0 -34.236,5.315 -47.498,16.367c-10.249,-10.147 -25.158,-16.237 -44.804,-16.237c-18.612,-0 -32.849,6.605 -43.921,17.35c-2.726,-3.328 -5.788,-6.087 -9.574,-8.322c-6.824,-4.029 -16.265,-6.43 -31.405,-6.43l-58.755,0l0,33.631Zm-80.394,-1.354l-27.525,29.073l-18.179,-12.463c-0,0 5.981,-5.708 0.525,-9.865c-4.255,-3.243 -16.19,3.635 -15.673,17.137c0.606,15.576 10.23,24.399 20.861,24.399c9.874,0 12.466,-7.959 12.466,-7.959l22.12,-0l0,18.352l31.098,-82.041l35.571,-0l28.562,73.738c-0,-0 2.076,3.886 4.152,4.926c-0,-0 0.119,-48.371 0.119,-49.729c-0,-1.354 -0.179,-2.85 -1.026,-3.822c-1.394,-1.605 -3.768,-2.271 -3.768,-2.271l0,-22.842l49.846,-0c25.855,-0 32.486,7.009 39.983,20.512c10.349,-13.936 24.599,-23.111 44.917,-23.111c20.902,0 35.693,7.706 44.14,20.51c11.797,-14.103 30.786,-20.64 48.162,-20.64c21.354,0 39.187,10.35 48.416,26.353l-0,-23.624l48.026,-0l5.062,12.844l3.77,-12.844l49.588,-0l-0,22.323c-0,-0 -2.861,0.784 -3.651,2.073c-0.769,1.272 -0.633,5.332 -0.633,5.332l6.917,44.126c0.29,1.435 0.801,2.934 2.038,4.033c1.435,1.283 3.373,1.042 3.373,1.042l-0,25.435l-49.846,0l0,-19.213l-28.556,-0l0,19.265l-46.863,-0l0,-12.523c0,-0 -17.126,15.064 -39.2,15.064c-28.251,0 -47.126,-20.767 -47.126,-20.767l0,18.172l-33.225,-0c-29.573,-0 -54.96,-16.182 -62.051,-45.694c-3.362,3.215 -18.185,13.798 -35.961,17.784c-1.383,0.312 -2.073,0.828 -2.073,2.328c-0,2.733 5.84,3.708 5.84,3.708l0,21.871l-182.249,-0c-33.755,0.005 -60.872,-23.1 -60.872,-52.436c0,-29.338 21.141,-54.265 56.187,-54.265c33.495,0 46.738,25.709 46.738,25.709Z" style="fill:#fff;"/><path id="path9" d="M98.719,35.46l-14.664,15.376c-0,-0 -0.78,0.392 -1.426,0.392c-0.653,-0 -1.565,-0.652 -1.565,-0.652l-1.813,-1.551c-0,-0 -0.522,-0.127 -0.522,-0.652c-0,-0.512 1.429,-1.819 1.429,-4.285c-0,-2.468 -0.517,-12.723 -16.353,-12.723c-15.836,0 -22.845,14.799 -22.845,27.003c-0,12.203 7.524,34.529 32.196,34.529c14.347,0 17.386,-8.054 17.386,-8.054l4.932,-0l-0,21.034l-26.998,0c-32.191,0 -50.107,-25.189 -50.107,-43.36c-0,-27.864 24.228,-43.326 46.213,-43.326c21.289,0.003 34.137,16.269 34.137,16.269Z" style="fill:#fff;"/><path id="path11" d="M144.158,21.505l22.196,0l27.002,70.618c0.774,1.941 2.074,3.77 3.37,5.318c1.294,1.559 4.411,2.604 4.411,2.604l0,6.092l-32.572,0l-0,-6.23c-0,-0 2.07,0.268 3.112,-1.554c1.037,-1.818 1.037,-3.245 0.263,-5.061c-0.78,-1.821 -6.244,-16.225 -6.244,-16.225l-26.605,-0c0,-0 -5.448,14.536 -5.973,15.833c-0.52,1.296 -0.52,3.377 0,4.671c0.863,2.16 3.897,2.477 3.897,2.477l0,6.092l-26.095,-0l-0,-6.092c-0,-0 2.373,-0.818 4.154,-2.604c1.946,-1.946 2.593,-4.027 2.593,-4.027l26.491,-71.912Zm-0.655,42.316l17.14,0l-8.826,-24.661l-8.314,24.661Z" style="fill:#fff;"/><path id="path13" d="M211.522,21.505l41.542,0c15.319,0 30.632,5.446 30.632,23.1c0,17.655 -11.164,23.89 -20.767,28.305c-11.088,5.093 -25.701,9.088 -25.701,9.088l0,13.495c0,-0 0.13,0.912 1.427,2.46c1.302,1.559 2.728,1.951 2.728,1.951l-0,6.23l-30.118,0l0,-6.092c0,0 1.816,-0.395 3.121,-1.691c1.293,-1.3 1.559,-2.858 1.559,-2.858l-0,-61.01c-0,-0 0.119,-2.598 -0.912,-3.632c-1.037,-1.048 -3.508,-2.468 -3.508,-2.468l-0,-6.878l-0.003,0Zm25.964,12.718l-0,36.086c-0,-0 24.401,-10.123 24.401,-24.402c0,-17.654 -24.401,-11.684 -24.401,-11.684Z" style="fill:#fff;"/><path id="path15" d="M373.66,35.609l-14.669,15.375c-0,0 -0.78,0.39 -1.429,0.39c-0.645,0 -1.554,-0.649 -1.554,-0.649l-1.821,-1.562c-0,-0 -0.517,-0.122 -0.517,-0.639c-0,-0.522 1.423,-1.829 1.423,-4.284c0,-2.471 -0.511,-12.726 -16.352,-12.726c-15.841,-0 -22.849,14.794 -22.849,27c0,12.195 7.53,34.529 32.2,34.529c14.347,0 17.389,-8.052 17.389,-8.052l4.936,0l0,21.03l-27.008,-0c-32.188,-0 -50.108,-25.181 -50.108,-43.355c0,-27.861 24.226,-43.329 46.214,-43.329c21.292,0 34.145,16.272 34.145,16.272Z" style="fill:#fff;"/><path id="path17" d="M426.236,108.573c-28.045,-0 -48.2,-20.477 -48.2,-45.396c0,-24.935 20.678,-44.246 48.2,-44.246c27.511,0 48.189,19.311 48.189,44.246c-0,24.916 -20.158,45.396 -48.189,45.396Zm-24.932,-45.012c-0,24.924 12.723,31.155 24.932,31.155c12.193,-0 25.181,-7.789 25.181,-31.155c0,-23.362 -14.539,-31.154 -25.181,-31.154c-10.647,0 -24.932,6.225 -24.932,31.154Z" style="fill:#fff;"/><path id="path19" d="M486.978,21.559l30.899,0l11.165,34.476l11.938,-34.53l32.318,0l0,5.059c0,-0 -2.149,0.909 -3.104,2.078c-1.169,1.429 -1.169,2.466 -0.912,4.55c0.26,2.07 8.566,58.411 8.828,60.49c0.263,2.078 0.517,3.245 1.037,4.674c0.514,1.415 2.988,2.59 2.988,2.59l-0,5.237l-31.03,0l0,-5.624c0,0 2.725,-0.387 3.64,-1.691c0.91,-1.3 1.294,-2.079 1.037,-4.152c-0.26,-2.076 -7.654,-49.329 -7.654,-49.329l-13.503,41.799l-16.355,0l-13.376,-39.209l-6.747,46.216c0,0 -0.262,2.775 0.78,4.288c1.426,2.078 4.03,2.078 4.03,2.078l-0,5.578l-26.881,0l-0,-5.962c-0,-0 2.141,-0.33 3.697,-2.152c1.556,-1.811 1.819,-4.154 1.819,-4.154l9.805,-60.945c0,0 0.588,-2.276 -0.065,-3.31c-0.684,-1.093 -4.352,-2.011 -4.352,-2.011l0,-6.044l-0.002,0Z" style="fill:#fff;"/></g><g><path d="M107.738,144.617l2.636,0c3.872,0 7.153,1.506 7.153,5.863c-0,4.356 -3.389,5.593 -7.153,5.593l-2.636,-0l0,-11.456Zm-7.529,31.624l7.529,0l0,-14.252l3.173,0c8.068,0 14.468,-3.173 14.468,-11.94c-0,-8.981 -7.476,-11.348 -15.651,-11.348l-9.519,0l-0,37.54Z" style="fill:#fff;fill-rule:nonzero;"/><path d="M128.922,176.241l22.104,0l0,-5.916l-14.575,0l0,-31.624l-7.529,0l-0,37.54Z" style="fill:#fff;fill-rule:nonzero;"/><path d="M177.978,161.72l-10.972,0l5.432,-15.489l0.108,-0l5.432,15.489Zm-24.202,14.521l7.798,0l3.281,-8.605l15.22,0l3.227,8.605l8.336,0l-14.736,-37.54l-8.498,0l-14.628,37.54Z" style="fill:#fff;fill-rule:nonzero;"/><path d="M195.652,176.241l7.529,0l0,-14.844l13.446,-22.696l-7.96,0l-9.035,15.759l-8.874,-15.759l-8.82,0l13.714,22.696l-0,14.844Z" style="fill:#fff;fill-rule:nonzero;"/><path d="M253.723,139.401c-2.743,-0.915 -5.754,-1.345 -8.981,-1.345c-6.616,-0 -13.123,3.066 -13.123,11.456c-0,12.423 16.457,9.465 16.457,16.618c0,3.389 -3.818,4.841 -6.669,4.841c-2.958,-0 -5.916,-0.915 -8.497,-2.313l-0.7,6.777c3.711,0.914 5.54,1.452 9.627,1.452c7.584,-0 14.091,-3.12 14.091,-11.348c0,-12.585 -16.457,-9.842 -16.457,-16.35c0,-4.088 3.335,-5.217 5.916,-5.217c2.635,0 5.271,0.592 7.637,1.613l0.699,-6.184Z" style="fill:#fff;fill-rule:nonzero;"/><path d="M270.873,176.241l7.53,0l-0,-14.844l13.445,-22.696l-7.96,0l-9.035,15.759l-8.874,-15.759l-8.82,0l13.714,22.696l0,14.844Z" style="fill:#fff;fill-rule:nonzero;"/><path d="M313.993,139.401c-2.743,-0.915 -5.755,-1.345 -8.982,-1.345c-6.615,-0 -13.122,3.066 -13.122,11.456c-0,12.423 16.457,9.465 16.457,16.618c-0,3.389 -3.819,4.841 -6.669,4.841c-2.958,-0 -5.916,-0.915 -8.498,-2.313l-0.699,6.777c3.711,0.914 5.54,1.452 9.627,1.452c7.583,-0 14.091,-3.12 14.091,-11.348c0,-12.585 -16.457,-9.842 -16.457,-16.35c-0,-4.088 3.334,-5.217 5.916,-5.217c2.635,0 5.27,0.592 7.637,1.613l0.699,-6.184Z" style="fill:#fff;fill-rule:nonzero;"/><path d="M328.023,176.241l7.53,0l-0,-31.624l10.756,0l0,-5.916l-29.042,0l0,5.916l10.756,0l0,31.624Z" style="fill:#fff;fill-rule:nonzero;"/><path d="M349.261,176.241l22.266,0l-0,-5.916l-14.737,0l0,-10.541l13.392,-0l-0,-5.916l-13.392,-0l0,-9.251l14.629,0l-0,-5.916l-22.158,0l-0,37.54Z" style="fill:#fff;fill-rule:nonzero;"/><path d="M375.493,176.241l7.207,0l-0,-30.871l0.107,-0.107l10.111,30.978l7.207,0l10.111,-30.978l0.108,-0l-0,30.978l7.207,0l-0,-37.54l-12.048,0l-8.927,28.451l-0.108,0l-8.928,-28.451l-12.047,0l0,37.54Z" style="fill:#fff;fill-rule:nonzero;"/><path d="M459.18,176.241l-20.667,0l-0,-2.048c0.473,-0.035 1.168,-0.088 2.088,-0.158c0.919,-0.07 1.553,-0.175 1.903,-0.315c0.648,-0.262 1.09,-0.608 1.327,-1.037c0.236,-0.429 0.354,-0.976 0.354,-1.641l0,-26.419c0,-0.595 -0.114,-1.12 -0.341,-1.575c-0.228,-0.456 -0.674,-0.823 -1.34,-1.103c-0.42,-0.175 -1.041,-0.355 -1.864,-0.539c-0.823,-0.183 -1.532,-0.31 -2.127,-0.38l-0,-2.049l20.667,0l0,2.049c-0.525,0.052 -1.182,0.126 -1.969,0.223c-0.788,0.096 -1.454,0.232 -1.996,0.407c-0.683,0.227 -1.138,0.582 -1.366,1.063c-0.227,0.482 -0.341,1.029 -0.341,1.642l-0,26.392c-0,0.63 0.118,1.168 0.354,1.615c0.237,0.446 0.687,0.81 1.353,1.09c0.367,0.157 0.976,0.31 1.825,0.459c0.849,0.149 1.562,0.241 2.14,0.276l0,2.048Z" style="fill:#fff;fill-rule:nonzero;"/><path d="M479.486,176.241l-20.668,0l0,-2.048c0.473,-0.035 1.169,-0.088 2.088,-0.158c0.919,-0.07 1.554,-0.175 1.904,-0.315c0.648,-0.262 1.09,-0.608 1.326,-1.037c0.237,-0.429 0.355,-0.976 0.355,-1.641l-0,-26.419c-0,-0.595 -0.114,-1.12 -0.342,-1.575c-0.227,-0.456 -0.674,-0.823 -1.339,-1.103c-0.42,-0.175 -1.042,-0.355 -1.864,-0.539c-0.823,-0.183 -1.532,-0.31 -2.128,-0.38l0,-2.049l20.668,0l-0,2.049c-0.526,0.052 -1.182,0.126 -1.97,0.223c-0.788,0.096 -1.453,0.232 -1.996,0.407c-0.682,0.227 -1.138,0.582 -1.365,1.063c-0.228,0.482 -0.342,1.029 -0.342,1.642l0,26.392c0,0.63 0.119,1.168 0.355,1.615c0.236,0.446 0.687,0.81 1.352,1.09c0.368,0.157 0.976,0.31 1.825,0.459c0.85,0.149 1.563,0.241 2.141,0.276l-0,2.048Z" style="fill:#fff;fill-rule:nonzero;"/><path d="M499.791,176.241l-20.667,0l0,-2.048c0.473,-0.035 1.169,-0.088 2.088,-0.158c0.919,-0.07 1.554,-0.175 1.904,-0.315c0.647,-0.262 1.089,-0.608 1.326,-1.037c0.236,-0.429 0.354,-0.976 0.354,-1.641l0,-26.419c0,-0.595 -0.113,-1.12 -0.341,-1.575c-0.228,-0.456 -0.674,-0.823 -1.339,-1.103c-0.421,-0.175 -1.042,-0.355 -1.865,-0.539c-0.823,-0.183 -1.532,-0.31 -2.127,-0.38l0,-2.049l20.667,0l0,2.049c-0.525,0.052 -1.181,0.126 -1.969,0.223c-0.788,0.096 -1.453,0.232 -1.996,0.407c-0.683,0.227 -1.138,0.582 -1.366,1.063c-0.227,0.482 -0.341,1.029 -0.341,1.642l-0,26.392c-0,0.63 0.118,1.168 0.354,1.615c0.237,0.446 0.688,0.81 1.353,1.09c0.368,0.157 0.976,0.31 1.825,0.459c0.849,0.149 1.563,0.241 2.14,0.276l0,2.048Z" style="fill:#fff;fill-rule:nonzero;"/></g></g></svg>