<svg clip-rule="evenodd" fill-rule="evenodd" stroke-linejoin="round" stroke-miterlimit="2" viewBox="0 0 600 115" xmlns="http://www.w3.org/2000/svg"><path d="m106.075 27.889-28.367 29.963-18.736-12.845s6.164-5.882.541-10.167c-4.385-3.341-16.686 3.746-16.153 17.662.625 16.053 10.544 25.146 21.5 25.146 10.176 0 12.848-8.203 12.848-8.203h22.797v18.914l32.049-84.553h36.66l29.436 75.995s2.139 4.006 4.279 5.077c0 0 .123-49.851.123-51.251 0-1.395-.185-2.937-1.058-3.939-1.436-1.654-3.882-2.34-3.882-2.34v-23.542h51.371c26.646 0 33.48 7.225 41.206 21.141 10.667-14.363 25.352-23.818 46.292-23.818 21.542 0 36.785 7.941 45.491 21.137 12.159-14.535 31.728-21.271 49.636-21.271 22.008 0 40.386 10.666 49.898 27.159v-24.348h49.497l5.216 13.238 3.885-13.238h51.106v23.007s-2.948.809-3.763 2.136c-.792 1.311-.652 5.495-.652 5.495l7.129 45.477c.299 1.479.826 3.024 2.101 4.156 1.478 1.323 3.475 1.074 3.475 1.074v26.214h-51.371v-19.801h-29.43v19.854h-48.297v-12.906s-17.651 15.526-40.401 15.526c-29.115 0-48.567-21.403-48.567-21.403v18.728h-34.242c-30.479 0-56.643-16.678-63.951-47.093-3.464 3.314-18.741 14.22-37.062 18.329-1.425.321-2.136.854-2.136 2.399 0 2.817 6.019 3.821 6.019 3.821v22.541h-187.827c-34.789.005-62.735-23.807-62.735-54.041 0-30.236 21.787-55.925 57.906-55.925 34.521 0 48.169 26.495 48.169 26.495zm324.025 75.82c-28.903 0-49.675-21.104-49.675-46.786 0-25.698 21.31-45.599 49.675-45.599 28.353 0 49.663 19.901 49.663 45.599 0 25.679-20.774 46.786-49.663 46.786zm151.563-84.52s-2.215.938-3.199 2.143c-1.205 1.472-1.205 2.541-.94 4.688.267 2.134 8.828 60.2 9.098 62.342.271 2.142.533 3.344 1.069 4.817.53 1.459 3.079 2.669 3.079 2.669v5.398h-31.979v-5.796s2.808-.399 3.751-1.744c.937-1.339 1.333-2.142 1.068-4.279-.267-2.139-7.888-50.838-7.888-50.838l-13.916 43.078h-16.856l-13.784-40.408-6.954 47.63s-.271 2.859.803 4.418c1.47 2.143 4.154 2.143 4.154 2.143v5.748h-27.704v-6.145s2.206-.34 3.81-2.217c1.604-1.866 1.875-4.282 1.875-4.282l10.105-62.81s.606-2.345-.067-3.411c-.705-1.127-4.485-2.072-4.485-2.072v-6.229h31.843l11.506 35.53 12.304-35.586h33.307v5.213zm-442.275-5.213h22.875l27.829 72.779c.798 2 2.137 3.886 3.473 5.481 1.333 1.607 4.547 2.684 4.547 2.684v6.278h-33.57v-6.421s2.134.276 3.208-1.601c1.068-1.874 1.068-3.344.27-5.216-.803-1.877-6.435-16.722-6.435-16.722h-27.419s-5.614 14.982-6.156 16.318c-.535 1.336-.535 3.481 0 4.814.89 2.226 4.017 2.552 4.017 2.552v6.279h-26.895v-6.279s2.447-.842 4.282-2.683c2.005-2.006 2.672-4.15 2.672-4.15zm112.425 0c15.725.044 31.384 5.683 31.384 23.807 0 18.195-11.506 24.621-21.402 29.171-11.428 5.249-26.488 9.366-26.488 9.366v13.908s.134.94 1.47 2.535c1.342 1.607 2.812 2.012 2.812 2.012v6.421h-31.04v-6.279s1.872-.407 3.216-1.744c1.334-1.338 1.607-2.945 1.607-2.945v-62.877s.123-2.678-.94-3.743c-1.068-1.08-3.615-2.544-3.615-2.544v-7.088h42.811zm124.101 14.535-15.118 15.847s-.803.401-1.473.401c-.664 0-1.601-.669-1.601-.669l-1.877-1.61s-.533-.125-.533-.658c0-.538 1.467-1.886 1.467-4.415 0-2.547-.527-13.116-16.853-13.116s-23.547 15.247-23.547 27.826c0 12.569 7.76 35.587 33.184 35.587 14.787 0 17.922-8.299 17.922-8.299h5.088v21.673h-27.835c-33.173 0-51.642-25.951-51.642-44.682 0-28.713 24.968-44.654 47.628-44.654 21.944 0 35.19 16.769 35.19 16.769zm-283.356-.153-15.112 15.846s-.804.405-1.47.405c-.673 0-1.613-.673-1.613-.673l-1.869-1.598s-.538-.131-.538-.672c0-.527 1.473-1.875 1.473-4.416 0-2.544-.533-13.112-16.853-13.112s-23.545 15.252-23.545 27.829 7.754 35.586 33.182 35.586c14.786 0 17.919-8.301 17.919-8.301h5.082v21.679h-27.824c-33.176 0-51.641-25.961-51.641-44.688 0-28.716 24.97-44.652 47.627-44.652 21.941.003 35.182 16.767 35.182 16.767zm311.846 28.961c0 25.687 13.113 32.108 25.696 32.108 12.565 0 25.951-8.027 25.951-32.108 0-24.077-14.984-32.107-25.951-32.107-10.974 0-25.696 6.415-25.696 32.107zm-168.832-30.236v37.19s25.149-10.432 25.149-25.148c0-18.195-25.149-12.042-25.149-12.042zm-96.859 30.504h17.665l-9.096-25.416z" fill="#fff"/></svg>