<svg clip-rule="evenodd" fill-rule="evenodd" stroke-linejoin="round" stroke-miterlimit="2" viewBox="0 0 600 177" xmlns="http://www.w3.org/2000/svg"><g fill="#fff"><path d="m192.228 36.359-13.026-33.631h-47.826l-11.084 29.241-.537-1.044s-15.343-30.538-54.659-30.538c-40.699 0-65.096 29.104-65.096 63.174 0 33.926 30.746 61.352 69.782 61.345h191.158v-31.306c7.211-2.643 13.632-5.997 18.681-9.085 11.446 26.077 37.145 40.394 66.654 40.394h42.135v-8.799c9.362 5.768 22.519 11.394 38.216 11.394 11.791 0 22.358-3.73 30.291-7.727v5.186h64.682v-19.265h10.737v19.214h67.664v-44.431l-5.971.743-6.164-39.32 4.091-1.149v-38.027h-124.264v9.652c-10.73-7.807-24.333-12.38-39.507-12.38-16.514 0-34.236 5.315-47.498 16.367-10.249-10.147-25.158-16.237-44.804-16.237-18.612 0-32.849 6.605-43.921 17.35-2.726-3.328-5.788-6.087-9.574-8.322-6.824-4.029-16.265-6.43-31.405-6.43h-58.755zm-80.394-1.354-27.525 29.073-18.179-12.463s5.981-5.708.525-9.865c-4.255-3.243-16.19 3.635-15.673 17.137.606 15.576 10.23 24.399 20.861 24.399 9.874 0 12.466-7.959 12.466-7.959h22.12v18.352l31.098-82.041h35.571l28.562 73.738s2.076 3.886 4.152 4.926c0 0 .119-48.371.119-49.729 0-1.354-.179-2.85-1.026-3.822-1.394-1.605-3.768-2.271-3.768-2.271v-22.842h49.846c25.855 0 32.486 7.009 39.983 20.512 10.349-13.936 24.599-23.111 44.917-23.111 20.902 0 35.693 7.706 44.14 20.51 11.797-14.103 30.786-20.64 48.162-20.64 21.354 0 39.187 10.35 48.416 26.353v-23.624h48.026l5.062 12.844 3.77-12.844h49.588v22.323s-2.861.784-3.651 2.073c-.769 1.272-.633 5.332-.633 5.332l6.917 44.126c.29 1.435.801 2.934 2.038 4.033 1.435 1.283 3.373 1.042 3.373 1.042v25.435h-49.846v-19.213h-28.556v19.265h-46.863v-12.523s-17.126 15.064-39.2 15.064c-28.251 0-47.126-20.767-47.126-20.767v18.172h-33.225c-29.573 0-54.96-16.182-62.051-45.694-3.362 3.215-18.185 13.798-35.961 17.784-1.383.312-2.073.828-2.073 2.328 0 2.733 5.84 3.708 5.84 3.708v21.871h-182.249c-33.755.005-60.872-23.1-60.872-52.436 0-29.338 21.141-54.265 56.187-54.265 33.495 0 46.738 25.709 46.738 25.709z"/><path d="m98.719 35.46-14.664 15.376s-.78.392-1.426.392c-.653 0-1.565-.652-1.565-.652l-1.813-1.551s-.522-.127-.522-.652c0-.512 1.429-1.819 1.429-4.285 0-2.468-.517-12.723-16.353-12.723s-22.845 14.799-22.845 27.003c0 12.203 7.524 34.529 32.196 34.529 14.347 0 17.386-8.054 17.386-8.054h4.932v21.034h-26.998c-32.191 0-50.107-25.189-50.107-43.36 0-27.864 24.228-43.326 46.213-43.326 21.289.003 34.137 16.269 34.137 16.269z"/><path d="m144.158 21.505h22.196l27.002 70.618c.774 1.941 2.074 3.77 3.37 5.318 1.294 1.559 4.411 2.604 4.411 2.604v6.092h-32.572v-6.23s2.07.268 3.112-1.554c1.037-1.818 1.037-3.245.263-5.061-.78-1.821-6.244-16.225-6.244-16.225h-26.605s-5.448 14.536-5.973 15.833c-.52 1.296-.52 3.377 0 4.671.863 2.16 3.897 2.477 3.897 2.477v6.092h-26.095v-6.092s2.373-.818 4.154-2.604c1.946-1.946 2.593-4.027 2.593-4.027l26.491-71.912zm-.655 42.316h17.14l-8.826-24.661z"/><path d="m211.522 21.505h41.542c15.319 0 30.632 5.446 30.632 23.1 0 17.655-11.164 23.89-20.767 28.305-11.088 5.093-25.701 9.088-25.701 9.088v13.495s.13.912 1.427 2.46c1.302 1.559 2.728 1.951 2.728 1.951v6.23h-30.118v-6.092s1.816-.395 3.121-1.691c1.293-1.3 1.559-2.858 1.559-2.858v-61.01s.119-2.598-.912-3.632c-1.037-1.048-3.508-2.468-3.508-2.468v-6.878h-.003zm25.964 12.718v36.086s24.401-10.123 24.401-24.402c0-17.654-24.401-11.684-24.401-11.684z"/><path d="m373.66 35.609-14.669 15.375s-.78.39-1.429.39c-.645 0-1.554-.649-1.554-.649l-1.821-1.562s-.517-.122-.517-.639c0-.522 1.423-1.829 1.423-4.284 0-2.471-.511-12.726-16.352-12.726s-22.849 14.794-22.849 27c0 12.195 7.53 34.529 32.2 34.529 14.347 0 17.389-8.052 17.389-8.052h4.936v21.03h-27.008c-32.188 0-50.108-25.181-50.108-43.355 0-27.861 24.226-43.329 46.214-43.329 21.292 0 34.145 16.272 34.145 16.272z"/><path d="m426.236 108.573c-28.045 0-48.2-20.477-48.2-45.396 0-24.935 20.678-44.246 48.2-44.246 27.511 0 48.189 19.311 48.189 44.246 0 24.916-20.158 45.396-48.189 45.396zm-24.932-45.012c0 24.924 12.723 31.155 24.932 31.155 12.193 0 25.181-7.789 25.181-31.155 0-23.362-14.539-31.154-25.181-31.154-10.647 0-24.932 6.225-24.932 31.154z"/><path d="m486.978 21.559h30.899l11.165 34.476 11.938-34.53h32.318v5.059s-2.149.909-3.104 2.078c-1.169 1.429-1.169 2.466-.912 4.55.26 2.07 8.566 58.411 8.828 60.49.263 2.078.517 3.245 1.037 4.674.514 1.415 2.988 2.59 2.988 2.59v5.237h-31.03v-5.624s2.725-.387 3.64-1.691c.91-1.3 1.294-2.079 1.037-4.152-.26-2.076-7.654-49.329-7.654-49.329l-13.503 41.799h-16.355l-13.376-39.209-6.747 46.216s-.262 2.775.78 4.288c1.426 2.078 4.03 2.078 4.03 2.078v5.578h-26.881v-5.962s2.141-.33 3.697-2.152c1.556-1.811 1.819-4.154 1.819-4.154l9.805-60.945s.588-2.276-.065-3.31c-.684-1.093-4.352-2.011-4.352-2.011v-6.044z"/><g fill-rule="nonzero"><path d="m107.738 144.617h2.636c3.872 0 7.153 1.506 7.153 5.863 0 4.356-3.389 5.593-7.153 5.593h-2.636zm-7.529 31.624h7.529v-14.252h3.173c8.068 0 14.468-3.173 14.468-11.94 0-8.981-7.476-11.348-15.651-11.348h-9.519z"/><path d="m128.922 176.241h22.104v-5.916h-14.575v-31.624h-7.529z"/><path d="m177.978 161.72h-10.972l5.432-15.489h.108zm-24.202 14.521h7.798l3.281-8.605h15.22l3.227 8.605h8.336l-14.736-37.54h-8.498z"/><path d="m195.652 176.241h7.529v-14.844l13.446-22.696h-7.96l-9.035 15.759-8.874-15.759h-8.82l13.714 22.696z"/><path d="m253.723 139.401c-2.743-.915-5.754-1.345-8.981-1.345-6.616 0-13.123 3.066-13.123 11.456 0 12.423 16.457 9.465 16.457 16.618 0 3.389-3.818 4.841-6.669 4.841-2.958 0-5.916-.915-8.497-2.313l-.7 6.777c3.711.914 5.54 1.452 9.627 1.452 7.584 0 14.091-3.12 14.091-11.348 0-12.585-16.457-9.842-16.457-16.35 0-4.088 3.335-5.217 5.916-5.217 2.635 0 5.271.592 7.637 1.613z"/><path d="m270.873 176.241h7.53v-14.844l13.445-22.696h-7.96l-9.035 15.759-8.874-15.759h-8.82l13.714 22.696z"/><path d="m313.993 139.401c-2.743-.915-5.755-1.345-8.982-1.345-6.615 0-13.122 3.066-13.122 11.456 0 12.423 16.457 9.465 16.457 16.618 0 3.389-3.819 4.841-6.669 4.841-2.958 0-5.916-.915-8.498-2.313l-.699 6.777c3.711.914 5.54 1.452 9.627 1.452 7.583 0 14.091-3.12 14.091-11.348 0-12.585-16.457-9.842-16.457-16.35 0-4.088 3.334-5.217 5.916-5.217 2.635 0 5.27.592 7.637 1.613z"/><path d="m328.023 176.241h7.53v-31.624h10.756v-5.916h-29.042v5.916h10.756z"/><path d="m349.261 176.241h22.266v-5.916h-14.737v-10.541h13.392v-5.916h-13.392v-9.251h14.629v-5.916h-22.158z"/><path d="m375.493 176.241h7.207v-30.871l.107-.107 10.111 30.978h7.207l10.111-30.978h.108v30.978h7.207v-37.54h-12.048l-8.927 28.451h-.108l-8.928-28.451h-12.047z"/><path d="m459.18 176.241h-20.667v-2.048c.473-.035 1.168-.088 2.088-.158.919-.07 1.553-.175 1.903-.315.648-.262 1.09-.608 1.327-1.037.236-.429.354-.976.354-1.641v-26.419c0-.595-.114-1.12-.341-1.575-.228-.456-.674-.823-1.34-1.103-.42-.175-1.041-.355-1.864-.539-.823-.183-1.532-.31-2.127-.38v-2.049h20.667v2.049c-.525.052-1.182.126-1.969.223-.788.096-1.454.232-1.996.407-.683.227-1.138.582-1.366 1.063-.227.482-.341 1.029-.341 1.642v26.392c0 .63.118 1.168.354 1.615.237.446.687.81 1.353 1.09.367.157.976.31 1.825.459s1.562.241 2.14.276z"/><path d="m479.486 176.241h-20.668v-2.048c.473-.035 1.169-.088 2.088-.158s1.554-.175 1.904-.315c.648-.262 1.09-.608 1.326-1.037.237-.429.355-.976.355-1.641v-26.419c0-.595-.114-1.12-.342-1.575-.227-.456-.674-.823-1.339-1.103-.42-.175-1.042-.355-1.864-.539-.823-.183-1.532-.31-2.128-.38v-2.049h20.668v2.049c-.526.052-1.182.126-1.97.223-.788.096-1.453.232-1.996.407-.682.227-1.138.582-1.365 1.063-.228.482-.342 1.029-.342 1.642v26.392c0 .63.119 1.168.355 1.615.236.446.687.81 1.352 1.09.368.157.976.31 1.825.459.85.149 1.563.241 2.141.276z"/><path d="m499.791 176.241h-20.667v-2.048c.473-.035 1.169-.088 2.088-.158s1.554-.175 1.904-.315c.647-.262 1.089-.608 1.326-1.037.236-.429.354-.976.354-1.641v-26.419c0-.595-.113-1.12-.341-1.575-.228-.456-.674-.823-1.339-1.103-.421-.175-1.042-.355-1.865-.539-.823-.183-1.532-.31-2.127-.38v-2.049h20.667v2.049c-.525.052-1.181.126-1.969.223-.788.096-1.453.232-1.996.407-.683.227-1.138.582-1.366 1.063-.227.482-.341 1.029-.341 1.642v26.392c0 .63.118 1.168.354 1.615.237.446.688.81 1.353 1.09.368.157.976.31 1.825.459s1.563.241 2.14.276z"/></g></g></svg>