<svg clip-rule="evenodd" fill-rule="evenodd" stroke-linejoin="round" stroke-miterlimit="2" viewBox="0 0 600 178" xmlns="http://www.w3.org/2000/svg"><g fill="#fff"><path d="m192.228 36.701-13.026-33.63h-47.826l-11.084 29.241-.537-1.044s-15.343-30.539-54.659-30.539c-40.699 0-65.096 29.105-65.096 63.175 0 33.925 30.746 61.351 69.782 61.345h191.158v-31.306c7.211-2.643 13.632-5.998 18.681-9.086 11.446 26.078 37.145 40.394 66.654 40.394h42.135v-8.799c9.362 5.769 22.519 11.395 38.216 11.395 11.791 0 22.358-3.731 30.291-7.728v5.186h64.682v-19.264h10.737v19.213h67.664v-44.43l-5.971.742-6.164-39.32 4.091-1.149v-38.026h-124.264v9.651c-10.73-7.807-24.333-12.38-39.507-12.38-16.514 0-34.236 5.316-47.498 16.367-10.249-10.146-25.158-16.237-44.804-16.237-18.612 0-32.849 6.605-43.921 17.351-2.726-3.329-5.788-6.087-9.574-8.322-6.824-4.029-16.265-6.43-31.405-6.43h-58.755zm-80.394-1.353-27.525 29.073-18.179-12.464s5.981-5.708.525-9.865c-4.255-3.242-16.19 3.635-15.673 17.138.606 15.576 10.23 24.399 20.861 24.399 9.874 0 12.466-7.96 12.466-7.96h22.12v18.353l31.098-82.042h35.571l28.562 73.738s2.076 3.887 4.152 4.926c0 0 .119-48.37.119-49.729 0-1.353-.179-2.85-1.026-3.822-1.394-1.605-3.768-2.27-3.768-2.27v-22.843h49.846c25.855 0 32.486 7.01 39.983 20.512 10.349-13.935 24.599-23.11 44.917-23.11 20.902 0 35.693 7.705 44.14 20.509 11.797-14.103 30.786-20.639 48.162-20.639 21.354 0 39.187 10.349 48.416 26.353v-23.625h48.026l5.062 12.845 3.77-12.845h49.588v22.323s-2.861.785-3.651 2.073c-.769 1.272-.633 5.332-.633 5.332l6.917 44.126c.29 1.435.801 2.934 2.038 4.033 1.435 1.283 3.373 1.042 3.373 1.042v25.436h-49.846v-19.214h-28.556v19.265h-46.863v-12.523s-17.126 15.064-39.2 15.064c-28.251 0-47.126-20.766-47.126-20.766v18.171h-33.225c-29.573 0-54.96-16.182-62.051-45.694-3.362 3.216-18.185 13.798-35.961 17.785-1.383.311-2.073.828-2.073 2.327 0 2.734 5.84 3.708 5.84 3.708v21.871h-182.249c-33.755.006-60.872-23.1-60.872-52.435 0-29.339 21.141-54.265 56.187-54.265 33.495 0 46.738 25.709 46.738 25.709z"/><path d="m98.719 35.802-14.664 15.376s-.78.392-1.426.392c-.653 0-1.565-.652-1.565-.652l-1.813-1.551s-.522-.127-.522-.652c0-.512 1.429-1.819 1.429-4.284 0-2.469-.517-12.724-16.353-12.724s-22.845 14.8-22.845 27.003c0 12.204 7.524 34.529 32.196 34.529 14.347 0 17.386-8.054 17.386-8.054h4.932v21.035h-26.998c-32.191 0-50.107-25.19-50.107-43.361 0-27.863 24.228-43.325 46.213-43.325 21.289.002 34.137 16.268 34.137 16.268z"/><path d="m144.158 21.848h22.196l27.002 70.617c.774 1.941 2.074 3.77 3.37 5.319 1.294 1.559 4.411 2.603 4.411 2.603v6.093h-32.572v-6.231s2.07.268 3.112-1.553c1.037-1.819 1.037-3.245.263-5.061-.78-1.822-6.244-16.226-6.244-16.226h-26.605s-5.448 14.537-5.973 15.833c-.52 1.297-.52 3.378 0 4.671.863 2.16 3.897 2.477 3.897 2.477v6.092h-26.095v-6.092s2.373-.817 4.154-2.604c1.946-1.946 2.593-4.027 2.593-4.027l26.491-71.911zm-.655 42.316h17.14l-8.826-24.662z"/><path d="m211.522 21.848h41.542c15.319 0 30.632 5.445 30.632 23.1 0 17.654-11.164 23.89-20.767 28.304-11.088 5.094-25.701 9.088-25.701 9.088v13.495s.13.912 1.427 2.46c1.302 1.559 2.728 1.951 2.728 1.951v6.231h-30.118v-6.092s1.816-.396 3.121-1.692c1.293-1.299 1.559-2.858 1.559-2.858v-61.01s.119-2.598-.912-3.632c-1.037-1.047-3.508-2.468-3.508-2.468v-6.877h-.003zm25.964 12.717v36.086s24.401-10.122 24.401-24.402c0-17.654-24.401-11.684-24.401-11.684z"/><path d="m373.66 35.951-14.669 15.376s-.78.389-1.429.389c-.645 0-1.554-.649-1.554-.649l-1.821-1.562s-.517-.121-.517-.638c0-.523 1.423-1.83 1.423-4.285 0-2.471-.511-12.726-16.352-12.726s-22.849 14.794-22.849 27c0 12.196 7.53 34.53 32.2 34.53 14.347 0 17.389-8.052 17.389-8.052h4.936v21.029h-27.008c-32.188 0-50.108-25.181-50.108-43.355 0-27.861 24.226-43.328 46.214-43.328 21.292 0 34.145 16.271 34.145 16.271z"/><path d="m426.236 108.915c-28.045 0-48.2-20.477-48.2-45.396 0-24.934 20.678-44.245 48.2-44.245 27.511 0 48.189 19.311 48.189 44.245 0 24.916-20.158 45.396-48.189 45.396zm-24.932-45.011c0 24.924 12.723 31.154 24.932 31.154 12.193 0 25.181-7.789 25.181-31.154 0-23.363-14.539-31.155-25.181-31.155-10.647 0-24.932 6.225-24.932 31.155z"/><path d="m486.978 21.902h30.899l11.165 34.475 11.938-34.529h32.318v5.058s-2.149.91-3.104 2.079c-1.169 1.429-1.169 2.465-.912 4.549.26 2.071 8.566 58.412 8.828 60.49.263 2.079.517 3.245 1.037 4.674.514 1.416 2.988 2.59 2.988 2.59v5.238h-31.03v-5.625s2.725-.387 3.64-1.691c.91-1.299 1.294-2.079 1.037-4.152-.26-2.076-7.654-49.328-7.654-49.328l-13.503 41.799h-16.355l-13.376-39.209-6.747 46.216s-.262 2.774.78 4.287c1.426 2.078 4.03 2.078 4.03 2.078v5.579h-26.881v-5.963s2.141-.33 3.697-2.152c1.556-1.81 1.819-4.154 1.819-4.154l9.805-60.945s.588-2.276-.065-3.31c-.684-1.093-4.352-2.011-4.352-2.011v-6.043z"/><g fill-rule="nonzero"><path d="m117.891 144.96h2.635c3.873 0 7.153 1.506 7.153 5.862s-3.388 5.593-7.153 5.593h-2.635zm-7.529 31.624h7.529v-14.253h3.173c8.067 0 14.468-3.173 14.468-11.939 0-8.982-7.476-11.348-15.651-11.348h-9.519z"/><path d="m139.075 176.584h22.104v-5.916h-14.575v-31.624h-7.529z"/><path d="m188.13 162.062h-10.971l5.432-15.489h.107zm-24.201 14.522h7.798l3.281-8.605h15.22l3.227 8.605h8.336l-14.736-37.54h-8.498z"/><path d="m205.805 176.584h7.529v-14.844l13.446-22.696h-7.96l-9.035 15.758-8.874-15.758h-8.821l13.715 22.696z"/><path d="m263.876 139.743c-2.743-.914-5.755-1.345-8.982-1.345-6.615 0-13.122 3.066-13.122 11.456 0 12.424 16.457 9.466 16.457 16.619 0 3.388-3.819 4.84-6.669 4.84-2.958 0-5.916-.914-8.498-2.313l-.699 6.777c3.711.914 5.54 1.452 9.627 1.452 7.584 0 14.091-3.119 14.091-11.348 0-12.585-16.457-9.842-16.457-16.35 0-4.087 3.334-5.217 5.916-5.217 2.635 0 5.27.592 7.637 1.614z"/><path d="m281.026 176.584h7.529v-14.844l13.446-22.696h-7.96l-9.035 15.758-8.874-15.758h-8.821l13.715 22.696z"/><path d="m324.146 139.743c-2.743-.914-5.755-1.345-8.982-1.345-6.615 0-13.123 3.066-13.123 11.456 0 12.424 16.458 9.466 16.458 16.619 0 3.388-3.819 4.84-6.669 4.84-2.958 0-5.916-.914-8.498-2.313l-.699 6.777c3.711.914 5.54 1.452 9.627 1.452 7.583 0 14.091-3.119 14.091-11.348 0-12.585-16.457-9.842-16.457-16.35 0-4.087 3.334-5.217 5.916-5.217 2.635 0 5.27.592 7.637 1.614z"/><path d="m338.176 176.584h7.53v-31.624h10.756v-5.916h-29.042v5.916h10.756z"/><path d="m359.414 176.584h22.265v-5.916h-14.736v-10.542h13.392v-5.916h-13.392v-9.25h14.629v-5.916h-22.158z"/><path d="m385.646 176.584h7.207v-30.871l.107-.108 10.111 30.979h7.207l10.111-30.979h.108v30.979h7.206v-37.54h-12.047l-8.928 28.45h-.107l-8.928-28.45h-12.047z"/><path d="m469.333 176.584h-20.667v-2.049c.472-.035 1.168-.087 2.087-.157.92-.07 1.554-.175 1.904-.315.648-.263 1.09-.609 1.326-1.038.237-.429.355-.976.355-1.641v-26.418c0-.596-.114-1.121-.341-1.576-.228-.455-.674-.823-1.34-1.103-.42-.175-1.041-.354-1.864-.538s-1.532-.311-2.127-.381v-2.048h20.667v2.048c-.525.052-1.182.127-1.97.223-.787.096-1.453.232-1.995.407-.683.228-1.138.582-1.366 1.064-.228.481-.341 1.028-.341 1.641v26.392c0 .63.118 1.169.354 1.615.236.447.687.81 1.353 1.09.367.158.976.311 1.825.46.849.148 1.562.24 2.14.275z"/><path d="m489.638 176.584h-20.667v-2.049c.473-.035 1.169-.087 2.088-.157s1.554-.175 1.904-.315c.648-.263 1.09-.609 1.326-1.038s.355-.976.355-1.641v-26.418c0-.596-.114-1.121-.342-1.576-.227-.455-.674-.823-1.339-1.103-.42-.175-1.042-.354-1.865-.538-.822-.184-1.532-.311-2.127-.381v-2.048h20.667v2.048c-.525.052-1.181.127-1.969.223s-1.453.232-1.996.407c-.683.228-1.138.582-1.365 1.064-.228.481-.342 1.028-.342 1.641v26.392c0 .63.118 1.169.355 1.615.236.447.687.81 1.352 1.09.368.158.976.311 1.825.46.849.148 1.563.24 2.14.275z"/></g></g></svg>