<svg clip-rule="evenodd" fill-rule="evenodd" stroke-linejoin="round" stroke-miterlimit="2" viewBox="0 0 600 164" xmlns="http://www.w3.org/2000/svg"><g fill="#fff"><path d="m106.075 27.054-28.367 29.963-18.736-12.845s6.164-5.882.541-10.167c-4.385-3.341-16.686 3.746-16.153 17.662.625 16.053 10.544 25.146 21.5 25.146 10.176 0 12.848-8.203 12.848-8.203h22.797v18.914l32.049-84.553h36.66l29.436 75.995s2.139 4.006 4.279 5.077c0 0 .123-49.851.123-51.251 0-1.395-.185-2.937-1.058-3.939-1.436-1.654-3.882-2.34-3.882-2.34v-23.542h51.371c26.646 0 33.48 7.225 41.206 21.14 10.667-14.362 25.352-23.818 46.292-23.818 21.542 0 36.785 7.942 45.491 21.138 12.159-14.535 31.728-21.271 49.636-21.271 22.008 0 40.386 10.666 49.898 27.159v-24.348h49.497l5.216 13.238 3.885-13.238h51.106v23.006s-2.948.809-3.763 2.137c-.792 1.311-.652 5.495-.652 5.495l7.129 45.477c.299 1.479.826 3.024 2.101 4.156 1.478 1.322 3.475 1.074 3.475 1.074v26.214h-51.371v-19.801h-29.43v19.854h-48.297v-12.906s-17.651 15.525-40.401 15.525c-29.115 0-48.567-21.402-48.567-21.402v18.727h-34.242c-30.479 0-56.643-16.677-63.951-47.092-3.464 3.314-18.741 14.22-37.062 18.329-1.425.321-2.136.853-2.136 2.399 0 2.817 6.019 3.821 6.019 3.821v22.541h-187.827c-34.789.005-62.735-23.807-62.735-54.041 0-30.236 21.787-55.926 57.906-55.926 34.521 0 48.169 26.496 48.169 26.496zm324.025 75.82c-28.903 0-49.675-21.104-49.675-46.786 0-25.698 21.31-45.6 49.675-45.6 28.353 0 49.663 19.902 49.663 45.6 0 25.679-20.774 46.786-49.663 46.786zm151.563-84.52s-2.215.937-3.199 2.142c-1.205 1.473-1.205 2.542-.94 4.689.267 2.134 8.828 60.199 9.098 62.342.271 2.142.533 3.344 1.069 4.817.53 1.459 3.079 2.669 3.079 2.669v5.398h-31.979v-5.797s2.808-.399 3.751-1.743c.937-1.339 1.333-2.142 1.068-4.279-.267-2.139-7.888-50.838-7.888-50.838l-13.916 43.078h-16.856l-13.784-40.409-6.954 47.631s-.271 2.859.803 4.418c1.47 2.142 4.154 2.142 4.154 2.142v5.749h-27.704v-6.145s2.206-.34 3.81-2.217c1.604-1.866 1.875-4.282 1.875-4.282l10.105-62.81s.606-2.346-.067-3.411c-.705-1.127-4.485-2.073-4.485-2.073v-6.228h31.843l11.506 35.53 12.304-35.586h33.307zm-442.275-5.213h22.875l27.829 72.779c.798 2 2.137 3.886 3.473 5.481 1.333 1.607 4.547 2.683 4.547 2.683v6.279h-33.57v-6.421s2.134.276 3.208-1.601c1.068-1.874 1.068-3.344.27-5.216-.803-1.877-6.435-16.722-6.435-16.722h-27.419s-5.614 14.981-6.156 16.318c-.535 1.336-.535 3.481 0 4.814.89 2.226 4.017 2.552 4.017 2.552v6.279h-26.895v-6.279s2.447-.842 4.282-2.683c2.005-2.006 2.672-4.151 2.672-4.151l27.302-74.112zm112.425 0c15.725.044 31.384 5.683 31.384 23.807 0 18.195-11.506 24.621-21.402 29.171-11.428 5.249-26.488 9.366-26.488 9.366v13.908s.134.94 1.47 2.535c1.342 1.607 2.812 2.011 2.812 2.011v6.421h-31.04v-6.278s1.872-.408 3.216-1.744c1.334-1.339 1.607-2.945 1.607-2.945v-62.877s.123-2.678-.94-3.743c-1.068-1.08-3.615-2.544-3.615-2.544v-7.088h42.811zm124.101 14.535-15.118 15.846s-.803.402-1.473.402c-.664 0-1.601-.669-1.601-.669l-1.877-1.61s-.533-.125-.533-.658c0-.538 1.467-1.886 1.467-4.416 0-2.546-.527-13.115-16.853-13.115s-23.547 15.246-23.547 27.826c0 12.569 7.76 35.586 33.184 35.586 14.787 0 17.922-8.298 17.922-8.298h5.088v21.673h-27.835c-33.173 0-51.642-25.952-51.642-44.682 0-28.713 24.968-44.654 47.628-44.654 21.944 0 35.19 16.769 35.19 16.769zm-283.356-.153-15.112 15.846s-.804.404-1.47.404c-.673 0-1.613-.672-1.613-.672l-1.869-1.598s-.538-.131-.538-.672c0-.528 1.473-1.875 1.473-4.416 0-2.544-.533-13.112-16.853-13.112s-23.545 15.252-23.545 27.829 7.754 35.586 33.182 35.586c14.786 0 17.919-8.301 17.919-8.301h5.082v21.678h-27.824c-33.176 0-51.641-25.96-51.641-44.687 0-28.716 24.97-44.652 47.627-44.652 21.941.003 35.182 16.767 35.182 16.767zm311.846 28.961c0 25.687 13.113 32.108 25.696 32.108 12.565 0 25.951-8.027 25.951-32.108 0-24.077-14.984-32.108-25.951-32.108-10.974 0-25.696 6.416-25.696 32.108zm-168.832-30.236v37.19s25.149-10.432 25.149-25.148c0-18.195-25.149-12.042-25.149-12.042zm-96.859 30.504h17.665l-9.096-25.416z"/><g fill-rule="nonzero"><path d="m148.859 131.237h2.635c3.872 0 7.153 1.505 7.153 5.862 0 4.356-3.388 5.593-7.153 5.593h-2.635zm-7.53 31.623h7.53v-14.252h3.173c8.067 0 14.467-3.173 14.467-11.939 0-8.982-7.476-11.348-15.651-11.348h-9.519z"/><path d="m170.042 162.86h22.104v-5.916h-14.574v-31.623h-7.53z"/><path d="m219.098 148.339h-10.972l5.432-15.489h.108zm-24.202 14.521h7.798l3.281-8.605h15.22l3.227 8.605h8.337l-14.737-37.539h-8.497z"/><path d="m236.772 162.86h7.53v-14.843l13.445-22.696h-7.959l-9.036 15.758-8.874-15.758h-8.82l13.714 22.696z"/><path d="m294.844 126.02c-2.743-.915-5.755-1.345-8.982-1.345-6.615 0-13.123 3.066-13.123 11.456 0 12.423 16.457 9.465 16.457 16.618 0 3.389-3.818 4.841-6.669 4.841-2.958 0-5.916-.914-8.497-2.313l-.699 6.777c3.711.914 5.539 1.452 9.627 1.452 7.583 0 14.091-3.12 14.091-11.348 0-12.585-16.458-9.842-16.458-16.35 0-4.087 3.335-5.217 5.916-5.217 2.636 0 5.271.592 7.637 1.614z"/><path d="m311.993 162.86h7.53v-14.843l13.445-22.696h-7.959l-9.036 15.758-8.874-15.758h-8.82l13.714 22.696z"/><path d="m355.113 126.02c-2.743-.915-5.754-1.345-8.981-1.345-6.615 0-13.123 3.066-13.123 11.456 0 12.423 16.457 9.465 16.457 16.618 0 3.389-3.818 4.841-6.669 4.841-2.958 0-5.916-.914-8.497-2.313l-.7 6.777c3.711.914 5.54 1.452 9.627 1.452 7.584 0 14.091-3.12 14.091-11.348 0-12.585-16.457-9.842-16.457-16.35 0-4.087 3.335-5.217 5.916-5.217 2.635 0 5.271.592 7.637 1.614z"/><path d="m369.144 162.86h7.529v-31.623h10.757v-5.916h-29.043v5.916h10.757z"/><path d="m390.381 162.86h22.266v-5.916h-14.736v-10.541h13.391v-5.916h-13.391v-9.25h14.628v-5.916h-22.158z"/><path d="m416.613 162.86h7.207v-30.87l.108-.108 10.111 30.978h7.207l10.111-30.978h.107v30.978h7.207v-37.539h-12.047l-8.928 28.45h-.108l-8.927-28.45h-12.048z"/></g></g></svg>