<?xml version="1.0" encoding="UTF-8" standalone="no"?><!DOCTYPE svg PUBLIC "-//W3C//DTD SVG 1.1//EN" "http://www.w3.org/Graphics/SVG/1.1/DTD/svg11.dtd"><svg width="100%" height="100%" viewBox="0 0 600 153" version="1.1" xmlns="http://www.w3.org/2000/svg" xmlns:xlink="http://www.w3.org/1999/xlink" xml:space="preserve" xmlns:serif="http://www.serif.com/" style="fill-rule:evenodd;clip-rule:evenodd;stroke-linejoin:round;stroke-miterlimit:2;"><g id="cave"><g><path id="path3053" d="M147.62,69.917c-0,-7.761 1.436,-11.55 7.574,-16.589l9.422,-7.751c6.045,-4.831 9.122,-4.948 16.55,-4.948l20.265,0c4.254,0 8.819,0.897 8.819,6.335c-0,5.436 -5.072,6.197 -8.819,6.197l-22.528,0c-2.528,0 -5.059,1.36 -7.354,3.16l-7.709,6.534c-2.004,1.548 -3.45,2.835 -3.45,5.331l0,15.629c0,2.471 1.446,3.843 3.45,5.366l7.709,6.442c2.295,1.857 4.826,3.198 7.354,3.198l22.528,-0c3.747,-0 8.819,0.749 8.819,6.238c-0,5.466 -4.565,6.345 -8.819,6.345l-20.265,-0c-7.428,-0 -10.505,-0.123 -16.55,-4.954l-9.422,-7.79c-6.138,-4.997 -7.574,-8.758 -7.574,-16.541l-0,-12.202Z" style="fill:#fff;fill-rule:nonzero;"/><path id="path3055" d="M297.785,79.717c-3.437,0 -8.57,0.929 -8.57,5.543l0,8.403c0,4.28 5.216,5.158 8.334,5.158l14.076,-0l14.118,-7.32l-0,-2.682c-0,-6.99 -1.999,-9.102 -9.036,-9.102l-18.922,0Zm0.141,-26.556c-3.719,0 -8.778,-0.761 -8.778,-6.197c0,-5.438 4.485,-6.335 8.778,-6.335l17.548,0c6.691,0 11.475,0.614 16.55,5.618c4.931,4.843 5.567,8.642 5.755,14.981l1.302,42.836c0.125,3.676 -1.723,7.34 -5.959,7.34c-3.332,-0 -6.696,-2.792 -6.601,-6.345l-8.729,4.488c-3.636,1.857 -3.76,1.857 -7.89,1.857l-12.263,-0c-5.711,-0 -9.85,-0.671 -14.495,-4.457c-5.339,-4.334 -6.651,-8.919 -6.651,-15.516l-0,-5.501c-0,-6.055 1.493,-9.854 6.23,-14.059c4.466,-3.833 9.333,-4.742 14.916,-4.742l27.449,-0l0,-2.877c0,-9.442 -2.126,-11.091 -11.334,-11.091l-15.828,0Z" style="fill:#fff;fill-rule:nonzero;"/><path id="path3057" d="M458.104,56.321l0,-6.36c0,-4.482 0.798,-9.332 6.508,-9.332c4.565,0 6.269,3.528 6.269,7.598l0,8.919c0,2.096 -0.536,3.175 -1.487,5.139l-19.046,41.257c-1.216,2.606 -3.441,7.862 -6.684,7.862l-8.234,-0c-3.199,-0 -5.474,-5.256 -6.643,-7.862l-19.039,-41.257c-0.992,-1.964 -1.459,-3.043 -1.459,-5.139l0,-8.919c0,-4.07 1.74,-7.598 6.18,-7.598c5.761,0 6.546,4.85 6.546,9.332l0,6.36l18.542,41.927l18.547,-41.927Z" style="fill:#fff;fill-rule:nonzero;"/><path id="path3059" d="M550.243,72.548l36.977,0l-0,-7.707c-0,-2.323 0.14,-4.237 -1.593,-5.832l-4.906,-4.199c-1.602,-1.482 -4.104,-1.649 -6.141,-1.649l-10.842,0c-2.349,0 -4.341,0 -6.457,1.489l-4.443,3.201c-1.542,1.158 -2.595,2.108 -2.595,5.746l-0,8.951Zm10.581,38.856c-5.28,-0 -7.425,-0 -11.427,-3.425l-5.449,-4.72c-5.049,-4.438 -6.53,-7.352 -6.53,-14.157l-0,-24.34c-0,-6.682 0.916,-10.672 6.221,-15.091l4.545,-3.786c6.042,-5.139 8.966,-5.256 14.181,-5.256l11.654,0c6.284,0 9.249,0.614 14.123,4.586l5.197,4.082c5.908,4.554 6.661,9.451 6.661,16.393l-0,10.16c-0,7.15 -1.184,9.306 -8.797,9.306l-40.96,-0l-0,4.204c-0,1.193 0.868,2.704 1.848,3.664l3.211,3.399c1.746,1.825 4.232,2.398 8.436,2.398l27.465,-0c4.328,-0 8.797,0.91 8.797,6.238c-0,5.564 -5.024,6.345 -8.797,6.345l-30.379,-0Z" style="fill:#fff;fill-rule:nonzero;"/></g><path id="path3061" d="M101.457,119.202c-5.095,5.728 -9.552,5.59 -9.737,5.582l-0.02,0.008c-0.015,-0 -0.037,-0.008 -0.037,-0.008l-6.18,-0.137c1.396,-1.043 2.856,-2.365 4.335,-4.016c0.04,-0.062 0.096,-0.136 0.154,-0.197c11.048,-16.066 7.381,-26.881 4.213,-31.908c-0.153,-0.239 -0.325,-0.472 -0.499,-0.682l2.342,0.765c4.861,1.3 8.698,4.679 10.327,9.076c1.581,4.203 1.996,11.378 -4.898,21.517m-24.901,26.517c-1.983,0.303 -4.401,0.627 -6.771,0.888c4.842,-5.521 6.85,-13.831 7.404,-18.078l12.14,0.303c-0.637,4.635 -3.141,15.424 -12.773,16.887m-19.007,2.21c-4.829,-0.375 -17.571,-1.648 -25.163,-2.439l-5.677,-0.554c-2.7,-0.239 -5.318,-3.057 -7.138,-5.653c7.479,0.553 24.999,1.552 28.45,1.513c4.758,-0.148 10.235,-2.492 11.466,-6.791c0.817,-2.784 0.866,-3.149 1.001,-4.758c0.091,-0.867 0.186,-2.211 0.555,-4.965c0.922,-6.709 4.369,-8.021 4.965,-8.196c1.275,-0.076 6.556,-0.682 11.11,-5.341c0.05,-0.076 0.091,-0.147 0.163,-0.209c4.253,-5.521 2.405,-14.147 2.356,-14.521c-0.02,-0.062 -0.734,-4.601 -4.452,-7.115c-2.338,-1.617 -5.218,-2.057 -8.571,-1.379c-1.165,0.241 -2.24,0.649 -3.183,1.116c2.519,-3.178 5.977,-5.152 10.055,-5.745c2.465,-0.335 4.886,-0.126 7.2,0.522c0.17,0.082 0.319,0.166 0.503,0.217l2.13,0.723c2.981,1.334 5.6,3.546 7.348,6.307c2.647,4.183 5.599,13.259 -4.06,27.385c-5.394,6.09 -10.184,6.37 -11.01,6.393l-0.19,-0.023c-0.119,0 -0.192,0.034 -0.306,0.034c-0.017,0 -0.032,0 -0.05,0.021c-0.805,0.125 -1.488,0.718 -1.696,1.489c0,0 0,0.022 -0.015,0.032c-0,0.083 -0.021,0.159 -0.021,0.232c-0.019,0.07 -0.019,0.112 -0.019,0.166c-0.127,2.462 -1.898,13.55 -7.94,18.859c-1.318,1.188 -2.735,1.95 -4.317,2.357c-0.334,0.031 -0.499,0.031 -0.542,0.06c-0.243,0.033 -0.429,0.088 -0.618,0.179c-0.771,0.097 -1.525,0.118 -2.334,0.084m-49.018,-32.253c-4.452,-0.738 -4.4,-6.182 -4.4,-6.384c-0,0.041 2.519,-50.901 2.519,-50.901c-0,-0.254 0.175,-4.864 4.616,-6.304c0.218,-0.07 0.426,-0.155 0.611,-0.335c3.783,-2.881 4.533,-5.808 5.396,-12.317c0.325,-4.393 3.322,-6.419 3.441,-6.481c14.694,-7.978 42.984,-23.288 43.994,-23.802c1.059,-0.524 2.684,-0.99 3.781,-0.49c0.66,0.313 1.164,1.046 1.478,2.137c0.271,5.686 1.477,21.813 1.588,23.568c-0.037,0.802 -0.658,7.936 -7.254,9.584c-1.99,0.524 -3.571,0.415 -4.626,-0.334c-1.643,-1.113 -1.876,-3.43 -1.876,-3.442c-0.015,-0.093 -0.015,-0.146 -0.044,-0.216l-0.855,-4.332c-0.301,-1.525 -1.164,-2.764 -2.464,-3.539c-2.882,-1.739 -7.073,-0.656 -7.558,-0.54c-0.135,0.043 -0.242,0.092 -0.356,0.155c-0.134,0.054 -12.162,6.065 -16.985,8.379c-5.75,2.741 -5.233,10.891 -5.211,11.232c-0,-0.135 -0.317,56.976 -0.317,56.976c0,0.536 0.073,5.061 2.798,7.72c1.236,1.181 2.89,1.805 4.716,1.754c5.577,-0.126 17.517,-0.963 18.012,-0.981c0.148,-0.023 0.257,-0.03 0.383,-0.052c0.359,-0.116 8.947,-2.41 9.569,-9.568c0.353,-3.846 0.85,-7.849 0.866,-7.882c0.022,-0.158 1.375,-6.564 7.08,-7.764c2.22,-0.438 4.011,-0.219 5.338,0.71c2.259,1.542 2.772,4.52 2.772,4.54c0.031,0.208 1.518,7.207 -1.488,11.233c-3.861,3.871 -8.18,3.996 -8.359,3.996c-0.116,0 -0.233,0.029 -0.336,0.051c-0.293,0.06 -7.026,1.323 -8.423,11.694c-0.368,2.857 -0.497,4.258 -0.572,5.176c-0.113,1.334 -0.113,1.417 -0.871,3.973c-0.614,2.188 -4.414,3.742 -7.59,3.795c-3.625,0.082 -25.292,-1.179 -30.484,-1.657c-2.027,-0.201 -2.837,-4.965 -2.837,-7.587c0.248,-1.186 0.969,-5.576 -1.201,-8.749c-1.092,-1.616 -2.777,-2.648 -4.851,-3.016m71.303,-110.684c1.716,0.792 4.695,2.939 5.609,7.958c0.378,7.878 1.636,23.114 1.654,23.241c0.026,0.575 0.621,14.988 -16.222,20.478c-2.292,0.759 -4.362,0.792 -6.238,0.144c-0.492,-0.239 -0.789,-0.375 -0.789,-0.375c-0.117,-0.061 -0.209,-0.084 -0.341,-0.125c-0.053,-0.02 -0.114,-0.052 -0.17,-0.075c-4.092,-2.261 -6.228,-7.56 -7.066,-10.117c0.298,0.284 0.629,0.553 0.986,0.812c2.132,1.494 4.844,1.829 8.081,0.973c7.912,-2.024 10.236,-9.715 10.366,-13.51l0,-0.176c-0.017,-0.208 -1.347,-18.295 -1.618,-23.859c0,-0.153 -0.014,-0.291 -0.051,-0.404c-0.606,-2.211 -1.62,-3.496 -2.649,-4.289l1.826,-0.968c1.778,-0.9 4.389,-0.838 6.622,0.292m20.565,20.995c0.344,6.989 1.415,20.303 1.415,20.427c0.041,0.489 0.542,13.133 -14.264,18.036c-2.198,0.731 -7.352,-0.336 -8.589,-1.001c-0.036,-0.021 -3.139,-1.441 -6.495,-3.016c19.629,-6.593 18.765,-24.354 18.765,-24.513c-0.015,-0.211 -1.203,-14.605 -1.619,-22.543l6.171,5.703c2.047,1.713 4.016,3.562 4.616,6.907m-58.911,78.456l-0.193,-50.214l11.668,4.672l1.358,44.216l-12.833,1.326Zm13.583,-49.102l-10.426,-4.162l7.867,-3.23c0.656,1.854 1.809,4.575 3.613,7.07l-1.054,0.322Zm-6.046,57.386c-1.646,0.112 -12.522,0.821 -17.6,0.959c-0.731,0.029 -1.273,-0.17 -1.728,-0.606c-1.279,-1.209 -1.564,-3.901 -1.564,-4.747l0.3,-57.131c0,-0.229 -0.256,-5.926 2.92,-7.448c4.489,-2.127 15.203,-7.49 16.8,-8.305c1.02,-0.239 3.121,-0.489 4.118,0.125c0.226,0.135 0.449,0.346 0.564,0.855l0.846,4.226c0.015,0.377 0.191,1.378 0.68,2.557c-0.434,-0.117 -0.915,-0.117 -1.325,0.085l-14.633,5.985c-0.147,0.092 -0.32,0.19 -0.474,0.3c-0.036,0.022 -0.056,0.043 -0.091,0.085c-0.129,0.116 -0.24,0.228 -0.357,0.386l-0,0.011c-0.082,0.104 -0.138,0.228 -0.216,0.344c-0.014,0.071 -0.014,0.116 -0.033,0.125c-0.017,0.043 -0.017,0.086 -0.038,0.135c-0.036,0.159 -0.052,0.334 -0.052,0.511c0,0.023 -0.019,0.023 -0.019,0.023l0,0.022l0.239,55.479c-0,0.586 0.253,1.12 0.701,1.526c0.428,0.366 0.993,0.562 1.597,0.514l15.652,-1.619c-0.561,3.692 -5.354,5.32 -6.287,5.603m61.192,-16.484c-2.106,-5.61 -6.94,-9.931 -13.011,-11.549c0.11,0.033 -8.514,-2.859 -12.608,-4.222c-3.615,-1.556 -7.683,-2.182 -11.694,-1.598c-6.537,0.887 -11.762,4.674 -14.872,10.527l-0.906,-30.417l2.057,-0.668c0.657,0.55 1.361,1.028 2.103,1.468c0.549,0.324 1.131,0.557 1.719,0.794l14.096,6.542c1.99,1.064 8.322,2.325 11.746,1.157c17.912,-5.864 17.114,-21.978 17.098,-22.136c0,-0.188 -1.109,-13.643 -1.412,-20.558c-0.009,-0.065 -0.009,-0.179 -0.03,-0.243c-0.811,-4.496 -3.337,-7.122 -5.957,-9.305c0.049,0.096 -13.855,-12.818 -13.855,-12.818c-0.115,-0.074 -0.222,-0.124 -0.372,-0.201c-0.796,-0.645 -1.679,-1.239 -2.632,-1.698c-3.447,-1.68 -7.423,-1.751 -10.418,-0.229c-0,0 -48.246,25.972 -52.677,28.373c-0.303,0.179 -4.966,3.173 -5.411,9.576c-0.855,6.03 -1.417,7.585 -3.63,9.316c-6.824,2.535 -7.045,9.586 -7.045,9.931c0,-0.084 -2.502,50.854 -2.502,50.854c-0.089,3.2 1.406,9.49 7.835,10.583c0.957,0.159 1.639,0.537 2.107,1.232c1.159,1.7 0.789,4.768 0.546,5.796c-0.016,0.142 -0.041,0.294 -0.041,0.414c-0.019,0.929 0,7.601 3.405,10.575c0.581,1.234 5.412,10.626 12.457,11.273l5.664,0.556c7.611,0.772 20.366,2.066 25.26,2.423c1.607,0.112 3.138,-0 4.584,-0.357c2.575,-0.272 10.334,-1.148 15.347,-1.876c12.878,-1.943 15.734,-16.022 16.358,-21.05c2.418,-0.461 6.725,-1.935 11.107,-6.926c0.093,-0.087 0.128,-0.159 0.167,-0.211c7.997,-11.599 7.368,-20.164 5.417,-25.328" style="fill:#fff;fill-rule:nonzero;"/></g></svg>