<?xml version="1.0" encoding="UTF-8" standalone="no"?><!DOCTYPE svg PUBLIC "-//W3C//DTD SVG 1.1//EN" "http://www.w3.org/Graphics/SVG/1.1/DTD/svg11.dtd"><svg width="100%" height="100%" viewBox="0 0 600 660" version="1.1" xmlns="http://www.w3.org/2000/svg" xmlns:xlink="http://www.w3.org/1999/xlink" xml:space="preserve" xmlns:serif="http://www.serif.com/" style="fill-rule:evenodd;clip-rule:evenodd;stroke-linejoin:round;stroke-miterlimit:2;"><g id="cave_tall"><path id="path3053" d="M-0,604.147c-0,-10.294 1.905,-15.32 10.046,-22.003l12.497,-10.281c8.018,-6.407 12.099,-6.562 21.95,-6.562l26.877,0c5.643,0 11.697,1.19 11.697,8.403c0,7.209 -6.727,8.219 -11.697,8.219l-29.879,0c-3.353,0 -6.71,1.803 -9.753,4.191l-10.224,8.666c-2.659,2.053 -4.576,3.761 -4.576,7.071l-0,20.729c-0,3.277 1.917,5.096 4.576,7.117l10.224,8.544c3.043,2.463 6.4,4.241 9.753,4.241l29.879,0c4.97,0 11.697,0.994 11.697,8.274c0,7.25 -6.054,8.415 -11.697,8.415l-26.877,-0c-9.851,-0 -13.932,-0.163 -21.95,-6.57l-12.497,-10.332c-8.141,-6.628 -10.046,-11.616 -10.046,-21.939l-0,-16.183Z" style="fill:#fff;fill-rule:nonzero;"/><path id="path3055" d="M199.167,617.145c-4.559,-0 -11.366,1.231 -11.366,7.351l-0,11.145c-0,5.677 6.917,6.841 11.053,6.841l18.669,0l18.725,-9.709l-0,-3.556c-0,-9.271 -2.651,-12.072 -11.985,-12.072l-25.096,-0Zm0.187,-35.222c-4.932,0 -11.642,-1.01 -11.642,-8.219c-0,-7.213 5.948,-8.403 11.642,-8.403l23.275,0c8.873,0 15.219,0.814 21.95,7.451c6.54,6.424 7.383,11.463 7.633,19.87l1.727,56.815c0.165,4.875 -2.286,9.734 -7.904,9.734c-4.42,-0 -8.882,-3.703 -8.755,-8.415l-11.578,5.952c-4.822,2.463 -4.987,2.463 -10.465,2.463l-16.264,-0c-7.574,-0 -13.064,-0.889 -19.224,-5.911c-7.082,-5.748 -8.822,-11.83 -8.822,-20.579l-0,-7.296c-0,-8.031 1.981,-13.07 8.263,-18.646c5.923,-5.084 12.379,-6.291 19.783,-6.291l36.407,0l-0,-3.815c-0,-12.523 -2.82,-14.71 -15.033,-14.71l-20.993,0Z" style="fill:#fff;fill-rule:nonzero;"/><path id="path3057" d="M411.801,586.114l0,-8.436c0,-5.944 1.059,-12.377 8.632,-12.377c6.054,0 8.314,4.68 8.314,10.077l0,11.83c0,2.78 -0.711,4.211 -1.972,6.816l-25.261,54.72c-1.613,3.456 -4.563,10.427 -8.865,10.427l-10.922,-0c-4.241,-0 -7.26,-6.971 -8.809,-10.427l-25.252,-54.72c-1.317,-2.605 -1.935,-4.036 -1.935,-6.816l-0,-11.83c-0,-5.397 2.307,-10.077 8.196,-10.077c7.641,0 8.682,6.433 8.682,12.377l0,8.436l24.592,55.609l24.6,-55.609Z" style="fill:#fff;fill-rule:nonzero;"/><path id="path3059" d="M534.006,607.636l49.044,0l-0,-10.222c-0,-3.081 0.186,-5.619 -2.113,-7.735l-6.507,-5.569c-2.125,-1.966 -5.444,-2.187 -8.145,-2.187l-14.38,0c-3.116,0 -5.758,0 -8.564,1.975l-5.893,4.245c-2.045,1.536 -3.442,2.796 -3.442,7.622l-0,11.871Zm14.034,51.535c-7.002,-0 -9.847,-0 -15.156,-4.542l-7.226,-6.261c-6.697,-5.886 -8.662,-9.751 -8.662,-18.776l0,-32.283c0,-8.862 1.215,-14.155 8.251,-20.015l6.028,-5.022c8.014,-6.816 11.892,-6.971 18.809,-6.971l15.456,0c8.336,0 12.269,0.814 18.733,6.082l6.892,5.414c7.836,6.04 8.835,12.535 8.835,21.744l-0,13.474c-0,9.484 -1.571,12.343 -11.667,12.343l-54.327,-0l-0,5.577c-0,1.582 1.151,3.585 2.451,4.858l4.259,4.509c2.316,2.421 5.613,3.18 11.189,3.18l36.428,0c5.74,0 11.667,1.207 11.667,8.274c-0,7.38 -6.663,8.415 -11.667,8.415l-40.293,-0Z" style="fill:#fff;fill-rule:nonzero;"/><path id="path3061" d="M449.453,391.187c-16.705,18.78 -31.314,18.325 -31.924,18.3l-0.064,0.025c-0.05,0 -0.122,-0.025 -0.122,-0.025l-20.261,-0.451c4.576,-3.418 9.364,-7.751 14.211,-13.165c0.131,-0.205 0.318,-0.447 0.508,-0.647c36.221,-52.67 24.198,-88.13 13.809,-104.61c-0.499,-0.784 -1.062,-1.548 -1.634,-2.237l7.68,2.509c15.934,4.262 28.516,15.34 33.854,29.758c5.186,13.779 6.545,37.3 -16.057,70.543m-81.637,86.936c-6.502,0.994 -14.431,2.054 -22.199,2.91c15.875,-18.099 22.458,-45.344 24.274,-59.27l39.802,0.994c-2.091,15.198 -10.3,50.57 -41.877,55.366m-62.315,7.247c-15.833,-1.232 -57.607,-5.406 -82.5,-7.998l-18.61,-1.816c-8.852,-0.784 -17.437,-10.022 -23.402,-18.533c24.52,1.811 81.958,5.088 93.274,4.959c15.6,-0.484 33.554,-8.169 37.593,-22.265c2.675,-9.125 2.836,-10.323 3.28,-15.599c0.297,-2.843 0.61,-7.247 1.821,-16.276c3.022,-21.998 14.321,-26.297 16.277,-26.873c4.178,-0.246 21.493,-2.233 36.424,-17.511c0.165,-0.246 0.296,-0.48 0.533,-0.684c13.945,-18.1 7.887,-46.38 7.726,-47.607c-0.067,-0.205 -2.408,-15.086 -14.596,-23.325c-7.667,-5.302 -17.107,-6.746 -28.101,-4.521c-3.819,0.789 -7.345,2.125 -10.436,3.657c8.26,-10.419 19.597,-16.889 32.966,-18.834c8.081,-1.098 16.019,-0.414 23.605,1.711c0.559,0.267 1.045,0.543 1.651,0.71l6.981,2.371c9.775,4.374 18.36,11.625 24.092,20.679c8.678,13.712 18.356,43.47 -13.31,89.782c-17.687,19.965 -33.389,20.884 -36.098,20.959l-0.622,-0.075c-0.39,-0 -0.631,0.112 -1.004,0.112c-0.055,0 -0.105,0 -0.165,0.067c-2.637,0.409 -4.876,2.355 -5.558,4.884c-0,0 -0,0.071 -0.051,0.104c0,0.272 -0.068,0.522 -0.068,0.76c-0.063,0.23 -0.063,0.367 -0.063,0.543c-0.415,8.073 -6.223,44.426 -26.031,61.832c-4.322,3.895 -8.966,6.391 -14.152,7.727c-1.097,0.1 -1.639,0.1 -1.778,0.196c-0.796,0.108 -1.406,0.288 -2.028,0.588c-2.527,0.318 -5,0.384 -7.65,0.276m-160.707,-105.745c-14.597,-2.417 -14.427,-20.266 -14.427,-20.929c-0,0.133 8.259,-166.881 8.259,-166.881c-0,-0.83 0.576,-15.945 15.134,-20.666c0.716,-0.23 1.397,-0.509 2.003,-1.098c12.403,-9.446 14.863,-19.043 17.691,-40.381c1.067,-14.405 10.892,-21.046 11.282,-21.251c48.176,-26.155 140.925,-76.35 144.235,-78.032c3.471,-1.72 8.801,-3.248 12.395,-1.607c2.164,1.027 3.819,3.427 4.848,7.004c0.889,18.642 4.843,71.516 5.207,77.268c-0.123,2.63 -2.159,26.018 -23.783,31.424c-6.524,1.715 -11.71,1.361 -15.169,-1.098c-5.384,-3.648 -6.151,-11.245 -6.151,-11.283c-0.046,-0.305 -0.046,-0.48 -0.144,-0.709l-2.802,-14.201c-0.986,-5.001 -3.814,-9.062 -8.077,-11.604c-9.449,-5.702 -23.191,-2.15 -24.778,-1.77c-0.445,0.142 -0.796,0.3 -1.169,0.509c-0.44,0.175 -39.874,19.882 -55.685,27.47c-18.852,8.987 -17.158,35.707 -17.086,36.825c-0,-0.442 -1.038,186.795 -1.038,186.795c0,1.758 0.238,16.593 9.174,25.313c4.051,3.869 9.474,5.915 15.46,5.748c18.284,-0.414 57.43,-3.156 59.052,-3.215c0.487,-0.075 0.842,-0.1 1.257,-0.171c1.177,-0.38 29.333,-7.901 31.374,-31.369c1.155,-12.61 2.785,-25.734 2.836,-25.842c0.072,-0.518 4.508,-21.518 23.211,-25.454c7.282,-1.436 13.154,-0.718 17.501,2.329c7.409,5.055 9.089,14.818 9.089,14.885c0.102,0.68 4.979,23.626 -4.877,36.825c-12.657,12.693 -26.818,13.103 -27.406,13.103c-0.381,-0 -0.762,0.096 -1.101,0.166c-0.961,0.197 -23.034,4.337 -27.614,38.34c-1.207,9.367 -1.63,13.959 -1.876,16.969c-0.372,4.374 -0.372,4.645 -2.857,13.027c-2.011,7.171 -14.47,12.268 -24.884,12.439c-11.883,0.272 -82.919,-3.865 -99.941,-5.43c-6.647,-0.66 -9.301,-16.28 -9.301,-24.874c0.813,-3.891 3.175,-18.283 -3.937,-28.685c-3.582,-5.297 -9.106,-8.683 -15.905,-9.889m233.767,-362.88c5.626,2.597 15.392,9.639 18.39,26.093c1.24,25.826 5.363,75.779 5.423,76.196c0.084,1.883 2.036,49.139 -53.184,67.138c-7.515,2.488 -14.301,2.596 -20.452,0.472c-1.613,-0.785 -2.586,-1.232 -2.586,-1.232c-0.386,-0.2 -0.686,-0.275 -1.118,-0.409c-0.174,-0.067 -0.372,-0.171 -0.559,-0.246c-13.415,-7.414 -20.417,-24.787 -23.165,-33.168c0.978,0.931 2.062,1.811 3.235,2.663c6.989,4.896 15.879,5.994 26.492,3.189c25.938,-6.637 33.558,-31.849 33.985,-44.293l0,-0.576c-0.055,-0.684 -4.415,-59.983 -5.304,-78.224c0,-0.501 -0.047,-0.952 -0.169,-1.323c-1.986,-7.251 -5.309,-11.463 -8.683,-14.063l5.986,-3.172c5.829,-2.952 14.389,-2.747 21.709,0.955m67.425,68.833c1.126,22.916 4.639,66.566 4.639,66.971c0.132,1.603 1.774,43.057 -46.766,59.131c-7.205,2.396 -24.104,-1.102 -28.16,-3.281c-0.118,-0.071 -10.291,-4.725 -21.294,-9.888c64.356,-21.614 61.524,-79.844 61.524,-80.366c-0.051,-0.693 -3.946,-47.882 -5.309,-73.908l20.231,18.696c6.71,5.618 13.166,11.679 15.135,22.645m-193.144,257.222l-0.63,-164.63l38.252,15.319l4.454,144.962l-42.076,4.349Zm44.535,-160.982l-34.184,-13.645l25.794,-10.59c2.15,6.077 5.931,14.998 11.845,23.179l-3.455,1.056Zm-19.824,188.139c-5.394,0.368 -41.051,2.693 -57.701,3.144c-2.396,0.096 -4.174,-0.556 -5.665,-1.987c-4.195,-3.962 -5.126,-12.79 -5.126,-15.562l0.982,-187.304c-0,-0.751 -0.838,-19.431 9.572,-24.419c14.719,-6.975 49.843,-24.557 55.08,-27.228c3.344,-0.785 10.232,-1.603 13.5,0.409c0.741,0.442 1.473,1.135 1.85,2.805l2.773,13.854c0.051,1.235 0.627,4.516 2.231,8.382c-1.422,-0.384 -3.001,-0.384 -4.343,0.279l-47.977,19.623c-0.483,0.301 -1.05,0.622 -1.554,0.981c-0.118,0.075 -0.182,0.142 -0.296,0.28c-0.423,0.38 -0.788,0.747 -1.173,1.265l0,0.037c-0.266,0.342 -0.453,0.747 -0.707,1.127c-0.046,0.234 -0.046,0.38 -0.11,0.409c-0.055,0.142 -0.055,0.284 -0.123,0.443c-0.118,0.521 -0.169,1.098 -0.169,1.678c0,0.075 -0.063,0.075 -0.063,0.075l-0,0.071l0.783,181.89c-0,1.921 0.829,3.669 2.298,5.001c1.402,1.202 3.256,1.845 5.237,1.686l51.313,-5.309c-1.837,12.105 -17.552,17.444 -20.612,18.37m200.619,-54.043c-6.905,-18.391 -22.75,-32.559 -42.655,-37.864c0.359,0.109 -27.915,-9.371 -41.335,-13.842c-11.854,-5.1 -25.189,-7.154 -38.342,-5.238c-21.429,2.909 -38.561,15.323 -48.755,34.512l-2.972,-99.721l6.743,-2.192c2.155,1.803 4.462,3.373 6.897,4.813c1.799,1.064 3.708,1.828 5.634,2.605l46.216,21.447c6.524,3.489 27.284,7.622 38.507,3.794c58.725,-19.226 56.109,-72.055 56.058,-72.573c0,-0.617 -3.636,-44.73 -4.631,-67.4c-0.03,-0.213 -0.03,-0.589 -0.098,-0.798c-2.658,-14.739 -10.939,-23.35 -19.528,-30.505c0.161,0.313 -45.424,-42.025 -45.424,-42.025c-0.377,-0.242 -0.728,-0.405 -1.219,-0.66c-2.612,-2.112 -5.508,-4.061 -8.632,-5.564c-11.299,-5.51 -24.334,-5.744 -34.155,-0.751c-0,-0 -158.176,85.149 -172.701,93.021c-0.994,0.585 -16.281,10.403 -17.742,31.395c-2.802,19.769 -4.644,24.865 -11.9,30.542c-22.373,8.311 -23.097,31.428 -23.097,32.559c0,-0.276 -8.204,166.726 -8.204,166.726c-0.292,10.489 4.61,31.114 25.688,34.696c3.137,0.521 5.372,1.761 6.909,4.04c3.797,5.573 2.586,15.632 1.791,19.001c-0.056,0.468 -0.136,0.964 -0.136,1.357c-0.063,3.047 0,24.92 11.163,34.671c1.905,4.044 17.742,34.837 40.84,36.958l18.572,1.824c24.951,2.53 66.768,6.775 82.813,7.943c5.27,0.368 10.287,0 15.028,-1.168c8.442,-0.894 33.88,-3.765 50.318,-6.153c42.22,-6.37 51.584,-52.528 53.628,-69.012c7.93,-1.511 22.048,-6.345 36.416,-22.708c0.305,-0.283 0.419,-0.521 0.546,-0.693c26.217,-38.026 24.156,-66.106 17.759,-83.037" style="fill:#fff;fill-rule:nonzero;"/></g></svg>