<svg clip-rule="evenodd" fill-rule="evenodd" stroke-linejoin="round" stroke-miterlimit="2" viewBox="0 0 600 660" xmlns="http://www.w3.org/2000/svg"><g fill="#fff" fill-rule="nonzero"><path d="m0 604.018c0-10.294 1.905-15.32 10.046-22.002l12.497-10.281c8.018-6.408 12.099-6.562 21.95-6.562h26.877c5.643 0 11.697 1.189 11.697 8.402 0 7.209-6.727 8.219-11.697 8.219h-29.879c-3.353 0-6.71 1.804-9.753 4.191l-10.224 8.666c-2.659 2.054-4.576 3.761-4.576 7.071v20.729c0 3.277 1.917 5.097 4.576 7.117l10.224 8.545c3.043 2.462 6.4 4.241 9.753 4.241h29.879c4.97 0 11.697.993 11.697 8.273 0 7.25-6.054 8.415-11.697 8.415h-26.877c-9.851 0-13.932-.163-21.95-6.57l-12.497-10.331c-8.141-6.629-10.046-11.617-10.046-21.94v-16.183z"/><path d="m199.167 617.016c-4.559 0-11.366 1.232-11.366 7.351v11.145c0 5.677 6.917 6.842 11.053 6.842h18.669l18.725-9.71v-3.556c0-9.271-2.651-12.072-11.985-12.072zm.187-35.222c-4.932 0-11.642-1.01-11.642-8.219 0-7.213 5.948-8.402 11.642-8.402h23.275c8.873 0 15.219.814 21.95 7.451 6.54 6.424 7.383 11.462 7.633 19.869l1.727 56.815c.165 4.875-2.286 9.734-7.904 9.734-4.42 0-8.882-3.703-8.755-8.415l-11.578 5.952c-4.822 2.463-4.987 2.463-10.465 2.463h-16.264c-7.574 0-13.064-.889-19.224-5.911-7.082-5.748-8.822-11.829-8.822-20.578v-7.297c0-8.031 1.981-13.069 8.263-18.646 5.923-5.084 12.379-6.291 19.783-6.291h36.407v-3.815c0-12.522-2.82-14.71-15.033-14.71z"/><path d="m411.801 585.985v-8.436c0-5.944 1.059-12.376 8.632-12.376 6.054 0 8.314 4.679 8.314 10.076v11.83c0 2.78-.711 4.212-1.972 6.816l-25.261 54.72c-1.613 3.456-4.563 10.427-8.865 10.427h-10.922c-4.241 0-7.26-6.971-8.809-10.427l-25.252-54.72c-1.317-2.604-1.935-4.036-1.935-6.816v-11.83c0-5.397 2.307-10.076 8.196-10.076 7.641 0 8.682 6.432 8.682 12.376v8.436l24.592 55.609z"/><path d="m534.006 607.507h49.044v-10.222c0-3.081.186-5.619-2.113-7.735l-6.507-5.568c-2.125-1.966-5.444-2.188-8.145-2.188h-14.38c-3.116 0-5.758 0-8.564 1.975l-5.893 4.245c-2.045 1.536-3.442 2.797-3.442 7.622zm14.034 51.535c-7.002 0-9.847 0-15.156-4.542l-7.226-6.261c-6.697-5.885-8.662-9.751-8.662-18.775v-32.284c0-8.861 1.215-14.154 8.251-20.015l6.028-5.021c8.014-6.817 11.892-6.971 18.809-6.971h15.456c8.336 0 12.269.814 18.733 6.082l6.892 5.413c7.836 6.04 8.835 12.536 8.835 21.744v13.474c0 9.484-1.571 12.343-11.667 12.343h-54.327v5.577c0 1.582 1.151 3.586 2.451 4.859l4.259 4.508c2.316 2.421 5.613 3.181 11.189 3.181h36.428c5.74 0 11.667 1.206 11.667 8.273 0 7.38-6.663 8.415-11.667 8.415z"/><path d="m449.453 391.059c-16.705 18.779-31.314 18.324-31.924 18.299l-.064.025c-.05 0-.122-.025-.122-.025l-20.261-.45c4.576-3.419 9.364-7.752 14.211-13.166.131-.204.318-.447.508-.647 36.221-52.67 24.198-88.13 13.809-104.609-.499-.785-1.062-1.549-1.634-2.238l7.68 2.509c15.934 4.262 28.516 15.34 33.854 29.758 5.186 13.779 6.545 37.3-16.057 70.544m-81.637 86.936c-6.502.993-14.431 2.053-22.199 2.909 15.875-18.099 22.458-45.344 24.274-59.269l39.802.993c-2.091 15.198-10.3 50.57-41.877 55.367m-62.315 7.246c-15.833-1.231-57.607-5.406-82.5-7.998l-18.61-1.815c-8.852-.785-17.437-10.023-23.402-18.534 24.52 1.812 81.958 5.088 93.274 4.959 15.6-.484 33.554-8.169 37.593-22.265 2.675-9.125 2.836-10.323 3.28-15.599.297-2.843.61-7.246 1.821-16.275 3.022-21.998 14.321-26.298 16.277-26.874 4.178-.246 21.493-2.233 36.424-17.51.165-.247.296-.481.533-.685 13.945-18.099 7.887-46.38 7.726-47.607-.067-.204-2.408-15.085-14.596-23.325-7.667-5.301-17.107-6.746-28.101-4.521-3.819.789-7.345 2.125-10.436 3.657 8.26-10.419 19.597-16.889 32.966-18.834 8.081-1.098 16.019-.413 23.605 1.711.559.267 1.045.543 1.651.71l6.981 2.371c9.775 4.374 18.36 11.625 24.092 20.679 8.678 13.712 18.356 43.47-13.31 89.783-17.687 19.965-33.389 20.883-36.098 20.958l-.622-.075c-.39 0-.631.113-1.004.113-.055 0-.105 0-.165.067-2.637.409-4.876 2.354-5.558 4.883 0 0 0 .071-.051.105 0 .271-.068.521-.068.759-.063.23-.063.368-.063.543-.415 8.073-6.223 44.426-26.031 61.832-4.322 3.895-8.966 6.391-14.152 7.727-1.097.1-1.639.1-1.778.196-.796.109-1.406.288-2.028.589-2.527.317-5 .384-7.65.275m-160.707-105.745c-14.597-2.417-14.427-20.266-14.427-20.929 0 .133 8.259-166.88 8.259-166.88 0-.831.576-15.946 15.134-20.667.716-.229 1.397-.509 2.003-1.098 12.403-9.446 14.863-19.042 17.691-40.381 1.067-14.405 10.892-21.046 11.282-21.251 48.176-26.155 140.925-76.35 144.235-78.032 3.471-1.72 8.801-3.248 12.395-1.607 2.164 1.027 3.819 3.427 4.848 7.004.889 18.642 4.843 71.517 5.207 77.269-.123 2.629-2.159 26.017-23.783 31.423-6.524 1.716-11.71 1.361-15.169-1.098-5.384-3.648-6.151-11.245-6.151-11.283-.046-.304-.046-.48-.144-.709l-2.802-14.201c-.986-5.001-3.814-9.062-8.077-11.604-9.449-5.702-23.191-2.15-24.778-1.77-.445.142-.796.301-1.169.509-.44.176-39.874 19.882-55.685 27.471-18.852 8.987-17.158 35.706-17.086 36.824 0-.442-1.038 186.796-1.038 186.796 0 1.757.238 16.592 9.174 25.312 4.051 3.869 9.474 5.915 15.46 5.748 18.284-.413 57.43-3.156 59.052-3.214.487-.075.842-.1 1.257-.171 1.177-.38 29.333-7.902 31.374-31.37 1.155-12.61 2.785-25.733 2.836-25.842.072-.518 4.508-21.518 23.211-25.454 7.282-1.436 13.154-.718 17.501 2.329 7.409 5.055 9.089 14.818 9.089 14.885.102.681 4.979 23.626-4.877 36.825-12.657 12.694-26.818 13.103-27.406 13.103-.381 0-.762.096-1.101.167-.961.196-23.034 4.337-27.614 38.34-1.207 9.367-1.63 13.958-1.876 16.968-.372 4.374-.372 4.646-2.857 13.027-2.011 7.172-14.47 12.268-24.884 12.44-11.883.271-82.919-3.866-99.941-5.431-6.647-.66-9.301-16.279-9.301-24.874.813-3.89 3.175-18.283-3.937-28.685-3.582-5.297-9.106-8.682-15.905-9.889m233.767-362.879c5.626 2.596 15.392 9.638 18.39 26.093 1.24 25.825 5.363 75.778 5.423 76.195.084 1.883 2.036 49.139-53.184 67.138-7.515 2.488-14.301 2.596-20.452.472-1.613-.785-2.586-1.232-2.586-1.232-.386-.2-.686-.275-1.118-.409-.174-.066-.372-.171-.559-.246-13.415-7.413-20.417-24.786-23.165-33.168.978.931 2.062 1.811 3.235 2.663 6.989 4.896 15.879 5.994 26.492 3.189 25.938-6.637 33.558-31.849 33.985-44.292v-.576c-.055-.685-4.415-59.983-5.304-78.225 0-.501-.047-.951-.169-1.323-1.986-7.251-5.309-11.462-8.683-14.063l5.986-3.172c5.829-2.951 14.389-2.747 21.709.956m67.425 68.832c1.126 22.917 4.639 66.566 4.639 66.971.132 1.603 1.774 43.057-46.766 59.132-7.205 2.396-24.104-1.102-28.16-3.281-.118-.071-10.291-4.726-21.294-9.889 64.356-21.614 61.524-79.844 61.524-80.366-.051-.693-3.946-47.882-5.309-73.908l20.231 18.696c6.71 5.619 13.166 11.68 15.135 22.645m-193.144 257.222-.63-164.63 38.252 15.319 4.454 144.962zm44.535-160.982-34.184-13.645 25.794-10.59c2.15 6.078 5.931 14.998 11.845 23.179zm-19.824 188.14c-5.394.367-41.051 2.692-57.701 3.143-2.396.096-4.174-.555-5.665-1.987-4.195-3.961-5.126-12.79-5.126-15.561l.982-187.305c0-.751-.838-19.431 9.572-24.419 14.719-6.975 49.843-24.557 55.08-27.228 3.344-.785 10.232-1.603 13.5.409.741.442 1.473 1.135 1.85 2.805l2.773 13.854c.051 1.236.627 4.517 2.231 8.382-1.422-.384-3.001-.384-4.343.28l-47.977 19.622c-.483.301-1.05.622-1.554.981-.118.075-.182.142-.296.28-.423.38-.788.747-1.173 1.265v.037c-.266.343-.453.748-.707 1.127-.046.234-.046.38-.11.409-.055.142-.055.284-.123.443-.118.522-.169 1.098-.169 1.678 0 .075-.063.075-.063.075v.071l.783 181.891c0 1.92.829 3.669 2.298 5 1.402 1.202 3.256 1.845 5.237 1.687l51.313-5.31c-1.837 12.105-17.552 17.444-20.612 18.371m200.619-54.044c-6.905-18.391-22.75-32.558-42.655-37.864.359.109-27.915-9.371-41.335-13.841-11.854-5.101-25.189-7.155-38.342-5.239-21.429 2.909-38.561 15.324-48.755 34.512l-2.972-99.721 6.743-2.192c2.155 1.804 4.462 3.373 6.897 4.813 1.799 1.065 3.708 1.828 5.634 2.605l46.216 21.447c6.524 3.49 27.284 7.622 38.507 3.794 58.725-19.226 56.109-72.055 56.058-72.572 0-.618-3.636-44.731-4.631-67.401-.03-.213-.03-.589-.098-.797-2.658-14.739-10.939-23.351-19.528-30.505.161.313-45.424-42.026-45.424-42.026-.377-.242-.728-.405-1.219-.66-2.612-2.112-5.508-4.061-8.632-5.564-11.299-5.51-24.334-5.744-34.155-.751 0 0-158.176 85.149-172.701 93.022-.994.584-16.281 10.402-17.742 31.394-2.802 19.769-4.644 24.866-11.9 30.542-22.373 8.311-23.097 31.428-23.097 32.559 0-.275-8.204 166.726-8.204 166.726-.292 10.49 4.61 31.114 25.688 34.696 3.137.522 5.372 1.761 6.909 4.04 3.797 5.573 2.586 15.633 1.791 19.001-.056.468-.136.965-.136 1.357-.063 3.047 0 24.92 11.163 34.671 1.905 4.045 17.742 34.838 40.84 36.958l18.572 1.824c24.951 2.53 66.768 6.775 82.813 7.944 5.27.367 10.287 0 15.028-1.169 8.442-.893 33.88-3.765 50.318-6.153 42.22-6.37 51.584-52.528 53.628-69.012 7.93-1.511 22.048-6.345 36.416-22.707.305-.284.419-.522.546-.693 26.217-38.027 24.156-66.107 17.759-83.038"/></g></svg>