<svg clip-rule="evenodd" fill-rule="evenodd" stroke-linejoin="round" stroke-miterlimit="2" viewBox="0 0 600 153" xmlns="http://www.w3.org/2000/svg"><g fill="#fff" fill-rule="nonzero"><path d="m147.62 70.448c0-7.761 1.436-11.55 7.574-16.589l9.422-7.752c6.045-4.831 9.122-4.947 16.55-4.947h20.265c4.254 0 8.819.897 8.819 6.335 0 5.436-5.072 6.197-8.819 6.197h-22.528c-2.528 0-5.059 1.36-7.354 3.16l-7.709 6.534c-2.004 1.548-3.45 2.835-3.45 5.331v15.629c0 2.47 1.446 3.843 3.45 5.366l7.709 6.442c2.295 1.857 4.826 3.198 7.354 3.198h22.528c3.747 0 8.819.749 8.819 6.238 0 5.466-4.565 6.344-8.819 6.344h-20.265c-7.428 0-10.505-.122-16.55-4.953l-9.422-7.79c-6.138-4.997-7.574-8.758-7.574-16.541z"/><path d="m297.785 80.248c-3.437 0-8.57.929-8.57 5.542v8.404c0 4.28 5.216 5.158 8.334 5.158h14.076l14.118-7.321v-2.681c0-6.99-1.999-9.102-9.036-9.102zm.141-26.556c-3.719 0-8.778-.761-8.778-6.197 0-5.438 4.485-6.335 8.778-6.335h17.548c6.691 0 11.475.614 16.55 5.618 4.931 4.843 5.567 8.642 5.755 14.98l1.302 42.837c.125 3.676-1.723 7.339-5.959 7.339-3.332 0-6.696-2.791-6.601-6.344l-8.729 4.487c-3.636 1.857-3.76 1.857-7.89 1.857h-12.263c-5.711 0-9.85-.67-14.495-4.456-5.339-4.334-6.651-8.919-6.651-15.516v-5.501c0-6.055 1.493-9.854 6.23-14.059 4.466-3.833 9.333-4.743 14.916-4.743h27.449v-2.876c0-9.442-2.126-11.091-11.334-11.091z"/><path d="m458.104 56.852v-6.361c0-4.481.798-9.331 6.508-9.331 4.565 0 6.269 3.528 6.269 7.597v8.92c0 2.096-.536 3.175-1.487 5.139l-19.046 41.257c-1.216 2.606-3.441 7.861-6.684 7.861h-8.234c-3.199 0-5.474-5.255-6.643-7.861l-19.039-41.257c-.992-1.964-1.459-3.043-1.459-5.139v-8.92c0-4.069 1.74-7.597 6.18-7.597 5.761 0 6.546 4.85 6.546 9.331v6.361l18.542 41.927z"/><path d="m550.243 73.079h36.977v-7.708c0-2.322.14-4.236-1.593-5.831l-4.906-4.199c-1.602-1.482-4.104-1.649-6.141-1.649h-10.842c-2.349 0-4.341 0-6.457 1.489l-4.443 3.2c-1.542 1.159-2.595 2.109-2.595 5.747zm10.581 38.855c-5.28 0-7.425 0-11.427-3.424l-5.449-4.721c-5.049-4.437-6.53-7.352-6.53-14.156v-24.34c0-6.682.916-10.672 6.221-15.091l4.545-3.786c6.042-5.14 8.966-5.256 14.181-5.256h11.654c6.284 0 9.249.614 14.123 4.585l5.197 4.082c5.908 4.554 6.661 9.451 6.661 16.394v10.159c0 7.151-1.184 9.307-8.797 9.307h-40.96v4.204c0 1.193.868 2.704 1.848 3.664l3.211 3.399c1.746 1.825 4.232 2.398 8.436 2.398h27.465c4.328 0 8.797.909 8.797 6.238 0 5.564-5.024 6.344-8.797 6.344z"/><path d="m101.457 119.733c-5.095 5.728-9.552 5.59-9.737 5.582l-.02.008c-.015 0-.037-.008-.037-.008l-6.18-.138c1.396-1.042 2.856-2.364 4.335-4.015.04-.063.096-.137.154-.198 11.048-16.065 7.381-26.881 4.213-31.907-.153-.24-.325-.473-.499-.683l2.342.766c4.861 1.3 8.698 4.679 10.327 9.076 1.581 4.203 1.996 11.377-4.898 21.517m-24.901 26.517c-1.983.303-4.401.626-6.771.887 4.842-5.52 6.85-13.83 7.404-18.078l12.14.303c-.637 4.636-3.141 15.425-12.773 16.888m-19.007 2.21c-4.829-.375-17.571-1.648-25.163-2.439l-5.677-.554c-2.7-.239-5.318-3.057-7.138-5.653 7.479.553 24.999 1.552 28.45 1.513 4.758-.148 10.235-2.492 11.466-6.792.817-2.783.866-3.148 1.001-4.758.091-.867.186-2.21.555-4.964.922-6.71 4.369-8.021 4.965-8.197 1.275-.075 6.556-.681 11.11-5.341.05-.075.091-.146.163-.208 4.253-5.521 2.405-14.147 2.356-14.521-.02-.063-.734-4.602-4.452-7.115-2.338-1.617-5.218-2.057-8.571-1.379-1.165.241-2.24.648-3.183 1.116 2.519-3.178 5.977-5.152 10.055-5.745 2.465-.335 4.886-.126 7.2.522.17.081.319.165.503.216l2.13.724c2.981 1.334 5.6 3.545 7.348 6.307 2.647 4.182 5.599 13.259-4.06 27.385-5.394 6.09-10.184 6.37-11.01 6.393l-.19-.023c-.119 0-.192.034-.306.034-.017 0-.032 0-.05.021-.805.124-1.488.718-1.696 1.489 0 0 0 .022-.015.032 0 .083-.021.159-.021.232-.019.07-.019.112-.019.165-.127 2.463-1.898 13.551-7.94 18.86-1.318 1.188-2.735 1.949-4.317 2.357-.334.03-.499.03-.542.06-.243.033-.429.088-.618.179-.771.097-1.525.117-2.334.084m-49.018-32.254c-4.452-.737-4.4-6.181-4.4-6.383 0 .04 2.519-50.901 2.519-50.901 0-.254.175-4.864 4.616-6.304.218-.07.426-.155.611-.335 3.783-2.881 4.533-5.808 5.396-12.317.325-4.394 3.322-6.419 3.441-6.482 14.694-7.977 42.984-23.288 43.994-23.801 1.059-.524 2.684-.99 3.781-.49.66.313 1.164 1.045 1.478 2.137.271 5.686 1.477 21.813 1.588 23.568-.037.802-.658 7.935-7.254 9.584-1.99.524-3.571.415-4.626-.335-1.643-1.112-1.876-3.43-1.876-3.441-.015-.093-.015-.146-.044-.216l-.855-4.332c-.301-1.525-1.164-2.764-2.464-3.539-2.882-1.74-7.073-.656-7.558-.54-.135.043-.242.091-.356.155-.134.054-12.162 6.064-16.985 8.379-5.75 2.741-5.233 10.891-5.211 11.232 0-.135-.317 56.976-.317 56.976 0 .536.073 5.061 2.798 7.72 1.236 1.181 2.89 1.804 4.716 1.753 5.577-.126 17.517-.962 18.012-.98.148-.023.257-.03.383-.052.359-.116 8.947-2.41 9.569-9.568.353-3.846.85-7.849.866-7.883.022-.157 1.375-6.563 7.08-7.763 2.22-.438 4.011-.219 5.338.71 2.259 1.542 2.772 4.52 2.772 4.54.031.208 1.518 7.206-1.488 11.232-3.861 3.872-8.18 3.997-8.359 3.997-.116 0-.233.029-.336.051-.293.06-7.026 1.323-8.423 11.694-.368 2.857-.497 4.258-.572 5.176-.113 1.334-.113 1.417-.871 3.973-.614 2.188-4.414 3.742-7.59 3.794-3.625.083-25.292-1.179-30.484-1.656-2.027-.201-2.837-4.965-2.837-7.587.248-1.187.969-5.577-1.201-8.749-1.092-1.616-2.777-2.649-4.851-3.017m71.303-110.684c1.716.792 4.695 2.94 5.609 7.959.378 7.877 1.636 23.114 1.654 23.241.026.574.621 14.988-16.222 20.478-2.292.759-4.362.792-6.238.144-.492-.239-.789-.376-.789-.376-.117-.061-.209-.084-.341-.124-.053-.021-.114-.052-.17-.075-4.092-2.262-6.228-7.561-7.066-10.117.298.284.629.552.986.812 2.132 1.494 4.844 1.828 8.081.973 7.912-2.025 10.236-9.715 10.366-13.51v-.176c-.017-.209-1.347-18.296-1.618-23.859 0-.153-.014-.291-.051-.404-.606-2.212-1.62-3.496-2.649-4.289l1.826-.968c1.778-.9 4.389-.838 6.622.291m20.565 20.995c.344 6.99 1.415 20.304 1.415 20.428.041.489.542 13.133-14.264 18.036-2.198.731-7.352-.336-8.589-1.001-.036-.022-3.139-1.441-6.495-3.016 19.629-6.593 18.765-24.354 18.765-24.513-.015-.211-1.203-14.605-1.619-22.543l6.171 5.702c2.047 1.714 4.016 3.563 4.616 6.907m-58.911 78.457-.193-50.215 11.668 4.673 1.358 44.216zm13.583-49.102-10.426-4.162 7.867-3.23c.656 1.854 1.809 4.575 3.613 7.07zm-6.046 57.386c-1.646.112-12.522.821-17.6.958-.731.03-1.273-.169-1.728-.606-1.279-1.208-1.564-3.901-1.564-4.746l.3-57.131c0-.229-.256-5.927 2.92-7.448 4.489-2.128 15.203-7.49 16.8-8.305 1.02-.24 3.121-.489 4.118.125.226.135.449.346.564.855l.846 4.226c.015.377.191 1.378.68 2.557-.434-.118-.915-.118-1.325.085l-14.633 5.985c-.147.092-.32.19-.474.299-.036.023-.056.044-.091.086-.129.115-.24.228-.357.385v.012c-.082.104-.138.228-.216.344-.014.071-.014.115-.033.124-.017.044-.017.087-.038.135-.036.16-.052.335-.052.512 0 .023-.019.023-.019.023v.022l.239 55.479c0 .586.253 1.119.701 1.526.428.366.993.562 1.597.514l15.652-1.62c-.561 3.693-5.354 5.321-6.287 5.604m61.192-16.484c-2.106-5.61-6.94-9.931-13.011-11.549.11.033-8.514-2.859-12.608-4.222-3.615-1.556-7.683-2.183-11.694-1.598-6.537.887-11.762 4.674-14.872 10.527l-.906-30.417 2.057-.669c.657.55 1.361 1.029 2.103 1.468.549.325 1.131.558 1.719.795l14.096 6.542c1.99 1.064 8.322 2.324 11.746 1.157 17.912-5.864 17.114-21.978 17.098-22.136 0-.188-1.109-13.643-1.412-20.558-.009-.065-.009-.18-.03-.243-.811-4.496-3.337-7.123-5.957-9.305.049.096-13.855-12.818-13.855-12.818-.115-.074-.222-.124-.372-.202-.796-.644-1.679-1.238-2.632-1.697-3.447-1.68-7.423-1.752-10.418-.229 0 0-48.246 25.972-52.677 28.373-.303.179-4.966 3.173-5.411 9.576-.855 6.03-1.417 7.584-3.63 9.316-6.824 2.535-7.045 9.586-7.045 9.931 0-.084-2.502 50.854-2.502 50.854-.089 3.199 1.406 9.49 7.835 10.583.957.159 1.639.537 2.107 1.232 1.159 1.7.789 4.768.546 5.796-.016.142-.041.294-.041.413-.019.93 0 7.601 3.405 10.576.581 1.233 5.412 10.626 12.457 11.273l5.664.556c7.611.771 20.366 2.066 25.26 2.423 1.607.112 3.138 0 4.584-.357 2.575-.272 10.334-1.148 15.347-1.876 12.878-1.943 15.734-16.022 16.358-21.05 2.418-.461 6.725-1.935 11.107-6.926.093-.087.128-.159.167-.212 7.997-11.598 7.368-20.163 5.417-25.327"/></g></svg>