<svg clip-rule="evenodd" fill-rule="evenodd" stroke-linejoin="round" stroke-miterlimit="2" viewBox="0 0 600 367" xmlns="http://www.w3.org/2000/svg"><g fill="#fff"><path d="m597.968 346.692c-2.556-3.481-6.348-4.202-11.642-4.202l-12.672-.053c-4.991-.053-7.357-.402-8.419-.652-1.319-.364-1.418-.394-1.418-2.654 0-2.412 0-3.633 14.554-3.633 5.915 0 8.342.493 9.305.758 1.464.455 1.464.455 1.464 3.368h9.738c-.084-4.642-.675-7.44-3.747-9.723-3.071-2.283-7.523-3.17-16.548-3.17-3.36 0-8.608.19-11.603.546-4.202.463-6.826 1.069-9.298 3.034-1.707 1.297-3.724 3.89-3.724 8.789 0 10.694 8.009 12.211 15.858 12.211 17.534 0 17.891 0 19.354.462.561.175 1.016.349 1.016 2.791s-.993 2.753-1.698 2.905c-3.789.559-7.616.813-11.444.758-9.784 0-12.089-.455-13.052-.819-.19-.281-.296-1.388-.334-3.913l-9.578.045c-.061.721-.069 1.411-.069 1.517 0 4.376.759 7.538 4.619 9.859 2.73 1.57 6.287 2.055 15.168 2.055 11.686 0 17.215-.531 20.476-2.032 3.853-1.851 5.726-5.347 5.726-10.686 0-3.231-.667-5.597-2.078-7.478z"/><path d="m381.015 342.49-12.68-.045c-2.821.048-5.64-.173-8.418-.66-1.305-.364-1.419-.387-1.419-2.647s0-3.64 14.561-3.64c6.143 0 8.555.554 9.313.758 1.434.455 1.434.455 1.434 3.375l9.753-.038c-.069-4.633-.652-7.417-3.739-9.722-3.087-2.306-7.531-3.17-16.533-3.17-3.39 0-8.615.197-11.611.546-4.194.462-6.78 1.054-9.321 3.033-1.698 1.305-3.716 3.891-3.716 8.798 0 10.746 8.024 12.195 15.858 12.195 17.542 0 17.898 0 19.347.47.576.174 1.024.333 1.024 2.791 0 2.457-.994 2.745-1.707 2.897-1.911.424-6.719.758-11.444.758-9.768 0-12.066-.455-13.059-.819-.167-.303-.296-1.388-.319-3.913l-9.563-.228c-.076.759-.084 1.676-.084 1.798 0 4.368.759 7.538 4.611 9.859 2.791 1.592 6.196 2.055 15.229 2.055 11.664 0 17.193-.539 20.476-2.033 3.792-1.835 5.703-5.308 5.703-10.685 0-3.239-.667-5.62-2.085-7.47-2.541-3.497-6.348-4.209-11.626-4.209z"/><path d="m38.625 353.957c0 3.125 0 3.125-2.465 3.489-1.251.174-7.523.455-11.3.455-4.74 0-9.586-.152-11.876-.41-2.291-.257-2.42-.652-2.647-1.994-.197-1.562-.539-7.099-.539-9.996 0-7.424 1.055-8.623 1.092-8.676.584-.417 3.239-1.115 14.486-1.115 8.706 0 11.307.668 11.853.842.918.357 1.138.433 1.176 3.094v3.603h9.442l-.038-2.427c-.099-5.915-.266-8.1-2.73-10.428-2.996-2.874-7.175-3.67-19.499-3.67-3.033 0-8.001.106-10.367.265-5.475.311-8.342.758-10.799 2.586-3.716 2.829-4.414 8.418-4.414 17.762 0 9.343.956 13.613 3.678 16.108 3.231 2.973 8.001 3.428 22.691 3.428 11.513 0 15.851-.448 18.831-3.102 2.571-2.351 2.791-4.748 3.034-11.315l.098-2.488h-9.563z"/><path d="m181.384 350.59h30.184v-8.881h-30.184v-5.999h31.534v-8.88h-41.279v39.936h41.324v-8.865h-31.579z"/><path d="m461.988 350.59h30.207v-8.881h-30.207v-5.999h31.534v-8.88h-41.271v39.936h41.324v-8.865h-31.587z"/><path d="m399.163 335.71h18.732v31.056h9.761v-31.056h18.603v-8.88h-47.096z"/><path d="m251.892 354.792-18.953-27.962h-13.613v39.936h9.753v-28.659l19.567 28.659h6.537l19.218-28.454v28.454h9.745v-39.936h-13.659z"/><path d="m102.148 330.189c-3.178-2.988-7.971-3.488-20.811-3.488-3.268 0-9.76.159-12.051.265-4.921.311-7.583.759-10.162 2.571-3.883 2.852-4.596 7.994-4.596 17.102 0 6.067.25 9.419.895 11.846.982 3.809 4.074 6.729 7.933 7.493 2.958.599 9.199.879 19.619.879 12.279 0 16.617-.758 19.408-3.564 2.616-2.647 3.541-6.947 3.541-16.381 0-2.791-.182-6.446-.402-8.274-.386-3.678-1.107-6.378-3.374-8.449zm-6.591 7.584c.395 3.073.564 6.17.508 9.268.019 2.831-.166 5.659-.553 8.463-.251 1.176-.645 1.517-1.858 1.737-4.233.505-8.495.725-12.757.66-2.381 0-8.569-.152-10.534-.266-3.208-.204-4.633-.47-5.073-.887-.615-.667-.925-4.163-.925-10.443 0-7.758.841-9.184 1.099-9.449 1.327-1.146 10.087-1.146 12.976-1.146 9.389 0 12.18.091 14.918.493 1.987.289 2.093.933 2.199 1.57z"/><path d="m141.516 326.83h-28.114v39.936h28.5c10.618 0 14.19-.455 17.625-3.481 3.436-3.026 4.771-7.91 4.771-16.502 0-7.903-.607-12.521-3.929-15.881-3.549-3.549-7.409-4.072-18.853-4.072zm-18.361 8.88h18.254c4.05 0 5.605 0 6.659.084 3.398.227 4.224.857 4.702 1.373.478.515 1.691 2.57 1.691 9.396 0 10.071-2.472 10.617-3.792 10.928-1.797.402-1.82.41-8.987.41h-18.527z"/><path d="m312.062 326.83-23.988 39.936h11.209l4.429-7.417h27.416l4.414 7.417h11.088l-23.928-39.936zm-3.102 23.631 8.532-14.174 8.449 14.174z"/><path d="m546.101 332.389c-1.517-2.837-4.474-4.657-8.221-5.119-2.692-.342-2.874-.342-12.331-.44h-25.611v39.936h9.761v-13.537h15.865c7.88.046 7.88.046 9.495.296 1.433.19 1.79.811 1.926 1.911.198 1.289.182 1.335.182 5.574v5.756h9.768v-7.394c0-5.71-.121-7.864-2.275-10.064 2.389-1.971 2.943-5.051 2.943-9.495 0-3.215-.417-5.354-1.464-7.424zm-36.402 3.321h15.865c8.009 0 10.458.175 11.444.842.137.144.705 1.047.705 3.216.027 1.157-.129 2.311-.462 3.42-.448.759-2.73 1.16-7.197 1.16h-20.355z"/><path d="m311.105.204c-.094.044-.199.074-.294.131-.983.463-1.929 1-2.829 1.608h-.061c-.023.018-.049.033-.075.046-12.484 8.623-74.459 51.221-93.828 64.546-.841.569-1.651 1.181-2.427 1.835-1.722 1.187-3.318 2.546-4.763 4.058l-16.76 17.739-46.922 49.553c-1.775 1.931-2.676 4.512-2.487 7.129.173 2.747 1.37 5.332 3.352 7.242l13.302 12.946c2.864 2.955 7.305 3.793 11.05 2.086 2.396-.948 14.007-6.121 28.159-12.476l-33.855 38.155c-15.168 17.094-13.537 44.608 3.709 60.565l36.683 34.059c5.798 5.436 13.24 8.797 21.151 9.556.675.083 2.981.159 3.314.159h184.213c.821 0 1.575 0 2.268-.038.043-.002.086-.005.129-.008l-.129.008c-2.508.128-4.947-.883-6.628-2.753v.015l-13.545-14.113c-4.171-4.331-4.915-11.983-1.707-17.079 16.973-25.915 40.514-62.067 40.514-62.067v-.038l3.033-4.55c6.492-9.943 4.914-25.71-3.534-35.387l-10.974-12.581c-4.179-4.793-9.427-7.501-14.781-7.622-5.354-.122-10.306 2.419-13.727 7.174l-47.02 65.411c-1.596 2.354-4.212 3.822-7.053 3.959-2.951.074-5.792-1.149-7.766-3.344l-16.434-17.102c-4.664-4.869-5.309-12.938-1.517-17.944l49.644-64.796c3.618-4.718 5.248-11.111 4.604-18.02-.619-6.9-3.392-13.433-7.925-18.671l-12.135-13.879c-4.542-5.263-10.374-8.479-16.396-9.04-5.894-.647-11.736 1.709-15.532 6.264l-5.703 6.735-14.561 17.124-33.87 39.816c-4.171 4.914-11.679 4.702-16.737-.546l-16.586-17.269c-2.481-2.58-3.984-5.948-4.247-9.518-.321-3.299.724-6.59 2.889-9.1l55.81-61.293 19.559-21.493c2.677-2.952 5.872-5.389 9.425-7.192.019-.009.037-.018.055-.028l-.055.028zm71.927 254.958-16.608 24.905c-7.175 10.747-17.625 17.443-29.578 18.808-12.134 1.35-24.223-3.079-33.907-12.558l-45.67-44.799c-21.615-21.197-24.216-57.341-5.931-79.297l53.595-64.349 19.954-23.965c1.703-2.079 4.34-3.171 7.015-2.905 2.935.323 5.632 1.776 7.515 4.05l12.271 13.932c2.083 2.4 3.359 5.396 3.648 8.562.352 2.915-.41 5.857-2.131 8.236l-50.608 64.592c-8.638 11.027-7.181 29.001 3.262 39.747l16.684 17.155c4.907 5.036 11.035 7.584 17.253 7.25 6.219-.334 11.596-3.519 15.388-8.896l46.262-65.578c1.373-2.078 3.706-3.328 6.196-3.322 2.637.122 5.102 1.361 6.772 3.406l11.111 12.627c3.898 4.429 4.626 11.671 1.608 16.199l-43.987 66.048c-.025.057-.053.113-.083.167z"/></g></svg>