<svg clip-rule="evenodd" fill-rule="evenodd" stroke-linejoin="round" stroke-miterlimit="2" viewBox="0 0 600 108" xmlns="http://www.w3.org/2000/svg"><g fill="#fff" fill-rule="nonzero"><path d="m356.621 43.705v-.997c5.163-1.81 9.15-5.611 12.049-11.857.362-.815.725-1.72 1.087-2.627h.816v12.856h9.603v2.625h-9.424v28.603c0 7.602 2.082 10.048 6.885 9.142 1.54-.272 2.99-1.176 4.075-2.625.182-.182.363-.453.545-.724l.996.272c-.274.453-.451.816-.634 1.175-.964 1.505-2.088 2.902-3.353 4.166-5.525 5.247-12.591 3.619-15.218-2.535-.544-1.356-.725-2.442-.725-5.521v-31.953zm-300.823-23.624.905.089v21.725l-.905.181c-.544-3.892-2.083-7.513-4.891-10.862-3.895-4.798-8.968-7.423-15.127-7.875-14.585-1.086-26.361 11.043-24.821 34.216 1.178 17.65 13.135 27.424 28.172 25.163 6.522-.995 11.959-4.074 16.849-9.865.543-.635.996-1.268 1.449-1.902l.725.635c-.452.723-.905 1.449-1.449 2.171-4.167 5.612-8.606 9.052-14.222 11.134-8.697 3.347-18.208 2.532-27.086-2.807-7.61-4.527-12.954-12.402-14.766-22.087-3.623-19.46 8.697-36.658 28.173-39.464 5.163-.723 10.327-.271 15.219 1.176l.455.182 4.347 1.538c3.443 1.266 4.621.995 6.251-2.173zm7.519 44.443c0-1.811.18-3.62.453-5.432 3.261-16.292 19.748-23.171 32.159-15.115 1.025.643 1.994 1.37 2.899 2.173 5.255 4.979 7.882 12.672 6.522 21.361-.542 2.897-1.54 5.702-2.989 8.238-5.072 8.508-12.501 12.127-21.65 10.861-8.062-1.085-14.766-7.331-16.849-17.106-.365-1.635-.548-3.305-.545-4.98zm8.606 2.986c.635 4.346 1.72 7.332 3.261 9.959 4.529 7.601 13.588 8.324 18.297 2.532 3.533-4.345 5.164-11.676 3.443-21.091-.327-1.887-.843-3.737-1.54-5.521-.996-2.262-2.083-3.983-3.26-5.342-5.436-6.608-14.132-5.793-17.756.815-1.812 3.079-2.627 6.246-2.9 10.952-.091 1.327-.091 2.659 0 3.985.092 1.268.274 2.535.455 3.711zm71.564-23.172v-13.848c-.09-3.712-2.355-5.16-5.254-3.893l-.725.272-.362.182-.543-1.177 14.403-6.245v57.479c.181 2.624 2.176 4.164 5.254 3.53.362-.092.725-.182 1.087-.362l.273.996-12.32 5.426h-1.541v-6.695c-1.5 1.787-3.311 3.29-5.344 4.436-11.053 6.242-22.738.362-24.73-15.206-.454-3.1-.362-6.255.271-9.323 3.08-16.656 17.756-23.353 27.72-16.836l1.086.635zm-1.993 2.715c-2.265-3.168-6.161-4.616-10.416-3.71-4.983 1.085-8.878 5.793-9.875 15.027-.18 2.289-.18 4.589 0 6.878 1.087 10.591 6.25 15.84 12.773 16.022 1.902.089 3.714-.362 5.253-1.088 3.713-1.81 4.256-2.713 4.256-6.244v-19.552c.002-3.803-.361-5.25-1.991-7.333zm55.88 10.862h-27.72c-.091 1.054-.091 2.114 0 3.168.081 2.432.509 4.84 1.269 7.151 3.623 11.224 12.41 14.392 20.652 8.779 2.265-1.448 4.258-3.71 5.617-6.337.271-.454.453-.904.634-1.356l.997.182c-.179.542-.271 1.085-.453 1.718-.452 1.631-1.087 3.169-1.812 4.617-1.103 2.325-2.605 4.438-4.438 6.245-8.154 7.964-20.474 5.791-25.727-4.255-1.309-2.54-2.254-5.252-2.807-8.055-3.261-17.198 6.974-29.418 18.297-29.237 1.177.09 2.265.181 3.443.453 6.884 1.629 11.052 6.608 11.957 14.663.091.816.091 1.54.091 2.264zm-9.241-2.534c0-.543 0-.995-.09-1.537-.091-2.264-.543-4.075-1.358-5.613-2.355-4.978-8.335-6.064-13.046-1.901-1.721 1.539-3.08 3.803-3.805 7.151-.18.634-.272 1.268-.362 1.9zm15.212-8.689 14.675-6.246v9.233l.815-.905 1.269-1.359c.543-.451.996-.995 1.539-1.447 1.72-1.63 2.628-2.353 3.804-3.078 7.429-4.977 15.128-2.171 17.394 5.884.18.453.272.905.362 1.449l.725-.814 1.63-1.721c2.808-3.168 4.349-4.345 7.065-5.793 7.338-3.891 14.946-.181 16.396 8.509.271 1.357.363 2.806.363 4.526v24.169c0 .27 0 .632.09.904.453 3.077 2.174 4.707 4.71 4.798h.906v1.267h-19.748v-1.267h.998c3.079-.09 4.709-1.809 5.344-5.702l.181-1.54v-24.711c-.091-.635-.181-1.268-.362-1.811-1.539-4.978-6.703-6.879-13.587-2.896-1.088.633-1.63 1.175-3.442 2.896l-.998 1.085c.091.726.182 1.359.272 2.082l-.09 3.26.09 20.094-.09 1.539c0 .451.09 1.085.361 1.992.635 2.264 2.447 3.621 4.893 3.711.362 0 .634 0 .997-.09v1.356h-20.111v-1.356c.272.09.633.09.906.09 3.08-.09 4.8-1.9 5.253-5.703l.181-1.539v-21.814c0-1.357-.091-2.896-.361-4.255-.815-4.887-6.612-7.422-13.316-3.259-1.087.634-2.174 1.538-3.352 2.715l-.543.634-.544.542v25.888l.09 1.087c.363 3.71 2.175 5.612 5.164 5.702.362 0 .634 0 .998-.089v1.356h-20.655v-1.267h.997c3.443-.089 5.435-2.081 5.797-5.702l.091-.906v-24.71l-.091-2.173c-.089-3.62-2.445-5.16-5.434-3.893l-.725.363-.362.181zm101.278 10.772v-6.245c0-.363 0-.725-.088-1.086-.727-4.618-2.358-6.608-5.891-7.422-2.992-.634-5.438.089-7.069 2.081-1.086 1.268-1.721 2.897-1.721 4.073v.181l.271 1.449v1.628c-.089.815-.361 1.63-.814 2.265-1.269 1.991-4.168 2.08-5.708 0-1.811-2.354-1.45-5.523 2.084-9.232 2.355-2.535 6.16-4.254 11.054-4.707 1.025-.091 2.056-.091 3.081 0 8.339.542 12.326 4.798 12.326 12.129v26.522c.272 1.81 2.176 2.807 4.712 1.719.759-.378 1.436-.901 1.994-1.539l.727 1.177c-.274.453-.544.816-.816 1.268-1.36 1.718-2.809 2.986-4.531 3.982-3.716 2.17-7.524.812-8.52-2.353-.182-.725-.362-1.448-.453-2.174l-.182-1.719-.091-.452c-.451.452-.996.903-1.538 1.357-2.447 2.082-4.443 3.441-6.617 4.706-7.248 3.982-14.042.814-15.492-6.516-1.268-6.518 1.631-11.406 10.147-15.479l3.714-1.811 1.086-.452c1.452-.633 3.084-1.357 4.804-1.992l1.814-.724zm-2.988 3.528-1.09.453-3.08 1.449c-3.354 1.54-4.53 2.263-5.619 3.169-2.899 2.532-3.895 4.887-3.532 8.237.181 1.539.544 2.624 1.087 3.528 2.356 4.075 6.16 5.071 11.688 1.901 1.36-.722 2.538-1.719 3.534-2.895v-16.837c-1.175.362-2.173.725-2.988.995zm46.295-20.365h1.266v13.851l-.996.089c-.091-.633-.18-1.266-.363-1.9-1.449-5.43-4.075-8.146-8.152-9.142-1.903-.363-3.803-.363-5.254-.09-4.258 1.086-6.249 5.883-3.984 9.594.904 1.538 2.082 2.626 4.981 4.436l.362.18 4.438 2.444 1.903 1.086c4.53 2.897 6.434 4.616 7.701 6.88 2.807 4.98 2.807 8.961-.182 13.487-1.628 2.534-4.438 4.344-8.514 5.067-2.354.452-5.163.362-9.422-.815l-1.178-.27-1.178-.362-.271-.091-1.54-.18c-1.178-.181-1.992.362-1.992 1.356h-.815v-15.388h.904c.091.997.182 1.994.453 2.988.996 3.622 3.081 6.697 5.799 8.417 2.082 1.357 4.256 2.08 6.429 2.08 5.165-.089 8.063-3.981 6.703-9.051-.451-1.629-1.357-2.896-3.443-4.617-.498-.34-.981-.702-1.447-1.086l-.453-.18-3.262-2.082-2.083-1.265-1.631-.997c-6.974-4.163-9.419-8.871-8.243-14.574.816-4.253 3.716-7.603 8.063-9.141 2.897-1.086 4.8-1.086 8.968 0l.271.089 2.356.725c.634.181 1.267.272 1.812.362 1.361.183 2.265-.723 1.994-1.9zm72.177 17.288h-27.719c-.091 1.054-.091 2.114 0 3.168.081 2.432.508 4.84 1.269 7.151 3.62 11.224 12.411 14.392 20.651 8.779 2.267-1.448 4.258-3.71 5.616-6.337.273-.454.455-.904.636-1.356l.996.182c-.179.542-.271 1.085-.453 1.718-.454 1.631-1.087 3.169-1.81 4.617-1.271 2.623-2.718 4.526-4.44 6.245-8.152 7.964-20.471 5.791-25.728-4.255-1.309-2.54-2.253-5.252-2.806-8.055-3.26-17.198 6.974-29.418 18.299-29.237 1.176.09 2.263.181 3.441.453 6.885 1.629 11.053 6.608 11.957 14.663.091.816.091 1.54.091 2.264zm-9.24-2.534c0-.543 0-.995-.091-1.537-.091-2.264-.544-4.075-1.357-5.613-2.356-4.978-8.337-6.064-13.046-1.901-1.72 1.539-3.081 3.803-3.806 7.151-.179.634-.271 1.268-.362 1.9zm14.578 30.687v-1.27h1.178c3.894-.089 6.159-2.172 6.431-5.702l.089-1.176v-23.172l-.089-3.441c0-3.71-2.175-5.068-4.983-3.893l-.816.363-.271.181-.544-1.267 14.495-6.246v8.599l.272-.543.725-1.087c1.357-2.262 2.356-3.529 3.531-4.433 2.082-1.72 4.078-2.445 6.069-2.535 4.076-.091 6.615 3.439 5.525 6.246-1.084 3.077-4.256 3.802-6.338 1.991l-.544-.453-.362-.361c-2.268-2.173-3.443-2.173-6.339.453-2.175 1.991-2.809 3.439-2.809 6.516v23.355l.089.906c.362 3.528 2.627 5.611 6.884 5.702h1.267v1.267zm60.226-45.441h1.269v13.851l-.997.089c-.091-.633-.179-1.266-.362-1.9-1.452-5.43-4.076-8.146-8.153-9.142-1.905-.363-3.805-.363-5.254-.09-4.258 1.086-6.252 5.883-3.987 9.594.907 1.538 2.085 2.626 4.984 4.436l.362.18 4.44 2.444c.632.362 1.267.724 1.903 1.086 4.528 2.897 6.429 4.616 7.697 6.88 2.809 4.98 2.809 8.961-.179 13.487-1.629 2.534-4.438 4.344-8.515 5.067-2.356.452-5.165.362-9.424-.815l-1.176-.27-1.178-.362-.271-.091-1.54-.18c-1.178-.181-1.994.362-1.994 1.356h-.816v-15.388h.907c.091.997.179 1.994.453 2.988.996 3.622 3.081 6.697 5.799 8.417 2.082 1.357 4.256 2.08 6.429 2.08 5.165-.089 8.061-3.981 6.703-9.051-.45-1.629-1.357-2.896-3.443-4.617-.498-.339-.981-.702-1.447-1.086l-.453-.18-3.262-2.082-2.085-1.265-1.629-.997c-6.974-4.163-9.421-8.871-8.243-14.574.816-4.253 3.713-7.603 8.063-9.141 2.897-1.086 4.8-1.086 8.968 0l.274.089 2.353.725c.637.181 1.267.272 1.815.362 1.356.183 2.261-.723 1.989-1.9zm81.944-35.35c-24.238 22.108-34.343 52.009-34.564 66.477-.053 3.545.367 5.581.732 6.6.383-.655.926-1.865 1.513-4.106 7.929-30.118 23.027-44.39 31.604-51.519 4.025-3.348 8.875-4.96 8.875-4.96s-3.033 3.735-4.939 6.213c-6.326 8.214-9.475 36.998-4.959 42.677.317.397.526.658 1.485.019 9.539-6.352 12.283-7.597 14.005-7.671-.07.003-.141.011-.211.022.957-.15 2.862.124 3.937 2.097.763 1.404.906 4.514 1.085 12.399.16 7.124.436 18.956 2.277 21.35 1.684-1.054 5.918-12.21 8.656-19.703.031-.078 2.877 4.084 2.889 4.041-1.097 4.377-5.357 20.417-10.424 22.349-1.195.458-2.447.312-3.524-.417-3.385-2.287-4.659-9.613-6.091-19.712-.435-3.052-.957-6.739-1.45-8.247-1.616.785-5.762 5.462-11.273 11.686l-3.428 3.868c-1.045 1.172-4.214 4.738-7.404 3.415-4.731-1.963-4.409-12.958-3.382-29.509.186-3.013.175-5.479.53-8.059.017-.128-.088-.334-.088-.447-3.501 4.264-10.837 20.733-13.663 40.646-1.432 10.097-5.196 12.484-8.105 12.709-4.91.383-9.968-5.531-12.887-15.068-6.114-19.981-5.158-60.499 44.661-88.292 4.054-2.263 9.051-3.622 9.051-3.622s-2.749 2.794-4.908 4.764z"/><path d="m565.743 4.934c-46.344 43.234-33.825 93.93-28.604 69.799 7.233-33.428 33.246-52.421 33.246-52.421s-5.429 4.74-7.536 20.863c-2.739 20.971 1.053 28.097 5.57 25.086 8.752-5.828 11.695-7.293 13.029-7.351 0 0 1.248-.195 1.968 1.128 1.586 2.91-.191 29.796 3.671 34.202 4.022 4.59 10.604-16.599 10.604-16.599l.173.727s-5.676 22.627-10.746 19.199c-5.071-3.423-5.22-27.77-7.682-28.349-2.459-.58-5.439 3.187-17.057 16.257-11.617 13.071-7.443-19.061-7.02-32.925.367-12.041-13.323 10.915-17.446 39.967-5.872 41.377-54.545-42.965 27.83-89.583z"/></g></svg>