<svg clip-rule="evenodd" fill-rule="evenodd" stroke-linejoin="round" stroke-miterlimit="2" viewBox="0 0 600 217" xmlns="http://www.w3.org/2000/svg"><g fill="#fff"><path d="m428.878 212.909.718 1.647c0 .445-.131.859-.359 1.203.391.607 1.073 1.005 1.851 1.005h31.383c1.223 0 2.207-.985 2.207-2.208v-87.232c0-.835.955-1.49 1.76-1.49l-.028.029c.833 0 1.579.626 1.849 1.461l28.968 87.829c.298.925 1.282 1.611 2.267 1.611h30.609c.985 0 1.968-.686 2.267-1.611l28.252-87.829c.268-.835 1.014-1.461 1.85-1.461l-.031-.029c.806 0 1.76.655 1.76 1.49v87.232c0 1.223.986 2.208 2.209 2.208h31.383c1.223 0 2.207-.985 2.207-2.208v-122.376h-62.083l-23.476 70.765-23.479-70.765h-66.349c-1.492 0-2.626.926-3.312 2.389l-12.141 26.46c-.657 1.491-.359 2.656 1.133 2.656h10.59c5.044 0 7.936 2.923 7.936 7.935z"/><path d="m428.878 212.909-52.626-120.729h-66.913c-1.493 0-2.627.926-3.313 2.389l-12.142 26.46c-.655 1.491-.358 2.656 1.134 2.656h8.444c5.04 0 7.935 2.923 7.935 7.935l-36.457 82.936c0 1.223.985 2.208 2.209 2.208h34.308l8.591-20.049h64.44l8.591 20.049h34.308c.778 0 1.46-.398 1.85-1.005-.228-.344-.358-.758-.358-1.203zm-78.758-86.301c.268-.834 1.014-1.461 1.85-1.461l.297-.03.299.03c.836 0 1.582.627 1.849 1.461l16.289 38.009c.537 1.253.12 2.026-1.132 2.026h-34.608c-1.252 0-1.669-.773-1.132-2.026z"/><path d="m428.878 212.909.001 1.647c0 .445.13.859.358 1.203.228-.344.359-.758.359-1.203z"/><path d="m257.37 216.764c13.991 0 24.014-10.025 24.014-24.017v-76.55c0-13.991-10.023-24.017-24.014-24.017h-106.206c-1.492 0-2.625.926-3.313 2.389l-12.141 26.46c-.656 1.491-.358 2.656 1.133 2.656h10.592c5.011 0 7.935 2.923 7.935 7.935v82.936c0 1.223.984 2.208 2.207 2.208zm-63.993-32.937c-1.223 0-2.209-.983-2.209-2.206v-55.729c0-1.223.986-2.207 2.209-2.207h45.704c5.012 0 7.936 2.923 7.936 7.935v44.273c0 5.012-2.924 7.934-7.936 7.934z"/><path d="m2.206 216.764h34.309l8.592-20.049h64.439l8.592 20.049h34.308c1.223 0 2.208-.985 2.208-2.208l-53.341-122.376h-66.916c-1.492 0-2.625.926-3.312 2.389l-12.143 26.46c-.655 1.491-.357 2.656 1.136 2.656h8.441c5.043 0 7.936 2.923 7.936 7.935l-36.455 82.936c0 1.223.983 2.208 2.206 2.208zm72.971-90.156c.271-.834 1.017-1.461 1.851-1.461l.298-.03.3.03c.834 0 1.58.627 1.848 1.461l16.289 38.009c.537 1.253.119 2.026-1.134 2.026h-34.606c-1.254 0-1.671-.773-1.134-2.026z"/><g fill-rule="nonzero"><path d="m18.539 40.052c0 9.901 5.558 12.236 14.898 12.236h16.72c10.414 0 12.469-4.483 12.469-10.181v-3.176h-10.368c0 4.204-1.401 4.671-6.071 4.671h-11.069c-4.903 0-5.931-1.868-5.931-6.772v-3.643c0-4.203 1.028-6.772 6.492-6.772h11.302c3.082 0 4.857.701 4.857 3.129v.934h10.368c.093-9.574-1.821-12.75-16.579-12.75h-12.19c-9.34 0-14.898 2.336-14.898 12.237z"/><path d="m64.799 40.052c0 9.901 5.558 12.236 14.898 12.236h16.627c9.34 0 14.898-2.335 14.898-12.236v-10.087c0-9.901-5.558-12.237-14.898-12.237h-16.627c-9.34 0-14.898 2.336-14.898 12.237zm10.648-6.865c0-4.203 1.028-6.772 6.492-6.772h12.143c5.464 0 6.491 2.569 6.491 6.772v3.643c0 4.904-1.027 6.772-5.931 6.772h-13.263c-4.904 0-5.932-1.868-5.932-6.772z"/><path d="m113.382 51.915h33.673v-8.687h-23.305v-25.126h-10.368z"/><path d="m149.246 51.915h37.595v-8.126h-27.227v-5.418h25.219v-7.005h-25.219v-5.418h26.62v-7.846h-36.988z"/><path d="m188.792 40.052c0 9.901 5.557 12.236 14.898 12.236h16.719c10.415 0 12.47-4.483 12.47-10.181v-3.176h-10.368c0 4.204-1.401 4.671-6.071 4.671h-11.069c-4.904 0-5.931-1.868-5.931-6.772v-3.643c0-4.203 1.027-6.772 6.491-6.772h11.302c3.083 0 4.858.701 4.858 3.129v.934h10.368c.093-9.574-1.822-12.75-16.58-12.75h-12.189c-9.341 0-14.898 2.336-14.898 12.237z"/><path d="m235.039 40.052c0 9.901 5.557 12.236 14.898 12.236h16.626c9.34 0 14.898-2.335 14.898-12.236v-10.087c0-9.901-5.558-12.237-14.898-12.237h-16.626c-9.341 0-14.898 2.336-14.898 12.237zm10.648-6.865c0-4.203 1.027-6.772 6.491-6.772h12.143c5.464 0 6.492 2.569 6.492 6.772v3.643c0 4.904-1.028 6.772-5.931 6.772h-13.264c-4.904 0-5.931-1.868-5.931-6.772z"/></g><path d="m0 17.729v34.56c0 9.537 6.533 17.279 16.138 17.279h267.724c9.605 0 16.138-7.742 16.138-17.279v-34.56c0-9.538-6.533-17.281-16.138-17.281h-267.724c-9.605 0-16.138 7.743-16.138 17.281zm7.548 0c0-5.236 3.317-9.732 8.59-9.732h267.724c5.273 0 8.59 4.496 8.59 9.732v34.56c0 5.235-3.317 9.731-8.59 9.731h-267.724c-5.273 0-8.59-4.496-8.59-9.731v-34.56z"/></g></svg>