<svg clip-rule="evenodd" fill-rule="evenodd" stroke-linejoin="round" stroke-miterlimit="2" viewBox="0 0 600 179" xmlns="http://www.w3.org/2000/svg"><g fill="#fff"><path d="m26.399 91.631h32.8l31.999 56 37.601-56h27.2l-51.2 86.402h-26.893l-51.507-86.402z"/><path d="m456.799 91.631h82.401c14.789 0 27.966 11.483 28 27.202v59.199h-29.6v-51.198c0-8.546-5.082-10.278-11.202-10.401h-39.998v61.599h-29.601z"/><path d="m295.2 91.631v24.801h-70.4c-8.048 0-7.597 7.999 0 7.999h46.399c36.151 0 36.141 53.6 0 53.6h-72.799v-24h69.599c8.331 0 7.766-8 0-8h-43.199c-37.148 0-37.017-54.4 0-54.4z"/><path d="m303.201 91.631h29.6v86.4h-29.6z"/><path d="m160.799 91.631h29.6v86.4h-29.6z"/><path d="m368.001 91.631h55.201c17.524 0 28.799 11.934 28.799 26.399v31.997c0 22.691-19.605 28.002-28.799 28.002h-55.201c-20.736 0-29.6-16.686-29.6-28.002v-31.997c0-18.426 16.489-26.399 29.6-26.399zm11.201 24.096c-7.866.046-11.201 4.985-11.201 11.104v16c0 6.647 5.714 11.199 11.201 11.199h32.8c3.891 0 10.402-2.633 10.402-11.199v-16c0-5.384-3.274-11.339-10.402-11.3z"/><path d="m91.2.43h-64.8c-18.645 0-26.358 17.149-26.4 26.399v32c0 20.752 17.072 28.12 26.4 28h64.8v-23.998h-50.401c-3.528 0-12-2.614-12-10.401v-16.799c0-8.002 6.025-11.2 12-11.2h50.401v-24.001z"/><path d="m480.802.429h-64.802c-18.643 0-26.356 17.149-26.398 26.399v31.999c0 20.753 17.073 28.121 26.398 28.001h64.802v-23.999h-49.602c-3.531 0-11.999-2.613-11.999-10.401v-16.799c0-8.002 6.024-11.2 11.999-11.2h49.602v-24z"/><path d="m290.401.43h93.599v21.601h-64.8v8.001h64.8v21.601h-64.8c0 7.94 5.835 11.199 11.999 11.199h52.801v23.199h-68c-15.237 0-25.711-12.647-25.675-26.398l.076-59.203z"/><path d="m215.199.43h28.801v51.2c0 7.355 5.543 11.276 12 11.2h31.201v23.199h-44.801c-12.72 0-27.2-5.717-27.2-26.399l-.001-59.2z"/><path d="m125.599.43h55.2c17.521 0 28.802 11.934 28.802 26.399v32c0 22.691-19.606 28-28.802 28h-55.2c-20.734 0-28.8-16.684-28.8-28v-32c0-18.424 15.689-26.399 28.8-26.399zm11.2 24.096c-7.865.047-11.2 4.985-11.2 11.104v16.001c0 6.647 5.715 11.2 11.2 11.2h32.8c3.889 0 10.4-2.635 10.4-11.2v-16c0-5.381-3.279-11.339-10.4-11.297z"/><path d="m516 .43h55.203c17.52 0 28.797 11.934 28.797 26.399v32c0 22.691-19.605 28-28.797 28h-55.203c-20.733 0-29.6-16.684-29.6-28v-32c.001-18.424 16.49-26.399 29.6-26.399zm11.201 24.096c-7.866.046-11.201 4.985-11.201 11.103v16.001c0 6.647 5.714 11.2 11.201 11.2h32.801c3.89 0 10.401-2.635 10.401-11.2v-15.999c0-5.381-3.278-11.339-10.401-11.297z"/></g></svg>