<svg clip-rule="evenodd" fill-rule="evenodd" stroke-linejoin="round" stroke-miterlimit="2" viewBox="0 0 600 310" xmlns="http://www.w3.org/2000/svg"><g fill="#fff" fill-rule="nonzero"><path d="m62.662 8.033c14.823-5.849 30.925-7.203 46.695-7.732 3.253-.209 6.454.442 9.697.514 9.229.906 18.427 2.326 27.452 4.5 15.246 3.548 29.728 9.789 43.493 17.149 7.733 4.134 15.225 8.705 22.475 13.628 2.514 1.801 4.922 3.756 7.483 5.492 9.997 7.453 19.186 15.938 27.855 24.882.728.692 1.374 1.776 2.545 1.563 8.893-.235 17.842.987 26.322 3.69 7.825 2.601 15.45 7.127 19.853 14.304 4.826 7.631 5.533 16.946 5.742 25.743.005 15.439.005 30.873 0 46.312.02 1.746-.158 3.523.29 5.234 5.066 20.707 6.582 42.556 2.24 63.533-3.497 17.99-11.596 35.195-23.895 48.848-13.016 14.656-30.715 24.862-49.662 29.647-16.656 4.317-34.157 4.759-51.149 2.428-21.823-2.947-42.846-10.456-62.251-20.744-31.429-16.844-58.637-41.253-79.478-70.136-17.643-24.597-30.664-52.829-35.923-82.746-1.145-6.708-2.001-13.484-2.174-20.295-.356-3.94-.366-7.906-.01-11.846.759-21.802 7.27-43.727 20.291-61.401 3.573-4.006 6.719-8.399 10.664-12.069 9.057-8.739 19.793-15.744 31.445-20.498zm31.49-5.34c-19.222 2.224-38.087 9.982-52.249 23.345-2.459 1.751-4.169 4.261-6.215 6.424-5.921 6.694-10.594 14.406-14.258 22.535-4.144 9.825-6.898 20.261-7.931 30.874-.611 2.688-.229 5.467-.677 8.18-.729 18.931 2.463 37.924 8.384 55.903 6.735 20.458 16.87 39.731 29.296 57.298 19.13 26.766 43.533 49.836 71.78 66.777 17.898 10.7 37.409 18.86 57.848 23.172 14.513 3.028 29.519 3.975 44.246 2.112 17.48-2.189 34.569-8.949 48.074-20.382 11.281-9.392 19.888-21.828 25.147-35.506 5.594-14.304 7.518-29.815 7.233-45.096-.478-7.514-.967-15.073-2.56-22.449-.036 3.09-.27 6.16-.545 9.234-.916 8.904-3.329 18.219-9.748 24.806-4.785 5.203-11.194 8.797-18.066 10.385-10.548 2.53-21.467 1.751-32.217 1.883-16.107-.01-32.208.006-48.314-.004-.046-51.388-.03-102.771-.01-154.16 17.18.006 34.361-.005 51.541.006-12.324-12.981-26.099-24.582-40.993-34.508-26.135-17.247-56.224-29.444-87.673-31.52-7.372-.388-14.768-.225-22.093.691zm142.893 95.15c-.009 31.791 0 63.585-.005 95.375 3.935.051 7.87.046 11.81.01 2.764-.219 5.926-.565 7.778-2.891 2.296-2.927 2.001-6.857 2.057-10.359.01-23.411.03-46.823-.01-70.233.066-3.309-.25-6.822-2.306-9.561-1.991-1.562-4.5-2.255-6.999-2.311-4.109-.08-8.216.001-12.325-.03z"/><path d="m109.835 65.652c5.564-.336 11.173-.993 16.737-.265 6.684.183 13.343 1.374 19.721 3.37 8.389 2.591 16.472 7.157 21.807 14.273 4.505 6.053 6.114 13.709 6.404 21.11.026 6.918.021 13.836 0 20.754-14.111.046-28.221-.041-42.337.046-.392-5.05-.066-10.14-.163-15.2-.117-3.181.29-6.617-1.349-9.494-1.354-2.84-4.617-4.179-7.6-4.357-3.339-.214-6.994-.066-9.778 2.021-2.551 1.893-3.594 5.223-3.462 8.302.005 26.46-.015 52.926.005 79.385-.066 2.357.799 4.633 2.24 6.476 3.304 2.753 7.849 3.059 11.947 2.54 2.449-.433 5.101-1.461 6.373-3.742 1.94-3.07 1.492-6.872 1.619-10.334-.035-5.11.046-10.222-.046-15.327 14.36.03 28.721.015 43.076.005-.209 10.542.743 21.242-1.573 31.622-1.843 8.028-6.903 15.282-13.923 19.623-10.175 6.496-22.586 8.145-34.416 8.456-3.553.448-7.111-.143-10.67-.153-11.188-.667-22.896-2.332-32.395-8.746-5.472-3.527-9.799-8.73-12.324-14.726-2.642-6.037-3.192-12.731-3.141-19.247.005-21.375 0-42.75.005-64.129.056-6.715-.33-13.5.922-20.128 1.043-9.224 6.205-17.908 13.958-23.049 8.312-5.777 18.442-8.048 28.363-9.086z"/><path d="m307.37 68.004c36.29.061 72.58-.006 108.875.03.005 9.819.005 19.639 0 29.463-10.334.021-20.672.021-31.006-.005-.555.138-1.842-.32-1.822.586-.016 41.38.03 82.76-.01 124.136-14.472-.031-28.939.01-43.406-.021-.087-41.533.061-83.071-.076-124.604-10.878-.184-21.762-.026-32.641-.082-.183-6.765-.02-13.54-.071-20.311.096-3.063-.189-6.138.157-9.192z"/><path d="m420.841 68.034c14.152-.025 28.308.005 42.46-.01 4.815 35.272 9.651 70.543 14.457 105.815.549 3.92.972 7.87 1.68 11.764 5.619-39.161 10.817-78.398 16.391-117.574 14.36.005 28.72-.025 43.086.015-2.296 10.532-4.123 21.166-6.241 31.735-7.993 40.799-15.76 81.645-23.829 122.43-19.72-.031-39.44.041-59.161-.036-9.209-49.632-18.667-99.218-27.972-148.829-.311-1.767-.764-3.513-.871-5.31z"/><path d="m501.55 249.391c4.516-2.565 10.721-2.311 14.61 1.314 1.471 1.532 2.382 3.482 3.049 5.482-1.67.423-3.324.907-5.004 1.253-.484-1.578-1.105-3.375-2.724-4.103-1.792-1.059-3.93-.927-5.884-.525-3.075 1.436-4.78 4.816-4.806 8.115-.138 3.105.356 6.653 2.846 8.806 1.781 1.67 4.469 2.006 6.77 1.406 2.276-.805 3.691-2.943 4.449-5.136 1.63.651 3.238 1.359 4.877 1.995-.26.443-.504.896-.738 1.349-1.675 4.001-5.783 6.786-10.105 6.938-3.548.296-7.243-.89-9.768-3.43-2.882-3.014-4.103-7.31-3.925-11.413-.101-4.715 2.236-9.607 6.353-12.051z"/><path d="m362.877 248.338c1.669-.005 3.344-.01 5.018.01.036 9.107.021 18.214.01 27.316-1.679.03-3.354.025-5.029.015-.02-9.112-.015-18.229.001-27.341z"/><path d="m374.126 248.343c1.461-.006 2.923-.006 4.388-.051 4.236 6.23 7.967 12.802 12.187 19.043.087-1.277-.01-2.545-.143-3.807-.254-4.093-.041-8.206-.412-12.288-.056-.988.091-1.965.208-2.938 1.523.046 3.055.046 4.587-.015.336 1.313.208 2.677.224 4.021 0 7.794-.016 15.587.005 23.381-1.486-.082-3.055.188-4.485-.138-4.082-6.149-7.702-12.609-11.861-18.702.173 6.271.285 12.543.321 18.819-1.68.026-3.355.026-5.029 0-.015-9.106-.036-18.218.01-27.325z"/><path d="m399.09 248.399c6.729-.005 13.459-.056 20.194.02 0 1.573-.006 3.146-.026 4.719-2.515.015-5.024.01-7.534.025-.015 7.498.01 14.997-.015 22.5-1.685.031-3.365.031-5.045.01-.051-7.503 0-15.002-.025-22.505-2.505-.056-5.014.02-7.519-.05-.03-1.573-.035-3.146-.03-4.719z"/><path d="m422.954 248.348c6.434-.01 12.874-.04 19.313.01.015 1.573.015 3.157-.025 4.734-4.76-.02-9.514.01-14.269-.01-.005 2.097 0 4.2-.015 6.297 4.393.082 8.791-.025 13.184.066 0 1.441-.005 2.887-.03 4.332-4.383.031-8.761-.01-13.138.026-.006 2.387 0 4.78-.01 7.167 5.095.112 10.196-.03 15.291.128 0 1.517-.005 3.044-.015 4.566-6.76.04-13.521.025-20.281.005-.041-9.107-.03-18.214-.005-27.321z"/><path d="m447.042 248.363c3.497-.046 6.999-.015 10.507-.04 2.673-.041 5.503.717 7.447 2.642 2.657 2.916 3.146 7.798.718 10.995-.947 1.258-2.367 2.016-3.711 2.759 1.874 3.696 4.124 7.193 5.859 10.96-1.873.01-3.741-.02-5.609.03-2.037-3.232-3.544-6.76-5.468-10.048-1.486-.153-2.978-.173-4.464-.142-.036 3.38-.005 6.755-.01 10.135-1.761.041-3.517.041-5.274.005.005-9.097.015-18.199.005-27.296zm5.258 4.541c-.005 2.83.031 5.66-.03 8.491 2.387.173 4.775-.188 7.137-.514 2.81-.825 3.721-4.933 1.435-6.806-2.377-1.975-5.722-1.059-8.542-1.171z"/><path d="m478.526 248.307c1.792.03 3.589.051 5.386-.02.723 1.074 1.074 2.336 1.482 3.558 2.621 7.977 5.482 15.867 8.078 23.849-1.766-.01-3.533-.021-5.294.02-.774-1.7-1.069-3.559-1.716-5.299-3.385-.01-6.765 0-10.145-.01-.626 1.73-1.09 3.512-1.624 5.274-1.842.01-3.685.02-5.518-.031 3.243-9.066 6.073-18.279 9.351-27.341zm-.834 17.491c2.453-.015 4.912-.01 7.37.005-1.145-4.017-2.336-8.018-3.584-12.004-1.603 3.859-2.56 7.993-3.786 11.999z"/><path d="m521.179 248.383c6.633 0 13.266.031 19.899-.025.249 1.594.158 3.207-.021 4.805-2.463-.045-4.922-.02-7.381-.01.067 7.498-.015 14.997.041 22.5-1.751.046-3.497.041-5.243.021-.02-7.509.005-15.017-.01-22.525-2.428-.01-4.856-.01-7.279 0-.011-1.589-.011-3.177-.006-4.766z"/><path d="m545.13 248.338c1.67-.005 3.344-.005 5.024.005-.005 9.107.016 18.214-.01 27.321-1.679.03-3.354.03-5.029.01-.011-9.112-.041-18.224.015-27.336z"/><path d="m553.667 248.338c1.71-.005 3.426.005 5.141-.025 2.271 7.024 3.874 14.283 6.236 21.273 1.573-5.697 3.151-11.393 4.729-17.084.448-1.415.616-2.932 1.384-4.22 1.681.067 3.361.051 5.051.081-2.648 9.102-5.203 18.229-7.835 27.336-2.275-.03-4.545-.01-6.811-.015-2.596-9.122-5.544-18.163-7.895-27.346z"/><path d="m579.694 248.323c6.399.05 12.803-.021 19.201.025.016 1.497.016 2.988.066 4.485-1.293.417-2.662.224-3.986.249-3.481-.005-6.963-.005-10.44.01 0 2.072.02 4.149-.021 6.226 4.373.209 8.751.03 13.129.097.02 1.471.102 2.947-.072 4.418-4.337-.101-8.673-.015-13.011-.05-.005 2.443-.153 4.897.107 7.34 5.029-.178 10.064.03 15.099-.102.087 1.553.081 3.111.03 4.668-6.73-.02-13.459.01-20.188-.009.116-9.124-.077-18.241.086-27.357z"/><path d="m362.887 279.812c2.489-.036 4.973-.03 7.462.01 1.72 6.618 3.329 13.286 5.289 19.838 1.781-6.608 3.482-13.24 5.192-19.868 2.474.01 4.948-.016 7.427.03.005 9.107 0 18.219 0 27.326-1.679 0-3.35.005-5.019.01-.031-7.229.249-14.447.417-21.665-2.102 7.157-3.935 14.4-5.748 21.639-1.557.031-3.11.031-4.662 0-1.873-7.177-3.716-14.36-5.696-21.507-.372 3.492.31 6.974.107 10.471.249 3.681.178 7.366.27 11.057-1.68 0-3.36 0-5.039-.01-.031-9.112-.031-18.224 0-27.331z"/><path d="m395.598 279.817c1.731-.025 3.457-.03 5.187-.03-.005 5.605-.03 11.209-.005 16.814.097 1.578-.015 3.42 1.267 4.586 1.686 1.71 4.312 1.777 6.531 1.359 2.103-.362 3.915-2.29 3.777-4.49-.015-6.077-.03-12.161-.01-18.239 1.777-.03 3.548-.03 5.33-.005-.025 5.92-.02 11.846-.005 17.766.02 2.52-.662 5.192-2.499 7.009-2.316 2.398-5.778 3.279-9.026 3.198-3.161-.016-6.612-.993-8.567-3.65-1.68-1.731-1.975-4.271-2.005-6.572.025-5.915-.021-11.831.025-17.746z"/><path d="m425.479 279.797c1.664-.015 3.329-.01 4.998.03.016 7.519.026 15.042 0 22.571 3.574.011 7.147.011 10.721.005.025 1.579.025 3.162 0 4.745-5.259.02-10.517-.03-15.771.035.108-9.127.006-18.259.052-27.386z"/><path d="m441.071 279.812c6.678-.005 13.357-.005 20.036 0 .005 1.563.005 3.131.005 4.699-2.474.056-4.943-.036-7.412.04 0 6.883-.02 13.765.03 20.652-.01.662-.081 1.324-.208 1.98-1.68-.046-3.355-.035-5.029-.03-.062-7.544.04-15.083-.051-22.627-2.443-.138-4.892.056-7.33-.061-.097-1.553-.021-3.105-.041-4.653z"/><path d="m466.35 279.817c1.716-.025 3.436-.03 5.162-.015-.01 9.122.158 18.26-.092 27.376-1.69-.035-3.38-.03-5.065-.03-.03-9.112-.01-18.219-.005-27.331z"/><path d="m478.939 279.797c2.469 0 4.932-.01 7.401.015 1.558 6.577 3.568 13.042 5.009 19.644.738-.331.642-1.262.901-1.894 1.487-5.94 3.07-11.865 4.628-17.786 2.463.041 4.927 0 7.396.036-.005 9.107 0 18.214 0 27.321-1.659.02-3.319.02-4.968.035-.091-7.243.178-14.482.316-21.721-1.99 7.203-3.96 14.411-5.712 21.676-1.547.035-3.095.04-4.637.015-1.853-7.167-3.884-14.299-5.584-21.512-.499 7.172.295 14.334.28 21.512-1.685.015-3.37.015-5.05.015.02-9.117-.006-18.234.02-27.356z"/><path d="m511.584 279.802c6.418-.016 12.832-.005 19.252-.005.005 1.527.02 3.059.091 4.586-4.749-.01-9.504-.091-14.248.061-.128 2.098-.082 4.2-.061 6.307 4.393.132 8.806-.193 13.189.168-.03 1.369-.036 2.744-.02 4.123-4.388.031-8.777-.03-13.159.036-.056 2.418-.026 4.836-.036 7.259 5.085.01 10.171-.015 15.256.005.021 1.604.021 3.207.01 4.811-6.755-.006-13.51.005-20.27 0-.03-9.117-.014-18.234-.004-27.351z"/><path d="m536.659 279.833c3.498-.046 6.995 0 10.497-.036 3.202-.036 6.516.972 8.842 3.253 3.121 3.303 4.159 8.109 3.767 12.532-.403 3.268-1.543 6.679-4.164 8.832-2.597 2.25-6.19 2.739-9.499 2.749-3.151-.066-6.308.087-9.453-.097.005-9.076.02-18.157.01-27.233zm5.315 4.673c-.01 5.935.005 11.876-.005 17.816 3.013-.026 6.241.443 9.061-.87 2.423-1.125 3.182-4.011 3.283-6.455.194-3.049-.131-6.536-2.468-8.76-2.79-2.297-6.542-1.706-9.871-1.731z"/><path d="m565.711 279.812c1.73-.025 3.461-.03 5.197.01-.02 9.102-.005 18.199-.005 27.3-1.644.036-3.289.021-4.923.071-.168-.478-.259-.961-.285-1.455.01-8.644.026-17.282.016-25.926z"/><path d="m584.983 279.792c1.904.01 3.807 0 5.716.005 3.07 9.132 6.211 18.239 9.301 27.361-1.797-.01-3.589-.021-5.375.015-.667-1.787-1.08-3.65-1.736-5.432-3.35.015-6.7-.066-10.039.061-.616 1.777-1.125 3.589-1.741 5.371-1.832-.036-3.655-.015-5.477-.051 3.201-9.081 6.164-18.249 9.351-27.33zm-.779 17.419c2.444-.005 4.887.016 7.336-.01-1.166-4.037-2.312-8.089-3.635-12.074-1.451 3.945-2.525 8.042-3.701 12.084z"/></g></svg>