<svg clip-rule="evenodd" fill-rule="evenodd" stroke-linejoin="round" stroke-miterlimit="2" viewBox="0 0 600 177" xmlns="http://www.w3.org/2000/svg"><g fill="#fff"><path d="m53.601 82.758c-3.712 1.079-7.639 1.658-11.7 1.658-23.126 0-41.901-18.776-41.901-41.902s18.775-41.901 41.901-41.901c4.061 0 7.988.579 11.7 1.658v22.07c-3.372-2.177-7.389-3.442-11.7-3.442-11.929 0-21.615 9.686-21.615 21.615 0 11.93 9.686 21.615 21.615 21.615 4.311 0 8.328-1.264 11.7-3.441z"/><path d="m73.145 43.989h-19.544v16.713h36.256zm0-2.949 16.712-16.713h-36.256v16.713z"/><path d="m135.558 38.369h12.495c-1.039-11.715-4.429-14.573-21.86-14.573-19.793 0-24.222 3.118-24.222 17.691 0 14.585 4.169 17.974 22.651 17.974 19.522 0 23.431-2.609 23.431-14.844h-12.495c0 3.389-1.299 4.948-10.936 4.948-8.337 0-10.156-2.079-10.156-8.858 0-6.507 1.819-6.507 11.727-6.507 7.287 0 8.586.791 9.365 4.169z"/><path d="m292.191 23.796h-11.715v34.355h12.494v-17.703c0-5.197 3.118-7.027 9.366-7.027 6.519 0 8.337 2.09 8.337 8.857v15.873h12.755v-18.223c0-4.937 3.649-6.507 9.637-6.507 5.728 0 8.586 1.83 8.586 6.507v18.223h12.506v-20.302c0-10.144-6.247-14.845-17.703-14.845-9.896 0-13.286 3.39-14.845 7.559-2.61-4.429-6.247-7.559-16.144-7.559-9.117 0-11.455 3.13-13.274 8.858z"/><path d="m214.227 23.796h-11.716v34.355h12.495v-17.703c0-5.197 2.61-7.027 9.637-7.027 6.507 0 8.338 2.35 8.338 8.857v15.873h12.754v-18.223c0-4.937 3.898-6.507 9.885-6.507 5.728 0 8.338 1.57 8.338 6.507v18.223h12.495v-20.302c0-10.144-6.248-14.845-17.703-14.845-9.897 0-13.534 3.65-14.845 7.559-2.598-4.429-6.248-7.559-16.144-7.559-9.365 0-11.975 3.13-13.534 8.858z"/><path d="m524.782 23.796h-11.975v34.355h12.495v-17.963c0-4.677 2.869-7.027 8.078-7.027 5.208 0 6.507 1.559 6.767 5.988h11.715c0-11.716-1.559-16.145-14.054-16.145-7.546 0-10.156 1.571-13.026 7.299z"/><path d="m199.245 40.448c0-14.054-3.909-16.912-23.95-16.912-21.612 0-24.222 3.378-24.222 17.951 0 14.845 3.649 17.974 24.222 17.974 21.872 0 23.95-3.649 23.95-19.013zm-35.158.791c0-7.039 1.571-7.818 10.417-7.818 10.156 0 11.987.26 11.987 7.818 0 7.027-1.311 8.326-10.936 8.326-10.157 0-11.468-1.039-11.468-8.326z"/><path d="m406.11 40.448c0-14.054-4.157-16.912-24.21-16.912-21.612 0-24.21 3.637-24.21 18.211 0 14.585 3.637 17.714 24.21 17.714 21.872 0 24.21-3.649 24.21-19.013zm-35.665.791c0-7.039 1.57-7.818 10.676-7.818 10.156 0 11.975.26 11.975 7.818 0 7.027-1.299 8.326-10.936 8.326-10.416 0-11.715-1.039-11.715-8.326z"/><path d="m509.515 40.448c0-14.054-3.897-16.912-23.938-16.912-21.352 0-23.951 3.378-23.951 17.951 0 14.845 3.638 17.974 23.951 17.974 21.86 0 23.938-3.649 23.938-19.013zm-35.394.791c0-7.039 1.559-7.818 10.676-7.818 10.145 0 11.975.26 11.975 7.818 0 7.027-1.31 8.326-10.935 8.326-10.417 0-11.716-1.039-11.716-8.326z"/><path d="m445.061 9.211v20.041c-2.858-3.897-5.468-5.976-15.885-5.976-16.663 0-19.781 4.429-19.781 17.963 0 13.794 4.417 17.691 20.561 17.691 10.156 0 13.274-2.598 15.624-7.027v6.248h12.495v-48.94zm-9.118 23.95c7.027 0 9.377 1.039 9.377 6.507 0 8.338-.519 9.117-10.416 9.117-9.885 0-12.495-.259-12.495-7.298 0-8.066 3.13-8.326 13.534-8.326z"/><path d="m580.986 51.384c-11.975 0-13.794-1.04-13.794-7.027h32.808c-.52-16.652-.52-20.561-22.651-20.561-18.754 0-22.923 3.377-22.923 18.222 0 13.794 5.48 17.172 20.573 17.443 16.923 0 25.001-.791 25.001-11.975h-12.235c-.531 2.598-1.571 3.898-6.779 3.898zm-14.054-14.314c.52-3.649 1.559-4.948 9.885-4.948 9.129 0 10.417.519 10.948 4.948z"/><g fill-rule="nonzero"><path d="m358.377 175.227h23.054v-81.82h-29.948l-34.694 22.603 11.414 16.386 30.174-19.325z"/><path d="m397.823 175.227h95.833v-17.629h-72.779c0-7.346 1.582-9.38 12.092-9.945l25.88-1.356c29.27-1.583 33.677-5.651 33.677-29.722 0-17.065-6.102-24.072-29.609-24.072h-32.999c-22.602 0-32.095 5.425-32.095 21.585v9.606h23.732v-3.503c0-8.476 3.278-10.058 13.901-10.058h16.612c16.048 0 16.726 1.469 16.726 8.137 0 8.024-1.243 8.363-19.551 9.493l-28.705 1.808c-16.16 1.13-22.715 7.798-22.715 17.856z"/><path d="m503.488 156.355c0 13.109 7.685 19.777 25.315 19.777h47.239c15.256 0 23.958-4.86 23.958-18.534v-6.555c0-11.188-5.877-15.03-14.352-17.404v-.226c11.527-1.469 13.674-7.345 13.674-16.16v-5.312c0-15.482-9.493-19.438-30.4-19.438h-24.863c-32.208 0-40.119 1.243-40.119 19.551v4.634c0 11.64 6.894 15.934 14.127 17.177v.226c-10.962 1.583-14.579 6.329-14.579 15.144zm33.452 2.147c-8.476 0-9.719-2.486-9.719-8.25 0-6.329 1.13-8.137 11.075-8.137h26.897c9.945 0 11.075 1.808 11.075 8.137 0 5.764-1.243 8.25-9.719 8.25zm.339-33.339c-7.346 0-9.606-2.938-9.606-7.571 0-5.651 3.39-7.459 7.685-7.459h32.547c4.294 0 7.685 1.808 7.685 7.459 0 4.633-2.261 7.571-9.606 7.571z"/></g></g></svg>