<svg clip-rule="evenodd" fill-rule="evenodd" stroke-linejoin="round" stroke-miterlimit="2" viewBox="0 0 600 178" xmlns="http://www.w3.org/2000/svg"><g fill="#fff"><path d="m53.601 83.107c-3.712 1.079-7.639 1.658-11.7 1.658-23.126 0-41.901-18.776-41.901-41.902s18.775-41.901 41.901-41.901c4.061 0 7.988.579 11.7 1.658v22.07c-3.372-2.177-7.389-3.441-11.7-3.441-11.929 0-21.615 9.685-21.615 21.614 0 11.93 9.686 21.615 21.615 21.615 4.311 0 8.328-1.264 11.7-3.441z"/><path d="m73.145 44.338h-19.544v16.713h36.256zm0-2.949 16.712-16.713h-36.256v16.713z"/><path d="m135.558 38.718h12.495c-1.039-11.715-4.429-14.573-21.86-14.573-19.793 0-24.222 3.118-24.222 17.691 0 14.585 4.169 17.975 22.651 17.975 19.522 0 23.431-2.61 23.431-14.845h-12.495c0 3.389-1.299 4.948-10.936 4.948-8.337 0-10.156-2.079-10.156-8.858 0-6.507 1.819-6.507 11.727-6.507 7.287 0 8.586.792 9.365 4.169z"/><path d="m292.191 24.145h-11.715v34.355h12.494v-17.703c0-5.197 3.118-7.027 9.366-7.027 6.519 0 8.337 2.09 8.337 8.857v15.873h12.755v-18.223c0-4.936 3.649-6.507 9.637-6.507 5.728 0 8.586 1.83 8.586 6.507v18.223h12.506v-20.301c0-10.145-6.247-14.845-17.703-14.845-9.896 0-13.286 3.389-14.845 7.558-2.61-4.429-6.247-7.558-16.144-7.558-9.117 0-11.455 3.129-13.274 8.857z"/><path d="m214.227 24.145h-11.716v34.355h12.495v-17.703c0-5.197 2.61-7.027 9.637-7.027 6.507 0 8.338 2.35 8.338 8.857v15.873h12.754v-18.223c0-4.936 3.898-6.507 9.885-6.507 5.728 0 8.338 1.571 8.338 6.507v18.223h12.495v-20.301c0-10.145-6.248-14.845-17.703-14.845-9.897 0-13.534 3.649-14.845 7.558-2.598-4.429-6.248-7.558-16.144-7.558-9.365 0-11.975 3.129-13.534 8.857z"/><path d="m524.782 24.145h-11.975v34.355h12.495v-17.963c0-4.677 2.869-7.027 8.078-7.027 5.208 0 6.507 1.559 6.767 5.988h11.715c0-11.716-1.559-16.144-14.054-16.144-7.546 0-10.156 1.57-13.026 7.298z"/><path d="m199.245 40.797c0-14.054-3.909-16.912-23.95-16.912-21.612 0-24.222 3.378-24.222 17.951 0 14.845 3.649 17.975 24.222 17.975 21.872 0 23.95-3.65 23.95-19.014zm-35.158.791c0-7.039 1.571-7.818 10.417-7.818 10.156 0 11.987.26 11.987 7.818 0 7.027-1.311 8.326-10.936 8.326-10.157 0-11.468-1.039-11.468-8.326z"/><path d="m406.11 40.797c0-14.054-4.157-16.912-24.21-16.912-21.612 0-24.21 3.637-24.21 18.211 0 14.585 3.637 17.715 24.21 17.715 21.872 0 24.21-3.65 24.21-19.014zm-35.665.791c0-7.039 1.57-7.818 10.676-7.818 10.156 0 11.975.26 11.975 7.818 0 7.027-1.299 8.326-10.936 8.326-10.416 0-11.715-1.039-11.715-8.326z"/><path d="m509.515 40.797c0-14.054-3.897-16.912-23.938-16.912-21.352 0-23.951 3.378-23.951 17.951 0 14.845 3.638 17.975 23.951 17.975 21.86 0 23.938-3.65 23.938-19.014zm-35.394.791c0-7.039 1.559-7.818 10.676-7.818 10.145 0 11.975.26 11.975 7.818 0 7.027-1.31 8.326-10.935 8.326-10.417 0-11.716-1.039-11.716-8.326z"/><path d="m445.061 9.56v20.041c-2.858-3.897-5.468-5.976-15.885-5.976-16.663 0-19.781 4.429-19.781 17.963 0 13.794 4.417 17.691 20.561 17.691 10.156 0 13.274-2.598 15.624-7.027v6.248h12.495v-48.94zm-9.118 23.95c7.027 0 9.377 1.039 9.377 6.507 0 8.338-.519 9.117-10.416 9.117-9.885 0-12.495-.259-12.495-7.298 0-8.066 3.13-8.326 13.534-8.326z"/><path d="m580.986 51.733c-11.975 0-13.794-1.04-13.794-7.027h32.808c-.52-16.652-.52-20.561-22.651-20.561-18.754 0-22.923 3.377-22.923 18.222 0 13.794 5.48 17.172 20.573 17.444 16.923 0 25.001-.792 25.001-11.976h-12.235c-.531 2.599-1.571 3.898-6.779 3.898zm-14.054-14.314c.52-3.649 1.559-4.948 9.885-4.948 9.129 0 10.417.519 10.948 4.948z"/><g fill-rule="nonzero"><path d="m209.411 176.364h38.58l27.066-81.991h-27.519l-18.837 60.927-18.837-60.927h-27.519z"/><path d="m279.964 147.599c0 24.009 13.477 29.671 36.126 29.671h23.555c25.254 0 30.237-10.872 30.237-24.688v-7.701h-25.141c0 10.193-3.397 11.325-14.722 11.325h-9.852c-11.891 0-14.382-4.53-14.382-16.421v-8.833c0-10.192 2.491-16.421 15.741-16.421h10.419c7.474 0 11.777 1.699 11.777 7.588v2.265h25.141c.227-23.216-4.417-30.917-40.203-30.917h-12.57c-22.649 0-36.126 5.663-36.126 29.671z"/><path d="m404.574 119.588h23.827c.431-7.075 3.956-8.454 13.884-8.454h12.872c16.081 0 12.986 1.472 12.986 8.154 0 8.04 2.529 8.38-15.817 9.512l-24.99 1.812c-16.194 1.133-22.762 7.814-22.762 17.893v27.859h88.483v-20.498h-65.381c-.144-4.273 1.585-6.568 12.117-7.134l18.384-1.359c29.331-1.586 33.748-5.663 33.748-29.784 0-17.1-6.116-24.122-29.671-24.122h-25.518c-22.65 0-32.162 5.436-32.162 21.63z"/><path d="m532.656 126.535c0-8.493 2.718-12.683 14.495-12.683h13.892c11.778 0 14.496 4.19 14.496 12.683v17.667c0 8.493-2.718 12.684-14.496 12.684h-13.892c-11.777 0-14.495-4.191-14.495-12.684zm-24.461 21.97c0 21.291 9.739 28.765 29.33 28.765h33.144c19.592 0 29.331-7.474 29.331-28.765v-22.876c0-24.914-9.06-32.162-35.899-32.162h-20.007c-26.84 0-35.899 7.248-35.899 32.162z"/></g></g></svg>