<?xml version="1.0" encoding="UTF-8" standalone="no"?><!DOCTYPE svg PUBLIC "-//W3C//DTD SVG 1.1//EN" "http://www.w3.org/Graphics/SVG/1.1/DTD/svg11.dtd"><svg width="100%" height="100%" viewBox="0 0 600 84" version="1.1" xmlns="http://www.w3.org/2000/svg" xmlns:xlink="http://www.w3.org/1999/xlink" xml:space="preserve" xmlns:serif="http://www.serif.com/" style="fill-rule:evenodd;clip-rule:evenodd;stroke-linejoin:round;stroke-miterlimit:2;"><g id="commodore"><g><path d="M53.601,82.145c-3.712,1.079 -7.639,1.658 -11.7,1.658c-23.126,-0 -41.901,-18.776 -41.901,-41.902c0,-23.126 18.775,-41.901 41.901,-41.901c4.061,-0 7.988,0.579 11.7,1.658l0,22.07c-3.372,-2.177 -7.389,-3.442 -11.7,-3.442c-11.929,0 -21.615,9.686 -21.615,21.615c0,11.93 9.686,21.615 21.615,21.615c4.311,0 8.328,-1.264 11.7,-3.441l0,22.07Z" style="fill:#fff;"/><path d="M73.145,43.376l-19.544,0l0,16.713l36.256,-0l-16.712,-16.713Zm-0,-2.949l16.712,-16.713l-36.256,0l0,16.713l19.544,-0Z" style="fill:#fff;"/></g><g><path d="M135.558,37.756l12.495,0c-1.039,-11.715 -4.429,-14.573 -21.86,-14.573c-19.793,-0 -24.222,3.118 -24.222,17.691c0,14.585 4.169,17.974 22.651,17.974c19.522,0 23.431,-2.609 23.431,-14.844l-12.495,-0c0,3.389 -1.299,4.948 -10.936,4.948c-8.337,-0 -10.156,-2.079 -10.156,-8.858c-0,-6.507 1.819,-6.507 11.727,-6.507c7.287,0 8.586,0.791 9.365,4.169Z" style="fill:#fff;"/><path d="M292.191,23.183l-11.715,-0l-0,34.355l12.494,-0l0,-17.703c0,-5.197 3.118,-7.027 9.366,-7.027c6.519,-0 8.337,2.09 8.337,8.857l0,15.873l12.755,-0l0,-18.223c0,-4.937 3.649,-6.507 9.637,-6.507c5.728,-0 8.586,1.83 8.586,6.507l-0,18.223l12.506,-0l0,-20.302c0,-10.144 -6.247,-14.845 -17.703,-14.845c-9.896,0 -13.286,3.39 -14.845,7.559c-2.61,-4.429 -6.247,-7.559 -16.144,-7.559c-9.117,0 -11.455,3.13 -13.274,8.858l-0,-8.066Z" style="fill:#fff;"/><path d="M214.227,23.183l-11.716,-0l0,34.355l12.495,-0l0,-17.703c0,-5.197 2.61,-7.027 9.637,-7.027c6.507,-0 8.338,2.35 8.338,8.857l-0,15.873l12.754,-0l0,-18.223c0,-4.937 3.898,-6.507 9.885,-6.507c5.728,-0 8.338,1.57 8.338,6.507l-0,18.223l12.495,-0l-0,-20.302c-0,-10.144 -6.248,-14.845 -17.703,-14.845c-9.897,0 -13.534,3.65 -14.845,7.559c-2.598,-4.429 -6.248,-7.559 -16.144,-7.559c-9.365,0 -11.975,3.13 -13.534,8.858l-0,-8.066Z" style="fill:#fff;"/><path d="M524.782,23.183l-11.975,-0l-0,34.355l12.495,-0l-0,-17.963c-0,-4.677 2.869,-7.027 8.078,-7.027c5.208,-0 6.507,1.559 6.767,5.988l11.715,-0c-0,-11.716 -1.559,-16.145 -14.054,-16.145c-7.546,0 -10.156,1.571 -13.026,7.299l-0,-6.507Z" style="fill:#fff;"/><path d="M199.245,39.835c0,-14.054 -3.909,-16.912 -23.95,-16.912c-21.612,-0 -24.222,3.378 -24.222,17.951c-0,14.845 3.649,17.974 24.222,17.974c21.872,0 23.95,-3.649 23.95,-19.013Zm-35.158,0.791c0,-7.039 1.571,-7.818 10.417,-7.818c10.156,-0 11.987,0.26 11.987,7.818c-0,7.027 -1.311,8.326 -10.936,8.326c-10.157,-0 -11.468,-1.039 -11.468,-8.326Z" style="fill:#fff;"/><path d="M406.11,39.835c0,-14.054 -4.157,-16.912 -24.21,-16.912c-21.612,-0 -24.21,3.637 -24.21,18.211c-0,14.585 3.637,17.714 24.21,17.714c21.872,0 24.21,-3.649 24.21,-19.013Zm-35.665,0.791c-0,-7.039 1.57,-7.818 10.676,-7.818c10.156,-0 11.975,0.26 11.975,7.818c-0,7.027 -1.299,8.326 -10.936,8.326c-10.416,-0 -11.715,-1.039 -11.715,-8.326Z" style="fill:#fff;"/><path d="M509.515,39.835c0,-14.054 -3.897,-16.912 -23.938,-16.912c-21.352,-0 -23.951,3.378 -23.951,17.951c0,14.845 3.638,17.974 23.951,17.974c21.86,0 23.938,-3.649 23.938,-19.013Zm-35.394,0.791c0,-7.039 1.559,-7.818 10.676,-7.818c10.145,-0 11.975,0.26 11.975,7.818c0,7.027 -1.31,8.326 -10.935,8.326c-10.417,-0 -11.716,-1.039 -11.716,-8.326Z" style="fill:#fff;"/><path d="M445.061,8.598l-0,20.041c-2.858,-3.897 -5.468,-5.976 -15.885,-5.976c-16.663,0 -19.781,4.429 -19.781,17.963c-0,13.794 4.417,17.691 20.561,17.691c10.156,0 13.274,-2.598 15.624,-7.027l0,6.248l12.495,-0l0,-48.94l-13.014,-0Zm-9.118,23.95c7.027,-0 9.377,1.039 9.377,6.507c0,8.338 -0.519,9.117 -10.416,9.117c-9.885,0 -12.495,-0.259 -12.495,-7.298c0,-8.066 3.13,-8.326 13.534,-8.326Z" style="fill:#fff;"/><path d="M580.986,50.771c-11.975,-0 -13.794,-1.04 -13.794,-7.027l32.808,-0c-0.52,-16.652 -0.52,-20.561 -22.651,-20.561c-18.754,-0 -22.923,3.377 -22.923,18.222c-0,13.794 5.48,17.172 20.573,17.443c16.923,0 25.001,-0.791 25.001,-11.975l-12.235,0c-0.531,2.598 -1.571,3.898 -6.779,3.898Zm-14.054,-14.314c0.52,-3.649 1.559,-4.948 9.885,-4.948c9.129,-0 10.417,0.519 10.948,4.948l-20.833,0Z" style="fill:#fff;"/></g></g></svg>