<?xml version="1.0" encoding="UTF-8" standalone="no"?><!DOCTYPE svg PUBLIC "-//W3C//DTD SVG 1.1//EN" "http://www.w3.org/Graphics/SVG/1.1/DTD/svg11.dtd"><svg width="100%" height="100%" viewBox="0 0 600 211" version="1.1" xmlns="http://www.w3.org/2000/svg" xmlns:xlink="http://www.w3.org/1999/xlink" xml:space="preserve" xmlns:serif="http://www.serif.com/" style="fill-rule:evenodd;clip-rule:evenodd;stroke-linejoin:round;stroke-miterlimit:2;"><g id="commodore_16_c"><g><g><path d="M453.887,166.424c-24.116,-0 -30.925,-5.391 -30.925,-22.981c-0,-17.307 6.525,-22.414 32.06,-22.414l55.04,0c25.535,0 32.06,5.107 32.06,22.414c0,17.59 -6.809,22.981 -30.925,22.981l-57.31,-0Zm-90.505,-27.805c-0,53.339 28.005,72.064 77.087,72.064l82.443,0c48.799,0 77.088,-6.525 77.088,-57.027l0,-17.874c0,-37.166 -10.781,-57.31 -71.496,-57.31l-58.729,-0c-24.683,-0 -36.6,5.39 -46.813,15.604l-0,-24.399c-0,-16.172 9.079,-24.684 30.641,-24.684l55.324,0c22.13,0 31.209,4.824 31.209,18.726l54.473,-0l0,-16.172c0,-26.102 -19.493,-46.813 -79.357,-46.813l-58.327,-0c-67.241,-0 -93.543,18.158 -93.543,80.575l-0,57.31Z" style="fill:#fff;fill-rule:nonzero;"/></g><rect x="271.895" y="3.004" width="62.985" height="205.41" style="fill:#fff;fill-rule:nonzero;"/></g><g><g><path d="M134.286,206.529c-9.3,2.704 -19.138,4.154 -29.311,4.154c-57.937,0 -104.975,-47.037 -104.975,-104.975c0,-57.937 47.038,-104.974 104.975,-104.974c10.173,-0 20.011,1.45 29.311,4.154l-0,55.291c-8.449,-5.454 -18.513,-8.622 -29.311,-8.622c-29.887,0 -54.152,24.265 -54.152,54.151c0,29.887 24.265,54.152 54.152,54.152c10.798,-0 20.862,-3.168 29.311,-8.622l-0,55.291Z" style="fill:#fff;"/><path d="M183.248,109.403l-48.962,-0l-0,41.869l90.832,0l-41.87,-41.869Zm0,-7.389l41.87,-41.869l-90.832,-0l-0,41.869l48.962,-0Z" style="fill:#fff;"/></g></g></g></svg>