<svg clip-rule="evenodd" fill-rule="evenodd" stroke-linejoin="round" stroke-miterlimit="2" viewBox="0 0 600 71" xmlns="http://www.w3.org/2000/svg"><g fill="#fff"><path d="m38.904 20.184h-23.595c-2.72 0-5.027.263-6.923.782-1.964.537-3.563 1.395-4.804 2.562-1.247 1.173-2.164 2.687-2.741 4.549-.558 1.798-.841 3.99-.841 6.578v8.999c0 2.588.283 4.788.84 6.603.577 1.88 1.495 3.404 2.742 4.577 1.243 1.168 2.843 2.018 4.809 2.537 1.895.501 4.201.755 6.918.755h23.595c.597 0 1.032-.183 1.33-.481s.481-.734.481-1.33v-5.127c0-.596-.183-1.031-.481-1.329s-.733-.481-1.33-.481h-23.281c-1.295 0-2.366-.104-3.212-.32-.757-.193-1.363-.51-1.808-.971-.45-.465-.763-1.1-.958-1.895-.217-.883-.321-1.991-.321-3.323v-7.429c0-1.33.104-2.428.32-3.293.195-.78.509-1.407.959-1.873.445-.46 1.051-.777 1.808-.97.846-.216 1.917-.32 3.212-.32h23.281c.601 0 1.04-.19 1.34-.504.291-.305.471-.75.471-1.359v-5.127c0-.596-.183-1.031-.481-1.329s-.733-.481-1.33-.481z"/><path d="m75.146 20.184h-16.166c-2.719 0-5.027.263-6.923.782-1.964.537-3.562 1.395-4.803 2.562-1.248 1.173-2.165 2.687-2.742 4.549-.557 1.798-.841 3.99-.841 6.578v8.999c0 2.588.283 4.788.84 6.603.577 1.88 1.495 3.404 2.743 4.577 1.242 1.168 2.843 2.018 4.808 2.537 1.895.501 4.201.755 6.918.755h16.166c2.717 0 5.031-.254 6.943-.754 1.984-.519 3.594-1.37 4.836-2.538 1.249-1.175 2.159-2.7 2.718-4.583.539-1.813.812-4.012.812-6.597v-8.999c0-2.586-.274-4.776-.813-6.572-.559-1.864-1.468-3.38-2.717-4.555-1.241-1.167-2.849-2.025-4.831-2.563-1.913-.518-4.229-.781-6.948-.781zm-22.151 22.895v-7.848c0-1.298.105-2.388.321-3.27.195-.795.508-1.431.958-1.896.445-.46 1.051-.778 1.808-.97.847-.216 1.917-.32 3.212-.32h15.539c1.294 0 2.365.104 3.211.32.757.192 1.363.51 1.808.97.45.465.763 1.101.958 1.896.217.882.322 1.972.322 3.27v7.848c0 1.298-.105 2.388-.322 3.27-.195.795-.508 1.43-.958 1.895-.445.461-1.051.778-1.808.971-.846.216-1.917.32-3.211.32h-15.539c-1.295 0-2.365-.104-3.212-.32-.757-.193-1.363-.51-1.808-.971-.45-.465-.763-1.1-.958-1.895-.216-.882-.321-1.972-.321-3.27z"/><path d="m465.005 70.045 27.128-24.415v-16.277l-33.458-28.485 8.138 28.033 18.99 5.426v6.329l-15.825 5.878z"/><path d="m526.043 70.045-27.128-24.415v-16.277l33.458-28.485-8.138 28.033-18.99 5.426v6.329l15.825 5.878z"/><path d="m103.277 29.141h.23c.021 0 .05.004.069.007l.01.023 10.568 23.438c.436.981.883 1.807 1.337 2.48.474.702.988 1.279 1.539 1.734.578.479 1.236.819 1.975 1.018.694.188 1.509.285 2.447.285h2.512c.938 0 1.754-.097 2.448-.285.738-.199 1.396-.539 1.975-1.018.55-.455 1.064-1.032 1.538-1.734.454-.673.901-1.499 1.337-2.48 0 0 10.568-23.438 10.568-23.438l.01-.023c.02-.003.048-.007.069-.007h.23v27.174c0 .596.183 1.032.481 1.33s.733.481 1.33.481h5.336c.609 0 1.054-.18 1.358-.471.314-.3.505-.739.505-1.34v-30.031c0-2.182-.389-3.713-1.078-4.612-.722-.943-2.1-1.488-4.186-1.488h-5.598c-.816 0-1.512.058-2.087.169-.637.123-1.201.361-1.695.711-.481.34-.914.799-1.295 1.38-.349.532-.708 1.237-1.075 2.117 0 0-10.879 25.105-10.879 25.105-.024.054-.069.078-.129.078h-.628c-.06 0-.104-.023-.129-.076-.001-.002-10.879-25.107-10.879-25.107-.367-.88-.727-1.585-1.076-2.117-.38-.581-.814-1.04-1.295-1.38-.493-.349-1.067-.589-1.724-.712-.593-.111-1.296-.168-2.11-.168h-5.703c-2.122 0-3.517.547-4.238 1.488-.689.899-1.078 2.43-1.078 4.612v30.031c0 .601.191 1.04.505 1.34.304.291.749.471 1.358.471h5.337c.596 0 1.031-.183 1.329-.481s.481-.734.481-1.33z"/><path d="m164.389 29.141h.23c.021 0 .05.004.07.007l.009.023 10.568 23.438c.436.981.883 1.807 1.337 2.48.475.702.989 1.279 1.539 1.734.578.479 1.237.819 1.975 1.018.694.188 1.51.285 2.448.285h2.511c.938 0 1.754-.097 2.448-.285.738-.199 1.396-.539 1.975-1.018.55-.455 1.064-1.032 1.538-1.734.455-.673.901-1.499 1.337-2.48 0 0 10.568-23.438 10.568-23.438l.01-.023c.02-.003.048-.007.069-.007h.23v27.174c0 .596.183 1.032.481 1.33s.734.481 1.33.481h5.336c.609 0 1.054-.18 1.359-.471.314-.3.504-.739.504-1.34v-30.031c0-2.182-.389-3.713-1.078-4.612-.722-.943-2.1-1.488-4.185-1.488h-5.599c-.816 0-1.512.058-2.087.169-.637.123-1.201.361-1.694.711-.481.34-.915.799-1.296 1.38-.348.532-.708 1.237-1.075 2.117 0 0-10.879 25.105-10.879 25.105-.024.054-.069.078-.129.078h-.628c-.06 0-.104-.023-.128-.076-.001-.002-10.88-25.107-10.88-25.107-.367-.88-.727-1.585-1.075-2.117-.381-.581-.815-1.04-1.296-1.38-.493-.349-1.067-.589-1.724-.712-.592-.111-1.296-.168-2.11-.168h-5.703c-2.122 0-3.517.547-4.238 1.488-.689.899-1.077 2.43-1.077 4.612v30.031c0 .601.19 1.04.504 1.34.304.291.75.471 1.358.471h5.337c.596 0 1.031-.183 1.329-.481s.481-.734.481-1.33z"/><path d="m240.833 20.184h-3.087c-1.253 0-2.348.309-3.287.916-.903.583-1.842 1.707-2.783 3.399-.001.002-.001.003-.002.005l-17.161 31.443c-.003.007-.007.014-.011.021-.28.561-.296 1.031-.156 1.395.16.417.592.763 1.426.763h6.802c.831 0 1.42-.352 1.784-1.027l3.424-6.403h23.805s3.517 6.39 3.517 6.39c.318.671.903 1.04 1.791 1.04h6.644c.791 0 1.21-.334 1.374-.763.141-.364.124-.834-.156-1.395-.004-.008-.008-.015-.012-.023l-17.319-31.446c-.944-1.699-1.925-2.826-2.907-3.411-.999-.596-2.226-.904-3.686-.904zm-1.067 8.748.019.027c.002.003 7.788 14.35 7.788 14.35h-15.789l7.688-14.348c.006-.009.014-.021.021-.029z"/><path d="m277.121 29.141h.23c.065 0 .11.054.164.117.003.004 19.506 25.52 19.506 25.52.545.727 1.028 1.298 1.446 1.716.456.456.924.801 1.401 1.039.48.24 1.029.403 1.649.483.563.072 1.263.11 2.098.11h4.5c1.818 0 3.149-.463 4.018-1.313.855-.835 1.35-2.419 1.35-4.788v-30.031c0-.596-.183-1.031-.481-1.329s-.733-.481-1.329-.481h-5.494c-.596 0-1.031.183-1.329.481s-.481.733-.481 1.329v27.174h-.23c-.046 0-.088.002-.108-.034-.014-.025-.03-.049-.048-.072l-19.46-25.528c-.507-.687-.96-1.239-1.359-1.655-.435-.455-.891-.809-1.365-1.066-.486-.263-1.051-.439-1.698-.519-.579-.073-1.304-.11-2.174-.11h-4.604c-1.818 0-3.149.463-4.019 1.313-.854.835-1.349 2.418-1.349 4.787v30.031c0 .601.19 1.04.504 1.34.305.291.75.471 1.359.471h5.493c.596 0 1.031-.183 1.33-.481.298-.298.48-.734.48-1.33z"/><path d="m344.028 20.184h-24.485c-.736 0-1.276.218-1.643.585-.368.368-.586.908-.586 1.644v33.484c0 .735.218 1.275.586 1.643.367.368.907.586 1.643.586h24.485c2.896 0 5.38-.299 7.453-.889 2.134-.607 3.878-1.551 5.239-2.82 1.369-1.276 2.381-2.902 3.029-4.881.629-1.924.948-4.198.948-6.824v-7.115c0-2.625-.319-4.899-.948-6.823-.648-1.98-1.66-3.605-3.029-4.882-1.361-1.269-3.105-2.213-5.239-2.82-2.073-.59-4.557-.888-7.453-.888zm-17.389 29.35-.001-.02v-20.666c0-.022.002-.049.005-.072l.015-.001h17.161c1.467 0 2.701.129 3.702.396.925.247 1.677.641 2.247 1.196.567.551.964 1.29 1.209 2.209.267 1 .397 2.234.397 3.701v5.755c0 1.468-.13 2.702-.397 3.702-.245.918-.642 1.658-1.209 2.209-.57.555-1.322.949-2.247 1.195-1.001.267-2.235.397-3.702.397h-17.161z"/><path d="m373.31 35.095c.007-1.243.104-2.291.297-3.145.179-.788.488-1.417.948-1.877.464-.463 1.08-.784 1.842-.978.847-.216 1.917-.32 3.212-.32h22.863c.609 0 1.054-.18 1.358-.471.314-.3.505-.739.505-1.339v-4.971c0-.601-.191-1.039-.505-1.34-.304-.291-.749-.47-1.358-.47h-23.02c-2.719 0-5.027.263-6.923.782-1.964.537-3.562 1.395-4.803 2.562-1.248 1.173-2.165 2.687-2.742 4.549-.557 1.798-.841 3.99-.841 6.578v8.999c0 2.588.283 4.788.84 6.603.577 1.88 1.495 3.404 2.743 4.577 1.242 1.168 2.843 2.018 4.808 2.537 1.895.501 4.201.755 6.918.755h23.02c.609 0 1.054-.18 1.358-.471.314-.3.505-.739.505-1.34v-4.97c0-.601-.191-1.039-.505-1.34-.304-.291-.749-.47-1.358-.47h-22.863c-1.295 0-2.365-.104-3.212-.32-.762-.194-1.378-.515-1.842-.978-.46-.461-.769-1.09-.948-1.877-.2-.885-.297-1.979-.297-3.281v-.23h28.901c.596 0 1.031-.183 1.329-.481s.481-.734.481-1.33v-4.133c0-.596-.183-1.031-.481-1.329s-.733-.481-1.329-.481z"/><path d="m438 20.184h-28.095c-.735 0-1.275.218-1.643.585-.368.368-.586.908-.586 1.644v33.902c0 .601.191 1.04.505 1.34.304.291.749.471 1.358.471h5.65c.597 0 1.032-.183 1.33-.481s.481-.734.481-1.33v-9.752h15.912s8.063 10.615 8.063 10.615c.236.328.479.555.715.697.238.143.661.251 1.281.251h6.749c.9 0 1.355-.411 1.484-1.053.12-.602-.02-1.046-.312-1.354.003.003-8.253-10.232-8.253-10.232 2.406-.611 4.172-1.752 5.319-3.39 1.287-1.838 1.95-4.333 1.95-7.494v-2.982c0-3.764-.954-6.595-2.8-8.514-1.843-1.917-4.869-2.923-9.108-2.923zm-21 8.487.021-.001h19.358c1.546 0 2.653.28 3.29.947.635.665.916 1.69.916 3.05v2.198c0 1.36-.281 2.384-.916 3.05-.637.667-1.744.947-3.29.947h-19.379z"/><path d="m549.443 20.184h-6.958c-.609 0-1.054.179-1.358.47-.314.301-.505.739-.505 1.34v4.657c0 .6.191 1.039.505 1.339.304.291.749.471 1.358.471h2.982c.155 0 .281.004.358.082.077.077.081.203.081.357v27.415c0 .596.183 1.032.481 1.33s.734.481 1.33.481h5.389c.596 0 1.031-.183 1.329-.481s.481-.734.481-1.33v-31.025c0-1.755-.46-3.028-1.297-3.846-.827-.807-2.208-1.26-4.176-1.26z"/><path d="m596.777 20.184h-22.235c-2.72 0-5.027.263-6.924.782-1.963.537-3.562 1.395-4.803 2.562-1.247 1.173-2.164 2.687-2.742 4.549-.557 1.798-.84 3.99-.84 6.578v8.999c0 2.588.283 4.788.84 6.603.577 1.88 1.495 3.404 2.742 4.577 1.243 1.168 2.843 2.018 4.809 2.537 1.895.501 4.2.755 6.918.755h15.277c3.687 0 6.287-.881 7.833-2.538 1.549-1.661 2.348-3.977 2.348-6.963v-3.82c0-1.463-.167-2.77-.496-3.922-.346-1.21-.925-2.226-1.732-3.052-.8-.819-1.834-1.452-3.109-1.89-1.227-.421-2.72-.637-4.478-.637h-21.89v-.335c0-1.335.097-2.437.297-3.304.18-.781.487-1.415.937-1.895.444-.473 1.047-.797 1.801-.989.846-.216 1.917-.32 3.212-.32h22.235c.596 0 1.031-.183 1.33-.481.298-.298.48-.733.48-1.329v-4.657c0-.596-.182-1.031-.48-1.329-.299-.298-.734-.481-1.33-.481zm-28.482 22.194h20.32c.88 0 1.514.137 1.871.522.365.392.504 1.036.504 1.905v2.773c0 .872-.149 1.523-.529 1.931-.372.4-1.015.549-1.898.549h-14.021c-1.295 0-2.366-.104-3.212-.32-.757-.193-1.363-.51-1.808-.97-.448-.463-.751-1.094-.93-1.885-.2-.885-.297-1.979-.297-3.281z"/></g></svg>