<svg clip-rule="evenodd" fill-rule="evenodd" stroke-linejoin="round" stroke-miterlimit="2" viewBox="0 0 600 57" xmlns="http://www.w3.org/2000/svg"><g fill="#fff"><path d="m27.855 48.998c-1.929.561-3.97.862-6.08.862-12.018 0-21.775-9.757-21.775-21.775s9.757-21.775 21.775-21.775c2.11 0 4.151.301 6.08.862v11.469c-1.753-1.132-3.84-1.789-6.08-1.789-6.2 0-11.233 5.033-11.233 11.233 0 6.199 5.033 11.232 11.233 11.232 2.24 0 4.327-.657 6.08-1.788z"/><path d="m38.011 28.851h-10.156v8.685h18.841zm0-1.532 8.685-8.685h-18.841v8.685z"/><path d="m70.445 25.931h6.494c-.541-6.088-2.302-7.574-11.36-7.574-10.286 0-12.588 1.621-12.588 9.194 0 7.579 2.167 9.341 11.771 9.341 10.145 0 12.177-1.357 12.177-7.715h-6.494c0 1.762-.675 2.572-5.683 2.572-4.333 0-5.278-1.08-5.278-4.603 0-3.382.945-3.382 6.095-3.382 3.786 0 4.461.411 4.866 2.167z"/><path d="m151.842 18.357h-6.088v17.854h6.494v-9.2c0-2.7 1.62-3.652 4.866-3.652 3.388 0 4.333 1.087 4.333 4.603v8.249h6.628v-9.47c0-2.566 1.897-3.382 5.008-3.382 2.977 0 4.462.952 4.462 3.382v9.47h6.499v-10.55c0-5.272-3.246-7.715-9.199-7.715-5.143 0-6.905 1.762-7.715 3.928-1.356-2.301-3.246-3.928-8.389-3.928-4.738 0-5.953 1.627-6.899 4.603z"/><path d="m111.327 18.357h-6.088v17.854h6.493v-9.2c0-2.7 1.356-3.652 5.008-3.652 3.381 0 4.333 1.222 4.333 4.603v8.249h6.628v-9.47c0-2.566 2.025-3.382 5.137-3.382 2.976 0 4.333.816 4.333 3.382v9.47h6.493v-10.55c0-5.272-3.247-7.715-9.2-7.715-5.143 0-7.033 1.897-7.714 3.928-1.351-2.301-3.247-3.928-8.39-3.928-4.867 0-6.223 1.627-7.033 4.603z"/><path d="m272.713 18.357h-6.223v17.854h6.493v-9.335c0-2.43 1.491-3.652 4.198-3.652 2.706 0 3.381.81 3.516 3.112h6.088c0-6.088-.81-8.39-7.303-8.39-3.922 0-5.278.816-6.769 3.793z"/><path d="m103.542 27.011c0-7.303-2.032-8.789-12.447-8.789-11.231 0-12.587 1.756-12.587 9.329 0 7.714 1.896 9.341 12.587 9.341 11.366 0 12.447-1.897 12.447-9.881zm-18.271.411c0-3.658.816-4.063 5.413-4.063 5.278 0 6.229.135 6.229 4.063 0 3.652-.681 4.327-5.683 4.327-5.278 0-5.959-.54-5.959-4.327z"/><path d="m211.043 27.011c0-7.303-2.161-8.789-12.582-8.789-11.231 0-12.581 1.891-12.581 9.464 0 7.579 1.89 9.206 12.581 9.206 11.367 0 12.582-1.897 12.582-9.881zm-18.535.411c0-3.658.817-4.063 5.548-4.063 5.278 0 6.224.135 6.224 4.063 0 3.652-.676 4.327-5.684 4.327-5.413 0-6.088-.54-6.088-4.327z"/><path d="m264.779 27.011c0-7.303-2.025-8.789-12.44-8.789-11.096 0-12.446 1.756-12.446 9.329 0 7.714 1.89 9.341 12.446 9.341 11.36 0 12.44-1.897 12.44-9.881zm-18.393.411c0-3.658.81-4.063 5.548-4.063 5.272 0 6.223.135 6.223 4.063 0 3.652-.681 4.327-5.683 4.327-5.413 0-6.088-.54-6.088-4.327z"/><path d="m231.284 10.778v10.415c-1.485-2.025-2.842-3.106-8.255-3.106-8.659 0-10.279 2.302-10.279 9.335 0 7.168 2.295 9.194 10.684 9.194 5.278 0 6.899-1.351 8.12-3.652v3.247h6.493v-25.433zm-4.738 12.446c3.652 0 4.873.54 4.873 3.382 0 4.333-.27 4.738-5.413 4.738-5.137 0-6.493-.135-6.493-3.793 0-4.192 1.626-4.327 7.033-4.327z"/><path d="m301.92 32.694c-6.223 0-7.168-.54-7.168-3.652h17.049c-.27-8.653-.27-10.685-11.771-10.685-9.746 0-11.912 1.756-11.912 9.47 0 7.168 2.847 8.924 10.691 9.065 8.794 0 12.992-.411 12.992-6.223h-6.358c-.276 1.35-.816 2.025-3.523 2.025zm-7.303-7.438c.27-1.897.81-2.572 5.137-2.572 4.744 0 5.413.27 5.689 2.572z"/><g fill-rule="nonzero"><path d="m394.755 49.87h20.273l14.223-43.084h-14.461l-9.898 32.016-9.898-32.016h-14.461z"/><path d="m431.829 34.755c0 12.616 7.082 15.591 18.983 15.591h12.378c13.271 0 15.889-5.712 15.889-12.973v-4.046h-13.211c0 5.356-1.785 5.951-7.736 5.951h-5.177c-6.249 0-7.558-2.381-7.558-8.629v-4.642c0-5.355 1.309-8.628 8.272-8.628h5.475c3.927 0 6.188.892 6.188 3.987v1.19h13.211c.119-12.199-2.32-16.246-21.125-16.246h-6.606c-11.901 0-18.983 2.976-18.983 15.591z"/><path d="m497.308 20.036h12.521c.226-3.718 2.079-4.443 7.296-4.443h6.764c8.45 0 6.823.774 6.823 4.285 0 4.225 1.329 4.404-8.311 4.999l-13.131.952c-8.51.595-11.962 4.106-11.962 9.402v14.639h46.496v-10.771h-34.356c-.076-2.245.833-3.451 6.367-3.749l9.661-.714c15.412-.833 17.733-2.975 17.733-15.651 0-8.985-3.213-12.675-15.591-12.675h-13.409c-11.902 0-16.901 2.856-16.901 11.366z"/><path d="m564.612 23.687c0-4.464 1.429-6.665 7.617-6.665h7.3c6.189 0 7.617 2.201 7.617 6.665v9.283c0 4.463-1.428 6.665-7.617 6.665h-7.3c-6.188 0-7.617-2.202-7.617-6.665zm-12.853 11.544c0 11.188 5.117 15.115 15.412 15.115h17.416c10.295 0 15.413-3.927 15.413-15.115v-12.021c0-13.091-4.761-16.9-18.864-16.9h-10.513c-14.104 0-18.864 3.809-18.864 16.9z"/></g><path d="m325.562 0h42.663v6.237h-42.663z"/><path d="m325.562 12.481h42.663v6.237h-42.663z"/><path d="m325.562 24.963h42.663v6.244h-42.663z"/><path d="m325.562 37.452h42.663v6.236h-42.663z"/><path d="m325.562 49.933h42.663v6.237h-42.663z"/></g></svg>