<svg clip-rule="evenodd" fill-rule="evenodd" stroke-linejoin="round" stroke-miterlimit="2" viewBox="0 0 600 310" xmlns="http://www.w3.org/2000/svg"><g fill="#fff" fill-rule="nonzero"><path d="m62.662 8.398c14.823-5.849 30.925-7.203 46.695-7.733 3.253-.208 6.454.443 9.697.514 9.229.906 18.427 2.326 27.452 4.5 15.246 3.548 29.728 9.789 43.493 17.15 7.733 4.133 15.225 8.704 22.475 13.627 2.514 1.802 4.922 3.756 7.483 5.492 9.997 7.453 19.186 15.939 27.855 24.883.728.692 1.374 1.776 2.545 1.562 8.893-.234 17.842.988 26.322 3.691 7.825 2.601 15.45 7.126 19.853 14.304 4.826 7.63 5.533 16.946 5.742 25.742.005 15.44.005 30.873 0 46.313.02 1.746-.158 3.523.29 5.233 5.066 20.708 6.582 42.556 2.24 63.534-3.497 17.99-11.596 35.195-23.895 48.848-13.016 14.655-30.715 24.861-49.662 29.646-16.656 4.317-34.157 4.76-51.149 2.428-21.823-2.947-42.846-10.455-62.251-20.743-31.429-16.845-58.637-41.253-79.478-70.137-17.643-24.597-30.664-52.828-35.923-82.745-1.145-6.709-2.001-13.485-2.174-20.296-.356-3.94-.366-7.905-.01-11.846.759-21.802 7.27-43.727 20.291-61.4 3.573-4.007 6.719-8.4 10.664-12.07 9.057-8.738 19.793-15.743 31.445-20.497zm31.49-5.341c-19.222 2.225-38.087 9.982-52.249 23.345-2.459 1.751-4.169 4.261-6.215 6.425-5.921 6.694-10.594 14.405-14.258 22.535-4.144 9.825-6.898 20.26-7.931 30.873-.611 2.688-.229 5.467-.677 8.181-.729 18.931 2.463 37.924 8.384 55.903 6.735 20.458 16.87 39.731 29.296 57.298 19.13 26.765 43.533 49.835 71.78 66.776 17.898 10.701 37.409 18.861 57.848 23.172 14.513 3.029 29.519 3.976 44.246 2.113 17.48-2.19 34.569-8.949 48.074-20.382 11.281-9.392 19.888-21.828 25.147-35.506 5.594-14.304 7.518-29.816 7.233-45.097-.478-7.513-.967-15.072-2.56-22.448-.036 3.09-.27 6.159-.545 9.234-.916 8.903-3.329 18.219-9.748 24.806-4.785 5.202-11.194 8.796-18.066 10.384-10.548 2.53-21.467 1.752-32.217 1.884-16.107-.01-32.208.005-48.314-.005-.046-51.388-.03-102.771-.01-154.159 17.18.005 34.361-.005 51.541.005-12.324-12.981-26.099-24.582-40.993-34.508-26.135-17.247-56.224-29.443-87.673-31.52-7.372-.388-14.768-.225-22.093.691zm142.893 95.151c-.009 31.79 0 63.585-.005 95.375 3.935.051 7.87.046 11.81.01 2.764-.219 5.926-.565 7.778-2.891 2.296-2.928 2.001-6.858 2.057-10.36.01-23.411.03-46.822-.01-70.233.066-3.308-.25-6.821-2.306-9.56-1.991-1.563-4.5-2.255-6.999-2.311-4.109-.081-8.216.001-12.325-.03z"/><path d="m109.835 66.016c5.564-.336 11.173-.992 16.737-.265 6.684.184 13.343 1.375 19.721 3.37 8.389 2.591 16.472 7.158 21.807 14.274 4.505 6.052 6.114 13.708 6.404 21.11.026 6.918.021 13.836 0 20.754-14.111.045-28.221-.041-42.337.045-.392-5.05-.066-10.14-.163-15.2-.117-3.181.29-6.617-1.349-9.493-1.354-2.841-4.617-4.179-7.6-4.358-3.339-.213-6.994-.066-9.778 2.021-2.551 1.894-3.594 5.223-3.462 8.302.005 26.46-.015 52.926.005 79.386-.066 2.357.799 4.632 2.24 6.475 3.304 2.754 7.849 3.059 11.947 2.54 2.449-.433 5.101-1.461 6.373-3.742 1.94-3.069 1.492-6.872 1.619-10.333-.035-5.111.046-10.222-.046-15.328 14.36.031 28.721.015 43.076.005-.209 10.542.743 21.243-1.573 31.622-1.843 8.028-6.903 15.282-13.923 19.624-10.175 6.495-22.586 8.145-34.416 8.455-3.553.448-7.111-.143-10.67-.153-11.188-.667-22.896-2.331-32.395-8.745-5.472-3.528-9.799-8.731-12.324-14.726-2.642-6.038-3.192-12.732-3.141-19.248.005-21.374 0-42.749.005-64.129.056-6.714-.33-13.5.922-20.127 1.043-9.224 6.205-17.908 13.958-23.05 8.312-5.777 18.442-8.048 28.363-9.086z"/><path d="m307.37 68.368c36.29.061 72.58-.005 108.875.03.005 9.82.005 19.64 0 29.464-10.334.02-20.672.02-31.006-.005-.555.137-1.842-.321-1.822.585-.016 41.381.03 82.761-.01 124.136-14.472-.03-28.939.01-43.406-.02-.087-41.533.061-83.071-.076-124.605-10.878-.183-21.762-.025-32.641-.081-.183-6.765-.02-13.541-.071-20.311.096-3.064-.189-6.139.157-9.193z"/><path d="m420.841 68.398c14.152-.025 28.308.006 42.46-.01 4.815 35.272 9.651 70.544 14.457 105.815.549 3.92.972 7.87 1.68 11.765 5.619-39.161 10.817-78.398 16.391-117.574 14.36.004 28.72-.026 43.086.015-2.296 10.532-4.123 21.166-6.241 31.734-7.993 40.8-15.76 81.646-23.829 122.43-19.72-.031-39.44.041-59.161-.035-9.209-49.632-18.667-99.218-27.972-148.83-.311-1.767-.764-3.512-.871-5.31z"/><path d="m501.55 249.756c4.516-2.566 10.721-2.311 14.61 1.313 1.471 1.532 2.382 3.482 3.049 5.483-1.67.423-3.324.906-5.004 1.252-.484-1.578-1.105-3.375-2.724-4.103-1.792-1.058-3.93-.926-5.884-.524-3.075 1.435-4.78 4.815-4.806 8.114-.138 3.105.356 6.653 2.846 8.807 1.781 1.67 4.469 2.006 6.77 1.405 2.276-.804 3.691-2.942 4.449-5.136 1.63.651 3.238 1.359 4.877 1.995-.26.444-.504.896-.738 1.35-1.675 4.001-5.783 6.785-10.105 6.938-3.548.295-7.243-.891-9.768-3.431-2.882-3.013-4.103-7.31-3.925-11.413-.101-4.715 2.236-9.607 6.353-12.05z"/><path d="m362.877 248.702c1.669-.004 3.344-.01 5.018.011.036 9.106.021 18.213.01 27.315-1.679.031-3.354.025-5.029.016-.02-9.113-.015-18.23.001-27.342z"/><path d="m374.126 248.707c1.461-.005 2.923-.005 4.388-.051 4.236 6.231 7.967 12.803 12.187 19.044.087-1.278-.01-2.546-.143-3.808-.254-4.092-.041-8.206-.412-12.288-.056-.987.091-1.965.208-2.937 1.523.046 3.055.046 4.587-.016.336 1.314.208 2.678.224 4.022 0 7.793-.016 15.587.005 23.38-1.486-.082-3.055.188-4.485-.137-4.082-6.15-7.702-12.609-11.861-18.702.173 6.271.285 12.542.321 18.819-1.68.025-3.355.025-5.029 0-.015-9.107-.036-18.219.01-27.326z"/><path d="m399.09 248.763c6.729-.005 13.459-.056 20.194.021 0 1.573-.006 3.146-.026 4.719-2.515.015-5.024.01-7.534.025-.015 7.498.01 14.997-.015 22.5-1.685.03-3.365.03-5.045.01-.051-7.504 0-15.002-.025-22.505-2.505-.056-5.014.02-7.519-.051-.03-1.573-.035-3.146-.03-4.719z"/><path d="m422.954 248.713c6.434-.011 12.874-.041 19.313.01.015 1.573.015 3.156-.025 4.734-4.76-.021-9.514.01-14.269-.01-.005 2.097 0 4.199-.015 6.297 4.393.081 8.791-.026 13.184.066 0 1.441-.005 2.886-.03 4.332-4.383.03-8.761-.01-13.138.025-.006 2.388 0 4.78-.01 7.168 5.095.112 10.196-.031 15.291.127 0 1.517-.005 3.044-.015 4.566-6.76.041-13.521.025-20.281.005-.041-9.107-.03-18.214-.005-27.32z"/><path d="m447.042 248.727c3.497-.046 6.999-.015 10.507-.04 2.673-.041 5.503.718 7.447 2.642 2.657 2.917 3.146 7.799.718 10.995-.947 1.258-2.367 2.017-3.711 2.76 1.874 3.695 4.124 7.193 5.859 10.96-1.873.009-3.741-.021-5.609.03-2.037-3.233-3.544-6.76-5.468-10.049-1.486-.152-2.978-.173-4.464-.142-.036 3.38-.005 6.755-.01 10.135-1.761.041-3.517.041-5.274.005.005-9.097.015-18.199.005-27.296zm5.258 4.541c-.005 2.831.031 5.661-.03 8.491 2.387.173 4.775-.188 7.137-.514 2.81-.824 3.721-4.932 1.435-6.806-2.377-1.975-5.722-1.059-8.542-1.171z"/><path d="m478.526 248.672c1.792.03 3.589.051 5.386-.021.723 1.074 1.074 2.337 1.482 3.558 2.621 7.977 5.482 15.868 8.078 23.849-1.766-.01-3.533-.02-5.294.02-.774-1.7-1.069-3.558-1.716-5.299-3.385-.01-6.765 0-10.145-.01-.626 1.731-1.09 3.512-1.624 5.274-1.842.01-3.685.02-5.518-.03 3.243-9.067 6.073-18.28 9.351-27.341zm-.834 17.49c2.453-.015 4.912-.01 7.37.006-1.145-4.017-2.336-8.018-3.584-12.004-1.603 3.859-2.56 7.993-3.786 11.998z"/><path d="m521.179 248.748c6.633 0 13.266.03 19.899-.025.249 1.593.158 3.207-.021 4.805-2.463-.046-4.922-.021-7.381-.01.067 7.498-.015 14.997.041 22.5-1.751.045-3.497.041-5.243.02-.02-7.508.005-15.016-.01-22.525-2.428-.01-4.856-.01-7.279 0-.011-1.589-.011-3.177-.006-4.765z"/><path d="m545.13 248.702c1.67-.004 3.344-.004 5.024.006-.005 9.106.016 18.213-.01 27.32-1.679.031-3.354.031-5.029.01-.011-9.112-.041-18.224.015-27.336z"/><path d="m553.667 248.702c1.71-.004 3.426.006 5.141-.025 2.271 7.025 3.874 14.284 6.236 21.273 1.573-5.696 3.151-11.392 4.729-17.083.448-1.415.616-2.933 1.384-4.22 1.681.066 3.361.051 5.051.081-2.648 9.102-5.203 18.229-7.835 27.336-2.275-.03-4.545-.01-6.811-.015-2.596-9.123-5.544-18.164-7.895-27.347z"/><path d="m579.694 248.687c6.399.051 12.803-.02 19.201.026.016 1.496.016 2.988.066 4.484-1.293.418-2.662.225-3.986.25-3.481-.005-6.963-.005-10.44.01 0 2.072.02 4.149-.021 6.225 4.373.209 8.751.031 13.129.097.02 1.471.102 2.947-.072 4.419-4.337-.102-8.673-.015-13.011-.051-.005 2.443-.153 4.897.107 7.34 5.029-.177 10.064.031 15.099-.101.087 1.552.081 3.11.03 4.668-6.73-.02-13.459.01-20.188-.01.116-9.123-.077-18.24.086-27.357z"/><path d="m362.887 280.177c2.489-.036 4.973-.031 7.462.01 1.72 6.617 3.329 13.286 5.289 19.837 1.781-6.607 3.482-13.24 5.192-19.868 2.474.01 4.948-.015 7.427.031.005 9.106 0 18.219 0 27.325-1.679 0-3.35.006-5.019.01-.031-7.228.249-14.447.417-21.665-2.102 7.157-3.935 14.401-5.748 21.64-1.557.03-3.11.03-4.662 0-1.873-7.178-3.716-14.36-5.696-21.507-.372 3.492.31 6.974.107 10.471.249 3.68.178 7.366.27 11.056-1.68 0-3.36 0-5.039-.01-.031-9.112-.031-18.224 0-27.33z"/><path d="m395.598 280.182c1.731-.026 3.457-.031 5.187-.031-.005 5.605-.03 11.209-.005 16.814.097 1.578-.015 3.421 1.267 4.587 1.686 1.71 4.312 1.776 6.531 1.359 2.103-.362 3.915-2.291 3.777-4.49-.015-6.078-.03-12.161-.01-18.239 1.777-.031 3.548-.031 5.33-.005-.025 5.92-.02 11.845-.005 17.766.02 2.519-.662 5.192-2.499 7.009-2.316 2.398-5.778 3.279-9.026 3.197-3.161-.015-6.612-.993-8.567-3.65-1.68-1.731-1.975-4.271-2.005-6.572.025-5.915-.021-11.83.025-17.745z"/><path d="m425.479 280.161c1.664-.015 3.329-.01 4.998.031.016 7.518.026 15.042 0 22.571 3.574.01 7.147.01 10.721.005.025 1.578.025 3.161 0 4.744-5.259.021-10.517-.03-15.771.036.108-9.127.006-18.26.052-27.387z"/><path d="m441.071 280.177c6.678-.005 13.357-.005 20.036 0 .005 1.562.005 3.13.005 4.698-2.474.056-4.943-.035-7.412.041 0 6.882-.02 13.765.03 20.652-.01.662-.081 1.323-.208 1.98-1.68-.046-3.355-.036-5.029-.03-.062-7.545.04-15.084-.051-22.628-2.443-.137-4.892.057-7.33-.06-.097-1.553-.021-3.106-.041-4.653z"/><path d="m466.35 280.182c1.716-.026 3.436-.031 5.162-.016-.01 9.122.158 18.26-.092 27.377-1.69-.036-3.38-.031-5.065-.031-.03-9.112-.01-18.218-.005-27.33z"/><path d="m478.939 280.161c2.469 0 4.932-.01 7.401.016 1.558 6.577 3.568 13.042 5.009 19.644.738-.331.642-1.263.901-1.894 1.487-5.941 3.07-11.866 4.628-17.786 2.463.041 4.927 0 7.396.036-.005 9.106 0 18.213 0 27.32-1.659.021-3.319.021-4.968.036-.091-7.244.178-14.483.316-21.721-1.99 7.203-3.96 14.411-5.712 21.675-1.547.036-3.095.041-4.637.015-1.853-7.167-3.884-14.299-5.584-21.512-.499 7.173.295 14.335.28 21.512-1.685.016-3.37.016-5.05.016.02-9.118-.006-18.235.02-27.357z"/><path d="m511.584 280.166c6.418-.015 12.832-.005 19.252-.005.005 1.527.02 3.06.091 4.587-4.749-.01-9.504-.092-14.248.061-.128 2.097-.082 4.199-.061 6.307 4.393.132 8.806-.194 13.189.167-.03 1.37-.036 2.744-.02 4.124-4.388.03-8.777-.031-13.159.035-.056 2.419-.026 4.836-.036 7.26 5.085.01 10.171-.016 15.256.005.021 1.604.021 3.207.01 4.81-6.755-.005-13.51.005-20.27 0-.03-9.117-.014-18.234-.004-27.351z"/><path d="m536.659 280.197c3.498-.046 6.995 0 10.497-.036 3.202-.035 6.516.972 8.842 3.253 3.121 3.304 4.159 8.109 3.767 12.533-.403 3.268-1.543 6.679-4.164 8.832-2.597 2.25-6.19 2.739-9.499 2.749-3.151-.066-6.308.086-9.453-.097.005-9.076.02-18.158.01-27.234zm5.315 4.673c-.01 5.936.005 11.876-.005 17.816 3.013-.025 6.241.443 9.061-.87 2.423-1.125 3.182-4.011 3.283-6.454.194-3.05-.131-6.536-2.468-8.761-2.79-2.296-6.542-1.705-9.871-1.731z"/><path d="m565.711 280.177c1.73-.026 3.461-.031 5.197.01-.02 9.101-.005 18.198-.005 27.3-1.644.035-3.289.02-4.923.071-.168-.478-.259-.962-.285-1.456.01-8.643.026-17.282.016-25.925z"/><path d="m584.983 280.156c1.904.01 3.807 0 5.716.005 3.07 9.133 6.211 18.239 9.301 27.361-1.797-.01-3.589-.02-5.375.015-.667-1.786-1.08-3.649-1.736-5.431-3.35.015-6.7-.067-10.039.061-.616 1.777-1.125 3.588-1.741 5.37-1.832-.035-3.655-.015-5.477-.05 3.201-9.081 6.164-18.25 9.351-27.331zm-.779 17.42c2.444-.005 4.887.015 7.336-.01-1.166-4.037-2.312-8.089-3.635-12.075-1.451 3.945-2.525 8.043-3.701 12.085z"/></g></svg>