<?xml version="1.0" encoding="UTF-8" standalone="no"?><!DOCTYPE svg PUBLIC "-//W3C//DTD SVG 1.1//EN" "http://www.w3.org/Graphics/SVG/1.1/DTD/svg11.dtd"><svg width="100%" height="100%" viewBox="0 0 600 89" version="1.1" xmlns="http://www.w3.org/2000/svg" xmlns:xlink="http://www.w3.org/1999/xlink" xml:space="preserve" xmlns:serif="http://www.serif.com/" style="fill-rule:evenodd;clip-rule:evenodd;stroke-linejoin:round;stroke-miterlimit:2;"><g id="commodore_vic20_c"><g><path d="M56.478,86.559c-3.911,1.137 -8.049,1.747 -12.328,1.747c-24.367,0 -44.15,-19.783 -44.15,-44.15c0,-24.367 19.783,-44.15 44.15,-44.15c4.279,-0 8.417,0.61 12.328,1.747l-0,23.254c-3.553,-2.294 -7.786,-3.626 -12.328,-3.626c-12.57,0 -22.775,10.205 -22.775,22.775c0,12.57 10.205,22.775 22.775,22.775c4.542,-0 8.775,-1.332 12.328,-3.626l-0,23.254Z" style="fill:#fff;"/><path d="M77.071,45.71l-20.593,-0l-0,17.609l38.202,0l-17.609,-17.609Zm-0,-3.108l17.609,-17.609l-38.202,-0l-0,17.609l20.593,0Z" style="fill:#fff;"/></g><g><path d="M135.337,87.352l40.65,-0l28.519,-86.392l-28.996,0l-19.848,64.197l-19.848,-64.197l-28.995,0l28.518,86.392Z" style="fill:#fff;fill-rule:nonzero;"/><rect x="219.461" y="0.96" width="26.49" height="86.391" style="fill:#fff;fill-rule:nonzero;"/><path d="M263.373,57.043c-0,25.297 14.2,31.263 38.065,31.263l24.819,0c26.61,0 31.86,-11.455 31.86,-26.013l0,-8.114l-26.49,0c-0,10.74 -3.58,11.933 -15.512,11.933l-10.382,-0c-12.529,-0 -15.154,-4.773 -15.154,-17.302l0,-9.308c0,-10.739 2.625,-17.302 16.586,-17.302l10.978,0c7.876,0 12.41,1.79 12.41,7.995l-0,2.386l26.49,0c0.239,-24.461 -4.654,-32.575 -42.36,-32.575l-13.245,-0c-23.865,-0 -38.065,5.966 -38.065,31.263l-0,25.774Z" style="fill:#fff;fill-rule:nonzero;"/><path d="M394.085,27.529l25.107,-0c0.453,-7.456 4.167,-8.909 14.628,-8.909l13.563,0c16.944,0 13.683,1.552 13.683,8.592c-0,8.472 2.665,8.83 -16.666,10.023l-26.331,1.909c-17.063,1.194 -23.984,8.234 -23.984,18.854l-0,29.354l93.232,-0l0,-21.598l-68.89,-0c-0.152,-4.503 1.671,-6.921 12.768,-7.518l19.37,-1.432c30.905,-1.67 35.559,-5.966 35.559,-31.382c0,-18.018 -6.443,-25.416 -31.263,-25.416l-26.888,-0c-23.865,-0 -33.888,5.727 -33.888,22.791l-0,4.732Z" style="fill:#fff;fill-rule:nonzero;"/><path d="M529.041,34.849c0,-8.95 2.864,-13.365 15.274,-13.365l14.637,0c12.41,0 15.274,4.415 15.274,13.365l-0,18.614c-0,8.95 -2.864,13.365 -15.274,13.365l-14.637,-0c-12.41,-0 -15.274,-4.415 -15.274,-13.365l0,-18.614Zm-25.774,23.149c0,22.433 10.262,30.308 30.905,30.308l34.923,0c20.643,0 30.905,-7.875 30.905,-30.308l0,-24.104c0,-26.251 -9.546,-33.888 -37.826,-33.888l-21.081,-0c-28.28,-0 -37.826,7.637 -37.826,33.888l0,24.104Z" style="fill:#fff;fill-rule:nonzero;"/></g></g></svg>