<svg clip-rule="evenodd" fill-rule="evenodd" stroke-linejoin="round" stroke-miterlimit="2" viewBox="0 0 600 105" xmlns="http://www.w3.org/2000/svg"><g fill="#fff"><path d="m566.92 54.446c-9.494 0-17.202 7.708-17.202 17.202s7.708 17.202 17.202 17.202c9.495 0 17.203-7.708 17.203-17.202s-7.708-17.202-17.203-17.202zm0 1.398c8.723 0 15.804 7.082 15.804 15.804s-7.081 15.804-15.804 15.804c-8.722 0-15.803-7.082-15.803-15.804s7.081-15.804 15.803-15.804zm0 1.829c7.713 0 13.975 6.262 13.975 13.975s-6.262 13.975-13.975 13.975c-7.712 0-13.974-6.262-13.974-13.975s6.262-13.975 13.974-13.975zm0 1.399c6.942 0 12.577 5.635 12.577 12.576s-5.635 12.576-12.577 12.576c-6.941 0-12.576-5.635-12.576-12.576s5.635-12.576 12.576-12.576z"/><path d="m566.92 16.096c-7.313 0-13.251 5.938-13.251 13.251 0 7.314 5.938 13.252 13.251 13.252 7.314 0 13.252-5.938 13.252-13.252 0-7.313-5.938-13.251-13.252-13.251zm0 1.398c6.542 0 11.853 5.311 11.853 11.853s-5.311 11.853-11.853 11.853c-6.541 0-11.852-5.311-11.852-11.853s5.311-11.853 11.852-11.853zm0 1.829c5.533 0 10.024 4.492 10.024 10.024 0 5.533-4.491 10.024-10.024 10.024-5.532 0-10.023-4.491-10.023-10.024 0-5.532 4.491-10.024 10.023-10.024zm0 1.399c4.761 0 8.626 3.865 8.626 8.625 0 4.761-3.865 8.626-8.626 8.626-4.76 0-8.625-3.865-8.625-8.626 0-4.76 3.865-8.625 8.625-8.625z"/><path d="m544.106 47.702c-6.323 6.026-10.265 14.53-10.265 23.946 0 18.257 14.822 33.079 33.079 33.079 18.258 0 33.08-14.822 33.08-33.079 0-9.416-3.942-17.92-10.265-23.946 4.048-5.023 6.471-11.408 6.471-18.355 0-16.163-13.122-29.285-29.286-29.285-16.163 0-29.285 13.122-29.285 29.285 0 6.947 2.423 13.332 6.471 18.355zm1.936.125c-6.621 5.808-10.803 14.33-10.803 23.821 0 17.485 14.196 31.681 31.681 31.681 17.486 0 31.682-14.196 31.682-31.681 0-9.491-4.182-18.013-10.803-23.821 4.361-4.923 7.008-11.394 7.008-18.48 0-15.391-12.495-27.887-27.887-27.887-15.391 0-27.886 12.496-27.886 27.887 0 7.086 2.647 13.557 7.008 18.48zm2.68.163c-4.849-4.734-7.859-11.34-7.859-18.643 0-14.381 11.676-26.058 26.057-26.058 14.382 0 26.058 11.677 26.058 26.058 0 7.303-3.011 13.909-7.859 18.643 7.085 5.46 11.653 14.03 11.653 23.658 0 16.476-13.376 29.852-29.852 29.852-16.475 0-29.851-13.376-29.851-29.852 0-9.628 4.568-18.198 11.653-23.658zm.854 1.108 1.275-.983-1.152-1.126c-4.588-4.48-7.438-10.731-7.438-17.642 0-13.61 11.05-24.659 24.659-24.659 13.61 0 24.66 11.049 24.66 24.659 0 6.911-2.85 13.162-7.438 17.642l-1.152 1.126 1.275.983c6.754 5.204 11.109 13.372 11.109 22.55 0 15.704-12.75 28.453-28.454 28.453-15.703 0-28.453-12.749-28.453-28.453 0-9.178 4.355-17.346 11.109-22.55z"/><path d="m410.806 16.786-3.041.176v21.524h10.101c-.001.137-.001.283-.001.438v65.137h25.732v-101.582h-23.868l-.172 3.045c-.2 3.531-2.379 6.866-4.797 9.043-1.361 1.225-2.759 2.15-3.954 2.219zm-1.642 1.496v18.805h10.1v65.576h22.935v-98.786h-21.148l-.098 1.726c-.221 3.898-2.588 7.6-5.258 10.004-1.637 1.473-3.37 2.492-4.808 2.575zm1.829 16.976h10.1v65.575h19.277v-95.127h-17.591c-.413 7.298-7.396 14.048-11.786 14.303zm1.398-1.398v-12.673c1.723-.451 3.664-1.562 5.464-3.181 2.948-2.654 5.526-6.642 6.181-10.901h14.935v92.33h-16.48v-65.575z"/><path d="m453.871 35.877v3.228h24.242l.061-3.166c.066-3.441.769-7.335 3.656-9.85 1.921-1.674 4.776-2.852 8.853-2.665 4.759.219 8.575 4.997 8.575 9.803 0 5.685-1.679 9.473-6.259 13.99-3.417 3.371-14.985 11.942-15.305 12.179-22.5 16.366-23.31 29.116-24.04 41.243 0 0-.206 3.422-.206 3.422h74.313v-23.529h-39.503c.005-.004.009-.008.014-.012 3.605-3.075 9.06-6.777 16.704-12.144 10.262-6.992 20.892-16.318 20.892-34.461 0-18.525-15.296-33.192-35.947-33.192-6.669 0-21.606 2.021-30.004 13.86-3.595 5.068-6.046 11.942-6.046 21.294zm1.399 1.829h21.471l.035-1.794c.073-3.811.937-8.091 4.136-10.878 2.137-1.862 5.299-3.215 9.836-3.007 5.463.251 9.908 5.682 9.908 11.2 0 6.086-1.773 10.151-6.675 14.986-3.5 3.453-15.462 12.312-15.462 12.312-21.94 15.957-22.757 28.374-23.469 40.198l-.117 1.94h71.43v-20.733h-41.612c.716-.784 1.586-1.598 2.613-2.474 3.63-3.095 9.12-6.826 16.817-12.23 9.932-6.766 20.288-15.75 20.288-33.311 0-17.777-14.731-31.794-34.548-31.794-6.41 0-20.792 1.891-28.864 13.271-3.457 4.873-5.787 11.492-5.787 20.485zm19.677-1.829c.138-7.16 3.036-15.944 15.801-15.679 7.101.147 11.737 6.557 11.737 13.029 0 11.015-5.266 15.972-22.89 28.777-21.205 15.422-22.031 27.401-22.72 38.829h67.659v-17.073h-43.287c2.203-4.544 8.95-8.95 21.893-18.038 9.5-6.471 19.5-15.008 19.5-31.807 0-16.798-13.993-29.965-32.719-29.965-8.674 0-32.822 3.512-32.822 31.927zm-1.338-1.398h-15.091c.221-7.461 2.215-13.051 5.172-17.22 7.32-10.319 20.418-11.91 26.231-11.91 17.893 0 31.321 12.516 31.321 28.566 0 16.211-9.721 24.406-18.889 30.651l-.009.006c-7.822 5.492-13.39 9.286-17.074 12.429-2.627 2.24-4.333 4.193-5.281 6.149l-.974 2.008h44.12v14.277h-64.772c.691-10.682 2.327-21.953 22.054-36.3 18.221-13.238 23.467-18.52 23.467-29.908 0-7.193-5.214-14.263-13.107-14.427-5.554-.115-9.373 1.398-11.987 3.689-3.534 3.097-4.886 7.694-5.181 11.99z"/><g fill-rule="nonzero"><path d="m29.632 61.809c-1.579 1.263-4.106 1.706-6.191 1.706-5.434 0-10.805-3.475-10.805-11.626 0-6.192 4.55-10.614 10.678-10.614 1.58 0 4.613.568 5.813 1.579l-.821-13.837c-1.138-.316-3.475-.505-5.813-.505-13.142 0-22.493 10.614-22.493 23.44 0 13.395 8.34 24.326 22.367 24.326 2.085 0 4.17-.253 6.191-.759z"/><path d="m79.167 52.395c0-13.205-10.677-23.883-23.377-23.883s-23.377 10.678-23.377 23.883 10.677 23.883 23.377 23.883 23.377-10.678 23.377-23.883zm-12.131 0c0 6.191-5.054 11.625-11.246 11.625-6.129 0-11.247-5.181-11.247-11.625 0-6.445 5.118-11.626 11.247-11.626 6.192 0 11.246 5.434 11.246 11.626z"/><path d="m80.936 75.14h12.131l2.654-18.702h.127l9.098 19.018 9.098-19.018h.126l2.654 18.702h12.131l-6.255-45.491h-9.477l-8.277 17.691-8.024-17.691h-9.478z"/><path d="m130.092 75.14h12.131l2.654-18.702h.126l9.099 19.018 9.098-19.018h.126l2.654 18.702h12.131l-6.255-45.491h-9.478l-8.276 17.691-8.025-17.691h-9.477z"/><path d="m226.635 52.395c0-13.205-10.678-23.883-23.378-23.883-12.699 0-23.377 10.678-23.377 23.883s10.678 23.883 23.377 23.883c12.7 0 23.378-10.678 23.378-23.883zm-12.131 0c0 6.191-5.055 11.625-11.247 11.625-6.128 0-11.246-5.181-11.246-11.625 0-6.445 5.118-11.626 11.246-11.626 6.192 0 11.247 5.434 11.247 11.626z"/><path d="m231.31 75.14h9.414c13.837 0 22.999-10.109 22.999-22.998 0-10.741-7.013-22.493-21.609-22.493h-10.804zm11.879-33.486c6.886.695 8.403 6.128 8.403 10.362 0 3.348-.822 9.224-8.403 10.361z"/><path d="m313.258 52.395c0-13.205-10.678-23.883-23.378-23.883-12.699 0-23.377 10.678-23.377 23.883s10.678 23.883 23.377 23.883c12.7 0 23.378-10.678 23.378-23.883zm-12.131 0c0 6.191-5.055 11.625-11.247 11.625-6.128 0-11.246-5.181-11.246-11.625 0-6.445 5.118-11.626 11.246-11.626 6.192 0 11.247 5.434 11.247 11.626z"/><path d="m317.933 75.14h11.878v-18.765h.127l8.024 18.765h13.395l-8.72-19.713c3.981-2.653 6.192-6.318 6.192-11.183 0-9.667-6.255-14.595-15.29-14.595h-15.606zm11.878-35.382c4.423 0 7.14 1.517 7.14 5.623 0 4.107-2.717 5.624-7.14 5.624z"/><path d="m354.2 75.14h24.704l3.096-12.004h-15.922v-4.739h9.351v-12.005h-9.351v-4.738h14.342l-1.832-12.005h-24.388z"/></g></g></svg>