<svg clip-rule="evenodd" fill-rule="evenodd" stroke-linejoin="round" stroke-miterlimit="2" viewBox="0 0 600 191" xmlns="http://www.w3.org/2000/svg"><g fill="#fff"><path d="m121.615 186.462c-8.422 2.448-17.331 3.762-26.545 3.762-52.471 0-95.07-42.599-95.07-95.07 0-52.47 42.599-95.07 95.07-95.07 9.214 0 18.123 1.314 26.545 3.762v50.075c-7.651-4.94-16.766-7.809-26.545-7.809-27.067 0-49.042 21.975-49.042 49.042s21.975 49.042 49.042 49.042c9.779 0 18.894-2.869 26.545-7.808z"/><path d="m165.958 98.5h-44.343v37.919h82.262zm0-6.692 37.919-37.919h-82.262v37.919z"/><path d="m539.907 98.88c-17.248 0-31.251 14.003-31.251 31.25 0 17.248 14.003 31.251 31.251 31.251 17.247 0 31.25-14.003 31.25-31.251 0-17.247-14.003-31.25-31.25-31.25zm0 2.54c15.845 0 28.71 12.865 28.71 28.71 0 15.846-12.865 28.711-28.71 28.711-15.846 0-28.711-12.865-28.711-28.711 0-15.845 12.865-28.71 28.711-28.71zm0 3.323c14.011 0 25.387 11.376 25.387 25.387 0 14.012-11.376 25.388-25.387 25.388-14.012 0-25.388-11.376-25.388-25.388 0-14.011 11.376-25.387 25.388-25.387zm0 2.541c12.609 0 22.846 10.237 22.846 22.846 0 12.61-10.237 22.847-22.846 22.847-12.61 0-22.847-10.237-22.847-22.847 0-12.609 10.237-22.846 22.847-22.846z"/><path d="m539.907 29.212c-13.287 0-24.073 10.787-24.073 24.073 0 13.287 10.786 24.073 24.073 24.073 13.286 0 24.073-10.786 24.073-24.073 0-13.286-10.787-24.073-24.073-24.073zm0 2.541c11.884 0 21.532 9.648 21.532 21.532s-9.648 21.533-21.532 21.533c-11.885 0-21.533-9.649-21.533-21.533s9.648-21.532 21.533-21.532zm0 3.323c10.05 0 18.209 8.159 18.209 18.209s-8.159 18.21-18.209 18.21c-10.051 0-18.21-8.16-18.21-18.21s8.159-18.209 18.21-18.209zm0 2.54c8.648 0 15.669 7.021 15.669 15.669s-7.021 15.669-15.669 15.669-15.67-7.021-15.67-15.669 7.022-15.669 15.67-15.669z"/><path d="m498.462 86.63c-11.487 10.947-18.649 26.394-18.649 43.5 0 33.167 26.927 60.094 60.094 60.094 33.166 0 60.093-26.927 60.093-60.094 0-17.106-7.161-32.553-18.649-43.5 7.354-9.126 11.757-20.726 11.757-33.345 0-29.362-23.839-53.201-53.201-53.201-29.363 0-53.201 23.839-53.201 53.201 0 12.62 4.402 24.219 11.756 33.345zm3.516.227c-12.027 10.55-19.624 26.032-19.624 43.273 0 31.765 25.788 57.553 57.553 57.553 31.764 0 57.553-25.788 57.553-57.553 0-17.241-7.598-32.723-19.625-43.273 7.922-8.943 12.732-20.7 12.732-33.572 0-27.96-22.7-50.66-50.66-50.66-27.961 0-50.661 22.7-50.661 50.66 0 12.872 4.81 24.629 12.732 33.572zm4.868.296c-8.808-8.601-14.277-20.601-14.277-33.868 0-26.126 21.211-47.337 47.338-47.337 26.126 0 47.337 21.211 47.337 47.337 0 13.267-5.469 25.267-14.277 33.868 12.871 9.918 21.17 25.486 21.17 42.977 0 29.931-24.3 54.231-54.23 54.231-29.931 0-54.231-24.3-54.231-54.231 0-17.491 8.299-33.059 21.17-42.977zm1.551 2.012 2.317-1.786-2.093-2.044c-8.335-8.139-13.512-19.495-13.512-32.05 0-24.724 20.073-44.797 44.798-44.797 24.724 0 44.797 20.073 44.797 44.797 0 12.555-5.177 23.911-13.512 32.05l-2.093 2.044 2.317 1.786c12.269 9.454 20.18 24.293 20.18 40.965 0 28.529-23.161 51.69-51.689 51.69-28.529 0-51.69-23.161-51.69-51.69 0-16.672 7.912-31.511 20.18-40.965z"/><path d="m256.304 30.467-5.525.319v39.101h18.349c-.001.25-.001.515-.001.795v118.331h46.746v-184.538h-43.36l-.313 5.532c-.363 6.415-4.321 12.474-8.714 16.428-2.472 2.226-5.011 3.906-7.182 4.032zm-2.984 2.717v34.163h18.347v119.126h41.665v-179.457h-38.418l-.178 3.135c-.401 7.082-4.7 13.807-9.551 18.173-2.974 2.677-6.122 4.528-8.734 4.679zm3.323 30.84h18.347v119.126h35.019v-172.811h-31.955c-.751 13.257-13.436 25.52-21.411 25.981zm2.54-2.541v-23.022c3.129-.82 6.656-2.837 9.925-5.779 5.355-4.821 10.039-12.065 11.229-19.803h27.132v167.73h-29.938v-119.126z"/><path d="m334.537 65.148v5.863h44.039l.11-5.751c.121-6.251 1.397-13.324 6.643-17.895 3.489-3.04 8.675-5.18 16.082-4.84 8.645.398 15.577 9.077 15.577 17.808 0 10.329-3.05 17.21-11.369 25.416-6.209 6.124-27.224 21.693-27.806 22.124-40.874 29.73-42.344 52.894-43.671 74.924 0 0-.375 6.216-.375 6.216h135.002v-42.743h-71.763c.008-.007.016-.014.024-.021 6.551-5.587 16.46-12.312 30.346-22.062 18.642-12.703 37.953-29.644 37.953-62.603 0-33.653-27.787-60.299-65.302-60.299-12.116 0-39.251 3.671-54.508 25.178-6.531 9.207-10.982 21.696-10.982 38.685zm2.541 3.323h39.006l.062-3.259c.134-6.924 1.704-14.7 7.514-19.762 3.882-3.383 9.627-5.841 17.868-5.462 9.926.456 18 10.32 18 20.345 0 11.056-3.22 18.441-12.125 27.225-6.359 6.272-28.09 22.366-28.09 22.366-39.858 28.987-41.341 51.545-42.635 73.026l-.213 3.523h129.763v-37.663h-75.593c1.301-1.426 2.881-2.903 4.747-4.494 6.594-5.624 16.567-12.401 30.549-22.218 18.043-12.293 36.857-28.613 36.857-60.514 0-32.294-26.761-57.758-62.761-57.758-11.646 0-37.771 3.435-52.436 24.107-6.28 8.854-10.513 20.877-10.513 37.215zm35.746-3.323c.25-13.007 5.516-28.964 28.704-28.483 12.901.267 21.323 11.912 21.323 23.668 0 20.011-9.567 29.016-41.584 52.279-38.521 28.015-40.022 49.777-41.272 70.538h122.91v-31.017h-78.636c4.002-8.254 16.258-16.259 39.771-32.768 17.259-11.756 35.425-27.264 35.425-57.781s-25.42-54.435-59.438-54.435c-15.758 0-59.626 6.38-59.626 57.999zm-2.431-2.541h-27.415c.402-13.553 4.024-23.708 9.396-31.281 13.298-18.747 37.092-21.637 47.653-21.637 32.504 0 56.898 22.737 56.898 51.895 0 29.449-17.659 44.336-34.315 55.682l-.015.01c-14.211 9.978-24.325 16.87-31.018 22.578-4.772 4.07-7.872 7.618-9.594 11.171l-1.77 3.648h80.152v25.936h-117.668c1.256-19.404 4.227-39.879 40.064-65.943 33.101-24.05 42.631-33.644 42.631-54.333 0-13.067-9.471-25.911-23.811-26.208-10.088-.21-17.028 2.539-21.777 6.701-6.418 5.626-8.875 13.977-9.411 21.781z"/></g></svg>