<svg clip-rule="evenodd" fill-rule="evenodd" stroke-linejoin="round" stroke-miterlimit="2" viewBox="0 0 600 212" xmlns="http://www.w3.org/2000/svg"><g fill="#fff"><path d="m57.954 79.478c-3.55 1.032-7.306 1.586-11.19 1.586-22.117 0-40.073-17.956-40.073-40.074 0-22.117 17.956-40.073 40.073-40.073 3.884 0 7.64.554 11.19 1.586v21.107c-3.225-2.082-7.067-3.292-11.19-3.292-11.409 0-20.672 9.263-20.672 20.672 0 11.41 9.263 20.672 20.672 20.672 4.123 0 7.965-1.209 11.19-3.291z"/><path d="m76.645 42.401h-18.691v15.983h34.674zm0-2.821 15.983-15.983h-34.674v15.983z"/><g fill-rule="nonzero"><path d="m164.161 56.549c-3.834 1.504-8.494 2.706-13.079 2.706-10.222 0-17.513-6.238-17.513-16.536 0-9.771 6.464-16.987 16.386-16.987 4.81 0 9.17 1.203 13.679 3.683l1.128-11.35c-5.036-1.503-10.222-2.706-15.559-2.706-17.288 0-30.066 9.095-30.066 27.36 0 19.844 16.161 26.909 30.141 26.909 7.141 0 11.575-1.127 15.559-2.105z"/><path d="m191.445 69.628c12.928 0 22.775-7.516 22.775-20.445 0-13.003-9.847-20.519-22.775-20.519s-22.775 7.516-22.775 20.519c0 12.929 9.847 20.445 22.775 20.445zm0-9.471c-6.238 0-8.794-5.186-8.794-10.974 0-5.862 2.556-11.049 8.794-11.049 6.239 0 8.794 5.187 8.794 11.049 0 5.788-2.555 10.974-8.794 10.974z"/><path d="m220.759 68.726h13.53v-16.536c0-8.418 2.856-12.252 7.667-12.252 3.833 0 5.411 3.307 5.411 7.742v21.046h13.53v-16.536c0-8.418 2.856-12.252 7.667-12.252 3.833 0 5.411 3.307 5.411 7.742v21.046h13.53v-23.075c0-10.599-2.556-16.987-13.83-16.987-5.562 0-10.749 2.254-13.906 7.516-2.104-5.111-6.689-7.516-12.251-7.516-6.164 0-11.576 2.48-14.282 8.117h-.15v-7.216h-12.327z"/><path d="m295.923 68.726h13.53v-16.536c0-8.418 2.856-12.252 7.667-12.252 3.833 0 5.411 3.307 5.411 7.742v21.046h13.53v-16.536c0-8.418 2.856-12.252 7.667-12.252 3.833 0 5.412 3.307 5.412 7.742v21.046h13.529v-23.075c0-10.599-2.555-16.987-13.83-16.987-5.562 0-10.749 2.254-13.905 7.516-2.105-5.111-6.69-7.516-12.252-7.516-6.164 0-11.575 2.48-14.281 8.117h-.151v-7.216h-12.327z"/><path d="m391.983 69.628c12.928 0 22.775-7.516 22.775-20.445 0-13.003-9.847-20.519-22.775-20.519s-22.775 7.516-22.775 20.519c0 12.929 9.847 20.445 22.775 20.445zm0-9.471c-6.238 0-8.794-5.186-8.794-10.974 0-5.862 2.556-11.049 8.794-11.049 6.239 0 8.794 5.187 8.794 11.049 0 5.788-2.555 10.974-8.794 10.974z"/><path d="m463.389 12.353h-13.605v22.248h-.15c-3.457-4.509-8.042-5.937-13.454-5.937-10.824 0-16.762 10.147-16.762 19.768 0 11.575 6.239 21.196 17.889 21.196 6.239 0 11.726-3.533 13.455-7.892h.15v6.99h12.477zm-29.99 36.379c0-5.186 2.931-9.696 8.193-9.696 4.96 0 8.268 4.285 8.268 10.222 0 5.713-3.759 9.997-8.268 9.997-5.112 0-8.193-4.284-8.193-10.523z"/><path d="m492.402 69.628c12.929 0 22.775-7.516 22.775-20.445 0-13.003-9.846-20.519-22.775-20.519-12.928 0-22.774 7.516-22.774 20.519 0 12.929 9.846 20.445 22.774 20.445zm0-9.471c-6.238 0-8.794-5.186-8.794-10.974 0-5.862 2.556-11.049 8.794-11.049 6.239 0 8.795 5.187 8.795 11.049 0 5.788-2.556 10.974-8.795 10.974z"/><path d="m550.354 29.114c-1.353-.225-3.007-.45-4.585-.45-5.863 0-9.245 3.156-11.575 8.117h-.151v-7.216h-12.326v39.161h13.529v-16.536c0-7.667 3.533-12.252 9.847-12.252 1.578 0 3.081 0 4.585.451z"/><path d="m592.596 53.092v-2.481c0-11.65-5.261-21.947-19.768-21.947-12.176 0-20.971 7.516-20.971 20.444s9.847 20.52 22.775 20.52c5.036 0 9.997-.752 14.356-2.48v-9.546c-4.058 2.179-8.268 3.006-11.951 3.006-6.614 0-10.748-2.104-11.5-7.516zm-27.209-7.667c.301-4.51 2.631-8.193 7.516-8.193 5.412 0 7.517 3.683 7.517 8.193z"/><path d="m126.138 205.191c-.019-1.456-.424-2.436-1.217-2.941-.792-.505-1.861-.822-3.206-.951-4.548-.745-7.261-2.484-8.138-5.219s-1.29-6.243-1.238-10.526l-4.6-88.279c.019-3.181-.28-5.842-.885-7.983-.604-2.141-2.668-3.254-6.192-3.339-3.21.085-5.546 1.021-7.01 2.808-1.463 1.788-2.959 3.918-4.489 6.391l-56.611 79.61-9.554 13.446c-1.872 2.867-3.921 5.535-6.147 8.005-2.226 2.469-5.072 3.988-8.536 4.555-1.972.162-3.822.546-5.551 1.15-1.728.605-2.65 2.049-2.764 4.334.049 1.372.527 2.256 1.437 2.654.911.398 1.965.575 3.163.531 3.276-.044 6.586-.221 9.929-.531 3.343-.309 6.697-.486 10.062-.531 3.007.037 6.015.185 9.022.443 3.008.258 6.015.405 9.023.442 1.396.019 2.672-.284 3.825-.907 1.154-.623 1.766-1.677 1.836-3.162-.19-2.185-1.52-3.456-3.991-3.813-2.47-.358-4.94-.842-7.41-1.455-2.471-.613-3.801-2.395-3.991-5.347.443-3.166 2.522-7.669 6.237-13.511s6.413-9.948 8.093-12.318h35.382c.192 3.723.384 7.467.576 11.234.191 3.767.294 7.512.309 11.234-.194 5.192-1.555 8.234-4.082 9.127-2.527.894-5.054 1.394-7.581 1.501s-3.888 1.577-4.082 4.409c.03 1.217.413 2.057 1.15 2.521.737.465 1.651.686 2.742.664 4.872-.044 9.767-.221 14.684-.531 4.916-.309 9.811-.486 14.683-.531 3.273.03 6.546.148 9.819.354 3.273.207 6.546.325 9.818.354 1.467.048 2.735-.181 3.804-.685 1.069-.505 1.629-1.574 1.681-3.207zm-43.697-45.112h-29.545l28.129-41.044z"/><path d="m382.169 92.852c-.026-1.061-.372-1.857-1.04-2.388-.667-.531-1.5-.796-2.498-.796-1.585.007-3.148.081-4.689.221-1.54.14-3.103.302-4.688.487-3.903.423-7.861.681-11.875.773-4.014.093-8.016.13-12.008.111-2.919-.029-5.838-.147-8.757-.354-2.919-.206-5.838-.324-8.757-.354-1.389.004-2.635.395-3.737 1.172-1.102.778-1.685 1.921-1.747 3.428.501 2.669 2.506 3.922 6.015 3.759 3.508-.162 5.513 1.357 6.015 4.556-.019.892-.122 1.806-.332 2.742s-.453 1.85-.73 2.742l-22.291 77.31c-.851 3.609-1.802 6.742-2.852 9.399-1.051 2.657-3.461 4.419-7.231 5.285-1.729.254-3.756.675-6.082 1.261s-3.601 1.935-3.826 4.046c.053 1.224.524 2.094 1.416 2.61s1.894.766 3.007.752c3.808-.059 7.648-.295 11.522-.708 3.873-.413 7.758-.649 11.654-.708 4.164.037 8.351.185 12.56.443s8.396.405 12.561.442c1.714.125 3.682.052 5.904-.221 2.223-.273 3.439-1.496 3.649-3.671-.163-2.267-1.31-3.473-3.44-3.617-2.129-.144-4.259-.485-6.388-1.022-2.13-.537-3.276-2.529-3.44-5.976.019-1.422.203-2.867.553-4.334s.755-2.912 1.216-4.334l22.291-77.664c.818-3.196 1.791-5.518 2.919-6.966 1.128-1.449 3.339-2.488 6.634-3.118 1.67-.21 3.461-.675 5.374-1.394 1.912-.718 2.952-2.023 3.118-3.914z"/><path d="m498.55 93.737c-.25-1.908-2.187-3.262-5.811-4.063-3.625-.8-7.436-1.276-11.434-1.428s-6.683-.208-8.053-.17c-14.782.034-30.252 3.032-46.41 8.996s-29.937 14.689-41.338 26.176c-11.401 11.488-17.357 25.533-17.868 42.138.215 10.544 3.264 19.256 9.147 26.137s13.309 12.003 22.278 15.365c8.968 3.362 18.19 5.038 27.663 5.026 5.772-.004 11.566-.351 17.382-1.04s11.521-1.699 17.116-3.029c2.134-.432 3.969-.984 5.506-1.659 1.537-.674 2.709-2.068 3.517-4.179 1.558-4.434 2.952-8.923 4.179-13.468 1.227-4.544 2.488-9.078 3.782-13.6 2.127-6.436 4.654-10.213 7.581-11.329 2.926-1.116 5.519-1.642 7.777-1.579 2.258.064 3.449-1.354 3.571-4.252-.052-1.224-.523-2.094-1.415-2.61s-1.895-.766-3.008-.752c-4.419.052-8.849.258-13.29.62-4.442.361-8.916.567-13.423.619-4.246-.044-8.492-.221-12.738-.531-4.246-.309-8.492-.486-12.738-.531-1.419-.04-2.782.218-4.091.774-1.308.557-2.009 1.655-2.1 3.295.168 2 1.345 3.112 3.531 3.335 2.186.224 4.373.655 6.559 1.291 2.186.637 3.363 2.574 3.532 5.812-.196 3.317-1.22 7.873-3.074 13.666-1.854 5.794-3.365 10.438-4.533 13.932-.69 2.709-1.611 4.633-2.765 5.772-1.153 1.139-3.181 1.692-6.081 1.658-10.368-.224-18.204-3.578-23.507-10.061-5.304-6.483-7.965-14.747-7.983-24.79.08-9.244 1.997-18.222 5.749-26.935s8.853-16.364 15.303-22.954c6.373-6.398 14.238-11.868 23.596-16.409 9.357-4.54 18.594-6.914 27.708-7.12 4.331-.044 6.992.796 7.984 2.521.991 1.725 1.396 4.6 1.216 8.624-.019 1.062-.073 2.123-.176 3.185-.103 1.061-.163 2.123-.176 3.184-.056 1.765.232 3.365.862 4.799s1.935 2.193 3.914 2.277c2.164-.165 3.763-1.249 4.799-3.25 1.036-2.002 1.795-3.925 2.278-5.772.461-1.356 1.441-4.349 2.941-8.978s2.348-7.534 2.543-8.713z"/><path d="m600 205.191c-.019-1.456-.424-2.436-1.216-2.941-.793-.505-1.862-.822-3.207-.951-4.548-.745-7.261-2.484-8.138-5.219s-1.29-6.243-1.238-10.526l-4.6-88.279c.019-3.181-.28-5.842-.884-7.983-.605-2.141-2.669-3.254-6.192-3.339-3.211.085-5.547 1.021-7.01 2.808-1.464 1.788-2.96 3.918-4.489 6.391l-56.612 79.61-9.553 13.445c-1.873 2.868-3.922 5.536-6.148 8.006-2.226 2.469-5.072 3.988-8.536 4.555-1.972.162-3.822.546-5.551 1.15-1.728.605-2.65 2.049-2.764 4.334.049 1.371.527 2.256 1.438 2.654.91.398 1.964.575 3.162.531 3.276-.044 6.586-.221 9.929-.531 3.343-.309 6.697-.486 10.062-.531 3.007.037 6.015.185 9.022.443 3.008.258 6.015.405 9.023.442 1.397.019 2.672-.284 3.825-.907 1.154-.623 1.766-1.677 1.836-3.162-.19-2.185-1.52-3.456-3.99-3.813-2.471-.358-4.941-.842-7.411-1.455s-3.8-2.395-3.99-5.347c.442-3.166 2.521-7.67 6.236-13.511 3.715-5.842 6.413-9.948 8.094-12.318h35.382c.191 3.723.383 7.467.575 11.234.191 3.767.294 7.511.309 11.234-.194 5.192-1.555 8.234-4.082 9.127-2.527.894-5.054 1.394-7.581 1.501s-3.888 1.577-4.082 4.409c.03 1.217.413 2.057 1.15 2.521.737.465 1.651.686 2.742.664 4.873-.044 9.767-.221 14.684-.531 4.916-.309 9.811-.486 14.684-.531 3.272.03 6.545.148 9.818.354 3.273.207 6.546.325 9.819.354 1.466.048 2.734-.18 3.803-.686 1.069-.504 1.629-1.573 1.681-3.206zm-43.697-45.112h-29.544l28.128-41.044z"/><path d="m307.191 93.56c-.022-1.139-.376-1.957-1.061-2.455-.686-.497-1.571-.74-2.654-.729-3.722.022-7.467.11-11.234.265s-7.511.243-11.234.265c-1.972-.099-4.928-.21-8.867-.331-3.94-.122-6.587.342-7.939 1.393-.258.368-.494.781-.708 1.238s-.45.87-.707 1.238l-48.651 73.596-1.946-72.357c.092-1.375.041-2.562-.156-3.56-.195-.999-1.087-1.523-2.675-1.571-4.077.03-8.175.104-12.296.222-4.12.118-8.219.103-12.295-.045-2.303-.106-4.596-.246-6.877-.42-2.282-.173-4.53-.269-6.745-.287-1.511-.059-2.956.147-4.335.619-1.378.472-2.115 1.563-2.211 3.273.56 2.801 2.801 4.187 6.723 4.157 3.921-.029 6.162 1.357 6.722 4.158-.063 1.975-.468 3.995-1.216 6.059s-1.463 3.995-2.145 5.794c-4.308 11.952-8.606 23.916-12.892 35.891-4.287 11.974-8.717 23.894-13.291 35.758-1.721 5.06-3.409 8.606-5.064 10.637-1.655 2.03-5.156 3.497-10.504 4.4-1.474.221-2.772.664-3.892 1.327s-1.71 1.813-1.769 3.45c.052 1.456.567 2.392 1.548 2.808.98.417 2.115.601 3.405.553 3.104-.022 6.229-.11 9.377-.265 3.147-.155 6.273-.244 9.376-.266 2.915.037 5.797.185 8.647.443 2.848.258 5.686.405 8.513.442 1.32.011 2.573-.321 3.76-.995 1.186-.675 1.82-1.758 1.902-3.251-.197-2.481-1.573-3.809-4.128-3.984-2.556-.174-5.111-.585-7.667-1.232-2.555-.646-3.931-2.917-4.128-6.814.254-5.578 2.224-13.862 5.911-24.853 3.686-10.99 7.57-21.646 11.65-31.968 4.079-10.322 6.836-17.27 8.269-20.843l1.946 84.21c-.049 2.598.224 4.655.818 6.17.593 1.514 2.325 2.288 5.197 2.322 2.922-.115 5.215-1.125 6.877-3.03 1.662-1.906 3.203-4.021 4.622-6.347l56.611-83.325-18.752 70.411c-.572 3.029-1.419 6.081-2.543 9.155s-3.343 4.976-6.657 5.705c-1.898.133-4.028.443-6.391.929-2.362.487-3.652 1.946-3.869 4.379.041 1.308.49 2.229 1.349 2.764.858.534 1.883.792 3.073.774 4.077-.059 8.175-.295 12.296-.708 4.12-.413 8.219-.648 12.295-.707 4.246.059 8.492.294 12.738.707 4.245.413 8.491.649 12.737.708 1.574.044 2.982-.221 4.224-.796s1.898-1.725 1.968-3.45c-.153-2.127-1.223-3.357-3.21-3.689-1.988-.332-3.976-.802-5.963-1.409-1.988-.607-3.058-2.387-3.211-5.34.03-2.141.28-4.316.752-6.523.472-2.208.988-4.338 1.548-6.391l18.045-72.357c.63-3.181 1.449-5.665 2.455-7.452 1.006-1.788 3.195-2.901 6.568-3.34 1.802-.103 3.549-.471 5.241-1.105 1.691-.634 2.598-1.976 2.72-4.025z"/></g></g></svg>