<svg clip-rule="evenodd" fill-rule="evenodd" stroke-linejoin="round" stroke-miterlimit="2" viewBox="0 0 600 183" xmlns="http://www.w3.org/2000/svg"><g fill="#fff"><path d="m52.496 81.251c-3.635 1.057-7.481 1.624-11.458 1.624-22.65 0-41.038-18.389-41.038-41.038s18.388-41.037 41.038-41.037c3.977 0 7.823.567 11.458 1.623v21.615c-3.303-2.132-7.237-3.37-11.458-3.37-11.684 0-21.17 9.486-21.17 21.169 0 11.684 9.486 21.169 21.17 21.169 4.221 0 8.155-1.238 11.458-3.37z"/><path d="m71.637 43.281h-19.141v16.368h35.509zm0-2.888 16.368-16.368h-35.509v16.368z"/><g fill-rule="nonzero"><path d="m161.258 57.77c-3.926 1.54-8.698 2.771-13.393 2.771-10.469 0-17.935-6.388-17.935-16.933 0-10.007 6.62-17.396 16.78-17.396 4.926 0 9.391 1.231 14.009 3.771l1.155-11.622c-5.158-1.54-10.469-2.771-15.934-2.771-17.703 0-30.789 9.313-30.789 28.018 0 20.32 16.549 27.556 30.866 27.556 7.313 0 11.854-1.155 15.934-2.156z"/><path d="m189.199 71.164c13.239 0 23.322-7.698 23.322-20.937 0-13.316-10.083-21.013-23.322-21.013s-23.323 7.697-23.323 21.013c0 13.239 10.084 20.937 23.323 20.937zm0-9.699c-6.389 0-9.006-5.311-9.006-11.238 0-6.004 2.617-11.315 9.006-11.315 6.388 0 9.006 5.311 9.006 11.315 0 5.927-2.618 11.238-9.006 11.238z"/><path d="m219.218 70.24h13.855v-16.934c0-8.621 2.925-12.546 7.851-12.546 3.926 0 5.542 3.386 5.542 7.928v21.552h13.855v-16.934c0-8.621 2.925-12.546 7.851-12.546 3.926 0 5.542 3.386 5.542 7.928v21.552h13.855v-23.631c0-10.853-2.617-17.395-14.163-17.395-5.695 0-11.007 2.309-14.239 7.697-2.156-5.234-6.851-7.697-12.547-7.697-6.312 0-11.854 2.54-14.625 8.313h-.154v-7.39h-12.623z"/><path d="m296.19 70.24h13.855v-16.934c0-8.621 2.925-12.546 7.851-12.546 3.926 0 5.542 3.386 5.542 7.928v21.552h13.855v-16.934c0-8.621 2.925-12.546 7.852-12.546 3.925 0 5.542 3.386 5.542 7.928v21.552h13.855v-23.631c0-10.853-2.617-17.395-14.163-17.395-5.696 0-11.007 2.309-14.24 7.697-2.155-5.234-6.851-7.697-12.547-7.697-6.311 0-11.853 2.54-14.624 8.313h-.154v-7.39h-12.624z"/><path d="m394.561 71.164c13.239 0 23.323-7.698 23.323-20.937 0-13.316-10.084-21.013-23.323-21.013s-23.323 7.697-23.323 21.013c0 13.239 10.084 20.937 23.323 20.937zm0-9.699c-6.389 0-9.006-5.311-9.006-11.238 0-6.004 2.617-11.315 9.006-11.315s9.006 5.311 9.006 11.315c0 5.927-2.617 11.238-9.006 11.238z"/><path d="m467.685 12.511h-13.932v22.784h-.154c-3.541-4.619-8.236-6.081-13.778-6.081-11.084 0-17.165 10.391-17.165 20.243 0 11.854 6.388 21.707 18.319 21.707 6.389 0 12.008-3.618 13.778-8.082h.154v7.158h12.778zm-30.712 37.254c0-5.311 3.002-9.929 8.39-9.929 5.08 0 8.467 4.387 8.467 10.468 0 5.85-3.849 10.237-8.467 10.237-5.234 0-8.39-4.387-8.39-10.776z"/><path d="m497.396 71.164c13.239 0 23.323-7.698 23.323-20.937 0-13.316-10.084-21.013-23.323-21.013s-23.323 7.697-23.323 21.013c0 13.239 10.084 20.937 23.323 20.937zm0-9.699c-6.389 0-9.006-5.311-9.006-11.238 0-6.004 2.617-11.315 9.006-11.315s9.006 5.311 9.006 11.315c0 5.927-2.617 11.238-9.006 11.238z"/><path d="m556.742 29.676c-1.386-.231-3.079-.462-4.696-.462-6.004 0-9.467 3.233-11.853 8.313h-.154v-7.39h-12.624v40.103h13.855v-16.934c0-7.851 3.618-12.546 10.083-12.546 1.617 0 3.156 0 4.696.461z"/><path d="m600 54.23v-2.54c0-11.931-5.388-22.476-20.244-22.476-12.469 0-21.475 7.697-21.475 20.936s10.083 21.014 23.323 21.014c5.157 0 10.237-.77 14.701-2.54v-9.776c-4.156 2.232-8.467 3.079-12.238 3.079-6.774 0-11.007-2.155-11.777-7.697zm-27.864-7.851c.308-4.619 2.694-8.39 7.697-8.39 5.542 0 7.697 3.771 7.697 8.39z"/><path d="m124.092 149.216c0 22.477 7.615 33.285 31.688 33.285h45.444c24.932 0 30.091-8.72 30.091-24.81v-6.018h-11.3v5.527c0 12.036-4.667 15.475-20.879 15.475h-42.128c-11.545 0-20.879-3.439-20.879-18.914v-33.408c0-15.475 9.334-18.914 20.879-18.914h41.759c11.054 0 20.389.737 20.389 15.844v4.053h10.562v-7.615c0-11.914-6.018-22.108-27.88-22.108h-46.058c-24.073 0-31.688 10.809-31.688 33.285z"/><path d="m347.749 141.847c0 26.652-10.071 29.846-24.687 29.846h-61.042v-69.271h63.007c14.739 0 22.722 4.667 22.722 30.336zm-97.765 39.671h71.481c30.214 0 38.321-11.791 38.321-44.461 0-35.127-8.107-44.461-37.952-44.461h-71.85z"/><path d="m416.283 181.518h12.037v-79.096h44.952v-9.826h-101.941v9.826h44.952z"/><path d="m527.191 181.518h14.738l49.251-88.922h-13.51l-43.11 78.114-43.11-78.114h-13.511z"/></g></g></svg>