<?xml version="1.0" encoding="UTF-8" standalone="no"?><!DOCTYPE svg PUBLIC "-//W3C//DTD SVG 1.1//EN" "http://www.w3.org/Graphics/SVG/1.1/DTD/svg11.dtd"><svg width="100%" height="100%" viewBox="0 0 600 117" version="1.1" xmlns="http://www.w3.org/2000/svg" xmlns:xlink="http://www.w3.org/1999/xlink" xml:space="preserve" xmlns:serif="http://www.serif.com/" style="fill-rule:evenodd;clip-rule:evenodd;stroke-linejoin:round;stroke-miterlimit:2;"><g id="commodore_plus4_c"><g><path d="M74.1,114.391c-5.132,1.492 -10.56,2.292 -16.174,2.292c-31.97,-0 -57.926,-25.956 -57.926,-57.926c0,-31.97 25.956,-57.925 57.926,-57.925c5.614,-0 11.042,0.8 16.174,2.292l-0,30.51c-4.662,-3.01 -10.216,-4.758 -16.174,-4.758c-16.492,0 -29.881,13.39 -29.881,29.881c-0,16.492 13.389,29.881 29.881,29.881c5.958,0 11.512,-1.747 16.174,-4.757l-0,30.51Z" style="fill:#fff;"/><path d="M101.118,60.796l-27.018,-0l-0,23.104l50.121,-0l-23.103,-23.104Zm-0,-4.077l23.103,-23.104l-50.121,-0l-0,23.104l27.018,-0Z" style="fill:#fff;"/></g><g><g><path d="M162.807,58.101c0,-7.217 3.749,-8.81 10.873,-8.81l9.466,-0c8.623,-0 9.467,2.999 9.467,8.342l-0,5.623c-0,5.343 -0.844,8.342 -9.467,8.342l-9.466,0c-7.124,0 -10.873,-1.593 -10.873,-8.81l0,-4.687Zm-17.996,42.928l17.996,-0l0,-24.932l0.188,0c4.03,7.592 7.592,8.998 17.808,8.998l3.656,0c22.776,0 25.587,-8.154 25.587,-20.339l0,-8.623c0,-12.185 -2.811,-20.339 -25.587,-20.339l-5.156,-0c-10.497,-0 -14.621,3.655 -16.871,7.873l-0.187,0l-0,-7.123l-17.434,-0l0,64.485Z" style="fill:#fff;fill-rule:nonzero;"/><rect x="222.231" y="16.486" width="17.996" height="67.86" style="fill:#fff;fill-rule:nonzero;"/><path d="M317.647,36.544l-17.996,-0l0,24.088c0,6.842 -4.593,10.404 -12.278,10.404l-4.124,-0c-7.874,-0 -11.623,-2.343 -11.623,-7.03l0,-27.462l-17.996,-0l0,27.462c0,20.62 15.559,21.089 26.713,21.089c9.654,0 15.934,-1.781 19.121,-8.435l0.187,-0l0,7.685l17.996,0l0,-47.801Z" style="fill:#fff;fill-rule:nonzero;"/><path d="M328.238,69.442c0,11.81 6.093,15.653 22.683,15.653l17.058,0c20.527,0 25.588,-3.28 25.588,-15.934c0,-8.529 -1.593,-15.746 -23.151,-15.746l-12.466,-0c-9.373,-0 -10.778,-0.75 -10.778,-2.812c-0,-3.281 1.968,-3.562 12.372,-3.562c10.779,0 12.466,0.469 13.403,3.281l17.996,-0c-0.188,-11.248 -4.312,-14.528 -27.838,-14.528l-12.559,-0c-12.372,-0 -21.933,1.781 -21.933,13.684c0,13.122 4.968,16.778 21.745,16.871l16.871,0c6.374,0 7.78,1.125 7.78,3.937c-0,2.906 -2.156,3.562 -10.685,3.562l-6.374,-0c-10.216,-0 -11.153,-1.781 -11.153,-4.406l-18.559,0Z" style="fill:#fff;fill-rule:nonzero;"/></g><g><path d="M392.065,116.683l23.796,-0l51.977,-115.851l-23.797,-0l-51.976,115.851Z" style="fill:#fff;fill-rule:nonzero;"/><path d="M462.231,92.73l88.141,-0l-0,22.701l32.877,-0l-0,-22.701l16.751,-0l0,-25.362l-16.751,-0l-0,-65.284l-40.079,0l-80.939,49.159l-0,41.487Zm88.141,-63.405l-0,38.043l-60.9,-0l-0,-0.313l60.9,-37.73Z" style="fill:#fff;fill-rule:nonzero;"/></g></g></g></svg>