<svg clip-rule="evenodd" fill-rule="evenodd" stroke-linejoin="round" stroke-miterlimit="2" viewBox="0 0 600 178" xmlns="http://www.w3.org/2000/svg"><g fill="#fff"><path d="m53.601 82.711c-3.712 1.08-7.639 1.658-11.7 1.658-23.126 0-41.901-18.775-41.901-41.901s18.775-41.901 41.901-41.901c4.061 0 7.988.579 11.7 1.658v22.07c-3.372-2.177-7.389-3.442-11.7-3.442-11.929 0-21.615 9.686-21.615 21.615 0 11.93 9.686 21.615 21.615 21.615 4.311 0 8.328-1.264 11.7-3.441z"/><path d="m73.145 43.943h-19.544v16.712h36.256zm0-2.95 16.712-16.712h-36.256v16.712z"/><path d="m135.558 38.323h12.495c-1.039-11.715-4.429-14.573-21.86-14.573-19.793 0-24.222 3.117-24.222 17.691 0 14.585 4.169 17.974 22.651 17.974 19.522 0 23.431-2.61 23.431-14.845h-12.495c0 3.39-1.299 4.949-10.936 4.949-8.337 0-10.156-2.079-10.156-8.858 0-6.507 1.819-6.507 11.727-6.507 7.287 0 8.586.791 9.365 4.169z"/><path d="m292.191 23.75h-11.715v34.354h12.494v-17.703c0-5.196 3.118-7.026 9.366-7.026 6.519 0 8.337 2.09 8.337 8.857v15.872h12.755v-18.222c0-4.937 3.649-6.507 9.637-6.507 5.728 0 8.586 1.83 8.586 6.507v18.222h12.506v-20.301c0-10.144-6.247-14.845-17.703-14.845-9.896 0-13.286 3.39-14.845 7.559-2.61-4.429-6.247-7.559-16.144-7.559-9.117 0-11.455 3.13-13.274 8.858z"/><path d="m214.227 23.75h-11.716v34.354h12.495v-17.703c0-5.196 2.61-7.026 9.637-7.026 6.507 0 8.338 2.35 8.338 8.857v15.872h12.754v-18.222c0-4.937 3.898-6.507 9.885-6.507 5.728 0 8.338 1.57 8.338 6.507v18.222h12.495v-20.301c0-10.144-6.248-14.845-17.703-14.845-9.897 0-13.534 3.65-14.845 7.559-2.598-4.429-6.248-7.559-16.144-7.559-9.365 0-11.975 3.13-13.534 8.858z"/><path d="m524.782 23.75h-11.975v34.354h12.495v-17.962c0-4.677 2.869-7.027 8.078-7.027 5.208 0 6.507 1.559 6.767 5.987h11.715c0-11.715-1.559-16.144-14.054-16.144-7.546 0-10.156 1.571-13.026 7.299z"/><path d="m199.245 40.401c0-14.053-3.909-16.911-23.95-16.911-21.612 0-24.222 3.377-24.222 17.951 0 14.845 3.649 17.974 24.222 17.974 21.872 0 23.95-3.649 23.95-19.014zm-35.158.792c0-7.039 1.571-7.818 10.417-7.818 10.156 0 11.987.259 11.987 7.818 0 7.027-1.311 8.326-10.936 8.326-10.157 0-11.468-1.04-11.468-8.326z"/><path d="m406.11 40.401c0-14.053-4.157-16.911-24.21-16.911-21.612 0-24.21 3.637-24.21 18.211 0 14.585 3.637 17.714 24.21 17.714 21.872 0 24.21-3.649 24.21-19.014zm-35.665.792c0-7.039 1.57-7.818 10.676-7.818 10.156 0 11.975.259 11.975 7.818 0 7.027-1.299 8.326-10.936 8.326-10.416 0-11.715-1.04-11.715-8.326z"/><path d="m509.515 40.401c0-14.053-3.897-16.911-23.938-16.911-21.352 0-23.951 3.377-23.951 17.951 0 14.845 3.638 17.974 23.951 17.974 21.86 0 23.938-3.649 23.938-19.014zm-35.394.792c0-7.039 1.559-7.818 10.676-7.818 10.145 0 11.975.259 11.975 7.818 0 7.027-1.31 8.326-10.935 8.326-10.417 0-11.716-1.04-11.716-8.326z"/><path d="m445.061 9.164v20.042c-2.858-3.898-5.468-5.976-15.885-5.976-16.663 0-19.781 4.429-19.781 17.963 0 13.794 4.417 17.691 20.561 17.691 10.156 0 13.274-2.598 15.624-7.027v6.247h12.495v-48.94zm-9.118 23.951c7.027 0 9.377 1.039 9.377 6.507 0 8.338-.519 9.117-10.416 9.117-9.885 0-12.495-.26-12.495-7.298 0-8.066 3.13-8.326 13.534-8.326z"/><path d="m580.986 51.337c-11.975 0-13.794-1.039-13.794-7.027h32.808c-.52-16.651-.52-20.56-22.651-20.56-18.754 0-22.923 3.377-22.923 18.222 0 13.794 5.48 17.172 20.573 17.443 16.923 0 25.001-.791 25.001-11.975h-12.235c-.531 2.598-1.571 3.897-6.779 3.897zm-14.054-14.313c.52-3.649 1.559-4.949 9.885-4.949 9.129 0 10.417.52 10.948 4.949z"/><g fill-rule="nonzero"><path d="m285.277 177.589h25.696v-21.066h51.046c18.173 0 23.613-14.353 23.613-26.854v-7.177c0-16.436-5.903-28.706-30.327-28.706h-70.028zm25.696-62.968h37.735c7.755 0 10.533 3.241 10.533 8.913v3.241c0 4.977-2.315 8.913-8.334 8.913h-39.934z"/><path d="m399.522 177.589h93.178v-20.14h-67.482v-13.427h62.505v-17.363h-62.505v-13.427h65.977v-19.446h-91.673z"/><path d="m502.076 114.621h36.114v62.968h25.696v-62.968h36.114v-20.835h-97.924z"/></g></g></svg>