<svg clip-rule="evenodd" fill-rule="evenodd" stroke-linejoin="round" stroke-miterlimit="2" viewBox="0 0 600 199" xmlns="http://www.w3.org/2000/svg"><g fill="#fff" fill-rule="nonzero"><path d="m96.982 91.699c-.014-1.119-.326-1.873-.935-2.261-.609-.389-1.431-.632-2.465-.731-3.497-.573-5.583-1.91-6.257-4.013-.675-2.103-.992-4.8-.952-8.093l-3.537-67.874c.014-2.446-.215-4.491-.68-6.138-.465-1.646-2.052-2.502-4.761-2.567-2.468.065-4.265.785-5.389 2.159-1.126 1.374-2.276 3.012-3.452 4.914l-43.526 61.209-7.345 10.337c-1.44 2.205-3.016 4.256-4.727 6.155-1.712 1.899-3.899 3.066-6.563 3.503-1.516.124-2.939.419-4.268.884-1.329.464-2.037 1.575-2.125 3.332.037 1.054.405 1.734 1.105 2.04.7.307 1.51.443 2.431.409 2.52-.034 5.064-.171 7.635-.409 2.57-.238 5.148-.374 7.736-.408 2.312.029 4.624.142 6.937.34 2.312.199 4.624.312 6.937.341 1.074.014 2.054-.219 2.941-.698s1.357-1.289 1.411-2.431c-.146-1.68-1.168-2.657-3.068-2.932-1.899-.274-3.798-.647-5.697-1.118-1.9-.471-2.922-1.842-3.068-4.111.34-2.434 1.938-5.897 4.794-10.389 2.857-4.491 4.931-7.648 6.223-9.47h27.204c.147 2.862.295 5.741.442 8.637.148 2.896.227 5.775.238 8.637-.149 3.992-1.195 6.331-3.138 7.018s-3.886 1.071-5.829 1.154c-1.943.082-2.989 1.212-3.138 3.39.023.935.317 1.581.884 1.938.566.357 1.269.528 2.108.511 3.746-.034 7.509-.171 11.29-.409 3.78-.238 7.543-.374 11.289-.408 2.517.023 5.033.114 7.549.272 2.517.159 5.033.25 7.55.272 1.127.037 2.102-.138 2.924-.527.822-.388 1.252-1.21 1.292-2.465zm-33.597-34.685h-22.715l21.627-31.557z"/><path d="m293.834 5.326c-.02-.816-.286-1.428-.799-1.836s-1.154-.612-1.921-.612c-1.219.006-2.421.062-3.605.17-1.185.108-2.386.233-3.605.374-3.001.326-6.044.524-9.13.595s-6.163.099-9.232.085c-2.245-.022-4.489-.113-6.733-.272-2.245-.158-4.489-.249-6.733-.272-1.068.003-2.026.303-2.874.901-.847.598-1.295 1.477-1.343 2.636.386 2.051 1.927 3.015 4.625 2.89s4.239 1.043 4.625 3.503c-.015.685-.094 1.388-.256 2.108-.161.72-.348 1.422-.561 2.108l-17.138 59.441c-.655 2.774-1.386 5.183-2.193 7.226-.808 2.043-2.661 3.398-5.56 4.064-1.329.195-2.888.518-4.676.969-1.788.45-2.768 1.487-2.941 3.111.04.941.402 1.61 1.088 2.006.686.397 1.456.59 2.312.578 2.927-.045 5.88-.226 8.859-.544 2.978-.317 5.965-.498 8.96-.544 3.202.029 6.421.142 9.657.34 3.236.199 6.456.312 9.658.34 1.317.097 2.83.04 4.539-.17 1.709-.209 2.644-1.15 2.806-2.822-.126-1.743-1.008-2.67-2.645-2.781s-3.275-.373-4.912-.786-2.519-1.944-2.645-4.594c.015-1.094.156-2.205.425-3.333.269-1.127.581-2.238.935-3.332l17.139-59.713c.629-2.457 1.377-4.242 2.244-5.356.867-1.113 2.568-1.912 5.101-2.397 1.284-.161 2.661-.519 4.132-1.071 1.47-.553 2.269-1.556 2.397-3.01z"/><path d="m383.315 6.006c-.192-1.466-1.682-2.507-4.468-3.123-2.787-.615-5.718-.981-8.791-1.098-3.074-.117-5.138-.16-6.192-.131-11.365.026-23.259 2.332-35.683 6.917-12.423 4.585-23.017 11.294-31.783 20.126-8.765 8.832-13.345 19.631-13.738 32.398.166 8.106 2.51 14.805 7.033 20.095 4.523 5.291 10.232 9.229 17.128 11.814s13.986 3.873 21.27 3.864c4.437-.003 8.892-.269 13.364-.799 4.471-.53 8.858-1.307 13.16-2.33 1.64-.331 3.052-.756 4.233-1.275 1.182-.518 2.083-1.59 2.704-3.213 1.198-3.409 2.269-6.861 3.213-10.355s1.913-6.979 2.908-10.456c1.635-4.949 3.578-7.853 5.828-8.711s4.244-1.262 5.98-1.214c1.737.049 2.652-1.041 2.746-3.269-.041-.941-.403-1.61-1.088-2.007-.686-.396-1.457-.589-2.313-.578-3.397.04-6.804.199-10.218.476-3.415.278-6.855.437-10.321.476-3.264-.034-6.529-.17-9.793-.408-3.265-.238-6.529-.374-9.794-.408-1.091-.031-2.139.168-3.145.595-1.006.428-1.545 1.273-1.615 2.534.129 1.537 1.034 2.392 2.715 2.564s3.362.503 5.043.992c1.681.49 2.586 1.979 2.715 4.469-.15 2.55-.938 6.053-2.363 10.507-1.426 4.455-2.587 8.026-3.486 10.712-.529 2.083-1.238 3.562-2.125 4.438-.887.875-2.446 1.3-4.676 1.275-7.971-.173-13.996-2.752-18.073-7.736-4.078-4.985-6.124-11.338-6.138-19.06.062-7.107 1.536-14.01 4.421-20.709 2.884-6.699 6.806-12.582 11.765-17.649 4.9-4.919 10.947-9.124 18.142-12.615 7.195-3.492 14.296-5.317 21.304-5.475 3.33-.034 5.376.612 6.138 1.938s1.074 3.537.935 6.631c-.014.816-.056 1.632-.135 2.448-.079.817-.125 1.633-.136 2.449-.043 1.357.179 2.587.664 3.689.484 1.103 1.487 1.686 3.009 1.751 1.663-.127 2.893-.96 3.69-2.499.796-1.539 1.379-3.018 1.751-4.438.354-1.042 1.108-3.343 2.261-6.903 1.153-3.559 1.805-5.792 1.955-6.699h-.001z"/><path d="m461.315 91.699c-.014-1.119-.326-1.873-.935-2.261-.609-.389-1.431-.632-2.465-.731-3.497-.573-5.583-1.91-6.257-4.013-.675-2.103-.992-4.8-.952-8.093l-3.537-67.874c.015-2.446-.215-4.492-.68-6.138s-2.051-2.502-4.761-2.567c-2.468.065-4.264.785-5.389 2.159s-2.276 3.012-3.452 4.914l-43.526 61.209-7.345 10.337c-1.44 2.205-3.015 4.256-4.727 6.155-1.711 1.899-3.899 3.066-6.563 3.503-1.516.124-2.938.419-4.267.884-1.329.464-2.038 1.575-2.126 3.332.038 1.054.405 1.734 1.105 2.04s1.511.442 2.432.408c2.519-.033 5.064-.17 7.634-.408s5.149-.374 7.736-.408c2.312.029 4.625.142 6.937.34 2.312.199 4.625.312 6.937.34 1.074.015 2.054-.218 2.941-.697s1.358-1.289 1.412-2.431c-.147-1.68-1.169-2.657-3.068-2.932-1.9-.275-3.799-.647-5.698-1.118s-2.922-1.842-3.068-4.111c.34-2.434 1.938-5.897 4.795-10.389 2.856-4.491 4.93-7.648 6.223-9.47h27.203c.148 2.862.295 5.741.443 8.637.147 2.896.226 5.775.238 8.637-.15 3.992-1.196 6.331-3.139 7.018s-3.886 1.071-5.829 1.154c-1.943.082-2.989 1.212-3.138 3.39.023.935.317 1.581.884 1.938s1.269.527 2.108.51c3.746-.033 7.51-.17 11.29-.408s7.543-.374 11.29-.408c2.516.023 5.032.114 7.549.272 2.516.159 5.032.25 7.549.272 1.127.037 2.102-.138 2.924-.527.822-.388 1.253-1.21 1.292-2.465zm-33.596-34.685h-22.716l21.627-31.557z"/><path d="m236.187 5.87c-.018-.875-.289-1.504-.816-1.887-.528-.382-1.208-.569-2.041-.561-2.862.017-5.741.085-8.637.204s-5.775.187-8.637.204c-1.516-.076-3.789-.161-6.818-.255-3.03-.093-5.064.264-6.104 1.071-.198.284-.38.601-.544.952-.165.352-.346.669-.544.953l-37.406 56.584-1.496-55.632c.071-1.057.032-1.97-.119-2.738s-.836-1.17-2.058-1.207c-3.134.023-6.285.08-9.453.17-3.168.091-6.319.08-9.453-.034-1.772-.082-3.534-.19-5.288-.323s-3.483-.207-5.186-.221c-1.162-.045-2.273.114-3.333.476-1.059.363-1.626 1.202-1.7 2.516.431 2.154 2.154 3.22 5.169 3.197s4.738 1.043 5.169 3.196c-.049 1.519-.36 3.072-.935 4.659-.576 1.587-1.125 3.072-1.65 4.455-3.312 9.19-6.616 18.388-9.912 27.595s-6.702 18.371-10.218 27.493c-1.324 3.891-2.622 6.617-3.894 8.178s-3.964 2.689-8.076 3.384c-1.134.17-2.131.51-2.993 1.02-.861.51-1.315 1.394-1.36 2.652.04 1.119.437 1.839 1.19 2.159.754.321 1.627.462 2.619.425 2.386-.017 4.789-.085 7.209-.204s4.823-.187 7.209-.204c2.241.029 4.457.142 6.648.34 2.19.199 4.372.312 6.546.34 1.014.009 1.978-.246 2.89-.765.913-.518 1.4-1.351 1.462-2.499-.151-1.908-1.209-2.929-3.173-3.063-1.965-.134-3.93-.45-5.895-.947-1.964-.497-3.022-2.244-3.173-5.239.194-4.289 1.709-10.659 4.544-19.109 2.834-8.45 5.82-16.643 8.957-24.579s5.256-13.278 6.357-16.025l1.497 64.745c-.038 1.998.172 3.579.629 4.744.456 1.165 1.788 1.76 3.995 1.785 2.247-.087 4.01-.864 5.288-2.329s2.463-3.092 3.554-4.88l43.526-64.065-14.418 54.136c-.439 2.329-1.091 4.676-1.955 7.039-.865 2.363-2.571 3.825-5.118 4.386-1.46.103-3.097.341-4.914.715-1.816.374-2.808 1.496-2.975 3.366.031 1.006.376 1.715 1.037 2.125.66.411 1.448.61 2.363.595 3.134-.045 6.285-.226 9.454-.544 3.168-.317 6.319-.498 9.453-.544 3.264.046 6.529.227 9.793.544 3.265.318 6.529.499 9.794.544 1.21.034 2.292-.17 3.247-.612s1.46-1.326 1.514-2.652c-.119-1.636-.941-2.581-2.469-2.836s-3.056-.617-4.584-1.083c-1.529-.467-2.351-1.836-2.469-4.106.023-1.647.215-3.318.578-5.016.363-1.697.76-3.335 1.19-4.914l13.874-55.632c.485-2.445 1.114-4.355 1.888-5.73.773-1.374 2.456-2.23 5.049-2.567 1.386-.079 2.729-.363 4.03-.85s1.998-1.519 2.091-3.095h.001z"/><path d="m258.367 167.921c0 25.007 14.037 30.905 37.629 30.905h29.146c26.306 0 31.496-11.324 31.496-25.715v-8.021h-26.187c0 10.616-3.539 11.796-15.335 11.796h-14.873c-12.386 0-14.981-4.719-14.981-17.104v-9.201c0-10.617 2.595-17.104 16.396-17.104h15.463c7.786 0 12.268 1.769 12.268 7.903v2.359h26.187c.236-24.182-4.6-32.203-41.876-32.203h-17.704c-23.592 0-37.629 5.898-37.629 30.905z"/><path d="m363.248 197.883h62.679c26.188 0 35.388-8.611 35.388-29.726v-25.951c0-21.115-9.2-29.726-35.388-29.726h-62.679zm26.188-64.171h30.122c11.206 0 15.57 3.185 15.57 15.335v11.56c0 12.15-4.364 15.335-15.57 15.335h-30.122z"/><path d="m478.628 141.861c0 10.107 7.296 12.584 15.931 12.584h24.699c13.454 0 16.801-3.681 16.801-13.253 0-7.698-1.272-10.174-9.104-11.513v-.201c6.627-2.008 8.033-3.012 8.033-11.178 0-10.71-4.084-13.387-21.353-13.387h-9.973c-18.207 0-24.566 1.405-24.566 14.458v2.677h14.057v-2.075c0-3.614 1.473-4.618 6.292-4.618h14.726c4.417 0 6.76.937 6.76 4.685 0 3.481-.87 4.686-5.689 4.686h-13.856v10.04h15.261c4.552 0 5.355 1.473 5.355 4.686 0 3.279-.535 4.551-5.154 4.551h-17.738c-5.154 0-6.426-1.071-6.426-5.154v-2.142h-14.056z"/><path d="m543.239 153.91h56.761v-10.442h-43.106c0-4.351.937-5.556 7.162-5.891l15.328-.803c17.336-.937 19.947-3.347 19.947-17.604 0-10.107-3.615-14.257-17.537-14.257h-19.546c-13.387 0-19.009 3.213-19.009 12.785v5.689h14.056v-2.075c0-5.02 1.941-5.957 8.233-5.957h9.84c9.505 0 9.906.87 9.906 4.819 0 4.753-.736 4.953-11.58 5.623l-17.001 1.071c-9.572.669-13.454 4.618-13.454 10.575z"/></g></svg>