<svg clip-rule="evenodd" fill-rule="evenodd" stroke-linejoin="round" stroke-miterlimit="2" viewBox="0 0 600 210" xmlns="http://www.w3.org/2000/svg"><g fill="#fff"><g fill-rule="nonzero"><path d="m169.119 63.336c-1.931 1.545-5.022 2.086-7.571 2.086-6.645 0-13.212-4.25-13.212-14.216 0-7.572 5.563-12.98 13.057-12.98 1.932 0 5.64.695 7.108 1.932l-1.004-16.92c-1.391-.387-4.25-.618-7.108-.618-16.071 0-27.505 12.979-27.505 28.663 0 16.379 10.198 29.745 27.35 29.745 2.55 0 5.099-.309 7.572-.927z"/><path d="m229.691 51.824c0-16.147-13.057-29.204-28.586-29.204s-28.586 13.057-28.586 29.204 13.057 29.204 28.586 29.204 28.586-13.057 28.586-29.204zm-14.834 0c0 7.571-6.181 14.216-13.752 14.216-7.494 0-13.753-6.336-13.753-14.216 0-7.881 6.259-14.216 13.753-14.216 7.571 0 13.752 6.644 13.752 14.216z"/><path d="m231.854 79.638h14.834l3.245-22.869h.155l11.125 23.255 11.126-23.255h.154l3.245 22.869h14.834l-7.648-55.628h-11.59l-10.121 21.633-9.812-21.633h-11.589z"/><path d="m291.963 79.638h14.834l3.245-22.869h.154l11.126 23.255 11.125-23.255h.155l3.245 22.869h14.834l-7.649-55.628h-11.589l-10.121 21.633-9.812-21.633h-11.589z"/><path d="m410.017 51.824c0-16.147-13.057-29.204-28.587-29.204-15.529 0-28.586 13.057-28.586 29.204s13.057 29.204 28.586 29.204c15.53 0 28.587-13.057 28.587-29.204zm-14.834 0c0 7.571-6.181 14.216-13.753 14.216-7.494 0-13.752-6.336-13.752-14.216 0-7.881 6.258-14.216 13.752-14.216 7.572 0 13.753 6.644 13.753 14.216z"/><path d="m415.734 79.638h11.512c16.92 0 28.123-12.362 28.123-28.123 0-13.134-8.576-27.505-26.423-27.505h-13.212zm14.525-40.948c8.421.85 10.276 7.494 10.276 12.67 0 4.095-1.005 11.28-10.276 12.671z"/><path d="m515.941 51.824c0-16.147-13.057-29.204-28.587-29.204-15.529 0-28.586 13.057-28.586 29.204s13.057 29.204 28.586 29.204c15.53 0 28.587-13.057 28.587-29.204zm-14.834 0c0 7.571-6.181 14.216-13.753 14.216-7.494 0-13.752-6.336-13.752-14.216 0-7.881 6.258-14.216 13.752-14.216 7.572 0 13.753 6.644 13.753 14.216z"/><path d="m521.658 79.638h14.525v-22.947h.154l9.813 22.947h16.379l-10.662-24.106c4.867-3.244 7.571-7.726 7.571-13.675 0-11.82-7.648-17.847-18.697-17.847h-19.083zm14.525-43.266c5.408 0 8.73 1.854 8.73 6.876s-3.322 6.876-8.73 6.876z"/><path d="m566.005 79.638h30.209l3.786-14.68h-19.47v-5.794h11.435v-14.68h-11.435v-5.794h17.538l-2.24-14.68h-29.823z"/></g><path d="m552.652 154.823c-10.321 0-18.7 8.38-18.7 18.7 0 10.321 8.379 18.7 18.7 18.7 10.32 0 18.699-8.379 18.699-18.7 0-10.32-8.379-18.7-18.699-18.7zm0 1.521c9.481 0 17.179 7.698 17.179 17.179 0 9.482-7.698 17.18-17.179 17.18-9.482 0-17.18-7.698-17.18-17.18 0-9.481 7.698-17.179 17.18-17.179zm0 1.988c8.384 0 15.191 6.807 15.191 15.191s-6.807 15.191-15.191 15.191c-8.385 0-15.192-6.807-15.192-15.191s6.807-15.191 15.192-15.191zm0 1.52c7.545 0 13.671 6.126 13.671 13.671s-6.126 13.671-13.671 13.671c-7.546 0-13.671-6.126-13.671-13.671s6.125-13.671 13.671-13.671z"/><path d="m552.652 113.135c-7.951 0-14.405 6.455-14.405 14.405 0 7.951 6.454 14.405 14.405 14.405 7.95 0 14.405-6.454 14.405-14.405 0-7.95-6.455-14.405-14.405-14.405zm0 1.521c7.111 0 12.884 5.773 12.884 12.884 0 7.112-5.773 12.885-12.884 12.885-7.112 0-12.885-5.773-12.885-12.885 0-7.111 5.773-12.884 12.885-12.884zm0 1.988c6.013 0 10.896 4.882 10.896 10.896s-4.883 10.897-10.896 10.897c-6.014 0-10.897-4.883-10.897-10.897s4.883-10.896 10.897-10.896zm0 1.52c5.174 0 9.376 4.201 9.376 9.376s-4.202 9.376-9.376 9.376c-5.175 0-9.377-4.201-9.377-9.376s4.202-9.376 9.377-9.376z"/><path d="m527.852 147.493c-6.874 6.551-11.159 15.794-11.159 26.03 0 19.846 16.112 35.959 35.959 35.959 19.846 0 35.959-16.113 35.959-35.959 0-10.236-4.286-19.479-11.159-26.03 4.4-5.461 7.034-12.402 7.034-19.953 0-17.57-14.264-31.834-31.834-31.834s-31.835 14.264-31.835 31.834c0 7.551 2.634 14.492 7.035 19.953zm2.104.136c-7.197 6.313-11.743 15.577-11.743 25.894 0 19.007 15.431 34.439 34.439 34.439 19.007 0 34.438-15.432 34.438-34.439 0-10.317-4.546-19.581-11.743-25.894 4.741-5.351 7.619-12.387 7.619-20.089 0-16.731-13.583-30.314-30.314-30.314s-30.315 13.583-30.315 30.314c0 7.702 2.878 14.738 7.619 20.089zm2.913.177c-5.271-5.147-8.543-12.327-8.543-20.266 0-15.633 12.692-28.326 28.326-28.326 15.633 0 28.326 12.693 28.326 28.326 0 7.939-3.273 15.119-8.544 20.266 7.702 5.935 12.668 15.251 12.668 25.717 0 17.91-14.541 32.451-32.45 32.451-17.91 0-32.451-14.541-32.451-32.451 0-10.466 4.966-19.782 12.668-25.717zm.928 1.204 1.387-1.069-1.253-1.223c-4.988-4.87-8.085-11.665-8.085-19.178 0-14.794 12.011-26.806 26.806-26.806 14.794 0 26.806 12.012 26.806 26.806 0 7.513-3.098 14.308-8.086 19.178l-1.252 1.223 1.386 1.069c7.342 5.657 12.076 14.537 12.076 24.513 0 17.071-13.86 30.93-30.93 30.93-17.071 0-30.931-13.859-30.931-30.93 0-9.976 4.735-18.856 12.076-24.513z"/><path d="m382.948 113.886-3.305.191v23.397h10.979v.476 70.808h27.971v-110.425h-25.945l-.188 3.31c-.217 3.839-2.585 7.464-5.214 9.831-1.479 1.331-2.999 2.337-4.298 2.412zm-1.785 1.626v20.442h10.979v71.283h24.931v-107.384h-22.989l-.106 1.876c-.24 4.238-2.813 8.262-5.715 10.875-1.78 1.602-3.664 2.709-5.227 2.8zm1.988 18.454h10.979v71.283h20.955v-103.407h-19.122c-.449 7.933-8.04 15.271-12.812 15.547zm1.52-1.52v-13.776c1.872-.491 3.983-1.698 5.939-3.459 3.205-2.884 6.008-7.219 6.72-11.849h16.235v100.367h-17.915v-71.283z"/><path d="m429.762 134.639v3.508h26.352l.066-3.441c.072-3.741.836-7.973 3.975-10.708 2.088-1.819 5.191-3.1 9.623-2.896 5.173.238 9.321 5.431 9.321 10.656 0 6.18-1.825 10.298-6.803 15.208-3.715 3.664-16.29 12.981-16.638 13.239-24.459 17.79-25.338 31.651-26.133 44.833 0 0-.224 3.72-.224 3.72h80.783v-25.577h-42.942c.005-.004.01-.009.015-.013 3.919-3.343 9.849-7.367 18.158-13.201 11.155-7.601 22.71-17.739 22.71-37.461 0-20.138-16.626-36.082-39.075-36.082-7.25 0-23.487 2.197-32.617 15.067-3.907 5.509-6.571 12.982-6.571 23.148zm1.52 1.988h23.341l.037-1.95c.08-4.143 1.019-8.796 4.496-11.825 2.323-2.024 5.761-3.496 10.692-3.269 5.939.273 10.771 6.176 10.771 12.175 0 6.615-1.927 11.034-7.256 16.29-3.805 3.754-16.808 13.384-16.808 13.384-23.85 17.346-24.738 30.843-25.512 43.698l-.127 2.107h77.648v-22.536h-45.234c.778-.853 1.724-1.738 2.84-2.69 3.946-3.365 9.914-7.42 18.28-13.294 10.797-7.356 22.055-17.122 22.055-36.211 0-19.324-16.013-34.561-37.555-34.561-6.969 0-22.602 2.055-31.377 14.425-3.758 5.298-6.291 12.492-6.291 22.269zm21.39-1.988c.15-7.784 3.301-17.332 17.176-17.044 7.72.16 12.76 7.128 12.76 14.163 0 11.974-5.725 17.362-24.884 31.282-23.05 16.764-23.948 29.786-24.696 42.209h73.547v-18.56h-47.055c2.395-4.939 9.729-9.729 23.799-19.608 10.328-7.034 21.198-16.314 21.198-34.575 0-18.26-15.211-32.573-35.567-32.573-9.43 0-35.679 3.818-35.679 34.706zm-1.455-1.521h-16.404c.24-8.11 2.408-14.186 5.622-18.718 7.957-11.218 22.196-12.947 28.515-12.947 19.45 0 34.047 13.606 34.047 31.053 0 17.622-10.567 26.53-20.534 33.319l-.009.006c-8.503 5.971-14.555 10.095-18.56 13.511-2.856 2.435-4.711 4.558-5.741 6.684l-1.059 2.183h47.961v15.52h-70.41c.751-11.611 2.529-23.863 23.973-39.459 19.807-14.391 25.51-20.133 25.51-32.512 0-7.82-5.668-15.505-14.248-15.683-6.037-.125-10.189 1.519-13.031 4.01-3.84 3.366-5.311 8.364-5.632 13.033z"/><path d="m61.403 94.525c-4.253 1.236-8.751 1.899-13.403 1.899-26.492 0-48-21.508-48-48s21.508-48 48-48c4.652 0 9.15.663 13.403 1.899v25.283c-3.863-2.494-8.465-3.943-13.403-3.943-13.666 0-24.761 11.095-24.761 24.761s11.095 24.761 24.761 24.761c4.938 0 9.54-1.448 13.403-3.942z"/><path d="m83.791 50.113h-22.388v19.146h41.533zm0-3.378 19.145-19.145h-41.533v19.145z"/></g></svg>