<?xml version="1.0" encoding="UTF-8" standalone="no"?><!DOCTYPE svg PUBLIC "-//W3C//DTD SVG 1.1//EN" "http://www.w3.org/Graphics/SVG/1.1/DTD/svg11.dtd"><svg width="100%" height="100%" viewBox="0 0 600 182" version="1.1" xmlns="http://www.w3.org/2000/svg" xmlns:xlink="http://www.w3.org/1999/xlink" xml:space="preserve" xmlns:serif="http://www.serif.com/" style="fill-rule:evenodd;clip-rule:evenodd;stroke-linejoin:round;stroke-miterlimit:2;"><g id="commodore_cdtv"><g><g><path d="M52.496,80.451c-3.635,1.057 -7.481,1.624 -11.458,1.624c-22.65,0 -41.038,-18.388 -41.038,-41.037c0,-22.65 18.388,-41.038 41.038,-41.038c3.977,0 7.823,0.567 11.458,1.624l0,21.615c-3.303,-2.132 -7.237,-3.371 -11.458,-3.371c-11.684,0 -21.17,9.486 -21.17,21.17c0,11.683 9.486,21.169 21.17,21.169c4.221,-0 8.155,-1.238 11.458,-3.371l0,21.615Z" style="fill:#fff;"/><path d="M71.637,42.482l-19.141,-0l0,16.368l35.509,-0l-16.368,-16.368Zm-0,-2.889l16.368,-16.368l-35.509,0l0,16.368l19.141,0Z" style="fill:#fff;"/></g><g><path d="M161.258,56.971c-3.926,1.539 -8.698,2.771 -13.393,2.771c-10.469,-0 -17.935,-6.389 -17.935,-16.934c0,-10.006 6.62,-17.396 16.78,-17.396c4.926,0 9.391,1.232 14.009,3.772l1.155,-11.623c-5.158,-1.539 -10.469,-2.771 -15.934,-2.771c-17.703,-0 -30.789,9.314 -30.789,28.018c0,20.321 16.549,27.556 30.866,27.556c7.313,-0 11.854,-1.155 15.934,-2.155l-0.693,-11.238Z" style="fill:#fff;fill-rule:nonzero;"/><path d="M189.199,70.364c13.239,-0 23.322,-7.697 23.322,-20.936c0,-13.317 -10.083,-21.014 -23.322,-21.014c-13.239,0 -23.323,7.697 -23.323,21.014c0,13.239 10.084,20.936 23.323,20.936Zm-0,-9.699c-6.389,0 -9.006,-5.311 -9.006,-11.237c-0,-6.004 2.617,-11.315 9.006,-11.315c6.388,-0 9.006,5.311 9.006,11.315c-0,5.926 -2.618,11.237 -9.006,11.237Z" style="fill:#fff;fill-rule:nonzero;"/><path d="M219.218,69.44l13.855,0l-0,-16.934c-0,-8.62 2.925,-12.546 7.851,-12.546c3.926,-0 5.542,3.387 5.542,7.928l0,21.552l13.855,0l0,-16.934c0,-8.62 2.925,-12.546 7.851,-12.546c3.926,-0 5.542,3.387 5.542,7.928l0,21.552l13.855,0l0,-23.63c0,-10.853 -2.617,-17.396 -14.163,-17.396c-5.695,0 -11.007,2.309 -14.239,7.697c-2.156,-5.234 -6.851,-7.697 -12.547,-7.697c-6.312,0 -11.854,2.54 -14.625,8.313l-0.154,0l0,-7.389l-12.623,-0l-0,40.102Z" style="fill:#fff;fill-rule:nonzero;"/><path d="M296.19,69.44l13.855,0l0,-16.934c0,-8.62 2.925,-12.546 7.851,-12.546c3.926,-0 5.542,3.387 5.542,7.928l0,21.552l13.855,0l0,-16.934c0,-8.62 2.925,-12.546 7.852,-12.546c3.925,-0 5.542,3.387 5.542,7.928l-0,21.552l13.855,0l-0,-23.63c-0,-10.853 -2.617,-17.396 -14.163,-17.396c-5.696,0 -11.007,2.309 -14.24,7.697c-2.155,-5.234 -6.851,-7.697 -12.547,-7.697c-6.311,0 -11.853,2.54 -14.624,8.313l-0.154,0l-0,-7.389l-12.624,-0l0,40.102Z" style="fill:#fff;fill-rule:nonzero;"/><path d="M394.561,70.364c13.239,-0 23.323,-7.697 23.323,-20.936c-0,-13.317 -10.084,-21.014 -23.323,-21.014c-13.239,0 -23.323,7.697 -23.323,21.014c0,13.239 10.084,20.936 23.323,20.936Zm-0,-9.699c-6.389,0 -9.006,-5.311 -9.006,-11.237c0,-6.004 2.617,-11.315 9.006,-11.315c6.389,-0 9.006,5.311 9.006,11.315c-0,5.926 -2.617,11.237 -9.006,11.237Z" style="fill:#fff;fill-rule:nonzero;"/><path d="M467.685,11.711l-13.932,0l-0,22.784l-0.154,-0c-3.541,-4.618 -8.236,-6.081 -13.778,-6.081c-11.084,0 -17.165,10.391 -17.165,20.244c-0,11.854 6.388,21.706 18.319,21.706c6.389,-0 12.008,-3.618 13.778,-8.082l0.154,-0l0,7.158l12.778,0l-0,-57.729Zm-30.712,37.255c-0,-5.311 3.002,-9.93 8.39,-9.93c5.08,0 8.467,4.388 8.467,10.469c-0,5.849 -3.849,10.237 -8.467,10.237c-5.234,-0 -8.39,-4.388 -8.39,-10.776Z" style="fill:#fff;fill-rule:nonzero;"/><path d="M497.396,70.364c13.239,-0 23.323,-7.697 23.323,-20.936c-0,-13.317 -10.084,-21.014 -23.323,-21.014c-13.239,0 -23.323,7.697 -23.323,21.014c0,13.239 10.084,20.936 23.323,20.936Zm-0,-9.699c-6.389,0 -9.006,-5.311 -9.006,-11.237c0,-6.004 2.617,-11.315 9.006,-11.315c6.389,-0 9.006,5.311 9.006,11.315c-0,5.926 -2.617,11.237 -9.006,11.237Z" style="fill:#fff;fill-rule:nonzero;"/><path d="M556.742,28.876c-1.386,-0.231 -3.079,-0.462 -4.696,-0.462c-6.004,0 -9.467,3.233 -11.853,8.313l-0.154,0l-0,-7.389l-12.624,-0l0,40.102l13.855,0l0,-16.934c0,-7.851 3.618,-12.546 10.083,-12.546c1.617,-0 3.156,-0 4.696,0.462l0.693,-11.546Z" style="fill:#fff;fill-rule:nonzero;"/><path d="M600,53.43l0,-2.54c0,-11.931 -5.388,-22.476 -20.244,-22.476c-12.469,0 -21.475,7.697 -21.475,20.937c0,13.239 10.083,21.013 23.323,21.013c5.157,-0 10.237,-0.77 14.701,-2.54l0,-9.776c-4.156,2.233 -8.467,3.079 -12.238,3.079c-6.774,0 -11.007,-2.155 -11.777,-7.697l27.71,0Zm-27.864,-7.851c0.308,-4.618 2.694,-8.39 7.697,-8.39c5.542,-0 7.697,3.772 7.697,8.39l-15.394,-0Z" style="fill:#fff;fill-rule:nonzero;"/></g></g><g><path d="M124.092,148.417c0,22.476 7.615,33.284 31.688,33.284l45.444,0c24.932,0 30.091,-8.72 30.091,-24.81l-0,-6.018l-11.3,0l0,5.527c0,12.037 -4.667,15.476 -20.879,15.476l-42.128,-0c-11.545,-0 -20.879,-3.439 -20.879,-18.915l-0,-33.407c-0,-15.476 9.334,-18.915 20.879,-18.915l41.759,0c11.054,0 20.389,0.737 20.389,15.844l-0,4.053l10.562,0l0,-7.615c0,-11.913 -6.018,-22.107 -27.88,-22.107l-46.058,-0c-24.073,-0 -31.688,10.808 -31.688,33.284l0,24.319Z" style="fill:#fff;fill-rule:nonzero;"/><path d="M347.749,141.047c0,26.653 -10.071,29.846 -24.687,29.846l-61.042,-0l0,-69.271l63.007,-0c14.739,-0 22.722,4.667 22.722,30.337l0,9.088Zm-97.765,39.672l71.481,-0c30.214,-0 38.321,-11.791 38.321,-44.462c-0,-35.126 -8.107,-44.461 -37.952,-44.461l-71.85,0l-0,88.923Z" style="fill:#fff;fill-rule:nonzero;"/><path d="M416.283,180.719l12.037,-0l-0,-79.097l44.952,-0l0,-9.826l-101.941,0l-0,9.826l44.952,-0l0,79.097Z" style="fill:#fff;fill-rule:nonzero;"/><path d="M527.191,180.719l14.738,-0l49.251,-88.923l-13.51,0l-43.11,78.114l-43.11,-78.114l-13.511,0l49.252,88.923Z" style="fill:#fff;fill-rule:nonzero;"/></g></g></svg>