<?xml version="1.0" encoding="UTF-8" standalone="no"?><!DOCTYPE svg PUBLIC "-//W3C//DTD SVG 1.1//EN" "http://www.w3.org/Graphics/SVG/1.1/DTD/svg11.dtd"><svg width="100%" height="100%" viewBox="0 0 600 120" version="1.1" xmlns="http://www.w3.org/2000/svg" xmlns:xlink="http://www.w3.org/1999/xlink" xml:space="preserve" xmlns:serif="http://www.serif.com/" style="fill-rule:evenodd;clip-rule:evenodd;stroke-linejoin:round;stroke-miterlimit:2;"><g id="commodore_pet_c"><g><g><path d="M76.744,117.612c-5.314,1.545 -10.937,2.374 -16.751,2.374c-33.111,0 -59.993,-26.882 -59.993,-59.993c0,-33.111 26.882,-59.993 59.993,-59.993c5.814,0 11.437,0.829 16.751,2.374l0,31.599c-4.828,-3.117 -10.58,-4.927 -16.751,-4.927c-17.08,-0 -30.947,13.867 -30.947,30.947c-0,17.081 13.867,30.948 30.947,30.948c6.171,-0 11.923,-1.811 16.751,-4.928l0,31.599Z" style="fill:#fff;"/><path d="M104.727,62.105l-27.983,-0l0,23.928l51.911,-0l-23.928,-23.928Zm-0,-4.223l23.928,-23.929l-51.911,0l0,23.929l27.983,-0Z" style="fill:#fff;"/></g></g><g><path d="M149.389,119.986l36.791,0l0,-30.162l73.086,-0c26.019,-0 33.808,-20.55 33.808,-38.449l-0,-10.275c-0,-23.533 -8.452,-41.1 -43.421,-41.1l-100.264,0l-0,119.986Zm36.791,-90.155l54.027,-0c11.104,-0 15.081,4.64 15.081,12.761l0,4.64c0,7.126 -3.314,12.761 -11.932,12.761l-57.176,0l0,-30.162Z" style="fill:#fff;fill-rule:nonzero;"/><path d="M312.961,119.986l133.41,0l0,-28.836l-96.619,-0l0,-19.225l89.493,0l-0,-24.859l-89.493,0l0,-19.224l94.465,0l-0,-27.842l-131.256,0l0,119.986Z" style="fill:#fff;fill-rule:nonzero;"/><path d="M459.795,29.831l51.707,-0l-0,90.155l36.791,0l0,-90.155l51.707,-0l0,-29.831l-140.205,0l0,29.831Z" style="fill:#fff;fill-rule:nonzero;"/></g></g></svg>