<svg clip-rule="evenodd" fill-rule="evenodd" stroke-linejoin="round" stroke-miterlimit="2" viewBox="0 0 600 70" xmlns="http://www.w3.org/2000/svg"><g fill="#fff"><path d="m38.904 19.855h-23.595c-2.72 0-5.027.264-6.923.782-1.964.538-3.563 1.396-4.804 2.563-1.247 1.173-2.164 2.687-2.741 4.549-.558 1.797-.841 3.99-.841 6.578v8.999c0 2.587.283 4.788.84 6.602.577 1.881 1.495 3.404 2.742 4.577 1.243 1.169 2.843 2.019 4.809 2.538 1.895.5 4.201.754 6.918.754h23.595c.597 0 1.032-.183 1.33-.481s.481-.733.481-1.329v-5.127c0-.596-.183-1.032-.481-1.33s-.733-.481-1.33-.481h-23.281c-1.295 0-2.366-.104-3.212-.319-.757-.193-1.363-.511-1.808-.971-.45-.465-.763-1.1-.958-1.896-.217-.882-.321-1.99-.321-3.322v-7.429c0-1.331.104-2.429.32-3.293.195-.781.509-1.408.959-1.873.445-.46 1.051-.778 1.808-.971.846-.215 1.917-.319 3.212-.319h23.281c.601 0 1.04-.191 1.34-.505.291-.304.471-.749.471-1.358v-5.127c0-.596-.183-1.032-.481-1.33s-.733-.481-1.33-.481z"/><path d="m75.146 19.855h-16.166c-2.719 0-5.027.264-6.923.782-1.964.538-3.562 1.396-4.803 2.563-1.248 1.173-2.165 2.687-2.742 4.549-.557 1.797-.841 3.99-.841 6.578v8.999c0 2.587.283 4.788.84 6.602.577 1.881 1.495 3.404 2.743 4.577 1.242 1.169 2.843 2.019 4.808 2.538 1.895.5 4.201.754 6.918.754h16.166c2.717 0 5.031-.253 6.943-.754 1.984-.519 3.594-1.369 4.836-2.538 1.249-1.174 2.159-2.7 2.718-4.582.539-1.814.812-4.012.812-6.597v-8.999c0-2.586-.274-4.777-.813-6.572-.559-1.865-1.468-3.381-2.717-4.555-1.241-1.167-2.849-2.026-4.831-2.563-1.913-.519-4.229-.782-6.948-.782zm-22.151 22.895v-7.848c0-1.297.105-2.388.321-3.269.195-.796.508-1.431.958-1.896.445-.46 1.051-.778 1.808-.971.847-.216 1.917-.32 3.212-.32h15.539c1.294 0 2.365.104 3.211.32.757.193 1.363.511 1.808.971.45.465.763 1.1.958 1.896.217.881.322 1.972.322 3.269v7.848c0 1.298-.105 2.388-.322 3.27-.195.795-.508 1.431-.958 1.896-.445.46-1.051.778-1.808.971-.846.215-1.917.319-3.211.319h-15.539c-1.295 0-2.365-.104-3.212-.319-.757-.193-1.363-.511-1.808-.971-.45-.465-.763-1.101-.958-1.896-.216-.882-.321-1.972-.321-3.27z"/><path d="m465.005 69.717 27.128-24.415v-16.277l-33.458-28.485 8.138 28.032 18.99 5.426v6.33l-15.825 5.878z"/><path d="m526.043 69.717-27.128-24.415v-16.277l33.458-28.485-8.138 28.032-18.99 5.426v6.33l15.825 5.878z"/><path d="m103.277 28.813h.23c.021 0 .05.003.069.006l.01.024 10.568 23.437c.436.982.883 1.808 1.337 2.48.474.702.988 1.28 1.539 1.735.578.479 1.236.818 1.975 1.018.694.187 1.509.284 2.447.284h2.512c.938 0 1.754-.097 2.448-.284.738-.2 1.396-.539 1.975-1.018.55-.455 1.064-1.033 1.538-1.735.454-.672.901-1.498 1.337-2.48 0 0 10.568-23.437 10.568-23.437l.01-.024c.02-.003.048-.006.069-.006h.23v27.174c0 .596.183 1.031.481 1.329s.733.481 1.33.481h5.336c.609 0 1.054-.179 1.358-.47.314-.301.505-.739.505-1.34v-30.031c0-2.182-.389-3.713-1.078-4.613-.722-.942-2.1-1.488-4.186-1.488h-5.598c-.816 0-1.512.058-2.087.169-.637.124-1.201.362-1.695.711-.481.341-.914.799-1.295 1.38-.349.533-.708 1.238-1.075 2.118 0 0-10.879 25.104-10.879 25.104-.024.054-.069.079-.129.079h-.628c-.06 0-.104-.024-.129-.076-.001-.003-10.879-25.107-10.879-25.107-.367-.88-.727-1.585-1.076-2.118-.38-.581-.814-1.039-1.295-1.38-.493-.349-1.067-.588-1.724-.711-.593-.111-1.296-.169-2.11-.169h-5.703c-2.122 0-3.517.547-4.238 1.488-.689.9-1.078 2.431-1.078 4.613v30.031c0 .601.191 1.039.505 1.34.304.291.749.47 1.358.47h5.337c.596 0 1.031-.183 1.329-.481s.481-.733.481-1.329z"/><path d="m164.389 28.813h.23c.021 0 .05.003.07.006l.009.024 10.568 23.437c.436.982.883 1.808 1.337 2.48.475.702.989 1.28 1.539 1.735.578.479 1.237.818 1.975 1.018.694.187 1.51.284 2.448.284h2.511c.938 0 1.754-.097 2.448-.284.738-.2 1.396-.539 1.975-1.018.55-.455 1.064-1.033 1.538-1.735.455-.672.901-1.498 1.337-2.48 0 0 10.568-23.437 10.568-23.437l.01-.024c.02-.003.048-.006.069-.006h.23v27.174c0 .596.183 1.031.481 1.329s.734.481 1.33.481h5.336c.609 0 1.054-.179 1.359-.47.314-.301.504-.739.504-1.34v-30.031c0-2.182-.389-3.713-1.078-4.613-.722-.942-2.1-1.488-4.185-1.488h-5.599c-.816 0-1.512.058-2.087.169-.637.124-1.201.362-1.694.711-.481.341-.915.799-1.296 1.38-.348.533-.708 1.238-1.075 2.118 0 0-10.879 25.104-10.879 25.104-.024.054-.069.079-.129.079h-.628c-.06 0-.104-.024-.128-.076-.001-.003-10.88-25.107-10.88-25.107-.367-.88-.727-1.585-1.075-2.118-.381-.581-.815-1.039-1.296-1.38-.493-.349-1.067-.588-1.724-.711-.592-.111-1.296-.169-2.11-.169h-5.703c-2.122 0-3.517.547-4.238 1.488-.689.9-1.077 2.431-1.077 4.613v30.031c0 .601.19 1.039.504 1.34.304.291.75.47 1.358.47h5.337c.596 0 1.031-.183 1.329-.481s.481-.733.481-1.329z"/><path d="m240.833 19.855h-3.087c-1.253 0-2.348.31-3.287.917-.903.583-1.842 1.706-2.783 3.399-.001.001-.001.003-.002.004l-17.161 31.444c-.003.007-.007.014-.011.021-.28.56-.296 1.03-.156 1.395.16.417.592.762 1.426.762h6.802c.831 0 1.42-.351 1.784-1.027l3.424-6.402h23.805s3.517 6.389 3.517 6.389c.318.672.903 1.04 1.791 1.04h6.644c.791 0 1.21-.334 1.374-.762.141-.365.124-.835-.156-1.395-.004-.008-.008-.016-.012-.024l-17.319-31.445c-.944-1.699-1.925-2.826-2.907-3.412-.999-.595-2.226-.904-3.686-.904zm-1.067 8.748.019.027c.002.004 7.788 14.35 7.788 14.35h-15.789l7.688-14.347c.006-.01.014-.021.021-.03z"/><path d="m277.121 28.813h.23c.065 0 .11.053.164.117.003.004 19.506 25.52 19.506 25.52.545.726 1.028 1.297 1.446 1.715.456.457.924.801 1.401 1.039.48.241 1.029.403 1.649.483.563.073 1.263.11 2.098.11h4.5c1.818 0 3.149-.463 4.018-1.312.855-.835 1.35-2.419 1.35-4.788v-30.031c0-.596-.183-1.032-.481-1.33s-.733-.481-1.329-.481h-5.494c-.596 0-1.031.183-1.329.481s-.481.734-.481 1.33v27.174h-.23c-.046 0-.088.002-.108-.034-.014-.025-.03-.049-.048-.073l-19.46-25.527c-.507-.688-.96-1.239-1.359-1.656-.435-.455-.891-.809-1.365-1.066-.486-.262-1.051-.438-1.698-.519-.579-.072-1.304-.11-2.174-.11h-4.604c-1.818 0-3.149.463-4.019 1.313-.854.835-1.349 2.419-1.349 4.788v30.031c0 .601.19 1.039.504 1.34.305.291.75.47 1.359.47h5.493c.596 0 1.031-.183 1.33-.481.298-.298.48-.733.48-1.329z"/><path d="m344.028 19.855h-24.485c-.736 0-1.276.218-1.643.586-.368.368-.586.908-.586 1.643v33.484c0 .736.218 1.276.586 1.644.367.368.907.585 1.643.585h24.485c2.896 0 5.38-.298 7.453-.888 2.134-.607 3.878-1.551 5.239-2.82 1.369-1.277 2.381-2.902 3.029-4.882.629-1.924.948-4.198.948-6.823v-7.115c0-2.626-.319-4.9-.948-6.824-.648-1.979-1.66-3.605-3.029-4.881-1.361-1.269-3.105-2.213-5.239-2.82-2.073-.59-4.557-.889-7.453-.889zm-17.389 29.35-.001-.02v-20.665c0-.022.002-.049.005-.073l.015-.001h17.161c1.467 0 2.701.13 3.702.397.925.246 1.677.64 2.247 1.196.567.551.964 1.29 1.209 2.208.267 1 .397 2.235.397 3.702v5.755c0 1.467-.13 2.701-.397 3.702-.245.918-.642 1.657-1.209 2.208-.57.555-1.322.949-2.247 1.196-1.001.267-2.235.396-3.702.396h-17.161z"/><path d="m373.31 34.766c.007-1.242.104-2.291.297-3.145.179-.787.488-1.416.948-1.877.464-.463 1.08-.784 1.842-.978.847-.216 1.917-.32 3.212-.32h22.863c.609 0 1.054-.179 1.358-.47.314-.301.505-.739.505-1.34v-4.97c0-.601-.191-1.04-.505-1.34-.304-.291-.749-.471-1.358-.471h-23.02c-2.719 0-5.027.264-6.923.782-1.964.538-3.562 1.396-4.803 2.563-1.248 1.173-2.165 2.687-2.742 4.549-.557 1.797-.841 3.99-.841 6.578v8.999c0 2.587.283 4.788.84 6.602.577 1.881 1.495 3.404 2.743 4.577 1.242 1.169 2.843 2.019 4.808 2.538 1.895.5 4.201.754 6.918.754h23.02c.609 0 1.054-.179 1.358-.47.314-.301.505-.739.505-1.34v-4.97c0-.601-.191-1.04-.505-1.34-.304-.291-.749-.471-1.358-.471h-22.863c-1.295 0-2.365-.104-3.212-.319-.762-.195-1.378-.516-1.842-.979-.46-.46-.769-1.089-.948-1.876-.2-.885-.297-1.979-.297-3.282v-.23h28.901c.596 0 1.031-.183 1.329-.481s.481-.733.481-1.329v-4.133c0-.596-.183-1.032-.481-1.33s-.733-.481-1.329-.481z"/><path d="m438 19.855h-28.095c-.735 0-1.275.218-1.643.586s-.586.908-.586 1.643v33.903c0 .601.191 1.039.505 1.34.304.291.749.47 1.358.47h5.65c.597 0 1.032-.183 1.33-.481s.481-.733.481-1.329v-9.752h15.912s8.063 10.615 8.063 10.615c.236.328.479.555.715.696.238.143.661.251 1.281.251h6.749c.9 0 1.355-.41 1.484-1.053.12-.602-.02-1.045-.312-1.354.003.003-8.253-10.232-8.253-10.232 2.406-.611 4.172-1.752 5.319-3.39 1.287-1.838 1.95-4.332 1.95-7.493v-2.983c0-3.764-.954-6.595-2.8-8.514-1.843-1.916-4.869-2.923-9.108-2.923zm-21 8.488.021-.001h19.358c1.546 0 2.653.28 3.29.947.635.665.916 1.689.916 3.05v2.197c0 1.361-.281 2.385-.916 3.05-.637.667-1.744.947-3.29.947h-19.379z"/><path d="m549.443 19.855h-6.958c-.609 0-1.054.18-1.358.471-.314.3-.505.739-.505 1.34v4.656c0 .601.191 1.04.505 1.34.304.291.749.471 1.358.471h2.982c.155 0 .281.004.358.081s.081.203.081.358v27.415c0 .596.183 1.031.481 1.329s.734.481 1.33.481h5.389c.596 0 1.031-.183 1.329-.481s.481-.733.481-1.329v-31.025c0-1.756-.46-3.029-1.297-3.847-.827-.806-2.208-1.26-4.176-1.26z"/><path d="m596.777 19.855h-22.235c-2.72 0-5.027.264-6.924.782-1.963.538-3.562 1.396-4.803 2.563-1.247 1.173-2.164 2.687-2.742 4.549-.557 1.797-.84 3.99-.84 6.578v8.999c0 2.587.283 4.788.84 6.602.577 1.881 1.495 3.404 2.742 4.577 1.243 1.169 2.843 2.019 4.809 2.538 1.895.5 4.2.754 6.918.754h15.277c3.687 0 6.287-.88 7.833-2.538 1.549-1.661 2.348-3.976 2.348-6.963v-3.819c0-1.463-.167-2.77-.496-3.922-.346-1.21-.925-2.227-1.732-3.053-.8-.818-1.834-1.451-3.109-1.889-1.227-.421-2.72-.637-4.478-.637h-21.89v-.335c0-1.335.097-2.437.297-3.305.18-.78.487-1.414.937-1.895.444-.473 1.047-.797 1.801-.989.846-.216 1.917-.319 3.212-.319h22.235c.596 0 1.031-.183 1.33-.481.298-.298.48-.734.48-1.33v-4.656c0-.596-.182-1.032-.48-1.33-.299-.298-.734-.481-1.33-.481zm-28.482 22.194h20.32c.88 0 1.514.137 1.871.522.365.393.504 1.036.504 1.906v2.773c0 .872-.149 1.523-.529 1.931-.372.4-1.015.548-1.898.548h-14.021c-1.295 0-2.366-.103-3.212-.319-.757-.193-1.363-.511-1.808-.971-.448-.462-.751-1.094-.93-1.884-.2-.885-.297-1.979-.297-3.282z"/></g></svg>