<svg clip-rule="evenodd" fill-rule="evenodd" stroke-linejoin="round" stroke-miterlimit="2" viewBox="0 0 600 136" xmlns="http://www.w3.org/2000/svg"><g fill="#fff"><path d="m150.351.346h-18.472l-94.452 135.084h18.505c0-.03.009-.061.027-.086l94.392-134.998z" fill-rule="nonzero"/><path d="m46.603 121.957-9.207 13.168-37.396-53.503h18.41z" fill-rule="nonzero"/><path d="m68.898 120.118 1.377 1.97-9.115 13.037-1.377-1.971z"/><path d="m58.395 105.092-9.115 13.036-25.516-36.506h18.227z"/><g fill-rule="nonzero"><path d="m173.975.547-94.172 134.682h-18.227s94.172-134.682 94.172-134.682h18.227z"/><path d="m216.007 117.226c-.015-1.18-.344-1.974-.986-2.383s-1.508-.666-2.598-.771c-3.686-.603-5.884-2.013-6.595-4.229s-1.045-5.059-1.003-8.53l-3.728-71.536c.015-2.578-.227-4.734-.717-6.469-.489-1.736-2.162-2.637-5.017-2.706-2.602.069-4.495.827-5.681 2.276-1.186 1.448-2.398 3.174-3.637 5.178l-45.876 64.512-7.741 10.896c-1.517 2.323-3.178 4.486-4.982 6.487s-4.109 3.231-6.917 3.691c-1.598.132-3.097.442-4.498.932s-2.147 1.661-2.24 3.512c.04 1.111.427 1.828 1.165 2.151.738.322 1.592.466 2.562.43 2.656-.036 5.338-.179 8.047-.43s5.426-.394 8.153-.43c2.437.03 4.874.149 7.311.358 2.438.209 4.875.329 7.312.358 1.132.016 2.165-.23 3.1-.734.935-.505 1.431-1.359 1.487-2.563-.154-1.771-1.231-2.801-3.233-3.09s-4.004-.682-6.005-1.179c-2.002-.496-3.08-1.94-3.234-4.332.358-2.566 2.043-6.216 5.053-10.949 3.011-4.734 5.197-8.061 6.559-9.982h28.672c.155 3.017.311 6.051.466 9.103.155 3.053.239 6.087.251 9.104-.158 4.207-1.26 6.672-3.308 7.396s-4.095 1.129-6.143 1.216-3.151 1.278-3.308 3.573c.024.986.334 1.667.932 2.043.597.377 1.338.556 2.222.538 3.948-.036 7.914-.179 11.899-.43 3.984-.251 7.95-.394 11.899-.43 2.652.023 5.304.119 7.956.286 2.652.168 5.304.263 7.957.287 1.188.039 2.216-.146 3.082-.555.866-.41 1.32-1.276 1.362-2.599zm-35.41-36.557h-23.941l22.794-33.259z"/><path d="m423.481 26.193c-.021-.86-.302-1.505-.842-1.936-.541-.43-1.216-.645-2.025-.645-1.285.006-2.551.066-3.799.179-1.249.114-2.515.245-3.799.395-3.163.343-6.371.552-9.623.627-3.253.075-6.496.105-9.731.089-2.365-.023-4.731-.119-7.096-.286-2.366-.167-4.731-.263-7.097-.287-1.125.003-2.135.32-3.028.95s-1.365 1.556-1.416 2.777c.407 2.163 2.031 3.178 4.875 3.047 2.843-.132 4.468 1.099 4.874 3.691-.015.723-.099 1.464-.269 2.222-.17.759-.367 1.5-.591 2.222l-18.064 62.649c-.69 2.924-1.46 5.462-2.311 7.616-.852 2.153-2.805 3.581-5.86 4.283-1.401.206-3.044.546-4.928 1.021-1.885.475-2.918 1.568-3.1 3.279.042.992.424 1.697 1.147 2.115.722.418 1.535.621 2.437.609 3.085-.048 6.197-.239 9.336-.573 3.139-.335 6.287-.526 9.444-.574 3.375.03 6.767.15 10.178.359s6.804.328 10.179.358c1.389.102 2.983.042 4.784-.179s2.787-1.213 2.957-2.975c-.132-1.837-1.062-2.814-2.787-2.931-1.726-.117-3.452-.393-5.177-.828-1.726-.435-2.655-2.05-2.788-4.842.015-1.153.165-2.324.448-3.513.284-1.188.613-2.359.986-3.512l18.063-62.935c.663-2.589 1.452-4.471 2.366-5.645.914-1.173 2.706-2.016 5.376-2.526 1.353-.171 2.804-.547 4.354-1.129 1.55-.583 2.392-1.64 2.527-3.172z"/><path d="m517.79 26.91c-.202-1.546-1.772-2.644-4.709-3.292-2.937-.649-6.026-1.035-9.265-1.158-3.24-.123-5.415-.169-6.526-.138-11.979.028-24.515 2.458-37.608 7.29-13.094 4.833-24.26 11.903-33.498 21.212-9.239 9.309-14.066 20.691-14.48 34.146.175 8.544 2.645 15.604 7.413 21.18 4.767 5.576 10.784 9.727 18.052 12.451 7.268 2.725 14.741 4.083 22.417 4.073 4.677-.003 9.372-.284 14.086-.842 4.712-.559 9.336-1.377 13.87-2.455 1.729-.35 3.216-.798 4.462-1.344 1.245-.547 2.195-1.676 2.849-3.387 1.263-3.593 2.392-7.231 3.387-10.914.994-3.682 2.016-7.356 3.064-11.02 1.724-5.216 3.772-8.276 6.143-9.181 2.372-.904 4.473-1.331 6.303-1.279 1.83.051 2.794-1.098 2.894-3.446-.043-.992-.425-1.697-1.147-2.115-.723-.418-1.536-.621-2.437-.609-3.581.042-7.171.209-10.77.502-3.599.292-7.225.46-10.878.501-3.44-.035-6.881-.179-10.322-.43-3.44-.25-6.881-.394-10.321-.43-1.15-.033-2.256.177-3.316.627-1.06.452-1.628 1.342-1.702 2.671.136 1.62 1.09 2.521 2.862 2.702 1.771.182 3.543.53 5.315 1.046 1.771.516 2.725 2.086 2.862 4.71-.159 2.688-.989 6.379-2.491 11.074-1.503 4.695-2.727 8.459-3.674 11.29-.558 2.195-1.305 3.754-2.24 4.677s-2.577 1.371-4.928 1.344c-8.401-.182-14.751-2.9-19.049-8.154-4.298-5.253-6.454-11.949-6.469-20.088.065-7.49 1.619-14.766 4.659-21.826 3.041-7.061 7.174-13.261 12.401-18.601 5.164-5.185 11.537-9.617 19.12-13.297 7.584-3.679 15.068-5.603 22.454-5.77 3.509-.036 5.666.645 6.469 2.043.804 1.398 1.132 3.727.986 6.989-.015.86-.059 1.72-.143 2.58-.083.86-.132 1.72-.142 2.58-.046 1.431.188 2.727.699 3.889.51 1.162 1.568 1.777 3.171 1.846 1.754-.134 3.05-1.013 3.889-2.634.839-1.622 1.454-3.181 1.846-4.677.373-1.1 1.168-3.525 2.383-7.276 1.216-3.751 1.903-6.105 2.061-7.06h-.002z"/><path d="m600 117.226c-.015-1.18-.344-1.974-.986-2.383s-1.508-.666-2.598-.771c-3.686-.603-5.884-2.013-6.595-4.229s-1.045-5.059-1.003-8.53l-3.727-71.536c.015-2.578-.227-4.734-.717-6.469-.49-1.736-2.163-2.638-5.018-2.706-2.601.068-4.495.827-5.68 2.276-1.186 1.448-2.399 3.174-3.638 5.178l-45.875 64.512-7.742 10.896c-1.517 2.323-3.178 4.486-4.982 6.487-1.803 2.001-4.109 3.231-6.917 3.691-1.597.132-3.097.442-4.498.932-1.4.49-2.147 1.661-2.24 3.512.04 1.111.427 1.828 1.165 2.151.738.322 1.592.466 2.563.43 2.655-.036 5.337-.179 8.046-.43s5.427-.395 8.153-.43c2.437.03 4.875.149 7.312.358s4.874.329 7.311.358c1.132.016 2.165-.23 3.1-.734.935-.505 1.431-1.359 1.488-2.563-.154-1.771-1.232-2.801-3.234-3.09s-4.003-.682-6.005-1.179c-2.002-.496-3.08-1.94-3.234-4.332.359-2.566 2.043-6.216 5.054-10.95 3.01-4.733 5.197-8.06 6.559-9.981h28.671c.156 3.017.311 6.051.466 9.103.156 3.053.239 6.087.251 9.104-.157 4.207-1.26 6.672-3.308 7.396s-4.095 1.129-6.143 1.216-3.15 1.278-3.308 3.573c.025.986.335 1.667.932 2.043.597.377 1.338.556 2.222.538 3.948-.036 7.915-.179 11.899-.43s7.95-.395 11.899-.43c2.652.023 5.304.119 7.956.286 2.652.168 5.305.263 7.957.287 1.188.039 2.216-.146 3.082-.555.866-.41 1.32-1.276 1.362-2.599zm-35.41-36.557h-23.941l22.794-33.259z"/><path d="m362.723 26.766c-.018-.923-.305-1.586-.86-1.989-.556-.403-1.273-.6-2.151-.591-3.016.018-6.051.089-9.103.215-3.052.125-6.087.197-9.103.215-1.598-.081-3.994-.17-7.186-.269-3.193-.098-5.337.278-6.433 1.129-.21.299-.401.633-.574 1.003-.173.371-.364.705-.573 1.004l-39.424 59.638-1.577-58.635c.074-1.113.033-2.075-.126-2.885-.158-.809-.881-1.233-2.168-1.272-3.304.024-6.625.084-9.964.179-3.339.096-6.66.084-9.963-.036-1.867-.086-3.725-.2-5.574-.34-1.848-.14-3.67-.218-5.465-.233-1.225-.048-2.395.12-3.512.502s-1.715 1.266-1.792 2.652c.454 2.27 2.27 3.393 5.447 3.369 3.178-.024 4.994 1.099 5.448 3.369-.052 1.601-.379 3.237-.986 4.91-.606 1.672-1.185 3.237-1.738 4.695-3.491 9.686-6.974 19.38-10.447 29.084-3.474 9.704-7.064 19.363-10.77 28.977-1.395 4.1-2.763 6.973-4.104 8.619s-4.178 2.834-8.512 3.566c-1.194.179-2.246.538-3.154 1.075-.908.538-1.386 1.47-1.433 2.796.042 1.18.46 1.938 1.254 2.276.795.337 1.714.487 2.76.448 2.515-.018 5.047-.09 7.598-.215 2.55-.126 5.083-.197 7.598-.215 2.362.03 4.698.149 7.007.358 2.308.209 4.608.329 6.899.358 1.069.01 2.084-.259 3.046-.806s1.476-1.425 1.541-2.634c-.159-2.011-1.274-3.087-3.345-3.228-2.071-.142-4.141-.475-6.212-.999s-3.186-2.364-3.345-5.522c.205-4.52 1.802-11.233 4.789-20.139 2.988-8.906 6.135-17.541 9.441-25.906 3.306-8.364 5.539-13.994 6.7-16.89l1.577 68.24c-.039 2.105.183 3.772.664 4.999.48 1.228 1.884 1.855 4.211 1.882 2.368-.093 4.226-.911 5.573-2.455s2.595-3.259 3.745-5.143l45.875-67.523-15.196 57.058c-.463 2.455-1.15 4.928-2.061 7.418-.911 2.491-2.709 4.032-5.394 4.624-1.538.107-3.264.358-5.179.752-1.914.395-2.959 1.577-3.136 3.549.034 1.06.398 1.807 1.094 2.24.695.433 1.526.642 2.49.627 3.304-.048 6.625-.239 9.964-.574 3.339-.334 6.66-.525 9.963-.573 3.441.048 6.882.239 10.322.573 3.441.335 6.882.526 10.322.574 1.275.036 2.416-.179 3.423-.645 1.006-.466 1.538-1.398 1.595-2.796-.125-1.724-.991-2.72-2.602-2.989s-3.221-.65-4.832-1.142c-1.61-.492-2.478-1.934-2.601-4.327.024-1.735.227-3.497.609-5.286s.8-3.516 1.254-5.179l14.623-58.634c.511-2.578 1.174-4.591 1.989-6.039.815-1.449 2.589-2.351 5.322-2.706 1.461-.084 2.876-.383 4.247-.896 1.371-.514 2.106-1.601 2.205-3.262z"/></g></g></svg>