<svg clip-rule="evenodd" fill-rule="evenodd" stroke-linejoin="round" stroke-miterlimit="2" viewBox="0 0 600 180" xmlns="http://www.w3.org/2000/svg"><g fill="#fff"><path d="m126.138 173.026c-.019-1.456-.424-2.436-1.217-2.941-.792-.505-1.861-.822-3.206-.951-4.548-.745-7.261-2.484-8.138-5.219s-1.29-6.244-1.238-10.526l-4.6-88.279c.019-3.181-.28-5.842-.885-7.983-.604-2.142-2.668-3.255-6.192-3.34-3.21.085-5.546 1.022-7.01 2.809-1.463 1.788-2.959 3.918-4.489 6.391l-56.611 79.61-9.554 13.445c-1.872 2.868-3.921 5.536-6.147 8.005-2.226 2.47-5.072 3.988-8.536 4.556-1.972.162-3.822.545-5.551 1.15-1.728.604-2.65 2.049-2.764 4.334.049 1.371.527 2.256 1.437 2.654.911.398 1.965.575 3.163.531 3.276-.045 6.586-.222 9.929-.531 3.343-.31 6.697-.487 10.062-.531 3.007.037 6.015.184 9.022.442 3.008.258 6.015.406 9.023.443 1.396.018 2.672-.284 3.825-.907 1.154-.623 1.766-1.677 1.836-3.162-.19-2.185-1.52-3.457-3.991-3.814-2.47-.357-4.94-.842-7.41-1.454-2.471-.613-3.801-2.395-3.991-5.347.443-3.166 2.522-7.67 6.237-13.512 3.715-5.841 6.413-9.947 8.093-12.317h35.382c.192 3.723.384 7.467.576 11.234.191 3.767.294 7.511.309 11.234-.194 5.191-1.555 8.234-4.082 9.127s-5.054 1.394-7.581 1.501-3.888 1.576-4.082 4.409c.03 1.216.413 2.057 1.15 2.521.737.465 1.651.686 2.742.664 4.872-.045 9.767-.222 14.684-.531 4.916-.31 9.811-.487 14.683-.531 3.273.03 6.546.148 9.819.354s6.546.324 9.818.354c1.467.048 2.735-.181 3.804-.686s1.629-1.574 1.681-3.206zm-43.697-45.113h-29.545l28.129-41.043z" fill-rule="nonzero"/><path d="m382.169 60.687c-.026-1.061-.372-1.857-1.04-2.388-.667-.531-1.5-.796-2.498-.796-1.585.007-3.148.081-4.689.221-1.54.14-3.103.302-4.688.486-3.903.424-7.861.682-11.875.774s-8.016.129-12.008.111c-2.919-.03-5.838-.148-8.757-.354s-5.838-.324-8.757-.354c-1.389.004-2.635.395-3.737 1.172-1.102.778-1.685 1.921-1.747 3.428.501 2.668 2.506 3.921 6.015 3.759 3.508-.162 5.513 1.357 6.015 4.556-.019.892-.122 1.806-.332 2.742s-.453 1.85-.73 2.742l-22.291 77.31c-.851 3.608-1.802 6.741-2.852 9.399-1.051 2.657-3.461 4.419-7.231 5.285-1.729.254-3.756.674-6.082 1.26s-3.601 1.935-3.826 4.047c.053 1.224.524 2.094 1.416 2.61s1.894.766 3.007.751c3.808-.059 7.648-.294 11.522-.707 3.873-.413 7.758-.649 11.654-.708 4.164.037 8.351.184 12.56.442s8.396.406 12.561.443c1.714.125 3.682.051 5.904-.221 2.223-.273 3.439-1.497 3.649-3.671-.163-2.267-1.31-3.473-3.44-3.617-2.129-.144-4.259-.485-6.388-1.022-2.13-.538-3.276-2.529-3.44-5.976.019-1.423.203-2.867.553-4.334s.755-2.912 1.216-4.335l22.291-77.664c.818-3.195 1.791-5.517 2.919-6.966 1.128-1.448 3.339-2.487 6.634-3.118 1.67-.21 3.461-.674 5.374-1.393 1.912-.718 2.952-2.023 3.118-3.914z" fill-rule="nonzero"/><path d="m498.55 61.572c-.25-1.908-2.187-3.262-5.811-4.063-3.625-.8-7.436-1.276-11.434-1.428s-6.683-.209-8.053-.171c-14.782.034-30.252 3.033-46.41 8.997-16.158 5.963-29.937 14.689-41.338 26.176s-17.357 25.533-17.868 42.138c.215 10.543 3.264 19.256 9.147 26.137s13.309 12.002 22.278 15.365c8.968 3.362 18.19 5.037 27.663 5.025 5.772-.003 11.566-.35 17.382-1.039s11.521-1.699 17.116-3.03c2.134-.431 3.969-.984 5.506-1.658 1.537-.675 2.709-2.068 3.517-4.18 1.558-4.434 2.952-8.923 4.179-13.467s2.488-9.078 3.782-13.6c2.127-6.437 4.654-10.213 7.581-11.329 2.926-1.116 5.519-1.642 7.777-1.579s3.449-1.354 3.571-4.253c-.052-1.223-.523-2.093-1.415-2.609s-1.895-.767-3.008-.752c-4.419.052-8.849.258-13.29.619-4.442.362-8.916.568-13.423.62-4.246-.045-8.492-.222-12.738-.531-4.246-.31-8.492-.487-12.738-.531-1.419-.04-2.782.218-4.091.774-1.308.557-2.009 1.655-2.1 3.295.168 2 1.345 3.111 3.531 3.335s4.373.654 6.559 1.291 3.363 2.574 3.532 5.812c-.196 3.317-1.22 7.872-3.074 13.666s-3.365 10.438-4.533 13.932c-.69 2.709-1.611 4.633-2.765 5.772-1.153 1.139-3.181 1.691-6.081 1.658-10.368-.225-18.204-3.579-23.507-10.062-5.304-6.483-7.965-14.746-7.983-24.789.08-9.244 1.997-18.222 5.749-26.935s8.853-16.364 15.303-22.954c6.373-6.399 14.238-11.868 23.596-16.409 9.357-4.54 18.594-6.914 27.708-7.121 4.331-.044 6.992.797 7.984 2.521.991 1.725 1.396 4.6 1.216 8.625-.019 1.061-.073 2.123-.176 3.184-.103 1.062-.163 2.123-.176 3.185-.056 1.765.232 3.365.862 4.798.63 1.434 1.935 2.193 3.914 2.278 2.164-.166 3.763-1.249 4.799-3.251 1.036-2.001 1.795-3.925 2.278-5.771.461-1.357 1.441-4.349 2.941-8.979 1.5-4.629 2.348-7.533 2.543-8.712z" fill-rule="nonzero"/><path d="m600 173.026c-.019-1.456-.424-2.436-1.216-2.941-.793-.505-1.862-.822-3.207-.951-4.548-.745-7.261-2.484-8.138-5.219s-1.29-6.244-1.238-10.526l-4.6-88.279c.019-3.181-.28-5.842-.884-7.983-.605-2.142-2.669-3.255-6.192-3.34-3.211.085-5.547 1.022-7.01 2.809-1.464 1.788-2.96 3.918-4.489 6.391l-56.612 79.61-9.553 13.445c-1.873 2.868-3.922 5.536-6.148 8.005-2.226 2.47-5.072 3.988-8.536 4.556-1.972.162-3.822.545-5.551 1.15-1.728.604-2.65 2.049-2.764 4.334.049 1.371.527 2.256 1.438 2.654.91.398 1.964.575 3.162.531 3.276-.045 6.586-.222 9.929-.531 3.343-.31 6.697-.487 10.062-.531 3.007.037 6.015.184 9.022.442 3.008.258 6.015.406 9.023.443 1.397.018 2.672-.284 3.825-.907 1.154-.623 1.766-1.677 1.836-3.162-.19-2.185-1.52-3.457-3.99-3.814-2.471-.357-4.941-.842-7.411-1.454-2.47-.613-3.8-2.395-3.99-5.347.442-3.166 2.521-7.67 6.236-13.512 3.715-5.841 6.413-9.947 8.094-12.317h35.382c.191 3.723.383 7.467.575 11.234.191 3.767.294 7.511.309 11.234-.194 5.191-1.555 8.234-4.082 9.127s-5.054 1.393-7.581 1.5c-2.527.108-3.888 1.577-4.082 4.41.03 1.216.413 2.057 1.15 2.521.737.465 1.651.686 2.742.664 4.873-.045 9.767-.222 14.684-.531 4.916-.31 9.811-.487 14.684-.531 3.272.03 6.545.147 9.818.354 3.273.206 6.546.324 9.819.354 1.466.048 2.734-.181 3.803-.686s1.629-1.574 1.681-3.206zm-43.697-45.113h-29.544l28.128-41.043z" fill-rule="nonzero"/><path d="m307.191 61.395c-.022-1.139-.376-1.957-1.061-2.455-.686-.497-1.571-.741-2.654-.73-3.722.022-7.467.111-11.234.266s-7.511.243-11.234.265c-1.972-.099-4.928-.21-8.867-.332-3.94-.121-6.587.343-7.939 1.393-.258.369-.494.782-.708 1.239s-.45.87-.707 1.238l-48.651 73.595-1.946-72.356c.092-1.375.041-2.562-.156-3.561-.195-.998-1.087-1.522-2.675-1.57-4.077.03-8.175.103-12.296.221-4.12.118-8.219.104-12.295-.044-2.303-.107-4.596-.247-6.877-.42-2.282-.173-4.53-.269-6.745-.288-1.511-.058-2.956.148-4.335.62-1.378.471-2.115 1.562-2.211 3.272.56 2.802 2.801 4.187 6.723 4.158 3.921-.029 6.162 1.356 6.722 4.157-.063 1.976-.468 3.996-1.216 6.06s-1.463 3.995-2.145 5.793c-4.308 11.953-8.606 23.917-12.892 35.891-4.287 11.975-8.717 23.894-13.291 35.758-1.721 5.061-3.409 8.606-5.064 10.637s-5.156 3.498-10.504 4.401c-1.474.221-2.772.663-3.892 1.327-1.12.663-1.71 1.813-1.769 3.45.052 1.455.567 2.392 1.548 2.808.98.416 2.115.601 3.405.553 3.104-.022 6.229-.111 9.377-.266 3.147-.154 6.273-.243 9.376-.265 2.915.037 5.797.184 8.647.442 2.848.258 5.686.406 8.513.443 1.32.011 2.573-.321 3.76-.995 1.186-.675 1.82-1.759 1.902-3.251-.197-2.481-1.573-3.809-4.128-3.984-2.556-.175-5.111-.585-7.667-1.232-2.555-.646-3.931-2.918-4.128-6.814.254-5.578 2.224-13.863 5.911-24.853 3.686-10.99 7.57-21.646 11.65-31.968 4.079-10.322 6.836-17.27 8.269-20.843l1.946 84.21c-.049 2.598.224 4.655.818 6.169.593 1.515 2.325 2.289 5.197 2.322 2.922-.114 5.215-1.124 6.877-3.029 1.662-1.906 3.203-4.021 4.622-6.347l56.611-83.325-18.752 70.41c-.572 3.03-1.419 6.082-2.543 9.156-1.124 3.073-3.343 4.975-6.657 5.705-1.898.133-4.028.442-6.391.929-2.362.486-3.652 1.946-3.869 4.378.041 1.309.49 2.23 1.349 2.765.858.534 1.883.792 3.073.774 4.077-.059 8.175-.295 12.296-.708 4.12-.413 8.219-.649 12.295-.708 4.246.059 8.492.295 12.738.708 4.245.413 8.491.649 12.737.708 1.574.044 2.982-.222 4.224-.797 1.242-.574 1.898-1.724 1.968-3.449-.153-2.128-1.223-3.357-3.21-3.689-1.988-.332-3.976-.802-5.963-1.409-1.988-.607-3.058-2.387-3.211-5.34.03-2.141.28-4.316.752-6.524.472-2.207.988-4.338 1.548-6.391l18.045-72.356c.63-3.181 1.449-5.665 2.455-7.453 1.006-1.787 3.195-2.9 6.568-3.339 1.802-.103 3.549-.472 5.241-1.106 1.691-.633 2.598-1.975 2.72-4.024z" fill-rule="nonzero"/><path d="m36.473 42.923c-1.935.563-3.983.864-6.101.864-12.059 0-21.849-9.79-21.849-21.849s9.79-21.85 21.849-21.85c2.118 0 4.166.302 6.101.865v11.508c-1.758-1.135-3.853-1.794-6.101-1.794-6.22 0-11.271 5.05-11.271 11.271s5.051 11.271 11.271 11.271c2.248 0 4.343-.659 6.101-1.795z"/><path d="m46.664 22.707h-10.191v8.715h18.906zm0-1.538 8.715-8.715h-18.906v8.715z"/><g fill-rule="nonzero"><path d="m94.381 30.421c-2.09.82-4.631 1.476-7.131 1.476-5.573 0-9.549-3.402-9.549-9.017 0-5.327 3.525-9.261 8.934-9.261 2.623 0 5 .655 7.459 2.008l.615-6.189c-2.746-.819-5.574-1.475-8.483-1.475-9.426 0-16.393 4.959-16.393 14.917 0 10.82 8.811 14.672 16.434 14.672 3.893 0 6.311-.615 8.483-1.147z"/><path d="m109.258 37.552c7.049 0 12.417-4.098 12.417-11.147 0-7.09-5.368-11.188-12.417-11.188s-12.418 4.098-12.418 11.188c0 7.049 5.369 11.147 12.418 11.147zm0-5.164c-3.402 0-4.795-2.827-4.795-5.983 0-3.197 1.393-6.024 4.795-6.024 3.401 0 4.795 2.827 4.795 6.024 0 3.156-1.394 5.983-4.795 5.983z"/><path d="m125.241 37.06h7.377v-9.016c0-4.59 1.557-6.68 4.18-6.68 2.09 0 2.95 1.803 2.95 4.221v11.475h7.377v-9.016c0-4.59 1.558-6.68 4.18-6.68 2.091 0 2.951 1.803 2.951 4.221v11.475h7.377v-12.581c0-5.779-1.393-9.262-7.541-9.262-3.032 0-5.86 1.229-7.581 4.098-1.148-2.787-3.648-4.098-6.681-4.098-3.36 0-6.311 1.352-7.786 4.426h-.082v-3.934h-6.721z"/><path d="m166.223 37.06h7.377v-9.016c0-4.59 1.557-6.68 4.18-6.68 2.09 0 2.951 1.803 2.951 4.221v11.475h7.376v-9.016c0-4.59 1.558-6.68 4.181-6.68 2.09 0 2.95 1.803 2.95 4.221v11.475h7.377v-12.581c0-5.779-1.393-9.262-7.541-9.262-3.032 0-5.86 1.229-7.581 4.098-1.148-2.787-3.648-4.098-6.68-4.098-3.361 0-6.312 1.352-7.787 4.426h-.082v-3.934h-6.721z"/><path d="m218.598 37.552c7.049 0 12.418-4.098 12.418-11.147 0-7.09-5.369-11.188-12.418-11.188s-12.417 4.098-12.417 11.188c0 7.049 5.368 11.147 12.417 11.147zm0-5.164c-3.401 0-4.795-2.827-4.795-5.983 0-3.197 1.394-6.024 4.795-6.024 3.402 0 4.795 2.827 4.795 6.024 0 3.156-1.393 5.983-4.795 5.983z"/><path d="m257.531 6.324h-7.417v12.13h-.082c-1.886-2.459-4.385-3.237-7.336-3.237-5.902 0-9.139 5.532-9.139 10.778 0 6.311 3.401 11.557 9.754 11.557 3.401 0 6.393-1.926 7.335-4.303h.082v3.811h6.803zm-16.352 19.835c0-2.828 1.599-5.287 4.468-5.287 2.704 0 4.508 2.336 4.508 5.574 0 3.115-2.05 5.451-4.508 5.451-2.787 0-4.468-2.336-4.468-5.738z"/><path d="m273.351 37.552c7.048 0 12.417-4.098 12.417-11.147 0-7.09-5.369-11.188-12.417-11.188-7.049 0-12.418 4.098-12.418 11.188 0 7.049 5.369 11.147 12.418 11.147zm0-5.164c-3.402 0-4.795-2.827-4.795-5.983 0-3.197 1.393-6.024 4.795-6.024 3.401 0 4.794 2.827 4.794 6.024 0 3.156-1.393 5.983-4.794 5.983z"/><path d="m304.948 15.463c-.738-.123-1.639-.246-2.5-.246-3.197 0-5.041 1.721-6.311 4.426h-.082v-3.934h-6.721v21.351h7.376v-9.016c0-4.18 1.927-6.68 5.369-6.68.861 0 1.68 0 2.5.246z"/><path d="m327.98 28.536v-1.352c0-6.353-2.869-11.967-10.778-11.967-6.64 0-11.435 4.098-11.435 11.147s5.369 11.188 12.418 11.188c2.746 0 5.451-.41 7.828-1.352v-5.205c-2.213 1.188-4.508 1.639-6.516 1.639-3.607 0-5.861-1.147-6.271-4.098zm-14.836-4.18c.164-2.459 1.435-4.467 4.099-4.467 2.95 0 4.098 2.008 4.098 4.467z"/></g></g></svg>