<svg clip-rule="evenodd" fill-rule="evenodd" stroke-linejoin="round" stroke-miterlimit="2" viewBox="0 0 600 190" xmlns="http://www.w3.org/2000/svg"><g fill="#fff"><path d="m53.601 82.628c-3.712 1.079-7.639 1.658-11.7 1.658-23.126 0-41.901-18.775-41.901-41.901s18.775-41.901 41.901-41.901c4.061 0 7.988.578 11.7 1.658v22.069c-3.372-2.177-7.389-3.441-11.7-3.441-11.929 0-21.615 9.685-21.615 21.615 0 11.929 9.686 21.615 21.615 21.615 4.311 0 8.328-1.265 11.7-3.442z"/><path d="m73.145 43.86h-19.544v16.712h36.256zm0-2.95 16.712-16.712h-36.256v16.712z"/><path d="m135.558 38.24h12.495c-1.039-11.716-4.429-14.574-21.86-14.574-19.793 0-24.222 3.118-24.222 17.691 0 14.586 4.169 17.975 22.651 17.975 19.522 0 23.431-2.61 23.431-14.845h-12.495c0 3.389-1.299 4.948-10.936 4.948-8.337 0-10.156-2.078-10.156-8.857 0-6.507 1.819-6.507 11.727-6.507 7.287 0 8.586.791 9.365 4.169z"/><path d="m292.191 23.666h-11.715v34.355h12.494v-17.703c0-5.196 3.118-7.027 9.366-7.027 6.519 0 8.337 2.091 8.337 8.858v15.872h12.755v-18.223c0-4.936 3.649-6.507 9.637-6.507 5.728 0 8.586 1.831 8.586 6.507v18.223h12.506v-20.301c0-10.145-6.247-14.845-17.703-14.845-9.896 0-13.286 3.389-14.845 7.558-2.61-4.428-6.247-7.558-16.144-7.558-9.117 0-11.455 3.13-13.274 8.857z"/><path d="m214.227 23.666h-11.716v34.355h12.495v-17.703c0-5.196 2.61-7.027 9.637-7.027 6.507 0 8.338 2.35 8.338 8.858v15.872h12.754v-18.223c0-4.936 3.898-6.507 9.885-6.507 5.728 0 8.338 1.571 8.338 6.507v18.223h12.495v-20.301c0-10.145-6.248-14.845-17.703-14.845-9.897 0-13.534 3.649-14.845 7.558-2.598-4.428-6.248-7.558-16.144-7.558-9.365 0-11.975 3.13-13.534 8.857z"/><path d="m524.782 23.666h-11.975v34.355h12.495v-17.963c0-4.676 2.869-7.027 8.078-7.027 5.208 0 6.507 1.559 6.767 5.988h11.715c0-11.715-1.559-16.144-14.054-16.144-7.546 0-10.156 1.571-13.026 7.298z"/><path d="m199.245 40.318c0-14.054-3.909-16.912-23.95-16.912-21.612 0-24.222 3.378-24.222 17.951 0 14.845 3.649 17.975 24.222 17.975 21.872 0 23.95-3.649 23.95-19.014zm-35.158.791c0-7.038 1.571-7.818 10.417-7.818 10.156 0 11.987.26 11.987 7.818 0 7.027-1.311 8.326-10.936 8.326-10.157 0-11.468-1.039-11.468-8.326z"/><path d="m406.11 40.318c0-14.054-4.157-16.912-24.21-16.912-21.612 0-24.21 3.638-24.21 18.211 0 14.585 3.637 17.715 24.21 17.715 21.872 0 24.21-3.649 24.21-19.014zm-35.665.791c0-7.038 1.57-7.818 10.676-7.818 10.156 0 11.975.26 11.975 7.818 0 7.027-1.299 8.326-10.936 8.326-10.416 0-11.715-1.039-11.715-8.326z"/><path d="m509.515 40.318c0-14.054-3.897-16.912-23.938-16.912-21.352 0-23.951 3.378-23.951 17.951 0 14.845 3.638 17.975 23.951 17.975 21.86 0 23.938-3.649 23.938-19.014zm-35.394.791c0-7.038 1.559-7.818 10.676-7.818 10.145 0 11.975.26 11.975 7.818 0 7.027-1.31 8.326-10.935 8.326-10.417 0-11.716-1.039-11.716-8.326z"/><path d="m445.061 9.081v20.041c-2.858-3.897-5.468-5.975-15.885-5.975-16.663 0-19.781 4.428-19.781 17.962 0 13.794 4.417 17.692 20.561 17.692 10.156 0 13.274-2.599 15.624-7.027v6.247h12.495v-48.94zm-9.118 23.95c7.027 0 9.377 1.04 9.377 6.508 0 8.337-.519 9.117-10.416 9.117-9.885 0-12.495-.26-12.495-7.299 0-8.066 3.13-8.326 13.534-8.326z"/><path d="m580.986 51.254c-11.975 0-13.794-1.039-13.794-7.027h32.808c-.52-16.652-.52-20.561-22.651-20.561-18.754 0-22.923 3.378-22.923 18.223 0 13.794 5.48 17.171 20.573 17.443 16.923 0 25.001-.791 25.001-11.975h-12.235c-.531 2.598-1.571 3.897-6.779 3.897zm-14.054-14.313c.52-3.65 1.559-4.949 9.885-4.949 9.129 0 10.417.52 10.948 4.949z"/><path d="m101.971 81.561h65.945v12.001h-65.945z"/><path d="m101.971 105.578h65.945v12.002h-65.945z"/><path d="m101.971 129.596h65.945v12.017h-65.945z"/><path d="m101.971 153.629h65.945v12.002h-65.945z"/><path d="m101.971 177.647h65.945v12.001h-65.945z"/><g fill-rule="nonzero"><path d="m209.411 175.885h38.58l27.066-81.99h-27.519l-18.837 60.927-18.837-60.927h-27.519z"/><path d="m279.964 147.121c0 24.008 13.477 29.67 36.126 29.67h23.555c25.254 0 30.237-10.871 30.237-24.687v-7.701h-25.141c0 10.192-3.397 11.325-14.722 11.325h-9.852c-11.891 0-14.382-4.53-14.382-16.421v-8.834c0-10.192 2.491-16.42 15.741-16.42h10.419c7.474 0 11.777 1.698 11.777 7.587v2.265h25.141c.227-23.215-4.417-30.916-40.203-30.916h-12.57c-22.649 0-36.126 5.662-36.126 29.67z"/><path d="m404.574 119.11h23.827c.431-7.076 3.956-8.455 13.884-8.455h12.872c16.081 0 12.986 1.472 12.986 8.154 0 8.041 2.529 8.38-15.817 9.513l-24.99 1.812c-16.194 1.132-22.762 7.814-22.762 17.893v27.858h88.483v-20.497h-65.381c-.144-4.274 1.585-6.569 12.117-7.135l18.384-1.359c29.331-1.585 33.748-5.662 33.748-29.784 0-17.1-6.116-24.121-29.671-24.121h-25.518c-22.65 0-32.162 5.436-32.162 21.63z"/><path d="m532.656 126.057c0-8.494 2.718-12.684 14.495-12.684h13.892c11.778 0 14.496 4.19 14.496 12.684v17.666c0 8.494-2.718 12.684-14.496 12.684h-13.892c-11.777 0-14.495-4.19-14.495-12.684zm-24.461 21.97c0 21.29 9.739 28.764 29.33 28.764h33.144c19.592 0 29.331-7.474 29.331-28.764v-22.876c0-24.914-9.06-32.162-35.899-32.162h-20.007c-26.84 0-35.899 7.248-35.899 32.162z"/></g></g></svg>