<svg clip-rule="evenodd" fill-rule="evenodd" stroke-linejoin="round" stroke-miterlimit="2" viewBox="0 0 600 136" xmlns="http://www.w3.org/2000/svg"><g fill="#fff"><path d="m150.351 0h-18.472l-94.452 135.084h18.505c0-.031.009-.061.027-.086z" fill-rule="nonzero"/><path d="m46.603 121.611-9.207 13.168-37.396-53.503h18.41z" fill-rule="nonzero"/><path d="m68.898 119.772 1.377 1.97-9.115 13.037-1.377-1.971z"/><path d="m58.395 104.746-9.115 13.036-25.516-36.506h18.227z"/><g fill-rule="nonzero"><path d="m173.975.2-94.172 134.683h-18.227s94.172-134.683 94.172-134.683h18.227z"/><path d="m216.007 116.88c-.015-1.18-.344-1.974-.986-2.383-.642-.41-1.508-.666-2.598-.771-3.686-.603-5.884-2.013-6.595-4.229s-1.045-5.059-1.003-8.53l-3.728-71.536c.015-2.578-.227-4.734-.717-6.47-.489-1.735-2.162-2.637-5.017-2.705-2.602.068-4.495.827-5.681 2.275-1.186 1.449-2.398 3.175-3.637 5.179l-45.876 64.512-7.741 10.895c-1.517 2.324-3.178 4.486-4.982 6.487-1.804 2.002-4.109 3.232-6.917 3.692-1.598.131-3.097.442-4.498.932s-2.147 1.66-2.24 3.512c.04 1.111.427 1.828 1.165 2.151.738.322 1.592.465 2.562.43 2.656-.036 5.338-.18 8.047-.43 2.709-.251 5.426-.395 8.153-.431 2.437.03 4.874.15 7.311.359 2.438.209 4.875.328 7.312.358 1.132.015 2.165-.23 3.1-.734.935-.505 1.431-1.359 1.487-2.563-.154-1.771-1.231-2.801-3.233-3.09-2.002-.29-4.004-.683-6.005-1.179-2.002-.496-3.08-1.941-3.234-4.333.358-2.565 2.043-6.215 5.053-10.949 3.011-4.734 5.197-8.061 6.559-9.981h28.672c.155 3.016.311 6.051.466 9.103.155 3.053.239 6.087.251 9.104-.158 4.207-1.26 6.672-3.308 7.396s-4.095 1.129-6.143 1.216-3.151 1.278-3.308 3.573c.024.986.334 1.667.932 2.043.597.376 1.338.556 2.222.538 3.948-.036 7.914-.18 11.899-.43 3.984-.251 7.95-.395 11.899-.431 2.652.024 5.304.12 7.956.287s5.304.263 7.957.287c1.188.039 2.216-.147 3.082-.556s1.32-1.275 1.362-2.598zm-35.41-36.557h-23.941l22.794-33.259z"/><path d="m423.481 25.847c-.021-.861-.302-1.506-.842-1.936-.541-.43-1.216-.645-2.025-.645-1.285.006-2.551.066-3.799.179-1.249.114-2.515.245-3.799.394-3.163.344-6.371.553-9.623.628-3.253.074-6.496.104-9.731.089-2.365-.024-4.731-.119-7.096-.286-2.366-.168-4.731-.263-7.097-.287-1.125.003-2.135.319-3.028.95-.893.63-1.365 1.556-1.416 2.777.407 2.163 2.031 3.178 4.875 3.047 2.843-.132 4.468 1.099 4.874 3.691-.015.723-.099 1.464-.269 2.222-.17.759-.367 1.5-.591 2.222l-18.064 62.648c-.69 2.924-1.46 5.463-2.311 7.616-.852 2.154-2.805 3.581-5.86 4.283-1.401.206-3.044.547-4.928 1.022-1.885.475-2.918 1.568-3.1 3.279.042.992.424 1.697 1.147 2.115.722.418 1.535.621 2.437.609 3.085-.048 6.197-.239 9.336-.573 3.139-.335 6.287-.526 9.444-.574 3.375.03 6.767.149 10.178.358 3.411.21 6.804.329 10.179.359 1.389.101 2.983.042 4.784-.179s2.787-1.213 2.957-2.975c-.132-1.837-1.062-2.814-2.787-2.931-1.726-.117-3.452-.393-5.177-.828-1.726-.436-2.655-2.05-2.788-4.843.015-1.152.165-2.323.448-3.512.284-1.189.613-2.359.986-3.512l18.063-62.935c.663-2.59 1.452-4.471 2.366-5.645s2.706-2.016 5.376-2.527c1.353-.17 2.804-.546 4.354-1.129 1.55-.582 2.392-1.639 2.527-3.171z"/><path d="m517.79 26.563c-.202-1.546-1.772-2.643-4.709-3.292-2.937-.648-6.026-1.034-9.265-1.157-3.24-.123-5.415-.169-6.526-.138-11.979.027-24.515 2.457-37.608 7.29-13.094 4.833-24.26 11.903-33.498 21.212-9.239 9.309-14.066 20.691-14.48 34.146.175 8.544 2.645 15.604 7.413 21.18 4.767 5.576 10.784 9.726 18.052 12.451s14.741 4.082 22.417 4.073c4.677-.003 9.372-.284 14.086-.843 4.712-.558 9.336-1.376 13.87-2.455 1.729-.349 3.216-.797 4.462-1.344 1.245-.546 2.195-1.675 2.849-3.387 1.263-3.592 2.392-7.23 3.387-10.913.994-3.682 2.016-7.356 3.064-11.021 1.724-5.215 3.772-8.275 6.143-9.18 2.372-.904 4.473-1.331 6.303-1.28 1.83.052 2.794-1.097 2.894-3.445-.043-.992-.425-1.697-1.147-2.115-.723-.418-1.536-.621-2.437-.609-3.581.042-7.171.209-10.77.501-3.599.293-7.225.46-10.878.502-3.44-.036-6.881-.179-10.322-.43-3.44-.251-6.881-.394-10.321-.43-1.15-.033-2.256.176-3.316.627s-1.628 1.341-1.702 2.67c.136 1.621 1.09 2.522 2.862 2.703 1.771.181 3.543.53 5.315 1.046 1.771.516 2.725 2.086 2.862 4.71-.159 2.688-.989 6.379-2.491 11.074-1.503 4.695-2.727 8.458-3.674 11.29-.558 2.195-1.305 3.754-2.24 4.677s-2.577 1.371-4.928 1.344c-8.401-.182-14.751-2.9-19.049-8.154-4.298-5.253-6.454-11.949-6.469-20.088.065-7.491 1.619-14.766 4.659-21.827 3.041-7.06 7.174-13.26 12.401-18.601 5.164-5.184 11.537-9.617 19.12-13.296 7.584-3.68 15.068-5.603 22.454-5.77 3.509-.036 5.666.645 6.469 2.042.804 1.398 1.132 3.728.986 6.989-.015.861-.059 1.721-.143 2.581-.083.86-.132 1.72-.142 2.58-.046 1.431.188 2.727.699 3.889.51 1.162 1.568 1.777 3.171 1.846 1.754-.135 3.05-1.013 3.889-2.635.839-1.621 1.454-3.18 1.846-4.677.373-1.099 1.168-3.524 2.383-7.275 1.216-3.751 1.903-6.105 2.061-7.061z"/><path d="m600 116.88c-.015-1.18-.344-1.974-.986-2.383-.642-.41-1.508-.666-2.598-.771-3.686-.603-5.884-2.013-6.595-4.229s-1.045-5.059-1.003-8.53l-3.727-71.536c.015-2.578-.227-4.734-.717-6.47-.49-1.735-2.163-2.637-5.018-2.706-2.601.069-4.495.828-5.68 2.276-1.186 1.449-2.399 3.175-3.638 5.179l-45.875 64.512-7.742 10.895c-1.517 2.324-3.178 4.486-4.982 6.487-1.803 2.002-4.109 3.232-6.917 3.692-1.597.131-3.097.442-4.498.932-1.4.49-2.147 1.66-2.24 3.512.04 1.111.427 1.828 1.165 2.151.738.322 1.592.465 2.563.43 2.655-.036 5.337-.18 8.046-.43 2.709-.251 5.427-.395 8.153-.431 2.437.03 4.875.15 7.312.359s4.874.328 7.311.358c1.132.015 2.165-.23 3.1-.735.935-.504 1.431-1.358 1.488-2.562-.154-1.771-1.232-2.801-3.234-3.09-2.002-.29-4.003-.683-6.005-1.179s-3.08-1.941-3.234-4.333c.359-2.565 2.043-6.215 5.054-10.949 3.01-4.734 5.197-8.061 6.559-9.981h28.671c.156 3.016.311 6.051.466 9.103.156 3.053.239 6.087.251 9.104-.157 4.207-1.26 6.672-3.308 7.396s-4.095 1.129-6.143 1.216-3.15 1.278-3.308 3.573c.025.986.335 1.667.932 2.043s1.338.556 2.222.538c3.948-.036 7.915-.18 11.899-.43 3.984-.251 7.95-.395 11.899-.431 2.652.024 5.304.12 7.956.287s5.305.263 7.957.287c1.188.039 2.216-.146 3.082-.556.866-.409 1.32-1.275 1.362-2.598zm-35.41-36.557h-23.941l22.794-33.259z"/><path d="m362.723 26.42c-.018-.923-.305-1.586-.86-1.989-.556-.403-1.273-.6-2.151-.592-3.016.018-6.051.09-9.103.216-3.052.125-6.087.197-9.103.215-1.598-.081-3.994-.171-7.186-.269-3.193-.099-5.337.278-6.433 1.129-.21.298-.401.633-.574 1.003-.173.371-.364.705-.573 1.004l-39.424 59.637-1.577-58.634c.074-1.114.033-2.075-.126-2.885-.158-.809-.881-1.233-2.168-1.272-3.304.024-6.625.084-9.964.179-3.339.096-6.66.084-9.963-.036-1.867-.086-3.725-.2-5.574-.34-1.848-.141-3.67-.218-5.465-.233-1.225-.048-2.395.119-3.512.502-1.117.382-1.715 1.266-1.792 2.652.454 2.27 2.27 3.393 5.447 3.369 3.178-.024 4.994 1.099 5.448 3.369-.052 1.601-.379 3.237-.986 4.91-.606 1.672-1.185 3.237-1.738 4.695-3.491 9.685-6.974 19.38-10.447 29.084-3.474 9.703-7.064 19.362-10.77 28.976-1.395 4.101-2.763 6.974-4.104 8.62s-4.178 2.834-8.512 3.566c-1.194.179-2.246.538-3.154 1.075-.908.538-1.386 1.47-1.433 2.796.042 1.179.46 1.938 1.254 2.275.795.338 1.714.487 2.76.449 2.515-.018 5.047-.09 7.598-.216 2.55-.125 5.083-.197 7.598-.215 2.362.03 4.698.15 7.007.359 2.308.209 4.608.328 6.899.358 1.069.009 2.084-.26 3.046-.806.962-.547 1.476-1.425 1.541-2.634-.159-2.011-1.274-3.087-3.345-3.229-2.071-.141-4.141-.474-6.212-.998s-3.186-2.364-3.345-5.522c.205-4.52 1.802-11.233 4.789-20.139 2.988-8.906 6.135-17.541 9.441-25.906 3.306-8.364 5.539-13.994 6.7-16.89l1.577 68.239c-.039 2.106.183 3.773.664 5 .48 1.228 1.884 1.855 4.211 1.882 2.368-.093 4.226-.911 5.573-2.455s2.595-3.259 3.745-5.143l45.875-67.523-15.196 57.057c-.463 2.455-1.15 4.928-2.061 7.419s-2.709 4.032-5.394 4.624c-1.538.107-3.264.358-5.179.752-1.914.394-2.959 1.577-3.136 3.548.034 1.061.398 1.807 1.094 2.24.695.433 1.526.643 2.49.628 3.304-.048 6.625-.239 9.964-.574 3.339-.334 6.66-.526 9.963-.573 3.441.047 6.882.239 10.322.573 3.441.335 6.882.526 10.322.574 1.275.035 2.416-.18 3.423-.646 1.006-.465 1.538-1.397 1.595-2.795-.125-1.724-.991-2.72-2.602-2.989s-3.221-.65-4.832-1.142c-1.61-.492-2.478-1.934-2.601-4.327.024-1.736.227-3.498.609-5.287s.8-3.515 1.254-5.179l14.623-58.634c.511-2.577 1.174-4.59 1.989-6.039.815-1.448 2.589-2.35 5.322-2.706 1.461-.083 2.876-.382 4.247-.896 1.371-.513 2.106-1.6 2.205-3.261z"/></g></g></svg>