<svg clip-rule="evenodd" fill-rule="evenodd" stroke-linejoin="round" stroke-miterlimit="2" viewBox="0 0 600 56" xmlns="http://www.w3.org/2000/svg"><g fill="#fff"><path d="m27.066 48.38c-1.874.545-3.857.838-5.908.838-11.677 0-21.158-9.481-21.158-21.159 0-11.677 9.481-21.158 21.158-21.158 2.051 0 4.034.292 5.908.837v11.145c-1.703-1.1-3.731-1.738-5.908-1.738-6.024 0-10.914 4.89-10.914 10.914s4.89 10.915 10.914 10.915c2.177 0 4.205-.639 5.908-1.738z"/><path d="m36.935 28.804h-9.869v8.439h18.308zm0-1.489 8.439-8.439h-18.308v8.439z"/><path d="m68.451 25.966h6.309c-.524-5.916-2.236-7.359-11.038-7.359-9.995 0-12.231 1.575-12.231 8.933 0 7.365 2.105 9.077 11.438 9.077 9.857 0 11.831-1.318 11.831-7.496h-6.309c0 1.711-.656 2.499-5.522 2.499-4.21 0-5.129-1.05-5.129-4.473 0-3.286.919-3.286 5.922-3.286 3.679 0 4.335.4 4.729 2.105z"/><path d="m147.544 18.607h-5.916v17.348h6.309v-8.939c0-2.624 1.575-3.549 4.729-3.549 3.292 0 4.21 1.056 4.21 4.473v8.015h6.441v-9.202c0-2.492 1.843-3.286 4.866-3.286 2.892 0 4.336.925 4.336 3.286v9.202h6.315v-10.251c0-5.123-3.155-7.496-8.939-7.496-4.998 0-6.709 1.711-7.496 3.816-1.318-2.236-3.155-3.816-8.152-3.816-4.604 0-5.785 1.58-6.703 4.472z"/><path d="m108.175 18.607h-5.916v17.348h6.31v-8.939c0-2.624 1.318-3.549 4.866-3.549 3.286 0 4.21 1.187 4.21 4.473v8.015h6.441v-9.202c0-2.492 1.968-3.286 4.991-3.286 2.892 0 4.21.794 4.21 3.286v9.202h6.31v-10.251c0-5.123-3.155-7.496-8.94-7.496-4.997 0-6.834 1.842-7.496 3.816-1.312-2.236-3.154-3.816-8.152-3.816-4.729 0-6.047 1.58-6.834 4.472z"/><path d="m264.992 18.607h-6.047v17.348h6.309v-9.07c0-2.362 1.449-3.549 4.079-3.549s3.286.787 3.417 3.024h5.916c0-5.916-.787-8.152-7.096-8.152-3.811 0-5.129.793-6.578 3.685z"/><path d="m100.61 27.016c0-7.097-1.974-8.54-12.094-8.54-10.913 0-12.231 1.706-12.231 9.064 0 7.497 1.843 9.077 12.231 9.077 11.045 0 12.094-1.843 12.094-9.601zm-17.753.399c0-3.554.793-3.948 5.26-3.948 5.128 0 6.053.132 6.053 3.948 0 3.549-.662 4.205-5.523 4.205-5.128 0-5.79-.525-5.79-4.205z"/><path d="m205.068 27.016c0-7.097-2.099-8.54-12.225-8.54-10.913 0-12.225 1.837-12.225 9.196 0 7.365 1.836 8.945 12.225 8.945 11.044 0 12.225-1.843 12.225-9.601zm-18.01.399c0-3.554.793-3.948 5.391-3.948 5.129 0 6.047.132 6.047 3.948 0 3.549-.656 4.205-5.522 4.205-5.26 0-5.916-.525-5.916-4.205z"/><path d="m257.283 27.016c0-7.097-1.968-8.54-12.088-8.54-10.782 0-12.094 1.706-12.094 9.064 0 7.497 1.837 9.077 12.094 9.077 11.038 0 12.088-1.843 12.088-9.601zm-17.873.399c0-3.554.788-3.948 5.391-3.948 5.123 0 6.047.132 6.047 3.948 0 3.549-.662 4.205-5.522 4.205-5.26 0-5.916-.525-5.916-4.205z"/><path d="m224.736 11.242v10.12c-1.443-1.968-2.761-3.017-8.021-3.017-8.414 0-9.989 2.236-9.989 9.07 0 6.966 2.231 8.934 10.383 8.934 5.128 0 6.703-1.312 7.89-3.549v3.155h6.309v-24.713zm-4.604 12.094c3.549 0 4.735.525 4.735 3.286 0 4.21-.262 4.604-5.259 4.604-4.992 0-6.31-.131-6.31-3.686 0-4.073 1.581-4.204 6.834-4.204z"/><path d="m293.373 32.538c-6.047 0-6.966-.525-6.966-3.548h16.567c-.263-8.409-.263-10.383-11.438-10.383-9.47 0-11.575 1.706-11.575 9.202 0 6.965 2.767 8.671 10.388 8.808 8.546 0 12.625-.4 12.625-6.047h-6.178c-.269 1.312-.794 1.968-3.423 1.968zm-7.097-7.228c.262-1.843.787-2.499 4.991-2.499 4.61 0 5.26.263 5.529 2.499z"/><path d="m312.867.803h41.404v6.053h-41.404z"/><path d="m312.867 12.916h41.404v6.053h-41.404z"/><path d="m312.867 25.029h41.404v6.061h-41.404z"/><path d="m312.867 37.15h41.404v6.053h-41.404z"/><path d="m312.867 49.263h41.404v6.053h-41.404z"/><g fill-rule="nonzero"><path d="m377.317 48.76h19.481l13.667-41.402h-13.896l-9.511 30.766-9.512-30.766h-13.896z"/><path d="m417.633 7.358h12.695v41.402h-12.695z"/><path d="m438.677 34.235c0 12.123 6.805 14.983 18.241 14.983h11.895c12.752 0 15.268-5.49 15.268-12.467v-3.888h-12.695c0 5.146-1.715 5.718-7.434 5.718h-4.975c-6.004 0-7.262-2.287-7.262-8.291v-4.461c0-5.147 1.258-8.292 7.948-8.292h5.261c3.775 0 5.948.858 5.948 3.832v1.143h12.695c.114-11.722-2.231-15.611-20.301-15.611h-6.348c-11.436 0-18.241 2.859-18.241 14.982z"/><path d="m501.318 20.091h12.032c.217-3.573 1.998-4.269 7.011-4.269h6.5c8.12 0 6.557.743 6.557 4.117 0 4.06 1.277 4.232-7.987 4.804l-12.619.915c-8.177.571-11.494 3.945-11.494 9.035v14.067h44.681v-10.35h-33.015c-.073-2.158.8-3.317 6.119-3.603l9.283-.686c14.811-.801 17.041-2.859 17.041-15.04 0-8.635-3.088-12.18-14.983-12.18h-12.885c-11.437 0-16.241 2.745-16.241 10.922z"/><path d="m565.994 23.599c0-4.289 1.373-6.405 7.32-6.405h7.014c5.948 0 7.32 2.116 7.32 6.405v8.921c0 4.289-1.372 6.404-7.32 6.404h-7.014c-5.947 0-7.32-2.115-7.32-6.404zm-12.352 11.094c0 10.75 4.918 14.525 14.811 14.525h16.736c9.893 0 14.811-3.775 14.811-14.525v-11.552c0-12.58-4.575-16.24-18.128-16.24h-10.102c-13.553 0-18.128 3.66-18.128 16.24z"/></g></g></svg>