<svg clip-rule="evenodd" fill-rule="evenodd" stroke-linejoin="round" stroke-miterlimit="2" viewBox="0 0 600 295" xmlns="http://www.w3.org/2000/svg"><g fill="#fff"><path d="m26.874 294.098 115.174-103.657v-69.104l-142.048-120.932 34.552 119.013 80.622 23.034v26.874l-67.185 24.954z"/><path d="m286.015 294.098-115.174-103.657v-69.104l142.048-120.932-34.552 119.013-80.622 23.034v26.874l67.185 24.954z"/><path d="m385.36 82.409h-29.542c-2.584 0-4.474.762-5.766 1.998-1.334 1.276-2.142 3.137-2.142 5.688v19.769c0 2.551.808 4.412 2.142 5.688 1.292 1.236 3.182 1.998 5.766 1.998h12.661c.657 0 1.191.018 1.519.346.329.329.346.862.346 1.519v116.391c0 2.531.777 4.379 2.042 5.645 1.265 1.265 3.114 2.041 5.644 2.041h22.879c2.531 0 4.379-.776 5.644-2.041 1.266-1.266 2.042-3.114 2.042-5.645v-131.717c0-7.453-1.952-12.858-5.509-16.33-3.507-3.424-9.374-5.35-17.726-5.35z"/><path d="m586.317 82.409h-94.402c-11.545 0-21.341 1.117-29.392 3.32-8.336 2.281-15.124 5.924-20.392 10.878-5.296 4.98-9.19 11.409-11.64 19.314-2.366 7.631-3.569 16.938-3.569 27.927v38.205c0 10.985 1.202 20.327 3.566 28.031 2.451 7.984 6.347 14.452 11.643 19.432 5.275 4.96 12.07 8.569 20.416 10.774 8.044 2.125 17.833 3.202 29.368 3.202h64.86c15.654 0 26.693-3.737 33.255-10.774 6.577-7.053 9.97-16.884 9.97-29.563v-16.215c0-6.211-.709-11.76-2.107-16.651-1.468-5.138-3.927-9.453-7.352-12.959-3.394-3.475-7.786-6.163-13.2-8.022-5.21-1.789-11.545-2.706-19.012-2.706h-92.934v-1.421c0-5.668.411-10.346 1.261-14.03.764-3.313 2.068-6.006 3.979-8.044 1.883-2.009 4.444-3.384 7.645-4.2 3.593-.916 8.14-1.357 13.635-1.357h94.402c2.531 0 4.379-.776 5.644-2.042 1.266-1.265 2.042-3.113 2.042-5.644v-19.769c0-2.531-.776-4.379-2.042-5.644-1.265-1.266-3.113-2.042-5.644-2.042zm-120.922 94.225h86.271c3.733 0 6.427.582 7.944 2.215 1.548 1.668 2.14 4.398 2.14 8.091v11.772c0 3.702-.636 6.468-2.249 8.199-1.58 1.698-4.31 2.329-8.057 2.329h-59.529c-5.495 0-10.042-.441-13.635-1.357-3.213-.819-5.785-2.168-7.676-4.121-1.899-1.963-3.186-4.644-3.946-8-.85-3.757-1.263-8.402-1.263-13.931z"/></g></svg>