<svg clip-rule="evenodd" fill-rule="evenodd" stroke-linejoin="round" stroke-miterlimit="2" viewBox="0 0 600 90" xmlns="http://www.w3.org/2000/svg"><g fill="#fff"><path d="m56.478 87.281c-3.911 1.137-8.049 1.747-12.328 1.747-24.367 0-44.15-19.783-44.15-44.151 0-24.367 19.783-44.15 44.15-44.15 4.279 0 8.417.61 12.328 1.747v23.255c-3.553-2.294-7.786-3.627-12.328-3.627-12.57 0-22.775 10.206-22.775 22.775 0 12.57 10.205 22.775 22.775 22.775 4.542 0 8.775-1.332 12.328-3.626z"/><path d="m77.071 46.431h-20.593v17.61h38.202zm0-3.107 17.609-17.61h-38.202v17.61z"/><g fill-rule="nonzero"><path d="m135.337 88.073h40.65l28.519-86.391h-28.996l-19.848 64.197-19.848-64.197h-28.995z"/><path d="m219.461 1.682h26.49v86.391h-26.49z"/><path d="m263.373 57.764c0 25.297 14.2 31.264 38.065 31.264h24.819c26.61 0 31.86-11.456 31.86-26.013v-8.114h-26.49c0 10.739-3.58 11.932-15.512 11.932h-10.382c-12.529 0-15.154-4.773-15.154-17.302v-9.307c0-10.74 2.625-17.302 16.586-17.302h10.978c7.876 0 12.41 1.789 12.41 7.994v2.387h26.49c.239-24.462-4.654-32.576-42.36-32.576h-13.245c-23.865 0-38.065 5.966-38.065 31.263z"/><path d="m394.085 28.25h25.107c.453-7.455 4.167-8.908 14.628-8.908h13.563c16.944 0 13.683 1.551 13.683 8.591 0 8.472 2.665 8.83-16.666 10.024l-26.331 1.909c-17.063 1.193-23.984 8.233-23.984 18.853v29.354h93.232v-21.598h-68.89c-.152-4.503 1.671-6.921 12.768-7.517l19.37-1.432c30.905-1.671 35.559-5.966 35.559-31.383 0-18.018-6.443-25.416-31.263-25.416h-26.888c-23.865 0-33.888 5.728-33.888 22.791z"/><path d="m529.041 35.57c0-8.949 2.864-13.364 15.274-13.364h14.637c12.41 0 15.274 4.415 15.274 13.364v18.615c0 8.949-2.864 13.364-15.274 13.364h-14.637c-12.41 0-15.274-4.415-15.274-13.364zm-25.774 23.149c0 22.433 10.262 30.309 30.905 30.309h34.923c20.643 0 30.905-7.876 30.905-30.309v-24.104c0-26.251-9.546-33.888-37.826-33.888h-21.081c-28.28 0-37.826 7.637-37.826 33.888z"/></g></g></svg>