<svg clip-rule="evenodd" fill-rule="evenodd" stroke-linejoin="round" stroke-miterlimit="2" viewBox="0 0 600 163" xmlns="http://www.w3.org/2000/svg"><g fill="#fff"><path d="m102.994 158.832c-7.132 2.073-14.678 3.186-22.481 3.186-44.436 0-80.513-36.077-80.513-80.514 0-44.436 36.077-80.513 80.513-80.513 7.803 0 15.349 1.112 22.481 3.186v42.407c-6.48-4.183-14.199-6.613-22.481-6.613-22.922 0-41.533 18.611-41.533 41.533 0 22.923 18.611 41.533 41.533 41.533 8.282 0 16.001-2.429 22.481-6.613z"/><path d="m140.548 84.338h-37.554v32.113h69.667zm0-5.667 32.113-32.113h-69.667v32.113z"/><g fill-rule="nonzero"><path d="m276.762 126.627c-18.287 0-23.451-4.088-23.451-17.427 0-13.124 4.949-16.997 24.312-16.997h41.739c19.363 0 24.311 3.873 24.311 16.997 0 13.339-5.163 17.427-23.451 17.427zm-68.631-21.085c0 40.448 21.236 54.648 58.457 54.648h62.518c37.005 0 58.457-4.949 58.457-43.245v-13.554c0-28.184-8.175-43.46-54.217-43.46h-44.535c-18.718 0-27.754 4.088-35.5 11.833v-18.502c0-12.264 6.885-18.718 23.236-18.718h41.954c16.781 0 23.666 3.657 23.666 14.2h41.308v-12.264c0-19.793-14.782-35.499-60.178-35.499h-44.231c-50.99 0-70.935 13.769-70.935 61.102z"/><path d="m410.671 127.272h121.127v31.197h45.181v-31.197h23.021v-34.854h-23.021v-89.716h-55.077l-111.231 67.556zm121.127-87.134v52.28h-83.692v-.43z"/></g></g></svg>