<svg clip-rule="evenodd" fill-rule="evenodd" stroke-linejoin="round" stroke-miterlimit="2" viewBox="0 0 600 74" xmlns="http://www.w3.org/2000/svg"><g fill="#fff"><path d="m560.853 53.1c-6.461 0-8.286-1.444-8.286-6.157 0-4.637 1.749-6.005 8.59-6.005h14.747c6.841 0 8.589 1.368 8.589 6.005 0 4.713-1.824 6.157-8.285 6.157zm-24.249-7.449c0 14.291 7.504 19.307 20.654 19.307h22.088c13.075 0 20.654-1.748 20.654-15.278v-4.789c0-9.958-2.889-15.355-19.156-15.355h-15.734c-6.614 0-9.806 1.444-12.543 4.181v-6.537c0-4.333 2.433-6.614 8.21-6.614h14.823c5.929 0 8.361 1.293 8.361 5.017h14.595v-4.333c0-6.993-5.223-12.542-21.262-12.542h-15.627c-18.016 0-25.063 4.865-25.063 21.588z" fill-rule="nonzero"/><path d="m512.093 9.316h16.875v55.034h-16.875z" fill-rule="nonzero"/><path d="m35.978 63.846c-2.491.724-5.127 1.112-7.853 1.112-15.523 0-28.125-12.602-28.125-28.125 0-15.522 12.602-28.125 28.125-28.125 2.726 0 5.362.389 7.853 1.113v14.814c-2.263-1.461-4.96-2.31-7.853-2.31-8.007 0-14.508 6.501-14.508 14.508 0 8.008 6.501 14.509 14.508 14.509 2.893 0 5.59-.849 7.853-2.31z"/><path d="m49.097 37.823h-13.119v11.218h24.336zm0-1.98 11.217-11.217h-24.336v11.217z"/><path d="m90.99 34.051h8.387c-.698-7.864-2.973-9.782-14.673-9.782-13.286 0-16.259 2.093-16.259 11.875 0 9.79 2.799 12.065 15.204 12.065 13.104 0 15.728-1.752 15.728-9.965h-8.387c0 2.275-.872 3.322-7.341 3.322-5.596 0-6.817-1.395-6.817-5.946 0-4.367 1.221-4.367 7.872-4.367 4.891 0 5.763.531 6.286 2.798z"/><path d="m196.125 24.269h-7.863v23.06h8.387v-11.883c0-3.488 2.092-4.717 6.286-4.717 4.376 0 5.596 1.404 5.596 5.946v10.654h8.562v-12.232c0-3.313 2.449-4.368 6.468-4.368 3.845 0 5.763 1.229 5.763 4.368v12.232h8.395v-13.627c0-6.809-4.194-9.964-11.883-9.964-6.643 0-8.918 2.275-9.964 5.073-1.752-2.973-4.194-5.073-10.837-5.073-6.119 0-7.689 2.1-8.91 5.945z"/><path d="m143.794 24.269h-7.864v23.06h8.387v-11.883c0-3.488 1.752-4.717 6.469-4.717 4.367 0 5.596 1.578 5.596 5.946v10.654h8.561v-12.232c0-3.313 2.616-4.368 6.635-4.368 3.845 0 5.597 1.055 5.597 4.368v12.232h8.387v-13.627c0-6.809-4.194-9.964-11.883-9.964-6.643 0-9.084 2.449-9.964 5.073-1.744-2.973-4.194-5.073-10.837-5.073-6.286 0-8.038 2.1-9.084 5.945z"/><path d="m352.246 24.269h-8.038v23.06h8.387v-12.057c0-3.139 1.926-4.717 5.422-4.717s4.368 1.046 4.542 4.019h7.864c0-7.864-1.047-10.836-9.433-10.836-5.066 0-6.818 1.054-8.744 4.899z"/><path d="m133.738 35.446c0-9.433-2.624-11.351-16.076-11.351-14.506 0-16.258 2.267-16.258 12.049 0 9.964 2.449 12.065 16.258 12.065 14.681 0 16.076-2.45 16.076-12.763zm-23.599.531c0-4.724 1.055-5.248 6.992-5.248 6.817 0 8.046.175 8.046 5.248 0 4.717-.88 5.589-7.34 5.589-6.818 0-7.698-.698-7.698-5.589z"/><path d="m272.591 35.446c0-9.433-2.791-11.351-16.251-11.351-14.506 0-16.25 2.441-16.25 12.223 0 9.79 2.441 11.891 16.25 11.891 14.681 0 16.251-2.45 16.251-12.763zm-23.94.531c0-4.724 1.054-5.248 7.166-5.248 6.817 0 8.038.175 8.038 5.248 0 4.717-.872 5.589-7.34 5.589-6.992 0-7.864-.698-7.864-5.589z"/><path d="m341.999 35.446c0-9.433-2.616-11.351-16.068-11.351-14.333 0-16.077 2.267-16.077 12.049 0 9.964 2.442 12.065 16.077 12.065 14.673 0 16.068-2.45 16.068-12.763zm-23.758.531c0-4.724 1.047-5.248 7.166-5.248 6.81 0 8.038.175 8.038 5.248 0 4.717-.88 5.589-7.34 5.589-6.992 0-7.864-.698-7.864-5.589z"/><path d="m298.735 14.479v13.452c-1.918-2.616-3.67-4.011-10.662-4.011-11.185 0-13.278 2.973-13.278 12.057 0 9.259 2.965 11.875 13.801 11.875 6.818 0 8.91-1.744 10.488-4.717v4.194h8.387v-32.85zm-6.12 16.076c4.717 0 6.295.698 6.295 4.368 0 5.596-.349 6.12-6.992 6.12-6.635 0-8.387-.175-8.387-4.899 0-5.415 2.101-5.589 9.084-5.589z"/><path d="m389.972 42.786c-8.038 0-9.259-.697-9.259-4.716h22.021c-.349-11.177-.349-13.801-15.204-13.801-12.588 0-15.386 2.267-15.386 12.231 0 9.259 3.678 11.526 13.809 11.709 11.359 0 16.781-.532 16.781-8.038h-8.212c-.357 1.744-1.055 2.615-4.55 2.615zm-9.434-9.607c.349-2.45 1.047-3.322 6.635-3.322 6.128 0 6.992.349 7.349 3.322z"/><path d="m493.059.558v72.551h-8.055v-72.551h8.055"/><path d="m476.938.558v72.551h-8.056v-72.551h8.056"/><path d="m460.817.558v72.551h-8.066v-72.551h8.066"/><path d="m444.685.558v72.551h-8.055v-72.551h8.055"/><path d="m428.564.558v72.551h-8.056v-72.551h8.056"/></g></svg>