<?xml version="1.0" encoding="UTF-8" standalone="no"?><!DOCTYPE svg PUBLIC "-//W3C//DTD SVG 1.1//EN" "http://www.w3.org/Graphics/SVG/1.1/DTD/svg11.dtd"><svg width="100%" height="100%" viewBox="0 0 600 212" version="1.1" xmlns="http://www.w3.org/2000/svg" xmlns:xlink="http://www.w3.org/1999/xlink" xml:space="preserve" xmlns:serif="http://www.serif.com/" style="fill-rule:evenodd;clip-rule:evenodd;stroke-linejoin:round;stroke-miterlimit:2;"><g id="commodore_amiga_alt2"><g><g><path d="M57.954,79.462c-3.55,1.032 -7.306,1.586 -11.19,1.586c-22.117,-0 -40.073,-17.956 -40.073,-40.074c-0,-22.117 17.956,-40.073 40.073,-40.073c3.884,-0 7.64,0.554 11.19,1.586l-0,21.107c-3.225,-2.082 -7.067,-3.292 -11.19,-3.292c-11.409,0 -20.672,9.263 -20.672,20.672c0,11.41 9.263,20.672 20.672,20.672c4.123,0 7.965,-1.209 11.19,-3.291l-0,21.107Z" style="fill:#fff;"/><path d="M76.645,42.385l-18.691,-0l-0,15.983l34.674,0l-15.983,-15.983Zm0,-2.821l15.983,-15.983l-34.674,-0l-0,15.983l18.691,0Z" style="fill:#fff;"/></g><g><path d="M164.161,56.533c-3.834,1.504 -8.494,2.706 -13.079,2.706c-10.222,0 -17.513,-6.238 -17.513,-16.536c-0,-9.771 6.464,-16.987 16.386,-16.987c4.81,0 9.17,1.203 13.679,3.683l1.128,-11.35c-5.036,-1.503 -10.222,-2.706 -15.559,-2.706c-17.288,0 -30.066,9.095 -30.066,27.36c0,19.844 16.161,26.909 30.141,26.909c7.141,-0 11.575,-1.128 15.559,-2.105l-0.676,-10.974Z" style="fill:#fff;fill-rule:nonzero;"/><path d="M191.445,69.612c12.928,-0 22.775,-7.516 22.775,-20.445c-0,-13.003 -9.847,-20.52 -22.775,-20.52c-12.928,0 -22.775,7.517 -22.775,20.52c0,12.929 9.847,20.445 22.775,20.445Zm0,-9.471c-6.238,0 -8.794,-5.186 -8.794,-10.974c-0,-5.863 2.556,-11.049 8.794,-11.049c6.239,0 8.794,5.186 8.794,11.049c0,5.788 -2.555,10.974 -8.794,10.974Z" style="fill:#fff;fill-rule:nonzero;"/><path d="M220.759,68.71l13.53,-0l-0,-16.536c-0,-8.419 2.856,-12.252 7.667,-12.252c3.833,0 5.411,3.307 5.411,7.742l0,21.046l13.53,-0l-0,-16.536c-0,-8.419 2.856,-12.252 7.667,-12.252c3.833,0 5.411,3.307 5.411,7.742l0,21.046l13.53,-0l-0,-23.075c-0,-10.599 -2.556,-16.988 -13.83,-16.988c-5.562,0 -10.749,2.255 -13.906,7.517c-2.104,-5.111 -6.689,-7.517 -12.251,-7.517c-6.164,0 -11.576,2.481 -14.282,8.118l-0.15,0l0,-7.216l-12.327,0l0,39.161Z" style="fill:#fff;fill-rule:nonzero;"/><path d="M295.923,68.71l13.53,-0l-0,-16.536c-0,-8.419 2.856,-12.252 7.667,-12.252c3.833,0 5.411,3.307 5.411,7.742l0,21.046l13.53,-0l0,-16.536c0,-8.419 2.856,-12.252 7.667,-12.252c3.833,0 5.412,3.307 5.412,7.742l-0,21.046l13.529,-0l0,-23.075c0,-10.599 -2.555,-16.988 -13.83,-16.988c-5.562,0 -10.749,2.255 -13.905,7.517c-2.105,-5.111 -6.69,-7.517 -12.252,-7.517c-6.164,0 -11.575,2.481 -14.281,8.118l-0.151,0l0,-7.216l-12.327,0l0,39.161Z" style="fill:#fff;fill-rule:nonzero;"/><path d="M391.983,69.612c12.928,-0 22.775,-7.516 22.775,-20.445c-0,-13.003 -9.847,-20.52 -22.775,-20.52c-12.928,0 -22.775,7.517 -22.775,20.52c0,12.929 9.847,20.445 22.775,20.445Zm0,-9.471c-6.238,0 -8.794,-5.186 -8.794,-10.974c-0,-5.863 2.556,-11.049 8.794,-11.049c6.239,0 8.794,5.186 8.794,11.049c0,5.788 -2.555,10.974 -8.794,10.974Z" style="fill:#fff;fill-rule:nonzero;"/><path d="M463.389,12.337l-13.605,-0l0,22.248l-0.15,0c-3.457,-4.509 -8.042,-5.938 -13.454,-5.938c-10.824,0 -16.762,10.148 -16.762,19.769c0,11.575 6.239,21.196 17.889,21.196c6.239,-0 11.726,-3.533 13.455,-7.892l0.15,-0l-0,6.99l12.477,-0l0,-56.373Zm-29.99,36.379c-0,-5.186 2.931,-9.696 8.193,-9.696c4.96,0 8.268,4.284 8.268,10.222c-0,5.713 -3.759,9.997 -8.268,9.997c-5.112,0 -8.193,-4.284 -8.193,-10.523Z" style="fill:#fff;fill-rule:nonzero;"/><path d="M492.402,69.612c12.929,-0 22.775,-7.516 22.775,-20.445c0,-13.003 -9.846,-20.52 -22.775,-20.52c-12.928,0 -22.774,7.517 -22.774,20.52c-0,12.929 9.846,20.445 22.774,20.445Zm0,-9.471c-6.238,0 -8.794,-5.186 -8.794,-10.974c0,-5.863 2.556,-11.049 8.794,-11.049c6.239,0 8.795,5.186 8.795,11.049c-0,5.788 -2.556,10.974 -8.795,10.974Z" style="fill:#fff;fill-rule:nonzero;"/><path d="M550.354,29.098c-1.353,-0.225 -3.007,-0.451 -4.585,-0.451c-5.863,0 -9.245,3.157 -11.575,8.118l-0.151,0l0,-7.216l-12.326,0l-0,39.161l13.529,-0l0,-16.536c0,-7.667 3.533,-12.252 9.847,-12.252c1.578,0 3.081,0 4.585,0.451l0.676,-11.275Z" style="fill:#fff;fill-rule:nonzero;"/><path d="M592.596,53.076l0,-2.481c0,-11.65 -5.261,-21.948 -19.768,-21.948c-12.176,0 -20.971,7.517 -20.971,20.445c0,12.928 9.847,20.52 22.775,20.52c5.036,-0 9.997,-0.752 14.356,-2.48l0,-9.546c-4.058,2.179 -8.268,3.006 -11.951,3.006c-6.614,0 -10.748,-2.104 -11.5,-7.516l27.059,-0Zm-27.209,-7.667c0.301,-4.51 2.631,-8.193 7.516,-8.193c5.412,0 7.517,3.683 7.517,8.193l-15.033,0Z" style="fill:#fff;fill-rule:nonzero;"/></g></g><g><path id="path6187" d="M126.138,205.175c-0.019,-1.456 -0.424,-2.436 -1.217,-2.941c-0.792,-0.505 -1.861,-0.822 -3.206,-0.951c-4.548,-0.745 -7.261,-2.484 -8.138,-5.219c-0.877,-2.735 -1.29,-6.243 -1.238,-10.526l-4.6,-88.279c0.019,-3.181 -0.28,-5.842 -0.885,-7.983c-0.604,-2.141 -2.668,-3.254 -6.192,-3.339c-3.21,0.085 -5.546,1.021 -7.01,2.808c-1.463,1.788 -2.959,3.918 -4.489,6.391l-56.611,79.61l-9.554,13.445c-1.872,2.868 -3.921,5.536 -6.147,8.006c-2.226,2.469 -5.072,3.988 -8.536,4.555c-1.972,0.162 -3.822,0.546 -5.551,1.15c-1.728,0.605 -2.65,2.049 -2.764,4.334c0.049,1.372 0.527,2.256 1.437,2.654c0.911,0.398 1.965,0.575 3.163,0.531c3.276,-0.044 6.586,-0.221 9.929,-0.531c3.343,-0.309 6.697,-0.486 10.062,-0.531c3.007,0.037 6.015,0.185 9.022,0.443c3.008,0.258 6.015,0.405 9.023,0.442c1.396,0.019 2.672,-0.284 3.825,-0.907c1.154,-0.623 1.766,-1.677 1.836,-3.162c-0.19,-2.185 -1.52,-3.456 -3.991,-3.813c-2.47,-0.358 -4.94,-0.842 -7.41,-1.455c-2.471,-0.613 -3.801,-2.395 -3.991,-5.347c0.443,-3.166 2.522,-7.67 6.237,-13.511c3.715,-5.842 6.413,-9.948 8.093,-12.318l35.382,0c0.192,3.723 0.384,7.467 0.576,11.234c0.191,3.767 0.294,7.511 0.309,11.234c-0.194,5.192 -1.555,8.234 -4.082,9.127c-2.527,0.894 -5.054,1.394 -7.581,1.501c-2.527,0.107 -3.888,1.577 -4.082,4.409c0.03,1.217 0.413,2.057 1.15,2.521c0.737,0.465 1.651,0.686 2.742,0.664c4.872,-0.044 9.767,-0.221 14.684,-0.531c4.916,-0.309 9.811,-0.486 14.683,-0.531c3.273,0.03 6.546,0.148 9.819,0.354c3.273,0.207 6.546,0.325 9.818,0.354c1.467,0.048 2.735,-0.181 3.804,-0.686c1.069,-0.504 1.629,-1.573 1.681,-3.206Zm-43.697,-45.112l-29.545,-0l28.129,-41.044l1.416,41.044Z" style="fill:#fff;fill-rule:nonzero;"/><path id="path4766" d="M382.169,92.836c-0.026,-1.061 -0.372,-1.857 -1.04,-2.388c-0.667,-0.531 -1.5,-0.796 -2.498,-0.796c-1.585,0.007 -3.148,0.081 -4.689,0.221c-1.54,0.14 -3.103,0.302 -4.688,0.486c-3.903,0.424 -7.861,0.682 -11.875,0.774c-4.014,0.093 -8.016,0.13 -12.008,0.111c-2.919,-0.029 -5.838,-0.147 -8.757,-0.354c-2.919,-0.206 -5.838,-0.324 -8.757,-0.354c-1.389,0.004 -2.635,0.395 -3.737,1.172c-1.102,0.778 -1.685,1.921 -1.747,3.428c0.501,2.669 2.506,3.922 6.015,3.759c3.508,-0.162 5.513,1.357 6.015,4.556c-0.019,0.892 -0.122,1.806 -0.332,2.742c-0.21,0.936 -0.453,1.85 -0.73,2.742l-22.291,77.31c-0.851,3.609 -1.802,6.742 -2.852,9.399c-1.051,2.657 -3.461,4.419 -7.231,5.285c-1.729,0.254 -3.756,0.675 -6.082,1.261c-2.326,0.586 -3.601,1.935 -3.826,4.046c0.053,1.224 0.524,2.094 1.416,2.61c0.892,0.516 1.894,0.766 3.007,0.752c3.808,-0.059 7.648,-0.295 11.522,-0.708c3.873,-0.413 7.758,-0.649 11.654,-0.708c4.164,0.037 8.351,0.185 12.56,0.443c4.209,0.258 8.396,0.405 12.561,0.442c1.714,0.125 3.682,0.052 5.904,-0.221c2.223,-0.273 3.439,-1.497 3.649,-3.671c-0.163,-2.267 -1.31,-3.473 -3.44,-3.617c-2.129,-0.144 -4.259,-0.485 -6.388,-1.022c-2.13,-0.537 -3.276,-2.529 -3.44,-5.976c0.019,-1.422 0.203,-2.867 0.553,-4.334c0.35,-1.467 0.755,-2.912 1.216,-4.334l22.291,-77.664c0.818,-3.196 1.791,-5.518 2.919,-6.966c1.128,-1.449 3.339,-2.488 6.634,-3.118c1.67,-0.21 3.461,-0.675 5.374,-1.394c1.912,-0.718 2.952,-2.023 3.118,-3.914Z" style="fill:#fff;fill-rule:nonzero;"/><path id="path4768" d="M498.55,93.721c-0.25,-1.908 -2.187,-3.262 -5.811,-4.063c-3.625,-0.8 -7.436,-1.276 -11.434,-1.428c-3.998,-0.152 -6.683,-0.208 -8.053,-0.17c-14.782,0.034 -30.252,3.032 -46.41,8.996c-16.158,5.964 -29.937,14.689 -41.338,26.176c-11.401,11.488 -17.357,25.533 -17.868,42.138c0.215,10.544 3.264,19.256 9.147,26.137c5.883,6.881 13.309,12.003 22.278,15.365c8.968,3.362 18.19,5.038 27.663,5.026c5.772,-0.004 11.566,-0.351 17.382,-1.04c5.816,-0.689 11.521,-1.699 17.116,-3.029c2.134,-0.432 3.969,-0.984 5.506,-1.659c1.537,-0.674 2.709,-2.068 3.517,-4.179c1.558,-4.434 2.952,-8.923 4.179,-13.468c1.227,-4.544 2.488,-9.078 3.782,-13.6c2.127,-6.436 4.654,-10.213 7.581,-11.329c2.926,-1.116 5.519,-1.642 7.777,-1.579c2.258,0.064 3.449,-1.354 3.571,-4.252c-0.052,-1.224 -0.523,-2.094 -1.415,-2.61c-0.892,-0.516 -1.895,-0.766 -3.008,-0.752c-4.419,0.052 -8.849,0.258 -13.29,0.62c-4.442,0.361 -8.916,0.567 -13.423,0.619c-4.246,-0.044 -8.492,-0.221 -12.738,-0.531c-4.246,-0.31 -8.492,-0.486 -12.738,-0.531c-1.419,-0.04 -2.782,0.218 -4.091,0.774c-1.308,0.557 -2.009,1.655 -2.1,3.295c0.168,2 1.345,3.112 3.531,3.335c2.186,0.224 4.373,0.655 6.559,1.291c2.186,0.637 3.363,2.574 3.532,5.812c-0.196,3.317 -1.22,7.873 -3.074,13.666c-1.854,5.794 -3.365,10.438 -4.533,13.932c-0.69,2.709 -1.611,4.633 -2.765,5.772c-1.153,1.139 -3.181,1.692 -6.081,1.658c-10.368,-0.224 -18.204,-3.578 -23.507,-10.061c-5.304,-6.483 -7.965,-14.747 -7.983,-24.79c0.08,-9.244 1.997,-18.222 5.749,-26.935c3.752,-8.713 8.853,-16.364 15.303,-22.954c6.373,-6.398 14.238,-11.868 23.596,-16.409c9.357,-4.54 18.594,-6.914 27.708,-7.12c4.331,-0.044 6.992,0.796 7.984,2.521c0.991,1.725 1.396,4.6 1.216,8.624c-0.019,1.062 -0.073,2.123 -0.176,3.185c-0.103,1.061 -0.163,2.123 -0.176,3.184c-0.056,1.765 0.232,3.365 0.862,4.799c0.63,1.433 1.935,2.193 3.914,2.277c2.164,-0.165 3.763,-1.249 4.799,-3.25c1.036,-2.002 1.795,-3.925 2.278,-5.772c0.461,-1.356 1.441,-4.349 2.941,-8.978c1.5,-4.629 2.348,-7.534 2.543,-8.713l-0.002,-0Z" style="fill:#fff;fill-rule:nonzero;"/><path id="path4770" d="M600,205.175c-0.019,-1.456 -0.424,-2.436 -1.216,-2.941c-0.793,-0.505 -1.862,-0.822 -3.207,-0.951c-4.548,-0.745 -7.261,-2.484 -8.138,-5.219c-0.877,-2.735 -1.29,-6.243 -1.238,-10.526l-4.6,-88.279c0.019,-3.181 -0.28,-5.842 -0.884,-7.983c-0.605,-2.141 -2.669,-3.254 -6.192,-3.339c-3.211,0.085 -5.547,1.021 -7.01,2.808c-1.464,1.788 -2.96,3.918 -4.489,6.391l-56.612,79.61l-9.553,13.445c-1.873,2.868 -3.922,5.536 -6.148,8.006c-2.226,2.469 -5.072,3.988 -8.536,4.555c-1.972,0.162 -3.822,0.546 -5.551,1.15c-1.728,0.605 -2.65,2.049 -2.764,4.334c0.049,1.371 0.527,2.256 1.438,2.654c0.91,0.398 1.964,0.575 3.162,0.531c3.276,-0.044 6.586,-0.221 9.929,-0.531c3.343,-0.31 6.697,-0.486 10.062,-0.531c3.007,0.037 6.015,0.185 9.022,0.443c3.008,0.258 6.015,0.405 9.023,0.442c1.397,0.019 2.672,-0.284 3.825,-0.907c1.154,-0.623 1.766,-1.677 1.836,-3.162c-0.19,-2.185 -1.52,-3.456 -3.99,-3.813c-2.471,-0.358 -4.941,-0.842 -7.411,-1.455c-2.47,-0.613 -3.8,-2.395 -3.99,-5.347c0.442,-3.166 2.521,-7.67 6.236,-13.511c3.715,-5.842 6.413,-9.948 8.094,-12.318l35.382,0c0.191,3.723 0.383,7.467 0.575,11.234c0.191,3.767 0.294,7.511 0.309,11.234c-0.194,5.192 -1.555,8.234 -4.082,9.127c-2.527,0.894 -5.054,1.394 -7.581,1.501c-2.527,0.107 -3.888,1.577 -4.082,4.409c0.03,1.217 0.413,2.057 1.15,2.521c0.737,0.465 1.651,0.686 2.742,0.664c4.873,-0.044 9.767,-0.221 14.684,-0.531c4.916,-0.31 9.811,-0.486 14.684,-0.531c3.272,0.03 6.545,0.148 9.818,0.354c3.273,0.207 6.546,0.325 9.819,0.354c1.466,0.048 2.734,-0.181 3.803,-0.686c1.069,-0.504 1.629,-1.573 1.681,-3.206Zm-43.697,-45.112l-29.544,-0l28.128,-41.044l1.416,41.044Z" style="fill:#fff;fill-rule:nonzero;"/><path id="path4764" d="M307.191,93.544c-0.022,-1.139 -0.376,-1.957 -1.061,-2.455c-0.686,-0.497 -1.571,-0.74 -2.654,-0.73c-3.722,0.023 -7.467,0.111 -11.234,0.266c-3.767,0.155 -7.511,0.243 -11.234,0.265c-1.972,-0.099 -4.928,-0.21 -8.867,-0.331c-3.94,-0.122 -6.587,0.342 -7.939,1.393c-0.258,0.368 -0.494,0.781 -0.708,1.238c-0.214,0.457 -0.45,0.87 -0.707,1.238l-48.651,73.596l-1.946,-72.357c0.092,-1.375 0.041,-2.562 -0.156,-3.561c-0.195,-0.998 -1.087,-1.522 -2.675,-1.57c-4.077,0.03 -8.175,0.104 -12.296,0.222c-4.12,0.118 -8.219,0.103 -12.295,-0.045c-2.303,-0.106 -4.596,-0.247 -6.877,-0.42c-2.282,-0.173 -4.53,-0.269 -6.745,-0.287c-1.511,-0.059 -2.956,0.147 -4.335,0.619c-1.378,0.472 -2.115,1.563 -2.211,3.273c0.56,2.801 2.801,4.187 6.723,4.157c3.921,-0.029 6.162,1.357 6.722,4.158c-0.063,1.975 -0.468,3.995 -1.216,6.059c-0.748,2.064 -1.463,3.995 -2.145,5.794c-4.308,11.952 -8.606,23.916 -12.892,35.89c-4.287,11.975 -8.717,23.895 -13.291,35.759c-1.721,5.06 -3.409,8.606 -5.064,10.636c-1.655,2.031 -5.156,3.498 -10.504,4.401c-1.474,0.221 -2.772,0.664 -3.892,1.327c-1.12,0.663 -1.71,1.813 -1.769,3.45c0.052,1.456 0.567,2.392 1.548,2.808c0.98,0.417 2.115,0.601 3.405,0.553c3.104,-0.022 6.229,-0.11 9.377,-0.265c3.147,-0.155 6.273,-0.244 9.376,-0.266c2.915,0.037 5.797,0.185 8.647,0.443c2.848,0.258 5.686,0.405 8.513,0.442c1.32,0.011 2.573,-0.321 3.76,-0.995c1.186,-0.675 1.82,-1.758 1.902,-3.251c-0.197,-2.481 -1.573,-3.809 -4.128,-3.984c-2.556,-0.174 -5.111,-0.585 -7.667,-1.232c-2.555,-0.646 -3.931,-2.918 -4.128,-6.814c0.254,-5.578 2.224,-13.862 5.911,-24.853c3.686,-10.99 7.57,-21.646 11.65,-31.968c4.079,-10.322 6.836,-17.27 8.269,-20.843l1.946,84.21c-0.049,2.598 0.224,4.655 0.818,6.17c0.593,1.514 2.325,2.288 5.197,2.322c2.922,-0.115 5.215,-1.125 6.877,-3.03c1.662,-1.906 3.203,-4.021 4.622,-6.347l56.611,-83.325l-18.752,70.411c-0.572,3.029 -1.419,6.081 -2.543,9.155c-1.124,3.074 -3.343,4.975 -6.657,5.705c-1.898,0.133 -4.028,0.443 -6.391,0.929c-2.362,0.487 -3.652,1.946 -3.869,4.379c0.041,1.308 0.49,2.229 1.349,2.764c0.858,0.534 1.883,0.792 3.073,0.774c4.077,-0.059 8.175,-0.295 12.296,-0.708c4.12,-0.413 8.219,-0.649 12.295,-0.707c4.246,0.059 8.492,0.294 12.738,0.707c4.245,0.413 8.491,0.649 12.737,0.708c1.574,0.044 2.982,-0.221 4.224,-0.796c1.242,-0.575 1.898,-1.725 1.968,-3.45c-0.153,-2.127 -1.223,-3.357 -3.21,-3.689c-1.988,-0.332 -3.976,-0.802 -5.963,-1.409c-1.988,-0.607 -3.058,-2.387 -3.211,-5.34c0.03,-2.141 0.28,-4.316 0.752,-6.523c0.472,-2.208 0.988,-4.338 1.548,-6.391l18.045,-72.357c0.63,-3.181 1.449,-5.665 2.455,-7.452c1.006,-1.788 3.195,-2.901 6.568,-3.34c1.802,-0.103 3.549,-0.471 5.241,-1.105c1.691,-0.634 2.598,-1.976 2.72,-4.025l0,-0Z" style="fill:#fff;fill-rule:nonzero;"/></g></g></svg>