<svg clip-rule="evenodd" fill-rule="evenodd" stroke-linejoin="round" stroke-miterlimit="2" viewBox="0 0 600 256" xmlns="http://www.w3.org/2000/svg"><path d="m550.84 102.644c0 16.385-15.293 26.222-18.57 41.514 0 3.277-2.184 6.554-1.092 9.831 14.2-15.293 26.216-30.59 44.78-42.606 3.288-1.087 6.565-3.277 10.934-1.087 9.831 6.554 13.108 17.477 13.108 29.493-2.185 21.852-24.042 41.513-44.791 46.975-4.369 1.092-9.831 1.092-15.292 1.092-8.739 20.755-15.303 43.699-19.673 66.638-4.369 2.184-7.646-2.185-10.923-4.37-8.738-7.646-6.554-19.662-4.369-28.405 4.369-17.478 9.831-34.955 16.385-51.345-9.831-18.575 1.092-38.237 10.933-53.529 4.37-5.462 9.831-13.108 16.385-16.385 2.185 0 2.185 1.092 2.185 2.184zm-362.694-56.806c21.846 17.477 45.883 40.416 53.529 66.637 5.462 21.852-4.369 44.791-22.944 57.904-29.498 19.662-69.914 22.939-105.966 13.108-1.087 4.369-1.087 10.923-6.554 10.923-5.462-1.092-12.016 2.185-14.201-4.369-1.092-4.369-2.184-9.831-3.277-15.293-12.02-7.646-25.128-14.2-36.052-24.031-7.646-8.738-24.036-19.667-17.477-32.775 14.2-16.385 36.047-19.662 55.714-22.944 1.092 0 2.185-1.087 2.185-2.179 1.092-13.113 2.184-27.314 6.554-39.329 2.184-3.277 4.369 0 5.461 1.087 9.837 10.928 7.647 25.129 8.744 38.237l1.093 1.092c24.031 0 48.067 2.184 65.544 16.385 5.462 5.461 7.647 12.015 5.462 18.569-3.277 6.554-9.831 12.016-17.477 12.016-4.37 0-6.559-2.18-9.836-3.277v-1.092c3.277-3.277 9.836-6.554 10.923-10.924-17.477-7.646-36.052-12.015-55.714-12.015-2.185 17.477-1.092 34.954-1.092 52.437l1.092 1.092c36.047 6.554 75.376 6.554 99.412-21.852 12.016-15.292 4.369-37.144-5.461-52.437-29.499-38.236-71.007-56.811-113.613-69.919-26.221-5.462-57.898-9.831-84.12-3.277 3.277 0 8.739 1.092 10.924 5.462 0 1.092-2.185 1.092-3.277 2.184-5.462 1.093-12.016 0-16.385-2.184-4.369-5.462 3.277-9.831 4.369-14.201 5.462-5.461 12.016-6.554 18.57-7.646 50.252-9.831 99.412 7.646 140.926 29.498zm328.821 66.637c1.093 1.093 3.277 3.277 1.093 5.462-6.554 4.369-14.2 3.277-21.847 3.277h-16.385c-1.092 4.369-2.184 7.646-3.277 12.016l24.032 1.092c3.277 2.185 2.184 7.646 2.184 10.923-9.831 3.277-20.754 2.185-30.585 2.185l-2.195 1.092-4.369 15.293c12.026 0 24.041-4.37 36.052-3.277 3.277 2.184 5.461 6.554 4.369 9.831-12.016 8.738-25.124 15.292-39.329 17.477-8.739 0-15.293-3.277-19.662-10.923-5.462-9.831 0-20.755 3.277-29.498 0-4.37-1.092-7.647 0-12.016 2.185-3.277 8.739 0 9.831-5.462l3.277-9.831c-3.277-2.184-8.739-1.092-12.016-4.369l-3.277-7.646 1.093-1.092c18.569-2.185 38.236-5.462 56.806-4.37 5.467 1.098 7.651 5.467 10.928 9.836zm-81.929 0c6.554 17.483 12.015 45.883-3.277 60.089-3.277 2.184-7.647 5.461-13.108 4.369-5.472-4.369-9.842-10.923-13.119-16.385-5.461-9.831-12.015-18.569-15.292-28.405h-1.092c-4.37 14.2-1.093 31.682-6.554 45.882-1.093 2.18-4.37 2.18-6.554 2.18-2.185 0-5.462-2.18-6.554-5.462-3.277-6.554-1.093-14.2-1.093-21.846 1.093-15.298 4.37-31.683 10.924-44.791 2.184-2.185 4.369-3.277 6.554-3.277 4.369 2.185 7.646 6.554 10.923 10.923 9.831 12.016 15.303 26.221 26.226 37.145 1.092-20.76-6.554-38.237-9.841-57.904 0-3.277-1.082-6.554 2.195-7.646 9.836 5.472 15.292 16.39 19.662 25.128zm-164.957-3.277c1.087 18.575 2.179 38.237 2.179 57.904-1.092 4.37 0 10.923-5.462 12.016-4.369 1.087-7.646-1.093-10.923-2.185-3.277-3.277-3.277-8.738-4.369-13.108 0-19.662 1.092-38.231 4.369-56.806 1.092-3.277 2.185-8.739 5.462-9.831 5.461 1.092 7.646 6.549 8.744 12.01zm97.227-4.369c0 2.185-1.092 4.369-3.277 5.462-5.461 3.277-10.933 3.277-17.487 4.369-16.385 2.185-36.042-1.092-50.253 5.462l-1.092 1.092c17.482 5.462 38.237 4.369 55.714 9.831 5.461 3.277 10.934 7.646 12.026 14.2 2.185 6.554 0 15.293-2.185 20.754-14.21 14.201-37.144 16.391-55.719 9.837-8.739-4.37-20.754-10.929-20.754-20.76 0-6.554 4.369-12.015 9.831-14.205 12.015-3.277 26.221 0 38.237 3.277l8.738 4.369c-1.092 6.554-8.738 6.554-14.2 7.646-12.016 2.185-20.76-10.923-32.775-6.554-2.185 2.18-3.277 3.277-2.185 5.462 4.369 7.646 16.385 5.462 24.037 5.462 12.015 0 22.938-3.277 32.769-8.739 1.093-1.087 2.185-3.277 1.093-4.369-17.477-14.201-44.786-7.647-64.453-14.201-3.277-2.184-5.461-5.461-5.461-8.738 0-7.647 3.277-15.298 9.831-18.575 18.569-9.831 41.513-10.923 63.36-6.554 4.369 1.103 9.836 2.195 14.205 5.472zm219.584 25.129c2.185 10.923-3.277 20.759-12.026 27.313-6.231 5.236-13.795 8.64-21.847 9.831l1.093-3.277c8.738-13.108 17.477-27.313 29.503-38.231 2.185-.005 3.277 2.179 3.277 4.364zm-495.974-15.293c-1.092 14.201 0 30.591-2.185 44.791-10.923-3.277-20.759-9.831-30.59-15.293-6.554-4.369-13.113-9.831-18.575-17.477 0-3.277 3.277-4.369 5.462-6.554 14.2-3.277 29.498-6.554 45.883-6.554v1.087zm211.932-83.027c5.462 1.092 10.929 4.369 14.206 8.739 4.369 13.108-6.554 22.938-15.298 29.498-14.2 10.923-30.59 19.662-48.067 13.108-4.37 2.184-6.554 7.646-12.016 4.369-3.277-3.277-4.369-8.739-3.277-14.2-5.462-5.462-7.646-14.201-3.277-21.852 8.739-17.477 27.313-28.406 45.883-28.406 8.739.005 16.385 2.19 21.846 8.744zm3.277 15.293c1.093 6.554-6.554 12.015-10.923 15.292-9.831 5.462-21.846 8.739-33.862 6.554 2.185-5.462 7.646-9.831 12.016-13.113 7.646-6.554 17.477-14.2 28.405-13.108zm-39.329-7.647c-6.554 6.554-14.2 13.108-20.754 21.847-2.184-5.462 3.277-10.923 6.554-14.2 4.375-4.37 8.744-6.554 14.2-7.647z" fill="#fff"/></svg>