<svg clip-rule="evenodd" fill-rule="evenodd" stroke-linejoin="round" stroke-miterlimit="2" viewBox="0 0 600 142" xmlns="http://www.w3.org/2000/svg"><g fill="#fff" fill-rule="nonzero"><path d="m75.181 12.448c11.565-8.926 26.527-12.524 40.964-11.963 6.673.335 13.283 1.566 19.709 3.372.234.138.695.41.928.542-7.853 5.531-14.601 12.841-18.831 21.509-7.973-.903-16.231 1.104-22.746 5.839-8.15 5.72-14.065 14.848-15.157 24.829-1.263 10.082-2.437 20.176-3.687 30.258-.366 2.79-.486 5.7-1.748 8.27-1.762 3.712-4.419 6.925-7.216 9.905-2.538 2.651-6.395 3.08-9.867 3.118-8.081-17.827-9.728-38.307-5.499-57.353 3.251-14.804 10.909-29.064 23.15-38.326z"/><path d="m135.993 10.043c11.919-7.733 26.773-9.406 40.643-7.973 12.272 1.231 24.822 5.688 33.307 14.993 6.988 7.45 10.265 17.62 10.984 27.657-8.831.164-17.669.089-26.501.038-.96-5.303-3.662-10.366-7.98-13.674-6.256-4.848-14.627-6.193-22.335-5.208-5.795.846-11.875 2.696-15.972 7.115-2.449 2.733-4.021 6.881-2.43 10.416 1.546 4.35 3.049 8.718 4.558 13.081 2.323 6.963 1.243 14.437.505 21.577-9.71-2.607-19.747-6.843-25.908-15.17-5.935-8.087-6.692-18.806-5.057-28.414 1.673-9.95 7.676-19.021 16.186-24.438z"/><path d="m0 5.593c16.199-.436 32.404-.846 48.61-1.231 8.023-.026 16.034 1.174 23.673 3.661.038 1.111-.177 2.191-1.168 2.841-6.647 5.82-11.628 13.213-16.136 20.732-9.336-.045-18.673.17-28.016.176.189 26.553.044 53.117.227 79.676 5.663.454 11.338.865 17.007 1.18 5.486-.019 10.972-.094 16.458-.189 5.284-.177 9.52-3.99 12.651-7.904 4.185-5.454 7.411-11.912 7.954-18.85.707-8.472 1.503-16.938 2.266-25.403.316-3.599 1.029-7.191 2.437-10.53 3.075-7.551 9.369-13.535 16.761-16.824 10.517 17.783 12.064 39.777 7.209 59.575-3.522 14.116-11.83 27.284-24.109 35.333-11.988 8.037-26.779 10.922-41.034 10.303-14.93-.625-29.873-1.035-44.79-1.824v-130.722z"/><path d="m155.974 32.694c5.833-2.746 12.455-2.696 18.73-1.963 6.465 11.748 10.278 24.999 10.36 38.439.315 14.968-3.75 29.822-10.726 43.004-7.033.833-14.394-.556-20.403-4.362-2.538-1.591-4.723-4.47-3.908-7.62 1.648-6.578 3.889-13.005 5.688-19.545.947-3.756.549-7.651.499-11.477-.12-4.507-1.004-8.964-2.292-13.276-1.572-5.416-3.908-10.732-4.141-16.439.139-3.409 3.383-5.511 6.193-6.761z"/><path d="m188.719 61.98c9.671 2.632 19.702 5.846 27.209 12.796 6.212 5.669 9.141 14.109 9.444 22.36v4.723c-.43 7.796-3.214 15.529-8.365 21.457-6.849 8.005-16.799 12.702-26.918 15.057-13.472 3.055-27.708 2.373-40.996-1.288-10.72-3.03-21.326-9.028-26.925-19.009-3.819-6.874-7.159-14.911-5.101-22.878 8.636-.101 17.279.064 25.921.127.96 5.921 3.409 11.969 8.339 15.675 6.136 4.646 14.185 5.353 21.628 5.429 6.768-.145 14.003-.846 19.735-4.792 4.981-3.295 6.938-10.454 4.128-15.763-2.026-3.712-5.789-5.972-9.381-7.942.234-8.661.878-17.304 1.282-25.952z"/><path d="m105.716 114.314c3.397-.53 6.945-.013 10.398.057 4.482 10.227 13.086 17.916 22.322 23.844-6.786 2.304-13.932 3.409-21.091 3.56h-.398c-10.353-.107-20.599-2.386-30.233-6.098-.012-.126-.037-.373-.05-.499 3.542-3.466 7.209-6.811 10.808-10.227 3.465-2.942 5.429-7.146 8.244-10.637z"/><path d="m271.547 59.519h38.147c5.61 0 10.284-1.589 14.024-4.768s5.61-7.76 5.61-13.744c0-6.732-1.683-11.469-5.049-14.212-3.366-2.742-8.227-4.114-14.585-4.114h-38.147zm-23.375-55.911h64.888c11.967 0 21.566 2.742 28.797 8.228 7.23 5.485 10.846 13.775 10.846 24.87 0 6.732-1.652 12.498-4.956 17.297-3.303 4.8-8.009 8.508-14.118 11.126v.374c8.228 1.746 14.461 5.641 18.7 11.687 4.238 6.047 6.357 13.62 6.357 22.72 0 5.236-.935 10.129-2.804 14.68-1.87 4.55-4.8 8.477-8.789 11.78-3.99 3.304-9.101 5.922-15.334 7.854s-13.651 2.898-22.252 2.898h-61.335v-133.514zm23.375 114.441h41.326c7.105 0 12.622-1.839 16.549-5.516 3.927-3.678 5.89-8.883 5.89-15.615 0-6.607-1.963-11.687-5.89-15.24s-9.444-5.329-16.549-5.329h-41.326z"/><path d="m426.845 19.502c-7.106 0-13.246 1.434-18.419 4.301-5.174 2.868-9.381 6.701-12.622 11.501-3.242 4.799-5.641 10.253-7.2 16.362-1.558 6.108-2.337 12.341-2.337 18.699s.779 12.591 2.337 18.7c1.559 6.108 3.958 11.562 7.2 16.362 3.241 4.799 7.448 8.633 12.622 11.5 5.173 2.867 11.313 4.301 18.419 4.301s13.245-1.434 18.419-4.301 9.381-6.701 12.622-11.5c3.241-4.8 5.641-10.254 7.199-16.362 1.559-6.109 2.338-12.342 2.338-18.7s-.779-12.591-2.338-18.699c-1.558-6.109-3.958-11.563-7.199-16.362-3.241-4.8-7.448-8.633-12.622-11.501-5.174-2.867-11.313-4.301-18.419-4.301zm0-19.073c9.973 0 18.918 1.87 26.834 5.61s14.617 8.789 20.102 15.146c5.485 6.358 9.692 13.776 12.622 22.253s4.394 17.453 4.394 26.927c0 9.599-1.464 18.637-4.394 27.114-2.93 8.478-7.137 15.895-12.622 22.253s-12.186 11.375-20.102 15.053-16.861 5.516-26.834 5.516-18.918-1.838-26.834-5.516-14.617-8.695-20.102-15.053-9.692-13.775-12.622-22.253c-2.93-8.477-4.394-17.515-4.394-27.114 0-9.474 1.464-18.45 4.394-26.927s7.137-15.895 12.622-22.253c5.485-6.357 12.186-11.406 20.102-15.146s16.861-5.61 26.834-5.61z"/><path d="m480.884 3.608h27.862l30.294 47.123 31.602-47.123h26.179l-44.131 64.326 47.31 69.188h-28.423l-33.285-51.049-33.847 51.049h-26.74l47.31-69.188-44.131-64.326z"/></g></svg>