<svg clip-rule="evenodd" fill-rule="evenodd" stroke-linejoin="round" stroke-miterlimit="2" viewBox="0 0 600 675" xmlns="http://www.w3.org/2000/svg"><path d="m152.268.188 447.732 72.522v526.995l-448.187 74.456-151.813-62.853v-564.706l152.268-46.414zm37.199 319.587 82.301-.585c42.108-1.17 54.713-25.059 59.068-56.729l-.135-118.021c-1.034-80.824-37.879-96.614-141.234-107.962zm41.052-231.286c41.524 4.094 58.684 9.822 62.888 38.29l1.169 129.249c1.46 20.743-20.459 26.93-63.747 24.013zm112.769 174.164c6.976 85.619 125.926 82.574 117.668-6.193l.826-124.686c-6.193-82.162-116.429-89.593-116.842-12.008zm34.67-126.145c.3-42.664 55.583-31.848 53.78 6.31l-1.479 116.274c-2.431 35.252-54.705 31.246-52.302-5.085zm120.168 118.247c11.873 76.474 110.43 5.32 9.511-50.9-74.379-48.539-24.444-156.79 56.57-101.001l-8.031 35.351c-32.126-28.285-87.649-.698-20.254 42.952 36.042 23.342 66.348 75.077 30.73 128.155-21.248 31.664-98.125 23.746-100.918-49.935zm-304.021 384.986s75.085-8.935 98.917-21.298c58.696-30.449 48.615-124.032 8.429-136.143 29.558-17.594 35.782-91.933-9.358-109.548-29.128-11.367-99.64-4.232-99.64-4.232zm37.812-229.005c44.039-1.101 48.907 2.52 49.508 28.156.55 23.499-3.207 36.778-49.508 37.903zm0 108.02c47.377-5.491 59.763-4.252 62.653 28.777 2.294 26.214-10.82 45.395-62.653 46.654zm226.149 12.744.826-117.324c-2.477-80.922-119.319-72.252-116.429 16.137l-.172 129.193c4.713 80.097 123.62 57.802 115.775-28.006zm-100.086-104.559c-.965-68.152 91.003-69.328 87.459-1.239l-.826 107.346c-.172 69.397-88.113 79.718-88.526 19.956zm123.035-65.371 41.046 92.242 45.003-92.242h13.212l-50.371 109.909 49.958 102.891-15.689 2.133-40.874-88.836-48.96 104.662-17.1 2.065 56.908-122.915-50.13-109.909z" fill="#fff"/></svg>