<svg clip-rule="evenodd" fill-rule="evenodd" stroke-linejoin="round" stroke-miterlimit="2" viewBox="0 0 600 601" xmlns="http://www.w3.org/2000/svg"><g fill="#fff" fill-rule="nonzero"><path d="m300.013.5c-165.439 0-300.013 134.566-300.013 300.026 0 165.377 134.574 299.974 300.013 299.974 165.384 0 299.987-134.597 299.987-299.974 0-165.46-134.603-300.026-299.987-300.026zm.018 41.633c142.714 0 258.386 115.669 258.386 258.377s-115.672 258.377-258.386 258.377-258.388-115.669-258.388-258.377 115.674-258.377 258.388-258.377z"/><path d="m277.797 289.394h-104.858l24.036-37.582h65.144l23.79-37.446h-145.336l-23.681 37.446h34.879l-47.498 75.055h195.238l74.157-117.745 26.822 42.635h-23.135l-23.654 37.637h70.552l23.735 37.473h45.013l-119.333-188.921zm-89.917-150.055-23.599 37.445 154.158-.054 23.627-37.391z"/><path d="m156.595 409.87c0 4.78-1.666 8.931-4.971 12.263-3.36 3.332-7.457 5.026-12.209 5.026h-20.24c-4.861 0-8.931-1.639-12.182-4.862-3.195-3.223-4.834-7.21-4.834-12.127v-8.029h12.482l1.912 7.429c.82 3.113 2.923 4.67 6.337 4.67h13.766c1.748 0 3.114-.656 4.206-1.857 1.038-1.284 1.557-2.923 1.557-4.807v-8.85c0-4.315-1.884-6.555-5.763-6.555h-17.317c-4.698 0-8.74-1.638-12.154-4.943-3.305-3.441-5.026-7.538-5.026-12.345v-11.635c0-4.671 1.721-8.713 5.026-12.1 3.414-3.387 7.456-5.025 12.154-5.025h20.076c4.752 0 8.795 1.611 12.072 4.779 3.305 3.223 4.862 7.265 4.862 12.127v7.265h-12.4l-1.857-6.582c-.984-3.168-3.142-4.698-6.31-4.698h-13.548c-1.802 0-3.195.656-4.26 1.939-1.093 1.229-1.585 2.813-1.585 4.78v6.828c0 4.234 1.94 6.364 5.845 6.364h17.181c4.698 0 8.795 1.693 12.1 5.135 3.414 3.414 5.08 7.401 5.08 12.099z"/><path d="m227.4 380.217c0 4.725-1.748 8.794-5.107 12.154-3.415 3.386-7.539 5.08-12.264 5.08h-22.288v29.716h-14.34v-81.036h36.628c4.725 0 8.849 1.693 12.264 5.025 3.359 3.332 5.107 7.375 5.107 12.045zm-20.185-21.004h-19.474v25.128h19.474l4.152-1.885c1.065-1.256 1.584-2.813 1.584-4.807v-11.799c0-1.966-.519-3.468-1.584-4.752z"/><path d="m354.551 427.17-13.165-31.683h-13.602v31.683h-14.367v-81.036h35.862c4.808 0 8.85 1.693 12.182 4.998 3.333 3.386 5.053 7.456 5.053 12.072v14.12c0 3.688-1.037 7.02-3.031 9.942-2.104 2.95-4.726 5.053-7.949 6.391l14.258 33.513zm-7.976-67.954h-18.791v23.161h18.791l3.961-1.802c1.092-1.229 1.584-2.786 1.584-4.753v-9.996c0-1.885-.492-3.442-1.584-4.753z"/><path d="m431.256 359.2h-20.786v67.953h-14.312v-67.953h-20.649v-13.056h55.747z"/><path d="m496.194 409.87c0 4.78-1.693 8.931-4.971 12.263-3.414 3.332-7.484 5.026-12.291 5.026h-20.239c-4.808 0-8.85-1.639-12.155-4.862-3.196-3.223-4.862-7.21-4.862-12.127v-8.029h12.51l1.857 7.429c.874 3.113 3.005 4.67 6.392 4.67h13.766c1.721 0 3.141-.656 4.233-1.857 1.038-1.284 1.475-2.923 1.475-4.807v-8.85c0-4.315-1.857-6.555-5.708-6.555h-17.262c-4.753 0-8.85-1.638-12.182-4.943-3.333-3.441-5.081-7.538-5.081-12.345v-11.635c0-4.671 1.748-8.713 5.081-12.1 3.332-3.387 7.429-5.025 12.182-5.025h19.993c4.807 0 8.822 1.611 12.1 4.779 3.25 3.223 4.917 7.265 4.917 12.127v7.265h-12.428l-1.912-6.582c-.983-3.168-3.087-4.698-6.282-4.698h-13.602c-1.749 0-3.224.656-4.207 1.939-1.092 1.229-1.584 2.813-1.584 4.78v6.828c0 4.234 1.939 6.364 5.791 6.364h17.207c4.753 0 8.768 1.693 12.1 5.135 3.469 3.414 5.162 7.401 5.162 12.099z"/><path d="m275.918 359.2h-13.767l-4.206 1.884c-.983 1.284-1.529 2.841-1.529 4.78v41.515c0 1.912.546 3.441 1.529 4.725l4.206 2.021h13.767l4.151-2.021c1.093-1.284 1.639-2.813 1.639-4.725v-41.515c0-1.939-.546-3.496-1.639-4.78zm20.075 50.555c0 4.917-1.666 9.013-5.026 12.373-3.441 3.305-7.429 5.025-12.291 5.025h-19.365c-4.78 0-8.932-1.72-12.237-5.025-3.332-3.36-5.08-7.456-5.08-12.373v-46.595c0-4.588 1.748-8.685 5.08-12.017 3.305-3.36 7.457-4.999 12.237-4.999h19.365c4.862 0 8.85 1.639 12.291 4.944 3.36 3.277 5.026 7.402 5.026 12.072z"/></g></svg>