<svg clip-rule="evenodd" fill-rule="evenodd" stroke-linejoin="round" stroke-miterlimit="2" viewBox="0 0 600 151" xmlns="http://www.w3.org/2000/svg"><g fill="#fff"><path d="m350.262 150.538c.219 0 .398-.176.398-.395v-47.305c0-.219-.179-.398-.398-.398h-48.518c-.219 0-.395.179-.395.398v47.305c0 .219.176.395.395.395zm-24.148-1.96c12.198 0 22.087-9.89 22.087-22.088 0-12.197-9.889-22.087-22.087-22.087s-22.087 9.89-22.087 22.087c0 12.198 9.889 22.088 22.087 22.088z"/><path d="m328.849 131.936c2.14 0 3.874-1.734 3.874-3.87s-1.734-3.869-3.874-3.869c-2.136 0-3.866 1.733-3.866 3.869s1.73 3.87 3.866 3.87z"/><path d="m323.763 117.466c.807-.488 1.489-1.238 1.152-2.129-1.023-2.685-1.461-6.264.941-8.4.473-.42 1.08-.703 1.601-.298 2.893 2.269 1.863 6.146.29 9.039-.527.97.061 4.064 1.565 4.265 4.265.578 7.101 2.735 7.944 6.454 1.12 4.932-2.627 9.398-7.437 9.933-.776 2.301.19 4.821-.937 7.05-.984 1.953-2.962 3.622-5.252 3.496-1.608-.086-3.066-1.909-2.416-3.575.445-1.142 1.597-1.63 2.743-1.626 1.234.003 2.128.836 2.857 1.888.273.391.589-.262.61-.495.115-1.214.298-4.789-.039-5.963-2.355.104-3.999.564-6.394-.377-4.314-1.698-7.649-6.544-5.854-11.07 1.522-3.834 5.076-6.045 8.626-8.192zm.395 3.791c.782-.456 1.834-.463 2.258-1.228.33-.599-.521-2.218-1.009-1.949-3.105 1.719-6.009 4.164-7.248 7.549-1.317 3.593.187 7.409 3.296 9.653 1.112.8 3.112 1.382 4.271.718-1.942-1.149-3.668-2.546-4.609-4.66-1.569-3.532-.538-7.998 3.041-10.083zm4.691 13.023c3.436 0 6.218-2.782 6.218-6.214 0-3.431-2.782-6.217-6.218-6.217-3.431 0-6.213 2.786-6.213 6.217 0 3.432 2.782 6.214 6.213 6.214zm-2.24-19.621c.657-.808 1.114-2.425 1.186-3.839s-.242-2.624-1.125-2.619c-1.565.011-1.446 4.814-.061 6.458z"/><g fill-rule="nonzero"><path d="m444.406 136.348c-.428 1.613-.144 3.971 1.373 5.193 2.133 1.72 5.617.83 6.547.376 2.421-1.17 3.573-2.081 5.167-4.303.314-.439-.255-.989-.956-.823-1.48.358-1.89 1.967-3.44 2.244-.302.055-.657-.173-.59-.576.129-.771.76-1.982.911-2.369 0 0 4.37-10.289 6.824-15.74.694-1.547 1.141-3.425.358-5.023 0 0-.649-2.377-4.982-2.51-4.55-.14-8.481 3.562-11.038 6.459-.34.483-.543.424-.672.096.07-4.034-.724-5.625-3.274-6.285-5.218-1.351-8.82 1.911-11.378 4.808-.343.484-.539.425-.668.096-.299-3.901-1.059-4.034-2-4.642-3.953-2.558-11.88 2.443-13.914 5.713-.738 1.184.214 2.701 1.377 1.742 1.506-1.233 2.447-2.709 3.978-2.654.366.015.912.203.853.882-.03.343-8.636 21.745-8.636 21.745-.118.594.055.852.882 1.019l6.507-.056c.453 0 .893-.432 1.055-.753 0 0 7.455-15.6 8.411-17.087 1.701-2.65 3.122-4.868 6.558-7.16.712-.476 2.133-.206 1.879.823-.879 3.562-9.415 23.203-9.415 23.203-.177.561-.107.889.609 1l7.185.004c.399 0 .853-.229.997-.731 0 0 5.739-12.969 8.854-17.56 2.712-3.989 4.572-5.617 6.218-6.816.956-.698 2.233-.642 2.192.539-.073 2.122-7.344 17.53-7.772 19.146z"/><path d="m478.511 114.459c1.542-.867 2.347-.424 2.819.155.428.532.377 1.75.281 2.263-.506 2.775-1.624 4.484-3.325 6.735-1.628 2.17-3.359 3.875-5.776 4.849-.676.27-2.074.621-2.067-.354.033-2.631 6.684-12.865 8.068-13.648zm-7.762 16.398c5.367-.166 16.206-4.669 16.379-12.943.096-4.636-5.938-6.525-10.282-5.093-9.658 3.188-13.349 9.599-14.851 13.109-1.922 4.499-2.14 10.437 2.259 13.736 3.015 2.266 6.861 2.344 10.179.712 2.55-1.251 5.093-3.465 6.418-5.355.169-.236.561-.753.49-1.081-.073-.373-.8-.742-1.155-.328-2.026 2.347-5.122 4.764-6.185 5.177-1.569.606-3.536 1.207-5.137.211-.554-.34-1.285-1.447-1.229-2.521.051-1.188.276-3.015.808-4.111.576-1.189 1.432-1.487 2.306-1.513z"/><path d="m495.255 117.814c.14-.911-.539-1.255-.945-1.14-1.126.317-2.484 1.786-3.495 2.384-.657.384-1.546-.21-.993-.941 1.879-2.491 7.466-5.636 10.803-5.167 3.295.458 2.723 3.639 2.786 4.923.022.428.561.288.723.1 2.086-2.517 4.16-5.093 7.566-4.761 1.141.114 3.078.878 2.99 3.019-.096 2.432-1.421 5.61-4.385 6.115-2.063.354-3.753-.897-3.798-3.428 0-.196-.361-.351-.834-.019-1.494 1.048-2.122 2.495-2.358 2.787-1.14 1.395-9.289 18.7-9.289 18.7-.306.815-.506.9-1.074.959l-6.595-.014c-.738.014-1.166-.499-.753-1.543z"/><path d="m517.015 124.092c-2.104-4.909 1.775-9.651 5.923-11.153 4.329-1.565 10.193-1.89 13.006 1.251 2.17 2.428.299 6.067-2.381 6.61-1.668.339-3.576-.067-4.458-1.698-.856-1.583-.679-3.654.14-4.336.137-.107.454-.336.417-.598-.029-.225-.417-.351-.793-.369-.273-.015-4.134.048-4.326 3.299-.203 3.429 2.613 5.968 5.016 8.692 3.764 4.273 2.329 10.684-2.532 13.618-3.225 1.937-6.717 2.675-10.267 2.413-3.735-.273-7.987-2.052-8.765-6.248-.391-2.126.391-4.329 2.277-5.392 2.362-1.328 6.1-.605 6.765 2.403.587 2.657-1.119 4.613-3.2 5.598-.805.373-.498.805.055 1.063 2.026.96 4.665.905 6.629.07 2.55-1.092 3.919-4.845 2.875-6.879-1.657-3.233-4.58-4.152-6.381-8.344z"/><path d="m547.159 137.85c-3.742 2.905-5.023.255-5.296-.738-1.616-5.82 8.61-21.675 11.275-22.904 1.399-.645 4.001-.974 4.189 2.296.173 2.93-6.285 18.331-10.168 21.346zm16.774-19.198c-1.639-5.433-6.949-6.931-10.869-6.669-6.458.432-12.142 4.207-15.375 9.979-2.775 4.949-2.624 11.655-.063 14.995 4.868 6.337 10.707 4.429 13.589 3.229 8.562-3.565 15.069-13.765 12.718-21.534z"/><path d="m588.195 116.312c-2.51 1.166-4.92 4.706-6.614 7.363-1.291 2.015-8.414 17.087-8.414 17.087-.163.318-.602.753-1.056.753l-6.503.052c-.826-.166-.996-.425-.882-1.019 0 0 8.607-21.402 8.636-21.745.059-.679-.487-.863-.852-.878-1.532-.059-2.477 1.417-3.979 2.653-1.162.956-2.114-.557-1.376-1.742 2.03-3.269 9.961-8.27 13.91-5.716.941.609 1.705.742 2.004 4.642.088.229.347.344.668-.095 2.177-2.975 6.982-5.064 10.13-4.879 2.443.147 4.067 1.594 4.617 2.539.797 1.376.336 3.476-.358 5.023-2.454 5.451-6.824 15.736-6.824 15.736-.229.594-1.295 2.705-.45 2.779 1.628.144 2.44-1.528 3.547-1.816.539-.14 1.081.436.587 1.049-1.713 2.122-2.724 2.731-5.149 3.878-.93.44-4.037 1.285-6.174-.435-1.521-1.222-1.801-3.58-1.373-5.193.424-1.616 7.691-18.586 7.514-19.6-.162-.964-.93-.753-1.609-.436z"/><path d="m388.486 103.724c.2-1.056-.336-1.281-.55-1.348-1.144-.372-3.52-.284-4.657-.328-2.864-.103-4.776.059-7.743.328-.779.067-1.443.513-1.532 1.074-.232 1.469 3.2 1.244 2.713 4.739-.203 1.465-1.107 2.672-2.41 3.192-2.395.956-5.074-.398-5.879-2.878-.893-2.742.62-5.237 2.986-6.843 2.015-1.365 4.668-1.775 6.528-1.83l42.368-.015c.388.019 1.233.687.941 1.598-.716 2.211-2.125 5.588-3.653 8.533-.288.553-1.624.93-1.835.365-.575-1.565.602-3.288-.424-4.89-2.347-3.654-8.141-2.864-11.732-2.878-.971-.004-1.919.745-2.119 1.155-2.55 5.174-4.576 10.374-6.894 15.629-.247.558-.502 1.591-.472 2.362.015.395.347 1.144.978 1.214 1.613.185 4.071.148 6.056-1.007 1.978-1.148 2.982-3.388 4.672-4.953.44-.413 1.381-.302 1.657.27.152.306.141.752.012 1.088-1.82 4.68-4.193 10.146-5.961 14.744-.417 1.078-1.642.354-1.86-.085-.756-1.52.347-3.436-.055-5.074-.646-2.628-3.831-2.362-5.92-2.074-1.557.217-2.484 1.535-3.115 2.875-1.815 3.849-6.853 14.33-6.879 16.404-.007.963.528 1.499 1.218 1.554 2.41.199 10.304.461 12.906-1.373 4.864-3.44 4.967-5.097 7.352-7.997.402-.488 1.288.051 1.649.527.247.318.222.757.096 1.089-.69 1.805-2.672 6.728-3.901 9.108-.332.643-.557.923-1.524 1.023l-39.319-.074c-1.24-.137-1.521-1.377-1.082-1.779.58-.531 1.362-.351 2.085-.435 1.587-.178 3.296-.1 4.831-.871 1.196-.595 3.112-2.624 3.912-4.027z"/><path d="m82.186 60.754h-18.713v-47.879c0-4.973 3.877-8.598 9.356-8.598h19.135c7.502.126 12.475 1.391 15.931 5.184 3.457 3.709 5.48 6.743 5.48 13.487 0 4.299-2.824 8.745-5.48 10.958-1.991 1.659-3.93 2.953-5.528 3.922-.318.19-.545.5-.63.86-.084.359-.02.738.178 1.05 2.943 4.617 14.241 21.016 14.241 21.016h-22.422l-8.385-15.89s-1.899-2.95-1.899-6.322c0-4.636 1.91-7.052 5.058-8.851 2.95-1.685 4.636-2.502 4.636-5.9 0-2.36-2.846-5.058-6.322-5.058-5.057 0-4.636 2.108-4.636 7.165z"/><path d="m154.51 4.277s-3.625-.843-8.008-.843c-11.633 0-17.027 3.372-22.844 8.345-5.816 4.973-9.188 11.885-9.188 20.736s3.372 15.763 9.188 20.736c5.817 4.974 13.319 7.503 22.844 7.503 4.805 0 8.429-.422 8.429-.422v-16.774l-6.912.421c-3.456 0-6.406-.927-9.019-2.782-2.529-1.938-4.215-4.804-4.215-8.682 0-7.249 5.985-12.307 13.234-12.307 2.168 0 6.491.422 6.491.422z"/><path d="m237.37 18.523h1.096c7.165 0 13.74 5.647 13.74 12.644 0 7.164-6.575 12.812-13.74 12.812h-1.096zm-19.556 33.633c0 4.973 3.962 8.598 9.357 8.598h15.257c7.67 0 15.088-2.782 20.736-8.346 5.647-5.563 8.429-12.222 8.429-19.893 0-7.67-2.782-14.33-8.429-19.893-5.648-5.563-13.066-8.345-20.736-8.345h-15.089c-5.732 0-9.525 3.793-9.525 8.598z"/><path d="m274.965 4.277h19.556v56.477h-19.556z"/><path d="m365.833 25.898h25.878v15.594h-25.878z"/><path d="m441.781 39.174c4.552-1.814 14.674-8.218 14.752-18.881.047-6.491-2.698-11.38-7.249-14.667-4.552-3.288-10.537-4.974-18.039-4.974-7.081 0-12.897 1.939-17.533 5.732-4.636 3.794-7.755 9.188-7.755 16.185v1.011h20.146v-1.011c0-3.288 1.433-6.069 4.72-6.069 2.36 0 3.793 1.77 3.793 3.877 0 2.192-.927 3.625-2.613 5.142-1.264 1.264-1.433 1.349-3.118 2.613l-1.518 1.096-17.786 13.234c-2.613 1.939-3.961 4.467-3.961 7.755 0 4.805 3.708 8.682 10.115 8.682h40.208v-15.426h-15.507c-.855.001-1.592-.602-1.76-1.441-.169-.838.278-1.679 1.067-2.009.721-.31 1.415-.6 2.038-.849z"/><path d="m486.39 44.653c-4.485 0-7.21-4.889-7.21-13.992 0-9.104 2.725-13.993 7.21-13.993 4.572 0 7.298 4.889 7.298 13.993 0 9.188-2.726 13.992-7.298 13.992zm0 16.101c8.353 0 14.86-2.698 19.696-8.177 4.837-5.479 7.211-12.728 7.211-21.916 0-9.104-2.374-16.353-7.211-21.832-4.836-5.479-11.343-8.177-19.696-8.177-8.266 0-14.86 2.698-19.697 8.177-4.836 5.479-7.21 12.728-7.21 21.832 0 9.188 2.374 16.437 7.21 21.916 4.837 5.479 11.431 8.177 19.697 8.177z"/><path d="m544.602 44.653c-4.485 0-7.21-4.889-7.21-13.992 0-9.104 2.725-13.993 7.21-13.993 4.572 0 7.298 4.889 7.298 13.993 0 9.188-2.726 13.992-7.298 13.992zm0 16.101c8.353 0 14.86-2.698 19.697-8.177 4.836-5.479 7.21-12.728 7.21-21.916 0-9.104-2.374-16.353-7.21-21.832-4.837-5.479-11.344-8.177-19.697-8.177-8.266 0-14.86 2.698-19.697 8.177-4.836 5.479-7.21 12.728-7.21 21.832 0 9.188 2.374 16.437 7.21 21.916 4.837 5.479 11.431 8.177 19.697 8.177z"/><path d="m600 13.971c0-7.671-4.215-11.548-12.728-11.548h-14.077v16.774h6.153c.843 0 1.265.506 1.265 1.601v38.101h19.387z"/></g><path d="m30.683 21.894-4.046 18.208h8.092zm-7.249 30.093-1.855 8.767h-21.579l16.269-46.868c.843-2.697 2.107-4.889 3.877-6.49 3.456-3.372 6.491-4.046 10.115-4.046.141 0 .282.001.422.004l.105-.002c.105-.001.211-.002.316-.002 3.625 0 6.659.674 10.115 4.046 1.771 1.601 3.035 3.793 3.878 6.49l16.269 46.868h-21.58l-1.854-8.767z"/><path d="m187.047 21.894-4.046 18.208h8.092zm-7.249 30.093-1.855 8.767h-21.579l16.269-46.868c.843-2.697 2.107-4.889 3.877-6.49 3.456-3.372 6.491-4.046 10.115-4.046.141 0 .282.001.422.004l.105-.002c.105-.001.211-.002.316-.002 3.625 0 6.66.674 10.116 4.046 1.77 1.601 3.034 3.793 3.877 6.49l16.269 46.868h-21.579l-1.855-8.767z"/><path d="m326.611 21.894-4.046 18.208h8.092zm-7.25 30.093-1.854 8.767h-21.579l16.268-46.868c.843-2.697 2.108-4.889 3.878-6.49 3.456-3.372 6.491-4.046 10.115-4.046.141 0 .282.001.422.004l.105-.002c.105-.001.21-.002.316-.002 3.625 0 6.659.674 10.115 4.046 1.77 1.601 3.035 3.793 3.878 6.49l16.268 46.868h-21.579l-1.854-8.767z"/><path d="m38.941 148.6 27.991-73.445h-38.113l-27.99 73.445z"/><path d="m92.482 148.6 27.99-73.445h-38.113l-27.99 73.445z"/><path d="m146.022 148.6 27.99-73.445h-38.112l-27.99 73.445z"/></g></svg>