<svg clip-rule="evenodd" fill-rule="evenodd" stroke-linejoin="round" stroke-miterlimit="2" viewBox="0 0 600 220" xmlns="http://www.w3.org/2000/svg"><g fill="#fff"><g fill-rule="nonzero"><path d="m137.812 97.186h-31.379v-80.284c0-8.34 6.502-14.417 15.69-14.417h32.085c12.58.212 20.919 2.332 26.714 8.692 5.795 6.219 9.188 11.308 9.188 22.616 0 7.208-4.734 14.663-9.188 18.374-3.339 2.783-6.59 4.952-9.271 6.576-.532.319-.912.839-1.055 1.442-.142.604-.034 1.239.299 1.762 4.934 7.741 23.879 35.239 23.879 35.239h-37.598l-14.061-26.644s-3.183-4.947-3.183-10.601c0-7.774 3.202-11.825 8.481-14.841 4.947-2.827 7.774-4.196 7.774-9.894 0-3.958-4.773-8.481-10.601-8.481-8.481 0-7.774 3.534-7.774 12.015z"/><path d="m259.086 2.485s-6.077-1.414-13.427-1.414c-19.506 0-28.552 5.654-38.305 13.993-9.753 8.34-15.407 19.93-15.407 34.771 0 14.842 5.654 26.432 15.407 34.771 9.753 8.34 22.332 12.58 38.305 12.58 8.056 0 14.134-.707 14.134-.707v-28.127l-11.59.706c-5.795 0-10.743-1.555-15.124-4.664-4.241-3.251-7.067-8.057-7.067-14.559 0-12.155 10.035-20.636 22.191-20.636 3.635 0 10.883.707 10.883.707v-27.421z"/><path d="m398.029 26.372h1.838c12.014 0 23.039 9.47 23.039 21.202 0 12.014-11.025 21.484-23.039 21.484h-1.838zm-32.792 56.397c0 8.339 6.643 14.417 15.689 14.417h25.584c12.862 0 25.301-4.664 34.771-13.993s14.134-20.495 14.134-33.358c0-12.862-4.664-24.028-14.134-33.357s-21.909-13.993-34.771-13.993h-25.301c-9.612 0-15.972 6.36-15.972 14.417z"/><path d="m461.069 2.485h32.792v94.702h-32.792z"/><path d="m334.694 183.41c7.633-3.042 24.605-13.781 24.736-31.661.08-10.884-4.523-19.082-12.156-24.594-7.632-5.513-17.668-8.34-30.248-8.34-11.873 0-21.626 3.251-29.4 9.612-7.774 6.36-13.003 15.406-13.003 27.138v1.696h33.781v-1.696c0-5.512 2.403-10.177 7.916-10.177 3.957 0 6.36 2.968 6.36 6.502 0 3.675-1.555 6.078-4.382 8.622-2.12 2.12-2.403 2.262-5.229 4.382l-2.545 1.837-29.824 22.192c-4.381 3.251-6.643 7.491-6.643 13.003 0 8.057 6.219 14.559 16.962 14.559h67.421v-25.866s-20.079 0-31.735 0c-.847 0-1.58-.593-1.756-1.422s.252-1.669 1.027-2.013c2.914-1.322 6.167-2.757 8.718-3.774z"/><path d="m409.495 192.598c-7.519 0-12.09-8.198-12.09-23.464 0-15.265 4.571-23.463 12.09-23.463 7.667 0 12.238 8.198 12.238 23.463 0 15.407-4.571 23.464-12.238 23.464zm0 26.997c14.008 0 24.919-4.524 33.028-13.711 8.11-9.187 12.091-21.343 12.091-36.75 0-15.265-3.981-27.421-12.091-36.608-8.109-9.188-19.02-13.711-33.028-13.711-13.86 0-24.918 4.523-33.027 13.711-8.11 9.187-12.091 21.343-12.091 36.608 0 15.407 3.981 27.563 12.091 36.75 8.109 9.187 19.167 13.711 33.027 13.711z"/><path d="m507.107 192.598c-7.52 0-12.091-8.198-12.091-23.464 0-15.265 4.571-23.463 12.091-23.463 7.667 0 12.238 8.198 12.238 23.463 0 15.407-4.571 23.464-12.238 23.464zm0 26.997c14.007 0 24.918-4.524 33.028-13.711 8.109-9.187 12.09-21.343 12.09-36.75 0-15.265-3.981-27.421-12.09-36.608-8.11-9.188-19.021-13.711-33.028-13.711-13.86 0-24.918 4.523-33.028 13.711-8.109 9.187-12.09 21.343-12.09 36.608 0 15.407 3.981 27.563 12.09 36.75 8.11 9.187 19.168 13.711 33.028 13.711z"/><path d="m600 141.148c0-12.863-7.067-19.365-21.343-19.365h-23.605v28.128h10.318c1.414 0 2.121.848 2.121 2.686v63.888h32.509z"/></g><path d="m51.45 32.026-6.785 30.53h13.569zm-12.156 50.46-3.11 14.7h-36.184l27.28-78.588c1.413-4.523 3.533-8.198 6.502-10.884 5.795-5.654 10.883-6.784 16.961-6.784.236 0 .472.002.707.007l.176-.003c.176-.003.353-.004.531-.004 6.077 0 11.166 1.13 16.961 6.784 2.968 2.686 5.088 6.361 6.502 10.884l27.28 78.588h-36.185l-3.11-14.7z"/><path d="m313.646 32.026-6.785 30.53h13.569zm-12.156 50.46-3.11 14.7h-36.184l27.28-78.588c1.413-4.523 3.533-8.198 6.502-10.884 5.795-5.654 10.883-6.784 16.961-6.784.236 0 .472.002.707.007l.176-.003c.176-.003.353-.004.53-.004 6.078 0 11.167 1.13 16.962 6.784 2.968 2.686 5.088 6.361 6.502 10.884l27.28 78.588h-36.185l-3.11-14.7z"/><path d="m547.67 32.026-6.784 30.53h13.569zm-12.155 50.46-3.11 14.7h-36.185l27.28-78.588c1.414-4.523 3.534-8.198 6.502-10.884 5.795-5.654 10.884-6.784 16.962-6.784.236 0 .471.002.706.007l.177-.003c.176-.003.353-.004.53-.004 6.078 0 11.166 1.13 16.961 6.784 2.969 2.686 5.089 6.361 6.502 10.884l27.28 78.588h-36.184l-3.11-14.7z"/><path d="m50.683 216.485 37.222-97.67h-50.683l-37.222 97.67z"/><path d="m121.882 216.485 37.222-97.67h-50.683l-37.222 97.67z"/><path d="m193.082 216.485 37.222-97.67h-50.683l-37.222 97.67z"/></g></svg>