<svg clip-rule="evenodd" fill-rule="evenodd" stroke-linejoin="round" stroke-miterlimit="2" viewBox="0 0 600 287" xmlns="http://www.w3.org/2000/svg"><g fill="#fff"><path d="m65.781 51.451c.22 0 .399-.176.399-.395v-47.402c0-.219-.179-.399-.399-.399h-48.617c-.219 0-.396.18-.396.399v47.402c0 .219.177.395.396.395zm-24.197-1.964c12.223 0 22.133-9.909 22.133-22.132s-9.91-22.132-22.133-22.132-22.132 9.909-22.132 22.132 9.909 22.132 22.132 22.132z"/><path d="m44.325 32.812c2.144 0 3.881-1.738 3.881-3.878s-1.737-3.877-3.881-3.877c-2.14 0-3.874 1.737-3.874 3.877s1.734 3.878 3.874 3.878z"/><path d="m39.228 18.312c.809-.489 1.493-1.241 1.155-2.133-1.025-2.69-1.464-6.277.942-8.417.475-.421 1.083-.705 1.604-.298 2.9 2.273 1.867 6.158.292 9.057-.529.971.061 4.072 1.568 4.273 4.273.579 7.115 2.741 7.96 6.468 1.123 4.942-2.633 9.416-7.453 9.952-.777 2.306.191 4.831-.939 7.065-.985 1.957-2.967 3.629-5.262 3.503-1.611-.086-3.072-1.913-2.421-3.582.446-1.144 1.601-1.633 2.748-1.63 1.238.004 2.133.839 2.864 1.892.273.393.589-.262.611-.496.115-1.216.299-4.798-.04-5.975-2.359.105-4.007.565-6.406-.377-4.323-1.702-7.665-6.558-5.867-11.093 1.526-3.842 5.087-6.058 8.644-8.209zm.396 3.799c.784-.457 1.838-.464 2.262-1.231.331-.6-.521-2.223-1.011-1.953-3.111 1.723-6.021 4.173-7.262 7.565-1.32 3.6.187 7.424 3.302 9.672 1.115.802 3.119 1.385 4.281.72-1.946-1.152-3.677-2.551-4.619-4.669-1.572-3.54-.539-8.015 3.047-10.104zm4.701 13.05c3.442 0 6.23-2.788 6.23-6.227s-2.788-6.23-6.23-6.23c-3.439 0-6.226 2.791-6.226 6.23s2.787 6.227 6.226 6.227zm-2.245-19.662c.659-.809 1.116-2.43 1.188-3.846.072-1.417-.241-2.63-1.126-2.625-1.569.011-1.45 4.824-.062 6.471z"/><g fill-rule="nonzero"><path d="m160.117 37.233c-.429 1.616-.144 3.979 1.376 5.203 2.138 1.723 5.629.832 6.561.377 2.426-1.172 3.579-2.085 5.177-4.312.314-.44-.255-.991-.958-.824-1.483.358-1.893 1.971-3.446 2.248-.304.056-.659-.174-.592-.577.129-.773.762-1.986.913-2.374 0 0 4.379-10.31 6.838-15.772.695-1.55 1.143-3.432.359-5.034 0 0-.651-2.381-4.993-2.514-4.559-.141-8.498 3.568-11.061 6.471-.34.485-.543.426-.673.097.07-4.042-.725-5.636-3.28-6.298-5.229-1.354-8.838 1.915-11.401 4.818-.344.485-.54.426-.67.097-.299-3.909-1.061-4.043-2.004-4.653-3.961-2.562-11.904 2.448-13.942 5.725-.74 1.187.215 2.707 1.38 1.745 1.508-1.235 2.451-2.714 3.986-2.658.366.014.914.203.854.883-.029.344-8.653 21.79-8.653 21.79-.119.595.055.854.884 1.02l6.519-.055c.455 0 .895-.433 1.058-.755 0 0 7.47-15.631 8.428-17.122 1.705-2.655 3.129-4.878 6.572-7.174.713-.477 2.137-.207 1.882.825-.88 3.568-9.434 23.25-9.434 23.25-.177.562-.107.891.61 1.002l7.2.003c.4 0 .855-.229.999-.732 0 0 5.75-12.995 8.872-17.595 2.718-3.998 4.582-5.629 6.231-6.831.958-.699 2.237-.643 2.197.54-.074 2.127-7.36 17.566-7.789 19.186z"/><path d="m194.292 15.299c1.546-.869 2.352-.425 2.825.156.429.532.377 1.753.281 2.267-.506 2.781-1.627 4.493-3.332 6.749-1.631 2.174-3.365 3.883-5.787 4.859-.677.27-2.079.621-2.071-.355.033-2.637 6.697-12.892 8.084-13.676zm-7.777 16.431c5.377-.166 16.238-4.678 16.412-12.969.096-4.645-5.95-6.538-10.303-5.104-9.678 3.196-13.376 9.619-14.881 13.136-1.927 4.508-2.145 10.458 2.263 13.765 3.021 2.27 6.875 2.348 10.199.713 2.556-1.253 5.104-3.472 6.431-5.366.17-.236.562-.754.492-1.083-.074-.374-.802-.744-1.157-.329-2.031 2.352-5.133 4.774-6.198 5.188-1.572.607-3.543 1.209-5.148.211-.555-.34-1.287-1.45-1.232-2.526.052-1.191.278-3.021.81-4.12.577-1.19 1.435-1.49 2.312-1.516z"/><path d="m211.07 18.661c.141-.913-.54-1.257-.947-1.143-1.128.318-2.488 1.79-3.502 2.389-.658.385-1.549-.211-.995-.943 1.883-2.496 7.482-5.647 10.825-5.177 3.302.458 2.729 3.646 2.792 4.933.022.429.562.289.725.1 2.089-2.522 4.168-5.103 7.581-4.771 1.143.115 3.084.881 2.995 3.026-.096 2.437-1.423 5.621-4.393 6.127-2.067.355-3.761-.898-3.805-3.435 0-.196-.363-.352-.836-.019-1.498 1.051-2.127 2.5-2.363 2.792-1.143 1.398-9.308 18.739-9.308 18.739-.307.817-.507.902-1.077.961l-6.608-.015c-.74.015-1.169-.499-.755-1.545z"/><path d="m232.874 24.952c-2.108-4.919 1.779-9.671 5.936-11.176 4.337-1.568 10.214-1.894 13.032 1.253 2.174 2.434.299 6.08-2.386 6.624-1.671.34-3.583-.067-4.467-1.701-.858-1.587-.68-3.661.141-4.346.137-.107.455-.336.418-.599-.03-.225-.418-.351-.796-.37-.273-.014-4.141.049-4.334 3.307-.203 3.435 2.619 5.979 5.026 8.709 3.772 4.282 2.334 10.706-2.537 13.646-3.232 1.941-6.73 2.681-10.288 2.418-3.743-.273-8.003-2.056-8.783-6.261-.392-2.13.392-4.338 2.282-5.403 2.366-1.331 6.113-.606 6.778 2.408.588 2.662-1.12 4.622-3.206 5.61-.806.373-.499.806.056 1.065 2.03.961 4.674.906 6.641.07 2.556-1.094 3.928-4.855 2.881-6.893-1.66-3.24-4.589-4.16-6.394-8.361z"/><path d="m263.08 38.738c-3.75 2.91-5.033.255-5.306-.74-1.62-5.831 8.627-21.719 11.297-22.95 1.402-.647 4.009-.976 4.198 2.3.173 2.936-6.298 18.369-10.189 21.39zm16.808-19.238c-1.642-5.443-6.963-6.945-10.891-6.682-6.471.433-12.166 4.216-15.406 10-2.781 4.959-2.629 11.678-.063 15.025 4.878 6.35 10.728 4.438 13.617 3.236 8.579-3.572 15.099-13.794 12.743-21.579z"/><path d="m304.2 17.156c-2.515 1.168-4.93 4.715-6.627 7.378-1.295 2.019-8.432 17.122-8.432 17.122-.163.318-.603.754-1.058.754l-6.516.052c-.828-.166-.998-.425-.884-1.021 0 0 8.624-21.445 8.654-21.789.059-.68-.488-.865-.854-.88-1.535-.059-2.482 1.42-3.987 2.659-1.165.958-2.119-.559-1.379-1.746 2.034-3.276 9.981-8.287 13.938-5.728.943.61 1.708.743 2.008 4.652.089.23.348.344.669-.096 2.182-2.981 6.997-5.074 10.152-4.889 2.448.148 4.075 1.598 4.626 2.544.799 1.38.336 3.484-.359 5.034-2.459 5.462-6.838 15.768-6.838 15.768-.229.596-1.298 2.711-.451 2.785 1.631.144 2.445-1.531 3.554-1.819.54-.141 1.084.436.588 1.05-1.716 2.126-2.729 2.736-5.159 3.887-.932.44-4.045 1.286-6.187-.437-1.523-1.224-1.804-3.587-1.375-5.203.425-1.62 7.707-18.624 7.529-19.641-.163-.965-.932-.754-1.612-.436z"/><path d="m104.084 4.542c.199-1.058-.337-1.284-.551-1.35-1.147-.374-3.528-.285-4.667-.329-2.87-.104-4.786.059-7.759.329-.78.066-1.446.514-1.535 1.076-.233 1.472 3.207 1.246 2.718 4.748-.203 1.468-1.109 2.678-2.414 3.199-2.401.958-5.085-.399-5.892-2.884-.894-2.748.622-5.248 2.992-6.857 2.019-1.368 4.678-1.778 6.542-1.834l42.455-.015c.388.019 1.235.688.943 1.602-.718 2.215-2.131 5.599-3.662 8.55-.288.554-1.627.932-1.838.366-.576-1.568.603-3.295-.425-4.9-2.352-3.661-8.158-2.87-11.756-2.885-.973-.003-1.923.747-2.123 1.158-2.555 5.184-4.586 10.395-6.908 15.661-.248.559-.503 1.594-.473 2.367.015.396.347 1.146.98 1.217 1.616.185 4.079.148 6.068-1.01 1.982-1.15 2.988-3.395 4.682-4.963.44-.414 1.383-.303 1.661.27.151.307.14.755.011 1.091-1.824 4.689-4.201 10.166-5.973 14.774-.418 1.08-1.645.355-1.864-.085-.758-1.524.348-3.443-.055-5.085-.647-2.633-3.839-2.367-5.932-2.078-1.56.218-2.489 1.538-3.121 2.881-1.82 3.857-6.867 14.359-6.893 16.438-.008.965.528 1.501 1.22 1.557 2.415.199 10.325.462 12.932-1.376 4.874-3.447 4.978-5.107 7.367-8.014.403-.488 1.291.052 1.653.529.248.318.222.758.096 1.091-.691 1.808-2.677 6.742-3.909 9.127-.333.643-.558.924-1.527 1.024l-39.4-.074c-1.242-.137-1.523-1.379-1.083-1.782.58-.533 1.364-.352 2.089-.437 1.59-.177 3.303-.099 4.841-.872 1.198-.596 3.117-2.63 3.92-4.035l16.59-38.19z"/><path d="m137.812 164.434h-31.379v-80.285c0-8.339 6.502-14.417 15.69-14.417h32.085c12.58.212 20.919 2.332 26.714 8.693 5.795 6.219 9.188 11.308 9.188 22.615 0 7.209-4.734 14.664-9.188 18.375-3.339 2.783-6.59 4.952-9.271 6.576-.532.318-.912.839-1.055 1.442-.142.603-.034 1.239.299 1.761 4.934 7.742 23.879 35.24 23.879 35.24h-37.598l-14.061-26.644s-3.183-4.947-3.183-10.601c0-7.774 3.202-11.825 8.481-14.841 4.947-2.827 7.774-4.197 7.774-9.894 0-3.958-4.773-8.481-10.601-8.481-8.481 0-7.774 3.534-7.774 12.014z"/><path d="m259.086 69.732s-6.077-1.413-13.427-1.413c-19.506 0-28.552 5.654-38.305 13.993s-15.407 19.93-15.407 34.771 5.654 26.432 15.407 34.771 22.332 12.58 38.305 12.58c8.056 0 14.134-.707 14.134-.707v-28.128l-11.59.707c-5.795 0-10.743-1.555-15.124-4.664-4.241-3.251-7.067-8.057-7.067-14.559 0-12.156 10.035-20.637 22.191-20.637 3.635 0 10.883.707 10.883.707z"/><path d="m398.029 93.62h1.838c12.014 0 23.039 9.47 23.039 21.201 0 12.015-11.025 21.485-23.039 21.485h-1.838zm-32.792 56.396c0 8.34 6.643 14.418 15.689 14.418h25.584c12.862 0 25.301-4.665 34.771-13.994 9.47-9.328 14.134-20.495 14.134-33.357 0-12.863-4.664-24.029-14.134-33.358-9.47-9.328-21.909-13.993-34.771-13.993h-25.301c-9.612 0-15.972 6.361-15.972 14.417z"/><path d="m461.069 69.732h32.792v94.702h-32.792z"/><path d="m334.694 250.658c7.633-3.042 24.605-13.781 24.736-31.662.08-10.883-4.523-19.081-12.156-24.594-7.632-5.512-17.668-8.339-30.248-8.339-11.873 0-21.626 3.251-29.4 9.611-7.774 6.361-13.003 15.407-13.003 27.139v1.696h33.781v-1.696c0-5.513 2.403-10.177 7.916-10.177 3.957 0 6.36 2.968 6.36 6.502 0 3.675-1.555 6.078-4.382 8.622-2.12 2.12-2.403 2.261-5.229 4.381l-2.545 1.838-29.824 22.191c-4.381 3.251-6.643 7.492-6.643 13.004 0 8.057 6.219 14.559 16.962 14.559h67.421v-25.867h-31.735c-.847.001-1.58-.592-1.756-1.421-.176-.83.252-1.669 1.027-2.013 2.914-1.322 6.167-2.757 8.718-3.774z"/><path d="m409.495 259.845c-7.519 0-12.09-8.198-12.09-23.463s4.571-23.464 12.09-23.464c7.667 0 12.238 8.199 12.238 23.464 0 15.407-4.571 23.463-12.238 23.463zm0 26.997c14.008 0 24.919-4.523 33.028-13.71 8.11-9.188 12.091-21.343 12.091-36.75 0-15.265-3.981-27.421-12.091-36.609-8.109-9.187-19.02-13.71-33.028-13.71-13.86 0-24.918 4.523-33.027 13.71-8.11 9.188-12.091 21.344-12.091 36.609 0 15.407 3.981 27.562 12.091 36.75 8.109 9.187 19.167 13.71 33.027 13.71z"/><path d="m507.107 259.845c-7.52 0-12.091-8.198-12.091-23.463s4.571-23.464 12.091-23.464c7.667 0 12.238 8.199 12.238 23.464 0 15.407-4.571 23.463-12.238 23.463zm0 26.997c14.007 0 24.918-4.523 33.028-13.71 8.109-9.188 12.09-21.343 12.09-36.75 0-15.265-3.981-27.421-12.09-36.609-8.11-9.187-19.021-13.71-33.028-13.71-13.86 0-24.918 4.523-33.028 13.71-8.109 9.188-12.09 21.344-12.09 36.609 0 15.407 3.981 27.562 12.09 36.75 8.11 9.187 19.168 13.71 33.028 13.71z"/><path d="m600 208.395c0-12.862-7.067-19.364-21.343-19.364h-23.605v28.128h10.318c1.414 0 2.121.848 2.121 2.685v63.889h32.509z"/></g><path d="m51.45 99.273-6.785 30.531h13.569zm-12.156 50.461-3.11 14.7h-36.184l27.28-78.588c1.413-4.523 3.533-8.198 6.502-10.884 5.795-5.654 10.883-6.785 16.961-6.785.236 0 .472.003.707.008l.176-.003c.176-.003.353-.005.531-.005 6.077 0 11.166 1.131 16.961 6.785 2.968 2.686 5.088 6.361 6.502 10.884l27.28 78.588h-36.185l-3.11-14.7z"/><path d="m313.646 99.273-6.785 30.531h13.569zm-12.156 50.461-3.11 14.7h-36.184l27.28-78.588c1.413-4.523 3.533-8.198 6.502-10.884 5.795-5.654 10.883-6.785 16.961-6.785.236 0 .472.003.707.008l.176-.003c.176-.003.353-.005.53-.005 6.078 0 11.167 1.131 16.962 6.785 2.968 2.686 5.088 6.361 6.502 10.884l27.28 78.588h-36.185l-3.11-14.7z"/><path d="m547.67 99.273-6.784 30.531h13.569zm-12.155 50.461-3.11 14.7h-36.185l27.28-78.588c1.414-4.523 3.534-8.198 6.502-10.884 5.795-5.654 10.884-6.785 16.962-6.785.236 0 .471.003.706.008l.177-.003c.176-.003.353-.005.53-.005 6.078 0 11.166 1.131 16.961 6.785 2.969 2.686 5.089 6.361 6.502 10.884l27.28 78.588h-36.184l-3.11-14.7z"/><path d="m50.683 283.733 37.222-97.67h-50.683l-37.222 97.67z"/><path d="m121.882 283.733 37.222-97.67h-50.683l-37.222 97.67z"/><path d="m193.082 283.733 37.222-97.67h-50.683l-37.222 97.67z"/></g></svg>