<svg clip-rule="evenodd" fill-rule="evenodd" stroke-linejoin="round" stroke-miterlimit="2" viewBox="0 0 600 214" xmlns="http://www.w3.org/2000/svg"><g fill="#fff" fill-rule="nonzero"><path d="m185.491.48h-134.99c.848 2.839 2.858 5.346 2.112 8.641-16.592 44.167-50.764 101.704-52.613 128.461.199 12.063 7.905 17.346 19.298 19.298h88.233c7.27.455 12.756-3.196 15.061-8.695l11.226-27.499c-1.864 1.653-5.691 2.071-8.621 2.303h-77.576c.277-12.236 8.381-26.139 14.977-27.459h74.312c13.288-.392 17.071-18.308 22.466-29.379.99-6.732-5.167-5.268-8.832-5.521l-72.392-.048c-5.144.046-3.817-1.464-2.536-4.393l9.379-17.973c2.552-4.381 5.629-2.11 9.934-2.662h69.44c16.696-5.693 19.397-23.634 21.122-35.074z"/><path d="m197.924 1.103c2.713 2.366 5.222 4.739 4.033 7.46l-82.53 191.002c-1.809 4.357-1.745 7.085-.336 9.947 1.705 2.768 4.602 3.763 7.661 3.965h36.964c-2.318-3.198-4.275-6.344-3.024-9.006l20.363-45.096h66.132c14.805-1.622 25.608-14.093 32.73-25.673 7.558-14.019 13.679-26.96 19.826-39.921 6.02-15.444 12.244-30.386 16.869-49.666 5.949-27.536-15.608-42.78-31.386-43.012h-87.302zm39.384 35.821h26.076c8.424.205 11.479 7.105 8.804 15.323-6.561 16.023-11.134 33.301-19.692 48.053-5.934 10.197-12.458 22.062-25.673 22.313h-23.589c-7.187.424-6.49-2.992-5.041-6.653l33.402-75.675c1.284-2.622 3.347-3.352 5.713-3.361z"/><path d="m315.2 0c1.891 4.039 3.912 8.035 5.067 12.318l17.092 83.02c.455 2.824.831 6.435-.135 7.585l-39.662 45.7c-3.937 4.897-1.611 11.052 2.853 10.657h52.901c-2.02-2.437-6.369-5.979-4.36-9.406l111.412-126.544 20.066 45.413c1.002 1.886 1.339 4.987 0 6.625l-71.24 74.023c-3.155 3.424-1.576 11.632 2.771 11.632l55.315-.339c-4.928-2.441-4.274-9.192-2.871-11.27l32.442-33.338 20.003 41.064c2.035 2.956 6.135 4.316 12.152 4.195l32.364-.038-31.107-73.928c-.975-2.065-1.193-4.068 0-5.953l68.743-72.199c3.269-5.497-2.014-8.737-8.737-8.737h-48.485c3.677 2.246 5.38 8.46 3.478 11.443l-26.619 26.279c-2.461 2.306-4.797 3.399-6.718.49l-14.786-33.315c-2.978-4.936-7.337-5.581-12.001-5.281h-69.703c2.234 3.812 3.629 6.913.749 10.369l-43.877 51.241-11.022-51.625c-.595-7.819-7.603-10.119-15.553-9.889l-30.531-.192h-.001z"/></g></svg>