<?xml version="1.0" encoding="UTF-8" standalone="no"?><!DOCTYPE svg PUBLIC "-//W3C//DTD SVG 1.1//EN" "http://www.w3.org/Graphics/SVG/1.1/DTD/svg11.dtd"><svg width="100%" height="100%" viewBox="0 0 600 111" version="1.1" xmlns="http://www.w3.org/2000/svg" xmlns:xlink="http://www.w3.org/1999/xlink" xml:space="preserve" xmlns:serif="http://www.serif.com/" style="fill-rule:evenodd;clip-rule:evenodd;stroke-linejoin:round;stroke-miterlimit:2;"><g id="fairchild_channelf_alt3"><path d="M135.923,90.617l0,-74.948l-19.871,-0l0,31.146l-24.061,-0l-0,-31.146l-19.22,-0l0,79.041l19.22,0l-0,-29.986l24.061,0l0,29.98l18.327,-0" style="fill:#fff;fill-rule:nonzero;"/><path d="M40.231,14.783c-22.157,0.28 -40.231,18.584 -40.231,40.742c-0,22.158 18.074,40.463 40.231,40.743c13.086,-0.313 23.651,-5.533 30.214,-13.602l-14.358,-14.031c-3.702,5.507 -10.766,7.586 -15.707,7.657c-11.036,0 -20.118,-9.082 -20.118,-20.118c-0,-11.037 9.082,-20.119 20.118,-20.119c6.27,0.287 9.692,1.616 13.921,5.872l0.17,-0.15l0.137,0.13l15.55,-13.992c-8.075,-8.349 -18.796,-13.035 -29.927,-13.132Z" style="fill:#fff;fill-rule:nonzero;"/><path d="M208.271,15.675l0,79.035l19.22,0l-0,-41.104l28.48,41.072l0,0.032l17.212,0l0,-79.041l-19.864,-0l-0,42.31l-29.915,-42.31l-0.084,0.091l-0.02,-0.091l-15.029,0.006Z" style="fill:#fff;fill-rule:nonzero;"/><path d="M351.573,15.675l-0,79.035l45.412,0l-0,-18.476l-24.896,-0l0,-10.786l23.742,-0l0,-20.51l-23.735,-0l-0,-10.793l24.895,0l0,-18.47l-45.418,0Z" style="fill:#fff;fill-rule:nonzero;"/><path d="M402.844,15.675l-0,79.035l41.951,0l0,-18.476l-22.738,-0l-0,-60.559l-19.213,0Z" style="fill:#fff;fill-rule:nonzero;"/><path d="M280.613,15.675l-0,79.035l19.219,0l0,-41.104l28.481,41.072l-0,0.032l17.212,0l-0,-79.041l-19.865,-0l0,42.31l-29.914,-42.31l-0.085,0.091l-0.019,-0.091l-15.029,0.006Z" style="fill:#fff;fill-rule:nonzero;"/><path d="M171.292,15.675l-41.547,79.035l20.412,0l15.615,-30.24l17.832,0l-0,30.24l17.14,0l-0,-79.041l-29.452,0.006Zm4.478,29.654l7.794,-13.582l0.04,13.582l-7.834,-0Z" style="fill:#fff;fill-rule:nonzero;"/><path d="M503.294,12.958l0,85.115l21.898,0l0,-32.332l27.549,-0l-0,-19.865l-27.549,0l0,-13.49l27.549,-0l-0,-19.428l-49.447,-0Z" style="fill:#fff;fill-rule:nonzero;"/><path d="M527.926,0.962c-13.603,-0.097 -35.7,1.342 -49.806,4.039c-6.566,1.256 -11.483,2.923 -13.451,4.659c-0.019,0.017 -0.037,0.034 -0.056,0.051c-3.02,2.841 -5.192,8.504 -6.552,15.382c-1.888,9.55 -2.411,21.495 -2.614,30.414c-0.242,10.475 1.667,27.006 4.84,37.383c1.532,5.009 3.524,8.644 5.504,10.048c2.266,1.676 7.101,3.138 13.393,4.208c13.682,2.327 34.604,3.245 48.706,3.36c14.118,0.115 34.632,-1.447 48.124,-3.797c6.1,-1.062 10.822,-2.341 13.086,-3.635c0.001,-0 0.001,-0.001 0.002,-0.001c2.293,-1.313 4.454,-4.922 6.031,-9.999c3.192,-10.278 4.755,-26.833 4.862,-37.489c0.107,-10.651 -1.506,-25.723 -4.163,-35.738c-1.241,-4.673 -2.78,-8.297 -4.384,-10.135c-0.696,-0.799 -1.984,-1.637 -3.841,-2.352c-2.181,-0.839 -5.277,-1.615 -8.986,-2.301c-13.856,-2.565 -36.572,-4.001 -50.694,-4.097c-0,-0 -0.001,-0 -0.001,-0l0,-0Zm-0.016,4.779c-0.005,-0 -0.011,-0 -0.016,-0c13.888,0.095 36.23,1.495 49.857,4.017c3.357,0.621 6.165,1.303 8.139,2.062c0.913,0.352 1.615,0.642 1.957,1.034c0,-0 0,-0 0,0c1.29,1.478 2.368,4.46 3.365,8.219c2.563,9.658 4.107,24.193 4.004,34.464c-0.103,10.266 -1.573,26.218 -4.648,36.119c-0.616,1.984 -1.291,3.711 -2.045,5.067c-0.567,1.019 -1.122,1.816 -1.796,2.202c-1.99,1.138 -6.172,2.142 -11.533,3.076c-13.251,2.307 -33.399,3.839 -47.265,3.726c-13.881,-0.114 -34.476,-1.002 -47.944,-3.292c-5.318,-0.905 -9.464,-1.929 -11.366,-3.35c-0.021,-0.016 -0.042,-0.031 -0.064,-0.046c-0.462,-0.322 -0.868,-0.895 -1.292,-1.616c-0.873,-1.483 -1.67,-3.526 -2.405,-5.93c-3.045,-9.958 -4.865,-25.824 -4.632,-35.877c-0,-0 -0,-0 -0,-0.001c0.196,-8.678 0.686,-20.303 2.524,-29.595c1.119,-5.661 2.629,-10.441 5.107,-12.799c1.643,-1.42 5.778,-2.496 11.16,-3.525c13.842,-2.647 35.527,-4.05 48.876,-3.955l0.017,-0Z" style="fill:#fff;"/></g></svg>