<svg clip-rule="evenodd" fill-rule="evenodd" stroke-linejoin="round" stroke-miterlimit="2" viewBox="0 0 600 111" xmlns="http://www.w3.org/2000/svg"><g fill="#fff"><g fill-rule="nonzero"><path d="m135.923 90.485v-74.949h-19.871v31.146h-24.061v-31.146h-19.22v79.042h19.22v-29.986h24.061v29.979h18.327"/><path d="m40.231 14.65c-22.157.28-40.231 18.585-40.231 40.743s18.074 40.462 40.231 40.742c13.086-.313 23.651-5.533 30.214-13.601l-14.358-14.032c-3.702 5.507-10.766 7.586-15.707 7.658-11.036 0-20.118-9.082-20.118-20.119s9.082-20.119 20.118-20.119c6.27.287 9.692 1.617 13.921 5.872l.17-.15.137.131 15.55-13.993c-8.075-8.348-18.796-13.034-29.927-13.132z"/><path d="m208.271 15.543v79.035h19.22v-41.105l28.48 41.072v.033h17.212v-79.042h-19.864v42.31l-29.915-42.31-.084.092-.02-.092-15.029.007z"/><path d="m351.573 15.543v79.035h45.412v-18.477h-24.896v-10.786h23.742v-20.51h-23.735v-10.792h24.895v-18.47z"/><path d="m402.844 15.543v79.035h41.951v-18.477h-22.738v-60.558z"/><path d="m280.613 15.543v79.035h19.219v-41.105l28.481 41.072v.033h17.212v-79.042h-19.865v42.31l-29.914-42.31-.085.092-.019-.092-15.029.007z"/><path d="m171.292 15.543-41.547 79.035h20.412l15.615-30.24h17.832v30.24h17.14v-79.042zm4.478 29.653 7.794-13.582.04 13.582z"/></g><path d="m527.926.829c-13.603-.097-35.7 1.343-49.806 4.04-6.566 1.255-11.483 2.923-13.451 4.659-.019.017-.037.034-.056.051-3.02 2.84-5.192 8.504-6.552 15.382-1.888 9.549-2.411 21.495-2.614 30.413-.242 10.475 1.667 27.007 4.84 37.384 1.532 5.008 3.524 8.643 5.504 10.047 2.266 1.676 7.101 3.139 13.393 4.209 13.682 2.327 34.604 3.244 48.706 3.359 14.118.115 34.632-1.447 48.124-3.796 6.1-1.063 10.822-2.341 13.086-3.636h.002c2.293-1.314 4.454-4.923 6.031-10 3.192-10.278 4.755-26.832 4.862-37.489.107-10.65-1.506-25.723-4.163-35.738-1.241-4.673-2.78-8.297-4.384-10.135-.696-.798-1.984-1.637-3.841-2.352-2.181-.839-5.277-1.614-8.986-2.301-13.856-2.565-36.572-4-50.694-4.097h-.001zm-24.632 11.996v85.115h21.898v-32.332h27.549v-19.864h-27.549v-13.491h27.549v-19.428z"/></g></svg>