<?xml version="1.0" encoding="UTF-8" standalone="no"?><!DOCTYPE svg PUBLIC "-//W3C//DTD SVG 1.1//EN" "http://www.w3.org/Graphics/SVG/1.1/DTD/svg11.dtd"><svg width="100%" height="100%" viewBox="0 0 600 174" version="1.1" xmlns="http://www.w3.org/2000/svg" xmlns:xlink="http://www.w3.org/1999/xlink" xml:space="preserve" xmlns:serif="http://www.serif.com/" style="fill-rule:evenodd;clip-rule:evenodd;stroke-linejoin:round;stroke-miterlimit:2;"><g id="fairchild_channelf_alt"><g><path id="path2431" d="M200.726,1.102l-0,13.345l-200.726,-0l-0,-13.454l200.726,0.109" style="fill:#fff;fill-rule:nonzero;"/><path id="path2491" d="M4.406,30.668l-0,4.752l-4.34,-0l0.012,-15.949l20.367,0l-0,4.261l-15.915,-0l-0.013,3.277l15.36,-0l-0,3.768l-15.471,-0.109" style="fill:#fff;fill-rule:nonzero;"/><rect id="path2495" x="54.029" y="19.49" width="4.537" height="15.893" style="fill:#fff;fill-rule:nonzero;"/><path id="path2499" d="M117.799,19.49l-0.018,15.875l4.679,-0l0.018,-5.771l12.762,-0l0,5.789l4.679,0l0.036,-15.893l-4.697,-0l-0.018,6.099l-12.762,-0l0,-6.099l-4.679,-0" style="fill:#fff;fill-rule:nonzero;"/><path id="path2503" d="M153.901,19.471l-0,15.894l20.518,-0l-0,-4.242l-16.149,0l0,-11.652l-4.369,0" style="fill:#fff;fill-rule:nonzero;"/><path id="path2507" d="M41.168,19.49l-10.574,-0l-9.253,15.911l4.897,0l3.022,-4.678l13.164,-0l2.768,4.678l5.454,0l-9.478,-15.911Zm-10.04,7.355l2.114,-3.314l5.676,0l1.782,3.314l-9.572,-0" style="fill:#fff;fill-rule:nonzero;"/><path id="path2511" d="M81.408,30.886c0.209,0 -0.2,0.019 0,0" style="fill:#fff;fill-rule:nonzero;"/><path id="path2515" d="M82.114,30.941c2.078,-0.291 3.898,-1.984 3.898,-4.151l0,-2.567c0,-2.385 -2.385,-4.697 -4.75,-4.697l-17.794,0l0,15.857l4.229,0l0,-4.588l8.794,0l4.118,4.588l5.676,0l-4.171,-4.442Zm-2.191,-3.75l-12.238,-0l-0,-3.514l12.25,-0c1.007,-0 1.823,0.819 1.823,1.821c-0,1.019 -0.81,1.838 -1.835,1.693" style="fill:#fff;fill-rule:nonzero;"/><path id="path2519" d="M113.83,25.789l-4.46,-0c-0.273,-1.056 -1.311,-1.875 -2.458,-1.875l-9.485,-0c-1.365,-0 -2.476,1.11 -2.476,2.457l0,2.24c0,1.347 1.111,2.457 2.476,2.457l9.485,0c1.257,0 2.312,-0.946 2.458,-2.148l4.333,0c0,3.914 -2.694,6.463 -6.117,6.463l-11.397,0c-3.422,0 -6.19,-2.749 -6.19,-6.117l0,-3.677c0,-3.368 2.768,-6.118 6.19,-6.118l11.397,0c3.423,0 6.244,2.932 6.244,6.318" style="fill:#fff;fill-rule:nonzero;"/><rect id="path2523" x="144.871" y="19.508" width="4.533" height="15.857" style="fill:#fff;fill-rule:nonzero;"/><path id="path2527" d="M195.628,19.49l-17.805,-0l0,15.839l17.914,-0c0,-0 4.916,-0.984 4.934,-8.138c0.018,-6.718 -4.369,-7.592 -5.043,-7.701Zm-1.274,11.651l-12.198,-0.036l-0.018,-7.446l12.234,-0c1.092,0.2 2.44,0.4 2.476,3.586c0.018,3.823 -2.494,3.896 -2.494,3.896" style="fill:#fff;fill-rule:nonzero;"/><path id="path2531" d="M200.744,40.189l-0,13.345l-200.733,0l-0,-13.454l200.733,0.109" style="fill:#fff;fill-rule:nonzero;"/></g><g><path d="M135.923,153.642l0,-74.948l-19.871,-0l0,31.146l-24.061,-0l-0,-31.146l-19.22,-0l0,79.041l19.22,0l-0,-29.986l24.061,0l0,29.98l18.327,-0" style="fill:#fff;fill-rule:nonzero;"/><path d="M40.231,77.808c-22.157,0.28 -40.231,18.584 -40.231,40.742c-0,22.158 18.074,40.462 40.231,40.743c13.086,-0.313 23.651,-5.533 30.214,-13.602l-14.358,-14.031c-3.702,5.507 -10.766,7.586 -15.707,7.657c-11.036,0 -20.118,-9.082 -20.118,-20.118c-0,-11.037 9.082,-20.119 20.118,-20.119c6.27,0.287 9.692,1.616 13.921,5.872l0.17,-0.15l0.137,0.13l15.55,-13.992c-8.075,-8.349 -18.796,-13.035 -29.927,-13.132Z" style="fill:#fff;fill-rule:nonzero;"/><path d="M208.271,78.7l0,79.035l19.22,0l-0,-41.104l28.48,41.071l0,0.033l17.212,0l0,-79.041l-19.864,-0l-0,42.31l-29.915,-42.31l-0.084,0.091l-0.02,-0.091l-15.029,0.006Z" style="fill:#fff;fill-rule:nonzero;"/><path d="M351.573,78.7l-0,79.035l45.412,0l-0,-18.476l-24.896,-0l0,-10.786l23.742,-0l0,-20.51l-23.735,-0l-0,-10.793l24.895,0l0,-18.47l-45.418,0Z" style="fill:#fff;fill-rule:nonzero;"/><path d="M402.844,78.7l-0,79.035l41.951,0l0,-18.476l-22.738,-0l-0,-60.559l-19.213,0Z" style="fill:#fff;fill-rule:nonzero;"/><path d="M280.613,78.7l-0,79.035l19.219,0l0,-41.104l28.481,41.071l-0,0.033l17.212,0l-0,-79.041l-19.865,-0l0,42.31l-29.914,-42.31l-0.085,0.091l-0.019,-0.091l-15.029,0.006Z" style="fill:#fff;fill-rule:nonzero;"/><path d="M171.292,78.7l-41.547,79.035l20.412,0l15.615,-30.24l17.832,0l-0,30.24l17.14,0l-0,-79.041l-29.452,0.006Zm4.478,29.654l7.794,-13.582l0.04,13.582l-7.834,-0Z" style="fill:#fff;fill-rule:nonzero;"/><path d="M503.294,75.983l0,85.115l21.898,-0l0,-32.332l27.549,-0l-0,-19.865l-27.549,0l0,-13.49l27.549,-0l-0,-19.428l-49.447,-0Z" style="fill:#fff;fill-rule:nonzero;"/><path d="M527.926,63.987c-13.603,-0.097 -35.7,1.342 -49.806,4.039c-6.566,1.256 -11.483,2.923 -13.451,4.659c-0.019,0.017 -0.037,0.034 -0.056,0.051c-3.02,2.841 -5.192,8.504 -6.552,15.382c-1.888,9.55 -2.411,21.495 -2.614,30.414c-0.242,10.475 1.667,27.006 4.84,37.383c1.532,5.009 3.524,8.644 5.504,10.048c2.266,1.675 7.101,3.138 13.393,4.208c13.682,2.327 34.604,3.245 48.706,3.36c14.118,0.115 34.632,-1.447 48.124,-3.797c6.1,-1.062 10.822,-2.341 13.086,-3.635c0.001,-0 0.001,-0.001 0.002,-0.001c2.293,-1.313 4.454,-4.922 6.031,-9.999c3.192,-10.278 4.755,-26.833 4.862,-37.489c0.107,-10.651 -1.506,-25.723 -4.163,-35.738c-1.241,-4.674 -2.78,-8.297 -4.384,-10.135c-0.696,-0.799 -1.984,-1.637 -3.841,-2.352c-2.181,-0.839 -5.277,-1.615 -8.986,-2.302c-13.856,-2.564 -36.572,-4 -50.694,-4.096c-0,-0 -0.001,-0 -0.001,-0l0,-0Zm-0.016,4.779c-0.005,-0 -0.011,-0 -0.016,-0c13.888,0.095 36.23,1.495 49.857,4.017c3.357,0.621 6.165,1.303 8.139,2.062c0.913,0.352 1.615,0.641 1.957,1.034c0,-0 0,-0 0,-0c1.29,1.478 2.368,4.46 3.365,8.219c2.563,9.657 4.107,24.193 4.004,34.464c-0.103,10.265 -1.573,26.218 -4.648,36.119c-0.616,1.984 -1.291,3.711 -2.045,5.067c-0.567,1.019 -1.122,1.816 -1.796,2.202c-1.99,1.138 -6.172,2.142 -11.533,3.076c-13.251,2.307 -33.399,3.839 -47.265,3.725c-13.881,-0.113 -34.476,-1.001 -47.944,-3.291c-5.318,-0.905 -9.464,-1.929 -11.366,-3.35c-0.021,-0.016 -0.042,-0.031 -0.064,-0.046c-0.462,-0.322 -0.868,-0.895 -1.292,-1.616c-0.873,-1.483 -1.67,-3.526 -2.405,-5.93c-3.045,-9.959 -4.865,-25.824 -4.632,-35.877c-0,-0 -0,-0.001 -0,-0.001c0.196,-8.678 0.686,-20.303 2.524,-29.595c1.119,-5.661 2.629,-10.441 5.107,-12.799c1.643,-1.421 5.778,-2.496 11.16,-3.525c13.842,-2.647 35.527,-4.05 48.876,-3.955l0.017,-0Z" style="fill:#fff;"/></g></g></svg>