<?xml version="1.0" encoding="UTF-8" standalone="no"?><!DOCTYPE svg PUBLIC "-//W3C//DTD SVG 1.1//EN" "http://www.w3.org/Graphics/SVG/1.1/DTD/svg11.dtd"><svg width="100%" height="100%" viewBox="0 0 600 174" version="1.1" xmlns="http://www.w3.org/2000/svg" xmlns:xlink="http://www.w3.org/1999/xlink" xml:space="preserve" xmlns:serif="http://www.serif.com/" style="fill-rule:evenodd;clip-rule:evenodd;stroke-linejoin:round;stroke-miterlimit:2;"><g id="fairchild_channelf"><g><path id="path2431" d="M200.726,1.09l-0,13.344l-200.726,0l-0,-13.454l200.726,0.11" style="fill:#fff;fill-rule:nonzero;"/><path id="path2491" d="M4.406,30.655l-0,4.752l-4.34,0l0.012,-15.948l20.367,0l-0,4.26l-15.915,0l-0.013,3.277l15.36,0l-0,3.769l-15.471,-0.11" style="fill:#fff;fill-rule:nonzero;"/><rect id="path2495" x="54.029" y="19.477" width="4.537" height="15.893" style="fill:#fff;fill-rule:nonzero;"/><path id="path2499" d="M117.799,19.477l-0.018,15.875l4.679,0l0.018,-5.771l12.762,0l0,5.79l4.679,-0l0.036,-15.894l-4.697,0l-0.018,6.099l-12.762,0l0,-6.099l-4.679,0" style="fill:#fff;fill-rule:nonzero;"/><path id="path2503" d="M153.901,19.459l-0,15.893l20.518,0l-0,-4.241l-16.149,-0l0,-11.652l-4.369,0" style="fill:#fff;fill-rule:nonzero;"/><path id="path2507" d="M41.168,19.477l-10.574,0l-9.253,15.912l4.897,-0l3.022,-4.679l13.164,0l2.768,4.679l5.454,-0l-9.478,-15.912Zm-10.04,7.355l2.114,-3.313l5.676,-0l1.782,3.313l-9.572,0" style="fill:#fff;fill-rule:nonzero;"/><path id="path2511" d="M81.408,30.874c0.209,-0 -0.2,0.018 0,-0" style="fill:#fff;fill-rule:nonzero;"/><path id="path2515" d="M82.114,30.929c2.078,-0.292 3.898,-1.985 3.898,-4.151l0,-2.567c0,-2.385 -2.385,-4.697 -4.75,-4.697l-17.794,-0l0,15.857l4.229,-0l0,-4.588l8.794,-0l4.118,4.588l5.676,-0l-4.171,-4.442Zm-2.191,-3.751l-12.238,0l-0,-3.513l12.25,-0c1.007,-0 1.823,0.819 1.823,1.82c-0,1.02 -0.81,1.839 -1.835,1.693" style="fill:#fff;fill-rule:nonzero;"/><path id="path2519" d="M113.83,25.776l-4.46,0c-0.273,-1.056 -1.311,-1.875 -2.458,-1.875l-9.485,0c-1.365,0 -2.476,1.111 -2.476,2.458l0,2.239c0,1.347 1.111,2.458 2.476,2.458l9.485,-0c1.257,-0 2.312,-0.947 2.458,-2.148l4.333,-0c0,3.914 -2.694,6.463 -6.117,6.463l-11.397,-0c-3.422,-0 -6.19,-2.749 -6.19,-6.117l0,-3.678c0,-3.368 2.768,-6.117 6.19,-6.117l11.397,0c3.423,0 6.244,2.931 6.244,6.317" style="fill:#fff;fill-rule:nonzero;"/><rect id="path2523" x="144.871" y="19.495" width="4.533" height="15.857" style="fill:#fff;fill-rule:nonzero;"/><path id="path2527" d="M195.628,19.477l-17.805,0l0,15.839l17.914,0c0,0 4.916,-0.983 4.934,-8.138c0.018,-6.718 -4.369,-7.592 -5.043,-7.701Zm-1.274,11.652l-12.198,-0.037l-0.018,-7.446l12.234,0c1.092,0.201 2.44,0.401 2.476,3.587c0.018,3.823 -2.494,3.896 -2.494,3.896" style="fill:#fff;fill-rule:nonzero;"/><path id="path2531" d="M200.744,40.177l-0,13.345l-200.733,-0l-0,-13.454l200.733,0.109" style="fill:#fff;fill-rule:nonzero;"/></g><g><path d="M135.923,153.63l0,-74.949l-19.871,0l0,31.146l-24.061,0l-0,-31.146l-19.22,0l0,79.042l19.22,-0l-0,-29.986l24.061,-0l0,29.979l18.327,0" style="fill:#fff;fill-rule:nonzero;"/><path d="M40.231,77.795c-22.157,0.28 -40.231,18.585 -40.231,40.743c-0,22.158 18.074,40.462 40.231,40.742c13.086,-0.313 23.651,-5.533 30.214,-13.601l-14.358,-14.032c-3.702,5.507 -10.766,7.586 -15.707,7.658c-11.036,-0 -20.118,-9.082 -20.118,-20.119c-0,-11.037 9.082,-20.119 20.118,-20.119c6.27,0.287 9.692,1.617 13.921,5.872l0.17,-0.15l0.137,0.131l15.55,-13.993c-8.075,-8.348 -18.796,-13.034 -29.927,-13.132Z" style="fill:#fff;fill-rule:nonzero;"/><path d="M208.271,78.688l0,79.035l19.22,-0l-0,-41.105l28.48,41.072l0,0.033l17.212,-0l0,-79.042l-19.864,0l-0,42.31l-29.915,-42.31l-0.084,0.092l-0.02,-0.092l-15.029,0.007Z" style="fill:#fff;fill-rule:nonzero;"/><path d="M351.573,78.688l-0,79.035l45.412,-0l-0,-18.477l-24.896,0l0,-10.786l23.742,0l0,-20.51l-23.735,0l-0,-10.792l24.895,-0l0,-18.47l-45.418,-0Z" style="fill:#fff;fill-rule:nonzero;"/><path d="M402.844,78.688l-0,79.035l41.951,-0l0,-18.477l-22.738,0l-0,-60.558l-19.213,-0Z" style="fill:#fff;fill-rule:nonzero;"/><path d="M280.613,78.688l-0,79.035l19.219,-0l0,-41.105l28.481,41.072l-0,0.033l17.212,-0l-0,-79.042l-19.865,0l0,42.31l-29.914,-42.31l-0.085,0.092l-0.019,-0.092l-15.029,0.007Z" style="fill:#fff;fill-rule:nonzero;"/><path d="M171.292,78.688l-41.547,79.035l20.412,-0l15.615,-30.24l17.832,-0l-0,30.24l17.14,-0l-0,-79.042l-29.452,0.007Zm4.478,29.653l7.794,-13.582l0.04,13.582l-7.834,0Z" style="fill:#fff;fill-rule:nonzero;"/><path d="M527.926,63.974c-13.603,-0.097 -35.7,1.343 -49.806,4.04c-6.566,1.255 -11.483,2.923 -13.451,4.659c-0.019,0.017 -0.037,0.034 -0.056,0.051c-3.02,2.84 -5.192,8.504 -6.552,15.382c-1.888,9.549 -2.411,21.495 -2.614,30.413c-0.242,10.475 1.667,27.007 4.84,37.384c1.532,5.008 3.524,8.643 5.504,10.047c2.266,1.676 7.101,3.139 13.393,4.209c13.682,2.327 34.604,3.244 48.706,3.359c14.118,0.115 34.632,-1.447 48.124,-3.796c6.1,-1.063 10.822,-2.341 13.086,-3.636c0.001,0 0.001,-0 0.002,-0c2.293,-1.314 4.454,-4.923 6.031,-10c3.192,-10.278 4.755,-26.832 4.862,-37.489c0.107,-10.65 -1.506,-25.723 -4.163,-35.738c-1.241,-4.673 -2.78,-8.297 -4.384,-10.135c-0.696,-0.798 -1.984,-1.637 -3.841,-2.352c-2.181,-0.839 -5.277,-1.614 -8.986,-2.301c-13.856,-2.564 -36.572,-4 -50.694,-4.097l-0.001,0Zm-24.632,11.996l0,85.116l21.898,-0l0,-32.333l27.549,0l-0,-19.864l-27.549,-0l0,-13.491l27.549,0l-0,-19.428l-49.447,0Z" style="fill:#fff;"/></g></g></svg>