<svg clip-rule="evenodd" fill-rule="evenodd" stroke-linejoin="round" stroke-miterlimit="2" viewBox="0 0 600 111" xmlns="http://www.w3.org/2000/svg"><g fill="#fff"><g fill-rule="nonzero"><path d="m135.923 90.617v-74.948h-19.871v31.146h-24.061v-31.146h-19.22v79.041h19.22v-29.986h24.061v29.98h18.327"/><path d="m40.231 14.783c-22.157.28-40.231 18.584-40.231 40.742s18.074 40.463 40.231 40.743c13.086-.313 23.651-5.533 30.214-13.602l-14.358-14.031c-3.702 5.507-10.766 7.586-15.707 7.657-11.036 0-20.118-9.082-20.118-20.118 0-11.037 9.082-20.119 20.118-20.119 6.27.287 9.692 1.616 13.921 5.872l.17-.15.137.13 15.55-13.992c-8.075-8.349-18.796-13.035-29.927-13.132z"/><path d="m208.271 15.675v79.035h19.22v-41.104l28.48 41.072v.032h17.212v-79.041h-19.864v42.31l-29.915-42.31-.084.091-.02-.091z"/><path d="m351.573 15.675v79.035h45.412v-18.476h-24.896v-10.786h23.742v-20.51h-23.735v-10.793h24.895v-18.47h-45.418z"/><path d="m402.844 15.675v79.035h41.951v-18.476h-22.738v-60.559z"/><path d="m280.613 15.675v79.035h19.219v-41.104l28.481 41.072v.032h17.212v-79.041h-19.865v42.31l-29.914-42.31-.085.091-.019-.091z"/><path d="m171.292 15.675-41.547 79.035h20.412l15.615-30.24h17.832v30.24h17.14v-79.041zm4.478 29.654 7.794-13.582.04 13.582z"/><path d="m503.294 12.958v85.115h21.898v-32.332h27.549v-19.865h-27.549v-13.49h27.549v-19.428h-49.447z"/></g><path d="m527.926.962c-13.603-.097-35.7 1.342-49.806 4.039-6.566 1.256-11.483 2.923-13.451 4.659-.019.017-.037.034-.056.051-3.02 2.841-5.192 8.504-6.552 15.382-1.888 9.55-2.411 21.495-2.614 30.414-.242 10.475 1.667 27.006 4.84 37.383 1.532 5.009 3.524 8.644 5.504 10.048 2.266 1.676 7.101 3.138 13.393 4.208 13.682 2.327 34.604 3.245 48.706 3.36 14.118.115 34.632-1.447 48.124-3.797 6.1-1.062 10.822-2.341 13.086-3.635.001 0 .001-.001.002-.001 2.293-1.313 4.454-4.922 6.031-9.999 3.192-10.278 4.755-26.833 4.862-37.489.107-10.651-1.506-25.723-4.163-35.738-1.241-4.673-2.78-8.297-4.384-10.135-.696-.799-1.984-1.637-3.841-2.352-2.181-.839-5.277-1.615-8.986-2.301-13.856-2.565-36.572-4.001-50.694-4.097h-.001zm-.016 4.779c-.005 0-.011 0-.016 0 13.888.095 36.23 1.495 49.857 4.017 3.357.621 6.165 1.303 8.139 2.062.913.352 1.615.642 1.957 1.034 1.29 1.478 2.368 4.46 3.365 8.219 2.563 9.658 4.107 24.193 4.004 34.464-.103 10.266-1.573 26.218-4.648 36.119-.616 1.984-1.291 3.711-2.045 5.067-.567 1.019-1.122 1.816-1.796 2.202-1.99 1.138-6.172 2.142-11.533 3.076-13.251 2.307-33.399 3.839-47.265 3.726-13.881-.114-34.476-1.002-47.944-3.292-5.318-.905-9.464-1.929-11.366-3.35-.021-.016-.042-.031-.064-.046-.462-.322-.868-.895-1.292-1.616-.873-1.483-1.67-3.526-2.405-5.93-3.045-9.958-4.865-25.824-4.632-35.877 0 0 0 0 0-.001.196-8.678.686-20.303 2.524-29.595 1.119-5.661 2.629-10.441 5.107-12.799 1.643-1.42 5.778-2.496 11.16-3.525 13.842-2.647 35.527-4.05 48.876-3.955z"/></g></svg>