<?xml version="1.0" encoding="UTF-8" standalone="no"?><!DOCTYPE svg PUBLIC "-//W3C//DTD SVG 1.1//EN" "http://www.w3.org/Graphics/SVG/1.1/DTD/svg11.dtd"><svg width="100%" height="100%" viewBox="0 0 600 158" version="1.1" xmlns="http://www.w3.org/2000/svg" xmlns:xlink="http://www.w3.org/1999/xlink" xml:space="preserve" xmlns:serif="http://www.serif.com/" style="fill-rule:evenodd;clip-rule:evenodd;stroke-linejoin:round;stroke-miterlimit:2;"><g id="fairchild"><path id="path2431" d="M599.946,0.752l-0,39.886l-599.946,-0l-0,-40.213l599.946,0.327" style="fill:#fff;fill-rule:nonzero;"/><path id="path2491" d="M13.168,89.121l0,14.202l-12.972,-0l0.038,-47.667l60.873,-0l0,12.733l-47.569,-0l-0.038,9.795l45.91,-0l-0,11.263l-46.242,-0.326" style="fill:#fff;fill-rule:nonzero;"/><rect id="path2495" x="161.486" y="55.71" width="13.56" height="47.504" style="fill:#fff;fill-rule:nonzero;"/><path id="path2499" d="M352.088,55.71l-0.054,47.45l13.984,-0l0.055,-17.25l38.144,0l0,17.304l13.985,0l0.108,-47.504l-14.038,0l-0.055,18.229l-38.144,0l-0,-18.229l-13.985,0" style="fill:#fff;fill-rule:nonzero;"/><path id="path2503" d="M459.992,55.656l-0,47.504l61.325,-0l-0,-12.679l-48.266,0l0,-34.825l-13.059,-0" style="fill:#fff;fill-rule:nonzero;"/><path id="path2507" d="M123.047,55.71l-31.604,0l-27.659,47.559l14.638,-0l9.033,-13.985l39.347,0l8.271,13.985l16.302,-0l-28.328,-47.559Zm-30.009,21.984l6.317,-9.904l16.967,0l5.327,9.904l-28.611,-0" style="fill:#fff;fill-rule:nonzero;"/><path id="path2511" d="M243.319,89.774c0.626,-0 -0.598,0.054 0,-0" style="fill:#fff;fill-rule:nonzero;"/><path id="path2515" d="M245.431,89.937c6.208,-0.871 11.65,-5.931 11.65,-12.406l-0,-7.673c-0,-7.128 -7.129,-14.039 -14.197,-14.039l-53.185,0l0,47.395l12.641,0l-0,-13.712l26.282,-0l12.308,13.712l16.967,0l-12.466,-13.277Zm-6.552,-11.209l-36.577,-0l-0,-10.502l36.615,-0c3.009,-0 5.447,2.448 5.447,5.441c0,3.047 -2.421,5.496 -5.485,5.061" style="fill:#fff;fill-rule:nonzero;"/><path id="path2519" d="M340.226,74.538l-13.332,-0c-0.816,-3.156 -3.918,-5.605 -7.346,-5.605l-28.35,0c-4.081,0 -7.4,3.319 -7.4,7.346l0,6.693c0,4.027 3.319,7.346 7.4,7.346l28.35,-0c3.755,-0 6.911,-2.83 7.346,-6.421l12.951,0c-0,11.699 -8.053,19.317 -18.283,19.317l-34.064,0c-10.23,0 -18.501,-8.216 -18.501,-18.283l0,-10.992c0,-10.066 8.271,-18.283 18.501,-18.283l34.064,-0c10.23,-0 18.664,8.761 18.664,18.882" style="fill:#fff;fill-rule:nonzero;"/><rect id="path2523" x="433.002" y="55.765" width="13.549" height="47.395" style="fill:#fff;fill-rule:nonzero;"/><path id="path2527" d="M584.71,55.71l-53.218,0l0,47.341l53.544,-0c0,-0 14.692,-2.938 14.746,-24.323c0.055,-20.079 -13.059,-22.691 -15.072,-23.018Zm-3.809,34.826l-36.458,-0.109l-0.054,-22.256l36.566,0c3.265,0.599 7.292,1.197 7.4,10.72c0.055,11.427 -7.454,11.645 -7.454,11.645" style="fill:#fff;fill-rule:nonzero;"/><path id="path2531" d="M600,117.58l-0,39.885l-599.967,0l-0,-40.212l599.967,0.327" style="fill:#fff;fill-rule:nonzero;"/></g></svg>