<svg clip-rule="evenodd" fill-rule="evenodd" stroke-linejoin="round" stroke-miterlimit="2" viewBox="0 0 600 86" xmlns="http://www.w3.org/2000/svg"><g fill="#fff" fill-rule="nonzero"><path d="m130.345 46.292h12.04v-14.22h-12.04v-7.869c0-5.499 1.517-8.153 5.973-8.153 2.275 0 4.076.758 6.067 1.611v-14.884c-2.37-1.232-4.74-1.706-7.394-1.706-6.542 0-12.704 2.749-16.97 7.774-4.74 5.404-4.93 10.333-4.93 17.064v6.163h-6.067v14.22h6.067v34.414h17.254z"/><path d="m173.575 45.439c7.016 0 11.092 5.024 11.092 10.997 0 6.162-4.076 10.902-11.092 10.902-7.015 0-11.091-4.74-11.091-10.902 0-5.973 4.076-10.997 11.091-10.997zm27.778-13.367h-17.254v4.74c-3.603-4.266-9.481-6.352-15.074-6.352-14.41 0-24.364 11.945-24.364 25.881s10.143 25.976 24.554 25.976c5.688 0 11.66-2.18 14.694-7.015h.19v5.404h17.254z"/><path d="m225.054 32.072h-19.34l25.502 48.634h10.997l25.407-48.634h-19.34l-11.566 24.933z"/><path d="m297.578 30.46c-15.643 0-29.294 9.385-29.294 25.976 0 16.59 13.746 25.881 29.294 25.881 15.643 0 29.294-9.385 29.294-25.881 0-16.591-13.651-25.976-29.294-25.976zm0 14.979c7.015 0 11.092 5.024 11.092 10.997 0 6.162-4.077 10.902-11.092 10.902s-11.092-4.74-11.092-10.902c0-5.973 4.077-10.997 11.092-10.997z"/><path d="m334.362 32.072v29.294c0 16.021 11.281 20.951 25.881 20.951s25.881-4.93 25.881-20.951v-29.294h-17.254v25.976c0 6.162-1.517 10.523-8.627 10.523s-8.627-4.361-8.627-10.523v-25.976z"/><path d="m414.375 32.072h-17.254v48.634h17.254v-19.625c0-8.342 2.371-14.694 11.946-14.694 2.654 0 4.929.284 7.299 1.611v-16.59h-3.318c-6.731 0-12.419 2.654-15.737 8.627h-.19z"/><path d="m457.321 32.072h-17.254v48.634h17.254zm-8.627-28.347c-5.309 0-9.67 4.361-9.67 9.67s4.361 9.67 9.67 9.67 9.67-4.361 9.67-9.67-4.361-9.67-9.67-9.67z"/><path d="m487.563 46.292h9.765v-14.22h-9.765v-14.6h-17.254v14.6h-5.593v14.22h5.593v34.414h17.254z"/><path d="m516.763 49.326c1.043-5.025 5.214-7.679 10.239-7.679 4.645 0 8.911 3.033 9.764 7.679zm36.025 8.153c0-16.591-9.765-27.019-26.64-27.019-15.832 0-26.924 9.765-26.924 25.976 0 16.78 12.04 25.881 28.157 25.881 5.593 0 11.092-1.327 15.548-4.076 4.455-2.75 7.868-6.921 9.195-12.609h-16.59c-1.896 3.223-4.551 4.456-8.248 4.456-7.11 0-10.808-3.793-10.808-10.808h36.31z"/><path d="m598.578 33.588c-5.025-2.275-10.523-3.128-16.022-3.128-10.618 0-21.425 5.309-21.425 17.254 0 8.722 5.403 11.376 10.807 12.798 5.404 1.423 10.808 1.612 10.808 5.404 0 2.655-3.223 3.698-5.404 3.698-4.266 0-10.144-2.465-13.652-4.93l-6.257 12.04c5.878 3.602 12.704 5.593 19.625 5.593 11.281 0 22.942-5.309 22.942-18.107 0-9.006-6.067-12.799-14.126-14.41-2.37-.474-7.774-.948-7.774-4.266 0-2.465 3.413-3.319 5.404-3.319 2.939 0 6.636.949 9.291 2.371z"/><path d="m7.962 8.615c-5.096 5.096-7.962 12.015-7.962 19.222s2.866 14.125 7.962 19.221l38.482 38.482 38.482-38.482-.037-.036c5.096-5.096 7.962-12.015 7.962-19.222s-2.866-14.126-7.962-19.222-12.015-7.962-19.222-7.962-14.126 2.866-19.222 7.962l-.037.037c-5.096-5.096-12.015-7.962-19.222-7.962-7.206 0-14.125 2.866-19.221 7.962z"/></g></svg>