<?xml version="1.0" encoding="UTF-8" standalone="no"?><!DOCTYPE svg PUBLIC "-//W3C//DTD SVG 1.1//EN" "http://www.w3.org/Graphics/SVG/1.1/DTD/svg11.dtd"><svg width="100%" height="100%" viewBox="0 0 600 86" version="1.1" xmlns="http://www.w3.org/2000/svg" xmlns:xlink="http://www.w3.org/1999/xlink" xml:space="preserve" xmlns:serif="http://www.serif.com/" style="fill-rule:evenodd;clip-rule:evenodd;stroke-linejoin:round;stroke-miterlimit:2;"><g id="favourites_heart_bold"><g><path d="M130.345,46.264l12.04,-0l0,-14.221l-12.04,0l0,-7.868c0,-5.499 1.517,-8.154 5.973,-8.154c2.275,0 4.076,0.759 6.067,1.612l0,-14.884c-2.37,-1.232 -4.74,-1.706 -7.394,-1.706c-6.542,-0 -12.704,2.749 -16.97,7.773c-4.74,5.404 -4.93,10.334 -4.93,17.065l0,6.162l-6.067,0l-0,14.221l6.067,-0l0,34.413l17.254,0l0,-34.413Z" style="fill:#fff;fill-rule:nonzero;"/><path d="M173.575,45.41c7.016,0 11.092,5.025 11.092,10.998c0,6.162 -4.076,10.902 -11.092,10.902c-7.015,-0 -11.091,-4.74 -11.091,-10.902c-0,-5.973 4.076,-10.998 11.091,-10.998Zm27.778,-13.367l-17.254,0l-0,4.74c-3.603,-4.266 -9.481,-6.351 -15.074,-6.351c-14.41,-0 -24.364,11.945 -24.364,25.881c-0,13.936 10.143,25.976 24.554,25.976c5.688,-0 11.66,-2.181 14.694,-7.016l0.19,0l-0,5.404l17.254,0l-0,-48.634Z" style="fill:#fff;fill-rule:nonzero;"/><path d="M225.054,32.043l-19.34,0l25.502,48.634l10.997,0l25.407,-48.634l-19.34,0l-11.566,24.933l-11.66,-24.933Z" style="fill:#fff;fill-rule:nonzero;"/><path d="M297.578,30.432c-15.643,-0 -29.294,9.385 -29.294,25.976c-0,16.59 13.746,25.881 29.294,25.881c15.643,-0 29.294,-9.386 29.294,-25.881c0,-16.591 -13.651,-25.976 -29.294,-25.976Zm-0,14.978c7.015,0 11.092,5.025 11.092,10.998c-0,6.162 -4.077,10.902 -11.092,10.902c-7.015,-0 -11.092,-4.74 -11.092,-10.902c0,-5.973 4.077,-10.998 11.092,-10.998Z" style="fill:#fff;fill-rule:nonzero;"/><path d="M334.362,32.043l-0,29.294c-0,16.022 11.281,20.952 25.881,20.952c14.6,-0 25.881,-4.93 25.881,-20.952l0,-29.294l-17.254,0l-0,25.976c-0,6.162 -1.517,10.523 -8.627,10.523c-7.11,0 -8.627,-4.361 -8.627,-10.523l-0,-25.976l-17.254,0Z" style="fill:#fff;fill-rule:nonzero;"/><path d="M414.375,32.043l-17.254,0l0,48.634l17.254,0l0,-19.624c0,-8.343 2.371,-14.695 11.946,-14.695c2.654,0 4.929,0.285 7.299,1.612l0,-16.59l-3.318,-0c-6.731,-0 -12.419,2.654 -15.737,8.627l-0.19,-0l0,-7.964Z" style="fill:#fff;fill-rule:nonzero;"/><path d="M457.321,32.043l-17.254,0l0,48.634l17.254,0l0,-48.634Zm-8.627,-28.346c-5.309,0 -9.67,4.361 -9.67,9.67c0,5.309 4.361,9.67 9.67,9.67c5.309,-0 9.67,-4.361 9.67,-9.67c0,-5.309 -4.361,-9.67 -9.67,-9.67Z" style="fill:#fff;fill-rule:nonzero;"/><path d="M487.563,46.264l9.765,-0l0,-14.221l-9.765,0l0,-14.599l-17.254,-0l0,14.599l-5.593,0l-0,14.221l5.593,-0l0,34.413l17.254,0l0,-34.413Z" style="fill:#fff;fill-rule:nonzero;"/><path d="M516.763,49.297c1.043,-5.024 5.214,-7.679 10.239,-7.679c4.645,0 8.911,3.034 9.764,7.679l-20.003,0Zm36.025,8.153c0,-16.59 -9.765,-27.018 -26.64,-27.018c-15.832,-0 -26.924,9.764 -26.924,25.976c0,16.78 12.04,25.881 28.157,25.881c5.593,-0 11.092,-1.327 15.548,-4.077c4.455,-2.749 7.868,-6.92 9.195,-12.608l-16.59,-0c-1.896,3.223 -4.551,4.455 -8.248,4.455c-7.11,0 -10.808,-3.792 -10.808,-10.807l36.31,-0l0,-1.802Z" style="fill:#fff;fill-rule:nonzero;"/><path d="M598.578,33.56c-5.025,-2.275 -10.523,-3.128 -16.022,-3.128c-10.618,-0 -21.425,5.309 -21.425,17.254c-0,8.722 5.403,11.376 10.807,12.798c5.404,1.422 10.808,1.612 10.808,5.404c-0,2.654 -3.223,3.697 -5.404,3.697c-4.266,0 -10.144,-2.465 -13.652,-4.93l-6.257,12.04c5.878,3.603 12.704,5.594 19.625,5.594c11.281,-0 22.942,-5.309 22.942,-18.108c-0,-9.006 -6.067,-12.798 -14.126,-14.41c-2.37,-0.474 -7.774,-0.948 -7.774,-4.266c0,-2.465 3.413,-3.318 5.404,-3.318c2.939,0 6.636,0.948 9.291,2.37l5.783,-10.997Z" style="fill:#fff;fill-rule:nonzero;"/></g><path d="M7.962,8.587c-5.096,5.096 -7.962,12.015 -7.962,19.221c-0,7.207 2.866,14.126 7.962,19.222l38.482,38.482l38.482,-38.482l-0.037,-0.037c5.096,-5.096 7.962,-12.015 7.962,-19.221c-0,-7.207 -2.866,-14.126 -7.962,-19.222c-5.096,-5.096 -12.015,-7.962 -19.222,-7.962c-7.207,-0 -14.126,2.866 -19.222,7.961l-0.037,0.038c-5.096,-5.096 -12.015,-7.962 -19.222,-7.962c-7.206,0 -14.125,2.866 -19.221,7.962l-0.003,-0Z" style="fill:#fff;fill-rule:nonzero;"/></g></svg>