<?xml version="1.0" encoding="UTF-8" standalone="no"?><!DOCTYPE svg PUBLIC "-//W3C//DTD SVG 1.1//EN" "http://www.w3.org/Graphics/SVG/1.1/DTD/svg11.dtd"><svg width="100%" height="100%" viewBox="0 0 600 136" version="1.1" xmlns="http://www.w3.org/2000/svg" xmlns:xlink="http://www.w3.org/1999/xlink" xml:space="preserve" xmlns:serif="http://www.serif.com/" style="fill-rule:evenodd;clip-rule:evenodd;stroke-linejoin:round;stroke-miterlimit:2;"><g id="favourites"><path d="M38.442,1.901c-3.015,-1.206 -6.181,-1.809 -9.497,-1.809c-17.488,-0 -22.764,12.361 -22.764,27.738l-0,34.372l-6.181,0l-0,12.663l6.181,0l-0,57.89l13.568,-0l-0,-57.89l18.693,0l0,-12.663l-18.693,0l-0,-30.301c-0,-6.935 -0,-19.146 9.648,-19.146c2.864,-0 6.332,1.658 9.045,2.864l0,-13.718Z" style="fill:#fff;fill-rule:nonzero;"/><path d="M75.377,123.107c-14.322,-0 -22.312,-12.362 -22.312,-25.629c0,-13.115 8.292,-25.326 22.312,-25.326c14.623,-0 22.914,11.608 22.914,25.326c0,13.87 -8.14,25.629 -22.914,25.629Zm35.729,-60.905l-13.568,0l-0,11.759l-0.302,-0c-5.578,-8.442 -14.02,-13.869 -24.422,-13.869c-20.502,-0 -33.317,17.638 -33.317,36.934c0,20.201 12.212,38.141 33.769,38.141c10.101,-0 18.543,-5.427 23.97,-13.417l0.302,-0l-0,11.005l13.568,-0l-0,-70.553Z" style="fill:#fff;fill-rule:nonzero;"/><path d="M132.663,62.202l-15.226,0l35.427,72.965l35.578,-72.965l-15.226,0l-20.352,44.02l-20.201,-44.02Z" style="fill:#fff;fill-rule:nonzero;"/><path d="M227.186,60.092c-21.106,-0 -37.689,16.281 -37.689,37.537c0,21.256 16.583,37.538 37.689,37.538c21.105,-0 37.688,-16.282 37.688,-37.538c0,-21.256 -16.583,-37.537 -37.688,-37.537Zm-0,12.964c13.417,0 24.121,11.156 24.121,24.573c-0,13.267 -10.704,24.573 -24.121,24.573c-13.417,0 -24.121,-11.306 -24.121,-24.573c0,-13.417 10.704,-24.573 24.121,-24.573Z" style="fill:#fff;fill-rule:nonzero;"/><path d="M276.633,62.202l0,40.553c0,19.296 9.045,32.412 29.849,32.412c20.804,-0 29.85,-13.116 29.85,-32.412l-0,-40.553l-13.568,0l-0,39.045c-0,11.307 -2.865,21.257 -16.282,21.257c-13.417,-0 -16.281,-9.95 -16.281,-21.257l0,-39.045l-13.568,0Z" style="fill:#fff;fill-rule:nonzero;"/><path d="M368.894,62.202l-13.567,0l-0,70.553l13.567,-0l0,-34.674c0,-11.457 1.81,-25.025 16.433,-25.025c3.165,0 5.879,0.754 8.291,2.865l6.181,-12.362c-3.317,-2.111 -7.236,-3.467 -11.156,-3.467c-9.045,-0 -15.98,5.276 -19.296,13.567l-0.453,0l0,-11.457Z" style="fill:#fff;fill-rule:nonzero;"/><path d="M423.92,62.202l-13.568,0l-0,70.553l13.568,-0l-0,-70.553Zm-6.784,-41.759c-5.126,0 -9.347,4.221 -9.347,9.498c-0,5.125 4.221,9.196 9.347,9.196c5.125,-0 9.346,-4.071 9.346,-9.196c0,-5.277 -4.221,-9.498 -9.346,-9.498Z" style="fill:#fff;fill-rule:nonzero;"/><path d="M461.156,74.865l13.266,0l0,-12.663l-13.266,0l-0,-26.985l-13.568,0l-0,26.985l-7.387,0l0,12.663l7.387,0l-0,57.89l13.568,-0l-0,-57.89Z" style="fill:#fff;fill-rule:nonzero;"/><path d="M543.769,99.74l-0,-2.111c-0,-20.955 -10.553,-37.537 -33.015,-37.537c-22.764,-0 -34.372,16.281 -34.372,37.989c-0,20.804 13.115,37.086 34.673,37.086c13.719,-0 26.081,-7.086 32.714,-19.297l-11.457,-6.482c-5.126,8.442 -10.704,13.719 -21.106,13.719c-12.965,-0 -21.105,-11.307 -21.256,-23.367l53.819,-0Zm-53.065,-10.252c1.658,-10.1 9.497,-17.638 20.05,-17.638c10.854,0 17.789,7.086 19.447,17.638l-39.497,0Z" style="fill:#fff;fill-rule:nonzero;"/><path d="M594.724,72.453c-3.769,-7.688 -10.704,-12.361 -19.297,-12.361c-11.457,-0 -20.804,9.045 -20.804,20.502c0,9.648 5.729,13.568 13.568,17.789l13.266,7.085c3.166,2.111 4.975,3.92 4.975,7.689c0,6.03 -4.975,9.95 -10.703,9.95c-6.483,-0 -9.95,-3.769 -12.814,-9.046l-11.608,5.277c3.768,9.949 14.17,15.829 24.422,15.829c13.115,-0 24.271,-9.95 24.271,-23.367c-0,-11.156 -7.99,-16.281 -16.281,-20.05c-8.292,-3.769 -16.433,-6.483 -16.433,-12.664c0,-3.919 3.619,-6.934 7.387,-6.934c3.92,-0 7.387,2.713 9.046,6.181l11.005,-5.88Z" style="fill:#fff;fill-rule:nonzero;"/></g></svg>