<svg clip-rule="evenodd" fill-rule="evenodd" stroke-linejoin="round" stroke-miterlimit="2" viewBox="0 0 600 112" xmlns="http://www.w3.org/2000/svg"><g fill="#fff" fill-rule="nonzero"><path d="m164.149 2.225c-2.34-.936-4.797-1.404-7.371-1.404-13.573 0-17.668 9.595-17.668 21.529v26.678h-4.797v9.829h4.797v44.93h10.531v-44.93h14.508v-9.829h-14.508v-23.518c0-5.383 0-14.86 7.488-14.86 2.223 0 4.914 1.287 7.02 2.223v-10.648z"/><path d="m192.816 96.299c-11.116 0-17.317-9.595-17.317-19.891 0-10.18 6.435-19.658 17.317-19.658 11.35 0 17.785 9.01 17.785 19.658 0 10.764-6.318 19.891-17.785 19.891zm27.731-47.271h-10.531v9.127h-.234c-4.329-6.553-10.882-10.765-18.955-10.765-15.913 0-25.859 13.69-25.859 28.667 0 15.679 9.478 29.602 26.21 29.602 7.839 0 14.392-4.212 18.604-10.413h.234v8.541h10.531z"/><path d="m237.279 49.028h-11.818l27.497 56.631 27.613-56.631h-11.817l-15.796 34.166z"/><path d="m310.642 47.39c-16.381 0-29.252 12.637-29.252 29.135s12.871 29.134 29.252 29.134 29.252-12.636 29.252-29.134-12.871-29.135-29.252-29.135zm0 10.062c10.414 0 18.721 8.659 18.721 19.073 0 10.296-8.307 19.072-18.721 19.072s-18.721-8.776-18.721-19.072c0-10.414 8.307-19.073 18.721-19.073z"/><path d="m349.02 49.028v31.475c0 14.977 7.021 25.156 23.168 25.156s23.167-10.179 23.167-25.156v-31.475h-10.531v30.305c0 8.775-2.223 16.498-12.636 16.498-10.414 0-12.637-7.723-12.637-16.498v-30.305z"/><path d="m420.628 49.028h-10.53v54.759h10.53v-26.911c0-8.893 1.405-19.424 12.754-19.424 2.457 0 4.563.586 6.436 2.224l4.797-9.595c-2.574-1.638-5.616-2.691-8.659-2.691-7.02 0-12.402 4.095-14.977 10.531h-.351z"/><path d="m463.336 49.028h-10.531v54.759h10.531zm-5.265-32.411c-3.979 0-7.255 3.276-7.255 7.372 0 3.978 3.276 7.137 7.255 7.137 3.978 0 7.254-3.159 7.254-7.137 0-4.096-3.276-7.372-7.254-7.372z"/><path d="m492.237 58.857h10.296v-9.829h-10.296v-20.944h-10.531v20.944h-5.733v9.829h5.733v44.93h10.531z"/><path d="m556.356 78.163v-1.638c0-16.264-8.19-29.135-25.624-29.135-17.668 0-26.678 12.637-26.678 29.486 0 16.147 10.18 28.783 26.912 28.783 10.648 0 20.242-5.499 25.39-14.977l-8.892-5.031c-3.978 6.553-8.308 10.648-16.381 10.648-10.063 0-16.381-8.776-16.498-18.136zm-41.186-7.957c1.287-7.839 7.371-13.69 15.562-13.69 8.424 0 13.807 5.5 15.094 13.69z"/><path d="m595.905 56.984c-2.925-5.967-8.308-9.594-14.977-9.594-8.893 0-16.147 7.02-16.147 15.913 0 7.488 4.446 10.53 10.531 13.807l10.296 5.499c2.457 1.638 3.861 3.042 3.861 5.967 0 4.681-3.861 7.723-8.307 7.723-5.031 0-7.723-2.925-9.946-7.021l-9.009 4.096c2.925 7.722 10.998 12.285 18.955 12.285 10.179 0 18.838-7.722 18.838-18.136 0-8.658-6.201-12.636-12.637-15.562-6.435-2.925-12.753-5.031-12.753-9.828 0-3.042 2.808-5.383 5.733-5.383 3.042 0 5.733 2.107 7.02 4.798z"/><path d="m9.827 16.802c-6.29 6.289-9.827 14.829-9.827 23.723 0 8.895 3.537 17.434 9.827 23.724l47.494 47.494 47.495-47.494-.046-.046c6.29-6.289 9.827-14.829 9.827-23.723 0-8.895-3.537-17.434-9.827-23.724-6.289-6.289-14.829-9.827-23.723-9.827-8.895 0-17.434 3.537-23.724 9.827l-.046.046c-6.289-6.29-14.829-9.827-23.723-9.827-8.895 0-17.434 3.537-23.724 9.827z"/></g></svg>