<svg clip-rule="evenodd" fill-rule="evenodd" stroke-linejoin="round" stroke-miterlimit="2" viewBox="0 0 600 136" xmlns="http://www.w3.org/2000/svg"><g fill="#fff" fill-rule="nonzero"><path d="m38.442 1.901c-3.015-1.206-6.181-1.809-9.497-1.809-17.488 0-22.764 12.361-22.764 27.738v34.372h-6.181v12.663h6.181v57.89h13.568v-57.89h18.693v-12.663h-18.693v-30.301c0-6.935 0-19.146 9.648-19.146 2.864 0 6.332 1.658 9.045 2.864z"/><path d="m75.377 123.107c-14.322 0-22.312-12.362-22.312-25.629 0-13.115 8.292-25.326 22.312-25.326 14.623 0 22.914 11.608 22.914 25.326 0 13.87-8.14 25.629-22.914 25.629zm35.729-60.905h-13.568v11.759h-.302c-5.578-8.442-14.02-13.869-24.422-13.869-20.502 0-33.317 17.638-33.317 36.934 0 20.201 12.212 38.141 33.769 38.141 10.101 0 18.543-5.427 23.97-13.417h.302v11.005h13.568z"/><path d="m132.663 62.202h-15.226l35.427 72.965 35.578-72.965h-15.226l-20.352 44.02z"/><path d="m227.186 60.092c-21.106 0-37.689 16.281-37.689 37.537s16.583 37.538 37.689 37.538c21.105 0 37.688-16.282 37.688-37.538s-16.583-37.537-37.688-37.537zm0 12.964c13.417 0 24.121 11.156 24.121 24.573 0 13.267-10.704 24.573-24.121 24.573s-24.121-11.306-24.121-24.573c0-13.417 10.704-24.573 24.121-24.573z"/><path d="m276.633 62.202v40.553c0 19.296 9.045 32.412 29.849 32.412s29.85-13.116 29.85-32.412v-40.553h-13.568v39.045c0 11.307-2.865 21.257-16.282 21.257s-16.281-9.95-16.281-21.257v-39.045z"/><path d="m368.894 62.202h-13.567v70.553h13.567v-34.674c0-11.457 1.81-25.025 16.433-25.025 3.165 0 5.879.754 8.291 2.865l6.181-12.362c-3.317-2.111-7.236-3.467-11.156-3.467-9.045 0-15.98 5.276-19.296 13.567h-.453z"/><path d="m423.92 62.202h-13.568v70.553h13.568zm-6.784-41.759c-5.126 0-9.347 4.221-9.347 9.498 0 5.125 4.221 9.196 9.347 9.196 5.125 0 9.346-4.071 9.346-9.196 0-5.277-4.221-9.498-9.346-9.498z"/><path d="m461.156 74.865h13.266v-12.663h-13.266v-26.985h-13.568v26.985h-7.387v12.663h7.387v57.89h13.568z"/><path d="m543.769 99.74v-2.111c0-20.955-10.553-37.537-33.015-37.537-22.764 0-34.372 16.281-34.372 37.989 0 20.804 13.115 37.086 34.673 37.086 13.719 0 26.081-7.086 32.714-19.297l-11.457-6.482c-5.126 8.442-10.704 13.719-21.106 13.719-12.965 0-21.105-11.307-21.256-23.367zm-53.065-10.252c1.658-10.1 9.497-17.638 20.05-17.638 10.854 0 17.789 7.086 19.447 17.638z"/><path d="m594.724 72.453c-3.769-7.688-10.704-12.361-19.297-12.361-11.457 0-20.804 9.045-20.804 20.502 0 9.648 5.729 13.568 13.568 17.789l13.266 7.085c3.166 2.111 4.975 3.92 4.975 7.689 0 6.03-4.975 9.95-10.703 9.95-6.483 0-9.95-3.769-12.814-9.046l-11.608 5.277c3.768 9.949 14.17 15.829 24.422 15.829 13.115 0 24.271-9.95 24.271-23.367 0-11.156-7.99-16.281-16.281-20.05-8.292-3.769-16.433-6.483-16.433-12.664 0-3.919 3.619-6.934 7.387-6.934 3.92 0 7.387 2.713 9.046 6.181z"/></g></svg>