<svg clip-rule="evenodd" fill-rule="evenodd" stroke-linejoin="round" stroke-miterlimit="2" viewBox="0 0 600 156" xmlns="http://www.w3.org/2000/svg"><g fill="#fff" fill-rule="nonzero"><path d="m44.118 2.076c-3.461-1.384-7.094-2.076-10.9-2.076-20.069 0-26.125 14.187-26.125 31.834v39.446h-7.093v14.533h7.093v66.436h15.571v-66.436h21.454v-14.533h-21.454v-34.775c0-7.958 0-21.972 11.073-21.972 3.287 0 7.266 1.903 10.381 3.287v-15.744z"/><path d="m86.505 141.176c-16.436 0-25.605-14.186-25.605-29.411 0-15.052 9.515-29.066 25.605-29.066 16.782 0 26.298 13.322 26.298 29.066 0 15.917-9.343 29.411-26.298 29.411zm41.004-69.896h-15.571v13.495h-.346c-6.402-9.688-16.09-15.917-28.028-15.917-23.529 0-38.235 20.242-38.235 42.388 0 23.183 14.014 43.771 38.754 43.771 11.592 0 21.28-6.228 27.509-15.398h.346v12.63h15.571z"/><path d="m152.249 71.28h-17.474l40.658 83.737 40.83-83.737h-17.474l-23.356 50.519z"/><path d="m260.727 68.858c-24.222 0-43.253 18.685-43.253 43.08 0 24.394 19.031 43.079 43.253 43.079 24.221 0 43.252-18.685 43.252-43.079 0-24.395-19.031-43.08-43.252-43.08zm0 14.879c15.398 0 27.681 12.803 27.681 28.201 0 15.225-12.283 28.2-27.681 28.2s-27.682-12.975-27.682-28.2c0-15.398 12.284-28.201 27.682-28.201z"/><path d="m334.775 71.28h-15.571v80.969h15.571v-39.792c0-13.149 2.076-28.72 18.858-28.72 3.633 0 6.748.865 9.516 3.287l7.093-14.187c-3.806-2.422-8.304-3.979-12.803-3.979-10.38 0-18.339 6.055-22.145 15.571h-.519z"/><path d="m397.924 71.28h-15.571v80.969h15.571zm-7.786-47.924c-5.882 0-10.726 4.845-10.726 10.9 0 5.882 4.844 10.554 10.726 10.554 5.883 0 10.727-4.672 10.727-10.554 0-6.055-4.844-10.9-10.727-10.9z"/><path d="m440.657 85.813h15.225v-14.533h-15.225v-30.969h-15.57v30.969h-8.478v14.533h8.478v66.436h15.57z"/><path d="m535.467 114.36v-2.422c0-24.049-12.111-43.08-37.889-43.08-26.125 0-39.447 18.685-39.447 43.599 0 23.875 15.052 42.56 39.793 42.56 15.744 0 29.931-8.131 37.543-22.145l-13.149-7.439c-5.882 9.688-12.283 15.743-24.221 15.743-14.879 0-24.222-12.975-24.395-26.816zm-60.9-11.765c1.904-11.592 10.9-20.242 23.011-20.242 12.457 0 20.415 8.131 22.318 20.242z"/><path d="m593.945 83.045c-4.326-8.824-12.284-14.187-22.146-14.187-13.148 0-23.875 10.381-23.875 23.53 0 11.072 6.574 15.57 15.571 20.415l15.225 8.131c3.633 2.422 5.709 4.499 5.709 8.824 0 6.92-5.709 11.418-12.284 11.418-7.439 0-11.418-4.325-14.706-10.38l-13.321 6.055c4.325 11.419 16.263 18.166 28.027 18.166 15.052 0 27.855-11.418 27.855-26.816 0-12.803-9.17-18.685-18.685-23.011-9.516-4.325-18.858-7.439-18.858-14.533 0-4.498 4.152-7.958 8.477-7.958 4.499 0 8.478 3.114 10.381 7.093z"/></g></svg>