<?xml version="1.0" encoding="UTF-8" standalone="no"?><!DOCTYPE svg PUBLIC "-//W3C//DTD SVG 1.1//EN" "http://www.w3.org/Graphics/SVG/1.1/DTD/svg11.dtd"><svg width="100%" height="100%" viewBox="0 0 600 156" version="1.1" xmlns="http://www.w3.org/2000/svg" xmlns:xlink="http://www.w3.org/1999/xlink" xml:space="preserve" xmlns:serif="http://www.serif.com/" style="fill-rule:evenodd;clip-rule:evenodd;stroke-linejoin:round;stroke-miterlimit:2;"><g id="favorites"><path d="M44.118,2.076c-3.461,-1.384 -7.094,-2.076 -10.9,-2.076c-20.069,-0 -26.125,14.187 -26.125,31.834l0,39.446l-7.093,0l-0,14.533l7.093,0l0,66.436l15.571,0l0,-66.436l21.454,0l-0,-14.533l-21.454,0l0,-34.775c0,-7.958 0,-21.972 11.073,-21.972c3.287,-0 7.266,1.903 10.381,3.287l-0,-15.744Z" style="fill:#fff;fill-rule:nonzero;"/><path d="M86.505,141.176c-16.436,0 -25.605,-14.186 -25.605,-29.411c-0,-15.052 9.515,-29.066 25.605,-29.066c16.782,-0 26.298,13.322 26.298,29.066c-0,15.917 -9.343,29.411 -26.298,29.411Zm41.004,-69.896l-15.571,0l-0,13.495l-0.346,0c-6.402,-9.688 -16.09,-15.917 -28.028,-15.917c-23.529,0 -38.235,20.242 -38.235,42.388c-0,23.183 14.014,43.771 38.754,43.771c11.592,0 21.28,-6.228 27.509,-15.398l0.346,0l-0,12.63l15.571,0l-0,-80.969Z" style="fill:#fff;fill-rule:nonzero;"/><path d="M152.249,71.28l-17.474,0l40.658,83.737l40.83,-83.737l-17.474,0l-23.356,50.519l-23.184,-50.519Z" style="fill:#fff;fill-rule:nonzero;"/><path d="M260.727,68.858c-24.222,0 -43.253,18.685 -43.253,43.08c0,24.394 19.031,43.079 43.253,43.079c24.221,0 43.252,-18.685 43.252,-43.079c0,-24.395 -19.031,-43.08 -43.252,-43.08Zm-0,14.879c15.398,0 27.681,12.803 27.681,28.201c0,15.225 -12.283,28.2 -27.681,28.2c-15.398,0 -27.682,-12.975 -27.682,-28.2c-0,-15.398 12.284,-28.201 27.682,-28.201Z" style="fill:#fff;fill-rule:nonzero;"/><path d="M334.775,71.28l-15.571,0l0,80.969l15.571,0l0,-39.792c0,-13.149 2.076,-28.72 18.858,-28.72c3.633,0 6.748,0.865 9.516,3.287l7.093,-14.187c-3.806,-2.422 -8.304,-3.979 -12.803,-3.979c-10.38,0 -18.339,6.055 -22.145,15.571l-0.519,0l0,-13.149Z" style="fill:#fff;fill-rule:nonzero;"/><path d="M397.924,71.28l-15.571,0l-0,80.969l15.571,0l-0,-80.969Zm-7.786,-47.924c-5.882,0 -10.726,4.845 -10.726,10.9c-0,5.882 4.844,10.554 10.726,10.554c5.883,-0 10.727,-4.672 10.727,-10.554c0,-6.055 -4.844,-10.9 -10.727,-10.9Z" style="fill:#fff;fill-rule:nonzero;"/><path d="M440.657,85.813l15.225,0l0,-14.533l-15.225,0l0,-30.969l-15.57,0l-0,30.969l-8.478,0l-0,14.533l8.478,0l-0,66.436l15.57,0l0,-66.436Z" style="fill:#fff;fill-rule:nonzero;"/><path d="M535.467,114.36l0,-2.422c0,-24.049 -12.111,-43.08 -37.889,-43.08c-26.125,0 -39.447,18.685 -39.447,43.599c0,23.875 15.052,42.56 39.793,42.56c15.744,0 29.931,-8.131 37.543,-22.145l-13.149,-7.439c-5.882,9.688 -12.283,15.743 -24.221,15.743c-14.879,0 -24.222,-12.975 -24.395,-26.816l61.765,-0Zm-60.9,-11.765c1.904,-11.592 10.9,-20.242 23.011,-20.242c12.457,-0 20.415,8.131 22.318,20.242l-45.329,0Z" style="fill:#fff;fill-rule:nonzero;"/><path d="M593.945,83.045c-4.326,-8.824 -12.284,-14.187 -22.146,-14.187c-13.148,0 -23.875,10.381 -23.875,23.53c-0,11.072 6.574,15.57 15.571,20.415l15.225,8.131c3.633,2.422 5.709,4.499 5.709,8.824c0,6.92 -5.709,11.418 -12.284,11.418c-7.439,0 -11.418,-4.325 -14.706,-10.38l-13.321,6.055c4.325,11.419 16.263,18.166 28.027,18.166c15.052,0 27.855,-11.418 27.855,-26.816c-0,-12.803 -9.17,-18.685 -18.685,-23.011c-9.516,-4.325 -18.858,-7.439 -18.858,-14.533c-0,-4.498 4.152,-7.958 8.477,-7.958c4.499,-0 8.478,3.114 10.381,7.093l12.63,-6.747Z" style="fill:#fff;fill-rule:nonzero;"/></g></svg>