<?xml version="1.0" encoding="UTF-8" standalone="no"?><!DOCTYPE svg PUBLIC "-//W3C//DTD SVG 1.1//EN" "http://www.w3.org/Graphics/SVG/1.1/DTD/svg11.dtd"><svg width="100%" height="100%" viewBox="0 0 600 95" version="1.1" xmlns="http://www.w3.org/2000/svg" xmlns:xlink="http://www.w3.org/1999/xlink" xml:space="preserve" xmlns:serif="http://www.serif.com/" style="fill-rule:evenodd;clip-rule:evenodd;stroke-linejoin:round;stroke-miterlimit:2;"><g id="favorites_heart_bold"><g><g><path d="M145.495,50.971l13.439,0l0,-15.873l-13.439,-0l-0,-8.783c-0,-6.138 1.693,-9.101 6.667,-9.101c2.539,-0 4.55,0.846 6.772,1.799l0,-16.614c-2.645,-1.376 -5.291,-1.905 -8.254,-1.905c-7.301,-0 -14.18,3.069 -18.942,8.677c-5.291,6.032 -5.503,11.535 -5.503,19.048l0,6.879l-6.772,-0l-0,15.873l6.772,0l0,38.413l19.26,0l-0,-38.413Z" style="fill:#fff;fill-rule:nonzero;"/><path d="M193.75,50.019c7.831,-0 12.381,5.608 12.381,12.275c-0,6.878 -4.55,12.169 -12.381,12.169c-7.831,0 -12.381,-5.291 -12.381,-12.169c-0,-6.667 4.55,-12.275 12.381,-12.275Zm31.006,-14.921l-19.26,-0l-0,5.291c-4.021,-4.762 -10.582,-7.09 -16.826,-7.09c-16.085,-0 -27.196,13.333 -27.196,28.889c0,15.556 11.323,28.995 27.408,28.995c6.349,0 13.016,-2.434 16.402,-7.83l0.212,-0l-0,6.031l19.26,0l-0,-54.286Z" style="fill:#fff;fill-rule:nonzero;"/><path d="M251.211,35.098l-21.588,-0l28.466,54.286l12.276,0l28.36,-54.286l-21.588,-0l-12.91,27.831l-13.016,-27.831Z" style="fill:#fff;fill-rule:nonzero;"/><path d="M332.165,33.299c-17.461,-0 -32.699,10.476 -32.699,28.995c-0,18.519 15.344,28.889 32.699,28.889c17.46,0 32.699,-10.476 32.699,-28.889c-0,-18.519 -15.239,-28.995 -32.699,-28.995Zm-0,16.72c7.831,-0 12.381,5.608 12.381,12.275c-0,6.878 -4.55,12.169 -12.381,12.169c-7.831,0 -12.381,-5.291 -12.381,-12.169c-0,-6.667 4.55,-12.275 12.381,-12.275Z" style="fill:#fff;fill-rule:nonzero;"/><path d="M392.801,35.098l-19.26,-0l0,54.286l19.26,0l-0,-21.905c-0,-9.312 2.645,-16.402 13.333,-16.402c2.963,-0 5.503,0.317 8.149,1.799l-0,-18.519l-3.704,-0c-7.514,-0 -13.863,2.963 -17.567,9.63l-0.211,-0l-0,-8.889Z" style="fill:#fff;fill-rule:nonzero;"/><path d="M440.738,35.098l-19.26,-0l0,54.286l19.26,0l0,-54.286Zm-9.63,-31.641c-5.926,-0 -10.794,4.868 -10.794,10.794c0,5.926 4.868,10.794 10.794,10.794c5.926,-0 10.794,-4.868 10.794,-10.794c0,-5.926 -4.868,-10.794 -10.794,-10.794Z" style="fill:#fff;fill-rule:nonzero;"/><path d="M474.495,50.971l10.9,0l-0,-15.873l-10.9,-0l0,-16.297l-19.259,0l-0,16.297l-6.244,-0l0,15.873l6.244,0l-0,38.413l19.259,0l0,-38.413Z" style="fill:#fff;fill-rule:nonzero;"/><path d="M507.088,54.357c1.164,-5.608 5.821,-8.571 11.429,-8.571c5.185,-0 9.947,3.386 10.9,8.571l-22.329,0Zm40.213,9.101c-0,-18.519 -10.9,-30.159 -29.736,-30.159c-17.673,-0 -30.054,10.899 -30.054,28.995c0,18.73 13.44,28.889 31.429,28.889c6.244,0 12.382,-1.481 17.355,-4.55c4.974,-3.069 8.783,-7.725 10.265,-14.074l-18.519,-0c-2.116,3.598 -5.079,4.973 -9.206,4.973c-7.937,0 -12.064,-4.233 -12.064,-12.063l40.53,-0l-0,-2.011Z" style="fill:#fff;fill-rule:nonzero;"/><path d="M598.413,36.791c-5.609,-2.54 -11.747,-3.492 -17.884,-3.492c-11.852,-0 -23.916,5.926 -23.916,19.259c0,9.736 6.032,12.699 12.064,14.286c6.032,1.588 12.063,1.799 12.063,6.032c0,2.963 -3.598,4.127 -6.031,4.127c-4.762,0 -11.323,-2.751 -15.239,-5.503l-6.984,13.44c6.561,4.021 14.18,6.243 21.905,6.243c12.593,0 25.609,-5.926 25.609,-20.212c-0,-10.053 -6.773,-14.286 -15.767,-16.085c-2.646,-0.529 -8.678,-1.058 -8.678,-4.762c0,-2.751 3.81,-3.703 6.032,-3.703c3.28,-0 7.408,1.058 10.371,2.645l6.455,-12.275Z" style="fill:#fff;fill-rule:nonzero;"/></g></g><path d="M8.887,9.021c-5.688,5.688 -8.887,13.411 -8.887,21.456c-0,8.044 3.199,15.767 8.887,21.455l42.955,42.955l42.954,-42.955l-0.041,-0.041c5.688,-5.688 8.887,-13.411 8.887,-21.456c0,-8.044 -3.199,-15.767 -8.887,-21.455c-5.688,-5.689 -13.411,-8.888 -21.456,-8.888c-8.044,0 -15.767,3.199 -21.455,8.887l-0.042,0.042c-5.688,-5.688 -13.411,-8.887 -21.456,-8.887c-8.044,-0 -15.767,3.199 -21.456,8.887l-0.003,-0Z" style="fill:#fff;fill-rule:nonzero;"/></g></svg>