<svg clip-rule="evenodd" fill-rule="evenodd" stroke-linejoin="round" stroke-miterlimit="2" viewBox="0 0 600 114" xmlns="http://www.w3.org/2000/svg"><g fill="#fff" fill-rule="nonzero"><path d="m32.504 63.248h16.78v-19.82h-16.78v-10.966c0-7.664 2.114-11.364 8.324-11.364 3.171 0 5.682 1.058 8.456 2.247v-20.745c-3.303-1.717-6.606-2.378-10.306-2.378-9.117 0-17.705 3.832-23.651 10.835-6.606 7.531-6.871 14.402-6.871 23.783v8.588h-8.456v19.82h8.456v47.963h24.048z"/><path d="m92.755 62.059c9.777 0 15.459 7.002 15.459 15.327 0 8.588-5.682 15.195-15.459 15.195-9.778 0-15.459-6.607-15.459-15.195 0-8.325 5.681-15.327 15.459-15.327zm38.714-18.631h-24.048v6.607c-5.021-5.946-13.213-8.853-21.008-8.853-20.084 0-33.958 16.648-33.958 36.072 0 19.423 14.138 36.203 34.222 36.203 7.928 0 16.252-3.039 20.48-9.778h.264v7.532h24.048z"/><path d="m164.501 43.428h-26.954l35.543 67.783h15.327l35.41-67.783h-26.954l-16.12 34.75z"/><path d="m265.58 41.182c-21.801 0-40.828 13.081-40.828 36.204 0 23.122 19.159 36.071 40.828 36.071 21.802 0 40.828-13.081 40.828-36.071 0-23.123-19.026-36.204-40.828-36.204zm0 20.877c9.778 0 15.459 7.002 15.459 15.327 0 8.588-5.681 15.195-15.459 15.195-9.777 0-15.459-6.607-15.459-15.195 0-8.325 5.682-15.327 15.459-15.327z"/><path d="m341.29 43.428h-24.047v67.783h24.047v-27.351c0-11.627 3.304-20.48 16.649-20.48 3.699 0 6.871.396 10.174 2.246v-23.123h-4.625c-9.381 0-17.309 3.7-21.933 12.024h-.265z"/><path d="m401.145 43.428h-24.047v67.783h24.047zm-12.024-39.506c-7.399 0-13.477 6.078-13.477 13.477s6.078 13.477 13.477 13.477c7.4 0 13.478-6.078 13.478-13.477s-6.078-13.477-13.478-13.477z"/><path d="m443.294 63.248h13.61v-19.82h-13.61v-20.348h-24.047v20.348h-7.796v19.82h7.796v47.963h24.047z"/><path d="m483.99 67.476c1.454-7.003 7.267-10.703 14.27-10.703 6.475 0 12.42 4.229 13.61 10.703zm50.21 11.363c0-23.123-13.61-37.657-37.129-37.657-22.065 0-37.525 13.609-37.525 36.204 0 23.387 16.781 36.071 39.243 36.071 7.795 0 15.459-1.85 21.669-5.682 6.21-3.831 10.967-9.645 12.817-17.573h-23.123c-2.643 4.493-6.342 6.21-11.495 6.21-9.91 0-15.063-5.285-15.063-15.062h50.606z"/><path d="m598.018 45.542c-7.003-3.171-14.666-4.36-22.33-4.36-14.798 0-29.861 7.399-29.861 24.048 0 12.156 7.531 15.855 15.063 17.837 7.531 1.982 15.062 2.246 15.062 7.532 0 3.699-4.492 5.153-7.531 5.153-5.946 0-14.138-3.436-19.027-6.871l-8.72 16.78c8.192 5.021 17.705 7.796 27.351 7.796 15.723 0 31.975-7.399 31.975-25.237 0-12.552-8.456-17.837-19.687-20.083-3.304-.661-10.835-1.322-10.835-5.946 0-3.436 4.757-4.625 7.531-4.625 4.096 0 9.25 1.322 12.949 3.303z"/></g></svg>