<?xml version="1.0" encoding="UTF-8" standalone="no"?><!DOCTYPE svg PUBLIC "-//W3C//DTD SVG 1.1//EN" "http://www.w3.org/Graphics/SVG/1.1/DTD/svg11.dtd"><svg width="100%" height="100%" viewBox="0 0 600 124" version="1.1" xmlns="http://www.w3.org/2000/svg" xmlns:xlink="http://www.w3.org/1999/xlink" xml:space="preserve" xmlns:serif="http://www.serif.com/" style="fill-rule:evenodd;clip-rule:evenodd;stroke-linejoin:round;stroke-miterlimit:2;"><g id="favorites_heart"><g><path d="M182.357,2.222c-2.6,-1.04 -5.329,-1.56 -8.189,-1.56c-15.078,-0 -19.628,10.658 -19.628,23.917l0,29.637l-5.329,-0l-0,10.918l5.329,0l0,49.915l11.699,-0l-0,-49.915l16.118,0l0,-10.918l-16.118,-0l-0,-26.127c-0,-5.98 -0,-16.509 8.319,-16.509c2.47,0 5.459,1.43 7.799,2.47l0,-11.828Z" style="fill:#fff;fill-rule:nonzero;"/><path d="M214.203,106.73c-12.348,-0 -19.237,-10.659 -19.237,-22.098c-0,-11.308 7.149,-21.837 19.237,-21.837c12.609,-0 19.758,10.009 19.758,21.837c0,11.959 -7.019,22.098 -19.758,22.098Zm30.807,-52.514l-11.699,-0l0,10.139l-0.26,-0c-4.809,-7.28 -12.088,-11.959 -21.057,-11.959c-17.678,-0 -28.727,15.208 -28.727,31.846c-0,17.418 10.529,32.887 29.117,32.887c8.709,-0 15.988,-4.68 20.667,-11.569l0.26,-0l0,9.489l11.699,-0l-0,-60.833Z" style="fill:#fff;fill-rule:nonzero;"/><path d="M263.598,54.216l-13.129,-0l30.547,62.913l30.676,-62.913l-13.128,-0l-17.548,37.955l-17.418,-37.955Z" style="fill:#fff;fill-rule:nonzero;"/><path d="M345.099,52.396c-18.198,-0 -32.497,14.038 -32.497,32.366c0,18.328 14.299,32.367 32.497,32.367c18.198,-0 32.496,-14.039 32.496,-32.367c0,-18.328 -14.298,-32.366 -32.496,-32.366Zm-0,11.179c11.568,-0 20.797,9.619 20.797,21.187c0,11.439 -9.229,21.188 -20.797,21.188c-11.569,-0 -20.798,-9.749 -20.798,-21.188c0,-11.568 9.229,-21.187 20.798,-21.187Z" style="fill:#fff;fill-rule:nonzero;"/><path d="M400.732,54.216l-11.698,-0l-0,60.833l11.698,-0l0,-29.897c0,-9.879 1.56,-21.577 14.169,-21.577c2.73,-0 5.069,0.65 7.149,2.469l5.329,-10.658c-2.859,-1.82 -6.239,-2.99 -9.618,-2.99c-7.8,-0 -13.779,4.549 -16.639,11.699l-0.39,-0l0,-9.879Z" style="fill:#fff;fill-rule:nonzero;"/><path d="M448.177,54.216l-11.699,-0l0,60.833l11.699,-0l0,-60.833Zm-5.849,-36.006c-4.42,-0 -8.059,3.639 -8.059,8.189c-0,4.419 3.639,7.929 8.059,7.929c4.419,-0 8.059,-3.51 8.059,-7.929c-0,-4.55 -3.64,-8.189 -8.059,-8.189Z" style="fill:#fff;fill-rule:nonzero;"/><path d="M480.283,65.134l11.439,0l0,-10.918l-11.439,-0l0,-23.268l-11.698,0l-0,23.268l-6.369,-0l-0,10.918l6.369,0l-0,49.915l11.698,-0l0,-49.915Z" style="fill:#fff;fill-rule:nonzero;"/><path d="M551.515,86.582l0,-1.82c0,-18.068 -9.099,-32.366 -28.466,-32.366c-19.628,-0 -29.637,14.038 -29.637,32.756c0,17.938 11.309,31.977 29.897,31.977c11.828,-0 22.487,-6.11 28.206,-16.639l-9.878,-5.589c-4.42,7.279 -9.229,11.829 -18.198,11.829c-11.179,-0 -18.198,-9.749 -18.328,-20.148l46.404,0Zm-45.754,-8.839c1.429,-8.709 8.189,-15.208 17.288,-15.208c9.359,-0 15.338,6.109 16.768,15.208l-34.056,0Z" style="fill:#fff;fill-rule:nonzero;"/><path d="M595.451,63.055c-3.25,-6.63 -9.229,-10.659 -16.639,-10.659c-9.879,-0 -17.938,7.799 -17.938,17.678c0,8.319 4.94,11.699 11.699,15.338l11.439,6.109c2.729,1.82 4.289,3.38 4.289,6.63c0,5.199 -4.289,8.579 -9.229,8.579c-5.589,-0 -8.579,-3.25 -11.048,-7.799l-10.009,4.549c3.249,8.579 12.218,13.649 21.057,13.649c11.309,-0 20.928,-8.579 20.928,-20.148c-0,-9.619 -6.889,-14.039 -14.038,-17.288c-7.15,-3.25 -14.169,-5.59 -14.169,-10.919c0,-3.38 3.12,-5.979 6.369,-5.979c3.38,-0 6.37,2.339 7.8,5.329l9.489,-5.069Z" style="fill:#fff;fill-rule:nonzero;"/></g><path d="M10.917,18.415c-6.987,6.987 -10.917,16.474 -10.917,26.355c-0,9.881 3.93,19.368 10.917,26.355l52.762,52.762l52.763,-52.762l-0.05,-0.051c6.987,-6.987 10.916,-16.474 10.916,-26.355c0,-9.881 -3.929,-19.368 -10.916,-26.355c-6.988,-6.987 -16.474,-10.917 -26.356,-10.917c-9.881,0 -19.367,3.93 -26.354,10.917l-0.052,0.051c-6.987,-6.987 -16.473,-10.917 -26.355,-10.917c-9.881,0 -19.367,3.93 -26.354,10.917l-0.004,-0Z" style="fill:#fff;fill-rule:nonzero;"/></g></svg>