<?xml version="1.0" encoding="UTF-8" standalone="no"?><!DOCTYPE svg PUBLIC "-//W3C//DTD SVG 1.1//EN" "http://www.w3.org/Graphics/SVG/1.1/DTD/svg11.dtd"><svg width="100%" height="100%" viewBox="0 0 600 112" version="1.1" xmlns="http://www.w3.org/2000/svg" xmlns:xlink="http://www.w3.org/1999/xlink" xml:space="preserve" xmlns:serif="http://www.serif.com/" style="fill-rule:evenodd;clip-rule:evenodd;stroke-linejoin:round;stroke-miterlimit:2;"><g id="favourites_heart"><g><path d="M164.149,1.865c-2.34,-0.936 -4.797,-1.404 -7.371,-1.404c-13.573,-0 -17.668,9.594 -17.668,21.529l-0,26.678l-4.797,-0l-0,9.828l4.797,0l-0,44.931l10.531,-0l-0,-44.931l14.508,0l0,-9.828l-14.508,-0l-0,-23.519c-0,-5.382 -0,-14.86 7.488,-14.86c2.223,0 4.914,1.288 7.02,2.224l0,-10.648Z" style="fill:#fff;fill-rule:nonzero;"/><path d="M192.816,95.939c-11.116,-0 -17.317,-9.595 -17.317,-19.892c0,-10.179 6.435,-19.657 17.317,-19.657c11.35,0 17.785,9.01 17.785,19.657c0,10.765 -6.318,19.892 -17.785,19.892Zm27.731,-47.271l-10.531,-0l0,9.126l-0.234,0c-4.329,-6.552 -10.882,-10.764 -18.955,-10.764c-15.913,-0 -25.859,13.689 -25.859,28.666c0,15.679 9.478,29.603 26.21,29.603c7.839,0 14.392,-4.212 18.604,-10.414l0.234,0l0,8.542l10.531,-0l-0,-54.759Z" style="fill:#fff;fill-rule:nonzero;"/><path d="M237.279,48.668l-11.818,-0l27.497,56.631l27.613,-56.631l-11.817,-0l-15.796,34.166l-15.679,-34.166Z" style="fill:#fff;fill-rule:nonzero;"/><path d="M310.642,47.03c-16.381,-0 -29.252,12.636 -29.252,29.134c0,16.498 12.871,29.135 29.252,29.135c16.381,0 29.252,-12.637 29.252,-29.135c-0,-16.498 -12.871,-29.134 -29.252,-29.134Zm0,10.062c10.414,0 18.721,8.659 18.721,19.072c0,10.297 -8.307,19.072 -18.721,19.072c-10.414,0 -18.721,-8.775 -18.721,-19.072c-0,-10.413 8.307,-19.072 18.721,-19.072Z" style="fill:#fff;fill-rule:nonzero;"/><path d="M349.02,48.668l0,31.475c0,14.976 7.021,25.156 23.168,25.156c16.147,0 23.167,-10.18 23.167,-25.156l-0,-31.475l-10.531,-0l0,30.305c0,8.775 -2.223,16.497 -12.636,16.497c-10.414,0 -12.637,-7.722 -12.637,-16.497l-0,-30.305l-10.531,-0Z" style="fill:#fff;fill-rule:nonzero;"/><path d="M420.628,48.668l-10.53,-0l-0,54.759l10.53,-0l0,-26.912c0,-8.892 1.405,-19.423 12.754,-19.423c2.457,0 4.563,0.585 6.436,2.223l4.797,-9.594c-2.574,-1.638 -5.616,-2.691 -8.659,-2.691c-7.02,-0 -12.402,4.095 -14.977,10.53l-0.351,0l0,-8.892Z" style="fill:#fff;fill-rule:nonzero;"/><path d="M463.336,48.668l-10.531,-0l0,54.759l10.531,-0l-0,-54.759Zm-5.265,-32.411c-3.979,-0 -7.255,3.276 -7.255,7.371c0,3.979 3.276,7.138 7.255,7.138c3.978,-0 7.254,-3.159 7.254,-7.138c0,-4.095 -3.276,-7.371 -7.254,-7.371Z" style="fill:#fff;fill-rule:nonzero;"/><path d="M492.237,58.496l10.296,0l0,-9.828l-10.296,-0l-0,-20.944l-10.531,-0l0,20.944l-5.733,-0l-0,9.828l5.733,0l0,44.931l10.531,-0l-0,-44.931Z" style="fill:#fff;fill-rule:nonzero;"/><path d="M556.356,77.802l0,-1.638c0,-16.264 -8.19,-29.134 -25.624,-29.134c-17.668,-0 -26.678,12.636 -26.678,29.485c0,16.147 10.18,28.784 26.912,28.784c10.648,0 20.242,-5.499 25.39,-14.977l-8.892,-5.031c-3.978,6.552 -8.308,10.648 -16.381,10.648c-10.063,-0 -16.381,-8.776 -16.498,-18.137l41.771,0Zm-41.186,-7.956c1.287,-7.839 7.371,-13.69 15.562,-13.69c8.424,0 13.807,5.5 15.094,13.69l-30.656,-0Z" style="fill:#fff;fill-rule:nonzero;"/><path d="M595.905,56.624c-2.925,-5.967 -8.308,-9.594 -14.977,-9.594c-8.893,-0 -16.147,7.02 -16.147,15.913c-0,7.488 4.446,10.53 10.531,13.806l10.296,5.5c2.457,1.638 3.861,3.042 3.861,5.967c0,4.68 -3.861,7.723 -8.307,7.723c-5.031,-0 -7.723,-2.926 -9.946,-7.021l-9.009,4.095c2.925,7.723 10.998,12.286 18.955,12.286c10.179,0 18.838,-7.722 18.838,-18.136c-0,-8.659 -6.201,-12.637 -12.637,-15.562c-6.435,-2.925 -12.753,-5.031 -12.753,-9.828c-0,-3.043 2.808,-5.383 5.733,-5.383c3.042,0 5.733,2.106 7.02,4.797l8.542,-4.563Z" style="fill:#fff;fill-rule:nonzero;"/></g><path d="M9.827,16.441c-6.29,6.29 -9.827,14.829 -9.827,23.724c-0,8.895 3.537,17.434 9.827,23.723l47.494,47.495l47.495,-47.495l-0.046,-0.045c6.29,-6.289 9.827,-14.829 9.827,-23.723c0,-8.895 -3.537,-17.435 -9.827,-23.724c-6.289,-6.29 -14.829,-9.827 -23.723,-9.827c-8.895,0 -17.434,3.537 -23.724,9.826l-0.046,0.047c-6.289,-6.29 -14.829,-9.827 -23.723,-9.827c-8.895,0 -17.434,3.537 -23.724,9.827l-0.003,-0.001Z" style="fill:#fff;fill-rule:nonzero;"/></g></svg>