<svg clip-rule="evenodd" fill-rule="evenodd" stroke-linejoin="round" stroke-miterlimit="2" viewBox="0 0 600 86" xmlns="http://www.w3.org/2000/svg"><g fill="#fff" fill-rule="nonzero"><path d="m130.345 46.264h12.04v-14.221h-12.04v-7.868c0-5.499 1.517-8.154 5.973-8.154 2.275 0 4.076.759 6.067 1.612v-14.884c-2.37-1.232-4.74-1.706-7.394-1.706-6.542 0-12.704 2.749-16.97 7.773-4.74 5.404-4.93 10.334-4.93 17.065v6.162h-6.067v14.221h6.067v34.413h17.254z"/><path d="m173.575 45.41c7.016 0 11.092 5.025 11.092 10.998 0 6.162-4.076 10.902-11.092 10.902-7.015 0-11.091-4.74-11.091-10.902 0-5.973 4.076-10.998 11.091-10.998zm27.778-13.367h-17.254v4.74c-3.603-4.266-9.481-6.351-15.074-6.351-14.41 0-24.364 11.945-24.364 25.881s10.143 25.976 24.554 25.976c5.688 0 11.66-2.181 14.694-7.016h.19v5.404h17.254z"/><path d="m225.054 32.043h-19.34l25.502 48.634h10.997l25.407-48.634h-19.34l-11.566 24.933z"/><path d="m297.578 30.432c-15.643 0-29.294 9.385-29.294 25.976 0 16.59 13.746 25.881 29.294 25.881 15.643 0 29.294-9.386 29.294-25.881 0-16.591-13.651-25.976-29.294-25.976zm0 14.978c7.015 0 11.092 5.025 11.092 10.998 0 6.162-4.077 10.902-11.092 10.902s-11.092-4.74-11.092-10.902c0-5.973 4.077-10.998 11.092-10.998z"/><path d="m334.362 32.043v29.294c0 16.022 11.281 20.952 25.881 20.952s25.881-4.93 25.881-20.952v-29.294h-17.254v25.976c0 6.162-1.517 10.523-8.627 10.523s-8.627-4.361-8.627-10.523v-25.976z"/><path d="m414.375 32.043h-17.254v48.634h17.254v-19.624c0-8.343 2.371-14.695 11.946-14.695 2.654 0 4.929.285 7.299 1.612v-16.59h-3.318c-6.731 0-12.419 2.654-15.737 8.627h-.19z"/><path d="m457.321 32.043h-17.254v48.634h17.254zm-8.627-28.346c-5.309 0-9.67 4.361-9.67 9.67s4.361 9.67 9.67 9.67 9.67-4.361 9.67-9.67-4.361-9.67-9.67-9.67z"/><path d="m487.563 46.264h9.765v-14.221h-9.765v-14.599h-17.254v14.599h-5.593v14.221h5.593v34.413h17.254z"/><path d="m516.763 49.297c1.043-5.024 5.214-7.679 10.239-7.679 4.645 0 8.911 3.034 9.764 7.679zm36.025 8.153c0-16.59-9.765-27.018-26.64-27.018-15.832 0-26.924 9.764-26.924 25.976 0 16.78 12.04 25.881 28.157 25.881 5.593 0 11.092-1.327 15.548-4.077 4.455-2.749 7.868-6.92 9.195-12.608h-16.59c-1.896 3.223-4.551 4.455-8.248 4.455-7.11 0-10.808-3.792-10.808-10.807h36.31z"/><path d="m598.578 33.56c-5.025-2.275-10.523-3.128-16.022-3.128-10.618 0-21.425 5.309-21.425 17.254 0 8.722 5.403 11.376 10.807 12.798s10.808 1.612 10.808 5.404c0 2.654-3.223 3.697-5.404 3.697-4.266 0-10.144-2.465-13.652-4.93l-6.257 12.04c5.878 3.603 12.704 5.594 19.625 5.594 11.281 0 22.942-5.309 22.942-18.108 0-9.006-6.067-12.798-14.126-14.41-2.37-.474-7.774-.948-7.774-4.266 0-2.465 3.413-3.318 5.404-3.318 2.939 0 6.636.948 9.291 2.37z"/><path d="m7.962 8.587c-5.096 5.096-7.962 12.015-7.962 19.221 0 7.207 2.866 14.126 7.962 19.222l38.482 38.482 38.482-38.482-.037-.037c5.096-5.096 7.962-12.015 7.962-19.221 0-7.207-2.866-14.126-7.962-19.222s-12.015-7.962-19.222-7.962-14.126 2.866-19.222 7.961l-.037.038c-5.096-5.096-12.015-7.962-19.222-7.962-7.206 0-14.125 2.866-19.221 7.962z"/></g></svg>