<svg clip-rule="evenodd" fill-rule="evenodd" stroke-linejoin="round" stroke-miterlimit="2" viewBox="0 0 600 124" xmlns="http://www.w3.org/2000/svg"><g fill="#fff" fill-rule="nonzero"><path d="m182.357 2.222c-2.6-1.04-5.329-1.56-8.189-1.56-15.078 0-19.628 10.658-19.628 23.917v29.637h-5.329v10.918h5.329v49.915h11.699v-49.915h16.118v-10.918h-16.118v-26.127c0-5.98 0-16.509 8.319-16.509 2.47 0 5.459 1.43 7.799 2.47v-11.828z"/><path d="m214.203 106.73c-12.348 0-19.237-10.659-19.237-22.098 0-11.308 7.149-21.837 19.237-21.837 12.609 0 19.758 10.009 19.758 21.837 0 11.959-7.019 22.098-19.758 22.098zm30.807-52.514h-11.699v10.139h-.26c-4.809-7.28-12.088-11.959-21.057-11.959-17.678 0-28.727 15.208-28.727 31.846 0 17.418 10.529 32.887 29.117 32.887 8.709 0 15.988-4.68 20.667-11.569h.26v9.489h11.699z"/><path d="m263.598 54.216h-13.129l30.547 62.913 30.676-62.913h-13.128l-17.548 37.955z"/><path d="m345.099 52.396c-18.198 0-32.497 14.038-32.497 32.366s14.299 32.367 32.497 32.367 32.496-14.039 32.496-32.367-14.298-32.366-32.496-32.366zm0 11.179c11.568 0 20.797 9.619 20.797 21.187 0 11.439-9.229 21.188-20.797 21.188-11.569 0-20.798-9.749-20.798-21.188 0-11.568 9.229-21.187 20.798-21.187z"/><path d="m400.732 54.216h-11.698v60.833h11.698v-29.897c0-9.879 1.56-21.577 14.169-21.577 2.73 0 5.069.65 7.149 2.469l5.329-10.658c-2.859-1.82-6.239-2.99-9.618-2.99-7.8 0-13.779 4.549-16.639 11.699h-.39z"/><path d="m448.177 54.216h-11.699v60.833h11.699zm-5.849-36.006c-4.42 0-8.059 3.639-8.059 8.189 0 4.419 3.639 7.929 8.059 7.929 4.419 0 8.059-3.51 8.059-7.929 0-4.55-3.64-8.189-8.059-8.189z"/><path d="m480.283 65.134h11.439v-10.918h-11.439v-23.268h-11.698v23.268h-6.369v10.918h6.369v49.915h11.698z"/><path d="m551.515 86.582v-1.82c0-18.068-9.099-32.366-28.466-32.366-19.628 0-29.637 14.038-29.637 32.756 0 17.938 11.309 31.977 29.897 31.977 11.828 0 22.487-6.11 28.206-16.639l-9.878-5.589c-4.42 7.279-9.229 11.829-18.198 11.829-11.179 0-18.198-9.749-18.328-20.148zm-45.754-8.839c1.429-8.709 8.189-15.208 17.288-15.208 9.359 0 15.338 6.109 16.768 15.208z"/><path d="m595.451 63.055c-3.25-6.63-9.229-10.659-16.639-10.659-9.879 0-17.938 7.799-17.938 17.678 0 8.319 4.94 11.699 11.699 15.338l11.439 6.109c2.729 1.82 4.289 3.38 4.289 6.63 0 5.199-4.289 8.579-9.229 8.579-5.589 0-8.579-3.25-11.048-7.799l-10.009 4.549c3.249 8.579 12.218 13.649 21.057 13.649 11.309 0 20.928-8.579 20.928-20.148 0-9.619-6.889-14.039-14.038-17.288-7.15-3.25-14.169-5.59-14.169-10.919 0-3.38 3.12-5.979 6.369-5.979 3.38 0 6.37 2.339 7.8 5.329z"/><path d="m10.917 18.415c-6.987 6.987-10.917 16.474-10.917 26.355s3.93 19.368 10.917 26.355l52.762 52.762 52.763-52.762-.05-.051c6.987-6.987 10.916-16.474 10.916-26.355s-3.929-19.368-10.916-26.355c-6.988-6.987-16.474-10.917-26.356-10.917-9.881 0-19.367 3.93-26.354 10.917l-.052.051c-6.987-6.987-16.473-10.917-26.355-10.917-9.881 0-19.367 3.93-26.354 10.917z"/></g></svg>