<svg clip-rule="evenodd" fill-rule="evenodd" stroke-linejoin="round" stroke-miterlimit="2" viewBox="0 0 600 482" xmlns="http://www.w3.org/2000/svg"><g fill="#fff"><path d="m594.028 189.286c.41 0 .84.012 1.289.023.246.007.5.014.757.02-.006-.259-.013-.516-.02-.772-.012-.451-.023-.883-.023-1.285.016-27.535.019-55.068-.007-82.602-.002-1.091-.044-2.501-.374-3.738-8.434-31.673-23.312-56.163-45.488-74.87-19.835-16.732-42.233-25.216-66.572-25.216-28.86.005-57.705.007-86.549.007l-161.454-.002c-77.495 0-154.987 0-232.482.01-.585 0-1.156-.009-1.732-.019-.453-.007-.909-.014-1.373-.017v59.072c.727.297 1.417.576 2.088.79 7.132 2.278 14.272 4.539 21.411 6.798l79.163 25.064c60.043 19.01 120.087 38.02 180.128 57.036 14.288 4.526 28.575 9.057 42.861 13.588 25.907 8.216 51.815 16.433 77.733 24.616 2.366.747 4.873 1.439 7.185 1.443 32.477.045 66.772.066 111.203.066 21.22 0 42.438-.005 63.656-.009z"/><path d="m377.649 204.211h222.351v125.812h-222.351z"/><path d="m128.794 481.732h283.169v-134.375h-52.921v-158.372l-160.013-50.718v240.139l-70.235 35.429z"/><path d="m407.844 189.232 188.188.054c.003-10.8.015-60.179-.008-84.616-.002-1.091-.044-2.501-.374-3.738-8.434-31.673-23.312-56.163-45.488-74.87-19.835-16.732-42.233-25.216-66.572-25.216-28.864.005-57.701.007-86.549.007l-118.279-.002c-28.712 0-66.725-.008-105.479-.015-40.294-.008-81.391-.015-113.667-.015-13.234 0-50.441 0-59.616.026v59.133z"/></g></svg>