<svg clip-rule="evenodd" fill-rule="evenodd" stroke-linejoin="round" stroke-miterlimit="2" viewBox="0 0 600 136" xmlns="http://www.w3.org/2000/svg"><g fill="#fff"><path d="m555.323 32.079c-14.86 12.324-56.019 38.356-56.019 102.87h48.758c0-30.357 5.574-83.506 51.938-100.232v-34.17h-150.278v50.875h27.825c-.086-17.943 11.597-19.343 19.259-19.343z"/><path d="m384.999 60.351h47.013v24.493h-47.013z"/><path d="m157.453.547h-157.453v24.494h15.056v86.166h-15.056v24.494h72.656v-24.494h-15.032v-26.362h47.013v-24.494h-47.013v-35.31h64.112v29.927h35.717v-54.421z"/><path d="m307.13 111.207v-58.406l-37.997 82.148h-20.828l-38.148-82.477v58.735h14.504v24.494h-56.769v-24.494h17.771v-86.166h-17.771v-24.494h56.769v1.656l3.578-1.656 36.679 79.299 36.679-79.299h63.145v24.494h-15.044v86.166h15.044v24.494h-72.656v-24.494z"/></g></svg>