<svg clip-rule="evenodd" fill-rule="evenodd" stroke-linejoin="round" stroke-miterlimit="2" viewBox="0 0 600 137" xmlns="http://www.w3.org/2000/svg"><g fill="#fff"><path d="m555.323 32.387c-14.86 12.324-56.019 38.356-56.019 102.871h48.758c0-30.358 5.574-83.507 51.938-100.232v-34.17h-150.278v50.874h27.825c-.086-17.943 11.597-19.343 19.259-19.343z"/><path d="m384.999 60.66h47.013v24.493h-47.013z"/><path d="m157.453.856h-157.453v24.493h15.056v86.167h-15.056v24.493h72.656v-24.493h-15.032v-26.363h47.013v-24.493h-47.013v-35.311h64.112v29.927h35.717v-54.42z"/><path d="m307.13 111.516v-58.407l-37.997 82.149h-20.828l-38.148-82.477v58.735h14.504v24.493h-56.769v-24.493h17.771v-86.167h-17.771v-24.493h56.769v1.655l3.578-1.655 36.679 79.299 36.679-79.299h63.145v24.493h-15.044v86.167h15.044v24.493h-72.656v-24.493z"/></g></svg>