<svg clip-rule="evenodd" fill-rule="evenodd" stroke-linejoin="round" stroke-miterlimit="2" viewBox="0 0 600 98" xmlns="http://www.w3.org/2000/svg"><g fill="#fff"><path d="m157.988 22.248h31.507v-18.904h-85.126v18.904h31.163v25.649h22.456z" fill-rule="nonzero"/><path d="m135.532 50.303h22.455v44.009h-22.455z"/><g fill-rule="nonzero"><path d="m235.208 20.415c15.38 0 27.897 12.222 28.389 27.482h20.406c-.497-26.525-22.151-47.875-48.795-47.875s-48.299 21.35-48.795 47.875h20.405c.492-15.26 13.01-27.482 28.39-27.482z"/><path d="m235.208 77.242c-15.198 0-27.608-11.932-28.375-26.939h-20.408c.78 26.273 22.321 47.332 48.783 47.332 26.461 0 48.002-21.06 48.782-47.332h-20.407c-.768 15.007-13.178 26.939-28.375 26.939z"/><path d="m342.674 40.006 1.968 7.891h19.381l-10.809-44.438h-21.424l-10.724 44.438h19.706z"/><path d="m303.72 3.459h-20.393l10.661 44.438h20.027l-10.295-44.438z"/><path d="m317.468 62.806-2.896-12.503h-20.007l10.53 43.895h24.518l10.579-43.895h-19.706z"/><path d="m402.021 3.459h-20.164l-10.638 44.438h20.029l10.773-44.438z"/><path d="m367.65 62.806-3.041-12.503h-19.366l10.95 43.895h23.83l10.642-43.895h-20.022z"/><path d="m431.809 24.31h8.478s4.271 10.856 9.303 23.587h20.89c-6.354-15.928-13.987-35.233-15.07-38.48-1.833-5.5-7.562-5.958-9.624-5.958h-34.371v44.439h20.394z"/></g><path d="m411.416 50.303h20.393v43.895h-20.393z"/><path d="m481.761 72.2s-1.146.687-2.52-2.52c-.522-1.217-3.815-9.396-7.8-19.377h-20.899c6.173 15.609 13.137 33.135 14.721 36.791 2.979 6.874 7.333 7.104 13.978 7.104h22.226v-43.895h-19.706z" fill-rule="nonzero"/><path d="m481.761 3.459h19.706v44.439h-19.706z"/><path d="m568.306 28.664h-33.783c-2.545 0-3.934-1.146-3.934-2.521 0-1.374.926-2.978 2.545-2.978h59.467v-19.706h-59.467c-16.197 0-22.444 13.519-22.444 22.684 0 8.995 2.899 21.299 22.251 21.754h63.202c-4.472-10.205-13.959-19.233-27.837-19.233z" fill-rule="nonzero"/><path d="m578.255 60.972c0 7.562-7.172 13.061-13.883 13.061h-53.682v20.165h54.839c21.982 0 33.551-19.019 33.551-32.996 0-3.469-.671-7.22-1.982-10.899h-24.686c3.321 2.307 5.843 6.113 5.843 10.669z" fill-rule="nonzero"/><path d="m51.83 49.822h-51.83v8.063h4.956v28.364h-4.956v8.063h23.917v-8.063h-4.948v-8.678h15.476v-8.063h-15.476v-11.623h21.104v9.851h11.757z"/><path d="m101.101 86.249v-19.226l-12.507 27.042h-6.856l-12.558-27.15v19.334h4.774v8.063h-18.687v-8.063h5.85v-28.364h-5.85v-8.063h19.865l12.074 26.104 12.074-26.104h20.786v8.063h-4.952v28.364h4.952v8.063h-23.917v-8.063z"/></g></svg>