<svg clip-rule="evenodd" fill-rule="evenodd" stroke-linejoin="round" stroke-miterlimit="2" viewBox="0 0 600 282" xmlns="http://www.w3.org/2000/svg"><g fill="#fff" fill-rule="nonzero"><path d="m32.933 166.494h30.382c5.759 0 11.139 4.207 11.431 9.781h.276v-22.907h-42.089l-.02-40.209h40.608c5.785 0 11.169 4.191 11.472 9.75h.266l-.041-22.922-85.218.036v.251c5.738.313 10.042 6.389 10.042 12.066v105.332c0 5.657-4.304 11.759-10.042 12.081v.246h42.996v-.246c-5.744-.322-10.083-6.424-10.083-12.081z"/><path d="m120.912 195.046c0 13.515 11.272 25.202 25.182 25.202 13.894 0 25.207-11.84 25.207-25.361v-82.549c0-5.677-4.319-11.753-10.073-12.066v-.245l43.027-.041v.286c-5.743.313-10.093 6.389-10.093 12.066v80.213c0 25.817-21.406 40.859-47.956 40.859-26.595 0-48.232-15.042-48.232-40.859l.057-80.213c0-5.677-4.34-11.753-10.052-12.066v-.286h42.965v.286c-5.728.344-10.052 6.425-10.052 12.066z"/><path d="m472.468 121.039c-7.209-11.615-23.66-10.216-23.66-10.216-26.909 0-25.638 20.468-25.638 20.468s-1.85 10.267 11.671 17.271l26.903 14.253c25.971 13.895 22.892 33.641 22.892 33.641s1.173 36.888-53.141 36.888c0 0-15.78.482-24.715-2.859l-7.644-23.89h.266c8.275 11.897 32.314 13.613 32.314 13.613 30.52-1.337 30.73-22.016 30.73-22.016s1.373-8.904-10.575-15.354l-26.775-14.249c-27.953-14.894-24.751-34.952-24.751-34.952s-.661-36.289 47.392-36.289c0 0 21.569.553 25.007 3.909v19.782z"/><path d="m262.822 54.787c4.765 4.662 11.415 7.526 18.675 7.526 14.627 0 26.467-11.507 26.467-25.73 0-14.182-11.84-25.709-26.467-25.709 0 0-20.376-1.881-29.547 23.47l.031-19.028c6.824-8.685 17.389-14.997 29.516-14.997 20.637 0 37.334 16.221 37.334 36.264 0 20.012-16.697 36.294-37.334 36.294-10.309 0-19.633-4.042-26.371-10.636l-12.839-14.033c-3.52-3.417-8.361-5.497-13.669-5.497-10.693 0-19.362 8.402-19.362 18.782 0 10.421 8.669 18.844 19.362 18.844 0 0 14.299 1.865 23.332-15.365l.031 15.237c-5.534 6.527-13.982 10.693-23.363 10.693-16.692 0-30.249-13.168-30.249-29.409 0-16.21 13.557-29.347 30.249-29.347 8.315 0 15.867 3.248 21.349 8.608z"/><path d="m269.702 112.066c0-5.682-4.325-11.503-10.058-11.795v-.246h42.93v.246c-5.698.318-10.042 6.143-10.042 11.795v105.558c0 5.666 4.344 11.763 10.042 12.101v.241h-42.93v-.241c5.733-.338 10.058-6.435 10.058-12.101z"/><path d="m242.744 112.34c0-5.677 4.314-11.753 10.052-12.066v-.251h-42.996v.251c5.754.313 10.047 6.389 10.047 12.066l.036 131.964s-.482 23.302-19.254 36.71l.046.256c3.704-.605 42.099-7.69 42.099-44.779z"/><path d="m302.414 123.408h.256c5.82-10.129 14.796-10.247 14.796-10.247h23.276l.015 104.513c0 5.656-4.329 11.712-10.062 12.05v.241h43.052v-.241c-5.779-.338-10.124-6.435-10.124-12.05l.031-104.513 19.454-.046c5.907 0 10.585 4.58 10.754 10.293h.236l7.147-23.425h-91.664z"/><path d="m516.667 195.046c0 13.515 11.272 25.202 25.187 25.202 13.88 0 25.202-11.84 25.202-25.361v-82.549c0-5.677-4.324-11.753-10.052-12.066v-.245l42.996-.041v.286c-5.702.313-10.047 6.389-10.047 12.066v80.213c0 25.817-21.416 40.859-48.007 40.859-26.544 0-48.185-15.042-48.185-40.859l.03-80.213c0-5.677-4.329-11.753-10.072-12.066v-.286h43.006v.286c-5.759.344-10.088 6.425-10.088 12.066z"/></g></svg>