<svg clip-rule="evenodd" fill-rule="evenodd" stroke-linejoin="round" stroke-miterlimit="2" viewBox="0 0 600 135" xmlns="http://www.w3.org/2000/svg"><g fill="#fff"><path d="m169.109 99.916c-4.901 4.065-18.477 12.651-18.477 33.931h16.082c0-10.014 1.839-27.544 17.131-33.061v-11.271h-49.568v16.781h9.178c-.028-5.919 3.826-6.38 6.353-6.38z"/><path d="m224.446 99.916c-4.901 4.065-18.477 12.651-18.477 33.931h16.082c0-10.014 1.839-27.544 17.132-33.061v-11.271h-49.568v16.781h9.177c-.028-5.919 3.826-6.38 6.353-6.38z"/><path d="m51.935 89.515h-51.935v8.079h4.966v28.422h-4.966v8.079h23.965v-8.079h-4.958v-8.696h15.507v-8.079h-15.507v-11.647h21.147v9.871h11.781z"/><path d="m101.305 126.016v-19.265l-12.533 27.096h-6.87l-12.583-27.205v19.374h4.784v8.079h-18.725v-8.079h5.862v-28.422h-5.862v-8.079h18.725v.546l1.18-.546 12.098 26.156 12.099-26.156h20.827v8.079h-4.962v28.422h4.962v8.079h-23.965v-8.079z"/><path d="m439.21.94h33.203s-17.156 82.619-20.854 100.425c-.096.461.119.931.53 1.16.41.23.923.166 1.265-.157 16.284-15.374 106.855-100.888 106.855-100.888l39.791.13-120.307 113.841c-11.462 11.462-22.144 18.966-38.351 18.644-28.439-.567-29.534 0-29.534 0l27.402-133.155z"/><path d="m365.3 134.095h32.505l27.221-133.155h-33.089c-22.95 0-30.759 5.554-40.128 13.384l-126.018 119.523 41.139.248 40.446-38.914 56.927.02 4.902-23.487h-37.438l39.049-37.569c5.736-5.487 8.677-8.689 16.616-8.689z"/></g></svg>