<svg clip-rule="evenodd" fill-rule="evenodd" stroke-linejoin="round" stroke-miterlimit="2" viewBox="0 0 600 572" xmlns="http://www.w3.org/2000/svg"><g fill="#fff"><path d="m178.777 367.405h-69.796c-5.475 0-9.869 4.447-9.869 9.923 0 0 .021 0 .021.063h-.021v49.803h.021l-.021.042c0 5.455 4.394 9.944 9.869 9.944h69.796v33.227h-87.093v-.085c-14.252 0-25.777-11.525-25.777-25.735v-84.685c0-14.135 11.525-25.66 25.777-25.66h87.093z"/><path d="m203.976 274.925c0 14.485-11.705 26.137-26.127 26.137h-112.022v-33.672h94.448c5.561 0 10.018-4.542 10.018-10.071v-111.3c0-5.55-4.457-10.05-10.018-10.05h-50.758c-5.55 0-10.018 4.5-10.018 10.05v50.652c0 5.56 4.468 10.071 10.018 10.071h40.549v33.672h-58.122c-14.454 0-26.117-11.673-26.117-26.117v-85.894c0-14.433 11.663-26.127 26.117-26.127h85.905c14.422 0 26.127 11.694 26.127 26.127z"/><path d="m534.07 470.322h-33.195v-102.917h-23.325c-5.487 0-9.88 4.447-9.88 9.923v92.994h-33.195v-102.917h-23.336c-5.497 0-9.891 4.447-9.891 9.923v93.079h-33.184v-110.505c0-14.135 11.493-25.66 25.745-25.66h140.261z"/><path d="m534.163 274.925c0 14.485-11.715 26.137-26.116 26.137h-112.033v-33.672h94.449c5.582 0 10.06-4.542 10.06-10.071v-111.3c0-5.55-4.478-10.05-10.06-10.05h-50.748c-5.497 0-9.986 4.5-9.986 10.05v50.652c0 5.56 4.489 10.071 9.986 10.071h40.528v33.672h-58.091c-14.454 0-26.138-11.673-26.138-26.117v-85.894c0-14.433 11.684-26.127 26.138-26.127h85.895c14.401 0 26.116 11.694 26.116 26.127z"/><path d="m335.313 146.013v50.651c0 5.561-4.362 10.082-9.933 10.082h-50.737c-5.571 0-10.028-4.521-10.028-10.082v-50.651c0-5.551 4.457-10.04 10.028-10.04h50.737c5.571 0 9.933 4.489 9.933 10.04zm7.651-43.733h-85.937c-14.432 0-26.095 11.694-26.095 26.127v85.895c0 14.432 11.663 26.116 26.095 26.116h85.937c14.39 0 26.106-11.684 26.106-26.116v-85.895c0-14.433-11.716-26.127-26.106-26.127"/><path d="m308.288 377.323v49.867c0 5.476-4.393 9.943-9.848 9.943-.053 0-.064-.053-.117-.053v.053h-49.792v-.053s-.053.053-.106.053c-5.476 0-9.869-4.467-9.869-9.943v-49.867c0-5.476 4.393-9.922 9.869-9.922h50.015c5.455 0 9.848 4.446 9.848 9.922zm7.46-43.085h-84.642c-14.252 0-25.756 11.525-25.756 25.66v84.685c0 14.21 11.504 25.735 25.756 25.735h84.642c14.199 0 25.724-11.525 25.724-25.735v-84.685c0-14.135-11.525-25.66-25.724-25.66"/><path d="m587.244 528.167c0 8.554-3.449 16.237-9.052 21.851-5.603 5.592-13.297 9.031-21.829 9.031h-512.726c-8.543 0-16.226-3.439-21.829-9.031-5.603-5.614-9.031-13.297-9.052-21.851v-483.68c.021-8.543 3.449-16.215 9.052-21.829 5.603-5.593 13.286-9.031 21.829-9.042h512.726c8.532.011 16.226 3.449 21.829 9.042 5.603 5.614 9.052 13.286 9.052 21.829zm-.042-514.529c-7.874-7.896-18.805-12.777-30.839-12.777h-512.726c-12.034 0-22.965 4.881-30.839 12.777-7.895 7.874-12.798 18.826-12.798 30.849v483.68c0 12.035 4.903 22.986 12.798 30.861 7.874 7.884 18.805 12.787 30.839 12.787h512.726c12.034 0 22.965-4.903 30.839-12.787 7.895-7.875 12.798-18.826 12.798-30.861v-483.68c0-12.023-4.903-22.975-12.798-30.849" fill-rule="nonzero"/></g></svg>