<?xml version="1.0" encoding="UTF-8" standalone="no"?><!DOCTYPE svg PUBLIC "-//W3C//DTD SVG 1.1//EN" "http://www.w3.org/Graphics/SVG/1.1/DTD/svg11.dtd"><svg width="100%" height="100%" viewBox="0 0 600 572" version="1.1" xmlns="http://www.w3.org/2000/svg" xmlns:xlink="http://www.w3.org/1999/xlink" xml:space="preserve" xmlns:serif="http://www.serif.com/" style="fill-rule:evenodd;clip-rule:evenodd;stroke-linejoin:round;stroke-miterlimit:2;"><g id="gog"><path id="path52" d="M178.777,367.405l-69.796,0c-5.475,0 -9.869,4.447 -9.869,9.923c0,-0 0.021,-0 0.021,0.063l-0.021,0l0,49.803l0.021,-0l-0.021,0.042c0,5.455 4.394,9.944 9.869,9.944l69.796,0l0,33.227l-87.093,-0l-0,-0.085c-14.252,-0 -25.777,-11.525 -25.777,-25.735l-0,-84.685c-0,-14.135 11.525,-25.66 25.777,-25.66l87.093,0l0,33.163Z" style="fill:#fff;"/><path id="path56" d="M203.976,274.925c0,14.485 -11.705,26.137 -26.127,26.137l-112.022,0l0,-33.672l94.448,-0c5.561,-0 10.018,-4.542 10.018,-10.071l0,-111.3c0,-5.55 -4.457,-10.05 -10.018,-10.05l-50.758,0c-5.55,0 -10.018,4.5 -10.018,10.05l0,50.652c0,5.56 4.468,10.071 10.018,10.071l40.549,-0l0,33.672l-58.122,-0c-14.454,-0 -26.117,-11.673 -26.117,-26.117l0,-85.894c0,-14.433 11.663,-26.127 26.117,-26.127l85.905,-0c14.422,-0 26.127,11.694 26.127,26.127l0,146.522Z" style="fill:#fff;"/><path id="path60" d="M534.07,470.322l-33.195,-0l0,-102.917l-23.325,0c-5.487,0 -9.88,4.447 -9.88,9.923l-0,92.994l-33.195,-0l-0,-102.917l-23.336,0c-5.497,0 -9.891,4.447 -9.891,9.923l0,93.079l-33.184,-0l0,-110.505c0,-14.135 11.493,-25.66 25.745,-25.66l140.261,0l-0,136.08Z" style="fill:#fff;"/><path id="path64" d="M534.163,274.925c0,14.485 -11.715,26.137 -26.116,26.137l-112.033,0l0,-33.672l94.449,-0c5.582,-0 10.06,-4.542 10.06,-10.071l-0,-111.3c-0,-5.55 -4.478,-10.05 -10.06,-10.05l-50.748,0c-5.497,0 -9.986,4.5 -9.986,10.05l0,50.652c0,5.56 4.489,10.071 9.986,10.071l40.528,-0l0,33.672l-58.091,-0c-14.454,-0 -26.138,-11.673 -26.138,-26.117l0,-85.894c0,-14.433 11.684,-26.127 26.138,-26.127l85.895,-0c14.401,-0 26.116,11.694 26.116,26.127l0,146.522Z" style="fill:#fff;"/><path id="path68" d="M335.313,146.013l-0,50.651c-0,5.561 -4.362,10.082 -9.933,10.082l-50.737,-0c-5.571,-0 -10.028,-4.521 -10.028,-10.082l-0,-50.651c-0,-5.551 4.457,-10.04 10.028,-10.04l50.737,0c5.571,0 9.933,4.489 9.933,10.04Zm7.651,-43.733l-85.937,-0c-14.432,-0 -26.095,11.694 -26.095,26.127l-0,85.895c-0,14.432 11.663,26.116 26.095,26.116l85.937,0c14.39,0 26.106,-11.684 26.106,-26.116l0,-85.895c0,-14.433 -11.716,-26.127 -26.106,-26.127" style="fill:#fff;"/><path id="path72" d="M308.288,377.323l0,49.867c0,5.476 -4.393,9.943 -9.848,9.943c-0.053,0 -0.064,-0.053 -0.117,-0.053l0,0.053l-49.792,0l0,-0.053c0,0 -0.053,0.053 -0.106,0.053c-5.476,0 -9.869,-4.467 -9.869,-9.943l-0,-49.867c-0,-5.476 4.393,-9.922 9.869,-9.922l50.015,-0c5.455,-0 9.848,4.446 9.848,9.922Zm7.46,-43.085l-84.642,-0c-14.252,-0 -25.756,11.525 -25.756,25.66l0,84.685c0,14.21 11.504,25.735 25.756,25.735l84.642,-0c14.199,-0 25.724,-11.525 25.724,-25.735l0,-84.685c0,-14.135 -11.525,-25.66 -25.724,-25.66" style="fill:#fff;"/><path id="path76" d="M587.244,528.167c0,8.554 -3.449,16.237 -9.052,21.851c-5.603,5.592 -13.297,9.031 -21.829,9.031l-512.726,-0c-8.543,-0 -16.226,-3.439 -21.829,-9.031c-5.603,-5.614 -9.031,-13.297 -9.052,-21.851l-0,-483.68c0.021,-8.543 3.449,-16.215 9.052,-21.829c5.603,-5.593 13.286,-9.031 21.829,-9.042l512.726,0c8.532,0.011 16.226,3.449 21.829,9.042c5.603,5.614 9.052,13.286 9.052,21.829l0,483.68Zm-0.042,-514.529c-7.874,-7.896 -18.805,-12.777 -30.839,-12.777l-512.726,-0c-12.034,-0 -22.965,4.881 -30.839,12.777c-7.895,7.874 -12.798,18.826 -12.798,30.849l-0,483.68c-0,12.035 4.903,22.986 12.798,30.861c7.874,7.884 18.805,12.787 30.839,12.787l512.726,0c12.034,0 22.965,-4.903 30.839,-12.787c7.895,-7.875 12.798,-18.826 12.798,-30.861l-0,-483.68c-0,-12.023 -4.903,-22.975 -12.798,-30.849" style="fill:#fff;fill-rule:nonzero;"/></g></svg>