<svg clip-rule="evenodd" fill-rule="evenodd" stroke-linejoin="round" stroke-miterlimit="2" viewBox="0 0 600 207" xmlns="http://www.w3.org/2000/svg"><g fill="#fff" fill-rule="nonzero"><path d="m92.782 100.472h25.802v36.241c-8.05 2.586-18.216 4.005-28.783 4.005-42.826 0-67.996-36.673-67.996-72.49 0-35.128 22.767-59.768 54.53-59.768 20.099 0 31.794 6.809 42.257 16.294v11.824l19.618-19.619c-12.409-8.395-30.377-16.374-56.059-16.374-56.38 0-82.151 40.335-82.151 73.483 0 47.183 34.366 75.606 77.553 75.606 20.94 0 39.533-3.196 61.01-9.172v-37.443c0-1.914.842-3.228 2.099-4.382l6.777-6.777h-46.022z"/><path d="m208.369 51.222c-32.451 0-52.558 23.712-52.558 48.882 0 21.725 16.198 47.519 49.018 47.519 31.57 0 50.94-23.759 50.94-49.369 0-23.856-18.929-47.024-47.4-47.024zm-5.384 6.913c22.88 0 33.069 29.808 33.069 51.069 0 31.618-23.72 32.243-26.556 32.243-10.854 0-18.441-6.56-24.12-15.164-4.998-7.93-9.885-22.663-9.885-37.058 0-14.34 4.694-21.341 12.08-26.492 6.041-3.861 11.696-4.598 15.404-4.598z"/><path d="m420.504 51.214c-28.343 0-43.676 17.944-43.676 37.979 0 15.252 10.927 32.459 33.469 32.459h5.703s-1.553 3.773-1.561 7.418c0 5.376 1.931 8.396 6.031 13.042-38.788 2.363-54.377 18.008-54.377 34.823 0 14.724 14.1 29.216 43.731 29.216 35.079 0 53.248-19.475 53.248-38.588 0-13.474-6.713-20.86-23.712-33.597-4.999-3.885-5.968-6.36-5.968-9.268 0-4.166 2.491-6.922 3.404-7.963 1.61-1.698 4.398-3.637 5.44-4.566 5.711-4.838 13.778-11.999 13.778-26.291 0-9.805-4.078-18.241-13.37-26.139h11.343l8.524-8.524h-42.007zm-7.819 6.376c5.143 0 9.436 1.819 13.97 5.592 5.03 4.534 13.067 16.718 13.067 31.794 0 16.27-12.641 20.724-19.482 20.724-3.349 0-7.362-.937-10.759-3.26-7.546-4.894-15.037-17.92-15.037-33.421 0-13.987 8.331-21.429 18.241-21.429zm11.223 90.698c2.163 0 3.717.177 3.717.177s5.103 3.645 8.668 6.368c8.299 6.561 13.473 11.576 13.473 20.508 0 12.281-11.391 21.91-29.84 21.91-20.25 0-35.728-9.429-35.728-24.825 0-12.754 10.606-23.73 39.71-24.138z"/><path d="m468.648 144.812h38.908l5.927-5.928-11.159-1.394c-3.004-.368-4.789-2.964-4.789-5.479v-117.526c0-2.315 1.073-3.501 1.858-4.255l7.018-7.017h-33.181l-8.636 8.635h12.898v121.74c0 1.731-.545 2.908-1.714 4.118z"/><path d="m560.275 51.222c-21.725 0-44.804 16.558-44.804 46.286 0 24.552 16.558 50.115 47.496 50.115 7.714 0 14.067-.992 20.019-3.724 6.384-2.94 12.529-7.714 17.014-13.714-8.467 4.269-15.372 7.073-24.545 7.073-17.432 0-34.238-12.577-40.118-35.696l61.579-24.889c-3.557-12.681-13.586-25.451-36.633-25.451h-.008zm-4.022 6.801c11.657 0 20.083 9.589 20.083 17.095 0 2.427-1.521 3.709-4.534 4.894l-37.851 15.309s-1.025-4.767-1.025-9.917c0-21.606 15.622-27.381 23.327-27.381z"/><path d="m318.486 51.222c-32.452 0-52.559 23.712-52.559 48.882 0 21.725 16.199 47.519 49.018 47.519 31.57 0 50.941-23.759 50.941-49.369 0-23.856-18.93-47.024-47.4-47.024zm-5.384 6.913c22.879 0 33.068 29.808 33.068 51.069 0 31.618-23.72 32.243-26.556 32.243-10.854 0-18.44-6.56-24.119-15.164-4.999-7.93-9.886-22.663-9.886-37.058 0-14.34 4.694-21.341 12.081-26.492 6.04-3.861 11.695-4.598 15.404-4.598z"/></g></svg>