<svg clip-rule="evenodd" fill-rule="evenodd" stroke-linejoin="round" stroke-miterlimit="2" viewBox="0 0 600 154" xmlns="http://www.w3.org/2000/svg" xmlns:xlink="http://www.w3.org/1999/xlink"><clipPath id="a"><path clip-rule="evenodd" d="m97.539 56.39-31.039-17.92-59.866-34.566c-3.325-1.92-6.634-.757-6.634 3.253v140.829c0 3.007 2.368 4.301 5.255 2.636 2.887-1.671 61.248-35.363 61.248-35.363l31.036-17.917 29.832-17.222c3.502-2.021 3.165-4.793.211-6.386-2.953-1.59-30.043-17.344-30.043-17.344z"/></clipPath><g clip-path="url(#a)"><path d="m0 .073v153.582l133.006-76.791-133.006-76.791z" fill="#fff" fill-rule="nonzero"/></g><g fill="#fff" fill-rule="nonzero"><path d="m476.967 106.67c-2.887 0-5.522-.532-7.909-1.598-2.403-1.079-4.476-2.777-6.009-4.918h-.487c.324 2.59.487 5.049.487 7.366v18.243h-6.715v-64.244h5.461l.93 6.07h.324c1.727-2.427 3.737-4.18 6.03-5.26 2.291-1.077 4.924-1.617 7.888-1.617 5.88 0 10.419 2.01 13.616 6.027 3.194 4.02 4.798 9.658 4.798 16.912 0 7.286-1.625 12.94-4.876 16.976-3.255 4.028-7.765 6.043-13.538 6.043zm-.97-40.254c-4.531 0-7.805 1.253-9.832 3.763-2.023 2.51-3.063 6.501-3.116 11.978v1.497c0 6.23 1.04 10.689 3.116 13.372 2.077 2.687 5.408 4.029 9.992 4.029 3.833 0 6.835-1.551 9.005-4.651 2.171-3.101 3.256-7.378 3.256-12.828 0-5.528-1.083-9.772-3.256-12.726-2.17-2.959-5.228-4.434-9.165-4.434zm34.93 39.444h-6.72v-62.953h6.72zm38.61 0-1.336-6.31h-.323c-2.211 2.78-4.416 4.661-6.616 5.642-2.197.987-4.948 1.478-8.233 1.478-4.399 0-7.845-1.133-10.336-3.397-2.497-2.264-3.742-5.487-3.742-9.668 0-8.954 7.163-13.643 21.482-14.081l7.527-.243v-2.751c0-3.48-.748-6.049-2.25-7.706-1.497-1.66-3.889-2.488-7.182-2.488-3.7 0-7.875 1.133-12.542 3.397l-2.061-5.137c2.187-1.187 4.579-2.117 7.185-2.791s5.21-1.01 7.832-1.01c5.287 0 9.203 1.173 11.75 3.52s3.822 6.11 3.822 11.288v30.263h-4.974v-.006zm-15.171-4.731c4.175 0 7.46-1.146 9.852-3.437 2.387-2.291 3.582-5.504 3.582-9.633v-4.004l-6.72.278c-5.34.189-9.189 1.021-11.55 2.493-2.36 1.471-3.536 3.753-3.536 6.854 0 2.427.73 4.277 2.203 5.541 1.472 1.275 3.523 1.908 6.169 1.908zm24.048-39.61h7.199l9.71 25.286c2.131 5.771 3.456 9.941 3.967 12.504h.323c.351-1.379 1.086-3.731 2.203-7.067 1.117-3.328 4.782-13.571 10.983-30.728h7.201l-19.058 50.492c-1.887 4.987-4.092 8.526-6.621 10.625-2.521 2.087-5.619 3.132-9.283 3.132-2.053 0-4.071-.23-6.07-.687v-5.375c1.637.339 3.307.502 4.979.486 4.611 0 7.899-2.59 9.869-7.767l2.467-6.308z"/><path d="m359.637 65.641c2.136 1.764 6.584 5.471 6.584 12.522 0 6.857-3.895 10.109-7.789 13.167-1.206 1.203-2.601 2.508-2.601 4.55 0 2.036 1.392 3.151 2.411 3.985l3.341 2.593c4.082 3.432 7.789 6.589 7.789 12.988 0 8.719-8.441 17.529-24.391 17.529-13.453 0-19.943-6.399-19.943-13.266 0-3.338 1.666-8.07 7.143-11.315 5.746-3.52 13.541-3.982 17.713-4.268-1.299-1.668-2.782-3.43-2.782-6.298 0-1.577.467-2.507.93-3.619-1.024.094-2.042.185-2.97.185-9.828 0-15.393-7.327-15.393-14.557 0-4.269 1.948-9 5.934-12.43 5.289-4.359 11.595-5.102 16.607-5.102h19.101l-5.937 3.338h-5.747zm-6.586 41.182c-.738-.094-1.208-.094-2.13-.094-.834 0-5.849.185-9.746 1.492-2.039.732-7.976 2.961-7.976 9.55 0 6.578 6.404 11.315 16.329 11.315 8.896 0 13.632-4.277 13.632-10.021 0-4.742-3.058-7.233-10.109-12.242zm2.692-17.626c2.13-2.135 2.312-5.1 2.312-6.77 0-6.677-3.986-17.064-11.681-17.064-2.414 0-5.009 1.205-6.498 3.063-1.572 1.948-2.042 4.45-2.042 6.864 0 6.212 3.619 16.508 11.6 16.508 2.321-.003 4.814-1.115 6.309-2.601zm-54.494 16.14c-14.72 0-22.591-11.483-22.591-21.857 0-12.135 9.905-22.498 23.987-22.498 13.602 0 22.126 10.646 22.126 21.854-.002 10.921-8.422 22.501-23.522 22.501zm11.569-7.501c2.229-2.964 2.782-6.666 2.782-10.285 0-8.15-3.886-23.704-15.369-23.704-3.063.028-6.018 1.146-8.332 3.154-3.611 3.237-4.263 7.313-4.263 11.299 0 9.163 4.539 24.251 15.746 24.251 3.609.003 7.311-1.753 9.436-4.715zm-61.759 7.501c-14.722 0-22.594-11.483-22.594-21.857 0-12.135 9.911-22.498 23.987-22.498 13.611 0 22.129 10.646 22.129 21.854-.002 10.921-8.428 22.501-23.522 22.501zm11.574-7.501c2.224-2.964 2.78-6.666 2.78-10.285 0-8.15-3.892-23.704-15.375-23.704-3.063.028-6.018 1.147-8.331 3.154-3.611 3.237-4.258 7.313-4.258 11.299 0 9.163 4.533 24.251 15.743 24.251 3.611.003 7.314-1.753 9.441-4.715zm-41.243 6.049-13.314 3.071c-5.402.837-10.243 1.577-15.359 1.577-25.698 0-35.47-18.895-35.47-33.697 0-18.059 13.867-34.813 37.611-34.813 5.028 0 9.866.743 14.241 1.954 6.982 1.954 10.24 4.373 12.291 5.771l-7.731 7.356-3.255.74 2.328-3.726c-3.165-3.068-8.941-8.746-19.922-8.746-14.709 0-25.788 11.176-25.788 27.465 0 17.497 12.662 33.976 32.955 33.976 5.963 0 9.029-1.208 11.825-2.328v-14.982l-14.055.74 7.445-4.004h19.737l-2.419 2.323c-.658.564-.746.748-.933 1.489-.097.839-.185 3.544-.185 4.474z"/><path d="m389.066 101.204c-3.074-.278-3.72-.834-3.72-4.474v-52.692l.05-.602c.377-3.255 1.305-3.814 4.194-5.492h-13.314l-6.984 3.351h7.115v.043l-.005-.035v57.474c0 1.855-.366 2.141-2.507 4.932h16.478l3.446-2.045c-1.591-.182-3.173-.27-4.753-.46zm37.881.858c-1.013.559-2.031 1.206-3.047 1.665-3.058 1.39-6.198 1.757-8.976 1.757-2.951 0-7.575-.19-12.298-3.609-6.559-4.624-9.425-12.576-9.425-19.512 0-14.325 11.649-21.352 21.175-21.352 3.326 0 6.75.831 9.524 2.59 4.619 3.045 5.825 7.019 6.463 9.147l-21.72 8.786-7.121.556c2.307 11.745 10.259 18.577 19.045 18.577 4.715 0 8.139-1.663 11.283-3.232zm-8.687-27.555c1.754-.647 2.679-1.2 2.679-2.494 0-3.697-4.162-7.952-9.158-7.952-3.702 0-10.633 2.868-10.633 12.851 0 1.572.184 3.235.278 4.903z"/></g></svg>