<?xml version="1.0" encoding="UTF-8" standalone="no"?><!DOCTYPE svg PUBLIC "-//W3C//DTD SVG 1.1//EN" "http://www.w3.org/Graphics/SVG/1.1/DTD/svg11.dtd"><svg width="100%" height="100%" viewBox="0 0 600 129" version="1.1" xmlns="http://www.w3.org/2000/svg" xmlns:xlink="http://www.w3.org/1999/xlink" xml:space="preserve" xmlns:serif="http://www.serif.com/" style="fill-rule:evenodd;clip-rule:evenodd;stroke-linejoin:round;stroke-miterlimit:2;"><g id="gottlieb"><path d="M167.249,65.827l-0.144,0.144l0,-0.287l0.144,0.143Z" style="fill:#fff;"/><path d="M115.93,36.149l2.807,-3.944l-25.397,4.542c0,-0 -1.714,-21.236 -1.714,-21.236l-18.233,16.821c-0,0 -17.643,-22.898 -17.643,-22.898l-3.129,27.715c0,0 -28.739,-7.384 -28.739,-7.384l13.143,29.396c0,-0 -18.593,9.91 -18.593,9.91l22.735,12.135c-0,0 -11.847,25.521 -11.847,25.521l31.077,-15.485c0,-0 4.609,19.591 4.609,19.591l15.867,-19.637c0,0 26.148,12.871 26.148,12.871l-9.487,-28.746c0,-0 4.935,-20.258 4.935,-20.258c-0,0 13.461,-18.914 13.461,-18.914Zm-6.028,1.652l-11.095,15.589l-5.382,22.095l6.889,20.875c0,-0 -20.53,-10.106 -20.53,-10.106l-12.779,15.814c0,0 -3.903,-16.591 -3.903,-16.591l-25.444,12.679c-0,-0 8.669,-18.677 8.669,-18.677l-19.494,-10.406c-0,0 15.307,-8.159 15.307,-8.159l-11.304,-25.281c0,0 25.204,6.477 25.204,6.477l2.542,-22.523c0,0 14.316,18.58 14.316,18.58l15.441,-14.244c0,-0 1.411,17.482 1.411,17.482l20.152,-3.604Z" style="fill:#fff;"/><path d="M505.934,92.295c5.313,-28.559 -16.92,-52.306 -44.117,-52.306c-25.392,1.621 -42.99,17.118 -44.092,43.529c-0.87,25.551 21.322,44.66 43.489,44.356l43.789,-0l-0.02,-22.504l-43.769,-0.305c-6.439,0.149 -12.223,-1.948 -14.053,-12.77l58.773,0Zm-60.23,-16.726c2.819,-9.357 9.675,-13.7 16.504,-13.533c6.829,0.168 13.63,4.847 16.339,13.533l-32.843,0Z" style="fill:#fff;fill-rule:nonzero;"/><rect x="380.625" y="40.598" width="30.715" height="87.276" style="fill:#fff;"/><rect x="380.625" y="21.438" width="30.715" height="13.38" style="fill:#fff;"/><rect x="339.267" y="20.831" width="32.235" height="107.043" style="fill:#fff;"/><path d="M286.05,21.434l-0,83.026c0.483,5.843 1.196,21.857 18.246,23.414l30.714,-0l-0,-24.328c-13.305,2.934 -16.404,-4.567 -17.029,-14.596l-0,-26.153l16.118,0l0.265,-22.505l-16.383,0l-0,-18.858l-31.931,0Zm-54.119,0.017l-0,83.026m-0,-83.026l-0,83.026" style="fill:#fff;fill-rule:nonzero;"/><path d="M231.931,21.451l-0,83.026c0.483,5.843 1.196,21.856 18.246,23.413l30.713,0l0,-24.328c-13.304,2.934 -16.404,-4.566 -17.028,-14.596l-0,-26.153l16.118,0l0.265,-22.504l-16.383,-0l-0,-18.858l-31.931,-0Z" style="fill:#fff;fill-rule:nonzero;"/><path d="M228.574,80.895l0,0.023c0,25.108 -21.209,45.768 -46.983,45.768c-25.775,0 -46.984,-20.66 -46.984,-45.768l-0,-0.023c-0,-25.107 21.209,-45.768 46.984,-45.768c25.774,0 46.983,20.661 46.983,45.768Zm-30.106,0.005l0,0.011c0,11.094 -7.618,20.224 -16.877,20.224c-9.258,-0 -16.877,-9.13 -16.877,-20.224l-0,-0.011c-0,-11.094 7.619,-20.223 16.877,-20.223c9.259,0 16.877,9.129 16.877,20.223Z" style="fill:#fff;"/><path d="M511.731,20.284l0,107.651l32.54,-0c44.404,2.703 53.704,-28.245 55.482,-41.563c2.06,-15.427 -8.118,-53.792 -55.482,-48.755l0,-17.333l-32.54,-0Zm32.503,43.424l-0,37.711c14.48,4.744 25.495,-3.76 25.544,-19.463c-0.304,-13.508 -9.443,-23.649 -25.544,-18.248Z" style="fill:#fff;"/><path d="M67.096,75.872l35.369,0l11.464,35.886l-31.628,-16.118l-18.854,23.416l-6.053,-21.943l-33.176,15.252l10.947,-29.498l-24.633,-13.988l20.679,-10.949l-13.38,-33.145l31.627,7.299l3.954,-29.803l20.677,24.025l20.984,-17.942l1.218,19.763l31.321,-0l0,-27.367l-71.77,0c-16.28,-0.912 -57.7,19.119 -55.777,68.044c0.57,14.496 12.839,54.851 60.34,58.264l67.207,-0.41l0,-73.591c0,0 -60.355,0.144 -60.359,0.152c0,-0 -0.157,22.647 -0.157,22.653Z" style="fill:#fff;fill-rule:nonzero;"/></g></svg>