<svg clip-rule="evenodd" fill-rule="evenodd" stroke-linejoin="round" stroke-miterlimit="2" viewBox="0 0 600 202" xmlns="http://www.w3.org/2000/svg"><g fill="#fff"><g fill-rule="nonzero"><path d="m138.825 104.368c8.474 0 15.347-6.87 15.347-15.347 0-8.475-6.873-15.344-15.347-15.344s-15.347 6.869-15.347 15.344c0 8.477 6.873 15.347 15.347 15.347"/><path d="m171.526 116.312c-.007.031-.01-.035-.017 0l-73.506.096c-12.853 0-14.855-16.084-14.855-16.084h-27.775s2.842 43.471 42.63 43.471h56.84c2.938 0 1.715 2.756-.152 5.415-13.245 14.755-32.457 24.038-53.846 24.038-39.954 0-72.346-32.388-72.346-72.342 0-39.953 32.392-72.345 72.346-72.345 39.795 0 72.073 32.13 72.331 71.863h28.503c-.262-55.472-45.3-100.362-100.834-100.362-55.693 0-100.845 45.148-100.845 100.844 0 55.693 45.152 100.845 100.845 100.845 50.456 0 92.26-37.056 99.676-85.439z"/><path d="m226.022 127.424v-11.114h-26.546v81.24h26.546v-41.224c2.335-3.814 9.962-14.289 22.674-13.18v-27.9c-7.879-1.771-19.081 8.591-22.674 12.178"/><path d="m306.309 167.564c-3.469 6.201-10.09 10.397-17.699 10.397-3.759 0-7.265-1.04-10.283-2.821l50.309-30.536c-5.006-17.396-21.024-30.125-40.026-30.125-23.002 0-41.652 18.651-41.652 41.655 0 23.002 18.65 41.652 41.652 41.652 19.039 0 35.082-12.78 40.053-30.222zm-17.699-30.163c3.379 0 6.562.834 9.363 2.298l-29.616 17.483c.269-10.965 9.222-19.781 20.253-19.781"/></g><path d="m451.956 6.864h29.457v190.686h-29.457z"/><path d="m491.231 118.474h27.383v79.077h-27.383z"/><path d="m504.667 104.368c8.475 0 15.344-6.87 15.344-15.347 0-8.475-6.869-15.344-15.344-15.344-8.477 0-15.346 6.869-15.346 15.344 0 8.477 6.869 15.347 15.346 15.347" fill-rule="nonzero"/><path d="m600 135.982c0-25.675-33.425-24.999-39.333-14.827-1.485 2.553-3.004.779-3.004.779-.259-.737-.527-1.244-.806-1.568v-2.924h-26.353v80.11h26.353v-54.866c0-6.997 15.822-8.743 15.822-1.282v56.148h27.321z" fill-rule="nonzero"/><path d="m402.224 121.691c-2.126 3.714-4.516 4.85-6.539 4.95-7.389-15.371-32.236-13.59-37.252-4.95-1.485 2.549-3.004.775-3.004.775-.255-.734-.527-1.247-.806-1.567v-2.925h-26.357v79.576h26.357v-54.329c0-6.996 15.822-8.743 15.822-1.285v55.614h27.972v-54.329c0-6.996 15.822-8.743 15.822-1.285v55.614h27.322v-61.036c0-25.674-33.491-25.037-39.337-14.823" fill-rule="nonzero"/></g></svg>