<?xml version="1.0" encoding="UTF-8" standalone="no"?><!DOCTYPE svg PUBLIC "-//W3C//DTD SVG 1.1//EN" "http://www.w3.org/Graphics/SVG/1.1/DTD/svg11.dtd"><svg width="100%" height="100%" viewBox="0 0 600 538" version="1.1" xmlns="http://www.w3.org/2000/svg" xmlns:xlink="http://www.w3.org/1999/xlink" xml:space="preserve" xmlns:serif="http://www.serif.com/" style="fill-rule:evenodd;clip-rule:evenodd;stroke-linejoin:round;stroke-miterlimit:2;"><g id="handheld_game_and_watch_tall"><g id="handheld_game_and_watch"><g><path d="M156.183,125.102c-8.057,20.398 -24.169,31.54 -44.225,31.54c-25.54,0 -46.624,-22.626 -46.624,-49.367c0,-25.026 21.255,-48.338 45.939,-48.338c14.056,-0 24.855,4.971 35.654,17.313l21.598,-0c-12.856,-22.798 -33.769,-34.283 -58.109,-34.283c-32.055,0 -63.595,26.398 -63.595,67.537c0,34.282 29.312,64.108 63.595,64.108c33.768,0 65.651,-23.312 66.851,-65.48l-80.222,0l0,16.97l59.138,0Z" style="fill:#fff;fill-rule:nonzero;"/><path d="M272.69,171.212l-0,-126.845l-22.798,-0l-87.078,126.845l22.627,0l25.54,-37.368l43.196,0l0,37.368l18.513,0Zm-18.513,-54.337l-31.54,-0l31.198,-48.51l0.342,-0l0,48.51Z" style="fill:#fff;fill-rule:nonzero;"/><path d="M472.957,171.212l0,-126.845l-19.198,-0l-64.451,87.935l-0.343,-0l0,-87.935l-19.198,-0l-93.077,126.845l23.483,0l69.937,-97.876l0.342,-0l0,97.876l13.713,0l69.937,-97.876l0.343,-0l-0,97.876l18.512,0Z" style="fill:#fff;fill-rule:nonzero;"/><path d="M553.179,171.212l-0,-16.969l-49.882,-0l0,-38.568l49.882,-0l-0,-16.97l-49.882,-0l0,-37.368l49.882,-0l-0,-16.97l-68.394,-0l-0,126.845l68.394,0Z" style="fill:#fff;fill-rule:nonzero;"/></g><path d="M286.458,253.729c-7.37,-6.685 -10.799,-11.999 -10.799,-17.998c0,-8.914 5.657,-15.427 13.371,-15.427c7.542,-0 13.198,6.685 13.198,14.741c0,7.542 -3.599,12.513 -15.77,18.684Zm21.77,46.11c-6.685,12.856 -14.742,18.17 -24.512,18.17c-11.828,-0 -20.227,-8.914 -20.227,-21.084c0,-11.827 7.199,-19.884 17.998,-23.483l26.741,26.397Zm34.454,35.14l12.342,-12.513l-25.541,-26.055l20.741,-41.825l-20.055,0l-13.885,27.94l-16.798,-16.455c13.884,-6.685 21.255,-16.97 21.255,-30.512c-0,-17.827 -13.713,-32.225 -31.54,-32.225c-18.855,-0 -32.054,14.741 -32.054,32.397c-0,8.742 2.742,15.77 12.17,25.197c-15.77,7.028 -24.341,20.57 -24.341,36.169c0,21.426 17.313,37.882 38.74,37.882c14.57,-0 26.74,-7.028 36.854,-22.284l22.112,22.284Z" style="fill:#fff;fill-rule:nonzero;"/><g><path d="M145.637,493.946l88.449,-126.846l-23.312,0l-67.88,100.277l-0.343,-0l0,-100.277l-14.227,0l-67.879,100.277l-0.343,-0l-0,-100.277l-18.513,0l0,126.846l21.598,-0l60.509,-89.306l0.343,-0l-0,89.306l21.598,-0Z" style="fill:#fff;fill-rule:nonzero;"/><path d="M271.781,493.946l-0,-126.846l-22.798,0l-87.078,126.846l22.627,-0l25.54,-37.368l43.196,-0l0,37.368l18.513,-0Zm-18.513,-54.338l-31.54,-0l31.197,-48.51l0.343,-0l0,48.51Z" style="fill:#fff;fill-rule:nonzero;"/><path d="M322.893,493.946l0,-109.876l24.341,0l-0,-16.97l-67.194,0l-0,16.97l24.34,0l0,109.876l18.513,-0Z" style="fill:#fff;fill-rule:nonzero;"/><path d="M440.18,462.577c-10.285,11.656 -22.113,16.799 -35.311,16.799c-26.055,-0 -46.11,-23.484 -46.11,-50.053c-0,-25.198 20.569,-47.653 47.138,-47.653c14.913,0 26.055,6.685 35.654,17.827l22.284,0c-12.856,-23.826 -35.311,-34.797 -59.309,-34.797c-34.111,0 -64.28,28.112 -64.28,66.337c-0,33.768 28.969,65.308 64.108,65.308c25.369,0 45.768,-11.656 58.624,-33.768l-22.798,0Z" style="fill:#fff;fill-rule:nonzero;"/><path d="M558.411,493.946l-0,-126.846l-18.513,0l0,54.681l-52.281,-0l0,-54.681l-18.512,0l-0,126.846l18.512,-0l0,-55.195l52.281,-0l0,55.195l18.513,-0Z" style="fill:#fff;fill-rule:nonzero;"/></g></g><path d="M600,29.618c-0,-16.031 -13.016,-29.047 -29.047,-29.047l-541.906,0c-16.031,0 -29.047,13.016 -29.047,29.047l-0,479.076c-0,16.032 13.016,29.047 29.047,29.047l541.906,0c16.031,0 29.047,-13.015 29.047,-29.047l-0,-479.076Zm-8.585,0l-0,479.076c-0,11.293 -9.169,20.462 -20.462,20.462l-541.906,0c-11.293,0 -20.462,-9.169 -20.462,-20.462c0,0 0,-479.076 0,-479.076c0,-11.293 9.169,-20.462 20.462,-20.462l541.906,0c11.293,0 20.462,9.169 20.462,20.462Z" style="fill:#fff;"/></g></svg>