<svg clip-rule="evenodd" fill-rule="evenodd" stroke-linejoin="round" stroke-miterlimit="2" viewBox="0 0 600 538" xmlns="http://www.w3.org/2000/svg"><g fill="#fff"><g fill-rule="nonzero"><path d="m156.183 125.05c-8.057 20.398-24.169 31.54-44.225 31.54-25.54 0-46.624-22.627-46.624-49.367 0-25.027 21.255-48.339 45.939-48.339 14.056 0 24.855 4.971 35.654 17.313h21.598c-12.856-22.798-33.769-34.283-58.109-34.283-32.055 0-63.595 26.398-63.595 67.537 0 34.283 29.312 64.109 63.595 64.109 33.768 0 65.651-23.313 66.851-65.48h-80.222v16.97z"/><path d="m272.69 171.16v-126.846h-22.798l-87.078 126.846h22.627l25.54-37.368h43.196v37.368zm-18.513-54.338h-31.54l31.198-48.51h.342z"/><path d="m472.957 171.16v-126.846h-19.198l-64.451 87.935h-.343v-87.935h-19.198l-93.077 126.846h23.483l69.937-97.877h.342v97.877h13.713l69.937-97.877h.343v97.877z"/><path d="m553.179 171.16v-16.97h-49.882v-38.568h49.882v-16.97h-49.882v-37.368h49.882v-16.97h-68.394v126.846z"/><path d="m286.458 253.676c-7.37-6.685-10.799-11.998-10.799-17.998 0-8.913 5.657-15.427 13.371-15.427 7.542 0 13.198 6.685 13.198 14.741 0 7.543-3.599 12.514-15.77 18.684zm21.77 46.111c-6.685 12.855-14.742 18.169-24.512 18.169-11.828 0-20.227-8.913-20.227-21.083 0-11.828 7.199-19.884 17.998-23.484zm34.454 35.139 12.342-12.513-25.541-26.055 20.741-41.824h-20.055l-13.885 27.94-16.798-16.456c13.884-6.685 21.255-16.97 21.255-30.511 0-17.827-13.713-32.226-31.54-32.226-18.855 0-32.054 14.742-32.054 32.397 0 8.742 2.742 15.77 12.17 25.198-15.77 7.028-24.341 20.569-24.341 36.168 0 21.427 17.313 37.882 38.74 37.882 14.57 0 26.74-7.028 36.854-22.284z"/><path d="m145.637 493.893 88.449-126.845h-23.312l-67.88 100.276h-.343v-100.276h-14.227l-67.879 100.276h-.343v-100.276h-18.513v126.845h21.598l60.509-89.306h.343v89.306z"/><path d="m271.781 493.893v-126.845h-22.798l-87.078 126.845h22.627l25.54-37.368h43.196v37.368zm-18.513-54.338h-31.54l31.197-48.51h.343z"/><path d="m322.893 493.893v-109.876h24.341v-16.969h-67.194v16.969h24.34v109.876z"/><path d="m440.18 462.524c-10.285 11.657-22.113 16.799-35.311 16.799-26.055 0-46.11-23.484-46.11-50.053 0-25.197 20.569-47.652 47.138-47.652 14.913 0 26.055 6.685 35.654 17.827h22.284c-12.856-23.827-35.311-34.797-59.309-34.797-34.111 0-64.28 28.111-64.28 66.337 0 33.768 28.969 65.308 64.108 65.308 25.369 0 45.768-11.656 58.624-33.769z"/><path d="m558.411 493.893v-126.845h-18.513v54.68h-52.281v-54.68h-18.512v126.845h18.512v-55.195h52.281v55.195z"/></g><path d="m600 29.566c0-16.032-13.016-29.048-29.047-29.048h-541.906c-16.031 0-29.047 13.016-29.047 29.048v479.076c0 16.031 13.016 29.047 29.047 29.047h541.906c16.031 0 29.047-13.016 29.047-29.047v-479.076zm-8.585 0v479.076c0 11.293-9.169 20.461-20.462 20.461h-541.906c-11.293 0-20.462-9.168-20.462-20.461v-479.076c0-11.294 9.169-20.462 20.462-20.462h541.906c11.293 0 20.462 9.168 20.462 20.462z"/></g></svg>