<svg clip-rule="evenodd" fill-rule="evenodd" stroke-linejoin="round" stroke-miterlimit="2" viewBox="0 0 600 538" xmlns="http://www.w3.org/2000/svg"><g fill="#fff"><g fill-rule="nonzero"><path d="m156.183 124.921c-8.057 20.398-24.169 31.539-44.225 31.539-25.54 0-46.624-22.626-46.624-49.366 0-25.027 21.255-48.339 45.939-48.339 14.056 0 24.855 4.971 35.654 17.313h21.598c-12.856-22.798-33.769-34.283-58.109-34.283-32.055 0-63.595 26.398-63.595 67.537 0 34.283 29.312 64.108 63.595 64.108 33.768 0 65.651-23.312 66.851-65.479h-80.222v16.97z"/><path d="m272.69 171.031v-126.846h-22.798l-87.078 126.846h22.627l25.54-37.368h43.196v37.368zm-18.513-54.338h-31.54l31.198-48.51h.342z"/><path d="m472.957 171.031v-126.846h-19.198l-64.451 87.935h-.343v-87.935h-19.198l-93.077 126.846h23.483l69.937-97.877h.342v97.877h13.713l69.937-97.877h.343v97.877z"/><path d="m553.179 171.031v-16.97h-49.882v-38.568h49.882v-16.97h-49.882v-37.368h49.882v-16.97h-68.394v126.846z"/><path d="m286.458 253.547c-7.37-6.685-10.799-11.999-10.799-17.998 0-8.913 5.657-15.427 13.371-15.427 7.542 0 13.198 6.685 13.198 14.741 0 7.542-3.599 12.513-15.77 18.684zm21.77 46.11c-6.685 12.856-14.742 18.17-24.512 18.17-11.828 0-20.227-8.913-20.227-21.084 0-11.827 7.199-19.884 17.998-23.483zm34.454 35.14 12.342-12.513-25.541-26.055 20.741-41.825h-20.055l-13.885 27.941-16.798-16.456c13.884-6.685 21.255-16.97 21.255-30.511 0-17.827-13.713-32.226-31.54-32.226-18.855 0-32.054 14.741-32.054 32.397 0 8.742 2.742 15.77 12.17 25.198-15.77 7.028-24.341 20.569-24.341 36.168 0 21.426 17.313 37.882 38.74 37.882 14.57 0 26.74-7.028 36.854-22.284z"/><path d="m145.637 493.764 88.449-126.846h-23.312l-67.88 100.277h-.343v-100.277h-14.227l-67.879 100.277h-.343v-100.277h-18.513v126.846h21.598l60.509-89.306h.343v89.306z"/><path d="m271.781 493.764v-126.846h-22.798l-87.078 126.846h22.627l25.54-37.368h43.196v37.368zm-18.513-54.338h-31.54l31.197-48.51h.343z"/><path d="m322.893 493.764v-109.876h24.341v-16.97h-67.194v16.97h24.34v109.876z"/><path d="m440.18 462.395c-10.285 11.656-22.113 16.799-35.311 16.799-26.055 0-46.11-23.484-46.11-50.053 0-25.197 20.569-47.653 47.138-47.653 14.913 0 26.055 6.686 35.654 17.827h22.284c-12.856-23.826-35.311-34.796-59.309-34.796-34.111 0-64.28 28.111-64.28 66.336 0 33.769 28.969 65.309 64.108 65.309 25.369 0 45.768-11.656 58.624-33.769z"/><path d="m558.411 493.764v-126.846h-18.513v54.681h-52.281v-54.681h-18.512v126.846h18.512v-55.195h52.281v55.195z"/></g><path d="m600 29.437c0-16.032-13.016-29.048-29.047-29.048h-541.906c-16.031 0-29.047 13.016-29.047 29.048v479.075c0 16.032 13.016 29.048 29.047 29.048h541.906c16.031 0 29.047-13.016 29.047-29.048v-479.075zm-8.585 0v479.075c0 11.294-9.169 20.462-20.462 20.462h-541.906c-11.293 0-20.462-9.168-20.462-20.462v-479.075c0-11.294 9.169-20.462 20.462-20.462h541.906c11.293 0 20.462 9.168 20.462 20.462z"/></g></svg>