<svg clip-rule="evenodd" fill-rule="evenodd" stroke-linejoin="round" stroke-miterlimit="2" viewBox="0 0 600 49" xmlns="http://www.w3.org/2000/svg"><g fill="#fff" fill-rule="nonzero"><path d="m271.058 47.834v-6.209h-16.119v-40.202h-6.773v46.411z"/><path d="m307.835 36.357c-3.763 4.264-8.09 6.146-12.92 6.146-9.533 0-16.87-8.592-16.87-18.313 0-9.22 7.526-17.436 17.247-17.436 5.456 0 9.533 2.446 13.045 6.523h8.153c-4.704-8.718-12.92-12.732-21.7-12.732-12.481 0-23.519 10.286-23.519 24.272 0 12.355 10.599 23.895 23.456 23.895 9.282 0 16.746-4.265 21.45-12.355z"/><path d="m333.869 47.834c14.676 0 23.645-9.031 23.645-23.205 0-12.105-8.592-23.206-22.641-23.206h-16.118v46.411zm-8.341-6.209v-33.993h8.404c9.47 0 16.808 6.711 16.808 17.122 0 10.599-6.397 16.871-17.121 16.871z"/><path d="m422.821 31.039c-2.955 7.482-8.866 11.569-16.222 11.569-9.368 0-17.102-8.299-17.102-18.108 0-9.179 7.797-17.73 16.851-17.73 5.155 0 9.116 1.823 13.077 6.35h7.923c-4.716-8.362-12.387-12.575-21.315-12.575-11.757 0-23.326 9.683-23.326 24.773 0 12.575 10.751 23.515 23.326 23.515 12.386 0 24.081-8.551 24.521-24.018h-29.425v6.224z"/><path d="m464.52 47.953v-46.528h-8.362l-31.94 46.528h8.299l9.368-13.707h15.845v13.707zm-6.79-19.932h-11.569l11.443-17.793h.126z"/><path d="m539.341 47.953v-46.528h-7.042l-23.641 32.255h-.125v-32.255h-7.042l-34.141 46.528h8.614l25.652-35.902h.126v35.902h5.03l25.653-35.902h.126v35.902z"/><path d="m569.15 47.953v-6.225h-18.297v-14.147h18.297v-6.224h-18.297v-13.707h18.297v-6.225h-25.087v46.528z"/><path d="m599.057 13.497c-.126-8.111-5.659-12.952-13.33-12.952-7.167 0-13.015 5.596-13.015 12.701 0 6.602 2.515 10.374 14.021 14.272 4.968 1.698 6.477 3.836 6.477 7.231 0 4.59-2.956 7.859-7.483 7.859-4.526 0-7.482-3.395-7.544-8.425h-6.791c.126 8.74 6.036 14.65 14.335 14.65 8.237 0 14.273-5.659 14.273-14.084 0-8.048-3.71-11.821-13.77-15.027-4.526-1.446-6.727-3.332-6.727-6.602 0-3.395 2.955-6.35 6.224-6.35 3.836 0 6.539 2.515 6.539 6.727h6.791z"/><path d="m6.773 47.834v-18.314h6.774c10.035 0 16.244-4.954 16.244-14.048s-6.335-14.049-16.307-14.049h-13.484v46.411zm0-24.523v-15.679h6.648c5.896 0 9.596 2.76 9.596 7.84 0 5.017-3.575 7.839-9.533 7.839z"/><path d="m56.427 42.503c-10.599 0-17.373-8.718-17.373-18.063 0-6.899 5.143-17.686 17.686-17.686 9.784 0 17.059 8.404 17.059 18 0 8.467-6.397 17.749-17.372 17.749zm24.146-18.188c0-12.92-10.537-23.77-24.334-23.77-13.046 0-23.958 10.348-23.958 24.585 0 12.544 10.912 23.582 23.77 23.582 13.672 0 24.522-10.348 24.522-24.397z"/><path d="m119.734 36.357c-3.763 4.264-8.091 6.146-12.92 6.146-9.533 0-16.871-8.592-16.871-18.313 0-9.22 7.526-17.436 17.247-17.436 5.457 0 9.533 2.446 13.046 6.523h8.153c-4.704-8.718-12.92-12.732-21.7-12.732-12.481 0-23.519 10.286-23.519 24.272 0 12.355 10.599 23.895 23.456 23.895 9.282 0 16.745-4.265 21.449-12.355z"/><path d="m137.91 47.834v-46.411h-6.774v46.411zm26.09 0-18.125-23.394 18.125-23.017h-8.341l-17.624 23.017 17.624 23.394z"/><path d="m192.267 47.834v-6.209h-18.251v-14.111h18.251v-6.209h-18.251v-13.673h18.251v-6.209h-25.024v46.411z"/><path d="m211.897 47.834v-40.202h8.906v-6.209h-24.585v6.209h8.906v40.202z"/></g></svg>