<svg clip-rule="evenodd" fill-rule="evenodd" stroke-linejoin="round" stroke-miterlimit="2" viewBox="0 0 600 64" xmlns="http://www.w3.org/2000/svg"><g fill="#fff" fill-rule="nonzero"><path d="m367.561 40.498c-3.876 9.816-11.63 15.177-21.28 15.177-12.291 0-22.436-10.888-22.436-23.755 0-12.043 10.228-23.261 22.106-23.261 6.763 0 11.96 2.392 17.156 8.331h10.393c-6.186-10.97-16.249-16.497-27.962-16.497-15.424 0-30.601 12.703-30.601 32.499 0 16.497 14.104 30.849 30.601 30.849 16.25 0 31.592-11.218 32.169-31.509h-38.603v8.166z"/><path d="m422.267 62.686v-61.038h-10.971l-41.902 61.038h10.888l12.29-17.981h20.786v17.981zm-8.909-26.147h-15.177l15.012-23.343h.165z"/><path d="m520.423 62.686v-61.038h-9.239l-31.014 42.314h-.165v-42.314h-9.238l-44.789 61.038h11.301l33.653-47.098h.165v47.098h6.599l33.653-47.098h.165v47.098z"/><path d="m559.528 62.686v-8.166h-24.003v-18.559h24.003v-8.165h-24.003v-17.982h24.003v-8.166h-32.911v61.038z"/><path d="m598.763 17.485c-.165-10.64-7.424-16.992-17.487-16.992-9.403 0-17.074 7.341-17.074 16.662 0 8.661 3.299 13.61 18.394 18.724 6.516 2.227 8.496 5.031 8.496 9.486 0 6.021-3.877 10.31-9.816 10.31s-9.815-4.454-9.898-11.053h-8.908c.165 11.466 7.918 19.219 18.806 19.219 10.806 0 18.724-7.424 18.724-18.476 0-10.558-4.867-15.507-18.064-19.714-5.939-1.897-8.826-4.372-8.826-8.661 0-4.454 3.877-8.331 8.166-8.331 5.032 0 8.578 3.3 8.578 8.826z"/><path d="m8.886 62.531v-24.025h8.886c13.164 0 21.31-6.5 21.31-18.431 0-11.93-8.31-18.43-21.392-18.43h-17.69v60.886zm0-32.171v-20.569h8.721c7.735 0 12.589 3.62 12.589 10.284 0 6.583-4.69 10.285-12.506 10.285z"/><path d="m74.025 55.537c-13.905 0-22.791-11.437-22.791-23.696 0-9.05 6.747-23.202 23.203-23.202 12.835 0 22.379 11.025 22.379 23.613 0 11.108-8.392 23.285-22.791 23.285zm31.677-23.86c0-16.95-13.822-31.184-31.923-31.184-17.114 0-31.431 13.576-31.431 32.253 0 16.456 14.317 30.937 31.184 30.937 17.936 0 32.17-13.576 32.17-32.006z"/><path d="m157.077 47.474c-4.937 5.595-10.614 8.063-16.949 8.063-12.507 0-22.133-11.272-22.133-24.025 0-12.095 9.873-22.873 22.626-22.873 7.158 0 12.506 3.209 17.114 8.557h10.696c-6.171-11.437-16.949-16.703-28.468-16.703-16.373 0-30.854 13.494-30.854 31.842 0 16.208 13.905 31.348 30.772 31.348 12.177 0 21.968-5.595 28.139-16.209z"/><path d="m180.921 62.531v-60.886h-8.886v60.886zm34.228 0-23.778-30.69 23.778-30.196h-10.943l-23.12 30.196 23.12 30.69z"/><path d="m252.232 62.531v-8.146h-23.943v-18.512h23.943v-8.146h-23.943v-17.936h23.943v-8.146h-32.829v60.886z"/><path d="m277.984 62.531v-52.74h11.684v-8.146h-32.253v8.146h11.683v52.74z"/></g></svg>