<svg clip-rule="evenodd" fill-rule="evenodd" stroke-linejoin="round" stroke-miterlimit="2" viewBox="0 0 600 65" xmlns="http://www.w3.org/2000/svg"><g fill="#fff" fill-rule="nonzero"><path d="m53.076 40.89c-3.91 9.9-11.73 15.308-21.464 15.308-12.395 0-22.627-10.982-22.627-23.959 0-12.146 10.315-23.46 22.295-23.46 6.821 0 12.062 2.412 17.303 8.402h10.482c-6.239-11.064-16.388-16.638-28.201-16.638-15.557 0-30.864 12.811-30.864 32.777 0 16.638 14.226 31.113 30.864 31.113 16.388 0 31.862-11.314 32.444-31.778h-38.933v8.235z"/><path d="m108.619 63.269v-61.561h-11.064l-42.261 61.561h10.981l12.396-18.136h20.964v18.136zm-8.984-26.372h-15.308l15.141-23.543h.167z"/><path d="m205.813 63.269v-61.561h-9.317l-31.28 42.676h-.166v-42.676h-9.317l-45.173 61.561h11.397l33.942-47.502h.166v47.502h6.656l33.941-47.502h.167v47.502z"/><path d="m244.747 63.269v-8.236h-24.209v-18.718h24.209v-8.236h-24.209v-18.135h24.209v-8.236h-33.193v61.561z"/><path d="m289.359 25.001c-3.577-3.244-5.241-5.823-5.241-8.735 0-4.326 2.745-7.487 6.489-7.487 3.66 0 6.405 3.244 6.405 7.154 0 3.661-1.747 6.073-7.653 9.068zm10.565 22.378c-3.244 6.24-7.154 8.819-11.896 8.819-5.74 0-9.817-4.326-9.817-10.233 0-5.74 3.494-9.65 8.735-11.397zm16.721 17.054 5.99-6.073-12.395-12.644 10.066-20.299h-9.734l-6.738 13.56-8.153-7.986c6.739-3.245 10.316-8.236 10.316-14.808 0-8.652-6.655-15.64-15.307-15.64-9.151 0-15.557 7.154-15.557 15.723 0 4.243 1.331 7.654 5.907 12.229-7.654 3.411-11.813 9.983-11.813 17.553 0 10.399 8.402 18.385 18.801 18.385 7.071 0 12.977-3.41 17.886-10.814z"/><path d="m399.671 63.269 42.927-61.561h-11.314l-32.944 48.666h-.166v-48.666h-6.905l-32.943 48.666h-.167v-48.666h-8.984v61.561h10.482l29.366-43.343h.166v43.343z"/><path d="m460.892 63.269v-61.561h-11.064l-42.261 61.561h10.981l12.395-18.136h20.964v18.136zm-8.985-26.372h-15.307l15.141-23.543h.166z"/><path d="m485.698 63.269v-53.325h11.813v-8.236h-32.611v8.236h11.813v53.325z"/><path d="m542.62 48.045c-4.992 5.657-10.732 8.153-17.137 8.153-12.645 0-22.379-11.398-22.379-24.292 0-12.229 9.983-23.127 22.878-23.127 7.237 0 12.645 3.244 17.303 8.652h10.815c-6.239-11.564-17.137-16.888-28.784-16.888-16.555 0-31.196 13.643-31.196 32.195 0 16.388 14.059 31.695 31.113 31.695 12.312 0 22.212-5.657 28.451-16.388z"/><path d="m600 63.269v-61.561h-8.985v26.537h-25.373v-26.537h-8.984v61.561h8.984v-26.788h25.373v26.788z"/></g></svg>