<?xml version="1.0" encoding="UTF-8" standalone="no"?><!DOCTYPE svg PUBLIC "-//W3C//DTD SVG 1.1//EN" "http://www.w3.org/Graphics/SVG/1.1/DTD/svg11.dtd"><svg width="100%" height="100%" viewBox="0 0 600 50" version="1.1" xmlns="http://www.w3.org/2000/svg" xmlns:xlink="http://www.w3.org/1999/xlink" xml:space="preserve" xmlns:serif="http://www.serif.com/" style="fill-rule:evenodd;clip-rule:evenodd;stroke-linejoin:round;stroke-miterlimit:2;"><g id="handheld_pocket_lcd_games"><g><path d="M271.058,48.016l-0,-6.209l-16.119,-0l0,-40.202l-6.773,-0l-0,46.411l22.892,-0Z" style="fill:#fff;fill-rule:nonzero;"/><path d="M307.835,36.538c-3.763,4.265 -8.09,6.147 -12.92,6.147c-9.533,-0 -16.87,-8.593 -16.87,-18.314c-0,-9.219 7.526,-17.435 17.247,-17.435c5.456,-0 9.533,2.446 13.045,6.523l8.153,-0c-4.704,-8.718 -12.92,-12.732 -21.7,-12.732c-12.481,-0 -23.519,10.286 -23.519,24.271c0,12.356 10.599,23.896 23.456,23.896c9.282,-0 16.746,-4.265 21.45,-12.356l-8.342,0Z" style="fill:#fff;fill-rule:nonzero;"/><path d="M333.869,48.016c14.676,-0 23.645,-9.032 23.645,-23.206c-0,-12.104 -8.592,-23.205 -22.641,-23.205l-16.118,-0l-0,46.411l15.114,-0Zm-8.341,-6.209l0,-33.993l8.404,-0c9.47,-0 16.808,6.711 16.808,17.122c0,10.599 -6.397,16.871 -17.121,16.871l-8.091,-0Z" style="fill:#fff;fill-rule:nonzero;"/></g><g><path d="M422.821,31.221c-2.955,7.482 -8.866,11.569 -16.222,11.569c-9.368,-0 -17.102,-8.299 -17.102,-18.108c0,-9.18 7.797,-17.731 16.851,-17.731c5.155,0 9.116,1.824 13.077,6.351l7.923,-0c-4.716,-8.362 -12.387,-12.575 -21.315,-12.575c-11.757,-0 -23.326,9.683 -23.326,24.772c-0,12.575 10.751,23.516 23.326,23.516c12.386,-0 24.081,-8.551 24.521,-24.019l-29.425,0l-0,6.225l21.692,0Z" style="fill:#fff;fill-rule:nonzero;"/><path d="M464.52,48.134l0,-46.527l-8.362,0l-31.94,46.527l8.299,0l9.368,-13.706l15.845,-0l-0,13.706l6.79,0Zm-6.79,-19.931l-11.569,0l11.443,-17.793l0.126,-0l-0,17.793Z" style="fill:#fff;fill-rule:nonzero;"/><path d="M539.341,48.134l0,-46.527l-7.042,0l-23.641,32.255l-0.125,-0l-0,-32.255l-7.042,0l-34.141,46.527l8.614,0l25.652,-35.901l0.126,-0l0,35.901l5.03,0l25.653,-35.901l0.126,-0l-0,35.901l6.79,0Z" style="fill:#fff;fill-rule:nonzero;"/><path d="M569.15,48.134l-0,-6.224l-18.297,-0l0,-14.147l18.297,-0l-0,-6.225l-18.297,0l0,-13.706l18.297,-0l-0,-6.225l-25.087,0l-0,46.527l25.087,0Z" style="fill:#fff;fill-rule:nonzero;"/><path d="M599.057,13.679c-0.126,-8.111 -5.659,-12.952 -13.33,-12.952c-7.167,-0 -13.015,5.596 -13.015,12.701c0,6.601 2.515,10.374 14.021,14.272c4.968,1.698 6.477,3.835 6.477,7.231c-0,4.59 -2.956,7.859 -7.483,7.859c-4.526,-0 -7.482,-3.395 -7.544,-8.425l-6.791,-0c0.126,8.739 6.036,14.65 14.335,14.65c8.237,-0 14.273,-5.659 14.273,-14.084c-0,-8.048 -3.71,-11.821 -13.77,-15.027c-4.526,-1.446 -6.727,-3.333 -6.727,-6.602c-0,-3.395 2.955,-6.351 6.224,-6.351c3.836,0 6.539,2.515 6.539,6.728l6.791,0Z" style="fill:#fff;fill-rule:nonzero;"/></g><g><path d="M6.773,48.016l0,-18.314l6.774,0c10.035,0 16.244,-4.954 16.244,-14.048c-0,-9.094 -6.335,-14.049 -16.307,-14.049l-13.484,-0l-0,46.411l6.773,-0Zm0,-24.523l0,-15.679l6.648,-0c5.896,-0 9.596,2.76 9.596,7.84c0,5.017 -3.575,7.839 -9.533,7.839l-6.711,0Z" style="fill:#fff;fill-rule:nonzero;"/><path d="M56.427,42.685c-10.599,-0 -17.373,-8.718 -17.373,-18.063c0,-6.899 5.143,-17.686 17.686,-17.686c9.784,-0 17.059,8.404 17.059,18c0,8.467 -6.397,17.749 -17.372,17.749Zm24.146,-18.188c-0,-12.92 -10.537,-23.77 -24.334,-23.77c-13.046,-0 -23.958,10.348 -23.958,24.585c-0,12.544 10.912,23.582 23.77,23.582c13.672,-0 24.522,-10.349 24.522,-24.397Z" style="fill:#fff;fill-rule:nonzero;"/><path d="M119.734,36.538c-3.763,4.265 -8.091,6.147 -12.92,6.147c-9.533,-0 -16.871,-8.593 -16.871,-18.314c0,-9.219 7.526,-17.435 17.247,-17.435c5.457,-0 9.533,2.446 13.046,6.523l8.153,-0c-4.704,-8.718 -12.92,-12.732 -21.7,-12.732c-12.481,-0 -23.519,10.286 -23.519,24.271c-0,12.356 10.599,23.896 23.456,23.896c9.282,-0 16.745,-4.265 21.449,-12.356l-8.341,0Z" style="fill:#fff;fill-rule:nonzero;"/><path d="M137.91,48.016l-0,-46.411l-6.774,-0l0,46.411l6.774,-0Zm26.09,-0l-18.125,-23.394l18.125,-23.017l-8.341,-0l-17.624,23.017l17.624,23.394l8.341,-0Z" style="fill:#fff;fill-rule:nonzero;"/><path d="M192.267,48.016l-0,-6.209l-18.251,-0l0,-14.112l18.251,0l-0,-6.209l-18.251,0l0,-13.672l18.251,-0l-0,-6.209l-25.024,-0l-0,46.411l25.024,-0Z" style="fill:#fff;fill-rule:nonzero;"/><path d="M211.897,48.016l0,-40.202l8.906,-0l0,-6.209l-24.585,-0l0,6.209l8.906,-0l-0,40.202l6.773,-0Z" style="fill:#fff;fill-rule:nonzero;"/></g></g></svg>