<svg clip-rule="evenodd" fill-rule="evenodd" stroke-linejoin="round" stroke-miterlimit="2" viewBox="0 0 600 137" xmlns="http://www.w3.org/2000/svg"><path d="m223.467 40.58v-39.129c0-.543-.327-1.032-.829-1.24-.501-.208-1.079-.093-1.462.291l-54.694 54.693-.37-.203c-1.501-.903-3.069-1.647-4.758-2.254 3.262-1.748 6.071-4.151 8.715-7.456 3.237-4.046 3.75-9.031 3.75-13.833 0-7.257-2.767-13.459-7.976-17.948-5.46-4.704-13.506-7.241-23.297-7.241h-49.631c-.741 0-1.342.601-1.342 1.343v94.299c0 .741.601 1.342 1.342 1.342h70.395c.356 0 .697-.141.949-.393l36.208-36.207v39.02c0 .543.327 1.032.828 1.24.502.208 1.079.093 1.463-.291l2.967-2.967 31.625-31.624v25.371c0 .08-.062.145-.184.267 0 0-36.917 36.917-36.917 36.917-.384.383-.499.961-.291 1.462.208.502.697.829 1.24.829h41.745c.355 0 .696-.141.948-.392l.51-.51 62.804-62.803v28.576c0 .741.601 1.342 1.342 1.342h47.164c.356 0 .697-.141.948-.392l.51-.51 36.079-36.078v39.997c0 .543.327 1.033.828 1.24.502.208 1.079.093 1.463-.291l2.968-2.967 31.516-31.515v21.236c-.088.104-.235.269-.401.436 0 0-7.204 7.204-7.204 7.204-.384.384-.499.962-.291 1.463.207.502.697.829 1.24.829h106.549c.355 0 .696-.141.948-.393l.51-.509 21.239-21.239s2.967-2.967 2.967-2.967c.384-.384.499-.962.291-1.463-.208-.502-.697-.829-1.24-.829h-68.516l10.874-10.874c.169-.169.303-.13.918-.13h18.7c.356 0 .697-.141.949-.393l20.988-20.988 2.968-2.968c.383-.384.498-.961.29-1.463-.207-.501-.697-.828-1.24-.828h-16.694l11.335-11.336c.171-.17.276-.317.448-.398.174-.082.402-.084.769-.084h38.255c.356 0 .698-.142.949-.394l21.015-21.015s2.968-2.967 2.968-2.967c.384-.384.499-.961.291-1.463-.208-.501-.697-.829-1.24-.829h-74.745c-.356 0-.698.142-.95.394l-64.399 64.399v-63.382c0-.543-.327-1.033-.829-1.241-.501-.207-1.079-.093-1.463.291l-40.295 40.296v-39.618c0-.543-.327-1.032-.829-1.24-.501-.208-1.079-.093-1.463.291l-2.967 2.967-74.429 74.429v-76.393c0-.543-.327-1.032-.828-1.24-.502-.208-1.079-.093-1.463.291l-2.967 2.967-65.086 65.086v-67.158c0-.543-.327-1.032-.828-1.24-.502-.208-1.079-.093-1.463.291l-40.187 40.187zm-135.174-32.977c0-.742-.601-1.343-1.342-1.343h-25.857c-.741 0-1.342.601-1.342 1.343v34.378h-30.863v-34.378c0-.742-.601-1.343-1.343-1.343h-26.204c-.741 0-1.342.601-1.342 1.343v127.594c0 .542.326 1.031.827 1.24.501.208 1.077.094 1.462-.288l2.963-2.947s22.728-22.597 22.728-22.597.512-.509.512-.509c.254-.252.397-.595.397-.952v-41.736h30.863v34.494c0 .741.601 1.342 1.342 1.342h25.857c.741 0 1.342-.601 1.342-1.342v-94.299zm31.097 72.504v-15.321h19.234c6.632 0 11.108 2.681 11.108 7.269 0 .086-.002.171-.004.257l-1.29 1.299c-1.744 1.758-4.883 4.924-5.866 5.869-.225.083-.636.152-1.203.243-1.327.212-3.335.384-5.867.384zm0-35.764v-14.539h19.234c4.008 0 7.269 3.261 7.269 7.269s-3.261 7.27-7.269 7.27z" fill="#fff"/></svg>