<svg clip-rule="evenodd" fill-rule="evenodd" stroke-linejoin="round" stroke-miterlimit="2" viewBox="0 0 600 88" xmlns="http://www.w3.org/2000/svg"><g fill="#fff"><path d="m569.508.431h-71.837c-2.564 0-4.642 2.079-4.642 4.643v69.104c0 7.346 5.953 13.301 13.3 13.301 7.346 0 13.301-5.955 13.301-13.301v-49.808h5.89v49.809c0 7.346 5.956 13.301 13.301 13.301 7.343 0 13.298-5.955 13.298-13.301v-49.809h6.696l15.258 53.206c1.663 5.8 6.951 9.581 12.699 9.581 1.206 0 2.431-.166 3.65-.516 7.016-2.016 11.075-9.335 9.062-16.352l-17.219-60.053c-1.017-3.554-3.4-6.344-6.414-7.974-1.84-1.153-4.011-1.831-6.343-1.831z" fill-rule="nonzero"/><path d="m122.926 74.176v-69.102c0-2.564-2.078-4.643-4.642-4.643h-1.278c-.037 0-.073-.001-.11-.001h-78.388c-.037 0-.074.001-.111.001h-1.277c-1.232 0-2.412.49-3.283 1.36-.871.871-1.36 2.052-1.36 3.283v69.103c0 7.346 5.955 13.301 13.301 13.301 7.345 0 13.146-5.955 13.146-13.301v-46.396c0-1.461 1.197-2.658 2.661-2.658h31.982c1.463 0 2.758 1.197 2.758 2.658v46.395c0 7.345 5.955 13.301 13.301 13.301 7.345 0 13.3-5.956 13.3-13.301z"/><g fill-rule="nonzero"><path d="m13.301 87.478c-7.346 0-13.301-5.955-13.301-13.301v-60.447c0-7.347 5.955-13.301 13.301-13.301 7.345 0 13.3 5.953 13.3 13.301v60.446c0 7.347-5.955 13.302-13.3 13.302z"/><path d="m193.675 31.606h-40.149v-7.236h40.149c6.611 0 11.97-5.359 11.97-11.969 0-6.612-5.359-11.971-11.97-11.971h-54.78c-6.612 0-11.971 5.359-11.971 11.971v61.776c0 7.346 5.956 13.301 13.301 13.301s13.301-5.955 13.301-13.301v-18.632h40.149c6.611 0 11.97-5.359 11.97-11.971.001-6.609-5.358-11.968-11.97-11.968z"/><path d="m277.661.43h-45.168c-12.567 0-22.849 10.282-22.849 22.849v41.349c0 12.567 10.282 22.849 22.849 22.849h45.168c12.568 0 22.85-10.282 22.85-22.849v-41.348c0-12.567-10.282-22.85-22.85-22.85zm-2.937 59.685c0 1.463-1.197 2.66-2.66 2.66h-33.975c-1.463 0-2.66-1.197-2.66-2.66v-32.323c0-1.461 1.197-2.658 2.66-2.658h33.975c1.463 0 2.66 1.197 2.66 2.658z"/><path d="m464.774.43h-45.17c-12.564 0-22.849 10.282-22.849 22.849v41.349c0 12.567 10.285 22.849 22.849 22.849h45.17c12.567 0 22.847-10.282 22.847-22.849v-41.348c0-12.567-10.28-22.85-22.847-22.85zm-2.939 59.685c0 1.463-1.197 2.66-2.658 2.66h-33.974c-1.463 0-2.66-1.197-2.66-2.66v-32.323c0-1.461 1.197-2.658 2.66-2.658h33.974c1.461 0 2.658 1.197 2.658 2.658z"/><path d="m382.442 62.776h-47.55c-1.463 0-2.66-1.197-2.66-2.66v-32.324c0-1.461 1.197-2.658 2.66-2.658h47.55c6.819 0 12.353-5.529 12.353-12.353 0-6.82-5.531-12.352-12.353-12.352h-53.939c-12.501 0-22.729 10.228-22.729 22.73v41.588c0 12.498 10.228 22.73 22.729 22.73h53.939c6.819 0 12.353-5.529 12.353-12.354 0-6.821-5.531-12.347-12.353-12.347z"/></g></g></svg>