<?xml version="1.0" encoding="UTF-8" standalone="no"?><!DOCTYPE svg PUBLIC "-//W3C//DTD SVG 1.1//EN" "http://www.w3.org/Graphics/SVG/1.1/DTD/svg11.dtd"><svg width="100%" height="100%" viewBox="0 0 600 188" version="1.1" xmlns="http://www.w3.org/2000/svg" xmlns:xlink="http://www.w3.org/1999/xlink" xml:space="preserve" xmlns:serif="http://www.serif.com/" style="fill-rule:evenodd;clip-rule:evenodd;stroke-linejoin:round;stroke-miterlimit:2;"><g id="jaleco"><path id="path5138" d="M100.681,0.522c-55.961,0 -101.066,41.968 -100.679,93.671c0.388,51.704 46.12,93.659 102.08,93.659c55.961,0 101.066,-41.955 100.678,-93.659c-0.387,-51.703 -46.119,-93.671 -102.079,-93.671Zm-46.878,121.171l12.242,13.026l14.518,-13.026l13.464,13.026l13.128,-13.026l13.631,13.026l13.644,-13.026l27.107,27.717l-13.284,13.117l-14.171,-13.117l-12.769,13.117l-13.643,-13.117l-13.116,13.117l-14.338,-13.117l-13.464,13.117l-26.412,-27.808l13.463,-13.026Zm26.76,-47.881l13.296,13.206l13.643,-13.206l13.284,13.206l14.351,-13.206l13.116,13.206l13.116,-13.206l27.287,27.898l-12.949,12.853l-13.296,-12.853l-13.99,12.853l-13.812,-12.853l-12.768,12.853l-14.339,-12.853l-13.116,12.853l-13.823,-12.853l-13.643,12.853l-12.937,-12.853l-13.296,12.853l-26.58,-27.545l12.41,-13.206l14.17,13.206l12.769,-13.206l12.937,13.206l14.17,-13.206Zm-26.76,-47.964l12.242,13.026l14.518,-13.026l13.464,13.026l13.128,-13.026l13.631,13.026l13.644,-13.026l27.107,27.718l-13.284,13.116l-14.171,-13.116l-12.769,13.116l-13.643,-13.116l-13.116,13.116l-14.338,-13.116l-13.464,13.116l-26.412,-27.808l13.463,-13.026Z" style="fill:#fff;fill-rule:nonzero;"/><path id="path4135" d="M251.54,48.396l20.572,0l-0,64.286c-0,43.948 -56.608,33.958 -55.715,-0.857l19.715,0c-0.152,11.867 15.428,16.986 15.428,0.857l0,-64.286Z" style="fill:#fff;"/><path id="path4137" d="M276.397,140.111l21.429,-0l5.143,-28.286l20.571,0l4.286,28.286l21.428,-0l-15.428,-91.715l-42,0l-15.429,91.715Zm29.143,-48.857l14.572,-0l-7.335,-37.884l-7.237,37.884Z" style="fill:#fff;"/><path id="path4142" d="M403.254,140.111l-47.142,-0l-0,-91.715l21.428,0l0,72l25.714,0l0,19.715Z" style="fill:#fff;"/><path id="path4144" d="M458.112,140.111l-51.429,-0l0,-91.715l51.429,0l-0,18.858l-30,-0l-0,14.571l30,0l-0,19.714l-30,0l-0,19.715l30,-0l-0,18.857Z" style="fill:#fff;"/><path id="path4146" d="M509.54,82.682l20.572,0c0.159,-9.838 -5.125,-36.81 -33.076,-36.031c-16.682,0.465 -31.735,13.188 -32.067,46.317c-0.488,48.664 24.627,49.199 30.051,49.088c35.601,-0.733 35.545,-34.182 35.105,-40.48l-20.585,-0.037c-0.872,10.723 -2.445,20.764 -13.008,20.025c-10.25,-1.09 -9.222,-16.716 -9.278,-28.596c-0.054,-11.552 -0.019,-25.891 10.621,-26.329c8.497,0.326 10.256,8.574 11.665,16.043l0,0Z" style="fill:#fff;"/><path id="path4150" d="M566.406,46.315c-22.392,-0.299 -33.18,19.884 -32.418,47.534c1.183,42.933 19.327,48.036 33.089,47.871c23.858,-0.284 32.821,-21.366 32.922,-45.351c0.106,-25.252 -7.117,-49.701 -33.593,-50.054Zm0.504,20.324c-10.74,0.319 -11.802,14.26 -11.758,25.699c0.017,4.323 -0.686,29.771 11.925,29.562c11.885,-0.201 11.564,-18.364 11.758,-28.722c0.2,-10.699 -0.711,-26.872 -11.925,-26.539Z" style="fill:#fff;"/></g></svg>