<svg clip-rule="evenodd" fill-rule="evenodd" stroke-linejoin="round" stroke-miterlimit="2" viewBox="0 0 600 198" xmlns="http://www.w3.org/2000/svg"><g fill="#fff" fill-rule="nonzero"><path d="m398.782 42.774c1.011.065 2.026.126 3.04.197 7.776.537 15.21 2.361 22.156 5.969 4.96 2.58 9.36 5.917 13.284 9.898 4.262 4.322 7.787 9.167 10.44 14.634 1.948 4.012 3.299 8.222 4.237 12.576 1.147 5.339 1.525 10.743 1.298 16.18-.367 8.725-2.296 17.063-6.41 24.825-2.869 5.415-6.61 10.166-11.061 14.369-7.136 6.738-15.499 11.132-25.108 13.17-3.555.751-7.141 1.225-10.775 1.338-.163.007-.327.054-.491.082h-4.276c-.929-.069-1.86-.131-2.786-.2-11.127-.807-21.283-4.243-30.083-11.247-6.946-5.526-12.386-12.268-16.095-20.362-1.887-4.113-3.151-8.426-3.991-12.866-.951-5.023-1.253-10.097-.999-15.191.537-10.728 3.362-20.744 9.587-29.622 7.285-10.383 16.808-17.77 29.103-21.341 3.749-1.088 7.569-1.813 11.462-2.111 1.237-.096 2.473-.144 3.707-.219.203-.011.403-.05.604-.078h3.157zm-1.692 98.678c3.954-.03 7.781-.354 11.537-1.283 8.177-2.019 14.979-6.262 20.382-12.73 5.521-6.601 8.39-14.272 9.168-22.777.268-2.908.297-5.825.127-8.745-.191-3.167-.607-6.304-1.447-9.368-2.624-9.571-8-17.206-16.257-22.732-6.178-4.128-13.089-6.018-20.46-6.384-4.027-.198-8.033-.017-12.004.705-6.94 1.26-13.114 4.125-18.436 8.787-5.159 4.522-8.89 10.013-11.198 16.473-1.749 4.886-2.448 9.946-2.519 15.112-.062 4.011.222 8 1.094 11.92 1.581 7.077 4.763 13.324 9.731 18.647 4.385 4.698 9.6 8.077 15.673 10.147 4.77 1.623 9.697 2.176 14.609 2.228"/><path d="m599.999 153.465c-.418 1.012-.738 1.218-1.882 1.218-3.732 0-7.467.002-11.203 0-1.315 0-1.799-.489-1.799-1.812v-106.92c0-1.371.484-1.851 1.875-1.852 3.734 0 7.468-.013 11.2.021.462.003.963.185 1.358.428.238.15.308.57.452.872v108.045z"/><path d="m295.47 88.957c1.884 2.5 3.749 4.979 5.615 7.459 3.955 5.255 7.909 10.511 11.866 15.771 5.087 6.762 10.173 13.522 15.262 20.281 4.986 6.628 9.966 13.253 14.959 19.873.371.487.53.982.266 1.549-.269.572-.792.758-1.38.789-.27.017-.54.002-.814.002-4.599 0-9.199-.002-13.798.006-.787.002-1.363-.262-1.858-.916-8.673-11.594-17.366-23.175-26.057-34.759-4.935-6.575-9.873-13.154-14.81-19.728-.04-.055-.087-.103-.158-.186-.599.559-1.194 1.114-1.787 1.663-4.003 3.744-8.004 7.488-12.006 11.232-2.207 2.06-4.413 4.123-6.633 6.17-.286.262-.403.525-.403.917.01 11.197.009 22.399.009 33.6 0 .135.003.272 0 .409-.03 1.026-.553 1.583-1.578 1.588-3.922.015-7.84.01-11.761 0-.995-.005-1.517-.562-1.539-1.562-.002-.114 0-.237 0-.354v-106.814c0-1.35.488-1.844 1.828-1.844 3.581-.001 7.162-.001 10.743-.001.238 0 .475-.008.713.001 1.037.048 1.547.559 1.592 1.59.007.154.001.307.001.459v52.446c.888-.829 1.691-1.574 2.487-2.323 4.728-4.435 9.451-8.873 14.181-13.305 6.201-5.811 12.407-11.621 18.609-17.433 5.199-4.875 10.393-9.753 15.588-14.628 2.192-2.057 4.387-4.105 6.571-6.167.455-.43.976-.641 1.598-.641 5.485.001 10.964 0 16.447.001.933 0 1.461.339 1.658 1.038.163.577-.059 1.025-.463 1.411-1.588 1.509-3.171 3.017-4.763 4.518-2.816 2.654-5.636 5.303-8.45 7.957-3.906 3.676-7.804 7.351-11.702 11.032-3.998 3.772-7.991 7.55-11.99 11.32-2.66 2.519-5.332 5.025-8.043 7.579"/><path d="m470.247 99.405v-53.257c0-.154 0-.306.002-.46.019-1.004.528-1.529 1.525-1.586.069-.003.137-.001.201-.001 15.227.001 30.45-.035 45.675.023 7.002.024 13.701 1.598 20.094 4.457 5.56 2.487 10.445 5.954 14.687 10.317 6.916 7.1 11.509 15.476 13.764 25.14 1.301 5.563 1.838 11.196 1.72 16.895-.161 7.656-1.49 15.09-4.391 22.205-2.422 5.938-5.892 11.212-10.266 15.892-6.709 7.187-14.862 11.911-24.412 14.225-4.123.997-8.297 1.442-12.539 1.437-14.746-.019-29.495-.007-44.246-.009-.252 0-.508-.02-.755-.055-.548-.088-.885-.415-.982-.957-.051-.283-.074-.572-.074-.856-.003-17.805-.003-35.607-.003-53.41m14.895 41.045h.656c9.913 0 19.824.009 29.737-.01 1.777-.005 3.561-.078 5.333-.215 3.68-.291 7.192-1.266 10.547-2.806 4.389-2.008 8.077-4.936 11.252-8.553 2.96-3.368 5.298-7.116 7.021-11.252 1.836-4.402 2.821-8.993 3.185-13.744.337-4.332.2-8.644-.45-12.936-.775-5.069-2.424-9.855-4.973-14.311-2.833-4.955-6.491-9.198-11.185-12.475-5.622-3.925-11.936-5.751-18.749-5.784-10.606-.051-21.218-.016-31.824-.018h-.55z"/><path d="m197.865 100.881c-.639 2.07-2.037 3.587-3.535 5.08-10.036 10.001-20.041 20.038-30.057 30.06-3.609 3.611-7.465 3.602-11.088-.025-10.337-10.345-20.674-20.689-31.006-31.037-3.52-3.521-3.518-7.371.011-10.902 10.39-10.409 20.785-20.81 31.18-31.212 3.38-3.384 7.356-3.385 10.736-.003 10.077 10.08 20.141 20.172 30.236 30.234 1.498 1.492 2.892 3.014 3.523 5.087z"/><path d="m98.234 197.792c-2.061-.655-3.554-2.083-5.04-3.576-9.994-10.046-20.017-20.059-30.032-30.086-3.584-3.588-3.587-7.415-.011-10.992 10.363-10.372 20.728-20.746 31.094-31.116 3.447-3.45 7.395-3.463 10.823-.032 10.365 10.37 20.729 20.746 31.092 31.118 3.559 3.568 3.569 7.474.025 11.016-10.101 10.115-20.218 20.216-30.296 30.348-1.443 1.446-2.926 2.752-4.936 3.319h-2.719z"/><path d="m61.86 74.668c0-11.534.104-23.069-.065-34.599-.048-3.337.747-5.943 3.298-8.147 2.047-1.772 3.866-3.816 5.786-5.741 7.599-7.606 15.195-15.21 22.796-22.814 3.574-3.573 7.429-3.571 11 .002 10.338 10.34 20.673 20.682 31.01 31.026 3.552 3.555 3.548 7.462-.002 11.016-12.224 12.241-24.451 24.477-36.678 36.713-10.797 10.81-21.592 21.618-32.39 32.422-2.002 2.005-3.775 1.538-4.5-1.238-.224-.86-.243-1.787-.243-2.684-.016-11.985-.012-23.971-.012-35.956"/><path d="m37.14 99.658c0 10.581.015 21.17-.022 31.752-.005 1.004-.163 2.07-.524 3.003-.706 1.838-2.031 2.065-3.418.68-4.869-4.859-9.723-9.732-14.581-14.6-5.616-5.625-11.234-11.249-16.847-16.877-2.323-2.332-2.332-5.562-.019-7.904 10.338-10.454 20.677-20.907 31.019-31.36.684-.69 1.329-1.627 2.492-1.188 1.11.419 1.549 1.422 1.706 2.532.1.689.177 1.389.179 2.085.01 10.626.006 21.25.006 31.878h.009z"/></g></svg>