<?xml version="1.0" encoding="UTF-8" standalone="no"?><!DOCTYPE svg PUBLIC "-//W3C//DTD SVG 1.1//EN" "http://www.w3.org/Graphics/SVG/1.1/DTD/svg11.dtd"><svg width="100%" height="100%" viewBox="0 0 600 198" version="1.1" xmlns="http://www.w3.org/2000/svg" xmlns:xlink="http://www.w3.org/1999/xlink" xml:space="preserve" xmlns:serif="http://www.serif.com/" style="fill-rule:evenodd;clip-rule:evenodd;stroke-linejoin:round;stroke-miterlimit:2;"><g id="kodi"><path id="path7" d="M398.782,42.382c1.011,0.065 2.026,0.127 3.04,0.198c7.776,0.536 15.21,2.36 22.156,5.969c4.96,2.58 9.36,5.917 13.284,9.898c4.262,4.322 7.787,9.167 10.44,14.633c1.948,4.013 3.299,8.222 4.237,12.576c1.147,5.34 1.525,10.743 1.298,16.18c-0.367,8.725 -2.296,17.063 -6.41,24.825c-2.869,5.415 -6.61,10.166 -11.061,14.37c-7.136,6.737 -15.499,11.132 -25.108,13.17c-3.555,0.75 -7.141,1.224 -10.775,1.337c-0.163,0.007 -0.327,0.054 -0.491,0.083l-4.276,-0c-0.929,-0.069 -1.86,-0.132 -2.786,-0.201c-11.127,-0.807 -21.283,-4.243 -30.083,-11.246c-6.946,-5.526 -12.386,-12.268 -16.095,-20.362c-1.887,-4.114 -3.151,-8.426 -3.991,-12.867c-0.951,-5.022 -1.253,-10.096 -0.999,-15.19c0.537,-10.728 3.362,-20.745 9.587,-29.623c7.285,-10.383 16.808,-17.77 29.103,-21.34c3.749,-1.088 7.569,-1.814 11.462,-2.112c1.237,-0.096 2.473,-0.144 3.707,-0.219c0.203,-0.011 0.403,-0.05 0.604,-0.077l3.157,-0l-0,-0.002Zm-1.692,98.678c3.954,-0.029 7.781,-0.354 11.537,-1.283c8.177,-2.019 14.979,-6.262 20.382,-12.73c5.521,-6.601 8.39,-14.272 9.168,-22.776c0.268,-2.909 0.297,-5.826 0.127,-8.745c-0.191,-3.168 -0.607,-6.305 -1.447,-9.369c-2.624,-9.57 -8,-17.206 -16.257,-22.732c-6.178,-4.128 -13.089,-6.018 -20.46,-6.384c-4.027,-0.198 -8.033,-0.016 -12.004,0.706c-6.94,1.259 -13.114,4.125 -18.436,8.786c-5.159,4.523 -8.89,10.013 -11.198,16.473c-1.749,4.887 -2.448,9.946 -2.519,15.112c-0.062,4.012 0.222,8 1.094,11.92c1.581,7.077 4.763,13.324 9.731,18.647c4.385,4.698 9.6,8.077 15.673,10.147c4.77,1.624 9.697,2.176 14.609,2.228" style="fill:#fff;fill-rule:nonzero;"/><path id="path9" d="M599.999,153.073c-0.418,1.012 -0.738,1.218 -1.882,1.218c-3.732,-0 -7.467,0.002 -11.203,-0c-1.315,-0 -1.799,-0.489 -1.799,-1.811l0,-106.921c0,-1.371 0.484,-1.851 1.875,-1.852c3.734,-0 7.468,-0.013 11.2,0.021c0.462,0.003 0.963,0.186 1.358,0.429c0.238,0.149 0.308,0.569 0.452,0.871l0,108.045l-0.001,0Z" style="fill:#fff;fill-rule:nonzero;"/><path id="path11" d="M295.47,88.565c1.884,2.5 3.749,4.98 5.615,7.459c3.955,5.255 7.909,10.512 11.866,15.771c5.087,6.762 10.173,13.522 15.262,20.281c4.986,6.628 9.966,13.253 14.959,19.873c0.371,0.487 0.53,0.982 0.266,1.55c-0.269,0.571 -0.792,0.757 -1.38,0.789c-0.27,0.017 -0.54,0.002 -0.814,0.002c-4.599,-0 -9.199,-0.002 -13.798,0.005c-0.787,0.002 -1.363,-0.262 -1.858,-0.916c-8.673,-11.593 -17.366,-23.175 -26.057,-34.759c-4.935,-6.574 -9.873,-13.153 -14.81,-19.728c-0.04,-0.055 -0.087,-0.103 -0.158,-0.185c-0.599,0.559 -1.194,1.113 -1.787,1.662c-4.003,3.745 -8.004,7.488 -12.006,11.232c-2.207,2.061 -4.413,4.123 -6.633,6.171c-0.286,0.262 -0.403,0.525 -0.403,0.916c0.01,11.198 0.009,22.4 0.009,33.601c-0,0.134 0.003,0.271 -0,0.408c-0.03,1.027 -0.553,1.583 -1.578,1.589c-3.922,0.014 -7.84,0.009 -11.761,-0c-0.995,-0.006 -1.517,-0.562 -1.539,-1.562c-0.002,-0.115 0,-0.238 0,-0.355l0,-106.814c0,-1.35 0.488,-1.844 1.828,-1.844c3.581,-0.001 7.162,-0.001 10.743,-0.001c0.238,0 0.475,-0.007 0.713,0.001c1.037,0.048 1.547,0.559 1.592,1.591c0.007,0.154 0.001,0.306 0.001,0.458l-0,52.446c0.888,-0.829 1.691,-1.573 2.487,-2.323c4.728,-4.435 9.451,-8.872 14.181,-13.305c6.201,-5.811 12.407,-11.621 18.609,-17.433c5.199,-4.875 10.393,-9.752 15.588,-14.628c2.192,-2.056 4.387,-4.105 6.571,-6.166c0.455,-0.431 0.976,-0.642 1.598,-0.642c5.485,0.001 10.964,0 16.447,0.001c0.933,0 1.461,0.339 1.658,1.038c0.163,0.577 -0.059,1.026 -0.463,1.412c-1.588,1.509 -3.171,3.016 -4.763,4.517c-2.816,2.654 -5.636,5.303 -8.45,7.957c-3.906,3.677 -7.804,7.351 -11.702,11.033c-3.998,3.771 -7.991,7.55 -11.99,11.319c-2.66,2.519 -5.332,5.026 -8.043,7.579" style="fill:#fff;fill-rule:nonzero;"/><path id="path13" d="M470.247,99.013l0,-53.256c0,-0.155 0,-0.307 0.002,-0.461c0.019,-1.004 0.528,-1.529 1.525,-1.586c0.069,-0.003 0.137,-0.001 0.201,-0.001c15.227,0.001 30.45,-0.035 45.675,0.023c7.002,0.025 13.701,1.598 20.094,4.457c5.56,2.487 10.445,5.954 14.687,10.317c6.916,7.1 11.509,15.476 13.764,25.14c1.301,5.564 1.838,11.197 1.72,16.895c-0.161,7.656 -1.49,15.091 -4.391,22.205c-2.422,5.938 -5.892,11.213 -10.266,15.892c-6.709,7.188 -14.862,11.912 -24.412,14.226c-4.123,0.996 -8.297,1.442 -12.539,1.436c-14.746,-0.019 -29.495,-0.007 -44.246,-0.009c-0.252,-0 -0.508,-0.019 -0.755,-0.054c-0.548,-0.088 -0.885,-0.416 -0.982,-0.958c-0.051,-0.283 -0.074,-0.571 -0.074,-0.856c-0.003,-17.805 -0.003,-35.607 -0.003,-53.41m14.895,41.045l0.656,0c9.913,0 19.824,0.01 29.737,-0.009c1.777,-0.006 3.561,-0.079 5.333,-0.216c3.68,-0.29 7.192,-1.266 10.547,-2.806c4.389,-2.008 8.077,-4.936 11.252,-8.553c2.96,-3.368 5.298,-7.116 7.021,-11.252c1.836,-4.401 2.821,-8.993 3.185,-13.743c0.337,-4.332 0.2,-8.645 -0.45,-12.936c-0.775,-5.07 -2.424,-9.856 -4.973,-14.311c-2.833,-4.956 -6.491,-9.198 -11.185,-12.476c-5.622,-3.925 -11.936,-5.751 -18.749,-5.783c-10.606,-0.051 -21.218,-0.016 -31.824,-0.019l-0.55,0l-0,82.104Z" style="fill:#fff;fill-rule:nonzero;"/><path id="path17" d="M197.865,100.489c-0.639,2.07 -2.037,3.588 -3.535,5.081c-10.036,10 -20.041,20.037 -30.057,30.059c-3.609,3.612 -7.465,3.602 -11.088,-0.025c-10.337,-10.345 -20.674,-20.689 -31.006,-31.036c-3.52,-3.522 -3.518,-7.371 0.011,-10.902c10.39,-10.409 20.785,-20.811 31.18,-31.212c3.38,-3.385 7.356,-3.386 10.736,-0.003c10.077,10.08 20.141,20.172 30.236,30.234c1.498,1.492 2.892,3.013 3.523,5.086l0,2.718Z" style="fill:#fff;fill-rule:nonzero;"/><path id="path19" d="M98.234,197.4c-2.061,-0.655 -3.554,-2.082 -5.04,-3.575c-9.994,-10.047 -20.017,-20.06 -30.032,-30.087c-3.584,-3.587 -3.587,-7.414 -0.011,-10.992c10.363,-10.372 20.728,-20.746 31.094,-31.116c3.447,-3.45 7.395,-3.463 10.823,-0.031c10.365,10.369 20.729,20.745 31.092,31.117c3.559,3.568 3.569,7.474 0.025,11.017c-10.101,10.115 -20.218,20.215 -30.296,30.347c-1.443,1.447 -2.926,2.752 -4.936,3.319l-2.719,0l0,0.001Z" style="fill:#fff;fill-rule:nonzero;"/><path id="path21" d="M61.86,74.276c0,-11.534 0.104,-23.069 -0.065,-34.599c-0.048,-3.337 0.747,-5.943 3.298,-8.147c2.047,-1.772 3.866,-3.816 5.786,-5.741c7.599,-7.606 15.195,-15.21 22.796,-22.814c3.574,-3.573 7.429,-3.571 11,0.002c10.338,10.34 20.673,20.682 31.01,31.026c3.552,3.556 3.548,7.462 -0.002,11.017c-12.224,12.24 -24.451,24.476 -36.678,36.712c-10.797,10.811 -21.592,21.618 -32.39,32.423c-2.002,2.004 -3.775,1.537 -4.5,-1.239c-0.224,-0.86 -0.243,-1.787 -0.243,-2.684c-0.016,-11.984 -0.012,-23.971 -0.012,-35.956" style="fill:#fff;fill-rule:nonzero;"/><path id="path23" d="M37.14,99.267c0,10.58 0.015,21.169 -0.022,31.751c-0.005,1.004 -0.163,2.07 -0.524,3.003c-0.706,1.838 -2.031,2.065 -3.418,0.68c-4.869,-4.859 -9.723,-9.731 -14.581,-14.6c-5.616,-5.625 -11.234,-11.248 -16.847,-16.877c-2.323,-2.332 -2.332,-5.562 -0.019,-7.904c10.338,-10.454 20.677,-20.907 31.019,-31.359c0.684,-0.691 1.329,-1.628 2.492,-1.189c1.11,0.42 1.549,1.422 1.706,2.532c0.1,0.689 0.177,1.389 0.179,2.085c0.01,10.626 0.006,21.25 0.006,31.879l0.009,-0l0,-0.001Z" style="fill:#fff;fill-rule:nonzero;"/></g></svg>