<svg clip-rule="evenodd" fill-rule="evenodd" stroke-linejoin="round" stroke-miterlimit="2" viewBox="0 0 600 188" xmlns="http://www.w3.org/2000/svg"><g fill="#fff"><path d="m249.485 125.844 12.837-33.021 8.505 33.014h19.426l-8.321-33.103 29.735-28.345h-19.872l-28.209 25.548 9.097-25.542-16.808-.006-22.952 61.448z"/><path d="m357.933 74.801c-.581-1.64-1.439-3.187-2.513-4.568-1.075-1.381-2.366-2.596-3.816-3.578-1.449-.98-3.056-1.729-4.894-2.319-3.744-1.186-8.16-1.73-12.31-1.645-2.108.045-4.211.248-6.697.724-2.487.474-5.356 1.223-8.049 2.386-2.692 1.164-5.212 2.746-7.427 4.661-2.214 1.915-4.128 4.166-5.539 6.124-1.408 1.957-2.316 3.619-3.185 5.298-.867 1.678-1.699 3.371-2.46 5.095-1.465 3.411-2.823 6.715-3.883 9.916-.503 1.588-.896 3.211-1.181 4.853-.284 1.641-.459 3.3-.544 4.546s-.082 2.075-.037 2.904c.043.828.124 1.655.233 2.478.105.828.237 1.654.701 2.98.464 1.327 1.257 3.15 2.371 4.769 1.115 1.618 2.549 3.026 4.185 4.135 1.637 1.109 3.473 1.92 5.564 2.508 4.237 1.176 9.218 1.524 13.886 1.247 2.362-.144 4.715-.46 7.289-1.117 2.576-.658 5.37-1.661 7.943-3.073 2.574-1.412 4.926-3.232 6.931-5.363 2.007-2.129 3.668-4.573 5.123-7.249 1.457-2.68 2.709-5.591 3.901-8.522 1.19-2.933 2.32-5.883 3.106-8.076.785-2.192 1.227-3.624 1.562-5.081.335-1.459.567-2.94.702-4.432.275-2.943.185-6.284-.962-9.601zm-16.215 9.129c-.899 3.345-1.797 6.69-2.886 9.975s-2.365 6.505-3.642 9.727c-.932 2.209-2.214 4.459-3.867 6.532-1.097 1.374-2.234 2.33-3.486 3.037-1.434.816-2.935 1.261-4.4 1.445-2.231.278-4.517-.055-6.315-.874-.98-.454-1.985-1.14-2.795-2.015-1.231-1.359-1.622-2.779-1.703-4.136-.073-1.542.11-3.079.498-4.57 1.834-7.233 4.551-14.43 8.342-21.518.517-1.028 1.182-1.983 1.967-2.826s1.696-1.575 2.69-2.156c2.039-1.166 4.094-1.685 5.83-1.808 2.601-.134 5.365.093 7.588 1.968.67.58 1.227 1.287 1.637 2.071.408.785.669 1.646.76 2.524.094.879.016 1.771-.218 2.624z"/><path d="m399.843 109.08-1.277-44.691h-24.751l-22.499 61.455h15.681l16.362-45.899 1.491 45.899h23.872l22.936-61.455-15.62.001z"/><path d="m457.408 113.634-.345 12.219h16.077l1.095-61.467h-21.62l-40.363 61.462h16.687l8.336-12.176zm1.569-34.732-.828 22.358-12.7.032z"/><path d="m505.144 125.853h16.557l29.161-44.942-17 44.937h16.135l23.066-61.441h-27.782l-24.218 39.657 5.395-39.662h-27.469l-22.956 61.44h15.65l16.996-45.574z"/><path d="m560.833 125.85h15.918l23.249-61.447h-16.144z"/><g fill-rule="nonzero"><path d="m.962 125.06c-1.66-.715-1.37-2.283 2.448-13.212 5.924-16.962 11.143-26.799 17.917-33.773 9.11-9.378 16.834-12.551 39.626-16.274 4.705-.768 10.621-2.17 13.146-3.115 6.701-2.507 15.259-9.355 19.353-15.486 3.173-4.751 11.656-24.817 15.354-36.32.807-2.511 2.191-4.953 3.075-5.426.974-.521 13.72-.859 32.376-.859 25.126 0 30.952.22 31.765 1.2.769.926.319 3.052-1.976 9.332-4.728 12.935-9.598 24.341-12 28.099-8.606 13.469-20.201 20.566-37.593 23.011-16.029 2.252-18.736 2.842-23.578 5.132-5.759 2.723-12.37 8.131-16.412 13.424-4.732 6.198-7.977 13.431-14.844 33.093-1.667 4.774-3.567 10.001-4.128 10.582-.653.969-9.261.632-32.194.636-17.189.002-31.739.213-32.335-.044z"/><path d="m45.453 187.148c-1.66-.715-1.369-2.283 2.448-13.213 5.924-16.962 11.143-26.799 17.917-33.773 9.11-9.378 16.835-12.55 39.626-16.273 4.705-.769 10.621-2.171 13.146-3.115 6.701-2.508 15.259-9.355 19.353-15.486 3.173-4.752 11.656-24.818 15.354-36.32.808-2.511 2.191-4.953 3.075-5.426.974-.521 13.721-.86 32.376-.86 25.126 0 30.952.22 31.765 1.2.77.927.319 3.052-1.976 9.333-4.727 12.935-9.598 24.341-12 28.099-8.606 13.469-20.201 20.566-37.592 23.01-16.029 2.253-18.737 2.842-23.579 5.132-5.759 2.724-12.37 8.131-16.412 13.425-4.732 6.198-7.977 13.431-14.843 33.092-1.668 4.775-3.568 10.001-4.129 10.582-.652.97-9.261.632-32.194.636-17.189.003-31.738.214-32.335-.043z"/></g></g></svg>