<?xml version="1.0" encoding="UTF-8" standalone="no"?><!DOCTYPE svg PUBLIC "-//W3C//DTD SVG 1.1//EN" "http://www.w3.org/Graphics/SVG/1.1/DTD/svg11.dtd"><svg width="100%" height="100%" viewBox="0 0 600 188" version="1.1" xmlns="http://www.w3.org/2000/svg" xmlns:xlink="http://www.w3.org/1999/xlink" xml:space="preserve" xmlns:serif="http://www.serif.com/" style="fill-rule:evenodd;clip-rule:evenodd;stroke-linejoin:round;stroke-miterlimit:2;"><g id="konami"><g id="g6266"><g id="g5472"><path id="polygon4837" d="M249.485,126.017l12.837,-33.022l8.505,33.014l19.426,0l-8.321,-33.102l29.735,-28.345l-19.872,0l-28.209,25.548l9.097,-25.542l-16.808,-0.006l-22.952,61.447l16.562,0.008Z" style="fill:#fff;"/><path id="path4839" d="M357.933,74.974c-0.581,-1.64 -1.439,-3.187 -2.513,-4.568c-1.075,-1.381 -2.366,-2.596 -3.816,-3.578c-1.449,-0.98 -3.056,-1.729 -4.894,-2.32c-3.744,-1.186 -8.16,-1.729 -12.31,-1.644c-2.108,0.044 -4.211,0.248 -6.697,0.724c-2.487,0.474 -5.356,1.222 -8.049,2.386c-2.692,1.164 -5.212,2.746 -7.427,4.661c-2.214,1.915 -4.128,4.166 -5.539,6.124c-1.408,1.957 -2.316,3.619 -3.185,5.297c-0.867,1.679 -1.699,3.372 -2.46,5.096c-1.465,3.411 -2.823,6.715 -3.883,9.916c-0.503,1.588 -0.896,3.211 -1.181,4.853c-0.284,1.641 -0.459,3.3 -0.544,4.545c-0.085,1.247 -0.082,2.076 -0.037,2.905c0.043,0.828 0.124,1.655 0.233,2.478c0.105,0.828 0.237,1.654 0.701,2.98c0.464,1.327 1.257,3.149 2.371,4.768c1.115,1.619 2.549,3.027 4.185,4.136c1.637,1.108 3.473,1.92 5.564,2.508c4.237,1.176 9.218,1.524 13.886,1.246c2.362,-0.143 4.715,-0.459 7.289,-1.116c2.576,-0.658 5.37,-1.662 7.943,-3.074c2.574,-1.412 4.926,-3.231 6.931,-5.362c2.007,-2.129 3.668,-4.573 5.123,-7.249c1.457,-2.68 2.709,-5.591 3.901,-8.523c1.19,-2.932 2.32,-5.883 3.106,-8.076c0.785,-2.191 1.227,-3.623 1.562,-5.08c0.335,-1.459 0.567,-2.941 0.702,-4.432c0.275,-2.944 0.185,-6.285 -0.962,-9.601Zm-16.215,9.129c-0.899,3.345 -1.797,6.689 -2.886,9.974c-1.089,3.285 -2.365,6.505 -3.642,9.728c-0.932,2.208 -2.214,4.458 -3.867,6.532c-1.097,1.374 -2.234,2.33 -3.486,3.037c-1.434,0.816 -2.935,1.261 -4.4,1.445c-2.231,0.278 -4.517,-0.055 -6.315,-0.874c-0.98,-0.454 -1.985,-1.14 -2.795,-2.015c-1.231,-1.36 -1.622,-2.779 -1.703,-4.137c-0.073,-1.541 0.11,-3.079 0.498,-4.569c1.834,-7.233 4.551,-14.43 8.342,-21.518c0.517,-1.028 1.182,-1.983 1.967,-2.826c0.785,-0.844 1.696,-1.575 2.69,-2.156c2.039,-1.166 4.094,-1.685 5.83,-1.808c2.601,-0.134 5.365,0.093 7.588,1.968c0.67,0.58 1.227,1.287 1.637,2.071c0.408,0.784 0.669,1.646 0.76,2.524c0.094,0.878 0.016,1.771 -0.218,2.624Z" style="fill:#fff;"/><path id="polygon4841" d="M399.843,109.252l-1.277,-44.69l-24.751,0l-22.499,61.455l15.681,0l16.362,-45.9l1.491,45.9l23.872,0l22.936,-61.455l-15.62,0.001l-16.195,44.689Z" style="fill:#fff;"/><path id="path4843" d="M457.408,113.807l-0.345,12.219l16.077,0l1.095,-61.467l-21.62,-0l-40.363,61.462l16.687,-0l8.336,-12.176l20.133,-0.038Zm1.569,-34.732l-0.828,22.358l-12.7,0.032l13.528,-22.39Z" style="fill:#fff;"/><path id="polygon4845" d="M505.144,126.026l16.557,0l29.161,-44.942l-17,44.937l16.135,-0l23.066,-61.441l-27.782,-0l-24.218,39.657l5.395,-39.663l-27.469,0l-22.956,61.441l15.65,0l16.996,-45.574l-3.535,45.585Z" style="fill:#fff;"/><path id="polygon4847" d="M560.833,126.023l15.918,-0l23.249,-61.447l-16.144,-0l-23.023,61.447Z" style="fill:#fff;"/></g><path id="path6108" d="M0.962,125.233c-1.66,-0.715 -1.37,-2.283 2.448,-13.212c5.924,-16.962 11.143,-26.8 17.917,-33.774c9.11,-9.378 16.834,-12.55 39.626,-16.273c4.705,-0.769 10.621,-2.171 13.146,-3.115c6.701,-2.508 15.259,-9.355 19.353,-15.486c3.173,-4.751 11.656,-24.818 15.354,-36.32c0.807,-2.511 2.191,-4.953 3.075,-5.426c0.974,-0.521 13.72,-0.86 32.376,-0.86c25.126,0 30.952,0.22 31.765,1.2c0.769,0.927 0.319,3.052 -1.976,9.333c-4.728,12.935 -9.598,24.341 -12,28.099c-8.606,13.469 -20.201,20.566 -37.593,23.01c-16.029,2.253 -18.736,2.842 -23.578,5.132c-5.759,2.724 -12.37,8.132 -16.412,13.425c-4.732,6.198 -7.977,13.431 -14.844,33.093c-1.667,4.774 -3.567,10 -4.128,10.581c-0.653,0.97 -9.261,0.632 -32.194,0.636c-17.189,0.003 -31.739,0.214 -32.335,-0.043l-0,-0Z" style="fill:#fff;fill-rule:nonzero;"/><path id="path6121" d="M45.453,187.32c-1.66,-0.714 -1.369,-2.282 2.448,-13.212c5.924,-16.962 11.143,-26.799 17.917,-33.773c9.11,-9.378 16.835,-12.55 39.626,-16.273c4.705,-0.769 10.621,-2.171 13.146,-3.116c6.701,-2.507 15.259,-9.354 19.353,-15.485c3.173,-4.752 11.656,-24.818 15.354,-36.32c0.808,-2.512 2.191,-4.953 3.075,-5.426c0.974,-0.521 13.721,-0.86 32.376,-0.86c25.126,0 30.952,0.22 31.765,1.2c0.77,0.927 0.319,3.052 -1.976,9.332c-4.727,12.936 -9.598,24.341 -12,28.1c-8.606,13.469 -20.201,20.566 -37.592,23.01c-16.029,2.253 -18.737,2.842 -23.579,5.132c-5.759,2.723 -12.37,8.131 -16.412,13.425c-4.732,6.198 -7.977,13.431 -14.843,33.092c-1.668,4.775 -3.568,10.001 -4.129,10.582c-0.652,0.97 -9.261,0.632 -32.194,0.636c-17.189,0.003 -31.738,0.213 -32.335,-0.044l-0,0Z" style="fill:#fff;fill-rule:nonzero;"/></g></g></svg>