<?xml version="1.0" encoding="UTF-8" standalone="no"?><!DOCTYPE svg PUBLIC "-//W3C//DTD SVG 1.1//EN" "http://www.w3.org/Graphics/SVG/1.1/DTD/svg11.dtd"><svg width="100%" height="100%" viewBox="0 0 600 136" version="1.1" xmlns="http://www.w3.org/2000/svg" xmlns:xlink="http://www.w3.org/1999/xlink" xml:space="preserve" xmlns:serif="http://www.serif.com/" style="fill-rule:evenodd;clip-rule:evenodd;stroke-linejoin:round;stroke-miterlimit:2;"><g id="konami_1981"><path d="M-0,135.296l-0,-118.092l37.098,0l0,33.75l50.625,-50.591l52.467,-0l-71.217,71.216l28.259,24.844c2.076,1.674 4.353,2.478 7.634,1.775c3.281,-0.703 6.462,-3.382 6.462,-9.275l0,-37.935l37.132,-0l-0,50.625c-0,18.616 -20.424,33.716 -45.569,33.716c-12.556,0 -25.882,-3.85 -35.324,-12.455l-30.469,-26.886l0,39.308l-37.098,0Z" style="fill:#fff;"/><path d="M425.926,132.55l0,-78.75l28.46,0l0,11.518c3.482,-4.654 7.389,-8.08 11.719,-10.279c4.353,-2.243 9.341,-3.348 15,-3.348c5.156,0 9.609,1.105 13.359,3.281c3.717,2.177 7.065,5.625 10.045,10.346c3.783,-4.754 7.969,-8.203 12.489,-10.413c4.553,-2.243 9.676,-3.348 15.368,-3.348c9.241,0 16.473,2.411 21.563,7.165c5.122,4.788 7.667,11.485 7.667,20.157l-0,53.638l-30.837,-0l-0,-42.154c-0,-4.922 -0.837,-8.471 -2.511,-10.681c-1.641,-2.243 -4.353,-3.348 -8.069,-3.348c-3.817,-0 -6.596,1.172 -8.404,3.482c-1.808,2.277 -2.679,5.926 -2.679,10.848l-0,41.853l-30.703,-0l-0,-41.049c-0,-5.391 -0.871,-9.241 -2.578,-11.618c-1.708,-2.344 -4.52,-3.516 -8.438,-3.516c-3.482,-0 -6.127,1.205 -7.935,3.583c-1.808,2.343 -2.712,5.792 -2.712,10.346l-0,42.287l-30.804,0Z" style="fill:#fff;"/><path d="M242.712,132.484l0,-78.684l28.46,0l-0,11.518c3.683,-4.587 7.734,-8.002 12.254,-10.245c4.52,-2.244 9.61,-3.382 15.302,-3.382c4.788,0 9.04,0.804 12.823,2.411c3.718,1.542 6.996,3.981 9.543,7.098c2.451,3.026 4.17,6.579 5.022,10.379c1.005,4.085 1.473,10.748 1.473,20.023l0,40.915l-31.272,-0l-0,-40.781c-0,-5.994 -0.804,-10.112 -2.411,-12.355c-1.607,-2.243 -4.319,-3.382 -8.27,-3.382c-3.951,0 -6.897,1.306 -8.806,3.918c-1.908,2.611 -2.879,6.596 -2.879,11.953l-0,40.614l-31.239,-0Z" style="fill:#fff;"/><rect x="565.379" y="53.8" width="31.574" height="78.683" style="fill:#fff;"/><path d="M389.9,132.484l-1.942,-7.534c-3.793,3.397 -8.188,6.054 -12.958,7.835c-4.654,1.674 -9.877,2.511 -15.636,2.511c-8.873,0 -15.737,-2.176 -20.592,-6.529c-4.855,-4.386 -7.276,-10.558 -7.265,-18.516c-0,-7.734 2.41,-13.493 7.165,-17.209c4.754,-3.717 13.828,-6.396 27.087,-8.103c1.674,-0.201 3.951,-0.502 6.763,-0.77c9.911,-1.072 14.866,-3.65 14.866,-7.668c0,-2.243 -0.937,-3.917 -2.712,-4.955c-1.808,-1.038 -4.654,-1.54 -8.571,-1.54c-3.248,-0 -5.726,0.669 -7.467,1.908c-1.741,1.273 -2.745,3.248 -3.046,5.893l-30.57,0c0.168,-8.806 3.75,-15.469 10.849,-19.989c7.098,-4.52 17.511,-6.763 31.305,-6.763c6.462,-0 12.422,0.569 17.913,1.808c5.458,1.205 9.744,2.812 12.79,4.888c3.684,2.478 6.329,5.324 7.802,8.471c1.507,3.181 2.243,7.701 2.243,13.594l0,43.862c-0.015,1.341 0.271,2.668 0.837,3.884c0.578,1.141 1.459,2.102 2.545,2.779l-0,2.243l-31.406,-0l-0,-0.1Zm-2.88,-35.123c-2.98,1.172 -6.964,2.377 -11.92,3.683c-7.834,2.042 -11.718,4.855 -11.718,8.303c-0,2.244 0.77,3.951 2.343,5.224c1.541,1.272 3.717,1.875 6.563,1.875c5.223,-0 9.04,-1.206 11.417,-3.583c2.411,-2.444 3.583,-6.261 3.583,-11.518c-0,-1.105 -0,-1.975 -0.034,-2.511l-0.234,-1.473Z" style="fill:#fff;"/><path d="M151.071,93.008c0,-13.024 3.962,-23.281 11.887,-30.77c7.935,-7.5 18.783,-11.284 32.645,-11.284c13.861,0 24.743,3.75 32.611,11.284c7.902,7.5 11.853,17.757 11.853,30.77c-0,13.125 -3.973,23.46 -11.92,31.005c-7.901,7.5 -18.75,11.261 -32.544,11.283c-13.828,0 -24.677,-3.75 -32.645,-11.283c-7.902,-7.534 -11.864,-17.869 -11.887,-31.005Zm31.641,0c0,7.299 1.005,12.522 3.013,15.703c2.009,3.181 5.291,4.755 9.878,4.755c4.587,-0 7.901,-1.607 9.977,-4.822c2.043,-3.214 3.081,-8.437 3.081,-15.669c-0,-7.199 -1.038,-12.355 -3.081,-15.536c-2.076,-3.147 -5.357,-4.755 -9.977,-4.755c-4.621,0 -7.902,1.541 -9.878,4.688c-1.975,3.147 -3.013,8.404 -3.013,15.636Z" style="fill:#fff;"/><path d="M582.355,17.204c0.005,0 0.011,0 0.017,0c9.67,0 17.628,7.958 17.628,17.629c-0,9.67 -7.958,17.628 -17.628,17.628c-9.665,0 -17.62,-7.947 -17.629,-17.611c0.002,-9.667 7.945,-17.626 17.612,-17.646Z" style="fill:#fff;"/></g></svg>