<?xml version="1.0" encoding="UTF-8" standalone="no"?><!DOCTYPE svg PUBLIC "-//W3C//DTD SVG 1.1//EN" "http://www.w3.org/Graphics/SVG/1.1/DTD/svg11.dtd"><svg width="100%" height="100%" viewBox="0 0 600 288" version="1.1" xmlns="http://www.w3.org/2000/svg" xmlns:xlink="http://www.w3.org/1999/xlink" xml:space="preserve" xmlns:serif="http://www.serif.com/" style="fill-rule:evenodd;clip-rule:evenodd;stroke-linejoin:round;stroke-miterlimit:2;"><g id="laserdisc_singe"><g id="laserdisc"><path d="M102.492,198.426l24.543,-0l-8.791,51.648l-23.81,0l8.058,-51.648" style="fill:#fff;"/><path d="M92.967,257.769l24.176,-0l-0.732,5.86l20.147,0l-2.93,20.88l-45.057,0l4.396,-26.74" style="fill:#fff;"/><path d="M407.99,202.822l22.344,-0l-2.198,14.653l-22.346,0l2.2,-14.653" style="fill:#fff;"/><path d="M404.875,223.701l22.344,0l-4.027,27.106l-22.346,0l4.029,-27.106" style="fill:#fff;"/><path d="M399.748,257.769l22.344,-0l-4.029,26.74l-22.346,0l4.031,-26.74" style="fill:#fff;"/><path d="M297.549,257.769l22.344,-0l-4.03,26.74l-22.343,0l4.029,-26.74" style="fill:#fff;"/><path d="M160.915,257.769c-0.188,1.73 -0.318,3.93 -0.123,5.908c0.265,2.414 1.202,4.343 3.493,4.343c3.016,-0 4.833,-2.653 5.875,-5.79c0.59,-1.627 1.011,-2.98 1.317,-4.518l20.821,-0.055l-4.242,26.927l-18.512,0l1.087,-5.364c-4.586,5.838 -8.26,7.241 -15.978,7.241c-14.743,-0 -17.098,-16.355 -16.164,-28.685l22.426,-0.008" style="fill:#fff;"/><path d="M172.405,250.808c0.015,-1.534 -0.004,-2.441 -0.078,-3.517c-0.215,-2.774 -1.083,-5.185 -3.858,-5.185c-2.895,-0 -4.627,2.894 -5.838,6.392c-0.174,0.545 -0.326,1.069 -1.006,2.303l-22.62,-0.017c3.004,-12.893 9.762,-27.979 24.485,-28.282c4.021,-0.082 11.529,0.466 14.467,6.21l0.641,0.124l0.95,-5.19l18.142,0l-4.179,27.161l-21.106,0.001" style="fill:#fff;"/><path d="M199.014,250.806c-1.351,-2.695 -1.916,-5.923 -1.379,-9.765c1.838,-13.148 11.721,-19.821 26.557,-19.821c6.393,0 10.837,1.5 15.946,4.638l-2.433,16.881c-3.71,-3.104 -10.429,-4.753 -14.409,-4.753c-1.689,-0 -3.786,0.398 -4.303,2.403c-0.75,2.909 2.509,4.51 6.474,5.909c3.277,1.158 6.065,2.595 8.288,4.483l-34.741,0.025" style="fill:#fff;"/><path d="M238.823,257.827c1.009,2.767 1.311,6.099 0.819,9.615c-2.007,14.353 -14.323,19.75 -27.47,19.75c-8.684,0 -12.338,-1.617 -19.243,-5.718l3.088,-18.892c2.352,3.015 10.321,7.823 15.654,7.549c2.049,-0.104 6.184,-1.514 6.504,-3.806c0.32,-2.291 -0.664,-3.979 -5.809,-5.615c-2.408,-0.766 -4.696,-1.573 -6.722,-2.822l33.179,-0.061" style="fill:#fff;"/><path d="M263.28,257.778c-0.889,5.388 -1.092,13.843 3.817,14.441c3.162,0.385 6.459,-2.18 7.458,-8.676l19.861,0c-3.461,20.415 -15.425,24.12 -29.658,24.016c-15.506,-0.113 -24.79,-12.737 -23.651,-29.806l22.173,0.025" style="fill:#fff;"/><path d="M471.712,250.806c2.914,-16.004 10.711,-29.076 33.004,-29.585c4.373,-0.099 7.853,1.381 9.672,2.438l-2.883,17.33c-8.846,-3.587 -13.658,3.454 -15.356,9.842l-24.437,-0.025" style="fill:#fff;"/><path d="M495.638,257.78c0.596,3.988 2.891,7.706 7.366,7.706l4.865,-0.366l-2.835,19.392c-3.455,0.912 -6.75,1.461 -11.223,1.398c-17.018,-0.237 -23.994,-12.753 -23.003,-28.153l24.83,0.023" style="fill:#fff;"/><path d="M369.91,257.778c-2.665,4.315 -5.328,7.499 -11.37,6.95l1.044,-6.968l-23.534,0.014l-4.252,26.734l23.81,-0c19.703,-0 33.227,-8.621 39.859,-26.791l-25.557,0.061" style="fill:#fff;"/><path d="M360.469,250.824l4.664,-30.051c9.522,0 11.719,7.325 9.89,20.513c-0.458,3.295 -1.098,6.776 -1.958,9.592l24.774,0.026c0.896,-3.709 1.291,-7.829 1.725,-12.182c3.298,-32.968 -14.651,-40.295 -32.6,-40.295l-22.346,0l-3.114,23.444c-3.663,0.732 -12.637,1.832 -17.398,8.243c-0.916,0.913 -1.466,0.55 -1.282,-0.55l0.916,-5.861l-21.063,-0l-4.029,27.106l22.344,-0c0.916,-3.847 10.991,-9.523 17.215,-6.594l-1.044,6.573l23.305,0.036" style="fill:#fff;"/><path d="M428.321,250.806c-1.352,-2.695 -1.917,-5.923 -1.379,-9.765c1.837,-13.148 11.72,-19.821 26.557,-19.821c6.392,0 10.838,1.5 15.948,4.638l-2.435,16.881c-3.712,-3.104 -10.428,-4.753 -14.409,-4.753c-1.689,-0 -3.787,0.398 -4.303,2.403c-0.751,2.909 2.51,4.51 6.474,5.909c3.275,1.158 6.064,2.595 8.288,4.483l-34.741,0.025" style="fill:#fff;"/><path d="M468.132,257.827c1.008,2.767 1.308,6.099 0.816,9.615c-2.004,14.353 -14.322,19.75 -27.468,19.75c-8.684,0 -12.337,-1.617 -19.242,-5.718l3.086,-18.892c2.353,3.015 10.322,7.823 15.655,7.549c2.049,-0.104 6.183,-1.514 6.505,-3.806c0.32,-2.291 -0.666,-3.979 -5.81,-5.615c-2.411,-0.766 -4.696,-1.573 -6.724,-2.822l33.182,-0.061" style="fill:#fff;"/><path d="M272.253,221.22c-17.929,0.121 -26.751,12.703 -30.233,29.579l54.133,0.012c0.6,-7.828 0.316,-15.412 -2.049,-18.852c-4.127,-6.004 -9.559,-10.821 -21.851,-10.739l-0,0Zm0.35,14.135c4.221,0 4.908,4.582 4.539,8.08l-10.976,0c0.335,-3.256 2.456,-8.08 6.437,-8.08" style="fill:#fff;"/></g><g id="daphne-singe-singe"><path d="M76.719,15.687c20.104,0 35.304,8.002 45.597,24.005l0,2.413c0,2.493 -3.176,5.669 -9.53,9.529l-2.412,0c-0,-11.499 -5.589,-20.265 -16.767,-26.296l-12.063,-0c-16.003,4.342 -24.005,9.931 -24.005,16.767l0,9.529c0,4.504 22.397,38.119 67.19,100.845l-0,4.704c-13.672,20.828 -34.46,31.243 -62.365,31.243c-41.576,-6.916 -62.364,-18.899 -62.364,-35.947c1.769,-0 8.162,-4.825 19.18,-14.476l4.825,0c-0,25.654 12.786,38.481 38.359,38.481c13.35,-0 21.351,-8.002 24.005,-24.005c0,-6.112 -23.201,-41.295 -69.602,-105.549l0,-4.825c16.888,-17.612 36.872,-26.418 59.952,-26.418Z" style="fill:#fff;fill-rule:nonzero;"/><path d="M173.341,188.426c-26.136,-21.955 -39.203,-33.937 -39.203,-35.947c9.65,-10.133 14.475,-20.547 14.475,-31.243l-0,-76.719c-0,-9.972 -3.458,-18.777 -10.374,-26.417l-0,-2.413l49.457,0l0,2.413l-10.253,14.355l-0,155.971l-4.102,-0Z" style="fill:#fff;fill-rule:nonzero;"/><path d="M284.318,0.73l27.142,-0l-2.654,32.69l-0,155.006l-8.203,-0c0,-5.469 -25.372,-34.5 -76.116,-87.093l-5.428,-0c-3.699,0.563 -5.549,2.372 -5.549,5.428l0,54.403c0,4.584 1.85,12.746 5.549,24.487l-5.549,2.775l-16.284,-0c-3.619,-0 -5.429,-1.81 -5.429,-5.429c3.619,-5.951 5.429,-11.379 5.429,-16.284l-0,-146.924c0.563,-3.619 2.372,-5.428 5.428,-5.428c52.191,56.212 81.222,84.318 87.093,84.318l5.428,-10.856c-1.85,-54.444 -5.469,-81.665 -10.857,-81.665l0,-5.428Z" style="fill:#fff;fill-rule:nonzero;"/><path d="M415.682,15.687c20.265,3.298 32.609,6.595 37.032,9.892c-3.297,12.304 -4.946,19.702 -4.946,22.195l-2.412,0c-9.248,-7.479 -19.14,-11.218 -29.674,-11.218l-4.946,-0c-26.297,-0 -42.742,16.084 -49.337,48.251l0,24.608c0,27.422 18.939,45.516 56.816,54.282l4.945,0c2.333,0 4.785,-2.453 7.359,-7.358l-0,-22.196c-0,-10.534 -7.761,-23.643 -23.281,-39.324l4.945,-2.413l44.391,0c3.297,0.483 4.946,2.131 4.946,4.946c-2.573,12.465 -3.86,21.432 -3.86,26.9l-0,49.337c-0,9.891 -6.594,14.837 -19.783,14.837c-55.971,-0 -93.808,-22.196 -113.51,-66.587c-1.609,-8.926 -2.413,-16.324 -2.413,-22.195c0,-54.926 31.243,-82.911 93.728,-83.957Z" style="fill:#fff;fill-rule:nonzero;"/><path d="M551.387,15.687c17.371,3.298 27.946,6.595 31.725,9.892c-2.814,12.304 -4.222,19.702 -4.222,22.195l-2.171,0c-7.881,-9.891 -16.325,-14.837 -25.332,-14.837l-4.222,0c-22.517,0 -36.63,17.29 -42.34,51.87l0,4.946l52.835,-0c14.153,-1.207 21.23,-6.152 21.23,-14.838l4.222,0l0,2.413c0,21.391 -5.629,32.087 -16.888,32.087l-61.399,-0c0,27.422 16.204,45.516 48.613,54.282l12.786,0c8.766,-3.699 18.617,-17.652 29.554,-41.858l4.222,0l0,2.413c-8.846,41.174 -15.199,61.761 -19.059,61.761c-2.332,1.608 -5.83,2.413 -10.495,2.413c-48.009,-0 -80.418,-22.196 -97.225,-66.587c-1.448,-8.926 -2.172,-16.324 -2.172,-22.195c0,-44.471 26.78,-72.457 80.338,-83.957Z" style="fill:#fff;fill-rule:nonzero;"/></g></g></svg>