<svg clip-rule="evenodd" fill-rule="evenodd" stroke-linejoin="round" stroke-miterlimit="2" viewBox="0 0 600 127" xmlns="http://www.w3.org/2000/svg"><g fill="#fff"><path d="m19.615.458h34.583l-12.388 72.776h-33.549l11.354-72.776"/><path d="m6.194 84.076h34.066l-1.033 8.257h28.388l-4.128 29.422h-63.487l6.194-37.679"/><path d="m450.079 6.652h31.484l-3.097 20.648h-31.487z"/><path d="m445.69 36.073h31.484l-5.675 38.193h-31.487z"/><path d="m438.466 84.076h31.484l-5.678 37.679h-31.487z"/><path d="m294.462 84.076h31.483l-5.678 37.679h-31.482z"/><path d="m101.936 84.076c-.264 2.438-.448 5.538-.174 8.325.374 3.401 1.694 6.119 4.923 6.119 4.25 0 6.81-3.738 8.278-8.158.831-2.293 1.425-4.199 1.856-6.366l29.338-.078-5.977 37.942h-26.085l1.531-7.559c-6.461 8.227-11.638 10.204-22.513 10.204-20.774 0-24.093-23.045-22.777-40.42l31.6-.011"/><path d="m118.126 74.268c.022-2.162-.005-3.439-.109-4.956-.303-3.908-1.527-7.306-5.436-7.306-4.079 0-6.52 4.078-8.227 9.007-.245.768-.459 1.505-1.418 3.246l-31.872-.025c4.233-18.168 13.754-39.424 34.501-39.85 5.665-.116 16.245.655 20.384 8.75l.904.174 1.338-7.313h25.563l-5.888 38.271-29.74.001"/><path d="m155.62 74.265c-1.903-3.798-2.699-8.346-1.943-13.76 2.589-18.526 16.516-27.928 37.42-27.928 9.008 0 15.27 2.113 22.47 6.534l-3.429 23.787c-5.228-4.373-14.695-6.697-20.304-6.697-2.379 0-5.334.561-6.062 3.386-1.058 4.099 3.535 6.354 9.121 8.326 4.619 1.631 8.546 3.657 11.678 6.316z"/><path d="m211.713 84.158c1.422 3.899 1.847 8.593 1.155 13.548-2.829 20.225-20.183 27.829-38.708 27.829-12.236 0-17.384-2.279-27.114-8.058l4.35-26.619c3.316 4.249 14.544 11.023 22.059 10.638 2.886-.148 8.713-2.134 9.164-5.364.451-3.228-.936-5.606-8.185-7.912-3.394-1.079-6.617-2.216-9.473-3.976z"/><path d="m246.175 84.089c-1.254 7.591-1.539 19.505 5.378 20.348 4.456.542 9.1-3.072 10.509-12.225h27.985c-4.877 28.766-21.735 33.987-41.79 33.84-21.849-.16-34.93-17.947-33.326-41.999z"/><path d="m539.866 74.265c4.107-22.551 15.093-40.97 46.505-41.687 6.163-.14 11.065 1.946 13.629 3.435l-4.063 24.419c-12.464-5.054-19.244 4.868-21.637 13.868z"/><path d="m573.58 84.092c.84 5.618 4.073 10.858 10.378 10.858l6.856-.516-3.995 27.325c-4.868 1.285-9.511 2.058-15.813 1.97-23.98-.335-33.809-17.97-32.412-39.67z"/><path d="m396.422 84.089c-3.755 6.08-7.507 10.566-16.022 9.793l1.472-9.818-33.16.019-5.991 37.67h33.549c27.762 0 46.819-12.148 56.163-37.75l-36.01.085"/><path d="m383.119 74.29 6.572-42.343c13.416 0 16.513 10.321 13.935 28.903-.645 4.644-1.546 9.549-2.758 13.516l34.908.037c1.263-5.226 1.819-11.031 2.43-17.166 4.647-46.453-20.644-56.777-45.935-56.777h-31.487l-4.387 33.034c-5.162 1.031-17.807 2.581-24.516 11.614-1.29 1.287-2.065.775-1.806-.775l1.291-8.258h-29.679l-5.677 38.194h31.484c1.291-5.42 15.486-13.419 24.257-9.291l-1.472 9.261 32.839.051"/><path d="m478.726 74.265c-1.905-3.798-2.7-8.346-1.942-13.76 2.587-18.526 16.513-27.928 37.42-27.928 9.006 0 15.271 2.113 22.471 6.534l-3.431 23.787c-5.23-4.373-14.694-6.697-20.303-6.697-2.38 0-5.336.561-6.063 3.386-1.059 4.099 3.537 6.354 9.122 8.326 4.615 1.631 8.545 3.657 11.679 6.316z"/><path d="m534.822 84.158c1.42 3.899 1.843 8.593 1.15 13.548-2.823 20.225-20.18 27.829-38.704 27.829-12.235 0-17.384-2.279-27.113-8.058l4.349-26.619c3.315 4.249 14.543 11.023 22.058 10.638 2.888-.148 8.712-2.134 9.166-5.364.451-3.228-.939-5.606-8.187-7.912-3.396-1.079-6.616-2.216-9.473-3.976z"/><path d="m258.817 32.577c-25.262.17-37.693 17.899-42.6 41.679l76.277.016c.846-11.03.446-21.716-2.887-26.564-5.815-8.46-13.469-15.247-30.79-15.131zm.494 19.917c5.947 0 6.916 6.456 6.396 11.385h-15.466c.472-4.588 3.461-11.385 9.07-11.385"/></g></svg>