<svg clip-rule="evenodd" fill-rule="evenodd" stroke-linejoin="round" stroke-miterlimit="2" viewBox="0 0 600 165" xmlns="http://www.w3.org/2000/svg"><g fill="#fff" fill-rule="nonzero"><path d="m127.682 27.27c.545 1.949 1.427 5.15 2.188 9.414.762 4.269 1.401 9.605 1.455 15.822.054 6.225-.48 13.336-2.07 21.142-1.592 7.821-4.243 16.343-8.423 25.378-4.132 8.936-10.012 17.161-17.275 24.479-7.276 7.329-15.937 13.743-25.615 19.039-9.691 5.303-20.396 9.483-31.745 12.339-11.355 2.856-23.347 4.385-35.598 4.385h-.499c-.167-.002-.333-.002-.498-.003-.168-.001-.333-.003-.499-.004-.166-.002-.333-.003-.5-.006 1.993-1.421 3.6-2.634 4.868-3.978 1.268-1.343 2.2-2.818 2.846-4.762s1.005-4.357 1.129-7.577c.125-3.218.015-7.24-.28-12.403-.295-5.158-.652-12.509-1.046-20.808-.392-8.281-.822-17.503-1.258-26.432-.436-8.91-.88-17.53-1.305-24.641-.423-7.099-.83-12.701-1.193-15.596-.307-2.463-.678-4.607-1.15-6.437-.472-1.831-1.043-3.347-1.75-4.557-.708-1.208-1.553-2.109-2.571-2.709-1.019-.599-2.212-.897-3.615-.897-.246 0-.498.009-.758.029-.259.018-.525.045-.797.082-.274.037-.554.082-.84.137-.288.056-.581.118-.883.192 8.257-6.37 15.512-11.35 22.071-15.237 6.552-3.883 12.411-6.678 17.877-8.68 5.463-2.001 10.536-3.209 15.516-3.916 4.98-.709 9.868-.915 14.965-.915 1.595 0 3.211.019 4.856.052 1.647.031 3.321.075 5.034.12 1.713.046 3.467.095 5.266.136 1.8.042 3.647.077 5.55.097 7.979.081 14.293.907 19.278 2.112 4.989 1.206 8.648 2.791 11.322 4.388 2.673 1.597 4.358 3.205 5.392 4.454 1.034 1.25 1.417 2.141 1.486 2.303-.803.688-1.401 1.387-1.809 2.169-.409.782-.629 1.649-.681 2.67-.053 1.025.065 2.205.331 3.616.266 1.413.683 3.055 1.228 5.003zm-31.704 77.052c3.387-6.24 5.726-12.842 7.214-19.535 1.486-6.683 2.124-13.454 2.107-20.046-.017-6.582-.686-12.986-1.814-18.944-1.125-5.95-2.709-11.457-4.556-16.258-1.58-4.103-3.393-7.361-5.424-9.943-2.029-2.58-4.276-4.482-6.725-5.874-2.45-1.389-5.101-2.269-7.94-2.801-2.839-.531-5.867-.715-9.066-.715-.537 0-1.08.006-1.626.016-.547.009-1.1.024-1.655.041-.557.018-1.12.038-1.685.062s-1.136.051-1.711.081c-7.786.394-13.474 2.218-17.627 4.96-4.156 2.743-6.776 6.404-8.415 10.466-1.642 4.064-2.303 8.532-2.541 12.881-.238 4.353-.051 8.587.002 12.179.056 3.596.412 11.202.919 20.671.509 9.491 1.171 20.859 1.835 31.934.666 11.105 1.335 21.912 1.856 30.216.52 8.32.891 14.118.959 15.174 5.215-.419 9.969-.963 14.505-2.159 4.537-1.196 8.854-3.043 13.195-6.068 4.339-3.024 8.7-7.22 13.325-13.113 4.619-5.885 9.495-13.456 14.868-23.225"/><path d="m195.056 151.057c.091-.039.596-.259 1.304-.707.708-.449 1.621-1.127 2.53-2.091.91-.96 1.815-2.204 2.511-3.781s1.18-3.488 1.248-5.782c.068-2.291.096-7.58.098-14.277.001-6.686-.023-14.773-.06-22.684-.035-7.897-.085-15.62-.131-21.611-.047-5.981-.093-10.24-.122-11.223-.396-.012-.798-.02-1.209-.029-.411-.007-.829-.014-1.254-.018s-.857-.009-1.295-.011c-.437-.003-.882-.003-1.33-.003-3.127 0-6.509.056-9.899.143-3.389.086-6.787.204-9.939.326s-6.061.248-8.475.353c-2.414.104-4.334.187-5.509.222-1.181 2.994-3.175 7.542-4.964 13.345-1.792 5.811-3.382 12.884-3.749 20.92-.368 8.053.492 17.074 3.606 26.765 3.121 9.712 8.508 20.101 17.197 30.857-3.171-.501-6.448-2.272-9.667-4.892-3.217-2.62-6.373-6.085-9.301-9.981-2.926-3.894-5.626-8.216-7.936-12.552-2.306-4.331-4.222-8.675-5.585-12.62-1.361-3.946-2.483-8.187-3.295-12.639-.812-4.448-1.312-9.103-1.432-13.884-.119-4.774.141-9.672.855-14.608.713-4.931 1.876-9.899 3.562-14.821 1.681-4.914 3.325-8.524 4.87-11.31 1.541-2.786 2.983-4.751 4.256-6.373 1.272-1.622 2.376-2.902 3.244-4.316.869-1.414 1.501-2.962 1.829-5.121.328-2.157.068-3.775-.513-4.987-.58-1.213-1.482-2.021-2.436-2.559-.955-.539-1.966-.808-2.763-.942-.798-.135-1.383-.135-1.489-.135 7.519-.487 15.64-.965 23.66-1.411 8.021-.446 15.94-.863 23.057-1.228 7.116-.366 13.428-.68 18.233-.924 4.804-.242 8.101-.414 9.187-.495.049-.002.095-.007.142-.01.047-.002.092-.004.138-.007.045-.001.089-.002.133-.004.044-.001.088-.001.129-.001.921 0 1.535.208 1.901.545.364.337.48.804.398 1.318s-.358 1.078-.773 1.609c-.418.532-.975 1.033-1.618 1.421-.672.408-1.147.876-1.48 1.419-.332.542-.527 1.163-.636 1.874-.11.711-.139 1.513-.141 2.424s.019 1.928.01 3.07c-.01 1.141-.068 7.4-.149 16.269-.081 8.888-.187 20.406-.293 32.028-.107 11.655-.214 23.413-.299 32.707-.087 9.314-.148 16.144-.165 17.892-.017 1.752.19 3.357.575 4.792.386 1.435.95 2.698 1.65 3.763s1.531 1.932 2.455 2.576c.922.643 1.935 1.062 2.994 1.229-3.557 0-7.389.01-11.153.026-3.765.016-7.461.034-10.744.055-3.281.02-6.15.04-8.26.055-2.112.02-3.462.032-3.708.034zm7.723-97.72c.054-1.101.132-2.407.203-3.775.071-1.369.135-2.803.162-4.159.026-1.356.015-2.634-.063-3.695-.078-1.062-.225-1.907-.47-2.396-.248-.497-.551-.988-.924-1.447-.374-.46-.817-.886-1.346-1.249-.53-.362-1.143-.664-1.859-.875-.715-.211-1.531-.33-2.462-.33-.361 0-.74.018-1.138.056-.396.039-.812.095-1.247.175-.435.077-.888.178-1.361.301-.473.124-.968.27-1.482.441-1.846.609-3.59 1.37-5.347 2.43-1.757 1.061-3.525 2.42-5.419 4.222-1.896 1.803-3.919 4.052-6.185 6.892-2.266 2.843-4.776 6.277-7.643 10.451.846.024 1.72.044 2.617.061s1.816.031 2.75.042c.933.01 1.883.019 2.838.024.956.004 1.918.007 2.881.007 2.325 0 4.649-.014 6.866-.039 2.216-.026 4.325-.061 6.223-.104 1.895-.042 3.58-.092 4.946-.146 1.365-.054 2.412-.11 3.036-.168.878-.084 1.581-.27 2.143-.57.563-.3.986-.715 1.307-1.258.32-.543.537-1.213.687-2.025.149-.811.234-1.762.287-2.866"/><path d="m267.11 77.104c7.124-4.433 13.077-8.403 18.078-12.007 4.995-3.602 9.041-6.839 12.353-9.814 3.313-2.974 5.891-5.685 7.956-8.235 2.064-2.547 3.614-4.932 4.868-7.255-1.054-1.536-2.128-2.997-3.297-4.323s-2.433-2.518-3.865-3.516c-1.431-.999-3.032-1.807-4.874-2.365s-3.927-.866-6.33-.866c-.465 0-.942.012-1.431.034-.49.024-.99.06-1.506.107-.516.046-1.043.107-1.584.181-.541.072-1.095.159-1.665.258-3.505.608-6.697 1.537-9.516 2.76-2.818 1.222-5.265 2.741-7.274 4.526-2.011 1.787-3.585 3.841-4.659 6.138-1.075 2.298-1.649 4.838-1.661 7.592-.013 2.758-.027 9.537-.042 18.174-.015 8.653-.031 19.179-.045 29.388-.014 10.235-.027 20.15-.035 27.528-.009 7.393-.016 12.231-.016 12.285-.006 1.25.037 2.298.234 3.249.194.951.54 1.804 1.14 2.666.601.863 1.453 1.733 2.664 2.716 1.211.984 2.777 2.082 4.803 3.398h-35.477c.577-.06 1.29-.206 2.038-.53.746-.324 1.527-.827 2.235-1.602.71-.774 1.349-1.821 1.815-3.231.465-1.409.756-3.183.773-5.413.019-3 .014-9.368-.03-17.386-.046-8.003-.131-17.644-.271-27.216-.14-9.551-.334-19.036-.599-26.769-.265-7.72-.599-13.7-1.02-16.276-.424-2.573-.928-4.471-1.501-5.876-.569-1.404-1.208-2.315-1.892-2.911-.686-.596-1.42-.88-2.188-1.027-.766-.149-1.566-.163-2.382-.221 7.474-4.13 14.105-7.445 20.107-10.095 6.001-2.648 11.376-4.633 16.346-6.102 4.969-1.469 9.532-2.423 13.906-3.009 4.373-.587 8.56-.806 12.774-.806h.449c.148 0 .3.001.449.002.149 0 .299.002.448.003.15.002.301.003.45.006 4.375.059 8.329.453 12.003 1.22 3.674.768 7.067 1.908 10.323 3.461s6.374 3.518 9.495 5.934c3.124 2.417 6.252 5.284 9.527 8.642-5.991 6.544-12.258 11.795-18.603 16.068-6.348 4.277-12.769 7.571-19.053 10.199-6.288 2.63-12.435 4.592-18.238 6.204-5.809 1.618-11.268 2.881-16.18 4.112z"/><path d="m338.525 24.015 41.53 1.96c-1.785.731-3.3 1.502-4.565 2.308-1.264.806-2.277 1.649-3.063 2.522-.786.874-1.34 1.778-1.687 2.709-.349.93-.488 1.888-.438 2.867.05.976.075 2.744.088 4.86.011 2.116.007 4.583-.003 6.955-.01 2.374-.027 4.654-.041 6.395-.016 1.743-.027 2.946-.03 3.164h37.165c.002-.165.015-1.063.02-2.419.006-1.354.003-3.162-.022-5.143-.026-1.979-.076-4.131-.165-6.175-.089-2.042-.219-3.977-.408-5.523-.187-1.549-.642-2.883-1.286-4.035-.642-1.152-1.475-2.124-2.413-2.948s-1.982-1.499-3.055-2.059c-1.074-.561-2.172-1.006-3.217-1.37 5.381.04 10.388.127 14.885.238 4.496.111 8.483.242 11.824.371s6.033.255 7.941.352c1.909.096 3.036.163 3.24.175-1.195 1.016-2.193 1.859-3.039 2.837-.847.977-1.538 2.092-2.122 3.649-.581 1.557-1.053 3.558-1.455 6.311-.404 2.754-.738 6.263-1.048 10.837-.306 4.577-.69 11.711-1.096 19.964-.406 8.268-.835 17.667-1.228 26.746-.392 9.097-.749 17.871-1.012 24.857-.263 6.997-.43 12.192-.443 14.11-.014 1.919.105 3.599.354 5.067.25 1.469.625 2.727 1.129 3.804.502 1.076 1.128 1.969 1.873 2.709.747.739 1.614 1.326 2.593 1.786-4.569-.041-9.042-.083-13.194-.122-4.153-.039-7.984-.076-11.274-.107-3.287-.033-6.033-.06-8.009-.08-1.978-.021-3.189-.031-3.407-.034.129-.01.837-.066 1.839-.334 1.003-.266 2.296-.745 3.597-1.6 1.3-.854 2.607-2.081 3.631-3.848 1.024-1.766 1.767-4.07 1.943-7.074.174-2.999.423-8.798.697-15.845.273-7.034.575-15.311.857-23.291.282-7.966.545-15.64.741-21.501.2-5.853.331-9.903.357-10.64-4.989.084-9.763.147-14.136.194-4.372.047-8.34.08-11.711.099-3.373.022-6.149.032-8.135.037s-3.185.005-3.403.005c-.035.821-.241 5.345-.52 11.776-.282 6.438-.638 14.795-.979 23.259-.34 8.481-.666 17.074-.883 23.948-.215 6.884-.324 12.042-.226 13.627.095 1.584.284 2.991.575 4.232.287 1.241.678 2.318 1.172 3.236.493.918 1.092 1.682 1.8 2.298.71.616 1.529 1.087 2.463 1.42h-34.865c.094-.002.618-.015 1.359-.236.741-.222 1.699-.656 2.665-1.501.966-.846 1.937-2.102 2.706-3.973.769-1.869 1.333-4.35 1.486-7.644s.451-10.494.792-19.594c.337-9.08.719-20.045 1.035-30.904.315-10.832.566-21.558.654-30.22.086-8.646.007-15.242-.341-17.851-.352-2.605-1.013-4.824-1.844-6.7-.828-1.874-1.827-3.408-2.856-4.647-1.027-1.239-2.084-2.184-3.03-2.88-.944-.69-1.778-1.139-2.362-1.386z"/><path d="m455.451 29.188c.392 0 .798.037 1.213.113.418.076.85.189 1.298.339.447.152.913.341 1.397.568.485.228.99.495 1.518.801 2.111 1.218 5.476 3.119 9.477 5.563 4.001 2.446 8.638 5.435 13.287 8.828 4.653 3.396 9.318 7.201 13.372 11.27 4.056 4.073 7.501 8.412 9.707 12.878.247-5.248.302-9.803.163-13.729-.139-3.923-.47-7.219-.999-9.952-.525-2.732-1.246-4.901-2.163-6.57-.915-1.669-2.03-2.839-3.339-3.572.6-.008 1.195-.015 1.782-.021.588-.006 1.167-.01 1.741-.014.574-.005 1.138-.006 1.693-.009.556-.001 1.101-.001 1.638-.001 2.148 0 4.12.013 5.877.03 1.755.018 3.294.043 4.575.068s2.302.051 3.022.069c.721.02 1.14.034 1.215.037-1.762 1.18-3.087 2.015-4.083 2.816-.997.802-1.666 1.57-2.119 2.62-.454 1.05-.693 2.38-.828 4.306-.136 1.925-.165 4.448-.207 7.881-.035 3.433-.107 7.974-.249 13.161-.142 5.194-.35 11.035-.662 17.059-.31 6.033-.722 12.251-1.269 18.182-.547 5.941-1.227 11.594-2.077 16.487-.85 4.901-2.253 9.607-3.993 14.007-1.742 4.4-3.821 8.49-6.018 12.151-2.198 3.664-4.514 6.897-6.727 9.582-2.214 2.686-4.327 4.819-6.113 6.286 3.495-6.656 6.402-12.874 8.726-18.731 2.322-5.848 4.062-11.338 5.226-16.545 1.163-5.203 1.751-10.123 1.771-14.838.02-4.71-.528-9.216-1.641-13.594-1.112-4.374-3.519-8.947-6.627-13.396-3.102-4.442-6.901-8.757-10.803-12.617-3.898-3.855-7.897-7.256-11.408-9.877-3.508-2.62-6.526-4.46-8.467-5.196-.633-.239-1.217-.466-1.76-.667-.542-.203-1.042-.383-1.503-.531-.46-.151-.883-.27-1.268-.352-.387-.082-.738-.127-1.06-.127-.66 0-1.188.19-1.622.636-.435.445-.772 1.146-1.048 2.168-.277 1.021-.495 2.363-.686 4.09-.193 1.728-.36 3.844-.537 6.409-.268 3.816-.642 9.933-1.051 17.039-.411 7.115-.86 15.225-1.278 22.997-.421 7.788-.809 15.238-1.1 21.004-.29 5.775-.483 9.859-.504 10.904-.026 1.041.102 2.249.363 3.509.26 1.261.653 2.569 1.161 3.811.509 1.243 1.134 2.417 1.855 3.406.723.99 1.541 1.797 2.441 2.297-2.413-.083-5.231-.254-8.114-.465-2.88-.211-5.826-.465-8.496-.71s-5.064-.483-6.843-.666c-1.781-.181-2.946-.309-3.158-.33 1.856-.251 3.52-.618 4.987-1.189 1.465-.572 2.733-1.35 3.795-2.427 1.061-1.075 1.917-2.448 2.56-4.209.642-1.761 1.072-3.909 1.281-6.534.208-2.625.591-8.803 1.043-16.677.452-7.859.975-17.401 1.466-26.782.493-9.359.952-18.561 1.284-25.782.33-7.21.533-12.454.507-13.925-.027-1.473-.099-2.689-.278-3.687-.179-.999-.466-1.779-.915-2.381-.45-.602-1.064-1.025-1.901-1.309-.836-.283-1.896-.426-3.235-.47 1.713-2.536 3.194-4.772 4.527-6.7 1.33-1.927 2.515-3.546 3.631-4.85 1.118-1.302 2.166-2.288 3.23-2.95 1.066-.654 2.146-.99 3.32-.99z"/><path d="m533.02 37.279c.947 0 2.06.043 3.393.132 1.334.089 2.885.228 4.711.417 1.825.19 3.923.432 6.346.731 2.426.299 5.174.656 8.304 1.075 4.289.574 8.309 1.077 12.014 1.508 3.704.43 7.093.789 10.118 1.075 3.024.286 5.685.501 7.935.645 2.251.143 4.09.213 5.469.213h.266c.089 0 .173-.001.257-.002.083-.002.164-.003.243-.005.08-.001.155-.004.23-.007.792-.028 1.527-.109 2.206-.212.678-.104 1.298-.234 1.857-.359.56-.124 1.057-.246 1.492-.335.436-.091.806-.149 1.111-.149.161 0 .306.017.429.054.125.036.23.095.316.177.086.083.152.19.2.326s.075.3.082.5c.02.569-.248 1.272-.768 2.213-.521.94-1.295 2.118-2.285 3.638-.992 1.52-2.203 3.383-3.596 5.694-1.394 2.311-2.974 5.071-4.7 8.385-.012-.156-.076-1.01-.398-2.262-.321-1.251-.901-2.897-1.941-4.635-1.041-1.739-2.544-3.569-4.713-5.19-2.169-1.619-5.004-3.03-8.712-3.927-.35-.085-.696-.159-1.039-.221-.342-.063-.681-.114-1.017-.155s-.669-.071-.996-.09c-.327-.02-.652-.03-.973-.03-3.082 0-5.833.897-8.267 2.315s-4.551 3.358-6.359 5.44c-1.809 2.084-3.311 4.313-4.512 6.309-1.203 1.997-2.106 3.759-2.718 4.908-.675 1.27-1.057 2.222-1.109 2.94-.052.717.224 1.198.861 1.527.638.329 1.638.503 3.035.608s3.191.137 5.412.18c2.222.04 4.837.194 7.509.414 2.672.221 5.403.507 7.854.814 2.452.308 4.63.636 6.194.94 1.564.303 2.517.581 2.523.786.007.205-.076.534-.319 1-.242.466-.641 1.071-1.269 1.831-.625.759-1.476 1.671-2.623 2.754-1.144 1.084-2.581 2.338-4.382 3.778-1.081-1.243-2.32-2.238-3.688-3.027-1.367-.789-2.86-1.377-4.447-1.808-1.585-.432-3.267-.708-5.008-.876-1.742-.168-3.544-.229-5.373-.229-.164 0-.328 0-.494.001-.166.002-.329.002-.495.005-.165.002-.33.004-.497.007-.164.001-.33.005-.497.008-2.011.044-3.518.118-4.657.339s-1.91.591-2.448 1.228c-.537.638-.842 1.54-1.049 2.831s-.319 2.965-.466 5.147c-.16 10.642.969 20.056 3.091 28.383 2.127 8.342 5.25 15.586 9.066 21.873 3.822 6.297 8.341 11.631 13.25 16.145 4.915 4.519 10.221 8.216 15.615 11.233-1.919-.293-4.762-.806-8.236-1.875s-7.576-2.692-12.005-5.206c-4.426-2.51-9.177-5.909-13.953-10.526-4.771-4.613-9.562-10.439-14.076-17.805-4.501-7.355-7.351-15.039-9.018-22.58-1.665-7.526-2.154-14.906-1.931-21.674.219-6.756 1.149-12.901 2.318-17.972 1.167-5.063 2.577-9.054 3.765-11.51 1.188-2.451 2.07-4.594 2.648-6.474.577-1.879.852-3.496.824-4.891-.029-1.396-.359-2.573-.989-3.573-.629-1-1.562-1.825-2.791-2.518.236-.064.487-.122.758-.171.27-.05.561-.091.877-.126.316-.034.656-.06 1.027-.078.37-.02.77-.029 1.208-.029z"/></g></svg>