<svg clip-rule="evenodd" fill-rule="evenodd" stroke-linejoin="round" stroke-miterlimit="2" viewBox="0 0 600 159" xmlns="http://www.w3.org/2000/svg"><g fill="#fff"><g fill-rule="nonzero"><path d="m68.888 14.967c.293 1.052.769 2.779 1.18 5.08.411 2.303.756 5.182.785 8.536.029 3.358-.259 7.195-1.117 11.407-.859 4.219-2.289 8.817-4.544 13.691-2.23 4.821-5.402 9.26-9.32 13.208-3.926 3.954-8.599 7.414-13.821 10.271-5.228 2.862-11.004 5.117-17.127 6.658-6.126 1.541-12.596 2.365-19.206 2.365h-.269c-.09 0-.179 0-.269-.001s-.179-.002-.269-.002c-.089-.001-.179-.002-.27-.004 1.076-.766 1.943-1.421 2.627-2.146s1.187-1.52 1.535-2.569c.349-1.049.542-2.351.61-4.088.067-1.736.007-3.906-.152-6.692-.159-2.783-.351-6.748-.564-11.226-.211-4.468-.443-9.443-.679-14.261-.235-4.807-.474-9.457-.704-13.294-.228-3.83-.447-6.853-.643-8.414-.166-1.33-.366-2.486-.621-3.474-.254-.987-.562-1.805-.944-2.458-.382-.652-.838-1.138-1.387-1.461-.55-.324-1.193-.484-1.95-.484-.133 0-.269.004-.409.015-.14.01-.284.024-.431.044s-.298.045-.453.074c-.155.03-.313.064-.476.104 4.455-3.437 8.369-6.124 11.908-8.221 3.535-2.095 6.696-3.603 9.645-4.683 2.947-1.079 5.685-1.731 8.371-2.113 2.687-.382 5.324-.494 8.074-.494.861 0 1.733.011 2.62.029.888.016 1.792.04 2.716.065.924.024 1.871.051 2.841.073.971.022 1.968.041 2.994.052 4.306.044 7.712.489 10.402 1.14 2.691.65 4.665 1.506 6.108 2.367 1.442.861 2.351 1.729 2.909 2.403s.764 1.155.802 1.242c-.434.372-.756.749-.976 1.171-.221.422-.34.889-.368 1.441s.035 1.189.179 1.95c.144.762.368 1.648.663 2.699zm-17.106 41.572c1.828-3.367 3.09-6.929 3.892-10.54.802-3.605 1.146-7.258 1.137-10.815-.009-3.551-.37-7.006-.978-10.221-.607-3.21-1.462-6.181-2.459-8.771-.852-2.214-1.83-3.972-2.926-5.365-1.094-1.392-2.307-2.418-3.628-3.169-1.322-.75-2.752-1.224-4.284-1.511s-3.165-.386-4.891-.386c-.29 0-.583.003-.878.008-.295.006-.593.013-.893.023s-.603.02-.908.033-.614.028-.924.044c-4.2.212-7.269 1.197-9.51 2.676-2.242 1.48-3.656 3.455-4.54 5.646-.886 2.194-1.242 4.604-1.371 6.95-.128 2.349-.027 4.633.001 6.571.031 1.94.223 6.044.496 11.152.275 5.121.632 11.255.99 17.23.359 5.991.72 11.822 1.001 16.302.281 4.489.481 7.617.518 8.187 2.814-.227 5.378-.52 7.826-1.165 2.447-.645 4.776-1.642 7.119-3.274 2.341-1.631 4.694-3.896 7.189-7.075 2.492-3.175 5.123-7.26 8.021-12.53"/><path d="m105.238 81.754c.048-.022.321-.14.703-.382s.874-.608 1.365-1.128c.491-.518.979-1.189 1.354-2.04.376-.851.637-1.882.674-3.12.037-1.236.052-4.089.053-7.702 0-3.608-.013-7.971-.032-12.239-.02-4.261-.046-8.427-.072-11.659-.025-3.228-.049-5.525-.065-6.056-.214-.006-.431-.011-.652-.015-.222-.004-.447-.008-.677-.01-.229-.002-.462-.005-.698-.006-.237-.002-.477-.002-.718-.002-1.687 0-3.512.031-5.341.078-1.828.046-3.661.11-5.362.175-1.701.066-3.27.134-4.573.191-1.302.056-2.338.101-2.972.12-.637 1.615-1.713 4.069-2.678 7.199-.967 3.136-1.825 6.952-2.023 11.287-.198 4.345.265 9.212 1.946 14.441 1.684 5.239 4.59 10.845 9.278 16.648-1.711-.271-3.479-1.226-5.216-2.639-1.736-1.414-3.438-3.283-5.018-5.386-1.578-2.1-3.035-4.432-4.281-6.771-1.245-2.337-2.278-4.681-3.013-6.809-.735-2.129-1.34-4.417-1.778-6.82-.438-2.399-.708-4.911-.773-7.49-.064-2.576.076-5.218.461-7.882.385-2.66 1.013-5.34 1.922-7.996.907-2.651 1.794-4.598 2.627-6.102.832-1.503 1.61-2.563 2.297-3.438.686-.875 1.281-1.566 1.75-2.329.469-.762.81-1.598.987-2.763.176-1.163.037-2.036-.277-2.69-.313-.655-.799-1.09-1.315-1.381-.515-.29-1.06-.436-1.49-.508-.431-.073-.746-.073-.804-.073 4.057-.263 8.439-.52 12.766-.761s8.6-.466 12.44-.663c3.839-.197 7.244-.367 9.836-.498 2.593-.131 4.371-.224 4.958-.267.026-.002.051-.004.076-.005.025-.002.05-.003.074-.004.025-.001.048-.002.072-.003h.07c.496 0 .828.112 1.025.294s.259.433.215.711c-.044.277-.193.582-.417.868-.226.287-.526.557-.873.767-.362.22-.619.472-.798.765-.18.293-.285.628-.343 1.011-.06.384-.075.817-.077 1.308-.001.492.011 1.041.006 1.657-.006.615-.037 3.992-.081 8.777-.043 4.795-.101 11.01-.158 17.28-.057 6.288-.115 12.632-.161 17.646-.047 5.025-.08 8.71-.089 9.653-.009.945.102 1.811.31 2.586.208.774.513 1.455.89 2.03.378.575.826 1.042 1.325 1.389.497.348 1.044.574 1.615.664-1.919 0-3.986.005-6.017.014-2.031.008-4.026.018-5.797.03-1.77.01-3.318.021-4.456.029-1.14.011-1.868.017-2 .019zm4.166-52.723c.029-.594.071-1.298.11-2.037.038-.738.072-1.512.087-2.243.014-.732.008-1.421-.034-1.994s-.121-1.029-.254-1.292c-.133-.269-.297-.534-.498-.782-.202-.247-.441-.477-.726-.673-.286-.196-.617-.358-1.003-.472s-.826-.178-1.329-.178c-.195 0-.399.009-.613.03-.215.021-.438.051-.673.094-.235.042-.479.096-.735.163-.255.066-.522.145-.799.238-.996.328-1.937.739-2.885 1.311s-1.902 1.305-2.924 2.277c-1.023.974-2.114 2.187-3.336 3.719-1.223 1.534-2.577 3.386-4.124 5.638.456.013.928.024 1.411.033.484.009.98.017 1.484.023s1.016.01 1.531.013c.516.002 1.035.004 1.555.004 1.254 0 2.508-.008 3.704-.021 1.196-.014 2.334-.033 3.357-.056s1.932-.05 2.669-.079 1.302-.06 1.638-.091c.474-.045.853-.145 1.157-.307.303-.162.532-.386.704-.679.173-.293.29-.654.371-1.092.08-.438.126-.951.155-1.547"/><path d="m144.112 41.854c3.844-2.392 7.056-4.534 9.754-6.478 2.694-1.943 4.877-3.69 6.665-5.295 1.787-1.605 3.178-3.067 4.292-4.443 1.113-1.374 1.95-2.661 2.626-3.914-.569-.829-1.148-1.617-1.779-2.332-.63-.716-1.312-1.359-2.085-1.898-.772-.538-1.636-.974-2.629-1.275-.994-.302-2.119-.467-3.416-.467-.25 0-.508.006-.772.018-.264.013-.534.032-.812.057-.279.025-.563.058-.855.098-.292.039-.591.086-.898.139-1.891.328-3.613.83-5.135 1.489-1.52.66-2.84 1.479-3.924 2.442-1.085.964-1.934 2.073-2.513 3.312-.58 1.24-.89 2.61-.897 4.096-.007 1.488-.014 5.145-.022 9.805-.008 4.669-.017 10.348-.024 15.856-.008 5.522-.015 10.871-.02 14.852-.004 3.989-.008 6.599-.008 6.628-.003.674.02 1.24.126 1.753.105.513.291.973.615 1.438.325.466.784.935 1.438 1.466.653.53 1.498 1.123 2.591 1.833h-19.141c.312-.032.696-.111 1.1-.286.402-.175.824-.447 1.206-.865.383-.417.728-.982.979-1.743.251-.76.407-1.717.417-2.92.01-1.619.007-5.054-.016-9.38-.025-4.318-.071-9.52-.146-14.684-.076-5.153-.181-10.27-.324-14.443-.143-4.165-.323-7.391-.55-8.781-.229-1.388-.501-2.412-.81-3.17-.307-.757-.652-1.249-1.021-1.571-.37-.321-.766-.474-1.18-.554s-.845-.088-1.285-.119c4.032-2.228 7.61-4.017 10.848-5.446 3.237-1.429 6.138-2.5 8.819-3.293 2.681-.792 5.143-1.307 7.503-1.623 2.359-.317 4.618-.435 6.891-.435h.243c.08 0 .162.001.242.001s.161.001.241.002c.081.001.163.002.244.003 2.36.032 4.493.245 6.475.658 1.983.415 3.813 1.03 5.57 1.868 1.756.837 3.439 1.898 5.123 3.201 1.685 1.304 3.373 2.851 5.14 4.663-3.232 3.53-6.614 6.363-10.037 8.669-3.425 2.307-6.889 4.085-10.279 5.502-3.393 1.419-6.71 2.478-9.84 3.348-3.134.873-6.08 1.554-8.73 2.218z"/><path d="m182.642 13.212 22.407 1.057c-.963.394-1.781.81-2.463 1.245s-1.229.89-1.653 1.36c-.424.472-.723.96-.91 1.462-.188.502-.263 1.019-.236 1.547.026.527.04 1.481.047 2.622.006 1.142.004 2.473-.002 3.752-.005 1.281-.014 2.511-.022 3.451s-.014 1.589-.016 1.707h20.052c.001-.089.007-.574.01-1.305.004-.731.002-1.706-.012-2.775-.014-1.068-.04-2.229-.088-3.332-.049-1.101-.119-2.145-.221-2.979-.1-.836-.346-1.556-.694-2.177-.346-.622-.795-1.146-1.301-1.591-.506-.444-1.07-.809-1.648-1.111-.58-.302-1.172-.542-1.736-.739 2.903.021 5.604.069 8.03.128 2.426.06 4.577.131 6.38.201 1.802.069 3.255.137 4.284.189 1.03.052 1.638.088 1.748.095-.645.548-1.183 1.003-1.639 1.53-.457.528-.83 1.129-1.145 1.97-.314.84-.568 1.919-.785 3.404-.218 1.486-.398 3.379-.566 5.847-.165 2.47-.372 6.318-.591 10.771-.219 4.461-.451 9.532-.662 14.43-.212 4.908-.405 9.642-.546 13.411-.142 3.775-.233 6.578-.239 7.613-.008 1.035.056 1.942.191 2.733.134.793.337 1.472.609 2.053.27.581.608 1.062 1.01 1.461.403.399.871.716 1.399.964-2.465-.022-4.878-.045-7.119-.066-2.24-.021-4.307-.041-6.082-.058-1.773-.017-3.255-.032-4.321-.042-1.067-.012-1.721-.017-1.838-.019.069-.005.451-.036.992-.18s1.239-.402 1.941-.863c.701-.461 1.406-1.123 1.959-2.076.552-.953.953-2.196 1.048-3.817.094-1.618.228-4.747.376-8.549.147-3.795.31-8.261.462-12.566.152-4.298.295-8.438.4-11.6.108-3.158.179-5.343.193-5.741-2.692.045-5.268.08-7.627.105s-4.5.043-6.318.054c-1.82.011-3.318.016-4.389.02-1.072.002-1.719.002-1.836.002-.019.443-.13 2.884-.281 6.353-.152 3.474-.344 7.983-.528 12.549-.183 4.576-.359 9.212-.476 12.921-.116 3.714-.175 6.496-.123 7.352.052.854.154 1.613.311 2.283.155.67.366 1.251.632 1.746s.589.907.972 1.24c.382.332.824.586 1.328.766h-18.81c.05-.001.333-.008.733-.127.4-.12.916-.354 1.438-.81.521-.457 1.045-1.134 1.46-2.144.415-1.008.719-2.346.802-4.124.082-1.777.243-5.662.427-10.571.182-4.899.387-10.815.558-16.674.17-5.844.306-11.631.353-16.304.047-4.665.004-8.224-.184-9.631-.19-1.406-.547-2.603-.995-3.615-.447-1.011-.986-1.839-1.541-2.507-.554-.669-1.124-1.179-1.635-1.554-.509-.372-.959-.614-1.274-.747z"/><path d="m245.726 16.002c.212 0 .431.02.655.061.225.041.458.102.7.183.242.082.493.184.754.307.262.123.534.266.819.432 1.139.657 2.954 1.683 5.113 3.001 2.159 1.32 4.661 2.933 7.169 4.763 2.51 1.832 5.027 3.885 7.214 6.08 2.188 2.198 4.047 4.539 5.238 6.949.133-2.832.162-5.289.087-7.407-.074-2.117-.253-3.896-.538-5.37-.284-1.474-.673-2.644-1.168-3.545-.493-.9-1.095-1.532-1.801-1.927.324-.004.645-.008.961-.011.317-.003.63-.006.94-.008.309-.002.613-.003.913-.004s.594-.001.884-.001c1.159 0 2.223.007 3.17.016.948.01 1.778.023 2.469.036.691.014 1.242.028 1.63.038.389.011.615.018.656.02-.951.637-1.666 1.087-2.203 1.519-.538.433-.899.847-1.144 1.414-.244.566-.373 1.284-.446 2.323s-.089 2.4-.112 4.252c-.019 1.852-.058 4.302-.134 7.101-.077 2.802-.189 5.953-.357 9.204-.167 3.254-.39 6.609-.685 9.809-.295 3.205-.662 6.255-1.121 8.895-.458 2.644-1.215 5.184-2.154 7.557-.94 2.374-2.061 4.581-3.247 6.556-1.185 1.977-2.435 3.721-3.629 5.17-1.195 1.449-2.335 2.599-3.298 3.391 1.885-3.591 3.454-6.946 4.707-10.106 1.253-3.155 2.192-6.117 2.82-8.926.628-2.807.945-5.462.956-8.006.011-2.541-.285-4.972-.885-7.334-.6-2.36-1.899-4.827-3.576-7.227-1.673-2.397-3.724-4.725-5.829-6.807-2.103-2.08-4.26-3.915-6.155-5.33-1.892-1.413-3.52-2.406-4.568-2.803-.341-.129-.656-.251-.949-.36s-.563-.206-.811-.286c-.248-.081-.476-.146-.684-.19-.209-.044-.398-.069-.572-.069-.356 0-.641.103-.875.344-.235.24-.417.618-.566 1.169s-.266 1.275-.37 2.207-.194 2.074-.289 3.458c-.145 2.058-.347 5.359-.568 9.193-.221 3.838-.464 8.214-.689 12.407-.227 4.202-.437 8.221-.593 11.332-.157 3.116-.261 5.32-.272 5.883-.014.562.055 1.214.195 1.893.141.681.353 1.386.627 2.057.275.67.612 1.304 1.001 1.837.39.534.831.969 1.317 1.239-1.302-.044-2.822-.137-4.378-.25-1.554-.114-3.143-.251-4.584-.383-1.44-.133-2.732-.261-3.692-.36-.961-.098-1.589-.166-1.704-.178 1.002-.135 1.9-.333 2.691-.641.79-.309 1.474-.729 2.048-1.31.572-.58 1.034-1.32 1.381-2.271.346-.95.578-2.108.691-3.525.112-1.416.319-4.749.563-8.998.243-4.24.525-9.388.791-14.449.266-5.049.513-10.014.692-13.91.178-3.89.288-6.719.274-7.513-.015-.795-.054-1.45-.15-1.989-.097-.539-.251-.96-.494-1.285-.243-.324-.574-.553-1.026-.706-.451-.153-1.022-.23-1.745-.254.925-1.368 1.723-2.574 2.443-3.614.717-1.04 1.356-1.914 1.959-2.617.603-.702 1.168-1.234 1.743-1.591.574-.354 1.157-.535 1.79-.535z"/><path d="m287.577 20.368c.511 0 1.111.023 1.831.071.719.048 1.556.123 2.541.225s2.117.233 3.424.394c1.309.161 2.791.354 4.48.58 2.314.31 4.483.581 6.482.813 1.998.233 3.827.426 5.459.581 1.632.154 3.067.27 4.281.347 1.215.078 2.207.116 2.95.116h.144c.048 0 .093-.001.139-.002.045 0 .088-.001.131-.002s.083-.002.124-.004c.427-.015.824-.059 1.19-.114.366-.056.7-.127 1.002-.194s.57-.133.805-.181c.235-.049.435-.08.599-.08.087 0 .165.009.232.029s.124.051.17.095c.047.045.082.103.108.176.026.074.041.162.044.27.011.307-.133.686-.414 1.194s-.698 1.143-1.233 1.963-1.188 1.825-1.94 3.072-1.604 2.736-2.535 4.524c-.007-.084-.042-.545-.215-1.22-.174-.675-.486-1.563-1.047-2.501-.562-.938-1.373-1.926-2.543-2.8-1.171-.874-2.7-1.635-4.701-2.119-.188-.046-.375-.086-.56-.119-.185-.034-.368-.062-.549-.084s-.361-.038-.537-.049c-.177-.01-.352-.016-.525-.016-1.663 0-3.147.484-4.461 1.249-1.313.765-2.455 1.812-3.43 2.936-.976 1.124-1.786 2.326-2.435 3.403s-1.136 2.028-1.466 2.648c-.364.685-.57 1.199-.598 1.586-.029.387.12.647.464.824.344.178.884.272 1.638.328.753.057 1.721.074 2.92.097 1.198.022 2.609.105 4.051.224s2.915.273 4.237.439c1.323.166 2.498.343 3.342.507.844.163 1.358.313 1.361.424.004.111-.041.288-.172.54-.13.251-.346.578-.685.987-.337.41-.796.902-1.414 1.486-.618.585-1.393 1.262-2.365 2.039-.583-.671-1.252-1.208-1.989-1.634-.738-.425-1.544-.743-2.4-.975-.855-.233-1.763-.382-2.702-.472-.939-.091-1.912-.124-2.899-.124-.088 0-.177 0-.266.001-.09 0-.178 0-.267.002-.09.001-.178.002-.268.004-.089 0-.178.003-.269.004-1.084.024-1.898.064-2.512.183-.615.119-1.031.319-1.321.663s-.454.831-.566 1.527c-.111.696-.172 1.6-.251 2.777-.087 5.741.523 10.821 1.668 15.313 1.147 4.501 2.832 8.409 4.891 11.801 2.062 3.397 4.5 6.275 7.149 8.711 2.651 2.438 5.514 4.432 8.424 6.061-1.035-.159-2.569-.435-4.443-1.012-1.875-.577-4.088-1.453-6.477-2.809-2.388-1.354-4.952-3.188-7.529-5.679-2.573-2.489-5.159-5.632-7.594-9.606-2.428-3.968-3.966-8.114-4.865-12.182-.898-4.061-1.162-8.043-1.042-11.694.118-3.646.62-6.961 1.25-9.696.63-2.732 1.391-4.886 2.032-6.21.641-1.323 1.117-2.479 1.429-3.494.311-1.013.459-1.885.444-2.638s-.193-1.388-.534-1.928c-.339-.54-.842-.985-1.505-1.358.127-.035.263-.066.409-.093s.302-.049.473-.068c.17-.018.354-.032.554-.042.199-.011.416-.015.652-.015z"/><path d="m383.228 10.648c8.328 0 14.624 3.315 18.889 9.944v1c0 1.033-1.316 2.349-3.948 3.948h-1c0-4.764-2.315-8.395-6.945-10.894h-4.998c-6.629 1.799-9.944 4.114-9.944 6.946v3.948c0 1.865 9.278 15.79 27.834 41.775v1.949c-5.663 8.628-14.275 12.942-25.835 12.942-17.223-2.865-25.835-7.829-25.835-14.891.733 0 3.382-1.999 7.946-5.996h1.999c0 10.627 5.296 15.94 15.89 15.94 5.53 0 8.845-3.315 9.944-9.944 0-2.532-9.611-17.107-28.833-43.724v-1.999c6.996-7.296 15.275-10.944 24.836-10.944z"/><path d="m423.254 82.206c-10.827-9.094-16.24-14.058-16.24-14.891 3.997-4.198 5.996-8.512 5.996-12.942v-31.782c0-4.131-1.432-7.778-4.297-10.943v-1h20.488v1l-4.248 5.946v64.612z"/><path d="m469.227 4.452h11.243l-1.099 13.542v64.212h-3.398c0-2.265-10.51-14.291-31.531-36.079h-2.249c-1.532.234-2.299.983-2.299 2.249v22.537c0 1.899.767 5.28 2.299 10.144l-2.299 1.149h-6.746c-1.499 0-2.248-.749-2.248-2.248 1.499-2.466 2.248-4.714 2.248-6.746v-60.865c.233-1.499.983-2.248 2.249-2.248 21.621 23.286 33.647 34.929 36.079 34.929l2.248-4.497c-.766-22.554-2.265-33.83-4.497-33.83v-2.249z"/><path d="m523.645 10.648c8.395 1.366 13.509 2.732 15.341 4.098-1.366 5.097-2.049 8.162-2.049 9.195h-.999c-3.831-3.099-7.929-4.648-12.293-4.648h-2.049c-10.893 0-17.706 6.663-20.438 19.988v10.194c0 11.36 7.846 18.856 23.536 22.487h2.049c.966 0 1.982-1.016 3.048-3.048v-9.195c0-4.364-3.214-9.794-9.644-16.29l2.049-.999h18.389c1.366.2 2.049.882 2.049 2.048-1.066 5.164-1.599 8.879-1.599 11.144v20.438c0 4.097-2.732 6.146-8.195 6.146-23.187 0-38.861-9.194-47.023-27.584-.666-3.697-.999-6.762-.999-9.194 0-22.753 12.942-34.347 38.827-34.78z"/><path d="m579.862 10.648c7.196 1.366 11.576 2.732 13.142 4.098-1.166 5.097-1.749 8.162-1.749 9.195h-.899c-3.265-4.098-6.763-6.147-10.494-6.147h-1.749c-9.328 0-15.175 7.163-17.54 21.487v2.049h21.887c5.864-.499 8.795-2.548 8.795-6.146h1.749v.999c0 8.862-2.332 13.292-6.996 13.292h-25.435c0 11.36 6.713 18.856 20.138 22.487h5.297c3.631-1.532 7.712-7.312 12.243-17.34h1.749v1c-3.665 17.056-6.296 25.585-7.895 25.585-.966.666-2.416.999-4.348.999-19.888 0-33.314-9.194-40.276-27.584-.6-3.697-.9-6.762-.9-9.194 0-18.423 11.094-30.016 33.281-34.78z"/><path d="m374.6 124.713-1.581 11.777h10.119c-1.328 6.654-8.248 8.817-11.257 8.442-5.136-.64-9.87-7.524-8.668-16.472 1.138-8.795 5.063-18.202 13.221-18.202 4.997 0 8.096 3.671 9.108 9.178l12.522-5.966c-2.719-10.783-9.613-16.137-19.416-16.137-15.369 0-27.448 12.313-29.915 31.051-2.34 18.125 6.451 30.438 21.44 30.438 7.969 0 15.432-3.441 21.124-11.318 5.186-7.19 6.641-14.379 7.906-22.791z"/><path d="m419.508 126.037c3.163 0 4.527 4.377 3.895 9.58-.696 5.367-3.413 9.497-6.235 9.497-2.823 0-4.528-4.13-3.832-9.497.633-5.203 3.009-9.58 6.172-9.58zm19.922-11.644h-11.511l-.506 4.129c-1.96-3.717-5.628-5.533-9.36-5.533-9.613 0-17.519 10.405-18.973 22.545-1.518 12.14 3.984 22.628 13.597 22.628 3.795 0 8.032-1.9 10.562-6.111h.127l-.57 4.707h11.511z"/><path d="m454.649 114.393h-11.51l-5.123 42.365h11.51l2.467-20.233c.569-4.707 1.454-11.892 6.577-11.892s4.238 7.185 3.669 11.892l-2.467 20.233h11.511l2.466-20.233c.569-5.038 1.581-11.562 6.894-11.562 4.87 0 3.858 7.185 3.352 11.562l-2.467 20.233h11.511l3.289-27.005c1.138-9.745-.823-16.764-9.044-16.764-4.428 0-9.108 2.807-12.017 8.093-1.644-5.616-5.376-8.093-10.056-8.093-4.174 0-7.779 1.982-11.068 6.689h-.126z"/><path d="m512.362 129.423c1.265-4.377 3.584-5.901 5.286-5.901s4.051 1.854 4.115 5.901zm20.845 7.102c1.77-14.452-3.669-23.536-14.926-23.536-10.562 0-18.974 8.506-20.681 22.628-1.771 14.617 5.249 22.545 16.001 22.545 3.731 0 7.589-1.156 10.814-3.551 3.289-2.395 6.009-6.029 7.463-10.984h-12.645c-1.581 2.808-1.901 3.882-4.368 3.882-2.466 0-4.464-3.304-3.705-9.415h21.857z"/><path d="m563.128 115.714c-3.099-1.982-6.704-2.725-10.372-2.725-7.083 0-16.44 3.835-17.705 14.241-.885 7.598 3.981 10.699 7.46 11.938 3.415 1.238 7.809 1.404 7.429 4.707-.316 2.312-3.319 3.221-4.773 3.221-2.846 0-6.514-2.148-8.601-4.295l-5.44 10.488c3.542 3.139 7.843 4.873 12.46 4.873 7.526 0 17.452-3.836 18.843-14.985.949-7.845-4.297-11.937-9.483-13.341-1.581-.413-5.912-.826-5.532-3.717.253-2.147 3.382-2.89 4.71-2.89 1.96 0 4.364.826 5.945 2.065z"/></g><path d="m46.374 97.333h16.752l-6.001 35.255h-16.252z"/><path d="m39.872 137.84h16.502l-.5 4h13.752l-2 14.252h-30.754z"/><path d="m254.901 100.334h15.252l-1.5 10.002h-15.254z"/><path d="m252.775 114.586h15.252l-2.749 18.502h-15.253z"/><path d="m249.276 137.84h15.251l-2.75 18.252h-15.253l2.751-18.252"/><path d="m179.516 137.84h15.251l-2.75 18.252h-15.251z"/><path d="m86.252 137.84c-.128 1.181-.217 2.683-.084 4.033.181 1.647.82 2.964 2.384 2.964 2.059 0 3.299-1.811 4.011-3.952.402-1.111.69-2.034.898-3.084l14.213-.038-2.896 18.38h-12.636l.742-3.661c-3.13 3.985-5.638 4.942-10.906 4.942-10.063 0-11.671-11.163-11.034-19.58l15.308-.005"/><path d="m94.095 133.088c.01-1.047-.003-1.666-.053-2.4-.147-1.894-.74-3.54-2.633-3.54-1.977 0-3.159 1.976-3.986 4.364-.119.372-.222.729-.686 1.572l-15.44-.012c2.05-8.801 6.663-19.098 16.713-19.305 2.744-.056 7.869.318 9.874 4.239l.438.085.648-3.543h12.384l-2.852 18.539z"/><path d="m112.258 133.087c-.922-1.84-1.308-4.043-.942-6.666 1.255-8.974 8.001-13.529 18.128-13.529 4.364 0 7.397 1.024 10.885 3.166l-1.661 11.522c-2.533-2.118-7.119-3.244-9.836-3.244-1.152 0-2.584.272-2.937 1.64-.512 1.986 1.713 3.079 4.419 4.034 2.237.79 4.14 1.771 5.657 3.06z"/><path d="m139.431 137.879c.688 1.889.894 4.163.559 6.563-1.37 9.798-9.777 13.481-18.751 13.481-5.928 0-8.421-1.104-13.135-3.903l2.108-12.895c1.606 2.058 7.045 5.34 10.686 5.153 1.398-.071 4.221-1.034 4.439-2.598s-.453-2.716-3.965-3.833c-1.644-.522-3.206-1.074-4.589-1.926z"/><path d="m156.125 137.846c-.607 3.677-.746 9.449 2.605 9.857 2.159.262 4.409-1.488 5.091-5.922h13.557c-2.363 13.935-10.529 16.464-20.244 16.393-10.585-.078-16.921-8.694-16.144-20.345z"/><path d="m298.396 133.087c1.99-10.924 7.312-19.847 22.529-20.194 2.985-.068 5.36.943 6.602 1.664l-1.968 11.829c-6.038-2.448-9.323 2.358-10.482 6.718z"/><path d="m314.728 137.847c.407 2.722 1.973 5.26 5.028 5.26l3.321-.25-1.935 13.237c-2.359.623-4.608.997-7.661.955-11.616-.163-16.378-8.706-15.701-19.218z"/><path d="m228.909 137.846c-1.82 2.945-3.637 5.119-7.762 4.744l.713-4.756-16.063.009-2.903 18.248h16.252c13.449 0 22.681-5.884 27.207-18.287z"/><path d="m222.464 133.099 3.184-20.512c6.499 0 7.999 5 6.75 14.001-.312 2.25-.749 4.626-1.336 6.548l16.91.018c.612-2.532.882-5.344 1.178-8.316 2.251-22.503-10.001-27.504-22.252-27.504h-15.254l-2.125 16.002c-2.5.5-8.626 1.251-11.876 5.627-.625.623-1 .375-.875-.376l.626-4h-14.378l-2.75 18.502h15.252c.625-2.626 7.502-6.501 11.75-4.501l-.712 4.487z"/><path d="m268.779 133.087c-.923-1.84-1.309-4.043-.941-6.666 1.253-8.974 7.999-13.529 18.127-13.529 4.363 0 7.398 1.024 10.885 3.166l-1.662 11.522c-2.533-2.118-7.118-3.244-9.835-3.244-1.153 0-2.585.272-2.937 1.64-.513 1.986 1.713 3.079 4.419 4.034 2.236.79 4.139 1.771 5.658 3.06z"/><path d="m295.953 137.879c.688 1.889.893 4.163.557 6.563-1.368 9.798-9.776 13.481-18.749 13.481-5.927 0-8.421-1.104-13.135-3.903l2.107-12.895c1.606 2.058 7.046 5.34 10.686 5.153 1.399-.071 4.22-1.034 4.44-2.598.218-1.564-.455-2.716-3.966-3.833-1.645-.522-3.205-1.074-4.589-1.926z"/><path d="m162.249 112.892c-12.237.083-18.259 8.671-20.636 20.19l36.95.008c.41-5.343.216-10.52-1.398-12.868-2.817-4.098-6.525-7.386-14.916-7.33zm.239 9.648c2.881 0 3.35 3.128 3.099 5.516h-7.492c.228-2.223 1.676-5.516 4.393-5.516"/></g></svg>