<?xml version="1.0" encoding="UTF-8" standalone="no"?><!DOCTYPE svg PUBLIC "-//W3C//DTD SVG 1.1//EN" "http://www.w3.org/Graphics/SVG/1.1/DTD/svg11.dtd"><svg width="100%" height="100%" viewBox="0 0 600 254" version="1.1" xmlns="http://www.w3.org/2000/svg" xmlns:xlink="http://www.w3.org/1999/xlink" xml:space="preserve" xmlns:serif="http://www.serif.com/" style="fill-rule:evenodd;clip-rule:evenodd;stroke-linejoin:round;stroke-miterlimit:2;"><g id="laserdisc_daphne"><g><path d="M127.682,27.662c0.545,1.95 1.427,5.15 2.188,9.415c0.762,4.269 1.401,9.604 1.455,15.821c0.054,6.226 -0.48,13.337 -2.07,21.143c-1.592,7.821 -4.243,16.343 -8.423,25.378c-4.132,8.935 -10.012,17.161 -17.275,24.479c-7.276,7.329 -15.937,13.743 -25.615,19.039c-9.691,5.303 -20.396,9.482 -31.745,12.339c-11.355,2.856 -23.347,4.384 -35.598,4.384l-0.499,0c-0.167,-0.001 -0.333,-0.001 -0.498,-0.002c-0.168,-0.002 -0.333,-0.003 -0.499,-0.005c-0.166,-0.001 -0.333,-0.002 -0.5,-0.005c1.993,-1.421 3.6,-2.634 4.868,-3.979c1.268,-1.343 2.2,-2.818 2.846,-4.761c0.646,-1.944 1.005,-4.357 1.129,-7.577c0.125,-3.218 0.015,-7.24 -0.28,-12.403c-0.295,-5.159 -0.652,-12.509 -1.046,-20.808c-0.392,-8.282 -0.822,-17.503 -1.258,-26.432c-0.436,-8.91 -0.88,-17.53 -1.305,-24.641c-0.423,-7.099 -0.83,-12.701 -1.193,-15.596c-0.307,-2.464 -0.678,-4.607 -1.15,-6.438c-0.472,-1.83 -1.043,-3.346 -1.75,-4.556c-0.708,-1.209 -1.553,-2.11 -2.571,-2.709c-1.019,-0.599 -2.212,-0.897 -3.615,-0.897c-0.246,0 -0.498,0.009 -0.758,0.028c-0.259,0.019 -0.525,0.046 -0.797,0.083c-0.274,0.036 -0.554,0.082 -0.84,0.137c-0.288,0.055 -0.581,0.118 -0.883,0.191c8.257,-6.37 15.512,-11.35 22.071,-15.236c6.552,-3.883 12.411,-6.679 17.877,-8.68c5.463,-2.001 10.536,-3.21 15.516,-3.916c4.98,-0.709 9.868,-0.916 14.965,-0.916c1.595,0 3.211,0.02 4.856,0.053c1.647,0.031 3.321,0.075 5.034,0.12c1.713,0.045 3.467,0.095 5.266,0.136c1.8,0.041 3.647,0.077 5.55,0.096c7.979,0.081 14.293,0.907 19.278,2.113c4.989,1.206 8.648,2.791 11.322,4.388c2.673,1.596 4.358,3.204 5.392,4.454c1.034,1.25 1.417,2.141 1.486,2.302c-0.803,0.689 -1.401,1.387 -1.809,2.169c-0.409,0.783 -0.629,1.65 -0.681,2.671c-0.053,1.024 0.065,2.205 0.331,3.616c0.266,1.412 0.683,3.054 1.228,5.002Zm-31.704,77.053c3.387,-6.24 5.726,-12.842 7.214,-19.535c1.486,-6.683 2.124,-13.454 2.107,-20.046c-0.017,-6.583 -0.686,-12.987 -1.814,-18.944c-1.125,-5.951 -2.709,-11.458 -4.556,-16.258c-1.58,-4.103 -3.393,-7.361 -5.424,-9.943c-2.029,-2.58 -4.276,-4.483 -6.725,-5.874c-2.45,-1.39 -5.101,-2.27 -7.94,-2.801c-2.839,-0.531 -5.867,-0.715 -9.066,-0.715c-0.537,-0 -1.08,0.005 -1.626,0.015c-0.547,0.01 -1.1,0.024 -1.655,0.041c-0.557,0.019 -1.12,0.039 -1.685,0.063c-0.565,0.024 -1.136,0.051 -1.711,0.08c-7.786,0.394 -13.474,2.219 -17.627,4.961c-4.156,2.742 -6.776,6.403 -8.415,10.465c-1.642,4.065 -2.303,8.532 -2.541,12.882c-0.238,4.352 -0.051,8.587 0.002,12.179c0.056,3.595 0.412,11.202 0.919,20.671c0.509,9.491 1.171,20.859 1.835,31.934c0.666,11.105 1.335,21.912 1.856,30.216c0.52,8.319 0.891,14.118 0.959,15.174c5.215,-0.42 9.969,-0.964 14.505,-2.16c4.537,-1.195 8.854,-3.043 13.195,-6.068c4.339,-3.023 8.7,-7.22 13.325,-13.112c4.619,-5.885 9.495,-13.457 14.868,-23.225" style="fill:#fff;fill-rule:nonzero;"/><path d="M195.056,151.45c0.091,-0.039 0.596,-0.259 1.304,-0.707c0.708,-0.449 1.621,-1.128 2.53,-2.091c0.91,-0.961 1.815,-2.205 2.511,-3.781c0.696,-1.577 1.18,-3.489 1.248,-5.782c0.068,-2.291 0.096,-7.58 0.098,-14.277c0.001,-6.686 -0.023,-14.773 -0.06,-22.685c-0.035,-7.897 -0.085,-15.62 -0.131,-21.61c-0.047,-5.981 -0.093,-10.24 -0.122,-11.224c-0.396,-0.011 -0.798,-0.019 -1.209,-0.028c-0.411,-0.007 -0.829,-0.014 -1.254,-0.018c-0.425,-0.005 -0.857,-0.009 -1.295,-0.012c-0.437,-0.003 -0.882,-0.003 -1.33,-0.003c-3.127,0 -6.509,0.057 -9.899,0.144c-3.389,0.086 -6.787,0.204 -9.939,0.325c-3.152,0.122 -6.061,0.248 -8.475,0.353c-2.414,0.105 -4.334,0.187 -5.509,0.223c-1.181,2.993 -3.175,7.541 -4.964,13.344c-1.792,5.812 -3.382,12.885 -3.749,20.921c-0.368,8.053 0.492,17.073 3.606,26.764c3.121,9.712 8.508,20.102 17.197,30.858c-3.171,-0.502 -6.448,-2.273 -9.667,-4.892c-3.217,-2.62 -6.373,-6.085 -9.301,-9.982c-2.926,-3.893 -5.626,-8.215 -7.936,-12.551c-2.306,-4.331 -4.222,-8.675 -5.585,-12.621c-1.361,-3.945 -2.483,-8.186 -3.295,-12.639c-0.812,-4.447 -1.312,-9.103 -1.432,-13.883c-0.119,-4.774 0.141,-9.672 0.855,-14.608c0.713,-4.931 1.876,-9.9 3.562,-14.821c1.681,-4.914 3.325,-8.524 4.87,-11.311c1.541,-2.785 2.983,-4.75 4.256,-6.372c1.272,-1.623 2.376,-2.902 3.244,-4.316c0.869,-1.414 1.501,-2.962 1.829,-5.122c0.328,-2.156 0.068,-3.774 -0.513,-4.987c-0.58,-1.213 -1.482,-2.02 -2.436,-2.558c-0.955,-0.539 -1.966,-0.808 -2.763,-0.943c-0.798,-0.134 -1.383,-0.134 -1.489,-0.134c7.519,-0.488 15.64,-0.965 23.66,-1.411c8.021,-0.447 15.94,-0.863 23.057,-1.229c7.116,-0.365 13.428,-0.68 18.233,-0.923c4.804,-0.243 8.101,-0.414 9.187,-0.495c0.049,-0.003 0.095,-0.007 0.142,-0.01c0.047,-0.003 0.092,-0.004 0.138,-0.007c0.045,-0.001 0.089,-0.003 0.133,-0.004c0.044,-0.002 0.088,-0.002 0.129,-0.002c0.921,0 1.535,0.209 1.901,0.546c0.364,0.337 0.48,0.803 0.398,1.317c-0.082,0.515 -0.358,1.079 -0.773,1.61c-0.418,0.531 -0.975,1.033 -1.618,1.421c-0.672,0.408 -1.147,0.876 -1.48,1.418c-0.332,0.543 -0.527,1.163 -0.636,1.875c-0.11,0.711 -0.139,1.513 -0.141,2.424c-0.002,0.911 0.019,1.928 0.01,3.07c-0.01,1.14 -0.068,7.4 -0.149,16.269c-0.081,8.887 -0.187,20.406 -0.293,32.028c-0.107,11.654 -0.214,23.412 -0.299,32.706c-0.087,9.314 -0.148,16.145 -0.165,17.893c-0.017,1.751 0.19,3.356 0.575,4.792c0.386,1.435 0.95,2.697 1.65,3.763c0.7,1.065 1.531,1.932 2.455,2.575c0.922,0.644 1.935,1.063 2.994,1.23c-3.557,0 -7.389,0.01 -11.153,0.026c-3.765,0.015 -7.461,0.034 -10.744,0.055c-3.281,0.02 -6.15,0.04 -8.26,0.055c-2.112,0.02 -3.462,0.031 -3.708,0.034Zm7.723,-97.72c0.054,-1.101 0.132,-2.407 0.203,-3.776c0.071,-1.368 0.135,-2.802 0.162,-4.158c0.026,-1.356 0.015,-2.634 -0.063,-3.695c-0.078,-1.063 -0.225,-1.907 -0.47,-2.396c-0.248,-0.497 -0.551,-0.989 -0.924,-1.448c-0.374,-0.459 -0.817,-0.885 -1.346,-1.248c-0.53,-0.363 -1.143,-0.664 -1.859,-0.876c-0.715,-0.211 -1.531,-0.33 -2.462,-0.33c-0.361,0 -0.74,0.019 -1.138,0.057c-0.396,0.038 -0.812,0.095 -1.247,0.174c-0.435,0.078 -0.888,0.179 -1.361,0.302c-0.473,0.123 -0.968,0.269 -1.482,0.441c-1.846,0.609 -3.59,1.37 -5.347,2.429c-1.757,1.062 -3.525,2.42 -5.419,4.222c-1.896,1.804 -3.919,4.053 -6.185,6.893c-2.266,2.842 -4.776,6.277 -7.643,10.45c0.846,0.024 1.72,0.044 2.617,0.061c0.897,0.017 1.816,0.031 2.75,0.043c0.933,0.01 1.883,0.018 2.838,0.024c0.956,0.004 1.918,0.007 2.881,0.007c2.325,-0 4.649,-0.014 6.866,-0.04c2.216,-0.025 4.325,-0.061 6.223,-0.103c1.895,-0.043 3.58,-0.092 4.946,-0.146c1.365,-0.054 2.412,-0.111 3.036,-0.169c0.878,-0.083 1.581,-0.269 2.143,-0.569c0.563,-0.301 0.986,-0.716 1.307,-1.258c0.32,-0.543 0.537,-1.213 0.687,-2.025c0.149,-0.812 0.234,-1.762 0.287,-2.866" style="fill:#fff;fill-rule:nonzero;"/><path d="M267.11,77.497c7.124,-4.434 13.077,-8.403 18.078,-12.008c4.995,-3.601 9.041,-6.839 12.353,-9.814c3.313,-2.974 5.891,-5.684 7.956,-8.234c2.064,-2.548 3.614,-4.932 4.868,-7.256c-1.054,-1.535 -2.128,-2.996 -3.297,-4.322c-1.169,-1.326 -2.433,-2.518 -3.865,-3.517c-1.431,-0.998 -3.032,-1.806 -4.874,-2.364c-1.842,-0.558 -3.927,-0.866 -6.33,-0.866c-0.465,0 -0.942,0.011 -1.431,0.034c-0.49,0.024 -0.99,0.06 -1.506,0.106c-0.516,0.047 -1.043,0.108 -1.584,0.182c-0.541,0.072 -1.095,0.158 -1.665,0.258c-3.505,0.607 -6.697,1.537 -9.516,2.759c-2.818,1.223 -5.265,2.742 -7.274,4.527c-2.011,1.787 -3.585,3.841 -4.659,6.138c-1.075,2.298 -1.649,4.838 -1.661,7.592c-0.013,2.757 -0.027,9.537 -0.042,18.173c-0.015,8.654 -0.031,19.179 -0.045,29.389c-0.014,10.235 -0.027,20.149 -0.035,27.528c-0.009,7.393 -0.016,12.231 -0.016,12.285c-0.006,1.25 0.037,2.298 0.234,3.249c0.194,0.95 0.54,1.803 1.14,2.666c0.601,0.863 1.453,1.733 2.664,2.716c1.211,0.983 2.777,2.081 4.803,3.398l-35.477,-0c0.577,-0.06 1.29,-0.206 2.038,-0.53c0.746,-0.325 1.527,-0.828 2.235,-1.603c0.71,-0.773 1.349,-1.82 1.815,-3.23c0.465,-1.41 0.756,-3.184 0.773,-5.414c0.019,-2.999 0.014,-9.367 -0.03,-17.385c-0.046,-8.003 -0.131,-17.645 -0.271,-27.216c-0.14,-9.551 -0.334,-19.036 -0.599,-26.769c-0.265,-7.72 -0.599,-13.701 -1.02,-16.276c-0.424,-2.573 -0.928,-4.472 -1.501,-5.876c-0.569,-1.404 -1.208,-2.315 -1.892,-2.911c-0.686,-0.597 -1.42,-0.88 -2.188,-1.027c-0.766,-0.149 -1.566,-0.163 -2.382,-0.222c7.474,-4.129 14.105,-7.445 20.107,-10.094c6.001,-2.648 11.376,-4.633 16.346,-6.102c4.969,-1.469 9.532,-2.423 13.906,-3.01c4.373,-0.586 8.56,-0.806 12.774,-0.806l0.449,0c0.148,0 0.3,0.002 0.449,0.003c0.149,0 0.299,0.002 0.448,0.003c0.15,0.001 0.301,0.003 0.45,0.006c4.375,0.059 8.329,0.453 12.003,1.22c3.674,0.767 7.067,1.908 10.323,3.461c3.256,1.553 6.374,3.518 9.495,5.933c3.124,2.417 6.252,5.285 9.527,8.643c-5.991,6.544 -12.258,11.794 -18.603,16.067c-6.348,4.278 -12.769,7.572 -19.053,10.2c-6.288,2.63 -12.435,4.592 -18.238,6.204c-5.809,1.618 -11.268,2.88 -16.18,4.112Z" style="fill:#fff;fill-rule:nonzero;"/><path d="M338.525,24.408l41.53,1.96c-1.785,0.731 -3.3,1.501 -4.565,2.307c-1.264,0.807 -2.277,1.65 -3.063,2.522c-0.786,0.874 -1.34,1.778 -1.687,2.709c-0.349,0.931 -0.488,1.889 -0.438,2.868c0.05,0.976 0.075,2.744 0.088,4.859c0.011,2.117 0.007,4.584 -0.003,6.955c-0.01,2.375 -0.027,4.655 -0.041,6.396c-0.016,1.742 -0.027,2.945 -0.03,3.164l37.165,-0c0.002,-0.165 0.015,-1.063 0.02,-2.419c0.006,-1.354 0.003,-3.162 -0.022,-5.143c-0.026,-1.979 -0.076,-4.131 -0.165,-6.176c-0.089,-2.041 -0.219,-3.977 -0.408,-5.522c-0.187,-1.549 -0.642,-2.883 -1.286,-4.035c-0.642,-1.152 -1.475,-2.124 -2.413,-2.949c-0.938,-0.823 -1.982,-1.499 -3.055,-2.058c-1.074,-0.561 -2.172,-1.006 -3.217,-1.37c5.381,0.039 10.388,0.127 14.885,0.238c4.496,0.11 8.483,0.242 11.824,0.371c3.341,0.129 6.033,0.255 7.941,0.351c1.909,0.097 3.036,0.163 3.24,0.176c-1.195,1.016 -2.193,1.859 -3.039,2.836c-0.847,0.978 -1.538,2.093 -2.122,3.65c-0.581,1.557 -1.053,3.558 -1.455,6.31c-0.404,2.755 -0.738,6.264 -1.048,10.837c-0.306,4.578 -0.69,11.712 -1.096,19.964c-0.406,8.269 -0.835,17.668 -1.228,26.747c-0.392,9.097 -0.749,17.871 -1.012,24.857c-0.263,6.996 -0.43,12.192 -0.443,14.11c-0.014,1.918 0.105,3.599 0.354,5.066c0.25,1.47 0.625,2.728 1.129,3.804c0.502,1.077 1.128,1.97 1.873,2.709c0.747,0.74 1.614,1.326 2.593,1.787c-4.569,-0.041 -9.042,-0.084 -13.194,-0.122c-4.153,-0.04 -7.984,-0.076 -11.274,-0.108c-3.287,-0.032 -6.033,-0.059 -8.009,-0.079c-1.978,-0.021 -3.189,-0.031 -3.407,-0.034c0.129,-0.01 0.837,-0.067 1.839,-0.334c1.003,-0.267 2.296,-0.746 3.597,-1.6c1.3,-0.854 2.607,-2.081 3.631,-3.848c1.024,-1.767 1.767,-4.07 1.943,-7.074c0.174,-2.999 0.423,-8.798 0.697,-15.845c0.273,-7.035 0.575,-15.312 0.857,-23.291c0.282,-7.966 0.545,-15.64 0.741,-21.501c0.2,-5.853 0.331,-9.903 0.357,-10.64c-4.989,0.083 -9.763,0.147 -14.136,0.194c-4.372,0.047 -8.34,0.079 -11.711,0.099c-3.373,0.021 -6.149,0.031 -8.135,0.037c-1.986,0.004 -3.185,0.004 -3.403,0.004c-0.035,0.822 -0.241,5.346 -0.52,11.777c-0.282,6.437 -0.638,14.795 -0.979,23.259c-0.34,8.481 -0.666,17.074 -0.883,23.948c-0.215,6.884 -0.324,12.041 -0.226,13.627c0.095,1.584 0.284,2.991 0.575,4.232c0.287,1.241 0.678,2.317 1.172,3.236c0.493,0.918 1.092,1.681 1.8,2.298c0.71,0.616 1.529,1.086 2.463,1.419l-34.865,0c0.094,-0.001 0.618,-0.014 1.359,-0.235c0.741,-0.222 1.699,-0.656 2.665,-1.502c0.966,-0.846 1.937,-2.101 2.706,-3.972c0.769,-1.869 1.333,-4.35 1.486,-7.644c0.153,-3.294 0.451,-10.494 0.792,-19.594c0.337,-9.08 0.719,-20.045 1.035,-30.905c0.315,-10.831 0.566,-21.558 0.654,-30.22c0.086,-8.645 0.007,-15.242 -0.341,-17.85c-0.352,-2.605 -1.013,-4.824 -1.844,-6.7c-0.828,-1.874 -1.827,-3.409 -2.856,-4.647c-1.027,-1.24 -2.084,-2.185 -3.03,-2.88c-0.944,-0.69 -1.778,-1.139 -2.362,-1.386Z" style="fill:#fff;fill-rule:nonzero;"/><path d="M455.451,29.581c0.392,-0 0.798,0.037 1.213,0.113c0.418,0.075 0.85,0.189 1.298,0.339c0.447,0.151 0.913,0.341 1.397,0.568c0.485,0.228 0.99,0.494 1.518,0.8c2.111,1.219 5.476,3.12 9.477,5.564c4.001,2.445 8.638,5.435 13.287,8.828c4.653,3.396 9.318,7.2 13.372,11.269c4.056,4.074 7.501,8.413 9.707,12.879c0.247,-5.248 0.302,-9.803 0.163,-13.729c-0.139,-3.923 -0.47,-7.22 -0.999,-9.953c-0.525,-2.731 -1.246,-4.9 -2.163,-6.569c-0.915,-1.669 -2.03,-2.84 -3.339,-3.572c0.6,-0.009 1.195,-0.016 1.782,-0.021c0.588,-0.006 1.167,-0.01 1.741,-0.015c0.574,-0.004 1.138,-0.005 1.693,-0.008c0.556,-0.001 1.101,-0.001 1.638,-0.001c2.148,-0 4.12,0.012 5.877,0.029c1.755,0.019 3.294,0.044 4.575,0.068c1.281,0.026 2.302,0.051 3.022,0.07c0.721,0.02 1.14,0.034 1.215,0.037c-1.762,1.18 -3.087,2.014 -4.083,2.816c-0.997,0.802 -1.666,1.57 -2.119,2.62c-0.454,1.05 -0.693,2.38 -0.828,4.305c-0.136,1.926 -0.165,4.449 -0.207,7.882c-0.035,3.433 -0.107,7.974 -0.249,13.161c-0.142,5.193 -0.35,11.035 -0.662,17.059c-0.31,6.033 -0.722,12.251 -1.269,18.182c-0.547,5.94 -1.227,11.593 -2.077,16.487c-0.85,4.901 -2.253,9.607 -3.993,14.006c-1.742,4.401 -3.821,8.491 -6.018,12.152c-2.198,3.664 -4.514,6.897 -6.727,9.582c-2.214,2.686 -4.327,4.818 -6.113,6.286c3.495,-6.656 6.402,-12.874 8.726,-18.731c2.322,-5.849 4.062,-11.339 5.226,-16.545c1.163,-5.203 1.751,-10.123 1.771,-14.839c0.02,-4.709 -0.528,-9.216 -1.641,-13.594c-1.112,-4.373 -3.519,-8.947 -6.627,-13.395c-3.102,-4.442 -6.901,-8.758 -10.803,-12.617c-3.898,-3.855 -7.897,-7.257 -11.408,-9.878c-3.508,-2.619 -6.526,-4.46 -8.467,-5.195c-0.633,-0.24 -1.217,-0.466 -1.76,-0.667c-0.542,-0.203 -1.042,-0.383 -1.503,-0.532c-0.46,-0.15 -0.883,-0.269 -1.268,-0.351c-0.387,-0.082 -0.738,-0.128 -1.06,-0.128c-0.66,0 -1.188,0.19 -1.622,0.637c-0.435,0.444 -0.772,1.146 -1.048,2.167c-0.277,1.022 -0.495,2.363 -0.686,4.091c-0.193,1.728 -0.36,3.843 -0.537,6.409c-0.268,3.815 -0.642,9.933 -1.051,17.038c-0.411,7.116 -0.86,15.225 -1.278,22.998c-0.421,7.788 -0.809,15.237 -1.1,21.004c-0.29,5.774 -0.483,9.859 -0.504,10.903c-0.026,1.042 0.102,2.25 0.363,3.51c0.26,1.261 0.653,2.568 1.161,3.811c0.509,1.242 1.134,2.417 1.855,3.406c0.723,0.99 1.541,1.796 2.441,2.296c-2.413,-0.082 -5.231,-0.253 -8.114,-0.464c-2.88,-0.211 -5.826,-0.465 -8.496,-0.71c-2.67,-0.245 -5.064,-0.483 -6.843,-0.666c-1.781,-0.181 -2.946,-0.309 -3.158,-0.33c1.856,-0.251 3.52,-0.618 4.987,-1.189c1.465,-0.572 2.733,-1.35 3.795,-2.427c1.061,-1.075 1.917,-2.448 2.56,-4.209c0.642,-1.761 1.072,-3.909 1.281,-6.534c0.208,-2.626 0.591,-8.803 1.043,-16.677c0.452,-7.859 0.975,-17.401 1.466,-26.782c0.493,-9.359 0.952,-18.561 1.284,-25.783c0.33,-7.21 0.533,-12.453 0.507,-13.924c-0.027,-1.473 -0.099,-2.689 -0.278,-3.688c-0.179,-0.999 -0.466,-1.778 -0.915,-2.38c-0.45,-0.602 -1.064,-1.026 -1.901,-1.309c-0.836,-0.283 -1.896,-0.427 -3.235,-0.47c1.713,-2.537 3.194,-4.772 4.527,-6.7c1.33,-1.927 2.515,-3.547 3.631,-4.85c1.118,-1.302 2.166,-2.288 3.23,-2.95c1.066,-0.654 2.146,-0.99 3.32,-0.99Z" style="fill:#fff;fill-rule:nonzero;"/><path d="M533.02,37.672c0.947,0 2.06,0.043 3.393,0.132c1.334,0.089 2.885,0.228 4.711,0.416c1.825,0.19 3.923,0.432 6.346,0.731c2.426,0.299 5.174,0.656 8.304,1.076c4.289,0.574 8.309,1.077 12.014,1.507c3.704,0.431 7.093,0.789 10.118,1.076c3.024,0.286 5.685,0.501 7.935,0.644c2.251,0.143 4.09,0.214 5.469,0.214l0.266,0c0.089,0 0.173,-0.001 0.257,-0.003c0.083,-0.001 0.164,-0.003 0.243,-0.004c0.08,-0.001 0.155,-0.004 0.23,-0.007c0.792,-0.028 1.527,-0.109 2.206,-0.213c0.678,-0.103 1.298,-0.233 1.857,-0.358c0.56,-0.125 1.057,-0.247 1.492,-0.336c0.436,-0.09 0.806,-0.149 1.111,-0.149c0.161,0 0.306,0.017 0.429,0.054c0.125,0.037 0.23,0.095 0.316,0.177c0.086,0.084 0.152,0.19 0.2,0.326c0.048,0.136 0.075,0.301 0.082,0.5c0.02,0.57 -0.248,1.273 -0.768,2.213c-0.521,0.941 -1.295,2.119 -2.285,3.639c-0.992,1.52 -2.203,3.383 -3.596,5.694c-1.394,2.311 -2.974,5.071 -4.7,8.384c-0.012,-0.155 -0.076,-1.01 -0.398,-2.261c-0.321,-1.251 -0.901,-2.897 -1.941,-4.636c-1.041,-1.738 -2.544,-3.568 -4.713,-5.189c-2.169,-1.62 -5.004,-3.031 -8.712,-3.928c-0.35,-0.085 -0.696,-0.158 -1.039,-0.221c-0.342,-0.062 -0.681,-0.113 -1.017,-0.154c-0.336,-0.041 -0.669,-0.071 -0.996,-0.091c-0.327,-0.02 -0.652,-0.029 -0.973,-0.029c-3.082,-0 -5.833,0.896 -8.267,2.315c-2.434,1.418 -4.551,3.357 -6.359,5.44c-1.809,2.084 -3.311,4.313 -4.512,6.309c-1.203,1.996 -2.106,3.759 -2.718,4.908c-0.675,1.269 -1.057,2.221 -1.109,2.94c-0.052,0.716 0.224,1.198 0.861,1.527c0.638,0.329 1.638,0.503 3.035,0.608c1.397,0.105 3.191,0.137 5.412,0.18c2.222,0.039 4.837,0.194 7.509,0.413c2.672,0.221 5.403,0.508 7.854,0.815c2.452,0.307 4.63,0.636 6.194,0.939c1.564,0.304 2.517,0.581 2.523,0.787c0.007,0.205 -0.076,0.534 -0.319,1c-0.242,0.466 -0.641,1.071 -1.269,1.83c-0.625,0.76 -1.476,1.672 -2.623,2.755c-1.144,1.083 -2.581,2.337 -4.382,3.778c-1.081,-1.244 -2.32,-2.238 -3.688,-3.027c-1.367,-0.79 -2.86,-1.378 -4.447,-1.808c-1.585,-0.432 -3.267,-0.709 -5.008,-0.876c-1.742,-0.168 -3.544,-0.229 -5.373,-0.229c-0.164,-0 -0.328,-0 -0.494,0.001c-0.166,0.001 -0.329,0.001 -0.495,0.004c-0.165,0.003 -0.33,0.005 -0.497,0.007c-0.164,0.002 -0.33,0.006 -0.497,0.009c-2.011,0.044 -3.518,0.117 -4.657,0.338c-1.139,0.221 -1.91,0.591 -2.448,1.229c-0.537,0.637 -0.842,1.54 -1.049,2.831c-0.207,1.29 -0.319,2.965 -0.466,5.147c-0.16,10.641 0.969,20.056 3.091,28.382c2.127,8.342 5.25,15.586 9.066,21.874c3.822,6.296 8.341,11.631 13.25,16.144c4.915,4.52 10.221,8.216 15.615,11.234c-1.919,-0.293 -4.762,-0.806 -8.236,-1.876c-3.474,-1.068 -7.576,-2.692 -12.005,-5.205c-4.426,-2.511 -9.177,-5.909 -13.953,-10.527c-4.771,-4.613 -9.562,-10.439 -14.076,-17.804c-4.501,-7.355 -7.351,-15.04 -9.018,-22.58c-1.665,-7.526 -2.154,-14.906 -1.931,-21.674c0.219,-6.757 1.149,-12.901 2.318,-17.972c1.167,-5.063 2.577,-9.055 3.765,-11.51c1.188,-2.451 2.07,-4.595 2.648,-6.475c0.577,-1.878 0.852,-3.495 0.824,-4.89c-0.029,-1.396 -0.359,-2.573 -0.989,-3.574c-0.629,-1 -1.562,-1.824 -2.791,-2.517c0.236,-0.064 0.487,-0.122 0.758,-0.172c0.27,-0.049 0.561,-0.09 0.877,-0.126c0.316,-0.034 0.656,-0.059 1.027,-0.078c0.37,-0.019 0.77,-0.028 1.208,-0.028Z" style="fill:#fff;fill-rule:nonzero;"/></g><g id="laserdisc"><path d="M102.492,164.68l24.543,0l-8.791,51.649l-23.81,-0l8.058,-51.649" style="fill:#fff;"/><path d="M92.967,224.023l24.176,0l-0.732,5.861l20.147,-0l-2.93,20.88l-45.057,-0l4.396,-26.741" style="fill:#fff;"/><path d="M407.99,169.076l22.344,0l-2.198,14.654l-22.346,-0l2.2,-14.654" style="fill:#fff;"/><path d="M404.875,189.956l22.344,-0l-4.027,27.106l-22.346,-0l4.029,-27.106" style="fill:#fff;"/><path d="M399.748,224.023l22.344,0l-4.029,26.741l-22.346,-0l4.031,-26.741" style="fill:#fff;"/><path d="M297.549,224.023l22.344,0l-4.03,26.741l-22.343,-0l4.029,-26.741" style="fill:#fff;"/><path d="M160.915,224.023c-0.188,1.73 -0.318,3.931 -0.123,5.909c0.265,2.413 1.202,4.342 3.493,4.342c3.016,0 4.833,-2.653 5.875,-5.789c0.59,-1.628 1.011,-2.98 1.317,-4.518l20.821,-0.056l-4.242,26.928l-18.512,-0l1.087,-5.365c-4.586,5.839 -8.26,7.241 -15.978,7.241c-14.743,0 -17.098,-16.354 -16.164,-28.685l22.426,-0.008" style="fill:#fff;"/><path d="M172.405,217.063c0.015,-1.534 -0.004,-2.441 -0.078,-3.517c-0.215,-2.774 -1.083,-5.186 -3.858,-5.186c-2.895,0 -4.627,2.894 -5.838,6.393c-0.174,0.545 -0.326,1.068 -1.006,2.303l-22.62,-0.017c3.004,-12.894 9.762,-27.979 24.485,-28.282c4.021,-0.082 11.529,0.465 14.467,6.21l0.641,0.123l0.95,-5.189l18.142,-0l-4.179,27.16l-21.106,0.001" style="fill:#fff;"/><path d="M199.014,217.061c-1.351,-2.696 -1.916,-5.924 -1.379,-9.766c1.838,-13.148 11.721,-19.82 26.557,-19.82c6.393,-0 10.837,1.499 15.946,4.637l-2.433,16.881c-3.71,-3.103 -10.429,-4.753 -14.409,-4.753c-1.689,0 -3.786,0.399 -4.303,2.403c-0.75,2.909 2.509,4.51 6.474,5.91c3.277,1.157 6.065,2.595 8.288,4.482l-34.741,0.026" style="fill:#fff;"/><path d="M238.823,224.081c1.009,2.768 1.311,6.099 0.819,9.615c-2.007,14.354 -14.323,19.751 -27.47,19.751c-8.684,-0 -12.338,-1.618 -19.243,-5.719l3.088,-18.892c2.352,3.016 10.321,7.824 15.654,7.55c2.049,-0.105 6.184,-1.514 6.504,-3.806c0.32,-2.292 -0.664,-3.979 -5.809,-5.616c-2.408,-0.765 -4.696,-1.573 -6.722,-2.821l33.179,-0.062" style="fill:#fff;"/><path d="M263.28,224.033c-0.889,5.387 -1.092,13.843 3.817,14.441c3.162,0.384 6.459,-2.181 7.458,-8.676l19.861,-0c-3.461,20.414 -15.425,24.12 -29.658,24.015c-15.506,-0.113 -24.79,-12.737 -23.651,-29.806l22.173,0.026" style="fill:#fff;"/><path d="M471.712,217.061c2.914,-16.005 10.711,-29.076 33.004,-29.585c4.373,-0.099 7.853,1.381 9.672,2.437l-2.883,17.33c-8.846,-3.587 -13.658,3.455 -15.356,9.842l-24.437,-0.024" style="fill:#fff;"/><path d="M495.638,224.035c0.596,3.987 2.891,7.706 7.366,7.706l4.865,-0.367l-2.835,19.393c-3.455,0.911 -6.75,1.46 -11.223,1.398c-17.018,-0.238 -23.994,-12.753 -23.003,-28.154l24.83,0.024" style="fill:#fff;"/><path d="M369.91,224.033c-2.665,4.315 -5.328,7.498 -11.37,6.95l1.044,-6.968l-23.534,0.014l-4.252,26.733l23.81,0c19.703,0 33.227,-8.621 39.859,-26.79l-25.557,0.06" style="fill:#fff;"/><path d="M360.469,217.078l4.664,-30.05c9.522,-0 11.719,7.324 9.89,20.512c-0.458,3.296 -1.098,6.777 -1.958,9.592l24.774,0.027c0.896,-3.709 1.291,-7.829 1.725,-12.183c3.298,-32.967 -14.651,-40.294 -32.6,-40.294l-22.346,-0l-3.114,23.444c-3.663,0.731 -12.637,1.831 -17.398,8.242c-0.916,0.914 -1.466,0.55 -1.282,-0.55l0.916,-5.861l-21.063,0l-4.029,27.106l22.344,0c0.916,-3.846 10.991,-9.523 17.215,-6.594l-1.044,6.573l23.305,0.036" style="fill:#fff;"/><path d="M428.321,217.061c-1.352,-2.696 -1.917,-5.924 -1.379,-9.766c1.837,-13.148 11.72,-19.82 26.557,-19.82c6.392,-0 10.838,1.499 15.948,4.637l-2.435,16.881c-3.712,-3.103 -10.428,-4.753 -14.409,-4.753c-1.689,0 -3.787,0.399 -4.303,2.403c-0.751,2.909 2.51,4.51 6.474,5.91c3.275,1.157 6.064,2.595 8.288,4.482l-34.741,0.026" style="fill:#fff;"/><path d="M468.132,224.081c1.008,2.768 1.308,6.099 0.816,9.615c-2.004,14.354 -14.322,19.751 -27.468,19.751c-8.684,-0 -12.337,-1.618 -19.242,-5.719l3.086,-18.892c2.353,3.016 10.322,7.824 15.655,7.55c2.049,-0.105 6.183,-1.514 6.505,-3.806c0.32,-2.292 -0.666,-3.979 -5.81,-5.616c-2.411,-0.765 -4.696,-1.573 -6.724,-2.821l33.182,-0.062" style="fill:#fff;"/><path d="M272.253,187.475c-17.929,0.121 -26.751,12.703 -30.233,29.579l54.133,0.011c0.6,-7.827 0.316,-15.411 -2.049,-18.852c-4.127,-6.004 -9.559,-10.821 -21.851,-10.738l-0,-0Zm0.35,14.135c4.221,-0 4.908,4.582 4.539,8.08l-10.976,-0c0.335,-3.256 2.456,-8.08 6.437,-8.08" style="fill:#fff;"/></g></g></svg>