<svg clip-rule="evenodd" fill-rule="evenodd" stroke-linejoin="round" stroke-miterlimit="2" viewBox="0 0 600 288" xmlns="http://www.w3.org/2000/svg"><g fill="#fff"><path d="m102.492 198.426h24.543l-8.791 51.648h-23.81z"/><path d="m92.967 257.769h24.176l-.732 5.86h20.147l-2.93 20.88h-45.057z"/><path d="m407.99 202.822h22.344l-2.198 14.653h-22.346z"/><path d="m404.875 223.701h22.344l-4.027 27.106h-22.346z"/><path d="m399.748 257.769h22.344l-4.029 26.74h-22.346z"/><path d="m297.549 257.769h22.344l-4.03 26.74h-22.343z"/><path d="m160.915 257.769c-.188 1.73-.318 3.93-.123 5.908.265 2.414 1.202 4.343 3.493 4.343 3.016 0 4.833-2.653 5.875-5.79.59-1.627 1.011-2.98 1.317-4.518l20.821-.055-4.242 26.927h-18.512l1.087-5.364c-4.586 5.838-8.26 7.241-15.978 7.241-14.743 0-17.098-16.355-16.164-28.685l22.426-.008"/><path d="m172.405 250.808c.015-1.534-.004-2.441-.078-3.517-.215-2.774-1.083-5.185-3.858-5.185-2.895 0-4.627 2.894-5.838 6.392-.174.545-.326 1.069-1.006 2.303l-22.62-.017c3.004-12.893 9.762-27.979 24.485-28.282 4.021-.082 11.529.466 14.467 6.21l.641.124.95-5.19h18.142l-4.179 27.161z"/><path d="m199.014 250.806c-1.351-2.695-1.916-5.923-1.379-9.765 1.838-13.148 11.721-19.821 26.557-19.821 6.393 0 10.837 1.5 15.946 4.638l-2.433 16.881c-3.71-3.104-10.429-4.753-14.409-4.753-1.689 0-3.786.398-4.303 2.403-.75 2.909 2.509 4.51 6.474 5.909 3.277 1.158 6.065 2.595 8.288 4.483z"/><path d="m238.823 257.827c1.009 2.767 1.311 6.099.819 9.615-2.007 14.353-14.323 19.75-27.47 19.75-8.684 0-12.338-1.617-19.243-5.718l3.088-18.892c2.352 3.015 10.321 7.823 15.654 7.549 2.049-.104 6.184-1.514 6.504-3.806.32-2.291-.664-3.979-5.809-5.615-2.408-.766-4.696-1.573-6.722-2.822z"/><path d="m263.28 257.778c-.889 5.388-1.092 13.843 3.817 14.441 3.162.385 6.459-2.18 7.458-8.676h19.861c-3.461 20.415-15.425 24.12-29.658 24.016-15.506-.113-24.79-12.737-23.651-29.806z"/><path d="m471.712 250.806c2.914-16.004 10.711-29.076 33.004-29.585 4.373-.099 7.853 1.381 9.672 2.438l-2.883 17.33c-8.846-3.587-13.658 3.454-15.356 9.842z"/><path d="m495.638 257.78c.596 3.988 2.891 7.706 7.366 7.706l4.865-.366-2.835 19.392c-3.455.912-6.75 1.461-11.223 1.398-17.018-.237-23.994-12.753-23.003-28.153z"/><path d="m369.91 257.778c-2.665 4.315-5.328 7.499-11.37 6.95l1.044-6.968-23.534.014-4.252 26.734h23.81c19.703 0 33.227-8.621 39.859-26.791z"/><path d="m360.469 250.824 4.664-30.051c9.522 0 11.719 7.325 9.89 20.513-.458 3.295-1.098 6.776-1.958 9.592l24.774.026c.896-3.709 1.291-7.829 1.725-12.182 3.298-32.968-14.651-40.295-32.6-40.295h-22.346l-3.114 23.444c-3.663.732-12.637 1.832-17.398 8.243-.916.913-1.466.55-1.282-.55l.916-5.861h-21.063l-4.029 27.106h22.344c.916-3.847 10.991-9.523 17.215-6.594l-1.044 6.573 23.305.036"/><path d="m428.321 250.806c-1.352-2.695-1.917-5.923-1.379-9.765 1.837-13.148 11.72-19.821 26.557-19.821 6.392 0 10.838 1.5 15.948 4.638l-2.435 16.881c-3.712-3.104-10.428-4.753-14.409-4.753-1.689 0-3.787.398-4.303 2.403-.751 2.909 2.51 4.51 6.474 5.909 3.275 1.158 6.064 2.595 8.288 4.483z"/><path d="m468.132 257.827c1.008 2.767 1.308 6.099.816 9.615-2.004 14.353-14.322 19.75-27.468 19.75-8.684 0-12.337-1.617-19.242-5.718l3.086-18.892c2.353 3.015 10.322 7.823 15.655 7.549 2.049-.104 6.183-1.514 6.505-3.806.32-2.291-.666-3.979-5.81-5.615-2.411-.766-4.696-1.573-6.724-2.822z"/><path d="m272.253 221.22c-17.929.121-26.751 12.703-30.233 29.579l54.133.012c.6-7.828.316-15.412-2.049-18.852-4.127-6.004-9.559-10.821-21.851-10.739zm.35 14.135c4.221 0 4.908 4.582 4.539 8.08h-10.976c.335-3.256 2.456-8.08 6.437-8.08"/><g fill-rule="nonzero"><path d="m76.719 15.687c20.104 0 35.304 8.002 45.597 24.005v2.413c0 2.493-3.176 5.669-9.53 9.529h-2.412c0-11.499-5.589-20.265-16.767-26.296h-12.063c-16.003 4.342-24.005 9.931-24.005 16.767v9.529c0 4.504 22.397 38.119 67.19 100.845v4.704c-13.672 20.828-34.46 31.243-62.365 31.243-41.576-6.916-62.364-18.899-62.364-35.947 1.769 0 8.162-4.825 19.18-14.476h4.825c0 25.654 12.786 38.481 38.359 38.481 13.35 0 21.351-8.002 24.005-24.005 0-6.112-23.201-41.295-69.602-105.549v-4.825c16.888-17.612 36.872-26.418 59.952-26.418z"/><path d="m173.341 188.426c-26.136-21.955-39.203-33.937-39.203-35.947 9.65-10.133 14.475-20.547 14.475-31.243v-76.719c0-9.972-3.458-18.777-10.374-26.417v-2.413h49.457v2.413l-10.253 14.355v155.971z"/><path d="m284.318.73h27.142l-2.654 32.69v155.006h-8.203c0-5.469-25.372-34.5-76.116-87.093h-5.428c-3.699.563-5.549 2.372-5.549 5.428v54.403c0 4.584 1.85 12.746 5.549 24.487l-5.549 2.775h-16.284c-3.619 0-5.429-1.81-5.429-5.429 3.619-5.951 5.429-11.379 5.429-16.284v-146.924c.563-3.619 2.372-5.428 5.428-5.428 52.191 56.212 81.222 84.318 87.093 84.318l5.428-10.856c-1.85-54.444-5.469-81.665-10.857-81.665v-5.428z"/><path d="m415.682 15.687c20.265 3.298 32.609 6.595 37.032 9.892-3.297 12.304-4.946 19.702-4.946 22.195h-2.412c-9.248-7.479-19.14-11.218-29.674-11.218h-4.946c-26.297 0-42.742 16.084-49.337 48.251v24.608c0 27.422 18.939 45.516 56.816 54.282h4.945c2.333 0 4.785-2.453 7.359-7.358v-22.196c0-10.534-7.761-23.643-23.281-39.324l4.945-2.413h44.391c3.297.483 4.946 2.131 4.946 4.946-2.573 12.465-3.86 21.432-3.86 26.9v49.337c0 9.891-6.594 14.837-19.783 14.837-55.971 0-93.808-22.196-113.51-66.587-1.609-8.926-2.413-16.324-2.413-22.195 0-54.926 31.243-82.911 93.728-83.957z"/><path d="m551.387 15.687c17.371 3.298 27.946 6.595 31.725 9.892-2.814 12.304-4.222 19.702-4.222 22.195h-2.171c-7.881-9.891-16.325-14.837-25.332-14.837h-4.222c-22.517 0-36.63 17.29-42.34 51.87v4.946h52.835c14.153-1.207 21.23-6.152 21.23-14.838h4.222v2.413c0 21.391-5.629 32.087-16.888 32.087h-61.399c0 27.422 16.204 45.516 48.613 54.282h12.786c8.766-3.699 18.617-17.652 29.554-41.858h4.222v2.413c-8.846 41.174-15.199 61.761-19.059 61.761-2.332 1.608-5.83 2.413-10.495 2.413-48.009 0-80.418-22.196-97.225-66.587-1.448-8.926-2.172-16.324-2.172-22.195 0-44.471 26.78-72.457 80.338-83.957z"/></g></g></svg>