<svg clip-rule="evenodd" fill-rule="evenodd" stroke-linejoin="round" stroke-miterlimit="2" viewBox="0 0 600 165" xmlns="http://www.w3.org/2000/svg"><g fill="#fff" fill-rule="nonzero"><path d="m127.682 27.641c.545 1.95 1.427 5.15 2.188 9.415.762 4.269 1.401 9.604 1.455 15.821.054 6.226-.48 13.336-2.07 21.143-1.592 7.821-4.243 16.343-8.423 25.378-4.132 8.935-10.012 17.161-17.275 24.479-7.276 7.329-15.937 13.743-25.615 19.039-9.691 5.303-20.396 9.482-31.745 12.338-11.355 2.857-23.347 4.385-35.598 4.385h-.499c-.167-.001-.333-.001-.498-.002-.168-.002-.333-.003-.499-.005-.166-.001-.333-.003-.5-.005 1.993-1.421 3.6-2.634 4.868-3.979 1.268-1.343 2.2-2.818 2.846-4.762.646-1.943 1.005-4.356 1.129-7.577.125-3.217.015-7.239-.28-12.402-.295-5.159-.652-12.509-1.046-20.808-.392-8.282-.822-17.503-1.258-26.432-.436-8.91-.88-17.53-1.305-24.641-.423-7.099-.83-12.701-1.193-15.596-.307-2.464-.678-4.607-1.15-6.438-.472-1.83-1.043-3.346-1.75-4.556-.708-1.209-1.553-2.11-2.571-2.709-1.019-.599-2.212-.897-3.615-.897-.246 0-.498.009-.758.028-.259.019-.525.046-.797.083-.274.036-.554.082-.84.137-.288.055-.581.118-.883.191 8.257-6.37 15.512-11.35 22.071-15.236 6.552-3.883 12.411-6.679 17.877-8.681 5.463-2 10.536-3.209 15.516-3.916 4.98-.708 9.868-.915 14.965-.915 1.595 0 3.211.02 4.856.053 1.647.031 3.321.075 5.034.12s3.467.095 5.266.136c1.8.041 3.647.077 5.55.096 7.979.081 14.293.907 19.278 2.113 4.989 1.206 8.648 2.791 11.322 4.388 2.673 1.596 4.358 3.204 5.392 4.454s1.417 2.141 1.486 2.302c-.803.689-1.401 1.387-1.809 2.169-.409.782-.629 1.65-.681 2.671-.053 1.024.065 2.205.331 3.616.266 1.412.683 3.054 1.228 5.002zm-31.704 77.052c3.387-6.239 5.726-12.841 7.214-19.534 1.486-6.683 2.124-13.454 2.107-20.046-.017-6.583-.686-12.987-1.814-18.944-1.125-5.951-2.709-11.458-4.556-16.258-1.58-4.103-3.393-7.362-5.424-9.943-2.029-2.58-4.276-4.483-6.725-5.874-2.45-1.39-5.101-2.27-7.94-2.801s-5.867-.715-9.066-.715c-.537 0-1.08.005-1.626.015-.547.01-1.1.024-1.655.041-.557.019-1.12.038-1.685.063-.565.024-1.136.051-1.711.08-7.786.394-13.474 2.219-17.627 4.961-4.156 2.742-6.776 6.403-8.415 10.465-1.642 4.065-2.303 8.532-2.541 12.882-.238 4.352-.051 8.587.002 12.179.056 3.595.412 11.202.919 20.67.509 9.492 1.171 20.86 1.835 31.935.666 11.105 1.335 21.912 1.856 30.216.52 8.319.891 14.118.959 15.174 5.215-.42 9.969-.964 14.505-2.16 4.537-1.195 8.854-3.043 13.195-6.068 4.339-3.023 8.7-7.22 13.325-13.112 4.619-5.885 9.495-13.457 14.868-23.226"/><path d="m195.056 151.429c.091-.04.596-.259 1.304-.707.708-.449 1.621-1.128 2.53-2.091.91-.961 1.815-2.205 2.511-3.781.696-1.577 1.18-3.489 1.248-5.782.068-2.291.096-7.58.098-14.277.001-6.686-.023-14.773-.06-22.685-.035-7.897-.085-15.62-.131-21.61-.047-5.982-.093-10.24-.122-11.224-.396-.011-.798-.02-1.209-.028-.411-.007-.829-.014-1.254-.018-.425-.005-.857-.009-1.295-.012-.437-.003-.882-.003-1.33-.003-3.127 0-6.509.057-9.899.143-3.389.087-6.787.205-9.939.326-3.152.122-6.061.248-8.475.353s-4.334.187-5.509.223c-1.181 2.993-3.175 7.541-4.964 13.344-1.792 5.812-3.382 12.885-3.749 20.921-.368 8.053.492 17.073 3.606 26.764 3.121 9.712 8.508 20.102 17.197 30.858-3.171-.502-6.448-2.273-9.667-4.892-3.217-2.62-6.373-6.085-9.301-9.982-2.926-3.893-5.626-8.216-7.936-12.551-2.306-4.331-4.222-8.675-5.585-12.621-1.361-3.945-2.483-8.186-3.295-12.639-.812-4.447-1.312-9.103-1.432-13.883-.119-4.775.141-9.672.855-14.609.713-4.93 1.876-9.899 3.562-14.821 1.681-4.913 3.325-8.523 4.87-11.31 1.541-2.785 2.983-4.75 4.256-6.372 1.272-1.623 2.376-2.902 3.244-4.316.869-1.414 1.501-2.963 1.829-5.122.328-2.156.068-3.774-.513-4.987-.58-1.213-1.482-2.02-2.436-2.559-.955-.538-1.966-.807-2.763-.942-.798-.134-1.383-.134-1.489-.134 7.519-.488 15.64-.965 23.66-1.411 8.021-.447 15.94-.863 23.057-1.229 7.116-.365 13.428-.68 18.233-.924 4.804-.242 8.101-.413 9.187-.494.049-.003.095-.007.142-.01s.092-.004.138-.007c.045-.001.089-.003.133-.004.044-.002.088-.002.129-.002.921 0 1.535.209 1.901.546.364.337.48.803.398 1.317-.082.515-.358 1.079-.773 1.61-.418.531-.975 1.033-1.618 1.421-.672.408-1.147.876-1.48 1.418-.332.543-.527 1.163-.636 1.875-.11.711-.139 1.513-.141 2.424s.019 1.928.01 3.07c-.01 1.14-.068 7.4-.149 16.269-.081 8.887-.187 20.406-.293 32.028-.107 11.654-.214 23.412-.299 32.706-.087 9.314-.148 16.145-.165 17.893-.017 1.751.19 3.356.575 4.792.386 1.435.95 2.697 1.65 3.763.7 1.065 1.531 1.932 2.455 2.575.922.644 1.935 1.063 2.994 1.23-3.557 0-7.389.01-11.153.026-3.765.015-7.461.034-10.744.055-3.281.02-6.15.04-8.26.055-2.112.02-3.462.031-3.708.034zm7.723-97.72c.054-1.101.132-2.407.203-3.776.071-1.368.135-2.802.162-4.158.026-1.356.015-2.634-.063-3.695-.078-1.063-.225-1.907-.47-2.396-.248-.497-.551-.989-.924-1.448-.374-.459-.817-.885-1.346-1.248-.53-.363-1.143-.665-1.859-.876-.715-.211-1.531-.33-2.462-.33-.361 0-.74.019-1.138.057-.396.038-.812.095-1.247.174-.435.078-.888.179-1.361.302s-.968.269-1.482.441c-1.846.609-3.59 1.37-5.347 2.429-1.757 1.062-3.525 2.42-5.419 4.222-1.896 1.804-3.919 4.052-6.185 6.893-2.266 2.842-4.776 6.276-7.643 10.45.846.024 1.72.044 2.617.061s1.816.031 2.75.043c.933.01 1.883.018 2.838.024.956.004 1.918.007 2.881.007 2.325 0 4.649-.014 6.866-.04 2.216-.025 4.325-.061 6.223-.103 1.895-.043 3.58-.092 4.946-.146 1.365-.054 2.412-.111 3.036-.169.878-.083 1.581-.269 2.143-.569.563-.301.986-.716 1.307-1.258.32-.543.537-1.213.687-2.025.149-.812.234-1.762.287-2.866"/><path d="m267.11 77.476c7.124-4.434 13.077-8.403 18.078-12.008 4.995-3.601 9.041-6.839 12.353-9.814 3.313-2.974 5.891-5.684 7.956-8.234 2.064-2.548 3.614-4.932 4.868-7.256-1.054-1.535-2.128-2.996-3.297-4.322s-2.433-2.518-3.865-3.517c-1.431-.999-3.032-1.806-4.874-2.364-1.842-.559-3.927-.866-6.33-.866-.465 0-.942.011-1.431.034-.49.024-.99.06-1.506.106-.516.047-1.043.108-1.584.182-.541.072-1.095.158-1.665.257-3.505.608-6.697 1.538-9.516 2.76-2.818 1.223-5.265 2.742-7.274 4.527-2.011 1.787-3.585 3.841-4.659 6.138-1.075 2.298-1.649 4.838-1.661 7.592-.013 2.757-.027 9.537-.042 18.173-.015 8.654-.031 19.179-.045 29.389-.014 10.235-.027 20.149-.035 27.528-.009 7.393-.016 12.231-.016 12.285-.006 1.25.037 2.298.234 3.249.194.95.54 1.803 1.14 2.666.601.863 1.453 1.733 2.664 2.716s2.777 2.081 4.803 3.397h-35.477c.577-.059 1.29-.205 2.038-.529.746-.325 1.527-.828 2.235-1.603.71-.773 1.349-1.82 1.815-3.23.465-1.41.756-3.184.773-5.414.019-2.999.014-9.367-.03-17.385-.046-8.003-.131-17.645-.271-27.217-.14-9.55-.334-19.036-.599-26.768-.265-7.72-.599-13.701-1.02-16.276-.424-2.573-.928-4.472-1.501-5.876-.569-1.404-1.208-2.315-1.892-2.911-.686-.597-1.42-.88-2.188-1.028-.766-.148-1.566-.162-2.382-.221 7.474-4.13 14.105-7.445 20.107-10.094 6.001-2.648 11.376-4.633 16.346-6.102 4.969-1.47 9.532-2.423 13.906-3.01 4.373-.586 8.56-.806 12.774-.806h.449c.148 0 .3.002.449.003.149 0 .299.002.448.003.15.001.301.003.45.006 4.375.059 8.329.453 12.003 1.219 3.674.768 7.067 1.909 10.323 3.462 3.256 1.552 6.374 3.518 9.495 5.933 3.124 2.417 6.252 5.285 9.527 8.643-5.991 6.544-12.258 11.794-18.603 16.067-6.348 4.278-12.769 7.572-19.053 10.2-6.288 2.629-12.435 4.592-18.238 6.204-5.809 1.618-11.268 2.88-16.18 4.112z"/><path d="m338.525 24.387 41.53 1.959c-1.785.731-3.3 1.502-4.565 2.308-1.264.807-2.277 1.65-3.063 2.522-.786.874-1.34 1.778-1.687 2.709-.349.931-.488 1.889-.438 2.868.05.976.075 2.744.088 4.859.011 2.117.007 4.584-.003 6.955-.01 2.375-.027 4.655-.041 6.396-.016 1.742-.027 2.945-.03 3.163h37.165c.002-.164.015-1.062.02-2.418.006-1.354.003-3.162-.022-5.143-.026-1.979-.076-4.131-.165-6.176-.089-2.041-.219-3.977-.408-5.522-.187-1.549-.642-2.884-1.286-4.035-.642-1.152-1.475-2.124-2.413-2.949-.938-.823-1.982-1.499-3.055-2.058-1.074-.561-2.172-1.006-3.217-1.37 5.381.039 10.388.127 14.885.238 4.496.11 8.483.242 11.824.371s6.033.255 7.941.351c1.909.097 3.036.163 3.24.176-1.195 1.016-2.193 1.859-3.039 2.836-.847.978-1.538 2.093-2.122 3.65-.581 1.557-1.053 3.558-1.455 6.31-.404 2.755-.738 6.264-1.048 10.837-.306 4.578-.69 11.712-1.096 19.964-.406 8.269-.835 17.668-1.228 26.746-.392 9.098-.749 17.872-1.012 24.858-.263 6.996-.43 12.192-.443 14.11-.014 1.918.105 3.598.354 5.066.25 1.469.625 2.728 1.129 3.804.502 1.077 1.128 1.97 1.873 2.709.747.74 1.614 1.326 2.593 1.787-4.569-.041-9.042-.084-13.194-.122-4.153-.04-7.984-.077-11.274-.108-3.287-.032-6.033-.059-8.009-.079-1.978-.021-3.189-.031-3.407-.034.129-.01.837-.067 1.839-.334 1.003-.267 2.296-.746 3.597-1.6 1.3-.854 2.607-2.081 3.631-3.848s1.767-4.07 1.943-7.074c.174-2.999.423-8.798.697-15.845.273-7.035.575-15.312.857-23.291.282-7.967.545-15.64.741-21.501.2-5.853.331-9.903.357-10.64-4.989.083-9.763.147-14.136.194-4.372.047-8.34.079-11.711.099-3.373.021-6.149.031-8.135.037-1.986.004-3.185.004-3.403.004-.035.822-.241 5.346-.52 11.776-.282 6.438-.638 14.796-.979 23.26-.34 8.481-.666 17.074-.883 23.948-.215 6.884-.324 12.041-.226 13.627.095 1.584.284 2.99.575 4.232.287 1.241.678 2.317 1.172 3.235.493.919 1.092 1.682 1.8 2.299.71.616 1.529 1.086 2.463 1.419h-34.865c.094-.001.618-.014 1.359-.235.741-.222 1.699-.656 2.665-1.502s1.937-2.101 2.706-3.973c.769-1.868 1.333-4.349 1.486-7.643s.451-10.494.792-19.594c.337-9.08.719-20.045 1.035-30.905.315-10.831.566-21.558.654-30.22.086-8.645.007-15.242-.341-17.85-.352-2.605-1.013-4.824-1.844-6.7-.828-1.874-1.827-3.409-2.856-4.647-1.027-1.24-2.084-2.185-3.03-2.88-.944-.69-1.778-1.139-2.362-1.386z"/><path d="m455.451 29.56c.392 0 .798.037 1.213.113.418.075.85.188 1.298.339.447.151.913.341 1.397.568.485.228.99.494 1.518.8 2.111 1.219 5.476 3.12 9.477 5.564 4.001 2.445 8.638 5.435 13.287 8.828 4.653 3.396 9.318 7.2 13.372 11.269 4.056 4.073 7.501 8.413 9.707 12.879.247-5.248.302-9.803.163-13.729-.139-3.923-.47-7.22-.999-9.953-.525-2.731-1.246-4.901-2.163-6.569-.915-1.669-2.03-2.84-3.339-3.572.6-.009 1.195-.016 1.782-.021.588-.006 1.167-.01 1.741-.015.574-.004 1.138-.005 1.693-.008.556-.002 1.101-.002 1.638-.002 2.148 0 4.12.013 5.877.03 1.755.019 3.294.044 4.575.068 1.281.026 2.302.051 3.022.07.721.019 1.14.034 1.215.036-1.762 1.181-3.087 2.015-4.083 2.817-.997.802-1.666 1.57-2.119 2.62-.454 1.05-.693 2.38-.828 4.305-.136 1.926-.165 4.449-.207 7.882-.035 3.433-.107 7.974-.249 13.16-.142 5.194-.35 11.036-.662 17.06-.31 6.033-.722 12.251-1.269 18.182-.547 5.94-1.227 11.593-2.077 16.487-.85 4.901-2.253 9.607-3.993 14.006-1.742 4.401-3.821 8.491-6.018 12.152-2.198 3.664-4.514 6.897-6.727 9.582-2.214 2.686-4.327 4.818-6.113 6.286 3.495-6.656 6.402-12.874 8.726-18.731 2.322-5.849 4.062-11.339 5.226-16.546 1.163-5.202 1.751-10.123 1.771-14.838.02-4.709-.528-9.216-1.641-13.594-1.112-4.373-3.519-8.947-6.627-13.395-3.102-4.442-6.901-8.758-10.803-12.617-3.898-3.855-7.897-7.257-11.408-9.878-3.508-2.619-6.526-4.46-8.467-5.195-.633-.24-1.217-.466-1.76-.667-.542-.203-1.042-.383-1.503-.532-.46-.15-.883-.269-1.268-.351-.387-.082-.738-.128-1.06-.128-.66 0-1.188.19-1.622.636-.435.445-.772 1.147-1.048 2.168-.277 1.022-.495 2.363-.686 4.09-.193 1.729-.36 3.844-.537 6.41-.268 3.815-.642 9.933-1.051 17.038-.411 7.115-.86 15.225-1.278 22.998-.421 7.788-.809 15.237-1.1 21.004-.29 5.774-.483 9.859-.504 10.903-.026 1.041.102 2.25.363 3.51.26 1.26.653 2.568 1.161 3.811.509 1.242 1.134 2.417 1.855 3.406.723.99 1.541 1.796 2.441 2.296-2.413-.082-5.231-.253-8.114-.464-2.88-.212-5.826-.465-8.496-.71s-5.064-.483-6.843-.666c-1.781-.181-2.946-.309-3.158-.33 1.856-.251 3.52-.618 4.987-1.189 1.465-.572 2.733-1.35 3.795-2.427 1.061-1.075 1.917-2.448 2.56-4.209.642-1.761 1.072-3.909 1.281-6.534.208-2.626.591-8.803 1.043-16.677.452-7.859.975-17.401 1.466-26.782.493-9.359.952-18.561 1.284-25.783.33-7.21.533-12.453.507-13.924-.027-1.473-.099-2.689-.278-3.688s-.466-1.778-.915-2.38c-.45-.602-1.064-1.026-1.901-1.309-.836-.284-1.896-.427-3.235-.471 1.713-2.536 3.194-4.771 4.527-6.7 1.33-1.926 2.515-3.546 3.631-4.849 1.118-1.302 2.166-2.288 3.23-2.95 1.066-.655 2.146-.99 3.32-.99z"/><path d="m533.02 37.651c.947 0 2.06.042 3.393.132 1.334.089 2.885.228 4.711.416 1.825.19 3.923.432 6.346.731 2.426.299 5.174.656 8.304 1.076 4.289.573 8.309 1.076 12.014 1.507 3.704.431 7.093.789 10.118 1.076 3.024.286 5.685.501 7.935.644 2.251.143 4.09.214 5.469.214h.266c.089 0 .173-.001.257-.003.083-.001.164-.003.243-.004.08-.001.155-.004.23-.007.792-.028 1.527-.109 2.206-.213.678-.103 1.298-.233 1.857-.358.56-.125 1.057-.247 1.492-.336.436-.091.806-.149 1.111-.149.161 0 .306.017.429.054.125.037.23.095.316.177.086.084.152.19.2.326s.075.301.082.5c.02.57-.248 1.273-.768 2.213-.521.941-1.295 2.118-2.285 3.639-.992 1.52-2.203 3.383-3.596 5.694-1.394 2.311-2.974 5.07-4.7 8.384-.012-.156-.076-1.01-.398-2.261-.321-1.251-.901-2.897-1.941-4.636-1.041-1.738-2.544-3.569-4.713-5.189s-5.004-3.031-8.712-3.928c-.35-.085-.696-.158-1.039-.221-.342-.062-.681-.113-1.017-.154s-.669-.071-.996-.091-.652-.03-.973-.03c-3.082 0-5.833.897-8.267 2.315-2.434 1.419-4.551 3.358-6.359 5.441-1.809 2.084-3.311 4.313-4.512 6.309-1.203 1.996-2.106 3.759-2.718 4.908-.675 1.269-1.057 2.221-1.109 2.94-.052.716.224 1.198.861 1.527.638.329 1.638.503 3.035.608 1.397.104 3.191.137 5.412.18 2.222.039 4.837.194 7.509.413 2.672.221 5.403.507 7.854.815 2.452.307 4.63.636 6.194.939s2.517.581 2.523.787c.007.205-.076.534-.319 1-.242.466-.641 1.071-1.269 1.83-.625.76-1.476 1.672-2.623 2.755-1.144 1.083-2.581 2.337-4.382 3.778-1.081-1.244-2.32-2.238-3.688-3.028-1.367-.789-2.86-1.377-4.447-1.807-1.585-.432-3.267-.709-5.008-.876-1.742-.169-3.544-.229-5.373-.229-.164 0-.328 0-.494.001s-.329.001-.495.004c-.165.003-.33.004-.497.007-.164.002-.33.006-.497.009-2.011.044-3.518.117-4.657.338s-1.91.591-2.448 1.229c-.537.637-.842 1.54-1.049 2.83-.207 1.291-.319 2.966-.466 5.148-.16 10.641.969 20.056 3.091 28.382 2.127 8.342 5.25 15.586 9.066 21.874 3.822 6.296 8.341 11.63 13.25 16.144 4.915 4.52 10.221 8.216 15.615 11.234-1.919-.293-4.762-.806-8.236-1.876-3.474-1.068-7.576-2.692-12.005-5.205-4.426-2.511-9.177-5.909-13.953-10.527-4.771-4.613-9.562-10.439-14.076-17.805-4.501-7.354-7.351-15.039-9.018-22.579-1.665-7.526-2.154-14.906-1.931-21.674.219-6.757 1.149-12.901 2.318-17.972 1.167-5.064 2.577-9.055 3.765-11.51 1.188-2.451 2.07-4.595 2.648-6.475.577-1.878.852-3.495.824-4.89-.029-1.396-.359-2.573-.989-3.574-.629-1-1.562-1.824-2.791-2.517.236-.064.487-.122.758-.172.27-.049.561-.09.877-.126.316-.034.656-.059 1.027-.078.37-.02.77-.028 1.208-.028z"/></g></svg>