<?xml version="1.0" encoding="UTF-8" standalone="no"?><!DOCTYPE svg PUBLIC "-//W3C//DTD SVG 1.1//EN" "http://www.w3.org/Graphics/SVG/1.1/DTD/svg11.dtd"><svg width="100%" height="100%" viewBox="0 0 600 189" version="1.1" xmlns="http://www.w3.org/2000/svg" xmlns:xlink="http://www.w3.org/1999/xlink" xml:space="preserve" xmlns:serif="http://www.serif.com/" style="fill-rule:evenodd;clip-rule:evenodd;stroke-linejoin:round;stroke-miterlimit:2;"><g id="laserdisc_singe_alt"><path d="M76.719,15.882c20.104,0 35.304,8.002 45.597,24.005l0,2.413c0,2.493 -3.176,5.669 -9.53,9.529l-2.412,0c-0,-11.5 -5.589,-20.265 -16.767,-26.296l-12.063,-0c-16.003,4.342 -24.005,9.931 -24.005,16.767l0,9.529c0,4.504 22.397,38.118 67.19,100.845l-0,4.704c-13.672,20.828 -34.46,31.243 -62.365,31.243c-41.576,-6.916 -62.364,-18.899 -62.364,-35.947c1.769,-0 8.162,-4.825 19.18,-14.476l4.825,0c-0,25.654 12.786,38.48 38.359,38.48c13.35,0 21.351,-8.001 24.005,-24.004c0,-6.112 -23.201,-41.295 -69.602,-105.549l0,-4.825c16.888,-17.612 36.872,-26.418 59.952,-26.418Z" style="fill:#fff;fill-rule:nonzero;"/><path d="M173.341,188.621c-26.136,-21.955 -39.203,-33.937 -39.203,-35.947c9.65,-10.133 14.475,-20.547 14.475,-31.243l-0,-76.719c-0,-9.972 -3.458,-18.777 -10.374,-26.417l-0,-2.413l49.457,0l0,2.413l-10.253,14.355l-0,155.971l-4.102,-0Z" style="fill:#fff;fill-rule:nonzero;"/><path d="M284.318,0.925l27.142,-0l-2.654,32.69l-0,155.006l-8.203,-0c0,-5.469 -25.372,-34.5 -76.116,-87.093l-5.428,-0c-3.699,0.563 -5.549,2.372 -5.549,5.428l0,54.403c0,4.584 1.85,12.746 5.549,24.487l-5.549,2.775l-16.284,-0c-3.619,-0 -5.429,-1.81 -5.429,-5.429c3.619,-5.951 5.429,-11.379 5.429,-16.284l-0,-146.924c0.563,-3.619 2.372,-5.429 5.428,-5.429c52.191,56.213 81.222,84.319 87.093,84.319l5.428,-10.857c-1.85,-54.443 -5.469,-81.664 -10.857,-81.664l0,-5.428Z" style="fill:#fff;fill-rule:nonzero;"/><path d="M415.682,15.882c20.265,3.297 32.609,6.595 37.032,9.892c-3.297,12.304 -4.946,19.702 -4.946,22.195l-2.412,0c-9.248,-7.479 -19.14,-11.218 -29.674,-11.218l-4.946,-0c-26.297,-0 -42.742,16.084 -49.337,48.251l0,24.608c0,27.422 18.939,45.516 56.816,54.282l4.945,-0c2.333,-0 4.785,-2.453 7.359,-7.358l-0,-22.196c-0,-10.534 -7.761,-23.643 -23.281,-39.324l4.945,-2.413l44.391,0c3.297,0.483 4.946,2.131 4.946,4.946c-2.573,12.465 -3.86,21.431 -3.86,26.9l-0,49.336c-0,9.892 -6.594,14.838 -19.783,14.838c-55.971,-0 -93.808,-22.196 -113.51,-66.587c-1.609,-8.926 -2.413,-16.325 -2.413,-22.195c0,-54.926 31.243,-82.911 93.728,-83.957Z" style="fill:#fff;fill-rule:nonzero;"/><path d="M551.387,15.882c17.371,3.297 27.946,6.595 31.725,9.892c-2.814,12.304 -4.222,19.702 -4.222,22.195l-2.171,0c-7.881,-9.891 -16.325,-14.837 -25.332,-14.837l-4.222,0c-22.517,0 -36.63,17.29 -42.34,51.87l0,4.945l52.835,0c14.153,-1.206 21.23,-6.152 21.23,-14.837l4.222,0l0,2.413c0,21.391 -5.629,32.087 -16.888,32.087l-61.399,-0c0,27.422 16.204,45.516 48.613,54.282l12.786,-0c8.766,-3.699 18.617,-17.652 29.554,-41.858l4.222,0l0,2.413c-8.846,41.174 -15.199,61.761 -19.059,61.761c-2.332,1.608 -5.83,2.413 -10.495,2.413c-48.009,-0 -80.418,-22.196 -97.225,-66.587c-1.448,-8.926 -2.172,-16.325 -2.172,-22.195c0,-44.471 26.78,-72.457 80.338,-83.957Z" style="fill:#fff;fill-rule:nonzero;"/></g></svg>