<svg clip-rule="evenodd" fill-rule="evenodd" stroke-linejoin="round" stroke-miterlimit="2" viewBox="0 0 600 288" xmlns="http://www.w3.org/2000/svg"><g fill="#fff"><path d="m102.492 197.952h24.543l-8.791 51.649h-23.81z"/><path d="m92.967 257.295h24.176l-.732 5.861h20.147l-2.93 20.88h-45.057z"/><path d="m407.99 202.348h22.344l-2.198 14.654h-22.346z"/><path d="m404.875 223.228h22.344l-4.027 27.106h-22.346z"/><path d="m399.748 257.295h22.344l-4.029 26.741h-22.346z"/><path d="m297.549 257.295h22.344l-4.03 26.741h-22.343z"/><path d="m160.915 257.295c-.188 1.73-.318 3.931-.123 5.909.265 2.413 1.202 4.342 3.493 4.342 3.016 0 4.833-2.653 5.875-5.789.59-1.628 1.011-2.98 1.317-4.518l20.821-.056-4.242 26.928h-18.512l1.087-5.365c-4.586 5.839-8.26 7.241-15.978 7.241-14.743 0-17.098-16.354-16.164-28.685l22.426-.008"/><path d="m172.405 250.335c.015-1.534-.004-2.441-.078-3.517-.215-2.774-1.083-5.186-3.858-5.186-2.895 0-4.627 2.894-5.838 6.393-.174.545-.326 1.068-1.006 2.303l-22.62-.017c3.004-12.894 9.762-27.979 24.485-28.282 4.021-.082 11.529.465 14.467 6.21l.641.123.95-5.189h18.142l-4.179 27.16-21.106.001"/><path d="m199.014 250.333c-1.351-2.696-1.916-5.924-1.379-9.766 1.838-13.148 11.721-19.82 26.557-19.82 6.393 0 10.837 1.5 15.946 4.637l-2.433 16.881c-3.71-3.103-10.429-4.753-14.409-4.753-1.689 0-3.786.399-4.303 2.403-.75 2.909 2.509 4.51 6.474 5.91 3.277 1.157 6.065 2.595 8.288 4.482z"/><path d="m238.823 257.353c1.009 2.768 1.311 6.099.819 9.615-2.007 14.354-14.323 19.751-27.47 19.751-8.684 0-12.338-1.618-19.243-5.719l3.088-18.892c2.352 3.016 10.321 7.824 15.654 7.55 2.049-.105 6.184-1.514 6.504-3.806s-.664-3.979-5.809-5.616c-2.408-.765-4.696-1.573-6.722-2.821z"/><path d="m263.28 257.305c-.889 5.387-1.092 13.843 3.817 14.441 3.162.384 6.459-2.181 7.458-8.676h19.861c-3.461 20.414-15.425 24.12-29.658 24.015-15.506-.113-24.79-12.737-23.651-29.806z"/><path d="m471.712 250.333c2.914-16.005 10.711-29.076 33.004-29.585 4.373-.099 7.853 1.381 9.672 2.437l-2.883 17.33c-8.846-3.587-13.658 3.455-15.356 9.842z"/><path d="m495.638 257.307c.596 3.987 2.891 7.706 7.366 7.706l4.865-.367-2.835 19.393c-3.455.911-6.75 1.46-11.223 1.398-17.018-.238-23.994-12.753-23.003-28.154z"/><path d="m369.91 257.305c-2.665 4.315-5.328 7.498-11.37 6.95l1.044-6.968-23.534.014-4.252 26.733h23.81c19.703 0 33.227-8.621 39.859-26.79l-25.557.06"/><path d="m360.469 250.35 4.664-30.05c9.522 0 11.719 7.324 9.89 20.512-.458 3.296-1.098 6.777-1.958 9.592l24.774.027c.896-3.709 1.291-7.829 1.725-12.183 3.298-32.967-14.651-40.294-32.6-40.294h-22.346l-3.114 23.444c-3.663.731-12.637 1.831-17.398 8.242-.916.914-1.466.55-1.282-.55l.916-5.861h-21.063l-4.029 27.106h22.344c.916-3.846 10.991-9.523 17.215-6.594l-1.044 6.573 23.305.036"/><path d="m428.321 250.333c-1.352-2.696-1.917-5.924-1.379-9.766 1.837-13.148 11.72-19.82 26.557-19.82 6.392 0 10.838 1.5 15.948 4.637l-2.435 16.881c-3.712-3.103-10.428-4.753-14.409-4.753-1.689 0-3.787.399-4.303 2.403-.751 2.909 2.51 4.51 6.474 5.91 3.275 1.157 6.064 2.595 8.288 4.482z"/><path d="m468.132 257.353c1.008 2.768 1.308 6.099.816 9.615-2.004 14.354-14.322 19.751-27.468 19.751-8.684 0-12.337-1.618-19.242-5.719l3.086-18.892c2.353 3.016 10.322 7.824 15.655 7.55 2.049-.105 6.183-1.514 6.505-3.806.32-2.292-.666-3.979-5.81-5.616-2.411-.765-4.696-1.573-6.724-2.821z"/><path d="m272.253 220.747c-17.929.121-26.751 12.703-30.233 29.579l54.133.011c.6-7.827.316-15.411-2.049-18.852-4.127-6.004-9.559-10.82-21.851-10.738zm.35 14.135c4.221 0 4.908 4.582 4.539 8.08h-10.976c.335-3.256 2.456-8.08 6.437-8.08"/><g fill-rule="nonzero"><path d="m76.719 15.214c20.104 0 35.304 8.002 45.597 24.005v2.412c0 2.493-3.176 5.67-9.53 9.53h-2.412c0-11.5-5.589-20.266-16.767-26.297h-12.063c-16.003 4.343-24.005 9.932-24.005 16.767v9.53c0 4.503 22.397 38.118 67.19 100.844v4.705c-13.672 20.828-34.46 31.242-62.365 31.242-41.576-6.916-62.364-18.898-62.364-35.947 1.769 0 8.162-4.825 19.18-14.475h4.825c0 25.653 12.786 38.48 38.359 38.48 13.35 0 21.351-8.002 24.005-24.005 0-6.112-23.201-41.294-69.602-105.549v-4.825c16.888-17.611 36.872-26.417 59.952-26.417z"/><path d="m173.341 187.952c-26.136-21.954-39.203-33.936-39.203-35.947 9.65-10.132 14.475-20.547 14.475-31.242v-76.719c0-9.972-3.458-18.778-10.374-26.418v-2.412h49.457v2.412l-10.253 14.355v155.971z"/><path d="m284.318.256h27.142l-2.654 32.69v155.006h-8.203c0-5.468-25.372-34.499-76.116-87.093h-5.428c-3.699.563-5.549 2.373-5.549 5.429v54.402c0 4.584 1.85 12.747 5.549 24.488l-5.549 2.774h-16.284c-3.619 0-5.429-1.809-5.429-5.428 3.619-5.951 5.429-11.379 5.429-16.285v-146.924c.563-3.619 2.372-5.428 5.428-5.428 52.191 56.212 81.222 84.318 87.093 84.318l5.428-10.856c-1.85-54.443-5.469-81.665-10.857-81.665v-5.428z"/><path d="m415.682 15.214c20.265 3.297 32.609 6.594 37.032 9.891-3.297 12.304-4.946 19.703-4.946 22.196h-2.412c-9.248-7.479-19.14-11.219-29.674-11.219h-4.946c-26.297 0-42.742 16.084-49.337 48.251v24.608c0 27.423 18.939 45.517 56.816 54.283h4.945c2.333 0 4.785-2.453 7.359-7.359v-22.195c0-10.535-7.761-23.643-23.281-39.325l4.945-2.412h44.391c3.297.482 4.946 2.131 4.946 4.946-2.573 12.464-3.86 21.431-3.86 26.899v49.337c0 9.891-6.594 14.837-19.783 14.837-55.971 0-93.808-22.195-113.51-66.586-1.609-8.926-2.413-16.325-2.413-22.195 0-54.926 31.243-82.912 93.728-83.957z"/><path d="m551.387 15.214c17.371 3.297 27.946 6.594 31.725 9.891-2.814 12.304-4.222 19.703-4.222 22.196h-2.171c-7.881-9.892-16.325-14.837-25.332-14.837h-4.222c-22.517 0-36.63 17.29-42.34 51.869v4.946h52.835c14.153-1.206 21.23-6.152 21.23-14.837h4.222v2.412c0 21.392-5.629 32.087-16.888 32.087h-61.399c0 27.423 16.204 45.517 48.613 54.283h12.786c8.766-3.7 18.617-17.652 29.554-41.858h4.222v2.412c-8.846 41.175-15.199 61.762-19.059 61.762-2.332 1.608-5.83 2.412-10.495 2.412-48.009 0-80.418-22.195-97.225-66.586-1.448-8.926-2.172-16.325-2.172-22.195 0-44.472 26.78-72.457 80.338-83.957z"/></g></g></svg>