<?xml version="1.0" encoding="UTF-8" standalone="no"?><!DOCTYPE svg PUBLIC "-//W3C//DTD SVG 1.1//EN" "http://www.w3.org/Graphics/SVG/1.1/DTD/svg11.dtd"><svg width="100%" height="100%" viewBox="0 0 600 90" version="1.1" xmlns="http://www.w3.org/2000/svg" xmlns:xlink="http://www.w3.org/1999/xlink" xml:space="preserve" xmlns:serif="http://www.serif.com/" style="fill-rule:evenodd;clip-rule:evenodd;stroke-linejoin:round;stroke-miterlimit:2;"><g id="laserdisc_daphne_singe_alt"><g><path d="M68.888,15.302c0.293,1.052 0.769,2.779 1.18,5.079c0.411,2.304 0.756,5.182 0.785,8.536c0.029,3.359 -0.259,7.196 -1.117,11.407c-0.859,4.22 -2.289,8.818 -4.544,13.692c-2.23,4.821 -5.402,9.259 -9.32,13.207c-3.926,3.954 -8.599,7.415 -13.821,10.272c-5.228,2.861 -11.004,5.116 -17.127,6.657c-6.126,1.541 -12.596,2.366 -19.206,2.366l-0.269,0c-0.09,-0.001 -0.179,-0.001 -0.269,-0.001c-0.09,-0.001 -0.179,-0.002 -0.269,-0.003c-0.089,-0.001 -0.179,-0.001 -0.27,-0.003c1.076,-0.767 1.943,-1.421 2.627,-2.146c0.684,-0.725 1.187,-1.521 1.535,-2.569c0.349,-1.049 0.542,-2.351 0.61,-4.088c0.067,-1.736 0.007,-3.906 -0.152,-6.692c-0.159,-2.783 -0.351,-6.749 -0.564,-11.226c-0.211,-4.468 -0.443,-9.444 -0.679,-14.261c-0.235,-4.807 -0.474,-9.458 -0.704,-13.294c-0.228,-3.831 -0.447,-6.853 -0.643,-8.415c-0.166,-1.329 -0.366,-2.485 -0.621,-3.473c-0.254,-0.988 -0.562,-1.805 -0.944,-2.458c-0.382,-0.652 -0.838,-1.138 -1.387,-1.462c-0.55,-0.323 -1.193,-0.484 -1.95,-0.484c-0.133,0 -0.269,0.005 -0.409,0.016c-0.14,0.01 -0.284,0.024 -0.431,0.044c-0.147,0.02 -0.298,0.044 -0.453,0.074c-0.155,0.03 -0.313,0.064 -0.476,0.103c4.455,-3.436 8.369,-6.123 11.908,-8.22c3.535,-2.095 6.696,-3.603 9.645,-4.683c2.947,-1.08 5.685,-1.732 8.371,-2.113c2.687,-0.382 5.324,-0.494 8.074,-0.494c0.861,0 1.733,0.011 2.62,0.028c0.888,0.017 1.792,0.041 2.716,0.065c0.924,0.025 1.871,0.052 2.841,0.074c0.971,0.022 1.968,0.041 2.994,0.052c4.306,0.043 7.712,0.489 10.402,1.139c2.691,0.651 4.665,1.506 6.108,2.368c1.442,0.861 2.351,1.729 2.909,2.403c0.558,0.674 0.764,1.155 0.802,1.242c-0.434,0.372 -0.756,0.748 -0.976,1.17c-0.221,0.422 -0.34,0.89 -0.368,1.441c-0.028,0.553 0.035,1.19 0.179,1.951c0.144,0.762 0.368,1.648 0.663,2.699Zm-17.106,41.571c1.828,-3.366 3.09,-6.928 3.892,-10.539c0.802,-3.606 1.146,-7.259 1.137,-10.815c-0.009,-3.552 -0.37,-7.007 -0.978,-10.221c-0.607,-3.21 -1.462,-6.182 -2.459,-8.771c-0.852,-2.214 -1.83,-3.972 -2.926,-5.365c-1.094,-1.392 -2.307,-2.418 -3.628,-3.169c-1.322,-0.75 -2.752,-1.225 -4.284,-1.511c-1.532,-0.287 -3.165,-0.386 -4.891,-0.386c-0.29,-0 -0.583,0.003 -0.878,0.008c-0.295,0.005 -0.593,0.013 -0.893,0.022c-0.3,0.01 -0.603,0.021 -0.908,0.034c-0.305,0.013 -0.614,0.027 -0.924,0.043c-4.2,0.213 -7.269,1.198 -9.51,2.677c-2.242,1.479 -3.656,3.455 -4.54,5.646c-0.886,2.193 -1.242,4.603 -1.371,6.95c-0.128,2.348 -0.027,4.633 0.001,6.571c0.031,1.94 0.223,6.044 0.496,11.152c0.275,5.121 0.632,11.254 0.99,17.23c0.359,5.991 0.72,11.822 1.001,16.302c0.281,4.488 0.481,7.617 0.518,8.186c2.814,-0.226 5.378,-0.519 7.826,-1.165c2.447,-0.645 4.776,-1.641 7.119,-3.273c2.341,-1.632 4.694,-3.896 7.189,-7.075c2.492,-3.175 5.123,-7.26 8.021,-12.531" style="fill:#fff;fill-rule:nonzero;"/><path d="M105.238,82.088c0.048,-0.021 0.321,-0.139 0.703,-0.381c0.382,-0.242 0.874,-0.608 1.365,-1.128c0.491,-0.519 0.979,-1.19 1.354,-2.04c0.376,-0.851 0.637,-1.882 0.674,-3.12c0.037,-1.236 0.052,-4.089 0.053,-7.703c0,-3.607 -0.013,-7.97 -0.032,-12.238c-0.02,-4.261 -0.046,-8.428 -0.072,-11.66c-0.025,-3.227 -0.049,-5.525 -0.065,-6.055c-0.214,-0.006 -0.431,-0.011 -0.652,-0.015c-0.222,-0.004 -0.447,-0.008 -0.677,-0.01c-0.229,-0.003 -0.462,-0.005 -0.698,-0.006c-0.237,-0.002 -0.477,-0.002 -0.718,-0.002c-1.687,0 -3.512,0.031 -5.341,0.077c-1.828,0.047 -3.661,0.11 -5.362,0.176c-1.701,0.066 -3.27,0.134 -4.573,0.19c-1.302,0.057 -2.338,0.101 -2.972,0.12c-0.637,1.616 -1.713,4.069 -2.678,7.2c-0.967,3.136 -1.825,6.952 -2.023,11.287c-0.198,4.345 0.265,9.212 1.946,14.44c1.684,5.24 4.59,10.845 9.278,16.649c-1.711,-0.271 -3.479,-1.226 -5.216,-2.64c-1.736,-1.413 -3.438,-3.283 -5.018,-5.385c-1.578,-2.1 -3.035,-4.433 -4.281,-6.772c-1.245,-2.336 -2.278,-4.68 -3.013,-6.809c-0.735,-2.129 -1.34,-4.416 -1.778,-6.819c-0.438,-2.399 -0.708,-4.911 -0.773,-7.49c-0.064,-2.576 0.076,-5.219 0.461,-7.882c0.385,-2.66 1.013,-5.341 1.922,-7.996c0.907,-2.651 1.794,-4.599 2.627,-6.102c0.832,-1.503 1.61,-2.563 2.297,-3.438c0.686,-0.876 1.281,-1.566 1.75,-2.329c0.469,-0.763 0.81,-1.598 0.987,-2.763c0.176,-1.163 0.037,-2.036 -0.277,-2.691c-0.313,-0.654 -0.799,-1.09 -1.315,-1.38c-0.515,-0.291 -1.06,-0.436 -1.49,-0.509c-0.431,-0.072 -0.746,-0.072 -0.804,-0.072c4.057,-0.263 8.439,-0.521 12.766,-0.761c4.327,-0.241 8.6,-0.466 12.44,-0.663c3.839,-0.197 7.244,-0.367 9.836,-0.499c2.593,-0.13 4.371,-0.223 4.958,-0.266c0.026,-0.002 0.051,-0.004 0.076,-0.006c0.025,-0.001 0.05,-0.002 0.074,-0.004c0.025,-0 0.048,-0.001 0.072,-0.002c0.024,-0.001 0.047,-0.001 0.07,-0.001c0.496,0 0.828,0.113 1.025,0.295c0.197,0.182 0.259,0.433 0.215,0.711c-0.044,0.277 -0.193,0.581 -0.417,0.868c-0.226,0.287 -0.526,0.557 -0.873,0.767c-0.362,0.22 -0.619,0.472 -0.798,0.765c-0.18,0.293 -0.285,0.627 -0.343,1.011c-0.06,0.384 -0.075,0.816 -0.077,1.308c-0.001,0.491 0.011,1.04 0.006,1.656c-0.006,0.616 -0.037,3.993 -0.081,8.778c-0.043,4.795 -0.101,11.009 -0.158,17.28c-0.057,6.288 -0.115,12.631 -0.161,17.646c-0.047,5.025 -0.08,8.71 -0.089,9.653c-0.009,0.945 0.102,1.811 0.31,2.585c0.208,0.775 0.513,1.456 0.89,2.031c0.378,0.574 0.826,1.042 1.325,1.389c0.497,0.347 1.044,0.573 1.615,0.664c-1.919,-0 -3.986,0.005 -6.017,0.013c-2.031,0.009 -4.026,0.019 -5.797,0.03c-1.77,0.011 -3.318,0.022 -4.456,0.03c-1.14,0.011 -1.868,0.017 -2,0.018Zm4.166,-52.722c0.029,-0.594 0.071,-1.299 0.11,-2.037c0.038,-0.738 0.072,-1.512 0.087,-2.244c0.014,-0.731 0.008,-1.421 -0.034,-1.993c-0.042,-0.573 -0.121,-1.029 -0.254,-1.293c-0.133,-0.268 -0.297,-0.533 -0.498,-0.781c-0.202,-0.248 -0.441,-0.478 -0.726,-0.673c-0.286,-0.196 -0.617,-0.359 -1.003,-0.473c-0.386,-0.114 -0.826,-0.178 -1.329,-0.178c-0.195,0 -0.399,0.01 -0.613,0.031c-0.215,0.02 -0.438,0.051 -0.673,0.094c-0.235,0.042 -0.479,0.096 -0.735,0.163c-0.255,0.066 -0.522,0.145 -0.799,0.237c-0.996,0.329 -1.937,0.74 -2.885,1.311c-0.948,0.573 -1.902,1.306 -2.924,2.278c-1.023,0.973 -2.114,2.186 -3.336,3.719c-1.223,1.533 -2.577,3.386 -4.124,5.638c0.456,0.013 0.928,0.024 1.411,0.033c0.484,0.009 0.98,0.017 1.484,0.023c0.504,0.005 1.016,0.01 1.531,0.013c0.516,0.002 1.035,0.004 1.555,0.004c1.254,-0 2.508,-0.008 3.704,-0.022c1.196,-0.013 2.334,-0.033 3.357,-0.055c1.023,-0.023 1.932,-0.05 2.669,-0.079c0.737,-0.029 1.302,-0.06 1.638,-0.091c0.474,-0.045 0.853,-0.145 1.157,-0.307c0.303,-0.163 0.532,-0.386 0.704,-0.679c0.173,-0.293 0.29,-0.655 0.371,-1.093c0.08,-0.438 0.126,-0.95 0.155,-1.546" style="fill:#fff;fill-rule:nonzero;"/><path d="M144.112,42.189c3.844,-2.392 7.056,-4.534 9.754,-6.478c2.694,-1.944 4.877,-3.69 6.665,-5.295c1.787,-1.605 3.178,-3.067 4.292,-4.443c1.113,-1.374 1.95,-2.661 2.626,-3.915c-0.569,-0.828 -1.148,-1.616 -1.779,-2.332c-0.63,-0.715 -1.312,-1.358 -2.085,-1.897c-0.772,-0.539 -1.636,-0.974 -2.629,-1.276c-0.994,-0.301 -2.119,-0.467 -3.416,-0.467c-0.25,0 -0.508,0.006 -0.772,0.019c-0.264,0.013 -0.534,0.032 -0.812,0.057c-0.279,0.025 -0.563,0.058 -0.855,0.098c-0.292,0.039 -0.591,0.085 -0.898,0.139c-1.891,0.328 -3.613,0.829 -5.135,1.489c-1.52,0.66 -2.84,1.479 -3.924,2.442c-1.085,0.964 -1.934,2.072 -2.513,3.312c-0.58,1.239 -0.89,2.61 -0.897,4.096c-0.007,1.487 -0.014,5.145 -0.022,9.805c-0.008,4.669 -0.017,10.347 -0.024,15.856c-0.008,5.521 -0.015,10.871 -0.02,14.852c-0.004,3.988 -0.008,6.599 -0.008,6.628c-0.003,0.674 0.02,1.24 0.126,1.752c0.105,0.513 0.291,0.973 0.615,1.439c0.325,0.466 0.784,0.935 1.438,1.465c0.653,0.531 1.498,1.123 2.591,1.833l-19.141,0c0.312,-0.032 0.696,-0.11 1.1,-0.286c0.402,-0.175 0.824,-0.446 1.206,-0.864c0.383,-0.417 0.728,-0.982 0.979,-1.743c0.251,-0.76 0.407,-1.717 0.417,-2.921c0.01,-1.618 0.007,-5.054 -0.016,-9.379c-0.025,-4.318 -0.071,-9.52 -0.146,-14.684c-0.076,-5.153 -0.181,-10.271 -0.324,-14.443c-0.143,-4.165 -0.323,-7.391 -0.55,-8.781c-0.229,-1.388 -0.501,-2.413 -0.81,-3.17c-0.307,-0.758 -0.652,-1.249 -1.021,-1.571c-0.37,-0.322 -0.766,-0.475 -1.18,-0.554c-0.414,-0.08 -0.845,-0.088 -1.285,-0.119c4.032,-2.229 7.61,-4.017 10.848,-5.447c3.237,-1.428 6.138,-2.499 8.819,-3.292c2.681,-0.792 5.143,-1.307 7.503,-1.623c2.359,-0.317 4.618,-0.435 6.891,-0.435l0.243,-0c0.08,-0 0.162,0 0.242,0.001c0.08,0 0.161,0.001 0.241,0.002c0.081,0 0.163,0.001 0.244,0.003c2.36,0.032 4.493,0.244 6.475,0.658c1.983,0.414 3.813,1.03 5.57,1.867c1.756,0.838 3.439,1.898 5.123,3.202c1.685,1.304 3.373,2.851 5.14,4.662c-3.232,3.531 -6.614,6.364 -10.037,8.669c-3.425,2.308 -6.889,4.085 -10.279,5.503c-3.393,1.419 -6.71,2.478 -9.84,3.347c-3.134,0.873 -6.08,1.554 -8.73,2.219Z" style="fill:#fff;fill-rule:nonzero;"/><path d="M182.642,13.546l22.407,1.057c-0.963,0.395 -1.781,0.811 -2.463,1.246c-0.682,0.435 -1.229,0.889 -1.653,1.36c-0.424,0.472 -0.723,0.96 -0.91,1.462c-0.188,0.502 -0.263,1.019 -0.236,1.547c0.026,0.527 0.04,1.48 0.047,2.622c0.006,1.142 0.004,2.473 -0.002,3.752c-0.005,1.281 -0.014,2.511 -0.022,3.451c-0.008,0.94 -0.014,1.589 -0.016,1.706l20.052,0c0.001,-0.088 0.007,-0.573 0.01,-1.304c0.004,-0.731 0.002,-1.706 -0.012,-2.775c-0.014,-1.068 -0.04,-2.229 -0.088,-3.332c-0.049,-1.102 -0.119,-2.146 -0.221,-2.98c-0.1,-0.835 -0.346,-1.555 -0.694,-2.177c-0.346,-0.621 -0.795,-1.145 -1.301,-1.59c-0.506,-0.444 -1.07,-0.809 -1.648,-1.111c-0.58,-0.303 -1.172,-0.543 -1.736,-0.739c2.903,0.021 5.604,0.069 8.03,0.128c2.426,0.06 4.577,0.131 6.38,0.2c1.802,0.07 3.255,0.138 4.284,0.19c1.03,0.052 1.638,0.088 1.748,0.095c-0.645,0.548 -1.183,1.003 -1.639,1.53c-0.457,0.528 -0.83,1.129 -1.145,1.969c-0.314,0.84 -0.568,1.92 -0.785,3.405c-0.218,1.486 -0.398,3.379 -0.566,5.847c-0.165,2.469 -0.372,6.318 -0.591,10.771c-0.219,4.461 -0.451,9.532 -0.662,14.43c-0.212,4.908 -0.405,9.642 -0.546,13.411c-0.142,3.775 -0.233,6.578 -0.239,7.613c-0.008,1.035 0.056,1.941 0.191,2.733c0.134,0.793 0.337,1.472 0.609,2.053c0.27,0.58 0.608,1.062 1.01,1.461c0.403,0.399 0.871,0.716 1.399,0.964c-2.465,-0.022 -4.878,-0.045 -7.119,-0.066c-2.24,-0.021 -4.307,-0.041 -6.082,-0.058c-1.773,-0.017 -3.255,-0.032 -4.321,-0.043c-1.067,-0.011 -1.721,-0.017 -1.838,-0.018c0.069,-0.005 0.451,-0.036 0.992,-0.18c0.541,-0.144 1.239,-0.403 1.941,-0.863c0.701,-0.461 1.406,-1.123 1.959,-2.077c0.552,-0.953 0.953,-2.196 1.048,-3.816c0.094,-1.618 0.228,-4.747 0.376,-8.549c0.147,-3.795 0.31,-8.261 0.462,-12.566c0.152,-4.298 0.295,-8.438 0.4,-11.6c0.108,-3.158 0.179,-5.343 0.193,-5.741c-2.692,0.045 -5.268,0.08 -7.627,0.105c-2.359,0.025 -4.5,0.043 -6.318,0.053c-1.82,0.012 -3.318,0.017 -4.389,0.02c-1.072,0.003 -1.719,0.003 -1.836,0.003c-0.019,0.443 -0.13,2.884 -0.281,6.353c-0.152,3.474 -0.344,7.983 -0.528,12.549c-0.183,4.576 -0.359,9.212 -0.476,12.921c-0.116,3.714 -0.175,6.496 -0.123,7.352c0.052,0.854 0.154,1.613 0.311,2.283c0.155,0.669 0.366,1.25 0.632,1.746c0.266,0.495 0.589,0.907 0.972,1.24c0.382,0.332 0.824,0.586 1.328,0.765l-18.81,0c0.05,-0 0.333,-0.007 0.733,-0.126c0.4,-0.12 0.916,-0.354 1.438,-0.811c0.521,-0.456 1.045,-1.133 1.46,-2.143c0.415,-1.008 0.719,-2.347 0.802,-4.124c0.082,-1.777 0.243,-5.662 0.427,-10.571c0.182,-4.899 0.387,-10.815 0.558,-16.674c0.17,-5.844 0.306,-11.631 0.353,-16.305c0.047,-4.664 0.004,-8.223 -0.184,-9.63c-0.19,-1.406 -0.547,-2.603 -0.995,-3.615c-0.447,-1.011 -0.986,-1.839 -1.541,-2.507c-0.554,-0.669 -1.124,-1.179 -1.635,-1.554c-0.509,-0.372 -0.959,-0.615 -1.274,-0.748Z" style="fill:#fff;fill-rule:nonzero;"/><path d="M245.726,16.337c0.212,0 0.431,0.02 0.655,0.061c0.225,0.041 0.458,0.102 0.7,0.183c0.242,0.082 0.493,0.184 0.754,0.306c0.262,0.123 0.534,0.267 0.819,0.432c1.139,0.658 2.954,1.683 5.113,3.002c2.159,1.319 4.661,2.932 7.169,4.763c2.51,1.832 5.027,3.885 7.214,6.08c2.188,2.198 4.047,4.539 5.238,6.948c0.133,-2.831 0.162,-5.289 0.087,-7.407c-0.074,-2.116 -0.253,-3.895 -0.538,-5.37c-0.284,-1.473 -0.673,-2.644 -1.168,-3.544c-0.493,-0.9 -1.095,-1.532 -1.801,-1.927c0.324,-0.005 0.645,-0.008 0.961,-0.012c0.317,-0.003 0.63,-0.005 0.94,-0.007c0.309,-0.002 0.613,-0.003 0.913,-0.005c0.3,-0.001 0.594,-0.001 0.884,-0.001c1.159,0 2.223,0.007 3.17,0.017c0.948,0.009 1.778,0.023 2.469,0.036c0.691,0.014 1.242,0.028 1.63,0.038c0.389,0.01 0.615,0.018 0.656,0.02c-0.951,0.636 -1.666,1.087 -2.203,1.519c-0.538,0.433 -0.899,0.847 -1.144,1.414c-0.244,0.566 -0.373,1.284 -0.446,2.322c-0.073,1.039 -0.089,2.401 -0.112,4.253c-0.019,1.852 -0.058,4.302 -0.134,7.1c-0.077,2.802 -0.189,5.954 -0.357,9.204c-0.167,3.255 -0.39,6.61 -0.685,9.81c-0.295,3.205 -0.662,6.255 -1.121,8.895c-0.458,2.644 -1.215,5.183 -2.154,7.557c-0.94,2.374 -2.061,4.581 -3.247,6.556c-1.185,1.977 -2.435,3.721 -3.629,5.169c-1.195,1.45 -2.335,2.6 -3.298,3.392c1.885,-3.591 3.454,-6.946 4.707,-10.106c1.253,-3.155 2.192,-6.117 2.82,-8.927c0.628,-2.806 0.945,-5.461 0.956,-8.005c0.011,-2.541 -0.285,-4.972 -0.885,-7.334c-0.6,-2.36 -1.899,-4.827 -3.576,-7.228c-1.673,-2.396 -3.724,-4.724 -5.829,-6.807c-2.103,-2.079 -4.26,-3.915 -6.155,-5.329c-1.892,-1.413 -3.52,-2.406 -4.568,-2.803c-0.341,-0.129 -0.656,-0.251 -0.949,-0.36c-0.293,-0.109 -0.563,-0.206 -0.811,-0.287c-0.248,-0.081 -0.476,-0.145 -0.684,-0.189c-0.209,-0.044 -0.398,-0.069 -0.572,-0.069c-0.356,0 -0.641,0.102 -0.875,0.343c-0.235,0.24 -0.417,0.619 -0.566,1.17c-0.149,0.551 -0.266,1.275 -0.37,2.207c-0.104,0.932 -0.194,2.073 -0.289,3.458c-0.145,2.058 -0.347,5.359 -0.568,9.192c-0.221,3.839 -0.464,8.214 -0.689,12.408c-0.227,4.202 -0.437,8.221 -0.593,11.332c-0.157,3.116 -0.261,5.319 -0.272,5.883c-0.014,0.562 0.055,1.214 0.195,1.893c0.141,0.68 0.353,1.386 0.627,2.056c0.275,0.671 0.612,1.304 1.001,1.838c0.39,0.534 0.831,0.969 1.317,1.239c-1.302,-0.044 -2.822,-0.137 -4.378,-0.251c-1.554,-0.114 -3.143,-0.25 -4.584,-0.383c-1.44,-0.132 -2.732,-0.26 -3.692,-0.359c-0.961,-0.098 -1.589,-0.167 -1.704,-0.178c1.002,-0.135 1.9,-0.333 2.691,-0.641c0.79,-0.309 1.474,-0.729 2.048,-1.31c0.572,-0.58 1.034,-1.321 1.381,-2.271c0.346,-0.95 0.578,-2.109 0.691,-3.525c0.112,-1.417 0.319,-4.749 0.563,-8.998c0.243,-4.24 0.525,-9.388 0.791,-14.449c0.266,-5.05 0.513,-10.014 0.692,-13.91c0.178,-3.89 0.288,-6.719 0.274,-7.513c-0.015,-0.795 -0.054,-1.451 -0.15,-1.99c-0.097,-0.539 -0.251,-0.959 -0.494,-1.284c-0.243,-0.325 -0.574,-0.553 -1.026,-0.706c-0.451,-0.153 -1.022,-0.23 -1.745,-0.254c0.925,-1.368 1.723,-2.574 2.443,-3.615c0.717,-1.039 1.356,-1.913 1.959,-2.616c0.603,-0.703 1.168,-1.235 1.743,-1.592c0.574,-0.353 1.157,-0.534 1.79,-0.534Z" style="fill:#fff;fill-rule:nonzero;"/><path d="M287.577,20.702c0.511,0 1.111,0.023 1.831,0.072c0.719,0.048 1.556,0.123 2.541,0.224c0.985,0.103 2.117,0.233 3.424,0.395c1.309,0.161 2.791,0.354 4.48,0.58c2.314,0.309 4.483,0.581 6.482,0.813c1.998,0.233 3.827,0.426 5.459,0.58c1.632,0.155 3.067,0.271 4.281,0.348c1.215,0.077 2.207,0.116 2.95,0.116l0.144,-0c0.048,-0 0.093,-0.001 0.139,-0.002c0.045,-0.001 0.088,-0.001 0.131,-0.002c0.043,-0.001 0.083,-0.003 0.124,-0.004c0.427,-0.015 0.824,-0.059 1.19,-0.115c0.366,-0.056 0.7,-0.126 1.002,-0.193c0.302,-0.067 0.57,-0.133 0.805,-0.181c0.235,-0.049 0.435,-0.081 0.599,-0.081c0.087,0 0.165,0.01 0.232,0.03c0.067,0.019 0.124,0.051 0.17,0.095c0.047,0.045 0.082,0.102 0.108,0.176c0.026,0.073 0.041,0.162 0.044,0.27c0.011,0.307 -0.133,0.686 -0.414,1.194c-0.281,0.507 -0.698,1.142 -1.233,1.963c-0.535,0.82 -1.188,1.825 -1.94,3.072c-0.752,1.246 -1.604,2.735 -2.535,4.523c-0.007,-0.084 -0.042,-0.545 -0.215,-1.22c-0.174,-0.675 -0.486,-1.563 -1.047,-2.501c-0.562,-0.938 -1.373,-1.925 -2.543,-2.8c-1.171,-0.873 -2.7,-1.635 -4.701,-2.119c-0.188,-0.045 -0.375,-0.085 -0.56,-0.119c-0.185,-0.033 -0.368,-0.061 -0.549,-0.083c-0.181,-0.022 -0.361,-0.038 -0.537,-0.049c-0.177,-0.011 -0.352,-0.016 -0.525,-0.016c-1.663,-0 -3.147,0.484 -4.461,1.249c-1.313,0.765 -2.455,1.812 -3.43,2.935c-0.976,1.125 -1.786,2.327 -2.435,3.404c-0.649,1.077 -1.136,2.028 -1.466,2.648c-0.364,0.685 -0.57,1.198 -0.598,1.586c-0.029,0.387 0.12,0.647 0.464,0.824c0.344,0.177 0.884,0.271 1.638,0.328c0.753,0.057 1.721,0.074 2.92,0.097c1.198,0.021 2.609,0.105 4.051,0.223c1.442,0.119 2.915,0.274 4.237,0.44c1.323,0.166 2.498,0.343 3.342,0.507c0.844,0.163 1.358,0.313 1.361,0.424c0.004,0.111 -0.041,0.288 -0.172,0.539c-0.13,0.252 -0.346,0.578 -0.685,0.988c-0.337,0.41 -0.796,0.902 -1.414,1.486c-0.618,0.585 -1.393,1.261 -2.365,2.039c-0.583,-0.671 -1.252,-1.208 -1.989,-1.634c-0.738,-0.426 -1.544,-0.743 -2.4,-0.975c-0.855,-0.233 -1.763,-0.382 -2.702,-0.473c-0.939,-0.091 -1.912,-0.123 -2.899,-0.123c-0.088,-0 -0.177,-0 -0.266,0c-0.09,0.001 -0.178,0.001 -0.267,0.003c-0.09,0.001 -0.178,0.002 -0.268,0.003c-0.089,0.001 -0.178,0.003 -0.269,0.005c-1.084,0.024 -1.898,0.063 -2.512,0.183c-0.615,0.119 -1.031,0.318 -1.321,0.662c-0.29,0.344 -0.454,0.831 -0.566,1.528c-0.111,0.696 -0.172,1.6 -0.251,2.777c-0.087,5.741 0.523,10.82 1.668,15.313c1.147,4.501 2.832,8.409 4.891,11.801c2.062,3.397 4.5,6.275 7.149,8.71c2.651,2.439 5.514,4.433 8.424,6.061c-1.035,-0.158 -2.569,-0.435 -4.443,-1.012c-1.875,-0.576 -4.088,-1.452 -6.477,-2.808c-2.388,-1.355 -4.952,-3.188 -7.529,-5.68c-2.573,-2.488 -5.159,-5.632 -7.594,-9.606c-2.428,-3.968 -3.966,-8.114 -4.865,-12.182c-0.898,-4.06 -1.162,-8.042 -1.042,-11.693c0.118,-3.646 0.62,-6.961 1.25,-9.697c0.63,-2.732 1.391,-4.885 2.032,-6.21c0.641,-1.322 1.117,-2.479 1.429,-3.493c0.311,-1.013 0.459,-1.886 0.444,-2.639c-0.015,-0.752 -0.193,-1.388 -0.534,-1.927c-0.339,-0.54 -0.842,-0.985 -1.505,-1.359c0.127,-0.034 0.263,-0.065 0.409,-0.092c0.146,-0.027 0.302,-0.049 0.473,-0.068c0.17,-0.019 0.354,-0.032 0.554,-0.042c0.199,-0.011 0.416,-0.016 0.652,-0.016Z" style="fill:#fff;fill-rule:nonzero;"/></g><g><path d="M383.228,10.983c8.328,0 14.624,3.315 18.889,9.944l-0,1c-0,1.032 -1.316,2.348 -3.948,3.947l-1,0c0,-4.764 -2.315,-8.395 -6.945,-10.893l-4.998,-0c-6.629,1.799 -9.944,4.114 -9.944,6.946l0,3.947c0,1.866 9.278,15.791 27.834,41.776l-0,1.949c-5.663,8.628 -14.275,12.942 -25.835,12.942c-17.223,-2.865 -25.835,-7.829 -25.835,-14.891c0.733,-0 3.382,-1.999 7.946,-5.997l1.999,0c-0,10.627 5.296,15.941 15.89,15.941c5.53,-0 8.845,-3.315 9.944,-9.944c0,-2.532 -9.611,-17.107 -28.833,-43.725l0,-1.998c6.996,-7.296 15.275,-10.944 24.836,-10.944Z" style="fill:#fff;fill-rule:nonzero;"/><path d="M423.254,82.541c-10.827,-9.095 -16.24,-14.058 -16.24,-14.891c3.997,-4.198 5.996,-8.512 5.996,-12.943l0,-31.781c0,-4.131 -1.432,-7.779 -4.297,-10.944l-0,-0.999l20.488,0l-0,0.999l-4.248,5.947l0,64.612l-1.699,-0Z" style="fill:#fff;fill-rule:nonzero;"/><path d="M469.227,4.787l11.243,-0l-1.099,13.542l0,64.212l-3.398,-0c0,-2.265 -10.51,-14.292 -31.531,-36.079l-2.249,0c-1.532,0.233 -2.299,0.983 -2.299,2.249l0,22.537c0,1.898 0.767,5.28 2.299,10.144l-2.299,1.149l-6.746,-0c-1.499,-0 -2.248,-0.75 -2.248,-2.249c1.499,-2.465 2.248,-4.714 2.248,-6.746l0,-60.864c0.233,-1.499 0.983,-2.249 2.249,-2.249c21.621,23.287 33.647,34.93 36.079,34.93l2.248,-4.498c-0.766,-22.553 -2.265,-33.83 -4.497,-33.83l0,-2.248Z" style="fill:#fff;fill-rule:nonzero;"/><path d="M523.645,10.983c8.395,1.366 13.509,2.732 15.341,4.098c-1.366,5.097 -2.049,8.162 -2.049,9.194l-0.999,0c-3.831,-3.098 -7.929,-4.647 -12.293,-4.647l-2.049,-0c-10.893,-0 -17.706,6.663 -20.438,19.988l0,10.194c0,11.36 7.846,18.856 23.536,22.487l2.049,-0c0.966,-0 1.982,-1.016 3.048,-3.048l0,-9.195c0,-4.364 -3.214,-9.794 -9.644,-16.29l2.049,-1l18.389,0c1.366,0.2 2.049,0.883 2.049,2.049c-1.066,5.164 -1.599,8.878 -1.599,11.144l-0,20.438c-0,4.097 -2.732,6.146 -8.195,6.146c-23.187,-0 -38.861,-9.195 -47.023,-27.584c-0.666,-3.698 -0.999,-6.763 -0.999,-9.194c-0,-22.754 12.942,-34.347 38.827,-34.78Z" style="fill:#fff;fill-rule:nonzero;"/><path d="M579.862,10.983c7.196,1.366 11.576,2.732 13.142,4.098c-1.166,5.097 -1.749,8.162 -1.749,9.194l-0.899,0c-3.265,-4.097 -6.763,-6.146 -10.494,-6.146l-1.749,-0c-9.328,-0 -15.175,7.162 -17.54,21.487l0,2.049l21.887,0c5.864,-0.5 8.795,-2.548 8.795,-6.146l1.749,-0l0,0.999c0,8.861 -2.332,13.292 -6.996,13.292l-25.435,0c0,11.36 6.713,18.856 20.138,22.487l5.297,-0c3.631,-1.532 7.712,-7.312 12.243,-17.34l1.749,0l0,1c-3.665,17.056 -6.296,25.585 -7.895,25.585c-0.966,0.666 -2.416,0.999 -4.348,0.999c-19.888,-0 -33.314,-9.195 -40.276,-27.584c-0.6,-3.698 -0.9,-6.763 -0.9,-9.194c0,-18.423 11.094,-30.016 33.281,-34.78Z" style="fill:#fff;fill-rule:nonzero;"/></g></g></svg>