<svg clip-rule="evenodd" fill-rule="evenodd" stroke-linejoin="round" stroke-miterlimit="2" viewBox="0 0 600 254" xmlns="http://www.w3.org/2000/svg"><g fill="#fff"><g fill-rule="nonzero"><path d="m127.682 27.486c.545 1.95 1.427 5.15 2.188 9.415.762 4.269 1.401 9.604 1.455 15.821.054 6.225-.48 13.336-2.07 21.143-1.592 7.82-4.243 16.342-8.423 25.377-4.132 8.936-10.012 17.162-17.275 24.48-7.276 7.329-15.937 13.742-25.615 19.038-9.691 5.303-20.396 9.483-31.745 12.339-11.355 2.856-23.347 4.385-35.598 4.385h-.499c-.167-.001-.333-.001-.498-.003-.168-.001-.333-.002-.499-.004-.166-.001-.333-.003-.5-.006 1.993-1.421 3.6-2.633 4.868-3.978 1.268-1.343 2.2-2.818 2.846-4.762s1.005-4.356 1.129-7.577c.125-3.217.015-7.24-.28-12.402-.295-5.159-.652-12.509-1.046-20.809-.392-8.281-.822-17.503-1.258-26.431-.436-8.91-.88-17.53-1.305-24.641-.423-7.1-.83-12.702-1.193-15.596-.307-2.464-.678-4.608-1.15-6.438s-1.043-3.346-1.75-4.556c-.708-1.209-1.553-2.11-2.571-2.709-1.019-.6-2.212-.897-3.615-.897-.246 0-.498.008-.758.028-.259.019-.525.046-.797.082-.274.037-.554.083-.84.138-.288.055-.581.117-.883.191 8.257-6.37 15.512-11.35 22.071-15.236 6.552-3.883 12.411-6.679 17.877-8.681 5.463-2 10.536-3.209 15.516-3.916 4.98-.708 9.868-.915 14.965-.915 1.595 0 3.211.02 4.856.052 1.647.032 3.321.076 5.034.121s3.467.095 5.266.136c1.8.041 3.647.076 5.55.096 7.979.081 14.293.907 19.278 2.113 4.989 1.205 8.648 2.791 11.322 4.387 2.673 1.597 4.358 3.205 5.392 4.455 1.034 1.249 1.417 2.141 1.486 2.302-.803.689-1.401 1.387-1.809 2.169-.409.782-.629 1.649-.681 2.671-.053 1.024.065 2.204.331 3.616s.683 3.054 1.228 5.002zm-31.704 77.052c3.387-6.239 5.726-12.842 7.214-19.534 1.486-6.683 2.124-13.454 2.107-20.047-.017-6.582-.686-12.986-1.814-18.943-1.125-5.951-2.709-11.458-4.556-16.258-1.58-4.103-3.393-7.362-5.424-9.943-2.029-2.58-4.276-4.483-6.725-5.874-2.45-1.39-5.101-2.27-7.94-2.801s-5.867-.716-9.066-.716c-.537 0-1.08.006-1.626.016-.547.01-1.1.024-1.655.041-.557.018-1.12.038-1.685.062s-1.136.051-1.711.081c-7.786.394-13.474 2.219-17.627 4.96-4.156 2.743-6.776 6.404-8.415 10.466-1.642 4.065-2.303 8.532-2.541 12.882-.238 4.352-.051 8.587.002 12.178.056 3.596.412 11.203.919 20.671.509 9.491 1.171 20.86 1.835 31.935.666 11.105 1.335 21.912 1.856 30.216.52 8.319.891 14.118.959 15.173 5.215-.419 9.969-.963 14.505-2.159 4.537-1.196 8.854-3.043 13.195-6.068 4.339-3.023 8.7-7.22 13.325-13.112 4.619-5.886 9.495-13.457 14.868-23.226"/><path d="m195.056 151.274c.091-.04.596-.259 1.304-.707.708-.449 1.621-1.128 2.53-2.091.91-.961 1.815-2.205 2.511-3.782s1.18-3.488 1.248-5.782c.068-2.291.096-7.579.098-14.277.001-6.685-.023-14.772-.06-22.684-.035-7.897-.085-15.62-.131-21.61-.047-5.982-.093-10.241-.122-11.224-.396-.011-.798-.02-1.209-.028-.411-.007-.829-.014-1.254-.019-.425-.004-.857-.008-1.295-.011-.437-.003-.882-.003-1.33-.003-3.127 0-6.509.057-9.899.143-3.389.087-6.787.204-9.939.326s-6.061.248-8.475.353-4.334.187-5.509.222c-1.181 2.994-3.175 7.542-4.964 13.345-1.792 5.812-3.382 12.884-3.749 20.92-.368 8.053.492 17.074 3.606 26.765 3.121 9.712 8.508 20.101 17.197 30.858-3.171-.502-6.448-2.273-9.667-4.893-3.217-2.619-6.373-6.085-9.301-9.981-2.926-3.893-5.626-8.216-7.936-12.551-2.306-4.331-4.222-8.675-5.585-12.621-1.361-3.946-2.483-8.186-3.295-12.639-.812-4.447-1.312-9.103-1.432-13.883-.119-4.775.141-9.673.855-14.609.713-4.93 1.876-9.899 3.562-14.821 1.681-4.913 3.325-8.523 4.87-11.31 1.541-2.785 2.983-4.75 4.256-6.373 1.272-1.622 2.376-2.901 3.244-4.315.869-1.414 1.501-2.963 1.829-5.122.328-2.156.068-3.774-.513-4.987-.58-1.213-1.482-2.02-2.436-2.559-.955-.538-1.966-.807-2.763-.942-.798-.134-1.383-.134-1.489-.134 7.519-.488 15.64-.965 23.66-1.412 8.021-.446 15.94-.862 23.057-1.228 7.116-.366 13.428-.68 18.233-.924 4.804-.242 8.101-.413 9.187-.494.049-.003.095-.007.142-.01s.092-.004.138-.007c.045-.002.089-.003.133-.004.044-.002.088-.002.129-.002.921 0 1.535.208 1.901.546.364.337.48.803.398 1.317-.082.515-.358 1.078-.773 1.61-.418.531-.975 1.033-1.618 1.421-.672.408-1.147.875-1.48 1.418-.332.543-.527 1.163-.636 1.874-.11.712-.139 1.513-.141 2.424s.019 1.929.01 3.071c-.01 1.14-.068 7.4-.149 16.269-.081 8.887-.187 20.406-.293 32.028-.107 11.654-.214 23.412-.299 32.706-.087 9.314-.148 16.145-.165 17.893-.017 1.751.19 3.356.575 4.791.386 1.436.95 2.698 1.65 3.763.7 1.066 1.531 1.933 2.455 2.576.922.643 1.935 1.063 2.994 1.23-3.557 0-7.389.01-11.153.025-3.765.016-7.461.034-10.744.056-3.281.019-6.15.039-8.26.055-2.112.02-3.462.031-3.708.034zm7.723-97.72c.054-1.101.132-2.407.203-3.776s.135-2.802.162-4.158c.026-1.356.015-2.634-.063-3.695-.078-1.063-.225-1.907-.47-2.396-.248-.497-.551-.989-.924-1.448-.374-.459-.817-.886-1.346-1.248-.53-.363-1.143-.665-1.859-.876-.715-.211-1.531-.33-2.462-.33-.361 0-.74.018-1.138.057-.396.038-.812.095-1.247.174-.435.078-.888.179-1.361.302s-.968.269-1.482.44c-1.846.61-3.59 1.37-5.347 2.43-1.757 1.061-3.525 2.42-5.419 4.222-1.896 1.804-3.919 4.052-6.185 6.893-2.266 2.842-4.776 6.276-7.643 10.45.846.024 1.72.044 2.617.061s1.816.031 2.75.043c.933.009 1.883.018 2.838.024.956.004 1.918.007 2.881.007 2.325 0 4.649-.014 6.866-.04 2.216-.025 4.325-.061 6.223-.103 1.895-.043 3.58-.092 4.946-.146 1.365-.054 2.412-.111 3.036-.169.878-.083 1.581-.269 2.143-.569.563-.301.986-.716 1.307-1.259.32-.542.537-1.212.687-2.024.149-.812.234-1.763.287-2.866"/><path d="m267.11 77.32c7.124-4.433 13.077-8.403 18.078-12.007 4.995-3.601 9.041-6.839 12.353-9.814 3.313-2.974 5.891-5.684 7.956-8.234 2.064-2.548 3.614-4.932 4.868-7.256-1.054-1.536-2.128-2.996-3.297-4.322-1.169-1.327-2.433-2.518-3.865-3.517-1.431-.999-3.032-1.806-4.874-2.365-1.842-.558-3.927-.865-6.33-.865-.465 0-.942.011-1.431.034-.49.024-.99.059-1.506.106s-1.043.108-1.584.181-1.095.159-1.665.258c-3.505.608-6.697 1.537-9.516 2.76-2.818 1.223-5.265 2.742-7.274 4.527-2.011 1.786-3.585 3.841-4.659 6.137-1.075 2.298-1.649 4.839-1.661 7.593-.013 2.757-.027 9.536-.042 18.173-.015 8.654-.031 19.179-.045 29.389-.014 10.234-.027 20.149-.035 27.528-.009 7.393-.016 12.231-.016 12.285-.006 1.249.037 2.298.234 3.248.194.951.54 1.804 1.14 2.667.601.863 1.453 1.733 2.664 2.716s2.777 2.081 4.803 3.397h-35.477c.577-.059 1.29-.205 2.038-.53.746-.324 1.527-.827 2.235-1.602.71-.774 1.349-1.821 1.815-3.23.465-1.41.756-3.184.773-5.414.019-2.999.014-9.368-.03-17.385-.046-8.004-.131-17.645-.271-27.217-.14-9.55-.334-19.036-.599-26.769-.265-7.72-.599-13.7-1.02-16.276-.424-2.573-.928-4.471-1.501-5.875-.569-1.404-1.208-2.315-1.892-2.912-.686-.596-1.42-.879-2.188-1.027-.766-.149-1.566-.163-2.382-.221 7.474-4.13 14.105-7.445 20.107-10.094 6.001-2.648 11.376-4.633 16.346-6.103 4.969-1.469 9.532-2.422 13.906-3.009 4.373-.586 8.56-.806 12.774-.806h.449c.148 0 .3.001.449.003.149 0 .299.001.448.003.15.001.301.003.45.005 4.375.06 8.329.454 12.003 1.22 3.674.768 7.067 1.909 10.323 3.461 3.256 1.553 6.374 3.518 9.495 5.934 3.124 2.417 6.252 5.285 9.527 8.642-5.991 6.545-12.258 11.795-18.603 16.068-6.348 4.278-12.769 7.572-19.053 10.2-6.288 2.629-12.435 4.592-18.238 6.204-5.809 1.618-11.268 2.88-16.18 4.111z"/><path d="m338.525 24.232 41.53 1.959c-1.785.731-3.3 1.502-4.565 2.308-1.264.806-2.277 1.649-3.063 2.522-.786.874-1.34 1.778-1.687 2.709-.349.931-.488 1.889-.438 2.868.05.976.075 2.744.088 4.859.011 2.117.007 4.583-.003 6.955-.01 2.375-.027 4.654-.041 6.396-.016 1.742-.027 2.945-.03 3.163h37.165c.002-.164.015-1.062.02-2.418.006-1.355.003-3.162-.022-5.143-.026-1.979-.076-4.132-.165-6.176-.089-2.042-.219-3.977-.408-5.523-.187-1.548-.642-2.883-1.286-4.035-.642-1.151-1.475-2.123-2.413-2.948-.938-.823-1.982-1.499-3.055-2.059-1.074-.561-2.172-1.005-3.217-1.37 5.381.04 10.388.128 14.885.238 4.496.111 8.483.243 11.824.372s6.033.255 7.941.351c1.909.096 3.036.163 3.24.176-1.195 1.016-2.193 1.859-3.039 2.836-.847.978-1.538 2.093-2.122 3.65-.581 1.557-1.053 3.557-1.455 6.31-.404 2.754-.738 6.264-1.048 10.837-.306 4.578-.69 11.711-1.096 19.964-.406 8.269-.835 17.667-1.228 26.746-.392 9.097-.749 17.872-1.012 24.858-.263 6.996-.43 12.191-.443 14.11-.014 1.918.105 3.598.354 5.066.25 1.469.625 2.727 1.129 3.804.502 1.077 1.128 1.97 1.873 2.709.747.74 1.614 1.326 2.593 1.787-4.569-.041-9.042-.084-13.194-.122-4.153-.04-7.984-.077-11.274-.108-3.287-.032-6.033-.059-8.009-.079-1.978-.021-3.189-.031-3.407-.034.129-.01.837-.067 1.839-.335 1.003-.266 2.296-.745 3.597-1.599 1.3-.854 2.607-2.081 3.631-3.848s1.767-4.071 1.943-7.074c.174-3 .423-8.798.697-15.846.273-7.034.575-15.311.857-23.29.282-7.967.545-15.64.741-21.501.2-5.853.331-9.904.357-10.64-4.989.083-9.763.147-14.136.194-4.372.046-8.34.079-11.711.099-3.373.021-6.149.031-8.135.037-1.986.004-3.185.004-3.403.004-.035.822-.241 5.345-.52 11.776-.282 6.438-.638 14.796-.979 23.26-.34 8.481-.666 17.073-.883 23.948-.215 6.884-.324 12.041-.226 13.626.095 1.584.284 2.991.575 4.232.287 1.241.678 2.318 1.172 3.236.493.918 1.092 1.682 1.8 2.298.71.617 1.529 1.087 2.463 1.42h-34.865c.094-.001.618-.014 1.359-.235.741-.223 1.699-.656 2.665-1.502s1.937-2.101 2.706-3.973c.769-1.868 1.333-4.349 1.486-7.643s.451-10.494.792-19.594c.337-9.081.719-20.045 1.035-30.905.315-10.831.566-21.558.654-30.22.086-8.645.007-15.242-.341-17.85-.352-2.606-1.013-4.824-1.844-6.7-.828-1.875-1.827-3.409-2.856-4.647-1.027-1.24-2.084-2.185-3.03-2.881-.944-.69-1.778-1.139-2.362-1.385z"/><path d="m455.451 29.405c.392 0 .798.036 1.213.113.418.075.85.188 1.298.338.447.152.913.342 1.397.569.485.228.99.494 1.518.8 2.111 1.219 5.476 3.12 9.477 5.564 4.001 2.445 8.638 5.435 13.287 8.828 4.653 3.396 9.318 7.2 13.372 11.269 4.056 4.073 7.501 8.413 9.707 12.879.247-5.248.302-9.803.163-13.729-.139-3.923-.47-7.22-.999-9.953-.525-2.732-1.246-4.901-2.163-6.57-.915-1.669-2.03-2.839-3.339-3.571.6-.009 1.195-.016 1.782-.022.588-.005 1.167-.01 1.741-.014s1.138-.006 1.693-.008c.556-.002 1.101-.002 1.638-.002 2.148 0 4.12.013 5.877.03 1.755.018 3.294.044 4.575.068 1.281.026 2.302.051 3.022.069.721.02 1.14.034 1.215.037-1.762 1.18-3.087 2.015-4.083 2.817-.997.802-1.666 1.57-2.119 2.619-.454 1.05-.693 2.381-.828 4.306-.136 1.926-.165 4.449-.207 7.882-.035 3.433-.107 7.973-.249 13.16-.142 5.194-.35 11.036-.662 17.06-.31 6.033-.722 12.251-1.269 18.181-.547 5.941-1.227 11.594-2.077 16.488-.85 4.9-2.253 9.607-3.993 14.006-1.742 4.401-3.821 8.491-6.018 12.152-2.198 3.664-4.514 6.897-6.727 9.582-2.214 2.686-4.327 4.818-6.113 6.286 3.495-6.656 6.402-12.874 8.726-18.731 2.322-5.849 4.062-11.339 5.226-16.546 1.163-5.202 1.751-10.123 1.771-14.838.02-4.709-.528-9.216-1.641-13.594-1.112-4.374-3.519-8.947-6.627-13.396-3.102-4.441-6.901-8.757-10.803-12.616-3.898-3.855-7.897-7.257-11.408-9.878-3.508-2.62-6.526-4.46-8.467-5.195-.633-.24-1.217-.466-1.76-.668-.542-.202-1.042-.382-1.503-.531-.46-.15-.883-.269-1.268-.351-.387-.082-.738-.128-1.06-.128-.66 0-1.188.19-1.622.636-.435.445-.772 1.146-1.048 2.168-.277 1.021-.495 2.363-.686 4.09-.193 1.729-.36 3.844-.537 6.41-.268 3.815-.642 9.933-1.051 17.038-.411 7.115-.86 15.225-1.278 22.997-.421 7.789-.809 15.238-1.1 21.004-.29 5.775-.483 9.86-.504 10.904-.026 1.041.102 2.25.363 3.509.26 1.261.653 2.569 1.161 3.812.509 1.242 1.134 2.417 1.855 3.405.723.991 1.541 1.797 2.441 2.297-2.413-.082-5.231-.254-8.114-.465-2.88-.211-5.826-.464-8.496-.709-2.67-.246-5.064-.484-6.843-.666-1.781-.182-2.946-.309-3.158-.33 1.856-.251 3.52-.618 4.987-1.189 1.465-.572 2.733-1.35 3.795-2.427 1.061-1.075 1.917-2.448 2.56-4.209.642-1.761 1.072-3.909 1.281-6.535.208-2.625.591-8.802 1.043-16.677.452-7.859.975-17.401 1.466-26.781.493-9.359.952-18.562 1.284-25.783.33-7.21.533-12.453.507-13.924-.027-1.474-.099-2.689-.278-3.688s-.466-1.778-.915-2.38c-.45-.602-1.064-1.026-1.901-1.309-.836-.284-1.896-.427-3.235-.471 1.713-2.536 3.194-4.771 4.527-6.7 1.33-1.927 2.515-3.546 3.631-4.849 1.118-1.302 2.166-2.289 3.23-2.95 1.066-.655 2.146-.99 3.32-.99z"/><path d="m533.02 37.496c.947 0 2.06.042 3.393.132 1.334.089 2.885.228 4.711.416 1.825.19 3.923.432 6.346.731 2.426.299 5.174.656 8.304 1.076 4.289.573 8.309 1.076 12.014 1.507 3.704.431 7.093.789 10.118 1.075 3.024.287 5.685.502 7.935.645 2.251.143 4.09.214 5.469.214h.266c.089 0 .173-.002.257-.003.083-.001.164-.003.243-.004.08-.002.155-.004.23-.007.792-.029 1.527-.109 2.206-.213.678-.103 1.298-.234 1.857-.358.56-.125 1.057-.247 1.492-.336.436-.091.806-.149 1.111-.149.161 0 .306.017.429.054.125.037.23.095.316.177.086.084.152.19.2.326s.075.3.082.5c.02.57-.248 1.272-.768 2.213-.521.941-1.295 2.118-2.285 3.638-.992 1.521-2.203 3.384-3.596 5.695-1.394 2.31-2.974 5.07-4.7 8.384-.012-.156-.076-1.01-.398-2.261-.321-1.251-.901-2.897-1.941-4.636-1.041-1.738-2.544-3.569-4.713-5.19-2.169-1.619-5.004-3.03-8.712-3.927-.35-.085-.696-.159-1.039-.221-.342-.062-.681-.113-1.017-.154s-.669-.071-.996-.091-.652-.03-.973-.03c-3.082 0-5.833.897-8.267 2.315-2.434 1.419-4.551 3.358-6.359 5.441-1.809 2.084-3.311 4.312-4.512 6.309-1.203 1.996-2.106 3.758-2.718 4.907-.675 1.27-1.057 2.222-1.109 2.94-.052.717.224 1.199.861 1.528.638.328 1.638.503 3.035.607 1.397.105 3.191.138 5.412.18 2.222.04 4.837.194 7.509.414 2.672.221 5.403.507 7.854.815 2.452.307 4.63.636 6.194.939s2.517.581 2.523.786c.007.206-.076.535-.319 1.001-.242.466-.641 1.071-1.269 1.83-.625.76-1.476 1.672-2.623 2.754-1.144 1.084-2.581 2.338-4.382 3.779-1.081-1.244-2.32-2.239-3.688-3.028-1.367-.789-2.86-1.377-4.447-1.808-1.585-.432-3.267-.708-5.008-.875-1.742-.169-3.544-.23-5.373-.23-.164 0-.328 0-.494.002-.166.001-.329.001-.495.004-.165.003-.33.004-.497.007-.164.002-.33.006-.497.009-2.011.044-3.518.117-4.657.338s-1.91.591-2.448 1.229c-.537.637-.842 1.54-1.049 2.83-.207 1.291-.319 2.966-.466 5.147-.16 10.642.969 20.057 3.091 28.383 2.127 8.342 5.25 15.586 9.066 21.874 3.822 6.296 8.341 11.63 13.25 16.144 4.915 4.52 10.221 8.216 15.615 11.234-1.919-.293-4.762-.806-8.236-1.876-3.474-1.068-7.576-2.692-12.005-5.205-4.426-2.511-9.177-5.91-13.953-10.527-4.771-4.613-9.562-10.439-14.076-17.805-4.501-7.354-7.351-15.039-9.018-22.579-1.665-7.526-2.154-14.906-1.931-21.674.219-6.757 1.149-12.901 2.318-17.972 1.167-5.064 2.577-9.055 3.765-11.51 1.188-2.451 2.07-4.595 2.648-6.475.577-1.879.852-3.495.824-4.891-.029-1.395-.359-2.573-.989-3.573-.629-1-1.562-1.825-2.791-2.517.236-.064.487-.122.758-.172.27-.049.561-.091.877-.126.316-.034.656-.059 1.027-.078.37-.02.77-.028 1.208-.028z"/></g><path d="m102.492 164.504h24.543l-8.791 51.649h-23.81z"/><path d="m92.967 223.847h24.176l-.732 5.86h20.147l-2.93 20.881h-45.057z"/><path d="m407.99 168.9h22.344l-2.198 14.654h-22.346z"/><path d="m404.875 189.779h22.344l-4.027 27.106h-22.346z"/><path d="m399.748 223.847h22.344l-4.029 26.741h-22.346z"/><path d="m297.549 223.847h22.344l-4.03 26.741h-22.343z"/><path d="m160.915 223.847c-.188 1.73-.318 3.931-.123 5.909.265 2.413 1.202 4.342 3.493 4.342 3.016 0 4.833-2.653 5.875-5.79.59-1.627 1.011-2.98 1.317-4.518l20.821-.055-4.242 26.927h-18.512l1.087-5.364c-4.586 5.838-8.26 7.241-15.978 7.241-14.743 0-17.098-16.354-16.164-28.685l22.426-.008"/><path d="m172.405 216.886c.015-1.534-.004-2.441-.078-3.517-.215-2.774-1.083-5.185-3.858-5.185-2.895 0-4.627 2.894-5.838 6.392-.174.545-.326 1.069-1.006 2.304l-22.62-.018c3.004-12.893 9.762-27.978 24.485-28.281 4.021-.083 11.529.465 14.467 6.21l.641.123.95-5.19h18.142l-4.179 27.161z"/><path d="m199.014 216.885c-1.351-2.696-1.916-5.924-1.379-9.766 1.838-13.148 11.721-19.821 26.557-19.821 6.393 0 10.837 1.5 15.946 4.638l-2.433 16.881c-3.71-3.103-10.429-4.753-14.409-4.753-1.689 0-3.786.398-4.303 2.403-.75 2.909 2.509 4.51 6.474 5.909 3.277 1.158 6.065 2.596 8.288 4.483z"/><path d="m238.823 223.905c1.009 2.768 1.311 6.099.819 9.615-2.007 14.354-14.323 19.75-27.47 19.75-8.684 0-12.338-1.617-19.243-5.718l3.088-18.892c2.352 3.016 10.321 7.823 15.654 7.55 2.049-.105 6.184-1.515 6.504-3.807.32-2.291-.664-3.978-5.809-5.615-2.408-.766-4.696-1.573-6.722-2.821z"/><path d="m263.28 223.857c-.889 5.387-1.092 13.842 3.817 14.44 3.162.385 6.459-2.18 7.458-8.676h19.861c-3.461 20.415-15.425 24.12-29.658 24.016-15.506-.113-24.79-12.737-23.651-29.806l22.173.025"/><path d="m471.712 216.885c2.914-16.005 10.711-29.077 33.004-29.586 4.373-.099 7.853 1.382 9.672 2.438l-2.883 17.33c-8.846-3.587-13.658 3.455-15.356 9.842z"/><path d="m495.638 223.859c.596 3.987 2.891 7.706 7.366 7.706l4.865-.367-2.835 19.393c-3.455.911-6.75 1.46-11.223 1.398-17.018-.238-23.994-12.754-23.003-28.154z"/><path d="m369.91 223.857c-2.665 4.315-5.328 7.498-11.37 6.949l1.044-6.967-23.534.013-4.252 26.734h23.81c19.703 0 33.227-8.621 39.859-26.791l-25.557.061"/><path d="m360.469 216.902 4.664-30.05c9.522 0 11.719 7.324 9.89 20.512-.458 3.295-1.098 6.776-1.958 9.592l24.774.026c.896-3.709 1.291-7.828 1.725-12.182 3.298-32.968-14.651-40.295-32.6-40.295h-22.346l-3.114 23.444c-3.663.732-12.637 1.832-17.398 8.243-.916.913-1.466.55-1.282-.55l.916-5.861h-21.063l-4.029 27.106h22.344c.916-3.846 10.991-9.523 17.215-6.594l-1.044 6.573 23.305.036"/><path d="m428.321 216.885c-1.352-2.696-1.917-5.924-1.379-9.766 1.837-13.148 11.72-19.821 26.557-19.821 6.392 0 10.838 1.5 15.948 4.638l-2.435 16.881c-3.712-3.103-10.428-4.753-14.409-4.753-1.689 0-3.787.398-4.303 2.403-.751 2.909 2.51 4.51 6.474 5.909 3.275 1.158 6.064 2.596 8.288 4.483z"/><path d="m468.132 223.905c1.008 2.768 1.308 6.099.816 9.615-2.004 14.354-14.322 19.75-27.468 19.75-8.684 0-12.337-1.617-19.242-5.718l3.086-18.892c2.353 3.016 10.322 7.823 15.655 7.55 2.049-.105 6.183-1.515 6.505-3.807.32-2.291-.666-3.978-5.81-5.615-2.411-.766-4.696-1.573-6.724-2.821z"/><path d="m272.253 187.298c-17.929.121-26.751 12.703-30.233 29.58l54.133.011c.6-7.828.316-15.412-2.049-18.852-4.127-6.004-9.559-10.821-21.851-10.738zm.35 14.135c4.221 0 4.908 4.582 4.539 8.08h-10.976c.335-3.255 2.456-8.08 6.437-8.08"/></g></svg>