<svg clip-rule="evenodd" fill-rule="evenodd" stroke-linejoin="round" stroke-miterlimit="2" viewBox="0 0 600 160" xmlns="http://www.w3.org/2000/svg"><g fill="#fff"><g fill-rule="nonzero"><path d="m68.888 15.494c.293 1.052.769 2.778 1.18 5.079.411 2.303.756 5.182.785 8.536.029 3.359-.259 7.195-1.117 11.407-.859 4.22-2.289 8.817-4.544 13.692-2.23 4.821-5.402 9.259-9.32 13.207-3.926 3.954-8.599 7.415-13.821 10.272-5.228 2.861-11.004 5.116-17.127 6.657-6.126 1.541-12.596 2.366-19.206 2.366h-.269c-.09-.001-.179-.001-.269-.002-.09 0-.179-.001-.269-.002-.089-.001-.179-.001-.27-.003 1.076-.767 1.943-1.421 2.627-2.146s1.187-1.521 1.535-2.57c.349-1.048.542-2.35.61-4.088.067-1.735.007-3.906-.152-6.691-.159-2.783-.351-6.749-.564-11.227-.211-4.467-.443-9.443-.679-14.26-.235-4.807-.474-9.458-.704-13.294-.228-3.831-.447-6.853-.643-8.415-.166-1.329-.366-2.486-.621-3.473-.254-.988-.562-1.806-.944-2.458s-.838-1.139-1.387-1.462c-.55-.323-1.193-.484-1.95-.484-.133 0-.269.005-.409.015s-.284.025-.431.045-.298.044-.453.074-.313.063-.476.103c4.455-3.437 8.369-6.123 11.908-8.22 3.535-2.095 6.696-3.603 9.645-4.684 2.947-1.079 5.685-1.731 8.371-2.112 2.687-.383 5.324-.494 8.074-.494.861 0 1.733.011 2.62.028.888.017 1.792.041 2.716.065.924.025 1.871.051 2.841.074.971.022 1.968.041 2.994.051 4.306.044 7.712.49 10.402 1.14 2.691.651 4.665 1.506 6.108 2.368 1.442.861 2.351 1.729 2.909 2.403s.764 1.155.802 1.242c-.434.371-.756.748-.976 1.17-.221.422-.34.89-.368 1.441-.028.553.035 1.189.179 1.951s.368 1.648.663 2.699zm-17.106 41.571c1.828-3.366 3.09-6.928 3.892-10.539.802-3.606 1.146-7.259 1.137-10.816-.009-3.551-.37-7.006-.978-10.22-.607-3.211-1.462-6.182-2.459-8.772-.852-2.213-1.83-3.971-2.926-5.364-1.094-1.392-2.307-2.419-3.628-3.169-1.322-.75-2.752-1.225-4.284-1.511-1.532-.287-3.165-.386-4.891-.386-.29 0-.583.003-.878.008s-.593.013-.893.022c-.3.01-.603.021-.908.034s-.614.027-.924.043c-4.2.213-7.269 1.197-9.51 2.676-2.242 1.48-3.656 3.455-4.54 5.647-.886 2.193-1.242 4.603-1.371 6.95-.128 2.348-.027 4.633.001 6.571.031 1.94.223 6.044.496 11.152.275 5.121.632 11.254.99 17.229.359 5.992.72 11.822 1.001 16.303.281 4.488.481 7.617.518 8.186 2.814-.226 5.378-.52 7.826-1.165 2.447-.645 4.776-1.642 7.119-3.274 2.341-1.631 4.694-3.895 7.189-7.074 2.492-3.175 5.123-7.26 8.021-12.531"/><path d="m105.238 82.28c.048-.021.321-.14.703-.381.382-.243.874-.609 1.365-1.128s.979-1.19 1.354-2.041c.376-.85.637-1.882.674-3.119.037-1.236.052-4.09.053-7.703 0-3.607-.013-7.97-.032-12.239-.02-4.26-.046-8.427-.072-11.659-.025-3.227-.049-5.525-.065-6.055-.214-.006-.431-.011-.652-.016-.222-.003-.447-.007-.677-.01-.229-.002-.462-.004-.698-.006-.237-.001-.477-.001-.718-.001-1.687 0-3.512.03-5.341.077-1.828.047-3.661.11-5.362.176s-3.27.134-4.573.19c-1.302.057-2.338.101-2.972.12-.637 1.615-1.713 4.069-2.678 7.2-.967 3.136-1.825 6.951-2.023 11.287-.198 4.345.265 9.212 1.946 14.44 1.684 5.24 4.59 10.845 9.278 16.649-1.711-.271-3.479-1.227-5.216-2.64-1.736-1.413-3.438-3.283-5.018-5.385-1.578-2.101-3.035-4.433-4.281-6.772-1.245-2.337-2.278-4.68-3.013-6.809s-1.34-4.417-1.778-6.819c-.438-2.4-.708-4.911-.773-7.49-.064-2.576.076-5.219.461-7.882.385-2.66 1.013-5.341 1.922-7.996.907-2.651 1.794-4.599 2.627-6.102.832-1.503 1.61-2.563 2.297-3.439.686-.875 1.281-1.565 1.75-2.328s.81-1.598.987-2.763c.176-1.164.037-2.037-.277-2.691-.313-.654-.799-1.09-1.315-1.38-.515-.291-1.06-.436-1.49-.509-.431-.072-.746-.072-.804-.072 4.057-.263 8.439-.521 12.766-.762 4.327-.24 8.6-.465 12.44-.662 3.839-.198 7.244-.367 9.836-.499 2.593-.131 4.371-.223 4.958-.267.026-.001.051-.003.076-.005.025-.001.05-.002.074-.004.025-.001.048-.001.072-.002s.047-.001.07-.001c.496 0 .828.113 1.025.294.197.182.259.434.215.711-.044.278-.193.582-.417.869-.226.286-.526.557-.873.766-.362.221-.619.473-.798.766-.18.292-.285.627-.343 1.011-.06.384-.075.816-.077 1.308-.001.491.011 1.04.006 1.656-.006.615-.037 3.993-.081 8.778-.043 4.795-.101 11.009-.158 17.279-.057 6.288-.115 12.632-.161 17.646-.047 5.026-.08 8.711-.089 9.654-.009.945.102 1.811.31 2.585s.513 1.456.89 2.03c.378.575.826 1.043 1.325 1.39.497.347 1.044.573 1.615.663-1.919 0-3.986.006-6.017.014-2.031.009-4.026.019-5.797.03-1.77.011-3.318.021-4.456.03-1.14.011-1.868.017-2 .018zm4.166-52.722c.029-.594.071-1.299.11-2.037.038-.739.072-1.512.087-2.244.014-.731.008-1.421-.034-1.993-.042-.574-.121-1.029-.254-1.293-.133-.268-.297-.533-.498-.781-.202-.248-.441-.478-.726-.673-.286-.196-.617-.359-1.003-.473s-.826-.178-1.329-.178c-.195 0-.399.01-.613.031-.215.02-.438.051-.673.094-.235.042-.479.096-.735.162-.255.067-.522.146-.799.238-.996.329-1.937.739-2.885 1.311-.948.573-1.902 1.306-2.924 2.278-1.023.973-2.114 2.186-3.336 3.719-1.223 1.533-2.577 3.386-4.124 5.638.456.013.928.024 1.411.033.484.009.98.017 1.484.023.504.005 1.016.01 1.531.013.516.002 1.035.004 1.555.004 1.254 0 2.508-.008 3.704-.022s2.334-.033 3.357-.056 1.932-.049 2.669-.078 1.302-.06 1.638-.091c.474-.045.853-.146 1.157-.308.303-.162.532-.386.704-.678.173-.293.29-.655.371-1.093.08-.438.126-.951.155-1.546"/><path d="m144.112 42.381c3.844-2.392 7.056-4.534 9.754-6.479 2.694-1.943 4.877-3.689 6.665-5.295 1.787-1.604 3.178-3.066 4.292-4.442 1.113-1.375 1.95-2.661 2.626-3.915-.569-.828-1.148-1.616-1.779-2.332-.63-.715-1.312-1.358-2.085-1.897-.772-.539-1.636-.975-2.629-1.276-.994-.301-2.119-.467-3.416-.467-.25 0-.508.006-.772.018-.264.013-.534.033-.812.058-.279.025-.563.058-.855.098-.292.039-.591.085-.898.139-1.891.328-3.613.829-5.135 1.489-1.52.659-2.84 1.479-3.924 2.442-1.085.964-1.934 2.072-2.513 3.311-.58 1.24-.89 2.611-.897 4.097-.007 1.487-.014 5.145-.022 9.805-.008 4.668-.017 10.347-.024 15.855-.008 5.522-.015 10.871-.02 14.852-.004 3.989-.008 6.599-.008 6.628-.003.675.02 1.24.126 1.753.105.513.291.973.615 1.439.325.465.784.935 1.438 1.465.653.531 1.498 1.123 2.591 1.833h-19.141c.312-.032.696-.111 1.1-.286.402-.175.824-.446 1.206-.864.383-.418.728-.982.979-1.743s.407-1.718.417-2.921c.01-1.618.007-5.054-.016-9.38-.025-4.318-.071-9.519-.146-14.684-.076-5.152-.181-10.27-.324-14.442-.143-4.165-.323-7.392-.55-8.781-.229-1.388-.501-2.413-.81-3.17-.307-.758-.652-1.249-1.021-1.571-.37-.322-.766-.475-1.18-.554-.414-.081-.845-.088-1.285-.12 4.032-2.228 7.61-4.016 10.848-5.446 3.237-1.428 6.138-2.499 8.819-3.292s5.143-1.307 7.503-1.624c2.359-.316 4.618-.435 6.891-.435h.243c.08 0 .162.001.242.002.08 0 .161.001.241.002.081 0 .163.001.244.003 2.36.032 4.493.244 6.475.658 1.983.414 3.813 1.029 5.57 1.867 1.756.838 3.439 1.898 5.123 3.201 1.685 1.304 3.373 2.852 5.14 4.663-3.232 3.531-6.614 6.364-10.037 8.669-3.425 2.308-6.889 4.085-10.279 5.503-3.393 1.419-6.71 2.477-9.84 3.347-3.134.873-6.08 1.554-8.73 2.219z"/><path d="m182.642 13.738 22.407 1.057c-.963.395-1.781.81-2.463 1.245s-1.229.89-1.653 1.361c-.424.472-.723.959-.91 1.462-.188.502-.263 1.018-.236 1.547.026.526.04 1.48.047 2.622.006 1.142.004 2.472-.002 3.752-.005 1.281-.014 2.511-.022 3.45-.008.941-.014 1.59-.016 1.707h20.052c.001-.088.007-.573.01-1.305.004-.73.002-1.706-.012-2.774s-.04-2.229-.088-3.332c-.049-1.102-.119-2.146-.221-2.98-.1-.835-.346-1.555-.694-2.177-.346-.621-.795-1.146-1.301-1.591-.506-.444-1.07-.808-1.648-1.11-.58-.303-1.172-.543-1.736-.739 2.903.021 5.604.068 8.03.128s4.577.131 6.38.2c1.802.07 3.255.138 4.284.19 1.03.052 1.638.088 1.748.095-.645.548-1.183 1.003-1.639 1.53-.457.527-.83 1.129-1.145 1.969-.314.84-.568 1.919-.785 3.405-.218 1.486-.398 3.379-.566 5.846-.165 2.47-.372 6.319-.591 10.771-.219 4.461-.451 9.532-.662 14.431-.212 4.908-.405 9.642-.546 13.411-.142 3.774-.233 6.577-.239 7.612-.008 1.035.056 1.942.191 2.734.134.793.337 1.471.609 2.052.27.581.608 1.063 1.01 1.462.403.399.871.715 1.399.964-2.465-.022-4.878-.045-7.119-.066-2.24-.021-4.307-.041-6.082-.058-1.773-.018-3.255-.032-4.321-.043-1.067-.011-1.721-.017-1.838-.018.069-.006.451-.036.992-.181.541-.143 1.239-.402 1.941-.863.701-.461 1.406-1.123 1.959-2.076.552-.953.953-2.196 1.048-3.816.094-1.619.228-4.747.376-8.549.147-3.795.31-8.261.462-12.566.152-4.298.295-8.438.4-11.601.108-3.157.179-5.343.193-5.74-2.692.045-5.268.079-7.627.105-2.359.025-4.5.042-6.318.053-1.82.012-3.318.017-4.389.02-1.072.002-1.719.002-1.836.002-.019.444-.13 2.884-.281 6.354-.152 3.473-.344 7.982-.528 12.549-.183 4.576-.359 9.212-.476 12.92-.116 3.715-.175 6.497-.123 7.352s.154 1.614.311 2.284c.155.669.366 1.25.632 1.745.266.496.589.908.972 1.24.382.333.824.587 1.328.766h-18.81c.05-.001.333-.007.733-.127s.916-.354 1.438-.81c.521-.456 1.045-1.134 1.46-2.143s.719-2.347.802-4.124c.082-1.777.243-5.662.427-10.572.182-4.899.387-10.814.558-16.673.17-5.844.306-11.631.353-16.305.047-4.664.004-8.223-.184-9.63-.19-1.406-.547-2.603-.995-3.615-.447-1.011-.986-1.839-1.541-2.507-.554-.669-1.124-1.179-1.635-1.554-.509-.373-.959-.615-1.274-.748z"/><path d="m245.726 16.529c.212 0 .431.02.655.061.225.04.458.102.7.183s.493.184.754.306c.262.123.534.267.819.432 1.139.657 2.954 1.683 5.113 3.002s4.661 2.932 7.169 4.763c2.51 1.832 5.027 3.884 7.214 6.08 2.188 2.197 4.047 4.539 5.238 6.948.133-2.831.162-5.289.087-7.407-.074-2.117-.253-3.895-.538-5.37-.284-1.474-.673-2.644-1.168-3.544-.493-.901-1.095-1.532-1.801-1.927.324-.005.645-.009.961-.012.317-.003.63-.005.94-.007.309-.003.613-.003.913-.005.3-.001.594-.001.884-.001 1.159 0 2.223.007 3.17.016.948.01 1.778.024 2.469.037.691.014 1.242.028 1.63.037.389.011.615.019.656.02-.951.637-1.666 1.087-2.203 1.52-.538.433-.899.847-1.144 1.413-.244.567-.373 1.284-.446 2.323s-.089 2.4-.112 4.253c-.019 1.852-.058 4.302-.134 7.1-.077 2.802-.189 5.954-.357 9.204-.167 3.255-.39 6.61-.685 9.809-.295 3.206-.662 6.256-1.121 8.896-.458 2.644-1.215 5.183-2.154 7.556-.94 2.375-2.061 4.581-3.247 6.557-1.185 1.976-2.435 3.721-3.629 5.169-1.195 1.45-2.335 2.6-3.298 3.392 1.885-3.591 3.454-6.946 4.707-10.106 1.253-3.156 2.192-6.118 2.82-8.927.628-2.807.945-5.461.956-8.005.011-2.541-.285-4.973-.885-7.335-.6-2.359-1.899-4.827-3.576-7.227-1.673-2.396-3.724-4.725-5.829-6.807-2.103-2.08-4.26-3.915-6.155-5.329-1.892-1.413-3.52-2.406-4.568-2.803-.341-.129-.656-.252-.949-.36-.293-.109-.563-.207-.811-.287-.248-.081-.476-.145-.684-.189-.209-.045-.398-.069-.572-.069-.356 0-.641.102-.875.343-.235.24-.417.618-.566 1.17-.149.551-.266 1.275-.37 2.206-.104.933-.194 2.074-.289 3.458-.145 2.059-.347 5.36-.568 9.193-.221 3.839-.464 8.214-.689 12.408-.227 4.202-.437 8.221-.593 11.332-.157 3.115-.261 5.319-.272 5.882-.014.562.055 1.214.195 1.894.141.68.353 1.386.627 2.056.275.67.612 1.304 1.001 1.838.39.534.831.969 1.317 1.239-1.302-.045-2.822-.137-4.378-.251-1.554-.114-3.143-.251-4.584-.383-1.44-.132-2.732-.261-3.692-.359-.961-.098-1.589-.167-1.704-.178 1.002-.136 1.9-.334 2.691-.642.79-.308 1.474-.728 2.048-1.309.572-.58 1.034-1.321 1.381-2.271.346-.95.578-2.109.691-3.525.112-1.417.319-4.75.563-8.998.243-4.24.525-9.388.791-14.449.266-5.05.513-10.015.692-13.911.178-3.89.288-6.719.274-7.512-.015-.795-.054-1.451-.15-1.99-.097-.539-.251-.959-.494-1.284s-.574-.553-1.026-.706c-.451-.153-1.022-.23-1.745-.254.925-1.368 1.723-2.575 2.443-3.615.717-1.039 1.356-1.913 1.959-2.616s1.168-1.235 1.743-1.592c.574-.353 1.157-.534 1.79-.534z"/><path d="m287.577 20.894c.511 0 1.111.023 1.831.071.719.049 1.556.123 2.541.225.985.103 2.117.233 3.424.395 1.309.161 2.791.353 4.48.58 2.314.309 4.483.581 6.482.813 1.998.232 3.827.426 5.459.58 1.632.155 3.067.271 4.281.348 1.215.077 2.207.115 2.95.115h.144c.048 0 .093 0 .139-.001.045-.001.088-.002.131-.002.043-.001.083-.003.124-.004.427-.016.824-.059 1.19-.115s.7-.126 1.002-.193c.302-.068.57-.133.805-.181.235-.049.435-.081.599-.081.087 0 .165.009.232.029s.124.052.17.096c.047.045.082.102.108.176.026.073.041.162.044.27.011.307-.133.686-.414 1.193-.281.508-.698 1.143-1.233 1.963-.535.821-1.188 1.826-1.94 3.073-.752 1.246-1.604 2.735-2.535 4.523-.007-.084-.042-.545-.215-1.22-.174-.675-.486-1.563-1.047-2.501-.562-.938-1.373-1.925-2.543-2.8-1.171-.874-2.7-1.635-4.701-2.119-.188-.046-.375-.085-.56-.119s-.368-.061-.549-.083-.361-.038-.537-.049c-.177-.011-.352-.016-.525-.016-1.663 0-3.147.484-4.461 1.249-1.313.765-2.455 1.811-3.43 2.935-.976 1.124-1.786 2.327-2.435 3.404s-1.136 2.028-1.466 2.648c-.364.685-.57 1.198-.598 1.586-.029.387.12.646.464.824.344.177.884.271 1.638.328.753.056 1.721.074 2.92.097 1.198.021 2.609.105 4.051.223 1.442.119 2.915.274 4.237.44 1.323.165 2.498.343 3.342.506.844.164 1.358.314 1.361.425.004.11-.041.288-.172.539-.13.252-.346.578-.685.988-.337.41-.796.902-1.414 1.486-.618.585-1.393 1.261-2.365 2.038-.583-.671-1.252-1.207-1.989-1.633-.738-.426-1.544-.743-2.4-.975-.855-.234-1.763-.383-2.702-.473-.939-.091-1.912-.124-2.899-.124-.088 0-.177 0-.266.001-.09.001-.178.001-.267.002-.09.002-.178.003-.268.004-.089.001-.178.003-.269.005-1.084.024-1.898.063-2.512.183-.615.119-1.031.318-1.321.662s-.454.831-.566 1.527c-.111.697-.172 1.6-.251 2.778-.087 5.741.523 10.82 1.668 15.313 1.147 4.5 2.832 8.409 4.891 11.801 2.062 3.397 4.5 6.275 7.149 8.71 2.651 2.439 5.514 4.433 8.424 6.061-1.035-.158-2.569-.435-4.443-1.012-1.875-.576-4.088-1.452-6.477-2.808-2.388-1.355-4.952-3.189-7.529-5.68-2.573-2.489-5.159-5.632-7.594-9.606-2.428-3.968-3.966-8.114-4.865-12.182-.898-4.06-1.162-8.042-1.042-11.694.118-3.645.62-6.96 1.25-9.696.63-2.732 1.391-4.885 2.032-6.21.641-1.322 1.117-2.479 1.429-3.493.311-1.014.459-1.886.444-2.639s-.193-1.388-.534-1.928c-.339-.539-.842-.984-1.505-1.358.127-.034.263-.066.409-.092.146-.027.302-.049.473-.068.17-.019.354-.033.554-.042.199-.011.416-.016.652-.016z"/><path d="m383.228 11.175c8.328 0 14.624 3.315 18.889 9.944v.999c0 1.033-1.316 2.349-3.948 3.948h-1c0-4.764-2.315-8.395-6.945-10.893h-4.998c-6.629 1.798-9.944 4.114-9.944 6.945v3.948c0 1.866 9.278 15.791 27.834 41.776v1.948c-5.663 8.629-14.275 12.943-25.835 12.943-17.223-2.865-25.835-7.829-25.835-14.891.733 0 3.382-1.999 7.946-5.997h1.999c0 10.627 5.296 15.941 15.89 15.941 5.53 0 8.845-3.315 9.944-9.944 0-2.532-9.611-17.107-28.833-43.725v-1.999c6.996-7.295 15.275-10.943 24.836-10.943z"/><path d="m423.254 82.733c-10.827-9.095-16.24-14.059-16.24-14.891 3.997-4.198 5.996-8.512 5.996-12.943v-31.781c0-4.131-1.432-7.779-4.297-10.944v-.999h20.488v.999l-4.248 5.947v64.612z"/><path d="m469.227 4.979h11.243l-1.099 13.542v64.212h-3.398c0-2.266-10.51-14.292-31.531-36.079h-2.249c-1.532.233-2.299.983-2.299 2.249v22.536c0 1.899.767 5.281 2.299 10.144l-2.299 1.15h-6.746c-1.499 0-2.248-.75-2.248-2.249 1.499-2.465 2.248-4.714 2.248-6.746v-60.864c.233-1.499.983-2.249 2.249-2.249 21.621 23.286 33.647 34.93 36.079 34.93l2.248-4.498c-.766-22.553-2.265-33.83-4.497-33.83v-2.248z"/><path d="m523.645 11.175c8.395 1.366 13.509 2.732 15.341 4.097-1.366 5.097-2.049 8.162-2.049 9.195h-.999c-3.831-3.098-7.929-4.647-12.293-4.647h-2.049c-10.893 0-17.706 6.663-20.438 19.988v10.194c0 11.36 7.846 18.856 23.536 22.487h2.049c.966 0 1.982-1.016 3.048-3.048v-9.195c0-4.364-3.214-9.794-9.644-16.29l2.049-1h18.389c1.366.2 2.049.883 2.049 2.049-1.066 5.164-1.599 8.878-1.599 11.143v20.438c0 4.098-2.732 6.147-8.195 6.147-23.187 0-38.861-9.195-47.023-27.584-.666-3.698-.999-6.763-.999-9.195 0-22.753 12.942-34.346 38.827-34.779z"/><path d="m579.862 11.175c7.196 1.366 11.576 2.732 13.142 4.097-1.166 5.097-1.749 8.162-1.749 9.195h-.899c-3.265-4.098-6.763-6.146-10.494-6.146h-1.749c-9.328 0-15.175 7.162-17.54 21.487v2.049h21.887c5.864-.5 8.795-2.549 8.795-6.147h1.749v1c0 8.861-2.332 13.292-6.996 13.292h-25.435c0 11.36 6.713 18.856 20.138 22.487h5.297c3.631-1.533 7.712-7.313 12.243-17.34h1.749v.999c-3.665 17.057-6.296 25.585-7.895 25.585-.966.667-2.416 1-4.348 1-19.888 0-33.314-9.195-40.276-27.584-.6-3.698-.9-6.763-.9-9.195 0-18.422 11.094-30.015 33.281-34.779z"/><path d="m374.6 125.239-1.581 11.778h10.119c-1.328 6.654-8.248 8.816-11.257 8.441-5.136-.64-9.87-7.523-8.668-16.471 1.138-8.795 5.063-18.202 13.221-18.202 4.997 0 8.096 3.671 9.108 9.177l12.522-5.965c-2.719-10.784-9.613-16.137-19.416-16.137-15.369 0-27.448 12.313-29.915 31.05-2.34 18.126 6.451 30.439 21.44 30.439 7.969 0 15.432-3.442 21.124-11.319 5.186-7.189 6.641-14.378 7.906-22.791z"/><path d="m419.508 126.563c3.163 0 4.527 4.377 3.895 9.58-.696 5.368-3.413 9.497-6.235 9.497-2.823 0-4.528-4.129-3.832-9.497.633-5.203 3.009-9.58 6.172-9.58zm19.922-11.644h-11.511l-.506 4.129c-1.96-3.716-5.628-5.533-9.36-5.533-9.613 0-17.519 10.406-18.973 22.545-1.518 12.14 3.984 22.628 13.597 22.628 3.795 0 8.032-1.899 10.562-6.111h.127l-.57 4.707h11.511z"/><path d="m454.649 114.919h-11.51l-5.123 42.365h11.51l2.467-20.233c.569-4.707 1.454-11.892 6.577-11.892s4.238 7.185 3.669 11.892l-2.467 20.233h11.511l2.466-20.233c.569-5.037 1.581-11.561 6.894-11.561 4.87 0 3.858 7.185 3.352 11.561l-2.467 20.233h11.511l3.289-27.004c1.138-9.745-.823-16.765-9.044-16.765-4.428 0-9.108 2.808-12.017 8.093-1.644-5.615-5.376-8.093-10.056-8.093-4.174 0-7.779 1.982-11.068 6.689h-.126z"/><path d="m512.362 129.949c1.265-4.377 3.584-5.9 5.286-5.9s4.051 1.854 4.115 5.9zm20.845 7.102c1.77-14.452-3.669-23.536-14.926-23.536-10.562 0-18.974 8.506-20.681 22.628-1.771 14.617 5.249 22.545 16.001 22.545 3.731 0 7.589-1.156 10.814-3.551 3.289-2.395 6.009-6.028 7.463-10.983h-12.645c-1.581 2.807-1.901 3.881-4.368 3.881-2.466 0-4.464-3.303-3.705-9.414h21.857z"/><path d="m563.128 116.24c-3.099-1.982-6.704-2.725-10.372-2.725-7.083 0-16.44 3.836-17.705 14.242-.885 7.597 3.981 10.698 7.46 11.937 3.415 1.239 7.809 1.404 7.429 4.707-.316 2.313-3.319 3.221-4.773 3.221-2.846 0-6.514-2.147-8.601-4.294l-5.44 10.488c3.542 3.138 7.843 4.872 12.46 4.872 7.526 0 17.452-3.836 18.843-14.984.949-7.846-4.297-11.938-9.483-13.342-1.581-.413-5.912-.826-5.532-3.716.253-2.147 3.382-2.891 4.71-2.891 1.96 0 4.364.826 5.945 2.065z"/></g><path d="m46.374 97.86h16.752l-6.001 35.254h-16.252z"/><path d="m39.872 138.366h16.502l-.5 4h13.752l-2 14.253h-30.754z"/><path d="m254.901 100.86h15.252l-1.5 10.002h-15.254z"/><path d="m252.775 115.112h15.252l-2.749 18.502h-15.253z"/><path d="m249.276 138.366h15.251l-2.75 18.253h-15.253l2.751-18.253"/><path d="m179.516 138.366h15.251l-2.75 18.253h-15.251z"/><path d="m86.252 138.366c-.128 1.181-.217 2.683-.084 4.033.181 1.648.82 2.964 2.384 2.964 2.059 0 3.299-1.811 4.011-3.952.402-1.111.69-2.034.898-3.084l14.213-.037-2.896 18.38h-12.636l.742-3.662c-3.13 3.985-5.638 4.943-10.906 4.943-10.063 0-11.671-11.163-11.034-19.58l15.308-.006"/><path d="m94.095 133.615c.01-1.047-.003-1.666-.053-2.401-.147-1.893-.74-3.539-2.633-3.539-1.977 0-3.159 1.975-3.986 4.363-.119.372-.222.729-.686 1.572l-15.44-.012c2.05-8.8 6.663-19.097 16.713-19.304 2.744-.056 7.869.317 9.874 4.239l.438.084.648-3.542h12.384l-2.852 18.539z"/><path d="m112.258 133.614c-.922-1.84-1.308-4.044-.942-6.666 1.255-8.975 8.001-13.529 18.128-13.529 4.364 0 7.397 1.023 10.885 3.165l-1.661 11.523c-2.533-2.119-7.119-3.244-9.836-3.244-1.152 0-2.584.271-2.937 1.64-.512 1.986 1.713 3.078 4.419 4.033 2.237.791 4.14 1.772 5.657 3.06z"/><path d="m139.431 138.406c.688 1.889.894 4.163.559 6.563-1.37 9.797-9.777 13.481-18.751 13.481-5.928 0-8.421-1.104-13.135-3.903l2.108-12.896c1.606 2.059 7.045 5.34 10.686 5.154 1.398-.072 4.221-1.034 4.439-2.598.218-1.565-.453-2.716-3.965-3.833-1.644-.523-3.206-1.074-4.589-1.926z"/><path d="m156.125 138.373c-.607 3.677-.746 9.448 2.605 9.857 2.159.262 4.409-1.489 5.091-5.922h13.557c-2.363 13.934-10.529 16.464-20.244 16.392-10.585-.077-16.921-8.694-16.144-20.345z"/><path d="m298.396 133.614c1.99-10.925 7.312-19.847 22.529-20.195 2.985-.067 5.36.943 6.602 1.664l-1.968 11.829c-6.038-2.448-9.323 2.358-10.482 6.718z"/><path d="m314.728 138.374c.407 2.722 1.973 5.26 5.028 5.26l3.321-.25-1.935 13.237c-2.359.622-4.608.997-7.661.954-11.616-.162-16.378-8.705-15.701-19.217z"/><path d="m228.909 138.373c-1.82 2.945-3.637 5.118-7.762 4.743l.713-4.756-16.063.01-2.903 18.248h16.252c13.449 0 22.681-5.885 27.207-18.287l-17.444.041"/><path d="m222.464 133.626 3.184-20.512c6.499 0 7.999 4.999 6.75 14.001-.312 2.249-.749 4.626-1.336 6.547l16.91.018c.612-2.531.882-5.343 1.178-8.315 2.251-22.503-10.001-27.504-22.252-27.504h-15.254l-2.125 16.002c-2.5.499-8.626 1.25-11.876 5.626-.625.624-1 .376-.875-.375l.626-4.001h-14.378l-2.75 18.502h15.252c.625-2.625 7.502-6.5 11.75-4.501l-.712 4.487z"/><path d="m268.779 133.614c-.923-1.84-1.309-4.044-.941-6.666 1.253-8.975 7.999-13.529 18.127-13.529 4.363 0 7.398 1.023 10.885 3.165l-1.662 11.523c-2.533-2.118-7.118-3.244-9.835-3.244-1.153 0-2.585.271-2.937 1.64-.513 1.986 1.713 3.078 4.419 4.033 2.236.791 4.139 1.772 5.658 3.06z"/><path d="m295.953 138.406c.688 1.889.893 4.163.557 6.563-1.368 9.797-9.776 13.481-18.749 13.481-5.927 0-8.421-1.104-13.135-3.903l2.107-12.896c1.606 2.059 7.046 5.34 10.686 5.154 1.399-.072 4.22-1.034 4.44-2.598.218-1.565-.455-2.716-3.966-3.833-1.645-.523-3.205-1.074-4.589-1.926z"/><path d="m162.249 113.419c-12.237.082-18.259 8.671-20.636 20.19l36.95.008c.41-5.343.216-10.52-1.398-12.869-2.817-4.098-6.525-7.385-14.916-7.329zm.239 9.648c2.881 0 3.35 3.127 3.099 5.515h-7.492c.228-2.222 1.676-5.515 4.393-5.515"/></g></svg>