<svg clip-rule="evenodd" fill-rule="evenodd" stroke-linejoin="round" stroke-miterlimit="2" viewBox="0 0 600 194" xmlns="http://www.w3.org/2000/svg"><g fill="#fff"><circle cx="183.418" cy="17.114" r="16.05"/><circle cx="224.078" cy="16.577" r="16.05"/><path d="m202.903 40.501c-.15-.002-.298 0-.443.005-25.6.384-48.672 11.67-62.531 33.563-12.31 19.446-14.623 44.678-8.477 66.572 6.516 23.21 23.815 41.416 46.696 48.893 24.925 8.147 53.952 2.695 73.839-14.258 23.07-19.665 29.821-54.052 21.955-82.375-8.991-32.376-37.678-51.892-70.594-52.395-.147-.005-.295-.007-.445-.005zm-.449 16.055c-18.998.307-37.493 7.965-47.959 24.497-9.292 14.676-12.68 33.141-8.868 50.162 4.913 21.931 20.047 39.753 42.634 44.39 23.186 4.758 49.244-2.398 62.421-23.116 11.558-18.171 13.696-41.577 5.664-61.598-8.965-22.348-29.947-34.104-53.443-34.34l-.449.005z"/><g fill-rule="nonzero"><path d="m279.399 52.577c15.386 34.886 29.943 70.618 48.763 103.845 8.412 14.854 20.212 35.138 39.266 36.595 18.569 1.421 32.134-20.738 40.364-34.018 20.768-33.506 36.214-70.612 52.452-106.421 4.24-9.349-9.59-17.515-13.859-8.1-15.395 33.952-30.377 68.461-49.072 100.771-5.086 8.789-10.538 17.589-17.613 24.935-2.476 2.575-4.085 3.891-6.85 5.475-1.928 1.104-3.314 1.376-5.423 1.308-.934-.082-.893-.066.128.044-.68-.111-1.343-.31-2.003-.508-.265-.078-1.208-.463-2.773-1.406-2.575-1.55-4.802-3.89-7.274-6.664-6.783-7.614-11.811-16.934-16.665-25.834-17.244-31.623-31.066-65.203-45.583-98.121-4.169-9.455-17.994-1.279-13.858 8.099z"/><path d="m536.533 148.308c25.871-6.052 60.291-19.687 63.283-50.438 2.199-22.61-15.668-41.636-34.941-50.409-27.988-12.74-60.89-7.391-82.269 15.012-21.097 22.106-27.856 57.539-15.708 85.607 7.642 17.654 20.331 32.433 38.56 39.49 16.384 6.343 34.224 6.141 51.437 4.292 10.179-1.095 10.285-17.155 0-16.05-15.311 1.645-30.737 2.141-45.455-3.055-16.393-5.786-27.391-21.579-32.248-37.64-8.471-28.017 5.91-63.133 33.429-74.613 22.22-9.268 52.649-2.066 66.324 18.475 14.616 21.955-6.465 39.89-25.948 47.655-6.708 2.673-13.713 4.555-20.732 6.199-10.076 2.356-5.802 17.831 4.268 15.475z"/><path d="m9.631 45.298c-13.161 37.714-15.506 83.097 10.148 116.272 23.539 30.439 62.866 37.061 98.574 27.934 10.022-2.562 5.769-18.04-4.266-15.477-29.992 7.665-63.314 2.711-82.704-23.536-21.527-29.142-17.533-68.665-6.275-100.927 3.419-9.798-12.089-13.973-15.477-4.266z"/></g></g></svg>