<?xml version="1.0" encoding="UTF-8" standalone="no"?><!DOCTYPE svg PUBLIC "-//W3C//DTD SVG 1.1//EN" "http://www.w3.org/Graphics/SVG/1.1/DTD/svg11.dtd"><svg width="100%" height="100%" viewBox="0 0 600 193" version="1.1" xmlns="http://www.w3.org/2000/svg" xmlns:xlink="http://www.w3.org/1999/xlink" xml:space="preserve" xmlns:serif="http://www.serif.com/" style="fill-rule:evenodd;clip-rule:evenodd;stroke-linejoin:round;stroke-miterlimit:2;"><g id="love"><circle id="circle6" cx="183.418" cy="16.588" r="16.05" style="fill:#fff;"/><circle id="circle8" cx="224.078" cy="16.05" r="16.05" style="fill:#fff;"/><path d="M202.903,39.974c-0.15,-0.001 -0.298,0 -0.443,0.006c-25.6,0.383 -48.672,11.669 -62.531,33.563c-12.31,19.446 -14.623,44.678 -8.477,66.572c6.516,23.21 23.815,41.415 46.696,48.893c24.925,8.147 53.952,2.695 73.839,-14.259c23.07,-19.664 29.821,-54.052 21.955,-82.375c-8.991,-32.376 -37.678,-51.891 -70.594,-52.394c-0.147,-0.006 -0.295,-0.007 -0.445,-0.006Zm-0.449,16.056c-18.998,0.307 -37.493,7.964 -47.959,24.496c-9.292,14.676 -12.68,33.142 -8.868,50.163c4.913,21.93 20.047,39.752 42.634,44.389c23.186,4.759 49.244,-2.398 62.421,-23.115c11.558,-18.172 13.696,-41.578 5.664,-61.598c-8.965,-22.348 -29.947,-34.105 -53.443,-34.341l-0.449,0.006Z" style="fill:#fff;"/><path id="path27" d="M279.399,52.05c15.386,34.886 29.943,70.618 48.763,103.845c8.412,14.854 20.212,35.138 39.266,36.596c18.569,1.42 32.134,-20.739 40.364,-34.018c20.768,-33.506 36.214,-70.612 52.452,-106.421c4.24,-9.349 -9.59,-17.516 -13.859,-8.101c-15.395,33.952 -30.377,68.461 -49.072,100.772c-5.086,8.789 -10.538,17.589 -17.613,24.935c-2.476,2.574 -4.085,3.89 -6.85,5.475c-1.928,1.104 -3.314,1.375 -5.423,1.308c-0.934,-0.082 -0.893,-0.066 0.128,0.043c-0.68,-0.111 -1.343,-0.31 -2.003,-0.507c-0.265,-0.079 -1.208,-0.464 -2.773,-1.406c-2.575,-1.551 -4.802,-3.891 -7.274,-6.664c-6.783,-7.614 -11.811,-16.934 -16.665,-25.834c-17.244,-31.623 -31.066,-65.203 -45.583,-98.122c-4.169,-9.455 -17.994,-1.279 -13.858,8.099Z" style="fill:#fff;fill-rule:nonzero;"/><path id="path38" d="M536.533,147.782c25.871,-6.053 60.291,-19.687 63.283,-50.439c2.199,-22.609 -15.668,-41.635 -34.941,-50.408c-27.988,-12.741 -60.89,-7.391 -82.269,15.012c-21.097,22.105 -27.856,57.539 -15.708,85.607c7.642,17.653 20.331,32.432 38.56,39.489c16.384,6.343 34.224,6.141 51.437,4.292c10.179,-1.095 10.285,-17.154 0,-16.05c-15.311,1.645 -30.737,2.141 -45.455,-3.054c-16.393,-5.786 -27.391,-21.579 -32.248,-37.641c-8.471,-28.016 5.91,-63.132 33.429,-74.613c22.22,-9.267 52.649,-2.065 66.324,18.475c14.616,21.955 -6.465,39.891 -25.948,47.656c-6.708,2.672 -13.713,4.555 -20.732,6.198c-10.076,2.357 -5.802,17.832 4.268,15.476Z" style="fill:#fff;fill-rule:nonzero;"/><path id="path48" d="M9.631,44.771c-13.161,37.715 -15.506,83.098 10.148,116.273c23.539,30.439 62.866,37.061 98.574,27.933c10.022,-2.561 5.769,-18.04 -4.266,-15.477c-29.992,7.666 -63.314,2.711 -82.704,-23.535c-21.527,-29.142 -17.533,-68.665 -6.275,-100.927c3.419,-9.799 -12.089,-13.974 -15.477,-4.267Z" style="fill:#fff;fill-rule:nonzero;"/></g></svg>