<?xml version="1.0" encoding="UTF-8" standalone="no"?><!DOCTYPE svg PUBLIC "-//W3C//DTD SVG 1.1//EN" "http://www.w3.org/Graphics/SVG/1.1/DTD/svg11.dtd"><svg width="100%" height="100%" viewBox="0 0 600 55" version="1.1" xmlns="http://www.w3.org/2000/svg" xmlns:xlink="http://www.w3.org/1999/xlink" xml:space="preserve" xmlns:serif="http://www.serif.com/" style="fill-rule:evenodd;clip-rule:evenodd;stroke-linejoin:round;stroke-miterlimit:2;"><g id="lowres-nx"><path d="M145.446,54.812l0,-54.791l18.188,-0l0,26.979l8.505,-8.539l1.085,-0.02l8.524,8.559l0,-26.979l18.188,-0l0,54.791l-9.589,0c-0,0 -17.656,-17.727 -17.656,-17.727l-17.655,17.727c-0,0 -9.59,0 -9.59,0Z" style="fill:#fff;"/><path d="M490.925,0.086l18.195,17.767l0,-17.832l18.188,-0l0,54.791l-18.188,0l0,-9.613l-18.195,-17.767l0,27.38l-18.188,0l0,-54.791l18.188,-0l0,0.065Z" style="fill:#fff;"/><path d="M18.188,45.485l0,-45.464l-18.188,-0l-0,54.791l54.308,0l-0,-9.327l-36.12,0Z" style="fill:#fff;"/><path d="M290.912,54.812l54.48,0l0,-9.327l-36.292,0l0,-18.226l18.113,0l-0,-9.327l-18.113,0l0,-8.584l36.292,-0l0,-9.327l-54.48,-0l0,54.791Z" style="fill:#fff;"/><path d="M81.833,0.021l36.151,-0l9.094,9.327c0,-0 0,36.137 0,36.137l-9.094,9.327l-36.151,0l-9.094,-9.327l0,-36.137l9.094,-9.327Zm27.057,9.327c0,-0 0,36.137 0,36.137l-17.963,0l0,-36.137l17.963,-0Z" style="fill:#fff;"/><path d="M563.617,0.021l0,0.255l9.098,8.884l9.097,-8.884c-0,-0 -0,-0.255 -0,-0.255l18.188,-0l-0,9.174l-0.024,0l0.024,0.025l-13.612,13.292l13.612,13.293l-0.434,0.444l0.434,-0l-0,18.563l-18.188,0l-0,-10.063c-0,-0 -9.097,-8.884 -9.097,-8.884l-9.098,8.884l0,10.063l-18.188,0l0,-18.563l0.434,-0l-0.434,-0.444l13.612,-13.293l-13.612,-13.292l0.024,-0.025l-0.024,0l0,-9.174l18.188,-0Z" style="fill:#fff;"/><path d="M372.719,27.259l-9.112,-9.327l0.018,-8.584c-0,-0 9.169,-9.327 9.169,-9.327l45.336,-0l0,9.327l-36.317,-0l-0,8.584l26.499,0l9.818,9.588l0,5.656l-0.016,0.017c-0,-0 -0,12.292 -0,12.292l-9.051,9.249l-0.043,-0.045l-0,0.123l-45.413,0l0,-9.327l36.319,0l-0,-18.226l-27.207,0Z" style="fill:#fff;"/><path d="M236.353,31.816l0,22.996l-18.188,0l0,-54.791l45.245,-0l0,0.298l0.138,-0.298l9.094,9.327l-0,8.584l-9.232,9.327l-8.844,0l18.076,17.935l-0,9.618l-13.784,0l-22.505,-22.996Zm0,-13.884l18.101,0l-0,-8.584l-18.101,-0l0,8.584Z" style="fill:#fff;"/></g></svg>