<?xml version="1.0" encoding="UTF-8" standalone="no"?><!DOCTYPE svg PUBLIC "-//W3C//DTD SVG 1.1//EN" "http://www.w3.org/Graphics/SVG/1.1/DTD/svg11.dtd"><svg width="100%" height="100%" viewBox="0 0 600 71" version="1.1" xmlns="http://www.w3.org/2000/svg" xmlns:xlink="http://www.w3.org/1999/xlink" xml:space="preserve" xmlns:serif="http://www.serif.com/" style="fill-rule:evenodd;clip-rule:evenodd;stroke-linejoin:round;stroke-miterlimit:2;"><g id="lowres-nx_outline"><path d="M600,22.277l0,-22.263l-141.087,0l0,70.588l141.087,0l0,-30.689l-8.818,-8.818l8.818,-8.818Zm-114.661,-13.337l17.656,17.241l-0,-17.304l17.649,-0l0,53.168l-17.649,-0l-0,-9.328l-17.656,-17.242l0,26.57l-17.649,-0l-0,-53.168l17.649,-0l0,0.063Zm70.538,-0.063l-0,0.247l8.828,8.621l8.828,-8.621c-0,0 -0,-0.247 -0,-0.247l17.649,-0l-0,8.903l-0.023,-0l0.023,0.023l-13.209,12.899l13.209,12.899l-0.421,0.43l0.421,0l-0,18.014l-17.649,-0l-0,-9.765c-0,-0 -8.828,-8.621 -8.828,-8.621l-8.828,8.621l-0,9.765l-17.649,-0l-0,-18.014l0.421,0l-0.421,-0.43l13.209,-12.899l-13.209,-12.899l0.023,-0.023l-0.023,-0l-0,-8.903l17.649,-0Z" style="fill:#fff;"/><path d="M366.201,0.014l-13.126,13.126l0,-13.126l-70.803,0l0,13.126l-13.126,-13.126l-128.064,0l0,13.126l-13.126,-13.126l-44.063,0l-13.437,13.437l-0,30.551l-17.597,0l-0,-26.396l-17.592,-17.592l-35.267,0l0,70.588l163.142,0l13.363,-13.363l13.364,13.363l220.321,0l13.361,-13.36l-0,-57.228l-57.35,0Zm-127.892,39.716l0,22.315l-17.649,-0l-0,-53.168l43.905,-0l-0,0.289l0.133,-0.289l8.825,9.05l-0,8.33l-8.958,9.051l-8.583,0l17.541,17.403l-0,9.334l-13.375,-0l-21.839,-22.315Zm-88.213,22.315l-0,-53.168l17.649,-0l-0,26.18l8.252,-8.286l1.053,-0.02l8.272,8.306l0,-26.18l17.649,-0l0,53.168l-9.305,-0c-0,-0 -17.133,-17.202 -17.133,-17.202l-17.132,17.202c-0,-0 -9.305,-0 -9.305,-0Zm-123.488,-9.051l-0,-44.117l-17.649,-0l-0,53.168l52.698,-0l0,-9.051l-35.049,0Zm264.644,9.051l52.866,-0l-0,-9.051l-35.217,0l0,-17.686l17.576,0l0,-9.051l-17.576,0l0,-8.33l35.217,0l-0,-9.05l-52.866,-0l-0,53.168Zm79.382,-26.737l-8.841,-9.051l0.017,-8.33c-0,0 8.897,-9.05 8.897,-9.05l43.993,-0l0,9.05l-35.241,0l-0,8.33l25.714,0l9.527,9.304l0,5.489l-0.015,0.016c-0,-0 -0,11.928 -0,11.928l-8.783,8.975l-0.042,-0.043l0,0.119l-44.067,-0l0,-9.051l35.243,0l-0,-17.686l-26.402,0Zm-282.267,-26.431l35.08,-0l8.825,9.05c-0,0 -0,35.067 -0,35.067l-8.825,9.051l-35.08,-0l-8.824,-9.051l-0,-35.067l8.824,-9.05Zm26.256,9.05c-0,0 -0,35.067 -0,35.067l-17.431,0l-0,-35.067l17.431,0Zm123.686,8.33l17.565,0l-0,-8.33l-17.565,0l0,8.33Z" style="fill:#fff;"/></g></svg>