<svg clip-rule="evenodd" fill-rule="evenodd" stroke-linejoin="round" stroke-miterlimit="2" viewBox="0 0 600 71" xmlns="http://www.w3.org/2000/svg"><g fill="#fff"><path d="m600 22.328v-22.262h-141.087v70.588h141.087v-30.689l-8.818-8.819zm-114.661-13.337 17.656 17.242v-17.305h17.649v53.169h-17.649v-9.328l-17.656-17.242v26.57h-17.649v-53.169h17.649v.063zm70.538-.063v.248l8.828 8.621 8.828-8.621v-.248h17.649v8.903h-.023l.023.024-13.209 12.899 13.209 12.898-.421.431h.421v18.014h-17.649v-9.766s-8.828-8.62-8.828-8.62l-8.828 8.62v9.766h-17.649v-18.014h.421l-.421-.431 13.209-12.898-13.209-12.899.023-.024h-.023v-8.903z"/><path d="m366.201.066-13.126 13.126v-13.126h-70.803v13.126l-13.126-13.126h-128.064v13.126l-13.126-13.126h-44.063l-13.437 13.437v30.551h-17.597v-26.397l-17.592-17.591h-35.267v70.588h163.142l13.363-13.364 13.364 13.364h220.321l13.361-13.36v-57.228h-57.35zm-127.892 39.716v22.315h-17.649v-53.169h43.905v.29l.133-.29 8.825 9.051v8.33l-8.958 9.051h-8.583l17.541 17.403v9.334h-13.375zm-88.213 22.315v-53.169h17.649v26.18l8.252-8.285 1.053-.02 8.272 8.305v-26.18h17.649v53.169h-9.305s-17.133-17.202-17.133-17.202l-17.132 17.202zm-123.488-9.051v-44.118h-17.649v53.169h52.698v-9.051zm264.644 9.051h52.866v-9.051h-35.217v-17.686h17.576v-9.051h-17.576v-8.33h35.217v-9.051h-52.866zm79.382-26.737-8.841-9.051.017-8.33s8.897-9.051 8.897-9.051h43.993v9.051h-35.241v8.33h25.714l9.527 9.304v5.488l-.015.016v11.929l-8.783 8.974-.042-.043v.12h-44.067v-9.051h35.243v-17.686zm-282.267-26.432h35.08l8.825 9.051v35.067l-8.825 9.051h-35.08l-8.824-9.051v-35.067zm26.256 9.051v35.067h-17.431v-35.067zm123.686 8.33h17.565v-8.33h-17.565z"/></g></svg>