<svg clip-rule="evenodd" fill-rule="evenodd" stroke-linejoin="round" stroke-miterlimit="2" viewBox="0 0 600 394" xmlns="http://www.w3.org/2000/svg"><g fill="#fff" fill-rule="nonzero"><path d="m599.993 364.901c.167 6.164-2.634 14.67-10.906 20.192-5.163 3.33-11.946 5.189-19.738 5.315-6.921.12-12.665-.817-17.582-2.841h-.019c-2.369-1.02-2.703-2.192-2.591-5.284.189-4.533.16-8.556.305-10.908 0 0 .1-1.359.1-1.395.06-.755-.278-2.841 1.368-2.867 1.788-.043 1.307 1.797 1.307 2.441.023.982-.229 2.138.207 3.613 1.697 6.864 7.975 10.694 17.79 10.506 11.454-.243 18.073-8.108 17.952-15.221-.139-7.24-1.521-11.03-12.949-19.15l-5.89-4.147c-14.384-10.17-18.03-17.514-18.195-25.46-.26-13.171 10.137-21.289 26.818-21.615 4.562-.079 8.397.231 12.115.953 2.529.429 3.456.491 4.336.477.557-.017 2.195-.048 2.25 1.773l-.077.915c-.081 1.566-.574 5.013-.46 11.121.022.997.539 3.971-1.268 3.831-1.041-.089-.848-1.836-.991-2.684-.122-1.263-.122-3.466-1.485-5.156-.944-1.213-5.725-5.331-16.732-5.136-8.911.158-14.631 5.465-14.641 12.597-.017 6.12 3.47 10.034 15.609 18.161l3.654 2.462c16.269 11.026 19.556 18.426 19.713 27.507m-531.329-16.398c0 13.479 3.496 20.381 8.22 24.628 6.798 6.164 15.662 6.421 20.571 6.421 6.011 0 12.661-1.02 19.249-6.685 7.763-6.698 8.792-17.666 8.792-27.996v-9.953c0-14.146 0-25.736.198-28.725.188-3.234.927-4.829 3.411-5.291 1.129-.196 1.678-.298 2.691-.298 1.089 0 1.677-.179 1.677-.834 0-.627-.674-.835-1.942-.835-3.613 0-9.472.294-10.551.294-.098 0-5.918-.296-10.647-.296-1.297 0-1.94.21-1.94.834 0 .656.543.837 1.551.837 1.013 0 2.605.102 3.344.295 3.046.639 3.807 2.155 3.973 5.294.184 2.989.184 14.579.184 28.725v11.602c0 9.617-.274 17.971-5.377 23.079-3.675 3.728-8.69 5.041-12.766 5.041-3.15 0-7.402-.391-11.559-3.821-4.55-3.711-7.222-9.398-7.222-22.885v-13.016c0-14.146 0-25.736.177-28.725.207-3.234.927-4.829 3.427-5.291 1.099-.196 1.652-.298 2.686-.298.932 0 1.499-.179 1.499-.834 0-.627-.662-.835-2.052-.835-3.325 0-9.145.294-11.402.294-2.763 0-8.6-.296-13.486-.296-1.418 0-2.056.21-2.056.834 0 .656.562.837 1.582.837 1.282 0 2.884.102 3.613.295 3.046.639 3.79 2.155 3.974 5.294.188 2.989.188 14.579.188 28.725v13.585zm111.806 24.011c5.567 0 12.215-.653 15.69-2.222 1.499-.657 1.849-1.136 2.3-2.74.836-3.263 1.916-11.567 1.916-12.695 0-.793-.184-1.43-.794-1.43-.696 0-.865.382-1.12 1.907-.348 1.723-1.509 4.467-2.97 6.288-3.506 4.409-8.199 5.353-15.969 5.353-11.676 0-27.473-11.281-27.473-33.978 0-9.269 1.64-18.314 8.027-24.714 3.835-3.813 8.788-5.93 16.388-5.93 8.035 0 14.835 2.598 17.709 5.93 2.205 2.479 3.311 5.809 3.385 8.766 0 1.342.197 2.122.901 2.122.765 0 .931-.777 1.024-2.217.189-1.892.098-7.145.275-10.296.174-3.351.436-4.488.436-5.256 0-.562-.348-1.041-1.306-1.141-2.641-.272-5.423-1.125-8.712-1.631-4.018-.562-7.248-.953-12.663-.953-13.009 0-21.286 3.821-27.55 10.11-8.401 8.431-10.217 19.676-10.217 26.166 0 9.247 2.252 19.954 10.816 28.152 7.922 7.532 17.97 10.409 29.907 10.409zm68.406-27.288c.481 0 .736.191.918.639l7.419 19.634c.477 1.109-.181 1.938-.86 2.134-.918.083-1.49.281-1.49.843 0 .653.279.899 2.922.899 7.362 0 14.265-.31 17.606-.31 3.43 0 5.189-.548 5.189-1.297 0-.638-.336-1.082-1.094-1.082-1.113 0-2.402 0-3.79-.262-1.952-.481-5.11-2.157-8.606-10.496-6.259-14.823-21.305-52.228-23.241-56.671-.917-2.14-1.687-2.555-2.548-2.555-.908 0-1.668 1.712-2.781 4.39l-23.365 59.252c-1.854 4.653-3.603 8.047-7.834 8.621-.755.081-1.633.512-2.462.512-.765 0-1.323.358-1.242.901.134.811.222.811 1.423.811 5.349 0 10.132-.382 10.807-.382 2.862 0 6.938-.331 9.872-.374 1.003-.038 1.697-.148 1.697-.872 0-.577-.329-.761-1.459-.761l-1.661-.243c-2.86 0-3.401-1.394-3.401-3.05 0-1.121.45-3.349 1.399-5.656l5.143-13.872c.143-.555.341-.746.822-.746h20.617zm-18.777-4.628c-.414 0-.481-.294-.414-.62l8.539-22.797c.117-.375.289-.839.568-.839.257 0 .386.462.445.839l8.347 22.88c.095.246 0 .539-.472.539h-17.013zm150.344 4.628c.476 0 .76.191.92.639l7.376 21.293c.477 1.116-.159 1.938-.789 2.122-.908.095-1.275.276-1.275.836 0 .656 1.087.82 2.684.906 7.274.179 15.044.765 18.276.905 3.334.16 3.334-.281 3.334-1.02 0-.66-.448-.758-1.165-.758-1.085 0-.977-.195-2.341-.493-1.899-.448-4.314-2.085-7.743-10.392-5.816-14.09-21.575-54.377-23.749-59.487-1.201-2.777-2.521-2.581-2.602-2.581-1.125-.048-1.979 1.218-3.075 3.896l-22.776 58.12c-1.816 4.631-3.537 7.789-7.698 8.344-.732.081-1.986.167-2.796.167-.746 0-1.092.196-1.092.739 0 .746.532.937 1.693.937 4.755 0 9.736.059 10.725.059 2.824 0 6.719.336 9.612.336.999 0 1.55-.202 1.55-.939 0-.562-.279-.758-1.35-.758h-1.37c-2.817 0-3.647-1.177-3.647-2.869 0-1.085.451-3.328 1.371-5.618l4.891-13.631c.209-.555.362-.746.817-.746h20.219zm-18.403-4.628c-.369 0-.45-.294-.369-.62l8.354-22.797c.09-.375.267-.839.546-.839.266 0 .362.462.45.839l8.158 22.88c.096.246 0 .539-.436.539h-16.703zm60.558 2.748c.083 8.749.112 17.565.112 21.705-.391 2.758-.796 4.867-2.655 5.227-.86.174-.107.11-1.735.293-1.099.115-1.282.375-1.282.837 0 .674.645 1.084 1.399 1.134 3.665.265 9.881.644 11.678.83 1.428.031 5.547.369 10.914.698.746.05 1.385-.314 1.385-.982-.012-.476-.103-1.001-1.218-1.215-1.688-.31-2.243-.627-3.108-.825-4.145-2.3-3.482-8.985-3.482-19.901l-.053-8.562c-.016-.548.208-1.394.634-1.394l9.536.031c.649 0 2.014.198 2.448.772 1.242 1.414 8.556 15.736 12.277 20.974 5.222 7.31 6.361 10.69 10.325 13.209 2.312 1.485 4.85 2.553 10.065 3.099l8.263.464c1.38.089 3.023-.102 3.08-1.091.09-.775-.506-1.068-1.542-1.318-.944-.243-1.459-.341-2.501-.541-1.368-.26-4.099-.835-9.319-6.338-5.062-5.434-13.075-21.594-21.732-32.684 9.315-7.793 10.573-14.679 10.523-21.727-.048-6.368-3.751-11.192-6.349-13.006-5.017-3.527-11.224-4.35-17.049-4.35-2.884 0-11.142.301-14.272.301-1.954 0-8.93-.184-13.847-.184-1.409 0-2.045.198-2.045.858 0 .667.56 1.115 1.568 1.115 1.299 0 2.86.091 3.635.294 3.046.657 3.785 2.169 3.978 5.417.193 3.032.405 7.041.405 19.961zm11.917-37.186c0-.758-.286-1.573.987-2.224.865-.441 2.867-.865 6.504-.763 5.47 0 13.629 4.133 13.721 17.637.02 7.782-2.631 13.102-5.374 15.176-1.685 1.241-2.877 1.604-6.578 1.604-2.331 0-5.118-.274-7.048-.935-.653-.283-2.276-.939-2.276-1.978zm69.307 46.395c0 8.311-.031 16.458-.031 20.791 0 4.585-.789 5.305-2.726 5.701-.846.214-1.278.183-2.694.183-1.108 0-1.472.513-1.458.997 0 .674.808 1.144 2 1.144 5.188.419 10.732 1.239 11.38 1.239 2.744.317 5.313.81 11.367 1.37-.262 0 1.895.215 1.94-.855 0-.517-.217-1.001-1.189-1.383-1.426-.326-1.519-.083-3.413-.705-2.167-.739-2.515-4.433-2.515-6.025.062-4.005.062-13.092.143-22.421l-.017-48.069 10.935.315c8.218.174 10.876 2.741 11.052 5.203l.103 1.037c.09 1.415.255 1.89 1.029 1.89.537 0 .706-.572.804-1.526 0-2.445.279-8.952.279-10.921 0-1.401-.089-1.975-.737-1.975-.348 0-1.12.183-2.491.479-1.411.198-3.406.462-6.385.462l-34.669-.119c-3.053 0-6.552-.196-9.231-.491-2.333-.184-4.414-.462-5.727-.462-.837 0-.656 1.053-.741 2.302-.079 1.439.054 8.261.054 9.774 0 1.035.482 1.495 1.137 1.495.546 0 .818-.761.863-1.533.064-1.349 0-1.234.565-2.984.815-2.367 3.549-2.595 9.071-2.581l11.217-.212zm-200.109 17.485c5.556 0 11.45-.839 16.782-3.823 7.694-4.431 9.5-10.687 9.5-16.16.055-8.957-4.54-15.366-17.396-23.665l-2.965-1.875c-8.716-5.647-11.124-8.848-11.109-13.133 0-5.601 5.803-10.02 13.602-10.296 6.912-.284 9.965 2.512 11.593 4.171 2.662 2.71 2.266 4.862 2.266 5.71-.014 1.132.36 2.107 1.102 2.074.903-.041 1.189-.791 1.213-2.882.019-7.4.5-10.165.5-11.426 0-1.013-1.344-1.134-2.321-1.151-3.28-.014-6.536-1.22-13.431-.951-12.935.529-24.206 6.423-24.206 18.524 0 7.52 4.553 13.192 16.01 20.926l4.833 3.266c8.79 5.951 9.696 10.97 9.665 15.556 0 4.951-4.714 10.673-14.146 10.687-6.466.036-12.563-2.45-14.846-9.252-.515-1.549-.915-3.496-.915-4.691 0-.727-.1-1.561-1.039-1.546-.811.016-1.125 1.041-1.211 2.419-.117 1.458-.536 6.974-.536 12.022 0 2.016.31 2.478 1.949 3.122 4.448 1.723 9.086 2.374 15.106 2.374zm-280.437 10.434c-1.408-2.295-1.956-26.258-1.956-38.165v-16.732c0-14.143-.213-16.212 0-19.179.188-3.256 2.259-4.931 5.007-5.396 1.216-.198 1.809-.212 2.934-.212 1.206-.015 2.078-.167 2.078-.806 0-.641-.629-.872-2.078-.872-3.708.024-10.206.233-13.121.233-2.717 0-9.133-.259-13.912-.259-1.549 0-2.228.197-2.228.836 0 .644.603.823 1.723.823 1.323 0 2.553.112 3.349.29 3.361.646 4.171 2.141 4.364 5.291.224 2.989.224 5.587.224 19.74v54.199c0 4.156 0 8.508-2.929 10.034-1.552.748-1.676.786-2.555 1.18-1.111.472-1.33 1.187-1.087 1.627.882 1.512 3.279.098 7.663-.452l42.987-7.36c.355-.15 2.412-.906 3.077-3.142.658-2.478.364-1.508 1.463-5.93 1.425-5.808 2.074-8.406 2.074-8.802 0-1.115-.193-1.57-.908-1.57-.787 0-1.073 1.048-1.337 1.849-.663 1.843-2.084 4.176-3.418 6.455-1.383 1.678-3.704 4.816-10.84 6.325-2.493.553-18.174 3.99-20.574-.005z"/><path d="m390.006 67.678c-.074-.396-.496-.675-.892-.634l-6.995.796c.026 0-9.417 1.377-13.111 1.911-2.072-7.311-5.358-14.222-9.72-20.445 1.609-1.606 9.324-9.264 9.324-9.264-.019.026 5.186-5.177 5.186-5.177.31-.275.348-.751.086-1.072-.244-.326-.705-.406-1.046-.184l-5.642 3.471s-8.525 5.601-11.504 7.581c-3.575-4.211-7.661-7.959-12.163-11.159-1.9-1.322-3.872-2.537-5.906-3.642 1.452-3.513 5.415-13.18 5.415-13.18 0 .026 2.241-5.465 2.241-5.465.155-.383.007-.827-.348-1.039-.372-.194-.833-.086-1.08.252l-3.082 4.355s-6.192 9.164-8.378 12.467c-7.147-3.11-14.812-4.858-22.601-5.155-.365-4.166-1.421-15.011-1.421-15.011.019.015-.601-5.815-.601-5.815-.019-.418-.371-.749-.788-.744-.377-.009-.711.3-.787.691l-.696 5.251s-1.263 11.428-1.687 15.671c-7.962.475-15.77 2.406-23.036 5.696l-7.548-14.057c.014.009-2.725-5.12-2.725-5.12-.196-.364-.636-.53-1.024-.386-.32.122-.489.42-.503.763 0 .052.014.124.014.21l1.368 5.064c2.581 8.59 4.085 13.684 4.891 16.339-6.465 3.667-12.266 8.398-17.158 13.993-3.34-2.448-13.209-9.653-13.209-9.653.016.005-4.805-3.544-4.805-3.544-.335-.239-.799-.196-1.085.1-.148.139-.229.335-.221.539 0 .193.05.39.176.536l3.527 4.09s8.788 9.684 11.648 12.873c-2.943 4.125-7.019 11.383-8.339 15.868 1.84-4.314 10.892.365 13.573-3.806 17.861-27.636 54.907-37.908 84.48-17.899 9.126 6.173 15.845 14.479 20.192 23.495 0 0 4.927 7.997 5.802 24.032-.377 5.601-.046 9.095-1.378 14.818 2.934-9.944 3.244-17.459 2.484-27.009-.05-.257-.167-1.583-.568-3.67 3.842-1.383 19.096-6.779 19.096-6.779.385-.146.614-.548.544-.953m-144.159 103.702c-18.476 9.16-31.481 26.648-34.933 46.979-.811 4.715-1.094 9.505-.844 14.282-.293-4.633 10.208-4.219 11.028-8.997 3.659-21.594 18.557-38.404 37.72-45.569 9.779-3.657 20.354-4.659 30.646-2.903 10.103 1.706 19.588 6.018 27.516 12.508 7.929 6.49 7.408 4.834 15.176 18.76 2.639 5.079 4.514 10.52 5.562 16.148-.995-9.862-4.289-19.354-9.617-27.712s-3.146-5.647-9.955-12.037c-4.822-5.672-14.978-21.133 8.265-30.133 0 0 19.063-6.249 30.506-22.969 2.765-4.021 5.215-8.139 7.038-12.484-1.749 4.314-10.992-.663-13.836 3.255-10.78 14.975-27.292 23.41-44.367 24.478-1.747-.095-3.187-.472-4.242-1.182-2.467-1.759-2.467-4.681-1.09-7.448.756-1.335 1.507-2.079 2.808-2.798.396-.143.756-.315 1.142-.508.157-.071.298-.157.495-.214l-.05-.029c3.953-2.151 6.97-5.694 8.464-9.939 3.387-9.51-1.633-19.944-11.145-23.291-9.491-3.336-19.921 1.645-23.267 11.145-1.94 5.513-1.053 11.317 1.85 15.898.958 1.828 1.435 3.293 1.098 5.167-.648 3.522-3.029 5.691-6.568 5.505-1.595-.078-2.848-.462-4.247-1.07-1.211-.755-2.448-1.477-3.568-2.333-3.118-2.233-6.004-4.772-8.616-7.579-4.362-4.639-7.938-9.958-10.588-15.747-2.649-5.79-4.54-7.613-5.393-23.541-.116-5.729.596-11.443 2.114-16.968-3.428 9.309-4.653 19.287-3.578 29.149s.584 14.167 11.784 30.336c.005 0 17.246 27.398-7.308 41.841z"/></g></svg>