<svg clip-rule="evenodd" fill-rule="evenodd" stroke-linejoin="round" stroke-miterlimit="2" viewBox="0 0 600 84" xmlns="http://www.w3.org/2000/svg"><g fill="#fff" fill-rule="nonzero"><path d="m14.707 81.913-.429-63.66 22.33 63.66h10.52l22.223-63.66-.43 63.66h14.815v-79.441h-21.686l-20.075 57.005-20.397-57.005h-21.578v79.441z"/><path d="m109.823 66.347h31.347l5.797 15.566h17.499l-31.455-79.441h-14.063l-32.206 79.441h17.391zm27.053-12.775h-22.866l11.272-32.206z"/><path d="m239.291 26.841c-5.153-14.493-20.934-25.872-38.862-25.872-23.188 0-42.082 17.284-42.082 41.009 0 23.081 18.143 41.438 41.868 41.438 14.278 0 31.347-7.3 38.754-23.832 3.006-6.656 3.758-14.708 3.543-19.968h-48.094v12.883h29.629c-1.181 4.723-3.972 9.017-8.159 12.023-4.079 3.006-9.447 4.831-15.781 4.831-12.667 0-25.765-9.447-25.765-27.375 0-17.284 12.99-26.946 25.765-26.946 6.12 0 11.165 2.04 15.245 5.26 2.361 1.825 4.294 4.08 5.904 6.549z"/><path d="m262.48 2.472h-14.278v79.441h15.351l-.322-54.965 36.608 54.965h14.171v-79.441h-15.352l.322 55.072-36.5-55.072z"/><path d="m340.204 66.347h31.347l5.797 15.566h17.499l-31.455-79.441h-14.063l-32.206 79.441h17.391zm27.053-12.775h-22.866l11.272-32.206z"/><path d="m408.803 81.913h16.21l28.449-79.441h-16.532l-20.075 60.332-19.861-60.332h-16.532z"/><path d="m448.631 42.944c0 21.256 17.177 40.472 41.546 40.472 24.262 0 41.868-18.679 41.868-41.223 0-22.545-17.713-41.224-41.761-41.224-22.114 0-41.653 16.425-41.653 41.868zm15.996-.859c0-13.956 9.876-27.053 25.765-27.053 16.21 0 25.657 13.956 25.657 27.268 0 13.097-9.447 27.053-25.55 27.053-15.459 0-25.872-12.668-25.872-27.16z"/><path d="m526.141 81.913h17.928l18.465-30.488 19.216 30.488h18.25l-27.483-41.438 24.692-38.003h-18.036l-15.995 25.979-16.211-25.979h-18.143l24.907 37.681z"/></g></svg>