<?xml version="1.0" encoding="UTF-8" standalone="no"?><!DOCTYPE svg PUBLIC "-//W3C//DTD SVG 1.1//EN" "http://www.w3.org/Graphics/SVG/1.1/DTD/svg11.dtd"><svg width="100%" height="100%" viewBox="0 0 600 183" version="1.1" xmlns="http://www.w3.org/2000/svg" xmlns:xlink="http://www.w3.org/1999/xlink" xml:space="preserve" xmlns:serif="http://www.serif.com/" style="fill-rule:evenodd;clip-rule:evenodd;stroke-linejoin:round;stroke-miterlimit:2;"><g id="magnavox_odyssey2_alt4"><path d="M584.367,29.367c-1.642,1.535 -3.245,3.119 -4.853,4.689c-1.279,1.253 -2.259,0.976 -4.064,0.976l-26.477,0c-1.578,0 -2.635,-0.094 -3.207,-0.546c-0.839,-0.661 -0.649,-1.884 0.438,-2.979c4.112,-4.365 8.23,-8.731 12.341,-13.095c1.964,-1.807 3.796,-3.663 7.54,-4.878c2.289,-0.742 4.317,-0.915 6.686,-0.915l10.908,-0c2.694,0.252 5.171,-5.037 2.295,-6.045l-17.861,0c-2.35,0.168 -3.02,-0.669 -2.014,-2.519c1.937,-2.26 3.073,-3.641 4.032,-3.526l20.72,0c2.093,0 5.082,0.219 6.792,1.64c3.665,3.036 2.554,8.687 0.07,12.339c-2.146,3.148 -6.94,5.338 -10.585,5.462l-14.244,-0c-3.48,0.252 -8.011,7.424 -1.739,7.507l12.492,0c1.796,0.001 1.842,0.853 0.73,1.89" style="fill:#fff;fill-rule:nonzero;"/><path d="M241.215,86.188l0,0l-1.733,-9.954c-0.302,-1.733 0.23,-2.817 2.334,-2.817l28.85,-0c5.008,-0.724 5.174,-4.184 4.668,-8.039l-30.784,0c-3.155,0.143 -5.184,-0.823 -6.536,-2.383c-1.252,-1.442 -1.326,-2.773 -1.641,-4.593l-6.054,-34.76c-0.89,-5.104 0.67,-8.695 5.091,-8.695l56.233,0c5.895,0 10.146,-0.595 9.438,8.097l-0.652,8.045c-0.108,1.317 -0.224,2.496 -0.564,3.742c-0.742,2.72 -3.275,3.131 -6.095,3.174l-31.871,0c-1.447,0 -1.927,0.082 -1.932,1.074l-0.028,4.944c-0.007,1.122 0.78,0.971 2.573,0.971l24.377,0c1.784,0 3.523,-0.084 5.275,0.337c3.268,0.784 5.03,2.706 5.937,5.168c0.753,2.052 0.445,3.743 0.271,5.883l-2.422,29.806l0,0l-7.794,95.862l-30.249,0l-16.692,-95.862Z" style="fill:#fff;"/><path d="M444.688,80.792l-0.001,0l-73.218,101.258l16.442,0l83.006,-95.862l0.002,0l17.899,-20.674c3.52,0.003 5.364,0.004 8.88,0.005c5.316,-0.036 9.276,-3.178 13.279,-7.459l34.519,-36.529c3.128,-3.318 4.829,-6.584 -0.027,-6.584l-25.406,0c-1.36,0.117 -2.266,0.492 -2.704,1.13c-7.408,8.561 -13.894,17.122 -21.299,25.683c-1.403,1.652 -2.348,2.392 -3.264,2.222c-2.114,0.012 -3.86,0.024 -5.974,0.038c-1.894,-0.069 -2.007,-1.052 -0.565,-2.946c5.901,-8.139 11.862,-15.793 17.761,-23.933c1.508,-2.008 0.253,-2.196 -2.026,-2.196l-19.174,0c-8.7,0 -9.619,-1.158 -18.571,12.329c-7.062,10.645 -13.912,21.292 -20.976,31.939c-2.099,3.524 -1.736,6.38 2.574,6.276l9.927,-0.026l-11.084,15.329Z" style="fill:#fff;"/><path d="M123.374,80.791l-22.308,-30.841c-1.081,-1.495 -1.226,-1.691 -1.895,-2.826c-0.585,-0.99 0.15,-2.111 1.714,-2.208c6.364,-0.061 12.727,-0.122 19.09,-0.183c3.126,0.057 4.226,0.093 5.978,3.004c5.021,7.441 9.516,15.145 14.538,22.587c0.997,1.844 2.453,1.921 5.467,1.957c3.481,0.042 5.563,-0.382 3.425,-3.953l-16.515,-27.586c-2.482,-4.147 -9.803,-3.449 -10.888,-3.449l-24.683,0c-2.911,0 -5.132,0.175 -6.959,-2.219l-9.825,-13.542c-2.399,-3.31 -1.447,-6.585 2.976,-6.585l46.986,0c5.896,0 11.605,-2.052 18.479,12.329l26.67,55.784l1.497,3.13l45.829,95.859l-26.336,0l-73.24,-101.258l0,0Z" style="fill:#fff;"/><path d="M194.792,82.479l-6.839,-16.965c-3.205,0.003 -4.884,0.004 -8.09,0.005c-4.828,-0.036 -7.221,-3.178 -9.218,-7.459l-17.36,-36.528c-1.576,-3.319 -1.868,-6.585 2.553,-6.585l23.14,0c1.195,0.117 1.872,0.492 2.029,1.13c3.447,8.561 6.052,17.122 9.502,25.683c0.639,1.652 1.215,2.392 2.117,2.222c1.918,0.012 3.506,0.024 5.425,0.038c1.754,-0.069 2.238,-1.052 1.652,-2.946c-2.237,-8.139 -4.715,-15.793 -6.953,-23.933c-0.601,-2.008 0.621,-2.196 2.693,-2.196l15.842,0c7.931,0 9.214,-1.158 12.167,12.329c2.331,10.645 4.466,21.292 6.797,31.939c0.551,3.524 -0.879,6.38 -4.766,6.276l-7.41,-0.026l5.66,20.725l-0.003,0l0.001,0.002l26.182,95.859l-14.977,0l-40.144,-99.57l0,0Z" style="fill:#fff;"/><path d="M370.734,14.947c5.742,0 9.989,-0.582 7.203,7.884l-2.826,8.57c-0.428,1.284 -0.832,2.429 -1.468,3.643c-1.387,2.649 -3.952,3.049 -6.71,3.091l-28.4,-0c-1.407,-0 -1.887,0.079 -2.145,1.044l-1.453,5.446c-0.289,1.091 0.524,0.946 2.269,0.946l21.103,0c1.734,0 3.447,-0.08 5.05,0.328c2.985,0.762 4.235,2.634 4.511,5.031c0.229,1.998 -0.485,3.645 -1.177,5.728l-10.524,29.529l0,-0l-34.151,95.862l-29.707,0l11.778,-99.082l0.001,0l0.76,-6.385c0.132,-1.687 0.911,-2.743 2.966,-2.742l21.711,-0c5.05,-0.707 6.064,-4.076 6.518,-7.828l-19.615,0c-7.055,0.315 -10.357,-4.346 -9.899,-10.55l2.361,-32.052c0.367,-4.967 3.854,-8.466 8.158,-8.466l0.002,0l0,0.003l53.684,0Z" style="fill:#fff;"/><path d="M365.296,80.791c3.515,-9.262 5.548,-16.117 19.933,-57.38c1.732,-4.965 6.363,-8.464 10.909,-8.464l56.68,0c6.062,0 10.707,-0.582 5.471,7.884l-5.303,8.57c-0.8,1.284 -1.537,2.429 -2.536,3.643c-2.188,2.649 -5.006,3.049 -7.927,3.091l-22.643,-0c-1.488,-0 -3.431,-0.141 -3.388,0.696l0.227,4.52c0.047,0.95 1.028,1.683 2.872,1.683l12.348,0l8.639,0.059c1.9,0.013 2.689,1.744 1.794,3.241l-3.422,5.728l-8.019,12.39c-0.339,0.018 -0.677,0.027 -1.019,0.032l-24.205,-0c-1.545,-0 -3.574,-0.141 -3.513,0.934l0.235,4.282c0.055,0.949 1.067,1.684 2.977,1.684l13.524,-0l7.482,0.049l-8.253,12.753l-0.001,-0l-62.036,95.863l-31.367,0c25.679,-64.663 36.094,-90.069 40.54,-101.258l0.001,0Z" style="fill:#fff;"/><path d="M59.879,80.791l-51.86,-52.013c-2.367,-2.353 -5.33,-5.37 -6.708,-7.239c-2.45,-3.29 -1.467,-6.599 2.954,-6.599l54.857,-0c5.902,-0 8.327,-1.408 18.494,12.344c14.878,20.125 28.151,37.831 39.998,53.521c16.249,21.481 33.781,44.442 44.933,59.208c12.481,16.541 22.901,30.36 31.716,42.035l-33.434,0c-9.783,-9.814 -21.005,-21.065 -33.974,-34.077l-66.976,-67.18l0,0Zm25.941,-8.677c-1.723,0.026 -4.548,0.088 -6.242,0.061c-1.921,-0.031 -2.466,-0.466 -3.66,-1.794l-26.171,-29.125c-1.176,-1.311 -1.038,-2.8 1.135,-2.803l8.055,-0.007c1.084,-0.002 1.606,0.109 3.61,2.533l23.561,28.477c1.333,1.609 0.447,2.65 -0.288,2.658Z" style="fill:#fff;"/></g></svg>