<?xml version="1.0" encoding="UTF-8" standalone="no"?><!DOCTYPE svg PUBLIC "-//W3C//DTD SVG 1.1//EN" "http://www.w3.org/Graphics/SVG/1.1/DTD/svg11.dtd"><svg width="100%" height="100%" viewBox="0 0 600 84" version="1.1" xmlns="http://www.w3.org/2000/svg" xmlns:xlink="http://www.w3.org/1999/xlink" xml:space="preserve" xmlns:serif="http://www.serif.com/" style="fill-rule:evenodd;clip-rule:evenodd;stroke-linejoin:round;stroke-miterlimit:2;"><g id="magnavox"><path d="M14.707,81.603l-0.429,-63.661l22.33,63.661l10.52,-0l22.223,-63.661l-0.43,63.661l14.815,-0l-0,-79.442l-21.686,0l-20.075,57.005l-20.397,-57.005l-21.578,0l-0,79.442l14.707,-0Z" style="fill:#fff;fill-rule:nonzero;"/><path d="M109.823,66.037l31.347,-0l5.797,15.566l17.499,-0l-31.455,-79.442l-14.063,0l-32.206,79.442l17.391,-0l5.69,-15.566Zm27.053,-12.776l-22.866,0l11.272,-32.206l11.594,32.206Z" style="fill:#fff;fill-rule:nonzero;"/><path d="M239.291,26.53c-5.153,-14.492 -20.934,-25.872 -38.862,-25.872c-23.188,0 -42.082,17.284 -42.082,41.009c-0,23.081 18.143,41.439 41.868,41.439c14.278,-0 31.347,-7.3 38.754,-23.833c3.006,-6.656 3.758,-14.707 3.543,-19.968l-48.094,0l-0,12.883l29.629,-0c-1.181,4.723 -3.972,9.018 -8.159,12.024c-4.079,3.005 -9.447,4.83 -15.781,4.83c-12.667,0 -25.765,-9.447 -25.765,-27.375c0,-17.284 12.99,-26.946 25.765,-26.946c6.12,0 11.165,2.04 15.245,5.261c2.361,1.825 4.294,4.079 5.904,6.548l18.035,0Z" style="fill:#fff;fill-rule:nonzero;"/><path d="M262.48,2.161l-14.278,0l-0,79.442l15.351,-0l-0.322,-54.965l36.608,54.965l14.171,-0l-0,-79.442l-15.352,0l0.322,55.073l-36.5,-55.073Z" style="fill:#fff;fill-rule:nonzero;"/><path d="M340.204,66.037l31.347,-0l5.797,15.566l17.499,-0l-31.455,-79.442l-14.063,0l-32.206,79.442l17.391,-0l5.69,-15.566Zm27.053,-12.776l-22.866,0l11.272,-32.206l11.594,32.206Z" style="fill:#fff;fill-rule:nonzero;"/><path d="M408.803,81.603l16.21,-0l28.449,-79.442l-16.532,0l-20.075,60.333l-19.861,-60.333l-16.532,0l28.341,79.442Z" style="fill:#fff;fill-rule:nonzero;"/><path d="M448.631,42.633c0,21.256 17.177,40.473 41.546,40.473c24.262,-0 41.868,-18.68 41.868,-41.224c0,-22.544 -17.713,-41.224 -41.761,-41.224c-22.114,0 -41.653,16.425 -41.653,41.868l0,0.107Zm15.996,-0.858c-0,-13.956 9.876,-27.054 25.765,-27.054c16.21,0 25.657,13.956 25.657,27.268c0,13.097 -9.447,27.053 -25.55,27.053c-15.459,0 -25.872,-12.667 -25.872,-27.16l-0,-0.107Z" style="fill:#fff;fill-rule:nonzero;"/><path d="M526.141,81.603l17.928,-0l18.465,-30.489l19.216,30.489l18.25,-0l-27.483,-41.439l24.692,-38.003l-18.036,0l-15.995,25.98l-16.211,-25.98l-18.143,0l24.907,37.681l-27.59,41.761Z" style="fill:#fff;fill-rule:nonzero;"/></g></svg>