<svg clip-rule="evenodd" fill-rule="evenodd" stroke-linejoin="round" stroke-miterlimit="2" viewBox="0 0 600 146" xmlns="http://www.w3.org/2000/svg"><g fill="#fff"><path d="m72.806 58.039v81.352c0 4.098 1.604 5.702 5.702 5.702h35.377c10.903 0 19.745-8.842 19.745-19.745v-53.266c0-10.903-8.842-19.746-19.745-19.746h-35.377c-4.098 0-5.702 1.605-5.702 5.703zm19.768 7.222c0-2.934 2.387-5.322 5.322-5.322h15.761c5.991 0 10.85 4.859 10.85 10.85v55.852c0 5.99-4.859 10.849-10.85 10.849h-15.761c-2.935 0-5.322-2.388-5.322-5.322z"/><path d="m0 58.039v81.352c0 4.098 1.604 5.702 5.702 5.702h47.899c4.098 0 5.702-1.604 5.702-5.702v-81.352c0-4.098-1.604-5.703-5.702-5.703h-47.899c-4.098 0-5.702 1.605-5.702 5.703zm9.124 8.743c0-4.174 2.668-6.843 6.842-6.843h27.371c4.174 0 6.843 2.669 6.843 6.843v23.623c-8.242.6-10.644 5.961-10.644 9.07v32.693c0 2.934-2.388 5.322-5.323 5.322h-18.247c-4.174 0-6.842-2.669-6.842-6.843v-63.865z"/><path d="m342.889 58.039v81.352c0 4.098 1.604 5.702 5.702 5.702h41.056c1.049 0 1.901-.852 1.901-1.901v-1.901c0-2.098-3.224-3.801-5.322-3.801h-17.411c-3.399 0-6.159-2.76-6.159-6.159v-22.657c0-3.398 2.76-6.158 6.159-6.158h20.832c1.049 0 1.901-.851 1.901-1.901v-3.801c0-1.049-.852-1.901-1.901-1.901h-31.119c-3.787 0-6.516-2.729-6.516-6.515v-20.422c0-3.786 2.729-6.516 6.516-6.516h31.119c1.049 0 1.901-.852 1.901-1.901v-5.322c0-1.049-.852-1.901-1.901-1.901h-41.056c-4.098 0-5.702 1.605-5.702 5.703z"/><path d="m147.279 56.138v33.696s.738 2.555 1.673 3.27c1.125.874 2.615 2.471 4.425 3.991 4.744 3.976 10.537 9.39 10.629 12.204v32.722c0 1.695 1.376 3.072 3.071 3.072h12.104c1.695 0 3.072-1.377 3.072-3.072v-32.722c.091-2.814 5.884-8.228 10.629-12.204 1.809-1.52 3.299-3.117 4.425-3.991.935-.715 1.672-3.27 1.672-3.27v-33.696c0-2.098-1.703-3.802-3.801-3.802-2.099 0-3.802 1.704-3.802 3.802v28.131c0 4.851-18.247 16.726-18.247 16.726s-18.247-11.875-18.247-16.726v-28.131c0-2.098-1.703-3.802-3.801-3.802-2.099 0-3.802 1.704-3.802 3.802z"/><path d="m405.051 56.138v33.696s.738 2.555 1.672 3.27c1.126.874 2.616 2.471 4.425 3.991 4.744 3.976 10.538 9.39 10.629 12.204v32.722c0 1.695 1.377 3.072 3.072 3.072h12.104c1.695 0 3.071-1.377 3.071-3.072v-32.722c.092-2.814 5.886-8.228 10.629-12.204 1.809-1.52 3.3-3.117 4.425-3.991.935-.715 1.673-3.27 1.673-3.27v-33.696c0-2.098-1.704-3.802-3.801-3.802-2.098 0-3.802 1.704-3.802 3.802v28.131c0 4.851-18.247 16.726-18.247 16.726s-18.247-11.875-18.247-16.726v-28.131c0-2.098-1.704-3.802-3.802-3.802s-3.801 1.704-3.801 3.802z"/><path d="m329.386 139.391c0 4.098-1.604 5.702-5.702 5.702h-40.296c-4.099 0-5.703-1.604-5.703-5.702v-18.628c0-2.517 2.045-4.562 4.562-4.562h9.124c2.517 0 4.562 2.045 4.562 4.562v11.405c0 2.934 2.388 5.322 5.322 5.322h12.165c2.934 0 5.322-2.388 5.322-5.322v-24.33c0-2.934-2.388-5.322-5.322-5.322h-28.892c-4.174 0-6.843-2.668-6.843-6.843v-37.634c0-4.098 1.604-5.703 5.703-5.703h40.296c4.098 0 5.702 1.605 5.702 5.703v18.627c0 2.517-2.045 4.562-4.562 4.562s-4.562-2.045-4.562-4.562v-11.405c0-2.934-2.388-5.322-5.322-5.322h-22.809c-2.934 0-5.322 2.388-5.322 5.322v22.809c0 2.935 2.388 5.322 5.322 5.322h30.412c3.671 0 6.179 2.066 6.729 5.399l.083.684c.012.126.019.126.024.094.005-.031.007-.094.007-.094z"/><path d="m264.183 139.391c0 4.098-1.604 5.702-5.703 5.702h-40.296c-4.098 0-5.702-1.604-5.702-5.702v-18.628c0-2.517 2.045-4.562 4.562-4.562h9.124c2.517 0 4.561 2.045 4.561 4.562v11.405c0 2.934 2.388 5.322 5.323 5.322h12.164c2.934 0 5.322-2.388 5.322-5.322v-24.33c0-2.934-2.388-5.322-5.322-5.322h-28.891c-4.174 0-6.843-2.668-6.843-6.843v-37.634c0-4.098 1.604-5.703 5.702-5.703h40.296c4.099 0 5.703 1.605 5.703 5.703v18.627c0 2.517-2.045 4.562-4.562 4.562s-4.562-2.045-4.562-4.562v-11.405c0-2.934-2.388-5.322-5.322-5.322h-22.809c-2.935 0-5.322 2.388-5.322 5.322v22.809c0 2.935 2.387 5.322 5.322 5.322h30.412c3.671 0 6.179 2.066 6.729 5.399l.083.684c.012.126.019.126.024.094.005-.031.007-.094.007-.094z"/><path d="m484.455 8.181v-7.908h93.674l.192.001c11.984.105 21.679 9.865 21.679 21.871v13.705c0 12.072-9.8 21.872-21.871 21.872h-67.045c-.967 0-1.751.784-1.751 1.752v8.197c0 .968.784 1.752 1.751 1.752h87.456v22.874h-121.238v-35.577c0-12.072 9.801-21.872 21.872-21.872h67.044c.967 0 1.752-.784 1.752-1.752v-8.197c0-.968-.785-1.752-1.752-1.752h-81.763v-7.907h86.142c9.509 0 9.659.15 9.659 9.659v8.197c0 9.417-.243 9.659-9.659 9.659-10.723 0-10.723 0-67.044 0-10.975 0-13.964 6.257-13.964 13.965v27.67h96.665v-7.06c-19.6 0-69.564 0-79.549 0-9.984 0-9.659.326-9.659-9.659v-8.197c0-6.898 2.761-9.659 9.659-9.659h67.044c10.72 0 13.965-3.245 13.965-13.965 0-13.705 0 0 0-13.705 0-8.874-2.032-13.876-10.905-13.964 0 0-84.447-.001-84.447-.001v.001h-7.907z"/></g></svg>