<?xml version="1.0" encoding="UTF-8" standalone="no"?><!DOCTYPE svg PUBLIC "-//W3C//DTD SVG 1.1//EN" "http://www.w3.org/Graphics/SVG/1.1/DTD/svg11.dtd"><svg width="100%" height="100%" viewBox="0 0 600 196" version="1.1" xmlns="http://www.w3.org/2000/svg" xmlns:xlink="http://www.w3.org/1999/xlink" xml:space="preserve" xmlns:serif="http://www.serif.com/" style="fill-rule:evenodd;clip-rule:evenodd;stroke-linejoin:round;stroke-miterlimit:2;"><g id="magnavox_odyssey"><g><path d="M9.292,51.938l-0.271,-40.22l14.107,40.22l6.647,0l14.04,-40.22l-0.271,40.22l9.359,0l0,-50.19l-13.7,-0l-12.683,36.015l-12.887,-36.015l-13.633,-0l-0,50.19l9.292,0Z" style="fill:#fff;fill-rule:nonzero;"/><path d="M69.385,42.104l19.805,-0l3.662,9.834l11.056,0l-19.873,-50.19l-8.885,-0l-20.347,50.19l10.987,0l3.595,-9.834Zm17.092,-8.072l-14.447,0l7.122,-20.347l7.325,20.347Z" style="fill:#fff;fill-rule:nonzero;"/><path d="M151.182,17.144c-3.256,-9.156 -13.226,-16.346 -24.553,-16.346c-14.65,0 -26.587,10.92 -26.587,25.909c-0,14.583 11.462,26.181 26.451,26.181c9.021,-0 19.805,-4.612 24.485,-15.057c1.899,-4.206 2.374,-9.292 2.238,-12.616l-30.385,0l-0,8.139l18.72,0c-0.747,2.984 -2.51,5.697 -5.155,7.597c-2.578,1.899 -5.969,3.052 -9.97,3.052c-8.004,-0 -16.278,-5.969 -16.278,-17.296c-0,-10.919 8.206,-17.024 16.278,-17.024c3.866,0 7.053,1.289 9.631,3.324c1.492,1.153 2.713,2.577 3.73,4.137l11.395,0Z" style="fill:#fff;fill-rule:nonzero;"/><path d="M165.832,1.748l-9.021,-0l0,50.19l9.699,0l-0.203,-34.726l23.128,34.726l8.953,0l-0,-50.19l-9.699,-0l0.203,34.794l-23.06,-34.794Z" style="fill:#fff;fill-rule:nonzero;"/><path d="M214.937,42.104l19.805,-0l3.662,9.834l11.056,0l-19.873,-50.19l-8.885,-0l-20.347,50.19l10.987,0l3.595,-9.834Zm17.092,-8.072l-14.447,0l7.122,-20.347l7.325,20.347Z" style="fill:#fff;fill-rule:nonzero;"/><path d="M258.277,51.938l10.242,0l17.973,-50.19l-10.445,-0l-12.683,38.117l-12.548,-38.117l-10.445,-0l17.906,50.19Z" style="fill:#fff;fill-rule:nonzero;"/><path d="M283.44,27.318c0,13.429 10.852,25.57 26.248,25.57c15.329,-0 26.452,-11.802 26.452,-26.045c0,-14.243 -11.191,-26.045 -26.384,-26.045c-13.972,0 -26.316,10.377 -26.316,26.452l0,0.068Zm10.106,-0.543c0,-8.817 6.24,-17.092 16.278,-17.092c10.242,0 16.21,8.818 16.21,17.228c0,8.274 -5.968,17.092 -16.142,17.092c-9.767,-0 -16.346,-8.004 -16.346,-17.16l0,-0.068Z" style="fill:#fff;fill-rule:nonzero;"/><path d="M332.41,51.938l11.326,0l11.666,-19.262l12.141,19.262l11.53,0l-17.363,-26.18l15.6,-24.01l-11.395,-0l-10.106,16.413l-10.241,-16.413l-11.463,-0l15.736,23.806l-17.431,26.384Z" style="fill:#fff;fill-rule:nonzero;"/></g><g><path d="M95.64,81.178l0,106.866c0,5.383 2.107,7.49 7.491,7.49l46.471,0c14.323,0 25.938,-11.615 25.938,-25.938l-0,-69.971c-0,-14.322 -11.615,-25.938 -25.938,-25.938l-46.471,0c-5.384,0 -7.491,2.108 -7.491,7.491Zm25.968,9.488c-0,-3.855 3.136,-6.991 6.991,-6.991l20.704,-0c7.87,-0 14.252,6.382 14.252,14.252l0,73.368c0,7.869 -6.382,14.252 -14.252,14.252l-20.704,-0c-3.855,-0 -6.991,-3.137 -6.991,-6.991l-0,-87.89Z" style="fill:#fff;"/><path d="M-0,81.178l-0,106.866c-0,5.383 2.107,7.49 7.491,7.49l62.921,0c5.383,0 7.49,-2.107 7.49,-7.49l0,-106.866c0,-5.383 -2.107,-7.491 -7.49,-7.491l-62.921,0c-5.384,0 -7.491,2.108 -7.491,7.491Zm11.985,11.485c-0,-5.482 3.505,-8.988 8.989,-8.988l35.955,-0c5.482,-0 8.988,3.506 8.988,8.988l0,31.032c-10.826,0.788 -13.982,7.83 -13.982,11.914l-0,42.947c-0,3.854 -3.136,6.991 -6.991,6.991l-23.97,-0c-5.484,-0 -8.989,-3.505 -8.989,-8.989l-0,-83.895Z" style="fill:#fff;"/><path d="M450.427,81.178l0,106.866c0,5.383 2.107,7.49 7.491,7.49l53.932,0c1.379,0 2.497,-1.118 2.497,-2.497l0,-2.496c0,-2.756 -4.235,-4.994 -6.991,-4.994l-22.871,-0c-4.465,-0 -8.09,-3.625 -8.09,-8.09l-0,-29.763c-0,-4.464 3.625,-8.09 8.09,-8.09l27.365,0c1.379,0 2.497,-1.118 2.497,-2.496l0,-4.994c0,-1.378 -1.118,-2.497 -2.497,-2.497l-40.878,-0c-4.974,-0 -8.56,-3.585 -8.56,-8.559l0,-26.826c0,-4.974 3.586,-8.56 8.56,-8.56l40.878,0c1.379,0 2.497,-1.119 2.497,-2.497l0,-6.991c0,-1.378 -1.118,-2.497 -2.497,-2.497l-53.932,0c-5.384,0 -7.491,2.108 -7.491,7.491Z" style="fill:#fff;"/><path d="M193.47,78.681l-0,44.264c-0,0 0.969,3.357 2.197,4.296c1.478,1.148 3.435,3.245 5.812,5.243c6.233,5.223 13.843,12.335 13.963,16.03l-0,42.985c-0,2.227 1.808,4.035 4.034,4.035l15.901,0c2.227,0 4.035,-1.808 4.035,-4.035l-0,-42.985c0.12,-3.695 7.73,-10.807 13.962,-16.03c2.377,-1.998 4.335,-4.095 5.813,-5.243c1.228,-0.939 2.197,-4.296 2.197,-4.296l0,-44.264c0,-2.756 -2.237,-4.994 -4.993,-4.994c-2.757,0 -4.994,2.238 -4.994,4.994l-0,36.953c-0,6.373 -23.97,21.973 -23.97,21.973c-0,-0 -23.97,-15.6 -23.97,-21.973l0,-36.953c0,-2.756 -2.237,-4.994 -4.994,-4.994c-2.756,0 -4.993,2.238 -4.993,4.994Z" style="fill:#fff;"/><path d="M532.085,78.681l0,44.264c0,0 0.969,3.357 2.197,4.296c1.478,1.148 3.437,3.245 5.813,5.243c6.231,5.223 13.843,12.335 13.963,16.03l-0,42.985c-0,2.227 1.808,4.035 4.035,4.035l15.9,0c2.226,0 4.035,-1.808 4.035,-4.035l-0,-42.985c0.119,-3.695 7.731,-10.807 13.962,-16.03c2.376,-1.998 4.335,-4.095 5.813,-5.243c1.228,-0.939 2.197,-4.296 2.197,-4.296l-0,-44.264c-0,-2.756 -2.238,-4.994 -4.994,-4.994c-2.755,0 -4.993,2.238 -4.993,4.994l-0,36.953c-0,6.373 -23.97,21.973 -23.97,21.973c-0,-0 -23.97,-15.6 -23.97,-21.973l-0,-36.953c-0,-2.756 -2.238,-4.994 -4.994,-4.994c-2.756,0 -4.994,2.238 -4.994,4.994Z" style="fill:#fff;"/><path d="M432.69,188.044c-0,5.383 -2.107,7.49 -7.491,7.49l-52.934,0c-5.383,0 -7.49,-2.107 -7.49,-7.49l-0,-24.47c-0,-3.306 2.686,-5.992 5.992,-5.992l11.985,-0c3.307,-0 5.993,2.686 5.993,5.992l-0,14.982c-0,3.854 3.137,6.991 6.991,6.991l15.98,-0c3.854,-0 6.991,-3.137 6.991,-6.991l0,-31.96c0,-3.855 -3.137,-6.992 -6.991,-6.992l-37.952,0c-5.484,0 -8.989,-3.504 -8.989,-8.988l-0,-49.438c-0,-5.383 2.107,-7.491 7.49,-7.491l52.934,0c5.384,0 7.491,2.108 7.491,7.491l-0,24.469c-0,3.306 -2.687,5.992 -5.993,5.992c-3.306,0 -5.992,-2.686 -5.992,-5.992l-0,-14.981c-0,-3.855 -3.137,-6.991 -6.992,-6.991l-29.962,-0c-3.854,-0 -6.991,3.136 -6.991,6.991l-0,29.962c-0,3.855 3.137,6.991 6.991,6.991l39.95,0c4.822,0 8.117,2.713 8.839,7.093l0.11,0.897c0.015,0.166 0.025,0.166 0.031,0.124c0.006,-0.041 0.009,-0.124 0.009,-0.124l-0,52.435Z" style="fill:#fff;"/><path d="M347.037,188.044c0,5.383 -2.107,7.49 -7.491,7.49l-52.933,0c-5.384,0 -7.491,-2.107 -7.491,-7.49l0,-24.47c0,-3.306 2.686,-5.992 5.993,-5.992l11.985,-0c3.306,-0 5.992,2.686 5.992,5.992l0,14.982c0,3.854 3.137,6.991 6.991,6.991l15.98,-0c3.855,-0 6.992,-3.137 6.992,-6.991l-0,-31.96c-0,-3.855 -3.137,-6.992 -6.992,-6.992l-37.952,0c-5.484,0 -8.989,-3.504 -8.989,-8.988l0,-49.438c0,-5.383 2.107,-7.491 7.491,-7.491l52.933,0c5.384,0 7.491,2.108 7.491,7.491l0,24.469c0,3.306 -2.686,5.992 -5.992,5.992c-3.307,0 -5.993,-2.686 -5.993,-5.992l0,-14.981c0,-3.855 -3.137,-6.991 -6.991,-6.991l-29.963,-0c-3.855,-0 -6.991,3.136 -6.991,6.991l0,29.962c0,3.855 3.136,6.991 6.991,6.991l39.95,0c4.823,0 8.117,2.713 8.839,7.093l0.11,0.897c0.015,0.166 0.025,0.166 0.031,0.124c0.007,-0.041 0.009,-0.124 0.009,-0.124l0,52.435Z" style="fill:#fff;"/></g></g></svg>