<svg clip-rule="evenodd" fill-rule="evenodd" stroke-linejoin="round" stroke-miterlimit="2" viewBox="0 0 600 142" xmlns="http://www.w3.org/2000/svg"><g fill="#fff"><path d="m77.616 82.417c-10.167-13.752-12.592-12.344-18.494-12.344h-54.857c-4.421 0-5.404 3.309-2.954 6.6 1.378 1.868 4.341 4.885 6.708 7.238l57.241 57.411h56.422c-12.856-16.995-27.461-36.444-44.066-58.905zm8.204 44.831c-1.723.025-4.548.087-6.242.061-1.921-.031-2.466-.466-3.66-1.795l-26.171-29.125c-1.176-1.31-1.038-2.8 1.135-2.802l8.055-.008c1.084-.001 1.606.11 3.61 2.534l23.561 28.476c1.333 1.609.447 2.651-.288 2.659z"/><path d="m83.489 70.081h46.986c5.896 0 11.605-2.052 18.479 12.328l28.166 58.914h-49.841l-26.213-36.24c-1.081-1.494-1.226-1.69-1.895-2.826-.585-.989.15-2.11 1.714-2.208 6.364-.06 12.727-.121 19.09-.182 3.126.056 4.226.093 5.978 3.004 5.021 7.441 9.516 15.145 14.538 22.587.997 1.844 2.453 1.92 5.467 1.957 3.481.042 5.563-.382 3.425-3.954l-16.515-27.585c-2.482-4.147-9.803-3.449-10.888-3.449h-24.683c-2.911 0-5.132.175-6.959-2.219l-9.825-13.543c-2.399-3.309-1.447-6.584 2.976-6.584z"/><path d="m155.838 70.081h23.14c1.195.116 1.872.491 2.029 1.13 3.447 8.561 6.052 17.122 9.502 25.683.639 1.651 1.215 2.392 2.117 2.221 1.918.012 3.506.025 5.425.039 1.754-.07 2.238-1.053 1.652-2.946-2.237-8.14-4.715-15.793-6.953-23.933-.601-2.008.621-2.196 2.693-2.196h15.842c7.931 0 9.214-1.158 12.167 12.328 2.331 10.645 4.466 21.293 6.797 31.94.551 3.524-.879 6.379-4.766 6.275l-7.41-.025 5.66 20.725h-27.446l-8.334-20.674c-3.205.002-4.884.003-8.09.004-4.828-.035-7.221-3.177-9.218-7.458l-17.36-36.529c-1.576-3.318-1.868-6.584 2.553-6.584z"/><path d="m235.41 70.081h56.233c5.895 0 10.146-.596 9.438 8.096l-.652 8.045c-.108 1.317-.224 2.496-.564 3.742-.742 2.721-3.275 3.131-6.095 3.175h-31.871c-1.447 0-1.927.082-1.932 1.073l-.028 4.944c-.007 1.123.78.972 2.573.972h24.377c1.784 0 3.523-.084 5.275.336 3.268.784 5.03 2.707 5.937 5.168.753 2.052.445 3.743.271 5.884l-2.422 29.806h-54.735l-1.733-9.955c-.302-1.732.23-2.817 2.334-2.817h28.85c5.008-.723 5.174-4.183 4.668-8.038h-30.784c-3.155.143-5.184-.824-6.536-2.383-1.252-1.442-1.326-2.774-1.641-4.593l-6.054-34.76c-.89-5.105.67-8.695 5.091-8.695z"/><path d="m374.673 70.122c3.487.233 5.353 1.493 3.264 7.843l-2.826 8.569c-.428 1.284-.832 2.43-1.468 3.644-1.387 2.649-3.952 3.048-6.71 3.09h-28.4c-1.407 0-1.887.08-2.145 1.045l-1.453 5.445c-.289 1.092.524.947 2.269.947h21.103c1.734 0 3.447-.08 5.05.327 2.985.763 4.235 2.634 4.511 5.032.229 1.997-.485 3.644-1.177 5.727l-10.524 29.53h-52.462l1.143-9.605c.132-1.687.911-2.744 2.966-2.743h21.711c5.05-.706 6.064-4.075 6.518-7.827h-19.615c-7.055.314-10.357-4.346-9.899-10.55l2.361-32.053c.367-4.967 3.854-8.465 8.158-8.465h.002v.003h53.684c.717 0 1.412-.009 2.072-.009z"/><path d="m396.138 70.081h56.68c6.062 0 10.707-.582 5.471 7.884l-5.303 8.569c-.8 1.284-1.537 2.43-2.536 3.644-2.188 2.649-5.006 3.048-7.927 3.09h-22.643c-1.488 0-3.431-.14-3.388.696l.227 4.52c.047.95 1.028 1.684 2.872 1.684h12.348l8.639.059c1.9.013 2.689 1.744 1.794 3.24l-3.422 5.729-8.019 12.389c-.339.018-.677.028-1.019.032h-24.205c-1.545 0-3.574-.14-3.513.935l.235 4.282c.055.948 1.067 1.683 2.977 1.683h13.524l7.482.05-8.253 12.752h-54.964c5.283-13.305 5.083-14.15 22.034-62.774 1.732-4.966 6.363-8.464 10.909-8.464z"/><path d="m545.469 70.081h-25.406c-1.36.116-2.266.491-2.704 1.13-7.408 8.561-13.894 17.122-21.299 25.683-1.403 1.651-2.348 2.392-3.264 2.221-2.114.012-3.86.025-5.974.039-1.894-.07-2.007-1.053-.565-2.946 5.901-8.14 11.862-15.793 17.761-23.933 1.508-2.008.253-2.196-2.026-2.196h-19.174c-8.7 0-9.619-1.158-18.571 12.328-7.062 10.645-13.912 21.293-20.976 31.94-2.099 3.524-1.736 6.379 2.574 6.275l9.927-.025-14.985 20.725h30.132l17.899-20.674c3.52.002 5.364.003 8.88.004 5.316-.035 9.276-3.177 13.279-7.458l34.519-36.53c3.128-3.317 4.829-6.583-.027-6.583z"/><path d="m584.367 84.5c-1.642 1.535-3.245 3.119-4.853 4.69-1.279 1.253-2.259.976-4.064.976h-26.477c-1.578 0-2.635-.094-3.207-.547-.839-.661-.649-1.884.438-2.978 4.112-4.365 8.23-8.732 12.341-13.096 1.964-1.806 3.796-3.662 7.54-4.877 2.289-.742 4.317-.916 6.686-.916h10.908c2.694.253 5.171-5.037 2.295-6.044h-17.861c-2.35.167-3.02-.67-2.014-2.519 1.937-2.26 3.073-3.641 4.032-3.526h20.72c2.093 0 5.082.219 6.792 1.64 3.665 3.036 2.554 8.686.07 12.339-2.146 3.147-6.94 5.338-10.585 5.462h-14.244c-3.48.252-8.011 7.424-1.739 7.507h12.492c1.796.001 1.842.852.73 1.889z"/><g fill-rule="nonzero"><path d="m11.859 54.652-.287-42.55 14.924 42.55h7.032l14.853-42.55-.287 42.55h9.902v-53.098h-14.494l-13.418 38.101-13.633-38.101h-14.422v53.098z"/><path d="m75.432 44.247h20.952l3.874 10.405h11.696l-21.023-53.098h-9.4l-21.526 53.098h11.624zm18.082-8.538h-15.284l7.534-21.526z"/><path d="m161.966 17.842c-3.444-9.686-13.992-17.292-25.975-17.292-15.498 0-28.127 11.552-28.127 27.409 0 15.427 12.127 27.697 27.984 27.697 9.543 0 20.952-4.879 25.903-15.929 2.009-4.449 2.511-9.83 2.368-13.346h-32.146v8.61h19.804c-.789 3.157-2.655 6.027-5.453 8.037-2.727 2.009-6.314 3.228-10.548 3.228-8.467 0-17.221-6.314-17.221-18.297 0-11.552 8.683-18.01 17.221-18.01 4.09 0 7.463 1.364 10.189 3.516 1.579 1.22 2.87 2.727 3.947 4.377z"/><path d="m177.465 1.554h-9.543v53.098h10.26l-.215-36.738 24.468 36.738h9.471v-53.098h-10.261l.216 36.81-24.396-36.81z"/><path d="m229.414 44.247h20.952l3.874 10.405h11.696l-21.024-53.098h-9.399l-21.526 53.098h11.624zm18.082-8.538h-15.284l7.534-21.526z"/><path d="m275.264 54.652h10.835l19.014-53.098h-11.05l-13.418 40.326-13.274-40.326h-11.05z"/><path d="m301.884 28.605c0 14.207 11.481 27.051 27.769 27.051 16.216 0 27.983-12.485 27.983-27.553s-11.839-27.553-27.911-27.553c-14.782 0-27.841 10.978-27.841 27.983zm10.692-.574c0-9.328 6.601-18.082 17.22-18.082 10.835 0 17.149 9.328 17.149 18.226 0 8.754-6.314 18.081-17.077 18.081-10.332 0-17.292-8.466-17.292-18.153z"/><path d="m353.69 54.652h11.983l12.341-20.378 12.844 20.378h12.198l-18.369-27.697 16.503-25.401h-12.054l-10.691 17.365-10.835-17.365h-12.126l16.647 25.186z"/></g></g></svg>