<svg clip-rule="evenodd" fill-rule="evenodd" stroke-linejoin="round" stroke-miterlimit="2" viewBox="0 0 600 183" xmlns="http://www.w3.org/2000/svg"><g fill="#fff"><path d="m584.367 29.367c-1.642 1.535-3.245 3.119-4.853 4.689-1.279 1.253-2.259.976-4.064.976h-26.477c-1.578 0-2.635-.094-3.207-.546-.839-.661-.649-1.884.438-2.979 4.112-4.365 8.23-8.731 12.341-13.095 1.964-1.807 3.796-3.663 7.54-4.878 2.289-.742 4.317-.915 6.686-.915h10.908c2.694.252 5.171-5.037 2.295-6.045h-17.861c-2.35.168-3.02-.669-2.014-2.519 1.937-2.26 3.073-3.641 4.032-3.526h20.72c2.093 0 5.082.219 6.792 1.64 3.665 3.036 2.554 8.687.07 12.339-2.146 3.148-6.94 5.338-10.585 5.462h-14.244c-3.48.252-8.011 7.424-1.739 7.507h12.492c1.796.001 1.842.853.73 1.89" fill-rule="nonzero"/><path d="m241.215 86.188-1.733-9.954c-.302-1.733.23-2.817 2.334-2.817h28.85c5.008-.724 5.174-4.184 4.668-8.039h-30.784c-3.155.143-5.184-.823-6.536-2.383-1.252-1.442-1.326-2.773-1.641-4.593l-6.054-34.76c-.89-5.104.67-8.695 5.091-8.695h56.233c5.895 0 10.146-.595 9.438 8.097l-.652 8.045c-.108 1.317-.224 2.496-.564 3.742-.742 2.72-3.275 3.131-6.095 3.174h-31.871c-1.447 0-1.927.082-1.932 1.074l-.028 4.944c-.007 1.122.78.971 2.573.971h24.377c1.784 0 3.523-.084 5.275.337 3.268.784 5.03 2.706 5.937 5.168.753 2.052.445 3.743.271 5.883l-2.422 29.806-7.794 95.862h-30.249z"/><path d="m444.688 80.792h-.001l-73.218 101.258h16.442l83.006-95.862h.002l17.899-20.674c3.52.003 5.364.004 8.88.005 5.316-.036 9.276-3.178 13.279-7.459l34.519-36.529c3.128-3.318 4.829-6.584-.027-6.584h-25.406c-1.36.117-2.266.492-2.704 1.13-7.408 8.561-13.894 17.122-21.299 25.683-1.403 1.652-2.348 2.392-3.264 2.222-2.114.012-3.86.024-5.974.038-1.894-.069-2.007-1.052-.565-2.946 5.901-8.139 11.862-15.793 17.761-23.933 1.508-2.008.253-2.196-2.026-2.196h-19.174c-8.7 0-9.619-1.158-18.571 12.329-7.062 10.645-13.912 21.292-20.976 31.939-2.099 3.524-1.736 6.38 2.574 6.276l9.927-.026z"/><path d="m123.374 80.791-22.308-30.841c-1.081-1.495-1.226-1.691-1.895-2.826-.585-.99.15-2.111 1.714-2.208 6.364-.061 12.727-.122 19.09-.183 3.126.057 4.226.093 5.978 3.004 5.021 7.441 9.516 15.145 14.538 22.587.997 1.844 2.453 1.921 5.467 1.957 3.481.042 5.563-.382 3.425-3.953l-16.515-27.586c-2.482-4.147-9.803-3.449-10.888-3.449h-24.683c-2.911 0-5.132.175-6.959-2.219l-9.825-13.542c-2.399-3.31-1.447-6.585 2.976-6.585h46.986c5.896 0 11.605-2.052 18.479 12.329l26.67 55.784 1.497 3.13 45.829 95.859h-26.336l-73.24-101.258z"/><path d="m194.792 82.479-6.839-16.965c-3.205.003-4.884.004-8.09.005-4.828-.036-7.221-3.178-9.218-7.459l-17.36-36.528c-1.576-3.319-1.868-6.585 2.553-6.585h23.14c1.195.117 1.872.492 2.029 1.13 3.447 8.561 6.052 17.122 9.502 25.683.639 1.652 1.215 2.392 2.117 2.222 1.918.012 3.506.024 5.425.038 1.754-.069 2.238-1.052 1.652-2.946-2.237-8.139-4.715-15.793-6.953-23.933-.601-2.008.621-2.196 2.693-2.196h15.842c7.931 0 9.214-1.158 12.167 12.329 2.331 10.645 4.466 21.292 6.797 31.939.551 3.524-.879 6.38-4.766 6.276l-7.41-.026 5.66 20.725h-.003l.001.002 26.182 95.859h-14.977z"/><path d="m370.734 14.947c5.742 0 9.989-.582 7.203 7.884l-2.826 8.57c-.428 1.284-.832 2.429-1.468 3.643-1.387 2.649-3.952 3.049-6.71 3.091h-28.4c-1.407 0-1.887.079-2.145 1.044l-1.453 5.446c-.289 1.091.524.946 2.269.946h21.103c1.734 0 3.447-.08 5.05.328 2.985.762 4.235 2.634 4.511 5.031.229 1.998-.485 3.645-1.177 5.728l-10.524 29.529-34.151 95.862h-29.707l11.778-99.082h.001l.76-6.385c.132-1.687.911-2.743 2.966-2.742h21.711c5.05-.707 6.064-4.076 6.518-7.828h-19.615c-7.055.315-10.357-4.346-9.899-10.55l2.361-32.052c.367-4.967 3.854-8.466 8.158-8.466h.002v.003h53.684z"/><path d="m365.296 80.791c3.515-9.262 5.548-16.117 19.933-57.38 1.732-4.965 6.363-8.464 10.909-8.464h56.68c6.062 0 10.707-.582 5.471 7.884l-5.303 8.57c-.8 1.284-1.537 2.429-2.536 3.643-2.188 2.649-5.006 3.049-7.927 3.091h-22.643c-1.488 0-3.431-.141-3.388.696l.227 4.52c.047.95 1.028 1.683 2.872 1.683h12.348l8.639.059c1.9.013 2.689 1.744 1.794 3.241l-3.422 5.728-8.019 12.39c-.339.018-.677.027-1.019.032h-24.205c-1.545 0-3.574-.141-3.513.934l.235 4.282c.055.949 1.067 1.684 2.977 1.684h13.524l7.482.049-8.253 12.753h-.001l-62.036 95.863h-31.367c25.679-64.663 36.094-90.069 40.54-101.258z"/><path d="m59.879 80.791-51.86-52.013c-2.367-2.353-5.33-5.37-6.708-7.239-2.45-3.29-1.467-6.599 2.954-6.599h54.857c5.902 0 8.327-1.408 18.494 12.344 14.878 20.125 28.151 37.831 39.998 53.521 16.249 21.481 33.781 44.442 44.933 59.208 12.481 16.541 22.901 30.36 31.716 42.035h-33.434c-9.783-9.814-21.005-21.065-33.974-34.077zm25.941-8.677c-1.723.026-4.548.088-6.242.061-1.921-.031-2.466-.466-3.66-1.794l-26.171-29.125c-1.176-1.311-1.038-2.8 1.135-2.803l8.055-.007c1.084-.002 1.606.109 3.61 2.533l23.561 28.477c1.333 1.609.447 2.65-.288 2.658z"/></g></svg>