<svg clip-rule="evenodd" fill-rule="evenodd" stroke-linejoin="round" stroke-miterlimit="2" viewBox="0 0 600 169" xmlns="http://www.w3.org/2000/svg"><path d="m179.824.929c.067.003.104.029.104.029l-.002.006c.016-.001.192.008.192.77l-.018 86.887.017.087c.018-.032.028-.049.028-.049s85.675-85.657 86.061-86.06c1.002-1.162 1.871-.938 1.871-.938l.001.001s.619.162.619.963l-.017 96.813c.365-.364 96.253-96.136 96.639-96.54 1-1.166 1.892-.916 1.892-.916l-.004.012.005-.009s.598.142.598.941v52.76l.167-.109s52.672-52.785 53.058-53.189c1.106-1.092 1.459-.705 1.462-.701l.001-.002s.285.235.285 1.814v81.716l82.09-82.25 94.176-.002c.834 0 .834.332.834.332l.003.001c0 .002.371.9-.226 1.5l-29.284 29.388h-49.231l-13.466 13.583c-.026.021-.052.043-.078.066h23.951c.367-.046.468.156.468.156l.005.003c.047.038.409.366.02 1.223l-31.198 31.196h-26.216l-14.287 14.316 82.586.001c.549-.001.69.406.702.445.009.011.416.47-.246 1.32l-30.645 30.436.001.002-130.13-.031c-.362.015-.554-.288-.554-.288s-.165-.156.269-.593l7.666-7.414v-34.658l-44.746 44.706c-.563.557-1.016.444-1.076.426l-.002.006c-.004-.002-.643-.152-.688-.739l-.085-51.771-51.32 51.282-.005-.001-54.736-.031c-.354.006-.861-.356-.861-.356l.002-.006-.002.002c0 .003-.775-.504-.779-1.889l-.095-40.91c-.35.349-83.565 83.395-84.039 83.864l-.001-.002h-50.5l-.011.004s-.611.069-.25-.432l46.665-46.474v-.003l-.084-37.207-.001-.002-.001.01s-44.073 44.135-44.492 44.55c-.358.392-1.23.304-1.275.299l-.001.002s-.885-.073-.859-1.22c-.001-.974-.083-52.09-.083-52.09v-.001l-50.873 50.999-.001-.002s-49.872.114-49.794 0c0 0 124.275-125.07 124.5-125.26.214-.183.47-.045.494-.031l.001-.002s.322.08.322.607v53.003l.001-.001s53.649-53.635 54.035-54.038c.198-.249.355-.307.455-.31h.016z" fill="#fff"/></svg>