<?xml version="1.0" encoding="UTF-8" standalone="no"?><!DOCTYPE svg PUBLIC "-//W3C//DTD SVG 1.1//EN" "http://www.w3.org/Graphics/SVG/1.1/DTD/svg11.dtd"><svg width="100%" height="100%" viewBox="0 0 600 169" version="1.1" xmlns="http://www.w3.org/2000/svg" xmlns:xlink="http://www.w3.org/1999/xlink" xml:space="preserve" xmlns:serif="http://www.serif.com/" style="fill-rule:evenodd;clip-rule:evenodd;stroke-linejoin:round;stroke-miterlimit:2;"><g id="mame"><path d="M179.824,0.929c0.067,0.003 0.104,0.029 0.104,0.029l-0.002,0.006c0.016,-0.001 0.192,0.008 0.192,0.77l-0.018,86.887l0.017,0.087c0.018,-0.032 0.028,-0.049 0.028,-0.049c-0,0 85.675,-85.657 86.061,-86.06c1.002,-1.162 1.871,-0.938 1.871,-0.938l0.001,0.001c-0,-0 0.619,0.162 0.619,0.963l-0.017,96.813c0.365,-0.364 96.253,-96.136 96.639,-96.54c1,-1.166 1.892,-0.916 1.892,-0.916l-0.004,0.012l0.005,-0.009c-0,-0 0.598,0.142 0.598,0.941l0,52.76l0.167,-0.109c-0,-0 52.672,-52.785 53.058,-53.189c1.106,-1.092 1.459,-0.705 1.462,-0.701l0.001,-0.002c0,-0 0.285,0.235 0.285,1.814l0,81.716l82.09,-82.25l94.176,-0.002c0.834,-0 0.834,0.332 0.834,0.332l0.003,0.001c0,0.002 0.371,0.9 -0.226,1.5l-29.284,29.388l-49.231,0l-13.466,13.583c-0.026,0.021 -0.052,0.043 -0.078,0.066l23.951,-0c0.367,-0.046 0.468,0.156 0.468,0.156l0.005,0.003c0.047,0.038 0.409,0.366 0.02,1.223l-31.198,31.196l-26.216,-0l-14.287,14.316l82.586,0.001c0.549,-0.001 0.69,0.406 0.702,0.445c0.009,0.011 0.416,0.47 -0.246,1.32l-30.645,30.436l0.001,0.002l-130.13,-0.031c-0.362,0.015 -0.554,-0.288 -0.554,-0.288c0,0 -0.165,-0.156 0.269,-0.593l7.666,-7.414l-0,-34.658l-44.746,44.706c-0.563,0.557 -1.016,0.444 -1.076,0.426l-0.002,0.006c-0.004,-0.002 -0.643,-0.152 -0.688,-0.739l-0.085,-51.771l-51.32,51.282l-0.005,-0.001l-54.736,-0.031c-0.354,0.006 -0.861,-0.356 -0.861,-0.356l0.002,-0.006l-0.002,0.002c0,0.003 -0.775,-0.504 -0.779,-1.889l-0.095,-40.91c-0.35,0.349 -83.565,83.395 -84.039,83.864l-0.001,-0.002l-50.5,-0l-0.011,0.004c0,-0 -0.611,0.069 -0.25,-0.432l46.665,-46.474l-0,-0.003l-0.084,-37.207l-0.001,-0.002l-0.001,0.01c-0,-0 -44.073,44.135 -44.492,44.55c-0.358,0.392 -1.23,0.304 -1.275,0.299l-0.001,0.002c0,0 -0.885,-0.073 -0.859,-1.22c-0.001,-0.974 -0.083,-52.09 -0.083,-52.09l-0,-0.001l-50.873,50.999l-0.001,-0.002c0,-0 -49.872,0.114 -49.794,-0c0,-0 124.275,-125.07 124.5,-125.26c0.214,-0.183 0.47,-0.045 0.494,-0.031l0.001,-0.002c0,-0 0.322,0.08 0.322,0.607l0,53.003l0.001,-0.001c0,-0 53.649,-53.635 54.035,-54.038c0.198,-0.249 0.355,-0.307 0.455,-0.31l0.016,0Z" style="fill:#fff;"/></g></svg>