<svg clip-rule="evenodd" fill-rule="evenodd" stroke-linejoin="round" stroke-miterlimit="2" viewBox="0 0 600 168" xmlns="http://www.w3.org/2000/svg"><path d="m179.824.064c.067.002.104.029.104.029l-.002.005c.016 0 .192.009.192.771l-.018 86.887.017.086c.018-.031.028-.048.028-.048s85.675-85.657 86.061-86.061c1.002-1.161 1.871-.938 1.871-.938l.001.001s.619.163.619.964l-.017 96.813c.365-.364 96.253-96.136 96.639-96.54 1-1.167 1.892-.916 1.892-.916l-.004.011.005-.009s.598.143.598.941v52.761l.167-.11s52.672-52.784 53.058-53.188c1.106-1.092 1.459-.705 1.462-.701l.001-.002s.285.235.285 1.814v81.716l82.09-82.25 94.176-.002c.834 0 .834.332.834.332l.003.001c0 .001.371.9-.226 1.5l-29.284 29.388h-49.231l-13.466 13.582c-.026.022-.052.044-.078.066h23.951c.367-.045.468.156.468.156l.005.004c.047.038.409.366.02 1.222l-31.198 31.196h-26.216l-14.287 14.317 82.586.001c.549-.001.69.406.702.445.009.011.416.469-.246 1.32l-30.645 30.436.001.002-130.13-.031c-.362.015-.554-.288-.554-.288s-.165-.156.269-.593l7.666-7.414v-34.658l-44.746 44.706c-.563.556-1.016.444-1.076.426l-.002.006c-.004-.002-.643-.152-.688-.739l-.085-51.772-51.32 51.283-.005-.001-54.736-.031c-.354.005-.861-.356-.861-.356l.002-.006-.002.002c0 .003-.775-.505-.779-1.889l-.095-40.91c-.35.349-83.565 83.395-84.039 83.864l-.001-.003h-50.5l-.011.005s-.611.069-.25-.433l46.665-46.473v-.004l-.084-37.206-.001-.002-.001.01s-44.073 44.135-44.492 44.549c-.358.393-1.23.305-1.275.3l-.001.002s-.885-.073-.859-1.22c-.001-.975-.083-52.09-.083-52.09v-.001l-50.873 50.999-.001-.003s-49.872.114-49.794 0c0 0 124.275-125.069 124.5-125.259.214-.183.47-.045.494-.031l.001-.002s.322.079.322.606v53.004l.001-.001s53.649-53.635 54.035-54.038c.198-.25.355-.307.455-.31h.016zm328.984 7.201 79.83-.001-21.571 21.583h-48.123l-15.37 15.341c-1.11 1.11-1.735 3.014-1.432 4.746.305 1.731 1.234 3.701 3.624 3.925v.002h14.426l-22.731 22.733-27.206.002.002.004-.002-.002-14.965 14.956c-1.106 1.116-3.17 5.807.969 8.418l.001-.001c.039.029 1.184.848 3.795 1.053h70.522s-21.297 21.296-21.297 21.296l-114.163.003.778-1.113v-39.397c-.383-4.338-4.036-4.601-4.772-4.593-1.717.001-2.711.986-3.606 1.882l-39.069 39.08v-42.464c-.682-4.493-3.494-5.004-4.127-4.995-3.006-.106-4.533 1.882-4.533 1.882l-50.61 50.627.001.001h-47.865l.005-.004.001-38.98c-.771-4.492-4.52-5.01-5.235-5l-.001.002c-3.006-.107-4.531 1.882-4.531 1.882l-82.766 82.797-.002-.002h-35.977l39.847-39.851.003.002.001-40.919c-.679-3.957-3.979-4.412-4.609-4.405l-.002.003.001-.008c-2.646-.096-4.07 1.739-4.07 1.739l-38.303 38.334v-42.876c-.644-3.749-3.776-4.382-4.357-4.521v-.001s-2.841-.619-4.966 1.838l-49.502 49.252-.001-.001h-34.637l-.031.011.003-.011 107.413-107.413.002-.004.017 40.855c.589 5.921 5.356 5.901 5.366 5.9l.001.002s3.248.16 5.359-1.95l44.043-44.044s-.071 65.838.014 73.606c.087 8.047 7.033 5.976 7.033 5.976l-.001-.004h.001s1.049-.161 2.695-1.809l79.008-79.007.001-.002.035 85.048c.076 7.081 6.332 6.468 6.332 6.468l-.001-.003h.001s2.119-.187 3.637-1.708l89.404-89.402v42.197c.885 5.327 6.056 4.847 6.056 4.847l.006-.001c.123-.015 2.108-.286 3.579-1.759l45.16-45.162v71.923c.895 5.227 5.961 4.669 6.153 4.646s2.087-.225 3.606-1.746l81.703-81.703z" fill="#fff"/></svg>