<svg clip-rule="evenodd" fill-rule="evenodd" stroke-linejoin="round" stroke-miterlimit="2" viewBox="0 0 600 214" xmlns="http://www.w3.org/2000/svg"><g fill="#fff"><g fill-rule="nonzero"><path d="m0 91.624h26.879v-64.709h.249l36.212 64.709h20.657l36.212-64.709h.249v64.709h26.879v-90.095h-42.434l-31.234 57.989-31.235-57.989h-42.434v90.095z"/><path d="m156.573 91.624h100.174v-21.653h-72.549v-14.435h49.515v-18.666h-49.515v-14.435h70.931v-20.906h-98.556z"/><path d="m266.716 60.016c0 26.381 14.808 32.603 39.696 32.603h33.226c31.11 0 44.549-1.244 44.549-27.128v-25.634h-61.971v18.666h34.345v2.613c0 8.711-7.217 9.831-14.435 9.831h-29.492c-13.937 0-17.546-3.36-17.546-18.791v-11.199c0-15.431 3.609-18.791 17.546-18.791h29.99c8.835 0 13.937 1.12 13.937 10.08h27.128v-2.862c0-17.546-4.355-28.87-35.714-28.87h-41.563c-24.888 0-39.696 6.222-39.696 32.603z"/><path d="m384.954 91.624h30.861l8.089-15.928h55.998l8.586 15.928h30.737l-49.527-90.095h-35.964zm66.7-69.189 17.919 33.848h-35.341z"/><path d="m413.938 192.803c-11.175 0-14.33-2.498-14.33-10.649 0-8.019 3.024-10.386 14.856-10.386h25.505c11.832 0 14.856 2.367 14.856 10.386 0 8.151-3.156 10.649-14.33 10.649zm-41.938-12.884c0 24.716 11.306 33.393 34.05 33.393h41.544c22.612 0 34.05-3.024 34.05-26.425v-8.283c0-17.222-4.996-26.556-33.13-26.556h-27.214c-11.437 0-16.959 2.498-21.692 7.231v-11.307c0-7.493 4.207-11.437 14.199-11.437h25.636c10.254 0 14.461 2.235 14.461 8.677h25.242v-7.494c0-12.095-7.362-21.692-35.102-21.692h-30.369c-31.158 0-41.675 8.414-41.675 37.337z"/><path d="m491.671 174.266h25.241c.921-4.338 4.076-6.31 8.546-6.31h30.763c13.41 0 16.96 1.183 16.96 11.963 0 9.203-1.447 12.884-14.856 12.884h-27.346c-13.409 0-15.644-2.235-15.644-10.255h-26.82v5.522c0 22.35 14.067 25.242 42.859 25.242h22.875c30.895 0 45.751-2.498 45.751-31.421v-6.047c0-21.035-11.701-27.609-31.947-27.609h-32.998c-10.517 0-14.461 2.235-18.143 5.916v-16.564h78.487v-20.509h-103.728z"/></g><path d="m494.454 1.529 8.599 15.644h94.707v-15.644h-103.306z"/><path d="m508.096 26.346 8.6 15.644h81.064v-15.644z"/><path d="m521.739 51.163 8.599 15.644h67.422v-15.644z"/><path d="m535.381 75.981 8.6 15.643h53.779v-15.643z"/></g></svg>