<?xml version="1.0" encoding="UTF-8" standalone="no"?><!DOCTYPE svg PUBLIC "-//W3C//DTD SVG 1.1//EN" "http://www.w3.org/Graphics/SVG/1.1/DTD/svg11.dtd"><svg width="100%" height="100%" viewBox="0 0 600 91" version="1.1" xmlns="http://www.w3.org/2000/svg" xmlns:xlink="http://www.w3.org/1999/xlink" xml:space="preserve" xmlns:serif="http://www.serif.com/" style="fill-rule:evenodd;clip-rule:evenodd;stroke-linejoin:round;stroke-miterlimit:2;"><g id="mgt_sam_coupe"><g><path d="M253.987,28.661c0,-5.3 -2.649,-8.612 -7.287,-8.612c-4.638,-0 -5.963,3.312 -5.963,7.287c0,3.975 3.313,7.287 15.9,13.25c12.588,5.963 15.238,13.913 15.238,23.85c0,9.938 -7.95,25.837 -25.837,25.837c-17.888,-0 -25.176,-11.262 -25.176,-27.826l15.9,0c0,6.626 3.313,9.938 8.613,9.938c5.3,0 7.288,-3.974 7.288,-7.287c-0,-3.312 0.531,-5.034 -18.55,-14.575c-11.926,-5.962 -12.588,-19.213 -12.588,-23.188c-0,-3.975 1.987,-16.562 12.588,-22.525c10.599,-5.962 25.837,-1.987 31.799,5.963c5.963,7.95 3.975,17.887 3.975,17.887c-6.625,0.001 -15.9,0.001 -15.9,0.001Z" style="fill:#fff;fill-rule:nonzero;"/><path d="M397.088,2.823l-19.213,-0l0,47.7l-31.137,-48.363l-19.212,0l-0,50.351l-32.464,-49.688l-19.875,-0l0.664,87.45l21.862,-0l-0,-13.249l19.212,-0l7.95,12.587l24.513,-0l-0,-42.401l27.825,43.063l21.862,-0l-0,-43.063l27.825,42.401l25.838,-0l-55.65,-86.788Zm-99.375,56.975l-0,-12.588l8.612,12.587l-8.612,0l-0,0.001Z" style="fill:#fff;fill-rule:nonzero;"/><path d="M456.713,88.948l-54.987,-86.125l110.637,-0l-25.837,41.075c-0,0 -6.626,-3.974 -15.239,9.275c-8.612,13.251 -4.636,18.55 -3.975,20.538c-2.648,4.637 -10.599,15.237 -10.599,15.237Z" style="fill:#fff;fill-rule:nonzero;"/><path d="M589.403,41.76c-2.76,1.435 -6.847,0.552 -7.619,-3.975c9.605,-6.404 12.145,-10.048 13.029,-15.127c0.883,-5.078 -3.644,-5.3 -8.281,-2.429c-4.637,2.871 -10.931,10.268 -11.152,19.654c-2.981,4.306 -6.073,9.275 -10.93,9.054c5.519,-10.269 6.624,-15.237 5.851,-18.88c-0.772,-3.644 -4.747,-3.644 -13.801,9.937c0.883,-8.171 4.305,-15.458 4.968,-17.445c0.662,-1.988 0.772,-3.644 -1.326,-3.092c-2.096,0.552 -4.857,5.52 -8.5,14.574c-3.644,9.054 -9.497,17.113 -11.262,19.212c-1.767,2.098 -4.749,2.98 -4.528,-2.541c0.222,-5.52 3.754,-9.936 4.528,-12.365c0.773,-2.429 -0.553,-6.514 -2.099,-5.521c-1.546,0.994 -6.515,10.49 -8.943,14.685c-2.429,4.196 -5.41,8.06 -6.514,9.164c-1.104,1.103 -3.314,0.773 -2.429,-2.649c0.883,-3.423 3.201,-6.956 4.306,-8.723c1.104,-1.767 3.423,-5.41 0.994,-6.404c-2.43,-0.993 -8.282,2.098 -10.268,15.568c-1.656,3.423 -3.755,5.632 -6.294,6.514c0.994,-4.858 2.208,-16.781 -2.539,-14.463c0.773,-2.65 -0.553,-3.864 -3.092,-3.423c-2.54,0.442 -13.029,6.405 -13.692,19.764c-2.319,4.085 -8.17,9.275 -11.262,9.275c-3.091,0 -4.858,-2.761 -4.637,-5.741c0.221,-2.981 4.085,-7.067 5.962,-7.95c0.663,1.657 1.766,1.546 2.429,1.546c0.663,0 2.76,-2.429 3.533,-6.183c0.773,-3.755 0.332,-5.631 -1.545,-6.294c-1.877,-0.662 -7.066,2.649 -10.158,7.067c-3.092,4.416 -8.392,13.027 -1.657,20.645c6.736,7.619 13.47,-0.661 18.329,-9.715c1.324,4.967 5.078,7.065 7.838,7.065c2.761,0 7.178,-3.423 8.944,-7.397c2.65,0.11 6.403,-3.313 8.06,-6.514c-0.111,3.532 4.306,6.845 6.957,6.294c2.649,-0.554 6.072,-7.179 8.17,-11.704c0,5.852 -0.332,10.268 3.865,10.158c4.195,-0.111 10.709,-12.035 17.886,-25.175c-3.313,16.01 -5.741,21.641 -6.294,26.278c-0.552,4.637 0.442,11.483 2.428,11.483c1.988,0 3.756,-9.826 4.307,-18.549c4.195,-1.215 5.079,-1.545 5.852,-1.545c0.774,-0 3.644,1.215 7.948,-1.877c4.308,-3.092 6.846,-7.067 9.938,-11.152c2.319,5.631 6.294,7.618 12.808,3.975c6.514,-3.644 9.937,-13.802 10.489,-16.341c-3.751,5.962 -7.838,9.826 -10.597,11.262Zm-85.9,20.205c-0.22,4.306 -3.202,5.521 -4.526,5.521c-1.325,-0 -3.754,-0.221 -3.754,-4.417c0,-4.195 3.754,-9.164 7.728,-13.028c1.546,-1.435 -0.111,2.318 -0.552,6.514c-0.443,4.196 0.22,5.962 1.104,5.41Zm52.225,-12.255c1.214,-6.404 5.961,-13.47 8.281,-13.47c2.317,0 -0.664,7.287 -1.988,9.937c-1.325,2.65 -3.533,2.871 -6.293,3.533Zm32.792,-26.609c2.097,-1.767 2.981,0.773 0.883,3.754c-2.097,2.981 -6.736,7.287 -7.95,7.729c0.553,-5.852 4.968,-9.717 7.067,-11.483Z" style="fill:#fff;fill-rule:nonzero;"/><path d="M581.343,17.36c0.11,-2.761 1.545,-6.515 4.085,-9.495c2.54,-2.982 6.955,-7.619 8.612,-7.84c1.657,-0.221 2.43,1.435 2.43,4.086c-0,2.649 -0,3.532 -1.878,4.968c-1.878,1.435 -8.06,5.851 -9.053,6.845c-0.995,0.994 -4.307,4.416 -4.196,1.436Z" style="fill:#fff;fill-rule:nonzero;"/></g><g><path d="M45.601,48.151c0.024,-0.084 4.036,-6.542 8.916,-14.33l8.856,-14.187l0,28.659l-8.916,0c-7.087,0 -8.904,-0.036 -8.856,-0.142Z" style="fill:#fff;fill-rule:nonzero;"/><path d="M73.227,48.234c0,-0.19 17.737,-28.422 17.82,-28.363c0.06,0.036 0.107,6.411 0.107,14.247l0,14.175l-8.963,0c-4.927,0 -8.964,-0.024 -8.964,-0.059Z" style="fill:#fff;fill-rule:nonzero;"/><path d="M170.163,48.151c-0.036,-0.084 -0.047,-8.358 -0.036,-18.378l0.036,-18.224l7.753,-0.036l7.74,-0.024l0,-8.666l4.274,-0l0,45.47l-9.854,0c-7.776,0 -9.877,-0.036 -9.913,-0.142Z" style="fill:#fff;fill-rule:nonzero;"/><path d="M26.807,46.607c-2.505,-4.036 -12.181,-19.803 -19.743,-32.15c-0.974,-1.602 -2.956,-4.831 -4.405,-7.182c-1.436,-2.339 -2.635,-4.31 -2.659,-4.357c-0.024,-0.048 12.537,-0.095 27.911,-0.095l27.959,-0l-3.502,5.663c-1.923,3.122 -4.132,6.696 -4.903,7.93c-0.772,1.247 -2.802,4.524 -4.512,7.302c-5.603,9.058 -14.199,22.96 -14.685,23.72l-0.487,0.76l-0.974,-1.591Z" style="fill:#fff;fill-rule:nonzero;"/><path d="M31.354,47.913c0.024,-0.083 2.149,-3.55 4.702,-7.693c2.552,-4.143 8.773,-14.258 13.819,-22.462l9.165,-14.923l1.46,-0l1.449,-0.012l-0.404,0.629c-0.225,0.332 -1.84,2.968 -3.597,5.841c-3.241,5.283 -8.596,14.009 -15.054,24.516c-1.947,3.17 -4.713,7.669 -6.15,10.008l-2.6,4.239l-1.424,-0c-1.093,-0 -1.413,-0.036 -1.366,-0.143Z" style="fill:#fff;fill-rule:nonzero;"/><path d="M136.434,47.343c3.562,-1.982 6.269,-4.416 8.667,-7.823l0.784,-1.116l-0,-13.024l-22.083,-0l0,8.987l6.138,0.083c3.372,0.036 6.162,0.107 6.186,0.131c0.107,0.107 -1.366,1.662 -2.208,2.339c-2.411,1.911 -5.07,2.908 -8.109,3.027c-1.912,0.083 -3.134,-0.071 -4.737,-0.582c-4.891,-1.567 -8.37,-5.425 -9.438,-10.483c-0.131,-0.641 -0.202,-1.508 -0.202,-2.671c-0,-2.505 0.344,-4.001 1.448,-6.233c1.745,-3.526 5.129,-6.209 9.094,-7.206c0.914,-0.226 1.354,-0.273 3.253,-0.262c1.995,0 2.303,0.024 3.36,0.321c1.436,0.38 2.968,1.057 4.096,1.781l0.866,0.558l12.336,-0l-0,-2.149l-0.82,-1.211c-2.303,-3.372 -5.651,-6.28 -9.39,-8.156c-0.677,-0.344 -1.378,-0.665 -1.544,-0.724c-0.166,-0.048 2.387,-0.095 5.675,-0.095l5.96,-0.012l-0,8.666l11.872,0l0,36.567l-22.498,-0l1.294,-0.713Z" style="fill:#fff;fill-rule:nonzero;"/><path d="M72.99,29.345l-0,-26.522l17.784,-0l-3.49,5.188c-4.785,7.171 -9.51,14.199 -12.11,18.081l-2.184,3.253Z" style="fill:#fff;fill-rule:nonzero;"/><path d="M102.409,8.961l-0.036,-6.138l6.589,-0l6.589,0.012l-0.831,0.356c-4.511,1.947 -8.928,5.995 -11.504,10.53l-0.783,1.378l-0.024,-6.138Z" style="fill:#fff;fill-rule:nonzero;"/><path d="M102.433,48.056l-0,-11.813l0.629,1.128c1.282,2.327 2.6,4.048 4.547,5.948c1.816,1.757 3.49,2.979 5.746,4.19l1.009,0.547l-11.931,-0Z" style="fill:#fff;fill-rule:nonzero;"/><path d="M189.811,48.234c0,-0.036 0.024,-0.06 0.06,-0.06c0.035,0 0.059,0.024 0.059,0.06c0,0.035 -0.024,0.059 -0.059,0.059c-0.036,0 -0.06,-0.024 -0.06,-0.059Z" style="fill:#fff;fill-rule:nonzero;"/></g></g></svg>