<svg clip-rule="evenodd" fill-rule="evenodd" stroke-linejoin="round" stroke-miterlimit="2" viewBox="0 0 600 101" xmlns="http://www.w3.org/2000/svg"><g fill="#fff"><path d="m0 98.248 21.736-97.853h38.804l1.772 54.664 26.121-54.664h38.897l-21.825 97.853h-28.174l11.66-52.612-26.21 52.612h-20.245l-1.027-52.612-13.058 52.612h-28.451zm130.692-81.904h26.21l3.544-15.949h-26.306zm8.021 82-26.399-.096 16.138-72.481h26.398zm100.001-72.577h23.6l-2.052 8.955c3.267-4.012 7.183-6.53 12.129-8.209 3.97-1.323 8.129-1.985 12.313-1.96l-6.064 23.6c-1.491 0-19.773-3.547-25.465 24.346l-5.876 25.838h-24.91z"/><path d="m224.909 71.477c0 .557-8.301 29.661-44.775 28.919-48.884-1.026-36.195-79.383 19.307-76.585 31.529 1.583 29.946 27.797 29.665 28.919h-27.24c.373-1.026 1.307-11.848-7.371-11.66-16.137.469-27.612 40.483-9.795 40.86 8.208.28 12.036-9.235 12.781-10.446h27.428zm234.049 29.2c-53.077-2.241-37.128-80.413 17.352-77.8 51.213 2.517 36.655 79.944-17.352 77.8zm15.576-60.733c-17.628-3.543-30.783 38.808-13.985 42.259 18.651 3.92 31.156-38.804 13.985-42.259z"/><path d="m558.402 15.041c-7.282 0-8.674 2.798-9.888 8.301l-.473 2.425h15.395l3.828-17.536h24.062l-3.732 17.536h12.406l-3.632 16.698h-12.413l-6.81 31.81c-.277 1.771-.93 3.355-.277 5.315 1.026 2.89 11.38 1.683 11.38 1.683l-4.009 16.606s-21.083 2.425-28.177-2.521c-3.171-2.145-6.622-6.622-4.474-16.23l8.113-36.567-14.458-.092-12.217 55.783h-25.937l12.129-55.783h-13.343l3.732-16.698h12.966c2.329-9.328 4.382-15.672 10.165-20.522 7.932-6.438 28.55-3.92 28.55-3.92l-2.886 13.712zm-232.838 58.396 49.25-.093s-4.197 10.915 11.29 11.011c10.727 0 14.923-12.221.465-14.739-6.621-1.214-32.274-5.506-29.38-25.283 2.428-16.23 19.308-21.921 37.781-21.641 37.781.466 30.695 22.671 31.156 24.162h-25.187s2.705-9.327-8.674-9.327c-10.354 0-12.878 9.327-.938 11.844 14.557 3.174 31.256 3.92 32.182 22.67.277 5.227-2.794 29.662-40.859 28.92-34.888-.746-37.31-17.164-36.379-24.812-6.345 13.34-22.205 25.188-43.377 24.442-53.077-1.679-36.94-80.32 17.444-77.611 24.722 1.211 34.145 19.961 31.156 38.431-.466 3.267-.742 3.732-1.68 4.012zm-7.186-33.585c-17.448-3.451-30.503 38.712-13.808 42.259 18.477 3.827 30.882-38.804 13.808-42.259z"/></g></svg>