<?xml version="1.0" encoding="UTF-8" standalone="no"?><!DOCTYPE svg PUBLIC "-//W3C//DTD SVG 1.1//EN" "http://www.w3.org/Graphics/SVG/1.1/DTD/svg11.dtd"><svg width="100%" height="100%" viewBox="0 0 600 162" version="1.1" xmlns="http://www.w3.org/2000/svg" xmlns:xlink="http://www.w3.org/1999/xlink" xml:space="preserve" xmlns:serif="http://www.serif.com/" style="fill-rule:evenodd;clip-rule:evenodd;stroke-linejoin:round;stroke-miterlimit:2;"><g id="midway_new"><path d="M57.533,161.107l20.304,-73.776l-40.906,41.692c-23.04,-8.483 -37.052,-21.751 -36.93,-37.19c-0,-28.402 48.799,-53.664 108.634,-56.24c13.255,-0.567 25.965,0.023 37.726,1.594l30.297,-37.17l-10.994,40.836c30.93,7.774 51.606,23.152 51.606,41.638c-0,27.289 -45.063,51.686 -101.675,55.833l18.421,-65.884l-76.483,88.667Zm88.629,-47.815l18.184,-67.542c20.66,6.026 33.973,16.427 33.973,28.903c-0,15.84 -21.446,30.743 -52.157,38.639Zm-3.272,-71.849l-46.775,57.395l14.214,-56.179l-70.159,65.191c-12.004,-6.01 -19.188,-14.054 -19.188,-23.22c-0,-21.587 39.832,-41.436 88.67,-44.181c11.744,-0.661 22.966,-0.273 33.238,0.994Z" style="fill:#fff;"/><path d="M263.917,50.433l-25.015,-0l-20.218,69.386l19.095,-0l7.925,-27.197l3.284,-15.846l-1.947,43.043l14.894,-0l23.018,-42.296l-5.927,15.099l-7.925,27.197l19.002,-0l20.218,-69.386l-24.919,-0l-23.178,42.189l1.693,-42.189Z" style="fill:#fff;"/><path d="M318.435,50.433l-20.218,69.386l20.718,-0l20.221,-69.386l-20.721,-0Z" style="fill:#fff;"/><path d="M347.652,50.433l-20.218,69.386l27.02,-0c4.836,-0 9.464,-0.642 13.88,-1.928c4.417,-1.283 8.48,-3.371 12.184,-6.263c3.708,-2.89 6.995,-6.639 9.865,-11.245c2.871,-4.602 5.167,-10.189 6.889,-16.757c1.742,-6.638 1.998,-12.097 0.763,-16.382c-1.234,-4.281 -3.207,-7.674 -5.914,-10.173c-2.71,-2.498 -5.801,-4.227 -9.278,-5.192c-3.473,-0.962 -6.613,-1.446 -9.413,-1.446l-25.778,-0Zm15.532,16.491c5.259,-0.141 9.22,1.016 11.876,3.479c2.655,2.464 3.059,7.085 1.209,13.868c-1.165,3.996 -2.56,7.261 -4.192,9.798c-1.629,2.533 -3.464,4.512 -5.5,5.942c-2.04,1.428 -4.227,2.374 -6.559,2.836c-2.328,0.465 -4.81,0.625 -7.443,0.484l10.609,-36.407Z" style="fill:#fff;"/><path d="M405.989,50.433l-4.179,69.386l20.051,-0l18.418,-39.939l-4.191,39.939l20.144,-0l35.114,-69.386l-19.38,-0l-19.169,42.189l5.513,-42.189l-18.81,-0l-18.21,42.189l5.324,-42.189l-20.625,-0Z" style="fill:#fff;"/><path d="M507.003,50.433l-42.558,69.386l20.91,-0l4.625,-8.993l20.147,-0l-0.619,8.993l20.91,-0l-1.93,-69.386l-21.485,-0Zm-8.896,45.935l12.597,-22.591l-0.471,22.591l-12.126,0Z" style="fill:#fff;"/><path d="M533.26,50.433l9.997,44.332l-7.3,25.054l20.144,-0l7.303,-25.054l36.596,-44.332l-23.678,-0l-16.578,22.488l-3.569,-22.488l-22.915,-0Z" style="fill:#fff;"/></g></svg>