<svg clip-rule="evenodd" fill-rule="evenodd" stroke-linejoin="round" stroke-miterlimit="2" viewBox="0 0 600 167" xmlns="http://www.w3.org/2000/svg"><g fill="#fff" fill-rule="nonzero"><path d="m81.258 76.383h-6.927v-52.275c0-8.081.072-13.853.216-17.316h-.216c-.938 1.876-2.85 5.267-5.736 10.173l-22.837 39.612h-3.679l-22.837-38.854c-3.607-6.133-5.664-9.777-6.169-10.931h-.216c.144 2.669.216 8.153.216 16.45v53.141h-6.927v-75.436h11.148l19.59 33.66c3.102 5.411 5.447 9.74 7.034 12.987 1.444-2.814 3.788-7.107 7.035-12.879l19.157-33.768h11.148z"/><path d="m143.706 76.924h-30.737c-5.7 0-9.597-.956-11.689-2.868-2.093-1.912-3.139-5.61-3.139-11.093v-48.595c0-5.412 1.046-9.092 3.139-11.04 2.092-1.948 5.989-2.922 11.689-2.922h30.737c5.7 0 9.596.956 11.689 2.868 2.092 1.912 3.138 5.502 3.138 10.769v48.811c0 5.556-1.046 9.29-3.138 11.202-2.093 1.912-5.989 2.868-11.689 2.868zm7.9-12.122v-52.491c0-2.236-.487-3.77-1.461-4.599-.974-.83-2.94-1.245-5.898-1.245h-31.819c-2.887 0-4.835.415-5.845 1.245-1.01.829-1.515 2.363-1.515 4.599v52.491c0 2.309.505 3.861 1.515 4.654 1.01.794 2.958 1.191 5.845 1.191h31.819c2.958 0 4.924-.397 5.898-1.191.974-.793 1.461-2.345 1.461-4.654z"/><path d="m220.548 76.924h-30.737c-5.7 0-9.596-.956-11.688-2.868-2.093-1.912-3.139-5.61-3.139-11.093v-48.595c0-5.412 1.046-9.092 3.139-11.04 2.092-1.948 5.988-2.922 11.688-2.922h30.737c5.701 0 9.597.956 11.689 2.868 2.093 1.912 3.139 5.502 3.139 10.769v48.811c0 5.556-1.046 9.29-3.139 11.202-2.092 1.912-5.988 2.868-11.689 2.868zm7.901-12.122v-52.491c0-2.236-.487-3.77-1.461-4.599-.974-.83-2.94-1.245-5.898-1.245h-31.82c-2.886 0-4.834.415-5.844 1.245-1.01.829-1.515 2.363-1.515 4.599v52.491c0 2.309.505 3.861 1.515 4.654 1.01.794 2.958 1.191 5.844 1.191h31.82c2.958 0 4.924-.397 5.898-1.191.974-.793 1.461-2.345 1.461-4.654z"/><path d="m310.487 76.383h-6.71l-34.525-49.353c-4.69-6.71-8.045-11.688-10.066-14.935h-.324c.216 4.113.324 9.524.324 16.234v48.054h-6.926v-75.436h6.602l34.525 49.245c5.267 7.503 8.658 12.554 10.173 15.152h.325c-.217-4.257-.325-9.705-.325-16.343v-48.054h6.927z"/><path d="m368.281 76.383h-40.477v-75.436h6.926v69.159h33.551z"/><path d="m379.97.947h6.927v75.436h-6.927z"/><path d="m446.639 76.924h-28.031c-5.7 0-9.596-.938-11.689-2.814-2.092-1.876-3.139-5.483-3.139-10.823v-48.486c0-5.484 1.047-9.2 3.139-11.148 2.093-1.948 5.989-2.922 11.689-2.922h23.702l15.152.216v5.845h-39.395c-2.886 0-4.834.415-5.845 1.244-1.01.83-1.515 2.363-1.515 4.6v52.166c0 2.309.505 3.861 1.515 4.654 1.011.794 2.959 1.191 5.845 1.191h29.113c2.959 0 4.925-.397 5.899-1.191.974-.793 1.461-2.345 1.461-4.654v-23.052h-12.663v-6.169h19.59v27.598c0 5.339-1.047 8.965-3.139 10.877s-5.989 2.868-11.689 2.868z"/><path d="m536.037 76.383h-6.927v-36.149h-43.725v36.149h-6.926v-75.436h6.926v33.118h43.725v-33.118h6.927z"/><path d="m577.272 76.383h-6.927v-69.375h-22.728v-6.061h52.383v6.061h-22.728z"/><path d="m37.447 166.086h-23.856c-.951 0-1.861-.393-2.512-1.087-2.355-2.508-8.129-8.658-10.266-10.934-.522-.557-.813-1.291-.813-2.054 0-6.61 0-38.555 0-38.555 0-4.646.886-7.794 2.659-9.444 1.773-1.651 5.074-2.476 9.903-2.476h20.08l15.288.183v4.952h-35.827c-2.445 0-4.095.351-4.951 1.054s-1.284 2.002-1.284 3.897v38.55c0 .846.332 1.659.924 2.265 1.725 1.763 5.42 5.54 7.181 7.339.62.635 1.471.992 2.359.992h21.574c2.506 0 4.171-.336 4.997-1.008.825-.673 1.238-1.987 1.238-3.943v-19.53h-19.529v-5.227h25.397v23.382c0 4.523-.887 7.595-2.659 9.215-1.773 1.619-5.074 2.429-9.903 2.429z"/><path d="m117.861 165.628h-6.326l-8.04-20.392h-29.699l-7.923 20.392h-6.144l25.399-63.909h7.243zm-29.341-57.857-13.091 33.484h26.45l-13.175-33.484z"/><path d="m239.592 165.628h-41.339v-63.909h41.339v5.135h-35.471v22.923h29.8v5.226h-29.8v25.307h35.471z"/><path d="m282.854 166.57h-20.599l-13.971-.365v-9.953h33.109c1.278 0 2.131-.168 2.557-.502.426-.335.639-1.02.639-2.055v-12.966c0-1.095-.289-1.811-.868-2.146-.578-.334-1.871-.502-3.88-.502-2.496 0-10.586-.061-16.308-.182-6.392-.061-10.653-.99-12.783-2.785-2.131-1.796-3.196-5.159-3.196-10.09v-10.044c0-4.809.989-8.127 2.967-9.953 1.979-1.826 5.677-2.739 11.094-2.739h18.226l13.879.365v9.222h-30.735c-1.278 0-2.115.183-2.511.548-.396.366-.593 1.066-.593 2.1v11.049c0 1.096.289 1.796.867 2.1s1.963.487 4.155.548l15.942.182c6.575.122 10.927.99 13.057 2.603 2.131 1.613 3.196 4.946 3.196 9.998v12.236c0 5.174-.958 8.689-2.876 10.546-1.917 1.856-5.707 2.785-11.368 2.785z"/><path d="m335.714 166.205h-12.509v-53.782h-17.988v-9.861h48.577v9.861h-18.08z"/><path d="m416.507 166.205h-14.356l-16.217-26.634h-11.505v26.634h-12.509v-63.643h36.059c5.479 0 9.207.837 11.186 2.511 1.978 1.674 2.967 4.855 2.967 9.542v12.538c0 4.383-.928 7.472-2.785 9.268-1.856 1.795-5.748 2.846-9.4 3.15zm-17.453-39.712v-11.127c0-1.035-.198-1.735-.593-2.1-.396-.365-1.233-.548-2.511-.548h-21.521v16.423h21.521c1.278 0 2.115-.183 2.511-.548.395-.365.593-1.065.593-2.1z"/><path d="m468.611 166.205h-45.065v-63.643h44.791v9.861h-32.282v15.797h25.525v10.999h-25.525v16.668h32.556z"/><path d="m531.776 166.205h-13.057l-4.957-13.006h-25.05l-4.957 13.006h-12.692l23.663-63.643h13.866zm-30.721-47.729-9.174 25.054h18.622l-9.174-25.054z"/><path d="m566.643 152.052s-14.505-24.744-16.921-29.524v43.677h-12.235v-63.643h12.173s17.257 26.942 19.084 30.716c1.826-3.774 19.083-30.716 19.083-30.716h12.173v63.643h-12.235v-43.677c-2.416 4.78-16.921 29.524-16.921 29.524z"/><path d="m179.421 110.836c-.724 1.27-1.585 2.754-2.585 4.454l-19.347 33.558h-3.117l-19.347-32.917c-1.18-2.005-2.163-3.696-2.952-5.073v54.77h-5.868v-63.909h7.169l16.597 28.516c2.628 4.585 4.615 8.252 5.959 11.003 1.223-2.384 3.21-6.021 5.96-10.911l16.23-28.608h7.169v63.909h-5.868z"/></g></svg>