<?xml version="1.0" encoding="UTF-8" standalone="no"?><!DOCTYPE svg PUBLIC "-//W3C//DTD SVG 1.1//EN" "http://www.w3.org/Graphics/SVG/1.1/DTD/svg11.dtd"><svg width="100%" height="100%" viewBox="0 0 600 167" version="1.1" xmlns="http://www.w3.org/2000/svg" xmlns:xlink="http://www.w3.org/1999/xlink" xml:space="preserve" xmlns:serif="http://www.serif.com/" style="fill-rule:evenodd;clip-rule:evenodd;stroke-linejoin:round;stroke-miterlimit:2;"><g id="moonlight_gamestream"><g><path d="M81.258,76.031l-6.927,0l-0,-52.274c-0,-8.082 0.072,-13.854 0.216,-17.317l-0.216,-0c-0.938,1.876 -2.85,5.267 -5.736,10.173l-22.837,39.612l-3.679,0l-22.837,-38.854c-3.607,-6.133 -5.664,-9.777 -6.169,-10.931l-0.216,-0c0.144,2.669 0.216,8.153 0.216,16.451l0,53.14l-6.927,0l0,-75.436l11.148,0l19.59,33.66c3.102,5.411 5.447,9.74 7.034,12.987c1.444,-2.814 3.788,-7.107 7.035,-12.879l19.157,-33.768l11.148,0l-0,75.436Z" style="fill:#fff;fill-rule:nonzero;"/><path d="M143.706,76.572l-30.737,0c-5.7,0 -9.597,-0.956 -11.689,-2.868c-2.093,-1.912 -3.139,-5.61 -3.139,-11.093l0,-48.595c0,-5.412 1.046,-9.091 3.139,-11.04c2.092,-1.948 5.989,-2.922 11.689,-2.922l30.737,0c5.7,0 9.596,0.956 11.689,2.868c2.092,1.912 3.138,5.502 3.138,10.769l0,48.812c0,5.555 -1.046,9.289 -3.138,11.201c-2.093,1.912 -5.989,2.868 -11.689,2.868Zm7.9,-12.121l0,-52.491c0,-2.237 -0.487,-3.77 -1.461,-4.6c-0.974,-0.83 -2.94,-1.245 -5.898,-1.245l-31.819,0c-2.887,0 -4.835,0.415 -5.845,1.245c-1.01,0.83 -1.515,2.363 -1.515,4.6l-0,52.491c-0,2.309 0.505,3.86 1.515,4.654c1.01,0.793 2.958,1.19 5.845,1.19l31.819,0c2.958,0 4.924,-0.397 5.898,-1.19c0.974,-0.794 1.461,-2.345 1.461,-4.654Z" style="fill:#fff;fill-rule:nonzero;"/><path d="M220.548,76.572l-30.737,0c-5.7,0 -9.596,-0.956 -11.688,-2.868c-2.093,-1.912 -3.139,-5.61 -3.139,-11.093l-0,-48.595c-0,-5.412 1.046,-9.091 3.139,-11.04c2.092,-1.948 5.988,-2.922 11.688,-2.922l30.737,0c5.701,0 9.597,0.956 11.689,2.868c2.093,1.912 3.139,5.502 3.139,10.769l-0,48.812c-0,5.555 -1.046,9.289 -3.139,11.201c-2.092,1.912 -5.988,2.868 -11.689,2.868Zm7.901,-12.121l0,-52.491c0,-2.237 -0.487,-3.77 -1.461,-4.6c-0.974,-0.83 -2.94,-1.245 -5.898,-1.245l-31.82,0c-2.886,0 -4.834,0.415 -5.844,1.245c-1.01,0.83 -1.515,2.363 -1.515,4.6l-0,52.491c-0,2.309 0.505,3.86 1.515,4.654c1.01,0.793 2.958,1.19 5.844,1.19l31.82,0c2.958,0 4.924,-0.397 5.898,-1.19c0.974,-0.794 1.461,-2.345 1.461,-4.654Z" style="fill:#fff;fill-rule:nonzero;"/><path d="M310.487,76.031l-6.71,0l-34.525,-49.352c-4.69,-6.711 -8.045,-11.689 -10.066,-14.936l-0.324,0c0.216,4.113 0.324,9.524 0.324,16.234l0,48.054l-6.926,0l-0,-75.436l6.602,0l34.525,49.245c5.267,7.504 8.658,12.554 10.173,15.152l0.325,-0c-0.217,-4.257 -0.325,-9.705 -0.325,-16.343l0,-48.054l6.927,0l-0,75.436Z" style="fill:#fff;fill-rule:nonzero;"/><path d="M368.281,76.031l-40.477,0l-0,-75.436l6.926,0l0,69.159l33.551,-0l0,6.277Z" style="fill:#fff;fill-rule:nonzero;"/><rect x="379.97" y="0.595" width="6.927" height="75.436" style="fill:#fff;fill-rule:nonzero;"/><path d="M446.639,76.572l-28.031,0c-5.7,0 -9.596,-0.938 -11.689,-2.814c-2.092,-1.876 -3.139,-5.483 -3.139,-10.823l0,-48.486c0,-5.484 1.047,-9.2 3.139,-11.148c2.093,-1.948 5.989,-2.922 11.689,-2.922l23.702,-0l15.152,0.216l0,5.845l-39.395,-0c-2.886,-0 -4.834,0.415 -5.845,1.244c-1.01,0.83 -1.515,2.363 -1.515,4.6l0,52.167c0,2.309 0.505,3.86 1.515,4.654c1.011,0.793 2.959,1.19 5.845,1.19l29.113,0c2.959,0 4.925,-0.397 5.899,-1.19c0.974,-0.794 1.461,-2.345 1.461,-4.654l-0,-23.053l-12.663,-0l0,-6.169l19.59,-0l-0,27.598c-0,5.34 -1.047,8.965 -3.139,10.877c-2.092,1.912 -5.989,2.868 -11.689,2.868Z" style="fill:#fff;fill-rule:nonzero;"/><path d="M536.037,76.031l-6.927,0l-0,-36.148l-43.725,-0l0,36.148l-6.926,0l-0,-75.436l6.926,0l0,33.119l43.725,-0l-0,-33.119l6.927,0l-0,75.436Z" style="fill:#fff;fill-rule:nonzero;"/><path d="M577.272,76.031l-6.927,0l0,-69.375l-22.728,0l0,-6.061l52.383,0l-0,6.061l-22.728,0l-0,69.375Z" style="fill:#fff;fill-rule:nonzero;"/></g><g><path d="M37.447,165.735l-23.856,-0c-0.951,-0 -1.861,-0.394 -2.512,-1.088c-2.355,-2.508 -8.129,-8.658 -10.266,-10.934c-0.522,-0.556 -0.813,-1.291 -0.813,-2.054c0,-6.609 0,-38.555 0,-38.555c0,-4.646 0.886,-7.794 2.659,-9.444c1.773,-1.651 5.074,-2.476 9.903,-2.476l20.08,0l15.288,0.183l-0,4.952l-35.827,-0c-2.445,-0 -4.095,0.351 -4.951,1.054c-0.856,0.703 -1.284,2.002 -1.284,3.897l0,38.55c0,0.846 0.332,1.66 0.924,2.265c1.725,1.763 5.42,5.54 7.181,7.339c0.62,0.635 1.471,0.992 2.359,0.992c4.969,0 21.574,0 21.574,0c2.506,0 4.171,-0.336 4.997,-1.008c0.825,-0.673 1.238,-1.987 1.238,-3.943l-0,-19.53l-19.529,-0l-0,-5.226l25.397,-0l-0,23.381c-0,4.523 -0.887,7.595 -2.659,9.215c-1.773,1.62 -5.074,2.43 -9.903,2.43Z" style="fill:#fff;fill-rule:nonzero;"/><path d="M117.861,165.276l-6.326,0l-8.04,-20.391l-29.699,-0l-7.923,20.391l-6.144,0l25.399,-63.909l7.243,0l25.49,63.909Zm-29.341,-57.857l-13.091,33.484l26.45,0l-13.175,-33.484l-0.184,0Z" style="fill:#fff;fill-rule:nonzero;"/><path d="M239.592,165.276l-41.339,0l0,-63.909l41.339,0l-0,5.135l-35.471,0l0,22.923l29.8,-0l0,5.226l-29.8,0l0,25.307l35.471,0l-0,5.318Z" style="fill:#fff;fill-rule:nonzero;"/><path d="M282.854,166.218l-20.599,-0l-13.971,-0.365l0,-9.953l33.109,0c1.278,0 2.131,-0.167 2.557,-0.502c0.426,-0.335 0.639,-1.02 0.639,-2.055l-0,-12.966c-0,-1.095 -0.289,-1.811 -0.868,-2.145c-0.578,-0.335 -1.871,-0.503 -3.88,-0.503c-2.496,0 -10.586,-0.06 -16.308,-0.182c-6.392,-0.061 -10.653,-0.989 -12.783,-2.785c-2.131,-1.796 -3.196,-5.159 -3.196,-10.09l-0,-10.044c-0,-4.809 0.989,-8.126 2.967,-9.953c1.979,-1.826 5.677,-2.739 11.094,-2.739l18.226,0l13.879,0.365l-0,9.223l-30.735,-0c-1.278,-0 -2.115,0.182 -2.511,0.548c-0.396,0.365 -0.593,1.065 -0.593,2.1l-0,11.048c-0,1.096 0.289,1.796 0.867,2.1c0.578,0.305 1.963,0.487 4.155,0.548l15.942,0.183c6.575,0.121 10.927,0.989 13.057,2.602c2.131,1.613 3.196,4.946 3.196,9.998l0,12.236c0,5.174 -0.958,8.689 -2.876,10.546c-1.917,1.857 -5.707,2.785 -11.368,2.785Z" style="fill:#fff;fill-rule:nonzero;"/><path d="M335.714,165.853l-12.509,-0l-0,-53.781l-17.988,-0l0,-9.862l48.577,0l-0,9.862l-18.08,-0l0,53.781Z" style="fill:#fff;fill-rule:nonzero;"/><path d="M416.507,165.853l-14.356,-0l-16.217,-26.634l-11.505,0l0,26.634l-12.509,-0l0,-63.643l36.059,0c5.479,0 9.207,0.837 11.186,2.511c1.978,1.674 2.967,4.855 2.967,9.542l0,12.538c0,4.383 -0.928,7.472 -2.785,9.268c-1.856,1.796 -5.748,2.846 -9.4,3.15l16.56,26.634Zm-17.453,-39.712l0,-11.127c0,-1.035 -0.198,-1.735 -0.593,-2.1c-0.396,-0.365 -1.233,-0.548 -2.511,-0.548l-21.521,0l0,16.423l21.521,-0c1.278,-0 2.115,-0.183 2.511,-0.548c0.395,-0.365 0.593,-1.065 0.593,-2.1Z" style="fill:#fff;fill-rule:nonzero;"/><path d="M468.611,165.853l-45.065,-0l0,-63.643l44.791,0l0,9.862l-32.282,-0l0,15.796l25.525,0l0,10.999l-25.525,-0l0,16.668l32.556,-0l0,10.318Z" style="fill:#fff;fill-rule:nonzero;"/><path d="M531.776,165.853l-13.057,-0l-4.957,-13.006l-25.05,-0l-4.957,13.006l-12.692,-0l23.663,-63.643l13.866,0l23.184,63.643Zm-30.721,-47.729l-9.174,25.054l18.622,0l-9.174,-25.054l-0.274,0Z" style="fill:#fff;fill-rule:nonzero;"/><path d="M566.643,151.7c0,-0 -14.505,-24.744 -16.921,-29.524l0,43.677l-12.235,-0l0,-63.643l12.173,0c-0,0 17.257,26.942 19.084,30.717c1.826,-3.775 19.083,-30.717 19.083,-30.717l12.173,0l-0,63.643l-12.235,-0l-0,-43.677c-2.416,4.78 -16.921,29.524 -16.921,29.524l-4.201,-0Z" style="fill:#fff;fill-rule:nonzero;"/><path d="M179.421,110.484c-0.724,1.27 -1.585,2.754 -2.585,4.454l-19.347,33.559l-3.117,-0l-19.347,-32.917c-1.18,-2.005 -2.163,-3.697 -2.952,-5.074l0,54.77l-5.868,0l0,-63.909l7.169,0l16.597,28.516c2.628,4.585 4.615,8.253 5.959,11.003c1.223,-2.384 3.21,-6.021 5.96,-10.911l16.23,-28.608l7.169,0l-0,63.909l-5.868,0l-0,-54.792Z" style="fill:#fff;fill-rule:nonzero;"/></g></g></svg>