<svg clip-rule="evenodd" fill-rule="evenodd" stroke-linejoin="round" stroke-miterlimit="2" viewBox="0 0 600 266" xmlns="http://www.w3.org/2000/svg"><path d="m600-.001h-600v265.138h600v-265.138zm-561.115 221.417 45.305-178.331h42.01l21.828 77.841 22.652-77.841h39.538l37.066 131.381 90.438-.171c9.492-.092 10.075-19.723-.704-19.719l-52.668-.703c-22.615.218-46.465-24.249-45.303-56.834.241-29.89 26.305-53.428 59.648-53.42l134.333-.12 34.185 46.54 33.358-46.951 55.6.412-60.952 85.665 65.896 92.886-55.308-.168-38.352-53.3-36.486 53.298-56.424-.052 64.25-91.841-28.007-40.774-116.775.171c-12.744.117-12.276 20.166.1 19.791l49.203.753c20.795.134 50.081 21.743 49.351 55.479.316 39.219-35.006 57.139-52.013 56.179l-128.788.172-21.417-80.24-21.416 80.068h-40.655l-22.361-79.657-19.648 79.778-47.484-.292z" fill="#fff"/></svg>