<?xml version="1.0" encoding="UTF-8" standalone="no"?><!DOCTYPE svg PUBLIC "-//W3C//DTD SVG 1.1//EN" "http://www.w3.org/Graphics/SVG/1.1/DTD/svg11.dtd"><svg width="100%" height="100%" viewBox="0 0 600 266" version="1.1" xmlns="http://www.w3.org/2000/svg" xmlns:xlink="http://www.w3.org/1999/xlink" xml:space="preserve" xmlns:serif="http://www.serif.com/" style="fill-rule:evenodd;clip-rule:evenodd;stroke-linejoin:round;stroke-miterlimit:2;"><g id="msx"><path d="M600,-0.001l-600,0l0,265.138l600,0l-0,-265.138Zm-561.115,221.417l45.305,-178.331l42.01,-0l21.828,77.841l22.652,-77.841l39.538,-0l37.066,131.381l90.438,-0.171c9.492,-0.092 10.075,-19.723 -0.704,-19.719l-52.668,-0.703c-22.615,0.218 -46.465,-24.249 -45.303,-56.834c0.241,-29.89 26.305,-53.428 59.648,-53.42l134.333,-0.12l34.185,46.54l33.358,-46.951l55.6,0.412l-60.952,85.665l65.896,92.886l-55.308,-0.168l-38.352,-53.3l-36.486,53.298l-56.424,-0.052l64.25,-91.841l-28.007,-40.774l-116.775,0.171c-12.744,0.117 -12.276,20.166 0.1,19.791l49.203,0.753c20.795,0.134 50.081,21.743 49.351,55.479c0.316,39.219 -35.006,57.139 -52.013,56.179l-128.788,0.172l-21.417,-80.24l-21.416,80.068l-40.655,0l-22.361,-79.657l-19.648,79.778l-47.484,-0.292Z" style="fill:#fff;"/></g></svg>