<svg clip-rule="evenodd" fill-rule="evenodd" stroke-linejoin="round" stroke-miterlimit="2" viewBox="0 0 600 169" xmlns="http://www.w3.org/2000/svg"><g fill="#fff" fill-rule="nonzero"><path d="m0 167.545 42.457-167.122h39.369l20.457 72.948 21.227-72.948h37.053l34.737 123.123 84.753-.16c8.895-.087 9.442-18.484-.659-18.48l-49.358-.658c-21.194.204-43.544-22.725-42.456-53.262.226-28.011 24.652-50.07 55.899-50.062l125.889-.112 32.036 43.614 31.262-44 52.105.387-57.121 80.28 61.754 87.047-51.831-.157-35.942-49.95-34.192 49.948-52.877-.049 60.211-86.068-26.247-38.211-109.434.16c-11.944.109-11.505 18.899.093 18.547l46.11.706c19.489.125 46.933 20.376 46.249 51.991.297 36.754-32.805 53.548-48.743 52.648l-120.694.161-20.07-75.196-20.07 75.035h-38.099l-20.955-74.65-18.414 74.764-44.499-.274z"/><path d="m510.489 90.672h24.444c0-3.356.33-6.741.989-10.156s1.768-6.53 3.325-9.346c1.558-2.816 3.625-5.093 6.201-6.831 2.577-1.737 5.722-2.606 9.437-2.606 5.512 0 10.035 1.708 13.57 5.123s5.303 8.178 5.303 14.289c0 3.835-.869 7.25-2.607 10.246-1.737 2.995-3.894 5.691-6.47 8.088-2.577 2.396-5.422 4.583-8.538 6.56-3.116 1.978-6.051 3.925-8.807 5.842-5.393 3.715-10.515 7.37-15.368 10.964-4.853 3.595-9.077 7.52-12.672 11.773-3.595 4.254-6.441 9.077-8.538 14.47-2.097 5.392-3.145 11.743-3.145 19.052h92.387v-21.928h-59.495c3.116-4.314 6.711-8.089 10.785-11.324s8.268-6.261 12.582-9.077 8.598-5.662 12.851-8.538c4.254-2.876 8.059-6.081 11.414-9.616s6.051-7.579 8.088-12.132c2.037-4.554 3.056-10.006 3.056-16.357 0-6.111-1.168-11.623-3.505-16.536s-5.482-9.047-9.436-12.402c-3.955-3.356-8.538-5.932-13.751-7.729-5.212-1.798-10.694-2.696-16.446-2.696-7.549 0-14.23 1.288-20.041 3.864-5.812 2.576-10.635 6.171-14.469 10.785-3.835 4.613-6.711 10.005-8.628 16.176s-2.756 12.852-2.516 20.042z"/></g></svg>