<?xml version="1.0" encoding="UTF-8" standalone="no"?><!DOCTYPE svg PUBLIC "-//W3C//DTD SVG 1.1//EN" "http://www.w3.org/Graphics/SVG/1.1/DTD/svg11.dtd"><svg width="100%" height="100%" viewBox="0 0 600 169" version="1.1" xmlns="http://www.w3.org/2000/svg" xmlns:xlink="http://www.w3.org/1999/xlink" xml:space="preserve" xmlns:serif="http://www.serif.com/" style="fill-rule:evenodd;clip-rule:evenodd;stroke-linejoin:round;stroke-miterlimit:2;"><g id="msx2_alt"><path id="msx2_alt1" serif:id="msx2_alt" d="M-0,167.654l42.457,-167.121l39.369,-0l20.457,72.948l21.227,-72.948l37.053,-0l34.737,123.122l84.753,-0.159c8.895,-0.087 9.442,-18.484 -0.659,-18.48l-49.358,-0.659c-21.194,0.204 -43.544,-22.725 -42.456,-53.261c0.226,-28.012 24.652,-50.07 55.899,-50.063l125.889,-0.112l32.036,43.615l31.262,-44l52.105,0.386l-57.121,80.28l61.754,87.048l-51.831,-0.158l-35.942,-49.95l-34.192,49.948l-52.877,-0.048l60.211,-86.069l-26.247,-38.21l-109.434,0.159c-11.944,0.11 -11.505,18.899 0.093,18.547l46.11,0.706c19.489,0.125 46.933,20.377 46.249,51.992c0.297,36.753 -32.805,53.547 -48.743,52.648l-120.694,0.161l-20.07,-75.196l-20.07,75.035l-38.099,0l-20.955,-74.651l-18.414,74.764l-44.499,-0.274Z" style="fill:#fff;fill-rule:nonzero;"/><path d="M510.489,90.781l24.444,0c0,-3.355 0.33,-6.74 0.989,-10.155c0.659,-3.415 1.768,-6.531 3.325,-9.347c1.558,-2.816 3.625,-5.093 6.201,-6.83c2.577,-1.738 5.722,-2.606 9.437,-2.606c5.512,-0 10.035,1.707 13.57,5.122c3.535,3.415 5.303,8.179 5.303,14.29c-0,3.834 -0.869,7.249 -2.607,10.245c-1.737,2.996 -3.894,5.692 -6.47,8.088c-2.577,2.397 -5.422,4.584 -8.538,6.561c-3.116,1.977 -6.051,3.924 -8.807,5.842c-5.393,3.714 -10.515,7.369 -15.368,10.964c-4.853,3.595 -9.077,7.519 -12.672,11.773c-3.595,4.254 -6.441,9.077 -8.538,14.469c-2.097,5.392 -3.145,11.743 -3.145,19.053l92.387,-0l-0,-21.929l-59.495,0c3.116,-4.314 6.711,-8.088 10.785,-11.323c4.074,-3.236 8.268,-6.261 12.582,-9.077c4.314,-2.816 8.598,-5.662 12.851,-8.538c4.254,-2.876 8.059,-6.081 11.414,-9.616c3.355,-3.535 6.051,-7.579 8.088,-12.133c2.037,-4.553 3.056,-10.006 3.056,-16.356c0,-6.112 -1.168,-11.624 -3.505,-16.537c-2.337,-4.913 -5.482,-9.047 -9.436,-12.402c-3.955,-3.355 -8.538,-5.931 -13.751,-7.729c-5.212,-1.797 -10.694,-2.696 -16.446,-2.696c-7.549,0 -14.23,1.288 -20.041,3.865c-5.812,2.576 -10.635,6.171 -14.469,10.784c-3.835,4.613 -6.711,10.006 -8.628,16.177c-1.917,6.171 -2.756,12.851 -2.516,20.041Z" style="fill:#fff;fill-rule:nonzero;"/></g></svg>