<?xml version="1.0" encoding="UTF-8" standalone="no"?><!DOCTYPE svg PUBLIC "-//W3C//DTD SVG 1.1//EN" "http://www.w3.org/Graphics/SVG/1.1/DTD/svg11.dtd"><svg width="100%" height="100%" viewBox="0 0 600 207" version="1.1" xmlns="http://www.w3.org/2000/svg" xmlns:xlink="http://www.w3.org/1999/xlink" xml:space="preserve" xmlns:serif="http://www.serif.com/" style="fill-rule:evenodd;clip-rule:evenodd;stroke-linejoin:round;stroke-miterlimit:2;"><g id="msx_alt"><path id="msx_alt1" serif:id="msx_alt" d="M0,205.641l52.051,-204.888l48.266,-0l25.08,89.433l26.024,-89.433l45.427,-0l42.586,150.946l103.906,-0.196c10.905,-0.106 11.575,-22.661 -0.809,-22.656l-60.511,-0.807c-25.983,0.25 -53.385,-27.861 -52.05,-65.298c0.277,-34.341 30.222,-61.385 68.531,-61.375l154.337,-0.138l39.276,53.47l38.327,-53.943l63.879,0.474l-70.029,98.422l75.709,106.719l-63.544,-0.194l-44.064,-61.237l-41.919,61.235l-64.826,-0.059l73.817,-105.519l-32.178,-46.845l-134.164,0.196c-14.642,0.134 -14.104,23.169 0.115,22.738l56.529,0.865c23.893,0.154 57.539,24.982 56.701,63.741c0.363,45.059 -40.219,65.648 -59.759,64.546l-147.967,0.197l-24.606,-92.189l-24.605,91.992l-46.709,-0l-25.691,-91.521l-22.575,91.66l-54.555,-0.336Z" style="fill:#fff;fill-rule:nonzero;"/></g></svg>