<svg clip-rule="evenodd" fill-rule="evenodd" stroke-linejoin="round" stroke-miterlimit="2" viewBox="0 0 600 207" xmlns="http://www.w3.org/2000/svg"><path d="m0 205.641 52.051-204.888h48.266l25.08 89.433 26.024-89.433h45.427l42.586 150.946 103.906-.196c10.905-.106 11.575-22.661-.809-22.656l-60.511-.807c-25.983.25-53.385-27.861-52.05-65.298.277-34.341 30.222-61.385 68.531-61.375l154.337-.138 39.276 53.47 38.327-53.943 63.879.474-70.029 98.422 75.709 106.719-63.544-.194-44.064-61.237-41.919 61.235-64.826-.059 73.817-105.519-32.178-46.845-134.164.196c-14.642.134-14.104 23.169.115 22.738l56.529.865c23.893.154 57.539 24.982 56.701 63.741.363 45.059-40.219 65.648-59.759 64.546l-147.967.197-24.606-92.189-24.605 91.992h-46.709l-25.691-91.521-22.575 91.66-54.555-.336z" fill="#fff" fill-rule="nonzero"/></svg>