<?xml version="1.0" encoding="UTF-8" standalone="no"?><!DOCTYPE svg PUBLIC "-//W3C//DTD SVG 1.1//EN" "http://www.w3.org/Graphics/SVG/1.1/DTD/svg11.dtd"><svg width="100%" height="100%" viewBox="0 0 600 82" version="1.1" xmlns="http://www.w3.org/2000/svg" xmlns:xlink="http://www.w3.org/1999/xlink" xml:space="preserve" xmlns:serif="http://www.serif.com/" style="fill-rule:evenodd;clip-rule:evenodd;stroke-linejoin:round;stroke-miterlimit:2;"><g id="namco"><g id="layer1"><g id="g4776"><g id="g4766"><path id="rect4393" d="M510.75,0.662c-11.678,0 -21.423,9.745 -21.423,21.424l-0,37.424c-0,11.679 9.745,21.424 21.423,21.424l67.827,-0c11.678,-0 21.423,-9.745 21.423,-21.424l-0,-37.424c-0,-11.679 -9.745,-21.424 -21.423,-21.424l-67.827,0Zm4.854,22.757l57.616,0l0,34.758l-57.616,-0l-0,-34.758Z" style="fill:#fff;fill-rule:nonzero;"/><path id="rect4348" d="M-0,2.262l-0,78.761l26.277,-0l-0,-56.004l49.608,0l0,56.004l25.774,-0l0,-57.337c0,-11.679 -9.745,-21.424 -21.423,-21.424l-80.236,0Z" style="fill:#fff;fill-rule:nonzero;"/><path id="path4359" d="M119.438,2.262l0,20.713l71.382,-0l0,5.6l-55.737,-0c-11.678,-0 -21.423,9.834 -21.423,21.512l-0,9.512c-0,11.679 9.745,21.424 21.423,21.424l81.516,-0l0,-57.337c0,-11.679 -9.745,-21.424 -21.423,-21.424l-75.738,0Zm21.068,47.292l50.314,-0l0,11.201l-50.314,-0l-0,-11.201Z" style="fill:#fff;fill-rule:nonzero;"/><path id="path4384" d="M232.778,2.262l0,78.761l26.313,-0l-0,-56.004l27.024,0l-0,56.004l26.312,-0l0,-56.004l27.558,0l-0,56.004l25.779,-0l-0,-57.337c-0,-11.679 -9.745,-21.424 -21.424,-21.424l-111.562,0Z" style="fill:#fff;fill-rule:nonzero;"/><path id="rect4389" d="M402.477,0.662c-11.678,0 -21.423,9.745 -21.423,21.424l-0,37.424c-0,11.679 9.745,21.424 21.423,21.424l72.004,-0l0,-22.757l-66.648,-0l0,-34.758l66.648,0l0,-22.757l-72.004,0Z" style="fill:#fff;fill-rule:nonzero;"/></g></g></g></g></svg>