<svg clip-rule="evenodd" fill-rule="evenodd" stroke-linejoin="round" stroke-miterlimit="2" viewBox="0 0 600 160" xmlns="http://www.w3.org/2000/svg"><g fill="#fff" fill-rule="nonzero"><path d="m0 4.916h48.289c11.045 0 24.067 10.317 29.872 15.991l84.719 93.934v-109.925h28.779v149.975h-50.381c-8.976-.302-17.789-2.147-28.059-12.239l-84.579-94.105v106.344h-28.64v-149.975z"/><path d="m600 155.913c-34.469 4.705-69.341 5.17-104.282 2.232-20.455-1.806-40.491-6.014-58.854-15.602-23.183-12.014-30.57-39.019-30.26-63.497.256-22.594 6.976-46.715 27.137-59.853 13.215-8.673 27.33-11.518 42.328-14.239 40.941-7.216 81.959-5.588 121.9-1.209v21.393c-47.103-9.154-96.856-6.875-113.761 14.766-10.565 13.463-12.069 26.857-12.069 38.135 0 20.323 6.953 51.156 48.25 57.148 26.943 3.953 53.614.953 79.611-3.783z"/><path d="m305.037 132.588c4.077.039 68.992.341 91.276 0v22.408c-44.886 1.729-88.012 2.481-133.356.597-38.476-1.589-45.103-20.935-45.847-39.522v-111.158h177.056v21.354h-114.544v38.182h104.398v20.842h-104.398c0 11.278.372 24.067.48 26.369.613 14.541 7.356 19.889 24.935 20.928"/></g></svg>