<?xml version="1.0" encoding="UTF-8" standalone="no"?><!DOCTYPE svg PUBLIC "-//W3C//DTD SVG 1.1//EN" "http://www.w3.org/Graphics/SVG/1.1/DTD/svg11.dtd"><svg width="100%" height="100%" viewBox="0 0 600 160" version="1.1" xmlns="http://www.w3.org/2000/svg" xmlns:xlink="http://www.w3.org/1999/xlink" xml:space="preserve" xmlns:serif="http://www.serif.com/" style="fill-rule:evenodd;clip-rule:evenodd;stroke-linejoin:round;stroke-miterlimit:2;"><g id="nec"><g id="g4454"><path id="path4456" d="M-0,4.916l48.289,0c11.045,0 24.067,10.317 29.872,15.991l84.719,93.934l-0,-109.925l28.779,0l0,149.975l-50.381,-0c-8.976,-0.302 -17.789,-2.147 -28.059,-12.239l-84.579,-94.105l0,106.344l-28.64,-0l-0,-149.975Z" style="fill:#fff;fill-rule:nonzero;"/></g><g id="g4458"><path id="path4460" d="M600,155.913c-34.469,4.705 -69.341,5.17 -104.282,2.232c-20.455,-1.806 -40.491,-6.014 -58.854,-15.602c-23.183,-12.014 -30.57,-39.019 -30.26,-63.497c0.256,-22.594 6.976,-46.715 27.137,-59.853c13.215,-8.673 27.33,-11.518 42.328,-14.239c40.941,-7.216 81.959,-5.588 121.9,-1.209l0,21.393c-47.103,-9.154 -96.856,-6.875 -113.761,14.766c-10.565,13.463 -12.069,26.857 -12.069,38.135c0,20.323 6.953,51.156 48.25,57.148c26.943,3.953 53.614,0.953 79.611,-3.783l-0,24.509Z" style="fill:#fff;fill-rule:nonzero;"/></g><g id="g4462"><path id="path4464" d="M305.037,132.588c4.077,0.039 68.992,0.341 91.276,0l0,22.408c-44.886,1.729 -88.012,2.481 -133.356,0.597c-38.476,-1.589 -45.103,-20.935 -45.847,-39.522l-0,-111.158l177.056,0l0,21.354l-114.544,0l-0,38.182l104.398,-0l0,20.842l-104.398,0c-0,11.278 0.372,24.067 0.48,26.369c0.613,14.541 7.356,19.889 24.935,20.928" style="fill:#fff;fill-rule:nonzero;"/></g></g></svg>