<svg clip-rule="evenodd" fill-rule="evenodd" stroke-linejoin="round" stroke-miterlimit="2" viewBox="0 0 600 319" xmlns="http://www.w3.org/2000/svg"><g fill="#fff"><g fill-rule="nonzero"><path d="m43.576 152.474c-.294 0-.593-.066-.874-.204-28.583-13.873-43.342-30.044-42.681-46.772.538-13.769 11.775-26.769 32.495-37.599 19.66-10.272 47.39-18.425 80.195-23.578 1.094-.171 2.118.576 2.29 1.669s-.575 2.117-1.669 2.29c-66.449 10.436-108.332 32.421-109.305 57.377-.585 14.797 13.771 30.072 40.425 43.008.996.486 1.411 1.679.928 2.68-.347.712-1.061 1.129-1.804 1.129z"/><path d="m292.744 49.746c-.109 0-.217-.008-.328-.026-21.115-3.467-43.402-5.781-66.245-6.874-1.108-.052-1.96-.991-1.906-2.097.053-1.105 1.009-1.949 2.097-1.905 22.998 1.101 45.441 3.43 66.707 6.921 1.09.179 1.832 1.209 1.651 2.303-.163.982-1.011 1.678-1.976 1.678z"/><path d="m229.662 186.618c-.561 0-1.118 0-1.679-.002-1.107-.003-1.998-.902-1.995-2.011.003-1.104.895-1.996 2-1.996h.01c.549.002 1.113.002 1.667.002 107.248.001 191.876-27.876 192.993-63.704.392-12.537-9.68-25.258-29.133-36.782-19.367-11.478-47.127-21.261-80.272-28.289-1.082-.231-1.772-1.295-1.545-2.376.228-1.083 1.296-1.772 2.377-1.545 33.566 7.119 61.742 17.065 81.484 28.762 20.783 12.316 31.535 26.271 31.094 40.355-.592 19.052-21.64 36.422-59.266 48.9-36.379 12.061-85.236 18.686-137.735 18.686z"/><path d="m265.954 82.286 52.907-40.329-62.14 24.805-17.463-18.177 5.568 25.187-52.907 40.327 62.143-24.811 17.46 18.178z"/><path d="m199.696 132.629c.759-3.734 2.142-3.19 5.929-3.793l3.524-.554-1.097 5.877-3.525.563c-3.786.6-5.453 1.613-4.831-2.093zm-7.641-5.38-2.743 14.755c-.751 4.029.467 5.327 4.344 4.714l22.451-3.561 4.813-25.88-22.453 3.557c-3.879.615-5.667 2.387-6.412 6.415zm142.518-23.293-.262 1.427 23.158-3.676c1.828-.294 3.61-2.141 3.982-4.139.365-1.997-.809-3.381-2.639-3.089l-5.947.939-9.49 1.511-2.404.376c-2.782.445-5.834 3.616-6.398 6.651zm-162.476 66.732.188-1.028c.797.06 1.864.368 2.795.229l24.068-3.776c-.894 4.802-7.236 6.005-16.914 7.539l-11.016 1.75-5.906 31.761 14.471-2.293c35.632-3.518 49.188-21.933 53.539-43.886l43.416-6.891 6.996-37.646 3.531-.564c3.87-.614 3.299-1.314 2.556 2.707l-6.404 34.446 31.17-4.946.427-2.283c2.352 1.038 5.101 1.404 8.012.947l53.905-8.549 5.027-27.058-3.494-2.488c3.027-3.586 5.387-7.973 6.07-11.654l.85-4.268c2.688-15.96-12.026-20.198-18.74-19.131l-30.935 4.908c-5.478.87-11.511 4.688-15.9 9.745-4.06-4.02-10.326-5.582-13.97-5.004l-34.439 5.464 3.856 8.52 31.059-4.922c4.479-.713 7.472 1.075 8.293 4.621-.33.94-8.293 43.334-8.293 43.334l-11.136 1.768 5.971-32.095c.739-4.019-.476-5.319-4.343-4.704l-21.341 3.39-7.002 37.645-12.242 1.949 8.012-43.102-10.078-11.888-36.278 13.114 17.194-2.728.278-.039-10.933 58.819c-2.778 14.943-18.722 29.231-32.864 31.476l-14.472 2.294 2.194-11.772 11.009-1.741c9.677-1.54 20.573-11.225 22.452-21.355l1.187-6.373-28.666 4.547c-6.146.977-9.483-2.757-8.273-9.25l5.14-27.651c.909-4.914 3.975-8.995 8.078-11.116l.067-.736 14.382-11.069-8.402 1.413c-4.469.706-12.758 4.058-18.025 10.775-3.983-4.751-10.948-6.613-14.871-5.99l-30.897 4.908 5.035-27.065 22.542-3.577c11.999-1.901 25.277-15.396 27.636-28.072l3.389-18.237c2.359-12.684-6.56-22.656-18.56-20.754l-49.262 7.815-10.498 56.476-45.362 7.198c-3.84.61-7.575 4.396-8.326 8.453l-16.953 91.179c-.752 4.06 1.75 6.858 5.591 6.254l86.554-13.736 7.003-37.646 3.524-.563c3.877-.609 3.306-1.306 2.555 2.713l-6.402 34.435zm-64.229-20.64-28.944 4.591 1.09-5.876 23.376-3.716 5.688-30.59-23.376 3.714 1.089-5.88 28.944-4.594zm-1.751 9.415-2.405 12.937-51.208 8.125 15.961-85.887 42.304-6.71-2.187 11.766-30.057 4.773-4.591 24.707 24.489-3.885-2.186 11.761-24.489 3.884-4.598 24.713zm58.82 3.233-12.248 1.935 5.966-32.086c.752-4.022-.466-5.327-4.343-4.713l-21.34 3.39-6.995 37.646-12.248 1.946 9.182-49.409.285-.048 40.629-6.444c6.146-.978 9.482 2.748 8.273 9.248zm79.595-60.589 11.97-1.893-9.19 49.409-12.242 1.94 9.181-49.405zm74.271 23.288 4.25-22.858c1.348-7.228 9.116-14.329 15.735-15.382l28.636-4.537c4.825-.768 8.177 4.621 7.192 9.894l-1.403 7.356c-.987 5.275-6.374 10.881-11.195 11.647l-29.726 4.72-.428 2.668c-.564 3.033 1.45 5.404 4.231 4.96l33.225-5.29-2.24 12.056-37.48 5.943c-6.62 1.047-12.135-3.943-10.797-11.177zm-177.16-64.058 4.156-22.355 15.584-2.472c2.044-.323 3.089.842 2.682 2.998l-2.84 15.299c-.406 2.164-1.954 3.734-3.998 4.058z"/><path d="m241.256 71.796-3.308-13.104-1.866.225-.6 3.231c-.415 2.241-2.215 4.064-4.329 4.404l-12.806 2.029c-2.113.337-3.322-1.015-2.906-3.254l6.453-34.707c.414-2.232 2.215-4.058 4.326-4.396l12.809-2.029c2.113-.337 3.321 1.016 2.903 3.246l-.826 4.418 25.886-4.111.984-5.29c2.481-13.351-6.598-23.502-19.237-21.504l-24.765 3.931c-12.63 2.006-26.155 15.742-28.634 29.093l-6.89 37.061c-2.479 13.351 6.598 23.502 19.237 21.497l8.278-1.308z"/><path d="m259.605 63.891c.675-1.818 1.143-2.509 1.49-4.374l.879-4.711-10.302 1.637z"/></g><path d="m373.786 189.902h-26.039l-11.392 13.02v27.666l13.019 13.02h11.392v-17.902h-4.882v-19.53h13.019v13.02h17.902v-16.274z"/><path d="m349.374 281.039h27.666l11.392-13.019v-29.294l-13.019-13.02h-11.392v17.902h4.882v19.529h-13.019v-13.02h-19.529v17.903z"/><path d="m391.687 268.02 13.834 13.019h10.578v-16.274h-4.883v-74.863h-19.529z"/><path d="m443.765 268.02-13.832 13.019h-10.579v-16.274h4.882v-74.863h19.529z"/><path d="m471.432 189.902v16.274h6.51v27.667h-6.51v17.902h13.019l13.02-13.019v-34.991l-13.833-13.833z"/><path d="m448.648 189.902h19.529v91.136h-19.529z"/><path d="m521.882 207.804h21.157v-17.902h-39.058v91.137h39.058v-16.274h-21.157z"/><path d="m525.137 225.706h13.02v16.275h-13.02z"/><path d="m572.333 189.902h14.648l13.019 13.02v24.411l-8.951 8.951 8.951 8.951v35.804h-17.903v-35.804h-9.764v-17.902h8.137v-21.157h-8.137z"/><path d="m549.549 189.902h19.528v91.136h-19.528z"/><path d="m375.413 290.803-4.069 4.069v18.716l5.289 5.289h29.701v-16.682h-16.273v4.883h11.391v6.51h-22.784v-17.903h27.666v-4.882z"/><path d="m445.393 303.009v-7.324l-4.882-4.882h-27.667v27.666h6.51v-11.391h11.392l8.137 11.391h6.51l-8.137-11.391h3.255zm-6.51-.814h-19.529v-6.509h19.529z"/><path d="m448.648 318.469 13.02-27.666h13.019l14.647 27.666h-8.138l-11.391-21.155h-3.255l-9.765 21.155z"/><path d="m490.961 290.803v27.666h6.51v-11.391h21.156v-4.883h-21.156v-6.51h24.411v-4.882z"/><path d="m525.137 290.803 13.021 13.02-14.648 14.646h9.764l9.765-9.764 9.765 9.764h9.764l-14.647-14.646 14.647-13.02h-9.764l-9.765 9.765-9.765-9.765z"/></g></svg>