<svg clip-rule="evenodd" fill-rule="evenodd" stroke-linejoin="round" stroke-miterlimit="2" viewBox="0 0 600 231" xmlns="http://www.w3.org/2000/svg"><g fill="#fff" fill-rule="nonzero"><path d="m241.343 11.02h179.499l-11.904 68.205s-5.283-36.975-27.376-51.445c-5.484-2.568-19.536-2.39-54.75-2.39l-13.785 81.326c28.077 6.602 59.214-36.18 59.214-36.18l-17.908 94.569s-10.985-42.82-45.388-41.399l-15.261 84.122c50.107 0 49.135-.351 61.241-7.749 11.681-7.137 38.959-42.279 39.988-47.2l-11.127 70.486h-181.452c1.345-9.387 19.024-10.395 26.935-15.781l14.843-81.821c-1.196-7.314-15.548-1.013-18.461-7.292 2.465-6.724 16.895-2.316 21.085-7.169l15.06-83.016c-2.689-6.275-20.453-9.349-20.453-17.266z"/><path d="m579.968 4.635c7.899 16.296 14.25 34.195 20.032 52.686-10.976 4.258-26.194 11.177-26.194 11.177l-28.892-40.14c-30.093-2.355-70.76 42.465-73.84 70.47-3.601 33.133 17.01 65.861 49.305 68.655 33.645 2.926 73.961-25.543 73.961-25.543l-36.981 81.425c-76.27 27.138-132.708-22.682-135.595-81.425-4.43-89.676 76.724-139.102 158.204-137.305z"/><path d="m162.877 122.287 26.081-121.585 49.621 30.49-39.665 23.394-35.96 175.284-115.982-130.525-15.885 80.822 28.215 23.276-59.302 26.429 28.813-136.505c3.138-20.625-11.124-27.728-23.678-31.987l50.804-58.538z"/></g></svg>