<svg clip-rule="evenodd" fill-rule="evenodd" stroke-linejoin="round" stroke-miterlimit="2" viewBox="0 0 600 305" xmlns="http://www.w3.org/2000/svg"><g fill="#fff"><circle cx="122.388" cy="10.91" r="10.473"/><path d="m462.997 100.848v103.142h21.46v-42.93h29.848v-21.46h-29.848v-17.292h32.2v-21.46z"/><path d="m438.985 162.468c.773-3.255 1.182-6.654 1.182-10.147 0-3.494-.409-6.892-1.182-10.148h14.818c.579 3.294.881 6.686.881 10.148s-.302 6.854-.881 10.147z"/><path d="m434.988 132.093c-7.315-14.024-21.993-23.607-38.892-23.607-24.193 0-43.835 19.642-43.835 43.835s19.642 43.835 43.835 43.835c16.899 0 31.577-9.584 38.892-23.607h10.661c-7.986 19.519-27.174 33.286-49.553 33.286-29.535 0-53.514-23.979-53.514-53.514s23.979-53.514 53.514-53.514c22.379 0 41.567 13.766 49.553 33.286z"/><path d="m273.399 100.848h27.972c20.408 0 36.976 16.972 36.976 37.38s-16.568 36.976-36.976 36.976h-16.669v28.786h-11.303zm11.303 63.053v-51.75h16.669c14.281 0 25.875 11.594 25.875 25.875s-11.594 25.875-25.875 25.875z"/><path d="m556.672 128.944-16.221-28.096h-24.781l28.445 49.267-31.955 53.875h24.951l19.311-32.558 18.798 32.558h24.78l-31.021-53.729 29.309-49.413h-24.951z"/><path d="m462.997 101.37v103.142h21.46v-42.93h29.848v-21.46h-29.848v-17.292h32.2v-21.46z"/><path d="m438.985 162.99c.773-3.255 1.182-6.653 1.182-10.147 0-3.493-.409-6.892-1.182-10.147h14.818c.579 3.293.881 6.685.881 10.147s-.302 6.854-.881 10.147z"/><path d="m434.988 132.615c-7.315-14.024-21.993-23.607-38.892-23.607-24.193 0-43.835 19.642-43.835 43.835s19.642 43.835 43.835 43.835c16.899 0 31.577-9.583 38.892-23.607h10.661c-7.986 19.52-27.174 33.286-49.553 33.286-29.535 0-53.514-23.979-53.514-53.514s23.979-53.514 53.514-53.514c22.379 0 41.567 13.767 49.553 33.286z"/><path d="m273.399 101.37h27.972c20.408 0 36.976 16.972 36.976 37.38s-16.568 36.976-36.976 36.976h-16.669v28.786h-11.303zm11.303 63.053v-51.75h16.669c14.281 0 25.875 11.594 25.875 25.875s-11.594 25.875-25.875 25.875z"/><path d="m556.672 129.466-16.221-28.096h-24.781l28.445 49.267-31.955 53.875h24.951l19.311-32.558 18.798 32.558h24.78l-31.021-53.729 29.309-49.413h-24.951z"/><path d="m127.384 238.826v65.872l123.259-71.56v-65.871z"/><path d="m122.809 238.826v65.872l-122.809-71.298v-65.872z"/><path d="m153.641 21.383c-.82-2.114 115.519 22.658 58.284 90.855-33.752-74.698-246.175-40.607-153.977 38.57-1.694 16.392 12.361 27.934 17.046 30.052-.82 14.696 12.525 33.077 61.289 29.089-3.224 28.395 36.833 1.206 39.429-19.428 6.564-1.473 16.228-17.166 14.921-23.911 1.224-.194 15.481-8.03 21.439-34.028 5.126-1.43 93.727-93.501-61.871-126.329-6.128-1.293-10.914 1.652-11.058 7.43-.136 5.467 14.498 7.7 14.498 7.7zm-61.006 166.812c8.94 1.661 19.205 2.582 30.21 2.454 11.004-.128 22.748-1.305 34.645-3.842-11.195 12.343-49.173 13.698-64.855 1.388zm8.56-14.117c2.038-4.031 11.85-6.12 21.634-6.193 9.784-.072 19.541 1.872 21.469 5.908-13.043 4.353-30.936 3.681-43.103.285zm-13.936-13.538c-4.236-.399-5.4-.897-10.733-3.634-.967.399-2.732 1.592-3.32 3.381 3.164 3.912 4.797 5.452 8.189 6.2 1.957-1.887 2.77-4.393 5.864-5.947zm69.37-.413c4.235-.4 10.825-2.796 16.158-5.533 3.868.759 4.022 2.508 4.61 4.296-3.523 3.405-8.395 6.242-11.736 7.597-1.957-1.887-4.724-4.678-9.032-6.36zm-75.701-16.594c7.788-7.965 24.822-11.621 41.545-11.522s33.135 3.953 39.68 11.009c-13.039 6.778-59.315 9.233-81.225.513zm98.349-6.831c-52.002-36.203-105.146-10.865-114.807.85-68.291-55.016 131.215-80.155 133.846-11.886-3.99 3.157-10.43 8.352-19.039 11.036z"/><path d="m122.809 89.1v24.099c-15.915-.221-30.097 3.276-40.93 7.756-7.661 3.169-13.681 6.883-17.613 10.164-6.855-6.212-9.827-11.707-9.183-16.826.514-4.092 3.409-7.585 7.633-10.695 5.048-3.715 11.959-6.747 19.947-9.084 11.816-3.458 25.945-5.369 40.146-5.414z"/><path d="m122.809 144.367c-10.692.153-21.749-.587-30.848-2.541 8.091-3.61 19.394-5.115 30.483-5.049.122 0 .243.001.365.002z"/><path d="m71.05 188.792c-.455-1.758-.718-3.508-.813-5.215-6.45-4.389-17.494-15.59-17.187-30.721-18.832-16.776-24.625-31.975-22.426-44.461 2.3-13.062 13.506-23.9 30.041-31.238 16.903-7.501 39.405-11.474 62.144-11.184v-39.83c-.14.004-.281.006-.421.006-3.901 0-7.463-1.47-10.16-3.885l-112.228 65.155v74.848l58.37 33.887z"/></g></svg>