<svg clip-rule="evenodd" fill-rule="evenodd" stroke-linejoin="round" stroke-miterlimit="2" viewBox="0 0 600 136" xmlns="http://www.w3.org/2000/svg"><g fill="#fff" fill-rule="nonzero"><path d="m28.475 99.552c-.192 0-.387-.044-.571-.134-18.678-9.065-28.322-19.632-27.89-30.563.351-8.998 7.694-17.493 21.234-24.569 12.847-6.713 30.967-12.04 52.403-15.408.715-.111 1.385.377 1.497 1.091s-.376 1.383-1.091 1.497c-43.421 6.819-70.789 21.185-71.426 37.493-.382 9.669 8.999 19.65 26.417 28.104.65.317.922 1.097.606 1.751-.227.465-.694.738-1.179.738z"/><path d="m191.295 32.424c-.071 0-.142-.006-.214-.018-13.798-2.265-28.362-3.777-43.288-4.491-.724-.034-1.281-.648-1.246-1.371.034-.722.659-1.273 1.37-1.244 15.029.719 29.694 2.241 43.591 4.522.711.117 1.197.79 1.078 1.505-.106.642-.66 1.097-1.291 1.097z"/><path d="m150.074 121.863c-.367 0-.731 0-1.098-.002-.723-.001-1.305-.589-1.303-1.313.002-.722.585-1.304 1.307-1.304h.006c.359.001.727.001 1.089.001 70.082.001 125.383-18.216 126.112-41.628.257-8.192-6.324-16.505-19.036-24.035-12.656-7.501-30.795-13.893-52.454-18.486-.707-.151-1.158-.846-1.01-1.553.149-.707.847-1.157 1.553-1.009 21.934 4.652 40.346 11.151 53.246 18.795 13.581 8.047 20.607 17.167 20.319 26.369-.387 12.451-14.141 23.801-38.728 31.954-23.772 7.882-55.698 12.211-90.003 12.211z"/><path d="m173.789 53.687 34.572-26.353-40.605 16.208-11.412-11.877 3.639 16.458-34.573 26.352 40.608-16.212 11.409 11.878z"/><path d="m130.492 86.584c.496-2.44 1.4-2.085 3.874-2.479l2.303-.362-.717 3.84-2.303.368c-2.474.392-3.563 1.054-3.157-1.367zm-4.993-3.516-1.792 9.642c-.491 2.633.305 3.481 2.838 3.08l14.671-2.327 3.145-16.911-14.672 2.324c-2.535.402-3.703 1.56-4.19 4.192zm93.129-15.221-.171.933 15.133-2.402c1.194-.192 2.358-1.4 2.602-2.705.238-1.305-.529-2.209-1.725-2.019l-3.886.614-6.201.987-1.571.246c-1.818.291-3.812 2.363-4.181 4.346zm-106.17 43.607.123-.672c.52.039 1.217.24 1.826.15l15.727-2.468c-.584 3.138-4.728 3.924-11.052 4.926l-7.199 1.144-3.859 20.754 9.456-1.498c23.284-2.299 32.142-14.332 34.986-28.678l28.37-4.503 4.571-24.599 2.307-.369c2.529-.401 2.156-.859 1.671 1.769l-4.185 22.509 20.368-3.232.279-1.492c1.537.678 3.333.917 5.236.619l35.224-5.587 3.285-17.681-2.283-1.626c1.978-2.343 3.52-5.209 3.966-7.615l.556-2.789c1.756-10.429-7.859-13.198-12.246-12.501l-20.214 3.207c-3.58.569-7.522 3.063-10.39 6.368-2.653-2.627-6.748-3.648-9.129-3.27l-22.504 3.57 2.519 5.568 20.296-3.216c2.927-.466 4.882.702 5.419 3.02-.215.613-5.419 28.316-5.419 28.316l-7.277 1.155 3.902-20.972c.483-2.627-.311-3.476-2.838-3.074l-13.945 2.215-4.576 24.6-7.999 1.273 5.235-28.165-6.586-7.769-23.705 8.57 11.235-1.783.181-.025-7.144 38.436c-1.815 9.764-12.234 19.101-21.475 20.568l-9.457 1.499 1.434-7.693 7.194-1.137c6.324-1.007 13.443-7.336 14.671-13.955l.776-4.164-18.732 2.971c-4.016.638-6.196-1.802-5.406-6.045l3.359-18.069c.594-3.211 2.597-5.877 5.278-7.263l.044-.481 9.398-7.233-5.49.923c-2.921.461-8.337 2.652-11.779 7.041-2.602-3.105-7.154-4.321-9.717-3.914l-20.19 3.207 3.29-17.686 14.73-2.337c7.841-1.242 16.517-10.061 18.059-18.344l2.215-11.917c1.541-8.289-4.287-14.805-12.128-13.562l-32.191 5.107-6.86 36.904-29.642 4.704c-2.509.399-4.949 2.873-5.44 5.524l-11.079 59.581c-.491 2.653 1.144 4.481 3.654 4.087l56.559-8.976 4.576-24.6 2.303-.368c2.534-.398 2.16-.853 1.669 1.773l-4.183 22.502 20.372-3.232zm-41.971-13.488-18.914 3 .712-3.839 15.276-2.429 3.717-19.989-15.276 2.427.712-3.842 18.914-3.002zm-1.144 6.152-1.572 8.455-33.462 5.308 10.43-56.123 27.643-4.385-1.429 7.689-19.64 3.119-3 16.145 16.002-2.539-1.429 7.685-16.002 2.539-3.005 16.148zm38.436 2.113-8.004 1.264 3.899-20.966c.491-2.628-.305-3.481-2.838-3.08l-13.945 2.215-4.571 24.6-8.003 1.272 6-32.287.186-.031 26.549-4.211c4.016-.639 6.196 1.796 5.406 6.043zm52.012-39.592 7.822-1.237-6.006 32.287-8 1.267 6-32.283zm48.532 15.218 2.777-14.937c.881-4.723 5.957-9.364 10.283-10.051l18.712-2.965c3.153-.502 5.343 3.019 4.7 6.465l-.917 4.807c-.645 3.447-4.165 7.11-7.316 7.611l-19.424 3.084-.28 1.743c-.369 1.982.947 3.531 2.765 3.241l21.71-3.457-1.463 7.879-24.492 3.883c-4.325.685-7.929-2.576-7.055-7.303zm-115.766-41.859 2.716-14.608 10.184-1.616c1.335-.211 2.018.551 1.752 1.959l-1.856 9.998c-.265 1.414-1.276 2.44-2.612 2.651z"/><path d="m157.65 46.832-2.162-8.563-1.219.147-.392 2.112c-.271 1.464-1.447 2.655-2.829 2.878l-8.368 1.325c-1.381.221-2.171-.663-1.899-2.126l4.217-22.68c.27-1.458 1.447-2.651 2.827-2.872l8.37-1.326c1.38-.22 2.17.664 1.897 2.121l-.54 2.887 16.915-2.686.643-3.457c1.621-8.724-4.311-15.358-12.571-14.052l-16.182 2.569c-8.254 1.311-17.092 10.286-18.711 19.011l-4.502 24.217c-1.621 8.725 4.311 15.358 12.57 14.048l5.409-.855z"/><path d="m169.64 41.667c.441-1.188.747-1.64.973-2.859l.575-3.078-6.732 1.07z"/><path d="m483.127 90.017c-6.242 0-11.758-2.029-15.733-5.448-3.978-3.413-6.401-8.247-6.396-13.686-.005-5.441 2.418-10.275 6.396-13.687 3.975-3.419 9.492-5.448 15.733-5.448h17.97v2.329h-17.97c-5.74 0-10.705 1.865-14.216 4.884-3.51 3.028-5.58 7.178-5.584 11.922.005 4.743 2.074 8.894 5.584 11.92 3.511 3.02 8.477 4.885 14.216 4.885h17.97c5.738 0 10.705-1.865 14.215-4.885 3.511-3.026 5.581-7.177 5.585-11.92-.005-4.744-2.074-8.894-5.585-11.922-3.511-3.019-8.478-4.884-14.215-4.884v-2.329c6.241 0 11.758 2.029 15.734 5.448 3.976 3.412 6.399 8.246 6.395 13.687.004 5.439-2.419 10.273-6.395 13.686-3.976 3.419-9.493 5.448-15.734 5.448zm0-5.99c-9.498-.001-16.106-6.401-16.141-13.144.035-6.745 6.643-13.144 16.141-13.145h17.97c9.498.001 16.105 6.401 16.139 13.145-.034 6.743-6.641 13.143-16.139 13.144v-2.329c4.23-.001 7.696-1.418 10.097-3.481 2.404-2.066 3.717-4.763 3.714-7.334.004-2.573-1.31-5.269-3.714-7.335-2.401-2.062-5.866-3.48-10.097-3.481h-17.97c-4.231.001-7.697 1.419-10.098 3.481-2.404 2.066-3.716 4.762-3.713 7.335-.004 2.571 1.309 5.268 3.713 7.334 2.401 2.063 5.866 3.48 10.098 3.481h17.97v2.329z"/><path d="m344.193 90.017h-28.12c-6.242 0-11.758-2.03-15.734-5.448-3.976-3.413-6.4-8.247-6.395-13.686-.005-5.441 2.419-10.275 6.395-13.687 3.977-3.419 9.493-5.449 15.734-5.449h28.12v8.32h-28.12c-4.231.001-7.696 1.419-10.098 3.481-2.404 2.066-3.716 4.762-3.712 7.335-.004 2.571 1.308 5.267 3.712 7.334 2.402 2.063 5.867 3.48 10.098 3.481h26.955v1.165-1.165h1.165zm-42.336-31.055c-3.51 3.027-5.58 7.178-5.585 11.921.005 4.743 2.075 8.894 5.585 11.92 3.511 3.02 8.477 4.885 14.215 4.885h25.791v-3.66h-25.791c-9.498-.001-16.105-6.401-16.139-13.145.034-6.744 6.641-13.143 16.139-13.144h25.791v-3.66c-3.974-.001-17.218-.001-25.791-.001-5.738-.001-10.704 1.865-14.215 4.884z"/><path d="m358.677 90.017h-10.824v-38.27h28.119v2.33c-6.789-.001-13.527-.001-18.568 0-3.275-.001-5.832-.001-7.222-.001v33.611c1.612.001 4.753.001 8.495.001 5.465-.001 12.204-.001 17.296 0 5.738-.001 10.704-1.865 14.216-4.885 3.511-3.027 5.58-7.178 5.583-11.921-.003-4.743-2.072-8.894-5.583-11.921-3.511-3.02-8.478-4.885-14.216-4.885v-2.329c6.242-.001 11.759 2.029 15.733 5.448 3.978 3.412 6.401 8.246 6.397 13.687.004 5.44-2.419 10.274-6.397 13.686-3.975 3.419-9.492 5.448-15.733 5.448-5.092.001-11.831.001-17.296.001zm-3.669-5.99h-1.165v-26.289h22.13c9.499 0 16.105 6.4 16.14 13.144-.035 6.744-6.641 13.143-16.14 13.144v-2.329c4.23-.001 7.697-1.418 10.097-3.481 2.404-2.067 3.716-4.763 3.713-7.334.003-2.572-1.309-5.268-3.713-7.335-2.4-2.062-5.867-3.48-10.097-3.481h-19.8v21.631h19.8v2.329c-5.511.001-12.103.001-20.965.001z"/><path d="m449.684 90.017v-1.164c-.002 0-.002-5.991 0-8.985.007-1.102-.583-2.353-1.532-3.295-.942-.948-2.193-1.539-3.295-1.532h-25.79v14.975h-8.32v-38.27h37.105c3.297-.015 5.961 1.334 7.658 3.526 1.704 2.186 2.49 5.105 2.492 8.289-.016 1.879-.867 3.856-2.114 5.495-.674.861-1.474 1.649-2.393 2.199.373.301.771.648 1.172 1.049 1.627 1.622 3.336 4.159 3.336 7.563v10.149h-8.319zm5.989-2.329c0-1.38 0-3.987.001-7.82-.001-2.428-1.129-4.291-2.4-5.653-1.265-1.352-2.648-2.135-2.906-2.269-.035-.018-.041-.021-.041-.021l.521-1.042-.521 1.042.521-2.207c.912.032 2.207-.778 3.196-2.083.997-1.274 1.646-2.956 1.63-4.073.001-2.805-.709-5.211-2-6.852-1.298-1.635-3.127-2.616-5.822-2.632h-34.774v33.611h3.66v-14.975h28.12c1.892.008 3.637.915 4.942 2.213 1.298 1.304 2.204 3.05 2.212 4.942v7.821h3.661zm-10.815-18.635h-28.12v-11.315h28.12c1.712.003 3.42.461 4.788 1.419 1.366.94 2.379 2.501 2.366 4.404.022 1.907-1.033 3.432-2.415 4.273-1.383.864-3.071 1.214-4.739 1.219v-2.33c1.327.004 2.634-.31 3.497-.861.866-.573 1.309-1.212 1.329-2.301-.013-1.091-.497-1.858-1.378-2.499-.879-.625-2.165-.998-3.448-.995h-25.791v6.656h25.791z"/><path d="m403.427 75.042v-2.329h2.246c1.011-.001 1.829-.819 1.83-1.83-.001-1.011-.819-1.829-1.83-1.83h-2.246c-1.01.001-1.828.819-1.83 1.83.002 1.011.82 1.829 1.83 1.83v2.329c-2.298 0-4.159-1.861-4.159-4.159 0-2.297 1.861-4.159 4.159-4.159h2.246c2.298 0 4.159 1.862 4.16 4.159-.001 2.298-1.862 4.159-4.16 4.159z"/><path d="m568.817 90.018v-25.125c-.003-1.308-.314-2.156-.762-2.781-.45-.623-1.084-1.061-1.875-1.379-1.577-.639-3.697-.673-5.182-.664l-4.826-.001v29.95h-8.319v-29.949h-4.826c-1.118-.003-2.582.005-3.916.289-1.348.286-2.477.826-3.142 1.754-.449.626-.758 1.474-.763 2.781v25.125h-8.319v-28.12c-.015-3.402 1.765-6.067 4.262-7.709 2.498-1.658 5.696-2.437 8.883-2.441h23.96c3.186.004 6.383.783 8.882 2.441 2.497 1.642 4.278 4.307 4.262 7.709v28.12zm5.99-2.33v-25.79c-.016-2.588-1.23-4.415-3.225-5.77-1.995-1.337-4.788-2.054-7.59-2.051h-23.96c-2.804-.003-5.597.714-7.591 2.051-1.996 1.355-3.21 3.182-3.225 5.77v25.79h3.661c-.002-4.077-.002-17.726 0-22.795-.005-1.688.434-3.086 1.202-4.144.767-1.062 1.818-1.748 2.9-2.179 2.166-.857 4.539-.824 6.047-.832h5.99v1.165-1.165h1.165v29.95h3.66v-29.95h7.157c1.126.001 2.75-.006 4.399.34 1.636.347 3.386 1.071 4.546 2.671.769 1.058 1.208 2.456 1.203 4.144v22.795z"/><path d="m582.174 56.597c-.929 1.471-1.146 3.484-1.141 5.304v2.283h18.636v-3.587h-13.288v-.666c-.032-1.08.569-1.928 1.35-2.258.764-.348 1.619-.379 2.449-.385.481 0 .953.017 1.379.017h2.229c1.889 0 3.434-.482 4.494-1.425 1.058-.942 1.713-2.374 1.718-4.532.004-1.336-.43-2.794-1.292-3.876-.867-1.081-2.115-1.818-3.936-1.826h-11.78v3.254h8.363c.68.004 1.439.043 2.135.367.705.304 1.289 1.086 1.261 2.081.013.912-.393 1.685-1.017 2.117-.619.437-1.371.583-2.124.586h-3.733c-3.2.021-4.771 1.089-5.703 2.546z"/></g></svg>