<svg clip-rule="evenodd" fill-rule="evenodd" stroke-linejoin="round" stroke-miterlimit="2" viewBox="0 0 600 130" xmlns="http://www.w3.org/2000/svg"><g fill="#fff" fill-rule="nonzero"><path d="m0 .974h29.719v8.746h-8.698v118.704h-10.513v-118.704h-10.508v-8.746z"/><path d="m56.641 119.737h11.601v-83.167h10.146v83.167c0 5.381-4.892 9.194-9.906 9.194h-11.841c-5.299 0-10.027-4.312-10.027-9.303v-83.058h10.027z"/><path d="m274.822 56.883h15.497v72.131h-21.836c-4.669 0-10.42-3.574-10.42-8.996v-109.035c0-4.58 4.799-9.458 10.19-9.458h11.916c5.285 0 10.081 4.833 10.081 9.351v25.831h-10.444v-25.471h-11.867v108.863h12.141v-54.388h-5.258z"/><path d="m424.663 84.746v43.72h-9.784v-83.735c0-3.782 3.76-7.903 8.517-7.903h16.129v8.07h-14.862v30.938h12.234v8.951z"/><path d="m459.366 36.851h10.269v33.35l5.798 5.831 5.676-5.669v-33.512h10.145v31.731c0 3.874-10.022 14.082-10.022 14.082s10.145 10.201 10.145 14.336v31.65h-9.543v-32.95l-6.162-6.231-6.16 6.149v33.033h-10.146v-31.574c0-3.882 10.747-14.493 10.747-14.493s-10.747-10.095-10.747-14.162z"/><path d="m122.361 84.952c3.442 0 8.02-4.115 8.02-9.622v-30.096c0-4.331-4.94-8.363-10.557-8.363h-20.84v91.963h9.606v-43.206h3.624l10.691 43.043h9.423zm-1.901-8.992h-11.509v-30.179h11.509z"/><path d="m334.918 84.712c3.444 0 8.023-4.122 8.023-9.626v-30.095c0-4.33-4.942-8.367-10.557-8.367h-20.838v91.97h9.598v-43.212h3.628l10.693 43.041h9.42zm-2.041-9.095h-11.5v-30.178h11.5z"/><path d="m181.729 87.121c-.044-4.121-4.347-6.729-4.347-6.729s4.347-2.813 4.347-6.724v-28.074c0-5.299-4.665-8.746-9.42-8.746h-21.928v91.803h21.928c4.44 0 9.42-2.773 9.42-8.743 0 0 .049-28.671 0-32.787zm-9.875 32.534h-11.505v-34.217h11.505zm0-43.717h-11.505v-30.177h11.505z"/><path d="m223.724 36.169h-11.416c-5.755 0-9.945 4.919-9.945 8.661v74.556c0 4.82 5.368 9.189 9.9 9.189h12.412c4.847 0 9.695-5.005 9.695-8.996v-75.002c0-3.362-4.578-8.408-10.646-8.408zm.362 82.93h-11.115v-73.848h11.115z"/><path d="m384.907 36.826h-12.677c-5.711 0-9.064 4.707-9.064 8.408v83.232h9.604v-43.72h12.138v43.72h9.606v-82.729c-.001-5.491-3.801-8.911-9.607-8.911zm-.274 38.841h-11.501v-29.591h11.501z"/><path d="m552.847 35.553c-26.044 0-47.154 21.112-47.154 47.154 0 26.044 21.111 47.155 47.154 47.155 26.042 0 47.153-21.112 47.153-47.155 0-26.041-21.111-47.154-47.153-47.154zm-2.359 35.367h-4.716v-2.36l-2.357-2.356h-18.863v35.364h18.863l2.357-2.357v-2.358h4.716v4.715l-4.716 4.717h-23.576l-2.359-2.358v-40.081l2.359-2.358h23.576l4.716 4.716zm35.366 30.648-4.715 4.717h-25.936v-4.717h2.36v-35.364h-2.36v-4.717h25.936l4.715 4.717zm-23.577 0h18.862v-35.364h-18.862z"/></g></svg>