<svg clip-rule="evenodd" fill-rule="evenodd" stroke-linejoin="round" stroke-miterlimit="2" viewBox="0 0 600 130" xmlns="http://www.w3.org/2000/svg"><g fill="#fff" fill-rule="nonzero"><path d="m0 .297h29.719v8.746h-8.698v118.704h-10.513v-118.704h-10.508v-8.746z"/><path d="m56.641 119.059h11.601v-83.166h10.146v83.166c0 5.382-4.892 9.195-9.906 9.195h-11.841c-5.299 0-10.027-4.313-10.027-9.304v-83.057h10.027z"/><path d="m274.822 56.206h15.497v72.13h-21.836c-4.669 0-10.42-3.574-10.42-8.995v-109.035c0-4.581 4.799-9.459 10.19-9.459h11.916c5.285 0 10.081 4.834 10.081 9.352v25.83h-10.444v-25.471h-11.867v108.863h12.141v-54.388h-5.258z"/><path d="m424.663 84.068v43.72h-9.784v-83.734c0-3.783 3.76-7.904 8.517-7.904h16.129v8.071h-14.862v30.937h12.234v8.952z"/><path d="m459.366 36.173h10.269v33.351l5.798 5.83 5.676-5.668v-33.513h10.145v31.731c0 3.875-10.022 14.083-10.022 14.083s10.145 10.201 10.145 14.336v31.649h-9.543v-32.95l-6.162-6.23-6.16 6.149v33.032h-10.146v-31.574c0-3.882 10.747-14.493 10.747-14.493s-10.747-10.094-10.747-14.161z"/><path d="m122.361 84.275c3.442 0 8.02-4.115 8.02-9.623v-30.096c0-4.33-4.94-8.363-10.557-8.363h-20.84v91.964h9.606v-43.206h3.624l10.691 43.043h9.423zm-1.901-8.993h-11.509v-30.178h11.509z"/><path d="m334.918 84.035c3.444 0 8.023-4.123 8.023-9.626v-30.096c0-4.33-4.942-8.366-10.557-8.366h-20.838v91.969h9.598v-43.212h3.628l10.693 43.042h9.42zm-2.041-9.096h-11.5v-30.177h11.5z"/><path d="m181.729 86.443c-.044-4.121-4.347-6.729-4.347-6.729s4.347-2.813 4.347-6.723v-28.075c0-5.299-4.665-8.746-9.42-8.746h-21.928v91.803h21.928c4.44 0 9.42-2.772 9.42-8.742 0 0 .049-28.672 0-32.788zm-9.875 32.535h-11.505v-34.217h11.505zm0-43.717h-11.505v-30.177h11.505z"/><path d="m223.724 35.492h-11.416c-5.755 0-9.945 4.919-9.945 8.66v74.557c0 4.819 5.368 9.188 9.9 9.188h12.412c4.847 0 9.695-5.005 9.695-8.996v-75.002c0-3.361-4.578-8.407-10.646-8.407zm.362 82.93h-11.115v-73.849h11.115z"/><path d="m384.907 36.149h-12.677c-5.711 0-9.064 4.706-9.064 8.407v83.232h9.604v-43.72h12.138v43.72h9.606v-82.729c-.001-5.49-3.801-8.91-9.607-8.91zm-.274 38.841h-11.501v-29.591h11.501z"/><path d="m552.847 34.876c-26.044 0-47.154 21.112-47.154 47.154 0 26.043 21.111 47.154 47.154 47.154 26.042 0 47.153-21.112 47.153-47.154 0-26.041-21.111-47.154-47.153-47.154zm-2.359 35.366h-4.716v-2.359l-2.357-2.357h-18.863v35.365h18.863l2.357-2.357v-2.359h4.716v4.716l-4.716 4.717h-23.576l-2.359-2.359v-40.08l2.359-2.359h23.576l4.716 4.717zm35.366 30.649-4.715 4.717h-25.936v-4.717h2.36v-35.365h-2.36v-4.717h25.936l4.715 4.717zm-23.577 0h18.862v-35.365h-18.862z"/></g></svg>