<?xml version="1.0" encoding="UTF-8" standalone="no"?><!DOCTYPE svg PUBLIC "-//W3C//DTD SVG 1.1//EN" "http://www.w3.org/Graphics/SVG/1.1/DTD/svg11.dtd"><svg width="100%" height="100%" viewBox="0 0 600 319" version="1.1" xmlns="http://www.w3.org/2000/svg" xmlns:xlink="http://www.w3.org/1999/xlink" xml:space="preserve" xmlns:serif="http://www.serif.com/" style="fill-rule:evenodd;clip-rule:evenodd;stroke-linejoin:round;stroke-miterlimit:2;"><g id="nec_pcengine_supergrafx"><g><g><path d="M43.576,152.474c-0.294,-0 -0.593,-0.066 -0.874,-0.204c-28.583,-13.873 -43.342,-30.044 -42.681,-46.772c0.538,-13.769 11.775,-26.769 32.495,-37.599c19.66,-10.272 47.39,-18.425 80.195,-23.578c1.094,-0.171 2.118,0.576 2.29,1.669c0.172,1.093 -0.575,2.117 -1.669,2.29c-66.449,10.436 -108.332,32.421 -109.305,57.377c-0.585,14.797 13.771,30.072 40.425,43.008c0.996,0.486 1.411,1.679 0.928,2.68c-0.347,0.712 -1.061,1.129 -1.804,1.129Z" style="fill:#fff;fill-rule:nonzero;"/></g><g><path d="M292.744,49.746c-0.109,0 -0.217,-0.008 -0.328,-0.026c-21.115,-3.467 -43.402,-5.781 -66.245,-6.874c-1.108,-0.052 -1.96,-0.991 -1.906,-2.097c0.053,-1.105 1.009,-1.949 2.097,-1.905c22.998,1.101 45.441,3.43 66.707,6.921c1.09,0.179 1.832,1.209 1.651,2.303c-0.163,0.982 -1.011,1.678 -1.976,1.678Z" style="fill:#fff;fill-rule:nonzero;"/></g><g><path d="M229.662,186.618c-0.561,-0 -1.118,-0 -1.679,-0.002c-1.107,-0.003 -1.998,-0.902 -1.995,-2.011c0.003,-1.104 0.895,-1.996 2,-1.996l0.01,0c0.549,0.002 1.113,0.002 1.667,0.002c107.248,0.001 191.876,-27.876 192.993,-63.704c0.392,-12.537 -9.68,-25.258 -29.133,-36.782c-19.367,-11.478 -47.127,-21.261 -80.272,-28.289c-1.082,-0.231 -1.772,-1.295 -1.545,-2.376c0.228,-1.083 1.296,-1.772 2.377,-1.545c33.566,7.119 61.742,17.065 81.484,28.762c20.783,12.316 31.535,26.271 31.094,40.355c-0.592,19.052 -21.64,36.422 -59.266,48.9c-36.379,12.061 -85.236,18.686 -137.735,18.686Z" style="fill:#fff;fill-rule:nonzero;"/></g><path d="M265.954,82.286l52.907,-40.329l-62.14,24.805l-17.463,-18.177l5.568,25.187l-52.907,40.327l62.143,-24.811l17.46,18.178l-5.568,-25.18Z" style="fill:#fff;fill-rule:nonzero;"/><g><path d="M199.696,132.629c0.759,-3.734 2.142,-3.19 5.929,-3.793l3.524,-0.554l-1.097,5.877l-3.525,0.563c-3.786,0.6 -5.453,1.613 -4.831,-2.093Zm-7.641,-5.38l-2.743,14.755c-0.751,4.029 0.467,5.327 4.344,4.714l22.451,-3.561l4.813,-25.88l-22.453,3.557c-3.879,0.615 -5.667,2.387 -6.412,6.415Zm142.518,-23.293l-0.262,1.427l23.158,-3.676c1.828,-0.294 3.61,-2.141 3.982,-4.139c0.365,-1.997 -0.809,-3.381 -2.639,-3.089l-5.947,0.939l-9.49,1.511l-2.404,0.376c-2.782,0.445 -5.834,3.616 -6.398,6.651Zm-162.476,66.732l0.188,-1.028c0.797,0.06 1.864,0.368 2.795,0.229l24.068,-3.776c-0.894,4.802 -7.236,6.005 -16.914,7.539l-11.016,1.75l-5.906,31.761l14.471,-2.293c35.632,-3.518 49.188,-21.933 53.539,-43.886l43.416,-6.891l6.996,-37.646l3.531,-0.564c3.87,-0.614 3.299,-1.314 2.556,2.707l-6.404,34.446l31.17,-4.946l0.427,-2.283c2.352,1.038 5.101,1.404 8.012,0.947l53.905,-8.549l5.027,-27.058l-3.494,-2.488c3.027,-3.586 5.387,-7.973 6.07,-11.654l0.85,-4.268c2.688,-15.96 -12.026,-20.198 -18.74,-19.131l-30.935,4.908c-5.478,0.87 -11.511,4.688 -15.9,9.745c-4.06,-4.02 -10.326,-5.582 -13.97,-5.004l-34.439,5.464l3.856,8.52l31.059,-4.922c4.479,-0.713 7.472,1.075 8.293,4.621c-0.33,0.94 -8.293,43.334 -8.293,43.334l-11.136,1.768l5.971,-32.095c0.739,-4.019 -0.476,-5.319 -4.343,-4.704l-21.341,3.39l-7.002,37.645l-12.242,1.949l8.012,-43.102l-10.078,-11.888l-36.278,13.114l17.194,-2.728l0.278,-0.039l-10.933,58.819c-2.778,14.943 -18.722,29.231 -32.864,31.476l-14.472,2.294l2.194,-11.772l11.009,-1.741c9.677,-1.54 20.573,-11.225 22.452,-21.355l1.187,-6.373l-28.666,4.547c-6.146,0.977 -9.483,-2.757 -8.273,-9.25l5.14,-27.651c0.909,-4.914 3.975,-8.995 8.078,-11.116l0.067,-0.736l14.382,-11.069l-8.402,1.413c-4.469,0.706 -12.758,4.058 -18.025,10.775c-3.983,-4.751 -10.948,-6.613 -14.871,-5.99l-30.897,4.908l5.035,-27.065l22.542,-3.577c11.999,-1.901 25.277,-15.396 27.636,-28.072l3.389,-18.237c2.359,-12.684 -6.56,-22.656 -18.56,-20.754l-49.262,7.815l-10.498,56.476l-45.362,7.198c-3.84,0.61 -7.575,4.396 -8.326,8.453l-16.953,91.179c-0.752,4.06 1.75,6.858 5.591,6.254l86.554,-13.736l7.003,-37.646l3.524,-0.563c3.877,-0.609 3.306,-1.306 2.555,2.713l-6.402,34.435l31.175,-4.946Zm-64.229,-20.64l-28.944,4.591l1.09,-5.876l23.376,-3.716l5.688,-30.59l-23.376,3.714l1.089,-5.88l28.944,-4.594l-7.867,42.351Zm-1.751,9.415l-2.405,12.937l-51.208,8.125l15.961,-85.887l42.304,-6.71l-2.187,11.766l-30.057,4.773l-4.591,24.707l24.489,-3.885l-2.186,11.761l-24.489,3.884l-4.598,24.713l38.967,-6.184Zm58.82,3.233l-12.248,1.935l5.966,-32.086c0.752,-4.022 -0.466,-5.327 -4.343,-4.713l-21.34,3.39l-6.995,37.646l-12.248,1.946l9.182,-49.409l0.285,-0.048l40.629,-6.444c6.146,-0.978 9.482,2.748 8.273,9.248l-7.161,38.535Zm79.595,-60.589l11.97,-1.893l-9.19,49.409l-12.242,1.94l9.181,-49.405l0.281,-0.051Zm74.271,23.288l4.25,-22.858c1.348,-7.228 9.116,-14.329 15.735,-15.382l28.636,-4.537c4.825,-0.768 8.177,4.621 7.192,9.894l-1.403,7.356c-0.987,5.275 -6.374,10.881 -11.195,11.647l-29.726,4.72l-0.428,2.668c-0.564,3.033 1.45,5.404 4.231,4.96l33.225,-5.29l-2.24,12.056l-37.48,5.943c-6.62,1.047 -12.135,-3.943 -10.797,-11.177Zm-177.16,-64.058l4.156,-22.355l15.584,-2.472c2.044,-0.323 3.089,0.842 2.682,2.998l-2.84,15.299c-0.406,2.164 -1.954,3.734 -3.998,4.058l-15.584,2.472Z" style="fill:#fff;fill-rule:nonzero;"/><g><path d="M241.256,71.796l-3.308,-13.104l-1.866,0.225l-0.6,3.231c-0.415,2.241 -2.215,4.064 -4.329,4.404l-12.806,2.029c-2.113,0.337 -3.322,-1.015 -2.906,-3.254l6.453,-34.707c0.414,-2.232 2.215,-4.058 4.326,-4.396l12.809,-2.029c2.113,-0.337 3.321,1.016 2.903,3.246l-0.826,4.418l25.886,-4.111l0.984,-5.29c2.481,-13.351 -6.598,-23.502 -19.237,-21.504l-24.765,3.931c-12.63,2.006 -26.155,15.742 -28.634,29.093l-6.89,37.061c-2.479,13.351 6.598,23.502 19.237,21.497l8.278,-1.308l25.291,-19.432Z" style="fill:#fff;fill-rule:nonzero;"/><path d="M259.605,63.891c0.675,-1.818 1.143,-2.509 1.49,-4.374l0.879,-4.711l-10.302,1.637l7.933,7.448Z" style="fill:#fff;fill-rule:nonzero;"/></g></g></g><g><path d="M373.786,189.902l-26.039,-0l-11.392,13.02l-0,27.666l13.019,13.02l11.392,-0l-0,-17.902l-4.882,-0l-0,-19.53l13.019,0l0,13.02l17.902,0l0,-16.274l-13.019,-13.02Z" style="fill:#fff;"/><path d="M349.374,281.039l27.666,-0l11.392,-13.019l0,-29.294l-13.019,-13.02l-11.392,-0l0,17.902l4.882,-0l0,19.529l-13.019,-0l-0,-13.02l-19.529,-0l-0,17.903l13.019,13.019Z" style="fill:#fff;"/><path d="M391.687,268.02l13.834,13.019l10.578,-0l0,-16.274l-4.883,0l0,-74.863l-19.529,-0l0,78.118Z" style="fill:#fff;"/><path d="M443.765,268.02l-13.832,13.019l-10.579,-0l-0,-16.274l4.882,0l-0,-74.863l19.529,-0l-0,78.118Z" style="fill:#fff;"/><path d="M471.432,189.902l0,16.274l6.51,0l-0,27.667l-6.51,-0l0,17.902l13.019,-0l13.02,-13.019l-0,-34.991l-13.833,-13.833l-12.206,-0Z" style="fill:#fff;"/><rect x="448.648" y="189.902" width="19.529" height="91.136" style="fill:#fff;"/><path d="M521.882,207.804l21.157,0l0,-17.902l-39.058,-0l-0,91.137l39.058,-0l0,-16.274l-21.157,0l0,-56.961Z" style="fill:#fff;"/><rect x="525.137" y="225.706" width="13.02" height="16.275" style="fill:#fff;"/><path d="M572.333,189.902l14.648,-0l13.019,13.02l-0,24.411l-8.951,8.951l8.951,8.951l-0,35.804l-17.903,-0l0,-35.804l-9.764,-0l0,-17.902l8.137,-0l-0,-21.157l-8.137,0l0,-16.274Z" style="fill:#fff;"/><rect x="549.549" y="189.902" width="19.528" height="91.136" style="fill:#fff;"/><path d="M375.413,290.803l-4.069,4.069l0,18.716l5.289,5.289l29.701,-0l0,-16.682l-16.273,0l-0,4.883l11.391,0l-0,6.51l-22.784,0l-0,-17.903l27.666,0l0,-4.882l-30.921,-0Z" style="fill:#fff;"/><path d="M445.393,303.009l-0,-7.324l-4.882,-4.882l-27.667,-0l0,27.666l6.51,0l-0,-11.391l11.392,0l8.137,11.391l6.51,0l-8.137,-11.391l3.255,0l4.882,-4.069Zm-6.51,-0.814l-19.529,0l-0,-6.509l19.529,0l-0,6.509Z" style="fill:#fff;"/><path d="M448.648,318.469l13.02,-27.666l13.019,-0l14.647,27.666l-8.138,0l-11.391,-21.155l-3.255,-0l-9.765,21.155l-8.137,0Z" style="fill:#fff;"/><path d="M490.961,290.803l-0,27.666l6.51,0l-0,-11.391l21.156,0l0,-4.883l-21.156,0l-0,-6.51l24.411,0l0,-4.882l-30.921,-0Z" style="fill:#fff;"/><path d="M525.137,290.803l13.021,13.02l-14.648,14.646l9.764,0l9.765,-9.764l9.765,9.764l9.764,0l-14.647,-14.646l14.647,-13.02l-9.764,-0l-9.765,9.765l-9.765,-9.765l-8.137,-0Z" style="fill:#fff;"/></g></g></svg>