<?xml version="1.0" encoding="UTF-8" standalone="no"?><!DOCTYPE svg PUBLIC "-//W3C//DTD SVG 1.1//EN" "http://www.w3.org/Graphics/SVG/1.1/DTD/svg11.dtd"><svg width="100%" height="100%" viewBox="0 0 600 130" version="1.1" xmlns="http://www.w3.org/2000/svg" xmlns:xlink="http://www.w3.org/1999/xlink" xml:space="preserve" xmlns:serif="http://www.serif.com/" style="fill-rule:evenodd;clip-rule:evenodd;stroke-linejoin:round;stroke-miterlimit:2;"><g id="nec_turbografxcd"><path d="M-0,0.461l29.719,0l0,8.747l-8.698,-0l-0,118.704l-10.513,-0l0,-118.704l-10.508,-0l-0,-8.747Z" style="fill:#fff;fill-rule:nonzero;"/><path d="M56.641,119.224l11.601,-0l-0,-83.166l10.146,-0l-0,83.166c-0,5.381 -4.892,9.195 -9.906,9.195l-11.841,-0c-5.299,-0 -10.027,-4.313 -10.027,-9.304l0,-83.057l10.027,-0l0,83.166Z" style="fill:#fff;fill-rule:nonzero;"/><path d="M274.822,56.37l15.497,0l-0,72.131l-21.836,0c-4.669,0 -10.42,-3.574 -10.42,-8.996l-0,-109.035c-0,-4.58 4.799,-9.458 10.19,-9.458l11.916,-0c5.285,-0 10.081,4.833 10.081,9.351l-0,25.831l-10.444,0l0,-25.471l-11.867,0l-0,108.863l12.141,-0l0,-54.388l-5.258,-0l0,-8.828Z" style="fill:#fff;fill-rule:nonzero;"/><path d="M424.663,84.233l-0,43.72l-9.784,-0l0,-83.735c0,-3.782 3.76,-7.903 8.517,-7.903l16.129,-0l-0,8.071l-14.862,-0l-0,30.937l12.234,-0l0,8.951l-12.234,-0.041Z" style="fill:#fff;fill-rule:nonzero;"/><path d="M459.366,36.338l10.269,0l-0,33.35l5.798,5.831l5.676,-5.669l0,-33.512l10.145,0l0,31.731c0,3.875 -10.022,14.082 -10.022,14.082c-0,0 10.145,10.202 10.145,14.336l0,31.65l-9.543,0l0,-32.95l-6.162,-6.231l-6.16,6.149l-0,33.033l-10.146,0l-0,-31.574c-0,-3.882 10.747,-14.493 10.747,-14.493c-0,-0 -10.747,-10.095 -10.747,-14.162l-0,-31.571Z" style="fill:#fff;fill-rule:nonzero;"/><path d="M122.361,84.439c3.442,0 8.02,-4.114 8.02,-9.622l-0,-30.096c-0,-4.331 -4.94,-8.363 -10.557,-8.363l-20.84,0l0,91.963l9.606,0l-0,-43.205l3.624,-0l10.691,43.042l9.423,0l-9.967,-43.719Zm-1.901,-8.992l-11.509,-0l0,-30.179l11.509,0l-0,30.179Z" style="fill:#fff;fill-rule:nonzero;"/><path d="M334.918,84.199c3.444,0 8.023,-4.122 8.023,-9.625l0,-30.096c0,-4.33 -4.942,-8.366 -10.557,-8.366l-20.838,-0l-0,91.969l9.598,-0l-0,-43.212l3.628,0l10.693,43.042l9.42,-0l-9.967,-43.712Zm-2.041,-9.095l-11.5,-0l-0,-30.178l11.5,0l0,30.178Z" style="fill:#fff;fill-rule:nonzero;"/><path d="M181.729,86.608c-0.044,-4.121 -4.347,-6.729 -4.347,-6.729c0,0 4.347,-2.813 4.347,-6.724l0,-28.074c0,-5.299 -4.665,-8.746 -9.42,-8.746l-21.928,-0l0,91.803l21.928,0c4.44,0 9.42,-2.773 9.42,-8.743c0,0 0.049,-28.671 0,-32.787Zm-9.875,32.534l-11.505,0l-0,-34.217l11.505,0l-0,34.217Zm-0,-43.716l-11.505,-0l-0,-30.178l11.505,0l-0,30.178Z" style="fill:#fff;fill-rule:nonzero;"/><path d="M223.724,35.656l-11.416,0c-5.755,0 -9.945,4.92 -9.945,8.661l0,74.556c0,4.82 5.368,9.189 9.9,9.189l12.412,-0c4.847,-0 9.695,-5.005 9.695,-8.996l-0,-75.002c-0,-3.361 -4.578,-8.408 -10.646,-8.408Zm0.362,82.931l-11.115,-0l0,-73.849l11.115,0l-0,73.849Z" style="fill:#fff;fill-rule:nonzero;"/><path d="M384.907,36.314l-12.677,-0c-5.711,-0 -9.064,4.706 -9.064,8.407l-0,83.232l9.604,-0l0,-43.72l12.138,0l0,43.72l9.606,-0l-0,-82.729c-0.001,-5.491 -3.801,-8.91 -9.607,-8.91Zm-0.274,38.841l-11.501,-0l0,-29.591l11.501,-0l0,29.591Z" style="fill:#fff;fill-rule:nonzero;"/><path d="M552.847,35.04c-26.044,0 -47.154,21.112 -47.154,47.155c-0,26.043 21.111,47.154 47.154,47.154c26.042,-0 47.153,-21.112 47.153,-47.154c-0,-26.042 -21.111,-47.155 -47.153,-47.155Zm-2.359,35.367l-4.716,-0l0,-2.36l-2.357,-2.356l-18.863,-0l0,35.364l18.863,0l2.357,-2.356l0,-2.359l4.716,0l0,4.715l-4.716,4.717l-23.576,0l-2.359,-2.358l0,-40.081l2.359,-2.358l23.576,-0l4.716,4.717l0,4.715Zm35.366,30.648l-4.715,4.717l-25.936,0l0,-4.717l2.36,0l-0,-35.364l-2.36,-0l0,-4.717l25.936,-0l4.715,4.717l-0,35.364Zm-23.577,0l18.862,0l0,-35.364l-18.862,-0l0,35.364Z" style="fill:#fff;fill-rule:nonzero;"/></g></svg>