<?xml version="1.0" encoding="UTF-8" standalone="no"?><!DOCTYPE svg PUBLIC "-//W3C//DTD SVG 1.1//EN" "http://www.w3.org/Graphics/SVG/1.1/DTD/svg11.dtd"><svg width="100%" height="100%" viewBox="0 0 600 136" version="1.1" xmlns="http://www.w3.org/2000/svg" xmlns:xlink="http://www.w3.org/1999/xlink" xml:space="preserve" xmlns:serif="http://www.serif.com/" style="fill-rule:evenodd;clip-rule:evenodd;stroke-linejoin:round;stroke-miterlimit:2;"><g id="nec_pcengine_cdrom_flat"><g><g><path d="M28.475,99.461c-0.192,0 -0.387,-0.043 -0.571,-0.133c-18.678,-9.066 -28.322,-19.633 -27.89,-30.563c0.351,-8.998 7.694,-17.493 21.234,-24.57c12.847,-6.712 30.967,-12.04 52.403,-15.407c0.715,-0.112 1.385,0.376 1.497,1.091c0.112,0.714 -0.376,1.383 -1.091,1.496c-43.421,6.819 -70.789,21.186 -71.426,37.493c-0.382,9.669 8.999,19.651 26.417,28.104c0.65,0.317 0.922,1.097 0.606,1.751c-0.227,0.466 -0.694,0.738 -1.179,0.738Z" style="fill:#fff;fill-rule:nonzero;"/></g><g><path d="M191.295,32.333c-0.071,0 -0.142,-0.005 -0.214,-0.017c-13.798,-2.265 -28.362,-3.778 -43.288,-4.492c-0.724,-0.034 -1.281,-0.647 -1.246,-1.37c0.034,-0.722 0.659,-1.274 1.37,-1.245c15.029,0.719 29.694,2.241 43.591,4.522c0.711,0.118 1.197,0.791 1.078,1.505c-0.106,0.642 -0.66,1.097 -1.291,1.097Z" style="fill:#fff;fill-rule:nonzero;"/></g><g><path d="M150.074,121.772c-0.367,0 -0.731,0 -1.098,-0.001c-0.723,-0.002 -1.305,-0.589 -1.303,-1.314c0.002,-0.721 0.585,-1.304 1.307,-1.304l0.006,0c0.359,0.001 0.727,0.001 1.089,0.001c70.082,0.001 125.383,-18.216 126.112,-41.628c0.257,-8.192 -6.324,-16.505 -19.036,-24.035c-12.656,-7.5 -30.795,-13.893 -52.454,-18.486c-0.707,-0.15 -1.158,-0.845 -1.01,-1.552c0.149,-0.708 0.847,-1.158 1.553,-1.009c21.934,4.651 40.346,11.15 53.246,18.794c13.581,8.048 20.607,17.167 20.319,26.37c-0.387,12.45 -14.141,23.8 -38.728,31.954c-23.772,7.881 -55.698,12.21 -90.003,12.21Z" style="fill:#fff;fill-rule:nonzero;"/></g><path d="M173.789,53.596l34.572,-26.352l-40.605,16.208l-11.412,-11.878l3.639,16.459l-34.573,26.352l40.608,-16.213l11.409,11.878l-3.638,-16.454Z" style="fill:#fff;fill-rule:nonzero;"/><g><path d="M130.492,86.493c0.496,-2.44 1.4,-2.085 3.874,-2.478l2.303,-0.362l-0.717,3.84l-2.303,0.368c-2.474,0.392 -3.563,1.054 -3.157,-1.368Zm-4.993,-3.515l-1.792,9.641c-0.491,2.633 0.305,3.481 2.838,3.081l14.671,-2.327l3.145,-16.911l-14.672,2.324c-2.535,0.402 -3.703,1.56 -4.19,4.192Zm93.129,-15.221l-0.171,0.932l15.133,-2.402c1.194,-0.192 2.358,-1.399 2.602,-2.705c0.238,-1.305 -0.529,-2.209 -1.725,-2.018l-3.886,0.614l-6.201,0.987l-1.571,0.246c-1.818,0.29 -3.812,2.363 -4.181,4.346Zm-106.17,43.606l0.123,-0.672c0.52,0.039 1.217,0.24 1.826,0.15l15.727,-2.467c-0.584,3.137 -4.728,3.924 -11.052,4.926l-7.199,1.143l-3.859,20.755l9.456,-1.499c23.284,-2.298 32.142,-14.332 34.986,-28.677l28.37,-4.503l4.571,-24.6l2.307,-0.369c2.529,-0.4 2.156,-0.858 1.671,1.769l-4.185,22.509l20.368,-3.232l0.279,-1.491c1.537,0.678 3.333,0.917 5.236,0.618l35.224,-5.586l3.285,-17.682l-2.283,-1.625c1.978,-2.343 3.52,-5.21 3.966,-7.616l0.556,-2.788c1.756,-10.429 -7.859,-13.199 -12.246,-12.501l-20.214,3.207c-3.58,0.568 -7.522,3.063 -10.39,6.368c-2.653,-2.627 -6.748,-3.648 -9.129,-3.27l-22.504,3.57l2.519,5.568l20.296,-3.217c2.927,-0.466 4.882,0.703 5.419,3.02c-0.215,0.614 -5.419,28.317 -5.419,28.317l-7.277,1.155l3.902,-20.973c0.483,-2.626 -0.311,-3.475 -2.838,-3.074l-13.945,2.215l-4.576,24.6l-7.999,1.273l5.235,-28.165l-6.586,-7.768l-23.705,8.569l11.235,-1.782l0.181,-0.025l-7.144,38.435c-1.815,9.764 -12.234,19.101 -21.475,20.568l-9.457,1.499l1.434,-7.692l7.194,-1.138c6.324,-1.007 13.443,-7.335 14.671,-13.954l0.776,-4.165l-18.732,2.971c-4.016,0.638 -6.196,-1.801 -5.406,-6.044l3.359,-18.069c0.594,-3.211 2.597,-5.878 5.278,-7.263l0.044,-0.482l9.398,-7.233l-5.49,0.923c-2.921,0.462 -8.337,2.652 -11.779,7.041c-2.602,-3.104 -7.154,-4.32 -9.717,-3.914l-20.19,3.207l3.29,-17.685l14.73,-2.337c7.841,-1.243 16.517,-10.061 18.059,-18.345l2.215,-11.917c1.541,-8.288 -4.287,-14.804 -12.128,-13.561l-32.191,5.107l-6.86,36.904l-29.642,4.704c-2.509,0.398 -4.949,2.872 -5.44,5.523l-11.079,59.582c-0.491,2.652 1.144,4.481 3.654,4.086l56.559,-8.976l4.576,-24.599l2.303,-0.368c2.534,-0.399 2.16,-0.854 1.669,1.772l-4.183,22.502l20.372,-3.232Zm-41.971,-13.488l-18.914,3.001l0.712,-3.84l15.276,-2.428l3.717,-19.99l-15.276,2.428l0.712,-3.843l18.914,-3.002l-5.141,27.674Zm-1.144,6.153l-1.572,8.454l-33.462,5.309l10.43,-56.123l27.643,-4.385l-1.429,7.689l-19.64,3.119l-3,16.144l16.002,-2.538l-1.429,7.685l-16.002,2.538l-3.005,16.149l25.464,-4.041Zm38.436,2.112l-8.004,1.265l3.899,-20.967c0.491,-2.628 -0.305,-3.48 -2.838,-3.079l-13.945,2.215l-4.571,24.6l-8.003,1.271l6,-32.286l0.186,-0.031l26.549,-4.212c4.016,-0.638 6.196,1.796 5.406,6.044l-4.679,25.18Zm52.012,-39.591l7.822,-1.238l-6.006,32.287l-8,1.268l6,-32.284l0.184,-0.033Zm48.532,15.217l2.777,-14.937c0.881,-4.723 5.957,-9.363 10.283,-10.051l18.712,-2.965c3.153,-0.502 5.343,3.02 4.7,6.466l-0.917,4.807c-0.645,3.447 -4.165,7.11 -7.316,7.61l-19.424,3.084l-0.28,1.744c-0.369,1.982 0.947,3.531 2.765,3.241l21.71,-3.457l-1.463,7.878l-24.492,3.884c-4.325,0.684 -7.929,-2.577 -7.055,-7.304Zm-115.766,-41.859l2.716,-14.608l10.184,-1.615c1.335,-0.212 2.018,0.55 1.752,1.959l-1.856,9.997c-0.265,1.414 -1.276,2.44 -2.612,2.652l-10.184,1.615Z" style="fill:#fff;fill-rule:nonzero;"/><g><path d="M157.65,46.742l-2.162,-8.563l-1.219,0.147l-0.392,2.111c-0.271,1.464 -1.447,2.656 -2.829,2.878l-8.368,1.325c-1.381,0.221 -2.171,-0.662 -1.899,-2.126l4.217,-22.679c0.27,-1.458 1.447,-2.652 2.827,-2.873l8.37,-1.325c1.38,-0.22 2.17,0.663 1.897,2.121l-0.54,2.887l16.915,-2.686l0.643,-3.457c1.621,-8.725 -4.311,-15.358 -12.571,-14.053l-16.182,2.569c-8.254,1.311 -17.092,10.287 -18.711,19.012l-4.502,24.217c-1.621,8.724 4.311,15.358 12.57,14.047l5.409,-0.854l16.527,-12.698Z" style="fill:#fff;fill-rule:nonzero;"/><path d="M169.64,41.576c0.441,-1.188 0.747,-1.639 0.973,-2.858l0.575,-3.079l-6.732,1.07l5.184,4.867Z" style="fill:#fff;fill-rule:nonzero;"/></g></g></g><g><path d="M483.127,89.926c-6.242,0 -11.758,-2.028 -15.733,-5.448c-3.978,-3.412 -6.401,-8.246 -6.396,-13.686c-0.005,-5.44 2.418,-10.274 6.396,-13.687c3.975,-3.418 9.492,-5.448 15.733,-5.448l17.97,0l0,2.33l-17.97,-0c-5.74,-0 -10.705,1.864 -14.216,4.884c-3.51,3.027 -5.58,7.177 -5.584,11.921c0.005,4.743 2.074,8.894 5.584,11.921c3.511,3.02 8.477,4.885 14.216,4.885l17.97,-0c5.738,-0 10.705,-1.865 14.215,-4.885c3.511,-3.027 5.581,-7.178 5.585,-11.921c-0.005,-4.744 -2.074,-8.894 -5.585,-11.921c-3.511,-3.02 -8.478,-4.884 -14.215,-4.884l0,-2.33c6.241,0 11.758,2.03 15.734,5.448c3.976,3.413 6.399,8.247 6.395,13.687c0.004,5.44 -2.419,10.274 -6.395,13.686c-3.976,3.42 -9.493,5.448 -15.734,5.448l-17.97,0Zm0,-5.99c-9.498,-0 -16.106,-6.401 -16.141,-13.144c0.035,-6.744 6.643,-13.143 16.141,-13.145l17.97,0c9.498,0.002 16.105,6.401 16.139,13.145c-0.034,6.744 -6.641,13.144 -16.139,13.144l0,-2.329c4.23,-0.001 7.696,-1.418 10.097,-3.481c2.404,-2.066 3.717,-4.762 3.714,-7.334c0.004,-2.572 -1.31,-5.268 -3.714,-7.335c-2.401,-2.062 -5.866,-3.48 -10.097,-3.481l-17.97,0c-4.231,0.001 -7.697,1.419 -10.098,3.481c-2.404,2.067 -3.716,4.763 -3.713,7.335c-0.004,2.572 1.309,5.268 3.713,7.334c2.401,2.063 5.866,3.48 10.098,3.481l17.97,0l0,2.329l-17.97,0Z" style="fill:#fff;fill-rule:nonzero;"/><path d="M344.193,89.926l-28.12,0c-6.242,0 -11.758,-2.029 -15.734,-5.448c-3.976,-3.412 -6.4,-8.246 -6.395,-13.686c-0.005,-5.44 2.419,-10.274 6.395,-13.687c3.977,-3.418 9.493,-5.449 15.734,-5.449l28.12,0l-0,8.32l-28.12,0c-4.231,0.001 -7.696,1.419 -10.098,3.481c-2.404,2.067 -3.716,4.763 -3.712,7.335c-0.004,2.572 1.308,5.268 3.712,7.334c2.402,2.063 5.867,3.48 10.098,3.481l26.955,0l-0,1.165l-0,-1.165l1.165,0l-0,8.319Zm-42.336,-31.055c-3.51,3.027 -5.58,7.178 -5.585,11.921c0.005,4.743 2.075,8.894 5.585,11.921c3.511,3.02 8.477,4.884 14.215,4.884l25.791,-0l-0,-3.66l-25.791,0c-9.498,-0.001 -16.105,-6.4 -16.139,-13.144c0.034,-6.745 6.641,-13.144 16.139,-13.144l25.791,-0l-0,-3.661c-3.974,-0.001 -17.218,-0.001 -25.791,-0.001c-5.738,-0 -10.704,1.865 -14.215,4.884Z" style="fill:#fff;fill-rule:nonzero;"/><path d="M358.677,89.926l-10.824,0l0,-38.27l28.119,0l-0,2.331c-6.789,-0.001 -13.527,-0.001 -18.568,-0c-3.275,-0.001 -5.832,-0.001 -7.222,-0.001l-0,33.61c1.612,0.001 4.753,0.001 8.495,0.001c5.465,-0.001 12.204,-0.001 17.296,-0c5.738,-0.001 10.704,-1.865 14.216,-4.885c3.511,-3.027 5.58,-7.178 5.583,-11.921c-0.003,-4.743 -2.072,-8.894 -5.583,-11.92c-3.511,-3.02 -8.478,-4.885 -14.216,-4.886l-0,-2.329c6.242,-0 11.759,2.03 15.733,5.448c3.978,3.413 6.401,8.247 6.397,13.687c0.004,5.44 -2.419,10.274 -6.397,13.687c-3.975,3.418 -9.492,5.448 -15.733,5.448c-5.092,0 -11.831,0 -17.296,0Zm-3.669,-5.99l-1.165,0l0,-26.289l22.13,0c9.499,0.001 16.105,6.401 16.14,13.144c-0.035,6.745 -6.641,13.144 -16.14,13.145l-0,-2.33c4.23,-0 7.697,-1.418 10.097,-3.48c2.404,-2.067 3.716,-4.763 3.713,-7.335c0.003,-2.572 -1.309,-5.268 -3.713,-7.335c-2.4,-2.062 -5.867,-3.48 -10.097,-3.48l-19.8,-0l-0,21.63l19.8,0l-0,2.33c-5.511,0 -12.103,0 -20.965,0Z" style="fill:#fff;fill-rule:nonzero;"/><path d="M449.684,89.926l-0,-1.164c-0.002,0 -0.002,-5.991 -0,-8.985c0.007,-1.102 -0.583,-2.353 -1.532,-3.295c-0.942,-0.948 -2.193,-1.539 -3.295,-1.531l-25.79,-0l0,14.975l-8.32,-0l0,-38.27l37.105,-0c3.297,-0.016 5.961,1.334 7.658,3.526c1.704,2.186 2.49,5.104 2.492,8.288c-0.016,1.879 -0.867,3.857 -2.114,5.495c-0.674,0.862 -1.474,1.65 -2.393,2.2c0.373,0.3 0.771,0.648 1.172,1.049c1.627,1.622 3.336,4.158 3.336,7.562l0,10.15l-8.319,-0l-0,0Zm5.989,-2.328c-0,-1.381 -0,-3.987 0.001,-7.821c-0.001,-2.427 -1.129,-4.29 -2.4,-5.653c-1.265,-1.352 -2.648,-2.134 -2.906,-2.269c-0.035,-0.018 -0.041,-0.021 -0.041,-0.021l0.521,-1.042l-0.521,1.042l0.521,-2.206c0.912,0.032 2.207,-0.778 3.196,-2.084c0.997,-1.273 1.646,-2.956 1.63,-4.072c0.001,-2.806 -0.709,-5.212 -2,-6.853c-1.298,-1.634 -3.127,-2.616 -5.822,-2.632l-34.774,0l0,33.612l3.66,-0l0,-14.975l28.12,-0c1.892,0.008 3.637,0.915 4.942,2.212c1.298,1.305 2.204,3.05 2.212,4.943l0,7.82l3.661,0l-0,-0.001Zm-10.815,-18.636l-28.12,0l0,-11.315l28.12,0c1.712,0.004 3.42,0.462 4.788,1.419c1.366,0.94 2.379,2.501 2.366,4.405c0.022,1.906 -1.033,3.431 -2.415,4.272c-1.383,0.864 -3.071,1.215 -4.739,1.219l0,-2.329c1.327,0.004 2.634,-0.311 3.497,-0.862c0.866,-0.573 1.309,-1.212 1.329,-2.3c-0.013,-1.092 -0.497,-1.859 -1.378,-2.499c-0.879,-0.625 -2.165,-0.999 -3.448,-0.996l-25.791,0l0,6.657l25.791,-0l0,2.329Z" style="fill:#fff;fill-rule:nonzero;"/><path d="M403.427,74.951l-0,-2.328l2.246,-0.001c1.011,-0.001 1.829,-0.819 1.83,-1.829c-0.001,-1.011 -0.819,-1.829 -1.83,-1.831l-2.246,0.001c-1.01,0.001 -1.828,0.819 -1.83,1.83c0.002,1.01 0.82,1.828 1.83,1.829l-0,2.329c-2.298,0 -4.159,-1.861 -4.159,-4.158c0,-2.298 1.861,-4.159 4.159,-4.159l2.246,-0c2.298,-0 4.159,1.861 4.16,4.159c-0.001,2.297 -1.862,4.158 -4.16,4.158l-2.246,0Z" style="fill:#fff;fill-rule:nonzero;"/><path d="M568.817,89.927l-0,-25.125c-0.003,-1.308 -0.314,-2.155 -0.762,-2.781c-0.45,-0.622 -1.084,-1.06 -1.875,-1.378c-1.577,-0.64 -3.697,-0.673 -5.182,-0.665l-4.826,-0.001l-0,29.95l-8.319,0l-0,-29.949l-4.826,-0c-1.118,-0.002 -2.582,0.005 -3.916,0.29c-1.348,0.285 -2.477,0.826 -3.142,1.754c-0.449,0.625 -0.758,1.473 -0.763,2.781l0,25.124l-8.319,0l-0,-28.119c-0.015,-3.403 1.765,-6.067 4.262,-7.709c2.498,-1.659 5.696,-2.437 8.883,-2.441c2.994,-0.001 20.966,-0.001 23.96,-0c3.186,0.004 6.383,0.782 8.882,2.441c2.497,1.642 4.278,4.306 4.262,7.709l0,28.119l-8.319,0Zm5.99,-2.329l0,-25.79c-0.016,-2.588 -1.23,-4.415 -3.225,-5.771c-1.995,-1.336 -4.788,-2.054 -7.59,-2.05l-23.96,-0c-2.804,-0.004 -5.597,0.714 -7.591,2.05c-1.996,1.355 -3.21,3.182 -3.225,5.771l0,25.79l3.661,-0c-0.002,-4.078 -0.002,-17.727 -0,-22.796c-0.005,-1.688 0.434,-3.085 1.202,-4.144c0.767,-1.062 1.818,-1.747 2.9,-2.178c2.166,-0.857 4.539,-0.825 6.047,-0.832l5.99,-0l0,1.164l0,-1.164l1.165,-0l0,29.95l3.66,-0l0,-29.95l7.157,-0c1.126,0.001 2.75,-0.007 4.399,0.34c1.636,0.347 3.386,1.071 4.546,2.67c0.769,1.059 1.208,2.456 1.203,4.144l0,22.796l3.661,-0Z" style="fill:#fff;fill-rule:nonzero;"/><path d="M582.174,56.506c-0.929,1.471 -1.146,3.484 -1.141,5.305l-0,2.282l18.636,0l0,-3.587l-13.288,0l0,-0.665c-0.032,-1.08 0.569,-1.928 1.35,-2.258c0.764,-0.349 1.619,-0.38 2.449,-0.385c0.481,-0 0.953,0.017 1.379,0.017l2.229,-0c1.889,-0 3.434,-0.482 4.494,-1.425c1.058,-0.943 1.713,-2.374 1.718,-4.533c0.004,-1.336 -0.43,-2.794 -1.292,-3.875c-0.867,-1.081 -2.115,-1.819 -3.936,-1.826l-11.78,-0l-0,3.253l8.363,0c0.68,0.004 1.439,0.044 2.135,0.367c0.705,0.304 1.289,1.086 1.261,2.081c0.013,0.912 -0.393,1.686 -1.017,2.118c-0.619,0.437 -1.371,0.583 -2.124,0.586l-3.733,-0c-3.2,0.02 -4.771,1.088 -5.703,2.545Z" style="fill:#fff;fill-rule:nonzero;"/></g></g></svg>