<svg clip-rule="evenodd" fill-rule="evenodd" stroke-linejoin="round" stroke-miterlimit="2" viewBox="0 0 600 305" xmlns="http://www.w3.org/2000/svg"><g fill="#fff"><circle cx="122.388" cy="11.074" r="10.473"/><path d="m462.997 101.012v103.142h21.46v-42.93h29.848v-21.46h-29.848v-17.292h32.2v-21.46z"/><path d="m438.985 162.632c.773-3.255 1.182-6.654 1.182-10.147 0-3.494-.409-6.893-1.182-10.148h14.818c.579 3.293.881 6.686.881 10.148s-.302 6.854-.881 10.147z"/><path d="m434.988 132.257c-7.315-14.024-21.993-23.607-38.892-23.607-24.193 0-43.835 19.641-43.835 43.835 0 24.193 19.642 43.835 43.835 43.835 16.899 0 31.577-9.584 38.892-23.608h10.661c-7.986 19.52-27.174 33.286-49.553 33.286-29.535 0-53.514-23.978-53.514-53.513 0-29.536 23.979-53.514 53.514-53.514 22.379 0 41.567 13.766 49.553 33.286z"/><path d="m273.399 101.012h27.972c20.408 0 36.976 16.972 36.976 37.38 0 20.407-16.568 36.976-36.976 36.976h-16.669v28.786h-11.303zm11.303 63.053v-51.75h16.669c14.281 0 25.875 11.594 25.875 25.875 0 14.28-11.594 25.875-25.875 25.875z"/><path d="m556.672 129.108-16.221-28.096h-24.781l28.445 49.267-31.955 53.875h24.951l19.311-32.558 18.798 32.558h24.78l-31.021-53.729 29.309-49.413h-24.951z"/><path d="m462.997 101.534v103.142h21.46v-42.93h29.848v-21.46h-29.848v-17.292h32.2v-21.46z"/><path d="m438.985 163.154c.773-3.255 1.182-6.654 1.182-10.147 0-3.494-.409-6.892-1.182-10.148h14.818c.579 3.294.881 6.686.881 10.148s-.302 6.854-.881 10.147z"/><path d="m434.988 132.779c-7.315-14.024-21.993-23.607-38.892-23.607-24.193 0-43.835 19.642-43.835 43.835s19.642 43.835 43.835 43.835c16.899 0 31.577-9.584 38.892-23.607h10.661c-7.986 19.519-27.174 33.286-49.553 33.286-29.535 0-53.514-23.979-53.514-53.514s23.979-53.514 53.514-53.514c22.379 0 41.567 13.766 49.553 33.286z"/><path d="m273.399 101.534h27.972c20.408 0 36.976 16.972 36.976 37.38s-16.568 36.976-36.976 36.976h-16.669v28.786h-11.303zm11.303 63.053v-51.75h16.669c14.281 0 25.875 11.594 25.875 25.875s-11.594 25.875-25.875 25.875z"/><path d="m556.672 129.63-16.221-28.096h-24.781l28.445 49.267-31.955 53.875h24.951l19.311-32.558 18.798 32.558h24.78l-31.021-53.729 29.309-49.413h-24.951z"/><path d="m127.384 238.99v65.872l123.259-71.56v-65.872z"/><path d="m122.809 238.99v65.872l-122.809-71.298v-65.872z"/><path d="m153.641 21.547c-.82-2.115 115.519 22.658 58.284 90.854-33.752-74.697-246.175-40.607-153.977 38.571-1.694 16.392 12.361 27.934 17.046 30.052-.82 14.696 12.525 33.077 61.289 29.089-3.224 28.395 36.833 1.206 39.429-19.429 6.564-1.472 16.228-17.166 14.921-23.91 1.224-.194 15.481-8.03 21.439-34.029 5.126-1.429 93.727-93.5-61.871-126.328-6.128-1.293-10.914 1.652-11.058 7.43-.136 5.467 14.498 7.7 14.498 7.7zm-61.006 166.811c8.94 1.661 19.205 2.583 30.21 2.455 11.004-.128 22.748-1.306 34.645-3.842-11.195 12.342-49.173 13.698-64.855 1.387zm8.56-14.116c2.038-4.031 11.85-6.12 21.634-6.193 9.784-.072 19.541 1.872 21.469 5.907-13.043 4.353-30.936 3.682-43.103.286zm-13.936-13.538c-4.236-.4-5.4-.897-10.733-3.634-.967.399-2.732 1.592-3.32 3.381 3.164 3.912 4.797 5.452 8.189 6.2 1.957-1.887 2.77-4.394 5.864-5.947zm69.37-.413c4.235-.4 10.825-2.797 16.158-5.533 3.868.759 4.022 2.507 4.61 4.296-3.523 3.404-8.395 6.242-11.736 7.597-1.957-1.887-4.724-4.678-9.032-6.36zm-75.701-16.594c7.788-7.965 24.822-11.621 41.545-11.522s33.135 3.953 39.68 11.008c-13.039 6.779-59.315 9.234-81.225.514zm98.349-6.831c-52.002-36.203-105.146-10.865-114.807.85-68.291-55.016 131.215-80.155 133.846-11.886-3.99 3.157-10.43 8.352-19.039 11.036z"/><path d="m122.809 89.264v24.099c-15.915-.221-30.097 3.276-40.93 7.756-7.661 3.168-13.681 6.883-17.613 10.164-6.855-6.212-9.827-11.707-9.183-16.826.514-4.092 3.409-7.586 7.633-10.695 5.048-3.715 11.959-6.747 19.947-9.084 11.816-3.458 25.945-5.369 40.146-5.414z"/><path d="m122.809 144.531c-10.692.152-21.749-.587-30.848-2.541 8.091-3.61 19.394-5.115 30.483-5.05.122.001.243.002.365.003z"/><path d="m71.05 188.956c-.455-1.758-.718-3.508-.813-5.215-6.45-4.389-17.494-15.59-17.187-30.721-18.832-16.776-24.625-31.975-22.426-44.461 2.3-13.062 13.506-23.9 30.041-31.238 16.903-7.501 39.405-11.475 62.144-11.185v-39.829c-.14.004-.281.006-.421.006-3.901 0-7.463-1.47-10.16-3.885l-112.228 65.155v74.847l58.37 33.887z"/></g></svg>