<?xml version="1.0" encoding="UTF-8" standalone="no"?><!DOCTYPE svg PUBLIC "-//W3C//DTD SVG 1.1//EN" "http://www.w3.org/Graphics/SVG/1.1/DTD/svg11.dtd"><svg width="100%" height="100%" viewBox="0 0 600 270" version="1.1" xmlns="http://www.w3.org/2000/svg" xmlns:xlink="http://www.w3.org/1999/xlink" xml:space="preserve" xmlns:serif="http://www.serif.com/" style="fill-rule:evenodd;clip-rule:evenodd;stroke-linejoin:round;stroke-miterlimit:2;"><g id="nec_pcengine"><g><g><path d="M144.41,204.221c-0.35,0 -0.705,-0.079 -1.04,-0.242c-33.991,-16.499 -51.542,-35.73 -50.756,-55.622c0.639,-16.375 14.002,-31.835 38.643,-44.714c23.381,-12.216 56.358,-21.911 95.369,-28.04c1.302,-0.203 2.52,0.686 2.724,1.985c0.205,1.3 -0.684,2.518 -1.984,2.724c-79.023,12.41 -128.831,38.555 -129.989,68.234c-0.695,17.596 16.378,35.761 48.075,51.146c1.184,0.577 1.678,1.996 1.104,3.187c-0.414,0.846 -1.262,1.342 -2.146,1.342Z" style="fill:#fff;fill-rule:nonzero;"/></g><g><path d="M440.726,82.055c-0.13,0 -0.259,-0.01 -0.39,-0.031c-25.111,-4.123 -51.615,-6.875 -78.78,-8.174c-1.318,-0.062 -2.331,-1.179 -2.267,-2.495c0.063,-1.313 1.2,-2.317 2.494,-2.265c27.35,1.31 54.04,4.079 79.33,8.231c1.295,0.213 2.178,1.438 1.962,2.738c-0.193,1.168 -1.202,1.996 -2.349,1.996Z" style="fill:#fff;fill-rule:nonzero;"/></g><g><path d="M365.708,244.826c-0.668,-0 -1.33,-0 -1.998,-0.003c-1.316,-0.003 -2.376,-1.072 -2.372,-2.391c0.004,-1.313 1.065,-2.373 2.378,-2.373l0.012,-0c0.653,0.002 1.324,0.002 1.982,0.002c127.542,0.001 228.184,-33.151 229.511,-75.759c0.467,-14.909 -11.51,-30.037 -34.644,-43.741c-23.032,-13.65 -56.044,-25.284 -95.461,-33.642c-1.287,-0.274 -2.108,-1.54 -1.838,-2.826c0.271,-1.288 1.541,-2.107 2.827,-1.836c39.917,8.465 73.425,20.293 96.902,34.204c24.715,14.646 37.502,31.242 36.977,47.99c-0.704,22.658 -25.734,43.314 -70.479,58.153c-43.264,14.343 -101.365,22.222 -163.797,22.222Z" style="fill:#fff;fill-rule:nonzero;"/></g><path d="M408.867,120.752l62.917,-47.959l-73.897,29.497l-20.768,-21.616l6.621,29.953l-62.917,47.958l73.901,-29.506l20.764,21.617l-6.621,-29.944Z" style="fill:#fff;fill-rule:nonzero;"/><g><path d="M330.072,180.621c0.902,-4.44 2.547,-3.794 7.049,-4.51l4.192,-0.66l-1.305,6.989l-4.191,0.67c-4.503,0.713 -6.486,1.918 -5.745,-2.489Zm-9.087,-6.398l-3.263,17.547c-0.893,4.792 0.555,6.335 5.166,5.606l26.699,-4.235l5.724,-30.776l-26.701,4.229c-4.614,0.732 -6.74,2.839 -7.625,7.629Zm169.484,-27.7l-0.311,1.697l27.54,-4.372c2.174,-0.349 4.292,-2.546 4.735,-4.923c0.435,-2.374 -0.962,-4.02 -3.138,-3.673l-7.073,1.117l-11.285,1.797l-2.859,0.447c-3.308,0.529 -6.937,4.301 -7.609,7.91Zm-193.219,79.359l0.224,-1.223c0.947,0.071 2.216,0.437 3.324,0.273l28.622,-4.491c-1.063,5.71 -8.606,7.142 -20.115,8.966l-13.1,2.08l-7.024,37.771l17.21,-2.727c42.374,-4.183 58.494,-26.083 63.669,-52.19l51.631,-8.195l8.319,-44.769l4.199,-0.671c4.603,-0.729 3.924,-1.563 3.04,3.219l-7.615,40.965l37.068,-5.882l0.507,-2.715c2.798,1.234 6.066,1.669 9.528,1.126l64.105,-10.167l5.978,-32.178l-4.155,-2.959c3.601,-4.264 6.406,-9.481 7.219,-13.859l1.011,-5.075c3.196,-18.98 -14.302,-24.02 -22.286,-22.751l-36.788,5.837c-6.515,1.034 -13.689,5.575 -18.909,11.589c-4.828,-4.781 -12.28,-6.639 -16.614,-5.951l-40.955,6.497l4.585,10.133l36.937,-5.853c5.326,-0.849 8.885,1.278 9.862,5.495c-0.392,1.117 -9.862,51.533 -9.862,51.533l-13.244,2.103l7.101,-38.168c0.879,-4.78 -0.566,-6.325 -5.165,-5.594l-25.378,4.031l-8.328,44.769l-14.558,2.317l9.528,-51.258l-11.985,-14.137l-43.142,15.595l20.447,-3.244l0.33,-0.046l-13.001,69.949c-3.304,17.77 -22.265,34.762 -39.083,37.432l-17.21,2.728l2.61,-14l13.091,-2.07c11.509,-1.832 24.465,-13.35 26.7,-25.396l1.413,-7.579l-34.091,5.407c-7.309,1.162 -11.277,-3.278 -9.839,-11l6.113,-32.884c1.081,-5.843 4.727,-10.696 9.606,-13.218l0.081,-0.876l17.102,-13.163l-9.991,1.68c-5.315,0.84 -15.173,4.826 -21.436,12.814c-4.736,-5.65 -13.019,-7.864 -17.684,-7.124l-36.744,5.837l5.987,-32.186l26.808,-4.253c14.27,-2.261 30.06,-18.31 32.865,-33.385l4.031,-21.688c2.805,-15.084 -7.801,-26.943 -22.072,-24.68l-58.584,9.294l-12.484,67.161l-53.946,8.561c-4.566,0.725 -9.007,5.228 -9.9,10.052l-20.162,108.432c-0.894,4.828 2.082,8.155 6.649,7.438l102.932,-16.336l8.328,-44.769l4.191,-0.669c4.611,-0.725 3.931,-1.553 3.038,3.225l-7.613,40.952l37.074,-5.882Zm-76.382,-24.546l-34.421,5.46l1.296,-6.988l27.8,-4.42l6.764,-36.378l-27.8,4.418l1.295,-6.994l34.421,-5.463l-9.355,50.365Zm-2.083,11.196l-2.859,15.386l-60.898,9.662l18.98,-102.139l50.309,-7.98l-2.601,13.994l-35.743,5.676l-5.46,29.381l29.123,-4.62l-2.6,13.986l-29.123,4.62l-5.468,29.388l46.34,-7.354Zm69.95,3.845l-14.565,2.301l7.094,-38.156c0.894,-4.783 -0.554,-6.335 -5.165,-5.605l-25.378,4.031l-8.318,44.769l-14.566,2.314l10.92,-58.758l0.339,-0.057l48.316,-7.664c7.31,-1.162 11.277,3.269 9.839,10.999l-8.516,45.826Zm94.656,-72.053l14.235,-2.252l-10.929,58.759l-14.559,2.307l10.919,-58.753l0.334,-0.061Zm88.324,27.694l5.055,-27.183c1.602,-8.596 10.841,-17.041 18.712,-18.292l34.054,-5.396c5.739,-0.914 9.724,5.495 8.554,11.767l-1.669,8.747c-1.174,6.273 -7.58,12.94 -13.314,13.851l-35.35,5.613l-0.509,3.173c-0.671,3.607 1.724,6.426 5.031,5.898l39.512,-6.291l-2.664,14.338l-44.572,7.067c-7.872,1.246 -14.431,-4.689 -12.84,-13.292Zm-210.681,-76.179l4.942,-26.584l18.533,-2.94c2.431,-0.385 3.673,1.001 3.19,3.565l-3.378,18.194c-0.484,2.573 -2.324,4.44 -4.754,4.825l-18.533,2.94Z" style="fill:#fff;fill-rule:nonzero;"/><g><path d="M379.495,108.278l-3.934,-15.584l-2.219,0.268l-0.713,3.842c-0.494,2.664 -2.634,4.833 -5.149,5.237l-15.229,2.412c-2.513,0.402 -3.95,-1.206 -3.456,-3.869l7.675,-41.274c0.492,-2.654 2.634,-4.826 5.144,-5.228l15.233,-2.412c2.512,-0.401 3.949,1.207 3.452,3.86l-0.983,5.254l30.785,-4.889l1.17,-6.291c2.95,-15.878 -7.846,-27.95 -22.878,-25.574l-29.451,4.675c-15.019,2.386 -31.104,18.721 -34.052,34.599l-8.193,44.073c-2.949,15.878 7.846,27.95 22.877,25.564l9.845,-1.554l30.076,-23.109Z" style="fill:#fff;fill-rule:nonzero;"/><path d="M401.316,98.877c0.803,-2.163 1.36,-2.984 1.772,-5.202l1.045,-5.603l-12.251,1.948l9.434,8.857Z" style="fill:#fff;fill-rule:nonzero;"/></g></g></g><g><path d="M71.792,3.28l53.395,-0l-3.541,20.288c0,0 -1.571,-10.998 -8.143,-15.303c-1.632,-0.764 -5.812,-0.711 -16.287,-0.711l-4.1,24.192c8.352,1.964 17.614,-10.762 17.614,-10.762l-5.327,28.131c0,0 -3.268,-12.738 -13.502,-12.315l-4.539,25.024c14.905,-0 14.616,-0.105 18.217,-2.306c3.475,-2.122 11.589,-12.576 11.895,-14.04l-3.31,20.968l-53.976,-0c0.4,-2.793 5.659,-3.093 8.012,-4.695l4.416,-24.339c-0.356,-2.176 -4.625,-0.302 -5.492,-2.169c0.733,-2 5.026,-0.689 6.272,-2.133l4.48,-24.694c-0.8,-1.867 -6.084,-2.782 -6.084,-5.136Z" style="fill:#fff;fill-rule:nonzero;"/><path d="M172.522,1.38c2.35,4.848 4.239,10.172 5.959,15.673c-3.265,1.266 -7.792,3.324 -7.792,3.324l-8.594,-11.94c-8.952,-0.701 -21.049,12.632 -21.965,20.963c-1.072,9.856 5.06,19.591 14.666,20.422c10.009,0.871 22.001,-7.598 22.001,-7.598l-11,24.222c-22.688,8.072 -39.477,-6.748 -40.336,-24.222c-1.317,-26.676 22.823,-41.378 47.061,-40.844Z" style="fill:#fff;fill-rule:nonzero;"/><path d="M48.451,36.378l7.758,-36.168l14.761,9.07l-11.799,6.959l-10.697,52.142l-34.501,-38.828l-4.726,24.042l8.394,6.924l-17.641,7.862l8.571,-40.606c0.933,-6.135 -3.309,-8.248 -7.044,-9.515l15.113,-17.413l31.811,35.531Z" style="fill:#fff;fill-rule:nonzero;"/></g></g></svg>