<svg clip-rule="evenodd" fill-rule="evenodd" stroke-linejoin="round" stroke-miterlimit="2" viewBox="0 0 600 136" xmlns="http://www.w3.org/2000/svg"><g fill="#fff" fill-rule="nonzero"><path d="m28.475 99.461c-.192 0-.387-.043-.571-.133-18.678-9.066-28.322-19.633-27.89-30.563.351-8.998 7.694-17.493 21.234-24.57 12.847-6.712 30.967-12.04 52.403-15.407.715-.112 1.385.376 1.497 1.091.112.714-.376 1.383-1.091 1.496-43.421 6.819-70.789 21.186-71.426 37.493-.382 9.669 8.999 19.651 26.417 28.104.65.317.922 1.097.606 1.751-.227.466-.694.738-1.179.738z"/><path d="m191.295 32.333c-.071 0-.142-.005-.214-.017-13.798-2.265-28.362-3.778-43.288-4.492-.724-.034-1.281-.647-1.246-1.37.034-.722.659-1.274 1.37-1.245 15.029.719 29.694 2.241 43.591 4.522.711.118 1.197.791 1.078 1.505-.106.642-.66 1.097-1.291 1.097z"/><path d="m150.074 121.772c-.367 0-.731 0-1.098-.001-.723-.002-1.305-.589-1.303-1.314.002-.721.585-1.304 1.307-1.304h.006c.359.001.727.001 1.089.001 70.082.001 125.383-18.216 126.112-41.628.257-8.192-6.324-16.505-19.036-24.035-12.656-7.5-30.795-13.893-52.454-18.486-.707-.15-1.158-.845-1.01-1.552.149-.708.847-1.158 1.553-1.009 21.934 4.651 40.346 11.15 53.246 18.794 13.581 8.048 20.607 17.167 20.319 26.37-.387 12.45-14.141 23.8-38.728 31.954-23.772 7.881-55.698 12.21-90.003 12.21z"/><path d="m173.789 53.596 34.572-26.352-40.605 16.208-11.412-11.878 3.639 16.459-34.573 26.352 40.608-16.213 11.409 11.878z"/><path d="m130.492 86.493c.496-2.44 1.4-2.085 3.874-2.478l2.303-.362-.717 3.84-2.303.368c-2.474.392-3.563 1.054-3.157-1.368zm-4.993-3.515-1.792 9.641c-.491 2.633.305 3.481 2.838 3.081l14.671-2.327 3.145-16.911-14.672 2.324c-2.535.402-3.703 1.56-4.19 4.192zm93.129-15.221-.171.932 15.133-2.402c1.194-.192 2.358-1.399 2.602-2.705.238-1.305-.529-2.209-1.725-2.018l-3.886.614-6.201.987-1.571.246c-1.818.29-3.812 2.363-4.181 4.346zm-106.17 43.606.123-.672c.52.039 1.217.24 1.826.15l15.727-2.467c-.584 3.137-4.728 3.924-11.052 4.926l-7.199 1.143-3.859 20.755 9.456-1.499c23.284-2.298 32.142-14.332 34.986-28.677l28.37-4.503 4.571-24.6 2.307-.369c2.529-.4 2.156-.858 1.671 1.769l-4.185 22.509 20.368-3.232.279-1.491c1.537.678 3.333.917 5.236.618l35.224-5.586 3.285-17.682-2.283-1.625c1.978-2.343 3.52-5.21 3.966-7.616l.556-2.788c1.756-10.429-7.859-13.199-12.246-12.501l-20.214 3.207c-3.58.568-7.522 3.063-10.39 6.368-2.653-2.627-6.748-3.648-9.129-3.27l-22.504 3.57 2.519 5.568 20.296-3.217c2.927-.466 4.882.703 5.419 3.02-.215.614-5.419 28.317-5.419 28.317l-7.277 1.155 3.902-20.973c.483-2.626-.311-3.475-2.838-3.074l-13.945 2.215-4.576 24.6-7.999 1.273 5.235-28.165-6.586-7.768-23.705 8.569 11.235-1.782.181-.025-7.144 38.435c-1.815 9.764-12.234 19.101-21.475 20.568l-9.457 1.499 1.434-7.692 7.194-1.138c6.324-1.007 13.443-7.335 14.671-13.954l.776-4.165-18.732 2.971c-4.016.638-6.196-1.801-5.406-6.044l3.359-18.069c.594-3.211 2.597-5.878 5.278-7.263l.044-.482 9.398-7.233-5.49.923c-2.921.462-8.337 2.652-11.779 7.041-2.602-3.104-7.154-4.32-9.717-3.914l-20.19 3.207 3.29-17.685 14.73-2.337c7.841-1.243 16.517-10.061 18.059-18.345l2.215-11.917c1.541-8.288-4.287-14.804-12.128-13.561l-32.191 5.107-6.86 36.904-29.642 4.704c-2.509.398-4.949 2.872-5.44 5.523l-11.079 59.582c-.491 2.652 1.144 4.481 3.654 4.086l56.559-8.976 4.576-24.599 2.303-.368c2.534-.399 2.16-.854 1.669 1.772l-4.183 22.502 20.372-3.232zm-41.971-13.488-18.914 3.001.712-3.84 15.276-2.428 3.717-19.99-15.276 2.428.712-3.843 18.914-3.002zm-1.144 6.153-1.572 8.454-33.462 5.309 10.43-56.123 27.643-4.385-1.429 7.689-19.64 3.119-3 16.144 16.002-2.538-1.429 7.685-16.002 2.538-3.005 16.149zm38.436 2.112-8.004 1.265 3.899-20.967c.491-2.628-.305-3.48-2.838-3.079l-13.945 2.215-4.571 24.6-8.003 1.271 6-32.286.186-.031 26.549-4.212c4.016-.638 6.196 1.796 5.406 6.044zm52.012-39.591 7.822-1.238-6.006 32.287-8 1.268 6-32.284zm48.532 15.217 2.777-14.937c.881-4.723 5.957-9.363 10.283-10.051l18.712-2.965c3.153-.502 5.343 3.02 4.7 6.466l-.917 4.807c-.645 3.447-4.165 7.11-7.316 7.61l-19.424 3.084-.28 1.744c-.369 1.982.947 3.531 2.765 3.241l21.71-3.457-1.463 7.878-24.492 3.884c-4.325.684-7.929-2.577-7.055-7.304zm-115.766-41.859 2.716-14.608 10.184-1.615c1.335-.212 2.018.55 1.752 1.959l-1.856 9.997c-.265 1.414-1.276 2.44-2.612 2.652z"/><path d="m157.65 46.742-2.162-8.563-1.219.147-.392 2.111c-.271 1.464-1.447 2.656-2.829 2.878l-8.368 1.325c-1.381.221-2.171-.662-1.899-2.126l4.217-22.679c.27-1.458 1.447-2.652 2.827-2.873l8.37-1.325c1.38-.22 2.17.663 1.897 2.121l-.54 2.887 16.915-2.686.643-3.457c1.621-8.725-4.311-15.358-12.571-14.053l-16.182 2.569c-8.254 1.311-17.092 10.287-18.711 19.012l-4.502 24.217c-1.621 8.724 4.311 15.358 12.57 14.047l5.409-.854z"/><path d="m169.64 41.576c.441-1.188.747-1.639.973-2.858l.575-3.079-6.732 1.07z"/><path d="m483.127 89.926c-6.242 0-11.758-2.028-15.733-5.448-3.978-3.412-6.401-8.246-6.396-13.686-.005-5.44 2.418-10.274 6.396-13.687 3.975-3.418 9.492-5.448 15.733-5.448h17.97v2.33h-17.97c-5.74 0-10.705 1.864-14.216 4.884-3.51 3.027-5.58 7.177-5.584 11.921.005 4.743 2.074 8.894 5.584 11.921 3.511 3.02 8.477 4.885 14.216 4.885h17.97c5.738 0 10.705-1.865 14.215-4.885 3.511-3.027 5.581-7.178 5.585-11.921-.005-4.744-2.074-8.894-5.585-11.921-3.511-3.02-8.478-4.884-14.215-4.884v-2.33c6.241 0 11.758 2.03 15.734 5.448 3.976 3.413 6.399 8.247 6.395 13.687.004 5.44-2.419 10.274-6.395 13.686-3.976 3.42-9.493 5.448-15.734 5.448zm0-5.99c-9.498 0-16.106-6.401-16.141-13.144.035-6.744 6.643-13.143 16.141-13.145h17.97c9.498.002 16.105 6.401 16.139 13.145-.034 6.744-6.641 13.144-16.139 13.144v-2.329c4.23-.001 7.696-1.418 10.097-3.481 2.404-2.066 3.717-4.762 3.714-7.334.004-2.572-1.31-5.268-3.714-7.335-2.401-2.062-5.866-3.48-10.097-3.481h-17.97c-4.231.001-7.697 1.419-10.098 3.481-2.404 2.067-3.716 4.763-3.713 7.335-.004 2.572 1.309 5.268 3.713 7.334 2.401 2.063 5.866 3.48 10.098 3.481h17.97v2.329z"/><path d="m344.193 89.926h-28.12c-6.242 0-11.758-2.029-15.734-5.448-3.976-3.412-6.4-8.246-6.395-13.686-.005-5.44 2.419-10.274 6.395-13.687 3.977-3.418 9.493-5.449 15.734-5.449h28.12v8.32h-28.12c-4.231.001-7.696 1.419-10.098 3.481-2.404 2.067-3.716 4.763-3.712 7.335-.004 2.572 1.308 5.268 3.712 7.334 2.402 2.063 5.867 3.48 10.098 3.481h26.955v1.165-1.165h1.165zm-42.336-31.055c-3.51 3.027-5.58 7.178-5.585 11.921.005 4.743 2.075 8.894 5.585 11.921 3.511 3.02 8.477 4.884 14.215 4.884h25.791v-3.66h-25.791c-9.498-.001-16.105-6.4-16.139-13.144.034-6.745 6.641-13.144 16.139-13.144h25.791v-3.661c-3.974-.001-17.218-.001-25.791-.001-5.738 0-10.704 1.865-14.215 4.884z"/><path d="m358.677 89.926h-10.824v-38.27h28.119v2.331c-6.789-.001-13.527-.001-18.568 0-3.275-.001-5.832-.001-7.222-.001v33.61c1.612.001 4.753.001 8.495.001 5.465-.001 12.204-.001 17.296 0 5.738-.001 10.704-1.865 14.216-4.885 3.511-3.027 5.58-7.178 5.583-11.921-.003-4.743-2.072-8.894-5.583-11.92-3.511-3.02-8.478-4.885-14.216-4.886v-2.329c6.242 0 11.759 2.03 15.733 5.448 3.978 3.413 6.401 8.247 6.397 13.687.004 5.44-2.419 10.274-6.397 13.687-3.975 3.418-9.492 5.448-15.733 5.448-5.092 0-11.831 0-17.296 0zm-3.669-5.99h-1.165v-26.289h22.13c9.499.001 16.105 6.401 16.14 13.144-.035 6.745-6.641 13.144-16.14 13.145v-2.33c4.23 0 7.697-1.418 10.097-3.48 2.404-2.067 3.716-4.763 3.713-7.335.003-2.572-1.309-5.268-3.713-7.335-2.4-2.062-5.867-3.48-10.097-3.48h-19.8v21.63h19.8v2.33c-5.511 0-12.103 0-20.965 0z"/><path d="m449.684 89.926v-1.164c-.002 0-.002-5.991 0-8.985.007-1.102-.583-2.353-1.532-3.295-.942-.948-2.193-1.539-3.295-1.531h-25.79v14.975h-8.32v-38.27h37.105c3.297-.016 5.961 1.334 7.658 3.526 1.704 2.186 2.49 5.104 2.492 8.288-.016 1.879-.867 3.857-2.114 5.495-.674.862-1.474 1.65-2.393 2.2.373.3.771.648 1.172 1.049 1.627 1.622 3.336 4.158 3.336 7.562v10.15zm5.989-2.328c0-1.381 0-3.987.001-7.821-.001-2.427-1.129-4.29-2.4-5.653-1.265-1.352-2.648-2.134-2.906-2.269-.035-.018-.041-.021-.041-.021l.521-1.042-.521 1.042.521-2.206c.912.032 2.207-.778 3.196-2.084.997-1.273 1.646-2.956 1.63-4.072.001-2.806-.709-5.212-2-6.853-1.298-1.634-3.127-2.616-5.822-2.632h-34.774v33.612h3.66v-14.975h28.12c1.892.008 3.637.915 4.942 2.212 1.298 1.305 2.204 3.05 2.212 4.943v7.82h3.661zm-10.815-18.636h-28.12v-11.315h28.12c1.712.004 3.42.462 4.788 1.419 1.366.94 2.379 2.501 2.366 4.405.022 1.906-1.033 3.431-2.415 4.272-1.383.864-3.071 1.215-4.739 1.219v-2.329c1.327.004 2.634-.311 3.497-.862.866-.573 1.309-1.212 1.329-2.3-.013-1.092-.497-1.859-1.378-2.499-.879-.625-2.165-.999-3.448-.996h-25.791v6.657h25.791z"/><path d="m403.427 74.951v-2.328l2.246-.001c1.011-.001 1.829-.819 1.83-1.829-.001-1.011-.819-1.829-1.83-1.831l-2.246.001c-1.01.001-1.828.819-1.83 1.83.002 1.01.82 1.828 1.83 1.829v2.329c-2.298 0-4.159-1.861-4.159-4.158 0-2.298 1.861-4.159 4.159-4.159h2.246c2.298 0 4.159 1.861 4.16 4.159-.001 2.297-1.862 4.158-4.16 4.158z"/><path d="m568.817 89.927v-25.125c-.003-1.308-.314-2.155-.762-2.781-.45-.622-1.084-1.06-1.875-1.378-1.577-.64-3.697-.673-5.182-.665l-4.826-.001v29.95h-8.319v-29.949h-4.826c-1.118-.002-2.582.005-3.916.29-1.348.285-2.477.826-3.142 1.754-.449.625-.758 1.473-.763 2.781v25.124h-8.319v-28.119c-.015-3.403 1.765-6.067 4.262-7.709 2.498-1.659 5.696-2.437 8.883-2.441 2.994-.001 20.966-.001 23.96 0 3.186.004 6.383.782 8.882 2.441 2.497 1.642 4.278 4.306 4.262 7.709v28.119zm5.99-2.329v-25.79c-.016-2.588-1.23-4.415-3.225-5.771-1.995-1.336-4.788-2.054-7.59-2.05h-23.96c-2.804-.004-5.597.714-7.591 2.05-1.996 1.355-3.21 3.182-3.225 5.771v25.79h3.661c-.002-4.078-.002-17.727 0-22.796-.005-1.688.434-3.085 1.202-4.144.767-1.062 1.818-1.747 2.9-2.178 2.166-.857 4.539-.825 6.047-.832h5.99v1.164-1.164h1.165v29.95h3.66v-29.95h7.157c1.126.001 2.75-.007 4.399.34 1.636.347 3.386 1.071 4.546 2.67.769 1.059 1.208 2.456 1.203 4.144v22.796z"/><path d="m582.174 56.506c-.929 1.471-1.146 3.484-1.141 5.305v2.282h18.636v-3.587h-13.288v-.665c-.032-1.08.569-1.928 1.35-2.258.764-.349 1.619-.38 2.449-.385.481 0 .953.017 1.379.017h2.229c1.889 0 3.434-.482 4.494-1.425 1.058-.943 1.713-2.374 1.718-4.533.004-1.336-.43-2.794-1.292-3.875-.867-1.081-2.115-1.819-3.936-1.826h-11.78v3.253h8.363c.68.004 1.439.044 2.135.367.705.304 1.289 1.086 1.261 2.081.013.912-.393 1.686-1.017 2.118-.619.437-1.371.583-2.124.586h-3.733c-3.2.02-4.771 1.088-5.703 2.545z"/></g></svg>