<svg clip-rule="evenodd" fill-rule="evenodd" stroke-linejoin="round" stroke-miterlimit="2" viewBox="0 0 600 270" xmlns="http://www.w3.org/2000/svg"><g fill="#fff" fill-rule="nonzero"><path d="m144.41 204.153c-.35 0-.705-.079-1.04-.243-33.991-16.498-51.542-35.729-50.756-55.621.639-16.375 14.002-31.836 38.643-44.714 23.381-12.217 56.358-21.911 95.369-28.04 1.302-.203 2.52.685 2.724 1.985.205 1.3-.684 2.518-1.984 2.723-79.023 12.411-128.831 38.556-129.989 68.235-.695 17.596 16.378 35.761 48.075 51.145 1.184.578 1.678 1.997 1.104 3.187-.414.847-1.262 1.343-2.146 1.343z"/><path d="m440.726 81.987c-.13 0-.259-.01-.39-.031-25.111-4.123-51.615-6.875-78.78-8.174-1.318-.062-2.331-1.179-2.267-2.495.063-1.314 1.2-2.317 2.494-2.265 27.35 1.309 54.04 4.078 79.33 8.23 1.295.213 2.178 1.439 1.962 2.739-.193 1.168-1.202 1.996-2.349 1.996z"/><path d="m365.708 244.757c-.668 0-1.33 0-1.998-.002-1.316-.003-2.376-1.073-2.372-2.391.004-1.313 1.065-2.373 2.378-2.373h.012c.653.001 1.324.001 1.982.001 127.542.002 228.184-33.15 229.511-75.758.467-14.909-11.51-30.037-34.644-43.741-23.032-13.65-56.044-25.284-95.461-33.643-1.287-.274-2.108-1.539-1.838-2.825.271-1.288 1.541-2.107 2.827-1.837 39.917 8.466 73.425 20.294 96.902 34.205 24.715 14.645 37.502 31.241 36.977 47.99-.704 22.657-25.734 43.314-70.479 58.152-43.264 14.344-101.365 22.222-163.797 22.222z"/><path d="m408.867 120.684 62.917-47.959-73.897 29.497-20.768-21.616 6.621 29.953-62.917 47.958 73.901-29.506 20.764 21.617z"/><path d="m330.072 180.553c.902-4.44 2.547-3.794 7.049-4.51l4.192-.66-1.305 6.989-4.191.67c-4.503.713-6.486 1.918-5.745-2.489zm-9.087-6.398-3.263 17.547c-.893 4.792.555 6.334 5.166 5.606l26.699-4.235 5.724-30.777-26.701 4.23c-4.614.731-6.74 2.839-7.625 7.629zm169.484-27.7-.311 1.697 27.54-4.372c2.174-.349 4.292-2.547 4.735-4.923.435-2.374-.962-4.02-3.138-3.673l-7.073 1.117-11.285 1.796-2.859.448c-3.308.529-6.937 4.3-7.609 7.91zm-193.219 79.359.224-1.224c.947.072 2.216.438 3.324.273l28.622-4.49c-1.063 5.71-8.606 7.141-20.115 8.965l-13.1 2.081-7.024 37.771 17.21-2.727c42.374-4.183 58.494-26.083 63.669-52.19l51.631-8.195 8.319-44.769 4.199-.671c4.603-.73 3.924-1.563 3.04 3.219l-7.615 40.965 37.068-5.882.507-2.715c2.798 1.234 6.066 1.669 9.528 1.126l64.105-10.167 5.978-32.178-4.155-2.959c3.601-4.264 6.406-9.481 7.219-13.859l1.011-5.075c3.196-18.98-14.302-24.02-22.286-22.751l-36.788 5.836c-6.515 1.035-13.689 5.575-18.909 11.59-4.828-4.781-12.28-6.639-16.614-5.951l-40.955 6.497 4.585 10.133 36.937-5.853c5.326-.849 8.885 1.278 9.862 5.495-.392 1.117-9.862 51.533-9.862 51.533l-13.244 2.103 7.101-38.169c.879-4.779-.566-6.325-5.165-5.593l-25.378 4.031-8.328 44.769-14.558 2.317 9.528-51.258-11.985-14.137-43.142 15.595 20.447-3.244.33-.046-13.001 69.949c-3.304 17.769-22.265 34.762-39.083 37.432l-17.21 2.728 2.61-14 13.091-2.07c11.509-1.832 24.465-13.35 26.7-25.396l1.413-7.579-34.091 5.407c-7.309 1.162-11.277-3.278-9.839-11.001l6.113-32.883c1.081-5.843 4.727-10.696 9.606-13.218l.081-.876 17.102-13.163-9.991 1.68c-5.315.839-15.173 4.826-21.436 12.814-4.736-5.651-13.019-7.864-17.684-7.124l-36.744 5.837 5.987-32.187 26.808-4.253c14.27-2.26 30.06-18.31 32.865-33.384l4.031-21.688c2.805-15.084-7.801-26.943-22.072-24.68l-58.584 9.293-12.484 67.162-53.946 8.561c-4.566.725-9.007 5.228-9.9 10.052l-20.162 108.432c-.894 4.828 2.082 8.155 6.649 7.437l102.932-16.335 8.328-44.769 4.191-.67c4.611-.725 3.931-1.552 3.038 3.226l-7.613 40.952zm-76.382-24.547-34.421 5.461 1.296-6.988 27.8-4.42 6.764-36.378-27.8 4.418 1.295-6.994 34.421-5.463zm-2.083 11.197-2.859 15.386-60.898 9.661 18.98-102.138 50.309-7.98-2.601 13.993-35.743 5.677-5.46 29.381 29.123-4.62-2.6 13.986-29.123 4.62-5.468 29.388zm69.95 3.845-14.565 2.301 7.094-38.157c.894-4.783-.554-6.335-5.165-5.604l-25.378 4.031-8.318 44.769-14.566 2.314 10.92-58.758.339-.057 48.316-7.664c7.31-1.162 11.277 3.269 9.839 10.999zm94.656-72.053 14.235-2.252-10.929 58.759-14.559 2.307 10.919-58.753zm88.324 27.694 5.055-27.183c1.602-8.596 10.841-17.041 18.712-18.292l34.054-5.396c5.739-.914 9.724 5.495 8.554 11.766l-1.669 8.748c-1.174 6.273-7.58 12.94-13.314 13.851l-35.35 5.613-.509 3.173c-.671 3.606 1.724 6.426 5.031 5.898l39.512-6.291-2.664 14.338-44.572 7.067c-7.872 1.245-14.431-4.689-12.84-13.292zm-210.681-76.179 4.942-26.584 18.533-2.94c2.431-.385 3.673 1.001 3.19 3.564l-3.378 18.195c-.484 2.573-2.324 4.44-4.754 4.825z"/><path d="m379.495 108.21-3.934-15.584-2.219.267-.713 3.843c-.494 2.664-2.634 4.833-5.149 5.237l-15.229 2.412c-2.513.402-3.95-1.206-3.456-3.869l7.675-41.275c.492-2.653 2.634-4.826 5.144-5.227l15.233-2.412c2.512-.401 3.949 1.207 3.452 3.86l-.983 5.253 30.785-4.888 1.17-6.291c2.95-15.878-7.846-27.95-22.878-25.574l-29.451 4.675c-15.019 2.386-31.104 18.72-34.052 34.599l-8.193 44.072c-2.949 15.879 7.846 27.95 22.877 25.565l9.845-1.554z"/><path d="m401.316 98.808c.803-2.162 1.36-2.983 1.772-5.201l1.045-5.603-12.251 1.948z"/><path d="m71.792 3.211h53.395l-3.541 20.289s-1.571-10.999-8.143-15.303c-1.632-.764-5.812-.711-16.287-.711l-4.1 24.192c8.352 1.964 17.614-10.763 17.614-10.763l-5.327 28.132s-3.268-12.738-13.502-12.315l-4.539 25.024c14.905 0 14.616-.105 18.217-2.306 3.475-2.123 11.589-12.576 11.895-14.04l-3.31 20.967h-53.976c.4-2.792 5.659-3.092 8.012-4.694l4.416-24.339c-.356-2.176-4.625-.302-5.492-2.17.733-2 5.026-.688 6.272-2.132l4.48-24.695c-.8-1.866-6.084-2.781-6.084-5.136z"/><path d="m172.522 1.312c2.35 4.847 4.239 10.172 5.959 15.672-3.265 1.267-7.792 3.325-7.792 3.325l-8.594-11.94c-8.952-.701-21.049 12.632-21.965 20.962-1.072 9.857 5.06 19.592 14.666 20.423 10.009.87 22.001-7.598 22.001-7.598l-11 24.221c-22.688 8.073-39.477-6.747-40.336-24.221-1.317-26.676 22.823-41.379 47.061-40.844z"/><path d="m48.451 36.31 7.758-36.168 14.761 9.07-11.799 6.959-10.697 52.141-34.501-38.827-4.726 24.042 8.394 6.924-17.641 7.862 8.571-40.606c.933-6.135-3.309-8.248-7.044-9.515l15.113-17.414z"/></g></svg>