<svg clip-rule="evenodd" fill-rule="evenodd" stroke-linejoin="round" stroke-miterlimit="2" viewBox="0 0 600 288" xmlns="http://www.w3.org/2000/svg"><path d="m327.808 16.192-50.709 198.634s-38.691-149.094-44.992-170.25c-6.295-21.17-19.293-30.448-37.681-30.448-18.398 0-31.391 9.278-37.677 30.448-6.31 21.156-45.045 170.25-45.045 170.25l-50.665-198.634h-61.039s58.588 211.919 66.554 236.459c6.229 19.159 20.888 34.828 42.666 34.828 24.899 0 36.532-18.149 41.918-34.828 5.333-16.56 43.288-156.548 43.288-156.548s37.93 139.988 43.292 156.548c5.338 16.679 17.015 34.828 41.9 34.828 21.763 0 36.446-15.669 42.655-34.828 7.947-24.54 66.545-236.459 66.545-236.459h-61.01zm209.305 269.238h57.764v-186.933h-57.764zm-5.582-252.262c0 18.01 15.157 32.621 33.837 32.621 19.394 0 34.632-14.333 34.632-32.621 0-18.336-15.238-32.679-34.632-32.679-18.68 0-33.837 14.645-33.837 32.679m-111.839 252.262h57.741v-186.933h-57.741zm28.212-284.941c19.413 0 34.628 14.343 34.628 32.679 0 18.288-15.215 32.621-34.628 32.621-18.69 0-33.866-14.611-33.866-32.621 0-18.034 15.176-32.679 33.866-32.679" fill="#fff" fill-rule="nonzero"/></svg>