<svg clip-rule="evenodd" fill-rule="evenodd" stroke-linejoin="round" stroke-miterlimit="2" viewBox="0 0 600 81" xmlns="http://www.w3.org/2000/svg"><g fill="#fff"><g fill-rule="nonzero"><path d="m127.641 42.922v-6.464h20.567c2.293 0 3.439-1.001 3.439-3.003 0-1.959-1.146-2.939-3.439-2.939h-10.294c-3.613 0-6.377-.805-8.293-2.416-1.9-1.625-2.851-3.953-2.851-6.986s.936-5.354 2.808-6.965c1.886-1.625 4.563-2.437 8.031-2.437h23.136v6.529h-20.481c-2.35 0-3.526.958-3.526 2.873 0 1.959 1.176 2.938 3.526 2.938h10.512c3.526 0 6.211.813 8.053 2.438 1.858 1.61 2.786 3.932 2.786 6.965 0 3.076-.928 5.426-2.786 7.051-1.842 1.611-4.527 2.416-8.053 2.416z"/><path d="m178.488 42.922c-4.237 0-7.56-1.023-9.968-3.069-2.409-2.046-3.613-5.332-3.613-9.859v-18.282h9.968v18.347c0 2.177.558 3.744 1.676 4.701 1.117.958 2.575 1.437 4.374 1.437h8.401v-24.485h9.969v31.21z"/><path d="m204.714 42.922v-31.21h20.567c4.658 0 8.075.928 10.252 2.786 2.191 1.842 3.286 4.367 3.286 7.574 0 3.163-1.081 5.673-3.243 7.53-2.162 1.843-5.593 2.764-10.295 2.764h-10.599v10.556zm23.615-20.829c0-2.611-1.604-3.917-4.81-3.917h-8.837v7.792h8.837c3.206 0 4.81-1.292 4.81-3.875z"/><path d="m275.011 18.176h-12.863c-3.12 0-5.376.479-6.769 1.436-1.378.958-2.191 2.394-2.437 4.31h22.069v6.398h-22.069c.101 1.872.841 3.352 2.22 4.44 1.393 1.089 3.721 1.633 6.986 1.633h12.863v6.529h-14.125c-5.993 0-10.513-1.306-13.56-3.918-3.032-2.626-4.548-6.522-4.548-11.687 0-5.166 1.516-9.054 4.548-11.666 3.047-2.626 7.567-3.939 13.56-3.939h14.125z"/><path d="m304.302 21.085c0-2.858-1.603-2.909-4.81-2.909h-10.142v7.284h10.142c3.207 0 4.81-1.458 4.81-4.375zm-5.934 10.774h-9.018v11.063h-9.968v-31.21h22.526c4.367 0 7.603 1.001 9.707 3.003 2.118 1.988 3.178 3.185 3.178 6.348 0 3.207-1.045 5.804-3.135 7.792-1.059 1.016-2.408 1.77-4.048 2.264l8.589 11.803h-10.375z"/><path d="m335.113 27.317c0-5.166 1.516-9.054 4.549-11.666 3.047-2.626 7.567-3.939 13.559-3.939h14.125v6.464h-12.863c-3.119 0-5.375.479-6.768 1.436-1.379.958-2.191 2.394-2.438 4.31h22.069v6.398h-22.265v12.602h-9.968z"/><path d="m381.507 42.922c-3.671 0-6.5-.849-8.488-2.546-1.988-1.713-2.982-4.078-2.982-7.096 0-3.003.994-5.354 2.982-7.051 1.988-1.712 4.817-2.569 8.488-2.569h13.843v-1.131c0-1.582-.378-2.692-1.132-3.33-.74-.639-2.024-.958-3.853-.958h-17.955v-6.529h18.325c5.151 0 8.866.979 11.144 2.938 2.292 1.959 3.439 5.158 3.439 9.598v18.674zm13.843-12.863h-11.166c-2.684 0-4.026 1.074-4.026 3.221 0 2.162 1.342 3.243 4.026 3.243h11.166z"/><path d="m447.78 42.922v-18.674c0-2.089-.522-3.577-1.567-4.462-1.044-.899-2.778-1.349-5.202-1.349h-2.067v24.485h-9.968v-24.485h-8.401v24.485h-9.969v-31.21h32.103c5.253 0 9.069 1.023 11.448 3.069 2.38 2.045 3.57 5.332 3.57 9.859v18.282z"/><path d="m460.667 11.712h9.968v31.21h-9.968z"/><path d="m507.482 18.306h-11.949c-3.628 0-6.254.704-7.879 2.112-1.625 1.407-2.438 3.707-2.438 6.899s.799 5.492 2.395 6.899c1.596 1.408 4.215 2.111 7.857 2.111h12.014v6.595h-14.496c-5.861 0-10.28-1.306-13.254-3.918-2.975-2.626-4.462-6.522-4.462-11.687 0-5.151 1.487-9.04 4.462-11.666 2.974-2.626 7.393-3.939 13.254-3.939h14.496z"/><path d="m548.65 27.781c0 2.699-.45 5.035-1.35 7.008-.899 1.959-2.198 3.577-3.895 4.854-1.684 1.262-3.737 2.205-6.16 2.829-2.408.609-5.151.914-8.227.914s-5.825-.305-8.249-.914c-2.408-.624-4.454-1.567-6.137-2.829-1.683-1.277-2.982-2.895-3.896-4.854-.9-1.973-1.349-4.309-1.349-7.008s.449-5.028 1.349-6.986c.914-1.974 2.213-3.592 3.896-4.854 1.683-1.277 3.729-2.22 6.137-2.829 2.424-.624 5.173-.936 8.249-.936s5.819.312 8.227.936c2.423.609 4.476 1.552 6.16 2.829 1.697 1.262 2.996 2.88 3.895 4.854.9 1.958 1.35 4.287 1.35 6.986zm-19.632 9.011c6.442 0 9.664-3.004 9.664-9.011s-3.222-9.011-9.664-9.011-9.663 3.004-9.663 9.011 3.221 9.011 9.663 9.011z"/><path d="m590.054 42.922v-18.674c0-2.089-.523-3.577-1.567-4.462-1.045-.899-2.779-1.349-5.202-1.349h-2.068v24.485h-9.968v-24.485h-8.401v24.485h-9.968v-31.21h32.102c5.253 0 9.069 1.023 11.449 3.069 2.379 2.045 3.569 5.332 3.569 9.859v18.282z"/><path d="m127.268 52.882v5.291l18.239.045v1.904c0 5.811-6.104 8.539-11.138 8.539h-7.24v5.291h7.982c3.318 0 7.029-1.598 9.819-4.238l2.851 4.238h6.776l-6.669-8.131c.865-1.681 1.379-3.555 1.379-5.56v-7.379z"/></g><path d="m152.329 60.911h19.353v4.687h-19.353z"/><path d="m202.081 60.911h19.353v4.687h-19.353z"/><path d="m250.209 58.219v3.295c0 5.812-4.526 7.147-9.561 7.147h-10.581v5.291h10.96c6.354 0 12.941-3.913 12.941-11.755v-9.315h-25.619v5.291z" fill-rule="nonzero"/><path d="m263.478 73.952h-5.612v-4.809h6.266c1.142 0 1.77-.908 1.77-1.859v-2.095h7.565c1.401 0 1.989-.961 1.989-1.786v-1.199h-18.885v-4.496h22.25v6.259c0 2.872-2.945 5.253-5.118 5.253h-4.988c0 2.142-1.244 4.732-5.237 4.732z" fill-rule="nonzero"/><path d="m308.442 55.281-26.811-2.921v4.857l26.811 2.921z" fill-rule="nonzero"/><path d="m308.442 62.336-26.811-2.92v4.857l26.811 2.92z" fill-rule="nonzero"/><path d="m308.442 69.195-26.811-2.921v4.857l26.811 2.921z" fill-rule="nonzero"/><path d="m174.156 73.952h-2.14v-5.315h1.483c4.877 0 7.318-3.371 7.318-7.154v-8.729h4.037v9.746c0 7.267-4.234 11.452-10.698 11.452z" fill-rule="nonzero"/><path d="m198.987 73.952h2.139v-5.315h-1.483c-4.877 0-7.318-3.371-7.318-7.154v-8.729h-4.037v9.746c0 7.267 4.234 11.452 10.699 11.452z" fill-rule="nonzero"/><path d="m197.579 52.312c-2.124-.001-3.866 1.739-3.866 3.863 0 2.125 1.742 3.867 3.866 3.867 2.125 0 3.867-1.742 3.867-3.867 0-2.124-1.742-3.863-3.867-3.863zm0 1.765c1.17 0 2.098.928 2.098 2.098 0 1.171-.928 2.101-2.098 2.101s-2.101-.93-2.101-2.101c0-1.17.931-2.098 2.101-2.098z" fill-rule="nonzero"/><path d="m311.284 52.671v5.684h22.289v10.043h-22.289v5.554h26.839v-21.281z" fill-rule="nonzero"/><path d="m363.641 52.526v9.451c0 4.387-4.893 6.746-7.635 6.746h-15.191v5.229h16.364c4.275 0 10.362-3.585 10.362-10.805v-10.621zm-22.813.11v5.719h16.436v-5.719z" fill-rule="nonzero"/><path d="m90.659 21.247c-2.785-.003-5.541.561-8.103 1.655-7.598 3.248-12.539 10.773-12.505 19.044 5.292.035 10.366 1.976 14.139 5.406 4.222 3.84 6.429 9.197 6.038 14.66l.468.461c8.331-.023 15.863-5.105 19.01-12.827 3.147-7.723 1.316-16.629-4.623-22.479-3.846-3.788-9.029-5.916-14.424-5.92z" fill-rule="nonzero"/><path d="m49.633.768c-2.785-.002-5.541.561-8.103 1.655-7.598 3.248-12.54 10.773-12.505 19.044 5.292.035 10.366 1.976 14.139 5.406 4.222 3.84 6.428 9.197 6.037 14.66l.469.461c8.331-.022 15.863-5.105 19.01-12.827 3.147-7.723 1.316-16.629-4.623-22.479-3.846-3.788-9.029-5.915-14.424-5.92z" fill-rule="nonzero"/><ellipse cx="23.561" cy="47.877" rx="23.561" ry="11.834"/><ellipse cx="64.58" cy="68.506" rx="23.561" ry="11.834"/></g></svg>