<?xml version="1.0" encoding="UTF-8" standalone="no"?><!DOCTYPE svg PUBLIC "-//W3C//DTD SVG 1.1//EN" "http://www.w3.org/Graphics/SVG/1.1/DTD/svg11.dtd"><svg width="100%" height="100%" viewBox="0 0 600 226" version="1.1" xmlns="http://www.w3.org/2000/svg" xmlns:xlink="http://www.w3.org/1999/xlink" xml:space="preserve" xmlns:serif="http://www.serif.com/" style="fill-rule:evenodd;clip-rule:evenodd;stroke-linejoin:round;stroke-miterlimit:2;"><g id="nintendo_nes"><g><g><path id="path867" d="M80.034,144.473l-34.737,0l0,34.014l10.786,-0l0,-22.755c0,-1.441 1.193,-2.637 2.633,-2.637l18.68,-0c1.433,-0 2.638,1.196 2.638,2.637l0,22.755l10.773,-0l-0,-22.755c-0,0 1.441,-11.259 -10.773,-11.259" style="fill:#fff;fill-rule:nonzero;"/><path id="path869" d="M380.134,144.473l-34.739,0l-0,34.014l11.016,-0l0,-22.755c0,-1.441 1.205,-2.637 2.402,-2.637l18.687,-0c1.43,-0 2.634,1.196 2.634,2.637l-0,22.755l10.769,-0l-0,-22.755c-0,0 1.437,-11.259 -10.769,-11.259" style="fill:#fff;fill-rule:nonzero;"/><path id="path871" d="M543.715,144.473l-34.732,0l-0,34.014l10.786,-0l-0,-22.755c-0,-1.441 1.187,-2.637 2.634,-2.637l18.678,-0c1.43,-0 2.634,1.196 2.634,2.637l0,22.755l10.777,-0l-0,-22.755c-0,0 1.43,-11.259 -10.777,-11.259" style="fill:#fff;fill-rule:nonzero;"/><path id="path873" d="M95.601,153.095l11.973,-0c1.198,-0 2.639,1.196 2.639,2.637l-0,22.755l11.488,-0l-0,-22.755c-0,-1.441 1.204,-2.637 2.637,-2.637l11.973,-0l0,-8.622l-40.71,0l-0,8.622" style="fill:#fff;fill-rule:nonzero;"/><path id="path875" d="M559.038,144.473l-0,8.622l11.981,-0c1.429,-0 2.634,1.196 2.634,2.637l0,22.755l11.981,-0l0,-22.755c0,-1.441 0.948,-2.637 2.385,-2.637l11.981,-0l-0,-8.622l-40.962,0" style="fill:#fff;fill-rule:nonzero;"/><path id="path877" d="M232.36,153.095l11.974,-0c1.434,-0 2.638,1.196 2.638,2.637l-0,22.755l11.965,-0l0,-22.755c0,-1.441 1.205,-2.637 2.647,-2.637l11.965,-0l-0,-8.622l-41.189,0l-0,8.622" style="fill:#fff;fill-rule:nonzero;"/><rect id="path879" x="326.722" y="144.473" width="11.494" height="34.012" style="fill:#fff;fill-rule:nonzero;"/><path id="path881" d="M308.277,161.245l-19.391,0l0,-5.99c0,-0.964 1.435,-2.16 2.149,-2.16l14.608,-0c1.671,-0 2.634,1.196 2.634,2.16l-0,5.99m-0.241,-16.772l-18.919,0c-12.215,0 -11.251,11.259 -11.251,11.259l-0,22.755l11.02,-0l0,-8.617l19.391,-0l-0,8.617l11.01,-0l0,-22.755c0,0 1.437,-11.259 -11.251,-11.259" style="fill:#fff;fill-rule:nonzero;"/><path id="path883" d="M217.029,158.611c0,1.67 -0.713,2.634 -2.155,2.634l-15.809,0c-0.714,0 -1.67,-0.964 -1.67,-2.634l0,-3.356c0,-1.441 0.956,-2.638 2.389,-2.638l15.09,0c1.442,0 2.155,0.711 2.155,2.638l0,3.356m-0.236,-14.138l-30.657,0l0,34.014l11.259,-0l0,-6.473c0,-1.436 0.956,-2.144 2.389,-2.144l15.09,-0c0.715,-0 2.155,1.196 2.155,2.144l0,6.473l10.774,-0l-0,-5.262c-0,0 0.964,-4.808 -4.068,-8.157c3.353,-2.393 4.554,-5.976 4.795,-8.143c0.237,-0.956 0.237,-1.67 0.237,-1.67c-0,-0 -0,-10.782 -11.974,-10.782" style="fill:#fff;fill-rule:nonzero;"/><path id="path885" d="M0.031,167.228c-0,-0 -1.194,11.259 11.262,11.259l26.826,-0l-0,-8.617l-24.914,-0c-1.675,-0 -3.116,-1.453 -3.116,-2.876c-0,-1.677 1.204,-2.641 3.116,-2.641l23.48,0l0,-5.983l-23.959,-0c-1.433,-0 -2.637,-1.197 -2.637,-2.638c-0,-1.441 1.204,-2.637 2.637,-2.637l25.393,-0l-0,-8.622l-38.088,0l-0,22.755" style="fill:#fff;fill-rule:nonzero;"/><path id="path887" d="M141.347,167.228c0,-0 -1.683,11.259 10.78,11.259l26.826,-0l-0,-8.617l-24.914,-0c-1.682,-0 -3.116,-1.453 -3.116,-2.876c0,-1.677 1.434,-2.641 3.116,-2.641l23.473,0l-0,-5.983l-23.473,-0c-1.682,-0 -3.116,-1.197 -3.116,-2.638c0,-1.441 1.434,-2.637 3.116,-2.637l24.914,-0l-0,-8.622l-37.606,0l0,22.755" style="fill:#fff;fill-rule:nonzero;"/><path id="path889" d="M464.197,167.228c-0,-0 -1.204,11.259 11.018,11.259l27.063,-0l-0,-8.617l-25.152,-0c-1.437,-0 -2.873,-1.453 -2.873,-2.876c-0,-1.677 0.962,-2.641 2.639,-2.641l23.466,0l0,-5.983l-23.466,-0c-1.677,-0 -2.639,-1.197 -2.639,-2.638c-0,-1.441 0.962,-2.637 2.639,-2.637l25.386,-0l-0,-8.622l-38.081,0l-0,22.755" style="fill:#fff;fill-rule:nonzero;"/><path id="path891" d="M446.316,144.518l-48.151,0l0,34.007l10.063,0l-0,-22.748c-0,-1.433 1.196,-2.634 2.634,-2.634l8.136,0c1.444,0 2.648,1.201 2.648,2.634l-0,22.748l11.252,0l-0,-22.748c-0,-1.433 0.962,-2.634 2.634,-2.634l8.625,0c0.954,0 2.159,1.201 2.159,2.634l0.467,22.748l10.777,0l-0,-22.748c-0,0 1.436,-11.259 -11.244,-11.259" style="fill:#fff;fill-rule:nonzero;"/></g><g><path id="path893" d="M292.911,200.098l12.21,0c0.948,0 2.152,1.205 2.152,2.635l0,22.75l11.983,-0l0.474,-22.75c-0,-1.43 0.713,-2.635 2.159,-2.635l11.981,0l-0,-8.616l-40.959,-0l-0,8.616" style="fill:#fff;fill-rule:nonzero;"/><path id="path895" d="M431.345,191.482l-48.136,-0l0,34.001l10.055,-0l-0,-22.75c-0,-1.43 1.196,-2.635 2.634,-2.635l8.143,0c1.43,0 2.626,1.205 2.626,2.635l0,22.75l11.258,-0l-0,-22.75c-0,-1.43 0.957,-2.635 2.642,-2.635l8.618,0c0.962,0 2.16,1.205 2.16,2.635l0.481,22.75l10.778,-0l-0,-22.75c-0,-0 1.428,-11.251 -11.259,-11.251" style="fill:#fff;fill-rule:nonzero;"/><path id="path897" d="M243.575,191.482l-10.303,-0l-0,12.695c-0,1.423 -1.434,2.626 -2.626,2.626l-15.338,0c-1.433,0 -2.634,-1.203 -2.634,-2.626l-0,-12.695l-10.774,-0l0,12.455c0,-0 -1.196,11.484 11.259,11.484l3.589,0l0,10.062l11.979,-0l-0,-10.062l4.067,0c12.455,0 10.781,-11.244 10.781,-11.244l-0,-12.695" style="fill:#fff;fill-rule:nonzero;"/><path id="path899" d="M338.414,214.232c0,-0 -1.677,11.251 10.778,11.251l26.823,-0l-0,-8.624l-24.904,0c-1.678,0 -3.123,-1.197 -3.123,-2.876c0,-1.67 1.445,-2.384 3.123,-2.384l23.466,-0l-0,-5.999l-23.466,0c-1.678,0 -3.123,-1.423 -3.123,-2.867c0,-1.43 1.445,-2.635 3.123,-2.635l24.904,0l-0,-8.616l-37.601,-0l0,22.75" style="fill:#fff;fill-rule:nonzero;"/><path id="path901" d="M278.062,205.359l-16.053,-0c-1.911,-0 -3.104,-0.708 -3.104,-2.378c0,-1.452 1.193,-2.883 2.627,-2.883l27.304,0l-0,-8.616l-29.931,-0c-5.513,-0 -10.296,4.546 -10.296,9.821c0,7.421 4.783,10.296 11.252,10.296l16.044,-0c1.68,-0 3.357,0.714 3.357,2.384c-0,1.438 -1.2,2.876 -2.641,2.876l-28.012,0l0,8.624l30.653,-0c5.028,-0 10.299,-4.071 10.299,-9.821c0,-6.938 -5.513,-10.303 -11.499,-10.303" style="fill:#fff;fill-rule:nonzero;"/><path id="path903" d="M186.811,205.359l-15.567,-0c-1.919,-0 -3.353,-0.708 -3.353,-2.378c0,-1.452 1.434,-2.883 2.875,-2.883l27.304,0l-0,-8.616l-29.942,-0c-5.987,-0 -10.78,4.546 -10.78,9.821c0,7.421 5.272,10.296 11.736,10.296l15.567,-0c1.92,-0 3.353,0.714 3.353,2.384c0,1.438 -1.433,2.876 -2.874,2.876l-27.782,0l0,8.624l30.656,-0c5.51,-0 10.544,-4.071 10.544,-9.821c0,-6.938 -5.272,-10.303 -11.737,-10.303" style="fill:#fff;fill-rule:nonzero;"/></g></g><path d="M491.655,113.761l-383.31,-0c-32.749,0.111 -52.653,-21.869 -52.653,-48.833c0,-26.972 20.03,-48.774 52.653,-48.834l383.31,0c32.623,0.06 52.645,21.862 52.645,48.834c0,26.964 -19.896,48.944 -52.645,48.833m0.186,-113.596l-383.682,0c-41.083,-0.096 -68.678,29.441 -68.678,64.852c0,35.403 27.528,64.599 68.738,64.614l383.562,-0c41.203,-0.015 68.738,-29.211 68.738,-64.614c-0,-35.411 -27.602,-64.948 -68.678,-64.852m-187.155,60.751c1.432,-2.499 4.064,-3.693 6.445,-3.701c2.388,0.008 5.02,1.202 6.444,3.701c1.172,2.024 1.224,4.397 1.202,7.942l-15.299,0c-0.03,-3.545 0.044,-5.918 1.208,-7.942m33.327,14.253c0,-12.562 -12.14,-22.974 -27.045,-22.974c-14.899,-0 -26.987,10.182 -26.987,22.751c0,12.563 12.088,22.752 26.987,22.752c12.377,0 22.811,-7.052 26,-16.626l-18.266,0.015c0,-0 0.015,0.178 0.015,2.454c0,7.416 -4.872,9.063 -7.586,9.063c-2.7,-0 -7.661,-1.647 -7.661,-9.063c0,-2.217 0.015,-8.365 0.015,-8.365c0,0 34.528,0.015 34.528,-0.007m38.362,-22.299c-6.066,0.17 -11.109,2.766 -14.624,6.11c-0.015,-1.001 0,-4.257 0,-4.257l-18.183,0.008l-0.008,40.527l18.191,0c0,0 -0.015,-24.895 -0.015,-26.622c0,-3.53 3.708,-7.461 8.699,-7.461c4.999,0 8.373,3.931 8.373,7.461l-0,26.622l18.213,0c0,0 -0.007,-19.199 0,-22.054c0.104,-16.048 -13.801,-20.535 -20.646,-20.334m-148.947,-0c-6.058,0.17 -11.109,2.766 -14.616,6.11c-0.015,-1.001 -0,-4.257 -0,-4.257l-18.214,0.008l0.015,40.527l18.199,0c-0,0 -0.015,-24.895 -0.015,-26.622c-0,-3.53 3.708,-7.461 8.699,-7.461c4.99,0 8.372,3.931 8.372,7.461l0,26.622l18.213,0c0,0 -0.022,-19.199 0,-22.054c0.097,-16.048 -13.808,-20.535 -20.653,-20.334m209.231,21.921c-0,-0 0.007,4.59 0.007,7.193c0,6.259 -4.338,7.898 -7.193,7.898c-2.907,-0 -7.179,-1.639 -7.179,-7.898c0,-2.151 0.008,-7.208 0.008,-7.208c-0,-0 -0.008,-5.147 -0.008,-7.223c0,-6.274 4.272,-7.868 7.186,-7.868c2.848,-0 7.179,1.594 7.179,7.868l-0,7.238Zm-0.134,-18.05c-2.922,-1.647 -6.021,-3.234 -10.367,-3.612c-13.208,-1.164 -23.308,10.516 -23.308,21.217c-0,14.105 10.894,19.325 12.54,20.097c6.17,2.87 14.083,2.877 21.098,-1.528c0,0.378 0.008,2.343 0.008,2.343l18.116,0l0,-60.935l-18.087,-0l0,22.418Zm58.192,26.519c0,6.459 -3.819,9.121 -7.49,9.121c-3.678,0 -7.512,-2.662 -7.512,-9.121c0,-2.455 0.007,-8.744 0.007,-8.744c0,0 0.008,-5.992 0.008,-8.454c-0,-6.422 3.841,-9.069 7.49,-9.069c3.663,-0 7.49,2.647 7.49,9.069c-0,2.462 -0,7.001 0.022,8.632c0,0.097 -0.015,6.126 -0.015,8.566m-7.349,-31.295c-14.794,-0 -26.786,10.197 -26.786,22.759c0,12.57 11.992,22.759 26.786,22.759c14.795,0 26.786,-10.189 26.786,-22.759c0,-12.562 -11.991,-22.759 -26.786,-22.759m-321.224,-5.206l18.369,-0l-0,-12.459l-18.369,0l-0,12.459Zm0.044,48.507l18.325,-0l-0,-40.528l-18.325,0l0,40.528Zm120.218,-40.454l0,-6.029l-9.929,0l-0,-8.194l-18.34,-0l0.015,8.202l-9.974,0.007l-0,6.014l9.967,0l-0.015,40.454l18.361,-0l-0.014,-40.454l9.929,0Zm-149.533,22.011l-26.274,-42.5l-18.984,-0l-0.008,60.943l18.874,-0l-0,-42.5l26.407,42.5l18.807,-0l-0,-60.943l-18.836,-0l0.014,42.5Z" style="fill:#fff;fill-rule:nonzero;"/></g></svg>