<svg clip-rule="evenodd" fill-rule="evenodd" stroke-linejoin="round" stroke-miterlimit="2" viewBox="0 0 600 140" xmlns="http://www.w3.org/2000/svg"><g fill="#fff"><g fill-rule="nonzero"><path d="m162.273 68.622c1.792 1.241 3.137 2.586 4.034 4.032.964 1.725 1.55 3.655 1.758 5.79v47.669c0 2.897-.535 5.154-1.603 6.775-1.069 1.619-2.259 2.911-3.568 3.876-1.516 1.102-3.24 1.862-5.17 2.274h-32.159v-72.487h29.057c3.31.142 5.86.83 7.651 2.071zm2.275 9.616c-.206-1.515-.654-2.894-1.343-4.135-.553-1.034-1.414-1.982-2.586-2.844-1.172-.863-2.759-1.224-4.756-1.087l-26.99.104v65.455h27.403c1.447-.275 2.758-.757 3.93-1.447.965-.552 1.896-1.378 2.792-2.483.895-1.102 1.413-2.618 1.552-4.549v-49.014zm-15.2 4.189c.62.586 1.102 1.224 1.448 1.912.344.759.551 1.62.62 2.585v29.988c.068 1.724-.086 3.052-.466 3.981-.38.932-.844 1.602-1.395 2.015-.621.553-1.311.862-2.068.931h-6.205l-.206-42.499h5.584c1.172.139 2.068.501 2.688 1.087zm-1.241 4.497c-.138-.55-.344-.998-.619-1.344-.621-.757-1.689-.964-3.207-.62v35.571c.62.206 1.206.276 1.758.206.483-.068.913-.274 1.292-.62.38-.343.638-.999.776-1.964z"/><path d="m192.676 66.864v71.969h-20.061v-71.969zm-3.517 4.136h-13.235v63.904h13.235z"/><path d="m219.045 90.44v-2.998c.068-1.378-.242-2.206-.931-2.482-.276-.137-.655-.137-1.137 0-.553 0-.949.121-1.19.362-.242.242-.397.535-.466.879-.139.344-.139.758 0 1.24v3.929l15.925 10.342c1.998 1.102 3.532 2.274 4.602 3.516 1.069 1.242 1.809 2.413 2.223 3.516.482 1.241.724 2.55.724 3.93v15.819c-.138 2.276-.724 4.121-1.758 5.533-1.034 1.415-2.206 2.5-3.516 3.258-1.517.895-3.206 1.552-5.066 1.964h-20.888c-2.62-.069-4.671-.723-6.153-1.964-1.482-1.239-2.567-2.551-3.257-3.93-.828-1.654-1.345-3.516-1.552-5.584v-23.577l18.82 11.48v4.032c0 .619.085 1.086.258 1.395.172.31.396.536.672.673.276.206.62.309 1.034.309 1.034-.069 1.62-.482 1.758-1.241.068-.274.034-.653-.103-1.136v-4.757l-13.753-8.272c-2.413-1.309-4.223-2.706-5.429-4.188s-2.086-2.811-2.636-3.982c-.621-1.378-.931-2.757-.931-4.135v-16.958c.137-2.62.758-4.653 1.862-6.1 1.102-1.449 2.344-2.517 3.722-3.207 1.586-.757 3.344-1.205 5.275-1.343h18.509c3.171.138 5.617.724 7.342 1.758 1.723 1.034 3.034 2.206 3.929 3.515.966 1.517 1.586 3.206 1.862 5.067v26.368zm-1.656-8.995c1.102.138 1.948.396 2.534.776s1.051.809 1.396 1.292c.344.552.586 1.172.724 1.861v2.998l13.443 8.066-.207-17.682c.068-1.791-.328-3.257-1.19-4.394-.862-1.138-1.809-2.016-2.843-2.637-1.242-.758-2.655-1.24-4.241-1.448h-20.06c-1.586.139-2.827.57-3.723 1.293-.896.724-1.585 1.464-2.068 2.223-.552.966-.93 2.001-1.137 3.103v16.751c-.069 1.379.206 2.584.827 3.619.62 1.033 1.31 1.929 2.068 2.688.828.895 1.827 1.688 2.999 2.377l16.959 10.961v6.723c0 1.309-.277 2.326-.828 3.05-.553.725-1.172 1.258-1.862 1.601-.759.416-1.654.692-2.688.829-1.31-.137-2.31-.429-2.998-.878-.69-.447-1.207-.947-1.552-1.5-.415-.619-.691-1.344-.828-2.173v-3.307l-12.098-7.238-.207 16.958c.068 1.998.5 3.532 1.292 4.602.792 1.069 1.672 1.878 2.637 2.43 1.102.62 2.377.999 3.826 1.137h20.164c1.999-.068 3.498-.517 4.499-1.343.999-.829 1.739-1.725 2.223-2.69.551-1.172.828-2.481.828-3.929v-15.408c.068-.829-.138-1.655-.621-2.484-.482-.826-1.034-1.55-1.653-2.171-.759-.759-1.587-1.482-2.483-2.172l-18.406-11.892v-7.652c.068-1.172.396-2.033.982-2.584.586-.552 1.189-.966 1.81-1.242.76-.274 1.586-.445 2.482-.514z"/><path d="m283.156 93.956-7.445 8.581 7.445 9.101v27.195h-19.131v-20.061l-2.688-2.481v22.749h-19.337v-72.279h19.337v22.748l2.688-3.206v-19.542h19.131zm-3.31-23.06h-11.995l-.103 17.269-9.721 9.927-.413-27.609h-12.099v64.317h11.995v-26.68l9.41 8.893v17.89h12.719v-22.852l-8.169-9.515 8.376-9.718z"/><path d="m339.305 90.44v-2.998c.069-1.378-.241-2.206-.929-2.482-.277-.137-.656-.137-1.139 0-.553 0-.949.121-1.189.362-.243.242-.396.535-.467.879-.139.344-.139.758 0 1.24v3.929l15.926 10.342c1.998 1.102 3.532 2.274 4.602 3.516 1.069 1.242 1.808 2.413 2.222 3.516.482 1.241.725 2.55.725 3.93v15.819c-.139 2.276-.725 4.121-1.758 5.533-1.035 1.415-2.207 2.5-3.516 3.258-1.518.895-3.207 1.552-5.067 1.964h-20.888c-2.62-.069-4.671-.723-6.153-1.964-1.482-1.239-2.567-2.551-3.257-3.93-.829-1.654-1.345-3.516-1.552-5.584v-23.577l18.82 11.48v4.032c0 .619.086 1.086.259 1.395.17.31.396.536.672.673.274.206.62.309 1.033.309 1.035-.069 1.621-.482 1.758-1.241.069-.274.034-.653-.103-1.136v-4.757l-13.752-8.272c-2.413-1.309-4.224-2.706-5.43-4.188-1.205-1.482-2.085-2.811-2.636-3.982-.62-1.378-.93-2.757-.93-4.135v-16.958c.138-2.62.757-4.653 1.862-6.1 1.102-1.449 2.344-2.517 3.722-3.207 1.586-.757 3.344-1.205 5.275-1.343h18.509c3.171.138 5.617.724 7.342 1.758 1.722 1.034 3.034 2.206 3.929 3.515.966 1.517 1.586 3.206 1.862 5.067v26.368zm-1.655-8.995c1.102.138 1.948.396 2.534.776s1.053.809 1.396 1.292c.345.552.586 1.172.725 1.861v2.998l13.442 8.066-.206-17.682c.068-1.791-.329-3.257-1.189-4.394-.863-1.138-1.811-2.016-2.844-2.637-1.241-.758-2.656-1.24-4.242-1.448h-20.058c-1.588.139-2.829.57-3.725 1.293-.896.724-1.585 1.464-2.068 2.223-.552.966-.929 2.001-1.136 3.103v16.751c-.069 1.379.206 2.584.826 3.619.62 1.033 1.31 1.929 2.068 2.688.829.895 1.827 1.688 3 2.377l16.958 10.961v6.723c0 1.309-.277 2.326-.827 3.05-.553.725-1.172 1.258-1.862 1.601-.758.416-1.654.692-2.689.829-1.309-.137-2.309-.429-2.997-.878-.69-.447-1.208-.947-1.552-1.5-.416-.619-.692-1.344-.829-2.173v-3.307l-12.097-7.238-.206 16.958c.068 1.998.499 3.532 1.291 4.602.793 1.069 1.672 1.878 2.637 2.43 1.102.62 2.378.999 3.826 1.137h20.164c1.999-.068 3.497-.517 4.499-1.343.999-.829 1.738-1.725 2.222-2.69.552-1.172.829-2.481.829-3.929v-15.408c.068-.829-.139-1.655-.622-2.484-.482-.826-1.033-1.55-1.652-2.171-.759-.759-1.588-1.482-2.484-2.172l-18.406-11.892v-7.652c.069-1.172.396-2.033.982-2.584.586-.552 1.189-.966 1.811-1.242.759-.274 1.585-.445 2.481-.514z"/><path d="m405.691 66.968v61.422c-.069 2.413-.569 4.327-1.499 5.739-.931 1.415-1.981 2.5-3.154 3.257-1.311.829-2.826 1.415-4.551 1.758h-30.502v-17.577h19.439v-3.413h-13.236c-2.55-.137-4.481-.759-5.79-1.862-1.311-1.102-2.24-2.344-2.793-3.722-.69-1.585-1.033-3.343-1.033-5.274v-40.328h19.854v32.986h3.412v-32.986zm-3.412 3.826h-12.511v28.23c-.069.896-.312 1.688-.725 2.378-.346.62-.879 1.172-1.602 1.655-.725.482-1.775.758-3.153.826-1.035.069-1.931-.033-2.69-.31-.69-.276-1.309-.758-1.862-1.448-.552-.69-.862-1.791-.929-3.309v-28.021h-12.099v36.708c.069 1.378.38 2.62.931 3.722.483.966 1.223 1.845 2.222 2.637 1 .792 2.464 1.189 4.395 1.189h15.408v5.377c-.139.896-.449 1.688-.931 2.378-.413.552-1.035 1.068-1.862 1.552-.829.482-1.931.725-3.309.725h-13.855v10.235h26.368c1.172-.137 2.207-.48 3.103-1.033.756-.482 1.462-1.205 2.118-2.171.657-.966.983-2.276.983-3.932z"/><path d="m431.958 90.44v-2.998c.068-1.378-.243-2.206-.932-2.482-.276-.137-.655-.137-1.136 0-.553 0-.949.121-1.192.362-.24.242-.396.535-.464.879-.139.344-.139.758 0 1.24v3.929l15.923 10.342c1.999 1.102 3.533 2.274 4.602 3.516 1.07 1.242 1.811 2.413 2.225 3.516.482 1.241.723 2.55.723 3.93v15.819c-.137 2.276-.723 4.121-1.758 5.533-1.033 1.415-2.205 2.5-3.517 3.258-1.515.895-3.204 1.552-5.064 1.964h-20.889c-2.621-.069-4.671-.723-6.153-1.964-1.482-1.239-2.567-2.551-3.257-3.93-.827-1.654-1.345-3.516-1.552-5.584v-23.577l18.821 11.48v4.032c0 .619.084 1.086.257 1.395.172.31.396.536.672.673.276.206.62.309 1.035.309 1.033-.069 1.619-.482 1.758-1.241.068-.274.034-.653-.103-1.136v-4.757l-13.754-8.272c-2.413-1.309-4.222-2.706-5.428-4.188-1.207-1.482-2.087-2.811-2.636-3.982-.622-1.378-.932-2.757-.932-4.135v-16.958c.137-2.62.759-4.653 1.862-6.1s2.344-2.517 3.722-3.207c1.586-.757 3.344-1.205 5.275-1.343h18.509c3.17.138 5.617.724 7.342 1.758 1.724 1.034 3.033 2.206 3.929 3.515.966 1.517 1.586 3.206 1.862 5.067v26.368zm-1.655-8.995c1.102.138 1.948.396 2.534.776s1.05.809 1.396 1.292c.343.552.586 1.172.723 1.861v2.998l13.444 8.066-.208-17.682c.069-1.791-.327-3.257-1.19-4.394-.862-1.138-1.808-2.016-2.843-2.637-1.242-.758-2.654-1.24-4.24-1.448h-20.061c-1.585.139-2.826.57-3.722 1.293-.896.724-1.585 1.464-2.068 2.223-.552.966-.931 2.001-1.138 3.103v16.751c-.07 1.379.206 2.584.828 3.619.62 1.033 1.31 1.929 2.068 2.688.827.895 1.827 1.688 2.999 2.377l16.959 10.961v6.723c0 1.309-.277 2.326-.829 3.05-.553.725-1.172 1.258-1.862 1.601-.759.416-1.654.692-2.687.829-1.312-.137-2.311-.429-2.999-.878-.69-.447-1.206-.947-1.552-1.5-.414-.619-.69-1.344-.827-2.173v-3.307l-12.1-7.238-.206 16.958c.069 1.998.5 3.532 1.292 4.602.792 1.069 1.672 1.878 2.637 2.43 1.102.62 2.377.999 3.826 1.137h20.164c1.999-.068 3.499-.517 4.499-1.343.999-.829 1.74-1.725 2.224-2.69.55-1.172.827-2.481.827-3.929v-15.408c.069-.829-.138-1.655-.62-2.484-.482-.826-1.035-1.55-1.654-2.171-.759-.759-1.586-1.482-2.482-2.172l-18.406-11.892v-7.652c.068-1.172.396-2.033.982-2.584.586-.552 1.189-.966 1.809-1.242.759-.274 1.587-.445 2.483-.514z"/><path d="m493.07 67.174v18.82h-8.893v53.047h-20.888v-53.047h-8.479v-19.232zm-4.032 3.722h-30.506v10.961h8.687v53.46h12.615v-53.15h9.203v-11.271z"/><path d="m516.647 85.786v8.376h13.236v18.82h-13.648v7.962h13.648v18.406l-33.607-.206v-72.382h34.019v19.026h-13.648zm-4.033 12.202v-16.027h13.648v-10.961h-26.161v65.352h26.161v-11.478h-13.855v-15.718h14.061v-11.168z"/><path d="m596.164 69.398c1.379 1.138 2.344 2.326 2.897 3.567.69 1.448.999 3.035.929 4.756v61.733h-19.647v-51.908c-.069-.758-.344-1.24-.827-1.448-.276-.069-.553-.104-.829-.104-.413 0-.74.104-.982.311-.241.206-.43.413-.567.619-.208.276-.311.553-.311.828v51.495h-19.439v-51.393c0-.757-.276-1.343-.826-1.757-.277-.206-.553-.344-.829-.414-.483 0-.863.105-1.139.311s-.482.448-.619.723c-.206.276-.31.62-.31 1.034v51.185h-18.82v-72.073h24.093c1.515-.138 2.844-.018 3.98.362 1.139.379 2.121.845 2.949 1.396.896.621 1.722 1.345 2.481 2.172.413-.758.929-1.361 1.552-1.81.619-.448 1.239-.81 1.862-1.086.689-.276 1.412-.517 2.171-.724h16.235c2.617.346 4.618 1.088 5.996 2.225zm.208 7.806c-.069-1.172-.344-2.206-.827-3.101-.416-.759-1.121-1.465-2.121-2.121-.999-.654-2.397-.982-4.188-.982h-14.165c-1.104.069-2.137.344-3.103.828-.829.414-1.672 1.035-2.534 1.861-.863.828-1.535 1.931-2.017 3.309-.553-1.309-1.206-2.448-1.965-3.412-.758-.827-1.688-1.586-2.791-2.274-1.104-.69-2.552-1.001-4.343-.931l-19.336.207v64.73h11.478v-47.98c-.07-.965.103-1.826.517-2.585.345-.69.915-1.31 1.707-1.862s1.981-.828 3.567-.828c.829 0 1.621.207 2.379.621.551.344 1.086.947 1.602 1.81.516.862.776 2.119.776 3.774v47.048h12.203v-47.98c0-.826.206-1.62.62-2.378.343-.62.895-1.19 1.654-1.706.757-.517 1.895-.776 3.413-.776.826-.068 1.618.035 2.377.31.62.276 1.189.759 1.705 1.449.516.689.776 1.792.776 3.307v47.773h12.616z"/><path d="m125.778 30.638h12.663v4.413h-8.226v5.353h8.226v4.556h-8.226v9.514h-4.437z"/><path d="m152.841 54.474h-4.314v-3.711h-8.355l-2.476 3.711h-5.08l16.712-23.836h3.513zm-4.314-8.215v-6.954l-5.104 6.954z"/><path d="m154.532 30.638h5.003l7.055 16.023 7.105-16.023h5.054v23.836h-4.454v-12.017l-5.503 12.017h-4.504l-5.303-12.017v12.017h-4.453z"/><path d="m261.783 30.638h5.004l7.054 16.023 7.106-16.023h5.054v23.836h-4.454v-12.017l-5.504 12.017h-4.503l-5.304-12.017v12.017h-4.453z"/></g><path d="m180.153 30.638h4.609v23.836h-4.609z"/><path d="m186.032 30.638h4.608v19.49h6.006v4.346h-10.614z" fill-rule="nonzero"/><path d="m191.525 30.638h5.121l4.842 9.766 4.702-9.766h5.075l-7.636 15.161v8.675h-4.468v-8.675z" fill-rule="nonzero"/><path d="m236.315 37.212c-2.024-3.856-6.067-6.487-10.725-6.487-6.684 0-12.104 5.419-12.104 12.104 0 6.686 5.418 12.104 12.104 12.104 4.691 0 8.758-2.668 10.768-6.569l-5.485.045c-1.352 1.247-3.159 2.009-5.143 2.009-4.192 0-7.589-3.398-7.589-7.59 0-4.191 3.397-7.588 7.589-7.588 1.956 0 3.74.741 5.085 1.957z" fill-rule="nonzero"/><path d="m248.292 54.997c-6.719 0-12.166-5.448-12.166-12.168 0-6.719 5.448-12.167 12.166-12.167 6.722 0 12.169 5.448 12.169 12.167.001 6.721-5.447 12.168-12.169 12.168zm7.747-12.168c0-4.251-3.448-7.698-7.699-7.698s-7.699 3.447-7.699 7.698c0 4.252 3.447 7.699 7.699 7.699 4.251 0 7.699-3.447 7.699-7.699z" fill-rule="nonzero"/><path d="m295.493 30.642c4.033.323 7.206 3.7 7.206 7.818 0 4.116-3.172 7.493-7.206 7.817l-3.485-.017v8.214h-4.469v-23.836h4.469zm-3.484 4.584v6.466l3.485-.003c1.524-.285 2.678-1.622 2.678-3.229 0-1.609-1.154-2.946-2.678-3.231z" fill-rule="nonzero"/><path d="m351.801 54.784h-4.424v-23.941l6.147-.008 3.484.002c4.033.324 7.206 3.701 7.206 7.818 0 3.363-2.119 6.233-5.093 7.346l5.156 8.782h-4.84l-7.228-12.349h-.408zm5.209-12.9c1.524-.285 2.677-1.623 2.677-3.229 0-1.608-1.153-2.945-2.677-3.23h-5.208v6.463z" fill-rule="nonzero"/><path d="m308.524 44.412.003 3.484c.286 1.525 1.622 2.678 3.229 2.678s2.945-1.154 3.23-2.678l.003-3.484.012-13.568h4.576v13.568l-.004 3.484c-.324 4.035-3.7 7.205-7.817 7.205-4.116 0-7.492-3.17-7.817-7.205l.016-3.484-.007-13.568h4.593z" fill-rule="nonzero"/><path d="m324.148 54.784h4.516v-19.428h4.05v-4.513h-12.477v4.513h3.911z" fill-rule="nonzero"/><path d="m346.215 54.784h-12.408v-23.941h12.408v4.383h-7.96v5.685h7.96v4.47h-7.96v4.98h7.96z" fill-rule="nonzero"/><path d="m55.423 121.523h-.113c-7.414.002-13.577 5.344-14.858 12.389h-30.274c-3.841-.008-6.95-3.117-6.955-6.956-.006-3.16 2.11-5.827 4.986-6.676l1.124-.332.846-1.667v-11.306l-.732-1.565-.92-.411c-5.026-2.258-8.53-7.299-8.527-13.167-.002-5.838 3.467-10.858 8.454-13.133l.194-.089.314-.207 1.218-.805v-33.103c.009-4.591 3.723-8.306 8.314-8.314h73.748c4.591.009 8.305 3.723 8.313 8.314v33.103l1.531 1.011.197.09c4.986 2.274 8.456 7.294 8.454 13.133.002 5.867-3.501 10.909-8.527 13.167l-.922.411-.733 1.565v.604c0 3.707 0 7.017.001 10.052v.65l.845 1.667 1.125.332c2.875.85 4.991 3.516 4.986 6.676-.005 3.838-3.115 6.947-6.955 6.956h-30.275c-1.278-7.046-7.445-12.387-14.859-12.389zm1.982-49.655c0-11.276 9.14-20.415 20.416-20.416 11.275.001 20.415 9.14 20.416 20.416-.001 11.276-9.141 20.415-20.416 20.415-11.276 0-20.416-9.139-20.416-20.415zm-44.906 0c.001-11.276 9.141-20.415 20.417-20.416 11.276.001 20.416 9.14 20.416 20.416-.001 11.276-9.141 20.415-20.416 20.415s-20.415-9.139-20.417-20.415zm48.581-3.083c1.46-7.925 8.394-13.923 16.741-13.939 9.4.017 17.004 7.623 17.022 17.023-.016 9.401-7.622 17.006-17.022 17.022-8.296-.015-15.194-5.939-16.713-13.793.87.969 2.132 1.579 3.535 1.579 2.622 0 4.751-2.129 4.751-4.751s-2.129-4.751-4.751-4.751c-1.418 0-2.692.624-3.563 1.61zm-11.453 6.316c-1.518 7.852-8.416 13.775-16.711 13.789-9.401-.016-17.007-7.62-17.023-17.022.016-9.4 7.622-17.006 17.023-17.023 8.346.015 15.278 6.013 16.739 13.937-.871-.985-2.144-1.607-3.561-1.607-2.622 0-4.75 2.129-4.75 4.751s2.128 4.751 4.75 4.751c1.402 0 2.663-.608 3.533-1.576z"/><path d="m37.509 7.918h6.232v13.784h-6.232z"/><path d="m78.397 7.944v-2.051h-3.377v-2.787h-6.238l.005 2.79-3.392.002v2.046h3.39l-.005 13.758h6.245l-.005-13.758z"/><path d="m27.539 15.43-8.937-14.455h-6.457l-.002 20.727h6.419v-14.455l8.982 14.455h6.396v-20.727h-6.406z"/><path d="m108.997 7.283c-2.063.058-3.778.941-4.974 2.078-.005-.34 0-1.448 0-1.448l-6.184.003-.003 13.784h6.187s-.005-8.467-.005-9.055c0-1.201 1.261-2.537 2.959-2.537 1.7 0 2.847 1.336 2.847 2.537v9.055h6.195s-.003-6.53 0-7.501c.035-5.458-4.694-6.984-7.022-6.916z"/><path d="m58.338 7.283c-2.061.058-3.779.941-4.972 2.078-.005-.34 0-1.448 0-1.448l-6.194.003.005 13.784h6.189s-.005-8.467-.005-9.055c0-1.201 1.262-2.537 2.959-2.537s2.848 1.336 2.848 2.537v9.055h6.194s-.007-6.53 0-7.501c.033-5.458-4.696-6.984-7.024-6.916z"/><path d="m146.748 6.975c-5.032 0-9.111 3.468-9.111 7.741 0 4.275 4.079 7.741 9.111 7.741 5.031 0 9.11-3.466 9.11-7.741 0-4.273-4.079-7.741-9.11-7.741zm2.499 10.644c0 2.197-1.299 3.102-2.547 3.102-1.251 0-2.555-.905-2.555-3.102 0-.835.002-2.974.002-2.974s.003-2.038.003-2.875c0-2.184 1.306-3.085 2.547-3.085 1.246 0 2.548.901 2.548 3.085 0 .837 0 2.381.007 2.936 0 .033-.005 2.083-.005 2.913z"/><path d="m129.455 8.599c-.994-.56-2.048-1.099-3.526-1.228-4.492-.396-7.928 3.577-7.928 7.216 0 4.797 3.706 6.573 4.266 6.835 2.098.977 4.789.979 7.175-.519 0 .129.003.797.003.797h6.162v-20.725h-6.152zm.045 6.14s.003 1.561.003 2.446c0 2.129-1.476 2.686-2.447 2.686-.988 0-2.441-.557-2.441-2.686 0-.731.002-2.452.002-2.452s-.002-1.75-.002-2.456c0-2.134 1.453-2.676 2.444-2.676.968 0 2.441.542 2.441 2.676z"/><path d="m95.95 14.867c0-4.273-4.129-7.814-9.199-7.814-5.067 0-9.179 3.463-9.179 7.738 0 4.273 4.112 7.739 9.179 7.739 4.21 0 7.758-2.399 8.843-5.655l-6.212.005s.005.06.005.835c0 2.522-1.657 3.082-2.581 3.082-.918 0-2.605-.56-2.605-3.082 0-.754.005-2.845.005-2.845s11.744.005 11.744-.003zm-11.335-4.848c.486-.85 1.382-1.256 2.191-1.258.813.002 1.708.408 2.192 1.258.399.689.416 1.496.409 2.702h-5.204c-.01-1.206.016-2.013.412-2.702z"/><path d="m37.494.967h6.248v4.237h-6.248z"/></g></svg>