<?xml version="1.0" encoding="UTF-8" standalone="no"?><!DOCTYPE svg PUBLIC "-//W3C//DTD SVG 1.1//EN" "http://www.w3.org/Graphics/SVG/1.1/DTD/svg11.dtd"><svg width="100%" height="100%" viewBox="0 0 600 107" version="1.1" xmlns="http://www.w3.org/2000/svg" xmlns:xlink="http://www.w3.org/1999/xlink" xml:space="preserve" xmlns:serif="http://www.serif.com/" style="fill-rule:evenodd;clip-rule:evenodd;stroke-linejoin:round;stroke-miterlimit:2;"><g id="nintendo_64"><path id="polygon3518" d="M164.774,78.281l22.535,0l0,-50.073l-15.246,-0l-0,28.713l-0.132,-0l-10.053,-28.713l-22.533,-0l0,50.073l15.238,0l0,-28.903l0.137,-0l10.054,28.903Z" style="fill:#fff;fill-rule:nonzero;"/><path id="polygon3520" d="M249.787,78.281l22.533,0l0,-50.073l-15.236,-0l0,28.713l-0.138,-0l-10.054,-28.713l-22.531,-0l0,50.073l15.245,0l-0,-28.903l0.132,-0l10.049,28.903Z" style="fill:#fff;fill-rule:nonzero;"/><path id="polygon3522" d="M396.174,78.281l22.537,0l0,-50.073l-15.242,-0l-0,28.713l-0.136,-0l-10.053,-28.713l-22.534,-0l0,50.073l15.241,0l-0,-28.903l0.133,-0l10.054,28.903Z" style="fill:#fff;fill-rule:nonzero;"/><rect id="polygon3524" x="196.514" y="28.208" width="18.796" height="50.073" style="fill:#fff;fill-rule:nonzero;"/><path id="polygon3526" d="M289.716,41.81l-11.944,-0l0,-13.602l42.72,-0l-0,13.602l-11.985,-0l-0,36.471l-18.791,0l0,-36.471Z" style="fill:#fff;fill-rule:nonzero;"/><path id="polygon3536" d="M326.042,28.194l37.17,0l0,13.245l-18.673,-0l0,5.236l17.193,-0l0,12.838l-17.193,-0l0,5.617l19.269,0l-0,13.134l-37.766,0l-0,-50.07Z" style="fill:#fff;fill-rule:nonzero;"/><path id="path3528" d="M426.8,28.208l22.267,-0c18.992,-0 25.037,10.749 25.037,25.59c0,15.12 -9.327,24.484 -23.913,24.484l-23.391,0l-0,-50.074Zm18.399,38.696l1.832,-0c3.022,-0 5.048,-0.927 6.232,-2.938c1.248,-2.082 1.387,-5.874 1.387,-10.723c0,-4.854 -0.142,-8.638 -1.387,-10.724c-1.184,-2.013 -3.21,-2.94 -6.232,-2.94l-1.832,0l-0,27.325Z" style="fill:#fff;fill-rule:nonzero;"/><path id="path3530" d="M503.566,26.894c16.362,0 24.503,10.746 24.503,26.35c0,15.608 -8.143,26.356 -24.503,26.356c-16.364,0 -24.505,-10.748 -24.505,-26.356c-0,-15.604 8.138,-26.35 24.505,-26.35Zm0,40.016c2.886,-0 5.061,-1.419 5.061,-13.667c0,-11.973 -2.044,-13.664 -5.061,-13.664c-3.02,0 -5.061,1.691 -5.061,13.664c0,12.249 2.17,13.667 5.061,13.667Z" style="fill:#fff;fill-rule:nonzero;"/><path id="polygon3566" d="M164.774,78.281l22.535,0l0,-50.073l-15.246,-0l-0,28.713l-0.132,-0l-10.053,-28.713l-22.533,-0l0,50.073l15.238,0l0,-28.903l0.137,-0l10.054,28.903Z" style="fill:#fff;fill-rule:nonzero;"/><path id="polygon3568" d="M249.787,78.281l22.533,0l0,-50.073l-15.236,-0l0,28.713l-0.138,-0l-10.054,-28.713l-22.531,-0l0,50.073l15.245,0l-0,-28.903l0.132,-0l10.049,28.903Z" style="fill:#fff;fill-rule:nonzero;"/><path id="polygon3570" d="M396.174,78.281l22.537,0l0,-50.073l-15.242,-0l-0,28.713l-0.136,-0l-10.053,-28.713l-22.534,-0l0,50.073l15.241,0l-0,-28.903l0.133,-0l10.054,28.903Z" style="fill:#fff;fill-rule:nonzero;"/><rect id="polygon3572" x="196.514" y="28.208" width="18.796" height="50.073" style="fill:#fff;fill-rule:nonzero;"/><path id="polygon3574" d="M289.716,41.81l-11.944,-0l0,-13.602l42.72,-0l-0,13.602l-11.985,-0l-0,36.471l-18.791,0l0,-36.471Z" style="fill:#fff;fill-rule:nonzero;"/><path id="polygon3576" d="M326.042,28.194l37.17,0l0,13.245l-18.673,-0l0,5.236l17.193,-0l0,12.838l-17.193,-0l0,5.617l19.269,0l-0,13.134l-37.766,0l-0,-50.07Z" style="fill:#fff;fill-rule:nonzero;"/><path id="path3532" d="M561.685,21.55c-1,-0.088 -1.972,-0.047 -3.329,0.015c-7.929,0.366 -11.135,3.745 -12.222,7.562l0.192,0c1.974,-1.725 4.414,-2.531 7.683,-2.531c6.289,0 12.033,4.573 12.033,13.152c-0,8.209 -6.31,14.602 -14.78,14.602c-11.157,0 -16.011,-8.52 -16.011,-17.657c0,-7.422 2.634,-13.708 6.956,-17.763c4.113,-3.811 9.418,-5.736 15.91,-5.884c1.719,-0.099 2.74,-0 3.568,0.075l-0,8.429Zm-10.564,24.727c2.571,-0 4.13,-2.626 4.13,-5.981c-0.021,-2.831 -1.317,-5.917 -4.765,-5.917c-2.106,0 -3.747,1.335 -4.367,2.947c-0.241,0.494 -0.331,1.198 -0.331,2.392c0.22,3.2 1.763,6.56 5.269,6.56l0.064,-0.001Z" style="fill:#fff;fill-rule:nonzero;"/><path id="path3534" d="M585.701,53.676l0,-8.986l-16.704,-0l-0,-7.18l13.412,-23.899l13.346,-0l-0,22.847l4.245,-0l-0,8.232l-4.245,-0l-0,8.986l-10.054,-0Zm0,-17.218l0,-6.885c0,-2.545 0.153,-5.189 0.283,-7.975l-0.219,0c-1.241,2.704 -2.322,5.279 -3.734,8.072l-3.282,6.669l-0.035,0.121l6.987,-0.002Z" style="fill:#fff;fill-rule:nonzero;"/><g><path id="polygon3542" d="M0,21.343l-0,62.855c-0,0 13.598,5.711 13.598,5.711l-0,-33.064l0.005,-0.095l0.015,-0.093l0.024,-0.089l0.041,-0.103l0.053,-0.096l0.064,-0.089l0.074,-0.08l0.084,-0.071l0.093,-0.06l0.084,-0.041l0.088,-0.033l0.102,-0.025l0.104,-0.014l0.111,-0l0.11,0.013l0.107,0.027l0.102,0.039l0.096,0.052l0.09,0.063l0.082,0.074l0.073,0.085l0.053,0.078l0.027,0.05l14.43,28.015l0.006,0.011l8.034,15.599c0,0 14.749,6.24 14.749,6.24l-0,-64.705l-14.502,-5.555l-0,32.547c-0,0.409 -0.279,0.766 -0.676,0.864c-0.068,0.017 -0.137,0.026 -0.205,0.027l-0.018,-0c-0.321,-0.003 -0.623,-0.18 -0.779,-0.473l-22.462,-42.32l-13.857,-5.344Zm106.777,-0l-13.597,5.244l-0,40.486c-0,0.389 -0.253,0.733 -0.624,0.85c-0.081,0.025 -0.163,0.039 -0.245,0.041l-0.018,-0c-0.287,0.001 -0.564,-0.136 -0.734,-0.38l-22.217,-31.755l-15.061,5.768l-0,64.705l14.502,-6.135l-0,-38.432l0.006,-0.106l0.018,-0.104l0.031,-0.099l0.041,-0.094l0.051,-0.088l0.066,-0.088l0.078,-0.081l0.085,-0.068l0.09,-0.056l0.096,-0.045l0.1,-0.033l0.105,-0.021l0.112,-0.008l0.112,0.005l0.115,0.021l0.078,0.023l0.097,0.041l0.086,0.048l0.058,0.04l0.068,0.056l0.047,0.047c0.009,0.009 0.017,0.019 0.025,0.028c0.012,0.013 0.022,0.026 0.033,0.04l22.197,28.969l14.199,-5.964l0,-62.855Zm-91.398,68.538l12.314,-5.453l-12.314,-23.907l0,29.36Zm74.283,-0.595l-14.798,-5.685c-0,-0 -4.3,-6.027 -4.3,-6.027c0,0 0,-13.212 0,-13.212l19.098,24.924Zm-53.447,-54.332l-0,30.056c-0,-0 -20.469,-38.564 -20.469,-38.564c0,-0 13.682,-5.278 13.682,-5.278l6.787,13.786Zm55.183,-8.367l-14.229,-5.488l-7.877,8.877c-0.025,0.039 -0.053,0.077 -0.085,0.112l-2.342,2.628l1.701,0.652l1.426,0.547c0.181,0.069 0.329,0.192 0.429,0.347l20.977,29.983l-0,-37.658Zm-50.211,7.553l12.203,-4.677l13.793,5.284l-13.793,5.283l-13.792,-5.283l1.589,-0.607Zm-10.313,-14.07l6.672,13.554l2.704,-1.036l11.861,-21.167l-13.475,-5.242l-7.762,13.891Zm34.211,11.963l2.566,-2.893l0,-22.753l-13.641,5.29l-11.159,19.915l10.22,-3.915l0.098,-0.031l0.099,-0.02l0.101,-0.008l0.102,0.004l0.1,0.015l0.099,0.026l0.038,0.014l11.377,4.356Zm-37.696,-11.988l-12.901,4.976l-12.901,-4.976l12.901,-4.963l12.901,4.963Zm52.001,-0.001l12.899,4.977l12.901,-4.976l-12.901,-4.963l-12.899,4.962Zm-38.685,-14.972l12.684,-4.885l12.685,4.901l-12.684,4.919l-12.685,-4.935Z" style="fill:#fff;fill-rule:nonzero;"/></g></g></svg>