<?xml version="1.0" encoding="UTF-8" standalone="no"?><!DOCTYPE svg PUBLIC "-//W3C//DTD SVG 1.1//EN" "http://www.w3.org/Graphics/SVG/1.1/DTD/svg11.dtd"><svg width="100%" height="100%" viewBox="0 0 600 64" version="1.1" xmlns="http://www.w3.org/2000/svg" xmlns:xlink="http://www.w3.org/1999/xlink" xml:space="preserve" xmlns:serif="http://www.serif.com/" style="fill-rule:evenodd;clip-rule:evenodd;stroke-linejoin:round;stroke-miterlimit:2;"><g id="nintendo_3ds_xl"><path d="M569.56,63.438l-14.07,-21.595l13.516,-20.756l-7.993,-0l-9.519,14.618l-9.519,-14.618l-7.907,-0l13.471,20.684l-14.106,21.667l8.002,-0l10.104,-15.526l10.112,15.526l7.909,-0Z" style="fill:#fff;fill-rule:nonzero;"/><path d="M573.866,21.087l-0,31.487c-0,-0 -0.039,10.864 10.858,10.864l15.276,-0l-0,-6.433l-14.763,-0c-0,-0 -4.462,-0.156 -4.462,-5.033l0,-30.885l-6.909,-0" style="fill:#fff;fill-rule:nonzero;"/><path d="M276.052,56.835c0,0.671 -0.549,1.214 -1.211,1.214l-23.091,-0c-0.674,-0 -1.206,-0.543 -1.206,-1.214l0,-16.696c0,-0.663 0.532,-1.201 1.206,-1.201l23.091,0c0.662,0 1.211,0.538 1.211,1.201l0,16.696Zm-1,-22.915l-23.513,-0c-3.406,-0 -6.172,2.785 -6.172,6.182l0,16.777c0,3.387 2.766,6.177 6.172,6.177l23.513,0c3.409,0 6.177,-2.79 6.177,-6.177l0,-16.777c0,-3.397 -2.768,-6.182 -6.177,-6.182" style="fill:#fff;fill-rule:nonzero;"/><path d="M5.395,8.833l-0,21.586l-5.395,0l-0,-29.142l4.606,0l21.846,21.216l-0,-21.216l5.327,0l0,29.142l-4.216,0l-22.168,-21.586Z" style="fill:#fff;fill-rule:nonzero;"/><path d="M59.476,8.833l0,21.586l-5.4,0l0,-29.142l4.606,0l21.84,21.216l0,-21.216l5.331,0l-0,29.142l-4.211,0l-22.166,-21.586Z" style="fill:#fff;fill-rule:nonzero;"/><path d="M171.54,8.833l-0,21.586l-5.392,0l0,-29.142l4.604,0l21.84,21.216l-0,-21.216l5.333,0l-0,29.142l-4.208,0l-22.177,-21.586Z" style="fill:#fff;fill-rule:nonzero;"/><path d="M40.221,1.277l5.394,0l0,29.142l-5.394,0l-0,-29.142Z" style="fill:#fff;fill-rule:nonzero;"/><path d="M91.962,1.277l31.607,0l-0,5.019l-13.001,-0l0,24.123l-5.603,0l-0,-24.123l-13.003,-0l-0,-5.019Z" style="fill:#fff;fill-rule:nonzero;"/><path d="M129.687,1.277l28.454,0l0,5.019l-23.112,-0l-0,6.533l17.882,0l0,5.005l-17.882,-0l-0,7.561l23.112,-0l0,5.024l-28.454,0l0,-29.142Z" style="fill:#fff;fill-rule:nonzero;"/><path d="M227.908,25.395l-16.562,-0l-0,-19.099l16.562,-0c5.18,-0 7.027,5.143 7.027,9.541c-0,4.414 -1.847,9.558 -7.027,9.558m8.853,-19.854c-2.105,-2.785 -5.235,-4.264 -9.003,-4.264l-21.612,0l0,29.142l21.612,0c3.768,0 6.898,-1.476 9.003,-4.255c1.975,-2.59 3.019,-6.158 3.019,-10.327c0,-4.147 -1.044,-7.723 -3.019,-10.296" style="fill:#fff;fill-rule:nonzero;"/><path d="M276.052,24.197c0,0.658 -0.549,1.204 -1.211,1.204l-23.091,-0c-0.674,-0 -1.206,-0.546 -1.206,-1.204l0,-16.704c0,-0.657 0.532,-1.192 1.206,-1.192l23.091,0c0.662,0 1.211,0.535 1.211,1.192l0,16.704Zm-1,-22.92l-23.513,0c-3.406,0 -6.172,2.788 -6.172,6.183l0,16.785c0,3.381 2.766,6.174 6.172,6.174l23.513,0c3.409,0 6.177,-2.793 6.177,-6.174l0,-16.785c0,-3.395 -2.768,-6.183 -6.177,-6.183" style="fill:#fff;fill-rule:nonzero;"/><path d="M450.314,50.827c5.609,2.209 17.406,3.991 26.624,3.991c10.085,0 14.273,-3.456 14.273,-7.798c0,-3.907 -3.893,-6.191 -15.036,-10.268c-14.883,-5.509 -25.811,-9.853 -25.811,-19.628c0,-10.129 13.145,-16.086 33.194,-16.086c10.75,-0 14.449,0.685 21.286,1.932l0.047,9.614c-6.714,-1.281 -12.655,-3.462 -21.898,-3.462c-9.901,0 -14.131,3.136 -14.131,6.381c-0,4.704 6.508,6.945 17.913,11.009c15.863,5.681 24.697,10.065 24.697,19.639c0,9.857 -11.056,16.967 -35.993,16.967c-10.246,-0 -17.309,-0.672 -25.165,-1.933l-0,-10.358Z" style="fill:#fff;fill-rule:nonzero;"/><path d="M397.238,9.535l-11.873,-0l0,44.919l11.873,-0c18.227,-0 29.707,-7.782 29.707,-22.372c0,-14.574 -11.48,-22.547 -29.707,-22.547m31.86,49.11c-5.871,2.648 -16.974,4.347 -26.683,4.347l-37.101,0l-0,-61.824l37.101,0c9.709,0 20.812,1.716 26.689,4.364c14.284,6.448 18.957,16.772 18.957,26.55c-0,9.795 -4.629,20.102 -18.963,26.563" style="fill:#fff;fill-rule:nonzero;"/><path d="M339.316,29.16c-0,0 17.306,-2.762 17.306,-13.535c-0,-10.538 -18.431,-14.849 -38.038,-14.849c-17.69,-0 -29.326,2.164 -29.326,2.164l0,9.572c8.032,-1.944 15.716,-3.601 26.188,-3.601c11.234,-0 19.806,3.35 19.806,8.093c0,5.706 -8.474,8.965 -26.735,8.965l-8.389,-0l0,8.614l7.801,-0c19.222,-0 30.159,2.888 30.159,9.948c-0,6.296 -9.77,10.12 -21.946,10.12c-10.625,0 -20.336,-2.256 -28.22,-4.433l-0,10.312c3.782,0.649 13.83,2.663 32.528,2.663c20.726,-0 38.745,-6.659 38.745,-18.403c-0,-9.845 -12.485,-15.63 -19.879,-15.63" style="fill:#fff;fill-rule:nonzero;"/></g></svg>