<svg clip-rule="evenodd" fill-rule="evenodd" stroke-linejoin="round" stroke-miterlimit="2" viewBox="0 0 600 262" xmlns="http://www.w3.org/2000/svg"><g fill="#fff"><path d="m29.29.21c-5.695 0-11.187 4.678-12.204 10.373v.61l-.204-.203v.814l-.203.203v.814l-.203.203v.407l-.407 1.22v.814l-.204.61-.407 1.627-.203 1.017-.203.814-.407 1.83-.204 1.017-.203.814v.61l-.814 3.255-.203.61-.203.814v.203l-.204.203v.611l-.203.406v.407l-.204.204v.406c-.203 2.441.204 5.899 1.017 6.509 1.017 5.492 19.527 31.121 18.917 34.985.203 3.661-2.034 15.255-2.034 15.255-.61 3.865-3.255 6.916-7.119 6.916-3.865 0-6.509-3.051-5.899-6.916l3.458-19.119h-13.831l-4.475 26.442c-1.017 5.492 2.644 9.763 8.136 9.763h19.73c5.492 0 10.577-4.271 11.594-9.763 0 0 5.085-24.815 5.085-26.646 0-1.83-.611-2.034-.611-2.034 0-2.034-16.475-29.086-18.102-30.103-.814-.407-1.221-3.051-1.424-4.678 0-1.628 2.237-12.408 2.237-12.408.611-3.865 4.272-6.916 8.136-6.916 3.865 0 5.492 3.051 4.882 6.916l-3.051 17.086h13.831l4.882-25.832c1.22-5.492-2.441-10.17-8.136-10.17h-20.34zm37.832 0-16.475 94.785c-1.017 5.492 2.644 9.763 8.136 9.763h19.73c5.492 0 10.78-4.271 11.797-9.763l17.493-94.785h-12.408l-16.679 92.141c-.203 1.423-1.627 2.44-2.847 2.44h-9.764c-1.423 0-2.237-1.22-2.034-2.44l16.272-92.141h-13.221zm47.19 0-19.934 104.548h13.425l9.153-47.393h16.679c5.491 0 10.576-4.271 11.594-9.763l7.119-37.222c1.017-5.695-2.645-10.374-8.137-10.374h-29.899v.204zm47.189 0-20.747 104.548h29.696l2.034-13.018h-14.645l5.899-35.392h14.645l2.034-10.983h-14.645l6.509-32.341h14.848l2.034-12.814h-27.662zm35.391 0-19.729 104.548h13.221l8.949-47.393h9.357c1.22 1.221 1.424 3.255 1.627 4.272.203 1.627.407 3.458.407 5.085-.204 1.627-7.119 38.036-7.119 38.036h13.221s7.322-39.663 7.322-40.273c0-.611 0-2.645-.813-3.865-.407-.814-1.221-2.441-2.238-3.051-1.83-1.221-3.864-2.034-3.864-2.034h-1.017c3.864-1.424 10.78-3.865 11.593-7.933l7.119-37.222c1.017-5.695-2.644-10.374-8.136-10.374h-29.9v.204zm70.377 0-19.933 104.548h15.052l12.204-60.614 4.881 60.614h13.221l19.934-104.548h-15.052l-10.373 54.715-6.713-54.715h-13.221zm52.274 0-19.933 104.548h13.221l19.933-104.548h-13.221zm20.137 0-19.933 104.548h15.255l12.204-60.614 4.882 60.614h13.221l19.73-104.548h-15.255l-10.171 54.715-6.712-54.715h-13.221zm51.054 0-2.441 13.017h8.136l-16.272 91.531h15.052l16.475-91.531h7.933l2.034-13.017h-30.917zm36.205 0-20.543 104.548h29.696l2.034-13.018h-14.645l6.102-35.392h14.645l2.034-10.983h-14.645l6.306-32.341h14.645l2.034-13.018h-27.663v.204zm33.358 0-19.933 104.548h15.255l12.204-60.614 4.882 60.614h13.221l19.933-104.548h-15.255l-10.17 54.715-6.916-54.715h-13.221zm52.478 0-19.934 104.548h30.104c5.491 0 10.78-4.271 11.797-9.763l15.865-84.412c1.017-5.695-2.644-10.373-8.136-10.373h-29.696zm56.342 0c-5.695 0-10.984 4.678-12.001 10.373l-14.645 84.412c-1.017 5.492 2.644 9.763 7.933 9.763h21.764c5.492 0 10.78-4.271 11.797-9.763l15.865-84.412c1.017-5.695-2.644-10.373-8.136-10.373h-22.577zm-45.155 12h6.102c3.864 0 6.509 3.051 5.898 6.916l-13.017 68.546c-.611 3.865-4.475 7.119-8.34 7.119h-6.102zm52.477 0h.814c3.864 0 6.509 3.051 5.695 6.916l-12.204 68.546c-.61 3.865-4.271 7.119-8.136 7.119s-5.492-3.254-4.882-7.119l12.204-68.343 2.441-4.881.204-.204.406-.813.407-.204.407-.406.814-.407.203-.204 1.22-.61.204-.203.407-.204-1.017 1.221h.406zm-449.313.407h6.305c1.424 0 4.272 3.255 4.068 4.678l-5.492 25.832c-.203 1.424-2.034 4.475-3.457 4.475h-8.136l-.204-.203h-.813v-.204h-.204.814-.204l-.203-.203h-.203l-.407-.407v-.203l-.407-.407v-.407l-.203-.203v-.407l-.204-.203v-.814l6.102-31.527c1.424.61 2.034.203 2.848.203zm81.971 0h6.508c1.424 0 4.475 3.255 4.068 4.678l-5.491 25.629c-.204 1.424-3.662 4.475-4.882 4.475h-5.695c-1.221 0-2.034-.814-2.034-1.831v-.61l6.102-31.527.61-.61h.203l.407-.407h.204l.203-.204h.203l.204-.203h.203zm-209.097 101.091v34.171h587.219v-34.171h-587.219zm431.617 3.661h5.289c1.22 0 2.034 1.017 1.831 2.237l-1.221 5.696h-2.847l.61-3.865c.203-.814-.407-1.627-1.221-1.627-.813 0-1.627.61-1.83 1.627l-.611 2.848c0 .203.204 1.017.407 1.017.407.203 4.068 6.305 4.068 6.712 0 .203.204.407.204.407-.204.813-1.221 5.898-1.221 5.898-.203 1.221-1.424 2.238-2.644 2.238h-4.271c-1.221 0-2.034-1.017-1.831-2.238l1.017-5.898h3.051l-.814 4.271c-.203.814.407 1.627 1.221 1.627.813 0 1.627-.813 1.83-1.627l.611-3.458c-.611-1.424-4.272-6.509-4.475-7.729-.204-.203-.204-.814-.204-1.424s.814-4.475.814-4.475h.203v-.61l.204-.203v-.204l.203-.203v-.204l.204-.203v-.203l.406-.407v-.204h.204l.61-.61v-.203h.203l.407-.407h.204l.203-.203h.203l.204-.204h.203zm23.798 0h3.662l.61 8.746 4.678-8.746h3.661l-7.526 13.424-1.83 9.764h-3.255l1.628-10.577zm33.562 0h5.288c1.22 0 2.034 1.017 1.831 2.237l-1.221 5.696h-2.847l.61-3.865c.203-.814-.407-1.627-1.221-1.627-.813 0-1.627.61-1.83 1.627l-.61 2.848c-.204.203.203 1.017.406 1.017.407.203 4.068 6.305 4.068 6.712.204.203.204.407.204.407-.204.813-1.017 5.898-1.017 5.898-.204 1.221-1.424 2.238-2.644 2.238h-4.475c-1.221 0-2.034-1.017-1.831-2.238l1.017-5.898h3.051l-.813 4.271c-.204.814.406 1.627 1.22 1.627s1.627-.813 1.831-1.627l.61-3.458c-.61-1.424-4.272-6.509-4.475-7.729-.203-.203-.203-.814-.203-1.424s.813-4.475.813-4.475l.204-.203v-.407l.203-.203v-.204l.203-.203v-.204l.204-.203v-.203l.407-.407v-.204h.203l1.22-1.22h.204l.203-.203h.204l.203-.204h.203zm24.001 0h6.916l-.611 2.847h-1.83l-3.661 20.341h-3.255l3.661-20.341h-1.627zm27.052 0h6.102l-.61 2.847h-3.254l-1.424 7.323h3.254l-.61 2.441h-3.254l-1.424 7.729h3.254l-.406 2.848h-6.509zm25.426 0h3.864l.61 13.424 5.899-13.221 3.661-.203-4.068 23.188h-2.847l1.83-12.204-5.085 12.204h-2.034l-.61-12.611-2.237 12.611h-3.458zm-552.642.813h6.102l-.406 2.848h-3.458l-1.221 7.323h3.255l-.407 2.44h-3.458l-1.22 7.73h3.254l-.61 2.847h-6.509zm28.273 0h2.848l1.627 12.205 2.237-12.205h3.458l-4.475 23.392h-2.847l-1.221-13.628-2.644 13.424h-3.458zm30.917 0h6.712l-.407 2.848h-1.83l-3.661 20.34h-3.255l3.661-20.34h-1.83zm29.9 0h6.102l-.61 2.848h-3.255l-1.22 7.323h3.254l-.406 2.44h-3.255l-1.22 7.73h3.254l-.407 2.847h-6.508zm29.086 0h6.509c1.221 0 2.034 1.017 1.831 2.441l-1.627 8.136c-.204.814-1.831 1.628-2.645 2.034h.611v.204h.813l.204.203h-.407.203v.204h.407v.203h.203c.204.203.204 1.017.204 1.22 0 .204-1.627 9.153-1.627 9.153h-3.458s1.627-8.136 1.627-8.339c0-.407 0-.814-.203-1.22 0-.204 0-.611-.407-1.017h-2.034l-2.034 10.576h-3.051zm29.494 0h6.915l-.61 2.848h-1.831l-3.661 20.34h-3.254l3.661-20.34h-1.831zm34.171 0h3.865l-1.221 23.392h-3.864l.61-5.289h-2.441l-2.034 5.289h-3.458zm27.459 0h3.051l-4.475 23.188h-3.051zm26.442 0h2.848l1.627 12.205 2.238-12.205h3.254l-4.271 23.392h-3.051l-1.017-13.425-2.645 13.425h-3.457zm34.172 0h3.864l.611 13.425 5.898-13.425h3.661l-3.864 23.188h-2.848l1.831-12.204-5.085 12.204h-2.034l-.61-12.611-2.238 12.611h-3.254zm37.222 0h6.102l-.407 2.848h-3.254l-1.424 7.119h3.255l-.407 2.441h-3.255l-1.423 7.729h3.254l-.61 2.848h-6.509zm29.9 0h2.848l1.627 12.205 2.237-12.205h3.255l-4.272 23.188h-2.847l-1.221-13.424-2.644 13.424h-3.458zm30.51 0h6.916l-.61 2.848h-1.831l-3.661 20.34h-3.254l3.661-20.34h-1.831zm-246.522 2.848c-.203 0-.203 0-.407.203l-1.424 6.916v.204c0 .203.204.406.407.406h1.221c.406 0 1.017-.61 1.22-1.017l1.22-5.695c0-.407-.61-1.017-.813-1.017zm60.817 6.916-2.237 5.898h1.627z" fill-rule="nonzero"/><path d="m263.901 159.003h-263.901v102.262h263.901zm-93.396 86.799c0 2.062-1.65 3.917-3.711 3.917h-3.918c-2.061 0-3.711-1.855-3.711-3.917v-8.041c0-2.062 1.65-3.917 3.711-3.917h3.918c2.061 0 3.711 1.855 3.711 3.917 0 0-.035 1.625 0 2.062h-4.536c0-2.062 0-2.68-.928-2.68s-.928.618-.928 2.68v3.711c0 2.062 0 2.68.934 2.68.922 0 .922-.618.922-2.68h4.536zm63.089-11.958v3.505h-2.681v12.164h-4.948v-12.164h-2.68v-3.505zm-18.556 0 2.68 7.834v-7.834h4.536v15.669h-4.536l-3.092-8.453v8.453h-4.536v-15.669zm-5.979 0v3.505h-4.33v2.474h3.711v3.505h-3.711v2.68h4.33v3.505h-9.278v-15.669zm-21.03 0 2.171 8.041 2.159-8.041h5.979v15.669h-4.536v-9.484l-2.68 9.484h-1.856l-2.68-9.278v9.278h-4.536v-15.669zm-11.339 9.484v2.68h4.33v3.505h-9.278v-15.669h9.278v3.505h-4.33v2.474h3.711v3.505zm-26.39-2.268v8.453h-4.536v-15.669h4.948l2.68 7.834v-7.834h4.536v15.669h-4.536zm-15.257-7.216h6.804l3.092 15.669h-4.948l-.412-2.886h-2.268l-.412 2.886h-4.948zm-99.375 0 1.955 8.041 1.962-8.041h6.185v15.669h-4.535v-9.484l-2.681 9.484h-1.855l-2.68-9.484v9.484h-4.536v-15.669zm20.823 0v3.505h-4.329v2.474h3.711v3.505h-3.711v2.68h4.329v3.505h-9.277v-15.669zm1.237 15.669v-15.669h5.979c5.361 0 5.361 3.711 5.361 3.711v8.247s0 3.711-4.124 3.711zm17.731-15.669v15.669h-4.948v-15.669zm4.124 0h6.803l3.093 15.669h-4.948l-.412-2.886h-2.268l-.413 2.886h-4.948zm20.411 9.484v2.68h4.329v3.505h-9.277v-15.669h9.277v3.505h-4.329v2.474h3.711v3.505zm10.308-9.484 2.681 7.834v-7.834h4.535v15.669h-4.535l-3.093-8.453v8.453h-4.536v-15.669zm13.608 15.669h-4.948v-15.669h4.948v5.979h2.062v-5.979h4.948v15.669h-4.948v-6.185h-2.062zm-59.378-9.69c.008-2.066-.412-2.474-2.062-2.474v8.659c1.65 0 2.062-.412 2.062-2.474zm73.191 3.299h1.444l-.72-5.979zm-55.46 0h1.443l-.728-5.979zm151.537-18.968v5.773h-204.936v-5.773zm-54.842-19.174c0 5.154 3.092 6.803 6.185 6.803h10.721c3.093 0 6.185-1.649 6.185-6.803v-31.957h9.072v35.462c0 6.185-2.681 11.545-9.897 11.545h-21.441c-7.217 0-9.897-5.36-9.897-11.545v-35.462h9.072zm-13.195-31.957h-30.514c-5.154 0-9.071 6.391-9.071 11.546v4.948c0 5.154 3.917 11.545 9.071 11.545h17.319c4.123 0 4.948 2.887 4.948 4.949 0 2.061-.825 4.948-4.948 4.948h-26.39v9.071h30.513c5.155 0 9.072-6.391 9.072-11.545v-4.948c0-5.155-3.917-11.546-9.072-11.546h-17.318c-4.124 0-4.948-2.887-4.948-4.948 0-2.062.824-4.948 4.948-4.948h26.39zm67.624 0h-4.948l-13.195 13.195v4.948h9.896v28.864h8.247zm-202.873 47.007 47.007-47.007h5.773v32.163l32.163-32.163h5.773v47.007h-8.247v-32.987l-32.988 32.987h-5.773v-32.987l-32.987 32.987z"/><g fill-rule="nonzero"><path d="m356.184 173.908v-.428c0-.856-.285-1.569-.856-2.14-.57-.523-1.283-.784-2.139-.784h-6.632c-.998 0-1.926.333-2.781.998-.808.618-1.308 1.403-1.498 2.354l-13.05 72.524v.356c0 .809.285 1.522.856 2.14.57.618 1.283.927 2.139.927h6.561c2.329 0 3.779-1.189 4.35-3.566l3.851-21.465h11.909l-4.849 27.242c-.523 2.614-1.854 4.801-3.994 6.56-2.139 1.759-4.564 2.639-7.274 2.639h-17.043c-2.52 0-4.659-.903-6.418-2.71s-2.639-3.97-2.639-6.489v-1.783l14.69-82.009c.523-2.662 1.831-4.873 3.923-6.632 2.139-1.759 4.54-2.639 7.202-2.639h17.329c2.472 0 4.588.904 6.347 2.71 1.806 1.807 2.71 3.994 2.71 6.561 0 .713-.048 1.26-.143 1.64l-4.564 25.53h-11.838z"/><path d="m387.847 249.855c1.045 0 1.973-.333 2.781-.998.808-.666 1.283-1.522 1.426-2.568l13.193-72.381c.047-.143.071-.286.071-.428 0-.856-.285-1.569-.856-2.14-.57-.523-1.283-.784-2.139-.784h-11.053l-14.477 79.299zm21.037-90.852c2.519 0 4.682.904 6.489 2.71 1.807 1.807 2.71 3.994 2.71 6.561 0 .285-.095.832-.285 1.64l-14.762 82.152c-.475 2.614-1.759 4.801-3.851 6.56s-4.492 2.639-7.202 2.639h-29.381l18.541-102.262z"/><path d="m465.577 203.93c1.046 0 1.973-.357 2.781-1.07.808-.665 1.284-1.497 1.426-2.496l4.849-26.456v-.428c0-.856-.285-1.569-.855-2.14-.618-.523-1.355-.784-2.211-.784h-9.841l-6.062 33.374zm.713 15.118c0-.808-.285-1.497-.856-2.068-.57-.57-1.26-.856-2.068-.856h-9.912l-7.987 45.141h-12.48l18.327-102.262h27.455c2.473 0 4.612.904 6.419 2.71 1.806 1.759 2.757 3.922 2.852 6.49 0 .237-.095.808-.285 1.711l-5.705 32.233c-.903 4.469-3.542 7.321-7.916 8.558 1.664.618 2.924 1.711 3.78 3.28.665 1.236.998 2.615.998 4.136l-.143 2.71-7.416 40.434h-12.551l7.488-41.86z"/><path d="m492.461 246.788c0 .809.286 1.522.856 2.14.571.618 1.284.927 2.139.927h6.561c2.33 0 3.78-1.189 4.35-3.566l13.05-72.381v-.428c0-.856-.285-1.569-.855-2.14-.571-.523-1.284-.784-2.14-.784h-6.632c-.998 0-1.925.333-2.781.998-.808.618-1.307 1.403-1.498 2.354l-13.05 72.524zm30.593-87.785c2.472 0 4.588.904 6.347 2.71 1.807 1.807 2.71 3.994 2.71 6.561 0 .713-.048 1.26-.143 1.64l-14.69 82.152c-.523 2.614-1.854 4.801-3.993 6.56-2.14 1.759-4.564 2.639-7.274 2.639h-17.044c-2.52 0-4.659-.903-6.418-2.71s-2.639-3.97-2.639-6.489v-1.783l14.691-82.009c.523-2.662 1.83-4.873 3.922-6.632 2.139-1.759 4.54-2.639 7.202-2.639z"/><path d="m549.654 196.656-11.482 64.609h-12.337l18.613-102.262h15.475l-1.569 73.666 24.674-73.666h16.972l-18.541 102.262h-12.337l11.338-63.824-20.751 63.824h-10.84z"/></g></g></svg>