<svg clip-rule="evenodd" fill-rule="evenodd" stroke-linejoin="round" stroke-miterlimit="2" viewBox="0 0 600 272" xmlns="http://www.w3.org/2000/svg"><g fill="#fff" fill-rule="nonzero"><path d="m206.116 100.643-31.884 124.895s-24.328-93.746-28.29-107.048c-3.958-13.311-12.131-19.145-23.693-19.145-11.568 0-19.738 5.834-23.69 19.145-3.967 13.302-28.323 107.048-28.323 107.048l-31.856-124.895h-38.38s36.838 133.248 41.847 148.678c3.917 12.047 13.134 21.899 26.827 21.899 15.656 0 22.971-11.411 26.357-21.899 3.353-10.412 27.218-98.433 27.218-98.433s23.85 88.021 27.221 98.433c3.356 10.488 10.698 21.899 26.345 21.899 13.684 0 22.917-9.852 26.821-21.899 4.997-15.43 41.841-148.678 41.841-148.678zm131.604 169.289h36.321v-117.538h-36.321zm-3.51-158.615c0 11.324 9.531 20.511 21.276 20.511 12.195 0 21.776-9.012 21.776-20.511 0-11.529-9.581-20.548-21.776-20.548-11.745 0-21.276 9.208-21.276 20.548m-70.32 158.615h36.306v-117.538h-36.306zm17.739-179.163c12.206 0 21.772 9.019 21.772 20.548 0 11.499-9.566 20.511-21.772 20.511-11.752 0-21.294-9.187-21.294-20.511 0-11.34 9.542-20.548 21.294-20.548"/><path d="m576.105 90.768h-20.382v63.196c0 30.493-17.609 46.947-45.947 46.947-28.332 0-45.941-16.454-45.941-46.947v-63.196h-20.382c-14.894 0-23.901 9.007-23.901 23.895l.012 77.274c0 22.42 11.746 34.169 34.16 34.169h112.098c22.417 0 34.166-11.749 34.166-34.169l.012-77.274c0-14.888-9.009-23.895-23.895-23.895m-66.329 89.923c13.588 0 23.841-10.584 23.841-27.233v-62.69h-47.669v62.69c0 16.649 10.24 27.233 23.828 27.233"/><path d="m206.116 100.643-31.884 124.895s-24.328-93.746-28.29-107.048c-3.958-13.311-12.131-19.145-23.693-19.145-11.568 0-19.738 5.834-23.69 19.145-3.967 13.302-28.323 107.048-28.323 107.048l-31.856-124.895h-38.38s36.838 133.248 41.847 148.678c3.917 12.047 13.134 21.899 26.827 21.899 15.656 0 22.971-11.411 26.357-21.899 3.353-10.412 27.218-98.433 27.218-98.433s23.85 88.021 27.221 98.433c3.356 10.488 10.698 21.899 26.345 21.899 13.684 0 22.917-9.852 26.821-21.899 4.997-15.43 41.841-148.678 41.841-148.678zm131.604 169.289h36.321v-117.538h-36.321zm-3.51-158.615c0 11.324 9.531 20.511 21.276 20.511 12.195 0 21.776-9.012 21.776-20.511 0-11.529-9.581-20.548-21.776-20.548-11.745 0-21.276 9.208-21.276 20.548m-70.32 158.615h36.306v-117.538h-36.306zm17.739-179.163c12.206 0 21.772 9.019 21.772 20.548 0 11.499-9.566 20.511-21.772 20.511-11.752 0-21.294-9.187-21.294-20.511 0-11.34 9.542-20.548 21.294-20.548"/><path d="m576.105 90.768h-20.382v63.196c0 30.493-17.609 46.947-45.947 46.947-28.332 0-45.941-16.454-45.941-46.947v-63.196h-20.382c-14.894 0-23.901 9.007-23.901 23.895l.012 77.274c0 22.42 11.746 34.169 34.16 34.169h112.098c22.417 0 34.166-11.749 34.166-34.169l.012-77.274c0-14.888-9.009-23.895-23.895-23.895m-66.329 89.923c13.588 0 23.841-10.584 23.841-27.233v-62.69h-47.669v62.69c0 16.649 10.24 27.233 23.828 27.233"/><path d="m253.264 63.625h-214.693c-18.343.063-29.491-12.249-29.491-27.351 0-15.107 11.219-27.319 29.491-27.352h214.693c18.272.033 29.486 12.245 29.486 27.352 0 15.102-11.144 27.414-29.486 27.351m.104-63.625h-214.901c-23.011-.054-38.467 16.49-38.467 36.324 0 19.829 15.418 36.182 38.5 36.19h214.834c23.078-.008 38.5-16.361 38.5-36.19 0-19.834-15.459-36.378-38.466-36.324m-104.826 34.027c.802-1.4 2.276-2.069 3.61-2.073 1.337.004 2.812.673 3.609 2.073.656 1.134.685 2.463.673 4.448h-8.569c-.017-1.985.025-3.314.677-4.448m18.666 7.983c0-7.036-6.799-12.868-15.148-12.868-8.344 0-15.115 5.703-15.115 12.743 0 7.037 6.771 12.744 15.115 12.744 6.933 0 12.777-3.95 14.563-9.313l-10.231.009s.009.099.009 1.374c0 4.154-2.729 5.076-4.249 5.076-1.512 0-4.291-.922-4.291-5.076 0-1.242.008-4.685.008-4.685s19.339.008 19.339-.004m21.487-12.49c-3.397.096-6.222 1.549-8.191 3.423-.008-.561 0-2.385 0-2.385l-10.184.005-.005 22.699h10.189s-.008-13.944-.008-14.911c0-1.978 2.077-4.179 4.872-4.179 2.8 0 4.69 2.201 4.69 4.179v14.911h10.201s-.004-10.754 0-12.353c.058-8.988-7.73-11.501-11.564-11.389m-83.425 0c-3.394.096-6.223 1.549-8.187 3.423-.009-.561 0-2.385 0-2.385l-10.202.005.009 22.699h10.193s-.009-13.944-.009-14.911c0-1.978 2.077-4.179 4.873-4.179 2.795 0 4.689 2.201 4.689 4.179v14.911h10.201s-.012-10.754 0-12.353c.054-8.988-7.734-11.501-11.567-11.389m117.19 12.278s.004 2.571.004 4.029c0 3.506-2.43 4.424-4.029 4.424-1.628 0-4.021-.918-4.021-4.424 0-1.204.005-4.037.005-4.037s-.005-2.883-.005-4.046c0-3.514 2.393-4.407 4.025-4.407 1.595 0 4.021.893 4.021 4.407zm-.075-10.11c-1.636-.922-3.372-1.811-5.807-2.023-7.397-.652-13.054 5.89-13.054 11.884 0 7.9 6.101 10.824 7.023 11.256 3.456 1.608 7.888 1.612 11.817-.855 0 .211.005 1.312.005 1.312h10.147v-34.13h-10.131zm32.594 14.854c0 3.617-2.139 5.108-4.195 5.108-2.061 0-4.208-1.491-4.208-5.108 0-1.375.004-4.898.004-4.898s.004-3.356.004-4.735c0-3.597 2.152-5.08 4.195-5.08 2.052 0 4.196 1.483 4.196 5.08 0 1.379 0 3.921.012 4.835 0 .054-.008 3.431-.008 4.798m-4.116-17.529c-8.287 0-15.003 5.711-15.003 12.748 0 7.04 6.716 12.747 15.003 12.747 8.286 0 15.002-5.707 15.002-12.747 0-7.037-6.716-12.748-15.002-12.748m-179.919-2.916h10.289v-6.978h-10.289zm.025 27.169h10.264v-22.699h-10.264zm67.334-22.658v-3.377h-5.561v-4.589h-10.272l.008 4.593-5.587.005v3.368h5.583l-.008 22.658h10.284l-.008-22.658zm-83.753 12.328-14.717-23.804h-10.633l-.004 34.134h10.571v-23.804l14.791 23.804h10.534v-34.134h-10.551z"/></g></svg>