<svg clip-rule="evenodd" fill-rule="evenodd" stroke-linejoin="round" stroke-miterlimit="2" viewBox="0 0 600 136" xmlns="http://www.w3.org/2000/svg"><g fill="#fff"><path d="m228.326 66.69-26.579 46.2h33.248v-10.476h-14.822l13.713-22.956 18.567 33.432h13.787l-26.817-46.2z"/><path d="m452.638 102.414v-35.72h-12.417v34.693c0 8.731 2.92 11.507 11.995 11.507h27.829c9.097 0 12.002-2.776 12.002-11.507v-34.693h-12.409v35.72z"/><path d="m296.373 112.89 14.216-24.693v24.693h11.433l.032-46.2h-11.418l-18.863 32.717-18.868-32.717h-11.378l.012 46.2h11.417v-24.693l14.237 24.693z"/><path d="m339.929 93.773h20.316v-9.711h-20.316v-7.657h34.83v-9.715h-47.231v46.2h47.649v-10.476h-35.248z"/><path d="m564.745 93.773h20.308v-9.711h-20.308v-7.657h34.837v-9.715h-47.27v46.2h47.688v-10.476h-35.255z"/><path d="m203.23 85.085h-28.859v9.746h16.732v7.579h-29.856v-25.709h41.488v-10.011h-41.878c-9.078 0-11.983 2.784-11.983 11.476v23.213c0 8.731 2.908 11.507 11.983 11.507h30.394c9.063 0 11.979-2.776 11.979-11.507z"/><path d="m423.255 66.69h-27.165c-9.106 0-11.995 2.784-11.995 11.491v23.198c0 8.731 2.889 11.499 11.995 11.499h27.165c9.074 0 12.003-2.768 12.003-11.499v-8.418h-12.409v9.449h-26.357v-25.693h26.357v8.368h12.409v-6.904c0-8.707-2.929-11.491-12.003-11.491z"/><path d="m30.066 85.678 26.528 15.314.004-30.632-26.532-15.318z"/><path d="m542.605 89.142c2.983-1.41 4.623-4.042 4.623-7.474v-5.4c0-6.552-3.487-9.578-10.987-9.578h-38.743v46.2h36.048c9.379 0 14.116-3.249 14.116-9.777v-5.592c0-3.932-1.792-6.845-5.057-8.379zm-6.552 10.745c0 2.234-.48 2.839-3.858 2.839h-22.284v-8.938h22.284c3.378 0 3.858.625 3.858 2.816zm-26.142-23.908h22.237c3.44 0 3.601.738 3.601 2.073v4.202c0 1.335-.161 2.081-3.601 2.081h-22.237z"/><path d="m471.392 53.926v-35.506h-6.751v22.647l-11.484-22.647h-9.114v35.506h6.748v-27.681l13.904 27.681z"/><path d="m275.717 26.245 13.924 27.681h6.677v-35.506h-6.743v22.647l-11.496-22.647h-9.125v35.506h6.763z"/><path d="m165.062 26.245 13.905 27.681h6.677v-35.506h-6.771v22.647l-11.464-22.647h-9.102v35.506h6.755z"/><path d="m223.492 18.42h7.622v35.505h-7.622z"/><path d="m338.043 53.926h7.232v-29.84h11.394v-5.638h-30.035v5.638h11.409z"/><path d="m384.595 44.8c0 4.932 4.767 8.919 10.722 9.126h15.642v-5.623h-14.978c-2.335 0-4.729-1.539-4.729-3.694v-6.423h19.707v-5.674h-19.707v-4.763c0-2.144 2.394-3.702 4.729-3.702h14.978v-5.623h-15.388c-6.08.121-10.976 4.155-10.976 9.149z"/><path d="m591.421 27.339c0-5.061-5.064-9.153-11.241-9.153h-6.033c-6.185 0-11.234 4.092-11.234 9.153v17.68c0 5.076 5.049 9.176 11.234 9.176h6.033c6.177 0 11.241-4.096 11.241-9.176zm-6.712 17.5c0 2.14-2.409 3.905-4.736 3.905h-5.619c-2.343 0-4.744-1.765-4.744-3.905v-17.305c0-2.191 2.401-3.917 4.744-3.917h5.619c2.327 0 4.736 1.726 4.736 3.917z"/><path d="m520.946 53.926c6.216 0 11.234-4.1 11.234-9.169v-17.149c0-5.084-5.018-9.192-11.234-9.192h-16.411v35.506h16.411zm-9.73-30.059h9.523c2.358 0 4.752 1.789 4.752 3.944v16.767c0 2.311-2.479 3.889-4.752 3.889h-9.523z"/><path d="m18.657 92.262 37.941 21.893v21.554l-56.598-32.678v-65.349l18.657 10.769zm40.651-57.227-26.524 15.314 26.524 15.318 26.528-15.318z"/><path d="m59.308 21.872 31.917 18.469 18.672-10.765-50.589-29.211-56.543 32.647 18.64 10.765zm40.644 70.39v-22.261l-11.406 6.572v9.105l-26.528 15.322v.032l-.008-30.664v-.008l56.606-32.678v65.349l-56.598 32.678-.012-21.523z"/></g></svg>