<svg clip-rule="evenodd" fill-rule="evenodd" stroke-linejoin="round" stroke-miterlimit="2" viewBox="0 0 600 155" xmlns="http://www.w3.org/2000/svg"><g fill="#fff" fill-rule="nonzero"><path d="m127.789 32.938h-108.327c-9.255.031-14.881-6.181-14.881-13.801 0-7.623 5.661-13.784 14.881-13.801h108.327c9.22.017 14.878 6.178 14.878 13.801 0 7.62-5.623 13.832-14.878 13.801m.053-32.104h-108.433c-11.611-.027-19.409 8.321-19.409 18.328 0 10.005 7.78 18.256 19.426 18.261h108.399c11.644-.005 19.426-8.256 19.426-18.261 0-10.007-7.801-18.355-19.409-18.328m-52.892 17.169c.404-.706 1.148-1.044 1.821-1.046.675.002 1.419.34 1.821 1.046.331.572.346 1.243.34 2.245h-4.324c-.008-1.002.013-1.673.342-2.245m9.418 4.028c0-3.55-3.43-6.493-7.643-6.493-4.21 0-7.627 2.878-7.627 6.43 0 3.551 3.417 6.43 7.627 6.43 3.498 0 6.447-1.993 7.348-4.699l-5.162.005s.004.05.004.693c0 2.096-1.377 2.561-2.144 2.561-.763 0-2.165-.465-2.165-2.561 0-.626.004-2.364.004-2.364s9.758.004 9.758-.002m10.842-6.302c-1.714.048-3.14.782-4.133 1.727-.004-.283 0-1.203 0-1.203l-5.139.002-.002 11.454h5.141s-.004-7.036-.004-7.524c0-.998 1.048-2.109 2.458-2.109 1.413 0 2.366 1.111 2.366 2.109v7.524h5.148s-.003-5.426 0-6.233c.029-4.536-3.901-5.803-5.835-5.747m-42.094 0c-1.712.048-3.14.782-4.131 1.727-.004-.283 0-1.203 0-1.203l-5.147.002.004 11.454h5.143s-.004-7.036-.004-7.524c0-.998 1.048-2.109 2.458-2.109 1.411 0 2.366 1.111 2.366 2.109v7.524h5.148s-.007-5.426 0-6.233c.027-4.536-3.903-5.803-5.837-5.747m59.131 6.195s.002 1.298.002 2.033c0 1.769-1.226 2.232-2.033 2.232-.822 0-2.029-.463-2.029-2.232 0-.608.002-2.037.002-2.037s-.002-1.454-.002-2.041c0-1.773 1.207-2.224 2.031-2.224.805 0 2.029.451 2.029 2.224zm-.038-5.101c-.826-.465-1.702-.914-2.93-1.021-3.733-.329-6.587 2.972-6.587 5.997 0 3.986 3.079 5.461 3.544 5.679 1.744.811 3.98.813 5.962-.432 0 .107.003.663.003.663h5.12v-17.221h-5.112zm16.446 7.495c0 1.825-1.08 2.577-2.117 2.577-1.04 0-2.123-.752-2.123-2.577 0-.694.002-2.471.002-2.471s.002-1.694.002-2.389c0-1.815 1.086-2.564 2.117-2.564 1.035 0 2.116.749 2.116 2.564 0 .695 0 1.978.007 2.439 0 .027-.004 1.731-.004 2.421m-2.077-8.845c-4.181 0-7.57 2.882-7.57 6.432 0 3.553 3.389 6.432 7.57 6.432s7.57-2.879 7.57-6.432c0-3.55-3.389-6.432-7.57-6.432m-90.782-1.471h5.191v-3.521h-5.191zm.013 13.709h5.178v-11.454h-5.178zm33.975-11.433v-1.704h-2.807v-2.316h-5.182l.004 2.318-2.819.002v1.7h2.817l-.005 11.433h5.19l-.005-11.433zm-42.26 6.221-7.425-12.011h-5.366l-.002 17.223h5.334v-12.011l7.463 12.011h5.315v-17.223h-5.323z"/><path d="m129.653 50.605-19.363 75.851s-14.775-56.934-17.181-65.012c-2.404-8.084-7.367-11.627-14.389-11.627-7.025 0-11.987 3.543-14.387 11.627-2.41 8.078-17.201 65.012-17.201 65.012l-19.347-75.851h-23.308s22.372 80.924 25.414 90.294c2.378 7.317 7.976 13.3 16.292 13.3 9.508 0 13.951-6.93 16.007-13.3 2.037-6.323 16.53-59.779 16.53-59.779s14.484 53.456 16.532 59.779c2.038 6.37 6.497 13.3 16 13.3 8.31 0 13.917-5.983 16.288-13.3 3.035-9.37 25.411-90.294 25.411-90.294zm79.926 102.812h22.058v-71.383h-22.058zm-2.132-96.33c0 6.878 5.788 12.457 12.921 12.457 7.406 0 13.225-5.473 13.225-12.457 0-7.001-5.819-12.478-13.225-12.478-7.133 0-12.921 5.592-12.921 12.478m-42.706 96.33h22.049v-71.383h-22.049zm10.773-108.808c7.413 0 13.222 5.477 13.222 12.478 0 6.984-5.809 12.457-13.222 12.457-7.137 0-12.932-5.579-12.932-12.457 0-6.886 5.795-12.478 12.932-12.478"/><path d="m327.746 102.138-2.98 16.943c-.485 4.16-.561 13.411 8.907 13.347 4.747-.038 6.712-1.799 7.363-2.36 3.114-2.782 4.581-8.078 4.862-9.724l.038-.255 11.97-67.964 21.629-.141-11.969 67.913c-.409 2.591-3.037 15.939-13.68 25.586-4.657 4.224-12.633 9.277-24.169 9.341-9.669.074-16.258-3.496-20.514-8.704-6.097 5.208-13.949 8.778-23.587 8.704-11.51-.064-17.712-5.117-20.877-9.341-7.248-9.647-5.129-22.995-4.67-25.586l11.995-67.913 21.54.141-11.957 67.964-.063.255c-.307 1.646-.702 6.942 1.416 9.724.459.561 1.799 2.322 6.546 2.36 9.443.064 12.646-9.187 13.616-13.347l6.266-35.628 5.525-31.328h21.617zm3.286-18.685-3.129 17.789 3.192-18.096.008-.1z"/><path d="m418.341 150.97c-4.543 2.858-9.277 3.854-15.249 3.854-14.228 0-30.205-13.489-25.483-39.38 4.083-22.625 22.841-39.699 44.458-39.699 21.043 0 36.19 12.71 31.864 36.585l-7.401 40.618h-22.294l6.292-34.735c2.424-13.335.561-21.387-11.472-21.387-10.464 0-17.393 9.073-19.014 17.993-2.106 11.727 3.254 17.367 11.651 17.367 4.058 0 7.733-.906 10.412-1.889z"/><path d="m508.381 82.036c-6.1 0-11.625 1.646-16.704 4.836l1.953-10.68h-22.332l-14.049 76.896h22.331l7.452-40.86c1.646-4.173 6.011-10.425 17.763-10.425h15.811l3.611-19.78h-15.747"/><path d="m544.775 114.678c-2.948 16.819 5.308 22.485 14.292 22.485 7.605 0 13.399-3.867 18.197-9.137l14.177 11.931c-9.124 9.456-22.319 14.892-34.416 14.892-23.263 0-39.124-15.504-34.875-39.546 4.249-24.041 22.957-39.52 46.22-39.52 18.579 0 35.181 15.479 30.97 39.52l-1.276 7.261h-47.662l2.769-15.798h24.437c1.532-7.733-3.356-14.253-11.752-14.253-10.209 0-18.108 5.372-21.081 22.165"/></g></svg>