<?xml version="1.0" encoding="UTF-8" standalone="no"?><!DOCTYPE svg PUBLIC "-//W3C//DTD SVG 1.1//EN" "http://www.w3.org/Graphics/SVG/1.1/DTD/svg11.dtd"><svg width="100%" height="100%" viewBox="0 0 600 112" version="1.1" xmlns="http://www.w3.org/2000/svg" xmlns:xlink="http://www.w3.org/1999/xlink" xml:space="preserve" xmlns:serif="http://www.serif.com/" style="fill-rule:evenodd;clip-rule:evenodd;stroke-linejoin:round;stroke-miterlimit:2;"><g id="nintendo_superfamicom_satellaview"><g><path id="path7449-8-3" d="M143.525,75.936c6.316,0 11.435,5.12 11.435,11.435l0,11.807c0,6.315 -5.119,11.435 -11.435,11.435l-50.992,-0l0,-10.141l44.321,0c3.043,0 5.51,-2.467 5.51,-5.51l0,-3.175c0,-3.043 -2.467,-5.51 -5.51,-5.51l-14.341,-0.001l-18.578,-0c-6.315,-0 -11.435,-5.225 -11.435,-11.671l0,-12.05c0,-6.445 5.12,-11.67 11.435,-11.67l46.114,-0l0,10.349l-39.443,0c-3.043,0 -5.51,2.518 -5.51,5.623l-0,3.241c-0,3.106 2.467,5.836 5.51,5.836l12.213,0.001l20.706,0.001Z" style="fill:#fff;fill-rule:nonzero;"/><path id="path7449-9-0" d="M162.028,69.036l-0,10.164l26.638,0c2.272,0 4.338,1.835 4.338,4.087l-30.281,7.926c-2.129,0.57 -3.609,2.499 -3.609,4.702l0,3.326c0,6.315 5.12,11.436 11.435,11.436l24.197,-0.001c6.314,-0 11.433,-5.12 11.433,-11.435l0,-18.77c0,-6.316 -5.119,-11.435 -11.435,-11.435l-32.716,-0Zm31.181,23.614l0,3.989c0,2.371 -1.922,4.293 -4.293,4.293l-13.213,-0c-2.046,-0 -3.574,-1.422 -3.958,-2.857l21.464,-5.425Z" style="fill:#fff;fill-rule:nonzero;"/><path id="path7449-9-3" d="M227.917,79.264l8.828,0l-0,-10.647l-8.822,-0l-0,-17.847l-12.682,-0l-0,17.948l-5.267,0l-0,10.546l5.268,0l-0,26.158c-0,2.974 2.41,5.384 5.384,5.384l15.409,0l-0,-10.652l-8.118,-0.006l-0,-20.884Z" style="fill:#fff;fill-rule:nonzero;"/><path id="path7449-9-0-4" d="M287.231,110.605l0,-10.165l-29.649,0c-2.273,0 -4.338,-1.834 -4.338,-4.087l30.281,-7.925c2.128,-0.57 3.609,-2.499 3.609,-4.703l-0,-3.325c-0,-6.316 -5.12,-11.436 -11.435,-11.436l-24.197,0.001c-6.314,-0 -11.433,5.119 -11.433,11.435l-0,18.77c-0,6.315 5.119,11.435 11.434,11.435l35.728,-0Zm-34.192,-23.614l-0,-3.989c-0,-2.371 1.922,-4.293 4.293,-4.293l13.213,0c2.046,0 3.574,1.421 3.958,2.857l-21.464,5.425Z" style="fill:#fff;fill-rule:nonzero;"/><rect id="rect7599" x="293.728" y="50.77" width="12.276" height="60.037" style="fill:#fff;fill-rule:nonzero;"/><rect id="rect7599-0" x="312.589" y="50.77" width="12.276" height="60.037" style="fill:#fff;fill-rule:nonzero;"/><path id="path7449-9-0-0" d="M332.185,69.036l-0,10.164l26.637,0c2.273,0 4.338,1.835 4.338,4.087l-30.281,7.926c-2.128,0.57 -3.608,2.499 -3.608,4.702l-0,3.326c-0,6.315 5.119,11.436 11.435,11.436l24.197,-0.001c6.313,-0 11.433,-5.12 11.433,-11.435l-0,-18.77c-0,-6.316 -5.12,-11.435 -11.435,-11.435l-32.716,-0Zm31.181,23.614l-0,3.989c-0,2.371 -1.922,4.293 -4.293,4.293l-13.213,-0c-2.047,-0 -3.574,-1.422 -3.959,-2.857l21.465,-5.425Z" style="fill:#fff;fill-rule:nonzero;"/><path id="path7641" d="M404.873,111.207c-4.886,-0 -7.854,-1.692 -10.039,-5.476l-18.658,-36.911l13.791,-0l16.63,32.145l16.63,-32.145l13.791,-0l-18.658,36.911c-2.185,3.784 -5.153,5.476 -10.039,5.476l-3.448,-0Z" style="fill:#fff;fill-rule:nonzero;"/><rect id="rect7599-01" x="440.359" y="68.82" width="12.276" height="41.987" style="fill:#fff;fill-rule:nonzero;"/><circle id="path7673" cx="446.551" cy="57.564" r="6.896" style="fill:#fff;"/><path id="path7449-9-0-4-2" d="M505.859,110.605l0,-10.164l-29.649,-0c-2.273,-0 -4.338,-1.835 -4.338,-4.088l30.281,-7.925c2.128,-0.57 3.609,-2.499 3.609,-4.703l-0,-3.325c-0,-6.316 -5.12,-11.436 -11.435,-11.436l-24.197,0.001c-6.314,-0 -11.434,5.119 -11.434,11.435l0,18.77c0,6.315 5.12,11.435 11.435,11.435l35.728,-0Zm-34.192,-23.614l-0,-3.989c-0,-2.371 1.922,-4.293 4.293,-4.293l13.212,0c2.047,0 3.574,1.421 3.959,2.857l-21.464,5.425Z" style="fill:#fff;fill-rule:nonzero;"/><path id="path7641-2" d="M569.579,100.965l16.63,-32.145l13.791,-0l-18.658,36.911c-2.185,3.784 -5.154,5.476 -10.039,5.476l-3.448,-0c-4.886,-0 -7.956,-2.301 -9.634,-5.983l-5.83,-18.362l-5.831,18.362c-1.678,3.682 -4.748,5.983 -9.634,5.983l-3.447,-0c-4.886,-0 -7.855,-1.692 -10.039,-5.476l-18.659,-36.911l13.791,-0l16.631,32.145l11.458,-32.145l11.459,-0l11.459,32.145Z" style="fill:#fff;fill-rule:nonzero;"/><rect x="143.086" y="14.204" width="12.302" height="27.208" style="fill:#fff;"/><path d="M223.794,14.254l0,-4.047l-6.666,-0l-0,-5.502l-12.312,0l0.01,5.507l-6.696,0.005l-0,4.037l6.691,0l-0.01,27.159l12.327,-0l-0.01,-27.159l6.666,0Z" style="fill:#fff;"/><path d="M123.406,29.031l-17.639,-28.533l-12.746,0l-0.005,40.915l12.671,-0l-0,-28.533l17.729,28.533l12.625,-0l0,-40.915l-12.645,0l0.01,28.533Z" style="fill:#fff;"/><path d="M284.194,12.95c-4.072,0.114 -7.457,1.857 -9.817,4.102c-0.01,-0.672 -0,-2.857 -0,-2.857l-12.208,0.005l-0.005,27.208l12.213,-0c-0,-0 -0.01,-16.714 -0.01,-17.874c-0,-2.369 2.489,-5.008 5.84,-5.008c3.355,-0 5.62,2.639 5.62,5.008l0,17.874l12.228,-0c-0,-0 -0.005,-12.89 -0,-14.807c0.07,-10.773 -9.265,-13.786 -13.861,-13.651Z" style="fill:#fff;"/><path d="M184.199,12.95c-4.067,0.114 -7.458,1.857 -9.812,4.102c-0.01,-0.672 -0,-2.857 -0,-2.857l-12.228,0.005l0.01,27.208l12.218,-0c-0,-0 -0.01,-16.714 -0.01,-17.874c-0,-2.369 2.489,-5.008 5.84,-5.008c3.35,-0 5.62,2.639 5.62,5.008l0,17.874l12.228,-0c-0,-0 -0.015,-12.89 -0,-14.807c0.065,-10.773 -9.27,-13.786 -13.866,-13.651Z" style="fill:#fff;"/><path d="M358.709,12.342c-9.932,0 -17.983,6.846 -17.983,15.28c0,8.439 8.051,15.279 17.983,15.279c9.932,0 17.983,-6.84 17.983,-15.279c-0,-8.434 -8.051,-15.28 -17.983,-15.28Zm4.934,21.01c-0,4.337 -2.564,6.124 -5.028,6.124c-2.47,-0 -5.044,-1.787 -5.044,-6.124c0,-1.648 0.005,-5.87 0.005,-5.87c0,0 0.005,-4.022 0.005,-5.675c0,-4.312 2.579,-6.089 5.029,-6.089c2.459,-0 5.028,1.777 5.028,6.089c-0,1.653 -0,4.7 0.015,5.795c-0,0.065 -0.01,4.112 -0.01,5.75Z" style="fill:#fff;"/><path d="M324.576,15.549c-1.962,-1.106 -4.043,-2.171 -6.96,-2.425c-8.867,-0.782 -15.648,7.06 -15.648,14.244c0,9.469 7.314,12.974 8.419,13.492c4.142,1.927 9.454,1.932 14.164,-1.026c-0,0.254 0.005,1.574 0.005,1.574l12.163,-0l-0,-40.91l-12.143,0l-0,15.051Zm0.089,12.118c0,-0 0.005,3.081 0.005,4.829c0,4.202 -2.912,5.302 -4.829,5.302c-1.951,0 -4.819,-1.1 -4.819,-5.302c-0,-1.444 0.005,-4.839 0.005,-4.839c-0,-0 -0.005,-3.455 -0.005,-4.849c-0,-4.212 2.868,-5.283 4.824,-5.283c1.912,0 4.819,1.071 4.819,5.283l0,4.859Z" style="fill:#fff;"/><path d="M258.44,27.921c0,-8.434 -8.15,-15.424 -18.157,-15.424c-10.002,-0 -18.117,6.835 -18.117,15.274c0,8.434 8.115,15.274 18.117,15.274c8.31,0 15.314,-4.734 17.455,-11.162l-12.262,0.01c-0,0 0.01,0.12 0.01,1.648c-0,4.979 -3.271,6.084 -5.093,6.084c-1.812,0 -5.143,-1.105 -5.143,-6.084c-0,-1.488 0.01,-5.615 0.01,-5.615c-0,-0 23.18,0.009 23.18,-0.005Zm-22.374,-9.569c0.961,-1.678 2.729,-2.48 4.327,-2.485c1.603,0.005 3.37,0.807 4.326,2.485c0.787,1.359 0.822,2.952 0.807,5.332l-10.271,-0c-0.02,-2.38 0.03,-3.973 0.811,-5.332Z" style="fill:#fff;"/><rect x="143.056" y="0.483" width="12.332" height="8.364" style="fill:#fff;"/></g><path id="path882" d="M1.993,111.067l39.151,0c-11.373,-4.195 -28.55,-20.881 -34.899,-30.97c6.793,18.575 8.107,26.698 -4.252,30.97Z" style="fill:#fff;fill-rule:nonzero;"/><path id="path884" d="M64.81,0.483l15.082,0l0,31.864c-4.308,-12.866 -9.276,-24.232 -15.082,-31.864Z" style="fill:#fff;fill-rule:nonzero;"/><path id="path886" d="M50.369,0.483l8.504,0c8.211,13.326 15.376,25.797 21.019,40.967l0,9.461c-8.742,-19.73 -17.822,-38.925 -29.523,-50.428Z" style="fill:#fff;fill-rule:nonzero;"/><path id="path899" d="M79.892,67.446l0,-8.33c-11.779,-28.593 -28.458,-48.36 -42.556,-58.677l-17.585,0c31.738,12.554 50.171,38.497 60.141,67.007Z" style="fill:#fff;fill-rule:nonzero;"/><path d="M74.428,101.509c-9.613,15.803 -34.553,12.857 -56.296,-13.013c-17.394,-20.696 -23.341,-48.549 -13.138,-64.659c9.479,-14.969 37.783,-8.569 53.51,10.432c15.485,18.709 28.391,46.744 15.924,67.24Zm-17.272,-29.668c7.04,-0 12.755,4.539 12.755,10.13c0,5.591 -5.715,10.13 -12.755,10.13c-7.041,0 -12.756,-4.539 -12.756,-10.13c-0,-5.591 5.715,-10.13 12.756,-10.13Zm-27.518,-5.757c7.04,0 12.756,4.539 12.756,10.13c0,5.591 -5.716,10.13 -12.756,10.13c-7.04,0 -12.756,-4.539 -12.756,-10.13c0,-5.591 5.716,-10.13 12.756,-10.13Zm23.107,-22.37c-2.357,-0.004 -4.472,0.774 -6.02,2.403c-3.021,3.178 -2.785,9.578 0.561,15.313c0.637,-0.092 1.282,-0.141 1.927,-0.144c6.39,0.003 11.886,4.391 12.889,10.291c2.632,0.168 4.97,-0.533 6.527,-2.127c3.809,-3.898 2.475,-13.084 -3.574,-19.527c-3.78,-4.027 -8.382,-6.204 -12.31,-6.209Zm-28.328,-6.485c-2.576,-0.016 -4.888,0.89 -6.517,2.815c-3.099,3.661 -2.341,9.883 0.95,15.37c1.185,-0.259 2.41,-0.391 3.639,-0.391c7.292,0.004 13.357,4.627 13.624,10.386c1.775,-0.365 3.346,-1.237 4.541,-2.649c4.011,-4.738 1.483,-13.674 -4.556,-19.848c-3.587,-3.666 -7.916,-5.66 -11.681,-5.683Z" style="fill:#fff;"/></g></svg>