<?xml version="1.0" encoding="UTF-8" standalone="no"?><!DOCTYPE svg PUBLIC "-//W3C//DTD SVG 1.1//EN" "http://www.w3.org/Graphics/SVG/1.1/DTD/svg11.dtd"><svg width="100%" height="100%" viewBox="0 0 600 288" version="1.1" xmlns="http://www.w3.org/2000/svg" xmlns:xlink="http://www.w3.org/1999/xlink" xml:space="preserve" xmlns:serif="http://www.serif.com/" style="fill-rule:evenodd;clip-rule:evenodd;stroke-linejoin:round;stroke-miterlimit:2;"><g id="nintendo_wii_alt"><path d="M327.808,16.372l-50.709,198.634c0,0 -38.691,-149.094 -44.992,-170.249c-6.295,-21.17 -19.293,-30.448 -37.681,-30.448c-18.398,-0 -31.391,9.278 -37.677,30.448c-6.31,21.155 -45.045,170.249 -45.045,170.249l-50.665,-198.634l-61.039,0c-0,0 58.588,211.919 66.554,236.459c6.229,19.16 20.888,34.829 42.666,34.829c24.899,-0 36.532,-18.149 41.918,-34.829c5.333,-16.559 43.288,-156.548 43.288,-156.548c-0,0 37.93,139.989 43.292,156.548c5.338,16.68 17.015,34.829 41.9,34.829c21.763,-0 36.446,-15.669 42.655,-34.829c7.947,-24.54 66.545,-236.459 66.545,-236.459l-61.01,0Zm209.305,269.239l57.764,-0l0,-186.934l-57.764,0l-0,186.934Zm-5.582,-252.263c-0,18.01 15.157,32.622 33.837,32.622c19.394,-0 34.632,-14.334 34.632,-32.622c-0,-18.336 -15.238,-32.679 -34.632,-32.679c-18.68,0 -33.837,14.645 -33.837,32.679m-111.839,252.263l57.741,-0l-0,-186.934l-57.741,0l0,186.934Zm28.212,-284.942c19.413,0 34.628,14.343 34.628,32.679c-0,18.288 -15.215,32.622 -34.628,32.622c-18.69,-0 -33.866,-14.612 -33.866,-32.622c0,-18.034 15.176,-32.679 33.866,-32.679" style="fill:#fff;fill-rule:nonzero;"/></g></svg>