<?xml version="1.0" encoding="UTF-8" standalone="no"?><!DOCTYPE svg PUBLIC "-//W3C//DTD SVG 1.1//EN" "http://www.w3.org/Graphics/SVG/1.1/DTD/svg11.dtd"><svg width="100%" height="100%" viewBox="0 0 600 112" version="1.1" xmlns="http://www.w3.org/2000/svg" xmlns:xlink="http://www.w3.org/1999/xlink" xml:space="preserve" xmlns:serif="http://www.serif.com/" style="fill-rule:evenodd;clip-rule:evenodd;stroke-linejoin:round;stroke-miterlimit:2;"><g id="nintendo_wiiware_alt"><path d="M126.244,6.047l-19.529,76.497c0,0 -14.901,-57.418 -17.327,-65.565c-2.424,-8.153 -7.43,-11.726 -14.512,-11.726c-7.085,-0 -12.089,3.573 -14.51,11.726c-2.43,8.147 -17.347,65.565 -17.347,65.565l-19.512,-76.497l-23.507,0c-0,0 22.563,81.614 25.631,91.064c2.399,7.379 8.044,13.413 16.431,13.413c9.589,0 14.069,-6.989 16.144,-13.413c2.054,-6.377 16.67,-60.289 16.67,-60.289c0,0 14.608,53.912 16.673,60.289c2.056,6.424 6.552,13.413 16.136,13.413c8.382,0 14.036,-6.034 16.427,-13.413c3.061,-9.45 25.628,-91.064 25.628,-91.064l-23.496,0Zm80.606,103.688l22.246,0l0,-71.991l-22.246,0l0,71.991Zm-2.149,-97.15c-0,6.936 5.837,12.563 13.031,12.563c7.469,0 13.337,-5.52 13.337,-12.563c0,-7.061 -5.868,-12.585 -13.337,-12.585c-7.194,0 -13.031,5.64 -13.031,12.585m-43.071,97.15l22.237,0l-0,-71.991l-22.237,0l-0,71.991Zm10.865,-109.735c7.476,0 13.335,5.524 13.335,12.585c0,7.043 -5.859,12.563 -13.335,12.563c-7.198,0 -13.043,-5.627 -13.043,-12.563c0,-6.945 5.845,-12.585 13.043,-12.585" style="fill:#fff;fill-rule:nonzero;"/><g><path id="path16" d="M325.425,58.267l-3.005,17.087c-0.489,4.195 -0.566,13.526 8.983,13.461c4.788,-0.038 6.77,-1.814 7.426,-2.38c3.14,-2.806 4.62,-8.147 4.903,-9.807l0.039,-0.257l12.072,-68.544l21.813,-0.141l-12.071,68.492c-0.412,2.612 -3.063,16.074 -13.796,25.803c-4.698,4.26 -12.741,9.356 -24.375,9.421c-9.752,0.074 -16.397,-3.526 -20.689,-8.779c-6.149,5.253 -14.068,8.853 -23.788,8.779c-11.609,-0.065 -17.863,-5.161 -21.055,-9.421c-7.31,-9.729 -5.174,-23.191 -4.71,-25.803l12.097,-68.492l21.724,0.141l-12.059,68.544l-0.064,0.257c-0.309,1.66 -0.708,7.001 1.428,9.807c0.464,0.566 1.815,2.342 6.602,2.38c9.524,0.065 12.754,-9.266 13.732,-13.461l6.319,-35.932l5.573,-31.595l21.801,0l-8.9,50.44Zm3.314,-18.845l-3.155,17.942l3.22,-18.251l0.008,-0.1l-0.073,0.409Z" style="fill:#fff;fill-rule:nonzero;"/><path id="path20" d="M416.793,107.515c-4.582,2.883 -9.356,3.887 -15.379,3.887c-14.35,-0 -30.463,-13.604 -25.701,-39.716c4.118,-22.818 23.037,-40.037 44.838,-40.037c21.222,-0 36.498,12.818 32.135,36.897l-7.464,40.964l-22.484,-0l6.345,-35.031c2.445,-13.449 0.566,-21.57 -11.57,-21.57c-10.553,0 -17.541,9.151 -19.175,18.147c-2.124,11.827 3.282,17.515 11.75,17.515c4.092,-0 7.799,-0.914 10.501,-1.905l-3.796,20.849Z" style="fill:#fff;fill-rule:nonzero;"/><path id="path22" d="M507.6,37.994c-6.151,-0 -11.724,1.66 -16.846,4.877l1.969,-10.772l-22.522,0l-14.169,77.552l22.522,0l7.516,-41.208c1.66,-4.208 6.061,-10.514 17.914,-10.514l15.945,-0l3.642,-19.948l-15.881,-0" style="fill:#fff;fill-rule:nonzero;"/><path id="path24" d="M544.304,70.914c-2.973,16.962 5.354,22.676 14.414,22.676c7.67,0 13.513,-3.899 18.352,-9.214l14.298,12.033c-9.202,9.536 -22.509,15.018 -34.709,15.018c-23.461,0 -39.458,-15.636 -35.173,-39.882c4.286,-24.247 23.153,-39.857 46.614,-39.857c18.738,-0 35.481,15.61 31.234,39.857l-1.287,7.322l-48.067,0l2.792,-15.932l24.646,-0c1.544,-7.799 -3.385,-14.375 -11.853,-14.375c-10.296,-0 -18.262,5.418 -21.261,22.354" style="fill:#fff;fill-rule:nonzero;"/></g></g></svg>