<?xml version="1.0" encoding="UTF-8" standalone="no"?><!DOCTYPE svg PUBLIC "-//W3C//DTD SVG 1.1//EN" "http://www.w3.org/Graphics/SVG/1.1/DTD/svg11.dtd"><svg width="100%" height="100%" viewBox="0 0 600 169" version="1.1" xmlns="http://www.w3.org/2000/svg" xmlns:xlink="http://www.w3.org/1999/xlink" xml:space="preserve" xmlns:serif="http://www.serif.com/" style="fill-rule:evenodd;clip-rule:evenodd;stroke-linejoin:round;stroke-miterlimit:2;"><g id="nintendo_famicom"><g><rect x="105.902" y="29.028" width="26.02" height="57.548" style="fill:#fff;"/><path d="M276.607,29.133l0,-8.561l-14.1,0l0,-11.636l-26.041,0l0.021,11.647l-14.163,0.01l0,8.54l14.153,0l-0.021,57.442l26.072,0l-0.021,-57.442l14.1,0Z" style="fill:#fff;"/><path d="M64.276,60.387l-37.308,-60.349l-26.957,0l-0.011,86.537l26.799,0l0,-60.348l37.498,60.348l26.705,0l-0,-86.537l-26.747,0l0.021,60.349Z" style="fill:#fff;"/><path d="M404.36,26.374c-8.614,0.242 -15.775,3.928 -20.766,8.677c-0.021,-1.421 -0,-6.044 -0,-6.044l-25.82,0.01l-0.011,57.548l25.831,-0c-0,-0 -0.021,-35.35 -0.021,-37.804c-0,-5.012 5.265,-10.593 12.352,-10.593c7.097,0 11.888,5.581 11.888,10.593l0,37.804l25.863,-0c-0,-0 -0.011,-27.263 -0,-31.317c0.147,-22.787 -19.597,-29.158 -29.316,-28.874Z" style="fill:#fff;"/><path d="M192.861,26.374c-8.604,0.242 -15.775,3.928 -20.755,8.677c-0.022,-1.421 -0,-6.044 -0,-6.044l-25.863,0.01l0.021,57.548l25.842,-0c-0,-0 -0.022,-35.35 -0.022,-37.804c0,-5.012 5.266,-10.593 12.352,-10.593c7.087,0 11.889,5.581 11.889,10.593l-0,37.804l25.862,-0c0,-0 -0.031,-27.263 0,-31.317c0.137,-22.787 -19.607,-29.158 -29.326,-28.874Z" style="fill:#fff;"/><path d="M561.965,25.09c-21.008,-0 -38.035,14.479 -38.035,32.317c-0,17.848 17.027,32.317 38.035,32.317c21.008,-0 38.035,-14.469 38.035,-32.317c-0,-17.838 -17.027,-32.317 -38.035,-32.317Zm10.435,44.437c0,9.172 -5.423,12.952 -10.635,12.952c-5.223,0 -10.667,-3.78 -10.667,-12.952c-0,-3.485 0.01,-12.415 0.01,-12.415c0,-0 0.011,-8.508 0.011,-12.004c-0,-9.12 5.454,-12.879 10.635,-12.879c5.202,0 10.636,3.759 10.636,12.879c-0,3.496 -0,9.94 0.031,12.257c0,0.137 -0.021,8.698 -0.021,12.162Z" style="fill:#fff;"/><path d="M489.77,31.871c-4.149,-2.338 -8.551,-4.591 -14.721,-5.128c-18.755,-1.653 -33.097,14.932 -33.097,30.127c0,20.028 15.469,27.441 17.807,28.537c8.761,4.075 19.997,4.085 29.958,-2.17c0,0.537 0.011,3.328 0.011,3.328l25.725,-0l0,-86.527l-25.683,0l-0,31.833Zm0.189,25.631c0,-0 0.011,6.518 0.011,10.214c-0,8.887 -6.16,11.214 -10.214,11.214c-4.128,0 -10.194,-2.327 -10.194,-11.214c0,-3.054 0.011,-10.236 0.011,-10.236c0,0 -0.011,-7.307 -0.011,-10.256c0,-8.908 6.066,-11.172 10.204,-11.172c4.044,-0 10.193,2.264 10.193,11.172l0,10.278Z" style="fill:#fff;"/><path d="M349.887,58.039c-0,-17.839 -17.238,-32.623 -38.404,-32.623c-21.155,0 -38.319,14.458 -38.319,32.307c-0,17.838 17.164,32.306 38.319,32.306c17.575,0 32.391,-10.014 36.919,-23.608l-25.936,0.021c0,-0 0.021,0.252 0.021,3.485c0,10.53 -6.918,12.868 -10.772,12.868c-3.833,0 -10.878,-2.338 -10.878,-12.868c0,-3.148 0.021,-11.878 0.021,-11.878c0,0 49.029,0.021 49.029,-0.01Zm-47.323,-20.239c2.032,-3.549 5.771,-5.244 9.151,-5.255c3.391,0.011 7.129,1.706 9.151,5.255c1.663,2.874 1.737,6.244 1.705,11.277l-21.723,0c-0.042,-5.033 0.063,-8.403 1.716,-11.277Z" style="fill:#fff;"/><rect x="105.839" y="0.007" width="26.083" height="17.691" style="fill:#fff;"/></g><g><path d="M-0,107.293l31.856,0l0,11.102l-20.694,0l-0,13.467l20.694,-0l0,11.46l-20.694,0l-0,23.936l-11.162,0l-0,-59.965Z" style="fill:#fff;fill-rule:nonzero;"/><path d="M68.083,167.258l-10.852,0l0,-9.337l-21.02,0l-6.228,9.337l-12.78,0l42.043,-59.965l8.837,0l0,59.965Zm-10.852,-20.667l0,-17.496l-12.839,17.496l12.839,0Z" style="fill:#fff;fill-rule:nonzero;"/><path d="M72.338,107.293l12.587,0l17.748,40.308l17.874,-40.308l12.715,0l-0,59.965l-11.206,0l0,-30.232l-13.844,30.232l-11.33,0l-13.342,-30.232l0,30.232l-11.202,0l-0,-59.965Z" style="fill:#fff;fill-rule:nonzero;"/><path d="M342.152,107.293l12.589,0l17.746,40.308l17.876,-40.308l12.715,0l-0,59.965l-11.205,0l-0,-30.232l-13.847,30.232l-11.327,0l-13.345,-30.232l0,30.232l-11.202,0l-0,-59.965Z" style="fill:#fff;fill-rule:nonzero;"/><rect x="136.794" y="107.293" width="11.596" height="59.965" style="fill:#fff;"/><path d="M151.583,107.293l11.593,0l0,49.032l15.11,-0l-0,10.933l-26.703,0l-0,-59.965Z" style="fill:#fff;fill-rule:nonzero;"/><path d="M165.403,107.293l12.883,0l12.18,24.569l11.829,-24.569l12.766,0l-19.209,38.142l0,21.823l-11.24,0l-0,-21.823l-19.209,-38.142Z" style="fill:#fff;fill-rule:nonzero;"/><path d="M278.081,123.831c-5.091,-9.701 -15.261,-16.321 -26.98,-16.321c-16.817,0 -30.452,13.633 -30.452,30.453c0,16.82 13.632,30.449 30.452,30.449c11.8,0 22.033,-6.711 27.089,-16.526l-13.798,0.114c-3.402,3.136 -7.947,5.052 -12.94,5.052c-10.546,0 -19.09,-8.547 -19.09,-19.092c-0,-10.545 8.544,-19.09 19.09,-19.09c4.922,0 9.41,1.863 12.793,4.923l13.836,0.038Z" style="fill:#fff;fill-rule:nonzero;"/><path d="M308.213,168.573c-16.904,-0 -30.607,-13.706 -30.607,-30.61c0,-16.904 13.706,-30.61 30.607,-30.61c16.91,-0 30.613,13.706 30.613,30.61c0.002,16.907 -13.703,30.61 -30.613,30.61Zm19.489,-30.61c-0,-10.695 -8.675,-19.367 -19.369,-19.367c-10.695,0 -19.367,8.672 -19.367,19.367c-0,10.694 8.669,19.366 19.367,19.366c10.694,0 19.369,-8.672 19.369,-19.366Z" style="fill:#fff;fill-rule:nonzero;"/><path d="M426.957,107.301c10.146,0.815 18.129,9.31 18.129,19.668c-0,10.356 -7.98,18.851 -18.129,19.666l-8.767,-0.041l0,20.664l-11.243,0l-0,-59.965l11.243,0l8.767,0.008Zm-8.764,11.534l-0,16.266l8.767,-0.008c3.834,-0.717 6.736,-4.081 6.736,-8.124c-0,-4.045 -2.902,-7.409 -6.736,-8.126l-8.767,-0.008Z" style="fill:#fff;fill-rule:nonzero;"/><path d="M568.614,168.038l-11.129,-0l-0,-60.229l15.462,-0.022l8.764,0.006c10.146,0.814 18.129,9.31 18.129,19.668c-0,8.46 -5.33,15.679 -12.813,18.481l12.973,22.093l-12.177,-0l-18.183,-31.066l-1.026,0l-0,31.069Zm13.103,-32.454c3.833,-0.716 6.736,-4.083 6.736,-8.123c-0,-4.046 -2.903,-7.41 -6.736,-8.126l-13.101,-0l0,16.26l13.101,-0.011Z" style="fill:#fff;fill-rule:nonzero;"/><path d="M459.739,141.943l0.008,8.767c0.72,3.836 4.081,6.736 8.124,6.736c4.042,0 7.409,-2.902 8.126,-6.736l0.008,-8.767l0.03,-34.131l11.512,-0l-0,34.131l-0.011,8.767c-0.815,10.149 -9.307,18.126 -19.665,18.126c-10.356,-0 -18.848,-7.977 -19.666,-18.126l0.041,-8.767l-0.019,-34.131l11.555,-0l-0.043,34.131Z" style="fill:#fff;fill-rule:nonzero;"/><path d="M499.045,168.038l11.363,-0l-0,-48.877l10.187,-0l-0,-11.352l-31.389,0l-0,11.352l9.839,-0l0,48.877Z" style="fill:#fff;fill-rule:nonzero;"/><path d="M554.56,168.038l-31.215,-0l0,-60.229l31.215,0l0,11.026l-20.026,-0l0,14.3l20.026,0l0,11.246l-20.026,0l0,12.53l20.026,0l0,11.127Z" style="fill:#fff;fill-rule:nonzero;"/></g></g></svg>