<svg clip-rule="evenodd" fill-rule="evenodd" stroke-linejoin="round" stroke-miterlimit="2" viewBox="0 0 600 139" xmlns="http://www.w3.org/2000/svg"><g fill="#fff" fill-rule="nonzero"><path d="m337.883 131.924c0 .747-.611 1.352-1.349 1.352h-25.709c-.75 0-1.342-.605-1.342-1.352v-18.589c0-.738.592-1.337 1.342-1.337h25.709c.738 0 1.349.599 1.349 1.337zm-1.113-25.513h-26.18c-3.793 0-6.872 3.101-6.872 6.883v18.68c0 3.77 3.079 6.877 6.872 6.877h26.18c3.795 0 6.877-3.107 6.877-6.877v-18.68c0-3.782-3.082-6.883-6.877-6.883"/><path d="m36.532 78.479v24.034h-6.006v-32.447h5.129l24.323 23.622v-23.622h5.931v32.447h-4.694z"/><path d="m96.747 78.479v24.034h-6.012v-32.447h5.128l24.317 23.622v-23.622h5.935v32.447h-4.689z"/><path d="m221.519 78.479v24.034h-6.003v-32.447h5.125l24.317 23.622v-23.622h5.938v32.447h-4.685z"/><path d="m75.308 70.066h6.006v32.447h-6.006z"/><path d="m132.917 70.066h35.191v5.588h-14.475v26.859h-6.239v-26.859h-14.477z"/><path d="m174.92 70.066h31.681v5.588h-25.734v7.274h19.911v5.572h-19.911v8.419h25.734v5.594h-31.681z"/><path d="m284.279 96.919h-18.44v-21.265h18.44c5.768 0 7.824 5.727 7.824 10.623 0 4.915-2.056 10.642-7.824 10.642m9.858-22.105c-2.345-3.101-5.83-4.748-10.025-4.748h-24.062v32.447h24.062c4.195 0 7.68-1.643 10.025-4.738 2.198-2.884 3.361-6.856 3.361-11.498 0-4.617-1.163-8.598-3.361-11.463"/><path d="m337.883 95.586c0 .732-.611 1.339-1.349 1.339h-25.709c-.75 0-1.342-.607-1.342-1.339v-18.599c0-.732.592-1.327 1.342-1.327h25.709c.738 0 1.349.595 1.349 1.327zm-1.113-25.52h-26.18c-3.793 0-6.872 3.104-6.872 6.884v18.689c0 3.764 3.079 6.874 6.872 6.874h26.18c3.795 0 6.877-3.11 6.877-6.874v-18.689c0-3.78-3.082-6.884-6.877-6.884"/><path d="m531.906 125.236c6.245 2.459 19.38 4.443 29.644 4.443 11.228 0 15.892-3.848 15.892-8.682 0-4.351-4.335-6.893-16.742-11.433-16.57-6.133-28.738-10.97-28.738-21.854 0-11.278 14.636-17.91 36.959-17.91 11.969 0 16.087.762 23.699 2.151l.053 10.704c-7.476-1.426-14.09-3.854-24.382-3.854-11.023 0-15.733 3.492-15.733 7.104 0 5.237 7.246 7.733 19.944 12.258 17.662 6.325 27.498 11.206 27.498 21.866 0 10.974-12.31 18.891-40.075 18.891-11.408 0-19.271-.748-28.019-2.152z"/><path d="m472.811 79.26h-13.218v50.013h13.218c20.295 0 33.077-8.664 33.077-24.909 0-16.226-12.782-25.104-33.077-25.104m35.473 54.68c-6.536 2.949-18.899 4.84-29.708 4.84h-41.309v-68.835h41.309c10.809 0 23.172 1.91 29.715 4.859 15.904 7.179 21.107 18.673 21.107 29.56 0 10.906-5.154 22.382-21.114 29.576"/><path d="m408.321 101.111s19.268-3.076 19.268-15.069c0-11.734-20.521-16.534-42.351-16.534-19.696 0-32.651 2.409-32.651 2.409v10.658c8.943-2.165 17.498-4.01 29.157-4.01 12.508 0 22.053 3.731 22.053 9.011 0 6.354-9.436 9.982-29.768 9.982h-9.34v9.591h8.686c21.401 0 33.578 3.215 33.578 11.076 0 7.011-10.877 11.268-24.434 11.268-11.83 0-22.642-2.512-31.421-4.936v11.482c4.211.722 15.399 2.964 36.218 2.964 23.076 0 43.138-7.414 43.138-20.49 0-10.961-13.901-17.402-22.133-17.402"/><path d="m15.493 26.878-14.267-1.882c-.428-.059-.824.248-.874.676-.465 3.981-.468 8.003-.016 11.978.05.434.447.738.878.683l14.267-1.864c.422-.053.713-.434.666-.856-.282-2.611-.279-5.253.01-7.876.046-.415-.242-.8-.664-.859"/><path d="m22.732 9.725-11.417-8.763c-.342-.264-.835-.202-1.092.142-2.397 3.222-4.412 6.704-6.003 10.376-.174.393.019.855.419 1.02l13.286 5.525c.391.165.838-.018 1.005-.403 1.064-2.409 2.388-4.697 3.947-6.818.252-.341.19-.819-.145-1.079"/><path d="m17.802 45.356-13.302 5.498c-.394.164-.59.626-.416 1.023 1.588 3.684 3.597 7.169 5.982 10.388.254.344.75.409 1.091.145l11.433-8.744c.335-.254.4-.735.149-1.076-1.554-2.121-2.872-4.412-3.932-6.822-.168-.39-.614-.576-1.005-.412"/><path d="m124.188 41.88h-11.789c-.732 0-1.154.17-1.362.288-.049.034-.099.068-.152.103-.003.003-.012.009-.012.009-1.823 1.212-4.419 2.313-7.758 2.313-8.906 0-12.23-7.371-12.23-12.884 0-5.882 3.56-12.877 12.286-12.877 6.341 0 10.245 3.944 11.243 7.835.112.447.223.881-.236.881h-17.023c-.49 0-.89.397-.89.887v7.318c0 .493.4.893.89.893h23.51c4.862 0 6.146-1.526 6.146-6.09 0-13.228-10.896-22.68-23.457-22.68-12.562 0-23.734 9.619-23.734 22.345 0 13.984 7.842 25.327 23.789 25.327 13.287 0 19.191-7.904 21.628-12.756.093-.208.332-.912-.849-.912"/><path d="m31.171 54.37c-.35 0-.635-.288-.635-.636v-26.034c0-9.882 8.254-19.765 21.665-19.765s21.668 9.883 21.668 19.765v26.034c0 .348-.288.636-.639.636h-10.66c-.354 0-.639-.288-.639-.636v-24.518c0-4.663-3.389-9.346-9.73-9.346-6.344 0-9.734 4.683-9.734 9.346v24.518c0 .348-.285.636-.635.636z"/><path d="m168.306 9.055c.357 0 .639.285.639.635v27.005c0 4.661 2.04 6.859 5.321 6.859 3.277 0 5.693-2.198 5.693-6.859v-27.005c0-.35.282-.635.636-.635h11.221c.351 0 .636.285.636.635v27.908c0 11.001-7.371 17.888-16.323 17.888-3.789 0-9.609-.973-13.804-6.378-3.448 5.405-9.027 6.378-13.058 6.378-8.949 0-16.322-6.887-16.322-17.888v-27.908c0-.35.285-.635.638-.635h11.222c.35 0 .633.285.633.635v27.005c0 4.661 2.549 6.859 5.693 6.859 3.147 0 5.321-2.198 5.321-6.859v-27.005c0-.35.288-.635.638-.635z"/><path d="m209.618 36.512 14.267 1.883c.428.058.828-.242.877-.673.466-3.979.472-8.003.013-11.979-.05-.428-.444-.735-.875-.676l-14.266 1.858c-.422.056-.714.434-.667.856.285 2.61.282 5.255-.009 7.876-.047.418.241.803.66.855"/><path d="m202.387 53.663 11.411 8.769c.347.26.837.198 1.095-.149 2.396-3.215 4.403-6.691 6-10.372.173-.391-.019-.856-.416-1.017l-13.287-5.529c-.391-.161-.834.019-1.008.409-1.057 2.41-2.384 4.692-3.947 6.816-.248.338-.189.819.152 1.073"/><path d="m207.308 18.041 13.302-5.504c.404-.161.593-.62.419-1.02-1.588-3.681-3.594-7.166-5.978-10.382-.258-.347-.751-.409-1.092-.149l-11.432 8.748c-.332.254-.404.732-.146 1.073 1.547 2.118 2.865 4.409 3.925 6.825.174.387.617.573 1.002.409"/></g></svg>