<svg clip-rule="evenodd" fill-rule="evenodd" stroke-linejoin="round" stroke-miterlimit="2" viewBox="0 0 600 150" xmlns="http://www.w3.org/2000/svg"><g fill="#fff"><g fill-rule="nonzero"><path d="m101.518 94.931h-18.514v18.128h5.748v-12.127c0-.768.636-1.406 1.404-1.406h9.955c.764 0 1.407.638 1.407 1.406v12.127h5.741v-12.127s.768-6.001-5.741-6.001"/><path d="m261.462 94.931h-18.515v18.128h5.871v-12.127c0-.768.643-1.406 1.28-1.406h9.96c.762 0 1.404.638 1.404 1.406v12.127h5.739v-12.127s.766-6.001-5.739-6.001"/><path d="m348.646 94.931h-18.512v18.128h5.749v-12.127c0-.768.633-1.406 1.404-1.406h9.955c.762 0 1.404.638 1.404 1.406v12.127h5.743v-12.127s.762-6.001-5.743-6.001"/><path d="m109.814 99.526h6.382c.638 0 1.406.638 1.406 1.406v12.127h6.123v-12.127c0-.768.641-1.406 1.405-1.406h6.382v-4.595h-21.698z"/><path d="m356.812 94.931v4.595h6.386c.761 0 1.404.638 1.404 1.406v12.127h6.385v-12.127c0-.768.506-1.406 1.271-1.406h6.386v-4.595z"/><path d="m182.703 99.526h6.382c.764 0 1.405.638 1.405 1.406v12.127h6.377v-12.127c0-.768.643-1.406 1.411-1.406h6.377v-4.595h-21.952z"/><path d="m232.995 94.931h6.126v18.128h-6.126z"/><path d="m223.164 103.87h-10.334v-3.193c0-.513.764-1.151 1.145-1.151h7.785c.891 0 1.404.638 1.404 1.151zm-.128-8.939h-10.084c-6.51 0-5.996 6.001-5.996 6.001v12.127h5.874v-4.592h10.334v4.592h5.868v-12.127s.766-6.001-5.996-6.001"/><path d="m174.532 102.466c0 .89-.38 1.404-1.149 1.404h-8.425c-.381 0-.891-.514-.891-1.404v-1.789c0-.768.51-1.405 1.274-1.405h8.042c.769 0 1.149.379 1.149 1.405zm-.126-7.535h-16.339v18.128h6v-3.449c0-.766.51-1.143 1.274-1.143h8.042c.381 0 1.149.637 1.149 1.143v3.449h5.742v-2.804s.513-2.562-2.168-4.348c1.787-1.275 2.427-3.185 2.555-4.339.126-.51.126-.891.126-.891s0-5.746-6.381-5.746"/><path d="m58.878 107.059s-.636 6 6.003 6h14.297v-4.592h-13.278c-.893 0-1.661-.774-1.661-1.533 0-.894.642-1.407 1.661-1.407h12.514v-3.189h-12.77c-.763 0-1.405-.638-1.405-1.406s.642-1.406 1.405-1.406h13.534v-4.595h-20.3z"/><path d="m134.196 107.059s-.897 6 5.745 6h14.297v-4.592h-13.278c-.897 0-1.661-.774-1.661-1.533 0-.894.764-1.407 1.661-1.407h12.51v-3.189h-12.51c-.897 0-1.661-.638-1.661-1.406s.764-1.406 1.661-1.406h13.278v-4.595h-20.042z"/><path d="m306.265 107.059s-.642 6 5.872 6h14.424v-4.592h-13.405c-.766 0-1.532-.774-1.532-1.533 0-.894.513-1.407 1.407-1.407h12.507v-3.189h-12.507c-.894 0-1.407-.638-1.407-1.406s.513-1.406 1.407-1.406h13.53v-4.595h-20.296z"/><path d="m296.735 94.955h-25.663v18.125h5.363v-12.124c0-.764.638-1.404 1.404-1.404h4.336c.77 0 1.411.64 1.411 1.404v12.124h5.997v-12.124c0-.764.513-1.404 1.404-1.404h4.597c.509 0 1.151.64 1.151 1.404l.249 12.124h5.743v-12.124s.766-6.001-5.992-6.001"/><path d="m467.965 99.524h6.508c.505 0 1.147.641 1.147 1.404v12.125h6.386l.253-12.125c0-.763.38-1.404 1.151-1.404h6.385v-4.593h-21.83z"/><path d="m541.746 94.931h-25.654v18.122h5.359v-12.125c0-.763.637-1.404 1.403-1.404h4.34c.762 0 1.4.641 1.4 1.404v12.125h6v-12.125c0-.763.51-1.404 1.408-1.404h4.593c.513 0 1.151.641 1.151 1.404l.257 12.125h5.744v-12.125s.762-5.997-6.001-5.997"/><path d="m441.671 94.931h-5.492v6.767c0 .758-.763 1.399-1.399 1.399h-8.175c-.764 0-1.404-.641-1.404-1.399v-6.767h-5.742v6.638s-.637 6.121 6.001 6.121h1.913v5.363h6.384v-5.363h2.168c6.638 0 5.746-5.992 5.746-5.992z"/><path d="m492.217 107.056s-.893 5.997 5.745 5.997h14.295v-4.596h-13.273c-.894 0-1.664-.639-1.664-1.533 0-.89.77-1.271 1.664-1.271h12.507v-3.197h-12.507c-.894 0-1.664-.758-1.664-1.528 0-.763.77-1.404 1.664-1.404h13.273v-4.593h-20.04z"/><path d="m460.051 102.327h-8.555c-1.019 0-1.655-.377-1.655-1.267 0-.774.636-1.536 1.4-1.536h14.552v-4.593h-15.952c-2.938 0-5.487 2.423-5.487 5.234 0 3.956 2.549 5.488 5.997 5.488h8.551c.895 0 1.789.381 1.789 1.271 0 .766-.64 1.533-1.408 1.533h-14.929v4.596h16.337c2.679 0 5.489-2.17 5.489-5.235 0-3.697-2.938-5.491-6.129-5.491"/><path d="m411.417 102.327h-8.296c-1.023 0-1.787-.377-1.787-1.267 0-.774.764-1.536 1.532-1.536h14.552v-4.593h-15.958c-3.191 0-5.746 2.423-5.746 5.234 0 3.956 2.81 5.488 6.256 5.488h8.296c1.023 0 1.787.381 1.787 1.271 0 .766-.764 1.533-1.532 1.533h-14.807v4.596h16.339c2.937 0 5.62-2.17 5.62-5.235 0-3.697-2.81-5.491-6.256-5.491"/></g><path d="m520.914.127h-441.828c-47.31-.111-79.086 33.903-79.086 74.68 0 40.768 31.699 74.389 79.154 74.406h441.692c47.446-.017 79.154-33.638 79.154-74.406 0-40.777-31.785-74.791-79.086-74.68zm-.214 130.811h-441.4c-37.712.128-60.632-25.184-60.632-56.234 0-31.059 23.066-56.165 60.632-56.234h441.4c37.566.069 60.624 25.175 60.624 56.234 0 31.05-22.912 56.362-60.624 56.234z"/><path d="m177.917 49.996h16.811v37.18h-16.811z"/><path d="m288.204 50.064v-5.531h-9.11v-7.518h-16.824l.014 7.524-9.151.007v5.518h9.144l-.014 37.111h16.845l-.014-37.111z"/><path d="m151.024 70.255-24.104-38.989h-17.416l-.007 55.909h17.314v-38.989l24.226 38.989h17.253v-55.909h-17.28z"/><path d="m370.741 48.281c-5.565.157-10.192 2.538-13.416 5.606-.014-.918 0-3.905 0-3.905l-16.682.007-.007 37.179h16.689s-.014-22.838-.014-24.423c0-3.239 3.402-6.844 7.98-6.844 4.586 0 7.681 3.605 7.681 6.844v24.423h16.709s-.007-17.613 0-20.232c.095-14.723-12.661-18.839-18.94-18.655z"/><path d="m234.098 48.281c-5.558.157-10.191 2.538-13.409 5.606-.014-.918 0-3.905 0-3.905l-16.709.007.014 37.179h16.695s-.014-22.838-.014-24.423c0-3.239 3.402-6.844 7.98-6.844 4.579 0 7.681 3.605 7.681 6.844v24.423h16.709s-.021-17.613 0-20.232c.088-14.723-12.668-18.839-18.947-18.655z"/><path d="m472.564 47.451c-13.572 0-24.573 9.355-24.573 20.879 0 11.532 11.001 20.879 24.573 20.879 13.573 0 24.574-9.347 24.574-20.879 0-11.524-11.001-20.879-24.574-20.879zm6.742 28.71c0 5.925-3.503 8.368-6.871 8.368-3.374 0-6.892-2.443-6.892-8.368 0-2.252.007-8.021.007-8.021s.007-5.497.007-7.756c0-5.892 3.524-8.32 6.871-8.32 3.361 0 6.872 2.428 6.872 8.32 0 2.259 0 6.422.02 7.919 0 .088-.014 5.619-.014 7.858z"/><path d="m425.921 51.832c-2.68-1.51-5.524-2.966-9.51-3.313-12.117-1.068-21.383 9.647-21.383 19.464 0 12.94 9.994 17.729 11.504 18.437 5.661 2.633 12.92 2.64 19.355-1.402 0 .347.007 2.15.007 2.15h16.621v-55.902h-16.594zm.123 16.559s.007 4.212.007 6.6c0 5.741-3.98 7.245-6.599 7.245-2.667 0-6.586-1.504-6.586-7.245 0-1.973.007-6.613.007-6.613s-.007-4.722-.007-6.627c0-5.755 3.919-7.218 6.592-7.218 2.613 0 6.586 1.463 6.586 7.218z"/><path d="m335.548 68.738c0-11.524-11.137-21.076-24.812-21.076-13.668 0-24.757 9.341-24.757 20.872 0 11.525 11.089 20.873 24.757 20.873 11.355 0 20.927-6.47 23.852-15.253l-16.756.013s.014.164.014 2.252c0 6.803-4.47 8.314-6.96 8.314-2.477 0-7.028-1.511-7.028-8.314 0-2.034.014-7.674.014-7.674s31.676.014 31.676-.007zm-30.574-13.075c1.313-2.293 3.728-3.388 5.912-3.395 2.19.007 4.606 1.102 5.912 3.395 1.075 1.857 1.122 4.034 1.102 7.286h-14.035c-.027-3.252.041-5.429 1.109-7.286z"/><path d="m177.876 31.246h16.852v11.429h-16.852z"/></g></svg>