<svg clip-rule="evenodd" fill-rule="evenodd" stroke-linejoin="round" stroke-miterlimit="2" viewBox="0 0 600 181" xmlns="http://www.w3.org/2000/svg"><g fill="#fff" fill-rule="nonzero"><path d="m206.116 9.951-31.884 124.895s-24.328-93.745-28.29-107.047c-3.958-13.311-12.131-19.145-23.693-19.145-11.568 0-19.738 5.834-23.69 19.145-3.967 13.302-28.323 107.047-28.323 107.047l-31.856-124.895h-38.38s36.838 133.249 41.847 148.679c3.917 12.046 13.134 21.899 26.827 21.899 15.656 0 22.971-11.412 26.357-21.899 3.353-10.412 27.218-98.433 27.218-98.433s23.85 88.021 27.221 98.433c3.356 10.487 10.698 21.899 26.345 21.899 13.684 0 22.917-9.853 26.821-21.899 4.997-15.43 41.841-148.679 41.841-148.679zm131.604 169.289h36.321v-117.538h-36.321zm-3.51-158.615c0 11.325 9.531 20.512 21.276 20.512 12.195 0 21.776-9.013 21.776-20.512 0-11.529-9.581-20.547-21.776-20.547-11.745 0-21.276 9.208-21.276 20.547m-70.32 158.615h36.306v-117.538h-36.306zm17.739-179.162c12.206 0 21.772 9.018 21.772 20.547 0 11.499-9.566 20.512-21.772 20.512-11.752 0-21.294-9.187-21.294-20.512 0-11.339 9.542-20.547 21.294-20.547"/><path d="m576.105.077h-20.382v63.196c0 30.493-17.609 46.946-45.947 46.946-28.332 0-45.941-16.453-45.941-46.946v-63.196h-20.382c-14.894 0-23.901 9.006-23.901 23.895l.012 77.274c0 22.42 11.746 34.168 34.16 34.168h112.098c22.417 0 34.166-11.748 34.166-34.168l.012-77.274c0-14.889-9.009-23.895-23.895-23.895m-66.329 89.923c13.588 0 23.841-10.584 23.841-27.233v-62.69h-47.669v62.69c0 16.649 10.24 27.233 23.828 27.233"/><path d="m206.116 9.951-31.884 124.895s-24.328-93.745-28.29-107.047c-3.958-13.311-12.131-19.145-23.693-19.145-11.568 0-19.738 5.834-23.69 19.145-3.967 13.302-28.323 107.047-28.323 107.047l-31.856-124.895h-38.38s36.838 133.249 41.847 148.679c3.917 12.046 13.134 21.899 26.827 21.899 15.656 0 22.971-11.412 26.357-21.899 3.353-10.412 27.218-98.433 27.218-98.433s23.85 88.021 27.221 98.433c3.356 10.487 10.698 21.899 26.345 21.899 13.684 0 22.917-9.853 26.821-21.899 4.997-15.43 41.841-148.679 41.841-148.679zm131.604 169.289h36.321v-117.538h-36.321zm-3.51-158.615c0 11.325 9.531 20.512 21.276 20.512 12.195 0 21.776-9.013 21.776-20.512 0-11.529-9.581-20.547-21.776-20.547-11.745 0-21.276 9.208-21.276 20.547m-70.32 158.615h36.306v-117.538h-36.306zm17.739-179.162c12.206 0 21.772 9.018 21.772 20.547 0 11.499-9.566 20.512-21.772 20.512-11.752 0-21.294-9.187-21.294-20.512 0-11.339 9.542-20.547 21.294-20.547"/><path d="m576.105.077h-20.382v63.196c0 30.493-17.609 46.946-45.947 46.946-28.332 0-45.941-16.453-45.941-46.946v-63.196h-20.382c-14.894 0-23.901 9.006-23.901 23.895l.012 77.274c0 22.42 11.746 34.168 34.16 34.168h112.098c22.417 0 34.166-11.748 34.166-34.168l.012-77.274c0-14.889-9.009-23.895-23.895-23.895m-66.329 89.923c13.588 0 23.841-10.584 23.841-27.233v-62.69h-47.669v62.69c0 16.649 10.24 27.233 23.828 27.233"/></g></svg>