<svg clip-rule="evenodd" fill-rule="evenodd" stroke-linejoin="round" stroke-miterlimit="2" viewBox="0 0 600 83" xmlns="http://www.w3.org/2000/svg"><g fill="#fff" fill-rule="nonzero"><path d="m295.924 75.616c0 .717-.591 1.277-1.293 1.277h-24.73c-.725 0-1.308-.56-1.308-1.277v-17.904c0-.714.583-1.305 1.308-1.297l24.73-.008c.702.008 1.293.591 1.293 1.305zm-1.067-24.581h-25.194c-3.641 0-6.611 3.008-6.611 6.635v17.984c0 3.626 2.97 6.611 6.611 6.611h25.194c3.63 0 6.596-2.985 6.596-6.611v-17.984c0-3.627-2.966-6.635-6.596-6.635"/><path d="m.009 16.051h4.923l23.387 22.742v-22.742h5.713c-.011.337-.011 30.888 0 31.233h-4.524l-23.728-23.133v23.133h-5.771c-.012-.345-.012-30.896 0-31.233"/><path d="m63.718 24.149v23.138h-5.786v-31.238h4.934l23.418 22.746v-22.746h5.725v31.238h-4.524z"/><path d="m183.888 24.149v23.138h-5.775v-31.238h4.923l23.426 22.746v-22.746h5.721v31.238h-4.524z"/><path d="m43.075 16.051h5.786v31.233h-5.786z"/><path d="m98.568 16.051h33.889v5.36h-13.952v25.873h-6.001v-25.873h-13.936z"/><path d="m139.006 16.051h30.52v5.36h-24.795l.004 7.022h19.189v5.376h-19.189l-.004 8.092h24.795v5.383h-30.52z"/><path d="m244.334 41.899h-17.769v-20.49h17.769c5.549 0 7.528 5.545 7.528 10.26 0 4.709-1.979 10.23-7.528 10.23m9.482-21.284c-2.257-2.97-5.603-4.566-9.643-4.566h-23.184v31.237h23.184c4.04 0 7.386-1.588 9.643-4.558 2.133-2.782 3.246-6.6 3.246-11.059 0-4.462-1.113-8.292-3.246-11.054"/><path d="m295.924 40.628c0 .691-.591 1.27-1.293 1.27h-24.73c-.725 0-1.308-.579-1.308-1.27v-17.919c0-.694.583-1.301 1.308-1.301h24.73c.702 0 1.293.607 1.293 1.305zm-1.067-24.576h-25.194c-3.641 0-6.611 2.981-6.611 6.634v17.981c0 3.633 2.97 6.619 6.611 6.619h25.194c3.63 0 6.596-2.986 6.596-6.619v-17.981c0-3.653-2.966-6.634-6.596-6.634"/><path d="m399.94 69.093c5.993 2.375 18.652 4.279 28.54 4.279 10.82 0 15.294-3.711 15.294-8.361 0-4.175-4.159-6.639-16.1-11.005-15.974-5.898-27.688-10.556-27.688-21.031 0-10.855 14.082-17.259 35.581-17.259 11.546 0 15.494.736 22.831 2.075l.046 10.315c-7.187-1.374-13.572-3.73-23.48-3.73-10.617 0-15.148 3.369-15.133 6.853 0 5.03 6.957 7.444 19.185 11.791 17.014 6.101 26.496 10.809 26.496 21.058-.027 10.568-11.865 18.188-38.598 18.188-10.982 0-18.56-.733-26.974-2.068z"/><path d="m342.968 24.826h-12.758v48.167h12.758c19.581 0 31.909-8.358 31.909-23.986 0-15.629-12.328-24.181-31.909-24.181m34.208 52.66c-6.305 2.839-18.219 4.646-28.648 4.646h-39.856v-66.274h39.856c10.425 0 22.343 1.842 28.648 4.678 15.329 6.922 20.328 17.98 20.328 28.471 0 10.49-4.953 21.537-20.328 28.479"/><path d="m503.37.536c-12.693 0-22.992 10.291-22.992 22.985 0 12.708 10.299 22.995 22.992 22.995s23.019-10.287 23.019-22.995c0-12.694-10.326-22.985-23.019-22.985m3.45 39.465h-6.88v-20.985h6.88zm-3.481-24.918c-2.229 0-4.036-1.738-4.036-3.887 0-2.164 1.807-3.899 4.036-3.899 2.303 0 4.129 1.708 4.129 3.899 0 2.175-1.826 3.887-4.129 3.887"/><path d="m570.744 82.266-13.523-20.755 12.99-19.949h-7.682l-9.149 14.05-9.148-14.05h-7.599l12.947 19.88-13.558 20.824h7.69l9.711-14.922 9.719 14.922z"/><path d="m574.882 41.562v30.262s-.037 10.442 10.436 10.442h14.682v-6.183h-14.189s-4.288-.15-4.288-4.837v-29.684z"/></g></svg>