<svg clip-rule="evenodd" fill-rule="evenodd" stroke-linejoin="round" stroke-miterlimit="2" viewBox="0 0 600 139" xmlns="http://www.w3.org/2000/svg"><g fill="#fff" fill-rule="nonzero"><path d="m337.883 131.495c0 .747-.611 1.352-1.349 1.352h-25.709c-.75 0-1.342-.605-1.342-1.352v-18.59c0-.738.592-1.336 1.342-1.336h25.709c.738 0 1.349.598 1.349 1.336zm-1.113-25.514h-26.18c-3.793 0-6.872 3.101-6.872 6.884v18.679c0 3.771 3.079 6.878 6.872 6.878h26.18c3.795 0 6.877-3.107 6.877-6.878v-18.679c0-3.783-3.082-6.884-6.877-6.884"/><path d="m36.532 78.049v24.035h-6.006v-32.447h5.129l24.323 23.622v-23.622h5.931v32.447h-4.694z"/><path d="m96.747 78.049v24.035h-6.012v-32.447h5.128l24.317 23.622v-23.622h5.935v32.447h-4.689z"/><path d="m221.519 78.049v24.035h-6.003v-32.447h5.125l24.317 23.622v-23.622h5.938v32.447h-4.685z"/><path d="m75.308 69.637h6.006v32.447h-6.006z"/><path d="m132.917 69.637h35.191v5.588h-14.475v26.859h-6.239v-26.859h-14.477z"/><path d="m174.92 69.637h31.681v5.588h-25.734v7.274h19.911v5.572h-19.911v8.419h25.734v5.594h-31.681z"/><path d="m284.279 96.49h-18.44v-21.265h18.44c5.768 0 7.824 5.727 7.824 10.623 0 4.915-2.056 10.642-7.824 10.642m9.858-22.106c-2.345-3.101-5.83-4.747-10.025-4.747h-24.062v32.447h24.062c4.195 0 7.68-1.644 10.025-4.738 2.198-2.884 3.361-6.856 3.361-11.498 0-4.617-1.163-8.599-3.361-11.464"/><path d="m337.883 95.156c0 .732-.611 1.34-1.349 1.34h-25.709c-.75 0-1.342-.608-1.342-1.34v-18.598c0-.732.592-1.327 1.342-1.327h25.709c.738 0 1.349.595 1.349 1.327zm-1.113-25.519h-26.18c-3.793 0-6.872 3.104-6.872 6.884v18.688c0 3.765 3.079 6.875 6.872 6.875h26.18c3.795 0 6.877-3.11 6.877-6.875v-18.688c0-3.78-3.082-6.884-6.877-6.884"/><path d="m531.906 124.806c6.245 2.459 19.38 4.444 29.644 4.444 11.228 0 15.892-3.848 15.892-8.682 0-4.351-4.335-6.894-16.742-11.433-16.57-6.133-28.738-10.971-28.738-21.855 0-11.277 14.636-17.91 36.959-17.91 11.969 0 16.087.763 23.699 2.152l.053 10.704c-7.476-1.426-14.09-3.854-24.382-3.854-11.023 0-15.733 3.491-15.733 7.104 0 5.237 7.246 7.733 19.944 12.257 17.662 6.326 27.498 11.207 27.498 21.867 0 10.974-12.31 18.89-40.075 18.89-11.408 0-19.271-.747-28.019-2.152z"/><path d="m472.811 78.831h-13.218v50.013h13.218c20.295 0 33.077-8.664 33.077-24.909 0-16.227-12.782-25.104-33.077-25.104m35.473 54.679c-6.536 2.949-18.899 4.841-29.708 4.841h-41.309v-68.835h41.309c10.809 0 23.172 1.91 29.715 4.859 15.904 7.178 21.107 18.673 21.107 29.56 0 10.905-5.154 22.381-21.114 29.575"/><path d="m408.321 100.682s19.268-3.076 19.268-15.07c0-11.733-20.521-16.533-42.351-16.533-19.696 0-32.651 2.409-32.651 2.409v10.658c8.943-2.165 17.498-4.01 29.157-4.01 12.508 0 22.053 3.73 22.053 9.011 0 6.354-9.436 9.982-29.768 9.982h-9.34v9.59h8.686c21.401 0 33.578 3.216 33.578 11.076 0 7.011-10.877 11.269-24.434 11.269-11.83 0-22.642-2.512-31.421-4.937v11.483c4.211.722 15.399 2.964 36.218 2.964 23.076 0 43.138-7.414 43.138-20.49 0-10.962-13.901-17.402-22.133-17.402"/><path d="m15.493 26.449-14.267-1.882c-.428-.059-.824.248-.874.676-.465 3.981-.468 8.003-.016 11.978.05.434.447.738.878.682l14.267-1.863c.422-.053.713-.434.666-.856-.282-2.611-.279-5.253.01-7.876.046-.416-.242-.8-.664-.859"/><path d="m22.732 9.295-11.417-8.763c-.342-.263-.835-.201-1.092.143-2.397 3.222-4.412 6.704-6.003 10.375-.174.394.019.856.419 1.02l13.286 5.526c.391.164.838-.019 1.005-.403 1.064-2.409 2.388-4.698 3.947-6.819.252-.341.19-.818-.145-1.079"/><path d="m17.802 44.927-13.302 5.497c-.394.165-.59.627-.416 1.024 1.588 3.683 3.597 7.169 5.982 10.387.254.344.75.41 1.091.146l11.433-8.744c.335-.255.4-.735.149-1.076-1.554-2.121-2.872-4.413-3.932-6.822-.168-.391-.614-.577-1.005-.412"/><path d="m124.188 41.451h-11.789c-.732 0-1.154.17-1.362.288-.049.034-.099.068-.152.102-.003.003-.012.01-.012.01-1.823 1.212-4.419 2.313-7.758 2.313-8.906 0-12.23-7.371-12.23-12.884 0-5.882 3.56-12.878 12.286-12.878 6.341 0 10.245 3.945 11.243 7.836.112.447.223.881-.236.881h-17.023c-.49 0-.89.397-.89.886v7.318c0 .493.4.893.89.893h23.51c4.862 0 6.146-1.525 6.146-6.09 0-13.228-10.896-22.679-23.457-22.679-12.562 0-23.734 9.619-23.734 22.345 0 13.984 7.842 25.327 23.789 25.327 13.287 0 19.191-7.904 21.628-12.757.093-.208.332-.911-.849-.911"/><path d="m31.171 53.941c-.35 0-.635-.289-.635-.636v-26.034c0-9.883 8.254-19.765 21.665-19.765s21.668 9.882 21.668 19.765v26.034c0 .347-.288.636-.639.636h-10.66c-.354 0-.639-.289-.639-.636v-24.518c0-4.664-3.389-9.346-9.73-9.346-6.344 0-9.734 4.682-9.734 9.346v24.518c0 .347-.285.636-.635.636z"/><path d="m168.306 8.625c.357 0 .639.286.639.636v27.005c0 4.661 2.04 6.859 5.321 6.859 3.277 0 5.693-2.198 5.693-6.859v-27.005c0-.35.282-.636.636-.636h11.221c.351 0 .636.286.636.636v27.907c0 11.002-7.371 17.889-16.323 17.889-3.789 0-9.609-.974-13.804-6.378-3.448 5.404-9.027 6.378-13.058 6.378-8.949 0-16.322-6.887-16.322-17.889v-27.907c0-.35.285-.636.638-.636h11.222c.35 0 .633.286.633.636v27.005c0 4.661 2.549 6.859 5.693 6.859 3.147 0 5.321-2.198 5.321-6.859v-27.005c0-.35.288-.636.638-.636z"/><path d="m209.618 36.083 14.267 1.882c.428.059.828-.242.877-.673.466-3.978.472-8.003.013-11.978-.05-.428-.444-.735-.875-.676l-14.266 1.857c-.422.056-.714.434-.667.856.285 2.611.282 5.256-.009 7.876-.047.419.241.803.66.856"/><path d="m202.387 53.234 11.411 8.769c.347.26.837.198 1.095-.149 2.396-3.216 4.403-6.692 6-10.372.173-.391-.019-.856-.416-1.017l-13.287-5.529c-.391-.161-.834.018-1.008.409-1.057 2.409-2.384 4.692-3.947 6.816-.248.338-.189.818.152 1.073"/><path d="m207.308 17.612 13.302-5.504c.404-.162.593-.621.419-1.021-1.588-3.68-3.594-7.165-5.978-10.381-.258-.347-.751-.409-1.092-.149l-11.432 8.748c-.332.254-.404.731-.146 1.072 1.547 2.118 2.865 4.41 3.925 6.825.174.388.617.574 1.002.41"/></g></svg>