<svg clip-rule="evenodd" fill-rule="evenodd" stroke-linejoin="round" stroke-miterlimit="2" viewBox="0 0 600 74" xmlns="http://www.w3.org/2000/svg"><g fill="#fff" fill-rule="nonzero"><path d="m323.832 66.435c0 .787-.643 1.424-1.421 1.424h-27.087c-.79 0-1.414-.637-1.414-1.424v-19.586c0-.778.624-1.408 1.414-1.408h27.087c.778 0 1.421.63 1.421 1.408zm-1.173-26.881h-27.583c-3.996 0-7.24 3.267-7.24 7.253v19.68c0 3.973 3.244 7.246 7.24 7.246h27.583c3.999 0 7.247-3.273 7.247-7.246v-19.68c0-3.986-3.248-7.253-7.247-7.253"/><path d="m6.328 10.124v25.323h-6.328v-34.186h5.404l25.626 24.888v-24.888h6.25v34.186h-4.946z"/><path d="m69.77 10.124v25.323h-6.334v-34.186h5.403l25.62 24.888v-24.888h6.253v34.186h-4.939z"/><path d="m201.231 10.124v25.323h-6.325v-34.186h5.4l25.62 24.888v-24.888h6.257v34.186h-4.937z"/><path d="m47.182 1.261h6.329v34.186h-6.329v-34.186z"/><path d="m107.879 1.261h37.077v5.887h-15.25v28.299h-6.573v-28.299h-15.254v-5.887z"/><path d="m152.134 1.261h33.379v5.887h-27.113v7.665h20.978v5.87h-20.978v8.87h27.113v5.894h-33.379v-34.186z"/><path d="m267.355 29.553h-19.429v-22.405h19.429c6.077 0 8.243 6.034 8.243 11.193 0 5.178-2.166 11.212-8.243 11.212m10.386-23.29c-2.47-3.267-6.142-5.002-10.562-5.002h-25.352v34.186h25.352c4.42 0 8.092-1.731 10.562-4.992 2.316-3.038 3.542-7.223 3.542-12.114 0-4.865-1.226-9.059-3.542-12.078"/><path d="m323.832 28.149c0 .771-.643 1.411-1.421 1.411h-27.087c-.79 0-1.414-.64-1.414-1.411v-19.596c0-.771.624-1.398 1.414-1.398h27.087c.778 0 1.421.627 1.421 1.398zm-1.173-26.888h-27.583c-3.996 0-7.24 3.27-7.24 7.253v19.69c0 3.966 3.244 7.243 7.24 7.243h27.583c3.999 0 7.247-3.277 7.247-7.243v-19.69c0-3.983-3.248-7.253-7.247-7.253"/><path d="m528.256 59.388c6.58 2.591 20.419 4.681 31.233 4.681 11.83 0 16.743-4.054 16.743-9.147 0-4.584-4.567-7.263-17.638-12.046-17.459-6.462-30.279-11.558-30.279-23.026 0-11.882 15.42-18.87 38.94-18.87 12.61 0 16.949.804 24.969 2.267l.056 11.278c-7.877-1.503-14.845-4.061-25.689-4.061-11.614 0-16.576 3.679-16.576 7.485 0 5.518 7.635 8.148 21.013 12.914 18.609 6.665 28.972 11.807 28.972 23.039 0 11.562-12.97 19.903-42.223 19.903-12.019 0-20.304-.787-29.521-2.267z"/><path d="m465.993 10.948h-13.927v52.693h13.927c21.383 0 34.85-9.128 34.85-26.244 0-17.096-13.467-26.449-34.85-26.449m37.375 57.61c-6.887 3.107-19.912 5.1-31.301 5.1h-43.523v-72.524h43.523c11.389 0 24.414 2.012 31.308 5.119 16.756 7.563 22.238 19.674 22.238 31.144 0 11.491-5.43 23.582-22.245 31.161"/><path d="m398.046 33.97s20.301-3.24 20.301-15.877c0-12.363-21.621-17.42-44.621-17.42-20.752 0-34.402 2.538-34.402 2.538v11.229c9.423-2.28 18.436-4.224 30.72-4.224 13.179 0 23.235 3.93 23.235 9.494 0 6.694-9.941 10.516-31.363 10.516h-9.84v10.105h9.151c22.549 0 35.378 3.388 35.378 11.67 0 7.387-11.461 11.872-25.744 11.872-12.464 0-23.856-2.646-33.105-5.201v12.098c4.437.761 16.224 3.123 38.159 3.123 24.313 0 45.451-7.811 45.451-21.588 0-11.549-14.646-18.335-23.32-18.335"/></g></svg>