<svg clip-rule="evenodd" fill-rule="evenodd" stroke-linejoin="round" stroke-miterlimit="2" viewBox="0 0 600 355" xmlns="http://www.w3.org/2000/svg"><g fill="#fff" fill-rule="nonzero"><path d="m33.121 85.448h29.352v-65.22h-19.859v37.398h-.171l-13.094-37.398h-29.349v65.22h19.848v-37.646h.178z"/><path d="m143.85 85.448h29.349v-65.22h-19.845v37.398h-.18l-13.095-37.398h-29.346v65.22h19.856v-37.646h.171z"/><path d="m334.518 85.448h29.355v-65.22h-19.853v37.398h-.178l-13.093-37.398h-29.351v65.22h19.851v-37.646h.174z"/><path d="m74.462 20.228h24.482v65.22h-24.482z"/><path d="m195.857 37.945h-15.557v-17.717h55.642v17.717h-15.61v47.503h-24.475z"/><path d="m243.171 20.21h48.414v17.251h-24.321v6.82h22.393v16.721h-22.393v7.317h25.097v17.107h-49.19z"/><path d="m374.408 20.228h29.003c24.737 0 32.61 14.001 32.61 33.331 0 19.694-12.149 31.891-31.146 31.891h-30.467zm23.964 50.401h2.386c3.937 0 6.576-1.207 8.118-3.827 1.626-2.712 1.807-7.65 1.807-13.967 0-6.321-.186-11.25-1.807-13.966-1.542-2.623-4.181-3.83-8.118-3.83h-2.386z"/><path d="m474.395 18.517c21.312 0 31.916 13.996 31.916 34.32 0 20.329-10.607 34.329-31.916 34.329-21.314 0-31.918-14-31.918-34.329 0-20.324 10.6-34.32 31.918-34.32zm0 52.12c3.76 0 6.593-1.848 6.593-17.802 0-15.593-2.663-17.796-6.593-17.796-3.933 0-6.592 2.203-6.592 17.796 0 15.955 2.826 17.802 6.592 17.802z"/><path d="m33.121 85.448h29.352v-65.22h-19.859v37.398h-.171l-13.094-37.398h-29.349v65.22h19.848v-37.646h.178z"/><path d="m143.85 85.448h29.349v-65.22h-19.845v37.398h-.18l-13.095-37.398h-29.346v65.22h19.856v-37.646h.171z"/><path d="m334.518 85.448h29.355v-65.22h-19.853v37.398h-.178l-13.093-37.398h-29.351v65.22h19.851v-37.646h.174z"/><path d="m74.462 20.228h24.482v65.22h-24.482z"/><path d="m195.857 37.945h-15.557v-17.717h55.642v17.717h-15.61v47.503h-24.475z"/><path d="m243.171 20.21h48.414v17.251h-24.321v6.82h22.393v16.721h-22.393v7.317h25.097v17.107h-49.19z"/><path d="m550.095 11.556c-1.303-.114-2.569-.061-4.336.019-10.327.478-14.504 4.879-15.919 9.85h.249c2.572-2.247 5.751-3.296 10.009-3.296 8.19 0 15.672 5.956 15.672 17.13 0 10.692-8.219 19.02-19.251 19.02-14.532 0-20.854-11.099-20.854-22.999 0-9.668 3.43-17.855 9.06-23.136 5.358-4.964 12.267-7.471 20.722-7.665 2.24-.129 3.57 0 4.648.098zm-13.76 32.206c3.349 0 5.38-3.42 5.38-7.789-.027-3.688-1.716-7.707-6.206-7.707-2.744 0-4.881 1.738-5.689 3.838-.314.644-.431 1.561-.431 3.117.287 4.167 2.296 8.543 6.863 8.543z"/><path d="m581.376 53.4v-11.704h-21.758v-9.352l17.47-31.129h17.383v29.759h5.529v10.722h-5.529v11.704zm0-22.426v-8.968c0-3.314.199-6.758.368-10.387h-.284c-1.618 3.522-3.025 6.875-4.865 10.514l-4.274 8.685-.046.158z"/><path d="m175.371 156.55v146.729s31.742 13.331 31.742 13.331v-77.183l.012-.223.034-.216.057-.209.095-.24.124-.224.149-.207.174-.187.197-.166.216-.14.195-.097.207-.077.238-.058.242-.031.261-.001.256.031.248.062.239.091.225.121.21.147.191.173.17.198.123.183.065.118 33.684 65.397.013.025 18.756 36.414s34.429 14.566 34.429 14.566v-151.045l-33.853-12.968v75.977c0 .955-.651 1.787-1.578 2.018-.159.04-.32.06-.478.062h-.043c-.749-.007-1.454-.42-1.818-1.105l-52.434-98.789zm249.258 0-31.742 12.243v94.509c0 .908-.589 1.711-1.454 1.984-.19.059-.383.091-.574.095l-.042.001c-.669.003-1.315-.318-1.714-.888l-51.861-74.128-35.16 13.466v151.045l33.853-14.322v-89.715l.015-.247.043-.241.071-.231.096-.22.12-.207.155-.205.181-.188.199-.159.209-.13.225-.105.233-.077.244-.049.263-.02.26.013.268.048.182.054.228.095.2.111.137.095.157.131.111.109c.02.022.04.044.059.066.026.03.051.061.075.092l51.816 67.625 33.147-13.921zm-213.357 159.994 28.745-12.729-28.745-55.808zm173.403-1.389-34.544-13.271s-10.036-14.068-10.036-14.068v-30.842zm-124.765-126.831v70.162s-47.781-90.023-47.781-90.023 31.939-12.319 31.939-12.319zm128.818-19.531-33.215-12.811-18.389 20.723c-.058.091-.124.177-.197.259l-5.468 6.135 3.971 1.524 3.329 1.275c.421.161.767.45 1.002.812l48.967 69.991zm-117.211 17.63 28.486-10.916 32.198 12.333-32.199 12.334-32.194-12.332zm-24.075-32.843 15.576 31.639 6.312-2.417 27.688-49.413-31.455-12.237zm79.861 27.925 5.992-6.752v-53.114l-31.844 12.349-26.05 46.488 23.858-9.139.227-.072.233-.046.236-.019.236.008.235.035.23.062.09.032zm-87.995-27.984-30.116 11.616-30.115-11.616 30.115-11.586zm121.389-.002 30.111 11.618 30.115-11.616-30.115-11.586zm-90.305-34.951 29.609-11.402 29.612 11.44-29.609 11.482z"/></g></svg>