<svg clip-rule="evenodd" fill-rule="evenodd" stroke-linejoin="round" stroke-miterlimit="2" viewBox="0 0 600 616" xmlns="http://www.w3.org/2000/svg"><g fill="#fff"><path d="m105.672 569.353-35.35 46.2h44.22v-10.476h-19.714l18.239-22.956 24.694 33.432h18.337l-35.667-46.2z"/><path d="m404.007 605.077v-35.72h-16.514v34.693c0 8.731 3.885 11.507 15.954 11.507h37.012c12.1 0 15.964-2.776 15.964-11.507v-34.693h-16.504v35.72z"/><path d="m196.174 615.553 18.909-24.693v24.693h15.206l.041-46.2h-15.185l-25.088 32.717-25.094-32.717h-15.133l.016 46.2h15.185v-24.693l18.934 24.693z"/><path d="m254.105 596.436h27.02v-9.711h-27.02v-7.657h46.323v-9.715h-62.817v46.2h63.373v-10.476h-46.879z"/><path d="m553.11 596.436h27.01v-9.711h-27.01v-7.657h46.334v-9.715h-62.869v46.2h63.425v-10.476h-46.89z"/><path d="m72.295 587.748h-38.383v9.746h22.253v7.579h-39.708v-25.709h55.178v-10.011h-55.697c-12.074 0-15.938 2.784-15.938 11.476v23.213c0 8.731 3.869 11.507 15.938 11.507h40.424c12.054 0 15.933-2.776 15.933-11.507z"/><path d="m364.928 569.353h-36.129c-12.111 0-15.954 2.784-15.954 11.491v23.198c0 8.731 3.843 11.499 15.954 11.499h36.129c12.069 0 15.964-2.768 15.964-11.499v-8.418h-16.504v9.449h-35.054v-25.693h35.054v8.368h16.504v-6.904c0-8.707-3.895-11.491-15.964-11.491z"/><path d="m523.665 591.805c3.967-1.41 6.148-4.042 6.148-7.474v-5.4c0-6.552-4.637-9.578-14.613-9.578h-51.528v46.2h47.944c12.475 0 18.774-3.249 18.774-9.777v-5.592c0-3.932-2.384-6.845-6.725-8.379zm-8.715 10.745c0 2.234-.638 2.839-5.13 2.839h-29.638v-8.938h29.638c4.492 0 5.13.625 5.13 2.816zm-34.768-23.908h29.575c4.575 0 4.788.738 4.788 2.074v4.201c0 1.335-.213 2.081-4.788 2.081h-29.575z"/><path d="m428.951 556.589v-35.506h-8.98v22.647l-15.273-22.647h-12.121v35.506h8.974v-27.681l18.493 27.681z"/><path d="m168.702 528.908 18.519 27.681h8.881v-35.506h-8.969v22.647l-15.289-22.647h-12.137v35.506h8.995z"/><path d="m21.531 528.908 18.493 27.681h8.881v-35.506h-9.005v22.647l-15.248-22.647h-12.105v35.506h8.984z"/><path d="m99.243 521.083h10.137v35.505h-10.137z"/><path d="m251.596 556.589h9.618v-29.84h15.154v-5.638h-39.946v5.638h15.174z"/><path d="m313.51 547.463c0 4.932 6.341 8.919 14.261 9.126h20.804v-5.623h-19.921c-3.106 0-6.289-1.539-6.289-3.694v-6.423h26.21v-5.674h-26.21v-4.763c0-2.144 3.183-3.702 6.289-3.702h19.921v-5.623h-20.467c-8.085.121-14.598 4.155-14.598 9.149z"/><path d="m588.59 530.002c0-5.061-6.735-9.153-14.951-9.153h-8.023c-8.226 0-14.941 4.092-14.941 9.153v17.68c0 5.076 6.715 9.176 14.941 9.176h8.023c8.216 0 14.951-4.096 14.951-9.176zm-8.927 17.5c0 2.14-3.204 3.905-6.299 3.905h-7.473c-3.116 0-6.31-1.765-6.31-3.905v-17.305c0-2.191 3.194-3.917 6.31-3.917h7.473c3.095 0 6.299 1.726 6.299 3.917z"/><path d="m494.858 556.589c8.267 0 14.941-4.1 14.941-9.169v-17.149c0-5.084-6.674-9.192-14.941-9.192h-21.827v35.506h21.827zm-12.942-30.059h12.667c3.136 0 6.32 1.789 6.32 3.944v16.767c0 2.311-3.298 3.889-6.32 3.889h-12.667z"/><path d="m184.495 315.391 97.808 56.462.014-112.938-97.822-56.476z"/><path d="m142.43 339.663 139.887 80.719v79.467l-208.672-120.481v-240.935l68.785 39.705zm149.878-210.99-97.793 56.461 97.793 56.477 97.808-56.477z"/><path d="m292.308 80.143 117.674 68.094 68.843-39.69-186.517-107.698-208.471 120.366 68.727 39.691zm149.85 259.52v-82.073l-42.051 24.229v33.572l-97.808 56.491v.115l-.029-113.053v-.029l208.701-120.482v240.935l-208.672 120.481-.043-79.352z"/></g></svg>