<?xml version="1.0" encoding="UTF-8" standalone="no"?><!DOCTYPE svg PUBLIC "-//W3C//DTD SVG 1.1//EN" "http://www.w3.org/Graphics/SVG/1.1/DTD/svg11.dtd"><svg width="100%" height="100%" viewBox="0 0 600 151" version="1.1" xmlns="http://www.w3.org/2000/svg" xmlns:xlink="http://www.w3.org/1999/xlink" xml:space="preserve" xmlns:serif="http://www.serif.com/" style="fill-rule:evenodd;clip-rule:evenodd;stroke-linejoin:round;stroke-miterlimit:2;"><g id="nintendo"><path d="M520.7,131.806l-441.4,0c-37.712,0.128 -60.632,-25.183 -60.632,-56.234c-0,-31.058 23.066,-56.165 60.632,-56.234l441.4,0c37.566,0.069 60.624,25.176 60.624,56.234c-0,31.051 -22.912,56.362 -60.624,56.234m0.214,-130.811l-441.828,0c-47.31,-0.111 -79.086,33.903 -79.086,74.68c-0,40.768 31.699,74.389 79.154,74.406l441.692,0c47.446,-0.017 79.154,-33.638 79.154,-74.406c-0,-40.777 -31.785,-74.791 -79.086,-74.68m-215.517,69.957c1.648,-2.877 4.679,-4.252 7.421,-4.261c2.749,0.009 5.781,1.384 7.421,4.261c1.349,2.332 1.409,5.064 1.383,9.146l-17.617,0c-0.034,-4.082 0.051,-6.814 1.392,-9.146m38.377,16.414c0,-14.467 -13.979,-26.456 -31.144,-26.456c-17.156,-0 -31.076,11.725 -31.076,26.2c-0,14.466 13.92,26.199 31.076,26.199c14.253,0 26.268,-8.121 29.94,-19.146l-21.033,0.017c-0,0 0.017,0.205 0.017,2.827c-0,8.54 -5.611,10.436 -8.736,10.436c-3.109,-0 -8.822,-1.896 -8.822,-10.436c0,-2.553 0.017,-9.633 0.017,-9.633c0,0 39.761,0.017 39.761,-0.008m44.176,-25.679c-6.986,0.196 -12.793,3.185 -16.84,7.037c-0.017,-1.153 -0,-4.902 -0,-4.902l-20.94,0.008l-0.008,46.67l20.948,-0c-0,-0 -0.017,-28.668 -0.017,-30.658c-0,-4.065 4.269,-8.591 10.017,-8.591c5.755,0 9.641,4.526 9.641,8.591l-0,30.658l20.973,-0c0,-0 -0.008,-22.11 0,-25.397c0.12,-18.48 -15.892,-23.647 -23.774,-23.416m-171.52,-0c-6.977,0.196 -12.792,3.185 -16.832,7.037c-0.017,-1.153 0,-4.902 0,-4.902l-20.973,0.008l0.017,46.67l20.956,-0c0,-0 -0.017,-28.668 -0.017,-30.658c0,-4.065 4.27,-8.591 10.017,-8.591c5.748,0 9.642,4.526 9.642,8.591l-0,30.658l20.973,-0c0,-0 -0.025,-22.11 0,-25.397c0.111,-18.48 -15.901,-23.647 -23.783,-23.416m240.939,25.243c0,0 0.009,5.286 0.009,8.284c-0,7.207 -4.996,9.094 -8.284,9.094c-3.347,0 -8.266,-1.887 -8.266,-9.094c-0,-2.477 0.008,-8.301 0.008,-8.301c0,0 -0.008,-5.926 -0.008,-8.318c-0,-7.224 4.919,-9.06 8.275,-9.06c3.279,-0 8.266,1.836 8.266,9.06l0,8.335Zm-0.154,-20.785c-3.364,-1.896 -6.934,-3.724 -11.938,-4.159c-15.209,-1.341 -26.84,12.109 -26.84,24.432c-0,16.242 12.544,22.254 14.44,23.142c7.105,3.305 16.217,3.314 24.296,-1.759c-0,0.436 0.008,2.699 0.008,2.699l20.863,-0l-0,-70.171l-20.829,0l0,25.816Zm67.011,30.538c0,7.438 -4.398,10.503 -8.625,10.503c-4.235,0 -8.65,-3.065 -8.65,-10.503c-0,-2.827 0.008,-10.069 0.008,-10.069c0,0 0.009,-6.9 0.009,-9.735c-0,-7.395 4.423,-10.444 8.625,-10.444c4.218,-0 8.625,3.049 8.625,10.444c-0,2.835 -0,8.061 0.025,9.94c0,0.111 -0.017,7.054 -0.017,9.864m-8.462,-36.038c-17.037,-0 -30.846,11.742 -30.846,26.208c0,14.475 13.809,26.209 30.846,26.209c17.036,-0 30.845,-11.734 30.845,-26.209c-0,-14.466 -13.809,-26.208 -30.845,-26.208m-369.906,-5.995l21.153,0l-0,-14.347l-21.153,0l0,14.347Zm0.051,55.858l21.102,0l-0,-46.669l-21.102,-0l0,46.669Zm138.437,-46.584l0,-6.943l-11.434,0l-0,-9.436l-21.119,0l0.017,9.445l-11.486,0.009l0,6.925l11.478,0l-0.018,46.584l21.145,0l-0.017,-46.584l11.434,0Zm-172.194,25.346l-30.256,-48.941l-21.862,0l-0.008,70.179l21.733,0l0,-48.941l30.41,48.941l21.657,0l-0,-70.179l-21.691,0l0.017,48.941Z" style="fill:#fff;fill-rule:nonzero;"/></g></svg>