<svg clip-rule="evenodd" fill-rule="evenodd" stroke-linejoin="round" stroke-miterlimit="2" viewBox="0 0 600 245" xmlns="http://www.w3.org/2000/svg"><g fill="#fff"><g fill-rule="nonzero"><path d="m257.315 141.032c-.852.84-1.659 1.657-2.405 2.439-6.559 6.882-9.244 10.718-11.031 12.106-2.015 1.564-3.668 1.659-5.487.932-1.623-.649-4.177-2.645-5.968-4.456l-16.716 42.666-8.166-53.687h-24.174l-27.628 83.515-10.362-83.515h-30.142l-33.596 84.455 4.397-32.966h-40.816l-2.828 20.095h17.899l-1.258 6.906c-3.14 1.882-10.36 2.196-13.186 2.196-2.825 0-23.86-1.881-22.919-24.488.941-22.606 31.082-43.641 66.874-32.025l3.457-21.664c-23.864-8.161-86.536-3.593-92.938 52.434-3.767 32.966 26.375 48.665 46.467 48.354 11.618.628 24.806-3.769 29.514-6.281l-1.568 4.71h23.862l11.614-30.141h21.349l3.771 30.141h38.617l17.896-55.259 8.794 55.259h20.408l22.605-58.398 3.769 58.398h22.605l-6.281-101.726zm-138.628 51.49 7.849-21.033 2.514 21.033z"/><path d="m517.119 141.036h25.431l12.562 28.89 18.837-28.89h26.051l-36.732 57.146-5.964 44.586h-23.545l6.906-50.873z"/><path d="m329.987 242.768 3.14-22.617h-35.787l2.198-17.574h31.078l3.144-22.606h-30.768l2.199-16.33h35.785l3.456-22.605h-59.339l-14.129 101.732z"/><path d="m491.684 140.095c-16.328-.629-39.876 8.791-47.724 46.783-7.849 37.988 13.185 53.373 32.651 55.884 19.47 2.512 46.784-9.732 51.807-46.153 5.025-36.421-12.876-55.571-36.734-56.514zm-2.512 21.664c6.592 0 20.72 4.397 17.266 30.767-3.455 26.374-19.78 29.514-25.746 28.884-5.968-.628-18.21-4.706-14.756-28.884 3.452-24.173 16.324-31.081 23.236-30.767z"/><path d="m392.466 179.971h13.188c9.734 0 11.617-6.28 11.929-8.789.314-2.514-2.51-7.538-7.533-7.538h-15.385zm-5.65 40.186h17.898c9.73 0 11.928-7.533 12.239-10.046.316-2.512-2.509-7.533-7.532-7.533h-20.092zm-26.372 22.608 14.129-101.726h43.326c10.364 0 25.433 11.932 23.55 27.943-1.883 16.013-6.908 16.955-10.362 19.466 5.339 4.707 10.676 12.243 8.479 26.372-2.199 14.132-13.816 27.943-34.224 27.943z"/><path d="m358.043 79.465c-.595-4.61-4.728-7.287-8.891-7.287-4.164 0-20.372 5.205-33.16 10.41-12.788 5.204-31.674 17.844-31.674 17.844l23.941-26.32s-4.164-5.8-5.204-7.138c-1.041-1.338-2.567-.946-5.77.297-3.451 1.338-37.949 23.198-45.682 27.659-7.731 4.461-27.063 16.952-29.145 13.978-2.082-2.975 29.682-34.975 29.682-34.975l-6.187-8.595s-11.004 9.517-34.202 24.685c-23.197 15.167-48.03 24.386-49.666 24.832-1.636.447-1.933.149-2.379-1.04-.446-1.19 7.286-9.22 17.249-17.993s29.443-23.347 29.443-23.347l-6.543-8.773s-14.87 10.856-29.294 24.09-20.372 22.156-21.562 25.725c-.743 2.231.446 6.841 3.718 10.261 3.271 3.42 9.219 4.014 23.049-2.379 13.829-6.395 40.179-22.068 40.179-22.068s-8.06 10.32-2.112 16.269c3.941 3.94 6.989 4.758 17.547.594 10.557-4.163 46.098-23.495 46.098-23.495s-5.205 5.502-20.372 22.901c-15.168 17.398-23.198 30.781-23.644 31.673s4.015 5.055 6.246 5.947c2.23.893 3.568-2.676 12.639-12.192 9.071-9.518 27.064-24.09 27.064-24.09s6.989 7.286 18.587 7.286c20.67 0 45.057-22.008 52.641-29.145 7.584-7.138 7.999-11.005 7.404-15.614zm-59.896 34.647c-7.583 0-10.112-3.569-10.112-3.569s15.317-11.003 33.161-19.033 27.212-9.071 27.212-9.071c-11.598 14.721-35.688 31.673-50.261 31.673z"/><path d="m17.398 121.845s20.075-.744 59.778-5.8c39.704-5.056 59.927-10.557 59.927-13.532 0-2.974-10.855-6.096-29.741-11.599-18.884-5.501-27.509-6.988-30.781-9.814-3.271-2.825-5.799-5.799-6.542-12.045-.744-6.245.446-8.327 2.23-9.814 1.785-1.487 13.234-9.696 46.692-17.428 33.458-7.733 58.886-4.728 62.901.922 4.015 5.651 6.394 15.614 1.19 21.265-5.205 5.65-17.844 11.45-20.521 11.45-2.676 0-3.866-3.123-3.866-7.881 0-4.759 2.528-5.949 5.948-6.692 3.42-.744 14.275-3.718 14.275-6.84 0-3.123-10.557-6.246-23.048-6.246s-39.257 5.65-57.102 11.896c-17.844 6.245-21.413 9.517-21.413 10.855 0 1.339 6.394 2.826 21.413 6.692s33.16 8.922 37.473 12.491c4.312 3.569 7.584 6.394 7.584 16.209 0 9.814-9.666 12.342-15.912 13.977-6.245 1.636-33.755 7.287-72.417 11.005-38.663 3.717-49.964 4.758-51.748 3.866-1.785-.893-3.718-2.825-3.718-8.327 0-5.503.892-8.03 8.476-8.03s7.733 1.04 8.922 3.42"/><path d="m402.536 77.978c15.763-7.287 17.546-4.758 18.29-4.312.745.446 1.637 1.398.596 2.29-1.042.892-16.906 14.047-30.9 19.361-11.747 4.461-17.577 1.843-17.577 1.843s13.828-11.896 29.591-19.182m197.031 33.607c-.872-2.833-15.317-7.436-48.775-7.436s-71.08 5.799-71.08 5.799 3.717-8.773 6.989-16.803-.892-11.896-3.718-15.167c-2.825-3.272-9.962-11.896-9.962-11.896s2.824-4.164 2.824-9.666-6.542-9.963-10.26-9.963-8.03 2.231-8.03 7.584 6.246 12.491 6.246 12.491-7.138 7.138-36.283 28.402-54.723 25.428-59.332 25.428-8.476-.446-8.476-4.461 7.286-12.045 7.286-12.045 1.934 2.23 9.072 2.23c21.562 0 45.205-20.074 49.666-23.197s3.866-5.116 3.866-7.495-2.974-10.854-11.598-10.854c-4.461 0-16.804 1.546-40.15 17.457-23.345 15.91-27.807 28.104-27.807 35.391 0 5.799 5.65 11.747 15.91 11.747 41.19 0 101.654-56.953 101.654-56.953s6.304 8.773 8.386 10.112c2.083 1.338 2.231 3.718 1.19 6.543-1.042 2.825-4.965 9.815-7.047 14.424-2.082 4.61-4.106 9.368-3.511 10.855.595 1.488 2.825 4.461 3.866 5.651s1.487 2.379 6.692 1.636c5.204-.744 41.461-6.692 71.796-6.692 16.235 0 32.592 1.903 32.592 2.944v4.194l17.547-.595s1.636-5.799.447-9.665"/></g><path d="m39.113 9.493h8.161v18.048h-8.161z"/><path d="m92.65 9.526v-2.685h-4.422v-3.649h-8.167l.006 3.653-4.442.003v2.678h4.439l-.007 18.015h8.177l-.006-18.015z"/><path d="m26.058 19.328-11.701-18.927h-8.454l-.004 27.14h8.405v-18.926l11.761 18.926h8.375v-27.14h-8.389z"/><path d="m132.716 8.661c-2.701.076-4.947 1.232-6.513 2.721-.006-.446 0-1.895 0-1.895l-8.097.003-.004 18.048h8.101s-.006-11.086-.006-11.856c0-1.572 1.651-3.322 3.874-3.322 2.226 0 3.728 1.75 3.728 3.322v11.856h8.111s-.003-8.55 0-9.822c.046-7.146-6.146-9.144-9.194-9.055z"/><path d="m66.385 8.661c-2.698.076-4.947 1.232-6.509 2.721-.007-.446 0-1.895 0-1.895l-8.111.003.006 18.048h8.105s-.007-11.086-.007-11.856c0-1.572 1.651-3.322 3.874-3.322s3.729 1.75 3.729 3.322v11.856h8.11s-.009-8.55 0-9.822c.043-7.146-6.149-9.144-9.197-9.055z"/><path d="m182.145 8.258c-6.589 0-11.929 4.541-11.929 10.135 0 5.598 5.34 10.136 11.929 10.136 6.588 0 11.929-4.538 11.929-10.136 0-5.594-5.341-10.135-11.929-10.135zm3.273 13.937c0 2.876-1.701 4.062-3.336 4.062-1.638 0-3.345-1.186-3.345-4.062 0-1.093.003-3.894.003-3.894s.003-2.668.003-3.765c0-2.86 1.711-4.039 3.336-4.039 1.631 0 3.335 1.179 3.335 4.039 0 1.097 0 3.118.01 3.844 0 .043-.006 2.728-.006 3.815z"/><path d="m159.503 10.385c-1.301-.733-2.682-1.44-4.617-1.608-5.882-.519-10.38 4.682-10.38 9.448 0 6.281 4.851 8.606 5.585 8.95 2.747 1.278 6.271 1.281 9.395-.68 0 .168.004 1.043.004 1.043h8.068v-27.137h-8.055zm.059 8.038s.004 2.044.004 3.204c0 2.787-1.932 3.517-3.204 3.517-1.295 0-3.197-.73-3.197-3.517 0-.958.004-3.21.004-3.21s-.004-2.292-.004-3.217c0-2.794 1.902-3.504 3.2-3.504 1.269 0 3.197.71 3.197 3.504z"/><path d="m115.632 18.592c0-5.595-5.406-10.232-12.044-10.232-6.635 0-12.018 4.535-12.018 10.133 0 5.594 5.383 10.132 12.018 10.132 5.512 0 10.158-3.141 11.578-7.405l-8.134.007s.007.079.007 1.093c0 3.303-2.17 4.036-3.378 4.036-1.203 0-3.412-.733-3.412-4.036 0-.987.007-3.725.007-3.725s15.376.007 15.376-.003zm-14.841-6.348c.637-1.113 1.809-1.644 2.87-1.648 1.063.004 2.235.535 2.869 1.648.522.902.545 1.959.535 3.537h-6.813c-.013-1.578.02-2.635.539-3.537z"/><path d="m39.093.391h8.18v5.548h-8.18z"/></g></svg>