<svg clip-rule="evenodd" fill-rule="evenodd" stroke-linejoin="round" stroke-miterlimit="2" viewBox="0 0 600 204" xmlns="http://www.w3.org/2000/svg"><g fill="#fff" fill-rule="nonzero"><path d="m75.538 145.548h20.291c.987 0 1.481-1.451 1.481-4.354s-.494-4.354-1.481-4.354h-20.291c-.928 0-1.393 1.451-1.393 4.354s.465 4.354 1.393 4.354zm0 11.583h20.291c.987 0 1.481-1.452 1.481-4.355 0-2.902-.494-4.354-1.481-4.354h-20.291c-.928 0-1.393 1.452-1.393 4.354 0 2.903.465 4.355 1.393 4.355zm0 23.164h20.291c.987 0 1.481-1.451 1.481-4.354s-.494-4.354-1.481-4.354h-20.291c-.928 0-1.393 1.451-1.393 4.354s.465 4.354 1.393 4.354zm0-11.582h78.203c.987 0 1.48-1.451 1.48-4.354s-.493-4.354-1.48-4.354h-78.203c-.928 0-1.393 1.451-1.393 4.354s.465 4.354 1.393 4.354zm0 23.165h20.291c.987 0 1.481-1.452 1.481-4.355 0-2.902-.494-4.354-1.481-4.354h-20.291c-.928 0-1.393 1.452-1.393 4.354 0 2.903.465 4.355 1.393 4.355zm0-57.912h20.291c.987 0 1.481-1.451 1.481-4.354s-.494-4.354-1.481-4.354h-20.291c-.928 0-1.393 1.451-1.393 4.354s.465 4.354 1.393 4.354zm0 69.494h20.291c.987 0 1.481-1.451 1.481-4.354s-.494-4.355-1.481-4.355h-20.291c-.928 0-1.393 1.452-1.393 4.355s.465 4.354 1.393 4.354zm57.912-57.912h20.291c.987 0 1.48-1.451 1.48-4.354s-.493-4.354-1.48-4.354h-20.291c-.929 0-1.393 1.451-1.393 4.354s.464 4.354 1.393 4.354zm0 11.583h20.291c.987 0 1.48-1.452 1.48-4.355 0-2.902-.493-4.354-1.48-4.354h-20.291c-.929 0-1.393 1.452-1.393 4.354 0 2.903.464 4.355 1.393 4.355zm0 23.164h20.291c.987 0 1.48-1.451 1.48-4.354s-.493-4.354-1.48-4.354h-20.291c-.929 0-1.393 1.451-1.393 4.354s.464 4.354 1.393 4.354zm0 11.583h20.291c.987 0 1.48-1.452 1.48-4.355 0-2.902-.493-4.354-1.48-4.354h-20.291c-.929 0-1.393 1.452-1.393 4.354 0 2.903.464 4.355 1.393 4.355zm0-57.912h20.291c.987 0 1.48-1.451 1.48-4.354s-.493-4.354-1.48-4.354h-20.291c-.929 0-1.393 1.451-1.393 4.354s.464 4.354 1.393 4.354zm0 69.494h20.291c.987 0 1.48-1.451 1.48-4.354s-.493-4.355-1.48-4.355h-20.291c-.929 0-1.393 1.452-1.393 4.355s.464 4.354 1.393 4.354z"/><path d="m179.779 145.548h20.291c.987 0 1.48-1.451 1.48-4.354s-.493-4.354-1.48-4.354h-20.291c-.929 0-1.393 1.451-1.393 4.354s.464 4.354 1.393 4.354zm34.747 0h20.291c.987 0 1.48-1.451 1.48-4.354s-.493-4.354-1.48-4.354h-20.291c-.929 0-1.393 1.451-1.393 4.354s.464 4.354 1.393 4.354zm-23.165-11.582h31.874c.987 0 1.48-1.451 1.48-4.354s-.493-4.354-1.48-4.354h-31.874c-.928 0-1.393 1.451-1.393 4.354s.465 4.354 1.393 4.354zm-23.164 23.165h20.291c.987 0 1.48-1.452 1.48-4.355 0-2.902-.493-4.354-1.48-4.354h-20.291c-.929 0-1.393 1.452-1.393 4.354 0 2.903.464 4.355 1.393 4.355zm57.911 0h20.291c.987 0 1.481-1.452 1.481-4.355 0-2.902-.494-4.354-1.481-4.354h-20.291c-.929 0-1.393 1.452-1.393 4.354 0 2.903.464 4.355 1.393 4.355zm-57.911 11.582h20.291c.987 0 1.48-1.451 1.48-4.354s-.493-4.354-1.48-4.354h-20.291c-.929 0-1.393 1.451-1.393 4.354s.464 4.354 1.393 4.354zm57.911 0h20.291c.987 0 1.481-1.451 1.481-4.354s-.494-4.354-1.481-4.354h-20.291c-.929 0-1.393 1.451-1.393 4.354s.464 4.354 1.393 4.354zm-57.911 11.582h78.202c.987 0 1.481-1.451 1.481-4.354s-.494-4.354-1.481-4.354h-78.202c-.929 0-1.393 1.451-1.393 4.354s.464 4.354 1.393 4.354zm0 11.583h20.291c.987 0 1.48-1.452 1.48-4.355 0-2.902-.493-4.354-1.48-4.354h-20.291c-.929 0-1.393 1.452-1.393 4.354 0 2.903.464 4.355 1.393 4.355zm57.911 0h20.291c.987 0 1.481-1.452 1.481-4.355 0-2.902-.494-4.354-1.481-4.354h-20.291c-.929 0-1.393 1.452-1.393 4.354 0 2.903.464 4.355 1.393 4.355zm-57.911 11.582h20.291c.987 0 1.48-1.451 1.48-4.354s-.493-4.355-1.48-4.355h-20.291c-.929 0-1.393 1.452-1.393 4.355s.464 4.354 1.393 4.354zm57.911 0h20.291c.987 0 1.481-1.451 1.481-4.354s-.494-4.355-1.481-4.355h-20.291c-.929 0-1.393 1.452-1.393 4.355s.464 4.354 1.393 4.354z"/><path d="m272.438 145.548h20.29c.987 0 1.481-1.451 1.481-4.354s-.494-4.354-1.481-4.354h-20.29c-.929 0-1.394 1.451-1.394 4.354s.465 4.354 1.394 4.354zm46.329 0h20.291c.987 0 1.48-1.451 1.48-4.354s-.493-4.354-1.48-4.354h-20.291c-.929 0-1.394 1.451-1.394 4.354s.465 4.354 1.394 4.354zm-34.747-11.582h43.455c.987 0 1.481-1.451 1.481-4.354s-.494-4.354-1.481-4.354h-43.455c-.929 0-1.393 1.451-1.393 4.354s.464 4.354 1.393 4.354zm-23.165 23.165h20.291c.987 0 1.481-1.452 1.481-4.355 0-2.902-.494-4.354-1.481-4.354h-20.291c-.929 0-1.393 1.452-1.393 4.354 0 2.903.464 4.355 1.393 4.355zm0 23.164h20.291c.987 0 1.481-1.451 1.481-4.354s-.494-4.354-1.481-4.354h-20.291c-.929 0-1.393 1.451-1.393 4.354s.464 4.354 1.393 4.354zm0-11.582h20.291c.987 0 1.481-1.451 1.481-4.354s-.494-4.354-1.481-4.354h-20.291c-.929 0-1.393 1.451-1.393 4.354s.464 4.354 1.393 4.354zm11.583 23.165h20.29c.987 0 1.481-1.452 1.481-4.355 0-2.902-.494-4.354-1.481-4.354h-20.29c-.929 0-1.394 1.452-1.394 4.354 0 2.903.465 4.355 1.394 4.355zm46.329 0h20.291c.987 0 1.48-1.452 1.48-4.355 0-2.902-.493-4.354-1.48-4.354h-20.291c-.929 0-1.394 1.452-1.394 4.354 0 2.903.465 4.355 1.394 4.355zm-34.747 11.582h43.455c.987 0 1.481-1.451 1.481-4.354s-.494-4.355-1.481-4.355h-43.455c-.929 0-1.393 1.452-1.393 4.355s.464 4.354 1.393 4.354z"/><path d="m353.514 145.548h20.291c.986 0 1.48-1.451 1.48-4.354s-.494-4.354-1.48-4.354h-20.291c-.929 0-1.394 1.451-1.394 4.354s.465 4.354 1.394 4.354zm0 11.583h20.291c.986 0 1.48-1.452 1.48-4.355 0-2.902-.494-4.354-1.48-4.354h-20.291c-.929 0-1.394 1.452-1.394 4.354 0 2.903.465 4.355 1.394 4.355zm0 23.164h55.037c.987 0 1.481-1.451 1.481-4.354s-.494-4.354-1.481-4.354h-55.037c-.929 0-1.394 1.451-1.394 4.354s.465 4.354 1.394 4.354zm0-11.582h43.455c.987 0 1.481-1.451 1.481-4.354s-.494-4.354-1.481-4.354h-43.455c-.929 0-1.394 1.451-1.394 4.354s.465 4.354 1.394 4.354zm0 23.165h20.291c.986 0 1.48-1.452 1.48-4.355 0-2.902-.494-4.354-1.48-4.354h-20.291c-.929 0-1.394 1.452-1.394 4.354 0 2.903.465 4.355 1.394 4.355zm0 11.582h20.291c.986 0 1.48-1.451 1.48-4.354s-.494-4.355-1.48-4.355h-20.291c-.929 0-1.394 1.452-1.394 4.355s.465 4.354 1.394 4.354zm0-69.494h20.291c.986 0 1.48-1.451 1.48-4.354s-.494-4.354-1.48-4.354h-20.291c-.929 0-1.394 1.451-1.394 4.354s.465 4.354 1.394 4.354zm46.329 11.582h20.291c.987 0 1.48-1.451 1.48-4.354s-.493-4.354-1.48-4.354h-20.291c-.929 0-1.393 1.451-1.393 4.354s.464 4.354 1.393 4.354zm-11.582 11.583h20.29c.987 0 1.481-1.452 1.481-4.355 0-2.902-.494-4.354-1.481-4.354h-20.29c-.929 0-1.394 1.452-1.394 4.354 0 2.903.465 4.355 1.394 4.355zm23.164-23.165h20.291c.987 0 1.48-1.451 1.48-4.354s-.493-4.354-1.48-4.354h-20.291c-.929 0-1.393 1.451-1.393 4.354s.464 4.354 1.393 4.354zm-23.164 57.912h31.873c.987 0 1.48-1.452 1.48-4.355 0-2.902-.493-4.354-1.48-4.354h-31.873c-.929 0-1.394 1.452-1.394 4.354 0 2.903.465 4.355 1.394 4.355zm11.582 11.582h31.873c.987 0 1.48-1.451 1.48-4.354s-.493-4.355-1.48-4.355h-31.873c-.929 0-1.393 1.452-1.393 4.355s.464 4.354 1.393 4.354z"/><path d="m446.172 145.548h20.291c.987 0 1.48-1.451 1.48-4.354s-.493-4.354-1.48-4.354h-20.291c-.929 0-1.393 1.451-1.393 4.354s.464 4.354 1.393 4.354zm46.329 0h20.291c.987 0 1.481-1.451 1.481-4.354s-.494-4.354-1.481-4.354h-20.291c-.929 0-1.393 1.451-1.393 4.354s.464 4.354 1.393 4.354zm-34.747-11.582h43.456c.987 0 1.48-1.451 1.48-4.354s-.493-4.354-1.48-4.354h-43.456c-.928 0-1.393 1.451-1.393 4.354s.465 4.354 1.393 4.354zm-11.582 23.165h20.291c.987 0 1.48-1.452 1.48-4.355 0-2.902-.493-4.354-1.48-4.354h-20.291c-.929 0-1.393 1.452-1.393 4.354 0 2.903.464 4.355 1.393 4.355zm57.912 23.164h20.29c.987 0 1.481-1.451 1.481-4.354s-.494-4.354-1.481-4.354h-20.29c-.929 0-1.394 1.451-1.394 4.354s.465 4.354 1.394 4.354zm-46.33-11.582h55.038c.987 0 1.481-1.451 1.481-4.354s-.494-4.354-1.481-4.354h-55.038c-.928 0-1.393 1.451-1.393 4.354s.465 4.354 1.393 4.354zm-11.582 23.165h20.291c.987 0 1.48-1.452 1.48-4.355 0-2.902-.493-4.354-1.48-4.354h-20.291c-.929 0-1.393 1.452-1.393 4.354 0 2.903.464 4.355 1.393 4.355zm57.912 0h20.29c.987 0 1.481-1.452 1.481-4.355 0-2.902-.494-4.354-1.481-4.354h-20.29c-.929 0-1.394 1.452-1.394 4.354 0 2.903.465 4.355 1.394 4.355zm-46.33 11.582h55.038c.987 0 1.481-1.451 1.481-4.354s-.494-4.355-1.481-4.355h-55.038c-.928 0-1.393 1.452-1.393 4.355s.465 4.354 1.393 4.354z"/><path d="m27.121.236c-5.717 0-11.229 4.696-12.25 10.413v.613l-.204-.205v.817l-.204.204v.817l-.205.204v.408l-.408 1.225v.817l-.204.613-.409 1.633-.204 1.021-.204.817-.408 1.837-.204 1.021-.205.817v.612l-.816 3.267-.204.613-.205.816v.204l-.204.205v.612l-.204.409v.408l-.204.204v.408c-.204 2.45.204 5.921 1.021 6.534 1.021 5.513 19.6 31.239 18.988 35.118.204 3.675-2.042 15.313-2.042 15.313-.612 3.879-3.267 6.942-7.146 6.942s-6.533-3.063-5.921-6.942l3.471-19.192h-13.884l-4.492 26.542c-1.021 5.513 2.655 9.801 8.167 9.801h19.805c5.513 0 10.617-4.288 11.638-9.801 0 0 5.104-24.909 5.104-26.747 0-1.837-.612-2.041-.612-2.041 0-2.042-16.538-29.197-18.172-30.218-.816-.408-1.225-3.063-1.429-4.696 0-1.633 2.246-12.455 2.246-12.455.613-3.879 4.288-6.942 8.167-6.942s5.513 3.063 4.9 6.942l-3.062 17.151h13.883l4.901-25.93c1.225-5.513-2.45-10.209-8.167-10.209h-20.418zm37.977 0-16.538 95.145c-1.021 5.513 2.654 9.801 8.167 9.801h19.804c5.513 0 10.822-4.288 11.843-9.801l17.559-95.145h-12.455l-16.742 92.491c-.205 1.429-1.634 2.45-2.859 2.45h-9.8c-1.429 0-2.246-1.225-2.042-2.45l16.334-92.491h-13.271zm47.368 0-20.009 104.946h13.476l9.187-47.573h16.743c5.512 0 10.617-4.288 11.638-9.8l7.146-37.364c1.021-5.717-2.655-10.413-8.167-10.413h-30.014zm47.368 0-20.825 104.946h29.809l2.042-13.068h-14.701l5.921-35.526h14.701l2.042-11.025h-14.701l6.534-32.464h14.904l2.042-12.863h-27.768zm35.527 0-19.805 104.946h13.271l8.984-47.573h9.392c1.225 1.225 1.429 3.267 1.633 4.288.204 1.633.409 3.471.409 5.104-.205 1.633-7.146 38.181-7.146 38.181h13.271s7.35-39.814 7.35-40.427c0-.612 0-2.654-.817-3.879-.408-.817-1.225-2.45-2.246-3.063-1.837-1.225-3.879-2.042-3.879-2.042h-1.021c3.88-1.429 10.822-3.879 11.638-7.962l7.146-37.364c1.021-5.717-2.654-10.413-8.167-10.413h-30.013zm70.644 0-20.009 104.946h15.109l12.25-60.844 4.9 60.844h13.272l20.009-104.946h-15.109l-10.413 54.923-6.738-54.923h-13.271zm52.473 0-20.009 104.946h13.271l20.009-104.946h-13.271zm20.213 0-20.009 104.946h15.313l12.25-60.844 4.901 60.844h13.271l19.805-104.946h-15.313l-10.209 54.923-6.738-54.923h-13.271zm51.248 0-2.45 13.067h8.167l-16.334 91.879h15.109l16.538-91.879h7.962l2.042-13.067h-31.034zm36.343 0-20.622 104.946h29.81l2.041-13.068h-14.7l6.125-35.526h14.7l2.042-11.025h-14.7l6.329-32.464h14.701l2.041-13.067h-27.767v.204zm33.484 0-20.009 104.946h15.313l12.251-60.844 4.9 60.844h13.271l20.009-104.946h-15.313l-10.209 54.923-6.941-54.923h-13.272zm52.677 0-20.009 104.946h30.218c5.513 0 10.821-4.288 11.842-9.801l15.926-84.732c1.02-5.717-2.655-10.413-8.167-10.413h-29.81zm56.556 0c-5.716 0-11.025 4.696-12.046 10.413l-14.7 84.732c-1.021 5.513 2.654 9.801 7.962 9.801h21.847c5.513 0 10.821-4.288 11.842-9.801l15.926-84.732c1.021-5.717-2.655-10.413-8.167-10.413h-22.664zm-45.326 12.046h6.125c3.879 0 6.534 3.063 5.921 6.942l-13.067 68.807c-.613 3.879-4.492 7.146-8.371 7.146h-6.125l15.517-82.895zm52.677 0h.816c3.88 0 6.534 3.063 5.717 6.942l-12.25 68.807c-.613 3.879-4.288 7.146-8.167 7.146s-5.513-3.267-4.9-7.146l12.25-68.603 2.45-4.9.204-.204.409-.817.408-.204.408-.408.817-.408.204-.205 1.225-.612.204-.204.409-.204-1.021 1.225h.408l.409-.205zm-451.021.409h6.329c1.43 0 4.288 3.267 4.084 4.696l-5.513 25.93c-.204 1.429-2.042 4.492-3.471 4.492h-8.167l-.204-.204h-.817v-.205h-.204.817-.204l-.204-.204h-.205l-.408-.408v-.204l-.408-.409v-.408l-.204-.204v-.409l-.205-.204v-.816l6.126-31.647c1.429.612 2.041.204 2.858.204zm82.282 0h6.534c1.429 0 4.492 3.267 4.083 4.696l-5.512 25.726c-.205 1.429-3.676 4.492-4.901 4.492h-5.716c-1.226 0-2.042-.817-2.042-1.838v-.613l6.125-31.647.613-.612h.204l.408-.408h.204l.204-.205h.205l.204-.204h.204z"/></g></svg>