<svg clip-rule="evenodd" fill-rule="evenodd" stroke-linejoin="round" stroke-miterlimit="2" viewBox="0 0 600 193" xmlns="http://www.w3.org/2000/svg"><g fill="#fff"><g fill-rule="nonzero"><path d="m127.641 76.619v-6.464h20.567c2.293 0 3.439-1.001 3.439-3.004 0-1.958-1.146-2.938-3.439-2.938h-10.294c-3.613 0-6.377-.805-8.293-2.416-1.9-1.625-2.851-3.954-2.851-6.986 0-3.033.936-5.354 2.808-6.965 1.886-1.625 4.563-2.437 8.031-2.437h23.136v6.529h-20.481c-2.35 0-3.526.958-3.526 2.873 0 1.959 1.176 2.938 3.526 2.938h10.512c3.526 0 6.211.813 8.053 2.438 1.858 1.61 2.786 3.932 2.786 6.964 0 3.076-.928 5.427-2.786 7.052-1.842 1.611-4.527 2.416-8.053 2.416z"/><path d="m178.488 76.619c-4.237 0-7.56-1.023-9.968-3.069-2.409-2.046-3.613-5.332-3.613-9.859v-18.282h9.968v18.347c0 2.176.558 3.744 1.676 4.701 1.117.958 2.575 1.437 4.374 1.437h8.401v-24.485h9.969v31.21z"/><path d="m204.714 76.619v-31.21h20.567c4.658 0 8.075.928 10.252 2.785 2.191 1.843 3.286 4.368 3.286 7.574 0 3.164-1.081 5.674-3.243 7.531-2.162 1.843-5.593 2.764-10.295 2.764h-10.599v10.556zm23.615-20.829c0-2.612-1.604-3.917-4.81-3.917h-8.837v7.791h8.837c3.206 0 4.81-1.291 4.81-3.874z"/><path d="m275.011 51.873h-12.863c-3.12 0-5.376.478-6.769 1.436-1.378.958-2.191 2.394-2.437 4.309h22.069v6.399h-22.069c.101 1.872.841 3.352 2.22 4.44 1.393 1.088 3.721 1.633 6.986 1.633h12.863v6.529h-14.125c-5.993 0-10.513-1.306-13.56-3.918-3.032-2.626-4.548-6.522-4.548-11.687 0-5.166 1.516-9.054 4.548-11.666 3.047-2.626 7.567-3.939 13.56-3.939h14.125z"/><path d="m304.302 54.782c0-2.858-1.603-2.909-4.81-2.909h-10.142v7.284h10.142c3.207 0 4.81-1.459 4.81-4.375zm-5.934 10.773h-9.018v11.064h-9.968v-31.21h22.526c4.367 0 7.603 1.001 9.707 3.003 2.118 1.988 3.178 3.185 3.178 6.348 0 3.207-1.045 5.804-3.135 7.792-1.059 1.016-2.408 1.77-4.048 2.263l8.589 11.804h-10.375z"/><path d="m335.113 61.014c0-5.166 1.516-9.054 4.549-11.666 3.047-2.626 7.567-3.939 13.559-3.939h14.125v6.464h-12.863c-3.119 0-5.375.478-6.768 1.436-1.379.958-2.191 2.394-2.438 4.309h22.069v6.399h-22.265v12.602h-9.968z"/><path d="m381.507 76.619c-3.671 0-6.5-.849-8.488-2.547-1.988-1.712-2.982-4.077-2.982-7.095 0-3.003.994-5.354 2.982-7.052 1.988-1.712 4.817-2.568 8.488-2.568h13.843v-1.131c0-1.582-.378-2.692-1.132-3.33-.74-.639-2.024-.958-3.853-.958h-17.955v-6.529h18.325c5.151 0 8.866.979 11.144 2.938 2.292 1.959 3.439 5.158 3.439 9.598v18.674zm13.843-12.863h-11.166c-2.684 0-4.026 1.074-4.026 3.221 0 2.162 1.342 3.243 4.026 3.243h11.166z"/><path d="m447.78 76.619v-18.674c0-2.089-.522-3.577-1.567-4.462-1.044-.899-2.778-1.349-5.202-1.349h-2.067v24.485h-9.968v-24.485h-8.401v24.485h-9.969v-31.21h32.103c5.253 0 9.069 1.022 11.448 3.068 2.38 2.046 3.57 5.333 3.57 9.86v18.282z"/><path d="m460.667 45.409h9.968v31.21h-9.968z"/><path d="m507.482 52.003h-11.949c-3.628 0-6.254.704-7.879 2.111-1.625 1.408-2.438 3.708-2.438 6.9s.799 5.492 2.395 6.899c1.596 1.408 4.215 2.111 7.857 2.111h12.014v6.595h-14.496c-5.861 0-10.28-1.306-13.254-3.918-2.975-2.626-4.462-6.522-4.462-11.687 0-5.151 1.487-9.04 4.462-11.666 2.974-2.626 7.393-3.939 13.254-3.939h14.496z"/><path d="m548.65 61.478c0 2.699-.45 5.035-1.35 7.008-.899 1.959-2.198 3.577-3.895 4.853-1.684 1.263-3.737 2.206-6.16 2.83-2.408.609-5.151.914-8.227.914s-5.825-.305-8.249-.914c-2.408-.624-4.454-1.567-6.137-2.83-1.683-1.276-2.982-2.894-3.896-4.853-.9-1.973-1.349-4.309-1.349-7.008s.449-5.028 1.349-6.987c.914-1.973 2.213-3.591 3.896-4.853 1.683-1.277 3.729-2.22 6.137-2.829 2.424-.624 5.173-.936 8.249-.936s5.819.312 8.227.936c2.423.609 4.476 1.552 6.16 2.829 1.697 1.262 2.996 2.88 3.895 4.853.9 1.959 1.35 4.288 1.35 6.987zm-19.632 9.01c6.442 0 9.664-3.003 9.664-9.01s-3.222-9.011-9.664-9.011-9.663 3.004-9.663 9.011 3.221 9.01 9.663 9.01z"/><path d="m590.054 76.619v-18.674c0-2.089-.523-3.577-1.567-4.462-1.045-.899-2.779-1.349-5.202-1.349h-2.068v24.485h-9.968v-24.485h-8.401v24.485h-9.968v-31.21h32.102c5.253 0 9.069 1.022 11.449 3.068 2.379 2.046 3.569 5.333 3.569 9.86v18.282z"/></g><path d="m164.848 13.514h9.159v20.257h-9.159z"/><path d="m224.937 13.552v-3.014h-4.964v-4.096h-9.166l.007 4.1-4.985.003v3.007h4.981l-.007 20.219h9.178l-.008-20.219z"/><path d="m150.195 24.553-13.132-21.243h-9.489l-.004 30.461h9.433v-21.243l13.2 21.243h9.4v-30.461h-9.415z"/><path d="m269.906 12.58c-3.032.086-5.553 1.383-7.31 3.055-.007-.501 0-2.128 0-2.128l-9.088.004-.004 20.257h9.092s-.007-12.444-.007-13.307c0-1.765 1.853-3.729 4.348-3.729 2.498 0 4.185 1.964 4.185 3.729v13.307h9.103s-.003-9.597 0-11.024c.052-8.021-6.898-10.264-10.319-10.164z"/><path d="m195.457 12.58c-3.028.086-5.552 1.383-7.305 3.055-.008-.501 0-2.128 0-2.128l-9.104.004.007 20.257h9.097s-.008-12.444-.008-13.307c0-1.765 1.854-3.729 4.348-3.729 2.495 0 4.185 1.964 4.185 3.729v13.307h9.104s-.012-9.597 0-11.024c.048-8.021-6.902-10.264-10.324-10.164z"/><path d="m325.384 12.128c-7.395 0-13.389 5.097-13.389 11.376 0 6.283 5.994 11.376 13.389 11.376 7.394 0 13.388-5.093 13.388-11.376 0-6.279-5.994-11.376-13.388-11.376zm3.673 15.642c0 3.229-1.909 4.559-3.744 4.559-1.838 0-3.755-1.33-3.755-4.559 0-1.227.004-4.37.004-4.37s.004-2.995.004-4.225c0-3.21 1.92-4.534 3.743-4.534 1.832 0 3.744 1.324 3.744 4.534 0 1.23 0 3.499.011 4.314 0 .048-.007 3.062-.007 4.281z"/><path d="m299.971 14.515c-1.461-.823-3.01-1.616-5.182-1.805-6.602-.582-11.65 5.256-11.65 10.605 0 7.05 5.445 9.659 6.268 10.045 3.084 1.434 7.039 1.438 10.545-.764 0 .189.004 1.172.004 1.172h9.055v-30.458h-9.04zm.066 9.022s.004 2.295.004 3.596c0 3.128-2.168 3.947-3.595 3.947-1.453 0-3.588-.819-3.588-3.947 0-1.075.003-3.603.003-3.603s-.003-2.573-.003-3.61c0-3.136 2.135-3.933 3.591-3.933 1.424 0 3.588.797 3.588 3.933z"/><path d="m250.731 23.726c0-6.279-6.068-11.483-13.518-11.483-7.447 0-13.489 5.089-13.489 11.372 0 6.279 6.042 11.372 13.489 11.372 6.186 0 11.402-3.525 12.996-8.31l-9.13.007s.008.089.008 1.227c0 3.707-2.436 4.53-3.792 4.53-1.35 0-3.829-.823-3.829-4.53 0-1.108.007-4.181.007-4.181s17.258.007 17.258-.004zm-16.657-7.124c.715-1.249 2.031-1.846 3.221-1.85 1.193.004 2.509.601 3.221 1.85.585 1.012.611 2.198.6 3.97h-7.647c-.015-1.772.023-2.958.605-3.97z"/><path d="m164.826 3.299h9.181v6.227h-9.181z"/><path d="m263.901 89.977h-263.901v102.261h263.901zm-93.396 86.798c0 2.062-1.65 3.918-3.711 3.918h-3.918c-2.061 0-3.711-1.856-3.711-3.918v-8.04c0-2.062 1.65-3.918 3.711-3.918h3.918c2.061 0 3.711 1.856 3.711 3.918 0 0-.035 1.624 0 2.061h-4.536c0-2.061 0-2.68-.928-2.68s-.928.619-.928 2.68v3.712c0 2.061 0 2.68.934 2.68.922 0 .922-.619.922-2.68h4.536zm63.089-11.958v3.505h-2.681v12.165h-4.948v-12.165h-2.68v-3.505zm-18.556 0 2.68 7.835v-7.835h4.536v15.67h-4.536l-3.092-8.453v8.453h-4.536v-15.67zm-5.979 0v3.505h-4.33v2.474h3.711v3.505h-3.711v2.681h4.33v3.505h-9.278v-15.67zm-21.03 0 2.171 8.041 2.159-8.041h5.979v15.67h-4.536v-9.484l-2.68 9.484h-1.856l-2.68-9.278v9.278h-4.536v-15.67zm-11.339 9.484v2.681h4.33v3.505h-9.278v-15.67h9.278v3.505h-4.33v2.474h3.711v3.505zm-26.39-2.267v8.453h-4.536v-15.67h4.948l2.68 7.835v-7.835h4.536v15.67h-4.536zm-15.257-7.217h6.804l3.092 15.67h-4.948l-.412-2.887h-2.268l-.412 2.887h-4.948zm-99.375 0 1.955 8.041 1.962-8.041h6.185v15.67h-4.535v-9.484l-2.681 9.484h-1.855l-2.68-9.484v9.484h-4.536v-15.67zm20.823 0v3.505h-4.329v2.474h3.711v3.505h-3.711v2.681h4.329v3.505h-9.277v-15.67zm1.237 15.67v-15.67h5.979c5.361 0 5.361 3.712 5.361 3.712v8.246s0 3.712-4.124 3.712zm17.731-15.67v15.67h-4.948v-15.67zm4.124 0h6.803l3.093 15.67h-4.948l-.412-2.887h-2.268l-.413 2.887h-4.948zm20.411 9.484v2.681h4.329v3.505h-9.277v-15.67h9.277v3.505h-4.329v2.474h3.711v3.505zm10.308-9.484 2.681 7.835v-7.835h4.535v15.67h-4.535l-3.093-8.453v8.453h-4.536v-15.67zm13.608 15.67h-4.948v-15.67h4.948v5.979h2.062v-5.979h4.948v15.67h-4.948v-6.186h-2.062zm-59.378-9.691c.008-2.065-.412-2.474-2.062-2.474v8.66c1.65 0 2.062-.413 2.062-2.474zm73.191 3.299h1.444l-.72-5.979zm-55.46 0h1.443l-.728-5.979zm151.537-18.968v5.773h-204.936v-5.773zm-54.842-19.174c0 5.155 3.092 6.804 6.185 6.804h10.721c3.093 0 6.185-1.649 6.185-6.804v-31.956h9.072v35.461c0 6.185-2.681 11.546-9.897 11.546h-21.441c-7.217 0-9.897-5.361-9.897-11.546v-35.461h9.072zm-13.195-31.956h-30.514c-5.154 0-9.071 6.391-9.071 11.545v4.948c0 5.155 3.917 11.546 9.071 11.546h17.319c4.123 0 4.948 2.886 4.948 4.948s-.825 4.948-4.948 4.948h-26.39v9.072h30.513c5.155 0 9.072-6.391 9.072-11.546v-4.948c0-5.154-3.917-11.546-9.072-11.546h-17.318c-4.124 0-4.948-2.886-4.948-4.948 0-2.061.824-4.948 4.948-4.948h26.39zm67.624 0h-4.948l-13.195 13.195v4.948h9.896v28.864h8.247zm-202.873 47.007 47.007-47.007h5.773v32.163l32.163-32.163h5.773v47.007h-8.247v-32.988l-32.988 32.988h-5.773v-32.988l-32.987 32.988z"/><path d="m356.184 104.881v-.428c0-.856-.285-1.569-.856-2.139-.57-.523-1.283-.785-2.139-.785h-6.632c-.998 0-1.926.333-2.781.999-.808.618-1.308 1.402-1.498 2.353l-13.05 72.524v.357c0 .808.285 1.521.856 2.139.57.618 1.283.927 2.139.927h6.561c2.329 0 3.779-1.188 4.35-3.565l3.851-21.465h11.909l-4.849 27.241c-.523 2.615-1.854 4.802-3.994 6.561-2.139 1.759-4.564 2.638-7.274 2.638h-17.043c-2.52 0-4.659-.903-6.418-2.709-1.759-1.807-2.639-3.97-2.639-6.49v-1.783l14.69-82.009c.523-2.662 1.831-4.873 3.923-6.632 2.139-1.759 4.54-2.638 7.202-2.638h17.329c2.472 0 4.588.903 6.347 2.71 1.806 1.806 2.71 3.993 2.71 6.56 0 .714-.048 1.26-.143 1.641l-4.564 25.529h-11.838z" fill-rule="nonzero"/><path d="m387.847 180.828c1.045 0 1.973-.332 2.781-.998.808-.665 1.283-1.521 1.426-2.567l13.193-72.382c.047-.143.071-.285.071-.428 0-.856-.285-1.569-.856-2.139-.57-.523-1.283-.785-2.139-.785h-11.053l-14.477 79.299zm21.037-90.851c2.519 0 4.682.903 6.489 2.71 1.807 1.806 2.71 3.993 2.71 6.56 0 .286-.095.832-.285 1.641l-14.762 82.151c-.475 2.615-1.759 4.802-3.851 6.561s-4.492 2.638-7.202 2.638h-29.381l18.541-102.261z" fill-rule="nonzero"/><path d="m465.577 134.904c1.046 0 1.973-.357 2.781-1.07.808-.666 1.284-1.498 1.426-2.496l4.849-26.457v-.428c0-.856-.285-1.569-.855-2.139-.618-.523-1.355-.785-2.211-.785h-9.841l-6.062 33.375zm.713 15.118c0-.809-.285-1.498-.856-2.068-.57-.571-1.26-.856-2.068-.856h-9.912l-7.987 45.14h-12.48l18.327-102.261h27.455c2.473 0 4.612.903 6.419 2.71 1.806 1.759 2.757 3.922 2.852 6.489 0 .238-.095.808-.285 1.712l-5.705 32.233c-.903 4.469-3.542 7.321-7.916 8.557 1.664.618 2.924 1.712 3.78 3.281.665 1.236.998 2.614.998 4.136l-.143 2.709-7.416 40.434h-12.551l7.488-41.86z" fill-rule="nonzero"/><path d="m492.461 177.762c0 .808.286 1.521.856 2.139.571.618 1.284.927 2.139.927h6.561c2.33 0 3.78-1.188 4.35-3.565l13.05-72.382v-.428c0-.856-.285-1.569-.855-2.139-.571-.523-1.284-.785-2.14-.785h-6.632c-.998 0-1.925.333-2.781.999-.808.618-1.307 1.402-1.498 2.353l-13.05 72.524zm30.593-87.785c2.472 0 4.588.903 6.347 2.71 1.807 1.806 2.71 3.993 2.71 6.56 0 .714-.048 1.26-.143 1.641l-14.69 82.151c-.523 2.615-1.854 4.802-3.993 6.561-2.14 1.759-4.564 2.638-7.274 2.638h-17.044c-2.52 0-4.659-.903-6.418-2.709-1.759-1.807-2.639-3.97-2.639-6.49v-1.783l14.691-82.009c.523-2.662 1.83-4.873 3.922-6.632 2.139-1.759 4.54-2.638 7.202-2.638z" fill-rule="nonzero"/><path d="m549.654 127.63-11.482 64.608h-12.337l18.613-102.261h15.475l-1.569 73.665 24.674-73.665h16.972l-18.541 102.261h-12.337l11.338-63.824-20.751 63.824h-10.84z" fill-rule="nonzero"/><path d="m90.659 20.884c-2.785-.003-5.541.561-8.103 1.655-7.598 3.248-12.539 10.773-12.505 19.044 5.292.035 10.366 1.976 14.139 5.406 4.222 3.84 6.429 9.197 6.038 14.66l.468.461c8.331-.023 15.863-5.105 19.01-12.827 3.147-7.723 1.316-16.629-4.623-22.479-3.846-3.788-9.029-5.916-14.424-5.92z" fill-rule="nonzero"/><path d="m49.633.405c-2.785-.002-5.541.561-8.103 1.655-7.598 3.248-12.54 10.773-12.505 19.044 5.292.035 10.366 1.976 14.139 5.406 4.222 3.84 6.428 9.197 6.037 14.66l.469.461c8.331-.022 15.863-5.105 19.01-12.827 3.147-7.723 1.316-16.629-4.623-22.479-3.846-3.788-9.029-5.915-14.424-5.92z" fill-rule="nonzero"/><ellipse cx="23.561" cy="47.514" rx="23.561" ry="11.834"/><ellipse cx="64.58" cy="68.143" rx="23.561" ry="11.834"/></g></svg>