<svg clip-rule="evenodd" fill-rule="evenodd" stroke-linejoin="round" stroke-miterlimit="2" viewBox="0 0 600 70" xmlns="http://www.w3.org/2000/svg"><g fill="#fff" fill-rule="nonzero"><path d="m462.541 27.943c-1.262-3.823-4.594-7.46-4.594-7.46s-5.007-6.505-14.842-8.723c-8.42-1.761-15.037 1.952-15.037 1.952s-6.008 2.408-10.523 7.385c-7.192 6.924-9.259 17.027-9.259 17.027s-2.756 8.799 1.609 15.765l4.744 5.738c6.695 5.587 13.85 6.158 13.85 6.158s5.779 1.301 12.514-.459c5.887-1.187 10.175-4.095 10.175-4.095s9.76-5.394 12.434-16.413zm-15.195 18.327s-3.901 6.812-12.469 6.006c-10.065-1.032-11.248-9.869-11.248-9.869s-1.381-6.505 4.819-12.169c6.277-5.278 12.819-4.475 12.819-4.475s4.397.42 6.659 7.691c2.905 9.258-.58 12.816-.58 12.816"/><path d="m495.059 46.387c-3.221-.711-8.379.609-8.379.609s-7.192 2.638-8.302 2.601c-.419-.61-1.337-12.358-1.071-17.063.154-8.304-.539-15.074-.539-15.074s-.342-7.999-4.628-12.741c-5.049-5.092-8.574-2.908-10.6-1.686-4.859 4.362-2.601 9.679-2.601 9.679l2.529 7.157s1.222 3.062 1.071 8.073l1.071 16.874c0 2.257 1.838 17.445 1.838 17.445s.186 4.937 4.933 5.817c4.861.803 9.64-1.609 11.668-2.565 2.029-.953 4.707-1.796 4.707-1.796s2.22-.498 4.438-.687c5.203-.5 7.078-1.416 7.078-1.416s2.012-.303 3.37-2.222c1.353-1.916 2.991-10.903-6.583-13.005"/><path d="m409.892 53.886c-3.417-1.026-7.343-.346-7.343-.346s-11.096 1.069-16.875-.155c-8.95-1.566-8.65-11.21-8.65-11.21s-.3-6.391 5.093-15.037c6.656-10.676 14.002-12.588 14.002-12.588s1.834-.687 3.556.229c1.072 6.196 7.078 6.158 7.078 6.158s8.648.576 8.224-9.905c-.992-8.613-9.294-9.797-12.778-10.603-10.439-1.874-17.218 3.713-17.218 3.713s-7 3.787-15.378 16.987c-5.706 8.186-6.393 14.617-6.393 14.617s-.687 1.53-.419 8.343c-.153 5.316 1.838 9.182 1.838 9.182s3.021 9.149 12.585 12.898c5.818 2.408 14.314 2.371 14.314 2.371s8.224-.114 14.534-.46c3.445.267 5.093-1.531 5.093-1.531s3.861-2.525 3.481-6.925c0 0-.75-4.546-4.744-5.738"/><path d="m161.701 66.179h-12.654l-1.691-38.112-16.452 38.112h-8.44l-7.029-34.456-10.972 34.456h-21.517l-3.235-18.418h-14.629l-8.297 18.418h-13.224l27.149-61.595h15.609l8.296 49.784 16.177-49.785h12.512l6.19 33.754 14.35-33.754h15.189zm-83.897-30.381-2.317-11.949-5.344 11.949z"/><path d="m197.985 66.179 2.114-13.216h-22.083l1.75-10.97h19.207l2.11-13.224h-19.411l1.687-10.97h22.078l2.112-13.215h-35.017l-9.848 61.595z"/><path d="m362.393 4.583h-14.768l-12.517 20.109-7.872-20.109h-14.486l14.906 32.483-4.593 29.112h12.661l3.885-25.733 22.784-35.862"/><path d="m268.082 30.084c3.931-17.032 18.488-28.209 32.509-24.967 14.029 3.241 22.213 19.67 18.286 36.701-3.931 17.028-18.486 28.207-32.513 24.965-14.026-3.241-22.209-19.674-18.282-36.699zm19.155 24.366c6.696 2.995 14.899-2.88 18.311-13.122 3.411-10.249.756-20.984-5.941-23.98-6.698-2.997-14.89 2.881-18.307 13.127-3.416 10.248-.755 20.977 5.937 23.975"/><path d="m237.696 17.908h8.24c8.932 0 7.12 11.442-1.392 11.442h-8.798zm-3.904 24.001h10.606c10.053 0 9.771 12.282-1.394 12.282h-11.166zm-6.98-36.987-9.767 61.137h28.472c11.722 0 28.867-17.279 13.262-31.403 16.047-16.608.134-29.586-8.377-29.734-6.838-.11-23.724 0-23.724 0h.134"/><path d="m16.561 10.066c-12.061 7.465-17.86 18.842-16.316 34.314 1.796 17.946 25.036 29.252 44.724 17.863 1.724-.995 1.05-.838 1.688-1.408l3.94-25.036h-23.489l-1.801 11.532h9.817l-1.127 6.192c-5.624 2.249-15.189 1.404-19.266-5.908-2.582-4.631-4.977-14.967 5.909-24.473 8.857-7.735 24.189-9.136 33.052-5.059 0 0 1.124-6.467 1.965-12.519-17.016-5.905-30.238-.981-39.096 4.502"/><path d="m548.896 25.915c-6.694-10.942-18.479-12.588-18.479-12.588s-3.75-1.264-11.782-.194c-15.077 2.872-20.32 14.465-20.32 14.465s-5.397 8.492-3.254 18.785l6.587 13.009c4.858 4.553 6.847 4.553 7.152 4.824 6.43 2.907 13.89 1.223 13.89 1.223s9.414-.917 18.023-7.613c6.885-5.05 9.87-12.474 9.87-12.474l.913-9.959zm-18.327 22.344c-10.827 6.505-17.64-.612-17.64-.612s-3.021-1.99-3.672-8.036c-.464-7.001 6.504-10.636 6.504-10.636s3.674-2.259 8.266-1.914c4.592.343 6.041.037 9.757 2.794 3.518 3.177 3.288 5.51 3.288 5.51s1.265 7.883-6.503 12.894"/><path d="m550.58 45.352s.231 6.121-.728 7.614c-1.3 2.793-1.108 5.51-1.108 5.51s-.884 8.264 8.688 9.638c6.577-.037 7.378-5.51 7.494-7.844.381-1.833.23-10.369.23-10.369l8.533 6.965s6.198 5.204 9.837 8.225c3.79 2.983 4.741 3.519 4.741 3.519s.807.954 3.71.611c2.34.04 4.481-2.066 4.481-2.066s2.713-1.984 3.401-5.468c.842-4.133-2.37-6.161-2.37-6.161s-11.859-9.566-19.895-16.148c5.395-2.945 7.997-4.973 7.997-4.973s7.502-4.972 9.106-12.59c2.221-8.38-4.093-11.667-4.093-11.667s-3.943-2.832-7.27-4.325c-8.382-4.094-16.185-3.253-16.185-3.253s-11.095-.764-18.326 8.153c-3.328 4.321-1.26 9.986-1.26 9.986s.411.907 1.337 5.203c1.855 8.643 1.68 19.44 1.68 19.44zm14.54-16.989-.728-9.986s6.999-.154 9.909.343c5.742.88 5.433 2.49 5.433 2.49s-.191 2.026-4.554 4.017c-4.741 2.297-10.06 3.136-10.06 3.136"/></g></svg>