<svg clip-rule="evenodd" fill-rule="evenodd" stroke-linejoin="round" stroke-miterlimit="2" viewBox="0 0 600 150" xmlns="http://www.w3.org/2000/svg"><g fill="#fff"><g fill-rule="nonzero"><path d="m101.518 95.026h-18.514v18.128h5.748v-12.127c0-.769.636-1.406 1.404-1.406h9.955c.764 0 1.407.637 1.407 1.406v12.127h5.741v-12.127s.768-6.001-5.741-6.001"/><path d="m261.462 95.026h-18.515v18.128h5.871v-12.127c0-.769.643-1.406 1.28-1.406h9.96c.762 0 1.404.637 1.404 1.406v12.127h5.739v-12.127s.766-6.001-5.739-6.001"/><path d="m348.646 95.026h-18.512v18.128h5.749v-12.127c0-.769.633-1.406 1.404-1.406h9.955c.762 0 1.404.637 1.404 1.406v12.127h5.743v-12.127s.762-6.001-5.743-6.001"/><path d="m109.814 99.621h6.382c.638 0 1.406.637 1.406 1.406v12.127h6.123v-12.127c0-.769.641-1.406 1.405-1.406h6.382v-4.595h-21.698z"/><path d="m356.812 95.026v4.595h6.386c.761 0 1.404.637 1.404 1.406v12.127h6.385v-12.127c0-.769.506-1.406 1.271-1.406h6.386v-4.595z"/><path d="m182.703 99.621h6.382c.764 0 1.405.637 1.405 1.406v12.127h6.377v-12.127c0-.769.643-1.406 1.411-1.406h6.377v-4.595h-21.952z"/><path d="m232.995 95.026h6.126v18.128h-6.126z"/><path d="m223.164 103.965h-10.334v-3.193c0-.514.764-1.151 1.145-1.151h7.785c.891 0 1.404.637 1.404 1.151zm-.128-8.939h-10.084c-6.51 0-5.996 6.001-5.996 6.001v12.127h5.874v-4.592h10.334v4.592h5.868v-12.127s.766-6.001-5.996-6.001"/><path d="m174.532 102.561c0 .89-.38 1.404-1.149 1.404h-8.425c-.381 0-.891-.514-.891-1.404v-1.789c0-.768.51-1.406 1.274-1.406h8.042c.769 0 1.149.379 1.149 1.406zm-.126-7.535h-16.339v18.128h6v-3.45c0-.765.51-1.142 1.274-1.142h8.042c.381 0 1.149.637 1.149 1.142v3.45h5.742v-2.804s.513-2.563-2.168-4.348c1.787-1.275 2.427-3.185 2.555-4.34.126-.509.126-.89.126-.89s0-5.746-6.381-5.746"/><path d="m58.878 107.153s-.636 6.001 6.003 6.001h14.297v-4.592h-13.278c-.893 0-1.661-.775-1.661-1.533 0-.894.642-1.408 1.661-1.408h12.514v-3.189h-12.77c-.763 0-1.405-.637-1.405-1.405 0-.769.642-1.406 1.405-1.406h13.534v-4.595h-20.3z"/><path d="m134.196 107.153s-.897 6.001 5.745 6.001h14.297v-4.592h-13.278c-.897 0-1.661-.775-1.661-1.533 0-.894.764-1.408 1.661-1.408h12.51v-3.189h-12.51c-.897 0-1.661-.637-1.661-1.405 0-.769.764-1.406 1.661-1.406h13.278v-4.595h-20.042z"/><path d="m306.265 107.153s-.642 6.001 5.872 6.001h14.424v-4.592h-13.405c-.766 0-1.532-.775-1.532-1.533 0-.894.513-1.408 1.407-1.408h12.507v-3.189h-12.507c-.894 0-1.407-.637-1.407-1.405 0-.769.513-1.406 1.407-1.406h13.53v-4.595h-20.296z"/><path d="m296.735 95.05h-25.663v18.124h5.363v-12.123c0-.764.638-1.404 1.404-1.404h4.336c.77 0 1.411.64 1.411 1.404v12.123h5.997v-12.123c0-.764.513-1.404 1.404-1.404h4.597c.509 0 1.151.64 1.151 1.404l.249 12.123h5.743v-12.123s.766-6.001-5.992-6.001"/><path d="m467.965 99.618h6.508c.505 0 1.147.642 1.147 1.404v12.125h6.386l.253-12.125c0-.762.38-1.404 1.151-1.404h6.385v-4.592h-21.83z"/><path d="m541.746 95.026h-25.654v18.121h5.359v-12.125c0-.762.637-1.404 1.403-1.404h4.34c.762 0 1.4.642 1.4 1.404v12.125h6v-12.125c0-.762.51-1.404 1.408-1.404h4.593c.513 0 1.151.642 1.151 1.404l.257 12.125h5.744v-12.125s.762-5.996-6.001-5.996"/><path d="m441.671 95.026h-5.492v6.766c0 .759-.763 1.4-1.399 1.4h-8.175c-.764 0-1.404-.641-1.404-1.4v-6.766h-5.742v6.638s-.637 6.121 6.001 6.121h1.913v5.362h6.384v-5.362h2.168c6.638 0 5.746-5.993 5.746-5.993z"/><path d="m492.217 107.151s-.893 5.996 5.745 5.996h14.295v-4.596h-13.273c-.894 0-1.664-.638-1.664-1.532 0-.891.77-1.271 1.664-1.271h12.507v-3.197h-12.507c-.894 0-1.664-.759-1.664-1.529 0-.762.77-1.404 1.664-1.404h13.273v-4.592h-20.04z"/><path d="m460.051 102.422h-8.555c-1.019 0-1.655-.377-1.655-1.267 0-.774.636-1.537 1.4-1.537h14.552v-4.592h-15.952c-2.938 0-5.487 2.423-5.487 5.234 0 3.956 2.549 5.488 5.997 5.488h8.551c.895 0 1.789.38 1.789 1.271 0 .766-.64 1.532-1.408 1.532h-14.929v4.596h16.337c2.679 0 5.489-2.169 5.489-5.234 0-3.697-2.938-5.491-6.129-5.491"/><path d="m411.417 102.422h-8.296c-1.023 0-1.787-.377-1.787-1.267 0-.774.764-1.537 1.532-1.537h14.552v-4.592h-15.958c-3.191 0-5.746 2.423-5.746 5.234 0 3.956 2.81 5.488 6.256 5.488h8.296c1.023 0 1.787.38 1.787 1.271 0 .766-.764 1.532-1.532 1.532h-14.807v4.596h16.339c2.937 0 5.62-2.169 5.62-5.234 0-3.697-2.81-5.491-6.256-5.491"/></g><path d="m520.914.222h-441.828c-47.31-.111-79.086 33.902-79.086 74.679 0 40.769 31.699 74.39 79.154 74.407h441.692c47.446-.017 79.154-33.638 79.154-74.407 0-40.777-31.785-74.79-79.086-74.679zm-.214 130.811h-441.4c-37.712.128-60.632-25.184-60.632-56.234 0-31.059 23.066-56.166 60.632-56.234h441.4c37.566.068 60.624 25.175 60.624 56.234 0 31.05-22.912 56.362-60.624 56.234z"/><path d="m177.917 50.09h16.811v37.18h-16.811z"/><path d="m288.204 50.158v-5.531h-9.11v-7.517h-16.824l.014 7.524-9.151.007v5.517h9.144l-.014 37.112h16.845l-.014-37.112z"/><path d="m151.024 70.35-24.104-38.989h-17.416l-.007 55.909h17.314v-38.989l24.226 38.989h17.253v-55.909h-17.28z"/><path d="m370.741 48.376c-5.565.156-10.192 2.537-13.416 5.606-.014-.919 0-3.905 0-3.905l-16.682.006-.007 37.18h16.689s-.014-22.838-.014-24.424c0-3.238 3.402-6.844 7.98-6.844 4.586 0 7.681 3.606 7.681 6.844v24.424h16.709s-.007-17.614 0-20.233c.095-14.722-12.661-18.838-18.94-18.654z"/><path d="m234.098 48.376c-5.558.156-10.191 2.537-13.409 5.606-.014-.919 0-3.905 0-3.905l-16.709.006.014 37.18h16.695s-.014-22.838-.014-24.424c0-3.238 3.402-6.844 7.98-6.844 4.579 0 7.681 3.606 7.681 6.844v24.424h16.709s-.021-17.614 0-20.233c.088-14.722-12.668-18.838-18.947-18.654z"/><path d="m472.564 47.546c-13.572 0-24.573 9.354-24.573 20.879 0 11.531 11.001 20.879 24.573 20.879 13.573 0 24.574-9.348 24.574-20.879 0-11.525-11.001-20.879-24.574-20.879zm6.742 28.709c0 5.926-3.503 8.368-6.871 8.368-3.374 0-6.892-2.442-6.892-8.368 0-2.251.007-8.021.007-8.021s.007-5.497.007-7.755c0-5.892 3.524-8.321 6.871-8.321 3.361 0 6.872 2.429 6.872 8.321 0 2.258 0 6.422.02 7.919 0 .088-.014 5.619-.014 7.857z"/><path d="m425.921 51.927c-2.68-1.51-5.524-2.966-9.51-3.313-12.117-1.068-21.383 9.647-21.383 19.464 0 12.94 9.994 17.729 11.504 18.437 5.661 2.632 12.92 2.639 19.355-1.402 0 .347.007 2.15.007 2.15h16.621v-55.902h-16.594zm.123 16.559s.007 4.211.007 6.599c0 5.742-3.98 7.246-6.599 7.246-2.667 0-6.586-1.504-6.586-7.246 0-1.973.007-6.612.007-6.612s-.007-4.722-.007-6.627c0-5.755 3.919-7.218 6.592-7.218 2.613 0 6.586 1.463 6.586 7.218z"/><path d="m335.548 68.833c0-11.525-11.137-21.076-24.812-21.076-13.668 0-24.757 9.341-24.757 20.872 0 11.525 11.089 20.872 24.757 20.872 11.355 0 20.927-6.47 23.852-15.253l-16.756.014s.014.163.014 2.252c0 6.803-4.47 8.313-6.96 8.313-2.477 0-7.028-1.51-7.028-8.313 0-2.034.014-7.674.014-7.674s31.676.013 31.676-.007zm-30.574-13.076c1.313-2.292 3.728-3.388 5.912-3.395 2.19.007 4.606 1.103 5.912 3.395 1.075 1.858 1.122 4.035 1.102 7.287h-14.035c-.027-3.252.041-5.429 1.109-7.287z"/><path d="m177.876 31.341h16.852v11.429h-16.852z"/></g></svg>