<?xml version="1.0" encoding="UTF-8" standalone="no"?><!DOCTYPE svg PUBLIC "-//W3C//DTD SVG 1.1//EN" "http://www.w3.org/Graphics/SVG/1.1/DTD/svg11.dtd"><svg width="100%" height="100%" viewBox="0 0 600 303" version="1.1" xmlns="http://www.w3.org/2000/svg" xmlns:xlink="http://www.w3.org/1999/xlink" xml:space="preserve" xmlns:serif="http://www.serif.com/" style="fill-rule:evenodd;clip-rule:evenodd;stroke-linejoin:round;stroke-miterlimit:2;"><g id="nintendo_gameboy_advance"><g><path d="M0,302.55l57.51,-97.759l156.825,-0.129l14.838,25.604l13.405,-25.316l108.27,0.045l26.878,21.064l0,-21.064l203.783,-0l-0,97.379l-188.065,0l-27.33,-21.25l0,21.262l-152.343,-0.012l0,0.023l-10.354,-16.767c-8.352,9.379 -23.32,16.756 -47.852,16.756c-0,-0 -78.988,-0.028 -122.091,0.164l-33.474,-0Zm272.367,-81.527l-19.784,-0l-0.541,0.975l-22.672,41.175l-24.041,-41.208l-0.547,-0.942l-21.262,-0l1.743,2.87l4.089,6.745c-6.554,-6.237 -16.603,-9.615 -29.67,-9.615l-42.777,-0l0,53.525l-31.683,-52.55l-0.553,-0.919l-16.361,0l-0.552,0.931l-36.043,60.727l-1.692,2.854l14.167,-0l-0,0.022l31.497,0l-0,-14.262l-18.532,-0l18.555,-33.449l26.196,46.73l0.541,0.959l21.109,-0l-0.034,-0.062l32.428,-0c27.956,-0 42.139,-10.918 42.139,-32.462c0,-3.739 -0.485,-7.19 -1.415,-10.332l25.378,41.886l0.553,0.908l12.356,-0l0.542,-0.948l35.219,-60.721l1.647,-2.837Zm59.848,-0l-0,53.576l-31.729,-52.629l-0.558,-0.919l-16.361,-0l-0.547,0.925l-36.043,60.727l-1.692,2.86l19.22,-0l0.045,-0.068l26.445,-0l-0,-14.263l-18.538,0l18.521,-33.369l26.19,46.73l0.541,0.97l21.115,-0l-0.017,-0.034l10.671,-0l-0,-38.897l48.32,38.485l0.513,0.412l12.7,-0l0,-64.506l-17.065,-0l-0,38.366l-48.495,-37.966l-0.513,-0.4l-12.723,-0Zm163.78,0.017l-0,64.489l69.649,-0l0,-15.041l-50.982,-0l0,-11.302l29.292,0l0,-14.234l-29.292,-0l0,-9.317l50.266,0l0,-14.595l-68.933,-0Zm-23.839,-0l-37.819,-0c-13.27,-0 -17.742,4.105 -17.742,16.27l-0,31.96c-0,12.136 4.472,16.248 17.742,16.248l37.819,-0c13.287,-0 17.776,-4.112 17.776,-16.248l0,-9.057l-1.883,-0.012l-14.883,-0.034l-1.906,0l-0,9.932l-36.038,-0l0,-34.052l36.038,-0l-0,8.961l1.894,0.011l14.878,0.051l1.9,0.006l0,-7.766c0,-12.317 -4.32,-16.27 -17.776,-16.27Zm-319.377,49.448l-17.212,-0l-0,-34.83l24.256,-0c13.117,-0 19.231,5.307 19.231,16.687c-0,13.552 -6.633,18.143 -26.275,18.143Z" style="fill:#fff;fill-rule:nonzero;"/><path d="M546.306,219.573l-52.279,0l1.196,-7.557c-0.519,0.344 -1.032,0.717 -1.563,1.038c-12.046,7.54 -25.885,10.01 -38.941,7.004c-10.011,-2.312 -18.667,-7.652 -25.441,-15.012c-8.78,8.668 -20.624,14.347 -31.892,14.347l-256.715,0.18l-4.112,-23.421l-10.551,23.421l-42.799,0c-13.496,2.29 -27.076,0.305 -39.145,-5.882c-16.739,-8.555 -27.77,-24.07 -29.507,-41.479c-2.904,-28.976 8.2,-52.11 32.084,-66.886c22.953,-14.206 47.322,-16.992 72.452,-8.279l4.625,1.613l1.76,-3.993l47.959,0l3.626,21.775l7.078,-21.775l219.799,-0.113c13.969,0 22.609,6.108 30.815,15.876c2.994,-2.837 6.226,-5.38 9.683,-7.546c8.657,-5.408 18.238,-8.161 27.781,-8.2l127.781,-0.017l-46.874,79.68l-6.82,45.226Zm-66.841,-108.077c-20.956,-4.839 -42.708,11.86 -48.574,37.311c-5.882,25.441 6.356,49.984 27.313,54.829c20.957,4.844 42.709,-11.855 48.58,-37.301c5.871,-25.44 -6.362,-50 -27.319,-54.839Zm-234.219,-0.795l-21.43,50.423l-9.249,-50.423l-18.701,-0l-24.166,74.397l-12.396,-74.397l-23.326,-0l-35.32,80.156l5.267,-33.511l-35.09,-0l-2.684,17.246l14.663,-0l-1.681,9.243c-8.409,3.35 -22.699,2.092 -28.79,-8.831c-3.858,-6.92 -7.439,-22.379 8.82,-36.568c13.236,-11.561 36.145,-13.653 49.381,-7.563c-0,0 1.68,-9.671 2.944,-18.701c-25.424,-8.837 -45.179,-1.471 -58.41,6.729c-18.024,11.155 -26.698,28.153 -24.38,51.264c2.673,26.822 37.402,43.712 66.818,26.692c0.271,-0.158 0.474,-0.276 0.671,-0.395l-2.769,6.277l19.75,0l12.402,-27.527l21.853,0l4.834,27.527l32.151,0l16.383,-51.484l10.518,51.484l12.61,0l24.589,-56.943l2.51,56.943l18.915,0l-3.987,-92.038l-22.7,-0Zm285.788,30.047l-11.764,-30.047l-21.651,-0l22.271,48.54l-6.852,43.498l18.915,0l5.809,-38.451l34.041,-53.587l-22.068,-0l-18.701,30.047Zm-257.629,61.991l52.742,0l3.163,-19.75l-33.008,0l2.622,-16.394l28.695,-0l3.158,-19.75l-29.005,-0l2.521,-16.395l32.992,0l3.152,-19.749l-52.324,-0l-14.708,92.038Zm131.065,-91.52c-10.219,-0.169 -35.457,0 -35.457,0l0.209,0l-14.595,91.328l42.539,0c17.523,0 43.138,-25.818 19.818,-46.899c23.98,-24.825 0.209,-44.214 -12.514,-44.429Zm82.395,54.378c-5.104,15.317 -17.353,24.098 -27.358,19.62c-9.999,-4.478 -13.975,-20.511 -8.866,-35.823c5.099,-15.317 17.342,-24.092 27.347,-19.615c10.005,4.467 13.981,20.512 8.877,35.818Zm-93.455,19.242l-16.682,0l2.927,-18.363l15.848,0c15.012,0 14.595,18.363 -2.093,18.363Zm-258.277,-27.493l7.985,-17.855l3.463,17.855l-11.448,-0Zm260.573,-9.633l-13.141,0l2.922,-17.105l12.305,0c13.349,0 10.637,17.105 -2.086,17.105Z" style="fill:#fff;fill-rule:nonzero;"/><rect x="127.364" y="187.983" width="17.764" height="25.383" style="fill:#fff;"/><rect x="219.702" y="208.613" width="17.764" height="25.383" style="fill:#fff;"/><rect x="368.291" y="208.613" width="17.764" height="25.383" style="fill:#fff;"/></g><path d="M286.167,72.563l-242.585,0c-20.726,0.071 -33.323,-13.84 -33.323,-30.905c0,-17.069 12.677,-30.867 33.323,-30.905l242.585,0c20.646,0.038 33.318,13.836 33.318,30.905c-0,17.065 -12.592,30.976 -33.318,30.905m0.118,-71.891l-242.821,0c-26,-0.061 -43.464,18.632 -43.464,41.043c-0,22.405 17.421,40.883 43.502,40.892l242.745,0c26.076,-0.009 43.502,-18.487 43.502,-40.892c0,-22.411 -17.468,-41.104 -43.464,-41.043m-118.445,38.447c0.906,-1.581 2.572,-2.337 4.079,-2.342c1.511,0.005 3.177,0.761 4.078,2.342c0.742,1.282 0.775,2.783 0.761,5.027l-9.683,-0c-0.018,-2.244 0.029,-3.745 0.765,-5.027m21.092,9.021c0,-7.951 -7.683,-14.54 -17.116,-14.54c-9.429,-0 -17.079,6.444 -17.079,14.399c-0,7.95 7.65,14.399 17.079,14.399c7.833,-0 14.436,-4.463 16.454,-10.522l-11.559,0.009c-0,-0 0.009,0.113 0.009,1.553c0,4.694 -3.083,5.736 -4.801,5.736c-1.708,-0 -4.848,-1.042 -4.848,-5.736c-0,-1.403 0.009,-5.294 0.009,-5.294c0,0 21.852,0.01 21.852,-0.004m24.278,-14.113c-3.839,0.108 -7.03,1.751 -9.255,3.867c-0.009,-0.633 0,-2.694 0,-2.694l-11.508,0.005l-0.004,25.649l11.512,-0c0,-0 -0.009,-15.756 -0.009,-16.849c-0,-2.234 2.346,-4.721 5.505,-4.721c3.163,-0 5.299,2.487 5.299,4.721l-0,16.849l11.526,-0c0,-0 -0.004,-12.151 0,-13.958c0.066,-10.156 -8.734,-12.996 -13.066,-12.869m-94.264,0c-3.834,0.108 -7.03,1.751 -9.25,3.867c-0.01,-0.633 -0,-2.694 -0,-2.694l-11.527,0.005l0.009,25.649l11.518,-0c-0,-0 -0.01,-15.756 -0.01,-16.849c0,-2.234 2.347,-4.721 5.505,-4.721c3.159,-0 5.299,2.487 5.299,4.721l0,16.849l11.527,-0c-0,-0 -0.014,-12.151 -0,-13.958c0.061,-10.156 -8.739,-12.996 -13.071,-12.869m132.416,13.873c-0,0 0.004,2.905 0.004,4.553c0,3.961 -2.745,4.998 -4.552,4.998c-1.84,0 -4.543,-1.037 -4.543,-4.998c-0,-1.361 0.005,-4.562 0.005,-4.562c-0,-0 -0.005,-3.257 -0.005,-4.571c-0,-3.971 2.703,-4.98 4.548,-4.98c1.802,0 4.543,1.009 4.543,4.98l-0,4.58Zm-0.085,-11.423c-1.849,-1.042 -3.811,-2.046 -6.561,-2.286c-8.359,-0.737 -14.751,6.655 -14.751,13.428c0,8.926 6.895,12.23 7.937,12.719c3.904,1.816 8.912,1.82 13.352,-0.967c-0,0.239 0.005,1.483 0.005,1.483l11.465,-0l0,-38.565l-11.447,0l0,14.188Zm36.828,16.783c0,4.088 -2.417,5.773 -4.74,5.773c-2.328,-0 -4.754,-1.685 -4.754,-5.773c-0,-1.553 0.005,-5.533 0.005,-5.533c-0,-0 0.004,-3.792 0.004,-5.351c0,-4.064 2.431,-5.739 4.74,-5.739c2.319,-0 4.741,1.675 4.741,5.739c-0,1.559 -0,4.431 0.014,5.463c-0,0.061 -0.01,3.877 -0.01,5.421m-4.651,-19.806c-9.363,0 -16.952,6.454 -16.952,14.404c0,7.955 7.589,14.404 16.952,14.404c9.363,-0 16.952,-6.449 16.952,-14.404c0,-7.95 -7.589,-14.404 -16.952,-14.404m-203.293,-3.294l11.625,-0l0,-7.885l-11.625,0l-0,7.885Zm0.028,30.698l11.597,0l0,-25.648l-11.597,-0l0,25.648Zm76.083,-25.601l-0,-3.816l-6.285,0l0,-5.186l-11.606,0l0.009,5.191l-6.312,0.004l-0,3.807l6.308,-0l-0.01,25.601l11.621,0l-0.01,-25.601l6.285,-0Zm-94.635,13.929l-16.629,-26.897l-12.014,0l-0.005,38.569l11.944,0l0,-26.897l16.713,26.897l11.902,0l0,-38.569l-11.921,0l0.01,26.897Z" style="fill:#fff;fill-rule:nonzero;"/></g></svg>