<svg clip-rule="evenodd" fill-rule="evenodd" stroke-linejoin="round" stroke-miterlimit="2" viewBox="0 0 600 79" xmlns="http://www.w3.org/2000/svg"><g fill="#fff"><g fill-rule="nonzero"><path d="m153.402 68.863h-12.004l-1.605-36.156-15.607 36.156h-8.007l-6.669-32.687-10.408 32.687h-20.413l-3.069-17.473h-13.878l-7.871 17.473h-12.545l25.754-58.433h14.809l7.87 47.229 15.347-47.23h11.87l5.871 32.021 13.615-32.021h14.409zm-79.592-28.822-2.197-11.335-5.07 11.335z"/><path d="m187.823 68.863 2.006-12.538h-20.949l1.66-10.406h18.221l2.002-12.546h-18.415l1.601-10.407h20.945l2.003-12.536h-33.22l-9.343 58.433z"/><path d="m343.794 10.429h-14.01l-11.875 19.076-7.467-19.076h-13.743l14.14 30.815-4.356 27.618h12.011l3.685-24.412z"/><path d="m254.323 34.62c3.729-16.157 17.539-26.761 30.84-23.685 13.31 3.075 21.074 18.66 17.348 34.818-3.729 16.154-17.537 26.759-30.844 23.684-13.307-3.076-21.07-18.665-17.344-34.817zm18.172 23.116c6.352 2.841 14.134-2.732 17.371-12.448 3.236-9.724.717-19.908-5.636-22.75-6.354-2.843-14.126 2.733-17.368 12.454-3.24 9.722-.716 19.9 5.633 22.744"/><path d="m225.497 23.069h7.817c8.473 0 6.754 10.856-1.321 10.856h-8.346zm-3.704 22.77h10.061c9.537 0 9.27 11.652-1.322 11.652h-10.592zm-6.621-35.089-9.266 57.999h27.011c11.12 0 27.385-16.392 12.581-29.791 15.223-15.755.126-28.067-7.948-28.208-6.487-.104-22.506 0-22.506 0z"/><path d="m15.711 15.63c-11.442 7.082-16.944 17.875-15.479 32.553 1.704 17.025 23.751 27.751 42.429 16.946 1.635-.943.996-.795 1.601-1.336l3.738-23.751h-22.283l-1.709 10.941h9.314l-1.07 5.873c-5.335 2.134-14.409 1.333-18.277-5.604-2.45-4.394-4.722-14.199 5.606-23.217 8.402-7.338 22.947-8.668 31.355-4.799 0 0 1.066-6.136 1.864-11.877-16.142-5.602-28.685-.93-37.089 4.271"/></g><path d="m402.198 70.095c6.082 3.958 11.794 4.71 12.796 4.815 1.01.205 7.113 1.298 14.135-.522 6.205-1.265 10.838-4.204 11.481-4.627.777-.449 6.566-3.945 10.712-10.58.518 4.71 1.102 9.588 1.158 10.048.084.997.843 6.961 7.019 8.105.014.003.028.005.042.008 5.697.941 11.321-1.786 13.698-2.907 1.82-.855 4.16-1.62 4.644-1.775.435-.094 2.39-.502 4.345-.668.007-.001.015-.002.022-.002 4.838-.465 7.213-1.274 7.986-1.589.572-.134 1.793-.508 3.022-1.448 3.749 3.176 6.102 3.941 6.489 4.051l.13.064c6.928 3.133 14.882 1.7 16.02 1.471 1.222-.142 11.083-1.476 20.15-8.518 2.167-1.593 3.994-3.393 5.503-5.164-.481 1.957-.475 3.564-.456 4.09-.051.843-.104 4.203 1.969 7.264 1.545 2.281 4.255 4.474 9.148 5.176.107.015.215.023.322.022 2.652-.015 4.593-.732 6.032-1.751 3.246-2.298 3.969-6.323 4.099-8.525.193-1.206.256-4.112.271-6.677 0 0 5.494 4.485 5.494 4.485.31.26 6.684 5.61 10.465 8.75.015.012.029.024.044.035 2.925 2.302 4.345 3.297 4.945 3.694.509.502 2.018 1.55 5.518 1.167 2.789-.031 5.371-2.12 6.018-2.685.537-.418 3.561-2.934 4.383-7.083 1.085-5.348-2.614-8.218-3.365-8.739-.935-.755-10.715-8.647-18.616-15.097 3.668-2.148 5.621-3.61 5.951-3.862.864-.6 8.726-6.261 10.521-14.652 2.587-9.864-4.223-14.151-5.322-14.77-.716-.505-4.618-3.215-7.969-4.725-8.714-4.245-16.879-3.777-18.192-3.669-1.655-.062-13.335-.14-21.143 9.486-.011.014-.022.029-.034.043-2.366 3.073-2.606 6.677-2.358 9.26-6.534-5.649-13.74-7.074-15.003-7.287-.94-.274-5.243-1.314-13.32-.238-.04.005-.08.011-.12.019-16.23 3.091-22.453 15.082-23.135 16.497-.66 1.096-5.096 8.894-4.109 18.645-3.365.049-6.889.918-6.889.918-.071.018-.141.04-.21.065 0 0-3.684 1.352-6.292 2.15l-.037.011c-.438-3.871-.926-11.705-.718-15.38.001-.027.002-.055.003-.082.159-8.589-.521-15.66-.58-16.26-.059-.928-.728-9.58-5.48-14.838-.023-.025-.046-.049-.07-.073-2.593-2.616-4.917-3.663-6.886-3.966-3.07-.472-5.442.862-7.065 1.84-.118.071-.229.153-.331.245-6.021 5.405-3.647 11.949-3.347 12.701l1.812 5.13c-2.01-2.147-7.415-7.081-16.145-9.05-.011-.002-.022-.005-.033-.007-9.074-1.898-16.345 1.692-17.385 2.241-.944.398-7.09 3.119-11.823 8.31-7.654 7.405-10.155 17.985-10.402 19.101-.273.961-2.079 7.824.15 14.551-2.192-.088-3.983.157-4.412.222-.917.088-11.566 1.067-17.23-.133-.026-.006-.051-.011-.076-.015-7.72-1.351-7.402-9.713-7.402-9.713.001-.057.001-.113-.002-.17 0 0-.207-6.249 5.092-14.744h.001c6.514-10.45 13.597-12.439 13.597-12.439.073-.019.145-.042.216-.068 0 0 .519-.196 1.167-.124 1.928 6.766 8.638 7.047 9.338 7.058.583.022 4.371.051 7.345-2.55 2.057-1.798 3.847-4.865 3.629-10.256-.002-.054-.006-.108-.013-.162-1.205-10.455-11.041-12.177-15.27-13.155-.035-.008-.071-.016-.106-.022-11.168-2.005-18.734 3.366-19.927 4.283-1.224.717-8.482 5.341-16.958 18.681-5.756 8.275-6.938 14.977-7.123 16.293-.253.895-.718 3.407-.489 9.356-.143 5.571 1.726 9.774 2.125 10.605.49 1.352 4.252 10.839 14.592 14.9 6.53 2.695 16.05 2.679 16.05 2.679h.021s8.682-.121 15.416-.486c4.044.265 6.278-1.582 6.877-2.167.719-.54 2.839-2.314 3.88-5.115zm-15.26-64.743c3.224.731 10.887 1.572 11.831 9.307.127 3.485-.807 5.551-2.144 6.721-1.744 1.524-3.972 1.488-4.314 1.475-.031-.001-.063-.002-.095-.003-.389-.006-4.141-.132-5.213-3.894-.486-1.704-1.954-2.944-3.715-3.138-1.465-.161-2.686.204-3.06.334-.482.128-8.699 2.458-16.096 14.323-6.16 9.874-5.75 17.195-5.75 17.195 0 .02.001.04.002.06 0-.009-.001-.018-.001-.027.01 1.468.451 12.131 10.976 13.994 6.109 1.278 17.518.293 18.503.2.08-.008.161-.018.241-.03.349-.053 1.803-.248 3.583-.177 1.429.057 2.796-.59 3.657-1.733.86-1.143 1.105-2.636.655-3.994-1.836-5.54-.321-11.193-.096-11.984.024-.084.046-.168.065-.254.218-.988 2.405-10.359 9.176-16.909.065-.063.128-.129.189-.196 4.122-4.519 9.476-6.884 10.297-7.23.116-.049.23-.103.342-.162.864-.457 6.905-3.403 14.441-1.832 7.511 1.699 12.174 5.924 13.905 7.772 1.41 1.506 3.682 1.817 5.445.746 1.763-1.072 2.534-3.232 1.847-5.177l-1.812-5.13c-.02-.055-.041-.11-.063-.165-.184-.461-1.491-4.394 2.083-7.72.95-.583 2.249-1.402 3.95-1.14 1.284.197 2.726.995 4.412 2.686 3.864 4.306 4.287 11.399 4.335 12.157.004.052.008.104.013.156.058.58.713 7.423.559 15.735-.208 3.877.287 12.014.743 16.046.249 2.203 2.114 3.869 4.331 3.869l.085-.013c.398-.003.793-.062 1.174-.175l.012-.002-.012.002.053-.014c2.406-.736 5.697-1.926 6.388-2.178.496-.118 3.198-.726 5.792-.764 1.221-.018 2.379-.548 3.191-1.46.813-.912 1.205-2.123 1.082-3.338-.845-8.346 2.943-15.021 3.507-15.96.069-.114.133-.232.191-.352.587-1.218 6.019-11.418 19.968-14.098 6.947-.918 10.651-.125 11.461.111.163.048.327.085.494.113 1.085.184 7.264 1.433 12.878 6.287 1.348 1.165 3.27 1.392 4.852.574 1.583-.817 2.509-2.516 2.338-4.29-.164-1.712-.101-4.123 1.459-6.163 6.494-7.983 16.198-7.903 17.573-7.851.174.006.35.002.524-.012 1.15-.096 8.293-.474 15.923 3.243.039.019.079.038.119.056 3.05 1.374 6.595 3.852 7.247 4.312.12.085.244.163.372.235.727.41 4.957 3.341 3.246 9.867-.017.064-.032.129-.046.194-1.477 6.901-8.035 11.49-8.745 11.983-.055.038-.108.077-.161.117-.305.234-2.116 1.579-5.507 3.565-1.232.721-2.033 2.001-2.143 3.424-.111 1.424.483 2.812 1.59 3.714 7.909 6.456 17.698 14.356 18.634 15.112.082.066.167.13.254.19.367.254 2.107 1.68 1.577 4.29-.001.006-.002.013-.004.019-.522 2.633-2.446 4.228-2.787 4.493-.063.05-.125.101-.185.153-.352.307-1.685 1.595-3.201 1.611-.143.002-.285.01-.426.026-1.005.11-1.972-.069-2.169-.11-.149-.132-.307-.252-.472-.362-.564-.372-1.892-1.309-4.631-3.464-3.777-3.136-10.114-8.457-10.423-8.716-.015-.013-.031-.026-.046-.038 0 0-4.451-3.633-5.341-4.36-.09-.073-.153-.125-.153-.125s-7.112 3.573-7.112 3.571l-.004-.219c-.014 2.309-.042 4.927-.216 6.012-.023.143-.039.287-.047.432-.079 1.326-.312 3.841-2.266 5.225-.809.573-1.908.916-3.371.947-3.159-.484-4.993-1.788-6.004-3.281-1.299-1.918-1.259-4.026-1.227-4.555.008-.139.01-.279.005-.418-.013-.372-.007-1.51.333-2.896.482-1.962-.447-3.998-2.246-4.92-1.798-.921-3.994-.485-5.305 1.053-1.308 1.535-2.888 3.098-4.767 4.478-.031.023-.062.046-.092.07-8.094 6.287-16.886 7.504-17.978 7.631-.12.014-.239.033-.358.056-.945.19-7.532 1.433-13.292-1.136-.002-.001-.054-.027-.054-.027-.24-.12-.492-.217-.751-.291-.294-.084-2.015-.77-4.864-3.184-1.563-1.325-3.838-1.382-5.466-.137-.558.427-1.108.606-1.367.667-.221.052-.437.12-.647.206-.654.265-2.672.895-6.762 1.287.007 0 .015-.001.023-.002-2.202.188-4.405.645-4.895.751-.138.03-.275.067-.41.11-.539.173-3.141 1.029-5.167 1.981-.001.001-.002.001-.004.002-1.935.912-6.469 3.309-11.106 2.552-3.114-.588-3.409-3.677-3.452-4.181-.004-.051-.009-.103-.015-.154-.055-.458-.637-5.315-1.153-10.005-.203-1.845-1.552-3.36-3.362-3.773s-3.684.365-4.668 1.94c-3.566 5.707-8.53 8.731-9.198 9.117-.071.042-.141.085-.21.13-.557.366-4.579 2.902-9.958 3.998-.075.016-.15.033-.224.052-6.05 1.568-11.306.646-12.177.47-.135-.028-.272-.049-.41-.063-.852-.09-5.698-.766-10.872-4.134-1.11-.722-2.488-.9-3.745-.485s-2.257 1.379-2.719 2.62c-.643 1.732-1.969 2.816-2.413 3.15-.149.112-.29.233-.423.362-.306.298-1.491 1.074-3.551.94-.173-.012-.346-.013-.52-.003-6.53.353-14.914.475-15.232.479-.549.001-8.706-.017-14.355-2.35-.024-.009-.047-.019-.07-.028-8.561-3.361-11.682-11.208-12.088-12.327-.05-.137-.106-.271-.169-.402-.324-.674-1.813-4.088-1.697-8.606.003-.093.002-.187-.001-.28-.196-5.086.112-7.238.328-8.003.053-.19.094-.383.122-.579.163-1.166 1.282-7.075 6.385-14.41.034-.05.068-.1.101-.151 7.788-12.258 14.356-16.598 15.481-17.257.157-.092.309-.195.454-.306.985-.757 7.252-5.099 16.474-3.453z"/><path d="m421.347 60.482.55.064c4.997.47 8.761-1.211 11.282-3.076 2.237-1.666 3.528-3.498 3.947-4.152.834-.958 4.115-5.552.958-15.617-2.877-9.245-8.712-9.689-8.951-9.704-.657-.072-8.114-.743-15.258 5.264-.022.019-.045.039-.067.059-7.196 6.575-5.963 14.118-5.804 14.936.153.992 1.946 10.759 13.343 12.226zm.958-4.083c-8.611-.891-10.07-8.047-10.183-8.777-.008-.054-.018-.108-.028-.162-.119-.61-.841-6.136 4.491-11.033 5.684-4.762 11.567-4.346 12.091-4.288.069.008.138.013.207.018-.012-.001-.115-.01-.115-.01s3.62 1.274 5.338 6.792c.001.003.002.006.003.009 2.347 7.485.494 10.922-.126 11.634-.134.154-.256.318-.366.49-.661 1.032-4.274 5.981-11.312 5.327z"/><path d="m499.169 42.561c-.009.067.024.073-.007.053-.102.771-.132 1.582-.076 2.432.718 6.662 3.853 9.475 4.682 10.087 1.246 1.202 9.271 8.06 21.352.803 8.556-5.521 8.112-13.919 7.928-15.599.03-.864-.208-3.802-4.229-7.433-.052-.047-.106-.091-.162-.133-4.396-3.262-6.084-2.99-11.518-3.396-5.339-.401-9.659 2.09-10.067 2.334-.812.459-7.001 4.163-7.903 10.852zm26.801-6.355c2.251 2.052 2.739 3.49 2.722 3.981-.007.209 0 .417.023.624.135 1.237.357 7.348-5.9 11.423-9.059 5.406-15.084.665-16.02-.238-.138-.132-.283-.256-.437-.369-.565-.417-2.419-2.445-2.926-6.953-.327-5.742 5.15-8.812 5.785-9.17.03-.017.06-.034.089-.052.304-.182 3.527-2.029 7.507-1.73h.002c4.302.321 5.71-.049 9.155 2.484z"/><path d="m558.527 33.092c.045.608.342 1.17.819 1.549.478.379 1.092.54 1.695.445 0 0 5.968-.942 11.296-3.518 5.483-2.51 6.025-5.345 6.078-5.931.123-.597.413-3.883-7.597-5.115-3.229-.546-10.94-.392-10.94-.392-.597.013-1.162.271-1.564.712-.402.442-.605 1.03-.562 1.625zm3.742-8.631c2.347-.009 5.923.038 7.822.359.022.004.043.007.065.011 1.307.201 2.443.583 3.206.891-.614.556-1.582 1.307-2.839 1.882-.028.013-.056.026-.084.039-2.779 1.344-5.753 2.189-7.745 2.658z"/></g></svg>