<svg clip-rule="evenodd" fill-rule="evenodd" stroke-linejoin="round" stroke-miterlimit="2" viewBox="0 0 600 99" xmlns="http://www.w3.org/2000/svg"><g fill="#fff"><g fill-rule="nonzero"><path d="m382.251 63.487c.891.618 1.56 1.287 2.006 2.006.48.858.771 1.818.874 2.881v23.713c0 1.441-.265 2.563-.797 3.37-.531.805-1.124 1.448-1.775 1.928-.754.548-1.611.926-2.571 1.131h-15.998v-36.059h14.454c1.647.071 2.915.413 3.807 1.03zm1.131 4.784c-.102-.754-.325-1.44-.668-2.057-.275-.515-.703-.986-1.287-1.415-.583-.429-1.372-.609-2.366-.541l-13.426.052v32.561h13.632c.72-.136 1.372-.376 1.955-.719.48-.275.943-.686 1.389-1.236.445-.548.703-1.302.772-2.263v-24.382zm-7.561 2.084c.308.291.548.608.72.951.171.377.274.806.309 1.286v14.917c.033.858-.043 1.519-.232 1.981-.189.463-.42.797-.695 1.002-.308.275-.651.429-1.028.464h-3.087l-.102-21.142h2.778c.583.069 1.028.249 1.337.541zm-.617 2.237c-.069-.274-.172-.497-.309-.669-.308-.376-.84-.48-1.595-.308v17.695c.308.102.6.137.875.102.24-.034.454-.136.642-.308.189-.171.318-.497.387-.977z"/><path d="m397.374 62.613v35.801h-9.979v-35.801zm-1.749 2.057h-6.584v31.79h6.584z"/><path d="m410.492 74.341v-1.491c.034-.686-.121-1.098-.463-1.235-.137-.068-.326-.068-.566 0-.275 0-.472.06-.592.18s-.197.266-.231.437c-.07.171-.07.377 0 .617v1.955l7.921 5.144c.994.548 1.757 1.131 2.289 1.749s.901 1.201 1.106 1.749c.24.618.361 1.269.361 1.955v7.87c-.069 1.132-.361 2.049-.875 2.752-.514.704-1.097 1.244-1.749 1.62-.754.446-1.595.773-2.52.978h-10.391c-1.303-.035-2.324-.36-3.061-.978-.737-.616-1.277-1.268-1.62-1.954-.412-.823-.669-1.749-.772-2.778v-11.729l9.362 5.711v2.006c0 .308.042.54.128.694s.197.266.335.335c.137.102.308.154.514.154.515-.035.806-.24.875-.618.034-.136.016-.325-.052-.565v-2.367l-6.841-4.114c-1.201-.652-2.101-1.347-2.701-2.084s-1.037-1.398-1.311-1.98c-.309-.686-.463-1.372-.463-2.058v-8.436c.068-1.303.377-2.314.926-3.034.548-.721 1.166-1.252 1.852-1.595.788-.377 1.663-.6 2.623-.669h9.208c1.577.069 2.794.361 3.652.875s1.509 1.097 1.955 1.749c.48.754.789 1.595.926 2.52v13.117zm-.824-4.475c.548.069.969.197 1.261.386.291.189.523.403.694.643.171.275.291.583.36.926v1.491l6.688 4.012-.104-8.795c.034-.891-.163-1.621-.591-2.186-.429-.566-.901-1.003-1.415-1.312-.617-.377-1.321-.617-2.109-.72h-9.979c-.789.069-1.407.283-1.852.643-.446.36-.789.728-1.029 1.106-.275.48-.463.995-.566 1.543v8.333c-.034.686.103 1.286.412 1.801.308.513.651.959 1.029 1.337.411.445.908.839 1.492 1.182l8.435 5.453v3.344c0 .651-.137 1.157-.411 1.517-.275.361-.583.626-.926.797-.378.207-.823.344-1.338.412-.652-.068-1.149-.213-1.491-.437-.343-.222-.6-.471-.772-.746-.206-.308-.344-.668-.412-1.081v-1.645l-6.018-3.601-.103 8.436c.034.995.249 1.757.643 2.29.394.532.831.934 1.311 1.209.548.308 1.183.497 1.903.565h10.031c.995-.034 1.74-.257 2.238-.668.497-.412.866-.858 1.106-1.338.274-.583.412-1.234.412-1.955v-7.665c.034-.412-.069-.823-.309-1.235-.24-.411-.514-.771-.822-1.08-.378-.378-.79-.737-1.235-1.08l-9.157-5.916v-3.807c.034-.583.198-1.011.489-1.285.292-.275.592-.481.9-.618.378-.136.79-.222 1.235-.256z"/><path d="m442.384 76.09-3.703 4.269 3.703 4.527v13.528h-9.516v-9.979l-1.338-1.234v11.316h-9.619v-35.956h9.619v11.317l1.338-1.595v-9.722h9.516zm-1.646-11.471h-5.967l-.052 8.59-4.835 4.938-.206-13.734h-6.018v31.995h5.967v-13.272l4.681 4.424v8.899h6.327v-11.368l-4.064-4.733 4.167-4.834z"/><path d="m470.316 74.341v-1.491c.034-.686-.12-1.098-.463-1.235-.137-.068-.325-.068-.566 0-.275 0-.472.06-.592.18s-.197.266-.231.437c-.07.171-.07.377 0 .617v1.955l7.922 5.144c.994.548 1.757 1.131 2.289 1.749s.9 1.201 1.105 1.749c.24.618.361 1.269.361 1.955v7.87c-.069 1.132-.361 2.049-.874 2.752-.515.704-1.098 1.244-1.75 1.62-.754.446-1.595.773-2.52.978h-10.391c-1.303-.035-2.324-.36-3.061-.978-.737-.616-1.277-1.268-1.62-1.954-.412-.823-.669-1.749-.772-2.778v-11.729l9.362 5.711v2.006c0 .308.043.54.129.694.085.154.197.266.334.335.137.102.309.154.514.154.515-.035.807-.24.875-.618.034-.136.016-.325-.052-.565v-2.367l-6.841-4.114c-1.2-.652-2.101-1.347-2.701-2.084-.599-.737-1.037-1.398-1.311-1.98-.308-.686-.463-1.372-.463-2.058v-8.436c.069-1.303.377-2.314.927-3.034.548-.721 1.166-1.252 1.851-1.595.789-.377 1.664-.6 2.624-.669h9.207c1.578.069 2.795.361 3.653.875.857.514 1.509 1.097 1.955 1.749.48.754.788 1.595.926 2.52v13.117zm-.823-4.475c.548.069.969.197 1.26.386.292.189.524.403.694.643.172.275.292.583.361.926v1.491l6.687 4.012-.103-8.795c.034-.891-.163-1.621-.591-2.186-.429-.566-.901-1.003-1.415-1.312-.617-.377-1.321-.617-2.11-.72h-9.978c-.79.069-1.407.283-1.853.643-.445.36-.789.728-1.029 1.106-.274.48-.462.995-.565 1.543v8.333c-.034.686.103 1.286.411 1.801.309.513.652.959 1.029 1.337.412.445.909.839 1.492 1.182l8.436 5.453v3.344c0 .651-.137 1.157-.411 1.517-.275.361-.583.626-.926.797-.378.207-.823.344-1.338.412-.652-.068-1.149-.213-1.491-.437-.343-.222-.601-.471-.772-.746-.207-.308-.344-.668-.413-1.081v-1.645l-6.017-3.601-.103 8.436c.034.995.249 1.757.643 2.29.394.532.831.934 1.311 1.209.548.308 1.183.497 1.904.565h10.03c.995-.034 1.74-.257 2.238-.668.497-.412.865-.858 1.106-1.338.274-.583.412-1.234.412-1.955v-7.665c.034-.412-.069-.823-.309-1.235-.24-.411-.514-.771-.822-1.08-.378-.378-.79-.737-1.236-1.08l-9.156-5.916v-3.807c.034-.583.197-1.011.489-1.285.291-.275.591-.481.9-.618.378-.136.789-.222 1.235-.256z"/><path d="m503.34 62.664v30.555c-.034 1.201-.283 2.153-.746 2.855-.463.704-.985 1.244-1.568 1.62-.653.413-1.407.704-2.264.875h-15.174v-8.744h9.67v-1.698h-6.584c-1.269-.068-2.229-.377-2.881-.926-.652-.548-1.114-1.166-1.389-1.851-.343-.789-.514-1.664-.514-2.624v-20.062h9.877v16.41h1.697v-16.41zm-1.698 1.904h-6.223v14.043c-.034.446-.155.84-.361 1.183-.172.308-.437.583-.797.823s-.883.377-1.568.411c-.515.035-.961-.016-1.338-.154-.343-.137-.651-.377-.926-.72s-.429-.892-.463-1.646v-13.94h-6.018v18.261c.034.686.188 1.303.463 1.852.24.48.608.917 1.105 1.311s1.226.592 2.186.592h7.665v2.675c-.069.445-.223.839-.463 1.182-.206.275-.515.532-.926.772-.412.24-.961.361-1.646.361h-6.893v5.092h13.117c.583-.068 1.098-.239 1.544-.514.376-.24.727-.6 1.054-1.08.326-.481.488-1.132.488-1.956z"/><path d="m516.406 74.341v-1.491c.034-.686-.12-1.098-.463-1.235-.137-.068-.326-.068-.565 0-.275 0-.472.06-.593.18-.12.12-.197.266-.231.437-.069.171-.069.377 0 .617v1.955l7.921 5.144c.995.548 1.757 1.131 2.29 1.749.532.618.9 1.201 1.106 1.749.24.618.36 1.269.36 1.955v7.87c-.068 1.132-.36 2.049-.875 2.752-.514.704-1.097 1.244-1.749 1.62-.754.446-1.594.773-2.52.978h-10.391c-1.303-.035-2.323-.36-3.06-.978-.738-.616-1.278-1.268-1.621-1.954-.411-.823-.669-1.749-.772-2.778v-11.729l9.363 5.711v2.006c0 .308.042.54.128.694.085.154.197.266.334.335.137.102.308.154.515.154.514-.035.805-.24.874-.618.034-.136.017-.325-.051-.565v-2.367l-6.842-4.114c-1.2-.652-2.1-1.347-2.7-2.084-.601-.737-1.038-1.398-1.312-1.98-.309-.686-.463-1.372-.463-2.058v-8.436c.068-1.303.378-2.314.926-3.034.549-.72 1.166-1.252 1.852-1.595.789-.377 1.663-.6 2.624-.669h9.207c1.577.069 2.794.361 3.652.875s1.51 1.097 1.955 1.749c.481.754.789 1.595.926 2.52v13.117zm-.823-4.475c.549.069.969.197 1.261.386s.522.403.694.643c.171.275.292.583.36.926v1.491l6.688 4.012-.104-8.795c.034-.891-.163-1.621-.592-2.186-.428-.566-.899-1.003-1.414-1.312-.618-.377-1.32-.617-2.109-.72h-9.979c-.789.069-1.407.283-1.852.643-.446.36-.789.728-1.029 1.106-.275.48-.463.995-.566 1.543v8.333c-.035.686.102 1.286.412 1.801.308.513.651.959 1.029 1.337.411.445.909.839 1.492 1.182l8.436 5.453v3.344c0 .651-.138 1.157-.413 1.517-.275.361-.583.626-.926.797-.377.207-.823.344-1.337.412-.652-.068-1.149-.213-1.492-.437-.343-.222-.599-.471-.772-.746-.205-.308-.343-.668-.411-1.081v-1.645l-6.019-3.601-.102 8.436c.034.995.248 1.757.642 2.29.394.532.832.934 1.312 1.209.548.308 1.183.497 1.903.565h10.031c.994-.034 1.741-.257 2.238-.668.497-.412.866-.858 1.106-1.338.274-.583.412-1.234.412-1.955v-7.665c.034-.412-.069-.823-.309-1.235-.24-.411-.514-.771-.823-1.08-.377-.378-.788-.737-1.234-1.08l-9.156-5.916v-3.807c.034-.583.197-1.011.488-1.285.292-.275.592-.481.9-.618.377-.136.79-.222 1.235-.256z"/><path d="m546.807 62.767v9.362h-4.424v26.389h-10.391v-26.389h-4.218v-9.567zm-2.006 1.852h-15.175v5.452h4.321v26.594h6.276v-26.44h4.578z"/><path d="m558.536 72.026v4.167h6.584v9.362h-6.79v3.96h6.79v9.157l-16.718-.103v-36.007h16.923v9.464zm-2.007 6.07v-7.973h6.79v-5.453h-13.014v32.51h13.014v-5.71h-6.893v-7.819h6.995v-5.555z"/><path d="m598.092 63.874c.686.565 1.166 1.156 1.441 1.774.343.72.497 1.51.462 2.366v30.709h-9.774v-25.822c-.034-.377-.17-.617-.411-.72-.137-.034-.275-.052-.412-.052-.206 0-.369.052-.489.155-.119.102-.213.205-.282.308-.103.137-.155.275-.155.412v25.616h-9.669v-25.565c0-.377-.138-.669-.412-.874-.137-.103-.275-.172-.412-.207-.24 0-.429.052-.566.155-.138.103-.24.223-.309.36-.102.137-.154.308-.154.514v25.462h-9.362v-35.853h11.986c.753-.068 1.414-.009 1.98.18s1.054.421 1.466.695c.446.309.857.669 1.235 1.08.205-.377.462-.677.772-.9.308-.223.616-.403.926-.54.343-.138.702-.257 1.08-.361h8.076c1.302.173 2.297.542 2.983 1.108zm.103 3.883c-.034-.583-.171-1.098-.411-1.543-.207-.378-.558-.729-1.055-1.055s-1.193-.489-2.084-.489h-7.046c-.549.035-1.063.171-1.544.412-.412.206-.831.515-1.26.926-.429.412-.764.961-1.004 1.646-.275-.651-.599-1.217-.977-1.697-.377-.412-.84-.789-1.388-1.132-.549-.343-1.27-.497-2.161-.462l-9.619.102v32.201h5.71v-23.868c-.035-.481.051-.908.257-1.286.172-.343.455-.652.849-.926.394-.275.986-.412 1.775-.412.412 0 .806.103 1.184.308.273.172.54.472.796.901.257.429.386 1.054.386 1.877v23.405h6.071v-23.868c0-.411.102-.806.308-1.183.171-.309.445-.592.823-.849.376-.257.943-.386 1.697-.386.412-.033.806.018 1.183.154.308.138.592.378.848.721.257.343.386.892.386 1.645v23.765h6.276z"/><path d="m0 62.457h18.772v6.542h-12.195v7.936h12.195v6.753h-12.195v14.106h-6.577v-35.337z"/><path d="m40.12 97.794h-6.395v-5.503h-12.387l-3.67 5.503h-7.531l24.775-35.337h5.208zm-6.395-12.179v-10.31l-7.566 10.31z"/><path d="m42.627 62.457h7.418l10.458 23.753 10.533-23.753h7.492v35.337h-6.603v-17.816l-8.158 17.816h-6.676l-7.862-17.816v17.816h-6.602z"/><path d="m201.623 62.457h7.419l10.457 23.753 10.534-23.753h7.493v35.337h-6.603v-17.816l-8.16 17.816h-6.675l-7.863-17.816v17.816h-6.602z"/></g><path d="m80.61 62.457h6.833v35.336h-6.833z"/><g fill-rule="nonzero"><path d="m89.325 62.457h6.832v28.894h8.903v6.443h-15.735z"/><path d="m97.469 62.457h7.591l7.178 14.478 6.971-14.478h7.522l-11.319 22.476v12.861h-6.624v-12.861z"/><path d="m163.868 72.202c-3-5.716-8.994-9.617-15.899-9.617-9.91 0-17.945 8.034-17.945 17.945 0 9.912 8.033 17.944 17.945 17.944 6.953 0 12.984-3.956 15.963-9.739l-8.131.067c-2.005 1.848-4.683 2.977-7.626 2.977-6.214 0-11.249-5.036-11.249-11.25 0-6.215 5.035-11.25 11.249-11.25 2.901 0 5.546 1.098 7.539 2.901z"/><path d="m181.624 98.568c-9.961 0-18.036-8.077-18.036-18.038s8.076-18.038 18.036-18.038c9.964 0 18.039 8.077 18.039 18.038.002 9.963-8.075 18.038-18.039 18.038zm11.484-18.038c0-6.302-5.112-11.412-11.414-11.412s-11.412 5.11-11.412 11.412 5.109 11.413 11.412 11.413c6.302 0 11.414-5.111 11.414-11.413z"/><path d="m251.597 62.462c5.979.48 10.683 5.486 10.683 11.59 0 6.102-4.702 11.108-10.683 11.588l-5.166-.024v12.178h-6.625v-35.337h6.625zm-5.164 6.797v9.585l5.166-.005c2.259-.422 3.969-2.405 3.969-4.787 0-2.384-1.71-4.366-3.969-4.789z"/><path d="m335.073 98.253h-6.558v-35.492l9.111-.013 5.165.004c5.979.48 10.683 5.486 10.683 11.59 0 4.985-3.141 9.239-7.55 10.89l7.644 13.019h-7.176l-10.714-18.306h-.605zm7.721-19.124c2.259-.423 3.97-2.407 3.97-4.787 0-2.384-1.711-4.367-3.97-4.789h-7.72v9.582z"/><path d="m270.915 82.876.005 5.166c.424 2.261 2.405 3.969 4.787 3.969s4.366-1.71 4.789-3.969l.004-5.166.018-20.113h6.784v20.113l-.007 5.166c-.48 5.981-5.484 10.681-11.588 10.681-6.102 0-11.107-4.7-11.588-10.681l.024-5.166-.012-20.113h6.81z"/><path d="m294.077 98.253h6.696v-28.802h6.003v-6.69h-18.497v6.69h5.798z"/><path d="m326.791 98.253h-18.394v-35.492h18.394v6.498h-11.801v8.426h11.801v6.627h-11.801v7.384h11.801z"/></g><path d="m61.801 17.307h15.184v33.583h-15.184z"/><path d="m161.418 17.368v-4.996h-8.229v-6.79h-15.196l.012 6.796-8.265.006v4.984h8.259l-.012 33.521h15.215l-.013-33.521z"/><path d="m37.509 35.606-21.772-35.217h-15.731l-.006 50.5h15.639v-35.217l21.883 35.217h15.583v-50.5h-15.608z"/><path d="m235.969 15.758c-5.027.141-9.205 2.292-12.118 5.063-.012-.829 0-3.527 0-3.527l-15.068.006-.006 33.583h15.074s-.012-20.629-.012-22.061c0-2.925 3.072-6.182 7.208-6.182 4.142 0 6.938 3.257 6.938 6.182v22.061h15.092s-.006-15.91 0-18.275c.086-13.298-11.436-17.016-17.108-16.85z"/><path d="m112.546 15.758c-5.02.141-9.205 2.292-12.112 5.063-.012-.829 0-3.527 0-3.527l-15.092.006.012 33.583h15.08s-.012-20.629-.012-22.061c0-2.925 3.073-6.182 7.208-6.182 4.136 0 6.938 3.257 6.938 6.182v22.061h15.092s-.018-15.91 0-18.275c.08-13.298-11.442-17.016-17.114-16.85z"/><path d="m327.942 15.008c-12.26 0-22.196 8.45-22.196 18.859 0 10.416 9.936 18.859 22.196 18.859 12.259 0 22.195-8.443 22.195-18.859 0-10.409-9.936-18.859-22.195-18.859zm6.089 25.932c0 5.353-3.164 7.559-6.206 7.559-3.048 0-6.225-2.206-6.225-7.559 0-2.034.006-7.245.006-7.245s.006-4.965.006-7.005c0-5.322 3.183-7.515 6.207-7.515 3.035 0 6.206 2.193 6.206 7.515 0 2.04 0 5.801.019 7.153 0 .08-.013 5.076-.013 7.097z"/><path d="m285.811 18.966c-2.421-1.365-4.989-2.68-8.59-2.993-10.945-.965-19.314 8.714-19.314 17.581 0 11.688 9.027 16.014 10.391 16.653 5.113 2.378 11.669 2.384 17.483-1.266 0 .314.006 1.942.006 1.942h15.012v-50.494h-14.988zm.111 14.957s.006 3.803.006 5.96c0 5.187-3.595 6.545-5.961 6.545-2.408 0-5.948-1.358-5.948-6.545 0-1.782.006-5.973.006-5.973s-.006-4.264-.006-5.985c0-5.199 3.54-6.52 5.955-6.52 2.359 0 5.948 1.321 5.948 6.52z"/><path d="m204.181 34.236c0-10.41-10.06-19.037-22.411-19.037-12.345 0-22.362 8.437-22.362 18.853 0 10.409 10.017 18.853 22.362 18.853 10.256 0 18.902-5.844 21.544-13.778l-15.135.013s.012.147.012 2.034c0 6.145-4.037 7.509-6.286 7.509-2.237 0-6.348-1.364-6.348-7.509 0-1.838.013-6.932.013-6.932s28.611.012 28.611-.006zm-27.616-11.811c1.186-2.071 3.367-3.06 5.34-3.066 1.979.006 4.16.995 5.34 3.066.971 1.678 1.014 3.644.996 6.582h-12.678c-.024-2.938.037-4.904 1.002-6.582z"/><path d="m61.764.371h15.221v10.324h-15.221z"/></g></svg>