<svg clip-rule="evenodd" fill-rule="evenodd" stroke-linejoin="round" stroke-miterlimit="2" viewBox="0 0 600 208" xmlns="http://www.w3.org/2000/svg"><g fill="#fff" fill-rule="nonzero"><path d="m257.315 104.107c-.852.84-1.659 1.657-2.405 2.439-6.559 6.883-9.244 10.719-11.031 12.106-2.015 1.564-3.668 1.66-5.487.932-1.623-.649-4.177-2.644-5.968-4.456l-16.716 42.666-8.166-53.687h-24.174l-27.628 83.516-10.362-83.516h-30.142l-33.596 84.456 4.397-32.967h-40.816l-2.828 20.095h17.899l-1.258 6.907c-3.14 1.881-10.36 2.196-13.186 2.196-2.825 0-23.86-1.882-22.919-24.489.941-22.605 31.082-43.641 66.874-32.024l3.457-21.665c-23.864-8.16-86.536-3.593-92.938 52.435-3.767 32.965 26.375 48.664 46.467 48.353 11.618.629 24.806-3.769 29.514-6.281l-1.568 4.711h23.862l11.614-30.142h21.349l3.771 30.142h38.617l17.896-55.26 8.794 55.26h20.408l22.605-58.399 3.769 58.399h22.605l-6.281-101.727zm-138.628 51.49 7.849-21.033 2.514 21.033z"/><path d="m517.119 104.111h25.431l12.562 28.891 18.837-28.891h26.051l-36.732 57.146-5.964 44.586h-23.545l6.906-50.872z"/><path d="m329.987 205.843 3.14-22.617h-35.787l2.198-17.573h31.078l3.144-22.606h-30.768l2.199-16.331h35.785l3.456-22.605h-59.339l-14.129 101.732z"/><path d="m491.684 103.17c-16.328-.628-39.876 8.791-47.724 46.783-7.849 37.988 13.185 53.373 32.651 55.885 19.47 2.511 46.784-9.733 51.807-46.153 5.025-36.422-12.876-55.572-36.734-56.515zm-2.512 21.665c6.592 0 20.72 4.396 17.266 30.767-3.455 26.373-19.78 29.514-25.746 28.884-5.968-.629-18.21-4.707-14.756-28.884 3.452-24.174 16.324-31.082 23.236-30.767z"/><path d="m392.466 143.047h13.188c9.734 0 11.617-6.281 11.929-8.79.314-2.514-2.51-7.537-7.533-7.537h-15.385zm-5.65 40.186h17.898c9.73 0 11.928-7.534 12.239-10.047.316-2.512-2.509-7.532-7.532-7.532h-20.092zm-26.372 22.607 14.129-101.726h43.326c10.364 0 25.433 11.932 23.55 27.944s-6.908 16.954-10.362 19.466c5.339 4.706 10.676 12.243 8.479 26.372-2.199 14.132-13.816 27.943-34.224 27.943z"/><path d="m358.043 42.54c-.595-4.61-4.728-7.286-8.891-7.286-4.164 0-20.372 5.204-33.16 10.409-12.788 5.204-31.674 17.844-31.674 17.844l23.941-26.32s-4.164-5.799-5.204-7.138c-1.041-1.338-2.567-.945-5.77.297-3.451 1.339-37.949 23.198-45.682 27.659-7.731 4.461-27.063 16.952-29.145 13.978s29.682-34.974 29.682-34.974l-6.187-8.596s-11.004 9.517-34.202 24.685c-23.197 15.167-48.03 24.387-49.666 24.833s-1.933.149-2.379-1.041 7.286-9.22 17.249-17.993 29.443-23.346 29.443-23.346l-6.543-8.773s-14.87 10.855-29.294 24.089c-14.424 13.235-20.372 22.157-21.562 25.725-.743 2.231.446 6.841 3.718 10.261 3.271 3.421 9.219 4.015 23.049-2.379 13.829-6.394 40.179-22.068 40.179-22.068s-8.06 10.321-2.112 16.269c3.941 3.941 6.989 4.758 17.547.594 10.557-4.163 46.098-23.494 46.098-23.494s-5.205 5.502-20.372 22.9c-15.168 17.398-23.198 30.781-23.644 31.673-.446.893 4.015 5.056 6.246 5.948 2.23.892 3.568-2.677 12.639-12.193 9.071-9.517 27.064-24.09 27.064-24.09s6.989 7.286 18.587 7.286c20.67 0 45.057-22.007 52.641-29.145s7.999-11.004 7.404-15.614zm-59.896 34.648c-7.583 0-10.112-3.569-10.112-3.569s15.317-11.004 33.161-19.034 27.212-9.071 27.212-9.071c-11.598 14.722-35.688 31.674-50.261 31.674z"/><path d="m17.398 84.92s20.075-.743 59.778-5.799c39.704-5.057 59.927-10.558 59.927-13.533 0-2.973-10.855-6.096-29.741-11.598-18.884-5.502-27.509-6.989-30.781-9.815-3.271-2.824-5.799-5.799-6.542-12.045-.744-6.245.446-8.327 2.23-9.814 1.785-1.486 13.234-9.696 46.692-17.427 33.458-7.733 58.886-4.729 62.901.921 4.015 5.652 6.394 15.615 1.19 21.265-5.205 5.651-17.844 11.45-20.521 11.45-2.676 0-3.866-3.123-3.866-7.881 0-4.759 2.528-5.948 5.948-6.692s14.275-3.717 14.275-6.84-10.557-6.246-23.048-6.246-39.257 5.651-57.102 11.896c-17.844 6.246-21.413 9.517-21.413 10.856 0 1.338 6.394 2.825 21.413 6.691s33.16 8.922 37.473 12.491c4.312 3.569 7.584 6.395 7.584 16.209s-9.666 12.342-15.912 13.977c-6.245 1.637-33.755 7.287-72.417 11.005-38.663 3.717-49.964 4.758-51.748 3.866-1.785-.892-3.718-2.825-3.718-8.327s.892-8.03 8.476-8.03 7.733 1.04 8.922 3.42"/><path d="m402.536 41.053c15.763-7.287 17.546-4.758 18.29-4.312.745.446 1.637 1.398.596 2.29-1.042.892-16.906 14.047-30.9 19.361-11.747 4.461-17.577 1.844-17.577 1.844s13.828-11.896 29.591-19.183m197.031 33.607c-.872-2.833-15.317-7.436-48.775-7.436s-71.08 5.8-71.08 5.8 3.717-8.773 6.989-16.803-.892-11.896-3.718-15.168c-2.825-3.272-9.962-11.896-9.962-11.896s2.824-4.164 2.824-9.666c0-5.501-6.542-9.962-10.26-9.962s-8.03 2.23-8.03 7.583c0 5.354 6.246 12.491 6.246 12.491s-7.138 7.138-36.283 28.402-54.723 25.428-59.332 25.428-8.476-.446-8.476-4.461 7.286-12.045 7.286-12.045 1.934 2.231 9.072 2.231c21.562 0 45.205-20.075 49.666-23.198s3.866-5.116 3.866-7.494c0-2.38-2.974-10.855-11.598-10.855-4.461 0-16.804 1.546-40.15 17.457-23.345 15.911-27.807 28.105-27.807 35.391 0 5.8 5.65 11.747 15.91 11.747 41.19 0 101.654-56.952 101.654-56.952s6.304 8.773 8.386 10.111c2.083 1.338 2.231 3.718 1.19 6.544-1.042 2.824-4.965 9.814-7.047 14.423-2.082 4.61-4.106 9.368-3.511 10.856.595 1.487 2.825 4.461 3.866 5.65 1.041 1.19 1.487 2.379 6.692 1.636 5.204-.744 41.461-6.691 71.796-6.691 16.235 0 32.592 1.902 32.592 2.943v4.194l17.547-.595s1.636-5.799.447-9.665"/></g></svg>