<svg clip-rule="evenodd" fill-rule="evenodd" stroke-linejoin="round" stroke-miterlimit="2" viewBox="0 0 600 142" xmlns="http://www.w3.org/2000/svg"><g fill="#fff"><g fill-rule="nonzero"><path d="m517.119 38.06h25.431l12.562 28.891 18.837-28.891h26.051l-36.732 57.146-5.964 44.586h-23.545l6.906-50.872z"/><path d="m329.987 139.792 3.14-22.617h-35.787l2.198-17.573h31.078l3.144-22.607h-30.768l2.199-16.33h35.785l3.456-22.605h-59.339l-14.129 101.732z"/><path d="m118.687 89.546 7.849-21.033 2.514 21.033zm-8.476 20.095h21.349l3.771 30.141h38.617l17.896-55.259 8.794 55.259h20.408l22.605-58.398 3.769 58.398h22.605l-6.281-101.726h-27.002l-21.034 53.687-8.166-53.687h-24.174l-27.628 83.516-10.362-83.516h-30.142l-33.596 84.455 4.397-32.966h-40.816l-2.828 20.095h17.899l-1.258 6.907c-3.14 1.881-10.36 2.196-13.186 2.196-2.825 0-23.86-1.882-22.919-24.489.941-22.605 31.082-43.641 66.874-32.024l3.457-21.665c-23.864-8.161-86.536-3.593-92.938 52.435-3.767 32.965 26.375 48.664 46.467 48.353 11.618.629 24.806-3.769 29.514-6.281l-1.568 4.71h23.862z"/><path d="m491.684 37.119c-16.328-.628-39.876 8.791-47.724 46.783-7.849 37.988 13.185 53.373 32.651 55.885 19.47 2.511 46.784-9.733 51.807-46.153 5.025-36.422-12.876-55.572-36.734-56.515zm-2.512 21.665c6.592 0 20.72 4.396 17.266 30.767-3.455 26.373-19.78 29.513-25.746 28.884-5.968-.629-18.21-4.707-14.756-28.884 3.452-24.174 16.324-31.082 23.236-30.767z"/><path d="m392.466 76.995h13.188c9.734 0 11.617-6.28 11.929-8.789.314-2.514-2.51-7.538-7.533-7.538h-15.385zm-5.65 40.187h17.898c9.73 0 11.928-7.534 12.239-10.047.316-2.512-2.509-7.532-7.532-7.532h-20.092zm-26.372 22.607 14.129-101.726h43.326c10.364 0 25.433 11.932 23.55 27.944s-6.908 16.954-10.362 19.466c5.339 4.706 10.676 12.243 8.479 26.371-2.199 14.132-13.816 27.944-34.224 27.944z"/></g><path d="m39.113 9.517h8.161v18.048h-8.161z"/><path d="m92.65 9.55v-2.684h-4.422v-3.65h-8.167l.006 3.653-4.442.003v2.678h4.439l-.007 18.016h8.177l-.006-18.016z"/><path d="m26.058 19.352-11.701-18.926h-8.454l-.004 27.14h8.405v-18.927l11.761 18.927h8.375v-27.14h-8.389z"/><path d="m132.716 8.685c-2.701.076-4.947 1.232-6.513 2.721-.006-.445 0-1.895 0-1.895l-8.097.003-.004 18.048h8.101s-.006-11.086-.006-11.856c0-1.572 1.651-3.322 3.874-3.322 2.226 0 3.728 1.75 3.728 3.322v11.856h8.111s-.003-8.55 0-9.821c.046-7.147-6.146-9.145-9.194-9.056z"/><path d="m66.385 8.685c-2.698.076-4.947 1.232-6.509 2.721-.007-.445 0-1.895 0-1.895l-8.111.003.006 18.048h8.105s-.007-11.086-.007-11.856c0-1.572 1.651-3.322 3.874-3.322s3.729 1.75 3.729 3.322v11.856h8.11s-.009-8.55 0-9.821c.043-7.147-6.149-9.145-9.197-9.056z"/><path d="m182.145 8.282c-6.589 0-11.929 4.541-11.929 10.136 0 5.598 5.34 10.135 11.929 10.135 6.588 0 11.929-4.537 11.929-10.135 0-5.595-5.341-10.136-11.929-10.136zm3.273 13.937c0 2.876-1.701 4.062-3.336 4.062-1.638 0-3.345-1.186-3.345-4.062 0-1.093.003-3.894.003-3.894s.003-2.668.003-3.765c0-2.86 1.711-4.039 3.336-4.039 1.631 0 3.335 1.179 3.335 4.039 0 1.097 0 3.118.01 3.845 0 .042-.006 2.727-.006 3.814z"/><path d="m159.503 10.409c-1.301-.733-2.682-1.44-4.617-1.608-5.882-.519-10.38 4.683-10.38 9.448 0 6.282 4.851 8.607 5.585 8.95 2.747 1.278 6.271 1.282 9.395-.68 0 .168.004 1.043.004 1.043h8.068v-27.136h-8.055zm.059 8.038s.004 2.045.004 3.204c0 2.787-1.932 3.517-3.204 3.517-1.295 0-3.197-.73-3.197-3.517 0-.958.004-3.21.004-3.21s-.004-2.292-.004-3.217c0-2.794 1.902-3.504 3.2-3.504 1.269 0 3.197.71 3.197 3.504z"/><path d="m115.632 18.616c0-5.595-5.406-10.231-12.044-10.231-6.635 0-12.018 4.534-12.018 10.132 0 5.594 5.383 10.132 12.018 10.132 5.512 0 10.158-3.141 11.578-7.404l-8.134.006s.007.08.007 1.093c0 3.303-2.17 4.036-3.378 4.036-1.203 0-3.412-.733-3.412-4.036 0-.987.007-3.725.007-3.725s15.376.007 15.376-.003zm-14.841-6.348c.637-1.112 1.809-1.644 2.87-1.648 1.063.004 2.235.536 2.869 1.648.522.902.545 1.959.535 3.537h-6.813c-.013-1.578.02-2.635.539-3.537z"/><path d="m39.093.416h8.18v5.548h-8.18z"/></g></svg>