<svg clip-rule="evenodd" fill-rule="evenodd" stroke-linejoin="round" stroke-miterlimit="2" viewBox="0 0 600 137" xmlns="http://www.w3.org/2000/svg"><g fill="#fff"><path d="m228.326 67.126-26.579 46.2h33.248v-10.476h-14.822l13.713-22.955 18.567 33.431h13.787l-26.817-46.2z"/><path d="m452.638 102.85v-35.72h-12.417v34.693c0 8.731 2.92 11.507 11.995 11.507h27.829c9.097 0 12.002-2.776 12.002-11.507v-34.693h-12.409v35.72z"/><path d="m296.373 113.326 14.216-24.693v24.693h11.433l.032-46.2h-11.418l-18.863 32.718-18.868-32.718h-11.378l.012 46.2h11.417v-24.693l14.237 24.693z"/><path d="m339.929 94.209h20.316v-9.711h-20.316v-7.657h34.83v-9.715h-47.231v46.2h47.649v-10.476h-35.248z"/><path d="m564.745 94.209h20.308v-9.711h-20.308v-7.657h34.837v-9.715h-47.27v46.2h47.688v-10.476h-35.255z"/><path d="m203.23 85.521h-28.859v9.746h16.732v7.579h-29.856v-25.708h41.488v-10.012h-41.878c-9.078 0-11.983 2.784-11.983 11.476v23.214c0 8.73 2.908 11.507 11.983 11.507h30.394c9.063 0 11.979-2.777 11.979-11.507z"/><path d="m423.255 67.126h-27.165c-9.106 0-11.995 2.784-11.995 11.492v23.198c0 8.73 2.889 11.499 11.995 11.499h27.165c9.074 0 12.003-2.769 12.003-11.499v-8.419h-12.409v9.449h-26.357v-25.692h26.357v8.367h12.409v-6.903c0-8.708-2.929-11.492-12.003-11.492z"/><path d="m30.066 86.115 26.528 15.314.004-30.632-26.532-15.318z"/><path d="m542.605 89.578c2.983-1.409 4.623-4.041 4.623-7.473v-5.4c0-6.552-3.487-9.579-10.987-9.579h-38.743v46.2h36.048c9.379 0 14.116-3.248 14.116-9.777v-5.591c0-3.932-1.792-6.845-5.057-8.38zm-6.552 10.746c0 2.233-.48 2.839-3.858 2.839h-22.284v-8.938h22.284c3.378 0 3.858.625 3.858 2.815zm-26.142-23.908h22.237c3.44 0 3.601.738 3.601 2.073v4.201c0 1.336-.161 2.082-3.601 2.082h-22.237z"/><path d="m471.392 54.362v-35.505h-6.751v22.647l-11.484-22.647h-9.114v35.505h6.748v-27.68l13.904 27.68z"/><path d="m275.717 26.682 13.924 27.68h6.677v-35.505h-6.743v22.647l-11.496-22.647h-9.125v35.505h6.763z"/><path d="m165.062 26.682 13.905 27.68h6.677v-35.505h-6.771v22.647l-11.464-22.647h-9.102v35.505h6.755z"/><path d="m223.492 18.857h7.622v35.505h-7.622z"/><path d="m338.043 54.362h7.232v-29.84h11.394v-5.638h-30.035v5.638h11.409z"/><path d="m384.595 45.237c0 4.931 4.767 8.918 10.722 9.125h15.642v-5.623h-14.978c-2.335 0-4.729-1.538-4.729-3.694v-6.423h19.707v-5.673h-19.707v-4.764c0-2.144 2.394-3.702 4.729-3.702h14.978v-5.622h-15.388c-6.08.121-10.976 4.154-10.976 9.148z"/><path d="m591.421 27.775c0-5.06-5.064-9.152-11.241-9.152h-6.033c-6.185 0-11.234 4.092-11.234 9.152v17.68c0 5.077 5.049 9.176 11.234 9.176h6.033c6.177 0 11.241-4.096 11.241-9.176zm-6.712 17.501c0 2.14-2.409 3.905-4.736 3.905h-5.619c-2.343 0-4.744-1.765-4.744-3.905v-17.306c0-2.19 2.401-3.916 4.744-3.916h5.619c2.327 0 4.736 1.726 4.736 3.916z"/><path d="m520.946 54.362c6.216 0 11.234-4.1 11.234-9.168v-17.149c0-5.084-5.018-9.192-11.234-9.192h-16.411v35.505h16.411zm-9.73-30.058h9.523c2.358 0 4.752 1.788 4.752 3.944v16.766c0 2.312-2.479 3.889-4.752 3.889h-9.523z"/><path d="m18.657 92.698 37.941 21.894v21.553l-56.598-32.678v-65.348l18.657 10.769zm40.651-57.227-26.524 15.314 26.524 15.318 26.528-15.318z"/><path d="m59.308 22.309 31.917 18.469 18.672-10.766-50.589-29.21-56.543 32.647 18.64 10.765zm40.644 70.389v-22.26l-11.406 6.571v9.106l-26.528 15.322v.031l-.008-30.663v-.008l56.606-32.678v65.348l-56.598 32.678-.012-21.522z"/></g></svg>