<?xml version="1.0" encoding="UTF-8" standalone="no"?><!DOCTYPE svg PUBLIC "-//W3C//DTD SVG 1.1//EN" "http://www.w3.org/Graphics/SVG/1.1/DTD/svg11.dtd"><svg width="100%" height="100%" viewBox="0 0 600 84" version="1.1" xmlns="http://www.w3.org/2000/svg" xmlns:xlink="http://www.w3.org/1999/xlink" xml:space="preserve" xmlns:serif="http://www.serif.com/" style="fill-rule:evenodd;clip-rule:evenodd;stroke-linejoin:round;stroke-miterlimit:2;"><g id="nintendo_eshop"><path id="path3755" d="M165.242,41.899c1.868,-5.24 6.076,-7.325 10.329,-7.325c5.961,-0 9.353,3.78 10.565,7.325l-20.894,0Zm10.138,-17.495c-12.459,0 -21.634,11.005 -21.634,21.908c0,11.266 9.386,22.053 21.736,22.053c9.015,0 16.398,-5.062 19.599,-11.355l-9.825,-3.456c-2.57,3.188 -5.7,4.661 -9.857,4.661c-4.247,0 -9.15,-2.767 -10.31,-8.033l24.4,-0c5.254,-0 7.894,-1.046 7.894,-4.967c-0.173,-8.588 -7.658,-20.811 -22.003,-20.811m94.521,33.174c-6.293,-0 -11.094,-5.025 -11.094,-11.209c0,-6.172 4.801,-11.183 11.094,-11.183c6.293,-0 10.947,4.947 10.947,11.183c0,6.261 -4.654,11.209 -10.947,11.209m10.884,-28.857l-0.211,-0c-0.95,-1.416 -5.4,-4.317 -11.062,-4.317c-11.878,0 -21.869,9.883 -21.869,21.965c0,12.095 9.991,21.996 21.869,21.996c5.662,0 10.112,-2.92 11.062,-4.335l0.211,-0l-0,3.06l12.037,0l0,-58.281l-12.037,-0l-0,19.912Zm-56.12,-4.317c-4.521,0 -8.525,1.836 -10.986,4.795l-0.134,-0l0,-3.52l-12.037,0l-0,41.399l12.037,-0l0,-20.142c0,-8.046 4.368,-11.527 9.334,-11.527c3.443,-0 8.691,2.193 8.691,10.322l-0,21.321l12.024,0l0,-22.194c0,-13.925 -9.602,-20.454 -18.929,-20.454m-80.03,-10.137l-12.012,-0l0,11.412l-8.02,0l-0,9.755l8.02,0l0,31.637l12.012,0l0,-31.637l8.136,0l-0,-9.755l-8.136,0l0,-11.412Zm174.309,43.253c-6.006,0 -10.89,-4.979 -10.89,-11.119c-0,-6.134 4.903,-11.12 10.89,-11.12c6.006,0 10.902,4.986 10.902,11.12c0,6.14 -4.896,11.119 -10.902,11.119m-0,-33.116c-12.197,0 -22.08,9.87 -22.08,21.984c0,12.12 9.883,21.977 22.08,21.977c12.203,0 22.092,-9.857 22.092,-21.977c0,-12.114 -9.889,-21.984 -22.092,-21.984m-280.683,20.435l-24.387,-32.09c-2.525,-3.309 -4.91,-4.329 -6.848,-4.329c-4.616,0 -7.026,2.774 -7.026,6.752l-0,51.886l12.905,0l-0,-36.017l24.387,32.096c2.519,3.309 4.922,4.323 6.861,4.323c4.609,0 7.026,-2.773 7.026,-6.746l-0,-51.905l-12.918,-0l0,36.03Zm22.099,22.258l12.031,-0l0,-41.418l-12.031,0l-0,41.418Zm6.012,-60.896c-3.876,0 -7.02,3.144 -7.02,7.026c0,3.883 3.144,7.033 7.02,7.033c3.883,-0 7.026,-3.15 7.026,-7.033c0,-3.882 -3.143,-7.026 -7.026,-7.026m37.146,18.203c-4.495,0 -8.518,1.836 -10.986,4.795l-0.121,-0l0,-3.52l-12.031,0l-0,41.399l12.031,-0l0,-20.142c0,-8.046 4.368,-11.527 9.341,-11.527c3.443,-0 8.677,2.193 8.677,10.322l0,21.321l12.05,0l0,-22.194c0,-13.925 -9.614,-20.454 -18.961,-20.454" style="fill:#fff;fill-rule:nonzero;"/><path id="path3759" d="M438.246,32.143c-5.79,-1.926 -10.195,-3.361 -10.195,-7.435c-0,-2.709 2.384,-5.266 6.809,-5.266c4.469,-0 7.115,2.353 9.277,4.119l9.921,-6.905c-4.221,-5.216 -11.413,-9.583 -19.019,-9.583c-10.546,-0 -19.613,7.746 -19.613,17.82c0,7.536 5.076,14.633 15.666,18.146c6.637,2.219 10.801,3.538 10.801,7.797c-0,2.921 -2.959,5.567 -6.568,5.567c-4.431,-0 -8.078,-2.991 -10.858,-5.465l-10.532,7.352c5.234,6.082 13.529,10.526 21.078,10.526c11.725,0 19.733,-8.932 19.733,-18.254c0,-7.224 -4.029,-14.262 -16.5,-18.419m139.502,25.452c-6.299,-0 -10.947,-4.948 -10.947,-11.209c0,-6.255 4.648,-11.209 10.947,-11.209c6.287,0 11.094,5.031 11.094,11.209c0,6.178 -4.807,11.209 -11.094,11.209m0.402,-33.193c-5.681,0 -10.125,2.92 -11.081,4.329l-0.198,0l0,-3.054l-12.025,0l0,58.269l12.025,0l0,-19.899l0.198,0c0.956,1.409 5.4,4.323 11.081,4.323c11.859,-0 21.85,-9.895 21.85,-21.984c-0,-12.082 -9.991,-21.984 -21.85,-21.984m-94.502,0.013c-4.502,0 -8.525,1.83 -10.979,4.801l-0.141,0l0,-20.396l-12.018,-0l-0,58.275l12.018,-0l0,-20.148c0,-8.04 4.374,-11.527 9.341,-11.527c3.443,-0 8.696,2.187 8.696,10.329l0,21.32l12.032,0l-0,-22.194c-0,-13.925 -9.628,-20.46 -18.949,-20.46m-75.088,-17.61c-0.083,-0.089 -0.223,-0.083 -0.274,0.013l-8.876,12.254c-0.038,0.057 -0.038,0.128 0,0.166c0.058,0.051 0.115,0.057 0.166,0.038l13.122,-7.555c0.089,-0.064 0.127,-0.191 0.044,-0.281l-4.182,-4.635Zm-23.304,23.01c3.354,0 6,1.225 8.435,3.475l-21.735,12.529c-1.581,-8.302 4.846,-16.004 13.3,-16.004m0.402,27.837c-3.347,0 -7.141,-1.383 -9.092,-3.813l24.164,-14.033c5.177,-2.984 7.581,-5.604 5.337,-9.474c-3.462,-5.477 -12.204,-11.26 -21.646,-11.26c-13.37,0 -24.286,11.84 -24.286,24.961c0,14.104 12.363,24.981 25.937,24.981c12.535,-0 23.725,-9.022 24.343,-22.054l-12.445,-0c-0.568,5.834 -5.458,10.692 -12.312,10.692m9.799,-41.245l8.059,-12.803c0.039,-0.102 0.013,-0.236 -0.095,-0.261l-5.879,-2.149c-0.095,-0.038 -0.223,0.039 -0.229,0.147l-2.085,14.99c-0,0.063 0.019,0.121 0.089,0.146c0.058,0.019 0.115,-0.006 0.14,-0.07m133.268,41.118c-6.013,-0 -10.903,-4.98 -10.903,-11.12c0,-6.14 4.89,-11.132 10.903,-11.132c5.987,0 10.871,4.992 10.871,11.132c-0,6.14 -4.884,11.12 -10.871,11.12m-0,-33.123c-12.21,0 -22.105,9.87 -22.105,21.984c-0,12.121 9.895,21.984 22.105,21.984c12.19,-0 22.079,-9.863 22.079,-21.984c0,-12.114 -9.889,-21.984 -22.079,-21.984m-138.324,-8.441c0.058,-0.013 0.102,-0.064 0.109,-0.128l1.09,-15.098c0,-0.108 -0.102,-0.21 -0.223,-0.191l-6.165,0.873c-0.134,0.013 -0.192,0.128 -0.154,0.249l5.197,14.199c0.013,0.064 0.083,0.096 0.146,0.096" style="fill:#fff;fill-rule:nonzero;"/></g></svg>