<?xml version="1.0" encoding="UTF-8" standalone="no"?><!DOCTYPE svg PUBLIC "-//W3C//DTD SVG 1.1//EN" "http://www.w3.org/Graphics/SVG/1.1/DTD/svg11.dtd"><svg width="100%" height="100%" viewBox="0 0 600 149" version="1.1" xmlns="http://www.w3.org/2000/svg" xmlns:xlink="http://www.w3.org/1999/xlink" xml:space="preserve" xmlns:serif="http://www.serif.com/" style="fill-rule:evenodd;clip-rule:evenodd;stroke-linejoin:round;stroke-miterlimit:2;"><path id="nintendo_snes" d="M29.29,0.934c-5.695,0 -11.187,4.678 -12.204,10.374l-0,0.61l-0.204,-0.204l0,0.814l-0.203,0.203l-0,0.814l-0.203,0.203l-0,0.407l-0.407,1.221l-0,0.813l-0.204,0.61l-0.407,1.628l-0.203,1.017l-0.203,0.813l-0.407,1.831l-0.204,1.017l-0.203,0.814l0,0.61l-0.814,3.254l-0.203,0.61l-0.203,0.814l-0,0.203l-0.204,0.204l0,0.61l-0.203,0.407l-0,0.407l-0.204,0.203l0,0.407c-0.203,2.441 0.204,5.898 1.017,6.509c1.017,5.491 19.527,31.12 18.917,34.985c0.203,3.661 -2.034,15.255 -2.034,15.255c-0.61,3.864 -3.255,6.915 -7.119,6.915c-3.865,0 -6.509,-3.051 -5.899,-6.915l3.458,-19.12l-13.831,0l-4.475,26.442c-1.017,5.492 2.644,9.763 8.136,9.763l19.73,0c5.492,0 10.577,-4.271 11.594,-9.763c-0,0 5.085,-24.815 5.085,-26.645c-0,-1.831 -0.611,-2.034 -0.611,-2.034c0,-2.034 -16.475,-29.087 -18.102,-30.104c-0.814,-0.407 -1.221,-3.051 -1.424,-4.678c-0,-1.627 2.237,-12.408 2.237,-12.408c0.611,-3.864 4.272,-6.915 8.136,-6.915c3.865,-0 5.492,3.051 4.882,6.915l-3.051,17.086l13.831,0l4.882,-25.832c1.22,-5.492 -2.441,-10.17 -8.136,-10.17l-20.34,0Zm37.832,0l-16.475,94.785c-1.017,5.492 2.644,9.763 8.136,9.763l19.73,0c5.492,0 10.78,-4.271 11.797,-9.763l17.493,-94.785l-12.408,0l-16.679,92.141c-0.203,1.424 -1.627,2.441 -2.847,2.441l-9.764,-0c-1.423,-0 -2.237,-1.221 -2.034,-2.441l16.272,-92.141l-13.221,0Zm47.19,0l-19.934,104.548l13.425,0l9.153,-47.392l16.679,-0c5.491,-0 10.576,-4.271 11.594,-9.763l7.119,-37.223c1.017,-5.695 -2.645,-10.373 -8.137,-10.373l-29.899,-0l-0,0.203Zm47.189,0l-20.747,104.548l29.696,0l2.034,-13.017l-14.645,-0l5.899,-35.392l14.645,-0l2.034,-10.984l-14.645,0l6.509,-32.341l14.848,0l2.034,-12.814l-27.662,0Zm35.391,0l-19.729,104.548l13.221,0l8.949,-47.392l9.357,-0c1.22,1.22 1.424,3.254 1.627,4.271c0.203,1.628 0.407,3.458 0.407,5.085c-0.204,1.628 -7.119,38.036 -7.119,38.036l13.221,0c-0,0 7.322,-39.663 7.322,-40.273c0,-0.61 0,-2.644 -0.813,-3.865c-0.407,-0.813 -1.221,-2.44 -2.238,-3.051c-1.83,-1.22 -3.864,-2.034 -3.864,-2.034l-1.017,0c3.864,-1.423 10.78,-3.864 11.593,-7.932l7.119,-37.223c1.017,-5.695 -2.644,-10.373 -8.136,-10.373l-29.9,-0l0,0.203Zm70.377,0l-19.933,104.548l15.052,0l12.204,-60.613l4.881,60.613l13.221,0l19.934,-104.548l-15.052,0l-10.373,54.715l-6.713,-54.715l-13.221,0Zm52.274,0l-19.933,104.548l13.221,0l19.933,-104.548l-13.221,0Zm20.137,0l-19.933,104.548l15.255,0l12.204,-60.613l4.882,60.613l13.221,0l19.73,-104.548l-15.255,0l-10.171,54.715l-6.712,-54.715l-13.221,0Zm51.054,0l-2.441,13.018l8.136,-0l-16.272,91.53l15.052,0l16.475,-91.53l7.933,-0l2.034,-13.018l-30.917,0Zm36.205,0l-20.543,104.548l29.696,0l2.034,-13.017l-14.645,-0l6.102,-35.392l14.645,-0l2.034,-10.984l-14.645,0l6.306,-32.341l14.645,0l2.034,-13.017l-27.663,-0l0,0.203Zm33.358,0l-19.933,104.548l15.255,0l12.204,-60.613l4.882,60.613l13.221,0l19.933,-104.548l-15.255,0l-10.17,54.715l-6.916,-54.715l-13.221,0Zm52.478,0l-19.934,104.548l30.104,0c5.491,0 10.78,-4.271 11.797,-9.763l15.865,-84.411c1.017,-5.696 -2.644,-10.374 -8.136,-10.374l-29.696,0Zm56.342,0c-5.695,0 -10.984,4.678 -12.001,10.374l-14.645,84.411c-1.017,5.492 2.644,9.763 7.933,9.763l21.764,0c5.492,0 10.78,-4.271 11.797,-9.763l15.865,-84.411c1.017,-5.696 -2.644,-10.374 -8.136,-10.374l-22.577,0Zm-45.155,12.001l6.102,-0c3.864,-0 6.509,3.051 5.898,6.915l-13.017,68.547c-0.611,3.864 -4.475,7.119 -8.34,7.119l-6.102,-0l15.459,-82.581Zm52.477,-0l0.814,-0c3.864,-0 6.509,3.051 5.695,6.915l-12.204,68.547c-0.61,3.864 -4.271,7.119 -8.136,7.119c-3.865,-0 -5.492,-3.255 -4.882,-7.119l12.204,-68.343l2.441,-4.882l0.204,-0.203l0.406,-0.814l0.407,-0.203l0.407,-0.407l0.814,-0.407l0.203,-0.203l1.22,-0.61l0.204,-0.204l0.407,-0.203l-1.017,1.22l0.406,0l0.407,-0.203Zm-449.313,0.407l6.305,-0c1.424,-0 4.272,3.254 4.068,4.678l-5.492,25.832c-0.203,1.424 -2.034,4.475 -3.457,4.475l-8.136,-0l-0.204,-0.204l-0.813,0l-0,-0.203l-0.204,-0l0.814,-0l-0.204,-0l-0.203,-0.204l-0.203,0l-0.407,-0.406l-0,-0.204l-0.407,-0.407l-0,-0.406l-0.203,-0.204l-0,-0.407l-0.204,-0.203l0,-0.814l6.102,-31.527c1.424,0.61 2.034,0.204 2.848,0.204Zm81.971,-0l6.508,-0c1.424,-0 4.475,3.254 4.068,4.678l-5.491,25.628c-0.204,1.424 -3.662,4.475 -4.882,4.475l-5.695,0c-1.221,0 -2.034,-0.813 -2.034,-1.83l-0,-0.611l6.102,-31.527l0.61,-0.61l0.203,0l0.407,-0.407l0.204,0l0.203,-0.203l0.203,-0l0.204,-0.204l0.203,0l-0.813,0.611Zm-209.097,101.09l-0,34.171l587.219,0l0,-34.171l-587.219,0Zm431.617,3.661l5.289,0c1.22,0 2.034,1.017 1.831,2.238l-1.221,5.695l-2.847,-0l0.61,-3.865c0.203,-0.813 -0.407,-1.627 -1.221,-1.627c-0.813,0 -1.627,0.61 -1.83,1.627l-0.611,2.848c0,0.203 0.204,1.017 0.407,1.017c0.407,0.203 4.068,6.305 4.068,6.712c0,0.204 0.204,0.407 0.204,0.407c-0.204,0.814 -1.221,5.899 -1.221,5.899c-0.203,1.22 -1.424,2.237 -2.644,2.237l-4.271,0c-1.221,0 -2.034,-1.017 -1.831,-2.237l1.017,-5.899l3.051,-0l-0.814,4.271c-0.203,0.814 0.407,1.628 1.221,1.628c0.813,-0 1.627,-0.814 1.83,-1.628l0.611,-3.457c-0.611,-1.424 -4.272,-6.509 -4.475,-7.73c-0.204,-0.203 -0.204,-0.813 -0.204,-1.423c0,-0.611 0.814,-4.475 0.814,-4.475l0.203,-0l0,-0.61l0.204,-0.204l-0,-0.203l0.203,-0.204l0,-0.203l0.204,-0.203l-0,-0.204l0.406,-0.407l0,-0.203l0.204,-0l0.61,-0.61l0,-0.204l0.203,0l0.407,-0.407l0.204,0l0.203,-0.203l0.203,0l0.204,-0.203l0.203,-0l-1.424,1.83Zm23.798,0l3.662,0l0.61,8.747l4.678,-8.747l3.661,0l-7.526,13.425l-1.83,9.763l-3.255,0l1.628,-10.577l-1.628,-12.611Zm33.562,0l5.288,0c1.22,0 2.034,1.017 1.831,2.238l-1.221,5.695l-2.847,-0l0.61,-3.865c0.203,-0.813 -0.407,-1.627 -1.221,-1.627c-0.813,0 -1.627,0.61 -1.83,1.627l-0.61,2.848c-0.204,0.203 0.203,1.017 0.406,1.017c0.407,0.203 4.068,6.305 4.068,6.712c0.204,0.204 0.204,0.407 0.204,0.407c-0.204,0.814 -1.017,5.899 -1.017,5.899c-0.204,1.22 -1.424,2.237 -2.644,2.237l-4.475,0c-1.221,0 -2.034,-1.017 -1.831,-2.237l1.017,-5.899l3.051,-0l-0.813,4.271c-0.204,0.814 0.406,1.628 1.22,1.628c0.814,-0 1.627,-0.814 1.831,-1.628l0.61,-3.457c-0.61,-1.424 -4.272,-6.509 -4.475,-7.73c-0.203,-0.203 -0.203,-0.813 -0.203,-1.423c-0,-0.611 0.813,-4.475 0.813,-4.475l0.204,-0.204l-0,-0.406l0.203,-0.204l0,-0.203l0.203,-0.204l0,-0.203l0.204,-0.203l-0,-0.204l0.407,-0.407l-0,-0.203l0.203,-0l1.22,-1.221l0.204,0l0.203,-0.203l0.204,0l0.203,-0.203l0.203,-0l-1.423,1.83Zm24.001,0l6.916,0l-0.611,2.848l-1.83,-0l-3.661,20.34l-3.255,0l3.661,-20.34l-1.627,-0l0.407,-2.848Zm27.052,0l6.102,0l-0.61,2.848l-3.254,-0l-1.424,7.322l3.254,0l-0.61,2.441l-3.254,0l-1.424,7.729l3.254,0l-0.406,2.848l-6.509,0l4.881,-23.188Zm25.426,0l3.864,0l0.61,13.425l5.899,-13.221l3.661,-0.204l-4.068,23.188l-2.847,0l1.83,-12.204l-5.085,12.204l-2.034,0l-0.61,-12.611l-2.237,12.611l-3.458,0l4.475,-23.188Zm-552.642,0.814l6.102,-0l-0.406,2.848l-3.458,-0l-1.221,7.322l3.255,-0l-0.407,2.441l-3.458,-0l-1.22,7.729l3.254,0l-0.61,2.848l-6.509,-0l4.678,-23.188Zm28.273,-0l2.848,-0l1.627,12.204l2.237,-12.204l3.458,-0l-4.475,23.391l-2.847,0l-1.221,-13.628l-2.644,13.425l-3.458,-0l4.475,-23.188Zm30.917,-0l6.712,-0l-0.407,2.848l-1.83,-0l-3.661,20.34l-3.255,-0l3.661,-20.34l-1.83,-0l0.61,-2.848Zm29.9,-0l6.102,-0l-0.61,2.848l-3.255,-0l-1.22,7.322l3.254,-0l-0.406,2.441l-3.255,-0l-1.22,7.729l3.254,0l-0.407,2.848l-6.508,-0l4.271,-23.188Zm29.086,-0l6.509,-0c1.221,-0 2.034,1.017 1.831,2.441l-1.627,8.136c-0.204,0.813 -1.831,1.627 -2.645,2.034l0.611,-0l-0,0.203l0.813,0l0.204,0.204l-0.407,-0l0.203,-0l0,0.203l0.407,-0l0,0.203l0.203,0c0.204,0.204 0.204,1.017 0.204,1.221c-0,0.203 -1.627,9.153 -1.627,9.153l-3.458,-0c-0,-0 1.627,-8.136 1.627,-8.34c0,-0.406 0,-0.813 -0.203,-1.22c-0,-0.203 -0,-0.61 -0.407,-1.017l-2.034,-0l-2.034,10.577l-3.051,-0l4.881,-23.798Zm29.494,-0l6.915,-0l-0.61,2.848l-1.831,-0l-3.661,20.34l-3.254,-0l3.661,-20.34l-1.831,-0l0.611,-2.848Zm34.171,-0l3.865,-0l-1.221,23.391l-3.864,0l0.61,-5.288l-2.441,-0l-2.034,5.288l-3.458,0l8.543,-23.391Zm27.459,-0l3.051,-0l-4.475,23.188l-3.051,-0l4.475,-23.188Zm26.442,-0l2.848,-0l1.627,12.204l2.238,-12.204l3.254,-0l-4.271,23.391l-3.051,0l-1.017,-13.424l-2.645,13.424l-3.457,0l4.474,-23.391Zm34.172,-0l3.864,-0l0.611,13.424l5.898,-13.424l3.661,-0l-3.864,23.188l-2.848,-0l1.831,-12.204l-5.085,12.204l-2.034,-0l-0.61,-12.611l-2.238,12.611l-3.254,-0l4.068,-23.188Zm37.222,-0l6.102,-0l-0.407,2.848l-3.254,-0l-1.424,7.119l3.255,-0l-0.407,2.44l-3.255,0l-1.423,7.73l3.254,-0l-0.61,2.847l-6.509,0l4.678,-22.984Zm29.9,-0l2.848,-0l1.627,12.204l2.237,-12.204l3.255,-0l-4.272,23.188l-2.847,-0l-1.221,-13.425l-2.644,13.425l-3.458,-0l4.475,-23.188Zm30.51,-0l6.916,-0l-0.61,2.848l-1.831,-0l-3.661,20.34l-3.254,-0l3.661,-20.34l-1.831,-0l0.61,-2.848Zm-246.522,2.848c-0.203,-0 -0.203,-0 -0.407,0.203l-1.424,6.916l0,0.203c0,0.203 0.204,0.407 0.407,0.407l1.221,-0c0.406,-0 1.017,-0.61 1.22,-1.017l1.22,-5.695c0,-0.407 -0.61,-1.017 -0.813,-1.017l-1.424,-0Zm60.817,6.915l-2.237,5.899l1.627,-0l0.61,-5.899Z" style="fill:#fff;fill-rule:nonzero;"/></svg>