<?xml version="1.0" encoding="UTF-8" standalone="no"?><!DOCTYPE svg PUBLIC "-//W3C//DTD SVG 1.1//EN" "http://www.w3.org/Graphics/SVG/1.1/DTD/svg11.dtd"><svg width="100%" height="100%" viewBox="0 0 600 137" version="1.1" xmlns="http://www.w3.org/2000/svg" xmlns:xlink="http://www.w3.org/1999/xlink" xml:space="preserve" xmlns:serif="http://www.serif.com/" style="fill-rule:evenodd;clip-rule:evenodd;stroke-linejoin:round;stroke-miterlimit:2;"><g id="nintendo_gamecube"><path d="M228.326,67.126l-26.579,46.2l33.248,0l-0,-10.476l-14.822,0l13.713,-22.955l18.567,33.431l13.787,0l-26.817,-46.2l-11.097,0Z" style="fill:#fff;"/><path d="M452.638,102.85l-0,-35.72l-12.417,0l-0,34.693c-0,8.731 2.92,11.507 11.995,11.507l27.829,0c9.097,0 12.002,-2.776 12.002,-11.507l0,-34.693l-12.409,0l0,35.72l-27,0Z" style="fill:#fff;"/><path d="M296.373,113.326l14.216,-24.693l0,24.693l11.433,0l0.032,-46.2l-11.418,0l-18.863,32.718l-18.868,-32.718l-11.378,0l0.012,46.2l11.417,0l0,-24.693l14.237,24.693l9.18,0Z" style="fill:#fff;"/><path d="M339.929,94.209l20.316,0l0,-9.711l-20.316,0l0,-7.657l34.83,0l-0,-9.715l-47.231,0l-0,46.2l47.649,0l-0,-10.476l-35.248,0l0,-8.641Z" style="fill:#fff;"/><path d="M564.745,94.209l20.308,0l-0,-9.711l-20.308,0l-0,-7.657l34.837,0l0,-9.715l-47.27,0l0,46.2l47.688,0l-0,-10.476l-35.255,0l-0,-8.641Z" style="fill:#fff;"/><path d="M203.23,85.521l-28.859,0l0,9.746l16.732,0l-0,7.579l-29.856,0l0,-25.708l41.488,-0l-0,-10.012l-41.878,0c-9.078,0 -11.983,2.784 -11.983,11.476l-0,23.214c-0,8.73 2.908,11.507 11.983,11.507l30.394,-0c9.063,-0 11.979,-2.777 11.979,-11.507l0,-16.295Z" style="fill:#fff;"/><path d="M423.255,67.126l-27.165,0c-9.106,0 -11.995,2.784 -11.995,11.492l-0,23.198c-0,8.73 2.889,11.499 11.995,11.499l27.165,-0c9.074,-0 12.003,-2.769 12.003,-11.499l-0,-8.419l-12.409,0l-0,9.449l-26.357,0l0,-25.692l26.357,-0l-0,8.367l12.409,0l-0,-6.903c-0,-8.708 -2.929,-11.492 -12.003,-11.492Z" style="fill:#fff;"/><path d="M30.066,86.115l26.528,15.314l0.004,-30.632l-26.532,-15.318l-0,30.636Z" style="fill:#fff;"/><path d="M542.605,89.578c2.983,-1.409 4.623,-4.041 4.623,-7.473l0,-5.4c0,-6.552 -3.487,-9.579 -10.987,-9.579l-38.743,0l0,46.2l36.048,0c9.379,0 14.116,-3.248 14.116,-9.777l-0,-5.591c-0,-3.932 -1.792,-6.845 -5.057,-8.38Zm-6.552,10.746c0,2.233 -0.48,2.839 -3.858,2.839l-22.284,-0l0,-8.938l22.284,-0c3.378,-0 3.858,0.625 3.858,2.815l0,3.284Zm-26.142,-23.908l22.237,-0c3.44,-0 3.601,0.738 3.601,2.073l-0,4.201c-0,1.336 -0.161,2.082 -3.601,2.082l-22.237,-0l0,-8.356Z" style="fill:#fff;"/><path d="M471.392,54.362l-0,-35.505l-6.751,-0l-0,22.647l-11.484,-22.647l-9.114,-0l0,35.505l6.748,0l-0,-27.68l13.904,27.68l6.697,0Z" style="fill:#fff;"/><path d="M275.717,26.682l13.924,27.68l6.677,0l-0,-35.505l-6.743,-0l-0,22.647l-11.496,-22.647l-9.125,-0l-0,35.505l6.763,0l-0,-27.68Z" style="fill:#fff;"/><path d="M165.062,26.682l13.905,27.68l6.677,0l-0,-35.505l-6.771,-0l0,22.647l-11.464,-22.647l-9.102,-0l0,35.505l6.755,0l0,-27.68Z" style="fill:#fff;"/><rect x="223.492" y="18.857" width="7.622" height="35.505" style="fill:#fff;"/><path d="M338.043,54.362l7.232,0l-0,-29.84l11.394,0l-0,-5.638l-30.035,0l-0,5.638l11.409,0l0,29.84Z" style="fill:#fff;"/><path d="M384.595,45.237c-0,4.931 4.767,8.918 10.722,9.125l15.642,0l0,-5.623l-14.978,0c-2.335,0 -4.729,-1.538 -4.729,-3.694l0,-6.423l19.707,0l0,-5.673l-19.707,-0l0,-4.764c0,-2.144 2.394,-3.702 4.729,-3.702l14.978,0l0,-5.622l-15.388,-0c-6.08,0.121 -10.976,4.154 -10.976,9.148l-0,17.228Z" style="fill:#fff;"/><path d="M591.421,27.775c0,-5.06 -5.064,-9.152 -11.241,-9.152l-6.033,-0c-6.185,-0 -11.234,4.092 -11.234,9.152l0,17.68c0,5.077 5.049,9.176 11.234,9.176l6.033,0c6.177,0 11.241,-4.096 11.241,-9.176l0,-17.68Zm-6.712,17.501c0,2.14 -2.409,3.905 -4.736,3.905l-5.619,-0c-2.343,-0 -4.744,-1.765 -4.744,-3.905l-0,-17.306c-0,-2.19 2.401,-3.916 4.744,-3.916l5.619,-0c2.327,-0 4.736,1.726 4.736,3.916l0,17.306Z" style="fill:#fff;"/><path d="M520.946,54.362c6.216,0 11.234,-4.1 11.234,-9.168l-0,-17.149c-0,-5.084 -5.018,-9.192 -11.234,-9.192l-16.411,-0l-0,35.505l16.411,0l-0,0.004Zm-9.73,-30.058l9.523,-0c2.358,-0 4.752,1.788 4.752,3.944l0,16.766c0,2.312 -2.479,3.889 -4.752,3.889l-9.523,0l-0,-24.599Z" style="fill:#fff;"/><path d="M18.657,92.698l37.941,21.894l0,21.553l-56.598,-32.678l-0,-65.348l18.657,10.769l-0,43.81Zm40.651,-57.227l-26.524,15.314l26.524,15.318l26.528,-15.318l-26.528,-15.314Z" style="fill:#fff;"/><path d="M59.308,22.309l31.917,18.469l18.672,-10.766l-50.589,-29.21l-56.543,32.647l18.64,10.765l37.903,-21.905Zm40.644,70.389l-0,-22.26l-11.406,6.571l0,9.106l-26.528,15.322l-0,0.031l-0.008,-30.663l0,-0.008l56.606,-32.678l0,65.348l-56.598,32.678l-0.012,-21.522l37.946,-21.925Z" style="fill:#fff;"/></g></svg>