<svg clip-rule="evenodd" fill-rule="evenodd" stroke-linejoin="round" stroke-miterlimit="2" viewBox="0 0 600 107" xmlns="http://www.w3.org/2000/svg"><g fill="#fff" fill-rule="nonzero"><path d="m164.774 78.472h22.535v-50.073h-15.246v28.713h-.132l-10.053-28.713h-22.533v50.073h15.238v-28.903h.137z"/><path d="m249.787 78.472h22.533v-50.073h-15.236v28.713h-.138l-10.054-28.713h-22.531v50.073h15.245v-28.903h.132z"/><path d="m396.174 78.472h22.537v-50.073h-15.242v28.713h-.136l-10.053-28.713h-22.534v50.073h15.241v-28.903h.133z"/><path d="m196.514 28.399h18.796v50.073h-18.796z"/><path d="m289.716 42.001h-11.944v-13.602h42.72v13.602h-11.985v36.471h-18.791z"/><path d="m326.042 28.385h37.17v13.245h-18.673v5.236h17.193v12.838h-17.193v5.618h19.269v13.134h-37.766z"/><path d="m426.8 28.399h22.267c18.992 0 25.037 10.749 25.037 25.59 0 15.12-9.327 24.484-23.913 24.484h-23.391zm18.399 38.696h1.832c3.022 0 5.048-.927 6.232-2.938 1.248-2.082 1.387-5.874 1.387-10.723 0-4.854-.142-8.638-1.387-10.723-1.184-2.014-3.21-2.941-6.232-2.941h-1.832z"/><path d="m503.566 27.086c16.362 0 24.503 10.745 24.503 26.349 0 15.608-8.143 26.356-24.503 26.356-16.364 0-24.505-10.748-24.505-26.356 0-15.604 8.138-26.349 24.505-26.349zm0 40.015c2.886 0 5.061-1.419 5.061-13.667 0-11.973-2.044-13.664-5.061-13.664-3.02 0-5.061 1.691-5.061 13.664 0 12.249 2.17 13.667 5.061 13.667z"/><path d="m164.774 78.472h22.535v-50.073h-15.246v28.713h-.132l-10.053-28.713h-22.533v50.073h15.238v-28.903h.137z"/><path d="m249.787 78.472h22.533v-50.073h-15.236v28.713h-.138l-10.054-28.713h-22.531v50.073h15.245v-28.903h.132z"/><path d="m396.174 78.472h22.537v-50.073h-15.242v28.713h-.136l-10.053-28.713h-22.534v50.073h15.241v-28.903h.133z"/><path d="m196.514 28.399h18.796v50.073h-18.796z"/><path d="m289.716 42.001h-11.944v-13.602h42.72v13.602h-11.985v36.471h-18.791z"/><path d="m326.042 28.385h37.17v13.245h-18.673v5.236h17.193v12.838h-17.193v5.618h19.269v13.134h-37.766z"/><path d="m561.685 21.741c-1-.088-1.972-.046-3.329.015-7.929.366-11.135 3.745-12.222 7.562h.192c1.974-1.725 4.414-2.531 7.683-2.531 6.289 0 12.033 4.573 12.033 13.152 0 8.209-6.31 14.603-14.78 14.603-11.157 0-16.011-8.521-16.011-17.658 0-7.422 2.634-13.708 6.956-17.763 4.113-3.811 9.418-5.736 15.91-5.884 1.719-.099 2.74 0 3.568.075zm-10.564 24.727c2.571 0 4.13-2.626 4.13-5.981-.021-2.831-1.317-5.917-4.765-5.917-2.106 0-3.747 1.335-4.367 2.947-.241.494-.331 1.198-.331 2.393.22 3.199 1.763 6.559 5.269 6.559z"/><path d="m585.701 53.867v-8.986h-16.704v-7.18l13.412-23.899h13.346v22.847h4.245v8.232h-4.245v8.986zm0-17.218v-6.885c0-2.545.153-5.188.283-7.975h-.219c-1.241 2.704-2.322 5.279-3.734 8.072l-3.282 6.669-.035.121z"/><path d="m0 21.534v62.855s13.598 5.711 13.598 5.711v-33.064l.005-.095.015-.093.024-.089.041-.103.053-.096.064-.089.074-.08.084-.071.093-.06.084-.041.088-.033.102-.025.104-.014h.111l.11.013.107.027.102.039.096.052.09.063.082.074.073.085.053.078.027.051 14.43 28.014.006.011 8.034 15.599s14.749 6.24 14.749 6.24v-64.705l-14.502-5.555v32.547c0 .409-.279.766-.676.865-.068.017-.137.025-.205.026h-.018c-.321-.003-.623-.18-.779-.473l-22.462-42.319-13.857-5.345zm106.777 0-13.597 5.244v40.486c0 .389-.253.733-.624.85-.081.025-.163.039-.245.041h-.018c-.287.001-.564-.136-.734-.38l-22.217-31.755-15.061 5.768v64.705l14.502-6.135v-38.432l.006-.106.018-.103.031-.099.041-.095.051-.088.066-.088.078-.08.085-.069.09-.055.096-.045.1-.033.105-.022.112-.008.112.005.115.021.078.023.097.041.086.048.058.04.068.056.047.047c.009.009.017.019.025.028.012.013.022.026.033.04l22.197 28.969 14.199-5.964zm-91.398 68.538 12.314-5.453-12.314-23.907zm74.283-.595-14.798-5.685s-4.3-6.027-4.3-6.027v-13.212zm-53.447-54.332v30.056s-20.469-38.564-20.469-38.564 13.682-5.277 13.682-5.277zm55.183-8.367-14.229-5.488-7.877 8.877c-.025.039-.053.077-.085.112l-2.342 2.628 1.701.653 1.426.546c.181.069.329.192.429.347l20.977 29.983zm-50.211 7.553 12.203-4.677 13.793 5.284-13.793 5.283-13.792-5.283zm-10.313-14.07 6.672 13.554 2.704-1.036 11.861-21.167-13.475-5.242zm34.211 11.963 2.566-2.892v-22.753l-13.641 5.289-11.159 19.915 10.22-3.915.098-.031.099-.019.101-.008.102.003.1.015.099.026.038.014zm-37.696-11.988-12.901 4.976-12.901-4.976 12.901-4.963zm52.001-.001 12.899 4.977 12.901-4.976-12.901-4.963zm-38.685-14.972 12.684-4.884 12.685 4.9-12.684 4.919z"/></g></svg>