<svg clip-rule="evenodd" fill-rule="evenodd" stroke-linejoin="round" stroke-miterlimit="2" viewBox="0 0 600 148" xmlns="http://www.w3.org/2000/svg"><g fill="#fff"><path d="m492.605 79.677c7.671 0 14.665 4.061 18.501 10.604l11.055-9.476c-6.769-9.927-17.824-16.019-30.008-16.019-19.854 0-36.099 16.245-36.099 36.099 0 19.855 16.245 36.1 36.099 36.1 12.184 0 23.239-5.866 30.008-16.019l-11.055-9.476c-3.836 6.317-10.83 10.604-18.501 10.604-11.733 0-21.434-9.476-21.434-20.983s9.476-21.434 21.434-21.434z"/><path d="m204.939 93.44h-.452c-8.348-1.354-15.342-2.708-16.019-7.446 0-.676 0-2.256 1.128-3.835 2.257-2.708 7.446-3.836 15.117-3.836 8.799 0 17.598 3.385 20.757 4.738l4.738-11.732c-3.384-1.354-14.214-5.189-26.172-5.189-14.665 0-30.233 7.22-30.233 20.306 0 10.604 7.445 16.244 26.849 19.629 13.763 2.256 21.208 3.61 20.983 9.476-.226 3.158-2.708 8.573-18.05 8.573-12.409 0-21.208-4.512-24.141-6.317l-6.318 11.507c3.384 1.805 14.891 7.219 29.556 7.219 21.434 0 32.941-7.445 32.941-21.659.226-10.153-4.738-16.922-30.684-21.434z"/><path d="m356.556 66.817h15.117v67.686h-15.117z"/><path d="m583.078 93.44h-31.586v-26.623h-13.989v67.686h13.989v-27.075h31.586v27.075h13.989v-67.686h-13.989z"/><path d="m445.676 81.031v-14.44h-57.308v14.44h21.434v53.246h14.665v-53.246z"/><path d="m312.108 115.776-14.439-49.185h-11.958l-14.214 48.96-13.086-48.96h-14.666l19.178 67.686h16.245l12.634-44.673 12.635 44.673h16.245l19.178-67.686h-14.666z"/><path d="m412.961 41.773h-20.532v-8.348h18.952v-6.543h-18.952v-7.671h20.532v-6.543h-27.977v35.873h27.977z"/><path d="m183.73 24.4 17.824 23.916h6.995v-35.874h-7.22v23.69l-17.599-23.464h-7.22v35.873h7.22z"/><path d="m278.04 24.4 17.824 23.916h6.994v-35.874h-7.22v23.69l-17.598-23.464h-7.22v35.873h7.22z"/><path d="m474.781 48.541v-36.099h-7.22v23.69l-17.599-23.464h-7.219v35.873h7.219v-23.915l17.824 23.915z"/><path d="m235.849 12.442h7.897v35.874h-7.897z"/><path d="m358.812 12.442h-30.459v7.671h11.507v28.203h7.671v-28.203h11.281z"/><path d="m580.822 11.314c-10.604 0-19.177 8.574-19.177 19.178s8.573 19.178 19.177 19.178 19.178-8.574 19.178-19.178c-.226-10.604-8.799-19.178-19.178-19.178zm0 30.233c-6.091 0-11.055-4.963-11.055-11.055s4.964-11.056 11.055-11.056c6.092 0 11.056 4.964 11.056 11.056s-4.964 11.055-11.056 11.055z"/><path d="m519.905 12.442h-14.891v35.874h14.891c10.153 0 18.501-8.123 18.501-17.824 0-9.928-8.348-18.05-18.501-18.05zm.451 28.428h-7.897v-20.757h7.897c5.64 0 10.379 4.738 10.379 10.379 0 5.64-4.739 10.378-10.379 10.378z"/><path d="m69.637.823h-32.051c-20.753 0-37.586 16.833-37.586 37.585v71.482c0 20.753 16.833 37.586 37.586 37.586h32.051c.577 0 1.038-.461 1.038-1.038v-144.578c0-.576-.461-1.037-1.038-1.037zm-10.722 134.893h-21.329c-6.918 0-13.374-2.652-18.217-7.609-4.842-4.843-7.609-11.299-7.609-18.217v-71.482c0-6.917 2.652-13.374 7.609-18.216 4.843-4.842 11.299-7.609 18.217-7.609h21.329z"/><path d="m86.47 147.476h22.598c20.752 0 37.585-16.833 37.585-37.586v-71.482c0-20.752-16.833-37.585-37.585-37.585h-22.713c-.577 0-.923.461-.923.922v144.693c0 .577.462 1.038 1.038 1.038zm27.901-80.821c8.186 0 14.873 6.687 14.873 14.873s-6.687 14.873-14.873 14.873-14.873-6.687-14.873-14.873c.116-8.186 6.687-14.873 14.873-14.873z"/><path d="m22.828 44.865c0 7.609 6.226 13.835 13.835 13.835 7.61 0 13.836-6.226 13.836-13.835 0-7.61-6.226-13.835-13.836-13.835-7.724 0-13.835 6.11-13.835 13.835z"/></g></svg>