<svg clip-rule="evenodd" fill-rule="evenodd" stroke-linejoin="round" stroke-miterlimit="2" viewBox="0 0 600 261" xmlns="http://www.w3.org/2000/svg"><g fill="#fff" fill-rule="nonzero"><path d="m432.795 93.904-31.149 122.019s-23.768-91.587-27.639-104.583c-3.867-13.004-11.851-18.704-23.147-18.704-11.302 0-19.283 5.7-23.144 18.704-3.876 12.996-27.671 104.583-27.671 104.583l-31.123-122.019h-37.496s35.99 130.18 40.884 145.254c3.826 11.77 12.831 21.395 26.209 21.395 15.295 0 22.441-11.149 25.75-21.395 3.276-10.172 26.591-96.165 26.591-96.165s23.3 85.993 26.594 96.165c3.279 10.246 10.452 21.395 25.738 21.395 13.37 0 22.389-9.625 26.203-21.395 4.882-15.074 40.878-145.254 40.878-145.254zm128.574 165.39h35.484v-114.831h-35.484zm-3.429-154.962c0 11.064 9.311 20.039 20.786 20.039 11.913 0 21.274-8.805 21.274-20.039 0-11.263-9.361-20.074-21.274-20.074-11.475 0-20.786 8.996-20.786 20.074m-68.701 154.962h35.469v-114.831h-35.469zm17.33-175.036c11.925 0 21.271 8.811 21.271 20.074 0 11.234-9.346 20.039-21.271 20.039-11.481 0-20.803-8.975-20.803-20.039 0-11.078 9.322-20.074 20.803-20.074"/><path d="m253.264 63.809h-214.693c-18.343.062-29.491-12.249-29.491-27.352 0-15.106 11.219-27.318 29.491-27.351h214.693c18.272.033 29.486 12.245 29.486 27.351 0 15.103-11.144 27.414-29.486 27.352m.104-63.625h-214.901c-23.011-.054-38.467 16.49-38.467 36.323 0 19.83 15.418 36.183 38.5 36.191h214.834c23.078-.008 38.5-16.361 38.5-36.191 0-19.833-15.459-36.377-38.466-36.323m-104.826 34.026c.802-1.399 2.276-2.068 3.61-2.072 1.337.004 2.812.673 3.609 2.072.656 1.134.685 2.463.673 4.449h-8.569c-.017-1.986.025-3.315.677-4.449m18.666 7.984c0-7.037-6.799-12.868-15.148-12.868-8.344 0-15.115 5.703-15.115 12.743 0 7.036 6.771 12.743 15.115 12.743 6.933 0 12.777-3.95 14.563-9.312l-10.231.008s.009.1.009 1.375c0 4.154-2.729 5.076-4.249 5.076-1.512 0-4.291-.922-4.291-5.076 0-1.242.008-4.685.008-4.685s19.339.008 19.339-.004m21.487-12.49c-3.397.095-6.222 1.549-8.191 3.422-.008-.561 0-2.384 0-2.384l-10.184.004-.005 22.7h10.189s-.008-13.944-.008-14.912c0-1.977 2.077-4.178 4.872-4.178 2.8 0 4.69 2.201 4.69 4.178v14.912h10.201s-.004-10.754 0-12.353c.058-8.989-7.73-11.502-11.564-11.389m-83.425 0c-3.394.095-6.223 1.549-8.187 3.422-.009-.561 0-2.384 0-2.384l-10.202.004.009 22.7h10.193s-.009-13.944-.009-14.912c0-1.977 2.077-4.178 4.873-4.178 2.795 0 4.689 2.201 4.689 4.178v14.912h10.201s-.012-10.754 0-12.353c.054-8.989-7.734-11.502-11.567-11.389m117.19 12.278s.004 2.571.004 4.029c0 3.505-2.43 4.423-4.029 4.423-1.628 0-4.021-.918-4.021-4.423 0-1.205.005-4.038.005-4.038s-.005-2.882-.005-4.045c0-3.514 2.393-4.407 4.025-4.407 1.595 0 4.021.893 4.021 4.407zm-.075-10.11c-1.636-.922-3.372-1.811-5.807-2.023-7.397-.652-13.054 5.89-13.054 11.884 0 7.9 6.101 10.824 7.023 11.256 3.456 1.607 7.888 1.611 11.817-.856 0 .212.005 1.313.005 1.313h10.147v-34.131h-10.131zm32.594 14.853c0 3.618-2.139 5.109-4.195 5.109-2.061 0-4.208-1.491-4.208-5.109 0-1.375.004-4.897.004-4.897s.004-3.356.004-4.735c0-3.597 2.152-5.08 4.195-5.08 2.052 0 4.196 1.483 4.196 5.08 0 1.379 0 3.921.012 4.835 0 .054-.008 3.431-.008 4.797m-4.116-17.528c-8.287 0-15.003 5.711-15.003 12.747 0 7.041 6.716 12.748 15.003 12.748 8.286 0 15.002-5.707 15.002-12.748 0-7.036-6.716-12.747-15.002-12.747m-179.919-2.916h10.289v-6.978h-10.289zm.025 27.169h10.264v-22.7h-10.264zm67.334-22.658v-3.377h-5.561v-4.59h-10.272l.008 4.594-5.587.004v3.369h5.583l-.008 22.658h10.284l-.008-22.658zm-83.753 12.328-14.717-23.805h-10.633l-.004 34.135h10.571v-23.805l14.791 23.805h10.534v-34.135h-10.551z"/></g></svg>