<svg clip-rule="evenodd" fill-rule="evenodd" stroke-linejoin="round" stroke-miterlimit="2" viewBox="0 0 600 84" xmlns="http://www.w3.org/2000/svg"><g fill="#fff" fill-rule="nonzero"><path d="m165.242 41.899c1.868-5.24 6.076-7.325 10.329-7.325 5.961 0 9.353 3.78 10.565 7.325zm10.138-17.495c-12.459 0-21.634 11.005-21.634 21.908 0 11.266 9.386 22.053 21.736 22.053 9.015 0 16.398-5.062 19.599-11.355l-9.825-3.456c-2.57 3.188-5.7 4.661-9.857 4.661-4.247 0-9.15-2.767-10.31-8.033h24.4c5.254 0 7.894-1.046 7.894-4.967-.173-8.588-7.658-20.811-22.003-20.811m94.521 33.174c-6.293 0-11.094-5.025-11.094-11.209 0-6.172 4.801-11.183 11.094-11.183s10.947 4.947 10.947 11.183c0 6.261-4.654 11.209-10.947 11.209m10.884-28.857h-.211c-.95-1.416-5.4-4.317-11.062-4.317-11.878 0-21.869 9.883-21.869 21.965 0 12.095 9.991 21.996 21.869 21.996 5.662 0 10.112-2.92 11.062-4.335h.211v3.06h12.037v-58.281h-12.037zm-56.12-4.317c-4.521 0-8.525 1.836-10.986 4.795h-.134v-3.52h-12.037v41.399h12.037v-20.142c0-8.046 4.368-11.527 9.334-11.527 3.443 0 8.691 2.193 8.691 10.322v21.321h12.024v-22.194c0-13.925-9.602-20.454-18.929-20.454m-80.03-10.137h-12.012v11.412h-8.02v9.755h8.02v31.637h12.012v-31.637h8.136v-9.755h-8.136zm174.309 43.253c-6.006 0-10.89-4.979-10.89-11.119 0-6.134 4.903-11.12 10.89-11.12 6.006 0 10.902 4.986 10.902 11.12 0 6.14-4.896 11.119-10.902 11.119m0-33.116c-12.197 0-22.08 9.87-22.08 21.984 0 12.12 9.883 21.977 22.08 21.977 12.203 0 22.092-9.857 22.092-21.977 0-12.114-9.889-21.984-22.092-21.984m-280.683 20.435-24.387-32.09c-2.525-3.309-4.91-4.329-6.848-4.329-4.616 0-7.026 2.774-7.026 6.752v51.886h12.905v-36.017l24.387 32.096c2.519 3.309 4.922 4.323 6.861 4.323 4.609 0 7.026-2.773 7.026-6.746v-51.905h-12.918zm22.099 22.258h12.031v-41.418h-12.031zm6.012-60.896c-3.876 0-7.02 3.144-7.02 7.026 0 3.883 3.144 7.033 7.02 7.033 3.883 0 7.026-3.15 7.026-7.033 0-3.882-3.143-7.026-7.026-7.026m37.146 18.203c-4.495 0-8.518 1.836-10.986 4.795h-.121v-3.52h-12.031v41.399h12.031v-20.142c0-8.046 4.368-11.527 9.341-11.527 3.443 0 8.677 2.193 8.677 10.322v21.321h12.05v-22.194c0-13.925-9.614-20.454-18.961-20.454"/><path d="m438.246 32.143c-5.79-1.926-10.195-3.361-10.195-7.435 0-2.709 2.384-5.266 6.809-5.266 4.469 0 7.115 2.353 9.277 4.119l9.921-6.905c-4.221-5.216-11.413-9.583-19.019-9.583-10.546 0-19.613 7.746-19.613 17.82 0 7.536 5.076 14.633 15.666 18.146 6.637 2.219 10.801 3.538 10.801 7.797 0 2.921-2.959 5.567-6.568 5.567-4.431 0-8.078-2.991-10.858-5.465l-10.532 7.352c5.234 6.082 13.529 10.526 21.078 10.526 11.725 0 19.733-8.932 19.733-18.254 0-7.224-4.029-14.262-16.5-18.419m139.502 25.452c-6.299 0-10.947-4.948-10.947-11.209 0-6.255 4.648-11.209 10.947-11.209 6.287 0 11.094 5.031 11.094 11.209s-4.807 11.209-11.094 11.209m.402-33.193c-5.681 0-10.125 2.92-11.081 4.329h-.198v-3.054h-12.025v58.269h12.025v-19.899h.198c.956 1.409 5.4 4.323 11.081 4.323 11.859 0 21.85-9.895 21.85-21.984 0-12.082-9.991-21.984-21.85-21.984m-94.502.013c-4.502 0-8.525 1.83-10.979 4.801h-.141v-20.396h-12.018v58.275h12.018v-20.148c0-8.04 4.374-11.527 9.341-11.527 3.443 0 8.696 2.187 8.696 10.329v21.32h12.032v-22.194c0-13.925-9.628-20.46-18.949-20.46m-75.088-17.61c-.083-.089-.223-.083-.274.013l-8.876 12.254c-.038.057-.038.128 0 .166.058.051.115.057.166.038l13.122-7.555c.089-.064.127-.191.044-.281zm-23.304 23.01c3.354 0 6 1.225 8.435 3.475l-21.735 12.529c-1.581-8.302 4.846-16.004 13.3-16.004m.402 27.837c-3.347 0-7.141-1.383-9.092-3.813l24.164-14.033c5.177-2.984 7.581-5.604 5.337-9.474-3.462-5.477-12.204-11.26-21.646-11.26-13.37 0-24.286 11.84-24.286 24.961 0 14.104 12.363 24.981 25.937 24.981 12.535 0 23.725-9.022 24.343-22.054h-12.445c-.568 5.834-5.458 10.692-12.312 10.692m9.799-41.245 8.059-12.803c.039-.102.013-.236-.095-.261l-5.879-2.149c-.095-.038-.223.039-.229.147l-2.085 14.99c0 .063.019.121.089.146.058.019.115-.006.14-.07m133.268 41.118c-6.013 0-10.903-4.98-10.903-11.12s4.89-11.132 10.903-11.132c5.987 0 10.871 4.992 10.871 11.132s-4.884 11.12-10.871 11.12m0-33.123c-12.21 0-22.105 9.87-22.105 21.984 0 12.121 9.895 21.984 22.105 21.984 12.19 0 22.079-9.863 22.079-21.984 0-12.114-9.889-21.984-22.079-21.984m-138.324-8.441c.058-.013.102-.064.109-.128l1.09-15.098c0-.108-.102-.21-.223-.191l-6.165.873c-.134.013-.192.128-.154.249l5.197 14.199c.013.064.083.096.146.096"/></g></svg>