<?xml version="1.0" encoding="UTF-8" standalone="no"?><!DOCTYPE svg PUBLIC "-//W3C//DTD SVG 1.1//EN" "http://www.w3.org/Graphics/SVG/1.1/DTD/svg11.dtd"><svg width="100%" height="100%" viewBox="0 0 600 105" version="1.1" xmlns="http://www.w3.org/2000/svg" xmlns:xlink="http://www.w3.org/1999/xlink" xml:space="preserve" xmlns:serif="http://www.serif.com/" style="fill-rule:evenodd;clip-rule:evenodd;stroke-linejoin:round;stroke-miterlimit:2;"><g id="nintendo_gameboy_alt"><path id="_43443024" d="M517.119,1.053l25.431,-0l12.562,28.89l18.837,-28.89l26.051,-0l-36.732,57.146l-5.964,44.585l-23.545,0l6.906,-50.872l-23.546,-50.859Z" style="fill:#fff;fill-rule:nonzero;"/><path id="_43441624" d="M329.987,102.784l3.14,-22.616l-35.787,-0l2.198,-17.574l31.078,-0l3.144,-22.606l-30.768,-0l2.199,-16.33l35.785,-0l3.456,-22.605l-59.339,-0l-14.129,101.731l59.023,0Z" style="fill:#fff;fill-rule:nonzero;"/><path id="_43775888" d="M118.687,52.539l7.849,-21.034l2.514,21.034l-10.363,-0Zm-8.476,20.094l21.349,0l3.771,30.142l38.617,-0l17.896,-55.259l8.794,55.259l20.408,-0l22.605,-58.398l3.769,58.398l22.605,-0l-6.281,-101.727l-27.002,0l-21.034,53.688l-8.166,-53.688l-24.174,0l-27.628,83.516l-10.362,-83.516l-30.142,0l-33.596,84.456l4.397,-32.966l-40.816,-0l-2.828,20.094l17.899,0l-1.258,6.907c-3.14,1.882 -10.36,2.196 -13.186,2.196c-2.825,0 -23.86,-1.882 -22.919,-24.489c0.941,-22.605 31.082,-43.641 66.874,-32.024l3.457,-21.664c-23.864,-8.161 -86.536,-3.593 -92.938,52.434c-3.767,32.965 26.375,48.665 46.467,48.353c11.618,0.629 24.806,-3.768 29.514,-6.281l-1.568,4.711l23.862,-0l11.614,-30.142Z" style="fill:#fff;fill-rule:nonzero;"/><path id="_44102912" d="M491.684,0.112c-16.328,-0.629 -39.876,8.79 -47.724,46.782c-7.849,37.989 13.185,53.374 32.651,55.885c19.47,2.511 46.784,-9.732 51.807,-46.153c5.025,-36.422 -12.876,-55.571 -36.734,-56.514Zm-2.512,21.664c6.592,-0 20.72,4.396 17.266,30.767c-3.455,26.374 -19.78,29.514 -25.746,28.884c-5.968,-0.629 -18.21,-4.706 -14.756,-28.884c3.452,-24.174 16.324,-31.081 23.236,-30.767Z" style="fill:#fff;fill-rule:nonzero;"/><path id="_44104296" d="M392.466,39.988l13.188,-0c9.734,-0 11.617,-6.28 11.929,-8.79c0.314,-2.513 -2.51,-7.537 -7.533,-7.537l-15.385,-0l-2.199,16.327Zm-5.65,40.186l17.898,-0c9.73,-0 11.928,-7.533 12.239,-10.047c0.316,-2.511 -2.509,-7.532 -7.532,-7.532l-20.092,-0l-2.513,17.579Zm-26.372,22.607l14.129,-101.725l43.326,-0c10.364,-0 25.433,11.931 23.55,27.943c-1.883,16.013 -6.908,16.955 -10.362,19.466c5.339,4.706 10.676,12.243 8.479,26.372c-2.199,14.132 -13.816,27.943 -34.224,27.943l-44.898,0.001Z" style="fill:#fff;fill-rule:nonzero;"/></g></svg>