<svg clip-rule="evenodd" fill-rule="evenodd" stroke-linejoin="round" stroke-miterlimit="2" viewBox="0 0 600 105" xmlns="http://www.w3.org/2000/svg"><g fill="#fff"><g fill-rule="nonzero"><path d="m153.402 95.103h-12.004l-1.605-36.156-15.607 36.156h-8.007l-6.669-32.688-10.408 32.688h-20.413l-3.069-17.473h-13.878l-7.871 17.473h-12.545l25.754-58.433h14.809l7.87 47.228 15.347-47.229h11.87l5.871 32.021 13.615-32.021h14.409zm-79.592-28.822-2.197-11.335-5.07 11.335z"/><path d="m187.823 95.103 2.006-12.538h-20.949l1.66-10.407h18.221l2.002-12.545h-18.415l1.601-10.407h20.945l2.003-12.536h-33.22l-9.343 58.433z"/><path d="m343.794 36.669h-14.01l-11.875 19.076-7.467-19.076h-13.743l14.14 30.815-4.356 27.618h12.011l3.685-24.412z"/><path d="m254.323 60.86c3.729-16.157 17.539-26.761 30.84-23.685 13.31 3.075 21.074 18.66 17.348 34.818-3.729 16.153-17.537 26.759-30.844 23.683-13.307-3.075-21.07-18.664-17.344-34.816zm18.172 23.116c6.352 2.841 14.134-2.732 17.371-12.448 3.236-9.724.717-19.908-5.636-22.75-6.354-2.843-14.126 2.733-17.368 12.454-3.24 9.722-.716 19.9 5.633 22.744"/><path d="m225.497 49.309h7.817c8.473 0 6.754 10.855-1.321 10.855h-8.346zm-3.704 22.77h10.061c9.537 0 9.27 11.652-1.322 11.652h-10.592zm-6.621-35.089-9.266 57.999h27.011c11.12 0 27.385-16.392 12.581-29.791 15.223-15.755.126-28.068-7.948-28.208-6.487-.105-22.506 0-22.506 0z"/><path d="m15.711 41.87c-11.442 7.082-16.944 17.875-15.479 32.552 1.704 17.026 23.751 27.751 42.429 16.947 1.635-.944.996-.795 1.601-1.336l3.738-23.751h-22.283l-1.709 10.941h9.314l-1.07 5.873c-5.335 2.134-14.409 1.333-18.277-5.604-2.45-4.394-4.722-14.199 5.606-23.217 8.402-7.338 22.947-8.668 31.355-4.799 0 0 1.066-6.136 1.864-11.877-16.142-5.602-28.685-.93-37.089 4.271"/></g><path d="m402.198 96.335c6.082 3.958 11.794 4.71 12.796 4.815 1.01.205 7.113 1.298 14.135-.522 6.205-1.265 10.838-4.204 11.481-4.627.777-.449 6.566-3.945 10.712-10.58.518 4.71 1.102 9.588 1.158 10.048.084.996.843 6.961 7.019 8.105.014.003.028.005.042.008 5.697.941 11.321-1.786 13.698-2.907 1.82-.855 4.16-1.62 4.644-1.775.435-.094 2.39-.502 4.345-.669.007 0 .015-.001.022-.002 4.838-.464 7.213-1.274 7.986-1.588.572-.134 1.793-.508 3.022-1.448 3.749 3.176 6.102 3.94 6.489 4.05l.13.065c6.928 3.132 14.882 1.7 16.02 1.471 1.222-.142 11.083-1.476 20.15-8.519 2.167-1.592 3.994-3.392 5.503-5.163-.481 1.957-.475 3.564-.456 4.089-.051.844-.104 4.204 1.969 7.264 1.545 2.282 4.255 4.475 9.148 5.177.107.015.215.023.322.022 2.652-.015 4.593-.732 6.032-1.751 3.246-2.298 3.969-6.323 4.099-8.526.193-1.205.256-4.111.271-6.676 0 0 5.494 4.484 5.494 4.484.31.261 6.684 5.611 10.465 8.75.015.013.029.024.044.036 2.925 2.302 4.345 3.297 4.945 3.694.509.502 2.018 1.55 5.518 1.167 2.789-.031 5.371-2.12 6.018-2.685.537-.418 3.561-2.935 4.383-7.084 1.085-5.347-2.614-8.217-3.365-8.738-.935-.755-10.715-8.648-18.616-15.097 3.668-2.148 5.621-3.61 5.951-3.863.864-.599 8.726-6.261 10.521-14.651 2.587-9.864-4.223-14.152-5.322-14.771-.716-.505-4.618-3.214-7.969-4.724-8.714-4.245-16.879-3.778-18.192-3.669-1.655-.062-13.335-.141-21.143 9.486-.011.014-.022.028-.034.043-2.366 3.073-2.606 6.677-2.358 9.26-6.534-5.649-13.74-7.074-15.003-7.287-.94-.274-5.243-1.315-13.32-.239-.04.006-.08.012-.12.02-16.23 3.091-22.453 15.082-23.135 16.497-.66 1.096-5.096 8.894-4.109 18.645-3.365.049-6.889.918-6.889.918-.071.018-.141.04-.21.065 0 0-3.684 1.352-6.292 2.15l-.037.01c-.438-3.87-.926-11.705-.718-15.379.001-.027.002-.055.003-.082.159-8.589-.521-15.661-.58-16.26-.059-.928-.728-9.58-5.48-14.838-.023-.025-.046-.05-.07-.073-2.593-2.616-4.917-3.663-6.886-3.966-3.07-.472-5.442.862-7.065 1.84-.118.071-.229.153-.331.245-6.021 5.405-3.647 11.948-3.347 12.701l1.812 5.129c-2.01-2.147-7.415-7.08-16.145-9.049-.011-.002-.022-.005-.033-.007-9.074-1.898-16.345 1.692-17.385 2.241-.944.398-7.09 3.119-11.823 8.31-7.654 7.405-10.155 17.985-10.402 19.101-.273.96-2.079 7.823.15 14.55-2.192-.088-3.983.158-4.412.223-.917.087-11.566 1.067-17.23-.134-.026-.005-.051-.01-.076-.014-7.72-1.351-7.402-9.713-7.402-9.713.001-.057.001-.113-.002-.17 0 0-.207-6.25 5.092-14.744h.001c6.514-10.45 13.597-12.439 13.597-12.439.073-.019.145-.042.216-.068 0 0 .519-.196 1.167-.124 1.928 6.766 8.638 7.047 9.338 7.058.583.021 4.371.051 7.345-2.55 2.057-1.798 3.847-4.865 3.629-10.257-.002-.054-.006-.107-.013-.161-1.205-10.455-11.041-12.178-15.27-13.155-.035-.008-.071-.016-.106-.022-11.168-2.005-18.734 3.366-19.927 4.283-1.224.717-8.482 5.341-16.958 18.681-5.756 8.275-6.938 14.977-7.123 16.293-.253.894-.718 3.407-.489 9.356-.143 5.571 1.726 9.774 2.125 10.605.49 1.352 4.252 10.839 14.592 14.899 6.53 2.696 16.05 2.68 16.05 2.68h.021s8.682-.121 15.416-.486c4.044.265 6.278-1.582 6.877-2.167.719-.54 2.839-2.314 3.88-5.115zm-15.26-64.743c3.224.73 10.887 1.572 11.831 9.307.127 3.485-.807 5.551-2.144 6.721-1.744 1.524-3.972 1.487-4.314 1.475-.031-.002-.063-.002-.095-.003-.389-.006-4.141-.133-5.213-3.894-.486-1.704-1.954-2.944-3.715-3.138-1.465-.162-2.686.204-3.06.334-.482.128-8.699 2.458-16.096 14.323-6.16 9.874-5.75 17.195-5.75 17.195 0 .02.001.04.002.06 0-.009-.001-.018-.001-.027.01 1.468.451 12.131 10.976 13.994 6.109 1.278 17.518.293 18.503.199.08-.007.161-.017.241-.03.349-.053 1.803-.247 3.583-.176 1.429.057 2.796-.591 3.657-1.733.86-1.143 1.105-2.636.655-3.994-1.836-5.54-.321-11.193-.096-11.984.024-.084.046-.169.065-.254.218-.988 2.405-10.359 9.176-16.909.065-.064.128-.129.189-.196 4.122-4.519 9.476-6.884 10.297-7.231.116-.049.23-.103.342-.161.864-.457 6.905-3.403 14.441-1.832 7.511 1.699 12.174 5.924 13.905 7.772 1.41 1.506 3.682 1.817 5.445.745 1.763-1.071 2.534-3.231 1.847-5.177l-1.812-5.129c-.02-.055-.041-.11-.063-.165-.184-.462-1.491-4.394 2.083-7.72.95-.583 2.249-1.402 3.95-1.141 1.284.198 2.726.995 4.412 2.687 3.864 4.306 4.287 11.399 4.335 12.157.004.052.008.104.013.155.058.581.713 7.424.559 15.736-.208 3.877.287 12.014.743 16.046.249 2.203 2.114 3.868 4.331 3.868l.085-.012c.398-.003.793-.062 1.174-.175l.012-.002-.012.002.053-.014c2.406-.736 5.697-1.926 6.388-2.178.496-.118 3.198-.726 5.792-.764 1.221-.018 2.379-.548 3.191-1.46.813-.912 1.205-2.123 1.082-3.338-.845-8.346 2.943-15.021 3.507-15.96.069-.114.133-.232.191-.352.587-1.218 6.019-11.418 19.968-14.098 6.947-.918 10.651-.125 11.461.111.163.047.327.085.494.113 1.085.183 7.264 1.433 12.878 6.286 1.348 1.166 3.27 1.393 4.852.575 1.583-.818 2.509-2.516 2.338-4.29-.164-1.712-.101-4.123 1.459-6.163 6.494-7.983 16.198-7.903 17.573-7.852.174.007.35.003.524-.011 1.15-.096 8.293-.474 15.923 3.243.039.019.079.038.119.056 3.05 1.374 6.595 3.852 7.247 4.312.12.084.244.163.372.235.727.41 4.957 3.341 3.246 9.867-.017.064-.032.129-.046.194-1.477 6.9-8.035 11.49-8.745 11.983-.055.038-.108.077-.161.117-.305.233-2.116 1.578-5.507 3.565-1.232.721-2.033 2.001-2.143 3.424-.111 1.424.483 2.811 1.59 3.714 7.909 6.456 17.698 14.356 18.634 15.112.082.066.167.13.254.19.367.254 2.107 1.68 1.577 4.29-.001.006-.002.012-.004.019-.522 2.633-2.446 4.228-2.787 4.493-.063.049-.125.1-.185.153-.352.307-1.685 1.594-3.201 1.611-.143.002-.285.01-.426.026-1.005.11-1.972-.07-2.169-.11-.149-.132-.307-.252-.472-.362-.564-.372-1.892-1.31-4.631-3.465-3.777-3.135-10.114-8.456-10.423-8.715-.015-.013-.031-.026-.046-.039 0 0-4.451-3.632-5.341-4.359-.09-.073-.153-.125-.153-.125s-7.112 3.573-7.112 3.571l-.004-.219c-.014 2.309-.042 4.926-.216 6.012-.023.143-.039.287-.047.432-.079 1.326-.312 3.841-2.266 5.225-.809.572-1.908.916-3.371.947-3.159-.484-4.993-1.788-6.004-3.281-1.299-1.918-1.259-4.026-1.227-4.555.008-.139.01-.279.005-.418-.013-.372-.007-1.51.333-2.896.482-1.962-.447-3.998-2.246-4.92-1.798-.921-3.994-.485-5.305 1.053-1.308 1.535-2.888 3.097-4.767 4.478-.031.023-.062.046-.092.07-8.094 6.287-16.886 7.504-17.978 7.631-.12.014-.239.032-.358.056-.945.19-7.532 1.433-13.292-1.137-.002 0-.054-.026-.054-.026-.24-.12-.492-.217-.751-.291-.294-.084-2.015-.77-4.864-3.184-1.563-1.325-3.838-1.382-5.466-.137-.558.427-1.108.606-1.367.667-.221.051-.437.12-.647.205-.654.266-2.672.896-6.762 1.288.007-.001.015-.001.023-.002-2.202.188-4.405.645-4.895.751-.138.03-.275.066-.41.11-.539.172-3.141 1.029-5.167 1.981-.001 0-.002.001-.004.002-1.935.912-6.469 3.308-11.106 2.552-3.114-.588-3.409-3.677-3.452-4.181-.004-.052-.009-.103-.015-.154-.055-.458-.637-5.315-1.153-10.005-.203-1.845-1.552-3.36-3.362-3.773s-3.684.365-4.668 1.94c-3.566 5.707-8.53 8.731-9.198 9.117-.071.041-.141.085-.21.13-.557.366-4.579 2.902-9.958 3.998-.075.015-.15.033-.224.052-6.05 1.568-11.306.646-12.177.47-.135-.028-.272-.049-.41-.063-.852-.09-5.698-.767-10.872-4.134-1.11-.722-2.488-.9-3.745-.485s-2.257 1.379-2.719 2.62c-.643 1.732-1.969 2.816-2.413 3.15-.149.112-.29.233-.423.362-.306.298-1.491 1.074-3.551.939-.173-.011-.346-.012-.52-.002-6.53.353-14.914.474-15.232.479-.549.001-8.706-.018-14.355-2.35-.024-.009-.047-.019-.07-.028-8.561-3.361-11.682-11.208-12.088-12.328-.05-.136-.106-.27-.169-.401-.324-.674-1.813-4.088-1.697-8.606.003-.094.002-.187-.001-.28-.196-5.086.112-7.238.328-8.003.053-.19.094-.384.122-.579.163-1.166 1.282-7.075 6.385-14.41.034-.05.068-.1.101-.151 7.788-12.258 14.356-16.598 15.481-17.257.157-.093.309-.195.454-.306.985-.758 7.252-5.099 16.474-3.453z"/><path d="m421.347 86.722.55.064c4.997.47 8.761-1.211 11.282-3.076 2.237-1.667 3.528-3.499 3.947-4.152.834-.958 4.115-5.552.958-15.617-2.877-9.245-8.712-9.689-8.951-9.704-.657-.072-8.114-.743-15.258 5.264-.022.019-.045.039-.067.059-7.196 6.575-5.963 14.117-5.804 14.936.153.992 1.946 10.759 13.343 12.226zm.958-4.083c-8.611-.891-10.07-8.047-10.183-8.778-.008-.054-.018-.108-.028-.161-.119-.61-.841-6.136 4.491-11.033 5.684-4.763 11.567-4.346 12.091-4.288.069.007.138.013.207.017-.012 0-.115-.009-.115-.009s3.62 1.274 5.338 6.792c.001.003.002.006.003.009 2.347 7.485.494 10.922-.126 11.634-.134.154-.256.318-.366.489-.661 1.033-4.274 5.982-11.312 5.328z"/><path d="m499.169 68.801c-.009.066.024.073-.007.052-.102.772-.132 1.583-.076 2.433.718 6.662 3.853 9.474 4.682 10.087 1.246 1.202 9.271 8.06 21.352.802 8.556-5.52 8.112-13.918 7.928-15.598.03-.864-.208-3.803-4.229-7.433-.052-.047-.106-.092-.162-.133-4.396-3.262-6.084-2.99-11.518-3.396-5.339-.401-9.659 2.09-10.067 2.334-.812.459-7.001 4.163-7.903 10.852zm26.801-6.355c2.251 2.052 2.739 3.49 2.722 3.981-.007.209 0 .417.023.624.135 1.237.357 7.348-5.9 11.423-9.059 5.406-15.084.665-16.02-.238-.138-.132-.283-.256-.437-.369-.565-.418-2.419-2.445-2.926-6.953-.327-5.742 5.15-8.812 5.785-9.17.03-.017.06-.035.089-.052.304-.182 3.527-2.029 7.507-1.73h.002c4.302.321 5.71-.049 9.155 2.484z"/><path d="m558.527 59.332c.045.608.342 1.17.819 1.549.478.379 1.092.54 1.695.445 0 0 5.968-.942 11.296-3.518 5.483-2.51 6.025-5.345 6.078-5.931.123-.598.413-3.883-7.597-5.115-3.229-.546-10.94-.392-10.94-.392-.597.013-1.162.27-1.564.712s-.605 1.03-.562 1.625zm3.742-8.631c2.347-.009 5.923.038 7.822.359.022.004.043.007.065.01 1.307.201 2.443.584 3.206.892-.614.556-1.582 1.307-2.839 1.882-.028.013-.056.026-.084.039-2.779 1.344-5.753 2.189-7.745 2.658z"/><path d="m37.105 8.712h7.742v17.122h-7.742z"/><path d="m87.895 8.743v-2.547h-4.195v-3.462h-7.748l.006 3.465-4.214.003v2.541h4.211l-.006 17.091h7.757l-.006-17.091z"/><path d="m24.721 18.042-11.101-17.956h-8.02l-.003 25.748h7.973v-17.956l11.157 17.956h7.945v-25.748h-7.958z"/><path d="m125.905 7.922c-2.563.072-4.694 1.169-6.179 2.582-.006-.423 0-1.799 0-1.799l-7.682.003-.003 17.122h7.685s-.006-10.517-.006-11.247c0-1.491 1.567-3.152 3.675-3.152 2.112 0 3.537 1.661 3.537 3.152v11.247h7.695s-.003-8.111 0-9.317c.044-6.78-5.831-8.675-8.722-8.591z"/><path d="m62.978 7.922c-2.56.072-4.693 1.169-6.175 2.582-.007-.423 0-1.799 0-1.799l-7.695.003.006 17.122h7.689s-.007-10.517-.007-11.247c0-1.491 1.567-3.152 3.675-3.152 2.109 0 3.538 1.661 3.538 3.152v11.247h7.694s-.009-8.111 0-9.317c.041-6.78-5.833-8.675-8.725-8.591z"/><path d="m172.797 7.54c-6.251 0-11.317 4.308-11.317 9.615 0 5.311 5.066 9.615 11.317 9.615 6.25 0 11.316-4.304 11.316-9.615 0-5.307-5.066-9.615-11.316-9.615zm3.104 13.221c0 2.729-1.613 3.854-3.164 3.854-1.554 0-3.174-1.125-3.174-3.854 0-1.037.003-3.694.003-3.694s.004-2.531.004-3.571c0-2.713 1.622-3.832 3.164-3.832 1.548 0 3.164 1.119 3.164 3.832 0 1.04 0 2.957.01 3.647 0 .04-.007 2.587-.007 3.618z"/><path d="m151.317 9.558c-1.235-.696-2.544-1.366-4.38-1.526-5.58-.492-9.847 4.442-9.847 8.963 0 5.959 4.602 8.165 5.297 8.491 2.607 1.212 5.95 1.215 8.914-.646 0 .16.003.99.003.99h7.654v-25.744h-7.641zm.056 7.625s.003 1.94.003 3.039c0 2.645-1.833 3.337-3.039 3.337-1.228 0-3.033-.692-3.033-3.337 0-.908.003-3.045.003-3.045s-.003-2.174-.003-3.052c0-2.65 1.805-3.324 3.036-3.324 1.203 0 3.033.674 3.033 3.324z"/><path d="m109.697 17.343c0-5.307-5.128-9.706-11.426-9.706-6.294 0-11.401 4.302-11.401 9.612 0 5.307 5.107 9.612 11.401 9.612 5.229 0 9.638-2.979 10.985-7.024l-7.717.006s.006.075.006 1.037c0 3.133-2.058 3.829-3.205 3.829-1.14 0-3.236-.696-3.236-3.829 0-.936.006-3.534.006-3.534s14.587.006 14.587-.003zm-14.079-6.022c.604-1.055 1.717-1.56 2.722-1.563 1.009.003 2.121.508 2.723 1.563.495.856.517 1.858.507 3.356h-6.463c-.013-1.498.019-2.5.511-3.356z"/><path d="m37.087.077h7.76v5.263h-7.76z"/></g></svg>