<?xml version="1.0" encoding="UTF-8" standalone="no"?><!DOCTYPE svg PUBLIC "-//W3C//DTD SVG 1.1//EN" "http://www.w3.org/Graphics/SVG/1.1/DTD/svg11.dtd"><svg width="100%" height="100%" viewBox="0 0 600 139" version="1.1" xmlns="http://www.w3.org/2000/svg" xmlns:xlink="http://www.w3.org/1999/xlink" xml:space="preserve" xmlns:serif="http://www.serif.com/" style="fill-rule:evenodd;clip-rule:evenodd;stroke-linejoin:round;stroke-miterlimit:2;"><g id="nintendo_new3ds"><path d="M337.883,131.884c-0,0.747 -0.611,1.352 -1.349,1.352l-25.709,-0c-0.75,-0 -1.342,-0.605 -1.342,-1.352l-0,-18.59c-0,-0.738 0.592,-1.336 1.342,-1.336l25.709,-0c0.738,-0 1.349,0.598 1.349,1.336l-0,18.59Zm-1.113,-25.514l-26.18,0c-3.793,0 -6.872,3.101 -6.872,6.884l0,18.679c0,3.771 3.079,6.878 6.872,6.878l26.18,-0c3.795,-0 6.877,-3.107 6.877,-6.878l0,-18.679c0,-3.783 -3.082,-6.884 -6.877,-6.884" style="fill:#fff;fill-rule:nonzero;"/><path d="M36.532,78.438l0,24.034l-6.006,0l0,-32.446l5.129,-0l24.323,23.622l-0,-23.622l5.931,-0l0,32.446l-4.694,0l-24.683,-24.034Z" style="fill:#fff;fill-rule:nonzero;"/><path d="M96.747,78.438l-0,24.034l-6.012,0l-0,-32.446l5.128,-0l24.317,23.622l-0,-23.622l5.935,-0l-0,32.446l-4.689,0l-24.679,-24.034Z" style="fill:#fff;fill-rule:nonzero;"/><path d="M221.519,78.438l-0,24.034l-6.003,0l-0,-32.446l5.125,-0l24.317,23.622l-0,-23.622l5.938,-0l-0,32.446l-4.685,0l-24.692,-24.034Z" style="fill:#fff;fill-rule:nonzero;"/><path d="M75.308,70.026l6.006,-0l0,32.446l-6.006,0l0,-32.446Z" style="fill:#fff;fill-rule:nonzero;"/><path d="M132.917,70.026l35.191,-0l-0,5.587l-14.475,0l0,26.859l-6.239,0l0,-26.859l-14.477,0l-0,-5.587Z" style="fill:#fff;fill-rule:nonzero;"/><path d="M174.92,70.026l31.681,-0l0,5.587l-25.734,0l0,7.275l19.911,-0l-0,5.572l-19.911,-0l0,8.419l25.734,-0l0,5.593l-31.681,0l0,-32.446Z" style="fill:#fff;fill-rule:nonzero;"/><path d="M284.279,96.879l-18.44,-0l-0,-21.266l18.44,0c5.768,0 7.824,5.727 7.824,10.624c-0,4.914 -2.056,10.642 -7.824,10.642m9.858,-22.106c-2.345,-3.101 -5.83,-4.747 -10.025,-4.747l-24.062,-0l-0,32.446l24.062,0c4.195,0 7.68,-1.643 10.025,-4.738c2.198,-2.883 3.361,-6.855 3.361,-11.497c-0,-4.617 -1.163,-8.599 -3.361,-11.464" style="fill:#fff;fill-rule:nonzero;"/><path d="M337.883,95.545c-0,0.732 -0.611,1.34 -1.349,1.34l-25.709,-0c-0.75,-0 -1.342,-0.608 -1.342,-1.34l-0,-18.598c-0,-0.732 0.592,-1.328 1.342,-1.328l25.709,0c0.738,0 1.349,0.596 1.349,1.328l-0,18.598Zm-1.113,-25.519l-26.18,-0c-3.793,-0 -6.872,3.104 -6.872,6.883l0,18.689c0,3.764 3.079,6.874 6.872,6.874l26.18,0c3.795,0 6.877,-3.11 6.877,-6.874l0,-18.689c0,-3.779 -3.082,-6.883 -6.877,-6.883" style="fill:#fff;fill-rule:nonzero;"/><path d="M531.906,125.195c6.245,2.459 19.38,4.444 29.644,4.444c11.228,-0 15.892,-3.849 15.892,-8.683c-0,-4.35 -4.335,-6.893 -16.742,-11.432c-16.57,-6.134 -28.738,-10.971 -28.738,-21.855c0,-11.277 14.636,-17.91 36.959,-17.91c11.969,-0 16.087,0.763 23.699,2.152l0.053,10.704c-7.476,-1.426 -14.09,-3.854 -24.382,-3.854c-11.023,-0 -15.733,3.491 -15.733,7.104c-0,5.237 7.246,7.733 19.944,12.257c17.662,6.326 27.498,11.206 27.498,21.867c-0,10.974 -12.31,18.89 -40.075,18.89c-11.408,-0 -19.271,-0.747 -28.019,-2.152l0,-11.532Z" style="fill:#fff;fill-rule:nonzero;"/><path d="M472.811,79.22l-13.218,-0l-0,50.012l13.218,0c20.295,0 33.077,-8.663 33.077,-24.908c-0,-16.227 -12.782,-25.104 -33.077,-25.104m35.473,54.679c-6.536,2.949 -18.899,4.84 -29.708,4.84l-41.309,0l-0,-68.834l41.309,-0c10.809,-0 23.172,1.91 29.715,4.859c15.904,7.178 21.107,18.673 21.107,29.56c-0,10.905 -5.154,22.381 -21.114,29.575" style="fill:#fff;fill-rule:nonzero;"/><path d="M408.321,101.071c-0,-0 19.268,-3.076 19.268,-15.07c0,-11.733 -20.521,-16.534 -42.351,-16.534c-19.696,0 -32.651,2.41 -32.651,2.41l-0,10.657c8.943,-2.164 17.498,-4.009 29.157,-4.009c12.508,-0 22.053,3.73 22.053,9.011c-0,6.353 -9.436,9.981 -29.768,9.981l-9.34,0l0,9.591l8.686,0c21.401,0 33.578,3.216 33.578,11.076c0,7.011 -10.877,11.269 -24.434,11.269c-11.83,-0 -22.642,-2.512 -31.421,-4.937l0,11.482c4.211,0.723 15.399,2.965 36.218,2.965c23.076,-0 43.138,-7.414 43.138,-20.49c0,-10.962 -13.901,-17.402 -22.133,-17.402" style="fill:#fff;fill-rule:nonzero;"/><path d="M15.493,26.838l-14.267,-1.883c-0.428,-0.058 -0.824,0.249 -0.874,0.676c-0.465,3.982 -0.468,8.004 -0.016,11.979c0.05,0.434 0.447,0.738 0.878,0.682l14.267,-1.864c0.422,-0.052 0.713,-0.434 0.666,-0.855c-0.282,-2.611 -0.279,-5.253 0.01,-7.876c0.046,-0.416 -0.242,-0.8 -0.664,-0.859" style="fill:#fff;fill-rule:nonzero;"/><path d="M22.732,9.684l-11.417,-8.763c-0.342,-0.263 -0.835,-0.201 -1.092,0.143c-2.397,3.221 -4.412,6.704 -6.003,10.375c-0.174,0.394 0.019,0.856 0.419,1.02l13.286,5.526c0.391,0.164 0.838,-0.019 1.005,-0.403c1.064,-2.41 2.388,-4.698 3.947,-6.819c0.252,-0.341 0.19,-0.819 -0.145,-1.079" style="fill:#fff;fill-rule:nonzero;"/><path d="M17.802,45.315l-13.302,5.498c-0.394,0.164 -0.59,0.626 -0.416,1.023c1.588,3.684 3.597,7.169 5.982,10.388c0.254,0.344 0.75,0.409 1.091,0.146l11.433,-8.745c0.335,-0.254 0.4,-0.734 0.149,-1.075c-1.554,-2.121 -2.872,-4.413 -3.932,-6.822c-0.168,-0.391 -0.614,-0.577 -1.005,-0.413" style="fill:#fff;fill-rule:nonzero;"/><path d="M124.188,41.839l-11.789,0c-0.732,0 -1.154,0.171 -1.362,0.289c-0.049,0.034 -0.099,0.068 -0.152,0.102c-0.003,0.003 -0.012,0.009 -0.012,0.009c-1.823,1.213 -4.419,2.314 -7.758,2.314c-8.906,-0 -12.23,-7.371 -12.23,-12.884c0,-5.883 3.56,-12.878 12.286,-12.878c6.341,0 10.245,3.944 11.243,7.836c0.112,0.446 0.223,0.88 -0.236,0.88l-17.023,0c-0.49,0 -0.89,0.397 -0.89,0.887l0,7.318c0,0.493 0.4,0.893 0.89,0.893l23.51,0c4.862,0 6.146,-1.525 6.146,-6.09c0,-13.228 -10.896,-22.679 -23.457,-22.679c-12.562,-0 -23.734,9.619 -23.734,22.344c-0,13.985 7.842,25.328 23.789,25.328c13.287,-0 19.191,-7.904 21.628,-12.757c0.093,-0.208 0.332,-0.912 -0.849,-0.912" style="fill:#fff;fill-rule:nonzero;"/><path d="M31.171,54.329c-0.35,0 -0.635,-0.288 -0.635,-0.635l-0,-26.035c-0,-9.882 8.254,-19.764 21.665,-19.764c13.411,-0 21.668,9.882 21.668,19.764l0,26.035c0,0.347 -0.288,0.635 -0.639,0.635l-10.66,0c-0.354,0 -0.639,-0.288 -0.639,-0.635l0,-24.518c0,-4.664 -3.389,-9.346 -9.73,-9.346c-6.344,-0 -9.734,4.682 -9.734,9.346l0,24.518c0,0.347 -0.285,0.635 -0.635,0.635l-10.661,0Z" style="fill:#fff;fill-rule:nonzero;"/><path d="M168.306,9.014c0.357,0 0.639,0.285 0.639,0.636l-0,27.005c-0,4.66 2.04,6.859 5.321,6.859c3.277,-0 5.693,-2.199 5.693,-6.859l-0,-27.005c-0,-0.351 0.282,-0.636 0.636,-0.636l11.221,0c0.351,0 0.636,0.285 0.636,0.636l0,27.907c0,11.002 -7.371,17.889 -16.323,17.889c-3.789,-0 -9.609,-0.974 -13.804,-6.379c-3.448,5.405 -9.027,6.379 -13.058,6.379c-8.949,-0 -16.322,-6.887 -16.322,-17.889l-0,-27.907c-0,-0.351 0.285,-0.636 0.638,-0.636l11.222,0c0.35,0 0.633,0.285 0.633,0.636l-0,27.005c-0,4.66 2.549,6.859 5.693,6.859c3.147,-0 5.321,-2.199 5.321,-6.859l-0,-27.005c-0,-0.351 0.288,-0.636 0.638,-0.636l11.216,0Z" style="fill:#fff;fill-rule:nonzero;"/><path d="M209.618,36.472l14.267,1.882c0.428,0.059 0.828,-0.242 0.877,-0.673c0.466,-3.978 0.472,-8.003 0.013,-11.978c-0.05,-0.428 -0.444,-0.735 -0.875,-0.676l-14.266,1.857c-0.422,0.056 -0.714,0.434 -0.667,0.856c0.285,2.611 0.282,5.256 -0.009,7.876c-0.047,0.419 0.241,0.803 0.66,0.856" style="fill:#fff;fill-rule:nonzero;"/><path d="M202.387,53.622l11.411,8.769c0.347,0.261 0.837,0.199 1.095,-0.148c2.396,-3.216 4.403,-6.692 6,-10.373c0.173,-0.39 -0.019,-0.855 -0.416,-1.017l-13.287,-5.528c-0.391,-0.162 -0.834,0.018 -1.008,0.409c-1.057,2.409 -2.384,4.691 -3.947,6.816c-0.248,0.337 -0.189,0.818 0.152,1.072" style="fill:#fff;fill-rule:nonzero;"/><path d="M207.308,18l13.302,-5.504c0.404,-0.161 0.593,-0.62 0.419,-1.02c-1.588,-3.68 -3.594,-7.166 -5.978,-10.381c-0.258,-0.348 -0.751,-0.41 -1.092,-0.149l-11.432,8.747c-0.332,0.255 -0.404,0.732 -0.146,1.073c1.547,2.118 2.865,4.41 3.925,6.825c0.174,0.388 0.617,0.574 1.002,0.409" style="fill:#fff;fill-rule:nonzero;"/></g></svg>