<svg clip-rule="evenodd" fill-rule="evenodd" stroke-linejoin="round" stroke-miterlimit="2" viewBox="0 0 600 641" xmlns="http://www.w3.org/2000/svg"><g fill="#fff"><path d="m449.049 559.532c10.782 0 20.613 5.708 26.004 14.905l15.539-13.319c-9.514-13.954-25.053-22.516-42.178-22.516-27.907 0-50.74 22.833-50.74 50.74s22.833 50.74 50.74 50.74c17.125 0 32.664-8.246 42.178-22.516l-15.539-13.32c-5.391 8.88-15.222 14.905-26.004 14.905-16.491 0-30.127-13.319-30.127-29.492 0-16.174 13.319-30.127 30.127-30.127z"/><path d="m44.715 578.877h-.635c-11.733-1.903-21.564-3.806-22.516-10.466 0-.951 0-3.171 1.586-5.391 3.171-3.805 10.465-5.391 21.247-5.391 12.368 0 24.736 4.757 29.176 6.66l6.66-16.491c-4.757-1.902-19.979-7.294-36.787-7.294-20.613 0-42.495 10.148-42.495 28.542 0 14.905 10.465 22.833 37.738 27.589 19.345 3.172 29.81 5.074 29.493 13.32-.317 4.439-3.806 12.05-25.37 12.05-17.442 0-29.81-6.342-33.933-8.879l-8.879 16.173c4.757 2.537 20.93 10.148 41.543 10.148 30.127 0 46.301-10.465 46.301-30.444.317-14.27-6.66-23.784-43.129-30.126z"/><path d="m257.822 541.456h21.247v95.137h-21.247z"/><path d="m576.216 578.877h-44.398v-37.421h-19.662v95.137h19.662v-38.055h44.398v38.055h19.661v-95.137h-19.661z"/><path d="m383.087 561.435v-20.296h-80.55v20.296h30.127v74.841h20.613v-74.841z"/><path d="m195.349 610.272-20.296-69.133h-16.808l-19.979 68.816-18.393-68.816h-20.613l26.956 95.137h22.833l17.759-62.791 17.759 62.791h22.833l26.955-95.137h-20.613z"/><path d="m337.104 506.255h-28.859v-11.734h26.639v-9.196h-26.639v-10.783h28.859v-9.196h-39.324v50.423h39.324z"/><path d="m14.905 481.836 25.053 33.616h9.831v-50.423h-10.148v33.298l-24.736-32.981h-10.148v50.423h10.148z"/><path d="m147.463 481.836 25.053 33.616h9.831v-50.423h-10.148v33.298l-24.736-32.981h-10.148v50.423h10.148z"/><path d="m423.996 515.769v-50.74h-10.148v33.298l-24.736-32.981h-10.148v50.423h10.148v-33.616l25.053 33.616z"/><path d="m88.161 465.029h11.099v50.423h-11.099z"/><path d="m260.994 465.029h-42.812v10.782h16.173v39.641h10.782v-39.641h15.857z"/><path d="m573.044 463.443c-14.904 0-26.955 12.051-26.955 26.956s12.051 26.955 26.955 26.955c14.905 0 26.956-12.05 26.956-26.955-.317-14.905-12.368-26.956-26.956-26.956zm0 42.495c-8.562 0-15.539-6.977-15.539-15.539 0-8.563 6.977-15.539 15.539-15.539 8.563 0 15.54 6.976 15.54 15.539 0 8.562-6.977 15.539-15.54 15.539z"/><path d="m487.421 465.029h-20.931v50.423h20.931c14.27 0 26.004-11.417 26.004-25.053 0-13.954-11.734-25.37-26.004-25.37zm.634 39.957h-11.099v-29.175h11.099c7.928 0 14.588 6.66 14.588 14.588s-6.66 14.587-14.588 14.587z"/><path d="m292.072.124h-88.161c-57.082 0-103.382 46.3-103.382 103.383v196.617c0 57.082 46.3 103.383 103.382 103.383h88.161c1.586 0 2.854-1.269 2.854-2.855v-397.674c0-1.586-1.268-2.854-2.854-2.854zm-29.493 371.036h-58.668c-19.027 0-36.786-7.294-50.106-20.93-13.319-13.32-20.93-31.079-20.93-50.106v-196.617c0-19.028 7.294-36.787 20.93-50.106 13.32-13.319 31.079-20.93 50.106-20.93h58.668z"/><path d="m338.372 403.507h62.157c57.082 0 103.382-46.301 103.382-103.383v-196.617c0-57.083-46.3-103.383-103.382-103.383h-62.474c-1.586 0-2.537 1.268-2.537 2.537v397.991c0 1.586 1.268 2.855 2.854 2.855zm76.744-222.305c22.516 0 40.909 18.393 40.909 40.909s-18.393 40.909-40.909 40.909-40.909-18.393-40.909-40.909c.317-22.516 18.393-40.909 40.909-40.909z"/><path d="m163.319 121.266c0 20.93 17.125 38.054 38.055 38.054s38.055-17.124 38.055-38.054c0-20.931-17.125-38.055-38.055-38.055-21.247 0-38.055 16.807-38.055 38.055z"/></g></svg>