<?xml version="1.0" encoding="UTF-8" standalone="no"?><!DOCTYPE svg PUBLIC "-//W3C//DTD SVG 1.1//EN" "http://www.w3.org/Graphics/SVG/1.1/DTD/svg11.dtd"><svg width="100%" height="100%" viewBox="0 0 600 70" version="1.1" xmlns="http://www.w3.org/2000/svg" xmlns:xlink="http://www.w3.org/1999/xlink" xml:space="preserve" xmlns:serif="http://www.serif.com/" style="fill-rule:evenodd;clip-rule:evenodd;stroke-linejoin:round;stroke-miterlimit:2;"><g id="nintendo_gameboy_color_alt"><path id="path5256" d="M462.541,27.943c-1.262,-3.823 -4.594,-7.46 -4.594,-7.46c-0,-0 -5.007,-6.505 -14.842,-8.723c-8.42,-1.761 -15.037,1.952 -15.037,1.952c-0,0 -6.008,2.408 -10.523,7.385c-7.192,6.924 -9.259,17.027 -9.259,17.027c-0,-0 -2.756,8.799 1.609,15.765l4.744,5.738c6.695,5.587 13.85,6.158 13.85,6.158c0,0 5.779,1.301 12.514,-0.459c5.887,-1.187 10.175,-4.095 10.175,-4.095c-0,0 9.76,-5.394 12.434,-16.413l-1.071,-16.875Zm-15.195,18.327c0,-0 -3.901,6.812 -12.469,6.006c-10.065,-1.032 -11.248,-9.869 -11.248,-9.869c0,-0 -1.381,-6.505 4.819,-12.169c6.277,-5.278 12.819,-4.475 12.819,-4.475c0,-0 4.397,0.42 6.659,7.691c2.905,9.258 -0.58,12.816 -0.58,12.816" style="fill:#fff;fill-rule:nonzero;"/><path id="path5262" d="M495.059,46.387c-3.221,-0.711 -8.379,0.609 -8.379,0.609c0,-0 -7.192,2.638 -8.302,2.601c-0.419,-0.61 -1.337,-12.358 -1.071,-17.063c0.154,-8.304 -0.539,-15.074 -0.539,-15.074c0,-0 -0.342,-7.999 -4.628,-12.741c-5.049,-5.092 -8.574,-2.908 -10.6,-1.686c-4.859,4.362 -2.601,9.679 -2.601,9.679l2.529,7.157c-0,-0 1.222,3.062 1.071,8.073l1.071,16.874c-0,2.257 1.838,17.445 1.838,17.445c0,0 0.186,4.937 4.933,5.817c4.861,0.803 9.64,-1.609 11.668,-2.565c2.029,-0.953 4.707,-1.796 4.707,-1.796c-0,0 2.22,-0.498 4.438,-0.687c5.203,-0.5 7.078,-1.416 7.078,-1.416c0,-0 2.012,-0.303 3.37,-2.222c1.353,-1.916 2.991,-10.903 -6.583,-13.005" style="fill:#fff;fill-rule:nonzero;"/><path id="path5264" d="M409.892,53.886c-3.417,-1.026 -7.343,-0.346 -7.343,-0.346c0,-0 -11.096,1.069 -16.875,-0.155c-8.95,-1.566 -8.65,-11.21 -8.65,-11.21c-0,0 -0.3,-6.391 5.093,-15.037c6.656,-10.676 14.002,-12.588 14.002,-12.588c0,-0 1.834,-0.687 3.556,0.229c1.072,6.196 7.078,6.158 7.078,6.158c0,-0 8.648,0.576 8.224,-9.905c-0.992,-8.613 -9.294,-9.797 -12.778,-10.603c-10.439,-1.874 -17.218,3.713 -17.218,3.713c0,-0 -7,3.787 -15.378,16.987c-5.706,8.186 -6.393,14.617 -6.393,14.617c0,-0 -0.687,1.53 -0.419,8.343c-0.153,5.316 1.838,9.182 1.838,9.182c0,-0 3.021,9.149 12.585,12.898c5.818,2.408 14.314,2.371 14.314,2.371c-0,0 8.224,-0.114 14.534,-0.46c3.445,0.267 5.093,-1.531 5.093,-1.531c-0,-0 3.861,-2.525 3.481,-6.925c-0,-0 -0.75,-4.546 -4.744,-5.738" style="fill:#fff;fill-rule:nonzero;"/><path id="path5266" d="M161.701,66.179l-12.654,0l-1.691,-38.112l-16.452,38.112l-8.44,0l-7.029,-34.456l-10.972,34.456l-21.517,0l-3.235,-18.418l-14.629,0l-8.297,18.418l-13.224,0l27.149,-61.595l15.609,0l8.296,49.784l16.177,-49.785l12.512,0l6.19,33.754l14.35,-33.754l15.189,0l2.668,61.596Zm-83.897,-30.381l-2.317,-11.949l-5.344,11.949l7.661,-0" style="fill:#fff;fill-rule:nonzero;"/><path id="path5268" d="M197.985,66.179l2.114,-13.216l-22.083,-0l1.75,-10.97l19.207,0l2.11,-13.224l-19.411,0l1.687,-10.97l22.078,-0l2.112,-13.215l-35.017,0l-9.848,61.595l35.301,0" style="fill:#fff;fill-rule:nonzero;"/><path id="path5270" d="M362.393,4.583l-14.768,0l-12.517,20.109l-7.872,-20.109l-14.486,0l14.906,32.483l-4.593,29.112l12.661,0l3.885,-25.733l22.784,-35.862" style="fill:#fff;fill-rule:nonzero;"/><path id="path5272" d="M268.082,30.084c3.931,-17.032 18.488,-28.209 32.509,-24.967c14.029,3.241 22.213,19.67 18.286,36.701c-3.931,17.028 -18.486,28.207 -32.513,24.965c-14.026,-3.241 -22.209,-19.674 -18.282,-36.699Zm19.155,24.366c6.696,2.995 14.899,-2.88 18.311,-13.122c3.411,-10.249 0.756,-20.984 -5.941,-23.98c-6.698,-2.997 -14.89,2.881 -18.307,13.127c-3.416,10.248 -0.755,20.977 5.937,23.975" style="fill:#fff;fill-rule:nonzero;"/><path id="path5276" d="M237.696,17.908l8.24,-0c8.932,-0 7.12,11.442 -1.392,11.442l-8.798,0l1.95,-11.442Zm-3.904,24.001l10.606,0c10.053,0 9.771,12.282 -1.394,12.282l-11.166,0l1.954,-12.282Zm-6.98,-36.987l-9.767,61.137l28.472,-0c11.722,-0 28.867,-17.279 13.262,-31.403c16.047,-16.608 0.134,-29.586 -8.377,-29.734c-6.838,-0.11 -23.724,-0 -23.724,-0l0.134,-0" style="fill:#fff;fill-rule:nonzero;"/><path id="path5274" d="M16.561,10.066c-12.061,7.465 -17.86,18.842 -16.316,34.314c1.796,17.946 25.036,29.252 44.724,17.863c1.724,-0.995 1.05,-0.838 1.688,-1.408l3.94,-25.036l-23.489,-0l-1.801,11.532l9.817,0l-1.127,6.192c-5.624,2.249 -15.189,1.404 -19.266,-5.908c-2.582,-4.631 -4.977,-14.967 5.909,-24.473c8.857,-7.735 24.189,-9.136 33.052,-5.059c-0,0 1.124,-6.467 1.965,-12.519c-17.016,-5.905 -30.238,-0.981 -39.096,4.502" style="fill:#fff;fill-rule:nonzero;"/><path id="path5258" d="M548.896,25.915c-6.694,-10.942 -18.479,-12.588 -18.479,-12.588c0,0 -3.75,-1.264 -11.782,-0.194c-15.077,2.872 -20.32,14.465 -20.32,14.465c-0,-0 -5.397,8.492 -3.254,18.785l6.587,13.009c4.858,4.553 6.847,4.553 7.152,4.824c6.43,2.907 13.89,1.223 13.89,1.223c0,0 9.414,-0.917 18.023,-7.613c6.885,-5.05 9.87,-12.474 9.87,-12.474l0.913,-9.959l-2.6,-9.478Zm-18.327,22.344c-10.827,6.505 -17.64,-0.612 -17.64,-0.612c0,-0 -3.021,-1.99 -3.672,-8.036c-0.464,-7.001 6.504,-10.636 6.504,-10.636c0,-0 3.674,-2.259 8.266,-1.914c4.592,0.343 6.041,0.037 9.757,2.794c3.518,3.177 3.288,5.51 3.288,5.51c-0,-0 1.265,7.883 -6.503,12.894" style="fill:#fff;fill-rule:nonzero;"/><path id="path5260" d="M550.58,45.352c0,0 0.231,6.121 -0.728,7.614c-1.3,2.793 -1.108,5.51 -1.108,5.51c0,-0 -0.884,8.264 8.688,9.638c6.577,-0.037 7.378,-5.51 7.494,-7.844c0.381,-1.833 0.23,-10.369 0.23,-10.369l8.533,6.965c0,-0 6.198,5.204 9.837,8.225c3.79,2.983 4.741,3.519 4.741,3.519c-0,0 0.807,0.954 3.71,0.611c2.34,0.04 4.481,-2.066 4.481,-2.066c0,-0 2.713,-1.984 3.401,-5.468c0.842,-4.133 -2.37,-6.161 -2.37,-6.161c-0,-0 -11.859,-9.566 -19.895,-16.148c5.395,-2.945 7.997,-4.973 7.997,-4.973c0,-0 7.502,-4.972 9.106,-12.59c2.221,-8.38 -4.093,-11.667 -4.093,-11.667c0,-0 -3.943,-2.832 -7.27,-4.325c-8.382,-4.094 -16.185,-3.253 -16.185,-3.253c-0,0 -11.095,-0.764 -18.326,8.153c-3.328,4.321 -1.26,9.986 -1.26,9.986c0,-0 0.411,0.907 1.337,5.203c1.855,8.643 1.68,19.44 1.68,19.44Zm14.54,-16.989l-0.728,-9.986c-0,0 6.999,-0.154 9.909,0.343c5.742,0.88 5.433,2.49 5.433,2.49c0,-0 -0.191,2.026 -4.554,4.017c-4.741,2.297 -10.06,3.136 -10.06,3.136" style="fill:#fff;fill-rule:nonzero;"/></g></svg>