<svg clip-rule="evenodd" fill-rule="evenodd" stroke-linejoin="round" stroke-miterlimit="2" viewBox="0 0 600 120" xmlns="http://www.w3.org/2000/svg"><g fill="#fff" fill-rule="nonzero"><path d="m210.82 51.027c7.554 0 12.226 3.303 16.664 8.585 1.619-1.534 3.367-2.909 5.237-4.08 4.681-2.925 9.863-4.413 15.023-4.435l70.144-.009-4.663 7.335 88.211-.073 8.024 13.846 7.249-13.691 58.552.025 14.535 11.391v-11.391h110.204v52.662h-101.704l-14.779-11.492v11.498l-82.386-.006v.012l-5.6-9.067c-4.517 5.072-12.611 9.061-25.878 9.061 0 0-79.048-.028-80.759.253l-1.084 7.185h-28.272l.647-4.086c-.281.186-.559.387-.845.561-6.515 4.077-13.999 5.413-21.06 3.788-5.413-1.251-10.095-4.139-13.757-8.119-4.749 4.688-11.154 7.759-17.247 7.759l-138.83.097-2.223-12.666-5.707 12.666h-23.145c-7.298 1.239-14.642.165-21.169-3.181-9.052-4.626-15.018-13.016-15.957-22.431-1.571-15.671 4.434-28.181 17.351-36.172 12.413-7.682 25.591-9.189 39.181-4.477l2.501.872.952-2.159h25.936l1.961 11.776 3.827-11.776zm40.843 9.162c-11.333-2.617-23.096 6.414-26.268 20.178-3.181 13.758 3.437 27.031 14.77 29.65 11.334 2.62 23.097-6.41 26.272-20.171 3.175-13.758-3.44-27.04-14.774-29.657zm-126.663-.43-11.59 27.269-5.002-27.269h-10.113l-13.069 40.234-6.703-40.234h-12.615l-19.101 43.347 2.849-18.122h-18.976l-1.452 9.327h7.929l-.908 4.998c-4.548 1.812-12.276 1.132-15.57-4.776-2.086-3.742-4.023-12.102 4.77-19.775 7.158-6.252 19.547-7.384 26.705-4.09 0 0 .908-5.23 1.592-10.113-13.749-4.779-24.433-.796-31.588 3.638-9.747 6.033-14.438 15.225-13.184 27.724 1.445 14.505 20.226 23.639 36.134 14.435.147-.086.257-.15.363-.214l-1.497 3.395h10.68l6.707-14.887h11.818l2.614 14.887h17.387l8.86-27.843 5.688 27.843h6.82l13.297-30.795 1.357 30.795h10.229l-2.156-49.774zm154.551 16.249-6.362-16.249h-11.708l12.044 26.25-3.706 23.524h10.229l3.142-20.794 18.409-28.98h-11.934zm-139.324 33.525h28.523l1.711-10.681h-17.851l1.418-8.866h15.518l1.708-10.681h-15.686l1.364-8.866h17.841l1.705-10.68h-28.296zm70.879-49.494c-5.526-.091-19.174 0-19.174 0h.113l-7.893 49.39h23.005c9.476 0 23.328-13.962 10.717-25.363 12.968-13.425.113-23.911-6.768-24.027zm221.713 7.158h-10.699l-.293.528-12.26 22.267-13.002-22.285-.296-.51h-11.498l.943 1.553 2.211 3.647c-3.544-3.373-8.979-5.2-16.045-5.2h-23.134v28.947l-17.134-28.419-.299-.497h-8.847l-.299.503-19.492 32.841-.915 1.543h7.662v.012h17.033v-7.713h-10.022l10.034-18.088 14.167 25.271.293.518h11.415l-.018-.033h17.537c15.118 0 22.788-5.905 22.788-17.555 0-2.022-.262-3.889-.765-5.588l13.724 22.652.299.491h6.682l.293-.513 19.046-32.838zm32.365 0v28.974l-17.159-28.461-.301-.497h-8.848l-.296.5-19.492 32.841-.915 1.546h10.394l.025-.037h14.301v-7.713h-10.025l10.015-18.046 14.164 25.271.293.525h11.418l-.009-.018h5.771v-21.035l26.131 20.812.277.223h6.869v-34.885h-9.229v20.749l-26.226-20.532-.278-.217zm88.571.01v34.875h37.666v-8.134h-27.571v-6.112h15.841v-7.698h-15.841v-5.038h27.183v-7.893zm-12.892 0h-20.452c-7.176 0-9.595 2.22-9.595 8.798v17.284c0 6.563 2.419 8.787 9.595 8.787h20.452c7.186 0 9.613-2.224 9.613-8.787v-4.898l-1.018-.006-8.049-.019h-1.031v5.371h-19.488v-18.415h19.488v4.846l1.025.007 8.046.027 1.027.003v-4.2c0-6.66-2.336-8.798-9.613-8.798zm-285.198 22.239c-2.76 8.284-9.385 13.032-14.795 10.611-5.408-2.422-7.558-11.093-4.795-19.373 2.757-8.284 9.379-13.029 14.789-10.608 5.411 2.416 7.561 11.093 4.801 19.37zm-50.54 10.406h-9.021l1.583-9.93h8.57c8.119 0 7.893 9.93-1.132 9.93zm163.022-5.904h-9.309v-18.836h13.118c7.094 0 10.4 2.87 10.4 9.024 0 7.329-3.587 9.812-14.209 9.812zm-302.696-8.964 4.319-9.656 1.872 9.656zm140.916-5.209h-7.106l1.579-9.25h6.655c7.219 0 5.752 9.25-1.128 9.25z"/><path d="m154.757 39.219h-131.188c-11.209.038-18.021-7.485-18.021-16.713 0-9.231 6.856-16.693 18.021-16.714h131.188c11.165.021 18.018 7.483 18.018 16.714 0 9.228-6.81 16.751-18.018 16.713m.063-38.879h-131.315c-14.061-.033-23.505 10.077-23.505 22.196 0 12.117 9.421 22.109 23.525 22.114h131.275c14.102-.005 23.525-9.997 23.525-22.114 0-12.119-9.446-22.229-23.505-22.196m-64.053 20.792c.49-.855 1.391-1.264 2.205-1.266.818.002 1.719.411 2.206 1.266.401.693.419 1.505.411 2.719h-5.236c-.01-1.214.015-2.026.414-2.719m11.406 4.879c0-4.3-4.155-7.863-9.257-7.863-5.099 0-9.236 3.484-9.236 7.786 0 4.3 4.137 7.787 9.236 7.787 4.236 0 7.808-2.413 8.899-5.69l-6.251.005s.005.061.005.84c0 2.538-1.668 3.102-2.597 3.102-.924 0-2.622-.564-2.622-3.102 0-.759.006-2.863.006-2.863s11.817.005 11.817-.002m13.129-7.632c-2.076.058-3.802.946-5.005 2.091-.005-.343 0-1.457 0-1.457l-6.223.003-.003 13.87h6.226s-.005-8.52-.005-9.111c0-1.209 1.269-2.554 2.977-2.554 1.711 0 2.866 1.345 2.866 2.554v9.111h6.233s-.002-6.571 0-7.548c.036-5.492-4.723-7.028-7.066-6.959m-50.977 0c-2.074.058-3.802.946-5.003 2.091-.005-.343 0-1.457 0-1.457l-6.233.003.005 13.87h6.228s-.005-8.52-.005-9.111c0-1.209 1.269-2.554 2.978-2.554 1.708 0 2.865 1.345 2.865 2.554v9.111h6.234s-.008-6.571 0-7.548c.033-5.492-4.726-7.028-7.069-6.959m71.609 7.502s.003 1.571.003 2.462c0 2.142-1.485 2.703-2.462 2.703-.995 0-2.457-.561-2.457-2.703 0-.736.003-2.467.003-2.467s-.003-1.761-.003-2.472c0-2.147 1.462-2.693 2.459-2.693.975 0 2.457.546 2.457 2.693zm-.045-6.178c-1-.563-2.061-1.106-3.549-1.236-4.52-.398-7.977 3.599-7.977 7.262 0 4.827 3.729 6.614 4.292 6.878 2.112.982 4.82.985 7.221-.523 0 .13.002.802.002.802h6.201v-20.855h-6.19zm19.916 9.077c0 2.21-1.307 3.121-2.564 3.121-1.258 0-2.571-.911-2.571-3.121 0-.84.003-2.993.003-2.993s.002-2.051.002-2.893c0-2.198 1.315-3.104 2.564-3.104 1.254 0 2.563.906 2.563 3.104 0 .842 0 2.396.008 2.954 0 .033-.005 2.097-.005 2.932m-2.515-10.711c-5.064 0-9.168 3.49-9.168 7.789 0 4.302 4.104 7.79 9.168 7.79 5.063 0 9.167-3.488 9.167-7.79 0-4.299-4.104-7.789-9.167-7.789m-109.94-1.782h6.287v-4.264h-6.287zm.016 16.602h6.271v-13.871h-6.271zm41.144-13.845v-2.064h-3.398v-2.804h-6.277l.005 2.807-3.413.002v2.059h3.411l-.005 13.845h6.284l-.005-13.845zm-51.177 7.533-8.993-14.546h-6.497l-.003 20.858h6.46v-14.546l9.038 14.546h6.436v-20.858h-6.447z"/></g></svg>