<svg clip-rule="evenodd" fill-rule="evenodd" stroke-linejoin="round" stroke-miterlimit="2" viewBox="0 0 600 139" xmlns="http://www.w3.org/2000/svg"><g fill="#fff" fill-rule="nonzero"><path d="m337.883 131.884c0 .747-.611 1.352-1.349 1.352h-25.709c-.75 0-1.342-.605-1.342-1.352v-18.59c0-.738.592-1.336 1.342-1.336h25.709c.738 0 1.349.598 1.349 1.336zm-1.113-25.514h-26.18c-3.793 0-6.872 3.101-6.872 6.884v18.679c0 3.771 3.079 6.878 6.872 6.878h26.18c3.795 0 6.877-3.107 6.877-6.878v-18.679c0-3.783-3.082-6.884-6.877-6.884"/><path d="m36.532 78.438v24.034h-6.006v-32.446h5.129l24.323 23.622v-23.622h5.931v32.446h-4.694z"/><path d="m96.747 78.438v24.034h-6.012v-32.446h5.128l24.317 23.622v-23.622h5.935v32.446h-4.689z"/><path d="m221.519 78.438v24.034h-6.003v-32.446h5.125l24.317 23.622v-23.622h5.938v32.446h-4.685z"/><path d="m75.308 70.026h6.006v32.446h-6.006z"/><path d="m132.917 70.026h35.191v5.587h-14.475v26.859h-6.239v-26.859h-14.477z"/><path d="m174.92 70.026h31.681v5.587h-25.734v7.275h19.911v5.572h-19.911v8.419h25.734v5.593h-31.681z"/><path d="m284.279 96.879h-18.44v-21.266h18.44c5.768 0 7.824 5.727 7.824 10.624 0 4.914-2.056 10.642-7.824 10.642m9.858-22.106c-2.345-3.101-5.83-4.747-10.025-4.747h-24.062v32.446h24.062c4.195 0 7.68-1.643 10.025-4.738 2.198-2.883 3.361-6.855 3.361-11.497 0-4.617-1.163-8.599-3.361-11.464"/><path d="m337.883 95.545c0 .732-.611 1.34-1.349 1.34h-25.709c-.75 0-1.342-.608-1.342-1.34v-18.598c0-.732.592-1.328 1.342-1.328h25.709c.738 0 1.349.596 1.349 1.328zm-1.113-25.519h-26.18c-3.793 0-6.872 3.104-6.872 6.883v18.689c0 3.764 3.079 6.874 6.872 6.874h26.18c3.795 0 6.877-3.11 6.877-6.874v-18.689c0-3.779-3.082-6.883-6.877-6.883"/><path d="m531.906 125.195c6.245 2.459 19.38 4.444 29.644 4.444 11.228 0 15.892-3.849 15.892-8.683 0-4.35-4.335-6.893-16.742-11.432-16.57-6.134-28.738-10.971-28.738-21.855 0-11.277 14.636-17.91 36.959-17.91 11.969 0 16.087.763 23.699 2.152l.053 10.704c-7.476-1.426-14.09-3.854-24.382-3.854-11.023 0-15.733 3.491-15.733 7.104 0 5.237 7.246 7.733 19.944 12.257 17.662 6.326 27.498 11.206 27.498 21.867 0 10.974-12.31 18.89-40.075 18.89-11.408 0-19.271-.747-28.019-2.152z"/><path d="m472.811 79.22h-13.218v50.012h13.218c20.295 0 33.077-8.663 33.077-24.908 0-16.227-12.782-25.104-33.077-25.104m35.473 54.679c-6.536 2.949-18.899 4.84-29.708 4.84h-41.309v-68.834h41.309c10.809 0 23.172 1.91 29.715 4.859 15.904 7.178 21.107 18.673 21.107 29.56 0 10.905-5.154 22.381-21.114 29.575"/><path d="m408.321 101.071s19.268-3.076 19.268-15.07c0-11.733-20.521-16.534-42.351-16.534-19.696 0-32.651 2.41-32.651 2.41v10.657c8.943-2.164 17.498-4.009 29.157-4.009 12.508 0 22.053 3.73 22.053 9.011 0 6.353-9.436 9.981-29.768 9.981h-9.34v9.591h8.686c21.401 0 33.578 3.216 33.578 11.076 0 7.011-10.877 11.269-24.434 11.269-11.83 0-22.642-2.512-31.421-4.937v11.482c4.211.723 15.399 2.965 36.218 2.965 23.076 0 43.138-7.414 43.138-20.49 0-10.962-13.901-17.402-22.133-17.402"/><path d="m15.493 26.838-14.267-1.883c-.428-.058-.824.249-.874.676-.465 3.982-.468 8.004-.016 11.979.05.434.447.738.878.682l14.267-1.864c.422-.052.713-.434.666-.855-.282-2.611-.279-5.253.01-7.876.046-.416-.242-.8-.664-.859"/><path d="m22.732 9.684-11.417-8.763c-.342-.263-.835-.201-1.092.143-2.397 3.221-4.412 6.704-6.003 10.375-.174.394.019.856.419 1.02l13.286 5.526c.391.164.838-.019 1.005-.403 1.064-2.41 2.388-4.698 3.947-6.819.252-.341.19-.819-.145-1.079"/><path d="m17.802 45.315-13.302 5.498c-.394.164-.59.626-.416 1.023 1.588 3.684 3.597 7.169 5.982 10.388.254.344.75.409 1.091.146l11.433-8.745c.335-.254.4-.734.149-1.075-1.554-2.121-2.872-4.413-3.932-6.822-.168-.391-.614-.577-1.005-.413"/><path d="m124.188 41.839h-11.789c-.732 0-1.154.171-1.362.289-.049.034-.099.068-.152.102-.003.003-.012.009-.012.009-1.823 1.213-4.419 2.314-7.758 2.314-8.906 0-12.23-7.371-12.23-12.884 0-5.883 3.56-12.878 12.286-12.878 6.341 0 10.245 3.944 11.243 7.836.112.446.223.88-.236.88h-17.023c-.49 0-.89.397-.89.887v7.318c0 .493.4.893.89.893h23.51c4.862 0 6.146-1.525 6.146-6.09 0-13.228-10.896-22.679-23.457-22.679-12.562 0-23.734 9.619-23.734 22.344 0 13.985 7.842 25.328 23.789 25.328 13.287 0 19.191-7.904 21.628-12.757.093-.208.332-.912-.849-.912"/><path d="m31.171 54.329c-.35 0-.635-.288-.635-.635v-26.035c0-9.882 8.254-19.764 21.665-19.764s21.668 9.882 21.668 19.764v26.035c0 .347-.288.635-.639.635h-10.66c-.354 0-.639-.288-.639-.635v-24.518c0-4.664-3.389-9.346-9.73-9.346-6.344 0-9.734 4.682-9.734 9.346v24.518c0 .347-.285.635-.635.635z"/><path d="m168.306 9.014c.357 0 .639.285.639.636v27.005c0 4.66 2.04 6.859 5.321 6.859 3.277 0 5.693-2.199 5.693-6.859v-27.005c0-.351.282-.636.636-.636h11.221c.351 0 .636.285.636.636v27.907c0 11.002-7.371 17.889-16.323 17.889-3.789 0-9.609-.974-13.804-6.379-3.448 5.405-9.027 6.379-13.058 6.379-8.949 0-16.322-6.887-16.322-17.889v-27.907c0-.351.285-.636.638-.636h11.222c.35 0 .633.285.633.636v27.005c0 4.66 2.549 6.859 5.693 6.859 3.147 0 5.321-2.199 5.321-6.859v-27.005c0-.351.288-.636.638-.636z"/><path d="m209.618 36.472 14.267 1.882c.428.059.828-.242.877-.673.466-3.978.472-8.003.013-11.978-.05-.428-.444-.735-.875-.676l-14.266 1.857c-.422.056-.714.434-.667.856.285 2.611.282 5.256-.009 7.876-.047.419.241.803.66.856"/><path d="m202.387 53.622 11.411 8.769c.347.261.837.199 1.095-.148 2.396-3.216 4.403-6.692 6-10.373.173-.39-.019-.855-.416-1.017l-13.287-5.528c-.391-.162-.834.018-1.008.409-1.057 2.409-2.384 4.691-3.947 6.816-.248.337-.189.818.152 1.072"/><path d="m207.308 18 13.302-5.504c.404-.161.593-.62.419-1.02-1.588-3.68-3.594-7.166-5.978-10.381-.258-.348-.751-.41-1.092-.149l-11.432 8.747c-.332.255-.404.732-.146 1.073 1.547 2.118 2.865 4.41 3.925 6.825.174.388.617.574 1.002.409"/></g></svg>