<svg clip-rule="evenodd" fill-rule="evenodd" stroke-linejoin="round" stroke-miterlimit="2" viewBox="0 0 600 70" xmlns="http://www.w3.org/2000/svg"><g fill="#fff" fill-rule="nonzero"><path d="m462.541 28.34c-1.262-3.822-4.594-7.46-4.594-7.46s-5.007-6.504-14.842-8.722c-8.42-1.762-15.037 1.952-15.037 1.952s-6.008 2.408-10.523 7.385c-7.192 6.924-9.259 17.027-9.259 17.027s-2.756 8.799 1.609 15.765l4.744 5.738c6.695 5.587 13.85 6.158 13.85 6.158s5.779 1.301 12.514-.459c5.887-1.188 10.175-4.095 10.175-4.095s9.76-5.394 12.434-16.413zm-15.195 18.328s-3.901 6.812-12.469 6.006c-10.065-1.032-11.248-9.869-11.248-9.869s-1.381-6.505 4.819-12.169c6.277-5.278 12.819-4.476 12.819-4.476s4.397.42 6.659 7.692c2.905 9.257-.58 12.816-.58 12.816"/><path d="m495.059 46.785c-3.221-.711-8.379.609-8.379.609s-7.192 2.638-8.302 2.601c-.419-.611-1.337-12.358-1.071-17.063.154-8.304-.539-15.074-.539-15.074s-.342-7.999-4.628-12.742c-5.049-5.091-8.574-2.907-10.6-1.685-4.859 4.362-2.601 9.679-2.601 9.679l2.529 7.156s1.222 3.063 1.071 8.073l1.071 16.874c0 2.258 1.838 17.446 1.838 17.446s.186 4.937 4.933 5.817c4.861.803 9.64-1.609 11.668-2.565 2.029-.953 4.707-1.796 4.707-1.796s2.22-.498 4.438-.688c5.203-.499 7.078-1.416 7.078-1.416s2.012-.302 3.37-2.221c1.353-1.916 2.991-10.903-6.583-13.005"/><path d="m409.892 54.283c-3.417-1.025-7.343-.346-7.343-.346s-11.096 1.07-16.875-.154c-8.95-1.567-8.65-11.21-8.65-11.21s-.3-6.391 5.093-15.037c6.656-10.676 14.002-12.589 14.002-12.589s1.834-.687 3.556.23c1.072 6.195 7.078 6.157 7.078 6.157s8.648.577 8.224-9.905c-.992-8.612-9.294-9.797-12.778-10.602-10.439-1.874-17.218 3.713-17.218 3.713s-7 3.786-15.378 16.987c-5.706 8.186-6.393 14.617-6.393 14.617s-.687 1.53-.419 8.342c-.153 5.316 1.838 9.182 1.838 9.182s3.021 9.15 12.585 12.898c5.818 2.409 14.314 2.372 14.314 2.372s8.224-.114 14.534-.46c3.445.266 5.093-1.532 5.093-1.532s3.861-2.524 3.481-6.924c0 0-.75-4.546-4.744-5.739"/><path d="m161.701 66.577h-12.654l-1.691-38.113-16.452 38.113h-8.44l-7.029-34.456-10.972 34.456h-21.517l-3.235-18.418h-14.629l-8.297 18.418h-13.224l27.149-61.595h15.609l8.296 49.784 16.177-49.785h12.512l6.19 33.753 14.35-33.753h15.189zm-83.897-30.382-2.317-11.948-5.344 11.948z"/><path d="m197.985 66.577 2.114-13.217h-22.083l1.75-10.969h19.207l2.11-13.224h-19.411l1.687-10.971h22.078l2.112-13.214h-35.017l-9.848 61.595z"/><path d="m362.393 4.981h-14.768l-12.517 20.108-7.872-20.108h-14.486l14.906 32.482-4.593 29.113h12.661l3.885-25.733 22.784-35.862"/><path d="m268.082 30.481c3.931-17.031 18.488-28.208 32.509-24.967 14.029 3.242 22.213 19.671 18.286 36.702-3.931 17.028-18.486 28.207-32.513 24.965-14.026-3.241-22.209-19.674-18.282-36.7zm19.155 24.366c6.696 2.996 14.899-2.879 18.311-13.121 3.411-10.25.756-20.984-5.941-23.98-6.698-2.998-14.89 2.88-18.307 13.127-3.416 10.248-.755 20.977 5.937 23.974"/><path d="m237.696 18.305h8.24c8.932 0 7.12 11.443-1.392 11.443h-8.798zm-3.904 24.002h10.606c10.053 0 9.771 12.282-1.394 12.282h-11.166zm-6.98-36.987-9.767 61.136h28.472c11.722 0 28.867-17.278 13.262-31.403 16.047-16.607.134-29.585-8.377-29.733-6.838-.11-23.724 0-23.724 0z"/><path d="m16.561 10.464c-12.061 7.465-17.86 18.842-16.316 34.313 1.796 17.947 25.036 29.253 44.724 17.864 1.724-.995 1.05-.838 1.688-1.409l3.94-25.036h-23.489l-1.801 11.533h9.817l-1.127 6.191c-5.624 2.249-15.189 1.405-19.266-5.907-2.582-4.632-4.977-14.967 5.909-24.473 8.857-7.735 24.189-9.137 33.052-5.059 0 0 1.124-6.467 1.965-12.519-17.016-5.905-30.238-.981-39.096 4.502"/><path d="m548.896 26.313c-6.694-10.942-18.479-12.588-18.479-12.588s-3.75-1.264-11.782-.194c-15.077 2.871-20.32 14.464-20.32 14.464s-5.397 8.493-3.254 18.786l6.587 13.009c4.858 4.553 6.847 4.553 7.152 4.824 6.43 2.907 13.89 1.223 13.89 1.223s9.414-.917 18.023-7.613c6.885-5.05 9.87-12.474 9.87-12.474l.913-9.959zm-18.327 22.344c-10.827 6.505-17.64-.613-17.64-.613s-3.021-1.989-3.672-8.035c-.464-7.001 6.504-10.637 6.504-10.637s3.674-2.258 8.266-1.913c4.592.343 6.041.037 9.757 2.794 3.518 3.177 3.288 5.51 3.288 5.51s1.265 7.883-6.503 12.894"/><path d="m550.58 45.75s.231 6.12-.728 7.614c-1.3 2.793-1.108 5.509-1.108 5.509s-.884 8.265 8.688 9.639c6.577-.037 7.378-5.51 7.494-7.844.381-1.833.23-10.369.23-10.369l8.533 6.965s6.198 5.203 9.837 8.225c3.79 2.982 4.741 3.519 4.741 3.519s.807.953 3.71.611c2.34.04 4.481-2.066 4.481-2.066s2.713-1.985 3.401-5.469c.842-4.132-2.37-6.16-2.37-6.16s-11.859-9.566-19.895-16.148c5.395-2.946 7.997-4.973 7.997-4.973s7.502-4.972 9.106-12.59c2.221-8.38-4.093-11.667-4.093-11.667s-3.943-2.832-7.27-4.326c-8.382-4.093-16.185-3.252-16.185-3.252s-11.095-.764-18.326 8.152c-3.328 4.322-1.26 9.987-1.26 9.987s.411.907 1.337 5.203c1.855 8.643 1.68 19.44 1.68 19.44zm14.54-16.989-.728-9.986s6.999-.154 9.909.343c5.742.88 5.433 2.489 5.433 2.489s-.191 2.027-4.554 4.018c-4.741 2.296-10.06 3.136-10.06 3.136"/></g></svg>