<?xml version="1.0" encoding="UTF-8" standalone="no"?><!DOCTYPE svg PUBLIC "-//W3C//DTD SVG 1.1//EN" "http://www.w3.org/Graphics/SVG/1.1/DTD/svg11.dtd"><svg width="100%" height="100%" viewBox="0 0 600 221" version="1.1" xmlns="http://www.w3.org/2000/svg" xmlns:xlink="http://www.w3.org/1999/xlink" xml:space="preserve" xmlns:serif="http://www.serif.com/" style="fill-rule:evenodd;clip-rule:evenodd;stroke-linejoin:round;stroke-miterlimit:2;"><g id="nintendo_virtualboy"><path d="M185.781,46.672l-157.488,0c-13.455,0.046 -21.633,-8.985 -21.633,-20.063c0,-11.082 8.23,-20.04 21.633,-20.064l157.488,-0c13.403,0.024 21.63,8.982 21.63,20.064c-0,11.078 -8.175,20.109 -21.63,20.063m0.076,-46.672l-157.64,0c-16.88,-0.04 -28.217,12.096 -28.217,26.645c-0,14.546 11.31,26.541 28.242,26.548l157.591,-0c16.928,-0.007 28.241,-12.002 28.241,-26.548c0,-14.549 -11.34,-26.685 -28.217,-26.645m-76.894,24.96c0.588,-1.027 1.669,-1.517 2.647,-1.52c0.981,0.003 2.063,0.493 2.648,1.52c0.481,0.832 0.503,1.807 0.494,3.263l-6.286,0c-0.012,-1.456 0.018,-2.431 0.497,-3.263m13.692,5.856c0,-5.161 -4.988,-9.439 -11.112,-9.439c-6.121,0 -11.087,4.183 -11.087,9.348c-0,5.161 4.966,9.348 11.087,9.348c5.086,-0 9.372,-2.898 10.683,-6.831l-7.505,0.006c0,-0 0.006,0.073 0.006,1.008c0,3.047 -2.002,3.723 -3.117,3.723c-1.109,0 -3.147,-0.676 -3.147,-3.723c-0,-0.911 0.006,-3.437 0.006,-3.437c-0,0 14.186,0.006 14.186,-0.003m15.762,-9.162c-2.493,0.07 -4.564,1.137 -6.009,2.511c-0.006,-0.411 0,-1.749 0,-1.749l-7.471,0.003l-0.003,16.651l7.474,0c0,0 -0.006,-10.228 -0.006,-10.938c0,-1.45 1.524,-3.065 3.574,-3.065c2.054,-0 3.44,1.615 3.44,3.065l0,10.938l7.483,0c0,0 -0.003,-7.888 0,-9.061c0.043,-6.594 -5.67,-8.437 -8.482,-8.355m-61.197,0c-2.489,0.07 -4.564,1.137 -6.005,2.511c-0.006,-0.411 -0,-1.749 -0,-1.749l-7.483,0.003l0.006,16.651l7.477,0c-0,0 -0.006,-10.228 -0.006,-10.938c-0,-1.45 1.523,-3.065 3.574,-3.065c2.05,-0 3.44,1.615 3.44,3.065l-0,10.938l7.483,0c-0,0 -0.009,-7.888 -0,-9.061c0.039,-6.594 -5.674,-8.437 -8.486,-8.355m85.965,9.007c-0,-0 0.003,1.886 0.003,2.955c-0,2.572 -1.783,3.245 -2.956,3.245c-1.194,0 -2.949,-0.673 -2.949,-3.245c0,-0.883 0.003,-2.961 0.003,-2.961c0,-0 -0.003,-2.115 -0.003,-2.968c0,-2.578 1.755,-3.233 2.952,-3.233c1.17,0 2.95,0.655 2.95,3.233l-0,2.974Zm-0.055,-7.416c-1.2,-0.677 -2.474,-1.329 -4.26,-1.484c-5.426,-0.478 -9.576,4.32 -9.576,8.717c0,5.795 4.476,7.94 5.152,8.257c2.535,1.179 5.786,1.182 8.669,-0.628c-0,0.156 0.003,0.963 0.003,0.963l7.443,0l0,-25.036l-7.431,0l0,9.211Zm23.909,10.895c-0,2.654 -1.569,3.748 -3.077,3.748c-1.512,0 -3.087,-1.094 -3.087,-3.748c0,-1.008 0.003,-3.592 0.003,-3.592c0,0 0.003,-2.462 0.003,-3.473c0,-2.639 1.578,-3.727 3.077,-3.727c1.506,0 3.078,1.088 3.078,3.727c-0,1.011 -0,2.876 0.009,3.546c-0,0.04 -0.006,2.517 -0.006,3.519m-3.02,-12.857c-6.078,-0 -11.005,4.189 -11.005,9.35c0,5.165 4.927,9.351 11.005,9.351c6.079,0 11.006,-4.186 11.006,-9.351c-0,-5.161 -4.927,-9.35 -11.006,-9.35m-131.978,-2.139l7.547,-0l-0,-5.119l-7.547,-0l-0,5.119Zm0.018,19.929l7.529,0l-0,-16.651l-7.529,0l0,16.651Zm49.393,-16.62l-0,-2.478l-4.08,0l0,-3.366l-7.535,-0l0.006,3.369l-4.098,0.004l0,2.471l4.095,-0l-0.006,16.62l7.544,0l-0.006,-16.62l4.08,-0Zm-61.437,9.043l-10.795,-17.462l-7.8,0l-0.003,25.039l7.754,0l-0,-17.461l10.85,17.461l7.727,0l-0,-25.039l-7.739,0l0.006,17.462Z" style="fill:#fff;fill-rule:nonzero;"/><g><path id="path2952" d="M-0,65.794l32.286,154.8l32.119,-154.8l-17.384,-0l-14.735,87.004l-14.901,-87.004l-17.385,-0Z" style="fill:#fff;fill-rule:nonzero;"/><rect id="path3726" x="71.524" y="65.794" width="17.384" height="154.8" style="fill:#fff;fill-rule:nonzero;"/><path id="path3728" d="M104.46,65.777l0,154.826l17.391,-0l-0,-79.997l24.182,79.993l16.033,-0l-19.346,-73.199c10.748,-6.449 13.912,-14.89 13.912,-14.89l0,-49.181c-7.122,-15.811 -19.402,-17.552 -19.402,-17.552l-32.77,-0Zm17.391,15.759l17.39,-0l0,53.8l-17.39,-0l-0,-53.8Z" style="fill:#fff;fill-rule:nonzero;"/><path id="path3733" d="M162.087,65.794l51.987,-0l0,15.726l-17.385,0l0,139.073l-17.384,0l0,-139.07l-17.218,-0l-0,-15.729Z" style="fill:#fff;fill-rule:nonzero;"/><path id="path3735" d="M310.26,65.777l-33.586,154.66l-0,0.162l17.227,-0l3.642,-20.867l24.291,-0l3.478,20.867l17.391,-0l-32.443,-154.822Zm-0,66.732l7.935,53.31l-17.175,-0l9.24,-53.31Z" style="fill:#fff;fill-rule:nonzero;"/><path id="path2882" d="M349.669,65.794l17.386,-0l0,139.072l25.997,-0l-0,15.727l-43.38,0l-0.003,-154.799Z" style="fill:#fff;fill-rule:nonzero;"/><path id="path3660" d="M535.599,65.794l15.894,-0l16.224,66.723l14.736,-66.723l17.547,-0l-24.337,91.059l0,63.74l-17.384,0l0,-63.739l-22.68,-91.06Z" style="fill:#fff;fill-rule:nonzero;"/><path id="path3662" d="M504.401,65.794c-19.759,-0 -26.11,17.536 -26.11,17.536c0.162,0.249 -0,116.407 -0,119.719c2.619,18.816 26.11,17.545 26.11,17.545c26.066,0 26.057,-17.545 26.057,-17.545l0,-119.72c-6.739,-18.403 -26.057,-17.535 -26.057,-17.535Zm-8.722,17.535l17.392,-0l0,121.512l-17.392,-0l-0,-121.512Z" style="fill:#fff;fill-rule:nonzero;"/><path id="path3667" d="M220.861,65.794l17.551,-0l0,137.252l17.55,0l0,-137.252l17.218,-0l-0,137.252c-0,0 -5.629,17.548 -25.331,17.548c-19.701,0 -26.988,-17.548 -26.988,-17.548l0,-137.252Z" style="fill:#fff;fill-rule:nonzero;"/><path id="path3669" d="M412.262,65.777l0,154.826l34.944,-0c16.219,-4.225 17.224,-15.762 17.224,-15.762c-0,-0 -0.025,-41.354 -0.025,-52.043c-1.218,-6.748 -6.765,-6.975 -6.765,-6.975c-0,-0 -0.023,-1.88 -0,-3.369c6.131,-0.47 6.792,-7.12 6.792,-7.12c0,-0 -0.025,-41.314 0,-52.007c-2.653,-12.627 -17.226,-17.55 -17.226,-17.55l-34.944,-0Zm17.444,17.659l17.498,0l-0,51.899l-17.498,-0l-0,-51.899Zm-0.053,67.606l17.551,-0l-0,53.799l-17.551,-0l-0,-53.799Z" style="fill:#fff;fill-rule:nonzero;"/></g></g></svg>