<?xml version="1.0" encoding="UTF-8" standalone="no"?><!DOCTYPE svg PUBLIC "-//W3C//DTD SVG 1.1//EN" "http://www.w3.org/Graphics/SVG/1.1/DTD/svg11.dtd"><svg width="100%" height="100%" viewBox="0 0 600 150" version="1.1" xmlns="http://www.w3.org/2000/svg" xmlns:xlink="http://www.w3.org/1999/xlink" xml:space="preserve" xmlns:serif="http://www.serif.com/" style="fill-rule:evenodd;clip-rule:evenodd;stroke-linejoin:round;stroke-miterlimit:2;"><g id="nintendo_nes_alt2"><g><path id="path867" d="M101.518,95.41l-18.514,-0l-0,18.128l5.748,-0l0,-12.128c0,-0.768 0.636,-1.405 1.404,-1.405l9.955,-0c0.764,-0 1.407,0.637 1.407,1.405l-0,12.128l5.741,-0l-0,-12.128c-0,0 0.768,-6 -5.741,-6" style="fill:#fff;fill-rule:nonzero;"/><path id="path869" d="M261.462,95.41l-18.515,-0l-0,18.128l5.871,-0l0,-12.128c0,-0.768 0.643,-1.405 1.28,-1.405l9.96,-0c0.762,-0 1.404,0.637 1.404,1.405l-0,12.128l5.739,-0l0,-12.128c0,0 0.766,-6 -5.739,-6" style="fill:#fff;fill-rule:nonzero;"/><path id="path871" d="M348.646,95.41l-18.512,-0l0,18.128l5.749,-0l-0,-12.128c-0,-0.768 0.633,-1.405 1.404,-1.405l9.955,-0c0.762,-0 1.404,0.637 1.404,1.405l-0,12.128l5.743,-0l0,-12.128c0,0 0.762,-6 -5.743,-6" style="fill:#fff;fill-rule:nonzero;"/><path id="path873" d="M109.814,100.005l6.382,-0c0.638,-0 1.406,0.637 1.406,1.405l-0,12.128l6.123,-0l-0,-12.128c-0,-0.768 0.641,-1.405 1.405,-1.405l6.382,-0l-0,-4.595l-21.698,-0l0,4.595" style="fill:#fff;fill-rule:nonzero;"/><path id="path875" d="M356.812,95.41l0,4.595l6.386,-0c0.761,-0 1.404,0.637 1.404,1.405l-0,12.128l6.385,-0l0,-12.128c0,-0.768 0.506,-1.405 1.271,-1.405l6.386,-0l-0,-4.595l-21.832,-0" style="fill:#fff;fill-rule:nonzero;"/><path id="path877" d="M182.703,100.005l6.382,-0c0.764,-0 1.405,0.637 1.405,1.405l0,12.128l6.377,-0l0,-12.128c0,-0.768 0.643,-1.405 1.411,-1.405l6.377,-0l0,-4.595l-21.952,-0l-0,4.595" style="fill:#fff;fill-rule:nonzero;"/><rect id="path879" x="232.995" y="95.41" width="6.126" height="18.128" style="fill:#fff;fill-rule:nonzero;"/><path id="path881" d="M223.164,104.349l-10.334,-0l-0,-3.193c-0,-0.514 0.764,-1.151 1.145,-1.151l7.785,-0c0.891,-0 1.404,0.637 1.404,1.151l0,3.193m-0.128,-8.939l-10.084,-0c-6.51,-0 -5.996,6 -5.996,6l-0,12.128l5.874,-0l-0,-4.593l10.334,0l0,4.593l5.868,-0l0,-12.128c0,0 0.766,-6 -5.996,-6" style="fill:#fff;fill-rule:nonzero;"/><path id="path883" d="M174.532,102.945c-0,0.89 -0.38,1.404 -1.149,1.404l-8.425,-0c-0.381,-0 -0.891,-0.514 -0.891,-1.404l0,-1.789c0,-0.768 0.51,-1.406 1.274,-1.406l8.042,0c0.769,0 1.149,0.379 1.149,1.406l-0,1.789m-0.126,-7.535l-16.339,-0l-0,18.128l6,-0l0,-3.45c0,-0.765 0.51,-1.143 1.274,-1.143l8.042,0c0.381,0 1.149,0.638 1.149,1.143l-0,3.45l5.742,-0l-0,-2.804c-0,-0 0.513,-2.563 -2.168,-4.348c1.787,-1.275 2.427,-3.185 2.555,-4.34c0.126,-0.509 0.126,-0.89 0.126,-0.89c0,-0 0,-5.746 -6.381,-5.746" style="fill:#fff;fill-rule:nonzero;"/><path id="path885" d="M58.878,107.537c0,0 -0.636,6.001 6.003,6.001l14.297,-0l-0,-4.593l-13.278,0c-0.893,0 -1.661,-0.774 -1.661,-1.532c-0,-0.894 0.642,-1.408 1.661,-1.408l12.514,0l-0,-3.189l-12.77,0c-0.763,0 -1.405,-0.637 -1.405,-1.406c-0,-0.768 0.642,-1.405 1.405,-1.405l13.534,-0l-0,-4.595l-20.3,-0l0,12.127" style="fill:#fff;fill-rule:nonzero;"/><path id="path887" d="M134.196,107.537c-0,0 -0.897,6.001 5.745,6.001l14.297,-0l0,-4.593l-13.278,0c-0.897,0 -1.661,-0.774 -1.661,-1.532c0,-0.894 0.764,-1.408 1.661,-1.408l12.51,0l0,-3.189l-12.51,0c-0.897,0 -1.661,-0.637 -1.661,-1.406c0,-0.768 0.764,-1.405 1.661,-1.405l13.278,-0l0,-4.595l-20.042,-0l-0,12.127" style="fill:#fff;fill-rule:nonzero;"/><path id="path889" d="M306.265,107.537c-0,0 -0.642,6.001 5.872,6.001l14.424,-0l-0,-4.593l-13.405,0c-0.766,0 -1.532,-0.774 -1.532,-1.532c0,-0.894 0.513,-1.408 1.407,-1.408l12.507,0l-0,-3.189l-12.507,0c-0.894,0 -1.407,-0.637 -1.407,-1.406c0,-0.768 0.513,-1.405 1.407,-1.405l13.53,-0l-0,-4.595l-20.296,-0l-0,12.127" style="fill:#fff;fill-rule:nonzero;"/><path id="path891" d="M296.735,95.434l-25.663,-0l0,18.124l5.363,0l0,-12.124c0,-0.763 0.638,-1.403 1.404,-1.403l4.336,-0c0.77,-0 1.411,0.64 1.411,1.403l0,12.124l5.997,0l0,-12.124c0,-0.763 0.513,-1.403 1.404,-1.403l4.597,-0c0.509,-0 1.151,0.64 1.151,1.403l0.249,12.124l5.743,0l0,-12.124c0,0 0.766,-6 -5.992,-6" style="fill:#fff;fill-rule:nonzero;"/><path id="path893" d="M467.965,100.002l6.508,0c0.505,0 1.147,0.642 1.147,1.404l0,12.125l6.386,0l0.253,-12.125c-0,-0.762 0.38,-1.404 1.151,-1.404l6.385,0l0,-4.592l-21.83,-0l0,4.592" style="fill:#fff;fill-rule:nonzero;"/><path id="path895" d="M541.746,95.41l-25.654,-0l-0,18.121l5.359,0l-0,-12.125c-0,-0.762 0.637,-1.404 1.403,-1.404l4.34,0c0.762,0 1.4,0.642 1.4,1.404l-0,12.125l6,0l-0,-12.125c-0,-0.762 0.51,-1.404 1.408,-1.404l4.593,0c0.513,0 1.151,0.642 1.151,1.404l0.257,12.125l5.744,0l0,-12.125c0,0 0.762,-5.996 -6.001,-5.996" style="fill:#fff;fill-rule:nonzero;"/><path id="path897" d="M441.671,95.41l-5.492,-0l0,6.766c0,0.759 -0.763,1.4 -1.399,1.4l-8.175,-0c-0.764,-0 -1.404,-0.641 -1.404,-1.4l0,-6.766l-5.742,-0l0,6.638c0,-0 -0.637,6.121 6.001,6.121l1.913,-0l-0,5.362l6.384,0l0,-5.362l2.168,-0c6.638,-0 5.746,-5.993 5.746,-5.993l-0,-6.766" style="fill:#fff;fill-rule:nonzero;"/><path id="path899" d="M492.217,107.535c0,-0 -0.893,5.996 5.745,5.996l14.295,0l0,-4.596l-13.273,0c-0.894,0 -1.664,-0.638 -1.664,-1.532c-0,-0.891 0.77,-1.271 1.664,-1.271l12.507,-0l-0,-3.197l-12.507,-0c-0.894,-0 -1.664,-0.759 -1.664,-1.529c-0,-0.762 0.77,-1.404 1.664,-1.404l13.273,0l0,-4.592l-20.04,-0l0,12.125" style="fill:#fff;fill-rule:nonzero;"/><path id="path901" d="M460.051,102.806l-8.555,-0c-1.019,-0 -1.655,-0.377 -1.655,-1.268c0,-0.773 0.636,-1.536 1.4,-1.536l14.552,0l0,-4.592l-15.952,-0c-2.938,-0 -5.487,2.423 -5.487,5.234c-0,3.956 2.549,5.488 5.997,5.488l8.551,-0c0.895,-0 1.789,0.38 1.789,1.271c-0,0.766 -0.64,1.532 -1.408,1.532l-14.929,0l-0,4.596l16.337,0c2.679,0 5.489,-2.169 5.489,-5.234c0,-3.697 -2.938,-5.491 -6.129,-5.491" style="fill:#fff;fill-rule:nonzero;"/><path id="path903" d="M411.417,102.806l-8.296,-0c-1.023,-0 -1.787,-0.377 -1.787,-1.268c-0,-0.773 0.764,-1.536 1.532,-1.536l14.552,0l-0,-4.592l-15.958,-0c-3.191,-0 -5.746,2.423 -5.746,5.234c0,3.956 2.81,5.488 6.256,5.488l8.296,-0c1.023,-0 1.787,0.38 1.787,1.271c0,0.766 -0.764,1.532 -1.532,1.532l-14.807,0l0,4.596l16.339,0c2.937,0 5.62,-2.169 5.62,-5.234c-0,-3.697 -2.81,-5.491 -6.256,-5.491" style="fill:#fff;fill-rule:nonzero;"/></g><path d="M520.914,0.606l-441.828,-0c-47.31,-0.111 -79.086,33.902 -79.086,74.679c-0,40.769 31.699,74.389 79.154,74.407l441.692,-0c47.446,-0.018 79.154,-33.638 79.154,-74.407c-0,-40.777 -31.785,-74.79 -79.086,-74.679Zm-0.214,130.811l-441.4,-0c-37.712,0.128 -60.632,-25.184 -60.632,-56.234c-0,-31.059 23.066,-56.166 60.632,-56.234l441.4,-0c37.566,0.068 60.624,25.175 60.624,56.234c-0,31.05 -22.912,56.362 -60.624,56.234Z" style="fill:#fff;"/><g><rect x="177.917" y="50.474" width="16.811" height="37.18" style="fill:#fff;"/><path d="M288.204,50.542l-0,-5.531l-9.11,0l0,-7.517l-16.824,-0l0.014,7.524l-9.151,0.007l0,5.517l9.144,0l-0.014,37.112l16.845,-0l-0.014,-37.112l9.11,0Z" style="fill:#fff;"/><path d="M151.024,70.734l-24.104,-38.989l-17.416,-0l-0.007,55.909l17.314,-0l0,-38.99l24.226,38.99l17.253,-0l0,-55.909l-17.28,-0l0.014,38.989Z" style="fill:#fff;"/><path d="M370.741,48.76c-5.565,0.156 -10.192,2.537 -13.416,5.606c-0.014,-0.919 -0,-3.906 -0,-3.906l-16.682,0.007l-0.007,37.18l16.689,-0c-0,-0 -0.014,-22.839 -0.014,-24.424c-0,-3.238 3.402,-6.844 7.98,-6.844c4.586,0 7.681,3.606 7.681,6.844l0,24.424l16.709,-0c-0,-0 -0.007,-17.614 -0,-20.233c0.095,-14.722 -12.661,-18.838 -18.94,-18.654Z" style="fill:#fff;"/><path d="M234.098,48.76c-5.558,0.156 -10.191,2.537 -13.409,5.606c-0.014,-0.919 -0,-3.906 -0,-3.906l-16.709,0.007l0.014,37.18l16.695,-0c-0,-0 -0.014,-22.839 -0.014,-24.424c0,-3.238 3.402,-6.844 7.98,-6.844c4.579,0 7.681,3.606 7.681,6.844l0,24.424l16.709,-0c-0,-0 -0.021,-17.614 -0,-20.233c0.088,-14.722 -12.668,-18.838 -18.947,-18.654Z" style="fill:#fff;"/><path d="M472.564,47.93c-13.572,-0 -24.573,9.354 -24.573,20.879c0,11.531 11.001,20.879 24.573,20.879c13.573,-0 24.574,-9.348 24.574,-20.879c-0,-11.525 -11.001,-20.879 -24.574,-20.879Zm6.742,28.709c0,5.926 -3.503,8.368 -6.871,8.368c-3.374,0 -6.892,-2.442 -6.892,-8.368c0,-2.252 0.007,-8.021 0.007,-8.021c0,0 0.007,-5.497 0.007,-7.755c0,-5.892 3.524,-8.321 6.871,-8.321c3.361,0 6.872,2.429 6.872,8.321c-0,2.258 -0,6.422 0.02,7.919c-0,0.088 -0.014,5.619 -0.014,7.857Z" style="fill:#fff;"/><path d="M425.921,52.311c-2.68,-1.51 -5.524,-2.966 -9.51,-3.313c-12.117,-1.068 -21.383,9.647 -21.383,19.464c0,12.94 9.994,17.729 11.504,18.437c5.661,2.632 12.92,2.639 19.355,-1.402c0,0.347 0.007,2.15 0.007,2.15l16.621,-0l-0,-55.902l-16.594,-0l0,20.566Zm0.123,16.559c-0,-0 0.007,4.211 0.007,6.599c-0,5.742 -3.98,7.246 -6.599,7.246c-2.667,-0 -6.586,-1.504 -6.586,-7.246c0,-1.973 0.007,-6.613 0.007,-6.613c-0,0 -0.007,-4.721 -0.007,-6.626c0,-5.755 3.919,-7.218 6.592,-7.218c2.613,-0 6.586,1.463 6.586,7.218l-0,6.64Z" style="fill:#fff;"/><path d="M335.548,69.217c-0,-11.525 -11.137,-21.076 -24.812,-21.076c-13.668,-0 -24.757,9.34 -24.757,20.872c0,11.525 11.089,20.872 24.757,20.872c11.355,0 20.927,-6.47 23.852,-15.253l-16.756,0.014c-0,-0 0.014,0.163 0.014,2.252c-0,6.803 -4.47,8.313 -6.96,8.313c-2.477,0 -7.028,-1.51 -7.028,-8.313c0,-2.034 0.014,-7.674 0.014,-7.674c-0,-0 31.676,0.013 31.676,-0.007Zm-30.574,-13.076c1.313,-2.293 3.728,-3.388 5.912,-3.395c2.19,0.007 4.606,1.102 5.912,3.395c1.075,1.857 1.122,4.034 1.102,7.286l-14.035,0c-0.027,-3.252 0.041,-5.429 1.109,-7.286Z" style="fill:#fff;"/><rect x="177.876" y="31.724" width="16.852" height="11.429" style="fill:#fff;"/></g></g></svg>