<?xml version="1.0" encoding="UTF-8" standalone="no"?><!DOCTYPE svg PUBLIC "-//W3C//DTD SVG 1.1//EN" "http://www.w3.org/Graphics/SVG/1.1/DTD/svg11.dtd"><svg width="100%" height="100%" viewBox="0 0 600 245" version="1.1" xmlns="http://www.w3.org/2000/svg" xmlns:xlink="http://www.w3.org/1999/xlink" xml:space="preserve" xmlns:serif="http://www.serif.com/" style="fill-rule:evenodd;clip-rule:evenodd;stroke-linejoin:round;stroke-miterlimit:2;"><g id="nintendo_wiiu"><g><path d="M264.994,99.219l-27.118,106.226c0,-0 -20.691,-79.733 -24.061,-91.046c-3.366,-11.321 -10.317,-16.283 -20.151,-16.283c-9.839,-0 -16.787,4.962 -20.149,16.283c-3.374,11.313 -24.089,91.046 -24.089,91.046l-27.095,-106.226l-32.642,0c-0,0 31.332,113.331 35.592,126.454c3.331,10.246 11.17,18.626 22.816,18.626c13.316,-0 19.537,-9.706 22.418,-18.626c2.852,-8.856 23.149,-83.719 23.149,-83.719c-0,0 20.284,74.863 23.152,83.719c2.855,8.92 9.099,18.626 22.407,18.626c11.639,-0 19.491,-8.38 22.811,-18.626c4.25,-13.123 35.587,-126.454 35.587,-126.454l-32.627,0Zm111.932,143.984l30.892,-0l-0,-99.969l-30.892,0l0,99.969Zm-2.985,-134.905c0,9.631 8.106,17.445 18.096,17.445c10.371,0 18.52,-7.665 18.52,-17.445c0,-9.806 -8.149,-17.476 -18.52,-17.476c-9.99,-0 -18.096,7.832 -18.096,17.476m-59.809,134.905l30.879,-0l-0,-99.969l-30.879,0l-0,99.969Zm15.087,-152.381c10.382,-0 18.518,7.67 18.518,17.476c0,9.78 -8.136,17.445 -18.518,17.445c-9.995,0 -18.111,-7.814 -18.111,-17.445c0,-9.644 8.116,-17.476 18.111,-17.476" style="fill:#fff;fill-rule:nonzero;"/><path d="M579.677,90.821l-17.335,0l-0,53.749c-0,25.935 -14.977,39.929 -39.079,39.929c-24.097,0 -39.074,-13.994 -39.074,-39.929l-0,-53.749l-17.335,0c-12.668,0 -20.328,7.66 -20.328,20.323l0.01,65.723c-0,19.069 9.99,29.061 29.053,29.061l95.342,0c19.066,0 29.059,-9.992 29.059,-29.061l0.01,-65.723c-0,-12.663 -7.663,-20.323 -20.323,-20.323m-56.414,76.481c11.557,0 20.277,-9.001 20.277,-23.162l-0,-53.319l-40.544,0l0,53.319c0,14.161 8.71,23.162 20.267,23.162" style="fill:#fff;fill-rule:nonzero;"/><path d="M264.994,99.219l-27.118,106.226c0,-0 -20.691,-79.733 -24.061,-91.046c-3.366,-11.321 -10.317,-16.283 -20.151,-16.283c-9.839,-0 -16.787,4.962 -20.149,16.283c-3.374,11.313 -24.089,91.046 -24.089,91.046l-27.095,-106.226l-32.642,0c-0,0 31.332,113.331 35.592,126.454c3.331,10.246 11.17,18.626 22.816,18.626c13.316,-0 19.537,-9.706 22.418,-18.626c2.852,-8.856 23.149,-83.719 23.149,-83.719c-0,0 20.284,74.863 23.152,83.719c2.855,8.92 9.099,18.626 22.407,18.626c11.639,-0 19.491,-8.38 22.811,-18.626c4.25,-13.123 35.587,-126.454 35.587,-126.454l-32.627,0Zm111.932,143.984l30.892,-0l-0,-99.969l-30.892,0l0,99.969Zm-2.985,-134.905c0,9.631 8.106,17.445 18.096,17.445c10.371,0 18.52,-7.665 18.52,-17.445c0,-9.806 -8.149,-17.476 -18.52,-17.476c-9.99,-0 -18.096,7.832 -18.096,17.476m-59.809,134.905l30.879,-0l-0,-99.969l-30.879,0l-0,99.969Zm15.087,-152.381c10.382,-0 18.518,7.67 18.518,17.476c0,9.78 -8.136,17.445 -18.518,17.445c-9.995,0 -18.111,-7.814 -18.111,-17.445c0,-9.644 8.116,-17.476 18.111,-17.476" style="fill:#fff;fill-rule:nonzero;"/><path d="M579.677,90.821l-17.335,0l-0,53.749c-0,25.935 -14.977,39.929 -39.079,39.929c-24.097,0 -39.074,-13.994 -39.074,-39.929l-0,-53.749l-17.335,0c-12.668,0 -20.328,7.66 -20.328,20.323l0.01,65.723c-0,19.069 9.99,29.061 29.053,29.061l95.342,0c19.066,0 29.059,-9.992 29.059,-29.061l0.01,-65.723c-0,-12.663 -7.663,-20.323 -20.323,-20.323m-56.414,76.481c11.557,0 20.277,-9.001 20.277,-23.162l-0,-53.319l-40.544,0l0,53.319c0,14.161 8.71,23.162 20.267,23.162" style="fill:#fff;fill-rule:nonzero;"/></g><path d="M253.264,63.678l-214.693,0c-18.343,0.062 -29.491,-12.249 -29.491,-27.351c-0,-15.107 11.219,-27.319 29.491,-27.352l214.693,-0c18.272,0.033 29.486,12.245 29.486,27.352c0,15.102 -11.144,27.413 -29.486,27.351m0.104,-63.625l-214.901,-0c-23.011,-0.054 -38.467,16.49 -38.467,36.323c-0,19.83 15.418,36.183 38.5,36.191l214.834,-0c23.078,-0.008 38.5,-16.361 38.5,-36.191c0,-19.833 -15.459,-36.377 -38.466,-36.323m-104.826,34.026c0.802,-1.399 2.276,-2.068 3.61,-2.072c1.337,0.004 2.812,0.673 3.609,2.072c0.656,1.134 0.685,2.464 0.673,4.449l-8.569,-0c-0.017,-1.985 0.025,-3.315 0.677,-4.449m18.666,7.984c0,-7.037 -6.799,-12.868 -15.148,-12.868c-8.344,-0 -15.115,5.703 -15.115,12.743c0,7.036 6.771,12.743 15.115,12.743c6.933,0 12.777,-3.95 14.563,-9.312l-10.231,0.008c0,0 0.009,0.1 0.009,1.375c-0,4.154 -2.729,5.076 -4.249,5.076c-1.512,-0 -4.291,-0.922 -4.291,-5.076c-0,-1.242 0.008,-4.685 0.008,-4.685c0,-0 19.339,0.008 19.339,-0.004m21.487,-12.49c-3.397,0.095 -6.222,1.549 -8.191,3.422c-0.008,-0.56 0,-2.384 0,-2.384l-10.184,0.004l-0.005,22.7l10.189,-0c0,-0 -0.008,-13.944 -0.008,-14.912c-0,-1.977 2.077,-4.178 4.872,-4.178c2.8,-0 4.69,2.201 4.69,4.178l-0,14.912l10.201,-0c-0,-0 -0.004,-10.754 -0,-12.353c0.058,-8.988 -7.73,-11.501 -11.564,-11.389m-83.425,-0c-3.394,0.095 -6.223,1.549 -8.187,3.422c-0.009,-0.56 -0,-2.384 -0,-2.384l-10.202,0.004l0.009,22.7l10.193,-0c-0,-0 -0.009,-13.944 -0.009,-14.912c0,-1.977 2.077,-4.178 4.873,-4.178c2.795,-0 4.689,2.201 4.689,4.178l0,14.912l10.201,-0c0,-0 -0.012,-10.754 0,-12.353c0.054,-8.988 -7.734,-11.501 -11.567,-11.389m117.19,12.278c0,-0 0.004,2.571 0.004,4.029c0,3.506 -2.43,4.423 -4.029,4.423c-1.628,0 -4.021,-0.917 -4.021,-4.423c0,-1.205 0.005,-4.037 0.005,-4.037c-0,-0 -0.005,-2.883 -0.005,-4.046c0,-3.514 2.393,-4.407 4.025,-4.407c1.595,-0 4.021,0.893 4.021,4.407l0,4.054Zm-0.075,-10.11c-1.636,-0.922 -3.372,-1.811 -5.807,-2.023c-7.397,-0.652 -13.054,5.89 -13.054,11.884c-0,7.9 6.101,10.824 7.023,11.256c3.456,1.607 7.888,1.612 11.817,-0.856c0,0.212 0.005,1.313 0.005,1.313l10.147,-0l-0,-34.131l-10.131,0l0,12.557Zm32.594,14.853c-0,3.618 -2.139,5.109 -4.195,5.109c-2.061,0 -4.208,-1.491 -4.208,-5.109c-0,-1.375 0.004,-4.897 0.004,-4.897c0,0 0.004,-3.356 0.004,-4.735c0,-3.597 2.152,-5.08 4.195,-5.08c2.052,0 4.196,1.483 4.196,5.08c-0,1.379 -0,3.921 0.012,4.835c0,0.054 -0.008,3.431 -0.008,4.797m-4.116,-17.528c-8.287,-0 -15.003,5.711 -15.003,12.747c-0,7.041 6.716,12.748 15.003,12.748c8.286,-0 15.002,-5.707 15.002,-12.748c0,-7.036 -6.716,-12.747 -15.002,-12.747m-179.919,-2.916l10.289,0l-0,-6.978l-10.289,0l-0,6.978Zm0.025,27.169l10.264,0l-0,-22.7l-10.264,0l-0,22.7Zm67.334,-22.658l0,-3.377l-5.561,0l-0,-4.59l-10.272,0l0.008,4.594l-5.587,0.004l0,3.369l5.583,-0l-0.008,22.658l10.284,0l-0.008,-22.658l5.561,-0Zm-83.753,12.328l-14.717,-23.805l-10.633,0l-0.004,34.135l10.571,0l-0,-23.804l14.791,23.804l10.534,0l-0,-34.135l-10.551,0l0.009,23.805Z" style="fill:#fff;fill-rule:nonzero;"/></g></svg>