<svg clip-rule="evenodd" fill-rule="evenodd" stroke-linejoin="round" stroke-miterlimit="2" viewBox="0 0 600 356" xmlns="http://www.w3.org/2000/svg"><g fill="#fff" fill-rule="nonzero"><path d="m33.121 85.849h29.352v-65.22h-19.859v37.398h-.171l-13.094-37.398h-29.349v65.22h19.848v-37.646h.178z"/><path d="m143.85 85.849h29.349v-65.22h-19.845v37.398h-.18l-13.095-37.398h-29.346v65.22h19.856v-37.646h.171z"/><path d="m334.518 85.849h29.355v-65.22h-19.853v37.398h-.178l-13.093-37.398h-29.351v65.22h19.851v-37.646h.174z"/><path d="m74.462 20.629h24.482v65.22h-24.482z"/><path d="m195.857 38.345h-15.557v-17.716h55.642v17.716h-15.61v47.504h-24.475z"/><path d="m243.171 20.611h48.414v17.251h-24.321v6.82h22.393v16.721h-22.393v7.317h25.097v17.107h-49.19z"/><path d="m374.408 20.629h29.003c24.737 0 32.61 14.001 32.61 33.331 0 19.694-12.149 31.89-31.146 31.89h-30.467zm23.964 50.401h2.386c3.937 0 6.576-1.207 8.118-3.827 1.626-2.712 1.807-7.651 1.807-13.967 0-6.321-.186-11.251-1.807-13.967-1.542-2.622-4.181-3.829-8.118-3.829h-2.386z"/><path d="m474.395 18.918c21.312 0 31.916 13.996 31.916 34.32 0 20.329-10.607 34.329-31.916 34.329-21.314 0-31.918-14-31.918-34.329 0-20.324 10.6-34.32 31.918-34.32zm0 52.12c3.76 0 6.593-1.848 6.593-17.802 0-15.594-2.663-17.796-6.593-17.796-3.933 0-6.592 2.202-6.592 17.796 0 15.955 2.826 17.802 6.592 17.802z"/><path d="m33.121 85.849h29.352v-65.22h-19.859v37.398h-.171l-13.094-37.398h-29.349v65.22h19.848v-37.646h.178z"/><path d="m143.85 85.849h29.349v-65.22h-19.845v37.398h-.18l-13.095-37.398h-29.346v65.22h19.856v-37.646h.171z"/><path d="m334.518 85.849h29.355v-65.22h-19.853v37.398h-.178l-13.093-37.398h-29.351v65.22h19.851v-37.646h.174z"/><path d="m74.462 20.629h24.482v65.22h-24.482z"/><path d="m195.857 38.345h-15.557v-17.716h55.642v17.716h-15.61v47.504h-24.475z"/><path d="m243.171 20.611h48.414v17.251h-24.321v6.82h22.393v16.721h-22.393v7.317h25.097v17.107h-49.19z"/><path d="m550.095 11.957c-1.303-.114-2.569-.061-4.336.019-10.327.478-14.504 4.878-15.919 9.85h.249c2.572-2.248 5.751-3.297 10.009-3.297 8.19 0 15.672 5.957 15.672 17.131 0 10.692-8.219 19.019-19.251 19.019-14.532 0-20.854-11.098-20.854-22.998 0-9.668 3.43-17.856 9.06-23.136 5.358-4.964 12.267-7.471 20.722-7.665 2.24-.129 3.57 0 4.648.098zm-13.76 32.206c3.349 0 5.38-3.42 5.38-7.789-.027-3.688-1.716-7.707-6.206-7.707-2.744 0-4.881 1.738-5.689 3.837-.314.644-.431 1.562-.431 3.117.287 4.167 2.296 8.543 6.863 8.543z"/><path d="m581.376 53.8v-11.703h-21.758v-9.352l17.47-31.129h17.383v29.758h5.529v10.723h-5.529v11.703zm0-22.426v-8.967c0-3.315.199-6.758.368-10.387h-.284c-1.618 3.522-3.025 6.875-4.865 10.513l-4.274 8.686-.046.158z"/><path d="m175.371 156.951v146.729s31.742 13.331 31.742 13.331v-77.183l.012-.223.034-.216.057-.21.095-.239.124-.224.149-.207.174-.188.197-.165.216-.14.195-.097.207-.077.238-.059.242-.031.261-.001.256.031.248.062.239.092.225.12.21.148.191.173.17.198.123.183.065.117 33.684 65.397.013.026 18.756 36.414s34.429 14.566 34.429 14.566v-151.046l-33.853-12.967v75.976c0 .956-.651 1.788-1.578 2.019-.159.039-.32.059-.478.061h-.043c-.749-.007-1.454-.419-1.818-1.105l-52.434-98.788zm249.258 0-31.742 12.243v94.509c0 .908-.589 1.711-1.454 1.983-.19.06-.383.091-.574.096l-.042.001c-.669.003-1.315-.319-1.714-.888l-51.861-74.128-35.16 13.465v151.046l33.853-14.322v-89.715l.015-.248.043-.24.071-.231.096-.22.12-.207.155-.206.181-.187.199-.16.209-.129.225-.105.233-.077.244-.05.263-.02.26.014.268.048.182.054.228.095.2.111.137.095.157.131.111.109c.02.021.04.043.059.066.026.03.051.06.075.092l51.816 67.625 33.147-13.921zm-213.357 159.993 28.745-12.728-28.745-55.809zm173.403-1.388-34.544-13.272s-10.036-14.068-10.036-14.068v-30.841zm-124.765-126.831v70.162s-47.781-90.024-47.781-90.024 31.939-12.319 31.939-12.319zm128.818-19.531-33.215-12.811-18.389 20.722c-.058.091-.124.178-.197.26l-5.468 6.135 3.971 1.524 3.329 1.275c.421.161.767.45 1.002.811l48.967 69.992zm-117.211 17.63 28.486-10.917 32.198 12.334-32.199 12.334-32.194-12.333zm-24.075-32.843 15.576 31.639 6.312-2.418 27.688-49.412-31.455-12.237zm79.861 27.925 5.992-6.752v-53.114l-31.844 12.348-26.05 46.489 23.858-9.139.227-.073.233-.045.236-.019.236.008.235.035.23.062.09.032zm-87.995-27.984-30.116 11.616-30.115-11.616 30.115-11.587zm121.389-.002 30.111 11.618 30.115-11.616-30.115-11.587zm-90.305-34.952 29.609-11.401 29.612 11.439-29.609 11.482z"/></g></svg>