<svg clip-rule="evenodd" fill-rule="evenodd" stroke-linejoin="round" stroke-miterlimit="2" viewBox="0 0 600 107" xmlns="http://www.w3.org/2000/svg"><g fill="#fff" fill-rule="nonzero"><path d="m366.555 7.504-11.554 65.548-.041.244c-.257 1.569-1.677 6.683-4.681 9.348-.636.541-2.516 2.246-7.089 2.287-8.983.054-9.078-8.605-8.632-12.663l6.143-34.838.04-.311-6.169 35 11.405-64.601h-20.821l-5.222 29.601v-.013l-3.937 22.404-.136.73 4.073-23.121-.055.311-6.115 34.716c-.933 3.991-4.031 12.852-13.096 12.798-4.572-.04-5.871-1.731-6.304-2.286-2.057-2.665-1.664-7.779-1.38-9.349l.04-.243 11.568-65.535-20.794-.148-11.541 65.493c-.473 2.503-2.489 15.342 4.492 24.65 3.031 4.072 9.01 8.943 20.118 8.997 9.308.068 16.857-3.423 22.742-8.456 4.113 5.033 10.444 8.524 19.793 8.456 11.121-.054 18.792-4.925 23.283-8.997 10.282-9.308 12.772-22.147 13.191-24.65l11.54-65.493-20.861.121z"/><path d="m424.824 102.803c-4.384 2.759-8.97 3.72-14.747 3.72-13.691 0-29.087-13.015-24.555-37.962 3.978-21.809 22.012-38.26 42.887-38.26 20.307 0 34.905 12.257 30.711 35.283l-7.116 39.126h-21.525l6.075-33.484c2.34-12.839.541-20.632-11.081-20.632-10.079 0-16.749 8.74-18.345 17.344-2.029 11.297 3.166 16.749 11.243 16.749 3.936 0 7.481-.879 10.052-1.84z"/><path d="m511.639 36.348c-5.871 0-11.215 1.61-16.099 4.654l1.853-10.309h-21.511l-13.542 74.139h21.524l7.198-39.37c1.556-4.004 5.777-10.024 17.114-10.024h15.247l3.45-19.09h-15.166"/><path d="m546.72 67.803c-2.841 16.194 5.101 21.687 13.8 21.687 7.319 0 12.893-3.748 17.547-8.821l13.637 11.5c-8.767 9.118-21.498 14.354-33.16 14.354-22.39 0-37.705-14.95-33.619-38.125 4.086-23.148 22.133-38.084 44.564-38.084 17.899 0 33.945 14.936 29.872 38.084l-1.231 7.035h-45.971l2.678-15.233h23.554c1.475-7.468-3.246-13.759-11.337-13.759-9.862-.014-17.466 5.181-20.334 21.362"/><path d="m115.416 86.947c7.59 3.003 23.581 5.425 36.095 5.425 13.678 0 19.347-4.695 19.347-10.566 0-5.29-5.263-8.402-20.375-13.935-20.199-7.441-35.013-13.326-35.013-26.585 0-13.718 17.818-21.822 44.997-21.822 14.585 0 19.604.92 28.858 2.638l.054 13.028c-9.065-1.745-17.155-4.708-29.683-4.708-13.434 0-19.143 4.262-19.13 8.645 0 6.386 8.794 9.43 24.258 14.936 21.511 7.712 33.511 13.665 33.511 26.625-.041 13.367-15.004 23-48.813 23-13.894 0-23.472-.92-34.106-2.625z"/><path d="m43.36 30.977h-16.113v60.908h16.113c24.758 0 40.357-10.567 40.357-30.319.014-19.752-15.599-30.589-40.357-30.589m43.266 66.59c-7.968 3.585-23.026 5.871-36.231 5.871h-50.395v-83.785h50.409c13.177 0 28.249 2.327 36.231 5.899 19.387 8.753 25.705 22.742 25.705 36.014-.014 13.272-6.278 27.234-25.719 36.001"/><path d="m231.292.266c-16.046 0-29.061 13.015-29.061 29.074s13.015 29.074 29.061 29.074c16.045 0 29.114-13.015 29.114-29.074s-13.069-29.074-29.114-29.074m4.37 49.909h-8.7v-26.544h8.7zm-4.424-31.509c-2.801 0-5.101-2.206-5.101-4.938 0-2.706 2.3-4.911 5.101-4.911 2.935 0 5.235 2.164 5.235 4.911.014 2.773-2.3 4.938-5.235 4.938"/></g></svg>