<?xml version="1.0" encoding="UTF-8" standalone="no"?><!DOCTYPE svg PUBLIC "-//W3C//DTD SVG 1.1//EN" "http://www.w3.org/Graphics/SVG/1.1/DTD/svg11.dtd"><svg width="100%" height="100%" viewBox="0 0 600 120" version="1.1" xmlns="http://www.w3.org/2000/svg" xmlns:xlink="http://www.w3.org/1999/xlink" xml:space="preserve" xmlns:serif="http://www.serif.com/" style="fill-rule:evenodd;clip-rule:evenodd;stroke-linejoin:round;stroke-miterlimit:2;"><g id="nintendo_new3ds_xl"><path d="M570.89,119.221l-13.455,-20.651l12.925,-19.849l-7.643,-0l-9.103,13.979l-9.104,-13.979l-7.561,-0l12.883,19.78l-13.49,20.72l7.652,0l9.662,-14.847l9.671,14.847l7.563,0Z" style="fill:#fff;fill-rule:nonzero;"/><path d="M575.008,78.721l-0,30.111c-0,-0 -0.038,10.389 10.384,10.389l14.608,0l-0,-6.152l-14.118,0c-0,0 -4.267,-0.149 -4.267,-4.812l0,-29.536l-6.607,-0" style="fill:#fff;fill-rule:nonzero;"/><path d="M290.208,112.907c-0,0.642 -0.525,1.161 -1.159,1.161l-22.081,-0c-0.644,-0 -1.153,-0.519 -1.153,-1.161l-0,-15.967c-0,-0.633 0.509,-1.147 1.153,-1.147l22.081,-0c0.634,-0 1.159,0.514 1.159,1.147l-0,15.967Zm-0.956,-21.914l-22.486,0c-3.257,0 -5.902,2.664 -5.902,5.913l-0,16.043c-0,3.239 2.645,5.908 5.902,5.908l22.486,-0c3.26,-0 5.907,-2.669 5.907,-5.908l0,-16.043c0,-3.249 -2.647,-5.913 -5.907,-5.913" style="fill:#fff;fill-rule:nonzero;"/><path d="M31.378,67.002l-0,20.644l-5.159,-0l-0,-27.869l4.405,-0l20.891,20.289l-0,-20.289l5.095,-0l-0,27.869l-4.032,-0l-21.2,-20.644Z" style="fill:#fff;fill-rule:nonzero;"/><path d="M83.096,67.002l0,20.644l-5.164,-0l-0,-27.869l4.405,-0l20.886,20.289l-0,-20.289l5.097,-0l0,27.869l-4.027,-0l-21.197,-20.644Z" style="fill:#fff;fill-rule:nonzero;"/><path d="M190.263,67.002l-0,20.644l-5.156,-0l-0,-27.869l4.402,-0l20.886,20.289l-0,-20.289l5.1,-0l-0,27.869l-4.024,-0l-21.208,-20.644Z" style="fill:#fff;fill-rule:nonzero;"/><path d="M64.682,59.777l5.159,-0l-0,27.869l-5.159,-0l0,-27.869Z" style="fill:#fff;fill-rule:nonzero;"/><path d="M114.162,59.777l30.226,-0l-0,4.799l-12.432,0l-0,23.07l-5.359,-0l0,-23.07l-12.435,0l0,-4.799Z" style="fill:#fff;fill-rule:nonzero;"/><path d="M150.239,59.777l27.211,-0l-0,4.799l-22.103,0l0,6.248l17.101,0l0,4.786l-17.101,0l0,7.231l22.103,-0l-0,4.805l-27.211,-0l0,-27.869Z" style="fill:#fff;fill-rule:nonzero;"/><path d="M244.168,82.841l-15.839,-0l0,-18.265l15.839,0c4.954,0 6.719,4.919 6.719,9.125c0,4.221 -1.765,9.14 -6.719,9.14m8.466,-18.987c-2.013,-2.663 -5.007,-4.077 -8.61,-4.077l-20.667,-0l-0,27.869l20.667,-0c3.603,-0 6.597,-1.412 8.61,-4.07c1.889,-2.477 2.887,-5.888 2.887,-9.875c0,-3.966 -0.998,-7.386 -2.887,-9.847" style="fill:#fff;fill-rule:nonzero;"/><path d="M290.208,81.696c-0,0.628 -0.525,1.15 -1.159,1.15l-22.081,0c-0.644,0 -1.153,-0.522 -1.153,-1.15l-0,-15.975c-0,-0.628 0.509,-1.14 1.153,-1.14l22.081,0c0.634,0 1.159,0.512 1.159,1.14l-0,15.975Zm-0.956,-21.919l-22.486,-0c-3.257,-0 -5.902,2.666 -5.902,5.912l-0,16.052c-0,3.233 2.645,5.905 5.902,5.905l22.486,-0c3.26,-0 5.907,-2.672 5.907,-5.905l0,-16.052c0,-3.246 -2.647,-5.912 -5.907,-5.912" style="fill:#fff;fill-rule:nonzero;"/><path d="M456.855,107.162c5.364,2.112 16.646,3.817 25.461,3.817c9.644,-0 13.649,-3.306 13.649,-7.458c0,-3.736 -3.723,-5.92 -14.379,-9.819c-14.232,-5.268 -24.683,-9.423 -24.683,-18.771c-0,-9.686 12.571,-15.383 31.744,-15.383c10.28,-0 13.817,0.655 20.355,1.848l0.045,9.194c-6.421,-1.225 -12.102,-3.311 -20.941,-3.311c-9.468,0 -13.514,2.999 -13.514,6.102c0,4.498 6.225,6.642 17.131,10.528c15.17,5.433 23.618,9.625 23.618,18.781c-0,9.426 -10.573,16.225 -34.421,16.225c-9.798,0 -16.552,-0.642 -24.065,-1.848l0,-9.905Z" style="fill:#fff;fill-rule:nonzero;"/><path d="M406.098,67.674l-11.353,-0l-0,42.956l11.353,-0c17.431,-0 28.409,-7.442 28.409,-21.394c0,-13.937 -10.978,-21.562 -28.409,-21.562m30.468,46.964c-5.614,2.533 -16.233,4.157 -25.517,4.157l-35.48,0l-0,-59.122l35.48,0c9.284,0 19.903,1.641 25.522,4.173c13.66,6.166 18.129,16.039 18.129,25.39c0,9.366 -4.426,19.223 -18.134,25.402" style="fill:#fff;fill-rule:nonzero;"/><path d="M350.707,86.442c0,-0 16.55,-2.642 16.55,-12.944c-0,-10.078 -17.626,-14.2 -36.375,-14.2c-16.918,-0 -28.045,2.069 -28.045,2.069l0,9.154c7.681,-1.859 15.029,-3.444 25.043,-3.444c10.744,-0 18.941,3.204 18.941,7.739c0,5.458 -8.104,8.574 -25.567,8.574l-8.022,-0l0,8.237l7.46,0c18.382,0 28.841,2.762 28.841,9.513c-0,6.022 -9.343,9.679 -20.987,9.679c-10.16,-0 -19.447,-2.157 -26.987,-4.24l-0,9.862c3.617,0.621 13.226,2.546 31.107,2.546c19.82,0 37.052,-6.368 37.052,-17.599c-0,-9.415 -11.94,-14.946 -19.011,-14.946" style="fill:#fff;fill-rule:nonzero;"/><path d="M13.307,22.683l-12.254,-1.617c-0.367,-0.051 -0.708,0.213 -0.751,0.581c-0.399,3.419 -0.402,6.874 -0.013,10.288c0.043,0.373 0.384,0.634 0.754,0.586l12.253,-1.601c0.363,-0.045 0.613,-0.373 0.573,-0.735c-0.242,-2.242 -0.24,-4.511 0.008,-6.765c0.04,-0.356 -0.208,-0.687 -0.57,-0.737" style="fill:#fff;fill-rule:nonzero;"/><path d="M19.524,7.949l-9.806,-7.526c-0.293,-0.226 -0.716,-0.173 -0.937,0.122c-2.059,2.768 -3.79,5.759 -5.157,8.912c-0.149,0.338 0.016,0.735 0.36,0.876l11.412,4.746c0.336,0.141 0.719,-0.016 0.863,-0.346c0.914,-2.07 2.051,-4.035 3.39,-5.857c0.216,-0.293 0.163,-0.703 -0.125,-0.927" style="fill:#fff;fill-rule:nonzero;"/><path d="M15.29,38.553l-11.425,4.722c-0.339,0.141 -0.506,0.538 -0.357,0.879c1.363,3.164 3.089,6.158 5.137,8.922c0.219,0.296 0.645,0.352 0.938,0.125l9.819,-7.51c0.288,-0.219 0.344,-0.631 0.128,-0.924c-1.334,-1.822 -2.466,-3.79 -3.377,-5.86c-0.144,-0.335 -0.527,-0.495 -0.863,-0.354" style="fill:#fff;fill-rule:nonzero;"/><path d="M106.665,35.568l-10.126,-0c-0.628,-0 -0.99,0.146 -1.169,0.247c-0.043,0.03 -0.085,0.059 -0.13,0.088c-0.003,0.003 -0.011,0.008 -0.011,0.008c-1.566,1.042 -3.795,1.987 -6.664,1.987c-7.649,0 -10.504,-6.331 -10.504,-11.066c0,-5.052 3.058,-11.061 10.552,-11.061c5.447,0 8.8,3.388 9.657,6.731c0.096,0.383 0.192,0.756 -0.202,0.756l-14.621,-0c-0.421,-0 -0.765,0.341 -0.765,0.762l0,6.285c0,0.423 0.344,0.767 0.765,0.767l20.193,0c4.176,0 5.278,-1.31 5.278,-5.231c0,-11.361 -9.359,-19.479 -20.148,-19.479c-10.788,0 -20.384,8.262 -20.384,19.192c-0,12.011 6.735,21.753 20.432,21.753c11.413,0 16.483,-6.788 18.577,-10.956c0.08,-0.179 0.285,-0.783 -0.73,-0.783" style="fill:#fff;fill-rule:nonzero;"/><path d="M26.773,46.295c-0.301,0 -0.546,-0.247 -0.546,-0.546l-0,-22.361c-0,-8.487 7.09,-16.975 18.608,-16.975c11.519,-0 18.611,8.488 18.611,16.975l0,22.361c0,0.299 -0.247,0.546 -0.548,0.546l-9.157,0c-0.303,0 -0.548,-0.247 -0.548,-0.546l-0,-21.058c-0,-4.006 -2.911,-8.027 -8.358,-8.027c-5.449,-0 -8.36,4.021 -8.36,8.027l0,21.058c0,0.299 -0.245,0.546 -0.546,0.546l-9.156,0Z" style="fill:#fff;fill-rule:nonzero;"/><path d="M144.558,7.374c0.307,0 0.549,0.245 0.549,0.546l-0,23.195c-0,4.003 1.752,5.891 4.57,5.891c2.815,-0 4.89,-1.888 4.89,-5.891l-0,-23.195c-0,-0.301 0.242,-0.546 0.546,-0.546l9.638,0c0.301,0 0.546,0.245 0.546,0.546l0,23.97c0,9.449 -6.33,15.364 -14.019,15.364c-3.255,0 -8.254,-0.836 -11.857,-5.478c-2.962,4.642 -7.753,5.478 -11.215,5.478c-7.686,0 -14.02,-5.915 -14.02,-15.364l0,-23.97c0,-0.301 0.245,-0.546 0.549,-0.546l9.638,0c0.301,0 0.544,0.245 0.544,0.546l-0,23.195c-0,4.003 2.189,5.891 4.889,5.891c2.704,-0 4.571,-1.888 4.571,-5.891l-0,-23.195c-0,-0.301 0.247,-0.546 0.548,-0.546l9.633,0Z" style="fill:#fff;fill-rule:nonzero;"/><path d="M180.041,30.958l12.254,1.616c0.368,0.051 0.711,-0.208 0.754,-0.578c0.399,-3.417 0.405,-6.874 0.01,-10.288c-0.042,-0.368 -0.38,-0.631 -0.751,-0.581l-12.253,1.596c-0.363,0.048 -0.613,0.373 -0.573,0.735c0.245,2.242 0.242,4.514 -0.008,6.764c-0.04,0.36 0.208,0.69 0.567,0.736" style="fill:#fff;fill-rule:nonzero;"/><path d="M173.83,45.688l9.801,7.532c0.299,0.224 0.719,0.17 0.94,-0.128c2.059,-2.762 3.782,-5.747 5.154,-8.909c0.149,-0.335 -0.016,-0.735 -0.357,-0.873l-11.412,-4.749c-0.336,-0.138 -0.717,0.016 -0.866,0.352c-0.908,2.069 -2.048,4.029 -3.39,5.854c-0.213,0.29 -0.162,0.703 0.13,0.921" style="fill:#fff;fill-rule:nonzero;"/><path d="M178.057,15.092l11.426,-4.727c0.346,-0.138 0.508,-0.533 0.359,-0.876c-1.363,-3.162 -3.087,-6.155 -5.135,-8.917c-0.221,-0.298 -0.644,-0.351 -0.937,-0.128l-9.82,7.513c-0.285,0.219 -0.346,0.629 -0.125,0.922c1.329,1.819 2.461,3.787 3.372,5.862c0.149,0.333 0.53,0.492 0.86,0.351" style="fill:#fff;fill-rule:nonzero;"/></g></svg>