<svg clip-rule="evenodd" fill-rule="evenodd" stroke-linejoin="round" stroke-miterlimit="2" viewBox="0 0 600 288" xmlns="http://www.w3.org/2000/svg"><path d="m327.808 16.372-50.709 198.634s-38.691-149.094-44.992-170.249c-6.295-21.17-19.293-30.448-37.681-30.448-18.398 0-31.391 9.278-37.677 30.448-6.31 21.155-45.045 170.249-45.045 170.249l-50.665-198.634h-61.039s58.588 211.919 66.554 236.459c6.229 19.16 20.888 34.829 42.666 34.829 24.899 0 36.532-18.149 41.918-34.829 5.333-16.559 43.288-156.548 43.288-156.548s37.93 139.989 43.292 156.548c5.338 16.68 17.015 34.829 41.9 34.829 21.763 0 36.446-15.669 42.655-34.829 7.947-24.54 66.545-236.459 66.545-236.459h-61.01zm209.305 269.239h57.764v-186.934h-57.764zm-5.582-252.263c0 18.01 15.157 32.622 33.837 32.622 19.394 0 34.632-14.334 34.632-32.622 0-18.336-15.238-32.679-34.632-32.679-18.68 0-33.837 14.645-33.837 32.679m-111.839 252.263h57.741v-186.934h-57.741zm28.212-284.942c19.413 0 34.628 14.343 34.628 32.679 0 18.288-15.215 32.622-34.628 32.622-18.69 0-33.866-14.612-33.866-32.622 0-18.034 15.176-32.679 33.866-32.679" fill="#fff" fill-rule="nonzero"/></svg>