<svg clip-rule="evenodd" fill-rule="evenodd" stroke-linejoin="round" stroke-miterlimit="2" viewBox="0 0 600 221" xmlns="http://www.w3.org/2000/svg"><g fill="#fff" fill-rule="nonzero"><path d="m185.781 46.717h-157.488c-13.455.046-21.633-8.985-21.633-20.064 0-11.081 8.23-20.039 21.633-20.064h157.488c13.403.025 21.63 8.983 21.63 20.064 0 11.079-8.175 20.11-21.63 20.064m.076-46.672h-157.64c-16.88-.04-28.217 12.096-28.217 26.645 0 14.545 11.31 26.541 28.242 26.547h157.591c16.928-.006 28.241-12.002 28.241-26.547 0-14.549-11.34-26.685-28.217-26.645m-76.894 24.96c.588-1.027 1.669-1.518 2.647-1.521.981.003 2.063.494 2.648 1.521.481.832.503 1.807.494 3.263h-6.286c-.012-1.456.018-2.431.497-3.263m13.692 5.856c0-5.162-4.988-9.439-11.112-9.439-6.121 0-11.087 4.183-11.087 9.347 0 5.162 4.966 9.348 11.087 9.348 5.086 0 9.372-2.897 10.683-6.831l-7.505.006s.006.073.006 1.009c0 3.047-2.002 3.723-3.117 3.723-1.109 0-3.147-.676-3.147-3.723 0-.911.006-3.437.006-3.437s14.186.006 14.186-.003m15.762-9.162c-2.493.07-4.564 1.136-6.009 2.511-.006-.412 0-1.749 0-1.749l-7.471.003-.003 16.651h7.474s-.006-10.229-.006-10.938c0-1.451 1.524-3.066 3.574-3.066 2.054 0 3.44 1.615 3.44 3.066v10.938h7.483s-.003-7.889 0-9.062c.043-6.593-5.67-8.436-8.482-8.354m-61.197 0c-2.489.07-4.564 1.136-6.005 2.511-.006-.412 0-1.749 0-1.749l-7.483.003.006 16.651h7.477s-.006-10.229-.006-10.938c0-1.451 1.523-3.066 3.574-3.066 2.05 0 3.44 1.615 3.44 3.066v10.938h7.483s-.009-7.889 0-9.062c.039-6.593-5.674-8.436-8.486-8.354m85.965 9.006s.003 1.886.003 2.956c0 2.572-1.783 3.245-2.956 3.245-1.194 0-2.949-.673-2.949-3.245 0-.884.003-2.962.003-2.962s-.003-2.114-.003-2.967c0-2.578 1.755-3.233 2.952-3.233 1.17 0 2.95.655 2.95 3.233zm-.055-7.416c-1.2-.676-2.474-1.328-4.26-1.483-5.426-.479-9.576 4.32-9.576 8.717 0 5.795 4.476 7.94 5.152 8.257 2.535 1.179 5.786 1.182 8.669-.628 0 .155.003.963.003.963h7.443v-25.036h-7.431zm23.909 10.896c0 2.654-1.569 3.748-3.077 3.748-1.512 0-3.087-1.094-3.087-3.748 0-1.009.003-3.592.003-3.592s.003-2.462.003-3.474c0-2.638 1.578-3.726 3.077-3.726 1.506 0 3.078 1.088 3.078 3.726 0 1.012 0 2.877.009 3.547 0 .039-.006 2.517-.006 3.519m-3.02-12.858c-6.078 0-11.005 4.19-11.005 9.351 0 5.165 4.927 9.351 11.005 9.351 6.079 0 11.006-4.186 11.006-9.351 0-5.161-4.927-9.351-11.006-9.351m-131.978-2.139h7.547v-5.119h-7.547zm.018 19.93h7.529v-16.651h-7.529zm49.393-16.621v-2.477h-4.08v-3.367h-7.535l.006 3.37-4.098.003v2.471h4.095l-.006 16.621h7.544l-.006-16.621zm-61.437 9.043-10.795-17.461h-7.8l-.003 25.039h7.754v-17.462l10.85 17.462h7.727v-25.039h-7.739z"/><path d="m0 65.839 32.286 154.8 32.119-154.8h-17.384l-14.735 87.003-14.901-87.003z"/><path d="m71.524 65.839h17.384v154.8h-17.384z"/><path d="m104.46 65.821v154.826h17.391v-79.996l24.182 79.992h16.033l-19.346-73.198c10.748-6.45 13.912-14.891 13.912-14.891v-49.181c-7.122-15.811-19.402-17.552-19.402-17.552zm17.391 15.759h17.39v53.8h-17.39z"/><path d="m162.087 65.839h51.987v15.726h-17.385v139.073h-17.384v-139.071h-17.218z"/><path d="m310.26 65.821-33.586 154.66v.162h17.227l3.642-20.867h24.291l3.478 20.867h17.391zm0 66.732 7.935 53.311h-17.175z"/><path d="m349.669 65.839h17.386v139.071h25.997v15.728h-43.38z"/><path d="m535.599 65.839h15.894l16.224 66.723 14.736-66.723h17.547l-24.337 91.059v63.74h-17.384v-63.739z"/><path d="m504.401 65.839c-19.759 0-26.11 17.535-26.11 17.535.162.249 0 116.408 0 119.719 2.619 18.816 26.11 17.546 26.11 17.546 26.066 0 26.057-17.546 26.057-17.546v-119.72c-6.739-18.402-26.057-17.534-26.057-17.534zm-8.722 17.534h17.392v121.512h-17.392z"/><path d="m220.861 65.839h17.551v137.252h17.55v-137.252h17.218v137.252s-5.629 17.548-25.331 17.548c-19.701 0-26.988-17.548-26.988-17.548z"/><path d="m412.262 65.821v154.826h34.944c16.219-4.224 17.224-15.762 17.224-15.762s-.025-41.353-.025-52.043c-1.218-6.747-6.765-6.974-6.765-6.974s-.023-1.88 0-3.37c6.131-.47 6.792-7.12 6.792-7.12s-.025-41.313 0-52.007c-2.653-12.627-17.226-17.55-17.226-17.55zm17.444 17.66h17.498v51.898h-17.498zm-.053 67.605h17.551v53.799h-17.551z"/></g></svg>