<?xml version="1.0" encoding="UTF-8" standalone="no"?><!DOCTYPE svg PUBLIC "-//W3C//DTD SVG 1.1//EN" "http://www.w3.org/Graphics/SVG/1.1/DTD/svg11.dtd"><svg width="100%" height="100%" viewBox="0 0 600 640" version="1.1" xmlns="http://www.w3.org/2000/svg" xmlns:xlink="http://www.w3.org/1999/xlink" xml:space="preserve" xmlns:serif="http://www.serif.com/" style="fill-rule:evenodd;clip-rule:evenodd;stroke-linejoin:round;stroke-miterlimit:2;"><g id="nintendo_switch_tall"><g><path d="M449.049,559.408c10.782,0 20.613,5.708 26.004,14.905l15.539,-13.319c-9.514,-13.954 -25.053,-22.516 -42.178,-22.516c-27.907,-0 -50.74,22.833 -50.74,50.74c0,27.907 22.833,50.74 50.74,50.74c17.125,-0 32.664,-8.246 42.178,-22.516l-15.539,-13.319c-5.391,8.879 -15.222,14.904 -26.004,14.904c-16.491,0 -30.127,-13.319 -30.127,-29.492c-0,-16.173 13.319,-30.127 30.127,-30.127Z" style="fill:#fff;"/><path d="M44.715,578.753l-0.635,-0c-11.733,-1.903 -21.564,-3.806 -22.516,-10.465c0,-0.952 0,-3.172 1.586,-5.392c3.171,-3.805 10.465,-5.391 21.247,-5.391c12.368,0 24.736,4.757 29.176,6.66l6.66,-16.491c-4.757,-1.902 -19.979,-7.293 -36.787,-7.293c-20.613,-0 -42.495,10.148 -42.495,28.541c0,14.905 10.465,22.833 37.738,27.59c19.345,3.171 29.81,5.074 29.493,13.319c-0.317,4.44 -3.806,12.051 -25.37,12.051c-17.442,-0 -29.81,-6.343 -33.933,-8.88l-8.879,16.173c4.757,2.537 20.93,10.148 41.543,10.148c30.127,0 46.301,-10.465 46.301,-30.444c0.317,-14.27 -6.66,-23.784 -43.129,-30.126Z" style="fill:#fff;"/><rect x="257.822" y="541.332" width="21.247" height="95.137" style="fill:#fff;"/><path d="M576.216,578.753l-44.398,-0l0,-37.421l-19.662,-0l0,95.137l19.662,0l0,-38.055l44.398,0l-0,38.055l19.661,0l0,-95.137l-19.661,-0l-0,37.421Z" style="fill:#fff;"/><path d="M383.087,561.311l-0,-20.296l-80.55,-0l-0,20.296l30.127,-0l-0,74.841l20.613,0l-0,-74.841l29.81,-0Z" style="fill:#fff;"/><path d="M195.349,610.148l-20.296,-69.133l-16.808,-0l-19.979,68.816l-18.393,-68.816l-20.613,-0l26.956,95.137l22.833,0l17.759,-62.79l17.759,62.79l22.833,0l26.955,-95.137l-20.613,-0l-18.393,69.133Z" style="fill:#fff;"/><path d="M337.104,506.131l-28.859,0l0,-11.734l26.639,0l-0,-9.196l-26.639,-0l0,-10.782l28.859,-0l-0,-9.197l-39.324,-0l0,50.423l39.324,-0l-0,-9.514Z" style="fill:#fff;"/><path d="M14.905,481.712l25.053,33.616l9.831,-0l-0,-50.423l-10.148,-0l-0,33.298l-24.736,-32.981l-10.148,-0l-0,50.423l10.148,-0l-0,-33.933Z" style="fill:#fff;"/><path d="M147.463,481.712l25.053,33.616l9.831,-0l-0,-50.423l-10.148,-0l-0,33.298l-24.736,-32.981l-10.148,-0l0,50.423l10.148,-0l0,-33.933Z" style="fill:#fff;"/><path d="M423.996,515.645l-0,-50.74l-10.148,-0l-0,33.298l-24.736,-32.981l-10.148,-0l0,50.423l10.148,-0l0,-33.615l25.053,33.615l9.831,-0Z" style="fill:#fff;"/><rect x="88.161" y="464.905" width="11.099" height="50.423" style="fill:#fff;"/><path d="M260.994,464.905l-42.812,-0l-0,10.782l16.173,0l0,39.641l10.782,-0l0,-39.641l15.857,0l-0,-10.782Z" style="fill:#fff;"/><path d="M573.044,463.319c-14.904,0 -26.955,12.051 -26.955,26.956c-0,14.905 12.051,26.955 26.955,26.955c14.905,0 26.956,-12.05 26.956,-26.955c-0.317,-14.905 -12.368,-26.956 -26.956,-26.956Zm0,42.495c-8.562,-0 -15.539,-6.977 -15.539,-15.539c0,-8.563 6.977,-15.539 15.539,-15.539c8.563,-0 15.54,6.976 15.54,15.539c-0,8.562 -6.977,15.539 -15.54,15.539Z" style="fill:#fff;"/><path d="M487.421,464.905l-20.931,-0l0,50.423l20.931,-0c14.27,-0 26.004,-11.417 26.004,-25.053c-0,-13.954 -11.734,-25.37 -26.004,-25.37Zm0.634,39.958l-11.099,-0l-0,-29.176l11.099,0c7.928,0 14.588,6.66 14.588,14.588c-0,7.928 -6.66,14.588 -14.588,14.588Z" style="fill:#fff;"/></g><g><path d="M292.072,-0l-88.161,-0c-57.082,-0 -103.382,46.3 -103.382,103.383l-0,196.617c-0,57.082 46.3,103.383 103.382,103.383l88.161,-0c1.586,-0 2.854,-1.269 2.854,-2.854l0,-397.675c0,-1.586 -1.268,-2.854 -2.854,-2.854Zm-29.493,371.036l-58.668,-0c-19.027,-0 -36.786,-7.294 -50.106,-20.93c-13.319,-13.32 -20.93,-31.079 -20.93,-50.106l0,-196.617c0,-19.028 7.294,-36.787 20.93,-50.106c13.32,-13.319 31.079,-20.93 50.106,-20.93l58.668,-0l0,338.689Z" style="fill:#fff;"/><path d="M338.372,403.383l62.157,-0c57.082,-0 103.382,-46.301 103.382,-103.383l0,-196.617c0,-57.083 -46.3,-103.383 -103.382,-103.383l-62.474,-0c-1.586,-0 -2.537,1.268 -2.537,2.537l-0,397.992c-0,1.585 1.268,2.854 2.854,2.854Zm76.744,-222.305c22.516,0 40.909,18.393 40.909,40.909c0,22.516 -18.393,40.909 -40.909,40.909c-22.516,0 -40.909,-18.393 -40.909,-40.909c0.317,-22.516 18.393,-40.909 40.909,-40.909Z" style="fill:#fff;"/><path d="M163.319,121.142c0,20.93 17.125,38.055 38.055,38.055c20.93,-0 38.055,-17.125 38.055,-38.055c0,-20.931 -17.125,-38.055 -38.055,-38.055c-21.247,-0 -38.055,16.807 -38.055,38.055Z" style="fill:#fff;"/></g></g></svg>