<svg clip-rule="evenodd" fill-rule="evenodd" stroke-linejoin="round" stroke-miterlimit="2" viewBox="0 0 600 80" xmlns="http://www.w3.org/2000/svg"><g fill="#fff"><g fill-rule="nonzero"><path d="m127.641 76.557v-6.464h20.567c2.293 0 3.439-1.001 3.439-3.004 0-1.958-1.146-2.938-3.439-2.938h-10.294c-3.613 0-6.377-.805-8.293-2.416-1.9-1.625-2.851-3.954-2.851-6.986 0-3.033.936-5.354 2.808-6.965 1.886-1.625 4.563-2.437 8.031-2.437h23.136v6.529h-20.481c-2.35 0-3.526.958-3.526 2.873 0 1.959 1.176 2.938 3.526 2.938h10.512c3.526 0 6.211.813 8.053 2.438 1.858 1.61 2.786 3.932 2.786 6.964 0 3.077-.928 5.427-2.786 7.052-1.842 1.611-4.527 2.416-8.053 2.416z"/><path d="m178.488 76.557c-4.237 0-7.56-1.023-9.968-3.069-2.409-2.046-3.613-5.332-3.613-9.859v-18.282h9.968v18.347c0 2.177.558 3.744 1.676 4.701 1.117.958 2.575 1.437 4.374 1.437h8.401v-24.485h9.969v31.21z"/><path d="m204.714 76.557v-31.21h20.567c4.658 0 8.075.928 10.252 2.786 2.191 1.842 3.286 4.367 3.286 7.574 0 3.163-1.081 5.673-3.243 7.53-2.162 1.843-5.593 2.764-10.295 2.764h-10.599v10.556zm23.615-20.829c0-2.611-1.604-3.917-4.81-3.917h-8.837v7.791h8.837c3.206 0 4.81-1.291 4.81-3.874z"/><path d="m275.011 51.811h-12.863c-3.12 0-5.376.479-6.769 1.436-1.378.958-2.191 2.394-2.437 4.31h22.069v6.398h-22.069c.101 1.872.841 3.352 2.22 4.44 1.393 1.089 3.721 1.633 6.986 1.633h12.863v6.529h-14.125c-5.993 0-10.513-1.306-13.56-3.918-3.032-2.626-4.548-6.522-4.548-11.687 0-5.166 1.516-9.054 4.548-11.666 3.047-2.626 7.567-3.939 13.56-3.939h14.125z"/><path d="m304.302 54.72c0-2.858-1.603-2.909-4.81-2.909h-10.142v7.284h10.142c3.207 0 4.81-1.458 4.81-4.375zm-5.934 10.773h-9.018v11.064h-9.968v-31.21h22.526c4.367 0 7.603 1.001 9.707 3.003 2.118 1.988 3.178 3.185 3.178 6.348 0 3.207-1.045 5.804-3.135 7.792-1.059 1.016-2.408 1.77-4.048 2.264l8.589 11.803h-10.375z"/><path d="m335.113 60.952c0-5.166 1.516-9.054 4.549-11.666 3.047-2.626 7.567-3.939 13.559-3.939h14.125v6.464h-12.863c-3.119 0-5.375.479-6.768 1.436-1.379.958-2.191 2.394-2.438 4.31h22.069v6.398h-22.265v12.602h-9.968z"/><path d="m381.507 76.557c-3.671 0-6.5-.849-8.488-2.546-1.988-1.713-2.982-4.078-2.982-7.096 0-3.003.994-5.354 2.982-7.051 1.988-1.713 4.817-2.569 8.488-2.569h13.843v-1.131c0-1.582-.378-2.692-1.132-3.33-.74-.639-2.024-.958-3.853-.958h-17.955v-6.529h18.325c5.151 0 8.866.979 11.144 2.938 2.292 1.959 3.439 5.158 3.439 9.598v18.674zm13.843-12.863h-11.166c-2.684 0-4.026 1.074-4.026 3.221 0 2.162 1.342 3.243 4.026 3.243h11.166z"/><path d="m447.78 76.557v-18.674c0-2.089-.522-3.577-1.567-4.462-1.044-.899-2.778-1.349-5.202-1.349h-2.067v24.485h-9.968v-24.485h-8.401v24.485h-9.969v-31.21h32.103c5.253 0 9.069 1.023 11.448 3.068 2.38 2.046 3.57 5.333 3.57 9.86v18.282z"/><path d="m460.667 45.347h9.968v31.21h-9.968z"/><path d="m507.482 51.941h-11.949c-3.628 0-6.254.704-7.879 2.112-1.625 1.407-2.438 3.707-2.438 6.899s.799 5.492 2.395 6.899c1.596 1.408 4.215 2.111 7.857 2.111h12.014v6.595h-14.496c-5.861 0-10.28-1.306-13.254-3.918-2.975-2.626-4.462-6.522-4.462-11.687 0-5.151 1.487-9.04 4.462-11.666 2.974-2.626 7.393-3.939 13.254-3.939h14.496z"/><path d="m548.65 61.416c0 2.699-.45 5.035-1.35 7.008-.899 1.959-2.198 3.577-3.895 4.854-1.684 1.262-3.737 2.205-6.16 2.829-2.408.609-5.151.914-8.227.914s-5.825-.305-8.249-.914c-2.408-.624-4.454-1.567-6.137-2.829-1.683-1.277-2.982-2.895-3.896-4.854-.9-1.973-1.349-4.309-1.349-7.008s.449-5.028 1.349-6.986c.914-1.974 2.213-3.592 3.896-4.854 1.683-1.277 3.729-2.22 6.137-2.829 2.424-.624 5.173-.936 8.249-.936s5.819.312 8.227.936c2.423.609 4.476 1.552 6.16 2.829 1.697 1.262 2.996 2.88 3.895 4.854.9 1.958 1.35 4.287 1.35 6.986zm-19.632 9.01c6.442 0 9.664-3.003 9.664-9.01s-3.222-9.011-9.664-9.011-9.663 3.004-9.663 9.011 3.221 9.01 9.663 9.01z"/><path d="m590.054 76.557v-18.674c0-2.089-.523-3.577-1.567-4.462-1.045-.899-2.779-1.349-5.202-1.349h-2.068v24.485h-9.968v-24.485h-8.401v24.485h-9.968v-31.21h32.102c5.253 0 9.069 1.023 11.449 3.068 2.379 2.046 3.569 5.333 3.569 9.86v18.282z"/></g><path d="m164.848 13.453h9.159v20.257h-9.159z"/><path d="m224.937 13.49v-3.014h-4.964v-4.096h-9.166l.007 4.1-4.985.004v3.006h4.981l-.007 20.22h9.178l-.008-20.22z"/><path d="m150.195 24.491-13.132-21.243h-9.489l-.004 30.462h9.433v-21.243l13.2 21.243h9.4v-30.462h-9.415z"/><path d="m269.906 12.519c-3.032.085-5.553 1.382-7.31 3.054-.007-.501 0-2.128 0-2.128l-9.088.004-.004 20.257h9.092s-.007-12.443-.007-13.307c0-1.764 1.853-3.729 4.348-3.729 2.498 0 4.185 1.965 4.185 3.729v13.307h9.103s-.003-9.597 0-11.024c.052-8.021-6.898-10.264-10.319-10.163z"/><path d="m195.457 12.519c-3.028.085-5.552 1.382-7.305 3.054-.008-.501 0-2.128 0-2.128l-9.104.004.007 20.257h9.097s-.008-12.443-.008-13.307c0-1.764 1.854-3.729 4.348-3.729 2.495 0 4.185 1.965 4.185 3.729v13.307h9.104s-.012-9.597 0-11.024c.048-8.021-6.902-10.264-10.324-10.163z"/><path d="m325.384 12.066c-7.395 0-13.389 5.097-13.389 11.376 0 6.283 5.994 11.376 13.389 11.376 7.394 0 13.388-5.093 13.388-11.376 0-6.279-5.994-11.376-13.388-11.376zm3.673 15.642c0 3.229-1.909 4.56-3.744 4.56-1.838 0-3.755-1.331-3.755-4.56 0-1.226.004-4.37.004-4.37s.004-2.995.004-4.225c0-3.21 1.92-4.534 3.743-4.534 1.832 0 3.744 1.324 3.744 4.534 0 1.23 0 3.499.011 4.314 0 .048-.007 3.062-.007 4.281z"/><path d="m299.971 14.453c-1.461-.822-3.01-1.616-5.182-1.805-6.602-.582-11.65 5.256-11.65 10.605 0 7.05 5.445 9.66 6.268 10.045 3.084 1.435 7.039 1.438 10.545-.763 0 .189.004 1.171.004 1.171h9.055v-30.458h-9.04zm.066 9.022s.004 2.295.004 3.596c0 3.128-2.168 3.947-3.595 3.947-1.453 0-3.588-.819-3.588-3.947 0-1.075.003-3.603.003-3.603s-.003-2.572-.003-3.61c0-3.136 2.135-3.933 3.591-3.933 1.424 0 3.588.797 3.588 3.933z"/><path d="m250.731 23.664c0-6.279-6.068-11.483-13.518-11.483-7.447 0-13.489 5.089-13.489 11.372 0 6.279 6.042 11.372 13.489 11.372 6.186 0 11.402-3.525 12.996-8.31l-9.13.007s.008.089.008 1.227c0 3.707-2.436 4.53-3.792 4.53-1.35 0-3.829-.823-3.829-4.53 0-1.108.007-4.181.007-4.181s17.258.008 17.258-.004zm-16.657-7.124c.715-1.249 2.031-1.846 3.221-1.849 1.193.003 2.509.6 3.221 1.849.585 1.012.611 2.198.6 3.97h-7.647c-.015-1.772.023-2.958.605-3.97z"/><path d="m164.826 3.237h9.181v6.227h-9.181z"/><path d="m90.659 20.822c-2.785-.002-5.541.561-8.103 1.655-7.598 3.248-12.539 10.773-12.505 19.044 5.292.035 10.366 1.976 14.139 5.406 4.222 3.84 6.429 9.197 6.038 14.66l.468.461c8.331-.022 15.863-5.105 19.01-12.827 3.147-7.723 1.316-16.629-4.623-22.479-3.846-3.788-9.029-5.915-14.424-5.92z" fill-rule="nonzero"/><path d="m49.633.343c-2.785-.002-5.541.561-8.103 1.656-7.598 3.247-12.54 10.772-12.505 19.043 5.292.036 10.366 1.976 14.139 5.406 4.222 3.84 6.428 9.197 6.037 14.66l.469.461c8.331-.022 15.863-5.104 19.01-12.827 3.147-7.722 1.316-16.629-4.623-22.479-3.846-3.788-9.029-5.915-14.424-5.92z" fill-rule="nonzero"/><ellipse cx="23.561" cy="47.452" rx="23.561" ry="11.834"/><ellipse cx="64.58" cy="68.081" rx="23.561" ry="11.834"/></g></svg>