<?xml version="1.0" encoding="UTF-8" standalone="no"?><!DOCTYPE svg PUBLIC "-//W3C//DTD SVG 1.1//EN" "http://www.w3.org/Graphics/SVG/1.1/DTD/svg11.dtd"><svg width="100%" height="100%" viewBox="0 0 600 261" version="1.1" xmlns="http://www.w3.org/2000/svg" xmlns:xlink="http://www.w3.org/1999/xlink" xml:space="preserve" xmlns:serif="http://www.serif.com/" style="fill-rule:evenodd;clip-rule:evenodd;stroke-linejoin:round;stroke-miterlimit:2;"><g id="nintendo_wii"><g><path d="M432.795,93.904l-31.149,122.019c-0,-0 -23.768,-91.587 -27.639,-104.583c-3.867,-13.004 -11.851,-18.704 -23.147,-18.704c-11.302,0 -19.283,5.7 -23.144,18.704c-3.876,12.996 -27.671,104.583 -27.671,104.583l-31.123,-122.019l-37.496,-0c0,-0 35.99,130.18 40.884,145.254c3.826,11.77 12.831,21.395 26.209,21.395c15.295,-0 22.441,-11.149 25.75,-21.395c3.276,-10.172 26.591,-96.165 26.591,-96.165c0,-0 23.3,85.993 26.594,96.165c3.279,10.246 10.452,21.395 25.738,21.395c13.37,-0 22.389,-9.625 26.203,-21.395c4.882,-15.074 40.878,-145.254 40.878,-145.254l-37.478,-0Zm128.574,165.39l35.484,0l0,-114.831l-35.484,-0l0,114.831Zm-3.429,-154.962c-0,11.064 9.311,20.039 20.786,20.039c11.913,0 21.274,-8.805 21.274,-20.039c-0,-11.263 -9.361,-20.074 -21.274,-20.074c-11.475,-0 -20.786,8.996 -20.786,20.074m-68.701,154.962l35.469,0l0,-114.831l-35.469,-0l-0,114.831Zm17.33,-175.036c11.925,-0 21.271,8.811 21.271,20.074c0,11.234 -9.346,20.039 -21.271,20.039c-11.481,0 -20.803,-8.975 -20.803,-20.039c-0,-11.078 9.322,-20.074 20.803,-20.074" style="fill:#fff;fill-rule:nonzero;"/></g><path d="M253.264,63.809l-214.693,0c-18.343,0.062 -29.491,-12.249 -29.491,-27.352c-0,-15.106 11.219,-27.318 29.491,-27.351l214.693,-0c18.272,0.033 29.486,12.245 29.486,27.351c0,15.103 -11.144,27.414 -29.486,27.352m0.104,-63.625l-214.901,-0c-23.011,-0.054 -38.467,16.49 -38.467,36.323c-0,19.83 15.418,36.183 38.5,36.191l214.834,-0c23.078,-0.008 38.5,-16.361 38.5,-36.191c0,-19.833 -15.459,-36.377 -38.466,-36.323m-104.826,34.026c0.802,-1.399 2.276,-2.068 3.61,-2.072c1.337,0.004 2.812,0.673 3.609,2.072c0.656,1.134 0.685,2.463 0.673,4.449l-8.569,-0c-0.017,-1.986 0.025,-3.315 0.677,-4.449m18.666,7.984c0,-7.037 -6.799,-12.868 -15.148,-12.868c-8.344,-0 -15.115,5.703 -15.115,12.743c0,7.036 6.771,12.743 15.115,12.743c6.933,0 12.777,-3.95 14.563,-9.312l-10.231,0.008c0,0 0.009,0.1 0.009,1.375c-0,4.154 -2.729,5.076 -4.249,5.076c-1.512,-0 -4.291,-0.922 -4.291,-5.076c-0,-1.242 0.008,-4.685 0.008,-4.685c0,-0 19.339,0.008 19.339,-0.004m21.487,-12.49c-3.397,0.095 -6.222,1.549 -8.191,3.422c-0.008,-0.561 0,-2.384 0,-2.384l-10.184,0.004l-0.005,22.7l10.189,-0c0,-0 -0.008,-13.944 -0.008,-14.912c-0,-1.977 2.077,-4.178 4.872,-4.178c2.8,-0 4.69,2.201 4.69,4.178l-0,14.912l10.201,-0c-0,-0 -0.004,-10.754 -0,-12.353c0.058,-8.989 -7.73,-11.502 -11.564,-11.389m-83.425,-0c-3.394,0.095 -6.223,1.549 -8.187,3.422c-0.009,-0.561 -0,-2.384 -0,-2.384l-10.202,0.004l0.009,22.7l10.193,-0c-0,-0 -0.009,-13.944 -0.009,-14.912c0,-1.977 2.077,-4.178 4.873,-4.178c2.795,-0 4.689,2.201 4.689,4.178l0,14.912l10.201,-0c0,-0 -0.012,-10.754 0,-12.353c0.054,-8.989 -7.734,-11.502 -11.567,-11.389m117.19,12.278c0,-0 0.004,2.571 0.004,4.029c0,3.505 -2.43,4.423 -4.029,4.423c-1.628,0 -4.021,-0.918 -4.021,-4.423c0,-1.205 0.005,-4.038 0.005,-4.038c-0,0 -0.005,-2.882 -0.005,-4.045c0,-3.514 2.393,-4.407 4.025,-4.407c1.595,-0 4.021,0.893 4.021,4.407l0,4.054Zm-0.075,-10.11c-1.636,-0.922 -3.372,-1.811 -5.807,-2.023c-7.397,-0.652 -13.054,5.89 -13.054,11.884c-0,7.9 6.101,10.824 7.023,11.256c3.456,1.607 7.888,1.611 11.817,-0.856c0,0.212 0.005,1.313 0.005,1.313l10.147,-0l-0,-34.131l-10.131,0l0,12.557Zm32.594,14.853c-0,3.618 -2.139,5.109 -4.195,5.109c-2.061,0 -4.208,-1.491 -4.208,-5.109c-0,-1.375 0.004,-4.897 0.004,-4.897c0,0 0.004,-3.356 0.004,-4.735c0,-3.597 2.152,-5.08 4.195,-5.08c2.052,0 4.196,1.483 4.196,5.08c-0,1.379 -0,3.921 0.012,4.835c0,0.054 -0.008,3.431 -0.008,4.797m-4.116,-17.528c-8.287,-0 -15.003,5.711 -15.003,12.747c-0,7.041 6.716,12.748 15.003,12.748c8.286,-0 15.002,-5.707 15.002,-12.748c0,-7.036 -6.716,-12.747 -15.002,-12.747m-179.919,-2.916l10.289,0l-0,-6.978l-10.289,-0l-0,6.978Zm0.025,27.169l10.264,-0l-0,-22.7l-10.264,0l-0,22.7Zm67.334,-22.658l0,-3.377l-5.561,-0l-0,-4.59l-10.272,0l0.008,4.594l-5.587,0.004l0,3.369l5.583,-0l-0.008,22.658l10.284,-0l-0.008,-22.658l5.561,-0Zm-83.753,12.328l-14.717,-23.805l-10.633,0l-0.004,34.135l10.571,-0l-0,-23.805l14.791,23.805l10.534,-0l-0,-34.135l-10.551,0l0.009,23.805Z" style="fill:#fff;fill-rule:nonzero;"/></g></svg>