<svg clip-rule="evenodd" fill-rule="evenodd" stroke-linejoin="round" stroke-miterlimit="2" viewBox="0 0 600 127" xmlns="http://www.w3.org/2000/svg"><g fill="#fff"><path d="m9.559 57.757c-3.615 0-9.559 4.67-9.559 9.132v58.122h20.142v-48.478c5.251 5.084 57.696 45.662 57.696 45.662 3.614 2.546 5.028 4.011 7.681 4.011h6.231c5.986 0 10.241-4.247 10.241-8.876v-58.805h-20.142v49.587l-59.488-48.392c-1.977-1.41-5.869-1.963-6.828-1.963h-5.974z"/><path d="m126.401 83.276c-6.664 0-12.12 3.851-12.12 8.706 0 4.858 5.456 8.876 12.12 8.876 6.72 0 12.119-4.018 12.119-8.876 0-4.855-5.399-8.706-12.119-8.706z"/><path d="m498.094 85.239v40.199h101.906v-14.253h-81.166v-12.546h58.549v-13.4z"/><path d="m384.495 58.525c-7.057 0-10.328 4.257-10.328 10.242v45.661c0 7.343 5.292 10.669 8.962 10.669h94.054c5.196 0 9.132-3.961 9.132-9.218v-30.64h-70.327v12.888h50.441v13.058h-71.863v-38.834h202.02v-13.826z"/><path d="m160.54 58.44c-5.703 0-9.986 3.171-9.986 8.876v49.331c.113 3.505 4.384 8.391 8.45 8.45h94.993c2.88-1.529 8.704-2.024 8.364-13.827v-26.031h-69.986v12.888h50.014v13.058h-71.863v-38.834h169.587c.96.062 2.39.041 2.39 1.451v11.437h-58.208v12.887h58.294v26.885h19.886v-56.245c0-7.056-6.698-10.327-12.632-10.327h-189.303z"/><path d="m155.759.679h11.181v35.42h-11.181z"/><path d="m0 .678v35.42h10.498v-26.971l.171.342 21.593 26.629h18.094v-35.42h-10.498v26.885l-.171-.513-21.422-26.372h-18.265z"/><path d="m106.088.678v35.42h11.181v-35.42h-11.181z"/><path d="m117.269 17.918 20.313 18.179h16.131l-23.044-18.179 20.483-17.24h-14.85z"/><path d="m78.267.164c-14.278 0-18.026.019-21.167 3.158-1.908 1.727-2.39 3.55-2.39 6.231v17.496c0 2.637.482 4.672 2.39 6.401 3.141 2.956 6.719 3.158 20.996 3.158 14.287 0 18.029-.202 21.166-3.158 1.915-1.729 2.39-3.764 2.39-6.401v-17.496c0-2.681-.475-4.504-2.39-6.231-3.137-3.138-6.712-3.158-20.995-3.158zm-10.246 8.794h20.398c2.502 0 3.329.489 3.329 2.219v14.424c0 1.089-.905 2.048-3.414 2.048h-20.313c-2.496 0-3.243-.501-3.243-2.048v-14.424c0-1.228.747-2.219 3.243-2.219z"/><path d="m188.533.679-19.545 35.42h12.375l3.329-6.06h21.935l3.243 6.06h12.375l-19.372-35.42h-14.34zm7.084 8.791 6.913 12.888h-13.826z"/></g></svg>