<?xml version="1.0" encoding="UTF-8" standalone="no"?><!DOCTYPE svg PUBLIC "-//W3C//DTD SVG 1.1//EN" "http://www.w3.org/Graphics/SVG/1.1/DTD/svg11.dtd"><svg width="100%" height="100%" viewBox="0 0 600 127" version="1.1" xmlns="http://www.w3.org/2000/svg" xmlns:xlink="http://www.w3.org/1999/xlink" xml:space="preserve" xmlns:serif="http://www.serif.com/" style="fill-rule:evenodd;clip-rule:evenodd;stroke-linejoin:round;stroke-miterlimit:2;"><g id="noikia_ngage"><path d="M9.559,57.757c-3.615,-0 -9.559,4.67 -9.559,9.132l-0,58.122l20.142,0l0,-48.478c5.251,5.084 57.696,45.662 57.696,45.662c3.614,2.546 5.028,4.011 7.681,4.011l6.231,0c5.986,0 10.241,-4.247 10.241,-8.876l0,-58.805l-20.142,0l0,49.587l-59.488,-48.392c-1.977,-1.41 -5.869,-1.963 -6.828,-1.963l-5.974,-0Z" style="fill:#fff;"/><path d="M126.401,83.276c-6.664,-0 -12.12,3.851 -12.12,8.706c0,4.858 5.456,8.876 12.12,8.876c6.72,-0 12.119,-4.018 12.119,-8.876c0,-4.855 -5.399,-8.706 -12.119,-8.706Z" style="fill:#fff;"/><path d="M498.094,85.239l-0,40.199l101.906,0l-0,-14.253l-81.166,-0l-0,-12.546l58.549,-0l-0,-13.4l-79.289,-0Z" style="fill:#fff;"/><path d="M384.495,58.525c-7.057,-0 -10.328,4.257 -10.328,10.242l0,45.661c0,7.343 5.292,10.669 8.962,10.669l94.054,-0c5.196,-0 9.132,-3.961 9.132,-9.218l0,-30.64l-70.327,-0l0,12.888l50.441,-0l0,13.058l-71.863,-0l-0,-38.834l202.02,0l-0,-13.826l-212.091,-0l-0,-0Z" style="fill:#fff;"/><path d="M160.54,58.44c-5.703,-0 -9.986,3.171 -9.986,8.876l0,49.331c0.113,3.505 4.384,8.391 8.45,8.45l94.993,-0c2.88,-1.529 8.704,-2.024 8.364,-13.827l-0,-26.031l-69.986,-0l0,12.888l50.014,-0l0,13.058l-71.863,-0l-0,-38.834l169.587,0c0.96,0.062 2.39,0.041 2.39,1.451l0,11.437l-58.208,-0l0,12.887l58.294,0l-0,26.885l19.886,0l-0,-56.245c-0,-7.056 -6.698,-10.327 -12.632,-10.327l-189.303,0l0,0.001Z" style="fill:#fff;"/><g><rect x="155.759" y="0.679" width="11.181" height="35.42" style="fill:#fff;"/><path d="M-0,0.678l-0,35.42l10.498,-0l-0,-26.971l0.171,0.342l21.593,26.629l18.094,-0l-0,-35.42l-10.498,-0l-0,26.885l-0.171,-0.513l-21.422,-26.372l-18.265,-0Z" style="fill:#fff;"/><path d="M106.088,0.678l0,35.42l11.181,-0l-0,-35.42l-11.181,-0Z" style="fill:#fff;"/><path d="M117.269,17.918l20.313,18.179l16.131,0l-23.044,-18.179l20.483,-17.24l-14.85,-0l-19.033,17.24Z" style="fill:#fff;"/><path d="M78.267,0.164c-14.278,0 -18.026,0.019 -21.167,3.158c-1.908,1.727 -2.39,3.55 -2.39,6.231l0,17.496c0,2.637 0.482,4.672 2.39,6.401c3.141,2.956 6.719,3.158 20.996,3.158c14.287,0 18.029,-0.202 21.166,-3.158c1.915,-1.729 2.39,-3.764 2.39,-6.401l0,-17.496c0,-2.681 -0.475,-4.504 -2.39,-6.231c-3.137,-3.138 -6.712,-3.158 -20.995,-3.158Zm-10.246,8.794l20.398,-0c2.502,-0 3.329,0.489 3.329,2.219l-0,14.424c-0,1.089 -0.905,2.048 -3.414,2.048l-20.313,0c-2.496,0 -3.243,-0.501 -3.243,-2.048l-0,-14.424c-0,-1.228 0.747,-2.219 3.243,-2.219Z" style="fill:#fff;"/><path d="M188.533,0.679l-19.545,35.42l12.375,-0l3.329,-6.06l21.935,0l3.243,6.06l12.375,-0l-19.372,-35.42l-14.34,0Zm7.084,8.791l6.913,12.888l-13.826,-0l6.913,-12.888Z" style="fill:#fff;"/></g></g></svg>