<svg clip-rule="evenodd" fill-rule="evenodd" stroke-linejoin="round" stroke-miterlimit="2" viewBox="0 0 600 99" xmlns="http://www.w3.org/2000/svg"><g fill="#fff"><path d="m420.505 1.973h30.185v95.623h-30.185z"/><path d="m0 1.969v95.624h28.341v-72.812l.461.922 58.296 71.89h48.848v-95.624h-28.341v72.582l-.461-1.383-57.835-71.199h-49.309z"/><path d="m286.408 1.969v95.624h30.185v-95.623l-30.185-.001z"/><path d="m316.593 48.513 54.839 49.079h43.549l-62.213-49.079 55.3-46.544h-40.092z"/><path d="m211.298.583c-38.544 0-48.664.052-57.144 8.526-5.152 4.661-6.451 9.584-6.451 16.82v47.235c0 7.118 1.299 12.612 6.451 17.282 8.48 7.978 18.139 8.525 56.683 8.525 38.572 0 48.673-.546 57.143-8.525 5.171-4.67 6.452-10.164 6.452-17.282v-47.235c0-7.236-1.281-12.159-6.452-16.82-8.47-8.472-18.12-8.526-56.682-8.526zm-27.661 23.74h55.07c6.755 0 8.986 1.321 8.986 5.991v38.941c0 2.941-2.443 5.53-9.217 5.53h-54.839c-6.737 0-8.756-1.354-8.756-5.53v-38.941c0-3.316 2.019-5.991 8.756-5.991z"/><path d="m508.985 1.973-52.765 95.623h33.41l8.987-16.359h59.217l8.756 16.359h33.41l-52.299-95.624-38.716.001zm19.125 23.733 18.664 34.793h-37.327z"/></g></svg>