<svg clip-rule="evenodd" fill-rule="evenodd" stroke-linejoin="round" stroke-miterlimit="2" viewBox="0 0 600 127" xmlns="http://www.w3.org/2000/svg"><g fill="#fff"><path d="m9.559 57.623c-3.615 0-9.559 4.67-9.559 9.132v58.122h20.142v-48.478c5.251 5.083 57.696 45.662 57.696 45.662 3.614 2.545 5.028 4.011 7.681 4.011h6.231c5.986 0 10.241-4.248 10.241-8.876v-58.805h-20.142v49.587l-59.488-48.393c-1.977-1.409-5.869-1.962-6.828-1.962h-5.974z"/><path d="m126.401 83.142c-6.664 0-12.12 3.851-12.12 8.705 0 4.858 5.456 8.876 12.12 8.876 6.72 0 12.119-4.018 12.119-8.876 0-4.854-5.399-8.705-12.119-8.705z"/><path d="m498.094 85.105v40.199h101.906v-14.253h-81.166v-12.547h58.549v-13.399z"/><path d="m384.495 58.391c-7.057 0-10.328 4.257-10.328 10.241v45.662c0 7.343 5.292 10.669 8.962 10.669h94.054c5.196 0 9.132-3.961 9.132-9.218v-30.64h-70.327v12.887h50.441v13.059h-71.863v-38.834h202.02v-13.826z"/><path d="m160.54 58.305c-5.703 0-9.986 3.172-9.986 8.877v49.331c.113 3.504 4.384 8.391 8.45 8.449h94.993c2.88-1.528 8.704-2.023 8.364-13.826v-26.031h-69.986v12.887h50.014v13.059h-71.863v-38.834h169.587c.96.061 2.39.041 2.39 1.451v11.437h-58.208v12.887h58.294v26.885h19.886v-56.245c0-7.056-6.698-10.327-12.632-10.327z"/><path d="m155.759.545h11.181v35.42h-11.181z"/><path d="m0 .544v35.419h10.498v-26.97l.171.342 21.593 26.628h18.094v-35.419h-10.498v26.884l-.171-.512-21.422-26.372h-18.265z"/><path d="m106.088.544v35.419h11.181v-35.419h-11.181z"/><path d="m117.269 17.784 20.313 18.179h16.131l-23.044-18.179 20.483-17.24h-14.85z"/><path d="m78.267.03c-14.278 0-18.026.019-21.167 3.158-1.908 1.727-2.39 3.55-2.39 6.23v17.497c0 2.636.482 4.671 2.39 6.401 3.141 2.955 6.719 3.158 20.996 3.158 14.287 0 18.029-.203 21.166-3.158 1.915-1.73 2.39-3.765 2.39-6.401v-17.497c0-2.68-.475-4.503-2.39-6.23-3.137-3.138-6.712-3.158-20.995-3.158zm-10.246 8.794h20.398c2.502 0 3.329.489 3.329 2.219v14.424c0 1.089-.905 2.048-3.414 2.048h-20.313c-2.496 0-3.243-.502-3.243-2.048v-14.424c0-1.229.747-2.219 3.243-2.219z"/><path d="m188.533.545-19.545 35.42h12.375l3.329-6.06h21.935l3.243 6.06h12.375l-19.372-35.421-14.34.001zm7.084 8.791 6.913 12.887h-13.826z"/></g></svg>