<svg clip-rule="evenodd" fill-rule="evenodd" stroke-linejoin="round" stroke-miterlimit="2" viewBox="0 0 600 149" xmlns="http://www.w3.org/2000/svg"><g fill="#fff"><g fill-rule="nonzero"><path d="m208.457 82.527 29.688 43.675v-43.675h12.724v65.783h-13.085l-29.733-43.585v43.585h-12.724v-65.783z"/><path d="m261.607 93.536c-.025-5.998 4.876-10.96 10.874-11.009h32.982c5.997.049 10.898 5.011 10.874 11.009v43.855.046c0 5.965-4.909 10.873-10.874 10.873h-32.982c-5.965 0-10.874-4.908-10.874-10.873 0-.016 0-.031 0-.046zm38.757 43.088c1.783 0 3.249-1.466 3.249-3.248v-35.78c.025-1.815-1.434-3.335-3.249-3.384h-22.559c-1.815.049-3.274 1.569-3.249 3.384v35.78c0 1.782 1.467 3.248 3.249 3.248z"/><path d="m363.08 82.527h10.783l13.536 44.803 12.047-44.803h13.084l-19.852 65.783h-11.144l-13.536-42.367-12.588 42.367h-11.19l-21.07-65.783h14.212l12.814 44.803z"/><path d="m195.327 52.026v-40.427c0-6.014 4.95-10.964 10.964-10.964.015 0 .03.001.045.001h41.736v11.821h-36.096c-1.814.022-3.312 1.481-3.384 3.293v30.862c.008.86.347 1.685.948 2.301l4.512 4.512c.637.652 1.526.998 2.436.947h17.642c.015.001.03.001.045.001 1.782 0 3.249-1.467 3.249-3.249 0-.015 0-.03-.001-.045v-11.686h-15.746v-11.866h28.515v27.928c-.024 5.998-4.966 10.921-10.964 10.921-.06 0-.12-.001-.18-.002h-29.328c-.892.021-1.756-.321-2.391-.947l-11.009-11.055c-.624-.622-.98-1.465-.993-2.346z"/><path d="m274.331 12.276v15.431h26.71v11.686h-26.71v15.295h33.253v11.686h-45.977v-65.738h46.067v11.64z"/><path d="m330.008 66.374h-12.859v-65.738h46.111v11.64h-33.252v15.431h26.665v11.686h-26.665z"/><path d="m372.374 11.6c0-.001 0-.001 0-.001 0-6.014 4.95-10.964 10.964-10.964.03 0 .061 0 .091.001h32.982c5.98.049 10.874 4.983 10.873 10.964v43.855.045c0 5.965-4.908 10.874-10.873 10.874h-32.982c-5.966 0-10.874-4.909-10.874-10.874 0-.015 0-.03 0-.045zm38.758 43.088c1.782 0 3.248-1.466 3.248-3.248v-35.78c.025-1.815-1.434-3.335-3.248-3.384h-22.56c-1.814.049-3.274 1.569-3.248 3.384v35.78c0 1.782 1.466 3.248 3.248 3.248z"/><path d="m492.797 66.374h-13.806l-16.198-26.801h-12.047v26.801h-12.723v-65.738h39.434c6.014 0 10.964 4.949 10.964 10.964v16.964.045c0 6.015-4.95 10.964-10.964 10.964h-.767zm-42.051-38.487h21.387c.015.001.03.001.045.001 1.782 0 3.248-1.467 3.248-3.249v-9.024c.001-.015.001-.03.001-.045 0-1.815-1.48-3.314-3.294-3.339h-21.387z"/><path d="m543.466 12.276h-27.884c-1.789.025-3.248 1.504-3.248 3.294v36.095c0 1.782 1.466 3.249 3.248 3.249h27.884v11.686h-32.892c-5.998 0-10.939-4.922-10.964-10.919v-44.081c0-6.015 4.949-10.964 10.964-10.964h32.892z"/><path d="m566.792 12.276v15.431h26.711v11.686h-26.711v15.295h33.208v11.686h-46.021v-65.738h46.021v11.64z"/></g><path d="m184.82.635h-184.82v147.675h184.82v-147.675zm-59.203 135.995h8.492v-30.055l-8.493-.002zm-58.955-30.057-7.085 23.821-6.787-23.819-9.163-.002 9.693 30.057h12.235l9.771-30.057zm25.906 0v30.057h13.767c7.336 0 9.731-1.22 12.321-3.955 1.83-1.92 3.013-6.135 3.013-10.742 0-4.226-1.001-7.994-2.747-10.341-3.145-4.197-7.677-5.019-14.44-5.019zm-80.444-.041v30.098h8.564v-22.854l6.636.002c2.197 0 3.763.548 4.821 1.678 1.342 1.429 1.89 3.737 1.89 7.958v13.216h8.299v-16.63c0-11.868-7.565-13.468-14.967-13.468zm66.777.041.003 30.057h8.488v-30.057zm70.515.012-11.854 30.034h8.37l1.875-5.308h14.028l1.774 5.308h9.087l-11.942-30.038zm-48.427 6.533h3.651c5.294 0 8.72 2.377 8.72 8.547s-3.426 8.548-8.72 8.548h-3.651zm53.935-1.054 5.144 14.071h-10.447zm-87.246-35.395c1.526.196 3.063.295 4.601.297 19.925 0 34.334-10.176 48.286-22.219 2.313 1.853 11.783 6.36 13.73 8.332-13.266 11.107-44.183 20.06-61.71 20.06-1.69 0-3.312-.102-4.907-.256v-6.214c-24.383-3.068-32.731-29.941-32.731-29.941s10.922-16.115 32.731-17.782v-5.847c-24.156 1.94-45.074 22.399-45.074 22.399s11.848 34.249 45.074 37.385v9.37h75.731v-79.937h-75.731v10.783c.709-.054 1.418-.1 2.131-.124 27.462-.926 45.356 22.523 45.356 22.523s-20.551 24.99-41.962 24.99c-1.963 0-3.8-.182-5.525-.488v-5.69c-10.389-3.491-13.766-15.62-13.766-15.62s6.025-7.205 13.738-6.28c.009 0 .016.004.027.004v21.895c1.743.586 3.679.933 5.838.933 15.004 0 28.998-19.435 28.998-19.435s-12.956-17.59-32.704-16.97c-.722.023-1.429.06-2.131.109v7.222c1.292-.138 2.608-.235 3.983-.234 12.65 0 20.154 9.841 20.154 9.841l-10.28 8.668c-4.622-7.705-6.17-11.101-13.857-12.03v-6.244c-14.695 1.589-23.543 11.391-23.543 11.391s5.115 19.155 23.543 22.441z"/></g></svg>