<?xml version="1.0" encoding="UTF-8" standalone="no"?><!DOCTYPE svg PUBLIC "-//W3C//DTD SVG 1.1//EN" "http://www.w3.org/Graphics/SVG/1.1/DTD/svg11.dtd"><svg width="100%" height="100%" viewBox="0 0 600 123" version="1.1" xmlns="http://www.w3.org/2000/svg" xmlns:xlink="http://www.w3.org/1999/xlink" xml:space="preserve" xmlns:serif="http://www.serif.com/" style="fill-rule:evenodd;clip-rule:evenodd;stroke-linejoin:round;stroke-miterlimit:2;"><g id="nvidia_gamestream"><path d="M37.447,121.698l-23.856,0c-0.951,0 -1.861,-0.393 -2.512,-1.087c-2.355,-2.508 -8.129,-8.658 -10.266,-10.935c-0.522,-0.556 -0.813,-1.29 -0.813,-2.054c0,-6.609 0,-38.555 0,-38.555c0,-4.645 0.886,-7.793 2.659,-9.444c1.773,-1.65 5.074,-2.475 9.903,-2.475l20.08,-0l15.288,0.183l-0,4.951l-35.827,0c-2.445,0 -4.095,0.352 -4.951,1.055c-0.856,0.703 -1.284,2.002 -1.284,3.897l0,38.549c0,0.847 0.332,1.66 0.924,2.265c1.725,1.764 5.42,5.541 7.181,7.34c0.62,0.634 1.471,0.992 2.359,0.992c4.969,0 21.574,0 21.574,0c2.506,0 4.171,-0.336 4.997,-1.009c0.825,-0.672 1.238,-1.986 1.238,-3.942l-0,-19.53l-19.529,-0l-0,-5.227l25.397,0l-0,23.381c-0,4.524 -0.887,7.595 -2.659,9.215c-1.773,1.62 -5.074,2.43 -9.903,2.43Z" style="fill:#fff;fill-rule:nonzero;"/><path d="M117.861,121.24l-6.326,-0l-8.04,-20.392l-29.699,0l-7.923,20.392l-6.144,-0l25.399,-63.909l7.243,0l25.49,63.909Zm-29.341,-57.857l-13.091,33.484l26.45,0l-13.175,-33.484l-0.184,-0Z" style="fill:#fff;fill-rule:nonzero;"/><path d="M239.592,121.24l-41.339,-0l0,-63.909l41.339,0l-0,5.135l-35.471,-0l0,22.922l29.8,0l0,5.227l-29.8,-0l0,25.307l35.471,-0l-0,5.318Z" style="fill:#fff;fill-rule:nonzero;"/><path d="M282.854,122.182l-20.599,-0l-13.971,-0.366l0,-9.952l33.109,-0c1.278,-0 2.131,-0.168 2.557,-0.503c0.426,-0.334 0.639,-1.019 0.639,-2.054l-0,-12.966c-0,-1.096 -0.289,-1.811 -0.868,-2.146c-0.578,-0.335 -1.871,-0.502 -3.88,-0.502c-2.496,0 -10.586,-0.061 -16.308,-0.183c-6.392,-0.06 -10.653,-0.989 -12.783,-2.785c-2.131,-1.795 -3.196,-5.159 -3.196,-10.089l-0,-10.044c-0,-4.809 0.989,-8.127 2.967,-9.953c1.979,-1.826 5.677,-2.739 11.094,-2.739l18.226,-0l13.879,0.365l-0,9.222l-30.735,0c-1.278,0 -2.115,0.183 -2.511,0.548c-0.396,0.365 -0.593,1.065 -0.593,2.1l-0,11.049c-0,1.095 0.289,1.795 0.867,2.1c0.578,0.304 1.963,0.487 4.155,0.548l15.942,0.182c6.575,0.122 10.927,0.989 13.057,2.603c2.131,1.613 3.196,4.945 3.196,9.998l0,12.235c0,5.175 -0.958,8.69 -2.876,10.547c-1.917,1.856 -5.707,2.785 -11.368,2.785Z" style="fill:#fff;fill-rule:nonzero;"/><path d="M335.714,121.816l-12.509,0l-0,-53.781l-17.988,0l0,-9.861l48.577,-0l-0,9.861l-18.08,0l0,53.781Z" style="fill:#fff;fill-rule:nonzero;"/><path d="M416.507,121.816l-14.356,0l-16.217,-26.633l-11.505,-0l0,26.633l-12.509,0l0,-63.642l36.059,-0c5.479,-0 9.207,0.837 11.186,2.511c1.978,1.674 2.967,4.854 2.967,9.542l0,12.538c0,4.382 -0.928,7.472 -2.785,9.267c-1.856,1.796 -5.748,2.846 -9.4,3.151l16.56,26.633Zm-17.453,-39.711l0,-11.127c0,-1.035 -0.198,-1.735 -0.593,-2.1c-0.396,-0.365 -1.233,-0.548 -2.511,-0.548l-21.521,-0l0,16.423l21.521,-0c1.278,-0 2.115,-0.183 2.511,-0.548c0.395,-0.366 0.593,-1.066 0.593,-2.1Z" style="fill:#fff;fill-rule:nonzero;"/><path d="M468.611,121.816l-45.065,0l0,-63.642l44.791,-0l0,9.861l-32.282,0l0,15.797l25.525,-0l0,10.998l-25.525,0l0,16.668l32.556,0l0,10.318Z" style="fill:#fff;fill-rule:nonzero;"/><path d="M531.776,121.816l-13.057,0l-4.957,-13.006l-25.05,0l-4.957,13.006l-12.692,0l23.663,-63.642l13.866,-0l23.184,63.642Zm-30.721,-47.728l-9.174,25.054l18.622,-0l-9.174,-25.054l-0.274,-0Z" style="fill:#fff;fill-rule:nonzero;"/><path d="M566.643,107.663c0,0 -14.505,-24.743 -16.921,-29.523l0,43.676l-12.235,0l0,-63.642l12.173,-0c-0,-0 17.257,26.942 19.084,30.716c1.826,-3.774 19.083,-30.716 19.083,-30.716l12.173,-0l0,63.642l-12.235,0l-0,-43.676c-2.416,4.78 -16.921,29.523 -16.921,29.523l-4.201,0Z" style="fill:#fff;fill-rule:nonzero;"/><path d="M179.421,66.448c-0.724,1.269 -1.585,2.754 -2.585,4.453l-19.347,33.559l-3.117,0l-19.347,-32.917c-1.18,-2.005 -2.163,-3.696 -2.952,-5.073l0,54.77l-5.868,-0l0,-63.909l7.169,0l16.597,28.516c2.628,4.584 4.615,8.252 5.959,11.003c1.223,-2.384 3.21,-6.021 5.96,-10.911l16.23,-28.608l7.169,0l-0,63.909l-5.868,-0l-0,-54.792Z" style="fill:#fff;fill-rule:nonzero;"/><g><path d="M215.36,13.6l4.965,13.582l-10.084,0l5.119,-13.582Zm-5.318,-5.288l-11.441,28.989l8.079,-0l1.81,-5.123l13.54,0l1.712,5.123l8.771,-0l-11.527,-28.993l-10.944,0.004Zm-22.97,29l8.197,-0l-0,-29.009l-8.198,-0.002l0.001,29.011Zm-56.904,-29.011l-6.839,22.992l-6.551,-22.99l-8.844,-0.002l9.356,29.011l11.809,-0l9.432,-29.011l-8.363,0Zm33.133,6.317l3.523,0c5.111,0 8.417,2.295 8.417,8.249c-0,5.956 -3.306,8.251 -8.417,8.251l-3.523,0l-0,-16.5Zm-8.128,-6.317l-0,29.011l13.288,-0c7.08,-0 9.392,-1.177 11.892,-3.817c1.766,-1.854 2.908,-5.922 2.908,-10.369c-0,-4.079 -0.967,-7.715 -2.652,-9.981c-3.035,-4.051 -7.409,-4.844 -13.937,-4.844l-11.499,0Zm-77.646,-0.04l-0,29.051l8.266,-0l0,-22.059l6.405,0.002c2.121,0 3.633,0.529 4.654,1.62c1.295,1.379 1.824,3.606 1.824,7.681l0,12.756l8.01,-0l-0,-16.051c-0,-11.456 -7.302,-13 -14.446,-13l-14.713,-0Zm64.454,0.04l0.003,29.011l8.193,-0l0,-29.011l-8.196,0Z" style="fill:#fff;fill-rule:nonzero;"/><path d="M8.247,18.419c-0,-0 5.788,-8.54 17.344,-9.424l-0,-3.098c-12.8,1.028 -23.885,11.87 -23.885,11.87c0,-0 6.278,18.148 23.885,19.81l-0,-3.293c-12.921,-1.625 -17.344,-15.865 -17.344,-15.865Zm17.344,9.316l-0,3.016c-9.765,-1.741 -12.476,-11.892 -12.476,-11.892c0,0 4.689,-5.194 12.476,-6.036l-0,3.309c-0.006,0 -0.01,-0.002 -0.015,-0.002c-4.087,-0.49 -7.28,3.328 -7.28,3.328c0,-0 1.79,6.427 7.295,8.277m-0,-27.552l-0,5.714c0.376,-0.028 0.752,-0.053 1.129,-0.066c14.553,-0.49 24.035,11.936 24.035,11.936c-0,-0 -10.891,13.242 -22.236,13.242c-1.04,-0 -2.014,-0.097 -2.928,-0.259l-0,3.534c0.809,0.104 1.623,0.157 2.438,0.157c10.558,0 18.194,-5.392 25.587,-11.773c1.226,0.981 6.244,3.37 7.276,4.415c-7.03,5.885 -23.413,10.63 -32.701,10.63c-0.895,-0 -1.755,-0.055 -2.6,-0.136l-0,4.965l40.13,0l0,-42.359l-40.13,-0Zm-0,12.64l-0,-3.827c0.372,-0.026 0.747,-0.046 1.129,-0.058c10.465,-0.329 17.331,8.992 17.331,8.992c-0,0 -7.416,10.299 -15.367,10.299c-1.144,-0 -2.17,-0.184 -3.093,-0.494l-0,-11.603c4.074,0.492 4.894,2.292 7.343,6.375l5.447,-4.594c0,0 -3.976,-5.215 -10.679,-5.215c-0.729,0 -1.426,0.051 -2.111,0.125" style="fill:#fff;fill-rule:nonzero;"/></g></g></svg>