<?xml version="1.0" encoding="UTF-8" standalone="no"?><!DOCTYPE svg PUBLIC "-//W3C//DTD SVG 1.1//EN" "http://www.w3.org/Graphics/SVG/1.1/DTD/svg11.dtd"><svg width="100%" height="100%" viewBox="0 0 600 145" version="1.1" xmlns="http://www.w3.org/2000/svg" xmlns:xlink="http://www.w3.org/1999/xlink" xml:space="preserve" xmlns:serif="http://www.serif.com/" style="fill-rule:evenodd;clip-rule:evenodd;stroke-linejoin:round;stroke-miterlimit:2;"><g id="nvidia_geforce_now_alt"><g><path d="M217.223,80.452l29.023,42.697l0,-42.697l12.439,-0l0,64.31l-12.791,0l-29.068,-42.609l-0,42.609l-12.439,0l0,-64.31l12.836,-0Z" style="fill:#fff;fill-rule:nonzero;"/><path d="M269.183,91.214c-0.024,-5.863 4.767,-10.714 10.63,-10.762l32.244,-0c5.863,0.048 10.655,4.899 10.63,10.762l0,42.874c0,0.015 0,0.029 0,0.044c0,5.832 -4.798,10.63 -10.63,10.63l-32.244,0c-5.831,0 -10.63,-4.798 -10.63,-10.63c-0,-0.015 0,-0.029 0,-0.044l0,-42.874Zm37.89,42.124c1.742,0 3.175,-1.433 3.175,-3.176l0,-34.978c0.025,-1.774 -1.401,-3.26 -3.175,-3.308l-22.055,-0c-1.774,0.048 -3.2,1.534 -3.176,3.308l0,34.978c0,1.743 1.434,3.176 3.176,3.176l22.055,0Z" style="fill:#fff;fill-rule:nonzero;"/><path d="M368.384,80.452l10.542,-0l13.233,43.8l11.777,-43.8l12.791,-0l-19.408,64.31l-10.894,0l-13.233,-41.418l-12.306,41.418l-10.939,0l-20.599,-64.31l13.894,-0l12.527,43.8l12.615,-43.8Z" style="fill:#fff;fill-rule:nonzero;"/><path d="M204.387,50.634l0,-39.522c0,-5.88 4.839,-10.718 10.719,-10.718c0.014,-0 0.029,-0 0.044,-0l40.8,-0l0,11.556l-35.287,0c-1.773,0.022 -3.238,1.448 -3.308,3.22l0,30.171c0.007,0.841 0.339,1.647 0.926,2.249l4.411,4.411c0.623,0.638 1.492,0.976 2.382,0.927l17.247,-0c0.015,-0 0.029,-0 0.044,-0c1.742,-0 3.176,-1.434 3.176,-3.176c-0,-0.015 -0,-0.029 -0,-0.044l-0,-11.425l-15.394,0l-0,-11.6l27.877,-0l-0,27.303c-0.024,5.864 -4.855,10.676 -10.719,10.676c-0.059,0 -0.118,-0 -0.176,-0.001l-28.671,-0c-0.872,0.02 -1.717,-0.314 -2.338,-0.927l-10.763,-10.806c-0.609,-0.609 -0.958,-1.433 -0.97,-2.294Z" style="fill:#fff;fill-rule:nonzero;"/><path d="M281.622,11.774l-0,15.085l26.112,0l0,11.424l-26.112,0l-0,14.953l32.508,0l0,11.425l-44.947,-0l0,-64.267l45.035,-0l0,11.38l-32.596,0Z" style="fill:#fff;fill-rule:nonzero;"/><path d="M336.052,64.661l-12.571,-0l0,-64.267l45.079,-0l0,11.38l-32.508,0l0,15.085l26.069,0l-0,11.424l-26.069,0l0,26.378Z" style="fill:#fff;fill-rule:nonzero;"/><path d="M377.47,11.112c0,0 0,0 0,0c0,-5.88 4.839,-10.718 10.719,-10.718c0.029,-0 0.059,-0 0.088,-0l32.244,-0c5.846,0.048 10.63,4.872 10.63,10.718l0,42.874c0,0.015 0,0.03 0,0.044c0,5.832 -4.799,10.631 -10.63,10.631l-32.244,-0c-5.832,-0 -10.63,-4.799 -10.63,-10.631c-0,-0.014 -0,-0.029 -0,-0.044l-0.177,-42.874Zm37.89,42.124c1.742,0 3.176,-1.433 3.176,-3.175l-0,-34.979c0.025,-1.774 -1.402,-3.26 -3.176,-3.308l-22.054,0c-1.774,0.048 -3.201,1.534 -3.176,3.308l-0,34.979c-0,1.742 1.433,3.175 3.176,3.175l22.054,0Z" style="fill:#fff;fill-rule:nonzero;"/><path d="M495.197,64.661l-13.497,-0l-15.835,-26.201l-11.777,-0l-0,26.201l-12.439,-0l-0,-64.267l38.551,-0c5.88,-0 10.719,4.838 10.719,10.718l-0,16.585c-0,0.015 -0,0.03 -0,0.044c-0,5.88 -4.839,10.719 -10.719,10.719l-0.75,-0l15.747,26.201Zm-41.109,-37.625l20.907,-0c0.015,-0 0.03,0 0.044,0c1.743,0 3.176,-1.434 3.176,-3.176l0,-8.822c0,-0.015 0.001,-0.03 0.001,-0.044c-0,-1.774 -1.447,-3.24 -3.221,-3.264l-20.907,-0l-0,15.306Z" style="fill:#fff;fill-rule:nonzero;"/><path d="M544.732,11.774l-27.26,0c-1.75,0.024 -3.176,1.47 -3.176,3.22l0,35.287c0,1.742 1.434,3.176 3.176,3.176l27.26,-0l-0,11.424l-32.156,0c-5.863,0 -10.694,-4.811 -10.718,-10.674l-0,-43.095c-0,-5.88 4.838,-10.718 10.718,-10.718l32.156,-0l-0,11.38Z" style="fill:#fff;fill-rule:nonzero;"/><path d="M567.536,11.774l-0,15.085l26.112,0l0,11.424l-26.112,0l-0,14.953l32.464,0l0,11.425l-44.991,-0l-0,-64.267l44.991,-0l0,11.38l-32.464,0Z" style="fill:#fff;fill-rule:nonzero;"/></g><g><path d="M165.838,116.234l5.974,16.341l-12.133,0l6.159,-16.341Zm-6.398,-6.364l-13.766,34.879l9.721,0l2.177,-6.163l16.291,-0l2.061,6.163l10.553,0l-13.869,-34.883l-13.168,0.004Zm-27.637,34.892l9.862,0l0,-34.902l-9.864,-0.003l0.002,34.905Zm-68.466,-34.905l-8.228,27.664l-7.882,-27.661l-10.642,-0.003l11.258,34.905l14.208,0l11.348,-34.905l-10.062,0Zm39.865,7.601l4.239,-0c6.149,-0 10.127,2.761 10.127,9.925c-0,7.166 -3.978,9.927 -10.127,9.927l-4.239,0l-0,-19.852Zm-9.78,-7.601l0,34.905l15.988,0c8.519,0 11.301,-1.415 14.309,-4.592c2.124,-2.23 3.498,-7.125 3.498,-12.476c0,-4.907 -1.162,-9.283 -3.19,-12.008c-3.652,-4.875 -8.915,-5.829 -16.769,-5.829l-13.836,0Zm-93.422,-0.048l0,34.953l9.946,0l-0,-26.54l7.706,0.002c2.552,0 4.371,0.637 5.599,1.949c1.559,1.66 2.195,4.339 2.195,9.242l0,15.347l9.638,0l-0,-19.312c-0,-13.783 -8.785,-15.641 -17.381,-15.641l-17.703,-0Zm77.55,0.048l0.004,34.905l9.857,0l0,-34.905l-9.861,0Z" style="fill:#fff;fill-rule:nonzero;"/><path d="M26.505,40.358c-0,-0 12.684,-18.715 38.011,-20.651l0,-6.79c-28.052,2.253 -52.345,26.012 -52.345,26.012c0,0 13.759,39.774 52.345,43.416l0,-7.217c-28.316,-3.562 -38.011,-34.77 -38.011,-34.77Zm38.011,20.417l0,6.61c-21.401,-3.816 -27.341,-26.061 -27.341,-26.061c-0,-0 10.275,-11.384 27.341,-13.23l0,7.253c-0.013,0 -0.022,-0.004 -0.033,-0.004c-8.957,-1.075 -15.954,7.293 -15.954,7.293c0,-0 3.922,14.085 15.987,18.139m0,-60.381l0,12.523c0.824,-0.063 1.647,-0.117 2.475,-0.145c31.893,-1.075 52.673,26.157 52.673,26.157c0,0 -23.867,29.022 -48.732,29.022c-2.279,-0 -4.412,-0.212 -6.416,-0.567l0,7.744c1.772,0.228 3.557,0.343 5.344,0.345c23.139,0 39.872,-11.817 56.075,-25.803c2.686,2.152 13.684,7.386 15.945,9.676c-15.406,12.899 -51.31,23.296 -71.665,23.296c-1.962,0 -3.847,-0.119 -5.699,-0.297l0,10.882l87.949,-0l-0,-92.833l-87.949,-0Zm0,27.7l0,-8.387c0.815,-0.057 1.636,-0.101 2.475,-0.127c22.934,-0.72 37.981,19.708 37.981,19.708c-0,0 -16.252,22.57 -33.677,22.57c-2.507,0 -4.756,-0.403 -6.779,-1.083l-0,-25.429c8.928,1.079 10.725,5.023 16.093,13.971l11.938,-10.066c0,-0 -8.714,-11.429 -23.405,-11.429c-1.597,-0.001 -3.125,0.111 -4.626,0.272" style="fill:#fff;fill-rule:nonzero;"/></g></g></svg>