<svg clip-rule="evenodd" fill-rule="evenodd" stroke-linejoin="round" stroke-miterlimit="2" viewBox="0 0 600 177" xmlns="http://www.w3.org/2000/svg"><path d="m600 18.121c0-9.929-8.06-17.989-17.989-17.989h-564.022c-9.929 0-17.989 8.06-17.989 17.989v140.53c0 9.928 8.06 17.989 17.989 17.989h564.022c9.929 0 17.989-8.061 17.989-17.989zm-218.088 56.031c5.738-26.32 27.297-45.764 54.748-45.764 13.555 0 26.128 5.302 32.69 15.326v-11.481h31.365v11.938h.405c7.082-11.534 16.998-15.783 30.555-15.783 20.236 0 41.685 11.332 41.685 44.518v71.633h-33.591v-62.325c0-15.177-5.261-22.259-17.604-22.259-13.558 0-19.224 7.487-19.224 22.664v61.92h-33.591v-11.567c-5.082 9.575-18.205 15.412-32.69 15.412-28.238 0-49.151-18.9-54.76-45.484-6.266 27.285-29.984 45.484-58.88 45.484-29.103 0-52.49-18.318-58.814-44.981-7.184 27.238-30.901 44.779-59.101 44.779-29.32 0-53.269-21.008-58.451-48.788-5.128 28.998-29.532 48.585-59.51 48.585-34.198 0-60.504-25.294-60.504-59.694 0-34.805 26.913-59.695 60.504-59.695 29.974 0 54.377 19.901 59.509 48.124 5.194-27.932 29.227-48.326 57.845-48.326 29.133 0 52.954 18.102 59.624 45.96 6.261-27.099 30.131-45.353 58.898-45.353 28.913 0 52.642 18.517 58.892 45.157zm-1.326 19.301h-84.099c2.129 13.199 12.954 23.566 26.533 23.566 10.872 0 19.536-6.337 23.876-15.177h34.79c-.529-2.722-.898-5.523-1.1-8.389zm88.764-11.482v12.858c-2.815 12.902-13.849 22.19-27.429 22.19-15.581 0-27.925-12.748-27.925-28.33 0-16.188 12.141-28.936 27.52-28.936 13.614 0 24.969 9.483 27.834 22.218zm-205.49-6.435h-33.46c-4.857-10.522-13.558-15.783-25.092-15.783-15.379 0-25.902 12.748-25.902 28.532 0 16.39 11.13 28.532 26.711 28.532 11.332 0 19.224-5.262 24.283-14.975h33.458c-.88-4.196-1.342-8.595-1.342-13.153 0-4.566.463-8.962 1.344-13.153zm-176.716 41.078c-15.177 0-26.913-12.95-26.913-28.329s11.938-28.33 26.71-28.33c15.784 0 27.116 13.355 27.116 28.33 0 14.974-11.13 28.329-26.913 28.329zm260.29-39.83h-48.813c4.259-9.611 13.482-16.424 24.196-16.424 11.379 0 20.444 6.941 24.617 16.424z" fill="#fff"/></svg>