<svg clip-rule="evenodd" fill-rule="evenodd" stroke-linejoin="round" stroke-miterlimit="2" viewBox="0 0 600 95" xmlns="http://www.w3.org/2000/svg"><g fill="#fff" fill-rule="nonzero"><path d="m97.529 71.021v-47.403c0-15.525-9.163-23.287-27.488-23.287h-42.553c-18.325 0-27.488 7.762-27.488 23.287v47.403c0 15.465 9.163 23.197 27.488 23.197h42.553c18.325 0 27.488-7.732 27.488-23.197zm-65.475-50.964h33.42c6.393 0 9.589 2.1 9.589 6.301v41.924c0 4.14-3.196 6.21-9.589 6.21h-33.42c-6.392 0-9.588-2.07-9.588-6.21v-41.924c0-4.201 3.196-6.301 9.588-6.301z"/><path d="m164.005 58.042v-15.11c0-9.038-5.466-13.557-16.397-13.557h-44.423v64.843h16.668v-22.619h27.755c10.931 0 16.397-4.519 16.397-13.557zm-44.152-13.65h24.353c2.041 0 3.062.672 3.062 2.016v8.158c0 1.344-1.021 2.016-3.062 2.016h-24.353z"/><path d="m237.553 55.888v-13.682c0-8.554-4.739-12.831-14.216-12.831h-34.894c-6.339 0-11.185 1.261-14.539 3.785-3.354 2.523-5.031 6.369-5.031 11.539v32.81c0 5.6 1.677 9.785 5.031 12.555 3.354 2.769 8.2 4.154 14.539 4.154h48.187v-15.601h-42.648c-2.462 0-3.693-1.139-3.693-3.416v-7.312h33.232c4.678 0 8.185-.97 10.524-2.908 2.339-1.939 3.508-4.969 3.508-9.093zm-43.756-11.282h20.032c1.907 0 2.861.923 2.861 2.77v5.558c0 1.908-.954 2.862-2.861 2.862h-23.447v-8.051c0-2.093 1.138-3.139 3.415-3.139z"/><path d="m315.43 94.218v-46.944c0-11.933-7.336-17.899-22.009-17.899h-50.228v64.843h21.918v-48.405h24.2c2.74 0 4.11 1.187 4.11 3.562v44.843z"/><path d="m417.634 35.128v-16.989c0-11.872-7.032-17.808-21.096-17.808h-74.059v93.887h74.059c14.612 0 21.918-5.967 21.918-17.9v-20.003c0-4.688-2.344-8.036-7.032-10.045 4.14-2.74 6.21-6.454 6.21-11.142zm-72.78 20.183h47.575c2.435 0 3.653.791 3.653 2.374v14.524c0 2.131-1.37 3.196-4.11 3.196h-47.118zm0-36.168h47.118c2.74 0 4.11.944 4.11 2.831v13.793c0 1.949-1.188 2.923-3.562 2.923h-47.666z"/><path d="m450.235 45.813h20c2.801 0 4.201 1.187 4.201 3.562v24.021c0 2.313-1.4 3.47-4.201 3.47h-20c-2.739 0-4.109-1.218-4.109-3.653v-23.838c0-2.375 1.37-3.562 4.109-3.562zm46.118 30.688v-29.227c0-11.933-7.336-17.899-22.008-17.899h-28.219c-14.673 0-22.009 5.966-22.009 17.899v29.044c0 11.933 7.336 17.9 22.009 17.9h28.219c14.672 0 22.008-5.906 22.008-17.717z"/><path d="m596.895 37.777v-19.638c0-11.872-7.032-17.808-21.096-17.808h-73.785v93.887h22.375v-36.99h21l25.479 36.99h29.132l-27.306-37.903h5.114c12.725 0 19.087-6.179 19.087-18.538zm-72.506-18.542h46.662c2.739 0 4.109.943 4.109 2.831v14.341c0 1.948-1.187 2.922-3.562 2.922h-47.209z"/></g></svg>