<?xml version="1.0" encoding="UTF-8" standalone="no"?><!DOCTYPE svg PUBLIC "-//W3C//DTD SVG 1.1//EN" "http://www.w3.org/Graphics/SVG/1.1/DTD/svg11.dtd"><svg width="100%" height="100%" viewBox="0 0 600 157" version="1.1" xmlns="http://www.w3.org/2000/svg" xmlns:xlink="http://www.w3.org/1999/xlink" xml:space="preserve" xmlns:serif="http://www.serif.com/" style="fill-rule:evenodd;clip-rule:evenodd;stroke-linejoin:round;stroke-miterlimit:2;"><g id="options_rpi-joystick_bold"><path d="M171.321,59.155c-20.366,-0 -38.14,12.219 -38.14,33.82c-0,21.6 17.897,33.697 38.14,33.697c20.366,-0 38.141,-12.22 38.141,-33.697c-0,-21.601 -17.775,-33.82 -38.141,-33.82Zm0,19.502c9.134,-0 14.442,6.542 14.442,14.318c-0,8.023 -5.308,14.195 -14.442,14.195c-9.134,-0 -14.441,-6.172 -14.441,-14.195c-0,-7.776 5.307,-14.318 14.441,-14.318Z" style="fill:#fff;fill-rule:nonzero;"/><path d="M241.307,61.253l-22.465,-0l0,94.919l22.465,-0l-0,-37.647c4.814,5.555 12.343,8.147 19.626,8.147c18.761,-0 31.722,-15.306 31.722,-33.574c-0,-18.144 -13.084,-33.943 -31.969,-33.943c-7.406,-0 -15.059,2.962 -19.132,9.257l-0.247,-0l-0,-7.159Zm13.701,17.404c9.134,-0 14.441,6.542 14.441,14.318c0,8.023 -5.307,14.195 -14.441,14.195c-9.134,-0 -14.442,-6.172 -14.442,-14.195c0,-7.776 5.308,-14.318 14.442,-14.318Z" style="fill:#fff;fill-rule:nonzero;"/><path d="M328.326,79.768l12.714,-0l-0,-18.515l-12.714,-0l0,-19.009l-22.464,0l-0,19.009l-7.283,-0l0,18.515l7.283,-0l-0,44.805l22.464,0l0,-44.805Z" style="fill:#fff;fill-rule:nonzero;"/><path d="M370.664,61.253l-22.465,-0l-0,63.32l22.465,0l-0,-63.32Zm-11.233,-36.906c-6.912,-0 -12.59,5.678 -12.59,12.59c0,6.912 5.678,12.59 12.59,12.59c6.912,-0 12.59,-5.678 12.59,-12.59c0,-6.912 -5.678,-12.59 -12.59,-12.59Z" style="fill:#fff;fill-rule:nonzero;"/><path d="M418.925,59.155c-20.366,-0 -38.14,12.219 -38.14,33.82c0,21.6 17.898,33.697 38.14,33.697c20.367,-0 38.141,-12.22 38.141,-33.697c-0,-21.601 -17.774,-33.82 -38.141,-33.82Zm0,19.502c9.134,-0 14.442,6.542 14.442,14.318c-0,8.023 -5.308,14.195 -14.442,14.195c-9.134,-0 -14.441,-6.172 -14.441,-14.195c-0,-7.776 5.307,-14.318 14.441,-14.318Z" style="fill:#fff;fill-rule:nonzero;"/><path d="M489.652,61.253l-22.465,-0l0,63.32l22.465,0l-0,-32.832c-0,-7.9 2.592,-14.689 11.726,-14.689c11.109,0 10.121,10.615 10.121,16.663l0,30.858l22.465,0l-0,-39.128c-0,-15.552 -6.789,-26.29 -23.822,-26.29c-8.764,-0 -15.059,2.592 -20.243,10.244l-0.247,0l-0,-8.146Z" style="fill:#fff;fill-rule:nonzero;"/><path d="M598.149,63.228c-6.542,-2.963 -13.701,-4.073 -20.86,-4.073c-13.825,-0 -27.896,6.912 -27.896,22.464c-0,11.356 7.036,14.812 14.071,16.663c7.036,1.852 14.071,2.099 14.071,7.036c0,3.456 -4.196,4.814 -7.035,4.814c-5.555,-0 -13.207,-3.209 -17.774,-6.419l-8.147,15.676c7.653,4.691 16.54,7.283 25.55,7.283c14.689,-0 29.871,-6.912 29.871,-23.576c0,-11.726 -7.9,-16.663 -18.391,-18.761c-3.086,-0.618 -10.122,-1.235 -10.122,-5.555c0,-3.209 4.444,-4.32 7.036,-4.32c3.826,0 8.64,1.234 12.096,3.086l7.53,-14.318Z" style="fill:#fff;fill-rule:nonzero;"/><g><path d="M64.433,103.553c0.02,0.407 0.04,0.815 0.06,1.222c0.037,0.762 0.054,0.6 0.438,1.294c0.681,1.234 1.989,2.031 3.268,2.524c1.346,0.519 2.857,0.79 4.37,0.79c1.871,0 3.746,-0.413 5.324,-1.282c1.246,-0.685 2.483,-1.824 2.561,-3.34c0.037,-0.678 0.073,-0.582 0.11,-1.161c-0.522,0.409 -1.134,0.775 -1.828,1.089c-0.048,0.024 -0.097,0.048 -0.147,0.072c-1.795,0.853 -3.893,1.304 -6.068,1.304c-2.24,0 -4.376,-0.476 -6.195,-1.376l-0.034,-0.015c-0.707,-0.322 -1.329,-0.699 -1.859,-1.121Z" style="fill:#fff;"/><path d="M10.815,118.814c0.648,0.423 1.37,0.74 2.124,0.942c2.72,0.73 7.011,-0.882 8.227,2.292c1.378,3.599 5.655,4.93 9.186,4.641c2.852,-0.233 7.042,-2.039 9.372,0.609c2.693,3.061 7.268,3.833 11.078,2.83c3.494,-0.919 6.058,-3.04 9.834,-1.586c4.169,1.605 8.023,3.023 12.324,0.683c3.026,-1.646 4.147,-3.939 8.083,-3.273c3.471,0.59 6.789,1.323 9.998,-0.691c2.341,-1.469 2.404,-4.859 5.207,-5.19c2.468,-0.292 4.866,0.294 7.206,-0.925l0.003,-0.002l-0.24,0.632l-6.736,17.69c-2.184,5.738 -7.297,10.539 -14.787,13.882c-6.969,3.112 -15.776,4.824 -24.799,4.824c-8.958,-0 -17.666,-1.695 -24.519,-4.771c-7.38,-3.313 -12.413,-8.096 -14.555,-13.831c-0.65,-1.741 -3.863,-10.341 -7.006,-18.756Z" style="fill:#fff;"/><path d="M64.768,70.458c0.529,0.119 1.064,0.224 1.62,0.271c2.013,0.17 3.974,-0.314 5.979,0.104c0.914,0.191 1.666,0.676 2.564,0.891c1.119,0.267 2.253,0.316 3.4,0.291c1.033,-0.022 2.085,0.079 3.079,0.346c1.088,0.288 1.813,1.035 2.864,1.354c2.336,0.707 5.269,0.136 7.279,1.686c0.391,0.3 0.535,0.754 0.968,0.986c0.449,0.243 0.952,0.41 1.448,0.546c0.866,0.236 1.762,0.304 2.637,0.492c1.003,0.216 2.069,0.543 2.857,1.185c0.417,0.339 0.74,0.791 0.803,1.314c0.055,0.474 0.583,0.659 1.03,0.857c1.43,0.629 3.019,0.738 4.375,1.549c0.633,0.379 1.22,0.938 1.401,1.613c0.031,0.107 0.057,0.227 0.075,0.363c0.032,0.236 0.089,0.879 0.179,1.501c0.382,0.259 0.814,0.461 1.246,0.632c1.209,0.479 3.195,1.391 3.588,2.697c0.102,0.269 0.127,0.582 0.018,0.993c-0.13,0.492 -0.446,1.592 -0.64,2.438c0.7,0.514 1.529,0.872 2.122,1.525c0.323,0.352 0.569,0.766 0.691,1.202c0.419,1.17 -0.201,3.68 -0.866,4.426c-0.167,0.186 -0.928,1.163 -1.202,1.642c0.187,0.347 0.315,0.718 0.354,1.098c0.009,0.057 0.012,0.114 0.012,0.174c0.004,0.109 0,0.219 -0.012,0.329c-0.04,0.52 -0.399,1.839 -1.228,3.689c-0.793,2.57 -3.818,2.041 -5.746,2.71c-0.186,1.025 -1.093,5.393 -1.888,6.418c-1.576,2.033 -4.212,1.877 -6.444,1.805c-1.132,-0.036 -2.295,0.129 -3.345,0.586c-0.485,0.21 -0.953,0.489 -1.339,0.864c-0.514,0.499 -0.6,1.031 -0.802,1.694c-0.716,2.342 -3.131,3.406 -5.287,3.609c-1.805,0.167 -3.385,-0.377 -5.135,-0.68c-1.7,-0.294 -3.505,-0.191 -5.143,0.387c-0.774,0.273 -1.536,0.663 -2.143,1.242c-0.571,0.544 -1.023,1.151 -1.681,1.6c-1.437,0.983 -3.184,1.403 -4.886,1.403c-1.741,-0 -3.494,-0.441 -5.015,-1.335c-1.498,-0.877 -3.271,-1.211 -4.97,-1.211c-1.699,0.002 -3.476,0.333 -4.97,1.216c-1.524,0.893 -3.284,1.337 -5.03,1.337l-0.005,0.011c-2.246,0 -4.618,-0.743 -6.163,-2.534c-1.209,-1.402 -3.04,-1.991 -4.789,-2.176c-2.51,-0.265 -4.773,0.821 -7.25,0.821c-2.193,-0 -4.746,-0.748 -5.914,-2.872c-0.445,-0.814 -0.442,-1.774 -1.127,-2.437c-0.898,-0.881 -2.196,-1.277 -3.39,-1.426c-2.353,-0.292 -4.665,0.454 -6.845,-0.928c-0.871,-0.551 -1.535,-1.42 -1.758,-2.48c-0.149,-0.553 -1.069,-3.734 -1.198,-4.409c-0.188,-0.995 -3.215,-0.316 -4.231,-0.896c-0.924,-0.527 -1.386,-1.93 -1.682,-2.585c-0.296,-0.655 -1.204,-2.694 -1.263,-3.334c0.005,-0.011 0.015,-0.023 0.029,-0.035c-0.011,-0.075 -0.019,-0.151 -0.022,-0.229c-0.034,-0.748 0.263,-1.334 0.676,-1.88c-0.606,-0.427 -1.122,-0.944 -1.304,-1.293c-0.297,-0.57 -1.701,-3.021 -1.266,-4.264c0.008,-0.011 0.017,-0.021 0.027,-0.032c0.171,-0.667 0.646,-1.272 1.202,-1.733c0.457,-0.378 1.069,-0.658 1.584,-1.018c-0.195,-0.163 -0.34,-0.294 -0.39,-0.362c-0.694,-0.947 -0.539,-3.032 0.171,-3.904c0.068,-0.094 0.144,-0.184 0.225,-0.27c0.778,-0.823 1.856,-1.231 2.91,-1.649c0.439,-0.173 0.871,-0.38 1.256,-0.646c0.059,-0.581 0.004,-1.261 0.051,-1.64c0.063,-0.502 0.276,-0.877 0.59,-1.159c1.055,-1.154 3.491,-1.555 4.735,-1.993c0.51,-0.179 1.033,-0.397 1.461,-0.717c0.261,-0.195 0.237,-0.883 0.464,-1.201c0.597,-0.836 1.726,-1.258 2.718,-1.527c1.109,-0.299 2.27,-0.354 3.375,-0.67c0.531,-0.152 1.102,-0.334 1.549,-0.648c0.37,-0.256 0.548,-0.753 0.978,-1.025c2.147,-1.359 4.921,-0.772 7.265,-1.573c0.837,-0.285 1.408,-0.902 2.271,-1.177c1.171,-0.371 2.458,-0.488 3.688,-0.43c1.092,0.054 2.227,-0.056 3.283,-0.325c0.943,-0.24 1.73,-0.739 2.712,-0.91c2.178,-0.377 4.339,0.206 6.523,-0.13c0.018,-0.002 0.035,-0.005 0.052,-0.008c0.289,3.704 0.545,7.117 0.728,9.782c-4.493,1.134 -7.535,3.318 -7.535,5.824c0,3.675 6.538,6.654 14.602,6.654c8.063,0 14.6,-2.979 14.6,-6.654l-0,-0.003c-0,-2.445 -2.899,-4.583 -7.216,-5.738c0.219,-2.661 0.499,-6.153 0.806,-10.011Zm17.916,28.892c0.769,0.694 1.745,1.276 2.898,1.72c1.544,0.596 3.28,0.91 5.017,0.91c2.261,-0 4.402,-0.52 6.19,-1.504c2.152,-1.187 3.391,-2.899 3.488,-4.825c0.015,-0.279 0.028,-0.371 0.044,-0.488c0.028,-0.203 0.052,-0.389 0.073,-0.794l0.144,-2.656c0.122,-0.406 0.184,-0.827 0.185,-1.258c0.004,-1.988 -1.279,-3.725 -3.614,-4.894c-0.243,-0.138 -0.477,-0.236 -0.652,-0.299c-1.759,-0.734 -3.809,-1.135 -5.933,-1.135l-0,-0.001c-2.119,-0 -4.169,0.391 -5.931,1.129c-2.494,1.047 -3.99,2.708 -4.212,4.679c-0.065,0.581 -0.014,1.151 0.146,1.699l0.135,2.698c0.022,0.443 0.044,0.885 0.065,1.33c0.003,0.057 0.006,0.112 0.009,0.165c-0.472,-0.392 -1.025,-0.748 -1.654,-1.063c-0.242,-0.139 -0.478,-0.237 -0.656,-0.301c-1.756,-0.742 -3.806,-1.134 -5.931,-1.134l-0,-0.001c-2.121,-0 -4.172,0.39 -5.932,1.129c-2.494,1.048 -3.99,2.709 -4.212,4.68c-0.067,0.595 -0.012,1.179 0.158,1.738l0.123,2.65c0.013,0.27 0.026,0.539 0.039,0.807l0.027,0.531c0.039,0.813 0.109,1.146 0.49,1.784c0.045,0.074 0.1,0.166 0.17,0.293c0.784,1.423 2.235,2.575 4.194,3.331c1.544,0.596 3.279,0.91 5.017,0.91c2.261,-0 4.402,-0.52 6.19,-1.505c2.151,-1.183 3.39,-2.897 3.489,-4.822c0.015,-0.284 0.028,-0.376 0.044,-0.492c0.027,-0.195 0.051,-0.388 0.073,-0.79l0.149,-2.674c0.118,-0.401 0.179,-0.816 0.18,-1.242c0,-0.102 -0.003,-0.204 -0.01,-0.305Z" style="fill:#fff;"/><path d="M80.327,101.301c0.373,-0.514 0.57,-1.071 0.571,-1.647c0.004,-1.699 -1.576,-2.769 -2.671,-3.309c-0.141,-0.085 -0.303,-0.155 -0.449,-0.205c-1.552,-0.665 -3.373,-1.015 -5.283,-1.015l0,0.001c-1.88,0 -3.691,0.342 -5.236,0.989c-1.865,0.782 -2.976,1.928 -3.121,3.222c-0.078,0.688 0.121,1.354 0.569,1.961l0.902,0.789c0.397,0.347 0.859,0.657 1.374,0.922c0.031,0.016 0.062,0.032 0.093,0.048c1.583,0.713 3.466,1.088 5.445,1.088c1.884,0 3.696,-0.342 5.24,-0.989c0.055,-0.023 0.108,-0.046 0.161,-0.07c0.545,-0.269 1.039,-0.595 1.469,-0.97l0.936,-0.815Z" style="fill:#fff;"/><path d="M82.461,94.351c0.021,0.408 0.041,0.816 0.061,1.223c0.038,0.762 0.055,0.601 0.438,1.295c0.68,1.232 1.99,2.031 3.269,2.523c1.346,0.519 2.857,0.789 4.37,0.789c1.871,0 3.746,-0.412 5.324,-1.28c1.246,-0.687 2.483,-1.826 2.56,-3.342c0.037,-0.677 0.073,-0.581 0.11,-1.16c-0.524,0.41 -1.139,0.778 -1.836,1.093c-0.045,0.023 -0.092,0.045 -0.138,0.067c-1.796,0.854 -3.893,1.305 -6.068,1.305c-2.237,-0 -4.371,-0.474 -6.187,-1.371c-0.014,-0.006 -0.029,-0.013 -0.043,-0.019c-0.707,-0.322 -1.329,-0.7 -1.86,-1.123Z" style="fill:#fff;"/><path d="M98.354,92.102c0.374,-0.515 0.572,-1.072 0.573,-1.649c0.003,-1.698 -1.577,-2.769 -2.671,-3.308c-0.141,-0.085 -0.303,-0.156 -0.449,-0.205c-1.552,-0.666 -3.373,-1.016 -5.283,-1.016l0.001,-0c-1.88,-0 -3.691,0.341 -5.236,0.989c-1.866,0.784 -2.976,1.929 -3.122,3.224c-0.078,0.691 0.125,1.361 0.577,1.971l0.893,0.778c0.399,0.348 0.862,0.659 1.377,0.923c0.037,0.019 0.075,0.038 0.112,0.057c1.578,0.707 3.452,1.078 5.424,1.078c1.882,-0 3.695,-0.342 5.24,-0.989c0.062,-0.026 0.123,-0.052 0.183,-0.079c0.535,-0.267 1.021,-0.589 1.447,-0.959l0.934,-0.815Z" style="fill:#fff;"/><path d="M70.503,8.148l0.001,0c0.132,-0.11 0.241,-0.252 0.314,-0.416l0.002,-0.005l-0.001,0.003c-0.074,0.165 -0.183,0.307 -0.316,0.418Z" style="fill:#fff;"/><path id="path162_1_" d="M49.004,44.908c0.849,10.137 2.871,34.576 3.08,39.927c0.041,1.051 0.702,1.693 1.498,2.096c0.989,0.501 2.188,0.665 3.071,0.665l0,0.007c1.177,-0 2.279,-0.231 3.098,-0.685c0.001,-0.001 0.002,-0.002 0.003,-0.002c0.796,-0.438 1.373,-1.008 1.481,-1.658c0.178,-1.249 2.15,-26.496 3.223,-40.334c-2.419,0.821 -5.01,1.266 -7.705,1.266c-2.711,-0 -5.318,-0.451 -7.749,-1.282Zm2.808,-1.803l9.721,0.037c-1.537,0.35 -3.137,0.535 -4.78,0.535c-1.699,-0 -3.353,-0.198 -4.941,-0.572Z" style="fill:#fff;fill-rule:nonzero;"/><path d="M56.753,0.724c11.853,0 21.476,9.624 21.476,21.477c0,11.853 -9.623,21.476 -21.476,21.476c-11.853,-0 -21.476,-9.623 -21.476,-21.476c0,-11.853 9.623,-21.477 21.476,-21.477Zm12.385,7.992l-0.032,-0.038c-1.827,-2.027 -4.033,-2.96 -5.719,-2.998c-1.388,-0.031 -2.465,0.525 -2.988,1.472c-0.504,0.9 -0.537,1.959 -0.156,3.077c0.478,1.4 1.64,2.924 3.14,4.254c0.003,0.003 0.007,0.006 0.01,0.009c1.483,1.278 3.044,2.356 4.361,2.851c1.12,0.42 2.107,0.423 2.846,0.015c0.622,-0.339 1.074,-1.03 1.194,-2.012c0.202,-1.649 -0.569,-4.303 -2.656,-6.63Z" style="fill:#fff;"/></g></g></svg>