<svg clip-rule="evenodd" fill-rule="evenodd" stroke-linejoin="round" stroke-miterlimit="2" viewBox="0 0 600 170" xmlns="http://www.w3.org/2000/svg"><g fill="#fff" fill-rule="nonzero"><path d="m49.022 44.869c-26.177 0-49.022 15.706-49.022 43.469s23.004 43.311 49.022 43.311c26.176 0 49.021-15.706 49.021-43.311 0-27.763-22.845-43.469-49.021-43.469zm0 25.066c11.74 0 18.561 8.409 18.561 18.403 0 10.312-6.821 18.245-18.561 18.245s-18.562-7.933-18.562-18.245c0-9.994 6.822-18.403 18.562-18.403z"/><path d="m138.974 47.566h-28.874v121.999h28.874v-48.387c6.187 7.139 15.865 10.471 25.225 10.471 24.114 0 40.772-19.672 40.772-43.152 0-23.321-16.817-43.628-41.089-43.628-9.519 0-19.355 3.808-24.591 11.899h-.317zm17.61 22.369c11.74 0 18.561 8.409 18.561 18.403 0 10.312-6.821 18.245-18.561 18.245s-18.562-7.933-18.562-18.245c0-9.994 6.822-18.403 18.562-18.403z"/><path d="m250.82 71.363h16.34v-23.797h-16.34v-24.431h-28.874v24.431h-9.36v23.797h9.36v57.589h28.874z"/><path d="m305.235 47.566h-28.873v81.386h28.873zm-14.436-47.435c-8.885 0-16.182 7.298-16.182 16.182s7.297 16.182 16.182 16.182c8.884 0 16.181-7.298 16.181-16.182s-7.297-16.182-16.181-16.182z"/><path d="m367.266 44.869c-26.177 0-49.022 15.706-49.022 43.469s23.004 43.311 49.022 43.311c26.177 0 49.022-15.706 49.022-43.311 0-27.763-22.845-43.469-49.022-43.469zm0 25.066c11.74 0 18.562 8.409 18.562 18.403 0 10.312-6.822 18.245-18.562 18.245s-18.562-7.933-18.562-18.245c0-9.994 6.822-18.403 18.562-18.403z"/><path d="m458.17 47.566h-28.873v81.386h28.873v-42.2c0-10.154 3.332-18.879 15.072-18.879 14.278 0 13.009 13.643 13.009 21.417v39.662h28.873v-50.291c0-19.99-8.725-33.792-30.618-33.792-11.264 0-19.355 3.332-26.018 13.168h-.318z"/><path d="m597.62 50.105c-8.408-3.808-17.609-5.236-26.811-5.236-17.768 0-35.854 8.884-35.854 28.874 0 14.595 9.043 19.037 18.086 21.417s18.085 2.697 18.085 9.043c0 4.442-5.394 6.187-9.042 6.187-7.14 0-16.976-4.125-22.846-8.25l-10.47 20.149c9.836 6.028 21.258 9.36 32.84 9.36 18.879 0 38.392-8.885 38.392-30.302 0-15.071-10.153-21.417-23.638-24.114-3.966-.793-13.009-1.586-13.009-7.139 0-4.125 5.711-5.553 9.043-5.553 4.918 0 11.105 1.587 15.547 3.966z"/></g></svg>