<svg clip-rule="evenodd" fill-rule="evenodd" stroke-linejoin="round" stroke-miterlimit="2" viewBox="0 0 600 170" xmlns="http://www.w3.org/2000/svg"><g fill="#fff"><path d="m48.339 77.672c.015.306.03.612.045.917.028.572.04.45.328.971.511.926 1.493 1.524 2.452 1.894 1.01.389 2.144.593 3.279.593 1.403 0 2.81-.311 3.993-.962.936-.515 1.864-1.369 1.922-2.506.027-.509.055-.437.083-.871-.392.306-.851.581-1.372.817-.036.018-.073.036-.11.054-1.347.64-2.921.978-4.552.978-1.681 0-3.284-.357-4.648-1.032l-.025-.011c-.531-.242-.998-.525-1.395-.842z"/><path d="m474.607 33.605c-1.332.001-2.613-.529-3.556-1.472l1.222-1.222-1.222 1.221-11.155-11.151c-.942-.943-1.471-2.219-1.473-3.55v-.033c0-.016 0-.037.003-.063.024-1.326.57-2.589 1.522-3.515l11.155-10.841c.973-.946 2.246-1.424 3.503-1.421 1.293-.002 2.601.502 3.581 1.497l10.841 10.998c.961.974 1.447 2.26 1.446 3.529.003 1.27-.485 2.555-1.446 3.53l-10.84 10.996c-.94.956-2.226 1.496-3.569 1.5h.031zm0-3.456h.004c.425-.003.815-.167 1.113-.469l10.841-10.997c.303-.31.45-.699.451-1.103 0-.406-.148-.795-.451-1.103l-10.84-10.998c-.312-.315-.708-.466-1.12-.468-.399.001-.785.145-1.093.444l-11.155 10.84c-.299.29-.474.699-.477 1.116v.045c.008.4.175.793.461 1.077l11.153 11.154c.315.3.692.462 1.131.462zm-7.698-11.469-1.24-1.24 8.893-8.642 8.658 8.783-8.642 8.768-7.698-7.669zm7.667 2.763 3.807-3.862-3.857-3.913-3.918 3.807 3.991 3.968z" fill-rule="nonzero"/><path d="m595.046 142.167c-1.458.002-2.919-.64-3.909-1.863l.001-.001c-.061-.075-11.329-13.984-17.842-22.085-2.187-2.723-3.798-4.736-4.401-5.523-.758-1.005-1.342-1.759-1.551-1.966-.042-.04-.077-.073-.105-.099-.026-.005-.059-.01-.101-.015-.111-.014-.283-.027-.53-.027h-26.709c-1.335-.003-2.608-.529-3.555-1.472-.942-.947-1.469-2.219-1.473-3.555v-2.199h-21.523c-1.336-.004-2.608-.531-3.555-1.473-.019-.02-.039-.04-.059-.06v3.732c-.003 1.335-.529 2.608-1.472 3.555-.947.941-2.218 1.47-3.555 1.473h-20.267c-1.334-.003-2.608-.53-3.555-1.473-.163-.164-.314-.338-.451-.52-.138.182-.289.356-.452.52-.946.941-2.218 1.47-3.554 1.473h-49.489c-1.335-.003-2.608-.53-3.555-1.473-.479-.481-.85-1.046-1.101-1.66-.244.736-.657 1.413-1.216 1.974-.946.942-2.218 1.47-3.554 1.473h-38.491c-1.335-.003-2.609-.53-3.555-1.473-.644-.647-1.094-1.446-1.316-2.313-.222.868-.672 1.667-1.317 2.315-.945.939-2.217 1.468-3.553 1.471h-35.044c-.979-.006-2.251-.001-3.718-.327-1.541-.337-3.158-1.081-4.574-2.298-.239-.205-.388-.363-.456-.43l-.012-.012-.012-.013c-.106-.109-.216-.224-.343-.36-.244-.261-.546-.588-.906-.986-.715-.789-1.663-1.846-2.767-3.089-2.21-2.483-5.049-5.7-7.856-8.891-5.614-6.379-11.096-12.646-11.097-12.647-.17-.195-.322-.399-.458-.613v24.324c-.003 1.336-.531 2.608-1.473 3.555-.946.942-2.219 1.47-3.554 1.473h-20.11c-1.336-.003-2.609-.531-3.555-1.473-.195-.196-.372-.405-.53-.626-.158.22-.334.429-.528.624-.948.946-2.222 1.472-3.556 1.475h-20.342c-1.335-.003-2.608-.53-3.555-1.473-.942-.946-1.47-2.219-1.473-3.555v-2.514h-22.152c-1.083-.002-2.125-.349-2.985-.983v3.497c-.002 1.336-.531 2.608-1.472 3.554-.947.944-2.22 1.471-3.555 1.474h-21.06c-.368-.002-.858-.01-1.426-.096-.636-.095-1.254-.278-1.854-.547-1-.465-1.555-.903-2.155-1.29l-.018-.011-.018-.014c-.451-.3-.779-.636-.857-.716l-.016-.015-.015-.016c-.164-.169-.29-.318-.387-.436-.194-.238-.358-.461-.52-.687-.323-.455-.677-.984-1.086-1.619-.817-1.265-1.856-2.944-3.058-4.925-2.404-3.958-5.451-9.107-8.453-14.225-5.369-9.155-10.595-18.211-11.633-20.012l-.232 39.609c-.021 2.752-2.241 4.974-5.002 4.999h-.015c-.012 0-.03 0-.055 0-.049 0-.122.001-.218.001-.19.001-.469.003-.825.005-.711.005-1.728.011-2.951.018-2.446.015-5.719.035-9.028.055-6.621.038-13.366.078-13.955.078h-.02c-2.355-.003-4.248-.778-5.513-1.582-.289-.184-.549-.368-.78-.546l-.16.159-22.306-26.949-3.059-3.696c-.773-.933-1.157-2.079-1.156-3.205-.001-.924.257-1.851.759-2.658v-.037l.013.016c.278-.441.629-.846 1.051-1.195.933-.773 2.078-1.156 3.204-1.155 1.439-.002 2.884.624 3.875 1.823l23.972 28.96c.015.001.047.003.121.011.493 0 7.287-.04 13.893-.079 2.92-.018 5.81-.035 8.13-.049l.443-75.471c.019-2.766 2.262-4.995 5.027-4.998h37.863c1.335.003 2.609.53 3.554 1.472.943.947 1.47 2.22 1.473 3.556v38.02c-.003 1.336-.53 2.608-1.473 3.556-.946.942-2.218 1.468-3.554 1.472h-20.193c.607 1.046 1.259 2.169 1.944 3.347 3.608 6.206 8.133 13.943 11.775 20.031 2.417 4.041 4.487 7.413 5.506 8.926.013.02.027.04.04.059 1.828 0 6.969-.001 11.634-.001h3.748v-52.143c.003-1.337.53-2.609 1.473-3.555.945-.943 2.218-1.47 3.555-1.473h35.349c1.336.003 2.609.531 3.554 1.473.943.946 1.47 2.218 1.473 3.554v7.542c-.003 1.336-.53 2.608-1.473 3.554-.945.942-2.218 1.47-3.554 1.473h-22.467v6.755h22.309c1.336.003 2.609.531 3.555 1.473.943.946 1.47 2.219 1.473 3.555l.001 7.385c-.004 1.335-.532 2.608-1.473 3.553-.947.945-2.222 1.471-3.556 1.473h-22.152v7.856h22.152c1.336.003 2.608.531 3.555 1.473.941.946 1.471 2.219 1.473 3.555v2.514h10.211v-62.843h-24.665c-1.335-.004-2.608-.53-3.555-1.473-.942-.947-1.47-2.219-1.473-3.555v-8.014c.003-1.336.531-2.609 1.473-3.554.947-.943 2.219-1.471 3.555-1.473h68.028c1.336.002 2.609.53 3.555 1.472.942.947 1.469 2.22 1.472 3.556v8.012c-.003 1.335-.529 2.608-1.472 3.555-.947.943-2.219 1.469-3.555 1.473h-25.138v62.843h10.055v-51.685c.004-1.336.531-2.609 1.473-3.556.947-.943 2.22-1.469 3.556-1.472l34.249-.001c1.336.003 2.608.53 3.555 1.473.943.948 1.469 2.22 1.473 3.556v29.692c-.004 1.336-.532 2.609-1.473 3.554-.947.943-2.219 1.471-3.555 1.473h-13.888c.801.913 1.633 1.86 2.478 2.821 5.108 5.81 10.738 12.183 12.47 14.053.094.101.179.192.243.259.022.016.036.025.044.03l.004.003s0 0 .016.006c.021.007.069.02.145.04.141.029.639.075 1.355.072.02 0 .074-.002.157-.001 1.058 0 8.8-.001 16.736-.001h13.234v-1.256h-12.569c-1.336-.003-2.608-.531-3.554-1.473-.942-.946-1.471-2.219-1.473-3.554v-46.039c.003-1.337.53-2.61 1.472-3.555.947-.943 2.219-1.47 3.555-1.473h45.561c1.336.003 2.609.53 3.555 1.472.942.947 1.47 2.219 1.473 3.556v46.032c-.003 1.336-.531 2.609-1.473 3.556-.947.941-2.219 1.469-3.555 1.471h-13.198v1.257h28.438v-75.725c.003-1.336.53-2.608 1.472-3.556.948-.943 2.22-1.469 3.556-1.472l38.491-.001c1.334.004 2.608.53 3.554 1.473.944.948 1.47 2.22 1.472 3.556v37.862c-.003 1.334-.529 2.608-1.472 3.555-.947.942-2.219 1.469-3.555 1.472h-24.038v32.521h39.434v-57.815c.003-1.336.53-2.609 1.472-3.555.946-.942 2.219-1.471 3.556-1.473h8.012c1.336.002 2.608.531 3.554 1.473.943.947 1.47 2.219 1.473 3.555v57.815h10.212v-51.531c.003-1.336.53-2.608 1.473-3.555.946-.943 2.219-1.469 3.555-1.473h34.877c1.335.004 2.608.53 3.555 1.473.944.947 1.469 2.22 1.472 3.555v7.227c-.004 1.335-.529 2.608-1.473 3.556-.947.941-2.218 1.468-3.554 1.471h-21.839v6.913h22.467c1.336.003 2.608.529 3.556 1.473.942.947 1.468 2.219 1.471 3.554v7.227c-.003 1.335-.53 2.608-1.473 3.556-.946.941-2.218 1.468-3.554 1.471h-21.839v7.856h21.524c1.335.003 2.609.53 3.556 1.472.942.947 1.468 2.22 1.472 3.556v2.199h21.682c1.191 0 2.379.121 3.549.466 1.2.352 2.28.927 3.194 1.637 1.702 1.355 2.6 2.772 3.535 3.958.303.397 1.344 1.706 2.731 3.436 1.396 1.742 3.18 3.958 5.094 6.332 3.832 4.751 8.192 10.142 11.066 13.694 1.903 2.35 3.148 3.886 3.175 3.921 0 .002 0 0 0-.002 0-.001-.003-.003 0 0 .751.926 1.122 2.054 1.121 3.162.003 1.458-.642 2.916-1.863 3.908-.925.75-2.051 1.121-3.157 1.121h-.094zm-42.325-35.035h13.885c.747 0 1.272.075 1.693.201l.04.012.036.012c.123.044.403.134.7.327.286.189.453.355.666.557l.021.02c.55.559 1.081 1.294 1.879 2.337.541.707 2.169 2.743 4.347 5.454 6.522 8.112 17.833 22.075 17.833 22.075l-1.343 1.089 1.343-1.089c.313.386.758.581 1.223.583.351-.002.692-.112.985-.349.388-.315.582-.762.584-1.224-.003-.352-.112-.691-.366-1.007-.009-.011-.024-.029-.042-.052-.039-.048-.095-.118-.169-.209-.148-.183-.365-.45-.642-.792-.554-.683-1.346-1.662-2.305-2.847-2.875-3.553-7.236-8.944-11.069-13.698-1.917-2.376-3.701-4.594-5.101-6.34-1.399-1.745-2.419-3.027-2.769-3.486-1.057-1.361-1.722-2.39-2.938-3.354-.553-.433-1.279-.819-2.029-1.035-.774-.23-1.617-.328-2.577-.328-1.095 0-16.509 0-23.409 0h-1.729v-5.655c.003-.404-.174-.83-.46-1.111-.282-.287-.709-.464-1.111-.461h-24.98v-14.768h25.295c.401.003.828-.174 1.111-.46.286-.282.463-.709.46-1.111v-7.227c.003-.401-.174-.83-.459-1.111-.282-.286-.71-.462-1.112-.459h-25.923v-13.826h25.295c.4.003.829-.174 1.111-.46.285-.281.462-.708.459-1.111v-7.227c.003-.402-.174-.829-.46-1.111-.281-.285-.708-.463-1.11-.459h-34.878c-.404-.003-.829.173-1.111.459-.286.282-.464.71-.461 1.111v54.988h-17.125v-61.272c.003-.403-.173-.829-.46-1.111-.282-.287-.71-.464-1.11-.46h-8.012c-.403-.004-.829.173-1.112.46-.286.281-.463.709-.46 1.111v61.272h-46.347v-39.437h27.495c.4.003.829-.174 1.112-.462.284-.28.461-.707.459-1.108v-37.863c.003-.403-.174-.83-.46-1.112-.282-.286-.709-.462-1.11-.459h-38.492c-.403-.003-.83.173-1.112.459-.285.282-.462.709-.459 1.112v79.182h-35.35v-8.169h16.655c.402.002.829-.174 1.111-.46.287-.283.463-.71.46-1.112v-46.032c.003-.403-.173-.828-.461-1.112-.281-.286-.708-.463-1.11-.46h-45.561c-.402-.003-.829.174-1.111.461-.287.283-.463.708-.46 1.111v46.033c-.003.401.174.829.461 1.111.281.285.709.463 1.11.46h16.025v8.17h-1.728c-3.493-.001-9.277-.001-14.962-.001-8.041 0-15.886 0-16.773.001h-.02l-.02-.001h-.08c-.897-.004-1.538-.025-2.186-.171l-.016-.005-.012-.003c-.416-.08-1.126-.384-1.579-.781l-.087-.069-.08-.083c-.076-.079-.218-.227-.384-.407-1.806-1.95-7.405-8.291-12.528-14.117-1.779-2.024-3.503-3.988-4.996-5.691l-2.515-2.867h21.518c.401.003.828-.175 1.109-.461.287-.282.464-.709.461-1.111v-29.692c.003-.403-.174-.83-.46-1.112-.281-.286-.709-.463-1.11-.46h-34.225c-.402-.002-.829.174-1.111.461-.287.282-.463.709-.461 1.111v55.145h-16.967v-69.765h28.594c.401.003.829-.174 1.111-.461.286-.281.463-.708.459-1.11v-8.014c.004-.404-.173-.829-.46-1.112-.281-.287-.709-.463-1.11-.46h-68.031c-.401-.003-.829.174-1.112.46-.287.283-.462.708-.459 1.112v8.012c-.004.401.173.829.459 1.11.282.286.709.464 1.112.46h28.121v69.756h-17.124v-5.97c.003-.402-.173-.828-.46-1.111-.283-.286-.71-.463-1.112-.46h-25.608v-14.769l25.608.001c.403.002.829-.174 1.112-.46.287-.284.463-.71.46-1.11v-7.385c.003-.402-.174-.829-.46-1.111-.283-.286-.71-.464-1.112-.461h-25.765v-13.667h25.924c.401.003.827-.174 1.111-.462.285-.281.462-.708.459-1.109v-7.542c.003-.401-.174-.829-.46-1.11-.283-.287-.709-.464-1.11-.461h-35.353c-.402-.003-.828.174-1.112.461-.286.282-.462.709-.459 1.11v55.616l-1.73-.001h-5.474c-5.507 0-11.681 0-12.277.001-.005 0-.044 0-.115-.003l-.452-.026-.381-.243c-.116-.075-.274-.178-.474-.311l-.26-.174-.184-.254c-.107-.148-.25-.351-.404-.583-1.106-1.645-3.164-5.003-5.599-9.074-3.657-6.112-8.185-13.856-11.797-20.068-1.296-2.227-2.473-4.259-3.451-5.947l-1.501-2.594h26.189c.401.003.829-.175 1.11-.46.287-.282.464-.71.46-1.111v-38.014c.003-.401-.173-.83-.461-1.112-.281-.285-.707-.462-1.11-.459h-37.863c-.859-.003-1.568.702-1.571 1.562l-.462 78.886-1.708.01c-2.504.015-6.148.037-9.839.059-6.614.039-13.381.079-13.927.079-.849.013-1.618-.317-1.964-.544l-.012-.007-.016-.01c-.234-.148-.384-.276-.488-.374l-.079-.073-24.182-29.215c-.315-.38-.754-.568-1.212-.57-.357.001-.702.115-1.002.362-.378.313-.566.751-.569 1.211.001.349.111.688.347.982l23.999 28.994.169.203c.125.149.533.624 1.343 1.138.805.514 2.087 1.047 3.66 1.044h.02c.718 0 27.025-.156 27.031-.156.851-.001 1.562-.712 1.562-1.563l.461-78.877h34.734v34.878h-27.336c-.563 0-1.079.298-1.361.786-.141.243-.211.512-.211.785 0 .262.065.523.197.761.004.007.005.01.007.012.002.003.003.005.003.007.003.003.004.006.005.009.004.006.008.013.014.023.012.02.028.049.05.088.045.076.111.19.196.338.171.297.422.731.741 1.284.639 1.107 1.553 2.688 2.655 4.589 2.203 3.801 5.154 8.88 8.151 13.989 2.997 5.111 6.038 10.25 8.425 14.18 1.194 1.967 2.222 3.628 3.008 4.845.394.61.722 1.103.995 1.484.144.202.256.353.373.496.074.088.12.144.193.22.162.157.114.128.372.313v.001c.748.49 1.025.719 1.681 1.025.24.112.641.231.918.267.331.051.599.057.924.059h21.053c.403.003.827-.174 1.11-.461.287-.283.464-.709.461-1.11v-55.622h32.21v4.399h-25.922c-.402-.003-.828.174-1.111.46-.286.282-.463.709-.46 1.112v16.81c-.003.402.174.83.459 1.11.283.287.711.464 1.112.461h25.765v4.242h-25.608c-.403-.003-.829.173-1.11.46-.287.282-.464.708-.46 1.112v17.909c-.003.402.173.829.461 1.112.28.284.707.461 1.11.458h25.608v5.971c-.003.402.174.829.46 1.111.282.287.707.463 1.11.46h20.268c.402.003.828-.173 1.11-.46.287-.283.463-.709.46-1.111v-72.897c.003-.402-.174-.829-.46-1.112-.281-.285-.708-.462-1.11-.459h-28.123v-4.871h64.889v4.871h-28.593c-.402-.003-.829.174-1.111.459-.287.283-.464.709-.46 1.112v72.897c-.003.402.173.828.46 1.111.283.287.709.463 1.111.46h20.11c.401.003.828-.174 1.11-.46.287-.283.463-.709.46-1.111v-55.144h31.108v26.551l-23.409-.001c-.615 0-1.178.362-1.433.925-.093.205-.139.423-.139.645.001.37.13.733.391 1.038h.001l.002.003c.002.003.006.007.011.014.011.012.027.029.047.053.042.047.103.118.184.21.161.184.397.454.697.798.602.686 1.462 1.669 2.498 2.85 2.071 2.363 4.844 5.524 7.649 8.711 2.805 3.188 5.641 6.403 7.843 8.877 1.101 1.238 2.043 2.289 2.746 3.065.35.386.641.703.866.943.114.121.21.222.298.314.127.125.112.116.268.254.925.803 2.061 1.321 3.051 1.533 1.059.235 2.004.243 2.985.247h35.035c.401.003.828-.174 1.111-.46.286-.283.463-.711.46-1.111v-11.312c.003-.403-.174-.83-.46-1.111-.281-.287-.709-.463-1.111-.46h-16.025v-42.884h42.419v42.89h-16.654c-.402-.003-.828.174-1.111.461-.286.281-.463.708-.46 1.11v11.312c-.004.401.173.829.459 1.111.283.286.709.463 1.111.46h38.492c.4.003.828-.174 1.109-.46.287-.282.464-.711.461-1.111v-79.182h35.349v34.721h-27.493c-.402-.003-.828.174-1.11.459-.287.283-.464.711-.461 1.112v42.577c-.004.401.174.828.461 1.111.281.286.707.462 1.11.46h49.489c.401.002.827-.174 1.11-.461.286-.282.462-.708.46-1.11v-61.272h4.871v61.272c-.004.401.174.829.46 1.111.281.286.708.462 1.111.46h20.267c.4.002.827-.174 1.11-.461.286-.282.462-.708.459-1.11v-54.988h31.736v4.085h-25.293c-.403-.002-.83.174-1.11.459-.287.283-.464.711-.461 1.112v16.968c-.003.401.174.829.46 1.11.281.286.709.464 1.111.461h25.922v4.084h-25.294c-.402-.003-.828.174-1.11.46-.287.282-.464.71-.461 1.111v17.911c-.003.401.174.829.46 1.11.283.287.709.464 1.111.46h24.98v5.657c-.003.401.174.829.462 1.112.279.285.706.462 1.109.459h12.82l-.025.006zm-196.007-17.596h12.569c1.336.002 2.608.529 3.555 1.471.645.648 1.094 1.447 1.315 2.314.222-.868.672-1.667 1.316-2.313.947-.943 2.22-1.47 3.555-1.472l13.197-.001v-35.974h-35.507v35.977-.001zm-51.607-9.948c-.003-.005-.005-.006-.006-.007l-.003-.005-.002-.001c.003.006.006.009.009.013zm-3.073-3.746c.914-1.437 2.507-2.328 4.243-2.329h19.951v-19.638h-24.194v21.966l-.006.001zm120.508-15.286c.226-.409.508-.787.844-1.124.947-.942 2.219-1.47 3.555-1.473h24.037v-27.808h-28.436v30.407zm-261.797-.274c.933-1.35 2.475-2.167 4.134-2.167h23.88v-27.965h-27.838l-.179 30.133zm112.067-30.547c.014-.019.027-.037.041-.056h-.082c.016.018.029.037.041.056z" fill-rule="nonzero"/><path d="m82.903 78.982c-.005.004-.009.009-.013.013-.012.012-.022.022-.023.023.012-.011.023-.023.036-.036z"/><path d="m82.904 78.981.001-.001v.001h-.001v.001l.001-.001.008-.008c-.006.005-.016.015-.028.028z"/><path d="m82.906 78.979c-.001 0-.001.001-.002.002z"/><path d="m82.916 78.967-.002.002c-.003.003-.006.006-.009.009l.011-.01z"/><path d="m82.916 78.967v.001.001l-.004.004c.001-.002.003-.003.004-.003v-.001l.001-.001-.001-.001.001-.001z"/><path d="m2.725 78.551c.001.002.001.003.002.005 0 0 0-.003-.001-.004z"/><path d="m8.114 89.121c.486.318 1.027.556 1.593.708 2.041.547 5.26-.662 6.172 1.719 1.034 2.7 4.242 3.698 6.891 3.482 2.14-.175 5.284-1.53 7.031.457 2.021 2.296 5.453 2.875 8.312 2.123 2.621-.69 4.544-2.281 7.377-1.19 3.128 1.204 6.019 2.267 9.246.512 2.27-1.235 3.111-2.955 6.064-2.455 2.604.442 5.093.993 7.5-.519 1.757-1.102 1.804-3.645 3.907-3.894 1.852-.218 3.651.221 5.406-.694l.003-.001-.181.474-5.053 13.272c-1.638 4.305-5.475 7.906-11.094 10.415-5.228 2.334-11.835 3.618-18.605 3.618-6.72 0-13.253-1.271-18.394-3.579-5.536-2.486-9.312-6.074-10.92-10.377-.487-1.305-2.897-7.757-5.255-14.071z"/><path d="m48.59 52.844c.397.089.798.168 1.216.204 1.509.127 2.981-.236 4.485.078.686.143 1.25.507 1.923.668.84.2 1.691.237 2.552.218.774-.016 1.563.06 2.309.26.817.216 1.361.776 2.149 1.016 1.752.53 3.953.102 5.461 1.264.293.225.401.566.726.74.337.183.714.308 1.087.41.649.177 1.321.228 1.977.369.753.162 1.553.407 2.144.889.313.254.555.594.602.986.042.356.437.494.773.642 1.073.473 2.265.555 3.282 1.163.475.284.916.704 1.051 1.21.024.08.043.17.057.273.024.176.066.658.134 1.125.287.195.611.346.935.474.907.36 2.397 1.044 2.691 2.023.077.203.096.437.014.746-.098.369-.335 1.194-.48 1.829.525.385 1.147.654 1.592 1.144.242.264.427.574.518.901.315.878-.151 2.761-.65 3.321-.125.14-.696.872-.901 1.232.14.26.236.538.266.824.006.042.008.085.009.13.002.082-.001.165-.01.247-.03.39-.299 1.38-.921 2.767-.595 1.928-2.865 1.531-4.31 2.033-.14.769-.821 4.046-1.417 4.816-1.183 1.525-3.16 1.408-4.835 1.354-.849-.028-1.722.096-2.509.439-.364.158-.715.367-1.005.649-.385.373-.45.773-.601 1.27-.537 1.758-2.349 2.556-3.967 2.708-1.354.126-2.539-.283-3.852-.51-1.276-.221-2.629-.144-3.858.29-.581.205-1.152.498-1.608.932-.429.408-.768.863-1.261 1.2-1.078.738-2.389 1.052-3.666 1.052-1.306 0-2.621-.33-3.762-1.001-1.124-.657-2.454-.908-3.729-.908-1.274.001-2.608.249-3.729.912-1.142.67-2.463 1.003-3.773 1.003l-.004.008c-1.685 0-3.464-.557-4.623-1.9-.907-1.052-2.281-1.495-3.593-1.633-1.883-.199-3.581.615-5.439.615-1.646 0-3.56-.56-4.437-2.154-.333-.611-.331-1.331-.845-1.829-.674-.66-1.648-.958-2.543-1.069-1.766-.219-3.5.341-5.136-.697-.653-.413-1.151-1.065-1.319-1.86-.112-.415-.802-2.801-.898-3.307-.142-.747-2.412-.238-3.175-.673-.693-.395-1.04-1.448-1.262-1.939s-.903-2.021-.947-2.501c.004-.008.011-.017.022-.026-.009-.057-.014-.114-.017-.172-.025-.562.197-1.001.507-1.41-.455-.321-.842-.709-.978-.971-.223-.428-1.276-2.266-.95-3.199.007-.008.013-.016.02-.024.129-.5.485-.954.902-1.3.343-.284.802-.494 1.188-.763-.145-.123-.255-.221-.292-.272-.52-.711-.404-2.275.128-2.929.052-.07.108-.138.169-.203.584-.617 1.392-.923 2.184-1.237.329-.129.653-.285.941-.484.045-.436.003-.947.039-1.231.047-.376.207-.657.442-.869.792-.866 2.619-1.167 3.552-1.495.383-.135.776-.298 1.097-.538.195-.146.177-.662.348-.901.447-.628 1.295-.944 2.039-1.146.832-.225 1.703-.265 2.532-.503.398-.114.826-.25 1.162-.486.278-.191.411-.565.733-.769 1.611-1.019 3.692-.579 5.451-1.18.628-.214 1.056-.677 1.704-.882.878-.279 1.844-.367 2.767-.323.819.04 1.67-.042 2.463-.244.707-.18 1.297-.555 2.034-.683 1.634-.283 3.255.155 4.894-.097.013-.002.026-.004.039-.006.216 2.779.409 5.339.546 7.338-3.371.851-5.653 2.489-5.653 4.37 0 2.757 4.905 4.992 10.954 4.992 6.05 0 10.954-2.235 10.954-4.992v-.003c0-1.834-2.175-3.438-5.413-4.305.164-1.996.374-4.616.604-7.51zm13.441 21.675c.577.521 1.309.957 2.174 1.291 1.159.447 2.461.682 3.764.682 1.697 0 3.302-.39 4.644-1.128 1.615-.891 2.543-2.175 2.617-3.619.011-.21.021-.279.033-.367.021-.152.038-.292.055-.596l.107-1.992c.092-.305.139-.62.139-.944.003-1.492-.959-2.795-2.711-3.671-.182-.104-.358-.177-.49-.225-1.319-.55-2.857-.851-4.45-.851l-.001-.001c-1.589 0-3.127.293-4.449.847-1.871.786-2.993 2.032-3.16 3.511-.049.436-.01.863.11 1.274l.101 2.024c.016.332.033.664.049.998.002.043.004.084.007.124-.354-.294-.769-.561-1.242-.798-.181-.104-.358-.178-.491-.225-1.318-.557-2.855-.852-4.45-.852-1.591 0-3.13.293-4.45.847-1.871.786-2.994 2.032-3.16 3.511-.05.446-.009.884.118 1.304l.093 1.988c.009.202.019.404.029.605l.02.399c.03.61.082.859.368 1.338.034.056.075.125.127.22.588 1.067 1.677 1.932 3.146 2.499 1.159.447 2.461.682 3.764.682 1.697 0 3.303-.39 4.644-1.128 1.614-.888 2.544-2.174 2.618-3.618.011-.213.021-.282.033-.369.02-.146.038-.291.055-.593l.111-2.006c.089-.301.135-.612.135-.932.001-.076-.002-.153-.007-.229z"/><path d="m60.263 75.983c.279-.385.427-.803.428-1.235.003-1.275-1.182-2.078-2.004-2.483-.105-.064-.227-.116-.337-.154-1.164-.499-2.53-.762-3.963-.762v.002c-1.41 0-2.769.256-3.928.741-1.399.587-2.233 1.447-2.341 2.418-.059.515.091 1.015.426 1.471l.677.592c.298.26.644.493 1.031.692.023.012.046.024.07.035 1.187.536 2.599.817 4.084.817 1.414 0 2.773-.257 3.932-.742.041-.018.081-.035.121-.053.409-.201.779-.446 1.102-.727z"/><path d="m61.864 70.769c.015.306.03.612.046.918.028.571.041.45.328.971.51.925 1.493 1.523 2.452 1.893 1.01.389 2.144.592 3.279.592 1.404 0 2.81-.309 3.994-.961.935-.515 1.863-1.369 1.921-2.506.027-.509.055-.437.082-.871-.393.308-.854.584-1.377.82-.034.017-.069.034-.104.051-1.347.64-2.92.978-4.552.978-1.678 0-3.279-.355-4.642-1.028-.01-.005-.021-.01-.032-.015-.53-.241-.997-.525-1.395-.842z"/><path d="m73.787 69.082c.281-.386.429-.804.429-1.237.003-1.274-1.182-2.078-2.003-2.482-.106-.064-.227-.117-.337-.154-1.164-.499-2.53-.762-3.963-.762-1.41 0-2.769.256-3.928.742-1.4.588-2.232 1.447-2.342 2.419-.058.518.094 1.021.433 1.479l.67.583c.299.261.646.494 1.033.693.028.014.056.028.084.042 1.184.531 2.59.809 4.069.809 1.412 0 2.772-.256 3.932-.742.046-.019.092-.039.136-.059.402-.201.767-.442 1.086-.72z"/><path d="m52.893 6.098c.1-.083.181-.189.236-.312l.001-.003-.001.002c-.055.123-.136.23-.236.313z"/><path d="m36.763 33.676c.637 7.605 2.154 25.939 2.311 29.954.031.788.527 1.27 1.124 1.573.742.375 1.641.499 2.304.499v.004c.883 0 1.71-.173 2.324-.514.001 0 .002-.001.003-.001.596-.329 1.029-.756 1.111-1.243.133-.938 1.613-19.878 2.417-30.26-1.814.616-3.758.95-5.78.95-2.034 0-3.99-.338-5.814-.962zm2.107-1.353 7.294.028c-1.154.263-2.354.401-3.587.401-1.275 0-2.516-.148-3.707-.429z" fill-rule="nonzero"/><path d="m42.577.529c8.893 0 16.112 7.219 16.112 16.112 0 8.892-7.219 16.111-16.112 16.111-8.892 0-16.112-7.219-16.112-16.111 0-8.893 7.22-16.112 16.112-16.112zm9.292 5.995-.024-.028c-1.371-1.521-3.026-2.221-4.291-2.249-1.041-.024-1.849.393-2.242 1.104-.378.675-.402 1.47-.116 2.308.358 1.051 1.23 2.194 2.355 3.192.003.002.005.004.008.007 1.112.958 2.283 1.767 3.271 2.138.84.315 1.581.318 2.135.011.467-.254.806-.772.896-1.509.151-1.237-.427-3.228-1.992-4.974z"/><g fill-rule="nonzero"><path d="m396.851 129.841c-8.269 0-15.485 4.961-15.485 13.731s7.266 13.681 15.485 13.681c8.269 0 15.486-4.961 15.486-13.681 0-8.77-7.217-13.731-15.486-13.731zm0 7.918c3.709 0 5.864 2.656 5.864 5.813 0 3.257-2.155 5.763-5.864 5.763-3.708 0-5.863-2.506-5.863-5.763 0-3.157 2.155-5.813 5.863-5.813z"/><path d="m425.266 130.693h-9.121v38.538h9.121v-15.285c1.954 2.255 5.011 3.307 7.968 3.307 7.618 0 12.88-6.214 12.88-13.631 0-7.367-5.313-13.781-12.98-13.781-3.007 0-6.114 1.202-7.768 3.758h-.1zm5.563 7.066c3.708 0 5.863 2.656 5.863 5.813 0 3.257-2.155 5.763-5.863 5.763-3.709 0-5.864-2.506-5.864-5.763 0-3.157 2.155-5.813 5.864-5.813z"/><path d="m460.597 138.21h5.161v-7.517h-5.161v-7.718h-9.121v7.718h-2.957v7.517h2.957v18.191h9.121z"/><path d="m477.786 130.693h-9.121v25.708h9.121zm-4.561-14.984c-2.806 0-5.111 2.305-5.111 5.111 0 2.807 2.305 5.112 5.111 5.112 2.807 0 5.112-2.305 5.112-5.112 0-2.806-2.305-5.111-5.112-5.111z"/><path d="m497.381 129.841c-8.269 0-15.486 4.961-15.486 13.731s7.267 13.681 15.486 13.681c8.268 0 15.485-4.961 15.485-13.681 0-8.77-7.217-13.731-15.485-13.731zm0 7.918c3.708 0 5.863 2.656 5.863 5.813 0 3.257-2.155 5.763-5.863 5.763-3.709 0-5.864-2.506-5.864-5.763 0-3.157 2.155-5.813 5.864-5.813z"/><path d="m526.096 130.693h-9.121v25.708h9.121v-13.33c0-3.207 1.052-5.964 4.761-5.964 4.51 0 4.109 4.31 4.109 6.766v12.528h9.121v-15.886c0-6.314-2.756-10.674-9.672-10.674-3.558 0-6.114 1.052-8.219 4.159h-.1z"/><path d="m570.147 131.495c-2.657-1.203-5.563-1.654-8.47-1.654-5.613 0-11.326 2.806-11.326 9.121 0 4.61 2.857 6.013 5.713 6.765 2.857.752 5.713.852 5.713 2.857 0 1.403-1.703 1.954-2.856 1.954-2.255 0-5.362-1.303-7.217-2.606l-3.307 6.365c3.107 1.904 6.715 2.956 10.374 2.956 5.963 0 12.127-2.806 12.127-9.572 0-4.76-3.207-6.765-7.467-7.617-1.253-.251-4.109-.501-4.109-2.255 0-1.303 1.804-1.754 2.856-1.754 1.554 0 3.508.501 4.912 1.253z"/></g></g></svg>