<?xml version="1.0" encoding="UTF-8" standalone="no"?><!DOCTYPE svg PUBLIC "-//W3C//DTD SVG 1.1//EN" "http://www.w3.org/Graphics/SVG/1.1/DTD/svg11.dtd"><svg width="100%" height="100%" viewBox="0 0 600 170" version="1.1" xmlns="http://www.w3.org/2000/svg" xmlns:xlink="http://www.w3.org/1999/xlink" xml:space="preserve" xmlns:serif="http://www.serif.com/" style="fill-rule:evenodd;clip-rule:evenodd;stroke-linejoin:round;stroke-miterlimit:2;"><path id="options_bold" d="M49.022,44.869c-26.177,0 -49.022,15.706 -49.022,43.469c0,27.763 23.004,43.311 49.022,43.311c26.176,-0 49.021,-15.706 49.021,-43.311c0,-27.763 -22.845,-43.469 -49.021,-43.469Zm-0,25.066c11.74,0 18.561,8.409 18.561,18.403c0,10.312 -6.821,18.245 -18.561,18.245c-11.74,-0 -18.562,-7.933 -18.562,-18.245c0,-9.994 6.822,-18.403 18.562,-18.403Z" style="fill:#fff;fill-rule:nonzero;"/><path d="M138.974,47.566l-28.874,0l0,121.999l28.874,0l0,-48.387c6.187,7.139 15.865,10.471 25.225,10.471c24.114,-0 40.772,-19.672 40.772,-43.152c-0,-23.321 -16.817,-43.628 -41.089,-43.628c-9.519,0 -19.355,3.808 -24.591,11.899l-0.317,-0l0,-9.202Zm17.61,22.369c11.74,0 18.561,8.409 18.561,18.403c0,10.312 -6.821,18.245 -18.561,18.245c-11.74,-0 -18.562,-7.933 -18.562,-18.245c0,-9.994 6.822,-18.403 18.562,-18.403Z" style="fill:#fff;fill-rule:nonzero;"/><path d="M250.82,71.363l16.34,0l0,-23.797l-16.34,0l-0,-24.431l-28.874,-0l0,24.431l-9.36,0l-0,23.797l9.36,0l0,57.589l28.874,-0l-0,-57.589Z" style="fill:#fff;fill-rule:nonzero;"/><path d="M305.235,47.566l-28.873,0l-0,81.386l28.873,-0l0,-81.386Zm-14.436,-47.435c-8.885,-0 -16.182,7.298 -16.182,16.182c-0,8.884 7.297,16.182 16.182,16.182c8.884,-0 16.181,-7.298 16.181,-16.182c0,-8.884 -7.297,-16.182 -16.181,-16.182Z" style="fill:#fff;fill-rule:nonzero;"/><path d="M367.266,44.869c-26.177,0 -49.022,15.706 -49.022,43.469c0,27.763 23.004,43.311 49.022,43.311c26.177,-0 49.022,-15.706 49.022,-43.311c-0,-27.763 -22.845,-43.469 -49.022,-43.469Zm-0,25.066c11.74,0 18.562,8.409 18.562,18.403c-0,10.312 -6.822,18.245 -18.562,18.245c-11.74,-0 -18.562,-7.933 -18.562,-18.245c0,-9.994 6.822,-18.403 18.562,-18.403Z" style="fill:#fff;fill-rule:nonzero;"/><path d="M458.17,47.566l-28.873,0l-0,81.386l28.873,-0l0,-42.2c0,-10.154 3.332,-18.879 15.072,-18.879c14.278,-0 13.009,13.643 13.009,21.417l-0,39.662l28.873,-0l0,-50.291c0,-19.99 -8.725,-33.792 -30.618,-33.792c-11.264,0 -19.355,3.332 -26.018,13.168l-0.318,-0l0,-10.471Z" style="fill:#fff;fill-rule:nonzero;"/><path d="M597.62,50.105c-8.408,-3.808 -17.609,-5.236 -26.811,-5.236c-17.768,0 -35.854,8.884 -35.854,28.874c0,14.595 9.043,19.037 18.086,21.417c9.043,2.38 18.085,2.697 18.085,9.043c0,4.442 -5.394,6.187 -9.042,6.187c-7.14,0 -16.976,-4.125 -22.846,-8.25l-10.47,20.149c9.836,6.028 21.258,9.36 32.84,9.36c18.879,-0 38.392,-8.885 38.392,-30.302c-0,-15.071 -10.153,-21.417 -23.638,-24.114c-3.966,-0.793 -13.009,-1.586 -13.009,-7.139c-0,-4.125 5.711,-5.553 9.043,-5.553c4.918,0 11.105,1.587 15.547,3.966l9.677,-18.402Z" style="fill:#fff;fill-rule:nonzero;"/></svg>