<?xml version="1.0" encoding="UTF-8" standalone="no"?><!DOCTYPE svg PUBLIC "-//W3C//DTD SVG 1.1//EN" "http://www.w3.org/Graphics/SVG/1.1/DTD/svg11.dtd"><svg width="100%" height="100%" viewBox="0 0 600 167" version="1.1" xmlns="http://www.w3.org/2000/svg" xmlns:xlink="http://www.w3.org/1999/xlink" xml:space="preserve" xmlns:serif="http://www.serif.com/" style="fill-rule:evenodd;clip-rule:evenodd;stroke-linejoin:round;stroke-miterlimit:2;"><g id="options_retropie"><g><g><path d="M48.118,77.099c0.014,0.304 0.03,0.609 0.045,0.912c0.027,0.569 0.04,0.449 0.327,0.967c0.508,0.922 1.485,1.517 2.44,1.885c1.006,0.388 2.134,0.59 3.264,0.59c1.397,-0 2.797,-0.309 3.975,-0.957c0.931,-0.513 1.855,-1.363 1.913,-2.495c0.027,-0.507 0.054,-0.435 0.082,-0.867c-0.39,0.305 -0.847,0.578 -1.365,0.813c-0.036,0.018 -0.073,0.036 -0.11,0.054c-1.34,0.637 -2.907,0.974 -4.531,0.974c-1.673,0 -3.269,-0.355 -4.627,-1.027l-0.025,-0.012c-0.528,-0.24 -0.993,-0.522 -1.388,-0.837Z" style="fill:#fff;"/><path d="M8.077,88.495c0.483,0.316 1.023,0.554 1.586,0.704c2.031,0.545 5.236,-0.658 6.143,1.712c1.029,2.687 4.223,3.681 6.86,3.466c2.13,-0.174 5.26,-1.523 6.999,0.454c2.011,2.286 5.428,2.863 8.274,2.114c2.609,-0.686 4.523,-2.27 7.343,-1.185c3.113,1.199 5.992,2.258 9.203,0.511c2.26,-1.23 3.097,-2.942 6.037,-2.445c2.592,0.441 5.07,0.989 7.466,-0.516c1.748,-1.097 1.795,-3.628 3.889,-3.876c1.843,-0.217 3.634,0.22 5.381,-0.691l0.003,-0.001l-0.18,0.472l-5.03,13.211c-1.631,4.285 -5.45,7.87 -11.043,10.367c-5.204,2.324 -11.781,3.602 -18.52,3.602c-6.689,0 -13.193,-1.265 -18.31,-3.563c-5.511,-2.474 -9.27,-6.046 -10.87,-10.329c-0.485,-1.299 -2.884,-7.722 -5.231,-14.007Z" style="fill:#fff;"/><path d="M48.368,52.384c0.395,0.089 0.794,0.167 1.21,0.203c1.503,0.126 2.968,-0.235 4.464,0.077c0.683,0.143 1.245,0.505 1.915,0.666c0.836,0.199 1.683,0.235 2.54,0.217c0.771,-0.016 1.556,0.059 2.299,0.258c0.813,0.215 1.354,0.773 2.138,1.011c1.745,0.529 3.935,0.102 5.437,1.259c0.291,0.224 0.399,0.564 0.723,0.737c0.335,0.181 0.71,0.306 1.081,0.408c0.647,0.176 1.315,0.226 1.969,0.367c0.749,0.161 1.545,0.405 2.133,0.885c0.312,0.253 0.554,0.591 0.6,0.981c0.041,0.354 0.435,0.492 0.769,0.64c1.068,0.47 2.255,0.552 3.268,1.157c0.472,0.283 0.911,0.701 1.046,1.205c0.023,0.079 0.042,0.169 0.056,0.271c0.024,0.176 0.066,0.656 0.134,1.12c0.285,0.194 0.608,0.345 0.93,0.472c0.903,0.358 2.386,1.039 2.68,2.014c0.076,0.202 0.094,0.435 0.013,0.742c-0.097,0.367 -0.333,1.189 -0.478,1.821c0.523,0.383 1.142,0.651 1.585,1.139c0.241,0.263 0.425,0.572 0.516,0.897c0.313,0.874 -0.15,2.748 -0.647,3.305c-0.125,0.14 -0.693,0.869 -0.897,1.227c0.139,0.259 0.234,0.536 0.264,0.82c0.006,0.042 0.009,0.085 0.009,0.13c0.003,0.081 -0,0.163 -0.009,0.246c-0.03,0.388 -0.298,1.373 -0.917,2.754c-0.592,1.919 -2.852,1.524 -4.291,2.024c-0.139,0.765 -0.817,4.027 -1.41,4.793c-1.177,1.518 -3.146,1.402 -4.813,1.348c-0.845,-0.027 -1.714,0.096 -2.498,0.437c-0.362,0.158 -0.711,0.366 -1,0.646c-0.383,0.372 -0.448,0.77 -0.598,1.265c-0.535,1.749 -2.338,2.544 -3.949,2.695c-1.347,0.125 -2.528,-0.282 -3.834,-0.508c-1.27,-0.22 -2.618,-0.143 -3.841,0.289c-0.578,0.204 -1.147,0.495 -1.601,0.927c-0.426,0.407 -0.764,0.86 -1.255,1.195c-1.073,0.735 -2.378,1.048 -3.649,1.048c-1.299,-0 -2.609,-0.329 -3.745,-0.997c-1.118,-0.654 -2.443,-0.904 -3.711,-0.904c-1.269,0.002 -2.596,0.248 -3.712,0.908c-1.138,0.667 -2.452,0.999 -3.756,0.999l-0.004,0.008c-1.677,-0 -3.449,-0.555 -4.602,-1.892c-0.903,-1.047 -2.27,-1.488 -3.577,-1.626c-1.874,-0.198 -3.564,0.613 -5.414,0.613c-1.638,0 -3.544,-0.558 -4.416,-2.144c-0.332,-0.608 -0.33,-1.325 -0.842,-1.821c-0.671,-0.657 -1.64,-0.953 -2.531,-1.064c-1.758,-0.218 -3.484,0.339 -5.113,-0.693c-0.65,-0.412 -1.146,-1.061 -1.312,-1.852c-0.112,-0.413 -0.799,-2.789 -0.895,-3.293c-0.141,-0.743 -2.401,-0.236 -3.16,-0.669c-0.689,-0.394 -1.035,-1.441 -1.256,-1.93c-0.221,-0.489 -0.899,-2.012 -0.943,-2.49c0.004,-0.008 0.011,-0.017 0.022,-0.026c-0.009,-0.056 -0.014,-0.113 -0.017,-0.171c-0.025,-0.559 0.197,-0.997 0.505,-1.404c-0.453,-0.319 -0.838,-0.705 -0.974,-0.966c-0.221,-0.426 -1.27,-2.256 -0.945,-3.184c0.006,-0.008 0.013,-0.016 0.02,-0.024c0.128,-0.498 0.483,-0.95 0.898,-1.294c0.341,-0.283 0.798,-0.492 1.182,-0.76c-0.145,-0.122 -0.253,-0.22 -0.291,-0.271c-0.518,-0.707 -0.402,-2.264 0.128,-2.916c0.051,-0.069 0.107,-0.137 0.168,-0.201c0.581,-0.615 1.386,-0.919 2.174,-1.231c0.327,-0.129 0.65,-0.284 0.937,-0.483c0.044,-0.434 0.003,-0.942 0.039,-1.225c0.046,-0.374 0.205,-0.654 0.44,-0.865c0.788,-0.862 2.607,-1.162 3.536,-1.488c0.381,-0.134 0.771,-0.297 1.091,-0.536c0.195,-0.145 0.177,-0.659 0.347,-0.897c0.445,-0.624 1.288,-0.939 2.03,-1.14c0.828,-0.224 1.695,-0.264 2.52,-0.501c0.396,-0.113 0.822,-0.249 1.157,-0.484c0.276,-0.19 0.408,-0.562 0.73,-0.765c1.603,-1.014 3.675,-0.576 5.426,-1.174c0.624,-0.214 1.051,-0.674 1.695,-0.879c0.874,-0.277 1.836,-0.365 2.754,-0.322c0.816,0.041 1.664,-0.041 2.452,-0.243c0.704,-0.178 1.292,-0.551 2.025,-0.679c1.627,-0.281 3.241,0.154 4.872,-0.097c0.013,-0.002 0.026,-0.004 0.039,-0.006c0.215,2.766 0.406,5.315 0.543,7.305c-3.355,0.847 -5.627,2.478 -5.627,4.35c0,2.744 4.882,4.969 10.904,4.969c6.022,-0 10.904,-2.225 10.904,-4.969l-0,-0.003c-0,-1.825 -2.165,-3.422 -5.389,-4.285c0.163,-1.987 0.373,-4.595 0.602,-7.476Zm13.38,21.576c0.573,0.518 1.303,0.953 2.164,1.285c1.153,0.444 2.449,0.679 3.746,0.679c1.689,-0 3.288,-0.388 4.623,-1.123c1.607,-0.887 2.532,-2.165 2.605,-3.603c0.011,-0.209 0.021,-0.278 0.033,-0.364c0.02,-0.152 0.038,-0.291 0.054,-0.594l0.107,-1.983c0.091,-0.303 0.138,-0.617 0.138,-0.94c0.003,-1.484 -0.954,-2.782 -2.699,-3.654c-0.181,-0.104 -0.355,-0.176 -0.487,-0.224c-1.313,-0.548 -2.844,-0.847 -4.43,-0.847l-0,-0.001c-1.582,0 -3.114,0.292 -4.429,0.843c-1.862,0.782 -2.98,2.023 -3.146,3.495c-0.048,0.434 -0.01,0.859 0.109,1.268l0.101,2.015c0.017,0.331 0.033,0.661 0.049,0.993c0.002,0.043 0.004,0.084 0.007,0.123c-0.353,-0.292 -0.766,-0.558 -1.236,-0.793c-0.181,-0.104 -0.356,-0.177 -0.489,-0.225c-1.312,-0.554 -2.843,-0.847 -4.43,-0.847l-0,-0.001c-1.584,0 -3.115,0.292 -4.43,0.844c-1.862,0.782 -2.979,2.023 -3.145,3.494c-0.05,0.445 -0.009,0.881 0.118,1.299l0.092,1.979c0.009,0.201 0.019,0.402 0.029,0.602l0.02,0.397c0.03,0.607 0.081,0.855 0.366,1.332c0.034,0.055 0.075,0.124 0.127,0.219c0.585,1.062 1.669,1.923 3.132,2.487c1.153,0.445 2.449,0.68 3.746,0.68c1.689,-0 3.288,-0.389 4.623,-1.124c1.607,-0.884 2.532,-2.163 2.606,-3.601c0.011,-0.213 0.02,-0.281 0.032,-0.367c0.021,-0.146 0.039,-0.291 0.055,-0.59l0.111,-1.997c0.089,-0.3 0.134,-0.61 0.135,-0.928c-0,-0.076 -0.003,-0.152 -0.007,-0.228Z" style="fill:#fff;"/><path d="M59.987,75.417c0.279,-0.384 0.426,-0.8 0.426,-1.23c0.003,-1.268 -1.177,-2.068 -1.994,-2.471c-0.105,-0.063 -0.227,-0.116 -0.335,-0.153c-1.159,-0.497 -2.519,-0.758 -3.946,-0.758l0,0.001c-1.404,0 -2.756,0.255 -3.91,0.738c-1.393,0.584 -2.222,1.44 -2.331,2.406c-0.058,0.514 0.091,1.011 0.425,1.465l0.674,0.589c0.296,0.259 0.641,0.491 1.026,0.689c0.023,0.012 0.046,0.024 0.07,0.035c1.181,0.533 2.587,0.813 4.066,0.813c1.406,0 2.759,-0.255 3.913,-0.739c0.041,-0.017 0.081,-0.034 0.12,-0.052c0.407,-0.201 0.776,-0.444 1.097,-0.724l0.699,-0.609Z" style="fill:#fff;"/><path d="M61.581,70.227c0.015,0.305 0.03,0.609 0.046,0.914c0.028,0.568 0.04,0.448 0.327,0.966c0.508,0.921 1.485,1.517 2.44,1.885c1.006,0.387 2.134,0.589 3.264,0.589c1.397,0 2.798,-0.308 3.976,-0.956c0.93,-0.514 1.854,-1.364 1.912,-2.496c0.027,-0.506 0.055,-0.434 0.082,-0.866c-0.392,0.306 -0.85,0.581 -1.371,0.816c-0.034,0.017 -0.069,0.034 -0.104,0.05c-1.34,0.638 -2.907,0.975 -4.531,0.975c-1.67,-0 -3.264,-0.354 -4.62,-1.024c-0.011,-0.005 -0.022,-0.01 -0.032,-0.015c-0.528,-0.24 -0.993,-0.522 -1.389,-0.838Z" style="fill:#fff;"/><path d="M73.45,68.547c0.279,-0.384 0.427,-0.8 0.427,-1.231c0.003,-1.268 -1.177,-2.068 -1.995,-2.47c-0.105,-0.064 -0.225,-0.117 -0.334,-0.154c-1.16,-0.497 -2.519,-0.758 -3.946,-0.758l0.001,-0.001c-1.404,0 -2.756,0.256 -3.911,0.74c-1.393,0.585 -2.221,1.44 -2.331,2.407c-0.058,0.516 0.093,1.016 0.431,1.472l0.667,0.581c0.298,0.26 0.644,0.492 1.028,0.689c0.028,0.015 0.056,0.029 0.084,0.043c1.179,0.528 2.578,0.805 4.05,0.805c1.406,-0 2.76,-0.255 3.914,-0.739c0.046,-0.019 0.092,-0.039 0.136,-0.059c0.4,-0.199 0.763,-0.44 1.081,-0.716l0.698,-0.609Z" style="fill:#fff;"/><path d="M52.651,5.851l0,0.001c0.099,-0.083 0.18,-0.188 0.235,-0.311l0.001,-0.003l-0.001,0.002c-0.054,0.123 -0.136,0.229 -0.235,0.311Z" style="fill:#fff;"/><path id="path162_1_" d="M36.595,33.304c0.634,7.57 2.144,25.82 2.3,29.816c0.031,0.785 0.525,1.265 1.12,1.566c0.738,0.374 1.633,0.497 2.293,0.497l-0,0.004c0.879,0 1.702,-0.172 2.313,-0.511c0.001,-0.001 0.002,-0.001 0.003,-0.002c0.594,-0.327 1.024,-0.752 1.106,-1.237c0.132,-0.933 1.605,-19.787 2.406,-30.122c-1.806,0.613 -3.741,0.946 -5.753,0.946c-2.025,-0 -3.972,-0.337 -5.788,-0.957Zm2.098,-1.347l7.259,0.028c-1.148,0.261 -2.343,0.399 -3.569,0.399c-1.27,0 -2.505,-0.148 -3.69,-0.427Z" style="fill:#fff;fill-rule:nonzero;"/><path d="M42.383,0.308c8.851,-0 16.038,7.186 16.038,16.038c-0,8.852 -7.187,16.038 -16.038,16.038c-8.852,0 -16.039,-7.186 -16.039,-16.038c0,-8.852 7.187,-16.038 16.039,-16.038Zm9.249,5.968l-0.024,-0.029c-1.365,-1.513 -3.013,-2.21 -4.272,-2.238c-1.036,-0.024 -1.84,0.391 -2.231,1.099c-0.376,0.672 -0.401,1.463 -0.116,2.298c0.356,1.046 1.225,2.183 2.345,3.177c0.002,0.002 0.005,0.004 0.007,0.006c1.108,0.955 2.273,1.76 3.257,2.129c0.836,0.314 1.574,0.316 2.125,0.011c0.465,-0.252 0.802,-0.769 0.892,-1.502c0.15,-1.232 -0.425,-3.214 -1.983,-4.951Z" style="fill:#fff;"/></g><path d="M82.524,78.403c-0.005,0.004 -0.009,0.008 -0.013,0.012c-0.012,0.012 -0.022,0.022 -0.023,0.024c0.012,-0.012 0.023,-0.024 0.036,-0.037l-0,0.001Z" style="fill:#fff;"/><path d="M82.525,78.402l0.001,-0.001l-0,-0l-0.001,0.001l-0,0l0.001,-0.001l-0,-0l0.008,-0.008l-0.001,0c-0.005,0.005 -0.015,0.016 -0.027,0.028l0.019,-0.019Z" style="fill:#fff;"/><path d="M82.527,78.4c-0.001,-0 -0.001,0 -0.002,0.001l0.001,-0.001l0.001,-0Z" style="fill:#fff;"/><path d="M82.537,78.388l-0.001,-0.001l0,0.001l-0.001,0.001c-0.003,0.003 -0.006,0.006 -0.009,0.01l0.01,-0.011l0,-0l0.001,-0Z" style="fill:#fff;"/><path d="M82.537,78.388l-0,-0l-0.001,0l0,0.001l-0.003,0.004c0.001,-0.001 0.003,-0.002 0.003,-0.003l0,-0.001l0.001,-0.001l-0,-0l0.001,-0.001l-0,-0.001l-0.001,0.002Z" style="fill:#fff;"/><g><path d="M430.624,102.322l-0,-37.452c-0,1.491 1.491,-0 -0,-0c-0,-0 24.246,-0 24.246,-0c2.983,-0 5.423,-2.44 5.423,-5.423c0,0 0,-33.106 0,-33.106c0,-2.983 -2.44,-5.423 -5.423,-5.423l-33.108,-0c-2.981,-0 -5.423,2.44 -5.423,5.423l0,75.982l-33.498,0c1.491,0 -0,-1.491 -0,0l-0,-6.382l13.188,-0c2.982,-0 5.423,-2.441 5.423,-5.423l-0,-40.565c-0,-2.982 -2.441,-5.423 -5.423,-5.423l-40.569,-0.001c-2.982,0 -5.423,2.44 -5.423,5.423c0,-0 0,40.566 0,40.566c0,2.982 2.441,5.423 5.423,5.423l12.756,-0c-1.491,-0 -0,1.491 -0,-0l-0,6.382l-33.497,0c-0.83,0 -1.965,-0.504 -2.522,-1.119l-18.954,-20.923l17.024,-0c2.982,-0 5.423,-2.441 5.423,-5.423c0,-0 0,-24.906 0,-24.906c0,-2.983 -2.441,-5.423 -5.423,-5.423c0,0 -29.086,0 -29.086,0c-2.982,0 -5.423,2.44 -5.423,5.423l0,52.371l-15.347,0c1.491,0 -0,-1.491 -0,0l-0,-68.521l25.645,0c2.983,0 5.423,-2.44 5.423,-5.423c-0,0 -0,-2.036 -0,-2.036c-0,-2.982 -2.44,-5.422 -5.423,-5.422l-64.177,-0c-2.983,-0 -5.423,2.44 -5.423,5.422l0,2.036c0,2.983 2.44,5.423 5.423,5.423l25.102,0c-1.491,0 0,1.491 0,0l0,68.521l-14.728,-0.001l0,-2.037c0,-2.982 -2.439,-5.422 -5.422,-5.422l-22.379,-0c1.492,-0 0,-1.492 0,-0l0,-12.721l22.379,-0c2.983,-0 5.422,-2.441 5.422,-5.423l0,-2.036c0,-2.982 -2.439,-5.422 -5.422,-5.422l-22.379,-0l0,-11.851l22.379,-0c2.983,-0 5.422,-2.44 5.422,-5.423l0,-2.035c0,-2.983 -2.439,-5.423 -5.422,-5.423c-0,0 -29.84,0 -29.84,0c-2.982,0 -5.422,2.44 -5.422,5.423l-0,52.37l-18.695,0c-0.642,0 -1.438,-0.452 -1.767,-1.004l-21.7,-36.448l22.389,0c2.983,0 5.423,-2.44 5.423,-5.422l0,-33.106c0,-2.982 -2.44,-5.423 -5.423,-5.423l-33.106,0c-2.982,0 -5.422,2.441 -5.422,5.423l-0,75.983l-24.42,-0c-0.791,-0 -1.851,-0.498 -2.355,-1.106l-24.02,-28.958c-0.955,-1.151 -2.666,-1.311 -3.818,-0.355c-1.152,0.955 -1.311,2.666 -0.356,3.817l24.02,28.957c1.398,1.687 4.337,3.067 6.529,3.067l24.42,0c2.982,0 5.422,-2.44 5.422,-5.422c0,-0 0,-75.983 0,-75.983c0,0 33.106,0 33.106,0c-1.491,0 0,1.491 0,0l0,33.106l-24.447,-0c-1.971,-0 -3.23,0.939 -3.865,2.055c-0.635,1.117 -0.798,2.679 0.21,4.372l22.753,38.216c1.195,2.008 4.089,3.654 6.427,3.654l18.695,-0c2.982,-0 5.422,-2.44 5.422,-5.423l0,-52.37l29.84,-0c-1.492,-0 -0,1.491 -0,-0l-0,2.035c-0,0 -22.379,0 -22.379,0c-2.983,0 -5.422,2.44 -5.422,5.423c-0,-0 -0,11.851 -0,11.851c-0,2.982 2.439,5.422 5.422,5.422l22.379,0c-1.492,0 -0,1.491 -0,0l-0,2.036l-22.379,-0c-2.983,-0 -5.422,2.44 -5.422,5.423c-0,-0 -0,12.721 -0,12.721c-0,2.982 2.439,5.422 5.422,5.422c0,0 22.379,0 22.379,0l-0,2.037c-0,2.983 2.441,5.423 5.422,5.423l14.728,0.001c2.983,-0 5.423,-2.44 5.423,-5.423c0,0 0,-68.521 0,-68.521c0,-2.982 -2.44,-5.423 -5.423,-5.423l-25.102,0l-0,-2.036l64.177,0l0,2.036c0,0 -25.645,0 -25.645,0c-2.983,0 -5.423,2.441 -5.423,5.423l-0,68.521c-0,2.983 2.44,5.423 5.423,5.423l15.347,-0c2.983,-0 5.423,-2.44 5.423,-5.423l0,-52.371c0,-0 29.086,-0 29.086,-0l0,24.906c0,-1.491 -1.49,-0 0,-0l-20.427,-0c-2.206,-0 -3.381,1.124 -3.859,2.202c-0.478,1.078 -0.524,2.704 0.959,4.34l21.239,23.446c1.445,1.595 4.388,2.9 6.54,2.9l33.497,-0c2.982,-0 5.423,-2.44 5.423,-5.423c-0,0 -0,-6.382 -0,-6.382c-0,-2.983 -2.441,-5.423 -5.423,-5.423l-12.756,-0l0,-40.566l40.569,0.001l-0,40.565c-0,-0 -13.188,-0 -13.188,-0c-2.983,-0 -5.423,2.44 -5.423,5.423c0,-0 0,6.382 0,6.382c0,2.983 2.44,5.423 5.423,5.423l33.498,-0c2.984,-0 5.423,-2.44 5.423,-5.423l0,-75.982c0,-0 33.108,-0 33.108,-0c-1.491,-0 0,1.491 0,-0l0,33.106l-24.246,0c-2.983,0 -5.423,2.44 -5.423,5.423l0,37.452c0,2.982 2.44,5.422 5.423,5.422l44.561,0c2.982,0 5.423,-2.44 5.423,-5.422l-0,-58.338c-0,0 2.971,0 2.971,0c0,0 0,58.338 0,58.338c0,2.982 2.44,5.422 5.423,5.422l15.037,0c2.983,0 5.423,-2.44 5.423,-5.422l0,-52.371l29.844,0c-1.492,0 -0,1.492 -0,0l-0,2.034c-0,0 -22.382,0 -22.382,0c-2.983,0 -5.423,2.441 -5.423,5.423c0,0 0,11.851 0,11.851c0,2.982 2.44,5.423 5.423,5.423l22.382,-0c-0,-0 -0,2.036 -0,2.036l-22.382,0c-2.983,0 -5.423,2.441 -5.423,5.423c0,0 0,12.719 0,12.719c0,2.982 2.44,5.423 5.423,5.423l22.382,-0c-1.492,-0 -0,1.491 -0,-0l-0,2.039c-0,2.982 2.441,5.422 5.423,5.422l24.511,0c0.778,0 1.815,0.496 2.304,1.102c-0,-0 23.635,29.289 23.635,29.289c0.94,1.165 2.648,1.347 3.813,0.407c1.164,-0.939 1.347,-2.648 0.407,-3.812l-23.635,-29.29c-1.384,-1.715 -4.32,-3.118 -6.524,-3.118l-24.511,-0l-0,-2.039c-0,-2.983 -2.44,-5.423 -5.423,-5.423l-22.382,-0l-0,-12.719c-0,1.491 1.491,0 -0,0c-0,0 22.382,0 22.382,0c2.983,0 5.423,-2.44 5.423,-5.423c-0,0 -0,-2.036 -0,-2.036c-0,-2.983 -2.44,-5.423 -5.423,-5.423l-22.382,-0l-0,-11.851c-0,1.491 1.491,0 -0,0l22.382,0c2.983,0 5.423,-2.44 5.423,-5.423c-0,0 -0,-2.034 -0,-2.034c-0,-2.982 -2.44,-5.422 -5.423,-5.422c-0,-0 -29.844,-0 -29.844,-0c-2.982,-0 -5.423,2.44 -5.423,5.422l0,52.371l-15.037,-0l-0,-58.338c-0,-2.982 -2.44,-5.422 -5.423,-5.422c0,-0 -2.971,-0 -2.971,-0c-2.983,-0 -5.423,2.44 -5.423,5.422c-0,0 -0,58.338 -0,58.338c-0,-0 -44.561,-0 -44.561,-0Z" style="fill:#fff;"/><path d="M481.726,29.925l-0.136,-0.001l-0.136,-0.005l-0.135,-0.008l-0.135,-0.012l-0.136,-0.014l-0.136,-0.018l-0.134,-0.021l-0.134,-0.024l-0.135,-0.027l-0.133,-0.031l-0.133,-0.034l-0.133,-0.038l-0.131,-0.04l-0.131,-0.044l-0.131,-0.047l-0.128,-0.05l-0.121,-0.05l-0.073,-0.033l-0.063,-0.029l-0.063,-0.029l-0.063,-0.03l-0.063,-0.032l-0.062,-0.032l-0.063,-0.033l-0.062,-0.034l-0.061,-0.035l-0.121,-0.071l-0.062,-0.038l-0.059,-0.038l-0.06,-0.039l-0.06,-0.039l-0.058,-0.04l-0.059,-0.042l-0.059,-0.043l-0.056,-0.041l-0.056,-0.043l-0.058,-0.045l-0.057,-0.047l-0.056,-0.045l-0.054,-0.046l-0.055,-0.048l-0.053,-0.048l-0.055,-0.049l-0.054,-0.051l-0.051,-0.049l-0.045,-0.044l-7.971,-7.973l-0.045,-0.045l-0.049,-0.05l-0.05,-0.054l-0.051,-0.055l-0.048,-0.054l-0.048,-0.055l-0.045,-0.053l-0.046,-0.057l-0.046,-0.057l-0.044,-0.055l-0.043,-0.057l-0.043,-0.059l-0.043,-0.06l-0.04,-0.057l-0.04,-0.058l-0.04,-0.06l-0.039,-0.059l-0.038,-0.06l-0.036,-0.059l-0.038,-0.064l-0.069,-0.12l-0.034,-0.063l-0.033,-0.062l-0.034,-0.064l-0.03,-0.062l-0.03,-0.061l-0.03,-0.064l-0.029,-0.065l-0.032,-0.071l-0.049,-0.119l-0.051,-0.13l-0.047,-0.132l-0.044,-0.129l-0.041,-0.133l-0.037,-0.133l-0.034,-0.132l-0.03,-0.134l-0.028,-0.133l-0.024,-0.134l-0.021,-0.136l-0.018,-0.136l-0.015,-0.135l-0.01,-0.135l-0.009,-0.135l-0.005,-0.135l0,-0.274l0.005,-0.135l0.008,-0.135l0.011,-0.135l0.015,-0.135l0.018,-0.136l0.021,-0.136l0.024,-0.134l0.028,-0.133l0.03,-0.134l0.034,-0.132l0.038,-0.133l0.04,-0.133l0.044,-0.129l0.047,-0.131l0.051,-0.131l0.05,-0.119l0.031,-0.071l0.029,-0.064l0.03,-0.064l0.03,-0.062l0.03,-0.062l0.033,-0.064l0.034,-0.063l0.034,-0.062l0.034,-0.061l0.035,-0.059l0.038,-0.064l0.036,-0.06l0.037,-0.058l0.04,-0.061l0.04,-0.06l0.04,-0.058l0.04,-0.057l0.042,-0.058l0.044,-0.059l0.044,-0.058l0.043,-0.055l0.046,-0.058l0.046,-0.056l0.045,-0.052l0.048,-0.056l0.05,-0.055l0.048,-0.053l0.051,-0.055l0.049,-0.05l0.044,-0.045l7.97,-7.97l0.045,-0.045l0.053,-0.051l0.054,-0.05l0.054,-0.05l0.054,-0.048l0.053,-0.045l0.056,-0.049l0.056,-0.046l0.056,-0.044l0.057,-0.045l0.057,-0.044l0.058,-0.043l0.057,-0.041l0.058,-0.041l0.06,-0.042l0.059,-0.039l0.059,-0.038l0.06,-0.038l0.061,-0.038l0.061,-0.036l0.06,-0.035l0.063,-0.035l0.062,-0.035l0.06,-0.031l0.064,-0.033l0.064,-0.032l0.062,-0.03l0.061,-0.029l0.065,-0.029l0.073,-0.032l0.12,-0.051l0.13,-0.05l0.13,-0.047l0.13,-0.044l0.132,-0.041l0.133,-0.037l0.133,-0.034l0.134,-0.03l0.133,-0.028l0.134,-0.024l0.135,-0.021l0.136,-0.018l0.135,-0.015l0.135,-0.011l0.136,-0.008l0.136,-0.005l0.136,-0.002l0.136,0.002l0.136,0.005l0.135,0.008l0.135,0.011l0.136,0.015l0.136,0.017l0.134,0.021l0.135,0.025l0.134,0.027l0.133,0.031l0.133,0.034l0.132,0.037l0.132,0.041l0.132,0.044l0.13,0.047l0.128,0.05l0.121,0.05l0.072,0.032l0.064,0.029l0.064,0.03l0.062,0.03l0.063,0.031l0.063,0.033l0.061,0.032l0.062,0.034l0.061,0.035l0.062,0.035l0.061,0.037l0.06,0.037l0.061,0.038l0.058,0.038l0.06,0.04l0.06,0.042l0.058,0.04l0.058,0.042l0.057,0.042l0.057,0.043l0.057,0.045l0.057,0.047l0.055,0.045l0.054,0.045l0.055,0.048l0.055,0.049l0.055,0.051l0.051,0.048l0.052,0.049l0.048,0.047l7.969,7.968l0.044,0.045l0.052,0.054l0.05,0.054l0.047,0.052l0.05,0.054l0.048,0.056l0.045,0.053l0.047,0.057l0.045,0.056l0.043,0.055l0.044,0.059l0.044,0.058l0.043,0.059l0.04,0.058l0.039,0.057l0.04,0.06l0.04,0.061l0.037,0.059l0.036,0.059l0.037,0.061l0.036,0.062l0.036,0.063l0.032,0.06l0.034,0.063l0.033,0.064l0.029,0.059l0.031,0.064l0.032,0.067l0.028,0.061l0.03,0.07l0.051,0.121l0.051,0.13l0.047,0.132l0.044,0.13l0.04,0.132l0.038,0.132l0.033,0.132l0.031,0.135l0.027,0.134l0.024,0.133l0.022,0.136l0.017,0.136l0.015,0.133l0.011,0.137l0.008,0.136l0.006,0.134l-0,0.274l-0.006,0.134l-0.008,0.136l-0.011,0.137l-0.015,0.133l-0.017,0.136l-0.022,0.136l-0.024,0.132l-0.027,0.135l-0.031,0.135l-0.033,0.131l-0.038,0.133l-0.04,0.132l-0.044,0.13l-0.047,0.132l-0.051,0.13l-0.05,0.12l-0.031,0.07l-0.028,0.062l-0.032,0.067l-0.031,0.064l-0.029,0.059l-0.033,0.063l-0.034,0.064l-0.032,0.06l-0.036,0.062l-0.036,0.062l-0.036,0.062l-0.037,0.059l-0.037,0.059l-0.039,0.06l-0.041,0.061l-0.039,0.057l-0.04,0.057l-0.043,0.059l-0.043,0.058l-0.045,0.059l-0.043,0.056l-0.045,0.056l-0.047,0.057l-0.045,0.052l-0.048,0.056l-0.049,0.055l-0.047,0.052l-0.051,0.054l-0.051,0.053l-0.044,0.045l-7.969,7.971l-0.045,0.045l-0.054,0.051l-0.053,0.05l-0.054,0.049l-0.055,0.049l-0.052,0.046l-0.056,0.047l-0.057,0.047l-0.056,0.045l-0.056,0.044l-0.057,0.044l-0.058,0.042l-0.057,0.042l-0.06,0.042l-0.058,0.04l-0.06,0.039l-0.059,0.039l-0.06,0.038l-0.061,0.038l-0.06,0.036l-0.06,0.034l-0.062,0.035l-0.064,0.035l-0.062,0.033l-0.062,0.032l-0.063,0.032l-0.063,0.03l-0.061,0.029l-0.065,0.029l-0.073,0.033l-0.12,0.05l-0.129,0.05l-0.13,0.047l-0.132,0.044l-0.131,0.04l-0.132,0.038l-0.134,0.034l-0.132,0.031l-0.135,0.027l-0.134,0.024l-0.135,0.021l-0.136,0.018l-0.135,0.014l-0.136,0.012l-0.135,0.008l-0.136,0.005l-0.136,0.001Zm0,-6.075l7.572,-7.574l-7.572,-7.572l-7.574,7.573l7.574,7.573Z" style="fill:#fff;"/></g></g><g><g><path d="M395.036,126.865c-8.231,-0 -15.414,4.938 -15.414,13.668c-0,8.73 7.233,13.619 15.414,13.619c8.231,0 15.415,-4.939 15.415,-13.619c-0,-8.73 -7.184,-13.668 -15.415,-13.668Zm0,7.882c3.692,-0 5.837,2.644 5.837,5.786c-0,3.243 -2.145,5.737 -5.837,5.737c-3.691,0 -5.836,-2.494 -5.836,-5.737c-0,-3.142 2.145,-5.786 5.836,-5.786Z" style="fill:#fff;fill-rule:nonzero;"/><path d="M423.321,127.713l-9.079,-0l0,38.362l9.079,-0l0,-15.215c1.946,2.244 4.989,3.292 7.932,3.292c7.582,0 12.82,-6.186 12.82,-13.569c0,-7.333 -5.287,-13.718 -12.92,-13.718c-2.993,-0 -6.086,1.197 -7.732,3.741l-0.1,0l0,-2.893Zm5.537,7.034c3.692,-0 5.837,2.644 5.837,5.786c-0,3.243 -2.145,5.737 -5.837,5.737c-3.691,0 -5.836,-2.494 -5.836,-5.737c-0,-3.142 2.145,-5.786 5.836,-5.786Z" style="fill:#fff;fill-rule:nonzero;"/><path d="M458.49,135.196l5.138,-0l0,-7.483l-5.138,-0l0,-7.682l-9.079,-0l0,7.682l-2.943,-0l-0,7.483l2.943,-0l0,18.108l9.079,-0l0,-18.108Z" style="fill:#fff;fill-rule:nonzero;"/><path d="M475.601,127.713l-9.079,-0l-0,25.591l9.079,-0l-0,-25.591Zm-4.54,-14.916c-2.793,0 -5.088,2.295 -5.088,5.089c-0,2.793 2.295,5.088 5.088,5.088c2.794,-0 5.089,-2.295 5.089,-5.088c-0,-2.794 -2.295,-5.089 -5.089,-5.089Z" style="fill:#fff;fill-rule:nonzero;"/><path d="M495.106,126.865c-8.231,-0 -15.415,4.938 -15.415,13.668c0,8.73 7.234,13.619 15.415,13.619c8.231,0 15.414,-4.939 15.414,-13.619c0,-8.73 -7.183,-13.668 -15.414,-13.668Zm-0,7.882c3.691,-0 5.836,2.644 5.836,5.786c0,3.243 -2.145,5.737 -5.836,5.737c-3.692,0 -5.837,-2.494 -5.837,-5.737c0,-3.142 2.145,-5.786 5.837,-5.786Z" style="fill:#fff;fill-rule:nonzero;"/><path d="M523.69,127.713l-9.079,-0l-0,25.591l9.079,-0l0,-13.269c0,-3.193 1.048,-5.937 4.739,-5.937c4.49,0 4.091,4.29 4.091,6.735l-0,12.471l9.079,-0l-0,-15.814c-0,-6.285 -2.744,-10.625 -9.628,-10.625c-3.542,-0 -6.086,1.047 -8.181,4.14l-0.1,0l0,-3.292Z" style="fill:#fff;fill-rule:nonzero;"/><path d="M567.539,128.511c-2.644,-1.197 -5.537,-1.646 -8.431,-1.646c-5.587,-0 -11.274,2.793 -11.274,9.079c0,4.589 2.844,5.986 5.687,6.734c2.844,0.749 5.687,0.848 5.687,2.844c0,1.397 -1.696,1.945 -2.843,1.945c-2.245,0 -5.338,-1.297 -7.184,-2.594l-3.292,6.336c3.093,1.895 6.685,2.943 10.326,2.943c5.936,0 12.072,-2.794 12.072,-9.528c0,-4.739 -3.192,-6.735 -7.433,-7.583c-1.247,-0.249 -4.09,-0.498 -4.09,-2.244c-0,-1.297 1.796,-1.746 2.843,-1.746c1.547,-0 3.492,0.498 4.889,1.247l3.043,-5.787Z" style="fill:#fff;fill-rule:nonzero;"/></g></g></g></svg>