<svg clip-rule="evenodd" fill-rule="evenodd" stroke-linejoin="round" stroke-miterlimit="2" viewBox="0 0 600 142" xmlns="http://www.w3.org/2000/svg"><g fill="#fff"><path d="m77.616 82.345c-10.167-13.752-12.592-12.344-18.494-12.344h-54.857c-4.421 0-5.404 3.309-2.954 6.6 1.378 1.868 4.341 4.885 6.708 7.238l57.241 57.41h56.422c-12.856-16.994-27.461-36.443-44.066-58.904zm8.204 44.831c-1.723.025-4.548.087-6.242.06-1.921-.031-2.466-.466-3.66-1.794l-26.171-29.125c-1.176-1.31-1.038-2.8 1.135-2.802l8.055-.008c1.084-.001 1.606.11 3.61 2.533l23.561 28.477c1.333 1.609.447 2.651-.288 2.659z"/><path d="m83.489 70.009h46.986c5.896 0 11.605-2.052 18.479 12.328l28.166 58.914h-49.841l-26.213-36.24c-1.081-1.494-1.226-1.69-1.895-2.826-.585-.989.15-2.11 1.714-2.208 6.364-.061 12.727-.121 19.09-.182 3.126.056 4.226.093 5.978 3.003 5.021 7.441 9.516 15.146 14.538 22.588.997 1.844 2.453 1.92 5.467 1.957 3.481.042 5.563-.382 3.425-3.954l-16.515-27.585c-2.482-4.148-9.803-3.449-10.888-3.449h-24.683c-2.911 0-5.132.175-6.959-2.219l-9.825-13.543c-2.399-3.309-1.447-6.584 2.976-6.584z"/><path d="m155.838 70.009h23.14c1.195.116 1.872.491 2.029 1.13 3.447 8.561 6.052 17.122 9.502 25.683.639 1.651 1.215 2.392 2.117 2.221 1.918.012 3.506.025 5.425.039 1.754-.07 2.238-1.053 1.652-2.946-2.237-8.14-4.715-15.793-6.953-23.934-.601-2.007.621-2.195 2.693-2.195h15.842c7.931 0 9.214-1.158 12.167 12.328 2.331 10.645 4.466 21.292 6.797 31.94.551 3.524-.879 6.379-4.766 6.275l-7.41-.025 5.66 20.724h-27.446l-8.334-20.673c-3.205.002-4.884.003-8.09.004-4.828-.035-7.221-3.177-9.218-7.458l-17.36-36.529c-1.576-3.318-1.868-6.584 2.553-6.584z"/><path d="m235.41 70.009h56.233c5.895 0 10.146-.596 9.438 8.096l-.652 8.045c-.108 1.317-.224 2.496-.564 3.742-.742 2.721-3.275 3.131-6.095 3.174h-31.871c-1.447 0-1.927.082-1.932 1.074l-.028 4.944c-.007 1.122.78.972 2.573.972h24.377c1.784 0 3.523-.084 5.275.336 3.268.784 5.03 2.706 5.937 5.168.753 2.052.445 3.743.271 5.884l-2.422 29.805h-54.735l-1.733-9.954c-.302-1.732.23-2.817 2.334-2.817h28.85c5.008-.724 5.174-4.183 4.668-8.038h-30.784c-3.155.142-5.184-.824-6.536-2.383-1.252-1.442-1.326-2.774-1.641-4.593l-6.054-34.76c-.89-5.105.67-8.695 5.091-8.695z"/><path d="m374.673 70.05c3.487.233 5.353 1.493 3.264 7.842l-2.826 8.57c-.428 1.284-.832 2.43-1.468 3.644-1.387 2.648-3.952 3.048-6.71 3.09h-28.4c-1.407 0-1.887.08-2.145 1.045l-1.453 5.445c-.289 1.091.524.947 2.269.947h21.103c1.734 0 3.447-.08 5.05.327 2.985.763 4.235 2.634 4.511 5.032.229 1.997-.485 3.644-1.177 5.727l-10.524 29.529h-52.462l1.143-9.604c.132-1.687.911-2.744 2.966-2.743h21.711c5.05-.706 6.064-4.075 6.518-7.827h-19.615c-7.055.314-10.357-4.347-9.899-10.55l2.361-32.053c.367-4.967 3.854-8.466 8.158-8.466h.002v.004h53.684c.717 0 1.412-.009 2.072-.009z"/><path d="m396.138 70.009h56.68c6.062 0 10.707-.582 5.471 7.883l-5.303 8.57c-.8 1.284-1.537 2.43-2.536 3.644-2.188 2.648-5.006 3.048-7.927 3.09h-22.643c-1.488 0-3.431-.141-3.388.696l.227 4.52c.047.95 1.028 1.684 2.872 1.684h12.348l8.639.058c1.9.014 2.689 1.745 1.794 3.241l-3.422 5.729-8.019 12.389c-.339.018-.677.028-1.019.032h-24.205c-1.545 0-3.574-.14-3.513.934l.235 4.283c.055.948 1.067 1.683 2.977 1.683h13.524l7.482.05-8.253 12.752h-54.964c5.283-13.306 5.083-14.15 22.034-62.775 1.732-4.965 6.363-8.463 10.909-8.463z"/><path d="m545.469 70.009h-25.406c-1.36.116-2.266.491-2.704 1.13-7.408 8.561-13.894 17.122-21.299 25.683-1.403 1.651-2.348 2.392-3.264 2.221-2.114.012-3.86.025-5.974.039-1.894-.07-2.007-1.053-.565-2.946 5.901-8.14 11.862-15.793 17.761-23.934 1.508-2.007.253-2.195-2.026-2.195h-19.174c-8.7 0-9.619-1.158-18.571 12.328-7.062 10.645-13.912 21.292-20.976 31.94-2.099 3.524-1.736 6.379 2.574 6.275l9.927-.025-14.985 20.724h30.132l17.899-20.673c3.52.002 5.364.003 8.88.004 5.316-.035 9.276-3.177 13.279-7.458l34.519-36.53c3.128-3.317 4.829-6.583-.027-6.583z"/><path d="m584.367 84.428c-1.642 1.535-3.245 3.119-4.853 4.689-1.279 1.253-2.259.977-4.064.977h-26.477c-1.578 0-2.635-.094-3.207-.547-.839-.661-.649-1.884.438-2.978 4.112-4.366 8.23-8.732 12.341-13.096 1.964-1.806 3.796-3.662 7.54-4.878 2.289-.741 4.317-.915 6.686-.915h10.908c2.694.252 5.171-5.037 2.295-6.044h-17.861c-2.35.167-3.02-.67-2.014-2.519 1.937-2.26 3.073-3.642 4.032-3.526h20.72c2.093 0 5.082.219 6.792 1.64 3.665 3.036 2.554 8.686.07 12.338-2.146 3.148-6.94 5.338-10.585 5.462h-14.244c-3.48.253-8.011 7.425-1.739 7.508h12.492c1.796.001 1.842.852.73 1.889z"/><path d="m240.296 53.85c-2.026-.194-4.677-.501-5.893-.683l-2.21-.332v-6.224c0-3.423.055-6.22.121-6.215.066.006 1.852.323 3.968.705 6.823 1.233 13.179.785 15.274-1.077 1.008-.896 1.116-3.621.175-4.402-.367-.304-3.314-1.516-6.55-2.692-9.186-3.338-11.548-5.103-13.241-9.894-.789-2.233-1.017-7.431-.433-9.853 1.125-4.657 4.89-9.185 9.272-11.151 3.399-1.525 10.296-1.995 16.255-1.109l4.022.599v6.255c0 5.773-.065 6.228-.842 5.896-.463-.197-3.347-.462-6.409-.589-4.527-.186-5.85-.083-7.081.553-2.919 1.51-3.224 4.457-.602 5.813.774.401 3.756 1.566 6.625 2.589 6.452 2.302 7.675 2.935 9.578 4.958 5.385 5.723 5.082 15.915-.649 21.815-2.39 2.462-6.859 4.464-11.229 5.031-3.974.515-4.834.516-10.151.007z"/><path d="m49.396 52.894v-50.51h13.469v19.242h14.912v-19.242h13.47v50.51h-13.47v-20.685h-14.912v20.685z"/><path d="m101.83 1.903h13.95v50.991h-13.95z"/><path d="m125.401 52.894v-50.51h13.469v39.446h13.951v11.064z"/><path d="m160.036 1.903h13.95v50.991h-13.95z"/><path d="m1.772 52.894v-50.51h13.932c13.019 0 14.111.067 16.659 1.02 6.215 2.326 9.924 7.965 10.621 16.149.754 8.856-3.211 16.445-10.537 20.166-3.656 1.857-7.336 2.592-12.977 2.592h-5.191v10.583h-12.507zm23.097-23.21c2.431-1.652 3.606-4.325 3.575-8.133-.022-2.644-.253-3.543-1.321-5.158-1.894-2.861-3.651-3.612-8.514-3.642l-4.089-.024-.262 18.039h4.509c3.884 0 4.731-.15 6.102-1.082z"/><path d="m184.57 52.894v-50.991h13.418c12.083 0 13.731.096 16.55.967 7.731 2.388 11.934 10.002 11.282 20.44-.464 7.441-4.289 12.992-11.359 16.488-3.384 1.673-3.836 1.766-10.102 2.077-3.608.18-6.615.351-6.681.381s-.12 2.436-.12 5.347v5.291zm22.616-23.23c2.916-1.541 4.082-3.917 4.082-8.314 0-2.879-.197-3.7-1.28-5.336-1.784-2.696-3.796-3.528-8.534-3.528h-3.896v18.28h3.773c3.004 0 4.196-.224 5.855-1.102z"/></g></svg>