<?xml version="1.0" encoding="UTF-8" standalone="no"?><!DOCTYPE svg PUBLIC "-//W3C//DTD SVG 1.1//EN" "http://www.w3.org/Graphics/SVG/1.1/DTD/svg11.dtd"><svg width="100%" height="100%" viewBox="0 0 600 192" version="1.1" xmlns="http://www.w3.org/2000/svg" xmlns:xlink="http://www.w3.org/1999/xlink" xml:space="preserve" xmlns:serif="http://www.serif.com/" style="fill-rule:evenodd;clip-rule:evenodd;stroke-linejoin:round;stroke-miterlimit:2;"><g id="philips_odyssey"><g><path d="M95.64,76.817l0,106.866c0,5.384 2.107,7.491 7.491,7.491l46.471,-0c14.323,-0 25.938,-11.615 25.938,-25.938l-0,-69.972c-0,-14.322 -11.615,-25.938 -25.938,-25.938l-46.471,0c-5.384,0 -7.491,2.108 -7.491,7.491Zm25.968,9.488c-0,-3.854 3.136,-6.991 6.991,-6.991l20.704,-0c7.87,-0 14.252,6.382 14.252,14.252l0,73.368c0,7.87 -6.382,14.252 -14.252,14.252l-20.704,0c-3.855,0 -6.991,-3.137 -6.991,-6.991l-0,-87.89Z" style="fill:#fff;"/><path d="M-0,76.817l-0,106.866c-0,5.384 2.107,7.491 7.491,7.491l62.921,-0c5.383,-0 7.49,-2.107 7.49,-7.491l0,-106.866c0,-5.383 -2.107,-7.491 -7.49,-7.491l-62.921,0c-5.384,0 -7.491,2.108 -7.491,7.491Zm11.985,11.486c-0,-5.483 3.505,-8.989 8.989,-8.989l35.955,-0c5.482,-0 8.988,3.506 8.988,8.989l0,31.031c-10.826,0.789 -13.982,7.83 -13.982,11.915l-0,42.946c-0,3.854 -3.136,6.991 -6.991,6.991l-23.97,0c-5.484,0 -8.989,-3.505 -8.989,-8.989l-0,-83.894Z" style="fill:#fff;"/><path d="M450.427,76.817l0,106.866c0,5.384 2.107,7.491 7.491,7.491l53.932,-0c1.379,-0 2.497,-1.119 2.497,-2.497l0,-2.497c0,-2.756 -4.235,-4.994 -6.991,-4.994l-22.871,0c-4.465,0 -8.09,-3.625 -8.09,-8.09l-0,-29.762c-0,-4.464 3.625,-8.09 8.09,-8.09l27.365,-0c1.379,-0 2.497,-1.119 2.497,-2.497l0,-4.994c0,-1.377 -1.118,-2.497 -2.497,-2.497l-40.878,0c-4.974,0 -8.56,-3.585 -8.56,-8.559l0,-26.826c0,-4.974 3.586,-8.56 8.56,-8.56l40.878,0c1.379,0 2.497,-1.118 2.497,-2.496l0,-6.992c0,-1.377 -1.118,-2.497 -2.497,-2.497l-53.932,0c-5.384,0 -7.491,2.108 -7.491,7.491Z" style="fill:#fff;"/><path d="M193.47,74.32l-0,44.265c-0,-0 0.969,3.356 2.197,4.295c1.478,1.148 3.435,3.246 5.812,5.243c6.233,5.223 13.843,12.335 13.963,16.03l-0,42.986c-0,2.227 1.808,4.035 4.034,4.035l15.901,-0c2.227,-0 4.035,-1.808 4.035,-4.035l-0,-42.986c0.12,-3.695 7.73,-10.807 13.962,-16.03c2.377,-1.997 4.335,-4.095 5.813,-5.243c1.228,-0.939 2.197,-4.295 2.197,-4.295l0,-44.265c0,-2.756 -2.237,-4.994 -4.993,-4.994c-2.757,0 -4.994,2.238 -4.994,4.994l-0,36.954c-0,6.372 -23.97,21.972 -23.97,21.972c-0,0 -23.97,-15.6 -23.97,-21.972l0,-36.954c0,-2.756 -2.237,-4.994 -4.994,-4.994c-2.756,0 -4.993,2.238 -4.993,4.994Z" style="fill:#fff;"/><path d="M532.085,74.32l0,44.265c0,-0 0.969,3.356 2.197,4.295c1.478,1.148 3.437,3.246 5.813,5.243c6.231,5.223 13.843,12.335 13.963,16.03l-0,42.986c-0,2.227 1.808,4.035 4.035,4.035l15.9,-0c2.226,-0 4.035,-1.808 4.035,-4.035l-0,-42.986c0.119,-3.695 7.731,-10.807 13.962,-16.03c2.376,-1.997 4.335,-4.095 5.813,-5.243c1.228,-0.939 2.197,-4.295 2.197,-4.295l-0,-44.265c-0,-2.756 -2.238,-4.994 -4.994,-4.994c-2.755,0 -4.993,2.238 -4.993,4.994l-0,36.954c-0,6.372 -23.97,21.972 -23.97,21.972c-0,0 -23.97,-15.6 -23.97,-21.972l-0,-36.954c-0,-2.756 -2.238,-4.994 -4.994,-4.994c-2.756,0 -4.994,2.238 -4.994,4.994Z" style="fill:#fff;"/><path d="M432.69,183.683c-0,5.384 -2.107,7.491 -7.491,7.491l-52.934,-0c-5.383,-0 -7.49,-2.107 -7.49,-7.491l-0,-24.469c-0,-3.307 2.686,-5.993 5.992,-5.993l11.985,0c3.307,0 5.993,2.686 5.993,5.993l-0,14.981c-0,3.854 3.137,6.991 6.991,6.991l15.98,0c3.854,0 6.991,-3.137 6.991,-6.991l0,-31.96c0,-3.854 -3.137,-6.991 -6.991,-6.991l-37.952,-0c-5.484,-0 -8.989,-3.505 -8.989,-8.989l-0,-49.438c-0,-5.383 2.107,-7.491 7.49,-7.491l52.934,0c5.384,0 7.491,2.108 7.491,7.491l-0,24.469c-0,3.307 -2.687,5.993 -5.993,5.993c-3.306,-0 -5.992,-2.686 -5.992,-5.993l-0,-14.981c-0,-3.854 -3.137,-6.991 -6.992,-6.991l-29.962,-0c-3.854,-0 -6.991,3.137 -6.991,6.991l-0,29.963c-0,3.855 3.137,6.991 6.991,6.991l39.95,-0c4.822,-0 8.117,2.713 8.839,7.092l0.11,0.898c0.015,0.165 0.025,0.165 0.031,0.124c0.006,-0.042 0.009,-0.124 0.009,-0.124l-0,52.434Z" style="fill:#fff;"/><path d="M347.037,183.683c0,5.384 -2.107,7.491 -7.491,7.491l-52.933,-0c-5.384,-0 -7.491,-2.107 -7.491,-7.491l0,-24.469c0,-3.307 2.686,-5.993 5.993,-5.993l11.985,0c3.306,0 5.992,2.686 5.992,5.993l0,14.981c0,3.854 3.137,6.991 6.991,6.991l15.98,0c3.855,0 6.992,-3.137 6.992,-6.991l-0,-31.96c-0,-3.854 -3.137,-6.991 -6.992,-6.991l-37.952,-0c-5.484,-0 -8.989,-3.505 -8.989,-8.989l0,-49.438c0,-5.383 2.107,-7.491 7.491,-7.491l52.933,0c5.384,0 7.491,2.108 7.491,7.491l0,24.469c0,3.307 -2.686,5.993 -5.992,5.993c-3.307,-0 -5.993,-2.686 -5.993,-5.993l0,-14.981c0,-3.854 -3.137,-6.991 -6.991,-6.991l-29.963,-0c-3.855,-0 -6.991,3.137 -6.991,6.991l0,29.963c0,3.855 3.136,6.991 6.991,6.991l39.95,-0c4.823,-0 8.117,2.713 8.839,7.092l0.11,0.898c0.015,0.165 0.025,0.165 0.031,0.124c0.007,-0.042 0.009,-0.124 0.009,-0.124l0,52.434Z" style="fill:#fff;"/></g><g><path d="M225.466,51.386c-1.915,-0.184 -4.421,-0.474 -5.57,-0.647l-2.089,-0.313l0,-5.883c0,-3.236 0.051,-5.88 0.114,-5.875c0.062,0.005 1.75,0.305 3.751,0.666c6.45,1.166 12.458,0.742 14.437,-1.018c0.953,-0.847 1.056,-3.422 0.166,-4.161c-0.347,-0.288 -3.133,-1.432 -6.191,-2.544c-8.684,-3.156 -10.916,-4.824 -12.516,-9.353c-0.746,-2.111 -0.962,-7.024 -0.409,-9.313c1.063,-4.402 4.621,-8.683 8.764,-10.541c3.213,-1.441 9.732,-1.886 15.365,-1.048l3.802,0.566l-0,5.913c-0,5.457 -0.061,5.886 -0.796,5.573c-0.438,-0.187 -3.164,-0.437 -6.058,-0.556c-4.279,-0.177 -5.53,-0.079 -6.694,0.522c-2.759,1.427 -3.048,4.213 -0.569,5.495c0.732,0.378 3.55,1.479 6.263,2.447c6.098,2.175 7.254,2.774 9.053,4.686c5.09,5.41 4.804,15.044 -0.613,20.621c-2.26,2.327 -6.484,4.219 -10.615,4.755c-3.756,0.488 -4.569,0.488 -9.595,0.008Z" style="fill:#fff;"/><path d="M45.016,50.482l0,-47.745l12.732,-0l0,18.188l14.097,0l-0,-18.188l12.731,-0l0,47.745l-12.731,-0l-0,-19.553l-14.097,0l0,19.553l-12.732,-0Z" style="fill:#fff;"/><rect x="94.58" y="2.282" width="13.187" height="48.199" style="fill:#fff;"/><path d="M116.861,50.482l0,-47.745l12.732,-0l-0,37.286l13.187,0l-0,10.459l-25.919,-0Z" style="fill:#fff;"/><rect x="149.6" y="2.282" width="13.187" height="48.199" style="fill:#fff;"/><path d="M-0,50.482l-0,-47.745l13.17,-0c12.306,-0 13.338,0.063 15.747,0.964c5.874,2.198 9.38,7.529 10.039,15.265c0.713,8.372 -3.036,15.545 -9.96,19.062c-3.456,1.755 -6.934,2.45 -12.267,2.45l-4.906,0l-0,10.004l-11.823,-0Zm21.833,-21.94c2.298,-1.562 3.408,-4.088 3.379,-7.688c-0.021,-2.499 -0.239,-3.349 -1.249,-4.875c-1.79,-2.704 -3.451,-3.415 -8.048,-3.442l-3.865,-0.024l-0.248,17.052l4.263,-0c3.671,-0 4.471,-0.142 5.768,-1.023Z" style="fill:#fff;"/><path d="M172.791,50.482l-0,-48.2l12.684,0c11.421,0 12.978,0.091 15.643,0.914c7.308,2.258 11.28,9.454 10.665,19.322c-0.439,7.033 -4.054,12.28 -10.738,15.584c-3.198,1.582 -3.625,1.669 -9.549,1.964c-3.41,0.17 -6.252,0.332 -6.315,0.36c-0.062,0.029 -0.113,2.303 -0.113,5.054l-0,5.002l-12.277,-0Zm21.378,-21.958c2.756,-1.457 3.858,-3.703 3.858,-7.859c0,-2.722 -0.186,-3.498 -1.21,-5.045c-1.686,-2.548 -3.588,-3.334 -8.067,-3.334l-3.682,-0l-0,17.279l3.566,-0c2.84,-0 3.967,-0.212 5.535,-1.041Z" style="fill:#fff;"/></g></g></svg>