<?xml version="1.0" encoding="UTF-8" standalone="no"?><!DOCTYPE svg PUBLIC "-//W3C//DTD SVG 1.1//EN" "http://www.w3.org/Graphics/SVG/1.1/DTD/svg11.dtd"><svg width="100%" height="100%" viewBox="0 0 600 123" version="1.1" xmlns="http://www.w3.org/2000/svg" xmlns:xlink="http://www.w3.org/1999/xlink" xml:space="preserve" xmlns:serif="http://www.serif.com/" style="fill-rule:evenodd;clip-rule:evenodd;stroke-linejoin:round;stroke-miterlimit:2;"><g id="philips"><path d="M541.271,121.622c-4.597,-0.44 -10.615,-1.138 -13.373,-1.552l-5.014,-0.752l-0,-14.124c-0,-7.768 0.123,-14.114 0.273,-14.102c0.15,0.012 4.202,0.731 9.005,1.599c15.484,2.798 29.907,1.78 34.659,-2.444c2.288,-2.034 2.534,-8.217 0.398,-9.99c-0.833,-0.69 -7.521,-3.439 -14.864,-6.107c-20.845,-7.577 -26.205,-11.582 -30.046,-22.453c-1.791,-5.068 -2.309,-16.863 -0.982,-22.358c2.552,-10.569 11.095,-20.844 21.041,-25.306c7.712,-3.46 23.362,-4.527 36.885,-2.515l9.128,1.358l-0,14.194c-0,13.102 -0.148,14.132 -1.911,13.38c-1.05,-0.448 -7.595,-1.049 -14.544,-1.336c-10.272,-0.424 -13.276,-0.189 -16.069,1.255c-6.624,3.426 -7.316,10.113 -1.365,13.191c1.756,0.908 8.522,3.552 15.033,5.875c14.641,5.222 17.416,6.659 21.735,11.25c12.22,12.987 11.531,36.115 -1.473,49.505c-5.424,5.585 -15.566,10.128 -25.482,11.415c-9.016,1.17 -10.968,1.172 -23.034,0.017Z" style="fill:#fff;"/><path d="M108.07,119.452l-0,-114.619l30.565,-0l0,43.664l33.84,0l0,-43.664l30.565,-0l0,114.619l-30.565,0l0,-46.939l-33.84,-0l0,46.939l-30.565,0Z" style="fill:#fff;"/><rect x="227.056" y="3.741" width="31.657" height="115.711" style="fill:#fff;"/><path d="M280.545,119.452l0,-114.619l30.565,-0l0,89.512l31.657,0l0,25.107l-62.222,0Z" style="fill:#fff;"/><rect x="359.141" y="3.741" width="31.657" height="115.711" style="fill:#fff;"/><path d="M-0,119.452l-0,-114.619l31.616,-0c29.543,-0 32.021,0.151 37.803,2.315c14.103,5.276 22.52,18.073 24.101,36.645c1.711,20.098 -7.287,37.318 -23.911,45.763c-8.295,4.213 -16.646,5.881 -29.449,5.881l-11.778,-0l-0,24.015l-28.382,0Zm52.414,-52.67c5.516,-3.749 8.182,-9.814 8.111,-18.455c-0.05,-6 -0.573,-8.04 -2.998,-11.705c-4.296,-6.492 -8.283,-8.197 -19.32,-8.264l-9.279,-0.056l-0.594,40.936l10.233,-0c8.813,-0 10.734,-0.341 13.847,-2.456Z" style="fill:#fff;"/><path d="M414.814,119.452l-0,-115.711l30.45,0c27.418,0 31.158,0.219 37.555,2.195c17.544,5.418 27.08,22.695 25.602,46.383c-1.053,16.885 -9.732,29.482 -25.777,37.415c-7.678,3.796 -8.704,4.006 -22.924,4.714c-8.188,0.407 -15.01,0.796 -15.16,0.865c-0.15,0.068 -0.273,5.527 -0.273,12.131l0,12.008l-29.473,0Zm51.322,-52.713c6.616,-3.499 9.262,-8.89 9.262,-18.868c0,-6.533 -0.446,-8.396 -2.904,-12.11c-4.049,-6.118 -8.614,-8.004 -19.366,-8.004l-8.841,-0l0,41.481l8.562,-0c6.818,-0 9.523,-0.509 13.287,-2.499Z" style="fill:#fff;"/></g></svg>