<svg clip-rule="evenodd" fill-rule="evenodd" stroke-linejoin="round" stroke-miterlimit="2" viewBox="0 0 600 123" xmlns="http://www.w3.org/2000/svg"><g fill="#fff"><path d="m541.271 121.356c-4.597-.439-10.615-1.138-13.373-1.551l-5.014-.752v-14.124c0-7.768.123-14.115.273-14.103s4.202.732 9.005 1.599c15.484 2.798 29.907 1.781 34.659-2.444 2.288-2.033 2.534-8.216.398-9.989-.833-.691-7.521-3.439-14.864-6.108-20.845-7.577-26.205-11.581-30.046-22.452-1.791-5.068-2.309-16.863-.982-22.359 2.552-10.569 11.095-20.844 21.041-25.306 7.712-3.46 23.362-4.527 36.885-2.515l9.128 1.358v14.195c0 13.101-.148 14.132-1.911 13.38-1.05-.448-7.595-1.049-14.544-1.336-10.272-.424-13.276-.19-16.069 1.255-6.624 3.425-7.316 10.113-1.365 13.19 1.756.909 8.522 3.552 15.033 5.875 14.641 5.223 17.416 6.659 21.735 11.25 12.22 12.988 11.531 36.115-1.473 49.505-5.424 5.585-15.566 10.128-25.482 11.415-9.016 1.17-10.968 1.172-23.034.017z"/><path d="m108.07 119.187v-114.62h30.565v43.665h33.84v-43.665h30.565v114.62h-30.565v-46.94h-33.84v46.94z"/><path d="m227.056 3.475h31.657v115.711h-31.657z"/><path d="m280.545 119.187v-114.62h30.565v89.512h31.657v25.108z"/><path d="m359.141 3.475h31.657v115.711h-31.657z"/><path d="m0 119.187v-114.62h31.616c29.543 0 32.021.152 37.803 2.315 14.103 5.277 22.52 18.074 24.101 36.646 1.711 20.097-7.287 37.318-23.911 45.762-8.295 4.213-16.646 5.881-29.449 5.881h-11.778v24.016h-28.382zm52.414-52.671c5.516-3.749 8.182-9.814 8.111-18.455-.05-5.999-.573-8.04-2.998-11.704-4.296-6.493-8.283-8.198-19.32-8.264l-9.279-.056-.594 40.935h10.233c8.813 0 10.734-.34 13.847-2.456z"/><path d="m414.814 119.187v-115.712h30.45c27.418 0 31.158.219 37.555 2.195 17.544 5.419 27.08 22.696 25.602 46.384-1.053 16.884-9.732 29.482-25.777 37.414-7.678 3.796-8.704 4.007-22.924 4.714-8.188.408-15.01.797-15.16.865s-.273 5.528-.273 12.132v12.008zm51.322-52.714c6.616-3.499 9.262-8.889 9.262-18.867 0-6.534-.446-8.397-2.904-12.11-4.049-6.118-8.614-8.005-19.366-8.005h-8.841v41.481h8.562c6.818 0 9.523-.508 13.287-2.499z"/></g></svg>