<?xml version="1.0" encoding="UTF-8" standalone="no"?><!DOCTYPE svg PUBLIC "-//W3C//DTD SVG 1.1//EN" "http://www.w3.org/Graphics/SVG/1.1/DTD/svg11.dtd"><svg width="100%" height="100%" viewBox="0 0 600 103" version="1.1" xmlns="http://www.w3.org/2000/svg" xmlns:xlink="http://www.w3.org/1999/xlink" xml:space="preserve" xmlns:serif="http://www.serif.com/" style="fill-rule:evenodd;clip-rule:evenodd;stroke-linejoin:round;stroke-miterlimit:2;"><g id="philips_videopac_alt2"><g><g><path id="path3904" d="M146.035,68.401l-10.235,19.089l-38.381,-71.647l20.47,-0l28.146,52.558Z" style="fill:#fff;fill-rule:nonzero;"/><path id="path2987" d="M138.359,44.502l15.353,-28.659l20.47,-0l-25.588,47.746l-10.235,-19.087Z" style="fill:#fff;fill-rule:nonzero;"/></g><path id="path2989" d="M179.402,15.843l17.963,-0l-0.051,71.646l-17.912,0l0,-71.646Z" style="fill:#fff;fill-rule:nonzero;"/><g><path id="path3908" d="M204.99,15.843l17.962,-0l-0.051,71.646l-17.911,0l-0,-71.646Z" style="fill:#fff;fill-rule:nonzero;"/><path id="path2991" d="M228.018,33.757l0,-17.913l7.677,-0c9.893,-0 18.337,3.497 25.332,10.491c6.994,6.994 10.49,15.438 10.49,25.332c-0,9.894 -3.497,18.338 -10.49,25.332c-6.995,6.994 -15.439,10.491 -25.332,10.491l-7.677,0l0,-17.911l7.677,0c4.946,0 9.168,-1.748 12.665,-5.246c3.497,-3.496 5.245,-7.719 5.245,-12.665c-0,-4.946 -1.749,-9.169 -5.245,-12.667c-3.497,-3.496 -7.719,-5.244 -12.665,-5.244l-7.677,-0Z" style="fill:#fff;fill-rule:nonzero;"/></g><g><path id="path3916" d="M279.297,15.843l17.962,-0l-0.051,71.646l-17.911,0l-0,-71.646Z" style="fill:#fff;fill-rule:nonzero;"/><rect id="path3914" x="302.325" y="15.843" width="28.146" height="17.911" style="fill:#fff;fill-rule:nonzero;"/><rect id="path3912" x="302.325" y="69.578" width="28.146" height="17.911" style="fill:#fff;fill-rule:nonzero;"/><rect id="path2993" x="302.325" y="42.71" width="28.146" height="17.911" style="fill:#fff;fill-rule:nonzero;"/></g><g><path id="path3920" d="M391.831,54.225l18.014,-0c-0.546,8.802 -4.026,16.393 -10.44,22.773c-6.994,6.994 -15.437,10.491 -25.332,10.491c-9.893,0 -18.338,-3.497 -25.332,-10.491c-6.38,-6.38 -9.842,-13.971 -10.388,-22.773l18.013,-0c0.512,3.855 2.2,7.216 5.067,10.082c3.48,3.513 7.692,5.271 12.64,5.271c4.948,0 9.178,-1.758 12.691,-5.271c2.867,-2.866 4.556,-6.227 5.067,-10.082Z" style="fill:#fff;fill-rule:nonzero;"/><path id="path2995" d="M356.367,49.107l-18.014,0c0.545,-8.802 4.008,-16.393 10.388,-22.773c6.994,-6.994 15.438,-10.491 25.332,-10.491c9.895,-0 18.338,3.497 25.332,10.491c6.414,6.38 9.895,13.971 10.44,22.773l-18.014,0c-0.512,-3.855 -2.2,-7.232 -5.067,-10.132c-3.513,-3.481 -7.744,-5.22 -12.691,-5.22c-4.947,-0 -9.16,1.739 -12.64,5.22c-2.866,2.9 -4.555,6.277 -5.066,10.132Z" style="fill:#fff;fill-rule:nonzero;"/></g><g><rect id="path3924" x="417.675" y="15.843" width="17.91" height="71.646" style="fill:#fff;fill-rule:nonzero;"/><path id="path2997" d="M440.704,33.755l-0,-17.911l9.62,-0c6.175,-0 11.447,2.184 15.813,6.55c4.368,4.368 6.551,9.638 6.551,15.813c-0,6.209 -2.184,11.498 -6.551,15.864c-4.367,4.368 -9.638,6.55 -15.813,6.55l-9.62,0l-0,-17.911l9.62,0c1.229,0 2.277,-0.435 3.148,-1.305c0.87,-0.869 1.304,-1.936 1.304,-3.198c0,-1.229 -0.434,-2.277 -1.304,-3.148c-0.871,-0.869 -1.92,-1.305 -3.148,-1.305l-9.62,0l-0,0.001Z" style="fill:#fff;fill-rule:nonzero;"/></g><g><path id="path3928" d="M496.969,58.831l-15.353,28.658l-20.47,0l25.589,-47.747l10.234,19.089Z" style="fill:#fff;fill-rule:nonzero;"/><path id="path2999" d="M504.441,63.18l-15.148,-28.248l10.235,-19.089l38.382,71.646l-20.47,0l-3.428,-6.397l-23.848,-0l9.569,-17.911l4.708,-0l-0,-0.001Z" style="fill:#fff;fill-rule:nonzero;"/></g><g><path id="path3934" d="M567.605,69.424l0,17.963c-8.802,-0.547 -16.393,-4.009 -22.773,-10.389c-6.994,-6.994 -10.49,-15.438 -10.49,-25.332c-0,-9.894 3.496,-18.338 10.49,-25.332c6.38,-6.38 13.971,-9.843 22.773,-10.389l0,17.963c-3.855,0.512 -7.216,2.2 -10.082,5.066c-3.513,3.514 -5.271,7.744 -5.271,12.691c-0,4.946 1.758,9.16 5.271,12.641c2.866,2.9 6.227,4.607 10.082,5.118Z" style="fill:#fff;fill-rule:nonzero;"/><path id="path3932" d="M585.107,41.687c-0.648,-0.955 -1.399,-1.859 -2.252,-2.712c-2.899,-2.866 -6.276,-4.555 -10.132,-5.066l-0,-17.963c8.802,0.546 16.393,4.009 22.773,10.389c1.705,1.706 3.207,3.515 4.504,5.425l-14.893,9.927Z" style="fill:#fff;fill-rule:nonzero;"/><path id="path3001" d="M599.999,71.573c-1.297,1.911 -2.799,3.719 -4.504,5.425c-6.38,6.38 -13.971,9.842 -22.773,10.389l-0,-17.963c3.856,-0.511 7.233,-2.218 10.132,-5.117c0.853,-0.853 1.604,-1.74 2.252,-2.661l14.893,9.927Z" style="fill:#fff;fill-rule:nonzero;"/></g></g><g><path d="M35.926,102.566c-3.749,-0.366 -5.159,-0.591 -7.606,-1.218c-5.319,-1.362 -10.312,-3.824 -14.429,-7.116c-1.453,-1.163 -4.256,-3.986 -5.437,-5.48c-3.927,-4.961 -6.594,-11.076 -7.718,-17.688c-0.701,-4.125 -0.652,-1.518 -0.696,-37.399l-0.04,-32.931l77.284,-0l-0.037,33.354c-0.035,30.832 -0.053,33.459 -0.245,34.742c-0.803,5.358 -2.034,9.461 -4.04,13.462c-2.971,5.928 -7.863,11.188 -13.613,14.638c-4.804,2.883 -10.21,4.713 -15.998,5.417c-1.431,0.174 -6.391,0.32 -7.425,0.219Zm7.063,-1.815c6.994,-0.777 13.625,-3.438 19.077,-7.656c1.531,-1.184 4.134,-3.744 5.398,-5.309c4.738,-5.862 7.421,-12.902 8.122,-21.31c0.077,-0.918 0.121,-12.95 0.122,-32.811l0.001,-31.362l-74.017,0l0.038,32.509c0.035,29.791 0.056,32.618 0.243,33.819c0.764,4.911 1.584,7.921 3.103,11.385c4.888,11.145 15.015,18.695 27.591,20.568c3.32,0.494 6.856,0.552 10.322,0.167Z" style="fill:#fff;"/><path d="M46.698,92.471c-0.251,-1.607 -0.483,-2.948 -0.515,-2.98c-0.032,-0.032 -1.37,-0.292 -2.973,-0.579c-1.604,-0.286 -2.935,-0.539 -2.958,-0.563c-0.023,-0.023 1.291,-0.17 2.919,-0.326c1.629,-0.157 3.017,-0.32 3.085,-0.362c0.068,-0.042 0.282,-1.369 0.475,-2.948c0.194,-1.58 0.372,-2.892 0.396,-2.916c0.023,-0.023 0.225,1.231 0.447,2.787c0.223,1.556 0.438,2.883 0.478,2.948c0.041,0.065 1.349,0.262 2.908,0.438c1.56,0.176 2.935,0.357 3.056,0.403c0.128,0.048 -0.958,0.28 -2.596,0.553c-1.549,0.259 -2.93,0.511 -3.068,0.56c-0.23,0.082 -0.289,0.351 -0.66,2.998c-0.224,1.6 -0.437,2.909 -0.472,2.909c-0.036,-0 -0.271,-1.315 -0.522,-2.922Z" style="fill:#fff;"/><path d="M36.168,98.535c-9.342,-0.69 -17.797,-4.97 -23.858,-12.077c-8.933,-10.474 -10.684,-25.454 -4.417,-37.795c6.766,-13.324 21.424,-20.758 36.171,-18.346c5.749,0.94 10.946,3.217 15.708,6.88c1.506,1.159 4.776,4.453 5.932,5.976c3.891,5.125 6.21,10.803 7.004,17.145c0.323,2.581 0.172,7.132 -0.33,9.961c-2.431,13.697 -13.084,24.702 -26.694,27.576c-2.917,0.616 -6.715,0.887 -9.516,0.68Zm6.094,-1.762c2.749,-0.32 5.642,-1.02 8.019,-1.94c1.481,-0.573 4.546,-2.091 4.622,-2.29c0.064,-0.165 -1.477,-10.177 -1.582,-10.283c-0.033,-0.032 -2.288,-0.454 -5.011,-0.938c-2.724,-0.483 -5.014,-0.899 -5.09,-0.925c-0.077,-0.025 2.217,-0.283 5.097,-0.572c2.88,-0.289 5.252,-0.537 5.27,-0.552c0.039,-0.03 1.231,-9.797 1.233,-10.102c0.002,-0.239 -1.304,-0.991 -2.655,-1.531c-4.294,-1.715 -8.836,-1.347 -12.649,1.025c-3.284,2.043 -5.664,2.67 -9.671,2.546c-3.514,-0.109 -5.513,-0.734 -8.443,-2.64c-3.745,-2.436 -10.132,-2.449 -14.483,-0.028c-0.572,0.318 -0.755,0.484 -0.754,0.685c0,0.147 0.135,0.912 0.299,1.701c1.643,7.896 6.142,14.878 12.713,19.731c4.502,3.324 9.844,5.42 15.602,6.122c1.822,0.222 5.537,0.217 7.483,-0.009Zm14.557,-5.37c2.526,-1.691 5.399,-4.329 7.292,-6.696c0.884,-1.104 2.843,-4.027 2.757,-4.113c-0.032,-0.031 -2.361,0.339 -5.177,0.824l-5.119,0.88l-0.732,5.091c-0.703,4.886 -0.722,5.085 -0.483,4.958c0.137,-0.072 0.795,-0.497 1.462,-0.944Zm10.7,-11.887c1.375,-2.531 2.598,-6.007 3.178,-9.034c0.145,-0.754 0.141,-0.816 -0.041,-0.738c-0.832,0.355 -2.402,0.833 -3.433,1.044c-1.643,0.337 -5.025,0.365 -6.727,0.056c-1.575,-0.286 -3.072,-0.727 -4.379,-1.291c-0.606,-0.261 -1.122,-0.454 -1.147,-0.429c-0.049,0.05 1.378,9.966 1.444,10.032c0.061,0.061 10.148,1.247 10.413,1.224c0.155,-0.013 0.386,-0.301 0.692,-0.864Zm-34.831,-9.969c2.165,-0.295 3.804,-0.892 5.583,-2.031c1.751,-1.121 3.463,-1.832 5.443,-2.261c1.283,-0.277 4.577,-0.313 5.856,-0.063c1.598,0.313 3.411,0.983 5.332,1.971c2.877,1.48 4.735,2.04 7.496,2.259c2.658,0.212 5.571,-0.249 7.631,-1.206l1.062,-0.494l0.076,-0.549c0.078,-0.569 0.104,-1.844 0.037,-1.844c-0.02,-0 -0.333,0.143 -0.694,0.318c-2.364,1.146 -5.413,1.658 -8.202,1.378c-3.156,-0.317 -5.362,-1.049 -8.935,-2.962c-2.496,-1.336 -5.759,-1.903 -8.641,-1.503c-2.122,0.296 -4.431,1.213 -6.214,2.47c-2.357,1.661 -4.815,2.352 -8.366,2.351c-2.734,-0.001 -4.766,-0.425 -6.919,-1.445c-0.673,-0.318 -1.56,-0.807 -1.971,-1.086c-2.144,-1.456 -5.002,-2.167 -8.141,-2.024c-2.364,0.107 -4.799,0.743 -6.508,1.699l-0.811,0.453l-0,0.764c-0,0.42 0.031,0.921 0.069,1.112l0.07,0.349l0.921,-0.45c3.344,-1.63 7.666,-2.076 11.461,-1.182c1.54,0.363 2.787,0.897 4.279,1.833c1.984,1.244 3.297,1.746 5.476,2.093c1.216,0.194 3.378,0.217 4.61,0.05Zm-0.015,-3.914c2.092,-0.339 3.442,-0.883 5.135,-2.07c1.327,-0.929 3.242,-1.807 4.905,-2.248c1.365,-0.362 1.524,-0.377 3.898,-0.385c2.013,-0.007 2.656,0.034 3.441,0.217c1.646,0.385 2.822,0.844 4.921,1.923c2.006,1.031 3.734,1.681 5.523,2.076c1.395,0.309 4.513,0.379 5.856,0.131c1.685,-0.31 3.333,-0.9 4.407,-1.578l0.483,-0.305l0,-0.904c0,-0.497 -0.029,-0.904 -0.064,-0.904c-0.036,-0 -0.321,0.129 -0.634,0.288c-0.85,0.429 -2.346,0.869 -3.754,1.104c-1,0.167 -1.683,0.195 -3.381,0.142c-3.622,-0.115 -6.261,-0.859 -9.542,-2.689c-2.119,-1.182 -4.357,-1.743 -6.954,-1.743c-3.171,0 -5.688,0.783 -8.339,2.592c-2.133,1.457 -3.924,1.98 -7.115,2.08c-1.739,0.054 -2.281,0.025 -3.547,-0.191c-2.416,-0.412 -4.734,-1.29 -6.414,-2.428c-1.038,-0.703 -2.082,-1.187 -3.293,-1.525c-0.929,-0.259 -1.456,-0.321 -3.167,-0.372c-2.257,-0.067 -3.34,0.061 -5.312,0.631c-1.131,0.327 -3.428,1.382 -3.687,1.693c-0.14,0.169 -0.335,1.867 -0.214,1.867c0.03,-0 0.486,-0.187 1.012,-0.415c2.453,-1.063 4.651,-1.454 7.657,-1.364c3.319,0.099 5.155,0.654 7.93,2.396c1.775,1.114 3.699,1.792 5.896,2.077c0.916,0.118 3.364,0.065 4.353,-0.096Zm0.163,-3.929c2.067,-0.268 3.335,-0.746 4.969,-1.87c2.72,-1.872 5.646,-2.759 9.108,-2.76c2.775,-0.001 5.07,0.543 7.31,1.733c2.676,1.422 4.052,1.953 6.314,2.438c0.99,0.212 1.647,0.264 3.4,0.271c2.816,0.011 4.288,-0.287 6.293,-1.274l0.785,-0.387l-0.077,-0.493c-0.863,-5.497 -2.932,-10.393 -6.296,-14.899c-1.375,-1.842 -4.492,-4.961 -6.327,-6.331c-4.988,-3.723 -10.468,-5.869 -16.578,-6.494c-1.824,-0.187 -6.328,-0.088 -7.984,0.174c-0.664,0.105 -1.71,0.305 -2.324,0.444c-0.988,0.222 -1.117,0.282 -1.118,0.513c-0,0.44 0.752,5.448 0.831,5.537c0.042,0.045 1.379,0.23 2.973,0.409c1.594,0.18 2.94,0.364 2.993,0.411c0.052,0.046 -0.79,0.23 -1.872,0.41c-1.081,0.179 -2.434,0.411 -3.005,0.515l-1.039,0.188l-0.398,2.856c-0.219,1.57 -0.432,2.922 -0.474,3.004c-0.041,0.081 -0.291,-1.219 -0.555,-2.889l-0.48,-3.038l-2.837,-0.505c-1.56,-0.278 -2.946,-0.528 -3.079,-0.556c-0.133,-0.027 1.158,-0.189 2.869,-0.36c1.711,-0.17 3.135,-0.334 3.165,-0.364c0.067,-0.067 0.762,-5.7 0.711,-5.765c-0.144,-0.183 -3.743,1.119 -5.658,2.047c-3.649,1.767 -6.247,3.618 -9.121,6.501c-4.831,4.846 -7.92,10.799 -9.101,17.538l-0.077,0.443l1.06,-0.466c4.074,-1.792 8.962,-2.028 12.711,-0.614c0.365,0.138 1.083,0.489 1.594,0.781l0.93,0.53l-0.062,-0.317c-0.034,-0.174 -0.403,-2.476 -0.819,-5.115c-0.416,-2.64 -0.779,-4.821 -0.807,-4.848c-0.028,-0.027 -2.29,-0.446 -5.027,-0.931c-2.737,-0.485 -4.949,-0.908 -4.917,-0.94c0.032,-0.033 2.322,-0.292 5.088,-0.577c2.766,-0.285 5.065,-0.56 5.109,-0.611c0.043,-0.051 0.345,-2.336 0.67,-5.079c0.357,-3.001 0.626,-4.875 0.678,-4.708c0.047,0.152 0.393,2.395 0.768,4.985c0.375,2.59 0.726,4.736 0.779,4.769c0.054,0.034 2.464,0.331 5.356,0.661c2.892,0.329 5.238,0.618 5.215,0.642c-0.024,0.023 -2.366,0.443 -5.205,0.933c-2.839,0.49 -5.198,0.948 -5.241,1.018c-0.137,0.222 -1.494,9.986 -1.417,10.189c0.102,0.263 1.979,1.19 3.179,1.568c2.233,0.705 4.885,0.962 7.037,0.683Z" style="fill:#fff;"/><path d="M65.79,22.465c-0.508,-0.049 -1.174,-0.126 -1.479,-0.172l-0.555,-0.083l0,-1.562c0,-0.859 0.014,-1.561 0.03,-1.56c0.017,0.001 0.465,0.081 0.997,0.177c1.712,0.31 3.307,0.197 3.833,-0.27c0.253,-0.225 0.28,-0.909 0.044,-1.105c-0.092,-0.077 -0.832,-0.381 -1.644,-0.676c-2.306,-0.838 -2.898,-1.281 -3.323,-2.483c-0.198,-0.561 -0.256,-1.865 -0.109,-2.473c0.282,-1.169 1.227,-2.306 2.327,-2.799c0.853,-0.383 2.584,-0.501 4.08,-0.278l1.01,0.15l-0,1.57c-0,1.449 -0.017,1.563 -0.212,1.48c-0.116,-0.05 -0.84,-0.116 -1.608,-0.148c-1.137,-0.047 -1.469,-0.021 -1.778,0.139c-0.732,0.379 -0.809,1.119 -0.151,1.459c0.195,0.1 0.943,0.393 1.663,0.65c1.619,0.577 1.926,0.736 2.404,1.244c1.352,1.437 1.276,3.995 -0.163,5.476c-0.6,0.617 -1.721,1.12 -2.818,1.262c-0.998,0.13 -1.213,0.13 -2.548,0.002Z" style="fill:#fff;"/><path d="M17.876,22.225l-0,-12.678l3.38,0l0,4.83l3.743,0l0,-4.83l3.381,0l-0,12.678l-3.381,0l0,-5.192l-3.743,0l0,5.192l-3.38,0Z" style="fill:#fff;"/><rect x="31.036" y="9.427" width="3.501" height="12.798" style="fill:#fff;"/><path d="M36.952,22.225l0,-12.678l3.381,0l-0,9.901l3.501,0l0,2.777l-6.882,0Z" style="fill:#fff;"/><rect x="45.645" y="9.427" width="3.501" height="12.798" style="fill:#fff;"/><path d="M5.922,22.225l0,-12.678l3.497,0c3.268,0 3.542,0.017 4.182,0.257c1.56,0.583 2.49,1.999 2.665,4.053c0.19,2.223 -0.806,4.127 -2.644,5.061c-0.918,0.466 -1.842,0.651 -3.258,0.651l-1.302,-0l-0,2.656l-3.14,0Zm5.798,-5.826c0.61,-0.414 0.905,-1.085 0.897,-2.041c-0.006,-0.663 -0.063,-0.889 -0.332,-1.294c-0.475,-0.719 -0.916,-0.907 -2.137,-0.914l-1.026,-0.007l-0.066,4.528l1.132,0c0.975,0 1.187,-0.038 1.532,-0.272Z" style="fill:#fff;"/><path d="M51.803,22.225l0,-12.798l3.368,-0c3.033,-0 3.446,0.024 4.154,0.242c1.94,0.6 2.995,2.511 2.832,5.131c-0.117,1.867 -1.077,3.261 -2.851,4.138c-0.85,0.42 -0.963,0.443 -2.536,0.521c-0.906,0.045 -1.66,0.088 -1.677,0.096c-0.016,0.008 -0.03,0.611 -0.03,1.342l0,1.328l-3.26,0Zm5.677,-5.83c0.731,-0.387 1.024,-0.984 1.024,-2.087c0,-0.723 -0.049,-0.929 -0.321,-1.34c-0.448,-0.676 -0.953,-0.885 -2.142,-0.885l-0.978,-0l0,4.588l0.947,0c0.754,0 1.053,-0.056 1.47,-0.276Z" style="fill:#fff;"/></g></g></svg>