<?xml version="1.0" encoding="UTF-8" standalone="no"?><!DOCTYPE svg PUBLIC "-//W3C//DTD SVG 1.1//EN" "http://www.w3.org/Graphics/SVG/1.1/DTD/svg11.dtd"><svg width="100%" height="100%" viewBox="0 0 600 146" version="1.1" xmlns="http://www.w3.org/2000/svg" xmlns:xlink="http://www.w3.org/1999/xlink" xml:space="preserve" xmlns:serif="http://www.serif.com/" style="fill-rule:evenodd;clip-rule:evenodd;stroke-linejoin:round;stroke-miterlimit:2;"><g id="philips_odyssey2"><g><path d="M72.806,57.983l0,81.352c0,4.099 1.604,5.703 5.702,5.703l35.377,-0c10.903,-0 19.745,-8.842 19.745,-19.746l0,-53.266c0,-10.902 -8.842,-19.745 -19.745,-19.745l-35.377,0c-4.098,0 -5.702,1.605 -5.702,5.702Zm19.768,7.223c-0,-2.934 2.387,-5.322 5.322,-5.322l15.761,0c5.991,0 10.85,4.859 10.85,10.85l-0,55.851c-0,5.991 -4.859,10.85 -10.85,10.85l-15.761,-0c-2.935,-0 -5.322,-2.388 -5.322,-5.323l-0,-66.906Z" style="fill:#fff;"/><path d="M-0,57.983l-0,81.352c-0,4.099 1.604,5.703 5.702,5.703l47.899,-0c4.098,-0 5.702,-1.604 5.702,-5.703l0,-81.352c0,-4.097 -1.604,-5.702 -5.702,-5.702l-47.899,0c-4.098,0 -5.702,1.605 -5.702,5.702Zm9.124,8.744c-0,-4.174 2.668,-6.843 6.842,-6.843l27.371,0c4.174,0 6.843,2.669 6.843,6.843l-0,23.623c-8.242,0.6 -10.644,5.96 -10.644,9.07l-0,32.692c-0,2.935 -2.388,5.323 -5.323,5.323l-18.247,-0c-4.174,-0 -6.842,-2.669 -6.842,-6.843l-0,-63.865Z" style="fill:#fff;"/><path d="M342.889,57.983l-0,81.352c-0,4.099 1.604,5.703 5.702,5.703l41.056,-0c1.049,-0 1.901,-0.852 1.901,-1.901l-0,-1.901c-0,-2.098 -3.224,-3.801 -5.322,-3.801l-17.411,-0c-3.399,-0 -6.159,-2.76 -6.159,-6.159l0,-22.657c0,-3.398 2.76,-6.158 6.159,-6.158l20.832,-0c1.049,-0 1.901,-0.852 1.901,-1.901l-0,-3.801c-0,-1.049 -0.852,-1.901 -1.901,-1.901l-31.119,-0c-3.787,-0 -6.516,-2.729 -6.516,-6.516l0,-20.421c0,-3.787 2.729,-6.516 6.516,-6.516l31.119,-0c1.049,-0 1.901,-0.852 1.901,-1.901l-0,-5.322c-0,-1.049 -0.852,-1.901 -1.901,-1.901l-41.056,0c-4.098,0 -5.702,1.605 -5.702,5.702Z" style="fill:#fff;"/><path d="M147.279,56.083l0,33.696c0,-0 0.738,2.555 1.673,3.27c1.125,0.874 2.615,2.471 4.425,3.991c4.744,3.976 10.537,9.39 10.629,12.203l-0,32.723c-0,1.695 1.376,3.072 3.071,3.072l12.104,-0c1.695,-0 3.072,-1.377 3.072,-3.072l-0,-32.723c0.091,-2.813 5.884,-8.227 10.629,-12.203c1.809,-1.52 3.299,-3.117 4.425,-3.991c0.935,-0.715 1.672,-3.27 1.672,-3.27l0,-33.696c0,-2.098 -1.703,-3.802 -3.801,-3.802c-2.099,0 -3.802,1.704 -3.802,3.802l0,28.131c0,4.85 -18.247,16.726 -18.247,16.726c0,0 -18.247,-11.876 -18.247,-16.726l-0,-28.131c-0,-2.098 -1.703,-3.802 -3.801,-3.802c-2.099,0 -3.802,1.704 -3.802,3.802Z" style="fill:#fff;"/><path d="M405.051,56.083l-0,33.696c-0,-0 0.738,2.555 1.672,3.27c1.126,0.874 2.616,2.471 4.425,3.991c4.744,3.976 10.538,9.39 10.629,12.203l0,32.723c0,1.695 1.377,3.072 3.072,3.072l12.104,-0c1.695,-0 3.071,-1.377 3.071,-3.072l0,-32.723c0.092,-2.813 5.886,-8.227 10.629,-12.203c1.809,-1.52 3.3,-3.117 4.425,-3.991c0.935,-0.715 1.673,-3.27 1.673,-3.27l0,-33.696c0,-2.098 -1.704,-3.802 -3.801,-3.802c-2.098,0 -3.802,1.704 -3.802,3.802l0,28.131c0,4.85 -18.247,16.726 -18.247,16.726c-0,0 -18.247,-11.876 -18.247,-16.726l-0,-28.131c-0,-2.098 -1.704,-3.802 -3.802,-3.802c-2.098,0 -3.801,1.704 -3.801,3.802Z" style="fill:#fff;"/><path d="M329.386,139.335c-0,4.099 -1.604,5.703 -5.702,5.703l-40.296,-0c-4.099,-0 -5.703,-1.604 -5.703,-5.703l0,-18.627c0,-2.517 2.045,-4.562 4.562,-4.562l9.124,0c2.517,0 4.562,2.045 4.562,4.562l-0,11.404c-0,2.935 2.388,5.323 5.322,5.323l12.165,-0c2.934,-0 5.322,-2.388 5.322,-5.323l-0,-24.329c-0,-2.934 -2.388,-5.322 -5.322,-5.322l-28.892,-0c-4.174,-0 -6.843,-2.668 -6.843,-6.843l0,-37.635c0,-4.097 1.604,-5.702 5.703,-5.702l40.296,0c4.098,0 5.702,1.605 5.702,5.702l-0,18.628c-0,2.517 -2.045,4.561 -4.562,4.561c-2.517,0 -4.562,-2.044 -4.562,-4.561l0,-11.405c0,-2.934 -2.388,-5.322 -5.322,-5.322l-22.809,0c-2.934,0 -5.322,2.388 -5.322,5.322l0,22.809c0,2.935 2.388,5.322 5.322,5.322l30.412,0c3.671,0 6.179,2.065 6.729,5.399l0.083,0.684c0.012,0.125 0.019,0.125 0.024,0.094c0.005,-0.031 0.007,-0.094 0.007,-0.094l-0,39.915Z" style="fill:#fff;"/><path d="M264.183,139.335c-0,4.099 -1.604,5.703 -5.703,5.703l-40.296,-0c-4.098,-0 -5.702,-1.604 -5.702,-5.703l0,-18.627c0,-2.517 2.045,-4.562 4.562,-4.562l9.124,0c2.517,0 4.561,2.045 4.561,4.562l0,11.404c0,2.935 2.388,5.323 5.323,5.323l12.164,-0c2.934,-0 5.322,-2.388 5.322,-5.323l0,-24.329c0,-2.934 -2.388,-5.322 -5.322,-5.322l-28.891,-0c-4.174,-0 -6.843,-2.668 -6.843,-6.843l0,-37.635c0,-4.097 1.604,-5.702 5.702,-5.702l40.296,0c4.099,0 5.703,1.605 5.703,5.702l-0,18.628c-0,2.517 -2.045,4.561 -4.562,4.561c-2.517,0 -4.562,-2.044 -4.562,-4.561l-0,-11.405c-0,-2.934 -2.388,-5.322 -5.322,-5.322l-22.809,0c-2.935,0 -5.322,2.388 -5.322,5.322l-0,22.809c-0,2.935 2.387,5.322 5.322,5.322l30.412,0c3.671,0 6.179,2.065 6.729,5.399l0.083,0.684c0.012,0.125 0.019,0.125 0.024,0.094c0.005,-0.031 0.007,-0.094 0.007,-0.094l-0,39.915Z" style="fill:#fff;"/></g><g><path d="M171.636,38.624c-1.457,-0.14 -3.365,-0.361 -4.24,-0.492l-1.59,-0.239l0,-4.479c0,-2.463 0.039,-4.475 0.087,-4.472c0.047,0.004 1.332,0.232 2.855,0.508c4.91,0.887 9.484,0.564 10.991,-0.776c0.725,-0.644 0.803,-2.605 0.126,-3.167c-0.264,-0.219 -2.385,-1.091 -4.714,-1.937c-6.61,-2.402 -8.309,-3.672 -9.527,-7.12c-0.568,-1.607 -0.732,-5.347 -0.312,-7.089c0.81,-3.352 3.519,-6.61 6.672,-8.025c2.446,-1.097 7.408,-1.435 11.697,-0.797l2.894,0.43l0,4.501c0,4.155 -0.047,4.482 -0.606,4.243c-0.333,-0.142 -2.408,-0.333 -4.612,-0.424c-3.257,-0.134 -4.209,-0.06 -5.095,0.398c-2.101,1.087 -2.32,3.207 -0.433,4.183c0.557,0.288 2.702,1.126 4.767,1.863c4.642,1.656 5.523,2.112 6.892,3.567c3.875,4.119 3.657,11.452 -0.467,15.698c-1.72,1.771 -4.936,3.212 -8.08,3.62c-2.859,0.371 -3.478,0.372 -7.305,0.006Z" style="fill:#fff;"/><path d="M34.269,37.936l-0,-36.346l9.692,-0l0,13.846l10.731,-0l-0,-13.846l9.692,-0l-0,36.346l-9.692,-0l-0,-14.885l-10.731,0l0,14.885l-9.692,-0Z" style="fill:#fff;"/><rect x="71.999" y="1.244" width="10.038" height="36.692" style="fill:#fff;"/><path d="M88.961,37.936l-0,-36.346l9.692,-0l-0,28.384l10.038,0l0,7.962l-19.73,-0Z" style="fill:#fff;"/><rect x="113.883" y="1.244" width="10.038" height="36.692" style="fill:#fff;"/><path d="M-0,37.936l-0,-36.346l10.025,-0c9.369,-0 10.154,0.048 11.988,0.734c4.472,1.673 7.141,5.731 7.642,11.62c0.543,6.373 -2.311,11.834 -7.582,14.511c-2.63,1.336 -5.279,1.865 -9.338,1.865l-3.735,0l-0,7.616l-9,-0Zm16.62,-16.702c1.75,-1.189 2.595,-3.112 2.572,-5.852c-0.015,-1.903 -0.181,-2.55 -0.95,-3.712c-1.363,-2.058 -2.627,-2.599 -6.127,-2.62l-2.942,-0.018l-0.188,12.981l3.245,-0c2.794,-0 3.403,-0.108 4.39,-0.779Z" style="fill:#fff;"/><path d="M131.537,37.936l0,-36.692l9.656,-0c8.694,-0 9.88,0.069 11.909,0.695c5.563,1.719 8.587,7.197 8.118,14.709c-0.334,5.354 -3.086,9.348 -8.174,11.864c-2.435,1.203 -2.76,1.27 -7.269,1.495c-2.597,0.129 -4.76,0.252 -4.807,0.274c-0.048,0.022 -0.087,1.753 -0.087,3.847l0,3.808l-9.346,-0Zm16.274,-16.716c2.098,-1.109 2.937,-2.819 2.937,-5.983c0,-2.071 -0.141,-2.662 -0.921,-3.84c-1.283,-1.94 -2.731,-2.538 -6.14,-2.538l-2.804,-0l0,13.154l2.715,-0c2.162,-0 3.02,-0.162 4.213,-0.793Z" style="fill:#fff;"/></g><path d="M484.455,8.125l0,-7.907l93.674,-0l0.192,0.001c11.984,0.105 21.679,9.864 21.679,21.87l-0,13.706c-0,12.071 -9.8,21.872 -21.871,21.872l-67.045,-0c-0.967,-0 -1.751,0.784 -1.751,1.751l-0,8.198c-0,0.967 0.784,1.752 1.751,1.752l87.456,-0l0,22.874l-121.238,-0l0,-35.578c0,-12.071 9.801,-21.871 21.872,-21.871l67.044,-0c0.967,-0 1.752,-0.785 1.752,-1.752l-0,-8.198c-0,-0.967 -0.785,-1.751 -1.752,-1.751l-81.763,-0l0,-7.907l86.142,-0c9.509,-0 9.659,0.149 9.659,9.658l0,8.198c0,9.416 -0.243,9.659 -9.659,9.659c-10.723,-0 -10.723,-0 -67.044,-0c-10.975,-0 -13.964,6.257 -13.964,13.964c-0,0 -0,27.67 -0,27.67c25.73,0 96.665,0 96.665,0c-0,0 -0,-7.059 -0,-7.059c-19.6,-0 -69.564,-0 -79.549,-0c-9.984,-0 -9.659,0.325 -9.659,-9.659l0,-8.198c0,-6.897 2.761,-9.658 9.659,-9.658c10.723,-0 12.183,-0 67.044,-0c10.72,-0 13.965,-3.246 13.965,-13.965c-0,-13.706 -0,0 -0,-13.706c-0,-8.873 -2.032,-13.875 -10.905,-13.963c-0,-0 -84.447,-0.001 -84.447,-0.001l0,0l-7.907,0Z" style="fill:#fff;"/></g></svg>