<svg clip-rule="evenodd" fill-rule="evenodd" stroke-linejoin="round" stroke-miterlimit="2" viewBox="0 0 600 224" xmlns="http://www.w3.org/2000/svg"><g fill="#fff"><path d="m129.413 190.823c17.903.423 32.217-4.947 32.579-11.764-.362-6.425-14.676-11.81-32.579-11.765-17.451-.045-31.765 5.34-31.689 11.765-.076 6.817 14.238 12.187 31.689 11.764zm0-18.099c-13.032.166-23.771 3.017-23.529 6.335-.232 3.565 9.674 6.337 22.013 6.347h.15c.451 0 .907-.004 1.366-.012l.158.002c.473.007.943.011 1.409.01h.155c12.665-.033 22.496-2.796 22.712-6.347-.225-3.321-10.881-6.162-24.276-6.333z"/><path d="m220.815 188.109c-11.764 11.583-48.144 19.803-91.402 19.909-52.428-.106-95.098-12.941-95.022-28.959-.076-15.641 42.594-28.477 95.022-28.054 42.685-.408 78.672 7.828 91.402 19.004h36.199c-12.156-19.668-64.554-34.751-127.601-34.389-71.568-.362-129.758 19.336-129.411 43.439-.347 24.494 57.843 44.193 129.411 44.344 63.303-.166 115.882-15.37 127.601-35.294z"/><path d="m573.756 168.199h26.244v52.489h-26.244z"/><path d="m492.308 194.443 64.253-10.859-64.253-10.86z"/><path d="m573.756 141.955h26.244v18.1h-26.244z"/><path d="m370.136 141.955c59.457-.257 107.964 14.193 107.692 38.914.287 24.298-47.752 39.215-107.692 38.914h-105.882v-77.828zm.501 14.479c-.163 0-.324 0-.486 0h-76.033v48.869h76.018v.015c.324.001.646.001.97.001l.484-.001c40.767-.1 73.853-8.812 73.659-24.449.21-16.103-33.138-24.38-74.128-24.435z"/><path d="m541.271 121.49c-4.597-.44-10.615-1.138-13.373-1.552l-5.014-.752v-14.124c0-7.768.123-14.115.273-14.103s4.202.732 9.005 1.6c15.484 2.797 29.907 1.78 34.659-2.445 2.288-2.033 2.534-8.216.398-9.989-.833-.691-7.521-3.439-14.864-6.108-20.845-7.576-26.205-11.581-30.046-22.452-1.791-5.068-2.309-16.863-.982-22.359 2.552-10.569 11.095-20.844 21.041-25.306 7.712-3.46 23.362-4.527 36.885-2.515l9.128 1.358v14.195c0 13.101-.148 14.132-1.911 13.38-1.05-.448-7.595-1.049-14.544-1.336-10.272-.424-13.276-.19-16.069 1.255-6.624 3.425-7.316 10.113-1.365 13.19 1.756.909 8.522 3.552 15.033 5.875 14.641 5.223 17.416 6.659 21.735 11.25 12.22 12.988 11.531 36.115-1.473 49.505-5.424 5.585-15.566 10.129-25.482 11.415-9.016 1.171-10.968 1.172-23.034.018z"/><path d="m108.07 119.32v-114.62h30.565v43.665h33.84v-43.665h30.565v114.62h-30.565v-46.94h-33.84v46.94z"/><path d="m227.056 3.608h31.657v115.711h-31.657z"/><path d="m280.545 119.32v-114.62h30.565v89.513h31.657v25.107z"/><path d="m359.141 3.608h31.657v115.711h-31.657z"/><path d="m0 119.32v-114.62h31.616c29.543 0 32.021.152 37.803 2.315 14.103 5.277 22.52 18.074 24.101 36.646 1.711 20.097-7.287 37.318-23.911 45.762-8.295 4.213-16.646 5.881-29.449 5.881h-11.778v24.016h-28.382zm52.414-52.671c5.516-3.749 8.182-9.814 8.111-18.455-.05-5.999-.573-8.039-2.998-11.704-4.296-6.493-8.283-8.198-19.32-8.264l-9.279-.056-.594 40.935h10.233c8.813 0 10.734-.34 13.847-2.456z"/><path d="m414.814 119.32v-115.712h30.45c27.418 0 31.158.219 37.555 2.195 17.544 5.419 27.08 22.696 25.602 46.384-1.053 16.884-9.732 29.482-25.777 37.414-7.678 3.796-8.704 4.007-22.924 4.714-8.188.408-15.01.797-15.16.865s-.273 5.528-.273 12.132v12.008zm51.322-52.714c6.616-3.499 9.262-8.889 9.262-18.867 0-6.534-.446-8.397-2.904-12.11-4.049-6.118-8.614-8.005-19.366-8.005h-8.841v41.481h8.562c6.818 0 9.523-.508 13.287-2.499z"/></g></svg>