<svg clip-rule="evenodd" fill-rule="evenodd" stroke-linejoin="round" stroke-miterlimit="2" viewBox="0 0 600 164" xmlns="http://www.w3.org/2000/svg"><g fill="#fff"><path d="m534.159 163.002c-5.968-.582-8.212-.942-12.109-1.94-8.467-2.167-16.415-6.088-22.97-11.329-2.314-1.85-6.775-6.345-8.657-8.723-6.25-7.899-10.497-17.633-12.286-28.159-1.115-6.567-1.038-2.417-1.108-59.539l-.063-52.426h123.034l-.059 53.099c-.054 49.084-.084 53.266-.39 55.31-1.278 8.528-3.238 15.062-6.431 21.431-4.73 9.436-12.518 17.811-21.671 23.303-7.649 4.59-16.254 7.504-25.469 8.623-2.279.277-10.174.511-11.821.35zm11.245-2.89c11.133-1.236 21.69-5.473 30.37-12.188 2.437-1.886 6.581-5.961 8.594-8.452 7.542-9.332 11.814-20.54 12.93-33.926.121-1.46.193-20.615.194-52.234l.002-49.927h-117.835l.061 51.753c.056 47.428.088 51.928.386 53.839 1.216 7.818 2.523 12.61 4.941 18.125 7.78 17.743 23.903 29.762 43.924 32.744 5.286.787 10.914.878 16.433.266z"/><path d="m551.308 146.93c-.4-2.559-.769-4.693-.82-4.744-.05-.051-2.18-.465-4.733-.921s-4.671-.859-4.708-.896 2.054-.271 4.646-.52c2.593-.25 4.803-.508 4.911-.575s.449-2.18.757-4.695c.309-2.515.592-4.603.629-4.641.038-.037.359 1.959.713 4.437.355 2.477.697 4.589.761 4.693.064.103 2.148.417 4.63.697s4.671.569 4.864.641c.204.077-1.525.446-4.133.881-2.466.412-4.664.813-4.884.892-.366.13-.46.558-1.05 4.773-.357 2.546-.696 4.63-.753 4.63-.056 0-.43-2.094-.83-4.652z"/><path d="m534.544 156.585c-14.871-1.099-28.332-7.912-37.982-19.227-14.22-16.674-17.007-40.523-7.031-60.169 10.771-21.211 34.106-33.047 57.584-29.207 9.152 1.497 17.426 5.121 25.007 10.954 2.397 1.845 7.603 7.089 9.444 9.513 6.193 8.158 9.886 17.197 11.149 27.294.514 4.109.274 11.354-.525 15.858-3.869 21.805-20.83 39.326-42.496 43.9-4.644.981-10.691 1.413-15.15 1.084zm9.702-2.806c4.377-.51 8.982-1.623 12.767-3.088 2.357-.912 7.237-3.329 7.358-3.645.101-.264-2.352-16.203-2.52-16.371-.052-.052-3.642-.724-7.977-1.493-4.336-.77-7.982-1.432-8.103-1.473-.122-.04 3.53-.45 8.115-.911 4.585-.46 8.361-.855 8.39-.878.061-.048 1.959-15.596 1.962-16.083.003-.38-2.075-1.578-4.226-2.437-6.837-2.731-14.068-2.145-20.138 1.632-5.228 3.253-9.017 4.25-15.395 4.052-5.595-.173-8.777-1.168-13.441-4.202-5.963-3.878-16.13-3.898-23.058-.045-.909.506-1.201.771-1.2 1.092.001.232.215 1.451.477 2.707 2.615 12.57 9.778 23.686 20.238 31.411 7.167 5.292 15.672 8.63 24.838 9.746 2.901.353 8.815.346 11.913-.014zm23.174-8.548c4.022-2.694 8.595-6.892 11.61-10.66 1.407-1.759 4.525-6.411 4.388-6.548-.05-.05-3.759.54-8.241 1.311l-8.149 1.402-1.166 8.104c-1.119 7.779-1.15 8.096-.769 7.894.219-.116 1.266-.792 2.327-1.503zm17.035-18.925c2.189-4.029 4.135-9.562 5.059-14.381.23-1.201.225-1.299-.065-1.176-1.325.566-3.823 1.326-5.465 1.663-2.617.537-8 .581-10.709.089-2.508-.456-4.891-1.158-6.972-2.055-.964-.416-1.786-.723-1.826-.683-.078.078 2.194 15.865 2.299 15.97.097.097 16.155 1.985 16.577 1.949.247-.02.615-.48 1.102-1.376zm-55.451-15.871c3.447-.469 6.057-1.419 8.889-3.232 2.787-1.785 5.512-2.917 8.664-3.599 2.042-.442 7.288-.499 9.323-.101 2.544.498 5.43 1.564 8.488 3.137 4.581 2.356 7.539 3.248 11.934 3.597 4.232.337 8.869-.396 12.149-1.92l1.691-.786.12-.875c.124-.906.166-2.936.06-2.936-.033 0-.531.228-1.105.507-3.764 1.825-8.619 2.64-13.058 2.194-5.024-.505-8.537-1.669-14.225-4.715-3.972-2.127-9.167-3.031-13.756-2.393-3.377.47-7.054 1.931-9.892 3.931-3.753 2.645-7.666 3.745-13.319 3.743-4.353-.001-7.587-.676-11.015-2.299-1.071-.507-2.483-1.286-3.138-1.73-3.412-2.318-7.963-3.449-12.96-3.222-3.764.171-7.64 1.183-10.36 2.704l-1.292.723v1.215c0 .669.05 1.466.111 1.771l.111.555 1.466-.716c5.323-2.596 12.205-3.306 18.246-1.882 2.452.578 4.436 1.428 6.811 2.918 3.159 1.98 5.249 2.78 8.718 3.333 1.937.309 5.378.345 7.339.078zm-.023-6.23c3.33-.54 5.478-1.406 8.175-3.296 2.111-1.479 5.161-2.877 7.808-3.578 2.174-.576 2.426-.601 6.206-.614 3.204-.01 4.228.055 5.478.347 2.62.611 4.493 1.343 7.833 3.06 3.194 1.642 5.946 2.676 8.794 3.306 2.22.491 7.184.602 9.322.208 2.683-.494 5.306-1.433 7.016-2.513l.769-.485v-1.439c0-.792-.046-1.439-.103-1.439-.056 0-.51.206-1.009.458-1.353.684-3.734 1.384-5.976 1.758-1.591.266-2.68.311-5.382.225-5.767-.183-9.968-1.366-15.192-4.28-3.372-1.882-6.934-2.774-11.069-2.774-5.049 0-9.056 1.245-13.276 4.127-3.396 2.318-6.247 3.151-11.328 3.31-2.768.086-3.631.04-5.645-.304-3.848-.656-7.538-2.053-10.212-3.866-1.652-1.119-3.314-1.888-5.242-2.427-1.479-.412-2.318-.511-5.042-.592-3.593-.108-5.318.097-8.457 1.004-1.801.52-5.458 2.2-5.87 2.696-.222.268-.532 2.971-.341 2.971.049 0 .774-.297 1.612-.66 3.905-1.691 7.404-2.315 12.19-2.172 5.284.158 8.207 1.041 12.624 3.815 2.826 1.774 5.889 2.853 9.386 3.306 1.459.189 5.356.104 6.931-.152zm.258-6.255c3.291-.428 5.311-1.188 7.912-2.978 4.33-2.98 8.988-4.391 14.5-4.393 4.417-.002 8.071.865 11.637 2.759 4.259 2.263 6.45 3.109 10.051 3.881 1.577.337 2.623.421 5.414.432 4.482.017 6.825-.457 10.018-2.029l1.249-.615-.123-.785c-1.374-8.752-4.667-16.546-10.022-23.719-2.189-2.933-7.152-7.899-10.074-10.079-7.939-5.927-16.663-9.345-26.391-10.339-2.904-.297-10.074-.14-12.711.277-1.057.168-2.722.486-3.7.706-1.572.355-1.778.45-1.778.818-.001.7 1.196 8.673 1.323 8.814.065.073 2.195.366 4.732.652s4.681.58 4.764.653c.083.074-1.257.367-2.979.653s-3.875.654-4.784.82l-1.654.3-.634 4.546c-.348 2.5-.687 4.652-.754 4.782-.066.13-.464-1.939-.884-4.599l-.763-4.836-4.518-.804c-2.484-.443-4.69-.841-4.901-.885s1.844-.301 4.567-.573c2.724-.271 4.991-.532 5.038-.579.107-.107 1.213-9.075 1.132-9.178-.228-.291-5.958 1.781-9.007 3.258-5.809 2.813-9.945 5.761-14.521 10.351-7.691 7.714-12.608 17.191-14.488 27.92l-.123.705 1.688-.742c6.486-2.853 14.267-3.229 20.236-.978.581.22 1.723.779 2.537 1.243l1.48.844-.098-.504c-.055-.277-.641-3.942-1.303-8.144-.663-4.202-1.241-7.674-1.286-7.717-.044-.043-3.645-.71-8.002-1.482s-7.88-1.446-7.828-1.498c.051-.051 3.696-.464 8.1-.917 4.403-.454 8.063-.891 8.133-.973.069-.081.549-3.72 1.068-8.085.567-4.778.996-7.762 1.078-7.497.076.243.626 3.815 1.223 7.937.596 4.123 1.155 7.54 1.241 7.593s3.923.526 8.526 1.051c4.604.525 8.339.985 8.302 1.022-.038.038-3.766.706-8.286 1.486s-8.275 1.509-8.344 1.621c-.218.353-2.379 15.897-2.255 16.22.161.42 3.15 1.894 5.061 2.497 3.555 1.122 7.776 1.531 11.201 1.087z"/><path d="m581.702 35.482c-.809-.078-1.869-.2-2.354-.273l-.883-.133v-2.487c0-1.368.021-2.485.048-2.483.026.002.74.129 1.585.282 2.727.492 5.266.313 6.103-.431.403-.358.446-1.446.07-1.759-.146-.121-1.324-.605-2.617-1.075-3.67-1.334-4.614-2.039-5.291-3.954-.315-.892-.406-2.969-.172-3.936.449-1.862 1.953-3.671 3.704-4.456 1.358-.61 4.114-.798 6.495-.443l1.608.239v2.499c0 2.307-.026 2.489-.337 2.356-.185-.079-1.337-.185-2.561-.235-1.809-.075-2.337-.033-2.829.221-1.167.603-1.289 1.781-.241 2.323.31.159 1.501.625 2.647 1.034 2.578.92 3.067 1.173 3.828 1.981 2.151 2.287 2.03 6.359-.26 8.717-.955.983-2.741 1.783-4.487 2.01-1.587.206-1.931.206-4.056.003z"/><path d="m505.423 35.1v-20.183h5.382v7.689h5.959v-7.689h5.382v20.183h-5.382v-8.265h-5.959v8.265z"/><path d="m526.375 14.725h5.574v20.375h-5.574z"/><path d="m535.793 35.1v-20.183h5.382v15.762h5.574v4.421z"/><path d="m549.633 14.725h5.574v20.375h-5.574z"/><path d="m486.394 35.1v-20.183h5.567c5.202 0 5.639.027 6.657.408 2.483.929 3.965 3.182 4.243 6.453.302 3.538-1.283 6.571-4.21 8.058-1.461.741-2.931 1.035-5.185 1.035h-2.074v4.229zm9.229-9.274c.972-.661 1.441-1.729 1.428-3.25-.008-1.056-.1-1.416-.527-2.061-.757-1.143-1.459-1.444-3.402-1.455l-1.634-.01-.105 7.208h1.802c1.552 0 1.89-.06 2.438-.432z"/><path d="m559.435 35.1v-20.375h5.362c4.828 0 5.487.039 6.613.387 3.089.954 4.768 3.996 4.508 8.167-.185 2.973-1.714 5.191-4.539 6.588-1.352.668-1.532.705-4.036.83-1.442.072-2.643.14-2.67.152-.026.012-.048.974-.048 2.137v2.114zm9.037-9.282c1.165-.616 1.631-1.565 1.631-3.322 0-1.151-.078-1.479-.511-2.133-.713-1.077-1.517-1.409-3.41-1.409h-1.557v7.304h1.508c1.2 0 1.677-.09 2.339-.44z"/><path d="m418.268 128.433c-3.553-.34-8.203-.879-10.334-1.199l-3.875-.581v-10.915c0-6.002.095-10.906.211-10.897s3.248.565 6.959 1.236c11.965 2.161 23.11 1.375 26.783-1.889 1.768-1.572 1.958-6.35.307-7.72-.643-.533-5.812-2.657-11.486-4.719-16.108-5.855-20.25-8.95-23.218-17.351-1.384-3.916-1.784-13.03-.759-17.277 1.972-8.167 8.574-16.107 16.259-19.555 5.96-2.674 18.053-3.499 28.504-1.944l7.053 1.049v10.969c0 10.125-.114 10.921-1.476 10.34-.812-.346-5.87-.811-11.239-1.032-7.938-.328-10.259-.147-12.418.969-5.118 2.647-5.653 7.815-1.055 10.193 1.358.702 6.586 2.745 11.618 4.54 11.313 4.036 13.457 5.146 16.795 8.694 9.443 10.036 8.911 27.907-1.138 38.255-4.192 4.316-12.029 7.826-19.691 8.821-6.968.904-8.476.905-17.8.013z"/><path d="m83.511 126.756v-88.572h23.62v33.742h26.149v-33.742h23.62v88.572h-23.62v-36.272h-26.149v36.272z"/><path d="m175.458 37.34h24.463v89.416h-24.463z"/><path d="m216.792 126.756v-88.572h23.619v69.171h24.463v19.401z"/><path d="m277.527 37.34h24.463v89.416h-24.463z"/><path d="m0 126.756v-88.572h24.431c22.83 0 24.745.117 29.213 1.789 10.898 4.077 17.402 13.966 18.624 28.318 1.322 15.53-5.631 28.837-18.478 35.363-6.41 3.255-12.863 4.544-22.756 4.544h-9.102v18.558zm40.503-40.701c4.263-2.897 6.323-7.584 6.267-14.261-.038-4.636-.442-6.213-2.316-9.045-3.32-5.017-6.401-6.334-14.93-6.386l-7.17-.043-.459 31.633h7.908c6.81 0 8.295-.263 10.7-1.898z"/><path d="m320.548 126.756v-89.416h23.53c21.188 0 24.078.169 29.021 1.696 13.557 4.187 20.926 17.538 19.784 35.843-.814 13.048-7.521 22.782-19.919 28.912-5.934 2.933-6.726 3.096-17.715 3.643-6.327.315-11.598.616-11.714.668-.116.053-.211 4.272-.211 9.375v9.279zm39.66-40.734c5.112-2.704 7.157-6.869 7.157-14.58 0-5.049-.346-6.489-2.245-9.358-3.129-4.728-6.656-6.186-14.964-6.186h-6.832v32.055h6.615c5.269 0 7.36-.393 10.269-1.931z"/></g></svg>