<?xml version="1.0" encoding="UTF-8" standalone="no"?><!DOCTYPE svg PUBLIC "-//W3C//DTD SVG 1.1//EN" "http://www.w3.org/Graphics/SVG/1.1/DTD/svg11.dtd"><svg width="100%" height="100%" viewBox="0 0 600 89" version="1.1" xmlns="http://www.w3.org/2000/svg" xmlns:xlink="http://www.w3.org/1999/xlink" xml:space="preserve" xmlns:serif="http://www.serif.com/" style="fill-rule:evenodd;clip-rule:evenodd;stroke-linejoin:round;stroke-miterlimit:2;"><g id="philips_cdi_alt"><path d="M129.413,55.809c17.903,0.423 32.217,-4.947 32.579,-11.764c-0.362,-6.426 -14.676,-11.81 -32.579,-11.765c-17.451,-0.045 -31.765,5.339 -31.689,11.765c-0.076,6.817 14.238,12.187 31.689,11.764Zm-0,-18.099c-13.032,0.166 -23.771,3.016 -23.529,6.335c-0.232,3.565 9.674,6.336 22.013,6.347l0.15,-0c0.451,-0.001 0.907,-0.005 1.366,-0.013l0.158,0.003c0.473,0.007 0.943,0.01 1.409,0.01l0.155,-0c12.665,-0.033 22.496,-2.797 22.712,-6.347c-0.225,-3.321 -10.881,-6.162 -24.276,-6.333l-0.158,-0.002Z" style="fill:#fff;"/><path d="M220.815,53.094c-11.764,11.584 -48.144,19.804 -91.402,19.91c-52.428,-0.106 -95.098,-12.941 -95.022,-28.959c-0.076,-15.641 42.594,-28.477 95.022,-28.055c42.685,-0.407 78.672,7.828 91.402,19.005l36.199,-0c-12.156,-19.668 -64.554,-34.751 -127.601,-34.389c-71.568,-0.362 -129.758,19.336 -129.411,43.439c-0.347,24.494 57.843,44.192 129.411,44.343c63.303,-0.166 115.882,-15.369 127.601,-35.294l-36.199,0Z" style="fill:#fff;"/><rect x="573.756" y="33.185" width="26.244" height="52.489" style="fill:#fff;"/><path d="M492.308,59.429l64.253,-10.86l-64.253,-10.859l-0,21.719Z" style="fill:#fff;"/><rect x="573.756" y="6.941" width="26.244" height="18.1" style="fill:#fff;"/><path d="M370.136,6.941c59.457,-0.257 107.964,14.193 107.692,38.913c0.287,24.299 -47.752,39.216 -107.692,38.914l-105.882,0l0,-77.827l105.882,-0Zm0.501,14.479c-0.163,-0 -0.324,-0 -0.486,0l-76.033,0l0,48.869l76.018,-0l0,0.015c0.324,0.001 0.646,0.001 0.97,0.001l0.484,-0.001c40.767,-0.1 73.853,-8.813 73.659,-24.45c0.21,-16.102 -33.138,-24.38 -74.128,-24.434l-0.484,-0Z" style="fill:#fff;"/></g></svg>