<svg clip-rule="evenodd" fill-rule="evenodd" stroke-linejoin="round" stroke-miterlimit="2" viewBox="0 0 600 191" xmlns="http://www.w3.org/2000/svg"><g fill="#fff"><path d="m95.64 76.432v106.867c0 5.383 2.107 7.49 7.491 7.49h46.471c14.323 0 25.938-11.615 25.938-25.938v-69.971c0-14.322-11.615-25.938-25.938-25.938h-46.471c-5.384 0-7.491 2.108-7.491 7.49zm25.968 9.489c0-3.855 3.136-6.992 6.991-6.992h20.704c7.87 0 14.252 6.383 14.252 14.253v73.368c0 7.869-6.382 14.252-14.252 14.252h-20.704c-3.855 0-6.991-3.137-6.991-6.992z"/><path d="m0 76.432v106.867c0 5.383 2.107 7.49 7.491 7.49h62.921c5.383 0 7.49-2.107 7.49-7.49v-106.867c0-5.382-2.107-7.49-7.49-7.49h-62.921c-5.384 0-7.491 2.108-7.491 7.49zm11.985 11.486c0-5.483 3.505-8.989 8.989-8.989h35.955c5.482 0 8.988 3.506 8.988 8.989v31.032c-10.826.788-13.982 7.83-13.982 11.914v42.946c0 3.855-3.136 6.992-6.991 6.992h-23.97c-5.484 0-8.989-3.506-8.989-8.989z"/><path d="m450.427 76.432v106.867c0 5.383 2.107 7.49 7.491 7.49h53.932c1.379 0 2.497-1.118 2.497-2.497v-2.497c0-2.755-4.235-4.993-6.991-4.993h-22.871c-4.465 0-8.09-3.625-8.09-8.09v-29.763c0-4.464 3.625-8.09 8.09-8.09h27.365c1.379 0 2.497-1.118 2.497-2.497v-4.993c0-1.378-1.118-2.497-2.497-2.497h-40.878c-4.974 0-8.56-3.585-8.56-8.559v-26.827c0-4.973 3.586-8.559 8.56-8.559h40.878c1.379 0 2.497-1.119 2.497-2.497v-6.991c0-1.378-1.118-2.497-2.497-2.497h-53.932c-5.384 0-7.491 2.108-7.491 7.49z"/><path d="m193.47 73.936v44.264s.969 3.357 2.197 4.296c1.478 1.148 3.435 3.245 5.812 5.243 6.233 5.223 13.843 12.334 13.963 16.03v42.985c0 2.227 1.808 4.035 4.034 4.035h15.901c2.227 0 4.035-1.808 4.035-4.035v-42.985c.12-3.696 7.73-10.807 13.962-16.03 2.377-1.998 4.335-4.095 5.813-5.243 1.228-.939 2.197-4.296 2.197-4.296v-44.264c0-2.756-2.237-4.994-4.993-4.994-2.757 0-4.994 2.238-4.994 4.994v36.953c0 6.372-23.97 21.973-23.97 21.973s-23.97-15.601-23.97-21.973v-36.953c0-2.756-2.237-4.994-4.994-4.994-2.756 0-4.993 2.238-4.993 4.994z"/><path d="m532.085 73.936v44.264s.969 3.357 2.197 4.296c1.478 1.148 3.437 3.245 5.813 5.243 6.231 5.223 13.843 12.334 13.963 16.03v42.985c0 2.227 1.808 4.035 4.035 4.035h15.9c2.226 0 4.035-1.808 4.035-4.035v-42.985c.119-3.696 7.731-10.807 13.962-16.03 2.376-1.998 4.335-4.095 5.813-5.243 1.228-.939 2.197-4.296 2.197-4.296v-44.264c0-2.756-2.238-4.994-4.994-4.994-2.755 0-4.993 2.238-4.993 4.994v36.953c0 6.372-23.97 21.973-23.97 21.973s-23.97-15.601-23.97-21.973v-36.953c0-2.756-2.238-4.994-4.994-4.994s-4.994 2.238-4.994 4.994z"/><path d="m432.69 183.299c0 5.383-2.107 7.49-7.491 7.49h-52.934c-5.383 0-7.49-2.107-7.49-7.49v-24.47c0-3.306 2.686-5.992 5.992-5.992h11.985c3.307 0 5.993 2.686 5.993 5.992v14.981c0 3.855 3.137 6.992 6.991 6.992h15.98c3.854 0 6.991-3.137 6.991-6.992v-31.96c0-3.854-3.137-6.991-6.991-6.991h-37.952c-5.484 0-8.989-3.504-8.989-8.989v-49.438c0-5.382 2.107-7.49 7.49-7.49h52.934c5.384 0 7.491 2.108 7.491 7.49v24.47c0 3.306-2.687 5.992-5.993 5.992s-5.992-2.686-5.992-5.992v-14.981c0-3.855-3.137-6.992-6.992-6.992h-29.962c-3.854 0-6.991 3.137-6.991 6.992v29.962c0 3.855 3.137 6.991 6.991 6.991h39.95c4.822 0 8.117 2.713 8.839 7.092l.11.898c.015.166.025.166.031.124.006-.041.009-.124.009-.124z"/><path d="m347.037 183.299c0 5.383-2.107 7.49-7.491 7.49h-52.933c-5.384 0-7.491-2.107-7.491-7.49v-24.47c0-3.306 2.686-5.992 5.993-5.992h11.985c3.306 0 5.992 2.686 5.992 5.992v14.981c0 3.855 3.137 6.992 6.991 6.992h15.98c3.855 0 6.992-3.137 6.992-6.992v-31.96c0-3.854-3.137-6.991-6.992-6.991h-37.952c-5.484 0-8.989-3.504-8.989-8.989v-49.438c0-5.382 2.107-7.49 7.491-7.49h52.933c5.384 0 7.491 2.108 7.491 7.49v24.47c0 3.306-2.686 5.992-5.992 5.992-3.307 0-5.993-2.686-5.993-5.992v-14.981c0-3.855-3.137-6.992-6.991-6.992h-29.963c-3.855 0-6.991 3.137-6.991 6.992v29.962c0 3.855 3.136 6.991 6.991 6.991h39.95c4.823 0 8.117 2.713 8.839 7.092l.11.898c.015.166.025.166.031.124.007-.041.009-.124.009-.124z"/><path d="m225.466 51.001c-1.915-.183-4.421-.474-5.57-.646l-2.089-.314v-5.883c0-3.236.051-5.879.114-5.874.062.005 1.75.304 3.751.666 6.45 1.165 12.458.741 14.437-1.018.953-.847 1.056-3.423.166-4.161-.347-.288-3.133-1.433-6.191-2.545-8.684-3.156-10.916-4.824-12.516-9.352-.746-2.111-.962-7.024-.409-9.313 1.063-4.403 4.621-8.683 8.764-10.542 3.213-1.441 9.732-1.886 15.365-1.047l3.802.565v5.913c0 5.457-.061 5.887-.796 5.574-.438-.187-3.164-.438-6.058-.557-4.279-.177-5.53-.079-6.694.523-2.759 1.427-3.048 4.212-.569 5.494.732.379 3.55 1.48 6.263 2.447 6.098 2.176 7.254 2.774 9.053 4.687 5.09 5.41 4.804 15.043-.613 20.621-2.26 2.326-6.484 4.219-10.615 4.755-3.756.487-4.569.488-9.595.007z"/><path d="m45.016 50.097v-47.745h12.732v18.189h14.097v-18.189h12.731v47.745h-12.731v-19.552h-14.097v19.552z"/><path d="m94.58 1.898h13.187v48.199h-13.187z"/><path d="m116.861 50.097v-47.745h12.732v37.287h13.187v10.458z"/><path d="m149.6 1.898h13.187v48.199h-13.187z"/><path d="m0 50.097v-47.745h13.17c12.306 0 13.338.064 15.747.965 5.874 2.198 9.38 7.528 10.039 15.264.713 8.372-3.036 15.545-9.96 19.063-3.456 1.755-6.934 2.45-12.267 2.45h-4.906v10.003h-11.823zm21.833-21.94c2.298-1.561 3.408-4.088 3.379-7.687-.021-2.499-.239-3.349-1.249-4.876-1.79-2.704-3.451-3.414-8.048-3.442l-3.865-.023-.248 17.051h4.263c3.671 0 4.471-.142 5.768-1.023z"/><path d="m172.791 50.097v-48.199h12.684c11.421 0 12.978.091 15.643.914 7.308 2.257 11.28 9.454 10.665 19.321-.439 7.033-4.054 12.281-10.738 15.585-3.198 1.581-3.625 1.669-9.549 1.964-3.41.169-6.252.331-6.315.36-.062.028-.113 2.302-.113 5.053v5.002zm21.378-21.958c2.756-1.457 3.858-3.702 3.858-7.859 0-2.721-.186-3.498-1.21-5.044-1.686-2.549-3.588-3.335-8.067-3.335h-3.682v17.279h3.566c2.84 0 3.967-.212 5.535-1.041z"/></g></svg>