<?xml version="1.0" encoding="UTF-8" standalone="no"?><!DOCTYPE svg PUBLIC "-//W3C//DTD SVG 1.1//EN" "http://www.w3.org/Graphics/SVG/1.1/DTD/svg11.dtd"><svg width="100%" height="100%" viewBox="0 0 600 155" version="1.1" xmlns="http://www.w3.org/2000/svg" xmlns:xlink="http://www.w3.org/1999/xlink" xml:space="preserve" xmlns:serif="http://www.serif.com/" style="fill-rule:evenodd;clip-rule:evenodd;stroke-linejoin:round;stroke-miterlimit:2;"><g id="pico-8"><path d="M377.275,103.301l0,17.222l34.412,-0l0,-17.222l-34.412,-0Z" style="fill:#fff;"/><path d="M514.417,34.832l-0,17.117l17.116,-0l0,-17.117l-17.116,-0Z" style="fill:#fff;"/><path d="M531.533,17.715l0,17.117l17.117,-0l0,-17.117l-17.117,0Z" style="fill:#fff;"/><path d="M531.533,51.917l0,17.117l17.117,-0l0,-17.117l-17.117,0Z" style="fill:#fff;"/><path d="M548.65,69.034l0,17.117l17.117,-0l-0,-17.117l-17.117,-0Z" style="fill:#fff;"/><path d="M565.767,51.949l-0,17.116l17.116,0l0,-17.116l-17.116,-0Z" style="fill:#fff;"/><path d="M582.883,34.832l0,17.117l17.117,-0l-0,-17.117l-17.117,-0Z" style="fill:#fff;"/><path d="M565.767,17.715l-0,17.117l17.116,-0l0,-17.117l-17.116,0Z" style="fill:#fff;"/><path d="M548.65,0.599l0,17.116l17.117,0l-0,-17.116l-17.117,-0Z" style="fill:#fff;"/><path d="M257.222,69.034l-51.417,-0l0,17.192l-17.221,0l-0,68.593l68.638,-0l-0,-17.222l-34.195,-0l-0,-51.341l34.195,-0l-0,-17.222Z" style="fill:#fff;"/><path d="M514.431,69.034l-68.511,-0l-0,34.281l-17.222,0l0,51.504l85.733,-0l-0,-85.785Zm-51.29,51.503l0,17.06l34.068,-0l-0,-17.06l-34.068,0Zm0,-34.281l0,17.059l34.068,0l-0,-17.059l-34.068,-0Z" style="fill:#fff;"/><path d="M274.388,154.819l68.638,-0l0,-17.222l17.222,-0l-0,-68.563l-17.222,-0l0,-0.029l-17.222,-0l0,0.029l-34.194,-0l-0,17.192l-17.222,0l-0,68.593Zm51.416,-68.563l-16.973,-0l0,51.341l16.973,-0l0,-51.341Z" style="fill:#fff;"/><path d="M120.018,86.256l0,51.341l-17.121,-0l-0,17.222l68.686,-0l0,-17.222l-17.121,-0l-0,-51.341l17.121,-0l0,-17.222l-68.686,-0l-0,17.222l17.121,-0Z" style="fill:#fff;"/><path d="M85.86,69.034l-68.638,-0l-0,17.192l-17.222,0l-0,68.593l34.443,-0l0,-34.296l51.417,-0l-0,-51.489Zm-34.444,34.267l0,-17.045l-16.973,-0l0,17.045l16.973,-0Z" style="fill:#fff;"/></g></svg>