<svg clip-rule="evenodd" fill-rule="evenodd" stroke-linejoin="round" stroke-miterlimit="2" viewBox="0 0 600 155" xmlns="http://www.w3.org/2000/svg"><g fill="#fff"><path d="m377.275 103.301v17.222h34.412v-17.222z"/><path d="m514.417 34.832v17.117h17.116v-17.117z"/><path d="m531.533 17.715v17.117h17.117v-17.117z"/><path d="m531.533 51.917v17.117h17.117v-17.117z"/><path d="m548.65 69.034v17.117h17.117v-17.117z"/><path d="m565.767 51.949v17.116h17.116v-17.116z"/><path d="m582.883 34.832v17.117h17.117v-17.117z"/><path d="m565.767 17.715v17.117h17.116v-17.117z"/><path d="m548.65.599v17.116h17.117v-17.116z"/><path d="m257.222 69.034h-51.417v17.192h-17.221v68.593h68.638v-17.222h-34.195v-51.341h34.195z"/><path d="m514.431 69.034h-68.511v34.281h-17.222v51.504h85.733zm-51.29 51.503v17.06h34.068v-17.06zm0-34.281v17.059h34.068v-17.059z"/><path d="m274.388 154.819h68.638v-17.222h17.222v-68.563h-17.222v-.029h-17.222v.029h-34.194v17.192h-17.222zm51.416-68.563h-16.973v51.341h16.973z"/><path d="m120.018 86.256v51.341h-17.121v17.222h68.686v-17.222h-17.121v-51.341h17.121v-17.222h-68.686v17.222z"/><path d="m85.86 69.034h-68.638v17.192h-17.222v68.593h34.443v-34.296h51.417zm-34.444 34.267v-17.045h-16.973v17.045z"/></g></svg>