<svg clip-rule="evenodd" fill-rule="evenodd" stroke-linejoin="round" stroke-miterlimit="2" viewBox="0 0 600 156" xmlns="http://www.w3.org/2000/svg"><g fill="#fff"><path d="m377.275 103.498v17.222h34.412v-17.222z"/><path d="m514.417 35.029v17.117h17.116v-17.117z"/><path d="m531.533 17.912v17.117h17.117v-17.117z"/><path d="m531.533 52.114v17.117h17.117v-17.117z"/><path d="m548.65 69.231v17.117h17.117v-17.117z"/><path d="m565.767 52.146v17.116h17.116v-17.116z"/><path d="m582.883 35.029v17.117h17.117v-17.117z"/><path d="m565.767 17.912v17.117h17.116v-17.117z"/><path d="m548.65.796v17.116h17.117v-17.116h-17.117z"/><path d="m257.222 69.231h-51.417l-17.221 17.193v68.592h68.638v-17.222h-34.195v-51.341h34.195z"/><path d="m514.431 69.231h-68.511v17.117l-17.222 17.165v51.503h85.733zm-51.29 51.503v17.06h34.068v-17.06zm0-34.281v17.06h34.068v-17.06z"/><path d="m274.388 155.016h68.638l17.222-17.222v-68.563h-17.222v-.029h-17.222v.029h-34.194l-17.222 17.193zm51.416-68.563h-16.973v51.341h16.973z"/><path d="m120.018 86.453v51.341h-17.121v17.222h68.686v-17.222h-17.121v-51.341h17.121v-17.222h-68.686v17.222z"/><path d="m85.86 69.231h-68.638l-17.222 17.193v68.592h34.443v-34.296h51.417zm-34.444 34.267v-17.045h-16.973v17.045z"/></g></svg>