<svg clip-rule="evenodd" fill-rule="evenodd" stroke-linejoin="round" stroke-miterlimit="2" viewBox="0 0 600 242" xmlns="http://www.w3.org/2000/svg"><g fill="#fff"><path d="m207.311 153.533c.039-.598-.313-1.152-.871-1.37s-1.192-.05-1.57.415c-6.78 8.358-13.457 12.648-20.168 12.648-1.912 0-3.911-.263-5.997-.785-2.026-.506-3.965-1.484-5.822-2.919-1.858-1.435-3.367-3.428-4.549-5.961-1.212-2.598-1.797-5.893-1.797-9.876 0-4.101.765-8.645 2.28-13.637 1.543-5.084 3.496-10.259 5.856-15.524 2.368-5.283 4.964-10.428 7.787-15.438 2.817-4.998 5.589-9.406 8.315-13.224 2.726-3.816 5.088-6.906 7.087-9.268.94-1.111 1.748-1.949 2.432-2.504.228-.186.437-.336.631-.447.118-.067.204-.14.29-.14 4.27 0 7.829.348 10.675 1.06 2.753.688 4.867 1.489 6.329 2.435 1.23.796 2.043 1.577 2.333 2.445.178.534.138.988-.219 1.345-1.864 1.864-4.055 4.379-6.572 7.548-2.491 3.137-4.983 6.46-7.475 9.966-2.5 3.519-4.814 7.083-6.944 10.694-2.149 3.644-3.829 6.962-5.043 9.952-1.289 3.173-1.85 5.759-1.751 7.742.068 1.359.55 2.354 1.331 3.033.739.642 1.795 1.026 3.208 1.026 2.822 0 5.92-1.253 9.245-3.873 3.095-2.438 6.05-5.297 8.863-8.58 2.786-3.249 5.292-6.5 7.521-9.75l.627-.915c.028-.041.053-.082.076-.125.156-.289.313-.578.471-.868 3.276-6.006 6.642-11.466 10.1-16.38 3.415-4.852 6.871-8.809 10.375-11.864 3.268-2.849 6.294-4.34 9.142-4.34 2.252 0 4.417.302 6.495.908 2.063.602 3.785 1.326 5.161 2.185 1.135.709 1.892 1.445 2.176 2.296.186.558-.199.988-.842 1.453-2.667 1.72-5.386 4.283-8.144 7.707-2.696 3.346-5.345 7.157-7.948 11.432-.373.614-.212 1.411.371 1.831s1.39.321 1.854-.227c2.017-2.383 4.4-5.179 7.15-8.388 2.713-3.164 5.697-6.193 8.952-9.086 3.221-2.863 6.665-5.279 10.333-7.247 3.557-1.909 7.33-2.864 11.321-2.864 4.55 0 8.272.592 11.16 1.817 2.807 1.191 4.946 2.576 6.392 4.192 1.375 1.537 2.241 3.146 2.564 4.844.272 1.429.228 2.572-.276 3.414-.651.637-2.436 2.285-5.354 4.945-3.172 2.892-6.532 6.667-10.077 11.331-3.542 4.661-6.761 10.16-9.651 16.499-2.924 6.414-4.39 13.392-4.39 20.937 0 4.321.47 8.595 1.409 12.821.94 4.23 2.21 8.083 3.808 11.56 1.608 3.499 3.408 6.524 5.394 9.077 2.061 2.651 4.184 4.552 6.344 5.73.292.16.632.208.957.136 11.534-2.564 22.519-4.715 32.954-6.454 10.375-1.729 19.749-2.596 28.122-2.596 15.401 0 27.77 1.659 37.102 5.011 9.153 3.288 15.753 7.427 19.752 12.493 3.884 4.92 5.545 10.178 4.941 15.788-.613 5.693-3.172 11.027-7.639 16.019-4.555 5.091-10.862 9.275-18.901 12.58-8.106 3.333-17.566 4.988-28.375 4.988-20.72 0-37.854-2.529-51.395-7.618-13.484-5.068-24.395-11.392-32.72-18.993-.399-.364-.973-.462-1.47-.249-7.702 3.301-15.497 6.602-23.383 9.903-7.851 3.287-15.656 6.163-23.416 8.628-7.751 2.462-15.41 4.468-22.978 6.018-7.52 1.54-14.813 2.311-21.879 2.311-13.914 0-25.12-1.695-33.612-5.128-8.371-3.384-14.664-7.637-18.85-12.802-4.141-5.111-6.618-10.614-7.411-16.518-.801-5.958-.54-11.516.794-16.674 1.319-5.1 3.374-9.327 6.188-12.669 2.275-2.701 4.573-4.292 6.962-4.658 1.278 4.921 3.874 9.349 7.801 13.277 3.589 3.588 8.866 6.864 15.854 9.791 6.917 2.898 16.54 4.373 28.879 4.373 9.976 0 20.691-.923 32.144-2.77 11.398-1.838 23.163-4.044 35.295-6.618.444-.094.813-.401.986-.82s.129-.897-.119-1.277c-2.678-4.105-4.761-9.51-6.279-16.203-1.534-6.77-2.305-12.952-2.305-18.549 0-9.385 1.672-18.725 5.011-28.02 3.368-9.377 7.145-17.89 11.333-25.537.319-.582.177-1.308-.337-1.728-.515-.419-1.255-.411-1.76.019-3.726 3.167-7.829 7.588-12.3 13.27-4.437 5.639-8.597 11.647-12.479 18.025-3.884 6.381-7.166 12.531-9.848 18.45-2.766 6.104-4.113 10.979-4.113 14.604 0 .494-.094.902-.358 1.199-.502.565-1.415.728-2.67.728-1.394 0-3.267-.271-5.619-.793-2.404-.534-4.807-1.292-7.211-2.271-2.332-.95-4.321-2.111-5.962-3.494-1.367-1.151-2.126-2.331-2.126-3.626 0-.391.015-.802.042-1.234zm155.458 53.25c7.972 0 13.944-.988 17.93-2.886 4.457-2.122 6.623-4.672 6.835-7.325.218-2.729-1.452-5.321-5.382-7.504-3.453-1.919-8.624-2.926-15.53-2.926-6.714 0-13.942 1.022-21.682 3.074-7.665 2.031-15.653 4.709-23.965 8.034-.526.21-.87.722-.864 1.289.005.567.357 1.073.887 1.274 5.389 2.044 11.521 3.719 18.397 5.02 6.864 1.298 14.655 1.95 23.374 1.95z"/><path d="m369.374 76.054c4.731 0 8.087 2.021 10.044 6.1 2.117 4.411 3.02 9.884 2.756 16.412-.271 6.677-1.675 13.94-4.201 21.79-2.532 7.867-5.922 15.147-10.173 21.839-4.227 6.655-9.125 12.234-14.701 16.73-5.42 4.371-11.182 6.576-17.301 6.576-2.847 0-5.279-.567-7.289-1.739-2.019-1.178-3.661-2.69-4.923-4.541-1.296-1.9-2.285-4.104-2.976-6.609-.708-2.569-1.152-5.095-1.33-7.576-.049-.688-.6-1.233-1.289-1.275-.688-.042-1.301.433-1.433 1.111-1.307 6.723-1.678 12.796-1.127 18.218-.007.556-.114 1.013-.392 1.351-.494.603-1.398.785-2.635.785-1.396 0-3.401-.317-6.018-.928-2.692-.628-5.34-1.436-7.943-2.423-2.526-.958-4.706-2.13-6.535-3.524-1.501-1.143-2.348-2.297-2.348-3.584 0-3.388 1.37-8.73 4.045-16.041 2.738-7.484 6.344-15.836 10.817-25.054 4.482-9.239 9.559-18.798 15.23-28.676 5.665-9.868 11.375-18.868 17.131-27 5.725-8.088 11.221-14.724 16.492-19.904 4.979-4.893 9.295-7.45 13.072-7.45 2.203 0 4.447.516 6.735 1.533 2.361 1.05 4.418 2.271 6.167 3.67 1.569 1.256 2.587 2.522 2.979 3.855.287.976-.292 1.723-1.433 2.412-7.834 4.48-15.53 11.274-23.077 20.406-7.482 9.052-14.272 19.028-20.369 29.928-.337.604-.174 1.364.381 1.777.556.412 1.331.347 1.811-.151 4.707-4.888 9.639-9.143 14.798-12.764 4.971-3.488 9.978-5.254 15.035-5.254zm-36.604 57.245c3.605 0 7.471-2.098 11.476-6.505 3.736-4.108 7.051-8.684 9.946-13.726 2.9-5.052 5-9.637 6.31-13.754.726-2.282.965-4.002.809-5.144-.119-.873-.454-1.506-.911-1.943-.499-.478-1.167-.76-2.034-.76-2.43 0-5.293 1.148-8.532 3.578-3.001 2.25-6.051 5.109-9.146 8.579-3.046 3.415-6.091 7.06-9.137 10.937-3.052 3.884-5.687 7.491-7.907 10.82-.215.323-.284.721-.19 1.097.425 1.701 1.319 3.248 2.701 4.629 1.405 1.405 3.591 2.192 6.615 2.192z"/><path d="m455.827 76.054c8.332.003 13.914 1.046 16.693 3.391 1.257 1.06 2.095 1.964 2.449 2.77.146.333.17.62-.057.848-2.046 2.045-4.325 4.602-6.835 7.67-2.494 3.048-5.035 6.374-7.621 9.977-2.589 3.605-4.992 7.21-7.21 10.815-2.248 3.651-3.977 6.977-5.195 9.973-1.289 3.173-1.85 5.759-1.751 7.742.068 1.359.55 2.354 1.332 3.034.738.642 1.795 1.025 3.207 1.025 2.822 0 5.92-1.252 9.246-3.873 3.088-2.433 6.084-5.287 8.985-8.562 2.878-3.249 5.476-6.497 7.796-9.745.193-.271.382-.535.566-.794.056-.078.103-.161.141-.249 1.676-3.85 3.496-7.738 5.459-11.664 4.288-8.577 9.124-16.97 14.507-25.182 5.384-8.213 10.677-15.514 15.879-21.903 5.167-6.345 10.059-11.469 14.682-15.367 4.338-3.657 7.812-5.593 10.535-5.593 2.211 0 4.507.519 6.889 1.54 2.43 1.042 4.474 2.252 6.123 3.641 1.497 1.261 2.475 2.538 2.869 3.877.287.975-.292 1.722-1.432 2.411-5.609 3.181-11.168 7.613-16.677 13.308-5.458 5.644-10.547 11.75-15.265 18.319-4.708 6.553-9 13.246-12.877 20.077-3.884 6.843-6.981 13.04-9.293 18.589-2.335 5.604-3.871 10.183-4.618 13.732-.426 2.023-.457 3.543-.191 4.555.2.76.562 1.311 1.022 1.691.494.408 1.118.642 1.891.642 2.831 0 5.889-1.257 9.124-3.886 2.999-2.436 5.857-5.246 8.574-8.431 2.699-3.165 5.118-6.376 7.258-9.633.672-1.022 1.293-1.965 1.862-2.829.041-.061.076-.126.107-.194 1.388-3.096 2.869-6.218 4.442-9.364 4.288-8.577 9.124-16.97 14.507-25.182 5.384-8.213 10.677-15.514 15.879-21.903 5.167-6.345 10.059-11.469 14.682-15.367 4.338-3.657 7.813-5.593 10.535-5.593 2.212 0 4.507.519 6.889 1.54 2.431 1.042 4.474 2.252 6.123 3.641 1.498 1.261 2.475 2.538 2.869 3.877.287.975-.292 1.722-1.432 2.411-5.609 3.181-11.168 7.613-16.676 13.308-5.459 5.644-10.548 11.75-15.266 18.319-4.708 6.553-9 13.246-12.877 20.077-3.884 6.843-6.981 13.04-9.293 18.589-2.335 5.604-3.87 10.183-4.618 13.732-.426 2.023-.457 3.543-.19 4.555.2.76.562 1.311 1.022 1.691.494.408 1.117.642 1.891.642 2.831 0 5.888-1.257 9.124-3.886 2.998-2.436 5.856-5.246 8.573-8.431 2.699-3.165 5.118-6.376 7.259-9.633 2.108-3.207 3.711-5.636 4.811-7.286.018-.026.034-.053.05-.08.469-.821 1.17-1.233 2.108-1.233.985 0 1.756.396 2.309 1.196.5.722.519 1.472.075 2.25-.019.032-.036.064-.051.098-4.206 8.96-8.366 17.143-12.48 24.548-4.091 7.363-8.134 13.637-12.134 18.818-3.948 5.115-7.846 9.113-11.704 11.984-3.672 2.733-7.289 4.132-10.876 4.132-6.398 0-10.867-1.691-13.308-5.311-2.517-3.732-3.605-8.646-3.344-14.722.004-.1.009-.2.014-.301.03-.614-.351-1.174-.934-1.371-.582-.197-1.225.017-1.573.523-1.234 1.792-2.462 3.48-3.686 5.066-3.948 5.115-7.846 9.113-11.704 11.984-3.672 2.733-7.289 4.132-10.876 4.132-6.399 0-10.867-1.691-13.309-5.311-2.367-3.511-3.469-8.069-3.375-13.656.01-.605-.376-1.145-.951-1.332s-1.205.024-1.552.519c-1.034 1.477-2.065 2.882-3.094 4.214-3.943 5.108-7.834 9.057-11.687 11.835-3.678 2.651-7.301 4.006-10.893 4.006-1.912 0-3.91-.263-5.996-.785-2.027-.506-3.965-1.483-5.823-2.919-1.86-1.437-3.373-3.388-4.556-5.839-1.209-2.505-1.79-5.749-1.79-9.723 0-.614-.407-1.154-.998-1.323-.591-.168-1.222.076-1.546.598-3.246 5.228-6.941 9.917-11.088 14.064-3.922 3.922-8.079 5.927-12.513 5.927-4.568 0-8.605-2.16-12.157-6.39-3.661-4.357-5.458-10.032-5.458-17.004 0-5.549 1.495-12.123 4.448-19.731 2.985-7.689 6.966-14.971 11.942-21.847 4.958-6.851 10.727-12.667 17.308-17.444 6.441-4.677 13.186-7.031 20.246-7.031 3.622 0 6.773.633 9.446 1.926 2.589 1.253 4.56 2.954 5.895 5.125.236.383.644.627 1.093.653.45.025.883-.17 1.161-.524 2.347-2.988 4.208-5.086 5.596-6.281.393-.339.737-.597 1.04-.767.102-.057.264-.12.297-.132zm-22.054 31.182c1.042-1.904 2.126-3.808 3.251-5.712 1.191-2.016 2.336-3.94 3.436-5.772.304-.508.25-1.153-.135-1.603-1.308-1.526-3.555-2.407-6.824-2.407-5.315 0-10.1 2.139-14.332 6.469-4.056 4.15-7.261 8.725-9.618 13.723-2.367 5.018-3.778 9.613-4.251 13.78-.263 2.308-.122 4.037.324 5.192.625 1.616 1.766 2.393 3.382 2.393 2.867 0 5.756-1.23 8.622-3.789 2.635-2.353 5.082-5.034 7.34-8.045 2.236-2.981 4.145-5.822 5.729-8.524s2.56-4.426 2.933-5.172c.083-.166.132-.348.143-.533z"/><path d="m212.076 33.08c.569-2.66.603-5.123.121-7.386-.417-2.264-1.677-4.445-3.841-6.506-2.114-2.013-5.758-3.131-10.994-3.131-9.074 0-17.869 2.914-26.376 8.774-.336.232-.552.601-.589 1.008-.038.407.108.809.397 1.098 4.981 4.981 8.543 10.628 10.678 16.944 2.155 6.375 3.23 13.155 3.23 20.339 0 9.802-2.531 18.493-7.61 26.067-5.109 7.619-11.425 13.626-18.954 18.018-7.534 4.395-15.562 7.042-24.083 7.939-8.423.887-16.094-.523-23.01-4.246-.66-.356-1.484-.117-1.851.536-4.94 8.782-10.017 17.197-15.231 25.247-5.183 8.002-10.547 15.005-16.093 21.006-5.499 5.949-11.31 10.729-17.439 14.335-6.019 3.54-12.391 5.314-19.119 5.314-9.808 0-17.661-1.616-23.546-4.916-5.827-3.266-10.209-7.272-13.123-12.039-2.902-4.75-4.439-9.984-4.615-15.701-.178-5.797.485-11.104 2.002-15.92 1.494-4.748 3.729-8.752 6.719-12.005 2.471-2.689 5.115-4.237 7.964-4.576.183.914.516 2.057 1.014 3.427.784 2.157 2.147 4.37 4.108 6.625 1.937 2.228 4.641 4.226 8.129 5.97 3.461 1.731 7.974 2.622 13.55 2.622 4.841 0 9.739-1.669 14.677-5.058 4.749-3.258 9.686-7.585 14.807-12.985 5.074-5.351 10.333-11.531 15.776-18.543 5.412-6.972 11.008-14.173 16.787-21.603 5.771-7.42 11.771-14.886 18-22.397 6.203-7.48 12.771-14.504 19.703-21.072.298-.281.454-.681.427-1.09-.028-.408-.235-.784-.568-1.023-3.418-2.469-7.546-4.423-12.389-5.847-4.788-1.408-10.467-2.12-17.039-2.12-7.755 0-14.704 1.569-20.851 4.69-6.126 3.11-11.212 6.932-15.264 11.455-4.061 4.533-7.129 9.539-9.206 15.017-2.097 5.529-2.987 10.584-2.702 15.16.296 4.724 1.835 8.703 4.59 11.951 2.803 3.303 7.079 5.027 12.884 5.027 1.431 0 1.773 1.195 1.654 3.222-.171 2.901-1.532 6.043-4.006 9.456-2.573 3.549-6.173 6.823-10.786 9.84-4.562 2.982-10.094 4.454-16.586 4.454-8.786 0-15.914-2.473-21.362-7.481-5.475-5.034-9.004-11.306-10.594-18.813-1.608-7.593-1.101-15.856 1.489-24.789 2.602-8.972 7.545-17.266 14.812-24.892 7.314-7.675 17.118-14.075 29.397-19.221 12.331-5.168 27.384-7.737 45.155-7.737 9.798 0 18.462.813 25.992 2.446 7.473 1.62 14.002 3.956 19.584 7.017.464.255 1.033.22 1.463-.089 7.059-5.067 14.434-9.096 22.126-12.082 7.642-2.967 15.779-4.448 24.41-4.448 6.934 0 12.325 1.68 16.138 5.147 3.762 3.419 5.928 7.207 6.441 11.396.502 4.104-.73 7.825-3.661 11.175-2.718 3.105-6.979 4.724-12.736 4.994zm-96.278 67.346c-.27.481-.226 1.078.112 1.515s.904.629 1.438.488c7.159-1.884 13.469-4.949 18.933-9.188 5.469-4.243 9.803-9.148 13.009-14.711 3.206-5.564 5.279-11.365 6.222-17.401.951-6.088.566-11.891-1.147-17.408-.15-.484-.554-.847-1.052-.943s-1.008.089-1.328.482c-6.461 7.938-12.646 16.845-18.554 26.721-5.877 9.827-11.755 19.975-17.633 30.445z"/><path d="m234.517 32.844c1.639 0 3.395.512 5.281 1.495 1.976 1.032 3.655 2.231 5.03 3.607 1.26 1.26 2.071 2.544 2.386 3.883.239 1.017-.074 1.879-.897 2.601-6.508 4.837-11.197 8.937-14.081 12.287-2.927 3.399-4.95 6.143-6.083 8.22-1.165 2.137-1.882 3.696-2.174 4.667-.111.37-.503.396-1.022.396-2.485 0-4.843-.755-7.08-2.246-2.152-1.434-3.103-4.113-3.103-7.938 0-2.034.799-4.523 2.325-7.49 1.615-3.142 3.546-6.193 5.79-9.156 2.219-2.929 4.615-5.417 7.189-7.459 2.359-1.87 4.487-2.867 6.439-2.867z"/></g></svg>