<svg clip-rule="evenodd" fill-rule="evenodd" stroke-linejoin="round" stroke-miterlimit="2" viewBox="0 0 600 93" xmlns="http://www.w3.org/2000/svg"><g fill="#fff" fill-rule="nonzero"><path d="m83.296 83.649v-9.065h9.111v9.065zm0-9.065v-9.296h9.111v9.296zm0-9.296v-9.25h9.111v9.25zm0 18.361v9.157h-9.25v-9.157zm-9.25 0v-9.065h9.25v9.065zm0-9.065v-9.296h9.25v9.296zm0-9.296v-9.25h9.25v9.25zm0-9.25v-9.296h9.25v9.296zm0-9.296v-9.25h9.25v9.25zm0-9.25v-9.297h9.25v9.297zm0-9.297v-9.296h9.25v9.296zm0-9.296v-9.065h9.25v9.065zm-9.296-9.065v-9.296h9.296v9.296zm9.296 73.815v9.157h-9.296v-9.157zm-9.296 0v-9.065h9.296v9.065zm0-9.065v-9.296h9.296v9.296zm0-18.546v-9.296h9.296v9.296zm0-9.296v-9.25h9.296v9.25zm0-9.25v-9.297h9.296v9.297zm0-9.297v-9.296h9.296v9.296zm0-9.296v-9.065h9.296v9.065zm-9.25-9.065v-9.296h9.25v9.296zm9.25 73.815v9.157h-9.25v-9.157zm-9.25 0v-9.065h9.25v9.065zm-9.296-73.815v-9.296h9.296v9.296zm9.296 73.815v9.157h-9.296v-9.157zm-9.296 0v-9.065h9.296v9.065zm-9.297-73.815v-9.296h9.297v9.296zm0 73.815v-9.065h9.297v9.065zm0-9.065v-9.296h9.297v9.296zm0-18.546v-9.296h9.297v9.296zm0-9.296v-9.25h9.297v9.25zm0-27.843v-9.065h9.297v9.065zm-9.065 64.75v-9.065h9.065v9.065zm0-9.065v-9.296h9.065v9.296zm0-18.546v-9.296h9.065v9.296zm0-27.843v-9.296h9.065v9.296zm0-9.296v-9.065h9.065v9.065zm-9.296 64.75v-9.065h9.296v9.065zm0-9.065v-9.296h9.296v9.296zm0-37.092v-9.297h9.296v9.297zm0-9.297v-9.296h9.296v9.296zm-9.25 55.454v-9.065h9.25v9.065zm0-9.065v-9.296h9.25v9.296zm0-27.842v-9.25h9.25v9.25zm0-9.25v-9.297h9.25v9.297zm-9.296 37.092v-9.296h9.296v9.296zm0-9.296v-9.25h9.296v9.25zm0-9.25v-9.296h9.296v9.296zm0-9.296v-9.25h9.296v9.25z"/><path d="m192.908 65.288v-9.25h9.112v9.25zm0-9.25v-9.296h9.112v9.296zm0-9.296v-9.25h9.112v9.25zm0-9.25v-9.297h9.112v9.297zm0-9.297v-9.296h9.112v9.296zm-9.25 46.389v-9.296h9.25v9.296zm0-9.296v-9.25h9.25v9.25zm0-9.25v-9.296h9.25v9.296zm0-9.296v-9.25h9.25v9.25zm0-9.25v-9.297h9.25v9.297zm0-9.297v-9.296h9.25v9.296zm0-9.296v-9.065h9.25v9.065zm-9.296-9.065v-9.296h9.296v9.296zm0 64.75v-9.296h9.296v9.296zm0-9.296v-9.25h9.296v9.25zm0-9.25v-9.296h9.296v9.296zm0-37.139v-9.065h9.296v9.065zm-9.25-9.065v-9.296h9.25v9.296zm0 64.75v-9.296h9.25v9.296zm0-9.296v-9.25h9.25v9.25zm-9.296-55.454v-9.296h9.296v9.296zm0 64.75v-9.296h9.296v9.296zm0-9.296v-9.25h9.296v9.25zm0-18.546v-9.25h9.296v9.25zm0-9.25v-9.297h9.296v9.297zm0-9.297v-9.296h9.296v9.296zm-9.296-18.361v-9.296h9.296v9.296zm9.296 73.815v9.157h-9.296v-9.157zm-9.296 0v-9.065h9.296v9.065zm0-9.065v-9.296h9.296v9.296zm0-9.296v-9.25h9.296v9.25zm0-18.546v-9.25h9.296v9.25zm0-9.25v-9.297h9.296v9.297zm0-9.297v-9.296h9.296v9.296zm-9.065-18.361v-9.296h9.065v9.296zm9.065 73.815v9.157h-9.065v-9.157zm-9.065 0v-9.065h9.065v9.065zm0-9.065v-9.296h9.065v9.296zm0-9.296v-9.25h9.065v9.25zm0-18.546v-9.25h9.065v9.25zm0-9.25v-9.297h9.065v9.297zm0-9.297v-9.296h9.065v9.296zm-9.297-18.361v-9.296h9.297v9.296zm9.297 73.815v9.157h-9.297v-9.157zm-9.297 0v-9.065h9.297v9.065zm-9.249-73.815v-9.296h9.249v9.296zm9.249 73.815v9.157h-9.249v-9.157zm-9.249 0v-9.065h9.249v9.065zm-9.297-73.815v-9.296h9.297v9.296zm0 73.815v-9.065h9.297v9.065zm0-9.065v-9.296h9.297v9.296zm0-9.296v-9.25h9.297v9.25zm0-9.25v-9.296h9.297v9.296zm0-9.296v-9.25h9.297v9.25zm0-9.25v-9.297h9.297v9.297zm0-9.297v-9.296h9.297v9.296zm0-9.296v-9.065h9.297v9.065z"/><path d="m276.204 83.649v9.157h-9.25v-9.157zm-9.25 0v-9.065h9.25v9.065zm0-9.065v-9.296h9.25v9.296zm0 9.065v9.157h-9.296v-9.157zm-9.296 0v-9.065h9.296v9.065zm0-9.065v-9.296h9.296v9.296zm0-9.296v-9.25h9.296v9.25zm0 18.361v9.157h-9.25v-9.157zm-9.25 0v-9.065h9.25v9.065zm0-18.361v-9.25h9.25v9.25zm0 18.361v9.157h-9.296v-9.157zm-9.296 0v-9.065h9.296v9.065zm0-18.361v-9.25h9.296v9.25zm0 18.361v9.157h-9.296v-9.157zm-9.296 0v-9.065h9.296v9.065zm0-18.361v-9.25h9.296v9.25zm0-9.25v-9.296h9.296v9.296zm0-9.296v-9.25h9.296v9.25zm0-9.25v-9.297h9.296v9.297zm0-9.297v-9.296h9.296v9.296zm0-9.296v-9.065h9.296v9.065zm-9.065-9.065v-9.296h9.065v9.296zm9.065 73.815v9.157h-9.065v-9.157zm-9.065 0v-9.065h9.065v9.065zm0-18.361v-9.25h9.065v9.25zm0-9.25v-9.296h9.065v9.296zm0-9.296v-9.25h9.065v9.25zm0-9.25v-9.297h9.065v9.297zm0-9.297v-9.296h9.065v9.296zm0-9.296v-9.065h9.065v9.065zm-9.296-9.065v-9.296h9.296v9.296zm9.296 73.815v9.157h-9.296v-9.157zm-9.296 0v-9.065h9.296v9.065zm-9.25-73.815v-9.296h9.25v9.296zm9.25 73.815v9.157h-9.25v-9.157zm-9.25 0v-9.065h9.25v9.065zm-9.297-73.815v-9.296h9.297v9.296zm0 73.815v-9.065h9.297v9.065zm0-9.065v-9.296h9.297v9.296zm0-9.296v-9.25h9.297v9.25zm0-9.25v-9.296h9.297v9.296zm0-9.296v-9.25h9.297v9.25zm0-9.25v-9.297h9.297v9.297zm0-9.297v-9.296h9.297v9.296zm0-9.296v-9.065h9.297v9.065z"/><path d="m359.362 83.649v9.157h-9.111v-9.157zm-9.111 0v-9.065h9.111v9.065zm0-9.065v-9.296h9.111v9.296zm0-9.296v-9.25h9.111v9.25zm0-9.25v-9.296h9.111v9.296zm0-9.296v-9.25h9.111v9.25zm0-9.25v-9.297h9.111v9.297zm0-9.297v-9.296h9.111v9.296zm0 55.454v9.157h-9.25v-9.157zm-9.25 0v-9.065h9.25v9.065zm0-9.065v-9.296h9.25v9.296zm0-9.296v-9.25h9.25v9.25zm0-9.25v-9.296h9.25v9.296zm0-9.296v-9.25h9.25v9.25zm0-9.25v-9.297h9.25v9.297zm0-9.297v-9.296h9.25v9.296zm0-9.296v-9.065h9.25v9.065zm-9.297-9.065v-9.296h9.297v9.296zm9.297 73.815v9.157h-9.297v-9.157zm-9.297 0v-9.065h9.297v9.065zm0-64.75v-9.065h9.297v9.065zm-9.25-9.065v-9.296h9.25v9.296zm9.25 73.815v9.157h-9.25v-9.157zm-9.25 0v-9.065h9.25v9.065zm-9.296-73.815v-9.296h9.296v9.296zm0 73.815v-9.065h9.296v9.065zm0-9.065v-9.296h9.296v9.296zm0-9.296v-9.25h9.296v9.25zm0-18.546v-9.25h9.296v9.25zm0-9.25v-9.297h9.296v9.297zm0-9.297v-9.296h9.296v9.296zm-9.296-18.361v-9.296h9.296v9.296zm9.296 73.815v9.157h-9.296v-9.157zm-9.296 0v-9.065h9.296v9.065zm0-9.065v-9.296h9.296v9.296zm0-9.296v-9.25h9.296v9.25zm0-18.546v-9.25h9.296v9.25zm0-9.25v-9.297h9.296v9.297zm0-9.297v-9.296h9.296v9.296zm-9.065-18.361v-9.296h9.065v9.296zm9.065 73.815v9.157h-9.065v-9.157zm-9.065 0v-9.065h9.065v9.065zm0-9.065v-9.296h9.065v9.296zm0-9.296v-9.25h9.065v9.25zm0-18.546v-9.25h9.065v9.25zm0-9.25v-9.297h9.065v9.297zm0-9.297v-9.296h9.065v9.296zm-9.296-18.361v-9.296h9.296v9.296zm9.296 73.815v9.157h-9.296v-9.157zm-9.296 0v-9.065h9.296v9.065zm-9.25-73.815v-9.296h9.25v9.296zm9.25 73.815v9.157h-9.25v-9.157zm-9.25 0v-9.065h9.25v9.065zm0-64.75v-9.065h9.25v9.065zm-9.297 64.75v-9.065h9.297v9.065zm0-9.065v-9.296h9.297v9.296zm0-9.296v-9.25h9.297v9.25zm0-9.25v-9.296h9.297v9.296zm0-9.296v-9.25h9.297v9.25zm0-9.25v-9.297h9.297v9.297zm0-9.297v-9.296h9.297v9.296zm0-9.296v-9.065h9.297v9.065z"/><path d="m424.297 56.038v-9.296h9.25v9.296zm0-9.296v-9.25h9.25v9.25zm0-9.25v-9.297h9.25v9.297zm0-9.297v-9.296h9.25v9.296zm0-9.296v-9.065h9.25v9.065zm-9.297-9.065v-9.296h9.297v9.296zm0 55.454v-9.25h9.297v9.25zm0-9.25v-9.296h9.297v9.296zm0-9.296v-9.25h9.297v9.25zm0-9.25v-9.297h9.297v9.297zm0-9.297v-9.296h9.297v9.296zm0-9.296v-9.065h9.297v9.065zm-9.25-9.065v-9.296h9.25v9.296zm9.25 73.815v9.157h-9.25v-9.157zm-9.25 0v-9.065h9.25v9.065zm0-9.065v-9.296h9.25v9.296zm0-9.296v-9.25h9.25v9.25zm0-9.25v-9.296h9.25v9.296zm0-9.296v-9.25h9.25v9.25zm-9.296-36.908v-9.296h9.296v9.296zm9.296 73.815v9.157h-9.296v-9.157zm-9.296 0v-9.065h9.296v9.065zm0-9.065v-9.296h9.296v9.296zm0-9.296v-9.25h9.296v9.25zm0-9.25v-9.296h9.296v9.296zm-9.296-46.204v-9.296h9.296v9.296zm9.296 73.815v9.157h-9.296v-9.157zm-9.296 0v-9.065h9.296v9.065zm0-46.157v-9.297h9.296v9.297zm0-9.297v-9.296h9.296v9.296zm0-9.296v-9.065h9.296v9.065zm-9.065-9.065v-9.296h9.065v9.296zm9.065 73.815v9.157h-9.065v-9.157zm-9.065 0v-9.065h9.065v9.065zm0-46.157v-9.297h9.065v9.297zm0-9.297v-9.296h9.065v9.296zm0-9.296v-9.065h9.065v9.065zm-9.296-9.065v-9.296h9.296v9.296zm0 73.815v-9.065h9.296v9.065zm0-9.065v-9.296h9.296v9.296zm0-9.296v-9.25h9.296v9.25zm0-9.25v-9.296h9.296v9.296zm-9.25-46.204v-9.296h9.25v9.296zm0 46.204v-9.296h9.25v9.296zm0-9.296v-9.25h9.25v9.25zm-9.296-36.908v-9.296h9.296v9.296zm0 36.908v-9.25h9.296v9.25zm0-9.25v-9.297h9.296v9.297zm0-9.297v-9.296h9.296v9.296zm0-9.296v-9.065h9.296v9.065z"/><path d="m516.704 83.649v9.157h-9.111v-9.157zm-9.111 0v-9.065h9.111v9.065zm0-9.065v-9.296h9.111v9.296zm0-37.092v-9.297h9.111v9.297zm0-9.297v-9.296h9.111v9.296zm0-9.296v-9.065h9.111v9.065zm-9.25-9.065v-9.296h9.25v9.296zm9.25 73.815v9.157h-9.25v-9.157zm-9.25 0v-9.065h9.25v9.065zm0-9.065v-9.296h9.25v9.296zm0-9.296v-9.25h9.25v9.25zm0-9.25v-9.296h9.25v9.296zm0-9.296v-9.25h9.25v9.25zm0-9.25v-9.297h9.25v9.297zm0-9.297v-9.296h9.25v9.296zm0-9.296v-9.065h9.25v9.065zm-9.297-9.065v-9.296h9.297v9.296zm9.297 73.815v9.157h-9.297v-9.157zm-9.297 0v-9.065h9.297v9.065zm0-18.361v-9.25h9.297v9.25zm0-9.25v-9.296h9.297v9.296zm0-9.296v-9.25h9.297v9.25zm0-9.25v-9.297h9.297v9.297zm0-9.297v-9.296h9.297v9.296zm-9.249-18.361v-9.296h9.249v9.296zm9.249 73.815v9.157h-9.249v-9.157zm-9.249 0v-9.065h9.249v9.065zm0-18.361v-9.25h9.249v9.25zm0-9.25v-9.296h9.249v9.296zm0-18.546v-9.297h9.249v9.297zm0-9.297v-9.296h9.249v9.296zm-9.297-18.361v-9.296h9.297v9.296zm9.297 73.815v9.157h-9.297v-9.157zm-9.297 0v-9.065h9.297v9.065zm0-18.361v-9.25h9.297v9.25zm0-9.25v-9.296h9.297v9.296zm0-18.546v-9.297h9.297v9.297zm0-9.297v-9.296h9.297v9.296zm-9.296-18.361v-9.296h9.296v9.296zm9.296 73.815v9.157h-9.296v-9.157zm-9.296 0v-9.065h9.296v9.065zm0-18.361v-9.25h9.296v9.25zm0-9.25v-9.296h9.296v9.296zm0-18.546v-9.297h9.296v9.297zm0-9.297v-9.296h9.296v9.296zm-9.065-18.361v-9.296h9.065v9.296zm9.065 73.815v9.157h-9.065v-9.157zm-9.065 0v-9.065h9.065v9.065zm0-18.361v-9.25h9.065v9.25zm0-9.25v-9.296h9.065v9.296zm0-18.546v-9.297h9.065v9.297zm0-9.297v-9.296h9.065v9.296zm-9.296-18.361v-9.296h9.296v9.296zm9.296 73.815v9.157h-9.296v-9.157zm-9.296 0v-9.065h9.296v9.065zm-9.25-73.815v-9.296h9.25v9.296zm9.25 73.815v9.157h-9.25v-9.157zm-9.25 0v-9.065h9.25v9.065zm-9.296-73.815v-9.296h9.296v9.296zm0 73.815v-9.065h9.296v9.065zm0-9.065v-9.296h9.296v9.296zm0-9.296v-9.25h9.296v9.25zm0-9.25v-9.296h9.296v9.296zm0-9.296v-9.25h9.296v9.25zm0-9.25v-9.297h9.296v9.297zm0-9.297v-9.296h9.296v9.296zm0-9.296v-9.065h9.296v9.065z"/><path d="m600 83.649v9.157h-9.111v-9.157zm-9.111 0v-9.065h9.111v9.065zm0-9.065v-9.296h9.111v9.296zm0-9.296v-9.25h9.111v9.25zm0-9.25v-9.296h9.111v9.296zm0-9.296v-9.25h9.111v9.25zm0-9.25v-9.297h9.111v9.297zm0-9.297v-9.296h9.111v9.296zm0 55.454v9.157h-9.25v-9.157zm-9.25 0v-9.065h9.25v9.065zm0-9.065v-9.296h9.25v9.296zm0-9.296v-9.25h9.25v9.25zm0-9.25v-9.296h9.25v9.296zm0-9.296v-9.25h9.25v9.25zm0-9.25v-9.297h9.25v9.297zm0-9.297v-9.296h9.25v9.296zm0-9.296v-9.065h9.25v9.065zm-9.296-9.065v-9.296h9.296v9.296zm9.296 73.815v9.157h-9.296v-9.157zm-9.296 0v-9.065h9.296v9.065zm0-36.907v-9.25h9.296v9.25zm0-27.843v-9.065h9.296v9.065zm-9.25-9.065v-9.296h9.25v9.296zm9.25 73.815v9.157h-9.25v-9.157zm-9.25 0v-9.065h9.25v9.065zm-9.297-73.815v-9.296h9.297v9.296zm0 73.815v-9.065h9.297v9.065zm0-9.065v-9.296h9.297v9.296zm0-9.296v-9.25h9.297v9.25zm0-9.25v-9.296h9.297v9.296zm0-18.546v-9.297h9.297v9.297zm0-9.297v-9.296h9.297v9.296zm-9.296-18.361v-9.296h9.296v9.296zm9.296 73.815v9.157h-9.296v-9.157zm-9.296 0v-9.065h9.296v9.065zm0-9.065v-9.296h9.296v9.296zm0-9.296v-9.25h9.296v9.25zm0-9.25v-9.296h9.296v9.296zm0-18.546v-9.297h9.296v9.297zm0-9.297v-9.296h9.296v9.296zm-9.065-18.361v-9.296h9.065v9.296zm9.065 73.815v9.157h-9.065v-9.157zm-9.065 0v-9.065h9.065v9.065zm0-9.065v-9.296h9.065v9.296zm0-9.296v-9.25h9.065v9.25zm0-9.25v-9.296h9.065v9.296zm0-18.546v-9.297h9.065v9.297zm0-9.297v-9.296h9.065v9.296zm-9.296-18.361v-9.296h9.296v9.296zm9.296 73.815v9.157h-9.296v-9.157zm-9.296 0v-9.065h9.296v9.065zm-9.25-73.815v-9.296h9.25v9.296zm9.25 73.815v9.157h-9.25v-9.157zm-9.25 0v-9.065h9.25v9.065zm-9.296-73.815v-9.296h9.296v9.296zm0 73.815v-9.065h9.296v9.065zm0-9.065v-9.296h9.296v9.296zm0-9.296v-9.25h9.296v9.25zm0-9.25v-9.296h9.296v9.296zm0-9.296v-9.25h9.296v9.25zm0-9.25v-9.297h9.296v9.297zm0-9.297v-9.296h9.296v9.296zm0-9.296v-9.065h9.296v9.065z"/></g></svg>