<svg clip-rule="evenodd" fill-rule="evenodd" stroke-linejoin="round" stroke-miterlimit="2" viewBox="0 0 600 216" xmlns="http://www.w3.org/2000/svg" xmlns:xlink="http://www.w3.org/1999/xlink"><clipPath id="a"><path clip-rule="evenodd" d="m300.322 127.168s-3.938 9.172-6.472 12.329c-2.965 3.694-9.806 4.937-12.458 7.111-3.277 2.687-4.625 9.796-10.647 8.169-6.373-1.721-8.601-5.76-12.125-10.602-3.04-4.176-5.094-3.199-4.839-8.188.166-3.255 2.721-7.389 4.185-10.321.553-1.109 3.961-6.347 2.861-6.402-6.717-.336-11.829 11.949-15.876 16.524-2.72 3.076-7.343 8.518-11.623 8.915-1.839.17-3.548-1.108-5.384-1.306-.74-.08-4.926 6.963-5.102 7.122-1.157 1.045-8.221 4.178-9.707 4.455-8.323 1.552-11.227-3.93-11.659-11.845-.14-2.568 1.633-6.653 2.568-8.752.356-.8 2.065-2.344 1.189-2.344-1.794-.001-6.452 4.062-7.721 4.78-.639.361-1.745.377-1.911 1.091-.139.598 2.154-.979 1.773-.498-2.452 3.09-9.92 5.337-13.769 6.489-4.539 1.36-9.281 3.522-13.942 4.575-1.121.253-2.28.305-3.427.372-1.972.115-6.377-1.749-5.924.174 5.364 22.751 21.688 66.687 21.688 66.687h287s1.354-45.987 0-68.921c-.08-1.352-7.105-.108-8.628-.111-4.746-.012-9.501-1.578-13.709-4.026-3.577-2.081-5.978-13.391-7.051-16.879-.36-1.168-.528-2.213-.512-3.452 0-.011.431-1.476.424-1.457-1.148 2.857-2.115 4.862-3.96 7.796-.353.562-5.2 9.871-8.302 12.712-3.54 3.24-4.031 1.908-8.609 2.967-2.12.49-2.741 3.413-4.399 4.822-4.091 3.478-4.232 3.112-9.467 3.207-.936.017-7.206 7.482-11.363 7.276-5.036-.248-2.711-4.216-7.562-5.758-1.974-.628-3.976 1.166-5.993 1.636-6.494 1.511-8.12 5.737-15.457 5.576-1.683-.036-1.692 3.06-3.094 3.991-3.754 2.491-9.437 2.059-12.252-2.138-3.5-5.22 1.199-12.484 3.111-16.961.62-1.452 5.028-10.955 5.76-12.378 2.394-4.656 7.492-15.634 7.756-16.355.122-.332 3.277-7.276 5.878-10.651.224-.291 6.93-12.055 9.908-17.724.671-1.279-2.89-.117-4.333-.046-1.582.078-6.131.104-6.9 1.346-4.119 6.653-8.736 13.154-12.969 19.792-5.529 8.669-9.45 18.077-16.02 26.098-3.849 4.7-4.409 10.174-9.196 14.341-2.484 2.162-3.238.293-5.995 2.186-4.91 3.373-4.463 4.256-10.36 5.092-1.839.26-1.778 3.387-3.241 4.531-1.388 1.086-3.168 1.802-4.926 1.921-6.319.424-8.224-5.034-8.943-9.917-1.293-8.771 3.323-19.166 6.831-26.784 1.628-3.536 3.095-7.17 4.949-10.587.37-.681 3.661-4.929 2.584-4.899-7.218.197-9.966 9.674-12.638 15.219zm168.678-57.912v-68.793h-350v21.524s5.368 21.21 10.082 31c.723 1.503 4.128-5.448 4.647-6.364 1.518-2.673 6.674-4.763 10.969-3.44 3.599 1.108 4.997 5.723 7.245 7.943 3.731 3.683 6.108 2.004 6.745 7.844.546 5.002-4.15 10.401-.277 15.698.534.73 6.93-4.065 9.135-5.516 1.533-1.009 7.389-4.444 8.165-4.827 3.344-1.649 8.714-4.924 12.491-5.549 12.541-2.072 42.18-2.814 39.153 17.185-.162 1.072-1.756 1.799-1.544 2.861.298 1.485 8.916.027 10.848-.829.874-.388 4.788-8.252 4.822-8.293.835-1.005 2.508-1.008 3.382-1.978 2.305-2.556 4.219-6.264 8.026-7.272 1.408-.373 2.905.385 4.36.315 4.006-.193 7.043-2.901 11.417-.776 9.014 4.379 8.998 14.641 8.081 22.876-.145 1.302-1.743 2.528-1.231 3.734 1.306 3.077 7.99-8.352 8.97-9.528 2.854-3.426 1.881-3.86 4.165-7.577 5.089-8.286 15.731-13.559 25.384-12.015 5.712.913 8.121 3.221 11.245 7.586.549.766 1.838-.425 2.75-.664 3.911-1.026 11.501-1.279 15.936-2.684 2.582-.818 3.09-4.59 5.295-6.163.828-.591 10.999-5.973 12.895-5.955 5.668.053 4.669 7.175 8.838 9.187 3.466 1.673 7.693-.425 11.54-.321 9.254.251 9.051 1.399 16.293.779 1.784-.152 1.771-3.116 2.763-4.608 3.868-5.814 8.44-14.045 16.855-11.453 3.599 1.108 4.997 5.723 7.245 7.943 3.731 3.683 6.109 2.004 6.746 7.844.307 2.813-3.156 7.18-.505 10.259.029.034 4.086-3.085 4.306-3.134 5.044-1.117 7.06-5.729 11.852-7.505 1.557-.578 7.636 2.018 9.035 2.899 3.92 2.469 11.876 7.767 11.876 7.767z"/></clipPath><g fill="#fff"><path d="m535.247 144.18.097-.141c.113-.164.234-.322.414-.432.103-.251.206-.586.412-.753l.103-.419c.103.335.515-.251.618-.168l-.103.168c0 .167.309-.084.309-.084l.309-.084c0 .252-.412.419-.618.587l-.103.251c-.103.084-1.338 1.005-.927 1.005l-.926 1.005c-.103.335-.515.67-.824.921-.206.251-.309.586-.309.921-.72.586-1.235 1.507-1.853 2.177l.103.168c0 .921-2.471 2.261-2.471 3.433l.309-.083.103-.503 1.442-1.005c.103-.251.823-1.34 1.235-1.34l.515-.335v-.251l.823-1.088.103-.419.824-.419-.618 1.172v.252l-.618.921.103.167-.514.168.103.251c0 .168-.103.419-.309.503l.103.335-.927.67.103.418c0 .503-1.029 1.508-1.544 1.759v.419c-.412.251-1.339 1.423-1.544 1.758l.308.586c-.205.335-.72.838-.72 1.173l-.824 1.172.103.168c0 .335-.515.67-.823.837l-.206.503c.103.083.206.167.308.167.309 0 .412-.335.618-.502l.103-.335c1.133-.67 1.441-1.759 2.471-2.429.206-.335.309-.67.412-1.005.206-.167.926-.837 1.235-.837s-.206.753-.206.837l.515.251 1.235-.251-.205.67-.412.335c0 .168-.412.419-.515.503l-.103.67c-.618.837-1.338 2.177-1.75 3.098h.103c.618 0 .926-1.507 1.544-1.759.206-.167.515-.502.309-.753.412-.251.618-.838.926-.921l.103.251-.823 1.34c-.412.251-.515.502-.309.921l-.721 1.089.103.167c0 .168-.514.586-.72.754l-.412 1.005c-.103.083-.309.251-.309.418l.103.168 1.029-.586.412-.503.103-.502c.103-.21.245-.398.406-.576l1.042-1.026c.161-.178.302-.366.405-.576 0-.083.721-.753.927-1.004l-.103.418c-.309.084-.412.335-.309.586-.309.503-2.059 2.764-1.853 2.932-.412.418-.412.921-.927 1.339l-.103.335.103.084c.618 0 .927-.67 1.03-1.005.412-.251 1.132-1.172 1.338-1.507l.309-.168c1.338-1.675 2.059-4.019 4.221-5.192.103-.167.309-.419.309-.586l1.132-.754v-.418c.103-.084.206-.335.206-.419.618-.251 1.442-1.256 1.853-1.759 0-.167.309-.335.412-.419l1.133-1.591s.514-.251.412-.335v-.083c0-.168.205-.419.411-.503l.206-.67c.412-.419.927-.921 1.236-1.424 0-.251.206-.502.411-.669l-.103-.168c.515-.419.824-.837 1.545-1.172.103-.168.309-.419.309-.67l1.441-.922v-.502c.721-.921 1.647-1.842 2.471-2.68 0-.251.309-.419.514-.502.412-.67.824-1.424 1.442-2.01.206-.084.412-.251.412-.419 0-.251.308-.502.514-.67l.309-.837c.515-.419 1.236-1.089 1.442-1.675.308-.168 2.162-3.266 2.162-3.35.205-.084.72-.419.617-.67.103-.251 3.295-3.936 4.015-4.69 0-.335.824-1.675 1.03-1.926.206-.084.206-.167.206-.335 0-.586.72-1.172 1.338-1.423 0-.335.309-.587.618-.754l-.103-.335c.206-.335 1.338-1.591 1.647-1.842 0-.252.309-.587.515-.754l.206-.754-.103-.084c0-.167.926-.921 1.132-1.005.206-.502.412-1.004.927-1.339l.618-1.089.823-.67c-.206-.168-.206-.419-.206-.586v-.252c.18-.146.321-.293.457-.439l.116-.126c.136-.146.277-.293.457-.439-.103-.084-.103-.252-.103-.335 0-.503.515-1.34.72-1.843-.823-.251.103-.67.103-1.005s-.308-1.088-.823-1.088l-.927.418-.103-.083-.206-.084.206-.251c.103 0 .412 0 .412-.084 0-.251-.309-.419-.515-.503 0 .335-.514.587-.926.587l-.515-.67c-.309 0-.618.083-.927.167l-.514-.586-.824-.084-.206-.167v-.168c-.309 0-.206.503-.412.503l-.206-.587c.103-.753.618-1.34 1.133-1.926l-.721-.335c-.206.168-.412.252-.72.252-.206 0-.206-.168-.206-.335l-.618-.084-.618.084c-.309-.084-.72 0-.72.335l.308.167-.308.251c0-.502-.824-.084-.824-.837l.824-.419c.514 0 .411-.335 1.029-.335.103.084.206.335.412.335.103 0 .103-.67.103-.837 0-1.257.721-1.089 1.853-1.089.309 0 1.338 0 1.338-.335h1.545l.411-.921-1.441.586c-1.235 0-.515-.67-.515-1.089 0-.335-.617-.502-.72-.67.514-.335 1.75-.083 2.265 0 .514-.083 1.544-.083 1.338-.753h.618c0-.084.206-.335.309-.335s.103.251.103.335c.411.167.926.335 1.441.335.309 0 .515-.084.515-.335 1.029 0 1.853-.335 2.676-.335l.824-.67h1.647c.927-.754 4.015-1.256 5.148-1.256l.617-.335c-.205-.252-.617-.335-.926-.335-.824 0-2.574.67-3.5.67l-.412-.335c-.103 0-1.647 0-1.647-.335 0-.084.205 0 .308 0l1.545-.67c.514 0 .411-.335.411-.67 0-.168.103-.252.309-.252l.515-.837h.412c.309 0 .823 0 .823-.335l.618-.419h.412c.412 0 .515-.167.515-.502.309-.084 2.676-.419 2.676-.754 0-.084-.411-.084-.514-.084-1.133 0-2.162.335-3.295.335-.72.503-1.956.335-2.779.335l-.206.335h-1.853l-.412.335-1.133-.167-.309-.838h2.471c2.162-.837 4.942-1.507 7.31-1.926.206-.084.618-.084.618-.335.72 0 .823-.335 1.338-.335h1.441c.103 0 .515 0 .515-.083 0-.084-1.03-.168-1.441-.168-1.133 0-2.368.084-3.501.251l-.514.335h-1.545l-.823-.335c.206-.167.72-.418.72 0 .412 0 2.78-.418 2.78-.921l1.441.084.927-.335c.206 0 .618-.084.618-.335l.411.335c.103-.251.412-.335.721-.335l1.235-.67h7.31c-.515-.921-4.633-1.005-5.971-1.005v.084c0 .251-.515.251-.721.251h-7.515c0 .586-2.059.335-2.368.335 0 .586-2.677.335-2.883.335l-.72.335c-3.398-.084-6.898.251-10.399.251l-1.029.419-1.441-.084c-.618.335-1.751.419-2.471.419l-.618.251c-1.441 0-2.883.335-4.427.335 0 .335-1.956.251-2.162.251-.103.168-2.059.586-2.676 1.005-1.236 0-2.471.335-3.81.335-.103.419-1.235.419-1.647.419l-.206.251h-1.75c0 .503-1.132.251-1.441.251-.103.168-2.059.67-2.574 1.005-.721 0-1.441.335-2.162.335l-.412.335c-.309 0-1.544-.083-1.544.335h-1.03l-.103.251h-.926l-.412.335c-.724 0-1.357.203-1.985.418l-.251.086c-.628.215-1.261.418-1.985.418l-.309.335h-.617c-.309 0-.412.083-.412.335-.412 0-1.236-.168-1.236.335l-.823-.084c-.309 0-.412.167-.412.419-.515 0-.515-.419-.309-.67-.103-.084-.412-.168-.412-.335 0-.168 1.133-.084 1.133-.503h.206c.308 0 .617-.084.617-.335l.824-.67.926-.084.618-.837c-.206-.167-.412-.502-.412-.754 0-.335 3.089-1.005 3.913-1.591 0-.335.411-.502.411-.921l.721-.419c1.132 0 1.235-.921 2.162-.921.721-.335 1.441-.67 2.265-.921l1.235-1.34.721-.251c.309-.251.721-.335 1.132-.335l.515-.67h.721l.103-.084-.309-.084-.927-.083c0 .502-6.28 2.847-7.515 4.103-.206-.167-.515-.502-.515-.754 0-.167.206-.167.309-.167l4.221-1.675c.618 0 .103-.586 1.132-.586.721-.335 1.442-1.005 2.368-1.005 1.236-.67 2.574-1.173 3.913-1.675 0-.251.308-.168.514-.168s.309-.167.309-.335l1.133.168c0-.419 1.544-.837 1.956-.921l.823-.586c.103 0 1.442-.587 1.442-.67l.617-.252c.361 0 .663-.083.936-.209l1.525-.921c.274-.126.576-.21.937-.21l1.338-.67c0-.251.412-.251.618-.251.72 0 .72-.335 1.338-.335.412-.251 2.162-.753 2.162-.921h.515c.309-.419 1.441-.837 1.956-1.005.824 0 1.544-.335 2.368-.335.412-.251.926-.586 1.441-.586.103-.251.412-.335.721-.335 0-.251.515-.335.72-.335.103-.251.515-.335.824-.335l.206-.67-.412-.167c4.324-1.005 3.912.083 3.912-2.178 0-.502.515-1.088 1.133-1.256.206-.251.309-.586.309-.921 0-.251-.103-.419-.412-.335 0-.419-1.339-.419-1.75-.419.206-.084 2.573-.67 2.573-1.005h-.206c-1.029 0-2.573.586-3.603.838-.103-.084-.309-.168-.515-.168-1.132 0-2.367.503-3.5.503-.618 0-.926-.754-1.544-.587l-.309-.251-.618.168.309-.754h.206c.309 0 .412.167.824.084l.514.251c2.471-.67 4.736-1.591 7.207-2.177.309-.084 2.059-.419 2.059-.754v-.084c-.721.168-5.251 1.424-5.765 1.424-.515 0-.721-1.173-1.339-1.173-1.029 0-2.573.67-3.5.922l-.412-.587c-.823.168-7.515 2.513-7.618 2.513s-.103-.084-.103-.084c0-.251.103-.503.103-.754l.72-.335.721.503c.412-.754 3.089-1.173 3.912-1.34v-.084c0-.502 3.604-1.089 3.912-1.172v-.084c0-.168.206-.335.412-.419.206-1.088 8.648-2.512 10.707-3.015.206-.083.721-.167.721-.418.309-.084.72-.335.823-.587 1.442-.167 3.295-.335 4.633-.753l.412-.419-.309-.586c-4.015.921-9.368 2.68-13.486 2.68l-10.296 2.177-.308-.084c-.824 0-2.059.503-2.883.67-.721.168-5.456.503-5.251 1.256-2.676 1.173-6.485 1.927-9.471 3.015l-.412-.251c0-.084 0-.251-.206-.251-.309 0-.72.251-.926.418-.309 0-.618.084-.824.252-.721.418-1.544.921-2.368 1.005-.412.335-.926.67-1.441.67-.103.251-.515.335-.824.335-.103.251-.514.251-.72.251-.103.251-.515.335-.824.335l-.618.502c-.514 0-1.956.251-1.956.754-.926 0-.926.67-1.75.67-.515.335-1.029.67-1.544.921-.103.251-.515.335-.824.335l-.618.503v.083c-.102.084-.411 0-.514.168l-1.03.335-1.029 1.005-.721.167s0-.167-.103-.167c-.206 0-.309.335-.412.418v.084c0 .251-.412.335-.617.335l-.309.67c-.103.168-.927.419-1.236.921h-.206c-.308 0-.514.084-.514.335-.721.586-1.648.921-2.368 1.591h-.206c-.309 0-.515.084-.515.335-.721 0-1.235.838-1.647 1.257-.412 0-.309.167-.309.418 0 .168-.206.252-.412.252 0 .418-.412.418-.823.334 0 .754-.927.503-1.545.419l-1.647 1.173c-.309.418-.926 1.256-1.544 1.256 0 .335-.412.502-.412.921l-.721.335c0 .335-1.544 1.926-1.75 1.926-.515 0-.103.838-1.029.754l-1.647 1.172c0 .168-.046.304-.113.424l-.496.66c-.067.12-.112.256-.112.424l-.515.083c-1.338 1.005-2.883 2.596-3.809 3.853 0 1.005-1.75 1.507-2.059 2.679-.618.335-1.544 1.089-1.544 1.759l-.721.419c0 .419-.412.586-.412 1.005-.309.251-.412.586-.412.921-.411 0-.411.084-.411.335 0 .167-.103.251-.309.251l-.824 1.759c-.309.251-.412.502-.412.837-.412 0-.412.168-.412.419 0 .167-.102.251-.308.251 0 .419-.309 1.843-.927 1.843 0 .67-.721 1.172-.721 1.842-.514.502-.72 1.256-.823 1.926l-.309.335c0 .503.206 1.507-.412 1.926l-.412.754c0 1.34-.411 2.512-.411 3.768-.927.754-.412 6.365-.412 7.537 0 .754.823.838.823 1.759 0 .335-.206 1.424.412 1.507.206.587.515 3.685 1.853 3.685l.824.67c.618 0 2.677 2.596 3.603 2.596l1.03.586c.72 0 1.235.67 1.647 1.005.309 0 .823 0 1.132.252.515 0 .515.335.927.335l.824.335c2.161 0 2.882 1.256 4.529.67.206.167.927.67.927.083 1.132-.335.412.503 1.235.503.206 0 .309.084.309.251l1.03.419c2.059 0 4.735.335 7 .335.412 0 1.133-.168 1.442-.335h1.956c0-.419.617-.251.926-.251.206 0 .309-.084.309-.252l.721-.418h.515c.308 0 1.132 0 1.132-.335.515-.587 1.647-.084 2.162-.67h.824l.309-.335c1.235 0 .411-.922 2.367-.922.412 0 1.03 0 1.03-.418l.412-.503 1.544-.67c.618 0 1.544-.335 1.544-.921 1.853-.754 3.604-1.759 5.148-2.847.309 0 .412-.335.412-.503l.411-.251c.412 0 .309-.335.721-.335l1.544-1.089-.72-.67.72-.418 1.545-1.005c.206-.084 1.132-.419 1.132-.586 0-.084-.103-.084-.103-.084-.103-.084-.206-.335-.412-.335-.103 0-.103.335-.103.335l-1.75.67-.618.586h-.205c-.309 0-.618.084-.618.335-.103.167-.309.419-.618.419-.103 0-.103-.252-.103-.335.309-.335.721-1.005 1.339-1.005l.617-.67h.206c.309 0 .515-.084.515-.335.309-.251.927-.251 1.338-.251l1.442-.503c.308-.251.823-.754 1.338-.754.309 0 .309.252.309.419-.206.251-.618.503-.515.838l-.515.251-.411-.168c-1.03 1.089-2.368 2.931-3.604 3.685l.206.168-.103.083h-.515l-.103.419c-.514.251-1.029.67-1.441 1.005l-.926.251-.103.168c0 .418.926.418 1.235.418l.206.335c-.103.084-.309.335-.309.419l.103.084.824-.754-.721-.167.103-.168 1.544-.335-.412.419c.206.167-.205.419-.308.502l-.103.67c-.721.503-1.648 2.01-2.265 2.597l.103.167c0 .502-1.236 1.089-1.03 1.424-.309.251-1.956 2.512-1.956 2.847.103 0 .206-.084.309-.168l.206-.586 1.75-1.256c.103-.502.618-.921 1.03-1.256-.103-.168.308-.335.514-.335l.618-.419v-.335c.412-.418 1.029-1.256 1.132-1.842l.927-.503-.721 1.424c.103.419-.617.838-.309.921l-.411.503v.083l-.618.335-.103.587c-.515.586-.824 1.34-1.338 1.926l-.721.167c-.103.335-.412.67-.721.838v.167l-.411.251c-.103-.083-.309-.251-.515-.251-.412 0-1.03.335-1.03.67s-1.132.754-.103.754c-.411.335-.514.837-1.029 1.089 0 .251-.412.502-.618.586l.206.167c0 .168-.515.084-.618.084l-.103.167c0 .084.515.084.618.084h.309c.18-.11.301-.268.415-.432zm-245.153-60.816-.058.062c-.069.072-.151.136-.331.136l-.927 1.508c-.514 0-.206.921-.206 1.172 0 .921-.926-.167-.926 1.34 0 .335-.309.503-.309.838l-1.235 1.088-.515 2.345c-.309.335-.618.838-.618 1.256-.515 0-.515.503-.412.754l-1.132.251c0 .921-3.398.754-4.015.754l-4.942.084-1.441 1.005c-2.677 0-5.663.753-8.236.586l-.206.335-1.133-.251c-.926.251-2.162.586-3.191.586-.309 0-.412-.084-.412-.335.824 0 .206-2.178.927-2.178.823 0 1.029-.418 1.029-1.005l.412-.669c.515 0 .515-.754.412-1.005l.411-.587c.412 0 .309-.167.309-.418 0-.168.206-.252.412-.252 0-.335.309-1.507.824-1.507 0-.419-.721-.419-1.03-.335-.103-.084-.206-.335-.412-.335-.411 0-.514.67-.514 1.005-.618 0-.412.586-.412.921l-1.133 1.591.206.922c-.103.251-.206 1.088-.617 1.088-.206 0-.515-.251-.721-.419-.206.67-1.853 3.015-2.471 3.602 0 .083 0 .586-.206.586-.412 0 .103-1.34-.926-1.089 0-.586.411-1.089.72-1.591 0-.084 0-.251.206-.251s.515.251.618.418c0 .084 0 .252.206.252s.515-.252.618-.419c0-.168-.103-1.173.411-.921 0-.503-.411-.503-.411-.921l1.338-1.257.824-1.926c.102.084.205.251.308.251.309 0 .103-1.004.618-1.507 0-.586 1.03-.67 1.235-1.256l.309-1.005.412-.586c0-.084 0-.419.206-.419.309 0 .206 1.005.206 1.089 0 .251-.103.586-.412.753l-.309.754 1.133-.167.926-.503c.206 0 .309-.084.309-.251 0-.251.103-.335.412-.335l.721-1.675c.411-1.089 1.544-2.177 1.544-3.35 0-.084-.103-.167-.206-.167-.103-.084-.206-.251-.412-.251s-.206.334-.206.418l-.309.586h-.411l-.515.252c-.721 0-.309 1.005-1.03 1.005 0 .083 0 .335-.103.335s-.308-.252-.308-.335c.103-.335.514-1.005 1.029-1.005l.206-1.005c.206-.251.412-.419.721-.586l.411-.838c.103-.084.412-.251.412-.335 0-.251-.617-.167-.823-.167-.412 0-.412-.252-.412-.503 0-.314.181-.573.373-.828l.077-.102c.193-.256.373-.514.373-.828l.618-.587v-.167c0-.251.103-.503.515-.503l.309-1.591c-.618 0-.103-.502.103-.67-.309-.167-.412-.502-.412-.753-.103-.084-.412-.252-.412-.335 0-.168.309-.168.412-.168l.412-.921-.824-.419-.206-.837c-.515 0-.72-.335-1.338-.335 0-1.256-1.544-1.424-1.544-2.261 0-.084 0-.587-.103-.587-.309 0-.515.922-1.03.922l-.824-.67c-.102.251-.514.335-.823.335v.586c-.515.084-1.133-.084-1.647-.251 0 .335-.721 1.34-.721.67h-1.544c-.309.167-.412.502-.412.753l-1.235.168c0-.586-.412-.251-.618 0-.206-.251-.515-.586-.515 0-.515 0-.515-.586-.412-.838.103-.083.309-.167.309-.335 0-.167-.412-.167-.515-.167l-.617.67c-.721 0-.412 1.34-1.545 1.34-.308.167-.206.753-.206 1.005 0 .335-.102.586-.514.586 0 .754-.824 1.172-.824 1.842h-.618c-.308 0-.617.084-.617.419l-.515.586c-.618 0-.927.335-1.441.335 0 .419-.412.503-.824.335l.309.921c.103 0 .206 0 .206.084 0 .251-.309.419-.515.586-.618 0-.309 1.591-1.132 1.591-.927 1.089-1.648 2.345-2.368 3.518 0 .335-.412.335-.412.753-.206.252-.309.587-.309.922-.412 0-.412.251-.824.251 0 .636-.586 1.033-.769 1.594-.178-.002-.335-.003-.466-.003v.084c0 .251-.515.251-.721.251h-7.515c0 .586-2.059.335-2.368.335 0 .586-2.677.335-2.883.335l-.72.335c-3.398-.084-6.898.251-10.398.251l-1.03.419-1.441-.084c-.618.335-1.75.419-2.471.419l-.618.251c-1.441 0-2.882.335-4.427.335 0 .335-1.956.251-2.162.251-.103.168-2.059.586-2.676 1.005-1.236 0-2.471.335-3.81.335-.103.419-1.235.419-1.647.419l-.206.251h-1.75c0 .503-1.132.251-1.441.251-.103.168-2.059.67-2.574 1.005-.721 0-1.441.335-2.162.335l-.412.335c-.309 0-1.544-.083-1.544.335h-1.03l-.103.251h-.926l-.412.335c-.386 0-.746.058-1.094.144l-2.033.634c-.347.086-.708.144-1.094.144l-.309.335h-.617c-.309 0-.412.083-.412.335-.412 0-1.236-.168-1.236.335l-.823-.084c-.309 0-.412.167-.412.419-.515 0-.515-.419-.309-.67-.103-.084-.412-.168-.412-.335 0-.168 1.133-.084 1.133-.503h.206c.309 0 .617-.084.617-.335l.824-.67.927-.084.617-.837c-.206-.251-.412-.502-.412-.754 0-.167 3.089-1.005 3.913-1.591 0-.335.411-.502.411-.921l.721-.419c1.132 0 1.235-.921 2.162-.921.721-.335 1.441-.67 2.265-.921l1.235-1.34.721-.251c.309-.251.721-.335 1.132-.335l.515-.67h.721l.103-.084-.309-.084-.927-.083c0 .502-6.28 2.847-7.515 4.103-.206-.167-.515-.502-.515-.754 0-.167.206-.167.309-.167l4.221-1.675c.618 0 .103-.586 1.133-.586.72-.335 1.441-1.005 2.367-1.005 1.236-.67 2.574-1.173 3.913-1.675 0-.251.308-.168.514-.168.309 0 .309-.167.309-.335l1.133.168c0-.419 1.544-.837 1.956-.921l.823-.586c.103 0 1.442-.67 1.442-.67l.617-.252c.676 0 1.148-.294 1.607-.607l.184-.125c.459-.313.931-.608 1.607-.608l1.338-.67c0-.251.412-.251.618-.251.72 0 .72-.335 1.338-.335.412-.251 2.162-.753 2.162-.921h.515c.309-.419 1.441-.837 1.956-1.005.824 0 1.544-.335 2.368-.335.412-.251.926-.586 1.441-.586.103-.251.412-.335.721-.335 0-.251.515-.335.72-.335.103-.251.515-.335.824-.335l.206-.67c-.412 0-.618-.251-.515-.586-.206 0-2.882.167-2.882-.251.411-.252.823-.419 1.338-.419l.927-.419.514-.502c-.103-.419-.103-1.256-.926-1.173l-1.75-.753h-2.883l-.309-.335h1.75l-.309-1.005h-2.573c-.206-.252-.721-.335-1.03-.335l-.824-.252c-.514.335-1.75.084-2.059.587h-2.676c.103-.084.412-.252.412-.419 0-.168-.309-.168-.412-.168l-.824.252-1.029-.168-.412-.754c-.412.335-.927.67-1.442.67-.205.168-.617.252-.926.252 0-.587-.824 0-.824-.587l.412-.586.515-.083c0-.252.515-.335.721-.335h.308c0-.084-.308-.168-.308-.168l-1.236-.167c-.309.418-.618.335-1.132.335-.515 0-2.368 1.004-2.986 1.339-.206 0-.721 0-.824.252-.308 0-1.956.418-1.956.67-.27 0-.501.064-.727.136l-.193.062c-.226.073-.457.137-.727.137l-.309-.335h-1.029c0 .67-.824 0-.824.586l-.412-.168c.412-.418 1.956-.837 2.574-1.088 0 0 .309 0 .309-.084 0-.168-.309-.251-.412-.335 0-.084 0-.251-.206-.251-.309 0-.72.251-.926.418-.309 0-.618.084-.824.252-.721.418-1.544.921-2.368 1.005-.412.335-.926.67-1.441.67-.103.251-.515.335-.824.335-.103.251-.514.251-.72.251-.103.251-.515.335-.824.335l-.618.502c-.514 0-1.956.251-1.956.754-.926 0-2.779 1.591-3.294 1.591-.103.251-.515.335-.824.335-.412.586-1.441.838-2.162 1.089-.309.083-1.647 1.172-.72 1.172l-.721.67c-.309 0-.618.084-.721.335l-1.029.335v.084c0 .251-.412.251-.618.251l-.618.586h-.206c-.308 0-.514.084-.514.335-.721.586-1.647.921-2.368 1.591h-.206c-.309 0-.515.084-.515.335-.72 0-1.235.838-1.647 1.257-.412 0-.309.167-.309.418 0 .168-.206.252-.412.252 0 .418-.411.418-.823.334 0 .754-.927.503-1.545.419l-1.647 1.173c-.309.418-.926 1.256-1.544 1.256 0 .335-.412.502-.412.921l-.721.335c0 .251-1.647 1.926-1.75 1.926-.617 0-.103.838-1.029.754l-1.647 1.172c0 .168-.045.304-.113.424l-.495.66c-.068.12-.113.256-.113.424l-.515.083c-1.338 1.005-2.882 2.596-3.809 3.853 0 1.005-1.75 1.507-2.059 2.679-.618.335-1.544 1.089-1.544 1.759l-.721.419-.412 1.005c-.309.251-.412.586-.412.921-.411 0-.411.167-.411.419 0 .167-.103.167-.309.167l-.824 1.759c-.309.251-.412.502-.412.837-.411 0-.411.168-.411.419 0 .167-.103.251-.309.251 0 .419-.309 1.843-.927 1.843 0 .167-.045.324-.112.476l-.496.89c-.067.151-.113.308-.113.476-.514.502-.72 1.256-.823 1.926l-.309.335c0 .503.206 1.507-.412 1.926l-.412.754c0 1.34-.411 2.512-.411 3.768-.927.754-.412 6.365-.412 7.537 0 .754.823.838.823 1.759 0 .335-.206 1.424.412 1.507.206.587.515 3.685 1.853 3.685l.824.67c.618 0 2.677 2.596 3.603 2.596l1.03.586c.72 0 1.235.67 1.647 1.005.309 0 .824 0 1.132.252.515 0 .515.335.927.335l.824.335c2.162 0 2.882 1.256 4.529.67.206.167.927.67.927.083 1.132-.335.412.503 1.235.503.206 0 .309.084.309.251l1.03.419c2.059 0 4.736.335 7 .335.412 0 1.133-.168 1.442-.335h1.956c0-.419.618-.251.926-.251.206 0 .309-.084.309-.252l.721-.418h.515c.309 0 1.132 0 1.132-.335.515-.587 1.647-.084 2.162-.67h.824l.309-.335c1.235 0 .411-.922 2.367-.922.412 0 1.03 0 1.03-.418l.412-.503 1.544-.67c.618 0 1.544-.335 1.544-.921 1.853-.754 3.604-1.759 5.148-2.847.309 0 .412-.335.412-.503l.411-.251c.412 0 .309-.335.721-.335l1.544-1.089-.72-.67.72-.418 1.545-1.005c.206-.084 1.132-.419 1.132-.586 0-.084-.103-.084-.103-.084-.103-.084-.206-.335-.412-.335-.103 0-.103.335-.103.335l-1.75.67-.617.586h-.206c-.309 0-.618.084-.618.335-.103.167-.309.419-.618.419-.103 0-.103-.252-.103-.335.309-.335.721-1.005 1.339-1.005l.617-.67h.206c.309 0 .515-.084.515-.335.309-.251.927-.251 1.338-.251l1.442-.503c.309-.251.823-.754 1.338-.754.309 0 .309.252.309.419-.103.084-.412.251-.412.335 0 .419.721.503 1.133.503l.926-.67c.309 0 .721-.084.824-.335l2.471-1.926c.308 0 .411.167.411.418l-.103.252c-.308.418-.823.753-1.338.921-.927 0-1.029 1.34-1.853 1.34-.309.502-.927.921-1.647.921-.618.419-.618 1.005-1.648 1.005l-.411.586c-.618.167-1.236.586-1.648 1.005h-.926c-.721.754-1.956 1.172-2.78 1.926l-.926.251-.103.168c0 .335.617.418.926.418 0 .084 0 .168.103.168.206 0 .309-.335.412-.419.721 0 1.544-.586 2.162-.586.412-.335.824-.754 1.338-1.005.618 0 1.236-.335 1.648-.586.72 0 .926-1.34 1.647-1.34.618 0 2.779-1.926 3.294-1.926 0-.503 2.574-2.094 3.192-2.261 1.647-1.005 3.397-2.178 4.633-3.518 0-.353.361-.54.746-.718l.154-.071c.385-.177.747-.365.747-.718.617-.754 1.544-1.34 2.368-1.926 0-.335.411-.586.823-.67.309-.419.309-1.34 1.133-1.34l.72-.837c0-.252.103-.503.412-.587 0-.586 1.647-.753 1.647-1.423l1.545-1.173c0-.67.823-.837.823-1.423l.824-.587c.412 0 .309-.251.309-.418 0-.168.103-.252.309-.252l.048-.062c.408.121.686.302.569.649.309 0 .721-.084.824-.335 1.956-.168 3.706-.335 5.662-.252l-.72.252c-.206.251-.721.67-.824.083l-1.853.587c-.721 0-.824.837-1.647 1.005-.206.083-2.368.502-2.368.753 0 .252 1.441.168 1.647.168.721-.251 1.544-.586 2.368-.586.926 0 .309 1.926 1.132 1.926v1.591c-.308.084-.411.335-.411.586-.412.419-1.133 1.089-1.133 1.591-1.029.754-1.441 1.926-1.956 2.931 0 .252-.721 1.675-.824 1.759l-.823 1.424c0 .753-.824 1.172-.824 1.842-.515.502-.823 1.089-1.132 1.675 0 .67-.309 1.424-.309 2.261-.721 0-.412.754-.412 1.089-.515.502-.309 1.507-.824 1.758 0 .419-1.132 2.01-1.235 2.261l-.309 1.675c-.309.168-.412.503-.412.754-.206.335-.514.754-.823 1.005 0 .67-.412 1.005-.412 1.424-.721 0-.309.418 0 .586-.103.251-1.544 2.01-.824 2.01-.103.167-.308.502-.308.753 0 .419.308.587.308 1.005l-.617.503.309.419-.618.753-.206.921.824.084v-.67l.205.67-.617.754c0 .084.309.502.309.502.103 0 .103-.083.103-.167.514.084.72-.251.72-.586.721-.587 1.647-1.173 2.059-2.01 0-.335.309-1.005.721-1.005.309 0 .412-.168.412-.419.823-1.172 2.676-3.266 3.088-4.522 0-.586 1.236-.586 1.236-1.34l.72-.837.103.837c-.412.167-2.059 2.345-1.235 2.345-.309.586-.824 1.088-.824 1.675l-.309.67c-.103.083-.411.251-.411.418 0 .168.205.168.308.168l.103.837c-.309.168-.72.503 0 .503l.309.586c0-.754.824-1.089.824-1.759.309-.418.72-.837.823-1.256l.412-.167c.309-.419.721-1.005.721-1.508 0-.67 1.235-.753 1.235-1.423.206-.252.515-.587.824-.754 0-.251.103-.586.412-.67l.617-.837c.206 0 .618 0 .721-.252l.927-.335.617-.67c.103.084.206.335.412.335s.206-.335.206-.418c.309 0 .412-.419.412-.587l1.132-1.507h.206c.309 0 .618-.084.618-.419.309-.167.412-.502.412-.753.309-.503.72-1.005 1.132-1.424 0-.503 1.236-.586 1.75-.586h.206c0 .921-.823.67-1.544.418 0 .294-.051.597-.129.906l-.566 1.874c-.077.309-.129.612-.129.905-.308.168-.308.586-.308.838.617.251 1.338.67 1.853 1.088h.411c0-.67 0-.67.824-.67 0 .168-.206 1.675.412 1.675l.412-.67h.206c.72 0 .411-.921.926-1.256 0-.335.515-.419.824-.419l.823-1.423c0-.754 1.133-.503 1.133-1.005l.412-.754c.308-.167.411-.586.411-.837l.515-.419v-.084c0-.335.206-.586.721-.586l.721-.586v.167c0 .251.102.419.411.419l.721-.502v-.67l-.412-.168.412-1.089h.206c.309 0 .618-.083.618-.418l.926-1.257c-.206-.083-.515-.334-.515-.502 0-.167.206-.167.309-.167l.515-.838c0-.67-.618-.502-1.235-.502.308-.168.411-.587.411-.922l.824-.502 1.132.167c.412-1.088 1.133-2.428 1.133-3.601.206-.502.721-.921 1.235-1.172 0 .084 0 .335.103.335.309 0 .309-.502.309-.586.515-.754 1.133-1.508 1.544-2.261l.824-.503c0-.084 0-.502.309-.502.103 0 .103.251.103.335-.927.67-1.441 2.177-1.647 3.182h-.721l-.412.837c0 .587-.412 1.089-.412 1.675 0 .168.103.754.412.754.412 0 .309-.754.309-.921 0-.251.103-.419.515-.419l.72-1.591c1.03-.754 2.059-2.764 2.265-3.852-.103 0-.206 0-.206-.084s.412-.251.515-.251c.309 0 .721-.084.927-.335h.515l.308-.335h1.03l.309-.335h.926l.309-.251c3.5 0 6.486-1.34 10.089-1.34.824 0 5.148-.419 3.913-1.173.308-.167.72-.418 0-.418 0-.084 0-.252-.103-.252-.206 0-.206.838-.515.838-.206 0-.515-.252-.618-.419-.206 0-1.441-.167-1.441-.251 0-.335 1.441-.838 1.441-.251 2.368 0 4.736-.838 7.207-.838.411 0 .617.168.617.503l-.514.753c-.309 0-.824.084-.824.335l.309.586c-.206.503-.927 2.01-.927 2.597l-.411.251v.67c-.515.418-.721 1.088-.824 1.675-.103 0-.824 1.507-.824 1.591-.309.251-.412.586-.412.921l-.308.586c0 .503-.515 1.34-1.133 1.34 0 .251-.103.67-.412.838v1.172l-.823.251v1.005l-1.133 1.926-.103 1.173c-.617.335-1.338 1.423-1.544 2.01 0 .586-1.956 4.689-2.368 4.773l-.412 2.094-1.132 1.34v.502c0 .251.309.251.515.251.72 0 .617-.084.617-.586l.412-.419v-.586h.309c.412 0 .412-.167.412-.502.412-.168.823-.503.823-.922l.515-.837c.206 0 .309.084.309.251 0 .503-.515 1.089-.824 1.508.206.083.412.251.412.418 0 .084-.309.084-.412.084 0 .754-.823 1.256-.823 2.177 0 .252.103.419.412.419 1.029 0 .823-.251.823-.921l.824-.419c0-.335.103-.753.412-.921l1.029.251c.103 0 .309-.083.309 0 0 .168-.824.335-.927.335v1.843c0 .251 0 .753-.411.753l-.412.67c-.103.084-.412.252-.412.419 0 .168.206.168.309.168 0 .251-.103 1.926.515 1.926.206.167.72.67 0 .67 0 .67 0 .67.823.67.412 0 .309-.168.309-.419 0-.168.103-.251.309-.251-.309-.084.824-.335.927-.335v-.922l1.132-1.591c0-.251-.103-.502-.412-.251v-.251c0-.084.309-.586.309-.586.103 0 .103.251.103.251l.824.586.308.754 1.236-.084v-.754l.412-.335c0-.083 0-.418.103-.418.309 0 .411.67.411.837 0 .168-.102.419-.411.419 0 .084-1.236 3.852-1.648 3.852 0 .921-.411 1.759-.411 2.764l.411-.084c0-.335.412-.503.412-.838.309-.083.412-.418.412-.67 0-.753 1.133-1.339 1.544-2.009l.412-2.01c.515 0 2.265-1.926 2.265-2.178 0-.083 0-.753.206-.753s.206.418.206.502l1.029.503c.618 0 1.236-.419 1.751-.67.102 0 .411 0 .411-.168 0-.251-.206-.502-.411-.67l-.103-1.088c-.309 0-.309-.252-.309-.419 0-.754.514-1.256 1.132-1.843 1.544 0 2.471.419 2.471-.921.721 0 .309-1.34.927-1.34 0-.418.205-1.842.823-1.842.309-.503.824-1.005 1.339-1.34 0-1.089 1.235-.586 1.235-1.591l.412-.67c1.029 0 .823-1.759.823-2.261l.412-.586c.412 0 .309-.168.309-.419 0-.168.206-.251.412-.251l-.103-.67.618-.587c.103 0 .411 0 .411.168 0 .167-.308.419-.514.502 0 .252-.721 2.01-.824 2.094 0 .335-.412.502-.412.837 0 .252.103.67.412.838-.721 0-.721 1.34-.721 1.675.721 0 .721-1.256.721-1.675l.824-.586c0-.084 0-.335.103-.335.308 0 .308.418.308.502l-.617.754v.167c0 .335-.206.503-.618.503l-.618 1.926-.514.502c.308 0 .411.335.411.503.206 0 .309.084.309.167 0 .335-.515.67-.72.922 0 .251-.103.586-.412.67 0 .251-.103.586-.412.67l-.618 1.339.103.67c.721 0 .824-.502.927-1.005l.72-.251c0-.251 0-1.423.412-1.507 0-.67.412-2.01 1.133-2.01.103-.335.412-1.675.926-1.675 0-.335.103-.67.309-.921 0-.251.103-.67.412-.838l.824-1.674.72-1.675c.103-.168.927-3.183 1.544-3.183l.824-1.675c.309-.251.412-.586.412-.921.515 0 .412-.335.412-.586 0-.335.411-.502.411-.921l.412-.335v-.67l1.133-1.591c.412-.251 1.956-2.178 1.956-2.513l.412-.753.823-1.424c0-.586.412-.754.412-1.172l.618-.922.617-.335h1.03l.206-.251h.926l.309-.335 2.574-.418c0-.419 1.133-.587 1.544-.587.206-.167.309-.502.309-.753l-.72-.503c-.412 0-.721-.084-1.03-.335h-1.338c.514-.251 1.235-.67 1.853-.67.515-.754.926-1.507 1.75-2.093l.824-.168c0-.419 1.441-.67 1.853-.67.514-.251 1.235-.586 1.853-.586l.309-.335h.926l.412-.251c.721 0 4.427-.838 4.53-1.173-.309-.167-.618-.167-.927-.167-.617 0-.617.335-1.132.335l-.515.335h-1.544l-.824.335c-.515 0-2.059-.168-2.368.335h-2.573l.823-.67c.515 0 1.441-.503 1.441-1.005h-.308c-.412 0-.412-.168-.412-.419l-.412-.67c1.647-.167 3.5-.921 5.148-1.256.411-.084 3.397-.419 3.397-.837.309 0 .824-.084 1.029-.335.824 0 5.972-.587 6.075-.922.205 0 1.029 0 1.029-.251l-.103-.084h-1.544c0-.586-1.133-.335-1.544-.335-1.133 0-2.265-.167-3.295.335l-.515-.335h-1.956l-.309.335c-1.235-.083-2.676-.083-3.912.168l-.926-.168-.309.335h-.927c-.103.084-.308.335-.411.335-.206 0-.206-.167-.206-.251-1.03.251-2.059.251-3.192.251-.103 0-.72 0-.72-.083l.411-.67c.309-.168.412-.587.412-.838l.412-.251v-.754c.515 0 .412-.586.412-.837l.001-.033c.178-.025.376-.004.514.033 0-.838 1.75-.586 2.367-.586 0-.503 2.677-.335 3.089-.335l2.574-.084c.206-.251.617-.335.926-.335 0 .084 0 .335.103.335s.309-.251.309-.335h1.956c-.103-.084 0-.335.206-.335h.721l.103-.084.926-.167.309.251.515-.67h.721c0-.586 2.985-.335 3.294-.335.412 0 .927-.335 1.132-.586h4.839c.309 0 .721-.084.824-.335l1.75-.168.412.503c-.309.251-.412.586-.412.921l-.721.335c0 .67-.823.921-.823 1.591-.515.67-1.236.67-1.236 1.675h-.412c-.411 0-.308.335-.308.502l-.412.67c0 .67-.824 1.005-.824 1.675l-1.132 1.591c0 .587-.824.838-.824 1.508-.515.67-2.368 3.015-2.368 3.685 0 0 0 .083.103.083-.103-.251.309-.335.515-.335l-.206.335-.103 1.005c-.412 0-.412.084-.412.419 0 .167-.206.167-.412.167 0 .252-.102.587-.411.754 0 .251-1.545 1.256-1.545 2.178-.308.167-.617.335-.823.586 0 1.256-1.647 2.512-1.647 4.103l-.309.335c0 .251-.103.586-.412.67l-.412.754c0 .754-.823 1.675-.823 2.512-.618 0-2.471 3.518-2.471 4.104-.412 0-.412.167-.412.418 0 .168-.206.252-.412.252 0 .251-.103.67-.412.837 0 .335-.103.67-.309.921 0 .335-.411.503-.411.838-.181.063-.277.167-.332.293l-.161.837c-.054.126-.151.231-.331.293-.206.587-.515 1.089-.824 1.592 0 .67-.206 1.423-.72 2.009 0 .335-1.236 1.508-1.236 3.518l-.103.083h-.514c0 .67-.309 1.089-.412 1.675h-.103c-.618.754-.721 1.592-1.133 2.345l-.308.251c0 .419.308 2.429-.412 2.68 0 .147-.079.261-.168.372l-.077.094c-.088.111-.167.225-.167.372l-.515.586-.309 1.089-.411.335v.753l-.412.335c0 .67-.309 1.173-.309 1.759-.309.419-.618 1.005-.618 1.507-.618 0-.103.335.103.503l-.618.502.309.67c-1.029.838 0 1.675 0 2.178l-.412.335c0 .67.412.921.412 1.256l-.823.67c0 1.005.103 1.842-.412 2.763v.586l.412.252c0 .418-.927 2.763 0 2.763.514-.418.72-2.512 1.235-2.763l.309-1.089c0-.084.206-.586.309-.586s.103.419.103.502l.823-.167c.618-.503.103-1.34.824-1.759 0-.586-.412-1.424.412-1.424.617 0 .309-.837.72-1.172 0-.502.824-1.172 1.442-1.172.309-1.005 0-1.508.926-2.178 0-.586.515-2.596 1.647-2.596 0 0 0 .335.103.335.206 0 .206-.419.206-.502h.206c.412 0 .618-.252.618-.587l1.029-1.758c.618 0 .309-1.34.927-1.34l.721-1.172c-.103.586-.412 1.172-.412 1.758-.618 0-1.236 2.345-1.236 2.764.206.335.618.418.927.418.103-.083.412-.67.618-.67.412 0-.103 1.005-.309 1.173l.206 1.089h.72v.167c0 .168-.205.251-.411.251 0 .252-.103.67-.412.838-.206.586-.412 1.172-.721 1.675 0 .293-.079.57-.167.845l-.077.236c-.089.275-.168.552-.168.845l-.823.753v.922c.206.167.412.335.617.335.412 0 0-.838 0-1.005.824 0 .927-.838.927-1.34.309-.251.412-.586.412-.921.412 0 .412-.168.412-.419 0-.168.103-.168.308-.168.412-.837 1.133-1.507 1.648-2.344.309-.168.412-.587.412-.838.411-.502.617-1.089.823-1.675l.515-.335.206-.586.412-.335v-.754l.411-.67c0-.418.412-.753.412-1.256 0-.251.103-.502.412-.502v-.335l.618.418-.309.587c0 1.088-.618 2.763-1.03 3.684.103 0 .309.168.206.335l-.309.587c.103.251.103.837-.411.837 0 .419.617.251.926.251 2.059 0 .309 1.34 1.544 1.34l1.133-.335c0-.921 1.544-2.596 1.544-3.266.309-.251.309-.67.309-.921 0-.502.412-.502.412-.921 0-1.591 1.853-1.508 1.853-3.266.103-.503.824-1.173 1.235-1.591 0-.419.412-.419.412-.922.618-.502.309-1.004.309-1.591l.103-.418.309-.084.412-.503.206-.921c.102 0 .411-.167.308-.251l.515-.168c.103-.669.412-1.926.927-2.512 0-.754.514-.084 1.029-.084.103 0 .309 0 .309-.167l-.927-1.34c.206.167.412.251.618.251s.206-.586.206-.753c0-.252 0-.838-.412-.838l-.103-.754.618-.837c.721 0 .618-.084.618-.586l.412-.084c0 .586.823 0 .823.67l-.515-.084c-.308 0-.72.084-.72.335-.103.084-.412.168-.412.251 0 .084.412.084.412.084 0 .335 1.029.838 0 1.508 0 .251.309 1.004.617 1.004.206 0 .206-.251.206-.335.515-.334.206-1.256.824-1.339l.412-.335v-.67l.412-.754c-.103 0-.309-.168-.309-.251 0-.084.309-.084.412-.084l.308-.754c.206-.167.309-.586.309-.837l-.72.251c-.412 0-1.236-.167-1.236.335l-.412-.335c.618 0 .618-.586.515-.921h.103c.309 0 .618-.084.618-.419l-.412-.419-.824-.083c.824 0 0-.67.721-.67l2.471-2.848s.206 0 .206-.083c0-.084-.721-.335-.824-.419.309-.335.721-.754.824-1.173l.412-.251c.308-.502.205-1.423.72-1.758.103-.587.309-1.257.721-1.759 1.235 0 .412-1.591 1.235-1.591l.412-1.005c.309 0 .412-.084.412-.335s.206-.251.412-.251v-.335c0-.252.206-.335.514-.335l1.03-.586s0-.419.103-.419c0 0 .206.586.206.67l-.721.67c0 .418-.412.753-.412 1.172l-.823-.251-.721.754c0 .586.412.837.824 1.256l-.412-.335c-.412 0-.515.419-.412.67-.515 0-.309.418-.103.586.103.754.618 1.926-.618 1.926-.514.838-.926 1.759-1.338 2.596-.206.084-.926.335-.309.335l-1.75 2.931-1.132.168c0 .251.411 1.256.411.335h.309c.412 0 .412.167.412.502l.721.419v-.921c.617 0 1.956-2.513 2.162-3.015-.206-.168-.412-.335-.412-.586 0-.168.206-.168.309-.168l.823-.335.515-.67c0-.251.103-.586.412-.67.309-.418.515-.837.721-1.34.926-.586.72-4.103 1.441-4.103s.618-.168.618-.67c0-.251.103-.586.411-.754 0-.502.618-.921 1.133-1.172l.206-.921.514-.587c.721 0 1.236-1.172 1.236-1.591.515-.335 1.029-.921 1.132-1.507 0-1.591 3.398-4.187 3.398-5.444.617 0 .412-.753.412-1.088.205-.168.72-.503.103-.503 2.47-1.423 1.956-3.684 3.397-5.024h.206c.412 0 .618-.168.618-.503.308-.167.308-.502.308-.754l.412-.586c.309-.167.412-.586.412-.837l.412-.503.412-.167c0-2.345.308-2.429 2.779-2.429l.824-.335c1.75-.083 2.677-.418 4.324-.418.309-.503 1.956-.335 2.471-.335.617-.67 5.559-.335 6.589-.335 0-.503 1.544 0 1.853 0l.823-.587c.515 0 .515.335 1.133.335 1.338 0 3.294-.67 4.941-.586l.618-.502c0-1.173 4.015-.503 5.045-.503l.412-.335.823.084c.309 0 .412-.168.412-.419 0-.418-1.03-.418-1.338-.335-.515-.335-1.133-.335-1.751-.335-.308 0-.411 0-.411.252 0 .083-.206.083-.309.083l-.618.335h-3.397l-1.545-.502 1.236-.168.617-.335c.412 0 1.648.252 1.648-.335v-.335l-.824-.251c0 .503-.412.251-.618 0h-.308c-.309 0-.618.084-.618.335-.412.335-8.545.586-10.192.586 0-.837 1.441-.586 2.059-.586l1.75-.335c.412-.335.926-.754 1.544-1.005-.412-.419-1.235-.335-1.75-.335-.309 0-.515 0-.515.251 0 .084-.103.084-.206.084-.926 0-1.853.335-2.779.335-.618-.502-1.648-.335-2.471-.335-.412 0-3.089.754-3.089 0h2.574c0-.502 3.089-.335 3.192-.335.72 0 2.676-.167 2.676-.837v-.084h-1.441c-.206 0-.824 0-.824-.084l.309-.083 1.339-.168c0-.084 0-.419.205-.419.206 0 .412.335.515.419l.515-.67h4.839c.411-.251.926-.419 1.441-.586h4.633c0-.084 0-.335.206-.335.411 0 .72.419 1.132.419.309 0 .309-.252.309-.419l-.412-.503-1.029.168c-.412-.084-.927-.084-1.339-.251 0-.335.309-.503.721-.419 0-.503 1.956-.335 2.368-.251l1.647-.67c.802 0 3.008-.13 5.002-.115l-.369.533c.103.168.206.335-.103.503-.309.335-.927.502-1.03 1.089.206.251 0 .502-.308.67 0 .67-.824 1.842-1.339 2.344.206.084.206.252.103.335l-.412.252c-.103 0-.206 0-.308-.084-.103.586-.412 1.675-.927 2.763-.412.419-.618 1.005-.721 1.592l-.309.502-.514.67c0 .147-.079.261-.168.372l-.077.094c-.088.11-.167.225-.167.371l-.721 1.089-.412.251-.411.67c-.412 0-.412.084-.412.335 0 .252-.309.252-.515.252 0 .167 0 .586-.103.921l-.309.753c-.103.084-.206.168-.206.252h-.103c0 .083-.103.251-.103.335 0 .083-.102.167-.205.167 0 .251 0 .419-.103.67 0 .084-.103.168-.103.251l-.412.252c-.309.502-.721.921-.721 1.507-.103 0-.823 1.34-.823 1.507-.515 1.173-1.133 2.345-1.956 3.35 0 .168 0 .251-.103.419l-.206.251c.103.084.103.084.103.168-.103.251-.309.418-.618.418 0 .105-.039.189-.097.262l-.424.398c-.058.073-.097.157-.097.262l-.412.67c0 .274-.158.439-.326.596l-.068.063c-.168.158-.326.322-.326.597 0 .167-.721 2.01-.824 2.093l-.309.67c-.514 0-.72.335-.617.67l-.618 1.675c-.206.251-.515.503-.824.67l-.309.754c.103 0 .309 0 .309.167 0 .084-.309.251-.412.335 0 1.34-1.647 2.848-2.162 4.02-.617 0-.411.502-.411.837 0 0-1.133 2.178-1.133 2.345l-.823 1.173c0 .586-.721.586-.721 1.172 0 .251-.515 1.759-.721 1.926l-.309.586c-.514 0-.617.335-.514.67-.206.503-.515 1.508-.927 1.927l-.412.167-.309.754s.309 0 .309.083c0 .168-.309.252-.411.335 0 1.257-1.442 2.513-1.957 3.685-.514 0-.514.503-.411.754-.103.084-1.648 3.601-1.648 3.852-.72.251-.103 1.256-.823 1.508 0 .586-1.133 1.591-1.133 2.177l-.309.335c0 1.089-.72 1.675-.72 2.763l-.309.587c-.309 0-1.338 1.675-1.338 2.01-.515 0-.515.753-.412 1.005-.206.167-.309.586-.309.837l-.309.419-.412.251-.926 2.596.103.419c0 .251-.103.502-.412.586l-.515.837c0 .503-.412.252-.412 1.005 0 .252-.103.503-.411.503 0 .256-.06.481-.126.701l-.058.189c-.066.22-.125.444-.125.701-1.236 1.172-2.677 4.02-2.677 5.527-.618 0-.412.67-.412 1.005l-.412.754c0 .251-.103.586-.309.753l-.308.838.308.084c.206 0 .309-.168.309-.335.412-.335.824-.922.824-1.424.309-.168.309-.503.309-.754.617-.418 1.235-1.256 1.647-1.758.515-.335 1.03-.838 1.03-1.34l.411-.252v-.669c.309-.168.412-.587.412-.838l.721-.335c0-.335.103-.754.412-.921 0-.419.926-1.005 1.338-1.256v-.251c.103 0 .309.502.309.586l-.309.67c0 .335 0 .502.412.502h.309v-.921c.72 0 1.132-.586 1.853-.586.823-1.675.412-2.345 2.368-3.099v-1.088c.514-.252 1.029-.754 1.029-1.257.824 0 .103-1.507 1.03-1.507 0 .335.411.419.411.754 0 .251-.103.586-.411.67 0 .167.103 1.172-.309 1.172-.103.168-.721 1.842 0 1.842l-.309.67c-.309.168-.515.419-.721.67v.754l-.72.419v.837l-.412.419h.412l-.412.837c.926.419-.412.335-.721.335s-.412.168-.412.419c-.411.335-.309 1.256-.617 1.759l.823.251.618-.754c0-.335.412-.502.721-.419 0-.334.103-.669.411-.921v-.67c.412-.335.618-.67.618-1.172l.515-.586.206-1.005c.103-.084.309-.251.515-.251.514 0-.206 1.004-.206 1.256h.926l-.103-.335c0-.251.309-.335.515-.335.206-.168.515-.419.824-.503l.308-.67 1.03-.083.412-.168c.412 0 .309-.251.309-.502 0-.084.103-.168.206-.252.102-.083.308-.586.411-.586s.103.168.103.168c0 .753-.72 1.34-.72 2.01 0 .167.103.251.308.251l.412.67.721-.503c0-.418.412-.502.412-1.005h.412c.823 0-.412-1.005.926-1.005.412-.418.824-.753 1.338-1.088 0-.67.515-1.089.927-1.591.206 1.172-.206 1.507-.206 2.177h.721l1.132-.503c-.103-.083-.412-.251-.412-.335 0-.167.309-.167.412-.167l.721-1.675c.412-.419.824-.837 1.338-1.172.206-.587.618-1.089.618-1.675.206-.586.824-1.675 1.441-2.094l.309-1.758.515-.419.412.419.103.335-.618 1.423c-.103 0-.618 0-.618.168 0 .083.206.167.309.251l-.309.754.515.586c.412-.503.515-1.173.515-1.675l.72.167-.308-1.088c.514-.586 1.029-1.34 1.029-2.094 0-.419-.926-.419-1.338-.419h-.515c-.103 1.089-1.235 1.927-1.75 2.931 0 0 0 .252-.103.252 0 0-.309-.587-.309-.67.515 0 .824-1.005.927-1.34.514-.67 1.029-1.424 1.647-2.094 0-.67.72-1.005.72-1.591l.721.251-.412.586.412.754c-.206.168-.618.586 0 .586 0 0 0 .168.103.168s.515-.921.618-1.089l.309-.084v.419c1.029 0 .514-.67 1.132-.67l.103-.67-.309-.586.206-.335.412-.251-.206-.168.618-1.172.514.167v-.921c.618 0 .618-.084.618-.586.412 0 .412-.251.412-.502l.412-.838h-.103l.309-.67c0-.335.411-.502.411-.837.206-.587.824-1.843 1.545-2.261v-1.173l.514-.084.721-.753c.103.083.206.335.206.418-.309.503-.618 1.089-.618 1.592-.103 0-.72 0-.72.167 0 .084.206.168.309.251l-.309.838.514.67c.412-.419.618-1.256.618-1.843.206.168.412.335.721.335s-.309-1.172-.309-1.34c.618-.67 1.132-1.34 1.132-2.261l-.72-.586.309-.335.411.084s0 .251.103.251c.309 0 .721-1.005.721-1.256 1.03 0 1.956-2.931 2.162-3.35l-.618-.837c.103-.168.103-.335.103-.503.309.419.824.754 1.339 1.005v-.921c.72 0 .72-.084.72-.67.206 0 .824-1.172.824-1.424-.206-.167-.515-.418-.515-.586 0-.167.206-.167.309-.167.309-.084-.103-.587-.309-.335 0-.084-.103-.754.103-.838l.824-1.507h.103l.926-1.508.103-.837.824-.251c0 .167-.103.921.309.921.205 0 .308-.251.308-.419.515-.502.927-1.172 1.236-1.758 0-.335.309-.419.309-.754.72-.503 1.235-1.759 1.441-2.429.206 0 .206-.167.206-.251 0-.251-.309-1.089-.721-1.089-.103 0-.103.252-.103.335l-.411.754c0 .335-.103.586-.412.837 0 .587-.206 1.257-.721 1.675l-1.441-.67v-.083c0-.084.514-.168.617-.168.618 0 .206-.586 0-.754l.103-.251c1.03 0 1.133.084 1.133-.67 0-.586.618-2.261.823-2.847l.412-.586.618.167-.103 2.345c.927 0 .515-1.34 1.235-1.34l.927-1.423c0-.67.721-.838.721-1.424l.617-.419.412-.837.824-.587v-1.004c.309-.503.72-1.173.72-1.675l.412-.252 1.03-1.591.103-.921h.309c.411 0 .514-.251.514-.502.206-.084.412-.335.412-.503 0-.084-.103-.084-.206-.084l-.617-.67.411-1.674c.206 0 .412-.084.515-.335h.206c.206-.084.206-.168.103-.252h-.103c.103-.335.103-.67.103-.921.206 0 .926-1.34 1.132-1.591 0-.921 1.03-1.256 1.03-2.01l.618-.837v-.252h.206c.617-.502 1.029-1.507 1.853-2.093l.514-1.256-.514-.503-.515.084.206-.921-.824-.251c0 .586-.515 1.088-.926 1.507.103-.251.206-.503.206-.67l.411-.586c-.411-.419 1.236-1.256.824-1.675 0-.168.206-.419.206-.503-.103 0-.309.084-.412.252l-.412.67-.309.251v-.754l.515-.586c.206 0 .412-.335.412-.67.309-.251 1.029-.838.824-1.089-.206-.083-.618 0-.927-.083.206-.252.515-.587.515-.922 0-.167-.103-.251-.309-.251l-.412-.251c.206-.251.206-.503.515-.754l-1.03-.167c0 .335-.206.586-.514.753.205.252.514.419.823.419-.103.335-.103.754-.309.921 0 .252-.206.419-.411.67-.206-.167-.412-.335-.721-.167l-.309.167.721.251c-.309.084-.515.168-.721.168-.824 0-.824 1.424-1.544 1.424l-.103-.252c.206-.502.515-.921.823-1.423l.824-.586c-.412-.335 1.338-3.099 1.647-3.434-.103-.168-.926-1.005-.515-1.256.206-.084.412-.251.103-.503.618-.502 1.133-2.01 1.236-2.428-.412-.503.618-1.508.926-1.759.515-.419.309-.67-.103-1.005-.205-.251-.411-.167-.617.168-.309.167-.515.418-.412.67l.103.418c-.824.335-1.441 1.089-1.647 1.843-.618.502-1.03 1.172-1.648 1.675.103.083.206.167.103.335-.206.167-.411.167-.206.418l-.205.587-1.339.837-.309.167c-.103-.083.103-.335.103-.418.309-.084.309-.503 0-.838-.514-.502-2.059-.251-2.676-.251.308-.167.411-.502.103-.837l.411-.587c0-.251.309-.586.618-.837-.206-.084-.309-.251-.103-.419.206-.167.412-.251.206-.418.515-1.005.721-1.927 1.235-3.015.412-.252.927-1.089.412-1.508-.103-.083-.309-.167-.515-.083-.617.418-.617 2.177-1.132 2.512-.721.502-1.235.502-.515 1.089-.617.335-.72.921-1.338 1.339.206.168.103.419 0 .587h-.103v1.256c-.309.167-1.338.502-.824 1.005 0 .084-.206.167-.309 0-.102-.084-.205-.503-.102-.67.411-.168.308-.503.617-.838v-.921l.721-.419-.309-.669c.618-.503 1.03-1.34 1.235-2.01.618-.419.515-.922.103-1.34l.824-1.591c-.206-.252.515-1.759.824-2.094-.412-.419.617-.502.103-1.005.514-.335.514-.335 0-.837l-1.339.921c.206.586-.823.837-.618 1.423l-.411.67c.206.168 0 .419-.206.587l-.618.418-.824 1.508c-.102.251-.411.586-.617.753.206.168.103.335-.103.503l-.618.502c-.206-.167.309-.67.412-.921-.206 0-.103-.167-.103-.335.309-.167.515-.167.309-.419.412-1.256 1.338-2.679 1.544-3.936.206-.251.206-.418-.103-.669h-.103c.412-.335 1.75-2.513 1.544-2.764-.205-.084-.617 0-.823.167l-.412.587c-.206.167-.412.502-.412.753-.617.335-.617.838-1.132 1.257l-3.809 5.443c-.309.167-.721.419-.412.754-.412.251-.618.502-.618.837-.515.419-1.235 2.01-1.235 2.345l-1.133 1.424.103.586c-1.235.837-1.441 2.345-2.471 3.266 0 .019-.001.037-.003.056-.376.018-.753.028-1.129.028v-.168c0-1.172-7.001-.502-8.236-.502l-4.427-.67h-11.222c-3.088 0-8.133-.168-11.119.418l.103-.167c.103-.084.206-.168.206-.251 0-.252-1.544-.503-1.853-.587l.927-.921c-.309-.251-1.133-.418-1.545-.586l-.926.084c-.412-.168-.206-.251-.824-.335l-.515.502s.206 0 .206.084l-.514.084-.824.837v-.084l.103-.251.927-.837c0-.251-.412-.335-.618-.335.103-.335.103-.67.103-1.005-.103 0-.309 0-.309-.084s1.338-1.005.412-1.089c.412-.335 1.235-1.591 1.132-2.009.206-.252 1.03-.922 1.03-1.257l-.103-.083c-.927 0-2.265 2.093-2.574 2.428-1.03.586-3.5 3.183-4.221 4.02-.309.084-.721.084-1.03.084l-.205.502.102.335c-.308.251-.411 1.759-1.235 1.508l-.206.335v-.587c.515-.67.103-1.423.618-2.093l1.235-.67.103-1.005 1.133-1.173v-.418l.309-.503-.206-.251.617-.586v-.084c0-.419.412-.754.721-1.005l-.515.168c-1.338-.084-1.132 1.675-2.265 1.675h-.103c.721-.838 3.501-3.518 3.295-4.523l1.956-2.428h-.412c-1.853 1.256-4.118 4.606-5.662 6.281l-4.118 4.522c-.103.251-.309.67-.206.921l-2.368 2.512c-1.544.503-9.472 1.843-10.913 1.843-.412.418-1.441.502-1.75 0-.824 0-1.544.586-2.368.586 0 .502-3.809.921-4.221 1.005-.309 0-.721.167-1.029.251 0 .586-.824.335-1.236.335 0 .754-2.162.67-2.677.67-.205.251-.617.335-.926.335l-.721-.335c-.823 0-1.338.586-2.162.586 0 .335-3.603.921-3.912.921-.098 0-.206.017-.317.043.005-.042.008-.084.008-.126.309-.335.721-.754.824-1.173.412-.167.823-.586 1.029-.921.103 0 .309 0 .309-.167 0-.252-.309-.587-.515-.754l-1.647.837v-1.172c-.206-.168-.412-.419-.412-.67 0-.168.103-.251.309-.251l.515-1.591c.515 0 .515-.587.515-.838 0-.167 0-1.424-.309-1.424-.721 0-1.647 2.513-1.647 2.513-.103 0-.103-.168-.103-.168 0-.251-.103-.586-.412-.67l.412-.837-1.236-1.089.412-.251-.721-.837c-1.132 1.172-1.132 1.004-3.088 1.004l-1.544-1.004-1.751.167c0 .921-1.75.502-2.264.167-.412 0-.412.168-.412.419 0 .168-.206.251-.412.251-.515.503-1.338 1.34-1.544 1.927l-.412-.168v-.084h-.927c-.412 0-.72.419-.72.67-.618 0-1.236.503-1.545.921v.335c0 .335-.309.335-.617.335-2.162 1.173-.309 3.518-2.677 3.518-.515 0 0 .67-.927.67-.206.335-.514.67-.926.921l.412.167-.412.335v.67l.412.921-.824.419-1.132 2.513-.824.418c0 .335-.103.67-.412.921l-.309.67c.103 0 .412 0 .412.084 0 .168-.412.251-.515.335l-.411-.084c-.181 0-.262.065-.332.137zm-247.524-.454.309-.014c.052-.002.103-.004.155-.004l.617-.083c.412.167 1.853.083 2.368.083l-.515.67c-.823-.167-1.956-.083-2.779.084l-.412-.251-.515.251-.103.335-.515-.084c-.514.168-1.235.335-1.75.252l-1.75.753h-.823c-.103 0-.206.084-.206.168s.308.084.411.084c1.133 0 2.471-.168 3.501-.419.103.084.206.084.412.084.617 0 1.132-.587 1.75-.084l1.75-.251c.412.335 1.647-.084 2.162-.252l.824.168c.823-.084 1.544-.335 2.367-.084.515-.251 1.03-.335 1.648-.419v.419l-.103.084-.721.084.309.921c-.103 1.842-4.221 5.527-4.221 7.286-.309.418-.721 1.004-.721 1.507-.823 0-.103 1.675-1.029 1.675-.824 0-.515.419-.515.837 0 .335-.412.419-.721.419-.514.335 0 .335-.926.419 0 .502-2.471.335-3.089.418l-.412.503-.206.084h-1.338l-.103-.084c-.309.251-.721.335-1.029.251l-.412.084-.412.419-.309.083h-.206c-.72 0-1.75.168-2.368.252-.206.502-2.162.67-2.779.753v-.083c0-.084-.103-.084-.206-.084-.927 0-1.442.67-2.265.837l-1.03-.083-.823.251-1.236-.084c-1.956.586-3.912.837-5.765 1.507h-.412c-.617 0-.926.168-1.647.084l-.824.419c-.205.251-.617.251-.926.251-.103.67-.824-.167-.927.419h-.411c-.412 0-.412.335-.515.586-1.339.419-2.883.335-4.324.67-.206-.084-.412-.167-.618-.167s-.206.669-.309.669-.206-.586-.206-.669l-1.235.167-.515.67-1.853.335c-.206.419-1.544.419-2.059.335l-2.059.419v.167c0 .251.103.335.412.335.412 0 1.029-.167 1.441-.084l.721-.335h1.338c.309-.167.721-.167 1.03-.167.309-.503.514-.335 1.029-.168.206-.251.721-.251 1.03-.167.309-.335.72-.335 1.132-.335.515 0 .412-.251 1.441 0l.515-.335 1.03.084c1.235 0 2.368-.168 3.5-.503l.206-.335.618.084c.72 0 .72-.167.823-.67.386 0 .787-.012 1.191-.026l.81-.031c.404-.015.805-.027 1.191-.027.412 0 .412-.335.926-.251.309-.167.721-.167 1.03-.167v.083c0 .335.515.335.721.335-1.03.335-5.148.419-5.354 1.759.309.084.824.251 1.133.251.154 0 .263-.047.35-.118l.431-.518c.087-.07.197-.118.351-.118.206 0 1.544.168 1.544.335-.309.084-.72 0-1.029 0-1.03 0-.721.754-2.78.754l-.618-.084-.411.252c-.515.083-1.854.251-2.059.67l.514.502.721.168.412-.335c.617.335 1.441.67 2.265.67.206 0 .411 0 .514-.252 1.133.084 2.162-.335 3.192-.335.309 0 .824.335 1.029.587h.103c.927 0 .206-.419 2.059-.419.206 0 .515-.084.721-.251l.721.083c.823-.251 1.647-.251 2.368-.67v.084c0 .503 2.367-.084 2.367.251 0 .084-.72.335-.823.335l-1.236-.083.721.586-.103.586-.721.084c-.308.502-1.647.251-2.161.251 0 .419-1.236.335-1.545.335-.103.335-.206.251-.515.251-.205 0-.308.168-.308.335l-.927.335c-.103.586-.206.503-.824.419-.205.167-.617.084-.823.084l-.824.335h-1.132l-.721.251h-.206c-.309 0-.515.251-.515.502-.411.335-.926.168-1.338.168s-.721.084-1.132.084c-.103.335-.618.335-.618.753 0 .335.721.419 1.029.419v.167c0 .252.412.252.618.168-.103.586-1.235-.251-1.235.586 0 .251.617.251.823.251.618 0 1.751.084 1.648-.67h2.47l.309-.335c.206.084.309 0 .309-.167 0-.168-.103-.335-.206-.503h-.103c-1.338 0 .206.754-2.471.335-.103.168-.411.335-.617.335-.103 0-.103-.167-.103-.167v-.168l.926-.669c-.103 0-.206 0-.206-.084 0-.419 2.574-.419 3.192-.419.926-.335 2.059-.586 3.088-.67l1.03.168-1.647.67-.618-.168-.103.586-1.029-.167-.412.335c-.206-.084-.618 0-.618.251s.309.335.515.335c2.162 0 5.147-.419 7.206-.586l.309.083c.309 0 .618-.083.824-.251.721.168.206-.418.721-.418h.205v.083c0 .168.206.252.309.252.412 0 .824-.168 1.236-.252 0-.418 1.853-.335 2.265-.335l1.029-.251-.309.838h-.412c-.823 0 .103.753-1.029 1.339l-.927-.167-2.265.502c0 .168 0 .252-.205.252l-.309.083.926.838c.515-.168 1.03-.503 1.545-.503h1.132c-.206.168-.309.419-.309.67-.618.754-1.853 1.34-1.853 2.178 0 .183.138.222.293.243l.135.016c.155.021.293.06.293.243 0 .335-1.03 1.591-1.236 1.926 0 .419-.412.335-.309.67l-.308.419v.754l-.824.418c0 .419-.206 1.34-.824 1.424 0 .419-.823 1.34-.823 1.842h-.206c-.618 0-.927 1.592-1.03 2.01l-.617.503c0 .837-1.236 1.926-1.133 3.266l-.721 1.675v.167s-.205 0-.102.084l-.206.419c0 .753-.824.586-.824 1.423-.309.168-.309.503-.309.754h-.206c-.514 0-.72 1.34-.823 1.675l-.515.419c0 .67-1.03 1.675-.927 2.679-.309.419-.926 2.429-1.132 2.597 0 .251.103.502.309.67-.721 0-1.03 1.256-1.03 1.758 0 .586-.617.754-.617 1.256.102.084.411.335.411.503 0 .167-.103.167-.309.167l-.617.586-.103 1.508c-.206.251-.309.67-.309 1.005l-.515.335c0 1.423-1.132 2.512-1.132 3.098-.103.168-.309.335-.309.503 0 .167.206.167.309.167.514-1.005 1.441-1.926 2.059-2.931l.515-.251.308.251 1.03-1.172.618-.168c.411-1.256 1.544-2.177 2.676-3.014v-.67c.412-.838 1.339-1.34 1.75-2.345l1.339-.921c.103-.168 1.338-2.345 1.75-2.345.103 0 .309 0 .309.167 0 .084 0 .168-.103.251-.103.503-1.133 1.927-1.647 2.262l-.309.083-.309.67v1.005l-.618.251v.168c0 .157-.043.302-.097.444l-.114.284c-.054.142-.098.287-.098.444l-.617 1.34.617-.502c0-.838.721-.335.721-.921 0-.168.103-.168.309-.168.103-.419.309-.921.515-1.34.412-.419.823-.754 1.338-1.089.309-.083.309-.418.309-.586.926-.586 1.75-1.34 2.471-2.093.103-.335.515-1.005 1.029-1.005.103-.084 1.647-2.178 1.647-1.759l.309-.335.721.251c-.412.587-.927 1.173-1.441 1.759l.514.754-1.647 3.517c-.206.167-.309.502-.309.754-.206.335-1.853 2.596-1.853 3.014 0 .168 0 .252.206.252l1.441-1.675c.309 0 .309-.168.309-.335 0-.168.103-.168.309-.168.412-1.675 3.398-3.684 3.398-4.354l.411-.252.515-.753h.103c.721-.754 1.441-1.675 2.265-2.345l.824.167c-.206.252-.206.587-.206.838.823 0 .823-.419.926-.921l.309-.084c.309-.419.618-.838.618-1.34.309-.168.412-.503.412-.754l.617-.335c0-.251 0-.586.206-.837l-.617.084c-.309 0-.309-.252-.309-.419.411-.503.926-.921 1.235-1.508v-.251l.515-.167v.418l-.824 1.34c0 .084 0 .335.103.335s1.03-1.088 1.133-1.172l.206-.503h.514l-.309-.586c.515-.586 1.03-1.172 1.442-1.758 0-.419 0-.838.206-1.257l.103.252.411-.587.824-.502 1.133.167c0 .184-.079.319-.168.448l-.077.11c-.088.129-.167.264-.167.447.514 0 1.029-.251 1.029-.67l.206-.418c.721-.335 1.133-1.173 1.133-1.759.308-.251.411-.586.411-.921l.824-.419c-.103-.335 0-.754.309-1.005l-.721.084c-.412 0-.515-.168-.515-.503.309-.67.824-1.256 1.236-1.842.103 0 .72 0 .72-.084 0-.167-1.029-.167-1.132-.167-.309 0-.515-.084-.515-.335s.412-.335.618-.335c0-.251.412-.419.618-.419l.411.335.206 1.005-.926 1.675c0 .084 0 .419.103.419.206 0 .515-.754.617-.922l.618-.502.309-.67h.618l-.309-.67c.721-.67 1.235-1.424 1.75-2.177v-.168c0-.418 0-1.758.721-1.758.617-.587 1.441-1.508 1.75-2.261 0-.419.412-.419.412-.922l.309-.67v-.167c0-.251.308-.419.308-.754l.515-.754 1.133-.335c0-.334.103-.586.411-.837 0-.167 0-.586.309-.67l1.133-1.591c-.103-.251-.206-.503-.206-.754 0-.167.103-.335.309-.335.103.084.309.335.514.335.103 0 .103-.251.103-.335 4.016-.67 8.442-1.507 12.663-1.507l.824-.335c3.089 0 5.971-.754 8.957-1.173l.309-.167c1.132 0 2.676-.335 3.912-.419l-.206-.335c.206-.083 1.75-.251 1.75-.418 0-.587-2.162-.503-3.397-.503-.515 0-.721.419-1.339.419-.309 0-.72-.084-.823-.335-.103 0-1.03-.251-1.03-.335h1.75c2.265 0 4.736-.67 6.898-.67 0-.335.618-.335.824-.335 2.059-.084 4.324-.419 6.28-.419.206.168.412.335.617.335.103 0 .103-.167.103-.167l1.442-.252.926.503 1.133.167c-.309-.335-1.03-1.005-1.648-1.005-.308-.251-.72-.251-1.132-.251-.927 0-1.956-.251-2.883-.335-.206-.251-.617-.502-.617 0-.309-.084-2.265-.167-2.265-.418 0-.168-.206-.168-.309-.168l-4.736.084-.515-.335-.103.335c-.617-.084-1.235 0-1.853.167l-.103.168c-.72.083-1.338-.251-2.059-.251-.411 0-2.985.753-2.985.083-1.442.168-2.883.335-4.324.335-.103 0-.412 0-.412-.084 0-.502 3.5 0 3.5-.669 1.236 0 2.78-.335 3.604-.335.72 0 5.456-.168 5.456-.754 1.441 0 2.986-.335 4.427-.586 0-.419-.618-.419-.927-.419-.72 0-3.5-.084-3.809.419h-.72l-.206-.335-.618-.335v.083c0 .419-1.544.252-1.853.252-.412 0-1.647-.335-2.162-.419l2.471.084.72-.503c1.75-.084 3.707-.251 5.457-.67l1.132.168v-.67l-.823.084c0-.67-.824 0-.824-.587-.618-.083-2.574-.67-3.192-.67l-.823-.335c-.103-.083-.309-.335-.515-.335-.103 0-.103.084-.103.168-.412.084-.926.167-1.441.167-.824 0-1.853-.251-2.883-.251l-.515-.335c-.102.251-.411.503-.617.67l-.412-.335c-.103.084-.515.586-.515.168l-.412-.335.412-.335c1.03-.084 2.162-.168 3.192-.168.103 0 .823 0 .823-.084 0-.167-.309-.251-.412-.251 0-.335-1.132-.335-1.338-.335-1.75 0-3.397.168-5.044.168-.226 0-.392-.064-.55-.137l-.136-.062c-.159-.072-.325-.136-.55-.136-.309 0-.721.084-.824.335-2.264 0-4.323.418-6.588.418-.309 0-.824-.167-1.133-.335.412-1.088 2.059-4.019 3.089-4.605l1.235-2.178c0-.335.309-.251.618-.251.206 0 .206-.084.206-.168.309-.167.412-.502.412-.753l1.75-.335c.309.167.72.335 1.132.335.206-.251 5.251-1.34 5.765-1.34.309 0 .721-.084.721-.335h1.544l-.103-.168c0-.251.721-.167.927-.167l.618-.754.72.67h1.442c-.206-.084-.824-.335-.824-.502 0-.168.309-.168.412-.168l.823-.251c.515.335 1.236.586 1.854.586.411 0 .823-.084 1.132-.335 1.235-.084 5.971-.586 6.177-.754.618 0 1.853 0 1.853-.083 0-.084-1.647-.168-1.647-.419 0-.084.206-.084.206-.084.103-.251.412-.335.721-.335.205 0 .72.084.617.335 1.133.335 2.368.251 3.604.251 1.544 0 4.324-.418 6.177-.418.206-.586 1.956-.168 1.956-.586-.412-.252-1.03-.419-1.545-.419-.72 0-5.147-.251-5.353.419h-1.75c0-.084.72-.335.823-.335 0-.084 1.854-.67 1.956-.67 1.133 0 1.648.67 3.295 0 .206.083 2.265.502 2.265.083 0-.167.206-.167.309-.167l1.029.335c.309-.251 1.03-.67 1.03 0l.823-.335c-.309-.168-.411-.503-.514-.838 1.029-.586 6.897-.753 8.03-.753.143-.156.468-.275.921-.365-.063.148-.13.298-.2.448-.412.419-.618 1.005-.721 1.592l-.309.502-.515.67c0 .335-.412.503-.412.837l-.72 1.089-.412.251-.412.67c-.412 0-.412.084-.412.335 0 .252-.308.252-.514.252 0 .167 0 .586-.103.921l-.309.753c-.103.084-.206.168-.206.252h-.103c0 .083-.103.251-.103.335 0 .083-.103.167-.206.167 0 .251 0 .419-.103.67 0 .032-.014.063-.032.094l-.038.063c-.018.032-.033.063-.033.094l-.412.252c-.308.502-.72.921-.72 1.507-.103 0-.824 1.34-.824 1.507-.515 1.173-1.132 2.345-1.956 3.35 0 .168 0 .251-.103.419l-.206.251c.103.084.103.084.103.168-.103.251-.309.418-.618.418 0 .105-.038.189-.096.262l-.425.398c-.058.073-.096.157-.096.262l-.412.67c0 .146-.045.261-.113.361l-.495.534c-.068.099-.113.214-.113.361 0 .167-.72 2.01-.823 2.093l-.309.67c-.515 0-.721.335-.618.67l-.618 1.675c-.206.251-.514.503-.823.67l-.309.754c.103 0 .309 0 .309.167 0 .084-.309.251-.412.335 0 1.34-1.647 2.848-2.162 4.02-.618 0-.412.502-.412.837 0 0-1.132 2.178-1.132 2.345l-.824 1.173c0 .256-.138.4-.293.531l-.134.11c-.156.13-.294.275-.294.531 0 .251-.514 1.759-.72 1.926l-.309.586c-.515 0-.618.335-.515.67-.206.503-.515 1.508-.926 1.927l-.412.167-.309.754s.309 0 .309.083c0 .168-.309.252-.412.335 0 1.257-1.441 2.513-1.956 3.685-.515 0-.515.503-.412.754-.103.084-1.647 3.601-1.647 3.852-.18.063-.277.173-.331.306l-.161.895c-.055.134-.152.244-.332.307 0 .256-.216.593-.46.939l-.212.298c-.243.347-.46.683-.46.94l-.309.335c0 1.089-.721 1.675-.721 2.763l-.309.587c-.308 0-1.338 1.675-1.338 2.01-.515 0-.515.753-.412 1.005-.206.167-.309.586-.309.837l-.308.419-.412.251-.927 2.596.103.419c0 .251-.103.502-.412.586l-.514.837c0 .503-.412.252-.412 1.005 0 .252-.103.503-.412.503 0 .586-.309 1.005-.309 1.591-1.235 1.172-2.677 4.02-2.677 5.527-.617 0-.411.67-.411 1.005l-.412.754c0 .251-.103.586-.309.753l-.309.838.309.084c.206 0 .309-.168.309-.335.412-.335.823-.922.823-1.424.309-.168.309-.503.309-.754.618-.418 1.236-1.256 1.648-1.758.514-.335 1.029-.838 1.029-1.34l.412-.252v-.669c.309-.168.412-.587.412-.838l.72-.335c0-.335.103-.754.412-.921 0-.419.927-1.005 1.338-1.256v-.251c.103 0 .309.502.309.586l-.309.67c0 .335 0 .502.412.502h.309v-.921c.18 0 .341-.037.492-.092l.869-.403c.151-.055.312-.091.492-.091.824-1.675.412-2.345 2.368-3.099v-1.088c.515-.252 1.03-.754 1.03-1.257.823 0 .103-1.507 1.029-1.507 0 .335.412.419.412.754 0 .251-.103.586-.412.67 0 .167.103 1.172-.309 1.172-.103.168-.72 1.842 0 1.842l-.309.67c-.308.168-.514.419-.72.67v.754l-.721.419v.837l-.412.419h.412l-.412.837c.927.419-.411.335-.72.335s-.412.168-.412.419c-.412.335-.309 1.256-.618 1.759l.824.251.617-.754c0-.335.412-.502.721-.419 0-.334.103-.669.412-.921v-.67c.412-.335.618-.67.618-1.172l.514-.586.206-1.005c.103-.084.309-.251.515-.251.515 0-.206 1.004-.206 1.256h.927l-.103-.335c0-.251.309-.335.515-.335.205-.168.514-.419.823-.503l.309-.67 1.029-.083.412-.168c.412 0 .309-.251.309-.502 0-.084.103-.168.206-.252.103-.083.309-.586.412-.586s.103.168.103.168c0 .753-.721 1.34-.721 2.01 0 .167.103.251.309.251l.412.67.72-.503c0-.418.412-.502.412-1.005h.412c.824 0-.412-1.005.927-1.005.411-.418.823-.753 1.338-1.088 0-.67.515-1.089.927-1.591.205 1.172-.206 1.507-.206 2.177h.72l1.133-.503c-.103-.083-.412-.251-.412-.335 0-.167.309-.167.412-.167l.72-1.675c.412-.419.824-.837 1.339-1.172.206-.587.618-1.089.618-1.675.205-.586.823-1.675 1.441-2.094l.309-1.758.514-.419.412.419.103.335-.618 1.423c-.102 0-.617 0-.617.168 0 .083.206.167.309.251l-.309.754.515.586c.411-.503.514-1.173.514-1.675l.721.167c0-.418-.309-.67-.309-1.088.515-.586 1.03-1.34 1.03-2.094 0-.419-.927-.419-1.339-.419h-.515c-.102 1.089-1.235 1.927-1.75 2.931 0 0 0 .252-.103.252 0 0-.308-.587-.308-.67.514 0 .823-1.005.926-1.34.515-.67 1.03-1.424 1.647-2.094 0-.67.721-1.005.721-1.591l.721.251-.412.586.412.754c-.206.168-.618.586 0 .586 0 0 0 .168.103.168s.514-.921.617-1.089l.309-.084v.419c1.03 0 .515-.67 1.133-.67l.103-.67-.309-.586.206-.335.411-.251-.206-.168.618-1.172.515.167v-.921c.618 0 .618-.084.618-.586.411 0 .411-.251.411-.502l.412-.838h-.103l.309-.67c0-.335.412-.502.412-.837.206-.587.824-1.843 1.544-2.261v-1.173l.515-.084.721-.753c.103.083.206.335.206.418-.309.503-.618 1.089-.618 1.592-.103 0-.721 0-.721.167 0 .084.206.168.309.251l-.309.838.515.67c.412-.419.618-1.256.618-1.843.206.168.411.335.72.335s-.309-1.172-.309-1.34c.618-.67 1.133-1.34 1.133-2.261l-.721-.586.309-.335.412.084s0 .251.103.251c.309 0 .721-1.005.721-1.256 1.029 0 1.956-2.931 2.162-3.35l-.618-.837c.103-.168.103-.335.103-.503.309.419.823.754 1.338 1.005v-.921c.721 0 .721-.084.721-.67.206 0 .823-1.172.823-1.424-.206-.167-.514-.418-.514-.586 0-.167.206-.167.308-.167.309-.084-.102-.587-.308-.335 0-.084-.103-.754.103-.838l.823-1.507h.103l.927-1.508.103-.837.823-.251c0 .167-.103.921.309.921.206 0 .309-.251.309-.419.515-.502.927-1.172 1.235-1.758 0-.335.309-.419.309-.754.721-.503 1.236-1.759 1.442-2.429.205 0 .205-.167.205-.251 0-.251-.308-1.089-.72-1.089-.103 0-.103.252-.103.335l-.412.754c0 .335-.103.586-.412.837 0 .587-.206 1.257-.72 1.675l-1.442-.67v-.083c0-.084.515-.168.618-.168.618 0 .206-.586 0-.754l.103-.251c1.029 0 1.132.084 1.132-.67 0-.586.618-2.261.824-2.847l.412-.586.617.167-.102 2.345c.926 0 .514-1.34 1.235-1.34l.927-1.423c0-.67.72-.838.72-1.424l.618-.419.412-.837.823-.587v-1.004c.309-.503.721-1.173.721-1.675l.412-.252 1.029-1.591.103-.921h.309c.412 0 .515-.251.515-.502.206-.084.412-.335.412-.503 0-.084-.103-.084-.206-.084l-.618-.67.412-1.674c.206 0 .412-.084.515-.335h.205c.206-.084.206-.168.103-.252h-.103c.103-.335.103-.67.103-.921.206 0 .927-1.34 1.133-1.591 0-.921 1.029-1.256 1.029-2.01l.618-.837v-.252h.206c.618-.502 1.03-1.507 1.853-2.093l.515-1.256-.515-.503-.515.084.206-.921-.823-.251c0 .586-.515 1.088-.927 1.507.103-.251.206-.503.206-.67l.412-.586c-.412-.419 1.235-1.256.823-1.675 0-.168.206-.419.206-.503-.103 0-.309.084-.411.252l-.412.67-.309.251v-.754l.515-.586c.206 0 .411-.335.411-.67.309-.251 1.03-.838.824-1.089-.206-.083-.618 0-.927-.083.206-.252.515-.587.515-.922 0-.167-.103-.251-.309-.251l-.411-.251c.205-.251.205-.503.514-.754l-1.029-.167c0 .335-.206.586-.515.753.206.252.515.419.824.419-.103.335-.103.754-.309.921 0 .252-.206.419-.412.67-.206-.167-.412-.335-.721-.167l-.308.167.72.251c-.309.084-.515.168-.72.168-.824 0-.824 1.424-1.545 1.424l-.103-.252c.206-.502.515-.921.824-1.423l.824-.586c-.412-.335 1.338-3.099 1.647-3.434-.103-.168-.927-1.005-.515-1.256.206-.084.412-.251.103-.503.618-.502 1.132-2.01 1.235-2.428-.411-.503.618-1.508.927-1.759.515-.419.309-.67-.103-1.005-.206-.251-.412-.167-.618.168-.309.167-.515.418-.412.67l.103.418c-.823.335-1.441 1.089-1.647 1.843-.618.502-1.029 1.172-1.647 1.675.103.083.206.167.103.335-.206.167-.412.167-.206.418l-.206.587-1.338.837-.309.167c-.103-.083.103-.335.103-.418.309-.084.309-.503 0-.838-.515-.502-2.059-.251-2.677-.251.309-.167.412-.502.103-.837l.412-.587c0-.251.309-.586.618-.837-.206-.084-.309-.251-.103-.419.206-.167.411-.251.206-.418.514-1.005.72-1.927 1.235-3.015.412-.252.926-1.089.412-1.508-.103-.083-.309-.167-.515-.083-.618.418-.618 2.177-1.132 2.512-.721.502-1.236.502-.515 1.089-.618.335-.721.921-1.339 1.339.206.168.103.419 0 .587h-.103v1.256c-.308.167-1.338.502-.823 1.005 0 .084-.206.167-.309 0-.103-.084-.206-.503-.103-.67.412-.168.309-.503.618-.838v-.921l.72-.419-.308-.669c.617-.503 1.029-1.34 1.235-2.01.618-.419.515-.922.103-1.34l.824-1.591c-.206-.252.514-1.759.823-2.094-.412-.419.618-.502.103-1.005.515-.335.515-.335 0-.837l-1.338.921c.206.586-.824.837-.618 1.423l-.412.67c.206.168 0 .419-.206.587l-.617.418-.824 1.508c-.103.251-.412.586-.618.753.206.168.103.335-.103.503l-.617.502c-.206-.167.308-.67.411-.921-.205 0-.103-.167-.103-.335.309-.167.515-.167.309-.419.412-1.256 1.339-2.679 1.545-3.936.205-.251.205-.418-.103-.669h-.103c.411-.335 1.75-2.513 1.544-2.764-.206-.084-.618 0-.824.167l-.411.587c-.206.167-.412.502-.412.753-.618.335-.618.838-1.133 1.257l-3.809 5.443c-.309.167-.721.419-.412.754-.412.251-.617.502-.617.837-.515.419-1.236 2.01-1.236 2.345l-1.132 1.424.103.586c-1.236.837-1.442 2.345-2.471 3.266 0 .335-.309.586-.412.754l-.927 1.339c.103.168.206.335-.102.503-.309.335-.927.502-1.03 1.089.206.251 0 .502-.309.67 0 .67-.823 1.842-1.338 2.344.206.084.206.252.103.335l-.412.252c-.103 0-.206 0-.309-.084-.032.183-.084.415-.157.682l-2.211.072c-.103.083-.309.335-.412.335-.206 0-.206-.252-.206-.335l-2.779-.084c-.206 0-.309.167-.309.335l-.412-.251c-4.942.083-9.986.418-14.825.418-.103 0-.206-.083-.206-.167 0-.168.309-.419.412-.586 2.162-.252 4.53-.587 6.692-.587 0-.67 3.397-.335 3.912-.335.103 0 .824 0 .824-.083 0-.252-.618-.503-.721-.754-.206-.168-.515-.419-.515-.67 0-.167 2.677 0 2.677-.335-.412-.167-2.574-.084-3.089-.084l-.514-.335c-.103 0-.309 0-.309-.167 0-.503 2.676-1.089 3.294-1.173.515-.418 1.75-.167 2.059-.586 3.192-.167 5.971-.837 9.163-.754l.309-.669c-1.853 0-3.398-.335-5.457-.252-1.956-.753-1.544-.586-4.221-.586-.103 0-.823 0-.823-.167 0-.168.412-.168.514-.168h4.839c.206.168.515.251.824.251.206 0 1.544 0 1.544-.167-.309-.168-.824-.168-1.235-.168v-.083c0-.503-2.574.251-3.295-.503l-21.517.251c-.206 0-.823 0-.823.335h-.618l-.309-.335-2.368.503c0 .335-1.338.167-1.544.167-.309 0-.824 0-.824.335.309-.083 1.236-.167 1.236.252-.721.083-1.544.083-2.265.083-.103 0-.515 0-.515.168 0 .167.515.167.618.167l.515.67h-2.986l-.412-.335c-.514 0-.72-.335-.514-.67-.309 0-1.339-.167-1.339-.167 0-.084.412-.084.412-.084l.515-.67c-3.604.084-7.207.838-10.81.838-.515 0-.927-.252-.824-.67-.309 0-.72-.084-.823-.335h-.824c-.309 0-.824 0-.824-.335l.206-.335c0-.922-.72-2.764.515-2.764l.309-.084-.206-.921c-.103.251-.515.251-.721.251l-1.029 1.34c0 .168-.052.314-.129.45l-.566.775c-.077.136-.129.283-.129.45h-.206c-.514 0-.617.168-.617.503 0 .167 0 .418-.206.586l-.412.754s0 .418-.103.418c-.206 0-.309-.753-.309-.837l-1.647.837c0-.418-.721-1.005-1.133-1.005-.308 0-.308.335-.308.503-.309.167-.412.502-.412.754-.412 0-.412.167-.412.418s-.309.251-.515.251c-.103.084-.72.754-.72.252-.412-.084-.824-.168-1.236-.168-2.059 0-4.942 1.089-7.206 1.089h-2.162l-1.648.335c-.103 0-1.647-.084-1.235.251-.515 0-2.265-.084-2.574.419-.515-.084-1.235.084-1.75.251l-.515-.167c-.412.251-.515.167-.926.167-1.03 0-4.221.503-4.633.251h-.927c-.206.252-.72.419-1.029.168l-1.647.167c-.206.084-.618.252-.824.084-1.235.419-2.574.251-3.706.754l-.824-.168-1.338.586-.309-.083c-.206 0-2.265.586-2.574.753h-.309c-2.574 0-5.868.084-8.442.503-.514.251-1.029.167-1.544.419-.515.083-1.132.083-1.647.083-.103.084-.206.084-.206.252 0 .167.721.335.926.335l2.059-.335c.206.251.618.418.927.251 1.441.084 3.089-.251 4.53-.251.206.251.618.251.926.083h.824c0 .084-.824.168-1.132.168-.927.084-1.648.419-2.574.335-.412.167-1.544.419-2.059.335-.103-.084-.309-.084-.412-.084-.206 0-.412 0-.515.084h-.823l-1.133.586c.309.335.515.419.927.167.412.335.72-.083 1.029.168.309-.084.618-.084.927-.084.412 0 1.338-.084 1.647.168l1.853-.252c.515.503 3.5.252 3.912.084l.515.251-1.647.419c-.103-.084-.309-.335-.515-.335-.515 0-1.441.419-2.368.419-.206 0-1.441 0-1.441.251 0 .084 0 .084.103.168 1.235.251 2.265-.335 3.5.167l1.647-.084c.412.252.721-.251 1.03 0 .309-.083.618-.167.926-.083l.927-.084c.206.335.618.251.927 0l-.412 1.172.103.503c.206.167.617.335.926.167h.309c.103 0 .309 0 .309.084s-1.235.503-1.441.586h-.824c-.206.168-.618.084-.824-.083-.617.251-1.338.167-1.853.586l-.823-.084-1.648.502-.514-.083c-.103-.084-.206-.084-.309-.084-.206 0-.412.084-.515.167v.503c.103.084.309.167.515.167.618 0 1.853-.67 2.368-.167.617 0 2.368.167 2.985-.168.309.335.412-.083.721-.083.103 0 .206.167.206.167l.926.586.824-.083c.721-.335 1.647-.084 2.368-.503l.927.335.617-.335c.412 0 2.883-.419 2.986.084l1.132-.419c.309.084 1.236.67 1.545.335l.72-.167c.258.104.515.111.772.101zm451.39-19.698-.412.587c-.103 0-2.367 2.344-2.573 2.679 0 .419-.515.67-.927.67l.103.503c0 .251-.515.167-.721.167-.309 1.005-1.235 1.843-1.544 2.764l-.412.251c-.412.503-.72 1.005-.72 1.591l-.721.67c-.309 0-.412.168-.412.419 0 .168-.103.251-.309.251l-.514.921c-.515.252-1.03.67-1.339 1.089 0 .335-.103.754-.412.921 0 .67-.823.922-.72 1.675-.721.084-1.236 1.173-1.236 1.675h-.103c-.926 0-.411.921-1.029 1.173.103.167.206.418.206.586 0 .167-.206.251-.412.251-.824.335-1.338 1.256-2.059 1.759v.083c0 .67-.721 1.173-.618 1.843-.72 0-1.029 1.172-1.132 1.591-.721 0-.721.084-.721.67-.412.084-.618.335-.515.67l-.823 1.675-.927.418c0 .252-.103.587-.412.754v.251c0 .503-.309.754-.206 1.34l-1.647 1.173v.083c0 .754-.823.838-.72 1.592l-.618.921c0 .251-.103.502-.412.586l-.309.502-.412.252v1.34c-.926.083-.823.753-.926 1.34-.412.418-.927 1.004-.927 1.591l-.412.335.206.67c-.206.083-.617.335-.926.335-.618 0-.515-1.424-.515-1.759 0-1.089-1.647-5.527-.412-6.03 0-1.34-.206-2.679-.515-3.936-.308 0-.617 0-.617-.335 0-2.596.206-5.611.206-8.374l.411-.586v-1.089c-.514-.251-.514-.754-.514-1.172 0-.587-.824-.252-1.236-.168v-.419c0-.167 0-.67.412-.67l-.103-1.34.412.084c.309 0 .309-.251.309-.418 0-.419.206-2.848-.618-3.015l-.926-.587c-.515-.669-.618-1.088-1.648-1.088-.309-.251-.309-.67-.309-.921h-.102c-.309 0-.721-.084-.721-.419l-2.265-.67c0-.168-.103-.503-.412-.586 0-.503-.309-.419-.823-.419 0-.167-.103-.419-.309-.419-.618 0-1.339.586-1.75.921l-.824.252c-.103.167-.309.335-.515.335-.412 0 .206-.587-.823-.587-.515 0-.412-1.088-.412-1.339h-.103c-.412 0 .103-.67.206-.754l-.618-.67-.618 1.591c-1.132 0-.617.67-1.338 1.005-.412-.168-.927-.335-1.338-.335-.309 0-.515.084-.515.335-.206.251-.412.502-.721.67l.103.837-1.647.922v.167c0 .503-.618.084-.824-.084v.252c0 .335-.309.335-.617.335-.206-.168-.721-.252-1.03-.252v.168c0 .251-.103.502-.309.67l-.515-.67c.309-.084.412-.419.412-.67l-.823-.335-.412.251v1.089c0 .335-.412.251-.618.251v.754c-.515.083-1.647.335-1.647.837-.618.67-1.441 1.591-1.441 2.429l-.309.586c0 .586-1.133.67-1.133 1.34l-.412.67c-.205.251-.514.502-.823.67l-1.03 1.423c0 .419-.103.922-.309 1.34l-.514.252-.309.67c-.309 0-.309.167-.309.335 0 .167-.206.251-.412.251 0 .837.103.502-.823.753l.206 1.173c-.721.084-1.133.837-1.133 1.34-2.265 2.261-3.397 5.108-5.868 7.453v.838c-.412 0-.309.167-.309.418 0 .168-.206.251-.412.251-.206.754-.926 1.424-1.441 2.094 0 .503-.412.503-.412 1.005 0 .168-.206.084-.412.084-.412 0-.309.335-.309.586s-.514.335-.72.335l-.206.837c-1.133 0-.515 1.34-1.339 1.34 0 .67-.823 1.089-.72 1.759l-1.03 1.424c0 .67-.926 1.005-.823 1.758-.206.251-.206.586-.206.921h-.309c-.309 0-.515.084-.515.335-.309 0-.412.168-.412.419 0 .168-.103.251-.308.251l-2.368 4.188c-.618 0 0 1.591-.824 1.591l-.927 1.758c-.926.754-.205 1.508-.205 2.345 0 .251-.515.168-.721.168 0 .586-.206 1.172-.515 1.675-.309.083-.309.418-.309.586-.72.084-1.029 1.256-1.029 1.758-1.03 1.508-2.162 3.099-2.986 4.69 0 .419-.309.754-.823.754v.167c0 .252-.309.335-.206.587l-.824 1.34-.412.586c0 .502-.103.335-.514.335l-.206.083.103 1.257c0 1.172-.927 2.428-.927 3.684 0 .252-.412.252-.618.252l-.206.837c-.514 0-.308.921-.308 1.172-.515.419-.927 1.424-1.03 1.927-.515 0-.515.753-.412 1.005-.412.251-.515 2.261-.515 2.847-.72.084-.926 1.172-.926 1.675-.515.67-1.236 1.675-1.338 2.512.102.335-.206.503-.309.754.309-.335 1.338-1.843 1.647-1.843l.103.084-.515.586.103.335-.309.168c0 .084.103.167.206.167s.206-.167.206-.251l-.103-.084c.412-.418.515-.921.618-1.423l.926-.503v-.167c0-.251.206-.419.515-.419v-.167c0-.335 2.265-3.601 2.471-3.853l.515.67c0 .168.206.335.411.335.309 0 .412-.251.412-.419.309-.083.721-1.423.721-1.758l.824-.838c.102-.418.411-1.507.926-1.674-.103.837-.515 2.093-1.235 2.763 0 0 0 .251.103.251.617 0 2.265-2.931 2.47-3.349.618 0 .927-1.173 1.03-1.592.206.168.412.335.618.335.309 0 .309-.251.309-.418l.72-.503c0-.251.103-.586.412-.754.206.084.412.168.618.168 1.029 0 .412-1.256 1.235-1.256 0-.168 0-.67.309-.67.206.251.412.502.412.754 0 .083-.206.167-.309.167.103.502-.412.67-.309 1.089-.206.083-.206.251-.206.418 0 0 0 .419.103.419.309 0 .824-.837.927-1.005v-.167s0-.168.103-.168c.206 0 .308.335.308.419 0 .167 0 .251-.205.251l-.103 1.005c-.824.084-.515.335-.515.754 0 .084-.206.167-.309.167.103.67-.618 1.256-.618 1.759-.72 1.005-1.235 2.01-1.853 3.015 0 .167.103.502.412.502.927 0 .927-2.261 2.059-2.261v-.335c0-.335.103-.67.103-1.005h.206c.412 0 .618-.167.618-.502l1.235-1.34c0-.586.721-.921.721-1.508l.72-.586v-.167c0-.503.721-.586.721-1.256.618-.335 1.235-.67 1.235-1.34.515 0 .206-.168.206-.419 0-.168.309-.168.412-.168 0-.586.927-2.093 1.441-2.093.309-.419.618-1.005.721-1.591h.103c.515 0 .309.502.309.753l.515.419c0 .168-.103.503-.412.335l-.515.754c-.721.251-.103 1.172-.618 1.423 0 .168 0 .503.206.503.927 0 2.471-3.266 2.574-3.434.309 0 .206-.167.206-.418 0-.168.206-.168.412-.168 0-.335 0-.754.309-1.005 0-.251 0-.67.308-.921v-.084l.412-1.005.824.503v.084c0 .418-.618.753-.618 1.172 0 .167.206.167.309.167l-.206 1.005.721.503-.309.754c-.412 0-.412.167-.412.418 0 .168-.103.252-.309.252l-.514.669v.168c0 .23-.065.434-.161.625l-.708 1.094c-.097.191-.161.396-.161.626l-.309.335v.586l.721-.251 1.235-1.424c0-.586.309-1.089.206-1.675l.824-.418c0-.335.103-.754.412-.922l.926-.167c.103-.586.103-1.089.103-1.675 0-.251.206-.251.515-.251l.309-1.173.72-.251c.412 0 .412-.167.412-.419 0-.167.103-.167.309-.167l.721-1.424v-.084c0-.586.72-.837.72-1.423l2.265-3.852c0-.503.721-.503.721-1.257 0-.418.515-1.591 1.132-1.591v-.167c0-.335.412-.587.824-.503v-.167c0-.503 3.191-5.276 3.706-5.862.515 0 .412-.335.412-.587 0-.251 0-.753.412-.921l.515-.753c.411 0 .926-.252.823-.67.824-1.34 1.75-2.094 2.368-3.685.515-.084.927.084.927-.503.206-.418.514-.921.926-1.256v-.837l3.295-4.188.411 7.537c0 .252-.308 1.424.412 1.257.206.67.206 6.281.206 7.453-.103-1.759.206-4.187-1.132-5.611-.515 0-.515 1.005-.515 1.256 0 1.34 1.029 8.961 1.544 9.128h-.103c-.206 0-.309.252-.309.419l.309 4.271c.103.921 1.133 1.005 1.133 1.507 0 .168-.309.168-.412.168-.309.084-.309.419-.309.586 0 .419.206 1.089.824 1.089 1.029 0 .514 1.005.411 1.507l.618 2.01c.721 0 .618.335.206.586.103.67.515.67.515 1.675h.309c.103.503 0 2.261.617 2.68v.67l.515.168c.103.167.206.251.412.251.824 0-.309-.921 1.235-1.089l.721-.335.927.335c0 .586.411.67.617 1.173l.927.334.618.503c.205.084 1.338.335.514.419l-.103 1.005 1.442-.168.206-.586h.72l.824.251c.206-.084.412-.335.72-.335.103 0 .206.084.206.251-.103.084-.411.168-.411.252 0 .167.308.167.411.167 0 .335.618.335.927.335 1.029 0 2.162-.502 3.088-.921l.412-1.005c0-.251-.309-.251-.514-.251h-.206l-.721.753c-.309-.083-.927-.083-.927.335l-1.235-.335.721-.335c.514 0 .926-.335 1.235-.586l1.853-.167h.206c.618 0 .206.335 0 .502v2.01l.824-.251.617-.754c1.03 0 .618-.586.618-1.256 0-.335.618-1.005.618-1.34l.412-.67c0-.335.411-.335.411-.754l.412-.586c.309 0 .206-.167.206-.335 0-.502.927-.167.927-.586 0-.167-.103-.335-.206-.502l-.412-.084c0-.168.103-.586.412-.419.412-.67 1.029-1.759 1.132-2.512v-.168c0-.251.515-.251.721-.167l.103-1.173c.618-.67 1.75-1.423 1.75-2.261 0-.251.515-.418.824-.418l.308-.838.515-.419c0-.586.309-1.172.721-1.675l-.103-.251c0-.251.309-.335.618-.335 0-.586.206-1.591 1.132-1.675 0-.753.824-1.172.824-1.926.412-.167.514-.419-.103-.419.515-.921 1.338-2.344 2.368-2.931l.103-.67-1.545.084.309-1.005c.206-.67.927.084.927-.753.309-.252.412-.587.309-.838l.411-.754.309.084c0 .084 0 .251.206.251.515 0 1.03-.418 1.339-.67v-1.004h.514c.206 0 .309 0 .309-.252 0-.837-1.029-1.088-1.029-1.423 0-.168.206-.168.308-.168.206.168.515.335.721.335.309 0 .309-.251.309-.419.515 0 .309-.251.309-.502 0-.168.206-.168.309-.168l.72-1.758.824-.67c0-.251.103-.586.412-.754 0-.419-.309-.419-.721-.419s-.309-.418-.309-.67c0-.167 0-.586.412-.586 0-.67.927-1.005.824-1.675.411-.67.926-1.507 1.647-2.01v-.083c0-.419.412-.586.926-.586-.205.167-.411.502-.411.753 0 .168.103.251.309.251.308 0 .823-.083.926-.335.309-.083.515-.334.412-.586.206-.083.515-.251.515-.418 0-.335-.206-.503-.515-.67 0-.084 0-.252-.206-.252-.309 0-.515.754-.515.922-.103 0-.515 0-.515-.168 0-.251.309-.502.515-.67v-.167c0-.252.103-.168.309-.168s.309-.084.412-.167c-.206-.252-.309-.419-.309-.67 0-.168.103-.252.309-.335 1.235-1.005 1.75-2.848 2.883-3.601 0-.838 1.029-1.173 1.029-2.01 0-.335.412-.67.721-.838l.514.084-.411.251c0 .21-.071.388-.177.55l-.779.911c-.106.162-.177.34-.177.549-.206.168-.309.503-.309.754l-.514.754c-.721 0-1.03 1.34-1.03 1.758l.515.084c.206 0 .412-.084.412-.251.411 0 .411-.168.411-.419 0-.167.103-.251.309-.251 0-.419 0-1.34.618-1.424 0-.502.515-1.256 1.235-1.256v-.251c0-.419.309-1.675.824-1.675l1.03-1.34c-.103-.335.308-.67.308-1.005 0-.251-.514-.251-.823-.251.515-1.089 1.235-2.01 1.956-3.015.515 0 .72-1.591.72-1.926.721 0 .618-1.256 1.339-1.34l.721-1.842c.205-.168.411-.335.411-.587 0-.167-.309-.167-.411-.167-.103-.251-.103-.586.308-.586 0-.168-.103-.252-.308-.252-.721 0-1.751 1.257-1.648 1.843-.617.251-1.132.586-1.544 1.005l-1.338-.419h.103c.514 0 .206-.837.206-1.089l1.132-1.507c0-.251.103-.586.412-.67 1.132-.754 1.75-1.926 2.265-3.015.309-.167 1.235-.586 1.235-.921 0-.168-.515-.168-.618-.168h-.205c-.618.335-1.133 1.005-1.442 1.592-.618.083-.309 1.423-1.132 1.423-.618 0-.515.168-.515.586 0 .335-.412.335-.412.67-.926 1.005-1.853 1.927-2.574 3.099l.103.754c0 .167 0 .502-.309.502-.411.419-.72.921-1.235 1.256h-.103c-.515 0-.206-.167-.823-.167-.103 0-.721 0-.721-.168 0-.167.206-.335.412-.418.617-.587 1.235-1.843 1.441-2.596l.721-.503v-.251c0-.335.308-.335.617-.335 0 0 1.339-1.926 1.339-2.094 0-.167-.309-.167-.412-.167l-.618-.67.721-.586v-.503c.206-.167.618-.335.618-.586 0-.168-.309-.168-.515-.168-.412 0-.927.168-1.339.252.103.502 0 1.088-.205 1.591v.084c0 .418-1.133.251-1.133 1.088v.251c-.206 0-.412-.67-.412-.753-.514-.335-1.029-.586-1.132-1.173.412-.083.618-.418.515-.753l.823-.67c0-.335.103-.67.412-.922l.206-1.004h.309c.309 0 1.132-1.675 1.132-2.094 0-.503.412-.586.309-1.089l.824-.586.309-.754-.412-.67-1.545 1.089c.412-1.424 1.648-2.429 1.751-4.02.514-.753 1.132-1.591 1.853-2.261l-.824-.67-.618.67c.618-.921 1.133-2.428 2.162-2.931 0-.335.412-.335.412-.754.515-.921 2.059-1.926 2.059-2.931-.823 0-.823 1.424-1.647 1.424l-.515.837c-1.029.587-1.441 1.424-2.265 2.094 0 .419-.411.754-.823.921.103.084.412.168.412.252 0 .167-.206.167-.309.167l-.515-.335v.335c-.103 0-.515.084-.515.251 0 .251.309.419.515.586l-.721.419c0-.084-.103-.167-.206-.167-.206 0-.411.335-.514.502-.515.419-1.133.754-1.133 1.34-.823.586-1.75 1.34-2.265 2.177zm-322.752 37.267-.412.586c.515.251.927.67 1.236 1.005h1.132l.515.586c.309 0 .823.084 1.029.335.103 0 .412 0 .412.168 0 .167-.206.418-.412.502l.721.67 1.647.503c.309-.084 1.956-.503 2.265-.503.206 0 .515 0 .515.168 0 .335-.412.586-.412.921 0 .167.309.167.412.167 1.338.335 2.677.67 3.912 1.256 1.029 0 4.53.084 5.456-.335 0-.418.412-.586.412-.921l2.78.335.103-.335c.515 0 1.338.084 1.647-.335h1.441l.618-.67c-.515.67-1.132 1.34-1.544 2.01l-1.03.251c0 .335-3.191 2.429-3.191 2.931-.412.335-.927.754-1.544.922-.412 0-.412.335-.927.335-.721.753-1.647 1.172-2.265 1.926-.618 0-1.235.921-1.544 1.256l-1.133.335c-.514.502-.823 1.005-1.647 1.005-.823.167-1.544.586-1.956 1.172-.412.084-1.544.335-1.544.754-1.647 1.005-4.118 1.34-5.457 2.512-.514 0-.308.335-.823.335-.824.754-2.162 1.591-3.398 1.926h-.514c-2.162 0-.412 1.759-3.295.67-.823 0-2.368.335-3.5.335-.206 0-.824-.083-.618-.335l-1.75-1.172v-2.429c-1.133 0 0-2.01 0-2.261l-.515-.586c-.72 0-.823 1.172-.823 1.591l-.206-1.005.411-.335-.411-.251v-.251c0-.251.103-.419.411-.419.103-.335.412-.754.721-.921v-.921l.412-.67 1.235.251c.206-.168.309-.419.309-.67l.824-.837c0-1.508-.515-1.759.618-1.759.205 0 .205-.419.205-.503 0-.335.309-.502.309-.837.618-.419 1.236-.754 1.236-1.424l.823-.67c-.72 0-.823-1.088-.823-1.507l-.412-.168.412-.083c0 .083 0 .167.103.167.206 0 .617-.67.103-.67.308-.502.617-1.088.617-1.591.412 0 .309-.167.309-.419 0-.251.206-.251.412-.251l.412-.586.72.419c-.205.418-.411.921-.72 1.256-.309.251-.721.419-1.133.586 0 .335-.411.251-.411.586l.823.419c0 .084 0 .251.103.251s.721-1.088 1.03-1.591l.205-.084c.103 0 .103.084.103.168 0 .502-.411 1.089-.72 1.507.823 0 1.853-2.177 1.956-2.596 1.029-.502 1.956-2.01 2.78-2.763zm353.123 0-.412.586c.515.251.927.67 1.235 1.005h1.133l.515.586c.309 0 .823.084 1.029.335.103 0 .412 0 .412.168 0 .167-.206.418-.412.502l.721.67 1.647.503c.309-.084 1.956-.503 2.265-.503.206 0 .515 0 .515.168 0 .335-.412.586-.412.921 0 .167.309.167.412.167 1.338.335 2.677.67 3.912 1.256 1.029 0 4.53.084 5.456-.335 0-.418.412-.586.412-.921l2.78.335.103-.335c.515 0 1.338.084 1.647-.335h1.441l.618-.67c-.515.67-1.132 1.34-1.544 2.01l-1.03.251c0 .335-3.191 2.429-3.191 2.931-.412.335-.927.754-1.545.922-.411 0-.411.335-.926.335-.721.753-1.647 1.172-2.265 1.926-.618 0-1.235.921-1.544 1.256l-1.133.335c-.514.502-.823 1.005-1.647 1.005-.824.167-1.544.586-1.956 1.172-.412.084-1.544.335-1.544.754-1.648 1.005-4.118 1.34-5.457 2.512l-.823.335c-.824.754-2.162 1.591-3.398 1.926h-.514c-2.162 0-.412 1.759-3.295.67-.824 0-2.368.335-3.5.335-.206 0-.824-.083-.618-.335l-1.75-1.172v-2.429c-1.133 0 0-2.01 0-2.261l-.515-.586c-.721 0-.823 1.172-.823 1.591l-.206-1.005.411-.335-.411-.251v-.251c0-.251.103-.419.411-.419.103-.335.412-.754.721-.921v-.921l.412-.67 1.235.251c.206-.168.309-.419.309-.67l.824-.837c0-1.508-.515-1.759.617-1.759.206 0 .206-.419.206-.503 0-.335.309-.502.309-.837.618-.419 1.236-.754 1.236-1.424l.823-.67c-.72 0-.823-1.088-.823-1.507l-.412-.168.412-.083c0 .083 0 .167.103.167.205 0 .617-.67.103-.67.308-.502.617-1.088.617-1.591.412 0 .309-.167.309-.419 0-.251.206-.251.412-.251l.412-.586.72.419c-.206.418-.411.921-.72 1.256-.309.251-.721.419-1.133.586 0 .335-.412.251-.412.586l.824.419c0 .084 0 .251.103.251s.721-1.088 1.03-1.591l.205-.084c.103 0 .103.084.103.168 0 .502-.411 1.089-.72 1.507.823 0 1.853-2.177 1.956-2.596 1.029-.502 1.956-2.01 2.779-2.763z"/><g clip-path="url(#a)" fill-rule="nonzero"><path d="m167.253 6.514h-43.653l68.289 209.189 135.281-209.189h-43.653l-78.23 126.205-38.034-126.205z"/><path d="m456.4 35.904c-7.347-22.042-25.068-35.441-49.704-35.441-32.848 0-63.534 25.933-68.721 58.781-4.322 27.661 10.373 38.898 30.687 51l35.009 20.314c7.78 6.051 12.534 11.237 10.805 22.043-3.025 17.288-19.017 28.525-35.441 28.525-18.585 0-26.797-10.805-32.416-25.932l-35.873 15.127c6.483 28.526 33.28 45.382 62.67 45.382 37.602 0 74.34-28.526 80.391-66.992 5.187-31.984-15.559-46.679-37.602-57.484s-44.085-18.585-41.492-36.306c2.161-11.237 13.831-19.881 24.636-19.881 11.237 0 19.881 7.78 22.907 17.72z"/></g></g></svg>