<svg clip-rule="evenodd" fill-rule="evenodd" stroke-linejoin="round" stroke-miterlimit="2" viewBox="0 0 600 100" xmlns="http://www.w3.org/2000/svg"><g fill="#fff"><path d="m45.149.033v86.982l19.695 6.24v-72.933c0-3.437 1.532-5.719 3.99-4.934 3.213.891 3.837 4.057 3.837 7.455v29.128c12.259 5.934 21.911-.003 21.911-15.659 0-15.997-5.658-23.124-22.309-28.854-6.567-2.186-18.738-5.876-27.124-7.425" fill-rule="nonzero"/><path d="m68.59 80.539 31.631-11.259c3.578-1.326 4.125-3.128 1.229-4.075-2.941-.965-8.192-.689-11.808.61l-21.052 7.426v-11.85l1.205-.397s6.094-2.159 14.665-3.089c8.555-.938 19.046.122 27.291 3.23 9.289 2.951 10.33 7.255 7.98 10.25-2.384 2.965-8.164 5.109-8.164 5.109l-42.977 15.438z"/><path d="m9.063 79.34c-9.524-2.652-11.112-8.258-6.767-11.497 4.007-2.957 10.832-5.183 10.832-5.183l28.213-10.059v11.449l-20.284 7.27c-3.592 1.285-4.131 3.094-1.237 4.04 2.945.984 8.173.72 11.768-.607l9.753-3.517v10.221c-.629.106-1.328.212-1.966.321-9.724 1.614-20.083.951-30.312-2.437z"/><path d="m246.778 36.218-.111.167 14.297 41.867c.023.094.023.239-.007.331l-8.05 20.729c-.034.097.011.17.106.17h8.383c.108-.002.205-.069.246-.17l25.097-62.927c.035-.1-.009-.167-.107-.167h-9.147c-.104.004-.196.07-.234.167l-10.625 27.512h-.12l-9.38-27.511c-.022-.101-.13-.168-.225-.168z"/><path d="m434.192 36.218h-9.634c-.095.001-.173.078-.176.172v42.254l.176.172h9.634.003c.095 0 .174-.077.175-.172v-42.254c0-.001 0-.001 0-.002 0-.093-.076-.17-.17-.17-.002 0-.005 0-.008 0z"/><path d="m418.259 36.218h-10.404l-.07-.064v-7.01l-.16-.172h-9.656c-.095 0-.174.077-.178.172v36.912c0 7.394 4.602 12.76 10.943 12.76h6.9c.093 0 .17-.077.17-.17 0-.001 0-.002 0-.002v-5.759c0-.095-.067-.184-.17-.184h-4.236c-1.089-.016-3.613-.071-3.613-5.518v-24.851l.057-.055c3.18.016 10.417 0 10.417 0l.172-.158v-5.729c-.003-.093-.079-.169-.172-.172z"/><path d="m170.205 22.86-23.784-.011c-.094-.001-.174.074-.177.168v55.627c0 .088.078.172.177.172h9.639l.169-.172.011-49.589.057-.082 11.038-.021c4.018 0 6.226 4.049 6.226 11.388 0 7.343-2.208 11.402-6.226 11.402l-6.643-.007c-.099 0-.167.075-.167.17v5.772c0 .112.068.181.167.181h9.513c3.356 0 6.643-1.556 9.015-4.228 2.81-3.172 4.289-7.751 4.289-13.239 0-10.635-5.194-17.531-13.304-17.531z"/><path d="m199.274 22.849h-9.645c-.11 0-.188.078-.188.168v55.627c0 .09.078.172.188.172h9.646l.176-.172v-55.627z"/><path d="m350.964 36.218h-10.463l-.055-.064v-7.01c0-.093-.071-.172-.168-.172h-9.636c-.098 0-.184.079-.184.172v36.912c0 7.394 4.609 12.76 10.955 12.76h6.902c.098 0 .175-.084.175-.172v-5.759c0-.095-.077-.184-.175-.184h-4.237c-1.086-.016-3.631-.071-3.642-5.518v-24.851l.059-.055c3.205.016 10.469 0 10.469 0l.17-.158v-5.729c0-.093-.076-.171-.17-.172z"/><path d="m500.86 36.218h-17.197c-.094.001-.17.079-.17.172l-.005 42.254.161.172h9.653l.163-.172-.013-36.275.067-.071 7.333-.005c1.983 0 4.158.32 5.55 2.613 1.272 2.072 1.85 5.714 1.85 11.431.008.247-.008 22.307-.008 22.307 0 .088.077.172.172.172h9.611c.104 0 .181-.084.181-.172v-21.19c0-9.932-1.984-21.236-17.348-21.236z"/><path d="m241.34 36.39c0-.099-.087-.173-.182-.173h-17.176c-15.402 0-17.372 11.305-17.372 21.242l.012 8.592c0 7.395 4.599 12.764 10.921 12.764h9.372l.169-.171v-5.766c0-.094-.079-.178-.169-.178l-6.694.012c-1.542-.032-3.619-.684-3.619-5.986v-9.278c-.007-6.165.567-10.107 1.847-12.349 1.387-2.475 3.569-2.807 5.533-2.807h7.321l.062.087-.01 36.265c0 .087.075.171.178.171h9.627c.095 0 .18-.084.18-.171z"/><path d="m310.722 46.128-4.749-.362c-3.562-.307-6.211-2.28-6.211-8.116 0-6.815 3.056-8.679 7.136-8.679h13.147l.174-.17v-5.784l-.174-.166h-.275l-14.242.003c-8.973 0-15.353 5.27-15.353 15.772v.457c0 8.287 5.099 14.269 12.698 14.85l4.727.35c3.606.273 5.852 3.498 5.852 8.391v1.376c0 3.06-.765 8.657-7.326 8.657h-13.659c-.096.003-.173.083-.172.178v5.758l.172.172h16.958c5.225 0 13.975-2.114 13.975-16.336 0-5.153-1.17-9.215-3.543-12.149-2.022-2.522-5.018-3.885-9.135-4.202z"/><path d="m389.714 36.39c0-.095-.078-.173-.172-.173h-17.215c-15.368 0-17.358 11.305-17.358 21.242l.012 8.592c0 7.395 4.595 12.764 10.95 12.764h9.346l.174-.171v-5.766c-.002-.095-.079-.174-.174-.178l-6.698.012c-1.536-.032-3.594-.684-3.6-5.986v-9.278c0-6.165.58-10.107 1.83-12.349 1.388-2.475 3.585-2.807 5.515-2.807h7.354l.073.087-.018 36.265c0 .087.08.171.176.171h9.641c.095 0 .165-.084.165-.171z"/><path d="m458.945 36.219c-16.095 0-18.153 11.358-18.153 21.29 0 9.943 2.058 21.338 18.153 21.338 16.097 0 18.15-11.395 18.15-21.338 0-9.932-2.052-21.29-18.15-21.29zm6.11 33.685c-1.517 2.498-3.925 2.831-6.11 2.831-2.163 0-4.578-.333-6.111-2.831-1.383-2.248-2.023-6.186-2.023-12.396v-.049c0-7.329.902-11.493 2.919-13.476 1.207-1.203 2.771-1.691 5.215-1.691 2.48 0 4.029.488 5.235 1.691 1.998 1.983 2.902 6.165 2.902 13.525 0 6.218-.642 10.159-2.027 12.396z"/><path d="m434.192 22.849h-9.634l-.176.168v8.078c0 .098.086.17.176.17h9.634c.106 0 .178-.072.178-.17v-8.078c0-.09-.072-.168-.178-.168z"/><path d="m597.554 16.713h-52.196v23.974s-.27 9.257 11.179 9.257h17.816c2.121-.017 4.222.41 6.167 1.254 3.018 1.346 6.411 4.086 6.411 9.613 0 4.96-2.403 7.777-4.782 9.353-1.969 1.273-4.269 1.941-6.613 1.923h-30.178v6.729h37.82s16.822-.683 16.822-17.971c0-8.791-5.133-13.146-9.752-15.28-2.985-1.371-6.233-2.074-9.517-2.062h-17.335c-.893.012-1.775-.198-2.567-.61-1.144-.62-2.403-1.85-2.403-4.273v-15.27h39.128z"/></g></svg>