<svg clip-rule="evenodd" fill-rule="evenodd" stroke-linejoin="round" stroke-miterlimit="2" viewBox="0 0 602 260" xmlns="http://www.w3.org/2000/svg"><g fill="#fff"><path d="m101.546 97.718c.092-.526-.085-1.063-.471-1.432l-97.371-92.985c-.463-.442-1.145-.565-1.734-.314-.588.252-.97.831-.97 1.471v43.568c0 .42.165.823.46 1.123l79.537 80.697s-23.244 127.842-23.244 127.842c-.094.518.073 1.05.447 1.421s.906.535 1.424.436l55.557-10.526c.535-.101.982-.468 1.185-.972l17.837-44.154c.221-.549.122-1.175-.259-1.628s-.981-.659-1.559-.535l-50.9 10.907s20.061-114.919 20.061-114.919zm-3.298.291c-1.839 10.534-20.321 116.414-20.321 116.414-.092.523.083 1.058.466 1.427s.925.523 1.444.411l50.271-10.772s-16.38 40.55-16.38 40.55-52.412 9.93-52.412 9.93 22.976-126.368 22.976-126.368c.093-.512-.069-1.037-.434-1.408l-79.66-80.823c.001 0 .001-39.174.001-39.174zm35.108 84.372c-.05.468.108.935.433 1.275l46.606 48.813c.377.395.93.571 1.467.465l47.37-9.357c.554-.11 1.009-.503 1.197-1.035l14.913-42.107c.195-.549.075-1.161-.312-1.596-.387-.436-.98-.626-1.548-.497l-45.651 10.336s-56.691-54.666-56.691-54.666c-.439-.424-1.082-.56-1.656-.352s-.979.725-1.044 1.333zm3.259-.397 4.657-43.402s54.96 52.997 54.96 52.997c.388.374.938.528 1.463.409l43.664-9.886s-13.64 38.513-13.64 38.513-45.617 9.011-45.617 9.011zm278.243-154.856h-14.879c-.587 0-1.127.322-1.406.838-.28.516-.254 1.144.067 1.636l13.743 21.053c.315.482.865.758 1.44.722l7.749-.49c.635-.04 1.186-.453 1.403-1.051l1.526-4.208 18.868 29.951-11.65.971c-.565.047-1.063.389-1.308.9-.246.511-.203 1.113.112 1.584l16.032 23.916c.322.481.879.75 1.456.704.577-.047 1.084-.402 1.326-.928l4.691-10.229 24.785 39.343-45.023 9.424s-85.377-137.649-85.377-137.649c-.32-.517-.906-.807-1.512-.749-.605.058-1.125.454-1.341 1.023l-7.453 19.575c-.18.471-.126 1 .144 1.426l76.332 120.198-29.516 4.84-37.841-58.327c-.409-.631-1.203-.891-1.907-.625-.704.265-1.127.986-1.017 1.73l8.986 60.719-62.168-57.449c-.583-.539-1.473-.568-2.09-.07-.618.499-.776 1.375-.372 2.058l37.787 63.926-35.893 8.571-92.396-166.778c-.313-.566-.936-.887-1.578-.814-.642.072-1.178.524-1.357 1.145l-10.819 37.428c-.115.396-.072.822.12 1.187l31.196 59.406-18.04 2.002s-18.733-36.632-18.733-36.632c-.292-.569-.894-.91-1.532-.867s-1.189.462-1.401 1.066l-10.296 29.309c-.152.431-.112.906.11 1.305l18.713 33.773c.319.576.958.897 1.611.81l38.305-5.117c.528-.07.985-.399 1.222-.876l1.48-2.99 45.965 87.529c.333.636 1.05.971 1.752.82l38.013-8.187c.513-.111.939-.466 1.141-.951l7.924-19.103 17.353 14.456c.396.33.927.449 1.426.319s.905-.492 1.09-.973l12.209-31.696 16.287 22.697c.37.516 1.011.764 1.632.632l33.041-7.018c.54-.114.982-.499 1.171-1.017l3.858-10.589 4.363 7.62c.343.599 1.032.911 1.709.772l66.961-13.743c.532-.109.973-.482 1.169-.988l5.756-14.838 6.02 9.556c.356.564 1.025.848 1.678.713l32.457-6.725c.502-.104.923-.442 1.134-.909l7.585-16.819 13.623 11.254c.363.3.839.425 1.302.341l29.241-5.263c.457-.083.855-.359 1.092-.758l16.667-28.07c.313-.527.297-1.186-.04-1.697-.338-.512-.937-.785-1.545-.705l-30.371 4.011-59.139-42.034c-.637-.454-1.509-.379-2.06.176-.552.554-.621 1.426-.164 2.061l33.005 45.872-30.924 5.242-77.212-122.202c-.293-.465-.805-.746-1.354-.745-.55 0-1.06.283-1.352.749l-14.762 23.52zm-88.612 138.098-2.499 6.023-12.353 29.78s-36.005 7.756-36.005 7.756l-46.48-88.509 9.022-18.23.045-.099.038-.101.031-.103.023-.104.017-.106.01-.105.002-.106-.004-.106-.012-.105-.018-.104-.026-.103-.032-.102-.039-.099-.046-.097-.053-.095-.059-.091-.066-.087-.07-.082-.076-.077-.08-.07-.084-.065-.089-.059-.091-.053-.095-.047-.098-.04-.1-.034-.103-.028-.104-.02-.106-.013-.108-.007-.108.001-.109.009-17.19 1.907s-31.478-59.943-31.478-59.943 9.571-33.111 9.571-33.111 91.119 164.473 91.119 164.473c.348.628 1.072.947 1.771.78zm4.192-1.769.003-.007.008-.025.015-.047.004-.02.005-.015.005-.023.008-.033.006-.03.005-.022.003-.017.004-.022.005-.043.004-.026.001-.011.002-.011.005-.068.001-.019v-.003c.002-.033.002-.067.002-.1v-.006l-.002-.025-.002-.055-.001-.016-.001-.013-.003-.024-.004-.038-.004-.026-.002-.019-.004-.019-.004-.027-.008-.037-.005-.024-.003-.012-.004-.017-.014-.052-.007-.024-.002-.006c-.009-.032-.02-.064-.032-.096l-.001-.001-.005-.014-.029-.069-.004-.009-.004-.009-.012-.025-.02-.042-.009-.016-.008-.015-.012-.022-.016-.029-33.336-56.395 56.685 52.383s-14.013 36.381-14.013 36.381-16.403-13.665-16.403-13.665 7.167-17.277 7.167-17.277c.013-.033.026-.065.036-.098zm26.588-5.204c.014-.036.026-.071.037-.107l.002-.009.008-.029.014-.052.004-.019.005-.017.005-.028.008-.036.004-.029.004-.024.002-.024.004-.025.003-.039.003-.031.001-.016.001-.016.001-.053.001-.033-.001-.009.001-.008-.006-.102c-.002-.034-.006-.069-.011-.103l-8.574-57.938s34.41 53.04 34.41 53.04c.346.532.974.81 1.601.707l30.24-4.958s-11.334 31.103-11.334 31.103-31.153 6.617-31.153 6.617-16.901-23.552-16.901-23.552 1.621-4.21 1.621-4.21zm124.681-23.751-48.358 10.122c-.658.137-1.332-.151-1.687-.723l-84.263-135.854-6.018 15.805 77.2 121.565.003.004.002.004.015.025.028.047.005.01.005.009.013.026.019.037.007.016.007.014.01.024.014.03.008.023.008.018.007.02.009.024.01.031.008.023.004.015.006.018.01.041.007.025.002.01.003.012.011.055.005.024.001.005c.005.032.01.064.013.096l.007.09v.007l.001.007v.028l.001.048v.015.012l-.001.027-.002.037-.002.021-.001.019-.002.022-.003.029-.004.029-.003.023-.003.017-.003.021-.008.038-.005.027-.003.011-.003.014-.014.05-.006.027-.002.005c-.009.032-.02.064-.031.095 0 0-7.281 19.981-7.281 19.981s5.129 8.96 5.129 8.96 64.972-13.335 64.972-13.335l6.588-16.98.003-.009s5.187-13.37 5.187-13.37l-11.611 2.43zm58.86-10.711-31.545 5.346c-.636.108-1.275-.177-1.619-.722 0 0-76.424-120.956-76.424-120.956s-12.344 19.669-12.344 19.669h10.293c.032 0 .065.001.097.003l.096.009.096.015.093.02.092.025.09.031.088.036.086.042.083.046.08.051.077.056.074.061.07.065.066.07.063.073.058.078.054.082.048.084.042.086.038.088.032.09.026.092.021.093.015.093.01.095.004.095-.002.095-.007.095-.013.095-.019.095-.024.093-.031.093-4.549 12.547 21.079 33.46 12.829-1.069.106-.005.105.001.104.009.103.015.102.022.099.028.097.035.095.04.092.047.088.052.086.059.081.063.078.07.073.074.069.08.064.085c.02.029.039.059.058.089l.051.091.046.095.038.096.033.099.025.1.02.101.012.102.006.103v.103l-.007.103-.014.103-.021.102-.027.101-.035.099-.041.098-5.756 12.553 26.533 42.117 13.408-2.807.108-.019.108-.011.108-.004.107.004.106.01.105.017.103.025.102.031.099.037.097.045.093.05.09.057.087.064.083.069.078.075.074.081.067.086c.022.029.042.059.062.089l.055.093.048.096.041.098.035.101.028.102.021.104.014.105.007.106v.107l-.007.106-.014.106-.021.106-.029.105-.036.103-5.962 15.368 6.694 10.626s30.573-6.335 30.573-6.335l8.111-17.984v-.002l3.771-8.36zm-.353 8.562 4.502-9.983.041-.099.001-.003.011-.033.022-.064.002-.007.01-.039.015-.055.001-.006.001-.005.007-.041.011-.051v-.007l.002-.007.004-.041.007-.048v-.009l.001-.009.002-.04.003-.046v-.01l.001-.011-.001-.038v-.045l-.001-.012v-.012l-.003-.037-.003-.042-.002-.014-.001-.013-.005-.036-.006-.04-.003-.015-.002-.015-.008-.033-.007-.038-.005-.017-.003-.016-.009-.032-.01-.036-.006-.018-.005-.017-.011-.03-.011-.033-.008-.019-.007-.019-.013-.028-.012-.031-.01-.02-.009-.019-.014-.027-.014-.028-.012-.021-.011-.02-.015-.025-.015-.026-.014-.021-.013-.021-.016-.022-.016-.024-28.88-40.139s51.802 36.821 51.802 36.821c.33.234.735.335 1.136.282l27.728-3.663s-14.611 24.609-14.611 24.609-27.793 5.003-27.793 5.003zm-306.447-29.104-8.086 16.339-.004.009-2.489 5.029s-36.38 4.86-36.38 4.86-17.837-32.19-17.837-32.19l8.823-25.115 17.539 34.296c.303.592.94.935 1.601.861zm218.581-14.763.004-.009s4.976-10.851 4.976-10.851l-11.069.922-.009.001-11.556.963 12.926 19.283zm-157.237-84.346c-.14-.692-.718-1.21-1.422-1.275-.703-.064-1.365.34-1.629.996l-14.955 37.156c-.232.576-.109 1.235.315 1.689l28.699 30.682c.488.523 1.264.657 1.9.329s.977-1.038.835-1.739l-13.743-67.838zm-2.076 5.864 11.563 57.076s-24.146-25.814-24.146-25.814zm-175.406-5.279c.137-.806-.356-1.586-1.144-1.807-.787-.221-1.615.188-1.918.947l-16.106 40.376c-.237.595-.096 1.275.358 1.727l7.919 7.871c.424.421 1.047.571 1.616.389.569-.183.989-.667 1.089-1.256zm376.08-3.204c-.317-.474-.863-.743-1.433-.706-.569.037-1.076.374-1.329.886l-8.67 17.515c-.347.701-.136 1.55.498 2.007l39.372 28.393c.628.452 1.49.391 2.046-.147.557-.537.649-1.396.219-2.04zm-381.754 17.525-5.15 30.35s-4.981-4.952-4.981-4.952zm290.978 11.281 11.619 17.799s5.773-.365 5.773-.365l2.282-6.293.001-.003s4.039-11.138 4.039-11.138zm89.654-24.73 24.232 36.233s-31.074-22.409-31.074-22.409z"/><path d="m2.599 2.791c-.681 0-1.293.414-1.547 1.047-.253.632-.096 1.355.396 1.825l96.728 92.37s-20.315 116.378-20.315 116.378c-.096.546.086 1.103.486 1.487.399.385.963.545 1.505.429l53.217-11.404c.704-.151 1.231-.736 1.308-1.452l6.947-64.745s54.861 52.902 54.861 52.902c.404.389.978.549 1.525.425l46.492-10.526c.6-.136 1.077-.592 1.24-1.185.162-.593-.015-1.228-.462-1.651l-97.931-92.701s9.841-81.332 9.841-81.332c.057-.474-.091-.949-.407-1.306-.317-.357-.771-.561-1.248-.561h-39.182c-.813 0-1.507.586-1.643 1.388l-7.649 45.077s-46.26-45.98-46.26-45.98c-.312-.311-.734-.485-1.175-.485h-56.727zm285.685 170.315c.363.655 1.117.987 1.845.814l39.183-9.357c.515-.123.941-.483 1.147-.97.207-.487.17-1.044-.099-1.499l-33.102-55.999s57.145 52.808 57.145 52.808c.519.48 1.284.58 1.909.25.625-.331.974-1.019.87-1.718l-8.528-57.631s34.722 53.518 34.722 53.518c.369.568 1.044.856 1.708.731l32.457-6.141c.543-.102 1-.467 1.219-.974.22-.507.174-1.09-.122-1.557l-90.061-141.817c-.306-.481-.837-.773-1.407-.773h-33.626c-.5 0-.974.225-1.291.612-.316.387-.442.896-.343 1.386l12.575 62.072s-59.434-63.542-59.434-63.542c-.315-.337-.755-.528-1.217-.528h-47.077c-.59 0-1.136.312-1.436.821-.299.508-.308 1.137-.022 1.653zm143.321-29.169c.37.595 1.072.896 1.758.753l62.867-13.159c.538-.112.986-.483 1.197-.991.211-.507.159-1.086-.141-1.548l-18.421-28.363c-.345-.531-.961-.821-1.589-.748l-26.769 3.099s-15.693-23.41-15.693-23.41 25.247-2.105 25.247-2.105c.587-.048 1.105-.404 1.362-.934s.214-1.157-.111-1.648l-18.422-27.778c-.329-.497-.899-.78-1.494-.742l-26.809 1.693s-11.529-17.662-11.529-17.662h25.87c.621 0 1.191-.345 1.478-.896s.244-1.216-.112-1.725l-16.96-24.27c-.311-.446-.821-.712-1.366-.712h-64.914c-.605 0-1.162.328-1.456.856-.294.529-.279 1.175.04 1.689zm-.631-141.146c-.607 0-1.166.33-1.459.862-.294.532-.274 1.182.05 1.695l77.781 123.103c.359.568 1.024.865 1.687.753l34.504-5.848c.567-.096 1.045-.478 1.263-1.01.219-.533.148-1.14-.188-1.607l-28.644-39.809s51.472 36.586 51.472 36.586c.344.244.766.349 1.184.293l30.995-4.093c.575-.076 1.069-.446 1.305-.976.235-.529.179-1.144-.15-1.621l-75.442-109.653c-.31-.452-.824-.722-1.373-.722h-31.58c-.615 0-1.18.339-1.47.881-.289.543-.257 1.201.085 1.712l25.561 38.219s-53.318-38.45-53.318-38.45c-.284-.205-.625-.315-.975-.315h-31.288zm-253.502 63.677c-.572.016-1.094.325-1.386.817-.291.492-.309 1.098-.049 1.607l19.236 37.616c.316.616.98.974 1.668.897l39.74-4.411c.557-.062 1.046-.4 1.301-.899.254-.499.241-1.093-.035-1.581l-19.504-34.365c-.305-.537-.881-.861-1.498-.843z" fill-rule="nonzero"/></g></svg>