<svg clip-rule="evenodd" fill-rule="evenodd" stroke-linejoin="round" stroke-miterlimit="2" viewBox="0 0 600 137" xmlns="http://www.w3.org/2000/svg"><g fill="#fff"><path d="m334.329 100.281v8.842h49.323c5.893.062 11.615-2.009 16.104-5.829 4.686-3.978 7.33-9.87 7.186-16.016v-37.582c-.051-4.161 1.813-8.123 5.053-10.736 2.269-1.777 5.081-2.724 7.963-2.684h43.001v-8.721h-51.211s-22.103.354-22.103 23.733v35.094c.039 2.873-.736 5.701-2.236 8.153-2.206 3.688-6.251 5.899-10.546 5.765z"/><path d="m220.453 27.555v8.721h87.908c2.445-.021 4.865.499 7.086 1.522 3.486 1.636 7.401 5.002 7.401 11.829 0 6.631-3.915 9.946-7.401 11.588-2.258 1.036-4.716 1.562-7.2 1.541h-65.198c-3.859-.036-7.674.829-11.14 2.526-5.425 2.722-11.456 9.132-11.456 19.704v23.998h16.918v-23.891c-.011-1.554.27-3.096.828-4.547 1.395-3.58 4.925-9.327 13.179-9.327h65.742c2.211.012 4.413-.284 6.543-.878 6.037-1.718 16.104-6.682 16.104-20.714 0-21.807-21.706-22.072-21.706-22.072z"/><path d="m480.686 27.555v8.721h87.908c2.445-.021 4.865.499 7.086 1.522 3.486 1.636 7.401 5.002 7.401 11.829 0 6.631-3.915 9.946-7.401 11.588-2.258 1.036-4.716 1.562-7.199 1.541h-65.199c-3.859-.036-7.674.829-11.14 2.526-5.425 2.722-11.456 9.132-11.456 19.704v23.998h16.918v-23.891c-.011-1.554.27-3.096.828-4.547 1.395-3.58 4.926-9.327 13.18-9.327h65.741c2.211.012 4.413-.284 6.543-.878 6.037-1.718 16.104-6.682 16.104-20.714 0-21.807-21.706-22.072-21.706-22.072z"/><path d="m104.65 11.294c24.13 8.33 32.309 18.699 32.309 42.066 0 22.766-13.982 31.399-31.741 22.779v-42.458c0-4.976-.909-9.561-5.557-10.862-3.562-1.149-5.773 2.179-5.773 7.155v106.255l-28.494-9.094v-126.685c12.119 2.261 29.77 7.579 39.256 10.819v.025z"/><path d="m99.288 117.75 45.83-16.356c5.204-1.895 5.999-4.509 1.774-5.892-4.224-1.384-11.86-.992-17.051.884l-30.54 10.774v-17.172l1.768-.6c6.9-2.232 14.013-3.741 21.225-4.502 12.41-1.371 27.605.189 39.528 4.711 13.445 4.256 14.961 10.527 11.544 14.847s-11.791 7.395-11.791 7.395l-62.274 22.413z"/><path d="m13.123 116.02c-13.761-3.935-16.098-12.056-9.808-16.736 5.816-4.338 15.706-7.578 15.706-7.578l40.841-14.588v16.622l-29.391 10.565c-5.198 1.895-5.994 4.522-1.769 5.905s11.86.991 17.051-.878l14.096-5.141v14.873c-.89.164-1.894.322-2.81.473-14.707 2.399-29.779 1.192-43.916-3.517z"/></g></svg>