<?xml version="1.0" encoding="UTF-8" standalone="no"?><!DOCTYPE svg PUBLIC "-//W3C//DTD SVG 1.1//EN" "http://www.w3.org/Graphics/SVG/1.1/DTD/svg11.dtd"><svg width="100%" height="100%" viewBox="0 0 586 413" version="1.1" xmlns="http://www.w3.org/2000/svg" xmlns:xlink="http://www.w3.org/1999/xlink" xml:space="preserve" xmlns:serif="http://www.serif.com/" style="fill-rule:evenodd;clip-rule:evenodd;stroke-linejoin:round;stroke-miterlimit:2;"><g id="playlist_marvel"><path d="M18.688,369.248l0,43.107l231.055,0l0,-48.1l-0.056,-11.761l43.577,59.096l41.673,-56.414l2.08,-2.817l0.163,27.039l0,32.692l230.792,-0l-0,-132.959l-1.035,0.953l-3.629,2.93c0,0 -3.939,2.717 -3.962,2.733l-4.131,2.756c0,-0 -2.138,1.138 -2.181,1.161c0,-0 -2.377,1.187 -2.377,1.187l-2.393,1.267l-2.683,1.044l-5.25,1.658l-3.036,0.723l-2.866,0.453l-28.442,0.98l-2.241,-1.957c-0,-0 -0.933,-0.935 -0.933,-0.935l-1.186,-1.053l-0.851,-0.852l-0.95,-1.137c-0,0 -1.213,-2.025 -1.213,-2.025l-1.49,-1.894l-0.892,-1.606c0,-0 -0.426,-0.996 -0.426,-0.996l-0.595,-1.19l-0.666,-2.001l-0,-5.933l0.445,-2.469c0,0 0.749,-1.195 0.749,-1.195l0.421,-1.543l1.474,-2.105c-0,0 1.412,-1.409 1.412,-1.409l1.44,-1.446c0,0 1.447,-0.963 1.447,-0.963l0.755,-0.907c0,0 1.782,-0.991 1.812,-1.008c-0,0 2.011,-1.069 2.05,-1.09l3.186,-1.597l3.774,0c-0,0 1.592,-0.226 1.634,-0.231c-0,-0 2.177,-0.259 2.177,-0.259c-0,0 2.015,-0.357 2.015,-0.357c0,0 2.513,-0.626 2.584,-0.644c-0,-0 2.907,-0.604 2.907,-0.604c-0,0 2.512,-1.03 2.512,-1.03c0,0 3.357,-1.549 3.404,-1.571c-0,0 1.847,-0.791 1.847,-0.791c0,0 1.379,-0.636 1.379,-0.636c-0,-0 1.456,-1.007 1.507,-1.043c-0,0 1.898,-1.22 1.909,-1.227c-0,0 3.879,-2.455 3.879,-2.455c0,-0 1.683,-1.204 1.683,-1.204c-0,0 1.89,-1.51 1.89,-1.51c-0,0 2.046,-1.664 2.046,-1.664c0,-0 0.681,-0.596 0.681,-0.596l-0.526,-6.92l-16.834,0c-0,0 -4.928,-0.133 -4.986,-0.135c0,0 -4.542,-0.267 -4.599,-0.27c-0,-0 -4.41,-0.399 -4.448,-0.403c-0,0 -2.21,-0.247 -2.21,-0.247l-2.034,-0c0,-0 -3.952,-0.564 -4.039,-0.577l-3.753,-0.72l-1.66,-0.556c-0,0 -0.987,-0.491 -0.987,-0.491l-1.341,-0.386l-1.511,-1.259l-1.043,-1.043c-0,-0 -0.486,-1.212 -0.486,-1.212c-0,0 -0.035,-0.07 -0.035,-0.07c-0,-0 -0.688,-0.884 -0.688,-0.884l-1.692,-2.118l-1.824,-2.888c-0,-0 -0.765,-1.677 -0.79,-1.733c-0,-0 -0.68,-1.636 -0.68,-1.636l-0.654,-1.566l-0.265,0.088l-1.216,0.694l-1.873,0.268l-2.569,-0c-0,-0 -1.572,-0.524 -1.572,-0.524l-1.614,-0.359c-0,0 -1.385,-0.864 -1.385,-0.864l-1.596,-0.725l-2.031,-1.526c-0,-0 -1.439,-1.293 -1.459,-1.31l-1.887,-1.746l-1.797,-2.095c-0,-0 -1.535,-2.044 -1.535,-2.044l-2.193,-2.332c-0,-0 -1.882,-2.895 -1.882,-2.895l-0.304,-0.456l-6.954,3.477l-7.239,4.653c0,0 -2.013,1.259 -2.013,1.259c-0,-0 -1.644,1.206 -1.644,1.206l-1.833,1.832c-0,-0 -2.222,1.666 -2.222,1.666c-0,0 -1.55,1.328 -1.55,1.328l-1.622,1.872c0,0 -1.839,1.839 -1.839,1.839c-0,0 -0.594,0.694 -0.594,0.694l-0.671,0.938c0,0 -1.739,1.988 -1.739,1.988c-0,0 -1.147,1.947 -1.162,1.973c-0,-0 -1.362,2.228 -1.362,2.228c0,-0 -0.849,1.807 -0.849,1.807c0,0 -0.582,1.974 -0.592,2.006c0,0 -0.781,2.48 -0.781,2.48c0,-0 -0.587,2.11 -0.587,2.11c-0,-0 -0.317,2.013 -0.317,2.013l0,3.618c0,-0 0.082,0.816 0.082,0.816c-0,-0 0.099,0.351 0.099,0.351c0,-0 1.049,2.326 1.049,2.326c-0,0 0.476,0.956 0.476,0.956l1.253,1.668c0,0 0.292,0.68 0.292,0.68l0.315,0.315c-0,0 1.13,1.438 1.13,1.438l1.118,0.621c-0,0 0.926,1.083 0.926,1.083l0.693,0.494c-0,0 0.502,0.431 0.502,0.431l0.608,0.203c0,-0 1.318,0.527 1.318,0.527c-0,-0 0.519,0.172 0.519,0.172l0.668,0c-0,0 1.139,0.383 1.139,0.383c-0,0 0.883,0.178 0.883,0.178c-0,0 1.09,0.09 1.09,0.09l1.696,-0.12c0,0 1.196,0 1.196,0l1.475,-0.424c-0,0 1.704,-0.363 1.704,-0.363c-0,-0 1.72,-0.646 1.72,-0.646c-0,0 1.683,-0.785 1.683,-0.785l26.82,-15.983l3.57,-0l2.167,0.542c0,-0 1.339,0.956 1.339,0.956l1.186,0.677c-0,0 1.005,1.002 1.009,1.006l1.06,1.064c-0,0 0.432,1.08 0.432,1.08c-0,0 0.119,0.199 0.119,0.199l1.036,1.302c0,0 0.248,2.225 0.248,2.225l0.285,2.444l0,3.02c0,-0 -0.261,1.582 -0.261,1.582l-0,1.831l-0.538,2.329c0,-0 -0.707,1.98 -0.707,1.98l-1.477,4.699c-0,0 -0.965,2.343 -0.965,2.343l-1.385,3.637c-0,-0 -2.152,1.76 -2.152,1.76l-3.519,3.113c0,0 -2.827,2.019 -2.827,2.019l-2.96,2.422c0,0 -3.592,2.349 -3.644,2.383c0,-0 -3.651,2.217 -3.651,2.217l-3.574,2.473c-0,-0 -4.342,2.101 -4.365,2.113c-0,-0 -3.98,1.857 -3.982,1.858l-2.242,1.043c0,-0 -1.98,0.568 -1.98,0.568l-2.347,0.881c-0,-0 -1.995,0.284 -1.995,0.284l-1.97,0.564c0,-0 -2.097,0.149 -2.097,0.149l-1.976,0.283l-1.371,-0c0,-0 -1.218,-0.305 -1.218,-0.305l-1.592,-0.145c0,0 -0.911,-0.303 -0.911,-0.303l-0.901,0.257c0,-0 -2.121,0.424 -2.166,0.433c-0,0 -3.081,0.536 -3.168,0.551c-0,0 -3.249,0.405 -3.249,0.405l-2.338,0.294l-6.391,-0c-0,-0 -2.338,-0.295 -2.427,-0.306l-2.435,-0.427c0,-0 -2.127,-0.501 -2.127,-0.501l-2.755,-0.306c0,-0 -2.249,-1.05 -2.249,-1.05l-2.377,-0.661l-2.644,-1.244c0,0 -2.227,-1.254 -2.234,-1.258l-1.251,-0.712c0,-0 -1.114,-0.973 -1.114,-0.973l-2.217,-1.386l-2.353,-2.356l-2.062,-1.912l-1.506,-2.085l-0.323,5.459c0,-0 -2.762,3.625 -2.762,3.625l-1.251,1.72c-0,0 -1.665,1.516 -1.665,1.516c-0,-0 -1.206,1.204 -1.206,1.204l-1.641,1.78l-1.73,1.57l-2.533,1.809l-0.621,0.179l-0.41,0.409l-2.076,1.04c0,-0 -0.688,0.114 -0.688,0.114l-0.742,0.425l-1.846,0.524l-2.811,0l-1.466,-0.484c0,0 -0.661,-0.267 -0.661,-0.267l-1.701,-0.566l-1.985,-1.588l-4.851,-13.669l-0.411,-4.194l-0.702,8.663c0,0 -3.515,1.283 -3.515,1.283l-3.584,1.652c0,0 -2.701,0.711 -2.701,0.711l-2.829,0.943c0,-0 -3.077,0.699 -3.14,0.713c0,0 -2.813,0.536 -2.813,0.536l-1.656,0.334l-4.69,0c0,0 -1.676,-0.337 -1.712,-0.345l-1.557,-0.345c0,-0 -1.237,-0.531 -1.26,-0.54l-2.122,-0.943c0,-0 -1.238,-1.734 -1.238,-1.734l-0.771,-1.077l-0.826,-1.45l-0.67,-2.232l0,-5.778c0,0 0.396,-1.98 0.396,-1.98l0,-21.033l-0.87,1.596c-0,-0 -2.213,4.425 -2.24,4.48c-0,0 -2.535,4.672 -2.552,4.703c-0,-0 -2.787,4.908 -2.792,4.917l-2.577,4.48c0,-0 -2.847,4.198 -2.847,4.198l-2.607,3.847c0,-0 -1.438,1.722 -1.481,1.773l-1.361,1.512c0,-0 -1.459,1.315 -1.468,1.323c-0,0 -1.118,0.994 -1.118,0.994l-1.328,1.328l-2.046,0.909l-1.664,0.472l-0.443,0l-1.001,0.334c0,0 -2.833,0.298 -2.833,0.298l-2.037,0.293l-4.303,0l-2.794,-0.331l-2.814,-0.879c0,0 -0.88,-0.503 -0.88,-0.503l-1.108,-0.314c-0,-0 -1.44,-1.032 -1.44,-1.032c-0,-0 -0.83,-0.592 -0.83,-0.592l-1.628,-1.018c0,-0 -1.196,-1.794 -1.196,-1.794l-0.745,-1.043l-0.873,-1.569l-0.655,-1.637l-0.474,-1.424l-0.539,-2.156c0,0 0,-2.037 0,-2.037l-0.263,-1.844c-0,-0 -0,-1.657 -0,-1.657l-1.508,-8.609l-1.936,5.585c-0,-0 -2.112,5.542 -2.112,5.542l-1.993,5.715c0,0 -2.384,5.827 -2.384,5.827l-2,5.466c0,-0 -2.428,5.397 -2.434,5.411l-2.296,4.995c0,0 -0.978,1.818 -0.994,1.849l-1.252,2.224l-1.084,1.704c0,0 -1.163,1.453 -1.163,1.453l-1.047,1.346l-1.241,1.241c-0,0 -1.114,0.557 -1.114,0.557l-1.128,0.757c0,0 -1.357,0 -1.357,0c0,0 -1.951,0.307 -1.951,0.307l-2.561,0.809c-0,-0 -3.496,0.437 -3.571,0.446l-3.392,0.283l-2.318,-0c-0,-0 -1.055,-0.264 -1.055,-0.264l-1.752,-0l-0.815,-0.349l-1.352,1.933l-2.321,3.412c-0,-0 -3.138,3.822 -3.173,3.863l-3.66,4.201c0,-0 -4.288,4.422 -4.307,4.442c-0,0 -2.225,2.225 -2.225,2.225c-0,0 -2.206,2.336 -2.208,2.338l-2.558,2.7c0,-0 -2.667,2.105 -2.667,2.106c-0,-0 -2.461,2.074 -2.507,2.112l-2.667,2.104c0,-0 -2.891,1.927 -2.924,1.949c0,-0 -2.934,1.867 -2.974,1.893c0,-0 -2.678,1.608 -2.69,1.616l-3.082,1.819c0,-0 -1.628,0.74 -1.681,0.764l-1.783,0.743c0,-0 -3.029,0.965 -3.029,0.965l-2.882,0.961l-1.861,0.463c0,0 -1.698,0.283 -1.698,0.283l-1.749,0.318l-8.241,0c-0,0 -3.034,-0.659 -3.034,-0.659l-0.711,-0c0,-0 -2.818,-0.28 -2.898,-0.288c0,-0 -1.666,-0.24 -1.666,-0.24l-2.776,0c-0,0 -1.434,-0.537 -1.434,-0.537c-0,-0 -0.933,-0.206 -1.006,-0.222c-0,-0 -2.578,-0.681 -2.645,-0.698l-3.394,-1.033c-0,-0 -1.521,-0.761 -1.521,-0.761c0,0 -1.111,-0.493 -1.186,-0.527c0,0 -3.18,-1.588 -3.18,-1.588l-1.903,-0.868c-0,0 -1.617,-1.453 -1.617,-1.453c-0,0 -1.431,-1.075 -1.431,-1.075c-0,0 -1.428,-1.038 -1.449,-1.053l-1.9,-1.423c-0,-0 -1.283,-1.445 -1.283,-1.445c0,0 -1.43,-1.561 -1.489,-1.625c0,0 -1.318,-1.581 -1.318,-1.581l-0.737,-0.804l-2.205,1.588l0,8.576c0,0 -3.979,2.235 -4.041,2.27c-0,0 -5.707,2.92 -5.707,2.92c0,-0 -3.929,2.095 -3.952,2.108c0,-0 -4.375,2.253 -4.429,2.281c0,0 -5.066,2.402 -5.103,2.419c0,0 -5.049,2.257 -5.115,2.287l-5.456,2.184c0,-0 -5.379,1.748 -5.379,1.748c0,0 -2.756,0.917 -2.756,0.917c-0,0 -2.769,0.923 -2.812,0.937l-5.221,1.596c0,-0 -2.649,0.141 -2.649,0.141l-2.261,0.502l-2.64,0.309l-2.582,-0c-0,-0 -2.102,-0.299 -2.126,-0.302l-1.96,-0.303c0,-0 -0.947,-0.269 -0.947,-0.269l-1.531,-0.259l-0.518,-0.414l-0.131,0.032c0,0 -2.033,0.291 -2.118,0.303l-3.029,0.289l-5.05,-0c-0,-0 -2.104,-0.301 -2.124,-0.304l-1.839,-0.283c-0,0 -1.796,-0.385 -1.796,-0.385l-2.35,-0.293c0,-0 -2.128,-0.758 -2.128,-0.758l-2.366,-0.698l-2.535,-1.109c0,-0 -2.06,-1.234 -2.06,-1.234l-2.504,-1.254c0,-0 -1.066,-0.76 -1.066,-0.76l-0.204,-0.127Zm0,-104.475l0.888,-1.387c0.042,-0.073 1.954,-3.385 1.954,-3.385c0,0 2.448,-3.609 2.448,-3.609c0.016,-0.024 2.457,-3.751 2.457,-3.751c0,0 2.652,-3.533 2.652,-3.533c-0,-0 3.015,-3.673 3.015,-3.673c0.032,-0.041 3.18,-4.105 3.18,-4.105c-0,-0 3.042,-3.804 3.042,-3.804c-0,-0 3.373,-3.501 3.373,-3.501c0.058,-0.067 1.824,-2.087 1.824,-2.087c-0,0 1.714,-1.715 1.714,-1.715l5.885,-5.492c-0,0 1.759,-1.631 1.759,-1.631c-0,0 4.238,-3.468 4.238,-3.468c-0,0 4.23,-3.334 4.23,-3.334c0,-0 4.458,-3.057 4.458,-3.057c-0,0 2.399,-1.513 2.399,-1.513c-0,-0 2.118,-1.248 2.118,-1.248c0,-0 2.464,-1.297 2.464,-1.297c0.035,-0.02 2.438,-1.353 2.438,-1.353c0.029,-0.017 2.281,-1.32 2.281,-1.32c-0,0 2.628,-1.003 2.628,-1.003l2.572,-1.218c0,-0 2.696,-1.156 2.696,-1.156c-0,0 2.342,-0.986 2.342,-0.986c-0,0 2.74,-0.872 2.74,-0.872c-0,0 2.413,-0.762 2.413,-0.762c-0,0 2.376,-0.619 2.376,-0.619c-0,-0 1.114,0.069 1.114,0.069c-0,0 1.83,0.539 1.83,0.539c0,-0 2.868,0.872 2.868,0.872c0,0 1.033,0.414 1.033,0.414c-0,-0 1.603,0.801 1.603,0.801c-0,0 1.584,0.926 1.584,0.926l1.749,0.873c-0,-0 1.156,0.771 1.156,0.771c0,-0 1.539,1.41 1.539,1.41l1.656,1.183c0,0 1.163,1.374 1.163,1.374l1.41,1.647c0,-0 1.061,1.698 1.061,1.698c0,-0 1.03,2.173 1.03,2.173c0,-0 0.38,1.012 0.38,1.012l0.5,1.126c-0,0 0.81,2.432 0.81,2.432c0,0 0.587,2.58 0.587,2.58c-0,0 0.206,1.439 0.206,1.439l-0,8.216c-0,-0 -0.212,1.691 -0.212,1.691c0,-0 -0.516,2.193 -0.516,2.193l-0.649,4.28c0,0 -0.593,2.135 -0.593,2.135c0,-0 -0.666,2.266 -0.666,2.266c-0.014,0.051 -0.628,2.388 -0.628,2.388l-1.753,4.756c0,0 -1.172,2.736 -1.172,2.736c-0.022,0.054 -1.161,2.966 -1.161,2.966c-0,0 -1.248,2.622 -1.248,2.622c0,-0 -1.478,2.956 -1.478,2.956l-0.223,0.513l-0.195,-0.046l-1.737,-0.313l-1.626,-0.118c-0,-0 -1.515,-0.466 -1.515,-0.466l-1.81,-0.34c0,0 -1.462,-0.731 -1.462,-0.731c-0.076,-0.033 -1.288,-0.572 -1.288,-0.572c-0.025,-0.011 -0.716,-0.305 -0.716,-0.305c0,-0 -1.975,-1.188 -1.975,-1.188l-0.504,-0.216c-0,0 -0.481,-0.48 -0.481,-0.48c-0.059,-0.054 -1.662,-1.524 -1.662,-1.524c-0.021,-0.018 -1.005,-0.893 -1.005,-0.893c0,0 -0.21,-0.251 -0.21,-0.251c0,-0 -0.603,-1.208 -0.603,-1.208l-0.435,-0.435l-0.082,-0.74l-0.934,-1.492c0,0 -1.603,-3.948 -1.603,-3.948c-0.01,-0.022 -1.078,-2.559 -1.078,-2.559c-0.015,-0.033 -0.817,-1.837 -0.817,-1.837l-1.946,-1.956l-5.45,0l0,3.94l-3.62,4.425c0,-0 -1.156,0.839 -1.156,0.839l-3.749,3.08c-0,0 -2.612,2.062 -2.612,2.062l-2.867,2.733c-0,-0 -3.169,2.904 -3.169,2.904c-0.029,0.028 -3.301,3.161 -3.301,3.161l-3.26,3.67c0,-0 -3.306,3.701 -3.306,3.701c-0.012,0.014 -1.871,2.138 -1.871,2.138c-0.012,0.014 -1.635,1.908 -1.635,1.908c-0.039,0.048 -1.814,2.267 -1.814,2.267l-1.338,2.41c-0,-0 -1.79,2.342 -1.79,2.342l-1.094,2.325c-0,0 -1.451,2.109 -1.451,2.109l-1.196,2.542c-0.012,0.028 -1.151,2.559 -1.151,2.559c-0,-0 -1.274,2.406 -1.274,2.406l-0.409,1.226c0,0 -0.581,1.16 -0.581,1.16l-0.876,3.332l-0,1.807c-0,-0 -0.264,4.088 -0.264,4.088l-0,3.054l0.29,3.191l0.561,3.504c0.017,0.084 0.691,3.322 0.691,3.322c0.018,0.071 0.448,1.788 0.448,1.788l0.632,1.898l0.601,1.322c0,-0 0.479,1.919 0.479,1.919l1.266,1.806c0,0 1.03,1.617 1.03,1.617l1.186,1.356l1.434,1.437l1.441,1.12l1.878,1.314l1.637,0.492c0,-0 1.848,0.851 1.848,0.851l2.622,0.564l4.619,0l1.411,-0.316c-0,0 0.932,-0.116 0.932,-0.116c0.051,-0.008 1.707,-0.263 1.707,-0.263c0,0 4.328,-0.523 4.328,-0.523c0.035,-0.004 6.55,-0.918 6.55,-0.918c0,-0 4.24,-0.409 4.24,-0.409l4.393,-0.992c0.079,-0.021 4.357,-1.19 4.357,-1.19c-0,0 4.589,-1.049 4.589,-1.049c0.048,-0.012 4.91,-1.262 4.91,-1.262l2.414,-0.994c0,-0 2.402,-0.885 2.402,-0.885c0,-0 4.874,-1.672 4.874,-1.672l4.381,-2.402c0.016,-0.009 2.222,-1.248 2.222,-1.248l1.963,-1.264c0.024,-0.015 1.978,-1.317 1.978,-1.317c0,0 3.166,-2.038 3.166,-2.038l0.939,-5.258c-0,-0 0.774,-4.257 0.774,-4.257c-0,-0 1.294,-5.564 1.294,-5.564c-0,0 1.571,-6.419 1.571,-6.419c0,0 0.9,-3.47 0.9,-3.47c-0,0 1.14,-3.799 1.14,-3.799c-0,-0 1.334,-3.736 1.334,-3.736l1.192,-4.372c0,0 1.239,-3.59 1.239,-3.59c-0,-0 1.819,-4.288 1.819,-4.288c0.022,-0.055 1.576,-4.071 1.576,-4.071c-0,-0 1.785,-4.082 1.785,-4.082c0,-0 2.059,-4.247 2.059,-4.247c0,0 2.068,-4.006 2.068,-4.006c0,-0 2.137,-3.894 2.137,-3.894c-0,-0 2.447,-3.607 2.447,-3.607c0.036,-0.058 1.215,-1.945 1.215,-1.945c0,0 1.365,-1.613 1.365,-1.613l2.459,-3.367c0,0 1.44,-1.559 1.44,-1.559c-0,0 1.533,-1.659 1.533,-1.659c-0,0 2.767,-2.768 2.767,-2.768c0,0 1.918,-1.369 1.918,-1.369l1.32,-1.452c-0,-0 1.71,-1.223 1.71,-1.223l1.367,-1.253c-0,-0 1.758,-0.878 1.758,-0.878l1.502,-0.878c0,0 2.051,-0.897 2.051,-0.897l1.715,-0.923c-0,-0 1.748,-0.765 1.748,-0.765c-0,-0 1.623,-0.464 1.623,-0.464c0.014,-0.004 1.971,-0.58 1.971,-0.58c-0,0 2.175,-0.271 2.175,-0.271l0.665,-0.222c-0,0 1.731,-0.495 1.731,-0.495c0,0 2.364,-0.62 2.364,-0.62c-0,0 3.082,-0.618 3.082,-0.618c-0,-0 3.64,-0.502 3.64,-0.502c0,-0 3.839,-0.372 3.839,-0.372l3.971,0c-0,0 2.268,0.254 2.268,0.254l2.045,0.119c-0,-0 2.478,0.551 2.478,0.551l0.863,-0c0,-0 0.455,0.151 0.455,0.151c0,0 1.518,0.675 1.518,0.675l0.88,0.111c0,0 1.607,0.903 1.607,0.903l1.72,0.803c0,-0 1.581,1.241 1.581,1.241c0.068,0.049 0.93,0.665 0.93,0.665c0,0 0.948,0.737 0.948,0.737c0,0 0.135,0.135 0.135,0.135c-0,-0 0.595,1.073 0.595,1.073l1.488,1.717c-0,-0 0.363,1.088 0.363,1.088l0.888,1.143c-0,0 0.246,0.822 0.246,0.822l0.51,1.274c0,-0 0.292,1.068 0.292,1.068c0,0 0.281,1.684 0.281,1.684l0.573,1.721c0,0 0.253,1.009 0.253,1.009l-0,11.946l3.611,16.605l6.424,-12.85l4.105,-10.063c0,-0 6.287,-13.358 6.287,-13.358c-0,0 3.695,-7.788 3.695,-7.788c0.005,-0.01 3.672,-7.866 3.672,-7.866c-0,0 3.899,-7.67 3.899,-7.67c-0,-0 4.039,-7.297 4.039,-7.297c0,0 3.731,-6.432 3.731,-6.432c-0,0 2.067,-2.971 2.067,-2.971c0.04,-0.064 1.89,-2.97 1.89,-2.97c0.003,-0.006 1.426,-2.258 1.426,-2.258c-0,0 1.974,-2.221 1.974,-2.221l1.465,-1.831c-0,-0 1.433,-1.314 1.433,-1.314c0.056,-0.056 0.217,-0.216 0.217,-0.216c-0,-0 0.728,-0.313 0.728,-0.313l0.385,-0.307l1.045,0.526l2.156,-0.62l0.069,-0.014l0.459,0.115l0.4,-0l1.162,0.483c0,-0 0.201,0.143 0.201,0.143c0,0 0.66,0.791 0.66,0.791l0.872,0.623c-0,0 0.66,0.849 0.66,0.849l0.923,1.055c0,0 0.498,0.64 0.498,0.64c-0,-0 0.576,1.613 0.576,1.613l0.958,1.642c-0,0 1.662,4.155 1.662,4.155c-0,-0 0.632,2.403 0.632,2.403l0.928,2.784c0,-0 0.728,2.668 0.728,2.668c-0,-0 0.655,3.406 0.655,3.406l0.877,3.386c0,-0 0.379,4.161 0.379,4.161l0.649,4.29c0,0 0.259,4.658 0.259,4.658c0.009,0.085 0.531,5.177 0.531,5.177c-0,0 1.364,18.639 1.364,18.639l10.158,-20.317c0,0 4.57,-8.615 4.57,-8.615c-0,0 5.356,-9.407 5.356,-9.407c-0,0 2.972,-4.911 2.972,-4.911c0,-0 2.99,-4.549 2.99,-4.549c-0,-0 2.902,-4.354 2.902,-4.354c0.008,-0.012 2.352,-3.587 2.352,-3.587c-0,-0 1.39,-1.519 1.39,-1.519l0.955,-1.313c-0,0 1.239,-1.124 1.239,-1.124l0.835,-0.837l0.973,0l0.396,-0.527l0.615,-0l1.385,-0.693l0.807,-0.646l0.707,-0.449l0.384,-0.077l1.461,-0.647c0,-0 0.715,-0.27 0.715,-0.27l1.728,-0.384l2.461,0c-0,0 1.581,0.264 1.581,0.264l1.515,0c-0,0 1.844,0.661 1.844,0.661l0.966,0c0,0 1.389,0.461 1.389,0.461l1.076,0.12c-0,-0 0.833,0.333 0.833,0.333c-0,-0 1.267,0.528 1.267,0.528c-0,-0 1.065,0.678 1.065,0.678c0,-0 0.894,0.67 0.894,0.67c0,0 0.42,0.702 0.42,0.702l1.185,0.844c-0,-0 0.591,0.688 0.591,0.688l0.541,0.543c0,-0 0.164,0.229 0.164,0.229c0,0 0.318,0.956 0.318,0.956l1.213,2.285c-0,-0 0.404,1.112 0.404,1.112c0,-0 0.299,0.994 0.299,0.994c-0,0 0.254,1.537 0.254,1.537l0.39,1.431c0,-0 0.19,1.231 0.19,1.231c-0,0 -0,1.508 -0,1.508l0.392,9.807l-1.307,27.735l-3.9,48.17l-2.656,1.224c0,-0 -2.309,0.608 -2.309,0.608l-2.711,0.903c0,0 -2.663,0.605 -2.663,0.605c0,0 -2.725,0.519 -2.725,0.519c-0.019,0.004 -0.978,0.198 -0.978,0.198l-3.227,-0c-0,-0 -0.925,-0.187 -0.925,-0.187c-0,0 -0.818,-0.181 -0.818,-0.181c0,-0 -0.586,-0.251 -0.586,-0.251c0,-0.001 -0.252,-0.112 -0.252,-0.112l-0.632,-0.883c0,-0 -0.225,-0.396 -0.225,-0.396c-0,-0 -0.122,-0.405 -0.122,-0.405l0,-3.978c0,-0 0.396,-1.98 0.396,-1.98l-0,-37.949l-6.972,-1.572l-3.855,8.11c-0.028,0.065 -1.542,3.597 -1.542,3.597c-0,0 -2.323,4.258 -2.323,4.258c-0.029,0.059 -2.244,4.488 -2.244,4.488c0,-0 -2.459,4.532 -2.459,4.532c-0,0 -2.747,4.839 -2.747,4.839c-0,-0 -2.432,4.227 -2.432,4.227c0,0 -2.695,3.975 -2.695,3.975c-0.001,0 -2.401,3.543 -2.401,3.543c-0,-0 -1.16,1.387 -1.16,1.387c0,0 -1.013,1.127 -1.013,1.127c-0,-0 -1.166,1.05 -1.166,1.05c0,-0 -1.26,1.12 -1.26,1.12l-0.518,0.518c0,0 -0.327,0.146 -0.327,0.146c-0,-0 -0.183,0.052 -0.183,0.052c-0,-0 -0.612,-0 -0.612,-0l-1.373,0.457c-0,0 -2.178,0.229 -2.178,0.229c-0.069,0.01 -1.656,0.239 -1.656,0.239l-3.346,-0c-0,-0 -1.69,-0.201 -1.69,-0.201c-0,0 -1.406,-0.439 -1.406,-0.439c-0,0 -0.966,-0.552 -0.966,-0.552l-0.739,-0.209l-1.423,-1.018l-0.482,-0.301c0,0 -0.386,-0.58 -0.386,-0.58c-0.035,-0.048 -0.574,-0.803 -0.574,-0.803c-0,0 -0.446,-0.801 -0.446,-0.801c0,0 -0.4,-1.001 -0.4,-1.001c-0,-0 -0.317,-0.953 -0.317,-0.953c-0,-0 -0.253,-1.01 -0.253,-1.01c0,0 0,-1.656 0,-1.656l-0.264,-1.844c0,-0 0,-1.772 0,-1.772l-4.143,-23.657l-7.117,-0.421l-0.778,2.593c-0,-0 -2.218,6.784 -2.218,6.784c-0,0 -3.401,9.808 -3.401,9.808c0,0 -2.108,5.536 -2.108,5.536c-0.018,0.049 -1.964,5.631 -1.964,5.631c0,-0 -2.363,5.775 -2.363,5.775c-0.024,0.065 -1.957,5.348 -1.957,5.348c0,-0 -2.313,5.143 -2.313,5.143c-0,0 -2.188,4.76 -2.188,4.76c-0,-0 -0.852,1.584 -0.852,1.584c-0,0 -1.122,1.992 -1.122,1.992c0,0 -0.763,1.201 -0.763,1.201c-0,0 -0.946,1.181 -0.946,1.181c-0.017,0.021 -0.8,1.028 -0.8,1.028c0,0 -0.078,0.078 -0.078,0.078l-0.102,0.051l-2.788,0.438l-2.451,0.774c0,0 -2.759,0.345 -2.759,0.345c-0,0 -2.938,0.245 -2.938,0.245c-0,-0 -1.111,-0 -1.111,-0c-0,-0 -1.055,-0.264 -1.055,-0.264l-1.15,0c0,0 -0.133,-0.057 -0.133,-0.057l-0.223,-0.111l-2.731,-4.078l-4.72,6.287c-0.035,0.05 -1.895,2.709 -1.895,2.709c-0.013,0.02 -2.163,3.179 -2.163,3.179c0,-0 -2.894,3.525 -2.894,3.525c0,0 -3.461,3.973 -3.461,3.973c-0,-0 -4.133,4.261 -4.133,4.261c-0,0 -2.259,2.259 -2.259,2.259c-0.036,0.038 -2.276,2.41 -2.276,2.41c-0,0 -2.19,2.312 -2.19,2.312c-0,-0 -2.344,1.851 -2.344,1.851c-0.045,0.037 -2.505,2.111 -2.505,2.111c-0,0 -2.345,1.849 -2.345,1.849c0,-0 -2.615,1.743 -2.615,1.743c0,0 -2.828,1.801 -2.828,1.801c-0.001,-0 -2.586,1.552 -2.586,1.552c0,0 -2.72,1.606 -2.72,1.606c-0,0 -1.22,0.555 -1.22,0.555c-0,-0 -1.383,0.576 -1.383,0.576c-0,0 -2.774,0.884 -2.774,0.884c-0.023,0.008 -2.657,0.886 -2.657,0.886c0,0 -1.304,0.325 -1.304,0.325c0,-0 -1.467,0.244 -1.467,0.244c-0.026,0.005 -1.152,0.209 -1.152,0.209l-6.793,0c-0,0 -3.033,-0.659 -3.033,-0.659l-1.136,0c0,0 -2.377,-0.236 -2.377,-0.236c0,0 -2.026,-0.291 -2.026,-0.291l-1.972,-0c0,-0 -0.676,-0.254 -0.676,-0.254l-1.368,-0.302c0,0 -2.367,-0.624 -2.367,-0.624c0,-0 -2.672,-0.814 -2.672,-0.814c0,0 -1.117,-0.558 -1.117,-0.558c-0.076,-0.034 -1.188,-0.528 -1.188,-0.528c0,-0 -3.149,-1.573 -3.149,-1.573c-0.059,-0.027 -0.999,-0.455 -0.999,-0.455c0,-0 -1.02,-0.917 -1.02,-0.917l-1.734,-1.303c-0.023,-0.016 -1.453,-1.057 -1.453,-1.057c-0,0 -1.265,-0.947 -1.265,-0.947c0,0 -0.828,-0.932 -0.828,-0.932c-0.02,-0.022 -1.412,-1.541 -1.412,-1.541c0,0 -1.319,-1.583 -1.319,-1.583c-0.06,-0.065 -1.358,-1.48 -1.358,-1.48c-0,0 -3.326,-4.66 -3.326,-4.66l-11.102,7.997l0,8.04c0,0 -0.178,0.1 -0.178,0.1c-0,0 -5.636,2.884 -5.636,2.884c-0.027,0.014 -3.961,2.112 -3.961,2.112c0,0 -4.275,2.202 -4.275,2.202c0,0 -4.919,2.333 -4.919,2.333c-0,-0 -4.908,2.194 -4.908,2.194c-0,-0 -5.095,2.039 -5.095,2.039c-0,0 -5.171,1.681 -5.171,1.681c-0.012,0.004 -2.783,0.926 -2.783,0.926c-0.001,-0 -2.727,0.909 -2.727,0.909c0,-0 -4.275,1.306 -4.275,1.306c-0,-0 -2.362,0.126 -2.362,0.126l-2.487,0.553c0,-0 -1.844,0.215 -1.844,0.215c0,0 -1.638,0 -1.638,0c0,0 -1.567,-0.222 -1.567,-0.222c-0,-0 -1.469,-0.228 -1.469,-0.228c0,0 -0.899,-0.255 -0.899,-0.255l-0.052,-0.009l-0.11,-0.088l-2.172,-1.303l-2.871,0.718c-0,-0 -1.574,0.225 -1.574,0.225c-0,-0 -2.511,0.239 -2.511,0.239l-4.181,-0c-0,-0 -1.569,-0.224 -1.569,-0.224c-0,-0 -1.59,-0.245 -1.59,-0.245c0,0 -1.897,-0.406 -1.897,-0.406l-1.87,-0.234c-0,-0 -1.565,-0.557 -1.565,-0.557l-2.118,-0.625c0,-0 -1.685,-0.737 -1.685,-0.737c-0,-0 -1.897,-1.136 -1.897,-1.136l-2.243,-1.124c-0,-0 -0.78,-0.556 -0.78,-0.556l-0.901,-0.564c0,0 -1.97,-1.722 -1.97,-1.722l-1.186,-0.923l-0.222,-0.194l0,-95.106Zm0,-13.677l1.747,-2.666c-0,0 2.839,-3.784 2.888,-3.848c-0,0 3.051,-3.716 3.051,-3.716c-0,-0 3.133,-4.045 3.15,-4.068l3.289,-4.112c-0,-0 3.484,-3.617 3.484,-3.617l1.869,-2.138c0,0 1.933,-1.933 1.978,-1.978l5.985,-5.586l1.934,-1.793c-0,-0 4.44,-3.633 4.466,-3.654l4.474,-3.527c-0,-0 4.716,-3.234 4.774,-3.274c-0,0 2.565,-1.618 2.612,-1.648c0,0 2.29,-1.349 2.366,-1.393c-0,-0 2.547,-1.341 2.547,-1.341c0,0 2.31,-1.281 2.309,-1.281l2.732,-1.581c-0,-0 2.911,-1.111 2.911,-1.111c-0,-0 2.377,-1.126 2.439,-1.156c-0,0 2.832,-1.214 2.843,-1.218l2.669,-1.124c0,-0 3.06,-0.974 3.064,-0.975l2.598,-0.82l3.691,-0.963l3.106,0.194c-0,0 2.636,0.776 2.653,0.78l3.199,0.974l1.605,0.642l2.089,1.045c0,-0 1.582,0.924 1.582,0.924l1.943,0.97l2.009,1.339c-0,-0 1.626,1.491 1.626,1.491l2.037,1.455c-0,-0 1.738,2.054 1.738,2.054l1.755,2.05l1.577,2.522l1.344,2.835c-0,0 0.411,1.098 0.411,1.098l0.555,1.251l1.036,3.107l0.732,3.223l0.322,2.25l0,9.193l-0.316,2.532c-0,0 -0.539,2.287 -0.539,2.287l-0.67,4.424c0,0 -0.718,2.587 -0.726,2.614c0,-0 -0.652,2.218 -0.652,2.218l-0.691,2.626l-1.94,5.264c0,-0 -1.201,2.803 -1.201,2.803l-1.213,3.1c-0,0 -1.375,2.889 -1.39,2.921c-0,0 -1.423,2.846 -1.423,2.846l-2.238,5.144l-3.75,0c0,0 -2.562,-0.603 -2.562,-0.603c-0,0 -1.164,-0.21 -1.164,-0.21l-2.067,-0.15c-0,0 -1.914,-0.589 -1.914,-0.589l-2.411,-0.451c0,-0 -2.23,-1.116 -2.23,-1.116c-0,0 -1.086,-0.482 -1.086,-0.482l-1.131,-0.483c0,0 -1.981,-1.19 -1.981,-1.19l-1.342,-0.575c0,-0 -1.365,-1.366 -1.365,-1.366c-0,0 -1.503,-1.378 -1.503,-1.378l-1.37,-1.217l-1.108,-1.327c-0,-0 -0.452,-0.906 -0.452,-0.906l-1.412,-1.408c0,-0 -0.181,-1.638 -0.181,-1.638l-0.385,-0.614l-0.936,-2.305l-1.959,2.394c0,0 -1.745,1.267 -1.745,1.267c-0,0 -3.608,2.964 -3.636,2.987c0,-0 -2.399,1.894 -2.399,1.894c-0,0 -2.646,2.522 -2.672,2.546c-0,0 -3.162,2.899 -3.162,2.899c0,-0 -3.029,2.901 -3.029,2.901c-0,0 -3.068,3.453 -3.071,3.456c0,0 -3.288,3.681 -3.288,3.681c0,-0 -1.821,2.082 -1.821,2.082c-0,-0 -1.53,1.785 -1.53,1.785c-0,-0 -1.352,1.689 -1.352,1.689l-1.299,2.338c0,-0 -1.639,2.145 -1.639,2.145l-1.016,2.159c0,-0 -1.45,2.108 -1.45,2.108c0,-0 -0.915,1.945 -0.915,1.945l-1.222,2.717c-0,-0 -1.1,2.077 -1.1,2.077l-0.383,1.148c0,-0 -0.474,0.947 -0.474,0.947c0,-0 -0.442,1.679 -0.442,1.679l0,1.095c0,-0 -0.264,4.088 -0.264,4.088c0,0 0,2.485 0,2.485c0,0 0.238,2.612 0.238,2.612c-0,0 0.494,3.09 0.494,3.09c0,-0 0.627,3.011 0.627,3.011c0,0 0.344,1.374 0.344,1.374c0,0 0.423,1.267 0.423,1.267l0.718,1.58c-0,0 0.312,1.25 0.312,1.25c-0,-0 0.533,0.761 0.58,0.828c-0,-0 0.817,1.284 0.817,1.284c0,-0 0.66,0.754 0.66,0.754c0,-0 0.94,0.941 0.94,0.941c-0,-0 0.933,0.726 0.933,0.726c-0,-0 0.76,0.532 0.76,0.532l1,0.3c-0,-0 1.581,0.728 1.581,0.728c0,-0 1.071,0.23 1.071,0.23l3.029,0l0.964,-0.215c-0,-0 1.177,-0.147 1.177,-0.147c0,-0 1.664,-0.256 1.722,-0.265c0,-0 4.377,-0.529 4.377,-0.529c-0,0 6.559,-0.92 6.638,-0.931c-0,-0 3.937,-0.379 3.937,-0.379c-0,-0 3.783,-0.855 3.783,-0.855c-0,0 4.273,-1.167 4.347,-1.187c0,-0 4.643,-1.061 4.643,-1.061c-0,-0 4.321,-1.111 4.321,-1.111c0,-0 2.006,-0.827 2.07,-0.853c0,0 2.57,-0.947 2.609,-0.961c0,-0 4.358,-1.494 4.358,-1.494c0,-0 3.796,-2.082 3.796,-2.082c0,0 1.998,-1.122 1.998,-1.122c-0,0 1.73,-1.114 1.73,-1.114c-0,0 1.955,-1.301 1.978,-1.317c-0,0 0.527,-0.339 0.527,-0.339c0,-0 0.379,-2.121 0.38,-2.127c0,0 0.792,-4.356 0.808,-4.443c0,-0 1.339,-5.758 1.344,-5.779c0,0 1.588,-6.484 1.594,-6.508c-0,-0 0.929,-3.585 0.946,-3.652l1.234,-4.114c0,0 1.304,-3.649 1.304,-3.649l1.181,-4.332l1.4,-4.059c-0,0 1.873,-4.413 1.873,-4.413c-0,0 1.561,-4.035 1.59,-4.109c-0,0 1.878,-4.293 1.906,-4.358c0,-0 2.142,-4.417 2.162,-4.458c-0,0 2.131,-4.129 2.152,-4.17l2.348,-4.279c-0,0 2.564,-3.779 2.564,-3.779l1.422,-2.275c-0,0 1.536,-1.816 1.536,-1.816l2.553,-3.494c-0,-0 1.725,-1.869 1.725,-1.87c0,0 1.584,-1.713 1.633,-1.766l3.298,-3.299c0,-0 1.775,-1.268 1.775,-1.268l1.318,-1.45c0,0 1.983,-1.418 1.983,-1.418l1.798,-1.648c0,-0 2.462,-1.229 2.462,-1.229l1.663,-0.972c0,0 2.169,-0.949 2.169,-0.949l1.714,-0.923l2.473,-1.082c-0,0 2.069,-0.591 2.069,-0.591l2.513,-0.739c0,-0 2.045,-0.256 2.045,-0.256c-0,0 0.051,-0.017 0.127,-0.042c-0,0 1.923,-0.549 1.961,-0.56l2.648,-0.695l3.512,-0.705c-0,0 3.935,-0.542 4.009,-0.552l4.338,-0.42l4.733,-0c0,-0 2.48,0.277 2.48,0.277l2.438,0.142c0,-0 2.27,0.504 2.27,0.504l1.247,-0l1.919,0.639c-0,0 0.856,0.381 0.856,0.381l1.23,0.156c-0,-0 2.613,1.468 2.613,1.468l2.236,1.043c0,0 2.113,1.66 2.113,1.66c-0,-0 0.855,0.61 0.915,0.654l1.426,1.109l1.185,1.184c-0,0 0.723,1.305 0.723,1.305l1.941,2.239c0,0 0.428,1.282 0.428,1.282l0.959,1.235c-0,-0 0.545,1.816 0.545,1.816l0.544,1.36l0.5,1.832c0,0 0.247,1.482 0.247,1.482l0.481,1.443l0.539,2.157l0,3.846l0.103,-0.252c-0,0 6.371,-13.537 6.374,-13.542c-0,-0 3.69,-7.778 3.69,-7.778c-0,0 3.688,-7.9 3.714,-7.956c-0,-0 3.984,-7.838 4.013,-7.895c0,-0 4.12,-7.442 4.138,-7.474l3.918,-6.756c0,-0 2.153,-3.096 2.153,-3.096c0,0 1.803,-2.832 1.803,-2.832l1.739,-2.754c0,-0 2.246,-2.527 2.246,-2.527l1.7,-2.125c0,0 1.733,-1.588 1.733,-1.588l1.102,-1.102c-0,0 1.117,-0.479 1.117,-0.479l0.691,-0.551l1.528,-0.615l1.485,-0.248l1.062,0l1.022,0.205l1.022,-0.205l1.473,0c-0,0 0.527,0.132 0.527,0.132l0.919,0c-0,0 1.318,0.531 1.336,0.538l1.986,0.825l1.646,1.176c-0,-0 0.659,0.791 0.659,0.791l0.974,0.696c0,0 1.186,1.525 1.186,1.525l0.923,1.055l1.349,1.734c0,0 0.743,2.08 0.743,2.08l0.888,1.523l2.031,5.077c0,-0 0.687,2.611 0.687,2.611l0.918,2.752l0.855,3.135c-0,-0 0.664,3.452 0.664,3.452l0.969,3.739c-0,-0 0.412,4.539 0.412,4.539l0.669,4.418l0.138,2.472l3.027,-5.707c-0,0 5.434,-9.545 5.458,-9.587c0,-0 3.059,-5.053 3.094,-5.112c-0,0 3.07,-4.672 3.077,-4.682c0,-0 2.9,-4.351 2.9,-4.351l2.66,-4.058c0,0 1.511,-1.65 1.511,-1.65l1.156,-1.588c-0,-0 1.662,-1.51 1.662,-1.51l0.947,-0.949l2.184,-1.911l0.073,0l0.395,-0.527l1.765,-0l0.986,-0.329l1.648,-1.048c-0,-0 0.934,-0.187 0.934,-0.187l0.913,-0.405l1.395,-0.525l3.02,-0.671l3.873,-0c0,-0 1.581,0.263 1.581,0.263l2.181,0c0,0 1.845,0.662 1.845,0.662l0.876,-0c0,-0 1.78,0.59 1.78,0.59l1.298,0.145c0,-0 1.781,0.712 1.805,0.721l1.898,0.791l1.836,1.169l2.271,1.703c0,-0 0.372,0.621 0.372,0.621l0.661,0.471c0,0 0.995,1.158 0.995,1.158l0.768,0.77l0.225,-2.751c-0,-0 1.139,-1.595 1.139,-1.595l1.683,-2.944c-0,-0 3.279,-3.672 3.279,-3.672l0.71,-1.282c-0,0 1.291,-1.289 1.333,-1.33c-0,-0 2.15,-2.015 2.15,-2.015c0,0 2.237,-2.106 2.28,-2.147l2.371,-2.092l1.348,-1.05l1.565,-1.094c-0,0 1.562,-0.852 1.562,-0.852l1.601,-0.961c0,0 1.78,-0.591 1.78,-0.591c0,-0 1.272,-0.58 1.354,-0.617l1.629,-0.649l1.961,-0.493c0,0 1.703,-0.284 1.703,-0.284l1.749,-0.318l2.218,0l3.377,0.564l5.543,7.76l-0.826,43.622c-0,0 -4.076,11.309 -4.076,11.309l-0,7.611l3.24,-5.986l1.734,-3.467c-0,0 2.163,-3.781 2.186,-3.823c0,0 2.267,-3.734 2.292,-3.774l2.506,-3.899c-0,0 2.825,-3.498 2.825,-3.498c0,0 2.573,-3.604 2.598,-3.64l2.932,-3.906c0,-0 3.372,-3.506 3.372,-3.506l2.972,-3.513c-0,0 3.567,-3.293 3.567,-3.293l3.496,-3.361l1.755,-1.462l2.291,-1.719c-0,0 1.957,-1.258 1.976,-1.27c0,-0 2.095,-1.311 2.095,-1.311c-0,0 3.792,-2.484 3.806,-2.493l1.99,-1.28l2.501,-1.322l4.38,-1.918l2.429,-0.999c0,-0 2.261,-0.707 2.291,-0.717l2.47,-0.725c-0,-0 2.206,-0.39 2.206,-0.39l2.716,-0.857c-0,-0 2.743,-0.153 2.743,-0.153l4.179,-0.44l0.881,-0.489c-0,0 1.645,-0.494 1.645,-0.494l1.768,-0.589l2.501,-0.469l2.843,-0.299l1.914,0c0,0 1.364,0.304 1.364,0.304c0,-0 0.921,0.092 0.921,0.092l1.974,-0c0,-0 1.974,0.789 2.053,0.821c-0,-0 1.527,0.694 1.589,0.722l1.704,0.852l1.577,1.227c-0,-0 1.416,1.275 1.423,1.281l1.791,1.628c0,0 1.289,1.932 1.288,1.932l1.343,1.942c-0,0 1.002,2.143 1.002,2.143l0.852,1.538c0,0 0.312,1.396 0.312,1.396l0.852,2.069l1.031,3.093c0,-0 0.701,3.374 0.701,3.374l0.736,3.534c0,-0 0,2.227 0,2.227l0.016,0.107l1.329,-1.33c0,0 3.476,-3.075 3.476,-3.075c0,0 3.919,-3.659 3.965,-3.702l4.264,-3.712c0,-0 2.363,-1.707 2.363,-1.707l2.227,-1.967l2.742,-2.02c0,-0 2.506,-1.583 2.506,-1.583c0,0 4.908,-3.615 4.977,-3.665l5.297,-3.533l5.372,-3.167c0,-0 2.916,-1.389 2.981,-1.42c-0,0 2.834,-1.215 2.903,-1.245c0,0 2.842,-1.082 2.861,-1.089l2.652,-0.977c0,0 2.877,-0.822 2.877,-0.822c0,-0 1.074,-0.322 1.074,-0.322l2.036,-0.906l2.736,0.546c0,0 1.451,0.528 1.452,0.528l1.893,0.379l2.394,0.747l2.55,0.957l0.348,0.217l-0,-49.799l-22.686,0l0,-109.99l-37.32,-0l-0,137.42l-10.684,-0l-0,-27.43l-27.298,0l0,-30.334l23.343,-0l0,-26.113l-23.343,0l0,-25.978l24.794,-0l-0,-27.565l-62.116,-0l0,137.42l-25.189,-0l9.627,-68.71l9.364,-68.71l-39.301,-0l-1.451,12.794l-1.055,12.923l-0.659,7.781l-0.923,7.912l-0.791,8.573l-0.924,8.704l-0.659,8.836l-0.923,9.231l-0.661,9.364l-0.658,9.891l-0.659,-10.155l-0.924,-10.55l-1.188,-11.21l-1.185,-11.606l-1.055,-12.396l-1.583,-12.793l-1.451,-13.32l-1.582,-13.979l-39.433,-0l21.629,137.42l-27.563,-0l-0,-46.95l-0.132,-2.769l-0,-2.242l-0.264,-2.111l-0.264,-1.318l-0.263,-1.187l-0.66,-1.847l-0.923,-1.976l-1.319,-2.112l-1.846,-2.242l-2.374,-2.11l-3.167,-1.846l-1.978,-0.658l-2.11,-0.925l-2.504,-0.659l-2.77,-0.792l3.034,-0.395l2.637,-0.396l2.374,-0.791l2.24,-0.66l3.695,-1.846l1.319,-1.053l1.186,-1.451l0.924,-1.584l0.923,-1.847l0.659,-2.241l0.66,-2.506l0.527,-2.77l0.264,-3.297l0.132,-3.429l-0,-7.912l-0.396,-4.219l-0.527,-3.562l-0.396,-3.297l-0.923,-3.166l-0.923,-2.769l-1.187,-2.506l-1.319,-1.978l-3.165,-3.693l-3.693,-3.033l-4.088,-1.978l-4.352,-1.451l-2.638,-0.396l-3.167,-0.263l-3.691,-0.526l-3.956,-0.134l-2.825,-0.157l-5.91,-0.106l-1.288,-0l-5.803,-0.264l-32.708,-0l-0,137.42l-6.46,-0l-5.144,-34.421l-5.275,-34.289l-5.539,-34.289l-5.275,-34.421l-53.808,-0l-9.363,68.71l-9.627,68.71l-6.463,-0l0,-137.42l-48.532,-0l-4.088,32.047l-4.352,32.047l-2.77,-17.408l-2.769,-17.407l-1.055,-8.178l-0.923,-7.517l-1.187,-7.122l-1.187,-6.462l-48.005,-0l0,250.738Zm135.322,25.281l-1.256,3.491l-0.995,3.411l-0.674,3.233c0,0 -0.407,1.628 -0.407,1.628l-0.314,1.729l-0.294,3.23l0,6.331l0.264,1.321c-0,-0 -0,1.409 -0,1.409l0.52,2.949l0.954,2.315c0,0 0.275,1.239 0.275,1.239l0.667,1.497c-0,0 0.541,1.266 0.541,1.266l0.856,1.199c-0,-0 0.604,0.906 0.604,0.906l0.698,0.835c-0,0 1.173,1.642 1.173,1.642l1.218,0.525c0,-0 0.306,0.305 0.306,0.305l0.892,0.713l1.522,1.09l1.771,0.503l0.478,0.069c0,-0 1.164,0.663 1.164,0.663l1.38,-0c0,-0 0.924,0.263 0.924,0.263l2.213,0l1.383,-0.395c0,0 2.095,-0.556 2.095,-0.556l2.038,-0.73c0.046,-0.018 2.791,-1.086 2.791,-1.086l2.396,-1.595l2.287,-1.717l2.044,-1.75l1.099,-1.101l1.171,-1.316c0.046,-0.055 2.009,-2.441 2.009,-2.441l3.579,-5.369c0.045,-0.074 1.717,-2.859 1.717,-2.859l1.566,-3.277l1.389,-3.334c0.031,-0.085 1.256,-3.489 1.256,-3.489l0.986,-3.378l0.662,-2.911c-0,-0 0.641,-2.245 0.641,-2.245l-0,-1.88c-0,-0 0.124,-2.743 0.124,-2.743c0,-0 0.286,-3.29 0.286,-3.29l-0.278,-2.929c-0,0 -0,-1.311 -0,-1.311l-0.167,-1.829l-0.601,-2.857l-0.665,-2.261c-0,-0 -0.399,-1.795 -0.399,-1.795l-0.725,-1.015c-0,0 -0.264,-0.923 -0.264,-0.923l-0.798,-1.117c0,0 -0.574,-1.338 -0.574,-1.338l-1.186,-1.019c0,0 -0.621,-0.931 -0.621,-0.931l-1.588,-1.135l-0.255,-0.152c0,-0 -0.825,-0.988 -0.825,-0.988l-2.863,-1.227l-1.639,-0.472l-0.93,0c-0,0 -0.532,-0.151 -0.532,-0.151l-2.201,-0.492l-1.327,0.381c0,0 -0.648,0 -0.648,0l-2.731,0.362l-2.625,1.148c-0.04,0.019 -2.221,1.037 -2.221,1.037l-2.432,1.52l-2.33,1.747l-1.951,1.672c-0.014,0.013 -1.333,1.167 -1.333,1.167l-1.073,1.38c-0,0 -1.878,2.146 -1.878,2.146l-2.064,2.801l-1.604,2.81c-0,-0 -2.001,2.856 -2.001,2.856l-1.332,3.406c-0,-0 -1.338,3.209 -1.338,3.209Zm11.903,36.172l-0.682,-0.389l-1.368,-0.198c-0,0 -0.075,-0.021 -0.075,-0.021c-0,0 -0.325,-0.233 -0.325,-0.233c0,0 -0.427,-0.341 -0.427,-0.341c0,-0 -1.013,-1.01 -1.013,-1.01l-0.627,-0.27l-0.146,-0.205l-0.622,-0.744c0,-0 -0.45,-0.676 -0.45,-0.676c-0.035,-0.048 -0.463,-0.648 -0.463,-0.648c-0,0 -0.25,-0.584 -0.25,-0.584c-0.011,-0.025 -0.389,-0.873 -0.389,-0.873c0,-0 -0.252,-1.139 -0.252,-1.139l-0.893,-2.165c0,-0 -0.27,-1.535 -0.27,-1.535c-0,0 -0,-1.492 -0,-1.492l-0.264,-1.32l-0,-5.275c-0,0 0.234,-2.573 0.234,-2.573c-0,0 0.213,-1.172 0.213,-1.172c-0,-0 0.384,-1.537 0.384,-1.537c0.015,-0.071 0.645,-3.094 0.645,-3.094l0.851,-2.919l1.118,-3.107c0,-0 1.3,-3.117 1.3,-3.117c0.015,-0.038 1.042,-2.665 1.042,-2.665c-0,0 1.692,-2.415 1.692,-2.415l1.56,-2.733c0,0 1.629,-2.21 1.629,-2.21c0,-0 1.815,-2.075 1.815,-2.075l0.773,-0.993c-0,-0 0.777,-0.68 0.777,-0.68c-0,-0 1.741,-1.493 1.741,-1.493c0,0 1.891,-1.417 1.891,-1.417c-0,-0 1.788,-1.118 1.788,-1.118c-0,-0 1.735,-0.81 1.735,-0.81c0,0 1.595,-0.698 1.595,-0.698c0,0 1.226,-0.162 1.226,-0.162c0,-0 1.198,-0 1.198,-0l0.52,-0.15c0,0 0.173,0.039 0.173,0.039c0,-0 1.314,0.373 1.314,0.373l0.917,-0c-0,-0 0.207,0.059 0.207,0.059l0.829,0.356c0,-0 0.494,0.591 0.494,0.591l1.064,0.638c0,0 0.258,0.185 0.258,0.185c0,-0 0.434,0.651 0.434,0.651l0.661,0.568c0,-0 0.217,0.504 0.217,0.504l0.521,0.729c-0,0 0.264,0.923 0.264,0.923l0.593,0.832c0,-0 0.129,0.579 0.129,0.579l0.654,2.223c-0,-0 0.453,2.155 0.453,2.155c0,-0 0.098,1.072 0.098,1.072c-0,-0 -0,1.326 -0,1.326l0.248,2.611c0,-0 -0.241,2.776 -0.241,2.776c-0.003,0.076 -0.139,3.06 -0.139,3.06l-0,1.021c-0,0 -0.414,1.452 -0.414,1.452l-0.657,2.891c-0,-0 -0.861,2.948 -0.861,2.948c0,0 -1.118,3.106 -1.118,3.106c-0,0 -1.248,2.996 -1.248,2.996c-0,-0 -1.335,2.793 -1.335,2.793c-0,0 -1.449,2.413 -1.449,2.413l-3.279,4.918c0,-0 -1.684,2.046 -1.684,2.046c0,0 -0.938,1.054 -0.938,1.054c0,0 -0.748,0.75 -0.748,0.75c0,-0 -1.648,1.411 -1.648,1.411c-0,-0 -1.933,1.451 -1.933,1.451c-0,0 -1.561,1.039 -1.561,1.039c0,0 -1.956,0.761 -1.956,0.761c-0,0 -1.655,0.593 -1.655,0.593c-0,-0 -1.862,0.495 -1.862,0.495c-0.033,0.009 -0.463,0.132 -0.463,0.132c0,-0 -0.16,-0 -0.16,-0c-0,-0 -0.923,-0.264 -0.923,-0.264l-0.467,-0Zm219.828,-68.539l0,-25.107c0,0 4.1,-11.375 4.1,-11.375c0,0 0.757,-39.99 0.757,-39.99l-2.344,-3.282l-0.761,0c-0,0 -1.126,0.205 -1.152,0.21c-0,-0 -1.463,0.243 -1.463,0.243c0,0 -1.201,0.302 -1.201,0.302c0,0 -1.011,0.403 -1.011,0.403l-1.548,0.705c0,0 -1.385,0.461 -1.385,0.461c-0,-0 -0.972,0.583 -1.037,0.622c-0,-0 -1.339,0.73 -1.339,0.73c0,-0 -1.076,0.752 -1.076,0.752c-0,0 -1.022,0.796 -1.022,0.796c0,0 -2.113,1.865 -2.113,1.865c-0,0 -2.197,2.069 -2.201,2.073c0,-0 -2.073,1.942 -2.073,1.942c0,-0 -0.517,0.516 -0.517,0.516l-0.606,1.095c0,0 -3.314,3.71 -3.314,3.71l-1.483,2.596c-0,-0 -0.179,0.251 -0.179,0.251c-0,-0 -1.481,18.113 -1.481,18.113l0.652,10.269c-0,0 -0,5.366 -0,5.366c-0,-0 0.92,61.144 0.92,61.144l0.601,6.131l3.728,10.504l0.136,0.045c-0,0 0.654,0.264 0.654,0.264c-0,0 0.12,0.04 0.12,0.04l0.614,0l1.105,-0.633c0,-0 0.898,-0.15 0.898,-0.15c-0,0 0.031,-0.015 0.031,-0.015l0.909,-0.906c-0,-0 1.224,-0.353 1.224,-0.353c0,0 1.161,-0.828 1.161,-0.828c-0,-0 1.171,-1.064 1.171,-1.064c0,0 1.472,-1.597 1.523,-1.652c0,-0 1.373,-1.37 1.433,-1.43c-0,-0 1.236,-1.126 1.236,-1.126c0,-0 0.835,-1.148 0.859,-1.181c0,-0 1.458,-1.914 1.458,-1.914l0.923,-15.595l-0.226,-0.493c0,-0 -0.295,-2.079 -0.295,-2.079l-0.336,-1.075c-0.336,-0.437 -0.582,-0.997 -0.646,-1.712l-0.151,-0.611l0,-1.363c0,-0 0.13,-0.923 0.13,-0.923l0,-1.796c0,-0 0.715,-1.425 0.715,-1.425c-0,0 0.165,-0.745 0.171,-0.773c0,0 0.666,-2.795 0.676,-2.837c0,0 0.671,-2.547 0.692,-2.628l0.727,-2.325c-0,-0 0.804,-2.011 0.804,-2.011l0.832,-2.496Zm182.231,24.82l-0,-52.48l-17.005,-0l-2.473,-0.53c0,-0 -1.688,-0.614 -1.705,-0.62l-1.324,-0.497c-0,0 -1.424,-0.788 -1.449,-0.801l-1.373,-0.787c0,-0 -0.655,-0.658 -0.655,-0.658l-1.246,-0.712c-0,0 -0.951,-1.426 -0.951,-1.426l-0.738,-0.985l-0.082,-0.283l-0.319,-0.214l-0.737,-2.197l-0.378,-1.902l-0,-1.721c-0,0 0.483,-1.217 0.483,-1.217c0,0 0.282,-0.84 0.282,-0.84l0.387,-2.144c-0,0 1.074,-1.286 1.074,-1.286l0.466,-0.814c-0,0 0.905,-1.247 0.905,-1.247l0.578,-1.436c0,0 18.005,-10.111 18.005,-10.111c-0,-0 2.246,-1.797 2.246,-1.797l1.936,-1.934c0,-0 1.615,-1.384 1.615,-1.384l0.576,-0.808c0,0 0.953,-0.952 0.953,-0.952c-0,-0 0.865,-1.156 0.865,-1.156l0.064,-0.117l-0,-7.229l-0.136,-0.136l-0.922,-0.527l-0.36,-0.361l-0.739,-0.082c-0,0 -1.451,-0.907 -1.451,-0.907c-0,0 -1.67,-0.626 -1.67,-0.626c-0,-0 -1.83,-0.571 -1.83,-0.571l-2.06,-0.413l-1.374,-0.499l-0.315,0.14c-0,-0 -1.545,0.463 -1.568,0.469c0,0 -2.658,0.76 -2.658,0.76c-0,0 -2.359,0.87 -2.359,0.87c-0,-0 -2.682,1.021 -2.682,1.021c-0,-0 -2.632,1.128 -2.632,1.128c-0,0 -2.559,1.219 -2.559,1.219c0,-0 -4.918,2.899 -4.918,2.899c0,0 -4.986,3.325 -4.986,3.325l-5.05,3.72c0,-0 -2.505,1.582 -2.505,1.582c-0,0 -2.27,1.673 -2.27,1.673l-2.253,1.989c0,0 -2.384,1.722 -2.384,1.722c-0,0 -3.917,3.41 -3.917,3.41c0,0 -3.908,3.649 -3.944,3.683c0,-0 -3.382,2.991 -3.382,2.991c0,0 -2.822,2.823 -2.862,2.863c-0,0 -4.243,3.984 -4.243,3.984l-0.336,0.397l-1.617,4.176l-0.257,0.902c0,-0 -0.441,1.179 -0.441,1.179l-0.433,1.193l-0,0.42c-0,0 0.11,1.325 0.11,1.325c0,0 0.201,1.413 0.201,1.413c-0,0 0.38,1.14 0.38,1.14c-0,-0 0.609,1.46 0.61,1.462c-0,-0 0.635,1.526 0.635,1.526c-0,-0 0.532,1.168 0.532,1.168c0,0 1.341,2.124 1.341,2.124c0,-0 1.454,1.819 1.469,1.838l1.159,1.49l0.468,0.932l0.391,0.112c-0,0 1.127,0.561 1.127,0.561c-0,-0 0.714,0.239 0.714,0.239c-0,-0 3.1,0.595 3.1,0.595c0,-0 3.351,0.478 3.351,0.478l1.922,0c-0,0 2.538,0.284 2.538,0.284c0,0 4.256,0.385 4.256,0.385c0,0 4.369,0.257 4.369,0.257c-0,0 4.77,0.129 4.77,0.129l23.525,0l1.32,17.347c-0,-0 -3.49,3.053 -3.539,3.096c-0,0 -2.162,1.758 -2.174,1.768l-2.067,1.652l-2.01,1.438c0,-0 -4.033,2.552 -4.033,2.552c-0,0 -1.784,1.147 -1.784,1.147l-1.925,1.331c-0,0 -2,0.924 -2.047,0.946c0,0 -1.849,0.792 -1.849,0.792c0,-0 -3.382,1.561 -3.454,1.594l-3.287,1.347c0,0 -3.427,0.712 -3.427,0.712l-2.688,0.671l-2.472,0.437c0,0 -2.303,0.274 -2.303,0.274l-2.063,0.292l-2.556,-0l-1.558,0.78c0,0 -1.91,1.016 -1.91,1.016c-0,0 -0.559,0.311 -0.559,0.311l-0.563,0.676c-0,0 -1.722,1.147 -1.722,1.147c-0,0 -0.927,0.929 -0.93,0.932c0,0 -0.962,0.961 -0.962,0.961c0,-0 -0.373,0.533 -0.373,0.533l-0.37,1.358c-0,0 -0.574,0.915 -0.574,0.915c0,0 -0.078,0.432 -0.078,0.432l0,4.09c0,0 0.126,0.377 0.126,0.377l0.459,0.917c0,-0 0.365,0.853 0.365,0.853c0,0 0.424,0.765 0.424,0.765l1.415,1.798c-0,-0 1.157,1.932 1.157,1.932c0,-0 0.372,0.445 0.372,0.445c0,0 0.468,0.468 0.468,0.468l1.188,1.056l0.799,0.8l25.085,-0.865c0,-0 2.145,-0.339 2.145,-0.339c0,0 2.504,-0.596 2.504,-0.596l4.769,-1.507c0,0 2.065,-0.802 2.065,-0.802c-0,-0 2.055,-1.089 2.094,-1.11c0,-0 2.371,-1.184 2.371,-1.184c-0,0 1.775,-0.945 1.775,-0.945c0,0 3.782,-2.523 3.782,-2.523c0,0 3.687,-2.543 3.687,-2.543c0,0 3.23,-2.608 3.23,-2.608c-0,0 3.121,-2.871 3.121,-2.871c-0,-0 2.554,-2.682 2.585,-2.715l0.116,-0.116Zm-74.752,-68.356l0.753,-1.945c-0,0 -0.074,-1.178 -0.074,-1.178c0,0 -0.246,-1.834 -0.246,-1.834l-0.298,-2.088c-0,-0 -0,-1.993 -0,-1.993c-0,-0 -0.583,-2.796 -0.583,-2.797c0,0 -0.614,-2.956 -0.614,-2.956c-0,-0 -0.816,-2.446 -0.816,-2.446l-0.994,-2.415c0,-0 -0.219,-0.978 -0.219,-0.978l-0.463,-0.836c0,0 -0.848,-1.813 -0.848,-1.813c0,-0 -1.01,-1.462 -1.028,-1.487c0,-0 -0.821,-1.233 -0.821,-1.233c-0,-0 -1.111,-1.01 -1.111,-1.01c0,0 -1.214,-1.092 -1.214,-1.092c0,-0 -0.797,-0.62 -0.797,-0.62c0,-0 -0.933,-0.467 -0.933,-0.467c-0,-0 -1.312,-0.596 -1.312,-0.596c-0,-0 -0.586,-0.235 -0.586,-0.235l-0.927,0l-1.721,-0.171c0,-0 -1.005,-0.224 -1.005,-0.224c-0,-0 -0.724,-0 -0.724,-0c-0,-0 -2.168,0.228 -2.168,0.228c-0,0 -1.719,0.322 -1.719,0.322c-0,0 -1.345,0.449 -1.398,0.466c-0,0 -0.992,0.298 -0.992,0.298l-1.493,0.829l-5.845,0.616c0,-0 -2.003,0.111 -2.003,0.111l-2.296,0.725c-0,-0 -2.278,0.402 -2.278,0.402c-0,-0 -2.018,0.593 -2.018,0.593c-0,-0 -1.926,0.602 -1.926,0.602c0,0 -2.058,0.847 -2.058,0.847l-4.057,1.776c0,-0 -1.986,1.051 -1.986,1.051c-0,-0 -1.703,1.094 -1.703,1.094c0,-0 -3.811,2.497 -3.843,2.518c-0,0 -2.122,1.327 -2.122,1.327c0,0 -1.716,1.103 -1.716,1.103c0,0 -1.929,1.447 -1.929,1.447c-0,0 -1.411,1.176 -1.411,1.176c0,-0 -3.335,3.206 -3.362,3.232c0,0 -3.29,3.038 -3.29,3.038l-2.831,3.345c0,0 -3.222,3.352 -3.222,3.352c-0,-0 -2.611,3.478 -2.611,3.478l-2.674,3.746c0,0 -2.713,3.36 -2.713,3.36c-0,-0 -2.242,3.486 -2.242,3.486c0,0 -2.192,3.612 -2.192,3.612c-0,-0 -2.038,3.562 -2.038,3.562c0,-0 -1.668,3.337 -1.695,3.391c0,-0 -3.396,6.273 -3.396,6.273c-0,-0 -2.718,5.953 -2.729,5.977c0,-0 -2.355,4.972 -2.355,4.972l-1.26,2.94l-0,2.279c-0,-0 -2.527,11.58 -2.527,11.58l-0.471,7.951l0.711,1.552c0,-0 0.664,1.588 0.664,1.588c-0,-0 0.636,1.399 0.66,1.452c-0,0 0.529,1.27 0.529,1.27l0.785,1.122c-0,-0 1.436,2.483 1.436,2.483c0,0 1.396,1.932 1.396,1.932c-0,-0 1.58,1.466 1.631,1.512l1.863,1.865l2.003,1.252c-0,-0 1,0.873 1,0.873c-0,0 0.596,0.34 0.596,0.34c-0,-0 1.986,1.118 1.986,1.118c-0,0 1.84,0.866 1.84,0.866l2.366,0.658c0,0 1.708,0.797 1.708,0.797l1.996,0.222c0,-0 2.353,0.554 2.353,0.554c0,-0 2.053,0.36 2.053,0.36c-0,0 1.794,0.226 1.794,0.226l5.474,-0c-0,-0 1.884,-0.237 1.886,-0.237c0,-0 3.078,-0.384 3.078,-0.384c-0,0 2.902,-0.504 2.902,-0.504c0,-0 1.786,-0.358 1.786,-0.358l2.796,-0.798c-0,0 2.254,0.752 2.254,0.752l1.309,0.119l0.873,0.218l1.684,-0.24c-0,-0 1.595,-0.114 1.595,-0.114l1.72,-0.492c-0,-0 1.701,-0.243 1.701,-0.243l1.873,-0.702c-0,-0 1.709,-0.491 1.709,-0.491c-0,0 1.718,-0.799 1.718,-0.799c0,-0 3.931,-1.835 3.931,-1.835c0,0 3.808,-1.843 3.808,-1.843l3.288,-2.275c-0,0 3.733,-2.267 3.733,-2.267c0,0 3.214,-2.101 3.214,-2.101l2.843,-2.326c0,-0 2.712,-1.937 2.712,-1.937c0,-0 3.286,-2.907 3.339,-2.954c0,0 0.75,-0.613 0.75,-0.613c-0,-0 0.707,-1.857 0.724,-1.902c0,-0 0.882,-2.142 0.882,-2.142c-0,0 1.403,-4.465 1.424,-4.532c0,-0 0.612,-1.712 0.612,-1.712c-0,-0 0.254,-1.101 0.254,-1.101l-0,-1.598c-0,0 0.262,-1.582 0.262,-1.582c-0,-0 -0,-1.992 -0,-1.992l-0.255,-2.186l-0.019,-0.024l-0.671,-1.116l-0.096,-0.239l-0.305,-0.304l-0.66,-0.377l-0.488,-0.348l-0.613,-0l-25.405,15.14l-2.277,1.061l-2.496,0.937c-0,0 -1.989,0.424 -1.989,0.424l-2.221,0.639c-0,-0 -1.97,-0 -1.97,-0l-1.997,0.141l-2.074,-0.171l-1.755,-0.353c0,-0 -0.44,-0.148 -0.44,-0.148l-0.654,-0l-1.851,-0.615c-0,-0 -1.321,-0.529 -1.321,-0.529l-1.765,-0.588c-0,-0 -1.344,-1.152 -1.344,-1.152l-1.157,-0.825c-0,-0 -0.653,-0.763 -0.653,-0.763l-1.256,-0.698c-0,-0 -1.772,-2.255 -1.772,-2.255l-1.003,-1.003c0,-0 -0.5,-1.167 -0.5,-1.167l-1.125,-1.497c0,0 -0.806,-1.617 -0.838,-1.682l-1.329,-2.948l-0.424,-1.496l-0.183,-1.825l0,-4.555l0.472,-2.998c-0,-0 0.718,-2.579 0.734,-2.638c0,0 0.798,-2.532 0.798,-2.532l0.731,-2.478l1.257,-2.676c0,-0 1.54,-2.52 1.54,-2.52l1.479,-2.512c0,0 1.953,-2.232 1.953,-2.232l0.649,-0.907l0.988,-1.153c0,-0 1.854,-1.854 1.854,-1.854l1.806,-2.085l2.144,-1.837c-0,0 1.998,-1.498 1.998,-1.498l1.859,-1.858l2.313,-1.698c0,-0 2.207,-1.379 2.207,-1.379l7.531,-4.842l13.092,-6.546c0,-0 3.904,5.856 3.916,5.874c0,-0 1.548,2.38 1.548,2.38l2.023,2.152c-0,-0 1.634,2.177 1.634,2.177c0,-0 1.368,1.593 1.368,1.593c-0,0 1.538,1.423 1.538,1.423c-0,0 1.179,1.06 1.179,1.06c0,0 1.134,0.852 1.134,0.852l1.306,0.593c-0,0 0.729,0.455 0.729,0.455l0.759,0.169c-0,-0 0.802,0.267 0.802,0.267l0.839,0l0.625,-0.357l0.315,-0.105l0.365,-0.365l0.14,-0.084l1.124,-1.927l0.27,-0.309l0.077,-0.381l0.347,-1.225l2.525,-6.536l0.584,-0.689Zm74.752,8.549l-0,-22.544l-1.116,1.115l-3.03,2.423l-16.344,9.179l-1.09,1.502l-0.59,1.032c0,-0 -0.248,0.296 -0.248,0.296l-0.136,0.758l-0.484,1.443l0.338,0.226l0.45,1.562l0.157,0.227l0.6,0.343c0,0 0.66,0.662 0.66,0.662c-0,-0 0.473,0.271 0.473,0.271c-0,-0 0.929,0.514 0.929,0.514c-0,-0 0.786,0.295 0.786,0.295c0,-0 1.196,0.435 1.196,0.435c0,-0 1.22,0.261 1.22,0.261l16.229,-0Zm-502.994,-71.245l-13.847,-90.734l-0,90.734l13.847,-0Zm36.136,-0l-0,-46.29l-0.264,-46.422l-6.331,46.422l-6.462,46.29l13.057,-0Zm77.414,-0l1.055,-12.395l1.187,-12.399l13.32,0l1.978,24.794l-17.54,-0Zm104.596,-61.523l-1.861,-0.328l-3.429,-0.265l-0,62.116l11.21,-0l-0,-48.269l-0.264,-2.637l0,-1.977l-0.132,-1.584l-0.264,-1.583l-0.527,-1.45l-0.132,-0.924l-0.527,-0.923l-1.056,-1.053l-2.11,-0.925l-0.313,-0.079l-0.595,-0.119Zm-96.066,-42.942l0.306,-2.225l0.791,8.438l0.659,8.047l0.66,7.779l0.923,7.255l0.658,7.12l0.661,6.726l0.789,6.33l0.661,5.935l-12.792,-0l0.396,-4.748l0.395,-5.803l0.792,-6.066l0.923,-6.858l0.923,-7.649l1.055,-8.177l1.187,-8.704l0.462,-3.379l0.551,-4.021Zm96.755,20.519l1.406,-0.326l1.319,-0.66l0.66,-0.527l0.527,-0.923l0.396,-0.922l0.527,-1.32l0.132,-3.032l0.264,-4.09l-0,-7.517l-0.264,-3.033l-0.132,-2.506l-0.791,-1.846l-1.055,-1.319l-1.583,-0.923l-1.635,-0.394l-2.717,-0.53l-3.033,0l-0,30.465l3.033,-0l2.544,-0.515l0.402,-0.082Z" style="fill:#fff;"/><g><path d="M388.254,164.178l2.344,3.282c0,-0 -0.757,39.99 -0.757,39.99c0,-0 -4.1,11.375 -4.1,11.375l0,27.94c0,0 -2.481,11.367 -2.481,11.367l-1.535,25.942c0,-0 -1.458,1.913 -1.458,1.913c-0.024,0.033 -0.859,1.182 -0.859,1.182c0,-0 -1.236,1.125 -1.236,1.125c-0.06,0.06 -1.433,1.431 -1.433,1.431c-0.051,0.055 -1.523,1.652 -1.523,1.652c0,-0 -1.171,1.063 -1.171,1.063c-0,0 -1.161,0.829 -1.161,0.829c0,-0 -1.224,0.352 -1.224,0.352l-0.909,0.907c-0,-0 -0.031,0.015 -0.031,0.015c-0,0 -0.898,0.149 -0.898,0.149l-1.105,0.634c0,-0 0,-0 0,-0l-0.614,-0c0,-0 -0.12,-0.04 -0.12,-0.04c-0,0 -0.654,-0.264 -0.654,-0.264l-0.136,-0.045l-3.728,-10.505l-0.601,-6.131c0,0 -0.92,-61.144 -0.92,-61.144c-0,0 -0,-5.365 -0,-5.365l-0.652,-10.269c0,-0 1.481,-18.114 1.481,-18.114c-0,0 0.179,-0.251 0.179,-0.251l1.483,-2.595c-0,-0 3.314,-3.71 3.314,-3.71l0.606,-1.096c-0,0 0.517,-0.516 0.517,-0.516c0,0 2.073,-1.942 2.073,-1.942c0.004,-0.003 2.201,-2.072 2.201,-2.072c-0,-0 2.113,-1.865 2.113,-1.865c-0,0 1.022,-0.796 1.022,-0.796c-0,0 1.076,-0.753 1.076,-0.753c0,0 1.339,-0.73 1.339,-0.73c0.065,-0.038 1.037,-0.622 1.037,-0.622c-0,0 1.385,-0.46 1.385,-0.46l1.548,-0.705c-0,-0 1.011,-0.403 1.011,-0.403c0,-0 1.201,-0.302 1.201,-0.302c0,0 1.463,-0.244 1.463,-0.244c0.026,-0.005 1.152,-0.209 1.152,-0.209l0.761,-0Z" style="fill:#fff;fill-rule:nonzero;"/><path d="M557.43,164.344l1.374,0.5l2.06,0.412c-0,0 1.83,0.572 1.83,0.572c-0,-0 1.67,0.626 1.67,0.626c-0,-0 1.451,0.907 1.451,0.907l0.739,0.082l0.36,0.36l0.922,0.528l1.024,1.024c-0,-0 0.376,0.526 0.376,0.526c0,-0 0.088,0.153 0.088,0.153c-0,-0 0.047,0.331 0.047,0.331l0.213,1.063l-0,0.626l-0.093,0.277c-0.015,0.051 -0.323,1.071 -0.323,1.071c0,0 -0.492,0.987 -0.492,0.987c0,0 -0.768,1.424 -0.768,1.424c0,-0 -0.865,1.156 -0.865,1.156c-0,-0 -0.953,0.952 -0.953,0.952l-0.576,0.808c-0,-0 -1.615,1.383 -1.615,1.383l-1.936,1.935c0,-0 -2.246,1.797 -2.246,1.797c-0,-0 -18.005,10.111 -18.005,10.111l-0.578,1.436c-0,-0 -0.905,1.247 -0.905,1.247l-0.466,0.814c0,0 -1.074,1.286 -1.074,1.286l-0.387,2.144c-0,-0 -0.282,0.84 -0.282,0.84c0,-0 -0.483,1.217 -0.483,1.217l-0,1.721l0.378,1.902l0.737,2.197l0.319,0.213l0.082,0.284l0.738,0.985c0,-0 0.951,1.426 0.951,1.426l1.246,0.712c-0,-0 0.655,0.657 0.655,0.657l1.373,0.788c0.025,0.013 1.449,0.801 1.449,0.801l1.324,0.496c0.017,0.007 1.705,0.62 1.705,0.62l2.473,0.53l21.487,0c-0,0 0.666,0.303 0.666,0.303c0,0 0.913,0.457 0.913,0.457c0,-0 1.859,1.048 1.859,1.048c0,0 1.492,1.064 1.492,1.064c0,0 1.924,1.795 1.924,1.795l1.137,0.884c0,-0 0.94,0.941 0.94,0.941c-0,0 0.66,0.753 0.66,0.753c-0,-0 0.67,1.052 0.67,1.052c-0,0 0.693,1.392 0.693,1.392l0.655,0.935c-0,-0 0.339,1.574 0.339,1.574l0.664,1.332c0,-0 0.112,1.767 0.112,1.767l0.495,1.731l0,3.414c0,-0 -0.488,2.076 -0.488,2.076l-0.132,1.428c0,0 -0.222,0.896 -0.222,0.896l-0.251,1.367c0,-0 -0.276,0.925 -0.276,0.925c0,-0 -1.129,2.632 -1.129,2.632c-0.022,0.055 -1.171,2.995 -1.171,2.995c0,-0 -1.169,2.573 -1.169,2.573c-0,-0 -2.015,3.148 -2.015,3.148c-0.042,0.073 -1.909,3.311 -1.909,3.311c-0,0 -0.71,0.944 -0.71,0.944c-0.048,0.072 -2.133,3.137 -2.133,3.137c-0,-0 -1.718,1.839 -1.718,1.839l-2.068,2.458c-0,0 -2.426,2.426 -2.426,2.426c-0.031,0.032 -2.585,2.714 -2.585,2.714c-0,0 -3.121,2.872 -3.121,2.872c-0,-0 -3.23,2.608 -3.23,2.608c0,0 -3.687,2.543 -3.687,2.543c0,-0 -3.782,2.523 -3.782,2.523c0,-0 -1.775,0.945 -1.775,0.945c-0,0 -2.371,1.184 -2.371,1.184c-0.039,0.02 -2.094,1.109 -2.094,1.109c-0,0 -2.065,0.803 -2.065,0.803c0,0 -2.39,0.755 -2.39,0.755c0,0 -2.379,0.752 -2.379,0.752c-0,-0 -2.504,0.596 -2.504,0.596c0,-0 -2.145,0.338 -2.145,0.338l-25.085,0.865l-0.799,-0.8l-1.188,-1.056c-0,0 -0.468,-0.467 -0.468,-0.467c0,-0 -0.372,-0.446 -0.372,-0.446c0,0 -1.157,-1.931 -1.157,-1.931l-1.415,-1.799c0,0 -0.424,-0.764 -0.424,-0.764c0,0 -0.365,-0.854 -0.365,-0.854l-0.459,-0.917c-0,0 -0.126,-0.376 -0.126,-0.376l0,-4.09c0,0 0.078,-0.432 0.078,-0.432c0,-0 0.574,-0.915 0.574,-0.915l0.37,-1.359c0,0 0.373,-0.533 0.373,-0.533c0,0 0.962,-0.96 0.962,-0.96c0.003,-0.003 0.93,-0.932 0.93,-0.932c-0,-0 1.722,-1.147 1.722,-1.147l0.563,-0.676c0,-0 0.559,-0.311 0.559,-0.311c-0,0 1.91,-1.016 1.91,-1.016l1.558,-0.781l2.556,0l2.063,-0.292c0,0 2.303,-0.273 2.303,-0.273l2.472,-0.438l2.688,-0.67c0,-0 3.427,-0.712 3.427,-0.712l3.287,-1.347c0.072,-0.034 3.454,-1.595 3.454,-1.595c0,0 1.849,-0.791 1.849,-0.791c0.047,-0.022 2.047,-0.946 2.047,-0.946l1.925,-1.332c0,0 1.784,-1.146 1.784,-1.146c-0,-0 4.033,-2.553 4.033,-2.553l2.01,-1.437l2.067,-1.652c0.012,-0.01 2.174,-1.768 2.174,-1.768c0.049,-0.043 3.539,-3.097 3.539,-3.097l-1.32,-17.346l-23.525,-0c-0,-0 -4.77,-0.129 -4.77,-0.129c-0,-0 -4.369,-0.257 -4.369,-0.257c0,0 -4.256,-0.385 -4.256,-0.385c0,-0 -2.538,-0.284 -2.538,-0.284l-1.922,-0c-0,-0 -3.351,-0.478 -3.351,-0.478c0,-0 -3.1,-0.595 -3.1,-0.595c-0,-0 -0.714,-0.239 -0.714,-0.239c-0,-0 -1.127,-0.561 -1.127,-0.561l-0.391,-0.113l-0.468,-0.931l-1.159,-1.491c-0.015,-0.018 -1.469,-1.838 -1.469,-1.838c0,0 -1.341,-2.123 -1.341,-2.123c0,-0 -0.532,-1.169 -0.532,-1.169c-0,0 -0.635,-1.526 -0.635,-1.526c-0.001,-0.002 -0.61,-1.462 -0.61,-1.462c-0,0 -0.38,-1.139 -0.38,-1.139c-0,-0 -0.201,-1.413 -0.201,-1.413c0,0 -0.11,-1.325 -0.11,-1.325c-0,-0 -0,-1.331 -0,-1.331c-0,-0 0.032,-0.162 0.032,-0.162c0,0 0.176,-0.621 0.176,-0.621l1.959,-5.07l0.917,-1.083c-0,-0 4.243,-3.984 4.243,-3.984c0.04,-0.041 2.862,-2.863 2.862,-2.863c0,0 3.382,-2.992 3.382,-2.992c0.036,-0.033 3.944,-3.682 3.944,-3.682c0,-0 3.917,-3.41 3.917,-3.41c-0,0 2.384,-1.722 2.384,-1.722l2.253,-1.99c0,0 2.27,-1.672 2.27,-1.672c-0,-0 2.505,-1.582 2.505,-1.582l5.05,-3.72c0,-0 4.986,-3.325 4.986,-3.325c0,-0 4.918,-2.9 4.918,-2.9c0,0 2.559,-1.218 2.559,-1.218c-0,0 2.632,-1.129 2.632,-1.129c-0,0 2.682,-1.021 2.682,-1.021c-0,0 2.359,-0.869 2.359,-0.869c-0,0 2.658,-0.76 2.658,-0.76c0.023,-0.007 1.568,-0.469 1.568,-0.469l0.315,-0.141Z" style="fill:#fff;fill-rule:nonzero;"/><path d="M482.467,245.549l0.613,0l0.488,0.349l0.66,0.377l0.305,0.304l0.096,0.239l0.671,1.116l0.019,0.024l0.016,0.146c0.002,0.01 0.239,2.04 0.239,2.04c-0,-0 -0,1.991 -0,1.991c-0,0 -0.262,1.583 -0.262,1.583l-0,1.598c-0,0 -0.254,1.1 -0.254,1.1c-0,0 -0.612,1.712 -0.612,1.712c-0.021,0.068 -1.424,4.533 -1.424,4.533c-0,0 -0.882,2.141 -0.882,2.141c-0.017,0.046 -0.724,1.903 -0.724,1.903c-0,-0 -0.75,0.613 -0.75,0.613c-0.053,0.046 -3.339,2.953 -3.339,2.953c0,0 -2.712,1.938 -2.712,1.938l-2.843,2.326c0,-0 -3.214,2.101 -3.214,2.101c0,-0 -3.733,2.267 -3.733,2.267l-3.288,2.275c0,-0 -3.808,1.843 -3.808,1.843c0,-0 -3.931,1.834 -3.931,1.834c0,0 -1.718,0.8 -1.718,0.8c-0,0 -1.709,0.491 -1.709,0.491l-1.873,0.702c0,-0 -1.701,0.243 -1.701,0.243l-1.72,0.491c0,0 -1.595,0.114 -1.595,0.114l-1.684,0.241l-0.873,-0.219l-1.309,-0.119c-0,0 -2.254,-0.751 -2.254,-0.751l-2.796,0.798c0,0 -1.786,0.358 -1.786,0.358c0,-0 -2.902,0.504 -2.902,0.504c-0,0 -3.078,0.383 -3.078,0.383c-0.002,0 -1.886,0.237 -1.886,0.237l-5.474,0c-0,0 -1.794,-0.225 -1.794,-0.225c-0,-0 -2.053,-0.361 -2.053,-0.361c0,0 -2.353,-0.554 -2.353,-0.554l-1.996,-0.221c-0,-0 -1.708,-0.797 -1.708,-0.797l-2.366,-0.658c-0,-0 -1.84,-0.866 -1.84,-0.866c-0,-0 -1.986,-1.119 -1.986,-1.119c-0,0 -0.596,-0.339 -0.596,-0.339c-0,-0 -1,-0.874 -1,-0.874l-2.003,-1.252c-0,0 -0.891,-0.891 -0.891,-0.891c-0.001,-0.001 -0.972,-0.973 -0.972,-0.973c-0.051,-0.047 -1.631,-1.513 -1.631,-1.513c-0,0 -1.396,-1.931 -1.396,-1.931c0,-0 -1.436,-2.484 -1.436,-2.484l-0.785,-1.121c0,0 -0.529,-1.27 -0.529,-1.27c-0.024,-0.053 -0.66,-1.453 -0.66,-1.453c-0,0 -0.664,-1.587 -0.664,-1.587c-0.026,-0.057 -1.254,-2.738 -1.254,-2.738c-0,0 -0.229,-1.614 -0.229,-1.614l-0.929,-2.969l0.082,-0.582l-0,-0.574c-0,-0 0.344,-0.686 0.344,-0.686l0.356,-1.604c-0,-0 0.643,-2.699 0.643,-2.699c-0,0 0.627,-2.383 0.627,-2.383c-0,-0 0.592,-1.895 0.592,-1.895c-0,0 0.778,-1.946 0.778,-1.946l1.041,-3.123c0,0 1.496,-3.489 1.496,-3.489c-0,-0 2.355,-4.973 2.355,-4.973c0.011,-0.023 2.729,-5.977 2.729,-5.977c-0,0 3.396,-6.273 3.396,-6.273c0.027,-0.053 1.695,-3.391 1.695,-3.391c0,0 2.038,-3.562 2.038,-3.562c-0,0 2.192,-3.611 2.192,-3.611c0,-0 2.242,-3.487 2.242,-3.487c-0,0 2.713,-3.359 2.713,-3.359l2.674,-3.746c-0,-0 2.611,-3.479 2.611,-3.479c-0,0 3.222,-3.351 3.222,-3.351l2.831,-3.346c0,0 3.29,-3.037 3.29,-3.037c0.027,-0.026 3.362,-3.233 3.362,-3.233c0,0 1.411,-1.175 1.411,-1.175c-0,-0 1.929,-1.447 1.929,-1.447c0,0 1.716,-1.103 1.716,-1.103c0,-0 2.122,-1.327 2.122,-1.327c0.032,-0.021 3.843,-2.518 3.843,-2.518c0,-0 1.703,-1.095 1.703,-1.095c-0,0 1.986,-1.051 1.986,-1.051c0,0 1.984,-0.868 1.984,-0.868c0,-0 2.073,-0.907 2.073,-0.907c-0,-0 2.058,-0.847 2.058,-0.847c0,-0 1.926,-0.602 1.926,-0.602c-0,-0 2.018,-0.593 2.018,-0.593c-0,-0 2.278,-0.402 2.278,-0.402l2.296,-0.725c-0,-0 2.003,-0.112 2.003,-0.112l5.845,-0.615l1.493,-0.829c-0,-0 0.992,-0.298 0.992,-0.298c0.053,-0.018 1.398,-0.466 1.398,-0.466c-0,0 1.719,-0.322 1.719,-0.322c-0,-0 2.168,-0.229 2.168,-0.229c-0,0 0.724,0 0.724,0c-0,0 1.005,0.224 1.005,0.224l1.721,0.172l0.927,0c0,0 0.586,0.234 0.586,0.234c-0,0 1.312,0.597 1.312,0.597c-0,-0 0.933,0.466 0.933,0.466c0,0 0.797,0.62 0.797,0.62c0,0 1.214,1.093 1.214,1.093c0,0 1.111,1.009 1.111,1.009c-0,0 0.821,1.233 0.821,1.233c0.018,0.026 1.028,1.487 1.028,1.487c0,0 0.848,1.814 0.848,1.814l0.463,0.835c0,0 0.219,0.978 0.219,0.978l0.994,2.415c0,0 0.816,2.447 0.816,2.447c-0,-0 0.614,2.956 0.614,2.956c0,0.001 0.583,2.796 0.583,2.796c-0,0 -0,1.993 -0,1.993l0.298,2.089c0,0 0.246,1.834 0.246,1.834c0,-0 0.074,1.178 0.074,1.178c-0,-0 -2.938,7.585 -2.938,7.585l-0.268,0.942c0,-0 -0.349,0.934 -0.349,0.934c-0.007,0.017 -0.299,0.823 -0.299,0.823c-0,-0 -0.702,0.8 -0.702,0.8l-1.124,1.928l-0.14,0.084l-0.365,0.365l-0.315,0.105l-0.625,0.357l-0.839,-0c-0,-0 -0.802,-0.268 -0.802,-0.268l-0.759,-0.168c-0,-0 -0.729,-0.455 -0.729,-0.455l-1.306,-0.593c0,-0 -1.134,-0.852 -1.134,-0.852c0,-0 -1.179,-1.06 -1.179,-1.06c-0,0 -1.538,-1.423 -1.538,-1.423c-0,0 -1.368,-1.594 -1.368,-1.594c0,0 -1.634,-2.177 -1.634,-2.177l-2.023,-2.151c-0,0 -1.548,-2.381 -1.548,-2.381c-0.012,-0.018 -3.916,-5.873 -3.916,-5.873l-13.092,6.546l-7.531,4.841c-0,0 -2.207,1.379 -2.207,1.379l-2.313,1.699l-1.859,1.857c-0,0 -1.998,1.499 -1.998,1.499l-2.144,1.837l-1.806,2.085c-0,-0 -1.854,1.853 -1.854,1.853l-0.988,1.153l-0.649,0.908c0,0 -1.953,2.232 -1.953,2.232l-1.479,2.512c0,-0 -1.54,2.519 -1.54,2.519l-1.257,2.677l-0.731,2.478c0,-0 -0.798,2.532 -0.798,2.532c-0.016,0.059 -0.734,2.637 -0.734,2.637l-0.472,2.998l0,4.556l0.183,1.825l0.424,1.495l1.329,2.949c0.032,0.064 0.838,1.682 0.838,1.682l1.125,1.497c0,-0 0.5,1.167 0.5,1.167l1.003,1.003c0,-0 1.772,2.255 1.772,2.255l1.256,0.697c-0,0 0.653,0.764 0.653,0.764l1.157,0.825c-0,-0 1.344,1.151 1.344,1.151l1.765,0.589c0,0 1.321,0.528 1.321,0.528l1.851,0.615l0.654,0c0,0 0.44,0.148 0.44,0.148l1.755,0.354l2.074,0.17l1.997,-0.14c0,-0 1.97,-0 1.97,-0l2.221,-0.639c0,0 1.989,-0.424 1.989,-0.424l2.496,-0.937l2.277,-1.061l25.405,-15.141Z" style="fill:#fff;fill-rule:nonzero;"/><path d="M348.22,285.336l-2.656,1.224c0,0 -2.309,0.608 -2.309,0.608l-2.711,0.904c0,-0 -2.663,0.605 -2.663,0.605c0,-0 -2.725,0.519 -2.725,0.519c-0.019,0.004 -0.978,0.197 -0.978,0.197l-3.227,0c-0,0 -0.925,-0.186 -0.925,-0.186c-0,0 -0.818,-0.182 -0.818,-0.182c0,0 -0.586,-0.251 -0.586,-0.251c0,0 -0.252,-0.112 -0.252,-0.112l-0.632,-0.882c0,-0 -0.225,-0.397 -0.225,-0.397c-0,0 -0.122,-0.405 -0.122,-0.405l0,-3.977c0,-0 0.396,-1.981 0.396,-1.981l-0,-37.948l-6.972,-1.573l-3.855,8.111c-0.028,0.065 -1.542,3.597 -1.542,3.597c-0,-0 -2.323,4.258 -2.323,4.258c-0.029,0.058 -2.244,4.487 -2.244,4.487c0,0 -2.459,4.533 -2.459,4.533c-0,-0 -2.747,4.838 -2.747,4.838c-0,0 -2.432,4.228 -2.432,4.228c0,-0 -2.695,3.975 -2.695,3.975c-0.001,-0 -2.401,3.542 -2.401,3.542c-0,0 -1.16,1.388 -1.16,1.388c0,-0 -1.013,1.126 -1.013,1.126c-0,0 -1.166,1.051 -1.166,1.051c0,-0 -1.26,1.12 -1.26,1.12l-0.518,0.518c0,-0 -0.327,0.145 -0.327,0.145c-0,0 -0.183,0.052 -0.183,0.052c-0,0 -0.612,0 -0.612,0l-1.373,0.458c-0,-0 -2.178,0.229 -2.178,0.229c-0.069,0.01 -1.656,0.238 -1.656,0.238l-3.346,0c-0,0 -1.69,-0.2 -1.69,-0.2c-0,0 -1.406,-0.439 -1.406,-0.439c-0,-0 -0.966,-0.552 -0.966,-0.552l-0.739,-0.21c0,0 -0.406,-0.291 -0.406,-0.291c-0.002,-0.001 -1.017,-0.726 -1.017,-0.726l-0.482,-0.301c0,-0 -0.386,-0.58 -0.386,-0.58c-0.035,-0.048 -0.574,-0.803 -0.574,-0.803c-0,-0 -0.446,-0.801 -0.446,-0.801c0,-0 -0.4,-1.002 -0.4,-1.002c-0,0 -0.317,-0.953 -0.317,-0.953c-0,0 -0.253,-1.009 -0.253,-1.009c0,-0 0,-1.656 0,-1.656l-0.264,-1.845c0,0 0,-1.772 0,-1.772l-4.143,-23.656l-7.117,-0.422l-0.778,2.593c-0,0 -2.218,6.785 -2.218,6.785c-0,0 -3.401,9.808 -3.401,9.808c0,0 -2.108,5.536 -2.108,5.536c-0.018,0.049 -1.964,5.63 -1.964,5.63c0,0 -2.363,5.775 -2.363,5.775c-0.024,0.065 -1.957,5.348 -1.957,5.348c0,0 -2.313,5.144 -2.313,5.144c-0,-0 -2.188,4.76 -2.188,4.76c-0,-0 -0.852,1.584 -0.852,1.584c-0,-0 -1.122,1.992 -1.122,1.992c0,-0 -0.763,1.201 -0.763,1.201c-0,-0 -0.946,1.181 -0.946,1.181c-0.017,0.021 -0.8,1.028 -0.8,1.028c0,-0 -0.078,0.077 -0.078,0.077l-0.102,0.052l-2.788,0.438l-2.451,0.774c0,-0 -2.759,0.345 -2.759,0.345c-0,-0 -2.938,0.245 -2.938,0.245c-0,-0 -1.111,-0 -1.111,-0c-0,-0 -1.055,-0.264 -1.055,-0.264l-1.15,-0c0,-0 -0.133,-0.057 -0.133,-0.057l-0.223,-0.112l-2.731,-4.077l-4.72,6.287c-0.035,0.05 -1.895,2.709 -1.895,2.709c-0.013,0.019 -2.163,3.178 -2.163,3.178c0,0 -2.894,3.526 -2.894,3.526c0,-0 -3.461,3.972 -3.461,3.972c-0,0 -4.133,4.262 -4.133,4.262c-0,-0 -2.259,2.259 -2.259,2.259c-0.036,0.038 -2.276,2.41 -2.276,2.41c-0,-0 -2.19,2.312 -2.19,2.312c-0,-0 -2.344,1.85 -2.344,1.85c-0.045,0.038 -2.505,2.112 -2.505,2.112c-0,-0 -2.345,1.849 -2.345,1.849c0,-0 -2.615,1.743 -2.615,1.743c0,0 -2.829,1.8 -2.829,1.8c0,0 -2.585,1.553 -2.585,1.553c0,-0 -2.72,1.606 -2.72,1.606c-0,0 -1.22,0.554 -1.22,0.554c-0,0 -1.383,0.577 -1.383,0.577c-0,-0 -2.774,0.884 -2.774,0.884c-0.023,0.008 -2.657,0.886 -2.657,0.886c0,-0 -1.304,0.324 -1.304,0.324c0,0 -1.467,0.245 -1.467,0.245c-0.026,0.004 -1.152,0.209 -1.152,0.209l-6.793,0c-0,0 -3.033,-0.659 -3.033,-0.659l-1.136,-0c0,-0 -2.377,-0.236 -2.377,-0.236c0,-0 -2.026,-0.292 -2.026,-0.292l-1.972,0c0,0 -0.676,-0.253 -0.676,-0.253l-1.368,-0.302c0,-0 -2.367,-0.625 -2.367,-0.625c0,0 -2.672,-0.813 -2.672,-0.813c0,-0 -1.117,-0.559 -1.117,-0.559c-0.076,-0.033 -1.188,-0.528 -1.188,-0.528c0,0 -3.149,-1.573 -3.149,-1.573c-0.059,-0.026 -0.999,-0.455 -0.999,-0.455c0,0 -1.02,-0.917 -1.02,-0.917l-1.734,-1.302c-0.023,-0.017 -1.453,-1.057 -1.453,-1.057c-0,0 -1.265,-0.947 -1.265,-0.947c0,0 -0.828,-0.933 -0.828,-0.933c-0.02,-0.021 -1.412,-1.54 -1.412,-1.54c0,-0 -1.319,-1.584 -1.319,-1.584c-0.06,-0.064 -1.358,-1.479 -1.358,-1.479c-0,-0 -3.326,-4.66 -3.326,-4.66l-11.102,7.996l0,8.041c0,-0 -0.178,0.1 -0.178,0.1c-0,0 -5.636,2.883 -5.636,2.883c-0.027,0.015 -3.961,2.113 -3.961,2.113c0,-0 -4.275,2.202 -4.275,2.202c0,0 -4.919,2.332 -4.919,2.332c-0,0 -4.908,2.194 -4.908,2.194c-0,0 -5.095,2.04 -5.095,2.04c-0,-0 -5.171,1.681 -5.171,1.681c-0.012,0.004 -2.783,0.925 -2.783,0.925c-0.001,0.001 -2.727,0.909 -2.727,0.909c0,0 -4.275,1.307 -4.275,1.307c-0,-0 -2.362,0.126 -2.362,0.126l-2.487,0.552c0,0 -1.844,0.216 -1.844,0.216c0,-0 -1.638,-0 -1.638,-0c0,-0 -1.567,-0.223 -1.567,-0.223c-0,0 -1.469,-0.227 -1.469,-0.227c0,-0 -0.899,-0.255 -0.899,-0.255l-0.052,-0.009l-0.11,-0.088l-2.172,-1.303l-2.871,0.718c-0,-0 -1.574,0.224 -1.574,0.224c-0,0 -2.511,0.239 -2.511,0.239l-4.181,0c-0,0 -1.569,-0.224 -1.569,-0.224c-0,0 -1.59,-0.244 -1.59,-0.244c0,-0 -1.897,-0.407 -1.897,-0.407l-1.87,-0.233c-0,-0 -1.565,-0.558 -1.565,-0.558l-2.118,-0.624c0,-0 -1.685,-0.738 -1.685,-0.738c-0,0 -1.897,-1.136 -1.897,-1.136l-2.243,-1.123c-0,-0 -0.78,-0.556 -0.78,-0.556l-0.901,-0.564c0,-0 -1.97,-1.722 -1.97,-1.722l-1.186,-0.923c0,-0 -0.791,-0.692 -0.791,-0.692c0,-0 -1.686,-1.928 -1.686,-1.928c-0,-0.001 -0.854,-0.976 -0.854,-0.976c0,-0 -0.999,-1.285 -0.999,-1.285l-1.12,-1.118c-0,-0 -0.672,-0.961 -0.672,-0.961c0,-0 -1.74,-2.858 -1.74,-2.858c-0,-0 -1.537,-2.818 -1.537,-2.818c0,-0 -1.764,-3.275 -1.764,-3.275c0,-0 -1.451,-3.388 -1.451,-3.388c-0,0 -1.241,-3.845 -1.241,-3.845l-1.559,-5.716c0,0 -0.942,-3.5 -0.942,-3.5c-0.023,-0.075 -0.721,-2.283 -0.721,-2.283c0,0 -0.359,-2.634 -0.359,-2.634c-0.006,-0.042 -0.521,-3.257 -0.521,-3.257c-0,-0 -0.377,-3.267 -0.377,-3.267c-0,-0 -0.249,-3.613 -0.249,-3.613c-0,-0 -0,-3.354 -0,-3.354c-0,0 0.263,-2.242 0.263,-2.242l0,-3.783c0,0 0.311,-1.447 0.311,-1.447c-0,0 0.863,-3.822 0.863,-3.822c0,-0 0.807,-2.153 0.807,-2.153l0.358,-1.789c-0,0 0.704,-1.406 0.704,-1.406c0,-0.001 0.923,-1.849 0.923,-1.849c0,0 0.835,-1.669 0.835,-1.669c-0,-0 1.151,-1.791 1.151,-1.791l1.75,-3.209l1.592,-3.98c0,0 2.404,-4.555 2.404,-4.555c0,0 3.092,-5.668 3.092,-5.668c-0,0 4.196,-6.556 4.196,-6.556c0.042,-0.073 1.954,-3.385 1.954,-3.385c0,-0 2.448,-3.609 2.448,-3.609c0.016,-0.025 2.457,-3.751 2.457,-3.751c0,-0 2.652,-3.534 2.652,-3.534c-0,0 3.015,-3.673 3.015,-3.673c0.032,-0.041 3.18,-4.105 3.18,-4.105c-0,0 3.042,-3.804 3.042,-3.804c-0,0 3.373,-3.501 3.373,-3.501c0.058,-0.067 1.824,-2.086 1.824,-2.086c-0,-0 1.714,-1.715 1.714,-1.715l5.885,-5.492c-0,0 1.759,-1.631 1.759,-1.631c-0,-0 4.238,-3.468 4.238,-3.468c-0,0 4.23,-3.335 4.23,-3.335c0,0 4.458,-3.056 4.458,-3.056c-0,-0 2.399,-1.514 2.399,-1.514c-0,0 2.118,-1.248 2.118,-1.248c0,0 2.464,-1.296 2.464,-1.296c0.035,-0.02 2.438,-1.353 2.438,-1.353c0.029,-0.017 2.281,-1.32 2.281,-1.32c-0,-0 2.628,-1.003 2.628,-1.003l2.572,-1.219c0,0 2.696,-1.155 2.696,-1.155c-0,-0 2.342,-0.986 2.342,-0.986c-0,-0 2.74,-0.872 2.74,-0.872c-0,0 2.413,-0.762 2.413,-0.762c-0,0 2.376,-0.62 2.376,-0.62c-0,0 1.114,0.07 1.114,0.07c-0,-0 1.83,0.538 1.83,0.538c0,0 2.868,0.873 2.868,0.873c0,0 1.033,0.413 1.033,0.413c-0,0 1.603,0.802 1.603,0.802c-0,-0 1.584,0.925 1.584,0.925l1.749,0.873c-0,0 1.156,0.771 1.156,0.771c0,0 1.539,1.411 1.539,1.411l1.656,1.183c0,-0 1.163,1.374 1.163,1.374c0.008,0.009 0.798,0.931 0.798,0.931c-0,-0 0.612,0.716 0.612,0.716c0,-0 1.061,1.697 1.061,1.697c0,0 1.03,2.173 1.03,2.173c0,0 0.38,1.012 0.38,1.012l0.5,1.127c-0,0 0.81,2.432 0.81,2.432c0,-0 0.587,2.58 0.587,2.58c-0,0 0.206,1.439 0.206,1.439l-0,8.216c-0,-0 -0.212,1.691 -0.212,1.691c0,-0 -0.516,2.193 -0.516,2.193l-0.649,4.28c0,0 -0.593,2.134 -0.593,2.134c0,0 -0.666,2.266 -0.666,2.266c-0.014,0.052 -0.628,2.389 -0.628,2.389c-0,-0 -0.863,2.339 -0.863,2.339c0,0 -0.89,2.417 -0.89,2.417c0,-0 -1.172,2.736 -1.172,2.736c-0.022,0.054 -1.161,2.966 -1.161,2.966c-0,-0 -1.248,2.621 -1.248,2.621c0,0 -1.478,2.957 -1.478,2.957l-0.223,0.513l-0.195,-0.046l-1.737,-0.314l-1.626,-0.117c-0,-0 -1.515,-0.467 -1.515,-0.467l-1.81,-0.339c0,0 -1.462,-0.731 -1.462,-0.731c-0.076,-0.034 -1.288,-0.572 -1.288,-0.572c-0.025,-0.011 -0.716,-0.306 -0.716,-0.306c0,0 -1.975,-1.187 -1.975,-1.187l-0.504,-0.216c-0,-0 -0.481,-0.481 -0.481,-0.481c-0.059,-0.053 -1.662,-1.523 -1.662,-1.523c-0.021,-0.019 -1.005,-0.893 -1.005,-0.893c0,0 -0.21,-0.252 -0.21,-0.252c0,0 -0.603,-1.208 -0.603,-1.208l-0.435,-0.434l-0.082,-0.74l-0.934,-1.492c0,-0 -1.603,-3.949 -1.603,-3.949c-0.01,-0.022 -1.078,-2.559 -1.078,-2.559c-0.015,-0.032 -0.817,-1.837 -0.817,-1.837l-1.946,-1.955l-5.45,-0l0,3.94l-3.62,4.424c0,0 -1.156,0.84 -1.156,0.84l-3.749,3.08c-0,-0 -2.612,2.062 -2.612,2.062l-2.867,2.732c-0,0 -3.169,2.905 -3.169,2.905c-0.029,0.027 -3.301,3.161 -3.301,3.161l-3.26,3.669c0,0 -3.306,3.701 -3.306,3.701c-0.012,0.015 -1.871,2.139 -1.871,2.139c-0.012,0.014 -1.635,1.907 -1.635,1.907c-0.039,0.049 -1.814,2.267 -1.814,2.267l-1.338,2.41c-0,0 -1.79,2.343 -1.79,2.343l-1.094,2.325c-0,-0 -1.451,2.109 -1.451,2.109l-1.196,2.542c-0.012,0.028 -1.151,2.559 -1.151,2.559c-0,-0 -1.274,2.406 -1.274,2.406l-0.409,1.226c0,0 -0.581,1.16 -0.581,1.16l-0.876,3.332l-0,1.806c-0,0 -0.264,4.089 -0.264,4.089l-0,3.053l0.29,3.191l0.561,3.505c0.017,0.083 0.691,3.322 0.691,3.322c0.018,0.071 0.448,1.788 0.448,1.788l0.632,1.898l0.601,1.321c0,0 0.479,1.919 0.479,1.919l1.266,1.807c0,-0 1.03,1.617 1.03,1.617l1.186,1.356l1.434,1.436l1.441,1.121l1.878,1.314l1.637,0.491c0,0 1.848,0.851 1.848,0.851l2.622,0.565l4.619,-0l1.411,-0.316c-0,0 0.932,-0.117 0.932,-0.117c0.051,-0.007 1.707,-0.262 1.707,-0.262c0,-0 4.328,-0.523 4.328,-0.523c0.035,-0.005 6.55,-0.919 6.55,-0.919c0,0 4.24,-0.408 4.24,-0.408l4.393,-0.992c0.079,-0.022 4.357,-1.19 4.357,-1.19c-0,-0 4.589,-1.049 4.589,-1.049c0.048,-0.012 4.91,-1.263 4.91,-1.263l2.414,-0.994c0,0 2.402,-0.885 2.402,-0.885c0,0 4.874,-1.671 4.874,-1.671l4.381,-2.402c0.016,-0.009 2.222,-1.248 2.222,-1.248l1.963,-1.264c0.024,-0.016 1.978,-1.317 1.978,-1.317c0,-0 3.166,-2.038 3.166,-2.038l0.939,-5.259c-0,0 0.774,-4.257 0.774,-4.257c-0,0 1.294,-5.563 1.294,-5.563c-0,-0 1.571,-6.419 1.571,-6.419c0,-0 0.9,-3.47 0.9,-3.47c-0,0 1.14,-3.8 1.14,-3.8c-0,0 1.334,-3.736 1.334,-3.736l1.192,-4.371c0,-0 1.238,-3.591 1.238,-3.591c0.001,0 1.82,-4.287 1.82,-4.287c0.022,-0.055 1.576,-4.072 1.576,-4.072c-0,0 1.785,-4.082 1.785,-4.082c0,0 2.059,-4.246 2.059,-4.246c0,-0 2.068,-4.007 2.068,-4.007c0,0 2.137,-3.894 2.137,-3.894c-0,0 2.447,-3.606 2.447,-3.606c0.036,-0.059 1.215,-1.945 1.215,-1.945c0,-0 1.365,-1.613 1.365,-1.613l2.459,-3.367c0,0 1.44,-1.559 1.44,-1.559c-0,-0 1.533,-1.659 1.533,-1.659c-0,-0 2.767,-2.768 2.767,-2.768c0,0 1.918,-1.37 1.918,-1.37l1.32,-1.451c-0,-0 1.71,-1.223 1.71,-1.223l1.367,-1.253c-0,-0 1.758,-0.878 1.758,-0.878l1.502,-0.878c0,-0 2.051,-0.898 2.051,-0.898l1.715,-0.923c-0,0 1.748,-0.764 1.748,-0.764c-0,-0 1.623,-0.464 1.623,-0.464c0.014,-0.004 1.971,-0.58 1.971,-0.58c-0,0 2.175,-0.272 2.175,-0.272l0.665,-0.221c-0,-0 1.731,-0.495 1.731,-0.495c0,-0 2.364,-0.62 2.364,-0.62c-0,-0 3.082,-0.618 3.082,-0.618c-0,-0 3.64,-0.502 3.64,-0.502c0,-0 3.839,-0.372 3.839,-0.372l3.971,0c-0,0 2.268,0.254 2.268,0.254l2.045,0.118c-0,0 2.478,0.551 2.478,0.551l0.863,0c0,0 0.455,0.152 0.455,0.152c0,-0 1.518,0.675 1.518,0.675l0.88,0.111c0,0 1.607,0.902 1.607,0.902l1.72,0.803c0,0 1.581,1.242 1.581,1.242c0.068,0.049 0.93,0.665 0.93,0.665c0,-0 0.948,0.737 0.948,0.737c0,-0 0.135,0.134 0.135,0.134c-0,0 0.595,1.073 0.595,1.073l1.488,1.717c-0,0 0.363,1.089 0.363,1.089l0.888,1.143c-0,-0 0.246,0.821 0.246,0.821l0.51,1.274c0,0 0.292,1.069 0.292,1.069c0,0 0.281,1.683 0.281,1.683l0.573,1.722c0,0 0.253,1.009 0.253,1.009l-0,11.945l3.611,16.605l6.424,-12.849l4.105,-10.064c0,0 6.287,-13.357 6.287,-13.357c-0,-0 3.695,-7.788 3.695,-7.788c0.005,-0.011 3.672,-7.866 3.672,-7.866c-0,-0 3.899,-7.67 3.899,-7.67c-0,-0 4.039,-7.297 4.039,-7.297c0,-0 3.731,-6.432 3.731,-6.432c-0,-0 2.067,-2.971 2.067,-2.971c0.04,-0.064 1.89,-2.971 1.89,-2.971c0.003,-0.005 1.426,-2.257 1.426,-2.257c-0,-0 1.974,-2.221 1.974,-2.221l1.465,-1.832c-0,0 1.433,-1.313 1.433,-1.313c0.056,-0.056 0.217,-0.217 0.217,-0.217c-0,0 0.728,-0.312 0.728,-0.312l0.385,-0.307l1.045,0.526l2.156,-0.62l0.069,-0.014l0.459,0.114l0.4,0l1.162,0.483c0,0 0.201,0.144 0.201,0.144c0,-0 0.66,0.791 0.66,0.791l0.872,0.623c-0,-0 0.66,0.849 0.66,0.849l0.923,1.055c0,-0 0.498,0.64 0.498,0.64c-0,-0 0.576,1.613 0.576,1.613l0.958,1.642c-0,0 1.662,4.154 1.662,4.154c-0,0 0.632,2.404 0.632,2.404l0.928,2.784c0,-0 0.728,2.668 0.728,2.668c-0,-0 0.655,3.406 0.655,3.406l0.877,3.386c0,-0 0.379,4.161 0.379,4.161l0.649,4.29c0,-0 0.259,4.658 0.259,4.658c0.009,0.085 0.531,5.177 0.531,5.177c-0,-0 1.364,18.638 1.364,18.638l10.158,-20.316c0,-0 4.57,-8.615 4.57,-8.615c-0,-0 5.356,-9.407 5.356,-9.407c-0,-0 2.972,-4.912 2.972,-4.912c0,0 2.99,-4.549 2.99,-4.549c-0,0 2.902,-4.354 2.902,-4.354c0.008,-0.011 2.352,-3.587 2.352,-3.587c-0,0 1.39,-1.518 1.39,-1.518l0.955,-1.313c-0,-0 1.239,-1.125 1.239,-1.125l0.835,-0.836l0.973,-0l0.396,-0.528l0.615,0l1.385,-0.692l0.807,-0.646l0.707,-0.45l0.384,-0.077l1.461,-0.647c0,0 0.715,-0.269 0.715,-0.269l1.728,-0.384l2.461,0c-0,0 1.581,0.264 1.581,0.264l1.515,-0c-0,-0 1.844,0.661 1.844,0.661l0.966,0c0,0 1.389,0.461 1.389,0.461l1.076,0.119c-0,0 0.833,0.333 0.833,0.333c-0,0 1.267,0.528 1.267,0.528c-0.001,0 1.065,0.678 1.065,0.678c0,0 0.894,0.671 0.894,0.671c0,-0 0.42,0.701 0.42,0.701l1.185,0.844c-0,0 0.591,0.689 0.591,0.689l0.541,0.543c0,-0 0.164,0.229 0.164,0.229c0,0 0.318,0.956 0.318,0.956l1.213,2.284c-0,0 0.404,1.113 0.404,1.113c0,-0 0.299,0.994 0.299,0.994c-0,-0 0.254,1.537 0.254,1.537l0.39,1.43c0,0 0.19,1.232 0.19,1.232c-0,0 -0,1.508 -0,1.508l0.392,9.806l-1.307,27.736l-3.9,48.169Zm-194.21,-9.037l-1.256,3.491l-0.995,3.411l-0.674,3.233c0,-0 -0.407,1.628 -0.407,1.628l-0.314,1.729l-0.294,3.23l0,6.331l0.264,1.32c-0,0 -0,1.41 -0,1.41l0.52,2.949l0.954,2.315c0,-0 0.275,1.239 0.275,1.239l0.667,1.497c-0,0 0.541,1.266 0.541,1.266l0.856,1.198c-0,0 0.604,0.907 0.604,0.907l0.698,0.835c-0,-0 1.173,1.642 1.173,1.642l1.218,0.524c0,0 0.306,0.305 0.306,0.305l0.892,0.714l1.522,1.09l1.771,0.502l0.478,0.07c0,-0 1.164,0.662 1.164,0.662l1.38,0c0,0 0.924,0.264 0.924,0.264l2.213,0l1.383,-0.395c0,-0 2.095,-0.557 2.095,-0.557l2.038,-0.73c0.046,-0.018 2.791,-1.085 2.791,-1.085l2.396,-1.595l2.287,-1.717l2.044,-1.751l1.099,-1.1l1.171,-1.317c0.046,-0.055 2.009,-2.441 2.009,-2.441l3.579,-5.368c0.045,-0.075 1.717,-2.86 1.717,-2.86l1.566,-3.276l1.389,-3.335c0.031,-0.085 1.256,-3.488 1.256,-3.488l0.986,-3.378l0.662,-2.912c-0,0 0.641,-2.245 0.641,-2.245l-0,-1.88c-0,0 0.124,-2.742 0.124,-2.742c0,-0 0.286,-3.291 0.286,-3.291l-0.278,-2.928c-0.001,-0 -0.001,-1.311 -0.001,-1.311l-0.166,-1.83l-0.601,-2.856l-0.665,-2.262c-0,0 -0.399,-1.794 -0.399,-1.794l-0.725,-1.015c-0,-0 -0.264,-0.923 -0.264,-0.923l-0.798,-1.117c0,0 -0.574,-1.339 -0.574,-1.339l-1.186,-1.018c0,-0 -0.621,-0.931 -0.621,-0.931l-1.588,-1.135l-0.255,-0.153c0,0 -0.825,-0.988 -0.825,-0.988l-2.863,-1.227l-1.639,-0.471l-0.93,-0c-0,-0 -0.532,-0.151 -0.532,-0.151l-2.201,-0.493l-1.327,0.382c0,-0 -0.648,-0 -0.648,-0l-2.731,0.361l-2.625,1.149c-0.04,0.019 -2.221,1.036 -2.221,1.036l-2.432,1.52l-2.33,1.748l-1.951,1.672c-0.014,0.012 -1.333,1.167 -1.333,1.167l-1.073,1.38c-0,-0 -1.878,2.146 -1.878,2.146l-2.064,2.801l-1.604,2.809c-0,0 -2.001,2.857 -2.001,2.857l-1.332,3.405c-0,0 -1.338,3.21 -1.338,3.21Z" style="fill:#fff;fill-rule:nonzero;"/></g></g></svg>