<svg clip-rule="evenodd" fill-rule="evenodd" stroke-linejoin="round" stroke-miterlimit="2" viewBox="0 0 600 193" xmlns="http://www.w3.org/2000/svg" xmlns:xlink="http://www.w3.org/1999/xlink"><clipPath id="a"><path clip-rule="evenodd" d="m439.354 171.191c-.563 1.928-1.485 3.741-2.721 5.339-.908 1.175-2.334 1.832-3.817 1.76-.135-.007-.269-.019-.402-.04-.015.113-.036.225-.062.336-.335 1.466-1.373 2.672-2.774 3.221-.521.203-1.051.381-1.588.53 7.318 6.264 17.328 9.684 28.878 9.684 33.601 0 42.093-21.416 42.093-51.14v-84.741h-16.616v14.77h-.369c-6.831-10.708-17.17-17.355-30.093-17.355-24.924 0-40.617 21.601-40.617 45.232 0 24.739 14.77 46.709 41.355 46.709 12.185 0 22.709-6.646 29.355-16.431h.369v16.431c0 17.724-4.246 31.755-24.739 31.755-7.379 0-13.705-2.105-18.252-6.06zm105.814-43.418-33.971 64.248h18.832l69.971-135.881h-18.647l-27.139 54.832-29.17-54.832h-19.385zm-406.418 18.691c.009-.448.063-2.1.413-2.976.402-1.005 1.611-1.96 1.622-1.969l40.54.025c-.021.016 1.162 1.079 1.504 2.014.301.825.428 2.452.46 2.906zm-55.671-125.033c-7.569-13.477-20.308-21.047-35.816-21.047-21.047 0-40.986 13.478-40.986 36.001 0 19.386 14.401 28.432 30.278 35.263l9.6 4.062c12.001 4.984 24.001 11.446 24.001 26.4 0 14.585-10.708 27.14-25.662 27.14-14.955 0-27.14-11.078-26.955-26.401l-17.539 3.692c2.954 22.339 20.493 38.955 43.017 38.955 24.923 0 44.493-18.093 44.493-43.386 0-23.262-14.769-34.154-34.524-41.908l-9.969-3.878c-8.678-3.323-19.386-9.046-19.386-19.939 0-12.185 12.185-19.754 23.263-19.754 10.523 0 17.169 4.431 22.339 13.108zm142.95 123.725c-22.924-2.864-35.786-23.426-35.786-46.369 0-23.631 15.693-45.232 40.801-45.232 12.739 0 23.078 6.647 29.909 16.985h.369v-14.4h16.616v54.07c-3.328-2.589-7.08-4.957-10.951-5.796-1.64-.356-3.312-.557-4.978-.61.157-1.46.236-2.951.236-4.463 0-16.8-10.154-31.016-28.062-31.016-17.17 0-27.324 14.954-27.324 31.016 0 14.31 7.591 27.761 21.385 30.763-.513 2.487-.984 5.156-1.393 8.009-.355 2.47-.624 4.818-.822 7.043zm-109.728-73.508h16.247v-15.508h-16.247v-33.047h-16.615v33.047h-9.047v15.508h9.047v70.894h16.615zm225.088 65.781c1.385-2.512 2.842-4.197 4.181-5.311 3.381-2.815 6.646-2.917 8.731-2.41 3.023.711 4.974 2.828 6.056 5.334.471 1.092.749 2.244.909 3.275l9.92 2c.424.086.828.23 1.201.426 3.87-1.832 17.14-8.186 19.646-9.279 2.424-1.059 6.053-2.11 9.545-1.632 2.062-2.409 3.899-5.071 5.472-7.967l-14.031-7.939c-6.277 10.339-13.108 16.801-25.847 16.801-15.877 0-25.847-13.847-26.031-28.617h65.909v-2.584c0-25.663-12.923-45.971-40.431-45.971-27.878 0-42.094 19.939-42.094 46.525 0 15.653 6.063 29.216 16.864 37.349zm-200.334 1.43c-2.032-2.82-3.086-6.833-2.818-10.748.244-3.625 2.528-7.324 4.363-10.297.24-.391.475-.772.698-1.138h35.899c1.617 2.56 4.329 7.505 4.611 12.239.22 3.763-.703 7.016-2.822 9.944zm314.151-8.132c-17.539 0-27.324-15.139-27.324-31.386 0-16.062 10.154-31.016 27.324-31.016 17.908 0 28.062 14.216 28.062 31.016 0 16.985-9.969 31.386-28.062 31.386zm-160.662-12.43c1.563.975 3.051 1.923 4.498 2.847 4.265 2.719 7.897 5.179 12.118 7.467v-56.963h16.247v-15.508h-16.247v-33.047h-16.616v33.047h-9.046v15.508h9.046zm-151.12-4.171c-.228-.01-.675-.286-.995-.715-.242-.327-.499-.851-.338-1.488.362-1.54 1.662-1.877 2.133-1.877h34.387c.471 0 1.775.337 2.133 1.875.163.638-.093 1.162-.336 1.489-.319.43-.768.706-1 .716-.125.002-2.584.002-5.806.002 0 0-30.049 0-30.178-.002zm1.048-6.407c-7.461-10.188-11.195-52.524 6.003-65.357 4.012-2.997 9.594-4.786 14.929-4.786 2.03 0 3.946.27 5.541.78l.072.023.049-.058c.853-.989 1.842-1.885 3.109-2.814 2.615 2.281 2.038 3.663 1.476 4.999-.118.284-.236.567-.323.853l-.027.09.083.044c.859.45 3.008 1.875 4.424 5.378 1.53 3.777 6.178 9.415 9.749 11.828 3.909 2.64 2.907 4.591 1.522 7.291-1.392 2.716-3.298 4.644-3.651 4.989-.889-.459-1.481-.922-2.054-1.37-.763-.594-1.482-1.156-2.804-1.663-1.011-.388-2.216-.586-3.582-.586-1.615 0-3.42.271-5.366.803-.768.209-1.496.316-2.16.316-4.892 0-5.237-5.537-5.26-6.168-.03-.799-.539-1.231-1.004-1.231-.46 0-1.009.41-1.04 1.563-.301 11.333 8.142 23.399 16.132 29.838l-1.909 15.238zm197.592-18.163c2.031-12.369 11.631-21.6 24.555-21.6 13.292 0 21.785 8.677 23.816 21.6z"/></clipPath><g fill="#fff"><g clip-path="url(#a)"><path d="m138.75 146.464c.009-.448.063-2.1.413-2.976.402-1.005 1.611-1.96 1.622-1.969l40.54.025c-.021.016 1.162 1.079 1.504 2.014.301.825.428 2.452.46 2.906z"/><path d="m141.055 138.859c-2.032-2.82-3.086-6.833-2.818-10.748.244-3.625 2.528-7.324 4.363-10.297.24-.391.475-.772.698-1.138h35.899c1.617 2.56 4.329 7.505 4.611 12.239.22 3.763-.703 7.016-2.822 9.944z"/><path d="m143.424 114.126c-.228-.01-.675-.286-.995-.715-.242-.327-.499-.851-.338-1.488.362-1.54 1.662-1.877 2.133-1.877h34.387c.471 0 1.775.337 2.133 1.875.163.638-.093 1.162-.336 1.489-.319.43-.768.706-1 .716-.125.002-2.584.002-5.806.002 0 0-30.049 0-30.178-.002z"/><path d="m144.472 107.719c-7.461-10.188-11.195-52.524 6.003-65.357 4.012-2.997 9.594-4.786 14.929-4.786 2.03 0 3.946.27 5.541.78l.072.023.049-.058c.853-.989 1.842-1.885 3.109-2.814 2.615 2.281 2.038 3.663 1.476 4.999-.118.284-.236.567-.323.853l-.027.09.083.044c.859.45 3.008 1.875 4.424 5.378 1.53 3.777 6.178 9.415 9.749 11.828 3.909 2.64 2.907 4.591 1.522 7.291-1.392 2.716-3.298 4.644-3.651 4.989-.889-.459-1.481-.922-2.054-1.37-.763-.594-1.482-1.156-2.804-1.663-1.011-.388-2.216-.586-3.582-.586-1.615 0-3.42.271-5.366.803-.768.209-1.496.316-2.16.316-4.892 0-5.237-5.537-5.26-6.168-.03-.799-.539-1.231-1.004-1.231-.46 0-1.009.41-1.04 1.563-.301 11.333 8.142 23.399 16.132 29.838l-1.909 15.238z"/><g fill-rule="nonzero"><path d="m83.079 21.431c-7.569-13.477-20.308-21.047-35.816-21.047-21.047 0-40.986 13.478-40.986 36.001 0 19.386 14.401 28.432 30.278 35.263l9.6 4.062c12.001 4.984 24.001 11.446 24.001 26.4 0 14.585-10.708 27.14-25.662 27.14-14.955 0-27.14-11.078-26.955-26.401l-17.539 3.692c2.954 22.339 20.493 38.955 43.017 38.955 24.923 0 44.493-18.093 44.493-43.386 0-23.262-14.769-34.154-34.524-41.908l-9.969-3.878c-8.678-3.323-19.386-9.046-19.386-19.939 0-12.185 12.185-19.754 23.263-19.754 10.523 0 17.169 4.431 22.339 13.108l13.846-8.308z"/><path d="m116.301 71.648h16.247v-15.508h-16.247v-33.047h-16.615v33.047h-9.047v15.508h9.047v70.894h16.615z"/><path d="m234.183 130.727c-17.539 0-27.324-15.139-27.324-31.386 0-16.062 10.154-31.016 27.324-31.016 17.908 0 28.062 14.216 28.062 31.016 0 16.985-9.969 31.386-28.062 31.386zm43.755-74.587h-16.616v14.4h-.369c-6.831-10.338-17.17-16.985-29.909-16.985-25.108 0-40.801 21.601-40.801 45.232 0 24.739 14.954 46.709 41.355 46.709 12.37 0 22.708-6.646 29.355-16.431h.369v13.477h16.616z"/><path d="m311.16 71.648h16.247v-15.508h-16.247v-33.047h-16.616v33.047h-9.046v15.508h9.046v70.894h16.616z"/><path d="m407.05 102.11v-2.584c0-25.663-12.923-45.971-40.431-45.971-27.878 0-42.094 19.939-42.094 46.525 0 25.477 16.062 45.416 42.463 45.416 16.8 0 31.939-8.677 40.062-23.631l-14.031-7.939c-6.277 10.339-13.108 16.801-25.847 16.801-15.877 0-25.847-13.847-26.031-28.617zm-64.986-12.554c2.031-12.369 11.631-21.6 24.555-21.6 13.292 0 21.785 8.677 23.816 21.6z"/><path d="m455.206 130.727c-17.539 0-27.324-15.139-27.324-31.386 0-16.062 10.154-31.016 27.324-31.016 17.908 0 28.062 14.216 28.062 31.016 0 16.985-9.969 31.386-28.062 31.386zm43.755-74.587h-16.616v14.77h-.369c-6.831-10.708-17.17-17.355-30.093-17.355-24.924 0-40.617 21.601-40.617 45.232 0 24.739 14.77 46.709 41.355 46.709 12.185 0 22.709-6.646 29.355-16.431h.369v16.431c0 17.724-4.246 31.755-24.739 31.755-15.139 0-25.847-8.862-25.847-24.37h-16.616c.37 24.37 17.724 39.14 41.725 39.14 33.601 0 42.093-21.416 42.093-51.14z"/><path d="m545.168 127.773-33.971 64.248h18.832l69.971-135.881h-18.647l-27.139 54.832-29.17-54.832h-19.385z"/></g></g><path d="m411.207 173.428-.095.665c-.214 1.491-1.63 2.527-3.157 2.308l-2.66-.382-.835 5.827c-.778 5.425-5.922 9.192-11.464 8.398-2.616-.376-4.985-1.973-6.51-3.248-2.426-2.027-16.961-14.944-16.961-14.944s-1.242-6.71-.266-13.517c.988-6.892 4.101-13.225 4.101-13.225 1.617-.745 17.717-8.471 20.492-9.68 1.819-.795 4.539-1.664 7.161-1.288 5.542.795 9.42 5.854 8.642 11.28l-.837 5.827 2.661.382c1.526.219 2.594 1.611 2.38 3.102l-.234 1.635c-.707.078-1.363.432-1.818.995-1.615 1.995-2.661 4.389-3.027 6.944-.001.001-.001.003-.001.004-.355 2.512-.045 5.064.899 7.401.282.699.839 1.244 1.529 1.516zm1.707-12.677c.297-.514.636-1.007 1.013-1.473.26.424.538.827.825 1.201 2.339 3.057 5.327 4.614 6.803 3.542.4-.295.648-.753.735-1.359.223-1.556-.676-3.921-2.291-6.028-.289-.385-.594-.737-.9-1.073 1.884-.701 3.946-.916 5.979-.625 2.115.304 4.108 1.145 5.778 2.436-.41.237-.834.514-1.291.844-2.14 1.576-3.666 3.597-3.889 5.15-.087.604.021 1.108.321 1.499 1.103 1.446 4.41.795 7.526-1.481.421-.308.802-.617 1.134-.922.729 1.862.964 3.881.681 5.853-.284 1.98-1.078 3.854-2.301 5.435-.247-.394-.482-.73-.728-1.047-2.34-3.053-5.327-4.604-6.798-3.531-.401.291-.648.749-.735 1.356-.223 1.557.678 3.924 2.296 6.034.253.337.544.684.849 1.012-1.954.765-4.087 1.01-6.183.71-2.065-.297-4.022-1.112-5.677-2.363.437-.248.872-.534 1.295-.849 2.142-1.571 3.671-3.589 3.894-5.141.087-.608-.023-1.116-.326-1.509-1.107-1.445-4.409-.792-7.517 1.484-.416.302-.809.625-1.2.985-.176-.435-.324-.88-.445-1.33 0 0-.008-.028-.008-.028l-.013-.049c-.023-.09-.045-.179-.066-.269l-.013-.052-.021-.093c-.006-.031-.013-.062-.02-.093l-.019-.093-.019-.093-.018-.093-.017-.094-.009-.045-.008-.049-.016-.094-.015-.094-.008-.053-.006-.041-.004-.031-.009-.063-.013-.094-.007-.062-.005-.033-.004-.039-.007-.055-.002-.018-.008-.077-.007-.069-.003-.026-.004-.047-.004-.048-.002-.025-.006-.07-.006-.077-.001-.018-.004-.055-.003-.04-.002-.033-.004-.062v-.007c-.001-.027-.003-.054-.004-.082l-.003-.069-.002-.032-.001-.041-.002-.055v-.009c-.001-.028-.002-.056-.002-.084l-.002-.073v-.025l-.001-.048v-.047-.027-.071c0-.029 0-.057 0-.085l.001-.065v-.039l.001-.034.002-.061v-.006c0-.029.001-.057.002-.086l.003-.068.001-.031.002-.043.003-.053v-.009c.002-.029.003-.057.005-.086l.004-.073.005-.074.004-.045.002-.028.005-.07c.003-.029.005-.058.008-.087l.006-.064.004-.038.003-.036.007-.059v-.006c.004-.029.007-.058.01-.087l.008-.069.004-.029.006-.044.006-.052.003-.022.01-.073s.011-.074.011-.074l.011-.073.008-.047.004-.026.012-.071c.005-.029.01-.058.015-.087l.011-.061.008-.043.005-.029.014-.069c.005-.029.011-.058.017-.086l.013-.062.008-.04.007-.032.015-.067c.006-.029.012-.057.019-.085l.015-.064.008-.037.009-.035.016-.064c.007-.028.014-.057.021-.085l.017-.065.009-.033.01-.038.015-.056.002-.006c.008-.028.015-.056.023-.083l.019-.067.009-.03.012-.04.016-.053.002-.008c.008-.027.017-.055.025-.082l.022-.068.008-.027.014-.042.016-.05.003-.01c.009-.026.018-.053.027-.08l.024-.069.008-.024.016-.045.017-.046.008-.023.025-.068.025-.07.008-.021.018-.047.017-.043.01-.025.025-.065.029-.071.007-.019.02-.049.017-.04.011-.028.026-.061.003-.006c.01-.024.021-.048.031-.072l.005-.011.022-.051.017-.037.013-.03.026-.058.041-.088.025-.053.016-.034.015-.032.027-.055.042-.086.028-.056.016-.031.017-.034.009-.017c.028-.055.057-.11.086-.164l.022-.041.046-.085c.016-.028.032-.056.047-.084l.048-.084.026-.045zm-55.964-19.755s-4.751 5.845-6.05 14.906c-1.286 8.967 1.669 15.645 1.669 15.645-.058.409-1.967 5.522-5.706 5.321-3.115-.145-8.692-3.721-5.897-22.391 2.794-18.669 9.38-21.052 12.293-20.345 3.735.88 3.733 6.572 3.691 6.864zm-105.945-30.234c4.2-2.324 9.808-3.037 15.019-1.906 4.829 1.047 9.346 4.984 12.974 8.147.474.414.935.816 1.381 1.199 0 0-5.989 11.022-8.196 26.412-2.215 15.446.415 27.85.415 27.85-3.771 1.788-10.971 4.662-17.393 4.142-5.101-.414-9.288-2.341-12.797-5.895 0 0-3.967-10.764-1.132-30.53 2.855-19.911 9.729-29.419 9.729-29.419zm32.436 8.066c.064-.343.554-.946 1.237-1.313.472-.253 1.201-.485 1.991-.15 1.998.805 2.187 2.712 2.091 3.379 0 0-4.742 10.009-6.928 25.253-2.215 15.446-.546 26.864-.546 26.864-.095.667-.812 2.444-2.952 2.653-.856.1-1.49-.326-1.872-.702-.551-.544-.854-1.26-.819-1.612.024-.181-2.589-12.698-.374-28.144 2.727-19.021 8.156-26.127 8.172-26.228zm-43.131-10.576c.928-1.532 2.865-2.112 4.482-1.342.243.107.471.214.665.33 1.271.76 2.31 2.649 2.32 2.668 0 0-6.627 7.75-9.8 29.8-3.156 21.924 1.049 31.001 1.049 31.001-.017-.033-1.689 1.436-3.011 1.737-.219.049-.474.085-.748.11-1.742.253-3.4-.832-3.864-2.53-.927-4.55-2.356-15.206-.053-31.268 2.342-16.331 6.8-26.382 8.96-30.506zm51.336 13.595c1.731 1.075 3.366 2.117 4.953 3.13 11.576 7.38 18.653 12.914 43.984 18.196 0 0-1.676 5.043-2.514 10.889-.822 5.727-.584 10.718-.584 10.718-24.429-1.937-33.026 1.628-45.374 5.411-2.461.754-5.002 1.533-7.726 2.292 0 0-1.475-12.772.43-26.058 1.885-13.142 6.831-24.578 6.831-24.578zm74.773 49.905-11.425-1.106s-2.846-3.21-1.25-14.336c1.619-11.287 5.286-13.806 5.286-13.806l11.258 2.269s-2.815 4.259-4.114 13.319c-1.286 8.967.245 13.66.245 13.66z"/></g></svg>