<svg clip-rule="evenodd" fill-rule="evenodd" stroke-linejoin="round" stroke-miterlimit="2" viewBox="0 0 600 316" xmlns="http://www.w3.org/2000/svg"><path d="m0 .397h600v314.96h-600v-314.96zm115.195 256.032v-80.877l-15.692 80.877h-19.806l-15.692-80.877v80.877h-36.324v-197.104h46.227l15.692 89.805 15.692-89.805h46.228v178.951l28.012-178.951h42.432l27.292 197.104h-35.965l-2.566-25.362h-23.347l-2.905 25.362zm396.265 0v-197.104h34.777v150.579h26.082v46.525zm-76.551-197.104h64.612v46.525h-29.836v27.461h26.783v46.524h-26.783v30.069h29.836v46.525h-64.612zm-128.887 197.104-19.275-82.086-.34.53c.17 9.67.509 19.339.509 29.009v52.547h-34.777v-197.104h33.59c30.175 0 51.995 13.593 51.995 65.609 0 21.715-6.149 41.054-19.954 49.409l25.913 82.086zm56.788 0-29.496-197.104h36.494l8.185 81.047c1.527 15.946 2.375 31.617 3.732 47.564h.361c1.527-15.947 2.036-31.618 3.902-47.564l9.563-81.047h37.661l-34.946 197.104zm-156.177-67.179-3.754-45.74c-1.017-12.299-1.696-24.852-2.544-37.13h-.34c-1.039 12.278-1.887 24.831-3.244 37.13l-4.771 45.74zm82.51-38.678c9.203 0 14.144-12.299 14.144-25.107 0-17.24-6.828-24.577-16.371-23.793v48.624z" fill="#fff"/></svg>