<svg clip-rule="evenodd" fill-rule="evenodd" stroke-linejoin="round" stroke-miterlimit="2" viewBox="0 0 600 162" xmlns="http://www.w3.org/2000/svg"><g fill="#fff"><path d="m349.062 97.268h15.171v11.071h-15.171z"/><path d="m349.062 118.999h15.171v42.379h-15.171z"/><path d="m477.221 97.268h15.171v11.071h-15.171z"/><path d="m477.221 118.999h15.171v42.233h-15.171z"/><path d="m420.521 107.953c-8.522.069-17.017 3.752-21.435 11.046-2.485 4.104-2.963 8.533-3.048 13.086l-.012-.007v29.154h-14.109v-34.904c0-4.361 1.711-8.32 3.164-11.019 6.686-12.415 21.222-18.83 35.641-18.818l.338.001c14.308.088 28.669 6.499 35.303 18.817 1.454 2.699 3.165 6.658 3.165 11.019v34.904h-14.109v-29.154l-.013.007c-.084-4.553-.563-8.982-3.048-13.086-4.452-7.352-13.046-11.034-21.636-11.047z"/><path d="m260.33 109.668c7.564-8.712 19.691-13.187 31.737-13.177l.338.001c14.307.087 28.669 6.499 35.303 18.817 1.453 2.699 3.164 6.658 3.164 11.019v34.904h-14.109v-29.154l-.012.007c-.085-4.553-.563-8.982-3.048-13.086-4.452-7.352-13.047-11.035-21.636-11.047l-.201.001c-8.522.069-17.018 3.751-21.435 11.046-2.362 3.901-2.911 8.096-3.032 12.411v29.822h-14.138v-29.822c-.12-4.315-.669-8.51-3.031-12.411-4.453-7.352-13.047-11.035-21.636-11.047l-.202.001c-8.522.069-17.017 3.751-21.435 11.046-2.485 4.104-2.963 8.533-3.047 13.086l-.013-.007v29.154h-14.109v-34.904c0-4.361 1.711-8.32 3.165-11.019 6.686-12.415 21.221-18.83 35.641-18.818l.338.001c11.933.073 23.905 4.545 31.398 13.176z"/><path d="m600 80.866-12.265-.101c-12.333.079-24.489 1.542-33.058 11.992-4.685 5.714-6.825 12.777-7.145 20.092-.566 12.937 2.492 27.572-11.907 34.31-2.735 1.28-5.644 1.87-8.61 2.294-5.616.8-11.553.298-17.222.298v11.481c15.213 0 33.361 2.226 44.514-10.667 4.184-4.837 6.663-10.46 7.443-16.805 1.727-14.067-3.923-31.065 12.008-39.031 2.307-1.153 4.837-1.841 7.381-2.206 6.087-.874 12.713-.176 18.861-.176z"/><path d="m297.092 14.251 17.448 45.73-10.017 24.533h7.916l28.846-70.263h-8.838l-12.566 34.246-11.691-34.246h-11.098z"/><path d="m348.466 60.732v-5.774s10.086.396 12.187.396c4.654 0 6.978-.992 8.727-2.868 1.034-1.126 1.966-6.11 1.966-7.886 0-1.77-.34-5.596-1.033-7.164-.715-1.535-2.34-2.97-4.776-3.177-1.738-.149-4.424-.501-7.565-.645-4.404-.209-7.315-2.506-8.717-4.158-1.39-1.654-3.252-4.143-3.252-11.762 0-7.627 1.973-11.903 3.951-13.886 1.978-1.994 4.872-2.868 7.096-3.263 2.558-.437 6.737-.463 6.737-.463l13.349.388v5.774s-9.734-.389-11.828-.389c-4.655 0-6.052.997-7.795 2.869-1.029 1.113-1.833 4.195-1.833 5.96 0 1.774.207 5.357.906 6.908.692 1.537 2.324 2.975 4.766 3.194 1.732.134 4.424.485 7.559.628 4.424.209 7.33 2.501 8.716 4.159 1.403 1.658 3.268 5.15 3.268 12.762 0 7.628-1.989 13.078-3.957 15.066-1.982 1.982-4.871 2.868-7.094 3.252-2.565.441-6.744.475-6.744.475z"/><path d="m236.818.003h9.536v61.093h-9.536z"/><path d="m400.503 5.854h-9.532v44.851s.228 4.094.463 5.534c.234 1.439 2.33 4.856 7.794 4.856l9.878-.192v-5.752s-2.676.192-4.29.192c-1.637 0-3.621-.107-3.956-2.874-.358-2.761-.358-6.061-.358-6.061v-26.41h10.769v-5.747h-10.769v-8.396l.001-.001z"/><path d="m492.538 14.254h9.532v46.841h-9.532z"/><path d="m473.547 5.854h-9.536v44.851s.224 4.094.454 5.534c.239 1.439 2.318 4.856 7.804 4.856l9.877-.192v-5.752s-2.681.192-4.301.192-3.608-.107-3.956-2.874c-.341-2.761-.341-6.061-.341-6.061v-26.41h10.742v-5.747h-10.742l-.001-8.397z"/><path d="m189.788.001v61.093h9.538v-55.237h8.827s6.414 0 8.61 2.868c1.866 2.436 2.207 6.856 2.207 9.841 0 3.194-.202 8.13-1.274 9.937-1.626 2.761-4.297 3.314-6.738 3.314h-5.828v5.423h8.38s7.561.315 10.813-2.99c3.987-4.052 5-9.5 5-16.794 0-6.626-2.405-13.311-7.319-15.582-4.068-1.871-11.403-1.871-11.403-1.871l-20.813-.002z"/><path d="m572.258 20.83 9.35-.394c2.446 0 5.326.66 6.723 2.431 1.3 1.668 2.121 3.656 2.121 6.86v31.315h9.548v-32.103c0-6.072-1.871-9.602-4.675-11.819-3.999-3.172-11.163-2.869-11.163-2.869l-21.362.384v46.407h9.458z"/><path d="m282.543 29.727c0-3.204-.815-5.192-2.127-6.86-1.397-1.771-4.264-2.433-6.718-2.433l-12.577.396v-6.195l15.137-.384s7.163-.304 11.168 2.869c2.793 2.218 4.648 5.747 4.648 11.819v31.655l-18.274.395s-8.273.029-12.443-1.658c-4.062-1.653-6.279-6.189-6.279-12.486 0-6.077 1.86-9.607 4.653-11.824 4.003-3.177 11.163-2.863 11.163-2.863h5.838v5.396h-3.274c-2.452 0-4.972.453-6.376 2.222-1.305 1.652-2.004 3.088-2.004 6.292 0 4.206.815 6.081 2.793 7.511 1.749 1.274 4.878 1.55 8.371 1.55l6.301-.383z"/><path d="m443.341 29.727c0-3.204-.798-5.192-2.11-6.86-1.413-1.771-4.281-2.433-6.716-2.433l-12.572.396v-6.195l15.125-.384s7.159-.304 11.158 2.869c2.794 2.218 4.659 5.747 4.659 11.819v31.655l-18.275.395s-8.284.029-12.443-1.658c-4.067-1.653-6.29-6.189-6.29-12.486 0-6.077 1.876-9.607 4.654-11.824 3.999-3.177 11.173-2.863 11.173-2.863h5.833v5.396h-3.279c-2.436 0-4.973.453-6.359 2.222-1.312 1.652-2.015 3.088-2.015 6.292 0 4.206.82 6.081 2.793 7.511 1.743 1.274 4.889 1.55 8.38 1.55l6.286-.383z"/><path d="m532.201 13.852c6.487 0 11.52 1.45 14.223 3.635 2.729 2.192 6.081 6.814 6.081 20.188 0 13.376-3.352 17.993-6.081 20.19-2.704 2.185-7.736 3.646-14.223 3.646-6.505 0-11.516-1.461-14.24-3.646-2.724-2.197-6.061-6.814-6.061-20.19 0-13.374 3.337-17.997 6.061-20.188 2.724-2.185 7.735-3.635 14.24-3.635zm-6.536 8.981c-1.313 1.617-2.911 5.012-2.911 14.842 0 9.827 1.598 13.227 2.91 14.836 1.307 1.601 3.715 2.682 6.835 2.682 3.123 0 5.522-1.082 6.845-2.681 1.306-1.61 2.905-5.012 2.905-14.835 0-9.832-1.599-13.228-2.905-14.842-1.323-1.604-3.722-2.677-6.845-2.677-3.119 0-5.528 1.071-6.835 2.677z"/><path d="m492.538 0h9.532v8.504h-9.532z"/><path d="m91.113 31.022c21.01 7.253 28.13 16.281 28.13 36.625 0 19.822-12.173 27.338-27.635 19.833v-36.966c0-4.333-.792-8.324-4.838-9.457-3.101-1.001-5.026 1.897-5.026 6.23v92.51l-24.809-7.918v-110.297c10.552 1.968 25.92 6.598 34.178 9.418z"/><path d="m86.445 123.709 39.902-14.241c4.531-1.65 5.224-3.926 1.545-5.13-3.678-1.204-10.326-.863-14.846.77l-26.59 9.38v-14.95l1.54-.523c6.007-1.943 12.201-3.257 18.48-3.92 10.804-1.193 24.033.165 34.414 4.102 11.706 3.706 13.026 9.166 10.051 12.927-2.974 3.761-10.265 6.438-10.265 6.438l-54.22 19.514z"/><path d="m11.425 122.202c-11.981-3.425-14.015-10.496-8.539-14.571 5.064-3.777 13.675-6.598 13.675-6.598l35.558-12.701v14.472l-25.59 9.199c-4.525 1.649-5.218 3.937-1.539 5.141 3.678 1.204 10.326.863 14.845-.765l12.273-4.475v12.948c-.776.143-1.65.281-2.447.413-12.805 2.088-25.927 1.037-38.236-3.063z"/></g></svg>