<svg clip-rule="evenodd" fill-rule="evenodd" stroke-linejoin="round" stroke-miterlimit="2" viewBox="0 0 600 93" xmlns="http://www.w3.org/2000/svg"><g fill="#fff" fill-rule="nonzero"><path d="m92.407 83.269v9.158h-9.111v-9.158zm-9.111 0v-9.065h9.111v9.065zm0-9.065v-9.296h9.111v9.296zm0-18.546v-9.296h9.111v9.296zm0-9.296v-9.25h9.111v9.25zm0-9.25v-9.296h9.111v9.296zm0-9.296v-9.296h9.111v9.296zm0 55.453v9.158h-9.25v-9.158zm-9.25 0v-9.065h9.25v9.065zm0-9.065v-9.296h9.25v9.296zm0-9.296v-9.25h9.25v9.25zm0-9.25v-9.296h9.25v9.296zm0-9.296v-9.25h9.25v9.25zm0-9.25v-9.296h9.25v9.296zm0-9.296v-9.296h9.25v9.296zm0-9.296v-9.065h9.25v9.065zm-9.296-9.065v-9.297h9.296v9.297zm9.296 73.814v9.158h-9.296v-9.158zm-9.296 0v-9.065h9.296v9.065zm0-18.361v-9.25h9.296v9.25zm0-9.25v-9.296h9.296v9.296zm0-9.296v-9.25h9.296v9.25zm0-27.842v-9.065h9.296v9.065zm-9.25-9.065v-9.297h9.25v9.297zm9.25 73.814v9.158h-9.25v-9.158zm-9.25 0v-9.065h9.25v9.065zm0-18.361v-9.25h9.25v9.25zm0-9.25v-9.296h9.25v9.296zm-9.296-46.203v-9.297h9.296v9.297zm9.296 73.814v9.158h-9.296v-9.158zm-9.296 0v-9.065h9.296v9.065zm0-18.361v-9.25h9.296v9.25zm0-37.092v-9.296h9.296v9.296zm-9.297-18.361v-9.297h9.297v9.297zm9.297 73.814v9.158h-9.297v-9.158zm-9.297 0v-9.065h9.297v9.065zm0-46.157v-9.296h9.297v9.296zm0-9.296v-9.296h9.297v9.296zm-9.065-18.361v-9.297h9.065v9.297zm9.065 73.814v9.158h-9.065v-9.158zm-9.065 0v-9.065h9.065v9.065zm0-36.907v-9.25h9.065v9.25zm0-9.25v-9.296h9.065v9.296zm0-9.296v-9.296h9.065v9.296zm-9.296-18.361v-9.297h9.296v9.297zm9.296 73.814v9.158h-9.296v-9.158zm-9.296 0v-9.065h9.296v9.065zm0-27.611v-9.296h9.296v9.296zm0-9.296v-9.25h9.296v9.25zm-9.25-36.907v-9.297h9.25v9.297zm9.25 73.814v9.158h-9.25v-9.158zm-9.25 0v-9.065h9.25v9.065zm0-18.361v-9.25h9.25v9.25zm0-9.25v-9.296h9.25v9.296zm0-9.296v-9.25h9.25v9.25zm0-27.842v-9.065h9.25v9.065zm-9.296 64.749v-9.065h9.296v9.065zm0-9.065v-9.296h9.296v9.296zm0-9.296v-9.25h9.296v9.25zm0-18.546v-9.25h9.296v9.25zm0-9.25v-9.296h9.296v9.296zm0-9.296v-9.296h9.296v9.296zm0-9.296v-9.065h9.296v9.065z"/><path d="m192.908 64.908v-9.25h9.112v9.25zm0-9.25v-9.296h9.112v9.296zm0-9.296v-9.25h9.112v9.25zm0-9.25v-9.296h9.112v9.296zm0-9.296v-9.296h9.112v9.296zm-9.25 46.388v-9.296h9.25v9.296zm0-9.296v-9.25h9.25v9.25zm0-9.25v-9.296h9.25v9.296zm0-9.296v-9.25h9.25v9.25zm0-9.25v-9.296h9.25v9.296zm0-9.296v-9.296h9.25v9.296zm0-9.296v-9.065h9.25v9.065zm-9.296-9.065v-9.297h9.296v9.297zm0 64.749v-9.296h9.296v9.296zm0-9.296v-9.25h9.296v9.25zm0-9.25v-9.296h9.296v9.296zm0-37.138v-9.065h9.296v9.065zm-9.25-9.065v-9.297h9.25v9.297zm0 64.749v-9.296h9.25v9.296zm0-9.296v-9.25h9.25v9.25zm-9.296-55.453v-9.297h9.296v9.297zm0 64.749v-9.296h9.296v9.296zm0-9.296v-9.25h9.296v9.25zm0-18.546v-9.25h9.296v9.25zm0-9.25v-9.296h9.296v9.296zm0-9.296v-9.296h9.296v9.296zm-9.296-18.361v-9.297h9.296v9.297zm9.296 73.814v9.158h-9.296v-9.158zm-9.296 0v-9.065h9.296v9.065zm0-9.065v-9.296h9.296v9.296zm0-9.296v-9.25h9.296v9.25zm0-18.546v-9.25h9.296v9.25zm0-9.25v-9.296h9.296v9.296zm0-9.296v-9.296h9.296v9.296zm-9.065-18.361v-9.297h9.065v9.297zm9.065 73.814v9.158h-9.065v-9.158zm-9.065 0v-9.065h9.065v9.065zm0-9.065v-9.296h9.065v9.296zm0-9.296v-9.25h9.065v9.25zm0-18.546v-9.25h9.065v9.25zm0-9.25v-9.296h9.065v9.296zm0-9.296v-9.296h9.065v9.296zm-9.297-18.361v-9.297h9.297v9.297zm9.297 73.814v9.158h-9.297v-9.158zm-9.297 0v-9.065h9.297v9.065zm-9.249-73.814v-9.297h9.249v9.297zm9.249 73.814v9.158h-9.249v-9.158zm-9.249 0v-9.065h9.249v9.065zm-9.297-73.814v-9.297h9.297v9.297zm0 73.814v-9.065h9.297v9.065zm0-9.065v-9.296h9.297v9.296zm0-9.296v-9.25h9.297v9.25zm0-9.25v-9.296h9.297v9.296zm0-9.296v-9.25h9.297v9.25zm0-9.25v-9.296h9.297v9.296zm0-9.296v-9.296h9.297v9.296zm0-9.296v-9.065h9.297v9.065z"/><path d="m276.204 83.269v9.158h-9.25v-9.158zm-9.25 0v-9.065h9.25v9.065zm0-9.065v-9.296h9.25v9.296zm0 9.065v9.158h-9.296v-9.158zm-9.296 0v-9.065h9.296v9.065zm0-9.065v-9.296h9.296v9.296zm0-9.296v-9.25h9.296v9.25zm0 18.361v9.158h-9.25v-9.158zm-9.25 0v-9.065h9.25v9.065zm0-18.361v-9.25h9.25v9.25zm0 18.361v9.158h-9.296v-9.158zm-9.296 0v-9.065h9.296v9.065zm0-18.361v-9.25h9.296v9.25zm0 18.361v9.158h-9.296v-9.158zm-9.296 0v-9.065h9.296v9.065zm0-18.361v-9.25h9.296v9.25zm0-9.25v-9.296h9.296v9.296zm0-9.296v-9.25h9.296v9.25zm0-9.25v-9.296h9.296v9.296zm0-9.296v-9.296h9.296v9.296zm0-9.296v-9.065h9.296v9.065zm-9.065-9.065v-9.297h9.065v9.297zm9.065 73.814v9.158h-9.065v-9.158zm-9.065 0v-9.065h9.065v9.065zm0-18.361v-9.25h9.065v9.25zm0-9.25v-9.296h9.065v9.296zm0-9.296v-9.25h9.065v9.25zm0-9.25v-9.296h9.065v9.296zm0-9.296v-9.296h9.065v9.296zm0-9.296v-9.065h9.065v9.065zm-9.296-9.065v-9.297h9.296v9.297zm9.296 73.814v9.158h-9.296v-9.158zm-9.296 0v-9.065h9.296v9.065zm-9.25-73.814v-9.297h9.25v9.297zm9.25 73.814v9.158h-9.25v-9.158zm-9.25 0v-9.065h9.25v9.065zm-9.297-73.814v-9.297h9.297v9.297zm0 73.814v-9.065h9.297v9.065zm0-9.065v-9.296h9.297v9.296zm0-9.296v-9.25h9.297v9.25zm0-9.25v-9.296h9.297v9.296zm0-9.296v-9.25h9.297v9.25zm0-9.25v-9.296h9.297v9.296zm0-9.296v-9.296h9.297v9.296zm0-9.296v-9.065h9.297v9.065z"/><path d="m359.362 83.269v9.158h-9.111v-9.158zm-9.111 0v-9.065h9.111v9.065zm0-9.065v-9.296h9.111v9.296zm0-9.296v-9.25h9.111v9.25zm0-9.25v-9.296h9.111v9.296zm0-9.296v-9.25h9.111v9.25zm0-9.25v-9.296h9.111v9.296zm0-9.296v-9.296h9.111v9.296zm0 55.453v9.158h-9.25v-9.158zm-9.25 0v-9.065h9.25v9.065zm0-9.065v-9.296h9.25v9.296zm0-9.296v-9.25h9.25v9.25zm0-9.25v-9.296h9.25v9.296zm0-9.296v-9.25h9.25v9.25zm0-9.25v-9.296h9.25v9.296zm0-9.296v-9.296h9.25v9.296zm0-9.296v-9.065h9.25v9.065zm-9.297-9.065v-9.297h9.297v9.297zm9.297 73.814v9.158h-9.297v-9.158zm-9.297 0v-9.065h9.297v9.065zm0-64.749v-9.065h9.297v9.065zm-9.25-9.065v-9.297h9.25v9.297zm9.25 73.814v9.158h-9.25v-9.158zm-9.25 0v-9.065h9.25v9.065zm-9.296-73.814v-9.297h9.296v9.297zm0 73.814v-9.065h9.296v9.065zm0-9.065v-9.296h9.296v9.296zm0-9.296v-9.25h9.296v9.25zm0-18.546v-9.25h9.296v9.25zm0-9.25v-9.296h9.296v9.296zm0-9.296v-9.296h9.296v9.296zm-9.296-18.361v-9.297h9.296v9.297zm9.296 73.814v9.158h-9.296v-9.158zm-9.296 0v-9.065h9.296v9.065zm0-9.065v-9.296h9.296v9.296zm0-9.296v-9.25h9.296v9.25zm0-18.546v-9.25h9.296v9.25zm0-9.25v-9.296h9.296v9.296zm0-9.296v-9.296h9.296v9.296zm-9.065-18.361v-9.297h9.065v9.297zm9.065 73.814v9.158h-9.065v-9.158zm-9.065 0v-9.065h9.065v9.065zm0-9.065v-9.296h9.065v9.296zm0-9.296v-9.25h9.065v9.25zm0-18.546v-9.25h9.065v9.25zm0-9.25v-9.296h9.065v9.296zm0-9.296v-9.296h9.065v9.296zm-9.296-18.361v-9.297h9.296v9.297zm9.296 73.814v9.158h-9.296v-9.158zm-9.296 0v-9.065h9.296v9.065zm-9.25-73.814v-9.297h9.25v9.297zm9.25 73.814v9.158h-9.25v-9.158zm-9.25 0v-9.065h9.25v9.065zm0-64.749v-9.065h9.25v9.065zm-9.297 64.749v-9.065h9.297v9.065zm0-9.065v-9.296h9.297v9.296zm0-9.296v-9.25h9.297v9.25zm0-9.25v-9.296h9.297v9.296zm0-9.296v-9.25h9.297v9.25zm0-9.25v-9.296h9.297v9.296zm0-9.296v-9.296h9.297v9.296zm0-9.296v-9.065h9.297v9.065z"/><path d="m424.297 55.658v-9.296h9.25v9.296zm0-9.296v-9.25h9.25v9.25zm0-9.25v-9.296h9.25v9.296zm0-9.296v-9.296h9.25v9.296zm0-9.296v-9.065h9.25v9.065zm-9.297-9.065v-9.297h9.297v9.297zm0 55.453v-9.25h9.297v9.25zm0-9.25v-9.296h9.297v9.296zm0-9.296v-9.25h9.297v9.25zm0-9.25v-9.296h9.297v9.296zm0-9.296v-9.296h9.297v9.296zm0-9.296v-9.065h9.297v9.065zm-9.25-9.065v-9.297h9.25v9.297zm9.25 73.814v9.158h-9.25v-9.158zm-9.25 0v-9.065h9.25v9.065zm0-9.065v-9.296h9.25v9.296zm0-9.296v-9.25h9.25v9.25zm0-9.25v-9.296h9.25v9.296zm0-9.296v-9.25h9.25v9.25zm-9.296-36.907v-9.297h9.296v9.297zm9.296 73.814v9.158h-9.296v-9.158zm-9.296 0v-9.065h9.296v9.065zm0-9.065v-9.296h9.296v9.296zm0-9.296v-9.25h9.296v9.25zm0-9.25v-9.296h9.296v9.296zm-9.296-46.203v-9.297h9.296v9.297zm9.296 73.814v9.158h-9.296v-9.158zm-9.296 0v-9.065h9.296v9.065zm0-46.157v-9.296h9.296v9.296zm0-9.296v-9.296h9.296v9.296zm0-9.296v-9.065h9.296v9.065zm-9.065-9.065v-9.297h9.065v9.297zm9.065 73.814v9.158h-9.065v-9.158zm-9.065 0v-9.065h9.065v9.065zm0-46.157v-9.296h9.065v9.296zm0-9.296v-9.296h9.065v9.296zm0-9.296v-9.065h9.065v9.065zm-9.296-9.065v-9.297h9.296v9.297zm0 73.814v-9.065h9.296v9.065zm0-9.065v-9.296h9.296v9.296zm0-9.296v-9.25h9.296v9.25zm0-9.25v-9.296h9.296v9.296zm-9.25-46.203v-9.297h9.25v9.297zm0 46.203v-9.296h9.25v9.296zm0-9.296v-9.25h9.25v9.25zm-9.296-36.907v-9.297h9.296v9.297zm0 36.907v-9.25h9.296v9.25zm0-9.25v-9.296h9.296v9.296zm0-9.296v-9.296h9.296v9.296zm0-9.296v-9.065h9.296v9.065z"/><path d="m516.704 83.269v9.158h-9.111v-9.158zm-9.111 0v-9.065h9.111v9.065zm0-9.065v-9.296h9.111v9.296zm0-37.092v-9.296h9.111v9.296zm0-9.296v-9.296h9.111v9.296zm0-9.296v-9.065h9.111v9.065zm-9.25-9.065v-9.297h9.25v9.297zm9.25 73.814v9.158h-9.25v-9.158zm-9.25 0v-9.065h9.25v9.065zm0-9.065v-9.296h9.25v9.296zm0-9.296v-9.25h9.25v9.25zm0-9.25v-9.296h9.25v9.296zm0-9.296v-9.25h9.25v9.25zm0-9.25v-9.296h9.25v9.296zm0-9.296v-9.296h9.25v9.296zm0-9.296v-9.065h9.25v9.065zm-9.297-9.065v-9.297h9.297v9.297zm9.297 73.814v9.158h-9.297v-9.158zm-9.297 0v-9.065h9.297v9.065zm0-18.361v-9.25h9.297v9.25zm0-9.25v-9.296h9.297v9.296zm0-9.296v-9.25h9.297v9.25zm0-9.25v-9.296h9.297v9.296zm0-9.296v-9.296h9.297v9.296zm-9.249-18.361v-9.297h9.249v9.297zm9.249 73.814v9.158h-9.249v-9.158zm-9.249 0v-9.065h9.249v9.065zm0-18.361v-9.25h9.249v9.25zm0-9.25v-9.296h9.249v9.296zm0-18.546v-9.296h9.249v9.296zm0-9.296v-9.296h9.249v9.296zm-9.297-18.361v-9.297h9.297v9.297zm9.297 73.814v9.158h-9.297v-9.158zm-9.297 0v-9.065h9.297v9.065zm0-18.361v-9.25h9.297v9.25zm0-9.25v-9.296h9.297v9.296zm0-18.546v-9.296h9.297v9.296zm0-9.296v-9.296h9.297v9.296zm-9.296-18.361v-9.297h9.296v9.297zm9.296 73.814v9.158h-9.296v-9.158zm-9.296 0v-9.065h9.296v9.065zm0-18.361v-9.25h9.296v9.25zm0-9.25v-9.296h9.296v9.296zm0-18.546v-9.296h9.296v9.296zm0-9.296v-9.296h9.296v9.296zm-9.065-18.361v-9.297h9.065v9.297zm9.065 73.814v9.158h-9.065v-9.158zm-9.065 0v-9.065h9.065v9.065zm0-18.361v-9.25h9.065v9.25zm0-9.25v-9.296h9.065v9.296zm0-18.546v-9.296h9.065v9.296zm0-9.296v-9.296h9.065v9.296zm-9.296-18.361v-9.297h9.296v9.297zm9.296 73.814v9.158h-9.296v-9.158zm-9.296 0v-9.065h9.296v9.065zm-9.25-73.814v-9.297h9.25v9.297zm9.25 73.814v9.158h-9.25v-9.158zm-9.25 0v-9.065h9.25v9.065zm-9.296-73.814v-9.297h9.296v9.297zm0 73.814v-9.065h9.296v9.065zm0-9.065v-9.296h9.296v9.296zm0-9.296v-9.25h9.296v9.25zm0-9.25v-9.296h9.296v9.296zm0-9.296v-9.25h9.296v9.25zm0-9.25v-9.296h9.296v9.296zm0-9.296v-9.296h9.296v9.296zm0-9.296v-9.065h9.296v9.065z"/><path d="m600 83.269v9.158h-9.111v-9.158zm-9.111 0v-9.065h9.111v9.065zm0-9.065v-9.296h9.111v9.296zm0-9.296v-9.25h9.111v9.25zm0-9.25v-9.296h9.111v9.296zm0-9.296v-9.25h9.111v9.25zm0-9.25v-9.296h9.111v9.296zm0-9.296v-9.296h9.111v9.296zm0 55.453v9.158h-9.25v-9.158zm-9.25 0v-9.065h9.25v9.065zm0-9.065v-9.296h9.25v9.296zm0-9.296v-9.25h9.25v9.25zm0-9.25v-9.296h9.25v9.296zm0-9.296v-9.25h9.25v9.25zm0-9.25v-9.296h9.25v9.296zm0-9.296v-9.296h9.25v9.296zm0-9.296v-9.065h9.25v9.065zm-9.296-9.065v-9.297h9.296v9.297zm9.296 73.814v9.158h-9.296v-9.158zm-9.296 0v-9.065h9.296v9.065zm0-36.907v-9.25h9.296v9.25zm0-27.842v-9.065h9.296v9.065zm-9.25-9.065v-9.297h9.25v9.297zm9.25 73.814v9.158h-9.25v-9.158zm-9.25 0v-9.065h9.25v9.065zm-9.297-73.814v-9.297h9.297v9.297zm0 73.814v-9.065h9.297v9.065zm0-9.065v-9.296h9.297v9.296zm0-9.296v-9.25h9.297v9.25zm0-9.25v-9.296h9.297v9.296zm0-18.546v-9.296h9.297v9.296zm0-9.296v-9.296h9.297v9.296zm-9.296-18.361v-9.297h9.296v9.297zm9.296 73.814v9.158h-9.296v-9.158zm-9.296 0v-9.065h9.296v9.065zm0-9.065v-9.296h9.296v9.296zm0-9.296v-9.25h9.296v9.25zm0-9.25v-9.296h9.296v9.296zm0-18.546v-9.296h9.296v9.296zm0-9.296v-9.296h9.296v9.296zm-9.065-18.361v-9.297h9.065v9.297zm9.065 73.814v9.158h-9.065v-9.158zm-9.065 0v-9.065h9.065v9.065zm0-9.065v-9.296h9.065v9.296zm0-9.296v-9.25h9.065v9.25zm0-9.25v-9.296h9.065v9.296zm0-18.546v-9.296h9.065v9.296zm0-9.296v-9.296h9.065v9.296zm-9.296-18.361v-9.297h9.296v9.297zm9.296 73.814v9.158h-9.296v-9.158zm-9.296 0v-9.065h9.296v9.065zm-9.25-73.814v-9.297h9.25v9.297zm9.25 73.814v9.158h-9.25v-9.158zm-9.25 0v-9.065h9.25v9.065zm-9.296-73.814v-9.297h9.296v9.297zm0 73.814v-9.065h9.296v9.065zm0-9.065v-9.296h9.296v9.296zm0-9.296v-9.25h9.296v9.25zm0-9.25v-9.296h9.296v9.296zm0-9.296v-9.25h9.296v9.25zm0-9.25v-9.296h9.296v9.296zm0-9.296v-9.296h9.296v9.296zm0-9.296v-9.065h9.296v9.065z"/></g></svg>