<svg clip-rule="evenodd" fill-rule="evenodd" stroke-linejoin="round" stroke-miterlimit="2" viewBox="0 0 600 131" xmlns="http://www.w3.org/2000/svg"><g fill="#fff"><path d="m596.764 110.944h-109.038v-31.711s-.356-12.244 14.788-12.244h63.562c2.805.023 5.584-.543 8.157-1.66 3.993-1.78 8.481-5.403 8.481-12.715 0-6.56-3.179-10.286-6.326-12.371-2.605-1.683-5.646-2.567-8.748-2.543h-79.914v-8.901h90.023s22.251.903 22.251 23.771c0 11.628-6.79 17.388-12.899 20.21-3.948 1.814-8.244 2.745-12.588 2.728h-62.927c-1.181-.016-2.348.262-3.395.807-1.513.82-3.179 2.448-3.179 5.652v20.198h91.752z"/><path d="m340.493 102.012v8.901h49.652c5.933.062 11.693-2.023 16.212-5.868 4.718-4.005 7.38-9.936 7.234-16.123v-37.833c-.051-4.189 1.826-8.178 5.086-10.808 2.285-1.789 5.116-2.743 8.017-2.702h43.288v-8.78h-51.553s-22.251.356-22.251 23.892v35.328c.04 2.893-.741 5.739-2.25 8.208-2.221 3.713-6.293 5.939-10.617 5.804z"/><path d="m225.855 28.799v8.78h88.496c2.461-.021 4.897.502 7.133 1.532 3.509 1.647 7.451 5.035 7.451 11.908 0 6.675-3.942 10.013-7.451 11.666-2.272 1.043-4.747 1.572-7.247 1.551h-65.635c-3.885-.036-7.726.834-11.215 2.543-5.461 2.74-11.532 9.193-11.532 19.835v24.159h17.031v-24.051c-.011-1.564.272-3.117.833-4.577 1.405-3.605 4.959-9.39 13.268-9.39h66.182c2.226.012 4.442-.285 6.586-.884 6.078-1.729 16.212-6.726 16.212-20.852 0-21.953-21.851-22.22-21.851-22.22z"/><path d="m63.09.095c7.337 1.367 14.549 3.321 21.726 5.358 4.105 1.192 8.2 2.426 12.268 3.739 6.39 2.036 12.752 4.34 18.54 7.777 2.593 1.574 5.082 3.353 7.21 5.522 2.305 2.263 4.194 4.915 5.579 7.834 2.523 5.27 3.388 11.158 3.643 16.947.12 3.777.113 7.587-.594 11.316-.586 3.24-1.628 6.435-3.361 9.249-1.531 2.485-3.659 4.635-6.241 6.02-2.477 1.335-5.313 1.972-8.122 1.915-4.261.044-8.395-1.313-12.219-3.094-.07-12.717-.011-25.435-.03-38.149-.026-2.3.13-4.625-.334-6.894-.327-1.759-1.044-3.531-2.425-4.725-.914-.825-2.102-1.291-3.294-1.543-1.206-.229-2.492.283-3.239 1.252-1.241 1.55-1.567 3.609-1.623 5.539-.01 34.043.012 68.087-.01 102.127-9.159-2.903-18.317-5.809-27.474-8.718-.009-40.491-.005-80.981 0-121.472z"/><path d="m21.927 86.243c11.94-4.227 23.867-8.497 35.812-12.709.018 4.687 0 9.376.007 14.068-.007.636.033 1.275-.046 1.907-9.441 3.347-18.865 6.752-28.295 10.12-1.308.495-2.649 1.053-3.658 2.051-.469.469-.853 1.161-.596 1.831.323.791 1.13 1.222 1.874 1.546 2.069.842 4.331.962 6.535 1.062 2.457-.039 4.926-.223 7.332-.754 1.627-.321 3.192-.868 4.743-1.45 4.03-1.459 8.061-2.927 12.097-4.371.029 3.965.005 7.933.013 11.903-.013.793.036 1.591-.043 2.38-4.957.89-9.973 1.494-15.012 1.574-10.146.229-20.315-1.341-29.953-4.513-3.16-.915-6.301-2.135-8.941-4.141-1.453-1.125-2.753-2.539-3.414-4.279-.554-1.474-.514-3.175.176-4.596.665-1.419 1.828-2.539 3.108-3.411 2.96-2.045 6.228-3.605 9.537-4.996 2.854-1.215 5.812-2.161 8.724-3.222z"/><path d="m117.994 80.902c2.707-.313 5.433-.387 8.156-.484 8.955.033 17.957 1.147 26.524 3.835 1.681.511 3.309 1.173 4.983 1.705 2.986 1.091 5.974 2.414 8.364 4.561 1.435 1.308 2.674 3.073 2.69 5.087.086 1.641-.656 3.214-1.721 4.422-2.023 2.27-4.699 3.83-7.384 5.191-2.859 1.457-5.933 2.398-8.931 3.508-18.301 6.571-36.604 13.14-54.901 19.719-.004-5.127.005-10.252-.004-15.373.028-.206-.084-.563.204-.617 13.925-4.953 27.846-9.921 41.769-14.89 1.883-.704 3.911-1.213 5.507-2.49.654-.513 1.294-1.33.974-2.212-.335-.77-1.134-1.196-1.869-1.515-2.084-.825-4.354-.984-6.57-1.047-3.471.024-6.972.451-10.273 1.564-9.918 3.476-19.817 6.994-29.738 10.458.001-5.504-.004-11.005.003-16.508 7.175-2.519 14.669-4.046 22.217-4.914z"/></g></svg>