<?xml version="1.0" encoding="UTF-8" standalone="no"?><!DOCTYPE svg PUBLIC "-//W3C//DTD SVG 1.1//EN" "http://www.w3.org/Graphics/SVG/1.1/DTD/svg11.dtd"><svg width="100%" height="100%" viewBox="0 0 600 260" version="1.1" xmlns="http://www.w3.org/2000/svg" xmlns:xlink="http://www.w3.org/1999/xlink" xml:space="preserve" xmlns:serif="http://www.serif.com/" style="fill-rule:evenodd;clip-rule:evenodd;stroke-linejoin:round;stroke-miterlimit:2;"><g id="playlist_starwars"><path d="M256.164,207.216l-18.289,0c-0.645,0 -1.108,-0.727 -1.108,-1.421c0,-0.247 9.733,-31.623 9.733,-31.623c0.347,-1.174 0.38,-1.208 0.512,-1.208l0.016,-0c0.148,-0 0.166,0.034 0.511,1.208c0,-0 9.733,31.376 9.733,31.623c-0,0.694 -0.496,1.421 -1.106,1.421m24.667,-71.79c-0.185,-0.634 -0.746,-1.089 -1.405,-1.14l-67.164,-0c-0.653,0.052 -1.211,0.498 -1.405,1.123c-0.194,0.626 -37.126,122.564 -37.126,122.797c0,0.61 0.479,1.106 1.107,1.106l44.396,-0c0.357,-0.149 0.617,-0.465 0.695,-0.843l5.171,-16.522c0.162,-0.417 0.56,-0.698 1.008,-0.711l40.96,-0.032c0.445,0.033 0.843,0.347 1.008,0.743l5.287,16.522c0.082,0.381 0.347,0.727 0.694,0.859l43.685,-0.016c0.611,-0 1.124,-0.463 1.124,-1.074c0,-0.215 -38.035,-122.812 -38.035,-122.812m126.563,50.041l-27.279,0.017c-0,-0 -0.726,-0.215 -0.726,-1.041l-0.017,-13.763c0,-0.827 0.727,-1.041 0.727,-1.041l25.015,-0c2.908,-0 8.79,1.454 8.79,8.178c-0,6.725 -6.51,7.65 -6.51,7.65m130.793,-10.656l61.811,0l0,-40.53l-79.475,-0c-7.433,-0 -17.893,3.833 -23.89,8.277c-5.998,4.445 -14.672,14.573 -14.672,28.535c-0,13.961 8.476,24.817 8.476,24.817c4.345,5.386 15.283,16.606 15.283,16.606c0.248,0.264 0.397,0.61 0.397,1.008c0,0.841 -0.677,1.519 -1.52,1.519l-61.217,-0c-7.451,-0.033 -7.964,-2.99 -7.964,-3.42c0,-0.76 0.926,-1.239 0.926,-1.239c2.792,-1.339 8.491,-5.784 8.491,-5.784c12.096,-9.417 13.551,-22.337 13.551,-29.26c0,-6.941 -1.042,-19.217 -13.45,-29.972c-12.408,-10.757 -28.122,-11.054 -28.122,-11.054l-87.356,-0l0,124.283c0,0.396 0.364,0.71 0.761,0.71l48.626,-0l0,-34.863c0,-0.61 0.941,0 0.941,0l25.33,25.446c9.005,9.103 23.892,9.417 23.892,9.417l95.764,-0.017c16.342,0 25.429,-8.888 27.923,-11.367c2.479,-2.495 10.757,-11.796 10.757,-27.212c0,-15.399 -7.038,-23.28 -10.046,-26.898c-2.676,-3.239 -13.35,-14.541 -15.581,-16.888c-0.272,-0.222 -0.43,-0.556 -0.43,-0.908c0,-0.546 0.314,-1.057 0.794,-1.207m-386.648,84.494c0.33,0 0.562,-0.231 0.661,-0.595c-0,0 37.622,-123.572 37.622,-123.689c-0,-0.33 -0.199,-0.692 -0.513,-0.726l-46.379,0c-0.231,0 -0.38,0.182 -0.429,0.43c-0,0.017 -9.6,32.136 -9.6,32.152c-0.067,0.265 -0.199,0.43 -0.43,0.43c-0.231,-0 -0.43,-0.231 -0.463,-0.43l-10.045,-32.168c-0.033,-0.216 -0.198,-0.414 -0.429,-0.414l-51.22,-0.016c-0.151,0.041 -0.274,0.152 -0.331,0.297l-9.005,32.285c-0.049,0.281 -0.198,0.446 -0.446,0.446c-0.216,-0.004 -0.399,-0.166 -0.43,-0.38l-9.55,-32.251c-0.024,-0.202 -0.18,-0.365 -0.38,-0.397l-49.435,-0c-0.403,0.006 -0.73,0.34 -0.728,0.742c0,0.066 0.017,0.199 0.017,0.199l38.184,123.49c0.099,0.364 0.33,0.595 0.661,0.595l41.059,0.017c0.247,-0.033 0.496,-0.314 0.561,-0.612c0.016,0 14.292,-45.949 14.292,-45.949c0.082,-0.281 0.198,-0.445 0.429,-0.445c0.248,-0 0.382,0.197 0.447,0.428l13.928,46.165c0.083,0.238 0.31,0.398 0.562,0.396l41.39,0m-35.718,-259.299c-7.452,0 -17.893,3.833 -23.891,8.278c-6,4.444 -14.672,14.573 -14.672,28.534c0,13.962 8.475,24.818 8.475,24.818c4.346,5.386 15.284,16.687 15.284,16.687c0.248,0.264 0.396,0.611 0.396,0.991c0,0.843 -0.677,1.537 -1.519,1.537l-99.896,0l0,44.181l120.07,0c16.324,0 25.427,-8.889 27.923,-11.383c2.479,-2.479 10.74,-11.781 10.74,-27.197c0,-15.399 -7.022,-23.363 -10.03,-26.981c-2.677,-3.239 -13.35,-14.474 -15.581,-16.804c-0.27,-0.231 -0.427,-0.569 -0.429,-0.925c-0,-0.546 0.314,-1.041 0.793,-1.207l57.829,0l-0,84.497l44.462,0l0,-84.282l53.98,0l-0,-40.744l-173.934,0Zm387.797,51.188l-27.278,0.017c-0,-0 -0.728,-0.215 -0.728,-1.041l-0.016,-13.763c-0,-0.827 0.727,-1.042 0.727,-1.042l25.016,0c2.907,0 8.789,1.455 8.789,8.179c-0,6.725 -6.509,7.65 -6.509,7.65m35.986,29.576c-7.436,-0.033 -7.964,-2.99 -7.964,-3.42c0,-0.76 0.924,-1.239 0.924,-1.239c2.793,-1.339 8.493,-5.784 8.493,-5.784c12.096,-9.417 13.55,-22.337 13.55,-29.26c-0,-6.941 -1.043,-19.217 -13.449,-29.972c-12.41,-10.757 -28.123,-11.088 -28.123,-11.088l-87.356,0l0,124.316c0,0.397 0.365,0.712 0.762,0.712l48.625,-0l0,-34.848c0,-0.628 0.942,-0 0.942,-0l25.33,25.428c9.003,9.103 23.89,9.417 23.89,9.417l74.765,0l0,-44.26l-60.389,0l0,-0.002Zm-184.848,-7.838l-18.291,-0c-0.678,-0 -1.106,-0.728 -1.106,-1.422c-0,-0.264 9.731,-31.623 9.731,-31.623c0.347,-1.173 0.445,-1.208 0.512,-1.208l0.017,0c0.066,0 0.165,0.035 0.512,1.208c-0,0 9.731,31.36 9.731,31.623c-0,0.694 -0.445,1.422 -1.106,1.422m24.618,-71.824c-0.179,-0.632 -0.748,-1.081 -1.405,-1.107l-67.163,0c-0.661,0.033 -1.223,0.479 -1.405,1.091c0,-0 -37.093,122.597 -37.093,122.828c0,0.612 0.496,1.107 1.106,1.107l44.397,0c0.364,-0.114 0.627,-0.462 0.71,-0.843l5.172,-16.538c0.17,-0.409 0.566,-0.681 1.008,-0.694l40.943,0c0.445,0.03 0.84,0.304 1.024,0.711l5.288,16.521c0.082,0.382 0.346,0.728 0.693,0.86l43.686,-0.017c0.008,0 0.016,0.001 0.024,0.001c0.594,-0 1.083,-0.489 1.083,-1.084c-0,-0.002 -0,-0.005 -0,-0.007c-0,-0.199 -38.068,-122.829 -38.068,-122.829" style="fill:#fff;fill-rule:nonzero;"/></g></svg>