<svg clip-rule="evenodd" fill-rule="evenodd" stroke-linejoin="round" stroke-miterlimit="2" viewBox="0 0 600 116" xmlns="http://www.w3.org/2000/svg"><g fill="#fff"><path d="m52.275.791v100.711l22.803 7.224v-84.445c0-3.979 1.775-6.621 4.62-5.712 3.72 1.032 4.443 4.697 4.443 8.632v33.725c14.194 6.87 25.37-.004 25.37-18.13 0-18.522-6.552-26.774-25.831-33.409-7.603-2.531-21.695-6.803-31.404-8.596" fill-rule="nonzero"/><path d="m79.415 94.003 36.624-13.036c4.144-1.536 4.777-3.622 1.423-4.718-3.405-1.117-9.484-.798-13.671.706l-24.376 8.599v-13.721l1.396-.46s7.056-2.5 16.98-3.576c9.905-1.086 22.052.142 31.599 3.74 10.755 3.416 11.96 8.399 9.239 11.867-2.761 3.433-9.453 5.916-9.453 5.916l-49.761 17.875z"/><path d="m10.494 92.615c-11.027-3.071-12.866-9.562-7.835-13.311 4.639-3.424 12.542-6.002 12.542-6.002l32.665-11.646v13.255l-23.485 8.418c-4.16 1.488-4.784 3.582-1.433 4.677 3.411 1.14 9.463.834 13.625-.702l11.293-4.072v11.834c-.728.122-1.537.246-2.276.371-11.259 1.869-23.253 1.102-35.096-2.821z"/><path d="m285.729 42.687-.129.193 16.553 48.475c.028.109.028.276-.007.383l-9.321 24.001c-.039.113.012.197.122.197h9.706c.126-.002.239-.08.285-.197l29.058-72.859c.042-.116-.01-.193-.124-.193h-10.59c-.12.005-.227.081-.271.193l-12.302 31.854h-.138l-10.862-31.853c-.025-.117-.149-.194-.26-.194z"/><path d="m502.724 42.687h-11.156c-.109.001-.2.09-.203.199v48.923l.203.199h11.156.003c.11 0 .201-.089.203-.199v-48.923c0-.001 0-.002 0-.003 0-.108-.089-.196-.197-.196-.003 0-.006 0-.009 0z"/><path d="m484.275 42.687h-12.046l-.081-.075v-8.116l-.185-.199h-11.18c-.11 0-.202.089-.206.199v42.739c0 8.561 5.328 14.773 12.67 14.773h7.989c.108 0 .197-.089.197-.197 0-.001 0-.002 0-.002v-6.668c0-.11-.078-.212-.197-.212h-4.904c-1.261-.02-4.184-.083-4.184-6.39v-28.773l.066-.064c3.682.019 12.061 0 12.061 0l.199-.183v-6.633c-.003-.108-.091-.196-.199-.199z"/><path d="m197.069 27.22-27.538-.012c-.109-.002-.201.085-.204.194v64.407c0 .103.09.199.204.199h11.161l.196-.199.013-57.416.066-.095 12.779-.024c4.653 0 7.209 4.688 7.209 13.186 0 8.502-2.556 13.201-7.209 13.201l-7.691-.008c-.115 0-.193.087-.193.197v6.683c0 .13.078.209.193.209h11.014c3.886 0 7.692-1.801 10.438-4.895 3.253-3.672 4.967-8.975 4.967-15.329 0-12.313-6.015-20.298-15.405-20.298z"/><path d="m230.727 27.208h-11.168c-.127 0-.218.09-.218.194v64.407c0 .104.091.199.218.199h11.168l.205-.199v-64.407z"/><path d="m406.359 42.687h-12.115l-.063-.075v-8.116c0-.108-.083-.199-.195-.199h-11.157c-.114 0-.213.091-.213.199v42.739c0 8.561 5.336 14.773 12.685 14.773h7.99c.115 0 .204-.096.204-.199v-6.668c0-.11-.089-.212-.204-.212h-4.905c-1.258-.02-4.205-.083-4.217-6.39v-28.773l.068-.064c3.712.019 12.122 0 12.122 0l.197-.183v-6.633c0-.108-.088-.198-.197-.199z"/><path d="m579.914 42.687h-19.911c-.109.001-.197.091-.197.199l-.006 48.923.187.199h11.176l.189-.199-.015-42.001.077-.081 8.49-.006c2.296 0 4.815.37 6.426 3.025 1.474 2.399 2.142 6.616 2.142 13.235.01.286-.009 25.828-.009 25.828 0 .103.089.199.199.199h11.128c.121 0 .21-.096.21-.199v-24.535c0-11.499-2.297-24.587-20.086-24.587z"/><path d="m279.432 42.886c0-.115-.101-.201-.211-.201h-19.887c-17.833 0-20.113 13.09-20.113 24.595l.014 9.949c0 8.562 5.324 14.778 12.645 14.778h10.85l.196-.198v-6.676c0-.109-.092-.206-.196-.206l-7.75.014c-1.785-.037-4.19-.793-4.19-6.931v-10.742c-.008-7.138.656-11.702 2.138-14.299 1.606-2.865 4.133-3.25 6.406-3.25h8.477l.071.101-.01 41.989c0 .101.086.198.205.198h11.147c.11 0 .208-.097.208-.198z"/><path d="m359.766 54.161-5.499-.42c-4.125-.355-7.192-2.639-7.192-9.396 0-7.89 3.539-10.049 8.263-10.049h15.221l.202-.196v-6.698l-.202-.192h-.318l-16.49.004c-10.389 0-17.776 6.101-17.776 18.261v.529c0 9.595 5.904 16.521 14.702 17.193l5.474.406c4.175.316 6.775 4.05 6.775 9.716v1.593c0 3.542-.885 10.024-8.482 10.024h-15.815c-.111.003-.2.095-.199.205v6.667l.199.199h19.635c6.05 0 16.18-2.447 16.18-18.914 0-5.967-1.355-10.669-4.102-14.067-2.341-2.92-5.81-4.498-10.576-4.865z"/><path d="m451.225 42.886c0-.11-.09-.2-.199-.201h-19.932c-17.794 0-20.098 13.09-20.098 24.595l.014 9.949c0 8.562 5.32 14.778 12.678 14.778h10.821l.201-.198v-6.676c-.001-.11-.09-.201-.201-.206l-7.755.014c-1.779-.037-4.161-.793-4.168-6.931v-10.742c0-7.138.672-11.702 2.119-14.299 1.607-2.865 4.15-3.25 6.385-3.25h8.515l.084.101-.02 41.989c0 .101.092.198.203.198h11.163c.11 0 .191-.097.191-.198z"/><path d="m531.383 42.687c-18.636 0-21.018 13.151-21.018 24.651 0 11.512 2.382 24.706 21.018 24.706 18.638 0 21.015-13.194 21.015-24.706 0-11.5-2.376-24.651-21.015-24.651zm7.074 39.002c-1.756 2.893-4.544 3.279-7.074 3.279-2.504 0-5.301-.386-7.076-3.278-1.6-2.603-2.341-7.163-2.341-14.352v-.058c0-8.485 1.044-13.306 3.38-15.602 1.396-1.393 3.208-1.959 6.037-1.959 2.872 0 4.664.566 6.061 1.959 2.314 2.296 3.36 7.137 3.36 15.66 0 7.199-.743 11.762-2.347 14.351z"/><path d="m502.724 27.208h-11.156l-.203.194v9.353c0 .114.099.197.203.197h11.156c.122 0 .206-.083.206-.197v-9.353c0-.104-.084-.194-.206-.194z"/></g></svg>