<svg clip-rule="evenodd" fill-rule="evenodd" stroke-linejoin="round" stroke-miterlimit="2" viewBox="0 0 600 172" xmlns="http://www.w3.org/2000/svg"><g fill="#fff"><path d="m426.433 41.356c-7.277.774-16.479 1.704-16.479 1.704l-10.271.38s-2.067-1.449-3.614 0c-.736.69-4.564-.19-5.896 7.989-.592 3.641-1.141 5.515-3.612 12.004-1.325 3.48-.307 5.628 1.711 8.346 2.264 3.051-1.902 8.559.76 10.271 1.789 1.15 7.798 5.325 14.265 3.994l.408.006c-1.475-2.785-2.31-5.959-2.31-9.326 0-11.022 8.948-19.97 19.97-19.97 3.451 0 6.699.877 9.532 2.421l.678 2.706c-2.867-1.917-6.314-3.035-10.02-3.035-9.972 0-18.068 8.096-18.068 18.068 0 2.701.594 5.264 1.658 7.565l-.099 1.504-.878 6.801-12.066 75.904h-32.687l26.106-165.411h31.371zm11.048 44.095 4.42 17.643.658-.438c-.568-5.12-.4-10.515.148-16.009l32.247.494-12.87 81.547h-30.932l-18.757-76.2c2.686 1.585 5.818 2.495 9.16 2.495 6.886 0 12.877-3.86 15.926-9.532zm-29.563-11.151c1.224-6.415 6.868-11.27 13.637-11.27 5.164 0 9.674 2.826 12.066 7.014l1.814 7.24c-.196 7.492-6.34 13.515-13.88 13.515-4.399 0-8.323-2.051-10.868-5.248zm13.637-8.987c6.404 0 11.602 5.198 11.602 11.601 0 6.404-5.198 11.602-11.602 11.602-6.403 0-11.601-5.198-11.601-11.602 0-6.403 5.198-11.601 11.601-11.601zm4.837 20.065c-1.432.778-3.082 1.222-4.837 1.222-1.833 0-3.551-.484-5.026-1.328l2.28-2.756c.669-.809 1.669-1.271 2.718-1.256 1.05.014 2.036.503 2.683 1.33zm4.898-10.445c.137.64.209 1.303.209 1.981 0 2.867-1.281 5.445-3.316 7.219l-1.623-2.037c-.826-1.038-1.085-2.417-.691-3.683.394-1.267 1.389-2.256 2.658-2.641zm-19.418-.228 2.098.622c1.462.434 2.606 1.577 3.041 3.038.436 1.462.103 3.044-.883 4.207l-1.271 1.498c-1.994-1.772-3.246-4.322-3.246-7.156 0-.76.091-1.5.261-2.209zm36.043-22.895-1.371 8.771c3.562 4.352 6.269 10.422 6.203 18.806l23.262 1.073.73-4.63-17.335-1.768c-.279-11-7.591-18.84-11.489-22.252zm-26.36 22.405c1.53 0 2.772 1.21 2.772 2.699 0 1.49-1.242 2.7-2.772 2.7-1.529 0-2.771-1.21-2.771-2.7 0-1.489 1.242-2.699 2.771-2.699zm-.972-6.94.057 2.308c.034 1.434-.644 2.792-1.812 3.625-1.167.833-2.672 1.033-4.017.534l-2.301-.854c1.443-3.066 4.479-5.273 8.073-5.613zm1.934-.001c3.595.336 6.634 2.541 8.079 5.605l-2.538.848c-1.285.43-2.698.214-3.797-.578s-1.749-2.065-1.747-3.42zm60.419-30.704c-.796.098-1.54.19-2.231.272l-1.116 11.721s.485.193 1.373.509zm-34.505 11.942.521-3.333 14.826-4.021zm28.28-1.268 1.142-10.08s-5.706.571-9.32 1.902c0 0 3.994 6.657 8.178 8.178zm6.859-14.696c-11.126 1.159-22.268 3.238-33.464 5.249l5.397-34.52h32.687z"/><g fill-rule="nonzero"><path d="m264.734 130.751c5.18 5.139 12.236 8.321 21.482 8.321 4.168 0 8.555-1.097 12.943-2.413l-4.826 30.933c-5.265 1.974-10.311 2.851-15.576 2.851-21.319 0-36.991-8.695-47.115-22.233l33.837.518c.266-7.197-7.727-5.612-1.6-15.994.388-.657.67-1.318.855-1.983zm-10.185-11.079s-21.858-10.662-28.256-13.061c0 0 4.254-2.643 8.797-.534 7.464 3.466 19.459 10.397 19.459 13.595zm-36.765-22.417c.174-4.233.608-8.516 1.302-12.808 6.362-41.024 40.366-83.144 84.899-83.144 5.704 0 10.969 1.097 16.234 3.071l-4.826 30.055c-3.949-1.097-7.898-1.755-12.066-1.755-28.738 0-45.411 26.106-49.36 51.554-1.694 10.538-1.248 22.126 2.064 31.926-10.754-8.181-28.531-15.374-38.247-18.899z"/><path d="m333.967 3.277-26.106 165.411h32.687l26.106-165.411h-32.687z"/><path d="m56.808 145.533 5.057 23.155h34.442l-5.08-22.628zm-47.129-38.174c7.937 4.943 13.223 13.747 13.223 23.776 0 5.025-1.328 9.743-3.651 13.822l17.145.263-3.709 23.468h-32.687l2.037-12.904c10.648-2.993 18.466-12.782 18.466-24.383 0-8.788-4.487-16.537-11.292-21.077zm-1.509 9.56c3.97 3.563 6.468 8.733 6.468 14.482 0 7.929-4.752 14.756-11.56 17.787l.621-3.938c4.643-2.864 7.74-7.997 7.74-13.849 0-4.023-1.464-7.707-3.889-10.548zm-1.973 12.502 2.626-.797c.192.897.293 1.826.293 2.777 0 4.019-1.797 7.631-4.649 10.117l-.149-.187zm81.752 2.035 1.287 5.733-34.599-1.596-1.683-7.708zm-75.969-38.677-.422 2.68c8.234 3.108 25.349 12.251 27.179 34.95l3.523-22.292c-5.722-9.314-13.494-14.568-13.494-14.568l25.591-12.262zm-4.964 31.458c.309.483.588.987.834 1.508l-1.132.378zm94.576-50.959c-9.862.133-17.921 1.3-23.511 1.959l-1.564 16.428s1.355.54 3.74 1.342c9.356-4.916 16.401-11.694 21.335-19.729zm-29.109 16.539 1.6-14.128s-7.997.799-13.062 2.665c0 0 5.598 9.33 11.462 11.463zm-58.517-9.617 12.14-76.923h32.907c20.841 0 57.916 2.194 50.676 47.386-.955 6.098-2.673 11.901-5.203 17.26-12.782.061-25.562 1.434-38.371 3.356 6.609-4.04 10.323-11.461 11.764-20.397 1.975-11.846-2.193-21.499-18.866-20.621h-4.388l-7.019 44.089c-11.171 1.978-22.379 4.096-33.64 5.85z"/><path d="m109.264 146.336-8.716 22.352h32.468l8.092-21.864zm67.727 3.024c4.578 4.551 10.887 7.365 17.847 7.365 6.418 0 12.282-2.392 16.747-6.334l1.505 18.297h-34.882zm33.933-7.011c-3.505 5.137-9.405 8.512-16.086 8.512-10.74 0-19.459-8.72-19.459-19.46s8.719-19.459 19.459-19.459c5.537 0 10.536 2.317 14.082 6.034l.514 6.255c-2.652-5.383-8.194-9.09-14.596-9.09-8.974 0-16.261 7.286-16.261 16.26 0 8.975 7.287 16.261 16.261 16.261 7.343 0 13.556-4.878 15.572-11.567zm-9.308.914c-2.006 1.091-4.318 1.714-6.778 1.714-2.569 0-4.977-.679-7.045-1.862l3.196-3.862c.938-1.134 2.338-1.781 3.81-1.761 1.471.02 2.853.705 3.76 1.864zm6.866-14.639c.192.897.293 1.826.293 2.777 0 4.019-1.796 7.631-4.648 10.117l-2.275-2.855c-1.158-1.454-1.521-3.387-.969-5.162s1.948-3.161 3.727-3.701zm-27.216-.319 2.94.872c2.05.608 3.653 2.209 4.263 4.258.611 2.048.145 4.266-1.238 5.896l-1.781 2.1c-2.795-2.484-4.549-6.059-4.549-10.03 0-1.065.126-2.102.365-3.096zm-5.666-13.364c-3.793 4.427-6.086 10.178-6.086 16.46 0 3.331.644 6.512 1.816 9.426h-2.755c-1.117-3.02-1.727-6.286-1.727-9.692 0-6.033 1.913-11.622 5.164-16.194zm-61.572 19.176-1.614 4.141 53.635 2.473-.267-1.333zm80.81-6.499c2.144 0 3.884 1.695 3.884 3.783s-1.74 3.784-3.884 3.784-3.884-1.696-3.884-3.784 1.74-3.783 3.884-3.783zm-1.362-9.727.078 3.235c.049 2.009-.902 3.913-2.538 5.081-1.637 1.167-3.746 1.448-5.631.748l-3.224-1.197c2.021-4.297 6.277-7.391 11.315-7.867zm2.71-.002c5.039.472 9.298 3.562 11.323 7.856l-3.557 1.189c-1.8.602-3.781.301-5.321-.81s-2.452-2.895-2.45-4.793zm-20.516-7.142c5.01-4.713 11.755-7.602 19.168-7.602 4.744 0 9.214 1.183 13.131 3.27l.289 3.512c-3.893-2.44-8.493-3.85-13.42-3.85-7.591 0-14.406 3.347-19.049 8.646zm-39.595-33.171-8.654 22.194c10.489-.249 21.819-1.13 30.801-1.983l3.222-10.119c-8.793-4.649-17.305-7.884-25.369-10.092zm70.886 16.586c-8.104-.964-14.262 1.987-17.188.186-4.853-2.986-9.843-5.721-14.837-8.198l-.457-15.304.219-25.009h-.438l-7.459 25.009-3.214 10.094c-9.029-3.824-17.75-6.785-25.368-8.863l26.827-68.8h34.442z"/><path d="m598.684 76.55-2.194 12.943c-5.485 35.1-21.499 81.828-66.033 81.828-44.36 0-51.281-47.452-45.697-84.03l34.866.534c-2.85 17.843-6.545 53.222 16.754 53.222 16.673 0 22.816-22.377 24.571-33.784h-20.841l5.045-30.713zm-111.967.299c-.296 1.362-.574 2.718-.836 4.066l34.62 1.597c.122-.698.253-1.424.395-2.176zm15.363-41.357c-3.164 5.422-5.874 11.207-8.179 17.151 3.014.616 6.341 1.146 9.818 1.448 6.817.593 16.162.239 24.663-.366 1.611-3.942 3.476-7.703 5.624-10.994-11.818-5.164-22.746-6.918-31.926-7.239zm64.05 14.199c-.368-8.19-1.99-18.772-13.296-18.772-6.435-.386-11.718 2.851-16.032 8.012-10.368-3.974-19.742-6.264-25.583-6.811-2.269-.212-4.537-.352-6.807-.428 11.591-17.951 28.632-31.047 53.029-31.047 25.228 0 39.268 15.795 42.559 39.268l-33.784 12.286c-.015-.548-.031-1.116-.052-1.699h-.001c-.009-.254-.033-.809-.033-.809z"/></g></g></svg>