<svg clip-rule="evenodd" fill-rule="evenodd" stroke-linejoin="round" stroke-miterlimit="2" viewBox="0 0 600 130" xmlns="http://www.w3.org/2000/svg"><g fill="#fff"><path d="m417.233 89.057v-37.293c0-7.607 3.551-13.055 11.124-13.055h46.713c.285 0 .561-.284.561-.565v-7.42c-.003-.065-.017-.129-.043-.189h-57.117c-12.38 1.574-18.428 10.202-18.428 21.229v37.292c0 7.608-3.65 13.056-11.121 13.056h-49.332c-.28 0-.561.189-.561.563v7.422c0 .308.189.544.41.622h56.011c14.596-.384 21.783-9.703 21.783-21.662z"/><path d="m225.318 110.719h16.401c.253-.1.418-.348.411-.62v-23.766c0-7.608 4.297-12.87 10.558-12.87h67.557c15.23 0 22.613-9.393 22.613-21.699 0-11.027-6.041-19.655-18.428-21.229h-99.415c-.029.062-.078.11-.078.189v7.42c0 .376.187.565.56.565h89.047c7.57 0 11.12 5.448 11.12 13.055 0 7.61-3.55 13.058-11.12 13.058h-70.452c-10.932 0-19.155 9.301-19.155 21.511v23.767c-.001.305.131.541.381.619z"/><path d="m475.357 102.114h89.703c.275 0 .462.187.462.376v7.609c0 .376.284.564.559.564h16.169c.286 0 .559-.188.559-.564v-7.421c0-.283.286-.564.561-.564h16.069c.374 0 .561-.282.561-.562v-7.516c0-.284-.187-.563-.561-.563h-16.069c-.275 0-.561-.284-.561-.563v-54.201c0-4.423-1.643-7.24-4.407-8.174h-4.678c-1.458.374-3.043 1.045-4.743 2.066l-96.613 59.65c-3.739 2.347-5.049 4.976-4.113 6.949.747 1.692 2.891 2.914 7.102 2.914zm89.45-56.468c-.215-.001-.432.072-.594.201 0 0-74.842 46.309-74.842 46.309-.36.214-.554.427-.583.682-.009.081-.002.167.022.259.022.049.058.098.111.143.149.131.432.233.913.233h75.226c.275 0 .561-.28.561-.563v-46.311c0-.678-.403-.952-.814-.953z"/><path d="m62.671.599c7.288 1.358 14.452 3.299 21.582 5.322 4.077 1.184 8.145 2.41 12.186 3.715 6.348 2.022 12.668 4.311 18.417 7.725 2.575 1.564 5.049 3.33 7.162 5.485 2.29 2.248 4.166 4.883 5.542 7.782 2.507 5.235 3.365 11.084 3.619 16.834.119 3.753.112 7.537-.59 11.241-.582 3.219-1.617 6.392-3.339 9.188-1.52 2.468-3.634 4.604-6.2 5.98-2.46 1.327-5.277 1.959-8.068 1.903-4.232.043-8.339-1.305-12.137-3.075-.07-12.631-.012-25.265-.03-37.894-.026-2.286.129-4.595-.332-6.849-.325-1.747-1.037-3.508-2.409-4.693-.908-.82-2.088-1.283-3.272-1.533-1.198-.228-2.476.281-3.217 1.243-1.233 1.54-1.557 3.586-1.613 5.503-.01 33.816.013 67.634-.01 101.448-9.098-2.883-18.195-5.77-27.291-8.66-.009-40.222-.005-80.443 0-120.665z"/><path d="m21.782 86.175c11.86-4.199 23.708-8.441 35.573-12.625.019 4.656 0 9.314.007 13.974-.007.632.033 1.267-.046 1.895-9.378 3.324-18.739 6.707-28.107 10.053-1.299.491-2.631 1.046-3.633 2.038-.466.465-.847 1.153-.592 1.818.321.786 1.122 1.214 1.861 1.536 2.056.836 4.303.955 6.492 1.055 2.441-.039 4.893-.222 7.283-.749 1.616-.319 3.172-.862 4.712-1.441 4.003-1.449 8.007-2.907 12.017-4.342.028 3.939.005 7.88.012 11.824-.012.788.036 1.58-.042 2.364-4.924.885-9.907 1.484-14.912 1.564-10.079.228-20.181-1.332-29.755-4.483-3.139-.909-6.259-2.121-8.881-4.114-1.444-1.117-2.735-2.522-3.392-4.25-.55-1.464-.51-3.154.176-4.566.66-1.409 1.815-2.522 3.086-3.388 2.941-2.031 6.187-3.581 9.474-4.962 2.836-1.207 5.774-2.148 8.667-3.201z"/><path d="m117.21 80.87c2.69-.311 5.397-.385 8.102-.482 8.895.034 17.838 1.14 26.348 3.81 1.669.507 3.287 1.165 4.95 1.694 2.966 1.084 5.935 2.398 8.308 4.53 1.426 1.3 2.657 3.053 2.673 5.054.084 1.629-.652 3.192-1.71 4.393-2.01 2.254-4.668 3.804-7.335 5.155-2.84 1.448-5.893 2.383-8.872 3.485-18.179 6.528-36.361 13.053-54.536 19.589-.004-5.094.005-10.185-.004-15.272.027-.204-.083-.558.203-.612 13.832-4.92 27.661-9.856 41.491-14.791 1.87-.7 3.885-1.206 5.471-2.474.649-.51 1.285-1.321.967-2.197-.333-.765-1.126-1.188-1.857-1.505-2.07-.82-4.324-.978-6.526-1.04-3.448.023-6.925.448-10.205 1.554-9.852 3.452-19.685 6.947-29.54 10.388.001-5.468-.004-10.932.002-16.399 7.128-2.502 14.573-4.018 22.07-4.88z"/></g></svg>