<svg clip-rule="evenodd" fill-rule="evenodd" stroke-linejoin="round" stroke-miterlimit="2" viewBox="0 0 600 277" xmlns="http://www.w3.org/2000/svg"><g fill="#fff"><path d="m287.441 261.58v15.054h83.977c10.035.106 19.777-3.42 27.419-9.925 7.98-6.772 12.482-16.804 12.236-27.268v-63.988c-.087-7.085 3.087-13.831 8.602-18.279 3.865-3.026 8.652-4.639 13.559-4.57h73.214v-14.849h-87.192s-37.634.602-37.634 40.408v59.751c.067 4.893-1.253 9.707-3.806 13.882-3.757 6.279-10.643 10.044-17.957 9.817z"/><path d="m93.552 137.755v14.849h149.675c4.163-.036 8.283.849 12.064 2.591 5.935 2.785 12.602 8.516 12.602 20.14 0 11.29-6.667 16.935-12.602 19.73-3.843 1.765-8.029 2.66-12.258 2.624h-111.009c-6.57-.061-13.065 1.412-18.967 4.301-9.236 4.634-19.505 15.548-19.505 33.548v40.859h28.806v-40.676c-.019-2.646.459-5.272 1.408-7.742 2.377-6.097 8.387-15.882 22.441-15.882h111.934c3.764.021 7.513-.482 11.139-1.494 10.279-2.925 27.419-11.376 27.419-35.268 0-37.129-36.956-37.58-36.956-37.58h-166.191z"/><path d="m156.948 20.953 25.521 66.887-14.652 35.884h11.579l42.192-102.771h-12.927l-18.38 50.09-17.099-50.09z"/><path d="m232.092 88.938v-8.445s14.752.579 17.825.579c6.807 0 10.206-1.451 12.765-4.195 1.511-1.646 2.876-8.936 2.876-11.534 0-2.588-.499-8.185-1.511-10.478-1.046-2.247-3.423-4.344-6.987-4.647-2.541-.219-6.471-.733-11.065-.944-6.441-.305-10.699-3.666-12.75-6.082-2.033-2.418-4.756-6.06-4.756-17.203 0-11.157 2.886-17.41 5.779-20.311 2.893-2.917 7.125-4.195 10.378-4.772 3.742-.639 9.855-.679 9.855-.679l19.525.569v8.445s-14.237-.568-17.3-.568c-6.809 0-8.852 1.458-11.401 4.195-1.506 1.628-2.682 6.136-2.682 8.719 0 2.594.303 7.835 1.325 10.102 1.013 2.249 3.4 4.352 6.971 4.673 2.534.195 6.471.709 11.057.918 6.471.305 10.721 3.658 12.748 6.084 2.052 2.424 4.78 7.532 4.78 18.665 0 11.159-2.909 19.129-5.787 22.038-2.899 2.899-7.126 4.195-10.376 4.756-3.752.645-9.865.694-9.865.694z"/><path d="m68.789.112h13.948v89.358h-13.948z"/><path d="m308.204 8.671h-13.943v65.602s.335 5.988.679 8.093c.342 2.105 3.407 7.104 11.399 7.104l14.448-.281v-8.414s-3.913.281-6.275.281c-2.395 0-5.296-.156-5.786-4.203-.524-4.039-.524-8.865-.524-8.865v-38.629h15.752v-8.406h-15.752v-12.28z"/><path d="m442.819 20.957h13.942v68.513h-13.942z"/><path d="m415.042 8.671h-13.948v65.602s.329 5.988.665 8.093c.35 2.105 3.39 7.104 11.414 7.104l14.447-.281v-8.414s-3.922.281-6.291.281-5.278-.156-5.786-4.203c-.499-4.039-.499-8.865-.499-8.865v-38.629h15.712v-8.406h-15.712z"/><path d="m0 .11v89.358h13.95v-80.793h12.912s9.382 0 12.593 4.195c2.73 3.564 3.228 10.028 3.228 14.394 0 4.672-.295 11.891-1.863 14.534-2.379 4.039-6.285 4.848-9.857 4.848h-8.523v7.931h12.257s11.059.462 15.815-4.373c5.832-5.927 7.314-13.895 7.314-24.563 0-9.692-3.517-19.471-10.705-22.792-5.951-2.737-16.679-2.737-16.679-2.737l-30.442-.002z"/><path d="m559.422 30.575 13.677-.577c3.577 0 7.79.966 9.833 3.556 1.902 2.44 3.102 5.349 3.102 10.035v45.803h13.966v-46.957c0-8.881-2.737-14.043-6.838-17.287-5.849-4.639-16.327-4.195-16.327-4.195l-31.245.561v67.878h13.832z"/><path d="m135.669 43.589c0-4.686-1.192-7.595-3.112-10.035-2.043-2.59-6.236-3.557-9.825-3.557l-18.396.578v-9.061l22.139-.561s10.479-.446 16.335 4.195c4.086 3.246 6.8 8.406 6.8 17.287v46.302l-26.73.577s-12.1.043-18.2-2.424c-5.941-2.419-9.184-9.053-9.184-18.263 0-8.889 2.721-14.052 6.807-17.295 5.855-4.647 16.327-4.187 16.327-4.187h8.539v7.892h-4.789c-3.585 0-7.272.662-9.325 3.251-1.91 2.416-2.932 4.515-2.932 9.201 0 6.152 1.192 8.895 4.085 10.987 2.559 1.863 7.136 2.267 12.244 2.267l9.217-.561v-36.593z"/><path d="m370.862 43.589c0-4.686-1.167-7.595-3.087-10.035-2.066-2.59-6.262-3.557-9.823-3.557l-18.388.578v-9.061l22.122-.561s10.472-.446 16.321 4.195c4.086 3.246 6.815 8.406 6.815 17.287v46.302l-26.732.577s-12.116.043-18.2-2.424c-5.948-2.419-9.199-9.053-9.199-18.263 0-8.889 2.744-14.052 6.807-17.295 5.849-4.647 16.343-4.187 16.343-4.187h8.531v7.892h-4.796c-3.563 0-7.274.662-9.301 3.251-1.92 2.416-2.948 4.515-2.948 9.201 0 6.152 1.2 8.895 4.086 10.987 2.549 1.863 7.151 2.267 12.257 2.267l9.194-.561-.002-36.593z"/><path d="m500.832 20.369c9.489 0 16.852 2.121 20.804 5.317 3.992 3.206 8.895 9.966 8.895 29.529 0 19.564-4.903 26.316-8.895 29.53-3.954 3.196-11.315 5.333-20.804 5.333-9.514 0-16.843-2.137-20.827-5.333-3.984-3.214-8.865-9.966-8.865-29.53 0-19.563 4.881-26.325 8.865-29.529 3.984-3.196 11.313-5.317 20.827-5.317zm-9.559 13.137c-1.92 2.365-4.258 7.33-4.258 21.709 0 14.372 2.338 19.345 4.256 21.699 1.912 2.342 5.435 3.923 9.997 3.923 4.569 0 8.078-1.583 10.013-3.921 1.91-2.356 4.248-7.331 4.248-21.699 0-14.381-2.338-19.348-4.248-21.709-1.935-2.346-5.444-3.916-10.013-3.916-4.56 0-8.085 1.568-9.997 3.916z"/><path d="m442.819.108h13.942v12.439h-13.942z"/></g></svg>