<svg clip-rule="evenodd" fill-rule="evenodd" stroke-linejoin="round" stroke-miterlimit="2" viewBox="0 0 600 123" xmlns="http://www.w3.org/2000/svg"><g fill="#fff" fill-rule="nonzero"><path d="m37.447 122.05h-23.856c-.951 0-1.861-.394-2.512-1.087-2.355-2.509-8.129-8.658-10.266-10.935-.522-.556-.813-1.291-.813-2.054 0-6.609 0-38.555 0-38.555 0-4.645.886-7.793 2.659-9.444 1.773-1.65 5.074-2.476 9.903-2.476h20.08l15.288.184v4.951h-35.827c-2.445 0-4.095.352-4.951 1.055s-1.284 2.002-1.284 3.896v38.55c0 .847.332 1.66.924 2.265 1.725 1.763 5.42 5.54 7.181 7.34.62.634 1.471.992 2.359.992h21.574c2.506 0 4.171-.336 4.997-1.009.825-.672 1.238-1.986 1.238-3.942v-19.531h-19.529v-5.226h25.397v23.381c0 4.524-.887 7.595-2.659 9.215-1.773 1.62-5.074 2.43-9.903 2.43z"/><path d="m117.861 121.591h-6.326l-8.04-20.391h-29.699l-7.923 20.391h-6.144l25.399-63.908h7.243zm-29.341-57.857-13.091 33.485h26.45l-13.175-33.485z"/><path d="m239.592 121.591h-41.339v-63.908h41.339v5.135h-35.471v22.922h29.8v5.227h-29.8v25.306h35.471z"/><path d="m282.854 122.533h-20.599l-13.971-.365v-9.953h33.109c1.278 0 2.131-.167 2.557-.502s.639-1.019.639-2.054v-12.966c0-1.096-.289-1.811-.868-2.146-.578-.335-1.871-.502-3.88-.502-2.496 0-10.586-.061-16.308-.183-6.392-.061-10.653-.989-12.783-2.785-2.131-1.795-3.196-5.159-3.196-10.089v-10.044c0-4.809.989-8.127 2.967-9.953 1.979-1.826 5.677-2.739 11.094-2.739h18.226l13.879.365v9.222h-30.735c-1.278 0-2.115.183-2.511.548s-.593 1.065-.593 2.1v11.048c0 1.096.289 1.796.867 2.101.578.304 1.963.487 4.155.547l15.942.183c6.575.122 10.927.989 13.057 2.602 2.131 1.613 3.196 4.946 3.196 9.999v12.235c0 5.174-.958 8.69-2.876 10.546-1.917 1.857-5.707 2.785-11.368 2.785z"/><path d="m335.714 122.168h-12.509v-53.781h-17.988v-9.862h48.577v9.862h-18.08z"/><path d="m416.507 122.168h-14.356l-16.217-26.634h-11.505v26.634h-12.509v-63.643h36.059c5.479 0 9.207.837 11.186 2.512 1.978 1.674 2.967 4.854 2.967 9.541v12.538c0 4.383-.928 7.473-2.785 9.268-1.856 1.796-5.748 2.846-9.4 3.15zm-17.453-39.712v-11.126c0-1.035-.198-1.735-.593-2.1-.396-.366-1.233-.548-2.511-.548h-21.521v16.422h21.521c1.278 0 2.115-.182 2.511-.548.395-.365.593-1.065.593-2.1z"/><path d="m468.611 122.168h-45.065v-63.643h44.791v9.862h-32.282v15.796h25.525v10.999h-25.525v16.668h32.556z"/><path d="m531.776 122.168h-13.057l-4.957-13.006h-25.05l-4.957 13.006h-12.692l23.663-63.643h13.866zm-30.721-47.729-9.174 25.055h18.622l-9.174-25.055z"/><path d="m566.643 108.015s-14.505-24.743-16.921-29.524v43.677h-12.235v-63.643h12.173s17.257 26.943 19.084 30.717c1.826-3.774 19.083-30.717 19.083-30.717h12.173v63.643h-12.235v-43.677c-2.416 4.781-16.921 29.524-16.921 29.524z"/><path d="m179.421 66.799c-.724 1.27-1.585 2.755-2.585 4.454l-19.347 33.559h-3.117l-19.347-32.917c-1.18-2.005-2.163-3.696-2.952-5.074v54.77h-5.868v-63.908h7.169l16.597 28.516c2.628 4.584 4.615 8.252 5.959 11.003 1.223-2.384 3.21-6.021 5.96-10.912l16.23-28.607h7.169v63.908h-5.868z"/><path d="m215.36 13.952 4.965 13.582h-10.084zm-5.318-5.288-11.441 28.989h8.079l1.81-5.123h13.54l1.712 5.123h8.771l-11.527-28.993zm-22.97 29h8.197v-29.009l-8.198-.002zm-56.904-29.011-6.839 22.992-6.551-22.99-8.844-.002 9.356 29.011h11.809l9.432-29.011zm33.133 6.317h3.523c5.111 0 8.417 2.294 8.417 8.249 0 5.956-3.306 8.251-8.417 8.251h-3.523zm-8.128-6.317v29.011h13.288c7.08 0 9.392-1.177 11.892-3.817 1.766-1.854 2.908-5.923 2.908-10.369 0-4.079-.967-7.716-2.652-9.981-3.035-4.051-7.409-4.844-13.937-4.844zm-77.646-.04v29.051h8.266v-22.059l6.405.002c2.121 0 3.633.529 4.654 1.619 1.295 1.38 1.824 3.607 1.824 7.682v12.756h8.01v-16.051c0-11.456-7.302-13-14.446-13zm64.454.04.003 29.011h8.193v-29.011z"/><path d="m8.247 18.77s5.788-8.539 17.344-9.423v-3.098c-12.8 1.028-23.885 11.869-23.885 11.869s6.278 18.149 23.885 19.811v-3.293c-12.921-1.626-17.344-15.866-17.344-15.866zm17.344 9.317v3.016c-9.765-1.741-12.476-11.892-12.476-11.892s4.689-5.194 12.476-6.036v3.309c-.006 0-.01-.002-.015-.002-4.087-.49-7.28 3.328-7.28 3.328s1.79 6.427 7.295 8.277m0-27.552v5.714c.376-.029.752-.053 1.129-.066 14.553-.49 24.035 11.935 24.035 11.935s-10.891 13.243-22.236 13.243c-1.04 0-2.014-.097-2.928-.259v3.534c.809.104 1.623.156 2.438.157 10.558 0 18.194-5.392 25.587-11.774 1.226.982 6.244 3.37 7.276 4.416-7.03 5.885-23.413 10.629-32.701 10.629-.895 0-1.755-.054-2.6-.135v4.965h40.13v-42.359zm0 12.639v-3.826c.372-.026.747-.047 1.129-.059 10.465-.328 17.331 8.993 17.331 8.993s-7.416 10.299-15.367 10.299c-1.144 0-2.17-.184-3.093-.495v-11.602c4.074.492 4.894 2.291 7.343 6.374l5.447-4.593s-3.976-5.215-10.679-5.215c-.729 0-1.426.051-2.111.124"/></g></svg>