<svg clip-rule="evenodd" fill-rule="evenodd" stroke-linejoin="round" stroke-miterlimit="2" viewBox="0 0 600 373" xmlns="http://www.w3.org/2000/svg"><g fill="#fff"><path d="m259.02.733v233.708l52.917 16.765v-195.961c0-9.234 4.118-15.365 10.721-13.256 8.633 2.394 10.311 10.901 10.311 20.032v78.262c32.938 15.942 58.871-.009 58.871-42.073 0-42.982-15.204-62.131-59.942-77.528-17.643-5.873-50.346-15.787-72.876-19.949" fill-rule="nonzero"/><path d="m322.002 217.039 84.989-30.251c9.614-3.563 11.084-8.404 3.302-10.949-7.902-2.591-22.01-1.85-31.725 1.64l-56.566 19.953v-31.838l3.239-1.069s16.374-5.801 39.403-8.299c22.984-2.519 51.173.329 73.327 8.679 24.957 7.928 27.754 19.492 21.44 27.54-6.406 7.965-21.937 13.726-21.937 13.726l-115.472 41.48z"/><path d="m162.064 213.82c-25.589-7.128-29.856-22.19-18.181-30.891 10.766-7.946 29.104-13.927 29.104-13.927l75.802-27.027v30.761l-54.499 19.534c-9.653 3.454-11.1 8.313-3.324 10.854 7.914 2.645 21.959 1.934 31.618-1.63l26.205-9.449v27.462c-1.689.283-3.567.569-5.282.861-26.126 4.337-53.961 2.556-81.443-6.547z"/><path d="m128.988 287.814 20.974 54.971-12.041 29.491h9.516l34.676-84.462h-10.625l-15.106 41.167-14.053-41.167z"/><path d="m190.745 343.688v-6.941s12.124.476 14.649.476c5.594 0 8.388-1.192 10.491-3.448 1.242-1.353 2.364-7.344 2.364-9.479 0-2.127-.41-6.727-1.242-8.612-.86-1.846-2.813-3.57-5.742-3.819-2.089-.18-5.318-.602-9.094-.776-5.294-.25-8.793-3.012-10.478-4.998-1.671-1.987-3.909-4.98-3.909-14.138 0-9.169 2.371-14.309 4.749-16.693 2.378-2.397 5.856-3.448 8.53-3.922 3.075-.525 8.099-.557 8.099-.557l16.047.467v6.941s-11.701-.468-14.219-.468c-5.596 0-7.275 1.199-9.37 3.448-1.237 1.338-2.204 5.043-2.204 7.166 0 2.132.249 6.439 1.089 8.303.832 1.847 2.794 3.576 5.729 3.84 2.083.16 5.318.583 9.087.755 5.318.25 8.811 3.006 10.477 5 1.687 1.992 3.928 6.19 3.928 15.34 0 9.17-2.39 15.72-4.755 18.111-2.383 2.383-5.856 3.448-8.528 3.909-3.083.53-8.107.57-8.107.57z"/><path d="m56.534 270.686h11.463v73.439h-11.463z"/><path d="m253.297 277.72h-11.458v53.915s.275 4.921.557 6.651c.282 1.731 2.801 5.839 9.369 5.839l11.874-.232v-6.915s-3.216.232-5.157.232c-1.968 0-4.352-.129-4.756-3.454-.43-3.32-.43-7.286-.43-7.286v-31.747h12.946v-6.909h-12.946v-10.093z"/><path d="m363.931 287.817h11.458v56.307h-11.458z"/><path d="m341.103 277.72h-11.464v53.915s.27 4.921.547 6.651c.287 1.731 2.785 5.839 9.381 5.839l11.873-.232v-6.915s-3.223.232-5.171.232c-1.947 0-4.337-.129-4.755-3.454-.41-3.32-.41-7.286-.41-7.286v-31.747h12.913v-6.909h-12.913z"/><path d="m0 270.684v73.439h11.465v-66.4h10.612s7.71 0 10.35 3.448c2.242 2.929 2.652 8.242 2.652 11.829 0 3.84-.243 9.773-1.531 11.946-1.955 3.319-5.165 3.984-8.101 3.984h-7.005v6.518h10.074s9.089.379 12.998-3.594c4.792-4.871 6.01-11.42 6.01-20.187 0-7.966-2.89-16.002-8.798-18.732-4.89-2.249-13.708-2.249-13.708-2.249z"/><path d="m459.761 295.722 11.24-.474c2.941 0 6.403.794 8.082 2.922 1.563 2.006 2.549 4.396 2.549 8.247v37.644h11.478v-38.592c0-7.299-2.249-11.542-5.62-14.207-4.807-3.813-13.418-3.448-13.418-3.448l-25.679.461v55.786h11.368z"/><path d="m111.5 306.417c0-3.851-.98-6.241-2.558-8.247-1.679-2.128-5.125-2.924-8.075-2.924l-15.118.476v-7.447l18.195-.461s8.611-.366 13.425 3.448c3.358 2.667 5.588 6.908 5.588 14.207v38.053l-21.968.474s-9.945.036-14.957-1.992c-4.883-1.987-7.548-7.44-7.548-15.009 0-7.305 2.236-11.548 5.594-14.214 4.812-3.819 13.418-3.441 13.418-3.441h7.018v6.486h-3.936c-2.947 0-5.977.544-7.664 2.671-1.569 1.986-2.41 3.712-2.41 7.563 0 5.056.98 7.31 3.358 9.029 2.103 1.531 5.864 1.864 10.063 1.864l7.575-.461z"/><path d="m304.793 306.417c0-3.851-.959-6.241-2.537-8.247-1.698-2.128-5.146-2.924-8.073-2.924l-15.112.476v-7.447l18.18-.461s8.607-.366 13.414 3.448c3.358 2.667 5.601 6.908 5.601 14.207v38.053l-21.969.474s-9.958.036-14.958-1.992c-4.889-1.987-7.561-7.44-7.561-15.009 0-7.305 2.256-11.548 5.595-14.214 4.807-3.819 13.431-3.441 13.431-3.441h7.011v6.486h-3.941c-2.929 0-5.978.544-7.644 2.671-1.578 1.986-2.423 3.712-2.423 7.563 0 5.056.987 7.31 3.358 9.029 2.095 1.531 5.877 1.864 10.073 1.864l7.556-.461z"/><path d="m411.609 287.334c7.799 0 13.849 1.743 17.098 4.37 3.281 2.635 7.31 8.19 7.31 24.268 0 16.079-4.029 21.628-7.31 24.27-3.25 2.626-9.299 4.382-17.098 4.382-7.819 0-13.842-1.756-17.117-4.382-3.274-2.642-7.286-8.191-7.286-24.27 0-16.078 4.012-21.635 7.286-24.268 3.275-2.627 9.298-4.37 17.117-4.37zm-7.856 10.796c-1.578 1.944-3.499 6.025-3.499 17.842 0 11.812 1.921 15.899 3.497 17.833 1.572 1.925 4.467 3.225 8.217 3.225 3.754 0 6.638-1.301 8.229-3.223 1.569-1.936 3.491-6.025 3.491-17.834 0-11.818-1.922-15.9-3.491-17.841-1.591-1.928-4.475-3.218-8.229-3.218-3.749 0-6.645 1.288-8.217 3.218z"/><path d="m363.931 270.683h11.458v10.223h-11.458z"/><path d="m592.312 299c-.266-.266-.273-.72-.006-.972 5.135-4.257 7.689-10.7 7.689-18.135 0-13.29-8.12-23.513-24.695-23.513l-43.355-.007c-.333 0-.617.277-.617.617v8.11c0 .343.284.612.617.612h37.148c8.238 0 12.14 5.929 12.14 14.164 0 8.225-3.895 14.151-12.14 14.151h-.085l-.027-.004-37.036.011c-.333 0-.617.276-.617.613v8.114c0 .336.284.61.617.61h37.155c10.719.087 12.127 10.514 12.127 15.854l.013 1.068c0 8.238-3.909 14.165-12.14 14.165h-37.155c-.333 0-.617.277-.617.61v8.11c0 .339.284.616.617.616l43.355-.004c16.583 0 24.7-11.017 24.7-23.512v-1.053c0-7.956-2.566-15.557-7.688-20.225z" fill-rule="nonzero"/></g></svg>