<svg clip-rule="evenodd" fill-rule="evenodd" stroke-linejoin="round" stroke-miterlimit="2" viewBox="0 0 600 233" xmlns="http://www.w3.org/2000/svg"><g fill="#fff" fill-rule="nonzero"><path d="m281.199 232.519c-2.757.173-1.034-7.756-.172-17.235 3.792-37.919 16.374-72.908 39.298-108.517 19.131-29.68 23.785-39.314 23.785-50.138 0-15.116-6.894-21.804-22.407-21.804-7.066 0-9.479.931-14.478 5.223-3.274 2.964-6.894 8.342-8.273 12.496l-2.24 7.273c-7.412.155-16.374.121-23.441.276l.172-26.715v-29.025c15.857-.276 107.379-.052 126.338.051l.862 18.615-2.068 17.563-6.377 24.664c-3.448 13.582-14.134 35.885-20.683 50.587-14.651 33.955-18.443 49.812-20.166 85.662-.69 15.34-1.551 30.163-2.068 30.852-23.613.345-43.607.172-68.082.172zm113.584-137.989c-.345-3.775 14.306-50.122 16.891-54.189 30.163.189 51.535.345 85.489.448 0 3.051-5.688 13.082-11.548 17.804-3.792 3.12-10.169 10.29-13.961 15.944-11.375 16.701-18.442 19.528-52.913 21.458-19.994 1.103-23.613 1.069-23.958-1.465zm54.465-15.719c5.171-5.05 11.203-17.822 8.79-20.338-7.584-1.103-19.993-1.327-26.198-.19l.689 8.222c.517 4.429 2.93 7.79 1.207 7.98-2.241.258-8.618-2.947-9.825-5.516-4.309-8.566-8.273-4.119-10.169 5.085-2.068 9.118 2.069 11.307 18.098 10.169 10.686-.758 13.444-1.637 17.408-5.412zm-37.919-47.14c-1.034-.327-1.723-6.256-1.723-13.185 0-9.893.517-12.823 2.757-13.634 20.339-.086 87.041-.465 91.177-.206 1.724 3.137 2.931 6.049 5.171 6.049h38.608l3.792-5.36c3.62-5.171 4.137-5.326 14.306-4.567 9.996.758 15.684 2.482 21.717 6.48 1.379.948 4.653 2.43 7.239 3.413 4.653 1.689 3.275 1.103 4.309 3.344 2.413 4.895 1.034 15.77-.345 16.218-2.585.845-184.595 2.276-187.008 1.448z"/><path d="m62.48 1.815c-23.441 0-39.694 4.206-48.795 12.617-9.1 8.394-13.685 23.475-13.685 45.175v114.721c0 21.717 4.636 36.885 13.84 45.33 9.221 8.618 25.423 12.927 48.64 12.927 23.216 0 39.366-4.309 48.535-12.755 9.153-8.617 13.789-23.785 13.789-45.502v-114.721c0-21.803-4.533-36.885-13.582-45.244-9.049-8.342-25.302-12.548-48.742-12.548zm136.283 0c-23.441 0-39.643 4.206-48.778 12.617-9.135 8.394-13.616 23.475-13.616 45.175v114.721c0 21.717 4.481 36.885 13.789 45.33 9.135 8.618 25.336 12.927 48.605 12.927 23.268 0 39.469-4.309 48.604-12.755 9.135-8.617 13.617-23.785 13.789-45.502v-114.721c-.172-21.803-4.654-36.885-13.616-45.244-9.135-8.342-25.337-12.548-48.777-12.548zm-136.283 39.264c5.343 0 9.1 1.447 11.203 4.257 2.103 2.826 3.119 7.859 3.119 15.202v113.101c0 7.411-1.12 12.409-3.326 15.339-2.223 2.93-6.119 4.309-11.686 4.309-5.136 0-8.738-1.379-10.841-4.309s-3.172-7.928-3.172-15.339v-113.101c0-7.136 1.173-12.169 3.448-15.082 2.275-2.93 6.015-4.377 11.255-4.377zm136.283 0c5.343 0 9.135 1.447 11.203 4.257 2.068 2.826 3.102 7.859 3.102 15.202v113.101c0 7.411-1.034 12.409-3.275 15.339-2.24 2.93-6.032 4.309-11.72 4.309-5.171 0-8.79-1.379-10.858-4.309-2.069-2.93-3.103-7.928-3.103-15.339v-113.101c0-7.136 1.034-12.169 3.447-15.082 2.241-2.93 6.033-4.377 11.204-4.377z"/></g></svg>