<svg clip-rule="evenodd" fill-rule="evenodd" stroke-linejoin="round" stroke-miterlimit="2" viewBox="0 0 600 259" xmlns="http://www.w3.org/2000/svg"><g fill="#fff"><path d="m170.031 20.995-.169.254 21.669 63.452c.035.142.035.362-.01.501l-12.2 31.417c-.052.148.015.258.159.258h12.705c.165-.003.312-.105.373-.258l38.037-95.37c.054-.153-.014-.254-.163-.254h-13.862c-.158.007-.297.106-.355.254l-16.103 41.696h-.181l-14.217-41.696c-.034-.153-.197-.254-.341-.254z"/><path d="m454.074 20.995h-14.602c-.143.002-.262.118-.266.261v64.039l.266.261h14.602.005c.144 0 .263-.117.265-.261v-64.039c0-.001 0-.002 0-.004 0-.141-.117-.257-.258-.257-.004 0-.008 0-.012 0z"/><path d="m429.925 20.995h-15.768l-.106-.097v-10.625l-.241-.26h-14.635c-.145 0-.265.116-.27.26v55.945c0 11.206 6.974 19.338 16.585 19.338h10.457c.142 0 .258-.117.258-.258 0-.001 0-.002 0-.003v-8.728c0-.143-.101-.278-.258-.278h-6.42c-1.65-.025-5.476-.108-5.476-8.364v-37.663l.087-.085c4.82.025 15.787 0 15.787 0l.261-.239v-8.682c-.005-.141-.119-.256-.261-.261z"/><path d="m53.977.749-36.047-.015c-.142-.003-.263.111-.267.253v84.308c0 .134.118.261.267.261h14.609l.257-.261.017-75.156.086-.125 16.728-.032c6.091 0 9.436 6.137 9.436 17.261 0 11.128-3.345 17.28-9.436 17.28l-10.067-.011c-.151 0-.253.115-.253.258v8.748c0 .17.102.274.253.274h14.417c5.086 0 10.068-2.357 13.663-6.408 4.259-4.806 6.501-11.748 6.501-20.065 0-16.118-7.872-26.57-20.164-26.57z"/><path d="m98.034.734h-14.618c-.166 0-.285.117-.285.253v84.308c0 .136.119.261.285.261h14.619l.268-.261v-84.308l-.269-.253z"/><path d="m327.935 20.995h-15.859l-.083-.097v-10.625c0-.141-.108-.26-.254-.26h-14.605c-.149 0-.279.119-.279.26v55.945c0 11.206 6.986 19.338 16.604 19.338h10.46c.15 0 .266-.127.266-.261v-8.728c0-.143-.116-.278-.266-.278h-6.422c-1.645-.025-5.503-.108-5.519-8.364v-37.663l.089-.085c4.858.025 15.868 0 15.868 0l.257-.239v-8.682c0-.142-.115-.259-.257-.261z"/><path d="m555.115 20.995h-26.063c-.142.002-.258.119-.258.261l-.008 64.039.245.261h14.63l.247-.261-.02-54.978.101-.107 11.113-.008c3.006 0 6.303.485 8.412 3.96 1.929 3.14 2.804 8.661 2.804 17.325.012.374-.012 33.808-.012 33.808 0 .134.117.261.26.261h14.567c.158 0 .275-.127.275-.261v-32.116c0-15.051-3.007-32.184-26.293-32.184z"/><path d="m161.788 21.255c0-.149-.131-.262-.275-.262h-26.032c-23.343 0-26.328 17.135-26.328 32.194l.018 13.023c0 11.207 6.97 19.345 16.552 19.345h14.203l.257-.26v-8.738c0-.143-.12-.27-.257-.27l-10.145.018c-2.337-.049-5.484-1.037-5.484-9.073v-14.061c-.011-9.344.859-15.318 2.799-18.716 2.101-3.751 5.409-4.255 8.385-4.255h11.096l.093.133-.014 54.962c0 .133.113.26.269.26h14.592c.143 0 .272-.127.272-.26z"/><path d="m266.944 36.014-7.198-.549c-5.398-.465-9.413-3.454-9.413-12.3 0-10.328 4.632-13.154 10.815-13.154h19.925l.264-.256v-8.767l-.264-.252h-.417l-21.585.005c-13.599 0-23.268 7.987-23.268 23.904v.692c0 12.56 7.728 21.625 19.245 22.506l7.165.531c5.465.414 8.868 5.301 8.868 12.718v2.085c0 4.637-1.159 13.121-11.103 13.121h-20.702c-.144.004-.261.125-.26.269v8.727l.26.261h25.703c7.919 0 21.18-3.204 21.18-24.759 0-7.81-1.774-13.966-5.37-18.414-3.065-3.821-7.606-5.887-13.845-6.367z"/><path d="m386.664 21.255c-.001-.143-.118-.261-.261-.262h-26.091c-23.292 0-26.308 17.135-26.308 32.194l.019 13.023c0 11.207 6.963 19.345 16.595 19.345h14.164l.264-.26v-8.738c-.002-.145-.119-.264-.264-.27l-10.151.018c-2.328-.049-5.446-1.037-5.456-9.073v-14.061c0-9.344.879-15.318 2.774-18.716 2.104-3.751 5.432-4.255 8.358-4.255h11.146l.11.133-.027 54.962c0 .133.121.26.267.26h14.612c.144 0 .249-.127.249-.26z"/><path d="m491.589 20.996c-24.394 0-27.512 17.214-27.512 32.267 0 15.069 3.118 32.34 27.512 32.34 24.397 0 27.508-17.271 27.508-32.34 0-15.053-3.11-32.267-27.508-32.267zm9.26 51.053c-2.299 3.786-5.948 4.291-9.26 4.291-3.278 0-6.938-.505-9.262-4.291-2.095-3.407-3.065-9.376-3.065-18.787v-.074c0-11.108 1.366-17.419 4.424-20.424 1.829-1.823 4.199-2.564 7.903-2.564 3.759 0 6.106.741 7.933 2.564 3.03 3.005 4.399 9.343 4.399 20.498 0 9.424-.972 15.397-3.072 18.787z"/><path d="m454.074.734h-14.602l-.266.253v12.244c0 .148.13.257.266.257h14.602c.16 0 .27-.109.27-.257v-12.244c0-.136-.11-.253-.27-.253z"/><path d="m307.622 224.195v-59.659c0-12.17 5.68-20.885 17.795-20.885h74.728c.456 0 .898-.454.898-.904v-11.87c-.004-.104-.028-.207-.07-.303h-91.371c-19.805 2.518-29.48 16.321-29.48 33.962v59.657c0 12.17-5.839 20.886-17.791 20.886h-78.918c-.448 0-.897.302-.897.901v11.872c0 .494.302.872.656.995h89.602c23.35-.613 34.848-15.522 34.848-34.652z"/><path d="m.609 258.847h26.238c.405-.159.668-.556.657-.991v-38.02c0-12.17 6.874-20.587 16.889-20.587h108.073c24.365 0 36.176-15.027 36.176-34.713 0-17.641-9.665-31.444-29.48-33.962h-159.039c-.045.1-.123.178-.123.303v11.87c0 .601.299.904.896.904h142.451c12.109 0 17.789 8.715 17.789 20.885 0 12.173-5.68 20.888-17.789 20.888h-112.705c-17.488 0-30.642 14.88-30.642 34.412v38.022c-.002.488.209.866.609.989z"/><path d="m400.605 245.083h143.5c.44 0 .739.298.739.601v12.172c0 .601.455.902.895.902h25.866c.458 0 .893-.301.893-.902v-11.872c0-.452.458-.901.898-.901h25.706c.599 0 .898-.452.898-.9v-12.023c0-.454-.299-.902-.898-.902h-25.706c-.44 0-.898-.454-.898-.899v-86.708c0-7.076-2.627-11.582-7.049-13.077h-7.483c-2.333.6-4.869 1.672-7.587 3.306l-154.557 95.424c-5.98 3.755-8.076 7.961-6.579 11.117 1.196 2.707 4.625 4.662 11.362 4.662zm143.095-90.335c-.344-.002-.691.116-.95.323 0 0-119.727 74.081-119.727 74.081-.575.342-.886.683-.932 1.091-.016.13-.004.268.035.414.036.078.093.157.177.229.239.209.692.372 1.461.372h120.341c.44 0 .898-.448.898-.899v-74.086c0-1.085-.645-1.523-1.303-1.525z"/></g></svg>