<svg clip-rule="evenodd" fill-rule="evenodd" stroke-linejoin="round" stroke-miterlimit="2" viewBox="0 0 600 137" xmlns="http://www.w3.org/2000/svg"><g fill="#fff"><path d="m104.65 11.789c24.13 8.33 32.309 18.699 32.309 42.066 0 22.766-13.982 31.399-31.741 22.779v-42.458c0-4.976-.909-9.561-5.557-10.862-3.562-1.149-5.773 2.179-5.773 7.155v106.255l-28.494-9.094v-126.685c12.119 2.261 29.77 7.579 39.256 10.819z"/><path d="m99.288 118.245 45.83-16.356c5.204-1.895 5.999-4.509 1.774-5.892-4.224-1.384-11.86-.992-17.051.884l-30.54 10.773v-17.171l1.768-.6c6.9-2.232 14.013-3.741 21.225-4.502 12.41-1.371 27.605.189 39.528 4.711 13.445 4.256 14.961 10.527 11.544 14.847s-11.791 7.395-11.791 7.395l-62.274 22.413z"/><path d="m13.123 116.515c-13.761-3.935-16.098-12.056-9.808-16.736 5.816-4.338 15.706-7.578 15.706-7.578l40.841-14.588v16.622l-29.391 10.565c-5.198 1.895-5.994 4.522-1.769 5.905s11.86.991 17.051-.878l14.096-5.141v14.873c-.89.164-1.894.322-2.81.473-14.707 2.399-29.779 1.192-43.916-3.517z"/><path d="m596.786 28.063h-116.201v31.501s-.354 12.163 14.689 12.163h71.028c2.786-.023 5.546.539 8.102 1.648 3.966 1.769 8.425 5.368 8.425 12.631 0 6.517-3.158 10.218-6.284 12.289-2.588 1.672-5.609 2.55-8.69 2.526h-87.27v8.842h97.312s22.103-.897 22.103-23.613c0-11.551-6.745-17.272-12.814-20.076-3.921-1.802-8.189-2.726-12.504-2.71h-70.396c-1.173.016-2.332-.26-3.372-.802-1.504-.814-3.158-2.431-3.158-5.614v-20.063h99.03z"/><path d="m334.329 100.79v8.841h49.323c5.893.063 11.615-2.009 16.104-5.829 4.686-3.978 7.33-9.87 7.186-16.015v-37.582c-.051-4.162 1.813-8.124 5.053-10.736 2.269-1.777 5.081-2.725 7.963-2.684h43.001v-8.722h-51.211s-22.103.354-22.103 23.733v35.094c.039 2.874-.736 5.701-2.236 8.153-2.206 3.688-6.251 5.899-10.546 5.766z"/><path d="m220.453 28.063v8.722h87.908c2.445-.021 4.865.498 7.086 1.522 3.486 1.635 7.401 5.001 7.401 11.828 0 6.631-3.915 9.947-7.401 11.589-2.258 1.036-4.716 1.562-7.2 1.54h-65.198c-3.859-.036-7.674.829-11.14 2.527-5.425 2.721-11.456 9.131-11.456 19.703v23.998h16.918v-23.89c-.011-1.554.27-3.097.828-4.547 1.395-3.581 4.925-9.328 13.179-9.328h65.742c2.211.012 4.413-.284 6.543-.878 6.037-1.718 16.104-6.681 16.104-20.714 0-21.807-21.706-22.072-21.706-22.072z"/></g></svg>