<?xml version="1.0" encoding="UTF-8" standalone="no"?><!DOCTYPE svg PUBLIC "-//W3C//DTD SVG 1.1//EN" "http://www.w3.org/Graphics/SVG/1.1/DTD/svg11.dtd"><svg width="100%" height="100%" viewBox="0 0 600 136" version="1.1" xmlns="http://www.w3.org/2000/svg" xmlns:xlink="http://www.w3.org/1999/xlink" xml:space="preserve" xmlns:serif="http://www.serif.com/" style="fill-rule:evenodd;clip-rule:evenodd;stroke-linejoin:round;stroke-miterlimit:2;"><g id="playstation_ps5_compact"><path d="M104.65,10.843c24.13,8.33 32.309,18.7 32.309,42.066c-0,22.767 -13.982,31.4 -31.741,22.779l0,-42.457c0,-4.977 -0.909,-9.561 -5.557,-10.862c-3.562,-1.15 -5.773,2.178 -5.773,7.155l0,106.254l-28.494,-9.094l-0,-126.684c12.119,2.261 29.77,7.578 39.256,10.818l-0,0.025Z" style="fill:#fff;"/><path d="M99.288,117.3l45.83,-16.357c5.204,-1.894 5.999,-4.509 1.774,-5.892c-4.224,-1.383 -11.86,-0.991 -17.051,0.884l-30.54,10.774l-0,-17.171l1.768,-0.6c6.9,-2.232 14.013,-3.742 21.225,-4.503c12.41,-1.37 27.605,0.19 39.528,4.711c13.445,4.257 14.961,10.528 11.544,14.847c-3.417,4.32 -11.791,7.396 -11.791,7.396l-62.274,22.412l-0.013,-16.501Z" style="fill:#fff;"/><path d="M13.123,115.569c-13.761,-3.934 -16.098,-12.056 -9.808,-16.735c5.816,-4.339 15.706,-7.578 15.706,-7.578l40.841,-14.589l-0,16.622l-29.391,10.566c-5.198,1.894 -5.994,4.521 -1.769,5.904c4.225,1.383 11.86,0.992 17.051,-0.878l14.096,-5.14l0,14.872c-0.89,0.164 -1.894,0.322 -2.81,0.474c-14.707,2.399 -29.779,1.191 -43.916,-3.518Z" style="fill:#fff;"/><g><path d="M596.786,27.118l-116.201,-0l-0,31.5c-0,0 -0.354,12.163 14.689,12.163l71.028,0c2.786,-0.022 5.546,0.539 8.102,1.649c3.966,1.768 8.425,5.368 8.425,12.63c-0,6.518 -3.158,10.218 -6.284,12.29c-2.588,1.672 -5.609,2.55 -8.69,2.526l-87.27,-0l-0,8.841l97.312,0c-0,0 22.103,-0.896 22.103,-23.613c-0,-11.55 -6.745,-17.272 -12.814,-20.076c-3.921,-1.801 -8.189,-2.726 -12.504,-2.709l-70.396,0c-1.173,0.015 -2.332,-0.26 -3.372,-0.802c-1.504,-0.815 -3.158,-2.431 -3.158,-5.614l-0,-20.064l99.03,0l-0,-8.721Z" style="fill:#fff;"/><path d="M334.329,99.844l0,8.842l49.323,-0c5.893,0.062 11.615,-2.009 16.104,-5.829c4.686,-3.978 7.33,-9.87 7.186,-16.016l0,-37.582c-0.051,-4.161 1.813,-8.123 5.053,-10.736c2.269,-1.777 5.081,-2.724 7.963,-2.684l43.001,0l-0,-8.721l-51.211,-0c0,-0 -22.103,0.353 -22.103,23.733l-0,35.093c0.039,2.874 -0.736,5.701 -2.236,8.153c-2.206,3.689 -6.251,5.9 -10.546,5.766l-42.534,-0.019Z" style="fill:#fff;"/><path d="M220.453,27.118l-0,8.721l87.908,0c2.445,-0.021 4.865,0.499 7.086,1.522c3.486,1.636 7.401,5.002 7.401,11.829c0,6.631 -3.915,9.946 -7.401,11.588c-2.258,1.036 -4.716,1.562 -7.2,1.541l-65.198,0c-3.859,-0.036 -7.674,0.829 -11.14,2.526c-5.425,2.722 -11.456,9.132 -11.456,19.704l-0,23.998l16.918,-0l0,-23.891c-0.011,-1.554 0.27,-3.096 0.828,-4.547c1.395,-3.581 4.925,-9.328 13.179,-9.328l65.742,0c2.211,0.012 4.413,-0.283 6.543,-0.877c6.037,-1.718 16.104,-6.682 16.104,-20.714c-0,-21.807 -21.706,-22.072 -21.706,-22.072l-97.608,-0Z" style="fill:#fff;"/></g></g></svg>