<?xml version="1.0" encoding="UTF-8" standalone="no"?><!DOCTYPE svg PUBLIC "-//W3C//DTD SVG 1.1//EN" "http://www.w3.org/Graphics/SVG/1.1/DTD/svg11.dtd"><svg width="100%" height="100%" viewBox="0 0 600 130" version="1.1" xmlns="http://www.w3.org/2000/svg" xmlns:xlink="http://www.w3.org/1999/xlink" xml:space="preserve" xmlns:serif="http://www.serif.com/" style="fill-rule:evenodd;clip-rule:evenodd;stroke-linejoin:round;stroke-miterlimit:2;"><g id="playstation_ps3_compact"><g><path d="M464.83,30.242l-49.294,0.002c-15.204,0 -22.65,9.37 -22.65,21.57l0,37.059c0,7.548 -3.57,12.977 -11.136,12.977l-43.102,0c-0.309,0 -0.558,0.254 -0.558,0.567l0,7.445c0,0.311 0.256,0.564 0.568,0.564l48.789,0c15.201,0 22.648,-9.342 22.648,-21.539l0,-37.088c0,-7.554 3.579,-12.995 11.128,-12.995l43.607,-0c0.322,-0 0.559,-0.253 0.559,-0.56l0,-7.435c0,-0.314 -0.254,-0.567 -0.559,-0.567Z" style="fill:#fff;fill-rule:nonzero;"/><path d="M319.725,30.251l-94.813,-0.007c-0.307,0 -0.558,0.254 -0.558,0.565l0,7.44c0,0.309 0.251,0.561 0.563,0.561l89.119,0c7.553,0 11.135,5.438 11.135,12.991c0,7.544 -3.574,12.979 -11.135,12.979l-70.492,0c-10.949,0 -19.19,9.199 -19.19,21.397l0,23.68c0,0.311 0.253,0.563 0.563,0.563l16.078,-0c0.305,-0 0.558,-0.252 0.558,-0.563l0,-23.68c0,-7.552 4.357,-12.826 10.6,-12.826l67.572,0c15.208,0 22.648,-9.345 22.648,-21.534c0,-12.19 -7.44,-21.566 -22.648,-21.566Z" style="fill:#fff;fill-rule:nonzero;"/><path d="M592.948,69.341c-0.244,-0.244 -0.25,-0.66 -0.005,-0.891c4.71,-3.904 7.052,-9.814 7.052,-16.633c0,-12.19 -7.447,-21.566 -22.65,-21.566l-94.814,-0.007c-0.306,0 -0.566,0.254 -0.566,0.566l-0,7.439c-0,0.314 0.26,0.561 0.566,0.561l89.121,0c7.556,0 11.134,5.438 11.134,12.991c0,7.544 -3.572,12.979 -11.134,12.979l-0.078,0l-0.025,-0.003l-89.018,0.01c-0.306,-0 -0.566,0.253 -0.566,0.562l-0,7.442c-0,0.308 0.26,0.56 0.566,0.56l89.127,0c9.832,0.08 11.124,9.643 11.124,14.541l0.011,0.979c-0,7.556 -3.585,12.992 -11.135,12.992l-89.127,0c-0.306,0 -0.566,0.254 -0.566,0.56l-0,7.439c-0,0.311 0.26,0.564 0.566,0.564l94.814,-0.003c15.21,0 22.655,-10.105 22.655,-21.565l-0,-0.966c-0,-7.297 -2.354,-14.269 -7.052,-18.551Z" style="fill:#fff;fill-rule:nonzero;"/></g><path d="M62.671,0.306c7.288,1.359 14.452,3.3 21.582,5.323c4.077,1.184 8.145,2.41 12.186,3.715c6.348,2.021 12.668,4.311 18.417,7.724c2.575,1.564 5.049,3.331 7.162,5.486c2.29,2.248 4.166,4.882 5.542,7.782c2.507,5.235 3.365,11.084 3.619,16.834c0.119,3.752 0.112,7.537 -0.59,11.241c-0.582,3.218 -1.617,6.392 -3.339,9.188c-1.52,2.468 -3.634,4.604 -6.2,5.98c-2.46,1.326 -5.277,1.958 -8.068,1.902c-4.232,0.044 -8.339,-1.305 -12.137,-3.074c-0.07,-12.632 -0.012,-25.266 -0.03,-37.895c-0.026,-2.285 0.129,-4.594 -0.332,-6.849c-0.325,-1.746 -1.037,-3.507 -2.409,-4.692c-0.908,-0.82 -2.088,-1.283 -3.272,-1.533c-1.198,-0.228 -2.476,0.281 -3.217,1.243c-1.233,1.54 -1.557,3.585 -1.613,5.502c-0.01,33.817 0.013,67.635 -0.01,101.449c-9.098,-2.883 -18.195,-5.77 -27.291,-8.661c-0.009,-40.221 -0.005,-80.442 0,-120.665Z" style="fill:#fff;"/><path d="M21.782,85.882c11.86,-4.199 23.708,-8.44 35.573,-12.624c0.019,4.656 0,9.314 0.007,13.974c-0.007,0.632 0.033,1.267 -0.046,1.895c-9.378,3.324 -18.739,6.707 -28.107,10.052c-1.299,0.492 -2.631,1.047 -3.633,2.038c-0.466,0.466 -0.847,1.154 -0.592,1.819c0.321,0.785 1.122,1.213 1.861,1.535c2.056,0.836 4.303,0.956 6.492,1.055c2.441,-0.038 4.893,-0.221 7.283,-0.749c1.616,-0.318 3.172,-0.862 4.712,-1.44c4.003,-1.45 8.007,-2.908 12.017,-4.342c0.028,3.939 0.005,7.88 0.012,11.824c-0.012,0.787 0.036,1.58 -0.042,2.364c-4.924,0.884 -9.907,1.484 -14.912,1.564c-10.079,0.227 -20.181,-1.333 -29.755,-4.483c-3.139,-0.909 -6.259,-2.121 -8.881,-4.114c-1.444,-1.117 -2.735,-2.522 -3.392,-4.25c-0.55,-1.465 -0.51,-3.154 0.176,-4.566c0.66,-1.41 1.815,-2.522 3.086,-3.388c2.941,-2.032 6.187,-3.582 9.474,-4.963c2.836,-1.206 5.774,-2.147 8.667,-3.201Z" style="fill:#fff;"/><path d="M117.21,80.577c2.69,-0.311 5.397,-0.384 8.102,-0.481c8.895,0.033 17.838,1.139 26.348,3.809c1.669,0.508 3.287,1.166 4.95,1.695c2.966,1.083 5.935,2.397 8.308,4.53c1.426,1.3 2.657,3.053 2.673,5.053c0.084,1.63 -0.652,3.193 -1.71,4.393c-2.01,2.255 -4.668,3.805 -7.335,5.156c-2.84,1.448 -5.893,2.382 -8.872,3.485c-18.179,6.528 -36.361,13.053 -54.536,19.588c-0.004,-5.093 0.005,-10.184 -0.004,-15.271c0.027,-0.204 -0.083,-0.559 0.203,-0.612c13.832,-4.921 27.661,-9.856 41.491,-14.792c1.87,-0.699 3.885,-1.205 5.471,-2.473c0.649,-0.51 1.285,-1.321 0.967,-2.197c-0.333,-0.765 -1.126,-1.188 -1.857,-1.506c-2.07,-0.819 -4.324,-0.977 -6.526,-1.04c-3.448,0.024 -6.925,0.448 -10.205,1.554c-9.852,3.453 -19.685,6.947 -29.54,10.389c0.001,-5.468 -0.004,-10.932 0.002,-16.399c7.128,-2.502 14.573,-4.019 22.07,-4.881Z" style="fill:#fff;"/></g></svg>