<svg clip-rule="evenodd" fill-rule="evenodd" stroke-linejoin="round" stroke-miterlimit="2" viewBox="0 0 600 209" xmlns="http://www.w3.org/2000/svg"><g fill="#fff"><path d="m169.466.992c-1.62.312-3.534.853-4.254 1.201-.719.348-2.927 1.297-4.907 2.112-8.839 3.633-16.348 10.415-20.54 18.547-1.3 2.518-2.671 4.952-3.049 5.406-.379.454-.508 1.116-.288 1.473.22.355.13.646-.199.646-1.455 0-3.056 10.793-3.056 20.611 0 9.706 1.597 20.611 3.017 20.611.309 0 .515.22.458.49-.311 1.508 5.523 12.867 7.981 15.54.993 1.079 2.506 3.014 3.364 4.299 2.011 3.013 5.894 7.173 13.62 14.594 3.42 3.283 7.592 7.296 9.273 8.915 1.681 1.618 5.642 5.299 8.805 8.178 16.003 14.575 19.512 20.63 19.528 33.697.036 29.522-31.998 29.117-37.33-.472-.246-1.36-.679-2.771-.967-3.135-.286-.364-.616-1.837-.731-3.271-.117-1.436-.508-2.598-.868-2.584-11.215.417-21.919 1.241-21.919 1.684 0 .32-1.661.581-3.693.581h-3.692l.44 5.283c.733 8.786 4.345 23.506 5.767 23.506.33 0 .419.295.197.655s-.112.655.245.655c.356 0 .852.662 1.1 1.471 2.582 8.418 19.619 24.047 26.212 24.047.497 0 .905.266.905.595 0 2.369 29.349 2.763 34.352.459 13.249-6.098 13.393-6.187 18.339-11.28 2.689-2.769 4.888-5.265 4.888-5.545 0-.282 1.161-2.369 2.58-4.639 10.477-16.765 7.355-50.169-6.101-65.305-.801-.899-2.302-2.907-3.339-4.461-2.348-3.52-14.486-15.942-19.312-19.763-1.978-1.567-4.041-3.324-4.58-3.901-.54-.579-2.34-2.128-3.997-3.445-3.422-2.712-11.897-11.314-12.3-12.48-.145-.425-.908-1.654-1.696-2.734-13.933-19.1-9.318-43.876 8.162-43.825 9.25.025 15.23 6.592 17.182 18.872.689 4.323.974 4.997 2.121 4.992 2.312-.009 9.779-1.304 11.139-1.933 1.087-.504 15.918-3.295 17.503-3.295 1.388 0-1.289-16.091-2.836-17.048-.391-.241-.7-.621-.684-.844.492-7.261-15.302-23.176-26.416-26.617-1.439-.446-2.921-1.049-3.292-1.342-2.144-1.686-20.437-2.495-27.132-1.201z"/><path d="m539.804 1.071c-1.619.361-3.092.859-3.271 1.11-.18.25-1.772.997-3.537 1.659-13.063 4.902-28.525 22.125-28.525 31.775 0 .658-.368 1.318-.817 1.467-.935.313-1.611 82.293-.678 82.266 1.521-.044 5.142-4.458 7.976-9.727.506-.941 1.241-1.926 1.635-2.19.421-.281.447-.489.064-.501-.36-.011-.24-.282.268-.603.507-.322.997-1.275 1.09-2.118.092-.841.229-1.604.305-1.695.074-.09.197-.385.271-.655.528-1.892 3.811-9.584 4.374-10.244.592-.694 2.672.806 2.193 1.582-.174.28.075.66.554.844.713.274 3.056 6.207 3.409 8.637.052.36.173.802.267.981s.287 1.358.427 2.618c.142 1.258.389 3.321.549 4.579.988 7.79 1.132 13.934.362 15.375-.453.845-.637 2.277-.41 3.182s.151 1.809-.169 2.006c-.319.197-.774 1.647-1.01 3.223-.488 3.248-4.566 12.202-5.558 12.202-.361 0-1.007 1.176-1.438 2.616-.431 1.441-1.04 2.618-1.351 2.618-.312 0-.848.736-1.189 1.636-.342.9-.924 1.635-1.294 1.635-.367 0-.669.303-.669.674s-2.495 3.074-5.546 6.004c-5.823 5.598-5.949 5.893-4.295 10.007.289.72 1.345 3.517 2.348 6.217 2.531 6.817 6.741 12.819 12.495 17.812 1.359 1.178 3.026 2.687 3.704 3.351.678.663 4.664 2.87 8.858 4.902l7.626 3.697 10.395.237c10.117.233 18.068-.628 18.068-1.954 0-.31.408-.564.905-.564 4.859 0 18.815-10.945 24.613-19.303 6.943-10.008 7.197-12.083 7.197-58.604v-39.215h-49.727v32.061h17.012v20.492c0 25.324-.272 26.542-7.174 32.088-7.917 6.363-22.81 1.789-25.481-7.827-.96-3.461-.99-119.306-.032-122.76 3.083-11.096 18.806-14.442 27.485-5.846 4.79 4.744 5.202 6.593 5.202 23.362v12.727h32.715v-15.663c0-20.211-1.281-26.251-7.326-34.527-1.369-1.874-2.489-3.622-2.489-3.887 0-2.714-18.783-15.934-22.639-15.934-.504 0-.916-.254-.916-.565 0-1.801-20.123-2.747-26.826-1.26z"/><path d="m491.987 174.597c-1.046.976-8.972 3.986-12.216 4.639-1.17.234-2.127.657-2.127.939 0 .28-.736.371-1.634.199-1.008-.194-1.637-.013-1.637.47 0 .529-.635.642-1.962.351-1.193-.262-1.963-.167-1.963.243 0 .43-1.232.531-3.374.277-2.471-.293-3.25-.197-2.906.357.341.554-1.136.758-5.459.758-3.983 0-5.928.245-5.928.742 0 1.553 1.542 5.802 2.105 5.802.325 0 .399.307.167.683-.233.374-.133 1.038.22 1.471.351.435 1.567 3.807 2.701 7.497l2.061 6.707h33.968v-15.666c0-15.512-.215-17.152-2.016-15.469z"/><path d="m394.125 168.773c-.495 1.291.087 3.988 1.694 7.841.449 1.08.937 3.124 1.08 4.542.146 1.417.515 2.742.822 2.945.541.355 3.14 6.872 3.796 9.525.283 1.138.212 1.18-.541.327-.477-.54-2.119-1.797-3.647-2.79-1.53-.994-2.781-2.148-2.781-2.561 0-.416-.185-.57-.41-.345-.227.226-1.677-.461-3.227-1.526-1.547-1.067-2.983-1.938-3.187-1.938-.206 0-.373 4.712-.373 10.469v10.47h32.06v-13.703c0-13.697-.14-14.603-2.289-14.779-1.912-.156-6.871-1.853-6.871-2.348 0-.318-.222-.543-.491-.501-1.434.227-2.735-.211-4.074-1.372-.821-.711-1.725-1.152-2.007-.978-.282.176-.612.073-.733-.229-.692-1.723-8.317-4.36-8.821-3.049z"/><path d="m347.274 83.098c-.27.273-.492 27.976-.492 61.565v61.069h32.062v-11.676c0-12.085-.396-13.842-3.122-13.842-.401 0-1.152-.604-1.668-1.342-.713-1.017-1.354-1.237-2.655-.91-1.622.406-1.718.294-1.773-2.095-.291-12.58.603-24.41 2.048-27.112.96-1.794.77-2.827-1.008-5.448-.9-1.326-1.636-2.75-1.636-3.163 0-.415-.707-1.505-1.571-2.425-1.787-1.9-7.854-13.075-7.366-13.564.178-.176-.236-.879-.917-1.56-.751-.751-1.072-1.676-.817-2.343.309-.806.188-.959-.445-.568-.651.403-.776.184-.499-.875.202-.776.103-1.246-.223-1.044-.327.201-.631.053-.677-.326-.135-1.15-.278-1.569-1.457-4.274-.623-1.429-1.45-3.862-1.838-5.408-.391-1.546-.968-2.971-1.284-3.166-.314-.195-.573-1.351-.573-2.568 0-1.216-.282-2.387-.625-2.599-.344-.213-.461-.82-.257-1.347.202-.529.005-.962-.438-.962-.551 0-.68-.633-.407-1.995.277-1.389.176-1.858-.335-1.54-.524.323-.604-.254-.277-1.995.3-1.596.229-2.307-.202-2.039-.41.252-.739-.994-.861-3.268-.109-2.021-.417-3.453-.687-3.18z"/><path d="m270.882 88.61v-85.714h-32.06v202.836h32.06v-85.061h34.68v85.061h32.06v-202.836h-32.06v85.714z"/><path d="m90.948 2.896h32.06v202.836h-32.06z"/><path d="m88.331 34.303v-31.407h-88.331v202.836h32.06v-85.061h41.222v-32.061h-41.548l.355-54.307z"/><path d="m387.36 10.911c.01 8.734.179 9.341 2.607 9.481 1.711.098 5.889 4.244 5.889 5.841 0 .479.294.871.655.871.36 0 .655.417.655.929 0 .509.22 1.024.489 1.144.854.378 3.335 6.191 4.477 10.482 1.072 4.029 1.455 6.643 1.755 11.982.081 1.439.397 3.003.701 3.473.303.471.371 1.575.151 2.453-.233.927-.116 1.599.278 1.599.398 0 .508.678.268 1.637-.271 1.082-.138 1.634.396 1.634.552 0 .682.634.408 1.997-.246 1.237-.154 1.844.245 1.595.355-.218.645.127.645.767 0 2.075 4.087 18.208 4.671 18.433.31.121.564.648.564 1.172 0 1.072 5.115 3.5 6.379 3.029.523-.195.839-1.755.877-4.325l.058-4.02.859 3.126c.474 1.718 1.085 3.633 1.358 4.252.273.621.534 1.276.577 1.455.307 1.252 2.041 3.089 2.683 2.842.43-.165 1.282.202 1.896.815.612.614 2.048 1.6 3.191 2.195 3.738 1.945 5.246 2.959 6.781 4.549.833.862 1.513 1.338 1.513 1.058 0-.283.871.484 1.934 1.703 1.397 1.598 1.842 2.67 1.606 3.85-.784 3.91-2.545 9.522-3.107 9.909-.336.232-.465 1.187-.286 2.122.472 2.473-.941 3.387-3.074 1.988-1.748-1.146-3.362-3.454-3.085-4.415.086-.297-.129-.364-.479-.148-.85.526.918 5.477 2.593 7.259.712.756 1.083 1.587.825 1.844-.257.258.107.627.812.82 1.377.38 6.621 6.602 6.35 7.538-.089.31.206.491.655.401.451-.091.754.176.676.589-.179.948 4.405 1.021 5.539.087.563-.463.818-.458.818.016 0 .479.65.485 2.127.018 1.169-.369 3.231-.63 4.58-.582 1.489.053 2.455-.213 2.455-.678 0-.51.763-.643 2.289-.394 1.537.248 2.293.115 2.301-.405.005-.476.28-.396.704.204.522.739.776.779 1.026.163.564-1.391 2.991-1.018 2.543.391-.211.665-.82 3.491-1.354 6.281-1.205 6.299-1.285 6.423-3.81 5.899l-2.065-.429 1.552 1.209c.852.663 2.113 1.734 2.804 2.376.69.644 1.539.994 1.885.779.346-.213.63.053.63.595 0 .63.47.891 1.31.729.718-.138 1.308.075 1.308.474s.193.533.429.295c.238-.236.856-.077 1.376.353.52.431 1.283.855 1.696.942.414.087 2.371.636 4.35 1.22 4.329 1.277 7.726 1.806 12.105 1.89l3.271.06.181-11.446c.147-9.424.01-11.571-.776-12.146-1.7-1.243-1.911-3.816-.422-5.163 1.34-1.213 1.345-1.482 1.345-62.949v-61.73h-32.062v64.885c0 35.686-.121 64.763-.268 64.612-.252-.255-2.536-8.487-4.796-17.283-.553-2.16-1.222-4.073-1.483-4.254-.435-.298-3.461-10.7-6.661-22.893-.708-2.696-1.519-5.199-1.805-5.563-.494-.628-2.769-8.435-6.01-20.616-.813-3.06-1.657-5.709-1.874-5.889-.342-.284-4.142-13.447-6.659-23.065-.447-1.709-1.063-3.108-1.37-3.108s-.368-.307-.135-.683c.232-.375.144-1.038-.197-1.471-.341-.435-1.716-4.766-3.058-9.623-1.34-4.858-2.767-10.01-3.168-11.452-1.031-3.7-.357-3.576-19.605-3.588l-17.501-.009.009 8.015z"/><path d="m502.517 141.761c.012 12.161.303 12.931 3.776 10.008 1.058-.889 2.184-1.406 2.505-1.145.319.259.385.227.145-.071-.238-.3.304-1.624 1.205-2.944 2.171-3.179 1.827-6.812-1.011-10.67-1.127-1.532-2.054-2.506-2.059-2.166-.005.341-.225.297-.49-.097-.264-.394-1.29-.916-2.281-1.158l-1.799-.44z"/><path d="m346.828 37.082c.027 18.804.3 34.778.609 35.497.387.899.577-.176.609-3.435.028-2.93.316-4.744.752-4.744.444 0 .547-.727.276-1.963-.292-1.324-.178-1.963.349-1.963.495 0 .675-.717.492-1.963-.158-1.079-.011-1.963.33-1.963.339 0 .463-.589.275-1.308-.188-.72-.064-1.308.279-1.308.342 0 .545-.369.45-.818-.094-.451.631-2.547 1.608-4.659.978-2.113 1.777-4.023 1.777-4.243 0-.742 3.589-7.552 4.581-8.693.539-.621 1.718-2.549 2.618-4.281.9-1.734 1.856-3.25 2.126-3.371.27-.118.49-.603.49-1.075s.731-1.551 1.625-2.4c.893-.846 1.63-1.897 1.635-2.335.007-.437.609-1.115 1.338-1.505.732-.391 1.184-.944 1.007-1.23-.783-1.266 4.091-5.413 5.482-4.668.74.396 1.354 1.077 1.367 1.514.01.438.452 1.367.981 2.066.861 1.137.96.408.96-7.034v-8.304h-32.062z"/><path d="m387.36 31.522c.012 10.716.451 12.445 2.579 10.161.734-.79 1.338-2.038 1.338-2.773 0-.734.293-1.336.653-1.336s.609-.22.55-.492c-.057-.269.124-1.008.401-1.643.582-1.331-.129-7.025-.878-7.025-.277 0-1.193-1.473-2.036-3.273-2.302-4.916-2.618-4.144-2.607 6.381z"/></g></svg>