<svg clip-rule="evenodd" fill-rule="evenodd" stroke-linejoin="round" stroke-miterlimit="2" viewBox="0 0 600 239" xmlns="http://www.w3.org/2000/svg"><g fill="#fff"><path d="m121.559 237.98c4.088 0 6.219-4.385 7.868-7.868 2.02 2.021 6.578 9.154 9.956 7.705 1.481-.638 2.595-2.946 3.553-4.178.811-1.045 1.687-2.046 2.226-3.256 1.804 1.886 5.936 9.23 9.136 7.317 1.74-1.039 3.179-3.866 4.503-5.418.468-.548 1.275-1.882 2.096-1.882 1.086 0 2.105 2.205 2.638 2.968 1.907 2.726 2.515 4.612 6.044 4.612-.069-25.027 3.365-49.691 13.138-72.98 1.927-4.592 4.052-10.568 7.375-14.339 1.173-1.331 3.186-.647 4.718-1.256 3.375-1.341 3.299-1.541 3.256-2.311-.198-3.523-4.717-2.804-7.868-2.804h-76.778c-5.723 0-12.276-.889-17.906.126-2.471.446-5.26.442-5.26 3.039 0 1.132.727.946 3.903 2.051 1.321.459 3.082-.109 4.138.93 4.834 4.758 7.987 12.585 10.843 18.633 10.132 21.45 12.421 45.543 12.421 68.911zm32.285-17.635c1.281 1.392 5.012 4.78 4.885 6.783-.143 2.251-4.339 5.521-5.699 7.325-1.416-1.042-5.352-4.661-5.375-6.511-.01-.904 1.023-1.805 1.555-2.442 1.446-1.737 2.808-3.812 4.634-5.155zm-16.821 0c1.431 1.886 5.751 5.228 5.96 7.597.094 1.071-1.228 2.216-1.833 2.984-.645.819-1.881 3.198-3.066 3.198-.745 0-1.396-.83-1.875-1.299-1.141-1.121-4.427-3.73-4.409-5.426.022-2.108 3.475-5.372 4.68-7.054zm-12.208 4.341 2.713 2.984v.272l-2.713 3.798h-.272zm41.78-.814-.271 7.868h-.272c-2.385-3.535-3.485-5.03.543-7.868zm-21.162 1.628-4.995-5.426-1.495-2.442 2.727-4.069 3.241-3.471 3.257 3.199 3.26 4.341-1.383 2.442zm-16.006-.271c-4.258-3.006-7.071-7.345-3.628-11.938.532-.711 1.516-2.657 2.543-2.657 1.071 0 2.324 2.199 2.948 2.929.913 1.066 2.747 2.658 3.028 4.069.397 1.983-3.754 6.009-4.891 7.597zm33.098-15.193c1.32 1.934 3.94 4.189 4.45 6.511.691 3.147-3.61 6.731-5.806 8.41l-5.073-6.782 1.297-2.442zm-8.953 5.426-4.647-5.698-1.816-2.713 1.523-2.441 4.398-5.698c2.301 1.122 4.011 4.263 5.589 6.24.518.649 1.487 1.535 1.434 2.442-.053.91-1.072 1.786-1.619 2.442-1.517 1.819-2.949 4.018-4.862 5.426zm-17.363-.272c-1.339-2.024-5.544-5.144-5.699-7.596-.143-2.264 4.167-6.286 5.428-8.139 1.812.917 6.261 5.52 6.547 7.596.128.929-.761 1.774-1.277 2.442-1.424 1.843-2.871 4.661-4.999 5.697zm32.556-13.022-1.085 9.495c-4.756-2.875-2.155-6.663 1.085-9.495zm-46.121.814c1.162 1.334 2.407 2.739 2.84 4.125.433 1.387.056 2.754-2.026 4.014zm4.341-15.193c1.455 2.2 3.272 4.206 4.951 6.24.647.783 1.934 1.872 1.879 2.984-.121 2.454-4.097 6.116-5.474 8.139-2.138-1.729-3.731-4.353-5.426-6.511-.712-.906-1.84-2.017-1.823-3.256.029-2.286 4.173-6.281 5.893-7.596zm35.54 17.363-7.325-8.681c1.336-2.322 3.229-4.407 4.884-6.512.489-.622 1.13-1.849 1.946-2.076.834-.233 1.609.76 2.123 1.264 1.35 1.324 5.343 4.522 5.385 6.51.02.963-1.079 1.998-1.622 2.713-1.747 2.298-3.653 4.477-5.391 6.782zm-17.634-17.092 6.511 8.139v.272l-6.511 8.139h-.271l-4.648-5.426-1.572-2.442 1.573-2.713 4.375-5.969zm-8.682 6.24-5.696-6.511-1.292-2.713 6.174-7.868c2.323 1.106 4.109 4.253 5.697 6.24.53.663 1.437 1.506 1.234 2.442-.591 2.721-4.478 6.129-6.117 8.41zm17.363-16.821 4.387 5.155 1.808 2.442-1.618 2.713-4.577 5.969h-.542l-6.511-8.14v-.271l6.511-7.868zm16.007.543c.994 1.304 2.889 2.542 3.47 4.07.84 2.211-1.63 7.422-2.113 9.766-1.954-1.118-3.322-3.29-4.884-4.883-.553-.563-1.554-1.3-1.575-2.17-.045-1.788 3.744-5.741 5.102-6.783zm-50.191-.271c1.22 1.793 5.124 5.429 5.12 7.596-.002 1.734-3.268 4.734-4.577 5.698-1.18-4.191-4.134-9.741-.543-13.294zm5.969-27.944c2.876 5.458 3.418 12.316 5.247 18.177.572 1.831 2.799 5.261 2.619 7.054-.237 2.362-4.609 6.204-6.238 7.867h-.271c-1.609-2.026-4.982-5.285-5.449-7.867-.312-1.722 1.367-4.412 1.607-6.24.605-4.597.627-9.247 1.286-13.837.237-1.649.232-3.762 1.199-5.154zm39.881 0 1.403 17.906.889 7.325-5.276 7.596h-.542c-1.513-2.147-5.513-4.64-5.965-7.325-.249-1.478 1.759-4.221 2.257-5.697 1.681-4.992 2.937-10.104 4.282-15.193.509-1.927.56-4.533 2.952-4.612zm-19.805 0c1.155 5.954 2.131 12.013 3.563 17.906.471 1.942 2.429 5.429 2.137 7.325-.304 1.967-3.621 4.729-4.907 6.238-.513.602-1.2 1.647-2.107 1.154-1.553-.844-5.547-5.634-5.783-7.392-.194-1.441 1.328-3.494 1.747-4.884 1.095-3.632 1.742-7.4 2.437-11.123.399-2.139.644-8.489 2.913-9.224zm40.696 1.085c-.818 2.584-2.584 4.864-3.715 7.325-3.028 6.59-6.309 13.521-7.951 20.619-1.083-.516-3.012-2.12-2.634-3.527.633-2.359 3.346-5.118 4.57-7.325 3.027-5.457 5.377-12.548 9.73-17.092zm-83.019.543c4.652 5.375 7.687 12.179 10.922 18.448 1.218 2.359 3.905 4.808 1.83 7.325l-8.351-18.177zm38.254-1.628-3.291 16.278-2.406 6.782c-2.508-4.405-3.306-9.799-4.581-14.65-.718-2.731-1.956-5.6-2.202-8.41zm41.509 0-3.858 7.054-8.622 15.464h-.271c-.573-7.256-.19-15.151-1.899-22.247 4.292-1.269 10.169-.271 14.65-.271zm-22.518 0c-.748 5.552-2.728 11.482-4.434 16.82-.556 1.738-1.034 4.65-2.62 5.698-1.885-7.052-4.461-15.187-4.612-22.518zm-38.525 0-1.039 8.139-1.674 14.107h-.542l-7.441-13.836-5.311-8.41z"/><path d="m100.126 157.674c-.665-1.573-2.282-4.245-3.877-5.001-1.156-.549-2.533-.535-3.719-1.101-1.218-.582-2.071-1.66-3.256-2.261-1.597-.809-3.941-.847-5.697-1.186-8.224-1.586-16.407-3.445-24.417-5.908-3.595-1.105-7.786-1.961-10.853-4.242-6.958-5.175-5.968-13.317-5.968-20.996v-62.67c0-2.876-.093-6.078 1.33-8.682 2.028-3.708 6.109-5.954 9.522-8.229 8.027-5.352 16.611-9.859 25.502-13.59 20.84-8.745 44.849-14.545 67.554-13.989 18.557.455 36.975 4.523 54.532 10.396 11.961 4.001 23.314 9.836 33.913 16.618 4.138 2.648 9.715 5.635 11.145 10.693 1.891 6.696.521 15.314.521 22.247v45.578c0 8.234 1.391 17.009-5.969 22.646-2.932 2.246-7.101 3.089-10.581 4.137-6.799 2.049-13.663 3.79-20.619 5.23-4.5.932-8.354 1.245-12.208 3.77-1.874 1.227-4.443.596-6.097 1.665-1.375.888-2.25 3.418-2.856 4.875 5.018-.041 10.25-1.229 15.193-2.058 10.628-1.782 21.105-4.093 31.471-7.052 5.575-1.591 13.136-2.961 17.352-7.178 5.673-5.674 3.809-15.21 3.809-22.508v-56.159c0-4.698-.111-9.411.002-14.108.079-3.126.445-6.162-1.389-8.953-1.856-2.822-5.12-4.803-7.838-6.706-5.431-3.802-10.99-7.309-16.82-10.469-24.266-13.156-53.164-21.481-80.848-22.159-30.567-.749-62.67 7.36-89.529 21.887-6.004 3.248-11.8 6.78-17.363 10.744-2.527 1.8-5.593 3.604-7.424 6.161-2.012 2.809-1.801 5.954-1.801 9.224v70.538c0 7.272-1.843 16.855 3.809 22.508 4.193 4.192 11.809 5.596 17.353 7.178 14.698 4.196 30.779 8.452 46.121 9.11z"/><path d="m88.875 144.826c.539-.774 1.35-1.299 2.338-1.672 1.113-.419 2.561-.568 3.926-.814 5.748-1.037 12.438-.16 18.281-.16h76.778c2.107 0 4.758-.212 6.593.405 1.259.423 2.264 1.124 2.844 2.252.627-.06 1.189-.122 1.687-.185 9.072-1.153 18.082-3.704 26.858-6.202 3.855-1.097 8.842-2.11 11.615-5.197 4.134-4.601 2.493-13.276 2.493-18.987v-60.771c0-2.29.138-4.823-1.259-6.783-1.549-2.175-4.152-3.69-6.337-5.154-4.308-2.886-8.738-5.488-13.294-7.952-21.126-11.426-46.983-18.856-71.081-19.446-26.59-.651-53.244 5.365-77.321 16.59-6.479 3.02-12.876 6.565-18.72 10.692-2.145 1.515-4.763 2.908-6.404 5-1.484 1.891-1.192 4.255-1.192 6.51v61.586c0 5.51-1.739 14.309 2.22 18.715 2.756 3.067 7.544 3.943 11.345 5.083 8.811 2.644 17.986 5.154 27.13 6.316.47.06.97.118 1.5.174zm109.202-78.714v66.331h-39.424v-4.502h34.191v-57.327h-85.827l-11.164.3c1.628 12.738.665 26.519.014 39.319-.282 5.538 1.29 12.032-.014 17.408l11.862.3h22.329v4.502h-39.424v-66.331z"/><circle cx="69.067" cy="108.618" r="69.067"/><path d="m113.861 126.588c.849.753 1.974 2.09 2.738 3.258.595.934 1.815 3.428 2.282 4.701 1.083 2.95 1.91 6.898 2.346 11.218l.191 1.783-.743.934c-6.092 7.821-13.606 13.987-22.414 18.391-6.538 3.269-13.648 5.445-20.833 6.368-1.931.244-6.357.594-6.357.499 0-.022.297-.138.669-.255 1.125-.361 3.343-1.274 5.009-2.08 11.186-5.381 21.151-15.526 28.739-29.259 2.441-4.415 4.999-10.188 6.665-15.049.233-.679.445-1.295.467-1.38.063-.169 0-.212 1.241.871z"/><path d="m106.305 123.032c1.666.298 4.245 1.147 4.245 1.391 0 .085-.976 2.886-1.454 4.149-1.146 3.078-2.388 5.943-3.916 9.021-5.391 10.889-12.385 19.782-20.588 26.171-6.177 4.807-13.393 8.065-20.472 9.243-.934.149-1.709.308-1.73.351-.053.148-4.118-.436-6.442-.913-15.07-3.152-28.357-11.271-37.855-23.125-1.104-1.38-2.844-3.746-2.844-3.863 0-.032.541-.032 1.199.021 1.401.106 6.145.021 8.034-.138 7.524-.647 15.77-2.579 25.842-6.028 4.69-1.613 8.564-3.067 17.829-6.707 9.445-3.704 12.894-4.988 17.351-6.452 5.763-1.89 10.189-2.919 14.327-3.312 1.592-.148 5.169-.042 6.474.191z"/><path d="m119.836 107.241c3.237 1.231 7.482 3.205 9.552 4.436 2.027 1.21 3.682 2.6 4.266 3.608l.276.457-.181 1.4c-1.093 8.331-4.043 16.981-8.277 24.197-.924 1.571-1.964 3.248-1.974 3.152 0-.032-.117-.838-.255-1.804-1.051-7.068-3.025-12.311-6.017-15.983-.775-.944-2.399-2.483-3.205-3.035-.436-.297-.595-.467-.563-.594 1.39-4.564 2.717-10.592 3.301-15.038.095-.648.191-1.316.212-1.507l.064-.34.817.297c.445.17 1.348.51 1.984.754z"/><path d="m10.151 136.643c.021.031.8 1.608 1.235 2.446.445.839 1.103 2.038 1.486 2.654l.679 1.124.605.064c.339.043 1.655.127 2.929.191 5.157.287 11.705-.403 18.275-1.921 8.023-1.857 15.176-4.234 29.238-9.742 1.485-.584 4.383-1.709 6.42-2.515 13.51-5.296 20.355-7.387 27.115-8.299 2.059-.276 6.697-.276 8.278 0 1.783.318 3.874.923 4.68 1.347.138.085.202.064.245-.085 1.093-3.746 1.889-7.163 2.557-10.909.35-1.942.796-5.031.796-5.445 0-.201.149-.148-3.81-1.39-17.479-5.508-40.593-9.923-59.653-11.398-15.983-1.241-28.909-.467-36.985 2.218-3.609 1.199-6.06 2.558-7.854 4.351-.912.902-1.39 1.571-1.995 2.76l-.371.743-.138 2.281c-.138 2.42-.085 6.591.116 8.862.658 7.63 2.728 15.431 5.795 21.904.13.276.253.536.357.759z"/><path d="m44.168 49.667c2.43.425 6.018 1.497 8.49 2.547 4.935 2.091 10.167 5.285 16.768 10.231 1.836 1.38 2.675 2.027 9.074 7.025 5.338 4.171 8.83 6.729 12.003 8.777 6.856 4.415 12.725 6.866 18.455 7.705 1.497.223 4.596.414 5.275.339.658-.074.605-.191.764 1.635.371 4.096.403 9.572.106 13.457-.117 1.411-.149 1.613-.297 1.549-.096-.042-1.359-.446-2.823-.913-17.999-5.688-41.315-10.145-61.023-11.642-5.582-.424-7.238-.488-13.69-.488-6.697.011-8.448.085-12.841.594-8.915 1.019-15.707 3.386-19.23 6.718-.255.234-.457.404-.457.372s.128-.68.276-1.433c1.709-8.649 5.19-16.97 10.103-24.186 4.776-7.005 10.847-13.001 17.851-17.617 2.229-1.465 3.884-2.43 6.527-3.789l2.228-1.157.743.053c.414.032 1.178.128 1.698.223z"/><path d="m72.716 43.565c5.699.371 10.921 1.337 16.131 2.982 1.327.425 1.985.701 3.025 1.284 5.975 3.354 11.08 8.236 14.847 14.189 3.269 5.147 5.678 11.25 7.079 17.893.201.924.679 3.662.679 3.842 0 .17-2.303.191-3.821.032-6.866-.722-13.679-3.757-22.605-10.072-2.154-1.528-5.232-3.863-10.103-7.672-6.696-5.254-8.628-6.697-11.971-9-6.771-4.659-12.799-7.62-18.466-9.063-.785-.202-1.358-.393-1.273-.425 6.728-2.419 12.448-3.587 19.686-4.022 1.305-.085 5.349-.064 6.792.032z"/><path d="m128.774 82.38c2.755 6.22 4.546 12.875 5.22 19.714.297 3.003.424 7.641.265 9.413l-.074.701-.796-.637c-2.834-2.25-7.504-4.606-13.606-6.867-1.135-.424-2.165-.806-2.281-.859-.213-.085-.223-.096-.075-1.709.244-2.547.234-11.377-.01-13.764-.255-2.537-.287-2.314.382-2.399 1.836-.244 4.754-1.008 6.908-1.815.9-.331 3.185-1.338 3.75-1.634zm-1.287-2.009-.954.444c-3.046 1.433-7.079 2.664-9.085 2.781l-.573.032-.138-.849c-1.92-11.823-6.569-21.82-13.52-29.079-1.486-1.549-1.507-1.549 1.072.085 10.156 6.455 18.265 15.725 23.481 26.433l-.293.132z"/><path d="m207.725 185.322c.586 3.806 1.344 6.985 2.263 9.631 2.035 5.86 4.924 9.547 8.339 11.913 3.672 2.544 8.095 3.623 13.379 3.623 3.731 0 7.101-.866 10.054-2.425 1.02.735 2.273 1.167 3.627 1.167h10.222c3.44 0 6.229-2.789 6.229-6.229v-80.673c0-3.44-2.789-6.229-6.229-6.229h-10.222c-1.149 0-2.225.311-3.148.855-2.717-1.402-5.841-2.113-9.59-2.113-12.98 0-19.842 7.327-23.296 17.873-.681 2.077-1.211 4.298-1.624 6.61-.441-2.351-1-4.607-1.707-6.713-3.541-10.545-10.422-17.77-22.908-17.77-2.467 0-4.672.28-6.666.85v-38.495c0-3.441-2.789-6.23-6.229-6.23h-10.222c-3.44 0-6.229 2.789-6.229 6.23v125.805c0 3.44 2.789 6.229 6.229 6.229h10.222c1.353 0 2.606-.432 3.627-1.167 2.952 1.559 6.322 2.425 10.054 2.425 9.74 0 15.981-4.792 19.905-12.445 1.838-3.585 3.085-7.94 3.92-12.722zm32.376-23.993c0 11.778-.308 19.835-1.899 24.938-.411 1.318-.797 2.354-1.552 2.963-.54.434-1.263.466-2.114.466-.534 0-1.075.097-1.563-.126-.202-.093-.293-.342-.459-.628-.432-.74-.797-1.704-1.142-2.928-1.348-4.778-2.086-12.513-2.086-25 0-6.338.081-13.664 1.538-19.401.44-1.733.987-3.296 1.8-4.522.561-.846 1.291-1.456 2.384-1.456 2.231 0 2.726 2.246 3.423 4.817 1.459 5.377 1.67 12.784 1.67 20.877zm-59.032 28.367c-.932 0-1.563-.538-2.069-1.247-.766-1.073-1.303-2.44-1.746-3.942-2.289-7.764-1.75-18.584-1.75-24.122 0-3.972-.482-13.396 1.684-20.291.406-1.293.894-2.481 1.592-3.416.444-.595 1.004-1.043 1.817-1.043 2.284 0 3.087 1.991 3.851 4.494 1.573 5.151 1.872 12.426 1.872 20.885 0 12.817-.577 20.913-2.27 25.792-.669 1.928-1.456 2.89-2.981 2.89z"/><g fill-rule="nonzero"><path d="m300.584 126.261c-4.089-3.146-8.964-5.19-14.153-5.19-12.109 0-20.129 8.492-20.129 20.601 0 9.592 6.605 15.883 13.052 21.544 6.605 5.818 13.053 11.165 13.053 19.185 0 6.762-4.718 12.266-11.795 12.266-6.133 0-10.378-3.774-14.31-7.863v11.952c3.932 3.145 9.593 5.504 14.625 5.504 13.367 0 22.016-10.222 22.016-23.117 0-10.536-6.448-16.512-13.052-22.016-6.448-5.347-13.053-10.064-13.053-17.77 0-5.976 3.932-10.693 10.065-10.693 5.661 0 10.379 3.931 13.366 8.177h.315z"/><path d="m323.701 77.197h-10.222v125.805h10.222v-38.685h.314l24.847 38.685h12.737l-30.35-44.504 24.06-36.169h-11.637l-19.657 32.709h-.314z"/><path d="m377.011 156.139c0-7.234 2.201-25.475 11.951-25.475 10.693 0 11.008 16.354 11.322 24.06l.158 1.415zm33.81 8.649v-4.875c0-14.153-2.988-38.842-21.859-38.842-19.5 0-22.645 27.363-22.645 41.83 0 16.198 2.831 41.359 24.06 41.359 14.94 0 19.657-16.355 19.815-28.621h-10.537c0 6.448-1.258 19.028-10.221 19.028-11.165 0-12.581-19.5-12.581-27.52v-2.359z"/><path d="m450.449 122.329h-13.367v-22.016h-10.221v22.016h-8.649v9.436h8.649v71.237h10.221v-71.237h13.367z"/><path d="m476.711 195.925c-13.052 0-11.794-25.633-11.794-35.54 0-7.234-1.101-30.979 11.322-30.979 10.222 0 11.952 13.209 11.952 31.608 0 27.677-3.145 34.911-11.48 34.911zm-21.072 7.077h10.221v-6.291h.315c2.988 4.561 7.548 7.549 13.367 7.549 17.612 0 19.185-22.016 19.185-42.46 0-18.241-1.258-40.729-19.972-40.729-5.818 0-9.592 2.202-12.58 6.762h-.315v-50.636h-10.221z"/><path d="m541.972 161.329c0 25.318-1.887 34.596-11.794 34.596-5.976 0-11.48-1.572-11.48-34.911 0-13.681.63-31.608 11.952-31.608 10.064 0 11.322 14.467 11.322 31.923zm9.279-39h-10.222v5.504h-.315c-3.145-4.403-6.762-6.762-12.423-6.762-19.5 0-20.129 22.645-20.129 40.729 0 35.226 6.291 42.46 19.186 42.46 5.818 0 10.379-2.988 13.366-7.549h.315v6.291h10.222z"/><path d="m565.404 77.197h10.222v125.805h-10.222z"/><path d="m589.778 77.197h10.222v125.805h-10.222z"/><path d="m181.069 195.925c-13.052 0-11.794-25.633-11.794-35.54 0-7.234-1.101-30.979 11.322-30.979 10.222 0 11.952 13.209 11.952 31.608 0 27.677-3.145 34.911-11.48 34.911zm-21.072 7.077h10.222v-6.291h.314c2.988 4.561 7.548 7.549 13.367 7.549 17.613 0 19.185-22.016 19.185-42.46 0-18.241-1.258-40.729-19.971-40.729-5.819 0-9.593 2.202-12.581 6.762h-.314v-50.636h-10.222z"/><path d="m246.331 161.329c0 25.318-1.888 34.596-11.795 34.596-5.975 0-11.479-1.572-11.479-34.911 0-13.681.629-31.608 11.951-31.608 10.065 0 11.323 14.467 11.323 31.923zm9.278-39h-10.222v5.504h-.314c-3.146-4.403-6.762-6.762-12.424-6.762-19.5 0-20.129 22.645-20.129 40.729 0 35.226 6.291 42.46 19.186 42.46 5.818 0 10.379-2.988 13.367-7.549h.314v6.291h10.222z"/></g></g></svg>