<?xml version="1.0" encoding="UTF-8" standalone="no"?><!DOCTYPE svg PUBLIC "-//W3C//DTD SVG 1.1//EN" "http://www.w3.org/Graphics/SVG/1.1/DTD/svg11.dtd"><svg width="100%" height="100%" viewBox="0 0 600 165" version="1.1" xmlns="http://www.w3.org/2000/svg" xmlns:xlink="http://www.w3.org/1999/xlink" xml:space="preserve" xmlns:serif="http://www.serif.com/" style="fill-rule:evenodd;clip-rule:evenodd;stroke-linejoin:round;stroke-miterlimit:2;"><g id="playlist_hockey"><path d="M12.746,152.052c0,-1.758 -1.427,-3.186 -3.186,-3.186l-6.373,-0c-1.759,-0 -3.187,1.428 -3.187,3.186l0,8.291c0,1.759 1.428,3.187 3.187,3.187l6.373,-0c1.759,-0 3.186,-1.428 3.186,-3.187l0,-8.291Z" style="fill:#fff;"/><path d="M263.265,134.885l0,-23.56l6.303,-0l-0,-57.775l-6.303,0l0,-23.71l41.418,-0l0,23.71l-6.303,0l0,14.856l14.857,-14.856l-2.551,0l-0,-23.71l49.821,-0l0,23.71l-8.704,0l-28.512,28.512l29.263,29.263l7.953,-0l0,23.56l-49.821,0l-0,-23.56l2.851,-0l-10.205,-10.204l-4.802,4.802l0,5.402l6.303,-0l0,23.56l-41.568,0Zm39.017,-2.551l0,-18.608l-6.453,-0l0,-8.404l7.503,-7.503l15.907,15.907l-6.002,-0l-0,18.608l44.569,-0l-0,-18.608l-6.303,-0l-31.663,-31.664l31.063,-31.063l7.053,0l-0,-18.608l-44.719,0l-0,18.608l6.002,0l-23.41,23.41l0,-23.41l6.303,0l-0,-18.608l-36.316,0l0,18.608l6.153,0l-0,62.727l-6.153,-0l0,18.608l36.466,-0Zm-33.164,-3.301l-0,-12.006l6.152,0l0,-69.329l-6.152,-0l-0,-12.006l29.863,0l-0,12.006l-6.303,-0l-0,34.815l34.815,-34.815l-11.105,-0l0,-12.006l38.267,0l-0,12.006l-6.303,-0l-34.665,34.664l34.665,34.665l6.303,0l-0,12.006l-38.267,-0l0,-12.006l11.255,0l-24.16,-24.31l-10.805,10.955l-0,13.355l6.453,0l-0,12.006l-30.013,-0Z" style="fill:#fff;fill-rule:nonzero;"/><path d="M365.013,134.885l0,-23.56l6.303,-0l-0,-57.775l-6.303,0l0,-23.71l77.133,-0l0,27.912l-23.56,-0l0,-4.202l-18.458,0l0,16.957l4.202,0l0,-4.051l23.71,-0l0,31.813l-23.71,0l0,-4.051l-4.202,-0l0,17.107l18.458,-0l0,-4.352l23.56,0l0,27.912l-77.133,0Zm74.582,-2.551l0,-22.81l-18.608,0l0,4.202l-23.41,-0l0,-22.21l9.304,0l0,4.202l18.608,0l0,-26.711l-18.608,-0l0,4.202l-9.304,-0l0,-22.21l23.41,0l0,4.202l18.608,-0l0,-22.81l-72.031,0l0,18.608l6.153,0l0,62.727l-6.153,-0l0,18.608l72.031,-0Zm-68.729,-3.301l-0,-12.006l6.152,0l0,-69.329l-6.152,-0l-0,-12.006l65.578,0l-0,16.207l-12.155,0l-0,-4.201l-29.863,-0l-0,28.662l15.757,-0l-0,-4.202l12.005,0l-0,20.409l-12.005,-0l-0,-4.202l-15.757,0l-0,28.662l29.863,0l-0,-4.201l12.155,-0l-0,16.207l-65.578,-0Z" style="fill:#fff;fill-rule:nonzero;"/><path d="M446.348,53.55l0,-23.71l49.822,-0l-0,23.71l-0.901,0l9.454,9.304l9.454,-9.304l-1.2,0l-0,-23.71l48.471,-0l-0,23.71l-8.554,0l-33.915,33.915l0,23.86l6.303,-0l0,23.56l-41.268,0l0,-23.56l6.153,-0l0,-23.86l-33.915,-33.915l-9.904,0Zm10.955,-2.551l35.415,35.415l0,27.312l-6.303,-0l0,18.758l36.466,0l0,-18.758l-6.453,-0l0,-27.312l35.566,-35.415l6.903,0l-0,-18.608l-43.369,0l-0,18.608l4.652,0l-15.457,15.457l-15.456,-15.457l4.352,0l-0,-18.608l-44.72,0l0,18.608l8.404,0Zm-5.102,-3.301l-0,-12.006l38.116,0l0,12.006l-9.154,-0l23.41,23.41l23.41,-23.41l-9.154,-0l0,-12.006l36.916,0l0,12.006l-4.802,-0l-37.666,37.366l-0,31.963l6.303,0l-0,13.206l-29.863,0l-0,-13.206l6.303,0l-0,-31.963l-37.517,-37.366l-6.302,-0Z" style="fill:#fff;fill-rule:nonzero;"/><path d="M179.378,47.195l-0,-0.548l16.807,-16.807l46.22,-0l16.807,16.807l-0,23.41l-28.963,0l0,-13.205l-3.301,-3.302l-15.457,0l-3.301,3.302l-0,51.021l3.451,3.452l15.307,-0l3.301,-3.301l0,-12.606l28.963,0l-0,22.66l-16.807,16.807l-46.22,0l-0.834,-0.834c0.083,-1.151 0.14,-2.296 0.178,-3.423l1.706,1.706l44.569,-0l14.857,-14.856l-0,-19.659l-23.86,0l-0,10.655l-5.253,5.252l-16.507,-0l-5.252,-5.252l-0,-52.223l5.252,-5.252l16.507,0l5.253,5.252l-0,11.555l23.86,0l-0,-20.559l-15.007,-15.006l-44.869,-0l-14.856,15.006l-0,7.548c-0.824,-2.576 -1.676,-5.114 -2.551,-7.6Zm5.852,18.653l0,-16.35l13.806,-13.806l40.668,0l13.805,13.806l0,14.857l-17.407,-0l-0,-10.055l-6.603,-6.602l-20.559,-0l-6.452,6.452l-0,56.425l6.452,6.452l20.559,0l6.603,-6.602l-0,-9.455l17.708,0l-0,14.257l-13.806,13.806l-40.968,-0l-3.437,-3.438c-0.08,-13.864 -3.962,-36.824 -10.369,-59.747Z" style="fill:#fff;fill-rule:nonzero;"/><path d="M103.459,131.367l0,3.518l-41.568,0l0,-23.56l6.453,-0l0,-17.558l-20.559,0l0,17.558l6.303,-0l0,23.56l-41.418,0l0,-23.56l6.303,-0l-0,-57.775l-6.303,0l0,-23.71l41.418,-0l0,23.71l-6.303,0l0,14.406l20.559,0l0,-14.406l-6.453,0l0,-23.71l21.307,-0l-0.048,0.959c-0.018,0.386 -0.037,0.772 -0.056,1.159l-0.02,0.433l-18.481,0l-0,18.608l6.302,0l0,19.508l-25.661,0l0,-19.508l6.303,0l-0,-18.608l-36.316,0l0,18.608l6.153,0l0,62.727l-6.153,-0l0,18.608l36.316,-0l-0,-18.608l-6.303,-0l0,-22.51l25.661,0l0,22.51l-6.302,-0l-0,18.608l36.465,-0l0,-6.707c0.778,1.939 1.579,3.856 2.401,5.74Zm-12.005,-34.523l0,20.183l6.303,0l-0,12.006l-30.013,-0l-0,-12.006l6.303,0l-0,-29.112l-31.964,-0l-0,29.112l6.303,0l-0,12.006l-29.863,-0l-0,-12.006l6.152,0l0,-69.329l-6.152,-0l-0,-12.006l29.863,0l-0,12.006l-6.303,-0l-0,25.961l31.964,-0l-0,-25.961l-6.303,-0l-0,-12.006l15.2,0c-0.258,8.32 0.152,16.464 3.29,37.383c0.975,6.501 2.765,14.8 5.22,23.769Zm3.151,10.684l0,6.198l2.042,-0c-0.709,-2.068 -1.39,-4.139 -2.042,-6.198Z" style="fill:#fff;fill-rule:nonzero;"/><path id="path21" d="M14.629,162.552l-1.5,0l-3.364,-12.709l1.5,0l3.364,12.709Zm2.999,0l-1.5,0l-3.364,-12.709l1.5,0l3.364,12.709Zm2.999,0l-1.499,0l-3.365,-12.709l1.5,0l3.364,12.709Zm2.999,0l-1.499,0l-3.364,-12.709l1.499,0l3.364,12.709Zm2.999,0l-1.499,0l-3.364,-12.709l1.499,0l3.364,12.709Zm3,0l-1.5,0l-3.364,-12.709l1.499,0l3.365,12.709Zm2.999,0l-1.5,0l-3.364,-12.709l1.5,0l3.364,12.709Zm2.999,0l-1.5,0l-3.364,-12.709l1.5,0l3.364,12.709Zm2.999,0l-1.5,0l-3.364,-12.709l1.5,0l3.364,12.709Zm2.999,0l-1.499,0l-3.365,-12.709l1.5,0l3.364,12.709Zm2.999,0l-1.499,0l-3.364,-12.709l1.499,0l3.364,12.709Zm2.999,0l-1.499,0l-3.364,-12.709l1.499,0l3.364,12.709Zm3,0l-1.5,0l-3.364,-12.709l1.499,0l3.365,12.709Zm2.999,0l-1.5,0l-3.364,-12.709l1.5,0l3.364,12.709Zm2.999,0l-1.5,0l-3.364,-12.709l1.5,0l3.364,12.709Zm2.999,0l-1.5,0l-3.364,-12.709l1.5,0l3.364,12.709Zm2.999,0l-1.499,0l-3.365,-12.709l1.5,0l3.364,12.709Zm2.999,0l-1.499,0l-3.364,-12.709l1.499,0l3.364,12.709Zm-57.348,-12.709l-5.746,0l0,12.709l9.11,0l-3.364,-12.709Zm63.347,12.709l-1.5,0l-3.364,-12.709l1.499,0l3.365,12.709Zm2.999,0l-1.5,0l-3.364,-12.709l1.5,0l3.364,12.709Zm38.432,-12.709l-40.297,0l3.364,12.709l47.3,0c-3.532,-3.169 -6.939,-7.349 -10.113,-12.308l-0.254,-0.401Zm-44.431,12.709l-1.499,0l-3.364,-12.709l1.499,0l3.364,12.709Zm123.137,-12.709c-0.335,0.711 -0.698,1.403 -1.092,2.075c-2.089,3.556 -6.101,6.584 -10.903,8.895c-1.301,0.626 -2.658,1.205 -4.034,1.739l345.685,0l0,-0.026c3.36,-0.109 6.661,-0.576 9.687,-1.816c10.641,-4.361 19.641,-12.582 27.661,-20.591c12.665,-12.647 24.534,-26.364 33.693,-41.842c2.355,-3.979 8.304,-14.216 7.474,-19.216c-0.867,-5.23 -3.278,-12.115 -13.086,-15.823c-10.89,-4.117 -17.291,14.449 -21.826,21.595c-14.204,22.382 -31.373,52.143 -57.868,61.295c-7.855,2.713 -16.646,3.546 -24.724,3.715l-290.667,0Zm352.627,1.265l-2.054,1.247c-5.495,-1.727 -14.25,-10.221 -16.845,-15.37c1.078,-0.402 1.65,-2.613 2.964,-1.567c4.582,3.647 12.281,12.473 15.935,15.69Zm-5.398,-11.654c1.228,1.555 2.614,3.209 4.059,4.58c1.532,1.929 2.789,3.798 3.55,5.337c-5.193,-1.334 -14.317,-11.172 -16.671,-15.937l0.549,-0.575c2.488,1.102 5.621,3.656 8.513,6.595Zm4.059,4.58c-1.218,-1.534 -2.608,-3.106 -4.059,-4.58c-1.196,-1.513 -2.244,-2.933 -3.052,-3.906c-1.261,-1.517 -2.821,-2.977 -2.7,-5.001c5.091,4.867 12.989,10.173 16.121,16.512c-2.032,0.334 -4.232,-1.053 -6.31,-3.025Zm9.07,0.712l-1.691,0.677l-16.091,-16.026l3.233,-2.129l4.267,4.21l10.789,11.646l-0.507,1.622Zm5.47,-6.872c-0.506,1.923 -1.962,4.367 -4.335,3.072c-4.948,-2.702 -12.654,-11.669 -15.096,-16.697c7.142,1.686 13.262,9.741 19.431,13.625Zm-16.658,-15.375c1.347,-2.485 3.04,-1.558 5.06,-0.103c4.124,2.97 11.936,7.125 14.462,11.568c0.768,1.351 -0.152,2.946 -1.78,2.566c-2.035,-0.475 -4.148,-2.951 -5.71,-4.264l-4.586,-3.82c-2.447,-2.014 -4.815,-4.188 -7.446,-5.947Zm5.432,-8.559c3.004,1.311 5.431,3.753 8.005,5.768l5.153,4.015c1.127,0.897 10.308,7.868 4.113,8.296c-2.161,0.149 -4.703,-2.613 -6.263,-3.843c-4.521,-3.566 -14.725,-7.9 -11.008,-14.236Zm5.483,-6.311l15.648,20.459l-13.758,-11.488l-4.414,-4.436l2.524,-4.535Zm2.186,-2.862l20.044,15.861l-4.946,5.174l-11.221,-14.372l-3.877,-6.663Zm4.371,-5.723l17.884,19.847c-3.111,0.181 -5.23,-2.32 -7.41,-4.327c-4.49,-4.135 -9.341,-7.87 -13.771,-12.071l-0.013,-0.562l2.185,-2.862l1.125,-0.025Zm1.61,-3.411c2.846,1.902 5.518,4.241 8.023,6.577c1.743,1.626 3.451,3.291 5.174,4.938c1.769,1.691 4.773,3.701 5.662,6.057c0.517,1.371 -0.435,3.083 -2.052,2.667c-1.769,-0.455 -3.328,-2.914 -4.48,-4.205c-2.874,-3.218 -13.108,-11.649 -12.327,-16.034Zm4.908,-6.86l14.343,12.453l5.096,5.671l-3.153,5.696l-14.133,-13.744l-4.676,-5.52l2.523,-4.556Zm22.28,15.248c-5.657,-1.737 -11.485,-7.203 -15.996,-10.978c-1.597,-1.335 -4.248,-2.902 -5.082,-4.881c-0.618,-1.464 0.251,-2.71 0.946,-3.938c6.139,2.573 11.611,8.827 16.608,13.168c2.323,2.018 4.764,3.394 3.524,6.629Zm-16.86,-24.37c5.128,4.279 10.307,8.508 15.474,12.741c2.47,2.023 5.577,3.644 4.096,7.068l-0.562,0.012c-4.951,-4.73 -10.257,-9.139 -15.492,-13.553c-1.971,-1.661 -5.039,-3.482 -3.516,-6.268Z" style="fill:#fff;fill-rule:nonzero;"/><path d="M190.91,126.04c0,-14.499 -4.427,-39.545 -11.599,-63.797c-9.518,-32.185 -23.617,-59.748 -35.716,-62.072c-10.565,-2.028 -49.649,14.586 -52.73,17.124c-1.913,1.575 -2.729,7.322 -2.729,7.322c-0.635,14.786 -1.621,18.777 2.729,47.775c4.109,27.395 22.958,87.531 45.119,92.008c7.389,1.492 17.296,-0.315 24.477,-2.112c7.395,-1.848 21.942,-5.562 26.152,-12.731c3.991,-6.796 4.297,-15.984 4.297,-23.517Zm-13.049,-59.447c-5.8,-20.299 -19.604,-47.301 -25.336,-53.932c-21.062,-24.365 -10.557,30.789 -10.28,47.37c-3.381,-12.913 -9.292,-36.721 -8.496,-48.946c0.164,-0.836 -0.139,-1.696 -0.79,-2.246c-0.651,-0.549 -1.55,-0.702 -2.347,-0.4c-9.588,3.298 -34.294,11.952 -35.398,13.717c-2.219,3.552 -2.899,24.138 0,34.287c0,0 1.741,-30.376 5.8,-31.899c9.855,-3.695 19.709,-7.39 25.118,-8.419c1.388,-0.111 2.642,0.827 2.927,2.19c2.155,10.178 10.626,49.099 18.158,64.162c-14.996,-140.248 49.493,17.464 36.443,66.762c4.35,-13.05 3.833,-15.022 4.35,-21.749c1.45,-18.849 -8.756,-56.021 -10.149,-60.897Z" style="fill:#fff;"/></g></svg>