<svg clip-rule="evenodd" fill-rule="evenodd" stroke-linejoin="round" stroke-miterlimit="2" viewBox="0 0 600 258" xmlns="http://www.w3.org/2000/svg"><g fill="#fff" fill-rule="nonzero"><path d="m112.42 139.721 8.204 24.092c4.438 13.027 8.401 23.446 8.918 23.446.008 0 .016-.004.023-.009.567-.502 16.625-47.132 16.625-47.132h31.121l-37.546 109.4h-21.631s-23.087-66.681-22.993-66.934l-24.1 66.094h-21.413l-37.073-108.957 30.97.02s16.965 48.088 17.191 48.088c.001 0 .001-.001.002-.002l16.928-48.107h34.774m-110.438-7.575 3.408 10.014 37.072 108.956 1.746 5.133h32.131l1.815-4.977 16.734-45.892c1.442 4.196 3 8.718 4.558 13.236 5.762 16.705 11.536 33.379 11.536 33.379l1.764 5.094h32.425l1.754-5.112 37.546-109.4 3.441-10.028h-47.122l-1.758 5.106c-2.814 8.17-6.548 18.953-9.742 28.08-.481-1.385-.983-2.84-1.501-4.363l-8.203-24.091-1.747-5.13h-45.554l-1.78 5.058-9.89 28.108c-3.268-9.184-7.055-19.886-9.951-28.094l-1.781-5.047-5.352-.004-30.97-.02-10.579-.006z"/><path d="m591.717 139.296-.071 28.675s-30.888-.103-46.591-.103c-5.224 0-8.768.012-8.936.043-2.706.493-4.429 6.247-3.662 8.772.378 1.278 3.209 5.45 6.274 9.283 3.055 3.833 8.08 10.106 11.146 13.936 7.872 9.823 8.951 11.762 9.679 17.402 1.183 9.161-3.15 19.076-11.193 25.614-8.06 6.558-7.707 6.604-67.544 6.604h-2.627c-36.392-.009-55.638-.311-58.44-.936-4.977-1.126-12.906-7.598-33.865-27.705-7.538-7.225-14.485-13.552-14.842-13.554-.01 0-.014.006-.014.015l-.247 42.182-33.969-.151-.209-108.796h75.755c22.833.825 38.284 23.571 35.209 38.076-.7 3.292-2.479 8.063-3.956 10.598-3.037 5.204-10.768 11.884-17.042 14.752-2.318 1.049-4.21 2.269-4.21 2.705 0 1.618 7.627 9.13 10.484 10.323 2.44 1.021 9.547 1.248 40.886 1.248 3.673 0 7.01.002 10.038.002 31.502 0 29.917-.227 32.351-5.433 1.704-3.624.408-5.79-11.581-19.293-15.188-15.112-13.597-22.35-13.701-27.697-.217-6.405 4.827-26.559 31.047-26.559zm-203.503 50.263c14.543 0 17.495-.226 20.591-1.57 10.446-4.542 11.004-17.959.984-23.912-2.195-1.307-5.015-1.523-20.779-1.609l-18.242-.095c.15.141-.058 26.087-.058 26.087s4.569 1.099 17.504 1.099m211.091-57.833h-77.421c-15.17 0-24.143 5.988-28.998 11.012-7.898 8.168-9.758 18.455-9.615 23.304.007.404.003.818-.002 1.251-.069 7.881 1.092 16.803 15.763 31.458 2.9 3.266 7.752 8.742 9.586 11.463-4.01.493-14.174.493-24.849.493h-4.535l-5.503-.002c-18.833 0-34.715-.054-37.97-.696-.455-.297-1.094-.808-1.796-1.418 6.508-4.007 13.087-10.218 16.185-15.529 1.88-3.229 3.953-8.746 4.823-12.838 1.931-9.107-1.253-20.094-8.517-29.397-8.474-10.854-20.802-17.348-33.823-17.817l-.137-.006h-83.477l.015 7.586.209 108.795.015 7.521 7.521.033 33.969.151 7.558.033.045-7.558.146-25.27c.694.658 1.411 1.343 2.147 2.048 22.924 21.991 30.619 28.083 37.434 29.625 1.873.417 4.971 1.109 60.107 1.124h2.63c29.849 0 44.831 0 53.744-.861 10.208-.987 13.492-3.303 18.414-7.31l.164-.133c10.11-8.22 15.445-20.656 13.923-32.456-.991-7.673-3.022-10.861-11.281-21.165l-2.454-3.065c-2.876-3.595-6.352-7.936-8.682-10.858-1.879-2.351-3.355-4.437-4.245-5.803 1.169-.003 2.688-.005 4.653-.005 15.514 0 46.258.102 46.566.104l7.578.025.019-7.578.071-28.676zm-220.978 49.987c.012-1.912.024-4.056.036-6.204.009-1.893.018-3.789.021-5.526l10.585.055c6.083.033 15.237.083 17.021.589 2.278 1.383 3.549 3.52 3.411 5.734-.076 1.196-.646 3.395-3.616 4.685-1.656.719-4.296.944-17.571.944-4.211 0-7.459-.123-9.887-.277z"/><path d="m267.779 138.851 38.124 109.685-31.065.142-5.157-16.474-55.543-.445-4.901 16.493-30.752-.323 37.64-109.031zm-24.981 16.081c-.078.316-4.867 13.455-9.672 26.593-4.845 13.247-9.705 26.494-9.772 26.597 0 .001-.001.001 0 .001v-.001c.128-.038 17.33-.076 28.356-.076 5.16 0 8.965.009 9.036.028.001.004.001.005.001.005v-.003l-.001-.002c-.193-.501-17.892-52.502-17.948-53.142.001-.003.001-.005.001-.005-.001 0-.001.002-.001.005m30.363-23.656-5.387.005-51.654.048-5.39.005-1.759 5.096-37.64 109.032-3.429 9.929 10.505.109 30.752.323 5.709.059 1.626-5.471 3.28-11.034 44.334.354 3.509 11.211 1.67 5.335 5.589-.025 31.063-.142 10.593-.049-3.478-10.005-38.123-109.685zm-38.912 69.208c1.434-3.907 3.365-9.187 5.987-16.359.822-2.248 1.574-4.306 2.264-6.193.628 1.851 1.311 3.864 2.053 6.054.611 1.804 3.297 9.718 5.601 16.491-6.85 0-12.007.001-15.905.007z"/><path d="m280.629 7.933v27.062h-54.199v82.765h-32.314v-82.832l-63.264.18c-7.626 0-8.648 6.075-8.648 8.403 0 2.857 1.864 5.715 12.102 18.678 6.642 8.421 12.746 16.824 13.55 18.659 4.39 10.106-1.287 25.851-11.629 32.247-7.371 4.555-6.112 4.666-60.849 4.666h-67.808v-30.402h92.634l2.735-1.902c1.845-1.286 2.914-3.056 3.321-5.478.568-3.482.275-3.936-11.165-16.824-13.522-15.234-14.95-18.016-14.25-27.743.795-11.099 10.692-27.223 27.989-27.223l171.795-.256m7.57-7.581-7.582.011-171.795.256c-9.896 0-19.087 4.275-25.872 12.037-5.501 6.295-9.112 14.6-9.657 22.215-.921 12.784 2.022 17.404 16.139 33.308 4.097 4.615 7.992 9.005 9.292 10.869-.02.074-.039.123-.051.15-.014.012-.036.029-.066.049l-.778.542h-97.829v45.541h75.378c26.988 0 40.308-.026 48.156-.601 8.98-.657 11.845-2.198 16.137-4.863l.536-.332c13.495-8.347 20.449-28.223 14.592-41.704-1.807-4.124-13.25-18.684-14.549-20.33-3.592-4.549-9.521-12.055-10.459-14.228.022-.182.067-.372.114-.503.156-.04.455-.093.947-.093l55.695-.158v82.81h47.452v-82.765h54.2v-42.211z"/><path d="m368.684 8.812 38.019 109.969-31.008-.17-5.033-16.474-55.296-.246-4.941 15.868h-31.574l37.602-108.947h52.231m-44.293 69.661 37.66-.047c.001 0 .001.001.001.001.129 0-18.302-54.125-18.425-54.162-.134-.005-19.661 54.208-19.236 54.208m49.685-77.231h-63.018l-1.76 5.1-37.602 108.949-3.465 10.039h47.769l1.655-5.321 3.275-10.522 44.124.195 3.406 11.141 1.628 5.326 5.571.032 31.007.17 10.69.059-3.493-10.102-38.019-109.969-1.768-5.097zm-39.169 69.648c2.335-6.649 5.586-15.761 8.529-23.95 2.79 8.179 5.875 17.263 8.126 23.93z"/><path d="m475.463 8.812c24.527 0 41.548.35 44.822.918 7.57 1.315 14.411 5.355 19.539 11.563 5.365 6.491 6.596 9.594 7.296 18.489 1.004 12.556-4.968 23.39-16.748 30.42-3.435 2.054-6.964 4.05-7.844 4.448-1.354.615-1.173 1.201 1.249 4.04 1.56 1.826 4.267 4.428 6.008 5.781l3.179 2.47 58.741.842.577 29.976h-36.014c-27.856 0-36.77-.255-39.382-1.135-3.908-1.325-13.312-9.292-32.428-27.478l-13.644-12.982.144 41.595h-35.051v-108.947h39.556m-5.165 48.986h18.613c18.112 0 18.678-.057 21.262-1.997 4.618-3.463 6.253-7.03 5.763-12.509-.501-5.649-2.678-8.592-8.138-10.957-3.075-1.344-6.038-1.561-20.553-1.561h-16.947zm5.165-56.556h-47.122v124.087h50.217l-.027-7.596-.083-23.86.795.756c23.642 22.494 30.616 27.604 35.216 29.163 3.532 1.192 9.445 1.537 41.812 1.537h43.729l-.148-7.715-.576-29.977-.14-7.318-7.318-.105-56.207-.805-1.178-.915c-.375-.292-.829-.678-1.314-1.115.422-.25.808-.48 1.142-.679 14.196-8.471 21.636-22.148 20.409-37.52-.817-10.37-2.669-15.041-9.008-22.709-6.23-7.541-14.781-12.583-24.079-14.198-5.166-.896-31.112-1.031-46.12-1.031zm2.405 37.101h9.377c13.273 0 15.902.221 17.522.929 3.075 1.332 3.387 1.978 3.629 4.69.242 2.695-.092 3.779-2.765 5.783-.088.066-.155.117-.211.157-1.765.327-8.314.327-16.509.327h-11.042z"/></g></svg>