<svg clip-rule="evenodd" fill-rule="evenodd" stroke-linejoin="round" stroke-miterlimit="2" viewBox="0 0 600 190" xmlns="http://www.w3.org/2000/svg"><g fill="#fff" fill-rule="nonzero"><path d="m592.596 7.394v40.641h-179.519v55.43h186.923v-7.392h-179.525v-40.642h179.525v-55.431h-186.923v7.394h179.519z"/><path d="m385.374 0v7.394h-95.349v96.071h-103.101v-7.392h95.349v-96.073h103.101z"/><path d="m7.394 103.465v-48.034h179.53v-55.431h-186.924v7.274l179.536.12v40.641h-179.536v55.43z"/><path d="m152.389 139.452v36.393h5.683v-32.9h5.263s3.814-.016 5.124 1.697c1.107 1.455 1.31 4.083 1.31 5.864 0 1.909-.116 4.842-.759 5.921-.968 1.641-2.55 1.967-4.012 1.967h-3.471v3.226h4.987s4.503.199 6.445-1.774c2.374-2.423 2.974-5.66 2.974-9.997 0-3.954-1.429-7.931-4.356-9.274-2.422-1.125-6.788-1.125-6.788-1.125z"/><path d="m180.395 139.452h5.694v36.393h-5.694z"/><path d="m216.287 147.929 10.394 27.245-5.964 14.605h4.715l17.174-41.85h-5.261l-7.483 20.399-6.967-20.399z"/><path d="m246.886 175.61v-3.431s6.005.234 7.253.234c2.776 0 4.156-.596 5.195-1.703.617-.663 1.176-3.64 1.176-4.692 0-1.066-.198-3.348-.613-4.274-.427-.919-1.392-1.773-2.849-1.89-1.029-.096-2.639-.293-4.501-.386-2.622-.119-4.355-1.496-5.196-2.472-.821-.993-1.934-2.456-1.934-7.016 0-4.536 1.175-7.072 2.349-8.26 1.183-1.186 2.913-1.706 4.232-1.936 1.516-.268 4.012-.286 4.012-.286l7.955.238v3.434s-5.804-.223-7.05-.223c-2.776 0-3.607.584-4.646 1.697-.608.671-1.087 2.501-1.087 3.565 0 1.045.124 3.175.536 4.093.414.926 1.388 1.774 2.835 1.904 1.032.078 2.64.287 4.504.378 2.635.131 4.365 1.489 5.194 2.481.83.989 1.944 3.067 1.944 7.606s-1.184 7.783-2.36 8.952c-1.174 1.199-2.899 1.721-4.222 1.948-1.524.276-4.02.276-4.02.276z"/><path d="m277.869 142.945h-5.674v26.701s.137 2.435.272 3.286c.143.86 1.392 2.91 4.644 2.91l5.886-.127v-3.426s-1.603.12-2.559.12c-.975 0-2.16-.071-2.359-1.724-.211-1.633-.211-3.607-.211-3.607v-15.724h6.409v-3.425h-6.409z"/><path d="m332.666 147.929h5.681v27.916h-5.681z"/><path d="m356.293 147.699c3.863 0 6.86.869 8.472 2.171 1.625 1.308 3.617 4.053 3.617 12.016s-1.992 10.704-3.617 12.026c-1.611 1.3-4.608 2.168-8.472 2.168-3.871 0-6.86-.868-8.477-2.168-1.616-1.322-3.613-4.063-3.613-12.026 0-7.96 1.997-10.704 3.613-12.016 1.616-1.3 4.606-2.171 8.477-2.171zm-3.886 5.353c-.784.958-1.733 2.988-1.733 8.833 0 5.861.949 7.874 1.733 8.831.771.954 2.204 1.604 4.062 1.604 1.867 0 3.292-.647 4.084-1.604.776-.954 1.731-2.97 1.731-8.831 0-5.843-.953-7.872-1.731-8.833-.792-.954-2.219-1.589-4.084-1.589-1.858 0-3.292.635-4.062 1.589z"/><path d="m380.152 151.861 5.562-.238c1.466 0 3.172.395 3.998 1.44.78.996 1.268 2.176 1.268 4.083v18.655h5.684v-19.119c0-3.619-1.11-5.711-2.78-7.032-2.385-1.893-6.645-1.724-6.645-1.724l-12.732.243v27.629h5.645z"/><path d="m321.375 142.945h-5.687v26.701s.134 2.435.275 3.286c.139.86 1.379 2.91 4.637 2.91l5.89-.127v-3.426s-1.597.12-2.565.12c-.96 0-2.148-.071-2.353-1.724-.199-1.633-.199-3.607-.199-3.607v-15.724h6.395v-3.425h-6.394v-4.984z"/><path d="m207.627 157.15c0-1.909-.487-3.088-1.264-4.083-.832-1.046-2.547-1.439-4.004-1.439l-7.492.236v-3.689l9.019-.242s4.265-.17 6.65 1.724c1.657 1.317 2.774 3.413 2.774 7.031v18.852l-10.888.234s-4.934.025-7.409-.989c-2.424-.985-3.744-3.689-3.744-7.431 0-3.614 1.114-5.727 2.775-7.047 2.387-1.887 6.641-1.704 6.641-1.704h3.48v3.226h-1.951c-1.456 0-2.958.267-3.786 1.308-.787.999-1.202 1.851-1.202 3.757 0 2.5.487 3.621 1.663 4.473 1.039.756 2.901.921 4.985.921l3.753-.233z"/><path d="m303.387 157.15c0-1.909-.48-3.088-1.258-4.083-.839-1.046-2.549-1.439-4.002-1.439l-7.485.236v-3.689l9.001-.242s4.268-.17 6.652 1.724c1.663 1.317 2.767 3.413 2.767 7.031v18.852l-10.872.234s-4.936.025-7.422-.989c-2.413-.985-3.74-3.689-3.74-7.431 0-3.614 1.12-5.727 2.772-7.047 2.388-1.887 6.655-1.704 6.655-1.704h3.469v3.226h-1.951c-1.446 0-2.964.267-3.789 1.308-.776.999-1.201 1.851-1.201 3.757 0 2.5.499 3.621 1.664 4.473 1.038.756 2.909.921 4.988.921l3.752-.233z"/><path d="m447.608 144.157c.072 4.194-.133 6.401-1.542 8.5-1.243 1.844-3.702 3.525-9.139 3.525l-6.745-.2c-1.067.02-3.817.332-5.122 1.727-1.117 1.207-1.205 2.11-1.317 5.32v9.415h22.924v4.611h-25.06l-1.204-.008c-1.703 0-3.377-1.155-3.377-3.468v-7.023c.119-8.204.706-9.38 2.488-11.533 1.236-1.487 4.14-3.152 7.662-3.329.695-.031 1.995-.12 3.825-.07 1.333.059 2.666.097 3.25.108 3.124.032 4.26-.544 5.115-1.663.975-1.257 1.499-2.746 1.499-5.181 0-2.282-.466-4.433-1.337-5.431-1.052-1.156-2.061-1.928-4.992-1.928-7.416-.02-16.068.177-16.068.177v-4.356s8.457-.36 17.081-.487c5.37-.092 8.331 1.335 9.837 3.3 1.591 2.044 2.151 3.98 2.222 7.994z"/><path d="m332.666 139.452h5.681v5.065h-5.681z"/></g></svg>