<svg clip-rule="evenodd" fill-rule="evenodd" stroke-linejoin="round" stroke-miterlimit="2" viewBox="0 0 600 98" xmlns="http://www.w3.org/2000/svg"><g fill="#fff"><path d="m44.401.083v85.541l19.369 6.137v-71.725c0-3.38 1.507-5.625 3.923-4.852 3.16.876 3.774 3.989 3.774 7.332v28.645c12.056 5.835 21.548-.003 21.548-15.4 0-15.732-5.564-22.741-21.939-28.376-6.458-2.15-18.428-5.779-26.675-7.302" fill-rule="nonzero"/><path d="m67.453 79.255 31.108-11.072c3.519-1.304 4.057-3.076 1.208-4.008-2.892-.948-8.056-.677-11.612.6l-20.704 7.304v-11.654l1.186-.391s5.993-2.123 14.422-3.038c8.413-.922 18.73.121 26.839 3.177 9.135 2.902 10.159 7.135 7.848 10.08-2.345 2.916-8.03 5.024-8.03 5.024l-42.265 15.183z"/><path d="m8.913 78.077c-9.366-2.609-10.928-8.122-6.655-11.307 3.941-2.908 10.653-5.097 10.653-5.097l27.745-9.893v11.259l-19.947 7.15c-3.534 1.264-4.064 3.043-1.217 3.973 2.896.968 8.037.708 11.572-.597l9.592-3.458v10.051c-.618.104-1.306.209-1.933.316-9.563 1.587-19.751.935-29.81-2.397z"/><path d="m242.69 35.669-.109.164 14.06 41.173c.023.092.023.235-.007.325l-7.916 20.386c-.034.096.01.168.104.168h8.243c.107-.003.203-.069.243-.168l24.681-61.884c.035-.099-.009-.164-.106-.164h-8.995c-.102.004-.193.069-.23.164l-10.449 27.056h-.117l-9.226-27.055c-.021-.1-.127-.165-.221-.165z"/><path d="m427 35.669h-9.475c-.093.001-.17.076-.173.169v41.553l.173.17h9.475.003c.093 0 .17-.076.172-.17v-41.553c0-.001 0-.002 0-.002 0-.092-.076-.168-.168-.168-.002 0-.005 0-.007.001z"/><path d="m411.33 35.669h-10.232l-.069-.064v-6.893l-.156-.169h-9.496c-.094 0-.172.075-.175.169v36.301c0 7.271 4.525 12.548 10.761 12.548h6.786c.092 0 .167-.076.167-.167 0-.001 0-.002 0-.003v-5.663c0-.093-.066-.18-.167-.18h-4.166c-1.071-.017-3.554-.071-3.554-5.428v-24.438l.057-.055c3.127.016 10.244 0 10.244 0l.169-.156v-5.633c-.003-.092-.077-.166-.169-.169z"/><path d="m167.385 22.532-23.39-.011c-.092-.001-.17.073-.174.165v54.705c0 .088.078.17.174.17h9.48l.166-.17.011-48.767.056-.081 10.855-.02c3.952 0 6.123 3.982 6.123 11.2 0 7.221-2.171 11.212-6.123 11.212l-6.533-.007c-.098 0-.164.075-.164.168v5.676c0 .111.066.178.164.178h9.355c3.301 0 6.533-1.53 8.866-4.158 2.763-3.119 4.218-7.623 4.218-13.02 0-10.458-5.108-17.24-13.084-17.24z"/><path d="m195.973 22.521h-9.486c-.107 0-.185.077-.185.165v54.705c0 .089.078.17.185.17h9.486l.174-.17v-54.705z"/><path d="m345.15 35.669h-10.29l-.054-.064v-6.893c0-.092-.07-.169-.165-.169h-9.477c-.096 0-.18.077-.18.169v36.301c0 7.271 4.532 12.548 10.774 12.548h6.787c.097 0 .172-.082.172-.17v-5.663c0-.093-.075-.18-.172-.18h-4.167c-1.068-.017-3.571-.071-3.581-5.428v-24.438l.057-.055c3.153.016 10.296 0 10.296 0l.168-.156v-5.633c0-.092-.075-.168-.168-.169z"/><path d="m492.563 35.669h-16.912c-.092.001-.167.077-.167.169l-.005 41.553.159.17h9.493l.16-.17-.013-35.674.066-.069 7.211-.005c1.95 0 4.089.315 5.458 2.569 1.252 2.038 1.819 5.62 1.819 11.242.008.243-.007 21.937-.007 21.937 0 .088.075.17.169.17h9.452c.102 0 .178-.082.178-.17v-20.839c0-9.766-1.951-20.883-17.061-20.883z"/><path d="m237.342 35.837c0-.097-.086-.169-.179-.169h-16.892c-15.147 0-17.083 11.118-17.083 20.889l.012 8.451c0 7.272 4.522 12.552 10.74 12.552h9.216l.167-.169v-5.67c0-.092-.079-.174-.167-.174l-6.583.011c-1.516-.031-3.559-.673-3.559-5.887v-9.124c-.007-6.063.558-9.939 1.817-12.145 1.363-2.433 3.51-2.76 5.44-2.76h7.2l.061.086-.009 35.663c0 .087.073.169.174.169h9.468c.094 0 .177-.082.177-.169z"/><path d="m305.575 45.414-4.671-.356c-3.503-.302-6.108-2.241-6.108-7.981 0-6.702 3.006-8.535 7.018-8.535h12.929l.171-.167v-5.688l-.171-.164h-.271l-14.006.003c-8.824 0-15.098 5.183-15.098 15.511v.449c0 8.15 5.014 14.032 12.488 14.604l4.649.344c3.546.269 5.755 3.44 5.755 8.253v1.353c0 3.009-.753 8.514-7.205 8.514h-13.433c-.094.002-.17.08-.169.174v5.663l.169.169h16.678c5.138 0 13.743-2.079 13.743-16.066 0-5.067-1.151-9.061-3.484-11.948-1.989-2.479-4.936-3.82-8.984-4.131z"/><path d="m383.258 35.837c0-.092-.076-.169-.169-.169h-16.93c-15.114 0-17.07 11.118-17.07 20.889l.012 8.451c0 7.272 4.518 12.552 10.768 12.552h9.191l.171-.169v-5.67c-.001-.094-.077-.171-.171-.174l-6.587.011c-1.51-.031-3.534-.673-3.54-5.887v-9.124c0-6.063.571-9.939 1.8-12.145 1.365-2.433 3.525-2.76 5.423-2.76h7.233l.071.086-.017 35.663c0 .087.078.169.172.169h9.482c.093 0 .162-.082.162-.169z"/><path d="m451.342 35.669c-15.828 0-17.852 11.17-17.852 20.938 0 9.778 2.024 20.985 17.852 20.985 15.831 0 17.85-11.207 17.85-20.985 0-9.768-2.018-20.938-17.85-20.938zm6.009 33.127c-1.492 2.457-3.86 2.785-6.009 2.785-2.127 0-4.502-.328-6.01-2.784-1.359-2.211-1.988-6.084-1.988-12.191v-.048c0-7.208.886-11.303 2.87-13.253 1.187-1.183 2.725-1.663 5.128-1.663 2.439 0 3.962.48 5.148 1.663 1.966 1.95 2.855 6.063 2.855 13.301 0 6.115-.632 9.991-1.994 12.19z"/><path d="m427 22.521h-9.475l-.173.165v7.944c0 .097.084.168.173.168h9.475c.103 0 .175-.071.175-.168v-7.944c0-.088-.072-.165-.175-.165z"/><path d="m536.444 70.994h36.924c.21 0 .352.142.352.286v5.8c0 .286.217.429.427.429h12.324c.218 0 .426-.143.426-.429v-5.657c0-.215.218-.429.427-.429h12.248c.286 0 .428-.216.428-.429v-5.729c0-.216-.142-.429-.428-.429h-12.248c-.209 0-.427-.216-.427-.429v-41.313c0-3.371-1.252-5.518-3.359-6.23h-3.566c-1.111.285-2.319.796-3.615 1.575l-42.192 45.466c-2.458 2.706-3.429 3.793-2.716 5.297.57 1.289 1.785 2.221 4.995 2.221zm36.731-36.752c-.164-.001-.329.056-.453.154 0 0-25.597 29.008-25.597 29.008-.274.163-.422.325-.444.519-.007.062-.002.128.017.198.017.037.044.074.084.109.114.099.33.177.696.177h25.89c.21 0 .428-.213.428-.429v-29.009c0-.517-.307-.726-.621-.727z"/></g></svg>