<svg clip-rule="evenodd" fill-rule="evenodd" stroke-linejoin="round" stroke-miterlimit="2" viewBox="0 0 600 308" xmlns="http://www.w3.org/2000/svg" xmlns:xlink="http://www.w3.org/1999/xlink"><clipPath id="a"><path clip-rule="nonzero" d="m182.8 307.36v-125.476h9.208l-18.416-12.548h36.832l9.207 6.274v-6.274h9.208c2.494 0 4.652 1.242 6.475 3.725 1.822 2.484 2.733 5.425 2.733 8.823v100.381l-18.416-12.548v-37.643h-9.207l-9.208-6.273v69.012zm145.599-114.54c6.165.473 12.304.935 18.415 1.385v100.608l-18.415 12.547v-81.559l9.207-6.274h-9.207zm45.175 3.291.095.007c6.07.418 12.176.808 18.321 1.17v28.513l36.831-25.096v34.661c-.794.627-1.543 1.357-2.245 2.193-2.62 3.119-3.821 6.468-3.821 9.962 0 4.002 1.158 7.674 3.493 11.009.784 1.12 1.641 2.188 2.573 3.204v7.983c0 3.529-.911 6.536-2.733 9.019-1.823 2.353-3.981 3.529-6.475 3.529h-18.415l-9.208-6.274v18.822l-18.416 12.547v-50.19h18.416v12.547h18.416v-43.916l-36.832 25.095zm-99.732-26.775h18.589c2.493 0 4.652 1.242 6.474 3.725 1.822 2.484 2.733 5.425 2.733 8.823v25.095l-18.415 12.548h9.208c2.493 0 4.652 1.241 6.474 3.725 1.822 2.483 2.733 5.424 2.733 8.822v37.643c0 3.529-.911 6.536-2.733 9.019-1.822 2.353-3.981 3.529-6.474 3.529h-9.208v-50.191h-18.416v62.739l-18.415 12.547v-75.286h9.207c-2.589 0-4.795-1.176-6.618-3.529-1.726-2.483-2.589-5.489-2.589-9.018v-37.643h9.207l-18.415-12.548h14.163c2.129 2.685 5.585 4.444 10.752 4.444 2.957 0 5.53-.675 7.747-1.907 1.4-.778 2.731-1.624 3.996-2.537zm-54.211 50.191v-37.643h-18.415v37.643zm63.592 0v-37.643h-18.416v37.643zm-34.91-57.827-2.292 1.562v-81.56l9.208-6.274h-9.208v-37.643h-9.208l-18.415-12.547h127.182l9.208 6.273v-6.273h9.208c2.494 0 4.652 1.241 6.474 3.725 1.823 2.483 2.734 5.424 2.734 8.822v100.381l-18.416-12.547v-37.643h-9.208l-9.208-6.274v56.237c-.814-.147-1.984-.409-3.512-.775-1.968-.473-3.935-.905-5.902-1.299-1.836-.367-3.561-.734-5.177-1.101-1.578-.359-2.78-.559-3.598-.653l-.226-.046v-96.28h9.208l-17.553-11.959v108.009c-.499.03-1.04.097-1.621.213-2.333.064-4.34 1.431-5.32 3.4h-11.474v-99.663h9.208l-17.553-11.959v11.959h-18.415v99.663h-.976c-3.378 0-6.158 1.02-8.409 2.849-1.924 1.563-3.432 3.483-4.514 5.768-.903 1.905-1.556 3.911-1.957 6.017-.381 2.001-.563 3.86-.563 5.574 0 1.448.102 2.796.295 4.044zm-84.299 1.562v-75.286h9.208c-2.59 0-4.796-1.177-6.618-3.529-1.727-2.484-2.59-5.49-2.59-9.019v-37.643h9.208l-18.416-12.547h55.247c2.494 0 4.652 1.241 6.474 3.725 1.823 2.483 2.734 5.424 2.734 8.822v25.096l-18.416 12.547h9.208c2.494 0 4.652 1.242 6.474 3.725 1.823 2.484 2.734 5.424 2.734 8.823v37.643c0 3.529-.911 6.535-2.734 9.018-1.822 2.353-3.98 3.529-6.474 3.529h-9.208v-50.19h-18.415v62.738zm-63.591-25.096h-26.761v-94.107l-18.415-12.548v94.108h-9.208l18.416 12.547h-27.624v-94.107l-18.415-12.548v50.191l-9.208 6.274h9.208v50.19l-18.416 12.548v-144.298l36.831 25.095v-25.095l55.247 37.643v81.56h-9.208l17.553 11.959v-99.793h9.207l-18.415-12.547h36.831l9.208 6.273v-6.273h9.208c2.493 0 4.651 1.241 6.474 3.725 1.822 2.483 2.733 5.424 2.733 8.822v100.381l-18.415-12.547v-37.643h-9.208l-9.208-6.274v69.012l-18.415 12.548zm281.125 8.387v-83.672l18.416 12.547v50.191h18.415v-12.548h12.325c-.451 2.107-.687 4.41-.687 6.915 0 4.988 1.054 8.899 2.82 11.809.492.81 1.03 1.571 1.613 2.283-.124.189-.254.376-.388.559-1.823 2.353-3.981 3.529-6.475 3.529h-18.415l-9.208-6.273v16.441c-2.773-.031-5.299-.197-7.578-.505-2.853-.386-5.706-.733-8.559-1.041-.749-.081-1.509-.16-2.279-.235zm-73.544-12.505.163-.004c-.049 0-.104-.006-.163.004zm-170.75-58.62v-37.643h-18.416v37.643zm63.591 0v-37.643h-18.415v37.643zm153.943 0v-37.643h-18.416v37.643zm26.76-12.547v-62.739l18.416 12.548v50.191z"/></clipPath><g fill="#fff" fill-rule="nonzero"><g clip-path="url(#a)"><path d="m0 150.714v-144.298l36.831 25.095v-25.095l55.247 37.643v81.56h-9.208l18.416 12.547h-27.624v-94.107l-18.415-12.548v94.108h-9.208l18.416 12.547h-27.624v-94.107l-18.415-12.548v50.191l-9.208 6.274h9.208v50.19l-18.416 12.548z"/><path d="m137.254 75.428v-37.643h-18.416v37.643zm-36.831 87.834v-125.477h9.207l-18.415-12.547h36.831l9.208 6.273v-6.273h9.208c2.493 0 4.651 1.241 6.474 3.725 1.822 2.483 2.733 5.424 2.733 8.822v100.381l-18.415-12.547v-37.643h-9.208l-9.208-6.274v69.012z"/><path d="m200.845 75.428v-37.643h-18.415v37.643zm-36.831 87.834v-75.286h9.208c-2.59 0-4.796-1.177-6.618-3.529-1.727-2.484-2.59-5.49-2.59-9.019v-37.643h9.208l-18.416-12.547h55.247c2.494 0 4.652 1.241 6.474 3.725 1.823 2.483 2.734 5.424 2.734 8.822v25.096l-18.416 12.547h9.208c2.494 0 4.652 1.242 6.474 3.725 1.823 2.484 2.734 5.424 2.734 8.823v37.643c0 3.529-.911 6.535-2.734 9.018-1.822 2.353-3.98 3.529-6.474 3.529h-9.208v-50.19h-18.415v62.738z"/><path d="m246.021 163.262v-81.56l9.208-6.274h-9.208v-37.643h-9.208l-18.415-12.547h64.454v12.547h-18.415v112.929z"/><path d="m291.197 138.166v-100.381h9.208l-18.416-12.547h27.623v112.928z"/><path d="m354.788 75.428v-37.643h-18.416v37.643zm-36.831 87.834v-125.477h9.208l-18.416-12.547h36.831l9.208 6.273v-6.273h9.208c2.494 0 4.652 1.241 6.474 3.725 1.823 2.483 2.734 5.424 2.734 8.822v100.381l-18.416-12.547v-37.643h-9.208l-9.208-6.274v69.012z"/><path d="m381.548 163.262v-100.381l18.416 12.547v50.191h18.415v-12.548h18.416v12.548c0 3.529-.911 6.535-2.733 9.018-1.823 2.353-3.981 3.529-6.475 3.529h-18.415l-9.208-6.273v18.821zm0-100.381v-62.739l18.416 12.548v50.191z"/><path d="m219.631 219.527v-37.643h-18.415v37.643zm-36.831 87.833v-125.476h9.208l-18.416-12.548h36.832l9.207 6.274v-6.274h9.208c2.494 0 4.652 1.242 6.475 3.725 1.822 2.484 2.733 5.425 2.733 8.823v100.381l-18.416-12.548v-37.643h-9.207l-9.208-6.273v69.012z"/><path d="m283.223 219.527v-37.643h-18.416v37.643zm-36.831 87.833v-75.286h9.207c-2.589 0-4.795-1.176-6.618-3.529-1.726-2.483-2.589-5.489-2.589-9.018v-37.643h9.207l-18.415-12.548h55.247c2.493 0 4.652 1.242 6.474 3.725 1.822 2.484 2.733 5.425 2.733 8.823v25.095l-18.415 12.548h9.208c2.493 0 4.652 1.241 6.474 3.725 1.822 2.483 2.733 5.424 2.733 8.822v37.643c0 3.529-.911 6.536-2.733 9.019-1.822 2.353-3.981 3.529-6.474 3.529h-9.208v-50.191h-18.416v62.739z"/><path d="m328.399 307.36v-81.559l9.207-6.274h-9.207v-37.643h-9.208l-18.416-12.548h64.455v12.548h-18.416v112.929z"/><path d="m373.574 307.36v-50.19h18.416v12.547h18.416v-43.916l-36.832 25.095v-69.012c0-3.398.864-6.339 2.59-8.823 1.822-2.483 4.029-3.725 6.618-3.725h18.416l9.208 6.274v-18.821l18.415-12.548v50.19h-18.415v-12.547h-18.416v43.917l36.831-25.096v69.012c0 3.529-.911 6.536-2.733 9.019-1.823 2.353-3.981 3.529-6.475 3.529h-18.415l-9.208-6.274v18.822z"/></g><path d="m428.894 247.521c0 2.723.794 5.219 2.383 7.489 1.588 2.269 3.555 4.274 5.9 6.013 2.345 1.74 4.917 3.064 7.716 3.972 2.798.907 5.332 1.361 7.602 1.361 2.572 0 4.69-.454 6.354-1.361 1.664-.908 2.572-2.875 2.723-5.901.151 0 .265-.037.34-.113.076-.076.189-.113.341-.113.908 0 1.74.302 2.496.907l4.539 4.085c.756.605 1.588.983 2.496 1.135 4.539.756 9.153 1.172 13.843 1.248 4.69.075 9.228.113 13.616.113h13.388c5.296 0 10.25-.567 14.864-1.702 4.615-1.134 8.548-3.139 11.801-6.013 3.253-2.875 4.879-7.187 4.879-12.935 0-4.69-1.362-8.889-4.085-12.595-2.723-3.707-6.051-6.997-9.985-9.872-3.933-2.874-8.056-5.446-12.368-7.715-4.311-2.27-8.131-4.388-11.46-6.354-.302-.303-.907-.719-1.815-1.249-.908-.529-1.589-1.096-2.042-1.701l2.95-2.27c0-.756.113-2.42.34-4.992s.416-4.236.567-4.993c.152-.454.303-1.134.454-2.042.152-.908.379-1.816.681-2.723.303-.908.681-1.702 1.135-2.383s1.059-1.021 1.815-1.021h1.135c.151 0 .567.151 1.248.454l4.539 2.042c.68.303 1.172.454 1.475.454 2.572 1.21 5.257 2.042 8.056 2.496s5.635.681 8.51.681c1.059 0 2.761-.189 5.106-.567 2.345-.379 4.689-.946 7.034-1.702 2.345-.757 4.426-1.665 6.241-2.724s2.723-2.269 2.723-3.631c0-1.512-.529-2.382-1.588-2.609s-1.967-.946-2.723-2.156c.605-.303 1.928-1.059 3.971-2.269 2.042-1.211 3.442-2.421 4.198-3.631l.227-.454c0-1.21-.416-1.967-1.248-2.269-.832-.303-1.626-.454-2.383-.454h-1.362c-2.723 0-5.257.529-7.602 1.588s-4.69 2.269-7.035 3.631-4.727 2.572-7.148 3.631-4.992 1.588-7.716 1.588c-1.815 0-3.366-.075-4.652-.226-1.286-.152-2.912-.833-4.879-2.043v-.908c1.059-1.664 2.307-2.987 3.745-3.971 1.437-.983 2.95-1.967 4.538-2.95 1.589-.983 3.177-2.194 4.766-3.631 1.588-1.437 3.063-3.366 4.425-5.787 1.059-1.966 2.269-4.992 3.631-9.077s2.874-8.169 4.539-12.254c1.664-4.085 3.593-7.678 5.786-10.779 2.194-3.102 4.804-4.652 7.829-4.652 2.118 0 4.161.226 6.128.68 1.966.454 4.084.681 6.354.681 1.815 0 4.5-.567 8.056-1.702 3.555-1.134 7.11-2.647 10.665-4.538 3.556-1.892 6.619-4.01 9.191-6.355 2.572-2.344 3.858-4.803 3.858-7.375 0-3.631-1.362-6.505-4.085-8.623-.756-.605-2.004-1.551-3.744-2.837s-3.555-2.61-5.446-3.971c-1.892-1.362-3.707-2.648-5.447-3.858s-2.988-2.042-3.744-2.496c-.605-.303-1.324-.757-2.156-1.362s-1.664-1.172-2.496-1.702l-3.291-2.156c-.151 0-.87-.037-2.156-.113s-2.307-.114-3.063-.114l-4.993.227c-1.21 1.059-2.269 2.345-3.177 3.858-.907 1.513-2.193 2.27-3.858 2.27-1.361 0-3.441-.341-6.24-1.022-2.799-.68-5.598-1.626-8.397-2.836-2.798-1.211-5.37-2.61-7.715-4.199-2.345-1.588-3.745-3.29-4.198-5.105.605-1.816 1.134-3.329 1.588-4.539s.756-2.345.908-3.404c.151-1.059.265-2.118.34-3.177.076-1.059.114-2.345.114-3.858 0-7.262-1.778-13.389-5.333-18.381-3.556-4.993-9.04-7.489-16.453-7.489-2.723 0-5.484.416-8.283 1.248s-5.37 2.08-7.715 3.744c-2.345 1.665-4.274 3.707-5.787 6.128-1.513 2.42-2.269 5.143-2.269 8.169 0 1.816.453 3.631 1.361 5.446l2.837 5.674c.983 1.966 1.929 4.009 2.836 6.127.908 2.118 1.362 4.312 1.362 6.581v2.042c0 .757-.076 1.286-.227 1.589-1.513.907-4.312 2.496-8.396 4.765-4.085 2.27-8.397 4.652-12.935 7.149-4.539 2.496-8.851 4.841-12.936 7.034-4.084 2.194-6.883 3.745-8.396 4.653-4.085 2.269-7.148 4.879-9.191 7.829-2.042 2.95-3.063 6.845-3.063 11.687 0 3.631.643 6.505 1.929 8.623s3.025 3.744 5.219 4.879 4.69 1.967 7.489 2.496c2.799.53 5.786.87 8.964 1.021v1.589c0 .454-.038.908-.114 1.362-.076.453-.416.832-1.021 1.134-1.664.454-3.518 1.059-5.56 1.816-2.042.756-4.085 1.475-6.127 2.156-2.042.68-4.009 1.323-5.9 1.928-1.891.606-3.518.984-4.879 1.135-.454.151-1.513.341-3.177.567-1.665.227-3.442.454-5.333.681s-3.707.416-5.447.568c-1.739.151-2.836.302-3.29.453-.303 0-1.059.19-2.269.568-1.211.378-2.497.794-3.858 1.248-1.362.454-2.61.908-3.745 1.361-1.134.454-1.853.681-2.155.681-.152 0-.454.038-.908.114-.454.075-.984.113-1.589.113h-3.404c-3.479 0-6.618-.189-9.417-.567s-5.598-.719-8.397-1.021c-2.799-.303-5.749-.568-8.85-.795s-6.543-.189-10.325.114l-5.56-1.589c-2.648-.756-5.484-1.588-8.51-2.496s-5.9-1.74-8.624-2.496c-2.723-.757-4.614-1.286-5.673-1.589l-9.871-2.155c-1.891-.379-3.669-.757-5.333-1.135s-2.723-.567-3.177-.567l-.568-.114c-.378-.076-.794-.113-1.248-.113h-5.219c-.303 0-.643.037-1.021.113-.379.076-.719.114-1.021.114 0 .151-.152.453-.454.907-.303.454-.454.832-.454 1.135-.303.151-.568.416-.794.794l-.341.568h-42.663c-1.815 0-3.328.491-4.539 1.475-1.21.983-2.155 2.193-2.836 3.63-.681 1.438-1.173 2.951-1.475 4.539-.303 1.589-.454 3.064-.454 4.425 0 3.026.529 5.447 1.588 7.262s3.177 2.723 6.354 2.723c1.816 0 3.404-.378 4.766-1.134 1.362-.757 2.648-1.589 3.858-2.497 1.21-.907 2.496-1.74 3.858-2.496 1.361-.756 2.874-1.135 4.538-1.135 1.362 0 3.48.227 6.354.681 2.875.454 5.825 1.097 8.851 1.929 3.025.832 5.749 1.891 8.169 3.177 2.421 1.286 4.009 2.761 4.766 4.425l4.992 14.297 2.043.454c1.361.302 2.345.454 2.95.454 19.213 1.513 38.162 2.912 56.846 4.198s37.708 2.307 57.073 3.063c2.118.454 3.972.795 5.56 1.022 1.589.227 3.026.643 4.312 1.248s2.458 1.399 3.517 2.383c1.059.983 2.043 2.458 2.95 4.425l5.9 14.296c2.118 4.236 5.258 7.64 9.418 10.212 4.161 2.572 8.207 4.917 12.141 7.035-1.059 1.513-2.95 2.723-5.673 3.631-2.724.908-4.917 1.362-6.581 1.362h-25.417c-2.42 0-4.425.945-6.013 2.836-1.589 1.891-2.383 3.896-2.383 6.014z"/></g></svg>