<?xml version="1.0" encoding="UTF-8" standalone="no"?><!DOCTYPE svg PUBLIC "-//W3C//DTD SVG 1.1//EN" "http://www.w3.org/Graphics/SVG/1.1/DTD/svg11.dtd"><svg width="100%" height="100%" viewBox="0 0 600 142" version="1.1" xmlns="http://www.w3.org/2000/svg" xmlns:xlink="http://www.w3.org/1999/xlink" xml:space="preserve" xmlns:serif="http://www.serif.com/" style="fill-rule:evenodd;clip-rule:evenodd;stroke-linejoin:round;stroke-miterlimit:2;"><g id="playlist_4player_outline"><path d="M127.402,127.912l-0,-13.865l-0,13.865Zm-0,-13.865l-0,-14.219l-0,14.219Zm-0,-14.219l-0,-14.148l-0,14.148Zm-0,28.084l-0,14.006l-14.148,0l-0,-14.006l14.148,-0Zm-14.148,-0l-0,-13.865l14.148,-0l-0,13.865l-14.148,-0Zm-0,-13.865l-0,-14.219l14.148,0l-0,14.219l-14.148,-0Zm-0,-14.219l-0,-14.148l14.148,0l-0,14.148l-14.148,0Zm-0,-14.148l-0,-14.218l14.148,-0l-0,14.218l-14.148,0Zm-0,-14.218l-0,-14.148l14.148,-0l-0,14.148l-14.148,-0Zm-0,-14.148l-0,-14.219l14.148,0l-0,14.219l-14.148,-0Zm-0,-14.219l-0,-14.218l14.148,-0l-0,14.218l-14.148,0Zm-0,-14.218l-0,-13.865l14.148,-0l-0,13.865l-14.148,-0Zm-14.219,-13.865l0,-14.219l14.219,0l-0,14.219l-14.219,-0Zm14.219,112.9l-0,14.006l-14.219,0l0,-14.006l14.219,-0Zm-14.219,-0l0,-13.865l14.219,-0l-0,13.865l-14.219,-0Zm0,-13.865l0,-14.219l14.219,0l-0,14.219l-14.219,-0Zm0,-28.367l0,-14.218l14.219,-0l-0,14.218l-14.219,0Zm0,-14.218l0,-14.148l14.219,-0l-0,14.148l-14.219,-0Zm0,-14.148l0,-14.219l14.219,0l-0,14.219l-14.219,-0Zm0,-14.219l0,-14.218l14.219,-0l-0,14.218l-14.219,0Zm0,-14.218l0,-13.865l14.219,-0l-0,13.865l-14.219,-0Zm-14.148,-13.865l0,-14.219l14.148,0l0,14.219l-14.148,-0Zm14.148,112.9l0,14.006l-14.148,0l0,-14.006l14.148,-0Zm-14.148,-0l0,-13.865l14.148,-0l0,13.865l-14.148,-0Zm-14.218,-112.9l-0,-14.219l14.218,0l0,14.219l-14.218,-0Zm14.218,112.9l0,14.006l-14.218,0l-0,-14.006l14.218,-0Zm-14.218,-0l-0,-13.865l14.218,-0l0,13.865l-14.218,-0Zm-14.219,-112.9l0,-14.219l14.219,0l-0,14.219l-14.219,-0Zm0,112.9l0,-13.865l14.219,-0l-0,13.865l-14.219,-0Zm0,-13.865l0,-14.219l14.219,0l-0,14.219l-14.219,-0Zm0,-28.367l0,-14.218l14.219,-0l-0,14.218l-14.219,0Zm0,-14.218l0,-14.148l14.219,-0l-0,14.148l-14.219,-0Zm0,-42.585l0,-13.865l14.219,-0l-0,13.865l-14.219,-0Zm-13.865,99.035l0,-13.865l13.865,-0l0,13.865l-13.865,-0Zm0,-13.865l0,-14.219l13.865,0l0,14.219l-13.865,-0Zm0,-28.367l0,-14.218l13.865,-0l0,14.218l-13.865,0Zm0,-42.585l0,-14.218l13.865,-0l0,14.218l-13.865,0Zm0,-14.218l0,-13.865l13.865,-0l0,13.865l-13.865,-0Zm-14.218,99.035l-0,-13.865l14.218,-0l0,13.865l-14.218,-0Zm-0,-13.865l-0,-14.219l14.218,0l0,14.219l-14.218,-0Zm-0,-56.733l-0,-14.219l14.218,0l0,14.219l-14.218,-0Zm-0,-14.219l-0,-14.218l14.218,-0l0,14.218l-14.218,0Zm-14.148,84.817l-0,-13.865l14.148,-0l-0,13.865l-14.148,-0Zm-0,-13.865l-0,-14.219l14.148,0l-0,14.219l-14.148,-0Zm-0,-42.585l-0,-14.148l14.148,-0l-0,14.148l-14.148,-0Zm-0,-14.148l-0,-14.219l14.148,0l-0,14.219l-14.148,-0Zm-14.219,56.733l0,-14.219l14.219,0l-0,14.219l-14.219,-0Zm0,-14.219l0,-14.148l14.219,0l-0,14.148l-14.219,0Zm0,-14.148l0,-14.218l14.219,-0l-0,14.218l-14.219,0Zm0,-14.218l0,-14.148l14.219,-0l-0,14.148l-14.219,-0Z" style="fill:#fff;fill-rule:nonzero;"/><g id="playlist_2player_outline"><g><path d="M207.307,101.248l0,-8.923l8.789,-0l0,8.923l-8.789,-0Zm0,-8.923l0,-8.967l8.789,-0l0,8.967l-8.789,-0Zm0,-8.967l0,-8.923l8.789,-0l0,8.923l-8.789,-0Zm0,-8.923l0,-8.968l8.789,0l0,8.968l-8.789,-0Zm0,-8.968l0,-8.967l8.789,-0l0,8.967l-8.789,0Zm-8.923,44.748l0,-8.967l8.923,-0l0,8.967l-8.923,0Zm0,-8.967l0,-8.923l8.923,-0l0,8.923l-8.923,-0Zm0,-8.923l0,-8.967l8.923,-0l0,8.967l-8.923,-0Zm0,-8.967l0,-8.923l8.923,-0l0,8.923l-8.923,-0Zm0,-8.923l0,-8.968l8.923,0l0,8.968l-8.923,-0Zm0,-8.968l0,-8.967l8.923,-0l0,8.967l-8.923,0Zm0,-8.967l0,-8.744l8.923,-0l0,8.744l-8.923,-0Zm-8.967,-8.744l-0,-8.968l8.967,0l0,8.968l-8.967,-0Zm-0,62.459l-0,-8.967l8.967,-0l0,8.967l-8.967,0Zm-0,-8.967l-0,-8.923l8.967,-0l0,8.923l-8.967,-0Zm-0,-8.923l-0,-8.967l8.967,-0l0,8.967l-8.967,-0Zm-0,-35.825l-0,-8.744l8.967,-0l0,8.744l-8.967,-0Zm-8.923,-8.744l0,-8.968l8.923,0l-0,8.968l-8.923,-0Zm0,62.459l0,-8.967l8.923,-0l-0,8.967l-8.923,0Zm0,-8.967l0,-8.923l8.923,-0l-0,8.923l-8.923,-0Zm-8.967,-53.492l-0,-8.968l8.967,0l0,8.968l-8.967,-0Zm-0,62.459l-0,-8.967l8.967,-0l0,8.967l-8.967,0Zm-0,-8.967l-0,-8.923l8.967,-0l0,8.923l-8.967,-0Zm-0,-17.89l-0,-8.923l8.967,-0l0,8.923l-8.967,-0Zm-0,-8.923l-0,-8.968l8.967,0l0,8.968l-8.967,-0Zm-0,-8.968l-0,-8.967l8.967,-0l0,8.967l-8.967,0Zm-8.968,-17.711l0,-8.968l8.968,0l-0,8.968l-8.968,-0Zm8.968,71.204l-0,8.833l-8.968,0l0,-8.833l8.968,-0Zm-8.968,-0l0,-8.745l8.968,0l-0,8.745l-8.968,-0Zm0,-8.745l0,-8.967l8.968,-0l-0,8.967l-8.968,0Zm0,-8.967l0,-8.923l8.968,-0l-0,8.923l-8.968,-0Zm0,-17.89l0,-8.923l8.968,-0l-0,8.923l-8.968,-0Zm0,-8.923l0,-8.968l8.968,0l-0,8.968l-8.968,-0Zm0,-8.968l0,-8.967l8.968,-0l-0,8.967l-8.968,0Zm-8.744,-17.711l-0,-8.968l8.744,0l0,8.968l-8.744,-0Zm8.744,71.204l0,8.833l-8.744,0l-0,-8.833l8.744,-0Zm-8.744,-0l-0,-8.745l8.744,0l0,8.745l-8.744,-0Zm-0,-8.745l-0,-8.967l8.744,-0l0,8.967l-8.744,0Zm-0,-8.967l-0,-8.923l8.744,-0l0,8.923l-8.744,-0Zm-0,-17.89l-0,-8.923l8.744,-0l0,8.923l-8.744,-0Zm-0,-8.923l-0,-8.968l8.744,0l0,8.968l-8.744,-0Zm-0,-8.968l-0,-8.967l8.744,-0l0,8.967l-8.744,0Zm-8.968,-17.711l0,-8.968l8.968,0l-0,8.968l-8.968,-0Zm8.968,71.204l-0,8.833l-8.968,0l0,-8.833l8.968,-0Zm-8.968,-0l0,-8.745l8.968,0l-0,8.745l-8.968,-0Zm-8.922,-71.204l-0,-8.968l8.922,0l0,8.968l-8.922,-0Zm8.922,71.204l0,8.833l-8.922,0l-0,-8.833l8.922,-0Zm-8.922,-0l-0,-8.745l8.922,0l0,8.745l-8.922,-0Zm-8.968,-71.204l0,-8.968l8.968,0l-0,8.968l-8.968,-0Zm0,71.204l0,-8.745l8.968,0l-0,8.745l-8.968,-0Zm0,-8.745l0,-8.967l8.968,-0l-0,8.967l-8.968,0Zm0,-8.967l0,-8.923l8.968,-0l-0,8.923l-8.968,-0Zm0,-8.923l0,-8.967l8.968,-0l-0,8.967l-8.968,-0Zm0,-8.967l0,-8.923l8.968,-0l-0,8.923l-8.968,-0Zm0,-8.923l0,-8.968l8.968,0l-0,8.968l-8.968,-0Zm0,-8.968l0,-8.967l8.968,-0l-0,8.967l-8.968,0Zm0,-8.967l0,-8.744l8.968,-0l-0,8.744l-8.968,-0Z" style="fill:#fff;fill-rule:nonzero;"/><path d="M287.657,118.96l0,8.833l-8.923,0l0,-8.833l8.923,-0Zm-8.923,-0l0,-8.745l8.923,0l0,8.745l-8.923,-0Zm0,-8.745l0,-8.967l8.923,-0l0,8.967l-8.923,0Zm0,8.745l0,8.833l-8.967,0l-0,-8.833l8.967,-0Zm-8.967,-0l-0,-8.745l8.967,0l0,8.745l-8.967,-0Zm-0,-8.745l-0,-8.967l8.967,-0l0,8.967l-8.967,0Zm-0,-8.967l-0,-8.923l8.967,-0l0,8.923l-8.967,-0Zm-0,17.712l-0,8.833l-8.923,0l-0,-8.833l8.923,-0Zm-8.923,-0l-0,-8.745l8.923,0l-0,8.745l-8.923,-0Zm-0,-17.712l-0,-8.923l8.923,-0l-0,8.923l-8.923,-0Zm-0,17.712l-0,8.833l-8.967,0l-0,-8.833l8.967,-0Zm-8.967,-0l-0,-8.745l8.967,0l-0,8.745l-8.967,-0Zm-0,-17.712l-0,-8.923l8.967,-0l-0,8.923l-8.967,-0Zm-0,17.712l-0,8.833l-8.968,0l0,-8.833l8.968,-0Zm-8.968,-0l0,-8.745l8.968,0l-0,8.745l-8.968,-0Zm0,-17.712l0,-8.923l8.968,-0l-0,8.923l-8.968,-0Zm0,-8.923l0,-8.967l8.968,-0l-0,8.967l-8.968,-0Zm0,-8.967l0,-8.923l8.968,-0l-0,8.923l-8.968,-0Zm0,-8.923l0,-8.968l8.968,0l-0,8.968l-8.968,-0Zm0,-8.968l0,-8.967l8.968,-0l-0,8.967l-8.968,0Zm0,-8.967l0,-8.744l8.968,-0l-0,8.744l-8.968,-0Zm-8.744,-8.744l-0,-8.968l8.744,0l0,8.968l-8.744,-0Zm8.744,71.204l0,8.833l-8.744,0l-0,-8.833l8.744,-0Zm-8.744,-0l-0,-8.745l8.744,0l0,8.745l-8.744,-0Zm-0,-17.712l-0,-8.923l8.744,-0l0,8.923l-8.744,-0Zm-0,-8.923l-0,-8.967l8.744,-0l0,8.967l-8.744,-0Zm-0,-8.967l-0,-8.923l8.744,-0l0,8.923l-8.744,-0Zm-0,-8.923l-0,-8.968l8.744,0l0,8.968l-8.744,-0Zm-0,-8.968l-0,-8.967l8.744,-0l0,8.967l-8.744,0Zm-0,-8.967l-0,-8.744l8.744,-0l0,8.744l-8.744,-0Zm-8.968,-8.744l0,-8.968l8.968,0l-0,8.968l-8.968,-0Zm8.968,71.204l-0,8.833l-8.968,0l0,-8.833l8.968,-0Zm-8.968,-0l0,-8.745l8.968,0l-0,8.745l-8.968,-0Zm-8.922,-71.204l-0,-8.968l8.922,0l0,8.968l-8.922,-0Zm8.922,71.204l0,8.833l-8.922,0l-0,-8.833l8.922,-0Zm-8.922,-0l-0,-8.745l8.922,0l0,8.745l-8.922,-0Zm-8.968,-71.204l0,-8.968l8.968,0l-0,8.968l-8.968,-0Zm0,71.204l0,-8.745l8.968,0l-0,8.745l-8.968,-0Zm0,-8.745l0,-8.967l8.968,-0l-0,8.967l-8.968,0Zm0,-8.967l0,-8.923l8.968,-0l-0,8.923l-8.968,-0Zm0,-8.923l0,-8.967l8.968,-0l-0,8.967l-8.968,-0Zm0,-8.967l0,-8.923l8.968,-0l-0,8.923l-8.968,-0Zm0,-8.923l0,-8.968l8.968,0l-0,8.968l-8.968,-0Zm0,-8.968l0,-8.967l8.968,-0l-0,8.967l-8.968,0Zm0,-8.967l0,-8.744l8.968,-0l-0,8.744l-8.968,-0Z" style="fill:#fff;fill-rule:nonzero;"/><path d="M367.873,118.96l0,8.833l-8.789,0l0,-8.833l8.789,-0Zm-8.789,-0l0,-8.745l8.789,0l0,8.745l-8.789,-0Zm0,-8.745l0,-8.967l8.789,-0l0,8.967l-8.789,0Zm0,-8.967l0,-8.923l8.789,-0l0,8.923l-8.789,-0Zm0,-8.923l0,-8.967l8.789,-0l0,8.967l-8.789,-0Zm0,-8.967l0,-8.923l8.789,-0l0,8.923l-8.789,-0Zm0,-8.923l0,-8.968l8.789,0l0,8.968l-8.789,-0Zm0,-8.968l0,-8.967l8.789,-0l0,8.967l-8.789,0Zm0,53.493l0,8.833l-8.923,0l0,-8.833l8.923,-0Zm-8.923,-0l0,-8.745l8.923,0l0,8.745l-8.923,-0Zm0,-8.745l0,-8.967l8.923,-0l0,8.967l-8.923,0Zm0,-8.967l0,-8.923l8.923,-0l0,8.923l-8.923,-0Zm0,-8.923l0,-8.967l8.923,-0l0,8.967l-8.923,-0Zm0,-8.967l0,-8.923l8.923,-0l0,8.923l-8.923,-0Zm0,-8.923l0,-8.968l8.923,0l0,8.968l-8.923,-0Zm0,-8.968l0,-8.967l8.923,-0l0,8.967l-8.923,0Zm0,-8.967l0,-8.744l8.923,-0l0,8.744l-8.923,-0Zm-8.967,-8.744l-0,-8.968l8.967,0l0,8.968l-8.967,-0Zm8.967,71.204l0,8.833l-8.967,0l-0,-8.833l8.967,-0Zm-8.967,-0l-0,-8.745l8.967,0l0,8.745l-8.967,-0Zm-0,-62.46l-0,-8.744l8.967,-0l0,8.744l-8.967,-0Zm-8.923,-8.744l0,-8.968l8.923,0l-0,8.968l-8.923,-0Zm8.923,71.204l-0,8.833l-8.923,0l0,-8.833l8.923,-0Zm-8.923,-0l0,-8.745l8.923,0l-0,8.745l-8.923,-0Zm-8.967,-71.204l-0,-8.968l8.967,0l0,8.968l-8.967,-0Zm-0,71.204l-0,-8.745l8.967,0l0,8.745l-8.967,-0Zm-0,-8.745l-0,-8.967l8.967,-0l0,8.967l-8.967,0Zm-0,-8.967l-0,-8.923l8.967,-0l0,8.923l-8.967,-0Zm-0,-17.89l-0,-8.923l8.967,-0l0,8.923l-8.967,-0Zm-0,-8.923l-0,-8.968l8.967,0l0,8.968l-8.967,-0Zm-0,-8.968l-0,-8.967l8.967,-0l0,8.967l-8.967,0Zm-8.968,-17.711l0,-8.968l8.968,0l-0,8.968l-8.968,-0Zm8.968,71.204l-0,8.833l-8.968,0l0,-8.833l8.968,-0Zm-8.968,-0l0,-8.745l8.968,0l-0,8.745l-8.968,-0Zm0,-8.745l0,-8.967l8.968,-0l-0,8.967l-8.968,0Zm0,-8.967l0,-8.923l8.968,-0l-0,8.923l-8.968,-0Zm0,-17.89l0,-8.923l8.968,-0l-0,8.923l-8.968,-0Zm0,-8.923l0,-8.968l8.968,0l-0,8.968l-8.968,-0Zm0,-8.968l0,-8.967l8.968,-0l-0,8.967l-8.968,0Zm-8.744,-17.711l-0,-8.968l8.744,0l0,8.968l-8.744,-0Zm8.744,71.204l0,8.833l-8.744,0l-0,-8.833l8.744,-0Zm-8.744,-0l-0,-8.745l8.744,0l0,8.745l-8.744,-0Zm-0,-8.745l-0,-8.967l8.744,-0l0,8.967l-8.744,0Zm-0,-8.967l-0,-8.923l8.744,-0l0,8.923l-8.744,-0Zm-0,-17.89l-0,-8.923l8.744,-0l0,8.923l-8.744,-0Zm-0,-8.923l-0,-8.968l8.744,0l0,8.968l-8.744,-0Zm-0,-8.968l-0,-8.967l8.744,-0l0,8.967l-8.744,0Zm-8.968,-17.711l0,-8.968l8.968,0l-0,8.968l-8.968,-0Zm8.968,71.204l-0,8.833l-8.968,0l0,-8.833l8.968,-0Zm-8.968,-0l0,-8.745l8.968,0l-0,8.745l-8.968,-0Zm-8.922,-71.204l-0,-8.968l8.922,0l0,8.968l-8.922,-0Zm8.922,71.204l0,8.833l-8.922,0l-0,-8.833l8.922,-0Zm-8.922,-0l-0,-8.745l8.922,0l0,8.745l-8.922,-0Zm-0,-62.46l-0,-8.744l8.922,-0l0,8.744l-8.922,-0Zm-8.968,62.46l0,-8.745l8.968,0l-0,8.745l-8.968,-0Zm0,-8.745l0,-8.967l8.968,-0l-0,8.967l-8.968,0Zm0,-8.967l0,-8.923l8.968,-0l-0,8.923l-8.968,-0Zm0,-8.923l0,-8.967l8.968,-0l-0,8.967l-8.968,-0Zm0,-8.967l0,-8.923l8.968,-0l-0,8.923l-8.968,-0Zm0,-8.923l0,-8.968l8.968,0l-0,8.968l-8.968,-0Zm0,-8.968l0,-8.967l8.968,-0l-0,8.967l-8.968,0Zm0,-8.967l0,-8.744l8.968,-0l-0,8.744l-8.968,-0Z" style="fill:#fff;fill-rule:nonzero;"/><path d="M430.511,92.325l0,-8.967l8.923,-0l0,8.967l-8.923,-0Zm0,-8.967l0,-8.923l8.923,-0l0,8.923l-8.923,-0Zm0,-8.923l0,-8.968l8.923,0l0,8.968l-8.923,-0Zm0,-8.968l0,-8.967l8.923,-0l0,8.967l-8.923,0Zm0,-8.967l0,-8.744l8.923,-0l0,8.744l-8.923,-0Zm-8.967,-8.744l-0,-8.968l8.967,0l0,8.968l-8.967,-0Zm-0,53.492l-0,-8.923l8.967,-0l0,8.923l-8.967,-0Zm-0,-8.923l-0,-8.967l8.967,-0l0,8.967l-8.967,-0Zm-0,-8.967l-0,-8.923l8.967,-0l0,8.923l-8.967,-0Zm-0,-8.923l-0,-8.968l8.967,0l0,8.968l-8.967,-0Zm-0,-8.968l-0,-8.967l8.967,-0l0,8.967l-8.967,0Zm-0,-8.967l-0,-8.744l8.967,-0l0,8.744l-8.967,-0Zm-8.923,-8.744l-0,-8.968l8.923,0l-0,8.968l-8.923,-0Zm8.923,71.204l-0,8.833l-8.923,0l-0,-8.833l8.923,-0Zm-8.923,-0l-0,-8.745l8.923,0l-0,8.745l-8.923,-0Zm-0,-8.745l-0,-8.967l8.923,-0l-0,8.967l-8.923,0Zm-0,-8.967l-0,-8.923l8.923,-0l-0,8.923l-8.923,-0Zm-0,-8.923l-0,-8.967l8.923,-0l-0,8.967l-8.923,-0Zm-0,-8.967l-0,-8.923l8.923,-0l-0,8.923l-8.923,-0Zm-8.967,-35.602l-0,-8.968l8.967,0l-0,8.968l-8.967,-0Zm8.967,71.204l-0,8.833l-8.967,0l-0,-8.833l8.967,-0Zm-8.967,-0l-0,-8.745l8.967,0l-0,8.745l-8.967,-0Zm-0,-8.745l-0,-8.967l8.967,-0l-0,8.967l-8.967,0Zm-0,-8.967l-0,-8.923l8.967,-0l-0,8.923l-8.967,-0Zm-0,-8.923l-0,-8.967l8.967,-0l-0,8.967l-8.967,-0Zm-8.968,-44.569l0,-8.968l8.968,0l-0,8.968l-8.968,-0Zm8.968,71.204l-0,8.833l-8.968,0l0,-8.833l8.968,-0Zm-8.968,-0l0,-8.745l8.968,0l-0,8.745l-8.968,-0Zm0,-44.525l0,-8.968l8.968,0l-0,8.968l-8.968,-0Zm0,-8.968l0,-8.967l8.968,-0l-0,8.967l-8.968,0Zm0,-8.967l0,-8.744l8.968,-0l-0,8.744l-8.968,-0Zm-8.744,-8.744l-0,-8.968l8.744,0l0,8.968l-8.744,-0Zm8.744,71.204l0,8.833l-8.744,0l-0,-8.833l8.744,-0Zm-8.744,-0l-0,-8.745l8.744,0l0,8.745l-8.744,-0Zm-0,-44.525l-0,-8.968l8.744,0l0,8.968l-8.744,-0Zm-0,-8.968l-0,-8.967l8.744,-0l0,8.967l-8.744,0Zm-0,-8.967l-0,-8.744l8.744,-0l0,8.744l-8.744,-0Zm-8.968,-8.744l0,-8.968l8.968,0l-0,8.968l-8.968,-0Zm0,71.204l0,-8.745l8.968,0l-0,8.745l-8.968,-0Zm0,-8.745l0,-8.967l8.968,-0l-0,8.967l-8.968,0Zm0,-8.967l0,-8.923l8.968,-0l-0,8.923l-8.968,-0Zm0,-8.923l0,-8.967l8.968,-0l-0,8.967l-8.968,-0Zm-8.922,-44.569l-0,-8.968l8.922,0l0,8.968l-8.922,-0Zm-0,44.569l-0,-8.967l8.922,-0l0,8.967l-8.922,-0Zm-0,-8.967l-0,-8.923l8.922,-0l0,8.923l-8.922,-0Zm-8.968,-35.602l0,-8.968l8.968,0l-0,8.968l-8.968,-0Zm0,35.602l0,-8.923l8.968,-0l-0,8.923l-8.968,-0Zm0,-8.923l0,-8.968l8.968,0l-0,8.968l-8.968,-0Zm0,-8.968l0,-8.967l8.968,-0l-0,8.967l-8.968,0Zm0,-8.967l0,-8.744l8.968,-0l-0,8.744l-8.968,-0Z" style="fill:#fff;fill-rule:nonzero;"/><path d="M519.65,118.96l0,8.833l-8.789,0l0,-8.833l8.789,-0Zm-8.789,-0l0,-8.745l8.789,0l0,8.745l-8.789,-0Zm0,-8.745l0,-8.967l8.789,-0l0,8.967l-8.789,0Zm0,-35.78l0,-8.968l8.789,0l0,8.968l-8.789,-0Zm0,-8.968l0,-8.967l8.789,-0l0,8.967l-8.789,0Zm0,-8.967l0,-8.744l8.789,-0l0,8.744l-8.789,-0Zm-8.923,-8.744l0,-8.968l8.923,0l0,8.968l-8.923,-0Zm8.923,71.204l0,8.833l-8.923,0l0,-8.833l8.923,-0Zm-8.923,-0l0,-8.745l8.923,0l0,8.745l-8.923,-0Zm0,-8.745l0,-8.967l8.923,-0l0,8.967l-8.923,0Zm0,-8.967l0,-8.923l8.923,-0l0,8.923l-8.923,-0Zm0,-8.923l0,-8.967l8.923,-0l0,8.967l-8.923,-0Zm0,-8.967l0,-8.923l8.923,-0l0,8.923l-8.923,-0Zm0,-8.923l0,-8.968l8.923,0l0,8.968l-8.923,-0Zm0,-8.968l0,-8.967l8.923,-0l0,8.967l-8.923,0Zm0,-8.967l0,-8.744l8.923,-0l0,8.744l-8.923,-0Zm-8.967,-8.744l-0,-8.968l8.967,0l0,8.968l-8.967,-0Zm8.967,71.204l0,8.833l-8.967,0l-0,-8.833l8.967,-0Zm-8.967,-0l-0,-8.745l8.967,0l0,8.745l-8.967,-0Zm-0,-17.712l-0,-8.923l8.967,-0l0,8.923l-8.967,-0Zm-0,-8.923l-0,-8.967l8.967,-0l0,8.967l-8.967,-0Zm-0,-8.967l-0,-8.923l8.967,-0l0,8.923l-8.967,-0Zm-0,-8.923l-0,-8.968l8.967,0l0,8.968l-8.967,-0Zm-0,-8.968l-0,-8.967l8.967,-0l0,8.967l-8.967,0Zm-8.923,-17.711l0,-8.968l8.923,0l-0,8.968l-8.923,-0Zm8.923,71.204l-0,8.833l-8.923,0l0,-8.833l8.923,-0Zm-8.923,-0l0,-8.745l8.923,0l-0,8.745l-8.923,-0Zm0,-17.712l0,-8.923l8.923,-0l-0,8.923l-8.923,-0Zm0,-8.923l0,-8.967l8.923,-0l-0,8.967l-8.923,-0Zm0,-17.89l0,-8.968l8.923,0l-0,8.968l-8.923,-0Zm0,-8.968l0,-8.967l8.923,-0l-0,8.967l-8.923,0Zm-8.967,-17.711l-0,-8.968l8.967,0l0,8.968l-8.967,-0Zm8.967,71.204l0,8.833l-8.967,0l-0,-8.833l8.967,-0Zm-8.967,-0l-0,-8.745l8.967,0l0,8.745l-8.967,-0Zm-0,-17.712l-0,-8.923l8.967,-0l0,8.923l-8.967,-0Zm-0,-8.923l-0,-8.967l8.967,-0l0,8.967l-8.967,-0Zm-0,-17.89l-0,-8.968l8.967,0l0,8.968l-8.967,-0Zm-0,-8.968l-0,-8.967l8.967,-0l0,8.967l-8.967,0Zm-8.968,-17.711l0,-8.968l8.968,0l-0,8.968l-8.968,-0Zm8.968,71.204l-0,8.833l-8.968,0l0,-8.833l8.968,-0Zm-8.968,-0l0,-8.745l8.968,0l-0,8.745l-8.968,-0Zm0,-17.712l0,-8.923l8.968,-0l-0,8.923l-8.968,-0Zm0,-8.923l0,-8.967l8.968,-0l-0,8.967l-8.968,-0Zm0,-17.89l0,-8.968l8.968,0l-0,8.968l-8.968,-0Zm0,-8.968l0,-8.967l8.968,-0l-0,8.967l-8.968,0Zm-8.744,-17.711l-0,-8.968l8.744,0l0,8.968l-8.744,-0Zm8.744,71.204l0,8.833l-8.744,0l-0,-8.833l8.744,-0Zm-8.744,-0l-0,-8.745l8.744,0l0,8.745l-8.744,-0Zm-0,-17.712l-0,-8.923l8.744,-0l0,8.923l-8.744,-0Zm-0,-8.923l-0,-8.967l8.744,-0l0,8.967l-8.744,-0Zm-0,-17.89l-0,-8.968l8.744,0l0,8.968l-8.744,-0Zm-0,-8.968l-0,-8.967l8.744,-0l0,8.967l-8.744,0Zm-8.968,-17.711l0,-8.968l8.968,0l-0,8.968l-8.968,-0Zm8.968,71.204l-0,8.833l-8.968,0l0,-8.833l8.968,-0Zm-8.968,-0l0,-8.745l8.968,0l-0,8.745l-8.968,-0Zm-8.922,-71.204l-0,-8.968l8.922,0l0,8.968l-8.922,-0Zm8.922,71.204l0,8.833l-8.922,0l-0,-8.833l8.922,-0Zm-8.922,-0l-0,-8.745l8.922,0l0,8.745l-8.922,-0Zm-8.968,-71.204l0,-8.968l8.968,0l-0,8.968l-8.968,-0Zm0,71.204l0,-8.745l8.968,0l-0,8.745l-8.968,-0Zm0,-8.745l0,-8.967l8.968,-0l-0,8.967l-8.968,0Zm0,-8.967l0,-8.923l8.968,-0l-0,8.923l-8.968,-0Zm0,-8.923l0,-8.967l8.968,-0l-0,8.967l-8.968,-0Zm0,-8.967l0,-8.923l8.968,-0l-0,8.923l-8.968,-0Zm0,-8.923l0,-8.968l8.968,0l-0,8.968l-8.968,-0Zm0,-8.968l0,-8.967l8.968,-0l-0,8.967l-8.968,0Zm0,-8.967l0,-8.744l8.968,-0l-0,8.744l-8.968,-0Z" style="fill:#fff;fill-rule:nonzero;"/><path d="M600,118.96l0,8.833l-8.789,0l0,-8.833l8.789,-0Zm-8.789,-0l0,-8.745l8.789,0l0,8.745l-8.789,-0Zm0,-8.745l0,-8.967l8.789,-0l0,8.967l-8.789,0Zm0,-8.967l0,-8.923l8.789,-0l0,8.923l-8.789,-0Zm0,-8.923l0,-8.967l8.789,-0l0,8.967l-8.789,-0Zm0,-8.967l0,-8.923l8.789,-0l0,8.923l-8.789,-0Zm0,-8.923l0,-8.968l8.789,0l0,8.968l-8.789,-0Zm0,-8.968l0,-8.967l8.789,-0l0,8.967l-8.789,0Zm0,53.493l0,8.833l-8.923,0l0,-8.833l8.923,-0Zm-8.923,-0l0,-8.745l8.923,0l0,8.745l-8.923,-0Zm0,-8.745l0,-8.967l8.923,-0l0,8.967l-8.923,0Zm0,-8.967l0,-8.923l8.923,-0l0,8.923l-8.923,-0Zm0,-8.923l0,-8.967l8.923,-0l0,8.967l-8.923,-0Zm0,-8.967l0,-8.923l8.923,-0l0,8.923l-8.923,-0Zm0,-8.923l0,-8.968l8.923,0l0,8.968l-8.923,-0Zm0,-8.968l0,-8.967l8.923,-0l0,8.967l-8.923,0Zm0,-8.967l0,-8.744l8.923,-0l0,8.744l-8.923,-0Zm-8.967,-8.744l-0,-8.968l8.967,0l0,8.968l-8.967,-0Zm8.967,71.204l0,8.833l-8.967,0l-0,-8.833l8.967,-0Zm-8.967,-0l-0,-8.745l8.967,0l0,8.745l-8.967,-0Zm-0,-35.602l-0,-8.923l8.967,-0l0,8.923l-8.967,-0Zm-0,-26.858l-0,-8.744l8.967,-0l0,8.744l-8.967,-0Zm-8.923,-8.744l-0,-8.968l8.923,0l-0,8.968l-8.923,-0Zm8.923,71.204l-0,8.833l-8.923,0l-0,-8.833l8.923,-0Zm-8.923,-0l-0,-8.745l8.923,0l-0,8.745l-8.923,-0Zm-8.967,-71.204l-0,-8.968l8.967,0l-0,8.968l-8.967,-0Zm-0,71.204l-0,-8.745l8.967,0l-0,8.745l-8.967,-0Zm-0,-8.745l-0,-8.967l8.967,-0l-0,8.967l-8.967,0Zm-0,-8.967l-0,-8.923l8.967,-0l-0,8.923l-8.967,-0Zm-0,-8.923l-0,-8.967l8.967,-0l-0,8.967l-8.967,-0Zm-0,-17.89l-0,-8.968l8.967,0l-0,8.968l-8.967,-0Zm-0,-8.968l-0,-8.967l8.967,-0l-0,8.967l-8.967,0Zm-8.968,-17.711l0,-8.968l8.968,0l-0,8.968l-8.968,-0Zm8.968,71.204l-0,8.833l-8.968,0l0,-8.833l8.968,-0Zm-8.968,-0l0,-8.745l8.968,0l-0,8.745l-8.968,-0Zm0,-8.745l0,-8.967l8.968,-0l-0,8.967l-8.968,0Zm0,-8.967l0,-8.923l8.968,-0l-0,8.923l-8.968,-0Zm0,-8.923l0,-8.967l8.968,-0l-0,8.967l-8.968,-0Zm0,-17.89l0,-8.968l8.968,0l-0,8.968l-8.968,-0Zm0,-8.968l0,-8.967l8.968,-0l-0,8.967l-8.968,0Zm-8.744,-17.711l-0,-8.968l8.744,0l0,8.968l-8.744,-0Zm8.744,71.204l0,8.833l-8.744,0l-0,-8.833l8.744,-0Zm-8.744,-0l-0,-8.745l8.744,0l0,8.745l-8.744,-0Zm-0,-8.745l-0,-8.967l8.744,-0l0,8.967l-8.744,0Zm-0,-8.967l-0,-8.923l8.744,-0l0,8.923l-8.744,-0Zm-0,-8.923l-0,-8.967l8.744,-0l0,8.967l-8.744,-0Zm-0,-17.89l-0,-8.968l8.744,0l0,8.968l-8.744,-0Zm-0,-8.968l-0,-8.967l8.744,-0l0,8.967l-8.744,0Zm-8.968,-17.711l0,-8.968l8.968,0l-0,8.968l-8.968,-0Zm8.968,71.204l-0,8.833l-8.968,0l0,-8.833l8.968,-0Zm-8.968,-0l0,-8.745l8.968,0l-0,8.745l-8.968,-0Zm-8.922,-71.204l-0,-8.968l8.922,0l0,8.968l-8.922,-0Zm8.922,71.204l0,8.833l-8.922,0l-0,-8.833l8.922,-0Zm-8.922,-0l-0,-8.745l8.922,0l0,8.745l-8.922,-0Zm-8.968,-71.204l0,-8.968l8.968,0l-0,8.968l-8.968,-0Zm0,71.204l0,-8.745l8.968,0l-0,8.745l-8.968,-0Zm0,-8.745l0,-8.967l8.968,-0l-0,8.967l-8.968,0Zm0,-8.967l0,-8.923l8.968,-0l-0,8.923l-8.968,-0Zm0,-8.923l0,-8.967l8.968,-0l-0,8.967l-8.968,-0Zm0,-8.967l0,-8.923l8.968,-0l-0,8.923l-8.968,-0Zm0,-8.923l0,-8.968l8.968,0l-0,8.968l-8.968,-0Zm0,-8.968l0,-8.967l8.968,-0l-0,8.967l-8.968,0Zm0,-8.967l0,-8.744l8.968,-0l-0,8.744l-8.968,-0Z" style="fill:#fff;fill-rule:nonzero;"/></g></g></g></svg>