<svg clip-rule="evenodd" fill-rule="evenodd" stroke-linejoin="round" stroke-miterlimit="2" viewBox="0 0 600 210" xmlns="http://www.w3.org/2000/svg"><g fill="#fff"><g fill-rule="nonzero"><path d="m0 147.583h26.907v-8.427h.296c4.879 7.54 14.045 10.94 22.915 10.94 22.62 0 38.291-18.628 38.291-40.508 0-21.733-15.523-40.361-37.995-40.361-8.723 0-17.741 3.252-23.507 9.905v-54.258h-26.907v122.709zm43.318-54.997c10.94 0 17.297 7.836 17.297 17.15 0 9.609-6.357 17.001-17.297 17.001-10.941 0-17.298-7.392-17.298-17.001 0-9.314 6.357-17.15 17.298-17.15z"/><path d="m138.128 92.586c10.94 0 17.297 7.836 17.297 17.15 0 9.609-6.357 17.001-17.297 17.001-10.941 0-17.298-7.392-17.298-17.001 0-9.314 6.357-17.15 17.298-17.15zm43.317-20.846h-26.907v7.392c-5.618-6.653-14.784-9.905-23.507-9.905-22.472 0-37.995 18.628-37.995 40.361 0 21.732 15.819 40.508 38.291 40.508 8.87 0 18.184-3.4 22.915-10.94h.296v8.427h26.907z"/><path d="m249.914 74.106c-7.836-3.548-16.411-4.879-24.986-4.879-16.558 0-33.412 8.279-33.412 26.907 0 13.602 8.427 17.741 16.854 19.959 8.427 2.217 16.854 2.513 16.854 8.427 0 4.139-5.027 5.765-8.427 5.765-6.653 0-15.819-3.843-21.289-7.687l-9.758 18.776c9.166 5.618 19.811 8.722 30.603 8.722 17.594 0 35.778-8.279 35.778-28.237 0-14.045-9.462-19.959-22.028-22.472-3.696-.74-12.123-1.479-12.123-6.653 0-3.844 5.322-5.175 8.427-5.175 4.583 0 10.349 1.479 14.488 3.696z"/><path d="m281.935 98.647c1.626-7.835 8.131-11.975 15.966-11.975 7.245 0 13.897 4.731 15.228 11.975zm56.179 12.715c0-25.872-15.227-42.135-41.543-42.135-24.69 0-41.987 15.228-41.987 40.509 0 26.167 18.776 40.36 43.909 40.36 8.722 0 17.297-2.07 24.246-6.357 6.948-4.287 12.271-10.792 14.34-19.663h-25.872c-2.957 5.027-7.096 6.949-12.862 6.949-11.088 0-16.854-5.914-16.854-16.854h56.623z"/></g><path d="m537.648 87.661c-1.309 1.508-3.496 2.386-3.595 4.559l1.838-1.05c-9.742 23.4-35.3 38.558-60.272 37.948-5.623-.138-11.277-1.103-16.677-2.681-2.473-.722-4.861-1.98-7.353-2.57v-.263l1.838.263c-.489-.996-1.658-1.12-2.626-1.408-1.621-.483-3.354-1.408-3.633-3.282-.061-.411.206-.848.35-1.219.896 1.518 1.778 3.257 3.677 3.615 1.233.233 2.318-.226 3.545.061l.132-.131c-.679-1.421-2.074-.907-3.283-1.327-1.646-.573-3.246-3.077-2.758-4.713-1.574.292-2.967-.076-4.2-1.112-.985-.828-2.053-2.446-3.547-2.04.297.568.863.821 1.18 1.341.347.568.362 1.241.78 1.81 1.186 1.614 3.161 2.028 5 1.445-.288.482-.52.882-1.053 1.12-3.527 1.581-4.432-2.252-7.483-2.564l1.103 1.261.473 1.365c-3.809-3.247-7.874-5.964-11.271-9.717-9.908-10.951-16.069-24.885-17.081-39.656-.281-4.109-.118-8.259.42-12.344.264-2.012.853-4.023 1.013-6.04l.394.131.657-2.232h.131l1.313 3.151c.644-.351.759-1.152.583-1.838-.283-1.109-1.102-1.994-1.31-3.152-.23-1.277.315-2.582.596-3.808l.788.263c-1.618 1.917-.934 5.216.668 6.96.61.663 1.175 1.728 1.787 2.281.179.162.422.172.599 0 1.084-1.046-.615-2.732-1.101-3.595-.98-1.74-.735-3.294-.246-5.121l-1.445-.394c.275-1.593 1.418-2.89 2.626-3.896 1.141-.95 2.413-1.327 2.233-3.063-1.233.585-2.728 1.184-3.967 2.02.398-.361.756-.757 1.02-1.237.315-.575.19-1.164.354-1.758.18-.653.67-1.322.999-1.914 3.321-5.985 7.677-11.534 12.755-16.129 14.735-13.332 34.811-19.218 54.155-16.036 3.297.551 6.51 1.352 9.621 2.383 1.26.448 2.498.953 3.763 1.38 1.61.647 3.188 1.357 4.73 2.127.332.552.596 1.129 1.135 1.457l-.526 1.182h-.262c-.591-1.866-2.195-3.501-4.202-3.653-1.001-.075-1.998.16-3.02.107.506 1.456 2.1 1.031 3.282 1.417 1.546.504 3.38 3.063 2.758 4.624 1.338 0 2.536-.037 3.677.778 1.145.817 2.491 2.832 4.07 2.504-.185-.535-.613-.826-.864-1.318-1.332-2.608-2.912-4.001-5.964-3.409.824-1.83 3.428-1.745 4.859-.759.684.472 1.131 1.204 1.839 1.632.669.405 1.468.481 2.136.826 14.107 10.152 23.973 25.838 26.41 43.866.263 2.012.422 4.03.472 6.041.081 3.326-.02 6.68-.43 9.98-.287 2.301-1.044 4.656-1.145 6.959-.658-.526-.525-1.192-.525-1.97-.71.404-.857 1.338-.919 2.101h-.131l-1.314-3.02c-.632.348-.749 1.169-.551 1.839.299 1.013 1.046 1.832 1.271 2.889.3 1.404-.279 2.732-.588 4.07l-.788-.262c1.956-2.318.656-6.048-1.442-7.812-.375-.315-.896-1.763-1.419-1.597-.652.206-.441 1.486-.233 1.924.247.519.659.951.952 1.444.718 1.212 1.134 2.527.879 3.94-.074.409-.158 1.087-.605 1.266-.438.176-1.128-.211-1.546-.347 1.767-2.157.656-5.323-.977-7.22-.418-.486-2.089-2.477-2.745-1.892-.684.609-.367 1.653.05 2.284 1.391 2.099 2.226 3.894 1.702 6.434l1.838.394c-.395 1.342-1.634 2.694-2.637 3.639-1.123 1.057-2.371 1.715-1.958 3.452.536-.154.828-.571 1.318-.816 1.864-.932 5.849-2.95 5.116-5.619 1.692.292 1.39 1.322.535 2.495-1.246 1.707-3.902 2.439-3.949 4.728 2.779-.805 6.425-2.733 6.434-6.041l.394.131c.199-.378.368-.733.506-1.072-.343 1.082-.714 2.151-1.113 3.21zm-96.04 31.447c-.051-.157-.094-.322-.13-.494 1.725 1.688 3.289 1.89 5.384.788l-.526 1.313c.429 0 .573 1.072.832 1.445.085.122.175.236.271.342-2.007-1.032-3.953-2.166-5.831-3.394zm8.274-5.221c-1.512 2.253 1.478 5.038 3.808 5.116.403.013 2.578.108 2.648-.168.327-1.288-2.224-1.368-2.911-1.554-1.271-.345-3.176-2.197-3.106-3.656.019-.406.339-.807.48-1.182-2.203-.415-3.53-1.207-4.914-3.015-.373-.487-1.271-1.543-2.003-1.233-.723.305.64 1.814.759 2.278.705 2.755 2.706 3.435 5.239 3.414zm2.101-2.888c-2.422 2.801 1.741 5.513 4.465 5.172.551-.069 1.736.685 2.083.038.779-1.451-2.369-1.6-3.003-1.754-1.255-.305-3.246-2.156-3.145-3.588.037-.529.567-.974.782-1.444-1.837-.162-3.188-1.635-4.236-3.02-.503-.665-1.166-2.043-2.191-1.904-1.255.171.382 2.271.565 2.823.7 2.106 2.431 3.675 4.68 3.677zm3.02-3.546c-.481.482-1.306 1.11-1.38 1.838-.254 2.506 3.181 4.129 5.188 4.023.551-.03 1.43.66 1.889.211.608-.594-.472-1.481-.97-1.649-2.294-.774-6.431-3.534-3.151-5.867.582 1.978 2.632 3.951 4.727 4.179.667.072 2.805.753 2.831-.242.033-1.281-2.003-1.496-2.831-2.026-1.401-.896-2.082-2.367-2.889-3.75-.575.36-1.295 1.356-1.969 1.413-1.521.129-3.57-2.506-4.195-3.645-.374-.681-.682-1.839-1.707-1.72-1.083.126-.057 1.935.015 2.508.314 2.495 2.187 3.992 4.442 4.727zm8.273-7.222c-4.284 1.191-.553 5.803 2.101 6.447.659.161 2.689 1.016 2.599-.276-.082-1.166-1.853-1.489-2.587-2.144-1.099-.978-1.787-2.62-2.113-4.027zm2.757-2.232c.598 2.104 1.724 4.141 3.808 5.08.615.276 2.778 1.107 2.939.035.184-1.232-1.524-2.05-2.281-2.681-1.133-.944-1.903-2.321-2.233-3.748zm-5.646 4.202c-1.785-.424-3.083-1.671-3.891-3.283-.429-.857-.626-2.609-1.755-2.824-1.259-.241-.56 2.066-.514 2.692.218 2.947 3.764 6.807 6.16 3.415zm13.394-8.798c-.593.248-1.896.708-2.151 1.341-.216.532.181 1.217.412 1.679.74 1.481 1.852 2.838 3.446 3.412.716.258 2.789 1.542 2.831-.129.029-1.19-1.715-1.711-2.437-2.376-1.253-1.156-1.529-2.41-2.101-3.927zm-8.142 4.99c-.933-.755-2.019-1.001-2.849-1.97-.8-.934-1.521-4.312-2.923-4.275-1.033.027-.444 2.429-.342 3.093.277 1.789 1.68 4.962 4.013 4.506.742-.145 1.497-.922 2.101-1.354zm13.394-7.617c.427 2.301.347 4.235 2.493 5.766.586.418 1.837 1.766 2.384.523.363-.824-.631-1.878-.936-2.612-.712-1.716-.658-3.299-.658-5.121zm-8.404 4.334c-1.435-.981-2.336-2.233-3.038-3.809-.371-.832-.61-2.309-1.558-2.659-.599-.221-1.167.178-1.124.821.032.468.346.858.432 1.313.106.561-.005 1.143.097 1.707.338 1.875 2.07 4.601 4.141 3.362.374-.224.733-.437 1.05-.735zm18.909-8.667c-.713.316-2.281.513-2.754 1.143-.687.916.171 3.559.531 4.503.298.785 1.724 3.483 2.838 2.547.438-.367.273-1.011.21-1.496-.162-1.245-.552-2.432-.729-3.677-.133-.93.25-2.188-.096-3.02zm5.647-1.707c.222 1.2.422 2.592.219 3.808-.182 1.093-1.01 2.716-.122 3.751 1.093 1.275 1.695-.995 2.13-1.519 1.776-2.136 1.502-4.306.924-6.828zm-17.727 6.828v-.263c-1.614-1.136-2.653-3.105-3.719-4.727-.366-.556-.329-1.455-1.021-1.741-.719-.296-1.505.18-1.543.954-.027.535.337.937.432 1.444.326 1.733 1.421 5.089 3.618 5.301.702.067 1.648-.627 2.233-.968zm26.525-8.929c.009 1.186.193 2.236-.122 3.414-.324 1.213-1.771 3.325-.831 4.566 1.015 1.34 1.755-.881 2.229-1.426 1.652-1.903 2.048-4.538 1.744-6.948zm22.717-.394c.47.061 1.554.079 1.866.473.307.387-.15 1.136-.325 1.497-.731 1.515-1.679 2.51-2.854 3.678-.475.473-1.323 1.495-.583 2.149.426.376 1.829-.707 2.29-.956 2.199-1.19 4.269-3.43 3.939-6.053l-1.97-.394c1.179-2.527-.65-5.625-2.495-7.342-.533-.496-2.353-2.548-2.96-1.557-.8 1.305.445 2.613 1.214 3.515 1.194 1.401 2.228 3.101 1.878 4.99zm-15.495-.525c0 2.215-.755 3.512-1.515 5.515-.219.577-.563 1.892-.189 2.453.642.96 1.905-1.049 2.36-1.442 2.08-1.796 2.7-4.057 2.364-6.658zm12.816.271c-.433.311-.456 1.713-.664 2.224-.61 1.499-2.188 2.353-2.742 3.808-.177.464-.26 2.003.674 1.565 2.213-1.039 4.125-3.049 4.945-5.373.157-.445.469-1.325.253-1.782-.204-.431-2.092-.71-2.466-.442zm-5.725-.534c-.217 1.147-.412 2.42-1.065 3.414-.728 1.107-3.027 2.682-1.962 4.314.533.816 1.808-.782 2.37-1.145 1.566-1.012 2.807-2.538 3.316-4.351.134-.477.445-1.448.094-1.89-.377-.477-2.171-.342-2.753-.342zm-35.455 7.616 3.152-1.313c-.753-2.652-2.144-4.6-4.857-5.435-.837-.257-2.554-1.931-2.815.051-.128.973 1.039 1.637 1.631 2.233 1.277 1.286 2.326 2.735 2.889 4.464zm11.556-4.07c-.067-3.193-2.345-5.211-5.253-5.988-.823-.219-1.879-1.451-2.66-.417-.439.582-.15 1.302.311 1.753 1.153 1.125 2.501 1.956 3.388 3.338.351.547.684 1.785 1.352 2.01.728.245 2.121-.527 2.862-.696zm4.858-1.445 3.152-.525c-.002-2.842-1.812-5.319-4.465-6.328-.974-.37-3.507-1.351-3.88.157-.35 1.416 1.699 1.93 2.567 2.508 1.361.906 2.384 2.572 2.626 4.188zm39.9-.391c.194-1.003.102-1.992-.243-3.286h.131c.274.588.472 1.097.594 1.562-.153.577-.313 1.151-.482 1.724zm-28.869-1.316c-.002-2.894-1.805-5.562-4.465-6.691-.799-.339-1.699-1.548-2.569-.623-.552.586-.272 1.367.208 1.875 1.065 1.128 2.395 1.984 3.198 3.338.333.562.551 1.861 1.075 2.227.531.371 1.925-.099 2.553-.126zm11.161-.263c.552.103 1.816.447 2.307.126.6-.393.31-1.787.186-2.358-.496-2.291-1.99-4.042-4.069-5.072-.538-.267-1.329-1.224-1.842-1.275-1.022-.103-1.058 1.918-.818 2.537.35.903 1.574 1.178 2.266 1.752 1.285 1.065 1.956 2.64 1.97 4.29zm-6.96 0c.647 0 2.311.153 2.777-.341.485-.515.12-1.582-.066-2.154-.623-1.91-1.832-3.635-3.63-4.608-.81-.439-2.827-2.245-2.989-.25-.122 1.491 1.298 2.38 2.179 3.295 1.037 1.077 1.698 2.561 1.73 4.058zm-81.938-35.717c-.663-.002-1.864-.392-2.438.004-.73.502-.23 2.227-.011 2.885.828 2.487 2.399 3.512 4.543 4.764.441.258.656.871 1.189.965 1.074.188 1.052-1.799.851-2.441-.296-.946-1.59-1.245-2.291-1.819-1.287-1.056-1.981-2.71-1.843-4.358zm6.828.132c-.645 0-2.14-.279-2.661.135-.542.431-.223 1.689-.049 2.228.617 1.92 1.817 3.712 3.629 4.685.8.43 2.844 2.245 3.004.305.132-1.603-1.409-2.517-2.323-3.546-.942-1.059-1.488-2.401-1.6-3.807zm-14.444-1.051c-1.902 2.128 1.083 6.056 2.626 7.473.557.511 2.001 2.276 2.683 1.436.773-.951.026-2.235-.622-3-1.323-1.561-2.862-3.316-2.455-5.515l-2.101-.394c.439-1.547 1.206-3.186 2.366-4.328.679-.669 2.114-1.492 1.91-2.629-.233-1.293-1.83.122-2.438.427-1.586.796-3.116 2.257-3.824 3.904-.235.547-.558 1.49-.117 2.023.365.442 1.44.465 1.972.603zm18.646.788c.021 2.552 1.538 5.149 3.808 6.331.865.45 3.197 2.257 3.589.365.205-.985-1.005-1.78-1.619-2.351-1.453-1.351-2.602-2.605-3.021-4.608zm-24.555-2.364 1.707.526c-1.269 2.312-.914 4.877.724 6.959.455.578 2.443 2.966 3.118 2.081.984-1.29-.654-2.731-1.229-3.788-.844-1.553-.861-3.044-.644-4.727l-1.838-.394c.528-1.795 2.299-3.371 3.677-4.542.575-.489 1.412-1.39.971-2.242-.242-.468-1.885.708-2.284.907-2.093 1.047-4.201 2.722-4.202 5.22zm35.585.526c-.685.088-2.574.194-3.016.753-.408.515.083 1.621.285 2.135.796 2.024 2.442 3.63 4.57 4.213.979.268 3.908 1.169 3.356-.929-.298-1.136-1.988-1.47-2.831-2.092-1.278-.944-2.049-2.558-2.364-4.08zm4.859-1.314c.354 2.788 1.885 5.068 4.727 5.792.916.233 3.075 1.959 3.383.117.184-1.095-.956-1.751-1.676-2.353-1.557-1.301-2.409-2.754-3.414-4.475zm-44.68 4.174c.091.415.198.787.296 1.079h-.131c-.106-.225-.203-.438-.291-.642l.019-.066c.018-.063.036-.127.055-.191zm20.781-.628c.297-1.147.45-2.381 1.078-3.414.507-.834 1.362-1.389 1.862-2.233.328-.554.545-1.633.099-2.19-.609-.758-1.49.685-1.989.99-1.763 1.076-3.141 2.588-3.71 4.615-.131.467-.49 1.592-.018 1.966.526.416 2 .14 2.678.266zm35.454-7.616c-.726.172-2.459.598-2.883 1.247-.362.555.303 1.664.555 2.167 1.042 2.078 2.48 2.479 4.407 3.357.408.186.643.611 1.073.765.749.267 1.458-.334 1.404-1.102-.065-.919-1.332-1.745-1.928-2.364-1.189-1.233-1.939-2.525-2.628-4.07zm-28.232 7.222c-.396-1.666.321-3.285 1.079-4.727.372-.706 1.018-2.219.603-3.013-.662-1.263-1.814.774-2.339 1.217-1.417 1.197-2.603 3.045-2.625 4.947-.006.48-.112 1.375.336 1.703.499.366 2.37.043 2.946-.127zm-12.869 0c.306-.967.344-1.973.831-2.889.574-1.08 1.534-1.772 2.216-2.758.344-.498.688-1.357.307-1.927-.398-.599-2.084.706-2.566 1.022-1.469.966-2.494 2.55-3.06 4.188-.149.432-.489 1.458-.113 1.847.452.468 1.768.368 2.385.517zm17.071-.394 2.889-.394c0-2.231.398-3.662 1.023-5.778.184-.622.373-1.763-.09-2.306-1.035-1.217-1.766.971-2.209 1.518-1.518 1.876-2.272 4.616-1.613 6.96zm8.667-1.707c.689-.142 2.446-.306 2.884-.884.346-.455-.054-1.607-.104-2.136-.134-1.4 1.514-4.772-.161-5.621-1.165-.591-1.121.994-1.562 1.517-1.738 2.058-2.171 4.607-1.057 7.124zm20.747-7.748c.481.951 1.49 1.716 2.101 2.627.593.883 1.393 1.795 1.84 2.757.288.617.233 1.3 1.049 1.496.865.207 1.421-.57 1.276-1.364-.358-1.968-1.461-5.998-3.902-6.366-.771-.116-1.637.641-2.364.85zm-12.212 5.253 3.02-1.051c0-2.067-.064-4.367-1.451-6.04-.475-.574-1.293-2.126-2.146-1.02-.457.591-.06 1.811.101 2.465.486 1.984.518 3.629.476 5.646zm19.04-8.798c1.604 1.4 2.509 2.642 3.384 4.596.328.734.489 1.915 1.475 2.035.658.08.978-.543.842-1.116-.453-1.913-.405-4.1-1.916-5.624-.407-.411-1.056-1.035-1.684-.993-.702.047-1.529.725-2.101 1.102zm-11.593 3.283c.109.891-.22 1.754.038 2.626.74-.308 2.592-.805 3.011-1.499.425-.705-.085-2.657-.391-3.359-.523-1.202-1.356-1.901-2.335-2.705-.472-.387-1.013-.985-1.678-.555-.452.293-.449.859-.23 1.29.695 1.373 1.394 2.64 1.585 4.202zm16.583-6.303c1.716.469 2.966 1.58 3.774 3.151.44.855.692 2.556 1.742 2.855 1.385.396.679-2.061.65-2.723-.141-3.33-3.473-6.591-6.166-3.283zm-8.141 4.727c.624-.18 1.866-.59 2.152-1.231.247-.555-.168-1.309-.417-1.789-.753-1.451-1.847-2.803-3.442-3.346-.728-.247-2.799-1.512-2.776.195.017 1.26 1.863 1.765 2.642 2.506 1.11 1.055 1.327 2.304 1.841 3.665zm13.394-8.929c.664.537 1.544.735 2.231 1.271 1.222.953 1.929 2.545 2.402 3.981.176.533.619 1.177 1.27 1.112 1.007-.1.329-2.535.207-3.213-.323-1.793-2.132-4.9-4.403-4.385-.655.149-1.189.839-1.707 1.234zm-7.879 5.778 2.232-1.313c-.306-2.073-1.861-4.311-3.808-5.137-.595-.253-2.624-1.022-2.845-.108-.302 1.246 1.282 2.006 2.057 2.62 1.189.943 2.14 2.424 2.364 3.938zm9.848-7.485c.586-.411 1.149-1.192 1.839-1.415 1.117-.361 2.999 1.717 3.588 2.465.499.633 1.56 3.615 2.778 2.754.513-.364-.382-3.084-.633-3.673-.539-1.262-2.461-3.809-4.158-3.322-.647.185-1.071.945-1.575 1.352-.422-2.189-2.757-3.928-4.859-4.255-.587-.092-2.562-.643-2.673.193-.169 1.278 1.76 1.467 2.542 1.92 1.486.86 2.506 2.431 3.151 3.981zm-4.727 3.939c.592-.34 1.817-1.007 1.997-1.712.487-1.904-2.441-4.301-3.967-4.732-.665-.188-2.82-1.105-2.852.143-.03 1.182 1.866 1.613 2.589 2.255 1.18 1.046 1.67 2.624 2.233 4.046zm9.98-9.323c2.04.579 3.352 1.87 4.609 3.545.445.593 1.126 1.772 2.058 1.365 1.036-.452-.475-1.756-.65-2.286-.632-1.913-2.327-4.532-4.704-4.068.251-.441.753-.928.802-1.445.226-2.384-2.999-3.854-4.873-3.806-.544.014-2.348-.495-2.59-.076-.525.909 1.044 1.557 1.671 1.628 1.673.191 4.811 1.599 4.479 3.83-.073.485-.54.916-.802 1.313zm-1.97 1.97c3.859-1.805-.64-5.778-3.283-5.777-.566 0-2.507-.804-2.39.264.148 1.347 2.144 1.325 3.047 1.824 1.387.764 2.134 2.242 2.626 3.689zm-1.313-11.424c.491 1.648 2.093 1.31 3.414 1.8 1.131.419 2.703 2.17 2.75 3.452.017.453-.362.9-.518 1.313 1.926.083 3.457 1.028 4.667 2.495.451.547 1.345 2.028 2.251 1.717.583-.201-.618-2.562-.852-3.03-1.002-2.004-2.914-3.158-5.146-2.626 1.346-2.006-.804-4.487-2.889-5.022-.797-.204-1.537.028-2.326 0-.514-.017-.822-.243-1.351-.099zm9.935-.955c.058.031.115.062.173.092l.152.082c-.182.076-.364.161-.543.255.067-.159.121-.312.162-.459z"/><path d="m542.156 90.68c7.3-2.255 14.608-4.481 21.936-6.645 7.236-2.137 15.622-6.014 23.198-6.267 6.871-.23 13.578 20.124 11.162 25.579-2.586 5.838-16.351 7.623-21.787 9.275-20.811 6.327-41.778 12.043-62.615 18.224-36.303 10.768-73.715 16.728-110.53 25.287-33.487 7.785-66.2 18.376-99.133 28.177-18.043 5.369-36.081 10.752-54.115 16.155-2.284.684-5.482 1.239-7.373 2.755-2.419 1.94-2.182 7.75-6.932 5.914-5.694-2.202-8.348-12.855-6.362-18.033 2.015-5.256 8.593 1.206 8.593 1.206l130.349-39.772c25.193-7.66 49.701-17.266 74.21-26.906 10.158 5.743 21.893 9.023 34.388 9.023 29.442 0 54.665-18.209 65.011-43.972z"/><path d="m527.734 131.254c-4.162 1.203-8.324 2.418-12.48 3.651-16.915 5.017-34.07 8.995-51.294 12.677 4.174 1.622 8.757 2.514 13.656 2.514 8.871 0 18.185-3.4 22.916-10.94h.295v8.427h26.907z"/><path d="m562.904 121.133c-8.961 2.618-17.937 5.17-26.908 7.743v18.707h26.908z"/><path d="m600 108.311c-1.197 1.17-2.713 2.211-4.478 3.091-5.486 2.736-13.669 4.068-17.625 5.271-1.601.487-3.203.97-4.804 1.449v29.461h26.907z"/><path d="m430.853 117.151c-.58 3.401-1.549 6.668-2.867 9.734-16.959 6.611-33.976 13.038-51.279 18.647-2.529-1.649-4.734-3.764-6.424-6.376h-.296v8.427h-26.907v-122.709h26.907v54.258c5.766-6.653 14.785-9.905 23.507-9.905 5.05 0 9.748.94 13.997 2.645 1.852 17.977 10.516 33.947 23.362 45.279zm-44.455-24.565c10.94 0 17.297 7.836 17.297 17.15 0 9.609-6.357 17.001-17.297 17.001s-17.298-7.392-17.298-17.001c0-9.314 6.358-17.15 17.298-17.15z"/><path d="m600 86.148v-61.274h-26.907v51.723c4.708-1.552 9.525-2.909 14.055-3.061 2.039-.068 4.134.677 6.089 2.294 1.952 1.615 3.857 4.241 5.429 7.37.474.944.921 1.933 1.334 2.948z"/><path d="m535.996 26.686v-1.812h26.908v55.097l-.011.004c-6.33 1.869-12.645 3.784-18.955 5.725 2.099-6.649 3.232-13.73 3.232-21.073 0-13.979-4.105-27.007-11.174-37.941z"/></g></svg>