<svg clip-rule="evenodd" fill-rule="evenodd" stroke-linejoin="round" stroke-miterlimit="2" viewBox="0 0 600 253" xmlns="http://www.w3.org/2000/svg"><g fill="#fff"><path d="m58.223 196.021c-9.469 1.689-7.363 13.452-6.467 20.368 1.527 11.791-5.523 28.661 9.636 34.641 11.696 4.613 22.935-3.906 23.081-16.084.021-1.78.497-4.564-.334-6.193-.737-1.446-2.864-.996-4.19-1.09-3.119-.22-6.29-1.13-9.052-2.578-9.609-5.035-15.176-18.554-12.674-29.064z"/><path d="m49.624 200.547c-4.303 2.354-7.93 15.285-2.263 17.652-1.634 7.125-2.702 14.417-1.315 21.725.758 3.994 2.755 7.904 7.199 8.147-5.323-10.158-3.317-19.018-3.062-29.872.074-3.152-1.012-6.297-1.012-9.505 0-2.659.855-5.554.453-8.147z"/><path d="m108.916 188.779c-7.285 1.735-16.307-.012-23.083-2.909-2.347-1.004-8.097-6.177-10.37-5.536-2.584.73-5.186 5.951-6.779 7.992-2.497 3.201-6.493 3.353-7.442 7.695-2.279 10.429 2.768 23.119 13.275 26.702 3.09 1.054 6.385 1.887 9.504.468 4.355-1.981 2.748-5.673 4.538-8.989 1.965-3.639 6.196-6.495 8.913-9.581 3.965-4.505 9.705-9.972 11.444-15.842z"/><path d="m162.777 211.862c-5.553-2.094-12.197-2.914-18.105-3.168 3.787-1.822 9.568-1.145 13.579-.261 2.254.498 4.978 1.967 7.242 1.058 5.818-2.339 12.956-8.021 16.052-13.47 2.599-4.574 1.112-9.337-3.832-11.347-15.718-6.389-26.751 9.627-33.987 20.852-2.45 3.803-6.347 7.455-6.706 12.22-.393 5.239 4.769 6.274 9.01 5.755 6.934-.85 13.553-5.383 16.747-11.639z"/><path d="m135.167 220.462c.005-5.994 3.03-9.227 6.138-14.031 1.927-2.978 3.586-6.11 5.579-9.052 7.246-10.696 25.592-24.696 36.713-10.41 3.587-9.195-11.34-11.948-17.199-11.185-15.126 1.971-20.594 16.922-28.673 27.479-3.48 4.547-8.499 12.532-2.558 17.199z"/><path d="m129.736 215.483c.859-6.647 4.698-9.948 7.989-15.389 7.543-12.469 16.901-28.688 34.104-26.574 4.746.583 7.603 2.995 11.768 4.849-.361-17.4-21.238-25.184-34.851-16.717-11.074 6.888-13.74 18.813-18.698 29.843-3.605 8.019-12.711 18.637-.312 23.988z"/><path d="m114.8 124.056c1.222 5.283 3.373 10.564.734 15.841-3.76 7.519-14.423 9.685-20.1 3.162-3.145-3.615-3.265-8.146-3.265-12.667l-12.22 9.108-4.074-1.866c-2.028 7.819-5.01 15.773-3.942 23.988 2.367 18.215 19.878 26.175 36.53 23.084l-1.357-7.695c4.007-.379 4.107 3.263 5.511 6.337 1.096 2.396 3.174 4.726 3.862 7.242 1.253 4.587-.335 7.666 3.752 11.315h.453c11.641-12.754 10.3-32.399 25.346-42.998v-.905h-7.242c3.094-5.155-2.092-9.368-6.789-11.37-10.585-4.513-18.048 2.937-27.157 6.391l-1.357-1.811v-.452c9.199-6.06 20.105-12.181 31.23-6.619 5.555 2.777 7.187 9.334 13.578 9.334l.453-8.599c-6.547-.886-10.016-5.176-11.553-11.316-.592-2.362-.853-6.962-2.796-8.627-1.389-1.191-3.878-.877-5.566-.877z"/><path d="m150.104 139.897c-7.107-1.49-13.244-12.679-6.337-18.104-.771-2.106-1.984-4.042-3.261-5.884-1.151-1.661-8.165-8.481-7.542-1.811.217 2.316 2.143 5.044 2.964 7.242 1.92 5.142 3.049 11.017 5.655 15.841 1.484 2.747 6.21 6.67 8.521 2.716z"/><path d="m94.885 110.477c.065 3.153.892 6.353.736 9.505-.255 5.145-1.492 10.714-.524 15.842 1.432 7.59 11.199 11.436 16.748 5.295 6.223-6.888-.306-23.467-7.045-28.106-2.4-1.652-7.055-1.606-9.915-2.536zm11.768 12.967c5.057 1.528 6.652 6.679 5.619 11.055s-4.693 7.975-10.145 6.399c-10.04-2.903-6.559-20.803 4.526-17.454z"/><path d="m146.483 123.801c-2.704-.695-3.944 1.504-4.052 3.876-.159 3.465 1.39 9.635 5.426 10.451 2.62.53 3.815-2.439 3.96-4.568.234-3.429-1.653-8.811-5.334-9.759z"/><path d="m105.295 125.146c-4.059-.807-6.693 2.273-7.335 5.781-.642 3.507.709 7.441 4.619 8.339 9.221 2.118 11.227-12.428 2.716-14.12zm-4.073 3.888c-.703 3.235.547 5.759 3.168 7.695v.452c-3.844-.593-5.976-5.15-3.168-8.147z"/><path d="m145.125 125.866 3.621 10.41c-3.416-1.632-5.09-6.909-3.621-10.41z"/><path d="m51.434 99.615c3.351 8.048 4.526 14.363 4.526 23.083 5.931-.468 24.405-1.956 23.084 7.694l-2.263-.905c.001 3.205.661 4.323 3.168 6.336 3.372-2.109 11.19-7.219 12.721-10.904 1.115-2.685.545-7.105.143-9.916-.31-2.16-.291-4.909-2.105-6.425-3.035-2.537-9.53.789-13.475.125-3.769-.635-7.327-2.092-10.41-4.386-1.722-1.281-3.116-3.597-5.108-4.43-2.743-1.146-7.325-.272-10.281-.272z"/><path d="m109.821 114.551 3.897 6.306 5.155.031 14.484-.001c-.548-1.608-1.259-4.526-2.892-5.371-1.724-.891-5.554 1.12-7.518 1.257-4.607.323-8.85-.575-13.126-2.222z"/><path d="m155.988 70.195c-1.432 7.83-1.025 16.403-5.461 23.536-2.106 3.386-5.124 6.312-8.118 8.921-1.482 1.292-3.845 2.642-4.418 4.664-.656 2.316 3.078 5.546 4.418 7.235h.453l15.321-24.441 8.215-16.747z"/><path d="m113.895 93.731c.002 3.167.135 6.828 2.104 9.485 2.039 2.751 6.973 3.992 9.328.823 4.142-5.577-7.657-9.922-11.432-10.308z"/><path d="m1.194 116.361 4.979-4.979c-3.668 4.465-7.039 14.953-.453 18.558l3.621-5.884c-.648 2.835-1.693 5.653-1.146 8.599 1.512 8.136 9.538 10.246 16.535 7.695l-1.358-4.979-4.526.452v-.452c2.319-1.527 7.118-5.568 10.24-3.938 1.977 1.032-1.929 2.417-2.265 3.175-.773 1.742.675 3.823 2.03 4.776 4.219 2.967 9.829.767 12.995-2.673 5.376-5.844 4.759-13.554 4.61-20.802h.452l1.811 10.862c4.483-1.288 4.679-7.424 4.508-11.315-.401-9.154-4.563-19.456-14.918-19.462l2.263 4.978c-8.368-6.635-20.187-9.736-30.325-5.198-5.559 2.488-13.225 14.481-9.053 20.587zm29.873-4.979c-.226 1.079-.456 2.145-.874 3.17-2.654 6.502-8.881 1.292-2.747-2.076 1.145-.628 2.347-.903 3.621-1.094zm-2.716-5.883v.905c-1.413.849-8.312 4.833-8.312.447 0-3.585 6.469-1.935 8.312-1.352zm-.905-4.979c-.855-.001-2.82.091-4.571-.153s-3.288-.824-3.288-2.169c0-4.642 7.028 1.168 7.859 2.322z"/><path d="m114.347 90.562c1.039 1.997 4.733 3.877 8.471 4.657 3.737.78 7.518.46 8.729-1.941z"/><path d="m120.231 88.299v.905l2.263.453-.905-1.81z"/><path d="m59.581 66.121-2.263-4.526c-13.121 5.075-9.958 22.848 1.811 27.157.379-8.275 8.278-12.815 15.841-10.863 2.152-17.025 7.576-30.269 17.199-44.356-13.593-10.445-.612-33.319 15.389-26.811 3.98 1.619 6.286 4.824 8.6 8.254l3.621-1.358c-6.771-17.602-31.084-15.866-42.546-4.96-15.856 15.086-18.077 36.86-17.652 57.463z"/><path d="m119.326 45.754-.905-7.695c-4.891.632-9.756 2.04-14.031 4.526l4.979 5.884c-3.183-1.035-8.858-3.725-12.124-1.797-4.018 2.369-4.8 10.476-8.323 13.934-2.331 2.289-10.761 3.246-9.501 7.326 1.702 5.515 7.555 3.732 11.35 5.69 3.555 1.834 2.16 4.486 2.919 7.435.59 2.294 2.588 3.704 1.902 6.337-.833 3.2-4.128 4.638-7.043 3.38-4.429-1.913-6.638-6.729-10.863-9.063-7.427-4.102-16.054 1.039-14.801 9.757 1.287 8.946 10.021 14.131 18.422 14.029 2.28-.028 5.407-2.068 7.433-1.508 2.894.8 5.485 3.1 8.408 4.063 3.206 1.056 6.859.746 9.958 2.006 4.091 1.663 7.648 3.828 12.22 4.022 8.809.375 11.822-4.729 17.296-10.256 7.614-7.688 13.924-12.531 14.84-24.124h-.906c-.089 3.699-1.926 6.413-5.884 5.884-2.748 5.139-5.798 4.817-10.41 2.263l-3.168 3.168v.453h6.337c-4.697 4.064-6.307 10.38-11.317 14.242-5.781 4.457-11.922.249-13.469-6.095-.716-2.938.077-6.137-.705-8.976-.519-1.888-2.372-3.137-3.024-5.055-8.5-.024-9.589-5.731-7.694-12.674 6.732 4.441 14.278 5.432 22.178 5.432l-.453-1.811c3.29-1.335 5.346 1.541 8.6 2.257 5.43 1.194 12.165.321 16.745-2.998 9.498-6.884 4.541-24.235-7.693-23.329-4.373.324-8.262 2.39-11.296 5.52-2.043 2.107-3.052 5.983-6.356 5.877 1.322-5.175-3.331-9.395-2.632-14.936 1.262-10.004 10.242-2.758 12.59 2.263l1.81-.453c-1.449-4.58-8.818-18.638-13.658-9.504-.756 1.427-1.232 2.996-1.731 4.526zm-37.114 52.05c-2.851-4.502-3.991-5.985-9.505-4.526l4.074-3.168v-.453c-3.385-1.303-5.568-1.375-9.053-.453 4.486-8.174 16.593 1.256 14.484 8.6zm20.367-48.152c7.164.383 11.805 8.685 12.179 15.111.281 4.839-2.841 9.619-8.105 9.445-7.237-.239-11.849-9.901-11.759-16.234.061-4.345 2.945-8.575 7.685-8.322z"/><path d="m97.148 55.259c9.292-4.671 17.239 12.157 8.6 16.746 3.725 1.333 6.808-2.467 7.151-5.884.46-4.586-2.18-10.394-5.834-13.101-3.539-2.622-8.35-2.329-9.917 2.239z"/><path d="m96.696 58.879c7.273-2.842 12.81 7.225 5.883 11.316 2.931 2.514 5.914-.365 6.247-3.621.36-3.535-1.395-7.869-4.062-10.171-3.371-2.909-7.247-2.056-8.068 2.476z"/><path d="m148.293 24.481 4.526.453c1.952-5.721 6.567-9.454 12.674-9.505v.452c-3.365.608-10.839 5.04-9.601 9.41.491 1.734 3.651 3.231 5.074 4.169 2.48-5.071 7.377-10.262 13.579-9.053-4.349 1.94-8.564 3.958-10.623 8.6-2.05 4.622-.92 13.769 4.739 14.031 0-8.231 3.946-15.894 13.126-16.294v.453c-5.554 1.894-9.598 5.86-10.653 11.768-.762 4.268 2.665 9.454 7.484 7.625 2.848-1.08 4.113-3.978 6.337-5.815-.571 1.671-.859 3.456-1.808 4.978-5.135 8.242-14.3-.031-20.823-1.613-1.741-.423-3.265.852-4.978.981-3.397.255-6.783-2.333-8.147-5.251 2.044 1.454 4.612 2.987 7.241 2.607 5.009-.723 5.298-6.425 2.875-9.847-2.652-3.746-7.129-4.969-11.474-4.981-.281 3.438-1.698 6.955-3.367 9.958-1.05 1.887-3.149 4.057-3.013 6.336.361 6.053 8.668 6.531 11.844 10.863 2.628 3.585 1.83 8.822 4.053 11.927 1.078 1.505 4.171 2.069 5.872 2.427 5.479 1.153 13.237 1.591 13.578-5.754l-8.6-1.358c5.637-1.343 10.412-1.725 14.935-5.926 16.192-15.045 5.381-40.332-14.482-45.371-6.529-1.656-18.262-.283-20.844 7.393-.635 1.888.233 4.414.476 6.337z"/><path d="m99.411 60.69c.033 1.004.137 1.789.464 2.441.327.651.877 1.167 1.799 1.632.638-2.245.162-3.687-2.263-4.073z"/><path d="m80.854 61.143c7.318-1.097 10.511-7.588 12.673-14.031l-3.621 3.168h-.452c-1.133-3.575-.859-7.217 2.305-9.763 2.496-2.009 5.653-.251 7.913-1.832 2.145-1.502 3.59-4.041 5.501-5.824 7.089-6.616 16.576-15.175 26.826-15.622v.453c-10.59 4.079-25.454 12.154-30.325 23.083 3.272-.895 6.235-2.631 9.505-3.551 2.098-.59 5.253-.673 7.065-1.886 2.129-1.425 2.242-4.578 5.156-5.21 2.609-.566 9.256 4.364 6.336 6.573l4.526 7.695c9.227-4.306 16.191-25.753 4.074-30.561-6.302-2.501-15.164.924-20.82 3.745-15.384 7.673-35.052 25.121-36.662 43.563z"/><path d="m123.4 52.995c-.235 1.841.158 2.752 1.81 3.621l.453-.452z"/><path d="m121.137 51.638h.452c2.808-2.649 5.422 1.975 5.884 4.526 4.969-3.229-6.059-13.066-6.336-4.526z"/><path d="m122.042 47.112c2.073.213 3.512 1.089 4.675 2.322 1.164 1.234 2.05 2.824 3.019 4.467 4.574-3.137-3.379-11.971-7.694-6.789z"/><path d="m136.978 49.827 2.716-.452-.906-3.169c-1.708.864-2.118 1.737-1.81 3.621z"/><path d="m95.79 29.46-3.168-.453 1.81-17.652 7.242 3.168.905-5.884 9.958 8.6h.453l1.357-.905c-2.654-14.662-23.421-8.852-25.588 3.168-.692 3.834 1.968 16.887 7.031 9.958z"/><path d="m103.032 10.45-.905 5.431-6.789-3.168-2.263 15.389c6.8 1.74 4.526-7.074 4.526-11.768l5.884 2.716.452-5.432c2.465 2.134 4.158 6.295 7.695 4.074z"/><path d="m104.843 15.429-.906 4.526-5.884-2.263.453 9.505 9.957-7.242z"/><g fill-rule="nonzero"><path d="m555.243 94.169-18.508-15.77 10.961-6.828c.583-.362.984-.956 1.089-1.631l3.904-23.538c.1-.638-.197-1.277-.755-1.607l-22.562-13.287c-.603-.353-1.305-.486-1.988-.381l-33.544 5.137c-.208.032-.385.137-.538.261l4.177.727c.736.125 1.222.82 1.105 1.555l-3.454 20.581 4.506 43.898c.065.595.583 1.029 1.177.976l16.34-1.433c.603-.053 1.057-.563 1.041-1.169l-.651-21.152.791-.157 14.954 23.016c.342.522 1 .727 1.579.482l20.212-8.556c.45-.201.546-.803.164-1.124zm-25.26-26.065-12.786 2.053-.658-22.301 15.665 5.535z"/><path d="m487.422 84.384-24.265 3.587-1.735-11.922 19.589 2.961c.426.068.815-.233.876-.655l1.703-13.026c.056-.414-.265-.783-.679-.787l-20.16-.302 3.061-11.206 22.373 6.768c.398.116.811-.137.88-.546l2.699-16.111c.068-.43-.217-.832-.639-.908l-42.842-7.463c-.438-.072-.863.193-.988.622l-1.603 5.648 2.603 1.406c.711.381 1.109 1.173.996 1.972l-4.157 28.217c-.128.86-.538 1.659-1.165 2.258l-6.551 6.266 3.129 19.348c.068.446.45.779.908.795l48.819 1.731c.405.012.723-.349.666-.747l-2.623-17.247c-.064-.43-.47-.727-.895-.659z"/><path d="m441.985 45.868-22.755-12.275c-.614-.325-1.325-.442-2.008-.313l-33.314 6.137c-.595.113-1 .667-.924 1.265l.486 4.069 4.246.567c.727.096 1.229.775 1.108 1.502l-2.964 17.625 4.639 38.331c.068.595.603 1.025 1.197.964l16.726-1.683c.594-.06 1.04-.582 1-1.181l-.964-15.709 15.99-.879c.691-.037 1.35-.322 1.852-.804l12.215-11.684c.506-.482.831-1.121.935-1.808l3.314-22.546c.105-.638-.213-1.273-.779-1.578zm-21.698 22.714-12.705 2.226-1.317-21.353 16.195 5.587z"/><path d="m381.028 50.483-24.614-3.265c-.551-.077-1.041.369-1.013.935l1.482 32.869-19.432 1.257 6.872-42.424c.097-.578-.317-1.105-.899-1.161l-24.599-2.301c-.59-.057-1.1.381-1.14.972l-.069 1.124 2.736 2.093c.683.526 1.128 1.305 1.229 2.153l.152 1.229c.109.852-.132 1.715-.666 2.39l-4.29 5.443-1.133 18.091 1.599 1.052c.723.474 1.241 1.205 1.45 2.045l.249.98c.217.843.14 1.739-.209 2.534l-4.073 9.231-.056.835c-.044.679.229 1.342.735 1.791l14.131 12.701c.514.462 1.176.727 1.867.747l30.977.792c.683.016 1.338-.274 1.787-.78l10.898-12.431c.462-.526.771-1.177.887-1.868l6.029-35.833c.101-.578-.297-1.125-.887-1.201z"/><path d="m284.591 43.956 19.059 13.07c.494.342 1.177.237 1.547-.233l9.286-11.781c.37-.466.277-1.14-.188-1.498l-19.614-15.026c-.546-.422-1.241-.623-1.928-.555l-26.635 2.539c-.678.068-1.285.438-1.666.996l-14.191 21.172c-.322.486-.177 1.149.321 1.454l34.64 21.096-7.086 9.632-18.456-15.541c-.442-.377-1.117-.297-1.462.165l-10.789 14.376c-.362.486-.285 1.164.173 1.558l18.99 16.151c.527.45 1.205.691 1.896.679l31.511-.554c.651-.012 1.241-.402 1.506-1l10.817-24.494c.253-.571.057-1.233-.462-1.579l-32.784-21.581 5.515-9.046z"/><path d="m599.495 152.86-21.409-30.253c-.462-.651-1.177-1.077-1.972-1.173l-41.721-5.077c-.771-.097-1.539.221-2.021.831l-18.404 23.265-5.169 29.253 8.712 25.121c.253.743.847 1.325 1.598 1.566l34.861 11.367c.759.249 1.595.201 2.326-.128l33.17-15.127c.715-.329 1.249-.968 1.446-1.731l9.009-35.676c.189-.772.036-1.595-.426-2.238zm-48.983 25.077-13.998-14.814 10.069-17.296 18.666 5.009 2.314 18.629z"/><path d="m509.06 120.185-31.857-7.62c-.634-.153-1.241.309-1.265.956l-2.711 71.228 3.92 3.257c.747.623 1.129 1.591.996 2.547l-.514 3.667c-.133.96-.755 1.792-1.643 2.185l-3.269 1.462-.197 5.17c-.02.671.538 1.209 1.205 1.169l20.718-1.422c.735-.052 1.341-.595 1.47-1.314l14.147-79.759c.12-.691-.314-1.362-1-1.526z"/><path d="m469.041 190.505-24.582-20.393 15.605-9.11c.691-.397 1.173-1.08 1.318-1.86l5.442-28.313c.145-.735-.197-1.482-.843-1.864l-31.68-18.501c-.695-.409-1.522-.562-2.314-.43l-44.77 7.251c-.69.112-1.172.747-1.088 1.442l6.222 53.598 10.829 31.089 15.725-1.418c.699-.064 1.221-.662 1.197-1.361l-.98-27.743 1.044-.213 20.056 30.611c.393.602 1.173.827 1.823.534l26.816-12.006c.53-.237.622-.944.18-1.313zm-34.057-35.034-16.364 3.812-.944-26.361 19.401 5.241z"/><path d="m393.512 197.233-27.157-78.004c-.253-.715-.9-1.233-1.659-1.31l-37.174-3.816c-.715-.068-1.386.382-1.591 1.077l-12.263 42.324 9.106 45.135 7.925 1.502c.679.129 1.325-.321 1.438-1l2.864-16.974 24.887-3.74 4.221 20.353c.141.683.804 1.124 1.483.992l27.1-5.121c.647-.121 1.033-.792.82-1.418zm-54.732-33.491 4.049-24.028 8.319.658 4.992 23.988z"/><path d="m298.509 118.337c-.145-.731-.747-1.297-1.482-1.394l-20.385-2.751c-.743-.101-1.47.277-1.819.94l-13.517 26.156-9.302-27.727c-.241-.723-.88-1.253-1.635-1.349l-18.874-2.511c-.727-.096-1.446.309-1.736.984l-33.226 77.759c-.277.631.02 1.366.651 1.643l30.374 12.962c.615.265 1.318-.064 1.515-.703l14.311-46.698 13.4 24.08c.285.522 1.012.586 1.393.12l18.425-22.621 2.896 48.425c.04.658.651 1.128 1.297.996l32.909-6.8c.679-.141 1.109-.804.976-1.479l-16.171-80.032z"/></g></g></svg>