<svg clip-rule="evenodd" fill-rule="evenodd" stroke-linejoin="round" stroke-miterlimit="2" viewBox="0 0 600 378" xmlns="http://www.w3.org/2000/svg"><g fill="#fff"><path d="m258.469.985v236.854l53.629 16.991v-198.599c0-9.359 4.173-15.573 10.865-13.435 8.749 2.427 10.45 11.047 10.45 20.302v79.315c33.381 16.157 59.664-.009 59.664-42.639 0-43.561-15.409-62.967-60.749-78.572-17.881-5.952-51.024-15.999-73.858-20.217" fill-rule="nonzero"/><path d="m322.298 220.203 86.133-30.658c9.744-3.611 11.234-8.518 3.347-11.096-8.008-2.627-22.307-1.875-32.152 1.661l-57.328 20.222v-32.267l3.283-1.083s16.594-5.88 39.933-8.411c23.294-2.553 51.862.334 74.315 8.796 25.293 8.035 28.127 19.755 21.728 27.911-6.492 8.072-22.232 13.911-22.232 13.911l-117.027 42.039z"/><path d="m160.207 216.94c-25.934-7.224-30.258-22.488-18.427-31.306 10.912-8.053 29.496-14.115 29.496-14.115l76.824-27.391v31.176l-55.233 19.796c-9.783 3.501-11.25 8.425-3.369 11.001 8.02 2.68 22.254 1.96 32.043-1.653l26.559-9.575v27.831c-1.712.287-3.616.577-5.353.873-26.478 4.395-54.688 2.591-82.54-6.635z"/><path d="m130.725 291.931 21.257 55.711-12.204 29.888h9.644l35.143-85.599h-10.768l-15.309 41.721-14.242-41.721z"/><path d="m193.313 348.557v-7.034s12.287.482 14.847.482c5.669 0 8.501-1.208 10.632-3.494 1.259-1.371 2.395-7.443 2.395-9.607 0-2.156-.415-6.818-1.258-8.728-.871-1.87-2.851-3.618-5.82-3.87-2.116-.182-5.389-.611-9.216-.786-5.365-.254-8.911-3.053-10.619-5.066-1.693-2.014-3.962-5.047-3.962-14.329 0-9.292 2.404-14.501 4.814-16.917 2.409-2.429 5.935-3.494 8.644-3.975 3.116-.532 8.208-.565 8.208-.565l16.263.474v7.034s-11.859-.474-14.41-.474c-5.671 0-7.373 1.215-9.496 3.495-1.254 1.356-2.234 5.111-2.234 7.262 0 2.16.252 6.526 1.104 8.414.843 1.873 2.831 3.625 5.806 3.892 2.111.163 5.39.591 9.21.765 5.389.254 8.929 3.047 10.618 5.067 1.709 2.019 3.981 6.274 3.981 15.547 0 9.294-2.423 15.933-4.82 18.355-2.415 2.415-5.935 3.495-8.643 3.962-3.124.537-8.216.578-8.216.578z"/><path d="m57.295 274.572h11.618v74.428h-11.618z"/><path d="m256.708 281.701h-11.613v54.641s.279 4.987.565 6.741c.285 1.753 2.838 5.917 9.494 5.917l12.035-.235v-7.008s-3.26.235-5.227.235c-1.994 0-4.411-.13-4.819-3.501-.437-3.364-.437-7.384-.437-7.384v-32.174h13.121v-7.002h-13.121v-10.229z"/><path d="m368.831 291.934h11.613v57.066h-11.613z"/><path d="m345.695 281.701h-11.617v54.641s.273 4.987.553 6.741c.292 1.753 2.824 5.917 9.508 5.917l12.033-.235v-7.008s-3.267.235-5.24.235c-1.974 0-4.396-.13-4.82-3.501-.415-3.364-.415-7.384-.415-7.384v-32.174h13.086v-7.002h-13.086z"/><path d="m0 274.571v74.427h11.619v-67.294h10.755s7.814 0 10.489 3.494c2.273 2.969 2.688 8.353 2.688 11.989 0 3.892-.245 9.905-1.551 12.106-1.982 3.364-5.235 4.038-8.21 4.038h-7.099v6.606h10.209s9.211.384 13.173-3.642c4.857-4.937 6.091-11.574 6.091-20.459 0-8.073-2.929-16.218-8.916-18.984-4.957-2.28-13.893-2.28-13.893-2.28l-25.355-.001z"/><path d="m465.952 299.945 11.391-.48c2.98 0 6.489.804 8.19 2.962 1.585 2.032 2.584 4.455 2.584 8.358v38.15h11.633v-39.111c0-7.397-2.28-11.697-5.696-14.399-4.872-3.864-13.599-3.494-13.599-3.494l-26.025.467v56.537h11.522z"/><path d="m113.001 310.785c0-3.903-.993-6.326-2.592-8.358-1.702-2.158-5.194-2.964-8.184-2.964l-15.322.482v-7.547l18.44-.467s8.728-.371 13.606 3.494c3.403 2.703 5.663 7.002 5.663 14.399v38.565l-22.263.481s-10.079.035-15.159-2.019c-4.948-2.015-7.65-7.541-7.65-15.212 0-7.403 2.267-11.704 5.67-14.405 4.877-3.87 13.599-3.488 13.599-3.488h7.112v6.574h-3.989c-2.986 0-6.057.552-7.767 2.708-1.59 2.012-2.442 3.761-2.442 7.664 0 5.124.993 7.408 3.403 9.151 2.131 1.551 5.943 1.888 10.198 1.888l7.677-.467z"/><path d="m308.897 310.785c0-3.903-.972-6.326-2.571-8.358-1.721-2.158-5.216-2.964-8.182-2.964l-15.316.482v-7.547l18.426-.467s8.722-.371 13.594 3.494c3.403 2.703 5.676 7.002 5.676 14.399v38.565l-22.265.481s-10.092.035-15.159-2.019c-4.955-2.015-7.662-7.541-7.662-15.212 0-7.403 2.286-11.704 5.669-14.405 4.872-3.87 13.613-3.488 13.613-3.488h7.105v6.574h-3.994c-2.968 0-6.059.552-7.747 2.708-1.599 2.012-2.456 3.761-2.456 7.664 0 5.124 1 7.408 3.404 9.151 2.123 1.551 5.956 1.888 10.209 1.888l7.657-.467z"/><path d="m417.151 291.444c7.904 0 14.036 1.767 17.328 4.429 3.325 2.67 7.409 8.301 7.409 24.595 0 16.296-4.084 21.92-7.409 24.596-3.294 2.663-9.424 4.442-17.328 4.442-7.924 0-14.029-1.779-17.347-4.442-3.318-2.676-7.384-8.3-7.384-24.596 0-16.294 4.066-21.926 7.384-24.595 3.318-2.662 9.423-4.429 17.347-4.429zm-7.962 10.942c-1.599 1.97-3.546 6.106-3.546 18.082 0 11.971 1.947 16.113 3.545 18.074 1.592 1.95 4.526 3.267 8.327 3.267 3.805 0 6.728-1.318 8.34-3.266 1.59-1.962 3.538-6.106 3.538-18.073 0-11.978-1.948-16.115-3.538-18.082-1.612-1.954-4.535-3.262-8.34-3.262-3.799 0-6.735 1.306-8.327 3.262z"/><path d="m368.831 274.569h11.613v10.361h-11.613z"/><path d="m599.975 282.786c.145 8.431-.266 12.87-3.101 17.09-2.498 3.707-7.444 7.089-18.376 7.089l-13.562-.402c-2.145.04-7.676.666-10.3 3.473-2.245 2.426-2.421 4.241-2.647 10.695v18.932h46.094v9.272h-50.388l-2.422-.015c-3.424 0-6.791-2.324-6.791-6.974v-14.122c.241-16.497 1.42-18.861 5.003-23.189 2.486-2.99 8.325-6.34 15.407-6.695 1.396-.062 4.012-.241 7.691-.141 2.68.119 5.361.196 6.536.217 6.28.064 8.565-1.094 10.285-3.343 1.96-2.528 3.013-5.522 3.013-10.419 0-4.588-.936-8.912-2.688-10.919-2.115-2.326-4.145-3.877-10.038-3.877-14.911-.041-32.308.355-32.308.355v-8.759s17.003-.724 34.345-.979c10.797-.185 16.752 2.686 19.78 6.635 3.199 4.112 4.324 8.004 4.467 16.076z" fill-rule="nonzero"/></g></svg>