<svg clip-rule="evenodd" fill-rule="evenodd" stroke-linejoin="round" stroke-miterlimit="2" viewBox="0 0 600 355" xmlns="http://www.w3.org/2000/svg"><g fill="#fff"><path d="m132.633 171.021c.026-.106-.033-.115-.174-.004-.189-.005-.387-.01-.592-.015-.503-.168-1.247-.585-1.988-1.141-1.147-.859-2.61-1.536-3.252-1.504-2.284.112-18.506-5.921-24.579-9.141-10.442-5.537-20.954-14.069-27.123-22.015-2.198-2.831-3.755-3.116-3.419-.626.269 1.988 6.712 11.588 11.204 16.69 1.969 2.238 7.016 6.649 11.214 9.802 8.838 6.639 14.783 9.702 24.498 12.624 3.957 1.189 4.558 1.217 3.385.154-.485-.439 5.896 2.089 9.3 2.807 3.46.729 5.459.919 6.012.57 1.829.54 3.942.982 5.603 1.17 13.641 1.551 32.686 1.132 48.483-1.065h-.003c9.42-1.31 17.694-2.74 35.068-6.061 9.643-1.843 24.498-4.429 29.86-5.199 2.163-.31 12.377-1.176 15.61-2.134l1.52-.451s2.4-1.236 2.926-.862c.624.445 2.457.537 5.293.267 4.17-.398 6.756-.43 6.756-.43l12.967-.638c19.737-.97 37.09-.272 74.705 3.009 22.325 1.947 31.863 2.384 33.327 1.525.426-.249.638-.413.633-.479.398-.043 1.05-.12 1.896-.225 1.758 1.678 3.965 1.522 12.374 1.108 5.694-.28 14.027-1.091 18.519-1.803 34.093-5.403 53.503-15.549 68.014-35.556 6.519-8.987 12.379-22.2 8.977-20.241-.37.213-1.827 2.21-3.238 4.437-5.926 9.354-16.099 19.051-27.148 25.876-15.34 9.476-30.315 14.227-50.905 16.151-4.428.414-7.057.682-8.764.976-.238.011-1.825.074-4.128.16-.521-.304-1.672-.389-3.516-.298-1.793.088-2.921.257-3.542.545l-3.989.127-.125-.173-4.126-.182c-3.251-.145-4.565-.049-4.608.564-2.138.025-3.516.004-3.52-.091-.028-.558-2.849-.901-10.35-1.26-5.671-.272-12.045-.652-14.164-.845-2.12-.194-7.474-.58-11.899-.859s-11.352-.72-15.392-.981c-44.899-2.898-67.437-1.417-123.711 8.127-17.239 2.924-28.649 4.734-37.406 5.935-7.322 1.003-36.894 2.657-39.681 2.219-1.322-.208-6.037-.655-12.143-1.11-2.779-.208-3.243-.122-2.578.474.113.102-.751.102-2.081.072zm277.234-3.147c-.002-.026-.039-.037-.11-.032s-.178.026-.319.065c-.055.014.1.002.429-.033z"/><path d="m120.59 46.837c-.232.213-1.203.167-1.203.167l-9.288-.008c-4.529.297-6.567.759-10.765 2.443-6.165 2.472-12.918 7.81-16.731 13.224-2.755 3.913-5.215 10.674-5.719 15.721l-.327 3.27s.512 7.625.968 10.285c.954 5.567 2.355 10.757 3.824 14.568 8.99 23.323 28.544 39.323 55.176 45.147 5.303 1.16 8.835 1.585 18.701 2.248 5.753.387 32.024-1.95 50.345-4.479l-.003-.001c49.574-6.842 56.847-7.591 89.865-9.253 31.237-1.571 48.119-1.646 75.657-.331 47.14 2.25 64.119 1.712 80.696-2.558 28.638-7.376 49.203-27.119 55.644-53.419 1.576-6.432 2.472-20.543 1.838-22.563-.281-.894-.72-3.176-.976-5.071-1.19-8.807-9.077-18.71-18.493-23.221-7.364-3.528-11.243-4.228-20.574-3.712-7.384.408-9.138.715-15.213 2.653-9.089 2.9-20.835 6.226-34.738 9.837-7.064 1.835-13.545 3.589-14.119 3.617s-15 3.013-16.413 3.462c-.84.267-2.62.595-3.956.729-1.336.133-4.182.637-6.324 1.119-2.913.655-9.544 2.029-11.637 2.369-2.093.339-6.453 1.044-9.687 1.566-3.235.522-7.592 1.283-9.682 1.692-2.089.409-8.481 1.271-14.203 1.917-5.722.645-12.277 1.387-14.565 1.648-9.341 1.066-47.245 2.727-58.36 2.558-6.471-.099-13.045.275-13.409.027-.363-.249-7.729.207-7.729.207s-6.465.72-6.477.478-10.297-1.195-10.297-1.195-6.925-1.596-11.903-2.149-10.153-1.087-11.5-1.186c-13.209-.975-39.077-4.68-58.588-8.391-6.692-1.273-9.397-.862-10.081-1.313-1.509-.995-9.161-2.644-9.754-2.102zm348.696 45.433c.915-.718 2.869-2.186 2.869-2.186l-.987.173-2.228-2.686c-4.906-5.912-15.14-9.992-29.412-11.726-5.96-.724-19.399-.481-27.159.492-3.044.381-3.846.303-4.052-.399-.267-.906 2.109-1.963 24.082-10.712 16.446-6.548 20.822-7.663 32.27-8.226 10.597-.521 18.927.293 26.2 2.561 2.138.666 4.047 1.065 4.242.887.56-.513-2.226-4.739-5.953-9.028-4.605-5.301-10.889-9.773-16.506-11.75-4.157-1.462-5.235-1.593-10.891-1.314-5.91.29-10.098 1.29-18.972 4.527-.565.206-3.341 1.202-6.168 2.212s-7.235 2.622-9.795 3.58c-2.559.959-9.941 3.758-11.441 4.033-1.501.274-5.172 1.528-8.158 2.785-2.986 1.258-5.947 2.312-6.579 2.343-.633.031-2.592.636-4.355 1.343-1.762.707-4.541 1.639-6.174 2.07s-16.002 4.846-19.026 5.755c-3.805 1.145-13.719 3.868-21.35 5.512-10.038 2.163-29.072 3.429-34.241 2.277-1.65-.367-3.185-.5-3.41-.294s2.772 10.702 6.659 23.323c3.888 12.622 6.942 23.069 6.788 23.217-.154.147 1.676 3.694 2.303 6.858.156.787.593 1.388.97 1.335.378-.053 2.17-2.426 3.982-5.272 1.813-2.847 3.635-5.486 4.05-5.866.56-.512 1.811-.285 4.869.884 10.033 3.835 28.287 6.658 47.627 7.366 13.733.503 17.664.092 9.729-1.017-20.215-2.826-37.914-9.229-47.509-17.187-5.297-4.394-4.437-5.297 1.968-2.067 2.66 1.341 7.1 3.203 9.865 4.136 4.993 1.686 18.01 4.302 18.622 3.742.175-.16-.659-1.74-1.854-3.511-1.806-2.676-2.513-4.032-3.576-8.254-1.917-7.614 7.077-15.866 8.089-15.108.261.195-.014 1.567-.61 3.049-1.354 3.362-2.998 21.088 19.266 19.993 14.206-.698 19.729-14.844 14.966-20.924-2.641-3.371-1.555-3.824-.337-3.884 1.383-.068 5.363 4.639 6.751 7.984 1.47 3.547 1.708 7.971.618 11.506-.776 2.517-.748 2.73.358 2.675 2.555-.125 33.009-10.816 38.952-13.674 2.109-1.014 4.616-1.796 4.648-1.533zm-342.273-37.815c-.176.009-1.338-.028-1.682-.035-1.682-.035-4.692.649-5.645.826-.761.142-3.141 1.03-5.291 1.973-4.283 1.88-6.68 3.811-6.68 3.811l-1.904 1.557c-1.048.857-3.324 3.379-5.059 5.606-3.112 3.996-4.751 7.261-4.751 7.261s-1.694 8.24-.85 8.198c1.241-.061 5.423-7.721 14.389-9.957 5.107-1.273 23.041-.57 27.832.257 2.306.398 5.431.906 6.945 1.129 1.514.222 3.579.729 4.589 1.125 1.01.397 2.95 1.038 4.312 1.425 21.256 6.047 29.188 8.665 28.874 9.53-.145.401-1.018.717-1.939.702s-5.283-.022-9.694-.015c-20.716.033-41.808 7.418-48.098 16.841-.658.986-1.178 2.211-1.154 2.723.065 1.395 22.329 7.826 40.246 11.625 6.642 1.409 7.434 1.377 6.686-.268-1.249-2.749-1.728-10.684-.802-13.293 1.635-4.608 5.407-9.135 6.765-8.118.187.139-.08 1.388-.591 2.775-2.784 7.551-.626 13.611 7.023 17.86 7.648 4.249 26.126 1.798 28.113-11.952.2-1.386.892-3.348.1-5.889-.682-2.188-1.366-3.52-3.297-4.966-.281-.211 1.998.966 2.414 1.396 1.448 1.497 5.606 4.794 6.741 8.446 1.4 4.509.901 9.394-1.379 13.494-1.058 1.902-1.672 3.572-1.366 3.71.77.348 11.292-2.667 15.862-4.546 4.348-1.787 9.619-4.577 12.7-6.72 5.027-3.498 4.944-.86-.117 3.756-9.063 8.264-23.63 15.076-43.123 20.164-8.594 2.243-5.673 2.376 8.629.393 20.709-2.872 34.018-6.292 46.09-11.842 2.285-1.051 4.382-1.921 4.66-1.935.277-.014 2.396 2.347 4.708 5.247 2.311 2.899 4.445 5.381 4.741 5.514.296.134.85-1.383 1.23-3.371.381-1.987 1.293-6.505 2.027-10.038.734-3.534 2.377-11.549 3.652-17.812 1.274-6.262 2.95-14.378 3.724-18.034s1.259-6.759 1.077-6.895-2.537.311-5.233.994c-4.016 1.016-6.759 1.269-15.158 1.395-10.522.159-17.261-.465-35.181-3.258-4.833-.754-10.209-1.581-11.948-1.84-3.652-.543-10.572-2.176-11.634-2.746-.399-.214-4.531-1.2-9.183-2.191-4.652-.992-9.733-2.204-11.292-2.695-1.558-.49-3.781-1.018-4.94-1.173-1.158-.155-4.81-1.017-8.115-1.916-12.366-3.362-15.266-4.062-17.998-4.341-1.542-.157-3.93-.707-5.307-1.221-2.517-.94-12.618-2.769-14.718-2.666z"/><path d="m57.556 55.839c3.752-11.041 12.299-18.687 26.135-23.381 5.146-1.746 6.226-1.898 17.316-2.447 10.081-.498 12.896-.431 19.06.458 6.717.968 9.521-.869 10.69.467.998 1.142 3.363 1.918 11.466 3.763 5.615 1.279 11.592 2.486 13.282 2.683s7.034 1.116 11.874 2.043c12.033 2.305 17.755 3.246 28.774 4.736 8.744 1.181 29.673 3.102 32.458 2.979 1.961-.088 1.316-1.736-.798-2.04-14.035-2.014-22.238-3.626-35.741-7.02-3.107-.781-8.349-2.073-11.649-2.871s-8.386-2.112-11.303-2.921c-2.916-.808-6.408-1.603-7.758-1.765-1.351-.163-3.752-.837-5.336-1.498-3.065-1.279-11.787-3.555-15.865-4.141-1.352-.194-5.949-1.119-10.214-2.055-22.162-4.865-41.328-4.363-53.647 1.405-11.412 5.344-19.012 15.973-21.536 30.12-.903 5.062-.628 8.006.63 6.754.309-.307 1.281-2.678 2.162-5.269z"/><path d="m410.427 21.42c-1.234.06-20.578 6.785-21.442 7.443-1.133.863-13.471 4.637-24.783 7.581-11.364 2.957-12.23 3.262-11.567 4.065.622.754 2.776.538 12.621-1.268 18.69-3.428 31.467-6.52 30.972-7.496-.176-.347 4.518-.467 7.473-1.237 1.221-.318 6.922-1.962 10.138-2.864.668-.157 1.385-.345 2.084-.544.012-.001.033-.007.063-.018 2.039-.584 3.898-1.261 3.884-1.558-.013-.255.421-.347.963-.203.542.143 2.179-.068 3.638-.47 1.459-.401 2.81-.729 3.002-.728.192 0 2.97-.942 6.174-2.098 7.433-2.681 19.874-6.456 27.831-8.445 8.537-2.133 27.67-3.186 34.083-1.875 6.18 1.264 12.27 3.511 16.884 6.23 4.724 2.784 10.733 9.206 12.702 13.575 1.345 2.985 3.025 4.951 4.181 4.894.331-.016.417-.605.193-1.31-.224-.704-.985-3.26-1.689-5.679-2.683-9.215-6.86-15.336-14.257-20.892-3.486-2.618-6.629-4.361-9.897-5.487-14.058-4.845-34.865-2.66-60.632 6.367-4.098 1.435-8.994 3.145-10.88 3.798-9.947 3.447-16.367 5.783-17.369 6.321-.617.331-2.583 1.185-4.37 1.898z"/><g fill-rule="nonzero"><path d="m43.78 253.024c-6.011 26.621-13.123 63.775-18.275 81.997-.687 2.42-1.117 3.63-1.289 3.63-1.03 0-8.415-15.588-22.155-46.764-1.374-3.132-2.061-4.84-2.061-5.125 0-5.267 2.147-15.161 6.441-29.681 3.263-10.961 8.078-38.592 8.078-44.998 0-1.424 1.374-31.297 0-43.112-.172-.57-.258-1.139-.258-1.709l-1.03.428c-.172-.285-.344-.499-.516-.641.172-1.993 3.349-6.975 9.532-14.947 10.992-1.993 18.014-33.975 22.651-33.975 4.122.142 6.269.925 6.441 2.348 0 .428-.172.926-.515 1.495l1.932 1.602 2.447 2.242v.213c2.577 3.417 2.934 64.005 9.975 76.817 2.576 4.413.138 10.13 6.698 20.017 6.56 9.886 11.336 28.455 13.912 32.725 6.698-29.894 11.891-45.413 14.468-68.19 20.437 20.499 29.082 4.851 29.435 16.988.969 33.274-8.609 66.15-8.609 91.347v6.833c1.179 3.441 1.179 6.521.515 7.473-3.529 5.069 2.061 16.158 4.637 30.963 0 .711.172 1.281.516 1.708 0 0-5.926-4.057-17.776-12.172-3.435-2.704-6.612-5.195-9.532-7.473-3.95-3.132-8.029-6.548-12.237-10.25-4.208-3.701-7.428-6.619-9.661-8.755l-3.349-3.416c.687-1.139 1.717-3.915 3.091-8.328l-31.188-31.603c0-.712-.773-3.274-2.318-7.687z"/><path d="m185.745 310.464c0 3.844.172 9.467.515 16.87.344 4.84.515 8.398.515 10.676v4.057l.258.427c-9.961-8.541-24.388-21.922-43.28-40.144-2.061-1.993-3.779-3.63-5.153-4.911 1.374-1.993 3.092-6.335 5.153-13.026 6.526-22.919 9.789-30.37 9.789-53.147 0-11.246-1.288-23.559-3.864-36.941 1.546 0 12.28 6.691 32.203 20.072 4.98 3.417 7.557 5.268 7.728 5.552 0 .143-.086.356-.257.641v.64c0 6.691-.945 15.139-2.834 56.137-.515 12.669-.773 23.702-.773 33.097z"/><path d="m243.195 267.758c-6.012 26.62-11.593 49.041-16.746 67.263-.687 2.42-1.116 3.63-1.288 3.63-1.03 0-8.416-15.588-22.155-46.764-1.374-3.132-2.061-4.84-2.061-5.125 0-5.267 2.146-15.161 6.44-29.681 3.263-10.961 4.895-10.407 4.895-16.813 0-1.423-.687-8.043-2.061-19.858-.172-.57-.258-1.139-.258-1.708l-1.03.427c-.172-.285-.344-.499-.515-.641.171-1.993 3.349-6.975 9.532-14.947 10.991-1.993 18.806-2.99 23.443-2.99 4.122.143 6.269.926 6.441 2.349 0 .427-.172.926-.516 1.495l1.933 1.601 2.447 2.243v.213c2.576 3.417 7.385 2.293 14.427 15.105 2.576 4.413 4.809 8.043 6.698 10.89 6.698 9.822 11.335 16.869 13.912 21.139 6.698-29.894 26.144-63.838 28.72-86.615 20.438 20.499 23.474 40.213 22.292 49.271-4.321 33.089-14.004 13.354-16.719 70.826v9.239c6.527 6.121 8.3 10.52 8.987 11.09-3.263-.57-3.523 6.985-7.129 5.846.515 5.837 1.719 10.952 4.295 25.757 0 .711.172 1.281.515 1.708 0 0-5.925-4.057-17.776-12.172-3.435-2.704-6.612-5.195-9.532-7.473-3.95-3.132-8.029-6.548-12.237-10.25-4.207-3.701-7.428-6.619-9.66-8.755l-3.349-3.416c.687-1.139 1.717-3.915 3.091-8.328l-32.718-16.869c0-.712-.773-3.274-2.318-7.687z"/><path d="m409.618 232.738c0-14.235-2.061-22.934-6.183-44.572 1.03 0 12.108 5.391 33.233 22.331 5.324 4.271 8.072 6.62 8.244 7.047.343 9.68.515 10.639.515 15.194 0 28.756-3.435 55.733-8.244 79.221-1.889 11.104-8.845 20.499-20.867 28.186-8.759 4.556-18.377 6.834-28.854 6.834-8.759 0-17.518-1.709-26.277-5.125-14.942-6.549-24.817-15.944-29.626-28.187l-1.546-4.27s1.889 1.779 5.668 5.338c4.465 3.559 9.102 6.264 13.911 8.114 6.011 1.993 11.507 2.99 16.488 2.99 8.587 0 15.629-2.064 21.125-6.193 2.748-2.42 4.239-3.522 4.411-5.942 0-1.708-.547-4.45-1.577-5.588.515.427 4.906-.288 5.292-.571 3.746-2.751 3.715-4.619 5.573-10.778 5.957-19.752 8.714-34.846 8.714-64.029z"/><path d="m495.663 300.001c-4.465 8.257-13.052 26.478-25.762 54.665-.687 0-7.299-18.862-19.837-56.586-1.202-3.417-1.803-5.268-1.803-5.552.344-.285.859-.783 1.546-1.495 1.03-.997 1.889-1.78 2.576-2.349 5.668-5.267 14.684-16.656 27.05-34.165.859-1.139 1.546-2.136 2.061-2.99 16.316-22.776 26.054-84.394 43.572-113.577l7.729 21.78 25.762 13.667c4.809 35.588 20.404 105.747 32.426 139.201 1.202 3.274 2.662 7.189 4.38 11.744 1.889 4.84 3.091 8.114 3.607 9.823.515 2.135.858 3.274 1.03 3.416l-57.917-36.197 5.573 15.397c-1.031-1.139-18.158-10.945-25.2-12.084h-.258c-3.606-.569-9.102-1.566-16.487-2.989-4.638-.712-7.987-1.282-10.048-1.709zm44.054-26.691c-1.203-11.673-10.271-60.123-12.847-74.074-6.87 10.107-7.505 58.343-16.265 73.433 3.951.427 7.815.641 11.593.641h3.607c2.405.142 4.466.213 6.183.213.172 0 2.748-.071 7.729-.213z"/></g></g></svg>