<svg clip-rule="evenodd" fill-rule="evenodd" stroke-linejoin="round" stroke-miterlimit="2" viewBox="0 0 600 360" xmlns="http://www.w3.org/2000/svg"><g fill="#fff"><path d="m260.337.243v226.201l51.217 16.227v-189.667c0-8.938 3.985-14.872 10.376-12.83 8.356 2.317 9.98 10.55 9.98 19.388v75.748c31.88 15.43 56.98-.008 56.98-40.721 0-41.602-14.715-60.136-58.016-75.038-17.077-5.684-48.729-15.28-70.536-19.308" fill-rule="nonzero"/><path d="m321.295 209.602 82.259-29.28c9.306-3.448 10.729-8.134 3.196-10.597-7.648-2.508-21.303-1.791-30.706 1.587l-54.749 19.312v-30.816l3.135-1.034s15.848-5.615 38.137-8.032c22.247-2.439 49.53.318 70.973 8.4 24.155 7.674 26.862 18.866 20.751 26.655-6.2 7.71-21.232 13.286-21.232 13.286l-111.764 40.148z"/><path d="m166.494 206.485c-24.767-6.899-28.897-21.477-17.597-29.898 10.42-7.691 28.169-13.48 28.169-13.48l73.368-26.159v29.773l-52.748 18.906c-9.344 3.344-10.745 8.047-3.218 10.506 7.659 2.56 21.253 1.872 30.602-1.578l25.364-9.144v26.579c-1.635.274-3.453.551-5.112.834-25.287 4.197-52.228 2.474-78.828-6.337z"/><path d="m511.949 323.894h51.155c.291 0 .488.197.488.397v8.035c0 .397.3.595.591.595h17.073c.303 0 .59-.198.59-.595v-7.837c0-.298.303-.595.593-.595h16.968c.396 0 .593-.298.593-.594v-7.936c0-.3-.197-.595-.593-.595h-16.968c-.29 0-.593-.3-.593-.594v-57.236c0-4.67-1.734-7.645-4.653-8.631h-4.94c-1.539.395-3.213 1.103-5.008 2.182l-58.453 62.989c-3.406 3.749-4.751 5.255-3.763 7.338.79 1.787 2.473 3.077 6.92 3.077zm50.888-50.916c-.227-.001-.456.077-.627.213 0 0-35.463 40.188-35.463 40.188-.38.225-.585.45-.616.719-.01.086-.002.177.023.274.024.052.062.103.118.151.157.138.456.246.964.246h35.868c.291 0 .593-.296.593-.594v-40.19c0-.716-.426-1.005-.86-1.007z"/><path d="m131.014 277.408-.145.218 18.632 54.56c.031.122.031.311-.009.431l-10.49 27.014c-.044.127.014.222.137.222h10.925c.141-.003.268-.091.321-.222l32.705-82.005c.047-.131-.011-.218-.139-.218h-11.92c-.136.006-.256.092-.305.218l-13.847 35.853h-.155l-12.225-35.852c-.028-.132-.168-.219-.293-.219z"/><path d="m375.25 277.408h-12.556c-.123.002-.225.101-.229.225v55.063l.229.225h12.556.003c.124 0 .227-.101.229-.225v-55.063c0-.001 0-.002 0-.004 0-.121-.1-.221-.222-.221-.003 0-.007 0-.01 0z"/><path d="m354.485 277.408h-13.558l-.092-.084v-9.135l-.207-.224h-12.584c-.124 0-.227.1-.231.224v48.104c0 9.636 5.996 16.628 14.26 16.628h8.992c.121 0 .221-.1.221-.222 0-.001 0-.002 0-.003v-7.505c0-.123-.087-.238-.221-.238h-5.52c-1.42-.022-4.71-.093-4.71-7.192v-32.385l.076-.073c4.144.022 13.574 0 13.574 0l.224-.205v-7.465c-.003-.122-.102-.221-.224-.225z"/><path d="m31.225 260-30.995-.014c-.122-.002-.226.096-.23.218v72.492c0 .116.102.225.23.225h12.562l.221-.225.014-64.623.075-.107 14.383-.027c5.237 0 8.114 5.277 8.114 14.841 0 9.569-2.877 14.858-8.114 14.858l-8.657-.009c-.129 0-.217.099-.217.223v7.521c0 .147.088.236.217.236h12.397c4.374 0 8.657-2.027 11.748-5.51 3.662-4.133 5.591-10.101 5.591-17.253 0-13.859-6.77-22.846-17.339-22.846z"/><path d="m69.108 259.986h-12.57c-.143 0-.245.101-.245.218v72.492c0 .118.102.225.245.225h12.57l.231-.225v-72.492z"/><path d="m266.788 277.408h-13.635l-.072-.084v-9.135c0-.121-.093-.224-.219-.224h-12.558c-.128 0-.239.103-.239.224v48.104c0 9.636 6.006 16.628 14.277 16.628h8.993c.129 0 .229-.109.229-.225v-7.505c0-.123-.1-.238-.229-.238h-5.521c-1.415-.022-4.732-.093-4.746-7.192v-32.385l.077-.073c4.177.022 13.643 0 13.643 0l.222-.205v-7.465c0-.123-.1-.223-.222-.225z"/><path d="m462.13 277.408h-22.411c-.122.002-.221.102-.221.225l-.007 55.063.21.225h12.58l.212-.225-.017-47.272.087-.092 9.556-.007c2.584 0 5.419.417 7.233 3.405 1.658 2.7 2.411 7.447 2.411 14.897.01.322-.01 29.069-.01 29.069 0 .116.1.225.223.225h12.526c.136 0 .236-.109.236-.225v-27.614c0-12.942-2.586-27.674-22.608-27.674z"/><path d="m123.927 277.632c0-.129-.113-.225-.237-.225h-22.384c-20.071 0-22.638 14.733-22.638 27.681l.016 11.198c0 9.637 5.993 16.634 14.232 16.634h12.213l.221-.224v-7.513c0-.122-.104-.232-.221-.232l-8.723.015c-2.01-.041-4.716-.891-4.716-7.801v-12.09c-.009-8.034.739-13.171 2.407-16.093 1.807-3.225 4.651-3.659 7.209-3.659h9.541l.081.114-.012 47.259c0 .115.097.224.231.224h12.546c.124 0 .235-.109.235-.224z"/><path d="m214.346 290.322-6.19-.472c-4.642-.399-8.094-2.97-8.094-10.576 0-8.88 3.983-11.31 9.3-11.31h17.132l.227-.221v-7.538l-.227-.217h-.358l-18.56.005c-11.693 0-20.008 6.867-20.008 20.553v.596c0 10.8 6.645 18.594 16.548 19.352l6.161.456c4.699.356 7.626 4.558 7.626 10.935v1.794c0 3.987-.997 11.282-9.547 11.282h-17.801c-.124.003-.224.107-.224.231v7.504l.224.224h22.1c6.81 0 18.212-2.755 18.212-21.289 0-6.716-1.525-12.008-4.617-15.833-2.635-3.286-6.54-5.062-11.904-5.475z"/><path d="m317.287 277.632c-.001-.123-.102-.225-.225-.225h-22.434c-20.028 0-22.621 14.733-22.621 27.681l.016 11.198c0 9.637 5.988 16.634 14.27 16.634h12.179l.227-.224v-7.513c-.003-.125-.103-.227-.227-.232l-8.728.015c-2.003-.041-4.684-.891-4.692-7.801v-12.09c0-8.034.756-13.171 2.385-16.093 1.809-3.225 4.671-3.659 7.187-3.659h9.584l.094.114-.023 47.259c0 .115.104.224.229.224h12.565c.123 0 .214-.109.214-.224z"/><path d="m407.507 277.409c-20.975 0-23.657 14.802-23.657 27.745 0 12.957 2.682 27.808 23.657 27.808 20.978 0 23.653-14.851 23.653-27.808 0-12.943-2.675-27.745-23.653-27.745zm7.962 43.898c-1.976 3.255-5.115 3.69-7.962 3.69-2.819 0-5.966-.435-7.964-3.69-1.802-2.929-2.636-8.062-2.636-16.154v-.064c0-9.551 1.175-14.977 3.804-17.561 1.573-1.568 3.611-2.205 6.796-2.205 3.232 0 5.25.637 6.822 2.205 2.604 2.584 3.782 8.033 3.782 17.625 0 8.103-.837 13.239-2.642 16.154z"/><path d="m375.25 259.986h-12.556l-.229.218v10.528c0 .128.112.221.229.221h12.556c.137 0 .232-.093.232-.221v-10.528c0-.117-.095-.218-.232-.218z"/></g></svg>