<svg clip-rule="evenodd" fill-rule="evenodd" stroke-linejoin="round" stroke-miterlimit="2" viewBox="0 0 600 114" xmlns="http://www.w3.org/2000/svg"><path d="m50.73 29.724.326-.074c.381-.085.766-.16 1.18-.16 4.268 0 8.298-1.265 12.645-1.107l.395.237.158-.316h.79l.158.711.79.159.316.316v.474l-.395.711v.316l-.632.158c-.079.553-.237 1.107-.474 1.581.079.237-.158.948-.237 1.185l-.632.316c-.237.553-.237 1.265-.633 1.739-1.027.632-.948 1.896-1.185 2.924l-.474.711v.158l-.237-.237-.711.237-.079.395.395 1.107-.632.316c-.396.79-.949 1.501-1.028 2.37l-.632.475c-.237.474-.553.869-.869 1.264-.237 1.027-.712 1.897-1.107 2.845l.712.395-.317.395-.79.237v.395c0 .554-.079 1.186-.711 1.344-.079.711-.553 1.185-.553 1.897v.158l-2.608.79h-.553l.316-.079c.079-.079-.869-.316-.869-.316-.08-.079-.317-.079-.475 0 0 .158.158.316.395.395-.316 0-.553.079-.632.158-.079.158.474.316.632.316l.554-.158-.316.395-.475.158c-.158.158-.237.316-.632.316l-.553.395s-.237 0-.237.079l.553.237.869-.079c0-.237.475-.237.712-.158l.553-.316 1.501.158-.474.633h-.158v.079c-.316.237-.632.395-1.185.316-.632.158-1.107.237-1.818.474l.158.158c-.079.079-.395.158-.711.237 0-.158-.237-.237-.395-.237l-.316-.079c-.237.395-.712 0-.949.474l-.948.395c-.711-.079-1.106.474-.474.553l-.711.158-.633.316c0 .08.159.159.159.159.237.079 2.133-.238 2.449-.238v.159c-2.845.948-5.294 2.291-8.535 2.607l.238.791 1.106-.158-3.24.948h-1.423c-.237.316-.711.158-.948.474-1.264.395-3.635.395-4.504 1.106h.237c.711.158 1.896-.553 2.608-.395 1.185-.395 3.556-.474 5.136-.79.237-.316 1.028-.395 1.502-.316-.079-.079-.079-.237-.079-.316h.316l.237.395.395-.158c.79.316.948-.158.711-.474l1.028-.079c0 .079-.079.158.158.158.237.079.553 0 .79-.079.711-.079 1.659-.158 2.292-.474 1.027 0 3.082-.237 3.872-.554.237-.158.395-.158.711-.158h.395v.475l-.474.474-.079.869-.395.711-.158.079c-.079.711-.079 1.502-.711 1.976l-.474 1.106.079.474c0 .158-.079.475-.317.475-.158.395-.316.948-.632 1.264.079.869-.079 2.055-.158 2.924l.158.395c.553-1.027.87-2.134 1.423-3.161l.395.395-.395.869v.554c0 .395 0 .869-.316 1.185-.237 1.185-1.344 3.872-1.344 4.584-.474.474-.869.869-.869 1.58l.316.079c.632-.948 1.185-2.292 2.055-3.082v-.079c.711-.948.711-1.976 1.106-3.003h.079c.474-.948.79-1.659 1.185-2.687 1.186-1.343 1.423-2.687 2.45-4.03l.079 1.027.237.395-.395.237c-.158.554-.474 1.107-.553 1.739l-1.027 1.264c-.237 1.818-.632 1.344-.949 4.663l-.869.474.079.632.395.395c.553-.395.712-1.185 1.186-1.501.079-.237.316-.79.237-1.027l.711.316c.395-.079.869-.079 1.264-.079-.158 1.264-.474 2.529-.948 3.714v.079l-.711.474v.395l-.632.316h-.079l.079-.79-.791.395c-.869 0-3.477.158-3.951 1.107-.711 0-1.343.237-2.055.079l-.237.237c-.553-.079-1.185 0-1.659.237l-.87-.079-.237.237c-.948 0-1.343.553-2.133 1.106l-.87-.395c-1.027.474-1.896 1.185-2.924 1.66l.158-.237-.711.079c-.237.158-.553.474-.869.553h-1.66v.079l-.632.553v.079c-.553.158-1.264.237-1.738.553l-.633-.079-.158.316-.711-.158-.158.237-.79.079-.158.237h-1.107c-.79.554-1.264.87-2.212.87-.633.237-1.265.632-1.897.869-.316 0-.79-.158-1.106-.079l-1.107.237c-.316.395-.711.711-1.106 1.027l-1.027.237-.554.554-.948-.079-.711.316c-.138 0-.277-.015-.415-.032l-.119-.015c-.138-.017-.276-.032-.414-.032-.475.316-1.265.553-1.818.474l-.711.395-.791-.158-.079.316.712.474.632-.316 1.343.158 1.265-.632.079.395c.474.158.869.316 1.343.316l.711-.474c.158.158.475.474.158.632l.159.395c.395.079 1.58.079 1.896.395.948-.79 2.45-.632 3.635-.474l.633-.237 1.027.079c.474-.158 1.027-.316 1.58-.316l.791.079v.316l-.158.395-.87-.395-.158.395-.237.158-.474.079c-.237-.079-.553-.079-.79-.079-.395.238-.79.475-1.265.633h-.474l-.395.395-.632-.079c-1.186 0-2.292.474-3.398.395l-.237.237c-1.265-.237-3.715 1.106-4.821.237l-.395.632h-.474l-.711.395c-.381-.108-.761-.105-1.141-.092l-.519.013c-.553 0-1.422-.237-1.897.079-.553.079-1.185.079-1.738 0l-.553.237-.237.317 1.027.316.632-.316.869.316h-1.027l-.711.395-.949-.316c-.474.237-.948.474-1.501.553-.395-.158-.79-.237-1.185-.316l-.87.316-.553-.237c-.553.079-1.185.079-1.659.395l-.791-.079c-.237 0-.553.079-.79.158.79.237 1.739.316 2.608.316.316 0 .711-.079.948-.237l.711.158.079-.237c.633.158 1.423.079 2.055.158l.553-.237.474.474c.727 0 1.468-.015 2.211-.032l.637-.015c.743-.017 1.484-.032 2.21-.032.553 0 1.423.316 2.055.395l.474-.711c.711.158 3.477.316 3.793.553l.87.079c.869 0 1.659-.158 2.449-.237l.475-.237c1.185.316 2.607-.158 3.793 0 .237.079.632.237.869.158l.553-.395c.158.079.712.474.87.474l.158-.158.632.079.553-.79h.158c.049.01.099.021.148.033l.297.072c.247.059.493.102.74.053l-.237.395h-.79l-.158.395.079.395 1.106.158.791-.316.869.079v-.632l.632-.237-.158-.632.553-.237c.079.474.158.948.316 1.343l1.028.474.632-.632-.474-.395c.316-.079.632-.316.869-.553l-.158-.632.79.158-.079.316c.633 0 1.265 0 1.897.079l.79-.237c1.028.237 2.055-.158 3.003.158.553-.395 1.502-.395 2.134-.712h.079l.395-.316c.711.079 2.292.079 2.924-.237l.079-.237c.395 0 .948 0 1.344.079l.79-.316c.237.079.553-.079.79-.158l.553.079.791-.316h1.027v-.711l.553-.316-.158-.633.632-.395c.158.474.395.949.395 1.502.395 0 .791.158 1.186.316l.632-.553-.553-.474c.395-.159.79-.396 1.027-.712l-.158-.553.79.079v.395c1.107-.316 2.608-.237 3.794-.237.869 0 1.738-.237 2.607-.237l.317-.316c.711-.158 1.896-.474 2.37-1.027l.554.079c.474 0 2.607-.237 2.686-.791.475-.079 1.028-.079 1.502 0l1.659-.632.159-1.659c-.475 0-.949.158-1.423.316v.237l-.553.711-.316-.316c-.474 0-1.028-.237-1.423-.553v-.395c.553-.079 1.265-.316 1.818-.237l.158-.317h.395l.316-.316.474.079c.791 0 1.66-.237 2.371-.553.395.079 1.581-.237 1.739-.632.632-.237 1.343-.079 1.896-.474.237.079.633.237.87.158l.237-.316h.79c.474-.395 1.027-1.265 1.739-1.344v.475l.316.632-.316.474-.791.079-.316-.316-.079-.316-.237.79-.237.158-.79.158-.316.316c-.949.316-1.976.316-2.845.79h-.237l-.317-.316-.632.474c-.395.08-.869.238-1.264.159l-.553.316c.158.474.158 1.58.632 1.817l.632-.316c.158-.395.395-.869.711-1.185l1.423.869.711-.474h.079l.711-.553.791-.079.158-.395c.632-.317 1.501-.159 1.896-.791l1.186-.237.711-.553h.079l.79-.316c-.395-.237-.79-.553-1.027-.869v-1.107c.158-.158.474-.474.79-.474.079 0 .158 0 .237.079l-.632.553v.079l.079.87h.395l.395-.791v.316c.316.475.711.949 1.265.949.237 0 1.106-.316 1.343-.474.395-.475.869-.791 1.502-.712.395-.316.869-.553 1.343-.711l.474.079.79-.395.238-.395.632.079.79-.395h.237l.316-.632c-.869-.317-1.896-.317-2.766-.396l-1.659.554v.079h-.474c.237-.158.553-.554.869-.633l.474-.632c.474-.158 1.581-.632 1.897-1.027l-.079.632c.395.158.869.316 1.343.316.711 0 1.423-.474 2.213-.474-.158.395-.553.711-.869.948.395-.079 1.343-.316 1.343-.79 0-.237-.079-.395-.237-.553l-.79-.158-.554-.474c1.344-.87 2.134-1.186 3.32-2.371v-.079l.632-.632v-.079c.711-.554 1.58-.949 2.054-1.739.238-.553 0-1.027.079-1.58.475 0 .87-.158 1.186-.554h.553l.158-.711.632-.632-.079-.474.633.474-.475.711-.079.395-.395.633-.711.474v.237l.711-.079c.237-.395.711-.87 1.186-1.028l.079-1.264.395-.316c.237-.553.711-1.107 1.185-1.581l-.632-.553.79-.79.395.948c-.316 1.028-.474 2.134-.948 3.161h-.079l-.869.395-.316.87.237.79.79-.395h.237c.316-.474.474-1.107.711-1.66 1.107-.553.791-2.212 1.976-2.687.079-.395.395-1.58.869-1.738l.237-4.9-.316-.632c.064-.382-.334-1.686-.574-2.386.325-.038.658-.064 1.001-.064 0-.237.395-.237.553-.237l.474-.632c.633 0 1.265-.237 1.897-.237.158-.474 1.027-.158 1.264-.632.712 0 1.502-.317 2.213-.475l.237.079-.237.317c0 .395-.316.237-.316.632l-.632.474.237.395c0 .79-.553.869-.553 1.422-.237.238-.316.475-.395.791-.317 0-.238.158-.238.395 0 .316-.711 0-.711.395 0 .316.395.632.395.948 0 .158-.158.158-.237.158l-.474.633c0 .79-1.106 2.291-1.58 2.845h-.158c-.317 0-.475.158-.475.395.079.079.317.316.317.474s-.08.158-.238.158l-.158.79-1.185.79c-.079.712-.632 1.107-.632 1.818-.711 0-.553 2.45-.553 3.003 0 .316 0 1.581-.475 1.581l-.869 1.738c-.237.158-.316.474-.316.711-.316 0-.237.158-.237.395 0 .08-.158.159-.237.159l-.632 1.896c-.316.395-.791.948-.791 1.423.633 0-.316 1.343.633 1.343.158 0 .158.158.158.316.316.553.553 1.581 1.343 1.581l.316.632 1.186 1.106c.474 0 .948.633 1.185.949.632 0 .711.632 1.343.632 0 .553.712.316 1.028.316 0 .079 1.264.632 1.422.632l.632.316.87.079c.395 0 .79-.474.79-.79 1.976-.395 4.03-1.185 6.006-1.185l.158-.633h.395c.158.158.316.396.553.396s.079-.949.396-.949c.553 0 1.264-.079 1.738.237l.316-.237c.237 0 .949-.474.949-.079.948-.316 2.686-.158 2.844-1.343l1.186-.079v.079c0 .158.079.158.158.158.158 0 .316-.079.395-.158-.079-.079-.316-.237-.316-.395 0-.079.79-.237.948-.316 0 0 .712.158.395.237h-.158c0 .237.237.316.395.316.87 0 1.976-.474 2.766-.87 0-.474 1.423-.316 1.66-.316.158-.711 2.371-.395 2.687-.316 0-.237.316-.316.474-.316.395-.237.711-.632 1.185-.632l.396-.632c.79 0 1.58.316 1.58-.633l.237.317h1.107l.474-.317c.711-.079 1.343-.158 2.054-.158.237 0 1.107 0 1.186-.316l1.185-.079-.316-.632c0-.158 0-.632.316-.632.316.237.79.553 1.027.948h1.186c.474 0 .79-.395 1.185-.632h.712l.158-.316h2.291l.554-.316c.79 0 .869-.632 1.659-.632 2.766 0 5.611-.87 8.219-.87.195 0 .419-.01.628-.054l-.312.686c0 .633-.711.949-.711 1.66-.158.237-.316.474-.553.553-.87 1.028-1.028 2.529-1.976 3.635 0 .237-.474 1.344-.553 1.423 0 .474-1.028 1.343-1.028 2.134.237.553.87.553 1.344.553.316 0 .553-.079.553-.474l.553-.396c.949 0 .949-1.027 1.66-1.58 0-.079 0-.316.158-.316.237 0 .474.316.79.316v.079c0 .316-.158.553-.474.553l-.079 1.502c0 .158.079.316.237.316.632 0 1.343-.87 1.343-1.502.317 0 .633-.079.87-.316.079-.474.395-1.185.948-1.185.079 0 .474 0 .474-.158 0-.316-.79-.158-.79-.316 0-.237.237-.475.395-.633 0-.553 1.106-.553 1.106-1.343l.237-.079c.159 0 .317.079.317.316l.237.237c-.158.553-.554 1.027-.554 1.581-.316 0-.316.237-.316.474 0 .079-.079.158-.158.158l.079.632-.395.632c-.711 0-.474 1.739-.474 2.134 0 .237-.158.316-.395.316 0 .632-.632.869-.632 1.581-.316 0-.316.316-.237.553-.475.711-.949 1.422-1.344 2.134 0 .316.316.395.553.395h.158l.633-.712.553-.237v-.395c0-.158 0-.553.316-.553l.316-.632c0-.316.237-.237.474-.237.316 0 .237-.316.237-.474 0-.317.158-.475.395-.475l.079-.632c-.079 0-.158 0-.158-.079 0-.237.316-.395.316-.079l1.265-1.027.316-.949.632.238c.395 0 .474.316.87.316.316 0 .553-.237.553-.554.553 0 .553-.158.553-.632.869 0 .553-.553.869-1.264-.158 0-.237 0-.237-.158 0-.237.869-1.028.948-1.107.791 0 1.344-.711 1.423-1.501l1.185-1.423c0-.158 0-.474.158-.474.395 0 .554.395.87.395.158 0 .158-.237.158-.316l.711-.711c.395 0 .553-.237.553-.553 0-.296.087-.593.179-.889l.037-.119c.092-.296.179-.592.179-.889.87 0 .395-1.264 1.028-1.264 0-.553.553-.158.869-.158.553 0 .474-.632.079-.869 0-.475 1.027-.633 1.027-1.423l.474.079c.237 0 .712-.711.712-.948.158-.237.395-.474.632-.632h2.134l.553-.633h1.975c.158-.158.87-.711.87-.158l.237.079c.237 0 .395-.158.395-.395l.553-.474.632-1.185c.079 0 .079.237.079.237 0 .474.474.948.949.948.553 0 1.264.158 1.264-.632l.316-.237v-.632c.632 0 .474.158.474.553 0 .316.553.316.712.316.237 0 .553-.079.711-.316.632 0 .948-.237 1.659-.237.237 0 .316-.079.316-.316 1.028 0 2.134-.317 3.003-.317.317 0 .317.237.317.475-.159.316-.317.711-.317 1.106l.158.079-.158.869-.316.316c0 5.137-1.422 10.906-1.975 15.964.237.158.316.474.316.711-.316 0-.395.316-.395.553 0 .79.158 5.295.869 5.295l-.079.948-.316.553c.079.395.395.554.395.949l.711.079c.158 1.738.316 3.319.869 5.057.554 0 0-2.686 0-3.082 0-.079 0-.474.159-.474.158 0 .395.632.474.79v.08c0 .237.158.474.474.474v.158c0 .237.158.395.395.474l.79 4.504c.474.475.474 3.003.474 3.557.316 0 0-2.055 0-2.529 0-1.107.633-.158.633-1.739 0-.553-.046-1.106-.097-1.659l-.044-.475c-.051-.553-.096-1.106-.096-1.659 0-.237.395-.237.553-.237l-.237-4.347s0-.237.079-.237.158.316.158.395c0 .158 0 3.952.948 3.952l.316-.079-.079-1.186s0-.237.079-.237c0 0 .237.632.237.79l.474 8.614c0 .079 0 .158.079.158.158 0 .475-.79.554-.948l-.079-1.501c0-.079 0-.158.079-.158.237 0 .395.079.553.237.395 1.422 0 3.872.79 4.899-.237.237-.316.474-.316.791 0 .711.711 3.398.869 3.398l.553-.079-.079-1.265c0-1.501.158-2.924.079-4.583l.316-.237.08-4.347c0-.711-.159-2.529.79-2.45l-.079-.869h.237c0-2.055.316-4.03.316-6.164l.395-.316c0-.632.237-1.265.316-1.897h.079l.079-.553c.158 0 .474 0 .474-.237v-.316l-.632-.158v-1.344c0-.276.046-.538.097-.797l.044-.223c.051-.259.096-.521.096-.797l.553-.079v.237c0 .237.079.395.317.395 0-.237.079-.632.316-.79 0-.237.158-.316.158-.474v-.159l-.395-.316-.158-.316h-.08v-.237l.633-.079-.316-.869c.079-.316.316-.632.553-.79-.079-.87-.395-1.897-.237-2.687-.237-.158-.316-.553-.316-.87.237 0 .632-2.212.632-2.528.237-.238.316-.554.316-.87h.632l.079-.632h.316c.316 0 .316-.158.316-.474l-1.106-.158c0-.79.711-3.398 1.422-3.398v.237c0 .237.079.395.317.395 0-.316.079-.632.316-.869 0-.316.316-.316.316-.633 0-.237-.316-.316-.474-.316l-.158-.316-.238-.079c-.474 0-.395 1.265-.711 1.265v-.158l.079-.949.553-.79v.316h.949l-.237-.869.237-.553.316-.237c0-.475.079-1.265-.316-1.66 0-1.976 1.027-1.897 2.608-1.897.316 0 .711-.079.869-.316 0-.395.474-.395.711-.316 0-.711 2.529-.869 2.766-1.106 1.502.553 3.319-.553 4.821-.316.237-.237.474-.316.79-.316.474-.554 1.501-.396 2.134-.396 0-.948 1.422-.632 1.975-.632 0-.711.237-.553.87-.553.158 0 .395 0 .395-.237v-.395h-1.186c-1.106.553-3.082.632-4.267.632-.316 0-1.66 1.185-2.608 1.185-.237 0-.316-.158-.316-.395 0-.395 2.371-.474 2.529-.79 0-.395.553-.316.79-.316.395 0 1.976-.632 2.529-.711 0-.474 2.055-.553 2.45-.553.474 0 1.185-.712 1.659-.712.158 0 1.265-.474 1.265-.474 0-.079-.158-.079-.237-.079h-1.265v-.158c0-.711-1.817-.237-2.213-.237 0-.474.475-.474.791-.474l.79-.316 4.188-.316v-.079c0-.253.419-.312.742-.218-.299.603-.583 1.244-.583 1.956l-.238.316c0 .237-.079.553-.316.632l-.316.712c0 .711-.632 1.58-.632 2.37-.474 0-1.897 3.32-1.897 3.873-.316 0-.316.158-.316.395 0 .158-.158.237-.316.237 0 .237-.079.632-.316.79 0 .316-.079.632-.237.87 0 .316-.316.474-.316.79-.553.237-.079 1.106-.632 1.343-.158.553-.395 1.028-.633 1.502 0 .632-.158 1.343-.553 1.896 0 .316-.948 1.423-.948 3.319l-.553 1.265c.079 0 .869 0 .869.079l-1.185.316c-.237.237-.316.474-.316.79-.238 0-.317.079-.317.316 0 .396.079.791.158 1.186l.475.316c-.475 0-.316.711-.316.948 0 .711-.87.395-.87 1.186 0 .237.237.474.237.79 0 .079-.395.079-.474.079l-.395.553c0 .316.079.632.316.869l-.632.712c.079.079.316.158.316.237s-.316.079-.316.079c-.474 1.027-.79 2.212-.948 3.319l.316.158-.316.316c0 .385-.034.759-.075 1.131l-.087.741c-.042.372-.075.746-.075 1.131 0 .395.158.474.553.474.079-.395.237-2.134.869-2.134l.711-1.501c.395 0 .316-.869.237-1.106l.633-1.265c.395 0 .474-.316.395-.632l.79-1.581c0-.474.869-.632.948-1.185l.158-.474c.079 0 .079.158.079.158v1.106c-.158.395-.316.791-.316 1.265 0 .158.079.395.316.395.474-1.028.791-2.213.949-3.398.242-.104.287-.329.308-.569l.016-.206c.02-.24.066-.465.308-.569v-.474l.316-.237.237-.474c0-.079 0-.632.158-.632l.237.079c.316 0 .474-2.529.869-2.608.08-.237.475-.79.712-.79.158 0 .158.316.158.395 0 .869-1.186 2.845-1.186 4.03l-.316.237v.553c0 .474.316.712.632 1.028l-.316.237-.316 1.896c-.474 0-.948 2.213-.948 2.608.158.316.474.395.711.395.079-.079.316-.632.474-.632.316 0-.079.948-.237 1.106l.158 1.028.712-.237c0-.711.237-2.45.869-2.45l.079-.948.474-.87c.316 0 .395-.237.395-.474 0-.79.632-.869.632-1.501l.633-.474 1.185 1.106v1.659c-.158.475-.316.949-.316 1.423 0 .158 0 .395.237.395.632 0 .711-.948.711-1.422.316-.475.632-.949.869-1.502l-.079-.632c0-.237.159-.395.396-.395 0-.079 0-.553.158-.553s.158.553.158.632l.237-.079.316-.632c.869 0 .395-1.186.869-1.186.158 0 .632.237.632.474 0 .158-.158.158-.237.158-.158.554-.316 1.107-.316 1.66 0 .079 0 .395.158.395.87 0 .711-.79.711-1.422 0-.396 1.265-1.502 1.265-2.371.395-.395.237-.87.237-1.344.158-.395.395-.79.632-1.106 0-.474.158-1.264.79-1.264.079-.633.317-1.818.712-2.371 0-.712.395-.079.79-.079.079 0 .237 0 .237-.158l-.711-1.265c.158.158.316.237.474.237s.158-.553.158-.711c0-.237 0-.79-.316-.79l-.079-.711.474-.791c.553 0 .474-.079.474-.553l.316-.079c0 .553.633 0 .633.632l-.475-.079c-.158 0-.474.079-.474.316-.079 0-.316.158-.316.237s.316.079.316.079c0 .317.79.791 0 1.423 0 .237.237.948.474.948.158 0 .158-.237.158-.316.396-.316.158-1.185.633-1.264l.316-.316v-.633l.316-.711c-.079 0-.237-.158-.237-.237s.237-.079.316-.079l.237-.711c.158-.158.237-.553.237-.79l-.553.237c-.316 0-.948-.158-.948.316l-.317-.316c.475 0 .475-.554.396-.87h.079c.237 0 .474-.079.474-.395l-.316-.395-.633-.079c.633 0 0-.632.554-.632l1.896-2.687s.158 0 .158-.079-.553-.316-.632-.395c.237-.316.553-.711.632-1.107l.316-.237c.237-.474.158-1.343.554-1.659.079-.553.237-1.186.553-1.66.948 0 .316-1.501.948-1.501 0-.395.316-.553.316-.949.237 0 .316-.079.316-.316s.158-.237.316-.237v-.316c0-.237.158-.316.396-.316l.79-.553s0-.395.079-.395c0 0 .158.553.158.632l-.553.632c0 .395-.316.711-.316 1.107l-.633-.238-.553.712c0 .553.316.79.632 1.185l-.316-.316c-.316 0-.395.395-.316.632-.395 0-.237.395-.079.553.079.712.474 1.818-.474 1.818-.395.79-.711 1.66-1.027 2.45-.158.079-.712.316-.237.316l-1.344 2.766-.869.158c0 .237.316 1.185.316.316h.237c.316 0 .316.237.316.474l.553.395v-.869c.474 0 1.502-2.371 1.66-2.845-.158-.158-.316-.316-.316-.553 0-.158.158-.158.237-.158l.632-.316.395-.633c0-.237.079-.553.316-.632.237-.395.395-.79.553-1.264.712-.553.554-3.872 1.107-3.872s.474-.158.474-.633c0-.237.079-.553.316-.711 0-.474.474-.869.869-1.106l.158-.87.396-.553c.553 0 .948-1.106.948-1.501.395-.316.79-.87.869-1.423 0-1.501 2.608-3.951 2.608-5.136.474 0 .316-.712.316-1.028.158-.079.553-.474.079-.474 1.897-1.343 1.502-3.477 2.608-4.741h.158c.316 0 .474-.159.474-.475.237-.158.237-.474.237-.711l.316-.553c.238-.158.317-.553.317-.79l.316-.474.316-.159c0-2.212.237-2.291 2.133-2.291l.633-.316c1.343-.079 2.054-.396 3.319-.396.237-.474 1.501-.316 1.896-.316.475-.632 4.268-.316 5.058-.316 0-.474 1.185 0 1.423 0l.632-.553c.395 0 .395.316.869.316 1.027 0 2.529-.632 3.793-.553l.474-.474c0-1.107 3.083-.474 3.873-.474l.316-.316.632.079c.237 0 .316-.158.316-.396 0-.395-.79-.395-1.027-.316-.395-.316-.869-.316-1.344-.316-.237 0-.316 0-.316.237 0 .079-.158.079-.237.079l-.474.316h-2.608l-1.185-.474.948-.158.474-.316c.316 0 1.265.237 1.265-.316v-.316l-.633-.237c0 .474-.316.237-.474 0h-.237c-.237 0-.474.079-.474.316-.316.316-6.559.553-7.824.553 0-.79 1.107-.553 1.581-.553.207 0 .4-.061.59-.129l.163-.059c.191-.068.383-.128.59-.128.317-.316.712-.711 1.186-.948-.316-.396-.948-.317-1.344-.317-.237 0-.395 0-.395.238 0 .079-.079.079-.158.079-.311 0-.622.06-.933.128l-.267.059c-.311.068-.622.129-.933.129-.475-.475-1.265-.316-1.897-.316-.316 0-2.371.711-2.371 0h1.976c0-.475 2.371-.317 2.45-.317.553 0 2.054-.158 2.054-.79v-.079h-1.106c-.079 0-.632 0-.632-.079 0 0 .237-.079.316-.079l.948-.158c0-.079 0-.395.158-.395s.316.316.395.395l.395-.632h3.715c.316-.237.711-.395 1.106-.553h3.556c0-.079 0-.316.158-.316.316 0 .553.395.87.395.237 0 .237-.237.237-.395l-.316-.475-.791.158c-.316-.079-.711-.079-1.027-.237 0-.316.237-.474.553-.395 0-.474 1.502-.316 1.818-.237l1.264-.632c.663 0 2.574-.142 4.186-.102.002.007.003.015.003.023 0 .158-.158.316-.317.474l-.079.474-.474.632c.079 0 .079.079.079.158 0 .554-1.106 1.265-1.106 1.581 0 .158.395.316.395.632 0 .158-1.106 1.897-1.264 2.45l-1.028.948v.475c-.395.237-.395.79-.711 1.106v.079c0 .237-.158.474-.395.553-.079.158-.079.316-.079.553l1.264-1.185c-.079 0-.158-.079-.158-.158 0-.158.237-.316.395-.395l.396-.474-.079-.238c.711-1.106 2.054-2.449 3.003-3.477l-.08-.316c0-.079 1.265-1.422 1.423-1.975v.237c.237.079.316-.158.474-.158l.158.079-.553.711c0 .316-.158.632-.395.79l.158.316-.474.474c.079 0 .079.079.079.158s-.158.237-.237.317l-.079.474-.712.632-.079.474c-.079.079-.632.711-.632.711-.158 0 .079-.395.079-.474.079-.079.079-.158.079-.237s-.079-.158-.158-.158c-.474 0-.711.553-.948.869v.158l-.553.633-.079.237c-.237.237-.554.395-.158.632l-.554.711c0 .237-.237.474-.395.632l.395.079v.553l-3.398 2.608v.079c0 .316 1.028-.237 1.186-.237v.079c0 .633-.87 1.107-1.344 1.423-.079.237-.158.474-.079.711-.474.316-.79.711-1.185 1.106l-.237-.079c-.237 0-.395.396-.632.475l-.159.553.554.079h.079c.474.158 1.027-1.344 1.659-1.344l.237.079-1.738 1.66h-.87c-.474.632-2.528 2.371-2.528 2.687 0 .173.211.285.45.39l.206.089c.238.105.45.217.45.39 0 .316-.948.79-.395 1.027-.079.158-.237.317-.237.475l.079.079c.079 0 .237-.237.316-.317.079-.079.237-.158.316-.158l.079.079c0 .159-.632.633-.79.791h-.079c-.237 0-.474.158-.632.316v.316c-.238.316-.475.079-1.107 1.106 0 .158.079.474.316.474.474 0 1.344-1.738 1.976-1.501l.632-.632.869.079 3.952-3.952.474-.079.158-.237.158-.079c0 .474-.632.712-.474 1.186-.79.948-1.739 1.738-2.608 2.529l.395.237c.395-.475.711-.949 1.186-1.344l.553.316c-.316.237-2.45 1.818-1.976 2.213-.079.079-.316.237-.316.395h.158l.395-.079.553-.79c.949-.316.316-.316.316-.632 0-.079.079 0 .158-.079h.554c.395-.554 3.319-3.082 2.766-3.319.395-.159.79-.238 1.106-.475l.237.475-.395.316c.079 0 .158.079.158.158 0 .553-2.608 2.45-2.608 3.082l.079.079c.316 0 .553-.632.948-.632l.554.079-.475.632v.158c0 .079-.079.237-.158.316l-3.793 3.714c-.395.395-.237.711-.79 1.028-1.107 1.264-2.371 2.449-3.635 3.635h.395c.079.079.158.158.237.158.237 0 .316-.316.632-.158.395-.158.79-.395 1.106-.632h.158c.159 0 0-.159 0-.238.791-.237 1.423-.948 1.976-1.501l.711-.316c.316-.395.791-.395 1.107-.79l.079.158c0 .553-1.186 1.106-1.186 1.422 0 .079.079.158.158.158.949 0 11.143-9.878 12.012-10.747l.238-.87c.158-.079.632-.474.237-.553.158-.237.395-.553.711-.553l.79-.632.158-.553c-.079 0-.079-.08-.079-.159 0-.237.237-.474.237-.711l4.821-5.374c0-.158-.316-.316-.474-.316l.711-.316.553-.948c.395-.237.632-.632 1.027-.869.04-.237.138-.454.277-.642.585-.131 1.173-.228 1.778-.228v.079c0 .158.237.237.395.237h.553l.475-.316h1.422l.79.474c-.553 0-1.422.159-1.817.475l-.791-.079c-.316 0-.553.474-.553.711h1.107c.474-.316 2.212-.553 2.528 0h3.399v.158c0 .316.395.395.632.316-.079.711-1.818.474-2.213.474l-1.501.553c-.317 0-1.976-.237-1.976.316v.396c.316 0 1.343-.396 2.134-.396.395 0 1.027-.158 1.027.396.237 0 .553-.079.553-.396h1.581c0 .633.869.317 1.264.317.237 0 .553.079.553.395-.395 0-.395.632-.395.948-.237.395-.474.79-.632 1.264-.553.317-.948 1.028-.948 1.66l-.633.395c-.079.237-.158.553-.395.711 0 .237-.079.554-.237.791 0 .316-.079.632-.316.869-.079.474-.395.395-.395 1.027-.237.158-.316.553-.316.791l-.632.711v.79c-.237.316-.395.711-.554 1.106l-.395.237-.395.554c-.869.158-1.659.237-2.529.316 0 .395-.553.632-.869.632-.158 0-.316-.079-.316-.237-.079-.079-.158-.158-.237-.158-.237 0-.474.237-.553.395l-.791.237c-.316.553-.869.079-.948 1.027-.711 0-.869.316-1.264.87-.474 0-.87.632-1.107 1.027 0 .316-.237.237-.395.237s-.237.079-.237.237l-.316.711c0 .633.079 1.502.869 1.502l.712 1.185-.712.237c-.316.316-.079.316-.553.316-.158.317-.632.317-.948.317-.237 0-.474 0-.474.316-.316.395-.949.316-1.344.316-.316 0-.474.158-.474.474-.474.079-1.422.395-1.897.395l-.158.158c0 .237.475.237.633.237l.711-.395c.395 0 .395.316 1.027.395.079 0 .474.237.474.237 0 .079-.158.079-.158.079-.79.474-1.975.791-2.924.949-.316.553-.711.869-1.343.869-.158.237-.553.316-.79.316v.079c0 .158-.396.158-.475.158-.079.237-.395.395-.632.395-.079.237-.316.316-.553.316h-.237c0 .079.316.158.316.158l.948.158c0-.474.554-.316.87-.316l.632-.316c1.185 0 2.371-.395 3.714-.395 0-.237.395-.237.553-.237l.474-.632c.633 0 1.265-.237 1.897-.237.158-.474 1.027-.158 1.265-.632.711 0 1.501-.317 2.212-.475l.237.079-.237.317-.316.632-.632.474.237.395c0 .79-.553.869-.553 1.422-.237.238-.316.475-.395.791-.316 0-.237.158-.237.395 0 .316-.712 0-.712.395 0 .316.396.632.396.948 0 .158-.159.158-.238.158l-.474.633c0 .79-1.106 2.291-1.58 2.845h-.158c-.316 0-.474.158-.474.395.079.079.316.316.316.474s-.079.158-.237.158l-.158.79-1.186.79c-.079.712-.632 1.107-.632 1.818-.711 0-.553 2.45-.553 3.003 0 .316 0 1.581-.474 1.581l-.87 1.738c-.237.158-.316.474-.316.711-.316 0-.237.158-.237.395 0 .08-.158.159-.237.159l-.632 1.896c-.316.395-.79.948-.79 1.423.632 0-.317 1.343.632 1.343.158 0 .158.158.158.316.316.553.553 1.581 1.343 1.581l.316.632 1.186 1.106c.474 0 .948.633 1.185.949.632 0 .711.632 1.344.632 0 .553.711.316 1.027.316 0 .079 1.264.632 1.422.632l.633.316.869.079c.395 0 .79-.474.79-.79 1.976-.395 4.031-1.185 6.006-1.185l.158-.633h.395c.158.158.316.396.554.396.237 0 .079-.949.395-.949.553 0 1.264-.079 1.738.237l.316-.237c.237 0 .949-.474.949-.079.948-.316 2.687-.158 2.845-1.343l1.185-.079v.079c0 .158.079.158.158.158.158 0 .316-.079.395-.158-.079-.079-.316-.237-.316-.395 0-.079.79-.237.948-.316 0 0 .712.158.396.237h-.159c0 .237.238.316.396.316.869 0 1.975-.474 2.766-.87 0-.474 1.422-.316 1.659-.316.158-.711 2.371-.395 2.687-.316 0-.237.316-.316.474-.316.395-.237.711-.632 1.186-.632l.395-.632c.79 0 1.58.316 1.58-.633l.237.317h1.107l.474-.317c.711-.079 1.343-.158 2.054-.158.238 0 1.107 0 1.186-.316l1.185-.079-.316-.632c0-.158 0-.632.316-.632.316.237.791.553 1.028.948h1.185c.474 0 .79-.395 1.185-.632h.712l.158-.316h2.291l.554-.316c.79 0 .869-.632 1.659-.632 2.153 0 4.353-.527 6.452-.76-.187.49-.386.98-.604 1.471 0 .474-.316.79-.316 1.264l-.316.632v.396c0 .474 0 1.343-.632 1.343l-.553 1.501c0 .178-.04.336-.099.485l-.435.849c-.059.148-.099.306-.099.484 0 .079 0 .237.158.237.317 0 1.581-1.817 1.976-2.055 0-.316.079-.632.316-.869.158-.553.316-1.185.316-1.738l1.028-.396.948.317c-.158.395-.474 1.659-.474 2.133-.553 0-1.581 5.058-1.66 5.137l-.474.632c0 .395.079.553.474.553.712 0 .712-.632.712-1.185l1.264-1.027-.079-.87c0-.316.395-.553.632-.553 0-.553 1.818-1.343 1.818-2.134.237-.158 0-.869.316-.869.474 0 .079 2.055.632 2.055.395-.711 1.185-1.265 1.502-2.055 0 .553-.317 1.028-.554 1.502.079.158.237.948.395.948.159-.158.159-.474.159-.711.553 0 .711-.79.711-1.186h.237c.237 0 .237-.158.237-.395.158-.474.553-.869.948-1.106l.711-1.502c.08.079.238.316.317.316.237 0 .079-.79.474-.948h.316v-.079l-.079-.079.237-.711.316-.395.316-.158-.474.869-.079 3.003h-.079c-.395.632-.948 2.055-.948 2.766.474 0 1.106-1.185 1.264-1.581 0-.237.079-.632.316-.79.316-.316.632-.869.632-1.343.237-.237.316-.554.316-.87.317 0 .238-.237.238-.474 0-.158.158-.158.316-.158.316-.553.632-2.134 1.264-2.134l.553.554-.395.395-.158.869.869-.395c0-.237.079-.553.316-.632.158-.237.238-.553.238-.791.395 0 .395-.474.316-.711l.474-.711c.711 0 .474-.474.474-1.106l.316-.316c0-.554.553-.87.869-1.186 0-.237.079-.553.316-.711 0-.711 0-1.818.949-1.818 0-.553.316-.948.316-1.659l.237-.158c.237-.395 0-1.581.711-1.581.553 0 .474-.079.474-.553 0-.316.316-.316.316-.632l.317-.237.158-.633.474-.474v-1.343c.711 0 .474 0 .474.395 0 .158.237.237.316.237.869 0 1.897-5.137 3.003-5.137.079-.395.474-1.501.948-1.501 0-.632 1.028-3.319 1.502-3.161v-.869c.158-.554.395-1.265.869-1.739 0-.158 0-.474-.237-.474l.237-.316 1.027-.079c.396 0 .079.474-.079.632v.948c0 1.028.712 2.055.712 3.082 0 .474.395.949.632 1.344 0 .316 1.027 3.398 1.185 3.556 0 .79.712 1.422 1.186 1.896.395 0 .079-.474 0-.632 0-.158 0-.553.237-.553.316 0 .711.869.711 1.185.079.079.553 1.028.553.396l.632.711-1.501-.79s0-.317-.079-.317-.237.554-.237.633l.632.474c.474.158 1.185.474 1.185 1.027 0 0 2.371.869 2.687.869.158 0 .316-.079.316-.316.139 0 .262-.034.378-.086l.667-.38c.116-.052.24-.087.378-.087l.079.553h-.553l-.079.158c0 .158.474.158.553.158.632 0 1.027-.316 1.659-.316 0-.869 1.502-.237 1.502-.79l.711-.395.474-.553 1.344-.632c.474 0 .474-.949 1.185-.949.079-.237.395-.316.632-.316.158-.237 4.347-3.872 4.663-3.872.632 0 .079-.632.553-.632l.395-.633.949.317 1.106-1.186c0-.711 1.264-.79 1.264-1.422l1.186-1.028c0-.158 0-.632.237-.632l.553.632c-.158.316-.474.633-.79.633l-.632.553c-.396 0-.238.316-.633.316-.632.948-1.501 1.975-2.291 2.766l.553.237c0-.316.237-.553.553-.711v-.158c.079 0 .316.632.316.711 0 .237-.158.158-.395.158-.079 0-.158.079-.158.237-.711 0 .158 1.738-.869 1.422-.475.316-.317 1.265-.317 1.739-.237.237-.632.395-.948.553 0 1.344-1.817 4.347-1.817 4.505-.159.158-.712.632-.159.632l-.158.632c-.79 0-.316 3.319-1.185 3.319-.158.395-.395 2.134-.948 2.134s-1.265 4.346-2.687 5.216c0 .474.237.79.316 1.264l-.237.474c-.079.079-.553.553-.158.553.158 0 .079.316.079.396l-.237.079c-.553.711-.632 1.738-.949 2.528 0 .237 0 .475-.079.633l-.553.079c-.316.948-.474 1.896-.79 2.845l-.237-.079c-.316 0-.474.553-.474.869-.316.474-.474 1.106-.553 1.659-.238.158-.712 1.581-.87 1.897l-.395.316c0 .316.079.711.316.948-.316.396-.474 1.344-.79 1.897 0 .237-.316 1.897-.711 1.818-.474 1.501-.633 3.003-1.66 4.346l.079.948c0 .089-.011.167-.025.242l-.029.149c-.014.075-.025.153-.025.242-.079.237-.237.553-.474.79-.079.395-.237.869-.158 1.264l-.395.079c-.079.316-.158.712 0 1.028-.237.632-.395 1.343-.632 2.054.158 0 .316 0 .316.158 0 .317-.158.554-.158.791-.158.158-.158.474-.158.711l-.237.395c0 .148-.023.296-.05.445l-.059.296c-.027.148-.05.296-.05.444l-.237.238c0 .632-.158 1.264-.079 1.896.158-.158 3.398-6.875 3.398-7.428l.396.237c0 .158 0 .474-.158.553l-.396 1.027-.316.395.316.712.554-1.344c0-.178.022-.355.05-.533l.058-.356c.027-.178.05-.355.05-.533l.316-.395v-.475l.316-.474c-.079-.474.158-1.027.316-1.501l.316-.395.395-.237c.158-.396.395-.87.474-1.265l.237.474c-.237.475-.474 1.028-.632 1.581l.474.711-.237.948-.474.475.395.79.316-.237c0-.079.079-.316.158-.316v.158l.317.237s0 .158.079.158c.395 0 .474-.711.711-1.027l-.158-.396.237-.395h.079c.158 0 .237-.237.237-.395l.474-1.027s0-.474.079-.474c.079-.158.158-.475.316-.475.079 0 .079.238.079.238.316.158.474.474.474.79h.475l.395-.395.079-.554.158-.079.079.396c0 .316-.079.632-.237.869v.316l-.395 1.027.316.554c.079-1.028.948-2.845 1.343-3.794.079-.316 1.028-2.212 1.028-1.264l.711-.553c.316-1.66.869-3.24 1.58-4.821l.158.316c-.237.237-.474 1.106-.553 1.423l.316.79c.553 0 .158-1.265.553-1.66 0-.158 1.028-2.291 1.107-2.924h.237l.553-.553.079-.711c.079-.079.158-.237.237-.237s.079.079.079.158c.079.079.316.158.316.316 0 .079-.079.079-.158.079-.237 1.027-.474 1.897-.869 2.924l.316.869v-.158c0-.158 0-.474.158-.632l.474-1.027c0-.079.712-1.028.87-1.739.395 0 .474-1.185.474-1.501l.474-1.028c.079-.237.948-1.264.948-.474.119 0 .213-.044.294-.111l.44-.489c.081-.067.175-.111.294-.111.632-2.371 2.133-4.821 2.686-7.113v.238c0 .237-.158.553-.237.711.237.237-.553 1.817-.632 2.134 0 .158.237.948.316.948.158 0-.237-.553.237-.869.158-.396.316-.87.633-1.186 0-.711.711-.395 1.027-2.213.237 0 .869-2.37 1.027-2.766.237-.474 1.265-1.501 1.265-.948.632 0 .632-.869 1.264-.869.632-1.581 1.106-3.24 1.581-4.821.316 0 1.422-3.003 1.422-3.082l.474-.869.395-.632.079-.87.237-.237c0-.316.317-.474.317-.79l.316.079.158.632.553-.237c.474-1.422 1.264-2.608 1.976-3.872 0-.316.316-.474.316-.79l.553-1.423c0-.316.079-.553.316-.79 0-.237.079-.553.316-.632l.316-.632c0-.317.316-.475.316-.791 0 0 .632-1.343.632-1.422.159-.158.238-.553.238-.79 0-.119.044-.215.1-.306l.116-.179c.055-.091.1-.187.1-.306.237-.237.316-.474.316-.79.316 0 .316-.158.316-.395 0-.158.079-.237.237-.237l.553-1.818.395-2.292c.079-.395 0-1.659.632-1.659 0-.711.238-1.344.238-1.976 0 0 0-.158-.079-.158s-.317.553-.396.632c-.553 0-1.264 1.423-1.264 1.976l-.632.474c0 .316-.079.632-.316.87 0 .395-.316.395-.316.869-.238 1.027-1.186 1.896-1.186 2.924l-.632.158v-.711c-.158-.158-.316-.396-.316-.633 0-.158.158-.158.237-.158-.079-.316 0-.632.395-.632 0-.237.079-.632.316-.79 0-.316.079-.632.316-.869 0-.633.632-.949.632-1.581.317-.395.712-.869.87-1.343.237-.158.316-.554.316-.791l.632-.395c0-.237.079-.632.316-.79l.237-.395c0-.237.079-.395.316-.237 0-.079.079-.395.237-.395.159 0 .238.237.317.395.079-.158 0-.316 0-.474s.237-.158.316-.158c0-.712.632-1.107.632-1.739.079-.079.632-1.027.79-1.027s.158.237.158.316c.158 0 .237.079.237.158 0 .395-.316.711-.553.948 0 .158-.039.301-.099.437l-.434.786c-.06.135-.099.279-.099.437-.316 0-.316.158-.316.316 0 .237-.158.237-.316.237l-.237.869h.948c.474 0 .553.079.553-.474l.316-.237.316-.711c.237 0 .237-.158.237-.396 0-.158.158-.237.316-.237 0-.711.633-1.106.633-1.738l.316-.316c0-.158.079-.553.316-.395l.237-.712c.237-.237.316-.474.316-.79l.553-.869c0-.553.632-.869.632-1.502l.949-1.264c0-.632.553-1.027.553-1.581l.553-.79v-.158c0-.316.158-.474.395-.474 0-.711.633-1.027.633-1.66l.316-.711c0-.316.237-.316.237-.632l.316-.237v-.553l-.79-.475-.396.633s-1.264-1.502-1.264-.633c-.158-.079-.316-.316-.316-.474s.237-.158.316-.158c.158-.316.316-.632.316-1.027 0-.237-.158-.395-.395-.395-.079-.474-.395-1.265-.948-1.265-.237-.237-.475-.316-.791-.316v-1.027c-.237-.158-.79-.711-1.027-.711s-.158 1.501-.948 1.501c-.079 0-.079-.158-.079-.237.316-.079.632-.395.632-.711l.237-.632c0-.178.04-.341.099-.497l.434-.904c.06-.155.099-.318.099-.496 0-.158 0-.474.237-.553 0-.237 0-.553-.237-.711l-.553.474-.079.79-.474.711c-.079-.869-.711-1.817-.711-1.817-.237 0-.633-.079-.791-.316l-1.659.474c0 .474-1.186.395-1.186.948l-.395.711c-.237 0-.553.079-.632.316l-.79.475c0 .237-.079.553-.316.632l-.554.711-.632.237c-.395.395-.711.79-.948 1.264-.311 0-.441.227-.548.483l-.09.221c-.107.255-.236.482-.547.482l-.554.553-.632.158c0 .553-.474.237-.632 0-.553.395-.869 1.185-1.185 1.739 0 .79-.791.553-1.265.474l-1.106 1.58c0 .395-.87.87-1.186 1.028-.395.316-.711.79-.869 1.264-.395 0-1.264.158-1.264.711l-.949 1.344c-.395 0-.79.237-1.027.474h-.158c-.316 0-.474.158-.474.395l-.474.632c-.237 0-.475.079-.554.316l-.711.317c-.079.237-.316.316-.553.316l-.079.869-1.897.948c-.553 0-.553.87-1.264.87-.079.237-.395.316-.632.316l-.395.553c-.791.158-1.897.79-2.45 1.422h-.158c-.87 0 .158.712-1.186.712-.158 0-.237.079-.237.237l-.553.632-.869.237c0 .553-.316.474-.711.474-.079 0-.238 0-.238.158l-.632.474c0 .395-.395.474-.711.474h-.395l.395-.237c.474.079.395 0 .474-.395-.474-.237-.869-.79-1.027-1.264-.948-.237.237-1.581-1.186-1.265l-.158-.632c.079-.079.317-.158.317-.316 0-.079-.08-.158-.159-.158.079-.711-.079-1.502-.316-2.134-.079.079-.316.316-.474.316-.079 0 0-.237 0-.237l-.158-.79c.079-.237.079-.632-.158-.79l-.079-.87c-.316-.316-.553-.632-.474-1.106-.237-.316-.474-.869-.395-1.264-.237-.079-.158-.395-.079-.553l-.395-.554h-.079c-.317 0-.317.474-.317.712v.237c.238.158.317.474.238.711.158.158.158.474.158.632l.158.474-.474-.079-.159.079c-.316 0-.553-1.027-.553-1.264-.237-.158-.553-.474-.553-.79 0-.158.079-.317.158-.396.158.079.79 1.66.869 1.739-.237.237 0 .474.238.632-.08-.316-.317-2.371-.317-2.766h-.079l.316-.474c0-1.027-.79-1.817-1.185-2.687l-.632-.158c-.158-.474 0-1.185.158-1.659l-.395-.633-.237-.158-.079-.632c0-.316-.395-.079-.553-.079-.317 0-.159-1.185-.159-1.422-.158 0-.395-.079-.632-.079l.395-.158c-.079-.317-.395-.633-.711-.633 0-.474-.316-.948-.553-1.264l.158-.316c.632 0 .632 0 .632-.632h-.79l.079-.158-.237-.712c0-.079.079-.474-.158-.474-.395-.237-.711-.632-.632-1.106-.395-.869-.791-1.739-1.265-2.529v-.237c0-1.265-.869-.237-.869-2.213 0-.158-.711-1.817-.869-1.896l-.475-1.186-.553-.237v.079c0 .316.237.395.158.711l.475 1.028-.159.711c.238.237.396.553.475.869 0 .316-.158 1.107-.554 1.028 0-.079-.079-.317-.158-.317s-.158.396-.158.475l.158.79c-.079.237-.237.632-.474.711-.237-.079-.553-.158-.79-.316l.079-.316c0-.553-.553.079-.553-1.265 0-.079 0-.237-.158-.237l-.158-.711-.712-.632h-.158c-.553-.158-.079-.237-.079-.553l-.079-.158-.316-1.107-.474-.632.158-1.027c-.158-.158-.316-.395-.553-.395s-.237.474-.237.632c0 .316.158 3.24.395 3.319l-.237 1.106c.395.079.474.395.237.712.237.079.158.395.079.553l.553.237c-.079.395-.079.948-.553 1.027h-.316c0 .158.237.237.316.316.316 1.028.553 2.134.553 3.24 0 .079 0 .158-.158.158-.632 0-.79-2.528-.79-2.924-.395-.079-.395-.948-.316-1.264l-.237-.316.079-.316-.158-.553-.237-.316.079-.396-.554-.316-.316.079c-.158 0-.395-.079-.316-.316.158 0 .316.079.316-.079s-.158-.395-.237-.474c-.079.079-.158.158-.237.158-.237 0-.316-.948-.79-1.027l-.474-1.344c-.079-.079-1.107-1.106-.474-1.027v-.079c0-.553-.87-.553-.712-1.265-.237-.948-.711-1.422-.711-2.133 0-.316-.237-.395-.158-.711l-.316-1.265v-.158c0-.316-.316-.079-.158-.474l-.237-.395v-.474c0-.475-.158-.949-.632-1.028 0-.158 0-.553-.158-.632-.158.237-.158.474-.237.711.237.395.395.87.395 1.344l.395 2.766c0 .553-.079 1.106.237 1.501 0 .316 0 .711.158.948.474 1.107.553 2.371.553 3.557 0 1.501.474 3.003.474 4.583l.395.711v.079c0 .396.396.949.396 1.423 0 .158.079.316.237.316.158.79.395 1.581.711 2.371l-.711.395v.158c0 .237.237.158.158.553.158 0 .553 0 .553.237l-.079.474h-.395c0 .158.237.238.316.317l.395 1.264v.237c0 .237.711 2.529.711 2.529l-.158.316-.395.237c-.446 0-.333.42-.318.733-.967-.071-2.253.057-2.606.057-2.845 0-5.769-.869-8.535-.869-.632 0-1.106-.316-1.738-.316-.08 0-.554-.237-.554-.237 0-.474.87-.316 1.028-.711h.632c.158 0 .948.316 1.106.395l.079-.395c0-.791-1.896-.554-2.291-.554-.08 0-.159 0-.159-.079 0-.158.238-.395.317-.474h2.37v-.079c0-.316 1.976-.395 2.45-.553.158.237.474.316.711.316l.712-.316c.474 0 2.133.079 2.133-.158 0-.711-3.24-.079-3.24-.632 0-.079.316-.079.316-.079.712 0 3.873.474 3.873-.395l-.079-.316h-3.003l-1.107.079-.632.632c-.395 0-.316-.395-.79-.395 0 .237-.079.395-.316.395s-.316-.237-.316-.395h-.949c-.474 0-.711.395-1.264.395l-.474.316-.158-.316c-.237 0-.633.079-.791.316l-.316-.316h-.711c-.079.237-.869.474-.869.158 0-.237.553-.711.79-.869h1.581l.553-.554h1.975v-.079c0-.237.316-.237.475-.237l.395-.316s-.158 0-.158-.079c0 0 .553-.237.632-.237 0 .395.869.316 1.106.316l.474-.316c-.237 0-.553-.079-.711-.316-.237 0-.632-.079-.79-.237h-3.161c-.079-.553-1.107-.237-1.423-.711-2.924 0-6.164-1.265-8.93-1.265h-12.802c-.395.553-2.687.316-3.24.316l-.395.316c0 .712-2.608.237-3.082.237-.948.396-4.347 1.107-5.69 1.107l-.395.237c-.79-.079-1.66 0-2.371.237-.079.395-1.581.079-1.897.079-.237 0-.632 0-.632.316-1.817 0-2.924.316-4.741.395-.554.395-3.003.553-4.031.791 0 .474-1.501.316-1.738.316-.158.237-5.058.948-6.006.948-.062.093-.16.161-.271.21l-.362-.289c.317-.237.633-.474.87-.79v-.079c0-.237.079-.316.237-.396v-.474c.395-.395.316-.869.79-1.185 0-.316 0-.79-.079-1.106.089-.119.133-.238.167-.356l.061-.237c.034-.119.078-.237.167-.356l-.079-.553c-.158-.158-.395-.553-.079-.632-.158-.079-.316-.158-.316-.316 0-.237.632-.632.158-.711.079-.08.237-.238.237-.396s-.158-.237-.316-.316c.158-.079.395-.316.079-.395l-.316-.474-.079-.395c-1.027-.395-.79-.158-.79-.869 0-.158-.158-.238-.316-.238.079-.079.158-.237.158-.316 0-.237-1.028-.395-1.186-.395-.395 0-.79.316-1.027.553l-.553-.553c-.158.079-.474.316-.712.316-.079 0 .079-.079.159-.158.079-.079.158-.158.158-.316s-.238-.237-.396-.316l.079-.158c0-.158-.237-.237-.316-.237-.079-.079-.948-.237-1.027-.237-.632 0-.158.79-1.185.395l-.633.237c-.316.395-.79.316-1.106.632l-.711.079-1.344.87-1.027.158c.079.079.158.158.158.237s-.158 0-.237-.079c-1.027 1.027-.711.474-1.818.474-.395 0-1.422.632-.948.948l-.948.869c-.079.159-1.423 1.028-1.581.949-.237.237-1.106 1.58-1.027 1.738-.02.02-.065.055-.116.099-.436.04-.871.059-1.307.059v-.158c0-1.106-5.373-.474-6.322-.474-.415 0-.935-.121-1.469-.257l-.459-.118c-.534-.136-1.055-.257-1.47-.257h-8.614c-1.738 0-7.586.079-9.009.632-.158-.079-.711-.316-.869-.316-1.027 0-2.529.316-3.793.316-.158.158-.395.395-.553.395-.238 0-.238-.158-.238-.316l-.948-.079-.553.553c-.553-.237-1.264-.316-1.818-.237l-.474.633-.395-.317h-.632l-.632.475c-3.636.316-7.35 1.975-10.906 1.975-.316.395-1.106.474-1.343 0l-1.818.553c0 .475-2.924.87-3.24.949-.237 0-.553.158-.79.237 0 .553-.633.316-.949.316 0 .553-1.027.632-1.422.632-.632 0-2.134 1.265-2.529 1.502-.632 0-.237 1.264-1.027 1.264-.396.632-1.107-.316-1.107.869l-.79.316c-.079.079-.79 1.186-.79 1.344s.158.158.237.158c.158.079.474.316.474.553s-.632-.158-.632.395v.237h1.027c.079-.237.395-.316.632-.316.079 0 .474 0 .474.158s-.316.158-.395.158l.079.633h1.265c.237.237.553.316.869.316l.316.632-1.501.316c0 .553-.949 0-.949 1.185 0 .237-.158.316-.395.316 0 .238-2.45.87-2.845.87-.316 0-.316.237-.316.553-.711.158-1.501.474-2.134.948h-.948l.395.632c.553 0 1.265-.395 1.739-.632.276 0 .553.061.83.129l.237.059c.276.068.553.128.829.128l.238.316h2.291c.158-.237.474-.316.712-.316 0 .079 0 .316.079.316s.237-.237.237-.316h1.501c0-.395.474-.395.711-.316 0-.869 1.423-.632 1.976-.632 0-.553 2.292-.316 2.529-.316.316 0 .711-.316.869-.553h3.714c.238 0 .554-.079.633-.316l1.343-.158.316.474c-.237.237-.316.553-.316.869l-.553.316c0 .632-.632.869-.632 1.502-.395.632-.949.632-.949 1.58h-.395c-.237 0-.158.316-.158.474l-.316.633c0 .632-.632.948-.632 1.58l-.869 1.502c0 .553-.633.79-.633 1.422-.395.632-1.817 2.845-1.817 3.477 0 0 0 .079.079.079-.079-.237.237-.316.395-.316l-.158.316-.079.949c-.316 0-.316.079-.316.395 0 .158-.158.158-.316.158 0 .049-.004.101-.011.154-.209-.173-.424-.233-.701-.233 0 .395-.474.316-.711.316-2.213 0-4.188.316-6.48.316-.316 0-.632.158-.869.316-2.213-.158-4.505.158-6.718.395 0 .474-2.845.237-3.319.237-.79 0-.553.87-1.343.87l-2.45-.079v-2.055c.948 0 .711-2.371.711-2.845h-.237c-.158.316-.316.632-.395.948v-.237l-.079.237h.079c-.079.158-.079.237-.079.316v-.316l-.316.553-.079.316c-.079 0-.237-.553-.237-.632 0-.395.395-.711.395-1.106-.079-.316-.395-.395-.632-.395l.316-.316.158.079c.237.395.474.79.474 1.264l.316-1.897-.711.317v-.079l.316-.554c.158.079.395-.079.553-.158l.237-.553-.316-.474c.237-.079.474-1.422.553-1.818-.316.475-.869.949-1.343 1.265l.316-.711c0-.173.076-.255.161-.326l.073-.06c.086-.071.161-.153.161-.326l.316-.632c.079-.079.237-.79.316-.79v.158l.316.474-.079.632.317.553c0-.474-.158-1.975.316-2.212 0-.474.158-2.292.79-2.292l.474-.395c0-.474-.158-1.344.316-1.66h-.079c-.237 0-.237-.395-.237-.553.158-.474.553-.869.948-1.106l.237-1.502.475-.395-.079-1.106.395-.712v-1.343c.316-.158.316 0 .632.079 0-.553.316-1.185.632-1.58-.079-.317 0-.712.158-1.028.395-.316.237-1.264.553-1.343v-.949l.554-.948c-.079-.079-.158-.237-.158-.395 0-3.635 3.635-7.27 3.635-10.748l-.395-.632c-.158.237-.316.632-.158.869-.158.396-.712 1.344-.633 1.818l-.948 1.897c.079.079.237.237.237.316s-.079 0-.158-.079h-.079c-.395 0-.395.474-.316.711l-.395.948v-.553c0-1.817.474-2.687 1.343-4.346-.079-.158-.237-.237-.237-.395 0-.237.158-.475.237-.633.632-1.185.791-2.37 1.344-3.398.079-.158.79-1.106.395-1.185.158-.316.395-.711.316-1.107.079-.158.079-.474-.158-.553.632-1.106.869-2.45 1.501-3.635l-.158-.237-.158.079c-.079 0 .079-.395.079-.474l-.395.079-.632.395c-.237.474.079.948.079 1.423v.158h-.158c-.237 0-.632.079-.158.316l-.316.632-.395.158.079.237c0 .158-.158.079-.237.079l-.158.553c-.238.079-.079.237.079.316l-.87 1.423-.316.079v.632c-.237.711-.632-.079-.632 1.185 0 .317-.395.633-.711.712l-.237.553c.158 0 .237.079.237.237l-.079.158c-.316.079-.474.316-.633.553h-.079c-.948 0-1.738 3.635-2.449 3.635-.158 0-.316-.079-.475-.158l.475-.79c.079 0 .553-.079.237-.158l.316-.948c-.395-.237-.237-.633.158-.474.237-.396-.079-.238-.079-.475 0-.553 1.264-1.659 1.264-2.528 0-.159 0-.317-.079-.396 0 0 .079-.158 0-.158-.158 0-.237 0-.395.079-.553.633-.553.475-.553 1.186 0 .079 0 .158-.079.237l-.158-.079c-.553 0-.316 2.608-1.107 1.975-.158.317.08.475-.079.87.238.079.317.237.317.474l-.079.237c-.079-.079-.159-.079-.238-.079-.395 0 0 1.66-.711 1.343-.553.633-1.106 1.344-1.501 2.055l-.632-.079c.711-1.106 1.343-1.58 1.975-2.924-.079-.079-.079-.237-.079-.316 0-.395.474-1.027.632-1.343l-.158-.238c.158-.316 1.028-1.738 1.028-1.975 0-.079 0-.158-.079-.158-.396 0-1.107 1.659-1.265 1.975l-1.422.317c-.395 1.106-1.976 4.583-2.292 4.741-.237 0-.474 0-.632.079-.079.079-.079.158 0 .158l.079.237-.158.474c-.395 0-.395-.395-.316-.711-.396 0-.475-.237-.237-.553h-1.107c.158-.474 1.107-2.529 1.107-2.687 0 0 0-.079-.079-.079-.159 0-.396.237-.554.316-.158.316-.711 1.66-1.106 1.502l-.474.711-.079-.079-1.423-.632h-.553c-.316 0-.632.079-.632.395l.237.395c-.395.158-1.818.316-1.818.869 0 .158-.158.237-.316.237l-.237.316h-.711l-.632.554c0 .395-.395.474-.711.395 0 .632-1.502 0-1.502.79 0 .632-1.264.79-1.739.79v.316c0 .791-.079 1.186-.948 1.186l-.869 1.185c-.553 0-1.107.948-1.423 1.265-.869 0-2.133 1.659-2.608 2.212 0 .87-.869 0-.869.949 0 .158-.316.158-.395.158 0 .316-.316.632-.632.711 0 .553-.316.237-.474 0-.079.237-.474.316-.712.316l.238.632c.079-.079.158-.316.237-.316.158 0 .158.237.158.316l-.554.553-.711.317-.079.948c-.316 0-.553.079-.79.316-.237 0-.158.237-.158.395 0 .237-.158.316-.395.316 0 .316-.158.237-.395.237-.158 0-.158.158-.158.316 0 .316-.317.237-.317.554-.632.711-1.501 1.264-1.896 2.133 0 .395-.316.632-.711.474 0 .218-.079.401-.198.566l-.869.924c-.119.165-.198.348-.198.565-.474.395-.869.79-1.264 1.265 0 .316-.316.316-.316.711-.791.553-1.66 1.501-2.134 2.371-.474 0-.158 1.58-.79 1.58-.712 0-.712.553-1.107.553l-.237.395-.316.237-.316.633c0 .158 0 .632-.237.632-.079.316-.395.632-.711.632l-.316.79c0 .237-.079.554-.316.712l-.475.632c-.79 0-.395 1.264-1.185 1.264-.079.395-.395 1.502-.869 1.502-.237.316-1.186 1.738-1.581 1.896l-.395.633c-.395 0-.079.632-.79.632l-.237.632-1.186 1.185-.316.949c.079.079.237.158.237.237s-.316.079-.316.079c-.474 0-1.185.395-1.185.869 0 .316-.316.474-.316.869l-1.186.475h-1.422c0 .237-1.976.711-1.976.316h-1.264c-.079.237-.395.316-.633.316v.237c0 .395-1.58.632-1.975.79l-.869-.079c-.317 0-.712.158-1.028.395 0 .79-1.343.158-1.343 1.028l-1.186.158-.474.79c-.553 0-1.106.553-1.106 1.106s1.422.474 1.738.474h1.897s.158 0 .158.079c0 .396-1.343-.158-1.343.712.158.079.632.395.632.553 0 .079-.158.079-.158.079-.12.119-.259.219-.408.288-.596-.091-1.659-.051-1.884-.051l-.948-1.185c-1.344.316-5.611.553-5.769-.079-.395 0-2.292.711-2.292 0 0-.159.316-.238.474-.238l.395-.316c-.079-.079-.237-.316-.395-.316-.079 0-.079.237-.079.316l-.632.158c0 .079-.079.158-.158.158-.237 0-.553-.158-.711-.316 0 .237-.475.316-.633.316 0-.553-1.817-.158-1.817-.79.237-.158 1.501-.79 1.501-.158.395 0 1.502-.237 1.502-.632.657 0 1.298-.061 1.938-.129l.549-.059c.64-.068 1.281-.128 1.938-.128.158 0 1.107 0 1.107-.237 0-.079-.554-.316-.633-.395-1.264-.237-2.607-.316-3.951-.316-3.082 0-6.401.869-9.404.869l-.711.395-.949-.079-.869.474c-1.264 0-2.529.553-3.714.553-.237.316-4.821.949-6.243.949l-.079.316c-1.107 0-2.134.632-3.082.632-.237 0-.474 0-.474.316l-.633.316h-1.422l-.079.316c-.316.158-.711.316-1.106.316-.159 0-.396 0-.396-.237v-.079l.633-.632c0-.395.316-.553.316-.948-.158-.079-.712-.316-.87-.316-.316 0-.316.316-.632.316 0 .474 0 1.264-.632 1.264l-.553 1.185-.395-.79h.079c.158 0 .237-.237.237-.395 0-.553.237-1.818.711-2.134 0-.316.237-.237.474-.237.079 0 .158-.079.158-.158l.711-.474c.159-.711 1.265-3.082 1.265-3.477l.553-.632c0-.474.237-1.265.869-1.265.079.079.158.237.316.237.079 0 .396-1.027.475-1.185l1.027-.632c.079 0 .237 0 .237.079 0 .158-2.608 3.161-3.003 5.216h.553c.237-.712.79-2.134 1.344-2.687 0-.237.079-.475.316-.554.237-.158.395-.474.395-.79.474-.316.869-.79 1.106-1.264l.316-.079.079-.474c.791 0 .079-.712.079-1.028 0-.395 2.213-.158 2.608-.158.237 0 .553-.079.553-.395.554 0 .159-.553.712-.553.079 0 .316 0 .316-.158s-.316-.158-.395-.158v-.632c.632 0 1.343-.079 1.975-.079.475 0 1.502 0 1.502.632.316 0 .316-.316.711-.316l.316.316h2.213c0-.158 0-.632.237-.553.158.079.395.316.553.553h.553c.158-.237 1.344-.395 1.897-.949.316.317.474.633.948.633.139 0 .216-.061.287-.129l.059-.059c.07-.068.148-.128.287-.128 0-.079 0-.633.158-.633.079.158.316.633.474.633.237 0 0-.633.395-.633.237 0 .395.237.395.474h.553l.869-.474.712.316c0-.395.79-.395 1.027-.316.237-.553 2.529-.474 3.161-1.264 1.027 0 2.687-.632 3.635-.632 0-.316-.79-.474-.869-.474v-.079c0-.317-.632.79-.632 0l.711-.475c0-.474.948-.237 1.185-.237l.159-.632c-.791 0-1.107 0-1.107-.079l1.186-.158c0 .158.158.237.237.237.474 0 .869-.237 1.264-.395 1.502-.158 2.924-.316 4.426-.316.079-.474.553-.316.869-.316.553 0 .711 0 .711-.632 0-.159-.079-.238-.237-.238-.474 0-.869.238-1.264.475-2.213.237-4.584.711-6.56.711-1.106 0-2.449.474-3.793.474-.237 0-1.185.395-1.185.553h-1.423c-.158.237-.474.395-.711.395s-.316-.237-.316-.395l.079-.316.869.079c.158 0 .474-.079.474-.316h.475c0-.237.316-.237.474-.237.869 0 1.027-.553 1.738-.553 1.186 0 2.213-.791 3.398-1.107l1.66-.474.316-.316c.237 0 .711 0 .869-.316l2.529-.316c0-.474 1.502-.316 1.739-.316l.079-.553h2.213c.158 0 .553 0 .553-.317l.553-.316c.079.079.237.316.395.316s.158-.158.158-.316c.079-.079.316-.158.316-.316 0-.079-.237-.079-.237-.079l-.553-.237c-.079.316-.316.474-.632.316 0 .158-.158.316-.316.316-.237 0-.317-.237-.317-.395-.237 0-.553.079-.553.395l-2.212-.395c0 1.028-2.213-.237-2.292.632-1.66-.237-3.398-.711-5.058-.711.079-.316.237-.237.474-.237.079 0 .158-.079.158-.158.316 0 1.818.079 1.818-.316-2.292-.948-4.742-.395-7.033-.395-.87-.711-3.24.079-3.24-.711 0-.316 1.896-.158 2.291-.158 1.186 0 2.371-.87 3.319-.949l3.24-.158c.238 0 .475-.079.712-.158.079 0 .948-.079.948-.237 0-.079-.474-.079-.553-.079-.948 0-1.818-.316-2.608-.316 0-.395-.711-.316-.948-.237-.079-.158-.475-.553-.554-.158l-.632.158c-.237-.553-1.738 0-1.659-.632h-1.66c-.158-.237-.474-.316-.711-.316l-.158.316h-1.423l-.395.316c-.158-.158-.474-.237-.711-.316l-.79.316c-.237.474-1.66.395-2.134.395l-.474.553-1.186-.395c0-.158-.237-.158-.395-.158-1.264 0-1.738.79-3.003.316 0 .237-.237.553-.553.553l-.316-.553c.035-.277.205-.402.393-.508l.162-.09c.188-.106.359-.232.393-.508-.079-.158-.237-.554-.395-.554-.059 0-.107.045-.153.1l-.089.117c-.045.055-.094.1-.153.1 0 0-.079-.238-.316-.238 0-.316.237-1.817.632-1.817.237 0 .632.158.87.237l.158.948.79-1.185c.079 0 .316 0 .316-.158s-.632-.395-.632 0l-.316-.079.316-.237.474-.791.711.396c.395-.712.869-1.423 1.344-2.055-.158-.079-.712-.316-.712-.474h.158c.554 0 .079-.237-.079-.316 0-.079 0-.316.158-.316.317 0 .396.395.791.395.158 0 .395-.158.474-.316l.553-.317c1.106 0 2.213-.711 3.319-.711.632 0 1.186.316 1.818.316.237-.158 1.659-.948 1.659-.316l1.66-.237.711.237s1.344-.553 1.502-.553c.079.079.237.237.395.237.237 0 .079-.316.237-.316.316 0 .553.237.711.395l.395-.316c.869 0 1.739-.316 2.687-.316.158-1.027.948-.632 1.897-.79 0-.158 0-.475.237-.475.158 0 .316.238.395.317v.158c0 .079 0 .158.079.158.158 0 .395-.237.474-.316h1.66c.316-.158.711-.396 1.027-.396.474 0 .237.396.395.396s.237-.317.316-.396h1.423c0-.474-.949-.395-1.265-.316l-.474-.869-.553.316h-2.687s-.395 0-.395.079.948.316 1.106.395l-.948.395c-.158-.237-.553-.316-.79-.316-.237-.158-.316-.474-.316-.711 0-.079 0-.474.079-.474.237 0 .237.395.474.395l.079-.079v-.079c0-.158.237-.237.395-.237l.237.316.869-.237v.158c0 .079 0 .158.158.158s.395-.158.474-.316v.158s0 .158.08.158c.237 0 .395-.237.553-.395.079.079.237.316.395.316s.158-.237.158-.316l1.027-.316c.158 0 .277.079.376.197l.513.87c.099.118.218.197.376.197.474-.395.158-.316.869-.316.079 0 .711 0 .711-.237l-.237-.237v-.079c0-.237.158-.395.395-.395l.553.316.158.316.633.237h-.237c-.237 0-.396.079-.396.316-.079 0-.237.079-.237.237 0 .079.396.079.396.079h2.449c2.45 0 4.742-.474 7.113-.79.237.079.632.237.869.237.632 0 1.185-.632 2.45-.632l.711-.474c1.344-.237 2.529-.474 3.872-.474v-.079c0-.396 1.107-.158 1.344-.158l.711-.396c-.316-.632-3.161-.316-3.714-.316-2.845 0-5.769-.869-8.535-.869-.632 0-1.106-.316-1.739-.316-.079 0-.553-.237-.553-.237 0-.474.869-.316 1.028-.711h.632c.158 0 .948.316 1.106.395l.079-.395c0-.791-1.896-.554-2.292-.554-.079 0-.158 0-.158-.079 0-.158.237-.395.316-.474h2.371v-.079c0-.316 1.976-.395 2.45-.553.158.237.474.316.711.316l.712-.316c.474 0 2.133.079 2.133-.158 0-.711-3.24-.079-3.24-.632 0-.079.316-.079.316-.079.711 0 3.873.474 3.873-.395l-.079-.316h-3.003l-1.107.079-.632.632c-.395 0-.316-.395-.79-.395 0 .237-.079.395-.316.395-.238 0-.317-.237-.317-.395h-.948c-.474 0-.711.395-1.264.395l-.474.316-.158-.316c-.238 0-.633.079-.791.316l-.316-.316h-.711c-.079.237-.869.474-.869.158 0-.237.553-.711.79-.869h1.58l.554-.554h1.975v-.079c0-.237.316-.237.474-.237l.396-.316s-.159 0-.159-.079c0 0 .554-.237.633-.237 0 .395.869.316 1.106.316l.474-.316c-.237 0-.553-.079-.711-.316-.237 0-.632-.079-.79-.237h-3.161c-.079-.553-1.107-.237-1.423-.711-2.924 0-6.164-1.265-8.93-1.265h-12.802c-.395.553-2.687.316-3.24.316l-.395.316c0 .712-2.608.237-3.082.237-.949.396-4.347 1.107-5.69 1.107l-.395.237c-.791-.079-1.66 0-2.371.237-.079.395-1.581.079-1.897.079-.237 0-.632 0-.632.316-1.818 0-2.924.316-4.742.395-.553.395-3.003.553-4.03.791 0 .474-1.501.316-1.738.316-.159.237-5.058.948-6.006.948-.159.237-.554.316-.791.316l-.632.316c-.711 0-1.264.316-1.976.316l-.237.237h-.711c-.474.554-1.106.791-1.58 1.265h-1.186c-.158.079-2.608.553-3.003.553l-.632.474.553.316 1.344.158.632-.316c.395 0 1.659.158 1.896-.316l.712.316c0-.237.316-.316.474-.316.474-.158 1.027-.395 1.58-.395.079 0 .316.079.316.237l-.632.474c-1.975.395-5.453 1.186-7.428 1.186-.108 0-.169.054-.204.133-.791-1.393-2.042-1.009-2.357-2.109-.474-.474-.948-.79-1.58-1.027-.158-.475-.395-1.028-.791-1.423-.553-.158-1.027-.395-1.501-.711-.316 0-.632-.079-.869-.079l-.079-.237c-1.423-.791-3.003-1.581-4.505-2.213l-.711.316c-1.502-.237-2.371-1.185-3.635-1.501l-.395-.475c-.475-.079-.949-.079-1.423-.079l-.711-.395-.79.395-.317-.395c-.237 0-.553-.079-.79-.079.079-.079.079-.079.079-.158 0-.158 0-.237-.158-.237 0-.158.158-.711-.079-.711s-.632.553-.79.711l-.079.237c-.474 0-1.027-.079-1.502-.158.237-.237.316-.474.475-.79 0-.237.079-.474.316-.553.632-.633.948-1.581 1.343-2.371.158-.079.711-.316.711-.632 0-.079-.316-.079-.395-.079h-.158c-.316.316-.553.711-.79 1.106-.474.158-.079 1.106-.711 1.185-.554.554-1.028 1.344-1.502 2.134-.316-.079-.632-.079-.948-.079 0-.158.158-.237.316-.237.237-.553.79-1.027.79-1.66 0-.079-.079-.158-.158-.158l-.474-.395.474-.474.079-.395c.079-.079.237-.316.237-.474 0-.079-.079-.079-.158-.079-.316 0-.632.158-.869.237 0 .395-.079.869-.237 1.185v.158c0 .237-.553.158-.553.712 0 0 0 .158-.079.158s-.237-.475-.237-.554l-.317-.158-.395-.632c.158-.474.553-.869.87-1.185v-.158c0-.158 0-.395.158-.474l.237-.791.395-.316c0-.474.395-.553.395-1.264 0-.119.044-.215.1-.306l.116-.179c.056-.091.1-.187.1-.305.316-.238.553-.712.632-1.107l-.316-.474-.948.79c.632-1.659 1.106-3.319 2.213-4.741l-.475-.474-.395.474c.791-1.107 1.423-2.687 2.134-3.952l.553-.395.079-.632h-.079c-.474 0-1.027 1.185-1.185 1.581l-.711.632c-.237.711-.87 1.185-1.265 1.738.079 0 .237.079.237.237 0 .079-.079.079-.158.079l-.316-.237v.237c-.079 0-.316 0-.316.159 0 .158.237.316.395.395-.395.474-1.027.632-1.422 1.106-.158.711-1.107 1.66-1.581 2.292-.237 0-.237.237-.158.395h-.079c-.316 0-.711.632-.79.948-.711.316-.474 1.502-1.344 1.66v.237c0 .237-.158.237-.395.237-.237.711-.553 1.818-1.185 2.292-.316.79-.395 1.106-.949 1.738-.316 0-.395.316-.395.553l-.316.712c-.316.158-.632.474-.869.79v.158c-1.264 0-2.529.079-3.635.079l-.237.158c-.791.158-1.186 0-1.976.079l-.711.316c-.949.079-2.055-.158-3.082-.158l-.079.237h-1.344l-.711.316h-1.185l-.316.475c-.633-.08-1.344.079-1.976-.08l-.711.317c-1.028 0-1.66-.079-2.608.474-.553-.079-1.186 0-1.739.158l-.632.474-.79.079-.474.316c-.317.158-.712.079-1.028 0l-.632.237c-1.581 0-3.003.79-4.584.711l-.395.791c-.395-.079-.869.079-1.264.079-.948.79-2.45.474-3.319 1.422-.474.079-.948-.079-1.502-.079-.474 0-1.027.158-1.185.711-.474.158-.948.475-1.423.396l-.553.237h-.869l-.158.395.395.632.237-.316c1.976-.079 4.03-.237 6.006-.237l.316-.316c3.398.079 6.717-.791 10.116-.791h.395l.079.554c-.632.079-1.028 0-1.66 0l-.79.079-.474.316c1.422.237 2.687-.316 4.03-.158l.237.316c-.316.158-.711.395-.869.711-.948.158-1.818.395-2.766.395.474.158.869.395 1.264.632h.158c-.553.395-1.264.316-1.896.316-.711 0-2.45.475-3.082 1.028.316.158.632.316 1.027.316s.711-.158 1.028-.395c.414 0 .799-.076 1.18-.161zm493.34-8.187c.018-.04.037-.076.058-.108 0-.474.316-.632.316-1.027l.475-.554v-.079c0-.316.158-.553.474-.553v-.869c1.185-.632.474-1.265 1.027-1.581v-1.501c.158-.237.237-.553.237-.79.237 0 .395-.158.395-.396l-.079-.632h-.474s-.079 0-.079.079c0 .158.316.237.316.474 0 .079-.158.079-.237.079l-.079.475c-.553.395-1.027 1.027-1.027 1.738h-.079c-.712 0-.632.87-.791 1.344-.474.316-1.027.553-1.027 1.185l-.553.395v.237c0 .87-.632-.553-.632 1.739 0 .148-.031.328-.132.441-.503.02-1.011.033-1.528.033-.237 0-.553.158-.79.395h-1.343c-.301.177-.649.302-1.023.395h-.558l-.033.121c-1.177.195-2.501.197-3.444.511v.159c-.632 0-1.581-.159-2.055.395h-1.106c-.316.237-1.502.158-1.502.553l-.191.026.507-.579c.474 0 .395-.158.395-.554 0-.237.949-1.501.949-2.054.316-.316.553-.79.632-1.265.316-.158.395-.553.395-.869h-.079c-.395 0-1.264 1.423-1.264 1.897l-.633.553c0 .237-.079.474-.316.553l-.632.711c0 .286-.583 1.09-.693 1.709l-1.361.188c0 .474-1.423.316-1.66.316 0 .474-.711.316-1.027.316l-.949.553c1.404-.086 2.801-.149 4.197-.194l-.166.431-.475.238c.079 0 .158.079.158.158 0 .158-1.106 2.291-1.185 2.449h-.869l-.395.87c0 .711-1.028.79-1.028 1.343-.316.158-.316.632-.316.869.079.079.395.158.395.317 0 .079-.079.079-.158.079-.948 0-1.106.237-1.106 1.185-.553.316-1.976 2.766-1.976 3.319-.316 0-.632.237-.553.553l-.316.87c-.237.079-.316.395-.316.632l-.553.711c-.158 1.027-1.186 2.924-2.292 2.924.079.237.158.474.158.711 0 .316-.395.553-.632.553 0 .395-.316.554-.316.949l-.316.632c0 .316-.238.553-.554.474 0 .553-.316.395-.316.79l-.553.633c-.079.158-.079.869-.395.711-.395.474-.948 1.343-1.027 1.975l-.791.237c-.395 1.028-1.027 2.055-1.738 2.845-.553 0 0 .633-.711.633l-.238.632c0 .553-.632 2.134-1.264 1.976-.474.395-.948 1.501-1.185 2.054l-1.344 1.107c-.237 0-.948.79-.948 1.106 0 .711-.948.474-.948 1.027l-.633.791c0 .395-.316.474-.632.395 0 .311-.197.486-.418.644l-.191.134c-.222.158-.418.333-.418.644-.79.553-1.265 1.423-1.897 2.134-.553.158-1.264.079-1.264.79l-.711.553c-1.186 0-2.687 1.028-4.189 1.028-.632 0-1.185-.079-1.185-.87 0-.553.237-.474.711-.474l-.553-.632c-.079-.553-.158-1.185-.158-1.739 0-1.185.711-2.449.711-3.556-.237-.079-.711-.395-.079-.395-.158-.948-.237-1.897-.474-2.845v.237c0 .237-.237.316-.474.316 0 .079 0 .633-.158.633-.079 0-.079-.317-.079-.396.158-.158.474-.553 0-.553 0-.869.553-.316.553-.869-.079-.079-.316-.158-.316-.237 0-.158.237-.158.316-.158 0-.632.079-1.265.158-1.897h-.158c0-.079.632-.316.711-.316.079.079.237.316.237.474 0 .079-.079.158-.237.158l-.316 2.292.632.474-.079.553.316.554c.158-.633.316-1.265.316-1.897 0-.711 1.028-1.027 1.028-1.581 0-.632.632-.948.632-1.501.237-.474.395-1.027.395-1.502l-.395-.553c0-.316.158-.948-.316-.948 0-.395.316-.316.316-.79.237-.712.474-1.581.948-2.213.474-.237.237-.869.237-1.185 0-.949 1.107-.238.869-1.265.949 0 .791-.158.791-.948.474 0 .316-.711.316-1.028 0-.395.632-.553.632-1.264l.553-.553c-.079-.711.474-1.976.791-2.529l.237.079c.869 0 .474-3.556 1.185-3.556.395 0 .632-1.028.632-1.344.553 0 .711-3.003.711-3.161.079-.395.238-.869.396-1.264l-.317-2.213-.316-.237v-.395l-.237-.158.237-.316c0-.711.316-1.423.316-2.292l-.948 1.027c0 .712-.632.712-1.185.712l-.87 1.659c-.158 0-.237-.079-.237-.237 0-.474.316-1.027.554-1.422.474 0 .632-1.186.632-1.581.237-.316.395-.79.395-1.185 0-.237-.158-.395-.395-.395-.079-.079-.237-.317-.316-.317-.237 0-.079.475-.158.475s-.316-.633-.316-.712c-.633-.316-1.265-.316-1.976-.316l.395-.948h.158c.237 0 .395-.158.395-.395 0-.158 0-.632-.237-.632l-.79.316c-.316 0-1.502-.079-1.502.316-.158.237-.632.711-.632.079l-1.501.553-.712.711c0 .395-.395.395-.395.791-.553.395-1.264 1.106-1.58 1.738 0 .395-.158.869-.632.869-.238 0-.238-.316-.238-.553 0-.395-.237-.395-.553-.395l-.158 1.027h-.237c-.395 0-.316.238-.316.554l-.869.316v.237c0 .316-.158.474-.474.474 0 .395.079 1.264-.554 1.264 0 .633-.079.633-.711.633v1.106l-.474.79v.158c0 .316-.158.474-.474.474v.238c0 .395-.237.395-.553.395-.396.79-.475 1.817-.949 2.528 0 .554-.711.712-.711 1.344-.158.237-.316.553-.316.869-.173 0-.24.061-.294.129l-.045.059c-.053.068-.12.128-.293.128 0 .87-.632 1.186-.632 2.292 0 .474 0 1.265-.633 1.265 0 .869-1.343 2.607-1.343 3.161l-.553 1.422c0 .711-.633 1.106-.633 1.739l-.316.316v.553c-.237.474-1.185 3.161-1.343 3.24v1.264h-.158c-.553 0-.395.791-.158.712-.079.553-.237 1.185-.553 1.659 0 .632-.316 1.265-.316 1.897-.396.237-.712 1.58-.712 2.134 0 .237-.079.395-.316.395v1.738c-.395.474-.237.87-.237 1.502-1.422 1.896-.711 5.69-.711 7.902-.395 0-.395.554-.395.791 0 .948-.237 2.37.79 2.845 0 .711.158 3.003.948 3.003l.633.553c0 .395-.238.395-.554.395-.395 0-.474.237-.474.553 0 .711.632.158.632.711.554.949 1.581 1.265 1.581 1.897l1.027.395c.316 0 .474.237.395.553.396 0 .396.395.317.712l.869.079c0 1.501.711 1.422 1.896 1.659l.317.711c.869.079 1.659 0 2.528 0l.633.633.869.395h3.398c.158-.237.553-.316.869-.316l.158-.712.237.395h1.739l.158-.395h.711c.395-.237.712-.553 1.028-.869.474 0 1.027.079 1.027-.553v-.158h-1.106v-.316h.553c.237 0 .553 0 .553.316.316 0 .632.158.632-.316l1.028.237.237.553c-.395.079-1.581.079-1.581.632v.395c.79 0 1.581.158 2.292.158.316 0 .316-.316.316-.553l.553-.395c.553 0 2.371-1.027 2.608-1.027 0-.316.553-.553.79-.553l.474.474c0 .079.079.158.159.158.395 0 .79-.395 1.106-.632.632 0 0-1.581.79-1.581.316 0 1.502-.316 1.502-.632v-.316c-.475.079-1.028.237-1.502.237-.079 0-.237 0-.237-.158 0-.237.237-.553.395-.712l-.316-.079c-.158 0-.395.079-.395.317-.237-.079-.553 0-.553.316l-.632.711c-.396 0-.554.316-1.028.316l-.553.553h-.553c-.237 0-.395.079-.395.316-1.028 0-1.423 1.581-2.134 1.581l-.474-.395c-.395 0-.632-.316-.632-.712 0-.079.079-.158.158-.158.237 0 .474.237.632.396.711 0 .316-.712.711-.712.079 0 .158 0 .158-.079 0-.158-.316-.237-.395-.316 0-.237.237-.237.395-.237s.237-.079.237-.237c.316.079.87.158 1.028-.158l1.106-.553.237-.316h.711c.158-.237 1.344-1.66 1.344-1.818s-.553 0-.553-.316c0-.237.158-.474.316-.632 0 0 0-.237.079-.237.237 0 .395.316.474.474-.158 0-.316.079-.316.316s.316.316.474.316c.158.316.632.316.869.316.395 0 .395-.474.316-.711l.633.079.632-.632.237.079c.474 0 .395-.395.395-.712 0-.158 0-.553.316-.553.158.079.316.237.553.237.316 0 .316-1.027.316-1.264l.712.553.395-.553.632-.316c.079-.237.553-1.107.553-.316 0 0 .948-.711.948-.791 0-.237-.711-.079-.711-.237 0-.079.711-.237.79-.237 0 .079 0 .237.079.237 0 0 .159-.395.159-.474.079-.079.316-.237.316-.316 0-.158-.237-.158-.316-.158v-.237c0-.088.007-.157.023-.21l.367-.136c.173-.068.35-.128.558-.128.158 0 .237.079.237.237l.413.059c-.159.387-.571.679-.571 1.126 0 .158.079.237.158.237.158 0 .395-.158.474-.237.316 0 .316-.158.316-.395s.158-.316.395-.316c.347 0 .511-.669.653-.833l.096.012c.042.122.042.441.042.505l.158.079c.237 0 .395-.316.474-.474v-.02c.627.088 1.282.178 1.817.178.791 0 1.818-.316 2.529-.237l.316-.237h.316l3.32-.079.395-.237c.158.158.474.237.711.316l.079-.158.474.079.553-.553h.87c.079 0 .158 0 .158.079 0 .158-.237.237-.316.237-.317-.079-.712-.079-.712.316-.079.079-.237.158-.237.237s.87.158 1.107.158l.632-.237h.632c.316 0-.158-.158-.158-.395 0-.079.158-.079.158-.079l.237.079c.158 0 .237-.079.316-.237l-.158-.396.395-.237c.633 0 .079.554.079.87 0 .079.158.079.237.079 0 .237.158.237.237.079l.554.237c.158-.079.553-.316.553-.553s-.395-.237-.474-.237h-.158l.474-.079.395-.317-.158-.395.474-.079c.237 0 .079.237.079.395h1.423c.079-.237.474-.237.632-.237l.237-.079c.079 0 0 .079 0 .158.316.079.711.079 1.027-.079-.079.474-.237.949-.395 1.344 0 .316-.316.316-.316.711l-.237.553c0 .474-.553.948-.869 1.265 0 .553-.238 1.185-.554 1.58 0 1.186-1.343 1.581-1.264 2.766l-.553.474.079.869-.553.554c0 .474-.316.869-.316 1.501l-.317.474c-.079.474-.237.949-.474 1.344 0 .711-.948 1.817-1.264 2.529l-.316.237.079.553-.237.395c.079.079-.158.316-.237.316 0 .138-.061.231-.129.319l-.059.074c-.068.087-.129.18-.129.318l-.316.475c0 .395-.237.948-.474 1.264 0 .948-1.106 1.343-1.027 2.292l-.474.395.079.711-.474.395c0 .316-.237.395-.237.711 0 .317.237.633.395.87l.158.079c-.158.474-.395.869-.633 1.264l.08.237c0 .158-.317.237-.475.237v.316l-.079.949-.395.711-.079.632c-.158.158-.237.474-.237.711-.237 0-.237.159-.237.317s-.158.158-.237.158l-.237.711c.079.079.316.158.316.237s-.316.079-.316.079l-.158.632.158.395c-.237.158-.711.395-.395.712l.158.158-.158.237c0 .158 0 .632-.316.474l.395.395c.079-.316.237-1.027.632-1.027.474-.87 1.185-2.924 2.213-3.24 0-.791 1.185-1.66 1.501-2.371 0-.474.632-.87.949-1.107l.158-.553c.474 0 .079-.553.553-.553.395-.474.869-1.185.948-1.739.474-.237.869-.395.79-1.027.87 0 1.265-1.185 1.739-1.818.079-.158.158-.474.158-.632 0-.237-.158-.553-.474-.474.237-.553.632-1.106.948-1.659l.632-.396.237-.316.079.079-.158-.711c0-.079 0-.158.079-.158l-.079-.158h.079v.158l.158-.158c.554-.237 1.265-1.343 1.66-1.897-.079-.237 0-.553.237-.711 0-.316-.237-.632-.553-.553.158-.316 1.185-1.897 1.185-1.976l.079-.237c.237-.237.316-.553.237-.869l.949.158.237-.632c.079 0 .079-.237 0-.237.237 0 .632-.079.79-.316l.158-.079c0 .079.158.632.316.632.079 0 0-.158 0-.237.079 0 .316 0 .316-.079 0-.158-.474-.395-.632-.475.316-.869.395-1.422.948-2.133 0-.237 0-.632.238-.79 0-.633-.633-.238-.633-.633.395-.632.712-1.343 1.186-1.975.316 0 .632-.237.79-.554l-.079-.158c0-.158.158-.158.316-.158l.079.316-.553.87c0 .316-.237.553-.553.474 0 .395-.079.79-.553.79l.316.553c0-.079 0-.158.158-.158s.553.553.711.712l-.237.316c.158 1.027-1.423-.079-1.028 2.924l-1.659 1.738-.869.395.237.395c0 .396-.632.159-.791.079l-1.106 1.028.237.474c0-.079 0-.158.079-.158.316 0 .553.474.711.632l-.237.237c0 .079-.632 1.818-.711 1.976l-.79.237.474.316c0 .079-.158.316-.316.237 0 .079.079.237 0 .237s-.237-.632-.237-.79c-.632.632-1.186 1.343-1.66 2.055l-.474.316-.474.711.316.395c.079 0 .711.316.711.474l-.237.237c.079.475-.474.791-.474 1.265s-.395.711-.316 1.185c-.237.632-.632 1.423-1.185 1.897v.158c0 .237-.158.395-.396.395 0 .237-.079.632-.237.79l.079.237c0 .079-.079.237-.158.237l.079.554-.316.632c0 .079 0 .237.079.237.553 0 2.529-3.951 2.766-4.426l.711.158c.396-.711 1.028-1.422 1.265-2.212l-.395-.316.237-.633.553-.553v-.158c0-.237.316.158.395.237.474 0 .474-.316.869-.316l-.395-.395.158-.948.079-.079.316-1.028.396.158.237-.474v.711l-.474.079.158.554c.158 0 .237.079.237.158 0 .632-.475 1.185-.633 1.738l-.948.791-.237.474v.948c.079 0 .237 0 .237.158s-.158.237-.237.395c.632 0-.474.711-.79.711l-.158.554.632.237.711-.316v-.158c0-.633.395-.949.948-1.186l-.553-.395.633.316v.079l.395-.158c0-.395.158-1.185.711-1.185 0-.474.474-.949.869-1.186 0-.79.869 0 .869-1.896l.475-.474.237-.712.711-.237c.553-.79.948-1.659 1.422-2.45l-.079-.474.079-.158c0-.948 1.186.316 1.186-1.817.158-.158.474-.396.553-.633l.316.316v.159c0 .158-.158.158-.237.079l-.316.632c-.395.237-.158.869-.316 1.264 0 .079 0 .395.158.395.474 0 1.58-3.003 1.58-3.003v-.158c0-.237.237-.316.396-.316l-.08-.316c0-.158.08-.395.238-.553 0-.237.237-.553.237-.79l-.079-.079.474-.712.316.237c.158.396-.316.712-.316 1.107 0 .158.158.079.237.079l-.079.948.474.316-.158.711c-.395.08-.237.159-.237.475 0 .079-.079.158-.237.158l-.316.553v.158c0 .711-.633 1.264-.633 1.976l-.237.237.079.553.475-.237.79-1.186v-.237c0-.395.158-.79.079-1.185l.553-.474v-.158c0-.237.079-.474.237-.633l.632-.079.079-1.106v-.237c0-.158.079-.316.237-.395l.238-1.027c.553-.238.711 0 .711-.475 0-.158.079-.158.158-.158.316-.474.474-.869.474-1.422 0-.222.104-.393.215-.559l.044-.067c.111-.167.215-.337.215-.56l1.423-3.319c.316-.237.395-.632.395-1.027 0-.316.316-1.343.711-1.343v-.158c0-.317.237-.554.553-.554v-.158c0-1.185 1.265-2.529 1.739-3.556h.632v-.237h.948l.158-.316h2.45c.395-.395 0-.316.711-.316.158-.237.475-.316.712-.316v-.237c0-.237.079-.475.316-.475-.079.238.158.396.395.396.395 0 1.58-.475 1.58-.949.158-.079.87-.474.87-.711 0-.158-.316-.158-.395-.158-.396 0-2.213.316-2.371.553 0 .474-1.66.316-1.818.316l-1.027.474c-.711 0-1.897-.316-1.897.554 0 .395-.711.237-.948.237.395-.316.632-.791.79-1.265.711.079 1.344.316 2.055.237.237-.237.237-.632.237-.869l1.027-.316v-.237c0-.079 0-.316.158-.316.395 0 .632.474.949.474v-.079l1.027-.237-.316-.79.869.079c.158.079.395.316.395.474s-.553 0-.553.237c0 .158.316.395.474.474 1.423 0 1.502-.711 1.818-1.897.632 0 .711.633.474 1.107.711-.237 1.422-.791 2.213-.791.158 0 .553.079.553-.237v-.316l-1.502.553-.632.317c0-.238 0-.712.237-.87h-.553c-.316 0-.474-.158-.474-.474 0-.553.079-.553.632-.553.316-.316.79-.632 1.265-.632.079-.158.632-1.028.632-.316.632 0 1.343-.316 1.975-.554l.396.079c.237 0 .553-.079.553-.395.395 0 .553.316 1.027.316 0-.553.79-.316 1.106-.316v-.158c0-.395 1.897-.711 2.371-.711 0-.237.316-.316.474-.316.237 0 .633.079.791.316-.633.395-2.055.632-2.213.869l-.395-.079c-.237 0-.553.079-.553.316l-.949.079-.316.87-1.659.553c0 .553-1.265.474-1.265 1.027 0 .237.158.474.395.474.316 0 .712-.474.949-.711h1.422l-.158.79c.079.238.237.317.474.317.316 0 .632-.079.87-.238-.08-.632-.159-.553-.791-.553 0-.316 1.66-1.343 2.292-1.343l.632-.632h.87c0-.396-.317-.316-.317-.791 0-.079.079-.158.158-.158.238 0 .475.237.633.395.395 0 .553-.316.948-.316v-.158c0-.237.316-.316.553-.237l1.028-.79c.395 0 .158.316.158.553l.079.237 1.027-.158.474-.632.869-.158c0-.474-.395-.79-.395-1.66l-.316-.079-1.264 1.265c-.158 0-.87 0-.87-.316.158-.237.554-.316.87-.316-.158-.08-.316-.317-.316-.475 0-.316.79 0 .79-.474.474 0 .395-.316.79-.316l.395-.632c.87-.316 1.739-.711 2.529-1.186 0-.237.316-.316.474-.316l.395-.316v.316l-.632.633c-.079 0-.316 0-.316.079 0 .158.158.316.316.395v.079s0 .079-.079.079c-.104 0-.177-.076-.247-.161l-.059-.074c-.07-.085-.143-.16-.247-.16-.079 0-.079.079-.079.158-.553 1.185-.395.79-.869.79-.158 0-.316.237-.395.316-.079.474-.159 1.027-.159 1.502 0 .237 0 .395.317.395h.237l.632-.632 1.027-.238-.079-.395c0-1.264.711-.316 1.107-.316.395 0-.079-.553-.158-.632h1.027c0 .474-.553.711-.553 1.106 0 .158.395.158.474.158l.711-.316c0-.316.079-.711.316-.869l.079-1.264c.316 0 .711.158.632.553l.475-.553c.395 0 .237-.237.237-.475 0-.158.079-.158.158-.158.237-.474.711-1.027.711-1.58h.237c0-.079-.711-.316-.869-.316 0 .316-.079.79-.316 1.027-.554 0-.237-.474 0-.711-.554.079-1.897.158-1.897 1.027-.079 0-.316 0-.316-.158 0-.079 1.501-1.501 1.58-1.58l.317.158c.316 0 .711-.079.869-.316.474 0 .869-.317 1.343-.317.474-.632 2.055-1.343 2.766-1.659 0-.711 1.423-.632 1.423-1.344l.79-.395.079-.632c.395-.316 1.106-.869 1.659-.869.159 0 .317.079.317.316l-.87.553c-.316 0-.316.158-.316.395s-.237.237-.395.237c-.316 1.423-1.106.554-1.501 1.581-.317 0-4.189 2.45-4.584 2.687 1.185 0 .395.79.869.79.395 0 .949-.553 1.265-.79l.632-.237c0-.554.711.079.711-.633 0-.711 1.976 0 1.976-.948l.237-.316c.237 0 .237-.158.237-.395 0-.079.079-.158.237-.158l.316-.553c0-.316.237-.554.553-.395.396-.949 1.344-.396 1.107-1.265.553 0 1.027-.553 1.027-1.106l1.185-1.028c.08-.474.633-2.054.633-2.528.158-.238.237-.554.237-.87l.632-1.501-.158-2.529c-.553 0-.474-1.106-.395-1.423-.553 0-.395-.474-.474-.869l-.237-.237v-.711l-.633-.711c.158-.079.316-.316.316-.475 0-.158-.237-.158-.395-.158v-.316c0-.316-.237-.316-.474-.316 0-.237-.316-.316-.474-.316v.079c0 .158-.237.237-.395.237-.316-.395-.869-.79-1.423-.948l.633-.553c-.316 0-.633-.237-.633-.553-.395 0-.553-.317-.948-.317-.237-.237-.632-.316-.948-.316v-.316c0-.395-.237-.395-.553-.395l-.633-.316-.158-.395c-.869-.237-1.659-1.107-2.054-1.107l.079.396c0 .158-.079.237-.237.237l-.87-.633c-.185 0-.249-.069-.305-.143l-.022-.029c-.056-.074-.12-.144-.305-.144 0-.316-.158-.237-.395-.237-.158 0-.158-.237-.158-.316l.869-.237c-1.58-.316-2.924-.948-4.425-1.106 0-.632-.079-.553-.632-.553-.712 0-.87-.633-1.66-.633h-.316c-.316.079 0 .316 0 .474 0 .159-.632.159-.711.159-.158-.238-.554-.554-.554 0l-.869-.159-.395-.79c-1.501-.158-3.003-.869-4.425-.869-.238 0-.475 0-.554-.316h-2.133v-.632c.079-.158.395-1.028.553-.87 0-.158.948-2.766 1.106-3.082v-.158c0-.158.237-.237.395-.237l.079-.553c.316-.395.791-1.343.791-1.897l-.158-.316c.79-1.343 1.343-3.082 1.896-4.504l-.079-.316c.158-.237.316-.475.316-.791 0-.158-.316-.079-.395 0l2.055-3.635c-.158-.039-.198-.257-.198-.494l.04-.612-.711 1.343-.159-.079c-.79 0-1.343 2.687-2.291 3.003-.791 1.739-2.924 4.742-4.11 5.69l-.553.158c-.079.079-.079.237-.079.395 0 .237.237.316.395.474-.474.712-1.106 1.265-1.58 1.976l-.158-.316.395-.395c.079-.632.553-1.423.553-1.897 0-.079 0-.237-.158-.237h-.079c-.553 1.581-1.423 2.371-2.134 3.714.079-.316.079-.632.079-1.027l-.237-.079c-.395 0-.553.632-.237.869l-1.027 1.66c-.079-.079-.158-.158-.158-.237 0-.158.158-.316.316-.474.158-.395.869-.949.316-1.344.158-.474 1.106-1.817.711-2.134.395-.158 1.423-.948.869-1.343l.158-1.106c.712-1.107 1.66-2.529 2.055-3.873-.316-.158-.158-.553.079-.711 0-.079-.079-.158-.079-.158-.237 0-.474.553-.553.711-.395.791-1.422 1.897-1.897 2.845l-.237-.079c-.316 0-.237.474-.079.632-.553 1.186-1.264 2.292-1.896 3.399-.158.316-1.186 1.422-.554 1.659-.237.474-1.264 3.635-1.817 3.635-.158 0-.158-.316-.158-.395.079-.158.632-1.264.632-1.422l-.395-.474c-.079.079-.158.237-.316.237h-.158c.158-.158.158-.474.158-.633.395-.079.079-.395.474-.474v-.158c0-.79.474-2.292.869-2.845h.395c.158-.237.316-.632.316-.948l-.079-.079c-.158 0-.079.474-.553.474-.079 0-.553.632-.869.79l.079.158c0 .396-.316.633-.632.791l.158.237h-.158c-.237 0-.316.158-.079.395l-.712.711c.08.158.159.316.159.553 0 .158-.159.158-.317.079l-.316.554c.079 0 .158.079.158.158 0 .158-.395.316-.553.316.079.079.158.158.158.237 0 .237-.395.158-.474.079.079.158.158.316.158.474 0 .079-.158.158-.237.079-.474.158-.711.711-.711 1.185 0-.079 0-.079-.079-.079-.316 0-.79.316-1.028.475-.948 0-1.817.316-2.844.316 0 .553 0 .632-.554.632-1.185 0-2.449-.632-3.635-.632l-.553.474-4.109.158-.633.316c-1.003 0-1.989.052-2.982.108zm-376.553 53.385c-.811-.05-2.043-.322-2.478.403-1.897 0-3.319.869-4.505.869l-.553.237h1.106c.158-.158.712-.553.712-.079v.158c.158 0 .237-.237.237-.316h2.133c.395-.395 1.423-.237 1.897-.237.089-.134.255-.217.424-.265.035-.082.113-.13.287-.13l.553-.316c.055-.109.118-.218.187-.324zm197.535.462c-1.472.196-2.636.81-3.633.81l-.553.237h1.106c.159-.158.712-.553.712-.079v.158c.158 0 .237-.237.237-.316h1.84c.1-.27.197-.54.291-.81zm-290.086-16.309 3.823-.109.158.238c.633.158 1.265.158 1.818.474h1.501l.554.395 1.501-.079c1.581.79 3.477.474 4.9 1.501.395.712.869 1.423.948 2.213-.395.79-2.687 2.687-3.477 2.766l-.474.316-.791.079c-.316.158-.553.395-.79.632-.869.316-1.738 1.265-2.608 1.265-.197 0-.385.039-.568.098l-1.076.435c-.183.059-.371.099-.568.099l-.633.553-.237.079-.474.711c-.138-.034-.276.022-.415.089l-.118.059c-.139.068-.277.124-.415.089l-.79.317-.158.158c-.554 0-4.031 1.027-4.426 1.264-.553 0-1.185.079-1.739.237l-.711.553-.079.316c-.79.079-1.738 0-2.45.475-.158 0-.711-.159-.869-.079l-.948.316-.949-.079c-.316.553-1.027 1.027-1.501 1.343l-.948-.316.079-.869c1.58-2.134 2.608-6.006 3.793-7.034v-.632l.79-1.501.237-.079.079-.87c1.107-1.106 1.897-2.45 2.292-3.951l.632-.553.316-.632c.079 0 .791-.238.791-.317l.474.554c.593-.277 2.035-.435 3.526-.524zm89.254 12.142-.051-.001c0 .237-.395.316-.553.316 0-.158-.079-.316-.237-.316s-.237.158-.237.316l-.948.158c0 .079 0 .158-.079.158s-.158-.237-.237-.316h-.87c0 .237 0 .632.316.632h.554s3.556-.316 3.556.395c.316 0 .553.079.79.316l.316-.316h.553c.237.237.474.316.791.316h.7l.169-.237-.079-.79h-3.161c-.41-.182-.846-.443-1.293-.631zm202.187.049c-.581-.003-1.141-.05-1.353-.05 0 .237-.395.316-.553.316 0-.158-.079-.316-.237-.316s-.237.158-.237.316l-.948.158c0 .079 0 .158-.079.158s-.158-.237-.237-.316h-.87c0 .237 0 .632.317.632h.553s2.67-.238 3.383.162c.068-.378.145-.764.261-1.06zm-18.946-36.613c-.484.153-.968.289-1.452.289l-.553.317c-.079.158-.316.316-.474.316-.395 0-.474-.395-.79-.395-.159 0-.159.237-.159.316.159.079.633.316.08.316h-.159c0 .158.554.395.712.474-.474.632-.949 1.343-1.344 2.055l-.711-.396-.474.791-.316.237.316.079c0-.395.632-.158.632 0s-.237.158-.316.158l-.79 1.185-.158-.948c-.237-.079-.633-.237-.87-.237-.395 0-.632 1.501-.632 1.817.237 0 .316.238.316.238.06 0 .108-.045.153-.1l.09-.117c.045-.055.093-.1.152-.1.158 0 .316.396.396.554-.08.632-.87.474-.949 1.106l.316.553c.316 0 .553-.316.553-.553 1.265.474 1.739-.316 3.003-.316.159 0 .396 0 .396.158l1.185.395.474-.553c.474 0 1.897.079 2.134-.395l.79-.316c.237.079.553.158.711.316l.396-.316h1.422l.158-.316c.237 0 .553.079.711.316h1.66c-.079.632 1.422.079 1.659.632l.633-.158c.079-.395.474 0 .553.158.237-.079.948-.158.948.237.79 0 1.66.316 2.608.316.079 0 .553 0 .553.079 0 .158-.869.237-.948.237-.237.079-.474.158-.711.158l-3.24.158c-.949.079-2.134.949-3.32.949-.395 0-2.291-.158-2.291.158 0 .79 2.37 0 3.24.711 2.291 0 4.741-.553 7.033.395 0 .395-1.501.316-1.818.316 0 .079-.079.158-.158.158-.237 0-.395-.079-.474.237 1.66 0 3.398.474 5.058.711.079-.869 2.292.396 2.292-.632.79 0 1.422.395 2.212.395 0-.316.317-.395.554-.395 0 .158.079.395.316.395.158 0 .316-.158.316-.316.316.158.553 0 .632-.316l.553.237s.237 0 .237.079c0 .158-.237.237-.316.316 0 .158 0 .316-.158.316s-.316-.237-.395-.316l-.553.316c0 .317-.395.317-.553.317h-2.213l-.079.553c-.237 0-1.739-.158-1.739.316l-2.529.316c-.158.316-.632.316-.869.316l-.316.316-1.659.474c-1.186.316-2.213 1.107-3.399 1.107-.711 0-.869.553-1.738.553-.158 0-.474 0-.474.237h-.475c0 .237-.316.316-.474.316l-.869-.079-.079.316c0 .158.079.395.316.395s.553-.158.711-.395h1.423c0-.158.948-.553 1.185-.553 1.344 0 2.687-.474 3.793-.474 1.976 0 4.347-.474 6.56-.711.395-.237.79-.475 1.264-.475.158 0 .237.079.237.238 0 .632-.158.632-.711.632-.316 0-.79-.158-.869.316-1.502 0-2.924.158-4.426.316-.395.158-.79.395-1.264.395-.079 0-.237-.079-.237-.237l-1.186.158c0 .079.316.079 1.107.079l-.158.632c-.237 0-1.186-.237-1.186.237l-.711.475c0 .79.632-.317.632 0v.079c.079 0 .869.158.869.474-.948 0-2.607.632-3.635.632-.632.79-2.924.711-3.161 1.264-.237-.079-1.027-.079-1.027.316l-.711-.316-.87.474h-.553c0-.237-.158-.474-.395-.474-.395 0-.158.633-.395.633-.158 0-.395-.475-.474-.633-.158 0-.158.554-.158.633-.139 0-.216.06-.287.128l-.059.059c-.07.068-.148.129-.287.129-.474 0-.632-.316-.948-.633-.553.554-1.738.712-1.896.949h-.554c-.158-.237-.395-.474-.553-.553-.237-.079-.237.395-.237.553h-2.213l-.316-.316c-.395 0-.395.316-.711.316 0-.632-1.027-.632-1.502-.632-.237 0-.485.011-.736.025l-.503.029c-.251.013-.499.025-.736.025v.632c.079 0 .395 0 .395.158s-.237.158-.316.158c-.138 0-.217.034-.267.086l-.178.381c-.049.051-.128.086-.266.086 0 .316-.316.395-.554.395-.395 0-2.607-.237-2.607.158 0 .316.711 1.028-.079 1.028l-.079.474-.317.079c-.237.474-.632.948-1.106 1.264 0 .316-.158.632-.395.79-.237.079-.316.317-.316.554-.553.553-1.107 1.975-1.344 2.687h-.553c.395-2.055 3.003-5.058 3.003-5.216 0-.079-.158-.079-.237-.079l-1.027.632c-.079.158-.395 1.185-.474 1.185-.158 0-.237-.158-.317-.237-.632 0-.869.791-.869 1.265l-.553.632c0 .395-1.106 2.766-1.264 3.477l-.712.474c0 .079-.079.158-.158.158-.237 0-.474-.079-.474.237-.474.316-.711 1.581-.711 2.134 0 .158-.079.395-.237.395h-.079l.395.79.553-1.185c.632 0 .632-.79.632-1.264.139 0 .216-.061.287-.129l.059-.059c.07-.068.148-.128.287-.128.158 0 .711.237.869.316 0 .173-.061.3-.129.422l-.059.104c-.068.122-.128.249-.128.422l-.632.632v.079c0 .237.237.237.395.237.395 0 .79-.158 1.106-.316l.079-.316h1.423l.632-.316c0-.316.237-.316.474-.316.948 0 1.976-.632 3.082-.632l.079-.316c1.422 0 6.006-.633 6.243-.949 1.185 0 2.45-.553 3.714-.553l.87-.474.948.079.711-.395c3.003 0 6.322-.869 9.404-.869 1.344 0 2.687.079 3.952.316.079.079.632.316.632.395 0 .237-.949.237-1.107.237-1.501 0-2.924.316-4.425.316 0 .395-1.106.632-1.502.632 0-.632-1.264 0-1.501.158 0 .632 1.818.237 1.818.79.158 0 .632-.079.632-.316.158.158.474.316.711.316.079 0 .158-.079.158-.158l.632-.158c0-.079 0-.316.079-.316.158 0 .316.237.395.316l-.395.316c-.158 0-.474.079-.474.238 0 .711 1.897 0 2.292 0 .158.632 4.425.395 5.769.079l.948 1.185c.316 0 2.292-.079 2.292.237 0 .079-.237.079-.316.079h-2.055l-.158.237h-1.106l-.554.316c-1.264 0-2.291-.395-3.477-.395l.237.632c.791-.079 1.739.079 2.529.316 0 .158.079.238.237.238l1.107-.317c.158 0 .237.079.237.237v.08c.316 0 .474-.238.474-.475v-.079l.79-.316c0 .237.079.316.316.316.395 0 .791-.158 1.107-.316h.474c.237 0 .395.079.395.316.078 0 .52-.172.948-.243.003-.549.316-.865.316-1.337.238-.395.554-.79.87-1.107 0-.474.237-.711.632-.948v-.79c.632 0 .632-1.502.632-1.897.237-.158.237-.474.237-.711l.632-.553c0-.395.079-1.423.633-1.423 0-.474.474-1.185.632-1.738.079-.237.158-.949.474-.949.474 0 .711-1.185.711-1.738l.474-.395c.317-.474.554-.949.712-1.502.632-.395 1.027-1.501 1.264-2.133.553 0 1.976-3.557 1.976-4.189.632 0 .395-1.185 1.027-1.185l.79-1.502c0-1.027.712-1.896 1.107-2.766.158-.395.474-.79.711-1.185.237 0 1.501-2.45 1.501-2.687.158 0 .317-.079.317-.237 0-.237 0-.395.237-.395l.395-.553c0-.237.395-1.423.553-1.502.869-1.027 1.58-2.134 2.055-3.398l.395-.237c0-.079 0-.474.158-.474h.079l.316-1.976c.538 0 .561-.727.595-1.281-.877.086-1.726.249-2.65.412l-.711.474c-1.264 0-1.818.632-2.45.632-.237 0-.632-.158-.869-.237-2.371.316-4.663.79-7.113.79h-2.449s-.395 0-.395-.079c0-.158.158-.237.237-.237 0-.237.158-.316.395-.316h.237l-.632-.237-.158-.316-.554-.316c-.237 0-.395.158-.395.395v.079l.237.237c0 .237-.632.237-.711.237-.711 0-.395-.079-.869.316-.632 0-.632-1.264-1.265-1.264l-1.027.316c0 .079 0 .316-.158.316s-.316-.237-.395-.316c-.158.158-.316.395-.553.395-.079 0-.079-.158-.079-.158v-.158c-.079.158-.316.316-.475.316-.158 0-.158-.079-.158-.158v-.158l-.869.237-.237-.316c-.158 0-.395.079-.395.237v.079l-.079.079c-.104 0-.162-.076-.215-.161l-.045-.073c-.052-.085-.111-.161-.214-.161-.079 0-.079.395-.079.474 0 .237.079.553.316.711.237 0 .632.079.79.316l.948-.395c-.158-.079-1.106-.316-1.106-.395s.395-.079.395-.079h2.687l.553-.316.474.869c.316-.079 1.265-.158 1.265.316h-1.423c-.079.079-.158.396-.316.396s.079-.396-.395-.396c-.316 0-.711.238-1.027.396h-1.66c-.079.079-.316.316-.474.316-.079 0-.079-.079-.079-.158v-.158c-.079-.079-.237-.317-.395-.317-.237 0-.237.317-.237.475-.949.158-1.739-.237-1.897.79-.948 0-1.817.316-2.687.316l-.395.316c-.158-.158-.395-.395-.711-.395-.158 0 0 .316-.237.316-.158 0-.316-.158-.395-.237-.158 0-1.502.553-1.502.553l-.711-.237-1.66.237c0-.632-1.422.158-1.659.316-.632 0-1.186-.316-1.818-.316-.484 0-.968.136-1.452.289zm-183.212 35.219h-1.344l-.158.237h-1.106l-.554.316c-1.264 0-2.291-.395-3.477-.395l.237.632c.791-.079 1.739.079 2.529.316 0 .158.079.238.237.238l1.107-.317c.158 0 .237.079.237.237v.08c.316 0 .474-.238.474-.475v-.079l.646-.258-.014-.058c.158 0 .632-.079.632-.316.174 0 .389-.042.554-.158zm354.117-.395c.869.079 1.659-.395 2.529-.395l.474.079c.158-.158.395-.553.632-.553.079 0 .079.079.079.079v.158l.474-.079h.237l-.237-.158c.237-.079 1.502-.316 1.66-.475l.158-.316.632.237c0-.237.553-.316.79-.474h-.632l-.395-.079-.237.079h-.632c-.237.553-1.897-.079-1.897.474-.28-.056-1.517-.032-2.239.1-.255.545-.685.325-.685.77-.158 0-.395 0-.395.237s0 .316-.316.316zm4.957-5.204c.613-.216 1.049-.461 1.049-.723.079-.079.237-.079.395-.079s.316 0 .474.079l.158-.237h.553l.158-.237.554.079.079-.237.553.079c.395-.158.869-.395 1.343-.474 0-.791 1.107-.475 1.739-.554l.632-.474.553-.079-.079.158 2.213-1.264c.316.079.316.316.632.316.395-.474 1.106-.79 1.66-.948l.158-.158c.237.237.632.474.711 0 .395-.158.869-.237 1.264-.158l.158-.158c.554 0 .238-.159.475-.87.316 0 .395-.237.711-.237.158 0 .237 0 .237-.158l-.079-.158c.237-.395.632-.711 1.027-.948v-.87l.632-.474c0-.632.238-1.185.238-1.817 0-.237-.238-.87.079-.87h.395l.553-.632c0-.395 0-1.817.632-1.817-.079-.238.158-.317.395-.317h.158v-1.264c.158 0 .237-.079.237-.237 0-.237 0-.316.316-.316.317-.711.87-1.423.87-2.213v-.079c.158-.079.632-1.264.632-1.501.632-.949.948-2.529 1.739-3.32l.237-.869c.158 0 .395-.079.395-.316l-.079-.316.474-.79c-.079-.553.553-.949.553-1.581 0-.711.711-.869.711-1.501.316-.395.87-1.186.87-1.739-2.845-.395-6.085-.395-8.93-.395-.949 0-1.897.316-2.766.316v.869c-.079.079-.158.158-.237.158-.238 0-.87 1.423-.87 1.897l-.711.237c.079.711-.316 1.818-.632 2.45-.395 0-.237.395-.711.395 0 .237-.079.553-.238.79 0 .237 0 .475-.237.475h-.395c0 .632-.395.553-.395 1.027 0 0 0 .158-.079.158s-.711-.632-.869-.79c0-.395.316-.237.316-.633l.316-.711c0-.079.079-.237-.079-.237-.079 0-.237.395-.237.474l-.553.632c0 .396-.395.475-.395.87l-.633.632v1.106s-.237 0-.237.079.474.237.554.237c0-.474.553-.632.948-.632l.395-.948.237 1.264c-.079.079-.158.158-.237.158-.395 0-.395-.158-.395.475-.158 0-.316 0-.316.158 0 .632-.949.316-1.028 2.449-.316 0-.553.238-.553.554l-.632.869c0 .79-.158 1.106-.632 1.738l-.316.159c-.079.395-.474.869-.791 1.106-.553 0-.553 1.264-1.185 1.264 0 1.107-.316 2.45-.316 3.319-.553.238-1.265 1.581-1.502 2.055 0 1.106-1.659 1.897-1.659 2.529l-.869 1.264c0 .237-.079.554-.317.633v1.58zm-315.545-18.108.014-.001c.079 0 .158.553.158.632 0 .475.316.712.316 1.265-.346 0-.359.302-.33.643l.028.294c.029.341.016.643-.33.643-.553.316-.948.474-.948 1.186.632 0 .711 0 .711.632-.711 0-.711.711-.711 1.264.158 0 .316.079.316.316 0 .396-.474.712-.712.949l-.553 1.501c-.395 0-6.559.87-6.638 1.265l-.79-.316c.316 0 .553-.317.632-.633l.395-.158c.237-.395.474-1.106.869-1.343v-.395l1.265-.632c-.158-.238-.237-.554-.237-.87-.553.395-1.028.87-1.581 1.344 0 .474-.711.79-1.027.948 0-.237-.158-.553-.395-.632h.158c.316 0 .553-.158.553-.474.711 0 1.027-.87 1.581-.87-.159-.158-.238-.316-.238-.553 0-.079.079-.079.159-.079.711 0 .158-.632.79-.632 0-.79.869-.948.869-1.502l1.106-1.264c.475 0 0-.632.712-.632l.158.948c-.079 0-.316 0-.316.158s.316.237.395.237c.632 0-.395-.711 1.264-.711.79 0 .316-1.264.869-1.264l1.344-.87c0-.076 0-.375.144-.394zm-100.961 10.384c.898-.169 1.946-.47 2.666-.902 0 0 .158 0 .158-.079 0 0-.395-.237-.474-.237-.632-.079-.632-.395-1.027-.395l-.712.395c-.158 0-.632 0-.632-.237l.158-.158c.474 0 1.423-.316 1.897-.395 0-.316.158-.474.474-.474.395 0 1.027.079 1.344-.316 0-.316.237-.316.474-.316.316 0 .79 0 .948-.317.474 0 .237 0 .553-.316l.711-.237-.711-1.185c-.79 0-.869-.869-.869-1.502l.316-.711c0-.158.079-.237.237-.237s.395.079.395-.237c.237-.395.632-1.027 1.107-1.027.395-.554.553-.87 1.264-.87.079-.948.632-.474.948-1.027l.791-.237c.079-.158.316-.395.553-.395.079 0 .158.079.237.158 0 .158.158.237.316.237.316 0 .869-.237.869-.632.87-.079 1.66-.158 2.529-.316l.395-.554.395-.237c.158-.395.316-.79.554-1.106v-.79l.632-.711c0-.238.079-.633.316-.791 0-.632.316-.553.395-1.027.237-.237.316-.553.316-.869.158-.237.237-.554.237-.791.237-.158.316-.474.395-.711l.633-.395c0-.632.395-1.343.948-1.66.158-.474.395-.869.632-1.264 0-.316 0-.948.395-.948 0-.316-.316-.395-.553-.395-.395 0-1.264.316-1.264-.317h-1.581c0 .317-.316.396-.553.396 0-.554-.632-.396-1.027-.396-.791 0-1.818.396-2.134.396v-.396c0-.553 1.659-.316 1.975-.316l1.502-.553c.395 0 2.134.237 2.213-.474-.237.079-.633 0-.633-.316v-.158h-3.398c-.316-.553-2.054-.316-2.528 0h-1.107c0-.237.237-.711.553-.711l.791.079c.395-.316 1.264-.475 1.817-.475l-.79-.474h-1.423l-.474.316h-.553c-.158 0-.395-.079-.395-.237v-.079c-1.897 0-3.635.949-5.611.949-.474 0-.474-.316-.869-.316 0 .237-2.134.632-2.608.632h-.401l.132.237.079.711.553.316.317.553v.158c.395.791.79 1.265.79 2.213l-.237.553c-.395.079-.395.554-.395.87v.079c-1.107 2.133-.158 3.319-2.845 4.899l-.475.949-.79.553-.079.158-.711.395c-.474.632-.869 1.106-1.502 1.501l-.474.712c-.395-.079-.79.079-1.185.158-.158 1.027-.237 1.343-.948 2.054-.238-.158-.633-.237-.949-.316l.079-.553-.316-.395c.158-.316.316-.632.553-.869l.791-.158.474-.87h-.237l-.791.316v.08c-1.185.158-1.58.869-2.291 1.817l-.554.079-.237.553c-.711-.079-1.343.395-2.054.474-.395.791-1.581.554-1.897 1.423.079.079.158.079.237.079.237 0 .553-.158.711-.316l.396.553c.395-.553.948-.948 1.501-1.343 0-.237.237-.316.474-.316l.395.079v-.079c.237-.396.633-.791 1.028-.949h.79l.316.632-.316 1.028c-.632.316-1.185.79-1.897 1.027v.237l-.79.079-.553.632h-.948l.316.712c1.185.474 2.133.553 3.398.711.237.553 1.027.632 1.501.869.632.711 1.897.237 3.24 1.581l.87.237c1.04 1.873 1.837 1.675 2.818 2.561zm137.908-4.157c-.555-.052-1.15-.234-1.687-.301l-.553.316c-.949 0-1.739.316-2.687.395l-.475.791h-.632l-.237-.316c-.474 0-.079.632-.711.632l-1.106-.316c0 .553 0 .632-.633.632-.079-.079-.711-.632-.711-.158-.474 0-1.58.079-1.58.711-.317-.079-.633.079-.633.474-.711-.079-1.027-.237-1.027.553-.237 0-.553 0-.79.158 0 .158.869.158.948.158l2.134.08c.237 0 1.975 0 1.975-.396h3.241c.948.949 1.501-.316 2.291-.316.316.158.712.395 1.028.395.028 0 .055-.001.081-.003.287-.572.551-1.114.551-1.656.158-.237.395-.395.632-.553 0-.468.289-.917.581-1.28zm317.421-3.857c0-.474.158-1.027.158-1.66.475-.553.949-1.264.949-2.054.395 0 .237-.158.237-.395s.237-.237.395-.237l.316-.712c0-.711.632-1.027.474-1.817.632 0 .632-1.028.632-1.423l.554-1.58c.395 0 .237-.158.237-.395 0-.159.158-.159.237-.159l.395-.553v-.158c0-.711.553-1.817 1.185-1.817v-.079c0-.237.158-.475.474-.475.159.159.475.396.712.396.079 0 .079-.158.079-.237l.79-.475h2.608c.237 0 .316.079.316.316-.316 0-3.003-.395-3.003.475 0 .237.079.474.395.474.237 0 .553-.237.79-.395 1.265.158 2.45.474 3.636.948v.158c0 .474.553.395.869.395.395 0 .316-.316.316-.632h2.134c.237 0 .711 0 .711.316.079 0 .395.158.395.237s-.395.079-.395.079c.158 1.66 2.45.474 3.398 1.66v.316c0 .948-.237 1.185-1.185 1.185v.158c0 .237-.237.395-.475.395l-.632.554h-.79l-.237.316-1.106.553.079.316c0 .237-.554.158-.712.158v.079c0 .079-1.264.553-1.501.553l-.395.237c-.316 0-1.66.474-1.66.633-.237 0-1.422.553-1.422.632-.316 0-.633.079-.87.316h-.158c-.237 0-.395.079-.395.316-.237 0-1.58.395-1.58.553l-1.423.079c-.395.79-1.185.395-1.422.869h-1.502l-1.027.475v.079c0 .316-.316.395-.316.711zm-485.728-3.793-.237-.158c.475-.712.633-1.581 1.028-2.292.632-.316.948-.869.869-1.581.632-1.264 1.027-2.528 2.055-3.477l.079-.237.553-.632c.158-.632.395-1.265.869-1.66l.316-.79c1.66-.474 3.952-.395 5.69-.395l.158-.395-.395-.711h.079c.316 0 .79 0 .79.395l.633.632v.079l.395-.474c-.158-.395-.237-.79-.316-1.186l.79.158v.079l.474.791c-.079.237-.158.474-.158.632l.395.711v.553c.474.079.869.158 1.344.158.395.158.79.396 1.264.396.158.395.316.79.316 1.185l-.237.632-.711.474v.079l-.316.554c-.158.079-.712.316-.791.474-1.106.395-3.477 1.896-4.109 2.766h-.869l-.632.79c-.791.395-1.66.395-2.529.395-.712.395-1.344.869-2.134 1.027-.316.237-.79.554-1.185.633l-.554.632-.158.079c-1.027.079-2.133 0-2.924.79l-.158-.948zm464.512-15.734c-.152.042-.279.145-.279.324l-.316.711-.079 1.264-.553.711c0 .312-.153.623-.385.783.13-.031.239-.055.306-.071.553.237.869 0 1.422 0 .316 0 1.739.553 1.818 0-.395-.158-.395-.712-.711-.712-.158 0-.474 0-.474-.237v-.158c.869.158 1.817.079 2.686.079l.159-.158c-.08-.079-.554-.316-.554-.395 0-.158.633-.316.791-.316v-.237c-1.107 0-2.292-.158-3.399-.395l.712-.316c.395 0 .869.079 1.264.237.158 0 1.027.079 1.027-.158 0-.158-.158-.316-.237-.474l-2.766-.475c-.079.475-.316.317-.395 0zm-151.396.253c-.287-.004-.535.042-.535.229v.079c-.111 0-.221.001-.33.005-.03.152-.104.271-.223.39 0 .632-.632 1.027-.632 1.659 0 0 0 .158.079.158.158 0 .316-.553.395-.632l.474-.553c.159 0 .317 0 .317-.158 0-.237-.079-.474.237-.474 0-.201.056-.515.218-.703zm140.37-.873v.39l-.396.475c0 .158.079.79.238.79.158 0 .158-.395.158-.474l.553-.475c0-.079 0-.316.158-.316s.316.158.474.316l.321-.513zm5.482-3.006c-1.652.004-3.3.013-4.947.039.012.034.018.073.018.117l.316.553c0 .538-.043.816-.186 1.049l.581-.179c0-.316.474-.632.79-.632.633 0 1.186.237 1.739.395l.592-.213c.187-.456.988-.344.988-.973.041-.048.077-.1.109-.156zm.893-.001h-.044l-.167.236c-.158 0-.237.079-.237.237l-.001.05c.06-.03.119-.05.159-.05.158 0 .237.079.316.158.052 0 .113-.007.176-.023.095-.171.231-.396.381-.608zm1.686-.001-.075.226.153.011.158-.237z" fill="#fff"/></svg>