<svg clip-rule="evenodd" fill-rule="evenodd" stroke-linejoin="round" stroke-miterlimit="2" viewBox="0 0 600 601" xmlns="http://www.w3.org/2000/svg"><g fill="#fff"><path d="m.001 300.971c.334 165.407 135.178 299.726 300.599 299.403 165.414-.324 299.716-135.172 299.399-300.586-.33-165.418-135.171-299.733-300.592-299.403-165.415.324-299.723 135.165-299.406 300.586zm9.76-.021c.31 160.042 130.77 289.983 290.815 289.666 160.031-.32 289.983-130.766 289.663-290.807-.303-160.042-130.77-289.99-290.811-289.673-160.042.316-289.98 130.776-289.667 290.814z"/><path d="m124.124 300.724c.191 96.974 79.245 175.711 176.229 175.526 96.978-.198 175.718-79.244 175.53-176.218-.191-96.982-79.245-175.722-176.229-175.53-96.971.195-175.722 79.241-175.53 176.222zm6.497-.014c.198 93.387 76.314 169.225 169.715 169.033 93.39-.184 169.228-76.318 169.04-169.701-.174-93.387-76.318-169.221-169.708-169.03-93.397.181-169.218 76.305-169.047 169.698z"/><path d="m156.559 97.732 29.533-22.486-10.207 35.952 30.772 21.272-36.945.602-10.411 35.463-12.225-35.397-37.578.428 29.425-22.406-12.074-34.376z"/><path d="m439.506 469.274 29.525-22.483-10.199 35.949 30.772 21.272-36.941.602-10.422 35.466-12.218-35.4-37.571.432 29.422-22.41-12.079-34.377z"/><path d="m117.843 429.103 29.526-22.483-10.196 35.953 30.772 21.265-36.942.609-10.422 35.462-12.217-35.399-37.578.428 29.418-22.403-12.075-34.377z"/><path d="m487.318 147.729 29.525-22.486-10.202 35.949 30.775 21.272-36.948.609-10.415 35.466-12.221-35.407-37.571.432 29.425-22.406-12.082-34.377z"/><path d="m141.363 293.218c4.464 5.86 114.999 150.998 119.457 156.858 5.602-4.267 68.412-52.099 70.792-53.912.386-2.878 5.557-41.083 5.95-43.964-1.893-2.484-80.671-105.934-82.564-108.415-2.864-.383-38.507-5.21-41.368-5.596-2.38 1.813-66.655 50.753-72.267 55.029zm5.466.745c4.451 5.846 110.285 144.8 114.728 150.639 5.568-4.235 64.035-48.762 66.405-50.565.386-2.86 5.129-37.898 5.519-40.762-1.893-2.477-78.72-103.359-80.602-105.84-2.847-.383-35.33-4.781-38.17-5.164-2.37 1.806-62.298 47.44-67.88 51.692zm118.765 84.075-55.868-73.368 18.944-14.431 58.234 76.468-18.947 14.428zm.738-5.467-51.139-67.156 12.743-9.705 53.501 70.26-12.743 9.705z"/><path d="m134.525 300.7c.184 91.253 74.55 165.327 165.797 165.149 91.243-.184 165.331-74.557 165.16-165.793-.181-91.25-74.564-165.327-165.807-165.15-91.247.181-165.328 74.558-165.15 165.794zm78.023-66.6-76.652 58.38 124.182 163.062 75.181-57.252 6.385-47.172-84.516-110.98zm63.422 131.128-6.531 4.973-48.779-64.045 6.531-4.976zm89.521-104.831 17.04 22.382-6.528 4.976-48.034-63.067 6.531-4.976 17.051 22.385 49.013-37.331-34.551-45.362-44.565-6.031-53.808 40.975-5.449 40.26 86.882 114.085 46.024 6.225 49.047-37.362 6.389-47.172-36.033-47.314z"/><path d="m271.29 196.467c-.379 2.832-4.628 34.23-5.011 37.059 1.893 2.488 83.031 109.028 84.924 111.513 2.878.393 39.937 5.407 42.815 5.794 2.373-1.806 44.11-33.591 46.476-35.393.397-2.892 5.571-41.096 5.957-43.977-1.726-2.266-28.68-37.665-32.685-42.93-5.088 3.873-37.731 28.736-42.819 32.605 3.511 4.607 17.051 22.386 17.051 22.386l-12.732 9.698-52.757-69.279 12.729-9.698s13.543 17.778 17.047 22.385c5.081-3.873 37.731-28.732 42.812-32.609-3.978-5.219-29.481-38.712-31.203-40.974-2.871-.386-38.504-5.206-41.375-5.592-2.394 1.82-48.842 37.192-51.229 39.012zm3.65 2.129c-.361 2.669-4.214 31.179-4.575 33.855 1.893 2.481 81.071 106.46 82.964 108.941 2.735.369 36.872 4.99 39.607 5.359 2.363-1.799 41.548-31.642 43.915-33.441.4-2.947 5.421-40.087 5.525-40.772-1.708-2.238-25.409-33.364-29.348-38.535-4.927 3.748-31.683 24.125-36.614 27.88 3.508 4.607 17.051 22.385 17.051 22.385l-18.941 14.42-57.485-75.486 18.937-14.424s13.543 17.778 17.05 22.389c4.921-3.751 31.677-24.132 36.604-27.88-3.901-5.126-26.168-34.363-27.862-36.586-2.836-.383-35.337-4.781-38.17-5.164-2.38 1.816-46.277 35.243-48.658 37.059z"/></g></svg>