<svg clip-rule="evenodd" fill-rule="evenodd" stroke-linejoin="round" stroke-miterlimit="2" viewBox="0 0 600 142" xmlns="http://www.w3.org/2000/svg"><g fill="#fff" fill-rule="nonzero"><path d="m127.402 127.912v-13.865zm0-13.865v-14.219zm0-14.219v-14.148zm0 28.084v14.006h-14.148v-14.006zm-14.148 0v-13.865h14.148v13.865zm0-13.865v-14.219h14.148v14.219zm0-14.219v-14.148h14.148v14.148zm0-14.148v-14.218h14.148v14.218zm0-14.218v-14.148h14.148v14.148zm0-14.148v-14.219h14.148v14.219zm0-14.219v-14.218h14.148v14.218zm0-14.218v-13.865h14.148v13.865zm-14.219-13.865v-14.219h14.219v14.219zm14.219 112.9v14.006h-14.219v-14.006zm-14.219 0v-13.865h14.219v13.865zm0-13.865v-14.219h14.219v14.219zm0-28.367v-14.218h14.219v14.218zm0-14.218v-14.148h14.219v14.148zm0-14.148v-14.219h14.219v14.219zm0-14.219v-14.218h14.219v14.218zm0-14.218v-13.865h14.219v13.865zm-14.148-13.865v-14.219h14.148v14.219zm14.148 112.9v14.006h-14.148v-14.006zm-14.148 0v-13.865h14.148v13.865zm-14.218-112.9v-14.219h14.218v14.219zm14.218 112.9v14.006h-14.218v-14.006zm-14.218 0v-13.865h14.218v13.865zm-14.219-112.9v-14.219h14.219v14.219zm0 112.9v-13.865h14.219v13.865zm0-13.865v-14.219h14.219v14.219zm0-28.367v-14.218h14.219v14.218zm0-14.218v-14.148h14.219v14.148zm0-42.585v-13.865h14.219v13.865zm-13.865 99.035v-13.865h13.865v13.865zm0-13.865v-14.219h13.865v14.219zm0-28.367v-14.218h13.865v14.218zm0-42.585v-14.218h13.865v14.218zm0-14.218v-13.865h13.865v13.865zm-14.218 99.035v-13.865h14.218v13.865zm0-13.865v-14.219h14.218v14.219zm0-56.733v-14.219h14.218v14.219zm0-14.219v-14.218h14.218v14.218zm-14.148 84.817v-13.865h14.148v13.865zm0-13.865v-14.219h14.148v14.219zm0-42.585v-14.148h14.148v14.148zm0-14.148v-14.219h14.148v14.219zm-14.219 56.733v-14.219h14.219v14.219zm0-14.219v-14.148h14.219v14.148zm0-14.148v-14.218h14.219v14.218zm0-14.218v-14.148h14.219v14.148z"/><path d="m207.307 101.248v-8.923h8.789v8.923zm0-8.923v-8.967h8.789v8.967zm0-8.967v-8.923h8.789v8.923zm0-8.923v-8.968h8.789v8.968zm0-8.968v-8.967h8.789v8.967zm-8.923 44.748v-8.967h8.923v8.967zm0-8.967v-8.923h8.923v8.923zm0-8.923v-8.967h8.923v8.967zm0-8.967v-8.923h8.923v8.923zm0-8.923v-8.968h8.923v8.968zm0-8.968v-8.967h8.923v8.967zm0-8.967v-8.744h8.923v8.744zm-8.967-8.744v-8.968h8.967v8.968zm0 62.459v-8.967h8.967v8.967zm0-8.967v-8.923h8.967v8.923zm0-8.923v-8.967h8.967v8.967zm0-35.825v-8.744h8.967v8.744zm-8.923-8.744v-8.968h8.923v8.968zm0 62.459v-8.967h8.923v8.967zm0-8.967v-8.923h8.923v8.923zm-8.967-53.492v-8.968h8.967v8.968zm0 62.459v-8.967h8.967v8.967zm0-8.967v-8.923h8.967v8.923zm0-17.89v-8.923h8.967v8.923zm0-8.923v-8.968h8.967v8.968zm0-8.968v-8.967h8.967v8.967zm-8.968-17.711v-8.968h8.968v8.968zm8.968 71.204v8.833h-8.968v-8.833zm-8.968 0v-8.745h8.968v8.745zm0-8.745v-8.967h8.968v8.967zm0-8.967v-8.923h8.968v8.923zm0-17.89v-8.923h8.968v8.923zm0-8.923v-8.968h8.968v8.968zm0-8.968v-8.967h8.968v8.967zm-8.744-17.711v-8.968h8.744v8.968zm8.744 71.204v8.833h-8.744v-8.833zm-8.744 0v-8.745h8.744v8.745zm0-8.745v-8.967h8.744v8.967zm0-8.967v-8.923h8.744v8.923zm0-17.89v-8.923h8.744v8.923zm0-8.923v-8.968h8.744v8.968zm0-8.968v-8.967h8.744v8.967zm-8.968-17.711v-8.968h8.968v8.968zm8.968 71.204v8.833h-8.968v-8.833zm-8.968 0v-8.745h8.968v8.745zm-8.922-71.204v-8.968h8.922v8.968zm8.922 71.204v8.833h-8.922v-8.833zm-8.922 0v-8.745h8.922v8.745zm-8.968-71.204v-8.968h8.968v8.968zm0 71.204v-8.745h8.968v8.745zm0-8.745v-8.967h8.968v8.967zm0-8.967v-8.923h8.968v8.923zm0-8.923v-8.967h8.968v8.967zm0-8.967v-8.923h8.968v8.923zm0-8.923v-8.968h8.968v8.968zm0-8.968v-8.967h8.968v8.967zm0-8.967v-8.744h8.968v8.744z"/><path d="m287.657 118.96v8.833h-8.923v-8.833zm-8.923 0v-8.745h8.923v8.745zm0-8.745v-8.967h8.923v8.967zm0 8.745v8.833h-8.967v-8.833zm-8.967 0v-8.745h8.967v8.745zm0-8.745v-8.967h8.967v8.967zm0-8.967v-8.923h8.967v8.923zm0 17.712v8.833h-8.923v-8.833zm-8.923 0v-8.745h8.923v8.745zm0-17.712v-8.923h8.923v8.923zm0 17.712v8.833h-8.967v-8.833zm-8.967 0v-8.745h8.967v8.745zm0-17.712v-8.923h8.967v8.923zm0 17.712v8.833h-8.968v-8.833zm-8.968 0v-8.745h8.968v8.745zm0-17.712v-8.923h8.968v8.923zm0-8.923v-8.967h8.968v8.967zm0-8.967v-8.923h8.968v8.923zm0-8.923v-8.968h8.968v8.968zm0-8.968v-8.967h8.968v8.967zm0-8.967v-8.744h8.968v8.744zm-8.744-8.744v-8.968h8.744v8.968zm8.744 71.204v8.833h-8.744v-8.833zm-8.744 0v-8.745h8.744v8.745zm0-17.712v-8.923h8.744v8.923zm0-8.923v-8.967h8.744v8.967zm0-8.967v-8.923h8.744v8.923zm0-8.923v-8.968h8.744v8.968zm0-8.968v-8.967h8.744v8.967zm0-8.967v-8.744h8.744v8.744zm-8.968-8.744v-8.968h8.968v8.968zm8.968 71.204v8.833h-8.968v-8.833zm-8.968 0v-8.745h8.968v8.745zm-8.922-71.204v-8.968h8.922v8.968zm8.922 71.204v8.833h-8.922v-8.833zm-8.922 0v-8.745h8.922v8.745zm-8.968-71.204v-8.968h8.968v8.968zm0 71.204v-8.745h8.968v8.745zm0-8.745v-8.967h8.968v8.967zm0-8.967v-8.923h8.968v8.923zm0-8.923v-8.967h8.968v8.967zm0-8.967v-8.923h8.968v8.923zm0-8.923v-8.968h8.968v8.968zm0-8.968v-8.967h8.968v8.967zm0-8.967v-8.744h8.968v8.744z"/><path d="m367.873 118.96v8.833h-8.789v-8.833zm-8.789 0v-8.745h8.789v8.745zm0-8.745v-8.967h8.789v8.967zm0-8.967v-8.923h8.789v8.923zm0-8.923v-8.967h8.789v8.967zm0-8.967v-8.923h8.789v8.923zm0-8.923v-8.968h8.789v8.968zm0-8.968v-8.967h8.789v8.967zm0 53.493v8.833h-8.923v-8.833zm-8.923 0v-8.745h8.923v8.745zm0-8.745v-8.967h8.923v8.967zm0-8.967v-8.923h8.923v8.923zm0-8.923v-8.967h8.923v8.967zm0-8.967v-8.923h8.923v8.923zm0-8.923v-8.968h8.923v8.968zm0-8.968v-8.967h8.923v8.967zm0-8.967v-8.744h8.923v8.744zm-8.967-8.744v-8.968h8.967v8.968zm8.967 71.204v8.833h-8.967v-8.833zm-8.967 0v-8.745h8.967v8.745zm0-62.46v-8.744h8.967v8.744zm-8.923-8.744v-8.968h8.923v8.968zm8.923 71.204v8.833h-8.923v-8.833zm-8.923 0v-8.745h8.923v8.745zm-8.967-71.204v-8.968h8.967v8.968zm0 71.204v-8.745h8.967v8.745zm0-8.745v-8.967h8.967v8.967zm0-8.967v-8.923h8.967v8.923zm0-17.89v-8.923h8.967v8.923zm0-8.923v-8.968h8.967v8.968zm0-8.968v-8.967h8.967v8.967zm-8.968-17.711v-8.968h8.968v8.968zm8.968 71.204v8.833h-8.968v-8.833zm-8.968 0v-8.745h8.968v8.745zm0-8.745v-8.967h8.968v8.967zm0-8.967v-8.923h8.968v8.923zm0-17.89v-8.923h8.968v8.923zm0-8.923v-8.968h8.968v8.968zm0-8.968v-8.967h8.968v8.967zm-8.744-17.711v-8.968h8.744v8.968zm8.744 71.204v8.833h-8.744v-8.833zm-8.744 0v-8.745h8.744v8.745zm0-8.745v-8.967h8.744v8.967zm0-8.967v-8.923h8.744v8.923zm0-17.89v-8.923h8.744v8.923zm0-8.923v-8.968h8.744v8.968zm0-8.968v-8.967h8.744v8.967zm-8.968-17.711v-8.968h8.968v8.968zm8.968 71.204v8.833h-8.968v-8.833zm-8.968 0v-8.745h8.968v8.745zm-8.922-71.204v-8.968h8.922v8.968zm8.922 71.204v8.833h-8.922v-8.833zm-8.922 0v-8.745h8.922v8.745zm0-62.46v-8.744h8.922v8.744zm-8.968 62.46v-8.745h8.968v8.745zm0-8.745v-8.967h8.968v8.967zm0-8.967v-8.923h8.968v8.923zm0-8.923v-8.967h8.968v8.967zm0-8.967v-8.923h8.968v8.923zm0-8.923v-8.968h8.968v8.968zm0-8.968v-8.967h8.968v8.967zm0-8.967v-8.744h8.968v8.744z"/><path d="m430.511 92.325v-8.967h8.923v8.967zm0-8.967v-8.923h8.923v8.923zm0-8.923v-8.968h8.923v8.968zm0-8.968v-8.967h8.923v8.967zm0-8.967v-8.744h8.923v8.744zm-8.967-8.744v-8.968h8.967v8.968zm0 53.492v-8.923h8.967v8.923zm0-8.923v-8.967h8.967v8.967zm0-8.967v-8.923h8.967v8.923zm0-8.923v-8.968h8.967v8.968zm0-8.968v-8.967h8.967v8.967zm0-8.967v-8.744h8.967v8.744zm-8.923-8.744v-8.968h8.923v8.968zm8.923 71.204v8.833h-8.923v-8.833zm-8.923 0v-8.745h8.923v8.745zm0-8.745v-8.967h8.923v8.967zm0-8.967v-8.923h8.923v8.923zm0-8.923v-8.967h8.923v8.967zm0-8.967v-8.923h8.923v8.923zm-8.967-35.602v-8.968h8.967v8.968zm8.967 71.204v8.833h-8.967v-8.833zm-8.967 0v-8.745h8.967v8.745zm0-8.745v-8.967h8.967v8.967zm0-8.967v-8.923h8.967v8.923zm0-8.923v-8.967h8.967v8.967zm-8.968-44.569v-8.968h8.968v8.968zm8.968 71.204v8.833h-8.968v-8.833zm-8.968 0v-8.745h8.968v8.745zm0-44.525v-8.968h8.968v8.968zm0-8.968v-8.967h8.968v8.967zm0-8.967v-8.744h8.968v8.744zm-8.744-8.744v-8.968h8.744v8.968zm8.744 71.204v8.833h-8.744v-8.833zm-8.744 0v-8.745h8.744v8.745zm0-44.525v-8.968h8.744v8.968zm0-8.968v-8.967h8.744v8.967zm0-8.967v-8.744h8.744v8.744zm-8.968-8.744v-8.968h8.968v8.968zm0 71.204v-8.745h8.968v8.745zm0-8.745v-8.967h8.968v8.967zm0-8.967v-8.923h8.968v8.923zm0-8.923v-8.967h8.968v8.967zm-8.922-44.569v-8.968h8.922v8.968zm0 44.569v-8.967h8.922v8.967zm0-8.967v-8.923h8.922v8.923zm-8.968-35.602v-8.968h8.968v8.968zm0 35.602v-8.923h8.968v8.923zm0-8.923v-8.968h8.968v8.968zm0-8.968v-8.967h8.968v8.967zm0-8.967v-8.744h8.968v8.744z"/><path d="m519.65 118.96v8.833h-8.789v-8.833zm-8.789 0v-8.745h8.789v8.745zm0-8.745v-8.967h8.789v8.967zm0-35.78v-8.968h8.789v8.968zm0-8.968v-8.967h8.789v8.967zm0-8.967v-8.744h8.789v8.744zm-8.923-8.744v-8.968h8.923v8.968zm8.923 71.204v8.833h-8.923v-8.833zm-8.923 0v-8.745h8.923v8.745zm0-8.745v-8.967h8.923v8.967zm0-8.967v-8.923h8.923v8.923zm0-8.923v-8.967h8.923v8.967zm0-8.967v-8.923h8.923v8.923zm0-8.923v-8.968h8.923v8.968zm0-8.968v-8.967h8.923v8.967zm0-8.967v-8.744h8.923v8.744zm-8.967-8.744v-8.968h8.967v8.968zm8.967 71.204v8.833h-8.967v-8.833zm-8.967 0v-8.745h8.967v8.745zm0-17.712v-8.923h8.967v8.923zm0-8.923v-8.967h8.967v8.967zm0-8.967v-8.923h8.967v8.923zm0-8.923v-8.968h8.967v8.968zm0-8.968v-8.967h8.967v8.967zm-8.923-17.711v-8.968h8.923v8.968zm8.923 71.204v8.833h-8.923v-8.833zm-8.923 0v-8.745h8.923v8.745zm0-17.712v-8.923h8.923v8.923zm0-8.923v-8.967h8.923v8.967zm0-17.89v-8.968h8.923v8.968zm0-8.968v-8.967h8.923v8.967zm-8.967-17.711v-8.968h8.967v8.968zm8.967 71.204v8.833h-8.967v-8.833zm-8.967 0v-8.745h8.967v8.745zm0-17.712v-8.923h8.967v8.923zm0-8.923v-8.967h8.967v8.967zm0-17.89v-8.968h8.967v8.968zm0-8.968v-8.967h8.967v8.967zm-8.968-17.711v-8.968h8.968v8.968zm8.968 71.204v8.833h-8.968v-8.833zm-8.968 0v-8.745h8.968v8.745zm0-17.712v-8.923h8.968v8.923zm0-8.923v-8.967h8.968v8.967zm0-17.89v-8.968h8.968v8.968zm0-8.968v-8.967h8.968v8.967zm-8.744-17.711v-8.968h8.744v8.968zm8.744 71.204v8.833h-8.744v-8.833zm-8.744 0v-8.745h8.744v8.745zm0-17.712v-8.923h8.744v8.923zm0-8.923v-8.967h8.744v8.967zm0-17.89v-8.968h8.744v8.968zm0-8.968v-8.967h8.744v8.967zm-8.968-17.711v-8.968h8.968v8.968zm8.968 71.204v8.833h-8.968v-8.833zm-8.968 0v-8.745h8.968v8.745zm-8.922-71.204v-8.968h8.922v8.968zm8.922 71.204v8.833h-8.922v-8.833zm-8.922 0v-8.745h8.922v8.745zm-8.968-71.204v-8.968h8.968v8.968zm0 71.204v-8.745h8.968v8.745zm0-8.745v-8.967h8.968v8.967zm0-8.967v-8.923h8.968v8.923zm0-8.923v-8.967h8.968v8.967zm0-8.967v-8.923h8.968v8.923zm0-8.923v-8.968h8.968v8.968zm0-8.968v-8.967h8.968v8.967zm0-8.967v-8.744h8.968v8.744z"/><path d="m600 118.96v8.833h-8.789v-8.833zm-8.789 0v-8.745h8.789v8.745zm0-8.745v-8.967h8.789v8.967zm0-8.967v-8.923h8.789v8.923zm0-8.923v-8.967h8.789v8.967zm0-8.967v-8.923h8.789v8.923zm0-8.923v-8.968h8.789v8.968zm0-8.968v-8.967h8.789v8.967zm0 53.493v8.833h-8.923v-8.833zm-8.923 0v-8.745h8.923v8.745zm0-8.745v-8.967h8.923v8.967zm0-8.967v-8.923h8.923v8.923zm0-8.923v-8.967h8.923v8.967zm0-8.967v-8.923h8.923v8.923zm0-8.923v-8.968h8.923v8.968zm0-8.968v-8.967h8.923v8.967zm0-8.967v-8.744h8.923v8.744zm-8.967-8.744v-8.968h8.967v8.968zm8.967 71.204v8.833h-8.967v-8.833zm-8.967 0v-8.745h8.967v8.745zm0-35.602v-8.923h8.967v8.923zm0-26.858v-8.744h8.967v8.744zm-8.923-8.744v-8.968h8.923v8.968zm8.923 71.204v8.833h-8.923v-8.833zm-8.923 0v-8.745h8.923v8.745zm-8.967-71.204v-8.968h8.967v8.968zm0 71.204v-8.745h8.967v8.745zm0-8.745v-8.967h8.967v8.967zm0-8.967v-8.923h8.967v8.923zm0-8.923v-8.967h8.967v8.967zm0-17.89v-8.968h8.967v8.968zm0-8.968v-8.967h8.967v8.967zm-8.968-17.711v-8.968h8.968v8.968zm8.968 71.204v8.833h-8.968v-8.833zm-8.968 0v-8.745h8.968v8.745zm0-8.745v-8.967h8.968v8.967zm0-8.967v-8.923h8.968v8.923zm0-8.923v-8.967h8.968v8.967zm0-17.89v-8.968h8.968v8.968zm0-8.968v-8.967h8.968v8.967zm-8.744-17.711v-8.968h8.744v8.968zm8.744 71.204v8.833h-8.744v-8.833zm-8.744 0v-8.745h8.744v8.745zm0-8.745v-8.967h8.744v8.967zm0-8.967v-8.923h8.744v8.923zm0-8.923v-8.967h8.744v8.967zm0-17.89v-8.968h8.744v8.968zm0-8.968v-8.967h8.744v8.967zm-8.968-17.711v-8.968h8.968v8.968zm8.968 71.204v8.833h-8.968v-8.833zm-8.968 0v-8.745h8.968v8.745zm-8.922-71.204v-8.968h8.922v8.968zm8.922 71.204v8.833h-8.922v-8.833zm-8.922 0v-8.745h8.922v8.745zm-8.968-71.204v-8.968h8.968v8.968zm0 71.204v-8.745h8.968v8.745zm0-8.745v-8.967h8.968v8.967zm0-8.967v-8.923h8.968v8.923zm0-8.923v-8.967h8.968v8.967zm0-8.967v-8.923h8.968v8.923zm0-8.923v-8.968h8.968v8.968zm0-8.968v-8.967h8.968v8.967zm0-8.967v-8.744h8.968v8.744z"/></g></svg>