<svg clip-rule="evenodd" fill-rule="evenodd" stroke-linejoin="round" stroke-miterlimit="2" viewBox="0 0 600 368" xmlns="http://www.w3.org/2000/svg"><g fill="#fff"><path d="m259.592.874v230.45l52.179 16.531v-193.229c0-9.106 4.06-15.151 10.571-13.071 8.513 2.361 10.167 10.748 10.167 19.752v77.171c32.479 15.72 58.051-.009 58.051-41.486 0-42.383-14.992-61.265-59.106-76.447-17.398-5.791-49.645-15.567-71.861-19.671" fill-rule="nonzero"/><path d="m321.695 214.165 83.804-29.83c9.481-3.513 10.93-8.287 3.256-10.796-7.791-2.555-21.703-1.824-31.283 1.617l-55.777 19.675v-31.395l3.194-1.054s16.146-5.72 38.854-8.182c22.664-2.485 50.459.324 72.305 8.557 24.609 7.818 27.367 19.221 21.141 27.156-6.317 7.854-21.631 13.535-21.631 13.535l-113.863 40.902z"/><path d="m163.987 210.99c-25.233-7.029-29.44-21.881-17.928-30.46 10.616-7.835 28.698-13.733 28.698-13.733l74.746-26.65v30.332l-53.739 19.261c-9.519 3.406-10.946 8.197-3.278 10.704 7.803 2.607 21.652 1.907 31.177-1.608l25.84-9.317v27.079c-1.666.279-3.518.561-5.208.849-25.762 4.277-53.209 2.521-80.308-6.456z"/><path d="m596.594 253.841h-72.672v33.379s-.374 12.888 15.566 12.888h24.804c2.953-.024 5.878.571 8.586 1.747 4.202 1.873 8.927 5.688 8.927 13.383 0 6.906-3.346 10.828-6.659 13.023-2.742 1.771-5.943 2.702-9.207 2.676h-42.017v9.369h52.657s23.421-.95 23.421-25.021c0-12.239-7.147-18.302-13.578-21.273-4.155-1.909-8.677-2.889-13.25-2.871h-24.135c-1.243.016-2.471-.276-3.574-.85-1.592-.863-3.346-2.576-3.346-5.949v-21.26h54.477z"/><path d="m131.014 284.793-.145.218 18.632 54.56c.031.122.031.311-.009.431l-10.49 27.014c-.044.127.014.222.137.222h10.925c.141-.003.268-.091.321-.222l32.705-82.005c.047-.131-.011-.218-.139-.218h-11.92c-.136.006-.256.092-.305.218l-13.847 35.853h-.155l-12.225-35.852c-.028-.132-.168-.219-.293-.219z"/><path d="m375.25 284.793h-12.556c-.123.001-.225.101-.229.225v55.063l.229.225h12.556.003c.124 0 .227-.101.229-.225v-55.063c0-.001 0-.003 0-.004 0-.121-.1-.221-.222-.221-.003 0-.007 0-.01 0z"/><path d="m354.485 284.793h-13.558l-.092-.084v-9.135l-.207-.224h-12.584c-.124 0-.227.1-.231.224v48.104c0 9.636 5.996 16.628 14.26 16.628h8.992c.121 0 .221-.1.221-.222 0-.001 0-.002 0-.003v-7.505c0-.123-.087-.238-.221-.238h-5.52c-1.42-.022-4.71-.093-4.71-7.192v-32.385l.076-.073c4.144.022 13.574 0 13.574 0l.224-.206v-7.464c-.003-.122-.102-.221-.224-.225z"/><path d="m31.225 267.385-30.995-.014c-.122-.002-.226.096-.23.218v72.492c0 .116.102.225.23.225h12.562l.221-.225.014-64.623.075-.107 14.383-.027c5.237 0 8.114 5.277 8.114 14.841 0 9.569-2.877 14.858-8.114 14.858l-8.657-.009c-.129 0-.217.099-.217.222v7.522c0 .146.088.236.217.236h12.397c4.374 0 8.657-2.027 11.748-5.51 3.662-4.133 5.591-10.101 5.591-17.253 0-13.859-6.77-22.846-17.339-22.846z"/><path d="m69.108 267.371h-12.57c-.143 0-.245.101-.245.218v72.492c0 .118.102.225.245.225h12.57l.231-.225v-72.492z"/><path d="m266.788 284.793h-13.635l-.072-.084v-9.135c0-.121-.093-.224-.219-.224h-12.558c-.128 0-.239.103-.239.224v48.104c0 9.636 6.006 16.628 14.277 16.628h8.993c.129 0 .229-.109.229-.225v-7.505c0-.123-.1-.238-.229-.238h-5.521c-1.415-.022-4.732-.093-4.746-7.192v-32.385l.077-.073c4.177.022 13.643 0 13.643 0l.222-.206v-7.464c0-.123-.1-.223-.222-.225z"/><path d="m462.13 284.793h-22.411c-.122.002-.221.102-.221.225l-.007 55.063.21.225h12.58l.212-.225-.017-47.272.087-.092 9.556-.007c2.584 0 5.419.417 7.233 3.405 1.658 2.7 2.411 7.447 2.411 14.897.01.322-.01 29.069-.01 29.069 0 .116.1.225.223.225h12.526c.136 0 .236-.109.236-.225v-27.614c0-12.942-2.586-27.674-22.608-27.674z"/><path d="m123.927 285.017c0-.129-.113-.225-.237-.225h-22.384c-20.071 0-22.638 14.733-22.638 27.681l.016 11.198c0 9.637 5.993 16.634 14.232 16.634h12.213l.221-.224v-7.513c0-.122-.104-.232-.221-.232l-8.723.015c-2.01-.041-4.716-.891-4.716-7.801v-12.09c-.009-8.034.739-13.171 2.407-16.093 1.807-3.225 4.651-3.659 7.209-3.659h9.541l.081.114-.012 47.259c0 .115.097.224.231.224h12.546c.124 0 .235-.109.235-.224z"/><path d="m214.346 297.707-6.19-.472c-4.642-.399-8.094-2.97-8.094-10.576 0-8.88 3.983-11.31 9.3-11.31h17.132l.227-.221v-7.538l-.227-.217h-.358l-18.56.005c-11.693 0-20.008 6.867-20.008 20.553v.596c0 10.8 6.645 18.594 16.548 19.352l6.161.456c4.699.356 7.626 4.558 7.626 10.935v1.794c0 3.987-.997 11.281-9.547 11.281h-17.801c-.124.004-.224.108-.224.232v7.504l.224.224h22.1c6.81 0 18.212-2.755 18.212-21.289 0-6.716-1.525-12.008-4.617-15.833-2.635-3.286-6.54-5.062-11.904-5.475z"/><path d="m317.287 285.017c-.001-.123-.102-.225-.225-.225h-22.434c-20.028 0-22.621 14.733-22.621 27.681l.016 11.198c0 9.637 5.988 16.634 14.27 16.634h12.179l.227-.224v-7.513c-.003-.125-.103-.227-.227-.232l-8.728.015c-2.003-.041-4.684-.891-4.692-7.801v-12.09c0-8.034.756-13.171 2.385-16.093 1.809-3.225 4.671-3.659 7.187-3.659h9.584l.094.114-.023 47.259c0 .115.104.224.229.224h12.565c.123 0 .214-.109.214-.224z"/><path d="m407.507 284.794c-20.975 0-23.657 14.802-23.657 27.745 0 12.957 2.682 27.808 23.657 27.808 20.978 0 23.653-14.851 23.653-27.808 0-12.943-2.675-27.745-23.653-27.745zm7.962 43.898c-1.976 3.255-5.115 3.69-7.962 3.69-2.819 0-5.966-.435-7.964-3.69-1.802-2.929-2.636-8.062-2.636-16.154v-.064c0-9.551 1.175-14.977 3.804-17.561 1.573-1.568 3.611-2.205 6.796-2.205 3.232 0 5.25.637 6.822 2.205 2.604 2.584 3.782 8.033 3.782 17.625 0 8.103-.837 13.239-2.642 16.154z"/><path d="m375.25 267.371h-12.556l-.229.218v10.528c0 .128.112.221.229.221h12.556c.137 0 .232-.093.232-.221v-10.528c0-.117-.095-.218-.232-.218z"/></g></svg>