<?xml version="1.0" encoding="UTF-8" standalone="no"?><!DOCTYPE svg PUBLIC "-//W3C//DTD SVG 1.1//EN" "http://www.w3.org/Graphics/SVG/1.1/DTD/svg11.dtd"><svg width="100%" height="100%" viewBox="0 0 600 130" version="1.1" xmlns="http://www.w3.org/2000/svg" xmlns:xlink="http://www.w3.org/1999/xlink" xml:space="preserve" xmlns:serif="http://www.serif.com/" style="fill-rule:evenodd;clip-rule:evenodd;stroke-linejoin:round;stroke-miterlimit:2;"><g id="playstation_ps4_compact"><g><path d="M417.233,89.112l0,-37.293c0,-7.608 3.551,-13.056 11.124,-13.056l46.713,0c0.285,0 0.561,-0.283 0.561,-0.565l0,-7.42c-0.003,-0.065 -0.017,-0.129 -0.043,-0.189l-57.117,0c-12.38,1.574 -18.428,10.202 -18.428,21.23l0,37.291c0,7.608 -3.65,13.056 -11.121,13.056l-49.332,0c-0.28,0 -0.561,0.189 -0.561,0.564l-0,7.421c-0,0.309 0.189,0.545 0.41,0.622l56.011,0c14.596,-0.383 21.783,-9.703 21.783,-21.661Z" style="fill:#fff;"/><path d="M225.318,110.773l16.401,0c0.253,-0.099 0.418,-0.348 0.411,-0.619l-0,-23.767c-0,-7.608 4.297,-12.869 10.558,-12.869l67.557,-0c15.23,-0 22.613,-9.393 22.613,-21.699c0,-11.028 -6.041,-19.656 -18.428,-21.23l-99.415,0c-0.029,0.062 -0.078,0.111 -0.078,0.189l0,7.42c0,0.376 0.187,0.565 0.56,0.565l89.047,0c7.57,0 11.12,5.448 11.12,13.056c0,7.609 -3.55,13.057 -11.12,13.057l-70.452,0c-10.932,0 -19.155,9.301 -19.155,21.511l0,23.768c-0.001,0.305 0.131,0.541 0.381,0.618Z" style="fill:#fff;"/><path d="M475.357,102.169l89.703,-0c0.275,-0 0.462,0.186 0.462,0.375l-0,7.61c-0,0.375 0.284,0.563 0.559,0.563l16.169,0c0.286,0 0.559,-0.188 0.559,-0.563l-0,-7.422c-0,-0.282 0.286,-0.563 0.561,-0.563l16.069,-0c0.374,-0 0.561,-0.283 0.561,-0.563l-0,-7.515c-0,-0.284 -0.187,-0.564 -0.561,-0.564l-16.069,0c-0.275,0 -0.561,-0.284 -0.561,-0.562l-0,-54.202c-0,-4.423 -1.643,-7.239 -4.407,-8.174l-4.678,0c-1.458,0.375 -3.043,1.045 -4.743,2.067l-96.613,59.649c-3.739,2.348 -5.049,4.977 -4.113,6.95c0.747,1.692 2.891,2.914 7.102,2.914Zm89.45,-56.469c-0.215,-0.001 -0.432,0.073 -0.594,0.202c-0,-0 -74.842,46.309 -74.842,46.309c-0.36,0.214 -0.554,0.427 -0.583,0.681c-0.009,0.082 -0.002,0.168 0.022,0.259c0.022,0.049 0.058,0.098 0.111,0.144c0.149,0.13 0.432,0.232 0.913,0.232l75.226,0c0.275,0 0.561,-0.28 0.561,-0.562l0,-46.312c0,-0.678 -0.403,-0.951 -0.814,-0.953Z" style="fill:#fff;"/></g><path d="M62.671,0.653c7.288,1.359 14.452,3.3 21.582,5.323c4.077,1.184 8.145,2.409 12.186,3.714c6.348,2.022 12.668,4.311 18.417,7.725c2.575,1.564 5.049,3.331 7.162,5.486c2.29,2.248 4.166,4.882 5.542,7.782c2.507,5.235 3.365,11.083 3.619,16.834c0.119,3.752 0.112,7.537 -0.59,11.241c-0.582,3.218 -1.617,6.392 -3.339,9.187c-1.52,2.469 -3.634,4.605 -6.2,5.981c-2.46,1.326 -5.277,1.958 -8.068,1.902c-4.232,0.044 -8.339,-1.305 -12.137,-3.074c-0.07,-12.632 -0.012,-25.266 -0.03,-37.895c-0.026,-2.285 0.129,-4.594 -0.332,-6.849c-0.325,-1.747 -1.037,-3.507 -2.409,-4.693c-0.908,-0.82 -2.088,-1.282 -3.272,-1.532c-1.198,-0.228 -2.476,0.281 -3.217,1.242c-1.233,1.541 -1.557,3.586 -1.613,5.503c-0.01,33.817 0.013,67.635 -0.01,101.449c-9.098,-2.884 -18.195,-5.77 -27.291,-8.661c-0.009,-40.221 -0.005,-80.442 0,-120.665Z" style="fill:#fff;"/><path d="M21.782,86.229c11.86,-4.199 23.708,-8.44 35.573,-12.624c0.019,4.655 0,9.313 0.007,13.974c-0.007,0.632 0.033,1.266 -0.046,1.895c-9.378,3.324 -18.739,6.707 -28.107,10.052c-1.299,0.492 -2.631,1.047 -3.633,2.038c-0.466,0.465 -0.847,1.153 -0.592,1.819c0.321,0.785 1.122,1.213 1.861,1.535c2.056,0.836 4.303,0.956 6.492,1.055c2.441,-0.038 4.893,-0.221 7.283,-0.749c1.616,-0.318 3.172,-0.862 4.712,-1.44c4.003,-1.45 8.007,-2.908 12.017,-4.342c0.028,3.939 0.005,7.88 0.012,11.824c-0.012,0.787 0.036,1.58 -0.042,2.364c-4.924,0.884 -9.907,1.484 -14.912,1.564c-10.079,0.227 -20.181,-1.333 -29.755,-4.483c-3.139,-0.91 -6.259,-2.121 -8.881,-4.114c-1.444,-1.118 -2.735,-2.522 -3.392,-4.25c-0.55,-1.465 -0.51,-3.154 0.176,-4.566c0.66,-1.41 1.815,-2.522 3.086,-3.388c2.941,-2.032 6.187,-3.582 9.474,-4.963c2.836,-1.207 5.774,-2.147 8.667,-3.201Z" style="fill:#fff;"/><path d="M117.21,80.924c2.69,-0.311 5.397,-0.384 8.102,-0.481c8.895,0.033 17.838,1.139 26.348,3.809c1.669,0.508 3.287,1.166 4.95,1.695c2.966,1.083 5.935,2.397 8.308,4.529c1.426,1.301 2.657,3.054 2.673,5.054c0.084,1.63 -0.652,3.193 -1.71,4.393c-2.01,2.254 -4.668,3.805 -7.335,5.156c-2.84,1.448 -5.893,2.382 -8.872,3.485c-18.179,6.527 -36.361,13.053 -54.536,19.588c-0.004,-5.093 0.005,-10.184 -0.004,-15.271c0.027,-0.204 -0.083,-0.559 0.203,-0.612c13.832,-4.921 27.661,-9.856 41.491,-14.792c1.87,-0.699 3.885,-1.205 5.471,-2.473c0.649,-0.51 1.285,-1.321 0.967,-2.197c-0.333,-0.765 -1.126,-1.188 -1.857,-1.506c-2.07,-0.82 -4.324,-0.978 -6.526,-1.04c-3.448,0.024 -6.925,0.448 -10.205,1.554c-9.852,3.453 -19.685,6.947 -29.54,10.389c0.001,-5.468 -0.004,-10.933 0.002,-16.399c7.128,-2.502 14.573,-4.019 22.07,-4.881Z" style="fill:#fff;"/></g></svg>