<svg clip-rule="evenodd" fill-rule="evenodd" stroke-linejoin="round" stroke-miterlimit="2" viewBox="0 0 600 162" xmlns="http://www.w3.org/2000/svg"><g fill="#fff"><path d="m349.062 97.697h15.171v11.071h-15.171z"/><path d="m349.062 119.429h15.171v42.379h-15.171z"/><path d="m477.221 97.697h15.171v11.071h-15.171z"/><path d="m477.221 119.429h15.171v42.233h-15.171z"/><path d="m420.521 108.382c-8.522.07-17.017 3.752-21.435 11.046-2.485 4.105-2.963 8.534-3.048 13.086l-.012-.007v29.155h-14.109v-34.904c0-4.362 1.711-8.32 3.164-11.02 6.686-12.415 21.222-18.83 35.641-18.818l.338.001c14.308.088 28.669 6.499 35.303 18.817 1.454 2.7 3.165 6.658 3.165 11.02v34.904h-14.109v-29.155l-.013.007c-.084-4.552-.563-8.981-3.048-13.086-4.452-7.351-13.046-11.034-21.636-11.047z"/><path d="m260.33 110.097c7.564-8.712 19.691-13.187 31.737-13.177l.338.001c14.307.088 28.669 6.499 35.303 18.817 1.453 2.699 3.164 6.658 3.164 11.02v34.904h-14.109v-29.155l-.012.007c-.085-4.552-.563-8.981-3.048-13.086-4.452-7.352-13.047-11.034-21.636-11.047l-.201.001c-8.522.069-17.018 3.752-21.435 11.046-2.362 3.901-2.911 8.096-3.032 12.411v29.823h-14.138v-29.823c-.12-4.315-.669-8.51-3.031-12.411-4.453-7.352-13.047-11.034-21.636-11.047l-.202.001c-8.522.069-17.017 3.752-21.435 11.046-2.485 4.105-2.963 8.534-3.047 13.086l-.013-.007v29.155h-14.109v-34.904c0-4.362 1.711-8.321 3.165-11.02 6.686-12.415 21.221-18.83 35.641-18.818l.338.001c11.933.073 23.905 4.546 31.398 13.176z"/><path d="m600 81.296-12.265-.102c-12.333.079-24.489 1.543-33.058 11.993-4.685 5.713-6.825 12.776-7.145 20.091-.566 12.938 2.492 27.573-11.907 34.31-2.735 1.28-5.644 1.871-8.61 2.294-5.616.8-11.553.299-17.222.299v11.48c15.213 0 33.361 2.226 44.514-10.667 4.184-4.836 6.663-10.459 7.443-16.805 1.727-14.066-3.923-31.065 12.008-39.03 2.307-1.153 4.837-1.842 7.381-2.207 6.087-.874 12.713-.175 18.861-.175z"/><path d="m297.092 14.681 17.448 45.729-10.017 24.533h7.916l28.846-70.262h-8.838l-12.566 34.246-11.691-34.246z"/><path d="m348.466 61.161v-5.774s10.086.396 12.187.396c4.654 0 6.978-.992 8.727-2.868 1.034-1.126 1.966-6.109 1.966-7.886 0-1.769-.34-5.596-1.033-7.163-.715-1.536-2.34-2.97-4.776-3.177-1.738-.15-4.424-.502-7.565-.646-4.404-.208-7.315-2.506-8.717-4.158-1.39-1.653-3.252-4.143-3.252-11.761 0-7.628 1.973-11.904 3.951-13.887 1.978-1.994 4.872-2.868 7.096-3.262 2.558-.437 6.737-.464 6.737-.464l13.349.389v5.774s-9.734-.389-11.828-.389c-4.655 0-6.052.997-7.795 2.868-1.029 1.113-1.833 4.195-1.833 5.961 0 1.773.207 5.357.906 6.907.692 1.537 2.324 2.975 4.766 3.194 1.732.134 4.424.485 7.559.628 4.424.209 7.33 2.501 8.716 4.16 1.403 1.657 3.268 5.149 3.268 12.761 0 7.629-1.989 13.078-3.957 15.067-1.982 1.982-4.871 2.868-7.094 3.251-2.565.441-6.744.475-6.744.475z"/><path d="m236.818.432h9.536v61.093h-9.536z"/><path d="m400.503 6.283h-9.532v44.852s.228 4.093.463 5.533c.234 1.439 2.33 4.857 7.794 4.857l9.878-.193v-5.752s-2.676.192-4.29.192c-1.637 0-3.621-.107-3.956-2.873-.358-2.761-.358-6.061-.358-6.061v-26.41h10.769v-5.747h-10.769v-8.396z"/><path d="m492.538 14.683h9.532v46.841h-9.532z"/><path d="m473.547 6.283h-9.536v44.852s.224 4.093.454 5.533c.239 1.439 2.318 4.857 7.804 4.857l9.877-.193v-5.752s-2.681.192-4.301.192-3.608-.107-3.956-2.873c-.341-2.761-.341-6.061-.341-6.061v-26.41h10.742v-5.747h-10.742z"/><path d="m189.788.431v61.092h9.538v-55.237h8.827s6.414 0 8.61 2.868c1.866 2.437 2.207 6.857 2.207 9.841 0 3.194-.202 8.13-1.274 9.937-1.626 2.761-4.297 3.315-6.738 3.315h-5.828v5.422h8.38s7.561.315 10.813-2.99c3.987-4.052 5-9.5 5-16.793 0-6.627-2.405-13.312-7.319-15.583-4.068-1.871-11.403-1.871-11.403-1.871l-20.813-.001z"/><path d="m572.258 21.259 9.35-.394c2.446 0 5.326.66 6.723 2.431 1.3 1.668 2.121 3.657 2.121 6.86v31.315h9.548v-32.103c0-6.072-1.871-9.602-4.675-11.819-3.999-3.172-11.163-2.868-11.163-2.868l-21.362.383v46.407h9.458z"/><path d="m282.543 30.156c0-3.203-.815-5.192-2.127-6.86-1.397-1.771-4.264-2.432-6.718-2.432l-12.577.395v-6.195l15.137-.383s7.163-.305 11.168 2.868c2.793 2.219 4.648 5.747 4.648 11.819v31.656l-18.274.394s-8.273.029-12.443-1.657c-4.062-1.654-6.279-6.19-6.279-12.486 0-6.078 1.86-9.607 4.653-11.825 4.003-3.177 11.163-2.862 11.163-2.862h5.838v5.395h-3.274c-2.452 0-4.972.453-6.376 2.223-1.305 1.652-2.004 3.087-2.004 6.291 0 4.206.815 6.081 2.793 7.511 1.749 1.274 4.878 1.551 8.371 1.551l6.301-.384z"/><path d="m443.341 30.156c0-3.203-.798-5.192-2.11-6.86-1.413-1.771-4.281-2.432-6.716-2.432l-12.572.395v-6.195l15.125-.383s7.159-.305 11.158 2.868c2.794 2.219 4.659 5.747 4.659 11.819v31.656l-18.275.394s-8.284.029-12.443-1.657c-4.067-1.654-6.29-6.19-6.29-12.486 0-6.078 1.876-9.607 4.654-11.825 3.999-3.177 11.173-2.862 11.173-2.862h5.833v5.395h-3.279c-2.436 0-4.973.453-6.359 2.223-1.312 1.652-2.015 3.087-2.015 6.291 0 4.206.82 6.081 2.793 7.511 1.743 1.274 4.889 1.551 8.38 1.551l6.286-.384z"/><path d="m532.201 14.281c6.487 0 11.52 1.45 14.223 3.635 2.729 2.192 6.081 6.814 6.081 20.189 0 13.376-3.352 17.992-6.081 20.189-2.704 2.186-7.736 3.646-14.223 3.646-6.505 0-11.516-1.46-14.24-3.646-2.724-2.197-6.061-6.813-6.061-20.189 0-13.375 3.337-17.998 6.061-20.189 2.724-2.185 7.735-3.635 14.24-3.635zm-6.536 8.982c-1.313 1.617-2.911 5.012-2.911 14.842 0 9.826 1.598 13.226 2.91 14.835 1.307 1.601 3.715 2.683 6.835 2.683 3.123 0 5.522-1.083 6.845-2.681 1.306-1.611 2.905-5.012 2.905-14.836 0-9.831-1.599-13.228-2.905-14.842-1.323-1.604-3.722-2.677-6.845-2.677-3.119 0-5.528 1.072-6.835 2.677z"/><path d="m492.538.429h9.532v8.504h-9.532z"/><path d="m91.113 31.452c21.01 7.252 28.13 16.28 28.13 36.624 0 19.822-12.173 27.338-27.635 19.833v-36.966c0-4.332-.792-8.324-4.838-9.457-3.101-1-5.026 1.897-5.026 6.23v92.51l-24.809-7.917v-110.298c10.552 1.968 25.92 6.598 34.178 9.419z"/><path d="m86.445 124.138 39.902-14.241c4.531-1.649 5.224-3.926 1.545-5.13-3.678-1.204-10.326-.863-14.846.77l-26.59 9.38v-14.95l1.54-.522c6.007-1.944 12.201-3.258 18.48-3.921 10.804-1.193 24.033.165 34.414 4.102 11.706 3.706 13.026 9.166 10.051 12.927-2.974 3.761-10.265 6.439-10.265 6.439l-54.22 19.513z"/><path d="m11.425 122.632c-11.981-3.426-14.015-10.497-8.539-14.571 5.064-3.778 13.675-6.598 13.675-6.598l35.558-12.702v14.472l-25.59 9.199c-4.525 1.65-5.218 3.937-1.539 5.141 3.678 1.204 10.326.863 14.845-.764l12.273-4.476v12.949c-.776.143-1.65.28-2.447.412-12.805 2.089-25.927 1.037-38.236-3.062z"/></g></svg>