<svg clip-rule="evenodd" fill-rule="evenodd" stroke-linejoin="round" stroke-miterlimit="2" viewBox="0 0 600 197" xmlns="http://www.w3.org/2000/svg" xmlns:xlink="http://www.w3.org/1999/xlink"><clipPath id="a"><path clip-rule="evenodd" d="m600 .063h-600v196.857h600v-196.857zm-323.854 164.955 35.347-121.543h-23.931l-24.861 88.214c-.846 3.095-1.974 4.643-3.383 4.643h-2.621c-1.41 0-2.565-1.548-3.467-4.643l-24.523-88.214h-24.185l35.431 121.378c.564 1.879 1.128 3.509 1.692 4.891.563 1.382 1.212 2.543 1.945 3.482.732.94 1.592 1.659 2.579 2.156.986.498 2.212.746 3.678.746h15.982c4.679 0 8.118-3.703 10.317-11.11zm322.773-57.87v-29.847h-21.902c-13.586 0-20.379 10.834-20.379 32.5v66.327h20.379v-62.513c0-4.311 1.269-6.467 3.806-6.467zm-131.748-29.847v-30.51h-19.618v30.51h-8.456v29.847h8.456v68.98h19.618v-68.98h9.218v-29.847zm-32.302 29.847v-29.847h-37.969c-13.586 0-20.379 10.834-20.379 32.5v33.827c0 21.667 6.793 32.5 20.379 32.5h38.307v-31.505h-34.501c-2.537 0-3.806-2.211-3.806-6.633v-24.375c0-4.311 1.269-6.467 3.806-6.467zm-66.804 8.954v-15.752c0-15.366-4.341-23.049-13.023-23.049h-31.964c-5.807 0-10.246 2.266-13.319 6.799-3.072 4.532-4.608 11.441-4.608 20.727v41.288c0 10.06 1.536 17.577 4.608 22.551 3.073 4.975 7.512 7.462 13.319 7.462h44.141v-28.023h-39.067c-2.255 0-3.383-2.045-3.383-6.135v-4.311h30.442c4.285 0 7.498-1.741 9.64-5.224 2.143-3.482 3.214-8.926 3.214-16.333zm180.117 27.858v-34.159c0-21.666-6.793-32.5-20.38-32.5h-26.129c-13.587 0-20.38 10.834-20.38 32.5v33.827c0 21.667 6.793 32.5 20.38 32.5h26.129c13.587 0 20.38-10.723 20.38-32.168zm-42.704-36.812h18.519c2.593 0 3.89 2.156 3.89 6.467v24.707c0 4.201-1.297 6.301-3.89 6.301h-18.519c-2.537 0-3.805-2.211-3.805-6.633v-24.375c0-4.311 1.268-6.467 3.805-6.467zm-177.496-2.487h18.35c1.748 0 2.622 1.658 2.622 4.975v1.16c0 3.427-.874 5.141-2.622 5.141h-21.478v-5.638c0-3.759 1.043-5.638 3.128-5.638z"/></clipPath><g clip-path="url(#a)"><path d="m0 192.852v4.068h600v-2.921h-49.903l-47.618-30.209h39.814l57.707 30.066v-1.219l-169.978-88.561.156-.122-26.461-33.563-39.804 8.569-46.225-46.785-17.455 13.117-27.979-45.065-39.044 57.648-12.378-15.812-41.012 61.95.178.119-179.998 88.72zm463.025-29.062 37.915 30.209h47.139l-47.618-30.209zm-30.916 0 30.417 30.209h36.679l-37.915-30.209zm-61.527 0 15.167 30.209h37.028l-22.749-30.209zm30.799 0 22.749 30.209h36.862l-30.417-30.209zm-339.974 0-61.289 30.209h64.6l48.059-30.209zm53.401 0-48.059 30.209h49.36l37.916-30.209zm40.952 0-37.916 30.209h36.676l30.333-30.209zm30.625 0-30.333 30.209h36.867l22.75-30.209zm30.637 0-22.75 30.209h37.029l15.166-30.209zm30.654 0-15.166 30.209h37.148l7.583-30.209zm30.679 0-7.583 30.209h37.212v-30.209zm30.71 0v30.209h37.212l-7.583-30.209zm30.743 0 7.584 30.209h37.147l-15.166-30.209zm91.03-25.645 30.097 23.98h36.902l-37.799-23.98zm31.218 0 37.799 23.98h39.243l-46.026-23.98zm-348.62 0-48.651 23.98h50.64l38.149-23.98zm42.17 0-38.149 23.98h38.657l30.098-23.98zm32.341 0-30.098 23.98h28.675l24.078-23.98zm24.187 0-24.078 23.98h28.866l18.059-23.98zm24.2 0-18.058 23.98h29.027l12.039-23.98zm24.217 0-12.039 23.98h29.147l6.019-23.98zm24.242 0-6.02 23.98h29.211v-23.98zm24.272 0v23.98h29.211l-6.02-23.98zm24.306 0 6.019 23.98h29.147l-12.039-23.98zm24.337 0 12.039 23.98h29.027l-18.059-23.98zm24.361 0 18.058 23.98h28.771l-24.145-23.98zm24.218 0 24.145 23.98h28.768l-30.097-23.98zm-77.783-19.39 4.564 18.181h22.823l-9.127-18.181zm58.26 0 18.306 18.181h22.515l-22.818-18.181zm-19.297 0 13.691 18.181h22.378l-18.306-18.181zm64.025 0 28.658 18.181h30.602l-34.895-18.181zm-278.718 0-36.886 18.181h39.61l28.923-18.181zm33.678 0-28.923 18.181h30.2l22.819-18.181zm25.831 0-22.819 18.181h22.352l18.255-18.181zm19.32 0-18.255 18.181h22.543l13.691-18.181zm19.333 0-13.692 18.181h22.705l9.127-18.181zm19.35 0-9.128 18.181h22.824l4.564-18.181zm19.374 0-4.564 18.181h22.888v-18.181zm19.405 0v18.181h22.888l-4.564-18.181zm97.436 0 22.819 18.181h28.812l-28.658-18.181zm-58.528 0 9.128 18.181h22.704l-13.691-18.181zm-117.482-14.507-17.371 13.84h17.621l13.897-13.84zm110.199 0 6.948 13.84h17.973l-10.422-13.84zm15.852 0 10.422 13.84h17.594l-13.936-13.84zm-174.797.228-27.617 13.612h31.354l22.019-13.84h-23.895l-1.688.666zm27.787-.228-22.018 13.84h23.871l17.371-13.84zm36.638 0-13.897 13.84h17.812l10.422-13.84zm15.691 0-10.423 13.84h17.973l6.948-13.84zm20.361 0h-4.653l-6.948 13.84h18.092l3.474-13.84h-9.454l-.352.237zm11.08 0-3.474 13.84h18.156v-13.84zm15.763 0v13.84h18.157l-3.474-13.84zm15.797 0 3.474 13.84h18.093l-6.949-13.84zm96.718 0h-12.956l21.816 13.84h24.136l-26.564-13.84h-5.72l-.242.338zm-49.424 0 13.936 13.84h17.837l-17.371-13.84zm34.45 0h-18.313l17.371 13.84h22.759zm-41.837-24.421 11.043 11.176 13.672-11.089 33.165 23.837-.084.118h6.237l-25.495-32.339zm-63.992-33.659.023.037-.417.259-48.737 36.625-18.76-23.962-.359-.243.078-.116-11.704-14.949-39.753 60.05h.621l25.612-10.114s10.963 4.59 10.963 4.59l8.892-12.968s10.694 8.239 10.694 8.238l7.61-8.289s9.9 12.397 9.9 12.397l18.922-16.33 14.975 17.184 10.87-7.298s4.875 6.37 4.875 6.37l16.375-18.827s21.594 16.391 21.594 16.391l12.015-9.817s11.157 13.385 11.157 13.385l8.787-7.128-11.432-11.57-.226.049-.077-.356-45.688-46.241zm74.958 46.22-9.652 7.829s-11.155-13.382-11.155-13.382l-11.854 9.685s-21.473-16.298-21.473-16.298l-16.57 19.051s-5.053-6.602-5.053-6.602l-16.68 11.198h137.754l-31.531-22.663-13.404 10.872-.348.344zm-93.768 11.481-.159-.237s6.67-4.478 6.67-4.478-14.218-16.315-14.218-16.315l-18.956 16.36s-9.818-12.295-9.818-12.295l-7.437 8.1s-10.58-8.15-10.58-8.15l-8.75 12.761s-11.349-4.75-11.349-4.75l-22.804 9.004zm-48.091-45.144 17.958 22.938 47.574-35.752-27.191-43.796z" fill="#fff"/></g><g fill="#fff"><path d="m66.598 173.204c-.207.355-.715 1.309-.364 1.437.104.038 1.679.276 2.772.389 9.359.966 57.438 4.857 71.416 5.983 2.417.195 4.374.352 4.374.352l.992-.753-16.675-140.048-.471-2.812s-61.86 135.135-62.044 135.452zm.934.544c.184-.316 60.774-132.712 60.774-132.712l16.017 139.207s-1.397-.112-3.814-.307c-15.526-1.251-73.137-5.914-72.977-6.188z"/><path d="m127.592 40.175-11.672 104.298 64.973 9.491 1.314-1.021-53.565-115.191zm-10.482 103.379 64.118 9.313-52.562-112.572z"/><path d="m67.351 174.492 49.295-29.913s28.15 36.786 28.15 36.786l37.411-28.422-.545-.705-36.558 27.428s-28.3-36.133-28.3-36.133l-50.016 30.036z"/><path d="m67.097 174.379 114.76-21.078-.195-1.063-114.76 21.077z"/><path d="m276.741 165.326c.001-.002.001-.004.002-.006l35.347-121.544c.095-.326.031-.678-.174-.95-.204-.272-.524-.432-.864-.432h-23.931c-.484 0-.909.321-1.041.787l-24.861 88.215c-.001.003-.001.006-.002.008-.379 1.389-.805 2.437-1.311 3.131-.317.435-.632.716-1.029.716h-2.621c-.403 0-.728-.284-1.058-.726-.518-.695-.964-1.742-1.369-3.129-.248-.891-24.522-88.211-24.522-88.211-.13-.468-.556-.791-1.041-.791h-24.185c-.34 0-.661.16-.865.432s-.268.625-.173.951l35.432 121.379c.001.002.001.005.002.007.575 1.917 1.151 3.58 1.726 4.99.605 1.484 1.306 2.729 2.093 3.738.836 1.072 1.82 1.889 2.945 2.456 1.118.564 2.504.862 4.165.862h15.982c5.073 0 8.97-3.854 11.353-11.883zm-2.073-.613c-2.015 6.785-4.993 10.334-9.28 10.334h-15.982c-1.27 0-2.336-.199-3.192-.63-.847-.428-1.583-1.048-2.213-1.855-.678-.87-1.275-1.947-1.796-3.226-.552-1.353-1.104-2.95-1.656-4.79 0 0-35.026-119.99-35.026-119.99h21.921s24.303 87.423 24.303 87.423c.001.004.003.008.004.013.606 2.08 1.35 3.519 2.161 4.352.716.734 1.507 1.069 2.344 1.069h2.621c.842 0 1.631-.338 2.337-1.077.797-.833 1.518-2.274 2.087-4.357 0 0 24.638-87.423 24.638-87.423h21.673s-34.944 120.157-34.944 120.157z"/><path d="m368.705 116.102v-15.752c0-16.223-4.938-24.13-14.104-24.13h-31.964c-6.2 0-10.933 2.434-14.213 7.273-3.164 4.668-4.795 11.771-4.795 21.334v41.288c0 10.317 1.619 18.018 4.77 23.12 3.284 5.317 8.031 7.974 14.238 7.974h44.141c.597 0 1.081-.484 1.081-1.081v-28.023c0-.597-.484-1.081-1.081-1.081h-39.067c-.889 0-1.472-.533-1.827-1.5-.326-.888-.475-2.074-.475-3.554v-3.23h29.361c4.697 0 8.213-1.921 10.561-5.738 2.218-3.605 3.374-9.232 3.374-16.9zm-2.162 0c0 7.146-.986 12.408-3.053 15.767-1.936 3.147-4.847 4.709-8.72 4.709h-30.442c-.597 0-1.081.484-1.081 1.081v4.311c0 4.954 1.733 7.216 4.464 7.216h37.986v25.861h-43.06c-5.406 0-9.538-2.317-12.399-6.949-2.994-4.847-4.447-12.18-4.447-21.983v-41.288c0-9.009 1.441-15.723 4.422-20.121 2.865-4.225 7.011-6.324 12.424-6.324h31.964c4.743 0 8.031 2.561 9.928 7.598 1.353 3.592 2.014 8.383 2.014 14.37zm-39.001-12.522c-2.565 0-4.21 2.097-4.21 6.719v5.638c0 .597.484 1.081 1.081 1.081h21.478c1.294 0 2.283-.607 2.93-1.875.493-.968.773-2.412.773-4.347v-1.16c0-1.885-.283-3.293-.78-4.235-.647-1.227-1.629-1.821-2.923-1.821zm0 2.162h18.349c.589 0 .947.398 1.183 1.068.248.706.358 1.649.358 2.826v1.16c0 1.493-.157 2.618-.537 3.364-.227.446-.55.696-1.004.696h-20.397v-4.557c0-1.346.134-2.425.433-3.233.315-.851.828-1.324 1.615-1.324z"/><path d="m434.428 108.229c.597 0 1.081-.484 1.081-1.081v-29.847c0-.597-.484-1.081-1.081-1.081h-37.968c-14.115 0-21.461 11.072-21.461 33.581v33.827c0 22.509 7.346 33.581 21.461 33.581h38.306c.597 0 1.081-.484 1.081-1.081v-31.505c0-.597-.484-1.081-1.081-1.081h-34.501c-1.055 0-1.765-.59-2.187-1.693-.369-.964-.537-2.252-.537-3.859v-24.375c0-1.559.167-2.808.534-3.744.421-1.074 1.136-1.642 2.19-1.642zm-1.081-2.162h-33.082c-3.04 0-4.886 2.382-4.886 7.548v24.375c0 5.28 1.857 7.714 4.886 7.714h33.42v29.343c-6.225 0-37.225 0-37.225 0-13.06 0-19.299-10.593-19.299-31.419v-33.827c0-20.826 6.239-31.419 19.299-31.419h36.887z"/><path d="m467.812 76.22v-29.429c0-.597-.484-1.081-1.081-1.081h-19.619c-.597 0-1.081.484-1.081 1.081v29.429h-7.375c-.597 0-1.081.484-1.081 1.081v29.847c0 .597.484 1.081 1.081 1.081h7.375v67.899c0 .597.484 1.081 1.081 1.081h19.619c.597 0 1.081-.484 1.081-1.081v-67.899h8.136c.597 0 1.081-.484 1.081-1.081v-29.847c0-.597-.484-1.081-1.081-1.081zm-2.162 1.081c0 .597.484 1.081 1.081 1.081h8.136v27.685h-8.136c-.597 0-1.081.484-1.081 1.081v67.899h-17.457c0-8.767 0-67.899 0-67.899 0-.597-.484-1.081-1.081-1.081h-7.375v-27.685h7.375c.597 0 1.081-.484 1.081-1.081v-29.429h17.457z"/><path d="m548.822 143.96v-34.159c0-22.509-7.346-33.581-21.461-33.581h-26.129c-14.115 0-21.461 11.072-21.461 33.581v33.827c0 22.509 7.346 33.581 21.461 33.581h26.129c14.119 0 21.461-10.963 21.461-33.249zm-2.162 0c0 20.606-6.244 31.087-19.299 31.087h-26.129c-13.059 0-19.299-10.593-19.299-31.419v-33.827c0-20.826 6.24-31.419 19.299-31.419h26.129c13.06 0 19.299 10.593 19.299 31.419zm-41.623-37.893c-3.04 0-4.886 2.382-4.886 7.548v24.375c0 5.28 1.857 7.714 4.886 7.714h18.519c3.117 0 4.971-2.333 4.971-7.382v-24.707c0-5.163-1.865-7.548-4.971-7.548zm0 2.162h18.519c1.087 0 1.83.566 2.264 1.65.375.933.545 2.18.545 3.736v24.707c0 3.363-.733 5.22-2.809 5.22h-18.519c-1.055 0-1.765-.59-2.187-1.693-.368-.964-.537-2.252-.537-3.859v-24.375c0-1.559.167-2.808.534-3.744.421-1.074 1.137-1.642 2.19-1.642z"/><path d="m597.478 108.229c.597 0 1.081-.484 1.081-1.081v-29.847c0-.597-.484-1.081-1.081-1.081h-21.901c-14.115 0-21.461 11.072-21.461 33.581v66.327c0 .597.484 1.081 1.081 1.081h20.38c.597 0 1.081-.484 1.081-1.081v-62.513c0-1.559.167-2.808.534-3.744.421-1.074 1.136-1.642 2.19-1.642zm-1.081-2.162h-17.015c-3.04 0-4.886 2.382-4.886 7.548v61.432h-18.218v-65.246c0-20.826 6.239-31.419 19.299-31.419h20.82z"/></g></svg>