<svg clip-rule="evenodd" fill-rule="evenodd" stroke-linejoin="round" stroke-miterlimit="2" viewBox="0 0 586 413" xmlns="http://www.w3.org/2000/svg"><g fill="#fff"><path d="m18.688 369.248v43.107h231.055v-48.1l-.056-11.761 43.577 59.096 41.673-56.414 2.08-2.817.163 27.039v32.692h230.792v-132.959l-1.035.953-3.629 2.93s-3.939 2.717-3.962 2.733l-4.131 2.756s-2.138 1.138-2.181 1.161c0 0-2.377 1.187-2.377 1.187l-2.393 1.267-2.683 1.044-5.25 1.658-3.036.723-2.866.453-28.442.98-2.241-1.957s-.933-.935-.933-.935l-1.186-1.053-.851-.852-.95-1.137s-1.213-2.025-1.213-2.025l-1.49-1.894-.892-1.606s-.426-.996-.426-.996l-.595-1.19-.666-2.001v-5.933l.445-2.469s.749-1.195.749-1.195l.421-1.543 1.474-2.105s1.412-1.409 1.412-1.409l1.44-1.446s1.447-.963 1.447-.963l.755-.907s1.782-.991 1.812-1.008c0 0 2.011-1.069 2.05-1.09l3.186-1.597h3.774s1.592-.226 1.634-.231c0 0 2.177-.259 2.177-.259s2.015-.357 2.015-.357 2.513-.626 2.584-.644c0 0 2.907-.604 2.907-.604s2.512-1.03 2.512-1.03 3.357-1.549 3.404-1.571c0 0 1.847-.791 1.847-.791s1.379-.636 1.379-.636 1.456-1.007 1.507-1.043c0 0 1.898-1.22 1.909-1.227 0 0 3.879-2.455 3.879-2.455s1.683-1.204 1.683-1.204 1.89-1.51 1.89-1.51 2.046-1.664 2.046-1.664.681-.596.681-.596l-.526-6.92h-16.834s-4.928-.133-4.986-.135c0 0-4.542-.267-4.599-.27 0 0-4.41-.399-4.448-.403 0 0-2.21-.247-2.21-.247h-2.034s-3.952-.564-4.039-.577l-3.753-.72-1.66-.556s-.987-.491-.987-.491l-1.341-.386-1.511-1.259-1.043-1.043s-.486-1.212-.486-1.212-.035-.07-.035-.07-.688-.884-.688-.884l-1.692-2.118-1.824-2.888s-.765-1.677-.79-1.733c0 0-.68-1.636-.68-1.636l-.654-1.566-.265.088-1.216.694-1.873.268h-2.569s-1.572-.524-1.572-.524l-1.614-.359s-1.385-.864-1.385-.864l-1.596-.725-2.031-1.526s-1.439-1.293-1.459-1.31l-1.887-1.746-1.797-2.095s-1.535-2.044-1.535-2.044l-2.193-2.332s-1.882-2.895-1.882-2.895l-.304-.456-6.954 3.477-7.239 4.653s-2.013 1.259-2.013 1.259-1.644 1.206-1.644 1.206l-1.833 1.832s-2.222 1.666-2.222 1.666-1.55 1.328-1.55 1.328l-1.622 1.872s-1.839 1.839-1.839 1.839-.594.694-.594.694l-.671.938s-1.739 1.988-1.739 1.988-1.147 1.947-1.162 1.973c0 0-1.362 2.228-1.362 2.228s-.849 1.807-.849 1.807-.582 1.974-.592 2.006c0 0-.781 2.48-.781 2.48s-.587 2.11-.587 2.11-.317 2.013-.317 2.013v3.618s.082.816.082.816.099.351.099.351 1.049 2.326 1.049 2.326.476.956.476.956l1.253 1.668s.292.68.292.68l.315.315s1.13 1.438 1.13 1.438l1.118.621s.926 1.083.926 1.083l.693.494s.502.431.502.431l.608.203s1.318.527 1.318.527.519.172.519.172h.668s1.139.383 1.139.383.883.178.883.178 1.09.09 1.09.09l1.696-.12h1.196l1.475-.424s1.704-.363 1.704-.363 1.72-.646 1.72-.646 1.683-.785 1.683-.785l26.82-15.983h3.57l2.167.542s1.339.956 1.339.956l1.186.677s1.005 1.002 1.009 1.006l1.06 1.064s.432 1.08.432 1.08.119.199.119.199l1.036 1.302s.248 2.225.248 2.225l.285 2.444v3.02s-.261 1.582-.261 1.582v1.831l-.538 2.329s-.707 1.98-.707 1.98l-1.477 4.699s-.965 2.343-.965 2.343l-1.385 3.637s-2.152 1.76-2.152 1.76l-3.519 3.113s-2.827 2.019-2.827 2.019l-2.96 2.422s-3.592 2.349-3.644 2.383c0 0-3.651 2.217-3.651 2.217l-3.574 2.473s-4.342 2.101-4.365 2.113c0 0-3.98 1.857-3.982 1.858l-2.242 1.043s-1.98.568-1.98.568l-2.347.881s-1.995.284-1.995.284l-1.97.564s-2.097.149-2.097.149l-1.976.283h-1.371s-1.218-.305-1.218-.305l-1.592-.145s-.911-.303-.911-.303l-.901.257s-2.121.424-2.166.433c0 0-3.081.536-3.168.551 0 0-3.249.405-3.249.405l-2.338.294h-6.391s-2.338-.295-2.427-.306l-2.435-.427s-2.127-.501-2.127-.501l-2.755-.306s-2.249-1.05-2.249-1.05l-2.377-.661-2.644-1.244s-2.227-1.254-2.234-1.258l-1.251-.712s-1.114-.973-1.114-.973l-2.217-1.386-2.353-2.356-2.062-1.912-1.506-2.085-.323 5.459s-2.762 3.625-2.762 3.625l-1.251 1.72s-1.665 1.516-1.665 1.516-1.206 1.204-1.206 1.204l-1.641 1.78-1.73 1.57-2.533 1.809-.621.179-.41.409-2.076 1.04s-.688.114-.688.114l-.742.425-1.846.524h-2.811l-1.466-.484s-.661-.267-.661-.267l-1.701-.566-1.985-1.588-4.851-13.669-.411-4.194-.702 8.663s-3.515 1.283-3.515 1.283l-3.584 1.652s-2.701.711-2.701.711l-2.829.943s-3.077.699-3.14.713c0 0-2.813.536-2.813.536l-1.656.334h-4.69s-1.676-.337-1.712-.345l-1.557-.345s-1.237-.531-1.26-.54l-2.122-.943s-1.238-1.734-1.238-1.734l-.771-1.077-.826-1.45-.67-2.232v-5.778s.396-1.98.396-1.98v-21.033l-.87 1.596s-2.213 4.425-2.24 4.48c0 0-2.535 4.672-2.552 4.703 0 0-2.787 4.908-2.792 4.917l-2.577 4.48s-2.847 4.198-2.847 4.198l-2.607 3.847s-1.438 1.722-1.481 1.773l-1.361 1.512s-1.459 1.315-1.468 1.323c0 0-1.118.994-1.118.994l-1.328 1.328-2.046.909-1.664.472h-.443l-1.001.334s-2.833.298-2.833.298l-2.037.293h-4.303l-2.794-.331-2.814-.879s-.88-.503-.88-.503l-1.108-.314s-1.44-1.032-1.44-1.032-.83-.592-.83-.592l-1.628-1.018s-1.196-1.794-1.196-1.794l-.745-1.043-.873-1.569-.655-1.637-.474-1.424-.539-2.156v-2.037l-.263-1.844v-1.657l-1.508-8.609-1.936 5.585s-2.112 5.542-2.112 5.542l-1.993 5.715s-2.384 5.827-2.384 5.827l-2 5.466s-2.428 5.397-2.434 5.411l-2.296 4.995s-.978 1.818-.994 1.849l-1.252 2.224-1.084 1.704s-1.163 1.453-1.163 1.453l-1.047 1.346-1.241 1.241s-1.114.557-1.114.557l-1.128.757h-1.357s-1.951.307-1.951.307l-2.561.809s-3.496.437-3.571.446l-3.392.283h-2.318s-1.055-.264-1.055-.264h-1.752l-.815-.349-1.352 1.933-2.321 3.412s-3.138 3.822-3.173 3.863l-3.66 4.201s-4.288 4.422-4.307 4.442c0 0-2.225 2.225-2.225 2.225s-2.206 2.336-2.208 2.338l-2.558 2.7s-2.667 2.105-2.667 2.106c0 0-2.461 2.074-2.507 2.112l-2.667 2.104s-2.891 1.927-2.924 1.949c0 0-2.934 1.867-2.974 1.893 0 0-2.678 1.608-2.69 1.616l-3.082 1.819s-1.628.74-1.681.764l-1.783.743s-3.029.965-3.029.965l-2.882.961-1.861.463s-1.698.283-1.698.283l-1.749.318h-8.241s-3.034-.659-3.034-.659h-.711s-2.818-.28-2.898-.288c0 0-1.666-.24-1.666-.24h-2.776s-1.434-.537-1.434-.537-.933-.206-1.006-.222c0 0-2.578-.681-2.645-.698l-3.394-1.033s-1.521-.761-1.521-.761-1.111-.493-1.186-.527c0 0-3.18-1.588-3.18-1.588l-1.903-.868s-1.617-1.453-1.617-1.453-1.431-1.075-1.431-1.075-1.428-1.038-1.449-1.053l-1.9-1.423s-1.283-1.445-1.283-1.445-1.43-1.561-1.489-1.625c0 0-1.318-1.581-1.318-1.581l-.737-.804-2.205 1.588v8.576s-3.979 2.235-4.041 2.27c0 0-5.707 2.92-5.707 2.92s-3.929 2.095-3.952 2.108c0 0-4.375 2.253-4.429 2.281 0 0-5.066 2.402-5.103 2.419 0 0-5.049 2.257-5.115 2.287l-5.456 2.184s-5.379 1.748-5.379 1.748-2.756.917-2.756.917-2.769.923-2.812.937l-5.221 1.596s-2.649.141-2.649.141l-2.261.502-2.64.309h-2.582s-2.102-.299-2.126-.302l-1.96-.303s-.947-.269-.947-.269l-1.531-.259-.518-.414-.131.032s-2.033.291-2.118.303l-3.029.289h-5.05s-2.104-.301-2.124-.304l-1.839-.283s-1.796-.385-1.796-.385l-2.35-.293s-2.128-.758-2.128-.758l-2.366-.698-2.535-1.109s-2.06-1.234-2.06-1.234l-2.504-1.254s-1.066-.76-1.066-.76l-.204-.127zm0-104.475.888-1.387c.042-.073 1.954-3.385 1.954-3.385s2.448-3.609 2.448-3.609c.016-.024 2.457-3.751 2.457-3.751s2.652-3.533 2.652-3.533 3.015-3.673 3.015-3.673c.032-.041 3.18-4.105 3.18-4.105s3.042-3.804 3.042-3.804 3.373-3.501 3.373-3.501c.058-.067 1.824-2.087 1.824-2.087s1.714-1.715 1.714-1.715l5.885-5.492s1.759-1.631 1.759-1.631 4.238-3.468 4.238-3.468 4.23-3.334 4.23-3.334 4.458-3.057 4.458-3.057 2.399-1.513 2.399-1.513 2.118-1.248 2.118-1.248 2.464-1.297 2.464-1.297c.035-.02 2.438-1.353 2.438-1.353.029-.017 2.281-1.32 2.281-1.32s2.628-1.003 2.628-1.003l2.572-1.218s2.696-1.156 2.696-1.156 2.342-.986 2.342-.986 2.74-.872 2.74-.872 2.413-.762 2.413-.762 2.376-.619 2.376-.619 1.114.069 1.114.069 1.83.539 1.83.539 2.868.872 2.868.872 1.033.414 1.033.414 1.603.801 1.603.801 1.584.926 1.584.926l1.749.873s1.156.771 1.156.771 1.539 1.41 1.539 1.41l1.656 1.183s1.163 1.374 1.163 1.374l1.41 1.647s1.061 1.698 1.061 1.698 1.03 2.173 1.03 2.173.38 1.012.38 1.012l.5 1.126s.81 2.432.81 2.432.587 2.58.587 2.58.206 1.439.206 1.439v8.216s-.212 1.691-.212 1.691-.516 2.193-.516 2.193l-.649 4.28s-.593 2.135-.593 2.135-.666 2.266-.666 2.266c-.014.051-.628 2.388-.628 2.388l-1.753 4.756s-1.172 2.736-1.172 2.736c-.022.054-1.161 2.966-1.161 2.966s-1.248 2.622-1.248 2.622-1.478 2.956-1.478 2.956l-.223.513-.195-.046-1.737-.313-1.626-.118s-1.515-.466-1.515-.466l-1.81-.34s-1.462-.731-1.462-.731c-.076-.033-1.288-.572-1.288-.572-.025-.011-.716-.305-.716-.305s-1.975-1.188-1.975-1.188l-.504-.216s-.481-.48-.481-.48c-.059-.054-1.662-1.524-1.662-1.524-.021-.018-1.005-.893-1.005-.893s-.21-.251-.21-.251-.603-1.208-.603-1.208l-.435-.435-.082-.74-.934-1.492s-1.603-3.948-1.603-3.948c-.01-.022-1.078-2.559-1.078-2.559-.015-.033-.817-1.837-.817-1.837l-1.946-1.956h-5.45v3.94l-3.62 4.425s-1.156.839-1.156.839l-3.749 3.08s-2.612 2.062-2.612 2.062l-2.867 2.733s-3.169 2.904-3.169 2.904c-.029.028-3.301 3.161-3.301 3.161l-3.26 3.67s-3.306 3.701-3.306 3.701c-.012.014-1.871 2.138-1.871 2.138-.012.014-1.635 1.908-1.635 1.908-.039.048-1.814 2.267-1.814 2.267l-1.338 2.41s-1.79 2.342-1.79 2.342l-1.094 2.325s-1.451 2.109-1.451 2.109l-1.196 2.542c-.012.028-1.151 2.559-1.151 2.559s-1.274 2.406-1.274 2.406l-.409 1.226s-.581 1.16-.581 1.16l-.876 3.332v1.807s-.264 4.088-.264 4.088v3.054l.29 3.191.561 3.504c.017.084.691 3.322.691 3.322.018.071.448 1.788.448 1.788l.632 1.898.601 1.322s.479 1.919.479 1.919l1.266 1.806s1.03 1.617 1.03 1.617l1.186 1.356 1.434 1.437 1.441 1.12 1.878 1.314 1.637.492s1.848.851 1.848.851l2.622.564h4.619l1.411-.316s.932-.116.932-.116c.051-.008 1.707-.263 1.707-.263s4.328-.523 4.328-.523c.035-.004 6.55-.918 6.55-.918s4.24-.409 4.24-.409l4.393-.992c.079-.021 4.357-1.19 4.357-1.19s4.589-1.049 4.589-1.049c.048-.012 4.91-1.262 4.91-1.262l2.414-.994s2.402-.885 2.402-.885 4.874-1.672 4.874-1.672l4.381-2.402c.016-.009 2.222-1.248 2.222-1.248l1.963-1.264c.024-.015 1.978-1.317 1.978-1.317s3.166-2.038 3.166-2.038l.939-5.258s.774-4.257.774-4.257 1.294-5.564 1.294-5.564 1.571-6.419 1.571-6.419.9-3.47.9-3.47 1.14-3.799 1.14-3.799 1.334-3.736 1.334-3.736l1.192-4.372s1.239-3.59 1.239-3.59 1.819-4.288 1.819-4.288c.022-.055 1.576-4.071 1.576-4.071s1.785-4.082 1.785-4.082 2.059-4.247 2.059-4.247 2.068-4.006 2.068-4.006 2.137-3.894 2.137-3.894 2.447-3.607 2.447-3.607c.036-.058 1.215-1.945 1.215-1.945s1.365-1.613 1.365-1.613l2.459-3.367s1.44-1.559 1.44-1.559 1.533-1.659 1.533-1.659 2.767-2.768 2.767-2.768 1.918-1.369 1.918-1.369l1.32-1.452s1.71-1.223 1.71-1.223l1.367-1.253s1.758-.878 1.758-.878l1.502-.878s2.051-.897 2.051-.897l1.715-.923s1.748-.765 1.748-.765 1.623-.464 1.623-.464c.014-.004 1.971-.58 1.971-.58s2.175-.271 2.175-.271l.665-.222s1.731-.495 1.731-.495 2.364-.62 2.364-.62 3.082-.618 3.082-.618 3.64-.502 3.64-.502 3.839-.372 3.839-.372h3.971s2.268.254 2.268.254l2.045.119s2.478.551 2.478.551h.863s.455.151.455.151 1.518.675 1.518.675l.88.111s1.607.903 1.607.903l1.72.803s1.581 1.241 1.581 1.241c.068.049.93.665.93.665s.948.737.948.737.135.135.135.135.595 1.073.595 1.073l1.488 1.717s.363 1.088.363 1.088l.888 1.143s.246.822.246.822l.51 1.274s.292 1.068.292 1.068.281 1.684.281 1.684l.573 1.721s.253 1.009.253 1.009v11.946l3.611 16.605 6.424-12.85 4.105-10.063s6.287-13.358 6.287-13.358 3.695-7.788 3.695-7.788c.005-.01 3.672-7.866 3.672-7.866s3.899-7.67 3.899-7.67 4.039-7.297 4.039-7.297 3.731-6.432 3.731-6.432 2.067-2.971 2.067-2.971c.04-.064 1.89-2.97 1.89-2.97.003-.006 1.426-2.258 1.426-2.258s1.974-2.221 1.974-2.221l1.465-1.831s1.433-1.314 1.433-1.314c.056-.056.217-.216.217-.216s.728-.313.728-.313l.385-.307 1.045.526 2.156-.62.069-.014.459.115h.4l1.162.483s.201.143.201.143.66.791.66.791l.872.623s.66.849.66.849l.923 1.055s.498.64.498.64.576 1.613.576 1.613l.958 1.642s1.662 4.155 1.662 4.155.632 2.403.632 2.403l.928 2.784s.728 2.668.728 2.668.655 3.406.655 3.406l.877 3.386s.379 4.161.379 4.161l.649 4.29s.259 4.658.259 4.658c.009.085.531 5.177.531 5.177s1.364 18.639 1.364 18.639l10.158-20.317s4.57-8.615 4.57-8.615 5.356-9.407 5.356-9.407 2.972-4.911 2.972-4.911 2.99-4.549 2.99-4.549 2.902-4.354 2.902-4.354c.008-.012 2.352-3.587 2.352-3.587s1.39-1.519 1.39-1.519l.955-1.313s1.239-1.124 1.239-1.124l.835-.837h.973l.396-.527h.615l1.385-.693.807-.646.707-.449.384-.077 1.461-.647s.715-.27.715-.27l1.728-.384h2.461s1.581.264 1.581.264h1.515s1.844.661 1.844.661h.966s1.389.461 1.389.461l1.076.12s.833.333.833.333 1.267.528 1.267.528 1.065.678 1.065.678.894.67.894.67.42.702.42.702l1.185.844s.591.688.591.688l.541.543s.164.229.164.229.318.956.318.956l1.213 2.285s.404 1.112.404 1.112.299.994.299.994.254 1.537.254 1.537l.39 1.431s.19 1.231.19 1.231v1.508l.392 9.807-1.307 27.735-3.9 48.17-2.656 1.224s-2.309.608-2.309.608l-2.711.903s-2.663.605-2.663.605-2.725.519-2.725.519c-.019.004-.978.198-.978.198h-3.227s-.925-.187-.925-.187-.818-.181-.818-.181-.586-.251-.586-.251c0-.001-.252-.112-.252-.112l-.632-.883s-.225-.396-.225-.396-.122-.405-.122-.405v-3.978s.396-1.98.396-1.98v-37.949l-6.972-1.572-3.855 8.11c-.028.065-1.542 3.597-1.542 3.597s-2.323 4.258-2.323 4.258c-.029.059-2.244 4.488-2.244 4.488s-2.459 4.532-2.459 4.532-2.747 4.839-2.747 4.839-2.432 4.227-2.432 4.227-2.695 3.975-2.695 3.975c-.001 0-2.401 3.543-2.401 3.543s-1.16 1.387-1.16 1.387-1.013 1.127-1.013 1.127-1.166 1.05-1.166 1.05-1.26 1.12-1.26 1.12l-.518.518s-.327.146-.327.146-.183.052-.183.052h-.612l-1.373.457s-2.178.229-2.178.229c-.069.01-1.656.239-1.656.239h-3.346s-1.69-.201-1.69-.201-1.406-.439-1.406-.439-.966-.552-.966-.552l-.739-.209-1.423-1.018-.482-.301s-.386-.58-.386-.58c-.035-.048-.574-.803-.574-.803s-.446-.801-.446-.801-.4-1.001-.4-1.001-.317-.953-.317-.953-.253-1.01-.253-1.01v-1.656l-.264-1.844v-1.772l-4.143-23.657-7.117-.421-.778 2.593s-2.218 6.784-2.218 6.784-3.401 9.808-3.401 9.808-2.108 5.536-2.108 5.536c-.018.049-1.964 5.631-1.964 5.631s-2.363 5.775-2.363 5.775c-.024.065-1.957 5.348-1.957 5.348s-2.313 5.143-2.313 5.143-2.188 4.76-2.188 4.76-.852 1.584-.852 1.584-1.122 1.992-1.122 1.992-.763 1.201-.763 1.201-.946 1.181-.946 1.181c-.017.021-.8 1.028-.8 1.028s-.078.078-.078.078l-.102.051-2.788.438-2.451.774s-2.759.345-2.759.345-2.938.245-2.938.245h-1.111s-1.055-.264-1.055-.264h-1.15s-.133-.057-.133-.057l-.223-.111-2.731-4.078-4.72 6.287c-.035.05-1.895 2.709-1.895 2.709-.013.02-2.163 3.179-2.163 3.179s-2.894 3.525-2.894 3.525-3.461 3.973-3.461 3.973-4.133 4.261-4.133 4.261-2.259 2.259-2.259 2.259c-.036.038-2.276 2.41-2.276 2.41s-2.19 2.312-2.19 2.312-2.344 1.851-2.344 1.851c-.045.037-2.505 2.111-2.505 2.111s-2.345 1.849-2.345 1.849-2.615 1.743-2.615 1.743-2.828 1.801-2.828 1.801c-.001 0-2.586 1.552-2.586 1.552s-2.72 1.606-2.72 1.606-1.22.555-1.22.555-1.383.576-1.383.576-2.774.884-2.774.884c-.023.008-2.657.886-2.657.886s-1.304.325-1.304.325-1.467.244-1.467.244c-.026.005-1.152.209-1.152.209h-6.793s-3.033-.659-3.033-.659h-1.136s-2.377-.236-2.377-.236-2.026-.291-2.026-.291h-1.972s-.676-.254-.676-.254l-1.368-.302s-2.367-.624-2.367-.624-2.672-.814-2.672-.814-1.117-.558-1.117-.558c-.076-.034-1.188-.528-1.188-.528s-3.149-1.573-3.149-1.573c-.059-.027-.999-.455-.999-.455s-1.02-.917-1.02-.917l-1.734-1.303c-.023-.016-1.453-1.057-1.453-1.057s-1.265-.947-1.265-.947-.828-.932-.828-.932c-.02-.022-1.412-1.541-1.412-1.541s-1.319-1.583-1.319-1.583c-.06-.065-1.358-1.48-1.358-1.48s-3.326-4.66-3.326-4.66l-11.102 7.997v8.04s-.178.1-.178.1-5.636 2.884-5.636 2.884c-.027.014-3.961 2.112-3.961 2.112s-4.275 2.202-4.275 2.202-4.919 2.333-4.919 2.333-4.908 2.194-4.908 2.194-5.095 2.039-5.095 2.039-5.171 1.681-5.171 1.681c-.012.004-2.783.926-2.783.926-.001 0-2.727.909-2.727.909s-4.275 1.306-4.275 1.306-2.362.126-2.362.126l-2.487.553s-1.844.215-1.844.215h-1.638s-1.567-.222-1.567-.222-1.469-.228-1.469-.228-.899-.255-.899-.255l-.052-.009-.11-.088-2.172-1.303-2.871.718s-1.574.225-1.574.225-2.511.239-2.511.239h-4.181s-1.569-.224-1.569-.224-1.59-.245-1.59-.245-1.897-.406-1.897-.406l-1.87-.234s-1.565-.557-1.565-.557l-2.118-.625s-1.685-.737-1.685-.737-1.897-1.136-1.897-1.136l-2.243-1.124s-.78-.556-.78-.556l-.901-.564s-1.97-1.722-1.97-1.722l-1.186-.923-.222-.194v-95.106zm0-13.677 1.747-2.666s2.839-3.784 2.888-3.848c0 0 3.051-3.716 3.051-3.716s3.133-4.045 3.15-4.068l3.289-4.112s3.484-3.617 3.484-3.617l1.869-2.138s1.933-1.933 1.978-1.978l5.985-5.586 1.934-1.793s4.44-3.633 4.466-3.654l4.474-3.527s4.716-3.234 4.774-3.274c0 0 2.565-1.618 2.612-1.648 0 0 2.29-1.349 2.366-1.393 0 0 2.547-1.341 2.547-1.341s2.31-1.281 2.309-1.281l2.732-1.581s2.911-1.111 2.911-1.111 2.377-1.126 2.439-1.156c0 0 2.832-1.214 2.843-1.218l2.669-1.124s3.06-.974 3.064-.975l2.598-.82 3.691-.963 3.106.194s2.636.776 2.653.78l3.199.974 1.605.642 2.089 1.045s1.582.924 1.582.924l1.943.97 2.009 1.339s1.626 1.491 1.626 1.491l2.037 1.455s1.738 2.054 1.738 2.054l1.755 2.05 1.577 2.522 1.344 2.835s.411 1.098.411 1.098l.555 1.251 1.036 3.107.732 3.223.322 2.25v9.193l-.316 2.532s-.539 2.287-.539 2.287l-.67 4.424s-.718 2.587-.726 2.614c0 0-.652 2.218-.652 2.218l-.691 2.626-1.94 5.264s-1.201 2.803-1.201 2.803l-1.213 3.1s-1.375 2.889-1.39 2.921c0 0-1.423 2.846-1.423 2.846l-2.238 5.144h-3.75s-2.562-.603-2.562-.603-1.164-.21-1.164-.21l-2.067-.15s-1.914-.589-1.914-.589l-2.411-.451s-2.23-1.116-2.23-1.116-1.086-.482-1.086-.482l-1.131-.483s-1.981-1.19-1.981-1.19l-1.342-.575s-1.365-1.366-1.365-1.366-1.503-1.378-1.503-1.378l-1.37-1.217-1.108-1.327s-.452-.906-.452-.906l-1.412-1.408s-.181-1.638-.181-1.638l-.385-.614-.936-2.305-1.959 2.394s-1.745 1.267-1.745 1.267-3.608 2.964-3.636 2.987c0 0-2.399 1.894-2.399 1.894s-2.646 2.522-2.672 2.546c0 0-3.162 2.899-3.162 2.899s-3.029 2.901-3.029 2.901-3.068 3.453-3.071 3.456c0 0-3.288 3.681-3.288 3.681s-1.821 2.082-1.821 2.082-1.53 1.785-1.53 1.785-1.352 1.689-1.352 1.689l-1.299 2.338s-1.639 2.145-1.639 2.145l-1.016 2.159s-1.45 2.108-1.45 2.108-.915 1.945-.915 1.945l-1.222 2.717s-1.1 2.077-1.1 2.077l-.383 1.148s-.474.947-.474.947-.442 1.679-.442 1.679v1.095s-.264 4.088-.264 4.088v2.485s.238 2.612.238 2.612.494 3.09.494 3.09.627 3.011.627 3.011.344 1.374.344 1.374.423 1.267.423 1.267l.718 1.58s.312 1.25.312 1.25.533.761.58.828c0 0 .817 1.284.817 1.284s.66.754.66.754.94.941.94.941.933.726.933.726.76.532.76.532l1 .3s1.581.728 1.581.728 1.071.23 1.071.23h3.029l.964-.215s1.177-.147 1.177-.147 1.664-.256 1.722-.265c0 0 4.377-.529 4.377-.529s6.559-.92 6.638-.931c0 0 3.937-.379 3.937-.379s3.783-.855 3.783-.855 4.273-1.167 4.347-1.187c0 0 4.643-1.061 4.643-1.061s4.321-1.111 4.321-1.111 2.006-.827 2.07-.853c0 0 2.57-.947 2.609-.961 0 0 4.358-1.494 4.358-1.494s3.796-2.082 3.796-2.082 1.998-1.122 1.998-1.122 1.73-1.114 1.73-1.114 1.955-1.301 1.978-1.317c0 0 .527-.339.527-.339s.379-2.121.38-2.127c0 0 .792-4.356.808-4.443 0 0 1.339-5.758 1.344-5.779 0 0 1.588-6.484 1.594-6.508 0 0 .929-3.585.946-3.652l1.234-4.114s1.304-3.649 1.304-3.649l1.181-4.332 1.4-4.059s1.873-4.413 1.873-4.413 1.561-4.035 1.59-4.109c0 0 1.878-4.293 1.906-4.358 0 0 2.142-4.417 2.162-4.458 0 0 2.131-4.129 2.152-4.17l2.348-4.279s2.564-3.779 2.564-3.779l1.422-2.275s1.536-1.816 1.536-1.816l2.553-3.494s1.725-1.869 1.725-1.87c0 0 1.584-1.713 1.633-1.766l3.298-3.299s1.775-1.268 1.775-1.268l1.318-1.45s1.983-1.418 1.983-1.418l1.798-1.648s2.462-1.229 2.462-1.229l1.663-.972s2.169-.949 2.169-.949l1.714-.923 2.473-1.082s2.069-.591 2.069-.591l2.513-.739s2.045-.256 2.045-.256.051-.017.127-.042c0 0 1.923-.549 1.961-.56l2.648-.695 3.512-.705s3.935-.542 4.009-.552l4.338-.42h4.733s2.48.277 2.48.277l2.438.142s2.27.504 2.27.504h1.247l1.919.639s.856.381.856.381l1.23.156s2.613 1.468 2.613 1.468l2.236 1.043s2.113 1.66 2.113 1.66.855.61.915.654l1.426 1.109 1.185 1.184s.723 1.305.723 1.305l1.941 2.239s.428 1.282.428 1.282l.959 1.235s.545 1.816.545 1.816l.544 1.36.5 1.832s.247 1.482.247 1.482l.481 1.443.539 2.157v3.846l.103-.252s6.371-13.537 6.374-13.542c0 0 3.69-7.778 3.69-7.778s3.688-7.9 3.714-7.956c0 0 3.984-7.838 4.013-7.895 0 0 4.12-7.442 4.138-7.474l3.918-6.756s2.153-3.096 2.153-3.096 1.803-2.832 1.803-2.832l1.739-2.754s2.246-2.527 2.246-2.527l1.7-2.125s1.733-1.588 1.733-1.588l1.102-1.102s1.117-.479 1.117-.479l.691-.551 1.528-.615 1.485-.248h1.062l1.022.205 1.022-.205h1.473s.527.132.527.132h.919s1.318.531 1.336.538l1.986.825 1.646 1.176s.659.791.659.791l.974.696s1.186 1.525 1.186 1.525l.923 1.055 1.349 1.734s.743 2.08.743 2.08l.888 1.523 2.031 5.077s.687 2.611.687 2.611l.918 2.752.855 3.135s.664 3.452.664 3.452l.969 3.739s.412 4.539.412 4.539l.669 4.418.138 2.472 3.027-5.707s5.434-9.545 5.458-9.587c0 0 3.059-5.053 3.094-5.112 0 0 3.07-4.672 3.077-4.682 0 0 2.9-4.351 2.9-4.351l2.66-4.058s1.511-1.65 1.511-1.65l1.156-1.588s1.662-1.51 1.662-1.51l.947-.949 2.184-1.911h.073l.395-.527h1.765l.986-.329 1.648-1.048s.934-.187.934-.187l.913-.405 1.395-.525 3.02-.671h3.873s1.581.263 1.581.263h2.181s1.845.662 1.845.662h.876s1.78.59 1.78.59l1.298.145s1.781.712 1.805.721l1.898.791 1.836 1.169 2.271 1.703s.372.621.372.621l.661.471s.995 1.158.995 1.158l.768.77.225-2.751s1.139-1.595 1.139-1.595l1.683-2.944s3.279-3.672 3.279-3.672l.71-1.282s1.291-1.289 1.333-1.33c0 0 2.15-2.015 2.15-2.015s2.237-2.106 2.28-2.147l2.371-2.092 1.348-1.05 1.565-1.094s1.562-.852 1.562-.852l1.601-.961s1.78-.591 1.78-.591 1.272-.58 1.354-.617l1.629-.649 1.961-.493s1.703-.284 1.703-.284l1.749-.318h2.218l3.377.564 5.543 7.76-.826 43.622s-4.076 11.309-4.076 11.309v7.611l3.24-5.986 1.734-3.467s2.163-3.781 2.186-3.823c0 0 2.267-3.734 2.292-3.774l2.506-3.899s2.825-3.498 2.825-3.498 2.573-3.604 2.598-3.64l2.932-3.906s3.372-3.506 3.372-3.506l2.972-3.513s3.567-3.293 3.567-3.293l3.496-3.361 1.755-1.462 2.291-1.719s1.957-1.258 1.976-1.27c0 0 2.095-1.311 2.095-1.311s3.792-2.484 3.806-2.493l1.99-1.28 2.501-1.322 4.38-1.918 2.429-.999s2.261-.707 2.291-.717l2.47-.725s2.206-.39 2.206-.39l2.716-.857s2.743-.153 2.743-.153l4.179-.44.881-.489s1.645-.494 1.645-.494l1.768-.589 2.501-.469 2.843-.299h1.914s1.364.304 1.364.304.921.092.921.092h1.974s1.974.789 2.053.821c0 0 1.527.694 1.589.722l1.704.852 1.577 1.227s1.416 1.275 1.423 1.281l1.791 1.628s1.289 1.932 1.288 1.932l1.343 1.942s1.002 2.143 1.002 2.143l.852 1.538s.312 1.396.312 1.396l.852 2.069 1.031 3.093s.701 3.374.701 3.374l.736 3.534v2.227l.016.107 1.329-1.33s3.476-3.075 3.476-3.075 3.919-3.659 3.965-3.702l4.264-3.712s2.363-1.707 2.363-1.707l2.227-1.967 2.742-2.02s2.506-1.583 2.506-1.583 4.908-3.615 4.977-3.665l5.297-3.533 5.372-3.167s2.916-1.389 2.981-1.42c0 0 2.834-1.215 2.903-1.245 0 0 2.842-1.082 2.861-1.089l2.652-.977s2.877-.822 2.877-.822 1.074-.322 1.074-.322l2.036-.906 2.736.546s1.451.528 1.452.528l1.893.379 2.394.747 2.55.957.348.217v-49.799h-22.686v-109.99h-37.32v137.42h-10.684v-27.43h-27.298v-30.334h23.343v-26.113h-23.343v-25.978h24.794v-27.565h-62.116v137.42h-25.189l9.627-68.71 9.364-68.71h-39.301l-1.451 12.794-1.055 12.923-.659 7.781-.923 7.912-.791 8.573-.924 8.704-.659 8.836-.923 9.231-.661 9.364-.658 9.891-.659-10.155-.924-10.55-1.188-11.21-1.185-11.606-1.055-12.396-1.583-12.793-1.451-13.32-1.582-13.979h-39.433l21.629 137.42h-27.563v-46.95l-.132-2.769v-2.242l-.264-2.111-.264-1.318-.263-1.187-.66-1.847-.923-1.976-1.319-2.112-1.846-2.242-2.374-2.11-3.167-1.846-1.978-.658-2.11-.925-2.504-.659-2.77-.792 3.034-.395 2.637-.396 2.374-.791 2.24-.66 3.695-1.846 1.319-1.053 1.186-1.451.924-1.584.923-1.847.659-2.241.66-2.506.527-2.77.264-3.297.132-3.429v-7.912l-.396-4.219-.527-3.562-.396-3.297-.923-3.166-.923-2.769-1.187-2.506-1.319-1.978-3.165-3.693-3.693-3.033-4.088-1.978-4.352-1.451-2.638-.396-3.167-.263-3.691-.526-3.956-.134-2.825-.157-5.91-.106h-1.288l-5.803-.264h-32.708v137.42h-6.46l-5.144-34.421-5.275-34.289-5.539-34.289-5.275-34.421h-53.808l-9.363 68.71-9.627 68.71h-6.463v-137.42h-48.532l-4.088 32.047-4.352 32.047-2.77-17.408-2.769-17.407-1.055-8.178-.923-7.517-1.187-7.122-1.187-6.462h-48.005v250.738zm135.322 25.281-1.256 3.491-.995 3.411-.674 3.233s-.407 1.628-.407 1.628l-.314 1.729-.294 3.23v6.331l.264 1.321v1.409l.52 2.949.954 2.315s.275 1.239.275 1.239l.667 1.497s.541 1.266.541 1.266l.856 1.199s.604.906.604.906l.698.835s1.173 1.642 1.173 1.642l1.218.525s.306.305.306.305l.892.713 1.522 1.09 1.771.503.478.069s1.164.663 1.164.663h1.38s.924.263.924.263h2.213l1.383-.395s2.095-.556 2.095-.556l2.038-.73c.046-.018 2.791-1.086 2.791-1.086l2.396-1.595 2.287-1.717 2.044-1.75 1.099-1.101 1.171-1.316c.046-.055 2.009-2.441 2.009-2.441l3.579-5.369c.045-.074 1.717-2.859 1.717-2.859l1.566-3.277 1.389-3.334c.031-.085 1.256-3.489 1.256-3.489l.986-3.378.662-2.911s.641-2.245.641-2.245v-1.88s.124-2.743.124-2.743.286-3.29.286-3.29l-.278-2.929v-1.311l-.167-1.829-.601-2.857-.665-2.261s-.399-1.795-.399-1.795l-.725-1.015s-.264-.923-.264-.923l-.798-1.117s-.574-1.338-.574-1.338l-1.186-1.019s-.621-.931-.621-.931l-1.588-1.135-.255-.152s-.825-.988-.825-.988l-2.863-1.227-1.639-.472h-.93s-.532-.151-.532-.151l-2.201-.492-1.327.381h-.648l-2.731.362-2.625 1.148c-.04.019-2.221 1.037-2.221 1.037l-2.432 1.52-2.33 1.747-1.951 1.672c-.014.013-1.333 1.167-1.333 1.167l-1.073 1.38s-1.878 2.146-1.878 2.146l-2.064 2.801-1.604 2.81s-2.001 2.856-2.001 2.856l-1.332 3.406s-1.338 3.209-1.338 3.209zm11.903 36.172-.682-.389-1.368-.198s-.075-.021-.075-.021-.325-.233-.325-.233-.427-.341-.427-.341-1.013-1.01-1.013-1.01l-.627-.27-.146-.205-.622-.744s-.45-.676-.45-.676c-.035-.048-.463-.648-.463-.648s-.25-.584-.25-.584c-.011-.025-.389-.873-.389-.873s-.252-1.139-.252-1.139l-.893-2.165s-.27-1.535-.27-1.535v-1.492l-.264-1.32v-5.275s.234-2.573.234-2.573.213-1.172.213-1.172.384-1.537.384-1.537c.015-.071.645-3.094.645-3.094l.851-2.919 1.118-3.107s1.3-3.117 1.3-3.117c.015-.038 1.042-2.665 1.042-2.665s1.692-2.415 1.692-2.415l1.56-2.733s1.629-2.21 1.629-2.21 1.815-2.075 1.815-2.075l.773-.993s.777-.68.777-.68 1.741-1.493 1.741-1.493 1.891-1.417 1.891-1.417 1.788-1.118 1.788-1.118 1.735-.81 1.735-.81 1.595-.698 1.595-.698 1.226-.162 1.226-.162h1.198l.52-.15s.173.039.173.039 1.314.373 1.314.373h.917s.207.059.207.059l.829.356s.494.591.494.591l1.064.638s.258.185.258.185.434.651.434.651l.661.568s.217.504.217.504l.521.729s.264.923.264.923l.593.832s.129.579.129.579l.654 2.223s.453 2.155.453 2.155.098 1.072.098 1.072v1.326l.248 2.611s-.241 2.776-.241 2.776c-.003.076-.139 3.06-.139 3.06v1.021s-.414 1.452-.414 1.452l-.657 2.891s-.861 2.948-.861 2.948-1.118 3.106-1.118 3.106-1.248 2.996-1.248 2.996-1.335 2.793-1.335 2.793-1.449 2.413-1.449 2.413l-3.279 4.918s-1.684 2.046-1.684 2.046-.938 1.054-.938 1.054-.748.75-.748.75-1.648 1.411-1.648 1.411-1.933 1.451-1.933 1.451-1.561 1.039-1.561 1.039-1.956.761-1.956.761-1.655.593-1.655.593-1.862.495-1.862.495c-.033.009-.463.132-.463.132h-.16s-.923-.264-.923-.264zm219.828-68.539v-25.107s4.1-11.375 4.1-11.375.757-39.99.757-39.99l-2.344-3.282h-.761s-1.126.205-1.152.21c0 0-1.463.243-1.463.243s-1.201.302-1.201.302-1.011.403-1.011.403l-1.548.705s-1.385.461-1.385.461-.972.583-1.037.622c0 0-1.339.73-1.339.73s-1.076.752-1.076.752-1.022.796-1.022.796-2.113 1.865-2.113 1.865-2.197 2.069-2.201 2.073c0 0-2.073 1.942-2.073 1.942s-.517.516-.517.516l-.606 1.095s-3.314 3.71-3.314 3.71l-1.483 2.596s-.179.251-.179.251-1.481 18.113-1.481 18.113l.652 10.269v5.366s.92 61.144.92 61.144l.601 6.131 3.728 10.504.136.045s.654.264.654.264.12.04.12.04h.614l1.105-.633s.898-.15.898-.15.031-.015.031-.015l.909-.906s1.224-.353 1.224-.353 1.161-.828 1.161-.828 1.171-1.064 1.171-1.064 1.472-1.597 1.523-1.652c0 0 1.373-1.37 1.433-1.43 0 0 1.236-1.126 1.236-1.126s.835-1.148.859-1.181c0 0 1.458-1.914 1.458-1.914l.923-15.595-.226-.493s-.295-2.079-.295-2.079l-.336-1.075c-.336-.437-.582-.997-.646-1.712l-.151-.611v-1.363s.13-.923.13-.923v-1.796s.715-1.425.715-1.425.165-.745.171-.773c0 0 .666-2.795.676-2.837 0 0 .671-2.547.692-2.628l.727-2.325s.804-2.011.804-2.011l.832-2.496zm182.231 24.82v-52.48h-17.005l-2.473-.53s-1.688-.614-1.705-.62l-1.324-.497s-1.424-.788-1.449-.801l-1.373-.787s-.655-.658-.655-.658l-1.246-.712s-.951-1.426-.951-1.426l-.738-.985-.082-.283-.319-.214-.737-2.197-.378-1.902v-1.721s.483-1.217.483-1.217.282-.84.282-.84l.387-2.144s1.074-1.286 1.074-1.286l.466-.814s.905-1.247.905-1.247l.578-1.436s18.005-10.111 18.005-10.111 2.246-1.797 2.246-1.797l1.936-1.934s1.615-1.384 1.615-1.384l.576-.808s.953-.952.953-.952.865-1.156.865-1.156l.064-.117v-7.229l-.136-.136-.922-.527-.36-.361-.739-.082s-1.451-.907-1.451-.907-1.67-.626-1.67-.626-1.83-.571-1.83-.571l-2.06-.413-1.374-.499-.315.14s-1.545.463-1.568.469c0 0-2.658.76-2.658.76s-2.359.87-2.359.87-2.682 1.021-2.682 1.021-2.632 1.128-2.632 1.128-2.559 1.219-2.559 1.219-4.918 2.899-4.918 2.899-4.986 3.325-4.986 3.325l-5.05 3.72s-2.505 1.582-2.505 1.582-2.27 1.673-2.27 1.673l-2.253 1.989s-2.384 1.722-2.384 1.722-3.917 3.41-3.917 3.41-3.908 3.649-3.944 3.683c0 0-3.382 2.991-3.382 2.991s-2.822 2.823-2.862 2.863c0 0-4.243 3.984-4.243 3.984l-.336.397-1.617 4.176-.257.902s-.441 1.179-.441 1.179l-.433 1.193v.42s.11 1.325.11 1.325.201 1.413.201 1.413.38 1.14.38 1.14.609 1.46.61 1.462c0 0 .635 1.526.635 1.526s.532 1.168.532 1.168 1.341 2.124 1.341 2.124 1.454 1.819 1.469 1.838l1.159 1.49.468.932.391.112s1.127.561 1.127.561.714.239.714.239 3.1.595 3.1.595 3.351.478 3.351.478h1.922s2.538.284 2.538.284 4.256.385 4.256.385 4.369.257 4.369.257 4.77.129 4.77.129h23.525l1.32 17.347s-3.49 3.053-3.539 3.096c0 0-2.162 1.758-2.174 1.768l-2.067 1.652-2.01 1.438s-4.033 2.552-4.033 2.552-1.784 1.147-1.784 1.147l-1.925 1.331s-2 .924-2.047.946c0 0-1.849.792-1.849.792s-3.382 1.561-3.454 1.594l-3.287 1.347s-3.427.712-3.427.712l-2.688.671-2.472.437s-2.303.274-2.303.274l-2.063.292h-2.556l-1.558.78s-1.91 1.016-1.91 1.016-.559.311-.559.311l-.563.676s-1.722 1.147-1.722 1.147-.927.929-.93.932c0 0-.962.961-.962.961s-.373.533-.373.533l-.37 1.358s-.574.915-.574.915-.078.432-.078.432v4.09s.126.377.126.377l.459.917s.365.853.365.853.424.765.424.765l1.415 1.798s1.157 1.932 1.157 1.932.372.445.372.445.468.468.468.468l1.188 1.056.799.8 25.085-.865s2.145-.339 2.145-.339 2.504-.596 2.504-.596l4.769-1.507s2.065-.802 2.065-.802 2.055-1.089 2.094-1.11c0 0 2.371-1.184 2.371-1.184s1.775-.945 1.775-.945 3.782-2.523 3.782-2.523 3.687-2.543 3.687-2.543 3.23-2.608 3.23-2.608 3.121-2.871 3.121-2.871 2.554-2.682 2.585-2.715zm-74.752-68.356.753-1.945s-.074-1.178-.074-1.178-.246-1.834-.246-1.834l-.298-2.088v-1.993s-.583-2.796-.583-2.797c0 0-.614-2.956-.614-2.956s-.816-2.446-.816-2.446l-.994-2.415s-.219-.978-.219-.978l-.463-.836s-.848-1.813-.848-1.813-1.01-1.462-1.028-1.487c0 0-.821-1.233-.821-1.233s-1.111-1.01-1.111-1.01-1.214-1.092-1.214-1.092-.797-.62-.797-.62-.933-.467-.933-.467-1.312-.596-1.312-.596-.586-.235-.586-.235h-.927l-1.721-.171s-1.005-.224-1.005-.224h-.724s-2.168.228-2.168.228-1.719.322-1.719.322-1.345.449-1.398.466c0 0-.992.298-.992.298l-1.493.829-5.845.616s-2.003.111-2.003.111l-2.296.725s-2.278.402-2.278.402-2.018.593-2.018.593-1.926.602-1.926.602-2.058.847-2.058.847l-4.057 1.776s-1.986 1.051-1.986 1.051-1.703 1.094-1.703 1.094-3.811 2.497-3.843 2.518c0 0-2.122 1.327-2.122 1.327s-1.716 1.103-1.716 1.103-1.929 1.447-1.929 1.447-1.411 1.176-1.411 1.176-3.335 3.206-3.362 3.232c0 0-3.29 3.038-3.29 3.038l-2.831 3.345s-3.222 3.352-3.222 3.352-2.611 3.478-2.611 3.478l-2.674 3.746s-2.713 3.36-2.713 3.36-2.242 3.486-2.242 3.486-2.192 3.612-2.192 3.612-2.038 3.562-2.038 3.562-1.668 3.337-1.695 3.391c0 0-3.396 6.273-3.396 6.273s-2.718 5.953-2.729 5.977c0 0-2.355 4.972-2.355 4.972l-1.26 2.94v2.279s-2.527 11.58-2.527 11.58l-.471 7.951.711 1.552s.664 1.588.664 1.588.636 1.399.66 1.452c0 0 .529 1.27.529 1.27l.785 1.122s1.436 2.483 1.436 2.483 1.396 1.932 1.396 1.932 1.58 1.466 1.631 1.512l1.863 1.865 2.003 1.252s1 .873 1 .873.596.34.596.34 1.986 1.118 1.986 1.118 1.84.866 1.84.866l2.366.658s1.708.797 1.708.797l1.996.222s2.353.554 2.353.554 2.053.36 2.053.36 1.794.226 1.794.226h5.474s1.884-.237 1.886-.237c0 0 3.078-.384 3.078-.384s2.902-.504 2.902-.504 1.786-.358 1.786-.358l2.796-.798s2.254.752 2.254.752l1.309.119.873.218 1.684-.24s1.595-.114 1.595-.114l1.72-.492s1.701-.243 1.701-.243l1.873-.702s1.709-.491 1.709-.491 1.718-.799 1.718-.799 3.931-1.835 3.931-1.835 3.808-1.843 3.808-1.843l3.288-2.275s3.733-2.267 3.733-2.267 3.214-2.101 3.214-2.101l2.843-2.326s2.712-1.937 2.712-1.937 3.286-2.907 3.339-2.954c0 0 .75-.613.75-.613s.707-1.857.724-1.902c0 0 .882-2.142.882-2.142s1.403-4.465 1.424-4.532c0 0 .612-1.712.612-1.712s.254-1.101.254-1.101v-1.598s.262-1.582.262-1.582v-1.992l-.255-2.186-.019-.024-.671-1.116-.096-.239-.305-.304-.66-.377-.488-.348h-.613l-25.405 15.14-2.277 1.061-2.496.937s-1.989.424-1.989.424l-2.221.639h-1.97l-1.997.141-2.074-.171-1.755-.353s-.44-.148-.44-.148h-.654l-1.851-.615s-1.321-.529-1.321-.529l-1.765-.588s-1.344-1.152-1.344-1.152l-1.157-.825s-.653-.763-.653-.763l-1.256-.698s-1.772-2.255-1.772-2.255l-1.003-1.003s-.5-1.167-.5-1.167l-1.125-1.497s-.806-1.617-.838-1.682l-1.329-2.948-.424-1.496-.183-1.825v-4.555l.472-2.998s.718-2.579.734-2.638c0 0 .798-2.532.798-2.532l.731-2.478 1.257-2.676s1.54-2.52 1.54-2.52l1.479-2.512s1.953-2.232 1.953-2.232l.649-.907.988-1.153s1.854-1.854 1.854-1.854l1.806-2.085 2.144-1.837s1.998-1.498 1.998-1.498l1.859-1.858 2.313-1.698s2.207-1.379 2.207-1.379l7.531-4.842 13.092-6.546s3.904 5.856 3.916 5.874c0 0 1.548 2.38 1.548 2.38l2.023 2.152s1.634 2.177 1.634 2.177 1.368 1.593 1.368 1.593 1.538 1.423 1.538 1.423 1.179 1.06 1.179 1.06 1.134.852 1.134.852l1.306.593s.729.455.729.455l.759.169s.802.267.802.267h.839l.625-.357.315-.105.365-.365.14-.084 1.124-1.927.27-.309.077-.381.347-1.225 2.525-6.536.584-.689zm74.752 8.549v-22.544l-1.116 1.115-3.03 2.423-16.344 9.179-1.09 1.502-.59 1.032s-.248.296-.248.296l-.136.758-.484 1.443.338.226.45 1.562.157.227.6.343s.66.662.66.662.473.271.473.271.929.514.929.514.786.295.786.295 1.196.435 1.196.435 1.22.261 1.22.261zm-502.994-71.245-13.847-90.734v90.734zm36.136 0v-46.29l-.264-46.422-6.331 46.422-6.462 46.29zm77.414 0 1.055-12.395 1.187-12.399h13.32l1.978 24.794zm104.596-61.523-1.861-.328-3.429-.265v62.116h11.21v-48.269l-.264-2.637v-1.977l-.132-1.584-.264-1.583-.527-1.45-.132-.924-.527-.923-1.056-1.053-2.11-.925-.313-.079zm-96.066-42.942.306-2.225.791 8.438.659 8.047.66 7.779.923 7.255.658 7.12.661 6.726.789 6.33.661 5.935h-12.792l.396-4.748.395-5.803.792-6.066.923-6.858.923-7.649 1.055-8.177 1.187-8.704.462-3.379zm96.755 20.519 1.406-.326 1.319-.66.66-.527.527-.923.396-.922.527-1.32.132-3.032.264-4.09v-7.517l-.264-3.033-.132-2.506-.791-1.846-1.055-1.319-1.583-.923-1.635-.394-2.717-.53h-3.033v30.465h3.033l2.544-.515z"/><g fill-rule="nonzero"><path d="m388.254 164.178 2.344 3.282s-.757 39.99-.757 39.99-4.1 11.375-4.1 11.375v27.94s-2.481 11.367-2.481 11.367l-1.535 25.942s-1.458 1.913-1.458 1.913c-.024.033-.859 1.182-.859 1.182s-1.236 1.125-1.236 1.125c-.06.06-1.433 1.431-1.433 1.431-.051.055-1.523 1.652-1.523 1.652s-1.171 1.063-1.171 1.063-1.161.829-1.161.829-1.224.352-1.224.352l-.909.907s-.031.015-.031.015-.898.149-.898.149l-1.105.634h-.614s-.12-.04-.12-.04-.654-.264-.654-.264l-.136-.045-3.728-10.505-.601-6.131s-.92-61.144-.92-61.144v-5.365l-.652-10.269s1.481-18.114 1.481-18.114.179-.251.179-.251l1.483-2.595s3.314-3.71 3.314-3.71l.606-1.096s.517-.516.517-.516 2.073-1.942 2.073-1.942c.004-.003 2.201-2.072 2.201-2.072s2.113-1.865 2.113-1.865 1.022-.796 1.022-.796 1.076-.753 1.076-.753 1.339-.73 1.339-.73c.065-.038 1.037-.622 1.037-.622s1.385-.46 1.385-.46l1.548-.705s1.011-.403 1.011-.403 1.201-.302 1.201-.302 1.463-.244 1.463-.244c.026-.005 1.152-.209 1.152-.209h.761z"/><path d="m557.43 164.344 1.374.5 2.06.412s1.83.572 1.83.572 1.67.626 1.67.626 1.451.907 1.451.907l.739.082.36.36.922.528 1.024 1.024s.376.526.376.526.088.153.088.153.047.331.047.331l.213 1.063v.626l-.093.277c-.015.051-.323 1.071-.323 1.071s-.492.987-.492.987-.768 1.424-.768 1.424-.865 1.156-.865 1.156-.953.952-.953.952l-.576.808s-1.615 1.383-1.615 1.383l-1.936 1.935s-2.246 1.797-2.246 1.797-18.005 10.111-18.005 10.111l-.578 1.436s-.905 1.247-.905 1.247l-.466.814s-1.074 1.286-1.074 1.286l-.387 2.144s-.282.84-.282.84-.483 1.217-.483 1.217v1.721l.378 1.902.737 2.197.319.213.082.284.738.985s.951 1.426.951 1.426l1.246.712s.655.657.655.657l1.373.788c.025.013 1.449.801 1.449.801l1.324.496c.017.007 1.705.62 1.705.62l2.473.53h21.487s.666.303.666.303.913.457.913.457 1.859 1.048 1.859 1.048 1.492 1.064 1.492 1.064 1.924 1.795 1.924 1.795l1.137.884s.94.941.94.941.66.753.66.753.67 1.052.67 1.052.693 1.392.693 1.392l.655.935s.339 1.574.339 1.574l.664 1.332s.112 1.767.112 1.767l.495 1.731v3.414s-.488 2.076-.488 2.076l-.132 1.428s-.222.896-.222.896l-.251 1.367s-.276.925-.276.925-1.129 2.632-1.129 2.632c-.022.055-1.171 2.995-1.171 2.995s-1.169 2.573-1.169 2.573-2.015 3.148-2.015 3.148c-.042.073-1.909 3.311-1.909 3.311s-.71.944-.71.944c-.048.072-2.133 3.137-2.133 3.137s-1.718 1.839-1.718 1.839l-2.068 2.458s-2.426 2.426-2.426 2.426c-.031.032-2.585 2.714-2.585 2.714s-3.121 2.872-3.121 2.872-3.23 2.608-3.23 2.608-3.687 2.543-3.687 2.543-3.782 2.523-3.782 2.523-1.775.945-1.775.945-2.371 1.184-2.371 1.184c-.039.02-2.094 1.109-2.094 1.109s-2.065.803-2.065.803-2.39.755-2.39.755-2.379.752-2.379.752-2.504.596-2.504.596-2.145.338-2.145.338l-25.085.865-.799-.8-1.188-1.056s-.468-.467-.468-.467-.372-.446-.372-.446-1.157-1.931-1.157-1.931l-1.415-1.799s-.424-.764-.424-.764-.365-.854-.365-.854l-.459-.917s-.126-.376-.126-.376v-4.09s.078-.432.078-.432.574-.915.574-.915l.37-1.359s.373-.533.373-.533.962-.96.962-.96c.003-.003.93-.932.93-.932s1.722-1.147 1.722-1.147l.563-.676s.559-.311.559-.311 1.91-1.016 1.91-1.016l1.558-.781h2.556l2.063-.292s2.303-.273 2.303-.273l2.472-.438 2.688-.67s3.427-.712 3.427-.712l3.287-1.347c.072-.034 3.454-1.595 3.454-1.595s1.849-.791 1.849-.791c.047-.022 2.047-.946 2.047-.946l1.925-1.332s1.784-1.146 1.784-1.146 4.033-2.553 4.033-2.553l2.01-1.437 2.067-1.652c.012-.01 2.174-1.768 2.174-1.768.049-.043 3.539-3.097 3.539-3.097l-1.32-17.346h-23.525s-4.77-.129-4.77-.129-4.369-.257-4.369-.257-4.256-.385-4.256-.385-2.538-.284-2.538-.284h-1.922s-3.351-.478-3.351-.478-3.1-.595-3.1-.595-.714-.239-.714-.239-1.127-.561-1.127-.561l-.391-.113-.468-.931-1.159-1.491c-.015-.018-1.469-1.838-1.469-1.838s-1.341-2.123-1.341-2.123-.532-1.169-.532-1.169-.635-1.526-.635-1.526c-.001-.002-.61-1.462-.61-1.462s-.38-1.139-.38-1.139-.201-1.413-.201-1.413-.11-1.325-.11-1.325v-1.331s.032-.162.032-.162.176-.621.176-.621l1.959-5.07.917-1.083s4.243-3.984 4.243-3.984c.04-.041 2.862-2.863 2.862-2.863s3.382-2.992 3.382-2.992c.036-.033 3.944-3.682 3.944-3.682s3.917-3.41 3.917-3.41 2.384-1.722 2.384-1.722l2.253-1.99s2.27-1.672 2.27-1.672 2.505-1.582 2.505-1.582l5.05-3.72s4.986-3.325 4.986-3.325 4.918-2.9 4.918-2.9 2.559-1.218 2.559-1.218 2.632-1.129 2.632-1.129 2.682-1.021 2.682-1.021 2.359-.869 2.359-.869 2.658-.76 2.658-.76c.023-.007 1.568-.469 1.568-.469l.315-.141z"/><path d="m482.467 245.549h.613l.488.349.66.377.305.304.096.239.671 1.116.019.024.016.146c.002.01.239 2.04.239 2.04v1.991s-.262 1.583-.262 1.583v1.598s-.254 1.1-.254 1.1-.612 1.712-.612 1.712c-.021.068-1.424 4.533-1.424 4.533s-.882 2.141-.882 2.141c-.017.046-.724 1.903-.724 1.903s-.75.613-.75.613c-.053.046-3.339 2.953-3.339 2.953s-2.712 1.938-2.712 1.938l-2.843 2.326s-3.214 2.101-3.214 2.101-3.733 2.267-3.733 2.267l-3.288 2.275s-3.808 1.843-3.808 1.843-3.931 1.834-3.931 1.834-1.718.8-1.718.8-1.709.491-1.709.491l-1.873.702s-1.701.243-1.701.243l-1.72.491s-1.595.114-1.595.114l-1.684.241-.873-.219-1.309-.119s-2.254-.751-2.254-.751l-2.796.798s-1.786.358-1.786.358-2.902.504-2.902.504-3.078.383-3.078.383c-.002 0-1.886.237-1.886.237h-5.474s-1.794-.225-1.794-.225-2.053-.361-2.053-.361-2.353-.554-2.353-.554l-1.996-.221s-1.708-.797-1.708-.797l-2.366-.658s-1.84-.866-1.84-.866-1.986-1.119-1.986-1.119-.596-.339-.596-.339-1-.874-1-.874l-2.003-1.252s-.891-.891-.891-.891c-.001-.001-.972-.973-.972-.973-.051-.047-1.631-1.513-1.631-1.513s-1.396-1.931-1.396-1.931-1.436-2.484-1.436-2.484l-.785-1.121s-.529-1.27-.529-1.27c-.024-.053-.66-1.453-.66-1.453s-.664-1.587-.664-1.587c-.026-.057-1.254-2.738-1.254-2.738s-.229-1.614-.229-1.614l-.929-2.969.082-.582v-.574s.344-.686.344-.686l.356-1.604s.643-2.699.643-2.699.627-2.383.627-2.383.592-1.895.592-1.895.778-1.946.778-1.946l1.041-3.123s1.496-3.489 1.496-3.489 2.355-4.973 2.355-4.973c.011-.023 2.729-5.977 2.729-5.977s3.396-6.273 3.396-6.273c.027-.053 1.695-3.391 1.695-3.391s2.038-3.562 2.038-3.562 2.192-3.611 2.192-3.611 2.242-3.487 2.242-3.487 2.713-3.359 2.713-3.359l2.674-3.746s2.611-3.479 2.611-3.479 3.222-3.351 3.222-3.351l2.831-3.346s3.29-3.037 3.29-3.037c.027-.026 3.362-3.233 3.362-3.233s1.411-1.175 1.411-1.175 1.929-1.447 1.929-1.447 1.716-1.103 1.716-1.103 2.122-1.327 2.122-1.327c.032-.021 3.843-2.518 3.843-2.518s1.703-1.095 1.703-1.095 1.986-1.051 1.986-1.051 1.984-.868 1.984-.868 2.073-.907 2.073-.907 2.058-.847 2.058-.847 1.926-.602 1.926-.602 2.018-.593 2.018-.593 2.278-.402 2.278-.402l2.296-.725s2.003-.112 2.003-.112l5.845-.615 1.493-.829s.992-.298.992-.298c.053-.018 1.398-.466 1.398-.466s1.719-.322 1.719-.322 2.168-.229 2.168-.229h.724s1.005.224 1.005.224l1.721.172h.927s.586.234.586.234 1.312.597 1.312.597.933.466.933.466.797.62.797.62 1.214 1.093 1.214 1.093 1.111 1.009 1.111 1.009.821 1.233.821 1.233c.018.026 1.028 1.487 1.028 1.487s.848 1.814.848 1.814l.463.835s.219.978.219.978l.994 2.415s.816 2.447.816 2.447.614 2.956.614 2.956c0 .001.583 2.796.583 2.796v1.993l.298 2.089s.246 1.834.246 1.834.074 1.178.074 1.178-2.938 7.585-2.938 7.585l-.268.942s-.349.934-.349.934c-.007.017-.299.823-.299.823s-.702.8-.702.8l-1.124 1.928-.14.084-.365.365-.315.105-.625.357h-.839s-.802-.268-.802-.268l-.759-.168s-.729-.455-.729-.455l-1.306-.593s-1.134-.852-1.134-.852-1.179-1.06-1.179-1.06-1.538-1.423-1.538-1.423-1.368-1.594-1.368-1.594-1.634-2.177-1.634-2.177l-2.023-2.151s-1.548-2.381-1.548-2.381c-.012-.018-3.916-5.873-3.916-5.873l-13.092 6.546-7.531 4.841s-2.207 1.379-2.207 1.379l-2.313 1.699-1.859 1.857s-1.998 1.499-1.998 1.499l-2.144 1.837-1.806 2.085s-1.854 1.853-1.854 1.853l-.988 1.153-.649.908s-1.953 2.232-1.953 2.232l-1.479 2.512s-1.54 2.519-1.54 2.519l-1.257 2.677-.731 2.478s-.798 2.532-.798 2.532c-.016.059-.734 2.637-.734 2.637l-.472 2.998v4.556l.183 1.825.424 1.495 1.329 2.949c.032.064.838 1.682.838 1.682l1.125 1.497s.5 1.167.5 1.167l1.003 1.003s1.772 2.255 1.772 2.255l1.256.697s.653.764.653.764l1.157.825s1.344 1.151 1.344 1.151l1.765.589s1.321.528 1.321.528l1.851.615h.654s.44.148.44.148l1.755.354 2.074.17 1.997-.14h1.97l2.221-.639s1.989-.424 1.989-.424l2.496-.937 2.277-1.061z"/><path d="m348.22 285.336-2.656 1.224s-2.309.608-2.309.608l-2.711.904s-2.663.605-2.663.605-2.725.519-2.725.519c-.019.004-.978.197-.978.197h-3.227s-.925-.186-.925-.186-.818-.182-.818-.182-.586-.251-.586-.251-.252-.112-.252-.112l-.632-.882s-.225-.397-.225-.397-.122-.405-.122-.405v-3.977s.396-1.981.396-1.981v-37.948l-6.972-1.573-3.855 8.111c-.028.065-1.542 3.597-1.542 3.597s-2.323 4.258-2.323 4.258c-.029.058-2.244 4.487-2.244 4.487s-2.459 4.533-2.459 4.533-2.747 4.838-2.747 4.838-2.432 4.228-2.432 4.228-2.695 3.975-2.695 3.975c-.001 0-2.401 3.542-2.401 3.542s-1.16 1.388-1.16 1.388-1.013 1.126-1.013 1.126-1.166 1.051-1.166 1.051-1.26 1.12-1.26 1.12l-.518.518s-.327.145-.327.145-.183.052-.183.052h-.612l-1.373.458s-2.178.229-2.178.229c-.069.01-1.656.238-1.656.238h-3.346s-1.69-.2-1.69-.2-1.406-.439-1.406-.439-.966-.552-.966-.552l-.739-.21s-.406-.291-.406-.291c-.002-.001-1.017-.726-1.017-.726l-.482-.301s-.386-.58-.386-.58c-.035-.048-.574-.803-.574-.803s-.446-.801-.446-.801-.4-1.002-.4-1.002-.317-.953-.317-.953-.253-1.009-.253-1.009v-1.656l-.264-1.845v-1.772l-4.143-23.656-7.117-.422-.778 2.593s-2.218 6.785-2.218 6.785-3.401 9.808-3.401 9.808-2.108 5.536-2.108 5.536c-.018.049-1.964 5.63-1.964 5.63s-2.363 5.775-2.363 5.775c-.024.065-1.957 5.348-1.957 5.348s-2.313 5.144-2.313 5.144-2.188 4.76-2.188 4.76-.852 1.584-.852 1.584-1.122 1.992-1.122 1.992-.763 1.201-.763 1.201-.946 1.181-.946 1.181c-.017.021-.8 1.028-.8 1.028s-.078.077-.078.077l-.102.052-2.788.438-2.451.774s-2.759.345-2.759.345-2.938.245-2.938.245h-1.111s-1.055-.264-1.055-.264h-1.15s-.133-.057-.133-.057l-.223-.112-2.731-4.077-4.72 6.287c-.035.05-1.895 2.709-1.895 2.709-.013.019-2.163 3.178-2.163 3.178s-2.894 3.526-2.894 3.526-3.461 3.972-3.461 3.972-4.133 4.262-4.133 4.262-2.259 2.259-2.259 2.259c-.036.038-2.276 2.41-2.276 2.41s-2.19 2.312-2.19 2.312-2.344 1.85-2.344 1.85c-.045.038-2.505 2.112-2.505 2.112s-2.345 1.849-2.345 1.849-2.615 1.743-2.615 1.743-2.829 1.8-2.829 1.8-2.585 1.553-2.585 1.553-2.72 1.606-2.72 1.606-1.22.554-1.22.554-1.383.577-1.383.577-2.774.884-2.774.884c-.023.008-2.657.886-2.657.886s-1.304.324-1.304.324-1.467.245-1.467.245c-.026.004-1.152.209-1.152.209h-6.793s-3.033-.659-3.033-.659h-1.136s-2.377-.236-2.377-.236-2.026-.292-2.026-.292h-1.972s-.676-.253-.676-.253l-1.368-.302s-2.367-.625-2.367-.625-2.672-.813-2.672-.813-1.117-.559-1.117-.559c-.076-.033-1.188-.528-1.188-.528s-3.149-1.573-3.149-1.573c-.059-.026-.999-.455-.999-.455s-1.02-.917-1.02-.917l-1.734-1.302c-.023-.017-1.453-1.057-1.453-1.057s-1.265-.947-1.265-.947-.828-.933-.828-.933c-.02-.021-1.412-1.54-1.412-1.54s-1.319-1.584-1.319-1.584c-.06-.064-1.358-1.479-1.358-1.479s-3.326-4.66-3.326-4.66l-11.102 7.996v8.041s-.178.1-.178.1-5.636 2.883-5.636 2.883c-.027.015-3.961 2.113-3.961 2.113s-4.275 2.202-4.275 2.202-4.919 2.332-4.919 2.332-4.908 2.194-4.908 2.194-5.095 2.04-5.095 2.04-5.171 1.681-5.171 1.681c-.012.004-2.783.925-2.783.925-.001.001-2.727.909-2.727.909s-4.275 1.307-4.275 1.307-2.362.126-2.362.126l-2.487.552s-1.844.216-1.844.216h-1.638s-1.567-.223-1.567-.223-1.469-.227-1.469-.227-.899-.255-.899-.255l-.052-.009-.11-.088-2.172-1.303-2.871.718s-1.574.224-1.574.224-2.511.239-2.511.239h-4.181s-1.569-.224-1.569-.224-1.59-.244-1.59-.244-1.897-.407-1.897-.407l-1.87-.233s-1.565-.558-1.565-.558l-2.118-.624s-1.685-.738-1.685-.738-1.897-1.136-1.897-1.136l-2.243-1.123s-.78-.556-.78-.556l-.901-.564s-1.97-1.722-1.97-1.722l-1.186-.923s-.791-.692-.791-.692-1.686-1.928-1.686-1.928c0-.001-.854-.976-.854-.976s-.999-1.285-.999-1.285l-1.12-1.118s-.672-.961-.672-.961-1.74-2.858-1.74-2.858-1.537-2.818-1.537-2.818-1.764-3.275-1.764-3.275-1.451-3.388-1.451-3.388-1.241-3.845-1.241-3.845l-1.559-5.716s-.942-3.5-.942-3.5c-.023-.075-.721-2.283-.721-2.283s-.359-2.634-.359-2.634c-.006-.042-.521-3.257-.521-3.257s-.377-3.267-.377-3.267-.249-3.613-.249-3.613v-3.354s.263-2.242.263-2.242v-3.783s.311-1.447.311-1.447.863-3.822.863-3.822.807-2.153.807-2.153l.358-1.789s.704-1.406.704-1.406c0-.001.923-1.849.923-1.849s.835-1.669.835-1.669 1.151-1.791 1.151-1.791l1.75-3.209 1.592-3.98s2.404-4.555 2.404-4.555 3.092-5.668 3.092-5.668 4.196-6.556 4.196-6.556c.042-.073 1.954-3.385 1.954-3.385s2.448-3.609 2.448-3.609c.016-.025 2.457-3.751 2.457-3.751s2.652-3.534 2.652-3.534 3.015-3.673 3.015-3.673c.032-.041 3.18-4.105 3.18-4.105s3.042-3.804 3.042-3.804 3.373-3.501 3.373-3.501c.058-.067 1.824-2.086 1.824-2.086s1.714-1.715 1.714-1.715l5.885-5.492s1.759-1.631 1.759-1.631 4.238-3.468 4.238-3.468 4.23-3.335 4.23-3.335 4.458-3.056 4.458-3.056 2.399-1.514 2.399-1.514 2.118-1.248 2.118-1.248 2.464-1.296 2.464-1.296c.035-.02 2.438-1.353 2.438-1.353.029-.017 2.281-1.32 2.281-1.32s2.628-1.003 2.628-1.003l2.572-1.219s2.696-1.155 2.696-1.155 2.342-.986 2.342-.986 2.74-.872 2.74-.872 2.413-.762 2.413-.762 2.376-.62 2.376-.62 1.114.07 1.114.07 1.83.538 1.83.538 2.868.873 2.868.873 1.033.413 1.033.413 1.603.802 1.603.802 1.584.925 1.584.925l1.749.873s1.156.771 1.156.771 1.539 1.411 1.539 1.411l1.656 1.183s1.163 1.374 1.163 1.374c.008.009.798.931.798.931s.612.716.612.716 1.061 1.697 1.061 1.697 1.03 2.173 1.03 2.173.38 1.012.38 1.012l.5 1.127s.81 2.432.81 2.432.587 2.58.587 2.58.206 1.439.206 1.439v8.216s-.212 1.691-.212 1.691-.516 2.193-.516 2.193l-.649 4.28s-.593 2.134-.593 2.134-.666 2.266-.666 2.266c-.014.052-.628 2.389-.628 2.389s-.863 2.339-.863 2.339-.89 2.417-.89 2.417-1.172 2.736-1.172 2.736c-.022.054-1.161 2.966-1.161 2.966s-1.248 2.621-1.248 2.621-1.478 2.957-1.478 2.957l-.223.513-.195-.046-1.737-.314-1.626-.117s-1.515-.467-1.515-.467l-1.81-.339s-1.462-.731-1.462-.731c-.076-.034-1.288-.572-1.288-.572-.025-.011-.716-.306-.716-.306s-1.975-1.187-1.975-1.187l-.504-.216s-.481-.481-.481-.481c-.059-.053-1.662-1.523-1.662-1.523-.021-.019-1.005-.893-1.005-.893s-.21-.252-.21-.252-.603-1.208-.603-1.208l-.435-.434-.082-.74-.934-1.492s-1.603-3.949-1.603-3.949c-.01-.022-1.078-2.559-1.078-2.559-.015-.032-.817-1.837-.817-1.837l-1.946-1.955h-5.45v3.94l-3.62 4.424s-1.156.84-1.156.84l-3.749 3.08s-2.612 2.062-2.612 2.062l-2.867 2.732s-3.169 2.905-3.169 2.905c-.029.027-3.301 3.161-3.301 3.161l-3.26 3.669s-3.306 3.701-3.306 3.701c-.012.015-1.871 2.139-1.871 2.139-.012.014-1.635 1.907-1.635 1.907-.039.049-1.814 2.267-1.814 2.267l-1.338 2.41s-1.79 2.343-1.79 2.343l-1.094 2.325s-1.451 2.109-1.451 2.109l-1.196 2.542c-.012.028-1.151 2.559-1.151 2.559s-1.274 2.406-1.274 2.406l-.409 1.226s-.581 1.16-.581 1.16l-.876 3.332v1.806s-.264 4.089-.264 4.089v3.053l.29 3.191.561 3.505c.017.083.691 3.322.691 3.322.018.071.448 1.788.448 1.788l.632 1.898.601 1.321s.479 1.919.479 1.919l1.266 1.807s1.03 1.617 1.03 1.617l1.186 1.356 1.434 1.436 1.441 1.121 1.878 1.314 1.637.491s1.848.851 1.848.851l2.622.565h4.619l1.411-.316s.932-.117.932-.117c.051-.007 1.707-.262 1.707-.262s4.328-.523 4.328-.523c.035-.005 6.55-.919 6.55-.919s4.24-.408 4.24-.408l4.393-.992c.079-.022 4.357-1.19 4.357-1.19s4.589-1.049 4.589-1.049c.048-.012 4.91-1.263 4.91-1.263l2.414-.994s2.402-.885 2.402-.885 4.874-1.671 4.874-1.671l4.381-2.402c.016-.009 2.222-1.248 2.222-1.248l1.963-1.264c.024-.016 1.978-1.317 1.978-1.317s3.166-2.038 3.166-2.038l.939-5.259s.774-4.257.774-4.257 1.294-5.563 1.294-5.563 1.571-6.419 1.571-6.419.9-3.47.9-3.47 1.14-3.8 1.14-3.8 1.334-3.736 1.334-3.736l1.192-4.371s1.238-3.591 1.238-3.591c.001 0 1.82-4.287 1.82-4.287.022-.055 1.576-4.072 1.576-4.072s1.785-4.082 1.785-4.082 2.059-4.246 2.059-4.246 2.068-4.007 2.068-4.007 2.137-3.894 2.137-3.894 2.447-3.606 2.447-3.606c.036-.059 1.215-1.945 1.215-1.945s1.365-1.613 1.365-1.613l2.459-3.367s1.44-1.559 1.44-1.559 1.533-1.659 1.533-1.659 2.767-2.768 2.767-2.768 1.918-1.37 1.918-1.37l1.32-1.451s1.71-1.223 1.71-1.223l1.367-1.253s1.758-.878 1.758-.878l1.502-.878s2.051-.898 2.051-.898l1.715-.923s1.748-.764 1.748-.764 1.623-.464 1.623-.464c.014-.004 1.971-.58 1.971-.58s2.175-.272 2.175-.272l.665-.221s1.731-.495 1.731-.495 2.364-.62 2.364-.62 3.082-.618 3.082-.618 3.64-.502 3.64-.502 3.839-.372 3.839-.372h3.971s2.268.254 2.268.254l2.045.118s2.478.551 2.478.551h.863s.455.152.455.152 1.518.675 1.518.675l.88.111s1.607.902 1.607.902l1.72.803s1.581 1.242 1.581 1.242c.068.049.93.665.93.665s.948.737.948.737.135.134.135.134.595 1.073.595 1.073l1.488 1.717s.363 1.089.363 1.089l.888 1.143s.246.821.246.821l.51 1.274s.292 1.069.292 1.069.281 1.683.281 1.683l.573 1.722s.253 1.009.253 1.009v11.945l3.611 16.605 6.424-12.849 4.105-10.064s6.287-13.357 6.287-13.357 3.695-7.788 3.695-7.788c.005-.011 3.672-7.866 3.672-7.866s3.899-7.67 3.899-7.67 4.039-7.297 4.039-7.297 3.731-6.432 3.731-6.432 2.067-2.971 2.067-2.971c.04-.064 1.89-2.971 1.89-2.971.003-.005 1.426-2.257 1.426-2.257s1.974-2.221 1.974-2.221l1.465-1.832s1.433-1.313 1.433-1.313c.056-.056.217-.217.217-.217s.728-.312.728-.312l.385-.307 1.045.526 2.156-.62.069-.014.459.114h.4l1.162.483s.201.144.201.144.66.791.66.791l.872.623s.66.849.66.849l.923 1.055s.498.64.498.64.576 1.613.576 1.613l.958 1.642s1.662 4.154 1.662 4.154.632 2.404.632 2.404l.928 2.784s.728 2.668.728 2.668.655 3.406.655 3.406l.877 3.386s.379 4.161.379 4.161l.649 4.29s.259 4.658.259 4.658c.009.085.531 5.177.531 5.177s1.364 18.638 1.364 18.638l10.158-20.316s4.57-8.615 4.57-8.615 5.356-9.407 5.356-9.407 2.972-4.912 2.972-4.912 2.99-4.549 2.99-4.549 2.902-4.354 2.902-4.354c.008-.011 2.352-3.587 2.352-3.587s1.39-1.518 1.39-1.518l.955-1.313s1.239-1.125 1.239-1.125l.835-.836h.973l.396-.528h.615l1.385-.692.807-.646.707-.45.384-.077 1.461-.647s.715-.269.715-.269l1.728-.384h2.461s1.581.264 1.581.264h1.515s1.844.661 1.844.661h.966s1.389.461 1.389.461l1.076.119s.833.333.833.333 1.267.528 1.267.528c-.001 0 1.065.678 1.065.678s.894.671.894.671.42.701.42.701l1.185.844s.591.689.591.689l.541.543s.164.229.164.229.318.956.318.956l1.213 2.284s.404 1.113.404 1.113.299.994.299.994.254 1.537.254 1.537l.39 1.43s.19 1.232.19 1.232v1.508l.392 9.806-1.307 27.736-3.9 48.169zm-194.21-9.037-1.256 3.491-.995 3.411-.674 3.233s-.407 1.628-.407 1.628l-.314 1.729-.294 3.23v6.331l.264 1.32v1.41l.52 2.949.954 2.315s.275 1.239.275 1.239l.667 1.497s.541 1.266.541 1.266l.856 1.198s.604.907.604.907l.698.835s1.173 1.642 1.173 1.642l1.218.524s.306.305.306.305l.892.714 1.522 1.09 1.771.502.478.07s1.164.662 1.164.662h1.38s.924.264.924.264h2.213l1.383-.395s2.095-.557 2.095-.557l2.038-.73c.046-.018 2.791-1.085 2.791-1.085l2.396-1.595 2.287-1.717 2.044-1.751 1.099-1.1 1.171-1.317c.046-.055 2.009-2.441 2.009-2.441l3.579-5.368c.045-.075 1.717-2.86 1.717-2.86l1.566-3.276 1.389-3.335c.031-.085 1.256-3.488 1.256-3.488l.986-3.378.662-2.912s.641-2.245.641-2.245v-1.88s.124-2.742.124-2.742.286-3.291.286-3.291l-.278-2.928c-.001 0-.001-1.311-.001-1.311l-.166-1.83-.601-2.856-.665-2.262s-.399-1.794-.399-1.794l-.725-1.015s-.264-.923-.264-.923l-.798-1.117s-.574-1.339-.574-1.339l-1.186-1.018s-.621-.931-.621-.931l-1.588-1.135-.255-.153s-.825-.988-.825-.988l-2.863-1.227-1.639-.471h-.93s-.532-.151-.532-.151l-2.201-.493-1.327.382h-.648l-2.731.361-2.625 1.149c-.04.019-2.221 1.036-2.221 1.036l-2.432 1.52-2.33 1.748-1.951 1.672c-.014.012-1.333 1.167-1.333 1.167l-1.073 1.38s-1.878 2.146-1.878 2.146l-2.064 2.801-1.604 2.809s-2.001 2.857-2.001 2.857l-1.332 3.405s-1.338 3.21-1.338 3.21z"/></g></g></svg>