<svg clip-rule="evenodd" fill-rule="evenodd" stroke-linejoin="round" stroke-miterlimit="2" viewBox="0 0 600 308" xmlns="http://www.w3.org/2000/svg" xmlns:xlink="http://www.w3.org/1999/xlink"><clipPath id="a"><path clip-rule="nonzero" d="m182.8 307.687v-125.477h9.208l-18.416-12.547h36.832l9.207 6.273v-6.273h9.208c2.494 0 4.652 1.241 6.475 3.725 1.822 2.483 2.733 5.424 2.733 8.822v100.381l-18.416-12.547v-37.643h-9.207l-9.208-6.274v69.012zm145.599-114.541c6.165.474 12.304.935 18.415 1.385v100.608l-18.415 12.548v-81.56l9.207-6.274h-9.207zm45.175 3.292.095.006c6.07.418 12.176.808 18.321 1.17v28.513l36.831-25.095v34.661c-.794.626-1.543 1.357-2.245 2.192-2.62 3.12-3.821 6.469-3.821 9.962 0 4.003 1.158 7.674 3.493 11.009.784 1.12 1.641 2.188 2.573 3.205v7.983c0 3.529-.911 6.535-2.733 9.018-1.823 2.353-3.981 3.529-6.475 3.529h-18.415l-9.208-6.273v18.821l-18.416 12.548v-50.191h18.416v12.548h18.416v-43.917l-36.832 25.095zm-99.732-26.775h18.589c2.493 0 4.652 1.241 6.474 3.725 1.822 2.483 2.733 5.424 2.733 8.822v25.096l-18.415 12.547h9.208c2.493 0 4.652 1.242 6.474 3.725 1.822 2.484 2.733 5.425 2.733 8.823v37.643c0 3.529-.911 6.535-2.733 9.018-1.822 2.353-3.981 3.529-6.474 3.529h-9.208v-50.19h-18.416v62.738l-18.415 12.548v-75.286h9.207c-2.589 0-4.795-1.177-6.618-3.529-1.726-2.484-2.589-5.49-2.589-9.019v-37.643h9.207l-18.415-12.547h14.163c2.129 2.684 5.585 4.443 10.752 4.443 2.957 0 5.53-.675 7.747-1.907 1.4-.778 2.731-1.623 3.996-2.536zm-54.211 50.19v-37.643h-18.415v37.643zm63.592 0v-37.643h-18.416v37.643zm-34.91-57.826-2.292 1.561v-81.56l9.208-6.273h-9.208v-37.643h-9.208l-18.415-12.548h127.182l9.208 6.274v-6.274h9.208c2.494 0 4.652 1.242 6.474 3.725 1.823 2.483 2.734 5.424 2.734 8.823v100.381l-18.416-12.548v-37.643h-9.208l-9.208-6.274v56.238c-.814-.148-1.984-.409-3.512-.776-1.968-.472-3.935-.905-5.902-1.298-1.836-.368-3.561-.735-5.177-1.102-1.578-.358-2.78-.559-3.598-.652l-.226-.046v-96.28h9.208l-17.553-11.96v108.01c-.499.029-1.04.097-1.621.213-2.333.063-4.34 1.43-5.32 3.399h-11.474v-99.662h9.208l-17.553-11.96v11.96h-18.415v99.662h-.976c-3.378 0-6.158 1.02-8.409 2.85-1.924 1.563-3.432 3.483-4.514 5.767-.903 1.906-1.556 3.911-1.957 6.018-.381 2-.563 3.859-.563 5.574 0 1.448.102 2.795.295 4.044zm-84.299 1.561v-75.286h9.208c-2.59 0-4.796-1.176-6.618-3.529-1.727-2.483-2.59-5.489-2.59-9.018v-37.643h9.208l-18.416-12.548h55.247c2.494 0 4.652 1.242 6.474 3.725 1.823 2.483 2.734 5.424 2.734 8.823v25.095l-18.416 12.548h9.208c2.494 0 4.652 1.241 6.474 3.725 1.823 2.483 2.734 5.424 2.734 8.822v37.643c0 3.529-.911 6.535-2.734 9.019-1.822 2.352-3.98 3.529-6.474 3.529h-9.208v-50.191h-18.415v62.738zm-63.591-25.095h-26.761v-94.108l-18.415-12.547v94.107h-9.208l18.416 12.548h-27.624v-94.108l-18.415-12.547v50.19l-9.208 6.274h9.208v50.191l-18.416 12.547v-144.298l36.831 25.096v-25.096l55.247 37.643v81.56h-9.208l17.553 11.96v-99.793h9.207l-18.415-12.548h36.831l9.208 6.274v-6.274h9.208c2.493 0 4.651 1.242 6.474 3.725 1.822 2.483 2.733 5.424 2.733 8.823v100.381l-18.415-12.548v-37.643h-9.208l-9.208-6.274v69.012l-18.415 12.548zm281.125 8.386v-83.672l18.416 12.548v50.19h18.415v-12.547h12.325c-.451 2.106-.687 4.41-.687 6.914 0 4.989 1.054 8.899 2.82 11.809.492.811 1.03 1.572 1.613 2.284-.124.189-.254.375-.388.559-1.823 2.352-3.981 3.529-6.475 3.529h-18.415l-9.208-6.274v16.442c-2.773-.032-5.299-.198-7.578-.506-2.853-.386-5.706-.732-8.559-1.041-.749-.081-1.509-.159-2.279-.235zm-73.544-12.504.163-.005c-.049 0-.104-.006-.163.005zm-170.75-58.62v-37.643h-18.416v37.643zm63.591 0v-37.643h-18.415v37.643zm153.943 0v-37.643h-18.416v37.643zm26.76-12.548v-62.738l18.416 12.547v50.191z"/></clipPath><g fill="#fff" fill-rule="nonzero"><g clip-path="url(#a)"><path d="m0 151.04v-144.298l36.831 25.096v-25.096l55.247 37.643v81.56h-9.208l18.416 12.548h-27.624v-94.108l-18.415-12.547v94.107h-9.208l18.416 12.548h-27.624v-94.108l-18.415-12.547v50.19l-9.208 6.274h9.208v50.191l-18.416 12.547z"/><path d="m137.254 75.755v-37.643h-18.416v37.643zm-36.831 87.833v-125.476h9.207l-18.415-12.548h36.831l9.208 6.274v-6.274h9.208c2.493 0 4.651 1.242 6.474 3.725 1.822 2.483 2.733 5.424 2.733 8.823v100.381l-18.415-12.548v-37.643h-9.208l-9.208-6.274v69.012z"/><path d="m200.845 75.755v-37.643h-18.415v37.643zm-36.831 87.833v-75.286h9.208c-2.59 0-4.796-1.176-6.618-3.529-1.727-2.483-2.59-5.489-2.59-9.018v-37.643h9.208l-18.416-12.548h55.247c2.494 0 4.652 1.242 6.474 3.725 1.823 2.483 2.734 5.424 2.734 8.823v25.095l-18.416 12.548h9.208c2.494 0 4.652 1.241 6.474 3.725 1.823 2.483 2.734 5.424 2.734 8.822v37.643c0 3.529-.911 6.535-2.734 9.019-1.822 2.352-3.98 3.529-6.474 3.529h-9.208v-50.191h-18.415v62.738z"/><path d="m246.021 163.588v-81.56l9.208-6.273h-9.208v-37.643h-9.208l-18.415-12.548h64.454v12.548h-18.415v112.928z"/><path d="m291.197 138.493v-100.381h9.208l-18.416-12.548h27.623v112.929z"/><path d="m354.788 75.755v-37.643h-18.416v37.643zm-36.831 87.833v-125.476h9.208l-18.416-12.548h36.831l9.208 6.274v-6.274h9.208c2.494 0 4.652 1.242 6.474 3.725 1.823 2.483 2.734 5.424 2.734 8.823v100.381l-18.416-12.548v-37.643h-9.208l-9.208-6.274v69.012z"/><path d="m381.548 163.588v-100.381l18.416 12.548v50.19h18.415v-12.547h18.416v12.547c0 3.529-.911 6.535-2.733 9.019-1.823 2.352-3.981 3.529-6.475 3.529h-18.415l-9.208-6.274v18.821zm0-100.381v-62.738l18.416 12.547v50.191z"/><path d="m219.631 219.853v-37.643h-18.415v37.643zm-36.831 87.834v-125.477h9.208l-18.416-12.547h36.832l9.207 6.273v-6.273h9.208c2.494 0 4.652 1.241 6.475 3.725 1.822 2.483 2.733 5.424 2.733 8.822v100.381l-18.416-12.547v-37.643h-9.207l-9.208-6.274v69.012z"/><path d="m283.223 219.853v-37.643h-18.416v37.643zm-36.831 87.834v-75.286h9.207c-2.589 0-4.795-1.177-6.618-3.529-1.726-2.484-2.589-5.49-2.589-9.019v-37.643h9.207l-18.415-12.547h55.247c2.493 0 4.652 1.241 6.474 3.725 1.822 2.483 2.733 5.424 2.733 8.822v25.096l-18.415 12.547h9.208c2.493 0 4.652 1.242 6.474 3.725 1.822 2.484 2.733 5.425 2.733 8.823v37.643c0 3.529-.911 6.535-2.733 9.018-1.822 2.353-3.981 3.529-6.474 3.529h-9.208v-50.19h-18.416v62.738z"/><path d="m328.399 307.687v-81.56l9.207-6.274h-9.207v-37.643h-9.208l-18.416-12.547h64.455v12.547h-18.416v112.929z"/><path d="m373.574 307.687v-50.191h18.416v12.548h18.416v-43.917l-36.832 25.095v-69.012c0-3.398.864-6.339 2.59-8.822 1.822-2.484 4.029-3.725 6.618-3.725h18.416l9.208 6.273v-18.821l18.415-12.548v50.191h-18.415v-12.548h-18.416v43.917l36.831-25.095v69.012c0 3.529-.911 6.535-2.733 9.018-1.823 2.353-3.981 3.529-6.475 3.529h-18.415l-9.208-6.273v18.821z"/></g><path d="m428.894 247.847c0 2.724.794 5.22 2.383 7.489 1.588 2.269 3.555 4.274 5.9 6.014s4.917 3.063 7.716 3.971c2.798.908 5.332 1.362 7.602 1.362 2.572 0 4.69-.454 6.354-1.362s2.572-2.874 2.723-5.9c.151 0 .265-.038.34-.114.076-.075.189-.113.341-.113.908 0 1.74.302 2.496.908l4.539 4.084c.756.606 1.588.984 2.496 1.135 4.539.757 9.153 1.173 13.843 1.248 4.69.076 9.228.114 13.616.114h13.388c5.296 0 10.25-.568 14.864-1.702 4.615-1.135 8.548-3.14 11.801-6.014s4.879-7.186 4.879-12.935c0-4.69-1.362-8.888-4.085-12.595-2.723-3.706-6.051-6.997-9.985-9.871-3.933-2.875-8.056-5.447-12.368-7.716-4.311-2.269-8.131-4.387-11.46-6.354-.302-.303-.907-.719-1.815-1.248-.908-.53-1.589-1.097-2.042-1.702l2.95-2.269c0-.757.113-2.421.34-4.993s.416-4.236.567-4.992c.152-.454.303-1.135.454-2.043.152-.907.379-1.815.681-2.723.303-.908.681-1.702 1.135-2.383s1.059-1.021 1.815-1.021h1.135c.151 0 .567.151 1.248.454l4.539 2.042c.68.303 1.172.454 1.475.454 2.572 1.21 5.257 2.043 8.056 2.496 2.799.454 5.635.681 8.51.681 1.059 0 2.761-.189 5.106-.567s4.689-.946 7.034-1.702c2.345-.757 4.426-1.664 6.241-2.723s2.723-2.27 2.723-3.631c0-1.513-.529-2.383-1.588-2.61s-1.967-.945-2.723-2.156c.605-.302 1.928-1.059 3.971-2.269 2.042-1.21 3.442-2.421 4.198-3.631l.227-.454c0-1.21-.416-1.967-1.248-2.269-.832-.303-1.626-.454-2.383-.454h-1.362c-2.723 0-5.257.53-7.602 1.589s-4.69 2.269-7.035 3.63c-2.345 1.362-4.727 2.572-7.148 3.631s-4.992 1.589-7.716 1.589c-1.815 0-3.366-.076-4.652-.227s-2.912-.832-4.879-2.042v-.908c1.059-1.664 2.307-2.988 3.745-3.971 1.437-.984 2.95-1.967 4.538-2.951 1.589-.983 3.177-2.193 4.766-3.63 1.588-1.438 3.063-3.367 4.425-5.787 1.059-1.967 2.269-4.993 3.631-9.077 1.362-4.085 2.874-8.17 4.539-12.255 1.664-4.084 3.593-7.678 5.786-10.779 2.194-3.101 4.804-4.652 7.829-4.652 2.118 0 4.161.227 6.128.681 1.966.454 4.084.681 6.354.681 1.815 0 4.5-.568 8.056-1.702 3.555-1.135 7.11-2.648 10.665-4.539 3.556-1.891 6.619-4.009 9.191-6.354s3.858-4.804 3.858-7.375c0-3.631-1.362-6.506-4.085-8.624-.756-.605-2.004-1.55-3.744-2.836s-3.555-2.61-5.446-3.972c-1.892-1.361-3.707-2.647-5.447-3.858-1.74-1.21-2.988-2.042-3.744-2.496-.605-.302-1.324-.756-2.156-1.361-.832-.606-1.664-1.173-2.496-1.702l-3.291-2.156c-.151 0-.87-.038-2.156-.114-1.286-.075-2.307-.113-3.063-.113l-4.993.227c-1.21 1.059-2.269 2.345-3.177 3.858-.907 1.512-2.193 2.269-3.858 2.269-1.361 0-3.441-.34-6.24-1.021s-5.598-1.627-8.397-2.837c-2.798-1.21-5.37-2.61-7.715-4.198-2.345-1.589-3.745-3.291-4.198-5.106.605-1.816 1.134-3.328 1.588-4.539.454-1.21.756-2.345.908-3.404.151-1.059.265-2.118.34-3.177.076-1.059.114-2.345.114-3.858 0-7.261-1.778-13.388-5.333-18.381-3.556-4.992-9.04-7.489-16.453-7.489-2.723 0-5.484.416-8.283 1.248-2.799.833-5.37 2.081-7.715 3.745s-4.274 3.706-5.787 6.127-2.269 5.144-2.269 8.169c0 1.816.453 3.631 1.361 5.447l2.837 5.673c.983 1.967 1.929 4.009 2.836 6.127.908 2.118 1.362 4.312 1.362 6.581v2.043c0 .756-.076 1.286-.227 1.588-1.513.908-4.312 2.496-8.396 4.766-4.085 2.269-8.397 4.652-12.935 7.148-4.539 2.496-8.851 4.841-12.936 7.035-4.084 2.194-6.883 3.744-8.396 4.652-4.085 2.269-7.148 4.879-9.191 7.829-2.042 2.95-3.063 6.846-3.063 11.687 0 3.631.643 6.505 1.929 8.623s3.025 3.745 5.219 4.879c2.194 1.135 4.69 1.967 7.489 2.497 2.799.529 5.786.87 8.964 1.021v1.588c0 .454-.038.908-.114 1.362s-.416.832-1.021 1.135c-1.664.454-3.518 1.059-5.56 1.815-2.042.757-4.085 1.475-6.127 2.156s-4.009 1.324-5.9 1.929-3.518.983-4.879 1.135c-.454.151-1.513.34-3.177.567-1.665.227-3.442.454-5.333.681s-3.707.416-5.447.567c-1.739.151-2.836.303-3.29.454-.303 0-1.059.189-2.269.567-1.211.378-2.497.794-3.858 1.248-1.362.454-2.61.908-3.745 1.362-1.134.454-1.853.681-2.155.681-.152 0-.454.037-.908.113s-.984.114-1.589.114h-3.404c-3.479 0-6.618-.19-9.417-.568s-5.598-.718-8.397-1.021-5.749-.567-8.85-.794-6.543-.189-10.325.113l-5.56-1.588c-2.648-.757-5.484-1.589-8.51-2.496-3.026-.908-5.9-1.74-8.624-2.497-2.723-.756-4.614-1.286-5.673-1.588l-9.871-2.156c-1.891-.378-3.669-.757-5.333-1.135s-2.723-.567-3.177-.567l-.568-.114c-.378-.075-.794-.113-1.248-.113h-5.219c-.303 0-.643.038-1.021.113-.379.076-.719.114-1.021.114 0 .151-.152.454-.454.908-.303.454-.454.832-.454 1.134-.303.152-.568.416-.794.795l-.341.567h-42.663c-1.815 0-3.328.492-4.539 1.475-1.21.983-2.155 2.194-2.836 3.631s-1.173 2.95-1.475 4.538c-.303 1.589-.454 3.064-.454 4.426 0 3.025.529 5.446 1.588 7.261 1.059 1.816 3.177 2.724 6.354 2.724 1.816 0 3.404-.379 4.766-1.135s2.648-1.589 3.858-2.496c1.21-.908 2.496-1.74 3.858-2.497 1.361-.756 2.874-1.134 4.538-1.134 1.362 0 3.48.227 6.354.681 2.875.453 5.825 1.096 8.851 1.929 3.025.832 5.749 1.891 8.169 3.177 2.421 1.285 4.009 2.761 4.766 4.425l4.992 14.296 2.043.454c1.361.303 2.345.454 2.95.454 19.213 1.513 38.162 2.912 56.846 4.198s37.708 2.307 57.073 3.064c2.118.454 3.972.794 5.56 1.021 1.589.227 3.026.643 4.312 1.248s2.458 1.4 3.517 2.383 2.043 2.458 2.95 4.425l5.9 14.297c2.118 4.236 5.258 7.64 9.418 10.212 4.161 2.572 8.207 4.917 12.141 7.035-1.059 1.512-2.95 2.723-5.673 3.63-2.724.908-4.917 1.362-6.581 1.362h-25.417c-2.42 0-4.425.946-6.013 2.837-1.589 1.891-2.383 3.895-2.383 6.013z"/></g></svg>