<svg clip-rule="evenodd" fill-rule="evenodd" stroke-linejoin="round" stroke-miterlimit="2" viewBox="0 0 600 404" xmlns="http://www.w3.org/2000/svg"><g fill="#fff"><path d="m156.948 300.375 25.521 66.886-14.652 35.884h11.579l42.192-102.77h-12.927l-18.38 50.09-17.099-50.09z"/><path d="m232.092 368.36v-8.445s14.752.579 17.825.579c6.807 0 10.206-1.451 12.765-4.196 1.511-1.646 2.876-8.935 2.876-11.534 0-2.588-.499-8.185-1.511-10.478-1.046-2.246-3.423-4.343-6.987-4.646-2.541-.219-6.471-.734-11.065-.945-6.441-.305-10.699-3.665-12.75-6.081-2.033-2.419-4.756-6.061-4.756-17.203 0-11.157 2.886-17.411 5.779-20.312 2.893-2.916 7.125-4.195 10.378-4.772 3.742-.639 9.855-.678 9.855-.678l19.525.569v8.445s-14.237-.569-17.3-.569c-6.809 0-8.852 1.459-11.401 4.195-1.506 1.629-2.682 6.137-2.682 8.719 0 2.594.303 7.835 1.325 10.103 1.013 2.248 3.4 4.352 6.971 4.672 2.534.196 6.471.71 11.057.919 6.471.305 10.721 3.658 12.748 6.084 2.052 2.424 4.78 7.532 4.78 18.665 0 11.158-2.909 19.129-5.787 22.037-2.899 2.899-7.126 4.196-10.376 4.757-3.752.645-9.865.694-9.865.694z"/><path d="m68.789 279.534h13.948v89.358h-13.948z"/><path d="m308.204 288.092h-13.943v65.602s.335 5.988.679 8.094c.342 2.105 3.407 7.104 11.399 7.104l14.448-.282v-8.414s-3.913.282-6.275.282c-2.395 0-5.296-.157-5.786-4.203-.524-4.039-.524-8.866-.524-8.866v-38.628h15.752v-8.406h-15.752v-12.281z"/><path d="m442.819 300.379h13.942v68.513h-13.942z"/><path d="m415.042 288.092h-13.948v65.602s.329 5.988.665 8.094c.35 2.105 3.39 7.104 11.414 7.104l14.447-.282v-8.414s-3.922.282-6.291.282-5.278-.157-5.786-4.203c-.499-4.039-.499-8.866-.499-8.866v-38.628h15.712v-8.406h-15.712z"/><path d="m0 279.532v89.358h13.95v-80.794h12.912s9.382 0 12.593 4.195c2.73 3.564 3.228 10.029 3.228 14.394 0 4.672-.295 11.892-1.863 14.535-2.379 4.039-6.285 4.848-9.857 4.848h-8.523v7.931h12.257s11.059.461 15.815-4.373c5.832-5.927 7.314-13.896 7.314-24.563 0-9.693-3.517-19.471-10.705-22.792-5.951-2.737-16.679-2.737-16.679-2.737l-30.442-.002z"/><path d="m559.422 309.997 13.677-.577c3.577 0 7.79.966 9.833 3.556 1.902 2.44 3.102 5.349 3.102 10.034v45.804h13.966v-46.957c0-8.881-2.737-14.044-6.838-17.287-5.849-4.639-16.327-4.195-16.327-4.195l-31.245.561v67.878h13.832z"/><path d="m135.669 323.01c0-4.685-1.192-7.594-3.112-10.034-2.043-2.59-6.236-3.558-9.825-3.558l-18.396.579v-9.061l22.139-.561s10.479-.446 16.335 4.195c4.086 3.245 6.8 8.406 6.8 17.287v46.302l-26.73.576s-12.1.043-18.2-2.424c-5.941-2.418-9.184-9.053-9.184-18.262 0-8.889 2.721-14.052 6.807-17.295 5.855-4.647 16.327-4.188 16.327-4.188h8.539v7.892h-4.789c-3.585 0-7.272.663-9.325 3.251-1.91 2.417-2.932 4.516-2.932 9.202 0 6.152 1.192 8.895 4.085 10.986 2.559 1.863 7.136 2.268 12.244 2.268l9.217-.561z"/><path d="m370.862 323.01c0-4.685-1.167-7.594-3.087-10.034-2.066-2.59-6.262-3.558-9.823-3.558l-18.388.579v-9.061l22.122-.561s10.472-.446 16.321 4.195c4.086 3.245 6.815 8.406 6.815 17.287v46.302l-26.732.576s-12.116.043-18.2-2.424c-5.948-2.418-9.199-9.053-9.199-18.262 0-8.889 2.744-14.052 6.807-17.295 5.849-4.647 16.343-4.188 16.343-4.188h8.531v7.892h-4.796c-3.563 0-7.274.663-9.301 3.251-1.92 2.417-2.948 4.516-2.948 9.202 0 6.152 1.2 8.895 4.086 10.986 2.549 1.863 7.151 2.268 12.257 2.268l9.194-.561z"/><path d="m500.832 299.79c9.489 0 16.852 2.121 20.804 5.318 3.992 3.206 8.895 9.966 8.895 29.528 0 19.565-4.903 26.317-8.895 29.531-3.954 3.196-11.315 5.333-20.804 5.333-9.514 0-16.843-2.137-20.827-5.333-3.984-3.214-8.865-9.966-8.865-29.531 0-19.562 4.881-26.324 8.865-29.528 3.984-3.197 11.313-5.318 20.827-5.318zm-9.559 13.137c-1.92 2.366-4.258 7.331-4.258 21.709 0 14.373 2.338 19.346 4.256 21.699 1.912 2.342 5.435 3.924 9.997 3.924 4.569 0 8.078-1.584 10.013-3.922 1.91-2.355 4.248-7.33 4.248-21.699 0-14.38-2.338-19.347-4.248-21.709-1.935-2.346-5.444-3.916-10.013-3.916-4.56 0-8.085 1.568-9.997 3.916z"/><path d="m442.819 279.53h13.942v12.439h-13.942z"/><path d="m258.469.309v236.854l53.629 16.99v-198.598c0-9.359 4.173-15.573 10.865-13.435 8.749 2.426 10.45 11.047 10.45 20.301v79.316c33.381 16.157 59.664-.009 59.664-42.639 0-43.561-15.409-62.968-60.749-78.572-17.881-5.952-51.024-16-73.858-20.217" fill-rule="nonzero"/><path d="m322.298 219.527 86.133-30.658c9.744-3.611 11.234-8.518 3.347-11.097-8.008-2.626-22.307-1.875-32.152 1.662l-57.328 20.222v-32.267l3.283-1.084s16.594-5.879 39.933-8.41c23.294-2.553 51.862.333 74.315 8.796 25.293 8.035 28.127 19.754 21.728 27.91-6.492 8.073-22.232 13.912-22.232 13.912l-117.027 42.038z"/><path d="m160.207 216.264c-25.934-7.224-30.258-22.489-18.427-31.307 10.912-8.053 29.496-14.114 29.496-14.114l76.824-27.391v31.175l-55.233 19.797c-9.783 3.5-11.25 8.425-3.369 11 8.02 2.681 22.254 1.961 32.043-1.652l26.559-9.575v27.831c-1.712.287-3.616.577-5.353.873-26.478 4.395-54.688 2.59-82.54-6.636z"/></g></svg>