<svg clip-rule="evenodd" fill-rule="evenodd" stroke-linejoin="round" stroke-miterlimit="2" viewBox="0 0 600 260" xmlns="http://www.w3.org/2000/svg"><path d="m256.164 207.216h-18.289c-.645 0-1.108-.727-1.108-1.421 0-.247 9.733-31.623 9.733-31.623.347-1.174.38-1.208.512-1.208h.016c.148 0 .166.034.511 1.208 0 0 9.733 31.376 9.733 31.623 0 .694-.496 1.421-1.106 1.421m24.667-71.79c-.185-.634-.746-1.089-1.405-1.14h-67.164c-.653.052-1.211.498-1.405 1.123-.194.626-37.126 122.564-37.126 122.797 0 .61.479 1.106 1.107 1.106h44.396c.357-.149.617-.465.695-.843l5.171-16.522c.162-.417.56-.698 1.008-.711l40.96-.032c.445.033.843.347 1.008.743l5.287 16.522c.082.381.347.727.694.859l43.685-.016c.611 0 1.124-.463 1.124-1.074 0-.215-38.035-122.812-38.035-122.812m126.563 50.041-27.279.017s-.726-.215-.726-1.041l-.017-13.763c0-.827.727-1.041.727-1.041h25.015c2.908 0 8.79 1.454 8.79 8.178 0 6.725-6.51 7.65-6.51 7.65m130.793-10.656h61.811v-40.53h-79.475c-7.433 0-17.893 3.833-23.89 8.277-5.998 4.445-14.672 14.573-14.672 28.535 0 13.961 8.476 24.817 8.476 24.817 4.345 5.386 15.283 16.606 15.283 16.606.248.264.397.61.397 1.008 0 .841-.677 1.519-1.52 1.519h-61.217c-7.451-.033-7.964-2.99-7.964-3.42 0-.76.926-1.239.926-1.239 2.792-1.339 8.491-5.784 8.491-5.784 12.096-9.417 13.551-22.337 13.551-29.26 0-6.941-1.042-19.217-13.45-29.972-12.408-10.757-28.122-11.054-28.122-11.054h-87.356v124.283c0 .396.364.71.761.71h48.626v-34.863c0-.61.941 0 .941 0l25.33 25.446c9.005 9.103 23.892 9.417 23.892 9.417l95.764-.017c16.342 0 25.429-8.888 27.923-11.367 2.479-2.495 10.757-11.796 10.757-27.212 0-15.399-7.038-23.28-10.046-26.898-2.676-3.239-13.35-14.541-15.581-16.888-.272-.222-.43-.556-.43-.908 0-.546.314-1.057.794-1.207m-386.648 84.494c.33 0 .562-.231.661-.595 0 0 37.622-123.572 37.622-123.689 0-.33-.199-.692-.513-.726h-46.379c-.231 0-.38.182-.429.43 0 .017-9.6 32.136-9.6 32.152-.067.265-.199.43-.43.43s-.43-.231-.463-.43l-10.045-32.168c-.033-.216-.198-.414-.429-.414l-51.22-.016c-.151.041-.274.152-.331.297l-9.005 32.285c-.049.281-.198.446-.446.446-.216-.004-.399-.166-.43-.38l-9.55-32.251c-.024-.202-.18-.365-.38-.397h-49.435c-.403.006-.73.34-.728.742 0 .066.017.199.017.199l38.184 123.49c.099.364.33.595.661.595l41.059.017c.247-.033.496-.314.561-.612.016 0 14.292-45.949 14.292-45.949.082-.281.198-.445.429-.445.248 0 .382.197.447.428l13.928 46.165c.083.238.31.398.562.396zm-35.718-259.299c-7.452 0-17.893 3.833-23.891 8.278-6 4.444-14.672 14.573-14.672 28.534 0 13.962 8.475 24.818 8.475 24.818 4.346 5.386 15.284 16.687 15.284 16.687.248.264.396.611.396.991 0 .843-.677 1.537-1.519 1.537h-99.896v44.181h120.07c16.324 0 25.427-8.889 27.923-11.383 2.479-2.479 10.74-11.781 10.74-27.197 0-15.399-7.022-23.363-10.03-26.981-2.677-3.239-13.35-14.474-15.581-16.804-.27-.231-.427-.569-.429-.925 0-.546.314-1.041.793-1.207h57.829v84.497h44.462v-84.282h53.98v-40.744h-173.934zm387.797 51.188-27.278.017s-.728-.215-.728-1.041l-.016-13.763c0-.827.727-1.042.727-1.042h25.016c2.907 0 8.789 1.455 8.789 8.179 0 6.725-6.509 7.65-6.509 7.65m35.986 29.576c-7.436-.033-7.964-2.99-7.964-3.42 0-.76.924-1.239.924-1.239 2.793-1.339 8.493-5.784 8.493-5.784 12.096-9.417 13.55-22.337 13.55-29.26 0-6.941-1.043-19.217-13.449-29.972-12.41-10.757-28.123-11.088-28.123-11.088h-87.356v124.316c0 .397.365.712.762.712h48.625v-34.848c0-.628.942 0 .942 0l25.33 25.428c9.003 9.103 23.89 9.417 23.89 9.417h74.765v-44.26h-60.389zm-184.848-7.838h-18.291c-.678 0-1.106-.728-1.106-1.422 0-.264 9.731-31.623 9.731-31.623.347-1.173.445-1.208.512-1.208h.017c.066 0 .165.035.512 1.208 0 0 9.731 31.36 9.731 31.623 0 .694-.445 1.422-1.106 1.422m24.618-71.824c-.179-.632-.748-1.081-1.405-1.107h-67.163c-.661.033-1.223.479-1.405 1.091 0 0-37.093 122.597-37.093 122.828 0 .612.496 1.107 1.106 1.107h44.397c.364-.114.627-.462.71-.843l5.172-16.538c.17-.409.566-.681 1.008-.694h40.943c.445.03.84.304 1.024.711l5.288 16.521c.082.382.346.728.693.86l43.686-.017c.008 0 .016.001.024.001.594 0 1.083-.489 1.083-1.084 0-.002 0-.005 0-.007 0-.199-38.068-122.829-38.068-122.829" fill="#fff" fill-rule="nonzero"/></svg>