<?xml version="1.0" encoding="UTF-8" standalone="no"?><!DOCTYPE svg PUBLIC "-//W3C//DTD SVG 1.1//EN" "http://www.w3.org/Graphics/SVG/1.1/DTD/svg11.dtd"><svg width="100%" height="100%" viewBox="0 0 600 264" version="1.1" xmlns="http://www.w3.org/2000/svg" xmlns:xlink="http://www.w3.org/1999/xlink" xml:space="preserve" xmlns:serif="http://www.serif.com/" style="fill-rule:evenodd;clip-rule:evenodd;stroke-linejoin:round;stroke-miterlimit:2;"><g id="playstation_ps2_tall"><g><path d="M594.811,263.189l-174.859,0l-0,-50.853c-0,-0 -0.571,-19.636 23.714,-19.636l101.932,-0c4.498,0.037 8.955,-0.87 13.081,-2.661c6.402,-2.855 13.6,-8.666 13.6,-20.391c0,-10.521 -5.097,-16.496 -10.144,-19.84c-4.178,-2.698 -9.055,-4.116 -14.029,-4.078l-128.154,0l-0,-14.273l144.365,-0c-0,-0 35.683,1.448 35.683,38.12c-0,18.647 -10.889,27.884 -20.686,32.411c-6.331,2.908 -13.22,4.4 -20.187,4.373l-100.913,0c-1.894,-0.025 -3.764,0.42 -5.444,1.295c-2.427,1.315 -5.098,3.925 -5.098,9.064l0,32.39l147.139,-0l-0,14.079Z" style="fill:#fff;"/><path d="M183.84,248.865l0,14.273l79.625,0c9.515,0.101 18.752,-3.242 25.998,-9.41c7.566,-6.421 11.835,-15.933 11.602,-25.855l-0,-60.672c-0.083,-6.717 2.927,-13.113 8.156,-17.331c3.665,-2.869 8.203,-4.399 12.856,-4.333l69.42,-0l-0,-14.08l-82.673,-0c-0,-0 -35.684,0.571 -35.684,38.314l0,56.654c0.063,4.64 -1.188,9.204 -3.609,13.163c-3.562,5.953 -10.091,9.523 -17.026,9.308l-68.665,-0.031Z" style="fill:#fff;"/><path d="M-0,131.457l-0,14.08l141.918,-0c3.947,-0.034 7.853,0.805 11.439,2.457c5.627,2.64 11.948,8.074 11.948,19.095c0,10.705 -6.321,16.058 -11.948,18.709c-3.645,1.672 -7.613,2.522 -11.623,2.487l-105.255,0c-6.231,-0.058 -12.389,1.338 -17.985,4.078c-8.758,4.394 -18.494,14.743 -18.494,31.809l-0,38.742l27.313,0l0,-38.568c-0.018,-2.509 0.435,-4.999 1.336,-7.341c2.253,-5.781 7.952,-15.058 21.277,-15.058l106.132,-0c3.57,0.019 7.124,-0.458 10.563,-1.417c9.746,-2.773 25.997,-10.787 25.997,-33.441c0,-35.204 -35.041,-35.632 -35.041,-35.632l-157.577,-0Z" style="fill:#fff;"/></g><g><path d="M164.362,20.709l24.199,63.42l-13.893,34.024l10.979,0l40.005,-97.444l-12.257,0l-17.428,47.494l-16.213,-47.494l-15.392,0Z" style="fill:#fff;"/><path d="M235.612,85.171l-0,-8.008c-0,0 13.987,0.549 16.9,0.549c6.455,-0 9.678,-1.375 12.104,-3.978c1.433,-1.561 2.727,-8.473 2.727,-10.936c-0,-2.454 -0.473,-7.761 -1.433,-9.935c-0.992,-2.13 -3.246,-4.119 -6.625,-4.406c-2.409,-0.208 -6.135,-0.695 -10.491,-0.895c-6.107,-0.289 -10.144,-3.476 -12.089,-5.767c-1.928,-2.293 -4.51,-5.746 -4.51,-16.311c0,-10.578 2.736,-16.508 5.48,-19.259c2.743,-2.765 6.756,-3.977 9.84,-4.524c3.548,-0.606 9.344,-0.643 9.344,-0.643l18.514,0.539l-0,8.007c-0,0 -13.5,-0.539 -16.405,-0.539c-6.456,-0 -8.393,1.383 -10.81,3.978c-1.427,1.544 -2.543,5.818 -2.543,8.267c0,2.459 0.288,7.429 1.257,9.579c0.96,2.131 3.223,4.126 6.61,4.43c2.402,0.185 6.135,0.673 10.484,0.871c6.135,0.289 10.165,3.468 12.087,5.768c1.946,2.299 4.532,7.142 4.532,17.698c-0,10.58 -2.758,18.137 -5.487,20.896c-2.749,2.748 -6.756,3.977 -9.839,4.509c-3.557,0.612 -9.353,0.658 -9.353,0.658l-20.294,-0.548Z" style="fill:#fff;"/><rect x="80.772" y="0.948" width="13.225" height="84.727" style="fill:#fff;"/><path d="M307.779,9.063l-13.22,0l-0,62.202c-0,0 0.317,5.678 0.643,7.674c0.324,1.996 3.231,6.736 10.808,6.736l13.7,-0.267l-0,-7.978c-0,0 -3.711,0.267 -5.95,0.267c-2.271,0 -5.021,-0.148 -5.487,-3.985c-0.496,-3.83 -0.496,-8.406 -0.496,-8.406l-0,-36.627l14.936,0l-0,-7.97l-14.936,0l-0,-11.644l0.002,-0.002Z" style="fill:#fff;"/><rect x="435.417" y="20.713" width="13.22" height="64.962" style="fill:#fff;"/><path d="M409.08,9.063l-13.225,0l-0,62.202c-0,0 0.311,5.678 0.63,7.674c0.332,1.996 3.214,6.736 10.823,6.736l13.698,-0.267l-0,-7.978c-0,0 -3.719,0.267 -5.965,0.267c-2.247,0 -5.005,-0.148 -5.487,-3.985c-0.472,-3.83 -0.472,-8.406 -0.472,-8.406l-0,-36.627l14.897,0l-0,-7.97l-14.897,0l-0.002,-11.646Z" style="fill:#fff;"/><path d="M15.548,0.946l0,84.727l13.227,0l0,-76.606l12.243,-0c0,-0 8.895,-0 11.941,3.978c2.587,3.379 3.06,9.508 3.06,13.647c0,4.43 -0.28,11.276 -1.766,13.782c-2.256,3.829 -5.96,4.597 -9.346,4.597l-8.082,-0l0,7.519l11.622,0c0,0 10.486,0.438 14.996,-4.146c5.529,-5.62 6.934,-13.175 6.934,-23.29c-0,-9.19 -3.335,-18.462 -10.15,-21.611c-5.643,-2.595 -15.815,-2.595 -15.815,-2.595l-28.864,-0.002Z" style="fill:#fff;"/><path d="M545.977,29.832l12.968,-0.546c3.392,-0 7.386,0.915 9.323,3.371c1.804,2.313 2.942,5.072 2.942,9.515l-0,43.429l13.242,-0l-0,-44.523c-0,-8.421 -2.595,-13.316 -6.484,-16.391c-5.546,-4.399 -15.481,-3.978 -15.481,-3.978l-29.626,0.532l0,64.36l13.116,-0l0,-55.769Z" style="fill:#fff;"/><path d="M144.186,42.172c0,-4.443 -1.131,-7.202 -2.951,-9.515c-1.937,-2.456 -5.913,-3.373 -9.316,-3.373l-17.442,0.548l0,-8.591l20.992,-0.532c-0,0 9.935,-0.423 15.488,3.978c3.874,3.077 6.447,7.97 6.447,16.391l-0,43.902l-25.344,0.547c0,-0 -11.474,0.04 -17.257,-2.299c-5.633,-2.293 -8.708,-8.584 -8.708,-17.316c0,-8.428 2.58,-13.323 6.454,-16.398c5.552,-4.406 15.481,-3.971 15.481,-3.971l8.097,0l-0,7.483l-4.541,0c-3.4,0 -6.896,0.628 -8.842,3.083c-1.811,2.291 -2.78,4.281 -2.78,8.724c-0,5.834 1.13,8.434 3.874,10.417c2.426,1.767 6.765,2.151 11.608,2.151l8.74,-0.532l0,-34.697Z" style="fill:#fff;"/><path d="M367.189,42.172c0,-4.443 -1.106,-7.202 -2.927,-9.515c-1.959,-2.456 -5.937,-3.373 -9.314,-3.373l-17.435,0.548l0,-8.591l20.975,-0.532c0,0 9.93,-0.423 15.476,3.978c3.874,3.077 6.461,7.97 6.461,16.391l0,43.902l-25.345,0.547c-0,-0 -11.489,0.04 -17.257,-2.299c-5.64,-2.293 -8.723,-8.584 -8.723,-17.316c0,-8.428 2.603,-13.323 6.454,-16.398c5.546,-4.406 15.496,-3.971 15.496,-3.971l8.089,0l0,7.483l-4.547,0c-3.379,0 -6.897,0.628 -8.819,3.083c-1.82,2.291 -2.795,4.281 -2.795,8.724c-0,5.834 1.138,8.434 3.874,10.417c2.417,1.767 6.78,2.151 11.622,2.151l8.717,-0.532l-0.002,-34.697Z" style="fill:#fff;"/><path d="M490.424,20.155c8.997,-0 15.978,2.011 19.725,5.042c3.785,3.039 8.434,9.449 8.434,27.998c0,18.55 -4.649,24.953 -8.434,28c-3.749,3.03 -10.728,5.056 -19.725,5.056c-9.022,0 -15.971,-2.026 -19.748,-5.056c-3.778,-3.047 -8.406,-9.45 -8.406,-28c-0,-18.549 4.628,-24.96 8.406,-27.998c3.777,-3.031 10.726,-5.042 19.748,-5.042Zm-9.064,12.456c-1.82,2.243 -4.037,6.951 -4.037,20.584c-0,13.627 2.217,18.343 4.035,20.574c1.813,2.221 5.153,3.721 9.479,3.721c4.332,-0 7.659,-1.502 9.494,-3.719c1.811,-2.233 4.028,-6.951 4.028,-20.574c-0,-13.635 -2.217,-18.345 -4.028,-20.584c-1.835,-2.225 -5.162,-3.713 -9.494,-3.713c-4.324,0 -7.666,1.487 -9.479,3.713l0.002,-0.002Z" style="fill:#fff;"/><rect x="435.417" y="0.944" width="13.22" height="11.794" style="fill:#fff;"/></g></g></svg>