<svg clip-rule="evenodd" fill-rule="evenodd" stroke-linejoin="round" stroke-miterlimit="2" viewBox="0 0 600 146" xmlns="http://www.w3.org/2000/svg"><g fill="#fff" fill-rule="nonzero"><path d="m217.223 80.803 29.023 42.698v-42.698h12.439v64.311h-12.791l-29.068-42.609v42.609h-12.439v-64.311z"/><path d="m269.183 91.566c-.024-5.863 4.767-10.714 10.63-10.763h32.244c5.863.049 10.655 4.9 10.63 10.763v42.874.044c0 5.832-4.798 10.63-10.63 10.63h-32.244c-5.831 0-10.63-4.798-10.63-10.63 0-.015 0-.029 0-.044zm37.89 42.124c1.742 0 3.175-1.434 3.175-3.176v-34.978c.025-1.775-1.401-3.261-3.175-3.308h-22.055c-1.774.047-3.2 1.533-3.176 3.308v34.978c0 1.742 1.434 3.176 3.176 3.176z"/><path d="m368.384 80.803h10.542l13.233 43.801 11.777-43.801h12.791l-19.408 64.311h-10.894l-13.233-41.418-12.306 41.418h-10.939l-20.599-64.311h13.894l12.527 43.801z"/><path d="m204.387 50.986v-39.522c0-5.88 4.839-10.718 10.719-10.718h.044 40.8v11.556h-35.287c-1.773.022-3.238 1.448-3.308 3.22v30.171c.007.841.339 1.647.926 2.249l4.411 4.411c.623.638 1.492.976 2.382.926h17.247c.015.001.029.001.044.001 1.742 0 3.176-1.434 3.176-3.176 0-.015 0-.03 0-.044v-11.425h-15.394v-11.6h27.877v27.303c-.024 5.864-4.855 10.676-10.719 10.676-.059 0-.118-.001-.176-.002h-28.671c-.872.021-1.717-.313-2.338-.926l-10.763-10.807c-.609-.608-.958-1.432-.97-2.293z"/><path d="m281.622 12.126v15.085h26.112v11.424h-26.112v14.953h32.508v11.424h-44.947v-64.266h45.035v11.38z"/><path d="m336.052 65.012h-12.571v-64.266h45.079v11.38h-32.508v15.085h26.069v11.424h-26.069z"/><path d="m377.47 11.464c0-5.88 4.839-10.719 10.719-10.719.029 0 .059 0 .088.001h32.244c5.846.048 10.63 4.871 10.63 10.718v42.874.044c0 5.832-4.799 10.63-10.63 10.63h-32.244c-5.832 0-10.63-4.798-10.63-10.63 0-.015 0-.029 0-.044zm37.89 42.124c1.742 0 3.176-1.433 3.176-3.176v-34.978c.025-1.774-1.402-3.26-3.176-3.308h-22.054c-1.774.048-3.201 1.534-3.176 3.308v34.978c0 1.743 1.433 3.176 3.176 3.176z"/><path d="m495.197 65.012h-13.497l-15.835-26.2h-11.777v26.2h-12.439v-64.266h38.551c5.88 0 10.719 4.838 10.719 10.718v16.585.044c0 5.88-4.839 10.719-10.719 10.719h-.75zm-41.109-37.624h20.907.044c1.743 0 3.176-1.434 3.176-3.176v-8.822c0-.015.001-.03.001-.045 0-1.774-1.447-3.239-3.221-3.263h-20.907z"/><path d="m544.732 12.126h-27.26c-1.75.024-3.176 1.47-3.176 3.22v35.287c0 1.742 1.434 3.176 3.176 3.176h27.26v11.424h-32.156c-5.863 0-10.694-4.811-10.718-10.674v-43.095c0-5.88 4.838-10.718 10.718-10.718h32.156z"/><path d="m567.536 12.126v15.085h26.112v11.424h-26.112v14.953h32.464v11.424h-44.991v-64.266h44.991v11.38z"/><path d="m165.838 116.585 5.974 16.342h-12.133zm-6.398-6.363-13.766 34.879h9.721l2.177-6.163h16.291l2.061 6.163h10.553l-13.869-34.883zm-27.637 34.892h9.862v-34.903l-9.864-.002zm-68.466-34.905-8.228 27.663-7.882-27.661-10.642-.002 11.258 34.905h14.208l11.348-34.905zm39.865 7.601h4.239c6.149 0 10.127 2.76 10.127 9.925 0 7.166-3.978 9.927-10.127 9.927h-4.239zm-9.78-7.601v34.905h15.988c8.519 0 11.301-1.416 14.309-4.592 2.124-2.23 3.498-7.126 3.498-12.476 0-4.908-1.162-9.283-3.19-12.009-3.652-4.874-8.915-5.828-16.769-5.828zm-93.422-.048v34.953h9.946v-26.54l7.706.002c2.552 0 4.371.637 5.599 1.949 1.559 1.66 2.195 4.339 2.195 9.241v15.348h9.638v-19.312c0-13.783-8.785-15.641-17.381-15.641h-17.703zm77.55.048.004 34.905h9.857v-34.905z"/><path d="m26.505 40.71s12.684-18.715 38.011-20.651v-6.79c-28.052 2.253-52.345 26.012-52.345 26.012s13.759 39.774 52.345 43.416v-7.217c-28.316-3.562-38.011-34.77-38.011-34.77zm38.011 20.417v6.61c-21.401-3.816-27.341-26.062-27.341-26.062s10.275-11.383 27.341-13.229v7.253c-.013 0-.022-.004-.033-.004-8.957-1.075-15.954 7.293-15.954 7.293s3.922 14.085 15.987 18.139m0-60.382v12.524c.824-.063 1.647-.117 2.475-.145 31.893-1.075 52.673 26.157 52.673 26.157s-23.867 29.021-48.732 29.021c-2.279 0-4.412-.211-6.416-.566v7.744c1.772.228 3.557.343 5.344.345 23.139 0 39.872-11.817 56.075-25.803 2.686 2.151 13.684 7.386 15.945 9.676-15.406 12.899-51.31 23.296-71.665 23.296-1.962 0-3.847-.119-5.699-.297v10.882h87.949v-92.834h-87.949zm0 27.701v-8.387c.815-.057 1.636-.101 2.475-.127 22.934-.721 37.981 19.708 37.981 19.708s-16.252 22.57-33.677 22.57c-2.507 0-4.756-.403-6.779-1.083v-25.429c8.928 1.079 10.725 5.023 16.093 13.971l11.938-10.066s-8.714-11.43-23.405-11.43c-1.597 0-3.125.112-4.626.273"/></g></svg>