<svg clip-rule="evenodd" fill-rule="evenodd" stroke-linejoin="round" stroke-miterlimit="2" viewBox="0 0 600 599" xmlns="http://www.w3.org/2000/svg"><g fill="#fff"><path d="m170.587 505.26 23.088 60.51-13.255 32.463h10.475l38.169-92.973h-11.695l-16.627 45.315-15.469-45.315z"/><path d="m238.566 566.764v-7.64s13.346.523 16.126.523c6.158 0 9.233-1.312 11.548-3.795 1.367-1.489 2.602-8.084 2.602-10.434 0-2.342-.451-7.405-1.368-9.479-.946-2.032-3.096-3.93-6.32-4.204-2.299-.198-5.854-.663-10.01-.854-5.827-.276-9.679-3.316-11.534-5.502-1.839-2.188-4.303-5.482-4.303-15.563 0-10.093 2.61-15.75 5.228-18.375 2.617-2.638 6.446-3.795 9.389-4.317 3.385-.578 8.915-.613 8.915-.613l17.664.514v7.64s-12.88-.514-15.652-.514c-6.159 0-8.007 1.319-10.313 3.795-1.362 1.473-2.427 5.551-2.427 7.887 0 2.347.274 7.089 1.199 9.14.916 2.034 3.076 3.937 6.307 4.227 2.292.177 5.853.642 10.002.831 5.854.276 9.699 3.309 11.533 5.504 1.857 2.193 4.324 6.814 4.324 16.885 0 10.095-2.632 17.305-5.235 19.937-2.623 2.622-6.446 3.795-9.387 4.302-3.394.584-8.924.628-8.924.628z"/><path d="m90.832 486.406h12.618v80.838h-12.618z"/><path d="m307.422 494.149h-12.613v59.347s.302 5.417.613 7.322c.31 1.905 3.083 6.427 10.312 6.427l13.071-.255v-7.611s-3.54.254-5.676.254c-2.167 0-4.791-.141-5.235-3.802-.474-3.654-.474-8.02-.474-8.02v-34.946h14.25v-7.605h-14.25v-11.109z"/><path d="m429.203 505.264h12.613v61.981h-12.613z"/><path d="m404.074 494.149h-12.618v59.347s.297 5.417.601 7.322c.317 1.905 3.067 6.427 10.326 6.427l13.07-.255v-7.611s-3.548.254-5.691.254c-2.144 0-4.775-.141-5.235-3.802-.451-3.654-.451-8.02-.451-8.02v-34.946h14.213v-7.605h-14.213z"/><path d="m28.602 486.405v80.838h12.62v-73.091h11.681s8.487 0 11.393 3.796c2.469 3.224 2.92 9.072 2.92 13.021 0 4.227-.267 10.758-1.686 13.149-2.152 3.654-5.685 4.386-8.916 4.386h-7.711v7.175h11.088s10.005.417 14.308-3.956c5.275-5.362 6.616-12.571 6.616-22.222 0-8.768-3.182-17.614-9.685-20.619-5.383-2.476-15.089-2.476-15.089-2.476z"/><path d="m534.689 513.965 12.372-.522c3.237 0 7.048.874 8.896 3.217 1.721 2.207 2.807 4.839 2.807 9.078v41.436h12.634v-42.479c0-8.035-2.476-12.705-6.186-15.639-5.292-4.197-14.771-3.796-14.771-3.796l-28.266.508v61.406h12.514z"/><path d="m151.337 525.738c0-4.239-1.079-6.871-2.816-9.078-1.848-2.343-5.641-3.218-8.888-3.218l-16.642.523v-8.197l20.028-.508s9.48-.403 14.778 3.796c3.696 2.935 6.151 7.604 6.151 15.639v41.887l-24.181.521s-10.947.039-16.465-2.193c-5.374-2.187-8.308-8.19-8.308-16.521 0-8.041 2.462-12.712 6.158-15.646 5.296-4.204 14.77-3.788 14.77-3.788h7.725v7.139h-4.333c-3.243 0-6.579.6-8.435 2.941-1.728 2.186-2.653 4.086-2.653 8.325 0 5.565 1.079 8.046 3.696 9.939 2.315 1.685 6.455 2.051 11.076 2.051l8.339-.507z"/><path d="m364.106 525.738c0-4.239-1.056-6.871-2.793-9.078-1.869-2.343-5.664-3.218-8.886-3.218l-16.635.523v-8.197l20.012-.508s9.474-.403 14.766 3.796c3.696 2.935 6.165 7.604 6.165 15.639v41.887l-24.183.521s-10.961.039-16.465-2.193c-5.381-2.187-8.322-8.19-8.322-16.521 0-8.041 2.483-12.712 6.158-15.646 5.291-4.204 14.784-3.788 14.784-3.788h7.718v7.139h-4.338c-3.224 0-6.581.6-8.415 2.941-1.736 2.186-2.667 4.086-2.667 8.325 0 5.565 1.086 8.046 3.697 9.939 2.306 1.685 6.469 2.051 11.088 2.051l8.318-.507z"/><path d="m481.685 504.732c8.584 0 15.244 1.918 18.82 4.81 3.612 2.9 8.047 9.016 8.047 26.713 0 17.7-4.435 23.808-8.047 26.715-3.577 2.892-10.236 4.825-18.82 4.825-8.607 0-15.238-1.933-18.842-4.825-3.604-2.907-8.02-9.015-8.02-26.715 0-17.697 4.416-23.814 8.02-26.713 3.604-2.892 10.235-4.81 18.842-4.81zm-8.648 11.884c-1.737 2.14-3.852 6.632-3.852 19.639 0 13.002 2.115 17.501 3.85 19.631 1.73 2.118 4.917 3.549 9.044 3.549 4.133 0 7.308-1.432 9.059-3.547 1.727-2.132 3.843-6.632 3.843-19.631 0-13.009-2.116-17.503-3.843-19.639-1.751-2.122-4.926-3.543-9.059-3.543-4.126 0-7.314 1.419-9.044 3.543z"/><path d="m429.203 486.403h12.613v11.253h-12.613z"/><path d="m224.246.429v432.026l97.821 30.991v-362.247c0-17.071 7.612-28.405 19.818-24.505 15.959 4.426 19.06 20.15 19.06 37.03v144.673c60.889 29.47 108.828-.017 108.828-77.775 0-79.456-28.105-114.853-110.807-143.315-32.615-10.857-93.068-29.184-134.717-36.878" fill-rule="nonzero"/><path d="m340.672 400.287 157.108-55.921c17.774-6.587 20.491-15.537 6.104-20.24-14.607-4.791-40.687-3.421-58.646 3.03l-104.566 36.886v-58.857l5.987-1.975s30.269-10.724 72.839-15.34c42.489-4.658 94.598.607 135.552 16.043 46.135 14.656 51.304 36.032 39.632 50.909-11.841 14.724-40.551 25.375-40.551 25.375l-213.459 76.678z"/><path d="m45.015 394.335c-47.304-13.176-55.19-41.02-33.609-57.104 19.902-14.689 53.8-25.745 53.8-25.745l140.127-49.961v56.864l-100.745 36.109c-17.844 6.385-20.52 15.367-6.145 20.066 14.629 4.889 40.592 3.575 58.447-3.015l48.443-17.465v50.765c-3.123.523-6.595 1.052-9.764 1.591-48.296 8.018-99.75 4.726-150.554-12.102v-.003z"/></g></svg>