<svg clip-rule="evenodd" fill-rule="evenodd" stroke-linejoin="round" stroke-miterlimit="2" viewBox="0 0 600 105" xmlns="http://www.w3.org/2000/svg"><g fill="#fff"><path d="m373.222 88.455c-6.006-.325-8.517-4.897-9.653-6.844-1.137-1.948-34.826-65.484-34.826-65.484h16.76l27.9 51.794c1.455 2.922 4.762 3.642 6.548.233 1.461-2.759 27.756-52.027 27.756-52.027h10.47s-32.628 61.767-33.927 63.877-5.022 8.776-11.028 8.451z"/><path d="m222.09 56.109h-34.506c-4.73 0-8.225 3.599-8.225 9.767v22.412h-14.897v-21.589c0-12.132 7.609-20.306 18.403-20.306h34.906c8.56-.325 10.602-4.574 10.602-10.743 0-4.729-2.366-11.185-10.602-10.536h-53.309v-8.894h57.628c15.113 0 21.076 8.738 21.076 19.431 0 12.131-5.963 20.458-21.076 20.458z"/><path d="m427.755 16.368h15.253v71.864h-15.253z"/><path d="m285.389 35.753v32.899c0 12.029-5.416 19.535-20.426 19.535h-32.245v-8.895h28.133c5.757 0 9.197-4.677 9.197-10.639v-32.9c0-10.487 5.093-19.534 20.001-19.534h32.023v8.896h-27.705c-7.484-.324-8.978 5.806-8.978 10.638z"/><path d="m496.187 24.714.054 63.109h-15.001v-63.041l-28.476-.045v-8.765l72.061-.048-.033 8.867z"/><path d="m574.976 73.238-46.128-.016-7.963 15.246h-10.489s32.69-61.887 33.991-64c1.302-2.115 5.031-8.793 11.049-8.468 6.017.325 8.533 4.905 9.672 6.857 1.138 1.952 34.892 65.611 34.892 65.611h-16.792zm-19.722-36.664c-1.458-2.928-4.77-3.649-6.56-.234-.746 1.41-14.848 27.903-14.848 27.903l36.366.004z"/><path d="m79.912 8.635c18.427 6.361 24.672 14.279 24.672 32.122 0 17.385-10.677 23.977-24.238 17.395v-32.421c0-3.8-.694-7.301-4.244-8.295-2.72-.878-4.407 1.664-4.407 5.464v81.137l-21.759-6.944v-96.738c9.254 1.726 22.733 5.787 29.976 8.261z"/><path d="m75.818 89.927 34.996-12.49c3.974-1.447 4.582-3.443 1.355-4.5-3.226-1.056-9.056-.757-13.02.676l-23.322 8.227v-13.113l1.351-.458c5.269-1.704 10.701-2.857 16.208-3.438 9.476-1.047 21.079.145 30.184 3.597 10.266 3.251 11.424 8.039 8.815 11.338s-9.004 5.647-9.004 5.647l-47.554 17.115z"/><path d="m10.021 88.606c-10.509-3.005-12.293-9.206-7.49-12.78 4.442-3.313 11.994-5.787 11.994-5.787l31.186-11.14v12.693l-22.443 8.068c-3.969 1.447-4.577 3.453-1.351 4.509 3.227 1.056 9.057.757 13.021-.67l10.764-3.926v11.357c-.68.125-1.447.246-2.146.362-11.231 1.831-22.74.909-33.535-2.686z"/></g></svg>