<svg clip-rule="evenodd" fill-rule="evenodd" stroke-linejoin="round" stroke-miterlimit="2" viewBox="0 0 600 368" xmlns="http://www.w3.org/2000/svg"><g fill="#fff"><path d="m259.592.928v230.45l52.179 16.531v-193.228c0-9.106 4.06-15.152 10.571-13.072 8.513 2.361 10.167 10.749 10.167 19.753v77.171c32.479 15.72 58.051-.009 58.051-41.487 0-42.383-14.992-61.264-59.106-76.447-17.398-5.791-49.645-15.567-71.861-19.671" fill-rule="nonzero"/><path d="m321.695 214.219 83.804-29.829c9.481-3.513 10.93-8.287 3.256-10.796-7.791-2.556-21.703-1.825-31.283 1.616l-55.777 19.675v-31.394l3.194-1.054s16.146-5.72 38.854-8.183c22.664-2.484 50.459.324 72.305 8.558 24.609 7.818 27.367 19.22 21.141 27.156-6.317 7.854-21.631 13.535-21.631 13.535l-113.863 40.902z"/><path d="m163.987 211.044c-25.233-7.028-29.44-21.88-17.928-30.46 10.616-7.835 28.698-13.732 28.698-13.732l74.746-26.651v30.333l-53.739 19.261c-9.519 3.406-10.946 8.197-3.278 10.703 7.803 2.608 21.652 1.907 31.177-1.608l25.84-9.316v27.079c-1.666.279-3.518.561-5.208.849-25.762 4.276-53.209 2.52-80.308-6.456z"/><path d="m596.594 253.895h-72.672v33.379s-.374 12.889 15.566 12.889h24.804c2.953-.025 5.878.57 8.586 1.746 4.202 1.874 8.927 5.688 8.927 13.384 0 6.906-3.346 10.827-6.659 13.022-2.742 1.772-5.943 2.702-9.207 2.677h-42.017v9.368h52.657s23.421-.95 23.421-25.02c0-12.24-7.147-18.303-13.578-21.274-4.155-1.908-8.677-2.888-13.25-2.871h-24.135c-1.243.017-2.471-.275-3.574-.849-1.592-.864-3.346-2.577-3.346-5.949v-21.26h54.477z"/><path d="m131.014 284.848-.145.218 18.632 54.559c.031.123.031.311-.009.432l-10.49 27.013c-.044.128.014.222.137.222h10.925c.141-.003.268-.09.321-.222l32.705-82.004c.047-.131-.011-.218-.139-.218h-11.92c-.136.005-.256.091-.305.218l-13.847 35.852h-.155l-12.225-35.852c-.028-.131-.168-.218-.293-.218z"/><path d="m375.25 284.848h-12.556c-.123.001-.225.101-.229.224v55.064l.229.224h12.556.003c.124 0 .227-.1.229-.224v-55.064c0-.001 0-.002 0-.003 0-.122-.1-.222-.222-.222-.003 0-.007 0-.01.001z"/><path d="m354.485 284.848h-13.558l-.092-.084v-9.135l-.207-.224h-12.584c-.124 0-.227.1-.231.224v48.103c0 9.636 5.996 16.628 14.26 16.628h8.992c.121 0 .221-.1.221-.221 0-.001 0-.002 0-.003v-7.505c0-.123-.087-.239-.221-.239h-5.52c-1.42-.021-4.71-.093-4.71-7.192v-32.384l.076-.073c4.144.021 13.574 0 13.574 0l.224-.206v-7.465c-.003-.121-.102-.22-.224-.224z"/><path d="m31.225 267.439-30.995-.013c-.122-.003-.226.095-.23.218v72.492c0 .116.102.224.23.224h12.562l.221-.224.014-64.623.075-.107 14.383-.028c5.237 0 8.114 5.277 8.114 14.842 0 9.569-2.877 14.858-8.114 14.858l-8.657-.009c-.129 0-.217.098-.217.222v7.521c0 .147.088.236.217.236h12.397c4.374 0 8.657-2.027 11.748-5.51 3.662-4.133 5.591-10.101 5.591-17.253 0-13.858-6.77-22.846-17.339-22.846z"/><path d="m69.108 267.426h-12.57c-.143 0-.245.101-.245.218v72.492c0 .117.102.224.245.224h12.57l.231-.224v-72.492z"/><path d="m266.788 284.848h-13.635l-.072-.084v-9.135c0-.122-.093-.224-.219-.224h-12.558c-.128 0-.239.102-.239.224v48.103c0 9.636 6.006 16.628 14.277 16.628h8.993c.129 0 .229-.108.229-.224v-7.505c0-.123-.1-.239-.229-.239h-5.521c-1.415-.021-4.732-.093-4.746-7.192v-32.384l.077-.073c4.177.021 13.643 0 13.643 0l.222-.206v-7.465c0-.122-.1-.223-.222-.224z"/><path d="m462.13 284.848h-22.411c-.122.001-.221.102-.221.224l-.007 55.064.21.224h12.58l.212-.224-.017-47.273.087-.091 9.556-.008c2.584 0 5.419.417 7.233 3.405 1.658 2.7 2.411 7.447 2.411 14.897.01.322-.01 29.07-.01 29.07 0 .116.1.224.223.224h12.526c.136 0 .236-.108.236-.224v-27.615c0-12.942-2.586-27.673-22.608-27.673z"/><path d="m123.927 285.071c0-.128-.113-.225-.237-.225h-22.384c-20.071 0-22.638 14.733-22.638 27.682l.016 11.198c0 9.636 5.993 16.634 14.232 16.634h12.213l.221-.224v-7.514c0-.122-.104-.231-.221-.231l-8.723.015c-2.01-.042-4.716-.892-4.716-7.801v-12.091c-.009-8.034.739-13.171 2.407-16.093 1.807-3.225 4.651-3.658 7.209-3.658h9.541l.081.114-.012 47.259c0 .114.097.224.231.224h12.546c.124 0 .235-.11.235-.224z"/><path d="m214.346 297.762-6.19-.472c-4.642-.4-8.094-2.97-8.094-10.576 0-8.881 3.983-11.311 9.3-11.311h17.132l.227-.221v-7.537l-.227-.217h-.358l-18.56.004c-11.693 0-20.008 6.867-20.008 20.554v.595c0 10.8 6.645 18.595 16.548 19.352l6.161.456c4.699.356 7.626 4.559 7.626 10.936v1.793c0 3.987-.997 11.282-9.547 11.282h-17.801c-.124.003-.224.107-.224.232v7.503l.224.225h22.1c6.81 0 18.212-2.755 18.212-21.29 0-6.715-1.525-12.008-4.617-15.833-2.635-3.285-6.54-5.062-11.904-5.475z"/><path d="m317.287 285.071c-.001-.123-.102-.224-.225-.225h-22.434c-20.028 0-22.621 14.733-22.621 27.682l.016 11.198c0 9.636 5.988 16.634 14.27 16.634h12.179l.227-.224v-7.514c-.003-.124-.103-.226-.227-.231l-8.728.015c-2.003-.042-4.684-.892-4.692-7.801v-12.091c0-8.034.756-13.171 2.385-16.093 1.809-3.225 4.671-3.658 7.187-3.658h9.584l.094.114-.023 47.259c0 .114.104.224.229.224h12.565c.123 0 .214-.11.214-.224z"/><path d="m407.507 284.848c-20.975 0-23.657 14.802-23.657 27.746 0 12.957 2.682 27.807 23.657 27.807 20.978 0 23.653-14.85 23.653-27.807 0-12.944-2.675-27.746-23.653-27.746zm7.962 43.898c-1.976 3.256-5.115 3.69-7.962 3.69-2.819 0-5.966-.434-7.964-3.689-1.802-2.93-2.636-8.062-2.636-16.154v-.064c0-9.551 1.175-14.977 3.804-17.562 1.573-1.568 3.611-2.204 6.796-2.204 3.232 0 5.25.636 6.822 2.204 2.604 2.585 3.782 8.034 3.782 17.626 0 8.103-.837 13.239-2.642 16.153z"/><path d="m375.25 267.426h-12.556l-.229.218v10.527c0 .128.112.222.229.222h12.556c.137 0 .232-.094.232-.222v-10.527c0-.117-.095-.218-.232-.218z"/></g></svg>