<svg clip-rule="evenodd" fill-rule="evenodd" stroke-linejoin="round" stroke-miterlimit="2" viewBox="0 0 600 101" xmlns="http://www.w3.org/2000/svg"><g fill="#fff"><path d="m287.588 100.082c-8.273-.447-11.732-6.745-13.297-9.427-1.566-2.684-47.977-90.212-47.977-90.212h23.089l38.435 71.352c2.005 4.026 6.56 5.017 9.021.321 2.012-3.801 38.237-71.673 38.237-71.673h14.423s-44.948 85.091-46.737 87.997c-1.791 2.908-6.919 12.09-15.194 11.642z"/><path d="m79.388 55.523h-47.536c-6.516 0-11.331 4.958-11.331 13.456v30.874h-20.521v-29.741c0-16.713 10.481-27.974 25.352-27.974h48.087c11.792-.448 14.604-6.301 14.604-14.8 0-6.515-3.259-15.409-14.604-14.513h-73.439v-12.254h79.388c20.819 0 29.034 12.037 29.034 26.768 0 16.713-8.215 28.184-29.034 28.184z"/><path d="m362.713.776h21.013v99h-21.013z"/><path d="m166.589 27.48v45.322c0 16.572-7.46 26.911-28.139 26.911h-44.421v-12.254h38.756c7.932 0 12.671-6.442 12.671-14.656v-45.323c0-14.446 7.016-26.91 27.553-26.91h44.116v12.255h-38.168c-10.309-.446-12.368 7.998-12.368 14.655z"/><path d="m456.987 12.273.073 86.939h-20.665v-86.846l-39.228-.061v-12.075l99.271-.066-.044 12.215-39.407-.106z"/><path d="m565.526 79.12-63.546-.022-10.969 21.003h-14.45s45.033-85.256 46.827-88.168c1.792-2.913 6.929-12.112 15.22-11.665 8.29.448 11.756 6.758 13.325 9.447 1.567 2.689 48.067 90.386 48.067 90.386h-23.132zm-27.169-50.509c-2.009-4.033-6.571-5.026-9.036-.322-1.028 1.942-20.455 38.44-20.455 38.44l50.098.004z"/></g></svg>