<svg clip-rule="evenodd" fill-rule="evenodd" stroke-linejoin="round" stroke-miterlimit="2" viewBox="0 0 600 235" xmlns="http://www.w3.org/2000/svg"><path d="m138.845 159.232c-2.383 4.544-5.025 9.183-7.926 13.917-4.247 6.931-8.958 13.796-14.131 20.594-5.174 6.797-10.72 12.997-16.64 18.599-5.919 5.602-12.123 10.302-18.611 14.101-6.488 3.798-13.171 6.164-20.048 7.097-7.259.985-14.26.768-21.003-.652-6.742-1.42-12.84-4.062-18.292-7.926-5.453-3.865-10.034-8.95-13.743-15.256s-6.151-13.789-7.326-22.449c-1.745-12.862-1.46-26.293.856-40.29s6.026-27.762 11.128-41.295c5.103-13.532 11.265-26.43 18.485-38.694 7.221-12.263 14.822-23.151 22.805-32.665 7.983-9.513 16.007-17.282 24.075-23.305 8.067-6.023 15.602-9.509 22.607-10.46 5.349-.725 10.406-.731 15.172-.016 4.767.716 8.987 2.186 12.661 4.411s6.715 5.282 9.123 9.17c2.408 3.889 3.993 8.635 4.753 14.238.674 4.967.495 10.341-.536 16.123-1.032 5.782-2.672 11.614-4.922 17.496-2.25 5.883-5.007 11.607-8.273 17.173-3.265 5.566-6.831 10.589-10.698 15.07-3.867 4.48-7.937 8.178-12.211 11.092-4.273 2.914-8.511 4.657-12.714 5.227-5.222.708-9.522.319-12.901-1.168-3.38-1.487-5.894-3.286-7.542-5.397s-2.443-4.143-2.383-6.096c.059-1.954.916-3.043 2.572-3.267.764-.104 1.253.154 1.467.773.213.62.436 1.303.667 2.05s.644 1.404 1.24 1.971c.596.568 1.785.731 3.568.489 4.84-.657 9.598-3.345 14.275-8.065s9.025-10.433 13.044-17.139 7.491-13.856 10.416-21.452c2.925-7.595 4.996-14.555 6.213-20.881s1.362-11.468.436-15.428-3.172-5.698-6.738-5.214c-5.859.795-12.452 4.056-19.781 9.785-7.329 5.728-14.679 13.21-22.051 22.446s-14.45 19.924-21.233 32.063-12.554 25.049-17.313 38.729c-4.758 13.681-8.193 27.797-10.304 42.351-2.111 14.553-2.207 28.898-.289 43.034.38 2.802 1.074 5.528 2.082 8.18 1.009 2.652 2.424 4.956 4.246 6.914s4.097 3.432 6.826 4.424c2.728.992 5.939 1.237 9.632.736 9.424-1.279 18.245-4.616 26.462-10.011 8.218-5.395 15.81-11.807 22.779-19.238 6.968-7.43 13.294-15.292 18.978-23.586 5.684-8.293 10.736-15.982 15.157-23.067 2.929-4.692 5.544-8.859 7.847-12.498.852-3.865 1.885-7.944 3.097-12.235 2.19-7.755 4.815-15.893 7.874-24.414 3.059-8.522 6.354-16.978 9.885-25.368 3.53-8.391 7.145-16.404 10.843-24.039s7.29-14.38 10.775-20.236c3.486-5.855 6.736-10.576 9.751-14.163 3.016-3.586 5.542-5.518 7.58-5.795 1.655-.224 2.265 1.639 1.828 5.589s-1.588 9.327-3.454 16.129c-1.865 6.803-4.238 14.648-7.118 23.534-2.879 8.886-5.939 18.12-9.178 27.703-3.239 9.584-6.47 19.231-9.692 28.941-3.222 9.711-6.052 18.72-8.492 27.027-2.44 8.308-4.368 15.605-5.784 21.893-1.417 6.288-1.935 10.833-1.555 13.635.501 3.693 2.598 5.289 6.292 4.788 2.547-.345 5.365-1.798 8.455-4.357s6.233-5.677 9.431-9.353c3.198-3.677 6.361-7.608 9.489-11.793 2.623-3.51 5.069-6.813 7.337-9.909 1.014-4.093 2.379-8.311 4.096-12.654 2.22-5.619 4.963-11.211 8.229-16.777 3.265-5.566 6.891-10.63 10.876-15.191 3.986-4.562 8.234-8.381 12.745-11.457s9.123-4.934 13.835-5.573c7.641-1.037 13.882-.684 18.723 1.058 4.84 1.743 8.442 3.913 10.805 6.511 2.363 2.597 3.545 5.096 3.546 7.495s-.953 3.728-2.864 3.988c-.764.103-1.474-.351-2.13-1.365-.656-1.013-1.453-2.105-2.39-3.275s-2.147-2.205-3.631-3.106c-1.485-.901-3.436-1.188-5.856-.859-5.222.708-10.246 3.108-15.073 7.2-4.828 4.092-9.22 9.001-13.177 14.725-3.957 5.725-7.413 11.804-10.366 18.235-2.954 6.432-5.263 12.355-6.928 17.769-1.665 5.413-2.586 9.851-2.765 13.312s.623 5.071 2.406 4.829c2.037-.276 4.403-1.959 7.097-5.048 2.693-3.089 5.523-6.845 8.49-11.269 2.967-4.423 6.041-9.25 9.222-14.48s6.351-10.07 9.508-14.519c3.158-4.449 6.179-8.231 9.064-11.346 2.884-3.116 5.6-4.846 8.147-5.191 1.401-.19 2.726.019 3.976.627 1.25.609 2.005 1.868 2.264 3.779.19 1.401-.356 4.069-1.638 8.004s-2.694 8.342-4.237 13.22c-1.543 4.879-2.886 9.795-4.03 14.749s-1.482 9.15-1.016 12.589c.519 3.82 2.625 5.48 6.318 4.979 2.547-.345 5.365-1.798 8.455-4.357s6.202-5.673 9.336-9.34c3.134-3.668 6.26-7.627 9.38-11.876 2.396-3.263 4.665-6.337 6.806-9.222-.685-.705-1.359-1.414-2.023-2.127-2.733-2.937-4.307-5.933-4.721-8.99-.881-6.495-.435-12.521 1.34-18.08 1.775-5.558 4.159-10.454 7.151-14.686 2.993-4.232 6.293-7.63 9.901-10.195 3.608-2.564 6.749-4.028 9.423-4.391 7.132-.968 12.862-.319 17.19 1.948 4.328 2.266 6.743 5.245 7.244 8.939.294 2.165.242 4.409-.156 6.733-.399 2.324-1.018 4.45-1.858 6.38-.841 1.93-1.82 3.554-2.938 4.873s-2.314 2.065-3.588 2.238c-1.91.259-2.876-.647-2.898-2.72-.022-2.072.213-4.406.704-7.001.491-2.596.912-4.988 1.264-7.176.351-2.187.018-3.212-1.001-3.074-.892.121-2.496 1.441-4.813 3.96-2.317 2.52-4.665 5.529-7.043 9.03-2.378 3.5-4.417 7.116-6.115 10.849-1.699 3.732-2.384 6.808-2.056 9.228.242 1.783 1.614 3.769 4.116 5.959 2.502 2.189 5.217 4.512 8.144 6.968 2.927 2.457 5.681 5.066 8.26 7.829 2.58 2.763 4.06 5.545 4.44 8.347.294 2.165-.028 4.575-.964 7.231-.937 2.657-2.313 5.178-4.129 7.564-1.817 2.387-4.003 4.434-6.56 6.143-2.556 1.709-5.299 2.762-8.228 3.159-5.859.795-11.087.499-15.685-.887-4.598-1.387-8.43-3.104-11.496-5.152-.39-.261-.765-.519-1.125-.777-2.457 2.845-5.047 5.387-7.77 7.626-3.968 3.261-7.989 5.169-12.064 5.722-3.948.535-7.596.414-10.944-.364-3.348-.777-6.338-2.025-8.971-3.743-2.632-1.718-4.858-3.783-6.677-6.195s-3.164-4.921-4.036-7.526c-2.277 3.292-4.576 6.424-6.896 9.398s-4.652 5.625-6.995 7.953-4.615 4.225-6.815 5.691c-2.201 1.466-4.256 2.328-6.166 2.587-2.547.346-5.091.237-7.632-.326s-4.873-1.738-6.996-3.525c-2.123-1.788-3.942-4.2-5.456-7.237-.982-1.968-1.772-4.235-2.372-6.801-1.535 2.439-3.163 4.807-4.882 7.105-3.404 4.547-7.058 8.447-10.961 11.701-3.904 3.253-7.893 5.156-11.968 5.709-3.694.501-7.272.176-10.736-.975-3.463-1.152-6.603-3.028-9.421-5.629-2.817-2.6-5.198-5.812-7.143-9.633-1.555-3.055-2.698-6.434-3.429-10.139zm247.032-100.051c7.132-.967 12.862-.318 17.19 1.948s6.742 5.246 7.244 8.939c.293 2.165.241 4.409-.157 6.733s-1.017 4.451-1.858 6.38c-.841 1.93-1.82 3.555-2.938 4.874s-2.314 2.064-3.587 2.237c-1.91.259-2.877-.647-2.898-2.719-.022-2.073.213-4.406.703-7.002.491-2.596.912-4.988 1.264-7.175.352-2.188.018-3.213-1.001-3.075-.891.121-2.495 1.441-4.812 3.961-2.317 2.519-4.665 5.529-7.044 9.029-2.378 3.5-4.416 7.117-6.115 10.849-1.698 3.732-2.383 6.808-2.055 9.228.242 1.783 1.614 3.769 4.116 5.959 2.502 2.189 5.216 4.512 8.143 6.969 2.928 2.456 5.681 5.065 8.261 7.828s4.059 5.545 4.44 8.347c.293 2.165-.028 4.575-.965 7.232-.936 2.656-2.313 5.177-4.129 7.564-1.816 2.386-4.003 4.434-6.559 6.142-2.557 1.709-5.3 2.762-8.229 3.16-5.858.794-11.086.499-15.684-.888-4.598-1.386-8.43-3.104-11.497-5.152-3.066-2.048-5.211-3.995-6.434-5.839s-1.325-2.836-.306-2.974 2.667.06 4.944.594c2.278.534 4.791 1.133 7.54 1.798 2.749.664 5.549 1.225 8.399 1.681 2.85.457 5.422.529 7.714.218 3.948-.536 5.689-2.523 5.222-5.961-.328-2.42-1.841-4.971-4.54-7.652-2.698-2.682-5.601-5.434-8.707-8.255s-6.026-5.699-8.759-8.636c-2.733-2.936-4.307-5.933-4.722-8.989-.881-6.495-.434-12.522 1.341-18.081 1.775-5.558 4.159-10.453 7.151-14.685 2.993-4.232 6.293-7.631 9.9-10.196 3.608-2.564 6.749-4.028 9.424-4.391zm-73.126 73.603c2.874 2.624 5.569 5.188 8.088 7.69 2.698 2.682 4.211 5.233 4.54 7.653.466 3.438-1.274 5.425-5.222 5.961-2.293.311-4.864.238-7.715-.218-2.85-.456-5.65-1.017-8.399-1.681-.709-.172-1.404-.339-2.082-.502 2.802-3.946 5.34-8.115 7.613-12.505 1.144-2.209 2.203-4.342 3.177-6.398zm236.156-47.71c-.701-1.404-1.149-2.821-1.343-4.252-.882-6.495-.435-12.522 1.34-18.08s4.159-10.454 7.151-14.686c2.993-4.232 6.293-7.63 9.901-10.195s6.749-4.028 9.423-4.391c7.132-.968 12.862-.319 17.19 1.947 4.328 2.267 6.743 5.246 7.244 8.94.294 2.165.241 4.409-.157 6.733-.398 2.323-1.017 4.45-1.858 6.38-.84 1.93-1.819 3.554-2.937 4.873-1.119 1.319-2.314 2.065-3.588 2.238-1.91.259-2.876-.648-2.898-2.72s.213-4.406.704-7.002c.491-2.595.912-4.987 1.263-7.175.352-2.188.019-3.212-1-3.074-.892.121-2.496 1.441-4.813 3.96s-4.665 5.529-7.043 9.03c-2.379 3.5-4.417 7.116-6.116 10.848-1.698 3.733-2.383 6.809-2.055 9.228.242 1.783 1.614 3.77 4.116 5.959 2.502 2.19 5.217 4.513 8.144 6.969s5.68 5.066 8.26 7.829c2.58 2.762 4.06 5.545 4.44 8.346.294 2.165-.028 4.576-.964 7.232-.937 2.656-2.313 5.178-4.13 7.564-1.816 2.387-4.002 4.434-6.559 6.143s-5.299 2.762-8.229 3.159c-5.858.795-11.086.499-15.684-.887-4.598-1.387-8.43-3.104-11.496-5.152-3.067-2.049-5.211-3.995-6.434-5.839-.452-.682-.751-1.247-.897-1.695-1.11 1.573-2.268 3.114-3.473 4.622-3.658 4.582-7.598 8.521-11.82 11.818-4.222 3.296-8.561 5.247-13.019 5.851-4.584.622-9.08.227-13.487-1.185-4.407-1.413-8.35-3.472-11.83-6.177-3.299-2.565-6.076-5.579-8.331-9.043-1.518 2.38-3.117 4.69-4.795 6.933-3.404 4.547-7.058 8.448-10.961 11.701-3.904 3.253-7.893 5.156-11.968 5.709-5.477.743-10.155.438-14.035-.916-3.88-1.355-7.074-3.386-9.581-6.093-2.508-2.708-4.466-5.912-5.876-9.611-1.41-3.7-2.374-7.46-2.892-11.281-.484-3.566-.432-7.723.156-12.472.587-4.749 1.517-9.609 2.788-14.58s2.746-9.873 4.425-14.705 3.331-9.142 4.957-12.929c1.626-3.788 3.12-6.876 4.482-9.266 1.362-2.389 2.425-3.636 3.189-3.74 1.529-.207 3.204-.045 5.027.485 1.823.531 3.585 1.33 5.286 2.396s3.129 2.267 4.282 3.602c1.154 1.335 1.826 2.703 2.016 4.104.121.891-.282 2.697-1.21 5.417-.928 2.719-2.101 6.024-3.519 9.913-1.418 3.888-2.911 8.176-4.48 12.864-1.569 4.687-2.997 9.453-4.286 14.297-1.288 4.844-2.262 9.613-2.922 14.307-.66 4.693-.731 8.951-.213 12.771.501 3.694 2.662 5.281 6.483 4.763 2.547-.346 5.333-1.794 8.359-4.345 3.027-2.55 6.138-5.664 9.336-9.34s6.361-7.607 9.489-11.793l1.6-2.142c-.537-5.861.039-12.269 1.727-19.223 1.872-7.712 4.645-14.995 8.319-21.848 3.675-6.854 7.905-12.713 12.693-17.578 4.787-4.865 9.664-7.634 14.631-8.308 2.547-.346 5.341-.303 8.383.127 3.041.431 5.952 1.333 8.732 2.706 2.781 1.374 5.184 3.318 7.211 5.831 2.028 2.514 3.292 5.617 3.793 9.31.207 1.528.142 3.677-.196 6.447-.337 2.769-1.061 5.559-2.171 8.368-1.111 2.81-2.591 5.28-4.442 7.412s-4.114 3.379-6.788 3.742c-1.656.225-3.276-.01-4.862-.702-1.585-.693-2.865-1.525-3.84-2.495s-1.522-1.901-1.643-2.792c-.121-.892.519-1.433 1.919-1.623 2.038-.276 4.003-1.807 5.895-4.593 1.891-2.786 3.371-5.743 4.438-8.87 1.067-3.128 1.528-5.947 1.382-8.456s-1.174-3.635-3.085-3.375c-3.056.414-6.545 2.898-10.467 7.451s-7.51 10.13-10.764 16.732c-3.255 6.603-5.818 13.759-7.69 21.471s-2.35 14.942-1.434 21.692c.276 2.038.851 3.646 1.724 4.824.874 1.179 1.863 2.017 2.968 2.516 1.105.498 2.216.802 3.334.909 1.117.108 1.994.119 2.63.033 2.802-.381 5.875-1.867 9.22-4.461 3.344-2.594 6.743-5.746 10.195-9.457s6.802-7.7 10.049-11.967c3.247-4.266 6.279-8.212 9.094-11.836 1.78-2.291 3.411-4.342 4.893-6.152zm4.802 6.244c2.317 2.417 4.762 4.793 7.335 7.13 3.107 2.821 6.009 5.572 8.708 8.254 2.698 2.682 4.211 5.233 4.54 7.652.466 3.439-1.275 5.426-5.223 5.962-2.292.311-4.863.238-7.714-.218-2.85-.457-5.65-1.017-8.399-1.682-2.749-.664-5.262-1.264-7.539-1.798-2.053-.481-3.595-.689-4.625-.624 1.913-2.803 3.681-5.706 5.304-8.709 2.799-5.178 5.105-9.933 6.916-14.265.243-.581.476-1.148.697-1.702zm-98.638-51.252c-2.899-1.293-4.786-3.728-5.66-7.306-.875-3.578-.48-7.36 1.184-11.347s4.12-6.914 7.369-8.782c3.248-1.867 6.322-2.155 9.221-.862 3.026 1.275 4.945 3.706 5.756 7.293.811 3.586.384 7.373-1.28 11.36s-4.12 6.914-7.368 8.782c-3.249 1.867-6.323 2.154-9.222.862z" fill="#fff"/></svg>