<svg clip-rule="evenodd" fill-rule="evenodd" stroke-linejoin="round" stroke-miterlimit="2" viewBox="0 0 600 296" xmlns="http://www.w3.org/2000/svg"><path d="m139.619 175.967c.253-4.09.656-8.428 1.208-13.012.999-8.284 2.38-17.029 4.144-26.236s3.78-18.385 6.048-27.534 4.681-17.925 7.241-26.328 5.154-15.879 7.781-22.427c2.628-6.548 5.197-11.899 7.707-16.051s4.785-6.533 6.825-7.142c1.657-.495 2.579 1.313 2.765 5.424s-.13 9.795-.949 17.053c-.818 7.258-1.989 15.663-3.511 25.215-1.523 9.551-3.173 19.488-4.951 29.81-1.779 10.322-3.538 20.708-5.278 31.158-1.741 10.45-3.193 20.119-4.358 29.008-1.165 8.89-1.968 16.664-2.41 23.323-.442 6.66-.244 11.392.594 14.197 1.104 3.698 3.505 4.995 7.203 3.89 2.55-.761 5.201-2.698 7.952-5.811 2.75-3.113 5.467-6.806 8.149-11.079s5.288-8.801 7.818-13.584c2.121-4.011 4.094-7.781 5.918-11.312.381-4.35 1.102-8.883 2.163-13.601 1.371-6.103 3.281-12.264 5.73-18.481s5.346-11.978 8.692-17.282c3.347-5.305 7.081-9.892 11.203-13.762 4.122-3.869 8.542-6.509 13.259-7.918 7.651-2.284 14.092-2.923 19.323-1.916s9.263 2.65 12.096 4.929c2.834 2.279 4.443 4.645 4.829 7.099.385 2.455-.378 3.967-2.291 4.538-.765.229-1.564-.123-2.398-1.054-.834-.932-1.823-1.921-2.969-2.967-1.146-1.047-2.55-1.912-4.213-2.596-1.662-.684-3.705-.665-6.128.059-5.228 1.561-9.983 4.821-14.266 9.781-4.282 4.959-7.989 10.684-11.12 17.174s-5.692 13.262-7.683 20.314c-1.991 7.053-3.404 13.481-4.24 19.286s-1.068 10.492-.697 14.062c.372 3.569 1.45 5.087 3.235 4.554 2.041-.609 4.191-2.709 6.452-6.301 2.26-3.592 4.554-7.887 6.88-12.887s4.697-10.43 7.114-16.291c2.416-5.86 4.883-11.319 7.4-16.376 2.518-5.057 5.002-9.41 7.454-13.058 2.452-3.649 4.953-5.854 7.503-6.616 1.403-.419 2.792-.417 4.168.005 1.377.423 2.35 1.59 2.921 3.503.419 1.403.288 4.219-.393 8.45s-1.42 8.965-2.216 14.203c-.797 5.238-1.384 10.482-1.76 15.733s-.05 9.598.978 13.041c1.142 3.825 3.562 5.186 7.26 4.082 2.55-.762 5.201-2.699 7.951-5.812 2.751-3.113 5.436-6.797 8.054-11.051s5.183-8.804 7.694-13.651c1.928-3.722 3.756-7.23 5.484-10.523-.813-.613-1.617-1.23-2.41-1.853-3.266-2.566-5.356-5.379-6.27-8.439-1.942-6.504-2.45-12.74-1.525-18.711.926-5.97 2.58-11.36 4.963-16.169 2.383-4.808 5.215-8.813 8.495-12.015s6.258-5.202 8.936-6.002c7.141-2.132 13.106-2.386 17.897-.761 4.79 1.625 7.738 4.286 8.842 7.984.647 2.168.954 4.472.919 6.913s-.328 4.715-.879 6.824-1.292 3.928-2.225 5.456c-.932 1.528-2.036 2.483-3.311 2.864-1.913.571-3.046-.202-3.4-2.318-.355-2.116-.488-4.541-.402-7.275s.134-5.249.143-7.543-.496-3.289-1.516-2.984c-.893.266-2.322 1.874-4.289 4.822s-3.886 6.403-5.758 10.365c-1.873 3.962-3.379 7.988-4.518 12.078-1.14 4.09-1.348 7.346-.624 9.769.533 1.785 2.254 3.597 5.165 5.436 2.91 1.84 6.059 3.781 9.447 5.825 3.388 2.043 6.622 4.272 9.704 6.685 3.082 2.412 5.041 5.022 5.879 7.827.647 2.167.705 4.685.172 7.552s-1.537 5.667-3.012 8.399c-1.476 2.733-3.385 5.178-5.726 7.335-2.342 2.158-4.979 3.674-7.912 4.55-5.865 1.752-11.261 2.287-16.187 1.605-4.925-.682-9.12-1.825-12.585-3.429-.441-.204-.866-.408-1.275-.614-2.058 3.303-4.301 6.319-6.728 9.045-3.536 3.973-7.344 6.568-11.424 7.787-3.953 1.18-7.704 1.64-11.254 1.381-3.549-.259-6.808-1.057-9.776-2.393-2.968-1.335-5.576-3.091-7.823-5.267s-4.025-4.527-5.335-7.053c-1.802 3.733-3.651 7.306-5.549 10.719-1.897 3.414-3.857 6.499-5.881 9.256s-4.044 5.062-6.06 6.914-3.981 3.064-5.893 3.635c-2.551.761-5.17 1.058-7.86.889-2.689-.17-5.262-.998-7.721-2.486-2.458-1.488-4.705-3.664-6.741-6.528-1.319-1.857-2.491-4.049-3.515-6.578-1.18 2.741-2.466 5.424-3.857 8.05-2.753 5.197-5.866 9.772-9.338 13.726-3.472 3.953-7.248 6.539-11.329 7.757-3.697 1.105-7.41 1.345-11.138.722-3.727-.623-7.24-2.039-10.539-4.248-3.298-2.209-6.248-5.113-8.85-8.71-2.08-2.876-3.791-6.15-5.133-9.822-1.709 5.029-3.669 10.198-5.878 15.505-3.234 7.771-6.953 15.548-11.157 23.331-4.203 7.783-8.884 15.014-14.042 21.693-5.158 6.678-10.751 12.481-16.78 17.406s-12.486 8.416-19.372 10.472c-7.268 2.17-14.464 3.069-21.589 2.697-7.124-.372-13.785-2.098-19.983-5.178-6.197-3.079-11.698-7.548-16.502-13.404-4.804-5.857-8.501-13.12-11.09-21.791-3.846-12.879-5.706-26.663-5.579-41.353.127-14.69 1.716-29.365 4.769-44.026 3.052-14.661 7.289-28.842 12.71-42.544 5.422-13.702 11.454-26.058 18.096-37.069s13.607-20.243 20.894-27.697c7.288-7.454 14.438-12.228 21.451-14.322 5.356-1.599 10.528-2.415 15.519-2.447 4.99-.032 9.542.796 13.657 2.484s7.716 4.327 10.802 7.919c3.087 3.592 5.468 8.194 7.143 13.804 1.485 4.973 2.163 10.499 2.035 16.579-.129 6.08-.873 12.309-2.232 18.687s-3.263 12.675-5.712 18.892-5.292 11.927-8.53 17.13-6.809 9.637-10.714 13.303-7.961 6.127-12.169 7.384c-5.228 1.561-9.69 1.852-13.385.872s-6.555-2.417-8.579-4.313c-2.024-1.895-3.163-3.847-3.415-5.854-.253-2.008.45-3.26 2.108-3.755.765-.228 1.306-.043 1.624.557.318.599.655 1.263 1.011 1.99.356.726.884 1.333 1.585 1.818.7.485 1.943.461 3.728-.072 4.845-1.447 9.282-4.959 13.311-10.537 4.028-5.578 7.561-12.119 10.598-19.622 3.036-7.504 5.443-15.375 7.218-23.613 1.776-8.239 2.78-15.691 3.011-22.357.232-6.666-.444-11.95-2.026-15.852-1.582-3.903-4.158-5.321-7.728-4.255-5.866 1.752-12.088 6.145-18.668 13.179-6.579 7.034-12.9 15.865-18.961 26.495-6.062 10.629-11.59 22.696-16.584 36.2-4.995 13.505-8.83 27.636-11.506 42.393-2.677 14.757-3.929 29.748-3.757 44.974.172 15.225 2.372 29.915 6.598 44.069.838 2.805 1.985 5.483 3.441 8.034s3.273 4.682 5.451 6.393c2.177 1.711 4.741 2.855 7.691 3.432s6.274.314 9.972-.79c9.436-2.818 17.924-7.645 25.466-14.48s14.282-14.611 20.22-23.329c5.938-8.717 11.149-17.773 15.635-27.168s8.423-18.07 11.811-26.026c2.243-5.269 4.252-9.95 6.024-14.042zm176.023-26.711c3.36 2.223 6.529 4.414 9.506 6.57 3.19 2.311 5.147 4.678 5.87 7.101 1.028 3.443-.434 5.755-4.387 6.935-2.295.685-4.937 1.023-7.926 1.013s-5.943-.135-8.862-.375c-.753-.061-1.49-.121-2.21-.179 2.234-4.486 4.163-9.157 5.784-14.012.816-2.443 1.558-4.794 2.225-7.053zm63.015-87.009c7.141-2.133 13.106-2.386 17.897-.762 4.79 1.625 7.738 4.287 8.842 7.984.647 2.168.953 4.472.919 6.913-.035 2.441-.328 4.716-.879 6.825s-1.292 3.927-2.225 5.456c-.932 1.528-2.036 2.483-3.311 2.863-1.913.572-3.046-.201-3.4-2.317-.355-2.117-.489-4.542-.402-7.276.086-2.734.134-5.248.143-7.542.009-2.295-.496-3.289-1.516-2.985-.893.267-2.322 1.874-4.289 4.822-1.967 2.949-3.886 6.404-5.758 10.365-1.873 3.962-3.379 7.988-4.518 12.078-1.14 4.09-1.348 7.347-.624 9.77.533 1.785 2.254 3.597 5.164 5.436 2.911 1.839 6.06 3.781 9.448 5.824 3.388 2.044 6.622 4.272 9.704 6.685 3.081 2.413 5.041 5.022 5.879 7.827.647 2.168.705 4.686.172 7.553s-1.537 5.667-3.012 8.399c-1.476 2.732-3.385 5.177-5.726 7.335-2.342 2.157-4.979 3.674-7.912 4.55-5.865 1.751-11.261 2.286-16.187 1.604-4.925-.681-9.12-1.824-12.585-3.428s-5.971-3.252-7.518-4.943c-1.546-1.69-1.81-2.688-.789-2.993 1.02-.304 2.737-.366 5.153-.184 2.415.181 5.082.391 8 .631 2.919.239 5.873.364 8.862.374 2.989.011 5.631-.327 7.926-1.012 3.953-1.181 5.415-3.492 4.387-6.935-.723-2.423-2.68-4.79-5.87-7.101s-6.6-4.661-10.23-7.049-7.077-4.865-10.344-7.431c-3.266-2.566-5.356-5.38-6.27-8.44-1.942-6.503-2.45-12.74-1.525-18.71.925-5.971 2.58-11.36 4.963-16.169s5.215-8.814 8.495-12.015c3.279-3.202 6.258-5.203 8.936-6.002zm170.923.37c-.942-1.324-1.628-2.702-2.055-4.134-1.942-6.503-2.451-12.74-1.525-18.71.925-5.971 2.579-11.36 4.962-16.169 2.384-4.809 5.215-8.814 8.495-12.016 3.28-3.201 6.259-5.202 8.936-6.001 7.141-2.133 13.107-2.386 17.897-.762 4.791 1.625 7.738 4.287 8.842 7.984.648 2.168.954 4.472.919 6.913s-.328 4.716-.879 6.825c-.55 2.109-1.292 3.927-2.224 5.455-.933 1.529-2.037 2.483-3.312 2.864-1.912.571-3.046-.201-3.4-2.318-.354-2.116-.488-4.541-.402-7.275s.134-5.248.144-7.542c.009-2.295-.497-3.29-1.517-2.985-.892.267-2.322 1.874-4.289 4.822-1.966 2.949-3.886 6.404-5.758 10.365-1.872 3.962-3.378 7.988-4.518 12.078-1.139 4.09-1.348 7.347-.624 9.769.533 1.786 2.255 3.598 5.165 5.437s6.059 3.78 9.447 5.824 6.623 4.272 9.704 6.685c3.082 2.413 5.042 5.022 5.879 7.827.648 2.168.705 4.685.172 7.553-.532 2.867-1.536 5.667-3.012 8.399s-3.384 5.177-5.726 7.335c-2.342 2.157-4.979 3.674-7.912 4.55-5.865 1.751-11.261 2.286-16.186 1.604-4.926-.682-9.121-1.824-12.586-3.428s-5.971-3.252-7.517-4.943c-.572-.624-.968-1.154-1.189-1.59-.884 1.787-1.822 3.549-2.812 5.285-3.008 5.273-6.408 9.934-10.199 13.982-3.79 4.049-7.917 6.74-12.38 8.072-4.591 1.371-9.253 1.687-13.987.948-4.735-.739-9.098-2.213-13.091-4.423-3.786-2.096-7.11-4.734-9.971-7.916-1.172 2.677-2.437 5.297-3.795 7.86-2.754 5.197-5.866 9.772-9.338 13.726-3.472 3.953-7.249 6.539-11.329 7.757-5.483 1.638-10.317 2.075-14.504 1.311-4.186-.764-7.778-2.33-10.777-4.698s-5.516-5.332-7.551-8.891c-2.035-3.558-3.623-7.25-4.766-11.076-1.066-3.57-1.679-7.831-1.838-12.783-.159-4.953.013-10.073.516-15.362.504-5.289 1.228-10.54 2.171-15.752.944-5.212 1.944-9.885 3.001-14.02 1.056-4.135 2.09-7.534 3.1-10.197 1.011-2.662 1.898-4.108 2.663-4.336 1.53-.457 3.27-.56 5.22-.309s3.881.785 5.791 1.604c1.911.818 3.564 1.817 4.958 2.998s2.301 2.473 2.72 3.875c.266.893.143 2.805-.371 5.736-.513 2.931-1.184 6.499-2.011 10.704-.828 4.205-1.668 8.831-2.522 13.877-.854 5.047-1.552 10.151-2.094 15.312-.542 5.162-.775 10.197-.698 15.104s.686 9.274 1.829 13.099c1.104 3.698 3.569 4.976 7.394 3.833 2.55-.761 5.169-2.689 7.856-5.783s5.371-6.777 8.054-11.05c2.682-4.273 5.288-8.801 7.817-13.584l1.294-2.447c-1.488-5.911-1.926-12.558-1.313-19.942.679-8.189 2.35-16.083 5.01-23.683 2.661-7.6 6.051-14.271 10.168-20.015 4.118-5.743 8.664-9.357 13.637-10.843 2.55-.761 5.415-1.165 8.595-1.212 3.181-.047 6.303.409 9.367 1.369 3.065.96 5.835 2.563 8.311 4.809 2.476 2.247 4.267 5.219 5.371 8.917.457 1.53.735 3.739.833 6.626s-.195 5.857-.881 8.908c-.686 3.052-1.805 5.817-3.357 8.294-1.551 2.477-3.666 4.116-6.344 4.915-1.658.495-3.353.515-5.086.061-1.733-.455-3.175-1.1-4.328-1.937-1.152-.836-1.862-1.701-2.128-2.593-.267-.893.301-1.548 1.704-1.967 2.04-.61 3.804-2.491 5.293-5.643 1.489-3.153 2.529-6.415 3.12-9.786.59-3.37.61-6.327.059-8.871-.552-2.544-1.784-3.53-3.696-2.959-3.061.914-6.232 4.014-9.514 9.3-3.283 5.285-6.06 11.566-8.332 18.841-2.271 7.275-3.747 15.007-4.426 23.196-.68 8.188-.01 15.662 2.008 22.42.609 2.04 1.455 3.593 2.537 4.659 1.082 1.065 2.228 1.765 3.439 2.097 1.21.333 2.395.466 3.555.397s2.059-.198 2.697-.389c2.805-.837 5.71-2.851 8.716-6.04s5.977-6.958 8.914-11.307c2.938-4.35 5.725-8.967 8.364-13.851 2.638-4.885 5.107-9.407 7.406-13.566 1.454-2.629 2.794-4.988 4.02-7.077zm5.912 5.619c2.758 2.1 5.64 4.14 8.647 6.118 3.629 2.388 7.039 4.738 10.229 7.049s5.147 4.678 5.87 7.101c1.029 3.442-.434 5.754-4.387 6.934-2.295.686-4.937 1.023-7.926 1.013s-5.943-.135-8.861-.374c-2.919-.24-5.586-.45-8.001-.632-2.177-.163-3.787-.129-4.831.102 1.508-3.173 2.851-6.426 4.031-9.758 2.033-5.746 3.63-10.98 4.79-15.701.155-.633.302-1.251.439-1.852zm-109.114-36.629c-3.172-.858-5.493-3.047-6.96-6.566-1.468-3.52-1.67-7.453-.607-11.798 1.064-4.345 3.107-7.733 6.131-10.164 3.024-2.43 6.123-3.217 9.295-2.359 3.301.82 5.653 2.999 7.057 6.538s1.574 7.481.511 11.826c-1.064 4.346-3.108 7.733-6.132 10.164-3.023 2.431-6.122 3.217-9.295 2.359z" fill="#fff"/></svg>