<svg clip-rule="evenodd" fill-rule="evenodd" stroke-linejoin="round" stroke-miterlimit="2" viewBox="0 0 600 168" xmlns="http://www.w3.org/2000/svg"><g fill="#fff"><path d="m434.688 130.979v11.363h63.388c7.575.08 14.928-2.582 20.697-7.492 6.023-5.112 9.421-12.684 9.236-20.582v-48.3c-.066-5.348 2.33-10.44 6.493-13.798 2.917-2.284 6.53-3.501 10.234-3.449h55.264v-11.209h-65.815s-28.407.455-28.407 30.501v45.102c.051 3.694-.946 7.327-2.873 10.478-2.835 4.74-8.033 7.582-13.554 7.41z"/><path d="m288.336 37.512v11.209h112.978c3.143-.027 6.252.641 9.107 1.956 4.48 2.102 9.512 6.428 9.512 15.202 0 8.522-5.032 12.783-9.512 14.893-2.902 1.331-6.061 2.008-9.253 1.98h-83.792c-4.96-.046-9.863 1.066-14.317 3.247-6.972 3.498-14.723 11.736-14.723 25.322v30.842h21.743v-30.704c-.014-1.997.347-3.979 1.064-5.843 1.793-4.602 6.33-11.988 16.938-11.988h84.49c2.842.015 5.672-.364 8.409-1.128 7.759-2.208 20.696-8.587 20.696-26.621 0-28.026-27.895-28.367-27.895-28.367z"/><path d="m80.544.867c9.366 1.746 18.573 4.24 27.736 6.84 5.24 1.522 10.468 3.097 15.662 4.774 8.157 2.599 16.28 5.541 23.669 9.928 3.309 2.01 6.488 4.28 9.205 7.05 2.943 2.889 5.353 6.275 7.121 10.001 3.222 6.728 4.325 14.245 4.652 21.635.153 4.822.143 9.686-.758 14.446-.749 4.137-2.079 8.216-4.292 11.808-1.954 3.173-4.67 5.918-7.967 7.686-3.163 1.705-6.783 2.517-10.369 2.445-5.44.056-10.718-1.677-15.599-3.951-.09-16.234-.015-32.471-.039-48.701-.033-2.938.166-5.905-.427-8.803-.417-2.244-1.332-4.507-3.095-6.031-1.167-1.053-2.683-1.648-4.205-1.97-1.54-.292-3.182.362-4.135 1.598-1.585 1.979-2 4.608-2.072 7.072-.013 43.46.016 86.922-.013 130.379-11.693-3.705-23.384-7.415-35.074-11.13-.011-51.691-.007-103.383 0-155.076z"/><path d="m27.993 110.847c15.243-5.396 30.47-10.847 45.719-16.224.024 5.983 0 11.969.009 17.959-.009.812.042 1.628-.059 2.435-12.053 4.272-24.083 8.62-36.123 12.919-1.669.632-3.382 1.345-4.669 2.62-.599.598-1.089 1.482-.761 2.337.413 1.009 1.442 1.559 2.392 1.973 2.642 1.075 5.529 1.228 8.343 1.356 3.137-.049 6.289-.285 9.36-.962 2.077-.41 4.076-1.109 6.056-1.852 5.145-1.863 10.29-3.737 15.444-5.58.036 5.062.006 10.127.016 15.196-.016 1.012.046 2.031-.055 3.038-6.328 1.137-12.732 1.907-19.165 2.01-12.952.292-25.936-1.713-38.239-5.761-4.034-1.169-8.045-2.726-11.415-5.288-1.855-1.436-3.515-3.241-4.359-5.462-.707-1.882-.655-4.053.226-5.868.849-1.811 2.332-3.241 3.967-4.354 3.779-2.611 7.951-4.603 12.175-6.378 3.644-1.551 7.421-2.76 11.138-4.114z"/><path d="m150.636 104.029c3.457-.399 6.936-.494 10.412-.618 11.432.043 22.925 1.464 33.862 4.895 2.146.653 4.224 1.499 6.362 2.178 3.812 1.393 7.627 3.081 10.678 5.822 1.832 1.671 3.413 3.924 3.434 6.495.109 2.094-.838 4.103-2.197 5.646-2.584 2.897-5.999 4.889-9.427 6.625-3.65 1.862-7.574 3.062-11.402 4.479-23.363 8.39-46.73 16.776-70.089 25.175-.005-6.546.007-13.089-.005-19.627.036-.262-.107-.718.261-.786 17.777-6.324 35.549-12.667 53.324-19.01 2.403-.899 4.992-1.549 7.031-3.179.834-.655 1.651-1.698 1.242-2.823-.427-.984-1.447-1.527-2.386-1.935-2.66-1.054-5.557-1.257-8.387-1.337-4.431.031-8.9.576-13.115 1.997-12.662 4.437-25.3 8.929-37.965 13.351.002-7.027-.005-14.049.003-21.075 9.161-3.216 18.729-5.165 28.364-6.273z"/></g></svg>