<svg clip-rule="evenodd" fill-rule="evenodd" stroke-linejoin="round" stroke-miterlimit="2" viewBox="0 0 600 325" xmlns="http://www.w3.org/2000/svg"><g fill="#fff"><path d="m36.477 19.853s-2.248-.434-4.321-.835c-1.89-.366-3.719.871-4.085 2.761-.545 2.819-1.35 6.983-2.117 10.952-.581 3.006.055 6.119 1.77 8.656 1.012 1.497 2.35 2.72 3.895 3.591l-21.607 111.753c-.565 2.922.525 5.918 2.836 7.794 1.575 1.277 3.046 2.472 3.046 2.472s-12.749 65.941-15.791 81.673c-.397 2.056.37 4.164 1.996 5.484 5.346 4.338 16.944 13.75 16.944 13.75l-1.59 8.219s8.361 1.616 13.867 2.681c2.606.503 5.126-1.2 5.63-3.806s4.944.956 8.155 1.576c1.527.295 3.107-.099 4.317-1.076 2.317-1.869 7.128-4.404 14.48-1.962 27.778 9.226 38.236 48.2 63.125 50.763 11.878 1.223 29.456-54.736 20.13-64.228-7.109-7.235-24.225-11.622-45.643-23.184l8.281-42.834c.381-1.967-.132-4.001-1.4-5.552-2.623-3.21-7.256-8.881-10.374-12.697-.825-1.01-1.188-2.32-.998-3.61.189-1.29.912-2.441 1.992-3.171 4.371-2.954 10.575-7.148 10.575-7.148s19.721-101.996 24.526-126.848c.578-2.989-1.377-5.88-4.365-6.458-9.895-1.913-29.899-5.781-29.899-5.781l-.958 4.956-13.629-2.635 2.755-14.248-11.77-2.276.598-3.097-24.709-4.778-.599 3.098-11.53-2.229-3.533 18.274zm6.894 206.978s-16.794 56.454 1.215 45.281c32.85-20.38 55.952 41.282 78.852 42.496 1.909.101 3.267-1.939 2.817-4.596-30.526-13.293-47.96-59.399-78.061-44.976-15.367 7.364-4.823-38.205-4.823-38.205zm19.188-17.808 3.918-20.264c.99-5.12 4.573-9.356 9.458-11.181h.001c6.479-2.421 13.78-.447 18.157 4.909 2.367 2.898 4.794 5.868 6.401 7.835 1.184 1.449 1.663 3.35 1.308 5.187l-7.24 37.446c-10.086-5.978-20.93-13.644-32.003-23.932zm3.262-6.486-1.118 5.783c2.006 1.842 4.004 3.598 5.99 5.274 15.558-.803 32.499-9.204 18.644-6.795-10.992 1.911-19.87-2.177-23.516-4.262zm-22.215-26.429c-.921-.178-1.733-.715-2.258-1.492-.526-.777-.721-1.731-.543-2.652 3.913-20.237 23.733-122.747 27.556-142.519.352-1.825 2.117-3.018 3.942-2.665l.045.009c1.914.37 3.166 2.222 2.796 4.136-3.908 20.21-23.708 122.619-27.55 142.487-.171.887-.687 1.668-1.435 2.174-.748.505-1.666.693-2.552.522-.001 0-.001 0-.001 0zm45.12-43.009c-1.838-.355-3.042-2.136-2.686-3.974.355-1.837 2.135-3.041 3.973-2.686l17.138 3.314c1.837.355 3.041 2.136 2.686 3.973-.356 1.838-2.136 3.042-3.974 2.686zm2.575-13.319c-1.838-.355-3.042-2.136-2.686-3.973.355-1.838 2.136-3.042 3.973-2.686l17.138 3.313c1.838.355 3.041 2.136 2.686 3.974-.355 1.837-2.136 3.041-3.974 2.686zm2.575-13.319c-1.838-.355-3.041-2.136-2.686-3.973.355-1.838 2.136-3.041 3.973-2.686l17.138 3.313c1.838.356 3.041 2.136 2.686 3.974s-2.136 3.041-3.974 2.686zm2.575-13.319c-1.838-.355-3.041-2.135-2.686-3.973s2.136-3.041 3.974-2.686l17.137 3.313c1.838.356 3.041 2.136 2.686 3.974s-2.136 3.041-3.973 2.686zm2.575-13.318c-1.838-.356-3.041-2.136-2.686-3.974s2.136-3.041 3.974-2.686l17.137 3.314c1.838.355 3.042 2.135 2.686 3.973-.355 1.838-2.136 3.041-3.973 2.686zm2.575-13.319c-1.837-.356-3.041-2.136-2.686-3.974.356-1.837 2.136-3.041 3.974-2.686l17.137 3.314c1.838.355 3.042 2.136 2.686 3.973-.355 1.838-2.135 3.042-3.973 2.686zm2.575-13.319c-1.837-.355-3.041-2.136-2.686-3.974.356-1.837 2.136-3.041 3.974-2.686l17.138 3.314c1.837.355 3.041 2.136 2.686 3.973-.356 1.838-2.136 3.042-3.974 2.686z"/><g fill-rule="nonzero"><path d="m138.887 217.092h-17.822l26.888-147.73h17.719z"/><path d="m208.569 203.802c-.755 3.778-2.678 6.937-5.769 9.478-3.09 2.541-6.593 3.812-10.508 3.812h-24.621c-3.64 0-6.731-1.305-9.272-3.915s-3.812-5.735-3.812-9.375v-2.575l21.222-118.472c.756-3.846 2.644-7.04 5.666-9.581 3.091-2.541 6.559-3.812 10.405-3.812h25.034c3.571 0 6.627 1.305 9.168 3.915 2.61 2.61 3.915 5.769 3.915 9.478 0 1.03-.069 1.82-.206 2.369l-6.593 36.881h-17.101l5.563-31.112v-.618c0-1.236-.412-2.266-1.236-3.09-.825-.756-1.855-1.133-3.091-1.133h-9.581c-1.442 0-2.781.48-4.018 1.442-1.167.893-1.888 2.026-2.163 3.399l-18.852 104.771v.515c0 1.167.412 2.197 1.236 3.09s1.854 1.34 3.09 1.34h9.478c3.365 0 5.46-1.717 6.284-5.151l8.448-45.226h-9.787l2.988-16.483h26.888z"/><path d="m254.351 149.202-12.259 67.89h-17.823l26.888-147.73h17.72l-11.539 63.357h19.059l11.538-63.357h17.719l-26.785 147.73h-17.822l12.362-67.89z"/><path d="m357.823 86.052h-12.259l-23.695 131.04h-18.028l23.901-131.04h-12.672l2.988-16.69h42.959z"/><path d="m428.082 203.802c-.755 3.778-2.679 6.937-5.769 9.478-3.091 2.541-6.593 3.812-10.508 3.812h-24.622c-3.64 0-6.73-1.305-9.271-3.915s-3.812-5.735-3.812-9.375v-2.575l21.222-118.472c.755-3.846 2.644-7.04 5.666-9.581 3.091-2.541 6.559-3.812 10.405-3.812h25.034c3.571 0 6.627 1.305 9.168 3.915 2.61 2.61 3.915 5.769 3.915 9.478 0 1.03-.069 1.82-.206 2.369l-6.593 36.881h-17.101l5.563-31.112v-.618c0-1.236-.413-2.266-1.237-3.09-.824-.756-1.854-1.133-3.09-1.133h-9.581c-1.442 0-2.782.48-4.018 1.442-1.167.893-1.888 2.026-2.163 3.399l-18.853 104.771v.515c0 1.167.412 2.197 1.237 3.09.824.893 1.854 1.34 3.09 1.34h9.478c3.365 0 5.46-1.717 6.284-5.151l8.448-45.226h-9.787l2.987-16.483h26.888z"/><path d="m462.016 195.664v.515c0 1.167.378 2.197 1.134 3.09.892.893 1.923 1.34 3.09 1.34h9.478c3.365 0 5.46-1.717 6.284-5.151l22.87-126.096h17.514l-24.622 134.44c-.755 3.778-2.644 6.937-5.666 9.478-3.091 2.541-6.628 3.812-10.611 3.812h-24.828c-3.502 0-6.524-1.305-9.065-3.915s-3.812-5.735-3.812-9.375v-2.575l23.797-131.865h17.102z"/><path d="m513.464 217.092 26.785-147.73h17.822c5.151 53.296 7.83 90.897 8.036 112.806.687-19.367 6.044-56.969 16.071-112.806h17.822l-26.785 147.73h-17.822c-5.082-53.089-7.727-89.799-7.933-110.128-.686 17.033-6.043 53.742-16.071 110.128z"/></g></g></svg>