<?xml version="1.0" encoding="UTF-8" standalone="no"?><!DOCTYPE svg PUBLIC "-//W3C//DTD SVG 1.1//EN" "http://www.w3.org/Graphics/SVG/1.1/DTD/svg11.dtd"><svg width="100%" height="100%" viewBox="0 0 600 255" version="1.1" xmlns="http://www.w3.org/2000/svg" xmlns:xlink="http://www.w3.org/1999/xlink" xml:space="preserve" xmlns:serif="http://www.serif.com/" style="fill-rule:evenodd;clip-rule:evenodd;stroke-linejoin:round;stroke-miterlimit:2;"><g id="playlist_basketball"><g><clipPath id="_clip1"><path d="M186,254.922l-63.989,0l-20.215,-71.799c24.734,-11.932 41.821,-37.26 41.821,-66.546c-0,-40.755 -33.088,-73.843 -73.843,-73.843c-14.33,0 -27.711,4.091 -39.036,11.164l0,-53.154l245.137,-0l-0,130.492c-0,-3.678 -2.982,-6.66 -6.66,-6.66l-10.929,0c-1.228,0 -2.378,0.333 -3.366,0.914c-2.904,-1.498 -6.244,-2.259 -10.252,-2.259c-13.878,0 -21.215,7.834 -24.908,19.11c-0.727,2.22 -1.294,4.595 -1.736,7.067c-0.471,-2.514 -1.069,-4.926 -1.825,-7.178c-3.786,-11.274 -11.143,-18.999 -24.492,-18.999c-2.637,0 -4.995,0.3 -7.127,0.909l-0,-41.157c-0,-3.678 -2.982,-6.66 -6.66,-6.66l-10.929,0c-3.678,0 -6.659,2.982 -6.659,6.66l-0,134.504c-0,3.678 2.981,6.66 6.659,6.66l10.929,0c1.447,0 2.787,-0.461 3.878,-1.247c1.324,0.699 2.726,1.267 4.202,1.691l0,30.331Zm3.734,-51.667c-0.07,0.004 -0.141,0.006 -0.213,0.006c-0.997,0 -1.672,-0.575 -2.213,-1.333c-0.819,-1.147 -1.392,-2.608 -1.866,-4.215c-2.447,-8.3 -1.871,-19.868 -1.871,-25.789c0,-4.247 -0.515,-14.323 1.8,-21.694c0.435,-1.383 0.957,-2.653 1.703,-3.653c0.474,-0.636 1.073,-1.115 1.943,-1.115c2.441,0 3.3,2.129 4.117,4.805c1.681,5.508 2.001,13.286 2.001,22.329c-0,6.031 -0.12,11.084 -0.408,15.296l-4.993,15.363Zm51.524,-40.331c0.199,-3.897 0.611,-7.735 1.458,-11.07c0.471,-1.853 1.055,-3.524 1.925,-4.835c0.6,-0.904 1.38,-1.557 2.549,-1.557c2.385,0 2.914,2.402 3.66,5.15c0.705,2.601 1.138,5.646 1.399,9.002l-10.991,3.31Z"/></clipPath><g clip-path="url(#_clip1)"><path d="M125.896,254.884c4.37,0 6.649,-4.687 8.411,-8.412c2.16,2.161 7.034,9.787 10.646,8.238c1.582,-0.682 2.774,-3.15 3.797,-4.467c0.868,-1.117 1.805,-2.187 2.381,-3.481c1.929,2.016 6.346,9.868 9.768,7.823c1.86,-1.111 3.399,-4.133 4.814,-5.792c0.5,-0.586 1.363,-2.013 2.241,-2.013c1.161,-0 2.25,2.358 2.82,3.173c2.04,2.915 2.69,4.931 6.462,4.931c-0.074,-26.757 3.598,-53.127 14.046,-78.026c2.06,-4.91 4.333,-11.299 7.886,-15.331c1.254,-1.423 3.406,-0.691 5.044,-1.342c3.609,-1.434 3.527,-1.648 3.481,-2.472c-0.211,-3.766 -5.043,-2.997 -8.412,-2.997l-82.087,0c-6.119,0 -13.125,-0.951 -19.144,0.135c-2.642,0.476 -5.624,0.472 -5.624,3.249c0,1.211 0.777,1.012 4.173,2.192c1.412,0.491 3.295,-0.117 4.424,0.994c5.168,5.087 8.539,13.456 11.593,19.922c10.833,22.934 13.28,48.693 13.28,73.676l-0,0Zm34.517,-18.854c1.37,1.488 5.359,5.111 5.223,7.252c-0.153,2.407 -4.639,5.902 -6.093,7.831c-1.514,-1.114 -5.722,-4.983 -5.747,-6.961c-0.011,-0.966 1.094,-1.929 1.663,-2.611c1.546,-1.856 3.002,-4.075 4.954,-5.511Zm-17.984,0c1.53,2.016 6.149,5.59 6.372,8.122c0.101,1.146 -1.313,2.37 -1.96,3.19c-0.689,0.876 -2.01,3.42 -3.277,3.42c-0.797,0 -1.493,-0.887 -2.005,-1.389c-1.22,-1.198 -4.733,-3.988 -4.714,-5.801c0.024,-2.254 3.716,-5.744 5.004,-7.542l0.58,0Zm-13.053,4.641l2.901,3.191l-0,0.29l-2.901,4.061l-0.29,-0l0.29,-7.542Zm44.67,-0.87l-0.29,8.412l-0.29,-0c-2.551,-3.78 -3.726,-5.378 0.58,-8.412Zm-22.625,1.74l-5.341,-5.801l-1.598,-2.611l2.915,-4.35l3.466,-3.711l3.482,3.42l3.485,4.641l-1.478,2.611l-4.931,5.801Zm-17.114,-0.29c-4.552,-3.214 -7.559,-7.852 -3.879,-12.763c0.57,-0.76 1.621,-2.84 2.719,-2.84c1.146,-0 2.485,2.351 3.153,3.131c0.976,1.139 2.936,2.842 3.237,4.35c0.424,2.121 -4.014,6.425 -5.23,8.122Zm35.388,-16.243c1.411,2.068 4.212,4.478 4.757,6.961c0.739,3.365 -3.86,7.197 -6.207,8.992l-5.424,-7.251l1.386,-2.611l5.488,-6.091Zm-9.572,5.801l-4.969,-6.091l-1.941,-2.901l1.628,-2.611l4.702,-6.091c2.46,1.199 4.288,4.557 5.975,6.672c0.554,0.693 1.59,1.64 1.534,2.61c-0.057,0.973 -1.147,1.91 -1.731,2.611c-1.622,1.945 -3.153,4.295 -5.198,5.801Zm-18.564,-0.29c-1.432,-2.165 -5.927,-5.5 -6.093,-8.122c-0.153,-2.42 4.455,-6.72 5.803,-8.702c1.937,0.981 6.694,5.902 7,8.122c0.137,0.993 -0.814,1.896 -1.366,2.611c-1.522,1.97 -3.069,4.983 -5.344,6.091Zm34.807,-13.923l-1.16,10.152c-5.085,-3.074 -2.304,-7.124 1.16,-10.152Zm-49.31,0.87c1.242,1.427 2.573,2.929 3.036,4.411c0.463,1.482 0.06,2.944 -2.166,4.291l-0.87,-8.702Zm4.641,-16.243c1.556,2.352 3.498,4.497 5.293,6.671c0.692,0.837 2.068,2.002 2.009,3.191c-0.129,2.623 -4.38,6.538 -5.852,8.702c-2.286,-1.85 -3.989,-4.655 -5.801,-6.962c-0.761,-0.969 -1.967,-2.156 -1.95,-3.481c0.032,-2.445 4.462,-6.715 6.301,-8.121Zm37.998,18.564l-7.832,-9.282c1.428,-2.482 3.452,-4.712 5.221,-6.962c0.524,-0.666 1.209,-1.977 2.081,-2.22c0.892,-0.249 1.721,0.812 2.27,1.351c1.444,1.416 5.713,4.835 5.757,6.96c0.022,1.03 -1.153,2.137 -1.734,2.901c-1.868,2.457 -3.906,4.787 -5.763,7.252Zm-18.854,-18.274l6.961,8.702l0,0.29l-6.961,8.701l-0.29,0l-4.969,-5.801l-1.68,-2.61l1.681,-2.901l4.678,-6.381l0.58,-0Zm-9.282,6.671l-6.09,-6.961l-1.382,-2.901l6.602,-8.412c2.483,1.183 4.392,4.547 6.091,6.672c0.566,0.708 1.536,1.609 1.319,2.61c-0.632,2.91 -4.788,6.553 -6.54,8.992Zm18.564,-17.984l4.69,5.511l1.933,2.611l-1.73,2.901l-4.893,6.381l-0.58,0l-6.962,-8.702l0,-0.29l6.962,-8.412l0.58,0Zm17.113,0.58c1.063,1.395 3.089,2.718 3.71,4.351c0.898,2.364 -1.742,7.936 -2.259,10.443c-2.089,-1.196 -3.552,-3.518 -5.222,-5.222c-0.591,-0.602 -1.661,-1.389 -1.684,-2.32c-0.048,-1.912 4.003,-6.138 5.455,-7.252Zm-53.661,-0.29c1.304,1.917 5.478,5.805 5.474,8.122c-0.003,1.854 -3.495,5.062 -4.894,6.091c-1.262,-4.48 -4.42,-10.414 -0.58,-14.213Zm6.381,-29.876c3.076,5.836 3.655,13.168 5.611,19.434c0.61,1.957 2.992,5.625 2.799,7.542c-0.253,2.525 -4.927,6.633 -6.669,8.412l-0.29,-0c-1.72,-2.167 -5.327,-5.651 -5.826,-8.412c-0.333,-1.841 1.461,-4.717 1.719,-6.672c0.647,-4.915 0.67,-9.886 1.374,-14.793c0.253,-1.763 0.248,-4.023 1.282,-5.511Zm42.64,0l1.499,19.144l0.951,7.832l-5.641,8.121l-0.58,0c-1.618,-2.295 -5.893,-4.961 -6.377,-7.831c-0.266,-1.58 1.88,-4.513 2.412,-6.091c1.798,-5.337 3.141,-10.803 4.578,-16.244c0.545,-2.06 0.6,-4.846 3.158,-4.931Zm-21.175,0c1.235,6.366 2.278,12.844 3.809,19.144c0.504,2.077 2.597,5.805 2.284,7.832c-0.325,2.103 -3.87,5.056 -5.246,6.67c-0.549,0.643 -1.282,1.761 -2.252,1.233c-1.661,-0.902 -5.93,-6.024 -6.184,-7.903c-0.207,-1.54 1.42,-3.735 1.869,-5.221c1.171,-3.884 1.862,-7.913 2.605,-11.893c0.427,-2.287 0.689,-9.076 3.115,-9.862Zm43.509,1.16c-0.874,2.763 -2.762,5.201 -3.971,7.832c-3.238,7.046 -6.746,14.455 -8.501,22.045c-1.158,-0.551 -3.22,-2.267 -2.816,-3.771c0.677,-2.522 3.578,-5.472 4.886,-7.832c3.237,-5.834 5.749,-13.415 10.402,-18.274Zm-88.759,0.58c4.974,5.748 8.218,13.022 11.678,19.725c1.302,2.522 4.175,5.14 1.955,7.831l-8.928,-19.434l-4.705,-8.122Zm40.899,-1.74l-3.518,17.404l-2.573,7.251c-2.681,-4.709 -3.534,-10.477 -4.898,-15.663c-0.767,-2.92 -2.091,-5.987 -2.354,-8.992l13.343,0Zm44.38,0l-4.125,7.542l-9.218,16.533l-0.29,0c-0.613,-7.757 -0.204,-16.198 -2.031,-23.785c4.589,-1.356 10.873,-0.29 15.664,-0.29Zm-24.076,0c-0.799,5.937 -2.917,12.276 -4.74,17.984c-0.594,1.858 -1.106,4.971 -2.801,6.091c-2.016,-7.539 -4.769,-16.237 -4.931,-24.075l12.472,0Zm-41.188,0l-1.111,8.702l-1.79,15.083l-0.58,0l-7.955,-14.793l-5.678,-8.992l17.114,0Z" style="fill:#fff;"/><path d="M102.981,169.026c-0.711,-1.683 -2.441,-4.539 -4.145,-5.348c-1.236,-0.586 -2.709,-0.571 -3.977,-1.177c-1.302,-0.621 -2.214,-1.774 -3.481,-2.417c-1.707,-0.865 -4.213,-0.905 -6.091,-1.267c-8.792,-1.696 -17.541,-3.684 -26.106,-6.317c-3.843,-1.182 -8.324,-2.097 -11.602,-4.536c-7.44,-5.533 -6.381,-14.237 -6.381,-22.447l-0,-67.005c-0,-3.074 -0.1,-6.498 1.422,-9.282c2.168,-3.964 6.531,-6.365 10.18,-8.798c8.582,-5.721 17.76,-10.541 27.266,-14.529c22.281,-9.35 47.95,-15.551 72.225,-14.956c19.84,0.486 39.532,4.835 58.303,11.114c12.787,4.278 24.926,10.517 36.257,17.767c4.425,2.832 10.387,6.026 11.916,11.433c2.022,7.158 0.557,16.373 0.557,23.785l-0,48.73c-0,8.804 1.488,18.185 -6.381,24.212c-3.135,2.401 -7.592,3.302 -11.313,4.423c-7.269,2.19 -14.608,4.052 -22.045,5.592c-4.811,0.996 -8.931,1.33 -13.052,4.03c-2.003,1.312 -4.75,0.638 -6.518,1.78c-1.471,0.95 -2.406,3.655 -3.054,5.213c5.365,-0.044 10.958,-1.314 16.243,-2.201c11.364,-1.905 22.565,-4.376 33.647,-7.539c5.961,-1.701 14.045,-3.166 18.553,-7.675c6.065,-6.066 4.072,-16.262 4.072,-24.064l0,-60.043c0,-5.023 -0.119,-10.062 0.002,-15.083c0.084,-3.343 0.476,-6.588 -1.485,-9.572c-1.984,-3.018 -5.474,-5.135 -8.38,-7.17c-5.806,-4.065 -11.75,-7.814 -17.983,-11.193c-25.944,-14.065 -56.84,-22.967 -86.438,-23.691c-32.681,-0.801 -67.004,7.868 -95.72,23.401c-6.42,3.472 -12.617,7.248 -18.564,11.486c-2.701,1.925 -5.979,3.853 -7.937,6.587c-2.151,3.004 -1.926,6.366 -1.926,9.862l0,75.416c0,7.775 -1.97,18.02 4.073,24.064c4.482,4.482 12.625,5.983 18.552,7.675c15.714,4.485 32.908,9.036 49.311,9.74Z" style="fill:#fff;"/><path d="M90.952,155.289c0.576,-0.827 1.443,-1.389 2.5,-1.787c1.189,-0.449 2.737,-0.608 4.197,-0.871c6.146,-1.109 13.298,-0.171 19.545,-0.171l82.087,0c2.252,0 5.087,-0.227 7.049,0.433c1.346,0.452 2.42,1.202 3.041,2.408c0.67,-0.065 1.271,-0.131 1.803,-0.198c9.7,-1.233 19.332,-3.96 28.716,-6.631c4.121,-1.173 9.453,-2.255 12.417,-5.556c4.421,-4.919 2.666,-14.195 2.666,-20.3l-0,-64.974c-0,-2.448 0.148,-5.156 -1.346,-7.251c-1.656,-2.326 -4.439,-3.946 -6.776,-5.511c-4.605,-3.086 -9.342,-5.867 -14.213,-8.502c-22.587,-12.216 -50.231,-20.159 -75.996,-20.79c-28.428,-0.697 -56.925,5.736 -82.667,17.737c-6.927,3.229 -13.766,7.019 -20.015,11.432c-2.293,1.619 -5.093,3.108 -6.847,5.345c-1.586,2.022 -1.274,4.549 -1.274,6.96l-0,65.844c-0,5.891 -1.86,15.299 2.374,20.01c2.947,3.279 8.065,4.215 12.129,5.434c9.42,2.827 19.229,5.511 29.006,6.753c0.502,0.064 1.037,0.126 1.604,0.186Zm116.753,-84.157l-0,70.918l-42.151,0l0,-4.813l36.555,-0l0,-61.292l-91.761,0l-11.936,0.321c1.741,13.619 0.711,28.353 0.015,42.038c-0.302,5.921 1.38,12.864 -0.015,18.612l12.682,0.321l23.873,-0l0,4.813l-42.15,0l-0,-70.918l114.888,-0Z" style="fill:#fff;"/></g></g><g><path d="M117.666,135.789c0.908,0.806 2.11,2.236 2.927,3.484c0.636,0.998 1.94,3.665 2.44,5.026c1.157,3.155 2.042,7.376 2.507,11.994l0.205,1.906l-0.795,0.998c-6.513,8.363 -14.546,14.955 -23.964,19.664c-6.989,3.494 -14.591,5.82 -22.273,6.808c-2.065,0.261 -6.796,0.635 -6.796,0.533c-0,-0.023 0.317,-0.148 0.715,-0.272c1.202,-0.386 3.574,-1.362 5.355,-2.224c11.959,-5.753 22.614,-16.6 30.726,-31.283c2.61,-4.72 5.345,-10.892 7.126,-16.089c0.25,-0.726 0.477,-1.384 0.499,-1.475c0.068,-0.182 0,-0.227 1.328,0.93Z" style="fill:#fff;"/><path d="M109.587,131.988c1.782,0.318 4.539,1.226 4.539,1.487c-0,0.091 -1.044,3.086 -1.555,4.436c-1.225,3.291 -2.553,6.354 -4.187,9.645c-5.764,11.641 -13.241,21.15 -22.012,27.98c-6.603,5.14 -14.319,8.623 -21.887,9.883c-0.999,0.159 -1.827,0.329 -1.85,0.374c-0.056,0.159 -4.402,-0.465 -6.887,-0.975c-16.112,-3.37 -30.318,-12.05 -40.473,-24.724c-1.18,-1.475 -3.041,-4.006 -3.041,-4.131c0,-0.034 0.579,-0.034 1.282,0.023c1.498,0.114 6.57,0.023 8.59,-0.147c8.044,-0.692 16.861,-2.758 27.628,-6.445c5.016,-1.725 9.157,-3.279 19.062,-7.171c10.099,-3.96 13.786,-5.333 18.552,-6.899c6.161,-2.019 10.893,-3.12 15.318,-3.54c1.702,-0.159 5.525,-0.045 6.921,0.204Z" style="fill:#fff;"/><path d="M124.054,115.105c3.461,1.316 7.999,3.426 10.212,4.743c2.167,1.293 3.937,2.779 4.561,3.857l0.295,0.488l-0.193,1.498c-1.169,8.907 -4.323,18.154 -8.85,25.87c-0.987,1.679 -2.099,3.472 -2.111,3.37c0,-0.034 -0.124,-0.896 -0.272,-1.929c-1.123,-7.557 -3.234,-13.162 -6.433,-17.088c-0.829,-1.01 -2.565,-2.655 -3.427,-3.245c-0.465,-0.318 -0.635,-0.499 -0.601,-0.635c1.486,-4.879 2.904,-11.324 3.528,-16.078c0.103,-0.692 0.205,-1.407 0.227,-1.611l0.068,-0.364l0.874,0.318c0.477,0.182 1.441,0.545 2.122,0.806Z" style="fill:#fff;"/><path d="M6.784,146.54l0,-0c0.023,0.034 0.855,1.719 1.32,2.616c0.477,0.896 1.18,2.178 1.589,2.836l0.726,1.203l0.647,0.068c0.363,0.045 1.77,0.136 3.131,0.204c5.515,0.307 12.515,-0.431 19.539,-2.053c8.578,-1.986 16.225,-4.528 31.259,-10.417c1.589,-0.624 4.687,-1.826 6.865,-2.689c14.444,-5.662 21.763,-7.897 28.99,-8.873c2.202,-0.295 7.16,-0.295 8.851,0c1.906,0.341 4.141,0.988 5.003,1.441c0.148,0.091 0.216,0.068 0.261,-0.09c1.169,-4.006 2.02,-7.659 2.735,-11.665c0.374,-2.076 0.851,-5.378 0.851,-5.82c-0,-0.216 0.159,-0.159 -4.074,-1.487c-18.687,-5.889 -43.4,-10.609 -63.778,-12.186c-17.088,-1.327 -30.908,-0.499 -39.543,2.372c-3.857,1.282 -6.478,2.734 -8.396,4.652c-0.976,0.964 -1.486,1.679 -2.133,2.95l-0.397,0.794l-0.148,2.439c-0.147,2.587 -0.091,7.047 0.125,9.475c0.703,8.158 2.916,16.498 6.195,23.419c0.14,0.295 0.271,0.573 0.382,0.811Z" style="fill:#fff;"/><path d="M43.153,53.55c2.599,0.454 6.434,1.6 9.078,2.723c5.276,2.236 10.87,5.651 17.927,10.938c1.963,1.475 2.859,2.167 9.701,7.512c5.708,4.459 9.441,7.193 12.833,9.383c7.33,4.72 13.605,7.341 19.732,8.238c1.6,0.238 4.913,0.442 5.639,0.363c0.703,-0.08 0.647,-0.204 0.817,1.747c0.397,4.38 0.431,10.235 0.113,14.388c-0.124,1.509 -0.158,1.724 -0.317,1.656c-0.102,-0.045 -1.453,-0.476 -3.019,-0.976c-19.243,-6.081 -44.171,-10.847 -65.242,-12.447c-5.968,-0.454 -7.738,-0.522 -14.637,-0.522c-7.159,0.012 -9.032,0.091 -13.729,0.636c-9.531,1.089 -16.793,3.619 -20.56,7.182c-0.272,0.25 -0.488,0.431 -0.488,0.397c0,-0.034 0.136,-0.726 0.295,-1.532c1.827,-9.247 5.549,-18.143 10.802,-25.858c5.106,-7.489 11.596,-13.9 19.085,-18.835c2.383,-1.566 4.153,-2.599 6.978,-4.051l2.383,-1.237l0.794,0.057c0.443,0.034 1.259,0.136 1.815,0.238Z" style="fill:#fff;"/><path d="M73.675,47.026c6.094,0.397 11.676,1.43 17.247,3.188c1.418,0.454 2.122,0.749 3.234,1.373c6.388,3.586 11.846,8.805 15.874,15.17c3.494,5.503 6.07,12.028 7.568,19.131c0.215,0.987 0.726,3.914 0.726,4.107c-0,0.182 -2.462,0.204 -4.085,0.034c-7.341,-0.772 -14.625,-4.017 -24.168,-10.768c-2.303,-1.634 -5.594,-4.13 -10.802,-8.203c-7.159,-5.617 -9.224,-7.16 -12.799,-9.622c-7.239,-4.981 -13.683,-8.147 -19.742,-9.69c-0.84,-0.216 -1.453,-0.42 -1.362,-0.454c7.194,-2.587 13.309,-3.835 21.048,-4.3c1.395,-0.091 5.718,-0.068 7.261,0.034Z" style="fill:#fff;"/><path d="M133.61,88.525c2.945,6.65 4.86,13.765 5.58,21.077c0.318,3.211 0.454,8.169 0.284,10.064l-0.08,0.749l-0.851,-0.681c-3.029,-2.405 -8.022,-4.924 -14.546,-7.341c-1.214,-0.454 -2.315,-0.862 -2.439,-0.919c-0.227,-0.091 -0.239,-0.102 -0.08,-1.827c0.261,-2.723 0.25,-12.163 -0.011,-14.716c-0.272,-2.712 -0.306,-2.474 0.408,-2.565c1.963,-0.261 5.084,-1.077 7.387,-1.94c0.962,-0.354 3.405,-1.431 4.009,-1.748l-0,0l0.339,-0.153Zm-1.376,-2.148l-1.02,0.475c-3.257,1.532 -7.569,2.848 -9.713,2.973l-0.613,0.034l-0.147,-0.908c-2.054,-12.64 -7.024,-23.328 -14.456,-31.089c-1.588,-1.657 -1.611,-1.657 1.146,0.091c10.858,6.901 19.529,16.811 25.105,28.261l-0.313,0.141l0.011,0.022Z" style="fill:#fff;"/></g><g><path d="M314.093,135.44c-4.372,-3.363 -9.584,-5.549 -15.132,-5.549c-12.946,0 -21.521,9.079 -21.521,22.025c0,10.256 7.062,16.982 13.955,23.034c7.061,6.221 13.955,11.938 13.955,20.512c-0,7.23 -5.044,13.114 -12.61,13.114c-6.557,0 -11.097,-4.035 -15.3,-8.406l0,12.778c4.203,3.362 10.256,5.884 15.636,5.884c14.291,0 23.539,-10.928 23.539,-24.715c-0,-11.265 -6.894,-17.654 -13.955,-23.538c-6.894,-5.717 -13.955,-10.76 -13.955,-18.999c-0,-6.389 4.203,-11.433 10.76,-11.433c6.053,0 11.097,4.204 14.291,8.743l0.337,0l-0,-13.45Z" style="fill:#fff;fill-rule:nonzero;"/><path d="M334.531,82.983l-10.928,0l-0,134.504l10.928,0l0,-41.36l0.336,0l26.565,41.36l13.619,0l-32.45,-47.581l25.724,-38.67l-12.441,0l-21.017,34.972l-0.336,-0l0,-83.225Z" style="fill:#fff;fill-rule:nonzero;"/><path d="M384.043,167.384c0,-7.734 2.354,-27.237 12.778,-27.237c11.433,0 11.769,17.486 12.106,25.724l0.168,1.513l-25.052,0Zm36.148,9.248l0,-5.212c0,-15.132 -3.194,-41.529 -23.37,-41.529c-20.848,0 -24.211,29.255 -24.211,44.723c0,17.317 3.027,44.218 25.724,44.218c15.973,0 21.017,-17.485 21.185,-30.599l-11.265,-0c0,6.893 -1.345,20.343 -10.928,20.343c-11.938,0 -13.451,-20.848 -13.451,-29.422l0,-2.522l36.316,-0Z" style="fill:#fff;fill-rule:nonzero;"/><path d="M455.076,131.236l-14.291,0l0,-23.538l-10.928,0l-0,23.538l-9.248,0l0,10.088l9.248,0l-0,76.163l10.928,0l0,-76.163l14.291,0l0,-10.088Z" style="fill:#fff;fill-rule:nonzero;"/><path d="M483.154,209.921c-13.955,0 -12.61,-27.405 -12.61,-37.997c0,-7.734 -1.177,-33.122 12.105,-33.122c10.929,0 12.778,14.123 12.778,33.794c0,29.591 -3.362,37.325 -12.273,37.325Zm-22.53,7.566l10.929,0l-0,-6.725l0.336,0c3.195,4.876 8.07,8.07 14.291,8.07c18.831,0 20.512,-23.538 20.512,-45.395c0,-19.503 -1.345,-43.546 -21.352,-43.546c-6.221,0 -10.256,2.354 -13.451,7.23l-0.336,-0l-0,-54.138l-10.929,0l0,134.504Z" style="fill:#fff;fill-rule:nonzero;"/><path d="M548.651,172.933c0,27.069 -2.017,36.988 -12.609,36.988c-6.389,0 -12.274,-1.681 -12.274,-37.325c0,-14.627 0.673,-33.794 12.778,-33.794c10.76,0 12.105,15.468 12.105,34.131Zm9.92,-41.697l-10.928,0l-0,5.885l-0.337,-0c-3.362,-4.708 -7.229,-7.23 -13.282,-7.23c-20.848,0 -21.521,24.211 -21.521,43.546c0,37.661 6.726,45.395 20.512,45.395c6.221,0 11.097,-3.194 14.291,-8.07l0.337,0l-0,6.725l10.928,0l0,-86.251Z" style="fill:#fff;fill-rule:nonzero;"/><rect x="568.357" y="82.983" width="10.928" height="134.504" style="fill:#fff;fill-rule:nonzero;"/><rect x="589.072" y="82.983" width="10.928" height="134.504" style="fill:#fff;fill-rule:nonzero;"/><path d="M189.521,209.921c-13.955,0 -12.61,-27.405 -12.61,-37.997c0,-7.734 -1.177,-33.122 12.106,-33.122c10.928,0 12.777,14.123 12.777,33.794c0,29.591 -3.362,37.325 -12.273,37.325Zm-22.53,7.566l10.929,0l-0,-6.725l0.336,0c3.195,4.876 8.07,8.07 14.291,8.07c18.831,0 20.512,-23.538 20.512,-45.395c0,-19.503 -1.345,-43.546 -21.352,-43.546c-6.221,0 -10.256,2.354 -13.451,7.23l-0.336,-0l-0,-54.138l-10.929,0l0,134.504Z" style="fill:#fff;fill-rule:nonzero;"/><path d="M259.295,172.933c0,27.069 -2.018,36.988 -12.61,36.988c-6.389,0 -12.273,-1.681 -12.273,-37.325c-0,-14.627 0.672,-33.794 12.778,-33.794c10.76,0 12.105,15.468 12.105,34.131Zm9.92,-41.697l-10.929,0l0,5.885l-0.336,-0c-3.363,-4.708 -7.23,-7.23 -13.282,-7.23c-20.848,0 -21.521,24.211 -21.521,43.546c0,37.661 6.725,45.395 20.512,45.395c6.221,0 11.097,-3.194 14.291,-8.07l0.336,0l0,6.725l10.929,0l-0,-86.251Z" style="fill:#fff;fill-rule:nonzero;"/></g></g></svg>