<svg clip-rule="evenodd" fill-rule="evenodd" stroke-linejoin="round" stroke-miterlimit="2" viewBox="0 0 600 220" xmlns="http://www.w3.org/2000/svg"><g fill="#fff" fill-rule="nonzero"><path d="m309.526 136.452c-15.529 0-24.193-13.404-24.193-27.788 0-14.222 8.991-27.462 24.193-27.462 15.856 0 24.846 12.586 24.846 27.462 0 15.038-8.827 27.788-24.846 27.788zm-23.376-66.039h-14.711v120.309h14.711v-55.741h.327c5.885 8.664 15.202 14.548 25.991 14.548 23.539 0 36.616-19.452 36.616-41.356 0-20.923-13.895-40.048-35.962-40.048-11.443 0-20.597 5.884-26.645 15.038h-.327z"/><path d="m397.469 68.125c-22.885 0-40.866 17.654-40.866 40.702s17.981 40.702 40.866 40.702 40.866-17.654 40.866-40.702-17.981-40.702-40.866-40.702zm0 14.057c14.548 0 26.154 12.097 26.154 26.645 0 14.385-11.606 26.644-26.154 26.644s-26.154-12.259-26.154-26.644c0-14.548 11.606-26.645 26.154-26.645z"/><path d="m467.431 70.413h-14.711v76.501h14.711v-37.597c0-12.423 1.962-27.135 17.818-27.135 3.432 0 6.375.818 8.99 3.106l6.702-13.404c-3.596-2.288-7.846-3.759-12.096-3.759-9.808 0-17.327 5.721-20.923 14.711h-.491z"/><path d="m529.22 84.144h14.385v-13.731h-14.385v-29.26h-14.711v29.26h-8.01v13.731h8.01v62.77h14.711z"/><path d="m594.279 81.529c-4.087-8.337-11.606-13.404-20.924-13.404-12.423 0-22.557 9.807-22.557 22.231 0 10.461 6.211 14.711 14.711 19.288l14.385 7.683c3.433 2.289 5.394 4.25 5.394 8.337 0 6.538-5.394 10.788-11.606 10.788-7.029 0-10.788-4.086-13.894-9.808l-12.587 5.722c4.087 10.788 15.366 17.163 26.481 17.163 14.222 0 26.318-10.788 26.318-25.336 0-12.097-8.664-17.655-17.654-21.741-8.991-4.087-17.818-7.029-17.818-13.731 0-4.25 3.924-7.519 8.01-7.519 4.25 0 8.01 2.942 9.808 6.702z"/><path d="m115.53 110.953c12.04-14.074 29.918-22.998 49.887-22.998 4.006 0 7.926.379 11.732 1.061 2.568-7.023 3.97-14.609 3.97-22.523-.002-36.25-29.398-65.639-65.649-65.639-36.258 0-65.647 29.389-65.647 65.645 0 7.924 1.412 15.514 3.983 22.542 3.843-.699 7.795-1.086 11.842-1.086 19.969.003 37.841 8.929 49.882 22.998zm61.617-21.931c-7.879 21.568-26.749 37.833-49.826 42.047 2.569 7.028 3.973 14.623 3.973 22.532 0 16.29-5.943 31.176-15.761 42.647 12.039 14.074 29.913 23.004 49.883 23.004 36.257 0 65.648-29.392 65.648-65.651 0-32.248-23.259-59.045-53.917-64.579zm-73.406 42.06c-23.126-4.177-42.037-20.456-49.935-42.038-30.599 5.575-53.806 32.35-53.806 64.557 0 36.259 29.393 65.651 65.646 65.651 19.971 0 37.846-8.93 49.886-23-9.816-11.475-15.76-26.361-15.76-42.646.002-7.915 1.403-15.502 3.969-22.524zm0 0c3.808.689 7.722 1.057 11.73 1.057 4.048 0 8.006-.375 11.852-1.074-2.715-7.435-6.746-14.215-11.791-20.117-5.049 5.902-9.076 12.704-11.791 20.134z"/></g></svg>