<svg clip-rule="evenodd" fill-rule="evenodd" stroke-linejoin="round" stroke-miterlimit="2" viewBox="0 0 600 118" xmlns="http://www.w3.org/2000/svg"><g fill="#fff"><path d="m350.282 35.055h15.097v11.017h-15.097z"/><path d="m350.282 56.681h15.097v42.173h-15.097z"/><path d="m477.818 35.055h15.097v11.017h-15.097z"/><path d="m477.818 56.681h15.097v42.028h-15.097z"/><path d="m421.394 45.688c-8.481.069-16.935 3.734-21.331 10.993-2.473 4.084-2.949 8.492-3.033 13.022l-.012-.007v29.012h-14.04v-34.734c0-4.34 1.702-8.279 3.149-10.966 6.653-12.354 21.118-18.738 35.467-18.726l.336.001c14.238.087 28.53 6.467 35.131 18.725 1.447 2.687 3.15 6.626 3.15 10.966v34.734h-14.04v-29.012l-.013.007c-.084-4.53-.56-8.938-3.033-13.022-4.431-7.316-12.983-10.981-21.531-10.994z"/><path d="m261.982 47.395c7.527-8.669 19.595-13.123 31.583-13.113l.336.001c14.238.087 28.529 6.467 35.131 18.725 1.446 2.687 3.149 6.626 3.149 10.966v34.734h-14.04v-29.012l-.013.007c-.084-4.531-.559-8.938-3.033-13.022-4.43-7.316-12.983-10.981-21.53-10.994l-.201.001c-8.48.069-16.934 3.734-21.33 10.993-2.351 3.882-2.897 8.056-3.017 12.35v29.677h-14.069v-29.677c-.12-4.294-.666-8.468-3.017-12.35-4.431-7.316-12.983-10.981-21.531-10.994l-.2.001c-8.481.069-16.935 3.734-21.331 10.993-2.473 4.084-2.949 8.491-3.033 13.022l-.012-.007v29.012h-14.041v-34.734c0-4.34 1.703-8.279 3.15-10.966 6.653-12.354 21.118-18.738 35.467-18.726l.336.001c11.876.073 23.789 4.523 31.246 13.112z"/><path d="m600 18.734-12.206-.101c-12.272.078-24.369 1.535-32.896 11.934-4.663 5.686-6.792 12.714-7.111 19.993-.563 12.875 2.48 27.439-11.849 34.143-2.722 1.274-5.616 1.862-8.568 2.283-5.589.797-11.497.297-17.138.297v11.425c15.138 0 33.198 2.215 44.297-10.615 4.164-4.813 6.631-10.409 7.407-16.723 1.719-13.999-3.904-30.914 11.95-38.841 2.295-1.148 4.813-1.833 7.344-2.196 6.058-.87 12.652-.174 18.77-.174z"/><path d="m90.201 9.574c20.799 7.18 27.848 16.118 27.848 36.258 0 19.623-12.052 27.064-27.358 19.634v-36.596c0-4.289-.784-8.241-4.79-9.362-3.07-.991-4.976 1.878-4.976 6.167v91.584l-24.56-7.838v-109.193c10.446 1.948 25.66 6.532 33.836 9.324v.022z"/><path d="m85.579 101.332 39.503-14.098c4.485-1.633 5.171-3.887 1.529-5.079-3.641-1.192-10.222-.854-14.697.762l-26.324 9.287v-14.801l1.524-.517c5.948-1.924 12.079-3.225 18.295-3.881 10.697-1.181 23.793.163 34.07 4.061 11.589 3.668 12.895 9.074 9.951 12.797-2.945 3.723-10.163 6.374-10.163 6.374l-53.677 19.318z"/><path d="m11.311 99.84c-11.861-3.391-13.875-10.391-8.454-14.424 5.014-3.74 13.538-6.532 13.538-6.532l35.202-12.574v14.326l-25.333 9.107c-4.48 1.633-5.166 3.898-1.525 5.09 3.642 1.192 10.223.854 14.697-.757l12.15-4.431v12.819c-.768.142-1.633.278-2.422.408-12.677 2.068-25.668 1.027-37.853-3.032z"/></g></svg>