<svg clip-rule="evenodd" fill-rule="evenodd" stroke-linejoin="round" stroke-miterlimit="2" viewBox="0 0 600 103" xmlns="http://www.w3.org/2000/svg"><g fill="#fff"><path d="m246.165 37.54 16.028 42.007-9.202 22.535h7.272l26.498-64.542h-8.119l-11.543 31.458-10.739-31.458z"/><path d="m293.357 80.237v-5.304s9.264.363 11.194.363c4.275 0 6.41-.911 8.017-2.634.949-1.034 1.806-5.612 1.806-7.244 0-1.625-.313-5.14-.949-6.58-.657-1.411-2.15-2.728-4.388-2.919-1.596-.137-4.063-.46-6.948-.593-4.046-.191-6.72-2.302-8.008-3.819-1.276-1.519-2.987-3.806-2.987-10.804 0-7.006 1.812-10.934 3.629-12.756 1.817-1.832 4.475-2.635 6.518-2.997 2.35-.401 6.189-.426 6.189-.426l12.263.358v5.303s-8.942-.357-10.866-.357c-4.276 0-5.559.916-7.16 2.635-.945 1.022-1.684 3.853-1.684 5.475 0 1.629.19 4.921.832 6.345.636 1.412 2.135 2.733 4.378 2.934 1.591.123 4.064.446 6.944.577 4.064.192 6.733 2.297 8.006 3.821 1.289 1.522 3.002 4.73 3.002 11.722 0 7.008-1.827 12.013-3.634 13.84-1.821 1.821-4.475 2.635-6.517 2.987-2.356.405-6.195.436-6.195.436z"/><path d="m190.799 24.452h8.76v56.119h-8.76z"/><path d="m341.157 29.827h-8.756v41.199s.21 3.761.426 5.083c.215 1.322 2.14 4.462 7.158 4.462l9.074-.177v-5.284s-2.457.176-3.94.176c-1.504 0-3.326-.098-3.634-2.639-.33-2.537-.33-5.568-.33-5.568v-24.259h9.893v-5.28h-9.893v-7.712z"/><path d="m425.698 37.543h8.756v43.028h-8.756z"/><path d="m408.254 29.827h-8.76v41.199s.206 3.761.417 5.083c.22 1.322 2.129 4.462 7.169 4.462l9.073-.177v-5.284s-2.463.176-3.951.176-3.315-.098-3.634-2.639c-.313-2.537-.313-5.568-.313-5.568v-24.259h9.867v-5.28h-9.867z"/><path d="m147.598 24.451v56.118h8.761v-50.74h8.109s5.892 0 7.909 2.635c1.714 2.238 2.027 6.298 2.027 9.04 0 2.934-.185 7.468-1.17 9.128-1.494 2.536-3.947 3.044-6.19 3.044h-5.353v4.981h7.698s6.945.29 9.932-2.746c3.662-3.723 4.593-8.727 4.593-15.426 0-6.087-2.209-12.228-6.723-14.314-3.737-1.719-10.475-1.719-10.475-1.719z"/><path d="m498.927 43.583 8.589-.362c2.247 0 4.893.607 6.176 2.233 1.194 1.532 1.948 3.359 1.948 6.302v28.765h8.771v-29.489c0-5.578-1.719-8.82-4.295-10.857-3.673-2.913-10.253-2.635-10.253-2.635l-19.623.353v42.628h8.687z"/><path d="m232.801 51.756c0-2.943-.748-4.77-1.954-6.302-1.283-1.626-3.917-2.234-6.171-2.234l-11.552.363v-5.69l13.903-.353s6.581-.279 10.259 2.635c2.566 2.038 4.27 5.279 4.27 10.857v29.078l-16.786.362s-7.6.027-11.43-1.522c-3.731-1.519-5.768-5.686-5.768-11.469 0-5.583 1.709-8.825 4.275-10.862 3.677-2.918 10.254-2.63 10.254-2.63h5.362v4.957h-3.008c-2.251 0-4.567.416-5.856 2.041-1.199 1.518-1.841 2.836-1.841 5.779 0 3.864.749 5.586 2.566 6.9 1.607 1.17 4.481 1.424 7.689 1.424l5.788-.352z"/><path d="m380.507 51.756c0-2.943-.733-4.77-1.938-6.302-1.298-1.626-3.933-2.234-6.169-2.234l-11.548.363v-5.69l13.892-.353s6.577-.279 10.251 2.635c2.566 2.038 4.279 5.279 4.279 10.857v29.078l-16.787.362s-7.61.027-11.43-1.522c-3.736-1.519-5.778-5.686-5.778-11.469 0-5.583 1.724-8.825 4.275-10.862 3.673-2.918 10.264-2.63 10.264-2.63h5.357v4.957h-3.011c-2.238 0-4.569.416-5.842 2.041-1.205 1.518-1.851 2.836-1.851 5.779 0 3.864.754 5.586 2.566 6.9 1.601 1.17 4.491 1.424 7.698 1.424l5.774-.352z"/><path d="m462.132 37.173c5.959 0 10.583 1.332 13.065 3.34 2.507 2.013 5.586 6.259 5.586 18.544 0 12.287-3.079 16.528-5.586 18.546-2.484 2.007-7.106 3.349-13.065 3.349-5.976 0-10.578-1.342-13.08-3.349-2.502-2.018-5.568-6.259-5.568-18.546 0-12.285 3.066-16.532 5.568-18.544 2.502-2.008 7.104-3.34 13.08-3.34zm-6.004 8.251c-1.205 1.485-2.674 4.604-2.674 13.633 0 9.026 1.469 12.15 2.673 13.628 1.201 1.471 3.413 2.464 6.278 2.464 2.87 0 5.073-.994 6.289-2.463 1.199-1.479 2.668-4.604 2.668-13.627 0-9.031-1.469-12.151-2.668-13.634-1.216-1.473-3.419-2.459-6.289-2.459-2.864 0-5.077.984-6.278 2.459z"/><path d="m425.698 24.449h8.756v7.812h-8.756z"/><path d="m45.738.139v88.118l19.952 6.321v-73.885c0-3.482 1.553-5.794 4.042-4.999 3.255.903 3.888 4.11 3.888 7.553v29.508c12.419 6.011 22.197-.003 22.197-15.863 0-16.206-5.732-23.426-22.601-29.231-6.652-2.215-18.982-5.953-27.477-7.522" fill-rule="nonzero"/><path d="m69.485 81.696 32.044-11.406c3.626-1.344 4.18-3.169 1.246-4.128-2.98-.977-8.299-.698-11.962.618l-21.328 7.523v-12.004l1.221-.403s6.174-2.188 14.857-3.129c8.666-.95 19.294.124 27.648 3.272 9.409 2.989 10.464 7.349 8.083 10.384-2.415 3.003-8.271 5.175-8.271 5.175l-43.538 15.64z"/><path d="m9.182 80.482c-9.649-2.688-11.257-8.367-6.856-11.647 4.06-2.996 10.974-5.251 10.974-5.251l28.581-10.191v11.599l-20.549 7.365c-3.639 1.302-4.185 3.134-1.253 4.092 2.984.997 8.279.73 11.921-.614l9.881-3.563v10.354c-.637.107-1.345.215-1.992.325-9.851 1.635-20.345.964-30.707-2.469z"/><path d="m599.981 34.738c.109 6.357-.201 9.704-2.338 12.886-1.884 2.795-5.613 5.345-13.855 5.345l-10.226-.303c-1.618.03-5.788.502-7.766 2.618-1.693 1.829-1.826 3.198-1.996 8.065v14.274h34.755v6.991h-37.993l-1.826-.011c-2.582 0-5.121-1.752-5.121-5.258v-10.648c.182-12.439 1.071-14.221 3.773-17.485 1.874-2.255 6.277-4.78 11.617-5.048 1.052-.047 3.024-.181 5.799-.106 2.02.09 4.042.148 4.927.164 4.735.048 6.459-.825 7.755-2.521 1.478-1.906 2.272-4.164 2.272-7.856 0-3.46-.706-6.72-2.026-8.233-1.595-1.754-3.126-2.924-7.569-2.924-11.243-.03-24.361.268-24.361.268v-6.604s12.821-.546 25.897-.738c8.141-.14 12.631 2.025 14.914 5.003 2.412 3.1 3.261 6.035 3.368 12.121z" fill-rule="nonzero"/></g></svg>