<svg clip-rule="evenodd" fill-rule="evenodd" stroke-linejoin="round" stroke-miterlimit="2" viewBox="0 0 600 263" xmlns="http://www.w3.org/2000/svg"><g fill="#fff"><g fill-rule="nonzero"><path d="m164.667 86.893c0 4.014-.789 7.801-2.367 11.364-1.579 3.562-3.788 6.651-6.629 9.266 2.841 2.615 5.05 5.704 6.629 9.267 1.578 3.562 2.367 7.327 2.367 11.295 0 7.756-2.739 14.385-8.218 19.886s-12.119 8.252-19.92 8.252h-39.636c-.541 0-1.083-.068-1.624-.203-.045 0-.112-.022-.203-.067-.721-.226-1.149-.361-1.285-.406-.045 0-.101-.023-.169-.068-.067-.045-.124-.09-.169-.135-.451-.271-.766-.474-.947-.609-.18-.09-.315-.18-.406-.27l-1.082-1.15c-.27-.361-.451-.632-.541-.812l-.676-1.353c0-.045-.023-.135-.068-.27-.045-.136-.068-.248-.068-.339 0-.135-.022-.304-.067-.507s-.09-.349-.136-.439l-.067-.88v-82.384l.067-1.285.068-.068v-.067c0-.091.023-.181.068-.271s.067-.18.067-.27c.091-.361.181-.632.271-.812l.541-1.082c1.533-2.435 3.675-3.653 6.426-3.653h39.636c7.801 0 14.441 2.739 19.92 8.218s8.218 12.096 8.218 19.852zm-28.138 54.247c3.608 0 6.685-1.274 9.233-3.822s3.821-5.625 3.821-9.233c0-3.607-1.273-6.685-3.821-9.232-2.548-2.548-5.625-3.822-9.233-3.822h-32.061v26.109zm0-41.192c3.608 0 6.685-1.274 9.233-3.822s3.821-5.625 3.821-9.233c0-3.607-1.273-6.685-3.821-9.232-2.548-2.548-5.625-3.822-9.233-3.822h-32.061v26.109z"/><path d="m182.659 99.474c6.493-6.493 14.317-9.74 23.471-9.74 9.153 0 16.988 3.247 23.504 9.74s9.774 14.317 9.774 23.471-3.258 16.988-9.774 23.504-14.351 9.774-23.504 9.774c-9.154 0-16.978-3.258-23.471-9.774-6.494-6.516-9.74-14.35-9.74-23.504s3.246-16.978 9.74-23.471zm10.619 36.322c3.562 3.562 7.846 5.344 12.852 5.344 5.005 0 9.289-1.782 12.851-5.344s5.343-7.846 5.343-12.851-1.781-9.278-5.343-12.818-7.846-5.309-12.851-5.309c-5.006 0-9.278 1.769-12.818 5.309s-5.31 7.813-5.31 12.818 1.759 9.289 5.276 12.851z"/><path d="m254.356 99.474c6.493-6.493 14.317-9.74 23.471-9.74s16.988 3.247 23.504 9.74 9.774 14.317 9.774 23.471v25.77c0 2.12-.721 3.901-2.164 5.344s-3.224 2.164-5.344 2.164c-1.758 0-3.303-.53-4.633-1.589-1.33-1.06-2.221-2.402-2.672-4.025-5.636 3.743-11.792 5.614-18.465 5.614-9.154 0-16.978-3.258-23.471-9.774s-9.74-14.35-9.74-23.504 3.247-16.978 9.74-23.471zm10.619 36.322c3.563 3.562 7.846 5.344 12.852 5.344 5.005 0 9.289-1.782 12.851-5.344s5.344-7.846 5.344-12.851-1.782-9.278-5.344-12.818-7.846-5.309-12.851-5.309c-5.006 0-9.278 1.769-12.818 5.309s-5.309 7.813-5.309 12.818 1.758 9.289 5.275 12.851z"/><path d="m383.343 112.799c.722 2.39.316 4.588-1.217 6.595-1.533 2.006-3.562 3.01-6.088 3.01-1.623 0-3.1-.496-4.43-1.488s-2.243-2.3-2.739-3.923c-1.173-3.608-3.292-6.539-6.358-8.793-3.067-2.255-6.539-3.382-10.417-3.382-4.87 0-9.03 1.713-12.479 5.14-3.45 3.427-5.175 7.576-5.175 12.446v26.311c0 2.3-.879 4.205-2.637 5.716-1.759 1.51-3.811 2.085-6.156 1.724-1.848-.315-3.359-1.228-4.531-2.739-1.173-1.51-1.759-3.213-1.759-5.107v-25.905c0-9.019 3.202-16.718 9.605-23.099s14.114-9.571 23.132-9.571c7.26 0 13.765 2.153 19.514 6.46 5.749 4.306 9.661 9.841 11.735 16.605z"/><path d="m448.006 58.755c2.074 0 3.844.745 5.31 2.233 1.465 1.488 2.198 3.269 2.198 5.343v56.614c0 9.154-3.258 16.988-9.774 23.504s-14.35 9.774-23.504 9.774-16.978-3.258-23.471-9.774-9.74-14.35-9.74-23.504 3.247-16.978 9.74-23.471 14.317-9.74 23.471-9.74c6.673 0 12.738 1.804 18.195 5.411v-28.814c0-2.119.732-3.912 2.198-5.377 1.465-1.466 3.258-2.199 5.377-2.199zm-38.622 77.041c3.563 3.562 7.847 5.344 12.852 5.344s9.289-1.782 12.851-5.344 5.344-7.846 5.344-12.851-1.782-9.278-5.344-12.818-7.846-5.309-12.851-5.309-9.278 1.769-12.818 5.309-5.309 7.813-5.309 12.818 1.758 9.289 5.275 12.851z"/><path d="m66.354 185.329c2.074 0 3.844.733 5.309 2.199 1.466 1.465 2.199 3.258 2.199 5.377v14.069c0 8.297-2.526 15.636-7.576 22.016-5.05 6.381-11.476 10.36-19.277 11.939-2.39.45-4.599.676-6.629.676-7.305 0-14.057-2.176-20.257-6.527-6.201-4.352-11.104-10.27-14.712-17.755-3.607-7.486-5.411-15.625-5.411-24.418s1.804-16.932 5.411-24.418c3.608-7.485 8.511-13.403 14.712-17.755 6.2-4.351 12.952-6.527 20.257-6.527 6.449 0 12.502 1.691 18.161 5.073 5.66 3.382 10.406 8.184 14.238 14.407 1.083 1.759 1.376 3.664.88 5.715-.496 2.052-1.624 3.619-3.382 4.701-1.759 1.083-3.653 1.387-5.682.913-2.029-.473-3.585-1.589-4.667-3.348-2.435-3.968-5.355-7.034-8.759-9.199-3.405-2.164-7.001-3.246-10.789-3.246-6.944 0-12.896 3.292-17.856 9.875-4.96 6.584-7.441 14.52-7.441 23.809 0 6.087 1.128 11.713 3.382 16.876 2.255 5.163 5.333 9.244 9.233 12.242 3.901 2.999 8.128 4.498 12.682 4.498 1.488 0 2.729-.112 3.721-.338 4.283-.856 7.801-3.089 10.551-6.696 2.751-3.607 4.126-7.778 4.126-12.513v-6.561h-17.045c-2.074 0-3.855-.733-5.343-2.198-1.488-1.466-2.232-3.236-2.232-5.31s.744-3.855 2.232-5.344c1.488-1.488 3.269-2.232 5.343-2.232z"/><path d="m91.718 184.856c6.494-6.493 14.317-9.74 23.471-9.74s16.989 3.247 23.505 9.74c6.515 6.493 9.773 14.317 9.773 23.471v25.77c0 2.119-.721 3.901-2.164 5.343-1.443 1.443-3.224 2.165-5.344 2.165-1.758 0-3.303-.53-4.633-1.59-1.33-1.059-2.221-2.401-2.672-4.024-5.636 3.743-11.791 5.614-18.465 5.614-9.154 0-16.977-3.258-23.471-9.774-6.493-6.516-9.74-14.351-9.74-23.504 0-9.154 3.247-16.978 9.74-23.471zm10.62 36.322c3.562 3.562 7.846 5.343 12.851 5.343s9.289-1.781 12.851-5.343c3.563-3.562 5.344-7.846 5.344-12.851 0-5.006-1.781-9.278-5.344-12.818-3.562-3.54-7.846-5.31-12.851-5.31s-9.278 1.77-12.818 5.31c-3.539 3.54-5.309 7.812-5.309 12.818 0 5.005 1.758 9.289 5.276 12.851z"/><path d="m239.78 175.116c9.018 0 16.718 3.19 23.099 9.571 6.38 6.38 9.57 14.08 9.57 23.098v26.312c0 2.3-.879 4.194-2.637 5.682-1.759 1.488-3.811 2.051-6.156 1.691-1.848-.316-3.359-1.218-4.531-2.706-1.173-1.488-1.759-3.179-1.759-5.073v-25.906c0-4.87-1.714-9.018-5.141-12.445s-7.575-5.141-12.445-5.141-9.03 1.714-12.48 5.141c-3.449 3.427-5.174 7.575-5.174 12.445v26.312c0 1.984-.676 3.698-2.029 5.141s-3.021 2.232-5.005 2.367c-.181 0-.767-.045-1.759-.135-1.849-.316-3.359-1.218-4.532-2.706-1.172-1.488-1.758-3.179-1.758-5.073v-25.906c0-4.87-1.714-9.018-5.141-12.445s-7.575-5.141-12.445-5.141-9.03 1.714-12.48 5.141c-3.449 3.427-5.174 7.575-5.174 12.445v26.312c0 2.3-.88 4.194-2.638 5.682-1.759 1.488-3.81 2.051-6.155 1.691-1.849-.316-3.36-1.218-4.532-2.706s-1.759-3.179-1.759-5.073v-25.906c0-9.018 3.202-16.718 9.605-23.098 6.403-6.381 14.114-9.571 23.133-9.571 4.96 0 9.627 1.048 14.001 3.145s8.094 4.994 11.16 8.692c3.066-3.698 6.787-6.595 11.161-8.692s9.041-3.145 14.001-3.145z"/><path d="m344.147 198.654c.721 2.39.327 4.6-1.184 6.629s-3.528 3.044-6.054 3.044h-42.815c.27 4.87 2.164 9.12 5.682 12.75 3.517 3.629 7.665 5.444 12.445 5.444 4.374 0 8.23-1.375 11.566-4.126 1.308-1.082 2.841-1.623 4.6-1.623 2.209 0 4.036.767 5.479 2.3s2.141 3.348 2.096 5.445-.901 3.844-2.57 5.242c-6.268 5.231-13.325 7.846-21.171 7.846-5.997 0-11.555-1.578-16.673-4.735-5.118-3.156-9.154-7.361-12.107-12.614-2.954-5.254-4.431-10.902-4.431-16.944h.136c.18-5.682 1.736-10.969 4.667-15.861 2.931-4.893 6.843-8.805 11.735-11.736 4.893-2.931 10.18-4.464 15.861-4.599 7.576-.18 14.385 1.939 20.427 6.358 6.043 4.419 10.146 10.146 12.311 17.18zm-43.898-2.57 25.365-.135c-2.12-2.255-4.69-3.878-7.711-4.87s-6.178-1.15-9.47-.474c-2.75.586-5.478 2.413-8.184 5.479z"/><path d="m364.168 196.557c0 1.443.733 2.582 2.198 3.416 1.466.834 3.371 1.432 5.716 1.793 2.344.36 4.937.699 7.778 1.014 2.841.316 5.682.823 8.523 1.522 2.84.699 5.433 1.623 7.778 2.773s4.25 2.92 5.715 5.31c1.466 2.39 2.199 5.276 2.199 8.658 0 5.907-2.492 10.766-7.474 14.576-4.983 3.81-11.578 5.715-19.785 5.715-4.599 0-9.176-.631-13.73-1.894-4.555-1.262-8.162-2.976-10.823-5.14-1.623-1.308-2.536-2.999-2.739-5.073s.349-3.923 1.657-5.546c1.308-1.624 3.01-2.537 5.107-2.74s3.934.372 5.512 1.725c2.481 2.119 5.93 3.438 10.349 3.957 4.419.518 8.342.225 11.769-.879 3.427-1.105 5.141-2.672 5.141-4.701 0-1.488-.733-2.672-2.198-3.551-1.466-.88-3.36-1.533-5.682-1.962-2.322-.428-4.893-.823-7.711-1.184-2.818-.36-5.625-.924-8.421-1.691-2.796-.766-5.355-1.758-7.677-2.976-2.322-1.217-4.216-3.032-5.682-5.445-1.465-2.412-2.198-5.332-2.198-8.759 0-5.907 2.503-10.777 7.508-14.61s11.611-5.749 19.818-5.749c4.555 0 9.109.631 13.663 1.894 4.555 1.262 8.162 2.976 10.823 5.14 1.623 1.308 2.536 2.999 2.739 5.073.203 2.075-.35 3.923-1.657 5.547-1.398 1.713-3.247 2.75-5.547 3.111-2.299.361-3.99-.316-5.073-2.029-.541-1.037-1.848-1.973-3.923-2.807-2.074-.834-4.419-1.375-7.034-1.623s-5.186-.248-7.711 0-4.644.992-6.358 2.232c-1.713 1.24-2.57 2.874-2.57 4.903z"/></g><path d="m507.895 262.346c-53.135-.168-84.729-9.872-86.423-11.566-6.142-6.141-6.142-18.425 1.556-18.425 0 0 42.48 11.193 85.494 11.327l.504-.002c42.795-.219 84.99-11.325 84.99-11.325 7.697 0 7.697 12.284 1.556 18.425-1.7 1.701-33.491 11.474-87.05 11.568z"/><path d="m594.016 227.263c-53.657 15.594-118.44 15.263-170.988 0 0-58.121 59.568-13.332 59.568-145.377 17.284 8.462 34.568 9.094 51.852 0 0 132.045 59.568 87.256 59.568 145.377zm-95.582-112.643c-.074-1.134-.967-2.043-2.1-2.138s-2.37.623-2.427 1.759c-2.632 51.882-27.348 67.231-42.289 80.641-1.996 1.922-2.846 4.746-2.241 7.451s2.576 4.898 5.201 5.787c45.335 14.548 104.741 7.321 123.488-1.466-48.909 6.232-108.925 4.969-93.974-18.146 7.694-11.894 14.419-58.169 14.342-73.888z"/><path d="m508.522.749c24.478 0 44.351 18.529 44.351 41.351 0 22.823-19.873 41.352-44.351 41.352s-44.351-18.529-44.351-41.352c0-22.822 19.873-41.351 44.351-41.351zm-33.516 37.769c-.13.34-.634.35-.948.165-.313-.184-.34-.545-.315-.908 1.527-22.056 25.708-34.147 44.604-28.351.445.136.837.397.884.861.046.463-.229 1.019-.695 1.019-16.887.018-37.771 12.109-43.53 27.214z"/></g></svg>