<svg clip-rule="evenodd" fill-rule="evenodd" stroke-linejoin="round" stroke-miterlimit="2" viewBox="0 0 600 349" xmlns="http://www.w3.org/2000/svg"><path d="m445.19.069c-32.887 27.404-73.059 42.617-109.145 48.69l-4.862-40.701-6.735 12.014s-9.778-2.749-20.74-2.964c-10.416-.205-22.799 4.954-22.799 4.954l-9.143-15.479-1.55 43.122c-37.639-5.305-80.593-20.634-115.399-49.639-85.923 68.89-143.704 180.739-154.817 274.815 25.188-24.444 72.595-22.222 86.667 16.295 24.444-18.521 65.183-3.704 75.555 26.67 31.852-28.149 98.517-37.042 137.778 31.108 39.257-68.15 105.926-59.257 137.775-31.108 10.371-30.371 51.11-45.188 75.554-26.67 14.076-38.517 61.483-40.743 86.671-16.295-11.102-94.072-68.884-205.925-154.81-274.812zm-217.293 81.004s-13.233-6.497-22.017-3.145c-.246-5.186-6.541-21.392-6.541-21.392.901 10.799-17.995 59.39-25.192 80.98-7.197 21.593-38.81 77.904-43.19 88.176-3.602 8.443 5.271 22.98 11.57 21.18 4.769-1.365 22.467-38.642 32.351-53.473 3.342-5.011 23.116-2.854 22.914 4.046-.426 14.779-15.062 47.676-24.263 77.736 19.794-8.098 29.657 11.232 29.657 11.232s6.275-42.18 18.873-87.169c12.594-44.986 15.725-134.343 15.725-134.343zm122.248 104.672c0-16.192-4.879-64.135-4.879-64.135-1.994 5.978-9.15 35.652-23.563 59.895-23.584 39.66-35.038 60.192-37.544 67.713-4.496 13.499 10.02 35.498 15.278 23.816 5.261-11.69 29.111-68.389 29.111-68.389s11.327 44.576 15.373 43.228c4.045-1.352 8.586-33.157 20.668-52.125 4.94 17.975-1.796 53.921 1.349 90.314 4.943-8.088 8.538-17.975 23.368-12.584 5.859-45.386-5.838-162.154-10.337-200.845-1.772 43.836-17.077 54.819-28.824 113.112zm82.782-136.76-3.189 38.926s-5.38 0-13.478.901-13.028 6.961-13.028 6.961l-8.999-12.597c2.697 20.695 6.309 144.07 6.305 152.564-.003 8.49 7.723 5.168 15.278 8.985 5.974 3.015 11.891 9.832 13.475 9.436 3.595-.898-6.739-49.427-4.94-53.469 1.799-4.043 16.571-3.606 18.422.45 7.186 15.725 17.971 81.325 20.743 79.986 2.776-1.345-.075-21.573 11.607-32.357 6.098-5.63 13.585-5.435 10.884-12.629-41.439-91.617-53.08-187.157-53.08-187.157zm-145.893 114.361c1.072-7.589 2.874-11.604 7.811-11.631 7.057-.038 19.251.256 23.365.45 2.376.113 3.998-4.745 7.187-13.031 5.121-13.304 11.6-32.562 11.6-32.562l-20.139 22.228s-10.781-4.493-31.9-4.943c-21.119-.451-37.035 1.608-37.035 1.608l-5.401-16.196c-1.799 15.294-2.7 34.191-6.299 44.088-3.598 9.897 23.571-6.596 24.468 1.502.898 8.098-15.718 74.981-23.815 119.971 4.499-11.7 22.016-32.799 36.847-32.355-.728-13.922 8.074-59.703 13.311-79.129zm245.065-34.857c-33.525-58.703-65.773-89.968-68.31-88.555-4.049 2.247 5.479 14.004-5.742 13.38-8.091-.451 6.288 9.886 22.911 36.396 16.619 26.499 35.499 62.455 35.499 62.455s-39.452-37.495-50.247-48.294c0 12.598-9 17.097-9 17.097 8.091 20.696 42.293 137.662 42.293 137.662s.898-11.696 9.893-17.097c9-5.394 9.894-5.394 9.894-5.394s-7.193-35.092-19.791-56.686c34.478 18.545 60.09 64.821 60.09 64.821s3.332-5.704 9.887-5.841c4.892-.099 9.518 6.111 10.958 4.94 1.431-1.154-23.836-71.99-48.335-114.884zm-388.548-1.771c29.527-1.165 75.807-86.087 14.397-89.976-11.676-.741-38.339 8.388-42.289 11.696-7.023 5.886 15.185-2.413 15.294 1.8.055 2.021-37.386 46.447-62.417 93.041-19.3 35.928-31.47 72.236-37.892 91.211-2.619 7.736-3.977 12.103-2.267 12.796 3.199 1.297 4.81-1.974 7.825-5.418 3.014-3.445 5.67-7.18 5.67-7.18s14.411 19.33 37.96 15.817c14.128-2.11 28.091-1.39 50.555-37.335 22.471-35.943 26.069-68.297 13.164-86.452zm-29.237 64.783c-12.168 24.97-29.743 39.654-36.94 29.76-7.196-9.897 8.986-45.382 28.842-76.545 7.446-11.689 18.336 25.772 8.098 46.785zm325.806-10.252c-.44 1.523-5.07.976-9.033 1.471-4.534.557-8.467 1.946-8.962.332-.925-3.029-3.564-49.015-3.564-49.015s8.582-2.547 10.146 1.526c4.814 12.516 11.976 43.733 11.413 45.686zm-232.683-19.439c-5.152 1.038-16.835 2.833-22.225 1.936-1.12-.185 3.68-8.054 8.087-19.32 6.228-15.926 13.032-36.844 13.032-36.844s8.272-1.714 8.087 5.394c-.45 17.074-3.427 48.117-6.981 48.834zm-86.93-46.14c-3.595-1.349 21.566-41.787 26.96-43.586 5.394-1.8 17.524 4.045 1.796 29.206-8.491 13.588-25.158 15.728-28.756 14.38z" fill="#fff"/></svg>