<?xml version="1.0" encoding="UTF-8" standalone="no"?><!DOCTYPE svg PUBLIC "-//W3C//DTD SVG 1.1//EN" "http://www.w3.org/Graphics/SVG/1.1/DTD/svg11.dtd"><svg width="100%" height="100%" viewBox="0 0 600 373" version="1.1" xmlns="http://www.w3.org/2000/svg" xmlns:xlink="http://www.w3.org/1999/xlink" xml:space="preserve" xmlns:serif="http://www.serif.com/" style="fill-rule:evenodd;clip-rule:evenodd;stroke-linejoin:round;stroke-miterlimit:2;"><g id="playstation3_tall"><g><g><path d="M259.02,0.733l0,233.708l52.917,16.765l0,-195.961c0,-9.234 4.118,-15.365 10.721,-13.256c8.633,2.394 10.311,10.901 10.311,20.032l-0,78.262c32.938,15.942 58.871,-0.009 58.871,-42.073c0,-42.982 -15.204,-62.131 -59.942,-77.528c-17.643,-5.873 -50.346,-15.787 -72.876,-19.949" style="fill:#fff;fill-rule:nonzero;"/><path d="M322.002,217.039l84.989,-30.251c9.614,-3.563 11.084,-8.404 3.302,-10.949c-7.902,-2.591 -22.01,-1.85 -31.725,1.64l-56.566,19.953l-0,-31.838l3.239,-1.069c-0,-0 16.374,-5.801 39.403,-8.299c22.984,-2.519 51.173,0.329 73.327,8.679c24.957,7.928 27.754,19.492 21.44,27.54c-6.406,7.965 -21.937,13.726 -21.937,13.726l-115.472,41.48l-0,-30.612Z" style="fill:#fff;"/><path d="M162.064,213.82c-25.589,-7.128 -29.856,-22.19 -18.181,-30.891c10.766,-7.946 29.104,-13.927 29.104,-13.927l75.802,-27.027l0,30.761l-54.499,19.534c-9.653,3.454 -11.1,8.313 -3.324,10.854c7.914,2.645 21.959,1.934 31.618,-1.63l26.205,-9.449l0,27.462c-1.689,0.283 -3.567,0.569 -5.282,0.861c-26.126,4.337 -53.961,2.556 -81.443,-6.547l0,-0.001Z" style="fill:#fff;"/></g></g><g><g><path d="M128.988,287.814l20.974,54.971l-12.041,29.491l9.516,0l34.676,-84.462l-10.625,0l-15.106,41.167l-14.053,-41.167l-13.341,0Z" style="fill:#fff;"/><path d="M190.745,343.688l-0,-6.941c-0,0 12.124,0.476 14.649,0.476c5.594,-0 8.388,-1.192 10.491,-3.448c1.242,-1.353 2.364,-7.344 2.364,-9.479c-0,-2.127 -0.41,-6.727 -1.242,-8.612c-0.86,-1.846 -2.813,-3.57 -5.742,-3.819c-2.089,-0.18 -5.318,-0.602 -9.094,-0.776c-5.294,-0.25 -8.793,-3.012 -10.478,-4.998c-1.671,-1.987 -3.909,-4.98 -3.909,-14.138c-0,-9.169 2.371,-14.309 4.749,-16.693c2.378,-2.397 5.856,-3.448 8.53,-3.922c3.075,-0.525 8.099,-0.557 8.099,-0.557l16.047,0.467l-0,6.941c-0,-0 -11.701,-0.468 -14.219,-0.468c-5.596,0 -7.275,1.199 -9.37,3.448c-1.237,1.338 -2.204,5.043 -2.204,7.166c-0,2.132 0.249,6.439 1.089,8.303c0.832,1.847 2.794,3.576 5.729,3.84c2.083,0.16 5.318,0.583 9.087,0.755c5.318,0.25 8.811,3.006 10.477,5c1.687,1.992 3.928,6.19 3.928,15.34c0,9.17 -2.39,15.72 -4.755,18.111c-2.383,2.383 -5.856,3.448 -8.528,3.909c-3.083,0.53 -8.107,0.57 -8.107,0.57l-17.591,-0.475Z" style="fill:#fff;"/><rect x="56.534" y="270.686" width="11.463" height="73.439" style="fill:#fff;"/><path d="M253.297,277.72l-11.458,-0l-0,53.915c-0,-0 0.275,4.921 0.557,6.651c0.282,1.731 2.801,5.839 9.369,5.839l11.874,-0.232l0,-6.915c0,0 -3.216,0.232 -5.157,0.232c-1.968,-0 -4.352,-0.129 -4.756,-3.454c-0.43,-3.32 -0.43,-7.286 -0.43,-7.286l-0,-31.747l12.946,-0l-0,-6.909l-12.946,0l-0,-10.093l0.001,-0.001Z" style="fill:#fff;"/><rect x="363.931" y="287.817" width="11.458" height="56.307" style="fill:#fff;"/><path d="M341.103,277.72l-11.464,-0l0,53.915c0,-0 0.27,4.921 0.547,6.651c0.287,1.731 2.785,5.839 9.381,5.839l11.873,-0.232l-0,-6.915c-0,0 -3.223,0.232 -5.171,0.232c-1.947,-0 -4.337,-0.129 -4.755,-3.454c-0.41,-3.32 -0.41,-7.286 -0.41,-7.286l0,-31.747l12.913,-0l-0,-6.909l-12.913,0l-0.001,-10.094Z" style="fill:#fff;"/><path d="M-0,270.684l-0,73.439l11.465,0l-0,-66.4l10.612,-0c-0,-0 7.71,-0 10.35,3.448c2.242,2.929 2.652,8.242 2.652,11.829c0,3.84 -0.243,9.773 -1.531,11.946c-1.955,3.319 -5.165,3.984 -8.101,3.984l-7.005,0l0,6.518l10.074,0c-0,0 9.089,0.379 12.998,-3.594c4.792,-4.871 6.01,-11.42 6.01,-20.187c-0,-7.966 -2.89,-16.002 -8.798,-18.732c-4.89,-2.249 -13.708,-2.249 -13.708,-2.249l-25.018,-0.002Z" style="fill:#fff;"/><path d="M459.761,295.722l11.24,-0.474c2.941,0 6.403,0.794 8.082,2.922c1.563,2.006 2.549,4.396 2.549,8.247l0,37.644l11.478,-0l0,-38.592c0,-7.299 -2.249,-11.542 -5.62,-14.207c-4.807,-3.813 -13.418,-3.448 -13.418,-3.448l-25.679,0.461l-0,55.786l11.368,-0l0,-48.339Z" style="fill:#fff;"/><path d="M111.5,306.417c-0,-3.851 -0.98,-6.241 -2.558,-8.247c-1.679,-2.128 -5.125,-2.924 -8.075,-2.924l-15.118,0.476l-0,-7.447l18.195,-0.461c-0,0 8.611,-0.366 13.425,3.448c3.358,2.667 5.588,6.908 5.588,14.207l-0,38.053l-21.968,0.474c0,0 -9.945,0.036 -14.957,-1.992c-4.883,-1.987 -7.548,-7.44 -7.548,-15.009c-0,-7.305 2.236,-11.548 5.594,-14.214c4.812,-3.819 13.418,-3.441 13.418,-3.441l7.018,-0l0,6.486l-3.936,-0c-2.947,-0 -5.977,0.544 -7.664,2.671c-1.569,1.986 -2.41,3.712 -2.41,7.563c0,5.056 0.98,7.31 3.358,9.029c2.103,1.531 5.864,1.864 10.063,1.864l7.575,-0.461l-0,-30.075Z" style="fill:#fff;"/><path d="M304.793,306.417c-0,-3.851 -0.959,-6.241 -2.537,-8.247c-1.698,-2.128 -5.146,-2.924 -8.073,-2.924l-15.112,0.476l-0,-7.447l18.18,-0.461c0,0 8.607,-0.366 13.414,3.448c3.358,2.667 5.601,6.908 5.601,14.207l-0,38.053l-21.969,0.474c-0,0 -9.958,0.036 -14.958,-1.992c-4.889,-1.987 -7.561,-7.44 -7.561,-15.009c0,-7.305 2.256,-11.548 5.595,-14.214c4.807,-3.819 13.431,-3.441 13.431,-3.441l7.011,-0l0,6.486l-3.941,-0c-2.929,-0 -5.978,0.544 -7.644,2.671c-1.578,1.986 -2.423,3.712 -2.423,7.563c0,5.056 0.987,7.31 3.358,9.029c2.095,1.531 5.877,1.864 10.073,1.864l7.556,-0.461l-0.001,-30.075Z" style="fill:#fff;"/><path d="M411.609,287.334c7.799,-0 13.849,1.743 17.098,4.37c3.281,2.635 7.31,8.19 7.31,24.268c0,16.079 -4.029,21.628 -7.31,24.27c-3.25,2.626 -9.299,4.382 -17.098,4.382c-7.819,0 -13.842,-1.756 -17.117,-4.382c-3.274,-2.642 -7.286,-8.191 -7.286,-24.27c0,-16.078 4.012,-21.635 7.286,-24.268c3.275,-2.627 9.298,-4.37 17.117,-4.37Zm-7.856,10.796c-1.578,1.944 -3.499,6.025 -3.499,17.842c-0,11.812 1.921,15.899 3.497,17.833c1.572,1.925 4.467,3.225 8.217,3.225c3.754,-0 6.638,-1.301 8.229,-3.223c1.569,-1.936 3.491,-6.025 3.491,-17.834c-0,-11.818 -1.922,-15.9 -3.491,-17.841c-1.591,-1.928 -4.475,-3.218 -8.229,-3.218c-3.749,-0 -6.645,1.288 -8.217,3.218l0.002,-0.002Z" style="fill:#fff;"/><rect x="363.931" y="270.683" width="11.458" height="10.223" style="fill:#fff;"/></g><g><path d="M592.312,299c-0.266,-0.266 -0.273,-0.72 -0.006,-0.972c5.135,-4.257 7.689,-10.7 7.689,-18.135c-0,-13.29 -8.12,-23.513 -24.695,-23.513l-43.355,-0.007c-0.333,-0 -0.617,0.277 -0.617,0.617l-0,8.11c-0,0.343 0.284,0.612 0.617,0.612l37.148,0c8.238,0 12.14,5.929 12.14,14.164c-0,8.225 -3.895,14.151 -12.14,14.151l-0.085,-0l-0.027,-0.004l-37.036,0.011c-0.333,-0 -0.617,0.276 -0.617,0.613l-0,8.114c-0,0.336 0.284,0.61 0.617,0.61l37.155,0c10.719,0.087 12.127,10.514 12.127,15.854l0.013,1.068c-0,8.238 -3.909,14.165 -12.14,14.165l-37.155,-0c-0.333,-0 -0.617,0.277 -0.617,0.61l-0,8.11c-0,0.339 0.284,0.616 0.617,0.616l43.355,-0.004c16.583,0 24.7,-11.017 24.7,-23.512l-0,-1.053c-0,-7.956 -2.566,-15.557 -7.688,-20.225Z" style="fill:#fff;fill-rule:nonzero;"/></g></g></g></svg>