<svg clip-rule="evenodd" fill-rule="evenodd" stroke-linejoin="round" stroke-miterlimit="2" viewBox="0 0 600 102" xmlns="http://www.w3.org/2000/svg"><g fill="#fff"><path d="m244.225 37.21 15.901 41.675-9.129 22.359h7.214l26.289-64.034h-8.055l-11.452 31.21-10.654-31.21z"/><path d="m291.044 79.57v-5.262s9.192.361 11.106.361c4.242 0 6.36-.904 7.954-2.614.942-1.026 1.792-5.568 1.792-7.187 0-1.612-.311-5.1-.942-6.528-.651-1.4-2.132-2.707-4.353-2.896-1.583-.136-4.031-.456-6.894-.588-4.013-.19-6.666-2.284-7.944-3.789-1.267-1.507-2.963-3.776-2.963-10.719 0-6.951 1.797-10.848 3.6-12.655 1.803-1.818 4.44-2.614 6.467-2.974 2.331-.398 6.14-.422 6.14-.422l12.165.354v5.262s-8.87-.354-10.779-.354c-4.243 0-5.515.908-7.104 2.614-.938 1.014-1.671 3.823-1.671 5.432 0 1.616.189 4.882.826 6.295.631 1.401 2.118 2.711 4.344 2.911 1.578.122 4.031.442 6.889.572 4.031.19 6.679 2.279 7.943 3.791 1.278 1.51 2.978 4.693 2.978 11.63 0 6.952-1.813 11.918-3.606 13.731-1.806 1.806-4.44 2.613-6.465 2.963-2.337.402-6.146.432-6.146.432z"/><path d="m189.295 24.225h8.691v55.676h-8.691z"/><path d="m338.467 29.557h-8.687v40.875s.209 3.731.423 5.043c.213 1.312 2.123 4.426 7.102 4.426l9.003-.175v-5.243s-2.439.176-3.91.176c-1.492 0-3.3-.098-3.605-2.619-.327-2.516-.327-5.524-.327-5.524v-24.068h9.815v-5.238h-9.815v-7.651l.001-.002z"/><path d="m422.342 37.213h8.687v42.688h-8.687z"/><path d="m405.035 29.557h-8.69v40.875s.204 3.731.414 5.043c.218 1.312 2.112 4.426 7.112 4.426l9.001-.175v-5.243s-2.443.176-3.92.176c-1.476 0-3.288-.098-3.605-2.619-.31-2.516-.31-5.524-.31-5.524v-24.068h9.789v-5.238h-9.789l-.002-7.653z"/><path d="m146.435 24.224v55.676h8.692v-50.34h8.045s5.845 0 7.846 2.614c1.701 2.22 2.011 6.248 2.011 8.968 0 2.911-.184 7.409-1.161 9.056-1.482 2.517-3.915 3.021-6.141 3.021h-5.31v4.942h7.637s6.89.287 9.853-2.725c3.634-3.693 4.557-8.658 4.557-15.305 0-6.039-2.191-12.131-6.67-14.201-3.707-1.705-10.392-1.705-10.392-1.705z"/><path d="m494.994 43.206 8.522-.36c2.229 0 4.854.602 6.126 2.216 1.186 1.52 1.933 3.332 1.933 6.252v28.538h8.702v-29.257c0-5.533-1.705-8.75-4.261-10.771-3.644-2.89-10.173-2.614-10.173-2.614l-19.467.35v42.292h8.618z"/><path d="m230.966 51.314c0-2.92-.743-4.732-1.939-6.252-1.273-1.614-3.885-2.217-6.122-2.217l-11.461.361v-5.646l13.794-.35s6.528-.277 10.178 2.614c2.545 2.022 4.236 5.238 4.236 10.771v28.849l-16.654.36s-7.54.027-11.34-1.511c-3.702-1.506-5.722-5.64-5.722-11.378 0-5.539 1.695-8.756 4.241-10.776 3.648-2.896 10.173-2.609 10.173-2.609h5.32v4.917h-2.984c-2.234 0-4.531.413-5.81 2.025-1.19 1.506-1.827 2.814-1.827 5.734 0 3.833.743 5.542 2.546 6.845 1.594 1.161 4.445 1.413 7.628 1.413l5.743-.35z"/><path d="m377.508 51.314c0-2.92-.727-4.732-1.924-6.252-1.287-1.614-3.901-2.217-6.12-2.217l-11.457.361v-5.646l13.783-.35s6.525-.277 10.17 2.614c2.545 2.022 4.246 5.238 4.246 10.771v28.849l-16.656.36s-7.549.027-11.34-1.511c-3.706-1.506-5.732-5.64-5.732-11.378 0-5.539 1.711-8.756 4.242-10.776 3.644-2.896 10.182-2.609 10.182-2.609h5.316v4.917h-2.988c-2.22 0-4.532.413-5.795 2.025-1.197 1.506-1.837 2.814-1.837 5.734 0 3.833.748 5.542 2.545 6.845 1.589 1.161 4.456 1.413 7.638 1.413l5.728-.35z"/><path d="m458.489 36.846c5.912 0 10.499 1.322 12.962 3.313 2.487 1.998 5.542 6.21 5.542 18.399 0 12.19-3.055 16.397-5.542 18.399-2.464 1.992-7.05 3.323-12.962 3.323-5.928 0-10.495-1.331-12.977-3.323-2.483-2.002-5.524-6.209-5.524-18.399 0-12.189 3.041-16.402 5.524-18.399 2.482-1.991 7.049-3.313 12.977-3.313zm-5.957 8.185c-1.196 1.474-2.652 4.568-2.652 13.527 0 8.955 1.456 12.053 2.651 13.52 1.192 1.459 3.386 2.444 6.229 2.444 2.847 0 5.033-.986 6.239-2.443 1.19-1.468 2.647-4.568 2.647-13.52 0-8.96-1.457-12.055-2.647-13.526-1.206-1.462-3.392-2.44-6.239-2.44-2.841 0-5.037.977-6.229 2.44z"/><path d="m422.342 24.222h8.687v7.75h-8.687z"/><path d="m45.378.104v87.423l19.794 6.271v-73.303c0-3.454 1.541-5.748 4.011-4.959 3.229.896 3.857 4.078 3.857 7.494v29.275c12.321 5.964 22.022-.003 22.022-15.738 0-16.078-5.687-23.241-22.423-29.001-6.6-2.197-18.833-5.905-27.261-7.462" fill-rule="nonzero"/><path d="m68.937 81.018 31.792-11.316c3.597-1.333 4.147-3.144 1.235-4.096-2.955-.97-8.233-.692-11.867.613l-21.16 7.464v-11.91l1.212-.4s6.125-2.17 14.739-3.104c8.598-.942 19.143.123 27.43 3.247 9.336 2.966 10.382 7.291 8.02 10.302-2.396 2.979-8.206 5.134-8.206 5.134l-43.195 15.517z"/><path d="m9.109 79.813c-9.572-2.666-11.168-8.3-6.801-11.555 4.027-2.972 10.887-5.21 10.887-5.21l28.356-10.11v11.507l-20.387 7.307c-3.611 1.292-4.152 3.11-1.243 4.06 2.96.99 8.214.724 11.827-.61l9.803-3.534v10.273c-.632.106-1.335.213-1.976.322-9.773 1.622-20.185.956-30.466-2.449z"/><path d="m594.511 47.87c-.19-.19-.195-.514-.004-.694 3.666-3.039 5.489-7.64 5.489-12.948 0-9.49-5.797-16.789-17.632-16.789l-30.955-.005c-.238 0-.441.198-.441.441v5.791c0 .244.203.437.441.437h26.523c5.882 0 8.668 4.233 8.668 10.112 0 5.873-2.781 10.104-8.668 10.104h-.06l-.019-.003-26.444.008c-.238 0-.441.198-.441.438v5.793c0 .24.203.436.441.436h26.528c7.654.062 8.659 7.507 8.659 11.32l.009.762c0 5.882-2.791 10.114-8.668 10.114h-26.528c-.238 0-.441.197-.441.435v5.791c0 .242.203.439.441.439l30.955-.002c11.84 0 17.636-7.866 17.636-16.787v-.752c0-5.681-1.832-11.108-5.489-14.441z" fill-rule="nonzero"/></g></svg>