<svg clip-rule="evenodd" fill-rule="evenodd" stroke-linejoin="round" stroke-miterlimit="2" viewBox="0 0 600 322" xmlns="http://www.w3.org/2000/svg"><path d="m323.03.895-7.293 24.801-1.998 6.799c-1.68-.701-3.573-1.32-5.649-1.736-.949-.23-4.273-.955-8.429-.955-2.89 0-5.61.351-8.09 1.041-1.912.535-3.672 1.186-5.245 1.869l-2.065-7.018-7.292-24.801-5.536 25.251-9.313 42.476c-82.236-10.777-134.192-50.726-134.719-51.139l-4.315-3.371-4.124 3.603c-1.452 1.269-36.016 32.007-76.693 113.797-21.592 43.419-31.911 88.566-36.765 118.795-5.261 32.763-5.424 55.028-5.43 55.959l-.074 15.699 11.3-10.899c.343-.328 35.394-33.481 79.773-33.481 34.122 0 48.671 12.192 49.371 12.797l4.659 4.58 4.547-4.74c.264-.262 27.242-26.773 57.157-26.773 51.475 0 87.919 39.806 88.281 40.207l4.939 5.485 4.929-5.493c.355-.395 36.766-40.199 88.237-40.199 30.038 0 56.891 26.505 57.159 26.773l4.644 4.646 4.563-4.486c.7-.607 15.249-12.797 49.369-12.797 44.54 0 79.425 33.147 79.773 33.481l11.299 10.899-.073-15.699c-.004-.931-.168-23.196-5.429-55.959-4.854-30.229-15.174-75.376-36.767-118.795-40.677-81.79-75.242-112.528-76.693-113.797l-4.124-3.603-4.311 3.367c-.135.106-13.863 10.709-37.994 22.349-21.217 10.234-54.874 23.302-96.729 28.794l-9.313-42.476zm-162.74 56.916c-14.394-6.726-27.185-14.458-38.012-23.002 0 0-23.218 16.836-61.928 95.904-46.602 95.189-45.056 156.815-45.056 156.815 11.926-9.496 48.133-23.858 63.83-23.858 13.472 0 18.994-13.474 18.994-13.474s23.854-53.671 30.921-75.094c7.069-21.424-5.08-29.813-5.08-29.813 10.602 4.638 15.019-7.288 15.019-7.288s20.099-42.627 26.725-58.971-5.413-21.219-5.413-21.219zm163.963 29.179c-7.502.43-15.118.65-22.826.65-1.515 0-3.025-.008-4.531-.026l5.302 195.272s3.795-4.446 12.815-11.046c7.455-5.454 13.248-7.507 13.248-7.507v-58.752l18.552 46.382 13.694-53.449.884 47.707s16.342-2.65 28.712-2.65l-4.079-165.293c-9.661 2.24-19.674 4.107-29.983 5.57l-15.412 77.56-16.376-74.418zm132.554-33.586c-6.563 3.949-7.879 5.01-15.336 8.446l67.902 198.063s13.695-.884 27.388 3.976l-33.572-97.18s13.867 11.597 33.13 48.37c14.577 27.829 23.094 53.078 23.094 53.078l24.226 14.169s-10.215-72.548-42.019-140.796c-30.243-64.893-61.123-104.582-61.123-104.582-6.517 5.667-8.073 7.114-15.077 12.481 0 0 23.203 37.763 30.48 51.02 7.632 13.909 29.155 57.646 29.155 57.646zm-272.331 198.118s14.8-3.977 31.806-2.43l-4.63-173.162c-10.779-2.682-21.093-5.831-30.855-9.402l-74.506 195.816s13.914.441 27.166 7.731l19.638-50.8h30.993zm282.491 16.788s11.707-5.522 29.597-7.289l-64.73-195.858c-9.738 4.002-20.104 7.565-31 10.641l-1.01 168.432s19.436 2.651 27.608 8.614v-36.626l25.107 2.277zm-179.801-151.548-1.362-30.531c-22.832-.888-44.695-3.712-65.052-8.174l.619 30.616c5.273 1.145 10.649 2.176 16.115 3.097v140.415s5.495.666 13.833 3.753c9.36 3.465 14.658 6.848 14.658 6.848v-147.373c6.962.627 14.022 1.095 21.189 1.349zm-201.632 86.388c-9.055 24.075-10.382 26.946-16.786 28.713-6.405 1.766-21.424 7.73-21.424 7.73s4.234-25.082 13.252-49.695c10.602-28.934 19.216-41.744 19.216-41.744s16.343 6.626 16.343 18.111c0 11.486-1.545 12.811-10.601 36.885zm76.442-6.845 21.176-54.775.659 54.775zm265.456-6.362v-58.129l17.289 59.695zm-301.479-87.066c-7.509 12.368-12.147 22.528-18.111 22.528-5.963 0-14.357-6.184-14.357-6.184s8.394-17.449 16.124-30.701 15.902-24.074 15.902-24.074 11.927 5.963 11.927 11.264-3.976 14.797-11.485 27.167z" fill="#fff"/></svg>