<svg clip-rule="evenodd" fill-rule="evenodd" stroke-linejoin="round" stroke-miterlimit="2" viewBox="0 0 600 183" xmlns="http://www.w3.org/2000/svg"><g fill="#fff" fill-rule="nonzero"><path d="m0 2.866v176.758h34.93v-73.376h32.116v-32.82h-32.116v-37.742h35.632v-32.82h-70.562z"/><path d="m110.408 88.128c-14.817 22.641-26.832 45.717-34.93 68.1v23.396h34.93zm0-14.681v-70.581h-34.93v131.521c9.109-20.278 20.998-40.846 34.93-60.94z"/><path d="m208.608 2.866v176.758h34.929v-74.782h35.399v74.782h34.929v-176.758h-34.929v69.156h-35.399v-69.156h-34.929z"/><path d="m480.365 99.043c.27-.449.545-.925.828-1.432.471-.845 1.156-1.73 1.523-1.968.392-.252.416-.438.059-.449-.335-.01-.223-.254.25-.543.473-.288.929-1.145 1.015-1.902.086-.756.213-1.442.284-1.523.07-.082.184-.346.253-.589.492-1.7 3.55-8.612 4.075-9.205.552-.623 2.49.724 2.043 1.421-.162.252.07.593.516.759.665.246 2.848 5.577 3.177 7.76.048.324.16.721.248.882.087.161.267 1.22.398 2.353.132 1.13.362 2.984.511 4.114.921 7 1.055 12.521.337 13.816-.421.759-.593 2.046-.382 2.859.212.814.141 1.625-.157 1.802-.297.177-.721 1.48-.941 2.896-.454 2.919-4.254 10.964-5.178 10.964-.336 0-.938 1.058-1.34 2.351-.322 1.041-.752 1.928-1.059 2.236 8.448 25.57 25.778 46.792 56.444 46.792 47.588 0 56.731-49.933 56.731-87.441v-13.832h-57.2v32.82h22.27c0 12.19-2.813 36.102-20.629 36.102-25.787 0-26.959-40.556-26.959-58.841 0-16.645 2.344-60.248 26.021-58.841 13.362 0 16.176 13.831 17.817 22.739l33.991-13.128c-7.501-25.084-25.083-41.962-52.042-41.962-49.933 0-63.061 51.339-63.061 92.129 0 2.252.051 4.542.157 6.861zm-122.692-82.355v-13.822h-34.929v176.758h34.929v-17.773c-.812-.463-1.686-.808-2.465-.808-.374 0-1.073-.542-1.555-1.205-.664-.914-1.261-1.112-2.473-.818-1.512.365-1.601.264-1.652-1.882-.271-11.304.562-21.935 1.908-24.362.895-1.612.718-2.54-.939-4.896-.838-1.191-1.525-2.47-1.525-2.842 0-.373-.658-1.352-1.463-2.178-1.665-1.708-7.317-11.749-6.862-12.189.165-.158-.22-.79-.855-1.402-.699-.675-2.435-4.291-2.478-4.633-.126-1.033-.26-1.41-1.358-3.84-.58-1.284-1.351-3.47-1.713-4.859-.364-1.389-.901-2.67-1.195-2.845-.293-.176-.534-1.214-.534-2.308 0-1.092-.263-2.145-.582-2.335-.321-.191-1.761-2.937-2.552-6.531-.537-2.445-.425-8.385-.676-8.139s-.255-5.535-.255-6.238c0-2.928.945-3.372.974-6.3.027-2.633 1.142-4.271.889-5.381-.271-1.19 1.023-3.054.852-4.174-.147-.969.74-2.293.564-2.939-.175-.647.767-1.507.68-1.91-.088-.405.587-2.289 1.498-4.187.911-1.899 1.655-3.615 1.655-3.813 0-.666 3.343-6.785 4.268-7.811.502-.558 1.6-2.29 2.439-3.846.838-1.559 1.729-2.92 1.98-3.029.252-.107.457-.542.457-.966 0-.425.681-1.394 1.514-2.156.832-.761 1.518-1.705 1.523-2.099.007-.393.567-1.002 1.247-1.353.681-.35 1.103-.848.937-1.105-.729-1.137 3.812-4.864 5.108-4.194.69.356 1.262.968 1.273 1.36.01.394.422 1.228.915 1.857.06.077.232.553.451 1.193zm8.879 148.522v14.414h34.929v-18.392c-4.239-1.342-7.293-2.819-7.704-2.852-1.781-.14-6.401-1.665-6.401-2.11 0-.285-3.006-.639-4.253-1.682-.765-.64-2.44-.814-2.553-1.085-.645-1.548-7.748-3.918-8.217-2.739-.462 1.159.081 3.583 1.577 7.045.418.97.873 2.807 1.007 4.081.136 1.273.479 2.464.766 2.646.504.319 2.925 6.175 3.536 8.559.263 1.022.197 1.061-.504.294-.445-.485-1.974-1.614-3.398-2.507-1.425-.893-2.591-1.93-2.591-2.302 0-.373-.172-.512-.382-.309-.212.202-1.562-.415-3.006-1.372-1.222-.812-2.369-1.498-2.806-1.689zm109.711-18.196c-1.328 1.416-2.763 2.939-4.342 4.093-3.83 2.801-7.881 4.424-8.397 4.889-.974.877-8.359 3.582-11.381 4.169-1.09.21-1.981.59-1.981.843 0 .252-.686.334-1.523.179-.939-.174-1.524-.011-1.524.423 0 .475-.592.577-1.829.315-1.111-.236-1.829-.15-1.829.219 0 .386-1.147.477-3.143.249-2.302-.264-3.028-.177-2.707.32.166.259-.129.433-1.018.54l6.62 16.371h33.054zm-109.711-110.359c.749.41 1.423.403 1.9-.09.685-.71 1.247-1.831 1.247-2.491s.273-1.201.608-1.201c.336 0 .567-.198.513-.442-.053-.242.226-1.16.484-1.731.542-1.196-.231-6.058-.929-6.058-.258 0-1.111-1.323-1.897-2.94-1.105-2.278-.581-4.301 0-4.268 1.594.088 5.487 3.813 5.487 5.248 0 .431.274.783.61.783.335 0 .61.375.61.834 0 .458.205.921.456 1.029.796.34 3.107 5.563 4.17 9.419.999 3.62 1.356 5.969 1.636 10.766.076 1.293.37 2.698.653 3.121s.345 1.415.14 2.204c-.216.833-.107 1.437.26 1.437.37 0 .473.609.25 1.47-.253.973-.129 1.469.368 1.469.515 0 .635.569.381 1.794-.23 1.112-.144 1.657.228 1.434.331-.196.6.113.6.689 0 1.864 3.808 16.361 4.352 16.563.289.109.526.582.526 1.053 0 .963 3.281 1.999 4.458 1.577.488-.176 4.166-.281 4.421.276.255.558.498 1.147.537 1.308.205.804 1.091 1.879 1.798 2.343l-.813-8.823.469-.469 4.687 11.592c.371.227.749.44 1.098.615 3.483 1.747 4.888 2.658 6.318 4.087.776.775 1.409 1.202 1.409.951 0-.254.812.435 1.802 1.53 1.302 1.436 1.717 2.399 1.497 3.46-.731 3.513-2.371 8.556-2.896 8.903-.312.209-.433 1.067-.266 1.908.067.337.093.641.083.911l5.618 13.893c1.252.274 3.622.134 4.372-.461.524-.416.762-.412.762.014 0 .431.606.436 1.981.016 1.09-.331 3.011-.566 4.268-.523 1.387.048 2.425-1.319 3.847-1.096 1.432.223 2.977-.586 3.372-.047.486.663.723.7.956.146.526-1.25 2.786-.915 2.369.351-.197.598-.764 3.137-1.261 5.644-1.123 5.66-1.197 5.772-3.55 5.301l-1.923-.386 1.445 1.086c.793.597 1.969 1.558 2.612 2.136.643.579 1.434.893 1.756.7.323-.192 3.026 1.257 3.026 1.615 0 .359 2.877 1.351 3.262 1.429.386.078 2.209.571 4.053 1.096 4.033 1.148 7.198 1.623 11.277 1.698l3.047.055s7.043-.143 11.167-3.567v-16.488c-.374-.179-.821-.34-1.261-.443l-1.01-.238c-3.684-1.343-8.979-.132-9.45-.464-1.584-1.116-1.781-3.429-.393-4.639.483-.421 4.977-2.174 9.635-6.666.89-.858 1.701-1.654 2.479-2.498v-101.714h-34.929v79.471c0 9.142.703 18.285 2.813 26.724l-.469.469-43.603-106.664h-33.523z"/><path d="m181.556 2.926c-22.397 21.548-43.176 45.434-60.84 70.145 5.038 13.113 15.224 22.214 29.046 31.536 9.846 7.033 20.63 12.19 20.63 25.787 0 11.721-8.908 19.223-20.161 19.223-10.315 0-18.285-3.751-26.49-9.377v33.289c7.97 5.86 20.161 8.908 30.007 8.908 32.819 0 50.87-23.677 50.87-55.09 0-47.824-53.215-49.465-53.215-78.533 0-10.784 6.799-17.348 17.582-17.348 9.612 0 18.286 5.157 25.318 11.252v-33.991c-4.143-2.426-8.374-4.372-12.747-5.801zm-63.565 59.905c16.02-21.79 34.332-42.847 53.966-62.161-2.793-.409-5.655-.617-8.598-.617-30.007 0-46.182 24.146-46.182 52.042 0 3.845.276 7.409.814 10.736z"/></g></svg>