<svg clip-rule="evenodd" fill-rule="evenodd" stroke-linejoin="round" stroke-miterlimit="2" viewBox="0 0 600 324" xmlns="http://www.w3.org/2000/svg"><g fill="#fff"><path d="m36.477 19.342s-2.248-.435-4.321-.835c-1.89-.366-3.719.87-4.085 2.761-.545 2.818-1.35 6.983-2.117 10.951-.581 3.006.055 6.12 1.77 8.656 1.012 1.497 2.35 2.721 3.895 3.592l-21.607 111.753c-.565 2.922.525 5.918 2.836 7.793 1.575 1.278 3.046 2.472 3.046 2.472s-12.749 65.942-15.791 81.673c-.397 2.056.37 4.165 1.996 5.484 5.346 4.339 16.944 13.75 16.944 13.75l-1.59 8.219s8.361 1.617 13.867 2.681c2.606.504 5.126-1.2 5.63-3.805 0-.001 0-.001 0-.001s4.944.956 8.155 1.577c1.527.295 3.107-.099 4.317-1.076 2.317-1.87 7.128-4.405 14.48-1.963 27.778 9.227 38.236 48.201 63.125 50.764 11.878 1.223 29.456-54.736 20.13-64.228-7.109-7.236-24.225-11.622-45.643-23.185l8.281-42.833c.381-1.967-.132-4.001-1.4-5.553-2.623-3.21-7.256-8.88-10.374-12.697-.825-1.009-1.188-2.319-.998-3.609.189-1.29.912-2.441 1.992-3.171 4.371-2.955 10.575-7.149 10.575-7.149s19.721-101.995 24.526-126.848c.578-2.988-1.377-5.879-4.365-6.457-9.895-1.913-29.899-5.781-29.899-5.781l-.958 4.956-13.629-2.635 2.755-14.248-11.77-2.276.598-3.097-24.709-4.778-.599 3.098-11.53-2.23zm6.894 206.977s-16.794 56.455 1.215 45.282c32.85-20.38 55.952 41.281 78.852 42.496 1.909.101 3.267-1.939 2.817-4.597-30.526-13.292-47.96-59.398-78.061-44.975-15.367 7.364-4.823-38.206-4.823-38.206zm19.188-17.807 3.918-20.264c.99-5.12 4.573-9.356 9.458-11.181 0 0 0 0 .001-.001 6.479-2.42 13.78-.446 18.157 4.91 2.367 2.898 4.794 5.868 6.401 7.834 1.184 1.45 1.663 3.35 1.308 5.188l-7.24 37.446c-10.086-5.978-20.93-13.644-32.003-23.932zm3.262-6.486-1.118 5.782c2.006 1.843 4.004 3.599 5.99 5.274 15.558-.803 32.499-9.203 18.644-6.794-10.992 1.911-19.87-2.177-23.516-4.262zm-22.215-26.43c-.921-.178-1.733-.714-2.258-1.491-.526-.777-.721-1.731-.543-2.652 3.913-20.237 23.733-122.747 27.556-142.52.352-1.824 2.117-3.017 3.942-2.664.015.003.03.006.045.008 1.914.371 3.166 2.222 2.796 4.137-3.908 20.209-23.708 122.619-27.55 142.487-.171.886-.687 1.668-1.435 2.174-.748.505-1.666.693-2.552.521-.001 0-.001 0-.001 0zm45.12-43.008c-1.838-.356-3.042-2.136-2.686-3.974.355-1.838 2.135-3.041 3.973-2.686l17.138 3.314c1.837.355 3.041 2.135 2.686 3.973-.356 1.838-2.136 3.041-3.974 2.686zm2.575-13.319c-1.838-.356-3.042-2.136-2.686-3.974.355-1.838 2.136-3.041 3.973-2.686l17.138 3.314c1.838.355 3.041 2.136 2.686 3.973-.355 1.838-2.136 3.041-3.974 2.686zm2.575-13.319c-1.838-.355-3.041-2.136-2.686-3.974.355-1.837 2.136-3.041 3.973-2.686l17.138 3.314c1.838.355 3.041 2.136 2.686 3.973-.355 1.838-2.136 3.042-3.974 2.686zm2.575-13.319c-1.838-.355-3.041-2.136-2.686-3.973.355-1.838 2.136-3.042 3.974-2.686l17.137 3.313c1.838.355 3.041 2.136 2.686 3.974-.355 1.837-2.136 3.041-3.973 2.685zm2.575-13.319c-1.838-.355-3.041-2.136-2.686-3.973.355-1.838 2.136-3.042 3.974-2.686l17.137 3.313c1.838.356 3.042 2.136 2.686 3.974-.355 1.837-2.136 3.041-3.973 2.686zm2.575-13.319c-1.837-.355-3.041-2.135-2.686-3.973.356-1.838 2.136-3.041 3.974-2.686l17.137 3.313c1.838.356 3.042 2.136 2.686 3.974-.355 1.838-2.135 3.041-3.973 2.686zm2.575-13.319c-1.837-.355-3.041-2.135-2.686-3.973.356-1.838 2.136-3.041 3.974-2.686l17.138 3.314c1.837.355 3.041 2.135 2.686 3.973-.356 1.838-2.136 3.041-3.974 2.686z"/><g fill-rule="nonzero"><path d="m138.887 216.58h-17.822l26.888-147.729h17.719z"/><path d="m208.569 203.291c-.755 3.777-2.678 6.936-5.769 9.478-3.09 2.541-6.593 3.811-10.508 3.811h-24.621c-3.64 0-6.731-1.305-9.272-3.915-2.541-2.609-3.812-5.734-3.812-9.374v-2.576l21.222-118.471c.756-3.846 2.644-7.04 5.666-9.581 3.091-2.541 6.559-3.812 10.405-3.812h25.034c3.571 0 6.627 1.305 9.168 3.915 2.61 2.61 3.915 5.769 3.915 9.478 0 1.03-.069 1.82-.206 2.369l-6.593 36.881h-17.101l5.563-31.112v-.618c0-1.236-.412-2.266-1.236-3.091-.825-.755-1.855-1.133-3.091-1.133h-9.581c-1.442 0-2.781.481-4.018 1.442-1.167.893-1.888 2.026-2.163 3.4l-18.852 104.77v.515c0 1.168.412 2.198 1.236 3.091s1.854 1.339 3.09 1.339h9.478c3.365 0 5.46-1.717 6.284-5.151l8.448-45.225h-9.787l2.988-16.483h26.888z"/><path d="m254.351 148.691-12.259 67.889h-17.823l26.888-147.729h17.72l-11.539 63.357h19.059l11.538-63.357h17.719l-26.785 147.729h-17.822l12.362-67.889z"/><path d="m357.823 85.54h-12.259l-23.695 131.04h-18.028l23.901-131.04h-12.672l2.988-16.689h42.959z"/><path d="m428.082 203.291c-.755 3.777-2.679 6.936-5.769 9.478-3.091 2.541-6.593 3.811-10.508 3.811h-24.622c-3.64 0-6.73-1.305-9.271-3.915-2.541-2.609-3.812-5.734-3.812-9.374v-2.576l21.222-118.471c.755-3.846 2.644-7.04 5.666-9.581 3.091-2.541 6.559-3.812 10.405-3.812h25.034c3.571 0 6.627 1.305 9.168 3.915 2.61 2.61 3.915 5.769 3.915 9.478 0 1.03-.069 1.82-.206 2.369l-6.593 36.881h-17.101l5.563-31.112v-.618c0-1.236-.413-2.266-1.237-3.091-.824-.755-1.854-1.133-3.09-1.133h-9.581c-1.442 0-2.782.481-4.018 1.442-1.167.893-1.888 2.026-2.163 3.4l-18.853 104.77v.515c0 1.168.412 2.198 1.237 3.091.824.893 1.854 1.339 3.09 1.339h9.478c3.365 0 5.46-1.717 6.284-5.151l8.448-45.225h-9.787l2.987-16.483h26.888z"/><path d="m462.016 195.152v.515c0 1.168.378 2.198 1.134 3.091.892.893 1.923 1.339 3.09 1.339h9.478c3.365 0 5.46-1.717 6.284-5.151l22.87-126.095h17.514l-24.622 134.44c-.755 3.777-2.644 6.936-5.666 9.478-3.091 2.541-6.628 3.811-10.611 3.811h-24.828c-3.502 0-6.524-1.305-9.065-3.915-2.541-2.609-3.812-5.734-3.812-9.374v-2.576l23.797-131.864h17.102z"/><path d="m513.464 216.58 26.785-147.729h17.822c5.151 53.295 7.83 90.897 8.036 112.806.687-19.368 6.044-56.97 16.071-112.806h17.822l-26.785 147.729h-17.822c-5.082-53.089-7.727-89.798-7.933-110.127-.686 17.032-6.043 53.742-16.071 110.127z"/></g></g></svg>