<svg clip-rule="evenodd" fill-rule="evenodd" stroke-linejoin="round" stroke-miterlimit="2" viewBox="0 0 600 148" xmlns="http://www.w3.org/2000/svg"><g fill="#fff" fill-rule="nonzero"><path d="m0 104.494h20.773v-20.773h20.984v-20.774h41.546v-20.773h20.774v-19.934h-61.271v20.983h-42.806v-22.032h20.773v-20.774h105.336v20.774h20.774v42.805h-20.774v20.774h-20.983v20.773h-41.547v19.934h83.304v21.823h-146.883v-42.806z"/><path d="m181.989 56.078v27.861h27.766v-27.861zm-19.398 56.673v-66.562h57.149v9.414h9.413v28.812h-9.413v9.414h-37.751v18.922z"/><path d="m238.662 112.751v-66.562h19.398v56.673h47.164v9.889z"/><path d="m334.131 65.587v18.352h27.766v-18.352h-9.413v-9.509h-8.939v9.509zm-19.398 47.164v-47.639h9.414v-9.509h9.509v-9.414h28.717v9.414h9.509v9.509h9.414v47.639h-19.399v-18.922h-27.766v18.922z"/><path d="m409.632 112.751v-28.336h-9.414v-9.414h-9.414v-28.812h19.304v28.337h18.447v-28.337h19.303v28.812h-9.414v9.414h-9.414v28.336z"/><path d="m457.367 112.751v-66.562h66.562v9.889h-47.164v18.448h37.75v9.889h-37.75v18.447h47.164v9.889z"/><path d="m552.836 56.078v27.861h18.352v-9.413h9.414v-18.448zm-19.398 56.673v-66.562h57.148v9.414h9.414v28.812h-18.923v8.938h9.509v9.509h9.414v9.889h-28.812v-9.413h-9.414v-9.509h-8.938v18.922z"/></g></svg>