<svg clip-rule="evenodd" fill-rule="evenodd" stroke-linejoin="round" stroke-miterlimit="2" viewBox="0 0 600 255" xmlns="http://www.w3.org/2000/svg" xmlns:xlink="http://www.w3.org/1999/xlink"><clipPath id="a"><path clip-rule="evenodd" d="m186 254.922h-63.989l-20.215-71.799c24.734-11.932 41.821-37.26 41.821-66.546 0-40.755-33.088-73.843-73.843-73.843-14.33 0-27.711 4.091-39.036 11.164v-53.154h245.137v130.492c0-3.678-2.982-6.66-6.66-6.66h-10.929c-1.228 0-2.378.333-3.366.914-2.904-1.498-6.244-2.259-10.252-2.259-13.878 0-21.215 7.834-24.908 19.11-.727 2.22-1.294 4.595-1.736 7.067-.471-2.514-1.069-4.926-1.825-7.178-3.786-11.274-11.143-18.999-24.492-18.999-2.637 0-4.995.3-7.127.909v-41.157c0-3.678-2.982-6.66-6.66-6.66h-10.929c-3.678 0-6.659 2.982-6.659 6.66v134.504c0 3.678 2.981 6.66 6.659 6.66h10.929c1.447 0 2.787-.461 3.878-1.247 1.324.699 2.726 1.267 4.202 1.691zm3.734-51.667c-.07.004-.141.006-.213.006-.997 0-1.672-.575-2.213-1.333-.819-1.147-1.392-2.608-1.866-4.215-2.447-8.3-1.871-19.868-1.871-25.789 0-4.247-.515-14.323 1.8-21.694.435-1.383.957-2.653 1.703-3.653.474-.636 1.073-1.115 1.943-1.115 2.441 0 3.3 2.129 4.117 4.805 1.681 5.508 2.001 13.286 2.001 22.329 0 6.031-.12 11.084-.408 15.296zm51.524-40.331c.199-3.897.611-7.735 1.458-11.07.471-1.853 1.055-3.524 1.925-4.835.6-.904 1.38-1.557 2.549-1.557 2.385 0 2.914 2.402 3.66 5.15.705 2.601 1.138 5.646 1.399 9.002z"/></clipPath><g fill="#fff"><g clip-path="url(#a)"><path d="m125.896 254.884c4.37 0 6.649-4.687 8.411-8.412 2.16 2.161 7.034 9.787 10.646 8.238 1.582-.682 2.774-3.15 3.797-4.467.868-1.117 1.805-2.187 2.381-3.481 1.929 2.016 6.346 9.868 9.768 7.823 1.86-1.111 3.399-4.133 4.814-5.792.5-.586 1.363-2.013 2.241-2.013 1.161 0 2.25 2.358 2.82 3.173 2.04 2.915 2.69 4.931 6.462 4.931-.074-26.757 3.598-53.127 14.046-78.026 2.06-4.91 4.333-11.299 7.886-15.331 1.254-1.423 3.406-.691 5.044-1.342 3.609-1.434 3.527-1.648 3.481-2.472-.211-3.766-5.043-2.997-8.412-2.997h-82.087c-6.119 0-13.125-.951-19.144.135-2.642.476-5.624.472-5.624 3.249 0 1.211.777 1.012 4.173 2.192 1.412.491 3.295-.117 4.424.994 5.168 5.087 8.539 13.456 11.593 19.922 10.833 22.934 13.28 48.693 13.28 73.676zm34.517-18.854c1.37 1.488 5.359 5.111 5.223 7.252-.153 2.407-4.639 5.902-6.093 7.831-1.514-1.114-5.722-4.983-5.747-6.961-.011-.966 1.094-1.929 1.663-2.611 1.546-1.856 3.002-4.075 4.954-5.511zm-17.984 0c1.53 2.016 6.149 5.59 6.372 8.122.101 1.146-1.313 2.37-1.96 3.19-.689.876-2.01 3.42-3.277 3.42-.797 0-1.493-.887-2.005-1.389-1.22-1.198-4.733-3.988-4.714-5.801.024-2.254 3.716-5.744 5.004-7.542zm-13.053 4.641 2.901 3.191v.29l-2.901 4.061h-.29zm44.67-.87-.29 8.412h-.29c-2.551-3.78-3.726-5.378.58-8.412zm-22.625 1.74-5.341-5.801-1.598-2.611 2.915-4.35 3.466-3.711 3.482 3.42 3.485 4.641-1.478 2.611zm-17.114-.29c-4.552-3.214-7.559-7.852-3.879-12.763.57-.76 1.621-2.84 2.719-2.84 1.146 0 2.485 2.351 3.153 3.131.976 1.139 2.936 2.842 3.237 4.35.424 2.121-4.014 6.425-5.23 8.122zm35.388-16.243c1.411 2.068 4.212 4.478 4.757 6.961.739 3.365-3.86 7.197-6.207 8.992l-5.424-7.251 1.386-2.611zm-9.572 5.801-4.969-6.091-1.941-2.901 1.628-2.611 4.702-6.091c2.46 1.199 4.288 4.557 5.975 6.672.554.693 1.59 1.64 1.534 2.61-.057.973-1.147 1.91-1.731 2.611-1.622 1.945-3.153 4.295-5.198 5.801zm-18.564-.29c-1.432-2.165-5.927-5.5-6.093-8.122-.153-2.42 4.455-6.72 5.803-8.702 1.937.981 6.694 5.902 7 8.122.137.993-.814 1.896-1.366 2.611-1.522 1.97-3.069 4.983-5.344 6.091zm34.807-13.923-1.16 10.152c-5.085-3.074-2.304-7.124 1.16-10.152zm-49.31.87c1.242 1.427 2.573 2.929 3.036 4.411s.06 2.944-2.166 4.291zm4.641-16.243c1.556 2.352 3.498 4.497 5.293 6.671.692.837 2.068 2.002 2.009 3.191-.129 2.623-4.38 6.538-5.852 8.702-2.286-1.85-3.989-4.655-5.801-6.962-.761-.969-1.967-2.156-1.95-3.481.032-2.445 4.462-6.715 6.301-8.121zm37.998 18.564-7.832-9.282c1.428-2.482 3.452-4.712 5.221-6.962.524-.666 1.209-1.977 2.081-2.22.892-.249 1.721.812 2.27 1.351 1.444 1.416 5.713 4.835 5.757 6.96.022 1.03-1.153 2.137-1.734 2.901-1.868 2.457-3.906 4.787-5.763 7.252zm-18.854-18.274 6.961 8.702v.29l-6.961 8.701h-.29l-4.969-5.801-1.68-2.61 1.681-2.901 4.678-6.381zm-9.282 6.671-6.09-6.961-1.382-2.901 6.602-8.412c2.483 1.183 4.392 4.547 6.091 6.672.566.708 1.536 1.609 1.319 2.61-.632 2.91-4.788 6.553-6.54 8.992zm18.564-17.984 4.69 5.511 1.933 2.611-1.73 2.901-4.893 6.381h-.58l-6.962-8.702v-.29l6.962-8.412zm17.113.58c1.063 1.395 3.089 2.718 3.71 4.351.898 2.364-1.742 7.936-2.259 10.443-2.089-1.196-3.552-3.518-5.222-5.222-.591-.602-1.661-1.389-1.684-2.32-.048-1.912 4.003-6.138 5.455-7.252zm-53.661-.29c1.304 1.917 5.478 5.805 5.474 8.122-.003 1.854-3.495 5.062-4.894 6.091-1.262-4.48-4.42-10.414-.58-14.213zm6.381-29.876c3.076 5.836 3.655 13.168 5.611 19.434.61 1.957 2.992 5.625 2.799 7.542-.253 2.525-4.927 6.633-6.669 8.412h-.29c-1.72-2.167-5.327-5.651-5.826-8.412-.333-1.841 1.461-4.717 1.719-6.672.647-4.915.67-9.886 1.374-14.793.253-1.763.248-4.023 1.282-5.511zm42.64 0 1.499 19.144.951 7.832-5.641 8.121h-.58c-1.618-2.295-5.893-4.961-6.377-7.831-.266-1.58 1.88-4.513 2.412-6.091 1.798-5.337 3.141-10.803 4.578-16.244.545-2.06.6-4.846 3.158-4.931zm-21.175 0c1.235 6.366 2.278 12.844 3.809 19.144.504 2.077 2.597 5.805 2.284 7.832-.325 2.103-3.87 5.056-5.246 6.67-.549.643-1.282 1.761-2.252 1.233-1.661-.902-5.93-6.024-6.184-7.903-.207-1.54 1.42-3.735 1.869-5.221 1.171-3.884 1.862-7.913 2.605-11.893.427-2.287.689-9.076 3.115-9.862zm43.509 1.16c-.874 2.763-2.762 5.201-3.971 7.832-3.238 7.046-6.746 14.455-8.501 22.045-1.158-.551-3.22-2.267-2.816-3.771.677-2.522 3.578-5.472 4.886-7.832 3.237-5.834 5.749-13.415 10.402-18.274zm-88.759.58c4.974 5.748 8.218 13.022 11.678 19.725 1.302 2.522 4.175 5.14 1.955 7.831l-8.928-19.434zm40.899-1.74-3.518 17.404-2.573 7.251c-2.681-4.709-3.534-10.477-4.898-15.663-.767-2.92-2.091-5.987-2.354-8.992zm44.38 0-4.125 7.542-9.218 16.533h-.29c-.613-7.757-.204-16.198-2.031-23.785 4.589-1.356 10.873-.29 15.664-.29zm-24.076 0c-.799 5.937-2.917 12.276-4.74 17.984-.594 1.858-1.106 4.971-2.801 6.091-2.016-7.539-4.769-16.237-4.931-24.075zm-41.188 0-1.111 8.702-1.79 15.083h-.58l-7.955-14.793-5.678-8.992z"/><path d="m102.981 169.026c-.711-1.683-2.441-4.539-4.145-5.348-1.236-.586-2.709-.571-3.977-1.177-1.302-.621-2.214-1.774-3.481-2.417-1.707-.865-4.213-.905-6.091-1.267-8.792-1.696-17.541-3.684-26.106-6.317-3.843-1.182-8.324-2.097-11.602-4.536-7.44-5.533-6.381-14.237-6.381-22.447v-67.005c0-3.074-.1-6.498 1.422-9.282 2.168-3.964 6.531-6.365 10.18-8.798 8.582-5.721 17.76-10.541 27.266-14.529 22.281-9.35 47.95-15.551 72.225-14.956 19.84.486 39.532 4.835 58.303 11.114 12.787 4.278 24.926 10.517 36.257 17.767 4.425 2.832 10.387 6.026 11.916 11.433 2.022 7.158.557 16.373.557 23.785v48.73c0 8.804 1.488 18.185-6.381 24.212-3.135 2.401-7.592 3.302-11.313 4.423-7.269 2.19-14.608 4.052-22.045 5.592-4.811.996-8.931 1.33-13.052 4.03-2.003 1.312-4.75.638-6.518 1.78-1.471.95-2.406 3.655-3.054 5.213 5.365-.044 10.958-1.314 16.243-2.201 11.364-1.905 22.565-4.376 33.647-7.539 5.961-1.701 14.045-3.166 18.553-7.675 6.065-6.066 4.072-16.262 4.072-24.064v-60.043c0-5.023-.119-10.062.002-15.083.084-3.343.476-6.588-1.485-9.572-1.984-3.018-5.474-5.135-8.38-7.17-5.806-4.065-11.75-7.814-17.983-11.193-25.944-14.065-56.84-22.967-86.438-23.691-32.681-.801-67.004 7.868-95.72 23.401-6.42 3.472-12.617 7.248-18.564 11.486-2.701 1.925-5.979 3.853-7.937 6.587-2.151 3.004-1.926 6.366-1.926 9.862v75.416c0 7.775-1.97 18.02 4.073 24.064 4.482 4.482 12.625 5.983 18.552 7.675 15.714 4.485 32.908 9.036 49.311 9.74z"/><path d="m90.952 155.289c.576-.827 1.443-1.389 2.5-1.787 1.189-.449 2.737-.608 4.197-.871 6.146-1.109 13.298-.171 19.545-.171h82.087c2.252 0 5.087-.227 7.049.433 1.346.452 2.42 1.202 3.041 2.408.67-.065 1.271-.131 1.803-.198 9.7-1.233 19.332-3.96 28.716-6.631 4.121-1.173 9.453-2.255 12.417-5.556 4.421-4.919 2.666-14.195 2.666-20.3v-64.974c0-2.448.148-5.156-1.346-7.251-1.656-2.326-4.439-3.946-6.776-5.511-4.605-3.086-9.342-5.867-14.213-8.502-22.587-12.216-50.231-20.159-75.996-20.79-28.428-.697-56.925 5.736-82.667 17.737-6.927 3.229-13.766 7.019-20.015 11.432-2.293 1.619-5.093 3.108-6.847 5.345-1.586 2.022-1.274 4.549-1.274 6.96v65.844c0 5.891-1.86 15.299 2.374 20.01 2.947 3.279 8.065 4.215 12.129 5.434 9.42 2.827 19.229 5.511 29.006 6.753.502.064 1.037.126 1.604.186zm116.753-84.157v70.918h-42.151v-4.813h36.555v-61.292h-91.761l-11.936.321c1.741 13.619.711 28.353.015 42.038-.302 5.921 1.38 12.864-.015 18.612l12.682.321h23.873v4.813h-42.15v-70.918z"/></g><path d="m117.666 135.789c.908.806 2.11 2.236 2.927 3.484.636.998 1.94 3.665 2.44 5.026 1.157 3.155 2.042 7.376 2.507 11.994l.205 1.906-.795.998c-6.513 8.363-14.546 14.955-23.964 19.664-6.989 3.494-14.591 5.82-22.273 6.808-2.065.261-6.796.635-6.796.533 0-.023.317-.148.715-.272 1.202-.386 3.574-1.362 5.355-2.224 11.959-5.753 22.614-16.6 30.726-31.283 2.61-4.72 5.345-10.892 7.126-16.089.25-.726.477-1.384.499-1.475.068-.182 0-.227 1.328.93z"/><path d="m109.587 131.988c1.782.318 4.539 1.226 4.539 1.487 0 .091-1.044 3.086-1.555 4.436-1.225 3.291-2.553 6.354-4.187 9.645-5.764 11.641-13.241 21.15-22.012 27.98-6.603 5.14-14.319 8.623-21.887 9.883-.999.159-1.827.329-1.85.374-.056.159-4.402-.465-6.887-.975-16.112-3.37-30.318-12.05-40.473-24.724-1.18-1.475-3.041-4.006-3.041-4.131 0-.034.579-.034 1.282.023 1.498.114 6.57.023 8.59-.147 8.044-.692 16.861-2.758 27.628-6.445 5.016-1.725 9.157-3.279 19.062-7.171 10.099-3.96 13.786-5.333 18.552-6.899 6.161-2.019 10.893-3.12 15.318-3.54 1.702-.159 5.525-.045 6.921.204z"/><path d="m124.054 115.105c3.461 1.316 7.999 3.426 10.212 4.743 2.167 1.293 3.937 2.779 4.561 3.857l.295.488-.193 1.498c-1.169 8.907-4.323 18.154-8.85 25.87-.987 1.679-2.099 3.472-2.111 3.37 0-.034-.124-.896-.272-1.929-1.123-7.557-3.234-13.162-6.433-17.088-.829-1.01-2.565-2.655-3.427-3.245-.465-.318-.635-.499-.601-.635 1.486-4.879 2.904-11.324 3.528-16.078.103-.692.205-1.407.227-1.611l.068-.364.874.318c.477.182 1.441.545 2.122.806z"/><path d="m6.784 146.54c.023.034.855 1.719 1.32 2.616.477.896 1.18 2.178 1.589 2.836l.726 1.203.647.068c.363.045 1.77.136 3.131.204 5.515.307 12.515-.431 19.539-2.053 8.578-1.986 16.225-4.528 31.259-10.417 1.589-.624 4.687-1.826 6.865-2.689 14.444-5.662 21.763-7.897 28.99-8.873 2.202-.295 7.16-.295 8.851 0 1.906.341 4.141.988 5.003 1.441.148.091.216.068.261-.09 1.169-4.006 2.02-7.659 2.735-11.665.374-2.076.851-5.378.851-5.82 0-.216.159-.159-4.074-1.487-18.687-5.889-43.4-10.609-63.778-12.186-17.088-1.327-30.908-.499-39.543 2.372-3.857 1.282-6.478 2.734-8.396 4.652-.976.964-1.486 1.679-2.133 2.95l-.397.794-.148 2.439c-.147 2.587-.091 7.047.125 9.475.703 8.158 2.916 16.498 6.195 23.419.14.295.271.573.382.811z"/><path d="m43.153 53.55c2.599.454 6.434 1.6 9.078 2.723 5.276 2.236 10.87 5.651 17.927 10.938 1.963 1.475 2.859 2.167 9.701 7.512 5.708 4.459 9.441 7.193 12.833 9.383 7.33 4.72 13.605 7.341 19.732 8.238 1.6.238 4.913.442 5.639.363.703-.08.647-.204.817 1.747.397 4.38.431 10.235.113 14.388-.124 1.509-.158 1.724-.317 1.656-.102-.045-1.453-.476-3.019-.976-19.243-6.081-44.171-10.847-65.242-12.447-5.968-.454-7.738-.522-14.637-.522-7.159.012-9.032.091-13.729.636-9.531 1.089-16.793 3.619-20.56 7.182-.272.25-.488.431-.488.397s.136-.726.295-1.532c1.827-9.247 5.549-18.143 10.802-25.858 5.106-7.489 11.596-13.9 19.085-18.835 2.383-1.566 4.153-2.599 6.978-4.051l2.383-1.237.794.057c.443.034 1.259.136 1.815.238z"/><path d="m73.675 47.026c6.094.397 11.676 1.43 17.247 3.188 1.418.454 2.122.749 3.234 1.373 6.388 3.586 11.846 8.805 15.874 15.17 3.494 5.503 6.07 12.028 7.568 19.131.215.987.726 3.914.726 4.107 0 .182-2.462.204-4.085.034-7.341-.772-14.625-4.017-24.168-10.768-2.303-1.634-5.594-4.13-10.802-8.203-7.159-5.617-9.224-7.16-12.799-9.622-7.239-4.981-13.683-8.147-19.742-9.69-.84-.216-1.453-.42-1.362-.454 7.194-2.587 13.309-3.835 21.048-4.3 1.395-.091 5.718-.068 7.261.034z"/><path d="m133.61 88.525c2.945 6.65 4.86 13.765 5.58 21.077.318 3.211.454 8.169.284 10.064l-.08.749-.851-.681c-3.029-2.405-8.022-4.924-14.546-7.341-1.214-.454-2.315-.862-2.439-.919-.227-.091-.239-.102-.08-1.827.261-2.723.25-12.163-.011-14.716-.272-2.712-.306-2.474.408-2.565 1.963-.261 5.084-1.077 7.387-1.94.962-.354 3.405-1.431 4.009-1.748zm-1.376-2.148-1.02.475c-3.257 1.532-7.569 2.848-9.713 2.973l-.613.034-.147-.908c-2.054-12.64-7.024-23.328-14.456-31.089-1.588-1.657-1.611-1.657 1.146.091 10.858 6.901 19.529 16.811 25.105 28.261l-.313.141z"/><g fill-rule="nonzero"><path d="m314.093 135.44c-4.372-3.363-9.584-5.549-15.132-5.549-12.946 0-21.521 9.079-21.521 22.025 0 10.256 7.062 16.982 13.955 23.034 7.061 6.221 13.955 11.938 13.955 20.512 0 7.23-5.044 13.114-12.61 13.114-6.557 0-11.097-4.035-15.3-8.406v12.778c4.203 3.362 10.256 5.884 15.636 5.884 14.291 0 23.539-10.928 23.539-24.715 0-11.265-6.894-17.654-13.955-23.538-6.894-5.717-13.955-10.76-13.955-18.999 0-6.389 4.203-11.433 10.76-11.433 6.053 0 11.097 4.204 14.291 8.743h.337z"/><path d="m334.531 82.983h-10.928v134.504h10.928v-41.36h.336l26.565 41.36h13.619l-32.45-47.581 25.724-38.67h-12.441l-21.017 34.972h-.336z"/><path d="m384.043 167.384c0-7.734 2.354-27.237 12.778-27.237 11.433 0 11.769 17.486 12.106 25.724l.168 1.513zm36.148 9.248v-5.212c0-15.132-3.194-41.529-23.37-41.529-20.848 0-24.211 29.255-24.211 44.723 0 17.317 3.027 44.218 25.724 44.218 15.973 0 21.017-17.485 21.185-30.599h-11.265c0 6.893-1.345 20.343-10.928 20.343-11.938 0-13.451-20.848-13.451-29.422v-2.522z"/><path d="m455.076 131.236h-14.291v-23.538h-10.928v23.538h-9.248v10.088h9.248v76.163h10.928v-76.163h14.291z"/><path d="m483.154 209.921c-13.955 0-12.61-27.405-12.61-37.997 0-7.734-1.177-33.122 12.105-33.122 10.929 0 12.778 14.123 12.778 33.794 0 29.591-3.362 37.325-12.273 37.325zm-22.53 7.566h10.929v-6.725h.336c3.195 4.876 8.07 8.07 14.291 8.07 18.831 0 20.512-23.538 20.512-45.395 0-19.503-1.345-43.546-21.352-43.546-6.221 0-10.256 2.354-13.451 7.23h-.336v-54.138h-10.929z"/><path d="m548.651 172.933c0 27.069-2.017 36.988-12.609 36.988-6.389 0-12.274-1.681-12.274-37.325 0-14.627.673-33.794 12.778-33.794 10.76 0 12.105 15.468 12.105 34.131zm9.92-41.697h-10.928v5.885h-.337c-3.362-4.708-7.229-7.23-13.282-7.23-20.848 0-21.521 24.211-21.521 43.546 0 37.661 6.726 45.395 20.512 45.395 6.221 0 11.097-3.194 14.291-8.07h.337v6.725h10.928z"/><path d="m568.357 82.983h10.928v134.504h-10.928z"/><path d="m589.072 82.983h10.928v134.504h-10.928z"/><path d="m189.521 209.921c-13.955 0-12.61-27.405-12.61-37.997 0-7.734-1.177-33.122 12.106-33.122 10.928 0 12.777 14.123 12.777 33.794 0 29.591-3.362 37.325-12.273 37.325zm-22.53 7.566h10.929v-6.725h.336c3.195 4.876 8.07 8.07 14.291 8.07 18.831 0 20.512-23.538 20.512-45.395 0-19.503-1.345-43.546-21.352-43.546-6.221 0-10.256 2.354-13.451 7.23h-.336v-54.138h-10.929z"/><path d="m259.295 172.933c0 27.069-2.018 36.988-12.61 36.988-6.389 0-12.273-1.681-12.273-37.325 0-14.627.672-33.794 12.778-33.794 10.76 0 12.105 15.468 12.105 34.131zm9.92-41.697h-10.929v5.885h-.336c-3.363-4.708-7.23-7.23-13.282-7.23-20.848 0-21.521 24.211-21.521 43.546 0 37.661 6.725 45.395 20.512 45.395 6.221 0 11.097-3.194 14.291-8.07h.336v6.725h10.929z"/></g></g></svg>