<svg clip-rule="evenodd" fill-rule="evenodd" stroke-linejoin="round" stroke-miterlimit="2" viewBox="0 0 600 276" xmlns="http://www.w3.org/2000/svg"><g fill="#fff"><path d="m490.712 172.26 9.157 30.593c.239-.128.478-.255.716-.38l.253-.11 7.14-30.034c-.857.245-1.735.446-2.641.589-4.433.692-10.211.272-14.625-.658zm-72.399 17.775 2.372.995-2.697 3.359zm7.492-5.383-1.477 1.84-5.618-1.781.185-2.478zm-18.901-45.04c1.848-9.196 2.829-18.796 2.225-28.536-.204-3.252-.038-12.482-.038-12.482s-7.172 3.848-8.483 4.597h-.846c2.21-8.291 4.42-16.583 6.634-24.874 1.725-6.74 2.685-14.001 5.109-20.45 7.148-19.076 21.519-36.161 40.724-44.284 4.857-2.062 10.118-2.873 15.198-4.565 4.32.142 8.625.283 12.946.423 3.878.961 7.746 1.921 11.615 2.882 1.672.185 3.336.361 5.004.537 2.913.926 5.822 1.851 8.73 2.776 1.535.784 3.056 1.568 4.591 2.353 2.6.827 5.19 1.647 7.78 2.475 4.158 2.133 7.87 5.243 11.762 7.877 3.084 2.079 6.24 3.674 9.163 6.097.803.67 2.618 1.401 2.856 2.468-.219.651-1.606.546-2.267.59 0 1.357-1.521 2.132-1.126 3.833 1.525 6.572 9.514 12.344 10.431 18.159h.285c.129.159.252.309.376.458 1.877 1.577 2.628 4.52 3.597 6.582 1.293 2.053 2.581 4.097 3.874 6.15 1.886 3.56 2.162 8.864 5.403 11.622-.185.379-.38.749-.565 1.128.399 0 1.977 5.736 2.224 6.502 1.055 2.405 2.105 4.802 3.16 7.207.442 1.666.875 3.322 1.312 4.979 1.269 2.908 3.854 5.797 5.912 8.212 1.834 2.15 4.443 3.277 5.879 5.603 4.415 7.137 9.077 14.169 12.812 21.631v.564c.404 0 .385-.299.561-.564v.282h.285c0 .423-.214.282-.566.282 0 .37-.095.282.281.282 0 .555 2.229 4.45 2.566 5.481 1.293 4.009 4.933 19.402 3.26 23.693-.298.753-1.247.922-2.318.935-1.092-1.502-2.691-2.649-4.627-3.155-8.56-2.238-23.593-6.127-29.431-7.57-.375-.093-.751-.158-1.124-.198 1.673-.83 3.43-1.506 5.379-1.831 7.095-1.189 13.853 2.697 19.95-1.092 2.662-1.666 3.261-3.622 3.118-6.714-.556-11.578-16.344-16.635-26.495-16.635-2.001 1.039-4.006 2.07-6.007 3.11-5.18 3.542-6.311 6.855-13.464 7.445-8.178.67-15.155-5.048-23.253-2.344-3.726 1.234-6.977 3.164-10.071 5.613-3.778 2.97-6.672 6.441-11.543 7.401-5.988 1.176-10.313-1.491-15.139-2.893l-.095-.318c-.895-2.992-3.388-5.231-6.457-5.803-2.43-.453-4.898.2-6.767 1.718l-.043-.01c-.349-.066-.699-.11-1.048-.129-1.211-1.937-3.19-3.319-5.496-3.759-3.029-.577-6.129.565-8.059 2.969l-29.993 37.36-.305-1.767-7.144-2.918.212-2.839 5.416 2.257-.931-2.913-4.27-2.23.313-4.193.141.06-.09-.744 1.51-20.254c.257-3.447-1.641-6.695-4.77-8.163-2.801-1.315-6.067-.959-8.503.855l-.262-.052c-.294-.419-.628-.81-.998-1.169zm146.819 24.572c-1.041.476-2.12.883-3.262 1.175-3.302.838-6.609.942-9.926.832l8.469 16.254 4.099-16.565c.148-.598.358-1.166.62-1.696zm-54.935-41.147c-.332 0-.969-3.921-1.126-4.511 0-1.877-1.421-3.824-2.286-5.287-4.648-7.912-15.056-11.63-24.499-11.63-1.392.273-2.785.537-4.177.801-3.836.969-8.54 2.785-11.748 5.067-11.092 7.877-8.702 26.644 2.951 32.477 1.535.819 3.06 1.63 4.59 2.449 15.455 6.028 36.015-2.14 36.576-19.93-.395 0-.281.238-.281.564zm41.598-27.108c-5.047-2.202-11.401-2.388-17.674-2.388-2.652 1.199-5.94 1.111-8.421 2.653-7.542 4.652-13.217 11.128-11.473 21.067.423 2.414.395 4.291 1.559 6.212 1.92 3.18 4.624 5.172 7.338 7.568 0 .423.214.291.556.344 1.887.264 5.384 1.56 6.492 3.04 0 .449.789.326 1.121.37 3.631.396 11.497 1.595 14.961.696 20.15-5.243 26.699-30.363 5.541-39.562zm-127.56-2.908 13.454-7.262.057 3.934-12.451 6.822zm102.943-49.204.157-.118c6.51.202 13.074 8.027 17.85 11.983 1.72 1.427 5.042 2.812 6.339 4.698.975 1.427 1.968 3.427.718 4.96-1.844 2.238-5.997-.565-7.252-2.072-1.716-2.071-9.966-10.384-12.589-9.97-1.526.229.109 3.911-1.402 4.308-.604.156-2.205-.212-3.298-1.044-.395-.302-1.73-.425-1.73-.425s-4.762 8.062-3.996 7.043l.092-.127c-3.316 4.764-6.766 9.167-9.18 14.329-.969 2.141-3.778 8.64-3.778 8.64s-15.46-9.317-18.782-11.467c-2.547-1.577-5.085-3.154-7.633-4.732-1.382-.52-2.765-1.03-4.158-1.55-1.796-.899-4.067-2.696-6.448-2.406-2.367.273-3.251 2.124-4.53 3.745-2.685 3.383-5.261 6.458-7.318 10.133-1.801 3.172-2.662 7.163-5.033 9.965-1.055 1.233-2.899 2.123-4.396 1.119-.704-.476-1.122-1.542-.96-2.458.784-1.463 1.568-2.926 2.352-4.397 1.825-4.626 3.208-9.357 5.698-13.613.338-.59 2.89-2.573 2.89-2.696.732-.987 2.319-2.503 1.782-3.886-.466-1.181-2.186-2.124-2.062-3.648.152-1.982 3.165-2.546 4.785-2.467 2.405.115 16.601 4.705 18.202 5.912.513.52 1.031 1.04 1.545 1.551.66.097 1.321.194 1.972.282-.276.123-.566.185-.566.564h.566c.508.273 5.375 1.594 5.375 1.594l-.808 1.151 15.493 11.47s2.847-8.19 5.028-13.02c3.277-7.292 8.477-18.3 15.075-23.351zm-102.444 41.405 14.082-7.306-.932 4.663-13.216 6.461zm1.022-8.754 12.204-4.34-.461 3.068-12.147 4.77zm.413-8.582 12.628-3.655-.552 2.937-12.042 4.47zm2.348-9.529 12.338-1.534-1.208 2.839-12.171 2.741zm3.208-8.159 12.532-.294-1.958 3.688-11.985-.117zm4.962-7.342 11.097-.49-1.569 3.231-11.814.489zm6.102-8.192 9.267.621-1.697 2.839-10.127-.185zm5.774-6.558 8.06 1.109-1.858 2.71-8.355-1.666zm8.16-5.189 6.853.979-3.004 2.251-5.446-1.794zm8.388-4.275 6.23 2.088-3.326 1.469-5.257-2.187z"/><path d="m52.885 157.297c-29.937-25.659-45.45-54.19-46.352-85.117-.185-30.292 14.885-54.233 41.339-65.609 24.51-10.477 52.877-7.329 68.801 7.919 1.3 1.239 2.548 2.448 3.745 3.633-3.378.991-6.612 2.519-9.6 4.565-7.786 5.122-13.105 13.101-14.776 22.266-4.954-7.721-12.882-13.48-22.516-15.274-9.101-1.847-18.491-.073-26.102 5.137-7.797 5.129-12.936 13.205-14.783 22.306-3.755 18.835 8.608 37.129 27.525 40.7 18.777 3.744 37.016-8.531 40.849-27.266.079.119.159.237.24.355 5.129 7.796 13.123 13.119 22.305 14.782 8.855 1.797 17.809.089 25.298-4.804.391 7.38.538 15.783.706 25.643l-.003 3.968c.739 23.732 4.622 39.526 9.287 50.013-2.089 5.96-3.138 12.395-2.933 19.073.014.466.034.93.061 1.393-1.811-1.647-3.613-3.186-5.399-4.615l-20.123-25.305c-1.931-2.428-5.05-3.583-8.096-2.997-1.639.316-3.111 1.106-4.256 2.236-1.937-2.341-4.999-3.441-7.988-2.865-3.028.583-5.486 2.789-6.391 5.737l-6.135 19.984c-2.967-3.35-6.508-5.975-10.532-7.871-2.273-1.071-4.808-1.03-6.961-.066-1.131-.533-2.308-1.008-3.531-1.423-.395-1.226-.847-3.115-1.219-4.77-.004-.45-.367-.627-.817-.622-.45.004-.627.366-.623.816.154.916.47 2.554.899 4.029-1.568-.444-3.205-.793-4.909-1.042-1.124-1.916-3.005-3.37-5.313-3.903-3.562-.822-7.472-1.176-11.697-1.006zm-42.148 9.329c-3.221-3.44-5.786-6.911-7.47-10.343-3.841-7.222-3.858-11.64-2.283-12.703 2.088-1.717 9.47.027 17.381 7.518 4.008 4.045 7.749 7.587 11.244 10.694-6.436 1.602-12.732 3.217-18.872 4.834zm56.801-13.65.605 6.571c.093.269.548.715.817.622.45-.004.896-.459.622-.817l-.605-6.57c-.005-.451-.366-.628-.817-.623-.45.005-.627.366-.622.817zm-8.987-6.849c-.163 1.714-.918 7.397 1.254 8.457.363.176.813.172.99-.191.176-.361.172-.812-.191-.989-.905-.441-.94-4.044-.521-7.202.088-.181-.097-.72-.547-.715-.451.004-.809.278-.985.64zm-4.284-5.003c-.265.544-2.556 5.701-1.178 8.39.004.451.455.446.905.442.357-.274.534-.636.26-.994-.83-1.973.755-5.683 1.462-7.131.177-.362-.097-.72-.46-.897-.361-.176-.812-.172-.989.19zm-13.557-28.746c2.733 8.302 14.237 24.895 31.07 23.251 11.945-1.077 21.972-6.756 31.65-12.15 8.88-5.087 17.412-9.888 26.658-10.843 2.516-.203 6.504.25 10.367 3.954l.184.082.614-.388c-1.715-4.072-7.297-7.879-13.045-7.352-11.045 1.037-20.007 6.308-28.622 11.293-8.082 4.781-15.817 9.276-24.796 10.129-18.225 1.808-28.42-16.402-30.36-21.456-.216-.665-.477-1.263-.766-1.773.872-.767 1.919-1.449 3.121-2.029l.614-.388-.552-.246c-1.411-1.29-3.313-1.475-5.174-.76-2.661 1.02-4.605 3.903-4.914 7.073-.309 3.171 1.366 6.342 4.801 8.532l.43-.47s-1.771-2.971-1.28-6.459zm155.971 13.973c1.901-5.161 3.777-9.816 5.629-13.975 4.343-9.754 8.54-16.705 12.675-21.039l.082-.184c2.148-2.351 3.213-2.759 3.663-2.779.286.348 1.43 1.739 1.692 7.589-.579 10.611-2.011 20.457-4.002 29.496-2.439-.351-4.909-.533-7.395-.538l-1.179-1.701c-.287-.348-.654-.512-1.002-.226s-.512.654-.226 1.003l.659.949c-3.64.113-7.184.594-10.596 1.405zm13.647-14.154c1.227 1.208 5.458 5.076 4.475 7.284-.164.369-.512.655-.88.491s-.654-.512-.491-.88c.41-.921-1.879-3.703-4.23-5.853-.184-.082-.388-.614-.04-.9s.798-.306 1.166-.142zm.066-6.586c.552.246 5.623 2.724 6.296 5.669.286.349-.062.635-.41.921-.45.02-.818-.144-.838-.594-.633-2.045-4.232-3.868-5.704-4.524-.368-.164-.388-.614-.225-.982.165-.368.512-.654.881-.49zm-143.523-72.255c1.935.008 3.893.206 5.855.598l2.111.506 2.221.705.815.307 1.825.785.438.21 1.742.922.195.113c5.116 2.974 9.213 7.346 11.844 12.495l.54 1.111c.433.94.818 1.903 1.153 2.887l-.223-.319c-1.144-1.586-2.497-2.727-3.96-3.279l-.896-.261-1.073-.113-.163.001c-5.083.116-9.224 7.197-9.074 16.191.11 4.835 1.466 9.177 3.519 12.065l.038.052c.416.58.861 1.1 1.33 1.553l.455.411.315.255c.053.04.105.08.158.118l.588.389c.105.063.211.122.318.179l.309.152c.263.121.532.223.804.305l.142.04c.505.137 1.022.202 1.548.19.527-.006 1.04-.082 1.538-.222-6.749 9.21-18.366 14.195-30.313 11.847h-.003c-16.464-3.141-27.191-19.163-24.051-35.626 1.539-7.915 6.186-14.887 13.021-19.341 5.014-3.42 10.817-5.235 16.84-5.227zm-40.244 56.591c-.164.368-.512.654-.88.49l-3.722-.555c-.368-.163-.654-.511-.674-.961.164-.369.512-.654.88-.491l3.906.637c.368.164.654.512.49.88zm-1.06-5.544c.02.45-.328.736-.778.756l-2.618-.062c-.45.02-.736-.328-.756-.778s.328-.736.778-.756l2.618.062c.45-.02.736.328.756.778zm92.452-60.656c5.641-2.444 11.816-3.19 17.916-2.004 7.915 1.539 14.887 6.187 19.423 12.837 1.668 2.56 2.952 5.288 3.825 8.117-1.671-2.311-3.804-3.675-6.072-3.624-4.638.058-8.276 5.484-9.046 12.585l-.115 1.428-.032 1.854.072 1.714.159 1.559.222 1.396.074.379c.63 3.084 1.784 5.731 3.262 7.654v.001c1.642 2.135 3.682 3.377 5.846 3.331-1.551 1.872-3.331 3.562-5.315 5.041l-1.089.777c-5.259 3.427-11.232 5.231-17.313 5.18l-.092-.001c-1.221-.014-2.446-.103-3.67-.269l-.062-.008c-.551-.076-1.101-.167-1.651-.274-.831-.167-1.648-.364-2.45-.591-.097-.028-.194-.056-.29-.084-.352-.103-.701-.212-1.047-.327l-.018-.006c-.415-.138-.825-.285-1.231-.439l-1.037-.416-.763-.335-.455-.211c-.192-.091-.382-.184-.571-.278-.426-.214-.847-.437-1.262-.67l-.043-.024c-.442-.249-.876-.508-1.303-.778l-.396-.254c-1.85-1.209-3.56-2.617-5.109-4.205l-.763-.812-.499-.563-.483-.573c-.103-.125-.206-.252-.307-.379-.105-.131-.208-.263-.31-.396l-.442-.586c-.099-.136-.198-.272-.296-.41l-.506-.745-.65-1.058-.646-1.15-.691-1.365-.644-1.442-.557-1.428c-1.336-3.691-1.962-7.576-1.815-11.495l.091-1.459.141-1.296.182-1.201.119-.65c1.621-8.099 6.187-14.886 12.837-19.423l1.459-.898 1.408-.774 1.35-.659zm-91.689 51.514c.102.266-.062.634-.41.92-3.641 1.245-6.319-2.152-6.503-2.234-.286-.348-.306-.798.042-1.084s.982-.224 1.084.042 2.105 2.701 4.949 1.762c.265-.102.818.144.838.594zm-2.122-9.104c.205.532-.144.818-.409.921-4.644 1.02-7.157-2.745-7.341-2.827-.286-.349-.04-.901.226-1.003.347-.286.798-.306 1.084.042.102.266 2.125 3.151 5.602 2.274.451-.02.818.144.838.593zm67.647-1.941c.149 1.618-1.105 2.988-2.558 3.021-1.452.033-2.822-1.221-2.806-2.954-.148-1.617 1.106-2.987 2.558-3.02 1.733.016 2.938 1.386 2.806 2.953zm-73.242-10.252c1.225 1.207 4.537 4.666 6.357 5.036.45-.021.736.327.573.695.02.45-.328.736-.778.756-2.822-.595-6.808-5.015-7.278-5.445-.287-.348-.307-.798.041-1.084s.798-.306 1.085.042zm137.057-.698c.149 1.617-1.104 2.987-2.557 3.02-1.733-.016-2.937-1.385-2.806-2.953-.149-1.618 1.106-2.988 2.558-3.021s2.822 1.221 2.805 2.954zm-136.173-7.729c2.043 3.336 4.516 6.2 5.232 6.078.45-.02.818.144.839.594.286.348-.062.634-.328.736-2.23.551-5.52-4.441-6.971-6.631-.286-.348-.122-.716.226-1.003.348-.286.716-.122 1.002.226zm2.888-5.991s3.76 5.423 5.906 7.04c.286.348.307.798-.041 1.084-.164.368-.614.388-.982.224-2.249-1.883-6.008-7.305-6.111-7.571-.286-.348-.122-.716.226-1.002.348-.287.716-.123 1.002.225z"/><path d="m596.061 192.373c1.415.421 2.742.817 3.939 1.175l-20.559 81.472c-20.05-5.928-42.802-11.972-67.398-17.584l.935-4.192c.926.219 1.896.45 2.909.692 3.774.902 7.083 1.706 9.958 2.42 16.781 4.167 32.571 8.502 47.021 12.792l3.627 1.078.93-3.693zm-497.204 5.042 12.833-41.798 3.062 3.799-26.064 84.9c-1.513.312-3.018.625-4.518.94l8.892-28.965c-3.21 4.495-7.614 8.051-12.868 9.651-3.669 1.116-6.657 2.025-10.324 3.142 2.297 10.356 4.594 20.711 6.892 31.067-14.128 3.244-27.689 6.584-40.585 9.952l-.908-3.826c7.195-1.801 14.847-3.652 22.962-5.549 2.337-.546 4.29-1 5.776-1.341 2.373-.543 4.407-1.008 5.845-1.33l3.604-.814-.83-3.557-6.013-25.78 6.965-2.061c10.694-3.163 18.274-12.96 20.507-23.138.445-2.017.682-4.034.701-6 .018-2.009-.189-4.007-.638-5.945l-.198-.803-.014-.014c-1.87-7.381-5.42-13.137-10.432-17.123 7.489 3.53 12.603 10.474 14.819 20.463.297 1.342.473 2.726.534 4.13zm425.634-26.99-17.994 77.578c24.595 5.637 47.347 11.705 67.401 17.658l20.552-81.771c-8.286-2.485-22.839-6.804-28.488-8.415l-12.334 51.06zm-474.097 1.383c21.452-5.435 36.049 1.938 40.203 19.753 2.738 11.74-5.042 26.954-18.051 30.803-3.642 1.077-6.609 1.956-10.253 3.034 2.263 9.703 4.526 19.405 6.789 29.108-14.031 3.16-27.497 6.405-40.305 9.671-6.789-27.19-13.579-54.38-20.369-81.569 13.204-3.611 27.239-7.24 41.986-10.8zm-26.691 87.052c-1.116.282-2.227.564-3.334.846-6.79-27.19-13.58-54.38-20.369-81.57 13.204-3.611 27.237-7.24 41.985-10.799 7.897-2.001 14.864-2.266 20.723-.914-3.715.05-7.69.558-11.901 1.54-.006.001-.427.107-1.26.319l-.001-.003c-10.691 2.579-20.955 5.183-30.756 7.775-2.461.65-4.334 1.149-5.704 1.518-2.444.658-4.331 1.17-5.608 1.518l.002.007-3.468.912.867 3.474zm521.036-6.815c8.456 2.25 16.579 4.52 24.326 6.78l7.447-29.629-3.809-.966-6.495 26.312c-6.647-1.919-13.559-3.843-20.714-5.752zm-463.695-63.544c.363 1.087.679 2.199.941 3.324 2.716 11.023-3.103 20.36-20.407 24.699-3.642 1.078-7.179 1.908-10.823 2.985 2.263 9.704 4.444 19.023 6.708 28.726-8.686 1.956-16.826 4.043-24.896 6.045l.706 3.253c9.284-2.337 18.901-4.654 28.814-6.936-2.249-9.646-4.532-19.426-6.781-29.071 3.644-1.079 7.182-1.908 10.825-2.986 15.681-4.47 21.98-15.797 19.263-26.82-.326-1.395-.724-2.752-1.19-4.063zm41.781-28.57 1.107-3.684 65.387 82.225c-33.332 5.16-65.386 11.279-95.45 17.864l1.114-3.71c18.818-3.899 38.33-7.572 58.298-10.873 3.364-.556 7.548-1.225 12.546-2.005 4.449-.695 8.686-1.338 12.691-1.925l.034-.006 6.299-.924-3.988-4.949zm291.051 74.578c2.825.395 5.491.779 8.007 1.152 3.824.568 8.046 1.227 12.656 1.971 21.553 3.477 42.464 7.545 62.302 11.925l5.297 1.17v.001l3.611.825 1.393 4.654c-30.173-6.934-62.652-13.185-96.186-17.929zm-295.549-74.366 59.704 74.078c-30.458 4.467-59.749 9.8-87.222 15.561zm382.941 76.441 17.229-72.471 2.711 5.004-18.755 80.253-1.37-4.438-27.171-87.912 2.553-3.295zm-31.647-81.157-60.068 74.821c30.699 4.161 60.439 9.658 88.062 15.758zm-5.05 78.36c8.225 1.562 16.314 3.196 24.246 4.883-2.853-9.237-5.709-18.473-8.562-27.708l-3.711-.663 7.376 23.876c-6.154-1.281-12.399-2.528-18.723-3.735zm-138.129-6.799c11.529.571 22.754 1.296 33.867 2.168 13.185 1.033 26.503 2.278 40.207 3.714l3.737.392.003-.066 2.457.332-.309 4.153c-27.415-3.523-54.285-5.482-80.231-6.986zm-182.044 7.09c7.902-1.355 15.907-2.656 23.999-3.9l-2.511-3.114-15.982-19.831-4.36.78 15.855 19.673c-5.843.929-12.066 2.041-17.805 3.026zm112.415-27.691c-.485.938-1 1.859-1.544 2.763-1.385 2.301-2.922 4.436-4.582 6.387-7.397 8.695-17.767 14.667-29.243 16.515 17.472-.477 32.011-8.022 38.384-24.132zm150.869 14.151 55.394-68.999 1.393 4.506-60.053 74.802 5.491-80.219 3.219-3.106zm-80.639-79.655-5.61 82.215c26.033 1.174 51.878 3.269 79.454 6.162l5.479-80.293-42.179 40.786zm-113.188 43.428 41.561 16.372c-6.485 16.447-22.386 27.768-40.191 28.314-24.613.754-45.303-18.705-46.057-43.315-.755-24.613 18.703-45.304 43.316-46.058 15.012-.461 29.561 6.781 38.15 19.098zm157.503 36.66c7.54.654 15.166 1.376 22.921 2.161.576-8.514 1.16-17.029 1.741-25.543l-3.699-.424-1.506 22.108c-6.249-.619-13.108-1.226-19.222-1.756zm-155.004-30.248 32.245 11.799.258.096-.112.261c-.421 1.002-.898 1.981-1.417 2.931-.525.958-1.093 1.884-1.696 2.766-3.137 4.585-7.418 8.381-12.398 11.075l-.188.102-2.259-2.743-.208-.253.302-.152h.001c.805-.397 1.594-.826 2.363-1.283.762-.451 1.507-.932 2.234-1.443 3.618-2.546 6.637-5.736 8.728-9.379l-27.908-9.751-.171-.06-.005-.179-.133-3.92zm-87.975 13.994c3.228-.099 5.939 2.453 6.038 5.681s-2.451 5.939-5.679 6.038-5.941-2.451-6.04-5.679 2.453-5.941 5.681-6.04zm195.145-62.105-5.248 73.741c-1.462-.064-2.924-.124-4.386-.182l5.941-78.066zm228.275 63.23 9.394-37.96c5.816 1.438 20.794 5.312 29.322 7.542l-.835 3.245c-.759-.226-1.536-.458-2.325-.692-7.637-2.272-16.321-4.839-20.403-6.002l-3.635-1.038-.891 3.694-10.05 41.598-21.785-42.021 1.416-6.35zm-91.765-4.777c3.228-.099 5.941 2.452 6.039 5.68.099 3.228-2.45 5.94-5.679 6.039s-5.941-2.452-6.04-5.68 2.451-5.94 5.68-6.039zm-405.762-7.702c3.229-.099 5.94 2.453 6.039 5.681s-2.451 5.94-5.679 6.039-5.941-2.452-6.04-5.68 2.453-5.941 5.68-6.04zm249.813-15.635 4.533-.139.522 17.022-30.728.942-.121-3.949 26.194-.803zm-138.266 12.076c-.151-1.318-.248-2.653-.289-4.002l-.001-.014c-.406-13.308 4.651-25.557 13.136-34.577 8.48-9.017 20.393-14.814 33.696-15.225l.02-.001c6.504-.198 12.934.945 18.901 3.246-7.128-4.076-15.353-6.213-23.722-5.956-24.612.754-44.071 21.444-43.316 46.057.111 3.618.653 7.125 1.575 10.472zm107.274-15.308 27.226-.834.418 13.612-27.227.835zm-23.149-10.874c1.225 1.534 2.384 3.097 3.472 4.664l-26.886 17.111-5.035-1.984zm114.486 14.838 36.677-32.863-.25 3.292-36.257 35.41-32.005-42.265.441-6.086zm-68.307-8.311-23.142.709-3.638.112.112 3.638.253 8.263-2.986.092-.484-15.759 29.766-.913z"/></g></svg>