<svg clip-rule="evenodd" fill-rule="evenodd" stroke-linejoin="round" stroke-miterlimit="2" viewBox="0 0 600 423" xmlns="http://www.w3.org/2000/svg"><g fill="#fff"><path d="m18.821 378.252v44.187h236.839v-49.304l-.058-12.056 44.669 60.575 42.715-57.826 2.133-2.888.167 27.716v33.51h236.569v-136.286l-1.061.976-3.719 3.004s-4.037 2.784-4.061 2.801l-4.235 2.825s-2.192 1.167-2.235 1.19c0 0-2.437 1.216-2.437 1.216l-2.453 1.3-2.75 1.069-5.381 1.7-3.112.741-2.938.464-29.154 1.005-2.298-2.006s-.956-.958-.956-.958l-1.215-1.08-.872-.873-.974-1.165s-1.244-2.076-1.244-2.076l-1.527-1.942-.914-1.646s-.437-1.021-.437-1.021l-.61-1.219-.683-2.051v-6.082l.457-2.531s.768-1.225.768-1.225l.431-1.581 1.51-2.158s1.448-1.445 1.448-1.445l1.477-1.482s1.482-.987 1.482-.987l.775-.929s1.826-1.016 1.857-1.033c0 0 2.061-1.097 2.101-1.118l3.266-1.637h3.868s1.632-.231 1.675-.237c0 0 2.231-.265 2.231-.265s2.066-.366 2.066-.366 2.576-.642 2.649-.66c0 0 2.979-.619 2.979-.619s2.576-1.056 2.576-1.056 3.441-1.588 3.488-1.61c0 0 1.894-.811 1.894-.811s1.413-.653 1.413-.653 1.493-1.032 1.545-1.068c0 0 1.945-1.251 1.957-1.258 0 0 3.976-2.517 3.976-2.517s1.725-1.234 1.725-1.234 1.937-1.547 1.937-1.547 2.098-1.707 2.098-1.707.698-.61.698-.61l-.54-7.093h-17.255s-5.051-.137-5.11-.138c0 0-4.656-.274-4.715-.278 0 0-4.52-.409-4.56-.412 0 0-2.264-.254-2.264-.254h-2.085s-4.051-.578-4.14-.591l-3.848-.738-1.701-.57s-1.012-.503-1.012-.503l-1.375-.396-1.548-1.29-1.069-1.07s-.499-1.242-.499-1.242-.036-.072-.036-.072-.704-.906-.704-.906l-1.735-2.171-1.87-2.961s-.783-1.719-.81-1.776c0 0-.697-1.676-.697-1.676l-.67-1.606-.272.09-1.245.712-1.921.274h-2.633s-1.611-.537-1.611-.537l-1.655-.367s-1.42-.886-1.42-.886l-1.636-.744-2.082-1.564s-1.474-1.325-1.494-1.343l-1.935-1.789-1.843-2.148s-1.572-2.094-1.572-2.094l-2.249-2.392s-1.928-2.966-1.928-2.966l-.312-.468-7.128 3.564-7.42 4.77s-2.064 1.29-2.064 1.29-1.685 1.237-1.685 1.237l-1.879 1.877s-2.278 1.708-2.278 1.708-1.588 1.362-1.588 1.362l-1.663 1.918s-1.885 1.885-1.885 1.885-.609.711-.609.711l-.687.962s-1.783 2.038-1.783 2.038-1.176 1.995-1.191 2.022c0 0-1.396 2.284-1.396 2.284s-.87 1.852-.87 1.852-.597 2.023-.607 2.056c0 0-.801 2.542-.801 2.542s-.602 2.163-.602 2.163-.324 2.064-.324 2.064v3.708s.083.836.083.836.102.36.102.36 1.075 2.385 1.075 2.385.489.98.489.98l1.284 1.709s.298.697.298.697l.324.323s1.158 1.474 1.158 1.474l1.146.637s.949 1.11.949 1.11l.71.506s.515.442.515.442l.624.208s1.35.54 1.35.54.532.176.532.176h.685s1.167.393 1.167.393.905.183.905.183 1.118.091 1.118.091l1.739-.122h1.225l1.512-.435s1.747-.372 1.747-.372 1.763-.662 1.763-.662 1.726-.804 1.726-.804l27.491-16.384h3.659l2.222.555s1.371.98 1.371.98l1.216.695s1.03 1.027 1.034 1.031l1.087 1.091s.443 1.106.443 1.106.122.205.122.205l1.062 1.334s.254 2.281.254 2.281l.293 2.505v3.095s-.269 1.622-.269 1.622v1.877l-.551 2.387s-.725 2.03-.725 2.03l-1.513 4.817s-.989 2.401-.989 2.401l-1.42 3.728s-2.206 1.804-2.206 1.804l-3.607 3.191s-2.898 2.07-2.898 2.07l-3.034 2.482s-3.682 2.408-3.735 2.443c0 0-3.743 2.272-3.743 2.272l-3.663 2.535s-4.451 2.154-4.475 2.166c0 0-4.079 1.904-4.081 1.905l-2.298 1.069s-2.03.582-2.03.582l-2.406.903s-2.045.292-2.045.292l-2.019.577s-2.149.153-2.149.153l-2.026.29h-1.405s-1.248-.312-1.248-.312l-1.632-.149s-.934-.311-.934-.311l-.923.264s-2.175.435-2.221.444c0 0-3.159.549-3.248.565 0 0-3.33.414-3.33.414l-2.396.301h-6.552s-2.396-.301-2.487-.313l-2.496-.438s-2.18-.513-2.18-.513l-2.824-.314s-2.305-1.075-2.305-1.075l-2.437-.678-2.71-1.275s-2.283-1.286-2.29-1.29l-1.282-.73s-1.142-.998-1.142-.998l-2.272-1.42-2.413-2.415-2.113-1.96-1.544-2.137-.331 5.595s-2.832 3.717-2.832 3.717l-1.282 1.763s-1.706 1.553-1.706 1.553-1.236 1.234-1.236 1.234l-1.683 1.825-1.773 1.61-2.596 1.854-.637.183-.42.419-2.128 1.066s-.705.117-.705.117l-.761.436-1.892.537h-2.882l-1.502-.496s-.678-.274-.678-.274l-1.743-.58-2.035-1.628-4.972-14.011-.422-4.299-.719 8.88s-3.603 1.315-3.603 1.315l-3.674 1.694s-2.769.728-2.769.728l-2.899.967s-3.154.717-3.219.731c0 0-2.884.55-2.884.55l-1.697.342h-4.807s-1.719-.346-1.755-.354l-1.596-.354s-1.268-.544-1.291-.554l-2.175-.966s-1.27-1.778-1.27-1.778l-.79-1.103-.847-1.486-.686-2.289v-5.922s.405-2.03.405-2.03v-21.559l-.892 1.635s-2.268 4.537-2.296 4.593c0 0-2.598 4.789-2.616 4.82 0 0-2.856 5.032-2.861 5.041l-2.641 4.592s-2.919 4.303-2.919 4.303l-2.672 3.943s-1.474 1.765-1.519 1.818l-1.394 1.549s-1.496 1.348-1.505 1.357c0 0-1.146 1.018-1.146 1.018l-1.361 1.362-2.098.932-1.705.484h-.454l-1.026.342s-2.904.306-2.904.306l-2.088.3h-4.411l-2.864-.339-2.884-.902s-.903-.516-.903-.516l-1.135-.322s-1.477-1.057-1.477-1.057-.85-.607-.85-.607l-1.669-1.043s-1.226-1.839-1.226-1.839l-.763-1.07-.895-1.608-.671-1.677-.486-1.46-.553-2.21v-2.088l-.27-1.89v-1.699l-1.545-8.824-1.985 5.724s-2.164 5.681-2.164 5.681l-2.043 5.858s-2.444 5.973-2.444 5.973l-2.05 5.603s-2.489 5.532-2.495 5.546l-2.354 5.121s-1.002 1.863-1.019 1.895l-1.283 2.28-1.111 1.746s-1.193 1.49-1.193 1.49l-1.073 1.379-1.272 1.273s-1.142.57-1.142.57l-1.155.776h-1.391s-2 .315-2 .315l-2.626.829s-3.583.448-3.66.457l-3.477.29h-2.376s-1.081-.27-1.081-.27h-1.796l-.835-.358-1.386 1.981-2.38 3.498s-3.216 3.917-3.251 3.96l-3.752 4.305s-4.396 4.533-4.416 4.554c0 0-2.28 2.281-2.28 2.281s-2.262 2.394-2.264 2.396l-2.621 2.767s-2.734 2.159-2.734 2.159-2.523 2.126-2.569 2.165l-2.735 2.157s-2.963 1.975-2.996 1.998c0 0-3.008 1.914-3.049 1.94 0 0-2.745 1.649-2.758 1.656l-3.159 1.865s-1.669.759-1.723.783l-1.827.761s-3.105.99-3.105.99l-2.954.985-1.908.475s-1.741.29-1.741.29l-1.793.326h-8.447s-3.109-.676-3.109-.676h-.729s-2.889-.287-2.971-.295c0 0-1.708-.246-1.708-.246h-2.845s-1.47-.551-1.47-.551-.957-.211-1.032-.228c0 0-2.642-.697-2.71-.715l-3.479-1.059s-1.559-.779-1.559-.779-1.139-.506-1.216-.54c0 0-3.26-1.629-3.26-1.629l-1.951-.889s-1.657-1.489-1.657-1.489-1.467-1.102-1.467-1.102-1.464-1.065-1.485-1.08l-1.948-1.459s-1.314-1.481-1.314-1.481-1.467-1.6-1.527-1.665c0 0-1.351-1.621-1.351-1.621l-.756-.824-2.259 1.628v8.791s-4.08 2.291-4.143 2.327c0 0-5.849 2.992-5.849 2.992s-4.028 2.148-4.051 2.161c0 0-4.485 2.31-4.54 2.338 0 0-5.193 2.462-5.231 2.48 0 0-5.175 2.313-5.243 2.344l-5.592 2.239s-5.514 1.792-5.514 1.792-2.826.94-2.826.94-2.837.945-2.882.96l-5.351 1.635s-2.716.145-2.716.145l-2.317.515-2.707.316h-2.646s-2.155-.305-2.179-.309l-2.009-.311s-.971-.275-.971-.275l-1.569-.266-.531-.424-.135.033s-2.084.298-2.171.311l-3.104.295h-5.177s-2.157-.308-2.177-.311l-1.886-.29s-1.84-.394-1.84-.394l-2.409-.301s-2.181-.777-2.181-.777l-2.425-.715-2.599-1.137s-2.111-1.265-2.111-1.265l-2.567-1.286s-1.093-.778-1.093-.778l-.209-.131zm0-107.09.91-1.422c.043-.075 2.003-3.47 2.003-3.47s2.509-3.699 2.509-3.699c.016-.025 2.519-3.845 2.519-3.845s2.718-3.622 2.718-3.622 3.091-3.765 3.091-3.765c.033-.042 3.259-4.207 3.259-4.207s3.118-3.9 3.118-3.9 3.458-3.588 3.458-3.588c.059-.069 1.869-2.139 1.869-2.139s1.758-1.758 1.758-1.758l6.032-5.629s1.802-1.672 1.802-1.672 4.345-3.555 4.345-3.555 4.336-3.418 4.336-3.418 4.569-3.133 4.569-3.133 2.459-1.552 2.459-1.552 2.172-1.279 2.172-1.279 2.525-1.329 2.525-1.329c.036-.02 2.5-1.387 2.5-1.387.029-.017 2.337-1.353 2.337-1.353s2.694-1.028 2.694-1.028l2.637-1.249s2.763-1.184 2.763-1.184 2.401-1.011 2.401-1.011 2.808-.893 2.808-.893 2.474-.781 2.474-.781 2.435-.636 2.435-.636 1.142.072 1.142.072 1.876.552 1.876.552 2.94.894 2.94.894 1.058.424 1.058.424 1.643.821 1.643.821 1.624.949 1.624.949l1.793.895s1.185.79 1.185.79 1.578 1.446 1.578 1.446l1.697 1.212s1.192 1.409 1.192 1.409l1.445 1.688s1.088 1.74 1.088 1.74 1.056 2.228 1.056 2.228.389 1.037.389 1.037l.513 1.155s.83 2.493.83 2.493.602 2.644.602 2.644.21 1.475.21 1.475v8.421s-.216 1.734-.216 1.734-.53 2.248-.53 2.248l-.664 4.387s-.608 2.188-.608 2.188-.683 2.323-.683 2.323c-.014.052-.644 2.448-.644 2.448l-1.797 4.875s-1.202 2.805-1.202 2.805c-.021.055-1.189 3.04-1.189 3.04s-1.279 2.687-1.279 2.687-1.515 3.031-1.515 3.031l-.229.525-.2-.047-1.781-.321-1.666-.121s-1.553-.478-1.553-.478l-1.855-.347s-1.498-.75-1.498-.75c-.078-.034-1.321-.587-1.321-.587-.026-.011-.734-.313-.734-.313s-2.025-1.216-2.025-1.216l-.517-.222s-.492-.493-.492-.493c-.06-.055-1.704-1.561-1.704-1.561-.021-.019-1.029-.915-1.029-.915s-.216-.258-.216-.258-.618-1.239-.618-1.239l-.446-.445-.084-.759-.957-1.529s-1.644-4.047-1.644-4.047c-.01-.023-1.105-2.623-1.105-2.623-.015-.034-.837-1.883-.837-1.883l-1.995-2.005h-5.586v4.039l-3.71 4.535s-1.185.86-1.185.86l-3.844 3.158s-2.677 2.113-2.677 2.113l-2.939 2.801s-3.248 2.977-3.248 2.977c-.03.029-3.383 3.241-3.383 3.241l-3.342 3.761s-3.389 3.794-3.389 3.794c-.013.014-1.918 2.192-1.918 2.192-.012.014-1.676 1.955-1.676 1.955-.04.05-1.859 2.324-1.859 2.324l-1.372 2.47s-1.835 2.401-1.835 2.401l-1.121 2.383s-1.488 2.162-1.488 2.162l-1.225 2.606c-.013.029-1.18 2.623-1.18 2.623s-1.306 2.466-1.306 2.466l-.419 1.257s-.595 1.189-.595 1.189l-.899 3.415v1.852s-.271 4.191-.271 4.191v3.13l.298 3.271.574 3.592c.018.085.71 3.405.71 3.405.018.073.458 1.833.458 1.833l.649 1.945.615 1.355s.492 1.967.492 1.967l1.297 1.851s1.055 1.658 1.055 1.658l1.216 1.39 1.471 1.472 1.477 1.149 1.924 1.347 1.679.504s1.894.872 1.894.872l2.687.579h4.735l1.446-.324s.956-.119.956-.119c.052-.009 1.749-.27 1.749-.27s4.437-.536 4.437-.536c.035-.005 6.714-.941 6.714-.941s4.345-.419 4.345-.419l4.504-1.017c.08-.022 4.466-1.22 4.466-1.22s4.704-1.075 4.704-1.075c.049-.013 5.033-1.294 5.033-1.294l2.474-1.019s2.463-.907 2.463-.907 4.996-1.713 4.996-1.713l4.49-2.462c.016-.01 2.278-1.28 2.278-1.28l2.012-1.295c.024-.016 2.028-1.35 2.028-1.35s3.244-2.089 3.244-2.089l.963-5.391s.793-4.363.793-4.363 1.327-5.703 1.327-5.703 1.61-6.58 1.61-6.58.923-3.556.923-3.556 1.168-3.895 1.168-3.895 1.368-3.83 1.368-3.83l1.222-4.481s1.269-3.68 1.269-3.68 1.865-4.395 1.865-4.395c.022-.056 1.615-4.173 1.615-4.173s1.831-4.184 1.831-4.184 2.11-4.353 2.11-4.353 2.12-4.107 2.12-4.107 2.189-3.991 2.189-3.991 2.509-3.697 2.509-3.697c.037-.06 1.246-1.994 1.246-1.994s1.399-1.653 1.399-1.653l2.521-3.451s1.475-1.599 1.475-1.599 1.571-1.7 1.571-1.7 2.837-2.837 2.837-2.837 1.966-1.404 1.966-1.404l1.353-1.488s1.753-1.254 1.753-1.254l1.401-1.284s1.802-.9 1.802-.9l1.54-.9s2.102-.92 2.102-.92l1.758-.946s1.791-.784 1.791-.784 1.665-.475 1.665-.475c.013-.005 2.02-.595 2.02-.595s2.23-.278 2.23-.278l.681-.227s1.775-.507 1.775-.507 2.422-.636 2.422-.636 3.159-.634 3.159-.634 3.732-.514 3.732-.514 3.934-.381 3.934-.381h4.071s2.325.26 2.325.26l2.096.122s2.54.564 2.54.564h.885s.466.156.466.156 1.556.691 1.556.691l.902.114s1.647.925 1.647.925l1.764.823s1.62 1.273 1.62 1.273c.069.05.953.681.953.681s.972.756.972.756.138.138.138.138.61 1.1.61 1.1l1.525 1.76s.373 1.115.373 1.115l.91 1.172s.252.842.252.842l.523 1.306s.299 1.096.299 1.096.288 1.725.288 1.725l.588 1.765s.258 1.034.258 1.034v12.244l3.702 17.021 6.585-13.171 4.208-10.316s6.444-13.692 6.444-13.692 3.788-7.983 3.788-7.983c.005-.01 3.763-8.062 3.763-8.062s3.997-7.863 3.997-7.863 4.14-7.479 4.14-7.479 3.824-6.593 3.824-6.593 2.119-3.046 2.119-3.046c.042-.065 1.938-3.044 1.938-3.044.003-.006 1.461-2.314 1.461-2.314s2.024-2.277 2.024-2.277l1.502-1.877s1.468-1.346 1.468-1.346c.058-.058.222-.223.222-.223s.748-.32.748-.32l.394-.314 1.071.539 2.21-.636.071-.014.47.117h.41l1.192.495s.205.147.205.147.676.811.676.811l.894.639s.677.87.677.87l.946 1.081s.51.656.51.656.591 1.654.591 1.654l.982 1.683s1.703 4.258 1.703 4.258.648 2.464.648 2.464l.952 2.853s.746 2.735.746 2.735.671 3.492.671 3.492l.899 3.47s.388 4.266.388 4.266l.666 4.397s.266 4.775.266 4.775c.009.087.544 5.306.544 5.306s1.398 19.105 1.398 19.105l10.413-20.825s4.684-8.83 4.684-8.83 5.489-9.643 5.489-9.643 3.048-5.034 3.048-5.034 3.064-4.663 3.064-4.663 2.975-4.463 2.975-4.463c.008-.012 2.41-3.677 2.41-3.677s1.425-1.557 1.425-1.557l.979-1.345c0-.001 1.27-1.153 1.27-1.153l.856-.858h.997l.406-.54h.631l1.419-.71.828-.662.724-.461.394-.079 1.498-.663s.732-.276.732-.276l1.771-.394h2.523s1.621.271 1.621.271h1.552s1.891.677 1.891.677h.99s1.424.473 1.424.473l1.103.122s.853.342.853.342 1.299.541 1.299.541 1.092.695 1.092.695.917.687.917.687.43.719.43.719l1.214.865s.607.706.607.706l.554.556s.169.236.169.236.325.979.325.979l1.243 2.342s.415 1.14.415 1.14.306 1.019.306 1.019.26 1.576.26 1.576l.4 1.466s.195 1.263.195 1.263v1.545l.402 10.052-1.34 28.43-3.998 49.375-2.722 1.255s-2.367.623-2.367.623l-2.779.926s-2.729.621-2.729.621-2.794.532-2.794.532c-.02.004-1.002.202-1.002.202h-3.308s-.948-.191-.948-.191-.838-.186-.838-.186-.601-.258-.601-.258-.258-.115-.258-.115l-.648-.904s-.231-.406-.231-.406-.125-.416-.125-.416v-4.077s.406-2.03.406-2.03v-38.898l-7.147-1.612-3.951 8.313c-.029.067-1.581 3.688-1.581 3.688s-2.381 4.364-2.381 4.364c-.03.06-2.3 4.6-2.3 4.6s-2.521 4.646-2.521 4.646-2.816 4.959-2.816 4.959-2.492 4.334-2.492 4.334-2.763 4.074-2.763 4.074-2.461 3.631-2.461 3.631-1.189 1.423-1.189 1.423-1.039 1.154-1.039 1.154-1.194 1.077-1.194 1.077-1.292 1.148-1.292 1.148l-.531.531s-.336.15-.336.15-.187.053-.187.053h-.628l-1.406.469s-2.233.235-2.233.235c-.071.01-1.698.244-1.698.244h-3.429s-1.733-.205-1.733-.205-1.441-.451-1.441-.451-.99-.566-.99-.566l-.757-.214-1.459-1.043-.494-.309s-.396-.594-.396-.594c-.035-.049-.588-.824-.588-.824s-.457-.821-.457-.821-.411-1.026-.411-1.026-.325-.977-.325-.977-.258-1.035-.258-1.035v-1.697l-.271-1.891v-1.816l-4.247-24.249-7.295-.432-.798 2.658s-2.273 6.955-2.273 6.955-3.486 10.053-3.486 10.053-2.161 5.675-2.161 5.675c-.018.05-2.013 5.771-2.013 5.771s-2.422 5.92-2.422 5.92c-.025.066-2.006 5.482-2.006 5.482s-2.372 5.271-2.372 5.271-2.242 4.88-2.242 4.88-.874 1.623-.874 1.623-1.149 2.042-1.149 2.042-.783 1.231-.783 1.231-.97 1.211-.97 1.211c-.016.021-.819 1.054-.819 1.054s-.08.079-.08.079l-.105.053-2.858.449-2.511.793s-2.829.354-2.829.354-3.012.251-3.012.251h-1.138s-1.082-.271-1.082-.271h-1.178s-.137-.058-.137-.058l-.229-.114-2.799-4.18-4.838 6.444c-.036.052-1.942 2.777-1.942 2.777-.014.02-2.217 3.258-2.217 3.258s-2.967 3.614-2.967 3.614-3.548 4.072-3.548 4.072-4.236 4.368-4.236 4.368-2.316 2.316-2.316 2.316c-.036.039-2.333 2.47-2.333 2.47s-2.244 2.37-2.244 2.37-2.403 1.897-2.403 1.897c-.046.039-2.568 2.164-2.568 2.164s-2.403 1.895-2.403 1.895-2.681 1.787-2.681 1.787-2.899 1.846-2.899 1.846-2.65 1.591-2.65 1.591-2.789 1.647-2.789 1.647-1.25.568-1.25.568-1.418.59-1.418.59-2.843.907-2.843.907c-.023.008-2.724.908-2.724.908s-1.336.332-1.336.332-1.504.251-1.504.251c-.027.005-1.181.215-1.181.215h-6.963s-3.109-.676-3.109-.676h-1.164s-2.437-.242-2.437-.242-2.077-.299-2.077-.299h-2.021s-.693-.26-.693-.26l-1.402-.309s-2.426-.641-2.426-.641-2.739-.833-2.739-.833-1.145-.573-1.145-.573c-.078-.034-1.218-.541-1.218-.541s-3.228-1.612-3.228-1.612c-.061-.028-1.024-.467-1.024-.467s-1.046-.94-1.046-.94l-1.777-1.335c-.024-.017-1.489-1.083-1.489-1.083s-1.297-.971-1.297-.971-.848-.956-.848-.956c-.021-.022-1.448-1.579-1.448-1.579s-1.352-1.623-1.352-1.623c-.061-.066-1.392-1.516-1.392-1.516s-3.409-4.777-3.409-4.777l-11.38 8.197v8.241s-.183.103-.183.103-5.776 2.955-5.776 2.955c-.028.016-4.06 2.166-4.06 2.166s-4.382 2.257-4.382 2.257-5.043 2.391-5.043 2.391-5.031 2.249-5.031 2.249-5.222 2.09-5.222 2.09-5.301 1.723-5.301 1.723c-.013.004-2.852.949-2.852.949-.002 0-2.795.932-2.795.932s-4.383 1.339-4.383 1.339-2.421.129-2.421.129l-2.549.566c0 .001-1.89.221-1.89.221h-1.679s-1.607-.228-1.607-.228-1.505-.233-1.505-.233-.922-.261-.922-.261l-.053-.009-.113-.091-2.226-1.335-2.943.735s-1.614.231-1.614.231-2.573.245-2.573.245h-4.286s-1.609-.23-1.609-.23-1.629-.25-1.629-.25-1.944-.417-1.944-.417l-1.918-.24s-1.603-.571-1.603-.571l-2.172-.64s-1.727-.756-1.727-.756-1.944-1.165-1.944-1.165l-2.3-1.151s-.799-.57-.799-.57l-.923-.578s-2.02-1.765-2.02-1.765l-1.215-.946-.228-.199v-97.487zm0-14.019 1.791-2.733s2.91-3.879 2.959-3.944c0 0 3.128-3.81 3.128-3.81s3.212-4.146 3.229-4.169l3.371-4.216s3.572-3.707 3.572-3.707l1.916-2.191s1.981-1.982 2.027-2.028l6.135-5.725 1.982-1.839s4.551-3.724 4.578-3.746l4.586-3.615s4.834-3.315 4.893-3.355c0 0 2.63-1.659 2.678-1.689 0 0 2.347-1.383 2.425-1.429 0 0 2.611-1.374 2.611-1.374s2.367-1.313 2.367-1.313l2.8-1.621s2.984-1.139 2.984-1.139 2.436-1.154 2.5-1.184c0 0 2.903-1.245 2.914-1.249l2.737-1.152s3.136-.998 3.139-.999l2.664-.841 3.783-.987 3.184.199s2.702.795 2.719.8l3.279.998 1.645.658 2.142 1.071s1.621.947 1.621.947l1.992.994 2.059 1.373s1.667 1.528 1.667 1.528l2.088 1.491s1.782 2.106 1.782 2.106l1.799 2.101 1.616 2.586 1.377 2.905s.422 1.126.422 1.126l.569 1.282 1.062 3.185.751 3.303.33 2.307v9.423l-.325 2.596s-.552 2.344-.552 2.344l-.687 4.535s-.736 2.651-.744 2.679c0 0-.669 2.273-.669 2.273l-.708 2.692-1.988 5.395s-1.231 2.874-1.231 2.874l-1.244 3.178s-1.409 2.961-1.425 2.994c0 0-1.459 2.917-1.459 2.917l-2.293 5.273h-3.844s-2.626-.618-2.626-.618-1.194-.216-1.194-.216l-2.118-.153s-1.962-.604-1.962-.604l-2.471-.463s-2.287-1.143-2.287-1.143-1.112-.495-1.112-.495l-1.159-.494s-2.031-1.22-2.031-1.22l-1.375-.59s-1.4-1.4-1.4-1.4-1.541-1.412-1.541-1.412l-1.404-1.248-1.136-1.36s-.463-.929-.463-.929l-1.447-1.443s-.186-1.679-.186-1.679l-.395-.63-.959-2.362-2.008 2.454s-1.789 1.299-1.789 1.299-3.698 3.038-3.726 3.061c0 0-2.46 1.942-2.46 1.942s-2.712 2.585-2.739 2.61c0 0-3.241 2.971-3.241 2.971s-3.105 2.974-3.105 2.974-3.144 3.539-3.147 3.543c0 0-3.37 3.772-3.37 3.772s-1.868 2.134-1.868 2.134-1.568 1.83-1.568 1.83-1.385 1.732-1.385 1.732l-1.332 2.396s-1.68 2.199-1.68 2.199l-1.041 2.213s-1.487 2.16-1.487 2.16-.937 1.994-.937 1.994l-1.253 2.785s-1.128 2.13-1.128 2.13l-.392 1.176s-.486.97-.486.97-.453 1.722-.453 1.722v1.122s-.27 4.191-.27 4.191v2.547s.243 2.677.243 2.677.507 3.167.507 3.167.642 3.087.642 3.087.353 1.408.353 1.408.433 1.299.433 1.299l.736 1.62s.32 1.281.32 1.281.546.779.594.848c0 0 .838 1.316.838 1.316s.677.773.677.773.963.965.963.965.956.744.956.744.779.545.779.545l1.025.308s1.621.746 1.621.746 1.097.236 1.097.236h3.106l.987-.221s1.208-.15 1.208-.15 1.705-.263 1.765-.272c0 0 4.486-.542 4.486-.542s6.723-.943 6.804-.954c0 0 4.035-.389 4.035-.389s3.878-.876 3.878-.876 4.381-1.196 4.457-1.217c0 0 4.758-1.088 4.758-1.088s4.43-1.139 4.43-1.139 2.056-.846 2.122-.873c0 0 2.634-.971 2.674-.986 0 0 4.467-1.531 4.467-1.531s3.891-2.134 3.891-2.134 2.048-1.15 2.048-1.15 1.773-1.142 1.773-1.142 2.004-1.334 2.028-1.35c0 0 .54-.348.54-.348s.388-2.174.39-2.18c0 0 .812-4.465.828-4.554 0 0 1.373-5.902 1.377-5.923 0 0 1.628-6.647 1.634-6.672 0 0 .953-3.675.97-3.743l1.265-4.217s1.336-3.74 1.336-3.74l1.211-4.441 1.435-4.16s1.92-4.524 1.92-4.524 1.6-4.136 1.629-4.212c0 0 1.925-4.4 1.955-4.467 0 0 2.195-4.527 2.215-4.569 0 0 2.185-4.233 2.207-4.275l2.406-4.386s2.628-3.873 2.628-3.873l1.458-2.332s1.575-1.862 1.575-1.862l2.616-3.582s1.768-1.915 1.769-1.916c0 0 1.623-1.756 1.673-1.811l3.381-3.381s1.82-1.3 1.82-1.3l1.351-1.486s2.032-1.454 2.032-1.454l1.843-1.689s2.524-1.26 2.524-1.26l1.704-.996s2.224-.973 2.224-.973l1.757-.946 2.534-1.109s2.121-.606 2.121-.606l2.576-.757s2.096-.262 2.096-.262.053-.018.13-.044c0 0 1.971-.563 2.011-.574l2.714-.712 3.6-.722s4.033-.557 4.109-.567l4.447-.43h4.851s2.542.284 2.542.284l2.5.145s2.326.517 2.326.517h1.278l1.967.656s.878.389.878.389l1.26.16s2.68 1.505 2.68 1.505l2.291 1.069s2.166 1.702 2.166 1.702.876.626.938.67l1.462 1.137 1.214 1.214s.742 1.337.742 1.337l1.989 2.296s.439 1.313.439 1.313l.982 1.266s.559 1.862.559 1.862l.558 1.394.513 1.878s.253 1.519.253 1.519l.493 1.48.553 2.21v3.942l.105-.258s6.53-13.876 6.533-13.881c0 0 3.783-7.973 3.783-7.973s3.78-8.098 3.806-8.155c0 0 4.084-8.034 4.114-8.093 0 0 4.223-7.628 4.241-7.661l4.017-6.925s2.207-3.173 2.207-3.173 1.848-2.903 1.848-2.903l1.783-2.823s2.302-2.59 2.302-2.59l1.742-2.178s1.776-1.628 1.776-1.628l1.13-1.13s1.145-.491 1.145-.491l.709-.565 1.565-.63 1.523-.254h1.088l1.048.209 1.047-.209h1.51s.541.135.541.135h.941s1.351.544 1.37.552l2.036.846 1.687 1.204s.675.811.675.811l.999.714s1.216 1.563 1.216 1.563l.946 1.081 1.383 1.778s.761 2.132.761 2.132l.911 1.56 2.081 5.205s.704 2.677.704 2.677l.941 2.821.876 3.213s.681 3.538.681 3.538l.993 3.833s.423 4.653.423 4.653l.686 4.528.141 2.534 3.103-5.85s5.57-9.783 5.595-9.827c0 0 3.135-5.18 3.171-5.239 0 0 3.147-4.79 3.154-4.8 0 0 2.973-4.46 2.973-4.46l2.727-4.159s1.548-1.692 1.548-1.692l1.185-1.628s1.704-1.547 1.704-1.547l.97-.973 2.239-1.959h.074l.406-.54h1.809l1.011-.338 1.689-1.074s.957-.192.957-.192l.936-.414 1.43-.539 3.096-.688h3.97s1.62.271 1.62.271h2.236s1.891.677 1.891.677h.898s1.825.606 1.825.606l1.33.148s1.825.73 1.85.74l1.946.81 1.882 1.198 2.327 1.746s.381.636.381.636l.679.483s1.019 1.187 1.019 1.187l.787.79.231-2.821s1.168-1.635 1.168-1.635l1.724-3.017s3.362-3.764 3.362-3.764l.727-1.314s1.324-1.321 1.366-1.364c0 0 2.205-2.064 2.205-2.064s2.292-2.16 2.337-2.202l2.43-2.144 1.382-1.076 1.604-1.121s1.602-.874 1.602-.874l1.64-.985s1.825-.606 1.825-.606 1.304-.594 1.388-.632l1.67-.665 2.01-.506s1.745-.29 1.745-.29l1.793-.326h2.274l3.461.577 5.681 7.954-.846 44.715s-4.178 11.591-4.178 11.591v7.802l3.321-6.135 1.777-3.554s2.217-3.877 2.242-3.919c0 0 2.323-3.827 2.348-3.868l2.569-3.997s2.897-3.586 2.897-3.586 2.636-3.694 2.663-3.731l3.005-4.004s3.456-3.594 3.456-3.594l3.046-3.6s3.657-3.376 3.657-3.376l3.583-3.445 1.799-1.499 2.348-1.761s2.007-1.29 2.026-1.303c0 0 2.147-1.343 2.147-1.343s3.888-2.547 3.901-2.556l2.041-1.311 2.563-1.356 4.49-1.966 2.49-1.024s2.317-.725 2.348-.734l2.532-.744s2.261-.399 2.261-.399l2.783-.879s2.813-.157 2.813-.157l4.283-.451.903-.501s1.687-.506 1.687-.506l1.811-.604 2.564-.481 2.915-.307h1.961s1.399.312 1.399.312.944.094.944.094h2.023s2.024.809 2.104.842c0 0 1.566.711 1.629.74l1.747.873 1.616 1.258s1.452 1.306 1.459 1.313l1.836 1.669s1.321 1.98 1.321 1.98l1.376 1.991s1.027 2.197 1.027 2.197l.873 1.576s.32 1.431.32 1.431l.874 2.121 1.056 3.17s.719 3.458.719 3.458l.754 3.623v2.283l.016.109 1.363-1.363s3.563-3.151 3.563-3.151 4.016-3.751 4.064-3.796l4.371-3.805s2.422-1.749 2.422-1.749l2.283-2.016 2.811-2.071s2.568-1.622 2.568-1.622 5.031-3.706 5.102-3.758l5.429-3.621 5.507-3.246s2.989-1.423 3.055-1.455c0 0 2.905-1.246 2.976-1.276 0 0 2.914-1.11 2.933-1.117l2.718-1.001s2.949-.843 2.949-.843 1.101-.33 1.101-.33l2.087-.929 2.804.56s1.488.541 1.488.541l1.941.389 2.454.766 2.614.98.356.223v-51.046h-23.253v-112.744h-38.255v140.86h-10.951v-28.116h-27.981v-31.094h23.927v-26.766h-23.927v-26.629h25.414v-28.255h-63.671v140.86h-25.819l9.868-70.43 9.598-70.43h-40.285l-1.487 13.115-1.081 13.246-.676 7.976-.946 8.111-.811 8.786-.947 8.922-.675 9.058-.947 9.462-.678 9.598-.674 10.139-.676-10.409-.946-10.815-1.218-11.49-1.215-11.896-1.082-12.707-1.622-13.113-1.487-13.653-1.622-14.33h-40.419l22.169 140.86h-28.253v-48.125l-.135-2.838v-2.299l-.27-2.162-.271-1.352-.27-1.217-.676-1.892-.946-2.026-1.352-2.165-1.892-2.298-2.434-2.163-3.246-1.893-2.028-.674-2.163-.948-2.566-.676-2.839-.811 3.109-.405 2.704-.406 2.433-.811 2.296-.676 3.787-1.893 1.352-1.079 1.217-1.487.946-1.624.946-1.893.676-2.298.676-2.568.541-2.839.27-3.38.135-3.514v-8.111l-.405-4.324-.541-3.652-.405-3.38-.947-3.244-.946-2.839-1.217-2.568-1.351-2.028-3.245-3.785-3.785-3.109-4.191-2.028-4.461-1.487-2.703-.406-3.246-.27-3.784-.539-4.055-.137-2.895-.161-6.059-.109h-1.32l-5.948-.271h-33.527v140.86h-6.622l-5.272-35.282-5.408-35.148-5.677-35.147-5.408-35.283h-55.154l-9.598 70.43-9.868 70.43h-6.624v-140.86h-49.747l-4.191 32.85-4.461 32.849-2.839-17.844-2.839-17.842-1.081-8.384-.946-7.705-1.217-7.3-1.217-6.624h-49.206v257.016zm138.709 25.914-1.287 3.578-1.02 3.496-.691 3.314s-.417 1.669-.417 1.669l-.322 1.772-.301 3.311v6.49l.27 1.353v1.445l.534 3.023.978 2.373s.281 1.27.281 1.27l.684 1.534s.555 1.298.555 1.298l.877 1.228s.62.93.62.93l.714.855s1.202 1.683 1.202 1.683l1.25.538s.313.313.313.313l.915.731 1.559 1.117 1.816.516.49.071s1.193.679 1.193.679h1.415s.946.27.946.27h2.269l1.418-.405s2.147-.57 2.147-.57l2.089-.749c.047-.018 2.861-1.112 2.861-1.112l2.456-1.635 2.344-1.76 2.096-1.795 1.126-1.128 1.201-1.349c.046-.056 2.059-2.502 2.059-2.502l3.668-5.503c.046-.076 1.76-2.931 1.76-2.931l1.605-3.358 1.425-3.419c.031-.087 1.287-3.575 1.287-3.575l1.01-3.463.679-2.985s.656-2.301.656-2.301v-1.927s.128-2.811.128-2.811.293-3.373.293-3.373l-.285-3.001c0-.001 0-1.344 0-1.344l-.171-1.876-.616-2.927-.682-2.319s-.409-1.839-.409-1.839l-.743-1.04s-.27-.947-.27-.947l-.818-1.144s-.589-1.373-.589-1.373l-1.215-1.043s-.637-.955-.637-.955l-1.628-1.163-.261-.157s-.846-1.012-.846-1.012l-2.934-1.258-1.681-.483h-.953s-.546-.155-.546-.155l-2.256-.505-1.359.391h-.665l-2.799.371-2.69 1.177c-.042.019-2.277 1.062-2.277 1.062l-2.493 1.558-2.388 1.791-2 1.715c-.015.012-1.367 1.195-1.367 1.195l-1.1 1.415s-1.925 2.2-1.925 2.2l-2.115 2.871-1.645 2.88s-2.051 2.928-2.051 2.928l-1.365 3.491s-1.372 3.29-1.372 3.29zm12.202 37.077-.7-.398-1.402-.204s-.077-.021-.077-.021-.333-.239-.333-.239-.437-.35-.437-.35-1.039-1.035-1.039-1.035l-.643-.277-.15-.21-.637-.763s-.461-.692-.461-.692c-.036-.05-.475-.665-.475-.665s-.256-.598-.256-.598c-.011-.026-.398-.895-.398-.895s-.259-1.167-.259-1.167l-.915-2.22s-.278-1.573-.278-1.573v-1.529l-.27-1.354v-5.407s.24-2.637.24-2.637.218-1.202.218-1.202.394-1.575.394-1.575c.015-.073.661-3.171.661-3.171l.873-2.992 1.146-3.185s1.332-3.195 1.332-3.195c.015-.039 1.068-2.732 1.068-2.732s1.734-2.475 1.734-2.475l1.6-2.802s1.67-2.266 1.67-2.266 1.86-2.126 1.86-2.126l.792-1.018s.796-.697.796-.697 1.786-1.53 1.786-1.53 1.937-1.453 1.937-1.453 1.833-1.146 1.833-1.146 1.779-.83 1.779-.83 1.635-.716 1.635-.716 1.256-.166 1.256-.166h1.229l.533-.153s.177.039.177.039 1.347.383 1.347.383h.939s.212.061.212.061l.851.364s.506.606.506.606l1.091.654s.264.189.264.189.445.668.445.668l.678.582s.221.516.221.516l.535.748s.27.947.27.947l.609.852s.132.594.132.594l.67 2.278s.465 2.209.465 2.209.099 1.098.099 1.098v1.36l.255 2.676s-.247 2.846-.247 2.846c-.004.077-.143 3.137-.143 3.137v1.047s-.424 1.487-.424 1.487l-.674 2.963s-.882 3.023-.882 3.023-1.146 3.184-1.146 3.184-1.279 3.07-1.279 3.07-1.369 2.864-1.369 2.864-1.485 2.473-1.485 2.473l-3.361 5.041s-1.726 2.097-1.726 2.097-.961 1.081-.961 1.081-.767.768-.767.768-1.69 1.446-1.69 1.446-1.981 1.488-1.981 1.488-1.6 1.065-1.6 1.065-2.005.78-2.005.78-1.696.608-1.696.608-1.909.507-1.909.507c-.034.009-.474.135-.474.135h-.165s-.946-.27-.946-.27zm225.331-70.255v-25.735s4.203-11.66 4.203-11.66.776-40.991.776-40.991l-2.403-3.364h-.781s-1.154.209-1.181.214c0 0-1.499.25-1.499.25s-1.231.31-1.231.31-1.037.413-1.037.413l-1.586.723s-1.42.471-1.42.471-.997.598-1.063.638c0 0-1.372.748-1.372.748s-1.103.772-1.103.772-1.048.816-1.048.816-2.166 1.911-2.166 1.911-2.252 2.121-2.255 2.125c0 0-2.126 1.99-2.126 1.99s-.53.529-.53.529l-.621 1.123s-3.397 3.803-3.397 3.803l-1.52 2.66s-.184.258-.184.258-1.517 18.566-1.517 18.566l.668 10.527v5.5s.943 62.674.943 62.674l.616 6.285 3.822 10.767.139.046s.67.271.67.271.123.041.123.041h.63l1.132-.65s.92-.153.92-.153.032-.015.032-.015l.932-.929s1.255-.362 1.255-.362 1.189-.849 1.189-.849 1.201-1.09 1.201-1.09 1.509-1.637 1.562-1.694c0 0 1.406-1.404 1.468-1.466 0 0 1.267-1.154 1.267-1.154s.856-1.177.881-1.21c0 0 1.494-1.962 1.494-1.962l.946-15.986-.231-.505s-.303-2.131-.303-2.131l-.344-1.101c-.344-.449-.596-1.023-.663-1.756l-.154-.626v-1.397s.133-.946.133-.946v-1.841s.733-1.46.733-1.46.169-.764.176-.793c0 0 .682-2.865.693-2.908 0 0 .687-2.611.708-2.694l.745-2.383s.825-2.061.825-2.061zm186.792 25.442v-53.795h-17.43l-2.535-.543s-1.73-.629-1.748-.636l-1.357-.508s-1.46-.808-1.485-.822l-1.407-.807s-.672-.674-.672-.674l-1.277-.729s-.975-1.462-.975-1.462l-.757-1.01-.083-.29-.327-.22-.756-2.251-.388-1.95v-1.764s.496-1.247.496-1.247.288-.861.288-.861l.397-2.198s1.102-1.318 1.102-1.318l.477-.835s.928-1.278.928-1.278l.592-1.472s18.456-10.364 18.456-10.364 2.302-1.842 2.302-1.842l1.985-1.983s1.655-1.418 1.655-1.418l.591-.828s.976-.976.976-.976.887-1.185.887-1.185l.065-.121v-7.409l-.139-.139-.945-.541-.369-.369-.758-.085s-1.487-.929-1.487-.929-1.712-.642-1.712-.642-1.876-.586-1.876-.586l-2.111-.423-1.408-.512-.324.144s-1.583.475-1.606.481c0 0-2.725.779-2.725.779s-2.418.891-2.418.891-2.749 1.047-2.749 1.047-2.698 1.157-2.698 1.157-2.623 1.249-2.623 1.249-5.041 2.972-5.041 2.972-5.111 3.408-5.111 3.408l-5.176 3.813s-2.568 1.622-2.568 1.622-2.327 1.714-2.327 1.714l-2.309 2.04s-2.444 1.765-2.444 1.765-4.015 3.495-4.015 3.495-4.006 3.74-4.043 3.775c0 0-3.466 3.066-3.466 3.066s-2.893 2.893-2.935 2.935c0 0-4.349 4.083-4.349 4.083l-.343.407-1.659 4.281-.262.924s-.453 1.209-.453 1.209l-.444 1.222v.431s.113 1.359.113 1.359.206 1.448.206 1.448.389 1.168.389 1.168.625 1.496.626 1.498c0 0 .65 1.565.65 1.565s.546 1.197.546 1.197 1.375 2.177 1.375 2.177 1.49 1.865 1.506 1.884l1.188 1.528.479.955.401.115s1.155.575 1.155.575.732.245.732.245 3.178.61 3.178.61 3.434.49 3.434.49h1.971s2.601.291 2.601.291 4.363.395 4.363.395 4.478.263 4.478.263 4.889.133 4.889.133h24.114l1.353 17.78s-3.577 3.13-3.627 3.174c0 0-2.216 1.802-2.228 1.813l-2.119 1.692-2.061 1.474s-4.134 2.617-4.134 2.617-1.828 1.175-1.828 1.175l-1.974 1.365s-2.049.947-2.098.969c0 0-1.895.812-1.895.812s-3.467 1.6-3.541 1.634l-3.368 1.381s-3.513.729-3.513.729l-2.756.688-2.534.449s-2.36.28-2.36.28l-2.114.299h-2.621l-1.597.8s-1.958 1.042-1.958 1.042-.572.318-.572.318l-.578.693s-1.765 1.176-1.765 1.176-.95.952-.953.955c0 0-.986.985-.986.985s-.382.546-.382.546l-.38 1.393s-.588.938-.588.938-.08.443-.08.443v4.192s.129.386.129.386l.47.94s.375.875.375.875.434.783.434.783l1.451 1.843s1.186 1.98 1.186 1.98.381.457.381.457.48.479.48.479l1.218 1.083.818.82 25.714-.887s2.198-.347 2.198-.347 2.566-.611 2.566-.611l4.889-1.544s2.117-.823 2.117-.823 2.106-1.116 2.146-1.138c0 0 2.43-1.213 2.43-1.213s1.82-.969 1.82-.969 3.877-2.586 3.877-2.586 3.779-2.606 3.779-2.606 3.31-2.674 3.31-2.674 3.2-2.943 3.2-2.943 2.618-2.749 2.649-2.782zm-76.623-70.068.772-1.993s-.075-1.208-.075-1.208-.253-1.88-.253-1.88l-.306-2.141v-2.042s-.597-2.866-.597-2.867c0 0-.629-3.03-.629-3.03s-.836-2.508-.836-2.508l-1.019-2.475s-.225-1.002-.225-1.002l-.474-.857s-.87-1.859-.87-1.859-1.035-1.498-1.053-1.524c0 0-.843-1.264-.843-1.264s-1.138-1.035-1.138-1.035-1.244-1.12-1.244-1.12-.817-.635-.817-.635-.957-.479-.957-.479-1.345-.611-1.345-.611-.6-.24-.6-.24h-.951l-1.763-.176s-1.031-.229-1.031-.229h-.742s-2.222.234-2.222.234-1.762.33-1.762.33-1.379.46-1.433.478c0 0-1.017.305-1.017.305l-1.531.85-5.99.631s-2.054.114-2.054.114l-2.353.743s-2.336.412-2.336.412-2.068.608-2.068.608-1.974.617-1.974.617-2.11.868-2.11.868l-4.158 1.82s-2.036 1.077-2.036 1.077-1.745 1.122-1.745 1.122-3.907 2.56-3.94 2.581c0 0-2.175 1.361-2.175 1.361s-1.759 1.13-1.759 1.13-1.977 1.484-1.977 1.484-1.446 1.204-1.446 1.204-3.418 3.287-3.446 3.314c0 0-3.373 3.113-3.373 3.113l-2.901 3.429s-3.304 3.436-3.304 3.436-2.676 3.566-2.676 3.566l-2.741 3.839s-2.781 3.444-2.781 3.444-2.297 3.574-2.297 3.574-2.248 3.701-2.248 3.701-2.088 3.652-2.088 3.652-1.711 3.421-1.738 3.475c0 0-3.481 6.431-3.481 6.431s-2.786 6.102-2.797 6.126c0 0-2.415 5.097-2.415 5.097l-1.291 3.014v2.335s-2.591 11.871-2.591 11.871l-.482 8.15.729 1.59s.68 1.628.68 1.628.652 1.434.677 1.489c0 0 .542 1.302.542 1.302l.804 1.149s1.473 2.546 1.473 2.546 1.43 1.98 1.43 1.98 1.62 1.502 1.672 1.55l1.91 1.911 2.053 1.284s1.025.895 1.025.895.611.348.611.348 2.036 1.147 2.036 1.147 1.886.887 1.886.887l2.425.675s1.751.816 1.751.816l2.046.228s2.412.568 2.412.568 2.104.369 2.104.369 1.839.231 1.839.231h5.611s1.931-.243 1.934-.243c0 0 3.155-.393 3.155-.393s2.974-.517 2.974-.517 1.831-.366 1.831-.366l2.866-.818s2.31.77 2.31.77l1.342.122.895.224 1.726-.247s1.635-.117 1.635-.117l1.763-.504s1.744-.249 1.744-.249l1.919-.719s1.752-.503 1.752-.503 1.762-.82 1.762-.82 4.029-1.88 4.029-1.88 3.903-1.89 3.903-1.89l3.37-2.331s3.827-2.324 3.827-2.324 3.295-2.154 3.295-2.154l2.914-2.384s2.78-1.986 2.78-1.986 3.368-2.98 3.422-3.027c0 0 .768-.629.768-.629s.725-1.903.743-1.95c0 0 .904-2.195.904-2.195s1.438-4.577 1.46-4.646c0 0 .627-1.755.627-1.755s.26-1.127.26-1.128v-1.638s.269-1.622.269-1.622v-2.041l-.261-2.241-.02-.024-.688-1.144-.098-.245-.313-.312-.677-.387-.5-.357h-.628l-26.041 15.52-2.334 1.087-2.559.961s-2.038.435-2.038.435l-2.277.654h-2.019l-2.047.144-2.126-.174-1.799-.363s-.451-.151-.451-.151h-.67l-1.898-.631s-1.353-.541-1.353-.541l-1.81-.604s-1.378-1.18-1.378-1.18l-1.186-.846s-.669-.782-.669-.782l-1.287-.716s-1.816-2.311-1.816-2.311l-1.029-1.028s-.512-1.196-.512-1.196l-1.153-1.535s-.827-1.658-.86-1.723l-1.362-3.023-.435-1.533-.186-1.871v-4.669l.482-3.073s.737-2.643.754-2.704c0 0 .817-2.595.817-2.595l.749-2.54 1.289-2.744s1.579-2.583 1.579-2.583l1.516-2.574s2.002-2.288 2.002-2.288l.665-.93 1.013-1.182s1.899-1.9 1.899-1.9l1.853-2.137 2.196-1.883s2.048-1.536 2.048-1.536l1.907-1.904 2.37-1.741s2.262-1.414 2.262-1.414l7.72-4.963 13.42-6.71s4.002 6.003 4.014 6.021c0 0 1.586 2.441 1.586 2.441l2.074 2.205s1.675 2.231 1.675 2.231 1.402 1.634 1.402 1.634 1.577 1.458 1.577 1.458 1.209 1.087 1.209 1.087 1.162.873 1.162.873l1.338.608s.747.466.747.466l.778.173s.823.274.823.274h.86l.64-.365.323-.108.374-.374.144-.087 1.152-1.976.277-.316.078-.39.357-1.256 2.588-6.699.598-.707zm76.623 8.763v-23.109l-1.144 1.144-3.105 2.483-16.753 9.409-1.118 1.539-.604 1.058s-.254.304-.254.304l-.141.777-.495 1.479.346.231.461 1.602.161.233.616.351s.676.678.676.678.485.278.485.278.952.527.952.527.806.302.806.302 1.226.446 1.226.446 1.25.268 1.25.268zm-515.585-73.029-14.194-93.005v93.005zm37.04 0v-47.449l-.27-47.584-6.489 47.584-6.624 47.449zm79.352 0 1.082-12.705 1.216-12.709h13.654l2.027 25.414zm107.215-63.062-1.908-.336-3.515-.273v63.671h11.491v-49.476l-.271-2.704v-2.026l-.135-1.624-.27-1.622-.541-1.487-.135-.946-.541-.947-1.081-1.079-2.163-.949-.321-.08zm-98.471-44.017.313-2.281.811 8.649.676 8.248.676 7.974.946 7.437.674 7.298.678 6.894.81 6.489.677 6.083h-13.112l.405-4.866.406-5.948.811-6.219.946-7.029.946-7.841 1.082-8.381 1.216-8.922.474-3.464zm99.177 21.032 1.442-.334 1.351-.676.676-.541.541-.946.406-.945.54-1.353.135-3.108.271-4.192v-7.705l-.271-3.11-.135-2.568-.811-1.893-1.081-1.352-1.622-.946-1.677-.403-2.784-.543h-3.11v31.227h3.11l2.607-.528z"/><g fill-rule="nonzero"><path d="m397.639 168.048 2.403 3.365s-.776 40.991-.776 40.991-4.203 11.66-4.203 11.66v28.639s-2.543 11.652-2.543 11.652l-1.574 26.591s-1.494 1.961-1.494 1.961c-.025.034-.881 1.211-.881 1.211s-1.267 1.154-1.267 1.154c-.062.061-1.468 1.466-1.468 1.466-.053.057-1.562 1.693-1.562 1.693s-1.201 1.091-1.201 1.091-1.189.849-1.189.849-1.255.361-1.255.361l-.932.929s-.032.016-.032.016-.92.153-.92.153l-1.132.649s-.001.001-.001.001h-.629s-.123-.041-.123-.041-.67-.271-.67-.271l-.139-.046-3.822-10.768-.616-6.284s-.943-62.675-.943-62.675v-5.5l-.668-10.526s1.517-18.567 1.517-18.567.184-.257.184-.257l1.52-2.66s3.397-3.803 3.397-3.803l.621-1.123s.53-.529.53-.529 2.126-1.991 2.126-1.991c.003-.003 2.255-2.124 2.255-2.124s2.166-1.912 2.166-1.912 1.048-.816 1.048-.816 1.103-.771 1.103-.771 1.372-.748 1.372-.748c.066-.04 1.063-.638 1.063-.638s1.42-.472 1.42-.472l1.586-.723s1.037-.413 1.037-.413 1.231-.309 1.231-.309 1.499-.25 1.499-.25c.027-.005 1.181-.215 1.181-.215z"/><path d="m571.05 168.219 1.408.512 2.111.423s1.876.585 1.876.585 1.712.642 1.712.642 1.487.93 1.487.93l.758.084.369.37.945.54 1.05 1.05s.386.539.386.539.089.157.089.157.049.34.049.34l.218 1.089v.641l-.095.285c-.016.052-.331 1.098-.331 1.098s-.504 1.012-.504 1.012-.788 1.459-.788 1.459-.887 1.184-.887 1.184-.976.977-.976.977l-.591.827s-1.655 1.419-1.655 1.419l-1.985 1.983s-2.302 1.841-2.302 1.841-18.456 10.365-18.456 10.365l-.592 1.472s-.928 1.278-.928 1.278l-.477.835s-1.102 1.318-1.102 1.318l-.397 2.197s-.288.861-.288.861-.496 1.248-.496 1.248v1.764l.388 1.949.756 2.252.327.219.083.291.757 1.009s.975 1.462.975 1.462l1.277.73s.672.674.672.674l1.407.807c.025.014 1.485.821 1.485.821l1.357.509c.018.007 1.748.636 1.748.636l2.535.543h22.024s.684.31.684.31.935.468.935.468 1.906 1.075 1.906 1.075 1.529 1.091 1.529 1.091 1.972 1.84 1.972 1.84l1.166.905s.963.965.963.965.677.772.677.772.686 1.079.686 1.079.711 1.426.711 1.426l.671.958s.348 1.614.348 1.614l.681 1.365s.114 1.811.114 1.811l.508 1.775v3.499s-.501 2.129-.501 2.129l-.135 1.464s-.228.918-.228.918l-.256 1.4s-.283.949-.283.949-1.158 2.698-1.158 2.698c-.022.057-1.2 3.07-1.2 3.07s-1.199 2.637-1.199 2.637-2.065 3.227-2.065 3.227c-.043.075-1.957 3.394-1.957 3.394s-.727.968-.727.968c-.05.073-2.187 3.215-2.187 3.215s-1.761 1.885-1.761 1.885l-2.12 2.52s-2.487 2.486-2.487 2.486c-.031.033-2.649 2.782-2.649 2.782s-3.2 2.944-3.2 2.944-3.31 2.673-3.31 2.673-3.779 2.607-3.779 2.607-3.877 2.586-3.877 2.586-1.82.969-1.82.969-2.43 1.213-2.43 1.213c-.04.021-2.146 1.138-2.146 1.138s-2.117.822-2.117.822-2.45.775-2.45.775-2.439.77-2.439.77-2.566.611-2.566.611-2.198.347-2.198.347l-25.714.887-.818-.82-1.218-1.083s-.48-.479-.48-.479-.381-.457-.381-.457-1.186-1.98-1.186-1.98l-1.451-1.843s-.434-.783-.434-.783-.375-.876-.375-.876l-.47-.94s-.129-.386-.129-.386v-4.192s.08-.443.08-.443.588-.938.588-.938l.38-1.392s.382-.546.382-.546.986-.985.986-.985c.003-.003.953-.955.953-.955s1.765-1.176 1.765-1.176l.578-.693s.572-.318.572-.318 1.958-1.042 1.958-1.042l1.597-.8h2.621l2.114-.3s2.36-.28 2.36-.28l2.534-.448 2.756-.688s3.513-.729 3.513-.729l3.368-1.381c.074-.034 3.541-1.635 3.541-1.635s1.895-.811 1.895-.811c.049-.022 2.098-.969 2.098-.969l1.974-1.365s1.828-1.176 1.828-1.176 4.134-2.616 4.134-2.616l2.061-1.474 2.119-1.693c.012-.01 2.228-1.812 2.228-1.812.05-.044 3.627-3.174 3.627-3.174l-1.353-17.781h-24.114s-4.889-.132-4.889-.132-4.478-.263-4.478-.263-4.363-.395-4.363-.395-2.601-.291-2.601-.291h-1.971s-3.434-.491-3.434-.491-3.178-.609-3.178-.609-.732-.245-.732-.245-1.155-.575-1.155-.575l-.401-.116-.479-.955-1.188-1.527c-.016-.019-1.506-1.884-1.506-1.884s-1.375-2.177-1.375-2.177-.546-1.198-.546-1.198-.65-1.564-.65-1.564c-.001-.002-.626-1.498-.626-1.498s-.389-1.168-.389-1.168-.206-1.449-.206-1.449c0 .001-.113-1.358-.113-1.358v-1.364s.033-.166.033-.166.181-.637.181-.637l2.008-5.196.939-1.111s4.349-4.083 4.349-4.083c.042-.042 2.935-2.935 2.935-2.935s3.466-3.067 3.466-3.067c.037-.034 4.043-3.775 4.043-3.775s4.015-3.494 4.015-3.494 2.444-1.766 2.444-1.766l2.309-2.039s2.327-1.714 2.327-1.714 2.568-1.622 2.568-1.622l5.176-3.813s5.111-3.409 5.111-3.409 5.041-2.972 5.041-2.972 2.623-1.248 2.623-1.248 2.698-1.157 2.698-1.157 2.749-1.047 2.749-1.047 2.418-.891 2.418-.891 2.725-.779 2.725-.779c.023-.007 1.606-.481 1.606-.481l.324-.144z"/><path d="m494.21 251.457h.628l.5.357.677.387.313.311.098.245.688 1.144.02.025.016.149c.001.01.245 2.091.245 2.091v2.042s-.269 1.622-.269 1.622v1.638s-.26 1.128-.26 1.128-.627 1.755-.627 1.755c-.022.069-1.46 4.646-1.46 4.646s-.904 2.195-.904 2.195c-.018.046-.743 1.95-.743 1.95s-.768.628-.768.628c-.054.048-3.422 3.028-3.422 3.028s-2.78 1.985-2.78 1.985l-2.914 2.385s-3.295 2.154-3.295 2.154-3.827 2.323-3.827 2.323l-3.37 2.332s-3.903 1.89-3.903 1.89-4.029 1.88-4.029 1.88-1.762.82-1.762.82-1.752.502-1.752.502l-1.919.72s-1.744.249-1.744.249l-1.763.504s-1.635.117-1.635.117l-1.726.247-.895-.224-1.342-.122s-2.31-.77-2.31-.77l-2.866.818s-1.831.366-1.831.366-2.974.517-2.974.517-3.155.393-3.155.393c-.003 0-1.934.243-1.934.243h-5.611s-1.839-.231-1.839-.231-2.104-.37-2.104-.37-2.412-.568-2.412-.568l-2.046-.227s-1.751-.817-1.751-.817l-2.425-.674s-1.886-.888-1.886-.888-2.036-1.146-2.036-1.146-.611-.348-.611-.348-1.025-.896-1.025-.896l-2.053-1.283s-.913-.914-.913-.914c-.001-.001-.997-.997-.997-.997-.052-.048-1.672-1.551-1.672-1.551s-1.43-1.98-1.43-1.98-1.473-2.545-1.473-2.545l-.804-1.149s-.542-1.303-.542-1.303c-.025-.054-.677-1.488-.677-1.488s-.68-1.628-.68-1.628c-.026-.058-1.286-2.806-1.286-2.806s-.235-1.654-.235-1.654l-.952-3.044.084-.596v-.589s.353-.703.353-.703l.365-1.644s.659-2.766.659-2.766.643-2.443.643-2.443.607-1.942.607-1.942.798-1.995.798-1.995l1.067-3.201s1.532-3.577 1.532-3.577 2.415-5.097 2.415-5.097c.011-.024 2.797-6.127 2.797-6.127s3.481-6.43 3.481-6.43c.027-.055 1.738-3.475 1.738-3.475s2.088-3.652 2.088-3.652 2.248-3.702 2.248-3.702 2.297-3.573 2.297-3.573 2.781-3.444 2.781-3.444l2.741-3.84s2.676-3.565 2.676-3.565 3.304-3.436 3.304-3.436l2.901-3.429s3.373-3.113 3.373-3.113c.028-.027 3.446-3.314 3.446-3.314s1.446-1.205 1.446-1.205 1.977-1.483 1.977-1.483 1.759-1.131 1.759-1.131 2.175-1.36 2.175-1.36c.033-.022 3.94-2.581 3.94-2.581s1.745-1.122 1.745-1.122 2.036-1.077 2.036-1.077 2.034-.891 2.034-.891 2.124-.929 2.124-.929 2.11-.868 2.11-.868 1.974-.618 1.974-.618 2.068-.607 2.068-.607 2.336-.413 2.336-.413l2.353-.743s2.054-.114 2.054-.114l5.99-.63 1.531-.851s1.017-.305 1.017-.305c.054-.018 1.433-.477 1.433-.477s1.762-.331 1.762-.331 2.222-.234 2.222-.234h.742s1.031.23 1.031.23l1.763.176h.951s.6.24.6.24 1.345.611 1.345.611.957.479.957.479.817.635.817.635 1.244 1.12 1.244 1.12 1.138 1.035 1.138 1.035.843 1.263.843 1.263c.018.026 1.053 1.525 1.053 1.525s.87 1.859.87 1.859l.474.856s.225 1.003.225 1.003l1.019 2.475s.836 2.508.836 2.508.629 3.03.629 3.03c0 .001.597 2.866.597 2.866v2.043l.306 2.141s.253 1.88.253 1.88.075 1.207.075 1.207-3.011 7.776-3.011 7.776l-.275.965s-.358.957-.358.957c-.007.018-.307.844-.307.844s-.719.82-.719.82l-1.152 1.976-.144.086-.374.375-.323.107-.64.366h-.86s-.823-.274-.823-.274l-.778-.173s-.747-.466-.747-.466l-1.338-.609s-1.162-.873-1.162-.873-1.209-1.086-1.209-1.086-1.577-1.459-1.577-1.459-1.402-1.633-1.402-1.633-1.675-2.232-1.675-2.232l-2.074-2.205s-1.586-2.44-1.586-2.44c-.012-.018-4.014-6.021-4.014-6.021l-13.42 6.71-7.72 4.963s-2.262 1.414-2.262 1.414l-2.37 1.74-1.907 1.905s-2.048 1.536-2.048 1.536l-2.196 1.883-1.853 2.137s-1.899 1.899-1.899 1.899l-1.013 1.182-.665.931s-2.002 2.288-2.002 2.288l-1.516 2.574s-1.579 2.583-1.579 2.583l-1.289 2.743-.749 2.54s-.817 2.596-.817 2.596c-.017.061-.754 2.704-.754 2.704l-.482 3.073v4.669l.186 1.871.435 1.533 1.362 3.022c.033.066.86 1.724.86 1.724l1.153 1.535s.512 1.196.512 1.196l1.029 1.028s1.816 2.311 1.816 2.311l1.287.715s.669.783.669.783l1.186.845s1.378 1.181 1.378 1.181l1.81.603s1.353.542 1.353.542l1.898.63h.67s.451.152.451.152l1.799.362 2.126.175 2.047-.144h2.019l2.277-.655s2.038-.434 2.038-.434l2.559-.961 2.334-1.088z"/><path d="m356.602 292.24-2.722 1.255s-2.367.623-2.367.623l-2.779.926s-2.729.62-2.729.62-2.794.532-2.794.532c-.02.004-1.002.202-1.002.202h-3.308s-.948-.19-.948-.19-.838-.187-.838-.187-.601-.257-.601-.257-.258-.115-.258-.115l-.648-.905s-.231-.406-.231-.406-.125-.415-.125-.415v-4.077s.406-2.03.406-2.03v-38.898l-7.147-1.612-3.951 8.313c-.029.067-1.581 3.687-1.581 3.687s-2.381 4.365-2.381 4.365c-.03.06-2.3 4.599-2.3 4.599s-2.521 4.647-2.521 4.647-2.816 4.959-2.816 4.959-2.492 4.333-2.492 4.333-2.763 4.075-2.763 4.075-2.461 3.631-2.461 3.631-1.189 1.422-1.189 1.422-1.039 1.155-1.039 1.155-1.194 1.077-1.194 1.077-1.292 1.148-1.292 1.148l-.531.531s-.336.149-.336.149-.187.053-.187.053h-.628l-1.406.469s-2.233.235-2.233.235c-.071.01-1.698.244-1.698.244h-3.429s-1.733-.205-1.733-.205-1.441-.45-1.441-.45-.99-.566-.99-.566l-.757-.215s-.416-.298-.416-.298c-.002-.001-1.043-.744-1.043-.744l-.494-.309s-.396-.594-.396-.594c-.035-.05-.588-.824-.588-.824s-.457-.821-.457-.821-.411-1.026-.411-1.026-.325-.977-.325-.977-.258-1.035-.258-1.035v-1.697l-.271-1.891v-1.817l-4.247-24.248-7.295-.432-.798 2.658s-2.273 6.954-2.273 6.954-3.486 10.054-3.486 10.054-2.161 5.674-2.161 5.674c-.018.051-2.013 5.772-2.013 5.772s-2.422 5.919-2.422 5.919c-.025.067-2.006 5.482-2.006 5.482s-2.372 5.272-2.372 5.272-2.242 4.879-2.242 4.879-.874 1.624-.874 1.624-1.149 2.042-1.149 2.042-.783 1.231-.783 1.231-.97 1.211-.97 1.211c-.016.021-.819 1.053-.819 1.053s-.08.08-.08.08l-.105.053-2.858.449-2.511.793s-2.829.354-2.829.354-3.012.25-3.012.25h-1.138s-1.082-.27-1.082-.27h-1.178s-.137-.058-.137-.058l-.229-.115-2.799-4.179-4.838 6.444c-.036.052-1.942 2.777-1.942 2.777-.014.02-2.217 3.258-2.217 3.258s-2.967 3.614-2.967 3.614-3.548 4.072-3.548 4.072-4.236 4.368-4.236 4.368-2.316 2.316-2.316 2.316c-.036.039-2.333 2.47-2.333 2.47s-2.244 2.369-2.244 2.369-2.403 1.897-2.403 1.897c-.046.039-2.568 2.165-2.568 2.165s-2.403 1.895-2.403 1.895-2.681 1.787-2.681 1.787-2.899 1.845-2.899 1.845-2.65 1.592-2.65 1.592-2.789 1.646-2.789 1.646-1.25.568-1.25.568-1.418.591-1.418.591-2.843.907-2.843.907c-.023.007-2.724.907-2.724.907s-1.336.333-1.336.333-1.504.251-1.504.251c-.027.005-1.181.214-1.181.214h-6.963s-3.109-.676-3.109-.676h-1.164s-2.437-.241-2.437-.241-2.077-.299-2.077-.299h-2.021s-.693-.26-.693-.26l-1.402-.31s-2.426-.64-2.426-.64-2.739-.833-2.739-.833-1.145-.573-1.145-.573c-.078-.035-1.218-.541-1.218-.541s-3.228-1.612-3.228-1.612c-.061-.028-1.024-.467-1.024-.467s-1.046-.94-1.046-.94l-1.777-1.335c-.024-.017-1.489-1.083-1.489-1.083s-1.297-.971-1.297-.971-.848-.956-.848-.956c-.021-.022-1.448-1.579-1.448-1.579s-1.352-1.623-1.352-1.623c-.061-.066-1.392-1.517-1.392-1.517s-3.409-4.777-3.409-4.777l-11.38 8.197v8.242s-.183.103-.183.103-5.776 2.955-5.776 2.955c-.028.015-4.06 2.166-4.06 2.166s-4.382 2.257-4.382 2.257-5.043 2.391-5.043 2.391-5.031 2.248-5.031 2.248-5.222 2.091-5.222 2.091-5.301 1.723-5.301 1.723c-.013.004-2.852.949-2.852.949-.002 0-2.795.931-2.795.931s-4.383 1.339-4.383 1.339-2.421.13-2.421.13l-2.549.566s-1.89.221-1.89.221h-1.679s-1.607-.228-1.607-.228-1.505-.233-1.505-.233-.922-.262-.922-.262l-.053-.009-.113-.09-2.226-1.336-2.943.736s-1.614.231-1.614.231-2.573.245-2.573.245h-4.286s-1.609-.23-1.609-.23-1.629-.251-1.629-.251-1.944-.416-1.944-.416l-1.918-.24s-1.603-.571-1.603-.571l-2.172-.641s-1.727-.755-1.727-.755-1.944-1.165-1.944-1.165l-2.3-1.152s-.799-.569-.799-.569l-.923-.579s-2.02-1.765-2.02-1.765l-1.215-.945s-.811-.71-.811-.71-1.728-1.976-1.728-1.976c-.001-.001-.875-1.001-.875-1.001s-1.024-1.316-1.024-1.316l-1.149-1.147s-.689-.985-.689-.985-1.784-2.929-1.784-2.929-1.574-2.889-1.574-2.889-1.809-3.357-1.809-3.357-1.487-3.472-1.487-3.472-1.272-3.942-1.272-3.942l-1.598-5.858s-.966-3.589-.966-3.589c-.024-.077-.739-2.34-.739-2.34s-.368-2.699-.368-2.699c-.007-.043-.534-3.339-.534-3.339s-.386-3.349-.386-3.349-.256-3.704-.256-3.704v-3.437s.27-2.298.27-2.298v-3.878s.318-1.483.318-1.483.885-3.918.885-3.918.828-2.207.828-2.207l.366-1.834s.722-1.441.722-1.441c0-.001.946-1.895.946-1.895s.856-1.711.856-1.711 1.18-1.836 1.18-1.836l1.794-3.289 1.632-4.079s2.464-4.669 2.464-4.669 3.169-5.81 3.169-5.81 4.301-6.721 4.301-6.721c.043-.075 2.003-3.47 2.003-3.47s2.509-3.699 2.509-3.699c.016-.025 2.519-3.845 2.519-3.845s2.718-3.622 2.718-3.622 3.091-3.765 3.091-3.765c.033-.042 3.259-4.208 3.259-4.208s3.118-3.899 3.118-3.899 3.458-3.589 3.458-3.589c.059-.068 1.869-2.138 1.869-2.138s1.758-1.758 1.758-1.758l6.032-5.629s1.802-1.673 1.802-1.673 4.345-3.554 4.345-3.554 4.336-3.418 4.336-3.418 4.569-3.133 4.569-3.133 2.459-1.552 2.459-1.552 2.172-1.279 2.172-1.279 2.525-1.329 2.525-1.329c.036-.02 2.5-1.387 2.5-1.387.029-.017 2.337-1.353 2.337-1.353s2.694-1.028 2.694-1.028l2.637-1.249s2.763-1.184 2.763-1.184 2.401-1.011 2.401-1.011 2.808-.894 2.808-.894 2.474-.781 2.474-.781 2.435-.635 2.435-.635 1.142.071 1.142.071 1.876.552 1.876.552 2.94.895 2.94.895 1.058.423 1.058.423 1.643.822 1.643.822 1.624.949 1.624.949l1.793.895s1.185.79 1.185.79 1.578 1.446 1.578 1.446l1.697 1.212s1.192 1.409 1.192 1.409c.008.009.818.954.818.954s.627.734.627.734 1.088 1.74 1.088 1.74 1.056 2.227 1.056 2.227.389 1.038.389 1.038l.513 1.155s.83 2.492.83 2.492.602 2.645.602 2.645.21 1.475.21 1.475v8.421s-.216 1.734-.216 1.734-.53 2.248-.53 2.248l-.664 4.387s-.608 2.188-.608 2.188-.683 2.323-.683 2.323c-.014.052-.644 2.448-.644 2.448s-.884 2.397-.884 2.397c0 .001-.913 2.478-.913 2.478s-1.202 2.804-1.202 2.804c-.021.056-1.189 3.041-1.189 3.041s-1.279 2.687-1.279 2.687-1.515 3.03-1.515 3.03l-.229.526-.2-.047-1.781-.321-1.666-.121s-1.553-.478-1.553-.478l-1.855-.348s-1.498-.749-1.498-.749c-.078-.035-1.321-.587-1.321-.587-.026-.011-.734-.313-.734-.313s-2.025-1.217-2.025-1.217l-.517-.221s-.492-.493-.492-.493c-.06-.055-1.704-1.561-1.704-1.561-.021-.02-1.029-.916-1.029-.916s-.216-.258-.216-.258-.618-1.238-.618-1.238l-.446-.445-.084-.759-.957-1.529s-1.644-4.048-1.644-4.048c-.01-.022-1.105-2.623-1.105-2.623-.015-.033-.837-1.883-.837-1.883l-1.995-2.004h-5.586v4.039l-3.71 4.535s-1.185.86-1.185.86l-3.844 3.157s-2.677 2.114-2.677 2.114l-2.939 2.801s-3.248 2.977-3.248 2.977c-.03.028-3.383 3.24-3.383 3.24l-3.342 3.762s-3.389 3.793-3.389 3.793c-.013.015-1.918 2.192-1.918 2.192-.012.015-1.676 1.956-1.676 1.956-.04.049-1.859 2.323-1.859 2.323l-1.372 2.47s-1.835 2.402-1.835 2.402l-1.121 2.383s-1.488 2.162-1.488 2.162l-1.225 2.606c-.013.028-1.18 2.622-1.18 2.622s-1.306 2.467-1.306 2.467l-.419 1.257s-.595 1.188-.595 1.188l-.899 3.416v1.852s-.271 4.19-.271 4.19v3.13l.298 3.271.574 3.592c.018.086.71 3.406.71 3.406.018.073.458 1.832.458 1.832l.649 1.946.615 1.354s.492 1.968.492 1.968l1.297 1.851s1.055 1.658 1.055 1.658l1.216 1.39 1.471 1.472 1.477 1.149 1.924 1.347 1.679.504s1.894.872 1.894.872l2.687.578h4.735l1.446-.323s.956-.12.956-.12c.052-.008 1.749-.269 1.749-.269s4.437-.536 4.437-.536c.035-.005 6.714-.942 6.714-.942s4.345-.418 4.345-.418l4.504-1.017c.08-.022 4.466-1.22 4.466-1.22s4.704-1.075 4.704-1.075c.049-.013 5.033-1.295 5.033-1.295l2.474-1.018s2.463-.908 2.463-.908 4.996-1.712 4.996-1.712l4.49-2.463c.016-.009 2.278-1.279 2.278-1.279l2.012-1.296c.024-.016 2.028-1.35 2.028-1.35s3.244-2.089 3.244-2.089l.963-5.39s.793-4.363.793-4.363 1.327-5.703 1.327-5.703 1.61-6.58 1.61-6.58.923-3.557.923-3.557 1.168-3.894 1.168-3.894 1.368-3.83 1.368-3.83l1.222-4.481s1.269-3.68 1.269-3.68 1.865-4.395 1.865-4.395c.022-.057 1.615-4.173 1.615-4.173s1.831-4.185 1.831-4.185 2.11-4.352 2.11-4.352c0-.001 2.12-4.107 2.12-4.107s2.189-3.992 2.189-3.992 2.509-3.696 2.509-3.696c.037-.06 1.246-1.994 1.246-1.994s1.399-1.654 1.399-1.654l2.521-3.451s1.475-1.598 1.475-1.598 1.571-1.7 1.571-1.7 2.837-2.838 2.837-2.838c0 .001 1.966-1.404 1.966-1.404l1.353-1.488s1.753-1.253 1.753-1.253l1.401-1.285s1.802-.899 1.802-.899l1.54-.9s2.102-.92 2.102-.92l1.758-.946s1.791-.784 1.791-.784 1.665-.476 1.665-.476c.013-.004 2.02-.594 2.02-.594s2.23-.279 2.23-.279l.681-.227s1.775-.507 1.775-.507 2.422-.635 2.422-.635 3.159-.634 3.159-.634 3.732-.515 3.732-.515 3.934-.381 3.934-.381h4.071s2.325.261 2.325.261l2.096.121s2.54.565 2.54.565h.885s.466.155.466.155 1.556.692 1.556.692l.902.114s1.647.925 1.647.925l1.764.823s1.62 1.273 1.62 1.273c.069.05.953.681.953.681s.972.756.972.756.138.138.138.138.61 1.099.61 1.099l1.525 1.76s.373 1.116.373 1.116l.91 1.172s.252.842.252.842l.523 1.306s.299 1.095.299 1.095.288 1.726.288 1.726l.588 1.764s.258 1.034.258 1.034v12.245l3.702 17.021 6.585-13.172 4.208-10.315s6.444-13.692 6.444-13.692 3.788-7.983 3.788-7.983c.005-.011 3.763-8.063 3.763-8.063s3.997-7.862 3.997-7.862 4.14-7.479 4.14-7.479 3.824-6.593 3.824-6.593 2.119-3.046 2.119-3.046c.042-.065 1.938-3.045 1.938-3.045.003-.005 1.461-2.314 1.461-2.314s2.024-2.276 2.024-2.276l1.502-1.877s1.468-1.347 1.468-1.347c.058-.057.222-.222.222-.222s.748-.32.748-.32l.394-.315 1.071.539 2.21-.636.071-.014.47.118h.41l1.192.495s.205.147.205.147.676.811.676.811l.894.638s.677.871.677.871l.946 1.081s.51.656.51.656.591 1.653.591 1.653l.982 1.684s1.703 4.258 1.703 4.258.648 2.464.648 2.464l.952 2.853s.746 2.735.746 2.735.671 3.491.671 3.491l.899 3.471s.388 4.265.388 4.265l.666 4.398s.266 4.774.266 4.774c.009.087.544 5.307.544 5.307s1.398 19.105 1.398 19.105l10.413-20.825s4.684-8.831 4.684-8.831 5.489-9.642 5.489-9.642 3.048-5.035 3.048-5.035 3.064-4.663 3.064-4.663 2.975-4.462 2.975-4.462c.008-.013 2.41-3.677 2.41-3.677s1.425-1.557 1.425-1.557l.979-1.346s1.27-1.152 1.27-1.152l.856-.858h.997l.406-.541h.631l1.419-.709.828-.663.724-.46.394-.079 1.498-.663s.732-.277.732-.277l1.771-.393h2.523s1.621.27 1.621.27h1.552s1.891.678 1.891.678h.99s1.424.472 1.424.472l1.103.123s.853.341.853.341 1.299.541 1.299.541 1.092.696 1.092.696.917.687.917.687.43.719.43.719l1.214.865s.606.706.606.706l.555.556s.169.235.169.235.325.98.325.98l1.243 2.342s.415 1.14.415 1.14.306 1.019.306 1.019.26 1.575.26 1.575l.4 1.467s.195 1.262.195 1.262v1.545l.402 10.053-1.34 28.43zm-199.072-9.264-1.287 3.578-1.02 3.497-.691 3.314s-.417 1.669-.417 1.669l-.322 1.772-.301 3.311v6.489l.27 1.354v1.444l.534 3.024.978 2.372s.281 1.27.281 1.27l.684 1.535s.555 1.298.555 1.298l.877 1.228s.62.929.62.929l.714.856s1.202 1.683 1.202 1.683l1.25.538s.313.313.313.313l.915.731 1.559 1.117 1.816.515.49.071s1.193.68 1.193.68h1.415s.946.27.946.27h2.269l1.418-.405s2.147-.571 2.147-.571l2.089-.748c.047-.018 2.861-1.113 2.861-1.113l2.456-1.635 2.344-1.76 2.096-1.794 1.126-1.128 1.201-1.349c.046-.057 2.059-2.502 2.059-2.502l3.668-5.504c.046-.076 1.76-2.93 1.76-2.93l1.605-3.359 1.425-3.418c.031-.087 1.287-3.575 1.287-3.575l1.01-3.463.679-2.985s.656-2.301.656-2.301v-1.927s.128-2.811.128-2.811.293-3.373.293-3.373l-.285-3.002v-1.344l-.171-1.875-.616-2.928-.682-2.318s-.409-1.839-.409-1.839l-.743-1.041s-.27-.946-.27-.946l-.818-1.145s-.589-1.372-.589-1.372l-1.215-1.044s-.637-.954-.637-.954l-1.628-1.163-.261-.157s-.846-1.013-.846-1.013l-2.934-1.257-1.681-.484h-.953s-.546-.155-.546-.155l-2.256-.504-1.359.391h-.665l-2.799.37-2.69 1.178c-.042.019-2.277 1.062-2.277 1.062l-2.493 1.558-2.388 1.791-2 1.714c-.015.013-1.367 1.196-1.367 1.196l-1.1 1.415s-1.925 2.2-1.925 2.2l-2.115 2.871-1.645 2.879s-2.051 2.929-2.051 2.929l-1.365 3.49s-1.372 3.29-1.372 3.29z"/></g></g></svg>