<?xml version="1.0" encoding="UTF-8" standalone="no"?><!DOCTYPE svg PUBLIC "-//W3C//DTD SVG 1.1//EN" "http://www.w3.org/Graphics/SVG/1.1/DTD/svg11.dtd"><svg width="100%" height="100%" viewBox="0 0 600 101" version="1.1" xmlns="http://www.w3.org/2000/svg" xmlns:xlink="http://www.w3.org/1999/xlink" xml:space="preserve" xmlns:serif="http://www.serif.com/" style="fill-rule:evenodd;clip-rule:evenodd;stroke-linejoin:round;stroke-miterlimit:2;"><g id="playstation_vita_alt"><path d="M287.588,100.653c-8.273,-0.448 -11.732,-6.745 -13.297,-9.428c-1.566,-2.683 -47.977,-90.211 -47.977,-90.211l23.089,-0l38.435,71.352c2.005,4.026 6.56,5.017 9.021,0.321c2.012,-3.802 38.237,-71.673 38.237,-71.673l14.423,-0c0,-0 -44.948,85.091 -46.737,87.997c-1.791,2.908 -6.919,12.09 -15.194,11.642Z" style="fill:#fff;"/><path d="M79.388,56.094l-47.536,0c-6.516,0 -11.331,4.958 -11.331,13.455l0,30.875l-20.521,-0l-0,-29.742c-0,-16.712 10.481,-27.973 25.352,-27.973l48.087,0c11.792,-0.449 14.604,-6.301 14.604,-14.8c0,-6.515 -3.259,-15.409 -14.604,-14.514l-73.439,0l-0,-12.254l79.388,0c20.819,0 29.034,12.038 29.034,26.769c0,16.713 -8.215,28.184 -29.034,28.184Z" style="fill:#fff;"/><rect x="362.713" y="1.346" width="21.013" height="99" style="fill:#fff;"/><path d="M166.589,28.051l0,45.322c0,16.572 -7.46,26.911 -28.139,26.911l-44.421,-0l0,-12.254l38.756,0c7.932,0 12.671,-6.442 12.671,-14.656l-0,-45.323c-0,-14.447 7.016,-26.91 27.553,-26.91l44.116,-0l-0,12.255l-38.168,0c-10.309,-0.446 -12.368,7.998 -12.368,14.655Z" style="fill:#fff;"/><path d="M456.987,12.844l0.073,86.939l-20.665,-0l0,-86.846l-39.228,-0.061l0,-12.075l99.271,-0.067l-0.044,12.215l-39.407,-0.105Z" style="fill:#fff;"/><path d="M565.526,79.691l-63.546,-0.023l-10.969,21.004l-14.45,-0c-0,-0 45.033,-85.256 46.827,-88.168c1.792,-2.913 6.929,-12.113 15.22,-11.665c8.29,0.448 11.756,6.758 13.325,9.447c1.567,2.688 48.067,90.386 48.067,90.386l-23.132,-0l-11.342,-20.981Zm-27.169,-50.509c-2.009,-4.033 -6.571,-5.026 -9.036,-0.322c-1.028,1.942 -20.455,38.44 -20.455,38.44l50.098,0.004l-20.607,-38.122Z" style="fill:#fff;"/></g></svg>