<?xml version="1.0" encoding="UTF-8" standalone="no"?><!DOCTYPE svg PUBLIC "-//W3C//DTD SVG 1.1//EN" "http://www.w3.org/Graphics/SVG/1.1/DTD/svg11.dtd"><svg width="100%" height="100%" viewBox="0 0 600 260" version="1.1" xmlns="http://www.w3.org/2000/svg" xmlns:xlink="http://www.w3.org/1999/xlink" xml:space="preserve" xmlns:serif="http://www.serif.com/" style="fill-rule:evenodd;clip-rule:evenodd;stroke-linejoin:round;stroke-miterlimit:2;"><g id="playstation_ps3_tall"><g><path d="M165.801,19.871l23.942,62.747l-13.745,33.663l10.862,-0l39.581,-96.41l-12.127,-0l-17.243,46.99l-16.041,-46.99l-15.229,-0Z" style="fill:#fff;"/><path d="M236.295,83.648l-0,-7.922c-0,0 13.838,0.543 16.721,0.543c6.386,-0 9.575,-1.361 11.976,-3.936c1.417,-1.544 2.697,-8.382 2.697,-10.82c0,-2.428 -0.467,-7.678 -1.417,-9.829c-0.981,-2.108 -3.211,-4.075 -6.555,-4.36c-2.384,-0.205 -6.07,-0.687 -10.38,-0.885c-6.042,-0.287 -10.037,-3.439 -11.96,-5.706c-1.908,-2.268 -4.462,-5.685 -4.462,-16.138c-0,-10.466 2.707,-16.333 5.421,-19.054c2.714,-2.737 6.684,-3.936 9.736,-4.477c3.51,-0.6 9.245,-0.636 9.245,-0.636l18.317,0.533l-0,7.923c-0,-0 -13.357,-0.534 -16.23,-0.534c-6.388,0 -8.304,1.368 -10.696,3.936c-1.412,1.527 -2.516,5.756 -2.516,8.179c0,2.434 0.285,7.35 1.244,9.478c0.95,2.109 3.189,4.082 6.539,4.383c2.377,0.183 6.071,0.665 10.373,0.862c6.07,0.286 10.057,3.431 11.959,5.707c1.925,2.274 4.484,7.066 4.484,17.51c-0,10.468 -2.729,17.945 -5.429,20.673c-2.719,2.72 -6.684,3.936 -9.734,4.462c-3.519,0.605 -9.254,0.651 -9.254,0.651l-20.079,-0.543Z" style="fill:#fff;"/><rect x="83.098" y="0.32" width="13.085" height="83.828" style="fill:#fff;"/><path d="M307.696,8.348l-13.079,0l-0,61.543c-0,-0 0.313,5.617 0.636,7.592c0.321,1.975 3.196,6.664 10.693,6.664l13.555,-0.264l-0,-7.893c-0,0 -3.672,0.264 -5.887,0.264c-2.247,0 -4.968,-0.147 -5.428,-3.943c-0.492,-3.789 -0.492,-8.316 -0.492,-8.316l0,-36.238l14.778,-0l-0,-7.886l-14.778,-0l0,-11.521l0.002,-0.002Z" style="fill:#fff;"/><rect x="433.981" y="19.874" width="13.079" height="64.273" style="fill:#fff;"/><path d="M407.923,8.348l-13.085,0l-0,61.543c-0,-0 0.308,5.617 0.623,7.592c0.328,1.975 3.18,6.664 10.708,6.664l13.553,-0.264l-0,-7.893c-0,0 -3.679,0.264 -5.902,0.264c-2.222,0 -4.951,-0.147 -5.428,-3.943c-0.468,-3.789 -0.468,-8.316 -0.468,-8.316l0,-36.238l14.739,-0l0,-7.886l-14.739,-0l-0.001,-11.523Z" style="fill:#fff;"/><path d="M18.566,0.318l0,83.827l13.087,0l-0,-75.793l12.113,0c-0,0 8.801,0 11.814,3.936c2.56,3.343 3.028,9.408 3.028,13.503c-0,4.383 -0.277,11.155 -1.748,13.635c-2.232,3.789 -5.896,4.548 -9.247,4.548l-7.995,-0l-0,7.44l11.498,-0c0,-0 10.375,0.433 14.836,-4.103c5.471,-5.56 6.861,-13.035 6.861,-23.043c0,-9.092 -3.299,-18.265 -10.042,-21.381c-5.583,-2.567 -15.647,-2.567 -15.647,-2.567l-28.558,-0.002Z" style="fill:#fff;"/><path d="M543.367,28.897l12.83,-0.541c3.357,0 7.309,0.906 9.225,3.336c1.784,2.289 2.91,5.018 2.91,9.414l0,42.968l13.102,-0l-0,-44.05c-0,-8.332 -2.568,-13.175 -6.415,-16.218c-5.487,-4.352 -15.317,-3.935 -15.317,-3.935l-29.311,0.526l-0,63.677l12.976,-0l0,-55.177Z" style="fill:#fff;"/><path d="M145.839,41.106c0,-4.396 -1.118,-7.125 -2.919,-9.414c-1.917,-2.43 -5.851,-3.338 -9.218,-3.338l-17.257,0.543l0,-8.5l20.769,-0.526c0,-0 9.83,-0.418 15.324,3.935c3.833,3.045 6.379,7.886 6.379,16.218l-0,43.436l-25.075,0.541c-0,-0 -11.352,0.04 -17.074,-2.274c-5.573,-2.269 -8.616,-8.493 -8.616,-17.133c0,-8.339 2.553,-13.182 6.386,-16.224c5.493,-4.36 15.317,-3.929 15.317,-3.929l8.01,0l0,7.404l-4.493,-0c-3.363,-0 -6.822,0.622 -8.747,3.05c-1.792,2.266 -2.751,4.236 -2.751,8.632c-0,5.771 1.118,8.344 3.833,10.306c2.4,1.748 6.693,2.128 11.485,2.128l8.647,-0.527l0,-34.328Z" style="fill:#fff;"/><path d="M366.476,41.106c0,-4.396 -1.095,-7.125 -2.895,-9.414c-1.939,-2.43 -5.874,-3.338 -9.216,-3.338l-17.25,0.543l0,-8.5l20.753,-0.526c-0,-0 9.824,-0.418 15.311,3.935c3.833,3.045 6.393,7.886 6.393,16.218l0,43.436l-25.077,0.541c0,-0 -11.366,0.04 -17.073,-2.274c-5.581,-2.269 -8.631,-8.493 -8.631,-17.133c0,-8.339 2.575,-13.182 6.386,-16.224c5.487,-4.36 15.331,-3.929 15.331,-3.929l8.004,0l-0,7.404l-4.499,-0c-3.343,-0 -6.824,0.622 -8.726,3.05c-1.801,2.266 -2.765,4.236 -2.765,8.632c-0,5.771 1.126,8.344 3.833,10.306c2.391,1.748 6.708,2.128 11.498,2.128l8.625,-0.527l-0.002,-34.328Z" style="fill:#fff;"/><path d="M488.403,19.322c8.902,0 15.809,1.99 19.517,4.989c3.745,3.007 8.344,9.349 8.344,27.701c0,18.354 -4.599,24.688 -8.344,27.703c-3.71,2.998 -10.615,5.003 -19.517,5.003c-8.925,-0 -15.8,-2.005 -19.538,-5.003c-3.737,-3.015 -8.317,-9.349 -8.317,-27.703c0,-18.352 4.58,-24.696 8.317,-27.701c3.738,-2.999 10.613,-4.989 19.538,-4.989Zm-8.967,12.324c-1.801,2.219 -3.995,6.877 -3.995,20.366c0,13.483 2.194,18.148 3.993,20.356c1.793,2.197 5.098,3.681 9.378,3.681c4.286,-0 7.578,-1.486 9.394,-3.679c1.791,-2.21 3.985,-6.877 3.985,-20.356c-0,-13.491 -2.194,-18.151 -3.985,-20.366c-1.816,-2.201 -5.108,-3.673 -9.394,-3.673c-4.278,-0 -7.585,1.471 -9.378,3.673l0.002,-0.002Z" style="fill:#fff;"/><rect x="433.981" y="0.316" width="13.079" height="11.669" style="fill:#fff;"/></g><g><path d="M384.099,131.715l-78.734,0.003c-24.285,-0 -36.177,14.966 -36.177,34.452l-0,59.193c-0,12.055 -5.703,20.728 -17.788,20.728l-68.844,0c-0.494,0 -0.892,0.406 -0.892,0.904l0,11.892c0,0.497 0.408,0.902 0.907,0.902l77.928,-0c24.281,-0 36.175,-14.922 36.175,-34.403l0,-59.239c0,-12.066 5.716,-20.757 17.775,-20.757l69.65,-0c0.514,-0 0.894,-0.403 0.894,-0.894l-0,-11.877c-0,-0.501 -0.406,-0.904 -0.894,-0.904Z" style="fill:#fff;fill-rule:nonzero;"/><path d="M152.331,131.728l-151.44,-0.01c-0.491,-0 -0.891,0.405 -0.891,0.901l-0,11.885c-0,0.493 0.4,0.896 0.899,0.896l142.346,0c12.063,0 17.784,8.686 17.784,20.749c0,12.051 -5.708,20.732 -17.784,20.732l-112.594,-0c-17.488,-0 -30.651,14.692 -30.651,34.176l-0,37.823c-0,0.496 0.403,0.899 0.899,0.899l25.681,-0c0.486,-0 0.891,-0.403 0.891,-0.899l-0,-37.823c-0,-12.063 6.958,-20.486 16.93,-20.486l107.93,-0c24.29,-0 36.175,-14.927 36.175,-34.396c-0,-19.471 -11.885,-34.447 -36.175,-34.447Z" style="fill:#fff;fill-rule:nonzero;"/><path d="M588.737,194.166c-0.39,-0.39 -0.4,-1.055 -0.008,-1.424c7.522,-6.236 11.263,-15.675 11.263,-26.567c0,-19.471 -11.894,-34.447 -36.177,-34.447l-151.442,-0.01c-0.489,-0 -0.904,0.405 -0.904,0.904l-0,11.882c-0,0.501 0.415,0.896 0.904,0.896l142.348,0c12.069,0 17.785,8.686 17.785,20.749c-0,12.051 -5.706,20.732 -17.785,20.732l-0.125,-0l-0.039,-0.006l-142.184,0.016c-0.489,-0 -0.904,0.405 -0.904,0.899l-0,11.887c-0,0.491 0.415,0.894 0.904,0.894l142.358,-0c15.704,0.127 17.767,15.402 17.767,23.225l0.018,1.564c0,12.069 -5.726,20.752 -17.785,20.752l-142.358,-0c-0.489,-0 -0.904,0.405 -0.904,0.894l-0,11.881c-0,0.497 0.415,0.902 0.904,0.902l151.442,-0.005c24.293,-0 36.185,-16.14 36.185,-34.445l-0,-1.543c-0,-11.656 -3.76,-22.792 -11.263,-29.63Z" style="fill:#fff;fill-rule:nonzero;"/></g></g></svg>