<svg clip-rule="evenodd" fill-rule="evenodd" stroke-linejoin="round" stroke-miterlimit="2" viewBox="0 0 600 230" xmlns="http://www.w3.org/2000/svg"><g fill="#fff"><path d="m53.44 73.712c7.193 0 14.096 1.404 20.708 4.213 6.611 2.809 12.298 6.595 17.059 11.356 4.762 4.762 8.547 10.448 11.356 17.06 2.809 6.611 4.214 13.514 4.214 20.708 0 9.66-2.381 18.584-7.143 26.771-4.761 8.187-11.236 14.679-19.423 19.474-8.187 4.796-17.111 7.194-26.771 7.194-8.701 0-16.957-2.055-24.768-6.166v38.847c0 3.973-1.387 7.348-4.162 10.122-2.774 2.775-6.149 4.163-10.122 4.163-3.974 0-7.365-1.388-10.174-4.163-2.809-2.774-4.214-6.149-4.214-10.122v-86.12c0-9.661 2.398-18.584 7.194-26.772 4.796-8.187 11.287-14.661 19.474-19.423 8.188-4.761 17.111-7.142 26.772-7.142zm17.47 70.91c4.865-4.864 7.297-10.722 7.297-17.573 0-6.852-2.415-12.692-7.245-17.522-4.83-4.831-10.671-7.246-17.522-7.246-6.852 0-12.692 2.415-17.522 7.246-4.83 4.83-7.246 10.67-7.246 17.522 0 6.851 2.416 12.692 7.246 17.522s10.67 7.245 17.522 7.245c6.851 0 12.674-2.398 17.47-7.194z" fill-rule="nonzero"/><path d="m117.964 77.925c2.809-2.809 6.201-4.213 10.175-4.213 3.973 0 7.347 1.387 10.122 4.162s4.162 6.149 4.162 10.123v78.206c0 3.974-1.387 7.348-4.162 10.123s-6.149 4.162-10.122 4.162c-3.974 0-7.348-1.387-10.123-4.162s-4.162-6.149-4.162-10.123v-78.206c0-3.974 1.37-7.331 4.11-10.072z"/><path d="m150.644 55.3c-6.261 6.261-13.763 9.392-22.505 9.392-8.743 0-16.245-3.131-22.506-9.392-6.261-6.262-9.392-13.764-9.392-22.506s3.131-16.244 9.392-22.505c6.261-6.262 13.763-9.392 22.506-9.392 8.742 0 16.244 3.13 22.505 9.392 6.261 6.261 9.392 13.763 9.392 22.505s-3.131 16.244-9.392 22.506z"/><g fill-rule="nonzero"><path d="m315.428 73.712c7.194 0 14.096 1.404 20.708 4.213 6.611 2.809 12.298 6.595 17.059 11.356 4.762 4.762 8.547 10.448 11.356 17.06 2.809 6.611 4.214 13.514 4.214 20.708 0 9.66-2.381 18.584-7.143 26.771-4.761 8.187-11.236 14.679-19.423 19.474-8.187 4.796-17.111 7.194-26.771 7.194s-18.584-2.398-26.771-7.194c-8.188-4.795-14.679-11.287-19.475-19.474s-7.194-17.111-7.194-26.771v-86.018c0-3.973 1.405-7.365 4.214-10.174s6.2-4.213 10.174-4.213c3.973 0 7.348 1.404 10.122 4.213 2.775 2.809 4.163 6.201 4.163 10.174v38.847c7.81-4.111 16.066-6.166 24.767-6.166zm-17.574 70.91c4.865 4.796 10.723 7.194 17.574 7.194s12.692-2.415 17.522-7.245 7.245-10.671 7.245-17.522c0-6.852-2.415-12.692-7.245-17.522-4.83-4.831-10.671-7.246-17.522-7.246s-12.692 2.415-17.522 7.246c-4.83 4.83-7.245 10.67-7.245 17.522 0 6.851 2.397 12.709 7.193 17.573z"/><path d="m428.032 73.712c9.66 0 18.584 2.381 26.771 7.142 8.188 4.762 14.679 11.236 19.475 19.423 4.796 8.188 7.194 17.111 7.194 26.772v39.154c0 3.974-1.388 7.348-4.162 10.123-2.775 2.775-6.149 4.162-10.123 4.162-2.535 0-4.933-.651-7.194-1.952-2.261-1.302-4.008-3.049-5.241-5.242-8.222 4.796-17.128 7.194-26.72 7.194-9.66 0-18.584-2.398-26.771-7.194-8.187-4.795-14.662-11.287-19.423-19.474-4.762-8.187-7.143-17.111-7.143-26.771 0-14.662 5.224-27.217 15.672-37.665 10.449-10.448 23.003-15.672 37.665-15.672zm17.471 70.91c4.864-4.864 7.296-10.722 7.296-17.573 0-6.852-2.415-12.692-7.245-17.522-4.83-4.831-10.671-7.246-17.522-7.246s-12.692 2.415-17.522 7.246c-4.83 4.83-7.245 10.67-7.245 17.522 0 6.851 2.415 12.692 7.245 17.522s10.671 7.245 17.522 7.245 12.675-2.398 17.471-7.194z"/><path d="m534.075 150.685c3.083.96 5.55 2.707 7.4 5.242s2.774 5.378 2.774 8.529c0 4.796-1.952 8.667-5.857 11.613-2.467 1.85-5.276 2.775-8.427 2.775-1.165 0-2.535-.24-4.111-.719-11.031-3.426-19.954-9.746-26.771-18.961s-10.226-19.612-10.226-31.19v-86.943c0-4.316 1.679-7.947 5.036-10.893 3.288-2.878 7.194-3.94 11.715-3.186 3.426.548 6.269 2.227 8.53 5.036s3.392 6.029 3.392 9.66v86.326c0 5.206 1.524 9.9 4.573 14.079s7.04 7.057 11.972 8.632z"/><path d="m589.826 150.685c3.083.96 5.549 2.707 7.399 5.242s2.775 5.378 2.775 8.529c0 4.796-1.953 8.667-5.858 11.613-2.466 1.85-5.275 2.775-8.427 2.775-1.165 0-2.535-.24-4.111-.719-11.03-3.426-19.954-9.746-26.771-18.961s-10.225-19.612-10.225-31.19v-86.943c0-4.316 1.678-7.947 5.035-10.893 3.289-2.878 7.194-3.94 11.716-3.186 3.426.548 6.269 2.227 8.53 5.036s3.391 6.029 3.391 9.66v86.326c0 5.206 1.525 9.9 4.573 14.079 3.049 4.179 7.04 7.057 11.973 8.632z"/></g><path d="m315.238 229.278c-16.048-.06-30.705-4.121-44.323-12.098-13.562-7.944-24.315-18.697-32.259-32.259-8.028-13.705-12.212-28.461-12.221-44.63v-14.065c0-6.577-2.329-12.212-6.988-16.905s-10.277-7.04-16.854-7.04-12.212 2.347-16.906 7.04c-4.693 4.693-7.039 10.328-7.039 16.905v39.977c0 4.317-1.679 7.948-5.036 10.894-3.288 2.877-7.194 3.939-11.715 3.186-3.426-.548-6.269-2.227-8.53-5.036s-3.392-6.029-3.392-9.66v-39.361c0-9.523 2.347-18.309 7.04-26.36 4.693-8.05 11.082-14.404 19.166-19.063 8.085-4.728 16.889-7.091 26.412-7.091s18.31 2.346 26.36 7.039 14.422 11.065 19.115 19.115c4.693 8.051 7.04 16.837 7.04 26.36v14.065.127c.031 10.809 2.955 20.961 8.325 30.129 5.382 9.188 12.836 16.473 22.024 21.856 8.777 5.141 18.304 7.842 28.584 8.088.441-.04.886-.061 1.335-.061 7.961 0 14.425 6.463 14.425 14.424s-6.464 14.425-14.425 14.425c-.046 0-.092 0-.138-.001z"/></g></svg>