<svg clip-rule="evenodd" fill-rule="evenodd" stroke-linejoin="round" stroke-miterlimit="2" viewBox="0 0 600 149" xmlns="http://www.w3.org/2000/svg"><g fill="#fff"><g fill-rule="nonzero"><path d="m0 .957h109.022v32.33h-104.714v28.021h-4.308v-32.33h104.714v-23.714h-104.714v-4.307"/><path d="m245.211 33.287v28.021h-4.308v-32.33h104.713v-23.714h-104.713v-4.308h109.022v32.331z"/><path d="m164.61.957v56.043h-55.588v4.308h60.136v-56.044h55.588v-4.308h-60.136"/></g><path d="m350.282 84.857h15.097v11.017h-15.097z"/><path d="m350.282 106.483h15.097v42.173h-15.097z"/><path d="m477.818 84.857h15.097v11.017h-15.097z"/><path d="m477.818 106.483h15.097v42.028h-15.097z"/><path d="m421.394 95.49c-8.481.07-16.935 3.734-21.331 10.993-2.473 4.084-2.949 8.492-3.033 13.022l-.012-.007v29.013h-14.04v-34.734c0-4.341 1.702-8.28 3.149-10.966 6.653-12.355 21.118-18.738 35.467-18.727l.336.001c14.238.088 28.53 6.468 35.131 18.726 1.447 2.686 3.15 6.625 3.15 10.966v34.734h-14.04v-29.013l-.013.007c-.084-4.53-.56-8.938-3.033-13.022-4.431-7.316-12.983-10.981-21.531-10.994z"/><path d="m261.982 97.197c7.527-8.669 19.595-13.123 31.583-13.113l.336.001c14.238.087 28.529 6.467 35.131 18.726 1.446 2.686 3.149 6.625 3.149 10.966v34.734h-14.04v-29.013l-.013.007c-.084-4.53-.559-8.938-3.033-13.022-4.43-7.316-12.983-10.981-21.53-10.994l-.201.001c-8.48.069-16.934 3.734-21.33 10.993-2.351 3.882-2.897 8.056-3.017 12.35v29.678h-14.069v-29.678c-.12-4.294-.666-8.468-3.017-12.35-4.431-7.316-12.983-10.981-21.531-10.994l-.2.001c-8.481.069-16.935 3.734-21.331 10.993-2.473 4.084-2.949 8.492-3.033 13.022l-.012-.007v29.013h-14.041v-34.734c0-4.341 1.703-8.28 3.15-10.966 6.653-12.355 21.118-18.738 35.467-18.727l.336.001c11.876.073 23.789 4.524 31.246 13.112z"/><path d="m600 68.536-12.206-.101c-12.272.078-24.369 1.535-32.896 11.934-4.663 5.686-6.792 12.714-7.111 19.994-.563 12.874 2.48 27.438-11.849 34.143-2.722 1.274-5.616 1.861-8.568 2.282-5.589.797-11.497.298-17.138.298v11.425c15.138 0 33.198 2.215 44.297-10.615 4.164-4.814 6.631-10.409 7.407-16.724 1.719-13.998-3.904-30.914 11.95-38.841 2.295-1.147 4.813-1.832 7.344-2.196 6.058-.869 12.652-.174 18.77-.174z"/></g></svg>