<?xml version="1.0" encoding="UTF-8" standalone="no"?><!DOCTYPE svg PUBLIC "-//W3C//DTD SVG 1.1//EN" "http://www.w3.org/Graphics/SVG/1.1/DTD/svg11.dtd"><svg width="100%" height="100%" viewBox="0 0 600 377" version="1.1" xmlns="http://www.w3.org/2000/svg" xmlns:xlink="http://www.w3.org/1999/xlink" xml:space="preserve" xmlns:serif="http://www.serif.com/" style="fill-rule:evenodd;clip-rule:evenodd;stroke-linejoin:round;stroke-miterlimit:2;"><g id="playstation2_tall"><g><g><path d="M258.469,0.167l-0,236.854l53.629,16.991l0,-198.599c0,-9.359 4.173,-15.573 10.865,-13.435c8.749,2.426 10.45,11.047 10.45,20.301l-0,79.316c33.381,16.157 59.664,-0.009 59.664,-42.639c-0,-43.561 -15.409,-62.968 -60.749,-78.572c-17.881,-5.952 -51.024,-16 -73.858,-20.217" style="fill:#fff;fill-rule:nonzero;"/><path d="M322.298,219.385l86.133,-30.658c9.744,-3.611 11.234,-8.518 3.347,-11.097c-8.008,-2.626 -22.307,-1.875 -32.152,1.662l-57.328,20.222l0,-32.267l3.283,-1.084c-0,0 16.594,-5.879 39.933,-8.41c23.294,-2.553 51.862,0.333 74.315,8.796c25.293,8.035 28.127,19.754 21.728,27.911c-6.492,8.072 -22.232,13.911 -22.232,13.911l-117.027,42.038l0,-31.024Z" style="fill:#fff;"/><path d="M160.207,216.122c-25.934,-7.224 -30.258,-22.489 -18.427,-31.307c10.912,-8.053 29.496,-14.114 29.496,-14.114l76.824,-27.391l-0,31.175l-55.233,19.797c-9.783,3.5 -11.25,8.425 -3.369,11.001c8.02,2.68 22.254,1.96 32.043,-1.653l26.559,-9.575l-0,27.831c-1.712,0.287 -3.616,0.577 -5.353,0.873c-26.478,4.395 -54.688,2.59 -82.54,-6.636l-0,-0.001Z" style="fill:#fff;"/></g></g><g><g><path d="M130.725,291.113l21.257,55.711l-12.204,29.888l9.644,-0l35.143,-85.599l-10.768,-0l-15.309,41.721l-14.242,-41.721l-13.521,-0Z" style="fill:#fff;"/><path d="M193.313,347.739l0,-7.034c0,-0 12.287,0.482 14.847,0.482c5.669,-0 8.501,-1.209 10.632,-3.495c1.259,-1.371 2.395,-7.442 2.395,-9.606c0,-2.156 -0.415,-6.818 -1.258,-8.728c-0.871,-1.871 -2.851,-3.618 -5.82,-3.87c-2.116,-0.182 -5.389,-0.611 -9.216,-0.787c-5.365,-0.254 -8.911,-3.053 -10.619,-5.065c-1.693,-2.014 -3.962,-5.048 -3.962,-14.329c0,-9.292 2.404,-14.501 4.814,-16.917c2.409,-2.43 5.935,-3.495 8.644,-3.975c3.116,-0.532 8.208,-0.565 8.208,-0.565l16.263,0.474l0,7.034c0,-0 -11.859,-0.474 -14.41,-0.474c-5.671,0 -7.373,1.215 -9.496,3.494c-1.254,1.357 -2.234,5.111 -2.234,7.262c-0,2.161 0.252,6.526 1.104,8.415c0.843,1.873 2.831,3.625 5.806,3.892c2.111,0.163 5.39,0.591 9.21,0.765c5.389,0.254 8.929,3.047 10.618,5.067c1.709,2.019 3.981,6.274 3.981,15.547c-0,9.294 -2.423,15.932 -4.82,18.355c-2.415,2.415 -5.935,3.494 -8.643,3.962c-3.124,0.537 -8.216,0.578 -8.216,0.578l-17.828,-0.482Z" style="fill:#fff;"/><rect x="57.295" y="273.754" width="11.618" height="74.428" style="fill:#fff;"/><path d="M256.708,280.883l-11.613,-0l0,54.641c0,-0 0.279,4.987 0.565,6.741c0.285,1.753 2.838,5.917 9.494,5.917l12.035,-0.235l-0,-7.008c-0,0 -3.26,0.235 -5.227,0.235c-1.994,-0 -4.411,-0.131 -4.819,-3.501c-0.437,-3.364 -0.437,-7.384 -0.437,-7.384l0,-32.175l13.121,0l-0,-7.001l-13.121,-0l0,-10.229l0.002,-0.001Z" style="fill:#fff;"/><rect x="368.831" y="291.116" width="11.613" height="57.066" style="fill:#fff;"/><path d="M345.695,280.883l-11.617,-0l-0,54.641c-0,-0 0.273,4.987 0.553,6.741c0.292,1.753 2.824,5.917 9.508,5.917l12.033,-0.235l-0,-7.008c-0,0 -3.267,0.235 -5.24,0.235c-1.974,-0 -4.396,-0.131 -4.82,-3.501c-0.415,-3.364 -0.415,-7.384 -0.415,-7.384l0,-32.175l13.086,0l0,-7.001l-13.086,-0l-0.002,-10.23Z" style="fill:#fff;"/><path d="M-0,273.752l-0,74.428l11.619,0l0,-67.294l10.755,-0c-0,-0 7.814,-0 10.489,3.494c2.273,2.968 2.688,8.353 2.688,11.989c0,3.891 -0.245,9.905 -1.551,12.106c-1.982,3.364 -5.235,4.038 -8.21,4.038l-7.099,0l-0,6.606l10.209,-0c-0,-0 9.211,0.384 13.173,-3.643c4.857,-4.936 6.091,-11.573 6.091,-20.459c-0,-8.072 -2.929,-16.217 -8.916,-18.983c-4.957,-2.28 -13.893,-2.28 -13.893,-2.28l-25.355,-0.002Z" style="fill:#fff;"/><path d="M465.952,299.127l11.391,-0.48c2.98,-0 6.489,0.804 8.19,2.962c1.585,2.032 2.584,4.455 2.584,8.357l0,38.151l11.633,-0l-0,-39.111c-0,-7.397 -2.28,-11.698 -5.696,-14.399c-4.872,-3.864 -13.599,-3.494 -13.599,-3.494l-26.025,0.467l0,56.537l11.522,-0l-0,-48.99Z" style="fill:#fff;"/><path d="M113.001,309.966c0,-3.902 -0.993,-6.325 -2.592,-8.357c-1.702,-2.158 -5.194,-2.964 -8.184,-2.964l-15.322,0.482l0,-7.547l18.44,-0.467c0,-0 8.728,-0.371 13.606,3.494c3.403,2.703 5.663,7.002 5.663,14.399l0,38.565l-22.263,0.48c0,0 -10.079,0.036 -15.159,-2.019c-4.948,-2.014 -7.65,-7.54 -7.65,-15.211c0,-7.404 2.267,-11.704 5.67,-14.405c4.877,-3.87 13.599,-3.488 13.599,-3.488l7.112,0l0,6.574l-3.989,-0c-2.986,-0 -6.057,0.552 -7.767,2.707c-1.59,2.013 -2.442,3.762 -2.442,7.665c0,5.124 0.993,7.408 3.403,9.15c2.131,1.552 5.943,1.889 10.198,1.889l7.677,-0.467l0,-30.48Z" style="fill:#fff;"/><path d="M308.897,309.966c-0,-3.902 -0.972,-6.325 -2.571,-8.357c-1.721,-2.158 -5.216,-2.964 -8.182,-2.964l-15.316,0.482l0,-7.547l18.426,-0.467c-0,-0 8.722,-0.371 13.594,3.494c3.403,2.703 5.676,7.002 5.676,14.399l0,38.565l-22.265,0.48c0,0 -10.092,0.036 -15.159,-2.019c-4.955,-2.014 -7.662,-7.54 -7.662,-15.211c-0,-7.404 2.286,-11.704 5.669,-14.405c4.872,-3.87 13.613,-3.488 13.613,-3.488l7.105,0l0,6.574l-3.994,-0c-2.968,-0 -6.059,0.552 -7.747,2.707c-1.599,2.013 -2.456,3.762 -2.456,7.665c0,5.124 1,7.408 3.404,9.15c2.123,1.552 5.956,1.889 10.209,1.889l7.657,-0.467l-0.001,-30.48Z" style="fill:#fff;"/><path d="M417.151,290.626c7.904,0 14.036,1.767 17.328,4.429c3.325,2.67 7.409,8.301 7.409,24.595c-0,16.295 -4.084,21.919 -7.409,24.596c-3.294,2.662 -9.424,4.442 -17.328,4.442c-7.924,0 -14.029,-1.78 -17.347,-4.442c-3.318,-2.677 -7.384,-8.301 -7.384,-24.596c-0,-16.294 4.066,-21.926 7.384,-24.595c3.318,-2.662 9.423,-4.429 17.347,-4.429Zm-7.962,10.942c-1.599,1.97 -3.546,6.106 -3.546,18.082c-0,11.971 1.947,16.113 3.545,18.073c1.592,1.951 4.526,3.268 8.327,3.268c3.805,0 6.728,-1.319 8.34,-3.266c1.59,-1.962 3.538,-6.106 3.538,-18.074c-0,-11.977 -1.948,-16.115 -3.538,-18.081c-1.612,-1.954 -4.535,-3.262 -8.34,-3.262c-3.799,0 -6.735,1.306 -8.327,3.262l0.001,-0.002Z" style="fill:#fff;"/><rect x="368.831" y="273.751" width="11.613" height="10.361" style="fill:#fff;"/></g><g><path id="path816" d="M599.975,281.967c0.145,8.432 -0.266,12.871 -3.101,17.091c-2.498,3.707 -7.444,7.089 -18.376,7.089l-13.562,-0.403c-2.145,0.041 -7.676,0.667 -10.3,3.473c-2.245,2.426 -2.421,4.242 -2.647,10.696l-0,18.932l46.094,-0l0,9.272l-50.388,-0l-2.422,-0.015c-3.424,-0 -6.791,-2.324 -6.791,-6.974l0,-14.122c0.241,-16.497 1.42,-18.861 5.003,-23.19c2.486,-2.99 8.325,-6.339 15.407,-6.694c1.396,-0.062 4.012,-0.241 7.691,-0.141c2.68,0.119 5.361,0.196 6.536,0.217c6.28,0.064 8.565,-1.094 10.285,-3.343c1.96,-2.528 3.013,-5.522 3.013,-10.419c-0,-4.588 -0.936,-8.913 -2.688,-10.919c-2.115,-2.326 -4.145,-3.878 -10.038,-3.878c-14.911,-0.04 -32.308,0.356 -32.308,0.356l-0,-8.759c-0,-0 17.003,-0.724 34.345,-0.979c10.797,-0.185 16.752,2.685 19.78,6.635c3.199,4.111 4.324,8.004 4.467,16.075Z" style="fill:#fff;fill-rule:nonzero;"/></g></g></g></svg>