<svg clip-rule="evenodd" fill-rule="evenodd" stroke-linejoin="round" stroke-miterlimit="2" viewBox="0 0 600 99" xmlns="http://www.w3.org/2000/svg"><g fill="#fff" fill-rule="nonzero"><path d="m28.385 55.102h14.653v-17.307h-14.653v-9.577c0-6.693 1.846-9.923 7.269-9.923 2.769 0 4.961.923 7.384 1.961v-18.115c-2.884-1.5-5.769-2.077-9-2.077-7.961 0-15.461 3.346-20.653 9.461-5.77 6.577-6 12.577-6 20.77v7.5h-7.385v17.307h7.385v41.885h21z"/><path d="m81 54.064c8.538 0 13.5 6.115 13.5 13.384 0 7.5-4.962 13.27-13.5 13.27s-13.5-5.77-13.5-13.27c0-7.269 4.962-13.384 13.5-13.384zm33.808-16.269h-21v5.769c-4.385-5.193-11.539-7.731-18.346-7.731-17.539 0-29.654 14.538-29.654 31.5s12.346 31.615 29.884 31.615c6.923 0 14.193-2.653 17.885-8.538h.231v6.577h21z"/><path d="m143.654 37.795h-23.539l31.039 59.192h13.384l30.924-59.192h-23.539l-14.077 30.346z"/><path d="m231.923 35.833c-19.038 0-35.654 11.423-35.654 31.615 0 20.193 16.731 31.5 35.654 31.5 19.039 0 35.654-11.423 35.654-31.5 0-20.192-16.615-31.615-35.654-31.615zm0 18.231c8.539 0 13.5 6.115 13.5 13.384 0 7.5-4.961 13.27-13.5 13.27-8.538 0-13.5-5.77-13.5-13.27 0-7.269 4.962-13.384 13.5-13.384z"/><path d="m276.692 37.795v35.653c0 19.5 13.731 25.5 31.5 25.5 17.77 0 31.5-6 31.5-25.5v-35.653h-21v31.615c0 7.5-1.846 12.808-10.5 12.808s-10.5-5.308-10.5-12.808v-31.615z"/><path d="m374.077 37.795h-21v59.192h21v-23.885c0-10.154 2.885-17.884 14.538-17.884 3.231 0 6 .346 8.885 1.961v-20.192h-4.038c-8.193 0-15.116 3.231-19.154 10.5h-.231z"/><path d="m426.346 37.795h-21v59.192h21zm-10.5-34.5c-6.461 0-11.769 5.307-11.769 11.769 0 6.461 5.308 11.769 11.769 11.769 6.462 0 11.769-5.308 11.769-11.769 0-6.462-5.307-11.769-11.769-11.769z"/><path d="m463.154 55.102h11.884v-17.307h-11.884v-17.77h-21v17.77h-6.808v17.307h6.808v41.885h21z"/><path d="m498.692 58.795c1.27-6.116 6.346-9.347 12.462-9.347 5.654 0 10.846 3.693 11.884 9.347zm43.846 9.923c0-20.193-11.884-32.885-32.423-32.885-19.269 0-32.769 11.885-32.769 31.615 0 20.423 14.654 31.5 34.269 31.5 6.808 0 13.5-1.615 18.923-4.961 5.424-3.346 9.577-8.423 11.193-15.346h-20.193c-2.307 3.923-5.538 5.423-10.038 5.423-8.654 0-13.154-4.616-13.154-13.154h44.192z"/><path d="m598.269 39.641c-6.115-2.77-12.807-3.808-19.5-3.808-12.923 0-26.077 6.462-26.077 21 0 10.615 6.577 13.846 13.154 15.577s13.154 1.961 13.154 6.577c0 3.231-3.923 4.5-6.577 4.5-5.192 0-12.346-3-16.615-6l-7.616 14.654c7.154 4.384 15.462 6.807 23.885 6.807 13.731 0 27.923-6.461 27.923-22.038 0-10.962-7.385-15.577-17.192-17.539-2.885-.576-9.462-1.153-9.462-5.192 0-3 4.154-4.038 6.577-4.038 3.577 0 8.077 1.154 11.308 2.884z"/></g></svg>