<?xml version="1.0" encoding="UTF-8" standalone="no"?><!DOCTYPE svg PUBLIC "-//W3C//DTD SVG 1.1//EN" "http://www.w3.org/Graphics/SVG/1.1/DTD/svg11.dtd"><svg width="100%" height="100%" viewBox="0 0 600 236" version="1.1" xmlns="http://www.w3.org/2000/svg" xmlns:xlink="http://www.w3.org/1999/xlink" xml:space="preserve" xmlns:serif="http://www.serif.com/" style="fill-rule:evenodd;clip-rule:evenodd;stroke-linejoin:round;stroke-miterlimit:2;"><g id="playlist_trackball"><g><path d="M415.8,69.927c-0.398,-1.739 -0.432,-3.542 -0.1,-5.295c7.032,-36.535 39.21,-64.155 77.787,-64.155c38.595,0 70.783,27.644 77.829,64.197c0.325,1.716 0.294,3.48 -0.091,5.184c-5.506,23.625 -38.234,41.812 -77.738,41.812c-39.461,-0 -72.161,-18.148 -77.687,-41.743Zm27.604,-24.107c-0.331,0.427 -0.922,0.551 -1.396,0.293c-0.474,-0.258 -0.692,-0.821 -0.514,-1.331c4.103,-11.274 11.368,-20.551 21.566,-26.211c7.318,-4.062 15.419,-5.856 23.746,-5.624c0.691,0.027 1.261,0.547 1.354,1.231c0.092,0.685 -0.321,1.337 -0.979,1.547c-5.582,1.838 -11.121,4.237 -16.517,7.231c-10.955,6.08 -20.142,13.96 -27.26,22.864Z" style="fill:#fff;"/><path d="M574.046,69.667c0.048,0.657 0.072,1.319 0.072,1.984c-0,25.797 -36.138,46.74 -80.65,46.74c-44.512,0 -80.65,-20.943 -80.65,-46.74c-0,-0.59 0.019,-1.179 0.057,-1.766c0.202,1.253 0.513,2.491 0.93,3.7c2.891,8.278 8.653,16.217 16.694,22.402c14.853,11.426 37.547,18.813 62.988,18.813c25.441,0 48.136,-7.387 62.989,-18.813c7.819,-6.015 13.484,-13.689 16.4,-21.736c0.548,-1.492 0.939,-3.028 1.17,-4.584Z" style="fill:#fff;"/><path d="M425.859,33.848c-0.765,1.128 -1.503,2.277 -2.214,3.446c-12.579,9.926 -20.122,22.583 -20.122,36.362c-0,31.851 40.311,57.71 89.964,57.71c49.653,0 89.965,-25.859 89.965,-57.71c-0,-13.769 -7.533,-26.418 -20.095,-36.341c-0.711,-1.17 -1.451,-2.32 -2.219,-3.451c15.395,10.639 24.818,24.908 24.818,40.583c0,32.869 -41.434,59.555 -92.469,59.555c-51.035,-0 -92.469,-26.686 -92.469,-59.555c0,-15.684 9.434,-29.961 24.841,-40.599Z" style="fill:#fff;"/></g><g><path d="M349.199,228.36c2.239,4.61 6.454,6.718 13.699,6.718c15.675,-0 27.267,-10.933 27.267,-25.686c-0,-9.089 -5.401,-17.256 -13.173,-19.891c-1.58,-0.526 -1.844,-0.79 -1.844,-1.317c0,-0.527 0.264,-0.79 1.449,-1.449c5.928,-3.425 9.879,-10.274 9.879,-17.387c0,-8.035 -4.083,-15.412 -10.537,-18.968c-4.611,-2.635 -9.221,-3.557 -16.466,-3.557l-19.495,0c-5.532,0 -8.299,1.054 -10.801,3.952c-1.976,2.503 -2.503,4.347 -2.503,9.879l-0,60.593c-0,4.215 0.395,6.323 1.844,8.694c1.844,3.293 5.532,5.268 9.616,5.268c5.005,0 8.957,-2.502 11.065,-6.849Zm0.658,-43.996l0,-12.513c0,-3.294 0.527,-3.952 3.162,-3.952l2.371,-0c4.873,-0 7.771,2.107 7.771,5.664c0,3.161 -1.317,4.215 -6.454,5.928c-3.952,1.317 -5.532,2.502 -6.85,4.873Zm0,33.59l0,-23.71c1.054,2.766 2.898,3.82 8.167,5.137c3.425,0.79 4.61,1.317 5.664,2.239c1.186,1.054 2.108,3.161 2.108,5.006c-0,3.951 -2.371,6.191 -7.904,7.113c-4.742,0.922 -6.059,1.58 -8.035,4.215Zm3.162,-51.504c-3.425,-0 -4.611,1.317 -4.611,5.401l0,49.396c0,4.478 -0.658,6.981 -2.239,9.089c-1.581,1.976 -4.874,3.425 -8.035,3.425c-3.557,-0 -6.718,-1.713 -8.43,-4.611c-1.186,-1.976 -1.581,-3.951 -1.581,-7.903l-0,-60.593c-0,-5.137 0.395,-6.718 2.239,-8.957c2.108,-2.635 4.479,-3.425 9.616,-3.425l19.495,0c6.981,0 11.328,0.922 15.675,3.293c6.059,3.293 9.879,10.275 9.879,17.783c0,6.586 -3.424,12.645 -9.088,16.07c-1.845,1.054 -2.24,1.712 -2.24,2.766c0,1.317 0.527,1.844 2.898,2.635c7.245,2.634 12.119,10.142 12.119,18.573c-0,13.962 -10.933,24.237 -25.818,24.237c-8.43,-0 -13.436,-3.688 -13.436,-9.879c0,-2.898 1.449,-5.665 3.688,-6.982c1.186,-0.79 2.108,-1.054 5.006,-1.58c6.191,-1.054 9.089,-3.82 9.089,-8.562c-0,-2.24 -1.054,-4.743 -2.503,-6.06c-1.317,-1.185 -2.503,-1.712 -6.323,-2.634c-3.029,-0.659 -4.347,-1.186 -5.4,-1.976c-1.713,-1.186 -3.03,-3.952 -3.03,-6.586c0,-4.347 1.976,-6.586 7.113,-8.431c3.293,-1.185 3.952,-1.317 4.742,-1.975c1.844,-1.318 2.766,-3.162 2.766,-5.401c0,-4.347 -3.556,-7.113 -9.22,-7.113l-2.371,-0Zm-16.466,-5.928c0,-2.634 1.449,-3.688 5.137,-3.688l16.729,0c8.826,0 16.993,7.377 16.993,15.148l-0,1.581c-0,0.263 0.263,0.659 0.395,0.659c0.263,-0 0.527,-0.396 0.527,-1.054l0.131,-1.713c0,-0.131 -0.263,-1.053 -0.395,-1.712c-0.527,-2.634 -1.317,-4.479 -2.371,-5.928c-3.425,-4.742 -9.352,-7.903 -14.885,-7.903l-20.944,0c-1.053,0 -1.975,-0.527 -1.975,-1.054l-0,-0.922c-0,-0.395 -0.527,-0.79 -1.054,-0.79c-0.922,-0 -1.581,0.658 -1.581,1.581c0,0.395 0.132,0.79 0.264,0.922l1.185,1.185c0.132,0.132 0.132,0.264 0.132,0.395c-0,0.527 -0.395,0.922 -0.791,0.922c-1.185,0 -2.107,-1.317 -2.107,-2.766c-0,-2.634 2.107,-4.215 5.927,-4.215l20.813,-0c6.981,-0 10.142,0.659 14.226,3.03c0.263,0.263 0.395,0.263 0.527,0.263c0.263,0 0.395,-0.132 0.395,-0.395c-0,-0.395 -2.108,-1.713 -4.479,-2.503c-2.634,-0.922 -5.532,-1.317 -9.879,-1.317l-22.129,-0c-5.006,-0 -7.245,2.766 -7.245,8.562l-0,63.227c-0,5.796 3.029,9.484 7.903,9.484c4.742,0 8.43,-3.425 8.43,-8.035l0,-23.051c0,-1.449 0,-1.449 -0.526,-1.449c-0.132,-0 -0.396,0.131 -0.396,0.263l-0.658,1.976c-0.264,0.527 -0.791,0.79 -1.317,0.79c-0.791,0 -1.449,-0.79 -1.449,-2.239c-0,-1.317 0.263,-3.425 0.658,-5.401c1.186,-5.269 1.581,-7.376 1.581,-8.562c-0,-2.107 -0.922,-3.688 -2.239,-3.688c-0.922,-0 -1.713,0.659 -2.108,1.581c-0.395,0.922 -0.659,1.58 -0.922,1.58c-0,0 -0.132,-0.263 -0.132,-0.527l0,-19.363c0,-0.527 0.527,-1.054 1.186,-1.054c0.131,0 0.395,0 0.527,0.132l0.922,0.659c0.263,0.131 0.658,0.263 0.922,0.263c0.527,0 0.922,-0.263 0.922,-0.659c-0,-0.131 -0.132,-0.263 -0.132,-0.395l-0.658,-0.658c-0.264,-0.132 -0.264,-0.264 -0.396,-0.527l-0.395,-1.186c-0.263,-0.79 -0.922,-1.317 -1.581,-1.317l-1.053,0.132c-0.132,-0 -0.132,-0.132 -0.132,-0.395c-0,-0.527 0.527,-1.054 1.317,-1.054c1.054,-0 1.976,0.658 2.371,1.581l1.186,2.371c0.131,0.526 0.527,0.79 0.922,1.185c0.922,0.659 1.054,0.79 1.054,1.054l-0,0.132l-0.396,1.449c0,0.131 -0.131,1.053 -0.131,1.712l-0,25.027c-0,0.264 0.263,0.527 0.527,0.527c0.263,0 0.526,-0.395 0.526,-0.79l0,-26.081c0,-1.713 1.186,-2.898 3.162,-2.898l6.981,-0c6.323,-0 10.143,3.556 10.143,9.22c-0,3.689 -2.108,6.323 -6.191,8.036l-4.084,1.58c-2.634,1.054 -4.346,3.425 -4.346,6.059c-0,2.767 1.975,5.138 4.873,6.06l5.533,1.449c3.82,1.185 6.586,5.005 6.586,9.352c-0,3.161 -1.712,6.718 -3.952,8.167l-1.976,1.185c-0.263,0.264 -0.395,0.527 -0.395,0.659c0,0.395 0.264,0.659 0.659,0.659c0.658,-0 1.976,-0.791 2.898,-1.581l1.976,-1.844c0.79,-0.659 1.58,-1.054 2.371,-1.054c0.922,0 1.712,0.922 1.712,1.844c-0,1.054 -0.79,2.371 -1.844,3.293c-1.186,0.922 -1.581,1.318 -1.581,1.713c0,0.131 0.264,0.395 0.395,0.395c0.659,-0 2.503,-1.713 3.689,-3.161c2.371,-3.294 3.556,-6.718 3.556,-10.011c0,-5.138 -3.425,-10.011 -8.825,-12.778l-2.898,-1.449c-1.054,-0.526 -1.844,-1.58 -1.844,-2.502c-0,-0.527 0.527,-1.449 1.053,-1.713l3.689,-2.371c0.922,-0.658 2.107,-1.712 3.029,-3.029c1.186,-1.449 1.844,-2.503 1.844,-3.03c0,-0.132 -0.263,-0.263 -0.395,-0.263c-0.263,-0 -0.527,0.131 -0.658,0.395l-1.581,2.239c-1.317,1.976 -4.742,4.347 -6.586,4.479l-1.449,0.263c-0.395,0 -1.054,0.263 -1.317,0.527l-1.054,1.185c-0.791,0.659 -1.581,1.054 -2.503,1.054c-1.185,0 -2.107,-0.922 -2.107,-2.107c-0,-0.659 0.395,-1.318 0.922,-1.318c0.263,0 0.526,0.132 0.526,0.396l0.264,1.053c-0,0.264 0.395,0.527 0.79,0.527c0.659,0 1.186,-0.527 1.186,-1.054c-0,-0.131 -0,-0.263 -0.132,-0.395l-1.054,-0.527c-0.131,-0.131 -0.395,-0.526 -0.395,-0.79c0,-0.527 0.527,-1.185 1.317,-1.449l4.215,-1.581c3.689,-1.449 6.455,-5.664 6.455,-10.011l-0,-0.658l-0.264,-2.503l0,-0.132c0,-0.79 0.659,-1.449 1.186,-1.449c0.263,0 0.527,0.132 0.659,0.264l1.053,0.922c0.264,0.132 0.659,0.395 0.922,0.395c0.527,0 0.923,-0.395 0.923,-0.922c-0,-1.844 -3.294,-5.664 -6.455,-7.64c-2.239,-1.449 -5.664,-2.503 -8.43,-2.503l-18.705,0c-1.054,0 -2.239,1.186 -2.239,1.976l-0,58.09c-0,4.215 -1.186,6.718 -3.162,6.718c-2.239,0 -3.556,-3.161 -3.556,-8.298c-0,-4.874 0.922,-8.036 2.634,-8.036c0.922,0 1.581,1.054 1.581,2.24c0,0.395 -0.132,0.922 -0.395,0.922l-0.922,-0c-0.659,-0.132 -1.186,1.449 -1.186,3.161c0,1.976 0.791,3.425 1.976,3.425c1.449,-0 1.844,-1.844 1.844,-8.299l0,-49.528Zm28.584,29.638c-0.132,0.79 1.317,1.844 2.898,2.108l3.82,0.79c2.635,0.527 6.323,1.976 7.64,3.161l2.371,1.976c0.132,0.132 0.264,0.132 0.264,0.132c0.263,-0 0.395,-0.132 0.395,-0.263c-0,-0.132 -0,-0.264 -0.132,-0.527c-0.922,-1.186 -3.557,-3.162 -5.796,-4.216c-4.874,-2.371 -4.61,-2.239 -5.401,-3.029c-0.526,-0.527 -0.79,-1.186 -0.79,-1.844c0,-0.791 0.395,-1.581 1.054,-2.108l3.952,-2.634c4.742,-3.425 7.508,-8.562 7.508,-14.226c-0,-3.689 -1.449,-8.036 -3.293,-10.143c-0.264,-0.395 -0.527,-0.659 -0.527,-0.659c-0.264,-0.395 -0.527,-0.527 -0.659,-0.527c-0.131,0 -0.263,0.132 -0.263,0.264c-0,0.131 -0,0.395 0.132,0.527l1.317,1.844c1.317,1.976 2.239,5.4 2.239,8.43c0,3.293 -0.527,5.664 -1.712,7.903c-0.791,1.449 -1.581,2.24 -2.108,2.24l-0.263,-0l-1.054,-0.922l-0.395,-0c-0.659,-0 -1.581,0.527 -1.976,1.185l-2.108,3.293c-0.263,0.395 -0.527,0.791 -1.185,1.318l-0.922,1.053l-3.689,2.635c-0.922,0.658 -1.185,1.317 -1.317,2.239Zm-13.04,33.458l-0,0.922l0.131,0.79c0.132,3.557 5.006,6.455 10.802,6.455c6.454,-0 12.909,-2.371 16.86,-6.191c4.084,-4.084 6.85,-10.538 6.85,-15.939c-0,-1.054 -0,-1.976 -0.132,-2.503l-0.263,-1.317c-0.132,-1.054 -0.395,-1.449 -0.791,-1.449c-0.131,0 -0.395,0.264 -0.395,0.395c0,0 0.132,0.791 0.395,1.845l0,0.395l0.132,0.527c0,0.526 0.132,1.185 0.132,1.844c-0,4.61 -2.24,8.298 -5.137,8.298c-0.659,0 -1.054,-0.527 -1.054,-1.449l-0,-0.527l0.79,-4.873l0,-0.791c0,-0.527 0.132,-1.185 0.132,-1.317c-0,-1.976 -0.79,-3.688 -1.713,-3.688c-0.395,-0 -0.79,0.395 -0.922,0.922l-0.131,2.371c-0.922,8.035 -7.64,14.49 -15.28,14.49c-2.371,-0 -4.742,-0.923 -5.006,-1.976l-0.263,-1.976c-0.132,-0.395 -0.527,-0.791 -1.186,-0.791c-2.107,0 -3.688,2.24 -3.951,5.533Zm-6.587,-9.616c0,2.898 -0.395,4.083 -1.712,5.532l-1.581,1.581c-0.922,0.922 -1.58,2.239 -1.58,3.293c-0,1.054 0.527,1.581 1.449,1.581l1.185,-0c0.527,-0 0.922,0.395 0.922,0.922c0,0.922 -0.79,1.712 -1.844,1.712c-1.054,0 -1.976,-0.658 -2.634,-1.844c-0.659,-1.317 -0.791,-2.503 -0.791,-7.508l0,-28.452c0,-2.108 0.922,-3.689 2.108,-3.689c0.922,0 1.317,0.923 1.317,2.371c0,1.976 -0.132,3.03 -0.395,4.347l-1.317,6.982c-0,0.131 -0.132,0.527 -0.132,1.053c-0.132,2.24 0.79,3.952 1.976,3.952c0.527,0 1.185,-0.263 1.58,-0.79l0.923,-1.581l0.263,0c0.132,0 0.263,0.132 0.132,0.527l0.131,0.659l0,9.352Zm0,8.035c-0.131,1.317 -0.658,1.976 -1.58,1.976c-0.659,0 -1.186,-0.527 -1.186,-1.185c0,-0.527 0.395,-1.318 0.922,-1.845l0.264,-0.263c0.658,-0.659 1.054,-0.922 1.185,-1.054c0.264,0 0.395,0.264 0.395,0.659l0,1.712Zm16.729,3.425c-4.083,-0 -7.113,-1.712 -7.113,-3.82c0,-0.659 0.264,-1.186 0.659,-1.186c0.132,0 0.263,0 0.395,0.132l0.395,1.186c0.395,1.054 3.03,1.976 5.796,1.976c4.874,-0 9.484,-2.24 12.777,-6.323c1.186,-1.581 2.371,-3.82 2.635,-5.006c0.263,-1.053 0.527,-1.58 0.79,-1.58c0.395,-0 0.659,0.395 0.659,0.79c-0,0.263 -0.132,0.659 -0.264,1.054l-0.395,1.185c-0.395,1.318 -1.712,3.425 -3.161,5.138c-3.293,4.083 -8.167,6.454 -13.173,6.454Zm11.987,-1.844c0,-0.922 0.264,-1.844 0.79,-2.766c0.396,-0.791 0.791,-1.186 1.054,-1.186c0.264,0 0.395,0.132 0.395,0.395l0,0.791c0,1.053 0.791,1.976 1.845,1.976c0.526,-0 0.922,-0.264 1.317,-0.527c0.658,-0.527 1.185,-0.922 1.449,-0.922c0.131,-0 0.263,0.263 0.263,0.395c0,0.527 -0.79,1.449 -1.844,2.371c-1.185,1.054 -2.239,1.449 -3.425,1.449c-1.185,-0 -1.844,-0.659 -1.844,-1.976Z" style="fill:#fff;fill-rule:nonzero;"/><path d="M452.206,223.223c2.503,6.454 2.898,7.113 4.742,8.957c2.108,1.844 4.742,2.898 7.64,2.898c6.587,-0 11.855,-5.137 11.855,-11.724c0,-2.107 0,-2.107 -2.239,-7.244l-25.949,-60.725c-2.635,-6.323 -5.928,-8.825 -11.592,-8.825c-5.532,-0 -8.562,2.502 -11.592,9.747l-26.608,62.042c-1.449,3.293 -1.844,4.742 -1.844,6.191c0,5.796 4.874,10.538 10.67,10.538c4.347,-0 7.903,-2.503 9.616,-6.982l0.922,-2.239c0.922,-2.107 1.317,-2.371 4.215,-2.371l13.172,0c4.742,0 6.323,-0.395 8.562,-2.371c2.371,-1.844 3.82,-5.005 3.82,-7.903c0,-3.557 -1.844,-7.245 -4.61,-8.957c-2.24,-1.318 -4.084,-1.713 -8.694,-1.713l-3.688,0c-1.449,0 -2.371,-0.527 -2.371,-1.317c-0,-0.264 0.263,-0.922 0.658,-1.976l6.06,-14.621c0.395,-0.922 0.79,-1.318 1.317,-1.318c0.395,0 0.658,0.264 1.054,1.318l14.884,38.595Zm20.681,-6.586c2.108,4.873 2.108,4.873 2.108,6.717c-0,5.796 -4.611,10.275 -10.407,10.275c-2.502,-0 -4.873,-0.922 -6.586,-2.503c-1.712,-1.581 -1.976,-2.239 -4.478,-8.43l-14.885,-38.595c-0.527,-1.581 -1.317,-2.239 -2.371,-2.239c-1.317,-0 -1.976,0.658 -2.635,2.239l-6.059,14.621c-0.527,1.186 -0.79,2.108 -0.79,2.635c-0,1.58 1.449,2.634 3.82,2.634l3.688,0c4.083,0 6.059,0.264 7.903,1.581c2.371,1.449 3.952,4.61 3.952,7.64c0,2.502 -1.317,5.137 -3.293,6.849c-1.976,1.713 -3.161,1.976 -7.64,1.976l-13.172,0c-3.557,0 -4.347,0.527 -5.533,3.293l-0.922,2.24c-1.58,3.951 -4.61,6.059 -8.298,6.059c-5.006,-0 -9.221,-4.084 -9.221,-8.957c0,-1.318 0.395,-2.767 1.712,-5.796l26.609,-62.042c2.897,-6.718 5.269,-8.825 10.274,-8.825c5.137,-0 7.772,2.107 10.274,7.903l25.95,60.725Zm-56.773,5.664c0.527,-1.054 1.713,-1.845 3.162,-1.845l18.441,0c3.425,0 6.323,-3.161 6.323,-7.113c-0,-1.975 -0.396,-3.161 -0.923,-3.161c-0.263,0 -0.526,0.132 -0.526,0.395c-0,0.264 -0,0.791 0.131,1.449c0.132,0.264 0.132,0.659 0.132,1.054c0,2.634 -1.712,5.269 -3.293,5.269c-0.264,-0 -0.395,-0.264 -0.395,-0.395c-0,-0 0.131,-0.527 0.395,-1.186c0.132,-0.263 0.132,-0.527 0.132,-0.79c-0,-1.844 -1.054,-2.766 -3.162,-2.766l-21.998,-0c-0.131,-0 -0.526,0.263 -0.526,0.395c-0,0.132 0.131,0.263 0.263,0.395l1.976,4.215c0.263,0.527 0.527,1.054 0.527,1.317c-0,0.264 -0.132,0.264 -0.527,0.659c-0.395,0.132 -0.79,0.79 -1.186,1.449l-2.502,5.532c-0.527,1.054 -1.054,1.581 -1.844,1.581c-1.054,0 -1.976,-0.922 -1.976,-2.108c-0,-0.395 0.131,-1.185 0.263,-1.448l2.239,-5.928c0.396,-1.054 0.922,-1.712 1.581,-1.712c0.264,-0 0.264,0.131 1.054,0.79c0.132,0.132 0.395,0.263 0.527,0.263c0.263,0 0.527,-0.263 0.527,-0.527c-0,-0.131 -0.132,-0.395 -0.264,-0.526l-1.185,-2.371c-0.132,-0.264 -0.264,-0.396 -0.659,-0.396c-0.527,0 -0.79,0.132 -0.922,0.527l-1.317,2.635c-1.054,2.502 -2.766,4.215 -4.215,4.215c-1.318,-0 -2.108,-1.449 -2.108,-3.557c0,-1.975 0.79,-4.742 2.371,-8.166c1.712,-3.82 3.557,-5.928 5.137,-5.928c0.659,-0 1.054,0.79 1.054,1.712c0,1.581 -0.659,3.293 -1.317,3.293c-0,0 -0.132,0 -0.132,-0.131l-0.527,-0.395c-0.131,-0.264 -0.395,-0.264 -0.527,-0.264c-0.527,0 -1.317,0.659 -1.976,1.713c-0.922,1.712 -1.448,3.424 -1.448,5.005c-0,1.186 0.395,1.844 1.185,1.844c1.317,0 2.371,-1.581 4.215,-6.191c0.132,-0.263 0.264,-0.658 0.395,-0.922l18.969,-45.84c0.922,-2.239 1.58,-3.293 2.634,-3.688l0.79,-0.395c0.395,-0.264 0.659,-0.527 0.659,-0.79c-0,-0.396 -0.395,-0.791 -0.79,-1.054l-1.186,-0.659c-1.054,-0.527 -1.844,-1.976 -1.844,-3.556c-0,-1.054 0.395,-1.976 0.922,-1.976c0.263,-0 0.395,0.131 0.395,0.395l0,0.659c0,1.053 0.527,1.712 1.317,1.712c0.527,-0 0.922,-0.263 0.922,-0.659l0,-0.395l-0.526,-0.922c-0.132,-0.263 -0.132,-0.395 -0.132,-0.659c-0,-0.922 0.922,-1.58 2.503,-1.58c1.449,-0 3.161,0.658 4.346,1.712l1.054,0.922c0,0.132 0.264,0.132 0.395,0.132c0.264,0 0.396,-0.132 0.396,-0.395c-0,-0.264 -0.396,-0.791 -1.054,-1.317c-1.317,-1.318 -3.425,-2.108 -5.533,-2.108c-3.951,0 -6.322,1.844 -8.43,6.85c-0.922,2.239 -1.844,4.478 -2.898,6.718l-24.5,57.167c-0.922,2.372 -1.318,3.425 -1.318,4.479c0,3.688 3.557,6.981 7.377,6.981c3.03,0 5.137,-1.449 6.454,-4.346l2.503,-5.269Zm12.382,-16.466c-0.527,0 -1.185,-0.132 -1.449,-0.132l-0.79,-0.526l-0.264,-0c-0.263,-0 -0.526,0.263 -0.526,0.526c-0,0.659 1.317,1.318 2.897,1.318l7.772,-0c1.054,-0 1.844,-0 2.239,0.131l1.845,0.659l0.263,0c0.132,0 0.395,-0.132 0.395,-0.527c0,-0.79 -1.581,-1.449 -3.425,-1.449l-8.957,0Zm-10.538,2.371c-0.131,0 -0.263,0.132 -0.263,0.132l-0.922,1.581c-0.132,0.395 -0.527,0.658 -0.922,0.658c-0.264,0 -0.527,-0.131 -0.527,-0.395c-0,-0.132 -0,-0.263 0.132,-0.395l17.782,-43.337c0.132,-0.264 0.264,-0.527 0.527,-0.79c0.79,-0.791 1.054,-1.054 1.054,-1.186l-0,-0.922c-0,-0.132 0.132,-0.395 0.263,-0.527c0.132,-0.132 0.395,-0.395 0.659,-0.395c0.79,-0 1.185,1.185 1.185,4.083c0,1.581 0,2.635 0.132,3.03l0.659,3.293c-0,0.659 0.132,1.317 0.132,1.976c-0,1.844 -0.791,3.161 -1.713,3.161c-0.659,0 -1.054,-0.395 -1.054,-0.922c0,-0.395 0.132,-0.658 0.527,-0.658l0.395,-0.132c0.264,-0 0.527,-0.395 0.527,-0.79l0,-0.264l-0.527,-2.107c-0.131,-0.264 -0.131,-0.527 -0.131,-0.923l-0.132,-3.029c-0,-0.791 -0.264,-1.449 -0.527,-1.449c-0.263,-0 -0.659,0.658 -0.659,1.449l-0.263,4.347c-0.132,1.317 -0.395,2.766 -0.922,3.951l-8.562,20.418c-0.659,1.712 -1.054,2.897 -1.054,3.556c-0.132,0.659 -0.132,1.054 -0.263,1.186c-0.396,1.053 -0.659,1.844 -0.659,1.844l0.263,0.263c0,0.132 0.132,0.132 0.264,0.132c0.263,-0 0.659,-0.264 1.185,-0.922c0.396,-0.395 0.527,-0.527 0.527,-1.054l-0.131,-2.108c-0,0 0.131,-0.395 0.263,-0.79l5.928,-14.489c2.107,-5.401 2.766,-6.323 5.137,-6.323c1.844,-0 2.898,0.79 3.688,2.766l8.035,20.022l0.395,-0.132l-0.131,-0.263l-0,-0.395c-0,-2.24 0.527,-3.689 1.317,-3.689l0.263,0l0.922,0.264c0,-0 0.132,-0.132 0.264,-0.132c0.263,-0.263 0.395,-0.527 0.395,-0.79c0,-1.054 -0.263,-1.976 -0.659,-3.03l-12.645,-30.691c-0.527,-1.186 -1.186,-1.845 -2.108,-1.845c-1.449,0 -2.371,1.054 -3.688,4.479l-18.309,43.996c-0.132,0.395 -0.132,0.658 -0.132,0.922c-0,0.79 0.395,1.185 1.054,1.185c1.185,0 2.766,-0.922 4.61,-2.634c0.263,-0.264 0.395,-0.527 0.527,-0.527c0.658,-0.527 0.922,-0.922 0.922,-1.186c-0,-0.131 -0.132,-0.395 -0.395,-0.395c-0,0 -0.264,0.132 -0.527,0.132l-2.108,0.79Zm14.885,2.898c-0.527,0 -0.922,0.264 -0.922,0.527c-0,0.395 0.263,0.527 0.79,0.527l3.952,-0c1.054,-0 1.976,0.263 2.371,0.527l1.317,1.054c0,0.131 0.132,0.131 0.132,0.131c0.132,0 0.263,0.132 0.263,0.132c0.527,0 0.922,-0.659 0.922,-1.317c0,-1.713 -1.448,-3.293 -2.766,-3.293c-0.527,-0 -0.79,0.131 -1.449,1.185c-0.395,0.527 -0.658,0.527 -1.185,0.527l-3.425,0Zm6.981,-50.186c-0.263,-0.791 -1.185,-1.581 -1.844,-1.581c-0.263,-0 -0.527,0.263 -0.527,0.658c0,0.264 -0.131,0.132 1.054,1.054c0.395,0.264 0.659,0.791 1.186,2.371c-0,0.132 0.131,0.527 0.395,1.054l11.855,29.111c0.79,2.107 1.185,3.425 1.185,4.874c0,1.185 -0.658,2.239 -1.449,2.239l-0.263,-0c-0.527,-0.132 -1.054,-0.263 -1.054,-0.263c-0.527,-0 -1.054,1.185 -1.054,2.502c0,2.24 0.659,4.742 3.03,10.67l5.664,14.358c0.922,2.239 3.557,3.82 6.718,3.82c4.742,-0 8.43,-3.689 8.43,-8.431c0,-1.053 -0.131,-2.239 -0.658,-3.161l-27.135,-63.754c-0.527,-1.054 -0.527,-1.186 -0.922,-1.186c-0.264,0 -0.395,0.264 -0.395,0.527c-0,0.264 -0,0.527 0.131,0.791l26.213,61.251c1.186,2.503 1.581,4.215 1.581,5.401c-0,1.976 -1.317,3.556 -3.03,3.556c-1.449,0 -2.503,-0.922 -3.293,-2.634l-25.818,-63.227Zm-0.658,-7.64c-0,0.526 0.79,1.053 1.58,1.053c0.264,0 0.527,-0.263 0.527,-0.395c0,-0.527 -0.79,-1.185 -1.58,-1.185c-0.396,-0 -0.527,0.263 -0.527,0.527Zm13.172,57.299c-0.659,-1.712 -1.054,-3.293 -1.054,-4.874c0,-1.317 0.527,-2.239 1.186,-2.371c0.132,0 0.132,0 0.79,0.527c0.132,0.264 0.395,0.264 0.659,0.264c0.263,-0 0.658,-0.132 0.658,-0.527l0.264,-0.527c0.132,-0.263 0.263,-0.527 0.395,-0.527c0.263,0 0.659,0.659 0.922,1.449l8.299,20.417c0.131,0.395 0.395,0.659 0.527,0.922c0.395,0.527 0.526,0.791 0.526,0.922c0,0.264 -0.263,0.527 -0.526,0.527c-0.659,0 -1.318,-0.79 -1.845,-2.107l-6.059,-15.017c-0.658,-1.449 -1.317,-2.239 -1.976,-2.239c-0.527,-0 -0.922,0.395 -0.922,1.185c0,0.527 0.264,1.318 0.395,2.108c1.054,3.425 1.186,4.083 1.186,4.479c-0,0.395 -0.264,0.658 -0.527,0.658c-0.395,0 -1.054,-0.527 -1.317,-1.317l-1.581,-3.952Z" style="fill:#fff;fill-rule:nonzero;"/><path d="M485.928,220.325c-0,5.005 0.526,7.64 1.712,9.747c2.239,3.425 5.269,4.874 10.538,4.874l27.53,0c3.82,0 6.323,-0.527 8.167,-1.712c2.766,-1.713 4.742,-5.401 4.742,-8.826c-0,-3.82 -1.976,-7.245 -5.269,-8.957c-1.976,-1.186 -3.425,-1.449 -7.508,-1.449l-13.304,0c-2.767,0 -3.293,-0.527 -3.293,-4.347l-0,-47.815c-0,-5.269 -0,-5.928 -1.054,-8.167c-1.844,-3.952 -6.059,-6.586 -10.538,-6.586c-4.215,-0 -8.299,2.371 -10.143,5.795c-1.317,2.371 -1.58,3.689 -1.58,9.616l-0,57.827Zm12.25,13.172c-4.479,0 -6.718,-0.922 -8.694,-3.556c-1.581,-1.976 -2.107,-4.347 -2.107,-9.616l-0,-57.827c-0,-5.532 0.131,-6.586 1.317,-8.825c1.58,-3.03 5.269,-5.137 8.957,-5.137c3.952,-0 7.64,2.371 9.221,5.795c0.922,1.976 0.922,2.371 0.922,7.509l-0,47.815c-0,4.61 1.053,5.796 4.742,5.796l13.304,-0c3.82,-0 5.005,0.263 6.849,1.186c2.767,1.58 4.479,4.478 4.479,7.639c-0,3.03 -1.712,6.191 -4.083,7.772c-1.713,0.922 -3.82,1.449 -7.377,1.449l-27.53,0Zm-8.694,-14.489c0,3.688 0.132,6.717 0.395,7.903c0.659,2.503 3.162,4.347 6.06,4.479l32.93,-0c3.293,-0 6.455,-3.425 6.455,-6.982c-0,-1.58 -0.527,-3.293 -1.449,-4.478c-0.659,-0.791 -1.317,-1.318 -1.713,-1.318c-0.131,0 -0.263,0.264 -0.263,0.396c0,0.263 0.132,0.526 0.659,0.922c1.053,0.79 1.844,2.634 1.844,4.083c-0,1.317 -0.395,2.898 -1.186,3.952c-0.395,0.527 -0.79,0.922 -1.054,0.922c-0.263,-0 -0.395,-0.264 -0.395,-0.527c0,-0.132 0.132,-0.264 0.527,-1.054c0.132,-0.395 0.264,-0.79 0.264,-1.317c-0,-1.976 -1.581,-3.03 -4.479,-3.03l-2.108,0c-0.526,0 -0.658,0.132 -0.658,0.395c-0,0.264 0.395,0.396 1.185,0.396l2.635,-0c0.79,-0 1.185,0.263 1.185,0.658c0,0.659 -0.263,0.659 -2.371,0.659l-26.081,-0c-1.054,-0 -1.712,-0.264 -1.712,-0.791c-0,-0.263 0.263,-0.526 0.527,-0.526l1.053,-0.264c0.132,0 0.132,-0.132 0.132,-0.263c0,-0.264 -0.132,-0.395 -0.527,-0.527l-1.449,-0.132c-1.054,-0.132 -1.844,-1.581 -1.844,-3.556l0,-58.486c0,-0.395 -0.132,-0.79 -0.395,-0.922l-2.635,-1.317c-1.185,-0.659 -1.975,-1.976 -1.975,-3.556c-0,-1.186 0.527,-2.108 1.317,-2.108c0.263,-0 0.395,0.263 0.395,0.527c0,0.132 0,0.527 -0.132,1.317l0,0.395c0,1.054 0.527,1.713 1.318,1.713c0.658,-0 1.185,-0.527 1.185,-1.054c0,-0.132 -0.132,-0.395 -0.263,-0.527l-0.791,-1.186c-0.131,-0.131 -0.263,-0.395 -0.263,-0.526c-0,-1.054 0.922,-1.581 2.371,-1.581c0.922,-0 1.844,0.132 2.503,0.527c1.185,0.79 1.317,0.79 1.449,0.79c0.131,0 0.395,-0.132 0.395,-0.395c-0,-0.132 -0.132,-0.395 -0.395,-0.527c-0.923,-0.79 -2.898,-1.449 -4.479,-1.449c-4.215,0 -8.167,3.557 -8.167,7.377l0,60.988Zm36.619,-0.791c3.688,0 4.084,0 4.084,-0.527l-0.396,-0.395l-18.573,0c-0.526,0 -1.185,-0.132 -1.975,-0.263c-1.713,-0.527 -1.845,-0.527 -2.371,-0.527c-0.791,-0 -1.713,0.395 -1.845,0.79l-0.526,1.054c-0,0.132 -0.396,0.395 -0.659,0.395l-0.264,0c-0.658,-0.132 -1.053,-0.263 -1.185,-0.263c-0.132,-0 -0.263,0.131 -0.395,0.263l-0.659,0.922l-0.922,0.659c0,-0 -0.132,-0 -0.132,0.131l0,0.264c0,0.395 0.396,0.79 1.054,0.79c0.527,0 0.922,-0.131 1.186,-0.263l1.317,-1.186l1.185,-0.527c0.132,-0.131 0.264,-0.263 0.396,-0.395l0.527,-1.054c0.263,-0.263 0.658,-0.395 1.185,-0.395c0.263,0 0.922,0 1.712,0.264c0.527,0.131 1.054,0.263 1.318,0.263l15.938,0Zm-20.285,-60.461c-0,-1.449 -0.922,-3.293 -1.581,-3.293c-0.263,0 -0.395,0.264 -0.395,0.395c-0,0.132 0.132,0.659 0.527,1.449c0.263,0.395 0.527,1.449 0.527,2.371l-0,53.085c-0,2.371 0.131,3.161 0.658,3.161c0.264,0 0.527,-0.263 0.527,-0.395c0,-0.264 -0.131,-0.395 -0.131,-0.659c-0.132,-0.395 -0.132,-0.79 -0.132,-1.053l-0,-55.061Zm24.764,63.227c-0,0.264 0.395,0.659 0.79,0.659c0.132,-0 0.264,-0.132 0.264,-0.395c-0,-0.395 -0.264,-0.659 -0.791,-0.659c-0.131,0 -0.263,0.132 -0.263,0.395Zm-33.458,-59.143l0,51.108l-0.132,5.269c0,3.952 -1.317,6.718 -3.293,6.718c-2.107,0 -3.556,-3.293 -3.556,-7.772c-0,-0.526 -0.132,-0.922 -0,-1.317l-0,-0.922l0.131,-1.712c0.264,-2.24 1.318,-4.084 2.503,-4.084c0.922,0 1.713,0.922 1.713,1.976c-0,0.395 -0.264,0.79 -0.527,0.79l-0.791,0c-0.658,0 -1.317,1.318 -1.317,2.767c0,1.844 0.79,3.293 1.976,3.293c1.054,-0 1.844,-1.317 1.844,-3.425l0,-52.031c0,-1.449 0.132,-1.976 0.527,-2.107c0.659,-0.132 0.922,0.263 0.922,1.449Z" style="fill:#fff;fill-rule:nonzero;"/><path d="M547.311,220.325c-0,5.005 0.527,7.64 1.712,9.747c2.239,3.425 5.269,4.874 10.538,4.874l27.53,0c3.82,0 6.323,-0.527 8.167,-1.712c2.766,-1.713 4.742,-5.401 4.742,-8.826c0,-3.82 -1.976,-7.245 -5.269,-8.957c-1.976,-1.186 -3.425,-1.449 -7.508,-1.449l-13.304,0c-2.766,0 -3.293,-0.527 -3.293,-4.347l-0,-47.815c-0,-5.269 -0,-5.928 -1.054,-8.167c-1.844,-3.952 -6.059,-6.586 -10.538,-6.586c-4.215,-0 -8.299,2.371 -10.143,5.795c-1.317,2.371 -1.58,3.689 -1.58,9.616l-0,57.827Zm12.25,13.172c-4.479,0 -6.718,-0.922 -8.694,-3.556c-1.581,-1.976 -2.107,-4.347 -2.107,-9.616l-0,-57.827c-0,-5.532 0.131,-6.586 1.317,-8.825c1.581,-3.03 5.269,-5.137 8.957,-5.137c3.952,-0 7.64,2.371 9.221,5.795c0.922,1.976 0.922,2.371 0.922,7.509l-0,47.815c-0,4.61 1.054,5.796 4.742,5.796l13.304,-0c3.82,-0 5.005,0.263 6.849,1.186c2.767,1.58 4.479,4.478 4.479,7.639c0,3.03 -1.712,6.191 -4.083,7.772c-1.713,0.922 -3.82,1.449 -7.377,1.449l-27.53,0Zm-8.694,-14.489c0,3.688 0.132,6.717 0.395,7.903c0.659,2.503 3.162,4.347 6.06,4.479l32.93,-0c3.294,-0 6.455,-3.425 6.455,-6.982c-0,-1.58 -0.527,-3.293 -1.449,-4.478c-0.659,-0.791 -1.317,-1.318 -1.712,-1.318c-0.132,0 -0.264,0.264 -0.264,0.396c0,0.263 0.132,0.526 0.659,0.922c1.054,0.79 1.844,2.634 1.844,4.083c-0,1.317 -0.395,2.898 -1.186,3.952c-0.395,0.527 -0.79,0.922 -1.053,0.922c-0.264,-0 -0.396,-0.264 -0.396,-0.527c0,-0.132 0.132,-0.264 0.527,-1.054c0.132,-0.395 0.264,-0.79 0.264,-1.317c-0,-1.976 -1.581,-3.03 -4.479,-3.03l-2.107,0c-0.527,0 -0.659,0.132 -0.659,0.395c-0,0.264 0.395,0.396 1.185,0.396l2.635,-0c0.79,-0 1.185,0.263 1.185,0.658c0,0.659 -0.263,0.659 -2.371,0.659l-26.081,-0c-1.054,-0 -1.712,-0.264 -1.712,-0.791c-0,-0.263 0.263,-0.526 0.527,-0.526l1.053,-0.264c0.132,0 0.132,-0.132 0.132,-0.263c0,-0.264 -0.132,-0.395 -0.527,-0.527l-1.449,-0.132c-1.053,-0.132 -1.844,-1.581 -1.844,-3.556l0,-58.486c0,-0.395 -0.132,-0.79 -0.395,-0.922l-2.634,-1.317c-1.186,-0.659 -1.976,-1.976 -1.976,-3.556c-0,-1.186 0.527,-2.108 1.317,-2.108c0.263,-0 0.395,0.263 0.395,0.527c0,0.132 0,0.527 -0.132,1.317l0,0.395c0,1.054 0.527,1.713 1.318,1.713c0.658,-0 1.185,-0.527 1.185,-1.054c0,-0.132 -0.132,-0.395 -0.263,-0.527l-0.791,-1.186c-0.131,-0.131 -0.263,-0.395 -0.263,-0.526c-0,-1.054 0.922,-1.581 2.371,-1.581c0.922,-0 1.844,0.132 2.503,0.527c1.185,0.79 1.317,0.79 1.449,0.79c0.131,0 0.395,-0.132 0.395,-0.395c-0,-0.132 -0.132,-0.395 -0.395,-0.527c-0.922,-0.79 -2.898,-1.449 -4.479,-1.449c-4.215,0 -8.167,3.557 -8.167,7.377l0,60.988Zm36.619,-0.791c3.689,0 4.084,0 4.084,-0.527l-0.395,-0.395l-18.573,0c-0.527,0 -1.186,-0.132 -1.976,-0.263c-1.713,-0.527 -1.844,-0.527 -2.371,-0.527c-0.791,-0 -1.713,0.395 -1.844,0.79l-0.527,1.054c-0,0.132 -0.396,0.395 -0.659,0.395l-0.263,0c-0.659,-0.132 -1.054,-0.263 -1.186,-0.263c-0.132,-0 -0.263,0.131 -0.395,0.263l-0.659,0.922l-0.922,0.659c0,-0 -0.132,-0 -0.132,0.131l0,0.264c0,0.395 0.396,0.79 1.054,0.79c0.527,0 0.922,-0.131 1.186,-0.263l1.317,-1.186l1.186,-0.527c0.131,-0.131 0.263,-0.263 0.395,-0.395l0.527,-1.054c0.263,-0.263 0.658,-0.395 1.185,-0.395c0.264,0 0.922,0 1.713,0.264c0.526,0.131 1.053,0.263 1.317,0.263l15.938,0Zm-20.285,-60.461c-0,-1.449 -0.922,-3.293 -1.581,-3.293c-0.263,0 -0.395,0.264 -0.395,0.395c0,0.132 0.132,0.659 0.527,1.449c0.263,0.395 0.527,1.449 0.527,2.371l-0,53.085c-0,2.371 0.132,3.161 0.658,3.161c0.264,0 0.527,-0.263 0.527,-0.395c0,-0.264 -0.131,-0.395 -0.131,-0.659c-0.132,-0.395 -0.132,-0.79 -0.132,-1.053l-0,-55.061Zm24.764,63.227c-0,0.264 0.395,0.659 0.79,0.659c0.132,-0 0.264,-0.132 0.264,-0.395c-0,-0.395 -0.264,-0.659 -0.791,-0.659c-0.131,0 -0.263,0.132 -0.263,0.395Zm-33.458,-59.143l0,51.108l-0.132,5.269c0,3.952 -1.317,6.718 -3.293,6.718c-2.107,0 -3.556,-3.293 -3.556,-7.772c-0,-0.526 -0.132,-0.922 -0,-1.317l-0,-0.922l0.132,-1.712c0.263,-2.24 1.317,-4.084 2.502,-4.084c0.922,0 1.713,0.922 1.713,1.976c-0,0.395 -0.264,0.79 -0.527,0.79l-0.791,0c-0.658,0 -1.317,1.318 -1.317,2.767c0,1.844 0.791,3.293 1.976,3.293c1.054,-0 1.844,-1.317 1.844,-3.425l0,-52.031c0,-1.449 0.132,-1.976 0.527,-2.107c0.659,-0.132 0.922,0.263 0.922,1.449Z" style="fill:#fff;fill-rule:nonzero;"/></g><g><path d="M24.369,116.451c-0,3.951 0.527,5.795 1.976,8.035c1.976,3.293 5.664,5.269 9.615,5.269c4.084,-0 7.509,-1.976 9.748,-5.401c1.581,-2.503 1.976,-4.083 1.976,-8.299l-0,-50.713c-0,-2.239 0.658,-2.898 3.161,-2.898l9.748,-0c3.951,-0 5.137,-0.263 7.245,-1.581c3.161,-1.844 5.005,-5.269 5.005,-8.957c0,-6.323 -4.742,-10.669 -11.855,-10.669l-48.343,-0c-4.61,-0 -5.664,0.263 -7.903,1.712c-3.03,1.844 -4.742,5.137 -4.742,8.825c0,3.689 1.844,6.982 4.874,8.958c2.107,1.449 3.425,1.712 7.903,1.712l8.694,-0c2.503,-0 2.898,0.395 2.898,2.503l-0,51.504Zm21.866,-0.396c-0,3.952 -0.395,5.269 -1.844,7.509c-1.844,3.029 -4.874,4.742 -8.431,4.742c-6.322,-0 -10.142,-4.479 -10.142,-11.855l-0,-51.504c-0,-3.03 -1.054,-3.952 -4.347,-3.952l-8.694,0c-4.215,0 -5.269,-0.263 -7.113,-1.449c-2.634,-1.712 -4.215,-4.61 -4.215,-7.772c-0,-3.161 1.449,-5.927 4.083,-7.64c1.976,-1.185 2.767,-1.449 7.113,-1.449l48.343,0c6.323,0 10.406,3.689 10.406,9.221c0,3.293 -1.581,6.059 -4.347,7.772c-1.844,1.054 -2.766,1.317 -6.454,1.317l-9.748,0c-3.293,0 -4.61,1.317 -4.61,4.347l-0,50.713Zm-21.998,-56.904c3.03,-0 3.688,0.79 3.688,5.137l0,52.031c-0.131,5.927 3.293,9.879 8.299,9.879c4.479,0 8.167,-3.688 8.167,-8.167l-0,-55.719c-0,-2.634 0.922,-3.293 4.347,-3.293l10.274,0c5.532,0 6.323,-0.263 8.167,-2.239c1.449,-1.317 2.107,-3.161 2.107,-4.874c0,-1.317 -0.526,-3.161 -1.317,-4.215c-0.263,-0.263 -0.395,-0.395 -0.658,-0.395c-0.132,-0 -0.396,0.263 -0.396,0.527c0,-0 0,0.131 0.132,0.131l0.791,1.845c0.263,0.395 0.263,1.053 0.263,1.712c-0,2.239 -1.186,4.874 -2.371,4.874c-0.132,-0 -0.263,-0.132 -0.395,-0.264l-0,-1.317c-0,-1.054 -1.186,-2.108 -2.635,-2.239l-24.764,-0c-1.712,-0 -2.239,0.527 -2.239,2.239l0,54.665l0.132,3.82c-0,3.688 -1.317,6.323 -3.293,6.323c-2.371,-0 -3.82,-3.293 -3.82,-8.299c-0,-4.478 1.185,-7.64 2.898,-7.64c0.79,0 1.58,0.922 1.58,1.845c0,0.395 -0.131,0.526 -0.395,0.658l-0.79,0.132c-0.659,0.132 -1.317,1.712 -1.317,3.293c-0,1.844 0.922,3.425 1.844,3.425c0.922,-0 1.712,-1.449 1.712,-3.162l0,-55.85c0,-0.791 -0.922,-1.449 -1.844,-1.449l-21.471,-0c-1.185,-0 -2.108,-0.527 -2.108,-1.054c0,-0.264 0.264,-0.395 0.527,-0.395c0.132,-0 0.396,-0 0.659,0.131c0.395,0.132 0.922,0.132 1.844,0.132l20.417,0c0.132,0 0.264,-0.132 0.264,-0.395c-0,-0.395 -0.264,-0.527 -1.844,-0.527l-17.651,0c-1.845,0 -2.503,-0.132 -2.635,-0.658l-0.263,-1.054c-0.132,-0.395 -0.659,-0.659 -1.318,-0.659c-1.053,0 -2.239,1.054 -2.239,2.239l0,0.264l0.527,1.185l0,0.264c0,0.132 -0.132,0.263 -0.263,0.263c-0.791,0 -1.581,-1.317 -1.581,-2.502c-0,-2.371 2.239,-4.084 5.269,-4.084l51.24,0l1.581,0.264l0.395,-0c0.527,-0 0.659,-0.132 0.659,-0.396c-0,-0.658 -0.659,-0.79 -4.347,-0.79l-49.792,0c-3.951,0 -6.981,3.03 -6.981,6.981c0,4.479 3.161,7.245 8.299,7.377l12.645,-0Zm39.912,-10.406c0,0.131 0.132,0.263 0.132,0.263l0.922,0.791l0.79,0.79c0.264,-0 0.396,-0.395 0.396,-0.79c-0,-1.054 -0.659,-1.976 -1.581,-1.976c-0.395,-0 -0.659,0.263 -0.659,0.922Zm-26.344,1.712c-0.527,0 -0.791,0.264 -0.791,0.659c0,0.131 0,0.263 0.132,0.263l7.245,0c0.922,0 1.054,0 1.054,-0.395c-0,-0.263 -0.396,-0.527 -1.449,-0.527l-6.191,0Zm-8.694,8.694c-0.264,-0 -0.527,-0.264 -0.527,-0.659c-0,-0.527 0.395,-1.054 1.054,-1.58l1.317,-0.922c0.263,-0.264 0.395,-0.396 0.527,-0.527l0.527,-1.054c0.132,-0.132 0.132,-0.132 0.263,-0.132c0.395,0 0.791,0.395 0.791,1.054c-0,0.79 -0.396,1.449 -0.791,1.712l-2.107,1.581c-0.527,0.395 -0.922,0.527 -1.054,0.527Zm14.358,48.606c-0,7.772 -0,8.167 -0.527,9.352c-0.264,0.659 -0.791,1.054 -1.317,1.054l-0.396,-0l-1.317,-0.79c0,-0 -0.132,-0.132 -0.263,-0.132c-0.659,-0 -1.186,0.659 -1.186,1.317c0,1.317 1.054,2.239 2.371,2.239c0.132,0 0.264,0.132 0.395,0c0.659,-0.131 1.054,-0.263 1.054,-0.263c0.132,-0 0.264,0.132 0.264,0.263c-0,1.186 -1.581,2.24 -2.898,2.24c-1.844,-0 -2.766,-1.449 -2.766,-4.874l-0,-56.246l0.131,-1.581c0,-1.317 0.395,-1.975 1.186,-1.975c0.263,-0 0.395,0.131 0.527,0.263c0.79,0.922 0.922,1.054 1.449,1.054c0.395,-0 0.79,-0.264 0.79,-0.659c-0,-0.132 -0.132,-0.263 -0.132,-0.395l-0.658,-0.922l-0.396,-1.581c-0.131,-0.395 -0.79,-0.922 -1.317,-0.922l-0.131,0l-1.318,0.264c0,-0 -0.131,-0.132 -0.131,-0.264c-0.132,0 -0.132,-0.132 -0.132,-0.263c-0,-0.659 0.79,-1.186 1.844,-1.186c0.922,0 1.844,0.527 2.239,1.449l1.054,1.976c0,0 0.132,0.263 0.263,0.395c0.396,0.395 0.659,0.659 0.791,0.922c1.054,0.659 1.185,0.791 1.185,1.054c0,0.132 0,0.264 -0.131,0.395l-0.264,0.659c-0.263,0.395 -0.263,1.317 -0.263,3.82l-0,43.337Z" style="fill:#fff;fill-rule:nonzero;"/><path d="M104.852,96.692c5.796,17.783 21.866,32.667 35.302,32.667c6.191,0 10.538,-4.478 10.538,-10.669c-0,-4.874 -2.24,-7.772 -8.299,-10.143c-3.425,-1.449 -6.323,-3.425 -9.352,-6.191c-2.108,-1.976 -4.611,-6.191 -4.611,-7.64c0,-0.658 0.264,-0.922 2.371,-2.239c7.245,-4.347 12.119,-13.699 12.119,-22.525c-0,-16.333 -12.25,-28.584 -28.716,-28.584l-18.968,0c-4.347,0 -6.191,0.395 -8.562,1.976c-3.557,2.239 -5.006,5.664 -5.006,11.592l0,59.539c0,4.61 0.264,6.322 1.186,8.298c1.712,3.82 6.059,6.455 10.406,6.455c4.084,-0 7.904,-2.108 9.879,-5.664c1.449,-2.24 1.713,-3.689 1.713,-8.299l-0,-18.573Zm-0,-15.016l-0,-17.124c-0,-1.713 0.658,-2.24 2.371,-2.24l3.952,0c5.4,0 8.693,2.898 8.693,7.772c0,4.347 -2.107,6.454 -7.903,7.376c-3.952,0.659 -6.059,1.845 -7.113,4.216Zm2.371,-20.813c-2.503,0 -3.82,1.186 -3.82,3.689l-0,50.713c-0,4.347 -0.264,5.532 -1.449,7.64c-1.844,3.03 -5.137,5.006 -8.826,5.006c-3.951,-0 -7.771,-2.372 -9.22,-5.796c-0.791,-1.713 -1.054,-3.293 -1.054,-7.64l0,-59.539c0,-5.401 0.79,-7.64 3.557,-9.88c2.239,-1.844 4.083,-2.239 8.562,-2.239l19.231,0c15.544,0 27.267,11.592 27.267,27.135c-0,8.431 -4.61,16.993 -11.46,21.339c-2.634,1.713 -3.03,2.108 -3.03,3.293c0,1.976 2.503,6.323 5.006,8.826c3.029,2.898 6.323,5.005 9.879,6.454c5.401,2.108 7.377,4.479 7.377,8.694c-0,5.533 -3.689,9.353 -9.089,9.353c-15.807,-0 -35.302,-22.525 -35.302,-40.571c-0,-5.138 2.107,-7.509 7.376,-8.431c6.455,-1.185 9.089,-3.688 9.089,-8.825c0,-5.664 -3.82,-9.221 -10.142,-9.221l-3.952,0Zm-5.928,34.512c0,-0.264 -0.131,-0.395 -0.395,-0.395c-0.132,-0 -0.263,-0 -0.263,0.131l-0.659,2.371c-0.263,0.659 -0.79,1.186 -1.449,1.186c-0.922,-0 -1.581,-0.922 -1.581,-1.976c0,-0.79 0.132,-1.844 0.396,-3.161l0.263,-1.844l0.922,-3.952c0.395,-1.713 0.527,-2.766 0.527,-4.479c-0,-2.634 -0.79,-4.083 -2.108,-4.083c-0.658,-0 -1.449,0.263 -1.844,0.922l-0.658,0.79c-0,0.132 -0.132,0.264 -0.264,0.264c-0.263,-0 -0.263,-0.264 -0.263,-1.449l-0,-18.442c-0,-1.448 0.658,-2.502 1.58,-2.502c0.132,-0 0.396,0.131 0.396,0.131l1.053,0.659c0.264,0.264 0.527,0.264 0.791,0.264c0.527,-0 0.79,-0.132 0.79,-0.527c0,-0.132 -0.132,-0.264 -0.659,-0.922c-0.263,-0.264 -0.395,-0.396 -0.395,-0.527l-0.658,-1.844c-0.132,-0.527 -0.659,-0.923 -0.922,-0.923l-0.132,0l-1.054,0.264l-0.132,-0c-0.263,-0 -0.395,-0.132 -0.395,-0.395c0,-0.791 0.791,-1.449 1.713,-1.449c0.79,-0 1.58,0.527 1.844,1.185l0.79,2.108c0.264,0.79 0.922,1.581 1.317,1.844l1.318,0.659c0.131,-0 0.131,0.131 0.131,0.131l0,0.132l-0.527,0.79c-0.131,0.396 -0.263,1.186 -0.263,1.976l-0,27.267l-0.132,0.527c0,0.395 0.264,0.79 0.527,0.79c0.395,0 0.527,-0.263 0.527,-0.658l0,-27.531c0,-2.634 1.186,-3.82 3.82,-3.82l6.586,0c6.455,0 11.46,4.742 11.46,11.197c0,4.083 -2.503,7.772 -6.454,9.352c-1.054,0.395 -0.527,0.264 -5.928,1.581c-1.449,0.263 -2.107,0.79 -2.107,1.712c-0,0.264 0.131,0.527 0.263,0.659l1.712,0.922c0,0 0.132,0.264 0.132,0.395l0,0.132l-0.659,0.922c0,0 -0.131,0.132 -0.131,0.263c-0,0.791 0.527,1.318 1.449,1.318c0.922,-0 1.844,-0.791 1.844,-1.844c-0,-0.527 -0.395,-1.318 -0.791,-1.449l-1.053,-0.791c-0.264,-0.131 -0.395,-0.395 -0.395,-0.658c-0,-0.527 0.526,-0.922 1.844,-1.186l2.239,-0.527l1.054,0c0.79,0 1.58,0.527 1.58,1.186c0,0.263 -0.131,0.527 -0.395,0.79c-0.527,0.659 -0.922,1.186 -0.922,1.317c0,0.132 0.395,0.396 0.659,0.396c0.132,-0 0.263,-0 0.395,-0.132l1.449,-0.395l0.395,-0c0.264,-0 0.527,0.131 0.527,0.395c0,0.395 -0.395,0.658 -1.317,1.054c-0.922,0.395 -1.976,0.658 -2.24,0.658l-1.844,-0.263c0,-0 -0.131,0.131 -0.131,0.263c-0.132,0.132 -0.132,0.264 -0.132,0.395c-0,0.396 0.395,0.791 0.79,0.791c2.108,-0 6.191,-1.844 8.826,-3.952c3.82,-3.161 6.191,-8.167 6.191,-13.436c-0,-9.879 -6.323,-17.387 -14.885,-17.387l-20.022,-0c-1.581,-0 -2.503,1.449 -2.503,3.82l0,55.982c0,3.293 -1.712,6.981 -3.293,6.981c-2.239,0 -3.688,-3.293 -3.688,-8.035c-0,-4.873 1.054,-7.903 2.766,-7.903c0.79,-0 1.713,0.922 1.713,1.844c-0,0.264 -0,0.395 -0.132,0.395l-0.132,0.132l-0.79,-0.132c-0.922,-0.131 -1.581,1.581 -1.581,3.689c0,1.844 0.79,3.293 1.844,3.293c1.317,-0 1.844,-1.581 1.844,-4.874l0,-50.845c0,-4.479 1.449,-5.665 6.191,-5.665l10.538,0c1.054,0 1.449,-0.131 1.449,-0.526c0,-0.264 -0.263,-0.396 -1.054,-0.396l-15.28,0c-0.131,0 -0.526,-0.131 -0.922,-0.263c-0.263,-0.132 -0.395,-0.395 -0.527,-0.527l-0.263,-1.185c-0.132,-0.264 -0.527,-0.659 -0.922,-0.659c-0.79,-0 -1.449,0.79 -1.449,1.581c0,0.395 0.263,0.79 0.395,0.922l0.791,0.527c0.131,0.131 0.263,0.395 0.263,0.658c-0,0.527 -0.527,1.054 -1.054,1.054c-1.185,0 -2.107,-1.054 -2.107,-2.371c-0,-2.634 2.502,-4.347 6.191,-4.347l20.548,0c4.084,0 8.431,0.922 11.329,2.371l2.107,1.186l0.264,-0c0.131,-0 0.263,-0.132 0.263,-0.264c0,-0.263 -0.527,-0.79 -1.185,-1.185c-3.03,-1.713 -7.772,-3.03 -10.67,-3.03l-21.866,0c-2.898,0 -4.215,0.263 -5.532,0.922c-2.503,1.317 -4.084,3.952 -4.084,6.85l0,59.802c0,5.137 0.395,7.904 1.317,9.484c1.318,2.371 4.216,3.952 7.113,3.952c3.162,-0 6.06,-1.712 7.377,-4.215c0.659,-1.449 0.79,-2.766 0.79,-7.113l0,-19.1Zm5.137,-7.64c0,6.849 3.162,14.885 9.089,22.525c6.85,8.693 17.388,15.411 24.369,15.411c4.479,0 7.377,-2.766 7.377,-6.981c-0,-1.844 -0.659,-3.688 -1.317,-3.688c-0.132,-0 -0.264,0.131 -0.264,0.263l0,0.264l0.395,0.79c0.132,0.263 0.132,0.658 0.132,1.054c-0,1.053 -0.659,2.107 -1.317,2.107c-0.132,0 -0.264,-0.132 -0.395,-0.263l-0.396,-0.659c-0.131,-0.132 -0.131,-0.263 -0.263,-0.263l-4.347,-1.581c-3.82,-1.317 -9.747,-5.269 -13.436,-8.825c-4.083,-3.82 -7.376,-9.089 -7.376,-11.724c-0,-0.922 0.79,-1.712 1.58,-1.712c1.318,-0 2.635,0.79 3.557,2.239l3.03,4.61c2.502,3.952 9.22,9.221 13.962,10.933c0.659,0.264 1.186,0.396 1.449,0.659c0.527,0.263 0.922,0.527 1.317,0.527c0.264,-0 0.396,-0.264 0.396,-0.395c-0,-0.264 -0.396,-0.527 -0.791,-0.791l-3.951,-1.712c-5.138,-2.371 -10.802,-7.508 -12.646,-11.46l-1.581,-3.161c-0.395,-1.054 -0.658,-1.844 -0.658,-2.371c-0,-0.922 0.658,-1.581 3.556,-3.03c6.982,-3.688 11.46,-11.855 11.46,-20.549c0,-5.269 -2.371,-12.382 -5.269,-15.807l-0.79,-0.922c-1.317,-1.449 -1.581,-1.58 -1.844,-1.58c-0.264,-0 -0.395,0.131 -0.395,0.263c-0,0.264 0.395,0.79 1.054,1.449c3.556,3.425 6.454,10.538 6.454,16.465c-0,5.533 -1.844,10.538 -5.005,14.622c-2.635,3.293 -6.191,5.796 -8.299,5.796c-0.659,-0 -1.186,-0.527 -1.186,-1.054c0,-0.922 0.659,-1.844 1.186,-1.844l0.132,-0l0.527,0.527c0.131,0.131 0.395,0.131 0.526,0.131c1.976,0 4.347,-2.239 4.347,-4.083c0,-0.527 -0.263,-1.054 -0.658,-1.186l-0.791,-0.395c-0.131,-0.132 -0.263,-0.395 -0.263,-0.658c-0,-0.264 -0,-0.396 0.132,-0.659l0.922,-1.976c0.131,-0.263 0.263,-0.395 0.263,-0.658c0,-0.132 -0.263,-0.396 -0.395,-0.396c-0.263,0 -0.395,0.132 -0.527,0.264l-1.317,2.371c-1.449,2.503 -6.059,5.927 -9.089,6.849c-3.03,1.054 -3.82,1.449 -3.82,2.503c-0,1.317 0.79,3.557 1.844,6.191l1.186,2.766c2.766,6.323 9.615,13.041 17.519,16.993l1.449,0.79c1.185,0.659 1.976,1.054 2.371,1.186c2.371,0.79 3.029,1.053 3.029,1.58c0,0.264 -0.395,0.659 -0.658,0.659c-0.527,-0 -1.317,-0.264 -2.371,-0.791l-3.425,-1.448c-2.766,-1.318 -9.089,-5.665 -11.723,-8.167c-4.084,-4.084 -7.64,-9.484 -9.089,-14.095l-0.527,-1.449c-0.527,-1.58 -0.791,-2.634 -0.791,-3.161c-0.131,-1.054 -0.395,-1.581 -0.79,-1.581l-0.132,0.132l-1.317,0.395l-0.527,0c-1.844,0 -3.425,-1.712 -3.425,-3.556l0,-0.527c0.132,-0.395 0.132,-0.791 0.132,-1.054c0,-0.263 -0.263,-0.527 -0.395,-0.527c-0.79,0 -1.186,1.449 -1.186,3.425Zm24.238,-12.382c-0,0.263 0.131,0.527 0.395,0.527c0.263,-0 0.658,-0.791 0.658,-1.317c0,-0.396 -0.131,-0.659 -0.395,-0.659c-0.263,-0 -0.658,0.79 -0.658,1.449Zm-8.431,7.64c-0.263,-0 -0.395,-0.132 -0.395,-0.264c0,-0.395 0.264,-0.79 1.054,-1.317c2.898,-2.634 4.874,-7.376 4.874,-11.855c-0,-0.659 -0,-1.185 -0.132,-1.581l-0,-0.922c-0,-0.395 0.263,-0.79 0.527,-0.79c0.658,-0 1.054,1.317 1.054,3.425c-0,3.161 -0.791,6.191 -2.108,8.43c-1.712,2.766 -3.688,4.742 -4.874,4.874Zm-21.998,33.062c0,1.318 -0.658,2.371 -1.448,2.371c-0.264,0 -0.527,-0.131 -0.791,-0.263l-0.79,-0.659c-0.132,-0.131 -0.264,-0.131 -0.395,-0.131c-0.791,-0 -1.449,0.658 -1.449,1.58c-0,0.922 0.79,1.713 1.712,1.713l0.264,-0l1.053,-0.395l0.264,-0c0.395,-0 0.658,0.263 0.658,0.658c0,1.186 -1.317,2.239 -2.766,2.239c-1.844,0 -2.898,-2.107 -2.898,-6.191l0,-27.135c0,-3.82 0.659,-5.795 1.976,-5.795c1.054,-0 1.581,0.922 1.581,2.502c-0,1.844 -0.132,3.162 -0.395,4.611l-1.318,5.796c-0.131,0.526 -0.131,1.448 -0.131,2.107c-0,1.976 0.79,3.425 1.976,3.425c0.658,-0 1.449,-0.395 1.844,-1.054c0.395,-0.659 0.527,-0.79 0.658,-0.79c0.264,-0 0.395,0.131 0.395,0.263l0,15.148Zm27.136,-51.372c-0.527,0 -1.054,-0.922 -1.054,-1.844c-0,-0.263 0.131,-0.395 0.395,-0.395c0.659,-0 1.317,0.79 1.317,1.712c0,0.264 -0.263,0.527 -0.658,0.527Zm-10.011,27.662c-0.396,0 -0.527,-0.263 -0.527,-0.79c-0,-0.527 0.395,-0.922 1.053,-0.922c1.054,-0 2.898,0.527 3.82,1.317c0.659,0.527 1.054,0.922 1.054,1.317c0,0.264 -0.132,0.527 -0.395,0.527c-0.263,0 -1.317,-0.395 -2.634,-1.185c-0.396,-0.264 -0.791,-0.396 -1.186,-0.396l-0.132,0c-0.527,0.132 -0.922,0.132 -1.053,0.132Zm24.368,31.877c-0.527,0 -0.922,-0.395 -0.922,-0.922c0,-0.395 0.527,-0.79 0.922,-0.79c0.527,-0 0.922,0.395 0.922,0.79c0,0.527 -0.395,0.922 -0.922,0.922Z" style="fill:#fff;fill-rule:nonzero;"/><path d="M211.548,117.373c2.502,6.454 2.898,7.113 4.742,8.957c2.107,1.844 4.742,2.898 7.64,2.898c6.586,-0 11.855,-5.137 11.855,-11.724c-0,-2.107 -0,-2.107 -2.239,-7.244l-25.95,-60.725c-2.634,-6.323 -5.928,-8.825 -11.592,-8.825c-5.532,-0 -8.562,2.502 -11.591,9.747l-26.608,62.042c-1.449,3.293 -1.845,4.742 -1.845,6.191c0,5.796 4.874,10.538 10.67,10.538c4.347,-0 7.903,-2.503 9.616,-6.982l0.922,-2.239c0.922,-2.107 1.317,-2.371 4.215,-2.371l13.172,0c4.742,0 6.323,-0.395 8.562,-2.371c2.371,-1.844 3.82,-5.005 3.82,-7.903c0,-3.557 -1.844,-7.245 -4.61,-8.958c-2.239,-1.317 -4.083,-1.712 -8.694,-1.712l-3.688,0c-1.449,0 -2.371,-0.527 -2.371,-1.317c0,-0.264 0.264,-0.922 0.659,-1.976l6.059,-14.621c0.395,-0.922 0.79,-1.318 1.317,-1.318c0.395,0 0.659,0.264 1.054,1.318l14.885,38.595Zm20.68,-6.587c2.108,4.874 2.108,4.874 2.108,6.718c-0,5.796 -4.61,10.275 -10.406,10.275c-2.503,-0 -4.874,-0.922 -6.586,-2.503c-1.713,-1.581 -1.976,-2.239 -4.479,-8.43l-14.885,-38.595c-0.527,-1.581 -1.317,-2.24 -2.371,-2.24c-1.317,0 -1.976,0.659 -2.634,2.24l-6.06,14.621c-0.526,1.186 -0.79,2.108 -0.79,2.635c0,1.58 1.449,2.634 3.82,2.634l3.688,0c4.084,0 6.06,0.263 7.904,1.581c2.371,1.449 3.951,4.61 3.951,7.64c0,2.502 -1.317,5.137 -3.293,6.849c-1.975,1.713 -3.161,1.976 -7.64,1.976l-13.172,0c-3.556,0 -4.347,0.527 -5.532,3.293l-0.922,2.24c-1.581,3.951 -4.611,6.059 -8.299,6.059c-5.005,-0 -9.221,-4.084 -9.221,-8.957c0,-1.318 0.396,-2.767 1.713,-5.796l26.608,-62.042c2.898,-6.718 5.269,-8.825 10.274,-8.825c5.138,-0 7.772,2.107 10.275,7.903l25.949,60.724Zm-56.772,5.665c0.526,-1.054 1.712,-1.845 3.161,-1.845l18.441,0c3.425,0 6.323,-3.161 6.323,-7.113c-0,-1.975 -0.395,-3.161 -0.922,-3.161c-0.264,0 -0.527,0.132 -0.527,0.395c-0,0.264 -0,0.791 0.132,1.449c0.131,0.264 0.131,0.659 0.131,1.054c0,2.634 -1.712,5.269 -3.293,5.269c-0.263,-0 -0.395,-0.264 -0.395,-0.395c0,-0 0.132,-0.527 0.395,-1.186c0.132,-0.263 0.132,-0.527 0.132,-0.79c0,-1.844 -1.054,-2.766 -3.161,-2.766l-21.998,-0c-0.132,-0 -0.527,0.263 -0.527,0.395c-0,0.132 0.132,0.263 0.263,0.395l1.976,4.215c0.264,0.527 0.527,1.054 0.527,1.317c0,0.264 -0.132,0.264 -0.527,0.659c-0.395,0.132 -0.79,0.79 -1.185,1.449l-2.503,5.532c-0.527,1.054 -1.054,1.581 -1.844,1.581c-1.054,0 -1.976,-0.922 -1.976,-2.108c0,-0.395 0.132,-1.185 0.263,-1.449l2.24,-5.927c0.395,-1.054 0.922,-1.712 1.58,-1.712c0.264,-0 0.264,0.131 1.054,0.79c0.132,0.132 0.395,0.263 0.527,0.263c0.264,0 0.527,-0.263 0.527,-0.527c0,-0.131 -0.132,-0.395 -0.263,-0.526l-1.186,-2.371c-0.132,-0.264 -0.263,-0.396 -0.659,-0.396c-0.526,0 -0.79,0.132 -0.922,0.527l-1.317,2.635c-1.054,2.502 -2.766,4.215 -4.215,4.215c-1.317,-0 -2.108,-1.449 -2.108,-3.557c0,-1.976 0.791,-4.742 2.371,-8.167c1.713,-3.82 3.557,-5.927 5.138,-5.927c0.658,-0 1.053,0.79 1.053,1.712c0,1.581 -0.658,3.293 -1.317,3.293c0,0 -0.131,0 -0.131,-0.131l-0.527,-0.395c-0.132,-0.264 -0.396,-0.264 -0.527,-0.264c-0.527,0 -1.318,0.659 -1.976,1.712c-0.922,1.713 -1.449,3.425 -1.449,5.006c-0,1.185 0.395,1.844 1.185,1.844c1.318,0 2.371,-1.581 4.216,-6.191c0.131,-0.263 0.263,-0.659 0.395,-0.922l18.968,-45.84c0.922,-2.239 1.581,-3.293 2.634,-3.688l0.791,-0.395c0.395,-0.264 0.658,-0.527 0.658,-0.79c0,-0.396 -0.395,-0.791 -0.79,-1.054l-1.186,-0.659c-1.053,-0.527 -1.844,-1.976 -1.844,-3.556c0,-1.054 0.396,-1.976 0.922,-1.976c0.264,-0 0.396,0.131 0.396,0.395l-0,0.659c-0,1.053 0.526,1.712 1.317,1.712c0.527,-0 0.922,-0.264 0.922,-0.659l-0,-0.395l-0.527,-0.922c-0.132,-0.263 -0.132,-0.395 -0.132,-0.659c0,-0.922 0.922,-1.58 2.503,-1.58c1.449,-0 3.161,0.658 4.347,1.712l1.054,0.922c-0,0.132 0.263,0.132 0.395,0.132c0.263,-0 0.395,-0.132 0.395,-0.395c0,-0.264 -0.395,-0.791 -1.054,-1.317c-1.317,-1.318 -3.425,-2.108 -5.532,-2.108c-3.952,-0 -6.323,1.844 -8.43,6.85c-0.923,2.239 -1.845,4.478 -2.898,6.717l-24.501,57.168c-0.922,2.371 -1.317,3.425 -1.317,4.479c-0,3.688 3.556,6.981 7.376,6.981c3.03,0 5.138,-1.449 6.455,-4.346l2.503,-5.269Zm12.382,-16.466c-0.527,0 -1.186,-0.132 -1.449,-0.132l-0.791,-0.526l-0.263,-0c-0.264,-0 -0.527,0.263 -0.527,0.526c-0,0.659 1.317,1.318 2.898,1.318l7.771,-0c1.054,-0 1.845,-0 2.24,0.131l1.844,0.659l0.263,-0c0.132,-0 0.396,-0.132 0.396,-0.527c-0,-0.79 -1.581,-1.449 -3.425,-1.449l-8.957,0Zm-10.538,2.371c-0.132,0 -0.264,0.132 -0.264,0.132l-0.922,1.581c-0.132,0.395 -0.527,0.658 -0.922,0.658c-0.263,0 -0.527,-0.132 -0.527,-0.395c0,-0.132 0,-0.263 0.132,-0.395l17.783,-43.337c0.131,-0.264 0.263,-0.527 0.526,-0.79c0.791,-0.791 1.054,-1.054 1.054,-1.186l0,-0.922c0,-0.132 0.132,-0.395 0.264,-0.527c0.131,-0.132 0.395,-0.395 0.658,-0.395c0.791,-0 1.186,1.185 1.186,4.083c-0,1.581 -0,2.635 0.132,3.03l0.658,3.293c0,0.659 0.132,1.317 0.132,1.976c-0,1.844 -0.79,3.161 -1.713,3.161c-0.658,0 -1.053,-0.395 -1.053,-0.922c-0,-0.395 0.131,-0.658 0.527,-0.658l0.395,-0.132c0.263,-0 0.527,-0.395 0.527,-0.791l-0,-0.263l-0.527,-2.108c-0.132,-0.263 -0.132,-0.526 -0.132,-0.922l-0.132,-3.029c0,-0.791 -0.263,-1.449 -0.527,-1.449c-0.263,-0 -0.658,0.658 -0.658,1.449l-0.264,4.347c-0.131,1.317 -0.395,2.766 -0.922,3.951l-8.562,20.417c-0.658,1.713 -1.054,2.898 -1.054,3.557c-0.131,0.659 -0.131,1.054 -0.263,1.186c-0.395,1.053 -0.659,1.844 -0.659,1.844l0.264,0.263c-0,0.132 0.132,0.132 0.263,0.132c0.264,-0 0.659,-0.264 1.186,-0.922c0.395,-0.395 0.527,-0.527 0.527,-1.054l-0.132,-2.108c0,0 0.132,-0.395 0.263,-0.79l5.928,-14.49c2.108,-5.4 2.766,-6.322 5.137,-6.322c1.844,-0 2.898,0.79 3.688,2.766l8.036,20.022l0.395,-0.132l-0.132,-0.263l0,-0.395c0,-2.24 0.527,-3.689 1.317,-3.689l0.264,0l0.922,0.264c-0,-0 0.132,-0.132 0.263,-0.132c0.264,-0.263 0.395,-0.527 0.395,-0.79c0,-1.054 -0.263,-1.976 -0.658,-3.03l-12.646,-30.692c-0.527,-1.185 -1.185,-1.844 -2.107,-1.844c-1.449,0 -2.371,1.054 -3.688,4.479l-18.31,43.996c-0.132,0.395 -0.132,0.658 -0.132,0.922c0,0.79 0.395,1.185 1.054,1.185c1.186,0 2.766,-0.922 4.61,-2.634c0.264,-0.264 0.396,-0.527 0.527,-0.527c0.659,-0.527 0.922,-0.922 0.922,-1.186c0,-0.131 -0.131,-0.395 -0.395,-0.395c0,0 -0.263,0.132 -0.527,0.132l-2.107,0.79Zm14.884,2.898c-0.526,0 -0.922,0.264 -0.922,0.527c0,0.395 0.264,0.527 0.791,0.527l3.951,-0c1.054,-0 1.976,0.263 2.371,0.527l1.318,1.054c-0,0.131 0.131,0.131 0.131,0.131c0.132,0 0.264,0.132 0.264,0.132c0.527,-0 0.922,-0.659 0.922,-1.317c-0,-1.713 -1.449,-3.293 -2.766,-3.293c-0.527,-0 -0.791,0.131 -1.449,1.185c-0.395,0.527 -0.659,0.527 -1.186,0.527l-3.425,0Zm6.982,-50.187c-0.264,-0.79 -1.186,-1.58 -1.844,-1.58c-0.264,-0 -0.527,0.263 -0.527,0.658c-0,0.264 -0.132,0.132 1.054,1.054c0.395,0.264 0.658,0.791 1.185,2.371c0,0.132 0.132,0.527 0.395,1.054l11.855,29.111c0.791,2.107 1.186,3.425 1.186,4.874c-0,1.185 -0.659,2.239 -1.449,2.239l-0.264,-0c-0.526,-0.132 -1.053,-0.264 -1.053,-0.264c-0.527,0 -1.054,1.186 -1.054,2.503c-0,2.24 0.658,4.742 3.029,10.67l5.665,14.358c0.922,2.239 3.556,3.82 6.717,3.82c4.743,-0 8.431,-3.689 8.431,-8.431c-0,-1.053 -0.132,-2.239 -0.659,-3.161l-27.135,-63.754c-0.527,-1.054 -0.527,-1.186 -0.922,-1.186c-0.263,0 -0.395,0.264 -0.395,0.527c-0,0.264 -0,0.527 0.132,0.791l26.213,61.251c1.185,2.503 1.58,4.215 1.58,5.401c0,1.975 -1.317,3.556 -3.029,3.556c-1.449,0 -2.503,-0.922 -3.293,-2.634l-25.818,-63.228Zm-0.659,-7.639c0,0.526 0.79,1.053 1.581,1.053c0.263,0 0.527,-0.263 0.527,-0.395c-0,-0.527 -0.791,-1.185 -1.581,-1.185c-0.395,-0 -0.527,0.263 -0.527,0.527Zm13.172,57.299c-0.658,-1.712 -1.053,-3.293 -1.053,-4.874c-0,-1.317 0.527,-2.239 1.185,-2.371c0.132,0 0.132,0 0.791,0.527c0.131,0.264 0.395,0.264 0.658,0.264c0.264,-0 0.659,-0.132 0.659,-0.527l0.263,-0.527c0.132,-0.263 0.264,-0.527 0.395,-0.527c0.264,0 0.659,0.659 0.922,1.449l8.299,20.417c0.132,0.395 0.395,0.659 0.527,0.922c0.395,0.527 0.527,0.791 0.527,0.922c-0,0.264 -0.264,0.527 -0.527,0.527c-0.659,0 -1.317,-0.79 -1.844,-2.107l-6.059,-15.017c-0.659,-1.449 -1.318,-2.239 -1.976,-2.239c-0.527,-0 -0.922,0.395 -0.922,1.185c-0,0.527 0.263,1.318 0.395,2.108c1.054,3.425 1.185,4.083 1.185,4.479c0,0.395 -0.263,0.658 -0.527,0.658c-0.395,0 -1.053,-0.527 -1.317,-1.317l-1.581,-3.952Z" style="fill:#fff;fill-rule:nonzero;"/><path d="M262.261,85.627c0,-14.621 8.826,-24.105 22.525,-24.105c4.347,-0 8.694,1.054 13.567,3.425c3.82,1.844 4.611,1.976 6.85,1.976c5.928,-0 10.801,-4.874 10.801,-10.802c0,-4.347 -2.371,-7.771 -7.376,-10.406c-5.928,-3.293 -14.753,-5.269 -23.052,-5.269c-26.74,0 -46.893,19.364 -46.893,44.918c-0,25.027 20.153,44.654 45.971,44.654c8.167,0 16.07,-1.976 22.657,-5.401c5.795,-2.897 8.825,-6.981 8.825,-11.46c0,-5.795 -4.874,-10.669 -10.669,-10.669c-2.24,-0 -3.425,0.395 -6.191,1.976c-5.533,3.161 -9.616,4.478 -14.753,4.478c-13.305,0 -22.262,-9.352 -22.262,-23.315Zm-1.449,0c0,14.753 9.616,24.764 23.711,24.764c5.4,0 9.879,-1.317 15.411,-4.61c2.503,-1.449 3.557,-1.844 5.533,-1.844c5.005,-0 9.22,4.215 9.22,9.22c0,3.952 -2.766,7.509 -8.035,10.143c-6.454,3.425 -14.094,5.269 -21.998,5.269c-25.027,0 -44.522,-18.968 -44.522,-43.205c-0,-24.764 19.627,-43.469 45.444,-43.469c7.377,0 15.28,1.581 20.944,4.347c5.533,2.634 8.035,5.664 8.035,9.879c0,5.137 -4.215,9.353 -9.352,9.353c-1.976,-0 -2.634,-0.264 -6.323,-1.845c-5.005,-2.502 -9.484,-3.556 -13.962,-3.556c-14.622,-0 -24.106,10.011 -24.106,25.554Zm-2.766,-31.613c2.108,-1.713 6.455,-4.479 9.484,-5.796c5.137,-2.371 10.802,-3.557 17.651,-3.557c10.011,0 19.627,2.767 24.237,6.85c0.395,0.263 0.527,0.395 0.659,0.395c0.263,0 0.395,-0.263 0.395,-0.395c0,-0.659 -2.239,-2.371 -5.269,-3.82c-5.137,-2.503 -12.777,-3.952 -20.154,-3.952c-24.368,0 -43.073,18.31 -43.073,42.02c-0,22.656 18.836,40.834 42.547,40.834c6.454,0 11.855,-1.054 17.387,-3.029c7.376,-2.767 10.801,-6.06 10.801,-10.407c0,-1.448 -0.658,-3.424 -1.317,-4.215l-0.79,-0.79c-0.395,-0.527 -0.659,-0.659 -0.922,-0.659c-0.264,0 -0.396,0.132 -0.396,0.396c0,0.131 0.132,0.395 0.659,0.922c1.054,1.053 1.844,2.766 1.844,4.215c0,2.107 -1.054,4.61 -1.976,4.61c-0.263,0 -0.395,-0.263 -0.395,-0.395c0,-0.132 0.132,-0.527 0.264,-1.054l-0,-0.527c-0,-1.844 -1.449,-3.293 -3.293,-3.293c-1.449,0 -1.845,0.132 -5.533,1.976c-5.4,2.766 -11.723,4.215 -17.914,4.215c-0.527,0 -1.054,0 -1.713,-0.132l-1.185,-0.131l-1.712,-0.264c-1.186,-0.131 -4.347,-0.922 -6.191,-1.58c-3.689,-1.318 -6.982,-3.425 -10.934,-6.982c-2.634,-2.371 -5.4,-6.059 -6.322,-8.562c-0.395,-1.054 -0.659,-1.317 -0.922,-1.317c-0.395,-0 -0.659,0.395 -0.659,1.185l0,1.054c0.264,1.844 0.395,3.162 0.395,3.293c0,1.186 -0.79,1.976 -1.844,1.976c-1.317,0 -2.634,-0.79 -3.293,-1.712l-0.922,-1.317c-0.395,-0.659 -0.659,-1.186 -0.659,-1.449c0,-0.132 0.132,-0.264 0.264,-0.264l0.132,0l1.317,1.186c0.263,0.263 0.79,0.395 1.185,0.395c1.054,-0 1.449,-0.79 1.449,-2.371c0,-2.239 -0.395,-4.874 -1.317,-8.299c-1.054,-3.688 -2.371,-5.796 -3.425,-5.796c-0.922,0 -1.581,1.054 -1.581,2.503c0,2.371 1.054,4.874 2.24,4.874c0.263,-0 0.395,-0.132 0.527,-0.395l0.263,-0.791c0,-0.131 0.264,-0.395 0.395,-0.395c0.527,0 1.054,1.581 1.054,3.162c0,1.58 -0.527,2.502 -1.581,2.502c-2.502,0 -4.742,-6.059 -4.742,-12.909c0,-8.43 2.24,-15.148 5.269,-15.148c1.318,0 1.976,1.581 1.976,4.347c0,1.449 0,3.162 -0.132,5.137c-0.263,2.24 -0.263,2.898 -0.263,4.084c-0,2.766 0.79,4.347 2.108,4.347c0.658,-0 0.922,-0.264 1.712,-1.713c0.395,-0.658 0.79,-0.922 1.185,-0.922c0.527,0 0.527,0.132 1.318,3.688c0.263,1.318 1.185,2.371 1.844,2.371c0.658,0 1.054,-0.526 1.054,-1.317l-0,-1.58c-0.132,-0.264 -0.132,-0.659 -0.132,-1.318c-0.132,-1.449 -0.132,-2.502 -0.132,-3.293c0,-15.543 10.538,-26.344 25.818,-26.344c3.688,-0 8.694,0.922 11.855,2.239l5.269,2.239c1.185,0.527 2.503,0.79 3.688,0.79c3.82,0 6.982,-3.424 6.982,-7.508c-0,-1.054 -0.264,-1.58 -0.791,-1.58c-0.131,-0 -0.263,-0 -0.263,0.131l-0,2.635c-0,0.658 -0.395,1.712 -1.054,2.503c-0.79,1.185 -1.844,2.107 -2.503,2.107c-0.131,0 -0.263,-0.132 -0.263,-0.395l0.527,-1.449c0.131,-0.263 0.131,-0.395 0.131,-0.659c0,-1.844 -1.317,-3.293 -4.61,-4.873c-5.927,-2.898 -12.118,-4.347 -18.573,-4.347c-6.191,-0 -11.328,1.185 -16.992,4.083c-4.742,2.503 -6.85,4.215 -12.119,10.406c-1.712,1.844 -3.425,3.162 -4.478,3.162c-0.791,-0 -1.449,-0.791 -1.449,-1.844c-0,-3.82 2.239,-7.114 7.903,-11.987Zm1.581,41.493c-0,1.449 1.844,5.137 4.083,7.903c5.269,6.454 11.855,9.616 20.154,9.616c4.742,-0 10.933,-1.317 14.358,-3.162l4.347,-2.239c0.263,-0.132 0.526,-0.263 0.79,-0.263c1.712,-0.396 1.844,-0.527 1.844,-0.922c0,-0.132 -0.263,-0.396 -0.527,-0.396c-0.658,0 -1.581,0.264 -2.371,0.659l-3.425,1.976c-4.083,2.239 -9.879,3.425 -15.806,3.425c-10.143,-0 -18.969,-6.455 -22.657,-16.597c-0.132,-0.396 -0.263,-0.527 -0.395,-0.527c-0.263,-0 -0.395,0.263 -0.395,0.527Zm-7.64,-13.436c-0.264,-0.132 -0.527,-0.395 -0.527,-0.791c1.054,-17.124 15.938,-30.164 34.38,-30.164c5.4,-0 11.196,1.185 15.28,3.161c1.712,0.922 2.502,1.449 2.502,1.976c0,0.263 -0.263,0.527 -0.527,0.527c-0.395,-0.132 -1.185,-0.395 -2.239,-1.186c-2.634,-1.712 -9.616,-3.293 -15.148,-3.293c-16.992,0 -31.218,11.987 -32.931,27.794c-0.132,1.317 -0.395,1.976 -0.79,1.976Zm31.35,38.858c-5.269,0 -12.777,-1.976 -17.519,-4.61c-1.713,-0.922 -3.03,-1.844 -5.006,-3.688c-1.976,-1.581 -3.029,-2.898 -3.029,-3.425c-0,-0.395 0.131,-0.527 0.395,-0.527c0.263,-0.132 0.922,0.527 1.449,1.054c5.4,5.796 15.28,9.879 24.105,9.879c2.635,-0 6.982,-0.527 9.089,-1.054c3.557,-0.922 9.616,-3.161 11.065,-4.215c0.922,-0.527 1.712,-0.922 2.239,-0.922c0.264,-0 0.395,0.263 0.395,0.527c0,0.658 -0.79,1.185 -4.873,2.898c-6.191,2.766 -12.119,4.083 -18.31,4.083Z" style="fill:#fff;fill-rule:nonzero;"/><path d="M349.199,102.356c-0,-1.712 0.263,-2.766 1.053,-3.556c0.791,-1.186 1.713,-1.844 2.24,-1.844c0.527,-0 0.922,0.263 1.58,1.185l16.993,24.501c3.556,5.137 6.191,6.849 10.801,6.849c6.586,0 11.855,-5.269 11.855,-11.855c0,-3.03 -0.527,-3.952 -3.952,-8.957l-18.573,-26.74c-1.053,-1.581 -1.317,-2.239 -1.317,-3.03c0,-0.922 0.132,-1.185 2.24,-3.293l14.226,-14.884c3.688,-3.82 4.478,-5.269 4.478,-8.562c0,-5.928 -4.61,-10.67 -10.274,-10.67c-3.293,-0 -5.928,1.317 -9.221,5.005l-19.758,20.813c-0.659,0.658 -1.186,0.922 -1.581,0.922c-0.659,-0 -0.79,-0.264 -0.79,-1.976l-0,-10.933c-0,-4.742 -0.132,-5.401 -1.186,-7.64c-2.107,-3.82 -6.191,-6.323 -10.538,-6.323c-4.083,0 -8.035,2.371 -10.142,6.06c-1.318,2.371 -1.581,3.819 -1.581,8.957l-0,58.748c-0,5.533 0.263,6.587 1.976,9.221c2.239,3.161 5.796,5.137 9.616,5.137c4.478,0 8.562,-2.503 10.669,-6.454c1.054,-2.24 1.186,-3.293 1.186,-7.904l-0,-12.777Zm6.059,-5.005c-0.922,-1.449 -1.712,-1.844 -2.766,-1.844c-1.054,-0 -2.371,0.79 -3.425,2.371c-0.922,1.185 -1.317,2.371 -1.317,4.478l-0,12.777c-0,4.347 -0.132,5.269 -1.054,7.245c-1.712,3.425 -5.401,5.664 -9.352,5.664c-3.294,0 -6.455,-1.712 -8.299,-4.478c-1.581,-2.371 -1.844,-3.293 -1.844,-8.431l-0,-58.748c-0,-4.874 0.263,-6.191 1.449,-8.299c1.712,-3.161 5.269,-5.137 8.825,-5.137c3.82,-0 7.377,2.107 9.221,5.401c1.054,1.975 1.054,2.502 1.054,6.981l-0,10.933c-0,2.503 0.658,3.425 2.371,3.425c0.79,-0 1.58,-0.395 2.502,-1.449l19.759,-20.812c3.03,-3.294 5.269,-4.611 8.167,-4.611c4.874,0 8.825,4.215 8.825,9.353c0,2.897 -0.658,3.951 -4.083,7.64l-14.226,14.753c-2.371,2.371 -2.635,3.029 -2.635,4.346c0,1.186 0.395,2.108 1.581,3.82l18.573,26.872c3.293,4.61 3.688,5.401 3.688,8.035c0,5.796 -4.61,10.406 -10.406,10.406c-4.083,0 -6.323,-1.449 -9.616,-6.191l-16.992,-24.5Zm-26.081,19.758c-0,5.269 3.293,8.694 8.167,8.694c4.873,-0 8.298,-3.82 8.298,-9.089l0,-15.28c0,-2.239 0.922,-4.083 3.03,-6.191c2.766,-2.634 2.898,-2.898 3.293,-5.137c0.263,-1.449 0.527,-3.293 0.527,-4.084l-0.132,-1.58c0,-1.186 0,-1.449 -0.395,-1.449c-0.132,-0 -0.264,0.132 -0.395,0.132l-11.197,11.986c-0.658,0.527 -0.922,1.054 -0.922,1.581c0,0.659 0.395,1.317 0.922,1.317l1.186,0.264c0.131,-0 0.263,0.131 0.395,0.263l0.527,0.922c0.132,0.132 0.395,0.395 0.658,0.395c0.396,0 0.527,-0.395 0.527,-0.922c0,-0.658 -0.527,-1.317 -1.053,-1.449l-1.449,-0.526c-0.264,-0.132 -0.396,-0.264 -0.396,-0.527c0,-0.396 0.396,-0.791 0.791,-0.791c0.922,0 2.107,0.791 2.766,1.713c0.263,0.658 0.263,0.79 0.263,3.161l0,15.675c0,1.186 -0.658,2.108 -1.58,2.108c-0.264,-0 -0.395,-0 -0.527,-0.132l-1.054,-0.79c-0.132,-0.132 -0.395,-0.132 -0.527,-0.132c-0.79,-0 -1.317,0.527 -1.317,1.317c-0,1.186 0.922,2.108 1.844,2.108l0.395,-0l1.186,-0.527l0.263,-0c0.264,-0 0.527,0.263 0.527,0.527c0,1.054 -1.581,2.239 -2.898,2.239c-1.581,0 -2.766,-1.581 -2.766,-3.688l-0,-21.339c-0,-1.713 0.527,-2.898 2.107,-4.611l10.802,-11.196c0.79,-0.791 1.185,-1.186 1.449,-1.186c0.658,0 1.054,1.449 1.054,3.425l-0,1.186l-0.264,2.897l0,1.449c0,2.108 0.659,3.689 1.581,3.689c0.395,-0 0.79,-0.264 1.185,-0.922c0.395,-0.922 1.054,-2.635 1.054,-3.293c0,-0.791 0.132,-1.186 0.527,-1.186c0.527,0 1.054,0.79 1.054,1.449c-0,0.132 -0.132,0.395 -0.264,0.79c-1.449,2.24 -1.844,3.162 -1.844,4.347c0,0.527 0.132,1.054 0.527,1.844l2.108,3.03l0.658,0.922l15.939,22.788c0.922,1.449 3.952,2.766 6.191,2.766c4.61,0 8.298,-3.688 8.298,-8.562c0,-1.58 -0.527,-2.766 -1.053,-2.766c-0.264,0 -0.527,0.264 -0.527,0.659l-0,0.132l0.263,1.053c0.132,0.264 0.132,0.395 0.132,0.791c-0,1.449 -1.054,2.502 -2.635,2.502c-1.185,0 -2.766,-0.922 -3.82,-2.239l-21.339,-30.691c-0.395,-0.527 -0.658,-1.186 -0.79,-1.845c-0.132,-0.526 -0.264,-0.79 -0.264,-0.922l0.132,-1.976l-0.132,-0.131c0,-0.264 -0.131,-0.395 -0.263,-0.395l-1.581,-0.527c-1.449,-0.527 -2.766,-2.108 -2.766,-3.293c0,-0.527 0.264,-0.922 1.054,-1.713c0.132,-0.263 0.659,-0.658 1.185,-1.317l20.549,-21.471c0.132,-0.263 0.395,-0.527 0.791,-0.79c0.527,-0.264 0.922,-0.659 0.922,-0.922c-0,-0.264 -0.264,-0.396 -0.659,-0.396c-0.527,0 -1.449,0.791 -4.479,4.084l-19.099,20.022c-0.922,0.922 -1.449,1.844 -1.449,2.898c-0,0.395 0.131,0.658 0.263,0.922l27.135,38.99c0.264,0.395 0.527,1.054 0.527,1.317c-0,0.132 -0.263,0.395 -0.527,0.395c-0.395,0 -0.79,-0.395 -1.317,-1.185c-0.132,-0.264 -0.395,-0.527 -0.659,-0.922c-1.185,-1.713 -1.976,-2.898 -2.503,-3.557l-0.526,-0.922l-20.418,-29.242c0,-0.132 -0.131,-0.132 -0.131,-0.132c-0.264,-0 -0.527,0.263 -0.527,0.527c-0,0.132 0.132,0.395 0.263,0.922c0.132,0.263 0.132,0.79 0.132,1.449c0,2.371 -0.395,4.215 -1.054,4.215c-0.527,-0 -0.79,-0.922 -0.79,-2.239l-0,-1.054l0.263,-2.239l0,-1.581c0,-2.766 -0.658,-4.347 -1.712,-4.347c-0.527,0 -1.054,0.132 -1.449,0.527l-12.382,12.909c-1.317,1.449 -1.976,2.766 -1.976,4.215l0,15.148c0,3.162 -1.449,5.664 -3.161,5.664c-2.635,0 -3.82,-2.634 -3.82,-8.167c-0,-3.951 1.054,-6.717 2.503,-6.717c0.922,-0 1.844,1.317 1.844,2.634c-0,0.527 -0.264,1.054 -0.396,1.054l-1.053,-0c-0.659,-0 -1.186,1.317 -1.186,2.766c0,1.581 0.659,2.766 1.713,2.766c1.185,0 2.107,-1.844 2.107,-4.347l0,-50.845c0,-1.185 0.264,-1.712 0.922,-1.712c0.264,-0 0.527,0.263 0.527,0.527l0,34.511c0,0.527 0.395,1.054 0.79,1.054c1.581,-0 5.401,-5.664 7.245,-10.801l1.054,-2.767c0.132,-0.395 0.263,-0.658 0.263,-0.79c0,-0.263 -0.263,-0.527 -0.526,-0.527c-0.264,0 -0.659,0.527 -1.845,2.766c-0.922,1.449 -2.371,3.162 -2.766,3.162c-0.263,-0 -0.395,-0.264 -0.395,-0.396c0,-0.263 0,-0.526 0.264,-0.922l0.658,-1.053c0.132,-0.396 0.791,-1.449 1.581,-2.371c1.185,-1.581 1.844,-2.635 2.239,-2.767l1.317,-0.79c0.264,-0.263 0.396,-0.527 0.396,-0.922l-0,-0.263l-1.054,-1.449c-0.264,-0.396 -0.659,-1.581 -0.659,-2.635l0,-16.729c0,-0.658 -0.132,-1.185 -0.527,-1.185c-0.131,-0 -0.263,0.527 -0.263,1.317l-0,16.992l-0.132,0.264l0,2.503c0,1.053 -0.922,3.029 -2.107,4.873l-2.372,3.689c-0.526,0.922 -1.053,2.502 -1.053,3.424c-0,0.527 0.263,0.922 0.658,0.922l0.264,0l0.922,-0.395c-0,-0.131 -0,-0.131 0.132,-0.131c0.263,-0 0.395,0.263 0.395,0.658c-0,0.527 -0.264,1.317 -0.791,2.108l-0.131,0.263c-0.527,0.79 -1.186,1.317 -1.713,1.317c-0.395,0 -0.79,-0.527 -0.79,-1.185l-0,-32.668c-0,-0.395 -0.527,-1.053 -1.054,-1.185l-2.239,-0.79c-1.317,-0.396 -2.239,-1.845 -2.239,-3.162c-0,-1.185 0.658,-2.502 1.185,-2.502c0.263,-0 0.395,0.131 0.395,0.131l-0.132,1.844c0,1.186 0.923,2.24 2.108,2.24c0.922,-0 1.581,-0.527 1.581,-1.186c-0,-0.395 -0.264,-0.658 -0.527,-0.79l-1.054,-0.791c-0.263,-0.131 -0.395,-0.526 -0.395,-0.922c-0,-1.053 0.922,-1.844 2.107,-1.844c1.581,0 3.557,0.791 4.479,1.713c0.922,1.053 1.186,1.317 1.581,1.317c0.131,-0 0.395,-0.264 0.395,-0.395c-0,-0.395 -0.264,-0.791 -0.922,-1.449c-1.449,-1.449 -3.82,-2.371 -5.796,-2.371c-4.874,-0 -8.43,3.951 -8.43,9.22l-0,62.964Zm46.893,-69.286c0.395,-0.527 1.317,-1.054 1.976,-1.318l2.503,-0.79c0.132,0 0.263,-0.132 0.263,-0.263c0,-0.396 -0.395,-0.527 -0.79,-0.527c-1.449,-0 -3.557,0.79 -4.479,1.844l-24.368,25.423l-1.581,0.922c-0.132,0.131 -0.132,0.263 -0.264,0.395l0,0.131c0,0.264 0.264,0.396 0.527,0.396c0.791,-0 1.976,-0.659 3.162,-1.976l23.051,-24.237Zm-14.753,25.159l-2.766,2.766c-1.317,1.449 -1.449,1.712 -1.449,2.371c0,1.449 1.186,2.108 3.688,2.108l1.054,-0l1.713,-0.264c0.263,0 0.526,0.264 0.526,0.527c0,0.132 0,0.264 -0.131,0.395l-1.581,0.922c-0.527,0.395 -0.922,1.054 -0.922,1.844c-0,1.318 1.185,2.371 2.371,2.371c0.659,0 1.054,-0.263 1.449,-0.79l0.659,-1.054c0.131,-0.263 0.263,-0.263 0.79,-0.263c0.263,-0 0.527,0.132 0.659,0.263l19.89,28.584c0.263,0.395 0.658,0.659 0.79,0.659c0.264,-0 0.395,-0.132 0.395,-0.395c0,-0.395 0,-0.527 -1.317,-2.371l-18.968,-27.267c-0.527,-0.659 -1.186,-1.186 -1.844,-1.186c-0.527,0 -1.054,0.264 -1.186,0.659l-0.395,0.922c-0.132,0.395 -0.659,0.659 -1.054,0.659c-0.395,-0 -0.79,-0.395 -0.79,-0.922c-0,-0.922 0.527,-1.449 2.371,-2.371c0.79,-0.527 1.185,-0.922 1.185,-1.449c0,-0.527 -0.526,-1.054 -1.185,-1.054l-0.264,-0l-2.502,0.527l-2.24,-0c-1.053,-0 -1.712,-0.264 -1.712,-0.79c0,-0.396 0.659,-0.791 1.317,-0.791c0.395,0 1.054,0.132 2.108,0.132c0.395,0.132 0.79,0.132 1.185,0.132c0.791,-0 1.844,-0.132 2.767,-0.264c1.053,-0.132 1.185,-0.263 2.239,-1.976c0.263,-0.263 0.527,-0.658 0.922,-1.053l17.124,-18.31c1.185,-1.449 1.449,-2.108 1.449,-3.952c-0,-3.029 -2.239,-6.586 -4.084,-6.586c-0.263,0 -0.526,0.264 -0.526,0.527c-0,0.132 0.395,0.527 1.317,1.186c0.922,0.658 1.581,1.975 1.581,2.766c-0,0.395 -0.396,0.922 -0.659,0.922c-0.264,-0 -0.79,-0.264 -1.449,-0.659c-0.264,-0.132 -0.527,-0.132 -0.922,-0.263c-0.132,-0 -0.264,-0.132 -0.395,-0.132c-0.395,-0 -0.791,0.395 -0.791,0.659c0,0.263 0.132,0.395 1.054,0.658c0.527,0.132 0.79,0.527 0.79,0.791c0,0.263 -0.263,0.526 -0.526,0.526l-0.791,0c-0.79,0.132 -2.371,0.923 -3.161,1.581l-17.783,18.705Zm21.339,-24.106c0,0.396 0.527,0.659 1.054,0.659c0.395,0 0.527,-0.132 0.527,-0.395c0,-0.527 -0.395,-0.922 -0.922,-0.922c-0.395,-0 -0.79,0.395 -0.659,0.658Zm3.425,69.814c0.791,-0 1.317,-0.527 1.317,-1.054c0,-0.527 -0.395,-1.054 -0.922,-1.054l-0.263,0c-0.132,0.132 -0.263,0.132 -0.263,0.132l-1.581,-0.132l-0.132,0.132l0,0.263c0,0.132 0,0.396 0.264,0.791c0.526,0.527 1.053,0.922 1.58,0.922Zm-5.005,5.927c-1.054,0 -2.635,-0.658 -3.425,-1.58c-0.264,-0.264 -0.264,-0.395 -0.264,-0.659c0,-0.395 0.264,-0.658 0.659,-0.658c0.264,-0 0.395,-0 0.527,0.131l1.449,1.054l1.449,0.527c0.263,0.132 0.395,0.395 0.395,0.659c0,0.263 -0.395,0.526 -0.79,0.526Z" style="fill:#fff;fill-rule:nonzero;"/></g></g></svg>