<svg clip-rule="evenodd" fill-rule="evenodd" stroke-linejoin="round" stroke-miterlimit="2" viewBox="0 0 600 179" xmlns="http://www.w3.org/2000/svg"><g fill="#fff" fill-rule="nonzero"><path d="m109.268 152.767c5.643 0 9.028-1.15 9.028-6.514 0-3.97-2.462-6.096-8.104-6.096h-7.798v12.61zm-9.849 16.569v-31.733h11.594c8.207 0 10.363 4.104 10.363 8.863 0 7.09-6.362 8.854-12.21 8.854h-6.772v14.015z"/><path d="m125.375 137.603h2.565v31.733h-2.565z"/><path d="m149.486 157.342c-2.256.922-4.616 1.108-6.872 1.283-4.003.306-6.464 1.764-6.464 4.842 0 2.791 2.463 4.104 4.926 4.104 4.206 0 8.413-2.032 8.413-6.659zm-4.513-1.314c1.025-.092 2.668-.359 3.488-.76.924-.39 1.025-1.579 1.025-2.368 0-2.688-1.641-4.627-5.744-4.627-3.591 0-6.155 1.189-6.67 5.151h-2.668c.411-5.378 4.411-7.542 9.439-7.542 4.617 0 8.209 1.816 8.209 7.099v12.426c0 2.071.615 2.555 2.77 1.763v2.074c-.308.133-1.231.44-2.052.44-.411 0-.718-.04-1.128-.132-1.847-.257-2.156-1.806-2.156-3.398-2.155 2.475-5.232 3.798-8.515 3.798-4.001 0-7.593-2.166-7.593-6.566 0-3.827 2.668-6.166 8.003-6.874z"/><path d="m158.618 175.543c.718.133 1.435.277 2.155.277 3.078 0 3.488-4.328 4.513-6.31l-8.926-23.003h2.976l7.388 19.618 7.283-19.618h2.873l-8.516 22.521c-2.156 5.724-3.591 9.296-7.285 9.296-.923 0-1.744-.132-2.462-.307z"/><path d="m183.138 159.856c.514 5.683 4.208 7.756 9.132 7.756 5.643 0 8.003-3.076 8.003-6.566 0-9.829-19.289-3.303-19.289-15.767 0-4.415 3.59-8.507 10.772-8.507 7.079 0 10.67 4.308 10.568 9.481h-2.77c0-4.854-3.796-6.925-7.798-6.925-6.156 0-8.311 3.743-7.798 7.006 1.334 8.187 19.392 2.287 19.392 14.578 0 5.83-4.309 9.257-11.594 9.257-6.669 0-11.594-3.427-11.594-10.312z"/><path d="m217.1 169.419c-.616.133-1.744.534-3.078.534-2.566 0-4.002-1.15-4.002-4.545v-16.703h-3.284v-2.195h3.284v-6.352h2.668v6.352h4.207v2.195h-4.207v15.647c0 2.257 0 3.221 2.256 3.221.719 0 1.435-.134 2.156-.307z"/><path d="m236.9 157.342c-2.257.922-4.513 1.108-6.772 1.283-4 .306-6.463 1.764-6.463 4.842 0 2.791 2.463 4.104 4.927 4.104 4.205 0 8.309-2.032 8.309-6.659zm-4.412-1.314c.924-.092 2.567-.359 3.49-.76.821-.39.923-1.579.923-2.368 0-2.688-1.539-4.627-5.643-4.627-3.693 0-6.156 1.189-6.669 5.151h-2.668c.409-5.378 4.411-7.542 9.335-7.542 4.619 0 8.312 1.816 8.312 7.099v12.426c0 2.071.514 2.555 2.771 1.763v2.074c-.411.133-1.335.44-2.052.44-.41 0-.82-.04-1.232-.132-1.744-.257-2.052-1.806-2.052-3.398-2.258 2.475-5.231 3.798-8.515 3.798-4.002 0-7.695-2.166-7.695-6.566 0-3.827 2.668-6.166 8.003-6.874z"/><path d="m255.164 169.419c-.615.133-1.745.534-3.077.534-2.565 0-4.002-1.15-4.002-4.545v-16.703h-3.181v-2.195h3.181v-6.352h2.668v6.352h4.207v2.195h-4.207v15.647c0 2.257 0 3.221 2.256 3.221.718 0 1.438-.134 2.156-.307v2.153"/><path d="m263.065 169.336h-2.567v-22.828h2.567zm-2.772-27.816v-3.917h2.976v3.917z"/><path d="m278.659 148.273c-5.54 0-7.695 4.708-7.695 9.643 0 5.685 2.668 9.654 7.695 9.654 5.54 0 7.798-4.76 7.798-9.654 0-5.376-2.155-9.643-7.798-9.643zm-10.567 9.642c0-6.647 3.591-12.034 10.567-12.034 7.181 0 10.67 5.334 10.67 12.034 0 7.236-4.207 12.036-10.67 12.036-5.745-.091-10.567-4.053-10.567-12.036"/><path d="m295.691 169.336h-2.668v-22.828h2.668v3.17c2.051-2.247 4.207-3.796 7.285-3.796 2.871 0 5.335.882 6.976 3.263 1.126 1.642 1.23 3.354 1.23 5.242v14.948h-2.668v-14.897c0-4.092-1.743-6.165-5.951-6.165-3.284 0-5.541 2.112-6.361 4.441-.514 1.457-.514 2.741-.514 4.33v12.292"/><path d="m343.912 152.767c5.643 0 9.13-1.15 9.13-6.514 0-3.97-2.563-6.096-8.206-6.096h-7.799v12.61zm-9.847 16.569v-31.733h11.594c8.209 0 10.36 4.104 10.36 8.863 0 7.09-6.259 8.854-12.208 8.854h-6.773v14.015z"/><path d="m367.817 148.273c-5.539 0-7.794 4.708-7.794 9.643 0 5.685 2.767 9.654 7.794 9.654 5.542 0 7.799-4.76 7.799-9.654-.102-5.376-2.155-9.643-7.799-9.643zm-10.566 9.642c0-6.647 3.489-12.034 10.566-12.034 7.183 0 10.569 5.334 10.569 12.034 0 7.236-4.207 12.036-10.569 12.036-5.847-.091-10.566-4.053-10.566-12.036"/><path d="m384.954 169.336h-2.668v-22.828h2.668v4.28h.104c1.433-3.665 3.591-4.905 7.387-4.905v2.874c-5.953-.133-7.489 4.268-7.489 9.377v11.202"/><path d="m407.218 169.419c-.616.133-1.744.534-2.977.534-2.667 0-4.105-1.15-4.105-4.545v-16.703h-3.179v-2.195h3.179v-6.352h2.668v6.352h4.309v2.195h-4.309v15.647c0 2.257.104 3.221 2.257 3.221.722 0 1.54-.134 2.156-.307v2.153"/><path d="m426.197 157.342c-2.257.922-4.515 1.108-6.771 1.283-4.001.306-6.463 1.764-6.463 4.842 0 2.791 2.464 4.104 4.923 4.104 4.209 0 8.312-2.032 8.312-6.659v-3.57zm-4.413-1.314c.922-.092 2.565-.359 3.489-.76.823-.39.924-1.579.924-2.368 0-2.688-1.54-4.627-5.643-4.627-3.691 0-6.155 1.189-6.668 5.151h-2.668c.409-5.378 4.413-7.542 9.336-7.542 4.618 0 8.312 1.816 8.312 7.099v12.426c0 2.071.511 2.555 2.77 1.763v2.074c-.412.133-1.336.44-2.051.44-.412 0-.822-.04-1.232-.132-1.742-.257-2.051-1.806-2.051-3.398-2.259 2.475-5.233 3.798-8.521 3.798-3.997 0-7.694-2.166-7.694-6.566 0-3.827 2.667-6.166 8.002-6.874z"/><path d="m447.129 167.57c4.411 0 7.694-3.22 7.799-8.945.202-5.725-2.36-10.352-7.799-10.352-4.823 0-7.695 4.4-7.695 9.552-.003 5.518 2.668 9.745 7.695 9.745zm-7.698 1.766h-2.667v-31.733h2.667v12.557c1.645-2.771 4.925-4.279 8.107-4.279 6.974 0 10.157 5.694 10.157 12.086 0 6.73-2.873 11.984-10.258 11.984-2.977 0-6.361-1.631-8.002-4.627v4.012"/><path d="m463.545 137.603h2.667v31.733h-2.667z"/><path d="m489.194 156.327c0-4.443-2.462-8.054-7.181-8.054s-7.183 3.744-7.695 8.054zm-14.877 2.215c0 4.925 2.668 9.029 7.695 9.029 3.385 0 6.155-1.898 6.872-5.241h2.975c-1.333 4.307-3.999 7.623-9.847 7.623-7.287 0-10.468-5.202-10.468-11.94 0-6.661 3.901-12.13 10.468-12.13 6.259 0 10.054 4.464 10.054 12.66z"/><path d="m0 .251h186.936v55.436h-179.55v48.046h-7.386v-55.436h179.548v-40.661h-179.548v-7.385"/><path d="m420.453 55.687v48.046h-7.388v-55.436h179.547v-40.661h-179.547v-7.386h186.935v55.435h-179.547"/><path d="m282.25.251v96.095h-95.314v7.387h103.111v-96.097h95.316v-7.386h-103.113"/></g></svg>