<svg clip-rule="evenodd" fill-rule="evenodd" stroke-linejoin="round" stroke-miterlimit="2" viewBox="0 0 600 205" xmlns="http://www.w3.org/2000/svg"><g fill="#fff"><path d="m511.787 4.334h-39.248l1.468.896c.042.034 3.796 2.337 6.09 3.855 2.101 1.392 2.891 2.339 2.891 6.83v16.783l-28.969-28.364h-23.056l1.381.896c.037.017 3.564 2.317 5.595 3.796 2.017 1.468 2.964 2.953 2.964 7.452v45.649c0 4.474-.81 5.421-2.824 6.665-2.216 1.353-6.508 3.846-6.55 3.863l-1.591.913h39.377l-1.589-.913c-.044-.017-4.403-2.535-6.516-3.863-1.98-1.244-2.84-2.261-2.84-6.665v-27.535l42.088 41.217v-59.894c0-4.457.74-5.379 2.886-6.838 2.328-1.58 6.608-3.805 6.661-3.83zm-387.951 45.238.183.183-.184-.171c-.821 5.668-4.118 8.54-10.221 8.54-7.116 0-10.729-3.911-10.729-11.573l-.017-35.292c.061-1.852.322-2.339.765-3.042.591-.928 1.596-2.3 1.613-2.309l.322-.445-.468-.269c-.07-.034-1.512-.869-2.868-.869l-29.135.009 1.485.896c.036.025 3.787 2.317 6.115 3.855 2.096 1.381 2.886 2.328 2.886 6.83v28.569c0 6.289.756 11.354 2.171 14.629 1.025 2.336 2.625 4.577 4.908 6.863 5.95 5.864 13.447 8.704 22.924 8.704 13.161 0 23.473-5.95 27.591-15.878 1.597-3.858 2.127-7.323 2.127-13.761v-29.126c0-4.502.801-5.449 2.893-6.83 1.25-.824 2.903-1.857 4.169-2.647 1.174.781 2.684 1.798 3.762 2.588 2.014 1.468 2.97 2.953 2.97 7.452v45.649c0 4.474-.807 5.421-2.83 6.665-2.207 1.353-6.516 3.846-6.541 3.863l-1.583.913h39.369l-1.589-.913c-.045-.017-4.412-2.535-6.524-3.863-1.964-1.244-2.833-2.261-2.833-6.665v-27.535l42.081 41.217v-59.894c0-4.466.756-5.379 2.891-6.838 2.328-1.58 6.611-3.805 6.664-3.83l1.771-.913h-39.245l1.476.896c.034.034 3.796 2.337 6.09 3.855 2.101 1.392 2.891 2.339 2.891 6.83v16.783l-28.978-28.373h-45.554c-1.355 0-2.79.835-2.857.869l-.462.269.322.445c.008.009 1.017 1.381 1.6 2.309.451.703.694 1.19.773 3.042l-.011 35.371.019.269c-.015.951-.081 1.842-.202 2.673zm166.959 19.965c-.008-.017-1.022-1.398-1.613-2.328-.521-.815-.835-1.51-.835-4.359l-.009-18.686c0-2.823.261-3.353.79-4.196.591-.93 1.6-2.311 1.608-2.32l.339-.451-.504-.269c-.053-.036-1.347-.714-2.79-.86h-29.491l1.485.902s4.337 2.659 6.281 3.858c1.902 1.199 2.877 2.572 2.877 6.681v10.172c-2.199.695-4.457 1.006-7.149 1.006-11.867 0-17.896-6.401-17.896-19.058 0-12.049 6.6-18.971 18.103-18.971 7.202 0 14.777 1.667 24.011 8.617l-.045-.496-2.118-20.041-.148-1.485-1.451-.339-1.398-.322c-6.169-1.423-8.575-1.807-12.248-2.267-2.154-.26-3.328-.4-6.048-.4 0 0-.771-.009-1.163-.009-21.683 0-37.424 15.179-37.424 36.069 0 20.571 15.819 35.511 37.623 35.511 3.804 0 11.155-.704 15.775-1.659.879-.19 1.372-.322 2.067-.468.14-.045.297-.078.454-.115 2.614-.616 5.256-1.285 7.939-2.109l3.387-1.051zm250.491-40.341c-.93-.235-1.877-.459-2.807-.686l-.261-.053c-6.575-1.555-10.883-2.788-10.883-5.611 0-.956.26-1.704.843-2.25 1.154-1.174 3.577-1.824 6.802-1.824.538 0 1.092.026 1.65.07.07 0 .137 0 .199.009.12.008.235.025.339.033 5.958.521 13.065 3.11 20.352 7.959l-1.129-20.442-1.588-.529c-.104-.042-.877-.303-3.155-.799-1.364-.305-8.399-1.823-12.62-2.12-1.365-.104-2.72-.157-3.998-.157-15.419 0-24.454 7.314-25.417 20.607-.488 6.645 2.779 13.133 8.323 16.503 4.933 2.998 12.29 5.264 17.677 6.914l1.232.376c3.354 1.033 7.236 3.118 6.707 7.149-.269 2.101-1.104 4.362-7.427 4.362-.913 0-1.919-.045-3.022-.149-4.379-.384-9.478-2.877-15.125-7.384-.224-.182-.409-.339-.538-.418l-3.502-2.65-3.594-2.726 1.431 25.922 1.6.538c.05.008.79.252 3.143.781 2.328.513 9.982 1.841 13.873 2.121 1.261.095 2.555.146 3.824.146 16.859 0 27.961-8.382 28.291-21.361.314-12.492-6.827-20.683-21.22-24.331zm-108.263 9.626c0 20.448-16.288 35.867-37.876 35.867-21.733 0-37.5-14.89-37.5-35.399 0-20.84 15.688-35.954 37.31-35.954 21.7 0 38.066 15.254 38.066 35.486zm-357.032-.036c0 8.054-2.63 15.976-7.219 21.7-2.023 2.546-4.516 4.829-7.435 6.793-6.872 4.586-13.195 6.289-23.35 6.289h-36.208l1.546-.893c0-.02 4.483-2.634 6.57-3.894 2.005-1.205 2.832-2.387 2.832-6.671v-39.959c0-4.387-1.208-5.611-2.928-6.844-8.931-6.516-9.695-13.996-9.712-14.307l-.087-1 .832.555c.036.019 3.006 1.93 6.289 2.686 3.824.877 9.054 1.023 20.067 1.023l13.812.061c6.942.278 12.137 1.547 17.132 4.161 11.181 5.866 17.859 17.183 17.859 30.3zm261.557 17.965h-15.705v-10.138s14.307-.009 14.705-.009c1.921-.025 4.006-.07 5.196.522 1.381.661 2.345 2.084 2.362 2.092l.695 1.054-.026-22.188-.582.348c-.017.008-.947.582-1.746.93-.703.285-1.182.426-4.333.426h-16.271v-8.646h16.296c4.185 0 5.098.376 7.488 2.059l4.031 3.085-2.129-21.952h-55.432l1.477.896c.036.034 3.798 2.337 6.082 3.855 2.092 1.401 2.893 2.356 2.893 6.83v46.204c0 4.544-.694 5.35-2.823 6.673-2.121 1.311-6.488 3.846-6.525 3.863l-1.58.913h57.471l5.144-23.114s-4.631 3.345-5.95 4.16c-2.564 1.571-4.561 2.137-10.738 2.137zm-56.74-46.96 1.395 13.202c-7.473-4.328-13.977-5.46-20.212-5.46-6.742 0-12.006 2.14-15.626 5.935-3.573 3.745-5.602 9.191-5.602 16.161 0 7.299 1.896 12.745 5.346 16.415 3.511 3.737 8.708 5.768 15.675 5.768 3.047 0 5.601-.364 8.09-1.151 1.3-.411 2.184-1.616 2.184-2.98v-10.172c0-3.331-.624-5.298-1.559-6.715-.4-.607-.865-1.129-1.405-1.601h16.861c-.453.881-.742 2.032-.742 4.971l.009 18.687c0 3.35.427 4.539.998 5.511-2.382.711-4.73 1.302-7.056 1.85-.174.04-.346.081-.509.127-.627.133-1.116.261-1.946.441-4.435.915-11.479 1.591-15.127 1.591-19.942 0-34.498-13.572-34.498-32.386 0-19.115 14.459-32.944 34.299-32.944.381 0 1.129.009 1.129.009h.034c2.548 0 3.649.133 5.666.377 3.575.447 5.92.824 11.927 2.21l.669.154zm272.581-1.081.686 12.426c-5.963-3.191-11.677-4.931-16.635-5.365 0 0-.53-.049-.673-.052-.6-.046-1.202-.072-1.787-.072-4.279 0-7.418 1.16-8.982 2.709-1.156 1.103-1.788 2.568-1.788 4.49 0 2.165 1.072 4.009 3.464 5.432 2.06 1.227 5.483 2.193 9.825 3.22l.719.084s-.618-.062-.618-.062.879.115.879.115l-.741-.089c.921.225 1.859.447 2.78.68 12.659 3.208 19.14 10.236 18.864 21.222-.29 11.396-10.364 18.315-25.167 18.315-1.191 0-2.406-.048-3.589-.137-.003 0-.007-.001-.011-.001-3.762-.271-11.159-1.557-13.419-2.054-1.127-.254-1.903-.444-2.418-.576l-.942-17.047 2.192 1.668c6.248 4.986 11.946 7.627 16.791 8.054 1.207.113 2.307.162 3.306.162 5.274 0 7.676-1.527 8.935-3.063 1.001-1.222 1.412-2.627 1.591-4.02.742-5.668-4.17-9.086-8.885-10.54l-1.241-.378c-5.167-1.582-12.235-3.721-16.966-6.595-4.566-2.776-7.231-8.132-6.83-13.604 0-.001.001-.002.001-.003.411-5.672 2.463-10.108 6.138-13.087 3.832-3.105 9.303-4.621 16.162-4.621 1.202 0 2.477.05 3.761.148.006 0 .012.001.017.001 4.068.286 10.843 1.759 12.158 2.053.005.001.011.003.017.004 1.182.257 1.989.467 2.406.583zm-123.491 30.112c0 18.716-14.991 32.742-34.751 32.742-19.871 0-34.375-13.522-34.375-32.274 0-19.063 14.407-32.829 34.185-32.829 19.858 0 34.941 13.846 34.941 32.361zm-286.748-31.372c-.582.486-1.059.993-1.459 1.581-.922 1.355-1.512 3.235-1.512 6.884v29.126c0 5.875-.432 9.045-1.889 12.565-3.67 8.847-12.975 13.949-24.704 13.949-8.556 0-15.348-2.505-20.721-7.795-1.964-1.968-3.361-3.883-4.246-5.894-1.291-2.995-1.911-7.635-1.911-13.382v-28.569c0-3.647-.585-5.525-1.503-6.879-.398-.588-.873-1.095-1.453-1.58l16.707-.005c-.388.761-.648 1.703-.715 3.704-.001.035-.001.07-.001.105l.017 35.293c0 4.791 1.286 8.36 3.528 10.781 2.317 2.502 5.728 3.915 10.326 3.915 4.562 0 7.862-1.391 10.1-3.836 2.148-2.347 3.377-5.807 3.449-10.466l-1.098 1.08c.443-.484.828-.962.989-1.307l.09-.089.011-35.371c0-.045-.001-.089-.003-.133-.084-1.98-.337-2.921-.719-3.677zm-137.922-1.483c.391.119.789.227 1.192.319.001.001.002.001.003.001 3.956.907 9.365 1.102 20.757 1.102 0 0 13.749.061 13.749.061 6.375.26 11.159 1.4 15.753 3.803 10.152 5.328 16.184 15.623 16.184 27.533 0 7.324-2.359 14.54-6.532 19.745-.003.003-.006.007-.009.011-1.829 2.303-4.088 4.364-6.727 6.141-6.356 4.24-12.219 5.76-21.611 5.76h-25.037c.554-.466 1.018-.976 1.412-1.57.907-1.366 1.49-3.292 1.49-6.763v-39.959c0-2.88-.484-4.706-1.163-6.03-.761-1.485-1.79-2.435-3.054-3.343-3.172-2.316-5.164-4.748-6.407-6.811zm151.938 1.483h11.767s28.067 27.481 28.067 27.481c.899.88 2.238 1.136 3.397.648 1.16-.488 1.914-1.623 1.914-2.881v-16.783c0-3.64-.584-5.515-1.504-6.872-.399-.588-.875-1.096-1.457-1.584h17.145c-.601.507-1.085 1.026-1.487 1.622-.918 1.361-1.485 3.213-1.485 6.834v52.459s-36.769-36.014-36.769-36.014c-.899-.881-2.238-1.136-3.397-.649-1.16.488-1.915 1.623-1.915 2.881v27.535c0 3.588.619 5.479 1.534 6.816.387.565.84 1.049 1.378 1.5h-17.01c.538-.444.986-.919 1.367-1.472.909-1.319 1.512-3.198 1.512-6.844v-45.649c0-5.124-1.086-7.287-3.057-9.028zm283.821.009h11.757s28.058 27.472 28.058 27.472c.899.88 2.238 1.136 3.398.648 1.159-.488 1.913-1.623 1.913-2.881v-16.783c0-3.64-.584-5.515-1.504-6.872-.399-.588-.875-1.096-1.457-1.584h17.145c-.604.509-1.089 1.031-1.491 1.631-.914 1.362-1.473 3.214-1.473 6.825v52.46s-36.777-36.016-36.777-36.016c-.899-.88-2.238-1.135-3.397-.648-1.16.488-1.914 1.623-1.914 2.881v27.535c0 3.589.616 5.481 1.533 6.818.387.564.84 1.048 1.379 1.498h-17.006c.537-.445.985-.92 1.366-1.474.908-1.319 1.511-3.197 1.511-6.842v-45.649c0-5.116-1.077-7.28-3.041-9.019zm-138.285 0h41.991l1.177 12.142c-1.997-1.234-3.534-1.584-7.731-1.584h-16.296c-1.726 0-3.125 1.399-3.125 3.125v8.646c0 1.725 1.399 3.125 3.125 3.125h16.271c1.698 0 2.785-.053 3.542-.141l.012 11.07c-1.482-.327-3.371-.386-5.16-.362-.691 0-14.667.008-14.667.008-1.725.001-3.123 1.4-3.123 3.125v10.138c0 1.726 1.399 3.125 3.125 3.125h15.705c6.755 0 9.157-.703 11.906-2.32l-2.868 12.887h-43.777c.563-.457 1.019-.933 1.401-1.485.897-1.298 1.464-3.131 1.464-6.839v-46.204c0-3.627-.587-5.502-1.509-6.863-.401-.591-.879-1.102-1.463-1.593zm113.511 31.363c0-6.594-2.17-11.993-5.877-15.773-3.726-3.802-9.05-6.021-15.553-6.021-6.324 0-11.421 2.248-14.967 6.171-3.445 3.812-5.454 9.29-5.454 16.091 0 6.605 2.115 12.014 5.718 15.802 3.654 3.842 8.875 6.079 15.252 6.079 12.213 0 20.881-9.121 20.881-22.349zm-357.225.146c0-6.587-1.82-11.733-4.998-15.271-3.283-3.656-8.054-5.713-14.171-5.713h-7.782c-1.726 0-3.125 1.399-3.125 3.125v35.634c0 1.726 1.399 3.125 3.125 3.125h7.782c6.115 0 10.885-2.05 14.167-5.688 3.181-3.526 5.002-8.653 5.002-15.212zm354.1-.146c0-11.337-7.186-18.669-18.305-18.669-10.668 0-17.296 7.332-17.296 19.137 0 11.388 7.004 18.756 17.845 18.756 10.449 0 17.756-7.906 17.756-19.224zm-357.225.146c0-11.343-5.846-17.859-16.044-17.859h-7.782v35.634h7.782c10.198 0 16.044-6.491 16.044-17.775z"/><path d="m550.152 86.819h-39.253l1.476.896c.034.025 3.788 2.337 6.099 3.846 2.092 1.401 2.882 2.348 2.882 6.839v16.772l-28.978-28.362-23.047.009 1.373.885c.033.028 3.56 2.328 5.594 3.807 2.006 1.468 2.961 2.953 2.961 7.452v45.649c0 4.474-.806 5.421-2.812 6.665-2.208 1.353-6.516 3.846-6.57 3.863l-1.563.913h39.352l-1.572-.913c-.045-.025-4.412-2.535-6.524-3.863-1.973-1.244-2.833-2.261-2.833-6.665v-27.535l42.089 41.209v-59.886c0-4.466.748-5.379 2.883-6.839 2.328-1.58 6.611-3.804 6.664-3.829zm28.617 24.862c-.939-.235-3.059-.739-3.059-.739-6.592-1.555-10.901-2.788-10.901-5.612 0-.955.278-1.703.841-2.257 1.165-1.166 3.571-1.816 6.802-1.816.54 0 2.087.104 2.199.112 5.958.521 13.074 3.11 20.36 7.959l-1.145-20.442-1.58-.538c-.107-.033-.88-.294-3.138-.79-1.373-.305-8.418-1.823-12.629-2.129-1.373-.103-2.728-.148-4.006-.148-15.427 0-24.445 7.314-25.417 20.607-.488 6.645 2.787 13.133 8.303 16.503 4.936 2.998 12.31 5.256 17.688 6.914l1.233.375c3.37 1.034 7.245 3.118 6.715 7.15-.286 2.101-1.104 4.362-7.435 4.362-.913 0-1.913-.045-3.023-.149-4.361-.384-9.46-2.877-15.116-7.385-.227-.19-.409-.338-.538-.417l-3.493-2.65-3.606-2.726 1.435 25.922 1.599.538c.051.008.799.252 3.143.773 2.328.521 9.982 1.849 13.881 2.129 1.253.095 2.538.146 3.824.146 16.843 0 27.953-8.382 28.284-21.361.322-12.492-6.828-20.683-21.221-24.331zm-189.642 37.405c-.521-.815-.84-1.53-.84-4.367v-18.686c0-2.824.252-3.356.79-4.197.583-.93 1.597-2.302 1.605-2.311l.347-.459-.509-.269c-.062-.036-1.356-.714-2.799-.86h-29.491l1.485.91s4.342 2.642 6.289 3.866c1.894 1.191 2.866 2.544 2.866 6.671v10.174c-2.196.695-4.446 1.014-7.132 1.014-11.884 0-17.901-6.426-17.901-19.066 0-12.057 6.591-18.963 18.094-18.963 7.208 0 14.792 1.642 24.017 8.6l-.042-.495-2.121-20.042-.165-1.476-1.432-.339-1.409-.331c-6.166-1.423-8.572-1.798-12.231-2.266-2.163-.261-3.342-.392-6.062-.392 0 0-.765-.009-1.163-.009-21.674 0-37.424 15.167-37.424 36.069 0 20.571 15.828 35.511 37.623 35.511 3.813 0 11.153-.704 15.775-1.667.877-.182 1.381-.322 2.067-.488.149-.033.294-.059.451-.095 2.608-.625 5.256-1.294 7.94-2.109l3.389-1.051-.4-.557c-.017-.017-1.026-1.382-1.617-2.32zm81.813-27.72c0 20.442-16.279 35.861-37.867 35.861-21.734 0-37.5-14.89-37.5-35.399 0-20.831 15.679-35.965 37.309-35.965 21.7 0 38.058 15.263 38.058 35.503zm-143.452 30.093 5.855 4.594h-36.217s3.076-2.944 4.457-4.395c1.199-1.261 1.815-2.51.922-4.648-.202-.521-.617-1.65-1.121-3.084h-25.098c-.501 1.381-.91 2.493-1.171 3.084-1.017 2.485-.79 3.188.625 4.527 1.538 1.485 5.317 4.508 5.317 4.508l-37.987.008-17.428-21.022-.05-.053-.028-.042c-1.894-2.597-3.326-4.073-4.645-4.771-.174-.095-.496-.207-1.079-.339v14.778c0 4.345.827 5.135 2.875 6.698 2.103 1.608 8.236 4.751 8.236 4.751h-40.498s6.194-3.465 8.113-4.768c1.79-1.207 2.858-2.269 2.858-6.681v-46.117c0-4.275-.93-5.603-2.883-6.819-2.025-1.261-6.115-3.841-6.115-3.841l-1.435-.913s31.135-.008 32.967-.008c6.332.095 8.861.288 12.38 1.355 8.477 2.44 13.732 9.494 13.732 18.4 0 4.143-1.173 7.99-3.37 11.119-1.641 2.44-3.849 4.463-6.367 5.88 7.244 9.685 12.97 16.896 16.494 20.77.236-.409 20.972-50.487 20.972-50.487.07-.356.112-.678.112-.947 0-.356 0-.773-1.042-1.72l-4.9-4.466h27.294s22.726 57.637 22.891 57.984c0 0 .798 1.72 1.451 2.712.972 1.443 1.311 1.936 3.883 3.953zm-196.478-33.513v-13.31c0-4.387-1.216-5.612-2.936-6.844-8.931-6.516-9.679-13.996-9.704-14.307l-.087-1 .835.555c.025.019 3.006 1.93 6.289 2.686 3.813.877 9.052 1.023 20.059 1.023l13.923.061c6.942.278 12.032 1.547 17.027 4.16 11.189 5.867 17.867 17.184 17.867 30.301 0 8.054-2.63 15.976-7.225 21.699-2.025 2.547-4.518 4.83-7.438 6.794-6.871 4.586-13.203 6.289-23.349 6.289h-35.867l.135-.271 1.072-.623c.009-.019 4.483-2.633 6.559-3.894 2.005-1.204 2.84-2.386 2.84-6.67v-4.518c4.104-4.126 10.682-4.687 14.221-1.98 1.511 1.156 3.598 1.135 5.081-.014v1.145h7.782c5.112 0 9.132-1.63 11.87-4.676.778-.328 2.578-3.215 2.54-4.032 1.082-2.528 1.645-5.567 1.645-9.067 0-11.343-5.855-17.859-16.055-17.859h-7.782v13.774c-.615-.046-1.233-.071-1.855-.071-1.064 0-2.149.09-3.204.235l-.025-.11c-.483-1.914-2.242-3.226-4.214-3.144-3.702.155-7.082 1.702-10.004 3.668zm238.015 3.116h16.874c-.453.881-.737 2.042-.737 4.971v18.686c0 3.325.429 4.533.998 5.509-2.383.705-4.737 1.296-7.059 1.853l-.468.099c-.655.158-1.135.292-1.972.466 0 0-.001 0-.002 0-4.435.925-11.478 1.602-15.137 1.602-19.934 0-34.498-13.572-34.498-32.386 0-19.125 14.467-32.944 34.299-32.944.386 0 1.128.009 1.128.009h.035c2.547 0 3.655.125 5.677.368 3.56.455 5.907.824 11.908 2.209l.684.16 1.396 13.195c-7.472-4.325-13.981-5.441-20.22-5.441-6.743 0-12.004 2.137-15.621 5.928-3.571 3.741-5.598 9.185-5.598 16.16 0 7.289 1.892 12.736 5.34 16.411 3.51 3.742 8.709 5.78 15.686 5.78 3.042 0 5.588-.373 8.075-1.159 1.299-.411 2.182-1.617 2.182-2.98v-10.174c0-3.347-.625-5.31-1.556-6.719-.402-.609-.87-1.131-1.414-1.603zm221.84-29.874.696 12.431c-5.963-3.19-11.681-4.929-16.638-5.363-.013-.001-.026-.002-.039-.003-.034-.003-.066-.011-.1-.016l-.001.015c-.152-.033-.321-.05-.51-.05-.014 0-.028 0-.042.001-.589-.046-1.196-.071-1.779-.071-4.321 0-7.453 1.172-9.012 2.731-1.11 1.093-1.756 2.556-1.756 4.467 0 2.166 1.072 4.01 3.466 5.434 2.062 1.226 5.487 2.192 9.838 3.218.055.013 2.1.5 3.017.73 12.656 3.208 19.144 10.234 18.861 21.219v.001c-.291 11.396-10.372 18.316-25.16 18.316-1.206 0-2.412-.048-3.587-.137-.004 0-.008-.001-.013-.001-3.771-.271-11.171-1.558-13.422-2.062-.002 0-.003 0-.005-.001-1.126-.25-1.903-.438-2.418-.569l-.944-17.05 1.717 1.303c.056.042.113.082.172.12l.307.251c6.257 4.986 11.955 7.626 16.781 8.053 1.213.113 2.307.162 3.306.162 5.281 0 7.677-1.528 8.935-3.064.997-1.216 1.408-2.614 1.597-4.002 0-.005.001-.01.001-.014.745-5.671-4.156-9.09-8.897-10.544l-1.233-.376c-5.16-1.591-12.243-3.72-16.977-6.594-4.543-2.777-7.215-8.133-6.814-13.606 0-.001 0-.001.001-.001.414-5.674 2.465-10.11 6.139-13.089 3.829-3.105 9.299-4.621 16.161-4.621 1.203 0 2.479.042 3.771.139.003.001.006.001.009.001 4.06.294 10.853 1.768 12.176 2.063.003 0 .006.001.009.002 1.216.267 1.961.458 2.387.577zm-123.05 30.178c0 18.71-14.983 32.736-34.742 32.736-19.872 0-34.375-13.522-34.375-32.274 0-19.055 14.399-32.84 34.184-32.84 19.859 0 34.933 13.855 34.933 32.378zm-187.909-31.431h17.231c3.967 10.058 21.727 55.079 22.187 56.183.12.256.971 2.043 1.671 3.106.006.009.012.019.018.028.965 1.432 1.386 2.082 3.315 3.676h-19.724c.594-.778 1.017-1.59 1.248-2.477.334-1.28.317-2.76-.45-4.611-.195-.509-.591-1.588-1.07-2.951-.44-1.251-1.622-2.088-2.948-2.088h-25.098c-1.314 0-2.489.822-2.937 2.058-.47 1.294-.849 2.337-1.093 2.891-.012.025-.022.051-.033.076-.82 2.004-.963 3.325-.792 4.38.155.948.545 1.8 1.318 2.716l-28.211.006s-16.49-19.891-16.49-19.891l-.001.002c-2.265-3.098-4.067-4.785-5.651-5.628-.313-.168-.864-.406-1.867-.633-.926-.209-1.898.014-2.64.607s-1.174 1.491-1.174 2.441v14.778c0 2.866.383 4.542.993 5.776.493.999 1.146 1.763 2.049 2.548h-18.183c.502-.431.943-.9 1.33-1.452.945-1.348 1.645-3.269 1.645-6.872v-46.117c0-3.438-.609-5.42-1.534-6.834-.401-.614-.869-1.14-1.419-1.617l22.339-.005c5.872.088 8.227.229 11.496 1.221l.042.012c7.09 2.041 11.472 7.949 11.472 15.397 0 3.472-.962 6.702-2.802 9.324-.012.017-.024.034-.035.051-1.369 2.033-3.209 3.719-5.308 4.901-.784.441-1.339 1.198-1.525 2.078s.017 1.797.555 2.517c7.327 9.794 13.122 17.083 16.686 21.001.672.738 1.656 1.111 2.648 1.004.993-.108 1.874-.683 2.372-1.549.237-.412 21.15-50.85 21.15-50.85.079-.191.139-.389.179-.592.115-.582.171-1.11.171-1.55 0-.444-.032-.914-.24-1.512-.136-.391-.362-.903-.89-1.549zm-156.389-1.483c.39.119.787.227 1.189.319 0 0 .001.001.001.001 3.945.907 9.364 1.102 20.751 1.102 0 0 13.86.061 13.86.061 6.371.26 11.056 1.401 15.648 3.804 10.159 5.327 16.192 15.622 16.192 27.532 0 7.324-2.359 14.539-6.537 19.743-.003.004-.006.007-.008.011-1.833 2.304-4.092 4.366-6.732 6.143-6.355 4.24-12.226 5.76-21.61 5.76h-25.045c.553-.465 1.017-.974 1.411-1.565.911-1.368 1.498-3.295 1.498-6.768v-3.116c2.914-2.253 6.919-2.642 9.198-.899 1.622 1.24 3.623 1.705 5.527 1.415.433.229.927.358 1.452.358h7.782c6.117 0 10.89-2.05 14.174-5.689.62-.551 1.341-1.362 1.919-2.284.567-.904.978-1.883 1.212-2.683 1.215-2.859 1.875-6.29 1.875-10.244 0-6.588-1.822-11.734-5.003-15.273-3.285-3.654-8.059-5.711-14.177-5.711h-7.782c-1.726 0-3.125 1.399-3.125 3.125v10.614l-.061.003c-1.397-1.961-3.72-3.16-6.243-3.055-2.367.099-4.628.673-6.747 1.55h-.001v-8.07c0-2.883-.487-4.71-1.169-6.035-.763-1.483-1.794-2.432-3.056-3.338-3.166-2.311-5.152-4.742-6.393-6.811zm355.821 1.488 11.766-.004s28.067 27.469 28.067 27.469c.898.88 2.237 1.135 3.397.648 1.159-.488 1.913-1.623 1.913-2.881v-16.772c0-3.636-.582-5.51-1.499-6.868-.397-.589-.872-1.099-1.452-1.588h17.136c-.602.508-1.086 1.028-1.488 1.626-.914 1.36-1.477 3.211-1.477 6.83v52.453s-36.777-36.009-36.777-36.009c-.899-.88-2.238-1.135-3.398-.648-1.159.488-1.914 1.623-1.914 2.881v27.535c0 3.587.615 5.478 1.53 6.815.387.565.84 1.05 1.378 1.501h-17.006c.538-.446.985-.923 1.367-1.479.903-1.317 1.503-3.195 1.503-6.837v-45.649c0-5.121-1.084-7.283-3.046-9.023zm-25.2 31.426c0-6.593-2.17-11.99-5.878-15.768-3.728-3.798-9.053-6.015-15.56-6.015-6.328 0-11.427 2.246-14.976 6.164-3.45 3.809-5.462 9.284-5.462 16.081 0 6.61 2.122 12.022 5.732 15.81 3.661 3.841 8.887 6.076 15.261 6.076 12.206 0 20.883-9.127 20.883-22.348zm-3.125 0c0-11.335-7.186-18.658-18.313-18.658-10.676 0-17.313 7.323-17.313 19.12 0 11.396 7.029 18.761 17.868 18.761 10.444 0 17.758-7.911 17.758-19.223zm-155.475 9.26c1.021 0 1.977-.499 2.562-1.336.584-.837.723-1.907.371-2.865l-6.247-17.027c-.446-1.216-1.596-2.031-2.891-2.049s-2.467.765-2.946 1.969l-6.782 17.027c-.383.962-.265 2.052.317 2.91.581.857 1.55 1.371 2.586 1.371zm0-3.125-6.248-17.027-6.782 17.027zm-61.272-20.938c0-2.248-.662-4.171-2.043-5.705-1.712-1.902-4.803-3.34-10.05-3.362l-2.359.02c-1.716.015-3.099 1.409-3.099 3.125v16.139c0 1.705 1.367 3.095 3.071 3.124.995.018 1.993.018 2.349.018 2.924 0 5.872-.492 8.137-2.356 2.201-1.811 3.994-5.015 3.994-11.003zm-3.125 0c0-3.544-2.311-5.914-8.981-5.942l-2.32.02v16.139c.972.017 1.947.017 2.295.017 4.395 0 9.006-.972 9.006-10.234z"/><path d="m163.748 178.882c0 9.886-9.833 17.601-20.972 16.027 2.841 2.65 9.721 4.449 13.388 2.79-2.093 3.788-12.169 9.155-21.674 6.637-8.895-2.373-12.803-10.875-13.03-16.279-4.205 4.205-3.067 11.057-.07 13.769-3.474-.905-8.704-4.511-9.589-10.982-.748-5.558 2.345-11.909-3.457-17.016-3.468-3.05-8.741-7.409-12.153-10.096-7.16-5.603-4.448-9.721-6.056-12.682-1.233-2.283-4.239-3.569-6.037-5.656-1.816-2.101-1.746-5.219-.729-7.009-.305 2.501 1.485 4.37 3.866 5.16 2.639.868 4.863.148 7.113 1.459 2.712 1.564 1.451 5.794 3.415 7.298 1.762 1.328 6.157-.434 9.911 2.589 3.771 3.022 12.214 10.048 15.854 13.046 6.541 5.387 13.29-.756 11.048-6.922 6.645 3.936 7.377 14.94 1.852 18.78 5.202 1.183 14.593-1.148 14.593-8.687 0-4.614-4.256-7.869-7.298-8.382 10.676-1 20.025 6.488 20.025 16.156zm-68.445-11.362c-3.829 6.49-11.855 14.872-20.022 14.872-15.054 0-22.604-21.265-5.821-38.707-.947-.305-1.866-.35-2.188-.35-1.417 0-2.807.375-3.717 1l-7.43 6.376 2.096-10.379c.129-.356.26-.706.406-1.054-3.726 1.897-7.34 4.511-8.729 6.021l-6.724 7.323.678-10.329.46-2.275c.347-1.608.764-3.614.512-4.267-.086-.199-.243-.355-.434-.493-3.118 2.407-11.595 9.895-12.595 21.022 0 0 1.65-2.336 3.093-2.885.947-.364 1.77.106.868 2.885-.347 1.084-8.6 23.403 7.617 38.848 0 0-1.779-4.528-.703-5.917.521-.658 1.199-.72 2.154.479.687.927 1.409 1.815 2.199 2.684v.017l.009-.009c1.336 1.53 2.815 2.972 4.421 4.214 4.846 3.386 11.441 6.123 18.937 6.123 19.971 0 30.561-13.682 36.466-25.26-.269-.331-.468-.67-.832-.992-3.022-2.658-7.401-6.289-10.721-8.947zm-43.772-46.101c.653-2.563-4.421-6.93-6.306-7.748 6.959-.278 10.424 1.025 10.424 1.025-1.815-2.675-2.406-6.777-1.373-10.015 3.796 9.093 17.355 10.553 20.72 18.111-.479-3.266-3.555-6.914-7.124-9.051-1.919-4.962-.488-14.1 1.849-16.61-.816 13.136 17.92 20.649 21.823 30.188-2.286-8.174-11.024-13.343-15.178-18.251-1.362-3.241-.303-8.749 1.173-10.626-.442 8.791 9.052 15.654 14.134 20.571 5.967 5.793 7.67 10.911 6.863 15.097 1.303.35 3.11 1.616 2.804 3.77 1.914-.442 3.858-2.641 4.32-3.978.936 6.525-2.902 13.439-7.194 15.498 0 0 1.165-3.118-.807-5.499-1.938-2.353-7.418-2.39-9.287-2.241 0 0 2.284-3.379 1.373-5.091-1.112-2.109-11.858-1.19-16.663.558 1.634-.177 5.516.258 6.864.824-.757 1.12-2.729 5.854-1.303 7.272 1.303 1.294 3.014-.966 3.014-.966s-1.678 5.185-.487 6.384c1.207 1.191 3.779.347 3.779.347-1.597 4.048-7.852 6.855-12.206 6.855 1.555-.495 4.127-3.283 4.519-4.933-1.146.563-4.126.894-5.283.686 1.417-.574 4.249-4.23 3.353-8.306-1.275-5.967-9.606-6.723-13.778-3.838 1.348-4.014 5.396-7.765 8.576-8.992-1.849-.65-4.032-1.199-6.368-1.614 2.659-2.182 9.348-3.961 12.752-3.771-5.194-1.347-14.707.323-19.058 5.472 1.381 0 4.978.678 6.368 1.112-5.987 1.087-14.108 6.645-16.515 9.27.633-3.457 1.608-6.376.782-8.461-1.146-2.91-4.698-4.154-11.789-2.695 4.788-4.776 14.568-7.748 15.229-10.354zm89.136 6.533c-14.924.72-27.712 13.369-34.332 22.316 1.182.401 2.373.947 3.555 1.886 1.381 1.112 3.404 2.762 5.586 4.569 1.771-3.908 5.757-11.814 11.873-18.826 5.586-6.393 15.315-7.009 20.414-3.109 3.286-2.978 14.612-5.768 20.579-4.074-3.622-3.952-11.354-9.25-19.885-9.25-7.034 0-11.012 3.457-12.029 1.902-1.294-1.98 4.76-4.925 4.76-4.925-8.315.348-14.352 10.111-16.87 8.912-1.502-.731 2.241-5.455 2.241-5.455-7.601 4.413-13.968 13.767-15.288 19.459 6.993-8.558 20.571-14.699 29.396-13.405zm-48.098 6.116-.653-2.121c-.07-.224-1.711-5.401-7.244-7.435l-3.023-1.12.877 3.101c.756 2.658 2.154 7.575 7.827 7.575zm-42.167-23.846c-.286-2.241-.132-4.544.529-6.611l2.92-9.094 3.667 8.808c1.067 2.563 3.316 4.429 5.983 6.132-.235-4.23.522-8.928 2.034-12.161-.313-6.818 4.404-11.917 10.032-11.917 9.634 0 12.214 11.657 7.741 20.005 2.075 3.126 5.238 6.029 8.034 8.547 1 .905 1.947 1.757 2.782 2.555.26.269.398.504.658.765 4.188-5.673 7.253-13.579 7.253-19.554 0-12.388-8.051-23.882-24.798-24.784-10.626-.566-17.8 2.709-23.143 8.157-2.415 2.474-7.793 8.713-6.768 20.005.392 4.256 1.815 7.228 3.076 9.147z"/></g></svg>