<svg clip-rule="evenodd" fill-rule="evenodd" stroke-linejoin="round" stroke-miterlimit="2" viewBox="0 0 596 439" xmlns="http://www.w3.org/2000/svg"><g fill="#fff"><path d="m14.589 374.714v63.823h241.994v-97.575l41.014 92.144 41.013-92.144v97.575h241.994v-152.559c-.651.524-1.309 1.038-1.971 1.541-13.194 10.036-28.624 16.627-37.986 19.174-8.422 2.291-15.879 6.1-23.4 5.683-3.76-.209-7.605-1.934-10.301-5.365-2.695-3.43-4.449-8.238-5.689-15.022-1.775-9.705-.393-16.705 3.589-21.171 3.982-4.467 9.782-5.736 15.202-5.923 3.453-.12 7.591-1.468 10.991-2.911 6.094-2.586 12.257-5.117 16.556-7.748 2.15-1.315 3.808-2.654 4.774-3.833.95-1.158 1.226-1.996 1.203-2.949-.037-.034-.196-.201-.846-.428-1.436-.501-4.633-.902-9.473-.742-4.896.16-12.441.744-19.608.601-7.168-.144-14.016-.422-18.594-4.612-3.206-2.934-5.077-5.738-6.157-8.716-.457-1.261-.739-2.861-1.05-4.18-2.229 1.278-4.684 2.069-7.143 2.355-4.573.531-9.219-.384-12.989-2.666-3.359-2.035-5.569-4.331-7.277-6.564-1.068-1.396-2.051-2.747-3.027-4.102-7.331 4.286-17.81 10.944-25.348 23.994-4.059 7.028-4.338 13.619-2.67 17.783 1.669 4.165 4.613 6.226 9.711 5.372 12.315-2.063 17.099-6.589 23.756-12.313 3.821-3.286 9.666-7.24 16.228-6.019 3.281.61 6.41 3.168 7.886 6.984 1.475 3.817 1.787 8.786.976 15.648-.685 5.797-4.125 10.485-8.42 14.502s-9.583 7.548-14.884 11.196c-11.759 8.093-30.315 11.756-44.107 11.698-11.139-.048-21.172-4.776-28.969-10.514-3.768-2.772-6.96-5.75-9.601-8.674.162 3.664.427 7.576-.286 11.305-.876 4.576-3.106 8.867-7.448 11.422-2.091 1.231-4.308 2.296-8.278 4.757-4.603 2.852-8.558 4.068-12.204 3.246-3.645-.823-5.996-3.799-7.139-6.719-2.287-5.839-1.676-12.837-1.503-16.493.062-1.322-.089-6.14-.446-12.211-.357-6.07-.899-13.617-1.552-21.274-.269-3.154-.625-5.979-.937-9.105-.18 2.088-.383 3.761-.552 5.902-1.223 15.469-2.123 31.723-2.118 36.433.004 3.436-1.316 6.531-3.317 8.837-2.001 2.307-4.596 3.913-7.359 5.068-5.526 2.311-11.807 2.916-16.907 2.313-2.63-.312-4.869-1.045-6.651-2.391s-2.907-3.27-3.448-5.127c-1.082-3.716-.548-7.284-.509-10.839.044-4.157-.251-10.334-.379-16.596-3.334 6.741-6.556 13.693-10.665 20.447-4.288 8.01-9.729 12.872-17.706 14.788-4.772 1.147-8.549 1.414-11.754.778-3.206-.635-5.822-2.387-7.356-4.636-3.067-4.496-2.527-9.718-2.528-13.586-.003-8.326.055-12.141-.004-15.591-4.845 13.705-9.979 32.434-12.217 43.329-.815 3.963-1.833 6.887-3.25 9.163-1.417 2.275-3.423 3.89-5.552 4.562-4.258 1.342-7.693-.29-9.997-.63-5.148-.761-8.667-1.834-10.121-2.249-2.094 7.743-7.744 16.605-16.252 24.538-9.481 8.84-22.417 16.244-37.466 17.426-14.207 1.117-22.696.745-30.016-2.146-5.339-2.108-10.052-5.801-15.397-10.301-.029.408.075 1.023.025 1.414-.338 2.654-1.336 5.077-2.97 6.921-3.269 3.687-7.704 5.247-15.022 9.678-8.339 5.05-22.665 9.315-37.93 10.496s-31.505-.73-42.721-9.817c-2.34-1.896-4.882-4.012-7.445-6.455zm0-105.833c.34-.493.68-.976 1.02-1.451 25.213-35.244 45.237-47.063 59.946-56.038 7.616-4.648 14.997-8.142 22.069-8.289 3.536-.074 7.072.822 9.99 3.005 2.918 2.184 5.095 5.503 6.542 9.775 2.495 7.359 7.038 18.507 8.611 29.789s-.106 23.521-10.598 30.892c-4.886 3.433-9.067 5.244-12.96 5.609-3.894.365-7.375-.962-9.866-3.006-3.588-2.943-5.543-6.721-7.236-10.071-4.177 3.388-9.726 8.863-15.276 15.577-6.818 8.247-13.269 17.505-16.221 23.572-2.726 5.604-3.232 13.699-1.283 19.831.974 3.067 2.51 5.604 4.427 7.285 1.917 1.682 4.164 2.629 7.295 2.567 14.879-.29 31.553-4.281 46.519-13.207 4.019-15.175 6.801-42.6 20.514-61.775 6.924-9.682 16.829-18.738 27.611-25.28 10.781-6.542 22.452-10.659 33.191-9.693 9.965.896 17.989 3.387 24.389 8.448 4.293 3.395 7.559 8.274 10.482 13.862 5.384-18.446 11.948-36.135 12.026-36.335.134-.6 1.441-6.38 4.785-12.635 3.521-6.585 9.679-14.037 19.276-14.134 8.095-.082 13.052 1.104 16.39 3.823 3.338 2.718 4.163 6.344 5.008 8.904l.07.212.043.216c1.68 8.466 2.891 21.293 5.311 32.827 4.883-9.16 9.147-18.576 11.656-23.976 2.091-4.747 3.963-9.936 7.79-14.375s9.705-7.731 18.392-8.575c9.429-.916 17.572-.407 23.105 5.212 1.364 1.385 2.417 3.038 3.356 4.792.053-.438.233-.85.251-1.312.269-7.051 4.162-12.765 8.905-16.84 4.742-4.075 10.4-6.729 15.311-8.066 3.053-.83 6.131-1.842 9.191-2.45 3.06-.609 6.28-.912 9.375.541 3.094 1.452 5.262 4.676 6.206 8.854.943 4.178 1.012 9.587.265 17.073-2.097 21.005-3.338 32.801-4.608 45.409 9.238-15.644 20.074-30.461 32.208-41.006 21.654-18.818 31.249-23.534 45.504-26.547 7.917-1.672 15.951.383 21.911 6.546 4.867 5.033 8.365 12.638 10.541 22.734 15.163-16.086 33.66-29.067 46.785-34.814 3.882-1.699 7.714-2.467 11.333-2.45 6.484.029 12.117 2.488 16.463 6.099v-44.231h-33.371v-125.165h-37.063v163.692h-14.085v-38.527h-37.767v-31.911h37.767v-31.137h-37.767v-31.911h37.767v-30.206h-68.493v163.692h-33.018l26.9-163.692h-31.037l-14.853 113.552-10.032-113.552h-32.332l22.378 163.692h-17.455s-12.839-1.686-11.394-24.605v-28.591c0-8.696-1.033-22.9-17.741-29.637 14.583-7.853 17.233-23.682 17.076-38.269-.272-25.477-7.32-42.59-38.325-42.59h-43.142v163.692h-4.095l-32.159-163.692h-38.163l-32.158 163.692h-5.269v-163.692h-38.75l-19.425 78.723-17.143-78.723h-42.866v268.267zm168.082 4.621c.707-.033 1.074.094 1.227.177 1.618.878 3.418 4.558 3.925 9.94.506 5.375-.087 11.913-1.248 17.101-1.325 5.512-5.282 12.091-10.298 16.663-5.022 4.578-10.791 7.013-15.92 5.951-2.587-.535-3.82-1.491-4.735-2.892s-1.459-3.515-1.489-6.273c-.058-5.473 1.986-13.072 4.452-20.235 1.725-4.045 6.14-9.407 11.041-13.494 4.919-4.103 10.572-6.822 13.045-6.938zm397.933-74.609-.182.055c-2.622.787-5.411 1.477-8.19 2.645-3.023 1.27-7.98 3.498-11.751 6.068-1.885 1.285-3.449 2.669-4.303 3.812s-.961 1.758-.852 2.298c.256 1.274.567 1.566 1.453 2.066.886.499 2.516.915 4.572 1.124 2.791.284 5.708.489 8.809.531 2.283.03 6.136-.499 10.444.082zm-536.863-129.584 24.407 94.997h-24.407zm59.879 0v94.997h-24.407zm177.42 24.396c10.472.396 16.571 10.518 16.571 17.328v28.668c0 10.306.52 24.605 8.08 24.605h-26.805v-70.548c.737-.064 1.456-.079 2.154-.053zm-105.076 38.98h26.635l4.145 31.621h-34.924zm13.318-101.2 10.096 76.627h-20.192zm105.595 17.621c0 11.743-8.393 20.074-15.991 18.038v-35.659c10.96-2.067 15.991 12.103 15.991 17.621z"/><path d="m564.115 169.822c8.384.038 15.032 5.482 18.172 11.431.759 1.437 1.6 3.319 1.893 5.269.24 1.596.114 3.257-1.002 4.633-.658.811-1.776 1.245-3.114 1.703-2.759.944-6.349 1.697-10.121 3.282-4.557 1.914-13.244 5.895-17.551 10.644-2.308 2.544-3.427 5.341-2.862 8.152 1.095 5.447 5.553 7.329 11.223 7.907 2.934.299 6.028.515 9.329.559 2.424.033 5.589-.319 8.91-.018 2.948.267 6.047 1.07 8.748 3.381 3.839 3.285 6.779 9.429 7.843 20.583 1.081 11.323-4.951 21.262-13.486 29.47-13.281 12.773-32.702 21.366-43.001 24.168-6.108 1.662-11.609 3.871-16.383 4.931-3.981.884-7.386 1.025-10.05-1.402-2.507-2.284-4.298-6.53-5.589-13.59-1.483-8.108-.507-13.152 2.184-16.171 2.619-2.937 6.717-3.802 10.995-3.95 4.513-.156 9.27-1.753 13.097-3.377 7.455-3.164 15.193-6.31 20.141-10.046 3.913-2.954 6.151-6.353 6.011-10.195-.076-2.107-1.04-3.836-3.287-5.066-2.316-1.267-6.491-1.965-13.156-1.746-6 .197-15.418.98-23.242.425-4.646-.329-8.713-1.002-10.773-2.888-5.426-4.965-4.967-7.925-6.895-15.66-.217-.87-.921-1.534-1.802-1.699s-1.777.199-2.294.931c-3.836 5.435-12.253 5.569-17.277 2.527-5.659-3.427-6.693-7.144-10.648-11.864-.716-.855-1.943-1.07-2.907-.51-7.291 4.233-20.998 11.73-30.28 27.799-10.208 17.674-1.666 34.423 13.138 31.944 13.634-2.283 19.731-7.725 26.633-13.66 2.135-1.836 5.299-3.848 8.364-4.546 1.618-.368 3.21-.391 4.477.485 1.114.77 1.904 2.174 2.396 4.308.614 2.664.704 6.308.127 11.188-.485 4.105-3.051 7.569-6.589 10.878-3.899 3.647-8.976 7.052-14.196 10.644-10.305 7.093-28.063 10.708-40.73 10.654-19.219-.081-35.621-16.518-39.577-24.733-.41-.852-1.303-1.365-2.246-1.29s-1.743.722-2.014 1.629c-.907 3.037-.851 7.016-.677 11.078.153 3.598.394 7.267-.174 10.237-.633 3.308-1.827 5.782-4.64 7.438-1.904 1.121-4.287 2.281-8.394 4.825-4.015 2.488-6.662 3.177-8.516 2.248-1.605-.805-2.324-2.724-2.806-4.856-.927-4.098-.643-9.114-.504-12.051.352-7.429-3.529-60.277-6.753-71.444-.27-.934-1.099-1.596-2.069-1.652s-1.871.505-2.246 1.402c-.795 1.895-1.757 8.265-2.624 16.558-1.953 18.665-3.74 47.375-3.732 54.609.003 3.263-1.95 5.592-4.636 7.227-4.664 2.839-11.476 3.687-16.337 3.112-2.255-.266-3.665-.849-4.46-1.912-.832-1.114-.985-2.608-1.037-4.309-.058-1.881.08-3.982.104-6.203.081-7.581.053-23.098-.709-30.44-.099-.954-.782-1.745-1.712-1.983-.929-.238-1.909.129-2.454.918-7.024 10.177-10.902 22.038-17.188 32.334-.024.038-.046.076-.067.115-3.659 6.864-7.428 10.327-13.913 11.885-6.127 1.472-9.725 1.242-11.821-.358-1.367-1.044-1.919-2.655-2.217-4.405-.377-2.223-.306-4.679-.307-6.935-.007-20.62.678-21.755-2.459-29.506-.34-.841-1.145-1.402-2.052-1.431-.907-.028-1.746.481-2.138 1.299-6.154 12.825-14.2 41.213-17.277 56.187-1.039 5.058-2.253 7.681-3.909 8.843-.965.678-2.044.68-3.153.55-1.652-.193-3.372-.706-5.079-.958-5.609-.829-11.204-2.49-11.204-2.49-.005-.001-.01-.003-.016-.005 0 0-1.194-.323-2.226-.128-1.266.24-2.329.994-2.592 2.6-.852 5.207-4.591 12.17-10.387 18.828-8.852 10.169-22.548 19.595-38.742 20.868-13.521 1.063-21.09.731-27.38-1.753-6.331-2.501-11.344-7.133-19.826-14.388-.708-.605-1.713-.722-2.541-.294s-1.315 1.314-1.23 2.243c.501 5.543.597 8.626-.516 10.84-.762 1.515-2.128 2.52-4.159 3.771-2.477 1.526-5.843 3.269-10.327 5.984-8.735 5.29-26.755 10.214-43.982 9.93-11.268-.186-22.22-2.579-29.884-8.788-9.665-7.83-22.044-18.568-24.988-41.379-2.974-23.041 8.376-48.57 19.649-64.327 24.632-34.432 43.626-45.525 58.218-54.43 5.645-3.444 11.07-6.083 15.877-7.048 3.188-.64 6.069-.541 8.471.754 2.413 1.301 4.27 3.785 5.575 7.634 3.011 8.884 8.688 22.524 8.834 34.744.09 7.545-1.984 14.54-8.621 19.204-6.343 4.456-10.566 5.389-13.736 4.059-2.314-.971-3.935-3.066-5.355-5.363-1.679-2.715-3.042-5.749-4.519-8.165-.318-.521-.83-.893-1.424-1.034-.593-.142-1.218-.041-1.737.28-9.949 6.154-30.137 30.653-36.705 44.156-4.157 8.545-4.121 20.503.251 28.63 3.108 5.776 8.312 9.691 15.617 9.548 16.251-.317 34.489-4.668 50.771-14.746.488-.302.845-.776 1-1.328 4.335-15.421 6.935-43.172 19.956-61.38 7.702-10.769 19.639-20.953 31.974-27.017 8.031-3.948 16.223-6.161 23.491-5.507 9.024.812 15.857 2.934 21.251 7.2 5.424 4.288 9.367 10.707 12.742 19.894.346.943 1.266 1.551 2.269 1.499s1.856-.751 2.103-1.724c5.38-21.162 14.62-44.771 14.62-44.771.045-.113.08-.229.106-.348 0 0 1.789-8.249 6.379-14.878 2.816-4.065 6.7-7.589 12.077-7.643 6.882-.069 10.519.804 12.596 2.496 1.929 1.571 2.349 3.777 3.084 6.04 2.023 10.297 3.336 28.387 7.637 42.234.265.855 1.004 1.477 1.891 1.593.888.116 1.761-.295 2.237-1.053 7.296-11.609 13.183-25.944 16.366-32.79.006-.014.013-.028.019-.042 3.973-9.016 6.521-18.007 21.34-19.447 8.232-.8 14.397-.512 18.323 3.475 3.077 3.125 4.781 8.949 6.448 15.245.286 1.081 1.31 1.797 2.423 1.696s1.991-.991 2.077-2.105c.527-6.812 2.574-9.854 2.781-15.282.196-5.144 3.094-9.352 6.847-12.576 3.961-3.404 8.899-5.727 13.011-6.846 3.109-.846 6.099-1.823 8.793-2.359 2.193-.436 4.147-.637 5.708.097 1.441.676 2.365 2.203 2.952 4.804.759 3.361.843 8.24.15 15.183-2.908 29.128-5.263 49.351-6.404 63.089-.09 1.089.601 2.091 1.652 2.392 1.051.302 2.169-.181 2.669-1.153 10.581-20.545 24.126-41.567 39.443-54.877 21.011-18.26 29.284-22.359 42.848-25.225 12.86-2.717 23.321 6.59 26.702 31.355.122.895.759 1.635 1.626 1.889s1.803-.025 2.389-.713c15.169-17.796 36.086-32.487 49.669-38.434 3.126-1.369 6.126-1.967 8.936-1.954zm-381.723 97.775c-3.658.172-8.491 2.353-13.217 5.724-6.801 4.851-13.421 12.095-16.069 18.366-.02.047-.038.094-.055.143-3.187 9.221-5.801 19.268-4.459 26.438 1.029 5.498 4.147 9.527 10.567 10.856 5.937 1.228 12.025-.663 17.385-4.394 7.682-5.349 13.833-14.474 15.791-22.658.002-.01.005-.021.007-.032 1.559-6.951 2.175-15.791.857-22.608-.994-5.142-3.169-9.154-6.48-10.952 0 0 0 0-.001 0-1.215-.659-2.677-.96-4.326-.883z"/></g></svg>