<?xml version="1.0" encoding="UTF-8" standalone="no"?><!DOCTYPE svg PUBLIC "-//W3C//DTD SVG 1.1//EN" "http://www.w3.org/Graphics/SVG/1.1/DTD/svg11.dtd"><svg width="100%" height="100%" viewBox="0 0 600 190" version="1.1" xmlns="http://www.w3.org/2000/svg" xmlns:xlink="http://www.w3.org/1999/xlink" xml:space="preserve" xmlns:serif="http://www.serif.com/" style="fill-rule:evenodd;clip-rule:evenodd;stroke-linejoin:round;stroke-miterlimit:2;"><g id="playstation_ps2"><path d="M592.596,7.394l-0,40.641l-179.519,-0l0,55.43l186.923,0l-0,-7.392l-179.525,-0l-0,-40.642l179.525,-0l-0,-55.431l-186.923,0l0,7.394l179.519,-0Z" style="fill:#fff;fill-rule:nonzero;"/><path d="M385.374,0l0,7.394l-95.349,-0l0,96.071l-103.101,0l-0,-7.392l95.349,-0l-0,-96.073l103.101,0Z" style="fill:#fff;fill-rule:nonzero;"/><path d="M7.394,103.465l-0,-48.034l179.53,-0l-0,-55.431l-186.924,0l-0,7.274l179.536,0.12l-0,40.641l-179.536,-0l-0,55.43l7.394,0Z" style="fill:#fff;fill-rule:nonzero;"/><g><path id="path788" d="M152.389,139.452l0,36.393l5.683,0l0,-32.9l5.263,-0c-0,-0 3.814,-0.016 5.124,1.697c1.107,1.455 1.31,4.083 1.31,5.864c0,1.909 -0.116,4.842 -0.759,5.921c-0.968,1.641 -2.55,1.967 -4.012,1.967l-3.471,0l-0,3.226l4.987,0c-0,0 4.503,0.199 6.445,-1.774c2.374,-2.423 2.974,-5.66 2.974,-9.997c0,-3.954 -1.429,-7.931 -4.356,-9.274c-2.422,-1.125 -6.788,-1.125 -6.788,-1.125l-12.4,0.002Z" style="fill:#fff;fill-rule:nonzero;"/><rect id="polygon790" x="180.395" y="139.452" width="5.694" height="36.393" style="fill:#fff;fill-rule:nonzero;"/><path id="polygon792" d="M216.287,147.929l10.394,27.245l-5.964,14.605l4.715,0l17.174,-41.85l-5.261,0l-7.483,20.399l-6.967,-20.399l-6.608,0Z" style="fill:#fff;fill-rule:nonzero;"/><path id="path794" d="M246.886,175.61l0,-3.431c0,0 6.005,0.234 7.253,0.234c2.776,-0 4.156,-0.596 5.195,-1.703c0.617,-0.663 1.176,-3.64 1.176,-4.692c0,-1.066 -0.198,-3.348 -0.613,-4.274c-0.427,-0.919 -1.392,-1.773 -2.849,-1.89c-1.029,-0.096 -2.639,-0.293 -4.501,-0.386c-2.622,-0.119 -4.355,-1.496 -5.196,-2.472c-0.821,-0.993 -1.934,-2.456 -1.934,-7.016c0,-4.536 1.175,-7.072 2.349,-8.26c1.183,-1.186 2.913,-1.706 4.232,-1.936c1.516,-0.268 4.012,-0.286 4.012,-0.286l7.955,0.238l-0,3.434c-0,0 -5.804,-0.223 -7.05,-0.223c-2.776,-0 -3.607,0.584 -4.646,1.697c-0.608,0.671 -1.087,2.501 -1.087,3.565c-0,1.045 0.124,3.175 0.536,4.093c0.414,0.926 1.388,1.774 2.835,1.904c1.032,0.078 2.64,0.287 4.504,0.378c2.635,0.131 4.365,1.489 5.194,2.481c0.83,0.989 1.944,3.067 1.944,7.606c-0,4.539 -1.184,7.783 -2.36,8.952c-1.174,1.199 -2.899,1.721 -4.222,1.948c-1.524,0.276 -4.02,0.276 -4.02,0.276l-8.707,-0.237Z" style="fill:#fff;fill-rule:nonzero;"/><path id="path796" d="M277.869,142.945l-5.674,-0l0,26.701c0,0 0.137,2.435 0.272,3.286c0.143,0.86 1.392,2.91 4.644,2.91l5.886,-0.127l-0,-3.426c-0,0 -1.603,0.12 -2.559,0.12c-0.975,-0 -2.16,-0.071 -2.359,-1.724c-0.211,-1.633 -0.211,-3.607 -0.211,-3.607l0,-15.724l6.409,0l0,-3.425l-6.409,0l0.001,-4.984Z" style="fill:#fff;fill-rule:nonzero;"/><rect id="polygon798" x="332.666" y="147.929" width="5.681" height="27.916" style="fill:#fff;fill-rule:nonzero;"/><path id="path802" d="M356.293,147.699c3.863,-0 6.86,0.869 8.472,2.171c1.625,1.308 3.617,4.053 3.617,12.016c0,7.963 -1.992,10.704 -3.617,12.026c-1.611,1.3 -4.608,2.168 -8.472,2.168c-3.871,0 -6.86,-0.868 -8.477,-2.168c-1.616,-1.322 -3.613,-4.063 -3.613,-12.026c-0,-7.96 1.997,-10.704 3.613,-12.016c1.616,-1.3 4.606,-2.171 8.477,-2.171Zm-3.886,5.353c-0.784,0.958 -1.733,2.988 -1.733,8.833c0,5.861 0.949,7.874 1.733,8.831c0.771,0.954 2.204,1.604 4.062,1.604c1.867,-0 3.292,-0.647 4.084,-1.604c0.776,-0.954 1.731,-2.97 1.731,-8.831c0,-5.843 -0.953,-7.872 -1.731,-8.833c-0.792,-0.954 -2.219,-1.589 -4.084,-1.589c-1.858,0 -3.292,0.635 -4.062,1.589Z" style="fill:#fff;fill-rule:nonzero;"/><path id="path804" d="M380.152,151.861l5.562,-0.238c1.466,-0 3.172,0.395 3.998,1.44c0.78,0.996 1.268,2.176 1.268,4.083l0,18.655l5.684,-0l0,-19.119c0,-3.619 -1.11,-5.711 -2.78,-7.032c-2.385,-1.893 -6.645,-1.724 -6.645,-1.724l-12.732,0.243l0,27.629l5.645,-0l0,-23.937Z" style="fill:#fff;fill-rule:nonzero;"/><path id="path806" d="M321.375,142.945l-5.687,-0l-0,26.701c-0,0 0.134,2.435 0.275,3.286c0.139,0.86 1.379,2.91 4.637,2.91l5.89,-0.127l0,-3.426c0,0 -1.597,0.12 -2.565,0.12c-0.96,-0 -2.148,-0.071 -2.353,-1.724c-0.199,-1.633 -0.199,-3.607 -0.199,-3.607l0,-15.724l6.395,0l-0,-3.425l-6.394,0l0,-4.984l0.001,-0Z" style="fill:#fff;fill-rule:nonzero;"/><path id="path808" d="M207.627,157.15c0,-1.909 -0.487,-3.088 -1.264,-4.083c-0.832,-1.046 -2.547,-1.439 -4.004,-1.439l-7.492,0.236l-0,-3.689l9.019,-0.242c-0,-0 4.265,-0.17 6.65,1.724c1.657,1.317 2.774,3.413 2.774,7.031l0,18.852l-10.888,0.234c0,0 -4.934,0.025 -7.409,-0.989c-2.424,-0.985 -3.744,-3.689 -3.744,-7.431c0,-3.614 1.114,-5.727 2.775,-7.047c2.387,-1.887 6.641,-1.704 6.641,-1.704l3.48,-0l0,3.226l-1.951,-0c-1.456,-0 -2.958,0.267 -3.786,1.308c-0.787,0.999 -1.202,1.851 -1.202,3.757c-0,2.5 0.487,3.621 1.663,4.473c1.039,0.756 2.901,0.921 4.985,0.921l3.753,-0.233l0,-14.905Z" style="fill:#fff;fill-rule:nonzero;"/><path id="path810" d="M303.387,157.15c-0,-1.909 -0.48,-3.088 -1.258,-4.083c-0.839,-1.046 -2.549,-1.439 -4.002,-1.439l-7.485,0.236l0,-3.689l9.001,-0.242c0,-0 4.268,-0.17 6.652,1.724c1.663,1.317 2.767,3.413 2.767,7.031l-0,18.852l-10.872,0.234c0,0 -4.936,0.025 -7.422,-0.989c-2.413,-0.985 -3.74,-3.689 -3.74,-7.431c-0,-3.614 1.12,-5.727 2.772,-7.047c2.388,-1.887 6.655,-1.704 6.655,-1.704l3.469,-0l-0,3.226l-1.951,-0c-1.446,-0 -2.964,0.267 -3.789,1.308c-0.776,0.999 -1.201,1.851 -1.201,3.757c0,2.5 0.499,3.621 1.664,4.473c1.038,0.756 2.909,0.921 4.988,0.921l3.752,-0.233l-0,-14.905Z" style="fill:#fff;fill-rule:nonzero;"/><path id="path816" d="M447.608,144.157c0.072,4.194 -0.133,6.401 -1.542,8.5c-1.243,1.844 -3.702,3.525 -9.139,3.525l-6.745,-0.2c-1.067,0.02 -3.817,0.332 -5.122,1.727c-1.117,1.207 -1.205,2.11 -1.317,5.32l0,9.415l22.924,-0l-0,4.611l-25.06,-0l-1.204,-0.008c-1.703,0 -3.377,-1.155 -3.377,-3.468l-0,-7.023c0.119,-8.204 0.706,-9.38 2.488,-11.533c1.236,-1.487 4.14,-3.152 7.662,-3.329c0.695,-0.031 1.995,-0.12 3.825,-0.07c1.333,0.059 2.666,0.097 3.25,0.108c3.124,0.032 4.26,-0.544 5.115,-1.663c0.975,-1.257 1.499,-2.746 1.499,-5.181c-0,-2.282 -0.466,-4.433 -1.337,-5.431c-1.052,-1.156 -2.061,-1.928 -4.992,-1.928c-7.416,-0.02 -16.068,0.177 -16.068,0.177l0,-4.356c0,-0 8.457,-0.36 17.081,-0.487c5.37,-0.092 8.331,1.335 9.837,3.3c1.591,2.044 2.151,3.98 2.222,7.994Z" style="fill:#fff;fill-rule:nonzero;"/></g><rect id="polygon800" x="332.666" y="139.452" width="5.681" height="5.065" style="fill:#fff;fill-rule:nonzero;"/></g></svg>