<?xml version="1.0" encoding="UTF-8" standalone="no"?><!DOCTYPE svg PUBLIC "-//W3C//DTD SVG 1.1//EN" "http://www.w3.org/Graphics/SVG/1.1/DTD/svg11.dtd"><svg width="100%" height="100%" viewBox="0 0 600 258" version="1.1" xmlns="http://www.w3.org/2000/svg" xmlns:xlink="http://www.w3.org/1999/xlink" xml:space="preserve" xmlns:serif="http://www.serif.com/" style="fill-rule:evenodd;clip-rule:evenodd;stroke-linejoin:round;stroke-miterlimit:2;"><g id="playstation_ps5_tall"><g><path d="M172.026,20.177l-0.167,0.251l21.413,62.703c0.035,0.14 0.035,0.357 -0.01,0.495l-12.056,31.046c-0.051,0.146 0.016,0.255 0.158,0.255l12.554,-0c0.163,-0.004 0.309,-0.104 0.369,-0.255l37.587,-94.244c0.054,-0.15 -0.013,-0.251 -0.16,-0.251l-13.699,0c-0.156,0.007 -0.294,0.105 -0.35,0.251l-15.914,41.203l-0.178,0l-14.049,-41.202c-0.033,-0.151 -0.194,-0.252 -0.337,-0.252l-15.161,0Z" style="fill:#fff;"/><path d="M452.713,20.177l-14.43,0c-0.141,0.002 -0.258,0.117 -0.263,0.258l0,63.282l0.263,0.258l14.43,0c0.002,0 0.003,0 0.004,0c0.143,0 0.26,-0.115 0.263,-0.258l-0,-63.282c-0,-0.001 -0,-0.002 -0,-0.003c-0,-0.14 -0.115,-0.255 -0.255,-0.255c-0.004,0 -0.008,0 -0.012,0Z" style="fill:#fff;"/><path d="M428.85,20.177l-15.582,0l-0.105,-0.096l-0,-10.498l-0.239,-0.258l-14.462,0c-0.142,0 -0.261,0.115 -0.266,0.258l0,55.283c0,11.074 6.891,19.109 16.389,19.109l10.334,0c0.139,0 0.254,-0.115 0.254,-0.254c0,-0.001 0,-0.003 0,-0.004l0,-8.625c0,-0.141 -0.1,-0.274 -0.255,-0.274l-6.343,-0c-1.632,-0.025 -5.412,-0.107 -5.412,-8.265l-0,-37.218l0.086,-0.084c4.763,0.025 15.601,0 15.601,0l0.257,-0.237l-0,-8.579c-0.004,-0.139 -0.118,-0.253 -0.257,-0.258Z" style="fill:#fff;"/><path d="M57.344,0.171l-35.621,-0.016c-0.141,-0.002 -0.26,0.11 -0.265,0.251l0,83.311c0,0.134 0.118,0.258 0.265,0.258l14.436,0l0.254,-0.258l0.017,-74.268l0.085,-0.123l16.53,-0.031c6.019,-0 9.325,6.064 9.325,17.056c-0,10.998 -3.306,17.076 -9.325,17.076l-9.949,-0.011c-0.148,0 -0.249,0.114 -0.249,0.256l-0,8.644c-0,0.168 0.101,0.271 0.249,0.271l14.248,0c5.026,0 9.949,-2.33 13.501,-6.332c4.208,-4.75 6.425,-11.609 6.425,-19.828c-0,-15.927 -7.78,-26.256 -19.926,-26.256Z" style="fill:#fff;"/><path d="M100.88,0.155l-14.445,0c-0.165,0 -0.282,0.116 -0.282,0.251l-0,83.311c-0,0.135 0.117,0.258 0.282,0.258l14.446,0l0.265,-0.258l-0,-83.311l-0.266,-0.251Z" style="fill:#fff;"/><path d="M328.064,20.177l-15.671,0l-0.082,-0.096l0,-10.498c0,-0.14 -0.107,-0.258 -0.251,-0.258l-14.433,0c-0.147,0 -0.275,0.118 -0.275,0.258l-0,55.283c-0,11.074 6.903,19.109 16.408,19.109l10.336,0c0.148,0 0.263,-0.124 0.263,-0.258l-0,-8.625c-0,-0.141 -0.115,-0.274 -0.263,-0.274l-6.346,-0c-1.626,-0.025 -5.438,-0.107 -5.454,-8.265l0,-37.218l0.088,-0.084c4.801,0.025 15.68,0 15.68,0l0.255,-0.237l-0,-8.579c-0,-0.14 -0.115,-0.256 -0.255,-0.258Z" style="fill:#fff;"/><path d="M552.56,20.177l-25.755,0c-0.141,0.002 -0.255,0.118 -0.255,0.258l-0.008,63.282l0.242,0.258l14.457,0l0.244,-0.258l-0.02,-54.328l0.101,-0.105l10.982,-0.008c2.969,-0 6.228,0.479 8.312,3.913c1.906,3.103 2.77,8.558 2.77,17.12c0.013,0.37 -0.011,33.408 -0.011,33.408c-0,0.134 0.115,0.258 0.257,0.258l14.395,0c0.156,0 0.271,-0.124 0.271,-0.258l-0,-31.736c-0,-14.873 -2.972,-31.804 -25.982,-31.804Z" style="fill:#fff;"/><path d="M163.881,20.435c0,-0.148 -0.13,-0.259 -0.272,-0.259l-25.725,-0c-23.067,-0 -26.016,16.932 -26.016,31.813l0.018,12.869c-0,11.075 6.887,19.117 16.356,19.117l14.035,-0l0.254,-0.258l0,-8.635c0,-0.14 -0.119,-0.266 -0.254,-0.266l-10.025,0.017c-2.309,-0.047 -5.419,-1.024 -5.419,-8.965l-0,-13.895c-0.011,-9.233 0.848,-15.136 2.766,-18.495c2.076,-3.706 5.345,-4.204 8.285,-4.204l10.965,0l0.093,0.131l-0.014,54.312c-0,0.132 0.111,0.258 0.265,0.258l14.419,-0c0.143,-0 0.27,-0.126 0.27,-0.258l-0.001,-63.282Z" style="fill:#fff;"/><path d="M267.794,35.019l-7.113,-0.542c-5.334,-0.46 -9.302,-3.414 -9.302,-12.155c0,-10.206 4.577,-12.998 10.688,-12.998l19.689,-0l0.261,-0.254l0,-8.663l-0.261,-0.249l-0.412,-0l-21.33,0.005c-13.438,-0 -22.993,7.892 -22.993,23.621l-0,0.685c-0,12.411 7.636,21.369 19.018,22.239l7.08,0.525c5.4,0.409 8.764,5.238 8.764,12.567l-0,2.061c-0,4.582 -1.146,12.966 -10.972,12.966l-20.458,-0c-0.143,0.004 -0.258,0.123 -0.257,0.266l0,8.624l0.257,0.258l25.399,-0c7.825,-0 20.93,-3.167 20.93,-24.467c-0,-7.718 -1.753,-13.801 -5.306,-18.196c-3.029,-3.776 -7.517,-5.818 -13.682,-6.292l0,-0.001Z" style="fill:#fff;"/><path d="M386.099,20.435c-0,-0.142 -0.116,-0.258 -0.258,-0.259l-25.782,-0c-23.017,-0 -25.997,16.932 -25.997,31.813l0.018,12.869c-0,11.075 6.881,19.117 16.4,19.117l13.996,-0l0.261,-0.258l-0,-8.635c-0.003,-0.143 -0.118,-0.26 -0.261,-0.266l-10.031,0.017c-2.301,-0.047 -5.382,-1.024 -5.391,-8.965l-0,-13.895c-0,-9.233 0.868,-15.136 2.74,-18.495c2.079,-3.706 5.369,-4.204 8.26,-4.204l11.015,0l0.108,0.131l-0.026,54.312c-0,0.132 0.119,0.258 0.263,0.258l14.439,-0c0.143,-0 0.247,-0.126 0.247,-0.258l-0.001,-63.282Z" style="fill:#fff;"/><path d="M489.785,20.178c-24.106,0 -27.188,17.011 -27.188,31.886c0,14.891 3.082,31.958 27.188,31.958c24.108,0 27.182,-17.067 27.182,-31.958c0,-14.875 -3.073,-31.886 -27.182,-31.886Zm9.15,50.45c-2.271,3.741 -5.878,4.241 -9.15,4.241c-3.239,-0 -6.857,-0.5 -9.153,-4.24c-2.071,-3.367 -3.029,-9.266 -3.029,-18.565l0,-0.074c0,-10.976 1.35,-17.213 4.372,-20.182c1.807,-1.803 4.15,-2.534 7.81,-2.534c3.714,0 6.033,0.731 7.839,2.534c2.994,2.969 4.347,9.232 4.347,20.256c0,9.312 -0.961,15.214 -3.036,18.564Z" style="fill:#fff;"/><path d="M452.713,0.155l-14.43,0l-0.263,0.251l0,12.099c0,0.147 0.129,0.254 0.263,0.254l14.43,0c0.158,0 0.267,-0.107 0.267,-0.254l-0,-12.099c-0,-0.135 -0.109,-0.251 -0.267,-0.251Z" style="fill:#fff;"/></g><g><path d="M594.918,128.506l-183.693,-0l-0,49.797c-0,-0 -0.559,19.228 23.221,19.228l112.283,-0c4.404,-0.036 8.768,0.851 12.808,2.605c6.27,2.796 13.318,8.486 13.318,19.967c0,10.303 -4.991,16.153 -9.933,19.428c-4.091,2.642 -8.867,4.031 -13.737,3.993l-137.96,-0l-0,13.977l153.833,-0c0,-0 34.942,-1.418 34.942,-37.328c-0,-18.26 -10.662,-27.305 -20.256,-31.737c-6.199,-2.848 -12.946,-4.309 -19.767,-4.283l-111.285,-0c-1.854,0.024 -3.686,-0.411 -5.331,-1.268c-2.376,-1.288 -4.992,-3.844 -4.992,-8.875l0,-31.717l156.549,-0l0,-13.787Z" style="fill:#fff;"/><path d="M180.02,243.474l-0,13.977l77.97,-0c9.317,0.098 18.362,-3.176 25.458,-9.215c7.409,-6.288 11.588,-15.603 11.361,-25.318l-0,-59.411c-0.082,-6.578 2.866,-12.841 7.986,-16.971c3.589,-2.81 8.033,-4.307 12.589,-4.243l67.977,-0l0,-13.787l-80.955,-0c-0,-0 -34.942,0.559 -34.942,37.517l0,55.478c0.062,4.543 -1.164,9.012 -3.534,12.888c-3.488,5.83 -9.882,9.326 -16.672,9.115l-67.238,-0.03Z" style="fill:#fff;"/><path d="M-0,128.506l-0,13.787l138.968,-0c3.866,-0.033 7.691,0.788 11.202,2.406c5.511,2.585 11.7,7.906 11.7,18.698c0,10.483 -6.189,15.724 -11.7,18.32c-3.569,1.638 -7.455,2.47 -11.381,2.436l-103.069,-0c-6.1,-0.057 -12.131,1.31 -17.61,3.993c-8.576,4.303 -18.11,14.436 -18.11,31.148l-0,37.937l26.745,0l0,-37.767c-0.017,-2.457 0.426,-4.895 1.308,-7.188c2.207,-5.661 7.787,-14.745 20.836,-14.745l103.926,-0c3.496,0.019 6.976,-0.449 10.343,-1.388c9.544,-2.716 25.458,-10.562 25.458,-32.746c-0,-34.472 -34.313,-34.891 -34.313,-34.891l-154.303,-0Z" style="fill:#fff;"/></g></g></svg>