<svg clip-rule="evenodd" fill-rule="evenodd" stroke-linejoin="round" stroke-miterlimit="2" viewBox="0 0 600 143" xmlns="http://www.w3.org/2000/svg"><path d="m596.061 59.544c1.415.421 2.742.817 3.939 1.175l-20.559 81.471c-20.05-5.927-42.802-11.971-67.398-17.583l.935-4.192c.926.219 1.896.45 2.909.692 3.774.902 7.083 1.706 9.958 2.42 16.781 4.167 32.571 8.502 47.021 12.792l3.627 1.078.93-3.693zm-497.204 5.042 12.833-41.799 3.062 3.8-26.064 84.9c-1.513.312-3.018.625-4.518.94l8.892-28.965c-3.21 4.495-7.614 8.051-12.868 9.651-3.669 1.116-6.657 2.025-10.324 3.142 2.297 10.356 4.594 20.711 6.892 31.067-14.128 3.244-27.689 6.583-40.585 9.952l-.908-3.826c7.195-1.801 14.847-3.653 22.962-5.549 2.337-.546 4.29-1 5.776-1.341 2.373-.543 4.407-1.008 5.845-1.331l3.604-.813-.83-3.557-6.013-25.78 6.965-2.061c10.694-3.164 18.274-12.96 20.507-23.138.445-2.017.682-4.034.701-6 .018-2.009-.189-4.007-.638-5.945l-.198-.803-.014-.014c-1.87-7.382-5.42-13.137-10.432-17.123 7.489 3.529 12.603 10.474 14.819 20.463.297 1.342.473 2.726.534 4.13zm425.634-26.99-17.994 77.578c24.595 5.637 47.347 11.705 67.401 17.658l20.552-81.771c-8.286-2.485-22.839-6.805-28.488-8.415l-12.334 51.06zm-474.097 1.382c21.452-5.434 36.049 1.939 40.203 19.754 2.738 11.74-5.042 26.954-18.051 30.803-3.642 1.077-6.609 1.956-10.253 3.034 2.263 9.703 4.526 19.405 6.789 29.108-14.031 3.16-27.497 6.405-40.305 9.671-6.789-27.19-13.579-54.38-20.369-81.569 13.204-3.611 27.239-7.24 41.986-10.801zm-26.691 87.053c-1.116.282-2.227.564-3.334.846-6.79-27.19-13.58-54.38-20.369-81.57 13.204-3.611 27.237-7.241 41.985-10.8 7.897-2 14.864-2.265 20.723-.913-3.715.05-7.69.558-11.901 1.54-.006.001-.427.107-1.26.318l-.001-.002c-10.691 2.579-20.955 5.183-30.756 7.775-2.461.65-4.334 1.149-5.704 1.518-2.444.658-4.331 1.169-5.608 1.518l.002.007-3.468.912.867 3.474zm521.036-6.815c8.456 2.25 16.579 4.52 24.326 6.78l7.447-29.629-3.809-.966-6.495 26.311c-6.647-1.918-13.559-3.842-20.714-5.751zm-463.695-63.544c.363 1.087.679 2.199.941 3.324 2.716 11.023-3.103 20.36-20.407 24.699-3.642 1.078-7.179 1.908-10.823 2.985 2.263 9.704 4.444 19.023 6.708 28.726-8.686 1.956-16.826 4.043-24.896 6.045l.706 3.253c9.284-2.337 18.901-4.654 28.814-6.936-2.249-9.646-4.532-19.426-6.781-29.071 3.644-1.079 7.182-1.908 10.825-2.986 15.681-4.47 21.98-15.797 19.263-26.82-.326-1.395-.724-2.752-1.19-4.063zm41.781-28.57 1.107-3.684 65.387 82.224c-33.332 5.16-65.386 11.28-95.45 17.865l1.114-3.71c18.818-3.899 38.33-7.572 58.298-10.873 3.364-.556 7.548-1.225 12.546-2.005 4.449-.695 8.686-1.338 12.691-1.925l.034-.006 6.299-.924-3.988-4.949zm291.051 74.578c2.825.395 5.491.779 8.007 1.152 3.824.568 8.046 1.227 12.656 1.971 21.553 3.477 42.464 7.545 62.302 11.925l5.297 1.17v.001l3.611.825 1.393 4.654c-30.173-6.934-62.652-13.185-96.186-17.929zm-295.549-74.366 59.704 74.078c-30.458 4.467-59.749 9.8-87.222 15.561zm382.941 76.441 17.229-72.471 2.711 5.004-18.755 80.253-1.37-4.438-27.171-87.912 2.553-3.295zm-31.647-81.157-60.068 74.821c30.699 4.161 60.439 9.658 88.062 15.758zm-5.05 78.36c8.225 1.562 16.314 3.196 24.246 4.883-2.853-9.237-5.709-18.473-8.562-27.709l-3.711-.662 7.376 23.876c-6.154-1.281-12.399-2.528-18.723-3.735zm-138.129-6.799c11.529.571 22.754 1.296 33.867 2.168 13.185 1.033 26.503 2.278 40.207 3.714l3.737.392.003-.066 2.457.332-.309 4.153c-27.415-3.524-54.285-5.482-80.231-6.986zm-182.044 7.09c7.902-1.355 15.907-2.656 23.999-3.9l-2.511-3.114-15.982-19.831-4.36.78 15.855 19.673c-5.843.929-12.066 2.041-17.805 3.026zm112.415-27.691c-.485.938-1 1.859-1.544 2.763-1.385 2.301-2.922 4.436-4.582 6.387-7.397 8.695-17.767 14.667-29.243 16.515 17.472-.477 32.011-8.022 38.384-24.132zm150.869 14.151 55.394-68.999 1.393 4.506-60.053 74.802 5.491-80.219 3.219-3.106zm-80.639-79.655-5.61 82.215c26.033 1.174 51.878 3.269 79.454 6.162l5.479-80.293-42.179 40.786zm-113.188 43.428 41.561 16.372c-6.485 16.447-22.386 27.768-40.191 28.314-24.613.754-45.303-18.705-46.057-43.315-.755-24.613 18.703-45.304 43.316-46.058 15.012-.461 29.561 6.781 38.15 19.098zm157.503 36.66c7.54.653 15.166 1.375 22.921 2.161.576-8.514 1.16-17.029 1.741-25.543l-3.699-.424-1.506 22.108c-6.249-.619-13.108-1.226-19.222-1.756zm-155.004-30.248 32.245 11.799.258.096-.112.261c-.421 1.002-.898 1.981-1.417 2.931-.525.958-1.093 1.884-1.696 2.766-3.137 4.585-7.418 8.381-12.398 11.075l-.188.102-2.259-2.743-.208-.253.302-.152h.001c.805-.397 1.594-.826 2.363-1.283.762-.451 1.507-.932 2.234-1.443 3.618-2.546 6.637-5.736 8.728-9.38l-27.908-9.75-.171-.06-.005-.179-.133-3.92zm-87.975 13.993c3.228-.098 5.939 2.454 6.038 5.682s-2.451 5.939-5.679 6.038-5.941-2.451-6.04-5.679 2.453-5.942 5.681-6.041zm195.145-62.104-5.248 73.74c-1.462-.063-2.924-.123-4.386-.181l5.941-78.066zm228.275 63.23 9.394-37.96c5.816 1.437 20.794 5.312 29.322 7.542l-.835 3.245c-.759-.227-1.536-.458-2.325-.692-7.637-2.272-16.321-4.839-20.403-6.002l-3.635-1.038-.891 3.693-10.05 41.599-21.785-42.021 1.416-6.35zm-91.765-4.777c3.228-.099 5.941 2.452 6.039 5.68.099 3.227-2.45 5.94-5.679 6.039s-5.941-2.452-6.04-5.68 2.451-5.94 5.68-6.039zm-405.762-7.702c3.229-.099 5.94 2.453 6.039 5.681s-2.451 5.94-5.679 6.039-5.941-2.452-6.04-5.68 2.453-5.941 5.68-6.04zm249.813-15.635 4.533-.139.522 17.022-30.728.942-.121-3.949 26.194-.803zm-138.266 12.076c-.151-1.318-.248-2.653-.289-4.002l-.001-.015c-.406-13.307 4.651-25.556 13.136-34.576 8.48-9.017 20.393-14.815 33.696-15.225l.02-.001c6.504-.198 12.934.945 18.901 3.246-7.128-4.076-15.353-6.213-23.722-5.957-24.612.755-44.071 21.444-43.316 46.058.111 3.618.653 7.124 1.575 10.472zm107.274-15.308 27.226-.834.418 13.612-27.227.835zm-23.149-10.874c1.225 1.534 2.384 3.097 3.472 4.664l-26.886 17.11-5.035-1.983zm114.486 14.837 36.677-32.862-.25 3.292-36.257 35.41-32.005-42.265.441-6.086zm-68.307-8.311-23.142.71-3.638.112.112 3.638.253 8.263-2.986.092-.484-15.759 29.766-.913z" fill="#fff"/></svg>