<svg clip-rule="evenodd" fill-rule="evenodd" stroke-linejoin="round" stroke-miterlimit="2" viewBox="0 0 600 114" xmlns="http://www.w3.org/2000/svg"><g fill="#fff"><path d="m54.899.558c6.384 1.19 12.66 2.89 18.906 4.662 3.571 1.038 7.135 2.111 10.675 3.254 5.56 1.771 11.096 3.777 16.132 6.767 2.256 1.37 4.423 2.918 6.275 4.805 2.006 1.97 3.649 4.277 4.854 6.817 2.196 4.586 2.948 9.71 3.17 14.747.105 3.287.098 6.602-.516 9.847-.51 2.819-1.417 5.599-2.926 8.048-1.331 2.162-3.183 4.033-5.43 5.239-2.156 1.162-4.623 1.715-7.068 1.666-3.707.038-7.305-1.143-10.632-2.693-.061-11.065-.01-22.132-.026-33.195-.023-2.002.113-4.025-.291-6-.285-1.53-.908-3.072-2.11-4.111-.796-.718-1.829-1.123-2.867-1.342-1.049-.2-2.168.246-2.818 1.088-1.08 1.35-1.363 3.141-1.412 4.821-.009 29.623.011 59.247-.009 88.867-7.97-2.525-15.939-5.054-23.907-7.586-.007-35.233-.004-70.467 0-105.701z"/><path d="m19.081 75.521c10.389-3.678 20.768-7.393 31.161-11.058.017 4.078 0 8.158.007 12.241-.007.553.028 1.109-.04 1.66-8.216 2.912-16.416 5.875-24.622 8.805-1.138.431-2.305.917-3.182 1.786-.409.407-.743 1.01-.519 1.593.281.688.983 1.063 1.63 1.345 1.801.732 3.769.837 5.687.924 2.138-.034 4.286-.194 6.38-.656 1.416-.279 2.778-.755 4.127-1.262 3.507-1.27 7.014-2.547 10.527-3.804.025 3.451.004 6.903.011 10.358-.011.69.031 1.384-.037 2.071-4.314.775-8.679 1.3-13.063 1.37-8.829.199-17.678-1.167-26.065-3.927-2.749-.797-5.483-1.858-7.78-3.604-1.264-.979-2.395-2.209-2.971-3.723-.482-1.283-.447-2.763.154-4 .578-1.234 1.59-2.209 2.704-2.967 2.576-1.78 5.419-3.138 8.299-4.348 2.483-1.057 5.058-1.881 7.592-2.804z"/><path d="m102.674 70.874c2.357-.272 4.728-.337 7.098-.422 7.792.03 15.626.999 23.08 3.337 1.463.445 2.879 1.022 4.337 1.485 2.598.949 5.198 2.1 7.278 3.968 1.248 1.139 2.326 2.674 2.34 4.427.075 1.428-.571 2.796-1.497 3.848-1.761 1.975-4.089 3.333-6.426 4.516-2.488 1.269-5.162 2.087-7.771 3.053-15.925 5.718-31.852 11.435-47.773 17.16-.004-4.462.004-8.922-.004-13.378.024-.179-.073-.49.178-.536 12.117-4.311 24.23-8.634 36.346-12.958 1.638-.612 3.403-1.056 4.792-2.166.569-.447 1.126-1.158.847-1.925-.291-.67-.986-1.041-1.626-1.318-1.814-.719-3.788-.857-5.717-.912-3.02.021-6.066.393-8.939 1.362-8.631 3.024-17.245 6.085-25.877 9.1.001-4.79-.004-9.577.002-14.365 6.244-2.192 12.765-3.521 19.332-4.276z"/><g fill-rule="nonzero"><path d="m594.965 31.69v27.637h-122.078v37.695h127.113v-5.028h-122.082v-27.638h122.082v-37.694h-127.113v5.028h122.078z"/><path d="m454.048 26.662v5.028h-64.84v65.332h-70.112v-5.028h64.84v-65.332z"/><path d="m197.01 97.022v-32.666h122.086v-37.694h-127.114v4.947l122.09.081v27.637h-122.09v37.695z"/></g></g></svg>