<svg clip-rule="evenodd" fill-rule="evenodd" stroke-linejoin="round" stroke-miterlimit="2" viewBox="0 0 602 260" xmlns="http://www.w3.org/2000/svg"><g fill="#fff"><path d="m101.546 97.76c.092-.526-.085-1.063-.471-1.432l-97.371-92.985c-.463-.442-1.145-.566-1.734-.314-.588.252-.97.83-.97 1.471v43.568c0 .42.165.823.46 1.122l79.537 80.698s-23.244 127.842-23.244 127.842c-.094.518.073 1.05.447 1.421s.906.534 1.424.436l55.557-10.526c.535-.102.982-.468 1.185-.973l17.837-44.154c.221-.548.122-1.175-.259-1.628s-.981-.658-1.559-.534l-50.9 10.907s20.061-114.919 20.061-114.919zm-3.298.291c-1.839 10.534-20.321 116.413-20.321 116.413-.092.524.083 1.059.466 1.428.383.368.925.523 1.444.411l50.271-10.772s-16.38 40.55-16.38 40.55-52.412 9.93-52.412 9.93 22.976-126.368 22.976-126.368c.093-.512-.069-1.038-.434-1.408l-79.66-80.823c.001 0 .001-39.174.001-39.174zm35.108 84.372c-.05.468.108.935.433 1.275l46.606 48.813c.377.395.93.57 1.467.464l47.37-9.356c.554-.11 1.009-.503 1.197-1.035l14.913-42.107c.195-.549.075-1.161-.312-1.596-.387-.436-.98-.626-1.548-.498l-45.651 10.336s-56.691-54.665-56.691-54.665c-.439-.424-1.082-.561-1.656-.352-.574.208-.979.725-1.044 1.332zm3.259-.397 4.657-43.402s54.96 52.997 54.96 52.997c.388.374.938.528 1.463.409l43.664-9.887s-13.64 38.514-13.64 38.514-45.617 9.011-45.617 9.011zm278.243-154.856h-14.879c-.587 0-1.127.322-1.406.838-.28.516-.254 1.144.067 1.636l13.743 21.053c.315.482.865.758 1.44.722l7.749-.49c.635-.04 1.186-.453 1.403-1.051l1.526-4.208 18.868 29.951-11.65.971c-.565.047-1.063.389-1.308.9-.246.511-.203 1.113.112 1.584l16.032 23.916c.322.481.879.75 1.456.703.577-.046 1.084-.401 1.326-.927l4.691-10.229 24.785 39.343-45.023 9.423s-85.377-137.648-85.377-137.648c-.32-.517-.906-.807-1.512-.749-.605.058-1.125.454-1.341 1.023l-7.453 19.574c-.18.472-.126 1.001.144 1.427l76.332 120.198-29.516 4.84-37.841-58.327c-.409-.631-1.203-.891-1.907-.626-.704.266-1.127.986-1.017 1.731l8.986 60.719-62.168-57.449c-.583-.539-1.473-.569-2.09-.07-.618.499-.776 1.375-.372 2.058l37.787 63.926-35.893 8.571-92.396-166.778c-.313-.566-.936-.887-1.578-.815-.642.073-1.178.525-1.357 1.145l-10.819 37.428c-.115.397-.072.822.12 1.188l31.196 59.406-18.04 2.002s-18.733-36.632-18.733-36.632c-.292-.569-.894-.91-1.532-.867s-1.189.462-1.401 1.065l-10.296 29.31c-.152.43-.112.905.11 1.305l18.713 33.773c.319.576.958.897 1.611.81l38.305-5.117c.528-.071.985-.399 1.222-.876l1.48-2.991 45.965 87.53c.333.636 1.05.971 1.752.82l38.013-8.188c.513-.11.939-.465 1.141-.95l7.924-19.104 17.353 14.457c.396.33.927.449 1.426.319s.905-.492 1.09-.973l12.209-31.696 16.287 22.697c.37.516 1.011.764 1.632.632l33.041-7.018c.54-.115.982-.499 1.171-1.017l3.858-10.589 4.363 7.62c.343.599 1.032.911 1.709.772l66.961-13.743c.532-.11.973-.482 1.169-.989l5.756-14.837 6.02 9.555c.356.565 1.025.849 1.678.714l32.457-6.725c.502-.104.923-.442 1.134-.909l7.585-16.819 13.623 11.254c.363.3.839.424 1.302.341l29.241-5.264c.457-.082.855-.358 1.092-.757l16.667-28.07c.313-.527.297-1.186-.04-1.697-.338-.512-.937-.786-1.545-.705l-30.371 4.011-59.139-42.035c-.637-.453-1.509-.378-2.06.176-.552.555-.621 1.427-.164 2.062l33.005 45.872-30.924 5.242-77.212-122.203c-.293-.464-.805-.745-1.354-.745-.55.001-1.06.284-1.352.749l-14.762 23.521zm-88.612 138.098-2.499 6.023-12.353 29.78s-36.005 7.755-36.005 7.755l-46.48-88.508 9.022-18.23.045-.099.038-.101.031-.103.023-.105.017-.105.01-.105.002-.106-.004-.106-.012-.105-.018-.104-.026-.103-.032-.102-.039-.099-.046-.098-.053-.094-.059-.091-.066-.088-.07-.081-.076-.077-.08-.071-.084-.065-.089-.059-.091-.053-.095-.046-.098-.041-.1-.034-.103-.027-.104-.02-.106-.014-.108-.006-.108.001-.109.008-17.19 1.908s-31.478-59.943-31.478-59.943 9.571-33.111 9.571-33.111 91.119 164.472 91.119 164.472c.348.629 1.072.948 1.771.781zm4.192-1.769.003-.008.008-.024.015-.048.004-.019.005-.015.005-.023.008-.033.006-.03.005-.022.003-.017.004-.022.005-.043.004-.026.001-.011.002-.011.005-.068.001-.019v-.003c.002-.033.002-.067.002-.1v-.006l-.002-.025-.002-.055-.001-.016-.001-.013-.003-.024-.004-.038-.004-.026-.002-.019-.004-.02-.004-.026-.008-.037-.005-.024-.003-.013-.004-.016-.014-.053-.007-.023-.002-.006c-.009-.032-.02-.064-.032-.096l-.001-.001-.005-.014-.029-.07-.004-.008-.004-.009-.012-.026-.02-.041-.009-.016-.008-.015-.012-.022-.016-.029-33.336-56.395 56.685 52.383s-14.013 36.38-14.013 36.38-16.403-13.664-16.403-13.664 7.167-17.278 7.167-17.278c.013-.032.026-.064.036-.097zm26.588-5.204c.014-.036.026-.071.037-.107l.002-.009.008-.029.014-.052.004-.019.005-.017.005-.028.008-.036.004-.029.004-.025.002-.023.004-.025.003-.039.003-.031.001-.016.001-.016.001-.053.001-.033-.001-.009.001-.008-.006-.102c-.002-.035-.006-.069-.011-.103l-8.574-57.938s34.41 53.039 34.41 53.039c.346.533.974.811 1.601.708l30.24-4.958s-11.334 31.103-11.334 31.103-31.153 6.617-31.153 6.617-16.901-23.552-16.901-23.552 1.621-4.21 1.621-4.21zm124.681-23.751-48.358 10.122c-.658.137-1.332-.151-1.687-.723l-84.263-135.854-6.018 15.805 77.2 121.565.003.004.002.004.015.025.028.047.005.01.005.009.013.026.019.037.007.016.007.014.01.023.014.031.008.023.008.018.007.02.009.024.01.031.008.023.004.015.006.018.01.04.007.026.002.01.003.012.011.055.005.024.001.005c.005.032.01.064.013.096l.007.089v.008l.001.007v.028l.001.048v.014.013l-.001.027-.002.037-.002.021-.001.019-.002.022-.003.029-.004.029-.003.023-.003.017-.003.021-.008.038-.005.026-.003.012-.003.014-.014.05-.006.026-.002.006c-.009.032-.02.064-.031.095 0 0-7.281 19.981-7.281 19.981s5.129 8.96 5.129 8.96 64.972-13.335 64.972-13.335l6.588-16.98.003-.009s5.187-13.371 5.187-13.371l-11.611 2.431zm58.86-10.711-31.545 5.346c-.636.108-1.275-.177-1.619-.722 0 0-76.424-120.956-76.424-120.956s-12.344 19.669-12.344 19.669h10.293c.032 0 .065.001.097.003l.096.009.096.014.093.02.092.026.09.031.088.036.086.042.083.046.08.051.077.056.074.061.07.065.066.069.063.074.058.078.054.082.048.084.042.086.038.088.032.09.026.092.021.092.015.094.01.095.004.095-.002.095-.007.095-.013.095-.019.094-.024.094-.031.092-4.549 12.547 21.079 33.461 12.829-1.069.106-.006.105.002.104.009.103.015.102.022.099.028.097.034.095.041.092.047.088.052.086.058.081.064.078.07.073.074.069.08.064.085c.02.029.039.058.058.088l.051.092.046.094.038.097.033.098.025.101.02.101.012.102.006.103v.103l-.007.103-.014.103-.021.102-.027.101-.035.099-.041.098-5.756 12.553 26.533 42.116 13.408-2.806.108-.019.108-.011.108-.004.107.003.106.011.105.017.103.024.102.032.099.037.097.045.093.05.09.057.087.063.083.07.078.075.074.081.067.086c.022.029.042.059.062.089l.055.093.048.096.041.098.035.1.028.103.021.104.014.105.007.106v.106l-.007.107-.014.106-.021.106-.029.104-.036.104-5.962 15.368 6.694 10.626s30.573-6.335 30.573-6.335l8.111-17.984v-.002l3.771-8.36zm-.353 8.562 4.502-9.983.041-.099.001-.003.011-.033.022-.064.002-.007.01-.039.015-.056.001-.005.001-.005.007-.041.011-.051v-.007l.002-.007.004-.041.007-.049v-.008l.001-.009.002-.04.003-.046v-.011l.001-.01-.001-.039v-.044l-.001-.012v-.012l-.003-.037-.003-.042-.002-.014-.001-.013-.005-.036-.006-.04-.003-.015-.002-.015-.008-.034-.007-.038-.005-.016-.003-.016-.009-.032-.01-.036-.006-.018-.005-.017-.011-.03-.011-.034-.008-.018-.007-.019-.013-.028-.012-.031-.01-.02-.009-.02-.014-.026-.014-.028-.012-.021-.011-.021-.015-.024-.015-.026-.014-.021-.013-.021-.016-.023-.016-.024-28.88-40.138s51.802 36.821 51.802 36.821c.33.234.735.334 1.136.281l27.728-3.662s-14.611 24.609-14.611 24.609-27.793 5.003-27.793 5.003zm-306.447-29.104-8.086 16.339-.004.009-2.489 5.029s-36.38 4.86-36.38 4.86-17.837-32.191-17.837-32.191l8.823-25.115 17.539 34.297c.303.591.94.934 1.601.861zm218.581-14.763.004-.009s4.976-10.852 4.976-10.852l-11.069.923-.009.001-11.556.962 12.926 19.284zm-157.237-84.346c-.14-.692-.718-1.211-1.422-1.275-.703-.064-1.365.34-1.629.995l-14.955 37.157c-.232.576-.109 1.235.315 1.689l28.699 30.682c.488.522 1.264.657 1.9.329s.977-1.038.835-1.739l-13.743-67.838zm-2.076 5.863 11.563 57.077s-24.146-25.815-24.146-25.815zm-175.406-5.278c.137-.806-.356-1.586-1.144-1.807-.787-.221-1.615.187-1.918.947l-16.106 40.376c-.237.595-.096 1.275.358 1.726l7.919 7.872c.424.421 1.047.571 1.616.389.569-.183.989-.667 1.089-1.256zm376.08-3.204c-.317-.474-.863-.744-1.433-.707-.569.037-1.076.375-1.329.887l-8.67 17.515c-.347.701-.136 1.549.498 2.007l39.372 28.392c.628.453 1.49.391 2.046-.146.557-.538.649-1.397.219-2.04zm-381.754 17.525-5.15 30.349s-4.981-4.951-4.981-4.951zm290.978 11.281 11.619 17.799s5.773-.365 5.773-.365l2.282-6.293.001-.003s4.039-11.138 4.039-11.138zm89.654-24.73 24.232 36.233s-31.074-22.409-31.074-22.409z"/><path d="m2.599 2.833c-.681 0-1.293.414-1.547 1.046-.253.633-.096 1.355.396 1.826l96.728 92.37s-20.315 116.378-20.315 116.378c-.096.546.086 1.103.486 1.487.399.384.963.545 1.505.429l53.217-11.404c.704-.151 1.231-.736 1.308-1.452l6.947-64.745s54.861 52.901 54.861 52.901c.404.39.978.55 1.525.426l46.492-10.526c.6-.136 1.077-.592 1.24-1.185.162-.594-.015-1.228-.462-1.651l-97.931-92.701s9.841-81.332 9.841-81.332c.057-.474-.091-.949-.407-1.306-.317-.357-.771-.561-1.248-.561h-39.182c-.813 0-1.507.586-1.643 1.388l-7.649 45.077s-46.26-45.981-46.26-45.981c-.312-.31-.734-.484-1.175-.484h-56.727zm285.685 170.315c.363.655 1.117.987 1.845.813l39.183-9.356c.515-.123.941-.483 1.147-.97.207-.488.17-1.044-.099-1.5l-33.102-55.998s57.145 52.808 57.145 52.808c.519.479 1.284.579 1.909.249s.974-1.018.87-1.717l-8.528-57.632s34.722 53.519 34.722 53.519c.369.568 1.044.856 1.708.731l32.457-6.141c.543-.103 1-.468 1.219-.975.22-.507.174-1.09-.122-1.556l-90.061-141.817c-.306-.481-.837-.773-1.407-.773h-33.626c-.5 0-.974.224-1.291.611-.316.388-.442.896-.343 1.386l12.575 62.072s-59.434-63.541-59.434-63.541c-.315-.337-.755-.528-1.217-.528h-47.077c-.59 0-1.136.312-1.436.82-.299.509-.308 1.138-.022 1.654zm143.321-29.169c.37.595 1.072.896 1.758.752l62.867-13.158c.538-.112.986-.483 1.197-.991s.159-1.087-.141-1.548l-18.421-28.363c-.345-.531-.961-.821-1.589-.748l-26.769 3.099s-15.693-23.41-15.693-23.41 25.247-2.105 25.247-2.105c.587-.049 1.105-.404 1.362-.934s.214-1.157-.111-1.648l-18.422-27.778c-.329-.497-.899-.78-1.494-.743l-26.809 1.694s-11.529-17.662-11.529-17.662h25.87c.621 0 1.191-.346 1.478-.896.287-.551.244-1.216-.112-1.725l-16.96-24.27c-.311-.446-.821-.712-1.366-.712h-64.914c-.605 0-1.162.328-1.456.856-.294.529-.279 1.175.04 1.689zm-.631-141.146c-.607 0-1.166.33-1.459.862-.294.532-.274 1.181.05 1.695l77.781 123.102c.359.569 1.024.866 1.687.753l34.504-5.847c.567-.097 1.045-.478 1.263-1.011.219-.532.148-1.139-.188-1.606l-28.644-39.809s51.472 36.585 51.472 36.585c.344.244.766.349 1.184.294l30.995-4.094c.575-.076 1.069-.445 1.305-.975.235-.53.179-1.144-.15-1.622l-75.442-109.652c-.31-.452-.824-.722-1.373-.722h-31.58c-.615 0-1.18.338-1.47.881-.289.542-.257 1.2.085 1.712l25.561 38.219s-53.318-38.45-53.318-38.45c-.284-.205-.625-.315-.975-.315h-31.288zm-253.502 63.676c-.572.017-1.094.326-1.386.818-.291.491-.309 1.098-.049 1.607l19.236 37.615c.316.617.98.974 1.668.898l39.74-4.412c.557-.061 1.046-.399 1.301-.898.254-.5.241-1.093-.035-1.581l-19.504-34.365c-.305-.537-.881-.861-1.498-.843z" fill-rule="nonzero"/></g></svg>