<?xml version="1.0" encoding="UTF-8" standalone="no"?><!DOCTYPE svg PUBLIC "-//W3C//DTD SVG 1.1//EN" "http://www.w3.org/Graphics/SVG/1.1/DTD/svg11.dtd"><svg width="100%" height="100%" viewBox="0 0 600 117" version="1.1" xmlns="http://www.w3.org/2000/svg" xmlns:xlink="http://www.w3.org/1999/xlink" xml:space="preserve" xmlns:serif="http://www.serif.com/" style="fill-rule:evenodd;clip-rule:evenodd;stroke-linejoin:round;stroke-miterlimit:2;"><g id="playstation_flat_new"><g><path d="M52.275,0.972l-0,100.712l22.803,7.224l0,-84.445c0,-3.979 1.775,-6.621 4.62,-5.712c3.72,1.031 4.443,4.697 4.443,8.632l0,33.725c14.194,6.87 25.37,-0.004 25.37,-18.13c-0,-18.522 -6.552,-26.774 -25.831,-33.409c-7.603,-2.531 -21.695,-6.803 -31.404,-8.597" style="fill:#fff;fill-rule:nonzero;"/><path d="M79.415,94.185l36.624,-13.036c4.144,-1.536 4.777,-3.622 1.423,-4.719c-3.405,-1.116 -9.484,-0.797 -13.671,0.707l-24.376,8.598l0,-13.72l1.396,-0.46c0,-0 7.056,-2.5 16.98,-3.576c9.905,-1.086 22.052,0.141 31.599,3.74c10.755,3.416 11.96,8.399 9.239,11.867c-2.761,3.433 -9.453,5.915 -9.453,5.915l-49.761,17.875l0,-13.191Z" style="fill:#fff;"/><path d="M10.494,92.797c-11.027,-3.071 -12.866,-9.562 -7.835,-13.311c4.639,-3.425 12.542,-6.002 12.542,-6.002l32.665,-11.647l0,13.256l-23.485,8.418c-4.16,1.488 -4.784,3.582 -1.433,4.677c3.411,1.14 9.463,0.834 13.625,-0.702l11.293,-4.072l0,11.834c-0.728,0.122 -1.537,0.245 -2.276,0.371c-11.259,1.869 -23.253,1.102 -35.096,-2.821l-0,-0.001Z" style="fill:#fff;"/></g><g><path d="M285.729,42.869l-0.129,0.193l16.553,48.475c0.028,0.108 0.028,0.276 -0.007,0.383l-9.321,24.001c-0.039,0.113 0.012,0.197 0.122,0.197l9.706,-0c0.126,-0.003 0.239,-0.08 0.285,-0.197l29.058,-72.859c0.042,-0.116 -0.01,-0.193 -0.124,-0.193l-10.59,-0c-0.12,0.005 -0.227,0.081 -0.271,0.193l-12.302,31.854l-0.138,-0l-10.862,-31.853c-0.025,-0.117 -0.149,-0.194 -0.26,-0.194l-11.72,-0Z" style="fill:#fff;"/><path d="M502.724,42.869l-11.156,-0c-0.109,0.001 -0.2,0.089 -0.203,0.199l-0,48.922l0.203,0.2l11.156,-0c0.001,-0 0.002,-0 0.003,-0c0.11,-0 0.201,-0.09 0.203,-0.2l-0,-48.922c-0,-0.001 -0,-0.002 -0,-0.003c-0,-0.108 -0.089,-0.197 -0.197,-0.197c-0.003,0 -0.006,0 -0.009,0.001Z" style="fill:#fff;"/><path d="M484.275,42.869l-12.046,-0l-0.081,-0.075l-0,-8.116l-0.185,-0.199l-11.18,-0c-0.11,-0 -0.202,0.089 -0.206,0.199l0,42.738c0,8.561 5.328,14.774 12.67,14.774l7.989,-0c0.108,-0 0.197,-0.089 0.197,-0.197c-0,-0.001 -0,-0.002 -0,-0.003l-0,-6.668c-0,-0.109 -0.078,-0.212 -0.197,-0.212l-4.904,0c-1.261,-0.019 -4.184,-0.082 -4.184,-6.389l-0,-28.773l0.066,-0.065c3.682,0.019 12.061,0 12.061,0l0.199,-0.183l0,-6.632c-0.003,-0.108 -0.091,-0.196 -0.199,-0.199Z" style="fill:#fff;"/><path d="M197.069,27.402l-27.538,-0.012c-0.109,-0.002 -0.201,0.085 -0.204,0.194l-0,64.406c-0,0.103 0.09,0.2 0.204,0.2l11.161,-0l0.196,-0.2l0.013,-57.415l0.066,-0.095l12.779,-0.025c4.653,0 7.209,4.689 7.209,13.186c-0,8.502 -2.556,13.202 -7.209,13.202l-7.691,-0.009c-0.115,0 -0.193,0.088 -0.193,0.198l-0,6.682c-0,0.131 0.078,0.21 0.193,0.21l11.014,0c3.886,0 7.692,-1.801 10.438,-4.895c3.253,-3.672 4.967,-8.975 4.967,-15.329c-0,-12.313 -6.015,-20.298 -15.405,-20.298Z" style="fill:#fff;"/><path d="M230.727,27.39l-11.168,-0c-0.127,-0 -0.218,0.089 -0.218,0.194l0,64.406c0,0.105 0.091,0.2 0.218,0.2l11.168,-0l0.205,-0.2l-0,-64.406l-0.205,-0.194Z" style="fill:#fff;"/><path d="M406.359,42.869l-12.115,-0l-0.063,-0.075l-0,-8.116c-0,-0.108 -0.083,-0.199 -0.195,-0.199l-11.157,-0c-0.114,-0 -0.213,0.091 -0.213,0.199l0,42.738c0,8.561 5.336,14.774 12.685,14.774l7.99,-0c0.115,-0 0.204,-0.097 0.204,-0.2l-0,-6.668c-0,-0.109 -0.089,-0.212 -0.204,-0.212l-4.905,0c-1.258,-0.019 -4.205,-0.082 -4.217,-6.389l0,-28.773l0.068,-0.065c3.712,0.019 12.122,0 12.122,0l0.197,-0.183l0,-6.632c0,-0.108 -0.088,-0.198 -0.197,-0.199Z" style="fill:#fff;"/><path d="M579.914,42.869l-19.911,-0c-0.109,0.001 -0.197,0.091 -0.197,0.199l-0.006,48.922l0.187,0.2l11.176,-0l0.189,-0.2l-0.015,-42l0.077,-0.081l8.49,-0.007c2.296,0 4.815,0.371 6.426,3.026c1.474,2.398 2.142,6.616 2.142,13.235c0.01,0.286 -0.009,25.827 -0.009,25.827c0,0.103 0.089,0.2 0.199,0.2l11.128,-0c0.121,-0 0.21,-0.097 0.21,-0.2l-0,-24.534c-0,-11.499 -2.297,-24.587 -20.086,-24.587Z" style="fill:#fff;"/><path d="M279.432,43.067c-0,-0.114 -0.101,-0.2 -0.211,-0.2l-19.887,0c-17.833,0 -20.113,13.09 -20.113,24.595l0.014,9.949c-0,8.561 5.324,14.778 12.645,14.778l10.85,0l0.196,-0.199l0,-6.675c0,-0.109 -0.092,-0.206 -0.196,-0.206l-7.75,0.013c-1.785,-0.036 -4.19,-0.792 -4.19,-6.931l0,-10.742c-0.008,-7.138 0.656,-11.701 2.138,-14.298c1.606,-2.865 4.133,-3.25 6.406,-3.25l8.477,0l0.071,0.101l-0.01,41.988c-0,0.102 0.086,0.199 0.205,0.199l11.147,0c0.11,0 0.208,-0.097 0.208,-0.199l-0,-48.923Z" style="fill:#fff;"/><path d="M359.766,54.342l-5.499,-0.419c-4.125,-0.355 -7.192,-2.639 -7.192,-9.396c0,-7.891 3.539,-10.049 8.263,-10.049l15.221,-0l0.202,-0.197l0,-6.697l-0.202,-0.192l-0.318,-0l-16.49,0.004c-10.389,-0 -17.776,6.101 -17.776,18.261l-0,0.529c-0,9.595 5.904,16.52 14.702,17.193l5.474,0.406c4.175,0.316 6.775,4.049 6.775,9.716l0,1.593c0,3.542 -0.885,10.023 -8.482,10.023l-15.815,0c-0.111,0.003 -0.2,0.096 -0.199,0.206l-0,6.667l0.199,0.199l19.635,0c6.05,0 16.18,-2.447 16.18,-18.915c0,-5.966 -1.355,-10.669 -4.102,-14.067c-2.341,-2.919 -5.81,-4.497 -10.576,-4.864l-0,-0.001Z" style="fill:#fff;"/><path d="M451.225,43.067c-0,-0.109 -0.09,-0.199 -0.199,-0.2l-19.932,0c-17.794,0 -20.098,13.09 -20.098,24.595l0.014,9.949c0,8.561 5.32,14.778 12.678,14.778l10.821,0l0.201,-0.199l0,-6.675c-0.001,-0.111 -0.09,-0.202 -0.201,-0.206l-7.755,0.013c-1.779,-0.036 -4.161,-0.792 -4.168,-6.931l0,-10.742c0,-7.138 0.672,-11.701 2.119,-14.298c1.607,-2.865 4.15,-3.25 6.385,-3.25l8.515,0l0.084,0.101l-0.02,41.988c-0,0.102 0.092,0.199 0.203,0.199l11.163,0c0.11,0 0.191,-0.097 0.191,-0.199l-0.001,-48.923Z" style="fill:#fff;"/><path d="M531.383,42.869c-18.636,0 -21.018,13.151 -21.018,24.651c-0,11.512 2.382,24.706 21.018,24.706c18.638,0 21.015,-13.194 21.015,-24.706c-0,-11.5 -2.376,-24.651 -21.015,-24.651Zm7.074,39.002c-1.756,2.892 -4.544,3.279 -7.074,3.279c-2.504,-0 -5.301,-0.387 -7.076,-3.278c-1.6,-2.603 -2.341,-7.163 -2.341,-14.353l-0,-0.057c-0,-8.485 1.044,-13.306 3.38,-15.602c1.396,-1.394 3.208,-1.959 6.037,-1.959c2.872,0 4.664,0.565 6.061,1.959c2.314,2.296 3.36,7.137 3.36,15.659c0,7.199 -0.743,11.763 -2.347,14.352Z" style="fill:#fff;"/><path d="M502.724,27.39l-11.156,-0l-0.203,0.194l-0,9.353c-0,0.114 0.099,0.197 0.203,0.197l11.156,-0c0.122,-0 0.206,-0.083 0.206,-0.197l-0,-9.353c-0,-0.105 -0.084,-0.194 -0.206,-0.194Z" style="fill:#fff;"/></g></g></svg>