<?xml version="1.0" encoding="UTF-8" standalone="no"?><!DOCTYPE svg PUBLIC "-//W3C//DTD SVG 1.1//EN" "http://www.w3.org/Graphics/SVG/1.1/DTD/svg11.dtd"><svg width="100%" height="100%" viewBox="0 0 600 179" version="1.1" xmlns="http://www.w3.org/2000/svg" xmlns:xlink="http://www.w3.org/1999/xlink" xml:space="preserve" xmlns:serif="http://www.serif.com/" style="fill-rule:evenodd;clip-rule:evenodd;stroke-linejoin:round;stroke-miterlimit:2;"><g id="playstation_psp"><g><path id="path6905" d="M109.268,153.338c5.643,0 9.028,-1.15 9.028,-6.514c0,-3.971 -2.462,-6.096 -8.104,-6.096l-7.798,0l-0,12.61l6.874,0Zm-9.849,16.568l-0,-31.733l11.594,0c8.207,0 10.363,4.105 10.363,8.864c0,7.09 -6.362,8.854 -12.21,8.854l-6.772,-0l-0,14.014l-2.975,0.001" style="fill:#fff;fill-rule:nonzero;"/><rect id="path6907" x="125.375" y="138.173" width="2.565" height="31.733" style="fill:#fff;fill-rule:nonzero;"/><path id="path6909" d="M149.486,157.912c-2.256,0.923 -4.616,1.108 -6.872,1.284c-4.003,0.306 -6.464,1.763 -6.464,4.842c0,2.791 2.463,4.104 4.926,4.104c4.206,0 8.413,-2.032 8.413,-6.659l-0.003,-3.571Zm-4.513,-1.313c1.025,-0.092 2.668,-0.359 3.488,-0.76c0.924,-0.391 1.025,-1.579 1.025,-2.369c0,-2.688 -1.641,-4.627 -5.744,-4.627c-3.591,0 -6.155,1.19 -6.67,5.151l-2.668,0c0.411,-5.377 4.411,-7.541 9.439,-7.541c4.617,-0 8.209,1.816 8.209,7.099l-0,12.426c-0,2.071 0.615,2.555 2.77,1.763l-0,2.073c-0.308,0.134 -1.231,0.441 -2.052,0.441c-0.411,-0 -0.718,-0.041 -1.128,-0.133c-1.847,-0.256 -2.156,-1.805 -2.156,-3.397c-2.155,2.474 -5.232,3.797 -8.515,3.797c-4.001,0 -7.593,-2.165 -7.593,-6.566c-0,-3.827 2.668,-6.165 8.003,-6.873l3.592,-0.484" style="fill:#fff;fill-rule:nonzero;"/><path id="path6911" d="M158.618,176.114c0.718,0.133 1.435,0.277 2.155,0.277c3.078,-0 3.488,-4.329 4.513,-6.31l-8.926,-23.003l2.976,0l7.388,19.617l7.283,-19.617l2.873,0l-8.516,22.52c-2.156,5.725 -3.591,9.297 -7.285,9.297c-0.923,-0 -1.744,-0.132 -2.462,-0.307l0.001,-2.474" style="fill:#fff;fill-rule:nonzero;"/><path id="path6913" d="M183.138,160.427c0.514,5.683 4.208,7.755 9.132,7.755c5.643,0 8.003,-3.075 8.003,-6.566c-0,-9.828 -19.289,-3.303 -19.289,-15.767c-0,-4.414 3.59,-8.506 10.772,-8.506c7.079,-0 10.67,4.308 10.568,9.481l-2.77,0c0,-4.854 -3.796,-6.926 -7.798,-6.926c-6.156,0 -8.311,3.744 -7.798,7.007c1.334,8.187 19.392,2.287 19.392,14.578c0,5.829 -4.309,9.256 -11.594,9.256c-6.669,0 -11.594,-3.427 -11.594,-10.311l2.976,-0.001" style="fill:#fff;fill-rule:nonzero;"/><path id="path6915" d="M217.1,169.99c-0.616,0.132 -1.744,0.533 -3.078,0.533c-2.566,0 -4.002,-1.149 -4.002,-4.544l-0,-16.704l-3.284,0l-0,-2.195l3.284,0l-0,-6.351l2.668,0l0,6.351l4.207,0l-0,2.195l-4.207,0l0,15.648c0,2.257 0,3.22 2.256,3.22c0.719,0 1.435,-0.133 2.156,-0.307l0,2.154" style="fill:#fff;fill-rule:nonzero;"/><path id="path6917" d="M236.9,157.912c-2.257,0.923 -4.513,1.108 -6.772,1.284c-4,0.306 -6.463,1.763 -6.463,4.842c0,2.791 2.463,4.104 4.927,4.104c4.205,0 8.309,-2.032 8.309,-6.659l-0.001,-3.571Zm-4.412,-1.313c0.924,-0.092 2.567,-0.359 3.49,-0.76c0.821,-0.391 0.923,-1.579 0.923,-2.369c-0,-2.688 -1.539,-4.627 -5.643,-4.627c-3.693,0 -6.156,1.19 -6.669,5.151l-2.668,0c0.409,-5.377 4.411,-7.541 9.335,-7.541c4.619,-0 8.312,1.816 8.312,7.099l-0,12.426c-0,2.071 0.514,2.555 2.771,1.763l0,2.073c-0.411,0.134 -1.335,0.441 -2.052,0.441c-0.41,-0 -0.82,-0.041 -1.232,-0.133c-1.744,-0.256 -2.052,-1.805 -2.052,-3.397c-2.258,2.474 -5.231,3.797 -8.515,3.797c-4.002,0 -7.695,-2.165 -7.695,-6.566c-0,-3.827 2.668,-6.165 8.003,-6.873l3.692,-0.484" style="fill:#fff;fill-rule:nonzero;"/><path id="path6919" d="M255.164,169.99c-0.615,0.132 -1.745,0.533 -3.077,0.533c-2.565,0 -4.002,-1.149 -4.002,-4.544l0,-16.704l-3.181,0l-0,-2.195l3.181,0l0,-6.351l2.668,0l0,6.351l4.207,0l-0,2.195l-4.207,0l0,15.648c0,2.257 0,3.22 2.256,3.22c0.718,0 1.438,-0.133 2.156,-0.307l0,2.154" style="fill:#fff;fill-rule:nonzero;"/><path id="path6921" d="M263.065,169.906l-2.567,0l0,-22.827l2.567,0l-0,22.827Zm-2.772,-27.816l-0,-3.917l2.976,0l-0,3.917l-2.976,0" style="fill:#fff;fill-rule:nonzero;"/><path id="path6923" d="M278.659,148.843c-5.54,0 -7.695,4.709 -7.695,9.644c0,5.684 2.668,9.654 7.695,9.654c5.54,0 7.798,-4.76 7.798,-9.654c0,-5.376 -2.155,-9.644 -7.798,-9.644Zm-10.567,9.643c-0,-6.647 3.591,-12.034 10.567,-12.034c7.181,-0 10.67,5.334 10.67,12.034c0,7.236 -4.207,12.035 -10.67,12.035c-5.745,-0.091 -10.567,-4.052 -10.567,-12.035" style="fill:#fff;fill-rule:nonzero;"/><path id="path6925" d="M295.691,169.906l-2.668,0l-0,-22.827l2.668,0l-0,3.17c2.051,-2.247 4.207,-3.796 7.285,-3.796c2.871,-0 5.335,0.881 6.976,3.262c1.126,1.643 1.23,3.354 1.23,5.242l-0,14.948l-2.668,0l-0,-14.897c-0,-4.091 -1.743,-6.165 -5.951,-6.165c-3.284,0 -5.541,2.113 -6.361,4.441c-0.514,1.458 -0.514,2.741 -0.514,4.331l-0,12.291" style="fill:#fff;fill-rule:nonzero;"/><path id="path6929" d="M343.912,153.338c5.643,0 9.13,-1.15 9.13,-6.514c0,-3.971 -2.563,-6.096 -8.206,-6.096l-7.799,0l-0,12.61l6.875,0Zm-9.847,16.568l0,-31.733l11.594,0c8.209,0 10.36,4.105 10.36,8.864c0,7.09 -6.259,8.854 -12.208,8.854l-6.773,-0l-0,14.014l-2.973,0.001" style="fill:#fff;fill-rule:nonzero;"/><path id="path6931" d="M367.817,148.843c-5.539,0 -7.794,4.709 -7.794,9.644c-0,5.684 2.767,9.654 7.794,9.654c5.542,0 7.799,-4.76 7.799,-9.654c-0.102,-5.376 -2.155,-9.644 -7.799,-9.644Zm-10.566,9.643c0,-6.647 3.489,-12.034 10.566,-12.034c7.183,-0 10.569,5.334 10.569,12.034c0,7.236 -4.207,12.035 -10.569,12.035c-5.847,-0.091 -10.566,-4.052 -10.566,-12.035" style="fill:#fff;fill-rule:nonzero;"/><path id="path6933" d="M384.954,169.906l-2.668,0l-0,-22.827l2.668,0l0,4.28l0.104,0c1.433,-3.665 3.591,-4.905 7.387,-4.905l-0,2.874c-5.953,-0.133 -7.489,4.267 -7.489,9.377l0,11.201" style="fill:#fff;fill-rule:nonzero;"/><path id="path6935" d="M407.218,169.99c-0.616,0.132 -1.744,0.533 -2.977,0.533c-2.667,0 -4.105,-1.149 -4.105,-4.544l-0,-16.704l-3.179,0l-0,-2.195l3.179,0l-0,-6.351l2.668,0l-0,6.351l4.309,0l0,2.195l-4.309,0l-0,15.648c-0,2.257 0.104,3.22 2.257,3.22c0.722,0 1.54,-0.133 2.156,-0.307l0,2.154" style="fill:#fff;fill-rule:nonzero;"/><path id="path6937" d="M426.197,157.912c-2.257,0.923 -4.515,1.108 -6.771,1.284c-4.001,0.306 -6.463,1.763 -6.463,4.842c-0,2.791 2.464,4.104 4.923,4.104c4.209,0 8.312,-2.032 8.312,-6.659l0,-3.571l-0.001,0Zm-4.413,-1.313c0.922,-0.092 2.565,-0.359 3.489,-0.76c0.823,-0.391 0.924,-1.579 0.924,-2.369c0,-2.688 -1.54,-4.627 -5.643,-4.627c-3.691,0 -6.155,1.19 -6.668,5.151l-2.668,0c0.409,-5.377 4.413,-7.541 9.336,-7.541c4.618,-0 8.312,1.816 8.312,7.099l0,12.426c0,2.071 0.511,2.555 2.77,1.763l0,2.073c-0.412,0.134 -1.336,0.441 -2.051,0.441c-0.412,-0 -0.822,-0.041 -1.232,-0.133c-1.742,-0.256 -2.051,-1.805 -2.051,-3.397c-2.259,2.474 -5.233,3.797 -8.521,3.797c-3.997,0 -7.694,-2.165 -7.694,-6.566c0,-3.827 2.667,-6.165 8.002,-6.873l3.695,-0.484" style="fill:#fff;fill-rule:nonzero;"/><path id="path6939" d="M447.129,168.141c4.411,0 7.694,-3.22 7.799,-8.945c0.202,-5.726 -2.36,-10.353 -7.799,-10.353c-4.823,0 -7.695,4.401 -7.695,9.553c-0.003,5.518 2.668,9.745 7.695,9.745Zm-7.698,1.765l-2.667,0l-0,-31.733l2.667,0l-0,12.557c1.645,-2.77 4.925,-4.278 8.107,-4.278c6.974,-0 10.157,5.693 10.157,12.086c0,6.73 -2.873,11.983 -10.258,11.983c-2.977,0 -6.361,-1.631 -8.002,-4.627l-0,4.012" style="fill:#fff;fill-rule:nonzero;"/><rect id="path6941" x="463.545" y="138.173" width="2.667" height="31.733" style="fill:#fff;fill-rule:nonzero;"/><path id="path6943" d="M489.194,156.897c-0,-4.443 -2.462,-8.054 -7.181,-8.054c-4.719,0 -7.183,3.745 -7.695,8.054l14.876,0Zm-14.877,2.215c-0,4.926 2.668,9.03 7.695,9.03c3.385,0 6.155,-1.899 6.872,-5.242l2.975,0c-1.333,4.308 -3.999,7.623 -9.847,7.623c-7.287,0 -10.468,-5.201 -10.468,-11.94c-0,-6.66 3.901,-12.129 10.468,-12.129c6.259,-0 10.054,4.464 10.054,12.659l-17.749,-0.001" style="fill:#fff;fill-rule:nonzero;"/></g><g><path id="path6945" d="M-0,0.822l186.936,-0l-0,55.435l-179.55,0l0,48.046l-7.386,0l-0,-55.435l179.548,-0l0,-40.661l-179.548,-0l-0,-7.385" style="fill:#fff;fill-rule:nonzero;"/><path id="path6947" d="M420.453,56.257l-0,48.046l-7.388,0l0,-55.435l179.547,-0l-0,-40.661l-179.547,-0l0,-7.386l186.935,-0l-0,55.435l-179.547,0" style="fill:#fff;fill-rule:nonzero;"/><path id="path6949" d="M282.25,0.822l0,96.094l-95.314,0l-0,7.387l103.111,0l-0,-96.096l95.316,-0l-0,-7.386l-103.113,-0" style="fill:#fff;fill-rule:nonzero;"/></g></g></svg>