<?xml version="1.0" encoding="UTF-8" standalone="no"?><!DOCTYPE svg PUBLIC "-//W3C//DTD SVG 1.1//EN" "http://www.w3.org/Graphics/SVG/1.1/DTD/svg11.dtd"><svg width="100%" height="100%" viewBox="0 0 600 192" version="1.1" xmlns="http://www.w3.org/2000/svg" xmlns:xlink="http://www.w3.org/1999/xlink" xml:space="preserve" xmlns:serif="http://www.serif.com/" style="fill-rule:evenodd;clip-rule:evenodd;stroke-linejoin:round;stroke-miterlimit:2;"><g id="playlist_strategy"><g id="playlist_strategy1" serif:id="playlist_strategy"><clipPath id="_clip1"><path d="M439.354,170.916c-0.563,1.928 -1.485,3.741 -2.721,5.339c-0.908,1.175 -2.334,1.832 -3.817,1.76c-0.135,-0.007 -0.269,-0.02 -0.402,-0.04c-0.015,0.112 -0.036,0.224 -0.062,0.336c-0.335,1.466 -1.373,2.672 -2.774,3.22c-0.521,0.204 -1.051,0.381 -1.588,0.531c7.318,6.264 17.328,9.683 28.878,9.683c33.601,0 42.093,-21.416 42.093,-51.139l0,-84.741l-16.616,-0l0,14.769l-0.369,0c-6.831,-10.708 -17.17,-17.354 -30.093,-17.354c-24.924,-0 -40.617,21.601 -40.617,45.232c0,24.739 14.77,46.709 41.355,46.709c12.185,0 22.709,-6.646 29.355,-16.431l0.369,-0l0,16.431c0,17.724 -4.246,31.755 -24.739,31.755c-7.379,-0 -13.705,-2.105 -18.252,-6.06Zm105.814,-43.419l-33.971,64.248l18.832,0l69.971,-135.88l-18.647,-0l-27.139,54.832l-29.17,-54.832l-19.385,-0l39.509,71.632Zm-406.418,18.692c0.009,-0.448 0.063,-2.1 0.413,-2.976c0.402,-1.005 1.611,-1.96 1.622,-1.969l40.54,0.025c-0.021,0.016 1.162,1.079 1.504,2.014c0.301,0.824 0.428,2.451 0.46,2.906l-44.539,-0Zm-55.671,-125.033c-7.569,-13.477 -20.308,-21.047 -35.816,-21.047c-21.047,0 -40.986,13.478 -40.986,36.001c0,19.385 14.401,28.432 30.278,35.263l9.6,4.061c12.001,4.985 24.001,11.447 24.001,26.401c-0,14.585 -10.708,27.139 -25.662,27.139c-14.955,0 -27.14,-11.077 -26.955,-26.4l-17.539,3.692c2.954,22.339 20.493,38.955 43.017,38.955c24.923,0 44.493,-18.093 44.493,-43.386c0,-23.262 -14.769,-34.155 -34.524,-41.909l-9.969,-3.877c-8.678,-3.323 -19.386,-9.046 -19.386,-19.939c0,-12.185 12.185,-19.754 23.263,-19.754c10.523,-0 17.169,4.431 22.339,13.108l13.846,-8.308Zm142.95,123.725c-22.924,-2.865 -35.786,-23.426 -35.786,-46.369c0,-23.631 15.693,-45.232 40.801,-45.232c12.739,-0 23.078,6.646 29.909,16.985l0.369,0l-0,-14.4l16.616,-0l-0,54.07c-3.328,-2.589 -7.08,-4.957 -10.951,-5.796c-1.64,-0.356 -3.312,-0.557 -4.978,-0.61c0.157,-1.46 0.236,-2.951 0.236,-4.463c0,-16.801 -10.154,-31.016 -28.062,-31.016c-17.17,-0 -27.324,14.954 -27.324,31.016c-0,14.31 7.591,27.761 21.385,30.763c-0.513,2.487 -0.984,5.156 -1.393,8.008c-0.355,2.47 -0.624,4.819 -0.822,7.044Zm-109.728,-73.508l16.247,-0l0,-15.508l-16.247,-0l0,-33.047l-16.615,-0l-0,33.047l-9.047,-0l0,15.508l9.047,-0l-0,70.894l16.615,0l0,-70.894Zm225.088,65.781c1.385,-2.513 2.842,-4.197 4.181,-5.312c3.381,-2.814 6.646,-2.916 8.731,-2.41c3.023,0.712 4.974,2.829 6.056,5.335c0.471,1.092 0.749,2.244 0.909,3.275l9.92,2c0.424,0.086 0.828,0.23 1.201,0.426c3.87,-1.832 17.14,-8.187 19.646,-9.279c2.424,-1.059 6.053,-2.11 9.545,-1.633c2.062,-2.409 3.899,-5.07 5.472,-7.966l-14.031,-7.939c-6.277,10.339 -13.108,16.8 -25.847,16.8c-15.877,0 -25.847,-13.846 -26.031,-28.616l65.909,0l0,-2.584c0,-25.663 -12.923,-45.971 -40.431,-45.971c-27.878,-0 -42.094,19.939 -42.094,46.524c0,15.654 6.063,29.217 16.864,37.35Zm-200.334,1.43c-2.032,-2.821 -3.086,-6.833 -2.818,-10.748c0.244,-3.625 2.528,-7.325 4.363,-10.298c0.24,-0.39 0.475,-0.771 0.698,-1.138l35.899,0c1.617,2.561 4.329,7.506 4.611,12.24c0.22,3.763 -0.703,7.016 -2.822,9.944l-39.931,0Zm314.151,-8.133c-17.539,0 -27.324,-15.138 -27.324,-31.385c0,-16.062 10.154,-31.016 27.324,-31.016c17.908,-0 28.062,14.215 28.062,31.016c0,16.985 -9.969,31.385 -28.062,31.385Zm-160.662,-12.429c1.563,0.975 3.051,1.923 4.498,2.847c4.265,2.718 7.897,5.179 12.118,7.466l0,-56.962l16.247,-0l-0,-15.508l-16.247,-0l0,-33.047l-16.616,-0l0,33.047l-9.046,-0l-0,15.508l9.046,-0l0,46.649Zm-151.12,-4.171c-0.228,-0.01 -0.675,-0.287 -0.995,-0.715c-0.242,-0.327 -0.499,-0.851 -0.338,-1.488c0.362,-1.54 1.662,-1.877 2.133,-1.877l34.387,0c0.471,0 1.775,0.337 2.133,1.874c0.163,0.639 -0.093,1.163 -0.336,1.49c-0.319,0.429 -0.768,0.706 -1,0.716c-0.125,0.002 -2.584,0.002 -5.806,0.002c-0,-0 -30.049,-0 -30.178,-0.002Zm1.048,-6.407c-7.461,-10.188 -11.195,-52.525 6.003,-65.357c4.012,-2.997 9.594,-4.786 14.929,-4.786c2.03,0 3.946,0.269 5.541,0.78l0.072,0.022l0.049,-0.057c0.853,-0.989 1.842,-1.885 3.109,-2.814c2.615,2.281 2.038,3.663 1.476,4.998c-0.118,0.285 -0.236,0.568 -0.323,0.854l-0.027,0.09l0.083,0.044c0.859,0.45 3.008,1.875 4.424,5.378c1.53,3.777 6.178,9.415 9.749,11.828c3.909,2.64 2.907,4.591 1.522,7.291c-1.392,2.715 -3.298,4.644 -3.651,4.988c-0.889,-0.459 -1.481,-0.921 -2.054,-1.369c-0.763,-0.594 -1.482,-1.156 -2.804,-1.663c-1.011,-0.389 -2.216,-0.586 -3.582,-0.586c-1.615,0 -3.42,0.27 -5.366,0.802c-0.768,0.21 -1.496,0.317 -2.16,0.317c-4.892,0 -5.237,-5.537 -5.26,-6.168c-0.03,-0.799 -0.539,-1.231 -1.004,-1.231c-0.46,0 -1.009,0.41 -1.04,1.563c-0.301,11.333 8.142,23.399 16.132,29.838l-1.909,15.238l-33.909,-0Zm197.592,-18.163c2.031,-12.37 11.631,-21.601 24.555,-21.601c13.292,0 21.785,8.678 23.816,21.601l-48.371,0Z"/></clipPath><g clip-path="url(#_clip1)"><g><path d="M138.75,146.189c0.009,-0.448 0.063,-2.1 0.413,-2.976c0.402,-1.005 1.611,-1.96 1.622,-1.969l40.54,0.025c-0.021,0.016 1.162,1.079 1.504,2.014c0.301,0.824 0.428,2.451 0.46,2.906l-44.539,-0Z" style="fill:#fff;"/><path d="M141.055,138.584c-2.032,-2.821 -3.086,-6.833 -2.818,-10.748c0.244,-3.625 2.528,-7.325 4.363,-10.298c0.24,-0.39 0.475,-0.771 0.698,-1.138l35.899,0c1.617,2.561 4.329,7.506 4.611,12.24c0.22,3.763 -0.703,7.016 -2.822,9.944l-39.931,0Z" style="fill:#fff;"/><path d="M143.424,113.851c-0.228,-0.01 -0.675,-0.287 -0.995,-0.715c-0.242,-0.327 -0.499,-0.851 -0.338,-1.488c0.362,-1.54 1.662,-1.877 2.133,-1.877l34.387,0c0.471,0 1.775,0.337 2.133,1.874c0.163,0.639 -0.093,1.163 -0.336,1.49c-0.319,0.429 -0.768,0.706 -1,0.716c-0.125,0.002 -2.584,0.002 -5.806,0.002c-0,-0 -30.049,-0 -30.178,-0.002Z" style="fill:#fff;"/><path d="M144.472,107.444c-7.461,-10.188 -11.195,-52.525 6.003,-65.357c4.012,-2.997 9.594,-4.786 14.929,-4.786c2.03,0 3.946,0.269 5.541,0.78l0.072,0.022l0.049,-0.057c0.853,-0.989 1.842,-1.885 3.109,-2.814c2.615,2.281 2.038,3.663 1.476,4.998c-0.118,0.285 -0.236,0.568 -0.323,0.854l-0.027,0.09l0.083,0.044c0.859,0.45 3.008,1.875 4.424,5.378c1.53,3.777 6.178,9.415 9.749,11.828c3.909,2.64 2.907,4.591 1.522,7.291c-1.392,2.715 -3.298,4.644 -3.651,4.988c-0.889,-0.459 -1.481,-0.921 -2.054,-1.369c-0.763,-0.594 -1.482,-1.156 -2.804,-1.663c-1.011,-0.389 -2.216,-0.586 -3.582,-0.586c-1.615,0 -3.42,0.27 -5.366,0.802c-0.768,0.21 -1.496,0.317 -2.16,0.317c-4.892,0 -5.237,-5.537 -5.26,-6.168c-0.03,-0.799 -0.539,-1.231 -1.004,-1.231c-0.46,0 -1.009,0.41 -1.04,1.563c-0.301,11.333 8.142,23.399 16.132,29.838l-1.909,15.238l-33.909,-0Z" style="fill:#fff;"/></g><path d="M83.079,21.156c-7.569,-13.477 -20.308,-21.047 -35.816,-21.047c-21.047,0 -40.986,13.478 -40.986,36.001c0,19.385 14.401,28.432 30.278,35.263l9.6,4.061c12.001,4.985 24.001,11.447 24.001,26.401c-0,14.585 -10.708,27.139 -25.662,27.139c-14.955,0 -27.14,-11.077 -26.955,-26.4l-17.539,3.692c2.954,22.339 20.493,38.955 43.017,38.955c24.923,0 44.493,-18.093 44.493,-43.386c0,-23.262 -14.769,-34.155 -34.524,-41.909l-9.969,-3.877c-8.678,-3.323 -19.386,-9.046 -19.386,-19.939c0,-12.185 12.185,-19.754 23.263,-19.754c10.523,-0 17.169,4.431 22.339,13.108l13.846,-8.308Z" style="fill:#fff;fill-rule:nonzero;"/><path d="M116.301,71.373l16.247,-0l0,-15.508l-16.247,-0l0,-33.047l-16.615,-0l-0,33.047l-9.047,-0l0,15.508l9.047,-0l-0,70.894l16.615,0l0,-70.894Z" style="fill:#fff;fill-rule:nonzero;"/><path d="M234.183,130.451c-17.539,0 -27.324,-15.138 -27.324,-31.385c-0,-16.062 10.154,-31.016 27.324,-31.016c17.908,-0 28.062,14.215 28.062,31.016c0,16.985 -9.969,31.385 -28.062,31.385Zm43.755,-74.586l-16.616,-0l-0,14.4l-0.369,0c-6.831,-10.339 -17.17,-16.985 -29.909,-16.985c-25.108,-0 -40.801,21.601 -40.801,45.232c0,24.739 14.954,46.709 41.355,46.709c12.37,0 22.708,-6.646 29.355,-16.431l0.369,-0l-0,13.477l16.616,0l-0,-86.402Z" style="fill:#fff;fill-rule:nonzero;"/><path d="M311.16,71.373l16.247,-0l-0,-15.508l-16.247,-0l0,-33.047l-16.616,-0l0,33.047l-9.046,-0l-0,15.508l9.046,-0l0,70.894l16.616,0l0,-70.894Z" style="fill:#fff;fill-rule:nonzero;"/><path d="M407.05,101.835l0,-2.584c0,-25.663 -12.923,-45.971 -40.431,-45.971c-27.878,-0 -42.094,19.939 -42.094,46.524c0,25.478 16.062,45.417 42.463,45.417c16.8,0 31.939,-8.677 40.062,-23.631l-14.031,-7.939c-6.277,10.339 -13.108,16.8 -25.847,16.8c-15.877,0 -25.847,-13.846 -26.031,-28.616l65.909,0Zm-64.986,-12.554c2.031,-12.37 11.631,-21.601 24.555,-21.601c13.292,0 21.785,8.678 23.816,21.601l-48.371,0Z" style="fill:#fff;fill-rule:nonzero;"/><path d="M455.206,130.451c-17.539,0 -27.324,-15.138 -27.324,-31.385c0,-16.062 10.154,-31.016 27.324,-31.016c17.908,-0 28.062,14.215 28.062,31.016c0,16.985 -9.969,31.385 -28.062,31.385Zm43.755,-74.586l-16.616,-0l0,14.769l-0.369,0c-6.831,-10.708 -17.17,-17.354 -30.093,-17.354c-24.924,-0 -40.617,21.601 -40.617,45.232c0,24.739 14.77,46.709 41.355,46.709c12.185,0 22.709,-6.646 29.355,-16.431l0.369,-0l0,16.431c0,17.724 -4.246,31.755 -24.739,31.755c-15.139,-0 -25.847,-8.862 -25.847,-24.37l-16.616,-0c0.37,24.37 17.724,39.139 41.725,39.139c33.601,0 42.093,-21.416 42.093,-51.139l0,-84.741Z" style="fill:#fff;fill-rule:nonzero;"/><path d="M545.168,127.497l-33.971,64.248l18.832,0l69.971,-135.88l-18.647,-0l-27.139,54.832l-29.17,-54.832l-19.385,-0l39.509,71.632Z" style="fill:#fff;fill-rule:nonzero;"/></g></g><path d="M411.207,173.153l-0.095,0.665c-0.214,1.49 -1.63,2.527 -3.157,2.308l-2.66,-0.382l-0.835,5.827c-0.778,5.425 -5.922,9.192 -11.464,8.397c-2.616,-0.375 -4.985,-1.972 -6.51,-3.247c-2.426,-2.027 -16.961,-14.944 -16.961,-14.944c-0,0 -1.242,-6.71 -0.266,-13.517c0.988,-6.892 4.101,-13.226 4.101,-13.226c1.617,-0.745 17.717,-8.47 20.492,-9.679c1.819,-0.796 4.539,-1.664 7.161,-1.288c5.542,0.795 9.42,5.854 8.642,11.28l-0.837,5.827l2.661,0.381c1.526,0.219 2.594,1.612 2.38,3.103l-0.234,1.635c-0.707,0.078 -1.363,0.432 -1.818,0.994c-1.615,1.996 -2.661,4.39 -3.027,6.944c-0.001,0.002 -0.001,0.004 -0.001,0.005c-0.355,2.512 -0.045,5.063 0.899,7.401c0.282,0.699 0.839,1.244 1.529,1.516Zm1.707,-12.677c0.297,-0.515 0.636,-1.007 1.013,-1.473c0.26,0.424 0.538,0.827 0.825,1.2c2.339,3.057 5.327,4.615 6.803,3.543c0.4,-0.295 0.648,-0.753 0.735,-1.359c0.223,-1.556 -0.676,-3.921 -2.291,-6.028c-0.289,-0.385 -0.594,-0.737 -0.9,-1.073c1.884,-0.701 3.946,-0.916 5.979,-0.625c2.115,0.304 4.108,1.144 5.778,2.435c-0.41,0.238 -0.834,0.514 -1.291,0.845c-2.14,1.576 -3.666,3.597 -3.889,5.15c-0.087,0.603 0.021,1.108 0.321,1.499c1.103,1.446 4.41,0.795 7.526,-1.481c0.421,-0.308 0.802,-0.617 1.134,-0.922c0.729,1.862 0.964,3.881 0.681,5.853c-0.284,1.98 -1.078,3.853 -2.301,5.434c-0.247,-0.393 -0.482,-0.729 -0.728,-1.046c-2.34,-3.054 -5.327,-4.605 -6.798,-3.532c-0.401,0.292 -0.648,0.749 -0.735,1.357c-0.223,1.556 0.678,3.923 2.296,6.034c0.253,0.337 0.544,0.684 0.849,1.012c-1.954,0.765 -4.087,1.01 -6.183,0.709c-2.065,-0.296 -4.022,-1.111 -5.677,-2.362c0.437,-0.248 0.872,-0.534 1.295,-0.849c2.142,-1.571 3.671,-3.59 3.894,-5.141c0.087,-0.608 -0.023,-1.116 -0.326,-1.509c-1.107,-1.445 -4.409,-0.792 -7.517,1.484c-0.416,0.302 -0.809,0.625 -1.2,0.985c-0.176,-0.435 -0.324,-0.88 -0.445,-1.33c-0,-0 -0.008,-0.028 -0.008,-0.028l-0.013,-0.049c-0.023,-0.09 -0.045,-0.179 -0.066,-0.269l-0.013,-0.052l-0.021,-0.093c-0.006,-0.031 -0.013,-0.062 -0.02,-0.093l-0.019,-0.093l-0.019,-0.093l-0.018,-0.094l-0.017,-0.093l-0.009,-0.046l-0.008,-0.048l-0.016,-0.094l-0.015,-0.094l-0.008,-0.053l-0.006,-0.041l-0.004,-0.032l-0.009,-0.062l-0.013,-0.095l-0.007,-0.061l-0.005,-0.033l-0.004,-0.039l-0.007,-0.056l-0.002,-0.017l-0.008,-0.077l-0.007,-0.069l-0.003,-0.026l-0.004,-0.047l-0.004,-0.048l-0.002,-0.025l-0.006,-0.07l-0.006,-0.077l-0.001,-0.018l-0.004,-0.055l-0.003,-0.04l-0.002,-0.033l-0.004,-0.062l0,-0.007c-0.001,-0.027 -0.003,-0.055 -0.004,-0.082l-0.003,-0.069l-0.002,-0.033l-0.001,-0.041l-0.002,-0.054l-0,-0.009c-0.001,-0.028 -0.002,-0.056 -0.002,-0.084l-0.002,-0.073l-0,-0.025l-0.001,-0.049l-0,-0.046l-0,-0.027l-0,-0.072c-0,-0.028 -0,-0.056 0,-0.084l0.001,-0.065l0,-0.039l0.001,-0.035l0.002,-0.06l-0,-0.006c0,-0.029 0.001,-0.057 0.002,-0.086l0.003,-0.069l0.001,-0.031l0.002,-0.042l0.003,-0.053l0,-0.009c0.002,-0.029 0.003,-0.057 0.005,-0.086l0.004,-0.073l0.005,-0.074l0.004,-0.045l0.002,-0.029l0.005,-0.07c0.003,-0.028 0.005,-0.057 0.008,-0.086l0.006,-0.065l0.004,-0.037l0.003,-0.036l0.007,-0.06l0,-0.006c0.004,-0.028 0.007,-0.057 0.01,-0.086l0.008,-0.069l0.004,-0.03l0.006,-0.043l0.006,-0.052l0.003,-0.022l0.01,-0.073c0,-0 0.011,-0.074 0.011,-0.074l0.011,-0.073l0.008,-0.047l0.004,-0.026l0.012,-0.071c0.005,-0.029 0.01,-0.058 0.015,-0.087l0.011,-0.061l0.008,-0.043l0.005,-0.029l0.014,-0.069c0.005,-0.029 0.011,-0.058 0.017,-0.086l0.013,-0.062l0.008,-0.041l0.007,-0.032l0.015,-0.067c0.006,-0.028 0.012,-0.056 0.019,-0.085l0.015,-0.063l0.008,-0.037l0.009,-0.035l0.016,-0.065c0.007,-0.028 0.014,-0.056 0.021,-0.084l0.017,-0.065l0.009,-0.033l0.01,-0.038l0.015,-0.056l0.002,-0.007c0.008,-0.027 0.015,-0.055 0.023,-0.083l0.019,-0.066l0.009,-0.031l0.012,-0.039l0.016,-0.053l0.002,-0.008c0.008,-0.028 0.017,-0.055 0.025,-0.082l0.022,-0.068l0.008,-0.027l0.014,-0.043l0.016,-0.049l0.003,-0.01c0.009,-0.026 0.018,-0.053 0.027,-0.08l0.024,-0.069l0.008,-0.024l0.016,-0.045l0.017,-0.047l0.008,-0.022l0.025,-0.068l0.025,-0.07l0.008,-0.021l0.018,-0.047l0.017,-0.043l0.01,-0.025l0.025,-0.065l0.029,-0.072l0.007,-0.018l0.02,-0.049l0.017,-0.04l0.011,-0.028l0.026,-0.061l0.003,-0.006c0.01,-0.024 0.021,-0.048 0.031,-0.072l0.005,-0.011l0.022,-0.051l0.017,-0.037l0.013,-0.03l0.026,-0.058l0.041,-0.088l0.025,-0.054l0.016,-0.033l0.015,-0.033l0.027,-0.054l0.042,-0.087l0.028,-0.055l0.016,-0.031l0.017,-0.035l0.009,-0.016c0.028,-0.055 0.057,-0.11 0.086,-0.165l0.022,-0.04l0.046,-0.085c0.016,-0.028 0.032,-0.056 0.047,-0.085l0.048,-0.084l0.026,-0.044Zm-55.964,-19.756c0,0 -4.751,5.846 -6.05,14.907c-1.286,8.967 1.669,15.645 1.669,15.645c-0.058,0.408 -1.967,5.521 -5.706,5.321c-3.115,-0.145 -8.692,-3.721 -5.897,-22.391c2.794,-18.669 9.38,-21.053 12.293,-20.345c3.735,0.88 3.733,6.572 3.691,6.863Zm-105.945,-30.233c4.2,-2.325 9.808,-3.037 15.019,-1.906c4.829,1.047 9.346,4.984 12.974,8.147c0.474,0.413 0.935,0.816 1.381,1.199c0,-0 -5.989,11.022 -8.196,26.411c-2.215,15.447 0.415,27.85 0.415,27.85c-3.771,1.789 -10.971,4.663 -17.393,4.143c-5.101,-0.414 -9.288,-2.342 -12.797,-5.895c-0,-0 -3.967,-10.764 -1.132,-30.53c2.855,-19.911 9.729,-29.419 9.729,-29.419Zm32.436,8.065c0.064,-0.342 0.554,-0.945 1.237,-1.312c0.472,-0.253 1.201,-0.485 1.991,-0.15c1.998,0.805 2.187,2.711 2.091,3.378c0,0 -4.742,10.01 -6.928,25.254c-2.215,15.446 -0.546,26.864 -0.546,26.864c-0.095,0.667 -0.812,2.444 -2.952,2.652c-0.856,0.101 -1.49,-0.325 -1.872,-0.701c-0.551,-0.544 -0.854,-1.26 -0.819,-1.612c0.024,-0.181 -2.589,-12.698 -0.374,-28.144c2.727,-19.021 8.156,-26.127 8.172,-26.229Zm-43.131,-10.575c0.928,-1.532 2.865,-2.112 4.482,-1.342c0.243,0.107 0.471,0.214 0.665,0.33c1.271,0.76 2.31,2.649 2.32,2.668c-0,0 -6.627,7.75 -9.8,29.8c-3.156,21.924 1.049,31 1.049,31c-0.017,-0.033 -1.689,1.437 -3.011,1.738c-0.219,0.049 -0.474,0.085 -0.748,0.11c-1.742,0.253 -3.4,-0.832 -3.864,-2.53c-0.927,-4.551 -2.356,-15.206 -0.053,-31.268c2.342,-16.331 6.8,-26.382 8.96,-30.506Zm51.336,13.595c1.731,1.075 3.366,2.117 4.953,3.129c11.576,7.381 18.653,12.915 43.984,18.196c0,0 -1.676,5.044 -2.514,10.89c-0.822,5.727 -0.584,10.718 -0.584,10.718c-24.429,-1.937 -33.026,1.628 -45.374,5.411c-2.461,0.754 -5.002,1.533 -7.726,2.291c-0,0 -1.475,-12.771 0.43,-26.057c1.885,-13.142 6.831,-24.578 6.831,-24.578Zm74.773,49.904l-11.425,-1.106c0,0 -2.846,-3.209 -1.25,-14.335c1.619,-11.287 5.286,-13.807 5.286,-13.807l11.258,2.27c0,-0 -2.815,4.258 -4.114,13.319c-1.286,8.967 0.245,13.659 0.245,13.659Z" style="fill:#fff;"/></g></svg>