<?xml version="1.0" encoding="UTF-8" standalone="no"?><!DOCTYPE svg PUBLIC "-//W3C//DTD SVG 1.1//EN" "http://www.w3.org/Graphics/SVG/1.1/DTD/svg11.dtd"><svg width="100%" height="100%" viewBox="0 0 600 238" version="1.1" xmlns="http://www.w3.org/2000/svg" xmlns:xlink="http://www.w3.org/1999/xlink" xml:space="preserve" xmlns:serif="http://www.serif.com/" style="fill-rule:evenodd;clip-rule:evenodd;stroke-linejoin:round;stroke-miterlimit:2;"><g id="playlist_mario"><path d="M599.112,106.955l-24.096,-34.047c-0.555,-0.789 -1.431,-1.309 -2.393,-1.427c0,0 -36.492,-4.42 -46.744,-5.662c-1.648,-0.199 -3.281,0.468 -4.318,1.764c-3.185,3.981 -9.821,12.277 -9.821,12.277c-0,0 0.227,-1.311 0.513,-2.955c0.638,-3.665 -1.638,-7.208 -5.237,-8.152c-9.651,-2.531 -27.875,-7.311 -37.453,-9.824c-1.509,-0.396 -3.115,-0.079 -4.361,0.86c-1.246,0.938 -1.993,2.396 -2.028,3.955c-0.118,5.183 -0.264,11.602 -0.264,11.602c-0,0 -23.983,-12.75 -30.692,-16.317c-1.119,-0.595 -2.402,-0.809 -3.654,-0.611c-7.772,1.23 -36.966,5.851 -49.42,7.822c-1.487,0.235 -2.813,1.066 -3.673,2.302c-0.86,1.235 -1.18,2.767 -0.885,4.243c0.648,3.238 1.333,6.665 1.333,6.665c0,-0 -2.463,-5.873 -4.041,-9.638c-0.795,-1.896 -2.575,-3.195 -4.623,-3.373c-8.935,-0.78 -33.456,-2.921 -43.739,-3.819c-2.702,-0.236 -5.201,1.449 -5.996,4.042c-2.234,7.293 -6.433,20.994 -6.433,20.994c-0,0 -2.833,-10.115 -4.52,-16.141c-0.75,-2.681 -2.953,-4.707 -5.687,-5.233c-6.248,-1.202 -17.512,-3.368 -23.517,-4.523c-2.392,-0.46 -4.802,0.699 -5.936,2.854c-2.425,4.607 -6.297,11.964 -6.297,11.964c-0,0 -2.742,-5.873 -4.437,-9.506c-0.82,-1.757 -2.446,-3.001 -4.356,-3.333c-7.589,-1.317 -26.719,-4.639 -26.719,-4.639c-0.896,-0.121 -1.76,0.371 -2.108,1.2l-36.052,84.32c-0.403,0.926 -0.599,1.919 -0.599,2.924l0,9.947c0,0.923 0.548,1.759 1.4,2.119l41.589,17.755c0.747,0.32 1.603,-0.083 1.845,-0.857l11.335,-36.995l9.962,17.904c0.356,0.633 1.247,0.715 1.701,0.148l12.985,-15.94l2.22,37.1c0.051,0.806 0.794,1.376 1.58,1.212l35.544,-7.346l24.499,4.633c0.821,0.152 1.611,-0.395 1.744,-1.22l3.077,-18.236l12.805,-1.923l4.101,19.764c0.172,0.825 0.974,1.365 1.803,1.208l28.049,-5.306l0.414,3.558c0.094,0.841 0.845,1.451 1.689,1.377l33.664,-3.038c0.856,-0.078 1.517,-0.794 1.509,-1.658l-0.019,-9.755l9.7,14.807c0.481,0.735 1.423,1.012 2.225,0.649l24.686,-11.054l-0.152,8.817c-0.012,0.817 0.672,1.474 1.486,1.415l32.627,-2.236c0.895,-0.059 1.634,-0.723 1.787,-1.603l4.187,-23.608l5.595,16.132c0.313,0.904 1.036,1.611 1.947,1.912l39.177,12.778c0.927,0.305 1.943,0.246 2.831,-0.161l37.198,-16.968c0.876,-0.399 1.525,-1.177 1.759,-2.108l10.221,-40.435c0.246,-0.986 0.371,-1.994 0.371,-2.999l-0,-7.613c-0.008,-0.985 -0.317,-1.954 -0.888,-2.764Zm-30.062,-28.944l-40.612,-4.942c-0.75,-0.094 -1.497,0.215 -1.966,0.809l-17.915,22.646l-5.032,28.475l8.48,24.452c0.247,0.724 0.825,1.29 1.556,1.525l33.934,11.065c0.369,0.121 0.757,0.17 1.142,0.148l0.572,-0.084c0.187,-0.046 0.372,-0.109 0.55,-0.189l32.287,-14.725c0.696,-0.32 1.216,-0.942 1.408,-1.685l8.769,-34.727c0.184,-0.751 0.036,-1.552 -0.414,-2.178l-20.84,-29.449c-0.449,-0.633 -1.145,-1.047 -1.919,-1.141Zm-317.08,-8.977l-18.372,-2.444c-0.708,-0.094 -1.408,0.301 -1.689,0.958l-32.342,75.69c-0.27,0.614 0.019,1.33 0.633,1.6l29.566,12.617c0.15,0.064 0.305,0.093 0.456,0.089l0.434,-0.102c0.269,-0.125 0.488,-0.361 0.584,-0.672l13.931,-45.455l13.043,23.439c0.139,0.254 0.385,0.397 0.643,0.419l0.384,-0.057c0.123,-0.05 0.237,-0.131 0.33,-0.245l17.934,-22.02l2.819,47.137c0.039,0.641 0.634,1.099 1.263,0.97l32.033,-6.619c0.661,-0.137 1.079,-0.782 0.95,-1.439l-15.741,-77.904c-0.14,-0.711 -0.727,-1.263 -1.442,-1.356l-19.843,-2.679c-0.723,-0.097 -1.431,0.27 -1.771,0.915l-13.156,25.461l-9.056,-26.99c-0.234,-0.703 -0.856,-1.219 -1.591,-1.313Zm220.8,0.344l-0.45,-0.006c-0.427,0.093 -0.764,0.464 -0.782,0.936l-2.639,69.333l3.816,3.171c0.728,0.606 1.099,1.549 0.97,2.479l-0.5,3.57c-0.129,0.934 -0.736,1.744 -1.6,2.127l-3.182,1.423l-0.192,5.032c-0.019,0.653 0.524,1.177 1.173,1.138l20.167,-1.384c0.716,-0.051 1.306,-0.579 1.431,-1.279l13.771,-77.637c0.117,-0.673 -0.305,-1.326 -0.974,-1.486l-31.009,-7.417Zm-81.465,82.415l-26.435,-75.929c-0.246,-0.696 -0.875,-1.2 -1.614,-1.274l-36.186,-3.715c-0.696,-0.066 -1.349,0.372 -1.548,1.048l-11.937,41.198l8.864,43.935l7.714,1.462c0.661,0.125 1.29,-0.313 1.4,-0.973l2.787,-16.523l24.226,-3.64l4.109,19.811c0.137,0.664 0.782,1.094 1.443,0.965l26.379,-4.985c0.63,-0.117 1.005,-0.77 0.798,-1.38Zm38.613,-84.867l-0.579,-0.057c-0.195,-0.002 -0.389,0.013 -0.582,0.046l-43.579,7.057c-0.672,0.109 -1.142,0.727 -1.059,1.403l6.056,52.173l10.541,30.262l15.307,-1.38c0.68,-0.062 1.188,-0.645 1.165,-1.325l-0.954,-27.005l1.016,-0.208l19.522,29.797c0.288,0.44 0.786,0.673 1.285,0.642l0.49,-0.122l26.102,-11.686c0.516,-0.231 0.606,-0.919 0.176,-1.279l-23.928,-19.85l15.19,-8.868c0.672,-0.387 1.141,-1.051 1.282,-1.81l5.298,-27.56c0.141,-0.716 -0.192,-1.443 -0.821,-1.814l-30.837,-18.009c-0.338,-0.199 -0.709,-0.336 -1.091,-0.407Zm114.21,66.084l-13.625,-14.419l9.802,-16.836l18.169,4.876l2.252,18.134l-16.598,8.245Zm-206.099,-13.817l3.941,-23.389l8.098,0.642l4.86,23.349l-16.899,-0.602Zm93.645,-8.05l-15.929,3.71l-0.919,-25.66l18.885,5.102l-2.037,16.848Z" style="fill:#fff;"/><g><path d="M54.741,184.241c-8.902,1.588 -6.922,12.647 -6.08,19.149c1.435,11.086 -5.193,26.947 9.059,32.57c10.997,4.337 21.564,-3.673 21.701,-15.123c0.02,-1.673 0.467,-4.29 -0.314,-5.822c-0.693,-1.359 -2.692,-0.936 -3.94,-1.025c-2.932,-0.206 -5.913,-1.062 -8.51,-2.423c-9.034,-4.735 -14.268,-17.445 -11.916,-27.326Z" style="fill:#fff;"/><path d="M46.656,188.496c-4.045,2.213 -7.456,14.371 -2.128,16.596c-1.536,6.699 -2.54,13.555 -1.236,20.426c0.713,3.755 2.59,7.431 6.768,7.66c-5.004,-9.551 -3.118,-17.881 -2.878,-28.086c0.07,-2.963 -0.952,-5.92 -0.952,-8.936c0,-2.5 0.804,-5.222 0.426,-7.66Z" style="fill:#fff;"/><path d="M102.402,177.432c-6.849,1.631 -15.332,-0.011 -21.703,-2.735c-2.206,-0.944 -7.613,-5.808 -9.749,-5.205c-2.43,0.686 -4.876,5.595 -6.374,7.514c-2.348,3.009 -6.104,3.153 -6.996,7.235c-2.144,9.805 2.602,21.736 12.481,25.105c2.904,0.99 6.003,1.774 8.935,0.44c4.095,-1.862 2.584,-5.334 4.267,-8.451c1.847,-3.422 5.825,-6.108 8.379,-9.009c3.729,-4.235 9.125,-9.375 10.76,-14.894Z" style="fill:#fff;"/><path d="M153.042,199.135c-5.221,-1.97 -11.468,-2.741 -17.022,-2.979c3.561,-1.713 8.995,-1.077 12.766,-0.245c2.12,0.468 4.681,1.849 6.809,0.994c5.471,-2.199 12.181,-7.541 15.093,-12.664c2.443,-4.301 1.045,-8.779 -3.603,-10.668c-14.778,-6.007 -25.152,9.05 -31.954,19.604c-2.305,3.576 -5.968,7.009 -6.305,11.49c-0.37,4.925 4.483,5.899 8.471,5.41c6.519,-0.799 12.742,-5.061 15.745,-10.942Z" style="fill:#fff;"/><path d="M127.084,207.22c0.003,-5.635 2.848,-8.675 5.77,-13.192c1.812,-2.8 3.372,-5.745 5.246,-8.511c6.812,-10.056 24.06,-23.219 34.517,-9.787c3.372,-8.645 -10.662,-11.233 -16.171,-10.516c-14.221,1.853 -19.362,15.91 -26.958,25.835c-3.272,4.275 -7.991,11.783 -2.404,16.171Z" style="fill:#fff;"/><path d="M121.977,202.539c0.807,-6.25 4.417,-9.353 7.511,-14.468c7.092,-11.724 15.89,-26.973 32.065,-24.986c4.461,0.549 7.148,2.817 11.064,4.56c-0.34,-16.36 -19.968,-23.679 -32.767,-15.717c-10.411,6.475 -12.918,17.687 -17.58,28.057c-3.389,7.54 -11.951,17.522 -0.293,22.554Z" style="fill:#fff;"/><path d="M107.934,116.579c1.15,4.968 3.172,9.933 0.69,14.894c-3.535,7.07 -13.56,9.106 -18.898,2.973c-2.957,-3.398 -3.069,-7.658 -3.069,-11.909l-11.49,8.563l-3.83,-1.754c-1.906,7.351 -4.71,14.829 -3.706,22.553c2.225,17.126 18.689,24.61 34.346,21.703l-1.277,-7.234c3.768,-0.357 3.861,3.068 5.182,5.958c1.03,2.252 2.984,4.443 3.631,6.808c1.178,4.314 -0.315,7.208 3.528,10.639l0.425,-0c10.945,-11.992 9.684,-30.461 23.831,-40.427l-0,-0.851l-6.809,0c2.909,-4.846 -1.967,-8.807 -6.383,-10.69c-9.953,-4.243 -16.969,2.762 -25.533,6.009l-1.276,-1.702l-0,-0.426c8.649,-5.697 18.903,-11.452 29.362,-6.222c5.223,2.611 6.757,8.775 12.766,8.776l0.426,-8.086c-6.155,-0.832 -9.416,-4.866 -10.862,-10.638c-0.556,-2.222 -0.802,-6.546 -2.629,-8.112c-1.306,-1.119 -3.646,-0.824 -5.233,-0.825l-13.192,0Z" style="fill:#fff;"/><path d="M141.127,131.473c-6.682,-1.401 -12.452,-11.921 -5.958,-17.021c-0.725,-1.98 -1.866,-3.8 -3.066,-5.532c-1.082,-1.562 -7.677,-7.974 -7.091,-1.703c0.203,2.178 2.015,4.742 2.787,6.809c1.805,4.835 2.866,10.358 5.316,14.894c1.396,2.582 5.839,6.271 8.012,2.553Z" style="fill:#fff;"/><path d="M89.21,103.813c0.062,2.964 0.839,5.973 0.692,8.936c-0.24,4.838 -1.402,10.074 -0.493,14.894c1.347,7.137 10.53,10.753 15.747,4.979c5.851,-6.476 -0.287,-22.064 -6.623,-26.425c-2.257,-1.553 -6.634,-1.509 -9.323,-2.384Zm11.064,12.191c4.755,1.437 6.254,6.28 5.283,10.394c-0.971,4.114 -4.412,7.498 -9.538,6.016c-9.44,-2.729 -6.167,-19.559 4.255,-16.41Z" style="fill:#fff;"/><path d="M137.722,116.34c-2.542,-0.654 -3.708,1.414 -3.81,3.644c-0.149,3.258 1.307,9.059 5.102,9.826c2.463,0.498 3.587,-2.293 3.724,-4.294c0.22,-3.225 -1.554,-8.285 -5.016,-9.176Z" style="fill:#fff;"/><path d="M98.998,117.604c-3.816,-0.759 -6.293,2.138 -6.896,5.436c-0.604,3.297 0.666,6.995 4.343,7.84c8.669,1.992 10.554,-11.685 2.553,-13.276Zm-3.83,3.656c-0.661,3.042 0.514,5.414 2.979,7.235l-0,0.425c-3.614,-0.558 -5.619,-4.842 -2.979,-7.66Z" style="fill:#fff;"/><path d="M136.446,118.282l3.404,9.787c-3.212,-1.535 -4.785,-6.496 -3.404,-9.787Z" style="fill:#fff;"/><path d="M48.358,93.6c3.151,7.567 4.256,13.505 4.256,21.703c5.575,-0.44 22.945,-1.839 21.702,7.234l-2.127,-0.851c0.001,3.013 0.622,4.065 2.978,5.957c3.171,-1.983 10.522,-6.787 11.961,-10.252c1.048,-2.524 0.512,-6.68 0.134,-9.323c-0.291,-2.031 -0.273,-4.615 -1.979,-6.041c-2.854,-2.385 -8.96,0.743 -12.669,0.118c-3.543,-0.597 -6.889,-1.967 -9.787,-4.124c-1.62,-1.204 -2.93,-3.381 -4.803,-4.164c-2.579,-1.079 -6.887,-0.257 -9.666,-0.257Z" style="fill:#fff;"/><path d="M103.253,107.643l3.664,5.929l4.847,0.029l13.617,-0c-0.514,-1.513 -1.183,-4.256 -2.719,-5.051c-1.62,-0.838 -5.221,1.053 -7.068,1.182c-4.331,0.304 -8.32,-0.54 -12.341,-2.089Z" style="fill:#fff;"/><path d="M146.659,65.94c-1.347,7.362 -0.964,15.422 -5.135,22.128c-1.98,3.184 -4.817,5.935 -7.632,8.388c-1.393,1.214 -3.615,2.484 -4.154,4.385c-0.617,2.177 2.894,5.214 4.154,6.802l0.426,-0l14.405,-22.979l7.723,-15.746l-9.787,-2.978Z" style="fill:#fff;"/><path d="M107.083,88.068c0.002,2.978 0.127,6.42 1.979,8.918c1.917,2.586 6.556,3.754 8.77,0.774c3.894,-5.243 -7.199,-9.329 -10.749,-9.692Z" style="fill:#fff;"/><path d="M1.123,109.345l4.681,-4.681c-3.449,4.198 -6.618,14.059 -0.426,17.447l3.405,-5.532c-0.61,2.666 -1.593,5.316 -1.078,8.086c1.422,7.649 8.967,9.632 15.546,7.234l-1.276,-4.681l-4.256,0.425l0,-0.425c2.18,-1.435 6.693,-5.235 9.627,-3.703c1.859,0.97 -1.813,2.273 -2.129,2.985c-0.727,1.639 0.635,3.595 1.909,4.491c3.966,2.789 9.24,0.721 12.217,-2.514c5.055,-5.493 4.475,-12.743 4.334,-19.557l0.426,-0l1.702,10.213c4.215,-1.212 4.399,-6.981 4.239,-10.639c-0.378,-8.606 -4.29,-18.292 -14.027,-18.298l2.128,4.681c-7.867,-6.239 -18.979,-9.154 -28.511,-4.888c-5.227,2.339 -12.434,13.615 -8.511,19.356Zm28.086,-4.681c-0.212,1.014 -0.429,2.016 -0.822,2.98c-2.495,6.114 -8.35,1.215 -2.582,-1.951c1.076,-0.591 2.206,-0.849 3.404,-1.029Zm-2.554,-5.532l0,0.851c-1.328,0.799 -7.814,4.544 -7.814,0.421c-0,-3.371 6.082,-1.82 7.814,-1.272Zm-0.851,-4.681c-0.804,-0.001 -2.651,0.086 -4.297,-0.144c-1.646,-0.229 -3.092,-0.774 -3.092,-2.039c0,-4.364 6.609,1.098 7.389,2.183Z" style="fill:#fff;"/><path d="M107.509,85.089c0.976,1.878 4.449,3.645 7.963,4.378c3.514,0.733 7.069,0.433 8.207,-1.825l-16.17,-2.553Z" style="fill:#fff;"/><path d="M113.041,82.961l-0,0.851l2.127,0.426l-0.851,-1.702l-1.276,0.425Z" style="fill:#fff;"/><path d="M56.018,62.11l-2.128,-4.256c-12.336,4.772 -9.362,21.482 1.702,25.533c0.357,-7.78 7.784,-12.048 14.894,-10.213c2.023,-16.007 7.124,-28.459 16.171,-41.703c-12.78,-9.82 -0.576,-31.327 14.469,-25.208c3.742,1.522 5.909,4.536 8.085,7.76l3.404,-1.276c-6.365,-16.55 -29.224,-14.917 -40.001,-4.664c-14.908,14.184 -16.996,34.656 -16.596,54.027Z" style="fill:#fff;"/><path d="M112.19,42.96l-0.851,-7.234c-4.599,0.594 -9.173,1.918 -13.192,4.256l4.681,5.532c-2.992,-0.974 -8.328,-3.503 -11.399,-1.691c-3.777,2.229 -4.513,9.85 -7.825,13.102c-2.191,2.151 -10.118,3.052 -8.933,6.887c1.601,5.185 7.103,3.509 10.671,5.35c3.343,1.725 2.031,4.217 2.745,6.991c0.555,2.156 2.433,3.482 1.788,5.957c-0.783,3.009 -3.881,4.361 -6.622,3.178c-4.164,-1.798 -6.24,-6.327 -10.213,-8.521c-6.983,-3.857 -15.094,0.977 -13.916,9.173c1.21,8.412 9.422,13.287 17.32,13.19c2.144,-0.026 5.084,-1.943 6.989,-1.417c2.721,0.752 5.156,2.914 7.905,3.82c3.014,0.992 6.449,0.701 9.362,1.886c3.847,1.564 7.191,3.599 11.49,3.782c8.282,0.352 11.115,-4.447 16.261,-9.643c7.158,-7.229 13.091,-11.782 13.952,-22.682l-0.851,0c-0.084,3.478 -1.811,6.03 -5.532,5.532c-2.584,4.832 -5.452,4.53 -9.787,2.128l-2.979,2.979l-0,0.425l5.957,0c-4.415,3.821 -5.929,9.76 -10.64,13.391c-5.435,4.19 -11.208,0.234 -12.663,-5.731c-0.673,-2.762 0.072,-5.77 -0.662,-8.438c-0.489,-1.775 -2.231,-2.95 -2.844,-4.754c-7.992,-0.022 -9.015,-5.388 -7.234,-11.915c6.329,4.175 13.424,5.106 20.852,5.106l-0.426,-1.702c3.093,-1.255 5.027,1.448 8.085,2.122c5.106,1.123 11.439,0.302 15.744,-2.818c8.931,-6.473 4.269,-22.786 -7.233,-21.934c-4.111,0.304 -7.768,2.247 -10.62,5.189c-1.921,1.982 -2.87,5.626 -5.976,5.526c1.243,-4.865 -3.132,-8.833 -2.474,-14.043c1.186,-9.405 9.629,-2.593 11.836,2.128l1.702,-0.426c-1.362,-4.306 -8.291,-17.523 -12.841,-8.936c-0.711,1.342 -1.158,2.817 -1.627,4.255Zm-34.895,48.938c-2.68,-4.233 -3.752,-5.627 -8.936,-4.256l3.83,-2.978l-0,-0.426c-3.183,-1.226 -5.235,-1.292 -8.511,-0.426c4.217,-7.685 15.6,1.181 13.617,8.086Zm19.15,-45.272c6.734,0.36 11.098,8.165 11.45,14.207c0.264,4.549 -2.671,9.043 -7.621,8.88c-6.804,-0.225 -11.14,-9.309 -11.056,-15.263c0.058,-4.086 2.769,-8.063 7.227,-7.824Z" style="fill:#fff;"/><path d="M91.338,51.897c8.736,-4.392 16.208,11.43 8.085,15.745c3.503,1.253 6.401,-2.319 6.724,-5.532c0.433,-4.312 -2.049,-9.772 -5.485,-12.318c-3.328,-2.465 -7.851,-2.189 -9.324,2.105Z" style="fill:#fff;"/><path d="M90.913,55.301c6.838,-2.673 12.044,6.793 5.532,10.639c2.755,2.363 5.56,-0.343 5.872,-3.405c0.339,-3.323 -1.311,-7.398 -3.819,-9.562c-3.169,-2.735 -6.813,-1.933 -7.585,2.328Z" style="fill:#fff;"/><path d="M139.424,22.96l4.256,0.425c1.835,-5.378 6.174,-8.888 11.915,-8.936l0,0.426c-3.163,0.57 -10.19,4.738 -9.026,8.847c0.462,1.63 3.432,3.037 4.771,3.919c2.331,-4.768 6.935,-9.648 12.766,-8.511c-4.089,1.824 -8.052,3.721 -9.988,8.085c-1.927,4.346 -0.865,12.945 4.456,13.192c-0,-7.739 3.71,-14.943 12.341,-15.319l-0,0.425c-5.222,1.781 -9.024,5.51 -10.016,11.064c-0.717,4.013 2.506,8.889 7.037,7.17c2.677,-1.016 3.866,-3.741 5.957,-5.468c-0.536,1.572 -0.807,3.249 -1.699,4.681c-4.828,7.749 -13.445,-0.03 -19.578,-1.517c-1.637,-0.397 -3.07,0.802 -4.681,0.923c-3.193,0.239 -6.376,-2.194 -7.659,-4.938c1.922,1.368 4.336,2.809 6.808,2.452c4.71,-0.68 4.981,-6.041 2.703,-9.259c-2.493,-3.522 -6.702,-4.671 -10.788,-4.682c-0.264,3.232 -1.596,6.539 -3.166,9.362c-0.987,1.774 -2.96,3.814 -2.832,5.957c0.339,5.691 8.149,6.141 11.135,10.214c2.471,3.37 1.721,8.294 3.811,11.213c1.013,1.415 3.921,1.945 5.52,2.282c5.152,1.084 12.446,1.495 12.767,-5.41l-8.086,-1.277c5.3,-1.262 9.79,-1.621 14.042,-5.572c15.224,-14.145 5.059,-37.919 -13.616,-42.657c-6.139,-1.557 -17.17,-0.266 -19.597,6.951c-0.597,1.775 0.219,4.15 0.447,5.958Z" style="fill:#fff;"/><path d="M93.466,57.003c0.03,0.944 0.129,1.683 0.436,2.295c0.308,0.612 0.824,1.098 1.692,1.535c0.599,-2.111 0.151,-3.466 -2.128,-3.83Z" style="fill:#fff;"/><path d="M76.019,57.429c6.88,-1.031 9.882,-7.134 11.915,-13.192l-3.405,2.979l-0.425,-0c-1.065,-3.362 -0.808,-6.785 2.167,-9.179c2.347,-1.889 5.315,-0.236 7.44,-1.723c2.017,-1.411 3.375,-3.799 5.172,-5.476c6.665,-6.22 15.585,-14.267 25.222,-14.687l-0,0.426c-9.957,3.835 -23.932,11.427 -28.511,21.702c3.076,-0.841 5.862,-2.474 8.936,-3.338c1.973,-0.555 4.938,-0.633 6.643,-1.774c2.001,-1.34 2.107,-4.303 4.847,-4.898c2.453,-0.532 8.702,4.103 5.957,6.181l4.256,7.234c8.675,-4.048 15.222,-24.213 3.829,-28.733c-5.924,-2.351 -14.256,0.868 -19.574,3.521c-14.464,7.214 -32.956,23.619 -34.469,40.957Z" style="fill:#fff;"/><path d="M116.02,49.769c-0.221,1.73 0.149,2.587 1.702,3.404l0.425,-0.425l-2.127,-2.979Z" style="fill:#fff;"/><path d="M113.892,48.492l0.425,0c2.64,-2.49 5.098,1.858 5.532,4.256c4.672,-3.036 -5.696,-12.284 -5.957,-4.256Z" style="fill:#fff;"/><path d="M114.743,44.237c1.949,0.201 3.302,1.025 4.396,2.184c1.093,1.16 1.927,2.655 2.838,4.199c4.3,-2.949 -3.177,-11.254 -7.234,-6.383Z" style="fill:#fff;"/><path d="M128.786,46.79l2.553,-0.425l-0.851,-2.979c-1.606,0.812 -1.992,1.633 -1.702,3.404Z" style="fill:#fff;"/><path d="M90.061,27.641l-2.978,-0.426l1.702,-16.596l6.809,2.979l0.851,-5.532l9.362,8.085l0.425,0l1.277,-0.851c-2.496,-13.785 -22.021,-8.322 -24.058,2.979c-0.651,3.604 1.85,15.877 6.61,9.362Z" style="fill:#fff;"/><path d="M96.87,9.768l-0.851,5.107l-6.383,-2.979l-2.128,14.468c6.394,1.636 4.256,-6.65 4.256,-11.064l5.532,2.553l0.425,-5.106c2.318,2.006 3.91,5.918 7.234,3.83l-8.085,-6.809Z" style="fill:#fff;"/><path d="M98.572,14.449l-0.851,4.255l-5.532,-2.127l0.426,8.936l9.362,-6.809l-3.405,-4.255Z" style="fill:#fff;"/></g></g></svg>