<svg clip-rule="evenodd" fill-rule="evenodd" stroke-linejoin="round" stroke-miterlimit="2" viewBox="0 0 600 288" xmlns="http://www.w3.org/2000/svg"><g fill="#fff"><g fill-rule="nonzero"><path d="m58.421 110.799h14.606v23.516h21.908v-23.516h14.605v54.87h-14.605v-23.516h-21.908v23.516h-14.606z"/><path d="m299.41 101.949h14.605v23.516h-7.302v-7.839h-7.303zm0 23.516h7.303v7.838h-7.303z"/><path d="m490.46 110.799h14.605v47.032h21.908v-47.032h14.606v47.032h-7.303v7.838h-36.514v-7.838h-7.302z"/><path d="m150.369 258.434v-6.289h-24.525v-10.817h-7.172v-6.541h-7.043v6.541h-7.168v10.817h-24.527v6.289h-5.283v29.179h81v-29.179z"/><path d="m61.509 41.949v6.42h6.42v-6.42zm6.42 6.42v6.421h-6.42v6.42h-6.421v6.421h-6.42v19.261h6.42v-12.841h6.421v12.841h6.42v-6.42h32.103v6.42h6.421v-12.841h6.42v12.841h6.421v-19.261h-6.421v-6.421h-6.42v-6.42h-6.421v-6.421h-6.42v6.421h-19.262v-6.421zm32.103 0h6.421v-6.42h-6.421zm0 38.523h-12.841v6.421h12.841zm-32.103 0v6.421h12.842v-6.421zm0-25.682h6.421v6.421h-6.421zm25.683 0h6.42v6.421h-6.42z"/><path d="m444.841 171.674v6.42h6.421v-6.42zm6.421 6.42v6.421h-6.421v6.42h-6.42v6.421h-6.421v19.262h6.421v-12.842h6.42v12.842h6.421v-6.421h32.102v6.421h6.421v-12.842h6.42v12.842h6.421v-19.262h-6.421v-6.421h-6.42v-6.42h-6.421v-6.421h-6.42v6.421h-19.262v-6.421zm32.102 0h6.421v-6.42h-6.421zm0 38.524h-12.841v6.42h12.841zm-32.102 0v6.42h12.841v-6.42zm0-25.683h6.42v6.421h-6.42zm25.682 0h6.42v6.421h-6.42z"/><path d="m325.092.266v6.421h-19.262v6.42h-6.42v19.262h19.261v6.421h-6.42v6.42h12.841v-6.42h6.421v-6.421h12.841v6.421h6.42v6.42h12.841v-6.42h-6.42v-6.421h19.261v-19.262h-6.42v-6.42h-19.262v-6.421h-25.682zm38.523 44.944v6.421h12.841v-6.421zm-19.261-6.42h-12.841v6.42h12.841zm-32.103 6.42h-12.841v6.421h12.841zm6.42-25.682h12.842v6.421h-12.842zm25.683 0h12.841v6.421h-12.841z"/><path d="m135.1 165.669h-10.954v-7.838h-7.303v-39.194h7.303v-7.838h36.513v7.838h7.303v39.194h-7.303v-15.678h-7.303v-23.516h-21.908v39.194h3.652zm7.302-7.838h10.954v7.838h-10.954z"/></g><path d="m111.5 189.11h7.303v15.677h-7.303z"/><path d="m29 165.669h-21.697v-7.838h-7.303v-7.839h14.605v7.839h14.395zm7.513-31.354h7.303v7.838h7.303v15.678h-7.303v7.838h-7.303zm-7.513 7.838h-21.697v-7.838h-7.303v-15.678h7.303v-7.838h29.21v7.838h7.303v7.839h-14.605v-7.839h-14.606v15.678h14.395z" fill-rule="nonzero"/><path d="m255.594 157.831v-39.194h-14.606v-7.838h43.816v7.838h-14.605v47.032h-7.303v-7.838z" fill-rule="nonzero"/><path d="m333.958 165.669h-7.303v-54.87h51.119v7.838h-36.514v15.678h29.211v7.838h-29.211v7.839h-7.302zm7.302 0v-7.838h36.514v7.838z" fill-rule="nonzero"/><path d="m392.379 142.153v23.516h-7.303v-54.87h14.606v7.838h7.302v7.839h7.303v-7.839h7.303v-7.838h14.605v54.87h-14.605v-23.516h-7.303v7.839h-7.303v-7.839z" fill-rule="nonzero"/><path d="m548.881 157.831v-47.032h43.816v7.838h7.303v23.516h-7.303v7.839h-14.605v-7.839h7.303v-23.516h-21.908v23.516h7.302v7.839h-7.302v15.677h-7.303v-7.838z" fill-rule="nonzero"/><path d="m204.424 165.669h-21.857v-7.838h-7.303v-39.194h7.303v-7.838h36.513v7.838h7.303v39.194h-7.303v7.838h-7.354l.052-47.032h-21.908v39.194h14.554z" fill-rule="nonzero"/></g></svg>