<?xml version="1.0" encoding="UTF-8" standalone="no"?><!DOCTYPE svg PUBLIC "-//W3C//DTD SVG 1.1//EN" "http://www.w3.org/Graphics/SVG/1.1/DTD/svg11.dtd"><svg width="100%" height="100%" viewBox="0 0 600 325" version="1.1" xmlns="http://www.w3.org/2000/svg" xmlns:xlink="http://www.w3.org/1999/xlink" xml:space="preserve" xmlns:serif="http://www.serif.com/" style="fill-rule:evenodd;clip-rule:evenodd;stroke-linejoin:round;stroke-miterlimit:2;"><g id="playlist_lightgun"><path d="M36.477,19.853c-0,0 -2.248,-0.434 -4.321,-0.835c-1.89,-0.366 -3.719,0.871 -4.085,2.761c-0.545,2.819 -1.35,6.983 -2.117,10.952c-0.581,3.006 0.055,6.119 1.77,8.656c1.012,1.497 2.35,2.72 3.895,3.591l-21.607,111.753c-0.565,2.922 0.525,5.918 2.836,7.794c1.575,1.277 3.046,2.472 3.046,2.472c0,-0 -12.749,65.941 -15.791,81.673c-0.397,2.056 0.37,4.164 1.996,5.484c5.346,4.338 16.944,13.75 16.944,13.75l-1.59,8.219c0,-0 8.361,1.616 13.867,2.681c2.606,0.503 5.126,-1.2 5.63,-3.806c0,-0 0,-0 0,-0c0,-0 4.944,0.956 8.155,1.576c1.527,0.295 3.107,-0.099 4.317,-1.076c2.317,-1.869 7.128,-4.404 14.48,-1.962c27.778,9.226 38.236,48.2 63.125,50.763c11.878,1.223 29.456,-54.736 20.13,-64.228c-7.109,-7.235 -24.225,-11.622 -45.643,-23.184l8.281,-42.834c0.381,-1.967 -0.132,-4.001 -1.4,-5.552c-2.623,-3.21 -7.256,-8.881 -10.374,-12.697c-0.825,-1.01 -1.188,-2.32 -0.998,-3.61c0.189,-1.29 0.912,-2.441 1.992,-3.171c4.371,-2.954 10.575,-7.148 10.575,-7.148c0,-0 19.721,-101.996 24.526,-126.848c0.578,-2.989 -1.377,-5.88 -4.365,-6.458c-9.895,-1.913 -29.899,-5.781 -29.899,-5.781l-0.958,4.956l-13.629,-2.635l2.755,-14.248l-11.77,-2.276l0.598,-3.097l-24.709,-4.778l-0.599,3.098l-11.53,-2.229l-3.533,18.274Zm6.894,206.978c0,-0 -16.794,56.454 1.215,45.281c32.85,-20.38 55.952,41.282 78.852,42.496c1.909,0.101 3.267,-1.939 2.817,-4.596c-30.526,-13.293 -47.96,-59.399 -78.061,-44.976c-15.367,7.364 -4.823,-38.205 -4.823,-38.205Zm19.188,-17.808l3.918,-20.264c0.99,-5.12 4.573,-9.356 9.458,-11.181c0,-0 0,-0 0.001,-0c6.479,-2.421 13.78,-0.447 18.157,4.909c2.367,2.898 4.794,5.868 6.401,7.835c1.184,1.449 1.663,3.35 1.308,5.187l-7.24,37.446c-10.086,-5.978 -20.93,-13.644 -32.003,-23.932Zm3.262,-6.486l-1.118,5.783c2.006,1.842 4.004,3.598 5.99,5.274c15.558,-0.803 32.499,-9.204 18.644,-6.795c-10.992,1.911 -19.87,-2.177 -23.516,-4.262Zm-22.215,-26.429c-0.921,-0.178 -1.733,-0.715 -2.258,-1.492c-0.526,-0.777 -0.721,-1.731 -0.543,-2.652c3.913,-20.237 23.733,-122.747 27.556,-142.519c0.352,-1.825 2.117,-3.018 3.942,-2.665c0.015,0.003 0.03,0.006 0.045,0.009c1.914,0.37 3.166,2.222 2.796,4.136c-3.908,20.21 -23.708,122.619 -27.55,142.487c-0.171,0.887 -0.687,1.668 -1.435,2.174c-0.748,0.505 -1.666,0.693 -2.552,0.522c-0.001,-0 -0.001,-0 -0.001,-0Zm45.12,-43.009c-1.838,-0.355 -3.042,-2.136 -2.686,-3.974c0.355,-1.837 2.135,-3.041 3.973,-2.686l17.138,3.314c1.837,0.355 3.041,2.136 2.686,3.973c-0.356,1.838 -2.136,3.042 -3.974,2.686l-17.137,-3.313Zm2.575,-13.319c-1.838,-0.355 -3.042,-2.136 -2.686,-3.973c0.355,-1.838 2.136,-3.042 3.973,-2.686l17.138,3.313c1.838,0.355 3.041,2.136 2.686,3.974c-0.355,1.837 -2.136,3.041 -3.974,2.686l-17.137,-3.314Zm2.575,-13.319c-1.838,-0.355 -3.041,-2.136 -2.686,-3.973c0.355,-1.838 2.136,-3.041 3.973,-2.686l17.138,3.313c1.838,0.356 3.041,2.136 2.686,3.974c-0.355,1.838 -2.136,3.041 -3.974,2.686l-17.137,-3.314Zm2.575,-13.319c-1.838,-0.355 -3.041,-2.135 -2.686,-3.973c0.355,-1.838 2.136,-3.041 3.974,-2.686l17.137,3.313c1.838,0.356 3.041,2.136 2.686,3.974c-0.355,1.838 -2.136,3.041 -3.973,2.686l-17.138,-3.314Zm2.575,-13.318c-1.838,-0.356 -3.041,-2.136 -2.686,-3.974c0.355,-1.838 2.136,-3.041 3.974,-2.686l17.137,3.314c1.838,0.355 3.042,2.135 2.686,3.973c-0.355,1.838 -2.136,3.041 -3.973,2.686l-17.138,-3.313Zm2.575,-13.319c-1.837,-0.356 -3.041,-2.136 -2.686,-3.974c0.356,-1.837 2.136,-3.041 3.974,-2.686l17.137,3.314c1.838,0.355 3.042,2.136 2.686,3.973c-0.355,1.838 -2.135,3.042 -3.973,2.686l-17.138,-3.313Zm2.575,-13.319c-1.837,-0.355 -3.041,-2.136 -2.686,-3.974c0.356,-1.837 2.136,-3.041 3.974,-2.686l17.138,3.314c1.837,0.355 3.041,2.136 2.686,3.973c-0.356,1.838 -2.136,3.042 -3.974,2.686l-17.138,-3.313Z" style="fill:#fff;"/><path d="M138.887,217.092l-17.822,-0l26.888,-147.73l17.719,0l-26.785,147.73Z" style="fill:#fff;fill-rule:nonzero;"/><path d="M208.569,203.802c-0.755,3.778 -2.678,6.937 -5.769,9.478c-3.09,2.541 -6.593,3.812 -10.508,3.812l-24.621,-0c-3.64,-0 -6.731,-1.305 -9.272,-3.915c-2.541,-2.61 -3.812,-5.735 -3.812,-9.375l0,-2.575l21.222,-118.472c0.756,-3.846 2.644,-7.04 5.666,-9.581c3.091,-2.541 6.559,-3.812 10.405,-3.812l25.034,0c3.571,0 6.627,1.305 9.168,3.915c2.61,2.61 3.915,5.769 3.915,9.478c0,1.03 -0.069,1.82 -0.206,2.369l-6.593,36.881l-17.101,0l5.563,-31.112l-0,-0.618c-0,-1.236 -0.412,-2.266 -1.236,-3.09c-0.825,-0.756 -1.855,-1.133 -3.091,-1.133l-9.581,-0c-1.442,-0 -2.781,0.48 -4.018,1.442c-1.167,0.893 -1.888,2.026 -2.163,3.399l-18.852,104.771l-0,0.515c-0,1.167 0.412,2.197 1.236,3.09c0.824,0.893 1.854,1.34 3.09,1.34l9.478,-0c3.365,-0 5.46,-1.717 6.284,-5.151l8.448,-45.226l-9.787,0l2.988,-16.483l26.888,0l-12.775,70.053Z" style="fill:#fff;fill-rule:nonzero;"/><path d="M254.351,149.202l-12.259,67.89l-17.823,-0l26.888,-147.73l17.72,0l-11.539,63.357l19.059,0l11.538,-63.357l17.719,0l-26.785,147.73l-17.822,-0l12.362,-67.89l-19.058,0Z" style="fill:#fff;fill-rule:nonzero;"/><path d="M357.823,86.052l-12.259,-0l-23.695,131.04l-18.028,-0l23.901,-131.04l-12.672,-0l2.988,-16.69l42.959,0l-3.194,16.69Z" style="fill:#fff;fill-rule:nonzero;"/><path d="M428.082,203.802c-0.755,3.778 -2.679,6.937 -5.769,9.478c-3.091,2.541 -6.593,3.812 -10.508,3.812l-24.622,-0c-3.64,-0 -6.73,-1.305 -9.271,-3.915c-2.541,-2.61 -3.812,-5.735 -3.812,-9.375l0,-2.575l21.222,-118.472c0.755,-3.846 2.644,-7.04 5.666,-9.581c3.091,-2.541 6.559,-3.812 10.405,-3.812l25.034,0c3.571,0 6.627,1.305 9.168,3.915c2.61,2.61 3.915,5.769 3.915,9.478c-0,1.03 -0.069,1.82 -0.206,2.369l-6.593,36.881l-17.101,0l5.563,-31.112l-0,-0.618c-0,-1.236 -0.413,-2.266 -1.237,-3.09c-0.824,-0.756 -1.854,-1.133 -3.09,-1.133l-9.581,-0c-1.442,-0 -2.782,0.48 -4.018,1.442c-1.167,0.893 -1.888,2.026 -2.163,3.399l-18.853,104.771l0,0.515c0,1.167 0.412,2.197 1.237,3.09c0.824,0.893 1.854,1.34 3.09,1.34l9.478,-0c3.365,-0 5.46,-1.717 6.284,-5.151l8.448,-45.226l-9.787,0l2.987,-16.483l26.888,0l-12.774,70.053Z" style="fill:#fff;fill-rule:nonzero;"/><path d="M462.016,195.664l0,0.515c0,1.167 0.378,2.197 1.134,3.09c0.892,0.893 1.923,1.34 3.09,1.34l9.478,-0c3.365,-0 5.46,-1.717 6.284,-5.151l22.87,-126.096l17.514,0l-24.622,134.44c-0.755,3.778 -2.644,6.937 -5.666,9.478c-3.091,2.541 -6.628,3.812 -10.611,3.812l-24.828,-0c-3.502,-0 -6.524,-1.305 -9.065,-3.915c-2.541,-2.61 -3.812,-5.735 -3.812,-9.375l0,-2.575l23.797,-131.865l17.102,0l-22.665,126.302Z" style="fill:#fff;fill-rule:nonzero;"/><path d="M513.464,217.092l26.785,-147.73l17.822,0c5.151,53.296 7.83,90.897 8.036,112.806c0.687,-19.367 6.044,-56.969 16.071,-112.806l17.822,0l-26.785,147.73l-17.822,-0c-5.082,-53.089 -7.727,-89.799 -7.933,-110.128c-0.686,17.033 -6.043,53.742 -16.071,110.128l-17.925,-0Z" style="fill:#fff;fill-rule:nonzero;"/></g></svg>