<svg clip-rule="evenodd" fill-rule="evenodd" stroke-linejoin="round" stroke-miterlimit="2" viewBox="0 0 600 289" xmlns="http://www.w3.org/2000/svg"><g fill="#fff"><g fill-rule="nonzero"><path d="m58.421 111.508h14.606v23.516h21.908v-23.516h14.605v54.871h-14.605v-23.516h-21.908v23.516h-14.606z"/><path d="m299.41 102.658h14.605v23.516h-7.302v-7.838h-7.303zm0 23.516h7.303v7.839h-7.303z"/><path d="m490.46 111.508h14.605v47.032h21.908v-47.032h14.606v47.032h-7.303v7.839h-36.514v-7.839h-7.302z"/><path d="m150.369 259.144v-6.29h-24.525v-10.816h-7.172v-6.541h-7.043v6.541h-7.168v10.816h-24.527v6.29h-5.283v29.179h81v-29.179z"/><path d="m61.509 42.658v6.421h6.42v-6.421zm6.42 6.421v6.42h-6.42v6.421h-6.421v6.42h-6.42v19.262h6.42v-12.841h6.421v12.841h6.42v-6.42h32.103v6.42h6.421v-12.841h6.42v12.841h6.421v-19.262h-6.421v-6.42h-6.42v-6.421h-6.421v-6.42h-6.42v6.42h-19.262v-6.42zm32.103 0h6.421v-6.421h-6.421zm0 38.523h-12.841v6.421h12.841zm-32.103 0v6.421h12.842v-6.421zm0-25.682h6.421v6.42h-6.421zm25.683 0h6.42v6.42h-6.42z"/><path d="m444.841 172.383v6.421h6.421v-6.421zm6.421 6.421v6.421h-6.421v6.42h-6.42v6.421h-6.421v19.261h6.421v-12.841h6.42v12.841h6.421v-6.42h32.102v6.42h6.421v-12.841h6.42v12.841h6.421v-19.261h-6.421v-6.421h-6.42v-6.42h-6.421v-6.421h-6.42v6.421h-19.262v-6.421zm32.102 0h6.421v-6.421h-6.421zm0 38.523h-12.841v6.421h12.841zm-32.102 0v6.421h12.841v-6.421zm0-25.682h6.42v6.421h-6.42zm25.682 0h6.42v6.421h-6.42z"/><path d="m325.092.976v6.421h-19.262v6.42h-6.42v19.262h19.261v6.42h-6.42v6.421h12.841v-6.421h6.421v-6.42h12.841v6.42h6.42v6.421h12.841v-6.421h-6.42v-6.42h19.261v-19.262h-6.42v-6.42h-19.262v-6.421zm38.523 44.944v6.42h12.841v-6.42zm-19.261-6.421h-12.841v6.421h12.841zm-32.103 6.421h-12.841v6.42h12.841zm6.42-25.682h12.842v6.42h-12.842zm25.683 0h12.841v6.42h-12.841z"/><path d="m135.1 166.379h-10.954v-7.839h-7.303v-39.193h7.303v-7.839h36.513v7.839h7.303v39.193h-7.303v-15.677h-7.303v-23.516h-21.908v39.193h3.652zm7.302-7.839h10.954v7.839h-10.954z"/></g><path d="m111.5 189.82h7.303v15.677h-7.303z"/><path d="m29 166.379h-21.697v-7.839h-7.303v-7.838h14.605v7.838h14.395zm7.513-31.355h7.303v7.839h7.303v15.677h-7.303v7.839h-7.303zm-7.513 7.839h-21.697v-7.839h-7.303v-15.677h7.303v-7.839h29.21v7.839h7.303v7.839h-14.605v-7.839h-14.606v15.677h14.395z" fill-rule="nonzero"/><path d="m255.594 158.54v-39.193h-14.606v-7.839h43.816v7.839h-14.605v47.032h-7.303v-7.839z" fill-rule="nonzero"/><path d="m333.958 166.379h-7.303v-54.871h51.119v7.839h-36.514v15.677h29.211v7.839h-29.211v7.839h-7.302zm7.302 0v-7.839h36.514v7.839z" fill-rule="nonzero"/><path d="m392.379 142.863v23.516h-7.303v-54.871h14.606v7.839h7.302v7.839h7.303v-7.839h7.303v-7.839h14.605v54.871h-14.605v-23.516h-7.303v7.839h-7.303v-7.839z" fill-rule="nonzero"/><path d="m548.881 158.54v-47.032h43.816v7.839h7.303v23.516h-7.303v7.839h-14.605v-7.839h7.303v-23.516h-21.908v23.516h7.302v7.839h-7.302v15.677h-7.303v-7.839z" fill-rule="nonzero"/><path d="m204.424 166.379h-21.857v-7.839h-7.303v-39.193h7.303v-7.839h36.513v7.839h7.303v39.193h-7.303v7.839h-7.354l.052-47.032h-21.908v39.193h14.554z" fill-rule="nonzero"/></g></svg>