<svg clip-rule="evenodd" fill-rule="evenodd" stroke-linejoin="round" stroke-miterlimit="2" viewBox="0 0 600 258" xmlns="http://www.w3.org/2000/svg"><g fill="#fff"><path d="m599.305 131.614h-77.421c-15.17 0-24.143 5.988-28.998 11.011-7.898 8.169-9.758 18.455-9.615 23.305.007.404.003.818-.002 1.251-.069 7.881 1.092 16.803 15.763 31.458 2.9 3.266 7.752 8.742 9.586 11.463-4.01.493-14.174.493-24.849.493h-4.535l-5.503-.002c-18.833 0-34.715-.054-37.97-.696-.455-.297-1.094-.808-1.796-1.418 6.508-4.007 13.087-10.218 16.185-15.529 1.88-3.23 3.953-8.746 4.823-12.838 1.931-9.108-1.253-20.094-8.517-29.397-8.474-10.854-20.802-17.348-33.823-17.818l-.274-.005h-83.34l.015 7.585.209 108.796.015 7.521 7.521.033 33.969.151 7.558.033.045-7.559.146-25.269c.694.658 1.411 1.342 2.147 2.048 22.924 21.99 30.619 28.083 37.434 29.624 1.873.418 4.971 1.109 60.107 1.124h2.63c29.849 0 44.831 0 53.744-.861 10.208-.986 13.492-3.302 18.414-7.309l.164-.134c10.11-8.219 15.445-20.655 13.923-32.455-.991-7.674-3.022-10.861-11.281-21.165l-2.454-3.066c-2.876-3.594-6.352-7.935-8.682-10.857-1.879-2.351-3.355-4.437-4.245-5.803 1.169-.003 2.688-.005 4.653-.005 15.514 0 46.258.102 46.566.104l7.578.024.019-7.577.071-28.676.02-7.585zm-597.323.418 3.408 10.015 37.072 108.956 1.746 5.132h32.131l18.549-50.868c1.442 4.195 3 8.717 4.558 13.235 5.762 16.706 11.536 33.38 11.536 33.38l1.764 5.094h32.425l1.754-5.113 37.546-109.399 3.441-10.028h-47.122l-1.758 5.105c-2.814 8.171-6.548 18.954-9.742 28.08-.481-1.384-.983-2.839-1.501-4.363l-8.203-24.09-1.747-5.13h-45.554l-1.78 5.058-9.89 28.108c-3.268-9.184-7.055-19.887-9.951-28.094l-1.781-5.047-5.352-.004-30.97-.02-10.579-.007zm271.179-.868-5.387.005-51.654.048-5.39.005-1.759 5.096-37.64 109.032-3.429 9.929 10.505.109 30.752.323 5.709.059 1.626-5.471 3.28-11.035 44.334.355 3.509 11.211 1.67 5.335 5.589-.025 31.063-.142 10.593-.049-3.478-10.005-38.123-109.686zm-38.912 69.208c1.434-3.907 3.365-9.188 5.987-16.359.822-2.248 1.574-4.306 2.264-6.193.628 1.851 1.311 3.864 2.053 6.054.611 1.803 3.297 9.717 5.601 16.49-6.85 0-12.007.001-15.905.008zm144.078-18.771c.012-1.912.024-4.056.036-6.204.009-1.893.018-3.789.021-5.526l10.585.055c6.083.033 15.237.083 17.021.589 2.278 1.383 3.549 3.52 3.411 5.734-.076 1.196-.646 3.395-3.616 4.685-1.656.719-4.296.943-17.571.943-4.211 0-7.459-.122-9.887-.276z"/><path d="m374.076 1.13h-63.018l-1.76 5.1-37.602 108.948-3.465 10.04h47.769l4.93-15.844 44.124.196 3.406 11.141 1.628 5.326 5.571.031 41.697.229-3.493-10.101-38.019-109.97zm-85.877-.89-7.582.011-171.795.255c-9.896 0-19.087 4.275-25.872 12.038-5.501 6.294-9.112 14.599-9.657 22.215-.921 12.784 2.022 17.403 16.139 33.308 4.097 4.615 7.992 9.004 9.292 10.868-.02.075-.039.123-.051.151-.014.011-.036.028-.066.049l-.778.541h-97.829v45.542h75.378c26.988 0 40.308-.026 48.156-.601 8.98-.658 11.845-2.198 16.137-4.864l.536-.332c13.495-8.346 20.449-28.223 14.592-41.703-1.807-4.124-13.25-18.684-14.549-20.331-3.592-4.548-9.521-12.055-10.459-14.227.022-.183.067-.372.114-.503.156-.04.455-.093.947-.093l55.695-.158v82.81h47.452v-82.766h54.2v-42.21zm187.264.89h-47.122v124.087h50.217l-.11-31.456.795.756c23.642 22.494 30.616 27.604 35.216 29.163 3.532 1.191 9.445 1.537 41.812 1.537h43.729l-.148-7.716-.576-29.976-.14-7.318-7.318-.105-56.207-.805-1.178-.915c-.375-.292-.829-.678-1.314-1.116.422-.249.808-.479 1.142-.678 14.196-8.472 21.636-22.148 20.409-37.52-.817-10.37-2.669-15.041-9.008-22.71-6.23-7.54-14.781-12.582-24.079-14.198-5.166-.896-31.112-1.03-46.12-1.03zm-140.556 69.648c2.335-6.649 5.586-15.761 8.529-23.95 2.79 8.179 5.875 17.263 8.126 23.929zm142.961-32.547h9.377c13.273 0 15.902.221 17.522.928 3.075 1.333 3.387 1.979 3.629 4.691.242 2.695-.092 3.779-2.765 5.783-.088.065-.155.116-.211.157-1.765.327-8.314.327-16.509.327h-11.042z"/></g></svg>