<?xml version="1.0" encoding="UTF-8" standalone="no"?><!DOCTYPE svg PUBLIC "-//W3C//DTD SVG 1.1//EN" "http://www.w3.org/Graphics/SVG/1.1/DTD/svg11.dtd"><svg width="100%" height="100%" viewBox="0 0 600 293" version="1.1" xmlns="http://www.w3.org/2000/svg" xmlns:xlink="http://www.w3.org/1999/xlink" xml:space="preserve" xmlns:serif="http://www.serif.com/" style="fill-rule:evenodd;clip-rule:evenodd;stroke-linejoin:round;stroke-miterlimit:2;"><g id="playlist_supermario_alt"><path d="M598.698,184.978l-35.337,-49.93c-0.814,-1.158 -2.098,-1.921 -3.509,-2.093l-35.021,-4.26l9.661,-4.094c1.067,-0.447 1.772,-1.508 1.772,-2.666l-0,-17.923c-0,-1.21 -0.545,-2.374 -1.468,-3.165l-12.218,-10.413c0.378,-0.246 0.653,-0.636 0.722,-1.084l7.224,-43.656c0.207,-1.262 0.316,-2.54 0.316,-3.813l-0,-10.453c-0,-1.187 -0.631,-2.287 -1.657,-2.889l-39.242,-23.107c-1.066,-0.631 -2.322,-0.872 -3.555,-0.683l-58.197,8.899c-1.095,0.161 -1.898,1.107 -1.898,2.208l0,3.704l-59.487,-10.361c-1.078,-0.184 -2.128,0.47 -2.426,1.519l-3.669,12.89l-28.291,-15.258c-1.083,-0.59 -2.35,-0.785 -3.572,-0.568l-57.698,10.631c-1.095,0.206 -1.892,1.158 -1.892,2.27l-0,10.447c-0,0.189 0.017,0.379 0.017,0.568l-35.36,-4.702l0,-8.193c0,-1.09 -0.826,-2.001 -1.909,-2.105l-52.286,-4.89c-1.049,-0.098 -1.961,0.688 -2.036,1.737l-0.269,4.3l-21.702,-16.616c-0.975,-0.746 -2.208,-1.101 -3.429,-0.986l-44.66,4.26c-1.204,0.114 -2.299,0.768 -2.976,1.783l-24.013,35.836c-0.693,1.038 -1.066,2.259 -1.066,3.515l-0,16.868c-0,1.187 0.625,2.299 1.64,2.924l7.608,4.627l-12.04,16.043c-0.752,0.992 -1.147,2.208 -1.147,3.458l0.011,16.61c0,1.216 0.597,2.305 1.468,3.16l11.37,9.678l-31.639,-4.208c-1.313,-0.178 -2.58,0.544 -3.09,1.76l-52.871,123.654c-0.59,1.358 -0.877,2.815 -0.877,4.288l-0,14.587c-0,1.353 0.803,2.58 2.053,3.108l60.989,26.036c1.095,0.471 2.351,-0.12 2.707,-1.255l16.622,-54.253l14.609,26.255c0.522,0.929 1.829,1.049 2.494,0.218l19.042,-23.377l3.257,54.408c0.074,1.181 1.164,2.018 2.316,1.777l52.126,-10.773l35.927,6.794c1.204,0.224 2.362,-0.579 2.557,-1.789l4.513,-26.742l18.778,-2.821l6.014,28.984c0.253,1.21 1.428,2.001 2.644,1.772l41.133,-7.781l0.608,5.218c0.138,1.233 1.239,2.127 2.477,2.018l49.368,-4.455c1.255,-0.115 2.224,-1.164 2.213,-2.431l-0.029,-14.306l14.225,21.714c0.706,1.078 2.088,1.485 3.263,0.952l36.203,-16.21l-0.224,12.93c-0.017,1.198 0.986,2.162 2.179,2.076l47.848,-3.28c1.313,-0.086 2.397,-1.061 2.62,-2.351l6.141,-34.62l8.205,23.657c0.459,1.325 1.519,2.362 2.855,2.804l57.452,18.738c1.359,0.447 2.85,0.361 4.151,-0.235l54.551,-24.885c1.285,-0.585 2.236,-1.726 2.58,-3.09l14.988,-59.298c0.362,-1.445 0.545,-2.925 0.545,-4.398l-0,-11.164c-0.011,-1.445 -0.464,-2.867 -1.302,-4.053Zm-44.086,-42.447l-59.556,-7.248c-1.101,-0.137 -2.196,0.316 -2.884,1.187l-26.272,33.21l-7.38,41.759l12.437,35.858c0.361,1.061 1.21,1.893 2.282,2.237l49.763,16.226c0.542,0.178 1.111,0.249 1.675,0.218l0.838,-0.124c0.276,-0.067 0.546,-0.16 0.807,-0.277l47.349,-21.594c1.02,-0.47 1.783,-1.382 2.064,-2.471l12.861,-50.927c0.269,-1.101 0.051,-2.276 -0.608,-3.194l-30.561,-43.186c-0.659,-0.929 -1.68,-1.537 -2.815,-1.674Zm-464.994,-13.165l-26.943,-3.583c-1.037,-0.138 -2.064,0.441 -2.477,1.404l-47.429,110.999c-0.396,0.901 0.029,1.95 0.929,2.346l43.358,18.502c0.22,0.095 0.447,0.137 0.669,0.131l0.636,-0.149c0.395,-0.184 0.716,-0.529 0.857,-0.985l20.429,-66.66l19.128,34.373c0.203,0.373 0.565,0.582 0.943,0.615l0.563,-0.084c0.18,-0.073 0.347,-0.192 0.483,-0.359l26.301,-32.292l4.134,69.126c0.057,0.94 0.929,1.611 1.852,1.422l46.977,-9.707c0.969,-0.201 1.582,-1.147 1.393,-2.11l-23.084,-114.245c-0.207,-1.043 -1.067,-1.852 -2.116,-1.99l-29.099,-3.927c-1.06,-0.143 -2.098,0.395 -2.597,1.342l-19.294,37.338l-13.279,-39.58c-0.344,-1.032 -1.256,-1.789 -2.334,-1.927Zm323.801,0.505l-0.66,-0.009c-0.627,0.137 -1.12,0.681 -1.146,1.373l-3.871,101.676l5.597,4.651c1.066,0.888 1.611,2.27 1.422,3.635l-0.734,5.235c-0.19,1.37 -1.078,2.557 -2.345,3.119l-4.668,2.087l-0.281,7.379c-0.028,0.958 0.769,1.726 1.72,1.669l29.575,-2.03c1.049,-0.075 1.915,-0.849 2.099,-1.875l20.194,-113.855c0.172,-0.986 -0.448,-1.943 -1.428,-2.178l-45.474,-10.877Zm-119.468,120.861l-38.766,-111.349c-0.361,-1.021 -1.284,-1.76 -2.368,-1.869l-53.065,-5.447c-1.021,-0.098 -1.979,0.544 -2.271,1.536l-17.505,60.417l12.998,64.429l11.313,2.145c0.969,0.183 1.892,-0.459 2.053,-1.428l4.088,-24.231l35.526,-5.338l6.026,29.053c0.201,0.975 1.147,1.606 2.116,1.416l38.685,-7.31c0.923,-0.172 1.474,-1.13 1.17,-2.024Zm56.626,-124.457l-0.85,-0.083c-0.285,-0.003 -0.57,0.019 -0.853,0.066l-63.908,10.35c-0.986,0.16 -1.674,1.066 -1.554,2.058l8.882,76.511l15.458,44.379l22.448,-2.024c0.997,-0.092 1.743,-0.946 1.708,-1.944l-1.399,-39.602l1.491,-0.304l28.628,43.696c0.422,0.645 1.153,0.987 1.884,0.941l0.72,-0.178l38.278,-17.138c0.757,-0.338 0.889,-1.348 0.258,-1.875l-35.091,-29.11l22.276,-13.004c0.986,-0.568 1.674,-1.543 1.881,-2.655l7.769,-40.417c0.206,-1.049 -0.281,-2.116 -1.204,-2.661l-45.222,-26.409c-0.496,-0.292 -1.039,-0.493 -1.6,-0.597Zm167.488,96.912l-19.982,-21.146l14.374,-24.689l26.645,7.15l3.303,26.593l-24.34,12.092Zm-302.242,-20.263l5.78,-34.299l11.874,0.94l7.127,34.242l-24.781,-0.883Zm137.329,-11.806l-23.36,5.442l-1.347,-37.631l27.694,7.483l-2.987,24.706Zm133.36,-177.471l-0.728,-0.076c-0.245,-0.005 -0.49,0.011 -0.734,0.048l-47.882,7.334c-0.298,0.046 -0.551,0.195 -0.768,0.373l5.963,1.037c1.049,0.178 1.743,1.17 1.576,2.219l-4.931,29.38l6.434,62.664c0.091,0.848 0.831,1.468 1.68,1.393l23.324,-2.047c0.861,-0.074 1.508,-0.803 1.486,-1.668l-0.929,-30.194l1.129,-0.224l21.347,32.854c0.365,0.559 0.986,0.864 1.621,0.833l0.632,-0.144l28.852,-12.213c0.642,-0.287 0.78,-1.147 0.235,-1.606l-26.421,-22.51l15.648,-9.748c0.831,-0.516 1.404,-1.364 1.554,-2.328l5.573,-33.599c0.143,-0.912 -0.281,-1.824 -1.078,-2.294l-32.207,-18.967c-0.43,-0.252 -0.895,-0.426 -1.376,-0.517Zm-157.245,3.026l-0.734,-0.053c-0.246,0.003 -0.492,0.027 -0.736,0.073l-47.555,8.761c-0.849,0.16 -1.428,0.952 -1.319,1.806l0.694,5.808l6.06,0.809c1.038,0.137 1.755,1.106 1.583,2.144l-4.232,25.16l6.623,54.717c0.097,0.848 0.86,1.462 1.708,1.376l23.876,-2.403c0.848,-0.086 1.485,-0.831 1.427,-1.685l-1.376,-22.425l22.826,-1.256c0.986,-0.051 1.927,-0.458 2.643,-1.146l17.437,-16.68c0.722,-0.688 1.186,-1.6 1.336,-2.58l4.73,-32.183c0.149,-0.912 -0.304,-1.818 -1.112,-2.254l-32.482,-17.522c-0.439,-0.232 -0.912,-0.39 -1.397,-0.467Zm104.025,12.806l-61.156,-10.653c-0.625,-0.104 -1.233,0.275 -1.41,0.888l-2.288,8.062l3.715,2.007c1.015,0.544 1.583,1.674 1.422,2.815l-5.934,40.279c-0.184,1.227 -0.769,2.368 -1.663,3.223l-9.352,8.944l4.467,27.62c0.097,0.636 0.642,1.112 1.296,1.135l69.687,2.471l0.405,-0.079c0.368,-0.165 0.607,-0.561 0.547,-0.987l-3.744,-24.621c-0.069,-0.46 -0.412,-0.814 -0.835,-0.921l-0.444,-0.019l-34.637,5.12l-2.477,-17.018l27.963,4.226l0.44,-0.02c0.417,-0.108 0.746,-0.463 0.81,-0.914l2.431,-18.595c0.081,-0.591 -0.378,-1.118 -0.969,-1.124l-28.777,-0.43l4.369,-15.997l31.937,9.661c0.142,0.042 0.285,0.051 0.422,0.031l0.382,-0.139c0.231,-0.142 0.403,-0.379 0.452,-0.671l3.853,-22.998c0.097,-0.614 -0.31,-1.187 -0.912,-1.296Zm-210.841,-5.057l-35.113,-3.286c-0.843,-0.08 -1.571,0.545 -1.628,1.388l-0.098,1.605l3.905,2.988c0.975,0.751 1.611,1.863 1.754,3.073l0.218,1.754c0.155,1.216 -0.189,2.449 -0.952,3.412l-6.123,7.769l-1.617,25.825l2.282,1.502c1.032,0.677 1.772,1.72 2.07,2.919l0.355,1.399c0.31,1.204 0.201,2.482 -0.298,3.618l-5.814,13.176l-0.08,1.192c-0.063,0.969 0.327,1.915 1.049,2.558l20.171,18.13c0.734,0.659 1.68,1.037 2.667,1.066l44.218,1.13l0.72,-0.063c0.704,-0.14 1.35,-0.508 1.832,-1.05l15.555,-17.746c0.66,-0.751 1.101,-1.68 1.267,-2.666l8.607,-51.15c0.143,-0.826 -0.425,-1.606 -1.268,-1.715l-35.136,-4.661c-0.785,-0.109 -1.485,0.527 -1.445,1.336l2.116,46.919l-27.74,1.794l9.811,-60.559c0.137,-0.826 -0.453,-1.577 -1.285,-1.657Zm-70.879,-15.228l-0.718,-0.135c-0.243,-0.023 -0.488,-0.022 -0.734,0.002l-38.02,3.624c-0.969,0.097 -1.835,0.625 -2.379,1.422l-20.258,30.222c-0.458,0.694 -0.252,1.64 0.459,2.076l49.448,30.113l-10.115,13.75l-26.346,-22.184c-0.158,-0.135 -0.336,-0.229 -0.523,-0.283l-0.572,-0.049c-0.382,0.044 -0.746,0.237 -0.992,0.567l-15.401,20.521c-0.516,0.694 -0.407,1.663 0.247,2.225l27.109,23.055c0.751,0.642 1.72,0.986 2.706,0.969l44.981,-0.791c0.929,-0.017 1.772,-0.573 2.15,-1.428l15.441,-34.964c0.361,-0.814 0.08,-1.76 -0.659,-2.253l-46.799,-30.808l7.872,-12.912l27.207,18.657c0.353,0.244 0.773,0.329 1.17,0.269l0.569,-0.198c0.177,-0.1 0.337,-0.235 0.468,-0.403l13.257,-16.817c0.527,-0.665 0.395,-1.628 -0.27,-2.139l-27.997,-21.45c-0.39,-0.301 -0.833,-0.523 -1.301,-0.658Zm180.6,57.892l-18.136,3.177l-1.881,-30.481l23.119,7.976l-3.102,19.328Zm156.588,-0.682l-18.25,2.93l-0.941,-31.834l22.362,7.901l-3.171,21.003Z" style="fill:#fff;"/><path d="M488.76,66.404l-18.25,2.93l-0.941,-31.834l22.362,7.901l-3.171,21.003Z" style="fill:#fff;"/><path d="M488.76,66.404l-18.25,2.93l-0.941,-31.834l22.362,7.901l-3.171,21.003Z" style="fill:#fff;"/><path d="M332.172,67.086l-18.136,3.177l-1.881,-30.481l23.119,7.976l-3.102,19.328Z" style="fill:#fff;"/><path d="M332.172,67.086l-18.136,3.177l-1.881,-30.481l23.119,7.976l-3.102,19.328Z" style="fill:#fff;"/></g></svg>