<svg clip-rule="evenodd" fill-rule="evenodd" stroke-linejoin="round" stroke-miterlimit="2" viewBox="0 0 600 360" xmlns="http://www.w3.org/2000/svg"><g fill="#fff"><path d="m260.337.297v226.202l51.217 16.226v-189.666c0-8.938 3.985-14.873 10.376-12.831 8.356 2.318 9.98 10.551 9.98 19.389v75.748c31.88 15.43 56.98-.009 56.98-40.722 0-41.601-14.715-60.135-58.016-75.037-17.077-5.685-48.729-15.281-70.536-19.309" fill-rule="nonzero"/><path d="m321.295 209.656 82.259-29.279c9.306-3.449 10.729-8.135 3.196-10.598-7.648-2.508-21.303-1.79-30.706 1.587l-54.749 19.313v-30.816l3.135-1.035s15.848-5.614 38.137-8.032c22.247-2.438 49.53.319 70.973 8.4 24.155 7.674 26.862 18.866 20.751 26.656-6.2 7.709-21.232 13.285-21.232 13.285l-111.764 40.148z"/><path d="m166.494 206.54c-24.767-6.899-28.897-21.477-17.597-29.899 10.42-7.691 28.169-13.479 28.169-13.479l73.368-26.159v29.773l-52.748 18.906c-9.344 3.343-10.745 8.046-3.218 10.506 7.659 2.56 21.253 1.872 30.602-1.578l25.364-9.145v26.58c-1.635.274-3.453.551-5.112.833-25.287 4.198-52.228 2.474-78.828-6.337z"/><path d="m511.949 323.949h51.155c.291 0 .488.197.488.396v8.035c0 .397.3.595.591.595h17.073c.303 0 .59-.198.59-.595v-7.836c0-.299.303-.595.593-.595h16.968c.396 0 .593-.299.593-.594v-7.937c0-.299-.197-.595-.593-.595h-16.968c-.29 0-.593-.299-.593-.594v-57.235c0-4.671-1.734-7.645-4.653-8.632h-4.94c-1.539.396-3.213 1.104-5.008 2.183l-58.453 62.988c-3.406 3.75-4.751 5.255-3.763 7.339.79 1.786 2.473 3.077 6.92 3.077zm50.888-50.916c-.227-.001-.456.076-.627.213 0 0-35.463 40.187-35.463 40.187-.38.226-.585.451-.616.72-.01.086-.002.177.023.273.024.052.062.104.118.152.157.137.456.245.964.245h35.868c.291 0 .593-.295.593-.594v-40.19c0-.716-.426-1.004-.86-1.006z"/><path d="m131.014 277.463-.145.218 18.632 54.559c.031.123.031.311-.009.432l-10.49 27.013c-.044.128.014.222.137.222h10.925c.141-.003.268-.09.321-.222l32.705-82.004c.047-.131-.011-.218-.139-.218h-11.92c-.136.005-.256.091-.305.218l-13.847 35.852h-.155l-12.225-35.852c-.028-.131-.168-.218-.293-.218z"/><path d="m375.25 277.463h-12.556c-.123.001-.225.101-.229.224v55.064l.229.224h12.556c.001 0 .002.001.003.001.124 0 .227-.101.229-.225v-55.064c0-.001 0-.002 0-.003 0-.122-.1-.222-.222-.222-.003 0-.007 0-.01.001z"/><path d="m354.485 277.463h-13.558l-.092-.084v-9.135l-.207-.224h-12.584c-.124 0-.227.1-.231.224v48.103c0 9.636 5.996 16.628 14.26 16.628h8.992c.121 0 .221-.1.221-.221 0-.001 0-.002 0-.003v-7.505c0-.123-.087-.239-.221-.239h-5.52c-1.42-.021-4.71-.093-4.71-7.192v-32.384l.076-.073c4.144.021 13.574 0 13.574 0l.224-.206v-7.465c-.003-.121-.102-.22-.224-.224z"/><path d="m31.225 260.054-30.995-.013c-.122-.003-.226.095-.23.218v72.492c0 .116.102.224.23.224h12.562l.221-.224.014-64.623.075-.107 14.383-.028c5.237 0 8.114 5.277 8.114 14.842 0 9.569-2.877 14.858-8.114 14.858l-8.657-.009c-.129 0-.217.098-.217.222v7.521c0 .147.088.236.217.236h12.397c4.374 0 8.657-2.027 11.748-5.51 3.662-4.132 5.591-10.101 5.591-17.253 0-13.858-6.77-22.846-17.339-22.846z"/><path d="m69.108 260.041h-12.57c-.143 0-.245.101-.245.218v72.492c0 .117.102.224.245.224h12.57l.231-.224v-72.492z"/><path d="m266.788 277.463h-13.635l-.072-.084v-9.135c0-.122-.093-.224-.219-.224h-12.558c-.128 0-.239.102-.239.224v48.103c0 9.636 6.006 16.628 14.277 16.628h8.993c.129 0 .229-.108.229-.224v-7.505c0-.123-.1-.239-.229-.239h-5.521c-1.415-.021-4.732-.093-4.746-7.192v-32.384l.077-.073c4.177.021 13.643 0 13.643 0l.222-.206v-7.465c0-.122-.1-.223-.222-.224z"/><path d="m462.13 277.463h-22.411c-.122.001-.221.102-.221.224l-.007 55.064.21.224h12.58l.212-.224-.017-47.273.087-.091 9.556-.008c2.584 0 5.419.417 7.233 3.405 1.658 2.7 2.411 7.447 2.411 14.897.01.322-.01 29.07-.01 29.07 0 .116.1.224.223.224h12.526c.136 0 .236-.108.236-.224v-27.615c0-12.942-2.586-27.673-22.608-27.673z"/><path d="m123.927 277.686c0-.128-.113-.225-.237-.225h-22.384c-20.071 0-22.638 14.733-22.638 27.682l.016 11.198c0 9.636 5.993 16.634 14.232 16.634h12.213l.221-.224v-7.514c0-.122-.104-.231-.221-.231l-8.723.015c-2.01-.042-4.716-.892-4.716-7.801v-12.091c-.009-8.034.739-13.171 2.407-16.093 1.807-3.225 4.651-3.658 7.209-3.658h9.541l.081.114-.012 47.259c0 .114.097.224.231.224h12.546c.124 0 .235-.11.235-.224z"/><path d="m214.346 290.377-6.19-.472c-4.642-.4-8.094-2.97-8.094-10.576 0-8.881 3.983-11.311 9.3-11.311h17.132l.227-.22v-7.538l-.227-.217h-.358l-18.56.004c-11.693 0-20.008 6.867-20.008 20.554v.595c0 10.8 6.645 18.595 16.548 19.352l6.161.456c4.699.356 7.626 4.559 7.626 10.936v1.793c0 3.987-.997 11.282-9.547 11.282h-17.801c-.124.004-.224.107-.224.232v7.503l.224.225h22.1c6.81 0 18.212-2.755 18.212-21.29 0-6.715-1.525-12.008-4.617-15.833-2.635-3.285-6.54-5.062-11.904-5.475z"/><path d="m317.287 277.686c-.001-.123-.102-.224-.225-.225h-22.434c-20.028 0-22.621 14.733-22.621 27.682l.016 11.198c0 9.636 5.988 16.634 14.27 16.634h12.179l.227-.224v-7.514c-.003-.124-.103-.226-.227-.231l-8.728.015c-2.003-.042-4.684-.892-4.692-7.801v-12.091c0-8.034.756-13.171 2.385-16.093 1.809-3.225 4.671-3.658 7.187-3.658h9.584l.094.114-.023 47.259c0 .114.104.224.229.224h12.565c.123 0 .214-.11.214-.224z"/><path d="m407.507 277.463c-20.975 0-23.657 14.802-23.657 27.746 0 12.957 2.682 27.807 23.657 27.807 20.978 0 23.653-14.85 23.653-27.807 0-12.944-2.675-27.746-23.653-27.746zm7.962 43.898c-1.976 3.256-5.115 3.69-7.962 3.69-2.819 0-5.966-.434-7.964-3.689-1.802-2.93-2.636-8.062-2.636-16.154v-.064c0-9.551 1.175-14.977 3.804-17.562 1.573-1.568 3.611-2.204 6.796-2.204 3.232 0 5.25.636 6.822 2.204 2.604 2.585 3.782 8.034 3.782 17.626 0 8.103-.837 13.239-2.642 16.153z"/><path d="m375.25 260.041h-12.556l-.229.218v10.527c0 .128.112.222.229.222h12.556c.137 0 .232-.094.232-.222v-10.527c0-.117-.095-.218-.232-.218z"/></g></svg>