<?xml version="1.0" encoding="UTF-8" standalone="no"?><!DOCTYPE svg PUBLIC "-//W3C//DTD SVG 1.1//EN" "http://www.w3.org/Graphics/SVG/1.1/DTD/svg11.dtd"><svg width="100%" height="100%" viewBox="0 0 600 93" version="1.1" xmlns="http://www.w3.org/2000/svg" xmlns:xlink="http://www.w3.org/1999/xlink" xml:space="preserve" xmlns:serif="http://www.serif.com/" style="fill-rule:evenodd;clip-rule:evenodd;stroke-linejoin:round;stroke-miterlimit:2;"><g id="playlist_2player_outline_flat"><path d="M92.407,83.413l0,9.157l-9.111,0l0,-9.157l9.111,-0Zm-9.111,-0l0,-9.065l9.111,-0l0,9.065l-9.111,-0Zm0,-9.065l0,-9.297l9.111,0l0,9.297l-9.111,-0Zm0,-18.547l0,-9.296l9.111,0l0,9.296l-9.111,0Zm0,-9.296l0,-9.25l9.111,0l0,9.25l-9.111,0Zm0,-9.25l0,-9.296l9.111,-0l0,9.296l-9.111,0Zm0,-9.296l0,-9.296l9.111,-0l0,9.296l-9.111,-0Zm0,55.454l0,9.157l-9.25,0l0,-9.157l9.25,-0Zm-9.25,-0l0,-9.065l9.25,-0l0,9.065l-9.25,-0Zm0,-9.065l0,-9.297l9.25,0l0,9.297l-9.25,-0Zm0,-9.297l0,-9.25l9.25,0l0,9.25l-9.25,0Zm0,-9.25l0,-9.296l9.25,0l0,9.296l-9.25,0Zm0,-9.296l0,-9.25l9.25,0l0,9.25l-9.25,0Zm0,-9.25l0,-9.296l9.25,-0l0,9.296l-9.25,0Zm0,-9.296l0,-9.296l9.25,-0l0,9.296l-9.25,-0Zm0,-9.296l0,-9.065l9.25,-0l0,9.065l-9.25,-0Zm-9.296,-9.065l-0,-9.297l9.296,0l0,9.297l-9.296,-0Zm9.296,73.815l0,9.157l-9.296,0l-0,-9.157l9.296,-0Zm-9.296,-0l-0,-9.065l9.296,-0l0,9.065l-9.296,-0Zm-0,-18.362l-0,-9.25l9.296,0l0,9.25l-9.296,0Zm-0,-9.25l-0,-9.296l9.296,0l0,9.296l-9.296,0Zm-0,-9.296l-0,-9.25l9.296,0l0,9.25l-9.296,0Zm-0,-27.842l-0,-9.065l9.296,-0l0,9.065l-9.296,-0Zm-9.25,-9.065l-0,-9.297l9.25,0l-0,9.297l-9.25,-0Zm9.25,73.815l-0,9.157l-9.25,0l-0,-9.157l9.25,-0Zm-9.25,-0l-0,-9.065l9.25,-0l-0,9.065l-9.25,-0Zm-0,-18.362l-0,-9.25l9.25,0l-0,9.25l-9.25,0Zm-0,-9.25l-0,-9.296l9.25,0l-0,9.296l-9.25,0Zm-9.296,-46.203l-0,-9.297l9.296,0l-0,9.297l-9.296,-0Zm9.296,73.815l-0,9.157l-9.296,0l-0,-9.157l9.296,-0Zm-9.296,-0l-0,-9.065l9.296,-0l-0,9.065l-9.296,-0Zm-0,-18.362l-0,-9.25l9.296,0l-0,9.25l-9.296,0Zm-0,-37.092l-0,-9.296l9.296,-0l-0,9.296l-9.296,-0Zm-9.297,-18.361l0,-9.297l9.297,0l-0,9.297l-9.297,-0Zm9.297,73.815l-0,9.157l-9.297,0l0,-9.157l9.297,-0Zm-9.297,-0l0,-9.065l9.297,-0l-0,9.065l-9.297,-0Zm0,-46.158l0,-9.296l9.297,-0l-0,9.296l-9.297,0Zm0,-9.296l0,-9.296l9.297,-0l-0,9.296l-9.297,-0Zm-9.065,-18.361l0,-9.297l9.065,0l0,9.297l-9.065,-0Zm9.065,73.815l0,9.157l-9.065,0l0,-9.157l9.065,-0Zm-9.065,-0l0,-9.065l9.065,-0l0,9.065l-9.065,-0Zm0,-36.908l0,-9.25l9.065,0l0,9.25l-9.065,0Zm0,-9.25l0,-9.296l9.065,-0l0,9.296l-9.065,0Zm0,-9.296l0,-9.296l9.065,-0l0,9.296l-9.065,-0Zm-9.296,-18.361l0,-9.297l9.296,0l0,9.297l-9.296,-0Zm9.296,73.815l0,9.157l-9.296,0l0,-9.157l9.296,-0Zm-9.296,-0l0,-9.065l9.296,-0l0,9.065l-9.296,-0Zm0,-27.612l0,-9.296l9.296,0l0,9.296l-9.296,0Zm0,-9.296l0,-9.25l9.296,0l0,9.25l-9.296,0Zm-9.25,-36.907l0,-9.297l9.25,0l0,9.297l-9.25,-0Zm9.25,73.815l0,9.157l-9.25,0l0,-9.157l9.25,-0Zm-9.25,-0l0,-9.065l9.25,-0l0,9.065l-9.25,-0Zm0,-18.362l0,-9.25l9.25,0l0,9.25l-9.25,0Zm0,-9.25l0,-9.296l9.25,0l0,9.296l-9.25,0Zm0,-9.296l0,-9.25l9.25,0l0,9.25l-9.25,0Zm0,-27.842l0,-9.065l9.25,-0l0,9.065l-9.25,-0Zm-9.296,64.75l0,-9.065l9.296,-0l0,9.065l-9.296,-0Zm0,-9.065l0,-9.297l9.296,0l0,9.297l-9.296,-0Zm0,-9.297l0,-9.25l9.296,0l0,9.25l-9.296,0Zm0,-18.546l0,-9.25l9.296,0l0,9.25l-9.296,0Zm0,-9.25l0,-9.296l9.296,-0l0,9.296l-9.296,0Zm0,-9.296l0,-9.296l9.296,-0l0,9.296l-9.296,-0Zm0,-9.296l0,-9.065l9.296,-0l0,9.065l-9.296,-0Z" style="fill:#fff;fill-rule:nonzero;"/><path d="M192.908,65.051l0,-9.25l9.112,0l-0,9.25l-9.112,0Zm0,-9.25l0,-9.296l9.112,0l-0,9.296l-9.112,0Zm0,-9.296l0,-9.25l9.112,0l-0,9.25l-9.112,0Zm0,-9.25l0,-9.296l9.112,-0l-0,9.296l-9.112,0Zm0,-9.296l0,-9.296l9.112,-0l-0,9.296l-9.112,-0Zm-9.25,46.389l0,-9.297l9.25,0l0,9.297l-9.25,-0Zm0,-9.297l0,-9.25l9.25,0l0,9.25l-9.25,0Zm0,-9.25l0,-9.296l9.25,0l0,9.296l-9.25,0Zm0,-9.296l0,-9.25l9.25,0l0,9.25l-9.25,0Zm0,-9.25l0,-9.296l9.25,-0l0,9.296l-9.25,0Zm0,-9.296l0,-9.296l9.25,-0l0,9.296l-9.25,-0Zm0,-9.296l0,-9.065l9.25,-0l0,9.065l-9.25,-0Zm-9.296,-9.065l0,-9.297l9.296,0l0,9.297l-9.296,-0Zm0,64.75l0,-9.297l9.296,0l0,9.297l-9.296,-0Zm0,-9.297l0,-9.25l9.296,0l0,9.25l-9.296,0Zm0,-9.25l0,-9.296l9.296,0l0,9.296l-9.296,0Zm0,-37.138l0,-9.065l9.296,-0l0,9.065l-9.296,-0Zm-9.25,-9.065l0,-9.297l9.25,0l0,9.297l-9.25,-0Zm0,64.75l0,-9.297l9.25,0l0,9.297l-9.25,-0Zm0,-9.297l0,-9.25l9.25,0l0,9.25l-9.25,0Zm-9.296,-55.453l-0,-9.297l9.296,0l0,9.297l-9.296,-0Zm-0,64.75l-0,-9.297l9.296,0l0,9.297l-9.296,-0Zm-0,-9.297l-0,-9.25l9.296,0l0,9.25l-9.296,0Zm-0,-18.546l-0,-9.25l9.296,0l0,9.25l-9.296,0Zm-0,-9.25l-0,-9.296l9.296,-0l0,9.296l-9.296,0Zm-0,-9.296l-0,-9.296l9.296,-0l0,9.296l-9.296,-0Zm-9.296,-18.361l-0,-9.297l9.296,0l-0,9.297l-9.296,-0Zm9.296,73.815l-0,9.157l-9.296,0l-0,-9.157l9.296,-0Zm-9.296,-0l-0,-9.065l9.296,-0l-0,9.065l-9.296,-0Zm-0,-9.065l-0,-9.297l9.296,0l-0,9.297l-9.296,-0Zm-0,-9.297l-0,-9.25l9.296,0l-0,9.25l-9.296,0Zm-0,-18.546l-0,-9.25l9.296,0l-0,9.25l-9.296,0Zm-0,-9.25l-0,-9.296l9.296,-0l-0,9.296l-9.296,0Zm-0,-9.296l-0,-9.296l9.296,-0l-0,9.296l-9.296,-0Zm-9.065,-18.361l-0,-9.297l9.065,0l-0,9.297l-9.065,-0Zm9.065,73.815l-0,9.157l-9.065,0l-0,-9.157l9.065,-0Zm-9.065,-0l-0,-9.065l9.065,-0l-0,9.065l-9.065,-0Zm-0,-9.065l-0,-9.297l9.065,0l-0,9.297l-9.065,-0Zm-0,-9.297l-0,-9.25l9.065,0l-0,9.25l-9.065,0Zm-0,-18.546l-0,-9.25l9.065,0l-0,9.25l-9.065,0Zm-0,-9.25l-0,-9.296l9.065,-0l-0,9.296l-9.065,0Zm-0,-9.296l-0,-9.296l9.065,-0l-0,9.296l-9.065,-0Zm-9.297,-18.361l0,-9.297l9.297,0l-0,9.297l-9.297,-0Zm9.297,73.815l-0,9.157l-9.297,0l0,-9.157l9.297,-0Zm-9.297,-0l0,-9.065l9.297,-0l-0,9.065l-9.297,-0Zm-9.249,-73.815l-0,-9.297l9.249,0l0,9.297l-9.249,-0Zm9.249,73.815l0,9.157l-9.249,0l-0,-9.157l9.249,-0Zm-9.249,-0l-0,-9.065l9.249,-0l0,9.065l-9.249,-0Zm-9.297,-73.815l0,-9.297l9.297,0l-0,9.297l-9.297,-0Zm0,73.815l0,-9.065l9.297,-0l-0,9.065l-9.297,-0Zm0,-9.065l0,-9.297l9.297,0l-0,9.297l-9.297,-0Zm0,-9.297l0,-9.25l9.297,0l-0,9.25l-9.297,0Zm0,-9.25l0,-9.296l9.297,0l-0,9.296l-9.297,0Zm0,-9.296l0,-9.25l9.297,0l-0,9.25l-9.297,0Zm0,-9.25l0,-9.296l9.297,-0l-0,9.296l-9.297,0Zm0,-9.296l0,-9.296l9.297,-0l-0,9.296l-9.297,-0Zm0,-9.296l0,-9.065l9.297,-0l-0,9.065l-9.297,-0Z" style="fill:#fff;fill-rule:nonzero;"/><path d="M276.204,83.413l0,9.157l-9.25,0l0,-9.157l9.25,-0Zm-9.25,-0l0,-9.065l9.25,-0l0,9.065l-9.25,-0Zm0,-9.065l0,-9.297l9.25,0l0,9.297l-9.25,-0Zm0,9.065l0,9.157l-9.296,0l0,-9.157l9.296,-0Zm-9.296,-0l0,-9.065l9.296,-0l0,9.065l-9.296,-0Zm0,-9.065l0,-9.297l9.296,0l0,9.297l-9.296,-0Zm0,-9.297l0,-9.25l9.296,0l0,9.25l-9.296,0Zm0,18.362l0,9.157l-9.25,0l0,-9.157l9.25,-0Zm-9.25,-0l0,-9.065l9.25,-0l0,9.065l-9.25,-0Zm0,-18.362l0,-9.25l9.25,0l0,9.25l-9.25,0Zm0,18.362l0,9.157l-9.296,0l0,-9.157l9.296,-0Zm-9.296,-0l0,-9.065l9.296,-0l0,9.065l-9.296,-0Zm0,-18.362l0,-9.25l9.296,0l0,9.25l-9.296,0Zm0,18.362l0,9.157l-9.296,0l-0,-9.157l9.296,-0Zm-9.296,-0l-0,-9.065l9.296,-0l0,9.065l-9.296,-0Zm-0,-18.362l-0,-9.25l9.296,0l0,9.25l-9.296,0Zm-0,-9.25l-0,-9.296l9.296,0l0,9.296l-9.296,0Zm-0,-9.296l-0,-9.25l9.296,0l0,9.25l-9.296,0Zm-0,-9.25l-0,-9.296l9.296,-0l0,9.296l-9.296,0Zm-0,-9.296l-0,-9.296l9.296,-0l0,9.296l-9.296,-0Zm-0,-9.296l-0,-9.065l9.296,-0l0,9.065l-9.296,-0Zm-9.065,-9.065l-0,-9.297l9.065,0l-0,9.297l-9.065,-0Zm9.065,73.815l-0,9.157l-9.065,0l-0,-9.157l9.065,-0Zm-9.065,-0l-0,-9.065l9.065,-0l-0,9.065l-9.065,-0Zm-0,-18.362l-0,-9.25l9.065,0l-0,9.25l-9.065,0Zm-0,-9.25l-0,-9.296l9.065,0l-0,9.296l-9.065,0Zm-0,-9.296l-0,-9.25l9.065,0l-0,9.25l-9.065,0Zm-0,-9.25l-0,-9.296l9.065,-0l-0,9.296l-9.065,0Zm-0,-9.296l-0,-9.296l9.065,-0l-0,9.296l-9.065,-0Zm-0,-9.296l-0,-9.065l9.065,-0l-0,9.065l-9.065,-0Zm-9.296,-9.065l-0,-9.297l9.296,0l-0,9.297l-9.296,-0Zm9.296,73.815l-0,9.157l-9.296,0l-0,-9.157l9.296,-0Zm-9.296,-0l-0,-9.065l9.296,-0l-0,9.065l-9.296,-0Zm-9.25,-73.815l-0,-9.297l9.25,0l-0,9.297l-9.25,-0Zm9.25,73.815l-0,9.157l-9.25,0l-0,-9.157l9.25,-0Zm-9.25,-0l-0,-9.065l9.25,-0l-0,9.065l-9.25,-0Zm-9.297,-73.815l0,-9.297l9.297,0l-0,9.297l-9.297,-0Zm0,73.815l0,-9.065l9.297,-0l-0,9.065l-9.297,-0Zm0,-9.065l0,-9.297l9.297,0l-0,9.297l-9.297,-0Zm0,-9.297l0,-9.25l9.297,0l-0,9.25l-9.297,0Zm0,-9.25l0,-9.296l9.297,0l-0,9.296l-9.297,0Zm0,-9.296l0,-9.25l9.297,0l-0,9.25l-9.297,0Zm0,-9.25l0,-9.296l9.297,-0l-0,9.296l-9.297,0Zm0,-9.296l0,-9.296l9.297,-0l-0,9.296l-9.297,-0Zm0,-9.296l0,-9.065l9.297,-0l-0,9.065l-9.297,-0Z" style="fill:#fff;fill-rule:nonzero;"/><path d="M359.362,83.413l-0,9.157l-9.111,0l-0,-9.157l9.111,-0Zm-9.111,-0l-0,-9.065l9.111,-0l-0,9.065l-9.111,-0Zm-0,-9.065l-0,-9.297l9.111,0l-0,9.297l-9.111,-0Zm-0,-9.297l-0,-9.25l9.111,0l-0,9.25l-9.111,0Zm-0,-9.25l-0,-9.296l9.111,0l-0,9.296l-9.111,0Zm-0,-9.296l-0,-9.25l9.111,0l-0,9.25l-9.111,0Zm-0,-9.25l-0,-9.296l9.111,-0l-0,9.296l-9.111,0Zm-0,-9.296l-0,-9.296l9.111,-0l-0,9.296l-9.111,-0Zm-0,55.454l-0,9.157l-9.25,0l-0,-9.157l9.25,-0Zm-9.25,-0l-0,-9.065l9.25,-0l-0,9.065l-9.25,-0Zm-0,-9.065l-0,-9.297l9.25,0l-0,9.297l-9.25,-0Zm-0,-9.297l-0,-9.25l9.25,0l-0,9.25l-9.25,0Zm-0,-9.25l-0,-9.296l9.25,0l-0,9.296l-9.25,0Zm-0,-9.296l-0,-9.25l9.25,0l-0,9.25l-9.25,0Zm-0,-9.25l-0,-9.296l9.25,-0l-0,9.296l-9.25,0Zm-0,-9.296l-0,-9.296l9.25,-0l-0,9.296l-9.25,-0Zm-0,-9.296l-0,-9.065l9.25,-0l-0,9.065l-9.25,-0Zm-9.297,-9.065l0,-9.297l9.297,0l-0,9.297l-9.297,-0Zm9.297,73.815l-0,9.157l-9.297,0l0,-9.157l9.297,-0Zm-9.297,-0l0,-9.065l9.297,-0l-0,9.065l-9.297,-0Zm0,-64.75l0,-9.065l9.297,-0l-0,9.065l-9.297,-0Zm-9.25,-9.065l0,-9.297l9.25,0l0,9.297l-9.25,-0Zm9.25,73.815l0,9.157l-9.25,0l0,-9.157l9.25,-0Zm-9.25,-0l0,-9.065l9.25,-0l0,9.065l-9.25,-0Zm-9.296,-73.815l0,-9.297l9.296,0l0,9.297l-9.296,-0Zm0,73.815l0,-9.065l9.296,-0l0,9.065l-9.296,-0Zm0,-9.065l0,-9.297l9.296,0l0,9.297l-9.296,-0Zm0,-9.297l0,-9.25l9.296,0l0,9.25l-9.296,0Zm0,-18.546l0,-9.25l9.296,0l0,9.25l-9.296,0Zm0,-9.25l0,-9.296l9.296,-0l0,9.296l-9.296,0Zm0,-9.296l0,-9.296l9.296,-0l0,9.296l-9.296,-0Zm-9.296,-18.361l-0,-9.297l9.296,0l0,9.297l-9.296,-0Zm9.296,73.815l0,9.157l-9.296,0l-0,-9.157l9.296,-0Zm-9.296,-0l-0,-9.065l9.296,-0l0,9.065l-9.296,-0Zm-0,-9.065l-0,-9.297l9.296,0l0,9.297l-9.296,-0Zm-0,-9.297l-0,-9.25l9.296,0l0,9.25l-9.296,0Zm-0,-18.546l-0,-9.25l9.296,0l0,9.25l-9.296,0Zm-0,-9.25l-0,-9.296l9.296,-0l0,9.296l-9.296,0Zm-0,-9.296l-0,-9.296l9.296,-0l0,9.296l-9.296,-0Zm-9.065,-18.361l-0,-9.297l9.065,0l-0,9.297l-9.065,-0Zm9.065,73.815l-0,9.157l-9.065,0l-0,-9.157l9.065,-0Zm-9.065,-0l-0,-9.065l9.065,-0l-0,9.065l-9.065,-0Zm-0,-9.065l-0,-9.297l9.065,0l-0,9.297l-9.065,-0Zm-0,-9.297l-0,-9.25l9.065,0l-0,9.25l-9.065,0Zm-0,-18.546l-0,-9.25l9.065,0l-0,9.25l-9.065,0Zm-0,-9.25l-0,-9.296l9.065,-0l-0,9.296l-9.065,0Zm-0,-9.296l-0,-9.296l9.065,-0l-0,9.296l-9.065,-0Zm-9.296,-18.361l-0,-9.297l9.296,0l-0,9.297l-9.296,-0Zm9.296,73.815l-0,9.157l-9.296,0l-0,-9.157l9.296,-0Zm-9.296,-0l-0,-9.065l9.296,-0l-0,9.065l-9.296,-0Zm-9.25,-73.815l-0,-9.297l9.25,0l-0,9.297l-9.25,-0Zm9.25,73.815l-0,9.157l-9.25,0l-0,-9.157l9.25,-0Zm-9.25,-0l-0,-9.065l9.25,-0l-0,9.065l-9.25,-0Zm-0,-64.75l-0,-9.065l9.25,-0l-0,9.065l-9.25,-0Zm-9.297,64.75l0,-9.065l9.297,-0l-0,9.065l-9.297,-0Zm0,-9.065l0,-9.297l9.297,0l-0,9.297l-9.297,-0Zm0,-9.297l0,-9.25l9.297,0l-0,9.25l-9.297,0Zm0,-9.25l0,-9.296l9.297,0l-0,9.296l-9.297,0Zm0,-9.296l0,-9.25l9.297,0l-0,9.25l-9.297,0Zm0,-9.25l0,-9.296l9.297,-0l-0,9.296l-9.297,0Zm0,-9.296l0,-9.296l9.297,-0l-0,9.296l-9.297,-0Zm0,-9.296l0,-9.065l9.297,-0l-0,9.065l-9.297,-0Z" style="fill:#fff;fill-rule:nonzero;"/><path d="M424.297,55.801l-0,-9.296l9.25,0l-0,9.296l-9.25,0Zm-0,-9.296l-0,-9.25l9.25,0l-0,9.25l-9.25,0Zm-0,-9.25l-0,-9.296l9.25,-0l-0,9.296l-9.25,0Zm-0,-9.296l-0,-9.296l9.25,-0l-0,9.296l-9.25,-0Zm-0,-9.296l-0,-9.065l9.25,-0l-0,9.065l-9.25,-0Zm-9.297,-9.065l0,-9.297l9.297,0l-0,9.297l-9.297,-0Zm0,55.453l0,-9.25l9.297,0l-0,9.25l-9.297,0Zm0,-9.25l0,-9.296l9.297,0l-0,9.296l-9.297,0Zm0,-9.296l0,-9.25l9.297,0l-0,9.25l-9.297,0Zm0,-9.25l0,-9.296l9.297,-0l-0,9.296l-9.297,0Zm0,-9.296l0,-9.296l9.297,-0l-0,9.296l-9.297,-0Zm0,-9.296l0,-9.065l9.297,-0l-0,9.065l-9.297,-0Zm-9.25,-9.065l0,-9.297l9.25,0l0,9.297l-9.25,-0Zm9.25,73.815l0,9.157l-9.25,0l0,-9.157l9.25,-0Zm-9.25,-0l0,-9.065l9.25,-0l0,9.065l-9.25,-0Zm0,-9.065l0,-9.297l9.25,0l0,9.297l-9.25,-0Zm0,-9.297l0,-9.25l9.25,0l0,9.25l-9.25,0Zm0,-9.25l0,-9.296l9.25,0l0,9.296l-9.25,0Zm0,-9.296l0,-9.25l9.25,0l0,9.25l-9.25,0Zm-9.296,-36.907l0,-9.297l9.296,0l0,9.297l-9.296,-0Zm9.296,73.815l0,9.157l-9.296,0l0,-9.157l9.296,-0Zm-9.296,-0l0,-9.065l9.296,-0l0,9.065l-9.296,-0Zm0,-9.065l0,-9.297l9.296,0l0,9.297l-9.296,-0Zm0,-9.297l0,-9.25l9.296,0l0,9.25l-9.296,0Zm0,-9.25l0,-9.296l9.296,0l0,9.296l-9.296,0Zm-9.296,-46.203l-0,-9.297l9.296,0l0,9.297l-9.296,-0Zm9.296,73.815l0,9.157l-9.296,0l-0,-9.157l9.296,-0Zm-9.296,-0l-0,-9.065l9.296,-0l0,9.065l-9.296,-0Zm-0,-46.158l-0,-9.296l9.296,-0l0,9.296l-9.296,0Zm-0,-9.296l-0,-9.296l9.296,-0l0,9.296l-9.296,-0Zm-0,-9.296l-0,-9.065l9.296,-0l0,9.065l-9.296,-0Zm-9.065,-9.065l-0,-9.297l9.065,0l-0,9.297l-9.065,-0Zm9.065,73.815l-0,9.157l-9.065,0l-0,-9.157l9.065,-0Zm-9.065,-0l-0,-9.065l9.065,-0l-0,9.065l-9.065,-0Zm-0,-46.158l-0,-9.296l9.065,-0l-0,9.296l-9.065,0Zm-0,-9.296l-0,-9.296l9.065,-0l-0,9.296l-9.065,-0Zm-0,-9.296l-0,-9.065l9.065,-0l-0,9.065l-9.065,-0Zm-9.296,-9.065l-0,-9.297l9.296,0l-0,9.297l-9.296,-0Zm-0,73.815l-0,-9.065l9.296,-0l-0,9.065l-9.296,-0Zm-0,-9.065l-0,-9.297l9.296,0l-0,9.297l-9.296,-0Zm-0,-9.297l-0,-9.25l9.296,0l-0,9.25l-9.296,0Zm-0,-9.25l-0,-9.296l9.296,0l-0,9.296l-9.296,0Zm-9.25,-46.203l-0,-9.297l9.25,0l-0,9.297l-9.25,-0Zm-0,46.203l-0,-9.296l9.25,0l-0,9.296l-9.25,0Zm-0,-9.296l-0,-9.25l9.25,0l-0,9.25l-9.25,0Zm-9.296,-36.907l-0,-9.297l9.296,0l-0,9.297l-9.296,-0Zm-0,36.907l-0,-9.25l9.296,0l-0,9.25l-9.296,0Zm-0,-9.25l-0,-9.296l9.296,-0l-0,9.296l-9.296,0Zm-0,-9.296l-0,-9.296l9.296,-0l-0,9.296l-9.296,-0Zm-0,-9.296l-0,-9.065l9.296,-0l-0,9.065l-9.296,-0Z" style="fill:#fff;fill-rule:nonzero;"/><path d="M516.704,83.413l-0,9.157l-9.111,0l-0,-9.157l9.111,-0Zm-9.111,-0l-0,-9.065l9.111,-0l-0,9.065l-9.111,-0Zm-0,-9.065l-0,-9.297l9.111,0l-0,9.297l-9.111,-0Zm-0,-37.093l-0,-9.296l9.111,-0l-0,9.296l-9.111,0Zm-0,-9.296l-0,-9.296l9.111,-0l-0,9.296l-9.111,-0Zm-0,-9.296l-0,-9.065l9.111,-0l-0,9.065l-9.111,-0Zm-9.25,-9.065l-0,-9.297l9.25,0l-0,9.297l-9.25,-0Zm9.25,73.815l-0,9.157l-9.25,0l-0,-9.157l9.25,-0Zm-9.25,-0l-0,-9.065l9.25,-0l-0,9.065l-9.25,-0Zm-0,-9.065l-0,-9.297l9.25,0l-0,9.297l-9.25,-0Zm-0,-9.297l-0,-9.25l9.25,0l-0,9.25l-9.25,0Zm-0,-9.25l-0,-9.296l9.25,0l-0,9.296l-9.25,0Zm-0,-9.296l-0,-9.25l9.25,0l-0,9.25l-9.25,0Zm-0,-9.25l-0,-9.296l9.25,-0l-0,9.296l-9.25,0Zm-0,-9.296l-0,-9.296l9.25,-0l-0,9.296l-9.25,-0Zm-0,-9.296l-0,-9.065l9.25,-0l-0,9.065l-9.25,-0Zm-9.297,-9.065l0,-9.297l9.297,0l-0,9.297l-9.297,-0Zm9.297,73.815l-0,9.157l-9.297,0l0,-9.157l9.297,-0Zm-9.297,-0l0,-9.065l9.297,-0l-0,9.065l-9.297,-0Zm0,-18.362l0,-9.25l9.297,0l-0,9.25l-9.297,0Zm0,-9.25l0,-9.296l9.297,0l-0,9.296l-9.297,0Zm0,-9.296l0,-9.25l9.297,0l-0,9.25l-9.297,0Zm0,-9.25l0,-9.296l9.297,-0l-0,9.296l-9.297,0Zm0,-9.296l0,-9.296l9.297,-0l-0,9.296l-9.297,-0Zm-9.249,-18.361l-0,-9.297l9.249,0l0,9.297l-9.249,-0Zm9.249,73.815l0,9.157l-9.249,0l-0,-9.157l9.249,-0Zm-9.249,-0l-0,-9.065l9.249,-0l0,9.065l-9.249,-0Zm-0,-18.362l-0,-9.25l9.249,0l0,9.25l-9.249,0Zm-0,-9.25l-0,-9.296l9.249,0l0,9.296l-9.249,0Zm-0,-18.546l-0,-9.296l9.249,-0l0,9.296l-9.249,0Zm-0,-9.296l-0,-9.296l9.249,-0l0,9.296l-9.249,-0Zm-9.297,-18.361l0,-9.297l9.297,0l-0,9.297l-9.297,-0Zm9.297,73.815l-0,9.157l-9.297,0l0,-9.157l9.297,-0Zm-9.297,-0l0,-9.065l9.297,-0l-0,9.065l-9.297,-0Zm0,-18.362l0,-9.25l9.297,0l-0,9.25l-9.297,0Zm0,-9.25l0,-9.296l9.297,0l-0,9.296l-9.297,0Zm0,-18.546l0,-9.296l9.297,-0l-0,9.296l-9.297,0Zm0,-9.296l0,-9.296l9.297,-0l-0,9.296l-9.297,-0Zm-9.296,-18.361l0,-9.297l9.296,0l0,9.297l-9.296,-0Zm9.296,73.815l0,9.157l-9.296,0l0,-9.157l9.296,-0Zm-9.296,-0l0,-9.065l9.296,-0l0,9.065l-9.296,-0Zm0,-18.362l0,-9.25l9.296,0l0,9.25l-9.296,0Zm0,-9.25l0,-9.296l9.296,0l0,9.296l-9.296,0Zm0,-18.546l0,-9.296l9.296,-0l0,9.296l-9.296,0Zm0,-9.296l0,-9.296l9.296,-0l0,9.296l-9.296,-0Zm-9.065,-18.361l0,-9.297l9.065,0l0,9.297l-9.065,-0Zm9.065,73.815l0,9.157l-9.065,0l0,-9.157l9.065,-0Zm-9.065,-0l0,-9.065l9.065,-0l0,9.065l-9.065,-0Zm0,-18.362l0,-9.25l9.065,0l0,9.25l-9.065,0Zm0,-9.25l0,-9.296l9.065,0l0,9.296l-9.065,0Zm0,-18.546l0,-9.296l9.065,-0l0,9.296l-9.065,0Zm0,-9.296l0,-9.296l9.065,-0l0,9.296l-9.065,-0Zm-9.296,-18.361l-0,-9.297l9.296,0l0,9.297l-9.296,-0Zm9.296,73.815l0,9.157l-9.296,0l-0,-9.157l9.296,-0Zm-9.296,-0l-0,-9.065l9.296,-0l0,9.065l-9.296,-0Zm-9.25,-73.815l-0,-9.297l9.25,0l-0,9.297l-9.25,-0Zm9.25,73.815l-0,9.157l-9.25,0l-0,-9.157l9.25,-0Zm-9.25,-0l-0,-9.065l9.25,-0l-0,9.065l-9.25,-0Zm-9.296,-73.815l-0,-9.297l9.296,0l-0,9.297l-9.296,-0Zm-0,73.815l-0,-9.065l9.296,-0l-0,9.065l-9.296,-0Zm-0,-9.065l-0,-9.297l9.296,0l-0,9.297l-9.296,-0Zm-0,-9.297l-0,-9.25l9.296,0l-0,9.25l-9.296,0Zm-0,-9.25l-0,-9.296l9.296,0l-0,9.296l-9.296,0Zm-0,-9.296l-0,-9.25l9.296,0l-0,9.25l-9.296,0Zm-0,-9.25l-0,-9.296l9.296,-0l-0,9.296l-9.296,0Zm-0,-9.296l-0,-9.296l9.296,-0l-0,9.296l-9.296,-0Zm-0,-9.296l-0,-9.065l9.296,-0l-0,9.065l-9.296,-0Z" style="fill:#fff;fill-rule:nonzero;"/><path d="M600,83.413l0,9.157l-9.111,0l-0,-9.157l9.111,-0Zm-9.111,-0l-0,-9.065l9.111,-0l0,9.065l-9.111,-0Zm-0,-9.065l-0,-9.297l9.111,0l0,9.297l-9.111,-0Zm-0,-9.297l-0,-9.25l9.111,0l0,9.25l-9.111,0Zm-0,-9.25l-0,-9.296l9.111,0l0,9.296l-9.111,0Zm-0,-9.296l-0,-9.25l9.111,0l0,9.25l-9.111,0Zm-0,-9.25l-0,-9.296l9.111,-0l0,9.296l-9.111,0Zm-0,-9.296l-0,-9.296l9.111,-0l0,9.296l-9.111,-0Zm-0,55.454l-0,9.157l-9.25,0l-0,-9.157l9.25,-0Zm-9.25,-0l-0,-9.065l9.25,-0l-0,9.065l-9.25,-0Zm-0,-9.065l-0,-9.297l9.25,0l-0,9.297l-9.25,-0Zm-0,-9.297l-0,-9.25l9.25,0l-0,9.25l-9.25,0Zm-0,-9.25l-0,-9.296l9.25,0l-0,9.296l-9.25,0Zm-0,-9.296l-0,-9.25l9.25,0l-0,9.25l-9.25,0Zm-0,-9.25l-0,-9.296l9.25,-0l-0,9.296l-9.25,0Zm-0,-9.296l-0,-9.296l9.25,-0l-0,9.296l-9.25,-0Zm-0,-9.296l-0,-9.065l9.25,-0l-0,9.065l-9.25,-0Zm-9.296,-9.065l-0,-9.297l9.296,0l-0,9.297l-9.296,-0Zm9.296,73.815l-0,9.157l-9.296,0l-0,-9.157l9.296,-0Zm-9.296,-0l-0,-9.065l9.296,-0l-0,9.065l-9.296,-0Zm-0,-36.908l-0,-9.25l9.296,0l-0,9.25l-9.296,0Zm-0,-27.842l-0,-9.065l9.296,-0l-0,9.065l-9.296,-0Zm-9.25,-9.065l-0,-9.297l9.25,0l-0,9.297l-9.25,-0Zm9.25,73.815l-0,9.157l-9.25,0l-0,-9.157l9.25,-0Zm-9.25,-0l-0,-9.065l9.25,-0l-0,9.065l-9.25,-0Zm-9.297,-73.815l0,-9.297l9.297,0l-0,9.297l-9.297,-0Zm0,73.815l0,-9.065l9.297,-0l-0,9.065l-9.297,-0Zm0,-9.065l0,-9.297l9.297,0l-0,9.297l-9.297,-0Zm0,-9.297l0,-9.25l9.297,0l-0,9.25l-9.297,0Zm0,-9.25l0,-9.296l9.297,0l-0,9.296l-9.297,0Zm0,-18.546l0,-9.296l9.297,-0l-0,9.296l-9.297,0Zm0,-9.296l0,-9.296l9.297,-0l-0,9.296l-9.297,-0Zm-9.296,-18.361l0,-9.297l9.296,0l0,9.297l-9.296,-0Zm9.296,73.815l0,9.157l-9.296,0l0,-9.157l9.296,-0Zm-9.296,-0l0,-9.065l9.296,-0l0,9.065l-9.296,-0Zm0,-9.065l0,-9.297l9.296,0l0,9.297l-9.296,-0Zm0,-9.297l0,-9.25l9.296,0l0,9.25l-9.296,0Zm0,-9.25l0,-9.296l9.296,0l0,9.296l-9.296,0Zm0,-18.546l0,-9.296l9.296,-0l0,9.296l-9.296,0Zm0,-9.296l0,-9.296l9.296,-0l0,9.296l-9.296,-0Zm-9.065,-18.361l0,-9.297l9.065,0l0,9.297l-9.065,-0Zm9.065,73.815l0,9.157l-9.065,0l0,-9.157l9.065,-0Zm-9.065,-0l0,-9.065l9.065,-0l0,9.065l-9.065,-0Zm0,-9.065l0,-9.297l9.065,0l0,9.297l-9.065,-0Zm0,-9.297l0,-9.25l9.065,0l0,9.25l-9.065,0Zm0,-9.25l0,-9.296l9.065,0l0,9.296l-9.065,0Zm0,-18.546l0,-9.296l9.065,-0l0,9.296l-9.065,0Zm0,-9.296l0,-9.296l9.065,-0l0,9.296l-9.065,-0Zm-9.296,-18.361l-0,-9.297l9.296,0l0,9.297l-9.296,-0Zm9.296,73.815l0,9.157l-9.296,0l-0,-9.157l9.296,-0Zm-9.296,-0l-0,-9.065l9.296,-0l0,9.065l-9.296,-0Zm-9.25,-73.815l-0,-9.297l9.25,0l-0,9.297l-9.25,-0Zm9.25,73.815l-0,9.157l-9.25,0l-0,-9.157l9.25,-0Zm-9.25,-0l-0,-9.065l9.25,-0l-0,9.065l-9.25,-0Zm-9.296,-73.815l-0,-9.297l9.296,0l-0,9.297l-9.296,-0Zm-0,73.815l-0,-9.065l9.296,-0l-0,9.065l-9.296,-0Zm-0,-9.065l-0,-9.297l9.296,0l-0,9.297l-9.296,-0Zm-0,-9.297l-0,-9.25l9.296,0l-0,9.25l-9.296,0Zm-0,-9.25l-0,-9.296l9.296,0l-0,9.296l-9.296,0Zm-0,-9.296l-0,-9.25l9.296,0l-0,9.25l-9.296,0Zm-0,-9.25l-0,-9.296l9.296,-0l-0,9.296l-9.296,0Zm-0,-9.296l-0,-9.296l9.296,-0l-0,9.296l-9.296,-0Zm-0,-9.296l-0,-9.065l9.296,-0l-0,9.065l-9.296,-0Z" style="fill:#fff;fill-rule:nonzero;"/></g></svg>