<svg clip-rule="evenodd" fill-rule="evenodd" stroke-linejoin="round" stroke-miterlimit="2" viewBox="0 0 600 250" xmlns="http://www.w3.org/2000/svg"><g fill="#fff"><path d="m542.065 73.743c-.232-1.856-1.587-3.376-3.404-3.818-3.03-.599-8.182-1.384-14.799-1.384-6.878 0-12.255.807-15.373 1.427-1.802.426-3.15 1.927-3.38 3.764-.101.676-.166 1.198-.166 1.198h37.27s-.064-.515-.148-1.187z"/><path d="m520.641 163.752h6.839v34.703h-6.839z"/><g fill-rule="nonzero"><path d="m482.89 153.018h82.344v9.055h-82.344z"/><path d="m588.819 141.197c-5.046-.612-11.714.255-15.973 2.917l1.138 6.586c4.186-3.892 11.64-5.489 16.006-3.577z"/><path d="m575.024 151.755c-.331.355-.401.343-.008-.003-.785.692-1.412 1.403-1.9 2.061-2.138 2.877-3.125 6.762-2.546 9.886.589 3.191 2.427 9.513 6.647 10.071l.173.011h.01c.357 0 1.04-.247 1.04-.247.149-.092.278-.214.379-.361.972-1.418-.857-4.881-1.152-5.51-1.338-2.852-1.345-6.643.192-9.425 1.289-2.333 3.548-3.506 6.223-3.985 2.692-.482 5.451.155 7.358 2.183 2.2 2.347 2.734 5.734 2.875 8.766.075 1.608-1.183 4.374.788 5.573.472.369 1.216.293 1.711.047 3.794-1.887 3.375-8.446 2.845-11.647-.645-3.919-4.069-9.187-9.912-10.771l-.318-.081c-.144-.033-.287-.07-.432-.1-.267-.056-.538-.102-.811-.142l-.206-.029c-.267-.035-.535-.063-.803-.08-.035-.002-.071-.008-.106-.01-.625-.039-1.264-.04-1.914.003l-.216.016c-.24.02-.481.043-.723.071l-.272.036c-.306.043-.611.089-.919.151l-.033.006c-.347.048-.688.106-1.022.172l-.327.072c-.233.05-.463.103-.688.163-.127.033-.251.067-.375.103-.198.056-.39.119-.585.179l-.391.132c-.249.089-.498.18-.739.287-.09.04-.183.077-.271.118-.243.106-.485.22-.719.342-.104.052-.202.106-.301.16-.038.021-.642.363-.816.476-.257.161-.508.331-.755.51-.046.033-.09.066-.136.102-.258.193-.754.606-.754.606zm2.729 21.974c.008-.015.021-.026.033-.037.005-.004.012-.007.018-.01.001 0 .015-.004.014.003-.003.028-.045.037-.065.044-.082.025-.082.025-.166.037-.035.006-.07.012-.106.015-.027.002-.108-.002-.081 0 .09.01.183.01.272-.01.029-.006.065-.015.081-.042z"/></g><path d="m588.966 139.847c.47.08.949-.075 1.285-.414.335-.339.485-.82.4-1.289-.752-4.266-2.492-13.94-3.33-18.603-.311-1.727-.875-3.398-1.673-4.96-2.383-4.658-7.493-14.673-10.086-19.963-3.799-7.745-7.825-11.672-11.965-11.672h-4.296c.09.511.19 1.052.303 1.616 1.042 5.203 7.203 39.751 10.345 57.402.077.428.354.793.745.983.391.189.849.179 1.232-.027 4.521-2.243 11.213-3.848 17.04-3.073zm-5.572-19.074c-7.398-.956-13.508 4.298-13.567 4.325-1.285.576-1.817-1.021-.388-2.168 0 0 5.492-5.243 14.192-4.204 1.756.209 1.406 2.259-.237 2.047z"/><path d="m458.667 141.197c5.046-.612 11.714.255 15.973 2.917l-1.138 6.586c-4.186-3.892-11.64-5.489-16.006-3.577z" fill-rule="nonzero"/><path d="m472.462 151.755c.331.355.401.343.009-.003.785.692 1.411 1.403 1.899 2.061 2.138 2.877 3.125 6.762 2.546 9.886-.589 3.191-2.427 9.513-6.647 10.071l-.172.011h-.001-.009c-.357 0-1.04-.247-1.04-.247-.149-.092-.279-.214-.38-.361-.972-1.418.857-4.881 1.152-5.51 1.338-2.852 1.345-6.643-.192-9.425-1.289-2.333-3.548-3.506-6.222-3.985-2.693-.482-5.452.155-7.359 2.183-2.2 2.347-2.733 5.734-2.875 8.766-.075 1.608 1.183 4.374-.787 5.573-.473.369-1.217.293-1.712.047-3.793-1.887-3.375-8.446-2.845-11.647.645-3.919 4.069-9.187 9.912-10.771l.318-.081c.144-.033.287-.07.432-.1.268-.056.538-.102.812-.142l.205-.029c.267-.035.535-.063.803-.08.036-.002.071-.008.106-.01.626-.039 1.264-.04 1.914.003l.216.016c.24.02.481.043.724.071l.271.036c.306.043.611.089.919.151l.033.006c.347.048.689.106 1.023.172l.327.072c.232.05.462.103.687.163.127.033.251.067.376.103.197.056.389.119.584.179l.391.132c.249.089.498.18.739.287.091.04.183.077.272.118.242.106.484.22.719.342.103.052.202.106.3.16.038.021.643.363.817.476.256.161.508.331.754.51.046.033.09.066.136.102.258.193.754.606.754.606zm-2.729 21.974c-.008-.015-.021-.026-.033-.037-.005-.004-.012-.007-.018-.01-.001 0-.014-.004-.014.003.004.028.045.037.065.044.082.025.082.025.166.037.035.006.07.012.106.015.027.002.109-.002.082 0-.091.01-.184.01-.273-.01-.029-.006-.065-.015-.081-.042z" fill-rule="nonzero"/><path d="m458.52 139.847c-.47.08-.949-.075-1.285-.414-.335-.339-.484-.82-.4-1.289.752-4.266 2.492-13.94 3.33-18.603.311-1.727.875-3.398 1.674-4.96 2.382-4.658 7.492-14.673 10.085-19.963 3.799-7.745 7.825-11.672 11.965-11.672h4.296c-.09.511-.19 1.052-.303 1.616-1.042 5.203-7.203 39.751-10.345 57.402-.077.428-.353.793-.745.983-.391.189-.849.179-1.232-.027-4.521-2.243-11.213-3.848-17.04-3.073zm5.572-19.074c7.398-.956 13.509 4.298 13.567 4.325 1.285.576 1.818-1.021.389-2.168 0 0-5.493-5.243-14.193-4.204-1.756.209-1.406 2.259.237 2.047z"/><path d="m487.905 35.53c-3.423-31.304 39.933-50.048 64.957-21.297 1.963 2.255.527 2.379 2.13 5.324 5.9 4.087 4.612 9.052 4.792 10.117 1.394 8.253-4.003 17.82-6.454 25.122-.041.135-.173.221-.314.205-.14-.016-.249-.13-.26-.271-.226-3.192-.429-5.219-.432-6.909.011-.54-.391-.999-.927-1.059-2.211-.301-3.727-8.633-2.794-16.556.238-2.023-1.024-2.509-1.71-3.064-.462-.38-1.071-.528-1.655-.402-6.592 1.339-29.509 5.364-41.36 2.401-1.732-.433-2.324 1.041-3.42 1.487-.477.192-.784.659-.77 1.173.029 3.658-.105 15.451-4.684 14.599-.173-.029-.35.019-.484.133-.134.113-.211.28-.211.455-.014 1.696-.014 5.661-.014 8.007 0 .186-.127.349-.307.393-.181.045-.369-.039-.455-.203-1.682-4.076-5-13.913-5.628-19.655zm60.545-19.868c.109.059.162.187.124.306s-.155.194-.278.178c-8.587-1.224-12.346.356-21.523 4.476-9.931 4.459-16.131 3.386-21.663-.644-.083-.063-.106-.177-.055-.268.051-.09.162-.128.258-.089 4.868 1.878 12.186 3.263 20.297-.596 7.58-3.607 14.812-7.585 22.84-3.363zm-8.988-8.942c.112.052.166.18.125.296-.042.116-.165.182-.284.15-7.709-.967-7.657-1.318-15.857 1.743-9.391 3.505-13.246.416-20.76 1.809-.119.021-.236-.049-.274-.164-.037-.115.015-.241.123-.295 5.757-2.92 10.422.556 17.849-2.415 8.182-3.273 11.874-4.654 19.078-1.124z"/><path d="m494.257 57.144v2.995c0 4.237 3.767 9.311 9.393 10.62.443.096.898-.104 1.125-.497.009.005.009.005.009.005.438-.756 1.159-1.309 2.003-1.535 2.561-.594 8.708-1.788 17.075-1.788 8.067 0 13.955 1.167 16.47 1.773.868.241 1.609.807 2.07 1.581.139.219.253.41.308.503.022.037.064.055.105.047 5.877-1.16 9.821-6.368 9.821-10.711v-3.401c-.901-.183-1.582-.946-1.65-1.878 0 0 0-.001 0-.002-.207-2.914-.391-4.874-.429-6.489-.415-.156-.823-.421-1.204-.818-.491-.512-.974-1.314-1.372-2.375-1.212-3.229-1.831-9.307-1.141-15.175.075-.642-.247-.885-.511-1.073-.199-.141-.389-.272-.553-.405-.004-.003-.007-.006-.011-.009-.043-.035-.099-.049-.153-.037-.007.001-.014.003-.021.004-6.717 1.364-30.069 5.402-42.143 2.384-.2-.05-.331.023-.448.107-.175.127-.336.273-.5.412-.33.28-.67.535-1.036.731.008 2.914-.175 9.477-1.819 12.958-.848 1.798-2.062 2.902-3.567 3.117-.009 1.955-.009 4.91-.009 6.803.003 1.003-.679 1.878-1.653 2.12-.053.013-.106.024-.159.033zm21.34-2.446c1.891.332 11.893 1.065 17.749-3.727 1.588-1.299.703 3.046 0 4.259-5.856 10.116-16.505 3.727-18.39 1.709-1.042-1.116-1.379-2.596.641-2.241zm15.699-14.376c1.815 0 3.288 1.472 3.288 3.288 0 1.815-1.473 3.287-3.288 3.287s-3.287-1.472-3.287-3.287c0-1.816 1.472-3.288 3.287-3.288zm-15.699 0c1.815 0 3.287 1.472 3.287 3.288 0 1.815-1.472 3.287-3.287 3.287-1.816 0-3.288-1.472-3.288-3.287 0-1.816 1.472-3.288 3.288-3.288z"/><path d="m521.016 226.141h-40.543l-.733 19.32h41.276zm-40.483-1.598h40.483v-24.491h-1.946v-36.3h-36.232z" fill-rule="nonzero"/><path d="m567.647 226.141h-40.539v19.32h41.27zm-.061-1.598-2.303-60.791h-36.232v36.3h-1.943v24.491z" fill-rule="nonzero"/><path d="m522.964 113.431v37.886h-41.818c-.477 0-.934-.189-1.272-.527-.337-.337-.527-.795-.527-1.272v-3.691c0-1.045.091-2.087.272-3.115 1.682-9.552 10.591-60.134 10.591-60.134 1.133-6.583 5.971-6.516 5.971-6.516h10.706zm17.636-37.369h10.7s4.841-.067 5.974 6.516c0 0 8.91 50.578 10.593 60.132.181 1.03.272 2.073.272 3.118v3.977c0 .401-.159.786-.443 1.07-.283.283-.668.442-1.069.442h-42.105v-37.886zm-30.581 46.255h-23.427l-1.597 10.116h26.621zm50.581 0h-23.427l-1.597 10.116h26.621zm-1.516 1.774 1.036 6.567h-22.467s1.037-6.567 1.037-6.567zm-50.581 0 1.036 6.567h-22.467s1.037-6.567 1.037-6.567zm15.901-36.795c-.124.388-.455.674-.858.74-.402.065-.808-.101-1.048-.431-2.637-3.584-8.446-11.543-8.446-11.543h19.382s-6.69 5.809-9.03 11.234z" fill-rule="nonzero"/><path d="m442.298 126.073c-2.194 17.401-13.921 49.554-20.124 62.34-16.645 34.499-39.039 60.903-82.087 60.903-23 0-41.914-7.263-52.959-21.41-15.949 14.066-36.536 21.773-57.801 21.637-16.645 0-31.322-4.766-42.519-13.618-14.083 9.254-30.666 13.98-47.512 13.543-14.354.3-28.442-3.938-40.249-12.105-13.889 8.485-30.056 12.501-46.302 11.499-30.791-.756-52.126-20.275-52.732-48.646-.756-37.677 31.019-106.675 45.923-130.507 9.96-17.701 28.868-28.58 49.177-28.295 22.697 0 31.019 6.506 35.029 14.753 17.552-14.829 40.778-15.737 57.347-15.737 18.157 0 29.657 4.842 39.417 12.635 14.337-8.411 30.742-12.657 47.36-12.256 23.454 0 40.93 5.447 53.111 17.476 14.713-11.755 33.153-17.875 51.975-17.25 26.329 0 43.654 9.533 53.792 23.681 14.374 19.973 11.802 40.097 9.154 61.357zm-13.391-18.233c-.757 14.828-5.523 33.288-9.684 45.696-16.796 49.782-36.239 80.725-81.254 80.725-13.24 0-36.769-3.556-45.394-27.161l-2.118-5.523-3.632 4.615c-13.8 17.692-34.986 28.103-57.423 28.22-17.174.076-31.019-5.674-39.871-16.644l-2.496-3.026-2.572 2.875c-9.533 10.591-26.177 16.644-45.621 16.644-13.852.552-27.317-4.751-37.071-14.602l-2.27-2.572-2.497 2.497c-9.684 9.684-24.815 14.601-43.88 14.147-23.227-.529-37.299-13.467-37.753-34.575-.756-32.532 30.792-101 43.881-121.806 6.988-13.029 20.778-21.039 35.558-20.654 10.592 0 17.779 2.194 22.016 6.734 3.934 4.085 4.691 7.565 4.993 15.963l.454 10.819 5.75-9.155c13.845-22.318 36.693-25.344 59.466-25.344 15.736 0 29.506 5.75 35.029 14.753l2.042 3.329 3.026-2.497c13.183-10.448 29.639-15.915 46.453-15.434 19.898 0 34.424 4.918 43.048 14.753 1.968 2.194 3.254 3.783 5.069 7.566l2.27 4.615 3.253-3.935c12.75-15.029 31.754-23.357 51.446-22.545 16.947 0 29.809 4.539 38.282 13.391 10.592 11.197 12.105 26.858 11.5 38.055zm-160.466-9.533c-6.734 0-11.046 4.237-14.375 8.776-7.112 10.138-22.697 50.463-25.118 67.031-1.589 11.349 3.253 13.618 8.625 13.618 8.625 0 18.233-9.078 21.562-24.058 0 0-16.417-.378-11.878-14.904 4.388-14.072 12.71-17.099 26.48-17.704 27.16-1.135 24.436 18.914 22.318 29.657-7.112 34.726-31.775 62.568-66.728 62.568-23.908 0-38.812-13.24-38.812-37.601 0-17.401 8.625-44.637 15.51-60.676 14.525-34.046 29.808-57.726 68.619-57.726 23.378 0 41.763 8.322 39.039 30.262-1.967 15.964-9.987 25.421-24.588 26.48-4.086.378-20.73 0-15.207-15.888 1.967-5.523 2.724-9.835-5.447-9.835zm-121.655 60.147c-2.712 7.549-5.061 15.224-7.036 22.999 7.813-2.26 15.927-3.306 24.058-3.102 11.576.303 19.066 5.069 19.066 14.677 0 23.302-25.723 30.111-43.654 30.187-19.595 0-36.844-11.197-36.844-32.608 0-25.193 13.618-63.324 26.479-88.668 15.661-31.246 31.776-35.332 59.39-35.332 12.105 0 26.102 5.145 26.102 16.645 0 15.887-13.467 21.94-26.783 22.696-5.749.379-14.526.681-19.746.303 0 0-4.463 6.809-9.154 18.838 24.739-3.48 35.18 2.119 31.019 16.418-5.674 19.292-22.394 20.578-42.897 16.947zm268.427-31.398c-4.085 20.427-13.315 44.637-23.377 62.643-16.342 29.506-36.24 33.592-53.641 33.365-17.325-.227-36.92-6.582-37.071-33.365-.076-19.216 8.247-46.377 15.283-64.156 12.256-32.305 24.815-58.558 64.458-58.104 46.151.53 37.98 41.611 34.348 59.542zm-347.185 53.792c24.21-4.237 30.262 4.539 29.506 12.559-2.27 24.21-24.513 29.657-43.881 29.203-13.92-.303-26.555-6.734-26.933-23-.605-28.446 28.446-94.267 42.065-116.056 6.355-10.365 13.996-15.509 26.252-15.509 11.651 0 14.526 6.052 14.375 13.164-.454 18.989-31.246 76.942-41.384 99.563zm314.199-73.992c-.454 12.332-18.535 61.735-24.966 72.63-2.799 4.691-5.901 8.625-11.576 8.625-4.917 0-7.187-3.556-7.338-7.566-.303-11.121 20.124-66.955 27.16-76.034 3.027-4.842 6.507-5.599 10.516-5.523 5.826 0 6.356 4.237 6.204 7.868z"/></g></svg>