<svg clip-rule="evenodd" fill-rule="evenodd" stroke-linejoin="round" stroke-miterlimit="2" viewBox="0 0 600 206" xmlns="http://www.w3.org/2000/svg"><g fill="#fff"><path d="m227.974 5.132h-39.245l1.476.897c.034.033 3.796 2.336 6.09 3.854 2.101 1.393 2.891 2.34 2.891 6.83v16.784l-28.978-28.373.009.008-45.563-.008c-1.355 0-2.79.835-2.857.868l-.462.269.322.446c.008.008 1.017 1.381 1.6 2.308.451.703.694 1.191.773 3.042l-.011 35.371.019.269c-.115 7.446-3.423 11.225-10.424 11.225-7.116 0-10.729-3.91-10.729-11.572l-.017-35.293c.061-1.851.322-2.339.765-3.042.591-.927 1.596-2.3 1.613-2.308l.322-.446-.468-.269c-.07-.033-1.512-.868-2.868-.868l-29.135.008 1.485.897c.036.025 3.787 2.316 6.115 3.854 2.096 1.382 2.886 2.328 2.886 6.83v28.569c0 6.289.756 11.354 2.171 14.629 1.025 2.337 2.625 4.578 4.908 6.864 5.95 5.863 13.447 8.704 22.924 8.704 13.161 0 23.473-5.95 27.591-15.879 1.597-3.857 2.127-7.323 2.127-13.76v-29.127c0-4.502.801-5.448 2.893-6.83 1.25-.823 2.903-1.857 4.169-2.647 1.174.782 2.684 1.799 3.762 2.589 2.014 1.468 2.97 2.952 2.97 7.451v45.65c0 4.473-.807 5.42-2.83 6.664-2.207 1.353-6.516 3.847-6.541 3.863l-1.583.914h39.369l-1.589-.914c-.045-.016-4.412-2.535-6.524-3.863-1.964-1.244-2.833-2.261-2.833-6.664v-27.536l42.081 41.218v-59.895c0-4.465.756-5.378 2.891-6.838 2.328-1.58 6.611-3.804 6.664-3.83l1.771-.913z"/><path d="m511.787 5.132h-39.248l1.468.897c.042.033 3.796 2.336 6.09 3.854 2.101 1.393 2.891 2.34 2.891 6.83v16.784l-28.969-28.365h-23.056l1.381.897c.037.016 3.564 2.316 5.595 3.796 2.017 1.468 2.964 2.952 2.964 7.451v45.65c0 4.473-.81 5.42-2.824 6.664-2.216 1.353-6.508 3.847-6.55 3.863l-1.591.914h39.377l-1.589-.914c-.044-.016-4.403-2.535-6.516-3.863-1.98-1.244-2.84-2.261-2.84-6.664v-27.536l42.088 41.218v-59.895c0-4.457.74-5.378 2.886-6.838 2.328-1.58 6.608-3.804 6.661-3.83z"/><path d="m290.795 70.335c-.008-.016-1.022-1.398-1.613-2.328-.521-.815-.835-1.51-.835-4.359l-.009-18.685c0-2.824.261-3.353.79-4.197.591-.93 1.6-2.311 1.608-2.319l.339-.451-.504-.269c-.053-.037-1.347-.715-2.79-.86v.017c-.381-.017-29.491-.017-29.491-.017l1.485.902s4.337 2.658 6.281 3.857c1.902 1.199 2.877 2.572 2.877 6.682v10.172c-2.199.694-4.457 1.005-7.149 1.005-11.867 0-17.896-6.401-17.896-19.058 0-12.049 6.6-18.971 18.103-18.971 7.202 0 14.777 1.667 24.011 8.617l-.045-.496-2.118-20.041-.148-1.485-1.451-.339-1.398-.322c-6.169-1.423-8.575-1.807-12.248-2.266-2.154-.261-3.328-.401-6.048-.401 0 0-.771-.008-1.163-.008-21.683 0-37.424 15.178-37.424 36.068 0 20.571 15.819 35.511 37.623 35.511 3.804 0 11.155-.703 15.775-1.658.879-.191 1.372-.323 2.067-.468.14-.045.297-.079.454-.115 2.614-.616 5.256-1.286 7.939-2.11l3.387-1.05z"/><path d="m541.286 29.995c-.93-.235-1.877-.46-2.807-.686l-.261-.054c-6.575-1.554-10.883-2.787-10.883-5.611 0-.955.26-1.703.843-2.25 1.154-1.173 3.577-1.823 6.802-1.823.538 0 1.092.025 1.65.07.07 0 .137 0 .199.008.12.009.235.025.339.034 5.958.521 13.065 3.109 20.352 7.959l-1.129-20.442-1.336-.451-.252-.079c-.104-.042-.877-.302-3.155-.798-1.364-.306-8.399-1.824-12.62-2.121-1.365-.104-2.72-.157-3.998-.157-15.419 0-24.454 7.315-25.417 20.608-.488 6.645 2.779 13.133 8.323 16.503 4.933 2.997 12.29 5.264 17.677 6.914l1.232.375c3.354 1.034 7.236 3.118 6.707 7.149-.269 2.101-1.104 4.362-7.427 4.362-.913 0-1.919-.045-3.022-.148-4.379-.384-9.478-2.877-15.125-7.385-.224-.182-.409-.339-.538-.417l-3.502-2.651-3.594-2.725 1.431 25.921 1.365.443.235.095c.05.009.79.252 3.143.782 2.328.512 9.982 1.84 13.873 2.12 1.261.096 2.555.146 3.824.146 16.859 0 27.961-8.382 28.291-21.361.314-12.491-6.827-20.683-21.22-24.33z"/><path d="m337.548 57.55h-15.705v-10.139s14.307-.008 14.705-.008c1.921-.025 4.006-.07 5.196.521 1.381.661 2.345 2.084 2.362 2.093l.695 1.053-.026-22.187-.582.347c-.017.008-.947.583-1.746.93-.703.286-1.182.426-4.333.426h-16.271v-8.645h16.296c4.185 0 5.098.375 7.488 2.059l4.031 3.084-2.129-21.952h-55.432l1.477.897c.036.033 3.798 2.336 6.082 3.854 2.092 1.401 2.893 2.356 2.893 6.83v46.204c0 4.544-.694 5.351-2.823 6.673-2.121 1.311-6.488 3.847-6.525 3.863l-1.58.914h57.471l5.144-23.115s-4.631 3.345-5.95 4.16c-2.564 1.572-4.561 2.138-10.738 2.138z"/><path d="m433.023 39.621c0 20.447-16.288 35.866-37.876 35.866-21.733 0-37.5-14.889-37.5-35.399 0-20.839 15.688-35.953 37.31-35.953 21.7 0 38.066 15.254 38.066 35.486zm-19.935 0c0-11.338-7.186-18.669-18.305-18.669-10.668 0-17.296 7.331-17.296 19.136 0 11.388 7.004 18.756 17.845 18.756 10.449 0 17.756-7.906 17.756-19.223z"/><path d="m75.991 39.584c0 8.054-2.63 15.977-7.219 21.7-2.023 2.546-4.516 4.83-7.435 6.793-6.872 4.586-13.195 6.29-23.35 6.29h-36.208l1.546-.894c0-.02 4.483-2.633 6.57-3.894 2.005-1.205 2.832-2.387 2.832-6.67v-39.96c0-4.387-1.208-5.611-2.928-6.844-8.931-6.516-9.695-13.996-9.712-14.306l-.087-1.001.832.555c.036.02 3.006 1.93 6.289 2.687 3.824.877 9.054 1.022 20.067 1.022h13.917v.062c6.942.277 12.032 1.546 17.027 4.16 11.181 5.866 17.859 17.184 17.859 30.3zm-20.128.182c0-11.343-5.846-17.859-16.044-17.859h-7.782v35.634h7.782c10.198 0 16.044-6.491 16.044-17.775z"/><path d="m550.152 87.617h-39.253l1.476.897c.034.025 3.788 2.336 6.099 3.846 2.092 1.401 2.882 2.348 2.882 6.838v16.772l-28.978-28.361v.008h-23.047l1.373.885c.033.028 3.56 2.328 5.594 3.808 2.006 1.467 2.961 2.952 2.961 7.451v45.649c0 4.474-.806 5.421-2.812 6.665-2.208 1.353-6.516 3.846-6.57 3.863l-1.563.914h39.352l-1.572-.914c-.045-.025-4.412-2.535-6.524-3.863-1.973-1.244-2.833-2.261-2.833-6.665v-27.535l42.089 41.209v-59.886c0-4.465.748-5.379 2.883-6.838 2.328-1.58 6.611-3.804 6.664-3.83z"/><path d="m578.769 112.48c-.939-.236-1.886-.46-2.807-.687l-.252-.053c-6.592-1.555-10.901-2.787-10.901-5.611 0-.955.278-1.703.841-2.258 1.165-1.165 3.571-1.815 6.802-1.815.54 0 1.103.025 1.65.07h.218c.112.017.219.033.331.042 5.958.521 13.074 3.109 20.36 7.959l-1.145-20.442-1.339-.451-.241-.087c-.107-.034-.88-.294-3.138-.79-1.373-.306-8.418-1.824-12.629-2.129-1.373-.104-2.728-.149-4.006-.149-15.427 0-24.445 7.315-25.417 20.607-.488 6.645 2.787 13.133 8.303 16.504 4.936 2.997 12.31 5.255 17.688 6.914l1.233.375c3.37 1.034 7.245 3.118 6.715 7.149-.286 2.101-1.104 4.362-7.435 4.362-.913 0-1.913-.045-3.023-.149-4.361-.383-9.46-2.877-15.116-7.384-.227-.191-.409-.339-.538-.417l-3.493-2.651-3.606-2.725 1.435 25.921 1.339.443.26.095c.051.008.799.252 3.143.773 2.328.521 9.982 1.849 13.881 2.129 1.253.096 2.538.146 3.824.146 16.843 0 27.953-8.382 28.284-21.361.322-12.491-6.828-20.683-21.221-24.33z"/><path d="m389.127 149.884c-.521-.815-.84-1.529-.84-4.367v-18.686c0-2.823.252-3.356.79-4.196.583-.93 1.597-2.303 1.605-2.311l.347-.46-.509-.269c-.062-.036-1.356-.714-2.799-.86v.026c-.381-.026-29.491-.026-29.491-.026l1.485.911s4.342 2.642 6.289 3.866c1.894 1.19 2.866 2.543 2.866 6.67v10.175c-2.196.694-4.446 1.014-7.132 1.014-11.884 0-17.901-6.427-17.901-19.067 0-12.057 6.591-18.962 18.094-18.962 7.208 0 14.792 1.641 24.017 8.6l-.042-.496-2.121-20.041-.165-1.477-1.432-.339-1.409-.33c-6.166-1.423-8.572-1.799-12.231-2.267-2.163-.26-3.342-.392-6.062-.392 0 0-.765-.008-1.163-.008-21.674 0-37.424 15.167-37.424 36.068 0 20.571 15.828 35.511 37.623 35.511 3.813 0 11.153-.703 15.775-1.667.877-.182 1.381-.322 2.067-.487.149-.034.294-.059.451-.096 2.608-.624 5.256-1.294 7.94-2.109l3.389-1.051-.4-.557c-.017-.017-1.026-1.381-1.617-2.32z"/><path d="m470.94 122.164c0 20.442-16.279 35.861-37.867 35.861-21.734 0-37.5-14.889-37.5-35.398 0-20.832 15.679-35.965 37.309-35.965 21.7 0 38.058 15.262 38.058 35.502zm-19.927 0c0-11.334-7.186-18.657-18.313-18.657-10.676 0-17.313 7.323-17.313 19.12 0 11.396 7.029 18.761 17.868 18.761 10.444 0 17.758-7.912 17.758-19.224z"/><path d="m131.01 118.744v-13.31c0-4.387-1.216-5.611-2.936-6.844-8.931-6.516-9.679-13.996-9.704-14.307l-.087-1 .835.555c.025.02 3.006 1.93 6.289 2.687 3.813.876 9.052 1.022 20.059 1.022h13.923v.062c6.942.277 12.032 1.546 17.027 4.16 11.189 5.866 17.867 17.184 17.867 30.3 0 8.054-2.63 15.977-7.225 21.7-2.025 2.546-4.518 4.83-7.438 6.793-6.871 4.586-13.203 6.29-23.349 6.29h-35.867l.029-.058.106-.213 1.072-.623c.009-.02 4.483-2.633 6.559-3.894 2.005-1.205 2.84-2.387 2.84-6.67v-4.518c4.104-4.126 10.682-4.688 14.221-1.98 1.511 1.155 3.598 1.134 5.081-.014v1.144h7.782c5.112 0 9.132-1.63 11.87-4.676.778-.328 1.457-.893 1.924-1.649.453-.734.654-1.565.616-2.383 1.082-2.527 1.645-5.567 1.645-9.067 0-11.343-5.855-17.859-16.055-17.859h-7.782v13.775c-.615-.047-1.233-.071-1.855-.071-1.064 0-2.149.089-3.204.234l-.025-.11c-.483-1.913-2.242-3.226-4.214-3.143-3.702.154-7.082 1.701-10.004 3.667z"/><path d="m327.488 152.257 5.855 4.595h-36.217s3.076-2.945 4.457-4.396c1.199-1.261 1.815-2.51.922-4.647-.202-.522-.617-1.651-1.121-3.085h-25.098c-.501 1.381-.91 2.493-1.171 3.085-1.017 2.484-.79 3.188.625 4.527 1.538 1.484 5.317 4.507 5.317 4.507l-37.987.009-17.428-21.022-.05-.054-.028-.042c-1.894-2.597-3.326-4.073-4.645-4.77-.174-.096-.496-.208-1.079-.339v14.777c0 4.345.827 5.135 2.875 6.698 2.103 1.608 8.236 4.752 8.236 4.752h-40.498s6.194-3.466 8.113-4.769c1.79-1.207 2.858-2.269 2.858-6.681v-46.117c0-4.275-.93-5.603-2.883-6.819-2.025-1.26-6.115-3.84-6.115-3.84l-1.435-.914s31.135-.008 32.967-.008c6.332.095 8.861.289 12.38 1.356 8.477 2.44 13.732 9.494 13.732 18.4 0 4.143-1.173 7.989-3.37 11.118-1.641 2.44-3.849 4.463-6.367 5.881 7.244 9.684 12.97 16.895 16.494 20.769.236-.409 20.972-50.487 20.972-50.487.07-.356.112-.678.112-.947 0-.356 0-.773-1.042-1.72l-4.9-4.465h27.294s22.726 57.636 22.891 57.984h-.017c.633 1.434.815 1.72 1.468 2.711.972 1.443 1.311 1.936 3.883 3.953zm-31.95-23.958-6.248-17.027-6.782 17.027zm-64.397-20.937c0-3.544-2.311-5.914-8.981-5.942l-2.32.019v16.139c.972.017 1.947.017 2.295.017 4.395 0 9.006-.972 9.006-10.233z"/><path d="m163.748 179.681c0 9.886-9.833 17.601-20.972 16.026 2.841 2.651 9.721 4.449 13.388 2.791-2.093 3.787-12.169 9.155-21.674 6.636-8.895-2.373-12.803-10.875-13.03-16.279-4.205 4.205-3.067 11.057-.07 13.769-3.474-.905-8.704-4.51-9.589-10.981-.748-5.558 2.345-11.909-3.457-17.016-3.468-3.051-8.741-7.41-12.153-10.097-7.16-5.602-4.448-9.72-6.056-12.682-1.233-2.283-4.239-3.569-6.037-5.656-1.816-2.101-1.746-5.219-.729-7.009-.305 2.502 1.485 4.37 3.866 5.16 2.639.869 4.863.149 7.113 1.46 2.712 1.563 1.451 5.793 3.415 7.298 1.762 1.328 6.157-.435 9.911 2.588 3.771 3.023 12.214 10.049 15.854 13.046 6.541 5.388 13.29-.756 11.048-6.922 6.645 3.936 7.377 14.94 1.852 18.781 5.202 1.182 14.593-1.149 14.593-8.687 0-4.614-4.256-7.87-7.298-8.382 10.676-1 20.025 6.488 20.025 16.156zm-68.445-11.363c-3.829 6.491-11.855 14.873-20.022 14.873-15.054 0-22.604-21.266-5.821-38.708-.947-.305-1.866-.35-2.188-.35-1.417 0-2.807.376-3.717 1l-7.43 6.376 2.096-10.379c.129-.356.26-.706.406-1.053-3.726 1.896-7.34 4.51-8.729 6.02l-6.724 7.323.678-10.329.46-2.275c.347-1.608.764-3.613.512-4.266-.086-.199-.243-.356-.434-.493-3.118 2.406-11.595 9.894-12.595 21.022 0 0 1.65-2.337 3.093-2.886.947-.364 1.77.107.868 2.886-.347 1.084-8.6 23.403 7.617 38.847 0 0-1.779-4.527-.703-5.917.521-.658 1.199-.72 2.154.479.687.928 1.409 1.816 2.199 2.684v.017l.009-.008c1.336 1.529 2.815 2.972 4.421 4.213 4.846 3.387 11.441 6.124 18.937 6.124 19.971 0 30.561-13.682 36.466-25.261-.269-.33-.468-.669-.832-.991-3.022-2.659-7.401-6.289-10.721-8.948zm-43.772-46.1c.653-2.564-4.421-6.931-6.306-7.749 6.959-.277 10.424 1.025 10.424 1.025-1.815-2.675-2.406-6.776-1.373-10.015 3.796 9.094 17.355 10.553 20.72 18.111-.479-3.266-3.555-6.913-7.124-9.051-1.919-4.961-.488-14.1 1.849-16.61-.816 13.136 17.92 20.65 21.823 30.189-2.286-8.175-11.024-13.344-15.178-18.252-1.362-3.241-.303-8.749 1.173-10.626-.442 8.791 9.052 15.655 14.134 20.571 5.967 5.794 7.67 10.912 6.863 15.097 1.303.35 3.11 1.617 2.804 3.771 1.914-.443 3.858-2.642 4.32-3.978.936 6.524-2.902 13.438-7.194 15.497 0 0 1.165-3.118-.807-5.499-1.938-2.353-7.418-2.389-9.287-2.241 0 0 2.284-3.378 1.373-5.09-1.112-2.11-11.858-1.191-16.663.557 1.634-.176 5.516.258 6.864.824-.757 1.121-2.729 5.855-1.303 7.272 1.303 1.295 3.014-.966 3.014-.966s-1.678 5.185-.487 6.384c1.207 1.191 3.779.348 3.779.348-1.597 4.048-7.852 6.855-12.206 6.855 1.555-.496 4.127-3.283 4.519-4.933-1.146.563-4.126.893-5.283.686 1.417-.574 4.249-4.23 3.353-8.306-1.275-5.967-9.606-6.724-13.778-3.838 1.348-4.015 5.396-7.766 8.576-8.993-1.849-.65-4.032-1.199-6.368-1.613 2.659-2.183 9.348-3.962 12.752-3.771-5.194-1.348-14.707.322-19.058 5.471 1.381 0 4.978.678 6.368 1.112-5.987 1.087-14.108 6.645-16.515 9.27.633-3.457 1.608-6.376.782-8.46-1.146-2.911-4.698-4.155-11.789-2.695 4.788-4.777 14.568-7.749 15.229-10.354zm89.136 6.533c-14.924.72-27.712 13.368-34.332 22.316 1.182.4 2.373.947 3.555 1.885 1.381 1.112 3.404 2.762 5.586 4.569 1.771-3.908 5.757-11.813 11.873-18.825 5.586-6.393 15.315-7.009 20.414-3.11 3.286-2.978 14.612-5.768 20.579-4.073-3.622-3.953-11.354-9.25-19.885-9.25-7.034 0-11.012 3.457-12.029 1.902-1.294-1.981 4.76-4.925 4.76-4.925-8.315.347-14.352 10.11-16.87 8.911-1.502-.731 2.241-5.454 2.241-5.454-7.601 4.412-13.968 13.766-15.288 19.458 6.993-8.558 20.571-14.699 29.396-13.404zm-48.098 6.115-.653-2.121c-.07-.224-1.711-5.401-7.244-7.434l-3.023-1.121.877 3.101c.756 2.659 2.154 7.575 7.827 7.575zm-42.167-23.846c-.286-2.241-.132-4.543.529-6.611l2.92-9.093 3.667 8.807c1.067 2.564 3.316 4.429 5.983 6.133-.235-4.23.522-8.928 2.034-12.161-.313-6.819 4.404-11.918 10.032-11.918 9.634 0 12.214 11.657 7.741 20.005 2.075 3.127 5.238 6.029 8.034 8.548 1 .904 1.947 1.756 2.782 2.554.26.269.398.505.658.765 4.188-5.673 7.253-13.578 7.253-19.554 0-12.388-8.051-23.882-24.798-24.784-10.626-.566-17.8 2.709-23.143 8.158-2.415 2.473-7.793 8.712-6.768 20.005.392 4.255 1.815 7.227 3.076 9.146z"/></g></svg>