<svg clip-rule="evenodd" fill-rule="evenodd" stroke-linejoin="round" stroke-miterlimit="2" viewBox="0 0 600 22" xmlns="http://www.w3.org/2000/svg"><g fill="#fff" fill-rule="nonzero"><path d="m333.159 4.988c3.477 0 6.372.12 9.866.411-.137.394-.977 2.689-1.045 2.912h-20.195c.154-.428.977-2.689 1.062-2.895 3.786-.308 6.783-.428 10.312-.428zm11.733-4.265c-3.152-.308-6.064-.514-10.14-.514-4.077 0-7.143.206-10.5.514-2.501.223-4.95.514-7.279.891l-.103.017-6.954 19.115h7.365s2.792-7.69 2.878-7.93h20.176c-.171.479-2.877 7.93-2.877 7.93h7.348l6.937-19.081-.222-.051c-2.056-.36-4.299-.668-6.629-.891"/><path d="m465.607 15.712c-3.597.291-7.331.428-11.099.428-3.717 0-7.297-.137-10.62-.428.172-.446 3.649-10.072 3.734-10.295 3.563-.291 7.297-.428 11.082-.428 3.751 0 7.331.137 10.637.411-.154.463-3.649 10.089-3.734 10.311zm5.858 3.802.12-.017 6.475-17.831-.223-.051c-2.056-.36-4.299-.668-6.646-.891-3.46-.342-7.125-.514-10.893-.514-3.751 0-7.554.172-11.254.514-2.517.223-4.967.514-7.279.891l-.12.017-6.475 17.848.223.034c2.073.36 4.299.668 6.629.891 3.477.325 7.142.496 10.911.496 3.751 0 7.554-.171 11.253-.496 2.501-.223 4.95-.531 7.279-.891"/><path d="m126.72 4.988c3.484 0 6.372.12 9.86.411-.137.394-.967 2.689-1.046 2.912h-20.181c.152-.428.98-2.689 1.052-2.895 3.783-.308 6.784-.428 10.314-.428zm11.728-4.265c-3.145-.308-6.067-.514-10.139-.514-4.066 0-7.132.206-10.491.514-2.514.223-4.96.514-7.283.891l-.108.017-6.94 19.115h7.35s2.793-7.69 2.881-7.93h20.178c-.176.479-2.882 7.93-2.882 7.93h7.348l6.937-19.081-.223-.051c-2.055-.36-4.282-.668-6.628-.891"/><path d="m83.967 15.695c-3.624.308-7.398.445-11.21.445-3.726 0-7.295-.137-10.635-.428.175-.463 5.688-15.656 5.688-15.656h-7.352l-7.046 19.424.224.034c2.056.36 4.289.668 6.634.891 3.474.325 7.143.497 10.897.497 3.761 0 7.551-.172 11.262-.497 2.499-.223 4.946-.531 7.284-.891l.11-.017 1.692-4.676-.319.051c-2.242.343-4.674.617-7.229.823"/><path d="m295.788.725c-3.46-.343-7.125-.514-10.894-.514-3.768 0-7.554.171-11.27.514-2.501.222-4.95.514-7.28.89l-.102.018-1.696 4.676.325-.052c2.227-.342 4.659-.634 7.228-.839 2.347-.189 4.865-.308 7.434-.377-.189.514-5.789 15.929-5.789 15.929h7.365s5.686-15.672 5.772-15.929c2.587.051 5.053.188 7.314.377 2.398.205 4.625.497 6.611.839l.172.017 1.678-4.607-.24-.052c-2.038-.359-4.282-.668-6.628-.89"/><path d="m245.141.725c-3.46-.343-7.125-.514-10.894-.514-3.768 0-7.554.171-11.27.514-2.501.222-4.95.514-7.28.89l-.102.018-4.06 11.184h29.067c-.154.429-.976 2.69-1.045 2.895-3.597.291-7.314.428-11.099.428-3.802 0-7.468-.137-10.876-.445-2.398-.206-4.625-.48-6.629-.822l-.154-.035-1.679 4.642.223.035c2.055.359 4.299.668 6.629.89 3.477.326 7.142.497 10.893.497 3.768 0 7.554-.171 11.271-.497 2.5-.222 4.95-.531 7.279-.89l.12-.018 4.059-11.184h-29.083c.171-.429.993-2.69 1.062-2.895 3.545-.291 7.279-.428 11.082-.428 3.853 0 7.502.137 10.893.428 2.398.205 4.625.497 6.611.839l.172.017 1.678-4.607-.222-.052c-2.073-.359-4.3-.668-6.646-.89"/><path d="m189.18 7.625c-2.535.189-4.522.326-7.246.394.12-.394.566-1.815.566-1.815h-7.349s-.479 1.541-.548 1.781c-2.312-.069-5.172-.188-7.142-.36.154-.445 2.689-7.416 2.689-7.416h-7.349l-4.059 11.168.223.034c2.038.359 4.282.668 6.629.908 2.055.188 4.967.325 7.279.411-.154.462-2.98 8.238-2.98 8.238h7.348s2.895-7.964 2.98-8.187c2.792-.068 5.344-.223 8.017-.462 2.535-.24 4.504-.549 6.8-.908l.119-.017 4.06-11.185h-7.348s-2.604 7.176-2.69 7.416"/><path d="m525.069.725c-3.477-.343-7.143-.514-10.911-.514-3.649 0-7.349.171-10.945.497.051-.172.205-.6.205-.6h-7.347l-7.537 20.742h7.348s5.515-15.21 5.601-15.432c3.563-.291 7.297-.428 11.082-.428 3.768 0 7.331.137 10.637.411-.155.479-5.601 15.45-5.601 15.45h7.347l6.972-19.184-.223-.051c-2.056-.36-4.282-.668-6.629-.891"/><path d="m599.777 1.611c-2.038-.359-4.282-.668-6.628-.89-3.46-.343-7.143-.514-10.894-.514-3.768 0-7.553.171-11.27.514-2.501.222-4.95.513-7.28.89l-.103.017-1.712 4.676.342-.051c2.227-.342 4.659-.634 7.211-.839 3.597-.291 7.366-.428 11.22-.428 3.751 0 7.313.137 10.636.411-.154.411-.976 2.689-1.062 2.911h-22.13l-1.627 4.505h22.13c-.154.428-.976 2.689-1.062 2.895-3.58.291-7.314.428-11.082.428-3.803 0-7.485-.137-10.893-.445-2.398-.206-4.625-.48-6.612-.822l-.154-.035-1.679 4.642.223.034c2.055.36 4.282.668 6.628.891 3.477.325 7.143.497 10.894.497 3.768 0 7.553-.172 11.27-.497 2.501-.223 4.951-.531 7.28-.891l.12-.017 6.457-17.83z"/><path d="m395.591.725c-3.477-.343-7.143-.514-10.911-.514s-7.554.171-11.253.514c-2.518.222-4.967.514-7.279.89l-.12.018-1.696 4.676.325-.052c2.244-.342 4.676-.634 7.228-.839 2.364-.189 4.865-.308 7.451-.377-.205.514-5.789 15.929-5.789 15.929h7.349s5.686-15.672 5.789-15.929c2.569.051 5.035.188 7.297.377 2.398.205 4.624.497 6.629.839l.154.017 1.678-4.607-.222-.052c-2.056-.359-4.282-.668-6.629-.89"/><path d="m409.691 20.969h7.349l7.536-20.742h-7.348z"/><path d="m33.834 7.987c-3.28.205-7.339.325-12.074.325h-9.754c.151-.428.974-2.689 1.048-2.895 3.556-.291 7.286-.428 11.084-.428 3.754 0 7.324.137 10.636.411-.142.394-.865 2.398-.94 2.587zm9.429-6.372c-2.055-.36-4.285-.668-6.634-.891-3.47-.343-7.135-.514-10.897-.514-3.667 0-7.965.291-10.806.48l-.454.034c-2.287.154-6.689.548-9.361.908l-1.6 4.419c.771-.051 1.73-.103 2.003-.103-.19.514-5.514 15.176-5.514 15.176h7.35s2.929-8.068 3.018-8.308h9.844c15.251 0 19.468-1.318 19.644-1.37l.086-.034 3.547-9.746z"/></g></svg>