<svg clip-rule="evenodd" fill-rule="evenodd" stroke-linejoin="round" stroke-miterlimit="2" viewBox="0 0 600 130" xmlns="http://www.w3.org/2000/svg"><g fill="#fff"><path d="m417.233 88.93v-37.293c0-7.608 3.551-13.056 11.124-13.056h46.713c.285 0 .561-.283.561-.564v-7.42c-.003-.066-.017-.13-.043-.19h-57.117c-12.38 1.574-18.428 10.202-18.428 21.23v37.292c0 7.607-3.65 13.055-11.121 13.055h-49.332c-.28 0-.561.19-.561.564v7.421c0 .309.189.545.41.622h56.011c14.596-.383 21.783-9.703 21.783-21.661z"/><path d="m225.318 110.591h16.401c.253-.099.418-.348.411-.619v-23.767c0-7.608 4.297-12.869 10.558-12.869h67.557c15.23 0 22.613-9.393 22.613-21.699 0-11.028-6.041-19.656-18.428-21.23h-99.415c-.029.063-.078.111-.078.19v7.42c0 .375.187.564.56.564h89.047c7.57 0 11.12 5.448 11.12 13.056 0 7.609-3.55 13.057-11.12 13.057h-70.452c-10.932 0-19.155 9.301-19.155 21.511v23.768c-.001.305.131.541.381.618z"/><path d="m475.357 101.987h89.703c.275 0 .462.187.462.376v7.609c0 .375.284.563.559.563h16.169c.286 0 .559-.188.559-.563v-7.421c0-.283.286-.564.561-.564h16.069c.374 0 .561-.282.561-.562v-7.516c0-.284-.187-.564-.561-.564h-16.069c-.275 0-.561-.283-.561-.562v-54.202c0-4.422-1.643-7.239-4.407-8.174h-4.678c-1.458.375-3.043 1.046-4.743 2.067l-96.613 59.65c-3.739 2.347-5.049 4.976-4.113 6.949.747 1.692 2.891 2.914 7.102 2.914zm89.45-56.469c-.215-.001-.432.073-.594.202 0 0-74.842 46.309-74.842 46.309-.36.214-.554.427-.583.681-.009.082-.002.168.022.26.022.048.058.097.111.143.149.13.432.232.913.232h75.226c.275 0 .561-.28.561-.562v-46.311c0-.678-.403-.952-.814-.954z"/><path d="m62.671.471c7.288 1.359 14.452 3.3 21.582 5.323 4.077 1.184 8.145 2.41 12.186 3.715 6.348 2.021 12.668 4.311 18.417 7.724 2.575 1.564 5.049 3.331 7.162 5.486 2.29 2.248 4.166 4.882 5.542 7.782 2.507 5.235 3.365 11.084 3.619 16.834.119 3.752.112 7.537-.59 11.241-.582 3.218-1.617 6.392-3.339 9.188-1.52 2.468-3.634 4.604-6.2 5.98-2.46 1.326-5.277 1.958-8.068 1.902-4.232.044-8.339-1.305-12.137-3.074-.07-12.631-.012-25.266-.03-37.895-.026-2.285.129-4.594-.332-6.849-.325-1.746-1.037-3.507-2.409-4.692-.908-.82-2.088-1.283-3.272-1.533-1.198-.228-2.476.281-3.217 1.243-1.233 1.54-1.557 3.585-1.613 5.502-.01 33.817.013 67.635-.01 101.449-9.098-2.883-18.195-5.77-27.291-8.66-.009-40.222-.005-80.443 0-120.666z"/><path d="m21.782 86.047c11.86-4.199 23.708-8.44 35.573-12.624.019 4.656 0 9.314.007 13.974-.007.632.033 1.267-.046 1.895-9.378 3.324-18.739 6.707-28.107 10.052-1.299.492-2.631 1.047-3.633 2.038-.466.466-.847 1.154-.592 1.819.321.785 1.122 1.213 1.861 1.535 2.056.837 4.303.956 6.492 1.056 2.441-.039 4.893-.222 7.283-.749 1.616-.319 3.172-.863 4.712-1.441 4.003-1.45 8.007-2.908 12.017-4.342.028 3.939.005 7.88.012 11.824-.012.788.036 1.58-.042 2.364-4.924.884-9.907 1.484-14.912 1.564-10.079.227-20.181-1.333-29.755-4.483-3.139-.909-6.259-2.121-8.881-4.114-1.444-1.117-2.735-2.522-3.392-4.25-.55-1.464-.51-3.154.176-4.566.66-1.41 1.815-2.522 3.086-3.388 2.941-2.031 6.187-3.582 9.474-4.963 2.836-1.206 5.774-2.147 8.667-3.201z"/><path d="m117.21 80.742c2.69-.311 5.397-.384 8.102-.481 8.895.033 17.838 1.139 26.348 3.809 1.669.508 3.287 1.166 4.95 1.695 2.966 1.083 5.935 2.397 8.308 4.53 1.426 1.3 2.657 3.053 2.673 5.053.084 1.63-.652 3.193-1.71 4.393-2.01 2.255-4.668 3.805-7.335 5.156-2.84 1.448-5.893 2.382-8.872 3.485-18.179 6.528-36.361 13.053-54.536 19.589-.004-5.094.005-10.185-.004-15.272.027-.204-.083-.559.203-.612 13.832-4.921 27.661-9.856 41.491-14.792 1.87-.699 3.885-1.205 5.471-2.473.649-.51 1.285-1.321.967-2.197-.333-.765-1.126-1.188-1.857-1.505-2.07-.82-4.324-.978-6.526-1.041-3.448.024-6.925.448-10.205 1.554-9.852 3.453-19.685 6.948-29.54 10.389.001-5.468-.004-10.932.002-16.399 7.128-2.502 14.573-4.019 22.07-4.881z"/></g></svg>