<svg clip-rule="evenodd" fill-rule="evenodd" stroke-linejoin="round" stroke-miterlimit="2" viewBox="0 0 600 192" xmlns="http://www.w3.org/2000/svg"><g fill="#fff"><path d="m138.75 146.395c.009-.448.063-2.1.413-2.976.402-1.005 1.611-1.96 1.622-1.969l40.54.025c-.021.016 1.162 1.079 1.504 2.013.301.825.428 2.452.46 2.907z"/><path d="m141.055 138.79c-2.032-2.821-3.086-6.833-2.818-10.748.244-3.625 2.528-7.325 4.363-10.298.24-.39.475-.771.698-1.138h35.899c1.617 2.561 4.329 7.506 4.611 12.24.22 3.763-.703 7.016-2.822 9.944z"/><path d="m143.424 114.057c-.228-.01-.675-.287-.995-.715-.242-.327-.499-.851-.338-1.488.362-1.54 1.662-1.877 2.133-1.877h34.387c.471 0 1.775.337 2.133 1.874.163.639-.093 1.163-.336 1.49-.319.429-.768.706-1 .716-.125.002-2.584.002-5.806.002 0 0-30.049 0-30.178-.002z"/><path d="m144.472 107.65c-7.461-10.188-11.195-52.525 6.003-65.357 4.012-2.997 9.594-4.786 14.929-4.786 2.03 0 3.946.269 5.541.78l.072.022.049-.057c.853-.989 1.842-1.885 3.109-2.814 2.615 2.281 2.038 3.662 1.476 4.998-.118.285-.236.568-.323.854l-.027.09.083.044c.859.45 3.008 1.875 4.424 5.378 1.53 3.777 6.178 9.415 9.749 11.828 3.909 2.639 2.907 4.59 1.522 7.291-1.392 2.715-3.298 4.644-3.651 4.988-.889-.459-1.481-.921-2.054-1.369-.763-.594-1.482-1.156-2.804-1.663-1.011-.389-2.216-.586-3.582-.586-1.615 0-3.42.27-5.366.802-.768.21-1.496.317-2.16.317-4.892 0-5.237-5.537-5.26-6.168-.03-.799-.539-1.231-1.004-1.231-.46 0-1.009.41-1.04 1.562-.301 11.334 8.142 23.4 16.132 29.839l-1.909 15.238z"/><path d="m83.079 21.362c-7.569-13.477-20.308-21.047-35.816-21.047-21.047 0-40.986 13.478-40.986 36.001 0 19.385 14.401 28.432 30.278 35.263l9.6 4.061c12.001 4.985 24.001 11.447 24.001 26.401 0 14.585-10.708 27.139-25.662 27.139-14.955 0-27.14-11.077-26.955-26.4l-17.539 3.692c2.954 22.339 20.493 38.955 43.017 38.955 24.923 0 44.493-18.093 44.493-43.386 0-23.262-14.769-34.155-34.524-41.909l-9.969-3.877c-8.678-3.323-19.386-9.046-19.386-19.939 0-12.185 12.185-19.754 23.263-19.754 10.523 0 17.169 4.431 22.339 13.108l13.846-8.308z" fill-rule="nonzero"/><path d="m116.301 71.579h16.247v-15.508h-16.247v-33.047h-16.615v33.047h-9.047v15.508h9.047v70.894h16.615z" fill-rule="nonzero"/><path d="m234.183 130.657c-17.539 0-27.324-15.138-27.324-31.385 0-16.062 10.154-31.016 27.324-31.016 17.908 0 28.062 14.215 28.062 31.016 0 16.985-9.969 31.385-28.062 31.385zm43.755-74.586h-16.616v14.4h-.369c-6.831-10.339-17.17-16.985-29.909-16.985-25.108 0-40.801 21.601-40.801 45.232 0 24.739 14.954 46.709 41.355 46.709 12.37 0 22.708-6.646 29.355-16.431h.369v13.477h16.616z" fill-rule="nonzero"/><path d="m311.16 71.579h16.247v-15.508h-16.247v-33.047h-16.616v33.047h-9.046v15.508h9.046v70.894h16.616z" fill-rule="nonzero"/><path d="m407.05 102.041v-2.584c0-25.663-12.923-45.971-40.431-45.971-27.878 0-42.094 19.939-42.094 46.524 0 25.478 16.062 45.417 42.463 45.417 16.8 0 31.939-8.677 40.062-23.631l-14.031-7.939c-6.277 10.339-13.108 16.8-25.847 16.8-15.877 0-25.847-13.846-26.031-28.616zm-64.986-12.554c2.031-12.37 11.631-21.601 24.555-21.601 13.292 0 21.785 8.678 23.816 21.601z" fill-rule="nonzero"/><path d="m455.206 130.657c-17.539 0-27.324-15.138-27.324-31.385 0-16.062 10.154-31.016 27.324-31.016 17.908 0 28.062 14.215 28.062 31.016 0 16.985-9.969 31.385-28.062 31.385zm43.755-74.586h-16.616v14.769h-.369c-6.831-10.708-17.17-17.354-30.093-17.354-24.924 0-40.617 21.601-40.617 45.232 0 24.739 14.77 46.709 41.355 46.709 12.185 0 22.709-6.646 29.355-16.431h.369v16.431c0 17.724-4.246 31.755-24.739 31.755-15.139 0-25.847-8.862-25.847-24.37h-16.616c.37 24.37 17.724 39.139 41.725 39.139 33.601 0 42.093-21.416 42.093-51.139z" fill-rule="nonzero"/><path d="m545.168 127.703-33.971 64.248h18.832l69.971-135.88h-18.647l-27.139 54.832-29.17-54.832h-19.385z" fill-rule="nonzero"/></g><path d="m241.352 105.864c-.66-.861-1.566-1.871-2.547-2.457 0 0-.001-.001-.001-.001-1.414-.843-4.202-1.438-4.973-1.565-1.538-.252-3.08.421-3.94 1.72 0 0-6.899 10.226-9.95 31.582-3.037 21.252.778 32.734.778 32.734.495 1.537 1.875 2.619 3.486 2.734.75.054 3.412.15 4.824-.171 0 0 .001 0 .002-.001 1.024-.233 2.387-1.038 3.272-1.615 3.67 3.281 7.976 5.091 13.122 5.506h.001c5.832.469 12.304-1.694 16.419-3.478.18.243.382.478.606.699 0 0 .001 0 .001.001.998.982 2.683 2.005 4.915 1.756 2.421-.248 3.961-1.464 4.903-2.765.428.024.861-.021 1.283-.139 2.531-.706 4.892-1.431 7.179-2.133 10.769-3.305 19.165-6.305 40.105-4.756.052 1.644.127 2.862.16 3.397.006.091.013.198.013.198l.003-.093c.034.493.231 1.801 1.028 3.197 1.077 1.887 3.176 4.02 6.535 4.18 4.565.236 7.495-2.572 8.537-4.009.4-.551.637-1.062.776-1.469l9.417.907c.494.048.985.001 1.45-.13.08.041.162.079.246.114 2.822 2.568 12.62 11.47 14.547 13.079 1.852 1.547 4.771 3.4 7.946 3.854 7.264 1.038 13.967-3.951 14.983-11.062l.228-1.594c2.717-.235 5.028-2.158 5.719-4.795.258.123.532.218.817.282.167.038.336.064.504.079-.025.136-.041.274-.05.413-.086 1.329.502 2.612 1.564 3.414 2.05 1.548 4.473 2.557 7.031 2.923 2.601.371 5.248.064 7.672-.887 1.219-.478 2.123-1.529 2.414-2.806.038-.166.065-.334.08-.502.183.037.369.06.558.069 1.292.062 2.533-.511 3.324-1.535 1.537-1.99 2.536-4.349 2.892-6.842.355-2.483.058-5.025-.86-7.369-.477-1.216-1.523-2.119-2.796-2.413-.162-.037-.324-.064-.486-.08.029-.153.049-.308.059-.465.088-1.316-.486-2.589-1.53-3.395-2.07-1.598-4.537-2.64-7.157-3.015-2.524-.36-5.085-.087-7.423.785-1.232.46-2.156 1.501-2.465 2.779-.037.155-.065.311-.083.467-.182-.04-.368-.065-.556-.077-.295-.019-.588-.005-.874.042l.021-.152c.43-3.002-1.317-5.863-4.086-6.938l.228-1.595c1.016-7.111-4.021-13.776-11.286-14.814-3.183-.455-6.499.509-8.708 1.476-2.316 1.011-14.667 6.934-18.092 8.556-.351-.195-.734-.337-1.138-.418l-9.339-1.878c-.03-.517-.142-1.235-.449-2.055-.715-1.908-2.574-4.954-6.678-5.924-3.038-.73-5.764.611-7.452 2.115-1.198 1.067-1.839 2.253-2.082 2.845l.055-.188s-.036.085-.068.158c-.193.459-.678 1.625-1.282 3.396-21.694-4.613-28.794-9.594-38.915-16.039-1.467-.935-2.98-1.898-4.58-2.891-.392-.243-.818-.413-1.258-.506-.558-1.473-1.695-3.005-3.885-3.896-2.066-.86-3.975-.352-5.209.312l-.456.273-.276-.239c-3.792-3.303-8.612-7.254-13.659-8.346-5.171-1.119-10.691-.545-15.114 1.456z"/><path d="m241.863 110.032c3.849-2.133 8.989-2.789 13.766-1.755 4.428.958 8.569 4.564 11.897 7.462.434.379.857.748 1.266 1.098 0 0-5.484 10.106-7.5 24.214-2.023 14.16.393 25.528.393 25.528-3.456 1.641-10.054 4.279-15.942 3.806-4.675-.377-8.515-2.142-11.732-5.398 0 0-3.642-9.865-1.053-27.984 2.608-18.253 8.905-26.971 8.905-26.971zm-8.672-4.285c.552.091 2.571.454 3.585 1.059 1.166.696 2.118 2.427 2.128 2.444 0 0-6.071 7.107-8.97 27.321-2.882 20.097.977 28.415.977 28.415-.016-.03-1.548 1.318-2.76 1.594-1.072.244-3.095.124-3.664.083 0 0-3.499-10.861-.627-30.961 2.891-20.235 9.331-29.955 9.331-29.955zm38.408 11.662c.059-.314.508-.866 1.133-1.203.433-.233 1.101-.446 1.825-.139 1.832.737 2.006 2.485 1.919 3.096 0 0-4.342 9.177-6.339 23.152-2.023 14.16-.488 24.625-.488 24.625-.087.611-.744 2.24-2.705 2.433-.785.092-1.366-.298-1.716-.643-.506-.498-.783-1.155-.751-1.477.021-.166-2.38-11.638-.357-25.798 2.492-17.436 7.464-23.953 7.479-24.046zm82.436 24.233c1.482-.684 16.236-7.773 18.779-8.882 1.668-.73 4.16-1.528 6.563-1.184 5.081.726 8.638 5.361 7.928 10.335l-.765 5.342 2.439.349c1.4.2 2.379 1.476 2.184 2.842l-2.51 17.564c-.195 1.367-1.493 2.317-2.892 2.117l-2.439-.348-.762 5.341c-.711 4.974-5.424 8.429-10.505 7.703-2.398-.343-4.57-1.805-5.969-2.974-2.225-1.856-15.045-13.535-15.174-13.653l-.38-.037s-1.142-6.15-.25-12.39c.903-6.318 3.753-12.125 3.753-12.125zm-74.913-21.469c1.586.985 3.086 1.939 4.541 2.867 10.615 6.759 18.013 11.959 41.236 16.788 0 0-1.668 4.605-2.434 9.964-.75 5.25-.396 9.844-.396 9.844-22.393-1.764-31.181 1.378-42.499 4.851-2.256.693-4.584 1.407-7.081 2.104 0 0-1.358-11.706.383-23.885 1.721-12.048 6.25-22.533 6.25-22.533zm59.607 15.464s-3.1 7.56-4.287 15.866c-1.174 8.22-.28 16.101-.28 16.101-.054.375-1.963 3.019-5.391 2.836-2.855-.131-3.814-3.232-3.807-3.49.013-.099-.725-9.082.371-16.748 1.437-10.05 4.374-16.461 4.384-16.524.097-.365 2.224-3.061 4.895-2.414 3.424.805 4.154 4.106 4.115 4.373zm8.956 30.246-10.473-1.009s-1.62-2.798-.163-12.998c1.479-10.347 3.849-12.8 3.849-12.8l10.321 2.076s-2.578 3.904-3.765 12.21c-1.175 8.22.231 12.521.231 12.521zm45.756-5.671c.27-1.893 1.044-3.669 2.24-5.148.24.388.494.757.757 1.1 2.146 2.801 4.886 4.227 6.238 3.243.367-.27.593-.69.673-1.246.203-1.425-.622-3.593-2.102-5.524-.266-.352-.545-.675-.826-.983 1.726-.644 3.617-.842 5.48-.575 1.939.277 3.766 1.046 5.298 2.229-.376.218-.765.472-1.183.775-1.961 1.445-3.359 3.299-3.563 4.722-.079.554.02 1.016.295 1.374 1.012 1.325 4.043.727 6.898-1.361.386-.282.735-.565 1.039-.846.669 1.707.886 3.557.627 5.365-.259 1.815-.986 3.533-2.106 4.983-.227-.361-.442-.669-.669-.959-2.146-2.798-4.884-4.218-6.232-3.234-.368.268-.594.687-.674 1.244-.203 1.427.624 3.596 2.108 5.529.232.31.499.627.779.928-1.791.702-3.746.928-5.667.653-1.894-.27-3.688-1.017-5.205-2.162.4-.228.798-.49 1.187-.78 1.962-1.441 3.363-3.292 3.566-4.714.079-.557-.022-1.023-.3-1.383-1.015-1.324-4.041-.724-6.889 1.364-.382.277-.742.574-1.1.903-.701-1.736-.932-3.631-.669-5.497z" fill="#fff"/></svg>