<svg clip-rule="evenodd" fill-rule="evenodd" stroke-linejoin="round" stroke-miterlimit="2" viewBox="0 0 600 148" xmlns="http://www.w3.org/2000/svg"><g fill="#fff" fill-rule="nonzero"><path d="m42.767 64.224v19.707h40.461v-40.461h-19.707v20.754zm-42.767 41.509v-42.557h20.755v-20.754h20.964v-20.965h20.754v-20.754h63.522v83.228h20.754v21.802h-20.754v41.719h-42.767v-41.719h-83.228z"/><path d="m182.369 56.314v27.835h27.74v-27.835zm-19.381 56.621v-66.502h57.097v9.405h9.405v28.786h-9.405v9.406h-37.716v18.905z"/><path d="m238.99 112.935v-66.502h19.381v56.622h47.121v9.88z"/><path d="m334.373 65.814v18.335h27.741v-18.335h-9.406v-9.5h-8.93v9.5zm-19.381 47.121v-47.596h9.406v-9.501h9.5v-9.405h28.691v9.405h9.5v9.501h9.405v47.596h-19.38v-18.905h-27.741v18.905z"/><path d="m409.805 112.935v-28.311h-9.405v-9.405h-9.406v-28.786h19.286v28.311h18.43v-28.311h19.286v28.786h-9.405v9.405h-9.406v28.311z"/><path d="m457.496 112.935v-66.502h66.502v9.881h-47.121v18.43h37.716v9.88h-37.716v18.431h47.121v9.88z"/><path d="m552.879 56.314v27.835h18.335v-9.405h9.405v-18.43zm-19.381 56.621v-66.502h57.097v9.405h9.405v28.786h-18.906v8.931h9.501v9.5h9.405v9.88h-28.786v-9.405h-9.405v-9.5h-8.93v18.905z"/></g></svg>