<?xml version="1.0" encoding="UTF-8" standalone="no"?><!DOCTYPE svg PUBLIC "-//W3C//DTD SVG 1.1//EN" "http://www.w3.org/Graphics/SVG/1.1/DTD/svg11.dtd"><svg width="100%" height="100%" viewBox="0 0 600 220" version="1.1" xmlns="http://www.w3.org/2000/svg" xmlns:xlink="http://www.w3.org/1999/xlink" xml:space="preserve" xmlns:serif="http://www.serif.com/" style="fill-rule:evenodd;clip-rule:evenodd;stroke-linejoin:round;stroke-miterlimit:2;"><g id="ports"><g><path d="M309.526,136.264c-15.529,-0 -24.193,-13.404 -24.193,-27.789c0,-14.221 8.991,-27.462 24.193,-27.462c15.856,0 24.846,12.587 24.846,27.462c0,15.039 -8.827,27.789 -24.846,27.789Zm-23.376,-66.039l-14.711,-0l-0,120.309l14.711,-0l0,-55.741l0.327,-0c5.885,8.663 15.202,14.548 25.991,14.548c23.539,-0 36.616,-19.452 36.616,-41.356c-0,-20.924 -13.895,-40.049 -35.962,-40.049c-11.443,0 -20.597,5.885 -26.645,15.039l-0.327,-0l0,-12.75Z" style="fill:#fff;fill-rule:nonzero;"/><path d="M397.469,67.936c-22.885,0 -40.866,17.654 -40.866,40.702c0,23.049 17.981,40.703 40.866,40.703c22.885,-0 40.866,-17.654 40.866,-40.703c-0,-23.048 -17.981,-40.702 -40.866,-40.702Zm-0,14.058c14.548,-0 26.154,12.096 26.154,26.644c0,14.385 -11.606,26.645 -26.154,26.645c-14.548,-0 -26.154,-12.26 -26.154,-26.645c-0,-14.548 11.606,-26.644 26.154,-26.644Z" style="fill:#fff;fill-rule:nonzero;"/><path d="M467.431,70.225l-14.711,-0l-0,76.5l14.711,0l0,-37.596c0,-12.423 1.962,-27.135 17.818,-27.135c3.432,-0 6.375,0.817 8.99,3.106l6.702,-13.404c-3.596,-2.289 -7.846,-3.76 -12.096,-3.76c-9.808,0 -17.327,5.721 -20.923,14.712l-0.491,-0l0,-12.423Z" style="fill:#fff;fill-rule:nonzero;"/><path d="M529.22,83.955l14.385,0l0,-13.73l-14.385,-0l0,-29.26l-14.711,-0l-0,29.26l-8.01,-0l-0,13.73l8.01,0l-0,62.77l14.711,0l0,-62.77Z" style="fill:#fff;fill-rule:nonzero;"/><path d="M594.279,81.34c-4.087,-8.337 -11.606,-13.404 -20.924,-13.404c-12.423,0 -22.557,9.808 -22.557,22.231c-0,10.462 6.211,14.712 14.711,19.289l14.385,7.683c3.433,2.288 5.394,4.25 5.394,8.336c0,6.539 -5.394,10.789 -11.606,10.789c-7.029,-0 -10.788,-4.087 -13.894,-9.808l-12.587,5.721c4.087,10.789 15.366,17.164 26.481,17.164c14.222,-0 26.318,-10.789 26.318,-25.337c-0,-12.096 -8.664,-17.654 -17.654,-21.741c-8.991,-4.086 -17.818,-7.029 -17.818,-13.731c0,-4.25 3.924,-7.519 8.01,-7.519c4.25,0 8.01,2.942 9.808,6.702l11.933,-6.375Z" style="fill:#fff;fill-rule:nonzero;"/></g><g><g><path d="M115.53,110.765c12.04,-14.074 29.918,-22.998 49.887,-22.998c4.006,-0 7.926,0.379 11.732,1.061c2.568,-7.023 3.97,-14.61 3.97,-22.524c-0.002,-36.25 -29.398,-65.639 -65.649,-65.639c-36.258,0 -65.647,29.389 -65.647,65.645c0,7.924 1.412,15.515 3.983,22.542c3.843,-0.699 7.795,-1.085 11.842,-1.085c19.969,0.002 37.841,8.928 49.882,22.998Zm61.617,-21.931c-7.879,21.568 -26.749,37.832 -49.826,42.047c2.569,7.027 3.973,14.623 3.973,22.532c0,16.289 -5.943,31.175 -15.761,42.646c12.039,14.074 29.913,23.005 49.883,23.005c36.257,-0 65.648,-29.392 65.648,-65.651c-0,-32.249 -23.259,-59.046 -53.917,-64.579Zm-73.406,42.06c-23.126,-4.177 -42.037,-20.456 -49.935,-42.039c-30.599,5.576 -53.806,32.35 -53.806,64.558c-0,36.259 29.393,65.651 65.646,65.651c19.971,-0 37.846,-8.931 49.886,-23c-9.816,-11.476 -15.76,-26.362 -15.76,-42.647c0.002,-7.915 1.403,-15.501 3.969,-22.523Zm-0,-0c3.808,0.689 7.722,1.057 11.73,1.057c4.048,-0 8.006,-0.375 11.852,-1.075c-2.715,-7.434 -6.746,-14.214 -11.791,-20.117c-5.049,5.903 -9.076,12.705 -11.791,20.135Z" style="fill:#fff;fill-rule:nonzero;"/></g></g></g></svg>