<svg clip-rule="evenodd" fill-rule="evenodd" stroke-linejoin="round" stroke-miterlimit="2" viewBox="0 0 600 230" xmlns="http://www.w3.org/2000/svg"><g fill="#fff"><path d="m577.912.569c-.629-.012-1.312-.002-1.974.066-1.654.221-3.61.017-4.933.789-5.845 1.213-10.691 5.93-12.235 11.775l-.131 140.503c0 6.506 2.447 12.544 7.63 15.852 4.962 4.081 14.351 4.359 19.865 1.382 5.624-3.088 8.656-8.054 9.538-14.34v-71.304h-18.944v12.99h6.051v52.789l-.329 5.393c-1.213 2.647-3.93 3.181-6.577 2.96-2.647-.551-4.183-1.849-5.065-4.275v-135.438c.11-2.095-.451-4.599 1.644-5.591 1.544-1.765 4.614-1.229 6.71-1.119 1.433.772 2.758 1.569 3.42 3.224l.197 38.677h12.235v-37.954c-.331-4.411-2.062-9.545-5.591-11.972-3.474-2.315-7.109-4.318-11.511-4.407zm-52.228.329c-1.406.013-2.887.242-4.21.132l-2.566.658c-6.616 1.874-11.329 6.734-12.432 13.682v138.989c-.11 5.183 1.273 9.956 4.802 13.485 4.852 4.742 12.831 6.416 19.668 4.21 5.844-1.434 11.021-6.609 12.235-12.564v-142.016c0-4.631-1.935-8.334-4.802-11.643-2.536-1.764-5.704-3.482-9.012-4.144-.992-.716-2.277-.803-3.683-.789zm-68.871.724c-2.214.05-3.683.065-3.683.065v171.189h13.09l.131-86.933c1.69.102 3.378.263 5.065.402 2.868 1.213 6.356 2.851 6.907 6.38v80.151h12.169v-76.533c.11-7.058-2.271-13.572-7.565-17.431 3.86-2.316 6.573-6.267 7.565-10.788l.197-46.111c-.331-4.741-1.716-9.321-4.473-12.629-1.213-1.544-2.534-2.801-4.078-3.684-4.797-4.052-18.682-4.228-25.325-4.078zm-219.567.592v170.958c10.366.662 20.498.053 28.548-5.13 4.631-3.529 6.992-8.999 7.433-15.064v-60.253c.11-5.293-3.133-10.286-7.433-13.484 4.08-2.537 6.55-6.946 7.433-11.577l.263-39.665c-.111-15.272-8.114-20.584-15.392-23.615-6.466-2.695-14.236-1.62-20.852-2.17zm48.61.127-.131 77.031.131 76.764 1.316 6.643c2.205 6.176 7.92 10.016 14.537 10.788 2.757-.772 6.191-.232 8.617-1.776 6.065-2.647 9.292-8.843 10.064-15.129v-154.321h-12.038v140.244c-.441 5.514.937 12.098-1.71 16.84-1.323 1.544-3.19 1.888-5.065 1.447-.441-.993-1.973-.739-1.973-1.842-1.103-.772-1.159-2.318-1.71-3.42v-153.269h-12.038zm50.387 0 .065 170.535h26.575v-14.241h-14.406v-156.294h-12.234zm39.401 0 .132 170.535h26.574v-14.241h-14.471v-156.294h-12.235zm38.349 0v170.535h12.564v-86.992h7.762v-13.485h-7.762v-58.279h13.682v-11.779h-26.246zm109.719 11.779c2.426-.11 4.529.101 6.183 1.644l1.052 1.842v138.99c-.331 2.316-2.379 3.393-4.144 4.276-3.088.551-5.56-.736-7.104-2.5l-.789-3.092v-138.266c.882-1.654 2.927-2.674 4.802-2.894zm-56.734 1.381c4.742.11 9.385 2.364 11.149 6.775-.11 9.209 0 28.498 0 44.598-1.103 3.198-4.19 4.932-7.499 5.262-1.103.221-2.768.288-3.65-.263v-56.372zm-216.84.396c3.749.22 7.29 1.298 9.275 4.275 1.874 1.875 1.797 5.026 1.907 7.894l-.131 37.099c-.276 3.804-7.081 6.442-11.051 7.104v-56.372zm1.118 70.251c2.631.019 4.425 1.342 6.644 2.5 1.874 1.654 3.422 3.774 3.091 6.972v53.676c-.22 4.411-1.884 8.584-5.854 10.458-1.875.111-3.014 1.032-4.999.921v-74.461c.413-.055.742-.069 1.118-.066z" fill-rule="nonzero"/><path d="m505.884 198.364c-3.106.117-6.086.955-8.223 3.091-1.764 2.206-2.393 5.311-1.841 8.288.441 4.411 4.937 4.839 8.025 6.052 3.088.993 6.696 1.018 9.011 3.223.552.772.552 2.167 0 2.829-1.764 2.426-5.705 2.548-8.682 1.776-1.544-.993-3.113-1.983-3.224-4.079h-5.854c0 2.868 1.37 5.737 3.355 7.17 4.19 3.088 12.231 3.415 16.642.658 2.867-1.544 4.386-4.87 4.275-8.288-.11-2.867-2.157-5.475-4.473-6.578l-10.524-2.565c-1.655-.662-3.535-1.631-2.763-3.947.221-1.434 1.77-1.575 2.763-2.236 2.536-.552 5.56-.121 7.104 1.644-.083 1.103.13 1.79.592 2.171l6.249.197c.22-2.096-.695-4.245-1.908-5.789-1.102-1.764-2.948-2.385-4.933-3.157-1.778-.331-3.728-.531-5.591-.46zm-117.81.131c-5.183.662-9.812 3.214-11.577 8.617-1.764 6.397-1.869 14.005 2.763 18.747 3.308 3.529 9.575 4.483 14.537 2.829 4.081-1.324 7.234-5.698 7.565-9.999h-5.92c-.662 1.875-1.328 3.502-3.092 4.605-1.764.441-4.111 1.321-5.986.329-1.764-.993-3.374-2.291-3.815-4.276-1.323-4.301-1.201-10.044 1.776-13.353 1.764-2.205 5.16-1.888 7.696-1.447 1.654.772 2.759 2.642 3.421 4.407h6.183c-.221-1.765-.873-3.544-1.645-4.868-2.095-4.41-7.274-5.15-11.906-5.591zm61.766 0c-3.156.166-6.148 1.175-8.353 2.829-4.852 3.97-5.841 11.892-4.408 17.957 1.434 4.852 4.708 8.633 9.67 9.736 5.293.992 10.9-.066 14.208-3.816 5.073-5.183 4.533-13.863 1.776-20.259-1.434-1.434-2.027-3.746-4.012-4.408-2.482-1.543-5.724-2.204-8.881-2.039zm-149.054.132c-4.171.315-7.962 2.166-10.195 5.723-2.978 4.742-3.103 12.335-1.119 17.628 2.978 5.183 8.051 8.602 14.998 7.499 3.97-.662 7.926-2.765 9.801-6.183 2.867-5.073 2.867-13.279 0-18.352-1.875-3.529-5.525-5.015-9.275-6.118-1.433-.22-2.819-.302-4.21-.197zm248.117.164-.132 5.229h8.848v23.845h6.314v-23.845h8.716v-5.229zm35.323-.033c-3.467-.012-6.851.143-8.946.197v29.14c8.05-.771 18.878 2.593 22.628-5.788 2.867-5.293 2.668-13.059.131-18.352l-1.841-2.237c-.883-.992-1.902-1.333-2.895-2.105-2.123-.661-5.61-.841-9.077-.855zm-51.044.033v29.436h20.457v-5.525h-14.537v-23.911zm-203.453.362c-3.323.032-6.591.325-9.341.263v29.403c7.279-.772 16.615 2.271 21.247-3.684 4.08-5.072 4.27-14.128 1.513-20.194-2.412-4.962-7.881-5.841-13.419-5.788zm138.464.033v29.172h5.788v-19.733l11.774 19.733h6.249v-29.172h-5.591l-.065 20.819-11.709-20.819zm-232.658.032-.593-.004v29.407h6.71v-10.13c4.742-.441 10.219 1.209 13.748-3.092 2.426-2.646 2.526-6.864 1.644-10.393-2.757-8.381-13.901-4.906-21.51-5.788zm165.827 0-.066 5.329h8.683l.263 23.877h6.118l.131-23.877h8.683v-5.329zm25.851 0v29.206h6.051v-29.206zm-61.634.17v20.024c-.331 1.434-.585 2.999-1.908 3.881-1.875.993-4.725 1.322-6.709.329-1.214-1.103-2.545-2.445-2.434-4.21v-20.024h-6.315v19.301c0 3.198.71 6.15 3.026 8.025 3.418 3.639 10.694 3.298 15.326 1.644 2.426-1.323 4.821-3.863 5.262-6.841v-22.13zm-93.669-.039c-3.446.041-7.127.286-10.656.066v29.14h6.287v-10.854c2.096-.055 5.69-.11 8.447 0 3.198 1.654 1.751 5.924 2.302 9.012 0 .937.287 1.525.79 1.842h6.643c.111-.331.004-1.074-.657-1.184-1.213-4.191.859-9.652-3.552-12.63 2.426-1.213 3.77-3.645 3.881-6.512.22-2.537-.825-4.527-2.369-6.512-.33-.551-1.425-.215-1.315-.987-3.088-1.158-6.355-1.422-9.801-1.381zm177.997 4.67c.314-.008.61-.021.92 0 1.241.083 2.46.48 3.618.921.993.993 2.101 1.614 2.763 3.158 1.764 3.969 1.573 9.89-1.184 13.418-1.434 1.654-3.275 2.148-5.591 2.368-2.206-.33-4.576-1.085-5.789-2.96-1.874-2.867-1.735-7.346-1.184-10.985.552-2.095 1.699-4.445 3.684-5.328.868-.413 1.82-.564 2.763-.592zm131.491.197c4.08.442 9.462-1.385 11.116 3.026 1.324 3.971 1.527 9.759-.789 13.288-2.205 3.198-6.909 1.95-10.327 2.17zm-278.901.133c.937 0 1.936.043 2.763.263 2.536 1.434 4.384 4.301 4.604 7.499.221 3.639-.07 8.319-3.157 10.525-2.095 1.433-5.972 2.224-8.288.46-3.198-2.095-3.837-6.181-3.947-10.261.331-3.64 2.13-6.965 5.328-8.289.827-.111 1.76-.197 2.697-.197zm-58.148.198c2.649-.088 5.08.133 6.775 2.697.221 1.544.424 3.436-.789 4.539-1.765 1.874-5.706.787-8.683 1.118v-8.288c.91 0 1.814-.037 2.697-.066zm23.192.066c3.419.441 7.906-.867 10.552 1.118.772 1.323.946 3.237.395 4.67-2.536 2.978-7.308 1.093-10.947 1.645zm59.064 0c2.867.33 6.423-.778 8.518.986 2.757 1.103 2.98 5.048 3.421 8.025-.331 3.75-.635 8.346-4.605 9.67l-7.334.131z" fill-rule="nonzero"/><path d="m216.758 229.684h-216.693l-.065-229.119h216.758zm-4.651-224.236v219.615h-207.455l-.133-219.615zm-167.972 25.707-6.268 6.615-.181 11.318-10.235-9.813h-6.863v7.646l8.468 9.813h-8.829l-4.997 5.418 5.148 6.397 9.324-.03-7.91 7.119.121 9.09h7.706l11.619-10.234 16.255 34.828h17.97v8.941l-32.901-12.282-11.438 12.011 43.707 45.778h-11.8l-3.913 4.098v4.997l4.154 4.154 7.691.008-4.56 5.471v8.791h8.247l7.632-8.792-3.297 7.011v5.783h10.837l5.177-11.228.542-.542.12 8.007 2.754 3.763h4.651l3.131-3.04v-25.673h3.13v25.492l2.709 3.221h5.178l2.581-3.04v-9.731l6.871 12.771h10.185v-5.783l-2.841-5.923 7.225 7.704h9.03l.06-7.102-4.394-6.442 6.983-.241 5.057-5.057v-3.732l-4.696-4.945h-11.734l42.979-45.778-12.281-12.011-31.637 12.282v-8.941h18.031l15.834-33.862 11.258 9.753h8.127v-9.271l-8.309-8.037h10.176l4.754-5.689-4.515-5.298h-9.572l8.94-9.512v-7.586h-7.857l-9.391 9.512-.121-10.394-6.11-7.215-6.773 7.215-.301 13.284-6.682-5.629h-7.676v7.134l11.227 12.221-15.532 16.616-9.03-5.358v-17.037l-28.252-17.398-29.453 17.398v17.037l-9.542 4.937-15.833-16.435 11.077-11.981v-6.976h-8.91l-5.357 5.411-.12-14.392-6.555-6.615zm127.51 7.27 1.317 1.813v15.503h5.298l11.137-12.101h1.686v1.776l-10.355 11.559v3.973h13.064l1.385 1.505-1.385 1.716h-13.094v6.05l8.278 7.345.149 1.969-1.98-.148-11.594-10.031h-4.28l-15.527 34.654h-19.927v21.718l35.58-14.057 6.261 6.592-48.223 50.291h21.085l1.899 2.011-1.961 2.054h-12.972v2.631l8.413 9.81-.068 1.914h-1.746l-12.723-14.355h-7.962l8.805 18.098h-3.131l-9.21-18.098h-5.027v17.516l-.832.714-.763-.714v-25.697l19.746-20.259-3.19-3.612-22.263 22.162-21.324-22.162-2.89 3.612 18.964 20.259v25.697l-.887.714-.889-.714v-17.516h-4.726l-9.098 18.098h-2.882l8.187-18.098h-7.585l-11.68 14.355h-2.014l-.009-1.914 8.009-10.087v-2.354h-12.848l-1.565-1.86 1.328-2.205h20.465l-47.764-50.291 5.84-6.592 36.242 13.997v-21.658h-21.071l-15.347-35.052h-3.715l-11.739 11.016-2.709.06-.12-2.167 9.331-8.248v-5.433h-13.312l-1.718-1.717 1.718-1.7h13.259l.063-3.792-10.192-11.559v-1.571h1.697l11.254 12.262h4.575v-15.899l1.949-1.783 1.603 1.783v18.994h4.516l7.916-8.38h2.258v1.758l-11.078 11.799v4.335l19.807 19.807 14.81-7.702v-17.945l24.665-14.81 23.557 14.81v18.783l13.787 7.345 21.131-22.335-11.91-13.606v-1.843h2.075l8.27 8.586h3.853l.12-19.566 1.933-1.813zm-62.817 13.132-22.257 13.485v18.121l-17.339 8.85-21.311-21.372 13.666 30.793h21.372v28.747l-37.627-14.719-1.806 2.679 47.148 50.411h2.607l3.163-6.223-17.218-18.692 6.442-7.857 21.867 22.275 22.743-22.275 6.923 7.857-18.181 18.692 2.288 6.223h3.07l48.403-50.411-1.987-2.679-37.627 15.02v-29.048h21.071l13.426-31.094-21.132 21.853-16.525-8.609v-18.783zm62.328 8.849v6.171h6.141v-6.171zm-132.567-.361v5.9h5.719v-5.9z"/></g></svg>