<svg clip-rule="evenodd" fill-rule="evenodd" stroke-linejoin="round" stroke-miterlimit="2" viewBox="0 0 600 207" xmlns="http://www.w3.org/2000/svg"><g fill="#fff"><g fill-rule="nonzero"><path d="m125.161.862c-8.578 0-15.484 6.906-15.484 15.484v58.064c0 8.578 6.906 15.484 15.484 15.484h20.645v11.613h19.355v-11.613h21.936c8.578 0 15.484-6.906 15.484-15.484v-58.064c0-8.578-6.906-15.484-15.484-15.484h-61.936zm3.871 15.484h52.903v56.774h-16.774v-9.032h-19.355v9.032h-16.774z"/><path d="m18.065.862c-8.579 0-15.484 6.906-15.484 15.484v20.645c0 8.578 6.905 15.484 15.484 15.484h59.354v20.645h-77.419v1.29c0 8.578 6.906 15.484 15.484 15.484h63.226c8.578 0 15.484-6.906 15.484-15.484v-23.226c0-8.578-6.906-15.483-15.484-15.483h-59.355v-19.355h55.484v7.742h18.064v-7.742c0-8.578-6.906-15.484-15.484-15.484h-59.354z"/><path d="m218.065.862v73.548c0 8.578 6.905 15.484 15.483 15.484h55.484c8.578 0 15.484-6.906 15.484-15.484v-73.548h-19.355v72.258h-47.742v-72.258h-19.354z"/><path d="m352.903 2.152-44.516 87.742h19.355l9.839-19.355h50l9.838 19.355h19.355l-44.516-87.742-.645-1.29h-18.065zm9.678 19.072 17.178 33.831h-34.355z"/><path d="m425.806.862v89.032h19.355v-33.548h12.258l32.258 33.548h25.807l-32.258-33.548h9.677c8.578 0 15.484-6.906 15.484-15.484v-24.516c0-8.578-6.906-15.484-15.484-15.484h-67.097zm19.355 15.484h38.71c2.859 0 5.161 2.302 5.161 5.161v14.194c0 2.859-2.302 5.161-5.161 5.161h-38.71z"/><path d="m525.161.862v89.032h74.839v-16.774h-55.484v-56.774h55.484v-15.484h-74.839z"/></g><path d="m561.29 35.701h32.258v16.774h-32.258z"/><path d="m138.024 117.594v89.033h74.839v-16.775h-55.484v-56.774h55.484v-15.484z" fill-rule="nonzero"/><path d="m174.153 152.433h32.258v16.774h-32.258z"/><path d="m228.346 117.594v89.033h18.065v-62.984l46.452 55.404 1.29 1.533 5.081 6.047h12.983v-89.033h-19.354v59.92l-46.452-55.404-3.79-4.516z" fill-rule="nonzero"/><path d="m327.701 117.594h20.645v89.032h-20.645z"/><path d="m358.589 117.594 38.75 43.025-38.993 46.008h23.226l27.742-32.702 29.436 32.702h23.226l-41.411-46.008 36.491-43.025h-23.226l-25.242 29.759-26.773-29.759z" fill-rule="nonzero"/></g></svg>