<svg clip-rule="evenodd" fill-rule="evenodd" stroke-linejoin="round" stroke-miterlimit="2" viewBox="0 0 600 197" xmlns="http://www.w3.org/2000/svg"><g fill="#fff" fill-rule="nonzero"><path d="m73.895.609h5.336c18.523.403 36.745 7.852 49.832 21.04-4.832 4.933-9.765 9.664-14.497 14.597-7.349-6.644-16.208-11.778-25.872-13.59-14.295-3.02-29.698-.302-41.678 7.852-13.087 8.557-21.946 23.054-23.859 38.557-2.114 15.302 2.215 31.409 12.181 43.288 9.564 11.577 24.161 18.826 39.262 19.329 14.094.805 28.792-3.523 39.06-13.389 8.054-6.946 11.779-17.517 12.987-27.785-16.712 0-33.423.1-50.134 0v-20.738h70.368c3.625 22.248-1.61 47.315-18.523 63.221-11.275 11.275-26.879 17.919-42.785 19.228-15.403 1.51-31.309-1.409-45-8.859-16.409-8.758-29.496-23.557-35.939-40.973-6.04-16.007-6.141-34.127-.504-50.235 5.135-14.698 15-27.684 27.685-36.745 12.181-8.959 26.98-13.892 42.08-14.798z"/><path d="m477.584 5.844h21.544v143.757c-7.148 0-14.396.101-21.544-.1.101-47.819 0-95.738 0-143.657z"/><path d="m194.801 55.676c13.288-2.517 27.684.302 38.657 8.255 9.967 7.047 16.913 18.12 19.027 30.201 2.718 13.993-.705 29.295-9.765 40.369-9.765 12.382-25.772 19.027-41.376 18.02-14.295-.805-28.188-7.953-36.644-19.631-9.564-12.886-11.879-30.604-6.644-45.704 5.235-16.208 20.033-28.591 36.745-31.51m3.02 19.127c-5.436 1.41-10.47 4.53-14.094 8.96-9.765 11.678-9.161 30.704 1.611 41.577 6.141 6.241 15.402 9.161 23.959 7.449 7.953-1.409 14.899-6.744 18.725-13.791 6.644-11.98 4.731-28.49-5.436-37.853-6.544-6.04-16.108-8.557-24.765-6.342z"/><path d="m301.512 55.676c15.201-2.92 31.811 1.308 43.187 11.98 18.524 16.61 20.537 47.717 4.732 66.845-9.564 12.08-25.067 18.725-40.369 18.02-14.597-.403-28.993-7.651-37.651-19.631-9.765-13.188-11.879-31.308-6.342-46.711 5.537-15.705 20.033-27.684 36.443-30.503m3.02 19.127c-5.437 1.41-10.47 4.53-14.094 8.859-9.665 11.477-9.262 30.201 1.107 41.174 6.141 6.544 15.705 9.766 24.564 7.953 7.852-1.51 14.899-6.744 18.725-13.791 6.543-12.081 4.63-28.591-5.638-37.953-6.544-6.04-16.107-8.457-24.664-6.242z"/><path d="m392.014 61.515c11.578-7.249 26.98-9.262 39.463-3.02 3.926 1.711 7.148 4.63 10.269 7.55.1-2.718 0-5.537.1-8.356 6.745.101 13.49 0 20.336.101v88.791c-.101 13.39-3.524 27.584-13.188 37.349-10.57 10.772-26.778 14.094-41.376 11.879-15.604-2.315-29.194-13.691-35.234-28.087 6.04-2.919 12.382-5.235 18.624-7.953 3.523 8.255 10.671 15.302 19.631 16.913 8.959 1.611 19.328-.604 25.167-8.054 6.242-7.651 6.242-18.121 5.94-27.483-4.631 4.53-9.967 8.557-16.41 10.067-13.993 3.926-29.395-.906-40.167-10.369-10.873-9.463-17.316-24.06-16.711-38.557.302-16.409 9.563-32.214 23.556-40.771m20.839 12.885c-6.141 1.007-11.879 4.43-15.805 9.162-9.463 11.275-9.463 29.295.101 40.368 5.436 6.544 14.194 10.168 22.651 9.262 7.953-.805 15.301-5.839 19.228-12.785 6.644-11.778 5.537-27.785-3.423-38.054-5.537-6.342-14.396-9.463-22.752-7.953z"/><path d="m525 66.649c12.081-11.275 30.705-15.101 46.208-9.161 14.698 5.537 24.06 19.53 28.792 33.926-21.846 9.06-43.59 18.02-65.436 27.08 3.02 5.738 7.651 10.973 13.893 13.087 8.758 3.121 19.228 2.014 26.577-3.825 2.919-2.215 5.235-5.134 7.449-7.953 5.537 3.725 11.074 7.349 16.611 11.074-7.852 11.778-21.04 20.033-35.235 21.342-15.704 1.913-32.416-4.128-42.583-16.409-16.712-19.329-15.101-51.745 3.724-69.161m10.772 18.624c-3.423 4.933-4.832 10.973-4.731 16.913 14.597-6.041 29.194-12.081 43.791-18.222-2.416-5.637-8.255-9.06-14.194-9.966-9.564-1.712-19.53 3.423-24.866 11.275z"/></g></svg>