<svg clip-rule="evenodd" fill-rule="evenodd" stroke-linejoin="round" stroke-miterlimit="2" viewBox="0 0 600 142" xmlns="http://www.w3.org/2000/svg"><g fill="#fff"><path d="m2.713 2.882c2.438-2.391 6.299-2.694 10.675-.351l.08.043.03.016.03.017.029.016.021.011.029.016.039.022.031.017.039.022.02.011.089.051s79.218 45.001 79.218 45.001l.024-.024.486.303 26.677 15.159c7.639 4.306 7.639 11.399 0 15.764l-26.645 15.142.02.018-45.346 25.76-34.434 19.586c-4.675 2.61-8.855 2.308-11.34-.361l.063-.063-.004-.003c-1.637-1.637-2.544-4.247-2.544-7.639v-120.643-.102l.001-.035v-.022-.02-.025l.001-.079.001-.033.001-.066.001-.033c.071-3.19.967-5.657 2.48-7.283l.228-.193z"/><path d="m151.891 67.268c0-19.326 16.244-35.061 35.569-35.061 10.684 0 18.286 4.196 24.023 9.659l-6.754 6.754c-4.1-3.849-9.659-6.835-17.276-6.835-14.113 0-25.143 11.363-25.143 25.475 0 14.113 11.03 25.49 25.136 25.49 9.15 0 14.356-3.672 17.696-7.02 2.735-2.735 4.527-6.665 5.22-12.055h-22.902v-9.556h32.237c.339 1.711.516 3.761.516 5.98 0 7.174-1.969 16.074-8.303 22.408-6.164 6.414-14.024 9.836-24.457 9.836-19.333 0-35.576-15.72-35.576-35.061zm94.379-10.087c-12.483 0-22.673 9.497-22.673 22.57 0 13.006 10.183 22.57 22.673 22.57 12.491 0 22.659-9.578 22.659-22.578 0-13.073-10.176-22.57-22.659-22.562zm0 36.262c-6.835 0-12.741-5.641-12.741-13.685 0-8.125 5.899-13.685 12.741-13.685 6.835 0 12.734 5.552 12.734 13.685 0 8.037-5.891 13.685-12.734 13.685zm49.439-36.262c-12.483 0-22.659 9.497-22.659 22.57 0 13.006 10.176 22.57 22.659 22.57s22.658-9.578 22.658-22.578c0-13.073-10.168-22.57-22.658-22.562zm0 36.262c-6.835 0-12.741-5.641-12.741-13.685 0-8.125 5.898-13.685 12.741-13.685 6.835 0 12.741 5.552 12.741 13.685 0 8.037-5.906 13.685-12.741 13.685zm60.675-34.891v3.672h-.339c-2.219-2.662-6.496-5.051-11.879-5.051-11.288 0-21.648 9.925-21.648 22.674 0 12.645 10.352 22.488 21.648 22.488 5.383 0 9.66-2.389 11.879-5.124h.339v3.244c0 8.634-4.616 13.257-12.055 13.257-6.076 0-9.836-4.365-11.377-8.029l-8.642 3.591c2.477 5.979 9.069 13.338 20.011 13.338 11.621 0 21.457-6.85 21.457-23.521v-40.546zm-11.37 34.891c-6.835 0-12.579-5.736-12.579-13.596 0-7.949 5.737-13.767 12.579-13.767 6.754 0 12.056 5.811 12.056 13.767.007 7.86-5.294 13.596-12.056 13.596zm27.614-58.839h9.924v66.36h-9.924zm37.125 58.839c-5.044 0-8.642-2.315-10.935-6.835l30.186-12.498-1.039-2.566c-1.873-5.036-7.61-14.363-19.326-14.363-11.628 0-21.294 9.15-21.294 22.577 0 12.645 9.578 22.57 22.408 22.57 10.352 0 16.339-6.319 18.816-10.006l-7.697-5.124c-2.574 3.768-6.083 6.252-11.119 6.245zm-.775-27.539c3.93 0 7.263 1.968 8.376 4.785l-20.188 8.383c-.251-8.722 6.762-13.168 11.812-13.168zm63.573-31.3h-23.727v66.36h9.902v-25.136h13.833c10.979 0 21.773-7.948 21.773-20.616 0-12.645-10.787-20.601-21.758-20.601zm.258 31.985h-14.083v-22.754h14.083c7.403 0 11.621 6.142 11.621 11.377 0 5.147-4.218 11.377-11.621 11.377zm36.882 34.375v-66.36h-9.902v66.36zm44.484-.118v-25.438c0-11.783-8.804-18.353-20.167-18.353-7.159 0-14.584 3.164-17.659 10.161l8.789 3.665c1.88-3.665 5.375-4.867 9.055-4.867 5.117 0 10.322 3.075 10.404 8.546v.686c-1.792-1.025-5.626-2.566-10.331-2.566-9.474 0-19.119 5.205-19.119 14.938 0 8.885 7.772 14.599 16.48 14.599 6.665 0 10.33-2.986 12.63-6.481h.34v5.125h9.57zm-21.346-7.418c-3.245 0-7.772-1.622-7.772-5.626 0-5.124 5.641-7.1 10.507-7.1 4.358 0 6.4.936 9.055 2.219-.76 5.958-5.796 10.434-11.79 10.507zm56.17-34.92-11.355 28.764h-.339l-11.783-28.764h-10.669l17.666 40.214-10.079 22.364h10.33l27.23-62.578z"/></g></svg>