<svg clip-rule="evenodd" fill-rule="evenodd" stroke-linejoin="round" stroke-miterlimit="2" viewBox="0 0 600 106" xmlns="http://www.w3.org/2000/svg"><path d="m547.419.594h-494.837c-29.039 0-52.582 23.541-52.582 52.581 0 29.038 23.543 52.565 52.582 52.565h494.837c29.04 0 52.581-23.528 52.581-52.565 0-29.04-23.542-52.581-52.581-52.581zm4.825 55.046c.889-.089 2.475.214 3.39 1.895.682 1.257.81 4.041.97 11.099.144 6.376.39 16.967 2.037 19.111 1.506-.944 5.293-10.93 7.742-17.637.027-.07 2.573 3.655 2.584 3.617-.981 3.918-4.791 18.276-9.323 20.005-1.069.41-2.189.279-3.152-.373-3.028-2.047-4.167-8.605-5.449-17.645-.388-2.732-.855-6.033-1.296-7.382-1.446.702-5.154 4.889-10.084 10.461l-3.066 3.462c-.934 1.049-3.768 4.242-6.622 3.057-4.232-1.758-3.944-11.6-3.025-26.415.167-2.697.157-4.904.474-7.214.016-.114-.079-.299-.079-.4-3.131 3.817-9.692 18.559-12.22 36.384-1.281 9.038-4.648 11.175-7.249 11.376-4.393.343-8.916-4.95-11.527-13.488-5.468-17.885-4.614-54.154 39.946-79.034 3.627-2.024 8.096-3.242 8.096-3.242s-2.459 2.502-4.39 4.265c-21.679 19.789-30.718 46.555-30.916 59.506-.047 3.173.329 4.996.655 5.908.343-.586.829-1.669 1.354-3.675 7.092-26.96 20.595-39.736 28.267-46.117 3.601-2.997 7.938-4.44 7.938-4.44s-2.712 3.344-4.418 5.562c-5.658 7.352-8.474 33.118-4.435 38.202.284.354.47.588 1.328.016 8.427-5.615 10.925-6.771 12.47-6.864zm-144.18-.979h-24.792c-.082.943-.082 1.892 0 2.835.072 2.177.454 4.332 1.135 6.401 3.237 10.047 11.101 12.883 18.47 7.859 2.029-1.296 3.809-3.321 5.024-5.672.245-.407.407-.81.569-1.214l.891.162c-.161.486-.243.971-.406 1.538-.405 1.46-.972 2.837-1.618 4.133-1.137 2.348-2.431 4.051-3.972 5.59-7.292 7.129-18.31 5.184-23.011-3.809-1.171-2.273-2.016-4.701-2.511-7.21-2.916-15.395 6.238-26.333 16.368-26.171 1.052.081 2.024.162 3.077.405 6.159 1.459 9.886 5.915 10.695 13.126.081.73.081 1.379.081 2.027zm-199.22 0h-24.793c-.082.943-.082 1.892 0 2.835.073 2.177.455 4.332 1.135 6.401 3.241 10.047 11.099 12.883 18.471 7.859 2.026-1.296 3.81-3.321 5.025-5.672.242-.407.405-.81.567-1.214l.892.162c-.161.486-.243.971-.406 1.538-.404 1.46-.972 2.837-1.62 4.133-.987 2.081-2.331 3.973-3.97 5.59-7.293 7.129-18.312 5.184-23.011-3.809-1.171-2.273-2.016-4.701-2.511-7.21-2.917-15.395 6.238-26.333 16.366-26.171 1.053.081 2.026.162 3.08.405 6.156 1.459 9.884 5.915 10.694 13.126.081.73.081 1.379.081 2.027zm-48.198-12.154v-12.396c-.08-3.322-2.106-4.619-4.699-3.485l-.648.244-.325.163-.485-1.054 12.883-5.59v51.452c.161 2.348 1.946 3.727 4.699 3.159.324-.082.648-.162.972-.324l.244.892-11.02 4.858h-1.377v-5.994c-1.343 1.6-2.962 2.945-4.781 3.971-9.885 5.588-20.337.324-22.119-13.611-.405-2.775-.323-5.6.243-8.346 2.754-14.909 15.881-20.904 24.793-15.07l.972.568zm-78.432-21.714.81.08v19.447l-.81.162c-.486-3.483-1.863-6.724-4.375-9.723-3.484-4.294-8.021-6.644-13.53-7.049-13.045-.972-23.578 9.885-22.2 30.628 1.053 15.8 11.748 24.548 25.197 22.525 5.834-.891 10.697-3.647 15.071-8.832.485-.568.891-1.134 1.296-1.701l.648.568c-.404.647-.809 1.297-1.296 1.943-3.727 5.023-7.697 8.103-12.72 9.966-7.779 2.996-16.286 2.267-24.227-2.512-6.806-4.052-11.586-11.101-13.207-19.771-3.241-17.419 7.779-32.814 25.199-35.325 4.618-.647 9.236-.243 13.612 1.052l.407.163 3.888 1.376c3.08 1.134 4.133.891 5.591-1.944zm269.067 21.147v-.892c4.617-1.62 8.184-5.023 10.777-10.614.324-.729.648-1.539.972-2.351h.729v11.507h8.59v2.35h-8.429v25.604c0 6.805 1.862 8.994 6.158 8.184 1.378-.244 2.674-1.053 3.645-2.35.163-.163.324-.406.487-.649l.891.244c-.245.406-.403.731-.567 1.052-.862 1.347-1.868 2.598-2.999 3.729-4.942 4.696-11.262 3.24-13.612-2.269-.486-1.214-.648-2.187-.648-4.942v-28.603zm-7.774-2.755h1.132v12.398l-.891.081c-.081-.567-.16-1.134-.324-1.701-1.296-4.861-3.645-7.292-7.292-8.184-1.701-.324-3.401-.324-4.699-.08-3.809.972-5.59 5.266-3.564 8.588.809 1.377 1.863 2.35 4.455 3.971l.324.161 3.97 2.187 1.702.973c4.052 2.593 5.755 4.132 6.888 6.158 2.511 4.458 2.511 8.021-.162 12.073-1.457 2.268-3.97 3.888-7.616 4.535-2.105.405-4.618.324-8.427-.729l-1.053-.242-1.054-.324-.243-.081-1.378-.162c-1.053-.161-1.781.324-1.781 1.214h-.729v-13.774h.809c.081.892.162 1.784.405 2.674.891 3.243 2.755 5.996 5.187 7.535 1.862 1.215 3.807 1.862 5.75 1.862 4.62-.08 7.212-3.564 5.996-8.102-.404-1.458-1.214-2.592-3.08-4.132-.446-.305-.878-.629-1.294-.973l-.406-.161-2.918-1.864-1.862-1.132-1.459-.892c-6.238-3.727-8.425-7.942-7.373-13.046.729-3.807 3.323-6.806 7.212-8.183 2.591-.972 4.293-.972 8.021 0l.243.08 2.107.649c.567.162 1.133.243 1.62.324 1.218.163 2.026-.647 1.784-1.701zm123.201 0h1.135v12.398l-.893.081c-.081-.567-.16-1.134-.324-1.701-1.298-4.861-3.645-7.292-7.291-8.184-1.704-.324-3.404-.324-4.699-.08-3.81.972-5.593 5.266-3.567 8.588.811 1.377 1.865 2.35 4.458 3.971l.324.161 3.971 2.187c.565.325 1.133.649 1.702.973 4.05 2.593 5.751 4.132 6.884 6.158 2.513 4.458 2.513 8.021-.16 12.073-1.457 2.268-3.969 3.888-7.616 4.535-2.107.405-4.62.324-8.429-.729l-1.051-.242-1.054-.324-.243-.081-1.377-.162c-1.054-.161-1.784.324-1.784 1.214h-.729v-13.774h.811c.081.892.16 1.784.405 2.674.891 3.243 2.756 5.996 5.187 7.535 1.862 1.215 3.807 1.862 5.75 1.862 4.62-.08 7.21-3.564 5.996-8.102-.403-1.458-1.214-2.592-3.08-4.132-.446-.305-.878-.629-1.294-.973l-.405-.161-2.919-1.864-1.864-1.132-1.457-.892c-6.238-3.727-8.427-7.942-7.373-13.046.73-3.807 3.321-6.806 7.212-8.183 2.591-.972 4.293-.972 8.021 0l.245.08 2.105.649c.569.162 1.133.243 1.623.324 1.213.163 2.022-.647 1.78-1.701zm-377.769 21.391c0-1.621.162-3.24.406-4.862 2.917-14.583 17.663-20.741 28.764-13.53.916.576 1.783 1.226 2.593 1.945 4.7 4.457 7.05 11.344 5.834 19.121-.486 2.593-1.378 5.104-2.675 7.374-4.536 7.616-11.181 10.855-19.364 9.722-7.211-.971-13.207-6.562-15.07-15.312-.327-1.463-.491-2.958-.488-4.458zm215.833-6.32v-5.59c0-.325 0-.649-.079-.972-.65-4.133-2.109-5.915-5.269-6.644-2.677-.566-4.864.081-6.323 1.864-.971 1.135-1.539 2.593-1.539 3.645v.163l.243 1.296v1.458c-.081.73-.324 1.459-.729 2.027-1.135 1.782-3.728 1.862-5.105 0-1.62-2.107-1.297-4.944 1.864-8.264 2.106-2.269 5.51-3.808 9.887-4.213.917-.082 1.839-.082 2.755 0 7.459.485 11.025 4.294 11.025 10.857v23.741c.243 1.62 1.946 2.512 4.215 1.539.678-.339 1.284-.807 1.783-1.378l.651 1.054c-.245.405-.487.73-.73 1.135-1.216 1.538-2.513 2.673-4.053 3.564-3.323 1.942-6.729.727-7.62-2.106-.163-.65-.324-1.297-.406-1.946l-.162-1.539-.082-.405c-.403.405-.891.809-1.375 1.216-2.189 1.863-3.974 3.079-5.919 4.212-6.483 3.564-12.56.728-13.856-5.833-1.135-5.835 1.458-10.21 9.075-13.856l3.322-1.621.972-.404c1.298-.567 2.758-1.215 4.296-1.783l1.623-.649zm-90.587-9.641 13.126-5.592v8.265l.729-.81 1.135-1.216c.486-.405.891-.891 1.377-1.296 1.538-1.459 2.35-2.106 3.402-2.755 6.645-4.455 13.531-1.944 15.557 5.267.162.405.244.81.324 1.297l.649-.729 1.458-1.54c2.511-2.836 3.89-3.89 6.319-5.186 6.564-3.483 13.369-.162 14.665 7.617.243 1.215.325 2.511.325 4.052v21.634c0 .241 0 .565.081.809.405 2.755 1.944 4.214 4.212 4.295h.811v1.134h-17.664v-1.134h.893c2.754-.08 4.212-1.619 4.78-5.104l.161-1.378v-22.121c-.081-.568-.161-1.135-.323-1.62-1.376-4.456-5.995-6.158-12.153-2.593-.972.567-1.458 1.052-3.079 2.593l-.892.971c.082.649.163 1.216.243 1.863l-.08 2.918.08 17.988-.08 1.377c0 .404.08.972.323 1.784.568 2.026 2.188 3.241 4.376 3.321.324 0 .567 0 .892-.08v1.214h-17.988v-1.214c.243.08.566.08.81.08 2.755-.08 4.294-1.701 4.698-5.105l.163-1.377v-19.527c0-1.215-.081-2.593-.323-3.809-.73-4.375-5.914-6.644-11.911-2.917-.972.567-1.944 1.377-2.998 2.43l-.486.567-.486.486v23.173l.081.973c.324 3.322 1.945 5.023 4.619 5.105.323 0 .567 0 .892-.08v1.214h-18.474v-1.134h.891c3.079-.08 4.861-1.864 5.185-5.105l.082-.81v-22.12l-.082-1.945c-.08-3.241-2.187-4.618-4.86-3.484l-.648.325-.324.161zm198.654 35.246v-1.136h1.054c3.482-.08 5.508-1.945 5.752-5.105l.079-1.052v-20.743l-.079-3.08c0-3.321-1.945-4.536-4.457-3.484l-.73.325-.242.161-.487-1.134 12.965-5.591v7.698l.243-.486.648-.973c1.214-2.025 2.108-3.159 3.159-3.969 1.862-1.539 3.648-2.188 5.428-2.269 3.646-.081 5.917 3.079 4.942 5.592-.97 2.754-3.807 3.402-5.669 1.782l-.487-.406-.324-.323c-2.028-1.946-3.079-1.946-5.669.406-1.946 1.782-2.512 3.078-2.512 5.832v20.906l.079.811c.324 3.158 2.35 5.023 6.158 5.104h1.132v1.134zm-316.203-16.612c.568 3.89 1.54 6.563 2.917 8.915 4.051 6.804 12.154 7.451 16.366 2.266 3.16-3.889 4.619-10.452 3.08-18.879-.293-1.69-.755-3.345-1.378-4.942-.891-2.025-1.863-3.565-2.916-4.782-4.862-5.915-12.64-5.185-15.881.73-1.621 2.755-2.35 5.591-2.594 9.803-.081 1.188-.081 2.38 0 3.568.082 1.135.245 2.268.406 3.321zm205.463-5.834-.975.405-2.755 1.297c-2.999 1.379-4.052 2.026-5.025 2.837-2.593 2.266-3.484 4.375-3.16 7.373.163 1.378.487 2.349.972 3.158 2.108 3.648 5.51 4.539 10.455 1.702 1.216-.647 2.27-1.539 3.161-2.591v-15.072c-1.051.324-1.943.649-2.673.891zm-143.235-12.477c-2.026-2.836-5.511-4.133-9.317-3.322-4.457.971-7.941 5.186-8.832 13.451-.162 2.049-.162 4.108 0 6.157.972 9.481 5.59 14.18 11.424 14.342 1.702.08 3.322-.324 4.699-.973 3.321-1.621 3.807-2.429 3.807-5.59v-17.502c.001-3.404-.323-4.699-1.781-6.563zm41.715 7.454c0-.486 0-.891-.08-1.376-.082-2.027-.486-3.647-1.215-5.024-2.106-4.456-7.455-5.428-11.669-1.702-1.539 1.378-2.755 3.404-3.403 6.401-.161.568-.244 1.135-.324 1.701zm199.221 0c0-.486 0-.891-.081-1.376-.082-2.027-.487-3.647-1.214-5.024-2.108-4.456-7.457-5.428-11.669-1.702-1.538 1.378-2.756 3.404-3.404 6.401-.16.568-.243 1.135-.324 1.701z" fill="#fff" fill-rule="nonzero"/></svg>