<svg clip-rule="evenodd" fill-rule="evenodd" stroke-linejoin="round" stroke-miterlimit="2" viewBox="0 0 600 136" xmlns="http://www.w3.org/2000/svg"><g fill="#fff"><path d="m0 135.087v-118.091h37.098v33.75l50.625-50.592h52.467l-71.217 71.217 28.259 24.844c2.076 1.674 4.353 2.477 7.634 1.774s6.462-3.382 6.462-9.274v-37.936h37.132v50.625c0 18.616-20.424 33.717-45.569 33.717-12.556 0-25.882-3.851-35.324-12.456l-30.469-26.886v39.308h-37.098z"/><path d="m425.926 132.342v-78.75h28.46v11.518c3.482-4.654 7.389-8.081 11.719-10.279 4.353-2.244 9.341-3.349 15-3.349 5.156 0 9.609 1.105 13.359 3.282 3.717 2.176 7.065 5.625 10.045 10.346 3.783-4.755 7.969-8.203 12.489-10.413 4.553-2.244 9.676-3.348 15.368-3.348 9.241 0 16.473 2.41 21.563 7.165 5.122 4.788 7.667 11.484 7.667 20.156v53.638h-30.837v-42.154c0-4.922-.837-8.471-2.511-10.68-1.641-2.244-4.353-3.349-8.069-3.349-3.817 0-6.596 1.172-8.404 3.482-1.808 2.277-2.679 5.927-2.679 10.849v41.852h-30.703v-41.049c0-5.39-.871-9.241-2.578-11.618-1.708-2.344-4.52-3.516-8.438-3.516-3.482 0-6.127 1.206-7.935 3.583-1.808 2.344-2.712 5.792-2.712 10.346v42.288z"/><path d="m242.712 132.275v-78.683h28.46v11.518c3.683-4.587 7.734-8.003 12.254-10.246s9.61-3.382 15.302-3.382c4.788 0 9.04.804 12.823 2.411 3.718 1.543 6.996 3.982 9.543 7.098 2.451 3.027 4.17 6.579 5.022 10.38 1.005 4.085 1.473 10.748 1.473 20.022v40.915h-31.272v-40.781c0-5.993-.804-10.112-2.411-12.355s-4.319-3.382-8.27-3.382-6.897 1.306-8.806 3.918c-1.908 2.612-2.879 6.596-2.879 11.953v40.614z"/><path d="m565.379 53.592h31.574v78.683h-31.574z"/><path d="m389.9 132.275-1.942-7.534c-3.793 3.397-8.188 6.055-12.958 7.835-4.654 1.674-9.877 2.511-15.636 2.511-8.873 0-15.737-2.176-20.592-6.529-4.855-4.386-7.276-10.558-7.265-18.515 0-7.735 2.41-13.494 7.165-17.21 4.754-3.717 13.828-6.395 27.087-8.103 1.674-.201 3.951-.502 6.763-.77 9.911-1.071 14.866-3.649 14.866-7.667 0-2.244-.937-3.918-2.712-4.956-1.808-1.038-4.654-1.54-8.571-1.54-3.248 0-5.726.67-7.467 1.909-1.741 1.272-2.745 3.247-3.046 5.893h-30.57c.168-8.806 3.75-15.469 10.849-19.989 7.098-4.52 17.511-6.764 31.305-6.764 6.462 0 12.422.569 17.913 1.808 5.458 1.206 9.744 2.813 12.79 4.889 3.684 2.477 6.329 5.323 7.802 8.471 1.507 3.181 2.243 7.701 2.243 13.593v43.862c-.015 1.341.271 2.668.837 3.884.578 1.141 1.459 2.103 2.545 2.779v2.243h-31.406zm-2.88-35.123c-2.98 1.172-6.964 2.377-11.92 3.683-7.834 2.043-11.718 4.855-11.718 8.304 0 2.243.77 3.951 2.343 5.223 1.541 1.272 3.717 1.875 6.563 1.875 5.223 0 9.04-1.205 11.417-3.583 2.411-2.444 3.583-6.261 3.583-11.518 0-1.104 0-1.975-.034-2.511z"/><path d="m151.071 92.799c0-13.024 3.962-23.281 11.887-30.77 7.935-7.5 18.783-11.283 32.645-11.283 13.861 0 24.743 3.75 32.611 11.283 7.902 7.5 11.853 17.757 11.853 30.77 0 13.125-3.973 23.46-11.92 31.005-7.901 7.5-18.75 11.261-32.544 11.283-13.828 0-24.677-3.75-32.645-11.283-7.902-7.534-11.864-17.868-11.887-31.005zm31.641 0c0 7.3 1.005 12.523 3.013 15.704 2.009 3.18 5.291 4.754 9.878 4.754s7.901-1.607 9.977-4.821c2.043-3.215 3.081-8.438 3.081-15.67 0-7.199-1.038-12.355-3.081-15.536-2.076-3.147-5.357-4.754-9.977-4.754-4.621 0-7.902 1.54-9.878 4.687-1.975 3.148-3.013 8.404-3.013 15.636z"/><path d="m582.355 16.996h.017c9.67 0 17.628 7.958 17.628 17.628 0 9.671-7.958 17.629-17.628 17.629-9.665 0-17.62-7.948-17.629-17.612.002-9.667 7.945-17.626 17.612-17.645z"/></g></svg>