<svg clip-rule="evenodd" fill-rule="evenodd" stroke-linejoin="round" stroke-miterlimit="2" viewBox="0 0 600 368" xmlns="http://www.w3.org/2000/svg"><g fill="#fff"><path d="m597.968 346.877c-2.556-3.481-6.348-4.201-11.642-4.201l-12.672-.053c-4.991-.053-7.357-.402-8.419-.652-1.319-.364-1.418-.395-1.418-2.655 0-2.411 0-3.632 14.554-3.632 5.915 0 8.342.493 9.305.758 1.464.455 1.464.455 1.464 3.367h9.738c-.084-4.641-.675-7.44-3.747-9.722-3.071-2.283-7.523-3.17-16.548-3.17-3.36 0-8.608.189-11.603.546-4.202.462-6.826 1.069-9.298 3.033-1.707 1.297-3.724 3.891-3.724 8.79 0 10.693 8.009 12.21 15.858 12.21 17.534 0 17.891 0 19.354.463.561.174 1.016.349 1.016 2.791s-.993 2.753-1.698 2.904c-3.789.56-7.616.813-11.444.759-9.784 0-12.089-.455-13.052-.819-.19-.281-.296-1.388-.334-3.914l-9.578.046c-.061.72-.069 1.41-.069 1.517 0 4.375.759 7.538 4.619 9.859 2.73 1.569 6.287 2.055 15.168 2.055 11.686 0 17.215-.531 20.476-2.033 3.853-1.85 5.726-5.346 5.726-10.685 0-3.231-.667-5.597-2.078-7.478z"/><path d="m381.015 342.676-12.68-.045c-2.821.048-5.64-.173-8.418-.66-1.305-.364-1.419-.387-1.419-2.647s0-3.64 14.561-3.64c6.143 0 8.555.553 9.313.758 1.434.455 1.434.455 1.434 3.375l9.753-.038c-.069-4.634-.652-7.417-3.739-9.723-3.087-2.305-7.531-3.17-16.533-3.17-3.39 0-8.615.198-11.611.546-4.194.463-6.78 1.055-9.321 3.034-1.698 1.304-3.716 3.89-3.716 8.797 0 10.747 8.024 12.195 15.858 12.195 17.542 0 17.898 0 19.347.47.576.175 1.024.334 1.024 2.791s-.994 2.746-1.707 2.897c-1.911.425-6.719.759-11.444.759-9.768 0-12.066-.455-13.059-.819-.167-.304-.296-1.388-.319-3.914l-9.563-.227c-.076.758-.084 1.676-.084 1.797 0 4.369.759 7.539 4.611 9.859 2.791 1.593 6.196 2.055 15.229 2.055 11.664 0 17.193-.538 20.476-2.032 3.792-1.835 5.703-5.309 5.703-10.686 0-3.238-.667-5.619-2.085-7.47-2.541-3.496-6.348-4.209-11.626-4.209z"/><path d="m38.625 354.143c0 3.124 0 3.124-2.465 3.488-1.251.175-7.523.455-11.3.455-4.74 0-9.586-.151-11.876-.409-2.291-.258-2.42-.652-2.647-1.995-.197-1.562-.539-7.098-.539-9.995 0-7.425 1.055-8.623 1.092-8.676.584-.417 3.239-1.115 14.486-1.115 8.706 0 11.307.667 11.853.842.918.356 1.138.432 1.176 3.094v3.602h9.442l-.038-2.426c-.099-5.916-.266-8.1-2.73-10.428-2.996-2.875-7.175-3.671-19.499-3.671-3.033 0-8.001.106-10.367.266-5.475.31-8.342.758-10.799 2.586-3.716 2.828-4.414 8.418-4.414 17.761s.956 13.613 3.678 16.108c3.231 2.973 8.001 3.428 22.691 3.428 11.513 0 15.851-.447 18.831-3.102 2.571-2.351 2.791-4.747 3.034-11.315l.098-2.487h-9.563z"/><path d="m181.384 350.776h30.184v-8.881h-30.184v-5.999h31.534v-8.881h-41.279v39.937h41.324v-8.866h-31.579z"/><path d="m461.988 350.776h30.207v-8.881h-30.207v-5.999h31.534v-8.881h-41.271v39.937h41.324v-8.866h-31.587z"/><path d="m399.163 335.896h18.732v31.056h9.761v-31.056h18.603v-8.881h-47.096z"/><path d="m251.892 354.977-18.953-27.962h-13.613v39.937h9.753v-28.659l19.567 28.659h6.537l19.218-28.455v28.455h9.745v-39.937h-13.659z"/><path d="m102.148 330.375c-3.178-2.988-7.971-3.489-20.811-3.489-3.268 0-9.76.16-12.051.266-4.921.311-7.583.758-10.162 2.571-3.883 2.851-4.596 7.993-4.596 17.101 0 6.068.25 9.42.895 11.846.982 3.809 4.074 6.73 7.933 7.493 2.958.599 9.199.88 19.619.88 12.279 0 16.617-.758 19.408-3.564 2.616-2.647 3.541-6.947 3.541-16.382 0-2.79-.182-6.446-.402-8.274-.386-3.678-1.107-6.378-3.374-8.448zm-6.591 7.584c.395 3.073.564 6.17.508 9.267.019 2.831-.166 5.66-.553 8.464-.251 1.175-.645 1.517-1.858 1.737-4.233.504-8.495.725-12.757.659-2.381 0-8.569-.151-10.534-.265-3.208-.205-4.633-.47-5.073-.887-.615-.668-.925-4.164-.925-10.443 0-7.759.841-9.184 1.099-9.45 1.327-1.145 10.087-1.145 12.976-1.145 9.389 0 12.18.091 14.918.493 1.987.288 2.093.933 2.199 1.57z"/><path d="m141.516 327.015h-28.114v39.937h28.5c10.618 0 14.19-.455 17.625-3.481 3.436-3.026 4.771-7.91 4.771-16.503 0-7.902-.607-12.521-3.929-15.88-3.549-3.549-7.409-4.073-18.853-4.073zm-18.361 8.881h18.254c4.05 0 5.605 0 6.659.083 3.398.228 4.224.857 4.702 1.373s1.691 2.571 1.691 9.397c0 10.071-2.472 10.617-3.792 10.928-1.797.402-1.82.409-8.987.409h-18.527z"/><path d="m312.062 327.015-23.988 39.937h11.209l4.429-7.417h27.416l4.414 7.417h11.088l-23.928-39.937zm-3.102 23.632 8.532-14.175 8.449 14.175z"/><path d="m546.101 332.574c-1.517-2.836-4.474-4.656-8.221-5.119-2.692-.341-2.874-.341-12.331-.44h-25.611v39.937h9.761v-13.537h15.865c7.88.045 7.88.045 9.495.296 1.433.189 1.79.811 1.926 1.911.198 1.289.182 1.334.182 5.574v5.756h9.768v-7.394c0-5.711-.121-7.865-2.275-10.064 2.389-1.972 2.943-5.051 2.943-9.495 0-3.216-.417-5.354-1.464-7.425zm-36.402 3.322h15.865c8.009 0 10.458.174 11.444.842.137.144.705 1.046.705 3.215.027 1.158-.129 2.312-.462 3.421-.448.758-2.73 1.16-7.197 1.16h-20.355z"/><path d="m311.105.389c-.094.044-.199.075-.294.132-.983.462-1.929 1-2.829 1.608h-.061c-.023.018-.049.033-.075.045-12.484 8.623-74.459 51.222-93.828 64.547-.841.568-1.651 1.181-2.427 1.835-1.722 1.186-3.318 2.546-4.763 4.057l-16.76 17.739-46.922 49.553c-1.775 1.932-2.676 4.513-2.487 7.129.173 2.747 1.37 5.332 3.352 7.243l13.302 12.946c2.864 2.955 7.305 3.793 11.05 2.085 2.396-.948 14.007-6.12 28.159-12.475l-33.855 38.154c-15.168 17.094-13.537 44.609 3.709 60.565l36.683 34.059c5.798 5.436 13.24 8.798 21.151 9.556.675.084 2.981.159 3.314.159h184.213c.821 0 1.575 0 2.268-.038.043-.002.086-.004.129-.007l-.129.007c-2.508.128-4.947-.882-6.628-2.752v.015l-13.545-14.114c-4.171-4.33-4.915-11.982-1.707-17.079 16.973-25.914 40.514-62.066 40.514-62.066v-.038l3.033-4.551c6.492-9.942 4.914-25.709-3.534-35.386l-10.974-12.582c-4.179-4.793-9.427-7.5-14.781-7.622-5.354-.121-10.306 2.42-13.727 7.175l-47.02 65.411c-1.596 2.354-4.212 3.822-7.053 3.959-2.951.074-5.792-1.149-7.766-3.345l-16.434-17.102c-4.664-4.868-5.309-12.938-1.517-17.943l49.644-64.797c3.618-4.717 5.248-11.11 4.604-18.019-.619-6.9-3.392-13.434-7.925-18.672l-12.135-13.878c-4.542-5.264-10.374-8.479-16.396-9.04-5.894-.648-11.736 1.708-15.532 6.264l-5.703 6.734-14.561 17.125-33.87 39.815c-4.171 4.915-11.679 4.702-16.737-.546l-16.586-17.268c-2.481-2.58-3.984-5.948-4.247-9.518-.321-3.3.724-6.591 2.889-9.101l55.81-61.293 19.559-21.492c2.677-2.952 5.872-5.389 9.425-7.193.019-.008.037-.017.055-.027l-.055.027zm71.927 254.958-16.608 24.906c-7.175 10.746-17.625 17.443-29.578 18.808-12.134 1.35-24.223-3.079-33.907-12.559l-45.67-44.798c-21.615-21.197-24.216-57.342-5.931-79.297l53.595-64.35 19.954-23.965c1.703-2.079 4.34-3.171 7.015-2.904 2.935.323 5.632 1.776 7.515 4.049l12.271 13.932c2.083 2.401 3.359 5.397 3.648 8.562.352 2.915-.41 5.858-2.131 8.236l-50.608 64.592c-8.638 11.027-7.181 29.001 3.262 39.748l16.684 17.154c4.907 5.036 11.035 7.584 17.253 7.251 6.219-.334 11.596-3.519 15.388-8.896l46.262-65.578c1.373-2.078 3.706-3.329 6.196-3.322 2.637.122 5.102 1.361 6.772 3.405l11.111 12.627c3.898 4.429 4.626 11.672 1.608 16.2l-43.987 66.048c-.025.057-.053.113-.083.167z"/></g></svg>