<svg clip-rule="evenodd" fill-rule="evenodd" stroke-linejoin="round" stroke-miterlimit="2" viewBox="0 0 600 177" xmlns="http://www.w3.org/2000/svg"><g fill="#fff"><path d="m0 62.35v-4.026c343.958-130.449 598.931.242 600 .791v3.235s-272.29-100.845-600 0z"/><path d="m364.529 75.91v12.816c-.562-1.075-1.311-2.272-3.287-3.949-3.271-2.775-16.233-7.954-22.583-9.129-6.347-1.174-17.185-1.408-24.03 2.193-3.765 1.981-5.314 3.239-5.202 6.788.494 3.812 5.112 5.746 8.917 7.329 4.44 1.585 18.013 5.269 25.414 7.381 7.281 2.081 19.366 4.757 25.733 14.672 2.458 4.993 2.3 11.887-1.028 16.563-6.264 7.608-16.698 9.874-26.837 10.131-7.742.191-14.467-.25-20.705-1.291-6.245-1.04-15.29-3.111-23.138-6.043v-14.569c3.886 8.085 13.469 11.462 16.401 12.685 2.723 1.142 10.946 3.866 17.04 4.311 6.078.445 21.556 1.747 27.291-5.745 1.783-2.327 1.306-4.788.512-6.216-3.68-5.425-13.49-7.755-21.364-9.983-10.824-3.062-21.488-6.289-22.443-6.689-7.687-2.692-15.237-7.342-16.665-16.141-.794-6.103 2.378-11.333 6.977-14.822 12.838-7.925 30.131-6.542 44.713-4.007 5.054.842 14.284 3.715 14.284 3.715"/><path d="m500.742 71.699v6.488c-2.855-2.935-6.708-4.705-11.203-3.118-1.538.525-3.037 2.243-3.13 5.188v13.017l14.493-.025v4.756h-14.493v37.348c.113 2.231 3.054 2.196 4.545 2.196v1.341h-19.885v-40.885h-10.137v-4.756h10.332v-11.986c.096-3.768 1.882-6.722 5.066-8.469 8.902-5.403 24.412-1.095 24.412-1.095"/><path d="m68.666 118.447c.397 6.341 5.06 12.288 10.662 14.506 5.601 2.218 6.155 2.166 12.681 2.458 6.525.287 21.479-3.172 26.552-9.829 1.584-2.535 2.298-5.391 2.298-8.563v-42.798c-.634-1.504-2.298-1.741-4.042-1.585v-1.267h19.735v64.121c.028 1.268 1.613 1.927 4.122 2.059v1.03h-19.853v-6.024c-5.868 3.329-11.321 5.656-21.125 7.452-9.8 1.795-29.561 1.187-39.947-6.894-4.119-3.093-6.657-8.169-6.734-13.555v-45.494c-.477-1.901-3.226-1.507-4.202-1.584v-1.111h19.853z"/><path d="m257.462 93.444.038 42.354c.013 1.786 3.333 2.032 4.119 2.071v.95h-19.972v-42.325c.017-1.76-2.759-1.76-4.08-1.744v-1.268z"/><path d="m57.724 161.816h11.167v2.496h-8.197v3.265h7.53v2.378h-7.53v3.706h8.773v2.5h-11.743z"/><path d="m97.296 161.816h2.727l6.622 10.216h.045v-10.216h2.704v14.345h-2.727l-6.622-10.213h-.045v10.213h-2.704z"/><path d="m141.346 164.312h-4.321v-2.496h11.609v2.496h-4.32v11.849h-2.968z"/><path d="m176.157 161.816h11.167v2.496h-8.197v3.265h7.53v2.378h-7.53v3.706h8.773v2.5h-11.743z"/><path d="m215.62 161.816h6.581c3.344 0 5.316 1.811 5.316 4.33 0 3.223-2.372 3.969-3.124 4.231l3.524 5.784h-3.435l-3.056-5.281h-2.839v5.281h-2.967zm2.967 6.686h3.236c1.507 0 2.592-.803 2.592-2.155 0-1.308-.976-2.153-3.034-2.153h-2.794z"/><path d="m258.541 164.312h-4.321v-2.496h11.608v2.496h-4.32v11.849h-2.967z"/><path d="m297.162 161.816h3.457l5.272 14.345h-3.101l-.91-2.782h-5.982l-.909 2.782h-3.101zm1.751 2.617h-.045l-2.173 6.568h4.389z"/><path d="m333.39 161.816h2.97v14.345h-2.97z"/><path d="m365.429 161.816h2.727l6.625 10.216h.045v-10.216h2.701v14.345h-2.724l-6.625-10.213h-.044v10.213h-2.705z"/><path d="m406.441 161.816h4.545l2.881 11.122h.042l2.883-11.122h4.408v14.345h-2.836v-11.967h-.045l-3.102 11.967h-2.791l-3.101-11.967h-.045v11.967h-2.839z"/><path d="m450.008 161.816h11.164v2.496h-8.197v3.265h7.535v2.378h-7.535v3.706h8.777v2.5h-11.744z"/><path d="m489.584 161.816h2.724l6.625 10.216h.042v-10.216h2.705v14.345h-2.727l-6.622-10.213h-.045v10.213h-2.702z"/><path d="m533.632 164.312h-4.321v-2.496h11.608v2.496h-4.317v11.849h-2.97z"/><path d="m249.652 84.04c5.47 0 9.903-3.216 9.903-7.188s-4.433-7.192-9.903-7.192c-5.466 0-9.899 3.22-9.899 7.192s4.433 7.188 9.899 7.188"/><path d="m168.087 71.436v26.723c1.857-.848 2.888-1.396 4.369-1.982 9.116-4.282 19.422-5.851 31.229-4.282l1.22.31c10.405 2.577 19.542 6.507 24.062 16.967 2.298 7.137.554 14.825-4.043 20.135-5.707 5.943-11.647 8.623-20.464 10.552-6.389 1.044-13.852 1.258-19.559-.011-4.993-.871-8.773-2.66-13.318-4.753-1.402-.487-2.218-1.112-3.405-1.428v4.999h-19.544l-.035-1.117c1.664 0 4.394-.71 4.542-2.295v-60.636c-.16-.95-1.079-1.516-1.53-1.824-.452-.3-2.772-.157-2.772-.157v-1.2h19.248zm23.112 65.344c12.64 0 23.679-9.326 23.679-20.829s-11.039-20.83-23.679-20.83c-12.636 0-24.468 9.327-24.468 20.83s11.832 20.829 24.468 20.829"/><path d="m380.29 116.479c-.244-14.233 17.276-25.362 38.711-25.362s39.432 11.32 39.432 25.56c0 14.236-17.601 24.965-39.035 24.965-21.435 0-38.836-9.31-39.108-25.163zm38.116 21.002c14.463 0 23.093-9.553 23.32-21.002.258-13.078-11.084-21.4-22.924-21.4-11.839 0-21.994 9.948-21.994 21.4s9.762 21.002 21.598 21.002"/><path d="m513.913 98.053h-10.713v-4.76h10.665v-19.069c0-.941-1.565-1.421-4.19-1.43v-1.217h19.521v21.905h15.455l.16 4.677-15.689-.007v32.743c0 2.426 2.228 5.3 7.678 4.259 5.448-1.039 7.032-2.227 8.123-2.822v5.45c-2.675.89-10.559 3.668-23.38 1.783-3.37-.497-7.63-2.826-7.63-10.504z"/></g></svg>