<svg clip-rule="evenodd" fill-rule="evenodd" stroke-linejoin="round" stroke-miterlimit="2" viewBox="0 0 600 296" xmlns="http://www.w3.org/2000/svg"><path d="m221.534 172.187v4.717c0 7.472-2.458 14.65-7.373 21.534-4.129 5.899-10.028 11.207-17.698 15.924-5.9 3.739-12.095 6.641-18.585 8.705-6.491 2.065-12.094 3.097-16.811 3.097-8.457 0-14.947-1.082-19.472-3.245-4.525-2.164-7.624-4.867-9.295-8.111s-2.507-6.537-2.507-9.88c0-4.327 1.524-8.112 4.573-11.356s6.638-4.572 10.767-3.984c3.54.391 6.246 1.816 8.115 4.276 1.87 2.461 2.999 5.558 3.39 9.291-.001 4.327-.688 7.573-2.062 9.74 11.997-2.167 22.124-6.986 30.382-14.457 8.258-7.472 12.387-16.222 12.387-26.251v-1.773c0-5.9-2.457-12.093-7.372-18.581-5.51-7.081-11.016-14.259-16.519-21.533-.001-7.081 7.57-13.866 22.712-20.354 23.207-10.034 37.269-16.819 42.184-20.354 15.142-10.622 22.712-24.488 22.713-41.599-.001-23.987-16.619-35.981-49.854-35.981-15.73 0-31.315 3.047-46.753 9.141-15.439 6.095-31.32 15.732-47.644 28.911-13.173 10.617-25.856 23.005-38.048 37.165-12.192 14.161-22.712 28.713-31.561 43.656-8.849 14.944-15.044 28.711-18.585 41.302-2.167 8.258-3.25 15.631-3.25 22.119 0 7.669.786 14.355 2.359 20.056 3.937 12.783 12.098 19.175 24.486 19.175 5.899 0 11.455-1.622 16.667-4.866s10.276-8.013 15.191-14.309c8.066-10.616 15.934-24.675 23.604-42.175l18.283-42.184 5.311-10.92c10.227-19.072 17.603-32.05 22.128-38.934 11.012-16.714 21.041-27.627 30.085-32.741 4.915-2.754 9.88-5.017 14.894-6.787 5.014-1.771 9.391-2.656 13.13-2.656 3.54 0 5.41.984 5.608 2.953.192 1.572-3.841 4.816-12.099 9.731-5.701 3.541-11.01 8.36-15.925 14.458-8.654 10.814-20.357 32.545-35.108 65.193l-6.194 13.566-12.684 28.321c-4.129 8.648-6.784 14.251-7.967 16.807-4.717 9.05-10.025 17.506-15.924 25.368-3.739 5.312-7.868 10.032-12.387 14.161-7.082 6.493-14.212 11.263-21.389 14.309-7.178 3.045-14.503 4.568-21.975 4.568-10.82 0-20.802-2.997-29.945-8.993-9.144-5.995-15.978-14.01-20.503-24.045-3.343-7.273-5.014-14.943-5.014-23.009 0-1.765.198-4.222.594-7.373l2.062-11.793c1.572-7.081 3.588-14.162 6.049-21.24 2.461-7.079 5.362-13.961 8.705-20.647 18.485-37.959 47.588-69.424 87.312-94.396 37.563-23.598 74.142-35.397 109.736-35.397 24.384 0 43.361 4.425 56.93 13.274s20.354 22.222 20.354 40.118c0 22.025-10.719 38.937-32.156 50.736-23.208 7.67-46.412 15.34-69.613 23.01l.585 2.358c9.242 5.504 16.715 11.353 22.42 17.55 5.704 6.196 8.556 14.408 8.556 24.634zm189.676-60.179c8.059-13.767 15.63-28.123 22.712-43.067 8.06-17.109 12.089-28.515 12.09-34.217-.001-2.364-.787-3.546-2.359-3.547-3.535.001-10.072 5.459-19.611 16.375-9.54 10.917-17.161 21.685-22.865 32.305-5.705 10.619-9.737 18.486-12.095 23.599-4.129 8.846-7.766 17.794-10.91 26.844-3.938 11.403-6.788 23.595-8.552 36.576 12.188-12.783 22.217-24.975 30.085-36.576zm70.495 7.373c4.525-8.654 8.657-17.11 12.396-25.369 4.717-10.616 7.076-17.794 7.076-21.533 0-2.952-1.081-4.429-3.241-4.429-3.151 0-8.561 4.919-16.231 14.755-6.686 8.654-13.272 18.487-19.759 29.5l-8.849 17.995c-2.755 6.092-4.919 11.793-6.491 17.104-1.573 5.312-3.049 12.096-4.429 20.354 7.279-5.899 13.672-11.898 19.179-17.995 5.506-6.098 10.324-12.585 14.453-19.463zm89.68 52.806-20.651 42.175-30.382 62.538c-3.146 6.494-5.897 11.019-8.255 13.576-2.953 3.342-6.002 5.014-9.146 5.014-1.381 0-2.759-.393-4.132-1.18-3.932-2.364-5.897-5.512-5.897-9.443 0-3.145 1.08-6.781 3.241-10.91l31.859-59.595 5.311-9.731c-3.74 3.739-8.166 6.983-13.278 9.731-7.077 3.739-13.27 5.609-18.581 5.609-5.51 0-9.837-1.87-12.981-5.609-2.359-2.748-4.324-6.778-5.896-12.09-3.152 3.931-7.38 7.961-12.684 12.09-4.328 3.151-8.704 5.66-13.13 7.526-4.427 1.867-8.704 2.8-12.833 2.8-8.06 0-14.845-3.442-20.353-10.326-1.771-2.16-3.542-4.912-5.312-8.255-1.176 1.375-2.552 2.898-4.127 4.569-1.576 1.671-3.15 2.999-4.722 3.983-5.504 4.129-11.55 7.621-18.139 10.474-6.59 2.854-12.538 4.281-17.842 4.281-5.312 0-9.935-1.328-13.868-3.984-3.935-2.655-7.375-6.345-10.321-11.068l-2.953-5.014-5.608 5.014c-11.601 10.227-23.106 15.34-34.515 15.34-5.305 0-9.925-1.376-13.858-4.127-3.935-2.752-7.279-6.49-10.033-11.213l-2.656-5.302-5.311 5.302c-4.718 4.327-9.24 7.426-13.566 9.295-4.328 1.87-9.144 2.804-14.449 2.804-9.248 0-15.544-4.033-18.886-12.099-2.359-5.113-3.539-11.207-3.538-18.283-.001-6.494 1.968-14.457 5.905-23.892 3.535-7.67 7.811-14.996 12.828-21.979 5.017-6.982 10.965-13.618 17.842-19.908 8.456-7.67 17.355-13.767 26.696-18.292s19.029-6.788 29.064-6.788c12.188 0 18.283 4.918 18.283 14.755.396 3.733-1.176 7.175-4.717 10.325-1.969 1.765-4.231 2.746-6.788 2.944-3.343 0-5.947-.294-7.813-.882-1.867-.588-3.392-1.424-4.574-2.507-1.182-1.084-1.97-2.608-2.363-4.574-.393-1.965-.933-3.047-1.62-3.245s-1.523-.297-2.507-.297c-4.718 0-10.716 2.854-17.995 8.561-6.29 4.915-12.238 11.011-17.843 18.288s-10.129 14.995-13.57 23.154c-3.443 8.159-5.163 15.779-5.163 22.861 0 3.144.442 5.898 1.328 8.259.885 2.362 3.098 3.542 6.639 3.542 4.326 0 9.734-3.639 16.222-10.919 5.113-5.702 10.718-13.467 16.816-23.298 2.946-4.723 5.993-9.887 9.141-15.493 3.148-5.605 5.607-10.079 7.378-13.422.984-1.374 4.62-2.061 10.91-2.061 3.937 0 7.182.343 9.736 1.031 2.553.687 3.635 1.721 3.245 3.101l-11.801 26.844c-2.755 6.29-4.526 10.518-5.312 12.684-1.374 3.343-2.848 7.571-4.42 12.684-.396 1.573-.594 2.653-.594 3.241 0 1.969.835 3.395 2.507 4.281 1.671.885 3.884 1.327 6.639 1.327 2.953 0 7.575-2.31 13.868-6.931 6.292-4.621 10.225-8.015 11.797-10.182 0-2.946 0-5.747 0-8.403s.198-5.556.595-8.701c-.001-6.883.785-13.521 2.358-19.913 1.572-6.391 3.832-13.716 6.779-21.974 1.572-3.937 3.195-7.92 4.87-11.95 1.674-4.03 3.492-8.209 5.455-12.536 11.211-23.597 24.585-44.344 40.123-62.241 17.103-19.666 31.558-29.499 43.363-29.5 5.701.001 9.781 1.622 12.239 4.866 2.457 3.244 3.686 7.816 3.686 13.715 0 10.028-3.244 22.91-9.731 38.646-4.724 11.403-10.92 23.595-18.59 36.576-2.161 3.739-4.273 7.23-6.337 10.474-2.065 3.244-4.673 7.227-7.823 11.95-5.114 7.472-10.374 14.501-15.781 21.088-5.408 6.586-11.748 13.52-19.021 20.799l-15.934 14.746c-.001 4.915 1.573 9.389 4.721 13.422s7.671 6.049 13.571 6.049c3.931 0 8.945-1.968 15.043-5.905 4.914-3.145 9.043-6.488 12.387-10.028l2.07-18.284c2.16-13.965 6.583-27.927 13.269-41.887l6.194-12.099c9.248-17.308 20.95-33.336 35.108-48.085 14.157-14.748 24.972-22.122 32.444-22.123 4.921.001 8.414 1.378 10.479 4.132 2.063 2.755 3.096 6.884 3.096 12.387 0 8.457-2.41 18.733-7.228 30.828-4.82 12.096-10.672 23.75-17.555 34.96-4.915 7.664-9.93 14.842-15.042 21.533-6.488 8.258-12.682 15.043-18.581 20.354-4.723 4.321-10.035 8.351-15.934 12.09-.198.786-.297 1.966-.297 3.538 0 3.739 1.032 6.887 3.097 9.443 2.064 2.557 5.752 3.835 11.064 3.835 4.722 0 9.641-2.261 14.754-6.783s10.322-11.896 15.628-22.123l1.773-3.547c3.343-6.883 6.98-13.764 10.911-20.642 3.15-5.509 6.691-11.408 10.623-17.698l12.09-19.769c.395-.588 1.921-1.177 4.577-1.768 2.655-.592 5.162-.887 7.521-.887 3.739 0 6.689.345 8.85 1.035 2.16.69 2.847 1.918 2.061 3.682-.193.594-.88 1.972-2.061 4.132-2.161 3.937-4.718 8.462-7.67 13.575-3.74 6.29-7.575 13.074-11.505 20.354-4.718 8.648-8.355 15.826-10.911 21.533-4.129 8.846-6.194 15.532-6.193 20.057-.001 3.733 1.572 5.599 4.717 5.599 4.717 0 9.239-1.769 13.566-5.306 4.327-3.538 9.833-10.321 16.519-20.35 4.723-7.081 9.05-14.114 12.981-21.096 3.931-6.983 7.667-13.913 11.208-20.791l8.264-17.113c.786-1.182 2.358-1.92 4.717-2.214 2.358-.294 4.915-.441 7.67-.442 3.93.001 7.077.344 9.439 1.031 2.361.687 3.148 1.721 2.363 3.101l-7.67 15.637z" fill="#fff" fill-rule="nonzero"/></svg>