<svg clip-rule="evenodd" fill-rule="evenodd" stroke-linejoin="round" stroke-miterlimit="2" viewBox="0 0 600 191" xmlns="http://www.w3.org/2000/svg"><g fill="#fff" fill-rule="nonzero"><path d="m94.478.439c-49.802 0-90.601 38.401-94.478 87.202l50.813 21.009c4.306-2.945 9.507-4.67 15.103-4.67.502 0 1.001.017 1.496.045l22.597-32.753c0-.157-.002-.309-.002-.463 0-19.715 16.037-35.754 35.754-35.754 19.714 0 35.751 16.039 35.751 35.754s-16.037 35.756-35.751 35.756c-.272 0-.542-.007-.813-.013l-32.228 22.996c.017.418.032.844.032 1.268 0 14.801-12.038 26.837-26.836 26.837-12.989 0-23.851-9.271-26.311-21.549l-36.339-15.024c11.252 39.794 47.811 68.968 91.212 68.968 52.36 0 94.805-42.447 94.805-94.801 0-52.363-42.447-94.808-94.805-94.808"/><path d="m59.41 144.29-11.646-4.811c2.064 4.297 5.634 7.895 10.375 9.871 10.248 4.269 22.063-.593 26.334-10.85 2.069-4.96 2.081-10.435.03-15.407-2.046-4.975-5.908-8.854-10.874-10.924-4.927-2.051-10.205-1.976-14.843-.225l12.029 4.974c7.559 3.151 11.134 11.83 7.983 19.389-3.144 7.561-11.83 11.136-19.388 7.983"/><path d="m149.582 70.809c0-13.135-10.686-23.823-23.823-23.823-13.136 0-23.823 10.688-23.823 23.823 0 13.137 10.687 23.821 23.823 23.821 13.137-.002 23.823-10.686 23.823-23.821m-41.68-.041c0-9.884 8.013-17.895 17.897-17.895s17.898 8.011 17.898 17.895-8.014 17.895-17.898 17.895-17.897-8.013-17.897-17.895"/><path d="m290.531 65.305-6.353 11.166c-4.892-3.418-11.523-5.476-17.312-5.476-6.616 0-10.709 2.739-10.709 7.645 0 5.96 7.272 7.347 18.079 11.226 11.618 4.108 18.296 8.936 18.296 19.577 0 14.558-11.448 22.734-27.903 22.734-8.02 0-17.694-2.07-25.13-6.594l4.633-12.379c6.041 3.191 13.268 5.084 19.71 5.084 8.684 0 12.812-3.204 12.812-7.941 0-5.419-6.294-7.048-16.455-10.413-11.579-3.866-19.603-8.939-19.603-20.715 0-13.281 10.636-20.909 25.94-20.909 10.667 0 19.239 3.38 23.995 6.995"/><path d="m340.187 72.363v58.591h-14.957v-58.591h-21.71v-12.829h58.312v12.829z"/><path d="m393.362 72.324v16.093h28.624v12.829h-28.624v16.761h33.21v12.947h-48.163v-71.42h48.163v12.79z"/><path d="m459.955 117.088-4.727 13.868h-15.679l26.778-71.42h15.055l27.535 71.418h-16.208l-4.831-13.869h-27.923zm13.815-40.516-9.753 28.596h19.708z"/><path d="m585.677 87.14-19.545 41.733h-8.439l-19.229-41.361v43.442h-14.322v-71.42h14.29l24.003 51.555 23.15-51.555h14.415v71.42h-14.32z"/></g></svg>