<svg clip-rule="evenodd" fill-rule="evenodd" stroke-linejoin="round" stroke-miterlimit="2" viewBox="0 0 600 64" xmlns="http://www.w3.org/2000/svg"><g fill="#fff"><g fill-rule="nonzero"><path d="m77.801.637c-5.332 0-9.625 4.292-9.625 9.625v36.093c0 5.332 4.293 9.625 9.625 9.625h12.833v7.218h12.031v-7.218h13.635c5.333 0 9.625-4.293 9.625-9.625v-36.093c0-5.333-4.292-9.625-9.625-9.625zm2.406 9.625h32.885v35.291h-10.427v-5.615h-12.031v5.615h-10.427z"/><path d="m11.229.637c-5.332 0-9.625 4.292-9.625 9.625v12.833c0 5.332 4.293 9.625 9.625 9.625h36.895v12.833h-48.124v.802c0 5.332 4.293 9.625 9.625 9.625h39.301c5.333 0 9.625-4.293 9.625-9.625v-14.438c0-5.332-4.292-9.624-9.625-9.624h-36.895v-12.031h34.489v4.812h11.229v-4.812c0-5.333-4.293-9.625-9.625-9.625h-36.895z"/><path d="m135.55.637v45.718c0 5.332 4.293 9.625 9.625 9.625h34.489c5.332 0 9.625-4.293 9.625-9.625v-45.718h-12.031v44.916h-29.677v-44.916z"/><path d="m219.367 1.439-27.672 54.541h12.031l6.116-12.031h31.08l6.116 12.031h12.031l-27.671-54.541-.401-.802h-11.229zm6.015 11.855 10.678 21.03h-21.355z"/><path d="m264.684.637v55.343h12.031v-20.854h7.619l20.052 20.854h16.042l-20.052-20.854h6.015c5.332 0 9.625-4.293 9.625-9.625v-15.239c0-5.333-4.293-9.625-9.625-9.625h-41.707zm12.031 9.625h24.062c1.777 0 3.208 1.43 3.208 3.208v8.823c0 1.777-1.431 3.208-3.208 3.208h-24.062z"/><path d="m326.443.637v55.343h46.52v-10.427h-34.489v-35.291h34.489v-9.625h-46.52z"/></g><path d="m348.901 22.293h20.052v10.427h-20.052z"/><path d="m398.63.637v55.343h46.52v-10.427h-34.489v-35.291h34.489v-9.625h-46.52z" fill-rule="nonzero"/><path d="m421.088 22.293h20.052v10.427h-20.052z"/><path d="m454.775.637v55.343h11.229v-39.151l28.874 34.439.802.953 3.159 3.759h8.07v-55.343h-12.031v37.246l-28.874-34.439-2.356-2.807h-8.873z" fill-rule="nonzero"/><path d="m516.534.637h12.833v55.343h-12.833z"/><path d="m535.734.637 24.087 26.744-24.238 28.599h14.438l17.244-20.328 18.298 20.328h14.437l-25.742-28.599 22.684-26.744h-14.438l-15.691 18.498-16.642-18.498h-14.437z" fill-rule="nonzero"/></g></svg>