<svg clip-rule="evenodd" fill-rule="evenodd" stroke-linejoin="round" stroke-miterlimit="2" viewBox="0 0 600 119" xmlns="http://www.w3.org/2000/svg"><g fill="#fff"><g fill-rule="nonzero"><path d="m35.031 44.161 19.083-38.686 19.32 38.686 18.631-42.542h16.306l-34.937 73.422-19.32-41.773-20.104 41.773-34.01-73.422h16.198z"/><path d="m153.703 55.862c-4.854 5.554-11.226 8.616-18.62 8.616-9.719 0-18.951-6.029-19.652-14.526h53.425v-2.16c0-21.657-20.007-31.199-33.43-31.199-22.428 0-35.482 14.525-35.482 29.276 0 14.645 13.054 29.265 35.482 29.17 11.547 0 22.192-5.102 29.953-13.504zm-38.272-15.782c2.195-8.284 9.364-12.935 18.144-12.935 8.794 0 16.08 4.438 19.07 12.935z"/><path d="m239.502 39.949c.688 1.935 1.162 3.643 1.162 8.318 0 13.577-11.44 27.152-33.061 27.152-11.914 0-22.453-4.676-28.457-10.04l10.752-7.868c3.132 2.741 9.481 6.611 18.394 6.611 8.781 0 16.875-4.225 17.705-13.577h-47.777c-.357-1.709-.808-3.062-.808-5.815 0-14.834 12.484-28.054 32.848-28.054 13.173 0 21.504 5.365 25.895 9.707l-9.945 7.856c-3.347-3.18-7.619-6.954-16.198-6.954-11.547 0-16.863 5.482-17.919 12.662h47.409z"/><path d="m245.863 18.173h7.879v-14.834l13.885-3.204v18.038h9.825v11.298h-9.825v44.453h-13.885v-44.453h-7.879z"/><path d="m309.992 48.386h.226l13.421-26.807 13.41 26.807h.238l11.439-30.213h14.929l-24.874 57.247-15.023-30.119h-.226l-15.036 30.119-24.861-57.247h14.917z"/><path d="m366.076 46.108c0 14.715 13.078 29.312 35.506 29.312 22.453 0 35.507-14.597 35.507-29.312 0-14.833-13.054-29.43-35.507-29.43-22.428 0-35.506 14.597-35.506 29.43zm14.597 0c0-10.04 8.782-18.133 20.909-18.133 12.128 0 20.934 8.093 20.934 18.133 0 9.922-8.805 18.015-20.934 18.015-12.128 0-20.909-8.095-20.909-18.015"/><path d="m447.509 46.108c0 14.715 13.053 29.312 35.506 29.312 22.428 0 35.507-14.597 35.507-29.312 0-14.833-13.079-29.43-35.507-29.43-22.453 0-35.506 14.597-35.506 29.43zm14.572 0c0-10.04 8.794-18.133 20.934-18.133 12.152 0 20.922 8.093 20.922 18.133 0 9.922-8.77 18.015-20.922 18.015-12.141 0-20.934-8.095-20.934-18.015"/><path d="m584.763 73.924h13.884v-72.294h-13.884v23.379h-.238c-3.572-4.795-10.965-8.331-20.458-8.331-20.934 0-34.106 15.616-34.106 29.43 0 14.383 12.246 29.312 33.417 29.312 8.782 0 16.768-3.204 21.147-8.331h.238zm-40.111-27.816c0-10.04 9.233-18.133 20.459-18.133 10.87 0 20.245 8.093 20.245 18.133 0 9.922-9.375 18.015-20.245 18.015-11.226 0-20.459-8.095-20.459-18.015"/></g><path d="m3.536 81.994h596.464v36.835h-596.464v-36.835zm197.231 7.524h4.77v12.293c0 4.083 2.967 6.527 6.646 6.527 3.727 0 6.646-2.444 6.646-6.527v-12.293h4.747v13.172c0 5.15-4.545 9.565-11.393 9.565-6.859 0-11.416-4.415-11.416-9.565zm-156.064 8.972c.201.736.25 1.494.25 2.8 0 7.05-6.052 10.965-12.651 10.965-6.028 0-10.11-3.56-11.499-5.387l4.046-2.112c1.733 2.112 4.26 3.798 7.667 3.798 5.34 0 7.666-3.441 7.666-6.385h-19.379c-.154-.855-.25-1.613-.25-3.132 0-5.554 5.293-9.969 12.246-9.969 5.365 0 8.592 2.065 10.894 4.842l-3.75 2.255c-1.994-2.421-4.581-3.418-7.57-3.418-3.063 0-6.884 1.614-7.061 5.744h19.391zm539.039 0c.213.736.25 1.494.25 2.8 0 7.05-6.029 10.965-12.638 10.965-6.029 0-10.11-3.56-11.725-5.387l4.058-2.112c1.946 2.112 4.486 3.798 7.88 3.798 5.34 0 7.667-3.441 7.667-6.385h-19.391c-.141-.855-.463-1.613-.463-3.132 0-5.554 5.519-9.969 12.472-9.969 5.365 0 8.592 2.065 10.918 4.842l-3.774 2.255c-1.994-2.444-5.198-3.418-7.571-3.418-3.037 0-6.883 1.614-7.072 5.744h19.389zm-118.481 2.183c0 6.503 6.123 11.582 13.79 11.582 7.666 0 13.79-5.079 13.79-11.582 0-6.55-6.124-11.606-13.79-11.606-7.667 0-13.79 5.055-13.79 11.606zm-75.617-11.155h4.747v22.286h-4.747zm-277.097 0h19.771v3.892h-7.5v18.394h-4.771v-18.394h-7.5zm181.899 22.286h10.823c8.473 0 13.743-5.245 13.743-11.131 0-5.934-5.092-11.155-13.743-11.155h-10.823zm175.847-11.131c0-4.344 4.154-7.714 8.758-7.714s8.757 3.37 8.757 7.714c0 4.296-4.153 7.667-8.757 7.667s-8.758-3.371-8.758-7.667zm-171.112-7.263h6.088c5.506 0 9.043 3.299 9.043 7.263 0 3.916-3.537 7.216-9.043 7.216h-6.088z"/></g></svg>