<svg clip-rule="evenodd" fill-rule="evenodd" stroke-linejoin="round" stroke-miterlimit="2" viewBox="0 0 600 442" xmlns="http://www.w3.org/2000/svg"><g fill="#fff" fill-rule="nonzero"><path d="m267.445 231.278h-159.667l36.6-57.226h99.193l36.226-57.019h-221.304l-36.059 57.019h53.111l-72.326 114.286h297.29l112.919-179.29 40.842 64.92h-35.227l-36.018 57.31h107.429l36.142 57.06h68.542l-181.71-287.671zm-136.917-228.49-35.935 57.019 234.739-.083 35.975-56.936z"/><path d="m82.89 414.728c0 7.278-2.537 13.599-7.569 18.673-5.116 5.074-11.354 7.652-18.591 7.652h-30.819c-7.403 0-13.6-2.495-18.549-7.402-4.867-4.908-7.362-10.98-7.362-18.466v-12.227h19.007l2.911 11.312c1.248 4.741 4.451 7.112 9.649 7.112h20.962c2.662 0 4.741-.998 6.405-2.828 1.58-1.955 2.371-4.45 2.371-7.32v-13.475c0-6.571-2.87-9.981-8.776-9.981h-26.368c-7.154 0-13.309-2.495-18.508-7.528-5.033-5.24-7.653-11.478-7.653-18.798v-17.717c0-7.111 2.62-13.267 7.653-18.424 5.199-5.157 11.354-7.652 18.508-7.652h30.569c7.237 0 13.392 2.454 18.383 7.278 5.032 4.908 7.403 11.063 7.403 18.466v11.062h-18.882l-2.828-10.023c-1.498-4.824-4.783-7.153-9.608-7.153h-20.629c-2.745 0-4.866.998-6.488 2.953-1.664 1.871-2.412 4.284-2.412 7.278v10.397c0 6.446 2.953 9.69 8.9 9.69h26.161c7.153 0 13.392 2.579 18.424 7.819 5.199 5.199 7.736 11.271 7.736 18.424z"/><path d="m190.706 369.574c0 7.195-2.662 13.392-7.778 18.507-5.199 5.157-11.479 7.736-18.674 7.736h-33.938v45.249h-21.835v-123.395h55.773c7.195 0 13.475 2.579 18.674 7.653 5.116 5.074 7.778 11.229 7.778 18.34zm-30.736-31.982h-29.654v38.262h29.654l6.322-2.869c1.622-1.913 2.412-4.284 2.412-7.32v-17.966c0-2.995-.79-5.282-2.412-7.237z"/><path d="m384.319 441.07-20.047-48.243h-20.712v48.243h-21.877v-123.394h54.609c7.32 0 13.475 2.578 18.549 7.61 5.074 5.157 7.695 11.354 7.695 18.383v21.501c0 5.615-1.581 10.689-4.617 15.139-3.202 4.491-7.195 7.694-12.103 9.731l21.71 51.03zm-12.145-103.473h-28.614v35.267h28.614l6.031-2.745c1.664-1.871 2.412-4.242 2.412-7.236v-15.222c0-2.869-.748-5.24-2.412-7.236z"/><path d="m501.118 337.572h-31.651v103.473h-21.793v-103.473h-31.443v-19.88h84.887z"/><path d="m600 414.728c0 7.278-2.579 13.599-7.57 18.673-5.198 5.074-11.395 7.652-18.715 7.652h-30.819c-7.32 0-13.475-2.495-18.508-7.402-4.866-4.908-7.403-10.98-7.403-18.466v-12.227h19.048l2.829 11.312c1.331 4.741 4.575 7.112 9.732 7.112h20.962c2.62 0 4.783-.998 6.446-2.828 1.581-1.955 2.246-4.45 2.246-7.32v-13.475c0-6.571-2.828-9.981-8.692-9.981h-26.286c-7.237 0-13.475-2.495-18.549-7.528-5.074-5.24-7.736-11.478-7.736-18.798v-17.717c0-7.111 2.662-13.267 7.736-18.424s11.312-7.652 18.549-7.652h30.445c7.32 0 13.433 2.454 18.424 7.278 4.95 4.908 7.487 11.063 7.487 18.466v11.062h-18.924l-2.911-10.023c-1.498-4.824-4.7-7.153-9.566-7.153h-20.712c-2.662 0-4.908.998-6.405 2.953-1.664 1.871-2.413 4.284-2.413 7.278v10.397c0 6.446 2.953 9.69 8.818 9.69h26.202c7.236 0 13.35 2.579 18.424 7.819 5.282 5.199 7.861 11.271 7.861 18.424z"/><path d="m264.583 337.572h-20.962l-6.405 2.869c-1.497 1.955-2.329 4.326-2.329 7.279v63.215c0 2.911.832 5.24 2.329 7.195l6.405 3.077h20.962l6.322-3.077c1.664-1.955 2.495-4.284 2.495-7.195v-63.215c0-2.953-.831-5.324-2.495-7.279zm30.569 76.981c0 7.486-2.537 13.724-7.652 18.84-5.241 5.032-11.313 7.652-18.716 7.652h-29.488c-7.278 0-13.6-2.62-18.633-7.652-5.074-5.116-7.735-11.354-7.735-18.84v-70.951c0-6.987 2.661-13.225 7.735-18.299 5.033-5.115 11.355-7.611 18.633-7.611h29.488c7.403 0 13.475 2.496 18.716 7.528 5.115 4.991 7.652 11.271 7.652 18.382z"/></g></svg>