<svg clip-rule="evenodd" fill-rule="evenodd" stroke-linejoin="round" stroke-miterlimit="2" viewBox="0 0 600 133" xmlns="http://www.w3.org/2000/svg"><path d="m0 .634v46.857c7.073 2.302 11.864 8.729 11.864 15.916-.001 7.186-4.792 13.612-11.864 15.914v53.448h600v-132.135h-600zm530.383 17.028c-26.737.209-48.303 22.184-48.303 49.219.001 27.182 21.795 49.218 48.679 49.218 26.885 0 47.907-22.036 47.908-49.218-.001-27.183-21.023-49.219-47.908-49.219-.125-.001-.251-.001-.376 0zm-494.749 4.036h21.939v91.091h-21.939zm26.726 49.94 33.467 41.151h29.422l-44.923-49.457 39.144-41.634h-26.485l-30.625 32.575zm359.119 0 34.886 41.151h28.222l-45.25-49.021 40.235-42.07h-27.14l-30.953 34.648zm-261.126-49.94h23.644l42.809 91.091h-97.392v-8.045l22.151-47.913h21.91l-16.131 37.68h36.476zm154.261 27.13v63.961h-21.211v-53.469c0-11.677-8.661-18.206-17.614-18.206h-20.212v71.675h-22.599v-90.962h51.143c19.683 0 30.493 14.379 30.493 27.001zm15.246 5.86v58.101h81.805v-19.327h-62.478v-19.447h62.478v-19.327zm201.034-16.815h.097c14.23.001 24.994 12.954 24.994 28.931-.001 15.976-10.764 27.847-24.994 27.848s-25.767-11.87-25.768-27.848c-.001-15.936 11.477-28.871 25.671-28.931zm-201.034-15.871v16.825h81.937v-16.825z" fill="#fff"/></svg>