<svg clip-rule="evenodd" fill-rule="evenodd" stroke-linejoin="round" stroke-miterlimit="2" viewBox="0 0 600 128" xmlns="http://www.w3.org/2000/svg"><g fill="#fff"><path d="m192.228 36.395-13.026-33.63h-47.826l-11.084 29.241-.537-1.044s-15.343-30.538-54.659-30.538c-40.699 0-65.096 29.104-65.096 63.174 0 33.926 30.746 61.351 69.782 61.345h191.158v-31.306c7.211-2.643 13.632-5.998 18.681-9.085 11.446 26.077 37.145 40.394 66.654 40.394h42.135v-8.8c9.362 5.769 22.519 11.395 38.216 11.395 11.791 0 22.358-3.731 30.291-7.728v5.187h64.682v-19.265h10.737v19.213h67.664v-44.43l-5.971.742-6.164-39.32 4.091-1.149v-38.026h-124.264v9.651c-10.73-7.806-24.333-12.379-39.507-12.379-16.514 0-34.236 5.315-47.498 16.366-10.249-10.146-25.158-16.236-44.804-16.236-18.612 0-32.849 6.604-43.921 17.35-2.726-3.328-5.788-6.087-9.574-8.322-6.824-4.029-16.265-6.43-31.405-6.43h-58.755zm-80.394-1.353-27.525 29.073-18.179-12.463s5.981-5.708.525-9.866c-4.255-3.242-16.19 3.635-15.673 17.138.606 15.576 10.23 24.399 20.861 24.399 9.874 0 12.466-7.96 12.466-7.96h22.12v18.353l31.098-82.042h35.571l28.562 73.738s2.076 3.887 4.152 4.926c0 0 .119-48.37.119-49.729 0-1.353-.179-2.85-1.026-3.821-1.394-1.605-3.768-2.271-3.768-2.271v-22.843h49.846c25.855 0 32.486 7.01 39.983 20.513 10.349-13.936 24.599-23.111 44.917-23.111 20.902 0 35.693 7.705 44.14 20.51 11.797-14.104 30.786-20.64 48.162-20.64 21.354 0 39.187 10.35 48.416 26.353v-23.625h48.026l5.062 12.845 3.77-12.845h49.588v22.323s-2.861.785-3.651 2.073c-.769 1.272-.633 5.332-.633 5.332l6.917 44.127c.29 1.434.801 2.934 2.038 4.032 1.435 1.283 3.373 1.042 3.373 1.042v25.436h-49.846v-19.213h-28.556v19.264h-46.863v-12.523s-17.126 15.065-39.2 15.065c-28.251 0-47.126-20.767-47.126-20.767v18.171h-33.225c-29.573 0-54.96-16.182-62.051-45.693-3.362 3.215-18.185 13.797-35.961 17.784-1.383.311-2.073.828-2.073 2.327 0 2.734 5.84 3.708 5.84 3.708v21.871h-182.249c-33.755.006-60.872-23.099-60.872-52.435 0-29.338 21.141-54.265 56.187-54.265 33.495 0 46.738 25.709 46.738 25.709z"/><path d="m98.719 35.497-14.664 15.375s-.78.393-1.426.393c-.653 0-1.565-.653-1.565-.653l-1.813-1.551s-.522-.127-.522-.652c0-.511 1.429-1.819 1.429-4.284 0-2.468-.517-12.723-16.353-12.723s-22.845 14.799-22.845 27.002c0 12.204 7.524 34.53 32.196 34.53 14.347 0 17.386-8.055 17.386-8.055h4.932v21.035h-26.998c-32.191 0-50.107-25.189-50.107-43.361 0-27.863 24.228-43.325 46.213-43.325 21.289.003 34.137 16.269 34.137 16.269z"/><path d="m144.158 21.542h22.196l27.002 70.618c.774 1.94 2.074 3.77 3.37 5.318 1.294 1.559 4.411 2.603 4.411 2.603v6.093h-32.572v-6.231s2.07.268 3.112-1.553c1.037-1.819 1.037-3.245.263-5.061-.78-1.822-6.244-16.226-6.244-16.226h-26.605s-5.448 14.537-5.973 15.833c-.52 1.297-.52 3.378 0 4.672.863 2.16 3.897 2.476 3.897 2.476v6.092h-26.095v-6.092s2.373-.817 4.154-2.603c1.946-1.946 2.593-4.028 2.593-4.028zm-.655 42.316h17.14l-8.826-24.662z"/><path d="m211.522 21.542h41.542c15.319 0 30.632 5.445 30.632 23.1 0 17.654-11.164 23.89-20.767 28.304-11.088 5.094-25.701 9.089-25.701 9.089v13.494s.13.912 1.427 2.46c1.302 1.559 2.728 1.952 2.728 1.952v6.23h-30.118v-6.092s1.816-.395 3.121-1.692c1.293-1.299 1.559-2.858 1.559-2.858v-61.009s.119-2.599-.912-3.633c-1.037-1.047-3.508-2.468-3.508-2.468v-6.877zm25.964 12.718v36.085s24.401-10.122 24.401-24.401c0-17.655-24.401-11.684-24.401-11.684z"/><path d="m373.66 35.645-14.669 15.376s-.78.39-1.429.39c-.645 0-1.554-.65-1.554-.65l-1.821-1.561s-.517-.122-.517-.639c0-.523 1.423-1.83 1.423-4.285 0-2.471-.511-12.725-16.352-12.725s-22.849 14.793-22.849 26.999c0 12.196 7.53 34.53 32.2 34.53 14.347 0 17.389-8.052 17.389-8.052h4.936v21.029h-27.008c-32.188 0-50.108-25.181-50.108-43.355 0-27.86 24.226-43.328 46.214-43.328 21.292 0 34.145 16.271 34.145 16.271z"/><path d="m426.236 108.61c-28.045 0-48.2-20.478-48.2-45.396 0-24.935 20.678-44.246 48.2-44.246 27.511 0 48.189 19.311 48.189 44.246 0 24.916-20.158 45.396-48.189 45.396zm-24.932-45.012c0 24.924 12.723 31.154 24.932 31.154 12.193 0 25.181-7.789 25.181-31.154 0-23.362-14.539-31.154-25.181-31.154-10.647 0-24.932 6.225-24.932 31.154z"/><path d="m486.978 21.596h30.899l11.165 34.475 11.938-34.529h32.318v5.058s-2.149.91-3.104 2.079c-1.169 1.429-1.169 2.466-.912 4.55.26 2.07 8.566 58.411 8.828 60.49.263 2.078.517 3.245 1.037 4.674.514 1.415 2.988 2.59 2.988 2.59v5.237h-31.03v-5.624s2.725-.387 3.64-1.692c.91-1.299 1.294-2.078 1.037-4.152-.26-2.075-7.654-49.328-7.654-49.328l-13.503 41.799h-16.355l-13.376-39.209-6.747 46.216s-.262 2.774.78 4.287c1.426 2.079 4.03 2.079 4.03 2.079v5.578h-26.881v-5.963s2.141-.33 3.697-2.151c1.556-1.811 1.819-4.155 1.819-4.155l9.805-60.944s.588-2.277-.065-3.31c-.684-1.094-4.352-2.011-4.352-2.011v-6.044h-.002z"/></g></svg>