<svg clip-rule="evenodd" fill-rule="evenodd" stroke-linejoin="round" stroke-miterlimit="2" viewBox="0 0 600 406" xmlns="http://www.w3.org/2000/svg"><g fill="#fff"><path d="m104.64 326.589c.354.558.781 1.08 1.276 1.554 8.803 8.411 19.189 17.927 25.094 22.277 31.457 23.222 69.329 43.168 119.44 49.839 29.141 3.891 61.63 5.826 93.473 4.621 32.977-1.248 65.26-5.882 92.521-15.099.008-.003.016-.005.024-.008 3.731-1.274 7.351-2.613 10.917-4.052 3.349-1.352 8.701-3.715 12.722-5.988.006-.004.011-.007.017-.01 41.198-23.413 83.031-57.319 110.112-95.817.006-.008.012-.017.018-.026 5.395-7.732 10.211-15.588 14.199-23.329l-.002.002.023-.041c.5-.984.957-1.951 1.448-2.884.042-.079.082-.158.121-.237 3.068-6.294 8.262-15.301 10.254-21.492.004-.012.008-.024.012-.036 10.824-34.153-3.038-67.526-30.094-96.827-2.261-2.527-4.813-5.292-7.541-8.241l-.001.002c-11.805-12.863-27.481-29.678-43.607-44.727-.002-.002-.003-.003-.005-.005-21.479-20.016-47.816-40.156-70.615-53.691-1.916-1.197-6.231-3.612-7.319-4.218-.31-.242-.642-.461-.992-.658-21.323-11.989-46.354-20.824-77.148-25.065-.001 0-.001 0-.002 0-73.409-10.097-128.316 15.64-186.779 46.627-48.656 25.779-86.593 47.076-107.745 86.978-2.72 5.131-8.773 16.841-10.996 23.392-17.574 51.562-6.871 108.511 39.578 156.059.008.008.015.015.022.023 1.91 1.94 9.718 9.324 11.575 11.077zm334.629-287.528c-2.841-1.704-7.529-4.182-7.252-4.239-20.499-11.526-44.573-19.988-74.176-24.065-71.448-9.827-124.8 15.568-181.7 45.726-46.933 24.867-83.854 45.002-104.256 83.49-2.579 4.866-8.361 15.955-10.466 22.163-16.615 48.747-6.278 102.53 37.635 147.482 2.747 2.791 13.957 12.9 12.667 12.45 8.524 8.145 18.562 17.382 24.277 21.591 30.44 22.471 67.071 41.817 115.562 48.271 28.696 3.832 60.689 5.741 92.045 4.554 32.128-1.216 63.588-5.683 90.148-14.662 3.584-1.224 7.062-2.51 10.487-3.892 3.087-1.246 8.025-3.416 11.732-5.512 40.162-22.823 80.993-55.817 107.391-93.346 5.175-7.415 9.797-14.946 13.621-22.369.52-1.022.995-2.025 1.506-2.994 2.915-5.979 7.916-14.503 9.809-20.385 9.933-31.338-3.46-61.752-28.3-88.635-2.246-2.509-4.782-5.257-7.494-8.189l-.009-.007c-11.683-12.731-27.198-29.382-43.163-44.281-21.071-19.636-46.906-39.404-69.263-52.665l-.787-.478c.093-.167.178-.336.258-.506-.084.17-.174.336-.272.498zm.43-.848-.139.308.129-.282zm.369-5.785c.584 1.833.412 3.444.003 4.773.109-.352.191-.715.248-1.085.197-1.261.101-2.517-.251-3.688z"/><g fill-rule="nonzero"><path d="m138.096 152.347h5.794c6.683 0 13.094.643 13.094 7.634 0 6.376-6.745 7.996-13.288 7.996h-5.6zm-19.953 61.392h31.585c13.402 0 29.137-3.84 29.137-21.9 0-9.228-5.133-14.652-15.11-16.703v-.229c8.356-2.827 13.173-8.093 13.173-17.682 0-13.014-10.399-19.178-24.303-19.178h-34.482zm19.953-32.07h6.137c6.869 0 14.679.713 14.679 8.955 0 7.731-7.599 8.779-14.89 8.779h-5.926z"/><path d="m177.643 213.735h20.288l5.917-16.132h28.08l5.574 16.132h21.89l-28.855-75.691h-24.47zm49.583-30.467h-18.808l9.686-29.56h.194z"/><path d="m263.342 138.046h25.456l25.351 51.397h.194l-.326-51.397h18.236v75.692h-24.787l-26.223-51.732h-.185l.608 51.732h-18.324z"/><path d="m343.605 213.735h27.297c25.482 0 44.282-9.871 44.282-38.163 0-29.278-18.218-37.528-44.282-37.528h-27.297zm19.988-60.74h7.731c14.564 0 23.247 7.837 23.247 22.894 0 15.084-8.357 22.894-23.247 22.894h-7.731z"/><path d="m410.677 213.735h20.288l5.944-16.132h28.054l5.574 16.132h21.925l-28.855-75.691h-24.497zm49.61-30.467h-18.808l9.659-29.56h.212z"/><path d="m495.535 138.048h19.935v75.691h-19.935z"/><path d="m118.147 230.194h25.694l25.562 51.45h.264l-.352-51.45h18.43v75.656h-25.043l-26.434-51.679h-.202l.642 51.679h-18.561z"/><path d="m191.806 305.857h20.507l5.935-16.122h28.407l5.635 16.122h22.154l-29.19-75.656h-24.716zm50.12-30.431h-18.993l9.756-29.604h.176z"/><path d="m278.467 230.194h31.787l13.12 50.297h.229l13.842-50.297h30.546v75.656h-19.68l.3-58.072h-.22l-16.352 58.072h-18.536l-15.523-58.072h-.203l.414 58.072h-19.724z"/><path d="m440.705 304.137c-5.741 1.417-12.143 3.099-22.445 3.099-20.209 0-43.49-10.241-43.49-38.867 0-26.319 18.412-39.492 43.349-39.492 7.705 0 15.189 1.796 22.436 3.945l-1.638 16.36c-6.463-3.566-12.759-5.318-19.689-5.318-14.308 0-23.669 10.408-23.669 24.505 0 14.872 10.532 23.88 25.281 23.88 6.604 0 13.331-1.77 18.861-3.927z"/><path d="m443.783 268.081c0 24.074 13.208 39.149 37.969 39.149 24.682 0 37.951-15.075 37.951-39.149 0-24.285-13.014-39.202-37.951-39.202-24.972 0-37.969 14.917-37.969 39.202m20.843 0c0-13.164 4.869-24.215 17.126-24.215 12.248 0 17.127 11.051 17.127 24.215 0 12.407-4.879 24.18-17.127 24.18-12.257 0-17.126-11.773-17.126-24.18"/></g><path d="m429.927 26.68c-5.031 1.011-14.989 3.231-17.302 3.78-3.577.826-73.644 17.579-144.282 38.198-34.668 10.117-127.577 34.688-152.991 44.508-17.418 6.698-34.696 14.601-50.641 24.173l.001.003c-6.466 3.843-12.687 7.963-18.625 12.418-31.259 23.311-46.773 48.927-46.064 74.76.703 25.58 17.443 52.342 53.625 78.077 13.537 9.666 35.671 20.565 53.799 26.846.47.181.968.363 1.426.528l.016.005.067.026c8.531 2.977 17.916 5.559 27.95 7.826.007.002.014.003.021.005 46.193 10.311 102.977 15.314 140.466 21.428.003 0 .005.001.007.001 35.728 5.797 93.809 20.391 149.5 25.764.008 0 .015.001.022.002 5.56.521 11.085.938 16.593 1.267l.185.016c7.278.468 14.512.729 21.584.774h.005c66.428.379 122.13-19.124 130.736-83.994 1.418-10.547.055-20.601-3.024-30.399-.002-.006-.004-.011-.005-.016-2.131-6.734-5.128-13.39-8.595-19.916l-.212-.368c-1.447-2.731-2.933-5.434-4.5-8.079-13.259-22.611-26.009-44.687-26.531-70.504-.134-8.25 2.155-17.704 5.259-27.756.804-2.454 1.501-4.906 2.17-7.287 8.592-31.691 4.143-58.32-13.5-81.856-.002-.002-.004-.005-.006-.008-22.997-30.602-71.477-38.567-114.582-30.774-.493.088-1.328.25-2.419.509l-.153.043zm-367.462 121.931c-3.889 2.501-7.673 5.122-11.345 7.877-57.051 42.539-59.278 91.841 7.405 139.267 13.032 9.307 34.385 19.777 51.82 25.8.449.176.933.352 1.374.51-2.745-2.638-2.741-2.637.006.004 8.25 2.879 17.329 5.371 27.032 7.564 46.035 10.276 102.627 15.242 139.989 21.335 35.6 5.777 93.469 20.341 148.961 25.694 5.539.52 11.042.934 16.528 1.26 1.134-.451 2.258-.914 3.369-1.394-1.11.481-2.232.946-3.365 1.398 7.115.458 14.186.713 21.098.757 61.735.353 114.365-16.413 122.36-76.704 1.25-9.289 0-18.139-2.712-26.768-1.981-6.261-4.781-12.442-8.004-18.509-1.175 2.275-1.185 2.281-.013.004-1.453-2.747-2.941-5.468-4.517-8.127-14.01-23.889-27.148-47.338-27.694-74.617-.149-9.043 2.246-19.434 5.654-30.458.774-2.36 1.444-4.72 2.086-7.009l-.019-.021c7.828-28.874 3.96-53.081-12.114-74.524-21.3-28.345-66.454-34.773-106.378-27.552-.396.07-1.074.202-1.963.414 2.126 1.18 2.126 1.189-.001.015-4.79.951-15.181 3.267-17.479 3.813-3.179.731-73.226 17.47-143.845 38.084-34.518 10.073-127.036 34.508-152.325 44.282-16.968 6.525-33.804 14.212-49.337 23.537l-.002.005c-1.032.613-2.058 1.233-3.074 1.864 0 0-.347.175-3.495 2.199z"/></g></svg>