<svg clip-rule="evenodd" fill-rule="evenodd" stroke-linejoin="round" stroke-miterlimit="2" viewBox="0 0 600 123" xmlns="http://www.w3.org/2000/svg"><g fill="#fff"><path d="m541.271 121.535c-4.597-.44-10.615-1.138-13.373-1.552l-5.014-.751v-14.125c0-7.768.123-14.114.273-14.102s4.202.731 9.005 1.599c15.484 2.798 29.907 1.78 34.659-2.444 2.288-2.034 2.534-8.217.398-9.99-.833-.69-7.521-3.439-14.864-6.107-20.845-7.577-26.205-11.582-30.046-22.453-1.791-5.068-2.309-16.863-.982-22.358 2.552-10.569 11.095-20.844 21.041-25.306 7.712-3.46 23.362-4.527 36.885-2.515l9.128 1.358v14.194c0 13.102-.148 14.132-1.911 13.38-1.05-.448-7.595-1.049-14.544-1.336-10.272-.424-13.276-.189-16.069 1.255-6.624 3.426-7.316 10.113-1.365 13.191 1.756.908 8.522 3.552 15.033 5.875 14.641 5.222 17.416 6.659 21.735 11.25 12.22 12.987 11.531 36.115-1.473 49.505-5.424 5.585-15.566 10.128-25.482 11.415-9.016 1.17-10.968 1.172-23.034.017z"/><path d="m108.07 119.365v-114.619h30.565v43.664h33.84v-43.664h30.565v114.619h-30.565v-46.939h-33.84v46.939z"/><path d="m227.056 3.654h31.657v115.711h-31.657z"/><path d="m280.545 119.365v-114.619h30.565v89.512h31.657v25.107z"/><path d="m359.141 3.654h31.657v115.711h-31.657z"/><path d="m0 119.365v-114.619h31.616c29.543 0 32.021.151 37.803 2.315 14.103 5.276 22.52 18.073 24.101 36.645 1.711 20.098-7.287 37.318-23.911 45.763-8.295 4.213-16.646 5.881-29.449 5.881h-11.778v24.015h-28.382zm52.414-52.67c5.516-3.749 8.182-9.814 8.111-18.455-.05-6-.573-8.04-2.998-11.705-4.296-6.492-8.283-8.197-19.32-8.264l-9.279-.056-.594 40.936h10.233c8.813 0 10.734-.341 13.847-2.456z"/><path d="m414.814 119.365v-115.711h30.45c27.418 0 31.158.219 37.555 2.195 17.544 5.418 27.08 22.695 25.602 46.384-1.053 16.884-9.732 29.481-25.777 37.414-7.678 3.796-8.704 4.006-22.924 4.714-8.188.407-15.01.796-15.16.865-.15.068-.273 5.527-.273 12.132v12.007zm51.322-52.713c6.616-3.499 9.262-8.89 9.262-18.868 0-6.533-.446-8.396-2.904-12.11-4.049-6.118-8.614-8.004-19.366-8.004h-8.841v41.481h8.562c6.818 0 9.523-.509 13.287-2.499z"/></g></svg>