<svg clip-rule="evenodd" fill-rule="evenodd" stroke-linejoin="round" stroke-miterlimit="2" viewBox="0 0 600 132" xmlns="http://www.w3.org/2000/svg"><g fill="#fff"><g fill-rule="nonzero"><path d="m314.818 31.803c5.635 0 9.768.3 9.768 5.034 0 4.057-3.306 4.959-7.664 4.959h-7.739v-9.993zm.601-18.86c3.757 0 7.213.075 7.213 4.283 0 3.156-2.554 4.734-6.086 4.734h-7.363v-9.017zm2.405 41.476c14.05 0 23.292-4.208 23.292-16.305 0-5.861-3.155-10.895-9.016-12.397 3.456-2.179 7.063-6.237 7.063-11.797 0-10.745-9.693-13.6-21.865-13.6h-25.848v54.099z"/><path d="m347.64.32h17.732v54.099h-17.732z"/><path d="m371.947 14.521h15.929v39.898h17.732v-39.898h15.93v-14.201h-49.591z"/><path d="m442.25 54.419v-18.334l-.376-8.415-.751-7.964h.15l9.843 34.713h12.323l9.843-34.713h.15l-.902 9.767-.225 8.416v16.53h15.929v-54.099h-21.414l-9.543 33.737-9.542-33.737h-21.414v54.099z"/><path d="m524.45 36.01h-11.196l5.485-19.385zm-16.606 18.409 2.029-7.138h17.657l2.104 7.138h17.657l-19.385-54.099h-18.033l-19.385 54.099z"/><path d="m568.593 24.965v-12.022h5.034c3.757 0 9.467.676 9.467 5.711 0 4.658-3.005 6.311-7.138 6.311zm0 29.454v-16.831h8.941c15.553 0 22.466-7.363 22.466-19.01 0-11.12-7.514-18.258-23.067-18.258h-26.073v54.099z"/><path d="m183.254 107.588c5.635 0 9.768.301 9.768 5.034 0 4.058-3.306 4.959-7.664 4.959h-7.739v-9.993zm.601-18.859c3.757 0 7.213.075 7.213 4.282 0 3.156-2.555 4.734-6.086 4.734h-7.363v-9.016zm2.404 41.476c14.051 0 23.293-4.208 23.293-16.305 0-5.861-3.156-10.895-9.017-12.398 3.457-2.179 7.063-6.236 7.063-11.797 0-10.744-9.692-13.599-21.865-13.599h-25.847v54.099z"/><path d="m231.654 88.729h8.265c4.133 0 7.138 1.803 7.138 5.635 0 3.757-2.93 5.109-8.415 5.109h-6.988zm5.41 22.616c8.265 0 9.467 2.329 9.467 9.392 0 4.809.451 8.265.902 9.468h17.958v-1.654c-2.104 0-1.879-2.404-1.879-9.467 0-10.895-3.456-12.247-9.166-14.351 6.311-1.728 9.091-6.988 9.091-13.224 0-10.52-5.936-15.403-23.969-15.403h-25.546v54.099h17.732v-18.86z"/><path d="m296.334 87.902c7.815-.225 10.82 7.589 10.82 14.952 0 8.942-3.005 15.554-10.669 15.554-8.491 0-10.595-8.641-10.595-15.554 0-6.837 2.405-14.952 10.444-14.952zm.151-13.224c-16.831 0-28.327 11.045-28.327 28.026 0 18.409 11.346 28.928 28.327 28.928 16.004 0 28.402-10.369 28.402-28.778 0-14.276-9.092-28.176-28.402-28.176z"/><path d="m328.092 90.307h15.929v39.898h17.733v-39.898h15.929v-14.201h-49.591z"/><path d="m400.361 130.205v-20.964h16.756v20.964h17.732v-54.099h-17.732v18.258h-16.756v-18.258h-17.732v54.099z"/><path d="m488.848 130.205v-12.624h-27.426v-8.49h22.316v-12.623h-22.316v-7.739h26.374v-12.623h-44.106v54.099z"/><path d="m512.49 88.729h8.265c4.133 0 7.139 1.803 7.139 5.635 0 3.757-2.931 5.109-8.416 5.109h-6.988zm5.41 22.616c8.265 0 9.468 2.329 9.468 9.392 0 4.809.45 8.265.901 9.468h17.958v-1.654c-2.104 0-1.878-2.404-1.878-9.467 0-10.895-3.457-12.247-9.167-14.351 6.311-1.728 9.092-6.988 9.092-13.224 0-10.52-5.936-15.403-23.969-15.403h-25.547v54.099h17.732v-18.86z"/><path d="m596.331 91.809c-1.278-9.467-8.115-17.131-23.143-17.131-13.524 0-23.443 5.786-23.443 17.282 0 20.662 31.107 15.027 31.107 23.217 0 2.555-2.93 3.982-7.363 3.982-1.728 0-3.607-.451-5.034-1.352-1.503-.902-2.555-2.329-2.931-4.283h-16.981c.376 9.768 9.693 18.108 23.969 18.108 14.877 0 25.321-6.086 25.321-18.634 0-19.686-31.106-14.652-31.106-22.767 0-1.953 1.728-3.08 5.635-3.08 1.728 0 3.306.3 4.583.977 1.278.676 2.254 1.803 2.555 3.681z"/></g><path d="m274.922 1.293h-115.549v60.085h115.549zm-16.889 43.789c-1.985 3.04-6.142 7.445-10.05 7.445-2.047 0-3.661-.807-3.661-5.46 0-.806.063-1.675.187-2.667 6.266-2.11 17.06-7.631 17.06-15.324 0-3.474-2.729-5.459-5.955-5.459-9.058 0-17.061 13.648-17.061 21.837 0 5.15 2.854 9.865 8.375 9.865 5.398 0 10.113-4.839 12.718-9.182zm-53.045 9.554h5.087c1.985-5.149 4.963-9.802 9.057-17.805.621-1.179 5.398-8.561 7.445-8.561.745 0 1.055.806 1.055 1.488 0 1.055-.559 2.606-.931 3.661l-4.405 12.718c-.496 1.427-1.178 3.35-1.178 4.901 0 2.109 1.054 4.281 3.474 4.281 4.529 0 8.003-6.577 10.174-9.865l-1.799-1.054c-1.054 1.613-4.094 7.072-5.956 7.072-.496 0-.806-.434-.806-.93 0-.497.31-1.303.496-1.8l4.715-13.834c.621-1.737 1.551-4.777 1.551-6.576 0-2.358-1.551-4.715-4.032-4.715-5.398 0-13.215 14.889-15.696 19.48l-.124-.124 9.119-34.184-10.236 1.799-.496 2.048c3.412-.248 4.094.186 4.094 1.551 0 .744-.372 2.047-.558 2.791zm-28.954-45.412-6.39 10.856 1.923 1.179c3.722-4.591 10.671-9.988 16.75-9.988 1.551 0 .993 1.923.745 2.854l-8.313 31.391c-.497 2.11-.993 4.219-2.668 5.832-1.427 1.303-3.288 1.241-5.087 1.241l-.559 2.047h17.992l.558-2.047c-2.047 0-5.087-.186-5.087-2.978 0-1.241.62-3.35.93-4.529l8.252-31.268c.434-1.551.682-2.543 2.481-2.543 6.762 0 9.554 4.467 11.229 10.484l2.11-.496-.993-12.035zm68.785 32.88c1.861-9.802 7.445-15.696 10.546-15.696 1.427 0 2.048 1.241 2.048 2.544 0 5.646-7.631 11.477-12.594 13.152z"/><path d="m144.223.32h-144.223v129.885h144.223v-129.885zm-139.522 125.438-.165-.166v-1.159h135.184v1.491h-134.853zm0-4.473-.165-.166v-1.159h135.184v1.491h-134.853zm-.165-4.307v-1.491h135.184v1.491h-135.184zm0-4.473v-1.491l32.864-.001h32.864l3.648-2.981h34.26l2.101 1.892 1.434 1.09h28.013v1.491h-28.048l-1.15-.445-2.887-2.537h-33.245l-2.888 2.403-.54.289-.541.29h-65.885zm0-4.473v-1.491h52.73l3.254-2.983h53.835l3.188 2.983h22.177v1.491h-22.539l-1.938-1.427-1.46-1.556h-52.65l-3.188 2.983h-53.409zm0-4.474v-1.491h42.576l3.105-2.982h68.343l1.494 1.258 1.725 1.724h17.941v1.491h-18.432l-3.105-2.982h-67.465l-2.865 2.982h-43.317zm.045-5.156.079-.683 33.139-.128 2.851-2.606h82.048l.961.249.578-1.988.334-1.367h-93.178l-3.064 2.733h-23.826l.157-1.366 23.078-.13 2.994-2.604 24.374-.26-.581-.113-2.898-2.48-30.13-.004-3.064 2.733h-13.897v-1.491h13.43l2.101-1.901 1.229-.832 10.444-.015 10.444-.015-.987-.592-2.2-2.361h-16.148l-2.591 2.45-1.682.304-13.916-.144-.157-1.367h14.893l3.283-2.976-18.019-.13-.157-1.367h50.997l2.339-2.151 1.229-.831h65.878l1.938 1.598-.327-1.225-.007-.761-2.474-2.594h-68.382l-1.085.573-2.341 2.094-1.573.315h-46.159v-1.491h46.644l1.781-1.367 1.858-1.491 68.997-.129v-.64l-1.863-1.781-1.086-.556h-71.278l-1.938 1.408-.71.861-1.378.713h-41.027v-1.491h40.949l2.414-2.164 1.591-.818h71.593v-.955l-2.078-1.779h-75.29l-2.544 2.734h-36.635v-1.491h36.075l2.585-2.734h74.905v-1.439l-1.757-1.543h-53.744l-3.252 1.301-2.649-.273-2.123-1.028h-15.977l-3.063 2.734h-31v-1.491h30.472l1.46-1.526 1.74-1.083 7.602-.125 7.603-.124-3.167-2.858h-15.911l-2.34 2.167-1.085.567h-26.407l.157-1.367 26.182-.129 2.849-2.604 15.326-.145v-.477h-.381l-2.556-2.236h-15.943l-2.744 2.485h-22.89l.157-1.367 22.352-.129 2.001-1.925 1.086-.555h13.203v-.435l-1.367-.277-2.982-2.257-14-.013-2.63 2.246-1.838.495-15.825-.131-.157-1.367h16.665l1.633-1.427 1.933-1.307h12.604l-.004-.373-1.86-1.132-2.151-1.725h-11.538l-2.959 2.502-1.741.504-6.213-.074-6.212-.075-.158-1.366h13.185l2.833-2.308 1.286-.671 9.443-.018-.994-.558-1.17-1.08-1.169-1.081h-9.423l-3.335 2.734h-10.622v-1.491h10.239l2.551-2.294 1.158-.44h7.671v-.378l-3.415-2.604h-5.734l-2.655 2.157-1.085.577h-8.73v-1.491h8.612l3.035-2.361.032-.621h-11.679v-1.491h32.326l2.363-2.211 1.376-.523h10.404v-1.714l-1.662-1.268h-12.184l-1.934 1.293-1.399 1.316-29.29.136v-1.502h28.52l2.742-2.258 1.661-.476h9.57v-1.911l-.909-.822h-12.729l-2.84 2.485h-26.015v-1.492h25.525l2.183-1.911 1.085-.574h9.476v-1.911l-.909-.822h-11.996l-2.519 2.236h-22.878l.157-1.367 11.16-.064 11.159-.065 2.386-2.231h9.712v-1.1l-2.091-2.131h-6.749l-2.448 2.485h-23.286l.157-1.367 22.614-.115 2.083-2.37 7.691-.158 1.507.779 1.327 1.74h16.541l3.139-2.361 6.105-.164v-1.861l-1.15-1.081h-5.668l-2.642 2.609h-51.547l-.157-1.366h51.127l2.591-2.734h6.73l2.759 2.609 72.01.13v1.489l-71.816-.128v.622h.518l2.391 2.236h18.932l2.387-1.282 2.996.18 2.114 1.102h42.478v1.491h-41.499v1.394l1.639 1.588h39.86v1.491h-39.511v1.142l1.884 1.84h37.627v1.491h-37.772v1.185l1.99 1.797h35.782v1.498l-36.032-.131v.91l1.799 2.196h34.233v1.491h-33.796v1.902l1.151 1.08h32.645v1.491h-32.305v1.44l1.757 1.542h30.548v1.491h-30.565v2.262l1.723.72h28.842v1.506l-29.82-.139v1.59l1.825 1.392 27.995.136v1.479h-27.583v1.201l1.935 1.533h25.648v1.491h-25.098l.028.87 2.556 2.112h22.514v1.491h-21.868v.976l2.113 1.993 19.755.013v1.491h-20.128v.325l2.068 1.787 1.287.867 16.773.003v1.491h-16.649v1.184l1.989 1.798h14.66v1.491h-14.164v.851l2.091 2.131h12.073v1.491h-11.361l.572 2.857 10.789.134v1.482h-10.685v2.982h10.685v1.509l-10.904-.143-.594 2.123.89.984h10.608v1.517l-11.058-.154-.702-.245-.425 1.946 1.09 1.16h11.095v1.491h-11.32l-1.137-.796-.248.248-.638 2.412-.358 1.118h13.701v1.491h-14.417l-2.973-2.733h-80.997l-3.064 2.733h-33.766l.078-.683zm120.382-8.371.137-.357.083-2.392-12.674-.159-25.184.172-25.184.172-3.059 2.501-.472.42h66.216zm-65.037-2.624 1.547-1.242 1.088-.252 62.871-.122.726.248.494-1.924-1.601-1.431h-62.867l-2.993 2.752-1.26.479-6.553.003 1.451.756 2.141 1.974h3.409l1.547-1.242zm-.402-4.35 1.389-1.367 1.307-.497h62.734l1.844.941v-1.623l-2.225-2.051h-65.268l-2.779 2.477-1.328.505-16.742.068 1.034.204 2.677 2.71h15.969zm.536-22.732.637-.242v-1.006h-5.496l.339.549 2.051.931 1.831.011.638-.242zm55.804-1v-.896l-1.615-1.529-1.086-.557h-49.771l-1.452 1.453v1.529zm-54.783-2.754.983-1.014 1.342-.705h48.979v-1.191l-1.757-1.542h-50.731l-2.719 2.485h-6.421l.044.373 2.933 2.609h6.365zm-3.535-4.266.787-.808 1.246-.866 12.301-.003v-1.184l-1.99-1.798h-14.52l-2.641 2.609-6.569.249 1.491.827 1.712 1.782h7.396zm52.851-1.677v-.851l-2.091-2.131h-27.308l-2.628 2.485h-.526v.497zm-57.389-2.672.811-.932 1.287-.866 12.052-.003v-1.944l-1.529-1.286h-14.52l-2.216 2.293-1.599.689-8.589.02 1.491.789 2.074 1.677 1.156.464 8.771.032.811-.932zm26.057-.435 1.433-1.366h9.274v-1.963l-1.662-1.268h-9.836l-2.482 2.522-1.211.46-4.814.029.914.592 2.971 2.361h3.98zm29.096-1.366v-1.453l-2.078-1.778h-7.413l-1.443.853v2.378zm-12.181-3.103 1.573-1.362 1.605-.301 8.009.168v-1.218l-1.589-1.639h-8.745l-2.166 2.207-1.366.566-4.027-.164.001.549 2.703 2.557h2.428zm-46.939-.066 1.543-1.429 6.299-.074 6.299-.074v-1.167l-1.757-1.542h-13.92l-2.339 2.167-1.086.566h-10.332l1.229.852 2.629 2.13h9.892zm27.125 0 1.444-1.429 9.428-.154v-1.794l-.822-.909h-11.26l-2.679 2.286-1.175.447-5.311.015.994.564 2.65 2.403h5.288zm-30.71-4.348 1.379-1.305 6.31-.074 6.31-.074v-1.424l-2.086-1.534h-13.268l-2.473 2.224-1.34.509h-11.896l.036.373 3.01 2.609h12.639zm27.171.161 1.34-1.143 1.175-.447h10.157v-.891l-2.131-2.091h-10.48l-3.335 2.733h-7.662v.417l1.153.526 2.356 2.039h6.088zm21.388.488.602-.655 1.939-1.423h9.368v-.851l-2.091-2.131h-7.996l-1.926 1.971-1.605.762h-5.516v.322l2.857 2.638 3.766.022zm-.132-5.185 1.667-1.366h8.419l.961.514-.01-.887-2.468-2.609h-7.753l-2.627 2.733-8.886.006 1.735 1.361.78.776 1.199.839h5.315zm-52.054.233 1.278-1.135 1.221-.464h10.435l-.154-1.848-1.689-1.134h-12.621l-2.34 2.167-1.085.566h-13.701l.003.373 1.364.856 2.415 1.753h13.597zm28.395-.012 1.275-1.147 1.158-.44h8.417v-2.209l-1.104-.773h-10.65l-2.648 2.733h-8.957v.464l.87.277 2.73 2.241h7.634zm22.329-4.44.979-1.113 1.978-.533 7.185.15-.001-1.055-2.226-2.051h-7.002l-1.085.566-1.17 1.084-1.17 1.083h-9.464v.27l2.858 2.694 8.138.018zm-25.391-.009 1.101-1.122 1.753-.487 8.822-.002v-1.488l-2.063-1.494h-9.101l-3.064 2.733h-10.622v.642l3.055 2.34h9.018zm-1.783-4.456 1.182-1.106 1.375-.522h7.671v-1.132l-1.463-1.602h-9.928l-1.655 1.776-.994.585-12.425.248 1.42.629 2.547 2.229h11.088zm25.542-.123 1.344-1.228 2.128-.319 6.562.166v-.53l-.001-.531-1.989-1.797h-7.221l-2.407 2.485h-11.99v.497h.394l2.939 2.485h8.898zm-2.13-3.245 2.198-2.361 7.977-.158v-.671l-1.821-2.028h-5.891l-2.143 2.236h-14.498v.386l2.361 2.576zm-27.694 0 1.712-1.799 1.6-.686h7.719v-2.137l-.596-.596h-9.945l-2.053 2.236h-13.499v.509l1.119.438 1.964 2.035zm28.538-5.591 1.041-1.118h6.09l-.165-.857-1.984-1.123-2.291-.008-1.831 1.242h-18.864v.529l2.609 2.434 14.353.019zm-29.71 0 1.065-1.118h8.156v-1.963l-1.662-1.268h-7.443l-1.953 1.646-1.229.839h-15.297v.692l1.122.281 1.961 2.009h14.214zm-55.224-10.727-.165-.166v-1.159h135.184v1.491h-134.853l-.166-.166z"/></g></svg>