<svg clip-rule="evenodd" fill-rule="evenodd" stroke-linejoin="round" stroke-miterlimit="2" viewBox="0 0 600 133" xmlns="http://www.w3.org/2000/svg"><path d="m0 .663v46.856c7.073 2.303 11.864 8.73 11.864 15.917-.001 7.186-4.792 13.611-11.864 15.914v53.448h600v-132.135h-600zm530.383 17.027c-26.737.21-48.303 22.185-48.303 49.219.001 27.183 21.795 49.219 48.679 49.219 26.885 0 47.907-22.036 47.908-49.219-.001-27.182-21.023-49.218-47.908-49.219-.125 0-.251 0-.376 0zm-494.749 4.036h21.939v91.092h-21.939zm26.726 49.941 33.467 41.151h29.422l-44.923-49.458 39.144-41.634h-26.485l-30.625 32.576zm359.119 0 34.886 41.151h28.222l-45.25-49.021 40.235-42.071h-27.14l-30.953 34.649zm-261.126-49.941h23.644l42.809 91.092h-97.392v-8.045l22.151-47.914h21.91l-16.131 37.681h36.476zm154.261 27.131v63.961h-21.211v-53.469c0-11.677-8.661-18.207-17.614-18.207h-20.212v71.676h-22.599v-90.962h51.143c19.683 0 30.493 14.378 30.493 27.001zm15.246 5.859v58.102h81.805v-19.327h-62.478v-19.448h62.478v-19.327zm201.034-16.814h.097c14.23.001 24.994 12.954 24.994 28.931-.001 15.976-10.764 27.847-24.994 27.848s-25.767-11.871-25.768-27.848c-.001-15.936 11.477-28.871 25.671-28.931zm-201.034-15.872v16.825h81.937v-16.825z" fill="#fff"/></svg>