<svg clip-rule="evenodd" fill-rule="evenodd" stroke-linejoin="round" stroke-miterlimit="2" viewBox="0 0 600 164" xmlns="http://www.w3.org/2000/svg"><g fill="#fff"><path d="m193.882 66.095c-.994-17.493 14.908-34.196 41.602-43.507l17.728.573c-18.66 5.954-31.039 17.884-33.465 28.498-2.902 12.676 11.57 43.96 5.267 58.374-5.193 11.889-15.852 21.918-40.135 30.966l-15.019-.547c18.711-6.786 30.427-17.918 31.795-27.934 1.664-12.187-7.309-38.316-7.773-46.423z"/><path d="m416.741 79.621 6.309 43.575h-27.429l-3.222-45.403c11.526 0 20.355-6.518 23.53-14.037 3.536-8.349 4.742-16.139-6.226-16.139l-6.691-.03-31.492 75.783h-26.835l34.662-81.413 43.342-.098c16.806 0 26.842 5.292 20.924 19.286-3.703 8.751-10.818 16.219-26.872 18.476z"/><path d="m233.767 123.254 34.639-81.54h26.662l-34.47 81.54z"/><path d="m308.287 117.197h25.007l-2.559 6.057h-51.986l34.639-81.54h51.558l-2.431 5.766-24.644.03-11.637 27.596h21.544l-2.433 5.79-22.046-.077z"/><path d="m504.584 79.517 6.307 43.56h-27.421l-3.228-45.388c11.532 0 20.353-6.519 23.536-14.047 3.524-8.355 4.736-16.139-6.232-16.139l-6.683-.023-31.509 75.774h-26.835l34.686-81.412 43.321-.09c16.806 0 26.85 5.277 20.932 19.286-3.705 8.745-10.811 16.221-26.874 18.479z"/><path d="m569.77 41.707-53.399 81.507h10.818s14.461-21.401 26.863-39.845h15.688c-1.499 18.444-3.372 39.845-3.372 39.845h27.714l5.918-81.507zm1.773 15.391c.226-.028-.431 9.741-1.344 21.221h-12.547c7.687-11.449 13.996-21.195 13.891-21.221zm0 0c-.002 0-.003.001-.005.002.002-.001.004-.002.005-.002z"/><path d="m128.192 15.535c-4.026-2.833-8.306-5.319-12.819-7.399h-67.928c-4.515 2.08-8.798 4.566-12.823 7.399-.725.511-1.459 1.009-2.164 1.543h97.9c-.708-.534-1.441-1.032-2.166-1.543zm27.851 34.157c-1.101-2.531-2.296-5.004-3.635-7.399h-27.517l5.178 6.452h-40.103l-5.98-5.667-20.21 6.148 1.788-6.933h-55.148c-1.343 2.395-2.54 4.868-3.643 7.399-.225.518-.475 1.02-.691 1.544h150.649c-.214-.524-.464-1.026-.688-1.544zm6.557 26.761h-19.432l2.906 6.578h-44.467l-3.714-6.163-54.974 6.811 7.596-7.226h-50.299c-.122 1.873-.216 3.763-.216 5.668 0 .577.028 1.154.045 1.733.015.509.017 1.024.041 1.533h162.64c.024-.509.026-1.024.041-1.533.017-.579.045-1.156.045-1.733.002-1.905-.092-3.795-.212-5.668zm-12.618-38.141c-1.642-2.563-3.393-5.043-5.302-7.399h-40.638l12.126 6.51h-35.897l-4.693-5.013-9.215 5.659 1.629-7.158h-49.856c-1.911 2.356-3.66 4.836-5.302 7.399-.331.515-.688 1.011-1.009 1.535h139.164c-.317-.521-.676-1.017-1.007-1.533zm12.434 35.687c-.051-.518-.137-1.022-.197-1.535-.299-2.5-.688-4.969-1.205-7.391h-23.344l2.918 6.465h-44.798l-1.133-5.172-39.898 6.098-1.332.203.122-.203 4.404-7.391h-56.149c-.519 2.422-.906 4.891-1.199 7.391-.06.513-.145 1.019-.195 1.535zm-56.726-69.59c-7.67-2.392-15.822-3.696-24.286-3.696-8.454 0-16.606 1.302-24.279 3.696-1.28.4-2.55.821-3.801 1.281h56.168c-1.251-.46-2.521-.881-3.802-1.281zm54.334 56.672c-.667-2.51-1.424-4.992-2.32-7.399h-24.727l2.912 6.542h-41.711l-1.296-5.659-32.992 6.465 2.443-7.346h-57.215c-.902 2.405-1.659 4.889-2.326 7.399-.137.513-.297 1.02-.423 1.535h158.078c-.126-.517-.287-1.022-.423-1.537zm-17.427-32.622c-.463-.531-.974-1.018-1.451-1.535-2.414-2.619-4.954-5.125-7.699-7.4h-104.078c-2.741 2.275-5.281 4.781-7.701 7.4-.479.519-.99 1.007-1.456 1.535zm-24.819 94.663-102.244 6.807c.143.192.285.393.426.592.098.137.196.28.297.413h130.304c.103-.135.195-.276.297-.413.498-.68.986-1.366 1.469-2.063h-29.413zm-1.124-11-89.239 5.888-3.894.254.325-.254 9.377-7.399h-28.081c.947 2.535 2.05 4.989 3.243 7.399.252.511.481 1.032.742 1.537h144.568c.263-.509.518-1.024.776-1.537.146-.289.298-.577.437-.864h-37.444zm-2.756-12.124-77.609 6.309 1.465-7.083h-35.935c.535 2.514 1.223 4.973 1.989 7.399.162.513.301 1.031.472 1.542h154.256c.171-.513.333-1.026.498-1.542.102-.32.214-.643.312-.964h-44.152zm38.487-5.659h-41.399l-5.657-5.495-67.096 5.976 1.624-6.978h-39.635c.176 2.501.488 4.955.881 7.39.084.514.143 1.035.237 1.546h160.133c.092-.509.154-1.03.235-1.546.394-2.435.708-4.889.883-7.39h-14.253zm-79.153 67.019-7.221.693c4.987.956 10.127 1.471 15.393 1.471 6.403 0 12.618-.759 18.587-2.164 4.034-.942 7.957-2.176 11.739-3.692 0-.004.002-.004.002-.004h-.002zm47.74-22.416-.765-3.696-60.044 3.696-34.839 2.147c.429.412.853.827 1.293 1.227h109.582c.857-.768 1.682-1.574 2.499-2.38h-17.52zm-80.165 13.717c.29.163.581.329.87.5.312.184.622.372.938.544h77.583c.313-.172.61-.368.92-.544 1.178-.669 2.354-1.344 3.495-2.063l-2.79-5.336z" fill-rule="nonzero"/></g></svg>