<svg clip-rule="evenodd" fill-rule="evenodd" stroke-linejoin="round" stroke-miterlimit="2" viewBox="0 0 601 113" xmlns="http://www.w3.org/2000/svg"><path d="m116.615 13.436v-11.92h-59.098c-37.681 1.61-56.522 14.33-56.522 38.005 0 26.408 18.357 39.935 54.911 40.419h60.709v-12.078h-59.905c-9.501 0-18.357-2.417-26.73-7.568-8.374-5.152-12.72-9.661-12.882-13.848h99.517v-11.594h-99.517c-.322-5.153 4.668-9.984 14.814-14.815 8.374-4.024 18.357-6.279 29.629-6.601zm46.538-11.92h-14.492v78.422h14.492v-78.422zm125.442 8.858c-6.279-2.899-13.204-5.153-20.772-6.764-6.603-1.288-12.562-1.932-17.875-2.092h-54.107l-.162 78.422h14.33v-66.508h40.903l12.238 1.288c5.637 1.126 10.95 2.577 15.621 4.349 5.635 2.254 10.144 4.993 13.367 8.052 3.702 3.702 5.634 7.889 5.797 12.4 0 17.713-15.459 27.212-46.861 28.341h-33.493v12.078h32.849c5.797-.16 12.076-.966 18.517-2.417 7.57-1.61 14.493-3.864 20.452-6.763 7.085-3.383 12.722-7.569 16.747-12.238 4.509-5.475 6.763-11.754 6.923-18.841 0-6.441-2.414-12.401-7.085-17.553-4.185-4.509-9.982-8.534-17.389-11.754zm304.187.482v-9.984h-61.675l-9.337.644c-4.671.806-9.02 1.77-12.885 3.061-4.828 1.61-8.533 3.542-11.272 5.957-3.22 3.06-4.828 6.441-4.993 10.305 0 5.637 4.669 10.468 14.171 14.493 3.865 1.61 8.695 3.22 14.492 4.831l33.496 7.085c4.866 1.033 9.699 2.215 14.493 3.543 4.509 1.288 8.051 2.576 10.306 3.864 2.576 1.61 3.864 3.221 3.702 5.153 0 6.925-9.981 9.822-29.627 9.018h-61.675v10.308h69.242c26.731.644 39.938-6.282 39.773-20.452 0-3.061-1.288-5.797-3.862-8.373-2.417-2.093-5.799-4.347-10.308-6.282-3.863-1.61-8.694-3.22-14.493-4.83l-47.826-10.628c-4.509-1.289-7.889-2.577-10.144-3.865-2.738-1.448-4.024-3.061-4.024-4.831 0-6.281 9.501-9.18 28.341-8.857l54.105-.16zm-577.617 100.965v-13.85h2.095v13.85zm62.321-13.686h-1.934v11.754l-8.696-11.754h-2.736v13.846h1.932v-11.914l8.696 11.914h2.738zm52.011 14.168v-12.074h5.153v-1.772h-12.4v1.772h5.153v12.074zm61.031-6.117v-1.934h-8.374v-4.023h9.018v-1.772h-11.11v13.846h11.11v-1.768h-9.018v-4.349zm58.616-4.027c0-1.288-.484-2.25-1.29-2.896-.804-.646-1.933-.966-3.543-.966h-7.407v13.846h1.934v-5.957h5.153c1.126 0 1.77.16 2.255.482.322.324.611.988.737 1.857.123.869.229 3.618.229 3.618h2.416c-.322-.32-.482-.962-.644-1.768 0 0-.324-2.187-.631-3.676-.117-.465-.979-1.153-1.623-1.153 1.608-.488 2.414-1.774 2.414-3.387zm-5.799-2.09c2.462 0 2.898.32 2.898.32.645.32.967.966.967 1.768 0 .966-.32 1.613-.967 1.935 0 0-.892.486-2.738.486h-4.669v-4.509zm50.403 12.074h2.094l1.933-4.022h6.925l1.932 4.022h1.933l-6.12-13.846h-2.094zm4.831-5.797 2.738-5.797 2.739 5.797zm61.514-6.603c1.451 0 2.417.324 3.219.966.966.646 1.452 1.613 1.612 2.574h2.093c-.16-1.608-.805-2.736-2.093-3.862-1.288-.966-2.9-1.453-4.831-1.453-2.256 0-4.186.647-5.475 1.937-1.45 1.448-2.094 3.056-2.094 5.471 0 2.094.644 3.867 2.094 5.155 1.291 1.448 3.219 2.094 5.475 2.094 2.093 0 3.545-.646 4.831-1.612 1.288-1.126 1.933-2.415 2.255-4.189h-2.095c-.16 1.13-.644 2.099-1.612 2.741-.802.806-1.93 1.126-3.379 1.126-1.61 0-3.06-.482-4.024-1.448-.966-.967-1.451-2.255-1.451-3.867 0-1.773.485-3.221 1.451-4.023.964-1.124 2.414-1.61 4.024-1.61zm58.293 12.4v-12.074h5.152v-1.772h-12.398v1.772h5.153v12.074zm50.402 0v-13.846h2.095v13.846zm61.353-13.846h-2.094l-5.153 12.078-5.153-12.078h-2.095l6.122 13.846h2.252zm55.394 7.729v-1.934h-8.374v-4.023h9.018v-1.772h-11.112v13.846h11.112v-1.768h-9.018v-4.349zm-182.837-105.31c-37.019 0-67.031 17.916-67.031 40.017s30.012 40.017 67.031 40.017c37.015 0 67.026-17.916 67.026-40.017s-30.011-40.017-67.026-40.017zm.002 67.139c-28.209 0-51.077-12.143-51.077-27.122 0-14.981 22.868-27.122 51.077-27.122 28.202 0 51.071 12.141 51.071 27.122 0 14.977-22.871 27.122-51.071 27.122z" fill="#fff" fill-rule="nonzero"/></svg>