<svg clip-rule="evenodd" fill-rule="evenodd" stroke-linejoin="round" stroke-miterlimit="2" viewBox="0 0 600 158" xmlns="http://www.w3.org/2000/svg"><g fill="#fff"><path d="m94.782 5.387c-8.259-3.041-16.956-4.782-26.087-4.782-12.607 0-23.475 2.611-32.609 7.828-9.127 5.651-13.912 11.738-13.912 19.131l.436.869c.433 9.563 6.956 16.956 20.432 22.173l25.22-22.173c-4.785 0-9.13-.869-12.61-2.611-3.479-1.738-5.218-3.912-5.218-6.956l1.739-3.913c3.046-3.479 8.697-5.217 16.089-5.217 7.389 0 12.607 1.738 15.651 5.217l10.869-9.566z"/><path d="m114.784 29.302c-9.134-7.392-19.13-12.174-30.871-14.349l-15.651 13.48c6.52.433 12.607 2.174 17.389 5.651 4.785 3.912 6.959 8.697 6.959 13.912l-.436 3.043c-1.305 4.785-3.912 8.698-8.261 11.741-4.782 3.044-10 4.349-16.087 4.349-6.523 0-11.738-1.741-16.519-4.785-4.785-3.043-7.393-6.956-8.265-11.738l-43.042 37.392c3.48 14.348 11.738 26.086 24.348 35.216 12.61 9.131 27.392 13.913 43.914 13.913 19.127 0 35.65-6.084 49.129-17.825 13.48-12.174 20.436-26.956 20.436-43.915 0-18.261-7.829-33.478-23.043-46.085z"/><path d="m193.043 13.215c23.915 0 35.653 12.174 35.653 36.955h-24.348c0-10.869-3.044-16.086-9.564-16.086-5.654 0-8.261 3.043-8.261 9.13 0 4.349 3.043 8.261 9.127 12.174l10.872 6.956c7.389 4.785 13.043 9.567 16.087 13.48 3.912 5.65 6.087 12.61 6.087 19.999 0 12.61-2.175 21.304-6.523 26.955-4.782 5.654-13.477 8.698-26.087 8.698-13.476 0-23.479-3.48-29.129-10.869-5.218-6.523-7.829-16.09-7.829-29.566h25.22c-1.305 12.607 2.608 18.694 11.738 18.694 4.782 0 7.393-2.607 7.393-8.261 0-4.346-1.306-7.826-3.48-10.433l-7.825-6.087-10.869-6.523c-13.479-8.258-19.999-18.694-19.999-31.737 0-9.131 2.174-16.523 6.087-22.174 5.651-7.392 13.912-11.305 25.65-11.305z"/><path d="m358.694 41.909c8.698 0 14.785 3.047 18.261 9.566 4.349-6.519 10.436-9.999 18.261-9.999 3.913 0 8.262 1.305 12.174 3.913 5.654 3.043 8.262 8.261 8.262 15.217v67.826h-24.348v-55.219l-.87-7.389c-.436-2.174-2.174-3.48-5.217-3.48-3.044 0-5.218 1.306-6.087 3.48l-.433 7.389v55.219h-24.348v-54.783l-.437-7.825c-.869-2.174-2.607-3.044-5.65-3.044-3.044 0-4.782 1.306-5.218 3.477l-.437 6.956v55.219h-24.78v-84.349h23.478v7.392l2.175-2.174c4.345-4.782 9.563-7.392 15.214-7.392z"/><path d="m600 43.65-19.13 86.087c-3.044 12.607-7.825 20.869-14.349 24.781-3.479 2.175-8.697 3.044-15.217 2.611l-8.698-.872v-18.261l7.393.436c3.479-.436 4.348-4.782 2.174-12.61l-18.261-82.172h25.653l6.956 51.737 8.262-51.737z"/><path d="m469.566 42.345c8.694 0 14.781 3.044 17.824 9.13 4.782-6.519 11.305-9.566 18.698-9.566 3.912 0 8.258 1.305 12.174 3.48 5.65 3.479 8.258 8.694 8.258 15.217v67.826h-24.781v-54.783l-.433-7.392c-.436-2.171-2.175-3.477-5.221-3.477-3.044 0-5.215 1.306-6.087 3.477l-.433 7.392v54.783h-24.348v-54.347l-.433-7.828c-.436-2.171-2.611-3.477-5.654-3.477-3.044 0-4.782 1.306-5.218 3.913l-.433 6.956v55.216h-24.784v-84.346h23.479v7.393l2.174-2.611c4.349-4.782 9.563-6.956 15.218-6.956z"/><path d="m303.045 65.388v46.521l.433 10.869c.433 3.044.869 5.218 2.174 6.959h-24.348l-3.043-6.087-5.218 3.477c-3.913 3.043-7.825 4.782-11.738 4.782-8.261 0-14.348-2.172-18.697-6.087-4.782-3.913-6.956-9.128-6.956-16.52 0-8.261 1.738-14.348 4.782-19.13 2.61-4.349 7.392-7.829 14.784-10l11.738-4.348c6.523-2.175 10-4.782 10.436-7.393.433-3.043 0-5.651-1.738-7.825-1.306-2.174-3.48-3.043-5.655-2.607-3.476 0-5.65 1.738-6.956 4.781l-1.305 7.826h-25.65c.433-12.607 4.782-20.869 13.04-25.65 5.221-3.047 12.61-4.352 22.177-4.352 8.261 0 14.781.872 18.694 2.61 8.697 3.48 13.046 10.869 13.046 22.174zm-24.784 23.046-9.567 4.345c-5.651 3.044-8.258 6.956-7.825 11.738 0 3.916 1.738 6.959 5.654 8.265 3.04.866 5.651.433 7.825-1.306 2.175-2.174 3.477-5.217 3.913-10.002z"/></g></svg>