<svg clip-rule="evenodd" fill-rule="evenodd" stroke-linejoin="round" stroke-miterlimit="2" viewBox="0 0 600 272" xmlns="http://www.w3.org/2000/svg"><g fill="#fff"><path d="m540.149 36.26c10.285 5.221 19.756 12.038 28.11 20.291 20.566 20.567 31.74 47.99 31.741 77.45 0 36.814-11.426 67.032-34.024 89.63-26.915 26.918-70.08 42.147-118.325 42.147-57.131-1.012-99.279-13.455-139.652-41.641-2.541 3.046-5.079 6.094-7.872 8.888-18.029 17.775-41.641 27.678-67.033 27.678-19.806 0-38.595-6.095-54.845-17.523-19.552 18.536-45.197 28.691-72.365 28.691-28.439 0-54.847-10.915-74.906-30.973-20.059-20.063-30.978-46.469-30.978-74.907 0-58.403 47.482-105.882 105.884-105.882 27.168 0 52.813 10.408 72.365 28.944 16.25-11.426 35.039-17.519 54.845-17.519 28.693 0 55.861 13.203 73.888 35.294 17.777-22.092 45.199-35.294 73.891-35.294 4.063 0 8.376.251 12.694.76 1.017.253 2.541.506 4.824.762 10.527-15.534 24.299-27.888 39.969-36.305-.275 2.157-.417 4.36-.417 6.597 0 1.029.031 2.052.092 3.063-13.463 8.144-25.234 19.532-34.31 33.504l-1.527 2.284-2.536-.506c-2.541-.509-5.842-1.016-6.601-1.271h-.512c-4.06-.507-7.87-.76-11.678-.76-27.932 0-54.336 13.711-70.586 36.31l-3.303 4.824-3.301-4.824c-16.25-22.599-42.657-36.31-70.587-36.31-19.044 0-37.325 6.093-52.561 18.027l-2.793 2.031-2.539-2.54c-18.538-18.535-43.165-28.692-69.319-28.692s-50.784 10.158-69.065 28.44c-18.537 18.535-28.693 43.163-28.693 69.064 0 26.151 10.156 50.782 28.693 69.066 18.283 18.537 42.913 28.691 69.065 28.691 26.154 0 50.782-10.154 69.319-28.944l2.539-2.541 2.793 2.28c15.236 11.681 33.517 18.029 52.561 18.029 23.106 0 44.94-9.142 61.194-25.392 3.301-3.301 6.601-7.108 9.393-11.169l2.286-3.301 3.301 2.28c40.118 28.945 81.506 41.641 138.383 42.662 37.327 0 71.856-9.649 96.995-26.919 31.23-21.837 47.227-54.336 47.229-96.735 0-27.169-10.413-52.56-29.457-71.604-6.532-6.618-13.878-12.218-21.833-16.73.035-.768.053-1.541.053-2.317 0-2.405-.167-4.77-.489-7.088z"/><path d="m489.291 86.005c23.36 0 42.657-19.298 42.657-42.657 0-23.615-19.297-42.658-42.657-42.658-23.612 0-42.658 19.043-42.658 42.658 0 23.359 19.046 42.657 42.658 42.657z"/><path d="m437.748 174.37c.508-2.795.508-5.588.508-8.382 0-31.74-25.646-57.639-57.385-57.639-31.992 0-57.637 25.899-57.637 57.639 0 31.993 25.645 57.638 57.637 57.638 25.392 0 46.977-16.504 54.59-39.355h-33.263c-.507.508-1.012 1.012-1.519 1.774-5.335 5.335-12.443 8.128-19.808 8.128-7.617 0-14.726-2.793-20.057-8.128-3.303-3.301-5.588-7.363-7.112-11.675zm-56.878-36.313c7.364 0 14.473 2.792 19.807 8.125 2.283 2.286 4.314 5.078 5.585 8.124h-51.037c4.318-9.645 14.22-16.249 25.645-16.249z"/><path d="m61.701 111.65h32.247v108.168h-32.247z"/><path d="m128.988 111.65c-22.091 10.919-35.04 35.295-35.04 54.083 0 18.791 14.979 44.183 36.562 54.084h44.438c-29.201-18.284-47.992-37.327-47.992-54.084 0-24.884 22.853-43.166 45.196-54.083z"/><path d="m471.011 111.65h36.564v108.168h-36.564z"/><path d="m175.454 165.989c0-31.739 25.899-57.639 57.639-57.639 31.993 0 57.637 25.9 57.637 57.639 0 31.993-25.644 57.638-57.637 57.638-31.74-.001-57.639-25.645-57.639-57.638zm57.639 27.425c15.235 0 27.42-12.19 27.42-27.425 0-14.982-12.187-27.423-27.42-27.423-14.982 0-27.424 12.443-27.424 27.423.256 15.235 12.442 27.425 27.424 27.425z"/></g></svg>