<svg clip-rule="evenodd" fill-rule="evenodd" stroke-linejoin="round" stroke-miterlimit="2" viewBox="0 0 600 552" xmlns="http://www.w3.org/2000/svg"><g fill="#fff" fill-rule="nonzero"><path d="m448.674 273.243c-27.964 63.471-85.505 96.689-146.961 95.92-117.886-5.847-152.179-141.986-73.396-191.137l3.466 3.467c-1.345 1.764-5.917 5.471-13.284 19.885-8.583 17.515-11.199 34.973-10.184 45.893 6.134 95.167 139.273 114.522 185.133 20.445 58.373-129.047-96.351-260.104-233.73-159.94l-3.172-3.171c36.135-56.696 106.739-82.072 174.174-65.117 103.119 25.781 158.477 133.34 117.954 233.755zm-110.221-2.043c-9.545 13.74-25.44 22.738-43.439 22.738-29.195 0-52.862-23.666-52.862-52.861 0-27.904 21.623-50.756 49.026-52.721v.001c17.067-.687 32.969 8.536 40.541 23.489 8.163 16.123 5.175 36.009-7.539 49.419 4.757 3.312 9.515 6.623 14.273 9.934zm-184.419-34.912c-2.549 20.994-.96 27.55-.966 30.045l-4.664 1.697c-1.763-3.453-6.242-15.618-8.215-31.966-5.046-62.416 37.482-118.662 102.223-129.132 59.376-8.726 116.148 28.15 129.447 79.768l-4.677 1.701c-1.391-1.536-3.87-5.714-12.845-14.81-71.607-71.937-184.151-38.943-200.303 62.697zm339.612-34.614c-4.239-206.271-278.213-283.147-383.692-89.853 4.661 3.372 11.109 7.936 15.771 11.308-8.081 16.971-13.468 34.259-16.415 51.49-2.049 11.296-3.125 22.931-3.125 34.818 0 107.042 86.774 193.816 193.816 193.816 107.04 0 193.814-86.774 193.814-193.816 0-2.601-.067-5.186-.169-7.763"/><path d="m600 462.122h-30.931v87.742h-23.989v-87.742h-31.088v-22.725h86.008zm-146.817 0v25.567h46.871v18.305h-46.871v43.87h-23.985v-110.467h75.59v22.725zm-58.067 32.509c0-19.884-12.625-34.404-31.879-34.404-11.204 0-19.568 4.261-24.618 9.785l3.788 3.788c-5.84 4.893-11.047 11.679-11.047 23.829 0 16.73 11.836 31.404 31.877 31.404 19.254 0 31.879-14.518 31.879-34.402zm24.302 0c0 32.509-23.356 57.127-56.181 57.127-33.612 0-56.18-24.145-56.18-53.34 0-18.938 7.417-32.667 18.306-41.663l-3.788-3.787c8.365-8.679 23.672-15.464 41.662-15.464 32.825 0 56.181 24.933 56.181 57.127zm-147.751-10.574c18.937 6.629 28.721 15.151 28.721 32.194 0 22.882-17.516 35.507-38.189 35.507-19.096 0-33.772-8.521-39.927-24.303l19.095-14.202c3.473 9.943 12.467 16.097 21.463 16.097 7.89 0 13.572-4.262 13.572-11.363 0-6.629-4.262-10.731-20.043-16.412-17.044-6.156-29.669-14.677-29.669-32.983 0-17.676 14.677-31.088 35.982-31.088 16.885 0 29.984 6.785 36.139 20.199l-19.097 13.255c-3.628-8.205-9.309-12.781-17.989-12.781-7.26 0-12.624 3.945-12.624 9.626 0 6.47 5.996 10.414 22.566 16.254zm-81.956-44.66h23.986v110.467h-23.986zm-49.378 89.321c10.257 0 16.096-4.735 16.096-13.887 0-9.153-5.839-13.887-16.096-13.887h-13.256v27.774zm-13.256-68.174v23.356h12.626c7.416 0 12.465-4.261 12.465-11.68 0-7.415-5.049-11.676-12.465-11.676zm53.34 56.496c0 19.095-14.992 32.824-39.137 32.824h-38.191v-110.467h36.771c21.303 0 35.35 10.257 35.35 26.669 0 12.468-5.84 20.043-14.52 23.673 11.677 4.418 19.727 12.467 19.727 27.301zm-89.202-77.643v66.281c0 26.355-16.097 46.08-45.608 46.08-29.51 0-45.607-19.725-45.607-46.08v-66.281h23.987v64.386c0 16.098 7.575 25.25 21.62 25.25s21.62-9.152 21.62-25.25v-64.386z"/></g></svg>