<svg clip-rule="evenodd" fill-rule="evenodd" stroke-linejoin="round" stroke-miterlimit="2" viewBox="0 0 600 113" xmlns="http://www.w3.org/2000/svg"><path d="m115.62 13.074v-11.92h-59.098c-37.681 1.61-56.522 14.33-56.522 38.005 0 26.408 18.357 39.934 54.912 40.419h60.708v-12.079h-59.904c-9.502 0-18.358-2.416-26.731-7.567-8.373-5.153-12.72-9.661-12.882-13.848h99.517v-11.594h-99.517c-.322-5.153 4.669-9.984 14.814-14.815 8.374-4.024 18.358-6.279 29.629-6.601zm46.538-11.92h-14.492v78.421h14.492v-78.421zm125.442 8.857c-6.279-2.898-13.204-5.152-20.771-6.763-6.604-1.288-12.563-1.932-17.876-2.092h-54.107l-.162 78.422h14.33v-66.508h40.903l12.239 1.288c5.637 1.126 10.949 2.577 15.62 4.349 5.635 2.254 10.144 4.993 13.367 8.051 3.702 3.703 5.635 7.89 5.797 12.401 0 17.713-15.459 27.212-46.86 28.34h-33.494v12.079h32.849c5.797-.16 12.076-.967 18.518-2.417 7.569-1.61 14.492-3.865 20.451-6.763 7.085-3.383 12.722-7.569 16.747-12.238 4.509-5.475 6.763-11.754 6.923-18.842 0-6.441-2.414-12.4-7.085-17.553-4.185-4.508-9.982-8.533-17.389-11.754zm304.187.482v-9.983h-61.675l-9.337.644c-4.671.806-9.02 1.77-12.884 3.06-4.829 1.611-8.534 3.543-11.272 5.957-3.221 3.061-4.829 6.441-4.993 10.306 0 5.637 4.668 10.468 14.17 14.493 3.865 1.61 8.696 3.22 14.493 4.83l33.496 7.086c4.865 1.033 9.698 2.214 14.492 3.542 4.509 1.289 8.051 2.577 10.306 3.865 2.576 1.61 3.865 3.221 3.702 5.153 0 6.925-9.981 9.822-29.627 9.017h-61.674v10.308h69.242c26.73.645 39.937-6.281 39.772-20.451 0-3.061-1.288-5.797-3.862-8.374-2.417-2.092-5.799-4.346-10.308-6.281-3.862-1.61-8.693-3.22-14.492-4.831l-47.827-10.628c-4.509-1.288-7.889-2.576-10.144-3.864-2.738-1.448-4.024-3.061-4.024-4.831 0-6.281 9.502-9.18 28.341-8.858l54.105-.16zm-577.617 100.966v-13.851h2.095v13.851zm62.321-13.686h-1.934v11.754l-8.696-11.754h-2.736v13.846h1.932v-11.914l8.696 11.914h2.738zm52.011 14.168v-12.074h5.153v-1.772h-12.4v1.772h5.153v12.074zm61.031-6.117v-1.934h-8.373v-4.023h9.017v-1.772h-11.11v13.846h11.11v-1.768h-9.017v-4.349zm58.616-4.027c0-1.288-.484-2.25-1.29-2.896-.804-.646-1.932-.966-3.543-.966h-7.407v13.846h1.935v-5.957h5.152c1.127 0 1.771.16 2.255.482.322.324.612.988.737 1.857.123.869.229 3.618.229 3.618h2.417c-.323-.32-.482-.962-.645-1.768 0 0-.324-2.187-.631-3.677-.116-.464-.979-1.152-1.623-1.152 1.608-.488 2.414-1.774 2.414-3.387zm-5.799-2.09c2.462 0 2.899.32 2.899.32.644.32.966.966.966 1.768 0 .966-.32 1.613-.966 1.935 0 0-.893.486-2.739.486h-4.669v-4.509zm50.403 12.074h2.094l1.933-4.022h6.925l1.932 4.022h1.933l-6.119-13.846h-2.095zm4.831-5.797 2.738-5.797 2.739 5.797zm61.515-6.603c1.45 0 2.416.324 3.218.966.966.646 1.453 1.612 1.612 2.574h2.093c-.16-1.608-.804-2.736-2.093-3.862-1.288-.966-2.9-1.453-4.83-1.453-2.257 0-4.187.647-5.475 1.937-1.451 1.448-2.095 3.056-2.095 5.471 0 2.094.644 3.866 2.095 5.155 1.29 1.448 3.218 2.094 5.475 2.094 2.092 0 3.544-.646 4.83-1.612 1.289-1.127 1.933-2.415 2.255-4.189h-2.095c-.16 1.13-.644 2.098-1.612 2.74-.802.807-1.93 1.127-3.378 1.127-1.611 0-3.061-.482-4.025-1.449-.966-.966-1.45-2.254-1.45-3.866 0-1.773.484-3.221 1.45-4.023.964-1.124 2.414-1.61 4.025-1.61zm58.292 12.4v-12.074h5.153v-1.772h-12.398v1.772h5.152v12.074zm50.403 0v-13.846h2.094v13.846zm61.352-13.846h-2.094l-5.153 12.078-5.153-12.078h-2.094l6.121 13.846h2.252zm55.394 7.729v-1.934h-8.374v-4.023h9.018v-1.772h-11.112v13.846h11.112v-1.768h-9.018v-4.349zm-182.837-105.31c-37.019 0-67.031 17.916-67.031 40.017s30.012 40.017 67.031 40.017c37.015 0 67.026-17.916 67.026-40.017s-30.011-40.017-67.026-40.017zm.002 67.139c-28.209 0-51.077-12.143-51.077-27.122 0-14.981 22.868-27.122 51.077-27.122 28.203 0 51.071 12.141 51.071 27.122 0 14.977-22.87 27.122-51.071 27.122z" fill="#fff" fill-rule="nonzero"/></svg>