<svg clip-rule="evenodd" fill-rule="evenodd" stroke-linejoin="round" stroke-miterlimit="2" viewBox="0 0 600 133" xmlns="http://www.w3.org/2000/svg"><g fill="#fff"><g fill-rule="nonzero"><path d="m314.818 32.242c5.635 0 9.768.301 9.768 5.034 0 4.058-3.306 4.959-7.664 4.959h-7.739v-9.993zm.601-18.859c3.757 0 7.213.075 7.213 4.282 0 3.156-2.554 4.734-6.086 4.734h-7.363v-9.016zm2.405 41.475c14.05 0 23.292-4.207 23.292-16.304 0-5.861-3.155-10.895-9.016-12.398 3.456-2.179 7.063-6.236 7.063-11.797 0-10.744-9.693-13.599-21.865-13.599h-25.848v54.098z"/><path d="m347.64.76h17.732v54.099h-17.732z"/><path d="m371.947 14.96h15.929v39.898h17.732v-39.898h15.93v-14.2h-49.591z"/><path d="m442.25 54.858v-18.333l-.376-8.415-.751-7.965h.15l9.843 34.713h12.323l9.843-34.713h.15l-.902 9.768-.225 8.415v16.53h15.929v-54.098h-21.414l-9.543 33.736-9.542-33.736h-21.414v54.098z"/><path d="m524.45 36.45h-11.196l5.485-19.386zm-16.606 18.408 2.029-7.138h17.657l2.104 7.138h17.657l-19.385-54.098h-18.033l-19.385 54.098z"/><path d="m568.593 25.405v-12.022h5.034c3.757 0 9.467.676 9.467 5.71 0 4.659-3.005 6.312-7.138 6.312zm0 29.453v-16.83h8.941c15.553 0 22.466-7.364 22.466-19.01 0-11.12-7.514-18.258-23.067-18.258h-26.073v54.098z"/><path d="m183.254 108.028c5.635 0 9.768.3 9.768 5.034 0 4.057-3.306 4.959-7.664 4.959h-7.739v-9.993zm.601-18.86c3.757 0 7.213.075 7.213 4.283 0 3.156-2.555 4.734-6.086 4.734h-7.363v-9.017zm2.404 41.476c14.051 0 23.293-4.208 23.293-16.305 0-5.861-3.156-10.895-9.017-12.398 3.457-2.179 7.063-6.236 7.063-11.796 0-10.745-9.692-13.6-21.865-13.6h-25.847v54.099z"/><path d="m231.654 89.168h8.265c4.133 0 7.138 1.803 7.138 5.635 0 3.757-2.93 5.11-8.415 5.11h-6.988zm5.41 22.616c8.265 0 9.467 2.33 9.467 9.393 0 4.808.451 8.265.902 9.467h17.958v-1.653c-2.104 0-1.879-2.404-1.879-9.467 0-10.895-3.456-12.248-9.166-14.352 6.311-1.728 9.091-6.987 9.091-13.224 0-10.519-5.936-15.403-23.969-15.403h-25.546v54.099h17.732v-18.86z"/><path d="m296.334 88.342c7.815-.226 10.82 7.588 10.82 14.952 0 8.941-3.005 15.553-10.669 15.553-8.491 0-10.595-8.64-10.595-15.553 0-6.838 2.405-14.952 10.444-14.952zm.151-13.225c-16.831 0-28.327 11.046-28.327 28.027 0 18.408 11.346 28.928 28.327 28.928 16.004 0 28.402-10.369 28.402-28.778 0-14.276-9.092-28.177-28.402-28.177z"/><path d="m328.092 90.746h15.929v39.898h17.733v-39.898h15.929v-14.201h-49.591z"/><path d="m400.361 130.644v-20.963h16.756v20.963h17.732v-54.099h-17.732v18.258h-16.756v-18.258h-17.732v54.099z"/><path d="m488.848 130.644v-12.623h-27.426v-8.491h22.316v-12.623h-22.316v-7.739h26.374v-12.623h-44.106v54.099z"/><path d="m512.49 89.168h8.265c4.133 0 7.139 1.803 7.139 5.635 0 3.757-2.931 5.11-8.416 5.11h-6.988zm5.41 22.616c8.265 0 9.468 2.33 9.468 9.393 0 4.808.45 8.265.901 9.467h17.958v-1.653c-2.104 0-1.878-2.404-1.878-9.467 0-10.895-3.457-12.248-9.167-14.352 6.311-1.728 9.092-6.987 9.092-13.224 0-10.519-5.936-15.403-23.969-15.403h-25.547v54.099h17.732v-18.86z"/><path d="m596.331 92.249c-1.278-9.468-8.115-17.132-23.143-17.132-13.524 0-23.443 5.786-23.443 17.282 0 20.663 31.107 15.027 31.107 23.217 0 2.555-2.93 3.983-7.363 3.983-1.728 0-3.607-.451-5.034-1.353-1.503-.901-2.555-2.329-2.931-4.283h-16.981c.376 9.768 9.693 18.109 23.969 18.109 14.877 0 25.321-6.087 25.321-18.635 0-19.686-31.106-14.651-31.106-22.766 0-1.954 1.728-3.081 5.635-3.081 1.728 0 3.306.301 4.583.977 1.278.676 2.254 1.803 2.555 3.682z"/></g><path d="m274.922 1.732h-115.549v60.086h115.549zm-16.889 43.79c-1.985 3.04-6.142 7.444-10.05 7.444-2.047 0-3.661-.806-3.661-5.459 0-.807.063-1.675.187-2.668 6.266-2.109 17.06-7.631 17.06-15.324 0-3.474-2.729-5.459-5.955-5.459-9.058 0-17.061 13.649-17.061 21.838 0 5.149 2.854 9.864 8.375 9.864 5.398 0 10.113-4.839 12.718-9.182zm-53.045 9.554h5.087c1.985-5.15 4.963-9.803 9.057-17.806.621-1.178 5.398-8.561 7.445-8.561.745 0 1.055.806 1.055 1.489 0 1.055-.559 2.606-.931 3.66l-4.405 12.718c-.496 1.427-1.178 3.35-1.178 4.901 0 2.11 1.054 4.281 3.474 4.281 4.529 0 8.003-6.576 10.174-9.864l-1.799-1.055c-1.054 1.613-4.094 7.073-5.956 7.073-.496 0-.806-.435-.806-.931s.31-1.303.496-1.799l4.715-13.835c.621-1.737 1.551-4.777 1.551-6.576 0-2.357-1.551-4.715-4.032-4.715-5.398 0-13.215 14.889-15.696 19.48l-.124-.124 9.119-34.183-10.236 1.799-.496 2.047c3.412-.248 4.094.186 4.094 1.551 0 .745-.372 2.047-.558 2.792zm-28.954-45.413-6.39 10.857 1.923 1.179c3.722-4.591 10.671-9.989 16.75-9.989 1.551 0 .993 1.923.745 2.854l-8.313 31.392c-.497 2.109-.993 4.219-2.668 5.832-1.427 1.302-3.288 1.24-5.087 1.24l-.559 2.048h17.992l.558-2.048c-2.047 0-5.087-.186-5.087-2.978 0-1.24.62-3.35.93-4.528l8.252-31.268c.434-1.551.682-2.544 2.481-2.544 6.762 0 9.554 4.467 11.229 10.485l2.11-.496-.993-12.036zm68.785 32.881c1.861-9.802 7.445-15.696 10.546-15.696 1.427 0 2.048 1.241 2.048 2.543 0 5.646-7.631 11.478-12.594 13.153z"/><path d="m144.223.76h-144.223v129.884h144.223v-129.884zm-139.522 125.437-.165-.165v-1.16h135.184v1.491h-134.853zm0-4.473-.165-.165v-1.16h135.184v1.491h-134.853zm-.165-4.307v-1.491h135.184v1.491h-135.184zm0-4.473v-1.491h32.864l32.864-.001 3.648-2.981h34.26l2.101 1.893 1.434 1.089h28.013v1.491h-28.048l-1.15-.445-2.887-2.537h-33.245l-2.888 2.403-.54.29-.541.289h-65.885zm0-4.473v-1.491h52.73l3.254-2.982h53.835l3.188 2.982h22.177v1.491h-22.539l-1.938-1.427-1.46-1.555h-52.65l-3.188 2.982h-53.409zm0-4.473v-1.491h42.576l3.105-2.982h68.343l1.494 1.257 1.725 1.725h17.941v1.491h-18.432l-3.105-2.982h-67.465l-2.865 2.982h-43.317zm.045-5.156.079-.684 33.139-.128 2.851-2.605h82.048l.961.248.578-1.988.334-1.367h-93.178l-3.064 2.734h-23.826l.157-1.367 23.078-.129 2.994-2.604 24.374-.26-.581-.113-2.898-2.481-30.13-.004-3.064 2.733h-13.897v-1.491h13.43l2.101-1.901 1.229-.832 10.444-.015 10.444-.014-.987-.592-2.2-2.361h-16.148l-2.591 2.45-1.682.303-13.916-.144-.157-1.367h14.893l3.283-2.975-18.019-.131-.157-1.367h50.997l2.339-2.151 1.229-.831h65.878l1.938 1.598-.327-1.225-.007-.761-2.474-2.594h-68.382l-1.085.574-2.341 2.094-1.573.314h-46.159v-1.491h46.644l1.781-1.366 1.858-1.491 68.997-.13v-.639l-1.863-1.782-1.086-.556h-71.278l-1.938 1.408-.71.862-1.378.712h-41.027v-1.491h40.949l2.414-2.164 1.591-.818h71.593v-.955l-2.078-1.778h-75.29l-2.544 2.733h-36.635v-1.491h36.075l2.585-2.733h74.905v-1.44l-1.757-1.542h-53.744l-3.252 1.301-2.649-.274-2.123-1.027h-15.977l-3.063 2.733h-31v-1.491h30.472l1.46-1.526 1.74-1.083 7.602-.124 7.603-.125-3.167-2.857h-15.911l-2.34 2.167-1.085.566h-26.407l.157-1.367 26.182-.128 2.849-2.605 15.326-.145v-.476h-.381l-2.556-2.237h-15.943l-2.744 2.485h-22.89l.157-1.367 22.352-.129 2.001-1.925 1.086-.555h13.203v-.435l-1.367-.277-2.982-2.257-14-.012-2.63 2.245-1.838.495-15.825-.131-.157-1.367h16.665l1.633-1.427 1.933-1.306h12.604l-.004-.373-1.86-1.133-2.151-1.725h-11.538l-2.959 2.502-1.741.505-6.213-.075-6.212-.074-.158-1.367h13.185l2.833-2.307 1.286-.672 9.443-.018-.994-.557-1.17-1.081-1.169-1.08h-9.423l-3.335 2.733h-10.622v-1.491h10.239l2.551-2.293 1.158-.44h7.671v-.378l-3.415-2.604h-5.734l-2.655 2.157-1.085.576h-8.73v-1.491h8.612l3.035-2.361.032-.621h-11.679v-1.491h32.326l2.363-2.211 1.376-.522h10.404v-1.715l-1.662-1.267h-12.184l-1.934 1.293-1.399 1.316-29.29.136v-1.503h28.52l2.742-2.257 1.661-.476h9.57v-1.911l-.909-.823h-12.729l-2.84 2.485h-26.015v-1.491h25.525l2.183-1.912 1.085-.573h9.476v-1.911l-.909-.823h-11.996l-2.519 2.237h-22.878l.157-1.367 11.16-.065 11.159-.065 2.386-2.231h9.712v-1.099l-2.091-2.131h-6.749l-2.448 2.485h-23.286l.157-1.367 22.614-.116 2.083-2.369 7.691-.159 1.507.779 1.327 1.741h16.541l3.139-2.361 6.105-.165v-1.861l-1.15-1.081h-5.668l-2.642 2.61h-51.547l-.157-1.367h51.127l2.591-2.734h6.73l2.759 2.61 72.01.129v1.489l-71.816-.127v.621h.518l2.391 2.237h18.932l2.387-1.283 2.996.181 2.114 1.102h42.478v1.491h-41.499v1.393l1.639 1.589h39.86v1.491h-39.511v1.141l1.884 1.841h37.627v1.491h-37.772v1.184l1.99 1.798h35.782v1.497l-36.032-.131v.911l1.799 2.196h34.233v1.491h-33.796v1.901l1.151 1.081h32.645v1.491h-32.305v1.439l1.757 1.543h30.548v1.491h-30.565v2.262l1.723.72h28.842v1.506l-29.82-.14v1.59l1.825 1.392 27.995.137v1.479h-27.583v1.2l1.935 1.533h25.648v1.491h-25.098l.028.87 2.556 2.112h22.514v1.491h-21.868v.976l2.113 1.994 19.755.012v1.492h-20.128v.325l2.068 1.787 1.287.866 16.773.003v1.491h-16.649v1.185l1.989 1.797h14.66v1.491h-14.164v.851l2.091 2.131h12.073v1.491h-11.361l.572 2.858 10.789.134v1.481h-10.685v2.982h10.685v1.51l-10.904-.143-.594 2.123.89.983h10.608v1.518l-11.058-.154-.702-.246-.425 1.947 1.09 1.16h11.095v1.491h-11.32l-1.137-.796-.248.247-.638 2.412-.358 1.119h13.701v1.491h-14.417l-2.973-2.734h-80.997l-3.064 2.734h-33.766l.078-.684v.001zm120.382-8.372.137-.357.083-2.392-12.674-.159-25.184.172-25.184.172-3.059 2.502-.472.419h66.216zm-65.037-2.624 1.547-1.241 1.088-.252 62.871-.123.726.249.494-1.925-1.601-1.43h-62.867l-2.993 2.751-1.26.479-6.553.003 1.451.757 2.141 1.974h3.409zm-.402-4.349 1.389-1.367 1.307-.497h62.734l1.844.94v-1.622l-2.225-2.052h-65.268l-2.779 2.477-1.328.505-16.742.068 1.034.204 2.677 2.71h15.969zm.536-22.732.637-.242v-1.007h-5.496l.339.549 2.051.931 1.831.012zm55.804-1v-.897l-1.615-1.529-1.086-.556h-49.771l-1.452 1.452v1.53zm-54.783-2.754.983-1.015 1.342-.704h48.979v-1.191l-1.757-1.543h-50.731l-2.719 2.485h-6.421l.044.373 2.933 2.609h6.365zm-3.535-4.266.787-.808 1.246-.867 12.301-.002v-1.185l-1.99-1.797h-14.52l-2.641 2.609-6.569.248 1.491.828 1.712 1.782h7.396zm52.851-1.678v-.851l-2.091-2.131h-27.308l-2.628 2.485h-.526v.497zm-57.389-2.671.811-.932 1.287-.867 12.052-.002v-1.944l-1.529-1.287h-14.52l-2.216 2.293-1.599.689-8.589.02 1.491.79 2.074 1.677 1.156.464 8.771.031zm26.057-.435 1.433-1.367h9.274v-1.963l-1.662-1.267h-9.836l-2.482 2.521-1.211.461-4.814.029.914.592 2.971 2.361h3.98zm29.096-1.367v-1.452l-2.078-1.778h-7.413l-1.443.852v2.378zm-12.181-3.102 1.573-1.363 1.605-.301 8.009.169v-1.219l-1.589-1.639h-8.745l-2.166 2.207-1.366.566-4.027-.164.001.55 2.703 2.557h2.428zm-46.939-.066 1.543-1.429 6.299-.074 6.299-.074v-1.167l-1.757-1.543h-13.92l-2.339 2.167-1.086.567h-10.332l1.229.851 2.629 2.131h9.892zm27.125 0 1.444-1.429 9.428-.154v-1.795l-.822-.909h-11.26l-2.679 2.287-1.175.447-5.311.015.994.563 2.65 2.404h5.288zm-30.71-4.349 1.379-1.305 6.31-.074 6.31-.074v-1.424l-2.086-1.534h-13.268l-2.473 2.224-1.34.51h-11.896l.036.372 3.01 2.61h12.639zm27.171.161 1.34-1.143 1.175-.447h10.157v-.89l-2.131-2.092h-10.48l-3.335 2.734h-7.662v.417l1.153.525 2.356 2.04h6.088zm21.388.489.602-.655 1.939-1.424h9.368v-.851l-2.091-2.131h-7.996l-1.926 1.972-1.605.762h-5.516v.321l2.857 2.638 3.766.023zm-.132-5.185 1.667-1.367h8.419l.961.515-.01-.888-2.468-2.609h-7.753l-2.627 2.734-8.886.005 1.735 1.361.78.776 1.199.84h5.315zm-52.054.232 1.278-1.134 1.221-.465h10.435l-.154-1.848-1.689-1.134h-12.621l-2.34 2.167-1.085.567h-13.701l.003.372 1.364.856 2.415 1.754h13.597zm28.395-.012 1.275-1.147 1.158-.44h8.417v-2.208l-1.104-.774h-10.65l-2.648 2.734h-8.957v.463l.87.277 2.73 2.242h7.634zm22.329-4.44.979-1.113 1.978-.532 7.185.149-.001-1.055-2.226-2.051h-7.002l-1.085.566-1.17 1.084-1.17 1.084h-9.464v.27l2.858 2.693 8.138.019zm-25.391-.008 1.101-1.122 1.753-.487 8.822-.003v-1.488l-2.063-1.494h-9.101l-3.064 2.734h-10.622v.642l3.055 2.34h9.018zm-1.783-4.457 1.182-1.105 1.375-.523h7.671v-1.132l-1.463-1.601h-9.928l-1.655 1.776-.994.584-12.425.249 1.42.629 2.547 2.229h11.088zm25.542-.122 1.344-1.228 2.128-.319 6.562.165v-.53l-.001-.53-1.989-1.797h-7.221l-2.407 2.485h-11.99v.497h.394l2.939 2.485h8.898zm-2.13-3.245 2.198-2.361 7.977-.159v-.67l-1.821-2.029h-5.891l-2.143 2.237h-14.498v.385l2.361 2.576zm-27.694 0 1.712-1.799 1.6-.686h7.719v-2.138l-.596-.596h-9.945l-2.053 2.237h-13.499v.509l1.119.438 1.964 2.035zm28.538-5.592 1.041-1.118h6.09l-.165-.856-1.984-1.124-2.291-.008-1.831 1.243h-18.864v.528l2.609 2.435 14.353.019zm-29.71 0 1.065-1.118h8.156v-1.963l-1.662-1.267h-7.443l-1.953 1.646-1.229.839h-15.297v.691l1.122.282 1.961 2.009h14.214zm-55.224-10.727-.165-.165v-1.16h135.184v1.491h-134.853l-.166-.166z"/></g></svg>