<svg clip-rule="evenodd" fill-rule="evenodd" stroke-linejoin="round" stroke-miterlimit="2" viewBox="0 0 600 85" xmlns="http://www.w3.org/2000/svg"><g fill="#fff"><path d="m442.032 63.297c-4.691 6.028-11.964 8.612-19.429 8.612-20.198 0-32.64-15.697-32.64-35.126 0-26.034 18.283-36.467 33.693-36.467 17.419 0 28.427 9.476 31.489 25.556h-20.197c-.764-4.977-4.975-8.519-9.952-8.519-14.453 0-13.975 15.219-13.975 19.909 0 6.411 2.585 17.612 15.409 17.612 4.881 0 9.858-2.489 10.911-7.562h-9.283v-14.645h27.949v37.616h-13.304z"/><path d="m538.455 1.943h21.536l19.909 36.562h.191v-36.562h19.909v68.34h-20.483l-20.961-37.328h-.192v37.328h-19.909v-68.34z"/><path d="m497.459.315c20.772 0 34.649 14.931 34.649 35.798s-13.878 35.797-34.649 35.797c-20.77 0-34.649-14.93-34.649-35.797 0-20.866 13.88-35.798 34.649-35.798zm0 54.557c5.36 0 13.592-3.541 13.592-18.761 0-15.219-8.232-18.761-13.592-18.761-5.359 0-13.591 3.542-13.591 18.761 0 15.22 8.233 18.761 13.591 18.761z"/><path d="m219.666 2.136c19.654 1.914 26.72 17.729 26.72 33.882 0 20.961-11.103 34.266-34.936 34.266h-30.436v-68.341h34.552l4.1.193zm-17.596 50.631h8.232c13.113 0 15.027-10.625 15.027-17.037 0-4.307-1.34-16.272-16.559-16.272h-6.7z"/><path d="m347.266 1.943h20.578l24.886 68.34h-21.822l-2.871-9.763h-21.729l-3.063 9.763h-21.153l25.174-68.34zm16.557 43.932-6.125-21.057h-.192l-6.604 21.057z"/><path d="m253.559 1.943h40.109c11.964 0 22.301 6.605 22.301 19.525 0 7.084-3.254 14.55-10.241 17.134 5.743 2.203 9.283 8.518 10.049 17.037.286 3.35.382 11.485 2.296 14.644h-21.056c-1.054-3.445-1.437-6.985-1.724-10.528-.575-6.509-1.15-13.304-9.477-13.304h-11.2v23.834h-21.057v-68.342zm21.06 29.862h11.007c3.925 0 9.285-.671 9.285-6.795 0-4.306-2.392-6.795-10.434-6.795h-9.858z"/><path d="m80.359 45.386h-8.317l19.799-34.29c3.819-6.65 10.949-10.781 18.611-10.781h40.913l-4.158 7.203h-36.755c-5.098 0-9.84 2.753-12.37 7.171zm22.279-28.074c1.602-2.8 4.597-4.539 7.815-4.539h33.719l1.799-3.115h-35.518c-4.331 0-8.362 2.34-10.515 6.101l-17.105 29.627h3.596zm3.151 13.228h28.126l4.863-8.423 1.48-2.565 2.679-4.638h-32.483c-2.453 0-4.735 1.326-5.957 3.46l-15.595 27.012h8.317zm-63.908 0c-.005.059-.009.086-.006.086-.066.222-.369.861-1.429 2.639-2.24 3.761-4.532 8.461-4.533 14.8 0 11.832 9.626 21.459 21.46 21.459h81.71l-8.482 14.692h8.317l6.662-11.54c.625-1.052.955-2.261.955-3.493 0-3.783-3.077-6.86-6.86-6.86h-82.302c-7.862 0-14.257-6.396-14.257-14.258 0-4.323 1.407-7.569 3.519-11.111 1.965-3.298 2.46-4.437 2.459-6.755 0-3.782-3.077-6.859-6.859-6.859h-24.134l4.157 7.202h19.623v-.002zm97.793 26.527h-82.302c-4.962 0-9.001-4.039-9.001-9.002.001-2.743.754-5.025 2.777-8.421 2.176-3.651 3.201-5.773 3.201-9.446 0-6.679-5.435-12.115-12.115-12.115h-33.19l-1.173-2.029-7.871 3.559 12.181 3.905-1.34-2.321h31.393c4.963 0 9 4.039 9 9.001.001 2.794-.621 4.259-2.76 7.85-2.315 3.883-3.216 6.691-3.216 10.016 0 6.68 5.435 12.116 12.115 12.116h82.302c4.963 0 9.001 4.038 9.001 9.001 0 1.617-.434 3.204-1.264 4.603l-6.022 10.43h3.596l5.114-8.856c1.105-1.865 1.691-4 1.691-6.177 0-6.68-5.435-12.114-12.117-12.114zm-74.6 14.794h-8.316l-7.134 12.355h8.317zm-1.064 12.354 7.133-12.355h-3.595l-7.133 12.355zm17.922-12.354h-8.317l-7.133 12.355h8.316zm57.742-24.139h-81.948c.043-.526.27-1.318 1.448-3.296 2.561-4.294 4.519-8.07 4.519-14.228 0-11.833-9.626-21.46-21.46-21.46h-.564l-4.745 4.746-4.746-4.746h-22.51l4.159 7.203h28.405c7.862 0 14.257 6.396 14.257 14.257.001 4.35-1.323 6.884-3.503 10.541-1.827 3.066-2.475 4.983-2.475 7.326 0 3.782 3.078 6.859 6.86 6.859h82.302c7.862 0 14.258 6.396 14.258 14.257 0 2.554-.684 5.059-1.979 7.249l-4.495 7.784h8.317l2.398-4.155c1.937-3.29 2.961-7.05 2.961-10.879.001-11.831-9.626-21.458-21.459-21.458zm-95.635-39.898-7.115-7.114-7.114 7.114h3.303l3.811-3.811 3.811 3.811z" fill-rule="nonzero"/></g></svg>