<svg clip-rule="evenodd" fill-rule="evenodd" stroke-linejoin="round" stroke-miterlimit="2" viewBox="0 0 600 123" xmlns="http://www.w3.org/2000/svg"><path d="m47.929 42.332 12.771-.407v30.121l-12.771-.814v48.895h-38.669v-48.895l-9.26.661v-30.171l9.362.61v-26.407h38.669v26.407zm56.019 45.08c-.146 3.32.481 6.63 1.831 9.667 1.575 2.286 4.18 3.655 6.956 3.655 1.931 0 3.804-.661 5.306-1.874 1.381-1.228 2.328-2.871 2.697-4.681h36.99c-1.147 4.466-3.306 8.61-6.309 12.109-3.037 3.525-6.672 6.487-10.736 8.751-4.174 2.294-8.642 4.006-13.28 5.088-4.595 1.135-9.309 1.716-14.043 1.73-6.105.036-12.185-.786-18.062-2.442-5.508-1.524-10.684-4.06-15.264-7.479-4.428-3.333-8.017-7.654-10.481-12.618-2.46-5.407-3.627-11.313-3.409-17.249-.059-5.981 1.137-11.91 3.511-17.401 2.223-5.145 5.539-9.746 9.718-13.483 4.208-3.744 9.096-6.646 14.399-8.548 5.668-2.006 11.643-3.004 17.655-2.951 6.435-.046 12.833.986 18.927 3.053 5.601 1.914 10.783 4.885 15.264 8.751 4.374 3.865 7.847 8.641 10.176 13.992 2.535 5.788 3.801 12.051 3.715 18.368.031.593.031 1.188 0 1.781v1.781zm18.164-16.18c.048-2.638-.897-5.199-2.646-7.174-1.649-1.966-4.099-3.088-6.665-3.053-2.465-.135-4.846.95-6.36 2.9-1.638 2.089-2.517 4.673-2.493 7.327zm50.88-71.232h38.261v120.229h-38.261zm55.51 0h38.261v120.229h-38.261zm97.944 42.332 12.77-.407v30.121l-12.77-.814v48.895h-38.669v-48.895l-9.362.763v-30.273l9.362.61v-26.407h38.618v26.407zm76.167 67.518h-.916c-3.274 3.607-7.063 6.71-11.244 9.209-3.967 2.071-8.401 3.087-12.873 2.951-4.896.067-9.724-1.162-13.992-3.562-4.167-2.378-7.776-5.623-10.583-9.514-2.902-3.999-5.121-8.452-6.564-13.178-1.432-4.649-2.169-9.484-2.187-14.348-.037-5.169.701-10.314 2.187-15.264 1.437-4.836 3.71-9.382 6.717-13.432 2.909-3.944 6.642-7.209 10.939-9.566 4.451-2.402 9.443-3.628 14.5-3.561 9.104-.375 17.806 3.88 23.1 11.295h.916l-1.17-9.362h37.498v78.711h-37.549zm-17.757-21.065c1.813 2.236 4.607 3.453 7.479 3.257 2.98.21 5.878-1.068 7.734-3.409 1.749-2.461 2.643-5.429 2.544-8.446.098-2.805-.928-5.536-2.849-7.581-1.957-2.005-4.681-3.08-7.48-2.951-2.769-.087-5.431 1.094-7.225 3.205-1.828 2.115-2.808 4.836-2.747 7.632-.117 2.972.781 5.898 2.544 8.293zm70.061-88.785h38.262v120.229h-38.262zm89.753 87.412c-.148 3.32.479 6.63 1.831 9.667 1.561 2.299 4.166 3.679 6.945 3.679 1.938 0 3.818-.671 5.317-1.898 1.381-1.228 2.328-2.871 2.697-4.681h37.244c-1.147 4.466-3.305 8.61-6.309 12.109-3.036 3.525-6.671 6.488-10.736 8.751-4.174 2.294-8.642 4.006-13.279 5.088-4.596 1.135-9.31 1.716-14.043 1.73-6.089.032-12.152-.79-18.012-2.442-5.507-1.525-10.683-4.061-15.264-7.479-4.427-3.333-8.017-7.654-10.481-12.618-2.598-5.408-3.888-11.352-3.765-17.35-.061-5.982 1.135-11.911 3.511-17.401 2.225-5.145 5.541-9.746 9.718-13.484 4.156-3.686 8.973-6.551 14.195-8.446 5.668-2.006 11.643-3.004 17.655-2.951 6.436-.046 12.833.986 18.928 3.053 5.6 1.915 10.782 4.886 15.264 8.751 4.374 3.864 7.848 8.64 10.176 13.992 2.533 5.788 3.799 12.051 3.714 18.368.032.593.032 1.188 0 1.781v1.781zm17.96-16.18c.053-2.638-.892-5.202-2.646-7.174-1.649-1.966-4.099-3.088-6.665-3.053-2.464-.126-4.84.957-6.36 2.9-1.547 2.122-2.336 4.703-2.239 7.327h17.961z" fill="#fff" fill-rule="nonzero"/></svg>