<svg clip-rule="evenodd" fill-rule="evenodd" stroke-linejoin="round" stroke-miterlimit="2" viewBox="0 0 600 712" xmlns="http://www.w3.org/2000/svg"><path d="m499.684 683.324c-38.589 37.45-81.164 31.611-121.746 13.955-43.146-18.013-82.589-19.152-128.154 0-56.744 24.491-86.86 17.372-121.035-13.955-192.943-198.639-164.464-501.225 54.822-512.616 53.184 2.848 90.419 29.404 121.746 31.611 46.563-9.469 91.132-36.595 140.969-33.035 59.877 4.841 104.659 28.479 134.562 70.983-123.17 74.045-93.98 236.373 19.152 281.939-22.641 59.449-51.689 118.187-100.387 161.616zm-198.639-514.752c-5.767-88.284 65.786-160.904 148.089-168.024 11.321 101.811-92.555 177.992-148.089 168.024z" fill="#fff" fill-rule="nonzero"/></svg>