<svg clip-rule="evenodd" fill-rule="evenodd" stroke-linejoin="round" stroke-miterlimit="2" viewBox="0 0 600 200" xmlns="http://www.w3.org/2000/svg"><g fill="#fff" fill-rule="nonzero"><path d="m522.214 115.255h77.786v19.109h-26.078v58.176h-25.627v-58.176h-26.081z"/><path d="m439.807 166.973 24.425-1.414c.528 3.672 1.613 6.474 3.242 8.396 2.648 3.117 6.434 4.673 11.363 4.673 3.672 0 6.501-.799 8.486-2.399 1.989-1.595 2.987-3.45 2.987-5.557 0-2.002-.951-3.792-2.856-5.375-1.901-1.583-6.292-3.074-13.16-4.479-11.251-2.345-19.277-5.472-24.068-9.363-4.835-3.897-7.254-8.859-7.254-14.893 0-3.961 1.237-7.701 3.713-11.232 2.472-3.524 6.195-6.299 11.16-8.318 4.963-2.009 11.766-3.021 20.417-3.021 10.61 0 18.703 1.835 24.271 5.497 5.566 3.672 8.882 9.494 9.941 17.497l-24.119 1.317c-.652-3.481-2.009-6.017-4.079-7.606-2.07-1.583-4.925-2.372-8.574-2.372-3 0-5.261.588-6.777 1.767-1.521 1.176-2.281 2.607-2.281 4.293 0 1.23.632 2.336 1.902 3.32 1.226 1.018 4.105 1.965 8.634 2.845 11.215 2.248 19.248 4.513 24.099 6.814 4.852 2.301 8.383 5.157 10.59 8.564 2.214 3.407 3.316 7.22 3.316 11.433 0 4.955-1.475 9.511-4.418 13.691-2.95 4.182-7.065 7.35-12.357 9.511-5.291 2.16-11.96 3.242-20.01 3.242-14.131 0-23.911-2.53-29.357-7.57-5.436-5.059-8.517-11.47-9.236-19.261z"/><path d="m405.313 179.754h-29l-4.18 12.786h-26.148l31.064-77.285h28.107l31.127 77.285h-26.814zm-5.426-16.721-9.05-27.761-9.068 27.761z"/><path d="m270.668 115.255h68.742v16.442h-43.115v12.363h39.95v15.74h-39.95v15.176h44.321v17.564h-69.948z"/><path d="m564.623 71.716h-29.004l-4.183 12.787h-26.142l31.064-77.283h28.104l31.13 77.283h-26.814zm-5.433-16.721-9.051-27.761-9.064 27.761z"/><path d="m432.103 7.22h77.787v19.11h-26.078v58.173h-25.627v-58.173h-26.082z"/><path d="m406.785 71.716h-29.004l-4.18 12.787h-26.145l31.064-77.283h28.107l31.128 77.283h-26.814zm-5.429-16.721-9.055-27.761-9.061 27.761z"/><path d="m271.119 7.22h37.98c7.485 0 13.536.948 18.146 2.846 4.609 1.899 8.419 4.627 11.422 8.175 3.014 3.551 5.195 7.676 6.548 12.393 1.354 4.707 2.033 9.696 2.033 14.964 0 8.255-1.008 14.665-3.02 19.214-2.013 4.553-4.808 8.373-8.379 11.444-3.575 3.073-7.419 5.119-11.514 6.141-5.607 1.404-10.684 2.106-15.236 2.106h-37.98zm25.628 17.565v42.154h6.224c5.308 0 9.081-.554 11.325-1.66 2.241-1.098 4.002-3.03 5.268-5.788 1.27-2.749 1.905-7.217 1.905-13.392 0-8.178-1.421-13.771-4.256-16.782-2.846-3.02-7.56-4.532-14.135-4.532h-6.331z"/><path d="m16.084.663c-.29 0-.571.033-.861.035h-15.223v33.005h.154v-5.636s11.442-.025 11.653-.025c39.742 0 71.961 32.22 71.961 71.961 0 39.64-32.056 71.785-71.656 71.95l-11.958.013v-5.624h-.154v33.005h16.503v-.016c54.668-.229 98.92-44.607 98.92-99.329 0-54.862-44.477-99.339-99.339-99.339z"/><path d="m71.885 100.003c0-34.149-27.685-61.834-61.834-61.834-.183 0-10.014.021-10.014.021v123.65l10.274-.01c34.03-.145 61.574-27.765 61.574-61.827z"/><path d="m157.285 104.275c2.197 32.061 28.771 57.417 61.36 57.555l10.273.01v-57.565z"/><path d="m228.918 95.674v-57.484s-9.83-.021-10.013-.021c-32.688 0-59.386 25.384-61.617 57.505z"/><path d="m212.871.663c.291 0 .571.033.862.035h15.222v33.005h-.154v-5.636s-11.441-.025-11.653-.025c-39.742 0-71.961 32.22-71.961 71.961 0 39.64 32.056 71.785 71.657 71.95l11.957.013v-5.624h.154v33.005h-16.502v-.016c-54.669-.229-98.921-44.607-98.921-99.329 0-54.862 44.477-99.339 99.339-99.339z"/></g></svg>