<svg clip-rule="evenodd" fill-rule="evenodd" stroke-linejoin="round" stroke-miterlimit="2" viewBox="0 0 600 361" xmlns="http://www.w3.org/2000/svg"><g fill="#fff"><path d="m434.409 248.315-.635-.143c-.006-.03 0-.059-.022-.09-.103-.147-.299-.127-.382-.118-1.324.131-9.39.359-38.328-8.203l-5.715-1.71c-18.556-5.581-36.082-10.852-46.576-6.245-6.777 2.976-7.007 7.378-6.539 9.74.888 4.494 5.619 8.832 9.736 8.926l.142.004.067-.127c1.838-3.481 7.155-5.199 16.263-5.251 8.207-.048 18.72 1.241 28.886 2.489 16.311 2.002 33.177 4.07 42.324.991z"/><path d="m301.005 247.683c-.105-.15-.308-.13-.405-.12-1.507.15-10.702.41-43.66-9.343l-6.511-1.948c-21.125-6.353-41.077-12.354-53.017-7.112-7.699 3.38-7.959 8.377-7.429 11.056 1.008 5.105 6.382 10.032 11.058 10.141l.141.003.068-.126c2.097-3.976 8.164-5.939 18.547-6 9.35-.054 21.323 1.416 32.902 2.837 18.571 2.277 37.774 4.634 48.185 1.129l.78-.264-.632-.14c-.006-.037 0-.075-.027-.113"/><path d="m488.846 167.205c.026-.955-.362-1.882-1.122-2.678-1.209-1.266-3.23-2.055-5.404-2.103-3.663-.087-6.694 1.924-6.758 4.477-.022.955.369 1.882 1.126 2.677 1.212 1.27 3.23 2.056 5.404 2.107 3.659.082 6.69-1.927 6.754-4.48"/><path d="m467.776 126.716c1.687-16.587-.347-28.873-6.193-37.895-4.266-6.574-12.402-11.221-19.775-11.651-14.037-.815-22.751 16.811-19.65 29.178 4.455 17.754 28.181 32.696 38.158 36.888-6.687 41.63-26.07 67.016-49.864 65.179-11.276-.87-18.553-10.396-20.916-14.621 8.835-8.595 14.557-19.604 19.887-34.805 5.057-14.413 7.796-30.679 8.101-45.73.641-31.747-5.042-57.015-15.375-67.595-3.588-3.676-7.671-5.545-12.135-5.561-6.854-.023-13.48 4.066-19.188 11.689-7.38-23.203-19.599-37.571-32.446-37.612-9.426-.032-18.2 6.722-25.41 19.396l-.042-.218-.006-.026c-7.807-20.602-19.134-31.958-31.207-32.484-12.13-.526-24.114 12.039-31.384 30.547l-.084-.102c-6.86-11.379-15.027-17.412-23.617-17.44-13.966-.045-26.269 14.611-33.982 40.229l-.151-.099-.004-.01-.007-.01c-5.967-9.178-12.998-14.043-20.333-14.069-21.259-.07-37.622 36.981-37.636 86.597.59 15.07 3.46 29.262 9.259 42.257 5.454 12.227 13.085 24.047 25.994 32.751-2.028 1.622-7.321 6.438-18.814 11.782-6.833 3.177-13.915 5.134-20.936 5.866-8.77.915-17.531-.063-26.037-2.908-10.397-3.477-19.462-9.228-26.942-17.09-6.829-7.18-12.21-15.959-15.995-26.093-3.473-9.298-5.512-19.718-5.898-30.125-.372-10.064.788-20.15 3.355-29.162 7.337-25.753 18.304-48.347 32.595-67.153 11.457-15.076 21.9-23.498 26.36-27.093 2.24-1.809 2.604-2.117 2.351-2.45-.125-.161-.325-.077-.401-.045-7.69 3.165-91.543 66.043-81.571 145.351 6.324 50.291 41.945 63.629 57.026 66.753 46.814 9.699 77.468-22.102 80.296-24.683 4.865 2.225 9.662 3.82 16.385 3.96 15.554.327 26.595-8.352 31.825-12.997 6.874 4.162 13.072 6.485 23.002 6.453 14.73-.048 23.137-6.924 27.81-10.428 5.744 3.86 16.902 9.782 28.93 9.951 13.874.194 21.013-3.946 24.673-6.301 10.801 8.965 21.256 12.137 30.945 12.098 9.762-.04 15.16-2.427 19.665-5.025 5.584 5.161 16.042 11.044 29.015 11.183 37.426.4 52.756-42.059 58.253-68.154 2.418 1.077 19.894 7.45 31.314 11.417 28.832 10.009 58.641 20.358 63.022 30.763.747 1.776.725 3.46-.067 5.146-.776 1.646-2.996 3.114-6.597 4.362-7.764 2.69-21.269 3.988-35.243 3.387-15.31-.659-28.969-3.477-37.471-7.73-3.114-1.557-4.782-3.246-4.958-5.016-.196-1.967 1.59-3.38 1.607-3.395l-.254-.381c-3.387 1.951-5.224 4.259-5.455 6.86-.25 2.807 1.491 5.346 3.059 6.668 6.245 5.265 25.179 9.714 41.349 9.714 33.36 0 42.632-7.563 45.072-10.816l.068-.09c1.979-2.587 2.62-5.535 1.754-8.721-5.808-21.447-70.639-49.708-95.086-60.641zm-308.716-5.984c0-21.158 1.869-39.281 5.77-51.965 1.895-6.167 6.599-19.364 14.438-19.178 5.67.135 9.937 7.646 11.614 10.628-3.123 13.73-5.567 29.948-5.501 50.393.057 18.197 3.583 30.47 7.843 44.578-2.461 15.186-7.061 27.877-16.681 39.676-5.054-4.925-17.483-26.45-17.483-74.132zm21.439 77.099c6.626-9.335 12.042-19.187 15.75-35.802 4.191 9.992 14.795 24.518 23.501 30.895-7.264 7.069-24.328 14.943-39.251 4.907zm35.504-43.553c-2.523-14.532-3.856-32.95-3.856-53.264 0-20.679 2.161-39.841 5.964-53.955 3.94-14.621 9.406-22.671 15.51-22.671 8.787 0 13.667 11.741 14.819 12.831-4.862 11.937-9.517 40.951-9.517 60.553 0 12.014 2.295 30.974 5.12 42.295.001-.013.004-.026.005-.038l.005.083c-.003-.016-.006-.032-.01-.045-1.405 15.83-6.423 32.404-17.072 45.314-5.249-6.895-8.464-16.681-10.968-31.103zm36.796 42.503c-11.105 1.501-21.59-6.384-23.126-8.093 13.744-16.167 17.118-38.804 17.118-38.804 8.922 27.004 21.427 36.677 24.011 39.135-2.452 2.032-9.235 6.577-18.003 7.762zm14.885-67.179c-1.517-19.544-1.125-36.868-1.12-37.045.133-38.302 5.998-67.759 15.989-77.588 2.214-2.175 4.538-3.278 6.983-3.259 12.257.103 19.316 27.937 19.945 29.159-6.486 14.445-12.636 42.558-12.415 70.103.076 9.352.317 16.356 2.344 27.713-.244 1.927-2.248 14.185-9.562 27.744-1.605 2.98-5.313 9.755-10.25 14.967-6.6-8.43-9.941-26.368-11.914-51.794zm14.164 54.981c11.837-11.939 17.362-24.706 19.582-36.376 2 7.908 7.956 28.608 23.175 43.95-21.175 12.62-39.204-3.231-42.757-7.574zm54.181-.874c-6.975-15.025-9.618-34.431-10.933-49.825-1.421-16.696-1.215-30.326-1.212-30.464.08-23.049 2.322-42.767 6.359-57.009 1.976-6.972 4.304-12.412 6.989-16.103 2.533-3.483 5.615-5.333 8.874-5.542 11.734-.744 20.445 29.204 21.173 32.818-4.615 7.854-14.759 36.019-14.532 70.158.116 17.357 1.319 20.692 2.156 26.436-.501 5.882-9.782 21.259-18.874 29.531zm19.066 18.865c-7.392-1.934-13.242-8.763-16.786-15.195 6.6-6.041 13.858-15.866 18.422-26.081.737 5.93 9.162 27.284 18.944 37.93-2.662 1.628-10.962 5.863-20.58 3.346zm24.935-37.938c-2.046-11.981-2.912-26.343-2.537-43.911.946-43.946 8.146-71.245 19.583-71.178 7.151.042 11.667 14.641 13.774 26.706 1.985 11.394 3.108 24.178 2.633 38.202-.888 26.135-7.732 44.694-12.754 56.295-2.743 6.33-8.384 15.25-13.076 19.702-2.803-4.703-5.923-15.866-7.623-25.816zm82.739-39.575s-13.081-7.476-21.073-17.196c-4.509-5.488-9.362-13.175-6.578-20.49 1.087-2.858 4.253-4.509 8.303-4.23 6.985.481 15.352 6.17 18.187 18.338 1.242 5.346 2.467 12.02 1.161 23.578"/><path d="m12.322 305.17h-12.322c1.386 3.354 2.115 6.78 2.115 12.979v26.028c0 9.115-1.021 12.251-2.115 15.677h12.322c-1.603-5.76-2.041-8.897-2.041-15.093v-25.154c0-8.24 1.02-11.229 2.041-14.437"/><path d="m89.014 316.836c0-5.833.656-8.749 1.385-11.666h-10.499c.875 3.135 1.532 5.686 1.532 15.749v24.863l-24.718-31.353c-4.302-5.468-4.812-6.78-5.833-9.259h-13.053c3.283 2.625 4.74 4.01 7.365 7.364v32.883c0 1.022-.073 8.75-1.822 14.437h11.593c-1.678-4.447-2.188-11.228-2.188-16.041v-21.582l23.26 29.748c1.896 2.406 3.719 4.959 4.666 7.875h10.136c-.803-2.261-1.824-5.177-1.824-13.635z"/><path d="m142.685 313.19 4.448-8.02h-29.967c.874 2.917 1.823 5.906 1.823 13.707v25.665c0 2.261-.073 8.459-1.823 15.312h11.664c-1.239-4.229-1.676-8.021-1.676-12.396v-12.248c6.781-.072 10.135.875 13.926 2.479l4.158-7.876h-18.084v-19.394c7.219.219 9.625.437 15.531 2.771"/><path d="m191.772 304.732c-19.03 0-29.968 15.019-29.968 27.197 0 14 10.938 28.29 28.583 28.29 15.457 0 28.581-10.864 28.581-27.925 0-13.855-9.114-27.562-27.196-27.562zm.874 49.582c-10.425 0-21.654-8.824-21.654-23.624 0-10.573 7.072-20.124 18.083-20.124 12.759 0 21.436 12.395 21.436 23.77 0 8.53-5.687 19.978-17.865 19.978"/><path d="m286.637 332.22h-13.342c2.041 2.771 3.645 4.958 3.645 13.416v6.053c-2.551 1.018-4.666 1.895-9.624 1.895-14.072 0-22.165-9.625-22.165-21.584 0-14.654 10.425-21.434 19.685-21.434 7.803 0 13.708 3.061 17.354 4.957v-9.114c-3.355-.802-7.583-1.823-14.218-1.823-11.594 0-18.52 2.699-24.352 9.697-4.522 5.396-6.854 12.468-6.854 19.395 0 10.354 5.614 26.541 30.187 26.541 10.06 0 15.456-2.113 19.174-3.573-1.021-3.719-1.021-4.813-1.021-8.457v-6.491c0-5.322.948-7.801 1.531-9.478"/><path d="m342.337 320.773c0-7.365-6.632-15.822-20.705-15.603l-10.644.147c.584 1.894 1.456 4.884 1.456 11.3v29.091c0 4.739-.292 8.752-1.456 14.146h11.084c-1.459-5.834-1.533-7.584-1.533-11.812v-13.488c11.302 15.019 14.656 18.957 22.02 25.3h7.507c-6.488-7.8-13.197-15.895-18.081-24.497 2.479-1.313 10.352-5.688 10.352-14.584zm-21.798 12.979v-23.915c10.936 1.093 13.489 7.655 13.489 11.738 0 8.385-8.313 10.719-13.489 12.177"/><path d="m391.082 304.951h-.44l-21.07 41.852c-4.522 8.969-6.126 10.938-7.951 13.051h13.345c-.292-4.303 1.825-9.041 2.771-11.083l2.457-5.205h19.794l2.905 6.663c1.966 4.448 2.258 7.219 2.258 9.625l12.979.002c-2.04-2.771-4.592-6.418-8.531-14.949zm-8.012 32.255 7.409-15.413 6.549 15.413z"/><path d="m494.725 305.388h-10.718c-1.604 2.917-2.332 3.792-3.936 5.76l-16.333 20.197-14.948-18.593c-2.916-3.572-3.791-5.322-4.74-7.582h-12.396l5.398 5.978v34.123c0 8.459-1.386 12.032-2.479 14.583h12.979c-2.335-5.25-2.335-11.302-2.335-12.175v-27.343l18.521 22.894 18.373-22.894v25.956c0 5.25-.583 9.48-2.408 13.562h13.126c-2.405-5.323-2.479-10.499-2.479-14.437v-26.905c0-7.946 2.117-10.425 4.375-13.124"/><path d="m528.508 334.7c4.159.291 6.199.583 12.469 2.405l4.666-7.655h-17.135v-19.103c5.763-.22 8.97.509 15.096 3.28l4.153-8.457h-29.454c1.53 4.739 2.04 10.135 2.04 13.853v26.759c0 6.999-1.094 10.864-2.04 14.072h28.652l4.012-9.113c-11.594 3.936-15.458 3.936-22.459 3.936z"/><path d="m589.939 330.545c-6.853-3.939-11.449-6.637-11.449-11.814 0-4.302 3.72-7.364 8.46-7.364 4.885 0 7.948 2.406 10.353 4.301v-8.457c-2.627-1.093-6.126-2.625-11.084-2.625-8.967 0-16.186 7.146-16.186 15.823 0 8.312 4.666 11.227 16.334 18.519 1.603 1.021 4.592 3.427 4.592 7.219 0 3.865-3.428 7.655-8.165 7.655-5.032 0-8.242-3.79-10.718-6.636v11.595c2.553.729 5.102 1.458 9.403 1.458 11.449 0 18.521-6.562 18.521-15.605 0-5.249-2.187-9.549-10.061-14.069"/><path d="m369.254 190.351c-10.259-16.586-17.122-36.048-16.609-64.469.539-29.832 8.165-60.482 18.181-74.09 5.702-7.745 12.664-11.985 19.98-11.699 5.737.224 8.139 2.857 11.199 5.365 0 0-7.299.53-13.431 10.026-5.084 7.876-10.5 31.368-11.023 64.131-.744 46.583 6.857 65.117 10.785 72.161 10.186 18.267 23.467 21.325 23.467 21.325-12.498 1.627-28.406-4.4-36.16-13.839-1.899-2.313-3.855-4.817-6.389-8.911"/><path d="m166.665 63.322c-4.599 13.431-7.183 26.843-7.548 56.444-.512 41.65 10.527 69.919 18.59 76.019 17.324 13.112 27.313 10.631 27.313 10.631-11.334 3.301-22.232 3.256-35.317-4.982-22.501-14.168-34.921-47.644-35.159-74.885-.255-29.354 6.097-58.009 18.004-74.657 5.403-7.556 12.447-12.065 19.518-12.046 8.183.019 13.714 6.061 13.714 6.061s-11.996-3.386-19.115 17.415"/><path d="m185.365 108.541c.188-33.844 7.086-64.061 19.76-81.53 6.102-8.412 13.207-13.149 21.149-13.197 5.601-.035 9.621 1.921 13.733 5.154.005.103-8.775.359-14.799 10.551-5.931 10.032-12.784 30.868-12.883 71.605-.111 45.457 6.339 70.027 11.693 79.624 9.122 16.351 25.89 21.037 25.89 21.037-7.778.088-16.205.854-28.622-7.756-16.343-11.33-36.172-40.528-35.921-85.488"/><path d="m238.808 97.211c-.362-21.285 6.227-64.35 20.424-82.544 7.459-9.56 13.694-13.909 22.39-13.819 3.23.032 8.3.709 14.204 5.693 0 0-8.64-.305-16.171 12.042-5.935 9.734-12.458 28.87-12.973 71.114-.583 47.827 4.864 79.275 11.252 89.108 14.728 22.676 26.271 22.464 26.271 22.464-2.517.821-22.753-1.066-37.498-16.07-13.675-13.911-27.119-42.156-27.899-87.988"/><path d="m296.977 108.881c.207-28.882 6.453-57.865 16.025-75.34 9.105-16.622 19.336-19.345 25.227-19.39 3.698-.029 8.634 1.206 13.515 5.33 0 0-8.874 2.486-15.048 11.757-4.926 7.405-12.145 26.936-12.77 69.501-.449 30.537 3.771 68.67 13.2 84.666 11.148 18.918 19.832 21.72 19.832 21.72-8.559 0-22.443-4.269-33.998-16.698-14.7-15.811-26.257-43.173-25.983-81.546"/></g></svg>