<svg clip-rule="evenodd" fill-rule="evenodd" stroke-linejoin="round" stroke-miterlimit="2" viewBox="0 0 600 200" xmlns="http://www.w3.org/2000/svg"><g fill="#fff" fill-rule="nonzero"><path d="m522.214 115.057h77.786v19.11h-26.078v58.176h-25.627v-58.176h-26.081z"/><path d="m439.807 166.776 24.425-1.414c.528 3.671 1.613 6.474 3.242 8.395 2.648 3.118 6.434 4.674 11.363 4.674 3.672 0 6.501-.8 8.486-2.399 1.989-1.596 2.987-3.451 2.987-5.557 0-2.002-.951-3.793-2.856-5.376-1.901-1.582-6.292-3.074-13.16-4.478-11.251-2.345-19.277-5.473-24.068-9.363-4.835-3.898-7.254-8.86-7.254-14.894 0-3.961 1.237-7.7 3.713-11.231 2.472-3.525 6.195-6.3 11.16-8.319 4.963-2.009 11.766-3.02 20.417-3.02 10.61 0 18.703 1.834 24.271 5.496 5.566 3.672 8.882 9.495 9.941 17.497l-24.119 1.317c-.652-3.48-2.009-6.017-4.079-7.606-2.07-1.582-4.925-2.372-8.574-2.372-3 0-5.261.588-6.777 1.767-1.521 1.176-2.281 2.607-2.281 4.294 0 1.23.632 2.335 1.902 3.319 1.226 1.018 4.105 1.966 8.634 2.846 11.215 2.248 19.248 4.512 24.099 6.813 4.852 2.302 8.383 5.157 10.59 8.564 2.214 3.407 3.316 7.22 3.316 11.433 0 4.956-1.475 9.511-4.418 13.691-2.95 4.183-7.065 7.351-12.357 9.511-5.291 2.161-11.96 3.242-20.01 3.242-14.131 0-23.911-2.529-29.357-7.569-5.436-5.06-8.517-11.47-9.236-19.261z"/><path d="m405.313 179.556h-29l-4.18 12.787h-26.148l31.064-77.286h28.107l31.127 77.286h-26.814zm-5.426-16.721-9.05-27.761-9.068 27.761z"/><path d="m270.668 115.057h68.742v16.442h-43.115v12.364h39.95v15.74h-39.95v15.176h44.321v17.564h-69.948z"/><path d="m564.623 71.519h-29.004l-4.183 12.787h-26.142l31.064-77.283h28.104l31.13 77.283h-26.814zm-5.433-16.721-9.051-27.761-9.064 27.761z"/><path d="m432.103 7.023h77.787v19.11h-26.078v58.173h-25.627v-58.173h-26.082z"/><path d="m406.785 71.519h-29.004l-4.18 12.787h-26.145l31.064-77.283h28.107l31.128 77.283h-26.814zm-5.429-16.721-9.055-27.761-9.061 27.761z"/><path d="m271.119 7.023h37.98c7.485 0 13.536.947 18.146 2.846 4.609 1.898 8.419 4.626 11.422 8.174 3.014 3.551 5.195 7.677 6.548 12.394 1.354 4.707 2.033 9.696 2.033 14.964 0 8.254-1.008 14.665-3.02 19.214-2.013 4.552-4.808 8.372-8.379 11.443-3.575 3.074-7.419 5.12-11.514 6.141-5.607 1.405-10.684 2.107-15.236 2.107h-37.98zm25.628 17.565v42.153h6.224c5.308 0 9.081-.554 11.325-1.659 2.241-1.099 4.002-3.031 5.268-5.789 1.27-2.748 1.905-7.216 1.905-13.392 0-8.177-1.421-13.771-4.256-16.781-2.846-3.02-7.56-4.532-14.135-4.532z"/><path d="m16.084.465c-.29 0-.571.034-.861.036h-15.223v33.005h.154v-5.636s11.442-.025 11.653-.025c39.742 0 71.961 32.219 71.961 71.961 0 39.639-32.056 71.784-71.656 71.949l-11.958.014v-5.625h-.154v33.006h16.503v-.017c54.668-.228 98.92-44.607 98.92-99.329 0-54.862-44.477-99.339-99.339-99.339z"/><path d="m71.885 99.806c0-34.15-27.685-61.835-61.834-61.835-.183 0-10.014.022-10.014.022v123.649l10.274-.01c34.03-.144 61.574-27.764 61.574-61.826z"/><path d="m157.285 104.078c2.197 32.061 28.771 57.416 61.36 57.554l10.273.01v-57.564z"/><path d="m228.918 95.477v-57.484s-9.83-.022-10.013-.022c-32.688 0-59.386 25.384-61.617 57.506z"/><path d="m212.871.465c.291 0 .571.034.862.036h15.222v33.005h-.154v-5.636s-11.441-.025-11.653-.025c-39.742 0-71.961 32.219-71.961 71.961 0 39.639 32.056 71.784 71.657 71.949l11.957.014v-5.625h.154v33.006h-16.502v-.017c-54.669-.228-98.921-44.607-98.921-99.329 0-54.862 44.477-99.339 99.339-99.339z"/></g></svg>