<svg clip-rule="evenodd" fill-rule="evenodd" stroke-linejoin="round" stroke-miterlimit="2" viewBox="0 0 600 182" xmlns="http://www.w3.org/2000/svg"><g fill="#fff"><path d="m372.228 142.132c-34.867 25.7-85.404 39.412-128.916 39.412-61.011 0-115.936-22.566-157.49-60.097-3.264-2.951-.339-6.973 3.579-4.675 44.844 26.092 100.291 41.788 157.567 41.788 38.628 0 81.121-7.992 120.193-24.576 5.903-2.508 10.839 3.865 5.067 8.148"/><path d="m386.724 125.548c-4.44-5.694-29.461-2.69-40.692-1.358-3.421.418-3.943-2.56-.862-4.701 19.928-14.026 52.627-9.977 56.441-5.276 3.813 4.727-.993 37.505-19.719 53.149-2.873 2.403-5.616 1.123-4.336-2.063 4.205-10.499 13.634-34.031 9.168-39.751"/><path d="m346.816 20.477v-13.634c0-2.063 1.567-3.447 3.447-3.447h61.037c1.959 0 3.526 1.41 3.526 3.447v11.675c-.026 1.959-1.671 4.518-4.597 8.566l-31.628 45.158c11.753-.288 24.159 1.462 34.815 7.469 2.403 1.358 3.056 3.343 3.238 5.302v14.548c0 1.985-2.194 4.309-4.492 3.108-18.778-9.847-43.721-10.917-64.484.104-2.116 1.149-4.336-1.149-4.336-3.134v-13.816c0-2.22.026-6.007 2.246-9.376l36.643-52.549h-31.889c-1.959 0-3.526-1.384-3.526-3.421"/><path d="m124.163 105.542h-18.569c-1.776-.131-3.187-1.463-3.317-3.161v-95.303c0-1.906 1.593-3.421 3.578-3.421h17.316c1.802.078 3.238 1.462 3.369 3.186v12.458h.339c4.519-12.04 13.007-17.655 24.446-17.655 11.623 0 18.883 5.615 24.107 17.655 4.492-12.04 14.704-17.655 25.648-17.655 7.783 0 16.297 3.212 21.494 10.421 5.877 8.018 4.675 19.666 4.675 29.878l-.026 60.149c0 1.907-1.593 3.448-3.578 3.448h-18.543c-1.855-.131-3.343-1.62-3.343-3.448v-50.511c0-4.022.365-14.052-.523-17.865-1.384-6.399-5.537-8.201-10.917-8.201-4.492 0-9.193 3.004-11.1 7.81-1.907 4.805-1.724 12.849-1.724 18.256v50.511c0 1.907-1.593 3.448-3.578 3.448h-18.543c-1.881-.131-3.343-1.62-3.343-3.448l-.026-50.511c0-10.63 1.749-26.275-11.44-26.275-13.346 0-12.824 15.253-12.824 26.275v50.511c0 1.907-1.593 3.448-3.578 3.448"/><path d="m467.375 1.646c27.554 0 42.467 23.662 42.467 53.75 0 29.069-16.48 52.131-42.467 52.131-27.058 0-41.788-23.663-41.788-53.15 0-29.669 14.913-52.731 41.788-52.731m.156 19.457c-13.685 0-14.547 18.648-14.547 30.271 0 11.648-.183 36.512 14.391 36.512 14.391 0 15.07-20.058 15.07-32.281 0-8.044-.34-17.656-2.769-25.282-2.089-6.634-6.242-9.22-12.145-9.22"/><path d="m545.571 105.542h-18.491c-1.855-.131-3.343-1.62-3.343-3.448l-.027-95.329c.157-1.75 1.698-3.108 3.579-3.108h17.211c1.619.078 2.951 1.175 3.317 2.664v14.574h.34c5.197-13.033 12.484-19.249 25.308-19.249 8.331 0 16.454 3.003 21.677 11.23 4.858 7.627 4.858 20.451 4.858 29.67v59.992c-.209 1.672-1.75 3.004-3.578 3.004h-18.622c-1.698-.131-3.108-1.385-3.291-3.004v-51.765c0-10.421 1.202-25.674-11.622-25.674-4.518 0-8.671 3.03-10.734 7.627-2.612 5.824-2.952 11.622-2.952 18.047v51.321c-.026 1.907-1.645 3.448-3.63 3.448"/><path d="m298.159 60.019c0 7.234.183 13.267-3.474 19.692-2.951 5.224-7.652 8.436-12.85 8.436-7.13 0-11.309-5.432-11.309-13.45 0-15.827 14.182-18.7 27.633-18.7zm18.726 45.262c-1.227 1.096-3.004 1.175-4.388.444-6.163-5.12-7.287-7.496-10.656-12.38-10.186 10.395-17.42 13.503-30.61 13.503-15.644 0-27.789-9.638-27.789-28.939 0-15.07 8.149-25.334 19.797-30.348 10.082-4.44 24.159-5.224 34.92-6.451v-2.403c0-4.414.339-9.638-2.273-13.451-2.246-3.421-6.581-4.832-10.42-4.832-7.078 0-13.373 3.631-14.914 11.153-.313 1.671-1.541 3.317-3.238 3.395l-17.995-1.933c-1.515-.339-3.213-1.567-2.769-3.891 4.127-21.835 23.872-28.416 41.527-28.416 9.037 0 20.842 2.403 27.972 9.245 9.037 8.436 8.175 19.693 8.175 31.942v28.939c0 8.697 3.604 12.51 7 17.211 1.175 1.672 1.436 3.683-.079 4.936-3.787 3.16-10.525 9.037-14.234 12.328l-.026-.053"/><path d="m54.716 60.019c0 7.234.183 13.267-3.473 19.692-2.952 5.224-7.627 8.436-12.85 8.436-7.13 0-11.283-5.432-11.283-13.45 0-15.827 14.182-18.7 27.606-18.7zm18.727 45.262c-1.228 1.096-3.004 1.175-4.388.444-6.164-5.12-7.261-7.496-10.656-12.38-10.186 10.395-17.394 13.503-30.61 13.503-15.618 0-27.789-9.638-27.789-28.939 0-15.07 8.175-25.334 19.797-30.348 10.082-4.44 24.159-5.224 34.919-6.451v-2.403c0-4.414.34-9.638-2.246-13.451-2.272-3.421-6.607-4.832-10.421-4.832-7.078 0-13.398 3.631-14.939 11.153-.313 1.671-1.541 3.317-3.212 3.395l-18.022-1.933c-1.514-.339-3.186-1.567-2.768-3.891 4.153-21.835 23.871-28.416 41.527-28.416 9.037 0 20.842 2.403 27.972 9.245 9.037 8.436 8.175 19.693 8.175 31.942v28.939c0 8.697 3.604 12.51 6.999 17.211 1.202 1.672 1.463 3.683-.052 4.936-3.787 3.16-10.525 9.037-14.234 12.328l-.052-.053"/></g></svg>