<svg clip-rule="evenodd" fill-rule="evenodd" stroke-linejoin="round" stroke-miterlimit="2" viewBox="0 0 600 93" xmlns="http://www.w3.org/2000/svg"><g fill="#fff"><path d="m598.32 46.443c-2.112-2.876-5.246-3.472-9.621-3.472l-10.473-.044c-4.124-.044-6.08-.332-6.957-.539-1.091-.301-1.172-.326-1.172-2.193 0-1.994 0-3.003 12.028-3.003 4.888 0 6.894.408 7.69.627 1.21.376 1.21.376 1.21 2.783h8.047c-.069-3.836-.557-6.149-3.096-8.035-2.538-1.887-6.217-2.62-13.676-2.62-2.777 0-7.114.157-9.589.451-3.473.382-5.641.884-7.685 2.507-1.41 1.072-3.077 3.216-3.077 7.264 0 8.838 6.619 10.091 13.106 10.091 14.491 0 14.785 0 15.995.383.464.144.84.288.84 2.306s-.821 2.275-1.404 2.401c-3.131.462-6.294.672-9.458.627-8.086 0-9.991-.376-10.787-.677-.157-.232-.244-1.147-.276-3.234l-7.916.037c-.05.596-.056 1.166-.056 1.254 0 3.616.627 6.23 3.817 8.148 2.256 1.297 5.196 1.698 12.535 1.698 9.659 0 14.228-.439 16.923-1.68 3.184-1.529 4.732-4.418 4.732-8.831 0-2.67-.552-4.625-1.717-6.18z"/><path d="m419.021 42.971-10.48-.037c-2.331.04-4.661-.143-6.957-.546-1.078-.301-1.172-.319-1.172-2.187s0-3.009 12.034-3.009c5.077 0 7.07.458 7.697.627 1.184.376 1.184.376 1.184 2.789l8.06-.031c-.056-3.83-.539-6.13-3.09-8.035-2.551-1.906-6.223-2.62-13.663-2.62-2.802 0-7.12.163-9.596.451-3.466.382-5.603.871-7.703 2.507-1.404 1.078-3.071 3.215-3.071 7.271 0 8.881 6.631 10.078 13.106 10.078 14.497 0 14.791 0 15.988.389.477.144.847.275.847 2.306s-.821 2.269-1.411 2.394c-1.579.351-5.553.627-9.458.627-8.072 0-9.971-.376-10.792-.677-.138-.25-.245-1.147-.264-3.234l-7.903-.188c-.063.627-.069 1.385-.069 1.486 0 3.61.627 6.23 3.811 8.148 2.306 1.316 5.12 1.698 12.585 1.698 9.64 0 14.209-.445 16.923-1.68 3.134-1.516 4.713-4.387 4.713-8.831 0-2.676-.551-4.644-1.724-6.173-2.099-2.89-5.246-3.479-9.608-3.479z"/><path d="m136.054 52.448c0 2.582 0 2.582-2.037 2.883-1.035.144-6.218.376-9.339.376-3.918 0-7.923-.125-9.815-.338-1.893-.213-2-.539-2.188-1.649-.163-1.291-.445-5.866-.445-8.261 0-6.136.871-7.126.903-7.17.482-.345 2.676-.921 11.971-.921 7.195 0 9.345.551 9.796.696.759.294.94.357.972 2.557v2.977h7.803l-.031-2.006c-.082-4.889-.22-6.694-2.257-8.618-2.475-2.375-5.929-3.033-16.114-3.033-2.507 0-6.612.087-8.568.219-4.525.257-6.894.627-8.925 2.137-3.071 2.338-3.648 6.957-3.648 14.679s.79 11.251 3.04 13.313c2.67 2.457 6.612 2.833 18.753 2.833 9.514 0 13.099-.37 15.563-2.564 2.124-1.943 2.306-3.923 2.507-9.351l.081-2.056h-7.903z"/><path d="m254.036 49.665h24.946v-7.339h-24.946v-4.958h26.061v-7.34h-34.115v33.006h34.153v-7.327h-26.099z"/><path d="m485.941 49.665h24.964v-7.339h-24.964v-4.958h26.061v-7.34h-34.109v33.006h34.153v-7.327h-26.105z"/><path d="m434.019 37.368h15.481v25.666h8.067v-25.666h15.375v-7.34h-38.923z"/><path d="m312.307 53.137-15.663-23.109h-11.25v33.006h8.06v-23.686l16.17 23.686h5.403l15.883-23.516v23.516h8.054v-33.006h-11.289z"/><path d="m188.552 32.805c-2.627-2.47-6.588-2.883-17.199-2.883-2.701 0-8.066.131-9.959.219-4.068.257-6.268.627-8.399 2.125-3.209 2.357-3.798 6.606-3.798 14.134 0 5.014.207 7.784.739 9.79.812 3.147 3.368 5.561 6.556 6.192 2.445.495 7.603.727 16.215.727 10.147 0 13.732-.627 16.039-2.946 2.162-2.187 2.927-5.741 2.927-13.538 0-2.306-.15-5.327-.332-6.838-.32-3.04-.915-5.271-2.789-6.982zm-5.447 6.268c.326 2.539.466 5.099.42 7.659.016 2.339-.137 4.677-.458 6.994-.206.972-.532 1.254-1.535 1.436-3.498.417-7.02.599-10.542.545-1.968 0-7.083-.125-8.706-.219-2.651-.17-3.83-.389-4.193-.734-.508-.551-.765-3.441-.765-8.63 0-6.412.696-7.59.909-7.81 1.097-.946 8.336-.946 10.724-.946 7.759 0 10.066.075 12.328.407 1.643.238 1.73.771 1.818 1.298z"/><path d="m221.087 30.028h-23.234v33.006h23.554c8.775 0 11.727-.376 14.566-2.877s3.942-6.537 3.942-13.638c0-6.531-.501-10.348-3.246-13.125-2.934-2.933-6.124-3.366-15.582-3.366zm-15.174 7.34h15.086c3.347 0 4.632 0 5.503.069 2.808.188 3.492.708 3.886 1.134.395.426 1.398 2.125 1.398 7.766 0 8.323-2.043 8.775-3.134 9.032-1.485.332-1.504.338-7.427.338h-15.312z"/><path d="m362.035 30.028-19.825 33.006h9.264l3.66-6.13h22.658l3.648 6.13h9.163l-19.775-33.006zm-2.564 19.53 7.052-11.714 6.982 11.714z"/><path d="m555.456 34.623c-1.254-2.345-3.698-3.849-6.795-4.231-2.225-.282-2.375-.282-10.191-.364h-21.166v33.006h8.067v-11.188h13.112c6.512.038 6.512.038 7.847.245 1.184.156 1.479.67 1.592 1.579.163 1.066.15 1.103.15 4.607v4.757h8.073v-6.111c0-4.72-.1-6.5-1.88-8.317 1.974-1.63 2.432-4.175 2.432-7.847 0-2.658-.345-4.425-1.21-6.136zm-30.085 2.745h13.112c6.618 0 8.643.144 9.458.696.112.119.583.864.583 2.657.021.956-.108 1.91-.383 2.827-.37.627-2.256.959-5.948.959h-16.822z"/><path d="m51.997.976c-.029.014-.061.023-.09.04-.3.141-.588.305-.863.491h-.018c-.008.005-.015.01-.024.014-3.807 2.63-22.711 15.623-28.619 19.687-.256.174-.503.361-.74.56-.525.362-1.012.777-1.453 1.238l-5.112 5.41-14.312 15.115c-.541.589-.816 1.376-.759 2.174.054.838.418 1.627 1.023 2.21l4.057 3.948c.874.902 2.229 1.157 3.371.636.731-.289 4.272-1.866 8.589-3.805l-10.327 11.638c-4.626 5.214-4.129 13.606 1.132 18.473l11.189 10.389c1.768 1.658 4.038 2.683 6.451 2.915.206.025.909.048 1.011.048h56.188c.251 0 .481 0 .692-.011.013-.001.026-.002.039-.003l-.039.003c-.765.039-1.509-.27-2.022-.84v.005l-4.131-4.305c-1.272-1.321-1.499-3.655-.521-5.21 5.177-7.904 12.358-18.931 12.358-18.931v-.012l.925-1.388c1.98-3.032 1.499-7.841-1.078-10.793l-3.347-3.838c-1.275-1.462-2.876-2.287-4.509-2.324s-3.143.737-4.187 2.188l-14.342 19.951c-.487.718-1.285 1.166-2.151 1.208-.9.023-1.767-.351-2.369-1.02l-5.013-5.217c-1.422-1.485-1.619-3.946-.462-5.473l15.142-19.764c1.104-1.439 1.601-3.389 1.404-5.496-.188-2.105-1.034-4.097-2.417-5.695l-3.701-4.233c-1.386-1.606-3.165-2.587-5.001-2.758-1.798-.197-3.58.521-4.738 1.911l-1.739 2.054-4.442 5.223-10.331 12.145c-1.272 1.499-3.562 1.434-5.105-.167l-5.059-5.267c-.757-.787-1.215-1.814-1.295-2.903-.098-1.006.221-2.01.881-2.776l17.023-18.695 5.966-6.556c.817-.9 1.791-1.644 2.875-2.194.005-.002.011-.005.016-.008l-.016.008zm21.939 77.767-5.066 7.597c-2.188 3.277-5.376 5.32-9.022 5.736-3.701.412-7.388-.939-10.342-3.83l-13.93-13.665c-6.593-6.465-7.387-17.49-1.809-24.187l16.347-19.627 6.086-7.31c.52-.634 1.324-.967 2.14-.886.895.098 1.718.542 2.292 1.235l3.743 4.25c.636.732 1.025 1.646 1.113 2.611.107.889-.125 1.787-.65 2.512l-15.436 19.702c-2.635 3.364-2.191 8.846.994 12.124l5.09 5.232c1.496 1.536 3.365 2.313 5.262 2.212 1.897-.102 3.537-1.074 4.694-2.714l14.11-20.002c.419-.634 1.131-1.015 1.89-1.013.805.037 1.556.415 2.066 1.038l3.389 3.852c1.189 1.351 1.411 3.56.49 4.941l-13.417 20.146c-.007.017-.016.034-.025.051z"/></g></svg>