<svg clip-rule="evenodd" fill-rule="evenodd" stroke-linejoin="round" stroke-miterlimit="2" viewBox="0 0 600 150" xmlns="http://www.w3.org/2000/svg"><g fill="#fff"><path d="m417.795 54.111c4.615-3.362 10.573-3.393 16.037-3.493 14.218-.031 28.431-.008 42.649-.012v27.949c-.031 4.632.293 9.583-1.975 13.805-2.479 4.373-7.689 6.247-12.447 6.744-6.293.598-12.633.174-18.945.297-6.255-.15-12.594.467-18.776-.74-3.798-.783-7.762-2.495-9.875-5.923-1.974-3.247-2.414-7.165-2.422-10.89.019-5.271-.042-10.542.035-15.81.143-4.511 1.743-9.393 5.719-11.927zm-73.278 14.253c-.012-5.923-.039-11.846.012-17.769 14.001.019 28.003.007 42 .007 4.516.027 9.61.008 13.258 3.085 3.1 2.746 3.146 7.23 3.065 11.048-4.488.027-8.977.058-13.462-.073.197-1.257-.551-2.646-1.931-2.653-9.429-.089-18.864-.012-28.293-.035.112 1.944-.505 4.33 1.088 5.834 1.642 1.323 3.891 1.35 5.9 1.485 8.811.023 17.63-.004 26.441.019 3.721-.004 8.04.814 10.269 4.115 2.178 3.308 1.596 7.457 1.681 11.202.008 3.42.339 7.234-1.866 10.13-2.727 3.667-7.647 4.669-11.97 4.654-11.753-.015-23.503-.004-35.256-.004-3.555-.031-7.508-1.076-9.629-4.164-2.121-3.012-1.789-6.853-1.766-10.339 4.546.016 9.101-.007 13.647.016-.239 1.373.297 3.085 1.947 3.123 8.333.07 16.682.023 25.019.023 1.627-.15 3.767-.092 4.739-1.669.678-1.701.351-3.587.37-5.368-9.741.038-19.477 0-29.214.019-3.802.035-7.92-.088-11.133-2.391-3.293-2.29-4.87-6.385-4.916-10.295zm-170.529-17.758c4.94-.004 9.887 0 14.831-.004.015 9.475-.012 18.953.012 28.432.1 2.039.362 4.264 1.75 5.876 1.481 1.62 3.822 1.948 5.912 2.032 5.236.012 10.477.012 15.713.004 2.083-.077 4.419-.412 5.916-2.005 1.403-1.616 1.685-3.864 1.762-5.923 0-9.471-.004-18.941.004-28.416 4.966.004 9.937.004 14.9 0 .088 16.265-.143 32.534-.07 48.799-13.824.008-27.652-.003-41.476.008-5.009-.073-10.435-.833-14.368-4.211-3.536-3.069-4.805-7.932-4.882-12.451-.007-10.712-.004-21.429-.004-32.141zm72.63.008c13.89-.019 27.783-.008 41.673-.004 4.766.108 9.864.177 14.079 2.703 3.088 1.84 4.334 5.595 4.403 9.027.039 2.727.047 5.603-1.176 8.114-1.168 2.078-3.436 3.312-5.687 3.844 2.68.548 5.599 1.57 7.033 4.095 1.809 3.259 1.708 7.173 1.404 10.778-.363 2.854-1.346 5.939-3.833 7.639-2.842 1.924-6.367 2.476-9.733 2.588-16.053.011-32.106.011-48.159.003-.008-16.261-.004-32.522-.004-48.787zm296.886-.004c18.829-.008 37.662-.008 56.492 0 .007 4.13.003 8.268 0 12.401-6.945.004-13.882 0-20.827.004v36.386c-4.948.008-9.895 0-14.835 0v-36.386c-6.945-.004-13.886 0-20.83-.004-.008-4.133-.004-8.271 0-12.401zm-225.536 0c4.959-.015 9.922-.008 14.884-.004.004 16.269.008 32.53 0 48.795-4.966 0-9.925.008-14.884 0-.008-16.261-.008-32.526 0-48.791zm169.672 0c16.805-.008 33.61-.015 50.423 0 0 4.145.003 8.291-.008 12.436-11.842 0-23.684-.008-35.53.004.007 2.695 0 5.398.007 8.102 11.303.011 22.605 0 33.907.003-.004 4.165.008 8.322-.004 12.486-11.306.004-22.6 0-33.903.004-.011 5.252.008 10.504-.011 15.756-4.959 0-9.918.008-14.881 0-.004-16.261-.004-32.526 0-48.791zm-226.11 29.21c.008 2.757-.012 5.511.008 8.264 8.899-.012 17.803-.008 26.703-.008 1.35-.058 2.819-.139 3.956-.941 1.315-1.388 1.273-3.605.637-5.298-.779-1.72-2.931-1.974-4.589-2.017-8.904-.004-17.812-.004-26.715 0zm167.347-14.53c-2.032 2.383-1.951 5.7-1.913 8.65.101 3.324-.393 6.863 1.065 9.975 1.222 2.453 4.249 2.985 6.729 3.031 6.343 0 12.69.016 19.029-.004 2.094-.092 4.393-.451 5.947-1.978 1.53-1.535 1.662-3.848 1.716-5.888-.008-5.356-.008-10.705-.008-16.061-8.588 0-17.179-.007-25.767.004-2.387.085-5.113.386-6.798 2.275zm-167.347-3.316c0 2.595.004 5.187 0 7.785 8.61.016 17.225-.003 25.839.012 1.258-.023 2.657-.1 3.656-.96 1.014-1.307 1.088-3.189.625-4.72-.536-1.569-2.31-2.148-3.822-2.113-8.765-.015-17.533 0-26.298-.004z"/><path d="m66.982 1.001c12.527-1.236 25.369.704 36.918 5.735 17.167 7.376 31.301 21.493 38.698 38.653 7.872 17.961 8.171 39.062.838 57.248-5.771 14.501-16.266 27.058-29.486 35.353-8.196 5.172-17.422 8.706-26.976 10.332-13.026 2.23-26.647.957-39.004-3.748-16.802-6.323-31.093-18.984-39.432-34.876-5.732-10.845-8.73-23.141-8.528-35.41.034-16.42 5.859-32.732 16.113-45.545 8.808-11.119 20.866-19.634 34.31-24.174 5.355-1.822 10.92-3.016 16.549-3.568zm2.735 6.557c-13.171.856-26.038 5.733-36.491 13.793-11.266 8.608-19.72 20.843-23.719 34.457-3.853 12.978-3.688 27.115.49 39.995 2.866 8.91 7.636 17.199 13.867 24.181 6.254 7.028 13.99 12.736 22.56 16.623 11.338 5.176 24.126 7.066 36.483 5.491 10.384-1.305 20.443-5.077 29.117-10.932 13.399-8.947 23.413-22.835 27.592-38.408 3.304-12.131 3.132-25.186-.496-37.226-2.538-8.443-6.758-16.374-12.334-23.2-6.161-7.576-13.986-13.798-22.761-18.084-10.581-5.209-22.549-7.503-34.308-6.69zm-5.64 11.017c10.689-1.888 21.916-.638 31.91 3.602 4.979 2.099 9.641 4.927 13.831 8.337 8.09 6.219 14.473 14.639 18.231 24.128 4.059 10.143 4.979 21.473 2.78 32.162-1.99 9.781-6.665 19.007-13.408 26.374-6.274 6.894-14.311 12.163-23.128 15.181-6.366 2.183-13.118 3.22-19.844 3.086-9.632-.068-19.503-2.332-27.484-7.909-8.224-5.655-13.888-14.537-16.499-24.092-2.669-9.251-1.381-19.532 3.408-27.878 4.754-8.436 12.973-14.848 22.346-17.316 9.41-2.572 19.825-1.195 28.2 3.822 4.542 2.704 8.56 6.36 11.517 10.75-3.67-3.661-8.286-6.405-13.34-7.643-8.807-2.269-18.642.12-25.417 6.192-3.672 3.242-6.486 7.447-8.053 12.09-1.709 5.006-1.952 10.499-.688 15.636 1.182 4.924 3.774 9.505 7.403 13.037 7.977 7.96 20.814 10.632 31.261 6.353 7.243-2.923 12.991-9.025 15.912-16.222 2.787-6.734 3.235-14.267 2.031-21.403-1.431-8.739-5.794-16.997-12.353-22.967-6.885-6.367-15.992-10.134-25.299-10.947-9.473-.933-19.243 1.352-27.242 6.527-7.222 4.606-12.996 11.432-16.354 19.309-3.645 8.463-4.442 18.115-2.275 27.067.016.152.045.457.061.611-4.539-10.985-5.671-23.376-2.93-34.96 2.606-11.354 8.88-21.796 17.592-29.517 7.787-6.948 17.552-11.633 27.831-13.41zm-2.828 53.15c3.312-3.057 7.628-4.999 12.111-5.484 4.338-.482 8.83.378 12.651 2.502 3.772 2.065 6.908 5.289 8.826 9.142 2.108 4.148 2.76 8.996 1.918 13.567-.89 4.847-3.541 9.342-7.332 12.491-4.876 4.102-11.707 5.905-17.938 4.478 3.847.172 7.73-1.136 10.736-3.536 2.797-2.224 4.839-5.382 5.692-8.853 1.087-4.288.335-9.011-2.06-12.738-2.391-3.803-6.414-6.541-10.838-7.34-4.816-.935-10.008.476-13.703 3.702-4.571 3.865-6.683 10.338-5.259 16.157-1.445-3.037-1.87-6.498-1.689-9.829.362-5.404 2.88-10.616 6.885-14.259zm-1.648 19.675c.299-3.931 2.873-7.569 6.457-9.197-1.999 1.494-3.453 3.758-3.666 6.274-.525 4.245 2.638 8.517 6.84 9.285 4.044.93 8.468-1.58 9.817-5.484 1.284-3.344.134-7.301-2.567-9.602 2.844 1.581 4.868 4.515 5.443 7.709.434 2.557.04 5.267-1.246 7.531-1.646 2.986-4.722 5.137-8.101 5.64-3.328.527-6.88-.503-9.352-2.808-2.586-2.323-3.972-5.891-3.625-9.348z"/></g></svg>