<svg clip-rule="evenodd" fill-rule="evenodd" stroke-linejoin="round" stroke-miterlimit="2" viewBox="0 0 600 178" xmlns="http://www.w3.org/2000/svg"><g fill="#fff"><path d="m600 18.685c0-9.928-8.06-17.988-17.989-17.988h-564.022c-9.929 0-17.989 8.06-17.989 17.988v140.531c0 9.928 8.06 17.989 17.989 17.989h564.022c9.929 0 17.989-8.061 17.989-17.989zm-8.333 0v140.531c0 5.329-4.327 9.655-9.656 9.655h-564.022c-5.329 0-9.656-4.326-9.656-9.655v-140.531c0-5.328 4.327-9.655 9.656-9.655h564.022c5.329 0 9.656 4.327 9.656 9.655z"/><path d="m147.648 88.445c0-33.996-26.711-59.29-60.504-59.29-33.591 0-60.504 24.89-60.504 59.695 0 34.4 26.306 59.694 60.504 59.694 33.793 0 60.504-24.889 60.504-60.099zm-60.504 28.734c-15.177 0-26.913-12.95-26.913-28.329s11.938-28.33 26.71-28.33c15.784 0 27.116 13.355 27.116 28.33 0 14.974-11.13 28.329-26.913 28.329z" fill-rule="nonzero"/><path d="m383.328 94.018h-86.841c2.129 13.199 12.954 23.566 26.533 23.566 10.872 0 19.536-6.337 23.876-15.177h35.237c-5.889 27.871-29.845 46.542-59.113 46.542-34.198 0-60.504-25.294-60.504-59.695 0-34.805 26.913-59.694 60.504-59.694 33.793 0 60.504 25.294 60.504 59.29 0 1.75-.066 3.474-.196 5.168zm-35.894-16.669h-48.813c4.259-9.611 13.482-16.424 24.196-16.424 11.379 0 20.444 6.941 24.617 16.424z"/><g fill-rule="nonzero"><path d="m264.395 76.101c-6.273-28.532-30.353-47.148-59.897-47.148-32.377 0-58.885 26.103-58.885 59.694 0 33.186 26.306 60.1 59.492 60.1 28.735 0 52.815-18.212 59.492-46.34h-34.197c-5.059 9.713-12.951 14.975-24.283 14.975-15.581 0-26.711-12.142-26.711-28.532 0-15.784 10.523-28.532 25.902-28.532 11.534 0 20.235 5.261 25.092 15.783z"/><path d="m469.35 133.537v11.567h33.591v-61.92c0-15.177 5.666-22.664 19.224-22.664 12.343 0 17.604 7.082 17.604 22.259v62.325h33.591v-71.633c0-33.186-21.449-44.518-41.685-44.518-13.557 0-23.473 4.249-30.555 15.783h-.405v-11.938h-31.365v11.481c-6.562-10.024-19.135-15.326-32.69-15.326-32.175 0-56.255 26.711-56.255 59.897 0 33.995 23.069 60.099 56.255 60.099 14.485 0 27.608-5.837 32.69-15.412zm0-51.001v12.858c-2.815 12.902-13.849 22.19-27.429 22.19-15.581 0-27.925-12.748-27.925-28.33 0-16.188 12.141-28.936 27.52-28.936 13.614 0 24.969 9.483 27.834 22.218z"/></g></g></svg>