<svg clip-rule="evenodd" fill-rule="evenodd" stroke-linejoin="round" stroke-miterlimit="2" viewBox="0 0 600 245" xmlns="http://www.w3.org/2000/svg"><g fill="#fff" fill-rule="nonzero"><path d="m11.697 87.735-.247.387c-5.9 9.872-9.552 20.853-10.697 32.294l-.026.27c-.586 5.267-.818 10.568-.695 15.866.089 5.504.548 10.997 1.373 16.44l.04.259c1.677 10.965 4.665 21.665 8.899 31.915l.203.487c4.194 10.26 9.643 20.149 16.024 29.216l.305.431c13.41 18.691 28.534 29.461 37.058 29.6 17.44.278 32.425-11.581 45.002-11.372.13.022.263.022.394 0h.324c.122.023.248.023.37 0 12.507-.417 27.794 11.279 45.165 10.77 8.411-.23 23.206-11.04 36.286-29.668l.308-.442c6.342-9.108 11.562-19.017 15.693-29.318l.196-.49c.672-1.668 1.297-3.359 1.899-5.073-13.275-4.363-24.044-14.219-29.535-27.063l-.065-.151c-3.121-7.129-4.746-14.823-4.771-22.605-.034-3.226.213-6.469.736-9.652l.052-.308c2.116-13.015 9.259-24.621 19.875-32.427l.252-.184c1.839-1.339 3.765-2.554 5.767-3.636-14.105-21.957-36.896-25.2-44.007-25.894-15.541-1.529-37.474 10.677-49.379 10.955h-.301c-11.928 0-33.932-12.044-49.496-10.33-19.274 2.508-36.482 13.398-47.002 29.723z"/><path d="m150.163.341c-1.205-1.02-23.324 3.196-36.919 18.529-13.596 15.332-12.6 38.934-11.396 39.814 1.205.88 23.648-2.664 36.919-18.529 13.272-15.866 12.6-38.819 11.396-39.814z"/><path d="m474.513 61.509h29.299v108.302h-29.299z"/><path d="m224.093 91.503c-22.142 0-38.146 18.645-38.146 39.166s16.004 39.165 38.146 39.165h16.862v-22.304h-9.751c-.336.021-.673.032-1.01.032-8.894 0-16.213-7.319-16.213-16.213 0-.227.005-.454.014-.68 0-8.802 8.338-15.912 17.209-15.912h15.587v55.077h29.299v-78.331z"/><path d="m334.086 91.503h-51.974v107.584h29.299v-84.33h15.565c8.893 0 17.231 7.11 17.231 15.912.01.227.015.454.015.681 0 8.894-7.319 16.213-16.213 16.213-.345 0-.689-.011-1.033-.033h-9.751v22.304h16.861c22.165 0 38.147-18.668 38.147-39.165 0-20.498-15.982-39.166-38.147-39.166z"/><path d="m431.108 91.503h-51.997v107.584h29.323v-84.33h15.564c8.871 0 17.209 7.11 17.209 15.912.009.226.014.453.014.68 0 8.894-7.319 16.213-16.213 16.213-.337 0-.674-.011-1.01-.032h-9.751v22.304h16.861c22.166 0 38.147-18.668 38.147-39.165 0-20.498-15.981-39.166-38.147-39.166z"/><path d="m583.463 141.022 16.537-26.265v-23.161h-51.997c-22.142 0-38.123 18.645-38.123 39.165 0 20.521 15.981 39.166 38.123 39.166h50.607v-22.397h-43.473c-.344.022-.689.033-1.034.033-8.894 0-16.213-7.319-16.213-16.213 0-.227.005-.454.015-.681 0-8.802 8.338-15.912 17.232-15.912h19.594l-16.537 26.265z"/></g></svg>