<svg clip-rule="evenodd" fill-rule="evenodd" stroke-linejoin="round" stroke-miterlimit="2" viewBox="0 0 600 109" xmlns="http://www.w3.org/2000/svg"><g fill="#fff" fill-rule="nonzero"><path d="m0 4.69h24.241v100.647h-24.241zm29.529 55.179 36.978 45.468h32.509l-49.635-54.646 43.25-46.001h-29.263l-33.839 35.993z"/><path d="m137.803 4.69h26.124l47.3 100.647h-107.609v-8.889l24.475-52.94h24.208l-17.823 41.634h40.303"/><path d="m308.247 34.666v70.671h-23.436v-59.078c0-12.902-9.57-20.117-19.462-20.117h-22.333v79.195h-24.97v-100.504h56.509c21.747 0 33.692 15.887 33.692 29.833z"/><path d="m325.092 5.026v18.59h90.533v-18.59zm0 36.115v64.196h90.387v-21.354h-69.032v-21.488h69.032v-21.354z"/><path d="m426.323 59.869 38.545 45.468h31.183l-49.997-54.164 44.456-46.483h-29.987l-34.2 38.283z"/><path d="m546.651.23c-29.542.232-53.37 24.512-53.37 54.383.001 30.034 24.081 54.381 53.786 54.382 29.705-.001 52.933-24.348 52.933-54.382 0-30.035-23.228-54.382-52.933-54.383-.139 0-.278 0-.416 0zm.564 22.332h.108c15.723.001 27.616 14.313 27.616 31.966-.001 17.652-11.894 30.769-27.616 30.77-15.723 0-28.47-13.116-28.471-30.77-.001-17.607 12.681-31.9 28.363-31.966z"/></g></svg>