<svg clip-rule="evenodd" fill-rule="evenodd" stroke-linejoin="round" stroke-miterlimit="2" viewBox="0 0 600 661" xmlns="http://www.w3.org/2000/svg"><path d="m17.178.429h565.629c8.802.932 16.254 8.392 17.193 17.193v625.783c-.946 8.787-8.369 16.21-17.149 17.171h-565.673c-8.801-.939-16.261-8.399-17.178-17.215v-625.746c.939-8.794 8.384-16.239 17.178-17.186zm88.533 445.255c-3.601 4.078-4.224 9.66-5.875 14.647-13.885 47.729-27.719 95.472-41.538 143.216 8.538.007 17.076-.015 25.614.014 3.99-13.833 8.002-27.653 12.066-41.457 16.599.007 33.191-.022 49.79.015 3.997 13.811 7.951 27.638 12 41.435 8.582-.022 17.171 0 25.753-.007-14.523-50.054-29.135-100.079-43.68-150.125-1.152-4.02-3.403-7.753-6.616-10.46-7.856-6.873-21.11-5.472-27.514 2.722zm286.651-5.788c-8.017 2.568-14.025 10.519-14.076 18.968.029 48.228 0 96.455.015 144.683 8.252.007 16.496-.008 24.748.007.029-44.795-.015-89.597.015-134.391-.037-2.905 2.662-5.399 5.53-5.333 6.338-.058 12.682.015 19.027-.029 9.176-.308 17.861 6.704 19.826 15.616 1.68 6.866 1.871 14.604-1.855 20.875-4.9 8.348-13.621 13.651-22.467 17.025-4.636 1.797-8.795 5.281-10.533 10.041-2.23 6.206-1.218 13.409 2.501 18.844 12.653 19.107 25.225 38.281 37.929 57.359 9.704-.036 19.408 0 29.112-.014-13.268-19.893-26.779-39.639-39.777-59.7-1.364-2.794-1.232-6.704 1.408-8.714 4.812-3.564 10.409-5.992 14.905-9.997 8.508-7.335 13.152-18.404 14.01-29.472 1.247-10.57.741-21.778-4.203-31.416-7.137-14.838-22.878-25.071-39.367-25.371-9.792-.008-19.584.022-29.377-.015-2.493-.059-5.009.22-7.371 1.034zm-105.822 6.866c-2.809 3.741-3.374 8.516-4.833 12.851-13.922 47.97-27.895 95.934-41.707 143.941 8.531-.015 17.054 0 25.584-.007 3.961-13.819 8.047-27.609 12.008-41.428 16.569-.044 33.139-.008 49.709-.015 4.027 13.812 7.98 27.638 11.978 41.45 8.596-.037 17.186.029 25.782-.037-14.53-50.009-29.112-100.005-43.643-150.014-1.841-6.763-7.174-12.771-14.142-14.377-7.613-2.002-16.261 1.144-20.736 7.636zm208.57-7.885v164.67c8.677.007 17.355-.015 26.024.007.03-54.895.008-109.782.015-164.677zm-330.807 0c-.007 8.376 0 16.745 0 25.122 11.435.007 22.863-.015 34.298.007-.014 46.511-.007 93.03-.007 139.541h24.565c.015-46.511.007-93.03.007-139.541 11.428-.022 22.856 0 34.291-.007v-25.122zm-43.437 37.474c6.036 20.758 12.044 41.516 18.08 62.274-12.058 0-24.117.037-36.183-.022 6.051-20.743 12.015-41.516 18.103-62.252zm163.584 62.274c5.971-20.802 12.029-41.575 18.029-62.369 5.956 20.802 12.03 41.574 18.008 62.376-12.015 0-24.022.008-36.037-.007zm-11.619-487.907c.059 81.777.008 163.547.03 245.318.058 38.281-.125 76.569.088 114.85 16.716-.146 33.44-.029 50.156-.066.007-120.044.007-240.095 0-360.146-16.76.029-33.521-.066-50.274.044zm-38.296-.03c-.029 10.622.059 21.243-.044 31.864-.726 31.349-2.677 62.721-7.364 93.74-3.741 24.404-9.242 48.771-19.518 71.333-8.729 19.628-20.23 38.105-34.658 54.066-13.973 15.462-30.572 28.577-49.012 38.325-15.543 8.164-32.274 14.34-49.68 16.959.015 17.948.015 35.904 0 53.853 14.457-2.039 28.658-5.699 42.455-10.453 24.389-8.427 47.582-20.875 67.012-37.973 21.719-18.447 41.039-40.379 53.333-66.293 7.54-16.086 13.613-33.022 16.547-50.589 4.269-25.475 5.883-51.301 7.101-77.069.74-17.846 1.247-35.706 1.151-53.574-.014-21.404.022-42.807-.014-64.211-9.103.022-18.206-.007-27.309.022zm99.756-.007c-.007 19.673 0 39.352 0 59.025-.227 34.775.953 69.586 4.1 104.229 1.629 16.035 3.418 32.15 7.614 47.744 4.577 15.513 10.423 30.726 18.433 44.802 10.239 18.08 23.875 34.049 39.11 48.095 9.242 8.501 18.865 16.643 29.442 23.443 14.494 9.425 30.272 16.775 46.585 22.452 13.701 4.658 27.777 8.354 42.132 10.305-.015-17.941-.008-35.882 0-53.823-7.306-1.064-14.494-2.832-21.521-5.076-25.188-8.069-48.374-22.093-67.504-40.335-20.032-19.078-35.406-42.741-46.071-68.201-11.252-26.318-16.283-54.77-19.855-83.017-4.365-36.367-5.612-73.034-5.318-109.636-9.044-.029-18.096-.014-27.147-.007z" fill="#fff" fill-rule="nonzero"/></svg>