<svg clip-rule="evenodd" fill-rule="evenodd" stroke-linejoin="round" stroke-miterlimit="2" viewBox="0 0 601 219" xmlns="http://www.w3.org/2000/svg"><g fill="#fff" fill-rule="nonzero"><path d="m600.99 155.098c.111 4.109-1.756 9.78-7.271 13.462-3.441 2.22-7.964 3.459-13.158 3.543-4.614.08-8.444-.545-11.721-1.894h-.013c-1.58-.68-1.802-1.462-1.727-3.523.125-3.022.106-5.704.203-7.272 0 0 .067-.906.067-.93.039-.503-.186-1.894.912-1.911 1.191-.029.871 1.198.871 1.627.015.655-.153 1.425.138 2.409 1.131 4.576 5.316 7.129 11.86 7.004 7.636-.162 12.049-5.406 11.968-10.147-.093-4.827-1.014-7.354-8.633-12.767l-3.926-2.765c-9.59-6.78-12.021-11.676-12.13-16.973-.174-8.781 6.757-14.193 17.878-14.41 3.042-.053 5.598.154 8.077.635 1.686.286 2.304.328 2.89.318.372-.011 1.464-.032 1.5 1.182l-.051.61c-.054 1.044-.383 3.342-.306 7.414.014.665.359 2.648-.846 2.554-.694-.059-.565-1.224-.661-1.789-.081-.842-.081-2.311-.99-3.437-.629-.809-3.816-3.555-11.154-3.424-5.941.105-9.754 3.643-9.761 8.397-.011 4.081 2.314 6.69 10.406 12.108l2.436 1.641c10.846 7.351 13.037 12.284 13.142 18.338m-354.219-10.932c0 8.986 2.331 13.587 5.48 16.419 4.532 4.109 10.441 4.281 13.714 4.281 4.007 0 8.44-.681 12.832-4.457 5.175-4.465 5.862-11.778 5.862-18.664v-6.636c0-9.43 0-17.157.132-19.15.125-2.156.618-3.219 2.274-3.527.753-.13 1.118-.199 1.793-.199.727 0 1.119-.119 1.119-.556 0-.418-.45-.556-1.295-.556-2.409 0-6.314.196-7.034.196-.065 0-3.945-.197-7.098-.197-.864 0-1.293.139-1.293.556 0 .437.362.557 1.034.557.675 0 1.737.069 2.229.197 2.031.426 2.538 1.437 2.649 3.529.122 1.993.122 9.72.122 19.15v7.735c0 6.412-.182 11.981-3.584 15.386-2.45 2.485-5.793 3.361-8.511 3.361-2.1 0-4.935-.261-7.706-2.547-3.033-2.474-4.814-6.266-4.814-15.257v-8.678c0-9.43 0-17.157.117-19.15.138-2.156.618-3.219 2.285-3.527.733-.13 1.101-.199 1.791-.199.621 0 .999-.119.999-.556 0-.418-.441-.556-1.368-.556-2.216 0-6.097.196-7.601.196-1.842 0-5.733-.197-8.991-.197-.945 0-1.371.139-1.371.556 0 .437.375.557 1.055.557.855 0 1.923.069 2.409.197 2.031.426 2.527 1.437 2.649 3.529.125 1.993.125 9.72.125 19.15v9.057zm74.537 16.007c3.712 0 8.143-.435 10.46-1.481.999-.438 1.233-.757 1.533-1.827.558-2.175 1.278-7.711 1.278-8.463 0-.529-.123-.953-.529-.953-.464 0-.577.254-.747 1.271-.232 1.149-1.006 2.978-1.98 4.192-2.337 2.939-5.466 3.569-10.646 3.569-7.784 0-18.316-7.521-18.316-22.652 0-6.18 1.094-12.21 5.352-16.476 2.556-2.542 5.858-3.953 10.925-3.953 5.357 0 9.89 1.732 11.806 3.953 1.47 1.652 2.207 3.872 2.257 5.844 0 .895.131 1.414.6 1.414.51 0 .621-.518.683-1.477.126-1.262.066-4.764.183-6.865.116-2.234.291-2.992.291-3.503 0-.375-.232-.695-.871-.761-1.76-.182-3.615-.75-5.807-1.087-2.679-.375-4.832-.636-8.442-.636-8.673 0-14.191 2.547-18.367 6.74-5.601 5.621-6.812 13.117-6.812 17.444 0 6.165 1.502 13.303 7.211 18.768 5.281 5.022 11.98 6.939 19.938 6.939zm45.604-18.191c.321 0 .491.127.612.425l4.946 13.09c.318.739-.121 1.292-.573 1.422-.612.056-.994.188-.994.563 0 .435.186.599 1.949.599 4.908 0 9.509-.207 11.737-.207 2.287 0 3.459-.365 3.459-.864 0-.426-.224-.722-.729-.722-.742 0-1.602 0-2.527-.174-1.301-.321-3.406-1.438-5.737-6.998-4.173-9.882-14.204-34.819-15.494-37.78-.612-1.427-1.125-1.704-1.699-1.704-.605 0-1.112 1.141-1.854 2.927l-15.576 39.501c-1.236 3.102-2.403 5.365-5.223 5.747-.504.054-1.089.342-1.642.342-.51 0-.881.238-.827.601.089.54.147.54.948.54 3.566 0 6.755-.254 7.205-.254 1.908 0 4.625-.221 6.581-.25.669-.025 1.131-.098 1.131-.581 0-.385-.219-.507-.972-.507l-1.108-.162c-1.906 0-2.267-.93-2.267-2.034 0-.747.3-2.233.933-3.771l3.429-9.247c.095-.371.227-.498.548-.498h13.744zm-12.518-3.086c-.276 0-.321-.196-.276-.413l5.693-15.198c.078-.25.192-.56.378-.56.172 0 .258.308.297.56l5.565 15.253c.063.164 0 .359-.315.359h-11.342zm100.229 3.086c.318 0 .507.127.614.425l4.917 14.196c.318.744-.106 1.292-.526 1.414-.605.064-.85.184-.85.558 0 .437.725.546 1.789.604 4.85.119 10.03.51 12.184.603 2.223.107 2.223-.187 2.223-.68 0-.44-.298-.505-.777-.505-.723 0-.651-.13-1.56-.329-1.266-.298-2.876-1.39-5.162-6.928-3.877-9.393-14.384-36.251-15.833-39.658-.8-1.851-1.681-1.721-1.735-1.721-.75-.032-1.319.812-2.049 2.598l-15.184 38.746c-1.211 3.088-2.358 5.193-5.133 5.563-.488.054-1.323.112-1.864.112-.497 0-.727.13-.727.492 0 .498.354.625 1.128.625 3.17 0 6.491.039 7.15.039 1.883 0 4.479.224 6.408.224.666 0 1.033-.135 1.033-.626 0-.375-.186-.505-.899-.505h-.914c-1.878 0-2.431-.785-2.431-1.913 0-.723.3-2.218.914-3.745l3.26-9.087c.14-.371.242-.498.545-.498h13.479zm-12.268-3.086c-.246 0-.3-.196-.246-.413l5.569-15.198c.06-.25.178-.56.364-.56.178 0 .241.308.3.56l5.439 15.253c.064.164 0 .359-.291.359h-11.135zm40.372 1.832c.055 5.833.075 11.71.075 14.47-.261 1.839-.531 3.245-1.771 3.485-.573.116-.071.073-1.156.195-.733.077-.855.25-.855.558 0 .45.43.723.933.756 2.443.177 6.587.429 7.785.553.952.021 3.698.247 7.276.466.497.033.923-.21.923-.655-.008-.317-.068-.667-.812-.81-1.125-.207-1.495-.418-2.072-.55-2.763-1.533-2.321-5.99-2.321-13.267l-.035-5.708c-.011-.365.138-.929.423-.929l6.357.02c.432 0 1.343.132 1.632.515.828.942 5.704 10.49 8.184 13.983 3.482 4.873 4.241 7.126 6.884 8.806 1.541.989 3.233 1.701 6.71 2.065l5.509.31c.92.059 2.014-.068 2.053-.728.06-.516-.337-.712-1.028-.878-.63-.162-.973-.228-1.667-.361-.912-.173-2.733-.556-6.213-4.225-3.375-3.623-8.717-14.396-14.488-21.789 6.21-5.196 7.049-9.787 7.015-14.485-.032-4.246-2.501-7.462-4.233-8.671-3.344-2.351-7.482-2.9-11.365-2.9-1.923 0-7.429.201-9.515.201-1.303 0-5.954-.123-9.232-.123-.939 0-1.363.132-1.363.572 0 .445.373.744 1.045.744.866 0 1.907.06 2.424.195 2.03.439 2.523 1.446 2.652 3.612.128 2.021.27 4.694.27 13.307zm7.945-24.791c0-.505-.191-1.048.657-1.482.577-.294 1.912-.577 4.337-.509 3.646 0 9.085 2.756 9.147 11.758.013 5.188-1.754 8.735-3.583 10.117-1.123.828-1.918 1.07-4.385 1.07-1.554 0-3.412-.183-4.699-.623-.435-.189-1.517-.626-1.517-1.319zm46.204 30.931c0 5.54-.02 10.971-.02 13.86 0 3.057-.526 3.537-1.818 3.801-.564.143-.852.122-1.796.122-.738 0-.982.342-.972.664 0 .45.539.763 1.333.763 3.459.28 7.155.826 7.587.826 1.829.211 3.542.54 7.578.914-.175 0 1.263.143 1.293-.571 0-.344-.144-.667-.792-.921-.951-.218-1.013-.056-2.276-.471-1.444-.492-1.676-2.955-1.676-4.016.041-2.67.041-8.728.095-14.948l-.011-32.045 7.29.209c5.479.116 7.25 1.828 7.368 3.469l.068.691c.061.944.17 1.26.687 1.26.357 0 .47-.381.535-1.017 0-1.63.186-5.968.186-7.28 0-.934-.059-1.317-.491-1.317-.232 0-.747.122-1.66.319-.941.132-2.271.308-4.257.308l-23.113-.079c-2.035 0-4.368-.131-6.154-.328-1.555-.122-2.942-.308-3.818-.308-.558 0-.437.702-.494 1.535-.053.96.036 5.507.036 6.516 0 .69.321.997.758.997.364 0 .545-.507.576-1.022.042-.899 0-.823.376-1.989.544-1.578 2.366-1.731 6.048-1.721l7.477-.142zm-133.406 11.656c3.704 0 7.634-.559 11.188-2.549 5.129-2.953 6.334-7.124 6.334-10.773.036-5.971-3.027-10.244-11.598-15.776l-1.977-1.251c-5.81-3.764-7.415-5.898-7.406-8.755 0-3.734 3.869-6.68 9.068-6.864 4.608-.189 6.644 1.675 7.729 2.781 1.775 1.806 1.511 3.241 1.511 3.807-.009.754.24 1.404.734 1.382.602-.027.793-.527.809-1.921.013-4.934.334-6.777.334-7.617 0-.676-.897-.757-1.548-.768-2.186-.009-4.357-.813-8.954-.634-8.623.353-16.137 4.282-16.137 12.349 0 5.014 3.035 8.795 10.673 13.951l3.222 2.177c5.86 3.968 6.464 7.314 6.443 10.371 0 3.301-3.142 7.116-9.43 7.125-4.311.024-8.375-1.633-9.897-6.168-.344-1.033-.611-2.331-.611-3.127 0-.485-.066-1.041-.692-1.031-.541.011-.75.694-.808 1.612-.077.973-.357 4.65-.357 8.015 0 1.344.207 1.652 1.3 2.081 2.965 1.149 6.057 1.583 10.07 1.583zm-186.958 6.956c-.939-1.53-1.304-17.505-1.304-25.443v-11.155c0-9.428-.142-10.808 0-12.786.125-2.17 1.506-3.287 3.338-3.597.811-.132 1.206-.142 1.956-.142.804-.009 1.386-.111 1.386-.537 0-.427-.42-.581-1.386-.581-2.472.016-6.804.155-8.747.155-1.811 0-6.089-.173-9.275-.173-1.032 0-1.485.132-1.485.558 0 .429.402.548 1.149.548.881 0 1.701.075 2.232.194 2.24.431 2.781 1.427 2.909 3.527.15 1.993.15 3.725.15 13.16v36.133c0 2.771 0 5.672-1.953 6.689-1.034.499-1.117.524-1.703.787-.741.314-.887.791-.725 1.085.588 1.007 2.186.065 5.109-.302l28.658-4.907c.236-.1 1.608-.604 2.051-2.094.439-1.652.243-1.006.976-3.953.95-3.872 1.382-5.604 1.382-5.868 0-.744-.129-1.047-.605-1.047-.525 0-.715.699-.892 1.233-.442 1.228-1.389 2.784-2.278 4.303-.922 1.118-2.47 3.211-7.227 4.217-1.662.368-12.116 2.66-13.716-.004z"/><path d="m169.674 63.737c-.07-.371-.465-.632-.836-.594l-6.554.746c.024 0-8.824 1.291-12.285 1.791-1.941-6.851-5.02-13.326-9.107-19.157 1.507-1.505 8.736-8.68 8.736-8.68-.018.025 4.86-4.851 4.86-4.851.29-.257.326-.704.08-1.005-.229-.304-.661-.38-.98-.171l-5.286 3.251s-7.988 5.248-10.78 7.104c-3.349-3.946-7.177-7.458-11.396-10.456-1.78-1.238-3.628-2.378-5.534-3.412 1.36-3.292 5.074-12.35 5.074-12.35 0 .025 2.099-5.121 2.099-5.121.146-.359.007-.775-.326-.973-.348-.181-.78-.08-1.012.236l-2.887 4.08s-5.802 8.587-7.85 11.682c-6.697-2.914-13.879-4.552-21.177-4.83-.342-3.904-1.331-14.065-1.331-14.065.018.014-.563-5.449-.563-5.449-.018-.391-.348-.702-.739-.697-.353-.009-.666.282-.737.648l-.652 4.92s-1.184 10.708-1.581 14.683c-7.461.445-14.777 2.254-21.584 5.337l-7.073-13.171c.013.009-2.553-4.797-2.553-4.797-.184-.342-.596-.497-.96-.362-.299.114-.458.393-.471.715 0 .049.013.116.013.196l1.282 4.746c2.419 8.048 3.828 12.821 4.583 15.309-6.057 3.436-11.493 7.869-16.077 13.111-3.129-2.294-12.377-9.045-12.377-9.045.016.005-4.502-3.32-4.502-3.32-.313-.224-.748-.184-1.016.093-.139.131-.214.315-.207.505 0 .181.046.366.165.502l3.305 3.833s8.234 9.073 10.914 12.061c-2.758 3.866-6.577 10.666-7.814 14.869 1.724-4.042 10.205.342 12.718-3.566 16.735-25.895 51.446-35.52 79.156-16.772 8.551 5.784 14.846 13.567 18.92 22.015 0 0 4.616 7.493 5.435 22.518-.353 5.248-.042 8.521-1.291 13.883 2.75-9.317 3.04-16.358 2.327-25.306-.046-.242-.156-1.483-.531-3.439 3.6-1.296 17.892-6.352 17.892-6.352.361-.137.575-.513.51-.893m-135.074 97.167c-17.312 8.582-29.497 24.968-32.732 44.019-.76 4.417-1.025 8.905-.791 13.381-.274-4.341 9.565-3.953 10.334-8.43 3.427-20.233 17.387-35.984 35.342-42.697 9.163-3.427 19.072-4.365 28.715-2.72 9.466 1.599 18.354 5.639 25.782 11.72 7.429 6.081 6.941 4.529 14.219 17.577 2.473 4.759 4.23 9.858 5.212 15.13-.932-9.24-4.018-18.134-9.011-25.965-4.992-7.831-2.947-5.291-9.328-11.278-4.517-5.315-14.033-19.802 7.745-28.234 0 0 17.861-5.856 28.583-21.522 2.59-3.767 4.886-7.626 6.595-11.697-1.64 4.042-10.3-.621-12.964 3.05-10.101 14.032-25.573 21.935-41.571 22.935-1.637-.089-2.986-.442-3.975-1.107-2.312-1.648-2.312-4.386-1.021-6.979.708-1.251 1.411-1.947 2.631-2.622.37-.134.708-.295 1.069-.476.148-.067.28-.147.465-.201l-.047-.026c3.703-2.016 6.53-5.336 7.93-9.313 3.173-8.91-1.53-18.687-10.442-21.823-8.893-3.126-18.666 1.541-21.801 10.443-1.818 5.165-.987 10.603 1.733 14.895.898 1.713 1.344 3.087 1.03 4.842-.608 3.301-2.839 5.333-6.155 5.159-1.494-.074-2.669-.434-3.98-1.003-1.134-.708-2.293-1.385-3.343-2.186-2.921-2.093-5.625-4.472-8.073-7.102-4.086-4.347-7.437-9.33-9.92-14.755-2.483-5.424-4.254-7.133-5.054-22.057-.108-5.367.559-10.722 1.981-15.898-3.212 8.722-4.359 18.071-3.352 27.312 1.008 9.24.547 13.274 11.041 28.424.005 0 16.16 25.671-6.847 39.204z"/></g></svg>