<svg clip-rule="evenodd" fill-rule="evenodd" stroke-linejoin="round" stroke-miterlimit="2" viewBox="0 0 600 128" xmlns="http://www.w3.org/2000/svg"><g fill="#fff"><path d="m167.249 65.532-.144.143v-.287z"/><path d="m115.93 35.853 2.807-3.944-25.397 4.542s-1.714-21.235-1.714-21.235l-18.233 16.82s-17.643-22.897-17.643-22.897l-3.129 27.715s-28.739-7.385-28.739-7.385l13.143 29.396s-18.593 9.91-18.593 9.91l22.735 12.135s-11.847 25.521-11.847 25.521l31.077-15.485s4.609 19.591 4.609 19.591l15.867-19.637s26.148 12.872 26.148 12.872l-9.487-28.747s4.935-20.257 4.935-20.257 13.461-18.915 13.461-18.915zm-6.028 1.652-11.095 15.589-5.382 22.095 6.889 20.875s-20.53-10.106-20.53-10.106l-12.779 15.815s-3.903-16.592-3.903-16.592l-25.444 12.679s8.669-18.677 8.669-18.677l-19.494-10.406s15.307-8.158 15.307-8.158l-11.304-25.281s25.204 6.476 25.204 6.476l2.542-22.522s14.316 18.579 14.316 18.579l15.441-14.244s1.411 17.482 1.411 17.482z"/><path d="m505.934 91.999c5.313-28.559-16.92-52.305-44.117-52.305-25.392 1.621-42.99 17.117-44.092 43.528-.87 25.551 21.322 44.66 43.489 44.356h43.789l-.02-22.503-43.769-.306c-6.439.149-12.223-1.948-14.053-12.77zm-60.23-16.725c2.819-9.358 9.675-13.701 16.504-13.533 6.829.167 13.63 4.846 16.339 13.533z" fill-rule="nonzero"/><path d="m380.625 40.302h30.715v87.276h-30.715z"/><path d="m380.625 21.142h30.715v13.38h-30.715z"/><path d="m339.267 20.535h32.235v107.043h-32.235z"/><path d="m286.05 21.139v83.026c.483 5.843 1.196 21.856 18.246 23.413h30.714v-24.328c-13.305 2.934-16.404-4.566-17.029-14.596v-26.153h16.118l.265-22.504h-16.383v-18.858zm-54.119.016v83.026m0-83.026v83.026" fill-rule="nonzero"/><path d="m231.931 21.155v83.026c.483 5.843 1.196 21.857 18.246 23.413h30.713v-24.328c-13.304 2.935-16.404-4.566-17.028-14.595v-26.153h16.118l.265-22.505h-16.383v-18.858z" fill-rule="nonzero"/><path d="m228.574 80.599v.024c0 25.107-21.209 45.767-46.983 45.767-25.775 0-46.984-20.66-46.984-45.767v-.024c0-25.107 21.209-45.767 46.984-45.767 25.774 0 46.983 20.66 46.983 45.767zm-30.106.006v.011c0 11.094-7.618 20.223-16.877 20.223-9.258 0-16.877-9.129-16.877-20.223v-.011c0-11.094 7.619-20.224 16.877-20.224 9.259 0 16.877 9.13 16.877 20.224z"/><path d="m511.731 19.988v107.651h32.54c44.404 2.703 53.704-28.245 55.482-41.563 2.06-15.427-8.118-53.791-55.482-48.754v-17.334zm32.503 43.424v37.712c14.48 4.743 25.495-3.761 25.544-19.464-.304-13.508-9.443-23.649-25.544-18.248z"/><path d="m67.096 75.577h35.369l11.464 35.885-31.628-16.117-18.854 23.415-6.053-21.942-33.176 15.251 10.947-29.498-24.633-13.988 20.679-10.948-13.38-33.145 31.627 7.298 3.954-29.803 20.677 24.025 20.984-17.942 1.218 19.763h31.321v-27.367h-71.77c-16.28-.912-57.7 19.119-55.777 68.044.57 14.497 12.839 54.851 60.34 58.264l67.207-.41v-73.591s-60.355.144-60.359.152c0 0-.157 22.648-.157 22.654z" fill-rule="nonzero"/></g></svg>