<svg clip-rule="evenodd" fill-rule="evenodd" stroke-linejoin="round" stroke-miterlimit="2" viewBox="0 0 600 162" xmlns="http://www.w3.org/2000/svg"><g fill="#fff"><path d="m57.533 161.342 20.304-73.776-40.906 41.692c-23.04-8.483-37.052-21.75-36.93-37.189 0-28.403 48.799-53.665 108.634-56.24 13.255-.568 25.965.022 37.726 1.594l30.297-37.171-10.994 40.836c30.93 7.774 51.606 23.153 51.606 41.638 0 27.29-45.063 51.686-101.675 55.833l18.421-65.884zm88.629-47.815 18.184-67.541c20.66 6.026 33.973 16.426 33.973 28.902 0 15.84-21.446 30.744-52.157 38.639zm-3.272-71.848-46.775 57.394 14.214-56.179-70.159 65.191c-12.004-6.01-19.188-14.054-19.188-23.219 0-21.588 39.832-41.436 88.67-44.182 11.744-.66 22.966-.272 33.238.995z"/><path d="m263.917 50.668h-25.015l-20.218 69.386h19.095l7.925-27.196 3.284-15.847-1.947 43.043h14.894l23.018-42.295-5.927 15.099-7.925 27.196h19.002l20.218-69.386h-24.919l-23.178 42.19z"/><path d="m318.435 50.668-20.218 69.386h20.718l20.221-69.386z"/><path d="m347.652 50.668-20.218 69.386h27.02c4.836 0 9.464-.641 13.88-1.928 4.417-1.282 8.48-3.37 12.184-6.263 3.708-2.89 6.995-6.639 9.865-11.244 2.871-4.602 5.167-10.189 6.889-16.757 1.742-6.639 1.998-12.098.763-16.382-1.234-4.282-3.207-7.675-5.914-10.173-2.71-2.499-5.801-4.227-9.278-5.193-3.473-.962-6.613-1.446-9.413-1.446zm15.532 16.491c5.259-.141 9.22 1.017 11.876 3.48 2.655 2.463 3.059 7.084 1.209 13.867-1.165 3.996-2.56 7.261-4.192 9.798-1.629 2.534-3.464 4.512-5.5 5.943-2.04 1.427-4.227 2.373-6.559 2.835-2.328.465-4.81.625-7.443.484z"/><path d="m405.989 50.668-4.179 69.386h20.051l18.418-39.938-4.191 39.938h20.144l35.114-69.386h-19.38l-19.169 42.19 5.513-42.19h-18.81l-18.21 42.19 5.324-42.19z"/><path d="m507.003 50.668-42.558 69.386h20.91l4.625-8.993h20.147l-.619 8.993h20.91l-1.93-69.386zm-8.896 45.936 12.597-22.591-.471 22.591z"/><path d="m533.26 50.668 9.997 44.332-7.3 25.054h20.144l7.303-25.054 36.596-44.332h-23.678l-16.578 22.488-3.569-22.488z"/></g></svg>