<svg clip-rule="evenodd" fill-rule="evenodd" stroke-linejoin="round" stroke-miterlimit="2" viewBox="0 0 600 290" xmlns="http://www.w3.org/2000/svg"><g fill="#fff" fill-rule="nonzero"><path d="m90.309 229.555-29.863-23.744h42.097l23.027-41.378v41.378h65.483v-205.811l-191.053 289.278h55.769z"/><path d="m127.263 237.112 12.699 37.774h51.091v-37.774z"/><path d="m600 210.097v-1.755l-417.383-1.068-9.153 3.915z"/><path d="m600 216.072v-1.755l-431.266-1.104-9.324 3.987z"/><path d="m600 222.045v-1.756l-445.151-1.138-9.488 4.06z"/><path d="m600 228.02v-1.756l-459.038-1.174-9.654 4.13z"/><path d="m126.709 235.207 473.291-1.213v-1.755l-472.921-1.21-1.544.661z"/><path d="m224.202 145.923v55.19h-18.665v-95.804h25.21l7.99 44.116 8.368-44.116h23.347v95.804h-18.83v-55.19l-9.361 55.19h-8.37z"/><path d="m279.349 201.113v-95.804h33.036v14.041h-12.389v22.794h11.507v14.206h-11.507v30.997h12.389v13.766z"/><path d="m348.339 141.419v-16.928c0-2.563-.307-4.132-.918-4.713-.615-.578-1.861-.87-3.74-.87h-2.031v26.416c.26 0 .632.024 1.115.064.48.042.825.06 1.047.06 1.748 0 2.943-.279 3.575-.839.632-.557.952-1.621.952-3.19zm-27.572 59.694v-95.804h23.67c10.282 0 16.835 1.141 19.661 3.42 2.827 2.279 4.241 7.727 4.241 16.342v9.958c0 6.958-.7 11.609-2.093 13.952-1.396 2.344-7.567 4.15-11.222 5.417 3.536.997 9.678 2.636 11.134 4.917 1.453 2.282 2.181 5.82 2.181 10.61v31.188h-20v-32.917c0-1.998-.33-3.345-.991-4.036-.66-.692-2.717-1.038-4.545-1.038h-1.223v37.991z"/><path d="m378.81 105.309h20.647v95.804h-20.647z"/><path d="m408.32 124.666c0-8.925 1.316-14.466 3.954-16.621 2.635-2.152 10.528-4.553 21.034-4.553 10.742 0 16.09 2.478 18.686 4.785 2.597 2.308 3.898 7.772 3.898 16.389v13.349h-20.813v-12.771c0-1.848-.235-3.099-.699-3.755-.468-.655-2.334-.983-3.616-.983-.971 0-1.652.289-2.039.867-.39.578-.584 1.869-.584 3.871v55.839c0 1.765.222 3.014.672 3.742.446.728 1.213 1.092 2.302 1.092.931 0 2.65-.276 3.177-.834.524-.555.787-1.332.787-2.33v-22.439h20.813v21.344c0 8.827-1.34 14.386-4.014 16.678-2.676 2.292-7.913 4.793-18.417 4.793-10.623 0-18.598-2.529-21.215-4.881-2.617-2.348-3.926-7.879-3.926-16.59z"/><path d="m483.716 166.756h6.533l-3.237-36.985zm-24.694 34.357 15.811-95.804h25.107l11.222 95.804h-17.829l-2.109-16.889h-10.664l-1.574 16.889z"/><path d="m515.65 201.113v-95.804h19.254l10.313 39.272v-39.272h18.005v95.804h-16.59l-13.143-46.952v46.952z"/><path d="m210.12 275.315v-28.158h-3.324l-.001 31.482h22.681v-3.324z"/><path d="m326.262 250.481v-3.324h-24.441v31.482h24.441v-3.324h-21.116v-10.915h20.364v-3.324h-20.364v-10.595z"/><path d="m526.562 250.481v-3.324h-24.441v31.482h24.441v-3.324h-21.117v-10.915h20.364v-3.324h-20.364v-10.595z"/><path d="m352.373 263.086c-.142 0-11.691-.013-17.509 0v-12.631c5.629-.051 16.634-.147 17.509-.147 2.155 0 3.9 1.391 3.9 3.11v5.637c0 1.716-1.745 4.031-3.9 4.031zm2.452 1.874c2.78-.803 4.772-2.914 4.772-5.407v-6.635c0-3.18-3.234-5.761-7.224-5.761h-20.833v31.482h3.324v-12.223h17.703c2.155 0 3.899 2.766 3.899 4.485v7.738h3.325v-8.236c0-2.547-2.091-4.684-4.966-5.443z"/><path d="m238.648 268.775 8.473-18.046 8.472 18.046zm10.466-21.618h-3.988l-14.783 31.482h3.673l3.071-6.54h20.066l3.071 6.54h3.673z"/><path d="m424.833 268.775 8.473-18.046 8.473 18.046zm10.468-21.618h-3.99l-14.784 31.482h3.675l3.072-6.54h20.064l3.071 6.54h3.673z"/><path d="m295.873 256.213v-3.296c0-3.179-3.234-5.76-7.224-5.76h-13.98c-3.99 0-7.224 2.581-7.224 5.76v6.104c0 3.183 3.234 5.761 7.224 5.761h13.98c2.155 0 3.9 1.391 3.9 3.11v4.31c0 1.719-1.745 3.113-3.9 3.113h-13.98c-2.155 0-3.899-1.394-3.899-3.113v-3.427h-3.325v4.103c0 3.18 3.234 5.761 7.224 5.761h13.98c3.99 0 7.224-2.581 7.224-5.761v-5.66c0-3.182-3.234-5.76-7.224-5.76h-13.98c-2.155 0-3.899-1.391-3.899-3.11v-4.754c0-1.719 1.744-3.113 3.899-3.113h13.98c2.155 0 3.9 1.394 3.9 3.113v2.619z"/><path d="m557.662 256.213v-3.296c0-3.179-3.233-5.76-7.224-5.76h-13.98c-3.991 0-7.222 2.581-7.222 5.76v6.104c0 3.183 3.231 5.761 7.222 5.761h13.98c2.156 0 3.9 1.391 3.9 3.11v4.31c0 1.719-1.744 3.113-3.9 3.113h-13.98c-2.153 0-3.898-1.394-3.898-3.113v-3.427h-3.324v4.103c0 3.18 3.231 5.761 7.222 5.761h13.98c3.991 0 7.224-2.581 7.224-5.761v-5.66c0-3.182-3.233-5.76-7.224-5.76h-13.98c-2.153 0-3.898-1.391-3.898-3.11v-4.754c0-1.719 1.745-3.113 3.898-3.113h13.98c2.156 0 3.9 1.394 3.9 3.113v2.619z"/><path d="m412.751 256.213v-3.296c0-3.179-3.234-5.76-7.224-5.76h-16.241c-3.991 0-7.225 2.581-7.225 5.76v19.961c0 3.18 3.234 5.761 7.225 5.761h16.241c3.99 0 7.224-2.581 7.224-5.761v-9.792h-16.143v3.325h12.819v5.791c0 1.719-1.745 3.113-3.9 3.113h-16.241c-2.156 0-3.9-1.394-3.9-3.113v-18.608c0-1.719 1.744-3.113 3.9-3.113h16.241c2.155 0 3.9 1.394 3.9 3.113v2.619z"/><path d="m488.502 247.157-14.965 27.095-14.964-27.095h-5.082v31.394h3.325v-27.703l15.346 27.791h2.751l15.346-27.791v27.703h3.324v-31.394z"/></g></svg>