<svg clip-rule="evenodd" fill-rule="evenodd" stroke-linejoin="round" stroke-miterlimit="2" viewBox="0 0 600 161" xmlns="http://www.w3.org/2000/svg"><g fill="#fff" fill-rule="nonzero"><path d="m0 5.673h48.289c11.045 0 24.067 10.317 29.872 15.99l84.719 93.935v-109.925h28.779v149.974h-50.381c-8.976-.302-17.789-2.147-28.059-12.238l-84.579-94.106v106.344h-28.64z"/><path d="m600 156.67c-34.469 4.705-69.341 5.17-104.282 2.232-20.455-1.806-40.491-6.015-58.854-15.603-23.183-12.014-30.57-39.018-30.26-63.496.256-22.594 6.976-46.715 27.137-59.853 13.215-8.674 27.33-11.518 42.328-14.239 40.941-7.216 81.959-5.589 121.9-1.209v21.393c-47.103-9.154-96.856-6.876-113.761 14.765-10.565 13.464-12.069 26.858-12.069 38.135 0 20.323 6.953 51.157 48.25 57.149 26.943 3.953 53.614.953 79.611-3.783z"/><path d="m305.037 133.345c4.077.038 68.992.341 91.276 0v22.408c-44.886 1.728-88.012 2.48-133.356.597-38.476-1.589-45.103-20.936-45.847-39.523v-111.157h177.056v21.354h-114.544v38.181h104.398v20.843h-104.398c0 11.278.372 24.067.48 26.369.613 14.541 7.356 19.889 24.935 20.928"/></g></svg>