<svg clip-rule="evenodd" fill-rule="evenodd" stroke-linejoin="round" stroke-miterlimit="2" viewBox="0 0 600 278" xmlns="http://www.w3.org/2000/svg"><path d="m96.138 117.783c2.245-7.58 2.06-17.118 2.06-26.944v-70.326c0-3.378.824-13.019-.515-15.017s-6.489-1.545-10.094-1.545c-10.299 0-14.873-1.421-15.8 8.405l-.391.267c-8.075-6.179-15.758-12.05-30.569-11.782l-4.924.391c-2.859.426-5.672 1.116-8.404 2.06-10.064 4.141-18.05 12.164-22.145 22.247-1.953 4.891-3.389 9.972-4.284 15.161-1.084 5.103-1.348 10.346-.783 15.532.783 4.862.309 9.105 1.298 13.349 3.584 15.223 10.732 27.088 23.833 32.753 7.219 3.098 15.169 4.091 22.927 2.863 5.219-.913 10.225-2.778 14.77-5.5l5.562-4.12h.124c.622 4.62.546 9.308-.227 13.905-2.307 13.163-6.18 17.592-19.302 19.94-3.68.651-7.437.741-11.144.268l-10.876-1.421-15.944-3.852c-1.189.232-2.174 1.068-2.596 2.204-.35 5.36-.177 10.741.515 16.067 1.833 3.049 7.725 4.264 11.412 5.438 12.36 3.935 32.321 5.83 45.71 1.175 15.326-5.274 25.029-15.594 29.787-31.518zm-27.212-76.032v36.131c-2.72 1.935-5.731 3.423-8.919 4.409-21.815 6.839-30.055-8.487-30.055-28.613-.314-6.18.475-12.367 2.328-18.272 1.916-4.943 4.882-9.269 9.723-11.268 1.73-.7 3.811-.535 5.685-1.297 5.463-.19 10.914.648 16.068 2.472l4.82 2.286c1.174 2.06.35 10.938.35 14.152zm87.692 68.905c6.084-1.177 11.913-3.415 17.221-6.612l6.86-5.047c1.771 2.286 1.071 5.768 3.357 7.519 2.287 1.751 19.941 2.389 21.63 0 1.689-2.39.906-7.56.906-11.145v-46.225c0-9.002.68-19.075-1.421-26.161-4.923-16.665-19.013-22.392-40.787-22.165l-11.659.762c-6.667.907-13.252 2.34-19.693 4.285-2.802.968-7.087 1.689-8.24 4.264-1.154 2.575-.927 16.15.638 17.221 2.308 1.586 13.39-2.06 16.48-2.719 8.94-1.936 29.334-3.914 34.319 2.472 3.584 4.614 2.987 13.616 2.904 21.897-2.06.494-5.603-.865-7.766-1.298l-9.846-1.03c-3.625-.405-7.29-.273-10.877.392-16.891 2.904-28.839 9.331-32.753 24.987-6.056 24.08 14.811 43.65 38.727 38.603zm-4.923-44.68c2.451-1.442 5.5-1.051 8.548-2.204 6.901 0 12.731 1.05 18.54 1.298 1.05 2.307.288 14.069.247 17.612-4.923 6.53-24.719 13.04-31.455 3.749-4.841-6.859-1.607-17.097 4.12-20.455zm79.369 32.959c0 3.605-.432 7.169 1.813 8.549 1.277.762 4.305.391 6.18.391 4.305 0 19.116.907 20.723-1.174 2.06-2.575.906-16.109.906-20.847v-56.524c3.895-2.257 8.143-3.839 12.566-4.677 6.963-1.627 16.191-1.647 19.672 2.987 3.07 4.12 2.596 11.454 2.596 18.643v39.139c0 5.314-1.195 20.167 1.813 22.021 1.854 1.112 10.299.391 13.204.391 2.904 0 11.412.7 13.225-.659 2.43-1.834 1.421-14.997 1.421-19.693 0-19.405.041-38.83.124-58.276.988-1.627 5.047-2.287 7.003-2.966 8.529-3.008 21.877-4.985 26.018 3.357 2.059 4.326 1.421 12.195 1.421 18.54v38.809c0 4.614-1.03 17.159.906 19.693 1.133 1.463 3.77 1.174 6.345 1.174 3.873 0 19.219.68 20.991-.659 2.554-1.936 1.545-9.764 1.545-14.11v-40.272c0-16.974 1.318-32.444-6.18-42.106-13.431-17.509-48.841-8.136-61.798 2.987h-.515c-4.965-8.342-13.514-13.039-27.027-12.833l-5.438.391c-3.692.49-7.332 1.311-10.877 2.452-4.53 1.678-8.907 3.745-13.08 6.179l-6.345 3.894c-2.307-2.781-.906-7.292-4.12-9.188-1.256-.762-17.859-.968-20.187-.391-.87.221-1.644.72-2.204 1.421-1.36 2.06-.66 15.635-.66 19.549zm198.414 4.388c12.71 7.972 35.658 9.702 53.744 5.191 4.552-1.133 13.431-2.74 15.017-6.468.488-5.17.571-10.37.247-15.553-.314-.82-.904-1.505-1.669-1.936-1.627-.701-4.119.494-5.706.906l-13.348 2.451c-4.861.927-9.834 1.107-14.749.536-3.461-.26-6.901-.742-10.3-1.442-10.135-3.069-16.871-10.629-16.974-23.566 2.41-1.092 10.3-.247 13.596-.247h32.959c4.738 0 12.36.968 15.264-1.174 3.893-2.905 3.605-22.351 2.348-28.613-4.264-21.217-17.056-32.959-42.743-32.506l-3.111.124-9.331 1.298c-10.012 2.513-18.643 7.127-24.205 14.11-3.103 3.749-5.675 7.908-7.642 12.36-5.068 12.03-6.468 33.824-2.184 48.244 3.461 11.515 9.538 20.455 18.787 26.223zm7.622-67.072c2.327-6.695 6.18-11.577 12.957-13.719l5.788-1.113c15.367-.144 19.611 7.808 19.425 23.195-2.059.948-8.754.248-11.659.248h-27.933c-.844-2.163.763-6.757 1.422-8.673zm159.954 27.191c-6.18-10.712-19.61-14.893-31.599-19.816-5.686-2.328-14.997-4.285-16.336-10.877-2.822-14.09 26.141-10.011 34.71-7.89 2.39.577 7.931 2.74 9.456.763 1.524-1.978.782-6.778.782-9.826 0-2.534.33-5.768-.659-7.395-1.483-2.493-5.376-3.193-8.404-4.12-7.793-2.452-15.934-3.621-24.102-3.461l-7.395.515c-4.609.675-9.123 1.884-13.451 3.605-7.371 2.998-13.286 8.759-16.48 16.047-4.594 11.371-.288 26.449 6.613 31.991 8.239 6.653 19.425 10.444 30.034 14.769 5.355 2.184 11.432 3.441 12.565 9.847 3.069 17.407-29.89 11.103-39.757 8.549-2.06-.556-8.569-2.761-10.299-1.813-2.349 1.339-1.422 7.931-1.422 11.515 0 2.06-.309 4.985.515 6.345 2.472 4.12 16.13 6.715 22.145 7.91 23.895 4.738 45.154-3.337 52.837-18.395 3.852-7.272 4.553-20.847.247-28.325zm-83.922 102.173-4.532.268c-4.392.101-8.768.577-13.08 1.422-9.753 1.695-19.162 4.979-27.851 9.722-2.06 1.257-10.299 5.315-8.796 9.064 1.175 3.008 13.102.515 16.954.247 7.621-.515 11.35-1.174 18.539-1.153h13.204c3.949-.062 7.896.193 11.804.762 2.594.574 5.024 1.729 7.107 3.378 3.007 2.575 2.451 11.309 1.421 15.409-3.046 13.215-7.025 26.198-11.906 38.85-.845 2.06-7.499 15.038-.124 13.472 3.337-.721 10.094-8.24 12.174-10.753 10.3-13.163 16.789-28.324 21.63-47.378 1.112-4.429 3.666-21.836 1.153-25.894-4.12-6.715-25.934-7.642-37.697-7.416zm-16.088 37.079-11.783 5.171-19.549 7.374c-17.386 6.736-36.749 11.145-56.092 15.944l-22.659 4.264-26.677 3.502-8.548.639c-3.42.721-7.437.309-11.268.906-8.463.982-16.987 1.333-25.502 1.051l-19.302.123-13.863-.515-8.92-.515c-2.06-.412-4.491-.123-6.736-.535l-27.068-2.966c-8.013-1.504-16.623-2.06-24.224-4.12l-6.345-1.051-23.545-5.273c-16.809-5.253-33.516-9.352-49.212-15.409-17.427-6.736-35.617-14.09-51.025-23.195l-15.264-8.796c-2.781-1.668-5.027-4.12-9.455-4.12-3.296 1.628-4.306 3.77-2.06 7.643 1.661 2.248 3.671 4.216 5.953 5.83l7.004 6.468c10.093 8.034 20.228 16.294 31.208 23.442 9.476 6.18 19.569 11.433 29.519 17.221l14.893 7.127c8.508 3.75 17.345 7.622 26.285 11.124l22.927 7.642c12.36 4.12 25.811 6.18 39.139 9.456l28.098 4.12 9.064.659 15.284 1.153h5.562c5.409.76 10.894.808 16.315.144l5.83-.144 7.127-.123 24.348-1.937c10.918-2.43 22.413-2.06 32.754-5.191l23.833-5.809c14.204-4.109 28.171-8.999 41.838-14.646 16.993-7.103 33.289-15.771 48.676-25.893 5.273-3.544 12.73-6.18 14.131-13.596 1.154-6.283-5.273-8.672-10.691-7.169z" fill="#fff"/></svg>