<svg clip-rule="evenodd" fill-rule="evenodd" stroke-linejoin="round" stroke-miterlimit="2" viewBox="0 0 600 151" xmlns="http://www.w3.org/2000/svg"><path d="m520.7 131.752h-441.4c-37.712.128-60.632-25.183-60.632-56.234 0-31.059 23.066-56.165 60.632-56.234h441.4c37.566.069 60.624 25.175 60.624 56.234 0 31.051-22.912 56.362-60.624 56.234m.214-130.811h-441.828c-47.31-.111-79.086 33.903-79.086 74.68 0 40.768 31.699 74.389 79.154 74.406h441.692c47.446-.017 79.154-33.638 79.154-74.406 0-40.777-31.785-74.791-79.086-74.68m-215.517 69.957c1.648-2.878 4.679-4.253 7.421-4.261 2.749.008 5.781 1.383 7.421 4.261 1.349 2.332 1.409 5.064 1.383 9.146h-17.617c-.034-4.082.051-6.814 1.392-9.146m38.377 16.413c0-14.466-13.979-26.455-31.144-26.455-17.156 0-31.076 11.725-31.076 26.199 0 14.467 13.92 26.2 31.076 26.2 14.253 0 26.268-8.121 29.94-19.146l-21.033.017s.017.205.017 2.827c0 8.54-5.611 10.435-8.736 10.435-3.109 0-8.822-1.895-8.822-10.435 0-2.554.017-9.633.017-9.633s39.761.017 39.761-.009m44.176-25.678c-6.986.196-12.793 3.185-16.84 7.036-.017-1.153 0-4.901 0-4.901l-20.94.008-.008 46.67h20.948s-.017-28.668-.017-30.658c0-4.065 4.269-8.591 10.017-8.591 5.755 0 9.641 4.526 9.641 8.591v30.658h20.973s-.008-22.11 0-25.398c.12-18.479-15.892-23.646-23.774-23.415m-171.52 0c-6.977.196-12.792 3.185-16.832 7.036-.017-1.153 0-4.901 0-4.901l-20.973.008.017 46.67h20.956s-.017-28.668-.017-30.658c0-4.065 4.27-8.591 10.017-8.591 5.748 0 9.642 4.526 9.642 8.591v30.658h20.973s-.025-22.11 0-25.398c.111-18.479-15.901-23.646-23.783-23.415m240.939 25.243s.009 5.286.009 8.283c0 7.208-4.996 9.095-8.284 9.095-3.347 0-8.266-1.887-8.266-9.095 0-2.476.008-8.3.008-8.3s-.008-5.927-.008-8.318c0-7.224 4.919-9.06 8.275-9.06 3.279 0 8.266 1.836 8.266 9.06zm-.154-20.786c-3.364-1.895-6.934-3.723-11.938-4.158-15.209-1.341-26.84 12.109-26.84 24.432 0 16.242 12.544 22.254 14.44 23.142 7.105 3.305 16.217 3.314 24.296-1.759 0 .436.008 2.699.008 2.699h20.863v-70.171h-20.829zm67.011 30.538c0 7.438-4.398 10.504-8.625 10.504-4.235 0-8.65-3.066-8.65-10.504 0-2.826.008-10.068.008-10.068s.009-6.9.009-9.735c0-7.396 4.423-10.444 8.625-10.444 4.218 0 8.625 3.048 8.625 10.444 0 2.835 0 8.061.025 9.94 0 .111-.017 7.054-.017 9.863m-8.462-36.037c-17.037 0-30.846 11.742-30.846 26.208 0 14.475 13.809 26.208 30.846 26.208 17.036 0 30.845-11.733 30.845-26.208 0-14.466-13.809-26.208-30.845-26.208m-369.906-5.995h21.153v-14.347h-21.153zm.051 55.858h21.102v-46.669h-21.102zm138.437-46.584v-6.943h-11.434v-9.436h-21.119l.017 9.445-11.486.008v6.926h11.478l-.018 46.584h21.145l-.017-46.584zm-172.194 25.346-30.256-48.941h-21.862l-.008 70.179h21.733v-48.941l30.41 48.941h21.657v-70.179h-21.691z" fill="#fff" fill-rule="nonzero"/></svg>