<svg clip-rule="evenodd" fill-rule="evenodd" stroke-linejoin="round" stroke-miterlimit="2" viewBox="0 0 600 182" xmlns="http://www.w3.org/2000/svg"><g fill="#fff"><path d="m372.228 142.11c-34.867 25.7-85.404 39.412-128.916 39.412-61.011 0-115.936-22.566-157.49-60.097-3.264-2.951-.339-6.973 3.579-4.675 44.844 26.091 100.291 41.788 157.567 41.788 38.628 0 81.121-7.992 120.193-24.577 5.903-2.507 10.839 3.866 5.067 8.149"/><path d="m386.724 125.525c-4.44-5.693-29.461-2.69-40.692-1.358-3.421.418-3.943-2.559-.862-4.701 19.928-14.025 52.627-9.977 56.441-5.276 3.813 4.728-.993 37.505-19.719 53.15-2.873 2.402-5.616 1.123-4.336-2.064 4.205-10.499 13.634-34.031 9.168-39.751"/><path d="m346.816 20.454v-13.633c0-2.063 1.567-3.448 3.447-3.448h61.037c1.959 0 3.526 1.411 3.526 3.448v11.674c-.026 1.959-1.671 4.519-4.597 8.567l-31.628 45.157c11.753-.287 24.159 1.463 34.815 7.47 2.403 1.358 3.056 3.343 3.238 5.302v14.547c0 1.985-2.194 4.31-4.492 3.108-18.778-9.846-43.721-10.917-64.484.105-2.116 1.149-4.336-1.149-4.336-3.134v-13.817c0-2.22.026-6.007 2.246-9.376l36.643-52.548h-31.889c-1.959 0-3.526-1.385-3.526-3.422"/><path d="m124.163 105.519h-18.569c-1.776-.13-3.187-1.462-3.317-3.16v-95.303c0-1.907 1.593-3.422 3.578-3.422h17.316c1.802.079 3.238 1.463 3.369 3.187v12.458h.339c4.519-12.04 13.007-17.656 24.446-17.656 11.623 0 18.883 5.616 24.107 17.656 4.492-12.04 14.704-17.656 25.648-17.656 7.783 0 16.297 3.213 21.494 10.421 5.877 8.018 4.675 19.667 4.675 29.879l-.026 60.149c0 1.906-1.593 3.447-3.578 3.447h-18.543c-1.855-.13-3.343-1.619-3.343-3.447v-50.512c0-4.022.365-14.051-.523-17.864-1.384-6.399-5.537-8.201-10.917-8.201-4.492 0-9.193 3.003-11.1 7.809s-1.724 12.85-1.724 18.256v50.512c0 1.906-1.593 3.447-3.578 3.447h-18.543c-1.881-.13-3.343-1.619-3.343-3.447l-.026-50.512c0-10.63 1.749-26.274-11.44-26.274-13.346 0-12.824 15.253-12.824 26.274v50.512c0 1.906-1.593 3.447-3.578 3.447"/><path d="m467.375 1.623c27.554 0 42.467 23.663 42.467 53.75 0 29.069-16.48 52.131-42.467 52.131-27.058 0-41.788-23.662-41.788-53.149 0-29.67 14.913-52.732 41.788-52.732m.156 19.458c-13.685 0-14.547 18.648-14.547 30.27 0 11.649-.183 36.513 14.391 36.513 14.391 0 15.07-20.059 15.07-32.282 0-8.044-.34-17.655-2.769-25.281-2.089-6.634-6.242-9.22-12.145-9.22"/><path d="m545.571 105.519h-18.491c-1.855-.13-3.343-1.619-3.343-3.447l-.027-95.33c.157-1.749 1.698-3.108 3.579-3.108h17.211c1.619.079 2.951 1.176 3.317 2.664v14.574h.34c5.197-13.033 12.484-19.249 25.308-19.249 8.331 0 16.454 3.004 21.677 11.231 4.858 7.626 4.858 20.45 4.858 29.67v59.992c-.209 1.671-1.75 3.003-3.578 3.003h-18.622c-1.698-.13-3.108-1.384-3.291-3.003v-51.765c0-10.421 1.202-25.674-11.622-25.674-4.518 0-8.671 3.03-10.734 7.626-2.612 5.825-2.952 11.623-2.952 18.048v51.321c-.026 1.906-1.645 3.447-3.63 3.447"/><path d="m298.159 59.996c0 7.235.183 13.268-3.474 19.693-2.951 5.223-7.652 8.436-12.85 8.436-7.13 0-11.309-5.433-11.309-13.451 0-15.827 14.182-18.7 27.633-18.7zm18.726 45.262c-1.227 1.097-3.004 1.175-4.388.444-6.163-5.119-7.287-7.496-10.656-12.38-10.186 10.395-17.42 13.503-30.61 13.503-15.644 0-27.789-9.637-27.789-28.938 0-15.07 8.149-25.334 19.797-30.349 10.082-4.44 24.159-5.223 34.92-6.451v-2.403c0-4.414.339-9.637-2.273-13.45-2.246-3.422-6.581-4.832-10.42-4.832-7.078 0-13.373 3.63-14.914 11.152-.313 1.672-1.541 3.317-3.238 3.395l-17.995-1.932c-1.515-.34-3.213-1.567-2.769-3.892 4.127-21.834 23.872-28.416 41.527-28.416 9.037 0 20.842 2.403 27.972 9.246 9.037 8.436 8.175 19.693 8.175 31.942v28.938c0 8.697 3.604 12.51 7 17.212 1.175 1.671 1.436 3.682-.079 4.936-3.787 3.16-10.525 9.037-14.234 12.327z"/><path d="m54.716 59.996c0 7.235.183 13.268-3.473 19.693-2.952 5.223-7.627 8.436-12.85 8.436-7.13 0-11.283-5.433-11.283-13.451 0-15.827 14.182-18.7 27.606-18.7zm18.727 45.262c-1.228 1.097-3.004 1.175-4.388.444-6.164-5.119-7.261-7.496-10.656-12.38-10.186 10.395-17.394 13.503-30.61 13.503-15.618 0-27.789-9.637-27.789-28.938 0-15.07 8.175-25.334 19.797-30.349 10.082-4.44 24.159-5.223 34.919-6.451v-2.403c0-4.414.34-9.637-2.246-13.45-2.272-3.422-6.607-4.832-10.421-4.832-7.078 0-13.398 3.63-14.939 11.152-.313 1.672-1.541 3.317-3.212 3.395l-18.022-1.932c-1.514-.34-3.186-1.567-2.768-3.892 4.153-21.834 23.871-28.416 41.527-28.416 9.037 0 20.842 2.403 27.972 9.246 9.037 8.436 8.175 19.693 8.175 31.942v28.938c0 8.697 3.604 12.51 6.999 17.212 1.202 1.671 1.463 3.682-.052 4.936-3.787 3.16-10.525 9.037-14.234 12.327z"/></g></svg>