<svg clip-rule="evenodd" fill-rule="evenodd" stroke-linejoin="round" stroke-miterlimit="2" viewBox="0 0 600 402" xmlns="http://www.w3.org/2000/svg"><g fill="#fff"><path d="m473.835 200.978c0-14.283-1.507-28.221-4.333-41.689h-36.917c4.207 15.602 6.467 32.052 6.467 49.004 0 10.83-.942 21.441-2.7 31.737h33.653c2.48-12.651 3.798-25.679 3.798-39.052z"/><g fill-rule="nonzero"><path d="m483.786 214.634h43.164c0 3.422 1.225 5.964 3.642 7.628 2.417 1.695 6.058 2.543 10.956 2.543 4.677 0 8.256-.565 10.736-1.695s3.767-2.825 3.767-4.992c0-3.61-5.525-6.278-16.544-8.005-.973-.157-1.726-.282-2.291-.376-20.876-3.202-34.532-6.655-40.936-10.391-6.341-3.704-9.543-9.167-9.543-16.324 0-8.664 4.677-15.257 14.032-19.809 9.324-4.551 23.011-6.78 40.967-6.78 16.669 0 29.603 2.134 38.707 6.404 9.166 4.269 14.44 10.579 15.79 18.992h-40.025c-.345-2.449-1.79-4.364-4.364-5.776-2.605-1.444-5.839-2.166-9.731-2.166-3.924 0-6.907.471-8.947 1.444-2.072.973-3.077 2.354-3.077 4.206 0 3.202 5.055 5.588 15.132 7.126 2.668.377 4.677.691 6.027.879 20.279 3.359 33.495 6.938 39.585 10.737 6.122 3.798 9.167 9.354 9.167 16.669 0 9.292-4.991 16.261-14.943 20.97-9.982 4.677-24.737 7.063-44.263 7.063-18.113 0-31.894-2.354-41.375-7.063-9.512-4.709-14.754-11.804-15.696-21.253z"/><path d="m306.357 159.289h45.833l13.53 19.181 14.001-19.181h45.864l-35.505 38.048 36.666 42.725h-46.806l-15.602-22.383-14.66 22.383h-46.366l37.482-42.443z"/><path d="m254.277 240.062-2.7-7.723c-5.525 3.61-11.489 6.279-17.862 8.005-6.404 1.758-13.624 2.606-21.598 2.606-12.243 0-21.723-2.229-28.441-6.718-6.687-4.489-10.014-10.799-10.014-18.993 0-7.973 3.296-13.875 9.888-17.673 6.593-3.799 19.056-6.593 37.389-8.319 2.323-.251 5.462-.503 9.386-.817 13.687-1.098 20.499-3.735 20.499-7.879 0-2.292-1.256-4.018-3.767-5.086-2.48-1.067-6.435-1.601-11.835-1.601-4.458 0-7.911.66-10.297 1.978-2.385 1.287-3.798 3.328-4.206 6.028h-42.16c.22-9.041 5.18-15.885 14.974-20.531 9.795-4.646 24.172-6.938 43.165-6.938 8.946 0 17.14.597 24.737 1.852 7.534 1.256 13.436 2.889 17.642 4.992 5.117 2.574 8.727 5.462 10.768 8.727 2.071 3.233 3.107 7.879 3.107 13.907v44.985c0 1.507.409 2.825 1.193 3.987.817 1.161 1.978 2.134 3.516 2.856v2.292h-43.384zm-3.987-36.039c-4.112 1.193-9.606 2.449-16.481 3.767-10.798 2.135-16.198 4.992-16.198 8.539 0 2.292 1.067 4.05 3.202 5.337 2.103 1.287 5.148 1.915 9.072 1.915 7.189 0 12.463-1.256 15.759-3.705 3.297-2.48 4.96-6.404 4.96-11.803 0-1.13 0-2.009-.031-2.574s-.126-1.068-.283-1.507z"/><path d="m0 240.062v-80.741h33.37v11.803c4.081-4.771 8.664-8.256 13.781-10.548 5.117-2.291 10.956-3.421 17.58-3.421 6.059 0 11.27 1.13 15.696 3.359 4.363 2.229 8.287 5.744 11.772 10.61 4.458-4.866 9.355-8.413 14.66-10.705 5.337-2.291 11.333-3.421 17.988-3.421 10.862 0 19.306 2.448 25.302 7.346 5.996 4.928 9.01 11.803 9.01 20.656v55.03h-36.164v-43.258c0-5.054-.973-8.696-2.92-10.988-1.946-2.291-5.117-3.421-9.48-3.421-4.458 0-7.754 1.193-9.857 3.578-2.072 2.355-3.14 6.09-3.14 11.145v42.944h-36.006v-42.128c0-5.525-1.005-9.512-3.014-11.929s-5.305-3.61-9.889-3.61c-4.081 0-7.188 1.224-9.292 3.641-2.103 2.417-3.202 5.965-3.202 10.611v43.384h-36.164l-.031.063z"/></g><path d="m432.114 259.023c-22.131 78.951-94.616 136.838-180.631 136.838-16.23 0-31.988-2.072-47.025-5.933 21.378 7.754 44.42 11.961 68.466 11.961 90.787 0 167.478-60.211 192.372-142.866zm32.397-118.726c-25.71-81.306-101.774-140.229-191.587-140.229-71.417 0-134.107 37.262-169.738 93.423 34.312-44.263 87.993-72.767 148.329-72.767 79.61 0 147.637 49.6 174.854 119.573z"/></g></svg>