<svg clip-rule="evenodd" fill-rule="evenodd" stroke-linejoin="round" stroke-miterlimit="2" viewBox="0 0 600 526" xmlns="http://www.w3.org/2000/svg"><g fill="#fff"><path d="m50.039 478.655 8.561-21.194h44.189l-5.396 13.464-10.289 25.113c-4.291 10.655-6.61 13.863-13.103 18.805-7.827 6.108-12.91 7.9-23.559 7.9h-28.505c-4.039 0-7.257-.164-9.856-.607-8.33-1.465-13.49-8.593-11.741-16.175.367-1.455 2.068-5.954 4.957-12.957l20.012-49.353c5.489-13.284 8.494-17.215 17.461-21.877 6.638-3.478 9.508-4.046 21.616-4.046h47.02l-9.122 22.725h-46.092c-2.822.125-5.257 1.869-6.194 4.335l-1.585 3.362-17.76 43.833c-.812 2.032-1.421 3.487-1.546 3.94-.484 2.187 1.101 4.21 3.701 4.21h19.625c5.488 0 8.745-1.455 9.962-4.663l1.141-2.755 5.729-14.06z"/><path d="m159.257 430.807c6.765-9.036 15.828-14.142 25.221-14.142 9.827 0 14.745 4.99 14.079 14.142l-5.392 91.933h-26.09l1.343-22.61h-35.395l-17.027 22.61h-26.089zm-10.02 47.927h20.321l2.068-33.949z"/><path d="m600 159.631h-107.452l-98.465 72.203 23.288-72.203h-171.923c7.498-7.697 18.475-12.398 37.25-15.635l78.772-13.901c31.395-5.549 76.647-21.223 89.141-60.123 18.331-57.242-41.183-69.072-108.66-69.072-52.382 0-123.221 9.431-152.036 79.968h88.802c10.929-26.57 34.332-28.641 56.808-28.641 19.268 0 32.246 4.74 28.448 16.493-2.744 8.583-10.078 13.891-21.075 15.962l-64.838 13.006c-52.547 10.616-110.254 34.478-136.991 113.28h178.687l-49.156 153.231h81.063l17.615-54.979 34.255-23.534 30.864 78.513h107.732l-59.166-125.486z"/><path d="m241.084 436.199c4.88-12.071 16.495-19.806 30.361-19.806 10.803 0 16.514 5.26 15.055 13.689l-10.262 60.73 40.835-60.73c5.673-8.429 15.606-13.689 25.752-13.689 12.736 0 18.302 5.828 15.847 16.483-.261 1.011-.55 2.312-.956 3.323l-35.231 86.538h-23.819l30.641-75.151-44.054 63.321c-6.541 9.441-13.895 14.142-22.302 14.142-8.01 0-11.788-4.701-10.532-14.142l7.788-63.321-30.525 75.151h-23.877l35.279-86.538z"/><path d="m372.912 522.737c-15.953 0-22.998-5.712-20.398-16.935.367-1.744.889-3.199 1.623-4.942l24.631-60.287c5.769-14.421 18.205-22.851 33.385-22.851h51.668l-9.102 22.726h-45.126c-1.121 0-2.213.414-3.479.973-2.358 1.175-3.942 3.246-5.141 5.713l-4.657 11.502h50.923l-9.305 22.735h-50.759l-4.754 11.628c-.319.568-.464 1.3-.648 2.023-.812 3.526.445 5.106 4.107 5.106h44.498l-9.306 22.609z"/><path d="m450.982 500.128h40.43c6.309 0 9.614-1.86 11.305-6.118l3.17-7.571.318-1.301c.455-2.023-1.053-3.767-3.652-3.767h-20.814c-11.576 0-18.244-7.292-15.886-17.504.28-1.175.628-2.023 1.053-3.198l9.006-22.119c2.58-6.849 9.412-14.142 15.992-17.504 4.184-2.032 9.953-3.323 16.253-3.323h50.596l-9.325 22.725h-40.275c-6.281 0-9.692 1.416-11.2 5.067l-2.918 7.129-.309 1.339c-.773 3.324.87 4.653 6.175 4.653h17.886c13.064 0 18.552 6.127 15.953 17.35-.309 1.291-.715 2.303-1.121 3.439l-8.619 21.156c-5.585 13.689-18.505 22.157-33.994 22.157h-49.272z"/></g></svg>