<svg clip-rule="evenodd" fill-rule="evenodd" stroke-linejoin="round" stroke-miterlimit="2" viewBox="0 0 600 177" xmlns="http://www.w3.org/2000/svg"><path d="m600 18.269c0-9.928-8.06-17.989-17.989-17.989h-564.022c-9.929 0-17.989 8.061-17.989 17.989v140.531c0 9.928 8.06 17.988 17.989 17.988h564.022c9.929 0 17.989-8.06 17.989-17.988zm-218.088 56.031c5.738-26.32 27.297-45.764 54.748-45.764 13.555 0 26.128 5.302 32.69 15.326v-11.481h31.365v11.939h.405c7.082-11.534 16.998-15.784 30.555-15.784 20.236 0 41.685 11.332 41.685 44.518v71.634h-33.591v-62.326c0-15.176-5.261-22.259-17.604-22.259-13.558 0-19.224 7.488-19.224 22.664v61.921h-33.591v-11.568c-5.082 9.575-18.205 15.412-32.69 15.412-28.238 0-49.151-18.9-54.76-45.484-6.266 27.285-29.984 45.484-58.88 45.484-29.103 0-52.49-18.318-58.814-44.981-7.184 27.238-30.901 44.779-59.101 44.779-29.32 0-53.269-21.008-58.451-48.788-5.128 28.999-29.532 48.586-59.51 48.586-34.198 0-60.504-25.295-60.504-59.695 0-34.805 26.913-59.695 60.504-59.695 29.974 0 54.377 19.901 59.509 48.125 5.194-27.933 29.227-48.327 57.845-48.327 29.133 0 52.954 18.103 59.624 45.961 6.261-27.099 30.131-45.354 58.898-45.354 28.913 0 52.642 18.517 58.892 45.157zm-1.326 19.302h-84.099c2.129 13.198 12.954 23.565 26.533 23.565 10.872 0 19.536-6.337 23.876-15.176h34.79c-.529-2.723-.898-5.523-1.1-8.389zm88.764-11.483v12.859c-2.815 12.902-13.849 22.189-27.429 22.189-15.581 0-27.925-12.748-27.925-28.329 0-16.189 12.141-28.937 27.52-28.937 13.614 0 24.969 9.484 27.834 22.218zm-205.49-6.434h-33.46c-4.857-10.523-13.558-15.784-25.092-15.784-15.379 0-25.902 12.748-25.902 28.532 0 16.391 11.13 28.532 26.711 28.532 11.332 0 19.224-5.261 24.283-14.974h33.458c-.88-4.197-1.342-8.595-1.342-13.153 0-4.567.463-8.962 1.344-13.153zm-176.716 41.078c-15.177 0-26.913-12.951-26.913-28.33s11.938-28.33 26.71-28.33c15.784 0 27.116 13.356 27.116 28.33s-11.13 28.33-26.913 28.33zm260.29-39.831h-48.813c4.259-9.611 13.482-16.424 24.196-16.424 11.379 0 20.444 6.941 24.617 16.424z" fill="#fff"/></svg>