<svg clip-rule="evenodd" fill-rule="evenodd" stroke-linejoin="round" stroke-miterlimit="2" viewBox="0 0 600 209" xmlns="http://www.w3.org/2000/svg"><g fill="#fff" fill-rule="nonzero"><path d="m52.957 105.637h-7.199c-1.516 0-3.335 1.004-4.093 4.509-.757 3.504-4.642 21.502-5.21 24.439-.569 2.936.209 4.547 3.051 4.547h5.304c1.043 0 2.516-.359 2.974-3.126 1.194-7.2 5.173-30.369 5.173-30.369m31.353-15.124s-14.113 70.69-16.481 81.299-11.177 15.668-17.714 15.668h-41.584c-7.484 0-9.057-6.385-8.393-10.553.662-4.168 2.556-15.815 2.556-15.815s.979 7.385 6.499 7.385h27.186c6.037 0 7.464-4.074 7.939-6.915.473-2.842 1.535-7.862 1.535-7.862s-4.832 8.051-10.326 8.051h-21.123c-10.136 0-10.515-8.146-9.662-12.883.852-4.736 6.725-38.08 8.146-44.9s7.578-13.475 12.504-13.475zm36.014 48.777c.741-3.671 1.537-7.716 2.3-11.62h-4.779c-3.221 0-6.252 4.168-6.252 9.568 0 3.693 2.216 5.458 4.962 5.458 1.916 0 3.055-1.643 3.769-3.406m24.782 11.493c-1.988 9.568 6.555 14.019 6.555 14.019h-28.228c-8.241 0-7.465-7.199-5.759-13.355.019-.076.043-.172.066-.253-1.712 2.187-3.495 4.486-4.727 6.126-3.125 4.168-6.914 7.482-15.914 7.482s-17.051-3.41-17.051-13.451 5.323-35.048 21.237-35.048h23.554c.616-3.139 1.087-5.493 1.302-6.421.948-4.074-.624-5.704-3.845-5.704h-25.179l3.031-13.665h46.587c8.752 0 10.634 8.348 9.303 13.771-1.23 5.021-8.942 36.932-10.932 46.499m52.688-45.469c-6.821 0-7.382 3.21-7.826 4.675-.795 2.62-1.858 6.503-1.858 6.503h13.662s1.041-4.075 1.514-5.687c.474-1.609 1.328-5.491-5.492-5.491m31.77-1.609c-1.231 4.451-5.778 24.154-5.778 24.154h-37.834s-1.61 7.01-2.273 10.705c-.663 3.694.568 5.115 3.316 5.115h25.197c5.305 0 10.324-6.916 10.324-6.916s-1.988 12.6-2.936 17.525c-.877 4.559-3.126 10.514-8.62 10.514h-43.953c-10.703 0-12.03-11.746-10.799-17.713 1.232-5.968 7.881-35.996 9.68-43.763 1.801-7.768 7.559-12.813 15.044-12.813h40.258c8.715 0 9.606 8.739 8.374 13.192m140.693 3.378h-4.423c-1.673 0-3.319 1.358-3.675 3.031l-6.937 32.438c-.356 1.674.712 3.031 2.387 3.031h4.421c1.673 0 3.319-1.357 3.677-3.031l6.935-32.438c.355-1.673-.713-3.031-2.385-3.031m30.312-1.894c-1.136 6.062-7.199 38.143-8.336 45.468-1.136 7.325-10.356 14.145-16.293 14.145h-36.673c-7.072 0-14.479-7.494-13.089-14.44 1.389-6.947 6.693-32.923 8.841-43.784 2.147-10.86 10.862-16.065 17.176-16.065h37.133c9.094 0 12.378 8.613 11.241 14.676m-72.117-14.676h-41.301c-3.537 0-10.244 4.757-11.746 11.391-1.515 6.695-9.979 41.68-11.367 47.616-1.287 5.501 2.525 15.282 11.872 15.282h35.82c5.43 0 7.422-4.239 9.144-9.977 2.391-7.984 2.32-8.021 5.177-19.324 0 0-6.061 9.598-12.63 9.598h-19.577l9.6-40.921h21.723zm-54.941-7.048c-2.021 7.325-15.031 56.457-17.809 66.813s5.935 14.524 5.935 14.524h-29.427c-4.547 0-7.452-6.314-6.188-11.746 1.262-5.432 13.704-56.608 16.215-67.317 2.541-10.831-5.227-16.42-5.227-16.42h29.806c5.431 0 8.715 6.82 6.695 14.146"/><path d="m533.786.927s43.574 23.113 43.574 71.423c0 74.171-68.203 78.622-68.203 78.622l-13.734 57.215s11.746-.19 28.607-5.305c18.078-5.485 75.97-29.744 75.97-104.767 0-71.612-66.214-97.188-66.214-97.188m-11.082 84.874-13.547 65.171s-4.357 3.411-14.303 3.411c-13.736 0-36.003-5.975-53.748-21.601-29.044-25.573-20.612-68.2-20.612-68.2s.472 57.594 52.572 57.594c37.038 0 49.638-36.375 49.638-36.375"/></g></svg>