<svg clip-rule="evenodd" fill-rule="evenodd" stroke-linejoin="round" stroke-miterlimit="2" viewBox="0 0 601 141" xmlns="http://www.w3.org/2000/svg"><g fill="#fff"><path d="m514.23 125.621c-11.304 14.53-15.5 14.854-22.283 14.854h-483.727c-5.814 0-10.335-2.905-4.521-10.982l90.093-122.708c5.491-8.071 9.689-6.134 16.146-6.457l483.727-.32c7.753 0 9.689 3.873 4.199 11.945zm-139.175-26.157h-26.482c-20.019 0-9.364-13.885-9.364-13.885l36.167-46.501c9.364-12.916 24.864-12.916 24.864-12.916h98.492c22.279 0 10.658 15.499 10.658 15.499l-40.046 51.989h-10.009c-10.979 0-15.824 10.013-15.824 10.013h51.991l-8.398 10.979h-123.998zm-16.793 14.854h-262.533l8.398-10.655h262.53zm-248-88.156-15.5 20.021h53.926l-41.98 53.926h46.501l34.553-44.885h-19.377s5.491-9.365 16.793-9.365h44.561l15.503-19.697zm142.405 0-57.153 73.622h46.498l26.158-32.934h30.675l-25.188 32.934h46.502l44.883-57.799s11.949-15.823-7.75-15.823h-26.478l-22.604 28.419h-52.312s3.873-9.045 15.176-9.045h13.562l14.856-19.374z"/><path d="m432.209 83.319c-2.26 2.909-6.78 5.165-10.33 5.165h-32.617c-3.226 0-4.196-2.581-1.936-5.489l27.773-35.843c2.26-3.23 6.78-5.167 10.009-5.167h32.938c3.551 0 4.52 2.261 1.936 5.167z"/></g></svg>