<svg clip-rule="evenodd" fill-rule="evenodd" stroke-linejoin="round" stroke-miterlimit="2" viewBox="0 0 600 181" xmlns="http://www.w3.org/2000/svg"><g fill="#fff"><path d="m122.434 89.885-22.541 66.969h-16.462l11.505-34.046-23.29 34.046h-13.609l-.374-34.046-11.458 34.046h-16.462l22.542-66.969h-21.793l-30.492 90.539h113.736l30.491-90.539zm-46.205 0h29.743-7.435l-23.384 36.337z"/><path d="m118.558 89.885h-7.436z"/><path d="m106.773 89.885h-13.609z"/><path d="m94.095 89.885 23.29-34.046-11.505 34.046h16.462l22.541-66.969h-23.897l-23.383 36.337 1.075-36.337h-23.944l-22.541 66.969h16.461l11.458-34.046.374 34.046z"/><path d="m32.647 91.419-2.652.041 30.492-90.54h113.688l-30.444 90.54-2.642.011s29.608-88.051 29.608-88.051h-108.414s-29.636 87.999-29.636 87.999z"/><path d="m221.733 57.679h-23.79l-19.227 65.986h18.159l7.537-25.863 3.123-15.07-1.851 40.933h14.164l21.889-40.223-5.636 14.36-7.536 25.863h18.071l19.227-65.986h-23.699l-22.042 40.123z"/><path d="m285.128 57.679-19.227 65.986h19.703l19.23-65.986z"/><path d="m324.463 57.679-19.227 65.986h25.696c4.599 0 9-.609 13.2-1.832 4.2-1.22 8.064-3.206 11.587-5.957 3.526-2.748 6.652-6.314 9.382-10.693 2.729-4.377 4.913-9.69 6.551-15.937 1.656-6.313 1.9-11.504.726-15.579-1.174-4.072-3.05-7.298-5.624-9.674-2.577-2.376-5.518-4.02-8.824-4.938-3.303-.915-6.289-1.376-8.952-1.376zm14.771 15.683c5.002-.134 8.768.967 11.294 3.309 2.525 2.343 2.909 6.738 1.15 13.189-1.108 3.8-2.434 6.905-3.987 9.317-1.549 2.41-3.294 4.292-5.23 5.652-1.94 1.357-4.02 2.257-6.238 2.696-2.214.442-4.575.595-7.079.461z"/><path d="m391.264 57.679-3.974 65.986h19.069l17.516-37.981-3.987 37.981h19.157l33.394-65.986h-18.431l-18.229 40.123 5.243-40.123h-17.889l-17.317 40.123 5.063-40.123z"/><path d="m498.879 57.679-40.474 65.986h19.886l4.398-8.552h19.16l-.588 8.552h19.885l-1.836-65.986zm-8.461 43.685 11.98-21.484-.448 21.484z"/><path d="m536.53 57.679 9.507 42.16-6.942 23.826h19.157l6.945-23.826 34.803-42.16h-22.518l-15.765 21.387-3.395-21.387z"/></g></svg>