<svg clip-rule="evenodd" fill-rule="evenodd" stroke-linejoin="round" stroke-miterlimit="2" viewBox="0 0 600 524" xmlns="http://www.w3.org/2000/svg"><g fill="#fff" fill-rule="nonzero"><path d="m56.033 415.79c-12.234 0-25.048 8.513-29.134 19.397l-7.076 18.931c-.504 1.363-.92 2.813-1.122 4.339-.77 6.092 2.043 12.801 15.21 16.459l14.756 4.061 13.268 3.607c2.372.656 2.876 1.16 2.99 1.261-.114.026-.253.618-.253.618l-5.536 14.731c-.656 1.703-3.242 3.62-5.903 3.62h-25.527c-1.186 0-1.841-.378-2.043-.719-.038-.088-.227-.366.012-1.021 0-.026 5.638-14.946 5.638-14.946h-23.988l-6.054 16.068c-1.955 5.171-1.64 10.241.845 14.164 2.85 4.502 8.286 7.1 14.92 7.1h35.163c12.221 0 25.01-8.5 29.109-19.397l7.769-20.735c.454-1.21.883-2.711 1.072-4.263.731-5.726-1.514-12.927-14.996-16.559l-11.275-3.027-17.052-4.616c-2.396-.719-2.674-1.262-2.699-1.287.025 0 .189-.807.189-.807l4.805-12.764c.707-1.879 3.418-3.582 5.714-3.582h24.669c1.186 0 1.804.379 2.006.707.075.113.252.328-.013 1.034l-5.827 15.538h24.001l6.268-16.648c1.943-5.234 1.627-10.291-.87-14.214-2.85-4.477-8.286-7.05-14.882-7.05z"/><path d="m121.094 415.79-40.371 107.67h24.026s13.205-35.238 15.034-40.132h36.121c12.246 0 25.035-8.513 29.096-19.397l10.115-26.902c.555-1.551.934-3.027 1.123-4.49.454-3.569-.24-6.912-2.006-9.699-2.837-4.477-8.273-7.05-14.882-7.05zm47.51 20.785c1.262 0 1.943.353 2.119.668.152.202.051.618-.05.921l-7.845 20.848c-.731 1.993-3.304 3.519-5.852 3.519h-29.386c2.333-6.243 8.223-21.92 9.736-25.956z"/><path d="m230.894 415.79c-12.146 0-24.872 8.513-28.908 19.397l-25.174 67.009c-1.98 5.222-1.677 10.317.858 14.265 2.8 4.477 8.173 6.999 14.706 6.999h38.682c12.246 0 25.022-8.5 29.121-19.397l25.162-67.034c1.904-5.209 1.576-10.266-.909-14.189-2.85-4.477-8.286-7.05-14.869-7.05zm-29.664 86.154c-.063-.051-.164-.265.025-.87 0-.026 22.866-61.069 22.866-61.069.731-1.879 3.418-3.43 5.852-3.43h28.983c1.147 0 1.778.328 1.967.58.164.265.051.706-.088 1.009l-22.866 61.03c-.731 1.917-3.254 3.456-5.663 3.456h-28.957c-1.249 0-1.943-.403-2.119-.706"/><path d="m300.252 415.79-40.384 107.67h24.064s13.318-35.516 15.16-40.447h20.797c.845 4.603 7.429 40.447 7.429 40.447h25.691s-6.659-36.171-7.744-42.124c9.598-2.99 17.266-9.384 20.419-17.67l9.976-26.637c.593-1.551.959-3.065 1.161-4.566.441-3.582-.265-6.899-1.993-9.661-2.863-4.477-8.286-7.012-14.958-7.012zm48.923 20.785c1.273 0 1.891.353 2.144.668.038.101.038.215.038.404-.026.189-.114.378-.139.517l-7.782 20.76c-.769 1.904-3.317 3.43-5.827 3.43h-30.786c2.333-6.218 8.185-21.743 9.673-25.779z"/><path d="m388.413 415.79-7.782 20.785h32.766c-3.14 8.412-32.602 86.885-32.602 86.885h23.976s30.609-81.563 32.602-86.885h32.792l7.794-20.785z"/><path d="m600 160.207h-108.074l-99.018 72.836 23.433-72.836h-172.913c7.529-7.756 18.565-12.498 37.458-15.778l79.23-13.999c31.568-5.613 77.073-21.441 89.647-60.69 18.427-57.739-41.431-69.67-109.284-69.67-52.694 0-123.941 9.535-152.911 80.693h89.295c11.01-26.801 34.532-28.895 57.146-28.895 19.384 0 32.451 4.743 28.617 16.623-2.75 8.665-10.141 14.012-21.202 16.119l-65.205 13.104c-52.832 10.707-110.886 34.784-137.775 114.304h179.724l-49.44 154.563h81.5l17.733-55.456 34.444-23.761 31.051 79.217h108.351l-59.492-126.602z"/><path d="m503.609 415.79c-12.297 0-25.086 8.513-29.198 19.397l-7.062 18.906c-.518 1.388-.921 2.838-1.098 4.351-.794 6.105 1.993 12.814 15.16 16.472.038 0 28.024 7.668 28.024 7.668 2.384.656 2.901 1.16 3.002 1.261-.101.026-.227.618-.227.618l-5.562 14.731c-.63 1.703-3.216 3.62-5.89 3.62h-25.527c-1.148 0-1.841-.378-2.043-.719-.038-.088-.227-.366.025-1.021 0-.026 5.6-14.946 5.6-14.946h-23.976l-6.054 16.068c-1.98 5.209-1.614 10.241.845 14.189 2.889 4.477 8.299 7.075 14.908 7.075h35.163c12.297 0 25.06-8.5 29.159-19.397l7.744-20.735c.454-1.21.896-2.711 1.085-4.263.668-5.7-1.488-12.927-14.996-16.559l-10.733-2.889-17.582-4.754c-2.408-.719-2.699-1.287-2.699-1.287l.152-.807 4.818-12.764c.693-1.879 3.43-3.582 5.688-3.582h24.694c1.123 0 1.829.379 2.044.707.025.113.201.366-.051 1.034l-5.839 15.538h24.026l6.268-16.648c1.98-5.234 1.64-10.254-.883-14.214-2.863-4.477-8.286-7.05-14.882-7.05z"/></g></svg>