<svg clip-rule="evenodd" fill-rule="evenodd" stroke-linejoin="round" stroke-miterlimit="2" viewBox="0 0 600 90" xmlns="http://www.w3.org/2000/svg"><g fill="#fff"><path d="m597.039 47.603c0-12.335.229-25.052-30.372-25.052-15.175 0-32.198 2.961-32.938 20.975h22.692c.133-2.706 1.627-6.539 9.139-6.539 3.963 0 8.025 1.612 8.025 5.934 0 4.075-3.339 5.056-6.659 5.678-12.47 2.343-36.147 1.595-36.147 21.847 0 13.444 10.223 19.366 22.576 19.366 7.909 0 15.42-1.736 20.606-7.655h.248c-.126 1.731.239 4.328.865 6.049h24.926c-2.721-4.072-2.952-9.502-2.952-14.32v-26.273zm-23.454 17.769c-.374 6.663-4.682 9.987-10.246 9.987-4.426 0-7.651-2.952-7.651-5.903 0-4.332 2.838-5.694 8.266-6.917 3.346-.756 6.668-1.61 9.629-3.091v5.924z"/><path d="m527.471.103h-24.423v31.089h-.252c-3.698-5.434-10.246-8.635-17.523-8.635-21.473 0-27.271 18.267-27.271 33.314 0 16.046 8.757 33.943 26.903 33.943 11.973 0 15.665-4.571 18.755-8.653h.254v7.041h23.564v-88.093l-.007-.006zm-23.559 56.02c0 7.639-1.975 15.912-10.723 15.912-8.767 0-10.749-8.273-10.749-15.913 0-7.527 1.974-15.798 10.742-15.798 8.742 0 10.723 8.271 10.723 15.798z"/><path d="m455.417 42.782c-.608-16.399-17.269-20.225-31.088-20.225-12.835 0-30.238 4.197-30.238 20.362 0 10.979 7.523 16.905 26.159 20.111 11.352 1.972 13.451 3.083 13.451 6.792 0 3.702-5.056 4.936-8.258 4.936-2.967 0-5.304-.754-6.544-1.856-1.857-1.596-2.832-2.271-2.952-4.503h-23.316c.359 16.542 16.905 21.417 31.944 21.417 15.55 0 32.593-4.821 32.593-22.591 0-10.494-7.163-15.302-15.308-17.897-8.147-2.709-17.388-3.205-21.465-4.942-1.349-.61-2.832-1.469-2.832-3.329 0-4.188 3.942-4.927 7.403-4.927 1.973 0 3.956.617 5.419 1.851 1.618 1.107 2.719 2.709 2.853 4.808z"/><path d="m393.95 61.662c-.003-24.916-10.974-39.109-36.401-39.109-20.244 0-33.818 15.182-33.818 33.816 0 21.339 15.43 33.434 35.928 33.434 14.539 0 28.01-7.594 32.926-21.416h-22.812c-1.965 3.085-6.296 5.734-10.254 5.734-7.639 0-11.842-5.19-12.451-12.459zm-46.77-12.702c1.107-6.907 5.312-10.733 12.597-10.733 6.297 0 10.723 4.809 10.723 10.742h-23.318z"/><path d="m253.936 88.202h24.428v-33.81c0-10.246 5.552-12.351 9.756-12.351 7.147 0 8.013 5.19 8.013 12.589v33.572h24.442v-43.938c0-14.682-10.504-21.713-21.984-21.713-10.353 0-15.793 3.587-19.99 8.513h-.243v-30.961h-24.422z"/><path d="m236.788 4.66h-24.426v19.503h-10.857v14.487l.262.562h10.595v30.61c0 17.516 11.479 19.118 21.847 19.118 5.178 0 10.738-.736 15.672-.736v-18.521c-1.856.261-3.701.378-5.56.378-6.163 0-7.527-2.592-7.527-8.51v-22.343h13.083v-15.045h-13.089z"/><path d="m201.767 39.212h-.262v-.562c-5.396-10.443-15.689-16.097-31.728-16.097-20.25 0-33.816 15.182-33.816 33.815 0 21.34 15.428 33.435 35.917 33.435 14.548 0 28.01-6.417 32.936-20.244h-22.82c-1.977 3.087-6.3 4.565-10.258 4.565-7.632 0-11.829-5.189-12.449-12.463l46.887-.003.004.009c0-8.916-1.406-16.459-4.411-22.455zm-42.358 9.748c1.118-6.907 5.304-10.733 12.597-10.733 6.283 0 10.723 4.808 10.723 10.742h-23.318z"/><path d="m52.585 88.202h49.965c15.554 0 30.849-9.14 30.849-26.779 0-12.956-7.403-19.244-15.295-21.967 6.545-3.568 10.845-8.39 10.845-17.268.002-9.015-4.92-22.085-28.122-22.085h-48.242zm27.132-37.393h17.033c6.416 0 9.502 2.831 9.502 8.027 0 6.784-4.927 8.391-10.609 8.391h-15.926zm0-29.737h14.319c5.553 0 9.251 1.603 9.251 6.049 0 5.676-3.578 7.282-9.251 7.282h-14.319z"/><path d="m0 .008v38.473h37.714v-38.473h-37.714zm24.423 24.922h-11.143v-11.366h11.143z"/></g></svg>