<svg clip-rule="evenodd" fill-rule="evenodd" stroke-linejoin="round" stroke-miterlimit="2" viewBox="0 0 600 553" xmlns="http://www.w3.org/2000/svg"><g fill="#fff" fill-rule="nonzero"><path d="m495.556.628h-389.167c-58.611 0-106.389 46.389-106.389 103.056v345.833c0 57.5 46.111 102.778 105.278 102.778h389.444c59.167 0 105.278-45.278 105.278-102.778v-345.833c0-57.778-45.833-103.056-104.444-103.056zm.277 11.667 1.216.007c51.359.618 91.284 40.394 91.284 91.382v345.833h-.277c0 50.713-40.473 90.213-92.383 90.826l-1.229.008h-389.166c-52.5.277-93.334-39.723-93.334-90.834v-345.833c0-51.111 41.389-91.389 94.445-91.389h389.444z"/><path d="m515.278 328.962h-75.278l-11.944-75-43.889 74.444h-8.334c-5-8.611-6.944-21.111-6.944-28.889 0-12.778.833-25.278.833-41.666 0-21.667-6.389-33.056-23.333-37.223v-.555c35.833-5 52.222-28.889 52.222-62.222 0-47.5-31.667-57.778-73.055-57.778h-111.389l-47.223 223.333h59.167l17.222-81.389h39.445c21.111 0 29.722 10.278 29.722 30 0 15-1.667 26.945-1.667 38.334 0 4.166.834 14.166 3.889 18.055l42.778 45.278-36.944 79.167 78.888-46.945 58.889 45.278-10.833-74.722zm-214.722-128.611h-47.223l11.389-53.889h43.889c15.556 0 31.945 4.166 31.945 23.055 0 24.167-18.612 30.834-40 30.834m100 192.5-55 32.777 25.277-53.889-30.555-32.222h50.278l31.666-53.611 8.611 54.167h50l-45 31.389 8.056 55z"/></g></svg>