<svg clip-rule="evenodd" fill-rule="evenodd" stroke-linejoin="round" stroke-miterlimit="2" viewBox="0 0 600 103" xmlns="http://www.w3.org/2000/svg"><g fill="#fff"><path d="m98.63 102.349c.442 0 .803-.355.803-.796v-95.387c0-.442-.361-.804-.803-.804h-97.834c-.441 0-.796.362-.796.804v95.387c0 .441.355.796.796.796zm-48.693-3.952c24.596 0 44.538-19.942 44.538-44.538s-19.942-44.537-44.538-44.537c-24.595 0-44.537 19.941-44.537 44.537s19.942 44.538 44.537 44.538z"/><path d="m55.453 64.84c4.314 0 7.81-3.496 7.81-7.803s-3.496-7.803-7.81-7.803c-4.307 0-7.796 3.496-7.796 7.803s3.489 7.803 7.796 7.803z"/><path d="m45.196 35.662c1.629-.984 3.004-2.497 2.324-4.292-2.063-5.415-2.946-12.631 1.896-16.938.956-.847 2.179-1.419 3.229-.601 5.834 4.575 3.756 12.392.586 18.226-1.064 1.955.123 8.194 3.156 8.6 8.599 1.165 14.317 5.515 16.018 13.014 2.259 9.946-5.298 18.95-14.998 20.029-1.563 4.64.384 9.721-1.889 14.216-1.983 3.938-5.971 7.303-10.589 7.05-3.243-.174-6.182-3.851-4.872-7.209.898-2.302 3.221-3.287 5.53-3.279 2.49.007 4.293 1.686 5.762 3.807.55.789 1.187-.528 1.23-.999.232-2.446.601-9.656-.079-12.023-4.749.21-8.064 1.137-12.892-.76-8.7-3.424-15.425-13.195-11.805-22.323 3.069-7.731 10.235-12.189 17.393-16.518zm.797 7.644c1.578-.919 3.698-.934 4.553-2.476.665-1.209-1.05-4.473-2.034-3.93-6.262 3.467-12.118 8.396-14.615 15.222-2.656 7.246.377 14.94 6.645 19.464 2.244 1.614 6.276 2.787 8.614 1.448-3.916-2.316-7.398-5.132-9.294-9.396-3.163-7.122-1.086-16.127 6.131-20.332zm9.46 26.261c6.927 0 12.537-5.61 12.537-12.53s-5.61-12.537-12.537-12.537c-6.92 0-12.529 5.617-12.529 12.537s5.609 12.53 12.529 12.53zm-4.517-39.565c1.325-1.629 2.246-4.89 2.391-7.741s-.487-5.292-2.268-5.281c-3.155.022-2.917 9.707-.123 13.022z"/><g fill-rule="nonzero"><path d="m288.465 73.737c-.863 3.252-.29 8.007 2.769 10.471 4.301 3.467 11.326 1.674 13.201.759 4.882-2.359 7.204-4.198 10.419-8.678.632-.885-.514-1.994-1.928-1.659-2.984.722-3.81 3.966-6.935 4.525-.611.111-1.325-.35-1.191-1.161.26-1.556 1.533-3.997 1.838-4.778 0 0 8.811-20.748 13.76-31.739 1.399-3.118 2.3-6.906.722-10.129 0 0-1.31-4.792-10.047-5.06-9.175-.283-17.101 7.181-22.258 13.023-.685.975-1.094.856-1.354.194.141-8.134-1.459-11.342-6.601-12.674-10.523-2.723-17.786 3.855-22.943 9.697-.692.975-1.087.856-1.347.193-.603-7.866-2.136-8.134-4.034-9.361-7.97-5.158-23.955 4.926-28.055 11.519-1.489 2.389.431 5.448 2.775 3.513 3.037-2.486 4.934-5.462 8.023-5.351.736.03 1.838.41 1.719 1.779-.06.692-17.414 43.847-17.414 43.847-.238 1.198.112 1.719 1.778 2.054l13.12-.112c.916 0 1.801-.87 2.129-1.518 0 0 15.032-31.456 16.96-34.455 3.43-5.344 6.295-9.816 13.224-14.437 1.436-.96 4.301-.417 3.788 1.659-1.772 7.181-18.984 46.787-18.984 46.787-.358 1.131-.216 1.793 1.227 2.016l14.49.008c.803 0 1.719-.461 2.009-1.474 0 0 11.572-26.15 17.853-35.408 5.47-8.044 9.22-11.326 12.539-13.745 1.928-1.406 4.503-1.295 4.421 1.087-.149 4.279-14.81 35.348-15.673 38.608z"/><path d="m357.235 29.6c3.111-1.749 4.733-.856 5.685.312.864 1.072.76 3.528.566 4.562-1.019 5.596-3.274 9.042-6.705 13.581-3.282 4.376-6.772 7.814-11.646 9.779-1.362.543-4.183 1.25-4.168-.715.067-5.306 13.477-25.942 16.268-27.519zm-15.65 33.063c10.82-.334 32.677-9.413 33.027-26.098.193-9.347-11.974-13.157-20.733-10.27-19.476 6.43-26.917 19.357-29.946 26.434-3.877 9.071-4.316 21.045 4.554 27.698 6.08 4.569 13.835 4.726 20.525 1.436 5.142-2.522 10.269-6.988 12.941-10.798.342-.476 1.131-1.518.99-2.18-.149-.752-1.615-1.496-2.329-.662-4.086 4.733-10.33 9.607-12.473 10.44-3.163 1.221-7.129 2.434-10.359.425-1.116-.685-2.59-2.918-2.478-5.083.104-2.396.558-6.08 1.63-8.29 1.161-2.397 2.887-2.999 4.651-3.052z"/><path d="m390.998 36.364c.283-1.838-1.086-2.53-1.905-2.299-2.269.64-5.008 3.601-7.047 4.807-1.325.774-3.118-.424-2.002-1.898 3.788-5.023 15.055-11.363 21.782-10.418 6.646.923 5.492 7.337 5.619 9.927.044.863 1.131.581 1.458.201 4.205-5.075 8.387-10.27 15.256-9.6 2.3.231 6.207 1.771 6.028 6.088-.194 4.904-2.865 11.311-8.841 12.331-4.16.714-7.568-1.809-7.658-6.914 0-.394-.729-.707-1.681-.037-3.014 2.114-4.279 5.031-4.756 5.619-2.299 2.813-18.731 37.707-18.731 37.707-.617 1.645-1.019 1.816-2.165 1.935l-13.299-.03c-1.488.03-2.351-1.004-1.518-3.11z"/><path d="m434.875 49.023c-4.242-9.898 3.58-19.461 11.944-22.489 8.73-3.156 20.555-3.811 26.225 2.522 4.376 4.897.603 12.235-4.8 13.329-3.363.684-7.211-.134-8.989-3.424-1.727-3.192-1.37-7.367.282-8.744.276-.216.916-.677.841-1.205-.059-.454-.841-.707-1.6-.745-.55-.029-8.334.097-8.721 6.653-.41 6.914 5.268 12.034 10.113 17.526 7.591 8.618 4.696 21.544-5.105 27.46-6.504 3.907-13.544 5.395-20.703 4.867-7.531-.551-16.104-4.138-17.674-12.599-.789-4.286.788-8.729 4.591-10.872 4.763-2.679 12.301-1.221 13.641 4.844 1.183 5.358-2.255 9.303-6.452 11.289-1.622.752-1.005 1.623.112 2.144 4.085 1.935 9.406 1.823 13.365.141 5.142-2.203 7.903-9.771 5.797-13.871-3.341-6.519-9.235-8.372-12.867-16.826z"/><path d="m495.66 76.766c-7.546 5.856-10.128.513-10.679-1.489-3.26-11.735 17.362-43.705 22.735-46.183 2.82-1.303 8.067-1.965 8.446 4.628.35 5.909-12.673 36.964-20.502 43.044zm33.823-38.713c-3.304-10.954-14.013-13.975-21.916-13.447-13.023.871-24.484 8.484-31.003 20.123-5.596 9.979-5.291 23.501-.126 30.236 9.816 12.777 21.588 8.93 27.401 6.511 17.264-7.188 30.384-27.758 25.644-43.423z"/><path d="m578.405 33.335c-5.06 2.352-9.92 9.489-13.335 14.847-2.605 4.063-16.968 34.455-16.968 34.455-.327.64-1.213 1.518-2.128 1.518l-13.113.105c-1.666-.335-2.009-.856-1.778-2.054 0 0 17.354-43.155 17.414-43.847.119-1.37-.983-1.742-1.719-1.772-3.089-.119-4.994 2.858-8.023 5.351-2.344 1.927-4.264-1.124-2.775-3.512 4.093-6.594 20.085-16.678 28.048-11.528 1.897 1.228 3.438 1.496 4.041 9.362.178.461.699.692 1.347-.194 4.39-5.998 14.08-10.21 20.427-9.838 4.927.298 8.201 3.215 9.31 5.12 1.608 2.776.677 7.011-.722 10.129-4.949 10.991-13.76 31.732-13.76 31.732-.461 1.198-2.612 5.454-.908 5.603 3.282.29 4.92-3.081 7.152-3.661 1.087-.283 2.18.878 1.183 2.113-3.453 4.279-5.492 5.507-10.381 7.822-1.875.885-8.141 2.589-12.45-.878-3.066-2.464-3.632-7.219-2.769-10.471.856-3.26 15.509-37.477 15.152-39.524-.327-1.942-1.875-1.518-3.245-.878z"/><path d="m175.707 7.951c.402-2.128-.677-2.582-1.109-2.716-2.307-.752-7.099-.573-9.391-.662-5.775-.209-9.63.119-15.613.662-1.571.134-2.91 1.035-3.089 2.166-.468 2.961 6.452 2.508 5.47 9.555-.409 2.954-2.232 5.388-4.859 6.437-4.83 1.928-10.233-.804-11.855-5.805-1.801-5.529 1.25-10.559 6.02-13.797 4.063-2.753 9.414-3.579 13.165-3.691l85.432-.03c.781.038 2.485 1.385 1.897 3.223-1.443 4.457-4.286 11.267-7.367 17.205-.581 1.117-3.274 1.876-3.699.737-1.161-3.155 1.213-6.631-.855-9.86-4.733-7.368-16.417-5.775-23.658-5.805-1.957-.007-3.87 1.503-4.272 2.329-5.142 10.434-9.227 20.919-13.901 31.516-.498 1.124-1.012 3.208-.952 4.763.029.796.699 2.307 1.972 2.448 3.252.372 8.208.298 12.212-2.031 3.989-2.315 6.013-6.832 9.421-9.987.886-.834 2.783-.61 3.341.543.306.618.283 1.518.023 2.195-3.669 9.437-8.454 20.458-12.019 29.73-.841 2.173-3.311.715-3.75-.171-1.526-3.066.699-6.928-.112-10.232-1.302-5.299-7.725-4.763-11.937-4.182-3.14.439-5.008 3.095-6.281 5.797-3.661 7.762-13.819 28.896-13.871 33.079-.015 1.942 1.064 3.021 2.456 3.133 4.859.401 20.777.93 26.024-2.769 9.808-6.936 10.016-10.277 14.824-16.126.811-.983 2.597.104 3.326 1.064.499.64.447 1.526.194 2.195-1.392 3.639-5.388 13.567-7.866 18.367-.67 1.295-1.124 1.86-3.074 2.061l-79.285-.149c-2.5-.275-3.066-2.776-2.18-3.587 1.168-1.071 2.746-.707 4.204-.878 3.2-.357 6.646-.201 9.742-1.756 2.411-1.198 6.273-5.291 7.888-8.119l33.384-76.852z"/></g></g></svg>