<svg clip-rule="evenodd" fill-rule="evenodd" stroke-linejoin="round" stroke-miterlimit="2" viewBox="0 0 600 139" xmlns="http://www.w3.org/2000/svg"><g fill="#fff"><g fill-rule="nonzero"><path d="m37.078 79.734c0 19.802 11.115 24.472 29.796 24.472h33.439c20.83 0 24.94-8.967 24.94-20.362v-6.352h-20.736c0 8.407-2.803 9.341-12.143 9.341h-22.137c-9.808 0-11.863-3.736-11.863-13.544v-7.286c0-8.406 2.055-13.543 12.984-13.543h22.604c6.165 0 9.714 1.401 9.714 6.258v1.868h20.736c.187-19.148-3.643-25.5-33.159-25.5h-24.379c-18.681 0-29.796 4.67-29.796 24.472z"/><path d="m129.598 79.734c0 19.802 11.116 24.472 29.797 24.472h33.252c18.681 0 29.796-4.67 29.796-24.472v-20.176c0-19.802-11.115-24.472-29.796-24.472h-33.252c-18.681 0-29.797 4.67-29.797 24.472zm21.297-13.731c0-8.406 2.055-13.543 12.983-13.543h24.286c10.928 0 12.983 5.137 12.983 13.543v7.286c0 9.808-2.055 13.544-11.863 13.544h-26.527c-9.807 0-11.862-3.736-11.862-13.544z"/><path d="m226.764 103.459h67.346v-17.373h-46.61v-50.253h-20.736z"/><path d="m298.491 103.459h75.192v-16.253h-54.456v-10.835h50.439v-14.01h-50.439v-10.835h53.241v-15.693h-73.977z"/><path d="m377.583 79.734c0 19.802 11.115 24.472 29.796 24.472h33.44c20.829 0 24.939-8.967 24.939-20.362v-6.352h-20.736c0 8.407-2.802 9.341-12.143 9.341h-22.137c-9.808 0-11.862-3.736-11.862-13.544v-7.286c0-8.406 2.054-13.543 12.983-13.543h22.604c6.165 0 9.714 1.401 9.714 6.258v1.868h20.736c.187-19.148-3.643-25.5-33.159-25.5h-24.379c-18.681 0-29.796 4.67-29.796 24.472z"/><path d="m470.077 79.734c0 19.802 11.115 24.472 29.796 24.472h33.253c18.681 0 29.796-4.67 29.796-24.472v-20.176c0-19.802-11.115-24.472-29.796-24.472h-33.253c-18.681 0-29.796 4.67-29.796 24.472zm21.297-13.731c0-8.406 2.054-13.543 12.983-13.543h24.285c10.929 0 12.984 5.137 12.984 13.543v7.286c0 9.808-2.055 13.544-11.863 13.544h-26.527c-9.808 0-11.862-3.736-11.862-13.544z"/></g><path d="m0 35.087v69.12c0 19.074 13.066 34.559 32.275 34.559h535.45c19.209 0 32.275-15.485 32.275-34.559v-69.12c0-19.075-13.066-34.561-32.275-34.561h-535.45c-19.209 0-32.275 15.486-32.275 34.561zm15.097 0c0-10.472 6.632-19.464 17.178-19.464h535.45c10.546 0 17.178 8.992 17.178 19.464v69.12c0 10.471-6.633 19.462-17.178 19.462h-535.45c-10.545 0-17.178-8.991-17.178-19.462v-69.12z"/></g></svg>