<svg clip-rule="evenodd" fill-rule="evenodd" stroke-linejoin="round" stroke-miterlimit="2" viewBox="0 0 601 147" xmlns="http://www.w3.org/2000/svg"><g fill="#fff"><path d="m514.544 130.675c.019-.025.038-.05.056-.075l82.667-112.353c.026-.035.051-.07.075-.106 3.649-5.364 4.223-9.51 3.204-12.138-1.15-2.965-4.444-5.153-10.256-5.153l-478.132.316c-.057 0-.115.002-.173.005-2.228.111-4.184-.051-6.017.033-2.435.112-4.694.595-7.003 2.049-1.802 1.135-3.669 2.908-5.634 5.786-2.023 2.754-89.009 121.23-89.009 121.23-.007.009-.013.018-.019.027-4.167 5.788-3.789 9.899-2.169 12.387 1.649 2.533 5.244 4.029 9.486 4.029h478.128c3.152 0 5.814-.126 8.724-1.278 4.057-1.607 8.752-5.35 16.072-14.759zm-5.569-4.274c-6.071 7.799-9.718 11.172-13.087 12.505-2.043.809-3.927.786-6.14.786h-478.128c-1.016 0-1.978-.102-2.782-.38-.334-.116-.657-.207-.821-.459-.192-.294-.004-.681.169-1.197.313-.936.911-2.001 1.799-3.238.007-.009 89.046-121.281 89.046-121.281.025-.034.049-.069.073-.103 2.812-4.135 5.09-4.8 7.867-4.836 1.624-.022 3.354.079 5.283-.012-.007 0 478.036-.316 478.036-.316 1.145 0 2.121.091 2.913.322.338.099.635.178.814.377.091.101.012.25-.004.415-.032.322-.119.669-.244 1.045-.392 1.181-1.132 2.541-2.191 4.105-.005.007-82.603 112.267-82.603 112.267z"/><path d="m112.48 30.212-15.32 19.789h53.302l-41.495 53.302h45.964l34.153-44.366h-19.153s5.428-9.256 16.599-9.256h44.045l15.324-19.469z"/><path d="m253.238 30.212-56.492 72.77h45.96l25.855-32.554h30.32l-24.896 32.554h45.963l44.364-57.13s11.81-15.64-7.66-15.64h-26.172l-22.342 28.089h-51.707s3.829-8.94 15-8.94h13.405l14.685-19.149z"/><path d="m357.61 117.347h-259.494l8.301-10.532h259.491z"/><path d="m374.209 102.665h-26.175c-19.788 0-9.256-13.724-9.256-13.724l35.748-45.963c9.256-12.766 24.576-12.766 24.576-12.766h97.353c22.021 0 10.535 15.32 10.535 15.32l-39.582 51.386h-9.894c-10.852 0-15.641 9.897-15.641 9.897h51.389l-8.301 10.853h-122.562zm56.493-15.958c-2.234 2.875-6.701 5.106-10.211 5.106h-32.239c-3.189 0-4.147-2.551-1.913-5.426l27.451-35.428c2.233-3.193 6.701-5.107 9.893-5.107h32.557c3.509 0 4.468 2.234 1.913 5.107z"/></g></svg>