<svg clip-rule="evenodd" fill-rule="evenodd" stroke-linejoin="round" stroke-miterlimit="2" viewBox="0 0 601 368" xmlns="http://www.w3.org/2000/svg"><g fill="#fff"><path d="m598.962 347.498c-2.555-3.481-6.347-4.202-11.641-4.202l-12.673-.053c-4.99-.053-7.356-.402-8.418-.652-1.319-.364-1.418-.394-1.418-2.654 0-2.412 0-3.633 14.554-3.633 5.915 0 8.342.493 9.305.758 1.464.455 1.464.455 1.464 3.368h9.737c-.083-4.642-.675-7.44-3.746-9.723-3.072-2.283-7.523-3.17-16.548-3.17-3.36 0-8.608.19-11.603.546-4.202.463-6.826 1.069-9.298 3.034-1.707 1.296-3.724 3.89-3.724 8.789 0 10.694 8.009 12.21 15.858 12.21 17.534 0 17.89 0 19.354.463.561.174 1.016.349 1.016 2.791s-.993 2.753-1.699 2.904c-3.788.56-7.615.814-11.444.759-9.783 0-12.088-.455-13.052-.819-.189-.281-.295-1.388-.333-3.913l-9.579.045c-.06.721-.068 1.411-.068 1.517 0 4.376.758 7.538 4.619 9.859 2.73 1.57 6.287 2.055 15.167 2.055 11.687 0 17.216-.531 20.477-2.032 3.853-1.851 5.726-5.347 5.726-10.686 0-3.231-.668-5.597-2.078-7.478z"/><path d="m382.01 343.296-12.68-.045c-2.821.048-5.64-.173-8.419-.66-1.304-.364-1.418-.387-1.418-2.647s0-3.64 14.561-3.64c6.143 0 8.555.554 9.313.758 1.434.455 1.434.455 1.434 3.375l9.753-.038c-.069-4.634-.653-7.417-3.739-9.722-3.087-2.306-7.531-3.17-16.533-3.17-3.39 0-8.616.197-11.611.546-4.194.462-6.78 1.054-9.321 3.033-1.699 1.305-3.716 3.891-3.716 8.798 0 10.746 8.024 12.194 15.858 12.194 17.542 0 17.898 0 19.347.471.576.174 1.023.333 1.023 2.791 0 2.457-.993 2.745-1.706 2.897-1.911.424-6.719.758-11.444.758-9.768 0-12.066-.455-13.06-.819-.166-.303-.295-1.388-.318-3.913l-9.563-.228c-.076.758-.084 1.676-.084 1.797 0 4.369.759 7.539 4.611 9.86 2.791 1.592 6.196 2.055 15.229 2.055 11.664 0 17.192-.539 20.476-2.033 3.792-1.835 5.703-5.308 5.703-10.685 0-3.239-.667-5.62-2.085-7.471-2.541-3.496-6.348-4.209-11.626-4.209z"/><path d="m39.62 354.763c0 3.125 0 3.125-2.465 3.489-1.252.174-7.523.455-11.3.455-4.74 0-9.586-.152-11.877-.41-2.29-.258-2.419-.652-2.646-1.994-.198-1.563-.539-7.099-.539-9.996 0-7.425 1.054-8.623 1.092-8.676.584-.417 3.239-1.115 14.486-1.115 8.706 0 11.307.668 11.853.842.918.357 1.138.432 1.176 3.094v3.603h9.442l-.038-2.427c-.099-5.916-.266-8.1-2.731-10.428-2.995-2.874-7.174-3.671-19.498-3.671-3.033 0-8.001.107-10.367.266-5.475.311-8.342.758-10.799 2.586-3.716 2.829-4.414 8.418-4.414 17.761 0 9.344.955 13.614 3.678 16.109 3.231 2.972 8.001 3.428 22.691 3.428 11.512 0 15.85-.448 18.831-3.102 2.571-2.351 2.791-4.748 3.033-11.315l.099-2.488h-9.563z"/><path d="m182.379 351.396h30.184v-8.881h-30.184v-5.999h31.534v-8.88h-41.279v39.936h41.324v-8.865h-31.579z"/><path d="m462.983 351.396h30.207v-8.881h-30.207v-5.999h31.534v-8.88h-41.272v39.936h41.325v-8.865h-31.587z"/><path d="m400.158 336.516h18.732v31.056h9.761v-31.056h18.603v-8.88h-47.096z"/><path d="m252.886 355.597-18.952-27.961h-13.613v39.936h9.753v-28.659l19.566 28.659h6.538l19.217-28.454v28.454h9.746v-39.936h-13.659z"/><path d="m103.142 330.995c-3.177-2.988-7.97-3.488-20.81-3.488-3.269 0-9.76.159-12.051.265-4.922.311-7.584.758-10.162 2.571-3.883 2.852-4.596 7.993-4.596 17.102 0 6.067.25 9.419.895 11.846.982 3.809 4.074 6.729 7.933 7.493 2.957.599 9.199.879 19.619.879 12.279 0 16.617-.758 19.407-3.564 2.617-2.647 3.542-6.947 3.542-16.381 0-2.791-.182-6.447-.402-8.274-.387-3.679-1.107-6.378-3.375-8.449zm-6.59 7.584c.394 3.073.564 6.17.508 9.268.019 2.83-.166 5.659-.554 8.463-.25 1.176-.644 1.517-1.858 1.737-4.232.505-8.494.725-12.756.66-2.381 0-8.57-.152-10.534-.266-3.208-.204-4.634-.47-5.073-.887-.615-.667-.926-4.164-.926-10.443 0-7.758.842-9.184 1.1-9.45 1.327-1.145 10.087-1.145 12.976-1.145 9.389 0 12.18.091 14.918.493 1.987.288 2.093.933 2.199 1.57z"/><path d="m142.51 327.636h-28.113v39.936h28.5c10.618 0 14.19-.455 17.625-3.481 3.436-3.026 4.77-7.91 4.77-16.502 0-7.903-.606-12.521-3.928-15.881-3.549-3.549-7.41-4.072-18.854-4.072zm-18.36 8.88h18.254c4.05 0 5.605 0 6.659.084 3.397.227 4.224.857 4.702 1.372.478.516 1.691 2.571 1.691 9.397 0 10.071-2.472 10.617-3.792 10.928-1.797.402-1.82.41-8.987.41h-18.527z"/><path d="m313.057 327.636-23.988 39.936h11.209l4.429-7.417h27.416l4.414 7.417h11.087l-23.927-39.936zm-3.102 23.631 8.532-14.174 8.449 14.174z"/><path d="m547.096 333.195c-1.517-2.837-4.474-4.657-8.221-5.12-2.692-.341-2.874-.341-12.331-.439h-25.611v39.936h9.76v-13.537h15.866c7.88.046 7.88.046 9.495.296 1.433.189 1.79.811 1.926 1.911.197 1.289.182 1.335.182 5.574v5.756h9.768v-7.394c0-5.711-.121-7.864-2.275-10.064 2.389-1.972 2.943-5.051 2.943-9.495 0-3.215-.417-5.354-1.464-7.424zm-36.403 3.321h15.866c8.008 0 10.458.175 11.444.842.136.144.705 1.047.705 3.216.027 1.157-.13 2.311-.462 3.42-.448.758-2.731 1.16-7.197 1.16h-20.356z"/><path d="m312.1 1.01c-.094.044-.199.074-.294.131-.983.462-1.929 1-2.829 1.608h-.061c-.023.018-.049.033-.076.045-12.483 8.623-74.458 51.222-93.828 64.547-.841.568-1.651 1.181-2.426 1.835-1.722 1.187-3.318 2.546-4.763 4.058l-16.761 17.738-46.921 49.554c-1.775 1.931-2.676 4.512-2.488 7.129.174 2.747 1.371 5.332 3.352 7.242l13.303 12.946c2.864 2.955 7.305 3.793 11.049 2.085 2.397-.948 14.008-6.12 28.159-12.475l-33.854 38.154c-15.168 17.095-13.537 44.609 3.708 60.565l36.684 34.06c5.798 5.436 13.239 8.797 21.151 9.555.675.084 2.981.16 3.314.16h184.213c.821 0 1.575 0 2.267-.038.043-.002.087-.005.13-.008l-.13.008c-2.507.128-4.946-.883-6.628-2.753v.015l-13.544-14.114c-4.172-4.33-4.915-11.982-1.707-17.079 16.973-25.914 40.513-62.066 40.513-62.066v-.038l3.034-4.55c6.492-9.943 4.914-25.71-3.534-35.387l-10.974-12.582c-4.179-4.793-9.427-7.5-14.781-7.621-5.354-.122-10.307 2.419-13.727 7.174l-47.02 65.411c-1.596 2.354-4.212 3.822-7.053 3.959-2.952.074-5.792-1.149-7.766-3.345l-16.434-17.101c-4.664-4.869-5.309-12.938-1.517-17.944l49.644-64.797c3.618-4.717 5.248-11.11 4.603-18.019-.618-6.9-3.391-13.433-7.925-18.671l-12.134-13.879c-4.543-5.263-10.375-8.479-16.396-9.04-5.895-.648-11.736 1.709-15.532 6.264l-5.703 6.735-14.561 17.124-33.87 39.816c-4.171 4.914-11.679 4.702-16.738-.546l-16.586-17.269c-2.48-2.58-3.983-5.948-4.247-9.518-.32-3.299.724-6.59 2.89-9.1l55.81-61.293 19.559-21.493c2.677-2.952 5.872-5.389 9.425-7.192.019-.009.037-.018.055-.028l-.055.028zm71.927 254.958-16.609 24.905c-7.174 10.747-17.625 17.443-29.577 18.808-12.134 1.35-24.223-3.079-33.907-12.559l-45.671-44.798c-21.614-21.197-24.215-57.342-5.93-79.297l53.595-64.349 19.953-23.965c1.704-2.079 4.341-3.171 7.015-2.905 2.935.323 5.632 1.776 7.516 4.05l12.271 13.931c2.083 2.401 3.359 5.397 3.648 8.563.351 2.914-.41 5.857-2.131 8.236l-50.608 64.592c-8.638 11.027-7.182 29.001 3.261 39.747l16.685 17.155c4.907 5.035 11.035 7.584 17.253 7.25 6.219-.334 11.596-3.519 15.388-8.896l46.262-65.578c1.373-2.078 3.705-3.328 6.196-3.322 2.637.122 5.102 1.361 6.772 3.405l11.111 12.628c3.898 4.429 4.626 11.671 1.607 16.199l-43.986 66.048c-.025.057-.053.113-.084.167z"/></g></svg>