<svg clip-rule="evenodd" fill-rule="evenodd" stroke-linejoin="round" stroke-miterlimit="2" viewBox="0 0 600 85" xmlns="http://www.w3.org/2000/svg"><g fill="#fff"><path d="m53.601 82.769c-3.712 1.079-7.639 1.658-11.7 1.658-23.126 0-41.901-18.775-41.901-41.901s18.775-41.902 41.901-41.902c4.061 0 7.988.579 11.7 1.659v22.069c-3.372-2.177-7.389-3.441-11.7-3.441-11.929 0-21.615 9.685-21.615 21.615 0 11.929 9.686 21.615 21.615 21.615 4.311 0 8.328-1.265 11.7-3.442z"/><path d="m73.145 44.001h-19.544v16.712h36.256zm0-2.95 16.712-16.712h-36.256v16.712z"/><path d="m135.558 38.381h12.495c-1.039-11.716-4.429-14.574-21.86-14.574-19.793 0-24.222 3.118-24.222 17.691 0 14.586 4.169 17.975 22.651 17.975 19.522 0 23.431-2.61 23.431-14.845h-12.495c0 3.389-1.299 4.948-10.936 4.948-8.337 0-10.156-2.078-10.156-8.857 0-6.507 1.819-6.507 11.727-6.507 7.287 0 8.586.791 9.365 4.169z"/><path d="m292.191 23.807h-11.715v34.355h12.494v-17.703c0-5.196 3.118-7.027 9.366-7.027 6.519 0 8.337 2.091 8.337 8.858v15.872h12.755v-18.223c0-4.936 3.649-6.507 9.637-6.507 5.728 0 8.586 1.831 8.586 6.507v18.223h12.506v-20.301c0-10.145-6.247-14.845-17.703-14.845-9.896 0-13.286 3.389-14.845 7.558-2.61-4.428-6.247-7.558-16.144-7.558-9.117 0-11.455 3.13-13.274 8.857z"/><path d="m214.227 23.807h-11.716v34.355h12.495v-17.703c0-5.196 2.61-7.027 9.637-7.027 6.507 0 8.338 2.35 8.338 8.858v15.872h12.754v-18.223c0-4.936 3.898-6.507 9.885-6.507 5.728 0 8.338 1.571 8.338 6.507v18.223h12.495v-20.301c0-10.145-6.248-14.845-17.703-14.845-9.897 0-13.534 3.649-14.845 7.558-2.598-4.428-6.248-7.558-16.144-7.558-9.365 0-11.975 3.13-13.534 8.857z"/><path d="m524.782 23.807h-11.975v34.355h12.495v-17.963c0-4.676 2.869-7.027 8.078-7.027 5.208 0 6.507 1.559 6.767 5.988h11.715c0-11.715-1.559-16.144-14.054-16.144-7.546 0-10.156 1.571-13.026 7.298z"/><path d="m199.245 40.459c0-14.054-3.909-16.912-23.95-16.912-21.612 0-24.222 3.378-24.222 17.951 0 14.845 3.649 17.975 24.222 17.975 21.872 0 23.95-3.649 23.95-19.014zm-35.158.791c0-7.038 1.571-7.818 10.417-7.818 10.156 0 11.987.26 11.987 7.818 0 7.027-1.311 8.326-10.936 8.326-10.157 0-11.468-1.039-11.468-8.326z"/><path d="m406.11 40.459c0-14.054-4.157-16.912-24.21-16.912-21.612 0-24.21 3.638-24.21 18.211 0 14.585 3.637 17.715 24.21 17.715 21.872 0 24.21-3.649 24.21-19.014zm-35.665.791c0-7.038 1.57-7.818 10.676-7.818 10.156 0 11.975.26 11.975 7.818 0 7.027-1.299 8.326-10.936 8.326-10.416 0-11.715-1.039-11.715-8.326z"/><path d="m509.515 40.459c0-14.054-3.897-16.912-23.938-16.912-21.352 0-23.951 3.378-23.951 17.951 0 14.845 3.638 17.975 23.951 17.975 21.86 0 23.938-3.649 23.938-19.014zm-35.394.791c0-7.038 1.559-7.818 10.676-7.818 10.145 0 11.975.26 11.975 7.818 0 7.027-1.31 8.326-10.935 8.326-10.417 0-11.716-1.039-11.716-8.326z"/><path d="m445.061 9.222v20.041c-2.858-3.897-5.468-5.975-15.885-5.975-16.663 0-19.781 4.428-19.781 17.962 0 13.794 4.417 17.692 20.561 17.692 10.156 0 13.274-2.599 15.624-7.027v6.247h12.495v-48.94zm-9.118 23.95c7.027 0 9.377 1.04 9.377 6.508 0 8.337-.519 9.117-10.416 9.117-9.885 0-12.495-.26-12.495-7.299 0-8.066 3.13-8.326 13.534-8.326z"/><path d="m580.986 51.395c-11.975 0-13.794-1.039-13.794-7.027h32.808c-.52-16.652-.52-20.561-22.651-20.561-18.754 0-22.923 3.378-22.923 18.223 0 13.794 5.48 17.171 20.573 17.443 16.923 0 25.001-.791 25.001-11.975h-12.235c-.531 2.598-1.571 3.897-6.779 3.897zm-14.054-14.314c.52-3.649 1.559-4.948 9.885-4.948 9.129 0 10.417.52 10.948 4.948z"/></g></svg>