<svg clip-rule="evenodd" fill-rule="evenodd" stroke-linejoin="round" stroke-miterlimit="2" viewBox="0 0 600 478" xmlns="http://www.w3.org/2000/svg"><g fill="#fff"><path d="m42.915 437.976 7.343-18.176h37.897l-4.627 11.546-8.825 21.539c-3.679 9.137-5.668 11.889-11.237 16.127-6.713 5.238-11.072 6.775-20.205 6.775h-24.447c-3.464 0-6.224-.14-8.453-.52-7.144-1.256-11.569-7.37-10.069-13.872.315-1.248 1.773-5.106 4.251-11.113l17.163-42.326c4.707-11.394 7.284-14.765 14.975-18.763 5.693-2.983 8.155-3.47 18.539-3.47h40.326l-7.824 19.49h-39.53c-2.42.107-4.508 1.603-5.312 3.718l-1.359 2.883-15.232 37.592c-.696 1.744-1.218 2.991-1.326 3.38-.414 1.875.945 3.61 3.174 3.61h16.831c4.708 0 7.5-1.248 8.545-3.999l.977-2.363 4.914-12.058z"/><path d="m136.585 396.94c5.801-7.75 13.574-12.129 21.63-12.129 8.428 0 12.646 4.28 12.074 12.129l-4.624 78.844h-22.376l1.152-19.391h-30.356l-14.602 19.391h-22.376zm-8.594 41.103h17.428l1.774-29.115z"/><path d="m488.461 350.035c-2.669 7.436-12.257 13.483-21.414 13.483h-413.461c-9.174 0-14.436-6.047-11.817-13.483l127.176-336.084c2.685-7.436 12.265-13.483 21.431-13.483h397.118c9.149 0 14.461 6.047 11.834 13.483zm26.12-185.665h-92.154l-84.448 61.924 19.973-61.924h-147.448c6.431-6.601 15.846-10.633 31.948-13.409l67.558-11.922c26.925-4.759 65.734-18.202 76.45-51.564 15.721-49.093-35.32-59.239-93.19-59.239-44.926 0-105.68 8.089-130.392 68.583h76.16c9.372-22.786 29.444-24.563 48.72-24.563 16.525 0 27.655 4.065 24.398 14.145-2.353 7.362-8.643 11.914-18.074 13.69l-55.608 11.154c-45.066 9.105-94.558 29.57-117.489 97.153h153.249l-42.158 131.417h69.522l15.108-47.152 29.378-20.184 26.47 67.336h92.395l-50.743-107.622z"/><path d="m206.762 401.564c4.185-10.352 14.147-16.986 26.039-16.986 9.265 0 14.163 4.511 12.911 11.74l-8.801 52.084 35.022-52.084c4.865-7.229 13.384-11.74 22.086-11.74 10.923 0 15.696 4.998 13.591 14.136-.224.868-.472 1.983-.82 2.85l-30.216 74.218h-20.428l26.279-64.452-37.782 54.307c-5.61 8.096-11.917 12.128-19.127 12.128-6.87 0-10.11-4.032-9.033-12.128l6.68-54.307-26.18 64.452h-20.478z"/><path d="m319.823 475.783c-13.683 0-19.724-4.9-17.495-14.525.315-1.495.763-2.743 1.392-4.238l21.125-51.704c4.947-12.369 15.613-19.598 28.632-19.598h44.312l-7.806 19.49h-38.702c-.961 0-1.898.356-2.983.835-2.022 1.008-3.382 2.784-4.409 4.899l-3.995 9.865h43.674l-7.98 19.498h-43.533l-4.078 9.973c-.273.487-.397 1.115-.555 1.735-.696 3.024.381 4.379 3.522 4.379h38.163l-7.981 19.391z"/><path d="m386.778 456.392h34.674c5.411 0 8.246-1.595 9.696-5.247l2.718-6.494.274-1.115c.389-1.735-.904-3.23-3.133-3.23h-17.851c-9.928 0-15.646-6.255-13.624-15.013.24-1.007.539-1.735.903-2.743l7.724-18.969c2.213-5.874 8.072-12.129 13.715-15.012 3.589-1.744 8.536-2.851 13.94-2.851h43.392l-7.997 19.49h-34.542c-5.386 0-8.312 1.215-9.605 4.346l-2.502 6.114-.266 1.149c-.663 2.85.746 3.99 5.296 3.99h15.34c11.204 0 15.911 5.255 13.682 14.88-.265 1.107-.613 1.975-.961 2.95l-7.393 18.143c-4.79 11.741-15.87 19.003-29.154 19.003h-42.257z"/></g></svg>