<svg clip-rule="evenodd" fill-rule="evenodd" stroke-linejoin="round" stroke-miterlimit="2" viewBox="0 0 600 586" xmlns="http://www.w3.org/2000/svg"><path d="m37.188 585.916h525.624c20.571 0 37.188-16.664 37.188-37.204v-510.628c0-20.539-16.617-37.203-37.188-37.203h-525.624c-20.524 0-37.188 16.664-37.188 37.203v510.628c0 20.54 16.664 37.204 37.188 37.204zm260.788-213.686 37.821 123.704h48.509l-65.975-189.864h-46.1l-66.114 189.864h107.642v-41.25h-46.083l26.177-82.16 2.192-8.247zm-79.516 31.608c0 66.778-47.875 92.043-83.071 92.043h-78.346v-189.864h78.855c29.698 0 82.562 14.409 82.562 97.821zm216.502 91.985h-45.512v-189.477h45.512zm-261.937-93.995c0-39.752-18.749-55.875-54.671-55.875h-16.663v109.372h29.821c16.062 0 41.513-6.116 41.513-53.497zm34.505-192.235c2.039 8.016 1.575 17.174 1.575 17.174s1.205 10.98-5.513 23.891c-8.324 16.015-20.818 22.131-20.818 22.131s-7.073 4.172-17.775 6.208c-11.444 2.224-26.069 2.224-26.069 2.224h-81.882v-190.343h98.978s14.162.351 24.586 5.251c10.517 4.988 17.251 14.517 17.251 14.517s7.953 10.749 8.818 28.695c.741 14.161-6.919 26.439-6.919 26.439s-2.563 5.621-7.475 9.636c-4.787 3.862-11.891 6.163-11.891 6.163s10.764 2.04 18.239 11.567c5.065 6.455 6.888 8.525 8.895 16.447zm335.569-118.718v190.343h-46.285l-58.253-99.272-3.521-7.366v106.236h-45.59v-189.941h46.362l59.072 102.855 2.919 5.976v-108.831zm-245.123 66.254 37.821 123.703h48.509l-65.975-189.864h-46.1l-66.114 189.864h107.642v-41.25h-46.083l26.177-82.16 2.192-8.247zm-162.475 83.244c12.216 0 27.351-4.094 27.351-19.305 0-17.127-16.37-19.876-26.517-19.876h-19.32v-35.659h17.513c15.707 0 23.475-4.85 23.475-18.641 0-13.822-9.776-18.161-23.475-18.161l-5.451-.044-27.644.031v111.673z" fill="#fff"/></svg>