<svg clip-rule="evenodd" fill-rule="evenodd" stroke-linejoin="round" stroke-miterlimit="2" viewBox="0 0 576 546" xmlns="http://www.w3.org/2000/svg"><path d="m575.244 514.684c0 8.553-3.449 16.237-9.052 21.85-5.603 5.593-13.297 9.031-21.829 9.031h-512.726c-8.543 0-16.226-3.438-21.829-9.031-5.603-5.613-9.031-13.297-9.052-21.85v-483.68c.021-8.543 3.449-16.216 9.052-21.829 5.603-5.593 13.286-9.031 21.829-9.042h512.726c8.532.011 16.226 3.449 21.829 9.042 5.603 5.613 9.052 13.286 9.052 21.829zm-408.467-160.762h-69.796c-5.475 0-9.869 4.446-9.869 9.922 0 0 .021 0 .021.064h-.021v49.802h.021l-.021.043c0 5.455 4.394 9.944 9.869 9.944h69.796v33.226h-87.093v-.085c-14.252 0-25.777-11.525-25.777-25.734v-84.685c0-14.135 11.525-25.66 25.777-25.66h87.093zm355.293 102.916h-33.195v-102.916h-23.325c-5.487 0-9.88 4.446-9.88 9.922v92.994h-33.195v-102.916h-23.336c-5.497 0-9.891 4.446-9.891 9.922v93.079h-33.184v-110.504c0-14.135 11.493-25.66 25.745-25.66h140.261zm-218.322-136.084h-84.642c-14.252 0-25.756 11.525-25.756 25.661v84.685c0 14.209 11.504 25.734 25.756 25.734h84.642c14.199 0 25.724-11.525 25.724-25.734v-84.685c0-14.136-11.525-25.661-25.724-25.661zm-7.46 43.086v49.866c0 5.476-4.393 9.944-9.848 9.944-.053 0-.064-.053-.117-.053v.053h-49.792v-.053s-.053.053-.106.053c-5.476 0-9.869-4.468-9.869-9.944v-49.866c0-5.476 4.393-9.923 9.869-9.923h50.015c5.455 0 9.848 4.447 9.848 9.923zm-104.312-102.399c0 14.486-11.705 26.138-26.127 26.138h-112.022v-33.673h94.448c5.561 0 10.018-4.542 10.018-10.07v-111.301c0-5.55-4.457-10.049-10.018-10.049h-50.758c-5.55 0-10.018 4.499-10.018 10.049v50.652c0 5.561 4.468 10.071 10.018 10.071h40.549v33.672h-58.122c-14.454 0-26.117-11.673-26.117-26.116v-85.895c0-14.432 11.663-26.127 26.117-26.127h85.905c14.422 0 26.127 11.695 26.127 26.127zm330.187 0c0 14.486-11.715 26.138-26.116 26.138h-112.033v-33.673h94.449c5.582 0 10.06-4.542 10.06-10.07v-111.301c0-5.55-4.478-10.049-10.06-10.049h-50.748c-5.497 0-9.986 4.499-9.986 10.049v50.652c0 5.561 4.489 10.071 9.986 10.071h40.528v33.672h-58.091c-14.454 0-26.138-11.673-26.138-26.116v-85.895c0-14.432 11.684-26.127 26.138-26.127h85.895c14.401 0 26.116 11.695 26.116 26.127zm-191.199-172.645h-85.937c-14.432 0-26.095 11.695-26.095 26.127v85.895c0 14.433 11.663 26.117 26.095 26.117h85.937c14.39 0 26.106-11.684 26.106-26.117v-85.895c0-14.432-11.716-26.127-26.106-26.127zm-7.651 43.733v50.652c0 5.561-4.362 10.081-9.933 10.081h-50.737c-5.571 0-10.028-4.52-10.028-10.081v-50.652c0-5.55 4.457-10.039 10.028-10.039h50.737c5.571 0 9.933 4.489 9.933 10.039z" fill="#fff"/></svg>