<?xml version="1.0" encoding="UTF-8" standalone="no"?><!DOCTYPE svg PUBLIC "-//W3C//DTD SVG 1.1//EN" "http://www.w3.org/Graphics/SVG/1.1/DTD/svg11.dtd"><svg width="100%" height="100%" viewBox="0 0 576 546" version="1.1" xmlns="http://www.w3.org/2000/svg" xmlns:xlink="http://www.w3.org/1999/xlink" xml:space="preserve" xmlns:serif="http://www.serif.com/" style="fill-rule:evenodd;clip-rule:evenodd;stroke-linejoin:round;stroke-miterlimit:2;"><path id="publsher_gog_reverse" d="M575.244,514.684c0,8.553 -3.449,16.237 -9.052,21.85c-5.603,5.593 -13.297,9.031 -21.829,9.031l-512.726,0c-8.543,0 -16.226,-3.438 -21.829,-9.031c-5.603,-5.613 -9.031,-13.297 -9.052,-21.85l-0,-483.68c0.021,-8.543 3.449,-16.216 9.052,-21.829c5.603,-5.593 13.286,-9.031 21.829,-9.042l512.726,-0c8.532,0.011 16.226,3.449 21.829,9.042c5.603,5.613 9.052,13.286 9.052,21.829l0,483.68Zm-408.467,-160.762l-69.796,-0c-5.475,-0 -9.869,4.446 -9.869,9.922c0,0 0.021,0 0.021,0.064l-0.021,-0l0,49.802l0.021,0l-0.021,0.043c0,5.455 4.394,9.944 9.869,9.944l69.796,-0l0,33.226l-87.093,0l-0,-0.085c-14.252,0 -25.777,-11.525 -25.777,-25.734l-0,-84.685c-0,-14.135 11.525,-25.66 25.777,-25.66l87.093,-0l0,33.163Zm355.293,102.916l-33.195,0l0,-102.916l-23.325,-0c-5.487,-0 -9.88,4.446 -9.88,9.922l-0,92.994l-33.195,0l-0,-102.916l-23.336,-0c-5.497,-0 -9.891,4.446 -9.891,9.922l0,93.079l-33.184,0l0,-110.504c0,-14.135 11.493,-25.66 25.745,-25.66l140.261,-0l-0,136.079Zm-218.322,-136.084l-84.642,0c-14.252,0 -25.756,11.525 -25.756,25.661l0,84.685c0,14.209 11.504,25.734 25.756,25.734l84.642,-0c14.199,-0 25.724,-11.525 25.724,-25.734l0,-84.685c0,-14.136 -11.525,-25.661 -25.724,-25.661Zm-7.46,43.086l0,49.866c0,5.476 -4.393,9.944 -9.848,9.944c-0.053,-0 -0.064,-0.053 -0.117,-0.053l0,0.053l-49.792,-0l0,-0.053c0,-0 -0.053,0.053 -0.106,0.053c-5.476,-0 -9.869,-4.468 -9.869,-9.944l-0,-49.866c-0,-5.476 4.393,-9.923 9.869,-9.923l50.015,0c5.455,0 9.848,4.447 9.848,9.923Zm-104.312,-102.399c0,14.486 -11.705,26.138 -26.127,26.138l-112.022,-0l0,-33.673l94.448,0c5.561,0 10.018,-4.542 10.018,-10.07l0,-111.301c0,-5.55 -4.457,-10.049 -10.018,-10.049l-50.758,-0c-5.55,-0 -10.018,4.499 -10.018,10.049l0,50.652c0,5.561 4.468,10.071 10.018,10.071l40.549,0l0,33.672l-58.122,0c-14.454,0 -26.117,-11.673 -26.117,-26.116l0,-85.895c0,-14.432 11.663,-26.127 26.117,-26.127l85.905,0c14.422,0 26.127,11.695 26.127,26.127l0,146.522Zm330.187,0c0,14.486 -11.715,26.138 -26.116,26.138l-112.033,-0l0,-33.673l94.449,0c5.582,0 10.06,-4.542 10.06,-10.07l-0,-111.301c-0,-5.55 -4.478,-10.049 -10.06,-10.049l-50.748,-0c-5.497,-0 -9.986,4.499 -9.986,10.049l0,50.652c0,5.561 4.489,10.071 9.986,10.071l40.528,0l0,33.672l-58.091,0c-14.454,0 -26.138,-11.673 -26.138,-26.116l0,-85.895c0,-14.432 11.684,-26.127 26.138,-26.127l85.895,0c14.401,0 26.116,11.695 26.116,26.127l0,146.522Zm-191.199,-172.645l-85.937,0c-14.432,0 -26.095,11.695 -26.095,26.127l-0,85.895c-0,14.433 11.663,26.117 26.095,26.117l85.937,-0c14.39,-0 26.106,-11.684 26.106,-26.117l0,-85.895c0,-14.432 -11.716,-26.127 -26.106,-26.127Zm-7.651,43.733l-0,50.652c-0,5.561 -4.362,10.081 -9.933,10.081l-50.737,0c-5.571,0 -10.028,-4.52 -10.028,-10.081l-0,-50.652c-0,-5.55 4.457,-10.039 10.028,-10.039l50.737,-0c5.571,-0 9.933,4.489 9.933,10.039Z" style="fill:#fff;"/></svg>