<svg clip-rule="evenodd" fill-rule="evenodd" stroke-linejoin="round" stroke-miterlimit="2" viewBox="0 0 601 126" xmlns="http://www.w3.org/2000/svg"><g fill="#fff" fill-rule="nonzero"><path d="m115.284 100.47h-69.532l15.939-24.921h43.197l15.776-24.83h-96.374l-15.704 24.83h23.13l-31.497 49.77h129.465l49.174-78.078 17.786 28.272h-15.341l-15.685 24.957h46.783l15.74 24.849h29.848l-79.131-125.275zm-59.624-99.503-15.649 24.831 102.224-.037 15.667-24.794z"/><path d="m318.353 81.957c0 3.967-1.383 7.413-4.126 10.178-2.789 2.766-6.189 4.172-10.134 4.172h-16.798c-4.036 0-7.413-1.361-10.111-4.036-2.653-2.674-4.013-5.984-4.013-10.065v-6.664h10.36l1.587 6.166c.68 2.584 2.426 3.876 5.26 3.876h11.426c1.451 0 2.584-.544 3.491-1.541.861-1.066 1.292-2.426 1.292-3.99v-7.345c0-3.582-1.564-5.441-4.783-5.441h-14.373c-3.9 0-7.255-1.36-10.089-4.103-2.743-2.856-4.171-6.257-4.171-10.246v-9.657c0-3.877 1.428-7.232 4.171-10.043 2.834-2.811 6.189-4.171 10.089-4.171h16.662c3.945 0 7.3 1.337 10.021 3.967 2.743 2.675 4.035 6.03 4.035 10.065v6.03h-10.292l-1.542-5.463c-.816-2.63-2.607-3.899-5.237-3.899h-11.244c-1.496 0-2.653.544-3.537 1.609-.907 1.02-1.315 2.335-1.315 3.967v5.668c0 3.513 1.61 5.282 4.852 5.282h14.259c3.9 0 7.3 1.405 10.043 4.262 2.834 2.833 4.217 6.143 4.217 10.042z"/><path d="m377.121 57.345c0 3.922-1.451 7.299-4.239 10.088-2.834 2.811-6.257 4.216-10.179 4.216h-18.499v24.664h-11.902v-67.259h30.401c3.922 0 7.345 1.405 10.179 4.171 2.788 2.765 4.239 6.12 4.239 9.997zm-16.753-17.433h-16.164v20.856h16.164l3.445-1.564c.885-1.043 1.315-2.335 1.315-3.99v-9.793c0-1.632-.43-2.879-1.315-3.945z"/><path d="m482.655 96.316-10.927-26.297h-11.289v26.297h-11.925v-67.26h29.766c3.99 0 7.345 1.405 10.111 4.148 2.766 2.811 4.194 6.189 4.194 10.02v11.72c0 3.061-.862 5.826-2.516 8.252-1.746 2.448-3.922 4.194-6.598 5.304l11.834 27.816zm-6.619-56.401h-15.597v19.223h15.597l3.287-1.496c.907-1.02 1.315-2.312 1.315-3.945v-8.296c0-1.565-.408-2.857-1.315-3.945z"/><path d="m546.32 39.901h-17.252v56.401h-11.879v-56.401h-17.139v-10.836h46.27z"/><path d="m600.219 81.957c0 3.967-1.406 7.413-4.126 10.178-2.834 2.766-6.212 4.172-10.202 4.172h-16.799c-3.99 0-7.345-1.361-10.088-4.036-2.652-2.674-4.035-5.984-4.035-10.065v-6.664h10.383l1.541 6.166c.726 2.584 2.494 3.876 5.305 3.876h11.426c1.428 0 2.607-.544 3.514-1.541.861-1.066 1.224-2.426 1.224-3.99v-7.345c0-3.582-1.541-5.441-4.738-5.441h-14.328c-3.944 0-7.345-1.36-10.11-4.103-2.766-2.856-4.217-6.257-4.217-10.246v-9.657c0-3.877 1.451-7.232 4.217-10.043 2.765-2.811 6.166-4.171 10.11-4.171h16.595c3.99 0 7.323 1.337 10.043 3.967 2.698 2.675 4.081 6.03 4.081 10.065v6.03h-10.315l-1.587-5.463c-.816-2.63-2.562-3.899-5.214-3.899h-11.29c-1.451 0-2.675.544-3.491 1.609-.907 1.02-1.315 2.335-1.315 3.967v5.668c0 3.513 1.609 5.282 4.806 5.282h14.282c3.945 0 7.277 1.405 10.043 4.262 2.879 2.833 4.285 6.143 4.285 10.042z"/><path d="m417.39 39.901h-11.426l-3.491 1.564c-.816 1.066-1.27 2.358-1.27 3.967v34.458c0 1.586.454 2.856 1.27 3.921l3.491 1.678h11.426l3.446-1.678c.907-1.065 1.36-2.335 1.36-3.921v-34.458c0-1.609-.453-2.901-1.36-3.967zm16.663 41.961c0 4.08-1.383 7.481-4.172 10.269-2.856 2.743-6.166 4.171-10.201 4.171h-16.074c-3.967 0-7.413-1.428-10.156-4.171-2.766-2.788-4.217-6.189-4.217-10.269v-38.674c0-3.808 1.451-7.209 4.217-9.974 2.743-2.789 6.189-4.149 10.156-4.149h16.074c4.035 0 7.345 1.36 10.201 4.103 2.789 2.721 4.172 6.144 4.172 10.02z"/></g></svg>