<svg clip-rule="evenodd" fill-rule="evenodd" stroke-linejoin="round" stroke-miterlimit="2" viewBox="0 0 600 91" xmlns="http://www.w3.org/2000/svg"><g fill="#fff"><path d="m550.581 23.081v-22.484h49.419v17.936h-29.935v17.935h29.935v17.935h-29.935v17.936h29.935v17.935h-49.419v-14.214c-6.298 15.5-21.775 14.214-26.968 14.214-5.502 0-27.601.849-28.731-26.69-5.968 26.69-25.338 26.69-30.882 26.69h-.322c-7.03-.01-31.162-.696-31.162-44.645 0-.581.004-1.154.012-1.721-5.094 13.958-13.431 14.366-13.431 14.366l21.806 32h-27.484l-16.774-29.935v29.935h-19.742v-49.263c-6.844 17.194-22.193 18.683-22.193 18.683h-14.065v30.58h-19.742v-89.677h33.807s15.349 2.14 22.193 19.136v-19.136h34.065s18.457 2.573 23.708 24.485c6.027-24.485 23.005-24.485 29.324-24.485 6.568 0 24.908 0 30.798 26.17 2.26-26.398 21.532-26.17 28.815-26.17 6.183 0 21.003 1.423 26.968 22.484zm-54.038 17.684c7.919 16.174 37.005 11.296 37.005 25.122-.451 7.226-8.838 8.194-8.838 8.194-5.484-.323-10.645-2-10.645-13.226h-18.638c.779-4.388 1.218-9.431 1.218-15.226 0-1.684-.034-3.305-.102-4.864zm-32.543 31.574c-2.71 0-11.613 0-11.613-26.71 0-27.096 7.742-27.096 11.613-27.096s13.161 0 13.161 27.096c0 26.71-10.451 26.71-13.161 26.71zm86.581-40.258v17.106c-9.078-15.004-37.78-12.062-36.258-23.042-.258-7.612 7.096-8.516 9.419-8.516 6.258.387 9.806 2.968 9.806 14.452zm-201.033 9.677h-8.903v-23.225h8.903s10.839 2.967 10.581 11.741c.258 8.904-10.581 11.484-10.581 11.484zm56.129 0h-9.032v-23.225h9.032s10.71 2.967 10.452 11.741c.258 8.904-10.452 11.484-10.452 11.484z"/><g fill-rule="nonzero"><path d="m82.065 80.855v9.419h19.483v-9.419zm-14.968 0-4.516 9.419h-19.742v-9.419zm-41.936 0-5.677 9.419h-19.484l4.258-9.419zm56.904-13.419v10.193h19.483v-10.193zm-76 10.193 4.774-10.193h22.193l-6.322 10.193zm36.774 0v-10.193h31.226l-5.162 10.193zm39.226-13.548v-13.419l-6.581 13.419h-32.645v-13.419l-8 13.419h-22.581l6.968-14.065h82.322v14.065zm-19.484-37.032v15.871l7.613-15.871h31.354v19.742h-80.903l9.678-19.742zm9.032-3.226 10.452-23.226h19.483v23.226zm-39.871 0 11.097-23.226h19.742v23.226z"/><path d="m180.645 80.855c-8.387 9.807-20 9.419-24.516 9.419-3.871 0-14.064-.516-22.194-9.419zm7.226 0v9.419h19.484v-9.419zm57.806 0 5.936 9.419h-27.226l-5.419-9.419zm53.291 0c-7.226 9.161-19.097 9.419-23.613 9.419-3.871 0-14.452-.516-21.936-9.419zm-193.549 0v9.419h19.871v-9.419zm145.678-3.226c-1.807-2.838-3.613-5.806-4.774-10.193-.388-.387 20.258 0 20.258 0 2.193 4.903 6.967 4.903 8.774 4.903 1.419 0 5.419-.258 8.645-4.903h21.032c-.903 3.484-2.193 7.613-3.613 10.193zm-63.226-10.193v10.193h19.484v-10.193zm29.29 10.193-5.935-10.193h24.903l7.097 10.193zm-70.322-10.193c1.161 4.903 7.484 4.903 9.29 4.903 4.516.903 8.387 0 10.71-4.903h20.387c-1.161 4-2.71 7.613-3.871 10.193h-51.484c-2.194-2.838-3.355-5.806-4.774-10.193zm-41.42 0v10.193h19.871v-10.193zm82.452-13.033v-4.387h53.032c-4.774 8-10.838 8.258-10.838 8.258l3.87 5.807h-24.516l-2.064-3.742v3.742h-39.226c.903-2.581 1.419-4.903 2.065-9.678zm57.806 9.678c-.903-4-1.548-8.774-1.548-14.065h19.484c0 5.549.903 10.839 1.806 14.065zm40.129 0c1.549-3.226 2.71-7.613 2.968-14.065h18.839c-.258 5.291-.903 10.581-1.419 14.065zm-180.387-14.065h38.065c0 5.549 1.29 10.839 2.193 14.065h-19.871c-.201-.894-.371-1.827-.516-2.796v2.796h-19.871zm61.807-22.967h40.129v14.709h9.29s10.71-2.58 10.452-11.484c0-1.161-.258-2.322-.645-3.225h38.967c-1.161 3.871-2.064 10.322-2.064 19.742h-19.226l-.258-1.162c0-.69.012-1.403.035-2.132-.435 1.171-.954 2.274-1.583 3.294h-54.452v-10.323h-19.484c-.258-3.871-.645-7.097-1.161-9.419zm121.032 19.742v-1.162c0-8.903-.903-14.709-2.452-18.58 0 0 20.646 0 20.388 0 .903 5.032 1.806 12.387 1.806 19.742zm-162.968-17.333c.165-.831.337-1.634.516-2.409h20.129c-1.548 3.871-2.451 10.322-2.451 19.742h-38.065v-19.742h19.871zm82.065-5.635h-41.032c-3.613-5.29-6.065-4.645-10.194-5.29-1.806 0-6.064.645-9.032 5.29h-20.645c5.032-23.226 23.354-23.226 29.677-23.226 6.383 0 25.757.243 31.742 21.22v-21.22h33.806s17.678 2.968 23.742 23.226h-20.387c-3.097-4.129-8.387-5.29-8.387-5.29h-9.29zm77.29 0c-3.097-5.032-7.226-5.29-9.29-5.29-2.194 0-6.323 0-8.774 5.29h-20.258c5.29-23.226 22.451-23.226 29.032-23.226 6.193 0 22.968 0 29.935 23.226zm-179.226-23.226v23.226h19.871v-23.226z"/></g></g></svg>