<svg clip-rule="evenodd" fill-rule="evenodd" stroke-linejoin="round" stroke-miterlimit="2" viewBox="0 0 600 469" xmlns="http://www.w3.org/2000/svg"><g fill="#fff"><path d="m343.38 404.817c6.501-4.736 14.892-4.779 22.588-4.921 20.024-.043 40.042-.01 60.066-.016v39.364c-.043 6.523.413 13.496-2.781 19.443-3.492 6.159-10.829 8.798-17.531 9.499-8.863.841-17.792.244-26.682.418-8.809-.212-17.738.657-26.443-1.043-5.35-1.102-10.933-3.514-13.909-8.342-2.781-4.573-3.4-10.091-3.411-15.337.027-7.424-.06-14.848.049-22.267.201-6.354 2.455-13.23 8.054-16.798zm-103.205 20.073c-.016-8.342-.054-16.684.017-25.026 19.72.027 39.439.011 59.154.011 6.36.038 13.534.011 18.672 4.344 4.366 3.867 4.431 10.184 4.317 15.56-6.322.038-12.643.082-18.959-.103.277-1.77-.777-3.726-2.721-3.736-13.279-.125-26.569-.017-39.847-.049.157 2.737-.712 6.099 1.531 8.217 2.314 1.863 5.48 1.901 8.309 2.091 12.41.032 24.831-.006 37.241.027 5.241-.006 11.323 1.146 14.462 5.795 3.069 4.659 2.249 10.503 2.368 15.777.011 4.817.478 10.188-2.628 14.267-3.84 5.165-10.77 6.577-16.858 6.555-16.554-.022-33.102-.005-49.655-.005-5.008-.044-10.574-1.516-13.562-5.866-2.987-4.242-2.52-9.651-2.487-14.56 6.403.021 12.817-.011 19.22.021-.336 1.934.419 4.345 2.743 4.399 11.736.098 23.494.033 35.236.033 2.292-.212 5.306-.13 6.675-2.352.956-2.395.494-5.05.521-7.559-13.718.054-27.432 0-41.145.027-5.355.049-11.155-.125-15.679-3.367-4.638-3.226-6.86-8.994-6.925-14.501zm-240.174-25.01c6.957-.005 13.925 0 20.888-.005.022 13.344-.016 26.693.016 40.042.141 2.873.511 6.007 2.466 8.277 2.085 2.281 5.382 2.743 8.326 2.862 7.375.017 14.756.017 22.131.006 2.932-.109 6.224-.581 8.331-2.824 1.977-2.276 2.373-5.442 2.482-8.342 0-13.339-.006-26.677.005-40.021 6.995.005 13.996.005 20.986 0 .125 22.908-.201 45.821-.098 68.729-19.47.011-38.946-.006-58.416.011-7.055-.104-14.696-1.173-20.236-5.931-4.98-4.323-6.767-11.172-6.875-17.537-.011-15.087-.006-30.18-.006-45.267zm102.293.011c19.562-.027 39.13-.011 58.692-.005 6.713.152 13.893.249 19.829 3.807 4.35 2.59 6.104 7.88 6.202 12.714.054 3.839.065 7.891-1.656 11.426-1.646 2.928-4.84 4.666-8.011 5.415 3.774.771 7.886 2.21 9.906 5.768 2.547 4.589 2.406 10.101 1.977 15.179-.511 4.019-1.896 8.364-5.399 10.759-4.002 2.71-8.966 3.487-13.707 3.644-22.61.017-45.219.017-67.828.006-.011-22.903-.005-45.805-.005-68.713zm418.136-.005c26.519-.011 53.044-.011 79.564 0 .011 5.816.005 11.644 0 17.466-9.781.005-19.552 0-29.333.005v51.247c-6.968.011-13.936 0-20.893 0v-51.247c-9.781-.005-19.557 0-29.338-.005-.011-5.822-.006-11.65 0-17.466zm-317.647 0c6.984-.022 13.974-.011 20.964-.006.005 22.913.01 45.816 0 68.724-6.995 0-13.98.011-20.964 0-.011-22.903-.011-45.811 0-68.718zm238.968 0c23.669-.011 47.337-.022 71.016 0 0 5.838.005 11.676-.011 17.514-16.678 0-33.357-.01-50.041.006.011 3.796 0 7.603.011 11.41 15.918.017 31.836 0 47.754.006-.005 5.865.011 11.72-.005 17.585-15.924.006-31.831 0-47.749.006-.016 7.397.011 14.794-.016 22.191-6.985 0-13.969.011-20.959 0-.005-22.903-.005-45.811 0-68.718zm-318.456 41.139c.011 3.883-.016 7.761.011 11.639 12.535-.016 25.075-.011 37.61-.011 1.901-.081 3.97-.196 5.572-1.325 1.852-1.955 1.792-5.078.896-7.462-1.097-2.423-4.128-2.781-6.463-2.841-12.54-.005-25.086-.005-37.626 0zm235.694-20.464c-2.862 3.357-2.748 8.027-2.694 12.182.141 4.682-.554 9.667 1.499 14.05 1.722 3.454 5.985 4.203 9.477 4.269 8.934 0 17.873.021 26.802-.006 2.949-.13 6.186-.635 8.374-2.786 2.157-2.161 2.341-5.42 2.417-8.293-.011-7.544-.011-15.076-.011-22.62-12.094 0-24.195-.011-36.289.005-3.362.12-7.202.544-9.575 3.205zm-235.694-4.67c0 3.655.006 7.304 0 10.965 12.128.022 24.261-.006 36.393.016 1.771-.032 3.742-.141 5.149-1.352 1.428-1.841 1.531-4.492.88-6.648-.755-2.21-3.253-3.025-5.382-2.976-12.345-.022-24.695 0-37.04-.005z"/><path d="m282.743 1.659c30.05-2.965 60.854 1.689 88.558 13.757 41.178 17.694 75.083 51.556 92.826 92.718 18.884 43.084 19.6 93.7 2.01 137.322-13.844 34.785-39.017 64.905-70.728 84.805-19.66 12.404-41.791 20.882-64.71 24.781-31.245 5.35-63.917 2.297-93.56-8.988-40.303-15.169-74.583-45.539-94.585-83.659-13.752-26.014-20.942-55.51-20.459-84.94.082-39.386 14.055-78.516 38.652-109.25 21.127-26.671 50.052-47.097 82.301-57.986 12.845-4.372 26.194-7.235 39.695-8.56zm6.561 15.728c-31.592 2.053-62.456 13.752-87.531 33.086-27.025 20.649-47.304 49.998-56.895 82.654-9.243 31.13-8.847 65.041 1.173 95.938 6.876 21.371 18.319 41.254 33.265 58.003 15 16.858 33.558 30.549 54.114 39.874 27.198 12.415 57.873 16.95 87.515 13.17 24.906-3.128 49.036-12.176 69.842-26.22 32.141-21.464 56.162-54.777 66.187-92.131 7.924-29.1 7.511-60.415-1.189-89.297-6.088-20.252-16.211-39.276-29.588-55.651-14.778-18.172-33.547-33.096-54.597-43.377-25.379-12.497-54.088-17.998-82.296-16.049zm-13.529 26.428c25.64-4.53 52.572-1.532 76.545 8.64 11.942 5.035 23.125 11.818 33.177 19.997 19.405 14.919 34.715 35.117 43.731 57.878 9.737 24.331 11.942 51.507 6.669 77.147-4.774 23.462-15.989 45.593-32.162 63.265-15.05 16.538-34.33 29.176-55.478 36.415-15.272 5.236-31.467 7.723-47.602 7.403-23.104-.163-46.783-5.594-65.927-18.971-19.725-13.566-33.313-34.872-39.575-57.791-6.404-22.191-3.313-46.853 8.173-66.871 11.405-20.236 31.12-35.617 53.604-41.536 22.571-6.17 47.554-2.868 67.643 9.167 10.894 6.485 20.534 15.256 27.627 25.786-8.803-8.782-19.877-15.364-31.999-18.335-21.127-5.442-44.719.288-60.968 14.854-8.809 7.777-15.56 17.862-19.318 29.001-4.101 12.008-4.682 25.184-1.651 37.507 2.835 11.812 9.053 22.799 17.759 31.271 19.133 19.096 49.927 25.504 74.985 15.24 17.374-7.012 31.163-21.648 38.169-38.913 6.686-16.152 7.761-34.221 4.872-51.339-3.432-20.964-13.898-40.771-29.632-55.092-16.515-15.272-38.358-24.309-60.685-26.259-22.723-2.238-46.158 3.242-65.346 15.658-17.325 11.046-31.173 27.421-39.228 46.315-8.744 20.301-10.655 43.453-5.458 64.927.038.364.109 1.097.147 1.467-10.889-26.352-13.605-56.075-7.028-83.86 6.251-27.236 21.3-52.284 42.199-70.804 18.677-16.667 42.101-27.904 66.757-32.167zm-6.783 127.492c7.946-7.332 18.297-11.992 29.05-13.154 10.406-1.157 21.181.907 30.349 6.001 9.048 4.953 16.57 12.687 21.17 21.93 5.056 9.95 6.62 21.578 4.6 32.543-2.135 11.628-8.494 22.408-17.586 29.963-11.698 9.84-28.083 14.164-43.029 10.742 9.227.413 18.541-2.726 25.753-8.483 6.708-5.333 11.606-12.91 13.654-21.235 2.607-10.287.804-21.616-4.942-30.555-5.736-9.124-15.386-15.69-25.998-17.607-11.552-2.243-24.005 1.14-32.869 8.879-10.965 9.271-16.032 24.798-12.616 38.756-3.465-7.283-4.486-15.587-4.051-23.576.869-12.964 6.908-25.466 16.515-34.204zm-3.954 47.195c.717-9.428 6.892-18.156 15.489-22.061-4.795 3.585-8.282 9.016-8.792 15.049-1.26 10.184 6.327 20.432 16.407 22.273 9.699 2.232 20.312-3.791 23.548-13.154 3.08-8.021.321-17.515-6.158-23.033 6.821 3.791 11.676 10.83 13.056 18.493 1.043 6.131.097 12.632-2.987 18.063-3.949 7.164-11.329 12.323-19.432 13.529-7.984 1.265-16.505-1.206-22.436-6.735-6.202-5.572-9.525-14.131-8.695-22.424z"/></g></svg>