<svg clip-rule="evenodd" fill-rule="evenodd" stroke-linejoin="round" stroke-miterlimit="2" viewBox="0 0 600 129" xmlns="http://www.w3.org/2000/svg"><g fill="#fff" fill-rule="nonzero"><path d="m599.999 58.002v-10.552h-13.103v-16.404l-.441.136-12.308 3.766-.242.073v12.43h-19.426v-6.925c0-3.224.721-5.691 2.142-7.337 1.411-1.625 3.429-2.452 6.003-2.452 1.85 0 3.766.436 5.694 1.296l.484.216v-11.113l-.228-.084c-1.799-.646-4.245-.972-7.278-.972-3.822 0-7.294.832-10.323 2.48-3.03 1.651-5.414 4.008-7.084 7.004-1.664 2.992-2.508 6.449-2.508 10.274v7.612h-9.124v10.552h9.124v44.453h13.098v-44.453h19.426v28.249c0 11.635 5.487 17.531 16.31 17.531 1.779 0 3.651-.209 5.562-.617 1.945-.419 3.271-.837 4.051-1.284l.172-.102v-10.65l-.533.353c-.711.473-1.596.86-2.634 1.148-1.042.293-1.913.44-2.587.44-2.535 0-4.411-.683-5.575-2.031-1.177-1.361-1.774-3.74-1.774-7.068v-25.969zm-96.993 35.07c-4.754 0-8.502-1.577-11.144-4.682-2.658-3.121-4.004-7.57-4.004-13.223 0-5.833 1.346-10.398 4.005-13.574 2.643-3.155 6.356-4.756 11.036-4.756 4.542 0 8.157 1.529 10.747 4.548 2.603 3.034 3.924 7.563 3.924 13.463 0 5.973-1.242 10.561-3.692 13.63-2.432 3.046-6.09 4.594-10.872 4.594m.582-46.947c-9.07 0-16.274 2.658-21.411 7.9-5.133 5.242-7.735 12.496-7.735 21.564 0 8.612 2.54 15.539 7.551 20.586 5.012 5.048 11.832 7.605 20.269 7.605 8.792 0 15.853-2.694 20.987-8.009 5.134-5.308 7.735-12.494 7.735-21.35 0-8.746-2.441-15.725-7.257-20.738-4.818-5.016-11.595-7.558-20.139-7.558m-50.265 0c-6.169 0-11.273 1.578-15.172 4.69-3.922 3.13-5.912 7.235-5.912 12.203 0 2.582.43 4.876 1.275 6.822.85 1.952 2.166 3.67 3.914 5.113 1.735 1.43 4.413 2.929 7.962 4.454 2.983 1.227 5.208 2.266 6.621 3.084 1.381.802 2.362 1.608 2.915 2.394.538.768.811 1.82.811 3.118 0 3.695-2.767 5.493-8.462 5.493-2.112 0-4.521-.441-7.16-1.31-2.621-.857-5.094-2.111-7.333-3.719l-.544-.39v12.611l.2.093c1.853.855 4.19 1.577 6.944 2.145 2.749.568 5.246.857 7.416.857 6.695 0 12.086-1.586 16.02-4.716 3.959-3.152 5.966-7.354 5.966-12.493 0-3.708-1.08-6.888-3.209-9.452-2.115-2.543-5.785-4.878-10.903-6.942-4.078-1.637-6.691-2.996-7.769-4.039-1.039-1.007-1.566-2.432-1.566-4.237 0-1.599.651-2.881 1.988-3.919 1.347-1.043 3.222-1.573 5.574-1.573 2.182 0 4.415.345 6.636 1.02 2.219.676 4.168 1.581 5.795 2.687l.535.366v-11.962l-.206-.088c-1.501-.644-3.48-1.195-5.884-1.642-2.393-.444-4.564-.668-6.452-.668m-55.23 46.947c-4.753 0-8.503-1.577-11.143-4.682-2.659-3.121-4.003-7.569-4.003-13.223 0-5.833 1.346-10.398 4.006-13.574 2.64-3.155 6.352-4.756 11.035-4.756 4.54 0 8.155 1.529 10.746 4.548 2.603 3.034 3.923 7.563 3.923 13.463 0 5.973-1.242 10.561-3.692 13.63-2.432 3.046-6.088 4.594-10.872 4.594m.584-46.947c-9.073 0-16.277 2.658-21.411 7.9-5.133 5.242-7.737 12.496-7.737 21.564 0 8.615 2.542 15.539 7.553 20.586 5.011 5.048 11.831 7.605 20.268 7.605 8.791 0 15.853-2.694 20.988-8.009 5.132-5.308 7.734-12.494 7.734-21.35 0-8.746-2.441-15.725-7.258-20.738-4.819-5.016-11.595-7.558-20.137-7.558m-49.031 10.851v-9.526h-12.939v55.004h12.939v-28.136c0-4.785 1.085-8.715 3.225-11.684 2.114-2.934 4.93-4.42 8.368-4.42 1.166 0 2.474.192 3.891.572 1.402.378 2.418.788 3.017 1.22l.543.394v-13.044l-.209-.09c-1.205-.512-2.91-.77-5.067-.77-3.251 0-6.161 1.045-8.653 3.102-2.187 1.808-3.769 4.287-4.978 7.378zm-36.109-10.851c-5.936 0-11.231 1.273-15.734 3.782-4.513 2.515-8.003 6.105-10.377 10.671-2.364 4.555-3.565 9.875-3.565 15.808 0 5.197 1.164 9.966 3.464 14.169 2.302 4.21 5.559 7.504 9.682 9.789 4.118 2.281 8.876 3.438 14.145 3.438 6.149 0 11.399-1.229 15.608-3.654l.17-.097v-11.854l-.544.397c-1.906 1.389-4.037 2.498-6.33 3.296-2.286.798-4.371 1.202-6.2 1.202-5.076 0-9.152-1.589-12.11-4.721-2.965-3.136-4.468-7.539-4.468-13.08 0-5.576 1.567-10.093 4.657-13.426 3.08-3.323 7.163-5.008 12.135-5.008 4.253 0 8.397 1.44 12.318 4.284l.542.394v-12.49l-.175-.099c-1.475-.826-3.488-1.508-5.986-2.025-2.487-.516-4.921-.776-7.232-.776m-38.587 1.326h-12.938v55.003h12.938zm-6.337-23.432c-2.129 0-3.987.725-5.512 2.161-1.533 1.441-2.31 3.255-2.31 5.395 0 2.107.768 3.888 2.286 5.29 1.508 1.398 3.371 2.107 5.537 2.107 2.165 0 4.035-.709 5.561-2.104 1.536-1.405 2.315-3.185 2.315-5.293 0-2.065-.758-3.861-2.251-5.337-1.493-1.473-3.386-2.219-5.626-2.219m-32.282 19.374v59.061h13.204v-76.751h-18.275l-23.23 57.008-22.542-57.008h-19.02v76.751h12.409v-59.067h.426l23.804 59.067h9.365l23.433-59.061z"/><path d="m0 .055h60.867v60.867h-60.867z"/><path d="m67.205.055h60.866v60.867h-60.866z"/><path d="m0 67.283h60.865v60.866h-60.865z"/><path d="m67.205 67.283h60.866v60.866h-60.866z"/></g></svg>