<svg clip-rule="evenodd" fill-rule="evenodd" stroke-linejoin="round" stroke-miterlimit="2" viewBox="0 0 600 372" xmlns="http://www.w3.org/2000/svg"><g fill="#fff"><path d="m203.976 259.363c0 14.486-11.705 26.138-26.127 26.138h-112.022v-33.672h94.448c5.561 0 10.018-4.542 10.018-10.071v-111.3c0-5.551-4.457-10.05-10.018-10.05h-50.758c-5.55 0-10.018 4.499-10.018 10.05v50.651c0 5.561 4.468 10.071 10.018 10.071h40.549v33.673h-58.122c-14.454 0-26.117-11.674-26.117-26.117v-85.895c0-14.432 11.663-26.127 26.117-26.127h85.905c14.422 0 26.127 11.695 26.127 26.127z"/><path d="m534.163 259.363c0 14.486-11.715 26.138-26.116 26.138h-112.033v-33.672h94.449c5.582 0 10.06-4.542 10.06-10.071v-111.3c0-5.551-4.478-10.05-10.06-10.05h-50.748c-5.497 0-9.986 4.499-9.986 10.05v50.651c0 5.561 4.489 10.071 9.986 10.071h40.528v33.673h-58.091c-14.454 0-26.138-11.674-26.138-26.117v-85.895c0-14.432 11.684-26.127 26.138-26.127h85.895c14.401 0 26.116 11.695 26.116 26.127z"/><path d="m335.313 130.451v50.652c0 5.561-4.362 10.082-9.933 10.082h-50.737c-5.571 0-10.028-4.521-10.028-10.082v-50.652c0-5.55 4.457-10.039 10.028-10.039h50.737c5.571 0 9.933 4.489 9.933 10.039zm7.651-43.732h-85.937c-14.432 0-26.095 11.694-26.095 26.127v85.894c0 14.433 11.663 26.117 26.095 26.117h85.937c14.39 0 26.106-11.684 26.106-26.117v-85.894c0-14.433-11.716-26.127-26.106-26.127"/><path d="m587.244 327.937c0 8.554-3.449 16.237-9.052 21.851-5.603 5.592-13.297 9.031-21.829 9.031h-512.726c-8.543 0-16.226-3.439-21.829-9.031-5.603-5.614-9.031-13.297-9.052-21.851v-283.68c.021-8.543 3.449-16.215 9.052-21.829 5.603-5.593 13.286-9.031 21.829-9.042h512.726c8.532.011 16.226 3.449 21.829 9.042 5.603 5.614 9.052 13.286 9.052 21.829zm-.042-314.53c-7.874-7.895-18.805-12.777-30.839-12.777h-512.726c-12.034 0-22.965 4.882-30.839 12.777-7.895 7.875-12.798 18.826-12.798 30.85v283.68c0 12.034 4.903 22.986 12.798 30.86 7.874 7.885 18.805 12.788 30.839 12.788h512.726c12.034 0 22.965-4.903 30.839-12.788 7.895-7.874 12.798-18.826 12.798-30.86v-283.68c0-12.024-4.903-22.975-12.798-30.85" fill-rule="nonzero"/></g></svg>