<svg clip-rule="evenodd" fill-rule="evenodd" stroke-linejoin="round" stroke-miterlimit="2" viewBox="0 0 600 129" xmlns="http://www.w3.org/2000/svg"><g fill="#fff" fill-rule="nonzero"><path d="m599.999 58.267v-10.552h-13.103v-16.404l-.441.136-12.308 3.765-.242.074v12.43h-19.426v-6.925c0-3.224.721-5.691 2.142-7.337 1.411-1.625 3.429-2.452 6.003-2.452 1.85 0 3.766.436 5.694 1.295l.484.216v-11.112l-.228-.084c-1.799-.646-4.245-.972-7.278-.972-3.822 0-7.294.832-10.323 2.48-3.03 1.651-5.414 4.007-7.084 7.003-1.664 2.993-2.508 6.449-2.508 10.274v7.613h-9.124v10.552h9.124v44.453h13.098v-44.453h19.426v28.249c0 11.635 5.487 17.53 16.31 17.53 1.779 0 3.651-.208 5.562-.616 1.945-.419 3.271-.838 4.051-1.284l.172-.103v-10.649l-.533.352c-.711.474-1.596.861-2.634 1.149-1.042.293-1.913.44-2.587.44-2.535 0-4.411-.683-5.575-2.032-1.177-1.36-1.774-3.739-1.774-7.067v-25.969zm-96.993 35.07c-4.754 0-8.502-1.577-11.144-4.682-2.658-3.121-4.004-7.57-4.004-13.224 0-5.832 1.346-10.397 4.005-13.573 2.643-3.155 6.356-4.757 11.036-4.757 4.542 0 8.157 1.53 10.747 4.549 2.603 3.034 3.924 7.562 3.924 13.463 0 5.973-1.242 10.561-3.692 13.63-2.432 3.046-6.09 4.594-10.872 4.594m.582-46.947c-9.07 0-16.274 2.658-21.411 7.899-5.133 5.243-7.735 12.497-7.735 21.564 0 8.613 2.54 15.54 7.551 20.586 5.012 5.049 11.832 7.606 20.269 7.606 8.792 0 15.853-2.695 20.987-8.009 5.134-5.308 7.735-12.494 7.735-21.35 0-8.747-2.441-15.726-7.257-20.739-4.818-5.015-11.595-7.557-20.139-7.557m-50.265 0c-6.169 0-11.273 1.578-15.172 4.69-3.922 3.13-5.912 7.235-5.912 12.203 0 2.582.43 4.876 1.275 6.821.85 1.952 2.166 3.671 3.914 5.113 1.735 1.431 4.413 2.93 7.962 4.454 2.983 1.228 5.208 2.266 6.621 3.085 1.381.802 2.362 1.608 2.915 2.393.538.769.811 1.82.811 3.118 0 3.696-2.767 5.494-8.462 5.494-2.112 0-4.521-.441-7.16-1.311-2.621-.856-5.094-2.11-7.333-3.718l-.544-.39v12.611l.2.093c1.853.855 4.19 1.577 6.944 2.144 2.749.569 5.246.858 7.416.858 6.695 0 12.086-1.586 16.02-4.716 3.959-3.152 5.966-7.354 5.966-12.494 0-3.707-1.08-6.887-3.209-9.451-2.115-2.544-5.785-4.879-10.903-6.942-4.078-1.637-6.691-2.996-7.769-4.039-1.039-1.008-1.566-2.432-1.566-4.237 0-1.6.651-2.881 1.988-3.919 1.347-1.043 3.222-1.573 5.574-1.573 2.182 0 4.415.344 6.636 1.02 2.219.676 4.168 1.58 5.795 2.687l.535.366v-11.962l-.206-.089c-1.501-.643-3.48-1.194-5.884-1.641-2.393-.444-4.564-.668-6.452-.668m-55.23 46.947c-4.753 0-8.503-1.577-11.143-4.682-2.659-3.121-4.003-7.569-4.003-13.224 0-5.832 1.346-10.397 4.006-13.573 2.64-3.155 6.352-4.757 11.035-4.757 4.54 0 8.155 1.53 10.746 4.549 2.603 3.034 3.923 7.562 3.923 13.463 0 5.973-1.242 10.561-3.692 13.63-2.432 3.046-6.088 4.594-10.872 4.594m.584-46.947c-9.073 0-16.277 2.658-21.411 7.899-5.133 5.243-7.737 12.497-7.737 21.564 0 8.616 2.542 15.54 7.553 20.586 5.011 5.049 11.831 7.606 20.268 7.606 8.791 0 15.853-2.695 20.988-8.009 5.132-5.308 7.734-12.494 7.734-21.35 0-8.747-2.441-15.726-7.258-20.739-4.819-5.015-11.595-7.557-20.137-7.557m-49.031 10.851v-9.526h-12.939v55.004h12.939v-28.137c0-4.784 1.085-8.715 3.225-11.683 2.114-2.934 4.93-4.42 8.368-4.42 1.166 0 2.474.192 3.891.572 1.402.378 2.418.788 3.017 1.22l.543.394v-13.044l-.209-.09c-1.205-.512-2.91-.77-5.067-.77-3.251 0-6.161 1.045-8.653 3.102-2.187 1.808-3.769 4.286-4.978 7.378zm-36.109-10.851c-5.936 0-11.231 1.273-15.734 3.782-4.513 2.515-8.003 6.105-10.377 10.671-2.364 4.554-3.565 9.874-3.565 15.807 0 5.197 1.164 9.967 3.464 14.17 2.302 4.21 5.559 7.504 9.682 9.789 4.118 2.281 8.876 3.438 14.145 3.438 6.149 0 11.399-1.229 15.608-3.654l.17-.097v-11.854l-.544.397c-1.906 1.389-4.037 2.498-6.33 3.296-2.286.798-4.371 1.202-6.2 1.202-5.076 0-9.152-1.589-12.11-4.721-2.965-3.136-4.468-7.539-4.468-13.081 0-5.576 1.567-10.092 4.657-13.425 3.08-3.323 7.163-5.009 12.135-5.009 4.253 0 8.397 1.44 12.318 4.284l.542.395v-12.49l-.175-.099c-1.475-.826-3.488-1.508-5.986-2.025-2.487-.516-4.921-.776-7.232-.776m-38.587 1.326h-12.938v55.003h12.938zm-6.337-23.432c-2.129 0-3.987.725-5.512 2.161-1.533 1.441-2.31 3.255-2.31 5.395 0 2.107.768 3.888 2.286 5.29 1.508 1.398 3.371 2.107 5.537 2.107 2.165 0 4.035-.709 5.561-2.105 1.536-1.404 2.315-3.184 2.315-5.292 0-2.066-.758-3.861-2.251-5.337-1.493-1.473-3.386-2.219-5.626-2.219m-32.282 19.373v59.062h13.204v-76.751h-18.275l-23.23 57.008-22.542-57.008h-19.02v76.75h12.409v-59.066h.426l23.804 59.067h9.365l23.433-59.062z"/><path d="m0 .32h60.867v60.867h-60.867z"/><path d="m67.205.32h60.866v60.867h-60.866z"/><path d="m0 67.548h60.865v60.866h-60.865z"/><path d="m67.205 67.548h60.866v60.866h-60.866z"/></g></svg>