<svg clip-rule="evenodd" fill-rule="evenodd" stroke-linejoin="round" stroke-miterlimit="2" viewBox="0 0 600 608" xmlns="http://www.w3.org/2000/svg"><path d="m600 394.561h-129.665l-20.574-129.187-75.598 128.23h-14.354c-8.613-14.833-11.962-36.364-11.962-49.761 0-22.01 1.435-43.541 1.435-71.77 0-37.321-11.004-56.938-40.191-64.115v-.957c61.722-8.613 89.952-49.761 89.952-107.177 0-81.818-54.545-99.522-125.837-99.522h-191.866l-81.34 384.689h101.914l29.665-140.191h67.943c36.363 0 51.196 17.703 51.196 51.674 0 25.838-2.871 46.412-2.871 66.029 0 7.177 1.435 24.402 6.698 31.101l73.685 77.99-63.637 136.364 135.885-80.862 101.436 77.991-18.66-128.708zm-369.856-221.532h-81.34l19.617-92.822h75.598c26.794 0 55.024 7.177 55.024 39.712 0 41.627-32.057 53.11-68.899 53.11m172.248 331.579-94.736 56.46 43.54-92.823-52.631-55.503h86.602l54.546-92.344 14.832 93.301h86.125l-77.512 54.067 13.875 94.737z" fill="#fff" fill-rule="nonzero"/></svg>