<svg clip-rule="evenodd" fill-rule="evenodd" stroke-linejoin="round" stroke-miterlimit="2" viewBox="0 0 600 469" xmlns="http://www.w3.org/2000/svg"><g fill="#fff"><path d="m343.38 404.996c6.501-4.735 14.892-4.779 22.588-4.92 20.024-.043 40.042-.011 60.066-.016v39.363c-.043 6.523.413 13.496-2.781 19.443-3.492 6.159-10.829 8.799-17.531 9.499-8.863.842-17.792.245-26.682.418-8.809-.212-17.738.657-26.443-1.042-5.35-1.103-10.933-3.514-13.909-8.342-2.781-4.573-3.4-10.091-3.411-15.338.027-7.424-.06-14.848.049-22.267.201-6.354 2.455-13.229 8.054-16.798zm-103.205 20.073c-.016-8.342-.054-16.684.017-25.026 19.72.028 39.439.011 59.154.011 6.36.038 13.534.011 18.672 4.345 4.366 3.867 4.431 10.183 4.317 15.56-6.322.038-12.643.081-18.959-.103.277-1.771-.777-3.726-2.721-3.737-13.279-.125-26.569-.016-39.847-.049.157 2.737-.712 6.099 1.531 8.217 2.314 1.863 5.48 1.901 8.309 2.091 12.41.033 24.831-.005 37.241.027 5.241-.005 11.323 1.146 14.462 5.795 3.069 4.66 2.249 10.504 2.368 15.777.011 4.817.478 10.189-2.628 14.267-3.84 5.165-10.77 6.577-16.858 6.555-16.554-.021-33.102-.005-49.655-.005-5.008-.043-10.574-1.515-13.562-5.865-2.987-4.242-2.52-9.651-2.487-14.561 6.403.022 12.817-.011 19.22.022-.336 1.933.419 4.345 2.743 4.399 11.736.098 23.494.033 35.236.033 2.292-.212 5.306-.131 6.675-2.352.956-2.395.494-5.051.521-7.56-13.718.054-27.432 0-41.145.027-5.355.049-11.155-.125-15.679-3.367-4.638-3.226-6.86-8.994-6.925-14.501zm-240.174-25.009c6.957-.006 13.925 0 20.888-.006.022 13.344-.016 26.694.016 40.043.141 2.873.511 6.007 2.466 8.277 2.085 2.281 5.382 2.742 8.326 2.862 7.375.016 14.756.016 22.131.005 2.932-.108 6.224-.581 8.331-2.824 1.977-2.276 2.373-5.442 2.482-8.342 0-13.338-.006-26.677.005-40.021 6.995.006 13.996.006 20.986 0 .125 22.908-.201 45.821-.098 68.729-19.47.011-38.946-.005-58.416.011-7.055-.103-14.696-1.173-20.236-5.93-4.98-4.323-6.767-11.172-6.875-17.537-.011-15.087-.006-30.18-.006-45.267zm102.293.011c19.562-.028 39.13-.011 58.692-.006 6.713.152 13.893.25 19.829 3.807 4.35 2.591 6.104 7.881 6.202 12.714.054 3.84.065 7.891-1.656 11.427-1.646 2.927-4.84 4.665-8.011 5.415 3.774.771 7.886 2.21 9.906 5.767 2.547 4.589 2.406 10.102 1.977 15.18-.511 4.019-1.896 8.364-5.399 10.759-4.002 2.71-8.966 3.486-13.707 3.644-22.61.016-45.219.016-67.828.005-.011-22.902-.005-45.805-.005-68.712zm418.136-.006c26.519-.011 53.044-.011 79.564 0 .011 5.817.005 11.644 0 17.466-9.781.006-19.552 0-29.333.006v51.246c-6.968.011-13.936 0-20.893 0v-51.246c-9.781-.006-19.557 0-29.338-.006-.011-5.822-.006-11.649 0-17.466zm-317.647 0c6.984-.022 13.974-.011 20.964-.005.005 22.913.01 45.815 0 68.723-6.995 0-13.98.011-20.964 0-.011-22.902-.011-45.81 0-68.718zm238.968 0c23.669-.011 47.337-.022 71.016 0 0 5.838.005 11.677-.011 17.515-16.678 0-33.357-.011-50.041.005.011 3.797 0 7.604.011 11.411 15.918.016 31.836 0 47.754.005-.005 5.866.011 11.72-.005 17.586-15.924.005-31.831 0-47.749.005-.016 7.397.011 14.794-.016 22.191-6.985 0-13.969.011-20.959 0-.005-22.902-.005-45.81 0-68.718zm-318.456 41.14c.011 3.883-.016 7.761.011 11.638 12.535-.016 25.075-.011 37.61-.011 1.901-.081 3.97-.195 5.572-1.325 1.852-1.955 1.792-5.078.896-7.462-1.097-2.422-4.128-2.78-6.463-2.84-12.54-.006-25.086-.006-37.626 0zm235.694-20.464c-2.862 3.356-2.748 8.027-2.694 12.182.141 4.681-.554 9.667 1.499 14.05 1.722 3.454 5.985 4.203 9.477 4.268 8.934 0 17.873.022 26.802-.005 2.949-.131 6.186-.636 8.374-2.786 2.157-2.162 2.341-5.42 2.417-8.293-.011-7.544-.011-15.077-.011-22.62-12.094 0-24.195-.011-36.289.005-3.362.12-7.202.543-9.575 3.204zm-235.694-4.671c0 3.655.006 7.305 0 10.965 12.128.022 24.261-.005 36.393.017 1.771-.033 3.742-.142 5.149-1.353 1.428-1.841 1.531-4.491.88-6.647-.755-2.211-3.253-3.025-5.382-2.976-12.345-.022-24.695 0-37.04-.006z"/><path d="m282.743 1.839c30.05-2.965 60.854 1.689 88.558 13.756 41.178 17.695 75.083 51.557 92.826 92.718 18.884 43.084 19.6 93.701 2.01 137.322-13.844 34.786-39.017 64.906-70.728 84.805-19.66 12.404-41.791 20.882-64.71 24.782-31.245 5.349-63.917 2.297-93.56-8.989-40.303-15.168-74.583-45.538-94.585-83.658-13.752-26.015-20.942-55.51-20.459-84.941.082-39.385 14.055-78.516 38.652-109.249 21.127-26.672 50.052-47.098 82.301-57.987 12.845-4.372 26.194-7.234 39.695-8.559zm6.561 15.728c-31.592 2.053-62.456 13.751-87.531 33.086-27.025 20.648-47.304 49.997-56.895 82.654-9.243 31.13-8.847 65.041 1.173 95.938 6.876 21.371 18.319 41.253 33.265 58.003 15 16.857 33.558 30.549 54.114 39.874 27.198 12.415 57.873 16.95 87.515 13.17 24.906-3.128 49.036-12.176 69.842-26.221 32.141-21.463 56.162-54.777 66.187-92.131 7.924-29.099 7.511-60.414-1.189-89.296-6.088-20.252-16.211-39.277-29.588-55.651-14.778-18.172-33.547-33.097-54.597-43.377-25.379-12.497-54.088-17.999-82.296-16.049zm-13.529 26.427c25.64-4.529 52.572-1.531 76.545 8.641 11.942 5.034 23.125 11.818 33.177 19.997 19.405 14.919 34.715 35.116 43.731 57.877 9.737 24.331 11.942 51.508 6.669 77.148-4.774 23.461-15.989 45.593-32.162 63.265-15.05 16.537-34.33 29.175-55.478 36.415-15.272 5.235-31.467 7.723-47.602 7.402-23.104-.163-46.783-5.594-65.927-18.97-19.725-13.567-33.313-34.873-39.575-57.791-6.404-22.191-3.313-46.853 8.173-66.872 11.405-20.236 31.12-35.616 53.604-41.536 22.571-6.17 47.554-2.868 67.643 9.167 10.894 6.485 20.534 15.256 27.627 25.787-8.803-8.782-19.877-15.364-31.999-18.335-21.127-5.442-44.719.288-60.968 14.853-8.809 7.778-15.56 17.863-19.318 29.002-4.101 12.008-4.682 25.183-1.651 37.506 2.835 11.813 9.053 22.799 17.759 31.272 19.133 19.095 49.927 25.504 74.985 15.239 17.374-7.011 31.163-21.648 38.169-38.913 6.686-16.152 7.761-34.22 4.872-51.339-3.432-20.963-13.898-40.77-29.632-55.092-16.515-15.272-38.358-24.309-60.685-26.258-22.723-2.238-46.158 3.242-65.346 15.657-17.325 11.047-31.173 27.421-39.228 46.315-8.744 20.301-10.655 43.454-5.458 64.928.038.364.109 1.097.147 1.466-10.889-26.351-13.605-56.075-7.028-83.86 6.251-27.236 21.3-52.284 42.199-70.803 18.677-16.668 42.101-27.905 66.757-32.168zm-6.783 127.492c7.946-7.332 18.297-11.991 29.05-13.154 10.406-1.156 21.181.907 30.349 6.002 9.048 4.953 16.57 12.686 21.17 21.93 5.056 9.95 6.62 21.577 4.6 32.542-2.135 11.628-8.494 22.408-17.586 29.963-11.698 9.841-28.083 14.164-43.029 10.743 9.227.412 18.541-2.727 25.753-8.484 6.708-5.333 11.606-12.909 13.654-21.235 2.607-10.286.804-21.615-4.942-30.554-5.736-9.125-15.386-15.69-25.998-17.608-11.552-2.243-24.005 1.141-32.869 8.88-10.965 9.271-16.032 24.798-12.616 38.755-3.465-7.283-4.486-15.586-4.051-23.575.869-12.964 6.908-25.466 16.515-34.205zm-3.954 47.195c.717-9.428 6.892-18.155 15.489-22.06-4.795 3.584-8.282 9.015-8.792 15.049-1.26 10.183 6.327 20.431 16.407 22.272 9.699 2.233 20.312-3.79 23.548-13.153 3.08-8.022.321-17.515-6.158-23.033 6.821 3.791 11.676 10.829 13.056 18.492 1.043 6.132.097 12.633-2.987 18.064-3.949 7.163-11.329 12.323-19.432 13.528-7.984 1.266-16.505-1.205-22.436-6.734-6.202-5.572-9.525-14.131-8.695-22.425z"/></g></svg>