<svg clip-rule="evenodd" fill-rule="evenodd" stroke-linejoin="round" stroke-miterlimit="2" viewBox="0 0 600 117" xmlns="http://www.w3.org/2000/svg"><g fill="#fff"><g fill-rule="nonzero"><path d="m326.918 1.112c12.037-1.05 24.814.432 35.246 6.913 9.568-5.926 21.234-7.099 32.283-6.913 10.741.37 21.852 2.777 30.741 9.074 8.518 5.802 14.259 15.987 13.703 26.419-.062 25.987.124 51.974-.062 77.962-11.851-.124-23.641.123-35.431-.124-.062-26.172.123-52.283-.124-78.455.124-6.297-7.777-7.469-12.592-7.346-4.383.123-11.666 1.481-11.049 7.346 0 26.049.062 52.159-.062 78.208-12.098-.123-24.197.247-36.296.124-.123-26.111-.185-52.222.124-78.332.247-2.037-.926-4.013-2.84-4.815-4.814-2.284-10.678-2.408-15.678-.556-2.037.741-4.383 2.284-4.198 4.753-.247 26.42-.123 52.777-.123 79.197-11.667-.433-23.395 0-35.061-.247.432-27.778-.124-55.555.308-83.332.247-7.408 4.383-14.321 10.124-18.827 8.827-6.914 19.999-10.062 30.987-11.049z"/><path d="m.071 2.963h93.579v28.025c-10 .185-20-.062-30 .123-.123 27.654.062 55.308-.123 82.962-11.605 0-23.271-.062-34.876 0-.247-25 0-49.999-.123-74.999-.062-2.778.308-5.556-.309-8.272-9.383.186-18.765.062-28.148.062-.061-9.321-.123-18.641 0-27.901z"/><path d="m210.685 18.889c19.136-13.271 43.271-16.79 66.048-16.172 0 9.012-.061 18.024 0 27.036-15.185.062-31.851 1.543-43.826 11.975-5.494 4.877-9.259 12.099-8.457 19.568.803 8.456 6.852 15.432 13.889 19.691 10.741 6.543 23.703 7.839 36.049 7.654v27.037c-21.234.617-43.456-2.902-61.481-14.815-13.641-9.012-24.135-24.074-24.444-40.802-.802-16.543 8.951-31.975 22.222-41.172z"/><path d="m107.786 13.519c7.53-6.852 17.777-10.864 28.024-10.432 15.987.123 31.913-.185 47.9.247-.062 8.95-.062 17.962 0 26.913-14.753.062-29.505 0-44.258.062-1.729-.124-3.21.802-4.568 1.728-.309 4.506-.124 9.012-.185 13.518h48.579c.124 9.074.124 18.148 0 27.16h-48.703c-.123 3.395-.247 6.852-.123 10.247 0 3.086 3.642 4.63 6.296 4.568h42.53c.124 9.012.124 18.024 0 27.037-16.049-.124-32.098.185-48.086-.186-9.691-.617-19.382-3.95-26.789-10.246-5.062-4.383-8.951-10.679-8.827-17.531-.062-18.703 0-37.468 0-56.172-.062-6.543 3.58-12.531 8.21-16.913z"/></g><path d="m515.124 1.297c20.062-1.543 40.864 2.531 57.962 13.456 10.124 6.605 18.951 15.741 23.519 27.037 4.753 11.358 4.506 24.629-.679 35.802-6.605 14.444-19.691 25.061-34.012 31.357-21.852 9.506-47.283 10.371-69.876 2.963-16.728-5.493-32.345-16.419-40.554-32.345-5.803-11.358-6.605-25.246-1.791-37.16 3.704-9.753 10.741-17.901 18.889-24.259 13.395-10.185 29.938-15.555 46.542-16.851zm2.47 28.271c12.469-1.173 25.678 1.543 35.863 9.136 6.296 4.691 11.358 11.975 11.235 20.123.185 7.407-4.013 14.135-9.445 18.827-14.259 11.851-35.184 13.641-52.159 7.098-8.766-3.58-17.222-9.938-20.247-19.259-2.531-7.345-.37-15.802 4.691-21.604 7.408-8.766 18.827-13.148 30.062-14.321z"/></g></svg>