<svg clip-rule="evenodd" fill-rule="evenodd" stroke-linejoin="round" stroke-miterlimit="2" viewBox="0 0 600 201" xmlns="http://www.w3.org/2000/svg"><g fill="#fff" fill-rule="nonzero"><path d="m552.22 0h-504.413c-1.838 0-3.655 0-5.489.01-1.535.01-3.058.039-4.607.064-3.367.039-6.726.336-10.048.886-3.317.562-6.531 1.622-9.531 3.144-2.997 1.534-5.736 3.528-8.116 5.909-2.393 2.375-4.388 5.119-5.908 8.129-1.524 3.003-2.581 6.221-3.134 9.543-.558 3.318-.858 6.674-.898 10.038-.047 1.538-.051 3.08-.076 4.617v115.896c.025 1.557.029 3.065.076 4.622.04 3.364.34 6.72.898 10.038.552 3.324 1.609 6.544 3.134 9.548 1.519 3 3.514 5.733 5.908 8.094 2.371 2.392 5.112 4.388 8.116 5.91 3 1.526 6.213 2.592 9.531 3.163 3.322.546 6.681.842 10.048.887 1.549.034 3.072.053 4.607.053 1.834.01 3.65.01 5.489.01h504.413c1.802 0 3.633 0 5.435-.01 1.528 0 3.095-.019 4.622-.053 3.361-.042 6.713-.339 10.028-.887 3.329-.575 6.553-1.641 9.568-3.163 3.002-1.523 5.739-3.519 8.109-5.91 2.387-2.37 4.387-5.102 5.925-8.094 1.514-3.006 2.56-6.226 3.104-9.548.559-3.318.87-6.673.93-10.038.02-1.557.02-3.065.02-4.622.039-1.822.039-3.633.039-5.484v-104.937c0-1.837 0-3.658-.039-5.475 0-1.537 0-3.08-.02-4.617-.06-3.365-.371-6.72-.93-10.038-.545-3.32-1.592-6.538-3.104-9.544-3.095-6.03-8.004-10.941-14.034-14.038-3.015-1.518-6.24-2.578-9.568-3.144-3.314-.552-6.667-.849-10.028-.886-1.527-.024-3.094-.054-4.622-.064l-5.435-.009zm-509.877 196.174c-1.528 0-3.019-.019-4.534-.053-3.14-.041-6.273-.315-9.372-.818-2.89-.498-5.69-1.424-8.307-2.747-2.593-1.313-4.958-3.034-7.005-5.098-2.076-2.039-3.804-4.404-5.117-7.002-1.327-2.614-2.245-5.417-2.722-8.309-.516-3.108-.795-6.251-.835-9.401-.032-1.058-.074-4.579-.074-4.579v-115.827s.044-3.467.074-4.485c.038-3.145.315-6.283.83-9.387.478-2.9 1.397-5.711 2.725-8.333 1.307-2.596 3.026-4.963 5.09-7.01 2.061-2.066 4.434-3.796 7.031-5.127 2.611-1.319 5.406-2.238 8.29-2.727 3.11-.508 6.253-.783 9.404-.822l4.524-.062h515.285l4.579.064c3.122.037 6.237.31 9.318.815 2.913.495 5.737 1.421 8.378 2.747 5.202 2.681 9.438 6.925 12.108 12.134 1.307 2.605 2.212 5.392 2.684 8.267.52 3.129.812 6.292.871 9.463.015 1.42.015 2.945.015 4.463.04 1.88.04 3.67.04 5.475v104.937c0 1.821 0 3.599-.04 5.391 0 1.63 0 3.124-.02 4.661-.058 3.115-.344 6.221-.856 9.294-.468 2.913-1.382 5.737-2.708 8.373-1.322 2.569-3.04 4.914-5.092 6.948-2.049 2.075-4.418 3.806-7.017 5.127-2.633 1.334-5.453 2.263-8.363 2.757-3.1.506-6.232.779-9.373.818-1.468.034-3.006.053-4.499.053l-5.435.01-509.877-.01z"/><path d="m125.334 99.726c.114-8.836 4.76-17.021 12.288-21.649-4.772-6.816-12.495-10.99-20.81-11.251-8.756-.919-17.244 5.24-21.706 5.24-4.548 0-11.418-5.148-18.815-4.996-9.722.314-18.593 5.724-23.322 14.223-10.084 17.459-2.563 43.118 7.097 57.23 4.833 6.911 10.481 14.63 17.872 14.356 7.232-.3 9.933-4.611 18.663-4.611 8.649 0 11.183 4.611 18.724 4.437 7.761-.126 12.65-6.941 17.313-13.917 3.473-4.924 6.145-10.366 7.918-16.124-9.2-3.891-15.211-12.95-15.222-22.938z"/><path d="m111.092 57.545c4.229-5.078 6.315-11.611 5.811-18.2-6.463.679-12.438 3.77-16.725 8.653-4.233 4.818-6.38 11.127-5.963 17.527 6.547.067 12.774-2.877 16.877-7.98z"/><path d="m212.103 114.353h-23.734l-5.699 16.829h-10.053l22.48-62.264h10.444l22.48 62.264h-10.224zm-21.276-7.766h18.813l-9.274-27.313h-.26z"/><path d="m276.57 108.487c0 14.107-7.55 23.17-18.944 23.17-5.88.308-11.442-2.785-14.284-7.942h-.215v22.485h-9.318v-60.414h9.019v7.551h.171c2.969-5.126 8.535-8.217 14.455-8.026 11.522 0 19.116 9.108 19.116 23.176zm-9.577 0c0-9.191-4.75-15.233-11.997-15.233-7.119 0-11.908 6.169-11.908 15.233 0 9.146 4.789 15.272 11.908 15.272 7.247 0 11.997-5.998 11.997-15.272z"/><path d="m326.537 108.487c0 14.107-7.553 23.17-18.947 23.17-5.88.308-11.442-2.785-14.283-7.942h-.216v22.485h-9.318v-60.414h9.019v7.551h.172c2.968-5.126 8.534-8.217 14.454-8.026 11.522 0 19.119 9.108 19.119 23.176zm-9.58 0c0-9.191-4.75-15.233-11.997-15.233-7.119 0-11.908 6.169-11.908 15.233 0 9.146 4.789 15.272 11.908 15.272 7.247 0 11.996-5.998 11.996-15.272z"/><path d="m359.554 113.834c.69 6.174 6.689 10.228 14.885 10.228 7.854 0 13.505-4.054 13.505-9.621 0-4.833-3.408-7.727-11.477-9.71l-8.07-1.944c-11.433-2.762-16.741-8.109-16.741-16.785 0-10.743 9.362-18.123 22.651-18.123 13.162 0 22.181 7.38 22.485 18.123h-9.406c-.563-6.214-5.7-9.965-13.206-9.965-7.507 0-12.643 3.795-12.643 9.318 0 4.402 3.281 6.992 11.306 8.975l6.86 1.685c12.775 3.021 18.078 8.153 18.078 17.26 0 11.649-9.274 18.945-24.032 18.945-13.808 0-23.131-7.125-23.734-18.387z"/><path d="m417.901 75.043v10.743h8.632v7.379h-8.632v25.026c0 3.888 1.728 5.7 5.523 5.7 1.025-.018 2.048-.09 3.065-.216v7.335c-1.706.319-3.44.464-5.175.431-9.191 0-12.775-3.452-12.775-12.256v-26.02h-6.601v-7.379h6.601v-10.743z"/><path d="m431.528 108.487c0-14.284 8.412-23.259 21.53-23.259 13.162 0 21.535 8.975 21.535 23.259 0 14.322-8.329 23.258-21.535 23.258-13.201 0-21.53-8.936-21.53-23.258zm33.57 0c0-9.798-4.49-15.581-12.04-15.581-7.551 0-12.041 5.827-12.041 15.581 0 9.837 4.49 15.575 12.041 15.575 7.55 0 12.041-5.738 12.041-15.575z"/><path d="m482.275 85.786h8.888v7.727h.215c1.235-4.956 5.816-8.397 10.919-8.202 1.074-.003 2.145.113 3.193.348v8.716c-1.356-.414-2.77-.605-4.187-.563-.126-.005-.253-.008-.38-.008-5.151 0-9.39 4.239-9.39 9.389 0 .355.02.71.061 1.063v26.926h-9.319z"/><path d="m548.452 117.849c-1.254 8.241-9.279 13.896-19.547 13.896-13.206 0-21.403-8.848-21.403-23.043 0-14.239 8.241-23.474 21.011-23.474 12.56 0 20.458 8.628 20.458 22.392v3.192h-32.062v.564c-.031.346-.047.694-.047 1.043 0 6.486 5.338 11.823 11.824 11.823.145 0 .29-.003.435-.008 4.508.422 8.789-2.185 10.483-6.385zm-31.499-13.549h22.695c.011-.202.017-.404.017-.607 0-5.989-4.928-10.917-10.917-10.917-.078 0-.157.001-.235.003-.023-.001-.045-.001-.068-.001-6.305 0-11.492 5.188-11.492 11.493z"/></g></svg>