<svg clip-rule="evenodd" fill-rule="evenodd" stroke-linejoin="round" stroke-miterlimit="2" viewBox="0 0 600 80" xmlns="http://www.w3.org/2000/svg"><path d="m37.242 79.479-12.414-20.69v20.69h-24.828v-78.621h37.242c12.413 0 24.827 8.276 24.827 24.828s-12.414 20.69-16.552 20.69l20.69 33.104zm318.62-53.793c-8.276 0-12.414 4.138-12.414 12.414v16.552c0 16.552-4.137 24.828-37.241 24.828v-24.828c8.276 0 16.552 0 16.552-12.414v-20.689c0-8.276 4.138-20.69 33.103-20.69zm-277.241 53.793c-8.276 0-16.551-8.276-16.551-20.69 0-14.102 12.413-16.551 16.551-16.498 1.508.02 7.051-.053 8.276-.053 8.276 0 4.139-8.277 0-8.277h-16.551v-16.552h33.103c8.276 0 11.379 8.276 11.379 16.552 0 8.277 1.035 45.518 1.035 45.518zm107.588 0h-33.104c-24.829 0-28.966-20.69-28.966-33.103 0-7.612 4.138-28.967 28.966-28.967h8.276v-16.552h24.828zm28.964 0h-20.69v-62.069h20.69zm35.172 0c-17.14 0-31.035-13.894-31.035-31.035 0-17.139 13.895-31.034 31.035-31.034s31.035 13.895 31.035 31.034c0 17.141-13.895 31.035-31.035 31.035zm167.585 0h-24.827v-37.241c0-4.138-8.276-4.138-8.276 0v37.241h-20.69v-78.621h20.69v20.69c8.276-8.276 33.103-4.138 33.103 12.414zm20.69 0c-8.276 0-16.552-8.276-16.552-20.69 0-14.102 12.415-16.551 16.552-16.498 1.507.02 7.051-.053 8.276-.053 8.277 0 4.138-8.277 0-8.277h-16.551v-16.552h33.102c8.277 0 11.38 8.276 11.38 16.552 0 8.277 1.034 45.518 1.034 45.518zm103.268-27.668-21.759-.022c-1.752-3.224-5.168-5.413-9.096-5.413-5.712 0-10.345 4.631-10.345 10.345 0 5.712 4.633 10.344 10.345 10.344 3.987 0 7.447-2.254 9.173-5.558l18.988-.002c-4.931 10.614-15.687 17.974-28.161 17.974-17.14 0-31.035-13.894-31.035-31.035 0-17.139 13.894-31.034 31.035-31.034 17.139 0 31.035 13.895 31.035 31.034.001 1.137-.061 2.26-.18 3.367zm33.284 27.668-8.276-24.827h-4.138v24.827h-16.551v-78.621h16.551v33.104h4.139l8.276-12.414h20.69l-12.415 20.69 16.552 37.241zm-430.344-22.758c0 5.712 4.632 10.344 10.344 10.344 5.714 0 10.345-4.632 10.345-10.344 0-5.714-4.631-10.345-10.345-10.345-5.712 0-10.344 4.631-10.344 10.345zm299.998-10.345c-5.712 0-10.345 4.631-10.345 10.345 0 5.712 4.633 10.344 10.345 10.344 5.713 0 10.345-4.632 10.345-10.344.001-5.714-4.631-10.345-10.345-10.345zm-359.998 0c-5.713 0-10.345 4.631-10.345 10.345 0 5.712 4.632 10.344 10.345 10.344s10.345-4.632 10.345-10.344c0-5.714-4.632-10.345-10.345-10.345zm165.517 0c-5.712 0-10.345 4.631-10.345 10.345 0 5.712 4.633 10.344 10.345 10.344 5.714 0 10.345-4.632 10.345-10.344 0-5.714-4.631-10.345-10.345-10.345zm-223.448-16.553c-5.713 0-10.345 4.632-10.345 10.345 0 5.714 4.632 10.345 10.345 10.345s10.345-4.631 10.345-10.345c0-5.713-4.632-10.345-10.345-10.345z" fill="#fff"/></svg>