<svg clip-rule="evenodd" fill-rule="evenodd" stroke-linejoin="round" stroke-miterlimit="2" viewBox="0 0 600 572" xmlns="http://www.w3.org/2000/svg"><g fill="#fff"><path d="m178.777 366.658h-69.796c-5.475 0-9.869 4.446-9.869 9.922 0 0 .021 0 .021.064h-.021v49.803h.021l-.021.042c0 5.455 4.394 9.944 9.869 9.944h69.796v33.226h-87.093v-.085c-14.252 0-25.777-11.524-25.777-25.734v-84.685c0-14.135 11.525-25.66 25.777-25.66h87.093z"/><path d="m203.976 274.177c0 14.486-11.705 26.138-26.127 26.138h-112.022v-33.672h94.448c5.561 0 10.018-4.542 10.018-10.071v-111.301c0-5.55-4.457-10.049-10.018-10.049h-50.758c-5.55 0-10.018 4.499-10.018 10.049v50.652c0 5.561 4.468 10.071 10.018 10.071h40.549v33.673h-58.122c-14.454 0-26.117-11.674-26.117-26.117v-85.895c0-14.432 11.663-26.127 26.117-26.127h85.905c14.422 0 26.127 11.695 26.127 26.127z"/><path d="m534.07 469.574h-33.195v-102.916h-23.325c-5.487 0-9.88 4.446-9.88 9.922v92.994h-33.195v-102.916h-23.336c-5.497 0-9.891 4.446-9.891 9.922v93.079h-33.184v-110.504c0-14.135 11.493-25.66 25.745-25.66h140.261z"/><path d="m534.163 274.177c0 14.486-11.715 26.138-26.116 26.138h-112.033v-33.672h94.449c5.582 0 10.06-4.542 10.06-10.071v-111.301c0-5.55-4.478-10.049-10.06-10.049h-50.748c-5.497 0-9.986 4.499-9.986 10.049v50.652c0 5.561 4.489 10.071 9.986 10.071h40.528v33.673h-58.091c-14.454 0-26.138-11.674-26.138-26.117v-85.895c0-14.432 11.684-26.127 26.138-26.127h85.895c14.401 0 26.116 11.695 26.116 26.127z"/><path d="m335.313 145.265v50.652c0 5.561-4.362 10.081-9.933 10.081h-50.737c-5.571 0-10.028-4.52-10.028-10.081v-50.652c0-5.55 4.457-10.039 10.028-10.039h50.737c5.571 0 9.933 4.489 9.933 10.039zm7.651-43.733h-85.937c-14.432 0-26.095 11.695-26.095 26.128v85.894c0 14.433 11.663 26.117 26.095 26.117h85.937c14.39 0 26.106-11.684 26.106-26.117v-85.894c0-14.433-11.716-26.128-26.106-26.128"/><path d="m308.288 376.576v49.866c0 5.476-4.393 9.944-9.848 9.944-.053 0-.064-.053-.117-.053v.053h-49.792v-.053s-.053.053-.106.053c-5.476 0-9.869-4.468-9.869-9.944v-49.866c0-5.476 4.393-9.922 9.869-9.922h50.015c5.455 0 9.848 4.446 9.848 9.922zm7.46-43.085h-84.642c-14.252 0-25.756 11.524-25.756 25.66v84.685c0 14.209 11.504 25.734 25.756 25.734h84.642c14.199 0 25.724-11.525 25.724-25.734v-84.685c0-14.136-11.525-25.66-25.724-25.66"/><path d="m587.244 527.42c0 8.553-3.449 16.237-9.052 21.85-5.603 5.593-13.297 9.031-21.829 9.031h-512.726c-8.543 0-16.226-3.438-21.829-9.031-5.603-5.613-9.031-13.297-9.052-21.85v-483.68c.021-8.543 3.449-16.216 9.052-21.829 5.603-5.593 13.286-9.031 21.829-9.042h512.726c8.532.011 16.226 3.449 21.829 9.042 5.603 5.613 9.052 13.286 9.052 21.829zm-.042-514.53c-7.874-7.895-18.805-12.777-30.839-12.777h-512.726c-12.034 0-22.965 4.882-30.839 12.777-7.895 7.875-12.798 18.826-12.798 30.85v483.68c0 12.034 4.903 22.986 12.798 30.86 7.874 7.885 18.805 12.788 30.839 12.788h512.726c12.034 0 22.965-4.903 30.839-12.788 7.895-7.874 12.798-18.826 12.798-30.86v-483.68c0-12.024-4.903-22.975-12.798-30.85" fill-rule="nonzero"/></g></svg>