<svg clip-rule="evenodd" fill-rule="evenodd" stroke-linejoin="round" stroke-miterlimit="2" viewBox="0 0 595 132" xmlns="http://www.w3.org/2000/svg"><path d="m115.19.173-5.166 4.641h-30.126l11.959 12.584c.211.221.715.62-.56 1.018-16.989 5.302-28.867 16.695-28.867 28.819 0 6.449 1.857 8.246 3.475 11.243l-7.781 7.791h-16.243v-17.248l22.815-23.139c9.354-9.347 2.074-21.068-8.12-21.068h-48.406l13.032 13.835.078-5.728h14.345c4.129 0 5.448 3.861 1.902 7.454l-12.014 12.175-3.57-3.248v28.859c-9.13 4.476-18.284.847-21.943-1.025 4.53 4.928 15.617 8.024 21.943 6.213v5.46h108.175c9.603 0 13.479-5.837 13.479-11.386 0-2.955-1.16-6.038-3.728-8.673l-26.187-26.867c-.37-.402-.092-.973.412-.973h22.574c.983 11.759 4.08 15.962 9.444 21.28l27.938 27.697v-38.977l9.851-10h19.86l-16.539 16.497 58.37 58.915-4.731 5.138c14.924 14.356 42.847 30.467 73.487 30.467 60.657 0 91.905-46.187 100.189-63.118h45.046c9.603 0 13.479-5.837 13.479-11.386 0-2.955-1.155-6.043-3.728-8.673l-26.754-27.35c-.143-.146-.206-.321-.214-.49h41.386v47.831l19.348-19.516v-28.315h22.267c1.176 0 1.343 1.119.734 1.576-10.176 7.636-14.858 17.955-14.858 25.219 0 4.881 1.245 8.481 3.577 11.062.956 1.057.814 2.455.035 3.123l-.965.025-6.901 6.894h74.532c9.603 0 13.479-5.837 13.479-11.386 0-2.955-.358-6.036-2.924-8.673l-26.011-26.727c-.424-.447-.132-1.113.485-1.113h22.365l-3.457-3.457h-35.475l-3.509-3.565c-.327-.331-.122-.967.479-.967h33.973l-12.323-12.323-4.327 4.216h-32.975l40.359 40.084c2.654 2.637 1.018 5.781-3.238 5.781h-34.802l-1.228 1.229-4.241-4.241-10.145 10.135c-.686.523-.946.262-1.595-.412-1.688-1.753-2.327-5.381-2.327-8.617 0-12.672 11.072-24.809 24.679-31.32h-35.663v-12.707h-19.338l11.125 11.054c.608.605.589 1.653-.54 1.653h-66.302l-3.509-3.565c-.327-.331-.377-.967.452-.967h32.415l-12.748-12.748-5.166 4.641h-30.126l13.311 13.22c.867.861.69 2.209-1.085 2.625-22.995 5.391-31.498 20.231-31.498 29.463 0 3.286 1.541 7.837 3.432 10.177l-8.472 8.51h26.873c-10.807 18.419-40.723 59.252-91.318 58.817-28.039-.241-49.064-14.952-65.638-31.704v-34.095l-8.66 8.09-32.314-32.975 15.999-16.032h32.811v72.467l19.883-19.88.161-53.401 23.8 8.1v35.42l15.436 5.333v-48.039h9.218c-.364 1.567-.558 3.231-.558 4.985 0 6.329 3.885 17.434 11.848 25.397l18.371 18.371 25.274-25.428v-21.39l-12.097-12.142c-.287-.289-.211-.905.427-.905h8.175l4.161 4.289 9.326-9.273h-42.934c-9.064 0-17.389 4.673-20.853 12.639h-10.358v-12.378l-15.436 9.424v5.148l-43.844-15.225v13.031h-29.362l12.765-12.639h-38.238l5.884 6.032-6.625 6.607h-19.921l12.452-12.639h-33.656l6.266 6.301-16.122 16.209-11.725-11.418 10.856-11.092h-27.209l26.023 25.942v11.803c-11.535-3.206-15.377-13.664-15.808-25.106h-39.804l-3.509-3.565c-.327-.331-.377-.967.452-.967h32.415l-12.748-12.748zm242.122 9.625h9.555l13.67 13.813c.691.698.593 1.261 0 1.857l-18.328 18.26c-.51.507-1.145.533-1.668 0l-9.228-9.399c-9.392-9.567-6.767-24.531 5.999-24.531zm-263.096 11.117c1.325 0 1.813.455 2.4 1.025l23.641 22.958c2.684 2.607 1.019 5.781-3.238 5.781h-34.802l-1.228 1.229-4.241-4.241-9.467 9.447c-1.946-2.322-3.195-5.163-3.195-9.947 0-11.311 11.391-21.95 29.043-26.058.188-.044.606-.194 1.087-.194zm332.96 1.591 22.546 22.392c2.684 2.607 1.019 5.781-3.238 5.781h-34.802l-3.316 3.214-4.241-4.241-9.705 9.748c-1.627-2.315-2.156-5.552-2.156-8.515 0-12.654 16.363-26.595 34.912-28.379z" fill="#fff" fill-rule="nonzero"/></svg>