<svg clip-rule="evenodd" fill-rule="evenodd" stroke-linejoin="round" stroke-miterlimit="2" viewBox="0 0 601 90" xmlns="http://www.w3.org/2000/svg"><g fill="#fff"><path d="m598.034 47.595c0-12.335.228-25.052-30.372-25.052-15.175 0-32.198 2.961-32.938 20.975h22.692c.133-2.706 1.627-6.539 9.139-6.539 3.963 0 8.025 1.613 8.025 5.934 0 4.076-3.339 5.056-6.659 5.678-12.471 2.343-36.147 1.596-36.147 21.847 0 13.444 10.223 19.367 22.575 19.367 7.909 0 15.421-1.737 20.607-7.655h.248c-.126 1.73.239 4.327.864 6.048h24.927c-2.721-4.072-2.952-9.502-2.952-14.32v-26.273zm-23.454 17.77c-.374 6.663-4.682 9.986-10.246 9.986-4.426 0-7.651-2.951-7.651-5.903 0-4.331 2.837-5.694 8.266-6.917 3.346-.755 6.668-1.61 9.629-3.091v5.925z"/><path d="m528.465.095h-24.422v31.09h-.252c-3.698-5.434-10.246-8.636-17.523-8.636-21.473 0-27.272 18.267-27.272 33.314 0 16.046 8.758 33.943 26.903 33.943 11.973 0 15.665-4.571 18.756-8.652h.254v7.04h23.564v-88.093l-.008-.006zm-23.558 56.02c0 7.639-1.975 15.913-10.723 15.913-8.767 0-10.75-8.273-10.75-15.913 0-7.527 1.975-15.799 10.743-15.799 8.742 0 10.723 8.272 10.723 15.799z"/><path d="m456.412 42.774c-.609-16.399-17.269-20.225-31.088-20.225-12.835 0-30.238 4.198-30.238 20.362 0 10.979 7.523 16.905 26.159 20.111 11.352 1.973 13.451 3.083 13.451 6.792 0 3.702-5.056 4.936-8.258 4.936-2.967 0-5.304-.753-6.544-1.856-1.857-1.595-2.832-2.271-2.952-4.503h-23.316c.359 16.543 16.905 21.417 31.944 21.417 15.55 0 32.593-4.821 32.593-22.59 0-10.494-7.163-15.303-15.308-17.898-8.148-2.709-17.388-3.205-21.465-4.941-1.349-.611-2.832-1.469-2.832-3.33 0-4.188 3.942-4.926 7.403-4.926 1.973 0 3.955.616 5.419 1.85 1.618 1.107 2.719 2.71 2.852 4.809z"/><path d="m394.944 61.654c-.002-24.916-10.973-39.109-36.401-39.109-20.244 0-33.817 15.182-33.817 33.816 0 21.339 15.43 33.434 35.928 33.434 14.539 0 28.009-7.594 32.926-21.415h-22.812c-1.965 3.085-6.296 5.733-10.254 5.733-7.639 0-11.843-5.19-12.451-12.459zm-46.769-12.702c1.107-6.907 5.312-10.732 12.597-10.732 6.296 0 10.723 4.808 10.723 10.742h-23.318z"/><path d="m254.93 88.194h24.429v-33.81c0-10.246 5.552-12.35 9.756-12.35 7.147 0 8.013 5.189 8.013 12.589v33.571h24.442v-43.938c0-14.682-10.504-21.713-21.984-21.713-10.353 0-15.793 3.587-19.991 8.514h-.242v-30.961h-24.422z"/><path d="m237.783 4.652h-24.426v19.504h-10.857v14.486l.261.562h10.596v30.61c0 17.516 11.478 19.119 21.847 19.119 5.178 0 10.738-.737 15.672-.737v-18.521c-1.857.262-3.702.378-5.56.378-6.163 0-7.527-2.591-7.527-8.51v-22.343h13.083v-15.045h-13.089z"/><path d="m202.761 39.204h-.261v-.562c-5.396-10.443-15.689-16.097-31.728-16.097-20.25 0-33.816 15.182-33.816 33.816 0 21.339 15.428 33.434 35.917 33.434 14.548 0 28.009-6.417 32.936-20.244h-22.82c-1.977 3.087-6.301 4.566-10.258 4.566-7.632 0-11.829-5.19-12.45-12.463l46.888-.004.004.009c0-8.916-1.407-16.459-4.412-22.455zm-42.357 9.748c1.118-6.907 5.304-10.732 12.596-10.732 6.283 0 10.723 4.808 10.723 10.742h-23.317z"/><path d="m53.58 88.194h49.965c15.554 0 30.849-9.139 30.849-26.779 0-12.955-7.403-19.244-15.295-21.967 6.544-3.568 10.845-8.389 10.845-17.267.002-9.016-4.921-22.086-28.122-22.086h-48.242zm27.132-37.393h17.032c6.417 0 9.502 2.831 9.502 8.027 0 6.785-4.926 8.391-10.608 8.391h-15.926zm0-29.736h14.319c5.553 0 9.25 1.602 9.25 6.048 0 5.676-3.577 7.283-9.25 7.283h-14.319z"/><path d="m.995 0v38.473h37.714v-38.473h-37.714zm24.422 24.922h-11.142v-11.365h11.142z"/></g></svg>