<svg clip-rule="evenodd" fill-rule="evenodd" stroke-linejoin="round" stroke-miterlimit="2" viewBox="0 0 600 750" xmlns="http://www.w3.org/2000/svg"><g fill="#fff"><path d="m0 749.222v-666.441h158.659v515.485h441.341l-.005.006v150.95zm512.506-24.332-.157-.119-.004-.002c.001.001.001.002-.002.002-.405-.302-.738-.567-.998-.812-.291-.26-.578-.561-.874-.905-1.43-1.674-2.091-3.557-1.992-5.643.057-1.165.296-2.262.728-3.277v-.01c.442-1.03 1.072-1.94 1.883-2.72.759-.744 1.706-1.389 2.835-1.925v.005c1.045-.504 2.247-.92 3.604-1.264.64-.156 1.841.203 2.419.697-.141-.145-.276-.296.01-.01 0 .005.021.031.052.068.047.036.088.083.12.119l-.011.005c.021.026.042.047.047.047.432.557.739.947.895 1.139.249.307.541.656.858 1.02 1.373 1.602 2.58 2.782 3.615 3.563l.01.01c.609.468 1.196.806 1.748 1.02l.005-.006c.494.193.978.292 1.446.292.619 0 1.17-.11 1.644-.312h.01c.458-.193.874-.505 1.259-.916.411-.458.733-.978.957-1.571.234-.639.374-1.409.421-2.309.005-.088.005-.073.005-.12v-.541c0-.109-.01-.301-.021-.546-.072-.972-.249-1.992-.546-3.058l-.01-.031c-.229-.853-.541-1.779-.905-2.757-.385-1.009-.832-2.091-1.342-3.225 0-.005-.011-.015-.011-.021 0-.005 0-.01-.005-.015-.187-.375-.504-.999-1.04-2.06-.416-.816-.905-1.773-1.482-2.876l-.016-.037c-1.763-3.505-3.074-6.553-3.927-9.138-.926-2.762-1.337-5.061-1.248-6.892.047-1.082.224-2.169.52-3.251v-.01c.286-1.051.687-2.086 1.196-3.11.52-1.046 1.139-2.039 1.836-2.949h.011c.723-.952 1.529-1.842 2.408-2.679l.005.005c1.337-1.279 2.809-2.46 4.421-3.511 1.576-1.035 3.36-2.018 5.357-2.928l-.005-.005.042-.016.01-.01c.385-.177.926-.406 1.592-.682.634-.265 1.154-.462 1.545-.608v.01c2.673-.972 5.045-1.451 7.084-1.451h.026c1.466.005 2.866.224 4.181.65.146.052.344.125.635.234h.01c1.082.427 2.097 1.004 3.043 1.732v-.005c.063.047.146.109.245.193.296.234.577.478.853.749.01.005.01.005.01.01.317.307.567.567.754.796v.021c1.269 1.534 1.857 3.209 1.774 5.008-.047.963-.338 1.888-.89 2.778-.457.738-1.097 1.446-1.908 2.138-.011.005-.011.015-.021.02-.718.604-1.607 1.223-2.674 1.842-1.014.587-2.205 1.191-3.547 1.82-.712.328-2.216.083-2.783-.447l-1.066-1.02c-.307-.296-.629-.587-.946-.884-1.524-1.389-2.83-2.439-3.891-3.157v.005l-.031-.021-.011-.01c-.244-.161-.426-.286-.556-.364-.161-.104-.328-.193-.489-.281l-.01-.01c-.661-.349-1.171-.521-1.524-.521h-.026c-.349 0-.651.058-.879.167-.052.021-.084.036-.094.047v.005c-.172.099-.328.244-.468.421l.005.005-.047.058.011.005c-.094.125-.151.224-.182.281l-.011.01c-.052.094-.109.208-.161.333-.307.723-.499 1.696-.546 2.928-.011.089-.011.047-.011.11l-.01.514h.005c-.01 0-.01.006-.01.011l.026.51c.062.931.223 1.919.499 2.954l.011.026c.213.842.488 1.722.821 2.616l.011.011c.364.993.78 2.007 1.258 3.032 0 .005.006.015.011.021l-.005.005c.171.369.494 1.03.92 1.909.375.775.801 1.638 1.269 2.595l.021.031c.016.037-.052-.109.234.5 0 .01.011.015.011.02.499 1.062.957 2.045 1.352 2.939.426.957.811 1.857 1.149 2.7 1.842 4.514 2.71 7.911 2.601 10.163-.042.822-.172 1.685-.395 2.59-.208.858-.5 1.722-.853 2.595h-.005l-.006.016-.01.016c-.12.301-.234.556-.333.759-.14.302-.265.541-.354.728l-.01.011c-.64 1.217-1.43 2.397-2.346 3.542l.011.005c-1.426 1.831-3.007 3.506-4.734 5.03-1.716 1.518-3.557 2.855-5.518 4.01l-.062.041v-.01c-.567.333-1.098.64-1.602.9-.479.249-1.004.509-1.592.769v.006c-2.793 1.258-5.394 1.883-7.771 1.883-1.799 0-3.464-.224-4.998-.666-1.581-.453-3.017-1.145-4.307-2.055l-.021-.021c-.078-.058.035.033-.045-.026zm-146.39-66.158.161-.001c2.403 0 4.353.905 5.841 2.72v-.005c.021.015.073.083.145.182l.006-.005c.161.213.333.468.525.775l.005-.006c.135.224.286.505.437.838 0 .005 0 .01.011.015h-.006c.619 1.379.89 2.934.807 4.671-.089 1.789-.453 3.485-1.108 5.092-.64 1.581-1.566 3.069-2.773 4.447l-.031.052-.015.016-.011-.005c-.333.374-.676.733-1.009 1.055-.364.344-.754.677-1.149.999-2.003 1.607-4.421 2.871-7.256 3.787-.915.296-2.419-.271-2.923-1.082l-.858-1.389c-.396-.64-.364-2.133.062-2.752.276-.4.525-.811.744-1.211.203-.385.39-.781.546-1.181.031-.104.042-.141.052-.156.042-.12.083-.213.104-.286.01-.031.042-.141.083-.291.063-.25.109-.5.146-.744-.739.738-1.904 2.174-3.527 4.296l-.005.01c-.374.494-.811 1.072-1.29 1.732-.426.588-.905 1.264-1.42 2.008-2.59 3.735-5.726 8.572-9.378 14.538l-.01.02c-1.191 1.92-2.507 4.115-3.942 6.58v.01c-1.514 2.585-3.106 5.368-4.786 8.354l-.02.031c-.786 1.42-1.509 2.689-2.154 3.771-.671 1.128-1.342 2.215-2.013 3.24-3.687 5.685-6.808 8.53-9.32 8.53-.905 0-1.727-.14-2.46-.406h-.011c-.848-.317-1.56-.79-2.127-1.425l-.031-.041c-.531-.619-.916-1.384-1.134-2.279-.187-.759-.26-1.591-.219-2.491v-.01c.016-.266.011-.229.011-.229v-.031s.01-.073.062-.437c0-.016.011-.104.063-.448l-.006-.005c.11-.707.292-1.534.541-2.455h.006c.192-.723.416-1.482.67-2.278.219-.692.521-1.586.895-2.668v-.021l13.737-38.193c-.255.65-.058.136.02-.067l.009-.009.007-.017c0-.003.001-.004.003-.005l.002-.001h-.005c.008-.02.016-.034.019-.036.034-.088.075-.182.116-.296.115-.318.224-.609.323-.869-.827.551-1.836 1.373-3.017 2.45h.005l-.223.192c-.011.005-.021.016-.026.021-.38.343-.739.687-1.062 1.009l-.01.01c-.406.396-.827.822-1.259 1.264-2.215 2.299-4.624 5.129-7.183 8.473-.754.978-2.507 1.233-3.505.515l-1.717-1.248c-.769-.557-1.217-2.107-.863-2.991.031-.083.068-.161.083-.208.437-1.019.853-1.95 1.243-2.783.442-.941.9-1.851 1.373-2.751 2.424-4.603 5.144-8.395 8.146-11.36h-.006l.042-.031c.619-.603 1.222-1.16 1.805-1.638v-.011c.541-.457 1.165-.931 1.857-1.409 3.313-2.294 6.735-3.438 10.246-3.438 1.29 0 2.46.119 3.516.369h.011c1.139.265 2.148.687 3.016 1.238l.031.01c.958.63 1.696 1.41 2.195 2.346.521.968.76 2.034.708 3.183v.011h-.005c-.011.275-.058.593-.12.962v.01c-.062.297-.12.567-.193.822v.016c-.005.015-.01.026-.01.041 0 0 0 .006-.005.011 0 .005.005.015 0 .021l-.005-.006c-.084.338-.167.651-.266.942l-.01.01c-.109.328-.224.65-.343.978l-.011.016-6.616 17.72c.432-.723.859-1.414 1.28-2.106 4.046-6.627 7.443-11.703 10.163-15.214h.01l.006-.005c.775-1.004 1.55-1.956 2.293-2.824.749-.864 1.488-1.67 2.221-2.414 3.979-4.029 7.665-6.078 11.043-6.141zm54.171 60.51c.02-.354.114-.811.28-1.373h.006c.135-.468.301-.952.489-1.467l.223-.572 15.651-44.003-10.855.104c-1.717.011-2.996-1.799-2.398-3.412l1.675-4.525c.223-.593 1.342-1.524 1.966-1.628l13.69-2.319 4.254-9.727.031-.057c.448-.957.885-1.737 1.311-2.346.557-.79 1.16-1.383 1.81-1.768l.042-.031c.041-.026-.115.031.223-.115.141-.073.276-.13.396-.182l.587-.203.021-.01c.874-.265 1.961-.401 3.23-.401.702 0 1.327.058 1.899.177.712.151 1.326.401 1.836.739l.047.031c.639.447 1.107 1.03 1.409 1.753v.021c.255.619.369 1.3.333 2.013l-.062.769-.084.76c-.041.203-.104.421-.182.66h.005c-.005.011-.005.016-.005.026 0 0-.005 0-.005.005-.047.146-.099.281-.146.401l.006.005-2.627 7.573 17.174.432c1.743.041 2.96 1.95 2.263 3.558l-2.601 5.893c-.312.691-1.565 1.518-2.319 1.518h-18.179l-13.065 38.885c.275-.151.546-.307.827-.463 1.68-.983 3.438-2.2 5.279-3.625l.016-.006c.691-.541 1.196-.951 1.57-1.248.354-.296.885-.749 1.618-1.378h.01c2.83-2.46 5.909-5.451 9.222-8.983.884-.946 2.705-.972 3.625-.062l1.504 1.498c.801.796.905 2.496.197 3.375l-.01.016-.005-.005c-.801 1.087-1.644 2.195-2.507 3.308-.937 1.196-1.79 2.262-2.559 3.188-4.411 5.311-8.806 9.747-13.201 13.315l-.005.021-.026.021-.005-.01c-1.535 1.237-2.996 2.33-4.39 3.266-1.441.962-2.814 1.768-4.104 2.408-2.767 1.373-5.29 2.06-7.542 2.06-.978 0-1.945-.224-2.902-.671-.853-.401-1.68-.978-2.471-1.737l-.223-.224c0-.005-.011-.005-.011-.01-.192-.193-.385-.406-.567-.635-.192-.234-.359-.463-.51-.681l-.005-.011c-.832-1.248-1.217-2.559-1.154-3.911zm-172.282-100.243h.113c.642.008 1.289.197 1.687.556l1.082.978c.328.296.853 1.492.843 1.929l-1.363 75.522v5.129c0 3.438.255 6.241.765 8.4.437 1.878 1.045 3.188 1.81 3.927.827.806 2.241 1.513 4.244 2.132 2.231.692 5.108 1.223 8.629 1.602 1.425.146 2.533 1.722 2.19 3.116l-.536 2.169c-.234.978-1.535 1.971-2.538 1.94l-3.054-.089c-2.096-.052-4.259-.098-6.475-.124-.406-.006-.843-.016-1.259-.016l-1.638-.016c-.713-.005-1.467-.01-2.232-.015-2.767-.016-6.085-.026-9.955-.026-.759 0-1.492.005-2.205.005-1.779 0-3.422.005-4.92.01-.734 0-1.446.006-2.138.011-2.013.01-3.74.026-5.149.047-.188 0-.375.005-.562.005v.005l-1.285.021c-.374.005-.816.015-1.248.026-1.935.041-3.828.099-5.659.156-1.659.062-2.98-1.639-2.517-3.241l.671-2.309c.218-.759 1.399-1.737 2.189-1.815 3.329-.328 6.096-.9 8.296-1.727 1.992-.754 3.485-1.685 4.463-2.814.036-.047-.078.094.042-.057l.01-.016c.25-.307.489-.655.702-1.04.239-.437.473-.952.692-1.524 1.207-3.183 1.909-8.083 2.091-14.673l.343-12.42h-28.165l-12.972 19.198c-.91 1.352-1.669 2.543-2.278 3.578-.598 1.02-1.118 2.018-1.565 2.96-.411.884-.708 1.638-.885 2.267-.156.536-.234.999-.234 1.389 0 .702.651 1.436 1.946 2.211v.01c.894.536 2.059 1.035 3.495 1.493 1.508.489 3.313.936 5.409 1.336 1.431.271 2.403 1.946 1.925 3.319l-.765 2.174c-.296.843-1.602 1.737-2.491 1.701-.214-.011-.344-.016-.432-.021-1.737-.052-5.633-.161-7.531-.192l-1.093-.016c-.457-.005-.941-.01-1.414-.016-.625-.005-1.296-.01-1.966-.015-2.45-.016-5.41-.026-8.874-.026-.718 0-1.415.005-2.091.005-1.68 0-3.24.005-4.66.01-.713 0-1.399.006-2.044.011-1.925.01-3.579.026-4.947.047l-.556.01h.005c-.421.005-.837.016-1.243.021-.364.005-.796.015-1.217.026-1.888.041-3.761.099-5.602.156-1.503.062-2.824-1.462-2.554-2.975l.417-2.31c.15-.821 1.227-1.888 2.064-2.059h.016c.031-.006.078-.011.026-.006.016 0 .036-.005.057-.005.687-.109 1.191-.187 1.545-.255.401-.078.874-.166 1.488-.306h.01c2.471-.526 4.686-1.212 6.642-2.05l.021-.01c.364-.156.744-.328 1.118-.51.432-.208.806-.395 1.103-.556v-.006c1.867-.998 3.641-2.226 5.295-3.661l-.006-.006c1.15-1.009 2.575-2.47 4.265-4.353h.011c1.727-1.924 3.698-4.255 5.903-6.996l.011-.005c2.195-2.71 4.8-6.054 7.812-10.012 3.001-3.948 6.345-8.426 10.033-13.425l31.426-42.827.016-.041c.572-.754 1.076-1.472 1.503-2.154v-.01c.457-.739.879-1.477 1.248-2.226l.016-.026.01-.011c.094-.176.198-.395.307-.634.078-.167.177-.385.291-.64.489-1.108.9-2.221 1.228-3.329.218-.754 1.388-1.721 2.169-1.804.78-.084 1.576-.224 2.377-.427.78-.192 1.56-.447 2.33-.765v.006c.733-.307 1.487-.682 2.273-1.129.785-.453 1.534-.947 2.247-1.467.357-.264.87-.398 1.398-.41zm-146.269 78.169h-5.856v-17.508h6.897c2.085 0 3.536-.338 4.384-1.003.848-.666 1.259-1.831 1.259-3.48 0-1.618-.416-2.736-1.243-3.36-.827-.619-2.283-.947-4.4-.947h-5.046c-1.971 0-3.713.552-5.248 1.628-1.518 1.077-3.287 3.178-5.331 6.221l-4.962 7.365c-.25.364-.634.983-1.149 1.768-2.32 3.548-4.447 5.951-6.377 7.251-1.446.978-3.032 1.696-4.816 2.132-1.759.432-3.901.645-6.377.645h-4.744c-5.997 0-10.61-2.075-13.835-6.215-3.23-4.151-4.853-10.085-4.853-17.778 0-7.864 1.509-13.523 4.53-16.966 3.017-3.438 8.01-5.144 15.001-5.144h5.732v17.991h-6.575c-2.387 0-4.083.395-5.087 1.186-.988.78-1.492 2.116-1.492 3.989 0 1.893.473 3.193 1.404 3.948.921.738 2.637 1.123 5.175 1.123h3.001c2.174 0 4.063-.525 5.659-1.591 1.597-1.067 3.626-3.615 6.289-7.542l4.993-7.365c2.377-3.511 4.889-6.08 7.583-7.61 2.694-1.529 5.909-2.288 9.628-2.288h6.787c5.228 0 9.451 2.106 12.665 6.335 3.215 4.229 4.817 9.882 4.817 16.951 0 6.678-1.545 11.734-4.655 15.151-3.106 3.407-7.703 5.113-13.758 5.113zm229.077-23.274.002-.002-.003.004c-.004.009-.008.018-.008.027v-.02c.004 0 .005-.003.008-.007zm-96.669-.896.588-28.857-20.737 28.857zm-115.166-139.206v24.295l-77.618 15.161v-18.324l16.254-2.444v-15.89l-16.254-3.178v-16.717zm-13.362 11.432-35.997-6.216v11.693l35.997-4.988zm-8.103-105.596h-3.001v-16.613h1.685c4.941 0 8.192-.405 9.721-1.232s2.278-2.299 2.278-4.406c0-2.127-.754-3.63-2.278-4.457s-4.78-1.228-9.721-1.228h-32.097c-4.884 0-8.103.422-9.685 1.29-1.581.864-2.371 2.362-2.371 4.515 0 2.06.733 3.5 2.21 4.307 1.472.806 4.291 1.211 8.478 1.211h4.364v16.613h-4.26c-8.493 0-14.418-1.628-17.762-4.847-3.355-3.236-5.035-8.884-5.035-16.962 0-8.712 1.966-14.761 5.872-18.136 3.907-3.371 11.157-5.077 21.757-5.077h24.987c10.548 0 17.752 1.691 21.648 5.092 3.9 3.407 5.841 9.477 5.841 18.231 0 7.999-1.675 13.611-5.03 16.846-3.339 3.225-9.211 4.853-17.601 4.853zm21.465-176.109v17.138h-54.878c-4.941 0-8.176.406-9.685 1.233-1.508.822-2.262 2.325-2.262 4.494 0 2.158.754 3.615 2.262 4.426 1.509.812 4.744 1.207 9.685 1.207h54.878v17.2h-51.305c-10.491 0-17.715-1.674-21.678-5.045-3.969-3.36-5.951-9.326-5.951-17.882 0-8.545 1.956-14.464 5.873-17.788 3.901-3.329 11.156-4.983 21.756-4.983zm0-111.088v17.133h-62.94v17.268h-14.678v-34.401z"/><path d="m443.599 190.01c2.527-5.165 6.147-9.82 8.046-15.255 1.971-5.628 3.282-11.615 3.454-17.591.213-7.469 1.419-15.858-2.305-22.287-2.215-3.839-18.818-14.205-24.144-15.25-14.553-2.856-18.157 5.414-20.696 16.42-.827 3.589-1.066 5.919-2.293 9.383-1.878 5.264-5.748 16.691-5.748 22.288 0 5.815 6.013 28.518 0 30.494-9.856 3.241-20.768 2.445-31.046 1.176-2.928-.354-10.819.338-19.687-1.914-14.776-3.776-32.247-11.646-33.901-16.15-4.338-11.89-21.809-19.224-25.284-28.737-3.474-9.518-13.112-12.613-16.586-22.121-1.732-4.749-10.658-15.936-11.526-18.308-1.732-4.749-12.613-32.508-15.235-18.537-1.305 6.974-5.232 16.123.468 25.189 6.752 10.736 16.67 28.014 20.197 33.293 9.924 14.85 42.671 42.635 49.484 49.23 3.236 3.131 16.806 9.035 26.948 14.631-.744 3.116-1.42 6.268-2.481 9.227-2.112 5.94-.66 11.303-1.149 17.601-.703 9.035-1.228 17.971-2.299 26.979-1.223 10.314-7.615 22.069-8.66 37.246-.822 11.916-2.45 28.3-3.168 40.851-.983 17.351-1.524 30.625 2.133 43.534-1.254 15.224-8.931 37.803-18.657 49.443-3.75 4.489-6.57 25.258-9.352 31.301-3.599 7.818-10.028 20.795-10.215 30.417-.203 10.491-2.851 26.267-5.94 35.738-3.428 10.512-23.489 38.021-23.536 40.643-.437 22.729 25.325 3.12 25.543-8.244-.525-18.376 16.239-25.044 16.717-50.395.141-6.996 8.92-8.572 9.134-19.937.473-24.482-2.934-20.94 11.224-37.386 4.671-5.436 12.374-23.531 17.362-39.285 3.235-10.231 6.106-23.468 19.26-26.079 8.728-1.727 17.627 2.424 26.448 3.521 6.892.853 13.763 2.575 20.696 2.346 5.108-.167 9.851-3.126 14.943-3.522 9.94-.78 19.931 0 29.897 0 3.604 0 7.417.76 11.193 1.394 7.204 11.121 6.652 30.423 10.033 43.592 1.051 4.109-1.815 19.078-2.179 36.924-.286 13.882 2.054 29.512 1.685 43.212-.307 11.328 2.153 21.949 2.455 31.077.239 7.287.525 13.679 1.176 18.834 1.435 11.344 4.66 16.737 13.164 12.774l.65-56.808c1.696-14.829 2.611-31.613.702-48.07-1.035-8.936 1.628-32.305-2.824-50.759-3.579-14.912-.801-38.848-8.702-51.399-1.253-7.775-3.807-15.296-5.503-22.994-2.408-10.928-4.54-21.908-6.902-32.841-1.851-8.613-4.223-17.122-5.747-25.803-1.914-10.881-3.823-21.809-4.598-32.841-.759-10.923-2.143-22.121 0-32.841.598-2.995 2.237-5.747 4.099-8.42 13.294-1.738 26.417-4.76 32.117-6.783 8.889-3.141 44.341-13.575 59.549-23.015 5.404-3.36 23.832-12.218 30.792-24.722 0-5.362 12.524-8.452 14.314-15.661 3.578-14.412-10.736-5.009-14.314-1.321-1.79 1.841-17.887 12.213-21.466 15.895-7.152 7.381-17.003 11.287-24.149 18.667-7.157 7.381-25.944 2.741-34.885 11.963-4.546 4.692-21.346 5.956-41.896 6.84-14.033.608-18.912-4.348-16.81-16.847z"/><path d="m507.959 64.587c2.668-8.004 18.017-20.025 26.027-24.69 4.01-2.003 7.339-3.339 7.339-8.01 0-3.339-1.332-6.007-3.334-7.339-2.008-1.331-7.344-1.331-7.344 1.332 0 9.346-10.008 11.349-14.678 16.019-4.005 4.011-6.674 8.676-8.676 12.015-4.671 7.344-12.015 14.012-20.025 20.025-1.565 1.134-2.491 2.33-2.918 3.516-4.634-3.402-9.549-6.335-15.099-8.317-4.556-1.628-9.565-3.5-14.938-5.357.395-1.576 1.103-2.491 2.257-5.191 1.337-4.005 6.008-6.673 6.674-10.678.671-5.342 1.336-10.683 3.339-14.683 0-.671.671-4.005.671-6.002 0-5.342 6.668-12.02 6.668-17.352 0-.671 0-6.673-.666-6.673-5.336 0-6.673 1.332-7.339 6.673 0 2.669-.671 6.674-1.337 9.337-1.336 6.012-8.01 7.344-8.01 14.688 0 8.67-7.333 15.344-7.333 24.019 0 .598-.401 2.268-.723 3.922-10.569-3.407-22.256-6.418-34.313-7.204-5.024-.327-10.116-.078-15.224.442-1.857-9.726-2.507-21.392.863-28.523 1.28-2.7 0-6.003 0-10.007 0-4.011 0-12.021-2.002-14.018-.666-.666-8.005-6.668-8.005 4.005 0 8.676 4.671 17.351 2.674 26.027-.671 4.671-2.674 8.01-2.674 13.352 0 2.72-.078 6.647-.14 10.361-8.135 1.206-16.223 2.689-24.025 3.271-6.787.515-13.356.765-19.588 1.295-1.321-4.603-3.36-11.13-4.296-11.593-4.005-2.003-5.336-8.005-5.336-14.012 0-4.005-2.669-7.339-4.666-11.35-2.002-4.004-2.673-4.67-2.673-10.678 0-4.005 1.331-10.678-3.345-10.678-6.002 0-8.67 1.337-8.67 8.01 0 2.668 4.665 11.344 6.007 12.681 2.663 2.663 3.828 14.709 4.666 18.683 1.378 6.543 6.772 12.561 9.372 19.957-5.284.822-10.225 2.065-14.709 4.14-9.154 4.229-21.694 5.867-31.29 9.43l-.006-.005c-1.44-1.925-4.743-7.495-4.743-10.164 0-3.344-.666-8.015-2.003-10.678-2.002-3.344-9.346-10.017-9.346-14.683 0-2.673 1.337-7.344-2.668-7.344-7.345 0-6.674 8.681-4.671 12.681.666 1.336 2.002 3.339 3.339 4.67v1.332c.666 1.342 2.003 3.344 2.674 4.005 1.331 1.342 1.414 3.974 2.002 5.341 1.415 3.303 2.741 10.829 5.414 13.503l1.337 2.002c0 .671.666 2.003 1.332 2.674.057.062.119.114.177.171-2.435 1.623-4.369 3.579-5.592 6.029-10.673 21.413 30.989-6.252 34.037-4.921 10.678 4.666 13.341-6.059 31.364-6.174 10.012-.057 18.797-1.263 26.89-2.168 13.492-1.498 26.391-2.664 38.51-5.55 9.305-2.216 8.005 7.994 26.027 7.89 6.002-.031 32.794 7.719 34.703 10.444 2.757 3.922 38.702 32.466 40.044 31.124 3.958-.026 7.911 9.945 14.465 17.102 3.932 4.291 10.506 5.014 13.783 9.123 5.997 7.511 10.059 12.842 15.786 10.21 7.407-3.396 13.06-13.284-.224-20.898-3.594-2.065-6.808-4.78-9.653-7.62 1.227-3.449 6.694-10.886 9.877-10.886 6.013 0 5.342-4.005 6.673-5.337 4.01-4.005 11.349-11.349 14.683-14.678.999-.999 4.338-5.508 3.672-5.758-2.2-.821 0-4.254-4.337-4.254-7.345 0-18.689 20.025-25.362 22.022-1.336 0-7.339 9.346-10.678 10.683-.504.25-.884.541-1.165.874-3.485-4.125-6.174-7.453-8.176-8.01-14.923-4.177-25.242-14.147-35.806-23.296 2.206-3.579 12.759-15.193 14.46-20.301z"/></g></svg>