<svg clip-rule="evenodd" fill-rule="evenodd" stroke-linejoin="round" stroke-miterlimit="2" viewBox="0 0 600 142" xmlns="http://www.w3.org/2000/svg"><g fill="#fff" fill-rule="nonzero"><path d="m203.856 141.039h52.048v-83.841l94.222 83.841h51.802v-140.24h-52.048v83.84l-94.221-83.84h-51.803z"/><path d="m407.711 141.039h52.048v-66.493l78.318 66.493h61.923l-84.42-72.173 82.974-68.067h-61.921l-76.874 62.154v-62.154h-52.048z"/><path d="m195.181 39.835v-39.036h-151.808c-26.428-.463-43.373 20.067-43.373 44.819s16.25 45.31 43.373 44.819h96.145c3.585 0 6.506 2.587 6.506 5.782 0 3.197-2.921 5.784-6.506 5.784h-138.072v39.036h151.807c26.429.463 43.373-20.067 43.373-44.82 0-24.751-16.25-45.309-43.373-44.817h-96.145c-3.586 0-6.506-2.589-6.506-5.784 0-3.196 2.92-5.783 6.506-5.783z"/></g></svg>