<svg clip-rule="evenodd" fill-rule="evenodd" stroke-linejoin="round" stroke-miterlimit="2" viewBox="0 0 600 159" xmlns="http://www.w3.org/2000/svg"><g fill="#fff" fill-rule="nonzero"><path d="m599.946 1.319v39.886h-599.946v-40.213l599.946.327"/><path d="m13.168 89.688v14.202h-12.972l.038-47.667h60.873v12.733h-47.569l-.038 9.795h45.91v11.263z"/><path d="m161.486 56.277h13.56v47.504h-13.56z"/><path d="m352.088 56.277-.054 47.45h13.984l.055-17.25h38.144v17.304h13.985l.108-47.504h-14.038l-.055 18.229h-38.144v-18.229z"/><path d="m459.992 56.223v47.504h61.325v-12.679h-48.266v-34.825z"/><path d="m123.047 56.277h-31.604l-27.659 47.559h14.638l9.033-13.985h39.347l8.271 13.985h16.302zm-30.009 21.984 6.317-9.904h16.967l5.327 9.904z"/><path d="m243.319 90.341c.626 0-.598.054 0 0"/><path d="m245.431 90.504c6.208-.871 11.65-5.931 11.65-12.406v-7.673c0-7.128-7.129-14.039-14.197-14.039h-53.185v47.395h12.641v-13.712h26.282l12.308 13.712h16.967zm-6.552-11.209h-36.577v-10.502h36.615c3.009 0 5.447 2.448 5.447 5.441 0 3.047-2.421 5.496-5.485 5.061"/><path d="m340.226 75.105h-13.332c-.816-3.156-3.918-5.605-7.346-5.605h-28.35c-4.081 0-7.4 3.319-7.4 7.346v6.693c0 4.027 3.319 7.346 7.4 7.346h28.35c3.755 0 6.911-2.83 7.346-6.421h12.951c0 11.699-8.053 19.317-18.283 19.317h-34.064c-10.23 0-18.501-8.216-18.501-18.283v-10.992c0-10.066 8.271-18.283 18.501-18.283h34.064c10.23 0 18.664 8.761 18.664 18.882"/><path d="m433.002 56.332h13.549v47.395h-13.549z"/><path d="m584.71 56.277h-53.218v47.341h53.544s14.692-2.938 14.746-24.323c.055-20.079-13.059-22.691-15.072-23.018zm-3.809 34.826-36.458-.109-.054-22.256h36.566c3.265.599 7.292 1.197 7.4 10.72.055 11.427-7.454 11.645-7.454 11.645"/><path d="m600 118.147v39.885h-599.967v-40.212z"/></g></svg>