<svg clip-rule="evenodd" fill-rule="evenodd" stroke-linejoin="round" stroke-miterlimit="2" viewBox="0 0 600 73" xmlns="http://www.w3.org/2000/svg"><g fill="#fff"><g fill-rule="nonzero"><path d="m562.709 68.89-.532 2.343h-21.752l.532-2.343h1.179c1.572 0 2.903-.382 3.993-1.146 1.09-.763 1.832-1.646 2.225-2.648.392-1.001.969-3.2 1.73-6.595l9.925-43.95c.786-3.395 1.179-5.517 1.179-6.365 0-2.445-1.635-3.667-4.906-3.667h-1.369l.533-2.343h20.268l-.532 2.343h-1.065c-1.217 0-2.319.289-3.308.866s-1.692 1.375-2.111 2.393c-.418 1.019-1.109 3.65-2.072 7.894l-9.621 42.32c-.735 3.225-1.103 5.262-1.103 6.111 0 1.664.539 2.878 1.616 3.641 1.078.764 2.314 1.146 3.708 1.146z"/><path d="m586.995 68.89-.533 2.343h-21.752l.533-2.343h1.179c1.571 0 2.902-.382 3.992-1.146 1.091-.763 1.832-1.646 2.225-2.648.393-1.001.97-3.2 1.73-6.595l9.926-43.95c.785-3.395 1.178-5.517 1.178-6.365 0-2.445-1.635-3.667-4.905-3.667h-1.369l.532-2.343h20.269l-.532 2.343h-1.065c-1.217 0-2.32.289-3.309.866-.988.577-1.692 1.375-2.11 2.393-.418 1.019-1.109 3.65-2.073 7.894l-9.621 42.32c-.735 3.225-1.102 5.262-1.102 6.111 0 1.664.538 2.878 1.616 3.641 1.077.764 2.313 1.146 3.707 1.146z"/><path d="m306.188 3.273c13.926-4.886 29.667-1.859 33.986 6.084 2.155 3.965-1.897 9.615-9.003 3.221-4.095-3.683-8.888-7.132-14.549-7.616-4.044-.945-8.343.066-11.83 2.216-3.372 2.518-6.327 6.672-5.34 11.079.49 4.153 9.033 8.918 9.62 9.221 5.401 2.513 11.201 4.196 16.359 7.217 3.96 2.258 7.386 6.248 7.441 11.007.214 18.677-19.418 30.786-39.397 25.582-5.381-1.402-11.438-2.708-15.699-9.424-1.859-2.93.498-6.402 2.422-6.441 6.012-.121 12.671 7.749 17.982 10.789 5.638 3.227 13.41 2.876 19.489.036 4.922-2.858 9.178-7.871 9.293-13.792-.321-3.009-1.132-6.478-3.881-8.191-7.083-4.85-15.881-6.228-23.121-10.765-17.383-10.892-3.66-26.755 6.228-30.223z"/></g><path d="m468.942 28.665 1.307-1.793 14.579.091s-6.361 30.568-7.323 35.648c-.657 3.864.677 4.297 2.444 2.979 2.602-1.94 6.313-7.351 7.388-8.53l1.259 1.023c-2.061 3.283-6.29 10.789-10.895 12.835-3.806 1.692-9.861-1.09-7.419-11.655 0 0 4.054-17.4 5.549-24.55 1.416-6.769-4.728-5.964-6.889-6.048z"/><path d="m487.644 2.83c2.248.74 3.266 3.792 2.273 6.81-.994 3.019-3.627 4.868-5.875 4.128-2.248-.741-3.266-3.792-2.272-6.81.994-3.019 3.626-4.868 5.874-4.128z"/><path d="m371.352 60.093c3.114-14.501 4.393-21.249 5.226-25.231 1.416-6.769-5.939-5.963-8.101-6.048l1.308-1.792 15.79.091c-.374 2.071-6.357 30.852-7.017 33.864-1.276 5.824 2.1 6.429 3.385 6.072 5.98-1.662 11.085-12.454 12.06-14.294 4.189-8.295 7.239-17.437 10.553-25.767h6.611s-5.081 24.072-6.678 30.95c-2.48 10.679.386 9.468 2.202 8.258 1.348-.899 6.141-6.624 7.031-8.367.539 0 1.61.006 2.143.006-3.112 4.456-6.151 9.124-10.522 12.466-2.125 1.192-7.733 3.765-9.276-1.853-1.415-5.155.332-10.729 1.12-15.79-1.999 3.245-10.475 19.15-18.726 19.15-2.921 0-9.137-1.98-7.109-11.715z" fill-rule="nonzero"/><path d="m359.681 8.77s.817.496 1.083.66c-1.562 4.868-3.529 16.692-3.578 17.576 3.282.006 6.563-.006 9.845.006l-1.509 3.675h-8.862s-5.426 24.446-6.255 28.262c-1.485 6.842-.019 9.063 4.03 6.521 2.637-1.656 5.032-5.329 6.64-8.1l1.638.845c-6.878 12.219-10.511 12.824-14.455 13.056-4.629.272-6.74-3.865-6.008-7.455 1.35-6.623 5.714-28.498 6.575-33.159h-9.942l.97-1.569c9.927-1.035 15.661-7.144 19.828-20.318z" fill-rule="nonzero"/><path d="m447.971 3.951 1.308-1.792 15.79.09c-.987 5.468-11.83 54.762-12.793 59.842-1.622 9.553 9.003-2.761 10.807-4.741l1.453.721c-2.061 3.283-7.458 10.281-12.063 12.328-4.242 1.885-8.85-1.176-7.42-11.656-2.035 2.609-7.484 13.236-16.988 13.592-5.632 0-12.672-4.929-8.719-20.851 2.67-9.924 8.828-19.532 18.454-23.873 8.85-4.046 12.515 2.579 13.75 3.845 1.646-7.12 3.027-14.307 4.522-21.457 1.416-6.769-5.939-5.963-8.101-6.048zm-1.283 25.674c4.2 1.831 3.32 11.761-1.299 22.356-4.62 10.594-10.848 17.851-15.97 15.618-5.775-2.518-5.061-12.18-.441-22.774 4.619-10.595 12.147-17.626 17.71-15.2z"/><path d="m519.374 26.904c11.096 2.961 11.432 16.89 8.524 26.403-3.585 11.73-13.361 21.512-24.16 19.025-13.496-3.109-13.585-15.952-8.918-28.301 3.292-8.713 12.979-20.216 24.554-17.127zm-1.069 2.021c7.052 2.761 6.123 12.305 2.513 23.713s-9.271 19.17-16.401 17.55c-6.91-1.571-6.929-12.382-3.319-23.79 3.611-11.408 9.807-20.37 17.207-17.473z"/><path d="m169.567 71.068h33.256c.442 0 .844-.263 1.022-.668l12.414-28.328v-27.37c0-.604.498-1.102 1.103-1.102h6.554c.605 0 1.103.497 1.103 1.102v55.636c0 .4.329.73.729.73h30.737c.4 0 .729-.33.729-.73v-67.314c0-.4-.329-.729-.729-.729h-56.588c-.442 0-.845.262-1.023.667l-29.742 67.438c-.027.061-.041.126-.041.192 0 .261.215.476.476.476zm-168.838 0h31.293c.4 0 .729-.33.729-.73v-56.114c0-.4.329-.729.729-.729h7.335c.4 0 .729.329.729.729v29.209l12.443 26.973c.186.402.591.662 1.035.662h32.572c.24 0 .437-.198.437-.438 0-.072-.018-.142-.052-.206l-15.502-29.057c-.19-.355-.069-.82.266-1.044 4.347-2.913 5.765-5.23 5.837-14.023.004-.402.003-1.055.001-1.458-.126-17.929-4.983-22.416-20.814-22.546-.403-.004-1.056-.003-1.458-.003h-55.58c-.4 0-.729.329-.729.729v67.316c0 .4.329.73.729.73zm125.142-58.702h7.599c.4 0 .729.329.729.729v18.493c0 .4.33.729.73.729h32.739c.664 0 1.236-.537 1.247-1.201.017-.96-.012-1.816-.031-2.469-.011-.401-.014-1.053-.017-1.456-.157-22.107-7.594-26.214-37.964-26.277-.403-.001-1.056-.001-1.458 0-33.781.084-39.094 6.118-39.198 29.73-.002.403-.002 1.056-.001 1.459.023 35.637 1.909 40.556 39.199 40.618.402.001 1.055.001 1.458 0 34.231-.077 37.43-5.652 37.944-30.515.014-.663-.515-1.202-1.179-1.202h-32.739c-.4 0-.73.33-.73.73v19.12c0 .4-.329.729-.729.729h-7.599c-.4 0-.73-.329-.73-.729v-47.759c0-.4.33-.729.73-.729z" fill-rule="nonzero"/></g></svg>