<svg clip-rule="evenodd" fill-rule="evenodd" stroke-linejoin="round" stroke-miterlimit="2" viewBox="0 0 600 229" xmlns="http://www.w3.org/2000/svg"><g fill="#fff"><g fill-rule="nonzero"><path d="m530.707 220.904-.989 4.353h-40.418l.989-4.353h2.191c2.92 0 5.394-.709 7.419-2.129 2.026-1.419 3.404-3.059 4.134-4.92.73-1.862 1.802-5.946 3.215-12.255l18.443-81.665c1.46-6.309 2.19-10.252 2.19-11.829 0-4.542-3.038-6.814-9.115-6.814h-2.544l.989-4.353h37.663l-.99 4.353h-1.978c-2.261 0-4.31.537-6.148 1.609-1.837 1.073-3.144 2.555-3.921 4.448-.778 1.892-2.061 6.782-3.851 14.667l-17.878 78.638c-1.366 5.993-2.049 9.778-2.049 11.355 0 3.091 1.001 5.347 3.003 6.766 2.002 1.42 4.299 2.129 6.89 2.129z"/><path d="m575.834 220.904-.989 4.353h-40.419l.99-4.353h2.19c2.921 0 5.394-.709 7.419-2.129 2.026-1.419 3.404-3.059 4.134-4.92.73-1.862 1.802-5.946 3.215-12.255l18.443-81.665c1.46-6.309 2.19-10.252 2.19-11.829 0-4.542-3.038-6.814-9.115-6.814h-2.544l.99-4.353h37.662l-.989 4.353h-1.979c-2.261 0-4.31.537-6.147 1.609-1.838 1.073-3.145 2.555-3.922 4.448-.777 1.892-2.061 6.782-3.851 14.667l-17.877 78.638c-1.366 5.993-2.05 9.778-2.05 11.355 0 3.091 1.001 5.347 3.004 6.766 2.002 1.42 4.298 2.129 6.889 2.129z"/><path d="m54.051 98.976c25.877-9.078 55.127-3.453 63.151 11.307 4.005 7.367-3.524 17.865-16.729 5.985-7.607-6.845-16.515-13.253-27.033-14.153-7.515-1.755-15.503.124-21.983 4.118-6.266 4.68-11.756 12.397-9.922 20.587.911 7.718 16.785 16.571 17.876 17.134 10.035 4.669 20.812 7.796 30.397 13.41 7.358 4.196 13.725 11.61 13.827 20.452.397 34.706-36.082 57.206-73.206 47.535-9.999-2.604-21.254-5.03-29.172-17.51-3.453-5.444.926-11.896 4.502-11.969 11.17-.225 23.545 14.4 33.412 20.048 10.477 5.996 24.919 5.344 36.214.067 9.146-5.31 17.055-14.625 17.269-25.627-.597-5.591-2.104-12.037-7.212-15.221-13.162-9.011-29.509-11.572-42.963-20.003-32.3-20.238-6.8-49.714 11.572-56.16z"/></g><path d="m356.473 146.159 2.43-3.33 27.09.169s-11.82 56.799-13.609 66.238c-1.219 7.18 1.26 7.985 4.543 5.536 4.835-3.605 11.731-13.66 13.728-15.851l2.34 1.901c-3.831 6.102-11.689 20.049-20.245 23.851-7.073 3.143-18.323-2.026-13.787-21.658 0 0 7.534-32.331 10.312-45.618 2.631-12.577-8.786-11.081-12.802-11.238z"/><path d="m391.225 98.155c4.177 1.375 6.07 7.045 4.223 12.654-1.847 5.608-6.738 9.045-10.915 7.669-4.178-1.375-6.07-7.046-4.223-12.654 1.847-5.609 6.737-9.045 10.915-7.669z"/><path d="m175.136 204.559c5.788-26.947 8.164-39.485 9.711-46.884 2.631-12.578-11.036-11.081-15.052-11.239l2.43-3.33 29.34.169c-.695 3.849-11.812 57.329-13.038 62.925-2.371 10.822 3.901 11.947 6.288 11.284 11.113-3.089 20.599-23.142 22.41-26.562 7.785-15.412 13.453-32.4 19.609-47.879h12.285s-9.441 44.729-12.409 57.509c-4.607 19.845.718 17.595 4.093 15.345 2.504-1.67 11.41-12.307 13.063-15.547 1.002 0 2.993.011 3.983.011-5.783 8.28-11.43 16.954-19.552 23.164-3.949 2.216-14.369 6.997-17.235-3.443-2.63-9.579.616-19.935 2.081-29.34-3.715 6.03-19.465 35.584-34.796 35.584-5.429 0-16.979-3.679-13.211-21.767z" fill-rule="nonzero"/><path d="m153.449 109.192s1.519.922 2.014 1.226c-2.902 9.045-6.559 31.016-6.649 32.658 6.098.012 12.195-.011 18.293.012l-2.804 6.828h-16.467s-10.082 45.425-11.622 52.515c-2.759 12.715-.036 16.841 7.488 12.118 4.899-3.076 9.351-9.902 12.339-15.052l3.043 1.571c-12.781 22.704-19.531 23.829-26.86 24.26-8.6.505-12.523-7.181-11.163-13.852 2.509-12.307 10.617-52.954 12.217-61.616h-18.475l1.803-2.914c18.447-1.923 29.1-13.275 36.843-37.754z" fill-rule="nonzero"/><path d="m317.507 100.237 2.43-3.33 29.34.168c-1.834 10.159-21.982 101.756-23.771 111.195-3.014 17.752 16.729-5.13 20.081-8.809l2.7 1.339c-3.831 6.101-13.859 19.105-22.415 22.907-7.883 3.503-16.445-2.185-13.787-21.658-3.783 4.848-13.908 24.595-31.567 25.256-10.465 0-23.547-9.158-16.2-38.745 4.961-18.439 16.402-36.292 34.289-44.359 16.445-7.518 23.254 4.793 25.549 7.144 3.06-13.23 5.625-26.583 8.404-39.87 2.63-12.577-11.036-11.081-15.053-11.238zm-2.385 47.706c7.805 3.403 6.17 21.854-2.414 41.541-8.584 19.686-20.156 33.171-29.675 29.02-10.73-4.679-9.403-22.631-.819-42.317s22.572-32.751 32.908-28.244z"/><path d="m450.185 142.888c20.617 5.502 21.242 31.384 15.838 49.061-6.662 21.795-24.827 39.972-44.892 35.35-25.079-5.777-25.243-29.64-16.572-52.588 6.118-16.189 24.118-37.563 45.626-31.823zm-1.987 3.755c13.104 5.13 11.378 22.865 4.669 44.062-6.708 21.198-17.227 35.621-30.475 32.61-12.84-2.918-12.875-23.008-6.166-44.205 6.708-21.198 18.221-37.85 31.972-32.467z"/><path d="m177.337 73.369h34.78c.462 0 .883-.275 1.068-.698l12.984-29.626v-28.624c0-.632.52-1.153 1.153-1.153h6.855c.632 0 1.153.52 1.153 1.153v58.186c0 .418.344.762.762.762h32.145c.419 0 .763-.344.763-.762v-70.4c0-.418-.344-.762-.763-.762h-59.18c-.463 0-.884.274-1.07.697l-31.105 70.53c-.028.063-.043.131-.043.2 0 .273.225.497.498.497zm-176.574 0h32.726c.419 0 .763-.344.763-.762v-58.686c0-.418.344-.763.762-.763h7.671c.418 0 .763.345.763.763v30.547l13.013 28.209c.195.421.618.692 1.082.692h34.064c.251 0 .458-.206.458-.457 0-.075-.019-.149-.054-.216l-16.213-30.388c-.199-.372-.072-.857.278-1.092 4.546-3.046 6.03-5.47 6.105-14.665.003-.421.003-1.104 0-1.525-.131-18.751-5.21-23.444-21.767-23.58-.421-.003-1.104-.003-1.525-.003h-58.126c-.419 0-.763.344-.763.763v70.401c0 .418.344.762.763.762zm130.875-61.391h7.948c.419 0 .763.344.763.762v19.341c0 .418.344.762.762.762h34.24c.694 0 1.293-.562 1.305-1.256.017-1.004-.013-1.9-.033-2.582-.012-.42-.015-1.102-.018-1.523-.164-23.12-7.943-27.415-39.704-27.481-.421-.001-1.104-.001-1.525 0-35.328.088-40.885 6.398-40.994 31.093-.001.421-.001 1.104-.001 1.525.025 37.27 1.997 42.415 40.995 42.479.421.001 1.104.001 1.525 0 35.8-.08 39.145-5.911 39.683-31.913.014-.694-.539-1.256-1.233-1.256h-34.24c-.418 0-.762.344-.762.762v19.996c0 .419-.344.763-.763.763h-7.948c-.418 0-.762-.344-.762-.763v-49.947c0-.418.344-.762.762-.762z" fill-rule="nonzero"/></g></svg>