<?xml version="1.0" encoding="UTF-8" standalone="no"?><!DOCTYPE svg PUBLIC "-//W3C//DTD SVG 1.1//EN" "http://www.w3.org/Graphics/SVG/1.1/DTD/svg11.dtd"><svg width="100%" height="100%" viewBox="0 0 600 135" version="1.1" xmlns="http://www.w3.org/2000/svg" xmlns:xlink="http://www.w3.org/1999/xlink" xml:space="preserve" xmlns:serif="http://www.serif.com/" style="fill-rule:evenodd;clip-rule:evenodd;stroke-linejoin:round;stroke-miterlimit:2;"><g id="residualvm_outline"><path d="M405.464,28.655c-1.76,-0.376 -3.538,-0.561 -5.329,-0.617l0,-0c-4.043,-0.127 -8.157,0.405 -12.218,2.443c-4.062,2.039 -8.428,6.769 -8.797,12.675c-0.028,0.45 -0.022,0.902 0.018,1.351c0.275,3.1 0.521,6.151 0.739,9.149c-5.021,-2.381 -10.027,-3.369 -14.327,-3.911c-0.439,-0.055 -0.88,-0.083 -1.321,-0.083c-8.942,0 -17.525,3.211 -24.499,8.822c-1.715,-3.108 -4.389,-5.428 -6.796,-6.738c-3.722,-2.025 -7.41,-2.733 -11.129,-2.912c-3.719,-0.18 -7.468,0.224 -11.256,1.61c-1.014,0.37 -2.061,0.847 -3.102,1.413c-0.772,-0.486 -1.552,-0.987 -2.288,-1.304c-4.116,-1.77 -8.137,-2.166 -12.215,-1.95l0,-0c-1.678,0.088 -3.365,0.292 -5.049,0.648c-0.136,-6.883 -0.77,-14.376 -7.204,-19.834c-3.619,-3.583 -8.191,-5.317 -12.806,-5.598l0,-0c-4.738,-0.289 -9.823,1.013 -14.019,4.382c-0.23,0.185 -0.453,0.38 -0.666,0.586c0.052,-0.05 -3.852,3.259 -4.947,7.79c-0.995,4.121 -0.446,7.738 0.615,12.753c0.003,0.321 -0.022,0.371 -0.03,0.653c-0.326,0 -0.227,0.037 -0.601,0.025c-0.181,-0.005 -0.362,-0.006 -0.543,-0.001c-7.43,0.177 -14.163,2.313 -19.752,5.783c0.15,-0.712 0.275,-1.424 0.38,-2.13c0.001,-0.005 0.002,-0.01 0.003,-0.015c0.125,-0.864 0.137,-1.739 0.039,-2.606l0,-0.001c-0.533,-4.763 -2.406,-9.592 -6.116,-13.288c-3.748,-3.735 -8.842,-5.707 -14.118,-6.035c-0.015,-0.001 -0.03,-0.001 -0.045,-0.002c-0.346,-0.018 -0.691,-0.017 -1.036,0l-0.001,0c-5.484,0.234 -10.892,1.862 -15.029,5.634c-4.214,3.842 -6.194,9.216 -6.389,14.436c-0.028,0.606 -0.003,1.214 0.077,1.815c0.003,0.017 0.005,0.034 0.008,0.051c0.105,0.72 0.24,1.436 0.407,2.144c-2.782,-1.081 -5.457,-1.761 -7.801,-2.534c-0.298,-0.098 -0.601,-0.182 -0.907,-0.252c-1.859,-0.427 -3.772,-0.69 -5.777,-0.815l-0,0c-2.006,-0.125 -4.103,-0.112 -6.331,0.01c-6.685,0.366 -14.291,1.73 -21.363,5.725c-0.88,0.497 -1.754,1.059 -2.611,1.682c-1.086,-1.346 -2.321,-2.556 -3.702,-3.607c-5.979,-4.549 -13.244,-5.79 -20.771,-6.004l0,-0c-2.069,-0.059 -4.266,-0.049 -6.556,0.05c-7.993,0.178 -15.082,2.384 -20.863,6.134c-1.488,-8.165 -4.857,-14.697 -9.861,-19.354c-6.359,-5.921 -13.885,-8.383 -20.953,-10.791c-0.038,-0.008 -0.075,-0.015 -0.113,-0.023c-0.308,-0.102 -0.623,-0.184 -0.942,-0.246c-10.732,-3.324 -22.485,-3.441 -32.261,-3.747c-0.412,-0.026 -0.597,-0.026 -1.009,0l-0,0c-0.068,0.007 -0.135,0.014 -0.202,0.023c-5.8,0.532 -12.458,1.566 -17.993,6.371c-5.601,4.863 -7.283,13.043 -5.317,20.954c0,0.007 0,0.015 0,0.022c2.609,20.791 2.568,44.982 -0.403,66.003c0.046,-0.332 0.036,-0.282 -0.023,0.134c-0.047,0.35 -0.069,0.702 -0.067,1.055c-0.259,2.854 0.255,5.769 1.84,8.39c1.715,2.837 4.14,4.601 6.281,5.721c4.214,2.204 8.565,2.789 12.608,2.961c4.088,0.175 8.097,-0.15 11.756,-1.009c1.826,-0.429 3.694,-1.026 5.564,-2.019c1.533,-0.815 4.724,-3.047 6.057,-6.798c0.49,1.031 1.111,2.069 1.885,3.096c0.01,0.013 0.012,0.032 0.022,0.045c0.022,0.037 0.045,0.075 0.067,0.112c-1.011,-1.313 -0.972,-1.199 0.135,0.202c0.491,0.61 1.074,1.14 1.727,1.57c1.249,1.068 2.502,1.911 3.343,2.289c1.46,0.655 2.956,1.112 4.465,1.458c2.905,0.666 6.021,1.014 9.243,1.144c3.22,0.13 6.533,0.041 9.714,-0.426c2.92,-0.429 6.784,-1.071 10.275,-4.083c0.761,-0.658 1.438,-1.363 2.036,-2.104c0.879,0.654 1.783,1.276 2.712,1.867c0.187,0.127 0.375,0.254 0.57,0.365c0.118,0.068 0.238,0.131 0.36,0.191c4.821,2.371 9.409,3.969 14.207,4.398c6.18,0.552 11.975,-0.967 18.113,-3.401c5.187,-2.036 10.3,-4.332 14.595,-7.703c0.425,0.341 0.851,0.665 1.274,0.975c5.35,3.925 11.211,6.202 16.122,7.858c0.222,0.075 0.447,0.143 0.674,0.202c12.491,3.273 23.428,0.049 30.448,-3.308c0.76,-0.305 1.485,-0.652 2.175,-1.035c0.865,0.914 1.834,1.721 2.883,2.396c4.494,2.896 9.447,3.666 13.913,3.607c4.465,-0.059 9.369,-0.957 13.753,-3.935c1.602,-1.088 3.218,-2.565 4.498,-4.486c6.146,4.822 13.766,7.892 22.116,8.56c4.771,0.543 9.261,-0.457 13.167,-2.045c1.724,1.022 3.828,2.027 7.184,2.027c0.11,0 0.219,-0.002 0.329,-0.006c5.087,-0.171 10.509,-1.698 14.428,-5.792c0.581,-0.606 1.103,-1.248 1.571,-1.918c5.198,4.081 12.017,6.642 19.654,7.206c0.255,0.019 0.51,0.029 0.765,0.029c3.701,-0 6.624,-0.703 8.976,-1.488c3.075,1.617 6.796,2.177 10.345,1.984c4.024,0.015 8.007,-0.667 11.589,-2.863c1.505,-0.923 2.813,-2.106 3.908,-3.406c5.537,3.862 12.473,6.118 20.069,6.905c0.46,0.048 0.923,0.065 1.386,0.052c3.896,-0.11 7.151,-1.011 10.031,-2.105c2.155,1.268 4.657,2.324 7.68,2.603c0.462,0.042 0.926,0.054 1.389,0.036c4.011,-0.159 7.9,-1.598 11.019,-3.817c3.75,1.953 7.611,2.627 11.408,2.649c3.83,0.021 7.619,-0.602 11.321,-2.484c3.701,-1.881 7.866,-5.946 8.417,-11.602c0.058,-0.596 0.056,-1.196 -0.006,-1.791c-0.914,-8.811 -2.066,-29.736 -1.63,-50.65c2.92,6.69 6.201,13.631 9.665,19.74c4.4,7.759 9.983,17.05 14.796,24.76c2.407,3.855 4.616,7.305 6.416,10.005c1.799,2.7 2.182,3.819 4.693,6.288c-0,-0 -0,-0 0,-0c0.999,0.982 3.46,3.188 6.524,3.866c3.065,0.677 4.6,0.297 7.053,0.12c3.371,-0.244 6.813,-0.882 9.947,-1.702c1.567,-0.409 3.035,-0.859 4.45,-1.411c1.416,-0.552 2.631,-0.83 4.761,-2.756c2.604,-2.356 2.246,-3.056 2.518,-3.757c0.272,-0.702 0.428,-1.242 0.586,-1.821c0.316,-1.159 0.593,-2.426 0.898,-3.97c0.612,-3.089 1.302,-7.216 2.061,-12.293c0.952,-6.363 1.785,-12.414 2.502,-18.199c1.342,6.766 2.59,12.875 3.51,17.134c2.09,9.667 2.806,14.043 4.558,18.568c0.876,2.263 2.643,5.644 6.2,7.783c3.557,2.139 6.17,1.964 6.915,2.029c2.924,0.255 3.585,-0.042 5.076,-0.24c1.492,-0.197 3.073,-0.47 4.674,-0.817c3.579,-0.777 7.143,-1.146 11.34,-5.006c4.197,-3.86 5.027,-9.771 5.02,-12.946c-0.003,-1.028 -0.057,-2.067 -0.135,-3.114c2.974,0.728 5.548,0.436 8.144,-0.041c2.437,-0.447 4.95,-1.222 7.39,-2.73c0.432,1.456 0.919,2.861 1.54,4.262c0.985,2.222 1.696,4.757 6.065,7.54c5.847,3.724 11.489,3.01 16.843,2.037c3.299,-0.599 6.263,-1.312 9.504,-3.199c3.24,-1.886 7.349,-6.419 7.689,-11.879c0.191,-3.08 -0.063,-2.201 -0.112,-2.574c-0.05,-0.373 -0.101,-0.71 -0.164,-1.106c-0.127,-0.792 -0.296,-1.784 -0.513,-3.015c-0.433,-2.464 -1.054,-5.858 -1.822,-9.979c-1.536,-8.244 -3.66,-19.379 -6.009,-31.451c-4.663,-23.965 -6.832,-35.39 -8.517,-41.993c-0.842,-3.302 -1.075,-5.527 -3.823,-9.092c-1.374,-1.782 -3.948,-3.649 -5.935,-4.38c-1.987,-0.73 -2.895,-0.734 -2.897,-0.735c-1.475,-0.268 -2.757,-0.309 -3.935,-0.266l0,-0c-4.168,0.15 -7.423,1.248 -10.641,2.754c-3.217,1.505 -6.289,3.18 -9.226,7.077c-0,0 -0,0 -0,0c-3.296,4.373 -4.711,8.709 -6.339,14.256c-1.033,3.519 -1.97,7.482 -2.825,11.753c-3.496,-5.011 -6.874,-9.58 -9.446,-12.528c0,0 0,0 0,0c-4.621,-5.296 -9.234,-9.344 -14.897,-10.964c-3.443,-0.985 -6.52,-1.137 -9.626,-0.938c-1.783,0.114 -3.503,0.246 -5.385,0.767c-0.391,-3.376 -0.389,-6.429 -4.276,-9.944c-0,-0 -0,-0.001 -0,-0.001c-2.558,-2.312 -3.5,-2.041 -4.41,-2.27c-0.911,-0.229 -1.654,-0.338 -2.436,-0.431c-1.565,-0.186 -3.23,-0.263 -5.066,-0.263l-0,0c-3.923,0 -7.573,0.497 -10.988,1.73c-3.415,1.233 -6.981,3.224 -9.189,7.412c-1.669,3.164 -1.227,3.786 -1.398,5.323c-0.171,1.536 -0.294,3.369 -0.412,5.79c-0.234,4.841 -0.426,11.978 -0.629,22.442c-0.146,7.581 -0.281,13.455 -0.427,18.599c-3.311,-5.917 -7.287,-13.993 -13.192,-26.737c-2.569,-5.544 -4.661,-9.866 -6.345,-13.076c-0.842,-1.605 -1.573,-2.925 -2.295,-4.086c-0.721,-1.161 -0.83,-1.948 -3.178,-3.832c-2.746,-2.202 -7.151,-3.304 -10.441,-3.304c-2.453,-0 -5.398,0.035 -8.728,0.831c-1.664,0.398 -3.522,0.855 -5.794,2.676c-2.272,1.82 -4.505,6.582 -3.746,10.245l0.208,1.014l0.388,3.493Zm105.081,83.462c-2.561,-10.614 -13.221,-71.691 -14.421,-81.187c-1.927,-8.448 7.64,-13.135 13.728,-10.171c4.666,2.453 11.892,11.224 24.578,29.833c6.485,9.514 8.193,11.184 9.415,9.206c0.289,-0.467 1.667,-7.114 3.063,-14.772c2.863,-15.711 5.728,-25.548 8.906,-30.583c2.988,-4.732 9.659,-7.246 13.562,-4.861c1.51,0.923 4.262,4.125 8.329,25.267c7.785,40.48 15.285,64.022 12.946,71.973c-1.488,5.062 -14.44,5.764 -17.026,3.141c-4.412,-4.475 -3.357,-6.526 -5.015,-21c-1.384,-12.09 -4.197,-26.727 -5.665,-29.486c-2.292,-4.306 -4.435,3.697 -7.063,26.381c-0.784,6.764 -1.747,11.543 -2.473,12.269c-1.678,1.678 -7.955,2.388 -9.533,1.078c-0.702,-0.582 -4.804,-7.415 -9.117,-15.185c-8.595,-15.486 -11.237,-19.186 -12.685,-17.765c-1.171,1.149 0.162,12.283 2.52,21.049c5.203,19.344 8.67,23.789 7.927,28.337c-0.726,4.449 -1.394,5.95 -9.306,8.37c-7.75,1.285 -10.74,-4.668 -12.67,-11.894Zm-146.316,-52.541c-8.175,0 -15.549,3.384 -21.425,9.827c-5.886,6.416 -8.996,14.612 -8.996,23.713c0.19,18.005 6.674,28.165 24.992,30.062c4.234,-0.12 8.159,-1.967 11.89,-3.814c1.949,2.171 4.077,4.075 7.089,4.353c5.787,-0.23 9.123,-4.851 9.557,-10.275c-1.758,-8.014 -3.103,-14.984 -3.544,-23.355c-0.198,-5.509 0.225,-10.999 0.538,-16.085c-0.635,-9.845 -11.826,-13.383 -20.101,-14.426Zm-96.94,-26.428c-2.534,-0.154 -5.175,0.545 -7.291,2.244c-1.825,1.76 -3.664,2.088 -1.324,12.765c0.283,7.993 1.141,11.569 -10.746,11.195c-19.642,0.469 -28.695,16.425 -29.703,34.235c0.234,17.114 11.759,28.722 28.492,29.95c5.854,0.718 8.784,-0.757 13.012,-3.769c1.705,1.465 4.159,3.657 6.349,3.657c6.953,-0.234 10.252,-3.779 9.848,-10.185c-8.058,-18.6 9.853,-68.321 -1.996,-77.22c-1.676,-1.717 -4.107,-2.717 -6.641,-2.872Zm-101.426,29.906c-11.055,0.604 -25.494,5.196 -25.576,18.059c1.12,15.71 25.083,18.513 26.249,22.345c-0.359,6.467 -18.436,-7.973 -22.525,-4.397c-7.325,7.282 -4.586,13.01 1.167,17.23c3.822,2.803 8.964,4.937 13.349,6.416c9.589,2.513 18.585,-0.182 23.982,-2.849c6.026,-2.35 8.194,-10.174 7.942,-16.714c-2.772,-12.924 -22.856,-15.819 -24.633,-20.617c0.223,-7.616 17.973,9.215 22.681,3.948c8.836,-16.074 -2.553,-19.294 -13.371,-22.861c-2.275,-0.523 -5.58,-0.762 -9.265,-0.56Zm233.992,-27.146c-5.695,-0.178 -11.5,1.926 -11.801,6.73c2.445,27.522 2.664,51.343 1.144,67.797l0.023,6.551c1.667,9.079 21.465,8.6 22.232,0.718c-1.337,-12.891 -3.053,-47.41 -0.426,-74.841c0.111,-4.317 -5.478,-6.777 -11.172,-6.955l-0,-0Zm-284.537,25.104c-1.851,-0.051 -3.81,-0.021 -5.856,0.067c-20.337,0.42 -28.873,15.115 -29.972,33.944c0.88,13.318 5.743,19.78 14.605,25.239c4.135,1.986 7.522,3.076 10.835,3.365c4.248,0.37 8.375,-0.592 13.798,-2.692c13.398,-5.137 23.536,-12.678 13.438,-22.547c-4.465,-2.011 -9.92,1.187 -22.995,5.07c-3.569,1.082 -6.348,-2.454 -0.898,-3.993c19.656,-5.348 27.848,-7.487 28.2,-20.954c-0.232,-13.006 -8.199,-17.139 -21.155,-17.499l-0,0Zm90.164,5.227c-5.629,0.287 -11.197,3.315 -10.41,8.211c1.913,11.842 1.85,27.466 -0.695,40.943c-2.951,11.396 24.812,10.745 21.223,0c-3.06,-12.232 -2.234,-25.852 0.695,-40.943c0.497,-6.044 -5.184,-8.498 -10.813,-8.211Zm252.815,51.312c-8.628,-11.958 -12.159,-19.877 -20.858,-35.261c-11.483,-20.308 -24.132,-52.805 -24.132,-59.219c0,-4.03 2.443,-5.619 8.639,-5.619c8.011,0 6.968,-1.435 21.732,29.91c10.815,22.96 13.858,28.479 18.631,33.777c2.509,2.785 3.355,3.283 3.98,2.343c1.003,-1.507 1.769,-14.667 2.598,-44.621c0.599,-21.627 0.801,-23.839 2.478,-27.095c2.007,-3.898 4.998,-5.446 10.516,-5.446c2.502,-0 3.663,0.533 5.12,2.355c1.869,2.336 1.88,2.544 1.377,26.332c-0.278,13.188 -0.351,31.315 -0.917,39.57c-1.535,22.391 0.501,26.788 -4.442,42.066c-5.901,7.663 -19.974,9.33 -24.722,0.908Zm-433.304,-88.468c-10.126,0.93 -18.463,4.356 -14.614,16.543c2.73,21.752 2.661,46.647 -0.468,68.686c-1.961,9.674 24.168,8.145 25.456,3.763c-0.476,-7.456 -2.36,-11.791 3.479,-16.038c5.543,-2.39 7.659,0.141 10.058,2.162c4.615,6.067 1.681,10.131 5.159,14.53c1.942,3.072 20.767,4.217 24.911,0.641c4.644,-4.007 1.906,-10.244 -0.781,-14.854c-3.62,-6.848 -11.438,-12.386 -11.602,-18.425c1.071,-8.795 13.449,-10.569 14.044,-24.467c-0.813,-20.219 -11.109,-24.204 -25.127,-28.981c-8.843,-2.913 -20.393,-3.244 -30.515,-3.56Zm255.702,35.491c-2.159,21.235 -6.685,54.318 22.122,56.448c3.727,0 7.381,-1.827 10.935,-2.908c1.981,1.853 2.346,3.788 7.984,3.43c11.866,0.264 10.061,-8.532 9.858,-16.825c-3.087,-12.1 -1.948,-27.944 -0.465,-41.461c-0.552,-7.199 -18.415,-8.036 -21.763,-1.079c-2.294,7.288 3.014,32.941 -3.501,34.564c-5.955,-1.772 0.154,-29.939 -1.146,-34.267c-0.689,-7.557 -21.208,-7.298 -24.024,2.098Zm-73.194,-22.362c-7.622,0.318 -11.492,4.247 -11.711,10.32c1.021,6.998 4.684,9.87 11.711,10.275c6.867,-0.503 9.638,-2.813 10.746,-10.275c-0.658,-5.89 -4.267,-9.917 -10.746,-10.32Z" style="fill:#fff;"/><path d="M360.235,80.71c5.74,0.327 8.399,5.686 8.308,10.937c-0.091,5.25 -2.933,10.392 -8.195,10.286c-10.553,-0.179 -10.147,-20.752 -0.113,-21.223Z" style="fill:#fff;"/><path d="M246.627,80.395c5.955,-0.184 8.625,4.994 8.506,10.293c-0.12,5.299 -3.03,10.719 -8.237,11.02c-10.977,0.214 -11.468,-20.983 -0.269,-21.313Z" style="fill:#fff;"/><path d="M110.427,74.697c2.956,-0.156 5.694,0.923 6.573,3.657c3.388,8.536 -13.804,14.372 -15.681,5.339c-1.375,-5.06 4.181,-8.735 9.108,-8.996Z" style="fill:#fff;"/><path d="M42.386,53.346c7.474,0.125 9.142,6.651 9.098,9.872c0.271,3.442 -0.573,11.734 -8.819,11.777c-7.462,-0.448 -8.787,-8.346 -8.74,-11.703c0.17,-3.541 1.591,-9.716 8.461,-9.946Z" style="fill:#fff;"/></g></svg>