<svg clip-rule="evenodd" fill-rule="evenodd" stroke-linejoin="round" stroke-miterlimit="2" viewBox="0 0 600 122" xmlns="http://www.w3.org/2000/svg"><g fill="#fff" fill-rule="nonzero"><path d="m516.92 109.134c-2.641-10.948-13.638-73.951-14.875-83.747-1.989-8.713 7.881-13.548 14.16-10.491 4.813 2.53 12.267 11.578 25.353 30.774 6.69 9.813 8.451 11.536 9.712 9.496.298-.482 1.719-7.339 3.159-15.238 2.954-16.207 5.909-26.353 9.188-31.547 3.081-4.881 9.963-7.475 13.988-5.014 1.558.952 4.397 4.255 8.592 26.063 8.031 41.757 15.767 66.04 13.355 74.243-1.536 5.22-14.896 5.945-17.563 3.239-4.551-4.616-3.463-6.731-5.173-21.662-1.429-12.471-4.33-27.569-5.844-30.415-2.364-4.442-4.575 3.813-7.286 27.212-.809 6.978-1.802 11.907-2.551 12.656-1.731 1.731-8.206 2.463-9.834 1.112-.723-.6-4.955-7.649-9.403-15.664-8.867-15.973-11.592-19.791-13.085-18.325-1.208 1.186.167 12.67 2.599 21.713 5.367 19.953 8.943 24.539 8.177 29.23-.749 4.589-1.438 6.137-9.6 8.634-7.994 1.326-11.078-4.815-13.069-12.269z"/><path d="m16.062 23.483c-10.445.959-19.045 4.493-15.074 17.064 2.816 22.438 2.745 48.117-.483 70.852-2.023 9.979 24.93 8.401 26.258 3.881-.491-7.692-2.434-12.163 3.589-16.544 5.718-2.465 7.901.145 10.375 2.23 4.761 6.259 1.734 10.45 5.322 14.988 2.003 3.17 21.422 4.351 25.696.662 4.79-4.134 1.966-10.567-.805-15.322-3.735-7.064-11.799-12.777-11.968-19.006 1.104-9.073 13.873-10.902 14.487-25.238-.839-20.856-11.46-24.968-25.92-29.895-9.121-3.005-21.036-3.346-31.477-3.672zm17.942 25.027c7.709.13 9.43 6.862 9.384 10.183.28 3.551-.59 12.105-9.096 12.148-7.698-.461-9.064-8.608-9.016-12.071.175-3.653 1.641-10.022 8.728-10.26z"/><path d="m109.234 56.418c-1.909-.053-3.929-.021-6.04.07-20.978.432-29.783 15.591-30.917 35.013.908 13.738 5.924 20.404 15.065 26.034 4.266 2.049 7.76 3.173 11.178 3.472 4.381.382 8.638-.61 14.232-2.777 13.82-5.299 24.278-13.078 13.862-23.258-4.606-2.074-10.233 1.225-23.721 5.23-3.681 1.116-6.547-2.532-.925-4.119 20.276-5.516 28.725-7.722 29.089-21.614-.24-13.417-8.458-17.68-21.823-18.051zm-5.045 14.117c3.049-.162 5.874.951 6.781 3.772 3.494 8.805-14.24 14.824-16.176 5.507-1.418-5.22 4.314-9.01 9.395-9.279z"/><path d="m161.373 58.524c-11.404.623-26.298 5.36-26.382 18.629 1.155 16.205 25.873 19.096 27.076 23.049-.37 6.671-19.017-8.224-23.234-4.536-7.557 7.512-4.731 13.42 1.203 17.773 3.942 2.892 9.247 5.093 13.769 6.619 9.892 2.592 19.172-.188 24.739-2.939 6.216-2.424 8.452-10.494 8.192-17.241-2.859-13.331-23.576-16.317-25.41-21.267.231-7.856 18.54 9.505 23.397 4.073 9.114-16.581-2.634-19.903-13.793-23.581-2.347-.54-5.756-.787-9.557-.579z"/><path d="m204.324 37.025c-7.862.329-11.855 4.381-12.08 10.646 1.052 7.218 4.831 10.181 12.08 10.598 7.083-.518 9.941-2.901 11.085-10.598-.68-6.076-4.402-10.23-11.085-10.646zm-2.083 24.785c-5.806.296-11.551 3.42-10.738 8.47 1.973 12.215 1.908 28.331-.717 42.234-3.044 11.754 25.594 11.083 21.892 0-3.157-12.618-2.305-26.668.717-42.234.513-6.235-5.348-8.766-11.154-8.47z"/><path d="m265.996 27.676c-2.614-.159-5.338.562-7.521 2.314-1.883 1.816-3.779 2.154-1.365 13.168.292 8.245 1.176 11.934-11.085 11.548-20.262.484-29.6 16.942-30.64 35.314.242 17.653 12.13 29.627 29.39 30.894 6.039.74 9.062-.781 13.423-3.888 1.759 1.511 4.29 3.772 6.549 3.772 7.172-.241 10.576-3.898 10.159-10.506-8.312-19.185 10.163-70.474-2.06-79.654-1.729-1.771-4.236-2.802-6.85-2.962zm-21.313 48.737c12.285-.38 11.02 21.362.278 21.984-11.324.221-11.831-21.645-.278-21.984z"/><path d="m279.825 60.092c-2.227 21.905-6.895 56.031 22.819 58.228 3.845 0 7.614-1.885 11.28-2.999 2.043 1.911 2.42 3.907 8.236 3.537 12.239.273 10.378-8.801 10.168-17.355-3.184-12.482-2.009-28.825-.479-42.768-.57-7.426-18.996-8.29-22.449-1.113-2.367 7.518 3.108 33.979-3.612 35.654-6.142-1.829.16-30.884-1.182-35.348-.71-7.795-21.877-7.528-24.781 2.164z"/><path d="m365.992 54.937c-8.433 0-16.04 3.491-22.101 10.136-6.071 6.619-9.279 15.073-9.279 24.461.196 18.572 6.885 29.053 25.779 31.01 4.368-.124 8.417-2.03 12.266-3.934 2.01 2.239 4.205 4.203 7.312 4.489 5.97-.237 9.411-5.004 9.859-10.599-1.814-8.266-3.201-15.456-3.657-24.09-.203-5.683.233-11.346.556-16.593-.656-10.155-12.199-13.804-20.735-14.88zm-4.12 21.8c11.84.676 10.974 22.112.116 21.892-10.885-.185-10.467-21.406-.116-21.892z"/><path d="m463.025 114.739c-8.9-12.335-12.542-20.504-21.515-36.372-11.845-20.948-24.893-54.469-24.893-61.086 0-4.157 2.52-5.796 8.911-5.796 8.264 0 7.188-1.48 22.418 30.853 11.155 23.684 14.295 29.376 19.217 34.841 2.588 2.874 3.461 3.387 4.106 2.417 1.034-1.554 1.825-15.129 2.68-46.027.618-22.309.826-24.591 2.556-27.949 2.071-4.021 5.155-5.618 10.848-5.618 2.581 0 3.778.55 5.281 2.429 1.928 2.41 1.939 2.624 1.421 27.163-.287 13.603-.362 32.302-.946 40.817-1.583 23.097.516 27.632-4.582 43.392-6.087 7.904-20.604 9.624-25.502.936z"/><path d="m402.741 30.523c-5.874-.184-11.863 1.986-12.173 6.942 2.522 28.389 2.748 52.961 1.18 69.934l.024 6.758c1.719 9.365 22.142 8.87 22.933.74-1.38-13.298-3.15-48.904-.44-77.201.115-4.452-5.65-6.99-11.524-7.173z"/></g></svg>