<?xml version="1.0" encoding="UTF-8" standalone="no"?><!DOCTYPE svg PUBLIC "-//W3C//DTD SVG 1.1//EN" "http://www.w3.org/Graphics/SVG/1.1/DTD/svg11.dtd"><svg width="100%" height="100%" viewBox="0 0 600 157" version="1.1" xmlns="http://www.w3.org/2000/svg" xmlns:xlink="http://www.w3.org/1999/xlink" xml:space="preserve" xmlns:serif="http://www.serif.com/" style="fill-rule:evenodd;clip-rule:evenodd;stroke-linejoin:round;stroke-miterlimit:2;"><g id="sammy"><path d="M94.782,4.782c-8.259,-3.041 -16.956,-4.782 -26.087,-4.782c-12.607,0 -23.475,2.611 -32.609,7.828c-9.127,5.651 -13.912,11.738 -13.912,19.131l0.436,0.869c0.433,9.563 6.956,16.956 20.432,22.173l25.22,-22.173c-4.785,-0 -9.13,-0.869 -12.61,-2.611c-3.479,-1.738 -5.218,-3.912 -5.218,-6.956l1.739,-3.913c3.046,-3.479 8.697,-5.217 16.089,-5.217c7.389,-0 12.607,1.738 15.651,5.217l10.869,-9.566Z" style="fill:#fff;"/><path d="M114.784,28.697c-9.134,-7.392 -19.13,-12.174 -30.871,-14.349l-15.651,13.48c6.52,0.433 12.607,2.174 17.389,5.651c4.785,3.912 6.959,8.697 6.959,13.912l-0.436,3.043c-1.305,4.785 -3.912,8.698 -8.261,11.741c-4.782,3.044 -10,4.349 -16.087,4.349c-6.523,0 -11.738,-1.741 -16.519,-4.785c-4.785,-3.043 -7.393,-6.956 -8.265,-11.738l-43.042,37.391c3.48,14.349 11.738,26.087 24.348,35.217c12.61,9.131 27.392,13.913 43.914,13.913c19.127,-0 35.65,-6.084 49.129,-17.825c13.48,-12.174 20.436,-26.956 20.436,-43.915c-0,-18.261 -7.829,-33.478 -23.043,-46.085Z" style="fill:#fff;"/><path d="M193.043,12.61c23.915,0 35.653,12.174 35.653,36.955l-24.348,0c-0,-10.869 -3.044,-16.086 -9.564,-16.086c-5.654,-0 -8.261,3.043 -8.261,9.13c-0,4.349 3.043,8.261 9.127,12.174l10.872,6.956c7.389,4.785 13.043,9.567 16.087,13.48c3.912,5.65 6.087,12.61 6.087,19.999c-0,12.61 -2.175,21.304 -6.523,26.955c-4.782,5.654 -13.477,8.698 -26.087,8.698c-13.476,-0 -23.479,-3.48 -29.129,-10.869c-5.218,-6.523 -7.829,-16.09 -7.829,-29.566l25.22,0c-1.305,12.607 2.608,18.694 11.738,18.694c4.782,0 7.393,-2.607 7.393,-8.261c-0,-4.346 -1.306,-7.826 -3.48,-10.433l-7.825,-6.087l-10.869,-6.523c-13.479,-8.258 -19.999,-18.694 -19.999,-31.737c-0,-9.131 2.174,-16.523 6.087,-22.174c5.651,-7.392 13.912,-11.305 25.65,-11.305Z" style="fill:#fff;"/><path d="M358.694,41.304c8.698,-0 14.785,3.047 18.261,9.566c4.349,-6.519 10.436,-9.999 18.261,-9.999c3.913,-0 8.262,1.305 12.174,3.913c5.654,3.043 8.262,8.261 8.262,15.217l-0,67.826l-24.348,0l-0,-55.219l-0.87,-7.389c-0.436,-2.174 -2.174,-3.48 -5.217,-3.48c-3.044,0 -5.218,1.306 -6.087,3.48l-0.433,7.389l-0,55.219l-24.348,0l-0,-54.783l-0.437,-7.825c-0.869,-2.174 -2.607,-3.044 -5.65,-3.044c-3.044,0 -4.782,1.306 -5.218,3.477l-0.437,6.956l0,55.219l-24.78,0l-0,-84.349l23.478,0l0,7.392l2.175,-2.174c4.345,-4.782 9.563,-7.392 15.214,-7.392Z" style="fill:#fff;"/><path d="M600,43.045l-19.13,86.087c-3.044,12.607 -7.825,20.869 -14.349,24.781c-3.479,2.175 -8.697,3.044 -15.217,2.611l-8.698,-0.872l0,-18.261l7.393,0.436c3.479,-0.436 4.348,-4.782 2.174,-12.61l-18.261,-82.172l25.653,0l6.956,51.737l8.262,-51.737l25.217,0Z" style="fill:#fff;"/><path d="M469.566,41.74c8.694,-0 14.781,3.044 17.824,9.13c4.782,-6.519 11.305,-9.566 18.698,-9.566c3.912,-0 8.258,1.305 12.174,3.48c5.65,3.479 8.258,8.694 8.258,15.217l-0,67.826l-24.781,0l-0,-54.783l-0.433,-7.392c-0.436,-2.171 -2.175,-3.477 -5.221,-3.477c-3.044,0 -5.215,1.306 -6.087,3.477l-0.433,7.392l-0,54.783l-24.348,0l-0,-54.347l-0.433,-7.828c-0.436,-2.171 -2.611,-3.477 -5.654,-3.477c-3.044,0 -4.782,1.306 -5.218,3.913l-0.433,6.956l-0,55.216l-24.784,0l-0,-84.346l23.479,0l-0,7.393l2.174,-2.611c4.349,-4.782 9.563,-6.956 15.218,-6.956Z" style="fill:#fff;"/><path d="M303.045,64.783l0,46.521l0.433,10.869c0.433,3.044 0.869,5.218 2.174,6.959l-24.348,0l-3.043,-6.087l-5.218,3.477c-3.913,3.043 -7.825,4.782 -11.738,4.782c-8.261,-0 -14.348,-2.172 -18.697,-6.087c-4.782,-3.913 -6.956,-9.128 -6.956,-16.52c-0,-8.261 1.738,-14.348 4.782,-19.13c2.61,-4.349 7.392,-7.829 14.784,-10l11.738,-4.348c6.523,-2.175 10,-4.782 10.436,-7.393c0.433,-3.043 -0,-5.651 -1.738,-7.825c-1.306,-2.174 -3.48,-3.044 -5.655,-2.607c-3.476,-0 -5.65,1.738 -6.956,4.781l-1.305,7.826l-25.65,-0c0.433,-12.607 4.782,-20.869 13.04,-25.65c5.221,-3.047 12.61,-4.352 22.177,-4.352c8.261,-0 14.781,0.872 18.694,2.61c8.697,3.48 13.046,10.869 13.046,22.174Zm-24.784,23.046l-9.567,4.345c-5.651,3.044 -8.258,6.956 -7.825,11.738c0,3.916 1.738,6.959 5.654,8.265c3.04,0.866 5.651,0.433 7.825,-1.306c2.175,-2.174 3.477,-5.217 3.913,-10.002l-0,-13.04Z" style="fill:#fff;"/></g></svg>