<?xml version="1.0" encoding="UTF-8" standalone="no"?><!DOCTYPE svg PUBLIC "-//W3C//DTD SVG 1.1//EN" "http://www.w3.org/Graphics/SVG/1.1/DTD/svg11.dtd"><svg width="100%" height="100%" viewBox="0 0 600 439" version="1.1" xmlns="http://www.w3.org/2000/svg" xmlns:xlink="http://www.w3.org/1999/xlink" xml:space="preserve" xmlns:serif="http://www.serif.com/" style="fill-rule:evenodd;clip-rule:evenodd;stroke-linejoin:round;stroke-miterlimit:2;"><g id="sammy_atomiswave_tall"><g id="Layer-1" serif:id="Layer 1"><g><g><path id="path132" d="M70.948,436.541c-2.202,-3.164 -2.502,-4.822 8.886,-44.03c-19.167,0.158 -20.909,-0 -20.909,-0l3.802,-10.315l55.754,0l-3.167,10.315l-17.107,-0c-0,-0 0.015,0.074 -12.671,45.97c-11.103,-0.039 -12.796,0.635 -14.588,-1.94Z" style="fill:#fff;fill-rule:nonzero;"/><path id="path134" d="M141.29,391.878l-10.137,37.38l10.137,-0l10.137,-37.38l-10.137,-0Zm28.813,-7.291c1.893,2.857 0.951,4.436 -12.973,53.894c-43.098,0.277 -42.148,-0.039 -44.366,-2.574c-2.511,-2.872 -0.95,-4.765 12.687,-53.711c43.796,0.006 42.767,-0.456 44.652,2.391Z" style="fill:#fff;fill-rule:nonzero;"/><path id="path136" d="M169.168,438.481c-1.095,-0.906 1.426,-3.896 15.206,-56.285c69.93,-0.232 66.129,-0.932 68.505,2.632c1.359,2.038 1.173,3.243 -12.117,53.653c-22.809,-0.195 -19.483,0 -19.483,0l11.405,-48.504l-6.494,0l-12.672,48.504l-19.641,0l13.306,-48.504l-6.337,0l-13.305,48.504l-18.373,0Z" style="fill:#fff;fill-rule:nonzero;"/><path id="path138" d="M250.503,436.386c-0.713,-2.614 0,-2.152 13.702,-54.19c19.798,-0.469 19.006,0 19.006,0c-0,0 -0.648,3.341 -15.839,56.285c-13.543,-0.195 -16.197,0.373 -16.869,-2.095Z" style="fill:#fff;fill-rule:nonzero;"/><path id="path140" d="M278.143,438.481l3.009,-10.589l30.174,-0c0,-0 0.396,-2.118 4.197,-16.374c-27.243,-0.08 -27.971,1.272 -30.094,-2.218c-0.965,-1.589 0.303,-2.868 6.653,-27.104c42.434,0.16 50.052,0 50.052,0l-2.534,9.047l-28.511,0.238c-0,-0 -0.332,-0.557 -3.802,10.534c28.511,-0.08 27.314,0.148 28.749,1.583c2.138,2.138 1.425,3.326 -7.208,34.883c-53.537,0.28 -50.685,0 -50.685,0Z" style="fill:#fff;fill-rule:nonzero;"/><path id="path142" d="M352.43,382.196c-15.681,53.302 -15.299,52.645 -13.543,54.902c1.663,2.139 4.277,1.235 71.04,1.43c13.305,-51.515 14.888,-56.332 14.888,-56.332l-19.64,0l-13.622,49.28l-6.97,-0l13.622,-49.28l-19.007,0l-13.621,48.963l-6.97,-0l13.623,-48.963l-19.8,0Z" style="fill:#fff;fill-rule:nonzero;"/><path id="path144" d="M480.254,382.196c7.287,52.751 7.525,53.319 9.188,54.982c1.426,1.426 1.504,1.346 38.093,1.346c13.542,-53.458 0.712,-2.864 14.175,-56.328l-19.64,0l-11.642,48.409l-4.197,0l-5.702,-48.409c0,0 -4.832,-0.232 -20.275,0Z" style="fill:#fff;fill-rule:nonzero;"/><path id="path146" d="M600,382.196c-0,0 -2.138,0.006 -48.151,0c-13.86,54.177 -13.86,53.909 -12.672,55.377c1.188,1.469 2.851,0.951 48.151,0.908c1.03,-6.61 1.268,-9.936 1.268,-9.936l-29.224,0l3.881,-16.394l25.58,-0.237l2.296,-9.899l-25.342,-0l2.851,-10.772l29.461,0l1.901,-9.047Z" style="fill:#fff;fill-rule:nonzero;"/><path id="path156" d="M449.842,391.421l-5.631,21.324l13.139,0l-1.711,-21.324l-5.797,0Zm29.777,47.107l-19.64,-0l-1.743,-14.022l-15.366,-0l-4.115,14.022l-19.326,-0c-0,-0 0.002,-1.682 15.523,-56.332c31.759,-0.234 32.947,-0.219 34.61,2.632c1.426,2.139 1.675,5.32 10.057,53.7Z" style="fill:#fff;fill-rule:nonzero;"/><path id="path158" d="M30.414,391.421l-5.632,21.324l13.14,0l-1.712,-21.324l-5.796,0Zm29.776,47.107l-19.64,-0l-1.743,-14.022l-15.365,-0l-4.115,14.022l-19.327,-0c-0,-0 0.002,-1.682 15.523,-56.332c31.76,-0.234 32.948,-0.219 34.611,2.632c1.425,2.139 1.674,5.32 10.056,53.7Z" style="fill:#fff;fill-rule:nonzero;"/></g><g><g id="g20"><g id="g22"><clipPath id="_clip1"><path d="M82.81,336.406l81.414,-336.217l42.768,172.121l-40.55,164.73l-83.632,-0.634Z"/></clipPath><g clip-path="url(#_clip1)"><g id="g28"><g id="g30"><path id="path40" d="M82.81,336.406l81.414,-336.217l42.768,172.121l-40.55,164.73l-83.632,-0.634Z" style="fill:#fff;fill-rule:nonzero;"/></g></g></g></g></g><g id="g42"><g id="g44"><clipPath id="_clip2"><path d="M173.348,0.189l82.681,-0l70.962,279.198l-83.633,0l-70.01,-279.198Z"/></clipPath><g clip-path="url(#_clip2)"><g id="g50"><g id="g52"><path id="path62" d="M173.348,0.189l82.681,-0l70.962,279.198l-83.633,0l-70.01,-279.198Z" style="fill:#fff;fill-rule:nonzero;"/></g></g></g></g></g><g id="g64"><g id="g66"><clipPath id="_clip3"><path d="M315.203,33.347l41.82,162.409l-20.908,83.631l-41.819,-165.362l20.907,-80.678Z"/></clipPath><g clip-path="url(#_clip3)"><g id="g72"><g id="g74"><path id="path84" d="M315.203,33.347l41.82,162.409l-20.908,83.631l-41.819,-165.362l20.907,-80.678Z" style="fill:#fff;fill-rule:nonzero;"/></g></g></g></g></g><g id="g86"><g id="g88"><clipPath id="_clip4"><path d="M324.327,33.347l54.618,212.247l82.553,-0l-55.559,-212.247l-81.612,-0Z"/></clipPath><g clip-path="url(#_clip4)"><g id="g94"><g id="g96"><path id="path106" d="M324.327,33.347l54.618,212.247l82.553,-0l-55.559,-212.247l-81.612,-0Z" style="fill:#fff;fill-rule:nonzero;"/></g></g></g></g></g><g id="g108"><g id="g110"><clipPath id="_clip5"><path d="M517.19,66.503l-46.568,179.091l-42.132,-160.717l6.336,-18.374l82.364,-0Z"/></clipPath><g clip-path="url(#_clip5)"><g id="g116"><g id="g118"><path id="path128" d="M517.19,66.503l-46.568,179.091l-42.132,-160.717l6.336,-18.374l82.364,-0Z" style="fill:#fff;fill-rule:nonzero;"/></g></g></g></g></g></g></g></g></g></svg>