<?xml version="1.0" encoding="UTF-8" standalone="no"?><!DOCTYPE svg PUBLIC "-//W3C//DTD SVG 1.1//EN" "http://www.w3.org/Graphics/SVG/1.1/DTD/svg11.dtd"><svg width="100%" height="100%" viewBox="0 0 600 205" version="1.1" xmlns="http://www.w3.org/2000/svg" xmlns:xlink="http://www.w3.org/1999/xlink" xml:space="preserve" xmlns:serif="http://www.serif.com/" style="fill-rule:evenodd;clip-rule:evenodd;stroke-linejoin:round;stroke-miterlimit:2;"><g id="sammy_atomiswave_alt"><g><path id="path138" d="M256.41,127.872c-0.701,-2.569 0,-2.115 13.471,-53.273c19.463,-0.462 18.684,-0 18.684,-0c0,-0 -0.637,3.284 -15.571,55.333c-13.314,-0.191 -15.923,0.367 -16.584,-2.06Z" style="fill:#fff;fill-rule:nonzero;"/><path id="path140" d="M283.583,129.932l2.958,-10.41l29.664,-0c0,-0 0.389,-2.082 4.126,-16.097c-26.782,-0.078 -27.498,1.25 -29.585,-2.18c-0.949,-1.562 0.297,-2.82 6.54,-26.646c41.717,0.157 49.206,-0 49.206,-0l-2.491,8.894l-28.029,0.233c-0,0 -0.327,-0.547 -3.737,10.356c28.029,-0.078 26.852,0.146 28.262,1.557c2.103,2.102 1.402,3.27 -7.085,34.293c-52.633,0.276 -49.829,0 -49.829,0Z" style="fill:#fff;fill-rule:nonzero;"/><path id="path142" d="M356.614,74.599c-15.416,52.401 -15.04,51.755 -13.314,53.974c1.635,2.102 4.205,1.213 69.839,1.405c13.081,-50.644 14.637,-55.379 14.637,-55.379l-19.308,-0l-13.392,48.447l-6.853,-0l13.393,-48.447l-18.686,-0l-13.391,48.135l-6.852,-0l13.392,-48.135l-19.465,-0Z" style="fill:#fff;fill-rule:nonzero;"/><path id="path144" d="M482.278,74.599c7.164,51.859 7.398,52.417 9.033,54.052c1.401,1.402 1.478,1.323 37.448,1.323c13.314,-52.554 0.701,-2.815 13.936,-55.375l-19.308,-0l-11.445,47.591l-4.126,-0l-5.606,-47.591c0,-0 -4.75,-0.228 -19.932,-0Z" style="fill:#fff;fill-rule:nonzero;"/><path id="path146" d="M600,74.599c-0,-0 -2.102,0.005 -47.337,-0c-13.626,53.26 -13.626,52.998 -12.458,54.441c1.167,1.444 2.803,0.934 47.337,0.892c1.013,-6.498 1.246,-9.768 1.246,-9.768l-28.729,0l3.815,-16.117l25.148,-0.233l2.257,-9.732l-24.914,0l2.803,-10.589l28.963,-0l1.869,-8.894Z" style="fill:#fff;fill-rule:nonzero;"/><path id="path156" d="M452.38,83.668l-5.536,20.963l12.917,0l-1.682,-20.963l-5.699,-0Zm29.274,46.31l-19.309,0l-1.713,-13.785l-15.106,0l-4.045,13.785l-19,0c-0,0 0.001,-1.653 15.261,-55.379c31.222,-0.23 32.39,-0.216 34.025,2.587c1.401,2.102 1.646,5.23 9.887,52.792Z" style="fill:#fff;fill-rule:nonzero;"/><path id="path132" d="M177.369,76.949c1.861,2.808 0.935,4.361 -12.754,52.983c-42.37,0.272 -41.435,-0.038 -43.616,-2.531c-2.469,-2.823 -0.934,-4.684 12.473,-52.802c43.055,0.005 42.043,-0.449 43.897,2.35Zm-97.479,51.076c-2.165,-3.111 -2.46,-4.74 8.735,-43.286c-18.842,0.155 -20.555,0 -20.555,0l3.738,-10.14l54.812,-0l-3.115,10.14l-16.817,0c0,0 0.015,0.073 -12.457,45.193c-10.915,-0.038 -12.579,0.625 -14.341,-1.907Zm-10.576,1.953l-19.308,0l-1.714,-13.785l-15.106,0l-4.045,13.785l-19,0c-0,0 0.002,-1.653 15.261,-55.379c31.222,-0.23 32.39,-0.216 34.025,2.587c1.402,2.102 1.646,5.23 9.887,52.792Zm158.377,-0.09l11.201,-47.64l-6.384,0l-12.458,47.684l-19.308,0l13.08,-47.684l-6.229,0l-13.08,47.684l-18.063,0c-1.077,-0.89 1.402,-3.83 14.948,-55.333c68.749,-0.228 65.012,-0.916 67.348,2.587c1.336,2.004 1.153,3.188 -11.913,52.746c-14.759,-0.126 -18.386,-0.086 -19.142,-0.044l-0.011,0.044c0,0 -0.382,-0.022 0.011,-0.044Zm-78.648,-45.771l-9.965,36.748l9.965,-0l9.966,-36.748l-9.966,-0Zm-109.003,-0.449l-5.536,20.963l12.918,0l-1.683,-20.963l-5.699,-0Z" style="fill:#fff;fill-rule:nonzero;"/></g><path id="path40" d="M16.717,134.588l12.424,0c2.046,0 3.847,-1.349 4.423,-3.312l3.074,-10.473c-0,0 7.582,0 7.582,0c-0,0 1.211,9.744 1.211,9.744c0.287,2.308 2.249,4.041 4.575,4.041l17.625,0l-17.088,69.421l-50.543,-0.383l16.717,-69.038Zm136.366,34.579l8.652,-34.607c-6.949,0.042 -12.67,0.062 -17.39,0.056l8.738,34.551Zm-64.735,-34.611c1.618,-0.008 3.548,-0.022 5.867,-0.014c2.079,0.008 3.905,-1.377 4.459,-3.381c7.21,-26.083 10.252,-37.131 11.536,-41.812l13.295,0c0.369,0 0.729,-0.043 1.076,-0.127c-6.227,22.049 -8.722,30.357 -9.098,34.17c-0.384,3.89 0.568,5.354 2.046,7.044c0,0 0,0.001 0,0.001c1.485,1.697 2.074,2.893 6.919,3.575c2.424,0.342 6.61,0.519 14.334,0.58l8.787,34.575l-50.543,0l-8.678,-34.611Zm142.278,-0.1l3.746,14.288l3.709,-14.266c-3.557,-0.021 -5.909,-0.026 -7.455,-0.022Zm-5.86,-1.297l-0.988,-0.514c-0.849,1.166 -2.22,1.897 -3.728,1.897l-19.308,0c-1.163,0 -2.272,-0.438 -3.115,-1.211c-0.829,0.76 -1.93,1.211 -3.114,1.211l-18.063,0c-0.4,0 -0.795,-0.052 -1.177,-0.152l3.694,14.354l49.891,0l-4.076,-15.573l-0.016,-0.012Zm-0.405,-1.594c-0.109,0.29 -0.247,0.565 -0.408,0.821c0.243,0.293 0.521,0.55 0.813,0.773l0.014,0.008l-0.419,-1.602Zm-16.136,-61.645l-12.944,-49.446l-49.322,-0l12.738,49.5c8.397,0.01 12.84,0.08 15.332,0.359c2.463,0.275 3.772,0.835 4.673,1.409c1.083,0.69 1.734,1.488 2.511,2.661c1.19,1.797 2.185,3.236 0.928,9.337c-1.042,5.057 -3.971,15.168 -10.267,37.44l0.833,3.235c1.727,-5.841 5.887,-19.259 14.233,-50.989c0.531,-2.02 2.354,-3.43 4.443,-3.437c6.176,-0.021 11.77,-0.045 16.842,-0.069Zm-136.388,47.582l3.211,-13.047l-3.74,-15.053c-3.178,-0.024 -3.653,-0.072 -3.653,-0.072c-0.236,-0.021 -0.467,-0.06 -0.693,-0.116c1.047,5.96 2.559,14.847 4.875,28.288Zm5.191,-28.089l2.555,10.19c0.845,-3.029 1.807,-6.416 2.898,-10.211c-2.098,0.012 -3.903,0.019 -5.453,0.021Zm-9.694,-16.006l-18.132,-72.972l-16.831,69.506c14.255,-0.084 20.808,-0.018 24.091,0.505c2.144,0.342 3.432,0.919 4.363,1.544c1.109,0.743 1.833,1.61 2.513,2.753c0.585,0.893 1.126,1.943 1.768,4.708l2.228,-6.044Zm85.857,-3.433c-5.275,0.003 -11.752,0.016 -19.719,0.015c-1.339,-0 -2.573,0.577 -3.426,1.525c-0.542,-0.601 -1.228,-1.045 -1.986,-1.294l-0.25,-0.989l12.635,-48.757l12.746,49.5Zm101.614,0.186c-0.182,-0.02 -0.371,-0.038 -0.566,-0.056c-4.828,-0.43 -15.473,-0.336 -40.538,-0.21l-4.791,-18.278l3.828,-11.105l49.777,0l-7.71,29.649Zm-132.443,-0.171l-50.205,-0l-17.441,-69.554l49.968,-0l17.678,69.554Z" style="fill:#fff;fill-rule:nonzero;"/></g></svg>