<svg clip-rule="evenodd" fill-rule="evenodd" stroke-linejoin="round" stroke-miterlimit="2" viewBox="0 0 600 150" xmlns="http://www.w3.org/2000/svg"><g fill="#fff" fill-rule="nonzero"><path d="m431.446 133.628c-.25 1.493-1.675 2.946-3.162 3.226l-11.748 2.219c-1.486.282-3.34-.554-4.114-1.855l-8.307-13.999 16.658-6.151.539-.198v-8.045l4.137-3.165 5.847.047.291.002.228-.179 5.058-3.973zm-38.215-49.604 11.954-9.973 9.772 17.383c.742 1.319 1.519 1.172 1.724-.328l7.733-56.186h8.087l.231-.194 3.091-2.592.296-.246v-13.37l1.973-2.106.224-.238v-4.541l1.915-1.698.277-.245v-6.92l10.848-2.185c1.482-.3 2.492.677 2.238 2.169l-8.873 52.425h-10.041v5.212l-2.17 2.124-.247.243-.002.346-.053 17.406-.003.829h8.085l-3.014 17.797-6.257 4.915-5.844-.047-.283-.002-4.911 3.761-.324.247v7.708l-16.404 6.057-7.875-13.267c.441-8.96-.183-17.337-2.147-24.484zm-26.283-23.425-11.332-19.089 7.886-.001h.828v-10.991h7.796l.249-.34 1.456-1.992h5.584l24.953 44.4-11.644 9.714c-2.858-9.086-8.048-15.976-16.184-19.226-3.061-1.223-6.306-2.044-9.592-2.475zm66.966 2.854 2.172-2.126.249-.243v-4.254h8.109l-3.869 22.855h-6.705zm-87.539-42.618 23.201-4.795c1.478-.306 3.3.524 4.044 1.842l4.863 8.654h-5.492l-.249.339-1.46 1.993h-8.611v10.992h-8.037l-9.557-16.1c-.768-1.304-.188-2.621 1.298-2.925zm81.76-12.922c.205-1.5 1.589-2.971 3.07-3.271l7.652-1.542v5.845l-1.919 1.697-.279.246v4.632l-1.97 2.105-.224.239v13.25l-2.566 2.151h-7.257z"/><path d="m62.05 94.373c1.692 3.342 2.541 7.32 2.541 11.938 0 4.455-.931 8.311-2.79 11.568-1.859 3.256-4.277 5.933-7.252 8.039-2.975 2.104-6.344 3.668-10.104 4.703-3.762 1.029-7.544 1.544-11.343 1.544-7.606 0-13.99-1.403-19.156-4.203-5.165-2.8-9.814-7.05-13.946-12.741l8.808-11.119c.815-1.027 2.2-1.067 3.073-.093 0 0 1.013 1.131 2.748 2.49 1.736 1.363 3.614 2.557 5.641 3.587 2.022 1.033 4.09 1.878 6.198 2.537 2.109.66 4.07.991 5.888.991 1.817 0 3.205-.332 4.153-.991.95-.658 1.428-1.895 1.428-3.71 0-1.567-.85-3.051-2.542-4.455-1.696-1.399-3.803-2.863-6.323-4.389-2.523-1.524-5.25-3.174-8.183-4.949-2.933-1.772-5.66-3.854-8.181-6.248-2.522-2.389-4.63-5.134-6.323-8.225-1.694-3.094-2.541-6.659-2.541-10.702 0-3.958.744-7.422 2.23-10.39 1.487-2.97 3.492-5.463 6.014-7.485 2.519-2.019 5.433-3.545 8.74-4.578 3.304-1.03 6.817-1.546 10.537-1.546 6.611 0 12.541 1.218 17.791 3.649 5.249 2.434 10.228 6.042 14.94 10.823l-7.132 10.987c-.714 1.1-2.112 1.299-3.105.438 0 0-1.792-1.549-3.774-2.83-1.981-1.276-3.925-2.368-5.825-3.277-1.903-.907-3.681-1.587-5.333-2.042-1.655-.452-3.098-.68-4.339-.68-1.488 0-2.583.372-3.285 1.113-.705.743-1.054 1.691-1.054 2.845 0 1.483.845 2.866 2.541 4.145 1.692 1.278 3.822 2.597 6.385 3.958 2.562 1.363 5.309 2.886 8.246 4.576 2.932 1.693 5.681 3.734 8.245 6.122 2.559 2.397 4.687 5.262 6.384 8.6zm32.497-4.786c.945-1.027 2.016-1.807 3.211-2.341 1.192-.531 2.365-.8 3.521-.8 3.458 0 6.03.863 7.718 2.589 1.688 1.725 2.452 3.487 2.452 3.487.521 1.2 1.983 1.922 3.252 1.607l14.984-3.74c-1.566-6.817-4.736-12.325-9.511-16.513-4.776-4.19-11.199-6.285-19.267-6.285-4.94 0-9.345.759-13.217 2.28-3.871 1.522-7.121 3.697-9.755 6.533-2.637 2.835-4.633 6.245-5.991 10.228-1.359 3.988-2.038 8.442-2.038 13.371 0 4.274.617 8.34 1.852 12.204 1.234 3.863 3.149 7.249 5.744 10.166 2.592 2.919 5.865 5.239 9.819 6.964 3.951 1.724 8.685 2.586 14.202 2.586 3.129 0 6.175-.477 9.14-1.417 2.965-.945 5.682-2.384 8.152-4.314 2.472-1.93 4.632-4.373 6.484-7.335 1.852-2.957 3.446-8.2 3.446-8.2.381-1.25-.338-2.568-1.593-2.931l-14.512-4.153c-.248 1.317-.784 2.506-1.606 3.575-.825 1.068-1.75 1.992-2.779 2.771-1.03.785-2.081 1.401-3.151 1.853-1.07.451-2.058.675-2.963.675-3.211 0-5.827-1.232-7.843-3.697-2.019-2.466-3.026-5.708-3.026-9.739 0-2.132.309-3.98.928-5.546.617-1.554 1.398-2.849 2.347-3.878zm102.94 10.443c-.206-5.112-.413-10.32-.619-15.635-.206-5.316-.486-14.734-.486-14.734-.038-1.31-1.144-2.361-2.454-2.331l-20.286.44c.25 3.957.476 7.377.682 10.261.206 2.885.373 5.646.496 8.281s.206 5.356.25 8.156c.038 2.803.062 6.1.062 9.889 0 2.885-.95 5.17-2.848 6.859-1.9 1.69-4.169 2.533-6.815 2.533-2.805 0-4.913-.845-6.316-2.533-1.406-1.689-2.106-3.728-2.106-6.118 0-4.275.197-8.287.618-12.48.413-4.117.824-7.908 1.24-11.373.496-3.954 1.341-9.019 1.341-9.019.214-1.294-.68-2.341-1.992-2.326l-21.151.221c-.579 4.122-1.073 8.241-1.487 12.362-.413 3.542-.762 7.291-1.052 11.247-.291 3.954-.432 7.497-.432 10.628 0 4.448.536 8.459 1.611 12.025 1.071 3.568 2.727 6.6 4.955 9.097s5.098 4.419 8.609 5.771c3.509 1.348 7.7 2.025 12.571 2.025 1.404 0 2.848-.186 4.336-.556 1.485-.372 2.91-.887 4.274-1.548 1.361-.659 2.618-1.419 3.777-2.284.52-.389 1.432-1.62 2.179-1.362.97.341.422 2.516.422 3.24 0 1.311 1.072 2.359 2.385 2.331l19.416-.435c-.165-6.058-.351-11.732-.558-17.027-.211-5.296-.418-10.496-.622-15.605zm89.981-20.795c-1.893-2.914-4.488-5.194-7.78-6.839-3.294-1.642-7.575-2.465-12.844-2.465-3.954 0-7.349.863-10.192 2.589-.756.46-1.497.947-2.209 1.476-.639.475-1.258.98-1.836 1.526-.431.407-.805 1.03-1.43 1.14-.16.026-.327.068-.495.051-.57-.053-.728-.437-1.023-.862-.822-1.194-1.889-2.198-3.073-3.024-2.061-1.435-4.654-2.156-7.781-2.156-1.566 0-3.048.246-4.448.739-1.402.492-2.655 1.129-3.766 1.91-.939.659-1.75 1.455-2.646 2.164-.441.346-.616.825-1.234.787-.639-.042-.548-.856-.592-1.292-.054-.517-.109-1.033-.162-1.55-.04-.378-.081-.757-.119-1.134-.134-1.299-1.314-2.339-2.622-2.307l-17.756.435c.247 5.012.432 9.817.556 14.42.124 4.602.205 9.262.248 13.985.04 4.725.04 9.716 0 14.975-.043 5.257-.058 14.997-.058 14.997-.002 1.308 1.065 2.361 2.373 2.341l17.231-.294c1.306-.023 2.398-1.113 2.425-2.416l.694-33.854c0-1.151.288-2.32.863-3.513s1.932-1.789 4.075-1.789c.989 0 1.771.368 2.348 1.111.572.74 1.048 1.726 1.421 2.957.371 1.232.615 2.649.739 4.251.124 1.6.186 3.266.186 4.991v10.476c0 2.708-.022 5.071-.062 7.082-.043 2.019-.105 3.905-.186 5.671-.083 1.767-.156 3.726-.156 3.726-.049 1.305.978 2.398 2.287 2.43l20.225.438c-.165-1.232-.308-2.751-.43-4.561-.124-1.805-.209-3.655-.25-5.545-.041-1.888-.081-3.697-.123-5.422-.043-1.726-.063-3.121-.063-4.192 0-7.885.331-13.757.991-17.621.659-3.861 2.386-5.793 5.187-5.793 1.728 0 3.067.719 4.014 2.158.944 1.438 1.422 3.841 1.422 7.209 0 3.205-.392 7.293-1.174 12.262-.784 4.972-3.241 15.737-3.241 15.737-.29 1.274.535 2.447 1.833 2.613l20.367 2.542c.905-5.094 1.667-10.022 2.286-14.791.617-4.762.927-9.408.927-13.928 0-4.845-.351-9.302-1.051-13.37-.704-4.062-2.002-7.555-3.896-10.471zm97.142 10.476c-.702-4.067-1.996-7.56-3.886-10.476-1.895-2.914-4.49-5.194-7.785-6.839-3.295-1.642-7.572-2.465-12.843-2.465-3.951 0-7.347.863-10.191 2.589-.726.441-1.434.909-2.122 1.412-.647.473-1.268.977-1.851 1.523-.482.451-1.106 1.533-1.871 1.312-.545-.159-1.023-.765-1.34-1.205-.784-1.074-1.794-1.978-2.88-2.734-2.06-1.434-4.654-2.157-7.78-2.157-1.569 0-3.049.247-4.448.74s-2.656 1.13-3.765 1.91c-1.112.781-2.02 1.603-2.717 2.464-.113.139-.223.275-.345.403-.177.183-.454.432-.732.364-.315-.073-.501-.543-.57-.82-.126-.486-.138-1-.187-1.499-.068-.646-.132-1.294-.202-1.938-.137-1.301-1.317-2.34-2.621-2.307l-17.755.435c.246 5.012.432 9.818.555 14.42.125 4.602.206 9.263.249 13.986.041 4.725.041 9.716 0 14.975-.042 5.257-.06 14.998-.06 14.998-.002 1.307 1.066 2.36 2.376 2.34l17.233-.293c1.306-.023 2.396-1.108 2.425-2.416l.692-33.854c0-1.151.29-2.32.865-3.513.575-1.191 1.934-1.788 4.075-1.788.989 0 1.771.369 2.345 1.11.573.74 1.051 1.726 1.422 2.957.371 1.232.614 2.649.741 4.252.124 1.602.186 3.266.186 4.989v10.476c0 2.708-.022 5.071-.062 7.084-.043 2.017-.105 3.903-.186 5.669-.083 1.768-.159 3.726-.159 3.726-.049 1.305.977 2.398 2.291 2.43h.036c.654.013 1.305.026 1.962.043 1.41.028 2.821.062 4.233.091 1.726.035 3.451.074 5.179.114 1.63.034 3.259.069 4.887.107.999.023 2.17.239 3.153.013.829-.192.646-.848.622-1.511-.028-1.001-.211-1.978-.284-2.976-.119-1.806-.205-3.657-.25-5.546-.04-1.888-.08-3.699-.121-5.422-.042-1.726-.064-3.121-.064-4.192 0-7.885.328-13.759.988-17.621s2.388-5.795 5.188-5.795c1.73 0 3.068.722 4.016 2.158.944 1.437 1.423 3.841 1.423 7.208 0 3.205-.389 7.294-1.175 12.262-.782 4.976-3.239 15.738-3.239 15.738-.292 1.274.53 2.45 1.833 2.613.556.069 1.11.139 1.659.208 2.787.349 5.567.693 8.351 1.041 1.765.222 3.536.407 5.304.614 1.073.124 2.134.362 3.205.484.662.072 1.501.409 2.036-.182.507-.567.478-1.602.594-2.3.181-1.055.288-2.115.376-3.181.132-1.63.341-3.227.57-4.846.196-1.361.375-2.722.552-4.086.615-4.763.927-9.406.927-13.927-.006-4.846-.358-9.303-1.058-13.369z"/><path d="m585.636 149.383-10.139-1.048 1.023-14.514 5.25-.69.436-.059.197-.393 1.336-2.704h6.393l-1.511 16.952c-.137 1.505-1.479 2.609-2.985 2.456zm4.642-21.061h-7.572l-.228.458-1.366 2.771-5.478.722-.665.088-.051.673-1.063 15.127-9.193-.95c-1.505-.158-2.631-1.519-2.501-3.026l3.717-43.215h12.197l.002-.825.07-26.322 4.705-17.022 13.794.055zm6.52-73.117-14.568-.059-.626-.002-.165.607-4.909 17.74-.029.107v.112l-.072 25.611h-10.407l2.418-28.087c.128-1.509-.387-1.67-1.14-.359l-40.481 70.204c-.754 1.312-2.608 2.251-4.112 2.092l-11.673-1.242c-1.506-.159-3.084-1.479-3.506-2.932l-8.409-28.868h5.235v-30.968h11.372l7.177 26.618c.394 1.459 1.312 1.57 2.039.244l37.859-69.14h16.026l.192-.565 6.958-20.876 11.515 1.002c1.509.131 2.631 1.472 2.497 2.981l-3.191 35.78zm-127.362 82.365-17.503-1.528c-1.509-.132-2.561-1.465-2.338-2.962l2.631-17.666 22.685 2.7-2.358 16.973c-.204 1.494-1.608 2.613-3.117 2.483zm-8.232-34.707 3.814 2.075.185.1h11.527l-1.591 11.438-22.67-2.697 1.634-10.961zm23.051-43.771c-.426-1.454-.939-1.414-1.15.083l-6.147 44.213h-11.338l-3.811-2.071-.181-.102-.209-.002-7.067-.045 8.568-57.552h11.858l.183-.576 3.25-10.223h25.009l12.052 44.695h-12.581v30.968h-4.061zm-12.622-55.268 21.701 2.184c1.508.152 3.066 1.472 3.455 2.934l5.993 22.223h-25.772l-.183.574-3.249 10.224h-10.407l5.32-35.692c.221-1.497 1.636-2.598 3.142-2.447zm102.103 13.083c.726-1.328 2.556-2.308 4.067-2.177l6.482.564-6.649 19.936h-13.932z"/></g></svg>