<svg clip-rule="evenodd" fill-rule="evenodd" stroke-linejoin="round" stroke-miterlimit="2" viewBox="0 0 600 164" xmlns="http://www.w3.org/2000/svg"><g fill="#fff"><path d="m359.627 77.513-25.218-42.485c-1.497-2.525-1.684-5.617-.5-8.302 1.186-2.686 3.593-4.632 6.472-5.226l27.744-5.734c3.871-.8 7.819.997 9.754 4.443 0 0 16.886 30.044 29.497 52.481 3.495-25.396 8.154-59.259 8.154-59.259.527-3.827 3.421-6.901 7.206-7.663l24.782-4.994c2.935-.591 5.97.299 8.116 2.382 2.147 2.081 3.131 5.087 2.633 8.034l-22.382 132.248c-.632 3.747-3.535 6.704-7.266 7.409l-16.647 3.144c-3.752.709-7.548-1.002-9.495-4.287l-19.749-33.272c.155-2.29.233-4.55.233-6.779-.006-4.702-.347-9.026-1.026-12.971-.031-.182-.064-.362-.098-.542l19.268-16.074-24.211-43.081h-5.418l-1.412 1.934-.242.329h-7.565v10.665h-.803l-7.652.001 18.265 30.765c-.468-.281-.954-.547-1.456-.797-2.884-1.438-6.542-2.228-10.984-2.369zm67.751 61.78c-.242 1.449-1.625 2.859-3.068 3.129l-11.399 2.154c-1.441.273-3.241-.537-3.991-1.8l-8.06-13.583 16.163-5.968.523-.192v-7.805l4.014-3.072 5.672.046.283.002.221-.174 4.908-3.855zm21.49-126.983-8.61 50.866h-9.742v5.058l-2.106 2.06-.239.236-.002.336-.052 16.889-.002.804h7.844l-2.924 17.268-6.071 4.768-5.67-.045-.275-.002-4.765 3.649-.314.239v7.479l-15.916 5.877-17.762-29.922 19.636-16.383 9.482 16.867c.719 1.279 1.473 1.136 1.672-.319l7.503-54.515h7.847l.224-.189 2.999-2.514.287-.24v-12.971l1.915-2.044.217-.231v-4.406l1.858-1.647.269-.239v-6.714l10.525-2.119c1.438-.291 2.418.657 2.172 2.104zm-19.096 58.894 2.109-2.062.241-.236v-4.128h7.867l-3.753 22.175h-6.506zm-84.936-41.351 22.512-4.652c1.434-.297 3.201.508 3.923 1.788l4.719 8.396h-5.328l-.243.328-1.416 1.935h-8.355v10.665h-7.798l-9.273-15.621c-.745-1.266-.182-2.543 1.259-2.839zm79.329-12.538c.199-1.455 1.542-2.882 2.98-3.174l7.424-1.495v5.671l-1.862 1.646-.271.24v4.493l-1.911 2.043-.217.232v12.856l-2.49 2.087h-7.041z"/><path d="m374.104 70.537c16.063 6.417 20.288 27.452 17.705 51.296-1.122 10.34-1.345 23.316-11.456 24.739-3.44.483-7.325-.343-10.938-.781-3.242-.395-6.952-1.692-10.156-1.301-1.947.238-3.427 1.821-5.209 2.342-3.954 1.162-8.875.521-14.32.521-3.33 0-6.71.054-9.634-.521-1.763-.347-3.57-1.683-5.47-1.821-1.737-.131-3.495.828-5.467 1.039-5.302.564-12.413.735-17.969.26-1.99-.176-4.189-1.329-5.987-1.301-1.776.027-3.767 1.346-5.73 1.564-6.96.771-14.277-2.685-20.308-2.082-2.811.281-5.654 2.776-9.374 3.123-5.37.507-14.19.193-19.529-.779-2.001-.364-4.058-1.693-5.988-1.823-1.751-.12-3.748.858-5.728 1.041-5.062.471-11.387.514-16.666.26-1.52-.076-3.043-.607-4.428-.52-2.399.153-4.767 1.813-7.031 2.083-6.042.729-12.774.835-18.486.261-2.03-.207-4.09-1.28-6.25-1.301-2.925-.034-5.637 1.352-8.072 1.564-14.073 1.226-24.667-5.534-31.769-13.281-3.141 1.51-5.153 4.3-8.072 6.25-13.052 8.741-35.326 6.222-46.87-2.865-1.638-1.29-3.976-5.239-5.988-5.207-1.716.029-4.704 4.022-6.251 5.207-6.146 4.711-14.423 8.159-24.736 8.853-15.515 1.04-27.911-4.758-35.933-12.238-4.112-3.838-10.042-10.143-7.291-17.966 1.416-4.028 5.56-8.143 8.593-11.717 1.116-1.318 2.792-2.605 2.862-3.906.13-2.342-3.7-5.831-4.686-7.551-4.475-7.807-5.908-20.69-1.562-30.467 5.181-11.652 18.868-20.083 37.495-18.748 7.102.51 14.393 2.695 20.571 6.249 8.827 5.073 17.983 9.765 15.104 23.174 3.721-.797 5.857-3.446 9.113-4.946 11.314-5.224 29.422-4.855 39.838 1.823 1.306.839 3.31 2.847 4.428 2.863 2.072.026 4.616-4.149 6.509-4.948 4.242-1.788 17.881-1.886 23.958-1.301 2.418.235 4.896 1.927 6.768 1.824 2.04-.113 4.671-2.641 6.25-3.125 4.854-1.486 19.8-2.094 25.257-.521 1.794.515 3.711 2.625 5.73 2.865 1.919.227 4.419-.688 6.509-.781 3.877-.178 8.234-.442 11.978-.26 2.7.132 5.254 1.672 7.809 1.822 2.375.143 5.213-1.063 7.812-1.04 2.081.017 4.475.514 6.508 1.04 1.937.502 3.874 1.834 5.47 1.825 2.377-.018 4.923-1.803 7.03-2.345 7.291-1.871 15.402-1.458 22.915 1.302 1.681.618 4.73 3.396 6.507 3.386 2.11-.013 4.597-3.679 6.511-4.428 5.33-2.078 13.195-1.807 19.527-1.564 2.854.111 5.413 1.687 8.074 1.823 2.359.121 4.886-1.003 7.289-1.04 2.277-.037 4.473.514 6.51 1.04 2.052.531 4.219 1.801 5.73 1.824 2.017.026 4.002-1.585 5.728-2.084 7.873-2.269 17.224-1.916 25.266 1.296zm-173.728 36.156c-.2-4.959-.402-10.013-.602-15.17s-.471-14.296-.471-14.296c-.037-1.271-1.11-2.29-2.381-2.261l-19.683.427c.243 3.839.462 7.158.662 9.956.2 2.799.362 5.478.481 8.035.12 2.557.2 5.196.243 7.913.037 2.72.06 5.919.06 9.595 0 2.799-.922 5.016-2.763 6.656-1.844 1.639-4.045 2.457-6.613 2.457-2.722 0-4.766-.82-6.128-2.457-1.365-1.64-2.043-3.618-2.043-5.937 0-4.148.191-8.041.599-12.109.401-3.994.8-7.673 1.203-11.035.482-3.837 1.301-8.75 1.301-8.75.209-1.256-.659-2.272-1.932-2.258l-20.522.215c-.562 3.999-1.042 7.996-1.443 11.994-.401 3.437-.74 7.075-1.021 10.913-.282 3.837-.419 7.274-.419 10.312 0 4.316.52 8.207 1.563 11.668 1.039 3.462 2.646 6.404 4.808 8.826 2.162 2.423 4.946 4.288 8.353 5.6 3.405 1.307 7.471 1.964 12.197 1.964 1.362 0 2.764-.18 4.207-.54 1.441-.36 2.824-.86 4.147-1.501 1.321-.64 2.54-1.377 3.665-2.217.505-.376 1.389-1.571 2.114-1.32.941.33.41 2.44.41 3.143 0 1.272 1.039 2.289 2.313 2.262l18.84-.423c-.161-5.878-.341-11.383-.542-16.52-.204-5.138-.406-10.184-.603-15.142zm181.559-10.011c-.682-3.947-1.937-7.336-3.771-10.165-1.838-2.828-4.356-5.039-7.553-6.635-3.197-1.594-7.347-2.392-12.461-2.392-3.834 0-7.129.837-9.888 2.511-.705.429-1.392.883-2.059 1.371-.628.459-1.23.948-1.796 1.477-.468.438-1.074 1.488-1.815 1.273-.53-.154-.993-.742-1.301-1.169-.76-1.042-1.74-1.919-2.794-2.652-1.999-1.392-4.516-2.094-7.549-2.094-1.522 0-2.958.241-4.316.719-1.357.478-2.577 1.096-3.652 1.853-1.08.758-1.96 1.555-2.637 2.391-.11.134-.217.267-.335.39-.172.178-.44.419-.71.354-.305-.071-.486-.527-.553-.796-.122-.471-.134-.97-.182-1.454-.065-.627-.128-1.255-.196-1.881-.132-1.262-1.277-2.27-2.543-2.238l-17.226.422c.238 4.863.419 9.526.538 13.991.121 4.465.2 8.988.242 13.57.039 4.585.039 9.428 0 14.53-.041 5.101-.058 14.552-.058 14.552-.002 1.269 1.034 2.29 2.305 2.271l16.72-.285c1.267-.022 2.325-1.075 2.353-2.344l.672-32.847c0-1.117.281-2.251.839-3.409.558-1.156 1.877-1.735 3.954-1.735.959 0 1.718.358 2.276 1.078.555.717 1.019 1.674 1.379 2.869.359 1.195.595 2.569.719 4.125.12 1.555.18 3.169.18 4.841v10.164c0 2.628-.021 4.92-.06 6.874-.041 1.957-.102 3.787-.18 5.5-.081 1.716-.155 3.615-.155 3.615-.047 1.266.949 2.327 2.223 2.358h.035c.635.013 1.267.026 1.904.042 1.368.027 2.737.06 4.107.089 1.674.033 3.349.07 5.025.11 1.581.032 3.162.066 4.741.103.97.023 2.106.232 3.06.013.804-.186.626-.822.603-1.466-.026-.971-.204-1.92-.275-2.888-.115-1.751-.199-3.547-.242-5.38-.039-1.832-.079-3.589-.118-5.261-.041-1.675-.062-3.028-.062-4.068 0-7.65.318-13.349.959-17.097.64-3.747 2.316-5.623 5.033-5.623 1.679 0 2.977.701 3.897 2.095.915 1.393 1.381 3.726 1.381 6.993 0 3.109-.378 7.077-1.141 11.898-.759 4.828-3.142 15.269-3.142 15.269-.284 1.237.514 2.377 1.778 2.536.54.067 1.077.135 1.61.201 2.704.339 5.401.673 8.102 1.011 1.714.215 3.431.395 5.147.596 1.041.119 2.071.351 3.109.469.643.069 1.457.396 1.976-.176.492-.55.464-1.555.577-2.232.175-1.023.279-2.052.364-3.086.128-1.582.331-3.132.553-4.702.191-1.321.364-2.642.536-3.965.597-4.622.899-9.127.899-13.513-.006-4.702-.347-9.026-1.026-12.971zm-94.254-10.165c-1.837-2.828-4.355-5.039-7.549-6.635-3.196-1.594-7.35-2.392-12.462-2.392-3.836 0-7.131.837-9.889 2.511-.733.447-1.453.92-2.143 1.433-.62.461-1.221.951-1.782 1.481-.418.395-.781.999-1.387 1.106-.155.025-.317.065-.48.049-.553-.051-.707-.424-.993-.837-.798-1.157-1.833-2.132-2.982-2.933-1.999-1.393-4.515-2.093-7.549-2.093-1.52 0-2.958.24-4.316.718-1.36.477-2.576 1.095-3.654 1.853-.911.639-1.698 1.412-2.568 2.1-.427.335-.597.8-1.197.763-.62-.04-.531-.83-.574-1.253-.052-.502-.106-1.002-.157-1.504-.039-.367-.078-.735-.115-1.101-.131-1.26-1.276-2.269-2.545-2.238l-17.228.422c.24 4.863.419 9.525.54 13.991.12 4.465.199 8.986.24 13.569.039 4.585.039 9.428 0 14.53-.041 5.101-.056 14.552-.056 14.552-.002 1.269 1.034 2.29 2.303 2.271l16.718-.286c1.267-.022 2.327-1.079 2.353-2.344l.674-32.847c0-1.117.279-2.251.837-3.409.558-1.157 1.874-1.736 3.954-1.736.959 0 1.718.358 2.277 1.079.556.717 1.018 1.674 1.379 2.869.36 1.195.597 2.569.718 4.124.12 1.553.18 3.169.18 4.843v10.164c0 2.628-.021 4.92-.06 6.872-.042 1.959-.102 3.789-.18 5.502-.081 1.715-.152 3.615-.152 3.615-.047 1.266.949 2.327 2.219 2.358l19.624.425c-.161-1.195-.299-2.669-.418-4.425-.119-1.752-.202-3.547-.242-5.381-.039-1.832-.079-3.586-.12-5.261-.041-1.674-.06-3.028-.06-4.067 0-7.65.321-13.347.961-17.097.639-3.746 2.315-5.621 5.033-5.621 1.677 0 2.975.699 3.895 2.095.915 1.394 1.379 3.726 1.379 6.994 0 3.109-.38 7.076-1.139 11.898-.761 4.824-3.144 15.268-3.144 15.268-.282 1.236.518 2.375 1.778 2.536l19.761 2.466c.878-4.942 1.618-9.724 2.218-14.351.599-4.621.9-9.128.9-13.514 0-4.701-.341-9.025-1.019-12.973-.684-3.941-1.943-7.33-3.781-10.159zm-218.716 14.688c1.642 3.243 2.466 7.102 2.466 11.583 0 4.322-.904 8.064-2.707 11.224-1.805 3.159-4.15 5.757-7.037 7.8-2.886 2.041-6.155 3.559-9.803 4.563-3.65.998-7.32 1.499-11.006 1.499-7.38 0-13.574-1.362-18.586-4.079s-9.523-6.84-13.532-12.362l8.546-10.788c.791-.997 2.135-1.036 2.981-.091 0 0 .983 1.098 2.667 2.416 1.684 1.323 3.507 2.481 5.473 3.481 1.962 1.002 3.969 1.821 6.014 2.462 2.046.64 3.949.961 5.713.961 1.763 0 3.11-.322 4.029-.961.922-.639 1.386-1.84 1.386-3.601 0-1.519-.825-2.96-2.466-4.322-1.646-1.358-3.691-2.778-6.135-4.259-2.448-1.478-5.094-3.079-7.94-4.801-2.846-1.72-5.492-3.739-7.937-6.062-2.448-2.318-4.493-4.982-6.136-7.981-1.643-3.002-2.465-6.461-2.465-10.383 0-3.841.721-7.202 2.164-10.082 1.442-2.882 3.388-5.3 5.834-7.262 2.445-1.959 5.272-3.44 8.481-4.442 3.205-.999 6.614-1.5 10.223-1.5 6.415 0 12.169 1.181 17.263 3.54 5.092 2.361 9.924 5.862 14.496 10.501l-6.921 10.661c-.692 1.067-2.049 1.26-3.012.425 0 0-1.739-1.503-3.662-2.746-1.923-1.239-3.809-2.298-5.652-3.18-1.846-.88-3.571-1.539-5.174-1.981-1.606-.439-3.006-.66-4.21-.66-1.444 0-2.507.361-3.188 1.08-.684.721-1.022 1.641-1.022 2.761 0 1.439.82 2.781 2.465 4.021 1.642 1.241 3.709 2.52 6.195 3.841 2.486 1.322 5.152 2.8 8.001 4.44 2.845 1.642 5.513 3.622 8 5.94 2.483 2.325 4.547 5.105 6.194 8.344zm31.531-4.644c.916-.996 1.956-1.753 3.116-2.271 1.156-.516 2.294-.776 3.416-.776 3.355 0 5.85.837 7.489 2.511 1.637 1.675 2.379 3.384 2.379 3.384.505 1.164 1.924 1.865 3.155 1.559l14.538-3.628c-1.519-6.615-4.595-11.959-9.228-16.022-4.634-4.066-10.866-6.098-18.694-6.098-4.793 0-9.068.735-12.824 2.212-3.756 1.476-6.91 3.586-9.465 6.338-2.558 2.751-4.495 6.06-5.813 9.924-1.318 3.869-1.978 8.191-1.978 12.974 0 4.146.599 8.092 1.797 11.84 1.198 3.749 3.056 7.034 5.573 9.864 2.516 2.832 5.691 5.083 9.527 6.758 3.835 1.672 8.428 2.509 13.781 2.509 3.035 0 5.991-.464 8.868-1.375 2.876-.918 5.512-2.313 7.91-4.186s4.493-4.244 6.29-7.117c1.797-2.869 3.345-7.956 3.345-7.956.369-1.213-.328-2.492-1.547-2.844l-14.08-4.029c-.241 1.277-.761 2.431-1.559 3.468-.8 1.036-1.697 1.932-2.696 2.689-.999.761-2.018 1.359-3.057 1.797-1.038.438-1.997.655-2.875.655-3.116 0-5.654-1.195-7.609-3.586-1.959-2.393-2.936-5.539-2.936-9.45 0-2.068.299-3.862.899-5.381.599-1.508 1.357-2.764 2.278-3.763z"/><path d="m597.253 20.704c-2.02-2.408-4.854-3.885-7.983-4.158l-19.102-1.661c-5.048-.439-10.265 2.357-12.696 6.798 0 0-25.599 46.742-37.779 68.99-6.56-24.328-20.149-74.722-20.149-74.722-1.369-5.077-5.975-8.991-11.212-9.517l-21.057-2.12c-6.323-.636-12.005 3.788-12.942 10.071l-18.327 123.037c-.468 3.158.385 6.402 2.358 8.896 1.966 2.491 4.918 4.08 8.105 4.362l16.978 1.481c6.311.552 11.935-3.934 12.81-10.208 0 0 2.392-17.211 4.763-34.25 5.725 19.664 11.453 39.336 11.453 39.336 1.443 4.953 6.031 8.795 11.16 9.335l11.327 1.209c5.023.533 10.293-2.146 12.814-6.524 0 0 10.108-17.528 20.197-35.022-1.399 16.268-2.815 32.722-2.815 32.722-.029.335-.044.674-.044 1.004 0 5.957 4.56 11.119 10.586 11.741l20.35 2.108c3.144.325 6.218-.603 8.657-2.616 2.442-2.008 3.938-4.849 4.217-8.001l11.029-123.707c.283-3.124-.676-6.174-2.698-8.584zm-31.816 5.338c.705-1.289 2.481-2.239 3.947-2.112l6.289.547-6.451 19.343h-13.518zm-99.067-12.694 21.056 2.12c1.464.147 2.975 1.427 3.353 2.846l5.814 21.562h-25.005l-.178.558-3.153 9.919h-10.097l5.161-34.63c.215-1.453 1.588-2.521 3.049-2.375zm-10.118 96.095 3.7 2.013.18.097h11.184l-1.544 11.098-21.995-2.617 1.585-10.636zm7.987 33.675-16.983-1.483c-1.464-.128-2.485-1.421-2.268-2.874l2.553-17.141 22.01 2.62-2.288 16.468c-.198 1.45-1.56 2.536-3.024 2.41zm14.378-76.145c-.413-1.411-.911-1.372-1.116.081l-5.964 42.898h-11.001l-3.698-2.01-.176-.098-.202-.002-6.857-.044 8.313-55.841h11.506l.177-.559 3.154-9.919h24.266l11.693 43.366h-12.207v30.047h-3.94zm98.367 87.606-9.837-1.017.992-14.082 5.094-.67.423-.057.191-.381 1.296-2.623h6.203l-1.466 16.447c-.133 1.461-1.435 2.532-2.896 2.383zm4.504-20.435h-7.347l-.221.445-1.325 2.689-5.316.701-.645.084-.049.653-1.032 14.678-8.92-.922c-1.459-.153-2.553-1.474-2.427-2.937l3.607-41.929h11.834l.002-.801.068-25.539 4.566-16.516 13.383.054zm6.326-70.943-14.134-.057-.608-.002-.161.59-4.762 17.212-.029.104v.108l-.07 24.849h-10.097l2.346-27.252c.124-1.463-.376-1.62-1.106-.348l-39.278 68.117c-.731 1.274-2.53 2.185-3.989 2.03l-11.326-1.205c-1.461-.155-2.993-1.435-3.402-2.845l-8.159-28.01h5.079v-30.047h11.034l6.964 25.827c.382 1.416 1.273 1.523 1.978.237l36.734-67.084h15.55l.186-.549 6.751-20.255 11.173.972c1.463.127 2.552 1.428 2.422 2.892z" fill-rule="nonzero"/></g></svg>