<?xml version="1.0" encoding="UTF-8" standalone="no"?><!DOCTYPE svg PUBLIC "-//W3C//DTD SVG 1.1//EN" "http://www.w3.org/Graphics/SVG/1.1/DTD/svg11.dtd"><svg width="100%" height="100%" viewBox="0 0 600 164" version="1.1" xmlns="http://www.w3.org/2000/svg" xmlns:xlink="http://www.w3.org/1999/xlink" xml:space="preserve" xmlns:serif="http://www.serif.com/" style="fill-rule:evenodd;clip-rule:evenodd;stroke-linejoin:round;stroke-miterlimit:2;"><g id="scummvm_outline"><path d="M359.627,76.986l-25.218,-42.485c-1.497,-2.524 -1.684,-5.616 -0.5,-8.301c1.186,-2.687 3.593,-4.633 6.472,-5.226l27.744,-5.735c3.871,-0.8 7.819,0.997 9.754,4.443c0,0 16.886,30.044 29.497,52.482c3.495,-25.397 8.154,-59.259 8.154,-59.259c0.527,-3.827 3.421,-6.902 7.206,-7.664l24.782,-4.994c2.935,-0.59 5.97,0.3 8.116,2.383c2.147,2.08 3.131,5.087 2.633,8.033l-22.382,132.249c-0.632,3.746 -3.535,6.703 -7.266,7.408l-16.647,3.145c-3.752,0.709 -7.548,-1.003 -9.495,-4.288l-19.749,-33.271c0.155,-2.291 0.233,-4.55 0.233,-6.779c-0.006,-4.702 -0.347,-9.027 -1.026,-12.972c-0.031,-0.182 -0.064,-0.362 -0.098,-0.542l19.268,-16.074l-24.211,-43.08l-5.418,-0l-1.412,1.934l-0.242,0.329l-7.565,-0l0,10.664l-0.803,0l-7.652,0.001l18.265,30.766c-0.468,-0.281 -0.954,-0.547 -1.456,-0.798c-2.884,-1.437 -6.542,-2.227 -10.984,-2.369Zm67.751,61.78c-0.242,1.449 -1.625,2.859 -3.068,3.13l-11.399,2.154c-1.441,0.273 -3.241,-0.538 -3.991,-1.801l-8.06,-13.582l16.163,-5.968l0.523,-0.193l-0,-7.805l4.014,-3.071l5.672,0.045l0.283,0.002l0.221,-0.173l4.908,-3.856l-5.266,31.118Zm21.49,-126.983l-8.61,50.866l-9.742,0l0,5.058l-2.106,2.061l-0.239,0.236l-0.002,0.335l-0.052,16.889l-0.002,0.804l7.844,0l-2.924,17.268l-6.071,4.769l-5.67,-0.046l-0.275,-0.002l-4.765,3.649l-0.314,0.24l0,7.479l-15.916,5.877l-17.762,-29.922l19.636,-16.383l9.482,16.866c0.719,1.28 1.473,1.137 1.672,-0.318l7.503,-54.516l7.847,0l0.224,-0.188l2.999,-2.515l0.287,-0.239l0,-12.972l1.915,-2.044l0.217,-0.23l-0,-4.406l1.858,-1.648l0.269,-0.238l0,-6.714l10.525,-2.12c1.438,-0.291 2.418,0.657 2.172,2.104Zm-19.096,58.895l2.109,-2.063l0.241,-0.236l-0,-4.127l7.867,-0l-3.753,22.175l-6.506,-0l0.042,-15.749Zm-84.936,-41.351l22.512,-4.653c1.434,-0.297 3.201,0.508 3.923,1.788l4.719,8.397l-5.328,-0l-0.243,0.328l-1.416,1.934l-8.355,0l-0,10.665l-7.798,0l-9.273,-15.621c-0.745,-1.265 -0.182,-2.543 1.259,-2.838Zm79.329,-12.538c0.199,-1.455 1.542,-2.883 2.98,-3.174l7.424,-1.495l-0,5.67l-1.862,1.647l-0.271,0.239l0,4.494l-1.911,2.042l-0.217,0.232l-0,12.857l-2.49,2.087l-7.041,-0l3.388,-24.599Z" style="fill:#fff;"/><path d="M374.104,70.011c16.063,6.416 20.288,27.451 17.705,51.296c-1.122,10.339 -1.345,23.316 -11.456,24.738c-3.44,0.484 -7.325,-0.343 -10.938,-0.781c-3.242,-0.395 -6.952,-1.691 -10.156,-1.301c-1.947,0.238 -3.427,1.822 -5.209,2.342c-3.954,1.162 -8.875,0.521 -14.32,0.521c-3.33,0 -6.71,0.054 -9.634,-0.521c-1.763,-0.347 -3.57,-1.682 -5.47,-1.821c-1.737,-0.13 -3.495,0.829 -5.467,1.039c-5.302,0.564 -12.413,0.736 -17.969,0.261c-1.99,-0.176 -4.189,-1.33 -5.987,-1.301c-1.776,0.026 -3.767,1.345 -5.73,1.563c-6.96,0.772 -14.277,-2.685 -20.308,-2.082c-2.811,0.282 -5.654,2.776 -9.374,3.123c-5.37,0.507 -14.19,0.193 -19.529,-0.778c-2.001,-0.365 -4.058,-1.694 -5.988,-1.824c-1.751,-0.12 -3.748,0.858 -5.728,1.041c-5.062,0.471 -11.387,0.515 -16.666,0.261c-1.52,-0.076 -3.043,-0.608 -4.428,-0.521c-2.399,0.154 -4.767,1.813 -7.031,2.084c-6.042,0.728 -12.774,0.835 -18.486,0.26c-2.03,-0.206 -4.09,-1.279 -6.25,-1.3c-2.925,-0.034 -5.637,1.351 -8.072,1.564c-14.073,1.225 -24.667,-5.534 -31.769,-13.281c-3.141,1.509 -5.153,4.3 -8.072,6.249c-13.052,8.741 -35.326,6.222 -46.87,-2.865c-1.638,-1.29 -3.976,-5.238 -5.988,-5.207c-1.716,0.029 -4.704,4.022 -6.251,5.207c-6.146,4.711 -14.423,8.159 -24.736,8.853c-15.515,1.041 -27.911,-4.758 -35.933,-12.237c-4.112,-3.839 -10.042,-10.143 -7.291,-17.966c1.416,-4.028 5.56,-8.143 8.593,-11.717c1.116,-1.319 2.792,-2.606 2.862,-3.906c0.13,-2.342 -3.7,-5.832 -4.686,-7.552c-4.475,-7.807 -5.908,-20.69 -1.562,-30.467c5.181,-11.652 18.868,-20.082 37.495,-18.748c7.102,0.51 14.393,2.696 20.571,6.249c8.827,5.073 17.983,9.766 15.104,23.175c3.721,-0.797 5.857,-3.446 9.113,-4.947c11.314,-5.224 29.422,-4.854 39.838,1.824c1.306,0.839 3.31,2.846 4.428,2.862c2.072,0.027 4.616,-4.148 6.509,-4.947c4.242,-1.789 17.881,-1.886 23.958,-1.301c2.418,0.235 4.896,1.926 6.768,1.823c2.04,-0.113 4.671,-2.64 6.25,-3.125c4.854,-1.486 19.8,-2.093 25.257,-0.52c1.794,0.515 3.711,2.624 5.73,2.864c1.919,0.228 4.419,-0.687 6.509,-0.781c3.877,-0.177 8.234,-0.442 11.978,-0.26c2.7,0.132 5.254,1.672 7.809,1.822c2.375,0.143 5.213,-1.062 7.812,-1.04c2.081,0.017 4.475,0.514 6.508,1.04c1.937,0.502 3.874,1.835 5.47,1.825c2.377,-0.018 4.923,-1.802 7.03,-2.344c7.291,-1.871 15.402,-1.459 22.915,1.302c1.681,0.618 4.73,3.396 6.507,3.385c2.11,-0.013 4.597,-3.679 6.511,-4.428c5.33,-2.077 13.195,-1.806 19.527,-1.563c2.854,0.11 5.413,1.687 8.074,1.822c2.359,0.121 4.886,-1.003 7.289,-1.04c2.277,-0.037 4.473,0.514 6.51,1.04c2.052,0.532 4.219,1.802 5.73,1.825c2.017,0.025 4.002,-1.585 5.728,-2.085c7.873,-2.269 17.224,-1.916 25.266,1.297Zm-173.728,36.156c-0.2,-4.96 -0.402,-10.013 -0.602,-15.17c-0.2,-5.158 -0.471,-14.296 -0.471,-14.296c-0.037,-1.271 -1.11,-2.29 -2.381,-2.262l-19.683,0.428c0.243,3.838 0.462,7.157 0.662,9.955c0.2,2.8 0.362,5.478 0.481,8.035c0.12,2.557 0.2,5.197 0.243,7.913c0.037,2.72 0.06,5.92 0.06,9.595c0,2.799 -0.922,5.017 -2.763,6.656c-1.844,1.639 -4.045,2.457 -6.613,2.457c-2.722,0 -4.766,-0.82 -6.128,-2.457c-1.365,-1.639 -2.043,-3.617 -2.043,-5.936c0,-4.149 0.191,-8.041 0.599,-12.11c0.401,-3.994 0.8,-7.672 1.203,-11.035c0.482,-3.836 1.301,-8.75 1.301,-8.75c0.209,-1.255 -0.659,-2.271 -1.932,-2.257l-20.522,0.214c-0.562,4 -1.042,7.996 -1.443,11.994c-0.401,3.438 -0.74,7.075 -1.021,10.914c-0.282,3.836 -0.419,7.274 -0.419,10.311c-0,4.316 0.52,8.208 1.563,11.668c1.039,3.462 2.646,6.404 4.808,8.827c2.162,2.422 4.946,4.287 8.353,5.599c3.405,1.307 7.471,1.965 12.197,1.965c1.362,-0 2.764,-0.18 4.207,-0.54c1.441,-0.361 2.824,-0.861 4.147,-1.502c1.321,-0.639 2.54,-1.377 3.665,-2.216c0.505,-0.377 1.389,-1.572 2.114,-1.321c0.941,0.33 0.41,2.441 0.41,3.143c-0,1.273 1.039,2.29 2.313,2.262l18.84,-0.422c-0.161,-5.878 -0.341,-11.384 -0.542,-16.521c-0.204,-5.138 -0.406,-10.184 -0.603,-15.141Zm181.559,-10.012c-0.682,-3.947 -1.937,-7.335 -3.771,-10.164c-1.838,-2.828 -4.356,-5.04 -7.553,-6.636c-3.197,-1.594 -7.347,-2.392 -12.461,-2.392c-3.834,0 -7.129,0.837 -9.888,2.512c-0.705,0.428 -1.392,0.882 -2.059,1.37c-0.628,0.46 -1.23,0.948 -1.796,1.478c-0.468,0.438 -1.074,1.488 -1.815,1.273c-0.53,-0.155 -0.993,-0.742 -1.301,-1.17c-0.76,-1.041 -1.74,-1.918 -2.794,-2.652c-1.999,-1.392 -4.516,-2.093 -7.549,-2.093c-1.522,-0 -2.958,0.24 -4.316,0.718c-1.357,0.479 -2.577,1.097 -3.652,1.854c-1.08,0.757 -1.96,1.554 -2.637,2.39c-0.11,0.135 -0.217,0.267 -0.335,0.391c-0.172,0.178 -0.44,0.419 -0.71,0.353c-0.305,-0.071 -0.486,-0.527 -0.553,-0.796c-0.122,-0.47 -0.134,-0.97 -0.182,-1.454c-0.065,-0.626 -0.128,-1.255 -0.196,-1.88c-0.132,-1.263 -1.277,-2.27 -2.543,-2.239l-17.226,0.423c0.238,4.863 0.419,9.526 0.538,13.991c0.121,4.465 0.2,8.987 0.242,13.57c0.039,4.584 0.039,9.427 -0,14.529c-0.041,5.101 -0.058,14.552 -0.058,14.552c-0.002,1.269 1.034,2.291 2.305,2.272l16.72,-0.285c1.267,-0.022 2.325,-1.075 2.353,-2.344l0.672,-32.848c-0,-1.116 0.281,-2.251 0.839,-3.409c0.558,-1.155 1.877,-1.734 3.954,-1.734c0.959,-0 1.718,0.358 2.276,1.077c0.555,0.718 1.019,1.674 1.379,2.869c0.359,1.195 0.595,2.57 0.719,4.126c0.12,1.554 0.18,3.168 0.18,4.841l0,10.164c0,2.628 -0.021,4.92 -0.06,6.874c-0.041,1.956 -0.102,3.786 -0.18,5.5c-0.081,1.715 -0.155,3.615 -0.155,3.615c-0.047,1.266 0.949,2.326 2.223,2.358l0.035,-0c0.635,0.013 1.267,0.025 1.904,0.041c1.368,0.028 2.737,0.06 4.107,0.089c1.674,0.034 3.349,0.071 5.025,0.11c1.581,0.033 3.162,0.067 4.741,0.104c0.97,0.022 2.106,0.232 3.06,0.013c0.804,-0.187 0.626,-0.823 0.603,-1.466c-0.026,-0.972 -0.204,-1.92 -0.275,-2.888c-0.115,-1.752 -0.199,-3.548 -0.242,-5.381c-0.039,-1.832 -0.079,-3.589 -0.118,-5.261c-0.041,-1.674 -0.062,-3.028 -0.062,-4.067c-0,-7.651 0.318,-13.35 0.959,-17.097c0.64,-3.748 2.316,-5.623 5.033,-5.623c1.679,-0 2.977,0.7 3.897,2.094c0.915,1.394 1.381,3.727 1.381,6.994c-0,3.109 -0.378,7.077 -1.141,11.897c-0.759,4.828 -3.142,15.27 -3.142,15.27c-0.284,1.236 0.514,2.377 1.778,2.536c0.54,0.066 1.077,0.134 1.61,0.201c2.704,0.338 5.401,0.673 8.102,1.01c1.714,0.215 3.431,0.395 5.147,0.596c1.041,0.12 2.071,0.352 3.109,0.469c0.643,0.07 1.457,0.397 1.976,-0.176c0.492,-0.55 0.464,-1.554 0.577,-2.232c0.175,-1.023 0.279,-2.052 0.364,-3.086c0.128,-1.582 0.331,-3.131 0.553,-4.702c0.191,-1.321 0.364,-2.641 0.536,-3.964c0.597,-4.622 0.899,-9.127 0.899,-13.513c-0.006,-4.702 -0.347,-9.027 -1.026,-12.972Zm-94.254,-10.164c-1.837,-2.828 -4.355,-5.04 -7.549,-6.636c-3.196,-1.594 -7.35,-2.392 -12.462,-2.392c-3.836,0 -7.131,0.837 -9.889,2.512c-0.733,0.446 -1.453,0.919 -2.143,1.433c-0.62,0.46 -1.221,0.95 -1.782,1.48c-0.418,0.395 -0.781,0.999 -1.387,1.106c-0.155,0.026 -0.317,0.066 -0.48,0.05c-0.553,-0.052 -0.707,-0.424 -0.993,-0.837c-0.798,-1.158 -1.833,-2.133 -2.982,-2.934c-1.999,-1.393 -4.515,-2.092 -7.549,-2.092c-1.52,-0 -2.958,0.239 -4.316,0.717c-1.36,0.478 -2.576,1.096 -3.654,1.854c-0.911,0.639 -1.698,1.411 -2.568,2.099c-0.427,0.336 -0.597,0.8 -1.197,0.763c-0.62,-0.04 -0.531,-0.829 -0.574,-1.253c-0.052,-0.501 -0.106,-1.002 -0.157,-1.504c-0.039,-0.367 -0.078,-0.734 -0.115,-1.1c-0.131,-1.261 -1.276,-2.269 -2.545,-2.239l-17.228,0.423c0.24,4.863 0.419,9.525 0.54,13.991c0.12,4.465 0.199,8.986 0.24,13.569c0.039,4.584 0.039,9.427 -0,14.529c-0.041,5.101 -0.056,14.552 -0.056,14.552c-0.002,1.269 1.034,2.291 2.303,2.271l16.718,-0.285c1.267,-0.023 2.327,-1.08 2.353,-2.344l0.674,-32.848c-0,-1.116 0.279,-2.251 0.837,-3.409c0.558,-1.156 1.874,-1.735 3.954,-1.735c0.959,-0 1.718,0.357 2.277,1.078c0.556,0.718 1.018,1.674 1.379,2.869c0.36,1.195 0.597,2.57 0.718,4.125c0.12,1.552 0.18,3.168 0.18,4.842l-0,10.165c-0,2.627 -0.021,4.92 -0.06,6.871c-0.042,1.959 -0.102,3.789 -0.18,5.503c-0.081,1.714 -0.152,3.615 -0.152,3.615c-0.047,1.266 0.949,2.326 2.219,2.358l19.624,0.424c-0.161,-1.195 -0.299,-2.669 -0.418,-4.425c-0.119,-1.751 -0.202,-3.546 -0.242,-5.38c-0.039,-1.832 -0.079,-3.587 -0.12,-5.261c-0.041,-1.674 -0.06,-3.028 -0.06,-4.067c-0,-7.651 0.321,-13.348 0.961,-17.098c0.639,-3.745 2.315,-5.62 5.033,-5.62c1.677,-0 2.975,0.698 3.895,2.094c0.915,1.395 1.379,3.726 1.379,6.995c-0,3.109 -0.38,7.076 -1.139,11.897c-0.761,4.824 -3.144,15.269 -3.144,15.269c-0.282,1.236 0.518,2.375 1.778,2.536l19.761,2.465c0.878,-4.942 1.618,-9.724 2.218,-14.351c0.599,-4.62 0.9,-9.128 0.9,-13.513c-0,-4.701 -0.341,-9.026 -1.019,-12.973c-0.684,-3.942 -1.943,-7.33 -3.781,-10.159Zm-218.716,14.687c1.642,3.243 2.466,7.103 2.466,11.584c-0,4.322 -0.904,8.063 -2.707,11.223c-1.805,3.159 -4.15,5.758 -7.037,7.8c-2.886,2.042 -6.155,3.559 -9.803,4.564c-3.65,0.998 -7.32,1.498 -11.006,1.498c-7.38,0 -13.574,-1.362 -18.586,-4.079c-5.012,-2.716 -9.523,-6.84 -13.532,-12.362l8.546,-10.787c0.791,-0.997 2.135,-1.037 2.981,-0.091c0,-0 0.983,1.097 2.667,2.416c1.684,1.323 3.507,2.48 5.473,3.481c1.962,1.002 3.969,1.821 6.014,2.461c2.046,0.641 3.949,0.961 5.713,0.961c1.763,0 3.11,-0.322 4.029,-0.961c0.922,-0.639 1.386,-1.839 1.386,-3.6c-0,-1.52 -0.825,-2.96 -2.466,-4.322c-1.646,-1.358 -3.691,-2.779 -6.135,-4.259c-2.448,-1.479 -5.094,-3.08 -7.94,-4.802c-2.846,-1.72 -5.492,-3.739 -7.937,-6.062c-2.448,-2.318 -4.493,-4.981 -6.136,-7.981c-1.643,-3.001 -2.465,-6.461 -2.465,-10.383c-0,-3.841 0.721,-7.202 2.164,-10.082c1.442,-2.881 3.388,-5.3 5.834,-7.262c2.445,-1.959 5.272,-3.439 8.481,-4.442c3.205,-0.999 6.614,-1.499 10.223,-1.499c6.415,-0 12.169,1.181 17.263,3.54c5.092,2.361 9.924,5.862 14.496,10.501l-6.921,10.66c-0.692,1.068 -2.049,1.261 -3.012,0.426c0,-0 -1.739,-1.503 -3.662,-2.747c-1.923,-1.238 -3.809,-2.297 -5.652,-3.179c-1.846,-0.881 -3.571,-1.54 -5.174,-1.981c-1.606,-0.439 -3.006,-0.661 -4.21,-0.661c-1.444,0 -2.507,0.361 -3.188,1.081c-0.684,0.721 -1.022,1.64 -1.022,2.76c-0,1.439 0.82,2.781 2.465,4.022c1.642,1.24 3.709,2.52 6.195,3.84c2.486,1.322 5.152,2.801 8.001,4.44c2.845,1.643 5.513,3.623 8,5.94c2.483,2.326 4.547,5.106 6.194,8.344Zm31.531,-4.644c0.916,-0.996 1.956,-1.752 3.116,-2.271c1.156,-0.515 2.294,-0.776 3.416,-0.776c3.355,0 5.85,0.838 7.489,2.512c1.637,1.674 2.379,3.383 2.379,3.383c0.505,1.164 1.924,1.865 3.155,1.559l14.538,-3.628c-1.519,-6.614 -4.595,-11.959 -9.228,-16.022c-4.634,-4.066 -10.866,-6.098 -18.694,-6.098c-4.793,0 -9.068,0.736 -12.824,2.212c-3.756,1.476 -6.91,3.587 -9.465,6.338c-2.558,2.751 -4.495,6.06 -5.813,9.924c-1.318,3.87 -1.978,8.192 -1.978,12.974c0,4.147 0.599,8.092 1.797,11.841c1.198,3.749 3.056,7.034 5.573,9.864c2.516,2.832 5.691,5.083 9.527,6.757c3.835,1.672 8.428,2.509 13.781,2.509c3.035,0 5.991,-0.463 8.868,-1.374c2.876,-0.918 5.512,-2.314 7.91,-4.186c2.398,-1.873 4.493,-4.244 6.29,-7.117c1.797,-2.87 3.345,-7.957 3.345,-7.957c0.369,-1.213 -0.328,-2.491 -1.547,-2.844l-14.08,-4.029c-0.241,1.278 -0.761,2.431 -1.559,3.468c-0.8,1.037 -1.697,1.933 -2.696,2.69c-0.999,0.761 -2.018,1.359 -3.057,1.797c-1.038,0.438 -1.997,0.655 -2.875,0.655c-3.116,-0 -5.654,-1.195 -7.609,-3.587c-1.959,-2.393 -2.936,-5.538 -2.936,-9.45c-0,-2.068 0.299,-3.862 0.899,-5.38c0.599,-1.508 1.357,-2.765 2.278,-3.764Z" style="fill:#fff;"/><path id="path29" d="M597.253,20.178c-2.02,-2.408 -4.854,-3.885 -7.983,-4.159l-19.102,-1.66c-5.048,-0.439 -10.265,2.357 -12.696,6.798c0,-0 -25.599,46.742 -37.779,68.99c-6.56,-24.329 -20.149,-74.722 -20.149,-74.722c-1.369,-5.077 -5.975,-8.992 -11.212,-9.518l-21.057,-2.12c-6.323,-0.636 -12.005,3.788 -12.942,10.071l-18.327,123.037c-0.468,3.158 0.385,6.402 2.358,8.897c1.966,2.491 4.918,4.079 8.105,4.361l16.978,1.482c6.311,0.551 11.935,-3.934 12.81,-10.209c0,0 2.392,-17.21 4.763,-34.25c5.725,19.664 11.453,39.336 11.453,39.336c1.443,4.953 6.031,8.795 11.16,9.336l11.327,1.208c5.023,0.534 10.293,-2.146 12.814,-6.523c-0,-0 10.108,-17.528 20.197,-35.022c-1.399,16.267 -2.815,32.721 -2.815,32.721c-0.029,0.336 -0.044,0.674 -0.044,1.004c0,5.958 4.56,11.119 10.586,11.742l20.35,2.108c3.144,0.325 6.218,-0.603 8.657,-2.616c2.442,-2.008 3.938,-4.85 4.217,-8.001l11.029,-123.707c0.283,-3.124 -0.676,-6.175 -2.698,-8.584Zm-31.816,5.338c0.705,-1.289 2.481,-2.24 3.947,-2.113l6.289,0.548l-6.451,19.343l-13.518,-0l9.733,-17.778Zm-99.067,-12.695l21.056,2.12c1.464,0.147 2.975,1.428 3.353,2.847l5.814,21.561l-25.005,0l-0.178,0.558l-3.153,9.92l-10.097,-0l5.161,-34.631c0.215,-1.453 1.588,-2.521 3.049,-2.375Zm-10.118,96.095l3.7,2.013l0.18,0.098l11.184,-0l-1.544,11.097l-21.995,-2.617l1.585,-10.635l6.89,0.044Zm7.987,33.675l-16.983,-1.482c-1.464,-0.129 -2.485,-1.422 -2.268,-2.875l2.553,-17.141l22.01,2.621l-2.288,16.467c-0.198,1.45 -1.56,2.536 -3.024,2.41Zm14.378,-76.144c-0.413,-1.411 -0.911,-1.373 -1.116,0.08l-5.964,42.898l-11.001,0l-3.698,-2.009l-0.176,-0.099l-0.202,-0.002l-6.857,-0.043l8.313,-55.842l11.506,0l0.177,-0.559l3.154,-9.918l24.266,-0l11.693,43.366l-12.207,-0l0,30.047l-3.94,-0l-13.948,-47.919Zm98.367,87.606l-9.837,-1.017l0.992,-14.082l5.094,-0.67l0.423,-0.057l0.191,-0.381l1.296,-2.624l6.203,0l-1.466,16.448c-0.133,1.46 -1.435,2.531 -2.896,2.383Zm4.504,-20.435l-7.347,-0l-0.221,0.444l-1.325,2.689l-5.316,0.701l-0.645,0.085l-0.049,0.653l-1.032,14.678l-8.92,-0.922c-1.459,-0.154 -2.553,-1.474 -2.427,-2.937l3.607,-41.93l11.834,0l0.002,-0.8l0.068,-25.54l4.566,-16.516l13.383,0.054l-6.178,69.341Zm6.326,-70.943l-14.134,-0.057l-0.608,-0.002l-0.161,0.589l-4.762,17.213l-0.029,0.103l0,0.108l-0.07,24.85l-10.097,-0l2.346,-27.252c0.124,-1.464 -0.376,-1.62 -1.106,-0.348l-39.278,68.117c-0.731,1.273 -2.53,2.184 -3.989,2.03l-11.326,-1.206c-1.461,-0.154 -2.993,-1.435 -3.402,-2.844l-8.159,-28.01l5.079,-0l0,-30.047l11.034,-0l6.964,25.826c0.382,1.416 1.273,1.523 1.978,0.237l36.734,-67.084l15.55,0l0.186,-0.548l6.751,-20.255l11.173,0.971c1.463,0.127 2.552,1.429 2.422,2.892l-3.096,34.717Z" style="fill:#fff;fill-rule:nonzero;"/></g></svg>