<svg clip-rule="evenodd" fill-rule="evenodd" stroke-linejoin="round" stroke-miterlimit="2" viewBox="0 0 600 210" xmlns="http://www.w3.org/2000/svg"><g fill="#fff" fill-rule="nonzero"><path d="m32.644 74.537 28.645-.032c11.719 0 21.217-10.637 21.217-23.743 0-13.132-9.498-23.77-21.217-23.77l-7.439.045c-.587 0-1.062-.54-1.062-1.204 0-.665.475-1.206 1.062-1.206l28.592.007.012-10.077h-28.611c-5.531 0-10.031 5.048-10.031 11.25 0 6.208 4.499 11.236 10.031 11.236l7.475.111c6.714 0 12.148 6.083 12.148 13.589 0 7.51-5.433 13.608-12.148 13.608h-28.662z"/><path d="m32.656 61.985h28.662c5.549 0 10.037-5.028 10.037-11.243 0-6.208-4.488-11.23-10.037-11.23l-7.475-.091c-6.703 0-12.142-6.091-12.142-13.615 0-7.504 5.439-13.595 12.142-13.595l28.611-.007-.012-10.115h-28.592c-11.708 0-21.217 10.624-21.217 23.744 0 13.119 9.509 23.75 21.217 23.75l7.398.013c.563 0 1.038.515 1.038 1.166 0 .638-.475 1.153-1.038 1.153l-28.604.026zm72.058 2.43c-4.97 0-9.041-4.45-9.041-10.13v-32.146c0-5.465 4.071-9.96 9.041-9.96l30.575.006v-10.096h-30.575c-9.95 0-18.01 9.021-18.01 20.161v32.036c0 11.14 8.06 20.174 18.01 20.174l30.447.014-.006-10.071z"/><path d="m97.865 22.25c0-4.26 3.051-7.713 6.849-7.713h30.575v10.11h-26.342c-2.111 0-2.14 2.352-2.14 2.352h21.977v10.064h-30.929zm6.849 39.716c-3.787 0-6.86-3.433-6.86-7.68v-14.827h30.929v10.085h-21.977c.03 2.371 2.14 2.383 2.14 2.383h26.215l-.006 10.025zm52.001 2.423c-4.952 0-8.999-4.533-8.999-10.104v-32.036c0-5.576 4.018-10.071 8.976-10.071h29.613v-10.089h-29.682c-9.946 0-18.005 9.021-18.005 20.161v32.036c0 11.14 8.129 20.174 18.074 20.174l29.613.014v-47.475h-25.449v10.064h16.456v27.326z"/><path d="m149.826 54.285c0 4.268 3.074 7.739 6.866 7.739h18.497v-22.578h-14.311v10.098h5.311l.017 2.371h-5.288c-1.154 0-2.098-1.074-2.098-2.371l-.048-22.552s-.006-2.345 2.123-2.404h25.42l-.011-10.058-29.614.007c-3.766 0-6.865 3.482-6.865 7.713v32.035m64.307-39.898c.411-1.317 1.524-2.204 2.766-2.204s2.355.887 2.766 2.204l14.375 47.709h-21.049l.022-11.224h7.035l-3.167-10.572-10.315 34.165h-10.612z"/><path d="m236.937 64.389h-23.912v10.076h36.391l-18.927-62.906c-1.658-6.135-7.125-10.649-13.598-10.649-6.482 0-11.932 4.494-13.603 10.625l-19.1 62.931h9.528l18.544-61.173c.774-2.089 2.601-3.455 4.615-3.453 2.011.004 3.835 1.361 4.621 3.44z"/><path d="m77.917 157.811-16.959-45.422c-.316-.791-.988-1.503-2.016-2.135-1.028-.633-2.174-.949-3.439-.949-1.107 0-2.254.316-3.44.949-1.186.632-1.897 1.344-2.134 2.135l-34.156 97.485h-15.773l36.646-103.415c.632-1.66 1.463-3.261 2.49-4.803 1.028-1.542 2.313-2.926 3.855-4.151 1.542-1.226 3.34-2.194 5.396-2.906 2.056-.711 4.427-1.067 7.116-1.067 2.688 0 5.02.356 6.997 1.067 1.976.712 3.716 1.68 5.218 2.906 1.502 1.225 2.787 2.609 3.854 4.151 1.068 1.542 1.997 3.143 2.787 4.803l3.558 7.116 3.558-7.116c.87-1.66 1.838-3.261 2.906-4.803 1.067-1.542 2.332-2.926 3.795-4.151 1.462-1.226 3.182-2.194 5.159-2.906 1.976-.711 4.309-1.067 6.997-1.067 2.609 0 4.961.356 7.056 1.067 2.095.712 3.914 1.68 5.456 2.906 1.541 1.225 2.846 2.609 3.913 4.151 1.068 1.542 1.878 3.143 2.431 4.803l36.646 103.415h-15.773l-34.155-97.485c-.238-.791-.949-1.503-2.135-2.135-1.186-.633-2.332-.949-3.439-.949-1.265 0-2.412.316-3.44.949-1.027.632-1.699 1.344-2.016 2.135zm0 52.063-22.414-59.772-19.687 59.772h-15.773l32.495-94.52c.158-.475.553-.89 1.186-1.246.632-.356 1.225-.533 1.779-.533.553 0 1.126.177 1.719.533s.969.771 1.127 1.246l19.568 53.96 19.568-53.96c.159-.475.534-.89 1.127-1.246s1.166-.533 1.72-.533c.553 0 1.146.177 1.779.533.632.356 1.027.771 1.186 1.246l32.495 94.52h-15.18l-20.28-59.772z"/><path d="m239.969 129.638v44.13c0 24.071-12.035 36.106-36.106 36.106h-16.047c-24.071 0-36.107-12.035-36.107-36.106v-44.13c0-24.071 12.036-36.106 36.107-36.106h16.047c24.071 0 36.106 12.035 36.106 36.106zm-20.059 0v44.13c0 10.698-5.349 16.047-16.047 16.047h-16.047c-10.699 0-16.048-5.349-16.048-16.047v-44.13c0-10.698 5.349-16.047 16.048-16.047h16.047c10.698 0 16.047 5.349 16.047 16.047zm4.012 0c0-13.373-6.687-20.059-20.059-20.059h-16.047c-13.373 0-20.059 6.686-20.059 20.059v44.13c0 13.373 6.686 20.059 20.059 20.059h16.047c13.372 0 20.059-6.686 20.059-20.059zm-20.059 4.012c0-2.675-1.337-4.012-4.012-4.012h-8.024c-2.674 0-4.011 1.337-4.011 4.012v36.106c0 2.675 1.337 4.012 4.011 4.012h8.024c2.675 0 4.012-1.337 4.012-4.012z"/><path d="m329.394 129.638v44.13c0 24.071-12.035 36.106-36.106 36.106h-48.142v-76.224h16.047v60.177h32.095c13.372 0 20.059-6.686 20.059-20.059v-44.13c0-13.373-6.687-20.059-20.059-20.059h-48.142v-16.047h48.142c24.071 0 36.106 12.035 36.106 36.106zm-20.059 0v44.13c0 10.698-5.349 16.047-16.047 16.047h-28.083v-56.165h16.047v40.118h8.024c2.675 0 4.012-1.337 4.012-4.012v-36.106c0-2.675-1.337-4.012-4.012-4.012h-44.13v-16.047h48.142c10.698 0 16.047 5.349 16.047 16.047z"/><path d="m334.571 129.638c0-24.071 12.036-36.106 36.106-36.106h48.142v16.047h-48.142c-13.372 0-20.059 6.686-20.059 20.059v44.13c0 13.373 6.687 20.059 20.059 20.059h48.142v16.047h-48.142c-24.07 0-36.106-12.035-36.106-36.106zm20.059 20.059v-20.059c0-10.698 5.349-16.047 16.047-16.047h48.142v16.047h-44.13c-2.674 0-4.012 1.337-4.012 4.012h36.107v16.047zm0 4.012h52.154v16.047h-36.107c0 2.675 1.338 4.012 4.012 4.012h44.13v16.047h-48.142c-10.698 0-16.047-5.349-16.047-16.047z"/><path d="m440.043 93.532v80.236c0 13.373 6.687 20.059 20.059 20.059h56.166v16.047h-56.166c-24.07 0-36.106-12.035-36.106-36.106v-80.236zm20.059 0v76.224c0 2.675 1.338 4.012 4.012 4.012h52.154v16.047h-56.166c-10.698 0-16.047-5.349-16.047-16.047v-80.236z"/><path d="m567.906 93.532c21.396 0 32.094 10.698 32.094 32.094v12.036c0 5.349-1.917 10.029-5.75 14.041 3.833 4.012 5.75 8.692 5.75 14.041v12.036c0 21.396-10.698 32.094-32.094 32.094h-52.154v-16.047h52.154c10.698 0 16.047-5.349 16.047-16.047v-12.036c0-5.349-2.407-10.029-7.221-14.041 4.814-4.012 7.221-8.692 7.221-14.041v-12.036c0-10.698-5.349-16.047-16.047-16.047h-52.154v-16.047zm-8.024 36.106h-44.13v-16.047h52.154c8.023 0 12.035 4.012 12.035 12.035v12.036c0 8.023-4.012 12.035-12.035 12.035h-32.095v-16.047h24.071c2.675 0 4.012-.669 4.012-2.006s-1.337-2.006-4.012-2.006zm-44.13 60.177v-16.047h44.13c2.675 0 4.012-.669 4.012-2.006s-1.337-2.006-4.012-2.006h-24.071v-16.047h32.095c8.023 0 12.035 4.012 12.035 12.035v12.036c0 8.023-4.012 12.035-12.035 12.035z"/></g></svg>