<svg clip-rule="evenodd" fill-rule="evenodd" stroke-linejoin="round" stroke-miterlimit="2" viewBox="0 0 600 67" xmlns="http://www.w3.org/2000/svg"><g fill="#fff"><g fill-rule="nonzero"><path d="m144.833 56.696c-2.75 0-5.464-.14-8.298-.426-3.795-.457-6.642-1.031-8.975-1.802-1.25-.42-2.257-1.25-2.922-2.402-.646-1.378-.754-2.703-.35-3.91.416-1.335 1.302-2.359 2.554-2.942 1.044-.599 2.465-.75 3.778-.314 1.947.576 4.341 1.044 7.085 1.38 2.611.301 5.485.399 8.488.331 2.581-.061 4.983-.348 7.141-.855 1.369-.394 2.195-.746 2.634-1.136.055-.049.116-.09.178-.125.133-.126.254-.218.352-.293.184-.14.235-.177.311-.716.067-.458.08-.717.062-.899-.022-.027-.043-.057-.062-.087-.002 0-.002-.004-.002-.004v-.001l-.002-.001c.002 0-.001-.001-.001-.001v-.003l-.002-.001v-.001c-.063-.104-.11-.22-.133-.346l-.066-.375c-.002-.011-.003-.022-.006-.031-.122-.513-1.709-2.224-2.515-2.478-.895-.278-4.09-.623-7.682-.696-.701-.037-1.422-.053-2.267-.073-.686-.015-1.454-.032-2.3-.063-2.151.005-3.61.001-4.405-.073-3.86-.066-6.36-.411-7.573-1.054-1.428-.644-2.759-1.466-4.013-2.482-.091-.037-.176-.085-.243-.143-1.627-1.398-2.853-2.938-3.644-4.574-.052-.108-.083-.221-.093-.335-.972-2.103-1.233-4.272-.8-6.624.353-2.322 1.54-4.649 3.619-7.085 3.139-4.046 8.561-6.115 16.086-6.115 5.625 0 12.604 1.157 20.739 3.44 1.342.444 2.315 1.224 3.02 2.398.718 1.328.852 2.615.424 3.862-.311 1.252-1.165 2.311-2.442 2.985-.664.428-1.484.667-2.361.667-.439 0-.905-.061-1.389-.179-13.68-3.906-22.7-4.014-26.477-.382-.663.663-1.102 1.414-1.289 2.218-.07.25-.045.424.062.582.066.099.112.207.141.32.212.353.566.753 1.057 1.19.418.363.969.706 1.634 1.016.687.13 2.896.194 3.861.222.766.067 2.201.067 4.186.067.898.03 1.677.047 2.374.062.96.021 1.771.039 2.445.079 3.667.121 6.913.427 9.36.883.06.002.123.009.162.017 4.724 1.009 7.498 2.71 8.724 5.35l.209.454c.936 2.021 1.132 2.443 1.344 3.213.458 1.184.497 2.438.53 3.443.007.24.015.464.029.667l.002.205c0 1.497-.275 2.927-.84 4.363-.015.082-.034.16-.06.221-.493 1.112-1.312 2.379-2.509 3.873-.067.082-.141.151-.227.205-1.472 1.838-4.039 3.223-7.642 4.124-2.657.645-5.787 1.04-9.308 1.176-.575.009-1.135.014-1.693.014zm-15.767-10.091c-.47 0-.918.118-1.327.351-.828.389-1.324.967-1.586 1.806-.311.929-.052 1.817.222 2.4.389.668 1.011 1.182 1.807 1.449 2.201.729 4.927 1.273 8.57 1.714 3.306.333 6.489.468 9.717.397 3.373-.13 6.372-.507 8.896-1.121 3.296-.824 5.556-2.042 6.715-3.619.073-.099.161-.182.262-.245.949-1.208 1.613-2.226 2.018-3.1.013-.063.028-.121.047-.169.502-1.24.746-2.468.746-3.751v-.139c-.012-.159-.02-.406-.03-.669-.028-.905-.063-1.931-.432-2.897-.194-.686-.351-1.031-1.263-3.002l-.206-.451c-.941-2.022-3.253-3.37-7.277-4.24-.048-.003-.097-.007-.128-.012-1.643-.311-4.569-.712-9.159-.864-.679-.041-1.464-.058-2.394-.078-.705-.014-1.492-.032-2.365-.061-2.07.008-3.472.001-4.268-.072-2.578-.073-3.715-.151-4.289-.291-.06-.014-.118-.035-.173-.06-.88-.398-1.624-.86-2.21-1.37-.761-.676-1.279-1.3-1.59-1.915-.031-.061-.054-.121-.072-.184-.323-.595-.396-1.28-.201-1.957.258-1.117.874-2.185 1.813-3.123 4.408-4.238 13.854-4.252 28.351-.111.823.2 1.605.131 2.262-.287.865-.46 1.349-1.051 1.549-1.849.272-.798.18-1.538-.248-2.336-.438-.728-1.045-1.214-1.891-1.495-7.92-2.221-14.719-3.354-20.167-3.354-6.888 0-11.789 1.816-14.566 5.393-1.864 2.186-2.904 4.193-3.205 6.173-.381 2.078-.123 3.956.787 5.771.053.104.086.215.098.328.65 1.227 1.604 2.397 2.841 3.488.078.033.152.075.212.125 1.182.98 2.386 1.731 3.788 2.365.574.302 2.141.774 6.817.857.777.069 2.191.069 4.333.069.872.031 1.631.048 2.309.062.876.02 1.62.037 2.238.074 3.499.07 7.034.407 8.251.784 1.291.406 3.495 2.514 3.839 3.897l.056.132c.239.555.379 1.019.191 2.348-.178 1.234-.587 1.633-1.061 1.995-.122.093-.21.161-.307.283-.122.151-.279.257-.454.315-.671.479-1.613.87-3.099 1.296-2.337.548-4.874.854-7.588.917-.65.015-1.301.024-1.951.024-2.445 0-4.674-.12-6.815-.369-2.861-.348-5.362-.838-7.441-1.455-.345-.114-.661-.167-.972-.167z"/><path d="m200.752 54.608h-27.188c-1.398 0-2.668-.546-3.576-1.536-.932-.846-1.48-2.113-1.48-3.504v-33.808c0-1.395.508-2.607 1.512-3.602.935-.927 2.192-1.434 3.545-1.434h27.188c1.351 0 2.556.472 3.582 1.404 1 1.079 1.478 2.278 1.478 3.627 0 1.387-.486 2.576-1.444 3.534-1.012 1.001-2.227 1.505-3.616 1.505h-22.127v6.827h16.009c1.356 0 2.562.474 3.584 1.412.998 1.082 1.475 2.284 1.475 3.63 0 1.347-.513 2.601-1.444 3.534-1.008.998-2.223 1.504-3.616 1.504h-16.008v6.827h22.127c1.346 0 2.551.471 3.582 1.403 1.002 1.094 1.478 2.295 1.478 3.639 0 1.354-.513 2.61-1.446 3.537-1.003.995-2.22 1.501-3.615 1.501zm-27.188-41.927c-.832 0-1.6.308-2.166.867-.635.63-.931 1.334-.931 2.212v33.808c0 .835.32 1.587.903 2.117.602.652 1.34.964 2.195.964h27.188c.882 0 1.591-.297 2.232-.934.559-.555.866-1.319.866-2.146 0-.864-.285-1.579-.898-2.25-.611-.547-1.33-.832-2.2-.832h-23.107c-.542 0-.981-.438-.981-.98v-8.785c0-.541.439-.98.981-.98h16.989c.882 0 1.59-.295 2.232-.933.556-.559.865-1.323.865-2.146 0-.864-.284-1.577-.897-2.246-.606-.552-1.326-.837-2.2-.837h-16.989c-.542 0-.981-.438-.981-.979v-8.787c0-.541.439-.98.981-.98h23.106c.879 0 1.589-.297 2.234-.937.581-.58.864-1.283.864-2.143 0-.853-.292-1.584-.896-2.238-.611-.549-1.33-.835-2.202-.835z"/><path d="m230.325 57.663c-3.518 0-6.865-.67-9.948-1.989-2.899-1.169-5.453-2.968-7.575-5.341-.08-.045-.155-.101-.219-.172-2.176-2.352-3.824-5.192-4.895-8.439-1.081-3.273-1.539-6.601-1.4-10.178l.021-.574c.117-3.12.176-4.686 1.26-7.531 1.13-2.966 2.062-5.213 3.79-7.086.042-.063 2.487-3.257 6.052-5.022 2.754-1.366 4.02-1.628 5.938-2.028.529-.11 1.115-.232 1.806-.395 2.228-.394 4.38-.588 6.452-.588 6.57 0 12.588 1.93 17.882 5.734 1.134.847 1.85 2.027 2.089 3.417.243 1.498-.01 2.84-.753 3.998-.691 1.159-1.757 1.951-3.152 2.324-.391.082-.726.116-1.051.116-.991 0-1.937-.31-2.81-.922-5.236-3.846-10.689-5.058-16.37-3.664-.056.012-.112.022-.17.026l-.923.239c-1.898.491-3.154.814-4.809 1.642-1.786.889-2.864 2.54-2.875 2.557-.029.047-.067.093-.105.134-.64.694-1.1 1.57-1.403 2.678-.466 1.669-.714 2.944-.776 5.301-.069 2.3.21 4.381.827 6.189.59 1.77 1.477 3.305 2.643 4.566 1.165 1.324 2.535 2.296 4.204 2.991.084.036.162.083.234.138 1.825.724 3.907 1.106 6.038 1.106 5.391 0 9.352-1.057 11.771-3.139.957-.98 1.632-2.234 1.985-3.71h-12.401c-1.401 0-2.679-.589-3.598-1.659-.919-.906-1.455-2.248-1.455-3.718 0-1.492.484-2.743 1.48-3.819.938-1.009 2.206-1.561 3.573-1.561h17.636c1.305 0 2.43.443 3.44 1.356 1.041 1.108 1.533 2.213 1.611 3.535.702 7.838-1.212 13.817-5.691 17.74-3.792 3.799-9.982 5.748-18.353 5.748zm-16.538-9.09c.094.05.18.117.255.203 1.964 2.273 4.349 3.985 7.086 5.088 2.857 1.224 5.945 1.841 9.196 1.841 7.831 0 13.556-1.757 17.014-5.22 4.087-3.581 5.731-8.855 5.076-16.167-.051-.881-.368-1.576-1.029-2.282-.593-.531-1.248-.794-2.067-.794h-17.636c-.817 0-1.576.333-2.137.934-.652.707-.958 1.498-.958 2.488 0 .944.332 1.789.93 2.383.603.697 1.332 1.036 2.165 1.036h13.571c.28 0 .547.12.733.33s.274.491.239.769c-.291 2.359-1.256 4.432-2.787 5.998-2.886 2.488-7.155 3.669-13.111 3.669-2.484 0-4.823-.444-6.952-1.32-.09-.037-.174-.086-.247-.147-1.872-.808-3.422-1.925-4.732-3.414-1.341-1.45-2.368-3.222-3.044-5.252-.69-2.024-1.004-4.339-.929-6.871.068-2.542.35-3.99.847-5.767.374-1.364.979-2.518 1.798-3.426.269-.391 1.553-2.156 3.596-3.173 1.842-.921 3.249-1.283 5.196-1.785l1.029-.267c.064-.017.129-.027.195-.031 6.205-1.492 12.218-.147 17.87 4.002.527.369 1.079.553 1.668.553.199 0 .4-.021.604-.062.848-.23 1.481-.695 1.933-1.45.497-.776.65-1.632.485-2.644-.152-.881-.605-1.629-1.313-2.159-6.512-4.677-14.236-6.309-22.784-4.809-.655.156-1.256.281-1.8.394-1.831.382-2.938.612-5.466 1.866-3.143 1.556-5.401 4.494-5.425 4.524-1.55 1.69-2.374 3.679-3.457 6.527-.97 2.543-1.018 3.821-1.133 6.907l-.023.575c-.128 3.34.299 6.444 1.304 9.49.946 2.86 2.371 5.37 4.24 7.463z"/><path d="m298.611 55.892c-1.027 0-2.021-.349-2.879-1.009-1.068-.761-1.731-1.826-1.997-3.237-.535-3.575-1.118-6.907-1.743-9.948h-24.793c-.543 2.666-1.048 5.541-1.503 8.565-.25 1.351-.923 2.441-2.006 3.268-1.219.872-2.487 1.182-3.829.937-1.311-.164-2.427-.844-3.268-2.013-.789-1.02-1.109-2.265-.928-3.674 4.218-27.79 12.292-41.521 24.074-40.814.161-.017.439-.026.717-.026 11.37 0 18.989 13.794 23.297 42.171.164 1.411-.151 2.597-.986 3.759-.891 1.151-2.007 1.797-3.34 1.947-.227.046-.523.074-.816.074zm-32.209-16.154h26.388c.463 0 .862.326.957.778.695 3.284 1.34 6.919 1.92 10.803.168.877.55 1.501 1.231 1.989.71.545 1.45.728 2.241.573.867-.101 1.518-.483 2.058-1.18.527-.736.719-1.44.615-2.328-4.172-27.477-11.622-41.106-22.072-40.45-.37-.015-.617-.022-.862-.022-10.17 0-17.326 13.172-21.272 39.151-.11.864.071 1.603.558 2.233.537.746 1.182 1.146 1.997 1.25.226.038.397.054.565.054.616 0 1.205-.206 1.801-.632.668-.511 1.081-1.179 1.238-2.019.499-3.324 1.066-6.504 1.678-9.421.096-.453.497-.779.959-.779zm24.354-6.145h-22.333c-.311 0-.601-.146-.786-.394-.186-.248-.242-.568-.154-.864 3.129-10.53 7.092-15.845 12.114-16.25.05-.003.105-.003.158 0 4.896.401 8.802 5.716 11.939 16.25.088.297.03.616-.154.864-.181.248-.473.394-.784.394zm-21.009-1.959h19.683c-2.715-8.539-6.076-13.225-9.757-13.59-3.844.37-7.182 4.939-9.926 13.59z"/><path d="m347.778 56.676c-2.765 0-5.506-.141-8.384-.429-3.812-.46-6.683-1.037-9.053-1.82-1.256-.419-2.273-1.258-2.946-2.425-.652-1.388-.761-2.724-.351-3.941.414-1.34 1.307-2.371 2.57-2.963 1.074-.605 2.503-.752 3.815-.317 1.947.58 4.36 1.052 7.143 1.391 2.671.307 5.561.404 8.558.331 2.59-.06 5.013-.349 7.204-.86.915-.266 2.095-.649 2.659-1.144.055-.046.11-.086.168-.118.139-.133.263-.228.368-.307.183-.138.234-.176.311-.723.067-.46.08-.721.066-.903-.103-.126-.175-.279-.205-.45l-.067-.381c-.002-.01-.003-.02-.004-.029-.127-.516-1.729-2.244-2.542-2.502-.9-.276-4.121-.625-7.744-.7-.722-.04-1.462-.056-2.332-.076-.681-.016-1.439-.034-2.275-.064-2.174.005-3.637.001-4.438-.071-3.898-.066-6.422-.415-7.642-1.064-1.441-.652-2.783-1.48-4.048-2.504-.091-.039-.174-.088-.242-.145-1.645-1.413-2.88-2.966-3.675-4.614-.052-.107-.084-.22-.095-.336-.978-2.12-1.243-4.309-.808-6.678.357-2.342 1.553-4.689 3.649-7.145 3.165-4.081 8.632-6.169 16.219-6.169 5.673 0 12.711 1.17 20.917 3.471 1.354.448 2.335 1.235 3.047 2.417.72 1.336.859 2.632.433 3.894-.318 1.268-1.177 2.337-2.466 3.016-.671.433-1.496.673-2.383.673-.447 0-.904-.057-1.396-.178-13.797-3.942-22.893-4.051-26.701-.386-.67.667-1.11 1.423-1.3 2.237-.07.25-.046.427.064.588.064.096.112.203.139.315.216.36.575.763 1.068 1.199.42.366.978.712 1.65 1.025.717.134 3.008.198 3.893.224.773.07 2.219.07 4.221.07.965.033 1.794.052 2.533.068.905.019 1.677.037 2.323.074 3.715.125 6.987.431 9.442.888.059.002.122.01.163.018 4.761 1.016 7.557 2.731 8.798 5.398l.217.47c.941 2.027 1.135 2.449 1.348 3.223.463 1.199.504 2.463.535 3.478.01.24.014.465.027.67.003.023.003.182.003.203 0 1.508-.278 2.95-.847 4.403-.015.081-.034.159-.062.222-.498 1.126-1.327 2.404-2.532 3.905-.066.083-.143.151-.228.208-1.481 1.851-4.073 3.248-7.705 4.155-2.703.655-5.859 1.054-9.388 1.19-.576.013-1.133.018-1.692.018zm-15.914-10.175c-.477 0-.929.119-1.347.353-.833.393-1.331.975-1.595 1.816-.314.937-.051 1.832.223 2.421.395.677 1.021 1.194 1.821 1.462 2.237.739 4.986 1.289 8.647 1.73 3.354.337 6.559.464 9.798.401 3.379-.13 6.406-.511 8.974-1.133 3.324-.832 5.604-2.059 6.771-3.647.073-.101.163-.184.266-.249.956-1.212 1.624-2.237 2.033-3.123.013-.064.029-.123.049-.17.506-1.256.753-2.493.753-3.786-.014-.297-.022-.547-.03-.81-.028-.913-.062-1.947-.437-2.927-.194-.689-.351-1.035-1.265-3.007l-.216-.468c-.949-2.042-3.283-3.404-7.338-4.28-.047-.003-.096-.007-.126-.012-1.651-.311-4.592-.714-9.237-.87-.65-.038-1.398-.054-2.276-.072-.747-.016-1.588-.035-2.526-.068-2.087.001-3.503.001-4.304-.074-2.546-.07-3.736-.15-4.323-.29-.061-.015-.121-.036-.178-.063-.883-.404-1.631-.868-2.225-1.38-.766-.676-1.288-1.306-1.606-1.934-.031-.059-.055-.12-.071-.185-.327-.599-.399-1.289-.202-1.968.256-1.114.893-2.221 1.827-3.152 4.444-4.278 13.973-4.294 28.59-.111.829.201 1.615.132 2.279-.292.873-.464 1.361-1.062 1.566-1.868.269-.806.179-1.553-.254-2.358-.443-.733-1.054-1.224-1.909-1.506-7.988-2.242-14.846-3.384-20.339-3.384-6.945 0-11.887 1.829-14.686 5.439-1.88 2.203-2.928 4.228-3.234 6.224-.384 2.094-.122 3.985.793 5.818.054.104.086.216.1.329.652 1.235 1.615 2.416 2.866 3.518.079.035.153.077.213.126 1.189.988 2.404 1.745 3.819 2.386.578.307 2.157.783 6.875.867.781.067 2.207.067 4.367.067.864.031 1.613.046 2.285.062.903.02 1.67.038 2.304.079 1.156.022 7.748.611 8.317.786 1.307.416 3.527 2.541 3.874 3.933l.058.135c.239.559.381 1.025.189 2.365-.178 1.246-.593 1.65-1.072 2.015-.122.092-.21.16-.308.283-.12.148-.279.257-.452.316-.674.478-1.625.872-3.131 1.307-2.372.554-4.931.861-7.654.924-.666.018-1.335.027-2.004.027-2.428 0-4.662-.122-6.836-.372-2.899-.354-5.421-.847-7.503-1.467-.342-.11-.659-.163-.973-.163z"/><path d="m413.736 58.887c-1.049 0-2.026-.343-2.911-1.021-1.078-.758-1.745-1.833-2.016-3.261-.547-3.659-1.132-7.02-1.752-10.032h-25.008c-.543 2.675-1.052 5.575-1.519 8.634-.252 1.363-.93 2.462-2.02 3.297-.97.692-1.926 1.019-2.946 1.019-.29 0-.593-.027-.907-.081-1.323-.155-2.454-.84-3.309-2.031-.849-1.103-1.174-2.411-.92-3.759 4.372-28.356 12.327-41.823 24.264-41.099.163-.017.447-.024.724-.024 11.465 0 19.152 13.907 23.497 42.519.168 1.414-.149 2.609-.995 3.792-.895 1.153-2.013 1.806-3.351 1.973-.245.047-.542.074-.831.074zm-32.494-16.289h26.618c.466 0 .868.327.967.783.686 3.248 1.335 6.915 1.93 10.896.168.887.552 1.515 1.239 2 .722.552 1.46.734 2.264.585.869-.111 1.527-.502 2.072-1.202.534-.748.728-1.459.621-2.347-4.208-27.706-11.668-41.448-22.263-40.787-.371-.015-.622-.022-.869-.022-10.19 0-17.406 13.284-21.447 39.482-.155.823.035 1.568.557 2.248.544.757 1.196 1.158 2.009 1.256.252.042.441.06.622.06.611 0 1.157-.196 1.772-.633.673-.515 1.091-1.189 1.246-2.036.512-3.366 1.083-6.571 1.695-9.495.096-.46.499-.788.967-.788zm24.576-6.211h-22.536c-.313 0-.605-.147-.791-.396-.188-.251-.245-.574-.155-.873 3.157-10.613 7.155-15.972 12.218-16.381.055-.001.105-.006.159 0 4.965.396 8.908 5.755 12.053 16.383.088.298.029.621-.156.871-.187.25-.482.396-.792.396zm-21.2-1.975h19.865c-2.752-8.73-6.064-13.338-9.848-13.699-3.882.371-7.247 4.978-10.017 13.699z"/><path d="m432.327 58.211c-1.405 0-2.686-.55-3.605-1.546-.943-.859-1.495-2.136-1.495-3.538v-30.373h-12.717c-1.41 0-2.693-.551-3.61-1.548-.942-.861-1.493-2.138-1.493-3.534 0-1.4.513-2.622 1.522-3.631.947-.933 2.217-1.446 3.582-1.446h35.638c1.367 0 2.581.476 3.613 1.415 1.007 1.088 1.487 2.3 1.483 3.664 0 1.363-.516 2.628-1.454 3.562-1.004 1.006-2.229 1.516-3.642 1.516h-12.717v30.375c0 1.367-.519 2.634-1.464 3.569-1.004 1.004-2.23 1.515-3.641 1.515zm-17.817-43.642c-.843 0-1.618.311-2.187.873-.64.64-.938 1.349-.938 2.229 0 .85.314 1.588.912 2.138.603.654 1.349.97 2.213.97h13.704c.548 0 .989.443.989.988v31.36c0 .854.316 1.593.911 2.14.608.655 1.353.971 2.213.971.892 0 1.609-.299 2.247-.94.568-.565.88-1.334.88-2.17v-31.364c0-.546.444-.988.989-.988h13.705c.893 0 1.609-.299 2.245-.938.567-.563.877-1.332.877-2.167 0-.874-.287-1.593-.902-2.262-.612-.553-1.339-.84-2.221-.84z"/><path d="m482.55 57.661h-6.1c-2.93 0-5.57-.516-8.066-1.576-2.414-1.035-4.571-2.482-6.598-4.426-1.95-2.016-3.35-4.085-4.299-6.341-.081-.084-.146-.178-.188-.285-1.059-2.703-1.576-5.319-1.576-8v-20.247c0-1.412.554-2.689 1.56-3.596.851-.932 2.131-1.481 3.54-1.481 1.424 0 2.616.494 3.641 1.514.942.93 1.46 2.196 1.46 3.563v20.247c0 1.341.274 2.711.816 4.071.022.056.038.113.051.171.54 1.148 1.249 2.168 2.221 3.195 1.197 1.112 2.205 1.786 3.329 2.209 1.32.565 2.613.821 4.105.821h6.101c1.506 0 2.871-.269 4.05-.799 1.166-.442 2.208-1.137 3.427-2.275 1.095-1.161 1.795-2.195 2.226-3.312.551-1.229.819-2.586.819-4.081v-20.247c0-1.405.554-2.682 1.559-3.594.856-.935 2.136-1.483 3.542-1.483 1.413 0 2.638.51 3.644 1.517.932.916 1.456 2.179 1.469 3.552v20.256c0 2.888-.519 5.534-1.586 8.089-.034.081-.075.155-.127.221-1.02 2.271-2.436 4.331-4.322 6.288-1.988 1.899-4.061 3.31-6.36 4.333-.063.05-.134.091-.213.123-2.562 1.058-5.219 1.573-8.125 1.573zm-23.515-13.623c.073.079.131.169.17.266.852 2.124 2.152 4.072 3.973 5.957 1.827 1.75 3.792 3.068 5.981 4.007 2.245.954 4.631 1.419 7.291 1.419h6.1c2.545 0 4.874-.431 7.111-1.319.053-.039.111-.072.177-.1 2.184-.936 4.151-2.255 6.016-4.036 1.765-1.834 3.091-3.789 4.023-5.951.029-.066.064-.127.104-.184.892-2.229 1.327-4.543 1.327-7.064v-20.247c-.009-.835-.324-1.606-.884-2.157-.646-.645-1.36-.945-2.255-.945-.861 0-1.604.315-2.151.91-.65.594-.974 1.351-.974 2.192v20.247c0 1.774-.327 3.403-.972 4.841-.506 1.318-1.331 2.554-2.655 3.953-.999.933-2.321 2.04-4.065 2.701-1.384.622-3.02.948-4.806.948h-6.101c-1.745 0-3.331-.315-4.843-.964-1.701-.641-3.024-1.748-3.981-2.639-1.2-1.264-2.066-2.536-2.699-3.932-.036-.081-.063-.167-.076-.255-.596-1.546-.898-3.111-.898-4.653v-20.247c0-.835-.311-1.602-.875-2.161-.647-.643-1.363-.941-2.25-.941-.85 0-1.613.323-2.15.906-.816.742-.971 1.597-.971 2.195v20.247c-.002 2.341.436 4.635 1.333 7.006z"/><path d="m509.85 56.932c-1.442 0-2.758-.51-3.807-1.478-1.005-.941-1.553-2.207-1.553-3.571v-35.216c0-1.268.486-2.41 1.443-3.394.999-1.014 2.175-1.569 3.492-1.66 13.013-1.025 22.894-.516 29.447 1.53 8.792 2.586 13.099 7.43 12.79 14.395-.082 5.87-2.802 10.109-8.084 12.569-.732.357-1.551.68-2.469.974l9.819 6.656c1.183.849 1.906 1.968 2.169 3.34.182 1.378-.161 2.656-.986 3.756-.9 1.177-2.106 1.855-3.594 2.022-.25.043-.556.07-.855.07-1.082 0-2.103-.332-3.032-.989l-21.853-14.886c-1.043-.703-1.718-1.556-2.064-2.607-.313-1.247-.244-2.328.183-3.282.448-1.086 1.21-1.935 2.255-2.499.94-.578 2.02-.809 3.309-.725 5.532.596 9.673.289 12.45-.87 1.42-.689 2.075-1.818 2.014-3.528-.177-2.162-1.927-3.738-5.347-4.775-4.755-1.346-11.628-1.815-20.367-1.366v30.487c0 1.408-.59 2.685-1.658 3.596-.935.943-2.199 1.451-3.702 1.451zm11.637-43.861c-3.58 0-7.59.172-11.917.514-.846.057-1.569.409-2.226 1.074-.597.615-.881 1.254-.881 2.01v35.217c0 .81.33 1.564.926 2.122.672.62 1.523.95 2.46.95.969 0 1.741-.303 2.36-.925.691-.594 1.025-1.317 1.025-2.147v-31.425c0-.524.409-.956.932-.986 9.387-.537 16.8-.067 21.966 1.391 4.245 1.288 6.514 3.492 6.763 6.558.091 2.527-1.007 4.394-3.173 5.443-3.177 1.33-7.663 1.663-13.434 1.038-.099-.006-.231-.011-.361-.011-.7 0-1.252.147-1.79.478-.699.379-1.138.868-1.426 1.569-.26.576-.287 1.206-.1 1.955.185.557.597 1.061 1.272 1.518l21.873 14.901c.772.546 1.604.741 2.483.586 1.017-.114 1.728-.513 2.296-1.257.51-.682.717-1.441.612-2.25-.16-.827-.593-1.491-1.35-2.036l-11.567-7.84c-.323-.221-.487-.61-.416-.994.068-.386.36-.693.741-.785 1.675-.4 3.04-.863 4.171-1.413 4.616-2.151 6.887-5.694 6.959-10.843.269-6.053-3.457-10.115-11.387-12.447-4.175-1.306-9.829-1.965-16.811-1.965z"/><path d="m594.878 57.523c-.317 0-.636-.027-.965-.081-1.04-.25-1.888-.734-2.66-1.496l-25.526-26.353v22.852c0 1.368-.519 2.634-1.462 3.566-1.003 1.002-2.228 1.511-3.638 1.511s-2.689-.549-3.605-1.546c-.941-.843-1.492-2.12-1.492-3.531v-35.458c0-1.055.304-1.999.933-2.888.464-.769 1.304-1.425 2.326-1.789.773-.36 1.839-.489 2.885-.322 1.005.252 1.833.702 2.623 1.394l25.5 26.454v-22.849c0-1.399.511-2.621 1.522-3.629.953-.939 2.221-1.451 3.577-1.451 1.357 0 2.571.476 3.607 1.417 1.014 1.09 1.497 2.301 1.497 3.663v35.458c0 1.055-.292 2.005-.867 2.822-.537.833-1.26 1.446-2.251 1.899-.763.255-1.383.357-2.004.357zm-30.139-31.357c.263 0 .519.104.711.3l27.207 28.09c.5.494 1.032.8 1.651.951.439.068 1.163.046 1.858-.18.537-.252.98-.624 1.33-1.164.367-.525.529-1.059.529-1.718v-35.458c0-.871-.29-1.59-.908-2.26-.621-.557-1.346-.845-2.221-.845-.833 0-1.61.311-2.185.879-.64.638-.939 1.346-.939 2.227v25.298c0 .403-.243.765-.617.916-.375.149-.803.059-1.081-.23l-27.138-28.159c-.497-.431-1.045-.731-1.66-.89-.118-.015-.325-.033-.53-.033-.441 0-.849.085-1.211.251-.678.246-1.154.604-1.419 1.043-.427.607-.608 1.163-.608 1.804v35.458c0 .858.312 1.593.904 2.129.612.658 1.355.972 2.217.972.891 0 1.603-.299 2.246-.939.567-.561.878-1.326.878-2.163v-25.292c0-.403.243-.766.616-.915.119-.05.246-.072.37-.072z"/></g><path d="m33.745 62.617-.283.042c-9.854 1.176-14.776.74-20.048.413-5.271-.327-5.218-2.857-5.176-3.935.043-1.081 1.005-3.573 4.963-3.825 1.413-.185 6.879.197 12.447.09 2.301 2.806 5.034 5.244 8.097 7.215z"/><path d="m17.997 29.567c-1.742 1.071-3.273 2.132-4.509 3.066-2.216 1.676-4.978 4.694-4.866 7.069 0 0 2.533 1.015 10.341-.702v.001c.184-.036.797-.152 1.776-.363l-.002-.014c3.391-.723 7.37-1.805 12.077-3.202 3.955-1.166 8.95-2.787 15.111-4.799l15.434-5.057c5.836-1.947 10.508-3.374 14.139-4.412 1.437-.414 2.872-.771 4.26-1.076v.002c.617-.135 1.224-.261 1.819-.376l-.001-.002c2.477-.48 4.733-.791 6.5-.959 2.202-.209 8.613-.772 11.983 2.381 2.942 2.752 1.909 8.612-.928 12.876-2.645 3.978-6.614 8.563-16.96 13.567 1.474-3.292 2.451-6.857 2.832-10.596 6.738-4.607 8.523-8.84 8.673-10.711-2.414-.438-6.211.069-9.794.826l.002.023c-.907.162-6.243 1.568-6.243 1.568-3.57.972-8.173 2.401-13.815 4.281l-15.435 5.057-.14.045c-5.839 1.946-10.705 3.491-14.594 4.688-.228.071-.44.136-.636.196-1.39.392-2.727.753-4.011 1.087-3.03.789-5.74 1.419-8.144 1.937l-.001-.002c-.623.135-1.224.261-1.804.381-4.731.914-16.896 2.789-20.321-3.068-1.339-2.289-.84-6.11 1.334-9.48 2.174-3.371 3.549-4.651 6.794-7.328 3.247-2.677 7.087-4.845 10.068-6.354.558-.283 1.196-.596 1.896-.931-1.455 3.229-2.431 6.72-2.835 10.381z"/><path d="m17.997 29.567c-1.742 1.071-3.273 2.132-4.509 3.066-2.216 1.676-4.978 4.694-4.866 7.069 0 0 2.533 1.015 10.341-.702v.001c.184-.036.797-.152 1.776-.363l-.002-.014c3.391-.723 7.37-1.805 12.077-3.202 3.955-1.166 8.95-2.787 15.111-4.799l15.434-5.057c5.836-1.947 10.508-3.374 14.139-4.412 1.437-.414 2.872-.771 4.26-1.076v.002c.617-.135 1.224-.261 1.819-.376l-.001-.002c2.477-.48 4.733-.791 6.5-.959 2.202-.209 8.613-.772 11.983 2.381 2.942 2.752 1.909 8.612-.928 12.876-2.645 3.978-6.614 8.563-16.96 13.567 1.474-3.292 2.451-6.857 2.832-10.596 6.738-4.607 8.523-8.84 8.673-10.711-2.414-.438-6.211.069-9.794.826l.002.023c-.907.162-6.243 1.568-6.243 1.568-3.57.972-8.173 2.401-13.815 4.281l-15.435 5.057-.14.045c-5.839 1.946-10.705 3.491-14.594 4.688-.228.071-.44.136-.636.196-1.39.392-2.727.753-4.011 1.087-3.03.789-5.74 1.419-8.144 1.937l-.001-.002c-.623.135-1.224.261-1.804.381-4.731.914-16.896 2.789-20.321-3.068-1.339-2.289-.84-6.11 1.334-9.48 2.174-3.371 3.549-4.651 6.794-7.328 3.247-2.677 7.087-4.845 10.068-6.354.558-.283 1.196-.596 1.896-.931-1.455 3.229-2.431 6.72-2.835 10.381z"/><path d="m85.256 28.913c.2 1.472.304 2.974.304 4.501 0 18.255-14.821 33.076-33.076 33.076-13.15 0-24.517-7.691-29.847-18.815.459-.098.92-.196 1.227-.262.004-.001.007-.002.011-.003l1.437-.32c2.426-.523 3.046-.691 6.107-1.488 1.294-.336 2.642-.7 4.043-1.095.012-.003.024-.007.035-.01.197-.061.411-.127.64-.198 3.897-1.199 8.772-2.747 14.622-4.696l.137-.045 15.436-5.057c.002-.001.005-.002.008-.003 5.603-1.867 10.175-3.287 13.721-4.253.175-.046 3.466-.914 5.195-1.332z"/><path d="m19.625 37.212c-.143-1.246-.216-2.513-.216-3.798 0-18.255 14.82-33.076 33.075-33.076 12.841 0 23.983 7.334 29.464 18.04l-.539.115c-1.42.312-2.888.677-4.358 1.1-3.647 1.042-8.34 2.476-14.202 4.431 0 0-15.429 5.056-15.429 5.056-6.142 2.005-11.122 3.622-15.065 4.785-.001 0-.002 0-.003.001-4.659 1.382-8.597 2.454-11.954 3.17-.067.015-.133.033-.197.056-.205.043-.399.084-.576.12z"/><path d="m71.764 4.566c1.976-.228 3.909-.407 5.802-.534 5.123-.324 9.077-.324 13.229.131 1.038.066 2.594.584 3.308 1.426.647.779.971 1.751.841 2.855-.129 1.036-.583 1.881-1.427 2.594-.843.648-2.758.934-4.1.842-1.201-.083-5.599-.382-9.861-.164-2.215-2.76-4.844-5.175-7.792-7.15z"/></g></svg>