<svg clip-rule="evenodd" fill-rule="evenodd" stroke-linejoin="round" stroke-miterlimit="2" viewBox="0 0 600 100" xmlns="http://www.w3.org/2000/svg"><g fill="#fff"><path d="m431.009 75.033v4.816c0 1.377-1.238 2.615-2.615 2.615h-24.908v9.633h20.78l7.569 7.569h17.615l-10.184-10.321c3.853-1.514 6.606-5.367 6.606-9.771v-4.403h-14.863z"/><path d="m0 75.033h14.725v24.495h-14.725z"/><path d="m32.752 75.033h14.725v24.495h-14.725z"/><path d="m65.505 75.033h14.862v24.495h-14.862z"/><path d="m88.899 75.033v15.688c.138 4.954 4.679 8.807 10.184 8.807h42.798v-8.257h-34.817c-1.789 0-3.303-1.513-3.303-3.302v-2.065h35.505v-7.568h-32.202c-1.789 0-3.303-1.514-3.303-3.303z"/><path d="m149.45 75.033v15.963c.275 4.541 4.266 8.119 9.22 8.532h43.486c5.505-.413 9.908-4.954 9.908-10.596 0-5.917-4.679-10.596-10.596-10.596h-25.596v7.568h18.302c1.514 0 2.615 1.239 2.615 2.753s-1.239 2.614-2.615 2.614h-27.247c-1.514 0-2.615-1.238-2.615-2.614v-13.624z"/><path d="m219.495 75.033h14.862v24.495h-14.862z"/><path d="m263.945 75.033v7.293h-26.973v9.634h26.973v7.568h14.862v-24.495z"/><path d="m313.624 75.033h14.862v24.495h-14.862z"/><path d="m360.688 75.033v13.624c0 1.514-1.238 2.614-2.615 2.614h-27.523v8.257h35.643c5.229-.413 9.357-4.266 9.357-9.082v-15.413z"/><path d="m385.321 75.033h14.862v24.495h-14.862z"/><path d="m454.679 75.033h14.862v24.495h-14.862z"/><path d="m482.615 75.033 16.376 24.495h18.165l16.238-24.495h-16.513l-8.945 13.486-8.945-13.486z"/><path d="m547.018 75.033v15.688c.138 4.954 4.679 8.807 10.184 8.807h42.798v-8.257h-34.817c-1.789 0-3.302-1.513-3.302-3.302v-2.065h35.504v-7.568h-32.202c-1.789 0-3.302-1.514-3.302-3.303z"/><path d="m474.771 63.198 6.055 9.083h16.513l-6.055-9.083z"/><path d="m524.862 63.198-6.055 9.083h16.514l6.055-9.083z"/><path d="m0 64.024v8.257h80.505c0-4.542-3.303-8.12-7.294-8.257z"/><path d="m88.899 64.024h52.982v8.257h-52.982z"/><path d="m156.881 64.024c-4.129 0-7.431 3.715-7.431 8.257h62.614v-8.257z"/><path d="m226.927 64.024c-4.129 0-7.294 3.715-7.294 8.257h59.312c0-4.542-3.303-8.257-7.431-8.257z"/><path d="m313.624 64.024v8.257h61.926c0-4.542-3.302-8.257-7.293-8.257z"/><path d="m392.202 64.024c-3.853.413-6.881 3.853-6.881 8.257h60.551c0-4.542-3.303-8.257-7.294-8.257z"/><path d="m454.679 64.024h14.862v8.257h-14.862z"/><path d="m547.018 64.024h52.982v8.257h-52.982z"/><g fill-rule="nonzero"><path d="m219.249 49.66 21.342-.022c8.732 0 15.808-7.055 15.808-15.747 0-8.71-7.076-15.765-15.808-15.765l-5.543.03c-.436 0-.791-.358-.791-.799 0-.44.355-.799.791-.799l21.304.004.009-6.683h-21.317c-4.121 0-7.475 3.348-7.475 7.461 0 4.118 3.353 7.452 7.475 7.452l5.569.074c5.003 0 9.051 4.035 9.051 9.012 0 4.982-4.048 9.026-9.051 9.026h-21.356z"/><path d="m219.257 41.335h21.356c4.134 0 7.478-3.335 7.478-7.457 0-4.117-3.344-7.448-7.478-7.448l-5.569-.061c-4.994 0-9.047-4.039-9.047-9.029 0-4.977 4.053-9.017 9.047-9.017l21.317-.004-.009-6.71h-21.304c-8.722 0-15.808 7.047-15.808 15.748s7.086 15.752 15.808 15.752l5.513.009c.419 0 .773.341.773.773 0 .424-.354.765-.773.765l-21.312.017zm53.689 1.611c-3.703 0-6.736-2.951-6.736-6.718v-21.321c0-3.624 3.033-6.606 6.736-6.606l22.781.004v-6.696h-22.781c-7.413 0-13.419 5.984-13.419 13.372v21.247c0 7.389 6.006 13.381 13.419 13.381l22.686.009-.005-6.68z"/><path d="m267.844 14.981c0-2.825 2.272-5.115 5.102-5.115h22.781v6.705h-19.627c-1.572 0-1.594 1.56-1.594 1.56h16.374v6.674h-23.044zm5.102 26.341c-2.821 0-5.111-2.277-5.111-5.094v-9.833h23.045v6.688h-16.375c.022 1.573 1.594 1.581 1.594 1.581h19.532l-.004 6.649zm38.745 1.607c-3.69 0-6.705-3.007-6.705-6.701v-21.248c0-3.698 2.994-6.679 6.687-6.679h22.065v-6.692h-22.116c-7.41 0-13.415 5.984-13.415 13.372v21.247c0 7.389 6.057 13.381 13.466 13.381l22.065.009v-31.487h-18.962v6.674h12.261v18.124z"/><path d="m306.558 36.228c0 2.83 2.29 5.133 5.115 5.133h13.782v-14.975h-10.663v6.697h3.958l.012 1.573h-3.939c-.86 0-1.564-.713-1.564-1.573l-.035-14.957s-.005-1.555 1.581-1.594h18.94l-.008-6.671-22.065.005c-2.806 0-5.115 2.309-5.115 5.115v21.247m47.914-26.462c.306-.873 1.135-1.462 2.061-1.462.925 0 1.754.589 2.06 1.462l10.711 31.642h-15.683l.017-7.444h5.241l-2.36-7.012-7.686 22.66h-7.906z"/><path d="m371.462 42.929h-17.816v6.683h27.114l-14.102-41.721c-1.235-4.07-5.309-7.063-10.131-7.063-4.83 0-8.891 2.98-10.136 7.046l-14.231 41.739h7.099l13.817-40.572c.577-1.386 1.938-2.292 3.439-2.29 1.498.002 2.857.902 3.443 2.281z"/></g></g></svg>