<?xml version="1.0" encoding="UTF-8" standalone="no"?><!DOCTYPE svg PUBLIC "-//W3C//DTD SVG 1.1//EN" "http://www.w3.org/Graphics/SVG/1.1/DTD/svg11.dtd"><svg width="100%" height="100%" viewBox="0 0 600 86" version="1.1" xmlns="http://www.w3.org/2000/svg" xmlns:xlink="http://www.w3.org/1999/xlink" xml:space="preserve" xmlns:serif="http://www.serif.com/" style="fill-rule:evenodd;clip-rule:evenodd;stroke-linejoin:round;stroke-miterlimit:2;"><g id="sega_cd"><path d="M84.032,29.734l-1.705,-0.79c0.107,-0.351 0.213,-0.789 0.213,-1.228c0,-1.141 -10.021,-7.283 -27.398,-7.283c-16.629,-0 -23.772,4.212 -23.772,9.651c0,14.388 62.789,-6.667 62.789,25.093c-0,11.581 -13.646,20.531 -40.936,20.531c-26.01,-0 -33.473,-6.844 -35.924,-6.844c-0.641,0 -0.96,0.436 -1.493,0.703l-1.385,-0.263l8.847,-14.918l1.707,0.703c-0,0.353 -0.215,0.705 -0.215,1.406c0,5.178 13.753,8.858 27.398,8.858c19.402,-0 26.011,-4.559 26.011,-9.388c0,-17.194 -61.937,4.123 -61.937,-25.002c0,-14.74 18.869,-20.882 39.551,-20.882c18.549,-0 31.554,6.668 32.833,6.668c1.386,-0 1.599,-0.35 1.92,-0.614l1.705,0.438l-8.209,13.161Z" style="fill:#fff;fill-rule:nonzero;"/><path d="M102.363,73.6c2.345,-0 2.771,-0.702 2.771,-2.632l0,-56.149c0,-1.931 -0.427,-2.632 -2.771,-2.632l0,-1.229l69.186,0c2.558,0 3.624,-0.702 3.624,-1.93l1.492,0l0,14.565l-1.492,-0c-0,-1.579 -1.066,-2.281 -3.624,-2.281l-51.277,0l0,15.618l33.474,-0c2.558,-0 3.624,-0.703 3.624,-2.282l1.493,0l-0,14.737l-1.493,0c0,-0.701 -0.213,-1.226 -0.853,-1.579c-0.532,-0.35 -1.492,-0.527 -2.771,-0.527l-33.474,0l0,17.199l52.236,-0c2.558,-0 3.625,-0.704 3.625,-2.106l1.492,-0l-0,14.388l-1.492,-0c-0,-1.228 -1.067,-1.93 -3.625,-1.93l-70.145,-0l0,-1.23Z" style="fill:#fff;fill-rule:nonzero;"/><path d="M272.175,41.139l-0,1.229c-1.067,0.176 -2.026,0.877 -2.026,2.808l-0,17.283c-0,1.404 0.533,1.929 1.919,2.192l0,1.229c-6.716,3.158 -23.133,9.828 -41.576,9.828c-24.519,-0 -46.052,-10.005 -46.052,-32.814c-0,-22.812 25.158,-32.814 47.331,-32.814c8.742,-0 17.057,1.667 23.134,3.247c5.65,2.018 9.807,3.598 10.553,3.598c0.96,-0 1.92,-0.44 2.346,-0.965l1.492,0.525l-10.34,14.388l-1.493,-0.789c0.106,-0.35 0.213,-0.877 0.213,-1.491c-0,-2.721 -11.512,-8.16 -25.691,-8.16c-17.909,-0 -32.406,7.283 -32.406,22.111c-0,15.528 14.497,22.808 30.914,22.808c13.433,-0 21.321,-3.774 24.519,-5.702l0,-7.281l-18.335,0c-2.132,0 -3.411,0.878 -3.411,2.104l-1.494,0l0,-15.438l1.494,-0c-0,1.227 1.279,2.104 3.411,2.104l35.498,0Z" style="fill:#fff;fill-rule:nonzero;"/><path d="M277.498,74.832l-0,-1.229c1.919,-0.088 2.558,-0.526 4.05,-3.334l29.103,-53.87c0.531,-0.878 1.17,-1.843 1.17,-2.631c0,-0.965 -0.849,-1.404 -2.238,-1.579l-0,-1.23l23.24,0l0,1.229c-1.599,0.176 -2.241,0.702 -2.241,1.316c0,0.702 0.429,1.404 0.961,2.282l30.915,54.483c1.49,2.72 1.919,3.334 4.156,3.334l-0,1.229l-21.213,-0l-0,-1.229c1.388,0 1.919,-0.439 1.919,-0.877c-0,-0.965 -0.959,-2.194 -8.102,-14.742l-36.566,0c-6.183,11.405 -7.781,13.161 -7.781,14.302c-0,0.789 0.639,1.228 1.598,1.314l0,1.229l-18.974,-0l0,0.003l0.003,-0Zm55.541,-26.85l-12.793,-22.987l-12.579,22.987l25.372,-0Z" style="fill:#fff;fill-rule:nonzero;"/><path d="M600,85.275l-600,-0l-0,-84.763l599.999,0l-0,84.763l0.001,-0Zm-594.601,-5.399l589.202,-0l0,-73.965l-589.202,-0l-0,73.965Z" style="fill:#fff;fill-rule:nonzero;"/><path d="M385.099,10.958l0,63.871l205.162,-0l-0,-63.871l-205.162,0Zm8.698,44.837c-1.707,-11.372 36.069,-26.53 85.28,-34.518c-1.111,0.287 -3.26,0.837 -3.26,0.837c-0,-0 -4.836,1.181 -6.174,1.508c-25.103,6.135 -42.69,17.186 -41.223,26.985c1.503,10.032 22.474,15.463 49.152,13.607c1.482,-0.105 6.74,-0.358 7.885,-0.409c-49.397,6.784 -89.957,3.364 -91.66,-8.01Zm123.016,2.456c-10.905,2.478 -24.535,4.582 -24.535,4.582l-0,-28.502l7.027,23.193c-0,0 16.735,-2.716 29.474,-8.019c11.072,-4.611 17.941,-10.394 17.477,-16.554c-0.751,-10.008 -22.034,-15.348 -48.31,-13.658c-1.753,0.113 -7.571,0.412 -8.714,0.462c49.387,-6.786 89.942,-3.364 91.649,8.008c1.45,9.673 -25.661,22.079 -64.068,30.488Z" style="fill:#fff;fill-rule:nonzero;"/></g></svg>