<svg clip-rule="evenodd" fill-rule="evenodd" stroke-linejoin="round" stroke-miterlimit="2" viewBox="0 0 600 68" xmlns="http://www.w3.org/2000/svg"><g fill="#fff"><g fill-rule="nonzero"><path d="m144.833 57.24c-2.75 0-5.464-.14-8.298-.426-3.795-.458-6.642-1.032-8.975-1.803-1.25-.419-2.257-1.249-2.922-2.402-.646-1.378-.754-2.703-.35-3.909.416-1.336 1.302-2.36 2.554-2.942 1.044-.6 2.465-.75 3.778-.315 1.947.576 4.341 1.044 7.085 1.38 2.611.302 5.485.399 8.488.332 2.581-.062 4.983-.349 7.141-.855 1.369-.394 2.195-.747 2.634-1.136.055-.049.116-.091.178-.125.133-.127.254-.219.352-.294.184-.14.235-.177.311-.716.067-.457.08-.717.062-.898-.022-.028-.043-.057-.062-.088-.002 0-.002-.003-.002-.003v-.001l-.002-.001c.002 0-.001-.001-.001-.001v-.003l-.002-.001v-.002c-.063-.103-.11-.22-.133-.346l-.066-.375c-.002-.01-.003-.021-.006-.031-.122-.512-1.709-2.224-2.515-2.478-.895-.277-4.09-.623-7.682-.696-.701-.037-1.422-.053-2.267-.073-.686-.015-1.454-.032-2.3-.062-2.151.005-3.61.001-4.405-.073-3.86-.066-6.36-.411-7.573-1.054-1.428-.644-2.759-1.466-4.013-2.483-.091-.037-.176-.085-.243-.143-1.627-1.398-2.853-2.938-3.644-4.573-.052-.108-.083-.221-.093-.336-.972-2.102-1.233-4.271-.8-6.624.353-2.321 1.54-4.648 3.619-7.084 3.139-4.046 8.561-6.116 16.086-6.116 5.625 0 12.604 1.158 20.739 3.44 1.342.444 2.315 1.225 3.02 2.398.718 1.328.852 2.615.424 3.863-.311 1.252-1.165 2.311-2.442 2.985-.664.427-1.484.667-2.361.667-.439 0-.905-.062-1.389-.179-13.68-3.906-22.7-4.014-26.477-.382-.663.663-1.102 1.413-1.289 2.217-.07.25-.045.425.062.583.066.098.112.206.141.32.212.352.566.753 1.057 1.189.418.363.969.707 1.634 1.017.687.129 2.896.194 3.861.221.766.068 2.201.068 4.186.068.898.03 1.677.047 2.374.061.96.022 1.771.04 2.445.08 3.667.121 6.913.427 9.36.882.06.002.123.01.162.017 4.724 1.009 7.498 2.71 8.724 5.351l.209.453c.936 2.022 1.132 2.444 1.344 3.214.458 1.184.497 2.438.53 3.443.007.239.015.464.029.667l.002.204c0 1.498-.275 2.928-.84 4.364-.015.082-.034.16-.06.22-.493 1.112-1.312 2.379-2.509 3.874-.067.081-.141.151-.227.205-1.472 1.838-4.039 3.223-7.642 4.123-2.657.645-5.787 1.04-9.308 1.177-.575.008-1.135.014-1.693.014zm-15.767-10.092c-.47 0-.918.119-1.327.352-.828.389-1.324.967-1.586 1.806-.311.929-.052 1.816.222 2.4.389.668 1.011 1.182 1.807 1.449 2.201.728 4.927 1.273 8.57 1.713 3.306.334 6.489.468 9.717.397 3.373-.13 6.372-.507 8.896-1.12 3.296-.824 5.556-2.042 6.715-3.619.073-.1.161-.182.262-.246.949-1.207 1.613-2.225 2.018-3.1.013-.062.028-.121.047-.168.502-1.241.746-2.468.746-3.752v-.138c-.012-.159-.02-.406-.03-.67-.028-.904-.063-1.931-.432-2.897-.194-.686-.351-1.03-1.263-3.001l-.206-.451c-.941-2.022-3.253-3.371-7.277-4.24-.048-.003-.097-.007-.128-.013-1.643-.31-4.569-.712-9.159-.863-.679-.041-1.464-.058-2.394-.078-.705-.014-1.492-.032-2.365-.062-2.07.009-3.472.001-4.268-.072-2.578-.073-3.715-.15-4.289-.29-.06-.015-.118-.035-.173-.06-.88-.399-1.624-.86-2.21-1.371-.761-.676-1.279-1.299-1.59-1.915-.031-.06-.054-.121-.072-.183-.323-.595-.396-1.281-.201-1.957.258-1.118.874-2.185 1.813-3.124 4.408-4.237 13.854-4.251 28.351-.111.823.2 1.605.131 2.262-.287.865-.46 1.349-1.051 1.549-1.848.272-.799.18-1.538-.248-2.337-.438-.727-1.045-1.213-1.891-1.494-7.92-2.221-14.719-3.354-20.167-3.354-6.888 0-11.789 1.815-14.566 5.393-1.864 2.186-2.904 4.193-3.205 6.172-.381 2.079-.123 3.956.787 5.772.053.103.086.215.098.328.65 1.226 1.604 2.397 2.841 3.488.078.033.152.075.212.125 1.182.979 2.386 1.73 3.788 2.365.574.302 2.141.774 6.817.857.777.068 2.191.068 4.333.068.872.031 1.631.048 2.309.063.876.02 1.62.037 2.238.074 3.499.07 7.034.407 8.251.784 1.291.405 3.495 2.513 3.839 3.896l.056.133c.239.555.379 1.019.191 2.348-.178 1.234-.587 1.633-1.061 1.994-.122.093-.21.161-.307.284-.122.15-.279.256-.454.315-.671.478-1.613.869-3.099 1.296-2.337.548-4.874.854-7.588.916-.65.016-1.301.024-1.951.024-2.445 0-4.674-.119-6.815-.368-2.861-.349-5.362-.839-7.441-1.455-.345-.115-.661-.168-.972-.168z"/><path d="m200.752 55.151h-27.188c-1.398 0-2.668-.545-3.576-1.536-.932-.846-1.48-2.113-1.48-3.503v-33.809c0-1.395.508-2.606 1.512-3.602.935-.927 2.192-1.434 3.545-1.434h27.188c1.351 0 2.556.472 3.582 1.404 1 1.08 1.478 2.279 1.478 3.628 0 1.386-.486 2.576-1.444 3.533-1.012 1.001-2.227 1.505-3.616 1.505h-22.127v6.827h16.009c1.356 0 2.562.475 3.584 1.412.998 1.083 1.475 2.285 1.475 3.631s-.513 2.6-1.444 3.533c-1.008.999-2.223 1.504-3.616 1.504h-16.008v6.827h22.127c1.346 0 2.551.472 3.582 1.404 1.002 1.094 1.478 2.295 1.478 3.639 0 1.353-.513 2.61-1.446 3.536-1.003.996-2.22 1.501-3.615 1.501zm-27.188-41.927c-.832 0-1.6.309-2.166.868-.635.63-.931 1.333-.931 2.211v33.809c0 .834.32 1.586.903 2.117.602.651 1.34.964 2.195.964h27.188c.882 0 1.591-.298 2.232-.934.559-.555.866-1.319.866-2.146 0-.864-.285-1.579-.898-2.251-.611-.546-1.33-.831-2.2-.831h-23.107c-.542 0-.981-.439-.981-.98v-8.785c0-.542.439-.98.981-.98h16.989c.882 0 1.59-.296 2.232-.933.556-.559.865-1.323.865-2.146 0-.864-.284-1.577-.897-2.246-.606-.552-1.326-.837-2.2-.837h-16.989c-.542 0-.981-.439-.981-.98v-8.786c0-.542.439-.98.981-.98h23.106c.879 0 1.589-.298 2.234-.937.581-.581.864-1.283.864-2.143 0-.854-.292-1.585-.896-2.238-.611-.55-1.33-.836-2.202-.836z"/><path d="m230.325 58.207c-3.518 0-6.865-.671-9.948-1.989-2.899-1.17-5.453-2.968-7.575-5.342-.08-.044-.155-.1-.219-.171-2.176-2.352-3.824-5.192-4.895-8.439-1.081-3.273-1.539-6.602-1.4-10.179l.021-.574c.117-3.12.176-4.685 1.26-7.53 1.13-2.967 2.062-5.213 3.79-7.087.042-.062 2.487-3.256 6.052-5.021 2.754-1.366 4.02-1.629 5.938-2.028.529-.11 1.115-.232 1.806-.395 2.228-.394 4.38-.588 6.452-.588 6.57 0 12.588 1.93 17.882 5.734 1.134.846 1.85 2.026 2.089 3.417.243 1.497-.01 2.839-.753 3.998-.691 1.159-1.757 1.951-3.152 2.324-.391.081-.726.115-1.051.115-.991 0-1.937-.309-2.81-.921-5.236-3.846-10.689-5.059-16.37-3.665-.056.013-.112.022-.17.027l-.923.239c-1.898.49-3.154.813-4.809 1.642-1.786.888-2.864 2.539-2.875 2.556-.029.048-.067.094-.105.135-.64.694-1.1 1.57-1.403 2.677-.466 1.67-.714 2.945-.776 5.301-.069 2.301.21 4.382.827 6.19.59 1.77 1.477 3.304 2.643 4.566 1.165 1.324 2.535 2.296 4.204 2.991.084.036.162.082.234.137 1.825.725 3.907 1.106 6.038 1.106 5.391 0 9.352-1.057 11.771-3.138.957-.981 1.632-2.235 1.985-3.71h-12.401c-1.401 0-2.679-.589-3.598-1.66-.919-.905-1.455-2.247-1.455-3.717 0-1.493.484-2.743 1.48-3.82.938-1.009 2.206-1.561 3.573-1.561h17.636c1.305 0 2.43.444 3.44 1.357 1.041 1.108 1.533 2.213 1.611 3.534.702 7.839-1.212 13.818-5.691 17.741-3.792 3.799-9.982 5.748-18.353 5.748zm-16.538-9.091c.094.051.18.118.255.204 1.964 2.272 4.349 3.985 7.086 5.088 2.857 1.224 5.945 1.84 9.196 1.84 7.831 0 13.556-1.757 17.014-5.219 4.087-3.581 5.731-8.855 5.076-16.168-.051-.881-.368-1.576-1.029-2.281-.593-.532-1.248-.794-2.067-.794h-17.636c-.817 0-1.576.332-2.137.934-.652.706-.958 1.497-.958 2.488 0 .943.332 1.789.93 2.383.603.697 1.332 1.036 2.165 1.036h13.571c.28 0 .547.119.733.33.186.21.274.49.239.769-.291 2.359-1.256 4.431-2.787 5.998-2.886 2.488-7.155 3.669-13.111 3.669-2.484 0-4.823-.444-6.952-1.32-.09-.037-.174-.087-.247-.147-1.872-.808-3.422-1.926-4.732-3.415-1.341-1.45-2.368-3.222-3.044-5.251-.69-2.024-1.004-4.339-.929-6.872.068-2.542.35-3.989.847-5.767.374-1.364.979-2.517 1.798-3.425.269-.392 1.553-2.156 3.596-3.173 1.842-.922 3.249-1.284 5.196-1.786l1.029-.267c.064-.017.129-.026.195-.03 6.205-1.493 12.218-.148 17.87 4.002.527.369 1.079.553 1.668.553.199 0 .4-.021.604-.063.848-.229 1.481-.694 1.933-1.45.497-.776.65-1.632.485-2.643-.152-.881-.605-1.629-1.313-2.16-6.512-4.677-14.236-6.309-22.784-4.808-.655.156-1.256.281-1.8.394-1.831.381-2.938.612-5.466 1.866-3.143 1.556-5.401 4.494-5.425 4.524-1.55 1.69-2.374 3.679-3.457 6.527-.97 2.543-1.018 3.82-1.133 6.907l-.023.575c-.128 3.339.299 6.443 1.304 9.49.946 2.859 2.371 5.369 4.24 7.462z"/><path d="m298.611 56.436c-1.027 0-2.021-.35-2.879-1.01-1.068-.76-1.731-1.825-1.997-3.236-.535-3.576-1.118-6.908-1.743-9.949h-24.793c-.543 2.666-1.048 5.542-1.503 8.566-.25 1.351-.923 2.441-2.006 3.268-1.219.872-2.487 1.182-3.829.936-1.311-.164-2.427-.844-3.268-2.012-.789-1.02-1.109-2.266-.928-3.674 4.218-27.791 12.292-41.521 24.074-40.815.161-.017.439-.025.717-.025 11.37 0 18.989 13.794 23.297 42.17.164 1.412-.151 2.597-.986 3.76-.891 1.15-2.007 1.796-3.34 1.947-.227.045-.523.074-.816.074zm-32.209-16.154h26.388c.463 0 .862.325.957.777.695 3.285 1.34 6.92 1.92 10.804.168.876.55 1.5 1.231 1.989.71.545 1.45.727 2.241.573.867-.101 1.518-.483 2.058-1.18.527-.736.719-1.441.615-2.328-4.172-27.477-11.622-41.106-22.072-40.451-.37-.014-.617-.022-.862-.022-10.17 0-17.326 13.173-21.272 39.152-.11.863.071 1.602.558 2.233.537.745 1.182 1.146 1.997 1.249.226.039.397.054.565.054.616 0 1.205-.205 1.801-.632.668-.51 1.081-1.179 1.238-2.019.499-3.323 1.066-6.504 1.678-9.421.096-.453.497-.778.959-.778zm24.354-6.145h-22.333c-.311 0-.601-.146-.786-.394-.186-.248-.242-.569-.154-.864 3.129-10.53 7.092-15.845 12.114-16.251.05-.003.105-.003.158 0 4.896.402 8.802 5.717 11.939 16.251.088.296.03.616-.154.864-.181.248-.473.394-.784.394zm-21.009-1.959h19.683c-2.715-8.539-6.076-13.226-9.757-13.59-3.844.369-7.182 4.939-9.926 13.59z"/><path d="m347.778 57.22c-2.765 0-5.506-.141-8.384-.429-3.812-.46-6.683-1.037-9.053-1.82-1.256-.419-2.273-1.258-2.946-2.425-.652-1.389-.761-2.724-.351-3.941.414-1.34 1.307-2.372 2.57-2.964 1.074-.605 2.503-.752 3.815-.317 1.947.581 4.36 1.052 7.143 1.391 2.671.307 5.561.405 8.558.332 2.59-.061 5.013-.35 7.204-.86.915-.266 2.095-.65 2.659-1.144.055-.047.11-.086.168-.119.139-.132.263-.228.368-.306.183-.139.234-.177.311-.723.067-.46.08-.722.066-.904-.103-.126-.175-.278-.205-.45l-.067-.38c-.002-.011-.003-.02-.004-.03-.127-.516-1.729-2.243-2.542-2.501-.9-.277-4.121-.625-7.744-.701-.722-.04-1.462-.056-2.332-.076-.681-.016-1.439-.034-2.275-.063-2.174.005-3.637.001-4.438-.071-3.898-.066-6.422-.415-7.642-1.065-1.441-.651-2.783-1.479-4.048-2.504-.091-.039-.174-.087-.242-.145-1.645-1.412-2.88-2.965-3.675-4.613-.052-.107-.084-.22-.095-.336-.978-2.12-1.243-4.31-.808-6.679.357-2.342 1.553-4.689 3.649-7.145 3.165-4.081 8.632-6.168 16.219-6.168 5.673 0 12.711 1.169 20.917 3.471 1.354.448 2.335 1.235 3.047 2.417.72 1.335.859 2.632.433 3.894-.318 1.268-1.177 2.336-2.466 3.015-.671.434-1.496.674-2.383.674-.447 0-.904-.057-1.396-.178-13.797-3.942-22.893-4.051-26.701-.387-.67.668-1.11 1.424-1.3 2.237-.07.25-.046.427.064.588.064.097.112.204.139.316.216.36.575.762 1.068 1.199.42.365.978.711 1.65 1.025.717.133 3.008.198 3.893.223.773.07 2.219.07 4.221.07.965.033 1.794.052 2.533.068.905.019 1.677.037 2.323.074 3.715.125 6.987.431 9.442.889.059.002.122.009.163.018 4.761 1.016 7.557 2.73 8.798 5.397l.217.47c.941 2.028 1.135 2.449 1.348 3.223.463 1.199.504 2.464.535 3.479.01.24.014.465.027.67.003.022.003.181.003.202 0 1.509-.278 2.951-.847 4.403-.015.082-.034.16-.062.223-.498 1.125-1.327 2.404-2.532 3.905-.066.082-.143.151-.228.207-1.481 1.852-4.073 3.249-7.705 4.155-2.703.656-5.859 1.055-9.388 1.191-.576.012-1.133.018-1.692.018zm-15.914-10.175c-.477 0-.929.118-1.347.352-.833.393-1.331.976-1.595 1.817-.314.937-.051 1.832.223 2.421.395.677 1.021 1.193 1.821 1.461 2.237.74 4.986 1.289 8.647 1.731 3.354.337 6.559.464 9.798.4 3.379-.13 6.406-.51 8.974-1.133 3.324-.831 5.604-2.059 6.771-3.646.073-.101.163-.185.266-.249.956-1.212 1.624-2.237 2.033-3.124.013-.063.029-.123.049-.169.506-1.256.753-2.493.753-3.787-.014-.296-.022-.546-.03-.81-.028-.913-.062-1.947-.437-2.926-.194-.69-.351-1.035-1.265-3.007l-.216-.468c-.949-2.042-3.283-3.404-7.338-4.28-.047-.003-.096-.008-.126-.013-1.651-.31-4.592-.714-9.237-.869-.65-.039-1.398-.054-2.276-.072-.747-.016-1.588-.035-2.526-.068-2.087.001-3.503.001-4.304-.074-2.546-.07-3.736-.151-4.323-.291-.061-.014-.121-.036-.178-.062-.883-.405-1.631-.869-2.225-1.38-.766-.677-1.288-1.306-1.606-1.934-.031-.059-.055-.121-.071-.185-.327-.6-.399-1.289-.202-1.968.256-1.115.893-2.221 1.827-3.152 4.444-4.278 13.973-4.294 28.59-.111.829.201 1.615.132 2.279-.293.873-.464 1.361-1.061 1.566-1.867.269-.806.179-1.554-.254-2.359-.443-.733-1.054-1.223-1.909-1.506-7.988-2.241-14.846-3.384-20.339-3.384-6.945 0-11.887 1.829-14.686 5.44-1.88 2.203-2.928 4.228-3.234 6.223-.384 2.094-.122 3.986.793 5.818.054.105.086.216.1.33.652 1.235 1.615 2.415 2.866 3.518.079.035.153.076.213.126 1.189.987 2.404 1.744 3.819 2.385.578.307 2.157.784 6.875.868.781.066 2.207.066 4.367.066.864.031 1.613.047 2.285.063.903.02 1.67.038 2.304.078 1.156.022 7.748.611 8.317.786 1.307.416 3.527 2.542 3.874 3.934l.058.134c.239.559.381 1.025.189 2.365-.178 1.247-.593 1.65-1.072 2.016-.122.092-.21.16-.308.283-.12.148-.279.257-.452.315-.674.479-1.625.873-3.131 1.307-2.372.554-4.931.861-7.654.925-.666.018-1.335.026-2.004.026-2.428 0-4.662-.122-6.836-.371-2.899-.354-5.421-.848-7.503-1.467-.342-.111-.659-.163-.973-.163z"/><path d="m413.736 59.431c-1.049 0-2.026-.343-2.911-1.021-1.078-.758-1.745-1.833-2.016-3.261-.547-3.659-1.132-7.02-1.752-10.032h-25.008c-.543 2.674-1.052 5.574-1.519 8.634-.252 1.363-.93 2.461-2.02 3.297-.97.692-1.926 1.019-2.946 1.019-.29 0-.593-.028-.907-.082-1.323-.154-2.454-.84-3.309-2.03-.849-1.104-1.174-2.412-.92-3.76 4.372-28.355 12.327-41.823 24.264-41.098.163-.017.447-.025.724-.025 11.465 0 19.152 13.908 23.497 42.52.168 1.414-.149 2.609-.995 3.792-.895 1.152-2.013 1.806-3.351 1.973-.245.047-.542.074-.831.074zm-32.494-16.289h26.618c.466 0 .868.327.967.782.686 3.249 1.335 6.915 1.93 10.897.168.886.552 1.514 1.239 1.999.722.552 1.46.734 2.264.586.869-.111 1.527-.502 2.072-1.202.534-.749.728-1.46.621-2.347-4.208-27.706-11.668-41.448-22.263-40.787-.371-.015-.622-.023-.869-.023-10.19 0-17.406 13.284-21.447 39.483-.155.823.035 1.567.557 2.247.544.758 1.196 1.159 2.009 1.256.252.043.441.061.622.061.611 0 1.157-.196 1.772-.634.673-.514 1.091-1.188 1.246-2.035.512-3.366 1.083-6.571 1.695-9.495.096-.46.499-.788.967-.788zm24.576-6.211h-22.536c-.313 0-.605-.147-.791-.396-.188-.251-.245-.574-.155-.873 3.157-10.614 7.155-15.973 12.218-16.382.055-.001.105-.006.159 0 4.965.397 8.908 5.756 12.053 16.383.088.299.029.622-.156.872-.187.25-.482.396-.792.396zm-21.2-1.975h19.865c-2.752-8.731-6.064-13.338-9.848-13.699-3.882.371-7.247 4.978-10.017 13.699z"/><path d="m432.327 58.754c-1.405 0-2.686-.549-3.605-1.545-.943-.859-1.495-2.136-1.495-3.539v-30.372h-12.717c-1.41 0-2.693-.551-3.61-1.549-.942-.861-1.493-2.137-1.493-3.533 0-1.4.513-2.622 1.522-3.632.947-.933 2.217-1.445 3.582-1.445h35.638c1.367 0 2.581.475 3.613 1.415 1.007 1.087 1.487 2.3 1.483 3.663 0 1.363-.516 2.629-1.454 3.563-1.004 1.005-2.229 1.516-3.642 1.516h-12.717v30.374c0 1.368-.519 2.635-1.464 3.57-1.004 1.004-2.23 1.514-3.641 1.514zm-17.817-43.641c-.843 0-1.618.31-2.187.873-.64.639-.938 1.349-.938 2.229 0 .849.314 1.588.912 2.137.603.655 1.349.97 2.213.97h13.704c.548 0 .989.443.989.989v31.359c0 .854.316 1.593.911 2.141.608.654 1.353.97 2.213.97.892 0 1.609-.299 2.247-.939.568-.566.88-1.335.88-2.17v-31.365c0-.545.444-.988.989-.988h13.705c.893 0 1.609-.298 2.245-.937.567-.563.877-1.332.877-2.167 0-.875-.287-1.593-.902-2.262-.612-.553-1.339-.84-2.221-.84z"/><path d="m482.55 58.205h-6.1c-2.93 0-5.57-.516-8.066-1.576-2.414-1.035-4.571-2.482-6.598-4.427-1.95-2.015-3.35-4.085-4.299-6.341-.081-.083-.146-.177-.188-.284-1.059-2.703-1.576-5.319-1.576-8v-20.247c0-1.412.554-2.69 1.56-3.596.851-.932 2.131-1.482 3.54-1.482 1.424 0 2.616.495 3.641 1.515.942.93 1.46 2.195 1.46 3.563v20.247c0 1.341.274 2.71.816 4.07.022.056.038.114.051.172.54 1.148 1.249 2.168 2.221 3.194 1.197 1.112 2.205 1.787 3.329 2.209 1.32.566 2.613.821 4.105.821h6.101c1.506 0 2.871-.269 4.05-.798 1.166-.442 2.208-1.138 3.427-2.275 1.095-1.161 1.795-2.196 2.226-3.312.551-1.23.819-2.587.819-4.081v-20.247c0-1.406.554-2.682 1.559-3.594.856-.935 2.136-1.484 3.542-1.484 1.413 0 2.638.511 3.644 1.518.932.916 1.456 2.178 1.469 3.551v20.257c0 2.887-.519 5.534-1.586 8.089-.034.08-.075.154-.127.221-1.02 2.271-2.436 4.331-4.322 6.288-1.988 1.899-4.061 3.31-6.36 4.333-.063.05-.134.091-.213.123-2.562 1.058-5.219 1.573-8.125 1.573zm-23.515-13.623c.073.078.131.168.17.266.852 2.123 2.152 4.071 3.973 5.956 1.827 1.75 3.792 3.069 5.981 4.007 2.245.954 4.631 1.419 7.291 1.419h6.1c2.545 0 4.874-.431 7.111-1.318.053-.039.111-.072.177-.101 2.184-.935 4.151-2.255 6.016-4.035 1.765-1.835 3.091-3.79 4.023-5.951.029-.066.064-.128.104-.185.892-2.228 1.327-4.542 1.327-7.063v-20.247c-.009-.835-.324-1.606-.884-2.158-.646-.645-1.36-.945-2.255-.945-.861 0-1.604.316-2.151.91-.65.594-.974 1.352-.974 2.193v20.247c0 1.774-.327 3.403-.972 4.84-.506 1.319-1.331 2.555-2.655 3.954-.999.933-2.321 2.04-4.065 2.701-1.384.621-3.02.948-4.806.948h-6.101c-1.745 0-3.331-.315-4.843-.964-1.701-.641-3.024-1.749-3.981-2.64-1.2-1.263-2.066-2.535-2.699-3.931-.036-.082-.063-.167-.076-.255-.596-1.547-.898-3.111-.898-4.653v-20.247c0-.835-.311-1.603-.875-2.161-.647-.643-1.363-.942-2.25-.942-.85 0-1.613.323-2.15.907-.816.741-.971 1.596-.971 2.194v20.248c-.002 2.341.436 4.635 1.333 7.006z"/><path d="m509.85 57.476c-1.442 0-2.758-.511-3.807-1.479-1.005-.94-1.553-2.207-1.553-3.57v-35.216c0-1.269.486-2.411 1.443-3.395.999-1.013 2.175-1.568 3.492-1.659 13.013-1.025 22.894-.516 29.447 1.529 8.792 2.587 13.099 7.431 12.79 14.396-.082 5.87-2.802 10.108-8.084 12.569-.732.356-1.551.68-2.469.974l9.819 6.656c1.183.849 1.906 1.967 2.169 3.34.182 1.378-.161 2.655-.986 3.756-.9 1.176-2.106 1.854-3.594 2.022-.25.043-.556.069-.855.069-1.082 0-2.103-.331-3.032-.989l-21.853-14.886c-1.043-.702-1.718-1.556-2.064-2.606-.313-1.247-.244-2.328.183-3.283.448-1.085 1.21-1.935 2.255-2.498.94-.578 2.02-.809 3.309-.726 5.532.597 9.673.29 12.45-.869 1.42-.69 2.075-1.819 2.014-3.528-.177-2.163-1.927-3.739-5.347-4.776-4.755-1.346-11.628-1.814-20.367-1.365v30.486c0 1.409-.59 2.686-1.658 3.597-.935.943-2.199 1.451-3.702 1.451zm11.637-43.862c-3.58 0-7.59.173-11.917.515-.846.057-1.569.409-2.226 1.074-.597.614-.881 1.254-.881 2.01v35.216c0 .81.33 1.564.926 2.123.672.619 1.523.95 2.46.95.969 0 1.741-.303 2.36-.925.691-.594 1.025-1.317 1.025-2.148v-31.424c0-.525.409-.957.932-.986 9.387-.537 16.8-.067 21.966 1.39 4.245 1.288 6.514 3.492 6.763 6.558.091 2.528-1.007 4.395-3.173 5.443-3.177 1.331-7.663 1.663-13.434 1.038-.099-.005-.231-.01-.361-.01-.7 0-1.252.147-1.79.477-.699.38-1.138.869-1.426 1.57-.26.575-.287 1.205-.1 1.954.185.557.597 1.061 1.272 1.519l21.873 14.901c.772.545 1.604.74 2.483.585 1.017-.114 1.728-.512 2.296-1.257.51-.682.717-1.44.612-2.249-.16-.827-.593-1.492-1.35-2.036l-11.567-7.841c-.323-.22-.487-.61-.416-.993.068-.387.36-.694.741-.785 1.675-.4 3.04-.863 4.171-1.414 4.616-2.15 6.887-5.694 6.959-10.842.269-6.053-3.457-10.115-11.387-12.447-4.175-1.306-9.829-1.966-16.811-1.966z"/><path d="m594.878 58.067c-.317 0-.636-.028-.965-.082-1.04-.25-1.888-.734-2.66-1.495l-25.526-26.353v22.851c0 1.369-.519 2.634-1.462 3.566-1.003 1.002-2.228 1.512-3.638 1.512s-2.689-.55-3.605-1.546c-.941-.844-1.492-2.121-1.492-3.532v-35.457c0-1.055.304-2 .933-2.888.464-.769 1.304-1.425 2.326-1.789.773-.36 1.839-.49 2.885-.322 1.005.252 1.833.702 2.623 1.394l25.5 26.453v-22.848c0-1.399.511-2.622 1.522-3.63.953-.938 2.221-1.451 3.577-1.451 1.357 0 2.571.477 3.607 1.417 1.014 1.09 1.497 2.302 1.497 3.664v35.457c0 1.055-.292 2.005-.867 2.823-.537.832-1.26 1.446-2.251 1.899-.763.254-1.383.357-2.004.357zm-30.139-31.358c.263 0 .519.105.711.301l27.207 28.089c.5.495 1.032.801 1.651.951.439.068 1.163.047 1.858-.18.537-.252.98-.624 1.33-1.164.367-.524.529-1.059.529-1.718v-35.457c0-.872-.29-1.59-.908-2.26-.621-.558-1.346-.846-2.221-.846-.833 0-1.61.312-2.185.879-.64.638-.939 1.347-.939 2.228v25.297c0 .404-.243.766-.617.916-.375.15-.803.06-1.081-.229l-27.138-28.16c-.497-.431-1.045-.73-1.66-.889-.118-.015-.325-.033-.53-.033-.441 0-.849.085-1.211.251-.678.246-1.154.604-1.419 1.042-.427.608-.608 1.164-.608 1.805v35.457c0 .858.312 1.593.904 2.129.612.659 1.355.973 2.217.973.891 0 1.603-.299 2.246-.94.567-.56.878-1.326.878-2.163v-25.292c0-.402.243-.765.616-.915.119-.05.246-.072.37-.072z"/></g><path d="m33.745 63.161-.283.041c-9.854 1.177-14.776.741-20.048.413-5.271-.327-5.218-2.856-5.176-3.934.043-1.082 1.005-3.574 4.963-3.826 1.413-.185 6.879.197 12.447.091 2.301 2.805 5.034 5.244 8.097 7.215z"/><path d="m17.997 30.11c-1.742 1.072-3.273 2.133-4.509 3.067-2.216 1.676-4.978 4.693-4.866 7.069 0 0 2.533 1.015 10.341-.702v.001c.184-.036.797-.153 1.776-.364l-.002-.013c3.391-.724 7.37-1.805 12.077-3.202 3.955-1.166 8.95-2.788 15.111-4.799l15.434-5.058c5.836-1.946 10.508-3.374 14.139-4.412 1.437-.413 2.872-.77 4.26-1.075v.002c.617-.136 1.224-.261 1.819-.377l-.001-.001c2.477-.481 4.733-.791 6.5-.959 2.202-.209 8.613-.773 11.983 2.38 2.942 2.752 1.909 8.612-.928 12.876-2.645 3.979-6.614 8.563-16.96 13.568 1.474-3.293 2.451-6.857 2.832-10.596 6.738-4.607 8.523-8.84 8.673-10.712-2.414-.437-6.211.07-9.794.827l.002.023c-.907.162-6.243 1.567-6.243 1.567-3.57.972-8.173 2.401-13.815 4.281l-15.435 5.058-.14.045c-5.839 1.946-10.705 3.491-14.594 4.687-.228.071-.44.137-.636.197-1.39.392-2.727.753-4.011 1.087-3.03.789-5.74 1.419-8.144 1.936l-.001-.001c-.623.134-1.224.261-1.804.381-4.731.914-16.896 2.788-20.321-3.069-1.339-2.288-.84-6.11 1.334-9.48s3.549-4.651 6.794-7.327c3.247-2.677 7.087-4.845 10.068-6.355.558-.282 1.196-.595 1.896-.93-1.455 3.229-2.431 6.719-2.835 10.38z"/><path d="m17.997 30.11c-1.742 1.072-3.273 2.133-4.509 3.067-2.216 1.676-4.978 4.693-4.866 7.069 0 0 2.533 1.015 10.341-.702v.001c.184-.036.797-.153 1.776-.364l-.002-.013c3.391-.724 7.37-1.805 12.077-3.202 3.955-1.166 8.95-2.788 15.111-4.799l15.434-5.058c5.836-1.946 10.508-3.374 14.139-4.412 1.437-.413 2.872-.77 4.26-1.075v.002c.617-.136 1.224-.261 1.819-.377l-.001-.001c2.477-.481 4.733-.791 6.5-.959 2.202-.209 8.613-.773 11.983 2.38 2.942 2.752 1.909 8.612-.928 12.876-2.645 3.979-6.614 8.563-16.96 13.568 1.474-3.293 2.451-6.857 2.832-10.596 6.738-4.607 8.523-8.84 8.673-10.712-2.414-.437-6.211.07-9.794.827l.002.023c-.907.162-6.243 1.567-6.243 1.567-3.57.972-8.173 2.401-13.815 4.281l-15.435 5.058-.14.045c-5.839 1.946-10.705 3.491-14.594 4.687-.228.071-.44.137-.636.197-1.39.392-2.727.753-4.011 1.087-3.03.789-5.74 1.419-8.144 1.936l-.001-.001c-.623.134-1.224.261-1.804.381-4.731.914-16.896 2.788-20.321-3.069-1.339-2.288-.84-6.11 1.334-9.48s3.549-4.651 6.794-7.327c3.247-2.677 7.087-4.845 10.068-6.355.558-.282 1.196-.595 1.896-.93-1.455 3.229-2.431 6.719-2.835 10.38z"/><path d="m85.256 29.457c.2 1.471.304 2.974.304 4.501 0 18.255-14.821 33.075-33.076 33.075-13.15 0-24.517-7.69-29.847-18.815.459-.097.92-.196 1.227-.262.004-.001.007-.001.011-.002l1.437-.321c2.426-.522 3.046-.69 6.107-1.487 1.294-.336 2.642-.701 4.043-1.096.012-.003.024-.006.035-.01.197-.06.411-.126.64-.198 3.897-1.199 8.772-2.746 14.622-4.696l.137-.045 15.436-5.057c.002-.001.005-.002.008-.002 5.603-1.868 10.175-3.287 13.721-4.254.175-.046 3.466-.914 5.195-1.331z"/><path d="m19.625 37.756c-.143-1.246-.216-2.514-.216-3.798 0-18.255 14.82-33.076 33.075-33.076 12.841 0 23.983 7.333 29.464 18.04l-.539.114c-1.42.312-2.888.677-4.358 1.1-3.647 1.043-8.34 2.477-14.202 4.432 0 0-15.429 5.056-15.429 5.056-6.142 2.005-11.122 3.622-15.065 4.784-.001.001-.002.001-.003.001-4.659 1.383-8.597 2.455-11.954 3.171-.067.014-.133.033-.197.055-.205.044-.399.085-.576.121z"/><path d="m71.764 5.11c1.976-.229 3.909-.407 5.802-.535 5.123-.324 9.077-.324 13.229.132 1.038.065 2.594.583 3.308 1.425.647.78.971 1.752.841 2.856-.129 1.035-.583 1.881-1.427 2.593-.843.649-2.758.935-4.1.842-1.201-.082-5.599-.382-9.861-.163-2.215-2.76-4.844-5.175-7.792-7.15z"/></g></svg>