<svg clip-rule="evenodd" fill-rule="evenodd" stroke-linejoin="round" stroke-miterlimit="2" viewBox="0 0 600 292" xmlns="http://www.w3.org/2000/svg"><g fill="#fff"><path d="m579.796 220.884.324-123.192h19.88l-.324 123.192z"/><path d="m427.922 220.884h-19.553v-120.26l66.485 77.24 67.135-78.866v121.886h-20.862l-.32-65.505-46.281 55.732-46.604-55.409z"/><path d="m111.459 218.93v-119.608h-19.881l.328 76.915-91.906-75.936.324 119.936h17.275v-77.567z"/><path d="m124.171 220.884 15.318-26.072h-14.015v-18.247h23.14l42.041-76.264 67.14 120.583h-23.792l-13.687-26.072h-59.641l-14.339 26.072zm44.65-44.647h43.021l-21.51-39.436z"/><path d="m257.143 161.899c0-36.177 29.333-65.51 65.513-65.51 36.173 0 65.506 29.333 65.506 65.51 0 36.173-29.333 65.505-65.506 65.505-36.18 0-65.513-29.332-65.513-65.505zm65.513 45.952c25.422 0 45.946-20.535 45.946-45.952 0-25.094-20.528-45.629-45.946-45.629-25.097 0-45.632 20.535-45.632 45.629 0 25.417 20.531 45.952 45.632 45.952z"/><path d="m0 239.404h600v51.944h-600zm309.656 30.714 9.965-.022v.602c0 1.242.303 2.08.909 2.517.608.437 1.881.654 3.818.654h12.674c1.242 0 2.13-.21 2.662-.632.533-.422.799-1.119.799-2.095 0-.992-.307-1.701-.922-2.132-.615-.429-1.935-.719-3.961-.866l-15.845-.355c-3.967-.119-6.649-.872-8.045-2.264-1.4-1.391-2.099-3.921-2.099-7.59 0-1.894.186-3.454.556-4.684.37-1.225.961-2.246 1.775-3.06.961-.918 2.221-1.569 3.772-1.952 1.554-.385 4.084-.58 7.591-.58h15.403c3.818 0 6.565.697 8.242 2.088 1.679 1.39 2.521 3.645 2.521 6.768 0 .208-.004.429-.013.665-.006.238-.032.623-.078 1.155h-9.72v-.134c0-1.095-.277-1.915-.831-2.465-.556-.543-1.387-.818-2.497-.818h-11.629c-1.937 0-3.219.19-3.84.576-.621.385-.93 1.058-.93 2.019 0 .948.279 1.632.842 2.054.562.42 1.597.69 3.108.809l16.6.267c3.788.103 6.454.952 7.997 2.551 1.548 1.598 2.322 4.329 2.322 8.19 0 2.294-.285 4.069-.854 5.327-.57 1.257-1.528 2.331-2.875 3.218-.887.563-2.093.965-3.618 1.21-1.522.242-3.727.366-6.61.366h-13.452c-5.519 0-9.209-.617-11.074-1.855-1.864-1.234-2.797-3.537-2.797-6.911 0-.193.013-.515.035-.965.021-.453.054-1.002.099-1.656zm93.21 0 9.965-.022v.602c0 1.242.303 2.08.909 2.517.608.437 1.881.654 3.818.654h12.674c1.242 0 2.13-.21 2.662-.632.533-.422.799-1.119.799-2.095 0-.992-.307-1.701-.922-2.132-.615-.429-1.935-.719-3.961-.866l-15.847-.355c-3.965-.119-6.645-.872-8.045-2.264-1.398-1.391-2.097-3.921-2.097-7.59 0-1.894.186-3.454.554-4.684.372-1.225.965-2.246 1.777-3.06.963-.918 2.218-1.569 3.774-1.952 1.552-.385 4.085-.58 7.589-.58h15.403c3.818 0 6.565.697 8.242 2.088 1.679 1.39 2.521 3.645 2.521 6.768 0 .208-.004.429-.013.665-.006.238-.032.623-.078 1.155h-9.72v-.134c0-1.095-.277-1.915-.831-2.465-.556-.543-1.387-.818-2.497-.818h-11.629c-1.937 0-3.216.19-3.838.576-.621.385-.935 1.058-.935 2.019 0 .948.284 1.632.847 2.054.56.42 1.597.69 3.105.809l16.601.267c3.787.103 6.454.952 7.997 2.551 1.548 1.598 2.322 4.329 2.322 8.19 0 2.294-.285 4.069-.855 5.327-.569 1.257-1.528 2.331-2.874 3.218-.887.563-2.093.965-3.619 1.21-1.521.242-3.726.366-6.609.366h-13.452c-5.517 0-9.209-.617-11.075-1.855-1.863-1.234-2.796-3.537-2.796-6.911 0-.193.013-.515.035-.965.021-.453.054-1.002.099-1.656zm-364.496-10.141v-.089c0-1.524-.459-2.567-1.377-3.127-.917-.563-2.989-.847-6.213-.847h-5.881c-3.448 0-5.655.416-6.625 1.243-.97.831-1.454 2.584-1.454 5.261v4.593c0 2.385.547 4.017 1.642 4.906 1.096.888 3.256 1.332 6.48 1.332h5.838c2.9 0 4.897-.262 5.993-.788 1.095-.526 1.642-1.433 1.642-2.719 0-.177-.03-.474-.091-.887v-.11h-11.871v-6.682h22.371v10.854c0 3.106-1.152 5.314-3.452 6.623-2.301 1.31-6.307 1.963-12.017 1.963h-11.231c-3.447 0-5.99-.186-7.633-.556-1.643-.366-3.035-.996-4.173-1.885-1.331-1.05-2.301-2.342-2.907-3.872-.606-1.532-.911-3.465-.911-5.803v-9.01c0-4.735 1.121-8.038 3.364-9.91 2.242-1.872 6.313-2.807 12.217-2.807h11.274c3.638 0 6.324.164 8.056.489 1.731.327 3.09.872 4.084 1.64 1.034.799 1.801 1.877 2.296 3.23.496 1.354.743 3.051.743 5.094 0 .487-.005.866-.011 1.132-.009.267-.018.509-.033.732zm148.57 21.526c-3.861 0-6.688-.173-8.478-.522-1.79-.346-3.248-.941-4.372-1.785-1.272-.946-2.19-2.186-2.753-3.718-.56-1.531-.842-3.561-.842-6.091v-9.01c0-2.768.282-4.956.842-6.569.563-1.614 1.481-2.891 2.753-3.841 1.108-.827 2.587-1.42 4.426-1.775 1.844-.355 4.636-.533 8.378-.533h11.874c3.757 0 6.564.178 8.421.533s3.333.948 4.429 1.775c1.227.935 2.127 2.207 2.696 3.817.57 1.615.855 3.678.855 6.193v9.211c0 2.545-.285 4.612-.855 6.201-.569 1.593-1.469 2.861-2.696 3.807-1.111.844-2.574 1.439-4.394 1.785-1.82.349-4.638.522-8.456.522zm-35.665-33.443c5.237 0 8.804.777 10.698 2.329 1.894 1.554 2.84 4.389 2.84 8.501 0 2.857-.422 4.978-1.264 6.37-.844 1.389-2.258 2.322-4.24 2.796 1.746.413 3.056 1.147 3.928 2.197.872 1.052 1.309 2.411 1.309 4.084v6.768h-10.096v-5.039c0-1.301-.307-2.197-.922-2.684-.615-.489-1.823-.731-3.628-.731h-15.048v8.454h-10.118v-33.045zm-67.344 0c5.045 0 8.716.885 11.008 2.651 2.294 1.768 3.441 4.582 3.441 8.445v11.363c0 3.671-.917 6.35-2.753 8.045-1.835 1.692-4.748 2.541-8.744 2.541h-31.934v-33.045zm445.323 8.055h-26.03v4.996h24.522v6.945h-24.522v5.058h26.433v7.991h-36.51v-33.045h36.107zm-56.73 24.99h-10.075v-24.944h-13.825v-8.101h37.728v8.101h-13.828zm-91.096 0h-10.099v-11.874l-18.219-21.171h12.406l10.852 13.139 11.362-13.139h11.963l-18.265 21.171zm164.76 0h-9.807v-33.045h14.888l11.785 20.639 11.984-20.639h14.694v33.045h-9.766v-23.546l-13.648 23.546h-6.59l-13.54-23.546zm-315.107 0h-9.809v-33.045h14.891l11.785 20.639 11.984-20.639h14.691v33.045h-9.765v-23.546l-13.649 23.546h-6.59l-13.538-23.546zm-126.598-16.088h14.958v8.454h-14.958zm85.186 8.231h6.413c3.567 0 5.935-.448 7.103-1.342 1.169-.896 1.753-2.556 1.753-4.984v-4.681c0-2.427-.584-4.089-1.753-4.983-1.168-.896-3.536-1.344-7.103-1.344h-6.458c-3.639 0-6.024.453-7.158 1.355-1.13.903-1.697 2.619-1.697 5.149v4.593c0 2.385.596 4.019 1.786 4.906 1.193.888 3.562 1.331 7.114 1.331zm-108.822-17.044h-15.823v16.867h17.087c2.147 0 3.714-.435 4.705-1.31.992-.872 1.487-2.242 1.487-4.105v-5.816c0-1.937-.602-3.361-1.807-4.27-1.208-.911-3.089-1.366-5.649-1.366zm70.051.089h-16.046v8.077h16.046c1.346 0 2.29-.314 2.829-.941.541-.63.812-1.766.812-3.407 0-1.303-.29-2.249-.866-2.842-.578-.591-1.502-.887-2.775-.887z"/><g fill-rule="nonzero"><path d="m.012 76.589 29.645-.033c12.129 0 21.958-11.009 21.958-24.573 0-13.591-9.829-24.6-21.958-24.6l-7.699.047c-.607 0-1.099-.559-1.099-1.247s.492-1.248 1.099-1.248l29.592.008.012-10.43h-29.61c-5.725 0-10.382 5.225-10.382 11.643 0 6.425 4.656 11.629 10.382 11.629l7.735.115c6.949 0 12.573 6.296 12.573 14.063 0 7.773-5.623 14.084-12.573 14.084h-29.663l-.012 10.542z"/><path d="m.024 63.598h29.663c5.743 0 10.388-5.203 10.388-11.635 0-6.425-4.645-11.623-10.388-11.623l-7.735-.094c-6.938 0-12.566-6.303-12.566-14.09 0-7.766 5.628-14.07 12.566-14.07l29.61-.007-.012-10.47h-29.592c-12.116 0-21.958 10.996-21.958 24.574s9.842 24.58 21.958 24.58l7.657.013c.582 0 1.075.533 1.075 1.207 0 .661-.493 1.193-1.075 1.193l-29.603.027.012 10.395zm74.575 2.515c-5.143 0-9.356-4.605-9.356-10.484v-33.269c0-5.656 4.213-10.308 9.356-10.308l31.644.006v-10.449h-31.644c-10.297 0-18.639 9.337-18.639 20.866v33.155c0 11.529 8.342 20.879 18.639 20.879l31.512.015-.006-10.423z"/><path d="m67.512 22.475c0-4.409 3.157-7.982 7.087-7.982h31.644v10.463h-27.263c-2.184 0-2.214 2.434-2.214 2.434h22.745v10.416h-32.01zm7.087 41.104c-3.918 0-7.099-3.553-7.099-7.949v-15.344h32.01v10.437h-22.745c.03 2.453 2.214 2.466 2.214 2.466h27.131l-.006 10.376zm53.819 2.508c-5.125 0-9.314-4.692-9.314-10.458v-33.155c0-5.771 4.159-10.423 9.289-10.423h30.649v-10.442h-30.72c-10.293 0-18.634 9.337-18.634 20.866v33.155c0 11.529 8.413 20.879 18.705 20.879l30.649.015v-49.134h-26.339v10.416h17.031v28.281z"/><path d="m121.288 55.629c0 4.418 3.181 8.01 7.105 8.01h19.144v-23.367h-14.811v10.451h5.497l.017 2.453h-5.472c-1.195 0-2.172-1.111-2.172-2.453l-.05-23.34s-.006-2.427 2.197-2.488h26.309l-.012-10.409-30.648.007c-3.898 0-7.105 3.603-7.105 7.982v33.154m66.554-41.292c.424-1.362 1.577-2.28 2.862-2.28s2.437.918 2.862 2.28l14.878 49.376h-21.785l.024-11.615h7.28l-3.278-10.942-10.675 35.359h-10.982z"/><path d="m211.443 66.087h-24.749v10.428h37.663l-19.588-65.104c-1.716-6.35-7.374-11.022-14.073-11.022-6.708 0-12.349 4.651-14.078 10.996l-19.767 65.131h9.86l19.192-63.311c.801-2.161 2.692-3.576 4.777-3.573 2.081.004 3.968 1.409 4.782 3.56z"/></g></g></svg>