<?xml version="1.0" encoding="UTF-8" standalone="no"?><!DOCTYPE svg PUBLIC "-//W3C//DTD SVG 1.1//EN" "http://www.w3.org/Graphics/SVG/1.1/DTD/svg11.dtd"><svg width="100%" height="100%" viewBox="0 0 600 128" version="1.1" xmlns="http://www.w3.org/2000/svg" xmlns:xlink="http://www.w3.org/1999/xlink" xml:space="preserve" xmlns:serif="http://www.serif.com/" style="fill-rule:evenodd;clip-rule:evenodd;stroke-linejoin:round;stroke-miterlimit:2;"><g id="sega_genesis"><g><path id="polygon15" d="M402.422,88.875l61.112,-0l0,24.321l-21.822,14.757l-67.456,0l22.347,-14.97l39.49,0l0,-9.143l-61.112,0l-0,-23.804l22.559,-15.274l67.348,0l-22.247,14.962l-40.219,-0l-0,9.151Z" style="fill:#fff;"/><rect id="polygon17" x="472.06" y="64.762" width="27.437" height="63.191" style="fill:#fff;"/><path id="polygon19" d="M537.534,88.875l61.112,-0l0,24.321l-21.83,14.757l-67.448,0l22.347,-14.97l39.495,0l-0,-9.143l-61.113,0l0,-23.804l22.551,-15.274l67.352,0l-22.246,14.962l-40.22,-0l-0,9.151Z" style="fill:#fff;"/><path id="polygon21" d="M315.538,112.983l0,-9.143l26.288,0l22.346,-14.965l-48.634,-0l0,-9.151l39.591,-0l22.247,-14.962l-65.374,0l-23.904,14.657l-0,48.534l66.519,0l22.446,-14.97l-61.525,0Z" style="fill:#fff;"/><path id="polygon23" d="M123.471,112.983l-0,-9.143l26.295,0l22.342,-14.965l-48.637,-0l-0,-9.151l39.595,-0l22.242,-14.962l-65.374,0l-23.9,14.657l-0,48.534l66.515,0l22.451,-14.97l-61.529,0Z" style="fill:#fff;"/><path id="polygon25" d="M252.968,106.96l-34.088,-21.205l-0,42.198l-27.441,0l0,-63.191l27.853,0l33.676,18.498l0,-18.498l27.441,0l-0,63.191l-27.441,0l0,-20.993Z" style="fill:#fff;"/><path id="polygon27" d="M27.437,79.724l-0,33.259l34.088,0l0,-9.143l-27.853,0l22.242,-14.965l33.052,-0l-0,24.945l-20.997,14.133l-67.969,0l-0,-47.805l22.759,-15.386l74.416,0l-22.138,14.962l-47.6,-0Z" style="fill:#fff;"/></g><g><path d="M219.249,49.056l21.342,-0.021c8.732,-0 15.808,-7.055 15.808,-15.748c0,-8.709 -7.076,-15.765 -15.808,-15.765l-5.543,0.031c-0.436,-0 -0.791,-0.359 -0.791,-0.799c0,-0.441 0.355,-0.8 0.791,-0.8l21.304,0.005l0.009,-6.684l-21.317,0c-4.121,0 -7.475,3.348 -7.475,7.462c0,4.117 3.353,7.452 7.475,7.452l5.569,0.073c5.003,0 9.051,4.035 9.051,9.013c0,4.981 -4.048,9.025 -9.051,9.025l-21.356,-0l-0.008,6.756Z" style="fill:#fff;fill-rule:nonzero;"/><path d="M219.257,40.731l21.356,-0c4.134,-0 7.478,-3.335 7.478,-7.457c0,-4.117 -3.344,-7.448 -7.478,-7.448l-5.569,-0.06c-4.994,-0 -9.047,-4.04 -9.047,-9.03c0,-4.977 4.053,-9.017 9.047,-9.017l21.317,-0.004l-0.009,-6.709l-21.304,-0c-8.722,-0 -15.808,7.047 -15.808,15.748c0,8.701 7.086,15.751 15.808,15.751l5.513,0.009c0.419,-0 0.773,0.342 0.773,0.773c0,0.424 -0.354,0.765 -0.773,0.765l-21.312,0.017l0.008,6.662Zm53.689,1.612c-3.703,-0 -6.736,-2.951 -6.736,-6.719l0,-21.32c0,-3.625 3.033,-6.606 6.736,-6.606l22.781,0.004l-0,-6.696l-22.781,-0c-7.413,-0 -13.419,5.983 -13.419,13.371l0,21.247c0,7.389 6.006,13.381 13.419,13.381l22.686,0.009l-0.005,-6.679l-22.681,0.008Z" style="fill:#fff;fill-rule:nonzero;"/><path d="M267.844,14.377c-0,-2.825 2.272,-5.115 5.102,-5.115l22.781,0l-0,6.705l-19.627,0c-1.572,0 -1.594,1.56 -1.594,1.56l16.374,0l0,6.675l-23.044,-0l0.008,-9.825Zm5.102,26.341c-2.821,0 -5.111,-2.276 -5.111,-5.094l0,-9.833l23.045,0l-0,6.689l-16.375,-0c0.022,1.572 1.594,1.58 1.594,1.58l19.532,0l-0.004,6.649l-22.681,0.009Zm38.745,1.608c-3.69,-0 -6.705,-3.007 -6.705,-6.702l0,-21.247c0,-3.699 2.994,-6.68 6.687,-6.68l22.065,0l-0,-6.691l-22.116,-0c-7.41,-0 -13.415,5.983 -13.415,13.371l-0,21.247c-0,7.389 6.057,13.381 13.466,13.381l22.065,0.009l-0,-31.487l-18.962,0l-0,6.675l12.261,-0l-0,18.124l-15.346,-0Z" style="fill:#fff;fill-rule:nonzero;"/><path d="M306.558,35.624c0,2.831 2.29,5.133 5.115,5.133l13.782,0l0,-14.974l-10.663,-0l0,6.697l3.958,-0l0.012,1.572l-3.939,0c-0.86,0 -1.564,-0.712 -1.564,-1.572l-0.035,-14.958c-0,0 -0.005,-1.555 1.581,-1.594l18.94,0l-0.008,-6.67l-22.065,0.004c-2.806,0 -5.115,2.309 -5.115,5.115l0,21.247m47.914,-26.461c0.306,-0.874 1.135,-1.462 2.061,-1.462c0.925,-0 1.754,0.588 2.06,1.462l10.711,31.641l-15.683,0l0.017,-7.443l5.241,-0l-2.36,-7.012l-7.686,22.659l-7.906,0l13.545,-39.845Z" style="fill:#fff;fill-rule:nonzero;"/><path d="M371.462,42.326l-17.816,-0l-0,6.682l27.114,0l-14.102,-41.721c-1.235,-4.069 -5.309,-7.063 -10.131,-7.063c-4.83,-0 -8.891,2.981 -10.136,7.047l-14.231,41.738l7.099,-0l13.817,-40.572c0.577,-1.385 1.938,-2.292 3.439,-2.29c1.498,0.002 2.857,0.903 3.443,2.281l11.504,33.898Z" style="fill:#fff;fill-rule:nonzero;"/></g></g></svg>