<svg clip-rule="evenodd" fill-rule="evenodd" stroke-linejoin="round" stroke-miterlimit="2" viewBox="0 0 600 193" xmlns="http://www.w3.org/2000/svg"><g fill="#fff"><path d="m106.793 139.595c0 29.489-23.906 53.396-53.395 53.396-29.491 0-53.398-23.907-53.398-53.396 0-29.491 23.907-53.398 53.398-53.398 29.489 0 53.395 23.907 53.395 53.398zm-103.502-.001c0 27.675 22.436 50.107 50.107 50.107 27.672 0 50.101-22.432 50.101-50.107 0-27.671-22.429-50.107-50.101-50.107-27.671 0-50.107 22.436-50.107 50.107z"/><path d="m13.843 112.157h3.115c-.571.759-1.119 1.536-1.643 2.331-1.201 1.82-2.275 3.733-3.211 5.725-.436 4.041-.193 8.327.702 12.701.183.899.394 1.8.632 2.704.624 2.36 1.431 4.738 2.423 7.102.261-1.049.575-2.107.924-3.167.077.08.161.159.24.234-.35 1.205-.65 2.411-.882 3.604 3.061 7.053 7.732 14.002 13.917 20.183 4.424 4.423 9.238 8.069 14.204 10.909 3.18-.397 6.445-1.224 9.703-2.467 1.04.862 2.133 1.663 3.272 2.4-2.66 1.139-5.337 2.018-7.984 2.629 7.335 3.351 14.81 4.928 21.692 4.657 1.698-.708 3.344-1.515 4.931-2.416l4.768-.003c-.614.422-1.237.83-1.871 1.225-3.554 2.209-7.422 3.97-11.516 5.198-4.39 1.315-9.045 2.036-13.861 2.036-26.591 0-48.15-21.557-48.15-48.148 0-5.543.949-10.86 2.674-15.815 1.446-4.166 3.452-8.071 5.921-11.622zm39.555 73.046c-12.598 0-24.003-5.099-32.252-13.357-8.26-8.255-13.361-19.654-13.361-32.252 0-2.652.24-5.24.668-7.765.936 5.976 3.033 12.142 6.259 18.144-.51 8.17 1.761 15.646 7.076 20.96 5.176 5.175 12.397 7.461 20.304 7.113 5.751 3.295 11.687 5.547 17.477 6.727-2.017.275-4.076.43-6.171.43zm-16.729-10.624c-5.594-.599-10.62-2.751-14.451-6.582-4.331-4.329-6.526-10.182-6.746-16.661 3.022 5.309 6.909 10.463 11.633 15.189 3.036 3.037 6.254 5.723 9.564 8.054zm-12.696-73.085c3.058-2.365 6.41-4.369 9.991-5.95 1.435-.64 2.911-1.203 4.421-1.702 4.726-1.547 9.766-2.397 15.013-2.397 26.593 0 48.145 21.558 48.147 48.149 0 4.508-.634 8.871-1.794 13.008-.338 1.196-.703 2.382-1.123 3.538-1.743 4.759-4.216 9.164-7.282 13.081h-3.27c5.347-6.252 9.023-13.964 10.365-22.454-.583-4.338-1.838-8.795-3.723-13.222-.989-2.327-2.144-4.648-3.483-6.937.086 3.836-.491 7.869-1.677 11.94.267.218.505.459.729.716.897 1.019 1.445 2.341 1.445 3.809 0 3.197-2.594 5.794-5.796 5.794-.234 0-.458-.017-.687-.045-2.557 4.634-5.906 9.13-10.022 13.246-2.203 2.204-4.516 4.19-6.901 5.951-1.296-.432-2.541-.974-3.727-1.615 2.837-1.942 5.581-4.212 8.164-6.798 3.805-3.794 6.915-7.943 9.313-12.217-.383-.346-.721-.744-1.002-1.18-.585-.905-.936-1.981-.936-3.136 0-3.204 2.595-5.8 5.798-5.8.143 0 .277.012.414.022 2.047-7.061 2.117-14.001.039-19.865-1.116-3.149-2.852-5.988-5.234-8.369-1.183-1.182-2.478-2.205-3.869-3.072-2.95-1.839-6.329-2.977-9.964-3.443.105.063.209.127.313.192l.118.072c.36.223.717.45 1.073.681-.265-.166-.529-.329-.793-.49-.255-.156-.511-.31-.766-.463-2.342-.297-4.789-.315-7.294-.063-1.384.139-2.785.361-4.198.665-.218-.084-.438-.165-.659-.244 2.898-.778 5.77-1.238 8.556-1.372.583-.027 1.163-.041 1.738-.04h-.001.002c-7.029-3.856-14.329-6.075-21.211-6.572-5.769 1.181-11.14 3.448-15.891 6.582h-4.336zm74.729 43.323c-.832-3.803-2.124-7.656-3.862-11.469-1.039-2.289-2.242-4.563-3.605-6.801-.167-6.968-2.499-13.271-7.141-17.918-4.789-4.787-11.333-7.106-18.562-7.145-6.252-3.574-12.729-5.918-18.995-6.986 2.235-.34 4.524-.513 6.861-.513 12.599 0 23.991 5.099 32.249 13.356 5.494 5.495 9.58 12.383 11.706 20.084 1.07 3.876 1.653 7.952 1.653 12.169 0 1.769-.109 3.505-.304 5.223z"/><path d="m89.716 171.155h-13.876c-.01 0-.029.006-.047.006-7.055-.006-13.41-2.851-18.036-7.471-3.929-3.935-6.58-9.12-7.285-14.926 10.894-1.716 19.223-11.145 19.223-22.527 0-12.599-10.206-22.801-22.802-22.809h-25.238c-2.335 2.054-4.467 4.329-6.371 6.795h31.609c4.432 0 8.416 1.785 11.321 4.693 2.908 2.906 4.693 6.888 4.695 11.321-.002 4.438-1.787 8.419-4.695 11.327-2.905 2.902-6.889 4.691-11.321 4.691h-3.395v3.395c0 15.737 11.249 28.833 26.147 31.707l13.582-.011c2.352-1.86 4.521-3.931 6.489-6.191z" fill-rule="nonzero"/><path d="m475.428 140.69c-.353-9.917-5.764-15.424-11.043-18.02-5.431-2.739-10.737-2.768-10.833-2.768h-32.564l-3.637 3.617h8.16v34.359l-7.826.01 3.598 3.618h32.241c.2.028.401.019.888.028 2.08-.009 7.168-.286 11.968-2.987 4.582-2.568 8.723-7.645 9.048-16.216h.02v-1.641zm-3.588.868c-.277 15.567-13.658 16.178-17.438 16.34-.515 0-.754-.01-.754-.01h-24.233v-34.369h24.175c.545.01 4.887.22 9.172 2.376 4.524 2.386 8.877 6.519 9.078 15.663" fill-rule="nonzero"/><path d="m534.083 145.198c0-3.455-2.52-5.498-4.734-6.271-2.243-.849-4.477-.896-5.393-.896h-20.263l3.694 3.626s16.407-.019 16.569-.019c.687 0 2.606.105 4.123.678 1.565.696 2.32 1.259 2.368 2.968v12.599s-22.287.019-22.287 0c-2.243.009-7.664-.316-12.283-2.558-4.677-2.358-8.542-6.128-8.6-14.192v-.754c.058-8.104 3.961-11.922 8.657-14.27 4.648-2.271 10.069-2.567 12.283-2.567h.02c.649 0 24.929-.019 24.929-.019l3.618-3.617h-28.509c-2.434 0-8.361.286-13.906 2.939-5.546 2.577-10.728 8.008-10.719 17.38v1.041c-.009 9.315 5.135 14.727 10.652 17.323 5.526 2.653 11.434 2.911 13.935 2.921h25.846z" fill-rule="nonzero"/><path d="m596.373 157.893h-39.819c-7.645 0-6.853-4.085-7.216-4.801l.048-10.698h43.493v-3.628h-43.493v-10.661c.315-.534-.535-4.285 7.197-4.581h39.79l3.627-3.627s-37.367 0-43.446.01c0 0-.038-.01-.086-.01-4.753 0-7.665 1.689-9.163 3.732-1.499 2.014-1.565 4.009-1.565 4.486v25.13c.028.477.066 2.539 1.575 4.553 1.488 2.024 4.4 3.723 9.143 3.713h43.513z" fill-rule="nonzero"/><path d="m406.548 157.893h-39.809c-7.635 0-6.862-4.085-7.225-4.801l.048-10.698h43.493v-3.628h-43.493v-10.661c.315-.534-.535-4.285 7.196-4.581h34.274l12.159-12.159h-5.84l-8.524 8.532s-28.089 0-32.088.01c-.028-.01-.038-.01-.096-.01-4.724 0-7.664 1.689-9.152 3.732-1.48 2.014-1.547 4.009-1.547 4.486v25.13c0 .477.067 2.539 1.565 4.553 1.499 2.024 4.41 3.723 9.134 3.713h43.523z" fill-rule="nonzero"/><path d="m197.73 119.166h9.382v42.854h-9.382z"/><g fill-rule="nonzero"><path d="m276.33 162.017h-10.996l-33.118-34.694v34.694h-9.087v-42.854h11.205l33.005 34.704v-34.704h8.991z"/><path d="m342.441 162.017h-31.382c-7.788 0-14.058-2.29-18.602-6.824-4.037-4.009-6.069-8.943-6.069-14.631s2.166-10.575 6.441-14.546c4.878-4.553 11.74-6.853 20.406-6.853h29.206l-4.782 4.792h-24.729c-5.555 0-9.926 1.699-12.942 5.096-2.673 3.006-4.037 6.901-4.037 11.577 0 4.639 1.364 8.514 4.037 11.578 2.892 3.283 6.939 4.972 12.054 4.972h21.103v-10.374c0-1.785-.467-3.045-1.422-3.742-.878-.629-2.386-.935-4.801-.935h-12.942l-4.61-4.639h21.685c4.448 0 7.521.583 9.096 1.747 1.527 1.06 2.29 3.198 2.29 6.385z"/><path d="m168.181 150.699h.725c8.714 0 15.777-7.063 15.777-15.777 0-8.695-7.063-15.757-15.777-15.757h-32.527l-9.525-9.898h-9.803l13.363 14.193v38.559h9.182v-11.32h18.516l18.534 19.222h9.984zm-3.923-4.648h-24.662v-22.238h24.662c6.147 0 11.138 4.972 11.138 11.119 0 6.146-4.991 11.119-11.138 11.119z"/><path d="m32.073 72.538 28.144-.033c11.515 0 20.846-10.45 20.846-23.328 0-12.902-9.331-23.354-20.846-23.354l-7.309.045c-.576 0-1.043-.531-1.043-1.184s.467-1.184 1.043-1.184l28.093.006.011-9.901h-28.11c-5.434 0-9.856 4.96-9.856 11.054 0 6.099 4.421 11.04 9.856 11.04l7.344.108c6.597 0 11.936 5.978 11.936 13.352 0 7.379-5.338 13.37-11.936 13.37h-28.161z"/><path d="m32.085 60.204h28.161c5.452 0 9.862-4.94 9.862-11.046 0-6.1-4.41-11.034-9.862-11.034l-7.344-.089c-6.586 0-11.93-5.984-11.93-13.377 0-7.373 5.344-13.357 11.93-13.357l28.11-.007-.011-9.939h-28.093c-11.502 0-20.846 10.439-20.846 23.329s9.344 23.335 20.846 23.335l7.27.013c.552 0 1.019.506 1.019 1.145 0 .628-.467 1.133-1.019 1.133l-28.105.026zm70.798 2.388c-4.882 0-8.882-4.372-8.882-9.953v-31.584c0-5.37 4-9.786 8.882-9.786l30.041.005v-9.919h-30.041c-9.776 0-17.695 8.864-17.695 19.809v31.476c0 10.945 7.919 19.822 17.695 19.822l29.916.013-.006-9.895z"/><path d="m96.155 21.164c0-4.186 2.997-7.578 6.728-7.578h30.041v9.933h-25.882c-2.073 0-2.102 2.311-2.102 2.311h21.593v9.888h-30.389zm6.728 39.022c-3.72 0-6.739-3.373-6.739-7.546v-14.567h30.388v9.908h-21.592c.028 2.329 2.102 2.341 2.102 2.341h25.756l-.006 9.85zm51.093 2.381c-4.865 0-8.842-4.455-8.842-9.928v-31.476c0-5.479 3.948-9.895 8.819-9.895h29.096v-9.913h-29.164c-9.771 0-17.69 8.864-17.69 19.809v31.476c0 10.945 7.987 19.822 17.758 19.822l29.096.013v-46.645h-25.005v9.888h16.168v26.849z"/><path d="m147.208 52.639c0 4.193 3.019 7.604 6.745 7.604h18.174v-22.183h-14.061v9.921h5.218l.017 2.329h-5.195c-1.134 0-2.063-1.055-2.063-2.329l-.046-22.158s-.006-2.304 2.085-2.361h24.977l-.012-9.883-29.096.007c-3.7 0-6.745 3.421-6.745 7.578v31.475m63.183-39.201c.404-1.293 1.497-2.165 2.718-2.165 1.22 0 2.314.872 2.717 2.165l14.124 46.875h-20.681l.022-11.027h6.911l-3.111-10.388-10.135 33.569h-10.426z"/><path d="m232.796 62.567h-23.495v9.9h35.755l-18.595-61.807c-1.63-6.028-7.002-10.463-13.361-10.463-6.369 0-11.724 4.415-13.365 10.439l-18.766 61.832h9.361l18.219-60.104c.762-2.053 2.556-3.395 4.535-3.393 1.976.004 3.768 1.337 4.541 3.38z"/></g></g></svg>