<svg clip-rule="evenodd" fill-rule="evenodd" stroke-linejoin="round" stroke-miterlimit="2" viewBox="0 0 600 250" xmlns="http://www.w3.org/2000/svg"><g fill="#fff"><path d="m410 140.726h-220v109h220zm-70.827 99.133c0 2.062-1.65 3.917-3.711 3.917h-3.918c-2.061 0-3.711-1.855-3.711-3.917v-8.041c0-2.061 1.65-3.917 3.711-3.917h3.918c2.061 0 3.711 1.856 3.711 3.917 0 0-.035 1.625 0 2.062h-4.536c0-2.062 0-2.68-.928-2.68s-.928.618-.928 2.68v3.711c0 2.062 0 2.68.934 2.68.922 0 .922-.618.922-2.68h4.536zm38.554-11.958v3.505h-4.33v2.474h3.711v3.505h-3.711v2.68h4.33v3.505h-9.278v-15.669zm5.979 0 2.68 7.835v-7.835h4.536v15.669h-4.536l-3.092-8.453v8.453h-4.536v-15.669zm18.556 0v3.505h-2.681v12.164h-4.948v-12.164h-2.68v-3.505zm-197.926 0 1.955 8.041 1.962-8.041h6.185v15.669h-4.535v-9.484l-2.681 9.484h-1.855l-2.68-9.484v9.484h-4.536v-15.669zm43.915 0h6.803l3.093 15.669h-4.948l-.412-2.886h-2.268l-.413 2.886h-4.948zm55.46 0h6.804l3.092 15.669h-4.948l-.412-2.886h-2.268l-.412 2.886h-4.948zm-59.584 0v15.669h-4.948v-15.669zm74.841 7.216v8.453h-4.536v-15.669h4.948l2.68 7.835v-7.835h4.536v15.669h-4.536zm37.729-7.216 2.171 8.041 2.159-8.041h5.979v15.669h-4.536v-9.484l-2.68 9.484h-1.856l-2.68-9.278v9.278h-4.536v-15.669zm-77.727 0 2.681 7.835v-7.835h4.535v15.669h-4.535l-3.093-8.453v8.453h-4.536v-15.669zm-53.811 0v3.505h-4.329v2.474h3.711v3.505h-3.711v2.68h4.329v3.505h-9.277v-15.669zm120.199 9.484v2.68h4.33v3.505h-9.278v-15.669h9.278v3.505h-4.33v2.474h3.711v3.505zm-52.78 6.185h-4.948v-15.669h4.948v5.979h2.062v-5.979h4.948v15.669h-4.948v-6.185h-2.062zm-66.182 0v-15.669h5.979c5.361 0 5.361 3.711 5.361 3.711v8.247s0 3.711-4.124 3.711zm42.266-6.185v2.68h4.329v3.505h-9.277v-15.669h9.277v3.505h-4.329v2.474h3.711v3.505zm-35.462-3.505c.008-2.066-.412-2.474-2.062-2.474v8.659c1.65 0 2.062-.412 2.062-2.474zm73.191 3.299h1.444l-.72-5.979zm-55.46 0h1.443l-.728-5.979zm151.537-18.968v5.773h-204.936v-5.773zm-119.609-4.003h28.77c11.759 0 21.328-9.946 21.328-22.163 0-12.216-9.569-22.102-21.328-22.102h-7.501c-.591 0-1.066-.49-1.066-1.105 0-.675.473-1.166 1.066-1.166h28.712l.06-9.333h-28.772c-5.554 0-10.044 4.667-10.044 10.438 0 5.833 4.488 10.56 10.044 10.56h7.501c6.735 0 12.231 5.712 12.231 12.71 0 6.999-5.496 12.647-12.231 12.647h-28.77zm86.455-25.236c-5.221-.518-9.302-5.067-9.302-10.597v-31.7h-21.687c.013 1.894.09 33.119.09 34.592 0 17.858 13.743 32.397 30.899 32.941zm7.779 24.501-3.519-25.005c-.742.257-1.525.429-2.332.504v25.236c2.002-.06 3.958-.311 5.851-.735zm-135.867-10.284 36.565-56.514v67.533h-80.259l43.694-67.533zm145.255 6.491-10.602-22.35c-.385.257-.786.485-1.204.688l5.681 24.536c2.152-.737 4.203-1.704 6.125-2.874zm7.305-6.105-15.678-18.254c-.364.436-.764.845-1.191 1.215l12.033 21.478c1.754-1.307 3.375-2.798 4.836-4.439zm-110.927-1.031h28.77c5.614 0 10.105-4.727 10.105-10.499 0-5.771-4.49-10.498-10.105-10.498h-7.501c-6.734 0-12.171-5.771-12.171-12.77 0-7 5.438-12.647 12.171-12.647h28.77l-.059-9.455h-28.714c-11.756 0-21.267 9.884-21.267 22.163 0 12.217 9.511 22.102 21.267 22.102h7.444c.59 0 1.064.491 1.064 1.105s-.473 1.105-1.064 1.105h-28.712zm116.14-6.863-19.402-12.701c-.198.424-.425.836-.673 1.227l17.275 16.316c1.062-1.522 1.998-3.141 2.8-4.842zm2.84-9.388-21.33-6.466c-.076.576-.197 1.14-.359 1.683l20.281 10.621c.633-1.876 1.11-3.825 1.408-5.838zm.612-8.445c.006-.235.012-.496.017-.79l-22.01-.135c0 .018.001.036 0 .053h.069c.047.373.071.749.079 1.132l21.57 4.605c.21-1.797.233-3.489.275-4.865zm.017-31.173h-21.687v28.668h21.687z"/><path d="m402.422 89.376h61.112v24.321l-21.822 14.758h-67.456l22.347-14.97h39.49v-9.143h-61.112v-23.804l22.559-15.274h67.348l-22.247 14.961h-40.219z"/><path d="m472.06 65.264h27.437v63.191h-27.437z"/><path d="m537.534 89.376h61.112v24.321l-21.83 14.758h-67.448l22.347-14.97h39.495v-9.143h-61.113v-23.804l22.551-15.274h67.352l-22.246 14.961h-40.22z"/><path d="m315.538 113.485v-9.143h26.288l22.346-14.966h-48.634v-9.151h39.591l22.247-14.961h-65.374l-23.904 14.657v48.534h66.519l22.446-14.97z"/><path d="m123.471 113.485v-9.143h26.295l22.342-14.966h-48.637v-9.151h39.595l22.242-14.961h-65.374l-23.9 14.657v48.534h66.515l22.451-14.97z"/><path d="m252.968 107.462-34.088-21.205v42.198h-27.441v-63.191h27.853l33.676 18.498v-18.498h27.441v63.191h-27.441z"/><path d="m27.437 80.225v33.26h34.088v-9.143h-27.853l22.242-14.966h33.052v24.946l-20.997 14.133h-67.969v-47.805l22.759-15.386h74.416l-22.138 14.961z"/><g fill-rule="nonzero"><path d="m219.249 49.558 21.342-.022c8.732 0 15.808-7.055 15.808-15.747 0-8.71-7.076-15.765-15.808-15.765l-5.543.03c-.436 0-.791-.358-.791-.799s.355-.799.791-.799l21.304.004.009-6.683h-21.317c-4.121 0-7.475 3.348-7.475 7.461 0 4.118 3.353 7.452 7.475 7.452l5.569.074c5.003 0 9.051 4.035 9.051 9.012 0 4.982-4.048 9.026-9.051 9.026h-21.356z"/><path d="m219.257 41.233h21.356c4.134 0 7.478-3.335 7.478-7.457 0-4.117-3.344-7.448-7.478-7.448l-5.569-.061c-4.994 0-9.047-4.039-9.047-9.029 0-4.977 4.053-9.017 9.047-9.017l21.317-.004-.009-6.71h-21.304c-8.722 0-15.808 7.047-15.808 15.748s7.086 15.752 15.808 15.752l5.513.009c.419 0 .773.341.773.773 0 .424-.354.765-.773.765l-21.312.017zm53.689 1.611c-3.703 0-6.736-2.951-6.736-6.718v-21.321c0-3.624 3.033-6.606 6.736-6.606l22.781.004v-6.696h-22.781c-7.413 0-13.419 5.984-13.419 13.372v21.247c0 7.388 6.006 13.381 13.419 13.381l22.686.009-.005-6.68z"/><path d="m267.844 14.879c0-2.825 2.272-5.115 5.102-5.115h22.781v6.705h-19.627c-1.572 0-1.594 1.56-1.594 1.56h16.374v6.674h-23.044zm5.102 26.341c-2.821 0-5.111-2.277-5.111-5.094v-9.833h23.045v6.688h-16.375c.022 1.573 1.594 1.581 1.594 1.581h19.532l-.004 6.649zm38.745 1.607c-3.69 0-6.705-3.007-6.705-6.701v-21.248c0-3.698 2.994-6.679 6.687-6.679h22.065v-6.692h-22.116c-7.41 0-13.415 5.984-13.415 13.372v21.247c0 7.388 6.057 13.381 13.466 13.381l22.065.009v-31.487h-18.962v6.674h12.261v18.124z"/><path d="m306.558 36.126c0 2.83 2.29 5.133 5.115 5.133h13.782v-14.975h-10.663v6.697h3.958l.012 1.573h-3.939c-.86 0-1.564-.713-1.564-1.573l-.035-14.957s-.005-1.555 1.581-1.594h18.94l-.008-6.671-22.065.005c-2.806 0-5.115 2.309-5.115 5.115v21.247m47.914-26.462c.306-.873 1.135-1.462 2.061-1.462.925 0 1.754.589 2.06 1.462l10.711 31.642h-15.683l.017-7.444h5.241l-2.36-7.012-7.686 22.66h-7.906z"/><path d="m371.462 42.827h-17.816v6.683h27.114l-14.102-41.721c-1.235-4.07-5.309-7.063-10.131-7.063-4.83 0-8.891 2.98-10.136 7.046l-14.231 41.739h7.099l13.817-40.572c.577-1.386 1.938-2.292 3.439-2.29 1.498.002 2.857.902 3.443 2.281z"/></g></g></svg>