<svg clip-rule="evenodd" fill-rule="evenodd" stroke-linejoin="round" stroke-miterlimit="2" viewBox="0 0 600 111" xmlns="http://www.w3.org/2000/svg"><g fill="#fff"><path d="m95.709 63.859h-95.709v45.347h95.709zm-30.778 5.029h-11.415v34.747h11.415zm8.247 17.939c-.269 2.823-2.637 5.03-5.515 5.03-.247 0-.489-.017-.728-.049l-.027 11.779c.985-.007 1.494-.048 2.261-.048 9.294 0 16.861-7.433 17.143-16.712zm-44.694 10.773 19.776-29.413v35.148h-19.776-23.632l23.632-35.148zm57.446-14.981-13.014 1.903c.134.402.223.825.262 1.262h13.134c-.03-1.083-.162-2.141-.382-3.165zm-1.974-5.077-11.632 5.734c.133.208.253.425.358.651l12.77-3.072c-.384-1.164-.887-2.273-1.496-3.313zm-3.177-3.951-9.501 8.479c.227.197.44.414.633.645l11.178-6.509c-.68-.948-1.456-1.825-2.31-2.615zm-4.109-2.82-6.61 10.494c.221.107.435.23.639.364l8.491-9.343c-.792-.575-1.634-1.081-2.52-1.515zm-4.886-1.536-3.365 11.537c.3.041.594.106.876.194l5.528-10.969c-.977-.343-1.991-.6-3.039-.762zm-4.395-.33c-.122-.004-.258-.007-.411-.009l-.07 11.903c.009.001.018 0 .027 0v-.037c.195-.025.39-.038.59-.043l2.396-11.666c-.935-.113-1.816-.126-2.532-.148z"/><path d="m330.224 109.769h20.689l-29.399-42.731c-.827-1.62-1.691-2.732-2.517-3.391-.854-.68-1.727-.969-2.581-.969h-28.18v47.091h17.577v-11.755s1.472 2.659 1.472 2.659h16.665s6.274 9.096 6.274 9.096zm-172.7-46.091v-1h-19.055c-.853 0-1.727.289-2.581.969-.835.666-1.709 1.796-2.545 3.447.001-.002-23.916 39.727-23.916 39.727l-1.774 2.948h18.24l19.824-33.705c.249-.235.476-.402.737-.402h3.404s-20.532 34.107-20.532 34.107h18.227l17.489-29.052v29.052h17.577v-47.091h-22.477c-.853 0-1.727.289-2.581.969zm75.959 17.115v24.757c0 1.386.447 2.39 1.142 3.083.693.691 1.698 1.136 3.084 1.136h45.627c1.386 0 2.391-.445 3.084-1.136.695-.693 1.142-1.697 1.142-3.083v-25.819h-21.395l-6.514 12.984h10.332v4.069h-18.925v-14.718s2.666-6.376 2.666-6.376l.018-.028h31.537v-12.984h-40.728c-2.034 0-3.311.83-4 2.171 0-.001-6.276 11.373-6.276 11.373-.543 1.082-.794 2.132-.794 3.18v.329h-31.637s1.69-4.041 1.69-4.041l.018-.028h29.255v-12.984h-38.446c-2.034 0-3.312.83-4 2.171 0-.001-6.276 11.373-6.276 11.373-.543 1.082-.794 2.132-.794 3.18v30.367h49.516v-12.985h-31.939v-4.069h26.632zm-79.848-9.02h-7.181c-1.203 0-2.451.505-3.654 1.704l-.177.176-18.954 32.227h-9.136l22.219-36.909.033-.066c.377-.751.746-1.357 1.123-1.808.125-.149.248-.278.372-.382.074-.062.116-.149.189-.149h15.166zm3.087 0 1.701-2.798.035-.07c.377-.751.746-1.357 1.123-1.808.125-.149.247-.278.372-.382.074-.062.116-.149.189-.149h18.588v39.314h-9.799v-39.163l-23.576 39.163h-9.149s20.532-34.107 20.532-34.107zm149.973 19.805 2.882 5.206h16.415s6.274 9.096 6.274 9.096h11.251l-25.357-36.856-.06-.119c-.377-.751-.746-1.357-1.122-1.808-.125-.149-.248-.278-.373-.382-.074-.062-.115-.149-.189-.149h-24.291v39.314h9.799v-34.107h4.226c1.203 0 2.451.505 3.654 1.704l.126.126 12.417 17.975zm-107.769-2.752h-1.945v11.847h31.939v5.207h-41.738v-26.478c0-.458.123-.912.347-1.369.001-.002 6.273-11.368 6.273-11.368.032-.063.073-.045.107-.054.134-.033.286-.045.454-.045h34.557v5.207h-25.432c-1.516 0-2.691.698-3.449 2.209l-.03.06-4.004 9.578h31.709s-2.612 5.206-2.612 5.206c-5.279 0-26.176 0-26.176 0zm84.716 17.022c-.084.014-.21.032-.306.032h-45.627c-.096 0-.222-.018-.306-.032-.014-.084-.031-.206-.031-.298v-26.148c0-.458.123-.912.347-1.369.001-.002 6.273-11.368 6.273-11.368.032-.063.073-.045.107-.054.134-.033.286-.045.454-.045h36.839v5.207h-27.714c-1.516 0-2.691.698-3.449 2.209l-.03.06-3.028 7.243v19.388h26.703v-11.847h-7.919s2.612-5.206 2.612-5.206h15.106v21.93c0 .092-.017.214-.031.298zm31.292-18.159h-9.121v-12.027h.337c.278 0 .518.189.786.448 0 .001 7.998 11.579 7.998 11.579z"/><path d="m433.225 84.363 15.881 26.326h36.158v-48.981h-18.082v48l-9.88-17.349s8.574-9.99 8.574-9.99l.524-2.104-.46-1.846-6.301-13.245c-1.22-2.448-2.887-3.466-4.705-3.466h-39.791v48.981h18.082zm70.962-6.479v-16.176h-18.081v18.557c0 1.972.304 3.441.795 4.427l.047.094 16.596 25.903h25.781l16.597-25.903.047-.094c.491-.986.795-2.455.795-4.427v-18.557h-18.081v16.176s-12.248 17.921-12.248 17.921zm61.5 15.005h27.644l6.669-13.382h-33.344s1.804-4.345 1.804-4.345l.046-.072h30.297v-13.382h-39.791c-2.077 0-3.384.847-4.087 2.226.001-.001-6.507 11.87-6.507 11.87-.554 1.113-.812 2.195-.812 3.274v31.611h51.197v-13.382h-33.116zm-165.748-31.181h-41.565v48.981h41.565c1.818 0 3.485-1.018 4.697-3.451l.005-.011c.006-.011 9.259-19.177 9.259-19.177l.461-1.852-.461-1.851-9.259-19.178c-1.217-2.443-2.884-3.461-4.702-3.461zm190.985 27.292s-29.126.021-29.126.021v12.175h33.116v5.604h-43.419c0-6.598 0-27.722 0-27.722 0-.492.131-.981.371-1.473.001-.002 6.504-11.865 6.504-11.865.041-.082.1-.081.157-.095.144-.036.306-.049.485-.049h35.902v5.605h-26.44c-1.545 0-2.743.714-3.515 2.264l-.03.059-4.099 9.872h32.887s-2.793 5.604-2.793 5.604zm-171.892-23.404h35.902c.551 0 .843.547 1.209 1.28 0 .001 6.118 12.862 6.118 12.862s.131.527.131.527-.067.27-.067.27-9.758 11.369-9.758 11.369l8.484 14.896h-9.75s-7.688-12.744-11.255-18.657h3.653c1.416 0 2.443-.455 3.151-1.166l.04-.04 5.563-6.279-2.839-7.121-.036-.073c-.772-1.549-1.97-2.263-3.514-2.263h-16.728v35.599h-10.304zm62.343 41.204h-10.304c0-7.405 0-33.798 0-41.204h10.304zm18.923-28.315v.601l16.137 23.611 16.137-23.611v-13.49h10.303v14.669c0 1.141-.082 2.017-.349 2.613-.001 0-15.328 23.922-15.328 23.922h-21.527s-14.24-22.225-15.327-23.922c-.267-.596-.35-1.472-.35-2.613v-14.669h10.304zm-138.035-12.889h37.676c.551 0 .843.549 1.21 1.285.001.001 9.074 18.795 9.074 18.795s.13.522.13.522-.13.522-.13.522-9.073 18.794-9.073 18.794c-.367.737-.659 1.286-1.211 1.286h-37.676zm10.303 5.605v29.995h18.503c1.54 0 2.704-.68 3.475-2.071l.033-.059 5.134-11.03.458-1.838-.459-1.842-5.117-10.872c-.782-1.569-1.98-2.283-3.524-2.283zm18.47 3.889c.019.028.043.065.06.097 0 .001 4.932 10.48 4.932 10.48s.133.531.133.531-.134.536-.134.536-4.908 10.544-4.908 10.544c-.013.017-.028.029-.05.029h-14.614v-22.217zm42.189 9.164h10.474c.145 0 .353-.039.42-.053l3.835-4.329s-1.881-4.718-1.882-4.719l-.04-.063h-12.807z"/><g fill-rule="nonzero"><path d="m217.449 50.506 21.818-.022c8.927 0 16.161-7.212 16.161-16.098 0-8.904-7.234-16.116-16.161-16.116l-5.666.031c-.447 0-.809-.366-.809-.817s.362-.817.809-.817l21.778.004.009-6.832h-21.792c-4.213 0-7.641 3.422-7.641 7.627 0 4.21 3.428 7.619 7.641 7.619l5.693.075c5.115 0 9.253 4.124 9.253 9.213 0 5.092-4.138 9.226-9.253 9.226h-21.831z"/><path d="m217.458 41.996h21.831c4.227 0 7.645-3.41 7.645-7.623 0-4.209-3.418-7.615-7.645-7.615l-5.693-.061c-5.105 0-9.248-4.13-9.248-9.231 0-5.088 4.143-9.218 9.248-9.218l21.792-.004-.009-6.859h-21.778c-8.917 0-16.16 7.204-16.16 16.099s7.243 16.103 16.16 16.103l5.635.008c.429 0 .791.35.791.791 0 .433-.362.782-.791.782l-21.787.017zm54.885 1.647c-3.785 0-6.886-3.017-6.886-6.868v-21.796c0-3.705 3.101-6.753 6.886-6.753l23.289.004v-6.845h-23.289c-7.578 0-13.717 6.117-13.717 13.67v21.72c0 7.553 6.139 13.679 13.717 13.679l23.191.009-.004-6.828z"/><path d="m267.127 15.055c0-2.889 2.323-5.23 5.216-5.23h23.289v6.855h-20.065c-1.607 0-1.629 1.594-1.629 1.594h16.739v6.824h-23.558zm5.216 26.928c-2.884 0-5.225-2.328-5.225-5.208v-10.052h23.558v6.837h-16.739c.022 1.608 1.63 1.616 1.63 1.616h19.967l-.005 6.797zm39.609 1.643c-3.772 0-6.855-3.074-6.855-6.851v-21.721c0-3.781 3.061-6.828 6.837-6.828h22.556v-6.841h-22.609c-7.575 0-13.714 6.117-13.714 13.67v21.72c0 7.553 6.192 13.679 13.767 13.679l22.556.009v-32.189h-19.385v6.824h12.534v18.528z"/><path d="m306.705 36.775c0 2.894 2.34 5.247 5.229 5.247h14.089v-15.308h-10.901v6.846h4.046l.012 1.608h-4.027c-.879 0-1.599-.728-1.599-1.608l-.036-15.29s-.004-1.59 1.617-1.63h19.362l-.008-6.819-22.557.004c-2.868 0-5.229 2.361-5.229 5.23v21.72m48.982-27.051c.312-.893 1.16-1.495 2.106-1.495s1.794.602 2.107 1.495l10.949 32.347h-16.033l.018-7.61h5.358l-2.412-7.168-7.857 23.164h-8.083l13.847-40.733z"/><path d="m373.055 43.626h-18.214v6.831h27.718l-14.415-42.65c-1.264-4.161-5.428-7.221-10.358-7.221-4.937 0-9.088 3.047-10.361 7.204l-14.548 42.668h7.257l14.124-41.476c.59-1.416 1.982-2.343 3.516-2.341 1.532.002 2.921.923 3.52 2.332z"/></g></g></svg>