<svg clip-rule="evenodd" fill-rule="evenodd" stroke-linejoin="round" stroke-miterlimit="2" viewBox="0 0 600 118" xmlns="http://www.w3.org/2000/svg"><g fill="#fff"><g fill-rule="nonzero"><path d="m381.848 40.653c3.54-7.099 1.661-5.755 9.097-5.774h65.578c.504-.058.967.307 1.029.811-.01.271-.171.515-.416.632-.245.118-1.186.89-1.522 1.187-1.145 1.002-2.022 2.273-2.552 3.698-.125.451-.192.916-.197 1.384-.006.468 0 17.601 0 26.065 0 6.072 2.788 9.355 8.741 10.581 8.405 1.76 15.01-3.382 15.168-12.004.139-7.911 0-15.821 0-23.732.052-2.45-1.038-4.791-2.947-6.328-.336-.297-1.522-1.187-1.522-1.187-.245-.117-.405-.361-.416-.633.062-.503.525-.868 1.029-.811.504.058 34.668-.118 51.28 0 3.002.056 5.983.522 8.859 1.385 4.778 1.157 8.246 5.354 8.484 10.264.475 6.308-1.859 11.035-6.882 13.388-2.096.855-4.243 1.581-6.427 2.176 2.571 3.678 5.142 7.534 7.91 11.272 2.844 3.836 6.76 6.747 11.253 8.365 1.424.554 2.63.455 2.611-1.424 0-9.65 0-19.301-.277-28.932-.213-4.653-2.367-9.009-5.933-12.004-.953-.95-1.851-1.954-2.69-3.006-.176-.218-.272-.49-.272-.77 0-.673.554-1.227 1.226-1.227.072 0 .143.007.213.019 4.202 1.058 8.289 2.529 12.202 4.39 10.738 5.439 19.776 13.231 28.933 20.963 1.404 1.187 3.302 2.868 4.884 4.173 0 0 .376.336.554.336s.158-.376.158-.376v-22.643c.041-.402-.035-.807-.217-1.167-.98-1.138-2.222-2.02-3.619-2.571-.629-.162-1.071-.735-1.068-1.384 0-1.088 1.087-1.187 1.74-1.187h12.42c.652 0 1.661 0 1.74 1.187.01.651-.435 1.228-1.068 1.384-1.397.551-2.639 1.433-3.619 2.571-.182.36-.258.765-.218 1.167v43.923c.02.366-.163.716-.474.909-.305.082-.632-.01-.851-.237l-36.704-28.695c-.082-.039-.176-.039-.257 0-.119 0-.178.198-.178.395v21.596c0 3.065.83 5.221 3.816 6.309h.218c.573.276.85.652.831 1.067-.02.416-.653.93-1.523 1.128h-.475c-8.932.71-17.914-.497-26.342-3.54-10.283-4.074-15.682-12.301-18.945-22.308-1.405-4.272-1.187-4.489 3.322-4.489 6.328 0 9.295-2.907 9.413-9.216.119-6.882-2.946-10.501-9.176-10.758h-2.373c-3.698.138-4.746 1.167-4.746 4.924v32.255c-.319 2.923 1.387 5.714 4.133 6.764l.593.237s1.404.415 1.226 1.602-1.839 1.187-1.839 1.187h-23.731s-1.681 0-1.859-1.187 1.246-1.602 1.246-1.602l.692-.277.277-.158.257-.138c2.287-1.265 3.652-3.74 3.5-6.349v-30.613c.216-2.184-1.023-4.269-3.045-5.122-2.18-1.289-4.94-1.116-6.942.435-1.049 1.228-1.618 2.795-1.602 4.41-.158 7.594 0 15.188 0 22.782.02 1.987-.132 3.972-.454 5.933-.785 5.477-4.781 9.981-10.126 11.411-7.595 2.428-15.776 2.337-23.316-.257-8.069-2.808-11.866-8.366-11.866-16.869 0-6.329-.138-12.677 0-18.986.228-2.84-1.478-5.504-4.153-6.486-4.57-1.923-9.46-2.97-14.417-3.085v36.052c-.179 2.798 1.073 5.505 3.323 7.179 1.7 1.206 2.314 2.294 1.977 2.65-.336.356-1.641.277-1.641.277h-40.739s-1.721 0-1.978-1.227c-.257-1.226 1.286-1.641 1.286-1.641l.731-.297.277-.158c1.968-1.036 2.749-3.496 1.741-5.478-3.54-7.91-7.238-15.821-11.016-24.186-.573 1.008-1.028 1.72-1.424 2.472-3.619 7.139-7.139 14.338-11.094 21.398-1.246 2.353-1.444 4.232.692 6.111 0 0 1.226 1.028 1.088 1.779-.178 1.088-1.088 1.187-1.741 1.187h-16.295c-.178-5.933-.455-8.247-.455-8.247.455-.771 1.107-1.839 1.523-2.63 6.724-12.459 13.448-24.905 20.172-37.337.988-1.82 1.779-4.233 4.37-4.114s2.947 2.591 3.777 4.39c6.118 13.264 12.209 26.547 18.274 39.849.72 2.405 2.733 4.211 5.201 4.668.331.075.669.113 1.009.113 2.474 0 4.522-2.01 4.568-4.484.098-12.578 0-25.135 0-37.713 0-.139-.119-.277-.277-.574-5.987.14-11.866 1.62-17.206 4.331l-1.384.772c-1.028.692-2.195.751-2.61.138-.251-.329-.297-.773-.119-1.147z"/><path d="m127.427 67.727c.949-.771 2.413.356 2.413.356 3.599 2.571 7.08 5.3 10.659 7.91 3.363 2.626 7.627 3.827 11.866 3.343 2.338-.278 4.587-1.068 6.585-2.314 3.145-1.978 3.362-5.182.673-7.911-1.786-1.711-3.779-3.193-5.933-4.41-3.184-1.977-6.645-3.342-9.789-5.28-3.239-1.764-6.265-3.894-9.018-6.348-6.19-6.111-4.312-14.931 3.955-17.799 3.719-1.312 7.626-2.013 11.569-2.076 7.021-.159 14.061.375 21.101.593 8.86.257 17.799.573 26.56.712 7.594.119 15.188 0 22.782 0 2.086-.333 4.108.984 4.647 3.026.662 1.607 1.421 3.172 2.275 4.687 7.633-6.181 17.394-9.129 27.172-8.207 1.184.05 2.362.202 3.52.454 2.767.756 5.718.445 8.267-.87 2.373-1.167 3.243-.652 4.074 1.8 1.206 3.5 2.412 7.02 3.461 10.58l.257.811c.157.56-.011 1.164-.435 1.562-.754.365-1.661.214-2.255-.375l-.455-.396c-1.384-1.187-2.492-2.67-3.955-3.856-4.955-4.579-11.749-6.637-18.412-5.577-4.383.431-8.029 3.623-9.037 7.91-1.572 5.985-1.968 12.217-1.167 18.353.283 3.372.994 6.695 2.116 9.888 1.603 4.557 5.934 7.625 10.764 7.625 1.578 0 3.138-.327 4.582-.961 3.637-1.198 6.064-4.677 5.933-8.503-.226-3.621-2.816-6.687-6.348-7.515-3.532-.829-1.286-.436-1.503-.475l-.811-.257c-.413-.184-.681-.596-.681-1.048 0-.625.511-1.141 1.136-1.147s10.56 0 16.572 0c2.664.233 5.198-1.258 6.289-3.698 4.153-7.792 8.464-15.525 12.736-23.277.297-.554.574-1.127.91-1.661 1.977-2.907 4.687-2.809 6.21.316 1.522 3.125 2.946 6.467 4.41 9.71 4.608 10.126 9.196 20.271 13.843 30.396 1.463 3.184 3.026 6.289 6.625 7.693.633.156 1.078.733 1.068 1.385 0 1.107-1.088 1.186-1.74 1.186-5.142.079-10.284.079-15.426 0s-1.72 0-1.977-1.226 1.285-1.641 1.285-1.641c4.094-1.582 4.331-3.263 2.393-7.555l-10.086-22.288c-.455.653-.811 1.108-1.088 1.602-3.836 7.251-7.66 14.503-11.47 21.754-1.641 3.144-1.503 3.718.771 6.309l.89.949c.195.217.303.499.303.791 0 .651-.536 1.187-1.187 1.187-.002 0-.004 0-.006 0h-19.677c-1.659-.035-3.317.111-4.944.435-11.707 2.61-22.584 1.107-32.591-6.25-.593 1.187-1.305 2.393-1.8 3.679-.45 1.391-1.83 2.28-3.283 2.116h-45.525s-1.443 0-1.601-1.029c-.159-1.028 1.068-1.384 1.068-1.384l.731-.316c3.283-1.385 3.323-1.978 3.323-5.577 0-8.623-.119-17.245 0-25.868.35-2.903-1.268-5.71-3.956-6.862-4.415-1.868-8.963-3.409-13.606-4.608-3.437-.692-6.935-1.036-10.442-1.028-2.123-.378-4.23.839-4.963 2.867-.58 2.066.33 4.279 2.195 5.34 1.977 1.483 4.212 2.769 6.388 4.054 4.37 2.571 8.879 4.885 13.091 7.653 4.953 2.875 8.078 8.12 8.247 13.844.452 4.487-2.117 8.768-6.289 10.481-3.095 1.379-6.395 2.24-9.769 2.551-4.292.356-8.662-.237-13.013-.197-3.534.019-7.066.217-10.58.593-1.572.493-3.282-.277-3.955-1.78-1.978-3.955-4.292-7.732-6.507-11.569-1.562-2.67-.435-3.362-.435-3.362zm68.584 8.227c.494 9.117 24.503 1.76 28.3-4.114-5.001-7.723-5.001-17.709 0-25.432-3.797-5.933-27.806-13.25-28.3-4.133v12.162c0 1.237 1.018 2.255 2.255 2.255.299.007.597-.054.87-.178 4.607-2.033 9.051-4.42 13.289-7.139l.435-.317c.258-.274.661-.361 1.009-.217.272.184.424.503.395.83v18.194c.029.328-.123.646-.395.831-.348.143-.751.056-1.009-.218l-.435-.316c-4.212-2.73-8.628-5.13-13.21-7.179-.273-.124-.571-.185-.87-.178-1.23-.044-2.281.926-2.334 2.156z"/><path d="m338.756.705c.952-.224 1.916-.396 2.887-.514h.257c.5-.138 1.034.073 1.305.514.131.353.055.75-.197 1.029l-2.512 1.977c-45.09 31.326 50.548 82.685-26.421 113.951h-.257c-.457.243-1.024.154-1.384-.218-.2-.32-.2-.728 0-1.048.617-.787 1.277-1.539 1.977-2.254l4.312-4.371c28.636-27.924-22.071-65.064-4.608-92.058 6.126-8.216 14.787-14.194 24.641-17.008z"/></g><path d="m36.324 89.854-.304.046c-10.608 1.266-15.905.796-21.581.444-5.674-.352-5.617-3.075-5.571-4.235.045-1.164 1.082-3.847 5.342-4.118 1.521-.199 7.404.212 13.398.098 2.477 3.019 5.419 5.644 8.716 7.765z"/><path d="m19.372 54.279c-1.875 1.153-3.523 2.295-4.853 3.301-2.386 1.803-5.358 5.051-5.239 7.608 0 0 2.728 1.093 11.133-.755v.001c.197-.039.857-.164 1.911-.391l-.002-.015c3.65-.779 7.933-1.943 13-3.447 4.257-1.255 9.634-3 16.265-5.165l16.614-5.444c6.282-2.096 11.311-3.632 15.22-4.75 1.547-.445 3.091-.829 4.585-1.157l.001.002c.663-.146 1.317-.281 1.957-.405l-.001-.002c2.667-.517 5.095-.851 6.997-1.032 2.37-.225 9.271-.832 12.899 2.562 3.167 2.962 2.054 9.27-.999 13.86-2.847 4.283-7.12 9.218-18.257 14.605 1.588-3.544 2.639-7.381 3.049-11.406 7.253-4.959 9.174-9.516 9.336-11.53-2.598-.471-6.686.075-10.543.889l.003.025c-.976.174-6.721 1.687-6.721 1.687-3.842 1.047-8.797 2.585-14.87 4.608l-16.616 5.444-.15.049c-6.285 2.095-11.523 3.758-15.709 5.046-.245.076-.474.147-.684.211-1.496.422-2.936.811-4.318 1.17-3.262.849-6.179 1.528-8.767 2.085l-.001-.002c-.67.145-1.318.281-1.941.41-5.093.984-18.188 3.002-21.875-3.303-1.441-2.463-.904-6.577 1.437-10.204 2.34-3.628 3.82-5.006 7.313-7.887 3.494-2.882 7.628-5.216 10.838-6.841.6-.304 1.286-.641 2.04-1.001-1.567 3.475-2.616 7.233-3.052 11.174z"/><path d="m19.372 54.279c-1.875 1.153-3.523 2.295-4.853 3.301-2.386 1.803-5.358 5.051-5.239 7.608 0 0 2.728 1.093 11.133-.755v.001c.197-.039.857-.164 1.911-.391l-.002-.015c3.65-.779 7.933-1.943 13-3.447 4.257-1.255 9.634-3 16.265-5.165l16.614-5.444c6.282-2.096 11.311-3.632 15.22-4.75 1.547-.445 3.091-.829 4.585-1.157l.001.002c.663-.146 1.317-.281 1.957-.405l-.001-.002c2.667-.517 5.095-.851 6.997-1.032 2.37-.225 9.271-.832 12.899 2.562 3.167 2.962 2.054 9.27-.999 13.86-2.847 4.283-7.12 9.218-18.257 14.605 1.588-3.544 2.639-7.381 3.049-11.406 7.253-4.959 9.174-9.516 9.336-11.53-2.598-.471-6.686.075-10.543.889l.003.025c-.976.174-6.721 1.687-6.721 1.687-3.842 1.047-8.797 2.585-14.87 4.608l-16.616 5.444-.15.049c-6.285 2.095-11.523 3.758-15.709 5.046-.245.076-.474.147-.684.211-1.496.422-2.936.811-4.318 1.17-3.262.849-6.179 1.528-8.767 2.085l-.001-.002c-.67.145-1.318.281-1.941.41-5.093.984-18.188 3.002-21.875-3.303-1.441-2.463-.904-6.577 1.437-10.204 2.34-3.628 3.82-5.006 7.313-7.887 3.494-2.882 7.628-5.216 10.838-6.841.6-.304 1.286-.641 2.04-1.001-1.567 3.475-2.616 7.233-3.052 11.174z"/><path d="m91.771 53.575c.216 1.584.328 3.201.328 4.845 0 19.65-15.954 35.603-35.604 35.603-14.154 0-26.391-8.278-32.128-20.253.494-.104.99-.211 1.321-.282.004-.001.008-.002.012-.002l1.547-.345c2.611-.563 3.278-.743 6.574-1.601 1.392-.362 2.843-.754 4.351-1.18.013-.003.025-.007.038-.011.212-.065.442-.136.689-.212 4.194-1.291 9.442-2.957 15.739-5.056l.148-.048 16.615-5.444c.003-.001.006-.001.008-.002 6.032-2.01 10.954-3.539 14.771-4.579.188-.049 3.73-.984 5.591-1.433z"/><path d="m21.125 62.509c-.154-1.342-.233-2.706-.233-4.089 0-19.65 15.953-35.603 35.603-35.603 13.823 0 25.816 7.893 31.715 19.418l-.579.123c-1.529.336-3.109.729-4.692 1.184-3.926 1.123-8.977 2.666-15.287 4.77 0 0-16.608 5.443-16.608 5.443-6.612 2.158-11.972 3.899-16.216 5.15-.001 0-.002.001-.003.001-5.016 1.488-9.255 2.642-12.868 3.413-.073.015-.144.035-.212.06-.22.047-.429.09-.62.13z"/><path d="m77.248 27.367c2.128-.246 4.208-.438 6.245-.575 5.515-.349 9.772-.349 14.241.141 1.117.071 2.792.629 3.561 1.535.696.839 1.045 1.886.905 3.074-.139 1.114-.627 2.024-1.536 2.792-.907.697-2.969 1.005-4.413.906-1.293-.089-6.028-.411-10.615-.176-2.385-2.971-5.214-5.571-8.388-7.697z"/></g></svg>