<svg clip-rule="evenodd" fill-rule="evenodd" stroke-linejoin="round" stroke-miterlimit="2" viewBox="0 0 600 582" xmlns="http://www.w3.org/2000/svg"><g fill="#fff" fill-rule="nonzero"><path d="m2.878 351.113c0-3.352-.637-7.694-2.118-9.518 9.698 0 30.653.064 39.636.064 20.667 0 51.845 11.471 51.845 50.139 0 28.701-22.009 50.084-51.845 50.084-6.544 0-31.532-.076-40.396-.076 1.819-3.355 2.878-7.907 2.878-11.5zm14.861 80.95c9.539 1.234 18.345 1.615 26.312.475 7.709-1.1 33.611-6.676 33.45-41.069-.154-32.592-20.279-40.038-35.789-40.952-8.093-.477-15.906-.175-23.973 1.225zm83.016-59.672 14.85-2.319v13.075c3.809-9.411 15.658-16.974 32.501-10.421l-3.949 10.336c-15.414-7.313-28.552-.896-28.552 16.22v35.322c0 1.679.364 5.075 1.37 7.251h-15.425c1.559-1.92 2.278-5.572 2.278-7.251v-50.951c0-3.696-.751-9.417-3.073-11.262zm469.458 7.086v45.116c0 14.157 9.761 17.946 16.995 17.946 3.061.152 7.388-.564 10.415-1.237l1.865-8.741c-3.53 1.344-7.63 1.664-10.086 1.664-4.534 0-7.813-3.009-7.813-7.714 0-4.225-.108-45.634 0-46.961h-.05c.605 0 10.008-.032 10.956 0 3.088.11 5.456.3 7.493 1.117l.012-8.232-18.414-.023.072-21.115-13.688 3.783c1.891 1.763 2.502 6.931 2.502 10.336l-.008 7.071c-.617 0-7.56.032-8.713.032v6.958zm-59.148 47.706c5.884 4.202 15.115 7.933 21.886 7.933 9.394 0 16.116-4.569 16.116-13.168 0-15.877-36.198-13.249-36.198-33.392 0-13.619 12.179-18.74 23.787-18.74 3.727 0 12.242.809 17.66 2.904l-.046 9.3c-4.808-4.109-12.149-5.104-16.986-5.104-7.682 0-13.444 3.809-13.444 11.282 0 10.974 36.165 10.339 36.165 32.857 0 14.561-12.62 21.353-26.504 21.353-6.768 0-13.819-1.202-19.695-2.881zm-218.484-47.563c0-.824.032-8.201.032-9.146l-15.033 2.325c1.81 1.897 3.201 7.822 3.201 12.053v49.263c0 1.679-.719 5.756-2.278 7.676h16.391c-1.559-1.92-2.278-5.997-2.278-7.676v-37.068c0-13.56 8.389-18.306 16.738-18.306 7.557 0 14.387 3.271 14.387 18.306v37.068c0 1.679-.722 5.756-2.278 7.676h15.897c-1.56-1.92-2.279-5.997-2.279-7.676v-37.068c0-15.035 9.292-18.306 16.858-18.306 7.554 0 15.46 4.743 15.46 18.306v37.068c0 1.679-.718 5.756-2.278 7.676h15.304c-1.56-1.92-2.279-5.997-2.279-7.676v-44.104c0-7.516-7.665-19.558-25.579-19.558-10.417 0-16.432 4.633-21.001 8.622-3.885-4.533-10.211-8.788-20.373-8.788-9.908 0-15.754 5.803-18.612 9.333zm-35.449 23.108c-2.145 2.016-6.638 3.585-11.277 4.193-12.184 1.598-22.738 3.623-22.738 15.493 0 7.039 7.671 12.583 13.752 12.583 16.104 0 20.266-11.617 20.266-20.772v-11.497zm-38.04-29.048c6.146-2.464 16.066-3.593 22.282-3.593 15.883 0 26.434 7.935 26.434 26.358v30.558c0 5.663.085 11.02 2.104 14.785h-12.769l-.457-8.037c-4.836 6.239-10.609 9.033-20.416 9.033-19.343 0-23.568-13.217-23.568-19.573 0-22.666 21.575-22.933 30.942-24.266 5.183-.736 11.855-2.2 12.856-7.06 1.656-8.04-4.094-14.067-15.836-14.067-8.616 0-15.676 2.619-21.572 6.149zm274.42 29.048c-2.144 2.016-6.64 3.585-11.279 4.193-12.181 1.598-22.738 3.623-22.738 15.493 0 7.039 7.67 12.583 13.752 12.583 16.104 0 20.265-11.617 20.265-20.772zm-38.039-29.048c6.146-2.464 16.066-3.593 22.282-3.593 15.882 0 26.434 7.935 26.434 26.358v30.558c0 5.663-1.234 10.906 2.101 14.785h-12.769l-.457-8.037c-4.836 6.239-10.61 9.033-20.413 9.033-19.34 0-23.568-13.217-23.568-19.573 0-22.666 21.574-22.933 30.941-24.266 5.186-.736 11.859-2.2 12.857-7.06 1.653-8.04-4.095-14.067-15.836-14.067-8.617 0-15.676 2.619-21.572 6.149zm-13.59 9.373c-4.792-2.796-12.353-5.016-17.625-5.016-18.511 0-26.996 11.386-26.996 27.784 0 16.246 8.29 28.684 26.399 28.684 6.207 0 14.658-2.785 21.214-6.815l-2.669 11.951c-6.672 1.984-12.297 2.93-19.744 2.93-25.448 0-37.373-18.045-37.373-36.823 0-20.759 15.999-35.353 37.65-35.353 9.463 0 16.374 2.322 19.165 3.114zm-284.852 23.638c.009-1.717.236-3.352.431-4.935h49.234c0-16.928-8.462-31.448-28.518-31.448-20.815 0-33.171 16.278-33.171 37.041 0 18.778 13.759 35.551 37.321 35.551 7.449 0 13.68-1.836 20.402-4.187l2.365-12.004c-5.75 4.734-15.047 7.537-23.434 7.537-15.082-.003-24.7-10.918-24.63-27.555zm1.988-12.443c1.597-8.238 9.216-16.625 18.336-16.625 13.935 0 17.969 10.875 17.969 16.628-.003-.003-36.305.02-36.305-.003z"/><path d="m122.817 581.147 46.829-.048c19.159 0 34.686-15.479 34.686-34.552 0-19.11-15.527-34.591-34.686-34.591l-12.162.066c-.958 0-1.735-.786-1.735-1.753s.777-1.754 1.735-1.754l46.744.01.019-14.665h-46.773c-9.043 0-16.4 7.346-16.4 16.372 0 9.034 7.356 16.351 16.4 16.351l12.219.161c10.978 0 19.861 8.853 19.861 19.776 0 10.929-8.882 19.802-19.861 19.802h-46.857z"/><path d="m122.836 562.88h46.857c9.072 0 16.409-7.317 16.409-16.362 0-9.034-7.337-16.342-16.409-16.342l-12.219-.133c-10.958 0-19.85-8.863-19.85-19.813 0-10.919 8.892-19.784 19.85-19.784l46.773-.01-.019-14.72h-46.744c-19.139 0-34.686 15.461-34.686 34.553s15.547 34.563 34.686 34.563l12.096.018c.919 0 1.697.75 1.697 1.697 0 .93-.778 1.678-1.697 1.678l-46.763.038zm117.803 3.536c-8.125 0-14.78-6.475-14.78-14.742v-46.78c0-7.954 6.655-14.495 14.78-14.495l49.985.009v-14.692h-49.985c-16.267 0-29.443 13.129-29.443 29.339v46.62c0 16.212 13.176 29.359 29.443 29.359l49.776.02-.01-14.655z"/><path d="m229.443 505.055c0-6.199 4.987-11.224 11.196-11.224h49.985v14.713h-43.065c-3.45 0-3.498 3.422-3.498 3.422h35.928v14.646h-50.564zm11.196 57.797c-6.191 0-11.215-4.995-11.215-11.177v-21.576h50.564v14.676h-35.928c.047 3.45 3.497 3.468 3.497 3.468h42.857l-.01 14.589zm85.013 3.527c-8.095 0-14.712-6.598-14.712-14.705v-46.62c0-8.115 6.569-14.656 14.674-14.656h48.413v-14.682h-48.526c-16.259 0-29.435 13.129-29.435 29.339v46.62c0 16.212 13.29 29.359 29.548 29.359l48.413.02v-69.088h-41.606v14.646h26.903v39.767z"/><path d="m314.39 551.674c0 6.211 5.025 11.263 11.224 11.263h30.24v-32.856h-23.397v14.694h8.684l.027 3.45h-8.644c-1.887 0-3.432-1.563-3.432-3.45l-.077-32.819s-.01-3.412 3.47-3.497h41.558l-.018-14.638-48.414.01c-6.157 0-11.223 5.067-11.223 11.224v46.619m105.131-58.061c.671-1.917 2.491-3.207 4.522-3.207 2.03 0 3.85 1.29 4.521 3.207l23.502 69.428h-34.413l.038-16.333h11.499l-5.177-15.385-16.863 49.719h-17.348z"/><path d="m456.802 566.379h-39.093v14.663h59.493l-30.941-91.544c-2.712-8.929-11.65-15.498-22.231-15.498-10.597 0-19.508 6.54-22.239 15.462l-31.225 91.581h15.576l30.316-89.022c1.266-3.04 4.253-5.028 7.546-5.025 3.287.005 6.269 1.981 7.555 5.006z"/><path d="m354.616 4.998c13.683 2.054 27.656 6.832 34.943 9.062 14.681 4.487 38.514 18.434 46.929 25.124 3.981 3.163 12.353 11.448 15.595 15.618 3.157 4.062 9.19 12.862 13.039 18.284 6.126 8.948 13.34 22.275 19.459 34.541 6.836 13.703 7.305 17.672 9.371 29.129l4.519 20.195c.425 3.492.777 16.302-6.743 18.097-7.516 1.796-14.465-1.673-17.742-6.742-4.534-7.016-3.908-16.974-9.035-28.372-3.999-9.213-5.747-22.602-12.132-32.231l-5.008-8.468c-8.861-13.642-18.097-24.47-23.606-31.533-4.851-5.933-13.909-14-22.497-19.738-7.941-4.816-20.78-10.307-30.04-13.136-2.95-.96-15.58-4.673-23.428-5.718-10.65-1.196-17.658-2.881-27.778-3.594-12.496-.882-18.49-1.993-34.699-.099-6.14 1.665-15.868 2.325-24.624 5.675-7.072 2.883-16.907 7.542-26.542 13.202-10.369 5.686-26.109 17.315-36.547 27.243-10.519 11.242-15.781 17.274-23.035 31.524-3.213 7.051-9.426 17.958-11.931 25.658-1.711 7.816-4.976 22.395-4.426 29.475.247 12.684-.861 15.297.09 25.666.035 9.335 3.099 15.807 4.374 23.443 1.091 5.275 6.152 23.53 9.283 27.767 14.232 30.665 33.336 43.946 54.626 53.526 6 3.055 24.778 8.081 30.211 9.521 9.263 1.671 21.453 2.785 33.186 3.012 12.344.242 29.358-1.432 39.683-5.232 11.174-4.109 24.095-9.949 23.946-9.786 5.186-2.858 13.098-7.523 15.563-9.574 4.763-3.053 7.633-4.234 10.455-7.173 4.071-3.562 6.536-5.614 9.621-10.028 2.27-3.291 4.638-6.514 7.1-9.664 2.858-4.682 4.499-9.618 7.29-15.723 3.337-9.029 2.819-8.596 3.454-18.187.599-2.779-.064-12.12-.568-13.706-1.504-8.62-.972-16.223-2.945-24.592-2.665-11.323-4.88-19.797-8.281-30.66-3.198-12.231-12.592-23.562-19.643-31.655-4.368-5.017-17.919-16.866-36.721-24.266-5.293-1.781-13.959-3.8-19.462-4.804-11.747-1.228-13.659-.44-24.906.384-3.871.675-12.857 2.511-16.159 3.672-9.662 3.393-13.215 5.549-23.091 11.599-4.598 2.669-8.064 4.712-12.763 9.117-3.751 3.472-6.431 9.373-9.469 12.833-4.162 5.663-8.794 13.217-11.902 21.365-3.37 8.105-4.455 19.515-3.943 26.857 0 5.595 1.522 15.839 2.127 18.079.602 2.244 2.116 9.199 2.444 10.595.329 1.394 3.946 8.754 4.444 9.819 2.04 4.341 5.945 10.58 12.525 16.95 4.853 5.302 14.238 10.505 21.263 12.522 6.3 3.457 16.924 4.045 22.802 4.057 2.893-.175 10.281-.629 14.137-1.554 7.819-1.877 9.262-1.927 17.32-5.428 7.232-3.352 12.138-4.559 17.175-8.281 0 0 6.914-5.419 10.057-9.382 1.659-2.092 4.502-12.062 3.995-18.237-.235-8.453.995-13.249-.73-20.204-1.726-6.955-4.671-15.015-7.863-19.983-3.233-5.031-10.185-9.934-18.097-13.837-4.429-2.188-14.925-4.216-19.378-4.743-8.459-1.004-15.533 2.834-19.828 7.226-3.725 4.257-11.087 13.1-8.154 22.243 2.654 8.273 5.858 17.088 18.266 16.433 8.515 1.772 18.365-.8 21.644.71 4.869 2.765 6.74 8.87 4.971 13.127-1.234 8.209-9.097 9.193-17.489 9.818-7.508 1.257-26.577-2.418-30.768-5.558-2.811-1.67-7.115-5.683-10.147-8.392-2.179-1.95-4.647-6.297-6.332-9.42-2.069-3.835-3.114-6.658-3.646-9.157-.631-2.969-1.932-8.634-1.44-14.3.331-3.821 1.356-5.448 2.374-11.035 2.028-6.335 4.548-11.157 8.602-16.651 5.282-5.36 11.989-11.741 18.537-14.707 5.773-3.049 15.888-4.173 25.04-3.637 7.423.71 16.206 1.615 22.011 3.562 9.938 3.55 12.778 4.257 20.934 9.402 6.894 4.266 13.829 12.114 17.699 18.615 8.232 16.846 12.955 35.586 9.521 60.813-.282 4.263-1.609 8.427-4.266 14.069-2.453 5.209-6.757 11.544-13.214 16.314-2.601 2.406-6.702 5.369-10.039 7.103-4.738 2.875-7.924 4.371-12.871 6.856-4.342 2.04-9.402 4.374-16.002 6.207-7.153 2.828-12.641 2.945-21.636 4.286-8.855 2.221-33.08.635-47.511-5.729-9.85-4.141-20.902-11.442-29.304-20.341-4.667-4.892-9.233-13.767-10.574-15.583-6.682-12.845-7.991-24.927-9.062-27.464-1.455-3.449-2.18-11.181-3.155-16.471-1.1-5.931-.419-30.802 5.57-46.766 3.376-6.356 5.352-12.021 7.636-14.998 4.106-5.841 6.091-9.49 9.583-13.631 5.264-6.384 9.096-11.593 14.223-15.265 13.066-10.625 23.982-16.229 38.744-23.242 18.344-7.47 23.853-5.925 41.214-5.649 7.81.067 19.177 2.523 24.764 3.542 10.377 1.382 16.322 3.882 23.341 5.84 7.505 2.095 11.844 5.439 18.001 9.161 5.069 3.273 11.035 7.758 14.975 11.398 10.08 7.391 14.943 15.161 21.12 24.703 1.121 1.6 8.457 17.236 9.627 21.589.541 2.18 2.202 8.439 3.268 12.097 1.37 5.802 2.034 10.941 3.561 17.489 1.368 6.745 3.696 19.482 4.706 31.387 1.696 10.211-1.022 31.055-2.625 37.454-3.571 11.931-9.815 26.493-22.148 40.516-5.238 6.21-10.808 11.023-17.242 16.246-4.92 4.106-9.143 6.495-16.744 11.035-10.324 6.16-18.181 10.095-32.652 15.752-5.893 1.891-13.316 4.379-21.319 6.035-15.501 1.432-31.431 2.805-48.818.739-17.39-2.069-34.809-6.969-45.099-10.13-5.677-2.13-16.677-6.742-21.289-9.224-3-1.525-13.06-8.404-14.768-10.06-6.894-4.266-22.323-18.775-32.283-32.301-2.183-4.179-10.031-16.718-11.734-22.212-4.525-9.291-7.679-20.53-9.533-25.331-1.955-11.206-5.258-18.423-6.547-29.673.148-2.648-.533-8.878-1.132-12.327.876-7.7-.294-14.957 1.234-23.338 1.341-7.074 3.119-10.028 3.541-16.421.413-2.735 3.935-10.962 4.872-14.622 2.84-6.03 3.547-10.997 7.254-17.734 5.343-10.499 10.927-22.578 19.509-33.13 2.45-3.271 9.399-11.119 11.768-13.84 5.598-5.596 8.884-6.48 15.233-12.097.661-.416 4.854-5.197 9.245-6.841 7.278-5.622 13.567-7.685 20.492-12.798 13.881-6.914 18.941-9.248 32.72-14.981 7.962-2.84 19.066-4.411 23.065-5.962 7.606-.472 15.327-2.899 23.329-2.416 8.983-.084 18.036.556 27.063 1.377 6.108.375 14.049.672 24.822 3.009z"/></g></svg>