<svg clip-rule="evenodd" fill-rule="evenodd" stroke-linejoin="round" stroke-miterlimit="2" viewBox="0 0 600 165" xmlns="http://www.w3.org/2000/svg"><g fill="#fff" fill-rule="nonzero"><path d="m153.924 77.865c0-2.505-.476-5.748-1.583-7.111 7.246 0 22.9.048 29.611.048 15.439 0 38.73 8.569 38.73 37.456 0 21.441-16.441 37.414-38.73 37.414-4.889 0-23.556-.056-30.178-.056 1.359-2.507 2.15-5.906 2.15-8.591zm11.102 60.473c7.126.922 13.704 1.206 19.656.354 5.759-.822 25.109-4.987 24.989-30.68-.115-24.347-15.15-29.91-26.737-30.593-6.045-.356-11.882-.13-17.908.915zm62.017-44.578 11.093-1.732v9.767c2.845-7.03 11.697-12.68 24.28-7.785l-2.95 7.722c-11.515-5.463-21.33-.67-21.33 12.117v26.387c0 1.254.272 3.791 1.024 5.417h-11.524c1.165-1.435 1.702-4.163 1.702-5.417v-38.063c0-2.761-.561-7.035-2.295-8.413zm350.705 5.294v33.703c0 10.576 7.291 13.407 12.696 13.407 2.287.113 5.519-.422 7.78-.924l1.393-6.53c-2.637 1.004-5.7 1.243-7.534 1.243-3.387 0-5.837-2.248-5.837-5.763 0-3.156-.081-34.091 0-35.082h-.037c.452 0 7.476-.024 8.185 0 2.306.083 4.076.224 5.597.835l.009-6.15-13.756-.018.054-15.773-10.226 2.826c1.413 1.317 1.87 5.178 1.87 7.721l-.007 5.283c-.461 0-5.648.024-6.508.024v5.198zm-44.186 35.638c4.395 3.139 11.291 5.926 16.35 5.926 7.017 0 12.039-3.413 12.039-9.837 0-11.86-27.041-9.897-27.041-24.945 0-10.174 9.097-14 17.769-14 2.785 0 9.145.605 13.193 2.17l-.035 6.948c-3.591-3.07-9.075-3.813-12.688-3.813-5.74 0-10.044 2.845-10.044 8.428 0 8.197 27.017 7.724 27.017 24.545 0 10.878-9.428 15.952-19.8 15.952-5.056 0-10.323-.898-14.712-2.152zm-163.217-35.532c0-.615.024-6.126.024-6.832l-11.231 1.737c1.353 1.417 2.392 5.843 2.392 9.004v36.801c0 1.255-.537 4.3-1.703 5.735h12.246c-1.165-1.435-1.702-4.48-1.702-5.735v-27.69c0-10.131 6.267-13.676 12.504-13.676 5.646 0 10.748 2.443 10.748 13.676v27.69c0 1.255-.539 4.3-1.703 5.735h11.876c-1.165-1.435-1.702-4.48-1.702-5.735v-27.69c0-11.233 6.941-13.676 12.594-13.676 5.643 0 11.549 3.543 11.549 13.676v27.69c0 1.255-.537 4.3-1.702 5.735h11.433c-1.166-1.435-1.702-4.48-1.702-5.735v-32.947c0-5.615-5.726-14.611-19.109-14.611-7.782 0-12.276 3.461-15.689 6.442-2.902-3.387-7.628-6.566-15.219-6.566-7.402 0-11.77 4.335-13.904 6.972zm-26.482 17.263c-1.603 1.506-4.959 2.678-8.424 3.132-9.102 1.194-16.987 2.707-16.987 11.574 0 5.259 5.73 9.4 10.274 9.4 12.03 0 15.139-8.678 15.139-15.517v-8.589zm-28.417-21.7c4.591-1.841 12.002-2.685 16.645-2.685 11.865 0 19.747 5.929 19.747 19.692v22.827c0 4.231.064 8.233 1.572 11.046h-9.539l-.341-6.004c-3.613 4.66-7.926 6.747-15.252 6.747-14.45 0-17.606-9.873-17.606-14.621 0-16.932 16.117-17.132 23.115-18.128 3.871-.55 8.856-1.644 9.604-5.274 1.237-6.006-3.059-10.509-11.83-10.509-6.437 0-11.711 1.957-16.115 4.594zm205.003 21.7c-1.602 1.506-4.961 2.678-8.426 3.132-9.1 1.194-16.987 2.707-16.987 11.574 0 5.259 5.731 9.4 10.274 9.4 12.03 0 15.139-8.678 15.139-15.517zm-28.417-21.7c4.591-1.841 12.002-2.685 16.645-2.685 11.865 0 19.748 5.929 19.748 19.692v22.827c0 4.231-.922 8.148 1.57 11.046h-9.539l-.342-6.004c-3.613 4.66-7.926 6.747-15.25 6.747-14.447 0-17.606-9.873-17.606-14.621 0-16.932 16.117-17.132 23.115-18.128 3.874-.55 8.859-1.644 9.604-5.274 1.235-6.006-3.058-10.509-11.83-10.509-6.437 0-11.711 1.957-16.115 4.594zm-10.152 7.002c-3.58-2.089-9.228-3.747-13.167-3.747-13.828 0-20.167 8.506-20.167 20.756 0 12.137 6.193 21.428 19.721 21.428 4.637 0 10.95-2.081 15.848-5.092l-1.994 8.929c-4.984 1.482-9.187 2.189-14.749 2.189-19.011 0-27.92-13.481-27.92-27.509 0-15.508 11.952-26.41 28.126-26.41 7.07 0 12.232 1.735 14.317 2.326zm-212.797 17.659c.007-1.283.176-2.505.322-3.687h36.78c0-12.646-6.322-23.493-21.304-23.493-15.55 0-24.78 12.16-24.78 27.671 0 14.028 10.278 26.558 27.88 26.558 5.565 0 10.219-1.371 15.241-3.128l1.767-8.967c-4.295 3.537-11.241 5.63-17.506 5.63-11.267-.002-18.452-8.156-18.4-20.584zm1.485-9.296c1.193-6.154 6.885-12.419 13.698-12.419 10.41 0 13.423 8.124 13.423 12.421-.002-.002-27.121.016-27.121-.002z"/><path d="m77.101 53.961c4.706.707 9.513 2.35 12.019 3.117 5.05 1.544 13.248 6.341 16.142 8.642 1.37 1.088 4.249 3.938 5.365 5.373 1.086 1.397 3.161 4.424 4.485 6.289 2.107 3.077 4.588 7.662 6.693 11.881 2.351 4.713 2.513 6.079 3.223 10.019l1.555 6.947c.146 1.201.267 5.607-2.319 6.225s-4.976-.576-6.103-2.319c-1.56-2.414-1.345-5.839-3.108-9.76-1.376-3.169-1.977-7.774-4.173-11.086l-1.723-2.913c-3.048-4.692-6.225-8.417-8.12-10.846-1.668-2.041-4.784-4.816-7.738-6.79-2.732-1.656-7.148-3.545-10.333-4.518-1.015-.33-5.359-1.608-8.059-1.967-3.663-.411-6.073-.991-9.555-1.236-4.298-.303-6.36-.686-11.935-.034-2.112.572-5.458.8-8.47 1.952-2.432.992-5.816 2.594-9.13 4.541-3.566 1.956-8.98 5.956-12.571 9.371-3.618 3.867-5.428 5.942-7.923 10.843-1.105 2.426-3.242 6.177-4.104 8.826-.589 2.688-1.712 7.703-1.523 10.138.085 4.364-.296 5.262.031 8.829.012 3.211 1.066 5.437 1.505 8.064.375 1.814 2.116 8.093 3.193 9.551 4.895 10.548 11.467 15.116 18.79 18.411 2.064 1.051 8.523 2.78 10.392 3.275 3.186.575 7.379.958 11.414 1.036 4.247.083 10.099-.492 13.651-1.799 3.843-1.414 8.287-3.423 8.236-3.367 1.784-.983 4.506-2.587 5.353-3.293 1.639-1.05 2.626-1.456 3.597-2.467 1.4-1.225 2.248-1.931 3.309-3.449.781-1.132 1.595-2.241 2.442-3.325.983-1.61 1.548-3.308 2.508-5.408 1.148-3.106.97-2.957 1.188-6.256.206-.956-.022-4.169-.195-4.714-.518-2.965-.335-5.58-1.013-8.459-.917-3.895-1.679-6.81-2.849-10.546-1.1-4.207-4.331-8.105-6.756-10.889-1.503-1.725-6.164-5.801-12.631-8.347-1.821-.612-4.802-1.307-6.695-1.652-4.041-.423-4.698-.151-8.567.132-1.331.232-4.422.864-5.558 1.263-3.323 1.167-4.546 1.909-7.943 3.99-1.581.918-2.774 1.62-4.39 3.136-1.29 1.194-2.212 3.224-3.257 4.414-1.432 1.948-3.025 4.546-4.094 7.349-1.159 2.788-1.533 6.713-1.356 9.238 0 1.925.523 5.448.731 6.219.208.772.728 3.164.841 3.644s1.357 3.011 1.529 3.378c.701 1.493 2.045 3.639 4.308 5.83 1.669 1.824 4.897 3.614 7.314 4.307 2.167 1.189 5.821 1.392 7.843 1.396.995-.06 3.537-.217 4.863-.535 2.689-.646 3.186-.663 5.957-1.867 2.488-1.153 4.175-1.568 5.908-2.848 0 0 2.378-1.864 3.459-3.228.571-.719 1.549-4.148 1.375-6.273-.081-2.907.342-4.557-.252-6.949-.593-2.392-1.606-5.165-2.704-6.874-1.112-1.73-3.503-3.417-6.225-4.759-1.524-.753-5.134-1.451-6.665-1.632-2.91-.345-5.344.975-6.821 2.486-1.281 1.464-3.814 4.506-2.805 7.651.913 2.846 2.015 5.877 6.283 5.652 2.929.61 6.317-.275 7.446.245 1.674.95 2.318 3.05 1.709 4.515-.424 2.824-3.129 3.162-6.016 3.377-2.582.432-9.141-.832-10.583-1.912-.967-.574-2.447-1.955-3.49-2.887-.75-.67-1.599-2.166-2.178-3.24-.712-1.319-1.071-2.29-1.254-3.15-.218-1.021-.665-2.969-.496-4.918.114-1.315.467-1.874.817-3.796.698-2.179 1.564-3.838 2.959-5.727 1.817-1.844 4.124-4.039 6.376-5.059 1.986-1.049 5.465-1.436 8.613-1.251 2.554.244 5.574.555 7.571 1.225 3.419 1.221 4.396 1.464 7.201 3.234 2.371 1.467 4.757 4.167 6.088 6.403 2.832 5.794 4.456 12.241 3.275 20.918-.097 1.466-.553 2.899-1.467 4.839-.844 1.792-2.324 3.971-4.546 5.612-.894.828-2.305 1.847-3.453 2.443-1.629.989-2.725 1.504-4.427 2.358-1.494.702-3.234 1.505-5.504 2.135-2.461.973-4.349 1.013-7.442 1.475-3.046.764-11.379.218-16.343-1.971-3.388-1.424-7.19-3.936-10.08-6.997-1.605-1.682-3.176-4.735-3.637-5.36-2.298-4.418-2.749-8.574-3.117-9.447-.501-1.186-.75-3.845-1.085-5.665-.378-2.04-.144-10.595 1.916-16.087 1.161-2.186 1.84-4.134 2.626-5.158 1.413-2.009 2.095-3.265 3.296-4.689 1.811-2.196 3.129-3.988 4.893-5.251 4.494-3.654 8.249-5.582 13.327-7.995 6.31-2.569 8.205-2.038 14.176-1.942 2.687.023 6.597.867 8.518 1.218 3.57.475 5.615 1.335 8.029 2.009 2.581.72 4.074 1.87 6.192 3.151 1.744 1.126 3.796 2.668 5.151 3.92 3.467 2.543 5.14 5.215 7.265 8.497.385.551 2.909 5.929 3.311 7.427.186.749.758 2.902 1.124 4.161.471 1.995.7 3.763 1.225 6.015.471 2.32 1.271 6.702 1.619 10.797.583 3.512-.352 10.682-.903 12.883-1.228 4.104-3.376 9.113-7.618 13.936-1.802 2.136-3.718 3.792-5.931 5.588-1.693 1.413-3.145 2.235-5.76 3.796-3.551 2.119-6.254 3.472-11.231 5.418-2.027.651-4.581 1.507-7.333 2.076-5.332.493-10.812.965-16.792.255-5.982-.712-11.974-2.398-15.513-3.485-1.953-.733-5.737-2.319-7.323-3.173-1.032-.524-4.492-2.891-5.08-3.46-2.371-1.468-7.678-6.458-11.105-11.111-.75-1.437-3.45-5.75-4.035-7.64-1.557-3.196-2.642-7.062-3.279-8.713-.673-3.855-1.809-6.337-2.253-10.207.051-.911-.183-3.054-.389-4.24.301-2.649-.101-5.145.424-8.028.462-2.433 1.073-3.449 1.219-5.648.142-.941 1.353-3.771 1.675-5.03.977-2.074 1.22-3.783 2.496-6.1 1.837-3.611 3.758-7.766 6.71-11.396.843-1.125 3.233-3.824 4.048-4.76 1.926-1.925 3.056-2.229 5.24-4.161.227-.143 1.669-1.788 3.18-2.353 2.503-1.934 4.666-2.644 7.049-4.403 4.774-2.378 6.515-3.181 11.254-5.153 2.739-.976 6.559-1.517 7.934-2.05 2.616-.163 5.272-.997 8.025-.831 3.089-.029 6.203.191 9.308.473 2.101.129 4.833.231 8.539 1.035z"/><path d="m213.715 52.431 22.805-.023c9.33 0 16.891-7.538 16.891-16.826 0-9.307-7.561-16.846-16.891-16.846l-5.923.033c-.466 0-.845-.383-.845-.854s.379-.854.845-.854l22.764.004.009-7.141h-22.777c-4.404 0-7.987 3.577-7.987 7.973 0 4.399 3.582 7.962 7.987 7.962l5.95.079c5.346 0 9.672 4.311 9.672 9.63 0 5.323-4.326 9.644-9.672 9.644h-22.819z"/><path d="m213.724 43.535h22.819c4.418 0 7.991-3.563 7.991-7.967 0-4.4-3.573-7.959-7.991-7.959l-5.95-.065c-5.337 0-9.667-4.316-9.667-9.648 0-5.318 4.33-9.634 9.667-9.634l22.777-.005-.009-7.169h-22.764c-9.32 0-16.891 7.53-16.891 16.827s7.571 16.831 16.891 16.831l5.891.009c.448 0 .826.365.826.827 0 .452-.378.817-.826.817l-22.773.018zm57.368 1.722c-3.956 0-7.197-3.153-7.197-7.179v-22.781c0-3.873 3.241-7.059 7.197-7.059l24.342.005v-7.155h-24.342c-7.921 0-14.338 6.393-14.338 14.288v22.703c0 7.895 6.417 14.297 14.338 14.297l24.24.01-.004-7.137z"/><path d="m265.64 15.376c0-3.019 2.428-5.466 5.452-5.466h24.342v7.165h-20.972c-1.68 0-1.703 1.666-1.703 1.666h17.496v7.132h-24.624zm5.452 28.146c-3.014 0-5.461-2.433-5.461-5.443v-10.507h24.624v7.147h-17.497c.023 1.68 1.703 1.688 1.703 1.688h20.871l-.005 7.105zm41.4 1.717c-3.942 0-7.164-3.213-7.164-7.161v-22.703c0-3.952 3.199-7.137 7.145-7.137h23.577v-7.15h-23.631c-7.918 0-14.335 6.393-14.335 14.288v22.703c0 7.895 6.472 14.297 14.389 14.297l23.577.01v-33.645h-20.261v7.132h13.101v19.366z"/><path d="m307.008 38.078c0 3.025 2.447 5.485 5.465 5.485h14.727v-16h-11.394v7.156h4.229l.013 1.68h-4.21c-.918 0-1.671-.761-1.671-1.68l-.037-15.983s-.005-1.661 1.69-1.703h20.238l-.009-7.128-23.577.005c-2.998 0-5.465 2.467-5.465 5.466v22.702m51.197-28.274c.326-.934 1.213-1.562 2.201-1.562.989 0 1.876.628 2.202 1.562l11.445 33.81h-16.758l.018-7.954h5.6l-2.521-7.492-8.212 24.212h-8.448z"/><path d="m376.36 45.239h-19.038v7.141h28.972l-15.068-44.58c-1.32-4.349-5.673-7.548-10.826-7.548-5.16 0-9.5 3.185-10.83 7.53l-15.206 44.598h7.585l14.764-43.352c.617-1.48 2.071-2.448 3.675-2.447 1.6.003 3.052.965 3.679 2.438z"/></g></svg>