<svg clip-rule="evenodd" fill-rule="evenodd" stroke-linejoin="round" stroke-miterlimit="2" viewBox="0 0 600 589" xmlns="http://www.w3.org/2000/svg"><g fill="#fff"><path d="m488.791 585.785c.001-.303 13.309-84.243 15.656-99.919 5.743-38.349 6.687-43.677 10.751-47.381 4.926-4.489 6.096-3.855 28.482-3.575 19.802.246 20.759.064 28.77 3.656 7.53 3.377 16.579 12.559 20.311 18.905 9.802 16.67 8.486 31.703 2.921 45.399-3.867 9.517-15.906 18.607-19.962 20.67 4.469 2.323 7.943 6.025 9.013 11.607.496 2.581 10.264 48.233 10.264 50.638.371-.06-31.459 0-31.459 0s-2.268-11.921-4.432-22.339c-5.093-24.518-6.226-28.056-13.09-30.361-3.24-1.089-16.528-.873-16.528-.873l-8.412 53.573s-32.285.301-32.285 0zm63.018-84.396c8.052-2.391 15.076-10.719 15.076-18.447 0-6.624-3.72-13.978-9.589-16.644-4.179-1.898-17.112-1.053-17.112-1.053l-5.759 37.304s12.445.306 17.384-1.16z"/><path d="m51.932 415.359c-12.843-2.793-22.91-8.497-32.047-18.156-9.936-10.504-16.689-24.458-19.115-39.494-1.599-9.91-.622-27.293 2.131-37.927 3.012-11.633 10.032-25.668 17.439-34.865 11.842-14.705 29.055-26.342 44.585-29.021 15.503-2.674 26.957-1.815 41.269 5.324 8.35 4.165 11.225 6.118 17.414 12.253 7.337 7.271 12.154 13.548 16.144 21.269.133-.023-26.802 13.863-26.831 13.865-2.328-4.16-9.51-13.144-13.093-15.977-6.517-5.151-13.616-8.06-22.38-7.698-5.767.238-9.403 1.805-13.447 3.688-11.106 5.171-19.624 15.139-26.169 28.459-4.724 9.613-6.878 18.67-6.878 28.921 0 14.104 3.455 23.237 11.763 31.095 16.597 15.696 40.183 10.474 54.692-12.11 1.734-2.7 4.342-7.79 4.342-7.79h-34.635l11.846-28.586s3.274.2 28.289 0c24.666-.197 25.715-.179 29.66 5.643 1.792 2.645 2.184 4.296 1.775 9.208-.624 7.5-4.565 19.481-8.78 28.351-15.069 31.707-47.958 50.076-77.974 43.548z"/><path d="m200.965 587.541c-12.843-2.793-22.91-8.497-32.047-18.157-9.935-10.503-16.689-24.457-19.115-39.493-1.599-9.91-.622-27.293 2.131-37.927 3.012-11.633 10.032-25.668 17.439-34.865 11.842-14.705 29.055-26.343 44.585-29.021 15.503-2.674 26.957-1.815 41.269 5.324 8.35 4.165 11.225 6.118 17.414 12.253 7.337 7.271 12.154 13.548 16.144 21.268.133-.022-26.802 13.864-26.831 13.865-2.328-4.159-9.51-13.144-13.093-15.976-6.516-5.151-13.616-8.06-22.38-7.698-5.767.238-9.403 1.805-13.447 3.688-11.106 5.171-19.624 15.139-26.169 28.458-4.724 9.614-6.878 18.671-6.878 28.921 0 14.105 3.455 23.238 11.763 31.096 16.597 15.696 40.183 10.474 54.692-12.11 1.734-2.7 4.342-7.79 4.342-7.79h-34.635l11.846-28.586s3.274.2 28.289 0c24.666-.198 25.715-.179 29.66 5.643 1.792 2.645 2.184 4.296 1.775 9.208-.624 7.499-4.565 19.481-8.78 28.351-15.069 31.707-47.958 50.076-77.974 43.548z"/><path d="m299.887 412.047c-7.059-2.852-8.804-13.873-12.887-38.452-3.066-18.46-5.484-28.887-5.807-27.552-.286 1.184-10.105 67.158-10.105 67.158h-31.262s19.38-130.465 20.608-134.822c1.514-5.371 6.762-12.178 11.882-14.657 5.243-2.538 12.322-2.417 17.69.303 4.821 2.443 9.404 7.48 10.731 11.557.514 1.58 12.685 72.529 12.863 72.707s5.689-11.006 12.248-24.854c24.878-52.526 25.71-54.871 33.179-58.738 7.743-4.007 20.297-1.369 25.651 5.911 4.868 6.62 5.015 9.478 1.935 30.458-6.634 45.183-16.569 111.382-16.569 111.382h-29.934s8.467-62.765 8.345-63.102c-.229-.632-13.691 27.074-22.032 45.343-6.992 15.315-9.44 17.966-17.566 19.015-2.894.374-5.028-.065-8.97-1.657z"/><path d="m395.097 410.403c-4.551-3.501-6.828-7.697-6.828-12.585 0-6.278 17.259-123.398 18.552-125.9 2.087-4.036 6.165-7.402 10.195-8.417 2.556-.644 71.145 0 71.145 0l-4.239 28.334h-47.98l-5.035 30.174h40.738l-4.758 30.561h-40.892l-4.406 29.816h47.837l-4.58 31.217s-14.834-.402-33.029-.402c-33.082 0-33.082 0-36.72-2.798z"/><path d="m295.613 582.584c-4.551-3.5-6.828-7.696-6.828-12.584 0-6.278 17.258-123.398 18.552-125.9 2.087-4.036 6.165-7.403 10.194-8.417 2.557-.644 71.146 0 71.146 0l-4.239 28.334h-47.98l-5.036 30.174h40.739l-4.758 30.561h-40.893l-4.405 29.816h47.837l-4.58 31.217s-14.834-.402-33.029-.402c-33.082 0-33.082 0-36.72-2.799z"/><path d="m121.359 412.808c0-.611 53.734-130.256 56.671-136.73 2.759-6.083 6.462-10.178 11.663-12.897 5.07-2.651 14.942-3.372 20.349-.641 4.982 2.517 9.561 7.274 11.777 11.575 1.862 3.615 2.385 11.22 9.031 96.466 1.44 18.469 3.629 42.62 3.629 42.62l-30.677-.154-3.06-29.063h-33.169l-11.963 28.825s-34.251.235-34.251 0zm59.055-59.92 17.016-.084s-3.487-32.277-3.584-32.18c-.124.124-13.432 32.264-13.432 32.264z"/><path d="m369.694 584.99c0-.611 53.735-130.256 56.671-136.73 2.759-6.083 6.463-10.178 11.663-12.897 5.07-2.651 14.943-3.372 20.349-.641 4.982 2.517 9.562 7.274 11.777 11.574 1.862 3.615 2.385 11.221 9.032 96.467 1.44 18.469 3.629 42.62 3.629 42.62l-30.677-.155-3.06-29.062h-33.169l-11.964 28.824s-34.251.236-34.251 0zm59.055-59.92 17.016-.085s-3.486-32.277-3.584-32.179c-.124.124-13.432 32.264-13.432 32.264z"/><g fill-rule="nonzero"><path d="m95.488 71.622c40.409-52.822 91.087-82.841 113.208-67.171 22.064 15.719 7.205 71.285-33.262 124.06-40.415 52.825-91.086 82.838-113.15 67.169-22.122-15.717-7.212-71.28 33.204-124.058z"/><path d="m282.553 71.622c40.408-52.822 91.086-82.841 113.207-67.171 22.065 15.719 7.205 71.285-33.261 124.06-40.415 52.825-91.086 82.838-113.15 67.169-22.122-15.717-7.212-71.28 33.204-124.058z"/><path d="m469.617 71.622c40.409-52.822 91.087-82.841 113.208-67.171 22.064 15.719 7.205 71.285-33.261 124.06-40.415 52.825-91.087 82.838-113.151 67.169-22.121-15.717-7.212-71.28 33.204-124.058z"/></g></g></svg>