<svg clip-rule="evenodd" fill-rule="evenodd" stroke-linejoin="round" stroke-miterlimit="2" viewBox="0 0 600 172" xmlns="http://www.w3.org/2000/svg"><g fill="#fff" fill-rule="nonzero"><path d="m74.088 29.843 5.648-21.179c1.412-5.648 4.941-8.472 10.589-8.472h101.661l-2.648 12.708h-89.659l-3.441 12.707h78.804c7.06 0 9.884 2.824 8.472 8.472l-5.648 21.179c-1.882 5.648-5.648 8.472-11.295 8.472h-101.661l2.648-12.708h89.658l3.442-12.707h-78.804c-6.59 0-9.178-2.824-7.766-8.472z"/><path d="m185.985 55.258 12.354-46.594c1.412-5.648 4.942-8.472 10.59-8.472h101.661l-2.648 12.708h-89.659l-3.441 12.707h74.568l-2.647 12.708h-75.275l-3.441 12.707h89.835l-2.471 12.708h-103.425c-5.648 0-7.648-2.824-6.001-8.472z"/><path d="m304.589 55.258 12.354-46.594c1.412-5.648 4.942-8.472 10.59-8.472h105.896l-2.647 12.708h-93.895l-10.236 38.122h72.892l4.235-12.707h-19.59l2.647-12.708h38.123l-8.119 30.004c-1.883 5.412-4.824 8.119-8.825 8.119h-97.424c-5.648 0-7.648-2.824-6.001-8.472z"/><path d="m420.722 63.73 50.83-63.538h25.415l38.123 63.538h-25.415l-8.472-12.708h-42.359l8.472-12.707h25.415l-12.707-21.18-38.123 46.595z"/><path d="m0 171.9 16.943-63.538h21.18l25.415 50.831 50.83-50.831h21.179l-16.943 63.538h-21.179l8.471-29.651-29.651 29.651h-29.651l-16.943-33.887-8.472 33.887h-21.179z"/><path d="m122.84 171.9 50.83-63.538h25.415l38.123 63.538h-25.415l-8.472-12.707h-42.358l8.471-12.708h25.415l-12.707-21.179-38.123 46.594z"/><path d="m258.387 108.362h101.661c5.647 0 7.883 2.707 6.706 8.119l-5.294 21.532c-1.883 5.648-5.178 8.472-9.884 8.472h-29.651l29.651 25.415h-25.415l-42.359-38.122h56.743l3.442-12.708h-67.774l-13.59 50.83h-21.179z"/><path d="m360.048 171.9 16.943-63.538h21.179l-9.354 35.035 55.949-35.035h33.887l-61.773 36.005 40.593 27.533h-33.887l-35.21-26.65-7.148 26.65z"/><path d="m577.529 168.861-.588 2.353h-113.179l.588-2.353c5.177 0 8.784-.98 10.824-2.941 1.333-1.334 2.902-5.216 4.706-11.648l13.882-50.824c1.412-5.334 2.04-8.589 1.883-9.765-.079-1.255-.745-2.314-2-3.177-1.255-.862-3.765-1.294-7.53-1.294l.706-2.47h113.179l-.706 2.47c-5.176 0-8.745.981-10.706 2.941-1.804 2.667-3.294 6.432-4.471 11.295l-13.882 50.824c-1.569 5.569-2.314 8.981-2.236 10.236.079 1.176.745 2.196 2 3.059s3.765 1.294 7.53 1.294zm-56.707-76.708c-1.647 1.334-3.138 5.099-4.471 11.295l-13.883 50.824c-1.568 5.569-2.313 8.981-2.235 10.236.078 1.176.549 2.078 1.412 2.706.941.627 1.843.902 2.706.824 1.882-.157 3.451-.863 4.706-2.118 1.333-1.334 2.902-5.216 4.706-11.648l13.882-50.824c1.412-5.334 2.04-8.589 1.883-9.765-.079-1.255-.549-2.196-1.412-2.824-.863-.627-1.725-.902-2.588-.823-1.883.157-3.451.862-4.706 2.117zm33.883 0c-1.333 1.334-2.824 5.099-4.471 11.295l-13.882 50.824c-1.569 5.569-2.314 8.981-2.236 10.236.079 1.176.549 2.078 1.412 2.706.941.627 1.843.902 2.706.824 1.882-.157 3.451-.863 4.706-2.118 1.333-1.334 2.902-5.216 4.706-11.648l13.883-50.824c1.411-5.334 2.039-8.589 1.882-9.765-.078-1.255-.549-2.196-1.412-2.824-.863-.627-1.725-.902-2.588-.823-1.883.157-3.451.862-4.706 2.117z"/></g></svg>