<?xml version="1.0" encoding="UTF-8" standalone="no"?><!DOCTYPE svg PUBLIC "-//W3C//DTD SVG 1.1//EN" "http://www.w3.org/Graphics/SVG/1.1/DTD/svg11.dtd"><svg width="100%" height="100%" viewBox="0 0 600 77" version="1.1" xmlns="http://www.w3.org/2000/svg" xmlns:xlink="http://www.w3.org/1999/xlink" xml:space="preserve" xmlns:serif="http://www.serif.com/" style="fill-rule:evenodd;clip-rule:evenodd;stroke-linejoin:round;stroke-miterlimit:2;"><g id="sega_dreamcast_flat"><g><path d="M294.416,17.471c-0,-1.715 -0.327,-3.937 -1.085,-4.871c4.964,0 15.688,0.033 20.285,0.033c10.577,-0 26.532,5.87 26.532,25.659c-0,14.688 -11.263,25.631 -26.532,25.631c-3.349,0 -16.137,-0.039 -20.673,-0.039c0.931,-1.717 1.473,-4.046 1.473,-5.885l-0,-40.528Zm7.605,41.428c4.882,0.631 9.388,0.826 13.466,0.242c3.944,-0.563 17.2,-3.416 17.118,-21.017c-0.079,-16.679 -10.378,-20.49 -18.316,-20.958c-4.141,-0.244 -8.14,-0.089 -12.268,0.627l0,41.106Zm42.484,-30.538l7.6,-1.187l-0,6.691c1.949,-4.816 8.013,-8.687 16.633,-5.333l-2.021,5.29c-7.888,-3.743 -14.612,-0.459 -14.612,8.3l-0,18.077c-0,0.859 0.186,2.597 0.701,3.711l-7.894,-0c0.798,-0.983 1.166,-2.852 1.166,-3.711l0,-26.075c0,-1.891 -0.384,-4.819 -1.573,-5.763Zm240.251,3.626l0,23.089c0,7.245 4.995,9.184 8.697,9.184c1.567,0.077 3.782,-0.289 5.33,-0.633l0.955,-4.474c-1.807,0.688 -3.905,0.852 -5.162,0.852c-2.32,-0 -3.998,-1.54 -3.998,-3.948c-0,-2.162 -0.055,-23.354 -0,-24.033l-0.026,0c0.31,0 5.122,-0.016 5.607,0c1.58,0.057 2.793,0.153 3.835,0.572l0.006,-4.213l-9.424,-0.012l0.037,-10.806l-7.005,1.936c0.968,0.903 1.281,3.548 1.281,5.29l-0.005,3.619c-0.315,-0 -3.869,0.016 -4.458,0.016l-0,3.561l4.33,-0Zm-30.269,24.414c3.011,2.151 7.735,4.06 11.2,4.06c4.807,-0 8.247,-2.338 8.247,-6.739c0,-8.125 -18.524,-6.78 -18.524,-17.089c-0,-6.969 6.232,-9.59 12.173,-9.59c1.907,-0 6.265,0.414 9.038,1.486l-0.024,4.759c-2.46,-2.102 -6.218,-2.612 -8.693,-2.612c-3.931,0 -6.88,1.95 -6.88,5.774c0,5.616 18.508,5.291 18.508,16.815c0,7.452 -6.459,10.928 -13.564,10.928c-3.464,-0 -7.072,-0.615 -10.079,-1.475l-1.402,-6.317Zm-111.812,-24.341c-0,-0.422 0.016,-4.197 0.016,-4.681l-7.693,1.19c0.926,0.971 1.638,4.003 1.638,6.168l-0,25.211c-0,0.86 -0.368,2.946 -1.166,3.929l8.389,-0c-0.799,-0.983 -1.166,-3.069 -1.166,-3.929l-0,-18.969c-0,-6.94 4.293,-9.369 8.565,-9.369c3.868,0 7.363,1.674 7.363,9.369l0,18.969c0,0.86 -0.369,2.946 -1.166,3.929l8.136,-0c-0.799,-0.983 -1.166,-3.069 -1.166,-3.929l-0,-18.969c-0,-7.695 4.755,-9.369 8.627,-9.369c3.866,0 7.912,2.428 7.912,9.369l-0,18.969c-0,0.86 -0.368,2.946 -1.166,3.929l7.832,-0c-0.799,-0.983 -1.166,-3.069 -1.166,-3.929l-0,-22.57c-0,-3.847 -3.923,-10.009 -13.091,-10.009c-5.331,-0 -8.409,2.371 -10.747,4.412c-1.988,-2.32 -5.226,-4.497 -10.426,-4.497c-5.071,-0 -8.063,2.969 -9.525,4.776Zm-18.142,11.826c-1.098,1.032 -3.397,1.834 -5.771,2.146c-6.235,0.817 -11.636,1.854 -11.636,7.928c-0,3.603 3.925,6.44 7.038,6.44c8.241,-0 10.37,-5.945 10.37,-10.63l0,-5.884l-0.001,-0Zm-19.467,-14.866c3.145,-1.261 8.222,-1.839 11.403,-1.839c8.128,0 13.528,4.061 13.528,13.489l-0,15.639c-0,2.898 0.043,5.639 1.077,7.566l-6.535,0l-0.234,-4.113c-2.475,3.193 -5.43,4.623 -10.448,4.623c-9.899,-0 -12.061,-6.764 -12.061,-10.017c-0,-11.599 11.041,-11.736 15.834,-12.418c2.653,-0.377 6.068,-1.126 6.58,-3.613c0.847,-4.115 -2.096,-7.199 -8.104,-7.199c-4.41,0 -8.023,1.34 -11.04,3.147l-0,-5.265Zm140.438,14.866c-1.098,1.032 -3.399,1.834 -5.773,2.146c-6.233,0.817 -11.636,1.854 -11.636,7.928c-0,3.603 3.925,6.44 7.038,6.44c8.241,-0 10.371,-5.945 10.371,-10.63l-0,-5.884Zm-19.467,-14.866c3.145,-1.261 8.222,-1.839 11.402,-1.839c8.129,0 13.529,4.061 13.529,13.489l-0,15.639c-0,2.898 -0.632,5.581 1.075,7.566l-6.535,0l-0.234,-4.113c-2.475,3.193 -5.429,4.623 -10.447,4.623c-9.897,-0 -12.061,-6.764 -12.061,-10.017c0,-11.599 11.041,-11.736 15.835,-12.418c2.654,-0.377 6.069,-1.126 6.579,-3.613c0.846,-4.115 -2.095,-7.199 -8.104,-7.199c-4.409,0 -8.022,1.34 -11.039,3.147l-0,-5.265Zm-6.955,4.797c-2.453,-1.431 -6.322,-2.567 -9.02,-2.567c-9.473,-0 -13.816,5.827 -13.816,14.219c0,8.314 4.243,14.679 13.51,14.679c3.177,-0 7.502,-1.425 10.857,-3.488l-1.366,6.116c-3.415,1.016 -6.293,1.5 -10.104,1.5c-13.023,0 -19.126,-9.235 -19.126,-18.844c-0,-10.625 8.188,-18.093 19.267,-18.093c4.843,0 8.38,1.188 9.808,1.593l-0.01,4.885Zm-145.777,12.097c0.005,-0.879 0.121,-1.716 0.221,-2.526l25.196,0c-0,-8.662 -4.331,-16.094 -14.594,-16.094c-10.653,0 -16.976,8.331 -16.976,18.957c-0,9.609 7.041,18.193 19.099,18.193c3.813,0 7.001,-0.939 10.441,-2.143l1.211,-6.143c-2.943,2.423 -7.701,3.857 -11.993,3.857c-7.718,-0.001 -12.64,-5.587 -12.605,-14.101Zm1.018,-6.368c0.817,-4.216 4.716,-8.508 9.383,-8.508c7.132,0 9.196,5.565 9.196,8.51c-0.001,-0.002 -18.579,0.01 -18.579,-0.002Z" style="fill:#fff;fill-rule:nonzero;"/><path d="M241.788,1.096c3.224,0.484 6.517,1.61 8.234,2.136c3.459,1.057 9.075,4.343 11.058,5.92c0.938,0.745 2.911,2.697 3.675,3.68c0.744,0.957 2.165,3.031 3.072,4.308c1.444,2.109 3.144,5.249 4.586,8.14c1.61,3.229 1.721,4.164 2.208,6.864l1.064,4.758c0.101,0.823 0.184,3.842 -1.588,4.265c-1.771,0.423 -3.409,-0.395 -4.181,-1.589c-1.068,-1.653 -0.921,-4 -2.129,-6.686c-0.942,-2.171 -1.354,-5.325 -2.859,-7.594l-1.18,-1.996c-2.088,-3.214 -4.264,-5.766 -5.562,-7.43c-1.143,-1.398 -3.278,-3.299 -5.302,-4.651c-1.871,-1.135 -4.896,-2.429 -7.078,-3.096c-0.695,-0.226 -3.671,-1.101 -5.521,-1.347c-2.509,-0.282 -4.161,-0.679 -6.545,-0.847c-2.945,-0.208 -4.357,-0.47 -8.177,-0.023c-1.447,0.392 -3.739,0.548 -5.802,1.337c-1.666,0.68 -3.984,1.777 -6.255,3.111c-2.443,1.34 -6.152,4.08 -8.611,6.42c-2.479,2.648 -3.719,4.07 -5.428,7.428c-0.757,1.661 -2.221,4.231 -2.812,6.046c-0.403,1.841 -1.172,5.277 -1.043,6.945c0.059,2.989 -0.203,3.605 0.022,6.048c0.008,2.2 0.73,3.725 1.03,5.524c0.257,1.243 1.45,5.545 2.188,6.543c3.353,7.226 7.855,10.356 12.872,12.613c1.414,0.72 5.838,1.904 7.119,2.244c2.182,0.393 5.055,0.656 7.819,0.709c2.909,0.057 6.918,-0.337 9.351,-1.233c2.633,-0.968 5.678,-2.344 5.643,-2.306c1.222,-0.673 3.086,-1.772 3.667,-2.256c1.123,-0.719 1.799,-0.997 2.464,-1.69c0.959,-0.839 1.54,-1.323 2.267,-2.363c0.535,-0.775 1.093,-1.535 1.673,-2.277c0.673,-1.103 1.06,-2.266 1.718,-3.705c0.786,-2.128 0.664,-2.025 0.814,-4.286c0.141,-0.654 -0.016,-2.855 -0.134,-3.229c-0.355,-2.031 -0.229,-3.823 -0.694,-5.795c-0.628,-2.668 -1.15,-4.665 -1.952,-7.225c-0.753,-2.882 -2.967,-5.552 -4.628,-7.459c-1.029,-1.182 -4.223,-3.974 -8.653,-5.718c-1.247,-0.419 -3.289,-0.895 -4.586,-1.132c-2.768,-0.289 -3.219,-0.103 -5.869,0.091c-0.912,0.159 -3.029,0.591 -3.808,0.865c-2.276,0.799 -3.113,1.308 -5.441,2.733c-1.083,0.629 -1.9,1.11 -3.007,2.148c-0.884,0.818 -1.516,2.209 -2.231,3.024c-0.981,1.335 -2.073,3.115 -2.805,5.035c-0.794,1.91 -1.05,4.598 -0.929,6.328c-0,1.319 0.358,3.733 0.501,4.26c0.142,0.529 0.499,2.168 0.576,2.497c0.078,0.329 0.93,2.063 1.047,2.314c0.481,1.023 1.401,2.493 2.951,3.994c1.144,1.249 3.356,2.475 5.011,2.951c1.484,0.814 3.988,0.953 5.373,0.955c0.682,-0.041 2.423,-0.148 3.331,-0.366c1.843,-0.442 2.183,-0.454 4.082,-1.279c1.704,-0.79 2.86,-1.074 4.047,-1.951c-0,-0 1.629,-1.277 2.369,-2.211c0.391,-0.493 1.061,-2.842 0.942,-4.297c-0.056,-1.992 0.234,-3.122 -0.172,-4.761c-0.407,-1.639 -1.101,-3.538 -1.853,-4.709c-0.762,-1.185 -2.4,-2.341 -4.264,-3.26c-1.044,-0.516 -3.517,-0.994 -4.567,-1.118c-1.993,-0.237 -3.66,0.668 -4.672,1.703c-0.878,1.003 -2.612,3.087 -1.921,5.241c0.625,1.95 1.38,4.027 4.304,3.872c2.006,0.418 4.327,-0.188 5.1,0.168c1.147,0.651 1.588,2.09 1.171,3.093c-0.29,1.934 -2.143,2.166 -4.121,2.313c-1.769,0.297 -6.262,-0.569 -7.25,-1.309c-0.662,-0.394 -1.676,-1.339 -2.391,-1.978c-0.513,-0.459 -1.095,-1.484 -1.492,-2.219c-0.487,-0.904 -0.734,-1.569 -0.859,-2.158c-0.149,-0.7 -0.455,-2.035 -0.339,-3.37c0.078,-0.9 0.319,-1.284 0.559,-2.6c0.478,-1.493 1.072,-2.629 2.027,-3.924c1.245,-1.263 2.825,-2.767 4.368,-3.465c1.36,-0.719 3.744,-0.984 5.9,-0.857c1.75,0.167 3.819,0.38 5.187,0.839c2.342,0.836 3.011,1.003 4.933,2.215c1.624,1.006 3.259,2.855 4.171,4.387c1.939,3.969 3.052,8.385 2.243,14.33c-0.066,1.004 -0.379,1.986 -1.005,3.315c-0.578,1.228 -1.592,2.72 -3.114,3.844c-0.613,0.567 -1.579,1.265 -2.366,1.674c-1.116,0.677 -1.867,1.03 -3.032,1.615c-1.024,0.481 -2.216,1.031 -3.771,1.463c-1.686,0.667 -2.979,0.694 -5.098,1.01c-2.087,0.523 -7.795,0.15 -11.196,-1.35c-2.321,-0.976 -4.925,-2.696 -6.905,-4.793c-1.1,-1.153 -2.176,-3.244 -2.492,-3.672c-1.574,-3.027 -1.883,-5.874 -2.135,-6.472c-0.343,-0.812 -0.514,-2.634 -0.743,-3.881c-0.26,-1.397 -0.099,-7.258 1.312,-11.02c0.796,-1.497 1.261,-2.832 1.799,-3.534c0.968,-1.376 1.436,-2.236 2.258,-3.212c1.241,-1.504 2.144,-2.732 3.352,-3.597c3.079,-2.503 5.651,-3.824 9.13,-5.477c4.322,-1.76 5.62,-1.396 9.711,-1.331c1.841,0.016 4.519,0.595 5.836,0.835c2.445,0.326 3.846,0.915 5.5,1.376c1.768,0.494 2.79,1.282 4.241,2.159c1.195,0.771 2.601,1.828 3.529,2.686c2.375,1.741 3.521,3.572 4.977,5.821c0.264,0.377 1.993,4.061 2.268,5.087c0.128,0.513 0.519,1.988 0.77,2.85c0.323,1.368 0.48,2.579 0.84,4.121c0.322,1.59 0.87,4.591 1.108,7.396c0.4,2.407 -0.24,7.318 -0.618,8.826c-0.842,2.811 -2.313,6.243 -5.219,9.547c-1.234,1.463 -2.547,2.598 -4.063,3.828c-1.159,0.968 -2.154,1.531 -3.945,2.601c-2.433,1.451 -4.285,2.378 -7.695,3.711c-1.388,0.446 -3.137,1.032 -5.023,1.422c-3.653,0.338 -7.406,0.661 -11.504,0.175c-4.097,-0.488 -8.202,-1.643 -10.627,-2.387c-1.337,-0.502 -3.929,-1.589 -5.016,-2.174c-0.707,-0.359 -3.078,-1.98 -3.48,-2.37c-1.625,-1.006 -5.26,-4.425 -7.607,-7.612c-0.515,-0.984 -2.364,-3.939 -2.765,-5.234c-1.066,-2.189 -1.81,-4.837 -2.246,-5.969c-0.461,-2.64 -1.24,-4.341 -1.543,-6.992c0.035,-0.624 -0.126,-2.092 -0.267,-2.905c0.206,-1.814 -0.069,-3.524 0.291,-5.499c0.316,-1.667 0.735,-2.363 0.834,-3.869c0.098,-0.645 0.927,-2.583 1.148,-3.446c0.669,-1.421 0.836,-2.591 1.71,-4.179c1.258,-2.474 2.574,-5.32 4.596,-7.806c0.578,-0.771 2.215,-2.621 2.773,-3.262c1.32,-1.318 2.094,-1.527 3.59,-2.85c0.156,-0.098 1.144,-1.225 2.179,-1.612c1.715,-1.325 3.196,-1.811 4.828,-3.016c3.271,-1.629 4.464,-2.179 7.71,-3.53c1.876,-0.669 4.493,-1.039 5.435,-1.405c1.793,-0.111 3.612,-0.683 5.498,-0.569c2.116,-0.02 4.25,0.131 6.377,0.324c1.439,0.089 3.31,0.159 5.849,0.709Z" style="fill:#fff;fill-rule:nonzero;"/></g><g><path d="M0.009,64.444l22.659,-0.023c9.27,0 16.783,-7.489 16.783,-16.718c-0,-9.247 -7.513,-16.737 -16.783,-16.737l-5.885,0.032c-0.464,-0 -0.84,-0.381 -0.84,-0.849c0,-0.468 0.376,-0.848 0.84,-0.848l22.618,0.004l0.009,-7.095l-22.632,-0c-4.375,-0 -7.935,3.554 -7.935,7.921c-0,4.372 3.559,7.912 7.935,7.912l5.913,0.078c5.311,0 9.609,4.284 9.609,9.569c0,5.288 -4.297,9.581 -9.609,9.581l-22.673,0l-0.009,7.173Z" style="fill:#fff;fill-rule:nonzero;"/><path d="M0.018,55.606l22.673,-0c4.389,-0 7.939,-3.541 7.939,-7.917c0,-4.371 -3.55,-7.908 -7.939,-7.908l-5.913,-0.064c-5.302,0 -9.604,-4.288 -9.604,-9.586c-0,-5.284 4.302,-9.573 9.604,-9.573l22.632,-0.005l-0.009,-7.123l-22.618,0c-9.261,0 -16.783,7.482 -16.783,16.719c-0,9.238 7.522,16.724 16.783,16.724l5.853,0.009c0.445,-0 0.821,0.363 0.821,0.821c-0,0.45 -0.376,0.812 -0.821,0.812l-22.627,0.018l0.009,7.073Zm57,1.711c-3.931,-0 -7.151,-3.133 -7.151,-7.133l0,-22.636c0,-3.848 3.22,-7.013 7.151,-7.013l24.186,0.004l0,-7.109l-24.186,0c-7.87,0 -14.246,6.353 -14.246,14.196l0,22.558c0,7.844 6.376,14.206 14.246,14.206l24.085,0.01l-0.005,-7.092l-24.08,0.009Z" style="fill:#fff;fill-rule:nonzero;"/><path d="M51.601,27.626c0,-2.999 2.413,-5.43 5.417,-5.43l24.186,-0l0,7.118l-20.837,0c-1.67,0 -1.693,1.656 -1.693,1.656l17.384,0l0,7.087l-24.465,0l0.008,-10.431Zm5.417,27.966c-2.995,0 -5.426,-2.417 -5.426,-5.408l-0,-10.44l24.466,0l-0,7.102l-17.384,-0c0.023,1.669 1.692,1.677 1.692,1.677l20.737,0l-0.005,7.06l-24.08,0.009Zm41.135,1.707c-3.917,-0 -7.119,-3.193 -7.119,-7.115l0,-22.558c0,-3.926 3.179,-7.092 7.1,-7.092l23.426,0l-0,-7.104l-23.48,0c-7.867,0 -14.243,6.353 -14.243,14.196l0,22.558c0,7.844 6.431,14.206 14.297,14.206l23.426,0.01l-0,-33.43l-20.132,0l0,7.087l13.017,0l0,19.242l-16.292,-0Z" style="fill:#fff;fill-rule:nonzero;"/><path d="M92.704,50.184c-0,3.005 2.431,5.449 5.43,5.449l14.632,0l0,-15.898l-11.32,0l-0,7.111l4.201,-0l0.013,1.669l-4.182,-0c-0.913,-0 -1.66,-0.756 -1.66,-1.669l-0.038,-15.88c0,-0 -0.005,-1.652 1.679,-1.693l20.109,0l-0.01,-7.082l-23.425,0.005c-2.979,-0 -5.43,2.451 -5.43,5.43l-0,22.558m50.868,-28.094c0.325,-0.927 1.206,-1.552 2.188,-1.552c0.983,0 1.863,0.625 2.188,1.552l11.371,33.594l-16.65,-0l0.018,-7.903l5.564,-0l-2.505,-7.445l-8.16,24.058l-8.393,-0l14.379,-42.304Z" style="fill:#fff;fill-rule:nonzero;"/><path d="M161.611,57.299l-18.916,-0l0,7.095l28.787,-0l-14.971,-44.295c-1.312,-4.32 -5.637,-7.499 -10.757,-7.499c-5.128,0 -9.439,3.165 -10.761,7.482l-15.108,44.312l7.536,0l14.669,-43.074c0.613,-1.471 2.058,-2.433 3.651,-2.431c1.591,0.002 3.034,0.958 3.656,2.422l12.214,35.988Z" style="fill:#fff;fill-rule:nonzero;"/></g></g></svg>