<?xml version="1.0" encoding="UTF-8" standalone="no"?><!DOCTYPE svg PUBLIC "-//W3C//DTD SVG 1.1//EN" "http://www.w3.org/Graphics/SVG/1.1/DTD/svg11.dtd"><svg width="100%" height="100%" viewBox="0 0 600 228" version="1.1" xmlns="http://www.w3.org/2000/svg" xmlns:xlink="http://www.w3.org/1999/xlink" xml:space="preserve" xmlns:serif="http://www.serif.com/" style="fill-rule:evenodd;clip-rule:evenodd;stroke-linejoin:round;stroke-miterlimit:2;"><g id="sega_naomi"><g id="sega-naomi-alt"><path d="M579.796,220.938l0.324,-123.192l19.88,-0l-0.324,123.192l-19.88,0Z" style="fill:#fff;"/><path d="M427.922,220.938l-19.553,0l0,-120.26l66.485,77.24l67.135,-78.866l0,121.886l-20.862,0l-0.32,-65.505l-46.281,55.732l-46.604,-55.409l0,65.182Z" style="fill:#fff;"/><path d="M111.459,218.984l-0,-119.608l-19.881,-0l0.328,76.915l-91.906,-75.936l0.324,119.935l17.275,0l-0,-77.566l93.86,76.26Z" style="fill:#fff;"/><path d="M124.171,220.938l15.318,-26.073l-14.015,0l-0,-18.246l23.14,-0l42.041,-76.264l67.14,120.583l-23.792,0l-13.687,-26.073l-59.641,0l-14.339,26.073l-22.165,0Zm44.65,-44.647l43.021,0l-21.51,-39.436l-21.511,39.436Z" style="fill:#fff;"/><path d="M257.143,161.952c0,-36.176 29.333,-65.509 65.513,-65.509c36.173,0 65.506,29.333 65.506,65.509c-0,36.173 -29.333,65.506 -65.506,65.506c-36.18,0 -65.513,-29.333 -65.513,-65.506Zm65.513,45.953c25.422,0 45.946,-20.535 45.946,-45.953c-0,-25.094 -20.528,-45.629 -45.946,-45.629c-25.097,0 -45.632,20.535 -45.632,45.629c-0,25.418 20.531,45.953 45.632,45.953Z" style="fill:#fff;"/></g><g><path d="M0.012,76.443l29.645,-0.034c12.129,0 21.958,-11.008 21.958,-24.572c0,-13.591 -9.829,-24.6 -21.958,-24.6l-7.699,0.047c-0.607,-0 -1.099,-0.559 -1.099,-1.247c0,-0.688 0.492,-1.248 1.099,-1.248l29.592,0.007l0.012,-10.429l-29.61,0c-5.725,0 -10.382,5.225 -10.382,11.643c-0,6.425 4.656,11.629 10.382,11.629l7.735,0.115c6.949,-0 12.573,6.296 12.573,14.063c-0,7.773 -5.623,14.083 -12.573,14.083l-29.663,0l-0.012,10.543Z" style="fill:#fff;fill-rule:nonzero;"/><path d="M0.024,63.452l29.663,0c5.743,0 10.388,-5.204 10.388,-11.636c0,-6.425 -4.645,-11.622 -10.388,-11.622l-7.735,-0.094c-6.938,-0 -12.566,-6.304 -12.566,-14.091c-0,-7.766 5.628,-14.07 12.566,-14.07l29.61,-0.007l-0.012,-10.469l-29.592,0c-12.116,0 -21.958,10.996 -21.958,24.574c-0,13.577 9.842,24.58 21.958,24.58l7.657,0.013c0.582,-0 1.075,0.533 1.075,1.207c-0,0.661 -0.493,1.193 -1.075,1.193l-29.603,0.027l0.012,10.395Zm74.575,2.515c-5.143,0 -9.356,-4.605 -9.356,-10.484l0,-33.269c0,-5.656 4.213,-10.308 9.356,-10.308l31.644,0.006l-0,-10.449l-31.644,0c-10.297,0 -18.639,9.337 -18.639,20.866l0,33.155c0,11.529 8.342,20.879 18.639,20.879l31.512,0.015l-0.006,-10.423l-31.506,0.012Z" style="fill:#fff;fill-rule:nonzero;"/><path d="M67.512,22.329c-0,-4.409 3.157,-7.982 7.087,-7.982l31.644,-0l-0,10.463l-27.263,-0c-2.184,-0 -2.214,2.434 -2.214,2.434l22.745,-0l-0,10.415l-32.01,0l0.011,-15.33Zm7.087,41.104c-3.918,-0 -7.099,-3.553 -7.099,-7.949l-0,-15.344l32.01,-0l-0,10.437l-22.745,-0c0.03,2.453 2.214,2.466 2.214,2.466l27.131,-0l-0.006,10.375l-31.505,0.015Zm53.819,2.507c-5.125,0 -9.314,-4.692 -9.314,-10.457l0,-33.155c0,-5.771 4.159,-10.423 9.289,-10.423l30.649,-0l-0,-10.442l-30.72,0c-10.293,0 -18.634,9.337 -18.634,20.866l-0,33.155c-0,11.529 8.413,20.879 18.705,20.879l30.649,0.015l-0,-49.134l-26.339,-0l-0,10.415l17.031,0l-0,28.281l-21.316,0Z" style="fill:#fff;fill-rule:nonzero;"/><path d="M121.288,55.483c0,4.417 3.181,8.01 7.105,8.01l19.144,0l-0,-23.367l-14.811,0l-0,10.451l5.497,-0l0.017,2.453l-5.472,0c-1.195,0 -2.172,-1.111 -2.172,-2.453l-0.05,-23.34c0,-0 -0.006,-2.427 2.197,-2.488l26.309,0l-0.012,-10.409l-30.648,0.007c-3.898,-0 -7.105,3.603 -7.105,7.982l-0,33.154m66.554,-41.292c0.424,-1.363 1.577,-2.281 2.862,-2.281c1.285,0 2.437,0.918 2.862,2.281l14.878,49.376l-21.785,-0l0.024,-11.616l7.28,0l-3.278,-10.941l-10.675,35.359l-10.982,-0l18.814,-62.178Z" style="fill:#fff;fill-rule:nonzero;"/><path d="M211.443,65.94l-24.749,0l0,10.429l37.663,-0l-19.588,-65.104c-1.716,-6.35 -7.374,-11.022 -14.073,-11.022c-6.708,0 -12.349,4.651 -14.078,10.996l-19.767,65.131l9.86,-0l19.192,-63.311c0.801,-2.162 2.692,-3.576 4.777,-3.573c2.081,0.003 3.968,1.408 4.782,3.56l15.981,52.894Z" style="fill:#fff;fill-rule:nonzero;"/></g></g></svg>