<?xml version="1.0" encoding="UTF-8" standalone="no"?><!DOCTYPE svg PUBLIC "-//W3C//DTD SVG 1.1//EN" "http://www.w3.org/Graphics/SVG/1.1/DTD/svg11.dtd"><svg width="100%" height="100%" viewBox="0 0 600 67" version="1.1" xmlns="http://www.w3.org/2000/svg" xmlns:xlink="http://www.w3.org/1999/xlink" xml:space="preserve" xmlns:serif="http://www.serif.com/" style="fill-rule:evenodd;clip-rule:evenodd;stroke-linejoin:round;stroke-miterlimit:2;"><g id="sega_saturn_outline"><g><path d="M144.833,57.03c-2.75,-0 -5.464,-0.14 -8.298,-0.426c-3.795,-0.457 -6.642,-1.031 -8.975,-1.802c-1.25,-0.42 -2.257,-1.25 -2.922,-2.403c-0.646,-1.377 -0.754,-2.702 -0.35,-3.909c0.416,-1.335 1.302,-2.36 2.554,-2.942c1.044,-0.6 2.465,-0.75 3.778,-0.315c1.947,0.577 4.341,1.045 7.085,1.38c2.611,0.302 5.485,0.4 8.488,0.332c2.581,-0.061 4.983,-0.349 7.141,-0.855c1.369,-0.394 2.195,-0.746 2.634,-1.136c0.055,-0.049 0.116,-0.09 0.178,-0.125c0.133,-0.126 0.254,-0.218 0.352,-0.294c0.184,-0.139 0.235,-0.176 0.311,-0.716c0.067,-0.457 0.08,-0.717 0.062,-0.898c-0.022,-0.027 -0.043,-0.057 -0.062,-0.088c-0.002,0 -0.002,-0.003 -0.002,-0.003l-0,-0.001l-0.002,-0.001c0.002,0 -0.001,-0.001 -0.001,-0.001l-0,-0.003l-0.002,-0.001l0,-0.001c-0.063,-0.104 -0.11,-0.221 -0.133,-0.347l-0.066,-0.375c-0.002,-0.01 -0.003,-0.021 -0.006,-0.03c-0.122,-0.513 -1.709,-2.224 -2.515,-2.479c-0.895,-0.277 -4.09,-0.622 -7.682,-0.695c-0.701,-0.038 -1.422,-0.053 -2.267,-0.074c-0.686,-0.014 -1.454,-0.031 -2.3,-0.062c-2.151,0.005 -3.61,0.001 -4.405,-0.073c-3.86,-0.066 -6.36,-0.411 -7.573,-1.054c-1.428,-0.644 -2.759,-1.466 -4.013,-2.483c-0.091,-0.037 -0.176,-0.084 -0.243,-0.143c-1.627,-1.398 -2.853,-2.938 -3.644,-4.573c-0.052,-0.108 -0.083,-0.221 -0.093,-0.336c-0.972,-2.102 -1.233,-4.271 -0.8,-6.623c0.353,-2.322 1.54,-4.649 3.619,-7.085c3.139,-4.046 8.561,-6.115 16.086,-6.115c5.625,-0 12.604,1.157 20.739,3.44c1.342,0.443 2.315,1.224 3.02,2.398c0.718,1.328 0.852,2.615 0.424,3.862c-0.311,1.252 -1.165,2.311 -2.442,2.985c-0.664,0.428 -1.484,0.667 -2.361,0.667c-0.439,0 -0.905,-0.061 -1.389,-0.179c-13.68,-3.906 -22.7,-4.014 -26.477,-0.382c-0.663,0.663 -1.102,1.414 -1.289,2.218c-0.07,0.25 -0.045,0.424 0.062,0.582c0.066,0.099 0.112,0.207 0.141,0.32c0.212,0.353 0.566,0.753 1.057,1.189c0.418,0.364 0.969,0.707 1.634,1.017c0.687,0.129 2.896,0.194 3.861,0.221c0.766,0.068 2.201,0.068 4.186,0.068c0.898,0.03 1.677,0.047 2.374,0.062c0.96,0.021 1.771,0.039 2.445,0.079c3.667,0.121 6.913,0.427 9.36,0.882c0.06,0.003 0.123,0.01 0.162,0.017c4.724,1.01 7.498,2.711 8.724,5.351l0.209,0.453c0.936,2.022 1.132,2.444 1.344,3.214c0.458,1.184 0.497,2.438 0.53,3.443c0.007,0.239 0.015,0.464 0.029,0.667l0.002,0.205c0,1.497 -0.275,2.927 -0.84,4.363c-0.015,0.082 -0.034,0.16 -0.06,0.221c-0.493,1.112 -1.312,2.378 -2.509,3.873c-0.067,0.081 -0.141,0.151 -0.227,0.205c-1.472,1.838 -4.039,3.223 -7.642,4.124c-2.657,0.645 -5.787,1.04 -9.308,1.176c-0.575,0.009 -1.135,0.014 -1.693,0.014Zm-15.767,-10.091c-0.47,-0 -0.918,0.118 -1.327,0.351c-0.828,0.389 -1.324,0.967 -1.586,1.806c-0.311,0.929 -0.052,1.816 0.222,2.4c0.389,0.668 1.011,1.182 1.807,1.449c2.201,0.729 4.927,1.273 8.57,1.714c3.306,0.333 6.489,0.468 9.717,0.397c3.373,-0.131 6.372,-0.508 8.896,-1.121c3.296,-0.824 5.556,-2.042 6.715,-3.619c0.073,-0.099 0.161,-0.182 0.262,-0.246c0.949,-1.207 1.613,-2.225 2.018,-3.1c0.013,-0.062 0.028,-0.12 0.047,-0.168c0.502,-1.24 0.746,-2.468 0.746,-3.751l-0,-0.139c-0.012,-0.159 -0.02,-0.406 -0.03,-0.67c-0.028,-0.904 -0.063,-1.93 -0.432,-2.896c-0.194,-0.687 -0.351,-1.031 -1.263,-3.002l-0.206,-0.451c-0.941,-2.022 -3.253,-3.37 -7.277,-4.24c-0.048,-0.003 -0.097,-0.007 -0.128,-0.013c-1.643,-0.31 -4.569,-0.711 -9.159,-0.863c-0.679,-0.041 -1.464,-0.058 -2.394,-0.078c-0.705,-0.014 -1.492,-0.032 -2.365,-0.062c-2.07,0.009 -3.472,0.002 -4.268,-0.072c-2.578,-0.073 -3.715,-0.15 -4.289,-0.29c-0.06,-0.015 -0.118,-0.035 -0.173,-0.06c-0.88,-0.398 -1.624,-0.86 -2.21,-1.371c-0.761,-0.675 -1.279,-1.299 -1.59,-1.915c-0.031,-0.06 -0.054,-0.12 -0.072,-0.183c-0.323,-0.595 -0.396,-1.28 -0.201,-1.957c0.258,-1.117 0.874,-2.185 1.813,-3.123c4.408,-4.238 13.854,-4.252 28.351,-0.112c0.823,0.201 1.605,0.132 2.262,-0.287c0.865,-0.459 1.349,-1.05 1.549,-1.848c0.272,-0.798 0.18,-1.538 -0.248,-2.336c-0.438,-0.728 -1.045,-1.214 -1.891,-1.495c-7.92,-2.221 -14.719,-3.354 -20.167,-3.354c-6.888,0 -11.789,1.815 -14.566,5.393c-1.864,2.186 -2.904,4.193 -3.205,6.173c-0.381,2.078 -0.123,3.956 0.787,5.771c0.053,0.104 0.086,0.215 0.098,0.328c0.65,1.227 1.604,2.397 2.841,3.488c0.078,0.033 0.152,0.075 0.212,0.125c1.182,0.98 2.386,1.731 3.788,2.365c0.574,0.302 2.141,0.774 6.817,0.857c0.777,0.069 2.191,0.069 4.333,0.069c0.872,0.03 1.631,0.047 2.309,0.062c0.876,0.02 1.62,0.037 2.238,0.074c3.499,0.07 7.034,0.407 8.251,0.784c1.291,0.406 3.495,2.513 3.839,3.897l0.056,0.132c0.239,0.555 0.379,1.019 0.191,2.348c-0.178,1.234 -0.587,1.633 -1.061,1.994c-0.122,0.094 -0.21,0.161 -0.307,0.284c-0.122,0.151 -0.279,0.257 -0.454,0.315c-0.671,0.479 -1.613,0.869 -3.099,1.296c-2.337,0.548 -4.874,0.854 -7.588,0.916c-0.65,0.016 -1.301,0.025 -1.951,0.025c-2.445,-0 -4.674,-0.12 -6.815,-0.369c-2.861,-0.348 -5.362,-0.839 -7.441,-1.455c-0.345,-0.114 -0.661,-0.167 -0.972,-0.167Z" style="fill:#fff;fill-rule:nonzero;"/><path d="M200.752,54.941l-27.188,0c-1.398,0 -2.668,-0.545 -3.576,-1.535c-0.932,-0.847 -1.48,-2.113 -1.48,-3.504l-0,-33.808c-0,-1.395 0.508,-2.607 1.512,-3.603c0.935,-0.926 2.192,-1.434 3.545,-1.434l27.188,0c1.351,0 2.556,0.473 3.582,1.405c1,1.079 1.478,2.278 1.478,3.627c-0,1.387 -0.486,2.576 -1.444,3.534c-1.012,1 -2.227,1.505 -3.616,1.505l-22.127,-0l-0,6.827l16.009,-0c1.356,-0 2.562,0.474 3.584,1.412c0.998,1.082 1.475,2.284 1.475,3.63c0,1.346 -0.513,2.6 -1.444,3.534c-1.008,0.998 -2.223,1.503 -3.616,1.503l-16.008,0l-0,6.828l22.127,-0c1.346,-0 2.551,0.471 3.582,1.403c1.002,1.094 1.478,2.295 1.478,3.639c-0,1.354 -0.513,2.61 -1.446,3.537c-1.003,0.995 -2.22,1.5 -3.615,1.5Zm-27.188,-41.926c-0.832,-0 -1.6,0.308 -2.166,0.867c-0.635,0.63 -0.931,1.333 -0.931,2.212l0,33.808c0,0.835 0.32,1.587 0.903,2.117c0.602,0.652 1.34,0.964 2.195,0.964l27.188,0c0.882,0 1.591,-0.298 2.232,-0.934c0.559,-0.555 0.866,-1.319 0.866,-2.146c0,-0.864 -0.285,-1.579 -0.898,-2.251c-0.611,-0.546 -1.33,-0.831 -2.2,-0.831l-23.107,0c-0.542,0 -0.981,-0.438 -0.981,-0.98l0,-8.785c0,-0.541 0.439,-0.98 0.981,-0.98l16.989,0c0.882,0 1.59,-0.295 2.232,-0.933c0.556,-0.559 0.865,-1.323 0.865,-2.146c-0,-0.864 -0.284,-1.577 -0.897,-2.246c-0.606,-0.552 -1.326,-0.837 -2.2,-0.837l-16.989,0c-0.542,0 -0.981,-0.438 -0.981,-0.98l0,-8.786c0,-0.541 0.439,-0.98 0.981,-0.98l23.106,0c0.879,0 1.589,-0.297 2.234,-0.937c0.581,-0.581 0.864,-1.283 0.864,-2.143c0,-0.853 -0.292,-1.584 -0.896,-2.238c-0.611,-0.549 -1.33,-0.835 -2.202,-0.835l-27.188,-0Z" style="fill:#fff;fill-rule:nonzero;"/><path d="M230.325,57.997c-3.518,-0 -6.865,-0.67 -9.948,-1.989c-2.899,-1.169 -5.453,-2.968 -7.575,-5.341c-0.08,-0.045 -0.155,-0.101 -0.219,-0.172c-2.176,-2.352 -3.824,-5.192 -4.895,-8.439c-1.081,-3.273 -1.539,-6.602 -1.4,-10.178l0.021,-0.574c0.117,-3.121 0.176,-4.686 1.26,-7.531c1.13,-2.966 2.062,-5.213 3.79,-7.086c0.042,-0.063 2.487,-3.257 6.052,-5.022c2.754,-1.366 4.02,-1.629 5.938,-2.028c0.529,-0.11 1.115,-0.232 1.806,-0.395c2.228,-0.394 4.38,-0.588 6.452,-0.588c6.57,0 12.588,1.93 17.882,5.734c1.134,0.847 1.85,2.026 2.089,3.417c0.243,1.498 -0.01,2.84 -0.753,3.998c-0.691,1.159 -1.757,1.951 -3.152,2.324c-0.391,0.082 -0.726,0.115 -1.051,0.115c-0.991,0 -1.937,-0.309 -2.81,-0.921c-5.236,-3.846 -10.689,-5.058 -16.37,-3.665c-0.056,0.013 -0.112,0.023 -0.17,0.027l-0.923,0.239c-1.898,0.491 -3.154,0.814 -4.809,1.642c-1.786,0.889 -2.864,2.54 -2.875,2.557c-0.029,0.047 -0.067,0.093 -0.105,0.134c-0.64,0.694 -1.1,1.57 -1.403,2.678c-0.466,1.669 -0.714,2.944 -0.776,5.301c-0.069,2.3 0.21,4.381 0.827,6.189c0.59,1.77 1.477,3.305 2.643,4.566c1.165,1.324 2.535,2.296 4.204,2.991c0.084,0.036 0.162,0.083 0.234,0.138c1.825,0.724 3.907,1.105 6.038,1.105c5.391,0 9.352,-1.057 11.771,-3.138c0.957,-0.98 1.632,-2.234 1.985,-3.71l-12.401,0c-1.401,0 -2.679,-0.589 -3.598,-1.66c-0.919,-0.905 -1.455,-2.247 -1.455,-3.717c-0,-1.492 0.484,-2.743 1.48,-3.819c0.938,-1.01 2.206,-1.561 3.573,-1.561l17.636,-0c1.305,-0 2.43,0.443 3.44,1.356c1.041,1.108 1.533,2.213 1.611,3.535c0.702,7.838 -1.212,13.817 -5.691,17.74c-3.792,3.799 -9.982,5.748 -18.353,5.748Zm-16.538,-9.091c0.094,0.051 0.18,0.118 0.255,0.204c1.964,2.273 4.349,3.985 7.086,5.088c2.857,1.224 5.945,1.841 9.196,1.841c7.831,-0 13.556,-1.757 17.014,-5.22c4.087,-3.581 5.731,-8.855 5.076,-16.167c-0.051,-0.882 -0.368,-1.576 -1.029,-2.282c-0.593,-0.531 -1.248,-0.794 -2.067,-0.794l-17.636,-0c-0.817,-0 -1.576,0.332 -2.137,0.934c-0.652,0.706 -0.958,1.498 -0.958,2.488c0,0.944 0.332,1.789 0.93,2.383c0.603,0.697 1.332,1.036 2.165,1.036l13.571,-0c0.28,-0 0.547,0.119 0.733,0.33c0.186,0.21 0.274,0.491 0.239,0.769c-0.291,2.359 -1.256,4.432 -2.787,5.998c-2.886,2.488 -7.155,3.669 -13.111,3.669c-2.484,-0 -4.823,-0.444 -6.952,-1.32c-0.09,-0.037 -0.174,-0.087 -0.247,-0.147c-1.872,-0.808 -3.422,-1.926 -4.732,-3.415c-1.341,-1.45 -2.368,-3.222 -3.044,-5.251c-0.69,-2.024 -1.004,-4.339 -0.929,-6.871c0.068,-2.542 0.35,-3.99 0.847,-5.767c0.374,-1.365 0.979,-2.518 1.798,-3.426c0.269,-0.392 1.553,-2.156 3.596,-3.173c1.842,-0.921 3.249,-1.283 5.196,-1.786l1.029,-0.266c0.064,-0.017 0.129,-0.027 0.195,-0.031c6.205,-1.492 12.218,-0.147 17.87,4.002c0.527,0.369 1.079,0.553 1.668,0.553c0.199,0 0.4,-0.021 0.604,-0.062c0.848,-0.23 1.481,-0.695 1.933,-1.45c0.497,-0.777 0.65,-1.632 0.485,-2.644c-0.152,-0.881 -0.605,-1.629 -1.313,-2.159c-6.512,-4.678 -14.236,-6.31 -22.784,-4.809c-0.655,0.156 -1.256,0.281 -1.8,0.394c-1.831,0.381 -2.938,0.612 -5.466,1.866c-3.143,1.556 -5.401,4.494 -5.425,4.524c-1.55,1.69 -2.374,3.679 -3.457,6.527c-0.97,2.543 -1.018,3.821 -1.133,6.907l-0.023,0.575c-0.128,3.339 0.299,6.444 1.304,9.49c0.946,2.859 2.371,5.37 4.24,7.462Z" style="fill:#fff;fill-rule:nonzero;"/><path d="M298.611,56.226c-1.027,0 -2.021,-0.349 -2.879,-1.009c-1.068,-0.761 -1.731,-1.826 -1.997,-3.237c-0.535,-3.576 -1.118,-6.908 -1.743,-9.948l-24.793,-0c-0.543,2.665 -1.048,5.541 -1.503,8.565c-0.25,1.351 -0.923,2.441 -2.006,3.268c-1.219,0.872 -2.487,1.182 -3.829,0.937c-1.311,-0.165 -2.427,-0.845 -3.268,-2.013c-0.789,-1.02 -1.109,-2.265 -0.928,-3.674c4.218,-27.79 12.292,-41.521 24.074,-40.815c0.161,-0.017 0.439,-0.025 0.717,-0.025c11.37,0 18.989,13.794 23.297,42.17c0.164,1.412 -0.151,2.597 -0.986,3.76c-0.891,1.15 -2.007,1.797 -3.34,1.947c-0.227,0.046 -0.523,0.074 -0.816,0.074Zm-32.209,-16.154l26.388,0c0.463,0 0.862,0.325 0.957,0.778c0.695,3.284 1.34,6.919 1.92,10.803c0.168,0.877 0.55,1.501 1.231,1.989c0.71,0.545 1.45,0.727 2.241,0.573c0.867,-0.101 1.518,-0.483 2.058,-1.18c0.527,-0.736 0.719,-1.44 0.615,-2.328c-4.172,-27.477 -11.622,-41.106 -22.072,-40.45c-0.37,-0.015 -0.617,-0.023 -0.862,-0.023c-10.17,0 -17.326,13.173 -21.272,39.152c-0.11,0.863 0.071,1.603 0.558,2.233c0.537,0.746 1.182,1.146 1.997,1.25c0.226,0.038 0.397,0.054 0.565,0.054c0.616,-0 1.205,-0.206 1.801,-0.633c0.668,-0.51 1.081,-1.178 1.238,-2.018c0.499,-3.324 1.066,-6.504 1.678,-9.421c0.096,-0.454 0.497,-0.779 0.959,-0.779Zm24.354,-6.145l-22.333,0c-0.311,0 -0.601,-0.146 -0.786,-0.394c-0.186,-0.248 -0.242,-0.569 -0.154,-0.864c3.129,-10.53 7.092,-15.845 12.114,-16.25c0.05,-0.004 0.105,-0.004 0.158,-0c4.896,0.401 8.802,5.716 11.939,16.25c0.088,0.296 0.03,0.616 -0.154,0.864c-0.181,0.248 -0.473,0.394 -0.784,0.394Zm-21.009,-1.959l19.683,-0c-2.715,-8.539 -6.076,-13.226 -9.757,-13.59c-3.844,0.37 -7.182,4.939 -9.926,13.59Z" style="fill:#fff;fill-rule:nonzero;"/><path d="M347.778,57.01c-2.765,-0 -5.506,-0.141 -8.384,-0.429c-3.812,-0.46 -6.683,-1.037 -9.053,-1.82c-1.256,-0.419 -2.273,-1.258 -2.946,-2.425c-0.652,-1.389 -0.761,-2.724 -0.351,-3.941c0.414,-1.34 1.307,-2.372 2.57,-2.964c1.074,-0.604 2.503,-0.752 3.815,-0.316c1.947,0.58 4.36,1.051 7.143,1.39c2.671,0.308 5.561,0.405 8.558,0.332c2.59,-0.06 5.013,-0.35 7.204,-0.86c0.915,-0.266 2.095,-0.649 2.659,-1.144c0.055,-0.047 0.11,-0.086 0.168,-0.119c0.139,-0.132 0.263,-0.227 0.368,-0.306c0.183,-0.138 0.234,-0.177 0.311,-0.723c0.067,-0.46 0.08,-0.721 0.066,-0.904c-0.103,-0.126 -0.175,-0.278 -0.205,-0.45l-0.067,-0.38c-0.002,-0.01 -0.003,-0.02 -0.004,-0.03c-0.127,-0.515 -1.729,-2.243 -2.542,-2.501c-0.9,-0.277 -4.121,-0.625 -7.744,-0.7c-0.722,-0.041 -1.462,-0.056 -2.332,-0.077c-0.681,-0.015 -1.439,-0.033 -2.275,-0.063c-2.174,0.005 -3.637,0.001 -4.438,-0.071c-3.898,-0.066 -6.422,-0.415 -7.642,-1.064c-1.441,-0.652 -2.783,-1.48 -4.048,-2.504c-0.091,-0.039 -0.174,-0.088 -0.242,-0.145c-1.645,-1.413 -2.88,-2.966 -3.675,-4.614c-0.052,-0.107 -0.084,-0.22 -0.095,-0.336c-0.978,-2.12 -1.243,-4.309 -0.808,-6.679c0.357,-2.341 1.553,-4.688 3.649,-7.144c3.165,-4.081 8.632,-6.169 16.219,-6.169c5.673,0 12.711,1.169 20.917,3.471c1.354,0.448 2.335,1.235 3.047,2.417c0.72,1.335 0.859,2.632 0.433,3.894c-0.318,1.268 -1.177,2.337 -2.466,3.016c-0.671,0.433 -1.496,0.673 -2.383,0.673c-0.447,0 -0.904,-0.057 -1.396,-0.178c-13.797,-3.942 -22.893,-4.051 -26.701,-0.386c-0.67,0.667 -1.11,1.423 -1.3,2.237c-0.07,0.25 -0.046,0.426 0.064,0.587c0.064,0.097 0.112,0.204 0.139,0.316c0.216,0.36 0.575,0.763 1.068,1.199c0.42,0.365 0.978,0.712 1.65,1.025c0.717,0.134 3.008,0.198 3.893,0.224c0.773,0.07 2.219,0.07 4.221,0.07c0.965,0.032 1.794,0.052 2.533,0.067c0.905,0.019 1.677,0.037 2.323,0.075c3.715,0.125 6.987,0.431 9.442,0.888c0.059,0.002 0.122,0.01 0.163,0.018c4.761,1.016 7.557,2.731 8.798,5.397l0.217,0.471c0.941,2.027 1.135,2.448 1.348,3.223c0.463,1.199 0.504,2.463 0.535,3.478c0.01,0.24 0.014,0.465 0.027,0.67c0.003,0.023 0.003,0.181 0.003,0.203c0,1.508 -0.278,2.95 -0.847,4.402c-0.015,0.082 -0.034,0.16 -0.062,0.223c-0.498,1.126 -1.327,2.404 -2.532,3.905c-0.066,0.082 -0.143,0.151 -0.228,0.207c-1.481,1.852 -4.073,3.249 -7.705,4.155c-2.703,0.656 -5.859,1.055 -9.388,1.191c-0.576,0.013 -1.133,0.018 -1.692,0.018Zm-15.914,-10.175c-0.477,-0 -0.929,0.118 -1.347,0.352c-0.833,0.393 -1.331,0.976 -1.595,1.817c-0.314,0.937 -0.051,1.832 0.223,2.421c0.395,0.677 1.021,1.194 1.821,1.462c2.237,0.739 4.986,1.289 8.647,1.73c3.354,0.337 6.559,0.464 9.798,0.401c3.379,-0.131 6.406,-0.511 8.974,-1.134c3.324,-0.831 5.604,-2.059 6.771,-3.646c0.073,-0.101 0.163,-0.185 0.266,-0.249c0.956,-1.212 1.624,-2.237 2.033,-3.124c0.013,-0.063 0.029,-0.122 0.049,-0.169c0.506,-1.256 0.753,-2.493 0.753,-3.786c-0.014,-0.297 -0.022,-0.547 -0.03,-0.811c-0.028,-0.913 -0.062,-1.946 -0.437,-2.926c-0.194,-0.689 -0.351,-1.035 -1.265,-3.007l-0.216,-0.468c-0.949,-2.042 -3.283,-3.404 -7.338,-4.28c-0.047,-0.003 -0.096,-0.007 -0.126,-0.013c-1.651,-0.31 -4.592,-0.713 -9.237,-0.869c-0.65,-0.038 -1.398,-0.054 -2.276,-0.072c-0.747,-0.016 -1.588,-0.035 -2.526,-0.068c-2.087,0.001 -3.503,0.001 -4.304,-0.074c-2.546,-0.07 -3.736,-0.151 -4.323,-0.29c-0.061,-0.015 -0.121,-0.036 -0.178,-0.063c-0.883,-0.404 -1.631,-0.868 -2.225,-1.38c-0.766,-0.677 -1.288,-1.306 -1.606,-1.934c-0.031,-0.059 -0.055,-0.121 -0.071,-0.185c-0.327,-0.6 -0.399,-1.289 -0.202,-1.968c0.256,-1.114 0.893,-2.221 1.827,-3.152c4.444,-4.278 13.973,-4.294 28.59,-0.111c0.829,0.201 1.615,0.132 2.279,-0.293c0.873,-0.463 1.361,-1.061 1.566,-1.867c0.269,-0.806 0.179,-1.554 -0.254,-2.358c-0.443,-0.733 -1.054,-1.224 -1.909,-1.507c-7.988,-2.241 -14.846,-3.383 -20.339,-3.383c-6.945,-0 -11.887,1.829 -14.686,5.439c-1.88,2.203 -2.928,4.228 -3.234,6.224c-0.384,2.094 -0.122,3.985 0.793,5.817c0.054,0.105 0.086,0.217 0.1,0.33c0.652,1.235 1.615,2.416 2.866,3.518c0.079,0.035 0.153,0.077 0.213,0.126c1.189,0.987 2.404,1.745 3.819,2.385c0.578,0.308 2.157,0.784 6.875,0.868c0.781,0.067 2.207,0.067 4.367,0.067c0.864,0.03 1.613,0.046 2.285,0.062c0.903,0.02 1.67,0.038 2.304,0.079c1.156,0.022 7.748,0.611 8.317,0.785c1.307,0.417 3.527,2.542 3.874,3.934l0.058,0.135c0.239,0.559 0.381,1.025 0.189,2.365c-0.178,1.246 -0.593,1.65 -1.072,2.015c-0.122,0.092 -0.21,0.16 -0.308,0.283c-0.12,0.148 -0.279,0.257 -0.452,0.315c-0.674,0.479 -1.625,0.873 -3.131,1.307c-2.372,0.554 -4.931,0.862 -7.654,0.925c-0.666,0.018 -1.335,0.027 -2.004,0.027c-2.428,-0 -4.662,-0.122 -6.836,-0.372c-2.899,-0.354 -5.421,-0.848 -7.503,-1.467c-0.342,-0.11 -0.659,-0.163 -0.973,-0.163Z" style="fill:#fff;fill-rule:nonzero;"/><path d="M413.736,59.221c-1.049,0 -2.026,-0.343 -2.911,-1.021c-1.078,-0.758 -1.745,-1.833 -2.016,-3.261c-0.547,-3.659 -1.132,-7.02 -1.752,-10.032l-25.008,0c-0.543,2.674 -1.052,5.574 -1.519,8.634c-0.252,1.363 -0.93,2.462 -2.02,3.297c-0.97,0.692 -1.926,1.019 -2.946,1.019c-0.29,0 -0.593,-0.027 -0.907,-0.081c-1.323,-0.155 -2.454,-0.84 -3.309,-2.031c-0.849,-1.103 -1.174,-2.411 -0.92,-3.76c4.372,-28.355 12.327,-41.823 24.264,-41.098c0.163,-0.017 0.447,-0.025 0.724,-0.025c11.465,0 19.152,13.908 23.497,42.52c0.168,1.414 -0.149,2.609 -0.995,3.792c-0.895,1.152 -2.013,1.806 -3.351,1.973c-0.245,0.047 -0.542,0.074 -0.831,0.074Zm-32.494,-16.289l26.618,-0c0.466,-0 0.868,0.327 0.967,0.783c0.686,3.248 1.335,6.915 1.93,10.896c0.168,0.886 0.552,1.514 1.239,2c0.722,0.551 1.46,0.734 2.264,0.585c0.869,-0.111 1.527,-0.502 2.072,-1.202c0.534,-0.749 0.728,-1.459 0.621,-2.347c-4.208,-27.706 -11.668,-41.448 -22.263,-40.787c-0.371,-0.015 -0.622,-0.022 -0.869,-0.022c-10.19,-0 -17.406,13.283 -21.447,39.482c-0.155,0.823 0.035,1.568 0.557,2.247c0.544,0.758 1.196,1.159 2.009,1.257c0.252,0.042 0.441,0.06 0.622,0.06c0.611,-0 1.157,-0.196 1.772,-0.633c0.673,-0.515 1.091,-1.189 1.246,-2.036c0.512,-3.366 1.083,-6.571 1.695,-9.495c0.096,-0.46 0.499,-0.788 0.967,-0.788Zm24.576,-6.211l-22.536,0c-0.313,0 -0.605,-0.147 -0.791,-0.396c-0.188,-0.251 -0.245,-0.574 -0.155,-0.873c3.157,-10.613 7.155,-15.972 12.218,-16.381c0.055,-0.001 0.105,-0.007 0.159,-0c4.965,0.396 8.908,5.755 12.053,16.382c0.088,0.299 0.029,0.622 -0.156,0.872c-0.187,0.25 -0.482,0.396 -0.792,0.396Zm-21.2,-1.975l19.865,-0c-2.752,-8.731 -6.064,-13.338 -9.848,-13.699c-3.882,0.371 -7.247,4.978 -10.017,13.699Z" style="fill:#fff;fill-rule:nonzero;"/><path d="M432.327,58.545c-1.405,-0 -2.686,-0.55 -3.605,-1.546c-0.943,-0.859 -1.495,-2.136 -1.495,-3.538l0,-30.373l-12.717,0c-1.41,0 -2.693,-0.551 -3.61,-1.548c-0.942,-0.862 -1.493,-2.138 -1.493,-3.534c0,-1.4 0.513,-2.622 1.522,-3.631c0.947,-0.934 2.217,-1.446 3.582,-1.446l35.638,-0c1.367,-0 2.581,0.475 3.613,1.415c1.007,1.088 1.487,2.3 1.483,3.663c0,1.363 -0.516,2.629 -1.454,3.563c-1.004,1.005 -2.229,1.516 -3.642,1.516l-12.717,-0l-0,30.375c-0,1.367 -0.519,2.634 -1.464,3.569c-1.004,1.004 -2.23,1.515 -3.641,1.515Zm-17.817,-43.642c-0.843,0 -1.618,0.31 -2.187,0.873c-0.64,0.639 -0.938,1.349 -0.938,2.229c-0,0.85 0.314,1.588 0.912,2.138c0.603,0.654 1.349,0.97 2.213,0.97l13.704,-0c0.548,-0 0.989,0.442 0.989,0.988l0,31.36c0,0.853 0.316,1.593 0.911,2.14c0.608,0.655 1.353,0.97 2.213,0.97c0.892,0 1.609,-0.298 2.247,-0.939c0.568,-0.566 0.88,-1.335 0.88,-2.17l0,-31.364c0,-0.546 0.444,-0.988 0.989,-0.988l13.705,-0c0.893,-0 1.609,-0.299 2.245,-0.938c0.567,-0.563 0.877,-1.332 0.877,-2.167c0,-0.875 -0.287,-1.593 -0.902,-2.262c-0.612,-0.553 -1.339,-0.84 -2.221,-0.84l-35.637,0Z" style="fill:#fff;fill-rule:nonzero;"/><path d="M482.55,57.995l-6.1,-0c-2.93,-0 -5.57,-0.516 -8.066,-1.576c-2.414,-1.035 -4.571,-2.482 -6.598,-4.426c-1.95,-2.016 -3.35,-4.085 -4.299,-6.341c-0.081,-0.084 -0.146,-0.178 -0.188,-0.285c-1.059,-2.703 -1.576,-5.319 -1.576,-8l0,-20.247c0,-1.412 0.554,-2.689 1.56,-3.596c0.851,-0.932 2.131,-1.482 3.54,-1.482c1.424,0 2.616,0.495 3.641,1.515c0.942,0.93 1.46,2.195 1.46,3.563l-0,20.247c-0,1.341 0.274,2.711 0.816,4.07c0.022,0.057 0.038,0.114 0.051,0.172c0.54,1.148 1.249,2.168 2.221,3.194c1.197,1.112 2.205,1.787 3.329,2.21c1.32,0.565 2.613,0.821 4.105,0.821l6.101,-0c1.506,-0 2.871,-0.269 4.05,-0.799c1.166,-0.442 2.208,-1.138 3.427,-2.275c1.095,-1.161 1.795,-2.196 2.226,-3.312c0.551,-1.23 0.819,-2.586 0.819,-4.081l0,-20.247c0,-1.406 0.554,-2.682 1.559,-3.594c0.856,-0.935 2.136,-1.484 3.542,-1.484c1.413,0 2.638,0.511 3.644,1.518c0.932,0.916 1.456,2.179 1.469,3.551l0,20.257c0,2.887 -0.519,5.534 -1.586,8.089c-0.034,0.08 -0.075,0.154 -0.127,0.221c-1.02,2.271 -2.436,4.331 -4.322,6.288c-1.988,1.899 -4.061,3.31 -6.36,4.333c-0.063,0.05 -0.134,0.091 -0.213,0.123c-2.562,1.058 -5.219,1.573 -8.125,1.573Zm-23.515,-13.623c0.073,0.079 0.131,0.169 0.17,0.266c0.852,2.124 2.152,4.071 3.973,5.957c1.827,1.749 3.792,3.068 5.981,4.006c2.245,0.955 4.631,1.42 7.291,1.42l6.1,-0c2.545,-0 4.874,-0.431 7.111,-1.319c0.053,-0.039 0.111,-0.072 0.177,-0.101c2.184,-0.935 4.151,-2.254 6.016,-4.035c1.765,-1.834 3.091,-3.789 4.023,-5.951c0.029,-0.066 0.064,-0.127 0.104,-0.184c0.892,-2.229 1.327,-4.543 1.327,-7.064l0,-20.247c-0.009,-0.835 -0.324,-1.606 -0.884,-2.158c-0.646,-0.645 -1.36,-0.944 -2.255,-0.944c-0.861,-0 -1.604,0.315 -2.151,0.909c-0.65,0.595 -0.974,1.352 -0.974,2.193l0,20.247c0,1.774 -0.327,3.403 -0.972,4.84c-0.506,1.319 -1.331,2.555 -2.655,3.954c-0.999,0.933 -2.321,2.04 -4.065,2.701c-1.384,0.622 -3.02,0.948 -4.806,0.948l-6.101,-0c-1.745,-0 -3.331,-0.315 -4.843,-0.964c-1.701,-0.641 -3.024,-1.749 -3.981,-2.639c-1.2,-1.264 -2.066,-2.536 -2.699,-3.932c-0.036,-0.081 -0.063,-0.167 -0.076,-0.255c-0.596,-1.546 -0.898,-3.111 -0.898,-4.653l0,-20.247c0,-0.835 -0.311,-1.603 -0.875,-2.161c-0.647,-0.643 -1.363,-0.941 -2.25,-0.941c-0.85,-0 -1.613,0.323 -2.15,0.906c-0.816,0.742 -0.971,1.596 -0.971,2.195l-0,20.247c-0.002,2.341 0.436,4.635 1.333,7.006Z" style="fill:#fff;fill-rule:nonzero;"/><path d="M509.85,57.266c-1.442,0 -2.758,-0.51 -3.807,-1.478c-1.005,-0.941 -1.553,-2.208 -1.553,-3.571l-0,-35.216c-0,-1.269 0.486,-2.41 1.443,-3.394c0.999,-1.014 2.175,-1.569 3.492,-1.66c13.013,-1.025 22.894,-0.516 29.447,1.529c8.792,2.587 13.099,7.431 12.79,14.396c-0.082,5.87 -2.802,10.108 -8.084,12.569c-0.732,0.357 -1.551,0.68 -2.469,0.974l9.819,6.656c1.183,0.849 1.906,1.968 2.169,3.34c0.182,1.378 -0.161,2.656 -0.986,3.756c-0.9,1.177 -2.106,1.855 -3.594,2.022c-0.25,0.043 -0.556,0.07 -0.855,0.07c-1.082,-0 -2.103,-0.332 -3.032,-0.989l-21.853,-14.887c-1.043,-0.702 -1.718,-1.555 -2.064,-2.606c-0.313,-1.247 -0.244,-2.328 0.183,-3.282c0.448,-1.086 1.21,-1.935 2.255,-2.499c0.94,-0.578 2.02,-0.809 3.309,-0.725c5.532,0.596 9.673,0.289 12.45,-0.87c1.42,-0.689 2.075,-1.818 2.014,-3.528c-0.177,-2.163 -1.927,-3.739 -5.347,-4.775c-4.755,-1.347 -11.628,-1.815 -20.367,-1.366l0,30.486c0,1.409 -0.59,2.686 -1.658,3.597c-0.935,0.943 -2.199,1.451 -3.702,1.451Zm11.637,-43.862c-3.58,0 -7.59,0.173 -11.917,0.515c-0.846,0.057 -1.569,0.409 -2.226,1.074c-0.597,0.614 -0.881,1.254 -0.881,2.01l-0,35.216c-0,0.811 0.33,1.565 0.926,2.123c0.672,0.619 1.523,0.95 2.46,0.95c0.969,-0 1.741,-0.303 2.36,-0.925c0.691,-0.594 1.025,-1.317 1.025,-2.148l-0,-31.424c-0,-0.524 0.409,-0.956 0.932,-0.986c9.387,-0.537 16.8,-0.067 21.966,1.391c4.245,1.287 6.514,3.492 6.763,6.558c0.091,2.527 -1.007,4.394 -3.173,5.443c-3.177,1.33 -7.663,1.662 -13.434,1.038c-0.099,-0.006 -0.231,-0.011 -0.361,-0.011c-0.7,-0 -1.252,0.147 -1.79,0.478c-0.699,0.379 -1.138,0.868 -1.426,1.569c-0.26,0.575 -0.287,1.206 -0.1,1.954c0.185,0.557 0.597,1.062 1.272,1.519l21.873,14.901c0.772,0.546 1.604,0.74 2.483,0.586c1.017,-0.115 1.728,-0.513 2.296,-1.257c0.51,-0.683 0.717,-1.441 0.612,-2.25c-0.16,-0.827 -0.593,-1.491 -1.35,-2.036l-11.567,-7.84c-0.323,-0.221 -0.487,-0.61 -0.416,-0.994c0.068,-0.386 0.36,-0.694 0.741,-0.785c1.675,-0.4 3.04,-0.863 4.171,-1.414c4.616,-2.15 6.887,-5.694 6.959,-10.842c0.269,-6.053 -3.457,-10.115 -11.387,-12.447c-4.175,-1.306 -9.829,-1.966 -16.811,-1.966Z" style="fill:#fff;fill-rule:nonzero;"/><path d="M594.878,57.857c-0.317,0 -0.636,-0.027 -0.965,-0.081c-1.04,-0.25 -1.888,-0.734 -2.66,-1.496l-25.526,-26.353l-0,22.852c-0,1.368 -0.519,2.634 -1.462,3.566c-1.003,1.002 -2.228,1.511 -3.638,1.511c-1.41,0 -2.689,-0.55 -3.605,-1.546c-0.941,-0.843 -1.492,-2.121 -1.492,-3.531l0,-35.458c0,-1.055 0.304,-2 0.933,-2.888c0.464,-0.769 1.304,-1.425 2.326,-1.789c0.773,-0.36 1.839,-0.489 2.885,-0.322c1.005,0.252 1.833,0.702 2.623,1.394l25.5,26.454l0,-22.849c0,-1.399 0.511,-2.621 1.522,-3.63c0.953,-0.938 2.221,-1.451 3.577,-1.451c1.357,0 2.571,0.477 3.607,1.418c1.014,1.089 1.497,2.301 1.497,3.663l-0,35.458c-0,1.055 -0.292,2.005 -0.867,2.822c-0.537,0.833 -1.26,1.446 -2.251,1.899c-0.763,0.254 -1.383,0.357 -2.004,0.357Zm-30.139,-31.358c0.263,0 0.519,0.105 0.711,0.301l27.207,28.089c0.5,0.495 1.032,0.801 1.651,0.952c0.439,0.067 1.163,0.046 1.858,-0.18c0.537,-0.253 0.98,-0.624 1.33,-1.164c0.367,-0.525 0.529,-1.06 0.529,-1.718l-0,-35.458c-0,-0.872 -0.29,-1.59 -0.908,-2.26c-0.621,-0.557 -1.346,-0.845 -2.221,-0.845c-0.833,-0 -1.61,0.311 -2.185,0.879c-0.64,0.637 -0.939,1.346 -0.939,2.227l-0,25.297c-0,0.404 -0.243,0.766 -0.617,0.917c-0.375,0.149 -0.803,0.059 -1.081,-0.23l-27.138,-28.159c-0.497,-0.431 -1.045,-0.731 -1.66,-0.89c-0.118,-0.015 -0.325,-0.033 -0.53,-0.033c-0.441,0 -0.849,0.085 -1.211,0.251c-0.678,0.246 -1.154,0.604 -1.419,1.042c-0.427,0.608 -0.608,1.164 -0.608,1.805l-0,35.458c-0,0.858 0.312,1.593 0.904,2.129c0.612,0.658 1.355,0.972 2.217,0.972c0.891,-0 1.603,-0.299 2.246,-0.94c0.567,-0.56 0.878,-1.326 0.878,-2.162l0,-25.292c0,-0.403 0.243,-0.766 0.616,-0.916c0.119,-0.049 0.246,-0.072 0.37,-0.072Z" style="fill:#fff;fill-rule:nonzero;"/></g><g><path d="M33.745,62.951l-0.283,0.042c-9.854,1.176 -14.776,0.74 -20.048,0.413c-5.271,-0.328 -5.218,-2.857 -5.176,-3.935c0.043,-1.081 1.005,-3.573 4.963,-3.826c1.413,-0.184 6.879,0.198 12.447,0.091c2.301,2.805 5.034,5.244 8.097,7.215Z" style="fill:#fff;"/><path d="M17.997,29.901c-1.742,1.071 -3.273,2.132 -4.509,3.066c-2.216,1.676 -4.978,4.693 -4.866,7.069c-0,-0 2.533,1.015 10.341,-0.702l0,0.001c0.184,-0.036 0.797,-0.153 1.776,-0.364l-0.002,-0.013c3.391,-0.723 7.37,-1.805 12.077,-3.202c3.955,-1.166 8.95,-2.788 15.111,-4.799l15.434,-5.057c5.836,-1.947 10.508,-3.375 14.139,-4.413c1.437,-0.413 2.872,-0.77 4.26,-1.075l0,0.002c0.617,-0.136 1.224,-0.261 1.819,-0.376l-0.001,-0.002c2.477,-0.481 4.733,-0.791 6.5,-0.959c2.202,-0.209 8.613,-0.772 11.983,2.381c2.942,2.751 1.909,8.612 -0.928,12.876c-2.645,3.978 -6.614,8.563 -16.96,13.567c1.474,-3.292 2.451,-6.857 2.832,-10.596c6.738,-4.607 8.523,-8.84 8.673,-10.712c-2.414,-0.437 -6.211,0.07 -9.794,0.827l0.002,0.023c-0.907,0.162 -6.243,1.567 -6.243,1.567c-3.57,0.973 -8.173,2.401 -13.815,4.281l-15.435,5.058l-0.14,0.045c-5.839,1.946 -10.705,3.491 -14.594,4.688c-0.228,0.07 -0.44,0.136 -0.636,0.196c-1.39,0.392 -2.727,0.753 -4.011,1.087c-3.03,0.789 -5.74,1.419 -8.144,1.937l-0.001,-0.002c-0.623,0.134 -1.224,0.261 -1.804,0.381c-4.731,0.914 -16.896,2.788 -20.321,-3.068c-1.339,-2.289 -0.84,-6.11 1.334,-9.481c2.174,-3.37 3.549,-4.65 6.794,-7.327c3.247,-2.677 7.087,-4.845 10.068,-6.354c0.558,-0.283 1.196,-0.596 1.896,-0.931c-1.455,3.229 -2.431,6.719 -2.835,10.381Z" style="fill:#fff;"/><path d="M17.997,29.901c-1.742,1.071 -3.273,2.132 -4.509,3.066c-2.216,1.676 -4.978,4.693 -4.866,7.069c-0,-0 2.533,1.015 10.341,-0.702l0,0.001c0.184,-0.036 0.797,-0.153 1.776,-0.364l-0.002,-0.013c3.391,-0.723 7.37,-1.805 12.077,-3.202c3.955,-1.166 8.95,-2.788 15.111,-4.799l15.434,-5.057c5.836,-1.947 10.508,-3.375 14.139,-4.413c1.437,-0.413 2.872,-0.77 4.26,-1.075l0,0.002c0.617,-0.136 1.224,-0.261 1.819,-0.376l-0.001,-0.002c2.477,-0.481 4.733,-0.791 6.5,-0.959c2.202,-0.209 8.613,-0.772 11.983,2.381c2.942,2.751 1.909,8.612 -0.928,12.876c-2.645,3.978 -6.614,8.563 -16.96,13.567c1.474,-3.292 2.451,-6.857 2.832,-10.596c6.738,-4.607 8.523,-8.84 8.673,-10.712c-2.414,-0.437 -6.211,0.07 -9.794,0.827l0.002,0.023c-0.907,0.162 -6.243,1.567 -6.243,1.567c-3.57,0.973 -8.173,2.401 -13.815,4.281l-15.435,5.058l-0.14,0.045c-5.839,1.946 -10.705,3.491 -14.594,4.688c-0.228,0.07 -0.44,0.136 -0.636,0.196c-1.39,0.392 -2.727,0.753 -4.011,1.087c-3.03,0.789 -5.74,1.419 -8.144,1.937l-0.001,-0.002c-0.623,0.134 -1.224,0.261 -1.804,0.381c-4.731,0.914 -16.896,2.788 -20.321,-3.068c-1.339,-2.289 -0.84,-6.11 1.334,-9.481c2.174,-3.37 3.549,-4.65 6.794,-7.327c3.247,-2.677 7.087,-4.845 10.068,-6.354c0.558,-0.283 1.196,-0.596 1.896,-0.931c-1.455,3.229 -2.431,6.719 -2.835,10.381Z" style="fill:#fff;"/><path d="M85.256,29.247c0.2,1.471 0.304,2.974 0.304,4.501c0,18.255 -14.821,33.076 -33.076,33.076c-13.15,-0 -24.517,-7.691 -29.847,-18.815c0.459,-0.098 0.92,-0.196 1.227,-0.263c0.004,-0 0.007,-0.001 0.011,-0.002l1.437,-0.32c2.426,-0.523 3.046,-0.691 6.107,-1.488c1.294,-0.336 2.642,-0.7 4.043,-1.095c0.012,-0.004 0.024,-0.007 0.035,-0.011c0.197,-0.06 0.411,-0.126 0.64,-0.197c3.897,-1.199 8.772,-2.747 14.622,-4.697l0.137,-0.044l15.436,-5.058c0.002,-0 0.005,-0.001 0.008,-0.002c5.603,-1.867 10.175,-3.287 13.721,-4.253c0.175,-0.046 3.466,-0.915 5.195,-1.332Z" style="fill:#fff;"/><path d="M19.625,37.546c-0.143,-1.246 -0.216,-2.513 -0.216,-3.798c-0,-18.255 14.82,-33.076 33.075,-33.076c12.841,0 23.983,7.334 29.464,18.04l-0.539,0.114c-1.42,0.312 -2.888,0.678 -4.358,1.101c-3.647,1.042 -8.34,2.476 -14.202,4.431c-0,0 -15.429,5.056 -15.429,5.056c-6.142,2.005 -11.122,3.622 -15.065,4.785c-0.001,-0 -0.002,0 -0.003,0c-4.659,1.383 -8.597,2.455 -11.954,3.171c-0.067,0.014 -0.133,0.033 -0.197,0.056c-0.205,0.043 -0.399,0.084 -0.576,0.12Z" style="fill:#fff;"/><path d="M71.764,4.9c1.976,-0.229 3.909,-0.407 5.802,-0.535c5.123,-0.324 9.077,-0.324 13.229,0.132c1.038,0.065 2.594,0.583 3.308,1.425c0.647,0.78 0.971,1.752 0.841,2.856c-0.129,1.036 -0.583,1.881 -1.427,2.594c-0.843,0.648 -2.758,0.934 -4.1,0.842c-1.201,-0.083 -5.599,-0.382 -9.861,-0.164c-2.215,-2.76 -4.844,-5.175 -7.792,-7.15Z" style="fill:#fff;"/></g></g></svg>