<svg clip-rule="evenodd" fill-rule="evenodd" stroke-linejoin="round" stroke-miterlimit="2" viewBox="0 0 600 230" xmlns="http://www.w3.org/2000/svg"><g fill="#fff"><path d="m410 120.28h-220v109h220zm-70.827 99.134c0 2.061-1.65 3.917-3.711 3.917h-3.918c-2.061 0-3.711-1.856-3.711-3.917v-8.041c0-2.062 1.65-3.917 3.711-3.917h3.918c2.061 0 3.711 1.855 3.711 3.917 0 0-.035 1.625 0 2.062h-4.536c0-2.062 0-2.681-.928-2.681s-.928.619-.928 2.681v3.711c0 2.062 0 2.68.934 2.68.922 0 .922-.618.922-2.68h4.536zm38.554-11.958v3.505h-4.33v2.474h3.711v3.505h-3.711v2.68h4.33v3.505h-9.278v-15.669zm5.979 0 2.68 7.834v-7.834h4.536v15.669h-4.536l-3.092-8.453v8.453h-4.536v-15.669zm18.556 0v3.505h-2.681v12.164h-4.948v-12.164h-2.68v-3.505zm-197.926 0 1.955 8.04 1.962-8.04h6.185v15.669h-4.535v-9.484l-2.681 9.484h-1.855l-2.68-9.484v9.484h-4.536v-15.669zm43.915 0h6.803l3.093 15.669h-4.948l-.412-2.887h-2.268l-.413 2.887h-4.948zm55.46 0h6.804l3.092 15.669h-4.948l-.412-2.887h-2.268l-.412 2.887h-4.948zm-59.584 0v15.669h-4.948v-15.669zm74.841 7.216v8.453h-4.536v-15.669h4.948l2.68 7.834v-7.834h4.536v15.669h-4.536zm37.729-7.216 2.171 8.04 2.159-8.04h5.979v15.669h-4.536v-9.484l-2.68 9.484h-1.856l-2.68-9.278v9.278h-4.536v-15.669zm-77.727 0 2.681 7.834v-7.834h4.535v15.669h-4.535l-3.093-8.453v8.453h-4.536v-15.669zm-53.811 0v3.505h-4.329v2.474h3.711v3.505h-3.711v2.68h4.329v3.505h-9.277v-15.669zm120.199 9.484v2.68h4.33v3.505h-9.278v-15.669h9.278v3.505h-4.33v2.474h3.711v3.505zm-52.78 6.185h-4.948v-15.669h4.948v5.979h2.062v-5.979h4.948v15.669h-4.948v-6.185h-2.062zm-66.182 0v-15.669h5.979c5.361 0 5.361 3.711 5.361 3.711v8.247s0 3.711-4.124 3.711zm42.266-6.185v2.68h4.329v3.505h-9.277v-15.669h9.277v3.505h-4.329v2.474h3.711v3.505zm-35.462-3.505c.008-2.066-.412-2.474-2.062-2.474v8.659c1.65 0 2.062-.412 2.062-2.474zm73.191 3.298h1.444l-.72-5.979zm-55.46 0h1.443l-.728-5.979zm151.537-18.967v5.772h-204.936v-5.772zm-119.609-4.003h28.77c11.759 0 21.328-9.946 21.328-22.163s-9.569-22.103-21.328-22.103h-7.501c-.591 0-1.066-.49-1.066-1.105 0-.674.473-1.165 1.066-1.165h28.712l.06-9.333h-28.772c-5.554 0-10.044 4.667-10.044 10.438 0 5.833 4.488 10.56 10.044 10.56h7.501c6.735 0 12.231 5.711 12.231 12.709 0 7-5.496 12.647-12.231 12.647h-28.77zm86.455-25.236c-5.221-.518-9.302-5.067-9.302-10.597v-31.7h-21.687c.013 1.893.09 33.118.09 34.592 0 17.858 13.743 32.397 30.899 32.941zm7.779 24.501-3.519-25.005c-.742.256-1.525.429-2.332.504v25.236c2.002-.06 3.958-.312 5.851-.735zm-135.867-10.285 36.565-56.513v67.533h-80.259l43.694-67.533zm145.255 6.492-10.602-22.35c-.385.256-.786.485-1.204.687l5.681 24.537c2.152-.737 4.203-1.704 6.125-2.874zm7.305-6.105-15.678-18.254c-.364.436-.764.845-1.191 1.215l12.033 21.478c1.754-1.307 3.375-2.798 4.836-4.439zm-110.927-1.032h28.77c5.614 0 10.105-4.727 10.105-10.498s-4.49-10.498-10.105-10.498h-7.501c-6.734 0-12.171-5.772-12.171-12.771s5.438-12.647 12.171-12.647h28.77l-.059-9.454h-28.714c-11.756 0-21.267 9.883-21.267 22.162 0 12.217 9.511 22.103 21.267 22.103h7.444c.59 0 1.064.491 1.064 1.105s-.473 1.105-1.064 1.105h-28.712zm116.14-6.862-19.402-12.701c-.198.424-.425.836-.673 1.227l17.275 16.316c1.062-1.522 1.998-3.141 2.8-4.842zm2.84-9.388-21.33-6.466c-.076.576-.197 1.14-.359 1.683l20.281 10.621c.633-1.876 1.11-3.825 1.408-5.838zm.612-8.446c.006-.234.012-.496.017-.79l-22.01-.134c0 .017.001.035 0 .053h.069c.047.373.071.749.079 1.132l21.57 4.605c.21-1.797.233-3.489.275-4.866zm.017-31.172h-21.687v28.668h21.687z"/><path d="m271.237 109.36h25.212l-35.827-42.731c-1.008-1.619-2.061-2.732-3.067-3.39-1.04-.681-2.105-.97-3.145-.97h-34.342v47.091h21.42v-11.755s1.794 2.66 1.794 2.66h20.309s7.646 9.095 7.646 9.095zm-210.461-46.09v-1.001h-23.221c-1.041 0-2.105.289-3.146.97-1.017.666-2.083 1.796-3.101 3.446 0-.001-29.146 39.728-29.146 39.728l-2.162 2.947h22.229l24.158-33.705c.303-.235.58-.402.898-.402h4.149s-25.022 34.107-25.022 34.107h22.213l21.312-29.051v29.051h21.421v-47.091h-27.392c-1.04 0-2.105.289-3.145.97zm92.567 17.114v24.758c0 1.385.545 2.389 1.392 3.082.845.691 2.069 1.136 3.758 1.136h55.604c1.689 0 2.913-.445 3.758-1.136.847-.692 1.392-1.697 1.392-3.082v-25.82h-26.074l-7.938 12.985h12.591v4.069h-23.062v-14.719s3.248-6.376 3.248-6.376l.022-.028h38.433v-12.984h-49.633c-2.479 0-4.036.83-4.875 2.172.001-.002-7.648 11.372-7.648 11.372-.662 1.082-.968 2.133-.968 3.18v.329h-38.554s2.059-4.041 2.059-4.041l.022-.028h35.652v-12.984h-46.853c-2.478 0-4.035.83-4.874 2.172 0-.002-7.648 11.372-7.648 11.372-.662 1.082-.968 2.133-.968 3.18v30.367h60.343v-12.984h-38.923v-4.069h32.455zm-97.306-9.02h-8.752c-1.466 0-2.987.506-4.453 1.704l-.215.177-23.099 32.226h-11.133l27.076-36.908.041-.067c.46-.751.909-1.357 1.368-1.807.152-.15.302-.278.454-.383.09-.062.141-.148.231-.148h18.482zm3.761 0 2.073-2.797.043-.071c.459-.751.909-1.357 1.368-1.807.152-.15.302-.278.454-.383.09-.062.141-.148.231-.148h22.652v39.313h-11.942v-39.162l-28.731 39.162h-11.15s25.022-34.107 25.022-34.107zm182.766 19.806 3.512 5.206h20.004s7.645 9.095 7.645 9.095h13.711l-30.901-36.855-.073-.12c-.459-.751-.909-1.357-1.368-1.807-.152-.15-.302-.278-.454-.383-.09-.062-.14-.148-.23-.148h-29.603v39.313h11.942v-34.107h5.15c1.466 0 2.987.506 4.453 1.704l.153.126 15.132 17.976zm-131.334-2.752h-2.37v11.847h38.923v5.206h-50.865v-26.478c0-.457.15-.912.424-1.369.001-.002 7.644-11.368 7.644-11.368.039-.062.089-.045.13-.053.164-.034.349-.045.553-.045h42.114v5.206h-30.993c-1.848 0-3.279.699-4.203 2.21l-.037.06-4.879 9.577h38.642s-3.183 5.207-3.183 5.207c-6.434 0-31.9 0-31.9 0zm103.239 17.021c-.102.015-.255.032-.372.032h-55.604c-.117 0-.27-.017-.372-.032-.018-.083-.039-.206-.039-.297v-26.149c0-.457.15-.912.424-1.369.001-.002 7.645-11.368 7.645-11.368.038-.062.088-.045.13-.053.163-.034.348-.045.553-.045h44.893v5.206h-33.773c-1.847 0-3.279.699-4.203 2.21l-.036.06-3.691 7.243v19.388h32.542v-11.847h-9.651s3.183-5.207 3.183-5.207h18.41v21.931c0 .091-.021.214-.039.297zm38.135-18.158h-11.116v-12.028h.411c.339 0 .631.19.958.449 0 0 9.747 11.579 9.747 11.579z"/><path d="m396.759 83.955 19.353 26.325h44.064v-48.981h-22.035v48l-12.041-17.349s10.449-9.99 10.449-9.99l.639-2.104-.561-1.845-7.678-13.246c-1.487-2.448-3.518-3.466-5.734-3.466h-48.491v48.981h22.035zm86.478-6.48v-16.176h-22.035v18.557c0 1.973.371 3.442.97 4.428l.057.093 20.225 25.903h31.418l20.226-25.903.056-.093c.599-.986.97-2.455.97-4.427v-18.558h-22.035v16.176s-14.926 17.922-14.926 17.922zm74.948 15.006h33.688l8.127-13.382h-40.635s2.199-4.346 2.199-4.346l.056-.072h36.921v-13.382h-48.491c-2.531 0-4.124.847-4.981 2.227.001-.002-7.929 11.869-7.929 11.869-.676 1.114-.99 2.196-.99 3.275v31.61h62.391v-13.382h-40.356zm-201.99-31.182h-50.653v48.981h50.653c2.215 0 4.247-1.018 5.724-3.45l.007-.011c.006-.011 11.282-19.178 11.282-19.178l.563-1.851-.563-1.852-11.282-19.178c-1.484-2.443-3.516-3.461-5.731-3.461zm232.745 27.293s-35.495.02-35.495.02v12.175h40.357v5.604h-52.913c0-6.597 0-27.721 0-27.721 0-.492.16-.982.453-1.474 0-.001 7.925-11.865 7.925-11.865.05-.081.122-.08.192-.095.175-.036.372-.048.591-.048h43.752v5.604h-32.222c-1.882 0-3.342.715-4.283 2.264l-.036.06-4.996 9.872h40.078s-3.403 5.604-3.403 5.604zm-209.477-23.404h43.752c.671 0 1.027.546 1.473 1.28 0 0 7.456 12.861 7.456 12.861s.16.527.16.527-.082.27-.082.27-11.891 11.369-11.891 11.369l10.338 14.896h-11.881s-9.369-12.744-13.716-18.657h4.451c1.726 0 2.978-.455 3.84-1.165l.05-.041 6.779-6.279-3.46-7.121-.044-.072c-.941-1.55-2.4-2.264-4.282-2.264h-20.386v35.599h-12.557zm75.974 41.203h-12.556c0-7.405 0-33.798 0-41.203h12.556zm23.061-28.315v.601l19.665 23.612 19.665-23.612v-13.489h12.557v14.668c0 1.141-.101 2.017-.426 2.613-.001.001-18.679 23.922-18.679 23.922h-26.234s-17.354-22.225-18.678-23.921c-.326-.597-.427-1.473-.427-2.614v-14.668h12.557zm-168.217-12.888h45.914c.672 0 1.028.548 1.475 1.284.001.001 11.058 18.796 11.058 18.796s.159.522.159.522-.159.522-.159.522-11.057 18.794-11.057 18.794c-.448.736-.804 1.285-1.476 1.285h-45.914zm12.556 5.604v29.995h22.548c1.877 0 3.296-.679 4.235-2.07l.04-.06 6.257-11.029.558-1.838-.559-1.842-6.236-10.873c-.953-1.569-2.413-2.283-4.295-2.283zm22.509 3.889c.023.028.052.066.072.097.001.001 6.012 10.48 6.012 10.48s.161.532.161.532-.163.535-.163.535-5.981 10.545-5.981 10.545c-.016.017-.034.028-.062.028h-17.808v-22.217zm51.413 9.164h12.764c.178 0 .43-.039.512-.052l4.673-4.329s-2.292-4.719-2.292-4.719l-.05-.064h-15.607z"/><g fill-rule="nonzero"><path d="m217.449 50.098 21.818-.022c8.927 0 16.161-7.212 16.161-16.099 0-8.903-7.234-16.116-16.161-16.116l-5.666.031c-.447 0-.809-.366-.809-.817 0-.45.362-.817.809-.817l21.778.005.009-6.833h-21.792c-4.213 0-7.641 3.423-7.641 7.628 0 4.209 3.428 7.618 7.641 7.618l5.693.075c5.115 0 9.253 4.125 9.253 9.214 0 5.092-4.138 9.226-9.253 9.226h-21.831z"/><path d="m217.458 41.587h21.831c4.227 0 7.645-3.409 7.645-7.623 0-4.209-3.418-7.614-7.645-7.614l-5.693-.062c-5.105 0-9.248-4.129-9.248-9.231 0-5.087 4.143-9.217 9.248-9.217l21.792-.005-.009-6.858h-21.778c-8.917 0-16.16 7.203-16.16 16.098s7.243 16.103 16.16 16.103l5.635.009c.429 0 .791.349.791.79 0 .434-.362.782-.791.782l-21.787.018zm54.885 1.648c-3.785 0-6.886-3.017-6.886-6.869v-21.795c0-3.706 3.101-6.753 6.886-6.753l23.289.004v-6.845h-23.289c-7.578 0-13.717 6.116-13.717 13.669v21.721c0 7.553 6.139 13.678 13.717 13.678l23.191.01-.004-6.829z"/><path d="m267.127 14.646c0-2.888 2.323-5.229 5.216-5.229h23.289v6.854h-20.065c-1.607 0-1.629 1.595-1.629 1.595h16.739v6.824h-23.558zm5.216 26.928c-2.884 0-5.225-2.327-5.225-5.207v-10.053h23.558v6.838h-16.739c.022 1.607 1.63 1.615 1.63 1.615h19.967l-.005 6.798zm39.609 1.643c-3.772 0-6.855-3.074-6.855-6.851v-21.721c0-3.78 3.061-6.828 6.837-6.828h22.556v-6.84h-22.609c-7.575 0-13.714 6.116-13.714 13.669v21.721c0 7.553 6.192 13.678 13.767 13.678l22.556.01v-32.189h-19.385v6.824h12.534v18.527z"/><path d="m306.705 36.366c0 2.894 2.34 5.248 5.229 5.248h14.089v-15.308h-10.901v6.846h4.046l.012 1.607h-4.027c-.879 0-1.599-.728-1.599-1.607l-.036-15.291s-.004-1.59 1.617-1.629h19.362l-.008-6.82-22.557.005c-2.868 0-5.229 2.36-5.229 5.229v21.72m48.982-27.051c.312-.893 1.16-1.494 2.106-1.494s1.794.601 2.107 1.494l10.949 32.347h-16.033l.018-7.609h5.358l-2.412-7.169-7.857 23.165h-8.083z"/><path d="m373.055 43.217h-18.214v6.832h27.718l-14.415-42.651c-1.264-4.16-5.428-7.221-10.358-7.221-4.937 0-9.088 3.047-10.361 7.204l-14.548 42.668h7.257l14.124-41.476c.59-1.416 1.982-2.342 3.516-2.341 1.532.003 2.921.923 3.52 2.333z"/></g></g></svg>