<svg clip-rule="evenodd" fill-rule="evenodd" stroke-linejoin="round" stroke-miterlimit="2" viewBox="0 0 600 218" xmlns="http://www.w3.org/2000/svg"><g fill="#fff" fill-rule="nonzero"><path d="m33.785 77.024 29.645-.033c12.129 0 21.958-11.009 21.958-24.573 0-13.591-9.829-24.6-21.958-24.6l-7.699.047c-.607 0-1.099-.559-1.099-1.247s.492-1.248 1.099-1.248l29.591.007.012-10.429h-29.609c-5.725 0-10.383 5.225-10.383 11.643 0 6.425 4.657 11.629 10.383 11.629l7.735.115c6.949 0 12.573 6.296 12.573 14.063 0 7.773-5.623 14.083-12.573 14.083h-29.664z"/><path d="m33.796 64.033h29.664c5.743 0 10.388-5.204 10.388-11.636 0-6.424-4.645-11.622-10.388-11.622l-7.735-.094c-6.938 0-12.567-6.303-12.567-14.091 0-7.765 5.629-14.07 12.567-14.07l29.609-.007-.012-10.469h-29.591c-12.116 0-21.958 10.996-21.958 24.574 0 13.577 9.842 24.58 21.958 24.58l7.657.013c.582 0 1.074.533 1.074 1.207 0 .661-.492 1.193-1.074 1.193l-29.603.027zm74.576 2.515c-5.143 0-9.356-4.605-9.356-10.484v-33.269c0-5.656 4.213-10.308 9.356-10.308l31.644.006v-10.449h-31.644c-10.297 0-18.639 9.337-18.639 20.866v33.155c0 11.529 8.342 20.879 18.639 20.879l31.512.015-.007-10.423z"/><path d="m101.285 22.91c0-4.409 3.157-7.982 7.087-7.982h31.644v10.463h-27.263c-2.184 0-2.214 2.434-2.214 2.434h22.744v10.415h-32.01zm7.087 41.104c-3.919 0-7.099-3.553-7.099-7.949v-15.344h32.009v10.437h-22.744c.03 2.453 2.214 2.466 2.214 2.466h27.131l-.007 10.376zm53.819 2.507c-5.126 0-9.314-4.692-9.314-10.457v-33.155c0-5.771 4.158-10.423 9.289-10.423h30.648v-10.442h-30.719c-10.293 0-18.634 9.337-18.634 20.866v33.155c0 11.529 8.413 20.879 18.705 20.879l30.648.015v-49.134h-26.338v10.415h17.03v28.281z"/><path d="m155.061 56.064c0 4.417 3.181 8.01 7.105 8.01h19.144v-23.367h-14.812v10.451h5.497l.018 2.453h-5.473c-1.194 0-2.172-1.111-2.172-2.453l-.049-23.34s-.006-2.427 2.197-2.488h26.309l-.012-10.409-30.649.007c-3.897 0-7.105 3.603-7.105 7.982v33.154m66.554-41.292c.425-1.363 1.577-2.281 2.863-2.281 1.285 0 2.437.918 2.862 2.281l14.878 49.376h-21.785l.023-11.616h7.28l-3.277-10.941-10.676 35.359h-10.981z"/><path d="m245.215 66.521h-24.748v10.429h37.663l-19.588-65.104c-1.716-6.35-7.375-11.022-14.073-11.022-6.709 0-12.35 4.651-14.079 10.996l-19.767 65.131h9.86l19.192-63.311c.802-2.162 2.693-3.576 4.777-3.573 2.081.003 3.969 1.408 4.783 3.56z"/><path d="m80.639 163.207-17.551-47.009c-.328-.818-1.023-1.555-2.087-2.209-1.064-.655-2.25-.982-3.559-.982-1.146 0-2.332.327-3.56.982-1.227.654-1.964 1.391-2.209 2.209l-35.349 100.891h-16.324l37.926-107.028c.655-1.718 1.514-3.375 2.578-4.971s2.393-3.028 3.989-4.296c1.595-1.268 3.457-2.27 5.584-3.007 2.128-.736 4.583-1.105 7.365-1.105s5.196.369 7.241 1.105c2.046.737 3.846 1.739 5.401 3.007s2.884 2.7 3.989 4.296c1.104 1.596 2.066 3.253 2.884 4.971l3.682 7.364 3.683-7.364c.9-1.718 1.902-3.375 3.007-4.971 1.104-1.596 2.413-3.028 3.927-4.296s3.294-2.27 5.339-3.007c2.046-.736 4.46-1.105 7.242-1.105 2.7 0 5.135.369 7.303 1.105 2.168.737 4.05 1.739 5.646 3.007s2.946 2.7 4.05 4.296c1.105 1.596 1.944 3.253 2.516 4.971l37.927 107.028h-16.325l-35.348-100.891c-.246-.818-.982-1.555-2.21-2.209-1.227-.655-2.413-.982-3.559-.982-1.309 0-2.496.327-3.559.982-1.064.654-1.76 1.391-2.087 2.209zm0 53.882-23.197-61.86-20.375 61.86h-16.324l33.63-97.823c.164-.491.573-.92 1.228-1.288.654-.369 1.268-.553 1.841-.553s1.166.184 1.779.553c.614.368 1.003.797 1.166 1.288l20.252 55.847 20.252-55.847c.164-.491.553-.92 1.166-1.288.614-.369 1.207-.553 1.78-.553s1.186.184 1.841.553c.655.368 1.064.797 1.227 1.288l33.631 97.823h-15.711l-20.988-61.86z"/><path d="m248.353 134.05v45.672c0 24.911-12.456 37.367-37.368 37.367h-16.608c-24.911 0-37.367-12.456-37.367-37.367v-45.672c0-24.912 12.456-37.368 37.367-37.368h16.608c24.912 0 37.368 12.456 37.368 37.368zm-20.76 0v45.672c0 11.071-5.536 16.607-16.608 16.607h-16.608c-11.072 0-16.607-5.536-16.607-16.607v-45.672c0-11.072 5.535-16.608 16.607-16.608h16.608c11.072 0 16.608 5.536 16.608 16.608zm4.152 0c0-13.84-6.92-20.76-20.76-20.76h-16.608c-13.84 0-20.759 6.92-20.759 20.76v45.672c0 13.839 6.919 20.759 20.759 20.759h16.608c13.84 0 20.76-6.92 20.76-20.759zm-20.76 4.152c0-2.768-1.384-4.152-4.152-4.152h-8.304c-2.768 0-4.152 1.384-4.152 4.152v37.368c0 2.768 1.384 4.152 4.152 4.152h8.304c2.768 0 4.152-1.384 4.152-4.152z"/><path d="m340.902 134.05v45.672c0 24.911-12.456 37.367-37.368 37.367h-49.823v-78.887h16.608v62.279h33.215c13.84 0 20.76-6.92 20.76-20.759v-45.672c0-13.84-6.92-20.76-20.76-20.76h-49.823v-16.608h49.823c24.912 0 37.368 12.456 37.368 37.368zm-20.76 0v45.672c0 11.071-5.536 16.607-16.608 16.607h-29.063v-58.127h16.608v41.52h8.303c2.768 0 4.152-1.384 4.152-4.152v-37.368c0-2.768-1.384-4.152-4.152-4.152h-45.671v-16.608h49.823c11.072 0 16.608 5.536 16.608 16.608z"/><path d="m346.26 134.05c0-24.912 12.456-37.368 37.368-37.368h49.823v16.608h-49.823c-13.84 0-20.76 6.92-20.76 20.76v45.672c0 13.839 6.92 20.759 20.76 20.759h49.823v16.608h-49.823c-24.912 0-37.368-12.456-37.368-37.367zm20.76 20.76v-20.76c0-11.072 5.536-16.608 16.608-16.608h49.823v16.608h-45.671c-2.768 0-4.152 1.384-4.152 4.152h37.367v16.608zm0 4.152h53.975v16.608h-37.367c0 2.768 1.384 4.152 4.152 4.152h45.671v16.607h-49.823c-11.072 0-16.608-5.536-16.608-16.607z"/><path d="m455.417 96.682v83.04c0 13.839 6.92 20.759 20.76 20.759h58.127v16.608h-58.127c-24.912 0-37.368-12.456-37.368-37.367v-83.04zm20.76 0v78.888c0 2.768 1.384 4.152 4.152 4.152h53.975v16.607h-58.127c-11.072 0-16.608-5.536-16.608-16.607v-83.04z"/><path d="m579.24 217.089h-16.608v-78.887c0-2.768-1.384-4.152-4.152-4.152h-16.607v-16.608h20.759c11.072 0 16.608 5.536 16.608 16.608zm4.152-83.039c0-13.84-6.92-20.76-20.76-20.76h-20.759v-16.608h20.759c24.912 0 37.368 12.456 37.368 37.368v83.039h-16.608z"/></g></svg>