<svg clip-rule="evenodd" fill-rule="evenodd" stroke-linejoin="round" stroke-miterlimit="2" viewBox="0 0 600 196" xmlns="http://www.w3.org/2000/svg"><g fill="#fff"><path d="m579.796 125.264.324-123.193h19.88l-.324 123.193z"/><path d="m427.922 125.264h-19.553v-120.26l66.485 77.239 67.135-78.866v121.887h-20.862l-.32-65.506-46.281 55.733-46.604-55.409z"/><path d="m111.459 123.31v-119.609h-19.881l.328 76.916-91.906-75.937.324 119.936h17.275v-77.567z"/><path d="m124.171 125.264 15.318-26.073h-14.015v-18.247h23.14l42.041-76.264 67.14 120.584h-23.792l-13.687-26.073h-59.641l-14.339 26.073zm44.65-44.647h43.021l-21.51-39.437z"/><path d="m257.143 66.278c0-36.176 29.333-65.509 65.513-65.509 36.173 0 65.506 29.333 65.506 65.509 0 36.173-29.333 65.506-65.506 65.506-36.18 0-65.513-29.333-65.513-65.506zm65.513 45.953c25.422 0 45.946-20.535 45.946-45.953 0-25.094-20.528-45.629-45.946-45.629-25.097 0-45.632 20.535-45.632 45.629 0 25.418 20.531 45.953 45.632 45.953z"/><path d="m0 143.784h600v51.944h-600zm309.656 30.713 9.965-.021v.602c0 1.242.303 2.079.909 2.517.608.437 1.881.653 3.818.653h12.674c1.242 0 2.13-.21 2.662-.632.533-.422.799-1.119.799-2.095 0-.991-.307-1.701-.922-2.132-.615-.428-1.935-.718-3.961-.865l-15.845-.355c-3.967-.119-6.649-.873-8.045-2.264-1.4-1.392-2.099-3.922-2.099-7.591 0-1.893.186-3.454.556-4.683.37-1.225.961-2.247 1.775-3.061.961-.917 2.221-1.569 3.772-1.952 1.554-.385 4.084-.58 7.591-.58h15.403c3.818 0 6.565.697 8.242 2.089 1.679 1.389 2.521 3.645 2.521 6.768 0 .207-.004.428-.013.664-.006.238-.032.623-.078 1.156h-9.72v-.134c0-1.095-.277-1.916-.831-2.465-.556-.544-1.387-.819-2.497-.819h-11.629c-1.937 0-3.219.191-3.84.576s-.93 1.058-.93 2.019c0 .948.279 1.632.842 2.054.562.42 1.597.691 3.108.81l16.6.266c3.788.104 6.454.952 7.997 2.552 1.548 1.597 2.322 4.328 2.322 8.19 0 2.294-.285 4.069-.854 5.326-.57 1.258-1.528 2.331-2.875 3.218-.887.563-2.093.966-3.618 1.21-1.522.243-3.727.366-6.61.366h-13.452c-5.519 0-9.209-.617-11.074-1.855-1.864-1.233-2.797-3.536-2.797-6.911 0-.192.013-.515.035-.965.021-.452.054-1.002.099-1.656zm93.21 0 9.965-.021v.602c0 1.242.303 2.079.909 2.517.608.437 1.881.653 3.818.653h12.674c1.242 0 2.13-.21 2.662-.632.533-.422.799-1.119.799-2.095 0-.991-.307-1.701-.922-2.132-.615-.428-1.935-.718-3.961-.865l-15.847-.355c-3.965-.119-6.645-.873-8.045-2.264-1.398-1.392-2.097-3.922-2.097-7.591 0-1.893.186-3.454.554-4.683.372-1.225.965-2.247 1.777-3.061.963-.917 2.218-1.569 3.774-1.952 1.552-.385 4.085-.58 7.589-.58h15.403c3.818 0 6.565.697 8.242 2.089 1.679 1.389 2.521 3.645 2.521 6.768 0 .207-.004.428-.013.664-.006.238-.032.623-.078 1.156h-9.72v-.134c0-1.095-.277-1.916-.831-2.465-.556-.544-1.387-.819-2.497-.819h-11.629c-1.937 0-3.216.191-3.838.576-.621.385-.935 1.058-.935 2.019 0 .948.284 1.632.847 2.054.56.42 1.597.691 3.105.81l16.601.266c3.787.104 6.454.952 7.997 2.552 1.548 1.597 2.322 4.328 2.322 8.19 0 2.294-.285 4.069-.855 5.326-.569 1.258-1.528 2.331-2.874 3.218-.887.563-2.093.966-3.619 1.21-1.521.243-3.726.366-6.609.366h-13.452c-5.517 0-9.209-.617-11.075-1.855-1.863-1.233-2.796-3.536-2.796-6.911 0-.192.013-.515.035-.965.021-.452.054-1.002.099-1.656zm-364.496-10.141v-.088c0-1.524-.459-2.567-1.377-3.128-.917-.563-2.989-.846-6.213-.846h-5.881c-3.448 0-5.655.415-6.625 1.242-.97.831-1.454 2.584-1.454 5.262v4.592c0 2.385.547 4.017 1.642 4.907 1.096.887 3.256 1.331 6.48 1.331h5.838c2.9 0 4.897-.262 5.993-.788 1.095-.526 1.642-1.433 1.642-2.718 0-.178-.03-.474-.091-.888v-.11h-11.871v-6.681h22.371v10.854c0 3.106-1.152 5.313-3.452 6.623-2.301 1.309-6.307 1.963-12.017 1.963h-11.231c-3.447 0-5.99-.186-7.633-.557-1.643-.365-3.035-.995-4.173-1.885-1.331-1.049-2.301-2.341-2.907-3.872-.606-1.532-.911-3.465-.911-5.802v-9.01c0-4.736 1.121-8.039 3.364-9.911 2.242-1.872 6.313-2.807 12.217-2.807h11.274c3.638 0 6.324.165 8.056.489 1.731.327 3.09.872 4.084 1.641 1.034.798 1.801 1.876 2.296 3.229.496 1.355.743 3.052.743 5.095 0 .487-.005.866-.011 1.132-.009.266-.018.508-.033.731zm148.57 21.527c-3.861 0-6.688-.174-8.478-.522-1.79-.346-3.248-.942-4.372-1.786-1.272-.945-2.19-2.186-2.753-3.718-.56-1.53-.842-3.56-.842-6.09v-9.011c0-2.768.282-4.956.842-6.568.563-1.615 1.481-2.892 2.753-3.842 1.108-.827 2.587-1.42 4.426-1.775 1.844-.355 4.636-.532 8.378-.532h11.874c3.757 0 6.564.177 8.421.532s3.333.948 4.429 1.775c1.227.935 2.127 2.208 2.696 3.818.57 1.615.855 3.677.855 6.192v9.211c0 2.546-.285 4.613-.855 6.201-.569 1.593-1.469 2.862-2.696 3.807-1.111.844-2.574 1.44-4.394 1.786-1.82.348-4.638.522-8.456.522zm-35.665-33.444c5.237 0 8.804.777 10.698 2.329 1.894 1.554 2.84 4.389 2.84 8.502 0 2.857-.422 4.978-1.264 6.369-.844 1.39-2.258 2.323-4.24 2.797 1.746.413 3.056 1.147 3.928 2.196.872 1.052 1.309 2.411 1.309 4.084v6.768h-10.096v-5.038c0-1.301-.307-2.197-.922-2.684-.615-.489-1.823-.732-3.628-.732h-15.048v8.454h-10.118v-33.045zm-67.344 0c5.045 0 8.716.885 11.008 2.652 2.294 1.768 3.441 4.581 3.441 8.445v11.363c0 3.67-.917 6.35-2.753 8.044-1.835 1.693-4.748 2.541-8.744 2.541h-31.934v-33.045zm445.323 8.056h-26.03v4.995h24.522v6.946h-24.522v5.058h26.433v7.99h-36.51v-33.045h36.107zm-56.73 24.989h-10.075v-24.944h-13.825v-8.101h37.728v8.101h-13.828zm-91.096 0h-10.099v-11.873l-18.219-21.172h12.406l10.852 13.14 11.362-13.14h11.963l-18.265 21.172zm164.76 0h-9.807v-33.045h14.888l11.785 20.639 11.984-20.639h14.694v33.045h-9.766v-23.546l-13.648 23.546h-6.59l-13.54-23.546zm-315.107 0h-9.809v-33.045h14.891l11.785 20.639 11.984-20.639h14.691v33.045h-9.765v-23.546l-13.649 23.546h-6.59l-13.538-23.546zm-126.598-16.088h14.958v8.454h-14.958zm85.186 8.232h6.413c3.567 0 5.935-.448 7.103-1.342 1.169-.896 1.753-2.556 1.753-4.985v-4.681c0-2.426-.584-4.088-1.753-4.982-1.168-.896-3.536-1.344-7.103-1.344h-6.458c-3.639 0-6.024.452-7.158 1.355-1.13.902-1.697 2.618-1.697 5.148v4.593c0 2.385.596 4.019 1.786 4.907 1.193.887 3.562 1.331 7.114 1.331zm-108.822-17.044h-15.823v16.866h17.087c2.147 0 3.714-.435 4.705-1.309.992-.872 1.487-2.242 1.487-4.106v-5.815c0-1.938-.602-3.362-1.807-4.271-1.208-.911-3.089-1.365-5.649-1.365zm70.051.088h-16.046v8.078h16.046c1.346 0 2.29-.314 2.829-.942.541-.63.812-1.766.812-3.406 0-1.303-.29-2.249-.866-2.842-.578-.591-1.502-.888-2.775-.888z"/></g></svg>