<svg clip-rule="evenodd" fill-rule="evenodd" stroke-linejoin="round" stroke-miterlimit="2" viewBox="0 0 600 86" xmlns="http://www.w3.org/2000/svg"><g fill="#fff" fill-rule="nonzero"><path d="m84.032 29.734-1.705-.79c.107-.351.213-.789.213-1.228 0-1.141-10.021-7.283-27.398-7.283-16.629 0-23.772 4.212-23.772 9.651 0 14.388 62.789-6.667 62.789 25.093 0 11.581-13.646 20.531-40.936 20.531-26.01 0-33.473-6.844-35.924-6.844-.641 0-.96.436-1.493.703l-1.385-.263 8.847-14.918 1.707.703c0 .353-.215.705-.215 1.406 0 5.178 13.753 8.858 27.398 8.858 19.402 0 26.011-4.559 26.011-9.388 0-17.194-61.937 4.123-61.937-25.002 0-14.74 18.869-20.882 39.551-20.882 18.549 0 31.554 6.668 32.833 6.668 1.386 0 1.599-.35 1.92-.614l1.705.438z"/><path d="m102.363 73.6c2.345 0 2.771-.702 2.771-2.632v-56.149c0-1.931-.427-2.632-2.771-2.632v-1.229h69.186c2.558 0 3.624-.702 3.624-1.93h1.492v14.565h-1.492c0-1.579-1.066-2.281-3.624-2.281h-51.277v15.618h33.474c2.558 0 3.624-.703 3.624-2.282h1.493v14.737h-1.493c0-.701-.213-1.226-.853-1.579-.532-.35-1.492-.527-2.771-.527h-33.474v17.199h52.236c2.558 0 3.625-.704 3.625-2.106h1.492v14.388h-1.492c0-1.228-1.067-1.93-3.625-1.93h-70.145z"/><path d="m272.175 41.139v1.229c-1.067.176-2.026.877-2.026 2.808v17.283c0 1.404.533 1.929 1.919 2.192v1.229c-6.716 3.158-23.133 9.828-41.576 9.828-24.519 0-46.052-10.005-46.052-32.814 0-22.812 25.158-32.814 47.331-32.814 8.742 0 17.057 1.667 23.134 3.247 5.65 2.018 9.807 3.598 10.553 3.598.96 0 1.92-.44 2.346-.965l1.492.525-10.34 14.388-1.493-.789c.106-.35.213-.877.213-1.491 0-2.721-11.512-8.16-25.691-8.16-17.909 0-32.406 7.283-32.406 22.111 0 15.528 14.497 22.808 30.914 22.808 13.433 0 21.321-3.774 24.519-5.702v-7.281h-18.335c-2.132 0-3.411.878-3.411 2.104h-1.494v-15.438h1.494c0 1.227 1.279 2.104 3.411 2.104z"/><path d="m277.498 74.832v-1.229c1.919-.088 2.558-.526 4.05-3.334l29.103-53.87c.531-.878 1.17-1.843 1.17-2.631 0-.965-.849-1.404-2.238-1.579v-1.23h23.24v1.229c-1.599.176-2.241.702-2.241 1.316 0 .702.429 1.404.961 2.282l30.915 54.483c1.49 2.72 1.919 3.334 4.156 3.334v1.229h-21.213v-1.229c1.388 0 1.919-.439 1.919-.877 0-.965-.959-2.194-8.102-14.742h-36.566c-6.183 11.405-7.781 13.161-7.781 14.302 0 .789.639 1.228 1.598 1.314v1.229h-18.974v.003zm55.541-26.85-12.793-22.987-12.579 22.987z"/><path d="m600 85.275h-600v-84.763h599.999v84.763zm-594.601-5.399h589.202v-73.965h-589.202z"/><path d="m385.099 10.958v63.871h205.162v-63.871zm8.698 44.837c-1.707-11.372 36.069-26.53 85.28-34.518-1.111.287-3.26.837-3.26.837s-4.836 1.181-6.174 1.508c-25.103 6.135-42.69 17.186-41.223 26.985 1.503 10.032 22.474 15.463 49.152 13.607 1.482-.105 6.74-.358 7.885-.409-49.397 6.784-89.957 3.364-91.66-8.01zm123.016 2.456c-10.905 2.478-24.535 4.582-24.535 4.582v-28.502l7.027 23.193s16.735-2.716 29.474-8.019c11.072-4.611 17.941-10.394 17.477-16.554-.751-10.008-22.034-15.348-48.31-13.658-1.753.113-7.571.412-8.714.462 49.387-6.786 89.942-3.364 91.649 8.008 1.45 9.673-25.661 22.079-64.068 30.488z"/></g></svg>