<svg clip-rule="evenodd" fill-rule="evenodd" stroke-linejoin="round" stroke-miterlimit="2" viewBox="0 0 600 67" xmlns="http://www.w3.org/2000/svg"><g fill="#fff"><g fill-rule="nonzero"><path d="m144.833 56.737c-2.75 0-5.464-.14-8.298-.426-3.795-.457-6.642-1.031-8.975-1.802-1.25-.42-2.257-1.25-2.922-2.403-.646-1.378-.754-2.702-.35-3.909.416-1.335 1.302-2.36 2.554-2.942 1.044-.6 2.465-.75 3.778-.315 1.947.576 4.341 1.045 7.085 1.38 2.611.302 5.485.4 8.488.332 2.581-.062 4.983-.349 7.141-.855 1.369-.394 2.195-.747 2.634-1.136.055-.049.116-.09.178-.125.133-.126.254-.218.352-.294.184-.139.235-.177.311-.716.067-.457.08-.717.062-.898-.022-.027-.043-.057-.062-.088-.002 0-.002-.003-.002-.003v-.001l-.002-.001c.002 0-.001-.001-.001-.001v-.003l-.002-.001v-.001c-.063-.104-.11-.221-.133-.347l-.066-.375c-.002-.01-.003-.021-.006-.03-.122-.513-1.709-2.224-2.515-2.479-.895-.277-4.09-.622-7.682-.696-.701-.037-1.422-.052-2.267-.073-.686-.014-1.454-.031-2.3-.062-2.151.005-3.61.001-4.405-.073-3.86-.066-6.36-.411-7.573-1.054-1.428-.644-2.759-1.466-4.013-2.483-.091-.037-.176-.084-.243-.143-1.627-1.398-2.853-2.938-3.644-4.573-.052-.108-.083-.221-.093-.336-.972-2.102-1.233-4.271-.8-6.623.353-2.322 1.54-4.649 3.619-7.085 3.139-4.046 8.561-6.115 16.086-6.115 5.625 0 12.604 1.157 20.739 3.44 1.342.443 2.315 1.224 3.02 2.398.718 1.328.852 2.615.424 3.862-.311 1.252-1.165 2.311-2.442 2.985-.664.428-1.484.667-2.361.667-.439 0-.905-.061-1.389-.179-13.68-3.906-22.7-4.014-26.477-.382-.663.663-1.102 1.414-1.289 2.218-.07.249-.045.424.062.582.066.099.112.207.141.32.212.353.566.753 1.057 1.189.418.364.969.707 1.634 1.017.687.129 2.896.194 3.861.221.766.068 2.201.068 4.186.068.898.03 1.677.047 2.374.062.96.021 1.771.039 2.445.079 3.667.121 6.913.427 9.36.882.06.002.123.01.162.017 4.724 1.01 7.498 2.711 8.724 5.351l.209.453c.936 2.022 1.132 2.444 1.344 3.214.458 1.184.497 2.438.53 3.443.007.239.015.464.029.667l.002.205c0 1.497-.275 2.927-.84 4.363-.015.082-.034.16-.06.221-.493 1.112-1.312 2.378-2.509 3.873-.067.081-.141.151-.227.205-1.472 1.838-4.039 3.223-7.642 4.123-2.657.645-5.787 1.041-9.308 1.177-.575.009-1.135.014-1.693.014zm-15.767-10.091c-.47 0-.918.118-1.327.351-.828.389-1.324.967-1.586 1.806-.311.929-.052 1.816.222 2.4.389.668 1.011 1.182 1.807 1.449 2.201.729 4.927 1.273 8.57 1.714 3.306.333 6.489.468 9.717.397 3.373-.131 6.372-.508 8.896-1.121 3.296-.824 5.556-2.042 6.715-3.619.073-.099.161-.182.262-.246.949-1.207 1.613-2.225 2.018-3.1.013-.062.028-.12.047-.168.502-1.24.746-2.468.746-3.752v-.138c-.012-.159-.02-.406-.03-.67-.028-.904-.063-1.93-.432-2.896-.194-.687-.351-1.031-1.263-3.002l-.206-.451c-.941-2.022-3.253-3.37-7.277-4.24-.048-.003-.097-.007-.128-.013-1.643-.31-4.569-.711-9.159-.863-.679-.041-1.464-.058-2.394-.078-.705-.014-1.492-.032-2.365-.062-2.07.009-3.472.002-4.268-.072-2.578-.073-3.715-.15-4.289-.29-.06-.015-.118-.035-.173-.06-.88-.398-1.624-.86-2.21-1.371-.761-.675-1.279-1.299-1.59-1.915-.031-.06-.054-.12-.072-.183-.323-.595-.396-1.28-.201-1.957.258-1.117.874-2.185 1.813-3.123 4.408-4.238 13.854-4.252 28.351-.112.823.201 1.605.132 2.262-.287.865-.459 1.349-1.05 1.549-1.848.272-.798.18-1.538-.248-2.336-.438-.728-1.045-1.214-1.891-1.495-7.92-2.221-14.719-3.354-20.167-3.354-6.888 0-11.789 1.815-14.566 5.393-1.864 2.186-2.904 4.193-3.205 6.173-.381 2.078-.123 3.956.787 5.771.053.104.086.215.098.328.65 1.227 1.604 2.397 2.841 3.488.078.033.152.075.212.125 1.182.98 2.386 1.731 3.788 2.365.574.302 2.141.774 6.817.857.777.069 2.191.069 4.333.069.872.03 1.631.047 2.309.062.876.02 1.62.037 2.238.074 3.499.07 7.034.407 8.251.784 1.291.406 3.495 2.513 3.839 3.897l.056.132c.239.555.379 1.019.191 2.348-.178 1.234-.587 1.633-1.061 1.994-.122.094-.21.161-.307.284-.122.151-.279.257-.454.315-.671.479-1.613.869-3.099 1.296-2.337.548-4.874.854-7.588.916-.65.016-1.301.025-1.951.025-2.445 0-4.674-.12-6.815-.369-2.861-.348-5.362-.839-7.441-1.455-.345-.115-.661-.167-.972-.167z"/><path d="m200.752 54.648h-27.188c-1.398 0-2.668-.545-3.576-1.535-.932-.847-1.48-2.113-1.48-3.504v-33.809c0-1.394.508-2.606 1.512-3.602.935-.926 2.192-1.434 3.545-1.434h27.188c1.351 0 2.556.473 3.582 1.405 1 1.079 1.478 2.278 1.478 3.627 0 1.387-.486 2.576-1.444 3.533-1.012 1.001-2.227 1.506-3.616 1.506h-22.127v6.827h16.009c1.356 0 2.562.474 3.584 1.411.998 1.083 1.475 2.285 1.475 3.631s-.513 2.6-1.444 3.533c-1.008.999-2.223 1.504-3.616 1.504h-16.008v6.828h22.127c1.346 0 2.551.471 3.582 1.403 1.002 1.094 1.478 2.295 1.478 3.639 0 1.354-.513 2.61-1.446 3.537-1.003.995-2.22 1.5-3.615 1.5zm-27.188-41.926c-.832 0-1.6.308-2.166.867-.635.63-.931 1.333-.931 2.211v33.809c0 .835.32 1.587.903 2.117.602.652 1.34.964 2.195.964h27.188c.882 0 1.591-.298 2.232-.934.559-.555.866-1.319.866-2.146 0-.864-.285-1.579-.898-2.251-.611-.546-1.33-.831-2.2-.831h-23.107c-.542 0-.981-.439-.981-.98v-8.785c0-.541.439-.98.981-.98h16.989c.882 0 1.59-.295 2.232-.933.556-.559.865-1.323.865-2.146 0-.864-.284-1.577-.897-2.246-.606-.552-1.326-.837-2.2-.837h-16.989c-.542 0-.981-.438-.981-.98v-8.786c0-.541.439-.98.981-.98h23.106c.879 0 1.589-.297 2.234-.937.581-.581.864-1.283.864-2.143 0-.853-.292-1.584-.896-2.238-.611-.549-1.33-.835-2.202-.835z"/><path d="m230.325 57.704c-3.518 0-6.865-.671-9.948-1.989-2.899-1.169-5.453-2.968-7.575-5.341-.08-.045-.155-.101-.219-.172-2.176-2.352-3.824-5.192-4.895-8.439-1.081-3.273-1.539-6.602-1.4-10.178l.021-.574c.117-3.121.176-4.686 1.26-7.531 1.13-2.966 2.062-5.213 3.79-7.086.042-.063 2.487-3.257 6.052-5.022 2.754-1.366 4.02-1.629 5.938-2.028.529-.11 1.115-.232 1.806-.395 2.228-.394 4.38-.588 6.452-.588 6.57 0 12.588 1.93 17.882 5.734 1.134.847 1.85 2.026 2.089 3.417.243 1.498-.01 2.84-.753 3.998-.691 1.159-1.757 1.951-3.152 2.324-.391.082-.726.115-1.051.115-.991 0-1.937-.309-2.81-.921-5.236-3.846-10.689-5.058-16.37-3.665-.056.013-.112.023-.17.027l-.923.239c-1.898.491-3.154.814-4.809 1.642-1.786.888-2.864 2.54-2.875 2.557-.029.047-.067.093-.105.134-.64.694-1.1 1.57-1.403 2.678-.466 1.669-.714 2.944-.776 5.301-.069 2.3.21 4.381.827 6.189.59 1.77 1.477 3.305 2.643 4.566 1.165 1.324 2.535 2.296 4.204 2.991.084.036.162.083.234.138 1.825.724 3.907 1.105 6.038 1.105 5.391 0 9.352-1.057 11.771-3.138.957-.981 1.632-2.235 1.985-3.71h-12.401c-1.401 0-2.679-.589-3.598-1.66-.919-.905-1.455-2.247-1.455-3.717 0-1.492.484-2.743 1.48-3.819.938-1.01 2.206-1.561 3.573-1.561h17.636c1.305 0 2.43.443 3.44 1.356 1.041 1.108 1.533 2.213 1.611 3.535.702 7.838-1.212 13.817-5.691 17.74-3.792 3.799-9.982 5.748-18.353 5.748zm-16.538-9.091c.094.051.18.118.255.204 1.964 2.273 4.349 3.985 7.086 5.088 2.857 1.224 5.945 1.841 9.196 1.841 7.831 0 13.556-1.758 17.014-5.22 4.087-3.581 5.731-8.855 5.076-16.167-.051-.882-.368-1.576-1.029-2.282-.593-.531-1.248-.794-2.067-.794h-17.636c-.817 0-1.576.332-2.137.934-.652.706-.958 1.498-.958 2.488 0 .944.332 1.789.93 2.383.603.697 1.332 1.036 2.165 1.036h13.571c.28 0 .547.119.733.33.186.21.274.491.239.769-.291 2.359-1.256 4.432-2.787 5.998-2.886 2.488-7.155 3.669-13.111 3.669-2.484 0-4.823-.444-6.952-1.32-.09-.037-.174-.087-.247-.147-1.872-.808-3.422-1.926-4.732-3.415-1.341-1.45-2.368-3.222-3.044-5.251-.69-2.024-1.004-4.339-.929-6.872.068-2.541.35-3.989.847-5.766.374-1.365.979-2.518 1.798-3.426.269-.392 1.553-2.156 3.596-3.173 1.842-.921 3.249-1.284 5.196-1.786l1.029-.266c.064-.017.129-.027.195-.031 6.205-1.492 12.218-.147 17.87 4.002.527.369 1.079.553 1.668.553.199 0 .4-.021.604-.062.848-.23 1.481-.695 1.933-1.45.497-.777.65-1.632.485-2.644-.152-.881-.605-1.629-1.313-2.159-6.512-4.678-14.236-6.31-22.784-4.809-.655.156-1.256.281-1.8.394-1.831.381-2.938.612-5.466 1.866-3.143 1.556-5.401 4.494-5.425 4.524-1.55 1.69-2.374 3.679-3.457 6.527-.97 2.543-1.018 3.821-1.133 6.907l-.023.575c-.128 3.339.299 6.444 1.304 9.49.946 2.859 2.371 5.37 4.24 7.462z"/><path d="m298.611 55.933c-1.027 0-2.021-.349-2.879-1.009-1.068-.761-1.731-1.826-1.997-3.237-.535-3.576-1.118-6.908-1.743-9.948h-24.793c-.543 2.665-1.048 5.541-1.503 8.565-.25 1.351-.923 2.441-2.006 3.268-1.219.872-2.487 1.182-3.829.937-1.311-.165-2.427-.845-3.268-2.013-.789-1.02-1.109-2.265-.928-3.674 4.218-27.79 12.292-41.521 24.074-40.815.161-.017.439-.025.717-.025 11.37 0 18.989 13.794 23.297 42.17.164 1.412-.151 2.597-.986 3.76-.891 1.15-2.007 1.797-3.34 1.947-.227.045-.523.074-.816.074zm-32.209-16.154h26.388c.463 0 .862.325.957.778.695 3.284 1.34 6.919 1.92 10.803.168.877.55 1.501 1.231 1.989.71.545 1.45.727 2.241.573.867-.101 1.518-.483 2.058-1.18.527-.736.719-1.441.615-2.328-4.172-27.477-11.622-41.106-22.072-40.45-.37-.015-.617-.023-.862-.023-10.17 0-17.326 13.173-21.272 39.152-.11.863.071 1.603.558 2.233.537.745 1.182 1.146 1.997 1.25.226.038.397.054.565.054.616 0 1.205-.206 1.801-.633.668-.51 1.081-1.178 1.238-2.018.499-3.324 1.066-6.505 1.678-9.421.096-.454.497-.779.959-.779zm24.354-6.145h-22.333c-.311 0-.601-.146-.786-.394-.186-.248-.242-.569-.154-.864 3.129-10.53 7.092-15.845 12.114-16.25.05-.004.105-.004.158 0 4.896.401 8.802 5.716 11.939 16.25.088.296.03.616-.154.864-.181.248-.473.394-.784.394zm-21.009-1.959h19.683c-2.715-8.539-6.076-13.226-9.757-13.59-3.844.37-7.182 4.939-9.926 13.59z"/><path d="m347.778 56.717c-2.765 0-5.506-.141-8.384-.429-3.812-.46-6.683-1.037-9.053-1.82-1.256-.419-2.273-1.258-2.946-2.425-.652-1.389-.761-2.724-.351-3.941.414-1.34 1.307-2.372 2.57-2.964 1.074-.604 2.503-.752 3.815-.316 1.947.58 4.36 1.051 7.143 1.39 2.671.307 5.561.405 8.558.332 2.59-.061 5.013-.35 7.204-.86.915-.266 2.095-.649 2.659-1.144.055-.047.11-.086.168-.119.139-.132.263-.227.368-.306.183-.138.234-.177.311-.723.067-.46.08-.721.066-.904-.103-.126-.175-.278-.205-.45l-.067-.38c-.002-.011-.003-.02-.004-.03-.127-.515-1.729-2.243-2.542-2.501-.9-.277-4.121-.625-7.744-.7-.722-.041-1.462-.056-2.332-.077-.681-.015-1.439-.033-2.275-.063-2.174.005-3.637.001-4.438-.071-3.898-.066-6.422-.415-7.642-1.065-1.441-.651-2.783-1.479-4.048-2.503-.091-.039-.174-.088-.242-.145-1.645-1.413-2.88-2.966-3.675-4.614-.052-.107-.084-.22-.095-.336-.978-2.12-1.243-4.309-.808-6.679.357-2.341 1.553-4.688 3.649-7.144 3.165-4.081 8.632-6.169 16.219-6.169 5.673 0 12.711 1.169 20.917 3.471 1.354.448 2.335 1.235 3.047 2.417.72 1.335.859 2.632.433 3.894-.318 1.268-1.177 2.337-2.466 3.016-.671.433-1.496.673-2.383.673-.447 0-.904-.057-1.396-.178-13.797-3.942-22.893-4.051-26.701-.386-.67.667-1.11 1.423-1.3 2.237-.07.25-.046.426.064.587.064.097.112.204.139.316.216.36.575.763 1.068 1.199.42.365.978.712 1.65 1.025.717.134 3.008.198 3.893.224.773.07 2.219.07 4.221.07.965.032 1.794.051 2.533.067.905.019 1.677.037 2.323.074 3.715.125 6.987.432 9.442.889.059.002.122.01.163.018 4.761 1.016 7.557 2.731 8.798 5.397l.217.471c.941 2.027 1.135 2.448 1.348 3.223.463 1.199.504 2.463.535 3.478.01.24.014.465.027.67.003.022.003.181.003.203 0 1.508-.278 2.95-.847 4.402-.015.082-.034.16-.062.223-.498 1.126-1.327 2.404-2.532 3.905-.066.082-.143.151-.228.207-1.481 1.852-4.073 3.249-7.705 4.155-2.703.656-5.859 1.055-9.388 1.191-.576.013-1.133.018-1.692.018zm-15.914-10.175c-.477 0-.929.118-1.347.352-.833.393-1.331.976-1.595 1.817-.314.937-.051 1.832.223 2.421.395.677 1.021 1.194 1.821 1.462 2.237.739 4.986 1.289 8.647 1.73 3.354.337 6.559.464 9.798.401 3.379-.131 6.406-.511 8.974-1.134 3.324-.831 5.604-2.059 6.771-3.646.073-.101.163-.185.266-.249.956-1.212 1.624-2.237 2.033-3.124.013-.063.029-.122.049-.169.506-1.256.753-2.493.753-3.786-.014-.297-.022-.547-.03-.811-.028-.913-.062-1.946-.437-2.926-.194-.69-.351-1.035-1.265-3.007l-.216-.468c-.949-2.042-3.283-3.404-7.338-4.28-.047-.003-.096-.007-.126-.013-1.651-.31-4.592-.714-9.237-.869-.65-.038-1.398-.054-2.276-.072-.747-.016-1.588-.035-2.526-.068-2.087.001-3.503.001-4.304-.074-2.546-.07-3.736-.151-4.323-.29-.061-.015-.121-.036-.178-.063-.883-.404-1.631-.868-2.225-1.38-.766-.677-1.288-1.306-1.606-1.934-.031-.059-.055-.121-.071-.185-.327-.6-.399-1.289-.202-1.968.256-1.114.893-2.221 1.827-3.152 4.444-4.278 13.973-4.294 28.59-.111.829.201 1.615.132 2.279-.293.873-.463 1.361-1.061 1.566-1.867.269-.806.179-1.554-.254-2.359-.443-.732-1.054-1.223-1.909-1.506-7.988-2.241-14.846-3.384-20.339-3.384-6.945 0-11.887 1.83-14.686 5.44-1.88 2.203-2.928 4.228-3.234 6.224-.384 2.094-.122 3.985.793 5.817.054.105.086.216.1.33.652 1.235 1.615 2.416 2.866 3.518.079.035.153.076.213.126 1.189.987 2.404 1.745 3.819 2.385.578.308 2.157.784 6.875.868.781.067 2.207.067 4.367.067.864.03 1.613.046 2.285.062.903.02 1.67.038 2.304.078 1.156.023 7.748.612 8.317.786 1.307.417 3.527 2.542 3.874 3.934l.058.134c.239.56.381 1.026.189 2.365-.178 1.247-.593 1.651-1.072 2.016-.122.092-.21.16-.308.283-.12.148-.279.257-.452.315-.674.479-1.625.873-3.131 1.307-2.372.554-4.931.861-7.654.925-.666.018-1.335.026-2.004.026-2.428 0-4.662-.121-6.836-.371-2.899-.354-5.421-.848-7.503-1.467-.342-.11-.659-.163-.973-.163z"/><path d="m413.736 58.928c-1.049 0-2.026-.343-2.911-1.021-1.078-.758-1.745-1.833-2.016-3.261-.547-3.659-1.132-7.02-1.752-10.032h-25.008c-.543 2.674-1.052 5.574-1.519 8.634-.252 1.363-.93 2.462-2.02 3.297-.97.692-1.926 1.019-2.946 1.019-.29 0-.593-.027-.907-.081-1.323-.155-2.454-.84-3.309-2.031-.849-1.103-1.174-2.411-.92-3.76 4.372-28.355 12.327-41.823 24.264-41.098.163-.017.447-.025.724-.025 11.465 0 19.152 13.908 23.497 42.52.168 1.414-.149 2.609-.995 3.792-.895 1.152-2.013 1.806-3.351 1.973-.245.047-.542.074-.831.074zm-32.494-16.289h26.618c.466 0 .868.327.967.783.686 3.248 1.335 6.915 1.93 10.896.168.886.552 1.514 1.239 2 .722.551 1.46.733 2.264.585.869-.111 1.527-.502 2.072-1.202.534-.749.728-1.459.621-2.347-4.208-27.706-11.668-41.448-22.263-40.787-.371-.015-.622-.022-.869-.022-10.19 0-17.406 13.283-21.447 39.482-.155.823.035 1.567.557 2.247.544.758 1.196 1.159 2.009 1.257.252.042.441.06.622.06.611 0 1.157-.196 1.772-.633.673-.515 1.091-1.189 1.246-2.036.512-3.366 1.083-6.571 1.695-9.495.096-.46.499-.788.967-.788zm24.576-6.211h-22.536c-.313 0-.605-.147-.791-.396-.188-.251-.245-.574-.155-.873 3.157-10.613 7.155-15.972 12.218-16.381.055-.001.105-.007.159 0 4.965.396 8.908 5.755 12.053 16.382.088.299.029.622-.156.872-.187.25-.482.396-.792.396zm-21.2-1.975h19.865c-2.752-8.731-6.064-13.338-9.848-13.699-3.882.371-7.247 4.978-10.017 13.699z"/><path d="m432.327 58.251c-1.405 0-2.686-.549-3.605-1.545-.943-.859-1.495-2.136-1.495-3.538v-30.373h-12.717c-1.41 0-2.693-.551-3.61-1.548-.942-.862-1.493-2.138-1.493-3.534 0-1.4.513-2.622 1.522-3.632.947-.933 2.217-1.445 3.582-1.445h35.638c1.367 0 2.581.475 3.613 1.415 1.007 1.088 1.487 2.3 1.483 3.663 0 1.363-.516 2.629-1.454 3.563-1.004 1.005-2.229 1.516-3.642 1.516h-12.717v30.375c0 1.367-.519 2.634-1.464 3.569-1.004 1.004-2.23 1.514-3.641 1.514zm-17.817-43.641c-.843 0-1.618.31-2.187.873-.64.639-.938 1.349-.938 2.229 0 .85.314 1.588.912 2.138.603.654 1.349.97 2.213.97h13.704c.548 0 .989.442.989.988v31.36c0 .853.316 1.593.911 2.14.608.655 1.353.97 2.213.97.892 0 1.609-.298 2.247-.939.568-.566.88-1.335.88-2.17v-31.364c0-.546.444-.988.989-.988h13.705c.893 0 1.609-.299 2.245-.938.567-.563.877-1.332.877-2.167 0-.875-.287-1.593-.902-2.262-.612-.553-1.339-.84-2.221-.84z"/><path d="m482.55 57.702h-6.1c-2.93 0-5.57-.516-8.066-1.576-2.414-1.035-4.571-2.482-6.598-4.426-1.95-2.016-3.35-4.085-4.299-6.341-.081-.084-.146-.178-.188-.285-1.059-2.703-1.576-5.319-1.576-8v-20.247c0-1.412.554-2.689 1.56-3.596.851-.932 2.131-1.482 3.54-1.482 1.424 0 2.616.495 3.641 1.515.942.93 1.46 2.195 1.46 3.563v20.247c0 1.341.274 2.71.816 4.07.022.057.038.114.051.172.54 1.148 1.249 2.168 2.221 3.194 1.197 1.112 2.205 1.787 3.329 2.21 1.32.565 2.613.82 4.105.82h6.101c1.506 0 2.871-.269 4.05-.798 1.166-.442 2.208-1.138 3.427-2.275 1.095-1.161 1.795-2.196 2.226-3.312.551-1.23.819-2.586.819-4.081v-20.247c0-1.406.554-2.682 1.559-3.594.856-.935 2.136-1.484 3.542-1.484 1.413 0 2.638.511 3.644 1.518.932.916 1.456 2.179 1.469 3.551v20.257c0 2.887-.519 5.534-1.586 8.089-.034.08-.075.154-.127.221-1.02 2.271-2.436 4.331-4.322 6.288-1.988 1.899-4.061 3.31-6.36 4.333-.063.05-.134.091-.213.123-2.562 1.058-5.219 1.573-8.125 1.573zm-23.515-13.623c.073.079.131.169.17.266.852 2.124 2.152 4.071 3.973 5.957 1.827 1.749 3.792 3.068 5.981 4.006 2.245.955 4.631 1.42 7.291 1.42h6.1c2.545 0 4.874-.431 7.111-1.319.053-.039.111-.072.177-.101 2.184-.935 4.151-2.255 6.016-4.035 1.765-1.834 3.091-3.79 4.023-5.951.029-.066.064-.127.104-.184.892-2.229 1.327-4.543 1.327-7.064v-20.247c-.009-.835-.324-1.606-.884-2.158-.646-.645-1.36-.944-2.255-.944-.861 0-1.604.315-2.151.909-.65.595-.974 1.352-.974 2.193v20.247c0 1.774-.327 3.403-.972 4.84-.506 1.319-1.331 2.555-2.655 3.954-.999.933-2.321 2.04-4.065 2.701-1.384.622-3.02.948-4.806.948h-6.101c-1.745 0-3.331-.315-4.843-.964-1.701-.641-3.024-1.749-3.981-2.639-1.2-1.264-2.066-2.536-2.699-3.932-.036-.081-.063-.167-.076-.255-.596-1.546-.898-3.111-.898-4.653v-20.247c0-.835-.311-1.603-.875-2.161-.647-.643-1.363-.941-2.25-.941-.85 0-1.613.323-2.15.906-.816.742-.971 1.596-.971 2.195v20.247c-.002 2.341.436 4.635 1.333 7.006z"/><path d="m509.85 56.973c-1.442 0-2.758-.51-3.807-1.478-1.005-.941-1.553-2.208-1.553-3.571v-35.216c0-1.269.486-2.41 1.443-3.394.999-1.014 2.175-1.569 3.492-1.66 13.013-1.025 22.894-.516 29.447 1.529 8.792 2.587 13.099 7.431 12.79 14.396-.082 5.87-2.802 10.108-8.084 12.569-.732.357-1.551.68-2.469.974l9.819 6.656c1.183.849 1.906 1.968 2.169 3.34.182 1.378-.161 2.655-.986 3.756-.9 1.177-2.106 1.854-3.594 2.022-.25.043-.556.07-.855.07-1.082 0-2.103-.332-3.032-.99l-21.853-14.886c-1.043-.702-1.718-1.555-2.064-2.606-.313-1.247-.244-2.328.183-3.282.448-1.086 1.21-1.935 2.255-2.499.94-.578 2.02-.809 3.309-.725 5.532.596 9.673.289 12.45-.87 1.42-.689 2.075-1.818 2.014-3.528-.177-2.163-1.927-3.739-5.347-4.776-4.755-1.346-11.628-1.814-20.367-1.365v30.486c0 1.409-.59 2.686-1.658 3.597-.935.943-2.199 1.451-3.702 1.451zm11.637-43.862c-3.58 0-7.59.173-11.917.515-.846.057-1.569.409-2.226 1.074-.597.614-.881 1.254-.881 2.01v35.216c0 .811.33 1.565.926 2.123.672.619 1.523.95 2.46.95.969 0 1.741-.303 2.36-.925.691-.594 1.025-1.317 1.025-2.148v-31.424c0-.524.409-.956.932-.986 9.387-.537 16.8-.067 21.966 1.391 4.245 1.287 6.514 3.491 6.763 6.558.091 2.527-1.007 4.394-3.173 5.443-3.177 1.33-7.663 1.662-13.434 1.037-.099-.005-.231-.01-.361-.01-.7 0-1.252.147-1.79.478-.699.379-1.138.868-1.426 1.569-.26.575-.287 1.205-.1 1.954.185.557.597 1.062 1.272 1.519l21.873 14.901c.772.545 1.604.74 2.483.586 1.017-.115 1.728-.513 2.296-1.257.51-.683.717-1.441.612-2.25-.16-.827-.593-1.491-1.35-2.036l-11.567-7.84c-.323-.221-.487-.611-.416-.994.068-.387.36-.694.741-.785 1.675-.4 3.04-.863 4.171-1.414 4.616-2.15 6.887-5.694 6.959-10.842.269-6.053-3.457-10.115-11.387-12.447-4.175-1.306-9.829-1.966-16.811-1.966z"/><path d="m594.878 57.564c-.317 0-.636-.027-.965-.081-1.04-.25-1.888-.734-2.66-1.496l-25.526-26.353v22.852c0 1.368-.519 2.634-1.462 3.566-1.003 1.002-2.228 1.511-3.638 1.511s-2.689-.55-3.605-1.546c-.941-.843-1.492-2.121-1.492-3.531v-35.458c0-1.055.304-2 .933-2.888.464-.769 1.304-1.425 2.326-1.789.773-.36 1.839-.489 2.885-.322 1.005.252 1.833.702 2.623 1.394l25.5 26.454v-22.849c0-1.399.511-2.621 1.522-3.63.953-.938 2.221-1.451 3.577-1.451 1.357 0 2.571.477 3.607 1.417 1.014 1.09 1.497 2.302 1.497 3.664v35.458c0 1.054-.292 2.005-.867 2.822-.537.833-1.26 1.446-2.251 1.899-.763.254-1.383.357-2.004.357zm-30.139-31.358c.263 0 .519.105.711.301l27.207 28.089c.5.495 1.032.801 1.651.952.439.067 1.163.046 1.858-.181.537-.252.98-.623 1.33-1.164.367-.524.529-1.059.529-1.717v-35.458c0-.872-.29-1.59-.908-2.26-.621-.557-1.346-.845-2.221-.845-.833 0-1.61.311-2.185.879-.64.637-.939 1.346-.939 2.227v25.297c0 .404-.243.766-.617.917-.375.149-.803.059-1.081-.23l-27.138-28.159c-.497-.431-1.045-.731-1.66-.89-.118-.015-.325-.033-.53-.033-.441 0-.849.085-1.211.251-.678.246-1.154.604-1.419 1.042-.427.608-.608 1.164-.608 1.805v35.458c0 .858.312 1.593.904 2.128.612.659 1.355.973 2.217.973.891 0 1.603-.299 2.246-.94.567-.56.878-1.326.878-2.162v-25.292c0-.403.243-.766.616-.916.119-.049.246-.072.37-.072z"/></g><path d="m33.745 62.658-.283.042c-9.854 1.176-14.776.74-20.048.413-5.271-.328-5.218-2.857-5.176-3.935.043-1.081 1.005-3.574 4.963-3.826 1.413-.184 6.879.197 12.447.091 2.301 2.805 5.034 5.244 8.097 7.215z"/><path d="m17.997 29.608c-1.742 1.071-3.273 2.132-4.509 3.066-2.216 1.676-4.978 4.693-4.866 7.069 0 0 2.533 1.015 10.341-.702v.001c.184-.036.797-.153 1.776-.364l-.002-.013c3.391-.723 7.37-1.805 12.077-3.202 3.955-1.166 8.95-2.788 15.111-4.799l15.434-5.057c5.836-1.947 10.508-3.375 14.139-4.413 1.437-.413 2.872-.77 4.26-1.075v.002c.617-.136 1.224-.261 1.819-.376l-.001-.002c2.477-.481 4.733-.791 6.5-.959 2.202-.209 8.613-.772 11.983 2.381 2.942 2.751 1.909 8.611-.928 12.876-2.645 3.978-6.614 8.563-16.96 13.567 1.474-3.292 2.451-6.857 2.832-10.596 6.738-4.607 8.523-8.84 8.673-10.712-2.414-.437-6.211.07-9.794.827l.002.023c-.907.162-6.243 1.567-6.243 1.567-3.57.973-8.173 2.401-13.815 4.281l-15.435 5.058-.14.045c-5.839 1.946-10.705 3.491-14.594 4.688-.228.07-.44.136-.636.196-1.39.392-2.727.753-4.011 1.087-3.03.789-5.74 1.419-8.144 1.937l-.001-.002c-.623.134-1.224.261-1.804.381-4.731.914-16.896 2.788-20.321-3.068-1.339-2.289-.84-6.111 1.334-9.481s3.549-4.65 6.794-7.327c3.247-2.677 7.087-4.845 10.068-6.355.558-.282 1.196-.595 1.896-.93-1.455 3.229-2.431 6.719-2.835 10.381z"/><path d="m17.997 29.608c-1.742 1.071-3.273 2.132-4.509 3.066-2.216 1.676-4.978 4.693-4.866 7.069 0 0 2.533 1.015 10.341-.702v.001c.184-.036.797-.153 1.776-.364l-.002-.013c3.391-.723 7.37-1.805 12.077-3.202 3.955-1.166 8.95-2.788 15.111-4.799l15.434-5.057c5.836-1.947 10.508-3.375 14.139-4.413 1.437-.413 2.872-.77 4.26-1.075v.002c.617-.136 1.224-.261 1.819-.376l-.001-.002c2.477-.481 4.733-.791 6.5-.959 2.202-.209 8.613-.772 11.983 2.381 2.942 2.751 1.909 8.611-.928 12.876-2.645 3.978-6.614 8.563-16.96 13.567 1.474-3.292 2.451-6.857 2.832-10.596 6.738-4.607 8.523-8.84 8.673-10.712-2.414-.437-6.211.07-9.794.827l.002.023c-.907.162-6.243 1.567-6.243 1.567-3.57.973-8.173 2.401-13.815 4.281l-15.435 5.058-.14.045c-5.839 1.946-10.705 3.491-14.594 4.688-.228.07-.44.136-.636.196-1.39.392-2.727.753-4.011 1.087-3.03.789-5.74 1.419-8.144 1.937l-.001-.002c-.623.134-1.224.261-1.804.381-4.731.914-16.896 2.788-20.321-3.068-1.339-2.289-.84-6.111 1.334-9.481s3.549-4.65 6.794-7.327c3.247-2.677 7.087-4.845 10.068-6.355.558-.282 1.196-.595 1.896-.93-1.455 3.229-2.431 6.719-2.835 10.381z"/><path d="m85.256 28.954c.2 1.471.304 2.974.304 4.501 0 18.255-14.821 33.075-33.076 33.075-13.15 0-24.517-7.69-29.847-18.815.459-.097.92-.195 1.227-.262.004 0 .007-.001.011-.002l1.437-.32c2.426-.523 3.046-.691 6.107-1.488 1.294-.336 2.642-.7 4.043-1.095.012-.004.024-.007.035-.011.197-.06.411-.126.64-.197 3.897-1.2 8.772-2.747 14.622-4.697l.137-.044 15.436-5.058c.002-.001.005-.001.008-.002 5.603-1.867 10.175-3.287 13.721-4.253.175-.046 3.466-.915 5.195-1.332z"/><path d="m19.625 37.253c-.143-1.246-.216-2.513-.216-3.798 0-18.255 14.82-33.076 33.075-33.076 12.841 0 23.983 7.334 29.464 18.04l-.539.114c-1.42.312-2.888.678-4.358 1.101-3.647 1.042-8.34 2.476-14.202 4.431 0 0-15.429 5.056-15.429 5.056-6.142 2.005-11.122 3.622-15.065 4.785-.001 0-.002 0-.003 0-4.659 1.383-8.597 2.455-11.954 3.171-.067.014-.133.033-.197.055-.205.044-.399.085-.576.121z"/><path d="m71.764 4.607c1.976-.229 3.909-.407 5.802-.535 5.123-.324 9.077-.324 13.229.132 1.038.065 2.594.583 3.308 1.425.647.78.971 1.752.841 2.856-.129 1.036-.583 1.881-1.427 2.594-.843.648-2.758.934-4.1.842-1.201-.083-5.599-.382-9.861-.164-2.215-2.76-4.844-5.175-7.792-7.15z"/></g></svg>