<svg clip-rule="evenodd" fill-rule="evenodd" stroke-linejoin="round" stroke-miterlimit="2" viewBox="0 0 600 84" xmlns="http://www.w3.org/2000/svg"><g fill="#fff" fill-rule="nonzero"><path d="m478.514 82.92c-1.522-1.606-5.615-1.75-6.252-1.75-28.673 0-57.343-.002-86.019.001-2.914 0-3.439.357-3.082-3.337.584-6.046 2.806-11.663 7.196-16.001.841-.856 1.122-1.144 3.043-2.887 8.141-7.376 24.359-13.291 24.359-13.291s13.574-5.011 21.195-8.009c3.423-1.347 6.766-2.903 9.814-5.013 11.056-8.714 5.315-17.363-9.261-19.377-10.208-1.461-19.51 1.032-28.107 6.515-1.122.716-2.07 1.431-3.154 2.209-1.923 1.625-3.573 3.521-3.929 5.615-.192 1.132-.009 1.911.014 2.095.073.587.253 1.515-.183 1.942-.524.512-1.612-.001-2.094-.458-4.431-4.187-8.869-8.365-13.303-12.548-.278-.262-.79-.822-.79-.822s-.485-.562-.502-.947c-.019-.433.407-.841.916-.999 2.416-.445 3.531-.588 4.981-1.649 3.903-2.852 7.982-5.403 12.338-7.527 5.824-2.84 11.948-4.528 18.361-5.393 4.932-.665 19.417-2.92 36.338 4.604 4.463 1.957 8.29 4.729 11.175 8.638 1.707 2.314 8.145 15.001-4.971 25.135-4.687 3.762-10.281 6.085-15.938 8.06-4.84 1.691-8.393 2.96-16.312 5.248-6.013 1.789-10.329 3.189-17.21 6.454-5.473 2.595-9.066 5.752-9.066 5.752s-1.792 1.382-1.445 2.462c.3.94 1.796.845 2.676.847 21.171.014 42.343.01 63.514.011 2.191 0 4.314-.154 5.987-1.874.243-.251.887-.386 1.178-.239.279.139.474.714.476 1.099.033 4.959.035 10.028.006 14.986-.004.482-.161.654-.402.793-.362.208-1.129.096-1.547-.345z"/><path d="m320.786 82.297c-3.474-.212-6.956-.659-10.387-1.265-13.963-2.462-20.457-5.76-24.354-7.289-1.863-.731-3.683-1.423-5.707-.682-.231.086-.502.081-.755.086-1.286.014-1.68-.487-1.121-1.635.666-1.367 1.446-2.682 2.233-3.989 2.132-3.536 4.293-7.056 6.443-10.583.099-.161.212-.317.31-.481.438-.734.919-1.415 1.924-1.274.945.133 1.149.912 1.346 1.65.433 1.608 1.414 2.805 2.704 3.801 3.054 2.364 6.503 3.954 10.121 5.217 4.692 1.637 9.522 2.661 14.428 3.431 5.808.912 11.647 1.028 17.479.69 4.943-.288 9.813-1.18 14.473-3.001 2.837-1.108 4.989-3.065 6.711-5.456 2.286-3.172 1.35-7.532-1.765-10.012-4.231-3.368-9.151-4.699-14.363-5.595-4.686-.802-9.366-.717-14.057-.657-2.202.029-7.466.238-9.484 2.111-.743.655-1.332.704-1.686.385-.353-.321-.369-.828-.373-1.269-.04-4.58-.044-9.159-.014-13.736.01-1.5.71-1.953 1.872-1.139 1.467 1.028 3.096 1.477 4.797 1.695 2.825.363 12.046.043 13.93-.204 5.036-.658 4.597-.578 7.536-1.366 3.146-.842 6.148-3.049 7.714-4.875.026-.029.052-.06.076-.09 2.185-2.63 1.451-5.659-.581-7.827-1.951-2.081-4.404-3.413-7.135-4.22-4.475-1.319-9.059-2.041-13.711-1.822-8.42.396-16.679 1.681-24.293 5.599-1.743.897-3.377 2.025-4.987 3.155-1.375.964-2.067 2.377-2.106 4.077-.02.884.121 1.895-.929 2.282-1.059.389-1.607-.532-2.211-1.145-3.878-3.941-7.74-7.895-11.606-11.848-.222-.227-.47-.443-.634-.709-.467-.756-.18-1.383.715-1.487 1.002-.115 2.075.043 3.006-.26 1.375-.448 2.661-1.18 3.969-1.823 3.477-1.705 6.864-3.626 10.437-5.096 5.659-2.328 11.614-3.579 17.697-4.334 5.822-.722 16.095-1.023 23.526.075 4.967.75 9.891 1.748 14.502 3.803 4.067 1.812 8.038 3.836 11.075 7.257 2.195 2.472 3.668 5.235 4.163 8.585.474 3.212-.055 6.145-1.428 9.026-.945 1.983-2.359 3.268-4.304 4.435-3.816 2.287-6.075 2.86-6.558 3.156-.768.466-.801 1.088-.018 1.536.704.405 1.513.642 2.297.885 4.593 1.435 8.537 3.955 11.825 7.408 2.402 2.52 3.824 5.541 4.302 9.112.489 3.66-.369 6.892-1.95 10.07-1.23 2.476-3.269 4.217-5.415 5.794-4.338 3.194-9.171 5.356-14.351 6.889-3.856 1.138-7.763 1.913-11.721 2.436-13.53 1.483-20.441.717-23.607.523z"/><path d="m507.155 1.334c4.514 0 9.028 0 13.544.001.444 0 .894-.034 1.333.018 1.006.12 1.161.546.53 1.368-1.128 1.47-1.119 1.628.166 2.986.042.047.089.091.134.136 6.297 6.372 12.6 12.745 18.901 19.118.313.318.604.659.968.916.632.455 1.309.463 1.932-.038.346-.277.652-.604.965-.921 6.221-6.273 12.442-12.549 18.662-18.825.225-.225.459-.444.658-.691.829-1.03.81-1.395.036-2.5-.697-.941-.697-1.514.724-1.55.31-.008.632-.017.951-.017 9.156 0 18.312-.002 27.468.003.569 0 1.152-.007 1.7.114.235.051.519.404.559.653.038.248-.134.68-.339.783-.618.31-1.281.575-1.957.724-2.563.56-4.651 1.825-6.503 3.713-7.971 8.122-16.024 16.161-24.033 24.246-2.006 2.03-3.984 4.101-5.953 6.174-1.245 1.309-1.248 1.927.014 3.218 2.219 2.262 4.498 4.466 6.706 6.739 1.636 1.683 3.156 3.48 4.805 5.148 4.381 4.432 8.817 8.808 13.204 13.231 2.954 2.977 5.882 5.979 8.784 9.006 1.671 1.747 3.618 2.963 5.966 3.564.856.217 1.693.543 2.501.901.22.098.449.514.416.746-.035.239-.348.548-.6.628-.413.13-.876.131-1.316.131-9.347.007-18.694.006-28.04.002-.379 0-.775.008-1.134-.095-.595-.17-.82-.528-.451-1.144.309-.519.798-1.11.742-1.617-.062-.54-.616-1.07-1.05-1.51-7.25-7.399-14.514-14.785-21.775-22.173-.266-.272-.535-.545-.81-.809-1.604-1.55-2.192-1.57-3.8.029-4.642 4.617-9.292 9.234-13.892 13.897-2.988 3.028-5.9 6.131-8.839 9.21-1.108 1.16-1.108 1.232-.266 2.769.48.88.298 1.265-.704 1.409-.434.064-.886.039-1.333.039-9.028.001-18.055.013-27.084-.015-.812-.003-2.17.218-2.24-.77-.142-1.032 1.105-1.084 1.838-1.257 3.289-.77 5.797-2.645 8.122-5.03 7.411-7.602 14.946-15.079 22.406-22.635 2.315-2.345 4.53-4.793 6.818-7.167.882-.912 1.861-1.728 2.763-2.623 1.884-1.869 1.894-2.369.079-4.198-5.498-5.562-11.007-11.107-16.501-16.672-4.466-4.521-8.948-9.027-13.357-13.603-1.698-1.762-3.691-2.858-6.038-3.406-.432-.101-.857-.235-1.281-.367-.604-.186-1.35-.329-1.267-1.151.084-.837.82-.837 1.473-.835.383 0 .764-.002 1.145-.002 4.519.001 9.035.001 13.55.001z"/><path d="m.005 83.366 35.201-.028c14.396 0 26.066-11.668 26.066-26.067 0-14.394-11.669-26.064-26.066-26.064l-9.141.044c-.729 0-1.318-.591-1.318-1.318 0-.733.59-1.322 1.318-1.322l35.115.005.021-11.036h-35.143c-6.811 0-12.33 5.521-12.33 12.329 0 6.81 5.519 12.33 12.33 12.33l9.185.103c8.243 0 14.925 6.68 14.925 14.921 0 8.246-6.681 14.927-14.925 14.927h-35.225l-.013 11.176"/><path d="m.018 69.592h35.225c6.811 0 12.329-5.517 12.329-12.329 0-6.806-5.519-12.328-12.329-12.328l-9.185-.099c-8.244 0-14.925-6.681-14.925-14.927 0-8.243 6.682-14.923 14.925-14.923l35.143-.016-.021-11.095-35.115-.01c-14.395 0-26.065 11.671-26.065 26.068 0 14.394 11.669 26.063 26.065 26.063l9.086.007c.705 0 1.274.571 1.274 1.276 0 .703-.569 1.276-1.274 1.276l-35.146.014.013 11.023"/><path d="m88.552 72.26c-6.098 0-11.1-4.886-11.1-11.097v-35.284c0-5.982 5.003-10.929 11.1-10.929l37.572.01-.003-11.081-37.569-.008c-12.219 0-22.121 9.907-22.121 22.121v35.171c0 12.215 9.903 22.119 22.121 22.119l37.416.015-.014-11.052z"/><path d="m80.145 25.992c0-4.659 3.746-8.436 8.407-8.436h37.572l-.003 11.064h-32.369c-2.593.001-2.624 2.608-2.624 2.608h26.991l.008 11.028h-38.002z"/><path d="m88.552 69.577c-4.649 0-8.417-3.77-8.417-8.415l-.008-16.273h38.003l-.009 11.061h-26.995c.031 2.603 2.625 2.607 2.625 2.607h32.217l-.014 11.007z"/><path d="m152.448 72.231c-6.1 0-11.07-4.972-11.07-11.068v-35.171c0-6.095 4.942-11.041 11.04-11.041l36.375-.006.005-11.07-36.466-.002c-12.218 0-22.12 9.905-22.12 22.12v35.171c0 12.215 9.991 22.118 22.207 22.118l36.379.016-.002-52.081h-31.266v11.039h20.213v29.979z"/><path d="m143.982 61.162c0 4.657 3.776 8.493 8.435 8.493l22.719.001v-24.792h-17.579v11.076h6.524l.027 2.607-6.491-.01c-1.434 0-2.596-1.164-2.596-2.597l-.041-24.739s-.007-2.58 2.608-2.634h31.237l-.031-11.04-36.376.028c-4.658 0-8.434 3.778-8.434 8.435v35.172"/><path d="m222.979 17.372c.49-1.406 1.828-2.419 3.4-2.419 1.577 0 2.92 1.017 3.405 2.427l17.644 52.332h-25.838l.027-12.307h8.644l-3.901-11.588-12.662 37.468h-13.052z"/><path d="m250.997 72.235h-29.368v11.053h44.714l-23.26-69.023c-2.037-6.73-8.745-11.67-16.71-11.67-7.957 0-14.662 4.937-16.705 11.657l-23.473 69.034h11.706l22.772-67.111c.931-2.22 3.123-3.783 5.681-3.783 2.557 0 4.741 1.549 5.675 3.763z"/></g></svg>