<svg clip-rule="evenodd" fill-rule="evenodd" stroke-linejoin="round" stroke-miterlimit="2" viewBox="0 0 600 183" xmlns="http://www.w3.org/2000/svg"><g fill="#fff" fill-rule="nonzero"><path d="m.032 182.06 79.281-.08c32.436 0 58.723-26.206 58.723-58.497 0-32.353-26.287-58.562-58.723-58.562l-20.59.112c-1.623 0-2.938-1.33-2.938-2.968 0-1.637 1.315-2.97 2.938-2.97l79.137.017.032-24.827h-79.186c-15.31 0-27.765 12.437-27.765 27.717 0 15.295 12.453 27.683 27.765 27.683l20.687.273c18.584 0 33.623 14.988 33.623 33.479 0 18.504-15.037 33.526-33.623 33.526h-79.33l-.031 25.097z"/><path d="m.063 151.134h79.33c15.358 0 27.78-12.388 27.78-27.699 0-15.295-12.422-27.668-27.78-27.668l-20.687-.225c-18.553 0-33.606-15.004-33.606-33.542 0-18.487 15.053-33.494 33.606-33.494l79.186-.017-.032-24.922h-79.137c-32.403 0-58.723 26.176-58.723 58.498s26.32 58.514 58.723 58.514l20.477.032c1.557 0 2.873 1.269 2.873 2.872 0 1.574-1.316 2.841-2.873 2.841l-79.168.064.031 24.746zm199.439 5.987c-13.755 0-25.021-10.962-25.021-24.958v-79.198c0-13.465 11.266-24.54 25.021-24.54l84.625.015v-24.873h-84.625c-27.539 0-49.846 22.227-49.846 49.671v78.927c0 27.446 22.307 49.705 49.846 49.705l84.271.034-.017-24.812z"/><path d="m180.548 53.238c0-10.495 8.442-19.001 18.954-19.001h84.625v24.907h-72.909c-5.841 0-5.922 5.794-5.922 5.794h60.826v24.795h-85.604zm18.954 97.85c-10.48 0-18.986-8.458-18.986-18.923v-36.527h85.604v24.846h-60.826c.081 5.84 5.921 5.87 5.921 5.87h72.556l-.017 24.7zm143.927 5.97c-13.706 0-24.907-11.17-24.907-24.895v-78.928c0-13.737 11.121-24.812 24.842-24.812h81.963v-24.856h-82.154c-27.526 0-49.834 22.227-49.834 49.671v78.927c0 27.446 22.5 49.705 50.025 49.705l81.963.034v-116.966h-70.438v24.795h45.545v67.325z"/><path d="m324.363 132.163c0 10.516 8.506 19.069 19.001 19.069h51.196v-55.626h-39.61v24.878h14.7l.047 5.84h-14.635c-3.194 0-5.809-2.646-5.809-5.84l-.131-55.563s-.017-5.777 5.875-5.921h70.357l-.031-24.78-81.964.017c-10.423 0-19.001 8.577-19.001 19.001v78.925m177.986-98.297c1.137-3.244 4.217-5.429 7.655-5.429s6.519 2.185 7.655 5.429l39.787 117.541h-58.259l.063-27.651h19.469l-8.765-26.047-28.55 84.174h-29.369z"/><path d="m565.463 157.058h-66.184v24.825h100.721l-52.383-154.983c-4.59-15.117-19.722-26.238-37.636-26.238-17.941 0-33.026 11.072-37.651 26.177l-52.863 155.046h26.369l51.325-150.714c2.144-5.146 7.201-8.512 12.776-8.506 5.565.008 10.613 3.353 12.79 8.475z"/></g></svg>