<?xml version="1.0" encoding="UTF-8" standalone="no"?><!DOCTYPE svg PUBLIC "-//W3C//DTD SVG 1.1//EN" "http://www.w3.org/Graphics/SVG/1.1/DTD/svg11.dtd"><svg width="100%" height="100%" viewBox="0 0 600 218" version="1.1" xmlns="http://www.w3.org/2000/svg" xmlns:xlink="http://www.w3.org/1999/xlink" xml:space="preserve" xmlns:serif="http://www.serif.com/" style="fill-rule:evenodd;clip-rule:evenodd;stroke-linejoin:round;stroke-miterlimit:2;"><g id="sega_model1"><g><path d="M33.785,77.024l29.645,-0.033c12.129,-0 21.958,-11.009 21.958,-24.573c0,-13.591 -9.829,-24.6 -21.958,-24.6l-7.699,0.047c-0.607,-0 -1.099,-0.559 -1.099,-1.247c0,-0.688 0.492,-1.248 1.099,-1.248l29.591,0.007l0.012,-10.429l-29.609,0c-5.725,0 -10.383,5.225 -10.383,11.643c0,6.425 4.657,11.629 10.383,11.629l7.735,0.115c6.949,-0 12.573,6.296 12.573,14.063c-0,7.773 -5.623,14.083 -12.573,14.083l-29.664,0l-0.011,10.543Z" style="fill:#fff;fill-rule:nonzero;"/><path d="M33.796,64.033l29.664,0c5.743,0 10.388,-5.204 10.388,-11.636c-0,-6.424 -4.645,-11.622 -10.388,-11.622l-7.735,-0.094c-6.938,-0 -12.567,-6.303 -12.567,-14.091c0,-7.765 5.629,-14.07 12.567,-14.07l29.609,-0.007l-0.012,-10.469l-29.591,0c-12.116,0 -21.958,10.996 -21.958,24.574c-0,13.577 9.842,24.58 21.958,24.58l7.657,0.013c0.582,0 1.074,0.533 1.074,1.207c0,0.661 -0.492,1.193 -1.074,1.193l-29.603,0.027l0.011,10.395Zm74.576,2.515c-5.143,0 -9.356,-4.605 -9.356,-10.484l-0,-33.269c-0,-5.656 4.213,-10.308 9.356,-10.308l31.644,0.006l-0,-10.449l-31.644,0c-10.297,0 -18.639,9.337 -18.639,20.866l0,33.155c0,11.529 8.342,20.879 18.639,20.879l31.512,0.015l-0.007,-10.423l-31.505,0.012Z" style="fill:#fff;fill-rule:nonzero;"/><path d="M101.285,22.91c-0,-4.409 3.157,-7.982 7.087,-7.982l31.644,-0l-0,10.463l-27.263,-0c-2.184,-0 -2.214,2.434 -2.214,2.434l22.744,-0l0,10.415l-32.01,0l0.012,-15.33Zm7.087,41.104c-3.919,-0 -7.099,-3.553 -7.099,-7.949l-0,-15.344l32.009,-0l0,10.437l-22.744,-0c0.03,2.453 2.214,2.466 2.214,2.466l27.131,-0l-0.007,10.376l-31.504,0.014Zm53.819,2.507c-5.126,0 -9.314,-4.692 -9.314,-10.457l-0,-33.155c-0,-5.771 4.158,-10.423 9.289,-10.423l30.648,-0l0,-10.442l-30.719,0c-10.293,0 -18.634,9.337 -18.634,20.866l-0,33.155c-0,11.529 8.413,20.879 18.705,20.879l30.648,0.015l0,-49.134l-26.338,-0l-0,10.415l17.03,0l0,28.281l-21.315,0Z" style="fill:#fff;fill-rule:nonzero;"/><path d="M155.061,56.064c0,4.417 3.181,8.01 7.105,8.01l19.144,0l-0,-23.367l-14.812,0l0,10.451l5.497,-0l0.018,2.453l-5.473,0c-1.194,0 -2.172,-1.111 -2.172,-2.453l-0.049,-23.34c0,-0 -0.006,-2.427 2.197,-2.488l26.309,0l-0.012,-10.409l-30.649,0.007c-3.897,-0 -7.105,3.603 -7.105,7.982l0,33.154m66.554,-41.292c0.425,-1.363 1.577,-2.281 2.863,-2.281c1.285,0 2.437,0.918 2.862,2.281l14.878,49.376l-21.785,-0l0.023,-11.616l7.28,0l-3.277,-10.941l-10.676,35.359l-10.981,-0l18.813,-62.178Z" style="fill:#fff;fill-rule:nonzero;"/><path d="M245.215,66.521l-24.748,0l0,10.429l37.663,-0l-19.588,-65.104c-1.716,-6.35 -7.375,-11.022 -14.073,-11.022c-6.709,0 -12.35,4.651 -14.079,10.996l-19.767,65.131l9.86,-0l19.192,-63.311c0.802,-2.162 2.693,-3.576 4.777,-3.573c2.081,0.003 3.969,1.408 4.783,3.56l15.98,52.894Z" style="fill:#fff;fill-rule:nonzero;"/></g><path d="M80.639,163.207l-17.551,-47.009c-0.328,-0.818 -1.023,-1.555 -2.087,-2.209c-1.064,-0.655 -2.25,-0.982 -3.559,-0.982c-1.146,-0 -2.332,0.327 -3.56,0.982c-1.227,0.654 -1.964,1.391 -2.209,2.209l-35.349,100.891l-16.324,0l37.926,-107.028c0.655,-1.718 1.514,-3.375 2.578,-4.971c1.064,-1.596 2.393,-3.028 3.989,-4.296c1.595,-1.268 3.457,-2.27 5.584,-3.007c2.128,-0.736 4.583,-1.105 7.365,-1.105c2.782,0 5.196,0.369 7.241,1.105c2.046,0.737 3.846,1.739 5.401,3.007c1.555,1.268 2.884,2.7 3.989,4.296c1.104,1.596 2.066,3.253 2.884,4.971l3.682,7.364l3.683,-7.364c0.9,-1.718 1.902,-3.375 3.007,-4.971c1.104,-1.596 2.413,-3.028 3.927,-4.296c1.514,-1.268 3.294,-2.27 5.339,-3.007c2.046,-0.736 4.46,-1.105 7.242,-1.105c2.7,0 5.135,0.369 7.303,1.105c2.168,0.737 4.05,1.739 5.646,3.007c1.596,1.268 2.946,2.7 4.05,4.296c1.105,1.596 1.944,3.253 2.516,4.971l37.927,107.028l-16.325,0l-35.348,-100.891c-0.246,-0.818 -0.982,-1.555 -2.21,-2.209c-1.227,-0.655 -2.413,-0.982 -3.559,-0.982c-1.309,-0 -2.496,0.327 -3.559,0.982c-1.064,0.654 -1.76,1.391 -2.087,2.209l-17.552,47.009Zm0,53.882l-23.197,-61.86l-20.375,61.86l-16.324,0l33.63,-97.823c0.164,-0.491 0.573,-0.92 1.228,-1.288c0.654,-0.369 1.268,-0.553 1.841,-0.553c0.573,0 1.166,0.184 1.779,0.553c0.614,0.368 1.003,0.797 1.166,1.288l20.252,55.847l20.252,-55.847c0.164,-0.491 0.553,-0.92 1.166,-1.288c0.614,-0.369 1.207,-0.553 1.78,-0.553c0.573,0 1.186,0.184 1.841,0.553c0.655,0.368 1.064,0.797 1.227,1.288l33.631,97.823l-15.711,0l-20.988,-61.86l-23.198,61.86Z" style="fill:#fff;fill-rule:nonzero;"/><path d="M248.353,134.05l-0,45.672c-0,24.911 -12.456,37.367 -37.368,37.367l-16.608,0c-24.911,0 -37.367,-12.456 -37.367,-37.367l-0,-45.672c-0,-24.912 12.456,-37.368 37.367,-37.368l16.608,0c24.912,0 37.368,12.456 37.368,37.368Zm-20.76,0l-0,45.672c-0,11.071 -5.536,16.607 -16.608,16.607l-16.608,0c-11.072,0 -16.607,-5.536 -16.607,-16.607l-0,-45.672c-0,-11.072 5.535,-16.608 16.607,-16.608l16.608,0c11.072,0 16.608,5.536 16.608,16.608Zm4.152,0c-0,-13.84 -6.92,-20.76 -20.76,-20.76l-16.608,0c-13.84,0 -20.759,6.92 -20.759,20.76l-0,45.672c-0,13.839 6.919,20.759 20.759,20.759l16.608,0c13.84,0 20.76,-6.92 20.76,-20.759l-0,-45.672Zm-20.76,4.152c0,-2.768 -1.384,-4.152 -4.152,-4.152l-8.304,0c-2.768,0 -4.152,1.384 -4.152,4.152l0,37.368c0,2.768 1.384,4.152 4.152,4.152l8.304,-0c2.768,-0 4.152,-1.384 4.152,-4.152l0,-37.368Z" style="fill:#fff;fill-rule:nonzero;"/><path d="M340.902,134.05l0,45.672c0,24.911 -12.456,37.367 -37.368,37.367l-49.823,0l-0,-78.887l16.608,-0l-0,62.279l33.215,0c13.84,0 20.76,-6.92 20.76,-20.759l0,-45.672c0,-13.84 -6.92,-20.76 -20.76,-20.76l-49.823,0l-0,-16.608l49.823,0c24.912,0 37.368,12.456 37.368,37.368Zm-20.76,0l0,45.672c0,11.071 -5.536,16.607 -16.608,16.607l-29.063,0l-0,-58.127l16.608,-0l-0,41.52l8.303,-0c2.768,-0 4.152,-1.384 4.152,-4.152l0,-37.368c0,-2.768 -1.384,-4.152 -4.152,-4.152l-45.671,0l-0,-16.608l49.823,0c11.072,0 16.608,5.536 16.608,16.608Z" style="fill:#fff;fill-rule:nonzero;"/><path d="M346.26,134.05c0,-24.912 12.456,-37.368 37.368,-37.368l49.823,0l0,16.608l-49.823,0c-13.84,0 -20.76,6.92 -20.76,20.76l0,45.672c0,13.839 6.92,20.759 20.76,20.759l49.823,0l0,16.608l-49.823,0c-24.912,0 -37.368,-12.456 -37.368,-37.367l0,-45.672Zm20.76,20.76l0,-20.76c0,-11.072 5.536,-16.608 16.608,-16.608l49.823,0l0,16.608l-45.671,0c-2.768,0 -4.152,1.384 -4.152,4.152l37.367,-0l0,16.608l-53.975,-0Zm0,4.152l53.975,-0l0,16.608l-37.367,-0c-0,2.768 1.384,4.152 4.152,4.152l45.671,-0l0,16.607l-49.823,0c-11.072,0 -16.608,-5.536 -16.608,-16.607l0,-20.76Z" style="fill:#fff;fill-rule:nonzero;"/><path d="M455.417,96.682l0,83.04c0,13.839 6.92,20.759 20.76,20.759l58.127,0l0,16.608l-58.127,0c-24.912,0 -37.368,-12.456 -37.368,-37.367l0,-83.04l16.608,0Zm20.76,0l0,78.888c0,2.768 1.384,4.152 4.152,4.152l53.975,-0l0,16.607l-58.127,0c-11.072,0 -16.608,-5.536 -16.608,-16.607l0,-83.04l16.608,0Z" style="fill:#fff;fill-rule:nonzero;"/><path d="M579.24,217.089l-16.608,0l0,-78.887c0,-2.768 -1.384,-4.152 -4.152,-4.152l-16.607,0l-0,-16.608l20.759,0c11.072,0 16.608,5.536 16.608,16.608l0,83.039Zm4.152,-83.039c0,-13.84 -6.92,-20.76 -20.76,-20.76l-20.759,0l-0,-16.608l20.759,0c24.912,0 37.368,12.456 37.368,37.368l-0,83.039l-16.608,0l0,-83.039Z" style="fill:#fff;fill-rule:nonzero;"/></g></svg>