<svg clip-rule="evenodd" fill-rule="evenodd" stroke-linejoin="round" stroke-miterlimit="2" viewBox="0 0 600 194" xmlns="http://www.w3.org/2000/svg"><g fill="#fff"><g fill-rule="nonzero"><path d="m11.738 69.471 30.045-.031c12.293 0 22.254-9.931 22.254-22.168 0-12.261-9.961-22.193-22.254-22.193l-7.803.042c-.614 0-1.113-.504-1.113-1.125 0-.62.499-1.125 1.113-1.125l29.991.006.012-9.408h-30.009c-5.802 0-10.522 4.713-10.522 10.503 0 5.797 4.719 10.491 10.522 10.491l7.84.104c7.043 0 12.742 5.68 12.742 12.687 0 7.013-5.699 12.705-12.742 12.705h-30.064z"/><path d="m11.75 57.751h30.064c5.82 0 10.527-4.695 10.527-10.498 0-5.796-4.707-10.485-10.527-10.485l-7.84-.085c-7.031 0-12.736-5.686-12.736-12.711 0-7.006 5.705-12.694 12.736-12.694l30.009-.006-.012-9.445h-29.991c-12.279 0-22.254 9.92-22.254 22.169s9.975 22.175 22.254 22.175l7.761.012c.59 0 1.088.481 1.088 1.089 0 .596-.498 1.076-1.088 1.076l-30.003.025zm75.581 2.268c-5.212 0-9.482-4.154-9.482-9.458v-30.013c0-5.103 4.27-9.3 9.482-9.3l32.07.006v-9.427h-32.07c-10.436 0-18.89 8.424-18.89 18.824v29.911c0 10.401 8.454 18.836 18.89 18.836l31.936.013-.006-9.403z"/><path d="m80.148 20.651c0-3.977 3.2-7.201 7.183-7.201h32.07v9.439h-27.63c-2.214 0-2.244 2.196-2.244 2.196h23.051v9.397h-32.441zm7.183 37.082c-3.971 0-7.195-3.205-7.195-7.171v-13.843h32.441v9.416h-23.051c.031 2.213 2.244 2.225 2.244 2.225h27.496l-.006 9.36zm54.544 2.262c-5.194 0-9.439-4.233-9.439-9.434v-29.911c0-5.206 4.214-9.403 9.414-9.403h31.061v-9.42h-31.133c-10.432 0-18.886 8.424-18.886 18.824v29.911c0 10.401 8.527 18.836 18.958 18.836l31.061.013v-44.326h-26.693v9.397h17.26v25.513z"/><path d="m134.649 50.561c0 3.985 3.224 7.227 7.201 7.227h19.402v-21.081h-15.011v9.428h5.571l.017 2.213h-5.546c-1.21 0-2.201-1.002-2.201-2.213l-.05-21.056s-.006-2.19 2.226-2.244h26.664l-.012-9.391-31.062.006c-3.95 0-7.2 3.251-7.2 7.201v29.91m67.45-37.251c.431-1.23 1.599-2.058 2.901-2.058 1.303 0 2.471.828 2.901 2.058l15.078 44.544h-22.078l.024-10.479h7.378l-3.322-9.871-10.819 31.899h-11.13z"/><path d="m226.018 59.995h-25.081v9.408h38.17l-19.852-58.733c-1.739-5.729-7.474-9.943-14.263-9.943-6.799 0-12.515 4.196-14.268 9.92l-20.033 58.757h9.993l19.45-57.115c.813-1.951 2.729-3.226 4.842-3.224 2.109.003 4.022 1.271 4.847 3.212z"/></g><path d="m532.135 189.563c0-.185 8.121-51.409 9.554-60.976 3.504-23.403 4.08-26.654 6.56-28.914 3.007-2.74 3.721-2.353 17.382-2.182 12.084.15 12.668.039 17.556 2.231 4.596 2.061 10.118 7.664 12.395 11.537 5.982 10.173 5.179 19.347 1.783 27.705-2.36 5.807-9.707 11.355-12.182 12.613 2.727 1.418 4.847 3.678 5.501 7.084.302 1.575 6.263 29.434 6.263 30.902.226-.036-19.198 0-19.198 0s-1.384-7.275-2.705-13.633c-3.108-14.962-3.799-17.121-7.988-18.528-1.977-.664-10.086-.532-10.086-.532l-5.134 32.693s-19.701.184-19.701 0zm38.456-51.503c4.914-1.459 9.201-6.541 9.201-11.257 0-4.043-2.271-8.531-5.852-10.157-2.551-1.159-10.443-.643-10.443-.643l-3.515 22.765s7.595.187 10.609-.708z"/><path d="m31.692 192.506c-7.838-1.704-13.981-5.185-19.557-11.08-6.063-6.41-10.185-14.925-11.665-24.101-.976-6.048-.38-16.656 1.301-23.145 1.838-7.099 6.121-15.664 10.641-21.277 7.227-8.973 17.732-16.075 27.209-17.71 9.46-1.631 16.45-1.107 25.184 3.249 5.096 2.542 6.85 3.734 10.627 7.477 4.478 4.438 7.417 8.268 9.852 12.98.081-.014-16.356 8.46-16.374 8.461-1.42-2.538-5.803-8.021-7.99-9.749-3.976-3.144-8.309-4.919-13.657-4.699-3.52.146-5.738 1.102-8.206 2.251-6.778 3.156-11.976 9.239-15.97 17.367-2.883 5.867-4.197 11.394-4.197 17.649 0 8.608 2.108 14.181 7.178 18.976 10.129 9.579 24.522 6.392 33.376-7.39 1.058-1.648 2.65-4.754 2.65-4.754h-21.136l7.229-17.445s1.998.122 17.263 0c15.053-.12 15.693-.109 18.101 3.444 1.093 1.614 1.332 2.622 1.083 5.619-.381 4.577-2.786 11.889-5.359 17.302-9.195 19.349-29.266 30.559-47.583 26.575z"/><path d="m356.488 190.635c-7.838-1.705-13.982-5.186-19.558-11.081-6.063-6.409-10.184-14.925-11.664-24.1-.976-6.048-.38-16.656 1.3-23.146 1.838-7.099 6.122-15.664 10.642-21.276 7.227-8.974 17.731-16.076 27.208-17.71 9.461-1.632 16.451-1.108 25.185 3.249 5.096 2.541 6.85 3.733 10.627 7.477 4.478 4.437 7.417 8.268 9.852 12.979.081-.013-16.356 8.46-16.374 8.462-1.421-2.539-5.803-8.022-7.99-9.75-3.977-3.144-8.309-4.919-13.657-4.698-3.52.145-5.738 1.101-8.207 2.251-6.777 3.155-11.975 9.238-15.969 17.367-2.883 5.866-4.198 11.394-4.198 17.649 0 8.607 2.109 14.181 7.179 18.976 10.128 9.579 24.522 6.392 33.376-7.391 1.058-1.647 2.65-4.753 2.65-4.753h-21.137l7.23-17.445s1.998.122 17.263 0c15.052-.12 15.693-.109 18.1 3.444 1.094 1.614 1.333 2.621 1.084 5.619-.382 4.577-2.786 11.889-5.359 17.301-9.196 19.35-29.266 30.559-47.583 26.576z"/><path d="m183.007 190.485c-4.307-1.741-5.372-8.466-7.864-23.466-1.871-11.264-3.347-17.628-3.544-16.813-.175.722-6.166 40.983-6.166 40.983h-19.079s11.828-79.617 12.577-82.275c.924-3.278 4.126-7.432 7.251-8.945 3.199-1.549 7.52-1.475 10.795.185 2.942 1.491 5.739 4.564 6.549 7.053.313.964 7.741 44.261 7.849 44.37.109.108 3.473-6.717 7.475-15.168 15.182-32.054 15.689-33.485 20.248-35.845 4.724-2.446 12.386-.835 15.653 3.607 2.971 4.04 3.06 5.784 1.181 18.587-4.048 27.574-10.111 67.972-10.111 67.972h-18.268s5.167-38.303 5.093-38.509c-.14-.385-8.355 16.523-13.445 27.671-4.267 9.346-5.761 10.964-10.72 11.604-1.766.228-3.068-.039-5.474-1.011z"/><path d="m241.109 189.481c-2.777-2.136-4.166-4.696-4.166-7.679 0-3.832 10.532-75.304 11.321-76.831 1.274-2.463 3.762-4.518 6.221-5.137 1.56-.393 43.417 0 43.417 0l-2.587 17.291h-29.28l-3.073 18.414h24.861l-2.903 18.65h-24.955l-2.689 18.195h29.193l-2.795 19.051s-9.053-.246-20.156-.246c-20.188 0-20.188 0-22.409-1.708z"/><path d="m414.247 187.61c-2.778-2.136-4.167-4.697-4.167-7.68 0-3.831 10.532-75.304 11.321-76.831 1.274-2.463 3.762-4.517 6.222-5.136 1.559-.393 43.417 0 43.417 0l-2.588 17.291h-29.279l-3.073 18.413h24.86l-2.903 18.65h-24.955l-2.689 18.196h29.193l-2.795 19.05s-9.052-.246-20.156-.246c-20.188 0-20.188 0-22.408-1.707z"/><path d="m74.06 190.95c0-.373 32.791-79.49 34.583-83.441 1.684-3.712 3.944-6.211 7.118-7.87 3.094-1.618 9.119-2.058 12.418-.391 3.04 1.536 5.835 4.439 7.187 7.063 1.136 2.206 1.455 6.847 5.511 58.869.879 11.271 2.215 26.009 2.215 26.009l-18.721-.094-1.867-17.736h-20.242l-7.301 17.591s-20.901.144-20.901 0zm36.038-36.567 10.384-.052s-2.127-19.697-2.187-19.637c-.076.075-8.197 19.689-8.197 19.689z"/><path d="m459.455 189.078c0-.373 32.792-79.49 34.584-83.44 1.683-3.712 3.944-6.212 7.117-7.871 3.094-1.617 9.119-2.057 12.418-.391 3.04 1.536 5.835 4.439 7.187 7.064 1.136 2.206 1.456 6.847 5.512 58.869.878 11.27 2.214 26.009 2.214 26.009l-18.721-.095-1.867-17.735h-20.241l-7.301 17.59s-20.902.144-20.902 0zm36.039-36.567 10.384-.051s-2.128-19.697-2.188-19.638c-.075.076-8.196 19.689-8.196 19.689z"/><path d="m284.79 28.806c13.255-17.327 29.878-27.174 37.134-22.034 7.238 5.157 2.364 23.383-10.91 40.694-13.257 17.328-29.878 27.173-37.115 22.033-7.257-5.155-2.366-23.381 10.891-40.693z" fill-rule="nonzero"/><path d="m346.151 28.806c13.255-17.327 29.878-27.174 37.134-22.034 7.238 5.157 2.364 23.383-10.91 40.694-13.257 17.328-29.878 27.173-37.116 22.033-7.256-5.155-2.365-23.381 10.892-40.693z" fill-rule="nonzero"/><path d="m407.512 28.806c13.255-17.327 29.878-27.174 37.134-22.034 7.238 5.157 2.363 23.383-10.91 40.694-13.257 17.328-29.878 27.173-37.116 22.033-7.256-5.155-2.365-23.381 10.892-40.693z" fill-rule="nonzero"/></g></svg>