<svg clip-rule="evenodd" fill-rule="evenodd" stroke-linejoin="round" stroke-miterlimit="2" viewBox="0 0 600 221" xmlns="http://www.w3.org/2000/svg"><g fill="#fff" fill-rule="nonzero"><path d="m34.362 77.724 30.152-.034c12.337 0 22.334-11.197 22.334-24.993 0-13.823-9.997-25.021-22.334-25.021l-7.83.048c-.617 0-1.118-.568-1.118-1.268 0-.699.501-1.269 1.118-1.269l30.097.007.012-10.607h-30.116c-5.822 0-10.559 5.314-10.559 11.842 0 6.535 4.736 11.828 10.559 11.828l7.868.116c7.068 0 12.788 6.404 12.788 14.304 0 7.906-5.719 14.324-12.788 14.324h-30.171z"/><path d="m34.374 64.511h30.171c5.841 0 10.565-5.293 10.565-11.835 0-6.534-4.724-11.821-10.565-11.821l-7.868-.096c-7.056 0-12.781-6.411-12.781-14.331 0-7.898 5.725-14.31 12.781-14.31l30.116-.008-.012-10.648h-30.097c-12.324 0-22.334 11.184-22.334 24.994s10.01 25 22.334 25l7.788.014c.592 0 1.092.542 1.092 1.227 0 .673-.5 1.214-1.092 1.214l-30.11.027zm75.851 2.558c-5.231 0-9.516-4.684-9.516-10.663v-33.838c0-5.753 4.285-10.485 9.516-10.485l32.185.007v-10.628h-32.185c-10.474 0-18.958 9.497-18.958 21.222v33.723c0 11.726 8.484 21.236 18.958 21.236l32.05.014-.006-10.601z"/><path d="m103.016 22.684c0-4.483 3.211-8.118 7.209-8.118h32.185v10.642h-27.729c-2.222 0-2.252 2.476-2.252 2.476h23.133v10.593h-32.557zm7.209 41.807c-3.986 0-7.221-3.613-7.221-8.084v-15.607h32.557v10.616h-23.133c.03 2.495 2.252 2.508 2.252 2.508h27.594l-.006 10.553zm54.739 2.551c-5.213 0-9.473-4.772-9.473-10.636v-33.722c0-5.87 4.229-10.602 9.448-10.602h31.172v-10.62h-31.245c-10.469 0-18.953 9.497-18.953 21.222v33.723c0 11.726 8.558 21.236 19.026 21.236l31.172.014v-49.973h-26.789v10.593h17.322v28.765z"/><path d="m157.712 56.406c0 4.493 3.235 8.147 7.227 8.147h19.471v-23.767h-15.065v10.63h5.591l.018 2.495h-5.566c-1.215 0-2.21-1.131-2.21-2.495l-.049-23.74s-.007-2.468 2.234-2.53h26.758l-.012-10.587-31.172.007c-3.964 0-7.227 3.665-7.227 8.118v33.722m67.692-41.998c.432-1.386 1.604-2.32 2.912-2.32 1.307 0 2.479.934 2.911 2.32l15.132 50.22h-22.158l.025-11.814h7.404l-3.333-11.129-10.859 35.963h-11.169l19.135-63.24z"/><path d="m249.408 67.042h-25.172v10.606h38.307l-19.922-66.216c-1.746-6.459-7.501-11.211-14.314-11.211-6.824 0-12.561 4.731-14.32 11.184l-20.105 66.244h10.029l19.52-64.392c.816-2.199 2.739-3.638 4.859-3.635 2.116.004 4.036 1.433 4.864 3.621z"/><path d="m82.018 165.38-17.852-47.812c-.333-.833-1.04-1.582-2.122-2.247-1.082-.666-2.289-.999-3.62-.999-1.165 0-2.372.333-3.62.999-1.249.665-1.998 1.414-2.248 2.247l-35.953 102.616h-16.603l38.575-108.858c.666-1.748 1.539-3.433 2.621-5.056s2.435-3.079 4.058-4.369c1.622-1.29 3.516-2.31 5.68-3.059 2.163-.749 4.66-1.123 7.49-1.123 2.829 0 5.285.374 7.365 1.123 2.081.749 3.912 1.769 5.493 3.059s2.934 2.746 4.057 4.369c1.124 1.623 2.102 3.308 2.934 5.056l3.745 7.49 3.745-7.49c.916-1.748 1.935-3.433 3.059-5.056 1.123-1.623 2.455-3.079 3.994-4.369 1.54-1.29 3.35-2.31 5.431-3.059s4.536-1.123 7.365-1.123c2.747 0 5.223.374 7.428 1.123 2.206.749 4.12 1.769 5.743 3.059s2.996 2.746 4.119 4.369c1.124 1.623 1.977 3.308 2.559 5.056l38.575 108.858h-16.603l-35.953-102.616c-.25-.833-.999-1.582-2.247-2.247-1.249-.666-2.456-.999-3.621-.999-1.331 0-2.538.333-3.62.999-1.082.665-1.789 1.414-2.122 2.247zm0 54.804-23.594-62.918-20.723 62.918h-16.604l34.206-99.495c.166-.5.582-.937 1.248-1.311.666-.375 1.29-.562 1.873-.562.582 0 1.186.187 1.81.562.624.374 1.019.811 1.186 1.311l20.598 56.801 20.598-56.801c.167-.5.562-.937 1.186-1.311.624-.375 1.228-.562 1.81-.562.583 0 1.207.187 1.873.562.666.374 1.082.811 1.248 1.311l34.206 99.495h-15.98l-21.347-62.918z"/><path d="m252.599 135.725v46.452c0 25.338-12.669 38.007-38.007 38.007h-16.891c-25.338 0-38.007-12.669-38.007-38.007v-46.452c0-25.338 12.669-38.006 38.007-38.006h16.891c25.338 0 38.007 12.668 38.007 38.006zm-21.115 0v46.452c0 11.262-5.63 16.892-16.892 16.892h-16.891c-11.262 0-16.892-5.63-16.892-16.892v-46.452c0-11.261 5.63-16.892 16.892-16.892h16.891c11.262 0 16.892 5.631 16.892 16.892zm4.223 0c0-14.076-7.038-21.115-21.115-21.115h-16.891c-14.077 0-21.115 7.039-21.115 21.115v46.452c0 14.077 7.038 21.115 21.115 21.115h16.891c14.077 0 21.115-7.038 21.115-21.115zm-21.115 4.223c0-2.815-1.407-4.223-4.223-4.223h-8.445c-2.816 0-4.223 1.408-4.223 4.223v38.006c0 2.816 1.407 4.223 4.223 4.223h8.445c2.816 0 4.223-1.407 4.223-4.223z"/><path d="m346.73 135.725v46.452c0 25.338-12.668 38.007-38.006 38.007h-50.675v-80.236h16.891v63.344h33.784c14.076 0 21.115-7.038 21.115-21.115v-46.452c0-14.076-7.039-21.115-21.115-21.115h-50.675v-16.891h50.675c25.338 0 38.006 12.668 38.006 38.006zm-21.114 0v46.452c0 11.262-5.631 16.892-16.892 16.892h-29.561v-59.121h16.892v42.229h8.446c2.815 0 4.223-1.407 4.223-4.223v-38.006c0-2.815-1.408-4.223-4.223-4.223h-46.452v-16.892h50.675c11.261 0 16.892 5.631 16.892 16.892z"/><path d="m352.18 135.725c0-25.338 12.669-38.006 38.007-38.006h50.675v16.891h-50.675c-14.077 0-21.115 7.039-21.115 21.115v46.452c0 14.077 7.038 21.115 21.115 21.115h50.675v16.892h-50.675c-25.338 0-38.007-12.669-38.007-38.007zm21.115 21.115v-21.115c0-11.261 5.631-16.892 16.892-16.892h50.675v16.892h-46.452c-2.816 0-4.223 1.408-4.223 4.223h38.006v16.892zm0 4.223h54.898v16.891h-38.006c0 2.816 1.407 4.223 4.223 4.223h46.452v16.892h-50.675c-11.261 0-16.892-5.63-16.892-16.892z"/><path d="m463.204 97.719v84.458c0 14.077 7.038 21.115 21.114 21.115h59.122v16.892h-59.122c-25.337 0-38.006-12.669-38.006-38.007v-84.458zm21.114 0v80.235c0 2.816 1.408 4.223 4.223 4.223h54.899v16.892h-59.122c-11.261 0-16.891-5.63-16.891-16.892v-84.458z"/><path d="m566.216 97.719c22.523 0 33.784 11.261 33.784 33.783v12.669c0 5.631-2.018 10.557-6.053 14.78 4.035 4.223 6.053 9.15 6.053 14.781v12.668c0 22.523-11.261 33.784-33.784 33.784h-54.898v-16.892h54.898c11.262 0 16.892-5.63 16.892-16.892v-12.668c0-5.631-2.534-10.558-7.601-14.781 5.067-4.223 7.601-9.149 7.601-14.78v-12.669c0-11.261-5.63-16.892-16.892-16.892h-77.003v-16.891zm-8.445 38.006h-68.558v-16.892h77.003c8.446 0 12.669 4.223 12.669 12.669v12.669c0 8.446-4.223 12.669-12.669 12.669h-33.783v-16.892h25.338c2.815 0 4.223-.704 4.223-2.111 0-1.408-1.408-2.112-4.223-2.112zm-46.453 63.344v-16.892h46.453c2.815 0 4.223-.703 4.223-2.111s-1.408-2.112-4.223-2.112h-25.338v-16.891h33.783c8.446 0 12.669 4.223 12.669 12.669v12.668c0 8.446-4.223 12.669-12.669 12.669z"/></g></svg>