<?xml version="1.0" encoding="UTF-8" standalone="no"?><!DOCTYPE svg PUBLIC "-//W3C//DTD SVG 1.1//EN" "http://www.w3.org/Graphics/SVG/1.1/DTD/svg11.dtd"><svg width="100%" height="100%" viewBox="0 0 600 225" version="1.1" xmlns="http://www.w3.org/2000/svg" xmlns:xlink="http://www.w3.org/1999/xlink" xml:space="preserve" xmlns:serif="http://www.serif.com/" style="fill-rule:evenodd;clip-rule:evenodd;stroke-linejoin:round;stroke-miterlimit:2;"><g id="sega_genesis_32x"><g><g><path id="polygon15" d="M402.422,89.169l61.112,-0l0,24.321l-21.822,14.757l-67.456,0l22.347,-14.97l39.49,0l0,-9.143l-61.112,0l-0,-23.804l22.559,-15.274l67.348,0l-22.247,14.962l-40.219,-0l-0,9.151Z" style="fill:#fff;"/><rect id="polygon17" x="472.06" y="65.056" width="27.437" height="63.191" style="fill:#fff;"/><path id="polygon19" d="M537.534,89.169l61.112,-0l0,24.321l-21.83,14.757l-67.448,0l22.347,-14.97l39.495,0l-0,-9.143l-61.113,0l0,-23.804l22.551,-15.274l67.352,0l-22.246,14.962l-40.22,-0l-0,9.151Z" style="fill:#fff;"/><path id="polygon21" d="M315.538,113.277l0,-9.143l26.288,0l22.346,-14.965l-48.634,-0l0,-9.151l39.591,-0l22.247,-14.962l-65.374,0l-23.904,14.657l-0,48.534l66.519,0l22.446,-14.97l-61.525,0Z" style="fill:#fff;"/><path id="polygon23" d="M123.471,113.277l-0,-9.143l26.295,0l22.342,-14.965l-48.637,-0l-0,-9.151l39.595,-0l22.242,-14.962l-65.374,0l-23.9,14.657l-0,48.534l66.515,0l22.451,-14.97l-61.529,0Z" style="fill:#fff;"/><path id="polygon25" d="M252.968,107.254l-34.088,-21.205l-0,42.198l-27.441,0l0,-63.191l27.853,0l33.676,18.498l0,-18.498l27.441,0l-0,63.191l-27.441,0l0,-20.993Z" style="fill:#fff;"/><path id="polygon27" d="M27.437,80.018l-0,33.259l34.088,0l0,-9.143l-27.853,0l22.242,-14.965l33.052,-0l-0,24.945l-20.997,14.133l-67.969,0l-0,-47.805l22.759,-15.386l74.416,0l-22.138,14.962l-47.6,-0Z" style="fill:#fff;"/></g><g><path d="M219.249,49.35l21.342,-0.021c8.732,-0 15.808,-7.055 15.808,-15.748c0,-8.709 -7.076,-15.765 -15.808,-15.765l-5.543,0.031c-0.436,-0 -0.791,-0.359 -0.791,-0.799c0,-0.441 0.355,-0.8 0.791,-0.8l21.304,0.005l0.009,-6.684l-21.317,0c-4.121,0 -7.475,3.348 -7.475,7.462c0,4.117 3.353,7.452 7.475,7.452l5.569,0.073c5.003,0 9.051,4.035 9.051,9.013c0,4.981 -4.048,9.025 -9.051,9.025l-21.356,-0l-0.008,6.756Z" style="fill:#fff;fill-rule:nonzero;"/><path d="M219.257,41.025l21.356,-0c4.134,-0 7.478,-3.335 7.478,-7.457c0,-4.117 -3.344,-7.448 -7.478,-7.448l-5.569,-0.06c-4.994,-0 -9.047,-4.04 -9.047,-9.03c0,-4.977 4.053,-9.017 9.047,-9.017l21.317,-0.004l-0.009,-6.709l-21.304,-0c-8.722,-0 -15.808,7.047 -15.808,15.748c0,8.701 7.086,15.751 15.808,15.751l5.513,0.009c0.419,-0 0.773,0.342 0.773,0.773c0,0.424 -0.354,0.765 -0.773,0.765l-21.312,0.017l0.008,6.662Zm53.689,1.612c-3.703,-0 -6.736,-2.951 -6.736,-6.719l0,-21.32c0,-3.625 3.033,-6.606 6.736,-6.606l22.781,0.004l-0,-6.696l-22.781,-0c-7.413,-0 -13.419,5.983 -13.419,13.371l0,21.247c0,7.389 6.006,13.381 13.419,13.381l22.686,0.009l-0.005,-6.679l-22.681,0.008Z" style="fill:#fff;fill-rule:nonzero;"/><path d="M267.844,14.671c-0,-2.825 2.272,-5.115 5.102,-5.115l22.781,0l-0,6.705l-19.627,0c-1.572,0 -1.594,1.56 -1.594,1.56l16.374,0l0,6.675l-23.044,-0l0.008,-9.825Zm5.102,26.341c-2.821,0 -5.111,-2.276 -5.111,-5.094l0,-9.833l23.045,0l-0,6.689l-16.375,-0c0.022,1.572 1.594,1.58 1.594,1.58l19.532,0l-0.004,6.649l-22.681,0.009Zm38.745,1.608c-3.69,-0 -6.705,-3.007 -6.705,-6.702l0,-21.247c0,-3.699 2.994,-6.68 6.687,-6.68l22.065,0l-0,-6.691l-22.116,-0c-7.41,-0 -13.415,5.983 -13.415,13.371l-0,21.247c-0,7.389 6.057,13.381 13.466,13.381l22.065,0.009l-0,-31.487l-18.962,0l-0,6.675l12.261,-0l-0,18.124l-15.346,-0Z" style="fill:#fff;fill-rule:nonzero;"/><path d="M306.558,35.918c0,2.831 2.29,5.133 5.115,5.133l13.782,0l0,-14.974l-10.663,-0l0,6.697l3.958,-0l0.012,1.572l-3.939,0c-0.86,0 -1.564,-0.712 -1.564,-1.572l-0.035,-14.958c-0,0 -0.005,-1.555 1.581,-1.594l18.94,0l-0.008,-6.67l-22.065,0.004c-2.806,0 -5.115,2.309 -5.115,5.115l0,21.247m47.914,-26.461c0.306,-0.874 1.135,-1.462 2.061,-1.462c0.925,-0 1.754,0.588 2.06,1.462l10.711,31.641l-15.683,0l0.017,-7.443l5.241,-0l-2.36,-7.012l-7.686,22.659l-7.906,0l13.545,-39.845Z" style="fill:#fff;fill-rule:nonzero;"/><path d="M371.462,42.62l-17.816,-0l-0,6.682l27.114,0l-14.102,-41.721c-1.235,-4.069 -5.309,-7.063 -10.131,-7.063c-4.83,-0 -8.891,2.981 -10.136,7.047l-14.231,41.738l7.099,-0l13.817,-40.572c0.577,-1.385 1.938,-2.292 3.439,-2.29c1.498,0.002 2.857,0.903 3.443,2.281l11.504,33.898Z" style="fill:#fff;fill-rule:nonzero;"/></g></g><g><path d="M339.406,224.15c-1.521,-1.606 -5.615,-1.751 -6.251,-1.751c-28.673,0 -57.343,-0.001 -86.019,0.002c-2.914,-0 -3.439,0.357 -3.082,-3.338c0.584,-6.045 2.805,-11.662 7.196,-16.001c0.841,-0.855 1.121,-1.144 3.043,-2.886c8.141,-7.377 24.359,-13.292 24.359,-13.292c0,0 13.573,-5.011 21.195,-8.009c3.423,-1.346 6.765,-2.902 9.814,-5.012c11.056,-8.714 5.315,-17.364 -9.261,-19.377c-10.209,-1.461 -19.51,1.032 -28.107,6.515c-1.123,0.715 -2.07,1.431 -3.154,2.209c-1.923,1.625 -3.573,3.52 -3.929,5.615c-0.193,1.132 -0.009,1.911 0.014,2.095c0.073,0.586 0.253,1.515 -0.183,1.942c-0.524,0.511 -1.612,-0.002 -2.095,-0.459c-4.43,-4.187 -8.868,-8.364 -13.303,-12.547c-0.277,-0.262 -0.789,-0.822 -0.789,-0.822c-0,-0 -0.485,-0.562 -0.502,-0.947c-0.019,-0.434 0.407,-0.841 0.916,-1c2.416,-0.445 3.531,-0.588 4.981,-1.648c3.903,-2.853 7.982,-5.403 12.338,-7.527c5.824,-2.841 11.948,-4.529 18.361,-5.393c4.932,-0.665 19.417,-2.921 36.338,4.603c4.463,1.957 8.29,4.729 11.175,8.639c1.707,2.314 8.145,15.001 -4.971,25.135c-4.688,3.762 -10.281,6.085 -15.939,8.059c-4.839,1.692 -8.392,2.96 -16.311,5.249c-6.013,1.789 -10.329,3.188 -17.21,6.453c-5.473,2.596 -9.066,5.752 -9.066,5.752c0,0 -1.792,1.382 -1.445,2.463c0.3,0.939 1.796,0.844 2.676,0.847c21.171,0.013 42.343,0.009 63.514,0.011c2.19,-0 4.314,-0.154 5.987,-1.874c0.243,-0.251 0.887,-0.386 1.178,-0.24c0.279,0.14 0.473,0.715 0.476,1.1c0.033,4.958 0.034,10.027 0.006,14.985c-0.005,0.482 -0.161,0.655 -0.402,0.794c-0.362,0.207 -1.129,0.096 -1.548,-0.345Z" style="fill:#fff;fill-rule:nonzero;"/><path d="M181.679,223.526c-3.474,-0.211 -6.957,-0.659 -10.387,-1.265c-13.963,-2.461 -20.457,-5.76 -24.354,-7.289c-1.863,-0.731 -3.683,-1.422 -5.707,-0.681c-0.231,0.086 -0.502,0.08 -0.755,0.086c-1.286,0.014 -1.68,-0.487 -1.121,-1.635c0.665,-1.368 1.446,-2.682 2.233,-3.99c2.132,-3.536 4.292,-7.055 6.443,-10.582c0.099,-0.161 0.212,-0.317 0.31,-0.482c0.438,-0.733 0.919,-1.414 1.924,-1.273c0.944,0.132 1.148,0.911 1.346,1.65c0.433,1.607 1.413,2.805 2.704,3.801c3.054,2.364 6.503,3.954 10.121,5.216c4.692,1.637 9.522,2.662 14.428,3.432c5.808,0.912 11.647,1.027 17.478,0.689c4.943,-0.288 9.814,-1.179 14.474,-3c2.837,-1.108 4.988,-3.066 6.711,-5.456c2.286,-3.172 1.35,-7.533 -1.765,-10.013c-4.231,-3.367 -9.151,-4.698 -14.363,-5.594c-4.686,-0.803 -9.366,-0.717 -14.057,-0.657c-2.202,0.028 -7.466,0.238 -9.484,2.111c-0.743,0.654 -1.333,0.703 -1.686,0.384c-0.353,-0.321 -0.369,-0.827 -0.373,-1.269c-0.04,-4.579 -0.044,-9.159 -0.014,-13.735c0.01,-1.501 0.71,-1.954 1.872,-1.14c1.467,1.028 3.096,1.478 4.797,1.696c2.825,0.363 12.046,0.042 13.929,-0.204c5.037,-0.658 4.597,-0.578 7.537,-1.366c3.146,-0.843 6.148,-3.05 7.714,-4.875c0.026,-0.029 0.051,-0.06 0.076,-0.09c2.184,-2.631 1.451,-5.659 -0.581,-7.828c-1.952,-2.08 -4.404,-3.412 -7.135,-4.219c-4.475,-1.32 -9.059,-2.041 -13.711,-1.823c-8.421,0.396 -16.679,1.682 -24.293,5.599c-1.744,0.897 -3.378,2.025 -4.987,3.155c-1.375,0.965 -2.067,2.378 -2.106,4.078c-0.02,0.884 0.121,1.895 -0.929,2.282c-1.059,0.389 -1.607,-0.533 -2.211,-1.145c-3.878,-3.941 -7.74,-7.896 -11.606,-11.848c-0.222,-0.227 -0.47,-0.443 -0.634,-0.709c-0.468,-0.756 -0.18,-1.383 0.715,-1.487c1.002,-0.116 2.075,0.042 3.006,-0.261c1.375,-0.447 2.661,-1.18 3.969,-1.822c3.477,-1.705 6.864,-3.626 10.437,-5.097c5.658,-2.328 11.613,-3.579 17.696,-4.333c5.823,-0.723 16.095,-1.023 23.527,0.074c4.967,0.751 9.891,1.749 14.501,3.804c4.068,1.812 8.039,3.836 11.076,7.257c2.194,2.472 3.668,5.234 4.162,8.584c0.474,3.213 -0.054,6.145 -1.427,9.026c-0.945,1.984 -2.359,3.268 -4.304,4.436c-3.816,2.287 -6.076,2.86 -6.558,3.155c-0.768,0.466 -0.802,1.088 -0.019,1.537c0.705,0.404 1.514,0.641 2.298,0.885c4.593,1.434 8.537,3.954 11.825,7.407c2.401,2.521 3.824,5.541 4.302,9.113c0.489,3.659 -0.37,6.891 -1.95,10.07c-1.23,2.476 -3.269,4.217 -5.415,5.793c-4.338,3.194 -9.171,5.356 -14.351,6.889c-3.856,1.139 -7.764,1.914 -11.721,2.437c-13.53,1.482 -20.441,0.716 -23.607,0.522Z" style="fill:#fff;fill-rule:nonzero;"/><path d="M368.048,142.563c4.514,0 9.028,0 13.544,0.001c0.444,0 0.894,-0.034 1.333,0.019c1.006,0.12 1.161,0.545 0.53,1.368c-1.129,1.469 -1.119,1.627 0.165,2.986c0.043,0.046 0.09,0.09 0.134,0.135c6.298,6.373 12.601,12.746 18.902,19.118c0.313,0.318 0.604,0.659 0.968,0.917c0.632,0.455 1.309,0.463 1.931,-0.038c0.346,-0.277 0.653,-0.604 0.966,-0.922c6.221,-6.273 12.442,-12.548 18.662,-18.824c0.225,-0.226 0.459,-0.444 0.658,-0.691c0.829,-1.031 0.81,-1.396 0.036,-2.501c-0.697,-0.941 -0.697,-1.514 0.724,-1.549c0.31,-0.008 0.632,-0.018 0.951,-0.018c9.156,0 18.312,-0.002 27.468,0.003c0.568,0 1.152,-0.006 1.7,0.114c0.234,0.051 0.519,0.404 0.559,0.654c0.038,0.247 -0.134,0.68 -0.339,0.782c-0.618,0.311 -1.281,0.576 -1.957,0.724c-2.563,0.56 -4.651,1.826 -6.504,3.714c-7.97,8.121 -16.023,16.16 -24.032,24.245c-2.006,2.031 -3.984,4.102 -5.953,6.174c-1.245,1.309 -1.248,1.927 0.014,3.219c2.219,2.262 4.498,4.466 6.705,6.738c1.636,1.683 3.157,3.481 4.805,5.149c4.382,4.431 8.818,8.807 13.205,13.231c2.954,2.977 5.882,5.979 8.784,9.006c1.671,1.746 3.618,2.962 5.966,3.564c0.856,0.216 1.693,0.543 2.501,0.9c0.22,0.099 0.449,0.515 0.416,0.747c-0.035,0.238 -0.348,0.547 -0.6,0.627c-0.413,0.13 -0.876,0.132 -1.316,0.132c-9.347,0.007 -18.694,0.005 -28.041,0.001c-0.379,0 -0.774,0.008 -1.133,-0.095c-0.595,-0.169 -0.82,-0.527 -0.451,-1.144c0.309,-0.519 0.798,-1.109 0.741,-1.617c-0.061,-0.539 -0.615,-1.069 -1.049,-1.509c-7.25,-7.4 -14.514,-14.786 -21.775,-22.174c-0.266,-0.272 -0.535,-0.544 -0.81,-0.808c-1.604,-1.551 -2.192,-1.57 -3.8,0.029c-4.643,4.616 -9.292,9.234 -13.892,13.897c-2.988,3.028 -5.9,6.131 -8.839,9.21c-1.108,1.159 -1.108,1.232 -0.266,2.769c0.48,0.879 0.298,1.265 -0.704,1.408c-0.435,0.064 -0.886,0.04 -1.333,0.04c-9.028,0.001 -18.055,0.012 -27.084,-0.015c-0.812,-0.003 -2.17,0.217 -2.24,-0.771c-0.142,-1.032 1.105,-1.083 1.838,-1.257c3.288,-0.769 5.797,-2.644 8.122,-5.029c7.411,-7.602 14.946,-15.08 22.405,-22.635c2.316,-2.345 4.531,-4.793 6.819,-7.168c0.882,-0.911 1.86,-1.728 2.763,-2.623c1.884,-1.869 1.894,-2.369 0.078,-4.197c-5.497,-5.562 -11.006,-11.108 -16.5,-16.672c-4.466,-4.521 -8.948,-9.028 -13.358,-13.604c-1.697,-1.762 -3.69,-2.857 -6.037,-3.406c-0.433,-0.101 -0.857,-0.235 -1.282,-0.366c-0.603,-0.187 -1.349,-0.329 -1.266,-1.151c0.084,-0.837 0.819,-0.837 1.473,-0.836c0.383,0.001 0.764,-0.001 1.145,-0.001c4.519,0 9.035,0 13.55,0Z" style="fill:#fff;fill-rule:nonzero;"/></g></g></svg>