<?xml version="1.0" encoding="UTF-8" standalone="no"?><!DOCTYPE svg PUBLIC "-//W3C//DTD SVG 1.1//EN" "http://www.w3.org/Graphics/SVG/1.1/DTD/svg11.dtd"><svg width="100%" height="100%" viewBox="0 0 600 210" version="1.1" xmlns="http://www.w3.org/2000/svg" xmlns:xlink="http://www.w3.org/1999/xlink" xml:space="preserve" xmlns:serif="http://www.serif.com/" style="fill-rule:evenodd;clip-rule:evenodd;stroke-linejoin:round;stroke-miterlimit:2;"><g id="sega_model3"><g><path d="M32.644,74.517l28.645,-0.032c11.719,-0 21.217,-10.637 21.217,-23.744c-0,-13.132 -9.498,-23.769 -21.217,-23.769l-7.439,0.045c-0.587,0 -1.062,-0.54 -1.062,-1.204c-0,-0.665 0.475,-1.206 1.062,-1.206l28.592,0.007l0.012,-10.077l-28.611,-0c-5.531,-0 -10.031,5.048 -10.031,11.25c-0,6.208 4.499,11.236 10.031,11.236l7.475,0.111c6.714,-0 12.148,6.083 12.148,13.589c-0,7.51 -5.433,13.607 -12.148,13.607l-28.662,0l-0.012,10.187Z" style="fill:#fff;fill-rule:nonzero;"/><path d="M32.656,61.965l28.662,-0c5.549,-0 10.037,-5.028 10.037,-11.243c-0,-6.208 -4.488,-11.23 -10.037,-11.23l-7.475,-0.091c-6.703,-0 -12.142,-6.091 -12.142,-13.615c0,-7.504 5.439,-13.595 12.142,-13.595l28.611,-0.007l-0.012,-10.116l-28.592,0c-11.708,0 -21.217,10.625 -21.217,23.745c-0,13.119 9.509,23.75 21.217,23.75l7.398,0.012c0.563,0 1.038,0.516 1.038,1.166c0,0.639 -0.475,1.154 -1.038,1.154l-28.604,0.025l0.012,10.045Zm72.058,2.43c-4.97,-0 -9.041,-4.45 -9.041,-10.13l0,-32.146c0,-5.466 4.071,-9.961 9.041,-9.961l30.575,0.006l0,-10.096l-30.575,0c-9.95,0 -18.01,9.022 -18.01,20.161l-0,32.036c-0,11.14 8.06,20.175 18.01,20.175l30.447,0.014l-0.006,-10.071l-30.441,0.012Z" style="fill:#fff;fill-rule:nonzero;"/><path d="M97.865,22.229c0,-4.259 3.051,-7.712 6.849,-7.712l30.575,0l0,10.11l-26.342,-0c-2.111,-0 -2.14,2.352 -2.14,2.352l21.977,-0l-0,10.064l-30.929,-0l0.01,-14.814Zm6.849,39.717c-3.787,-0 -6.86,-3.433 -6.86,-7.681l-0,-14.826l30.929,0l0,10.085l-21.977,-0c0.03,2.371 2.14,2.383 2.14,2.383l26.215,-0l-0.006,10.025l-30.441,0.014Zm52.001,2.423c-4.952,0 -8.999,-4.534 -8.999,-10.104l0,-32.036c0,-5.576 4.018,-10.071 8.976,-10.071l29.613,-0l0,-10.09l-29.682,0c-9.946,0 -18.005,9.022 -18.005,20.161l-0,32.036c-0,11.14 8.129,20.175 18.074,20.175l29.613,0.014l0,-47.475l-25.449,-0l-0,10.064l16.456,-0l-0,27.326l-20.597,0Z" style="fill:#fff;fill-rule:nonzero;"/><path d="M149.826,54.265c0,4.268 3.074,7.739 6.866,7.739l18.497,0l0,-22.578l-14.311,0l-0,10.098l5.311,-0l0.017,2.371l-5.288,-0c-1.154,-0 -2.098,-1.075 -2.098,-2.371l-0.048,-22.552c0,-0 -0.006,-2.345 2.123,-2.404l25.42,0l-0.011,-10.058l-29.614,0.007c-3.766,0 -6.865,3.482 -6.865,7.712l-0,32.036m64.307,-39.898c0.411,-1.317 1.524,-2.204 2.766,-2.204c1.242,-0 2.355,0.887 2.766,2.204l14.375,47.709l-21.049,-0l0.022,-11.224l7.035,0l-3.167,-10.572l-10.315,34.165l-10.612,0l18.179,-60.078Z" style="fill:#fff;fill-rule:nonzero;"/><path d="M236.937,64.369l-23.912,0l-0,10.076l36.391,0l-18.927,-62.906c-1.658,-6.136 -7.125,-10.649 -13.598,-10.649c-6.482,-0 -11.932,4.494 -13.603,10.624l-19.1,62.932l9.528,0l18.544,-61.173c0.774,-2.089 2.601,-3.455 4.615,-3.453c2.011,0.004 3.835,1.361 4.621,3.44l15.441,51.109Z" style="fill:#fff;fill-rule:nonzero;"/></g><path d="M77.917,157.791l-16.959,-45.423c-0.316,-0.79 -0.988,-1.502 -2.016,-2.134c-1.028,-0.633 -2.174,-0.949 -3.439,-0.949c-1.107,0 -2.254,0.316 -3.44,0.949c-1.186,0.632 -1.897,1.344 -2.134,2.134l-34.156,97.486l-15.773,-0l36.646,-103.415c0.632,-1.661 1.463,-3.262 2.49,-4.803c1.028,-1.542 2.313,-2.926 3.855,-4.151c1.542,-1.226 3.34,-2.194 5.396,-2.906c2.056,-0.711 4.427,-1.067 7.116,-1.067c2.688,-0 5.02,0.356 6.997,1.067c1.976,0.712 3.716,1.68 5.218,2.906c1.502,1.225 2.787,2.609 3.854,4.151c1.068,1.541 1.997,3.142 2.787,4.803l3.558,7.115l3.558,-7.115c0.87,-1.661 1.838,-3.262 2.906,-4.803c1.067,-1.542 2.332,-2.926 3.795,-4.151c1.462,-1.226 3.182,-2.194 5.159,-2.906c1.976,-0.711 4.309,-1.067 6.997,-1.067c2.609,-0 4.961,0.356 7.056,1.067c2.095,0.712 3.914,1.68 5.456,2.906c1.541,1.225 2.846,2.609 3.913,4.151c1.068,1.541 1.878,3.142 2.431,4.803l36.646,103.415l-15.773,-0l-34.155,-97.486c-0.238,-0.79 -0.949,-1.502 -2.135,-2.134c-1.186,-0.633 -2.332,-0.949 -3.439,-0.949c-1.265,0 -2.412,0.316 -3.44,0.949c-1.027,0.632 -1.699,1.344 -2.016,2.134l-16.959,45.423Zm0,52.063l-22.414,-59.772l-19.687,59.772l-15.773,-0l32.495,-94.521c0.158,-0.474 0.553,-0.889 1.186,-1.245c0.632,-0.356 1.225,-0.534 1.779,-0.534c0.553,0 1.126,0.178 1.719,0.534c0.593,0.356 0.969,0.771 1.127,1.245l19.568,53.961l19.568,-53.961c0.159,-0.474 0.534,-0.889 1.127,-1.245c0.593,-0.356 1.166,-0.534 1.72,-0.534c0.553,0 1.146,0.178 1.779,0.534c0.632,0.356 1.027,0.771 1.186,1.245l32.495,94.521l-15.18,-0l-20.28,-59.772l-22.415,59.772Z" style="fill:#fff;fill-rule:nonzero;"/><path d="M239.969,129.618l-0,44.13c-0,24.071 -12.035,36.106 -36.106,36.106l-16.047,-0c-24.071,-0 -36.107,-12.035 -36.107,-36.106l0,-44.13c0,-24.071 12.036,-36.106 36.107,-36.106l16.047,-0c24.071,-0 36.106,12.035 36.106,36.106Zm-20.059,-0l-0,44.13c-0,10.698 -5.349,16.047 -16.047,16.047l-16.047,-0c-10.699,-0 -16.048,-5.349 -16.048,-16.047l0,-44.13c0,-10.698 5.349,-16.047 16.048,-16.047l16.047,-0c10.698,-0 16.047,5.349 16.047,16.047Zm4.012,-0c-0,-13.373 -6.687,-20.059 -20.059,-20.059l-16.047,0c-13.373,0 -20.059,6.686 -20.059,20.059l-0,44.13c-0,13.372 6.686,20.059 20.059,20.059l16.047,-0c13.372,-0 20.059,-6.687 20.059,-20.059l-0,-44.13Zm-20.059,4.012c-0,-2.675 -1.337,-4.012 -4.012,-4.012l-8.024,-0c-2.674,-0 -4.011,1.337 -4.011,4.012l-0,36.106c-0,2.674 1.337,4.012 4.011,4.012l8.024,-0c2.675,-0 4.012,-1.338 4.012,-4.012l-0,-36.106Z" style="fill:#fff;fill-rule:nonzero;"/><path d="M329.394,129.618l-0,44.13c-0,24.071 -12.035,36.106 -36.106,36.106l-48.142,-0l0,-76.224l16.047,-0l0,60.177l32.095,-0c13.372,-0 20.059,-6.687 20.059,-20.059l-0,-44.13c-0,-13.373 -6.687,-20.059 -20.059,-20.059l-48.142,0l0,-16.047l48.142,-0c24.071,-0 36.106,12.035 36.106,36.106Zm-20.059,-0l-0,44.13c-0,10.698 -5.349,16.047 -16.047,16.047l-28.083,-0l0,-56.165l16.047,-0l0,40.118l8.024,-0c2.675,-0 4.012,-1.338 4.012,-4.012l-0,-36.106c-0,-2.675 -1.337,-4.012 -4.012,-4.012l-44.13,-0l0,-16.047l48.142,-0c10.698,-0 16.047,5.349 16.047,16.047Z" style="fill:#fff;fill-rule:nonzero;"/><path d="M334.571,129.618c0,-24.071 12.036,-36.106 36.106,-36.106l48.142,-0l-0,16.047l-48.142,0c-13.372,0 -20.059,6.686 -20.059,20.059l0,44.13c0,13.372 6.687,20.059 20.059,20.059l48.142,-0l-0,16.047l-48.142,-0c-24.07,-0 -36.106,-12.035 -36.106,-36.106l0,-44.13Zm20.059,20.059l0,-20.059c0,-10.698 5.349,-16.047 16.047,-16.047l48.142,-0l-0,16.047l-44.13,-0c-2.674,-0 -4.012,1.337 -4.012,4.012l36.107,-0l-0,16.047l-52.154,-0Zm0,4.012l52.154,-0l-0,16.047l-36.107,-0c0,2.674 1.338,4.012 4.012,4.012l44.13,-0l-0,16.047l-48.142,-0c-10.698,-0 -16.047,-5.349 -16.047,-16.047l0,-20.059Z" style="fill:#fff;fill-rule:nonzero;"/><path d="M440.043,93.512l0,80.236c0,13.372 6.687,20.059 20.059,20.059l56.166,-0l-0,16.047l-56.166,-0c-24.07,-0 -36.106,-12.035 -36.106,-36.106l0,-80.236l16.047,-0Zm20.059,-0l0,76.224c0,2.674 1.338,4.012 4.012,4.012l52.154,-0l-0,16.047l-56.166,-0c-10.698,-0 -16.047,-5.349 -16.047,-16.047l0,-80.236l16.047,-0Z" style="fill:#fff;fill-rule:nonzero;"/><path d="M567.906,93.512c21.396,-0 32.094,10.698 32.094,32.094l-0,12.036c-0,5.349 -1.917,10.029 -5.75,14.041c3.833,4.012 5.75,8.692 5.75,14.041l-0,12.036c-0,21.396 -10.698,32.094 -32.094,32.094l-52.154,-0l0,-16.047l52.154,-0c10.698,-0 16.047,-5.349 16.047,-16.047l-0,-12.036c-0,-5.349 -2.407,-10.029 -7.221,-14.041c4.814,-4.012 7.221,-8.692 7.221,-14.041l-0,-12.036c-0,-10.698 -5.349,-16.047 -16.047,-16.047l-52.154,0l0,-16.047l52.154,-0Zm-8.024,36.106l-44.13,-0l0,-16.047l52.154,-0c8.023,-0 12.035,4.012 12.035,12.035l0,12.036c0,8.023 -4.012,12.035 -12.035,12.035l-32.095,-0l0,-16.047l24.071,-0c2.675,-0 4.012,-0.669 4.012,-2.006c-0,-1.337 -1.337,-2.006 -4.012,-2.006Zm-44.13,60.177l0,-16.047l44.13,-0c2.675,-0 4.012,-0.669 4.012,-2.006c-0,-1.337 -1.337,-2.006 -4.012,-2.006l-24.071,-0l0,-16.047l32.095,-0c8.023,-0 12.035,4.012 12.035,12.035l0,12.036c0,8.023 -4.012,12.035 -12.035,12.035l-52.154,-0Z" style="fill:#fff;fill-rule:nonzero;"/></g></svg>