<svg clip-rule="evenodd" fill-rule="evenodd" stroke-linejoin="round" stroke-miterlimit="2" viewBox="0 0 600 166" xmlns="http://www.w3.org/2000/svg"><g fill="#fff" fill-rule="nonzero"><path d="m153.924 78.336c0-2.504-.476-5.748-1.583-7.111 7.246 0 22.9.048 29.611.048 15.439 0 38.73 8.57 38.73 37.456 0 21.441-16.441 37.415-38.73 37.415-4.889 0-23.556-.057-30.178-.057 1.359-2.506 2.15-5.906 2.15-8.591zm11.102 60.473c7.126.922 13.704 1.207 19.656.355 5.759-.822 25.109-4.987 24.989-30.68-.115-24.348-15.15-29.911-26.737-30.593-6.045-.357-11.882-.131-17.908.915zm62.017-44.577 11.093-1.733v9.767c2.845-7.03 11.697-12.68 24.28-7.784l-2.95 7.721c-11.515-5.463-21.33-.669-21.33 12.117v26.387c0 1.254.272 3.791 1.024 5.417h-11.524c1.165-1.434 1.702-4.163 1.702-5.417v-38.062c0-2.761-.561-7.035-2.295-8.413zm350.705 5.293v33.704c0 10.576 7.291 13.406 12.696 13.406 2.287.113 5.519-.422 7.78-.924l1.393-6.53c-2.637 1.004-5.7 1.243-7.534 1.243-3.387 0-5.837-2.247-5.837-5.763 0-3.156-.081-34.09 0-35.082h-.037c.452 0 7.476-.024 8.185 0 2.306.083 4.076.224 5.597.835l.009-6.15-13.756-.017.054-15.774-10.226 2.826c1.413 1.318 1.87 5.178 1.87 7.722l-.007 5.282c-.461 0-5.648.024-6.508.024v5.198zm-44.186 35.639c4.395 3.139 11.291 5.926 16.35 5.926 7.017 0 12.039-3.413 12.039-9.837 0-11.861-27.041-9.898-27.041-24.946 0-10.173 9.097-13.999 17.769-13.999 2.785 0 9.145.604 13.193 2.169l-.035 6.948c-3.591-3.07-9.075-3.813-12.688-3.813-5.74 0-10.044 2.846-10.044 8.428 0 8.198 27.017 7.724 27.017 24.545 0 10.878-9.428 15.952-19.8 15.952-5.056 0-10.323-.897-14.712-2.152zm-163.217-35.532c0-.616.024-6.126.024-6.833l-11.231 1.737c1.353 1.417 2.392 5.843 2.392 9.004v36.802c0 1.254-.537 4.3-1.703 5.734h12.246c-1.165-1.434-1.702-4.48-1.702-5.734v-27.691c0-10.13 6.267-13.676 12.504-13.676 5.646 0 10.748 2.443 10.748 13.676v27.691c0 1.254-.539 4.3-1.703 5.734h11.876c-1.165-1.434-1.702-4.48-1.702-5.734v-27.691c0-11.233 6.941-13.676 12.594-13.676 5.643 0 11.549 3.543 11.549 13.676v27.691c0 1.254-.537 4.3-1.702 5.734h11.433c-1.166-1.434-1.702-4.48-1.702-5.734v-32.948c0-5.615-5.726-14.61-19.109-14.61-7.782 0-12.276 3.461-15.689 6.441-2.902-3.387-7.628-6.565-15.219-6.565-7.402 0-11.77 4.335-13.904 6.972zm-26.482 17.262c-1.603 1.507-4.959 2.679-8.424 3.133-9.102 1.193-16.987 2.706-16.987 11.574 0 5.258 5.73 9.399 10.274 9.399 12.03 0 15.139-8.678 15.139-15.517v-8.589zm-28.417-21.699c4.591-1.842 12.002-2.685 16.645-2.685 11.865 0 19.747 5.928 19.747 19.691v22.828c0 4.23.064 8.232 1.572 11.045h-9.539l-.341-6.004c-3.613 4.661-7.926 6.748-15.252 6.748-14.45 0-17.606-9.874-17.606-14.622 0-16.932 16.117-17.132 23.115-18.128 3.871-.55 8.856-1.643 9.604-5.274 1.237-6.006-3.059-10.508-11.83-10.508-6.437 0-11.711 1.956-16.115 4.593zm205.003 21.699c-1.602 1.507-4.961 2.679-8.426 3.133-9.1 1.193-16.987 2.706-16.987 11.574 0 5.258 5.731 9.399 10.274 9.399 12.03 0 15.139-8.678 15.139-15.517zm-28.417-21.699c4.591-1.842 12.002-2.685 16.645-2.685 11.865 0 19.748 5.928 19.748 19.691v22.828c0 4.23-.922 8.148 1.57 11.045h-9.539l-.342-6.004c-3.613 4.661-7.926 6.748-15.25 6.748-14.447 0-17.606-9.874-17.606-14.622 0-16.932 16.117-17.132 23.115-18.128 3.874-.55 8.859-1.643 9.604-5.274 1.235-6.006-3.058-10.508-11.83-10.508-6.437 0-11.711 1.956-16.115 4.593zm-10.152 7.002c-3.58-2.089-9.228-3.748-13.167-3.748-13.828 0-20.167 8.506-20.167 20.756 0 12.137 6.193 21.428 19.721 21.428 4.637 0 10.95-2.08 15.848-5.091l-1.994 8.928c-4.984 1.483-9.187 2.189-14.749 2.189-19.011 0-27.92-13.48-27.92-27.508 0-15.509 11.952-26.411 28.126-26.411 7.07 0 12.232 1.735 14.317 2.326zm-212.797 17.658c.007-1.282.176-2.504.322-3.687h36.78c0-12.645-6.322-23.493-21.304-23.493-15.55 0-24.78 12.161-24.78 27.671 0 14.028 10.278 26.559 27.88 26.559 5.565 0 10.219-1.372 15.241-3.128l1.767-8.968c-4.295 3.537-11.241 5.631-17.506 5.631-11.267-.003-18.452-8.157-18.4-20.585zm1.485-9.295c1.193-6.155 6.885-12.42 13.698-12.42 10.41 0 13.423 8.124 13.423 12.422-.002-.002-27.121.015-27.121-.002z"/><path d="m77.101 54.433c4.706.706 9.513 2.35 12.019 3.117 5.05 1.543 13.248 6.341 16.142 8.642 1.37 1.088 4.249 3.938 5.365 5.372 1.086 1.397 3.161 4.424 4.485 6.289 2.107 3.078 4.588 7.662 6.693 11.881 2.351 4.714 2.513 6.079 3.223 10.02l1.555 6.946c.146 1.202.267 5.608-2.319 6.225-2.586.618-4.976-.575-6.103-2.319-1.56-2.413-1.345-5.838-3.108-9.759-1.376-3.169-1.977-7.775-4.173-11.087l-1.723-2.913c-3.048-4.692-6.225-8.417-8.12-10.846-1.668-2.041-4.784-4.815-7.738-6.789-2.732-1.657-7.148-3.546-10.333-4.519-1.015-.33-5.359-1.607-8.059-1.967-3.663-.411-6.073-.99-9.555-1.236-4.298-.303-6.36-.685-11.935-.034-2.112.573-5.458.8-8.47 1.952-2.432.992-5.816 2.595-9.13 4.541-3.566 1.956-8.98 5.956-12.571 9.371-3.618 3.867-5.428 5.942-7.923 10.844-1.105 2.425-3.242 6.177-4.104 8.825-.589 2.689-1.712 7.703-1.523 10.139.085 4.363-.296 5.262.031 8.828.012 3.211 1.066 5.437 1.505 8.064.375 1.815 2.116 8.094 3.193 9.551 4.895 10.548 11.467 15.116 18.79 18.412 2.064 1.051 8.523 2.779 10.392 3.275 3.186.574 7.379.958 11.414 1.036 4.247.083 10.099-.493 13.651-1.8 3.843-1.413 8.287-3.422 8.236-3.366 1.784-.983 4.506-2.588 5.353-3.293 1.639-1.05 2.626-1.457 3.597-2.468 1.4-1.225 2.248-1.931 3.309-3.449.781-1.132 1.595-2.241 2.442-3.324.983-1.611 1.548-3.308 2.508-5.408 1.148-3.106.97-2.957 1.188-6.256.206-.956-.022-4.169-.195-4.715-.518-2.965-.335-5.58-1.013-8.459-.917-3.895-1.679-6.809-2.849-10.546-1.1-4.207-4.331-8.105-6.756-10.888-1.503-1.726-6.164-5.802-12.631-8.347-1.821-.613-4.802-1.308-6.695-1.653-4.041-.422-4.698-.151-8.567.132-1.331.233-4.422.864-5.558 1.263-3.323 1.168-4.546 1.909-7.943 3.99-1.581.918-2.774 1.621-4.39 3.136-1.29 1.194-2.212 3.224-3.257 4.414-1.432 1.948-3.025 4.547-4.094 7.35-1.159 2.787-1.533 6.712-1.356 9.237 0 1.925.523 5.449.731 6.219.208.772.728 3.164.841 3.645.113.479 1.357 3.011 1.529 3.377.701 1.493 2.045 3.639 4.308 5.831 1.669 1.823 4.897 3.613 7.314 4.307 2.167 1.189 5.821 1.391 7.843 1.395.995-.06 3.537-.216 4.863-.535 2.689-.645 3.186-.662 5.957-1.866 2.488-1.153 4.175-1.569 5.908-2.849 0 0 2.378-1.864 3.459-3.227.571-.72 1.549-4.149 1.375-6.273-.081-2.908.342-4.557-.252-6.95-.593-2.392-1.606-5.165-2.704-6.873-1.112-1.731-3.503-3.418-6.225-4.76-1.524-.753-5.134-1.45-6.665-1.631-2.91-.346-5.344.975-6.821 2.485-1.281 1.464-3.814 4.506-2.805 7.651.913 2.846 2.015 5.878 6.283 5.653 2.929.609 6.317-.276 7.446.244 1.674.951 2.318 3.051 1.709 4.515-.424 2.824-3.129 3.162-6.016 3.377-2.582.433-9.141-.831-10.583-1.911-.967-.575-2.447-1.955-3.49-2.887-.75-.671-1.599-2.166-2.178-3.24-.712-1.32-1.071-2.29-1.254-3.15-.218-1.021-.665-2.97-.496-4.919.114-1.314.467-1.874.817-3.796.698-2.179 1.564-3.837 2.959-5.727 1.817-1.844 4.124-4.039 6.376-5.059 1.986-1.049 5.465-1.435 8.613-1.251 2.554.244 5.574.555 7.571 1.225 3.419 1.221 4.396 1.465 7.201 3.234 2.371 1.468 4.757 4.167 6.088 6.403 2.832 5.795 4.456 12.241 3.275 20.918-.097 1.467-.553 2.899-1.467 4.84-.844 1.792-2.324 3.971-4.546 5.611-.894.828-2.305 1.847-3.453 2.444-1.629.989-2.725 1.503-4.427 2.358-1.494.701-3.234 1.504-5.504 2.135-2.461.973-4.349 1.013-7.442 1.474-3.046.764-11.379.218-16.343-1.971-3.388-1.424-7.19-3.935-10.08-6.996-1.605-1.683-3.176-4.736-3.637-5.36-2.298-4.419-2.749-8.575-3.117-9.447-.501-1.187-.75-3.846-1.085-5.666-.378-2.04-.144-10.595 1.916-16.086 1.161-2.186 1.84-4.135 2.626-5.159 1.413-2.009 2.095-3.264 3.296-4.689 1.811-2.196 3.129-3.987 4.893-5.251 4.494-3.654 8.249-5.582 13.327-7.994 6.31-2.57 8.205-2.038 14.176-1.943 2.687.023 6.597.868 8.518 1.218 3.57.476 5.615 1.335 8.029 2.009 2.581.721 4.074 1.871 6.192 3.151 1.744 1.126 3.796 2.669 5.151 3.921 3.467 2.542 5.14 5.215 7.265 8.497.385.55 2.909 5.929 3.311 7.426.186.75.758 2.903 1.124 4.161.471 1.996.7 3.764 1.225 6.016.471 2.32 1.271 6.701 1.619 10.796.583 3.512-.352 10.682-.903 12.883-1.228 4.104-3.376 9.113-7.618 13.937-1.802 2.136-3.718 3.791-5.931 5.588-1.693 1.412-3.145 2.234-5.76 3.795-3.551 2.12-6.254 3.473-11.231 5.419-2.027.65-4.581 1.506-7.333 2.076-5.332.492-10.812.965-16.792.254-5.982-.712-11.974-2.397-15.513-3.484-1.953-.733-5.737-2.32-7.323-3.173-1.032-.525-4.492-2.891-5.08-3.461-2.371-1.467-7.678-6.458-11.105-11.11-.75-1.438-3.45-5.751-4.035-7.641-1.557-3.196-2.642-7.061-3.279-8.713-.673-3.855-1.809-6.337-2.253-10.207.051-.911-.183-3.054-.389-4.24.301-2.648-.101-5.145.424-8.027.462-2.434 1.073-3.45 1.219-5.649.142-.941 1.353-3.77 1.675-5.03.977-2.074 1.22-3.782 2.496-6.099 1.837-3.612 3.758-7.767 6.71-11.396.843-1.125 3.233-3.825 4.048-4.761 1.926-1.925 3.056-2.229 5.24-4.161.227-.143 1.669-1.787 3.18-2.353 2.503-1.934 4.666-2.644 7.049-4.402 4.774-2.378 6.515-3.181 11.254-5.153 2.739-.977 6.559-1.518 7.934-2.051 2.616-.162 5.272-.997 8.025-.831 3.089-.029 6.203.191 9.308.474 2.101.129 4.833.231 8.539 1.035z"/><path d="m213.715 52.902 22.805-.023c9.33 0 16.891-7.538 16.891-16.826 0-9.307-7.561-16.845-16.891-16.845l-5.923.032c-.466 0-.845-.383-.845-.854s.379-.854.845-.854l22.764.005.009-7.142h-22.777c-4.404 0-7.987 3.578-7.987 7.973 0 4.399 3.582 7.963 7.987 7.963l5.95.078c5.346 0 9.672 4.312 9.672 9.631 0 5.322-4.326 9.643-9.672 9.643h-22.819z"/><path d="m213.724 44.007h22.819c4.418 0 7.991-3.564 7.991-7.968 0-4.4-3.573-7.959-7.991-7.959l-5.95-.064c-5.337 0-9.667-4.316-9.667-9.649 0-5.317 4.33-9.634 9.667-9.634l22.777-.005-.009-7.169h-22.764c-9.32 0-16.891 7.53-16.891 16.827 0 9.298 7.571 16.831 16.891 16.831l5.891.01c.448 0 .826.365.826.826 0 .453-.378.817-.826.817l-22.773.018zm57.368 1.722c-3.956 0-7.197-3.154-7.197-7.179v-22.782c0-3.873 3.241-7.058 7.197-7.058l24.342.004v-7.155h-24.342c-7.921 0-14.338 6.394-14.338 14.288v22.703c0 7.895 6.417 14.298 14.338 14.298l24.24.009-.004-7.137z"/><path d="m265.64 15.847c0-3.019 2.428-5.466 5.452-5.466h24.342v7.165h-20.972c-1.68 0-1.703 1.667-1.703 1.667h17.496v7.132h-24.624zm5.452 28.146c-3.014 0-5.461-2.433-5.461-5.443v-10.507h24.624v7.147h-17.497c.023 1.68 1.703 1.689 1.703 1.689h20.871l-.005 7.105zm41.4 1.717c-3.942 0-7.164-3.212-7.164-7.16v-22.704c0-3.951 3.199-7.137 7.145-7.137h23.577v-7.15h-23.631c-7.918 0-14.335 6.394-14.335 14.288v22.703c0 7.895 6.472 14.298 14.389 14.298l23.577.009v-33.644h-20.261v7.132h13.101v19.365z"/><path d="m307.008 38.55c0 3.024 2.447 5.485 5.465 5.485h14.727v-16.001h-11.394v7.156h4.229l.013 1.68h-4.21c-.918 0-1.671-.761-1.671-1.68l-.037-15.982s-.005-1.662 1.69-1.703h20.238l-.009-7.128-23.577.004c-2.998 0-5.465 2.468-5.465 5.466v22.703m51.197-28.275c.326-.933 1.213-1.562 2.201-1.562.989 0 1.876.629 2.202 1.562l11.445 33.81h-16.758l.018-7.954h5.6l-2.521-7.492-8.212 24.212h-8.448z"/><path d="m376.36 45.71h-19.038v7.141h28.972l-15.068-44.58c-1.32-4.348-5.673-7.547-10.826-7.547-5.16 0-9.5 3.185-10.83 7.529l-15.206 44.599h7.585l14.764-43.352c.617-1.481 2.071-2.449 3.675-2.447 1.6.002 3.052.964 3.679 2.438z"/></g></svg>