<?xml version="1.0" encoding="UTF-8" standalone="no"?><!DOCTYPE svg PUBLIC "-//W3C//DTD SVG 1.1//EN" "http://www.w3.org/Graphics/SVG/1.1/DTD/svg11.dtd"><svg width="100%" height="100%" viewBox="0 0 600 84" version="1.1" xmlns="http://www.w3.org/2000/svg" xmlns:xlink="http://www.w3.org/1999/xlink" xml:space="preserve" xmlns:serif="http://www.serif.com/" style="fill-rule:evenodd;clip-rule:evenodd;stroke-linejoin:round;stroke-miterlimit:2;"><g id="sega_32x"><g><path d="M478.514,83.191c-1.522,-1.605 -5.615,-1.75 -6.252,-1.75c-28.673,-0 -57.343,-0.001 -86.019,0.001c-2.914,0 -3.439,0.358 -3.082,-3.337c0.584,-6.045 2.806,-11.662 7.196,-16.001c0.841,-0.856 1.122,-1.144 3.043,-2.886c8.141,-7.377 24.359,-13.292 24.359,-13.292c0,0 13.574,-5.011 21.195,-8.009c3.423,-1.346 6.766,-2.902 9.814,-5.012c11.056,-8.714 5.315,-17.364 -9.261,-19.378c-10.208,-1.461 -19.51,1.033 -28.107,6.516c-1.122,0.715 -2.07,1.43 -3.154,2.209c-1.923,1.625 -3.573,3.52 -3.929,5.615c-0.192,1.131 -0.009,1.91 0.014,2.095c0.073,0.586 0.253,1.515 -0.183,1.942c-0.524,0.511 -1.612,-0.002 -2.094,-0.459c-4.431,-4.187 -8.869,-8.365 -13.303,-12.548c-0.278,-0.262 -0.79,-0.822 -0.79,-0.822c-0,0 -0.485,-0.561 -0.502,-0.946c-0.019,-0.434 0.407,-0.841 0.916,-1c2.416,-0.445 3.531,-0.588 4.981,-1.648c3.903,-2.853 7.982,-5.403 12.338,-7.527c5.824,-2.841 11.948,-4.529 18.361,-5.393c4.932,-0.665 19.417,-2.921 36.338,4.603c4.463,1.957 8.29,4.729 11.175,8.639c1.707,2.314 8.145,15.001 -4.971,25.135c-4.687,3.762 -10.281,6.085 -15.938,8.059c-4.84,1.691 -8.393,2.96 -16.312,5.248c-6.013,1.79 -10.329,3.189 -17.21,6.454c-5.473,2.596 -9.066,5.752 -9.066,5.752c0,-0 -1.792,1.382 -1.445,2.463c0.3,0.939 1.796,0.844 2.676,0.847c21.171,0.013 42.343,0.009 63.514,0.01c2.191,0 4.314,-0.154 5.987,-1.873c0.243,-0.251 0.887,-0.387 1.178,-0.24c0.279,0.139 0.474,0.714 0.476,1.1c0.033,4.958 0.035,10.027 0.006,14.985c-0.004,0.482 -0.161,0.654 -0.402,0.794c-0.362,0.207 -1.129,0.095 -1.547,-0.346Z" style="fill:#fff;fill-rule:nonzero;"/><path d="M320.786,82.568c-3.474,-0.211 -6.956,-0.659 -10.387,-1.265c-13.963,-2.461 -20.457,-5.76 -24.354,-7.289c-1.863,-0.731 -3.683,-1.422 -5.707,-0.681c-0.231,0.085 -0.502,0.08 -0.755,0.085c-1.286,0.015 -1.68,-0.486 -1.121,-1.634c0.666,-1.368 1.446,-2.683 2.233,-3.99c2.132,-3.536 4.293,-7.055 6.443,-10.582c0.099,-0.161 0.212,-0.318 0.31,-0.482c0.438,-0.734 0.919,-1.414 1.924,-1.274c0.945,0.133 1.149,0.912 1.346,1.651c0.433,1.607 1.414,2.804 2.704,3.801c3.054,2.364 6.503,3.954 10.121,5.216c4.692,1.637 9.522,2.662 14.428,3.432c5.808,0.911 11.647,1.027 17.479,0.689c4.943,-0.288 9.813,-1.179 14.473,-3c2.837,-1.109 4.989,-3.066 6.711,-5.457c2.286,-3.171 1.35,-7.532 -1.765,-10.012c-4.231,-3.367 -9.151,-4.698 -14.363,-5.595c-4.686,-0.802 -9.366,-0.717 -14.057,-0.657c-2.202,0.029 -7.466,0.239 -9.484,2.112c-0.743,0.654 -1.332,0.703 -1.686,0.384c-0.353,-0.321 -0.369,-0.827 -0.373,-1.269c-0.04,-4.58 -0.044,-9.159 -0.014,-13.735c0.01,-1.501 0.71,-1.954 1.872,-1.14c1.467,1.028 3.096,1.478 4.797,1.696c2.825,0.363 12.046,0.042 13.93,-0.204c5.036,-0.659 4.597,-0.578 7.536,-1.366c3.146,-0.843 6.148,-3.05 7.714,-4.875c0.026,-0.029 0.052,-0.06 0.076,-0.091c2.185,-2.63 1.451,-5.658 -0.581,-7.827c-1.951,-2.08 -4.404,-3.413 -7.135,-4.219c-4.475,-1.32 -9.059,-2.042 -13.711,-1.823c-8.42,0.396 -16.679,1.681 -24.293,5.599c-1.743,0.897 -3.377,2.025 -4.987,3.155c-1.375,0.965 -2.067,2.377 -2.106,4.077c-0.02,0.884 0.121,1.896 -0.929,2.283c-1.059,0.389 -1.607,-0.533 -2.211,-1.146c-3.878,-3.94 -7.74,-7.895 -11.606,-11.848c-0.222,-0.227 -0.47,-0.443 -0.634,-0.709c-0.467,-0.756 -0.18,-1.383 0.715,-1.486c1.002,-0.116 2.075,0.042 3.006,-0.261c1.375,-0.447 2.661,-1.18 3.969,-1.822c3.477,-1.706 6.864,-3.626 10.437,-5.097c5.659,-2.328 11.614,-3.579 17.697,-4.334c5.822,-0.722 16.095,-1.022 23.526,0.075c4.967,0.751 9.891,1.749 14.502,3.803c4.067,1.813 8.038,3.837 11.075,7.257c2.195,2.473 3.668,5.235 4.163,8.585c0.474,3.212 -0.055,6.145 -1.428,9.026c-0.945,1.983 -2.359,3.268 -4.304,4.435c-3.816,2.288 -6.075,2.861 -6.558,3.156c-0.768,0.466 -0.801,1.088 -0.018,1.536c0.704,0.405 1.513,0.642 2.297,0.886c4.593,1.434 8.537,3.954 11.825,7.407c2.402,2.521 3.824,5.541 4.302,9.113c0.489,3.659 -0.369,6.891 -1.95,10.07c-1.23,2.475 -3.269,4.216 -5.415,5.793c-4.338,3.194 -9.171,5.356 -14.351,6.889c-3.856,1.139 -7.763,1.913 -11.721,2.437c-13.53,1.482 -20.441,0.716 -23.607,0.522Z" style="fill:#fff;fill-rule:nonzero;"/><path d="M507.155,1.605c4.514,0 9.028,0 13.544,0.001c0.444,-0 0.894,-0.034 1.333,0.019c1.006,0.12 1.161,0.545 0.53,1.368c-1.128,1.469 -1.119,1.627 0.166,2.986c0.042,0.046 0.089,0.09 0.134,0.135c6.297,6.373 12.6,12.746 18.901,19.118c0.313,0.318 0.604,0.659 0.968,0.916c0.632,0.456 1.309,0.464 1.932,-0.037c0.346,-0.278 0.652,-0.604 0.965,-0.922c6.221,-6.273 12.442,-12.548 18.662,-18.824c0.225,-0.226 0.459,-0.444 0.658,-0.691c0.829,-1.031 0.81,-1.396 0.036,-2.501c-0.697,-0.941 -0.697,-1.514 0.724,-1.55c0.31,-0.008 0.632,-0.017 0.951,-0.017c9.156,-0 18.312,-0.002 27.468,0.003c0.569,0 1.152,-0.006 1.7,0.114c0.235,0.051 0.519,0.404 0.559,0.654c0.038,0.247 -0.134,0.68 -0.339,0.782c-0.618,0.311 -1.281,0.576 -1.957,0.724c-2.563,0.56 -4.651,1.826 -6.503,3.714c-7.971,8.121 -16.024,16.16 -24.033,24.245c-2.006,2.031 -3.984,4.102 -5.953,6.174c-1.245,1.309 -1.248,1.927 0.014,3.218c2.219,2.262 4.498,4.467 6.706,6.739c1.636,1.683 3.156,3.481 4.805,5.148c4.381,4.432 8.817,8.808 13.204,13.231c2.954,2.978 5.882,5.98 8.784,9.007c1.671,1.746 3.618,2.962 5.966,3.563c0.856,0.217 1.693,0.544 2.501,0.901c0.22,0.098 0.449,0.515 0.416,0.747c-0.035,0.238 -0.348,0.547 -0.6,0.627c-0.413,0.13 -0.876,0.132 -1.316,0.132c-9.347,0.006 -18.694,0.005 -28.04,0.001c-0.379,-0 -0.775,0.008 -1.134,-0.095c-0.595,-0.17 -0.82,-0.527 -0.451,-1.144c0.309,-0.519 0.798,-1.109 0.742,-1.617c-0.062,-0.539 -0.616,-1.069 -1.05,-1.51c-7.25,-7.399 -14.514,-14.785 -21.775,-22.173c-0.266,-0.272 -0.535,-0.545 -0.81,-0.808c-1.604,-1.551 -2.192,-1.571 -3.8,0.029c-4.642,4.616 -9.292,9.233 -13.892,13.896c-2.988,3.029 -5.9,6.132 -8.839,9.211c-1.108,1.159 -1.108,1.232 -0.266,2.769c0.48,0.879 0.298,1.265 -0.704,1.408c-0.434,0.064 -0.886,0.039 -1.333,0.039c-9.028,0.002 -18.055,0.013 -27.084,-0.015c-0.812,-0.002 -2.17,0.218 -2.24,-0.77c-0.142,-1.032 1.105,-1.084 1.838,-1.257c3.289,-0.769 5.797,-2.644 8.122,-5.03c7.411,-7.602 14.946,-15.079 22.406,-22.634c2.315,-2.345 4.53,-4.793 6.818,-7.168c0.882,-0.911 1.861,-1.728 2.763,-2.623c1.884,-1.869 1.894,-2.369 0.079,-4.198c-5.498,-5.561 -11.007,-11.107 -16.501,-16.672c-4.466,-4.521 -8.948,-9.027 -13.357,-13.603c-1.698,-1.762 -3.691,-2.857 -6.038,-3.406c-0.432,-0.101 -0.857,-0.235 -1.281,-0.366c-0.604,-0.187 -1.35,-0.33 -1.267,-1.152c0.084,-0.836 0.82,-0.836 1.473,-0.835c0.383,0.001 0.764,-0.001 1.145,-0.001c4.519,0 9.035,0 13.55,0Z" style="fill:#fff;fill-rule:nonzero;"/></g><path id="path2898_1_" d="M0.005,83.637l35.201,-0.028c14.396,-0 26.066,-11.668 26.066,-26.066c-0,-14.395 -11.669,-26.064 -26.066,-26.064l-9.141,0.043c-0.729,0 -1.318,-0.591 -1.318,-1.317c0,-0.733 0.59,-1.322 1.318,-1.322l35.115,0.004l0.021,-11.036l-35.143,0c-6.811,0 -12.33,5.522 -12.33,12.33c-0,6.81 5.519,12.329 12.33,12.329l9.185,0.103c8.243,0 14.925,6.68 14.925,14.922c-0,8.246 -6.681,14.926 -14.925,14.926l-35.225,-0l-0.013,11.176" style="fill:#fff;fill-rule:nonzero;"/><path id="path2900_1_" d="M0.018,69.864l35.225,-0c6.811,-0 12.329,-5.518 12.329,-12.33c0,-6.806 -5.519,-12.327 -12.329,-12.327l-9.185,-0.1c-8.244,-0 -14.925,-6.68 -14.925,-14.927c0,-8.242 6.682,-14.923 14.925,-14.923l35.143,-0.015l-0.021,-11.095l-35.115,-0.011c-14.395,0 -26.065,11.671 -26.065,26.069c-0,14.394 11.669,26.062 26.065,26.062l9.086,0.007c0.705,0 1.274,0.571 1.274,1.277c-0,0.703 -0.569,1.276 -1.274,1.276l-35.146,0.013l0.013,11.024" style="fill:#fff;fill-rule:nonzero;"/><path id="path2902_1_" d="M88.552,72.531c-6.098,-0 -11.1,-4.885 -11.1,-11.097l-0,-35.284c-0,-5.982 5.003,-10.929 11.1,-10.929l37.572,0.01l-0.003,-11.081l-37.569,-0.007c-12.219,-0 -22.121,9.906 -22.121,22.121l0,35.17c0,12.215 9.903,22.119 22.121,22.119l37.416,0.016l-0.014,-11.053l-37.402,0.015" style="fill:#fff;fill-rule:nonzero;"/><path id="path2904_1_" d="M80.145,26.263c0,-4.659 3.746,-8.435 8.407,-8.435l37.572,-0l-0.003,11.063l-32.369,0c-2.593,0.001 -2.624,2.608 -2.624,2.608l26.991,-0l0.008,11.028l-38.002,-0l0.02,-16.264" style="fill:#fff;fill-rule:nonzero;"/><path id="path2906_1_" d="M88.552,69.849c-4.649,-0 -8.417,-3.771 -8.417,-8.415l-0.008,-16.273l38.003,-0l-0.009,11.061l-26.995,-0c0.031,2.603 2.625,2.606 2.625,2.606l32.217,0l-0.014,11.007l-37.402,0.014" style="fill:#fff;fill-rule:nonzero;"/><path id="path2908_1_" d="M152.448,72.503c-6.1,-0 -11.07,-4.973 -11.07,-11.069l0,-35.17c0,-6.096 4.942,-11.041 11.04,-11.041l36.375,-0.007l0.005,-11.07l-36.466,-0.002c-12.218,0 -22.12,9.905 -22.12,22.12l0,35.172c0,12.215 9.991,22.118 22.207,22.118l36.379,0.016l-0.002,-52.081l-31.266,-0l-0,11.039l20.213,-0l0,29.979l-25.295,-0.004" style="fill:#fff;fill-rule:nonzero;"/><path id="path2910_1_" d="M143.982,61.434c-0,4.656 3.776,8.492 8.435,8.492l22.719,0.001l-0,-24.791l-17.579,-0l-0,11.075l6.524,0l0.027,2.607l-6.491,-0.009c-1.434,-0 -2.596,-1.165 -2.596,-2.598l-0.041,-24.739c0,-0 -0.007,-2.579 2.608,-2.633l31.237,-0l-0.031,-11.041l-36.376,0.028c-4.658,0 -8.434,3.778 -8.434,8.435l0,35.173" style="fill:#fff;fill-rule:nonzero;"/><path id="path2912_1_" d="M222.979,17.643c0.49,-1.406 1.828,-2.419 3.4,-2.419c1.577,0 2.92,1.017 3.405,2.427l17.644,52.332l-25.838,0l0.027,-12.306l8.644,-0l-3.901,-11.588l-12.662,37.467l-13.052,0l22.333,-65.913" style="fill:#fff;fill-rule:nonzero;"/><path id="path2914_1_" d="M250.997,72.506l-29.368,0l0,11.054l44.714,-0l-23.26,-69.024c-2.037,-6.73 -8.745,-11.67 -16.71,-11.67c-7.957,0 -14.662,4.937 -16.705,11.657l-23.473,69.034l11.706,0l22.772,-67.11c0.931,-2.221 3.123,-3.784 5.681,-3.784c2.557,-0 4.741,1.55 5.675,3.763l18.968,56.08" style="fill:#fff;fill-rule:nonzero;"/></g></svg>