<svg clip-rule="evenodd" fill-rule="evenodd" stroke-linejoin="round" stroke-miterlimit="2" viewBox="0 0 600 57" xmlns="http://www.w3.org/2000/svg"><g fill="#fff" fill-rule="nonzero"><path d="m262.838 44.731c0 3.336-1.012 6.03-3.037 8.082-2.024 2.052-4.76 3.078-8.206 3.078h-39.887v-11.16h39.887v-11.164h-29.71c-3.283 0-5.951-1.039-8.003-3.118s-3.078-4.759-3.078-8.042v-11.246c0-1.586.301-3.063.903-4.431.602-1.367 1.409-2.544 2.421-3.529s2.188-1.765 3.529-2.339c1.341-.575 2.75-.862 4.228-.862h37.179v11.161h-37.179v11.246h29.71c1.586 0 3.063.287 4.432.861 1.368.575 2.558 1.354 3.57 2.338 1.012.985 1.805 2.161 2.38 3.53.574 1.368.861 2.845.861 4.431z"/><path d="m327.679 55.891h-44.728c-7.443 0-11.164-3.72-11.164-11.16v-33.57c0-1.586.301-3.063.903-4.431.602-1.367 1.41-2.544 2.422-3.529 1.013-.985 2.189-1.765 3.529-2.339 1.34-.575 2.777-.862 4.31-.862h42.842v11.161h-42.842v33.57h33.484v-11.164h-22.241v-11.16h33.485z"/><path d="m336.185 22.407h33.487v11.161h-33.487z"/><path d="m408.547 55.891h-33.488v-11.16h11.244v-33.57h-11.244v-11.161h22.407v44.731h11.081z"/><path d="m427.113 0c-1.476 0-2.882.285-4.223.86-1.341.574-2.516 1.354-3.528 2.339s-1.82 2.161-2.422 3.528c-.601 1.368-.904 2.846-.904 4.432v33.572c0 7.441 3.692 11.159 11.077 11.159h33.49c7.441 0 11.159-3.718 11.159-11.159v-33.572c0-1.531-.285-2.976-.86-4.343-.574-1.368-1.365-2.56-2.377-3.573-1.012-1.012-2.204-1.809-3.572-2.383-1.368-.575-2.819-.86-4.35-.86h-33.49zm0 11.159h33.49v33.572h-33.49z"/><path d="m491.235 0c-1.476 0-2.882.285-4.223.86-1.341.574-2.516 1.354-3.528 2.339s-1.82 2.161-2.421 3.528c-.602 1.368-.905 2.846-.905 4.432v33.572c0 7.441 3.692 11.159 11.077 11.159h33.49c7.441 0 11.159-3.718 11.159-11.159v-33.572c0-1.531-.285-2.976-.86-4.343-.574-1.368-1.371-2.56-2.383-3.573-1.012-1.012-2.204-1.809-3.572-2.383-1.369-.575-2.813-.86-4.344-.86h-33.49zm0 11.159h33.49v33.572h-33.49z"/><path d="m555.357 0c-1.476 0-2.889.285-4.229.86-1.341.574-2.516 1.354-3.528 2.339s-1.82 2.161-2.422 3.528c-.602 1.368-.904 2.846-.904 4.432v33.572c0 7.441 3.698 11.159 11.083 11.159h33.484c7.44 0 11.159-3.718 11.159-11.159v-33.572c0-1.531-.285-2.976-.86-4.343-.574-1.368-1.365-2.56-2.377-3.573-1.012-1.012-2.204-1.809-3.572-2.383-1.369-.575-2.819-.86-4.35-.86h-33.484zm0 11.159h33.484v33.572h-33.484z"/><path d="m.01 56.061 24.502-.025c10.024 0 18.148-8.099 18.148-18.078 0-9.999-8.124-18.099-18.148-18.099l-6.364.035c-.501 0-.908-.411-.908-.917s.407-.918.908-.918l24.458.005.009-7.673h-24.472c-4.731 0-8.581 3.844-8.581 8.566 0 4.727 3.849 8.555 8.581 8.555l6.393.085c5.744 0 10.392 4.632 10.392 10.346 0 5.719-4.648 10.362-10.392 10.362h-24.516l-.01 7.756z"/><path d="m.02 46.503h24.516c4.747 0 8.586-3.828 8.586-8.56 0-4.727-3.839-8.551-8.586-8.551l-6.393-.069c-5.734 0-10.386-4.638-10.386-10.367 0-5.713 4.652-10.351 10.386-10.351l24.472-.005-.009-7.702h-24.458c-10.014 0-18.148 8.09-18.148 18.079s8.134 18.083 18.148 18.083l6.329.01c.481 0 .888.392.888.888 0 .486-.407.878-.888.878l-24.467.019.01 7.648zm61.636 1.851c-4.251 0-7.733-3.388-7.733-7.714v-24.476c0-4.161 3.482-7.584 7.733-7.584l26.153.005v-7.687h-26.153c-8.511 0-15.405 6.869-15.405 15.35v24.393c0 8.482 6.894 15.361 15.405 15.361l26.044.011-.005-7.669z"/><path d="m55.798 16.248c0-3.243 2.609-5.872 5.858-5.872h26.153v7.698h-22.532c-1.805 0-1.83 1.79-1.83 1.79h18.798v7.663h-26.456zm5.858 30.241c-3.239 0-5.868-2.614-5.868-5.848v-11.289h26.456v7.679h-18.798c.025 1.805 1.83 1.814 1.83 1.814h22.423l-.005 7.634zm44.481 1.845c-4.236 0-7.698-3.452-7.698-7.694v-24.392c0-4.246 3.437-7.668 7.677-7.668h25.331v-7.682h-25.389c-8.507 0-15.402 6.869-15.402 15.35v24.393c0 8.482 6.954 15.361 15.46 15.361l25.331.011v-36.149h-21.769v7.663h14.076v20.807z"/><path d="m100.244 40.64c0 3.25 2.629 5.893 5.872 5.893h15.822v-17.191h-12.241v7.689h4.543l.015 1.805h-4.523c-.987 0-1.796-.818-1.796-1.805l-.04-17.172s-.005-1.785 1.815-1.83h21.745l-.01-7.658-25.331.005c-3.221 0-5.872 2.651-5.872 5.872v24.392m55.006-30.378c.351-1.003 1.304-1.678 2.366-1.678s2.014.675 2.366 1.678l12.296 36.326h-18.005l.019-8.546h6.017l-2.708-8.05-8.824 26.014h-9.076z"/><path d="m174.756 48.334h-20.454v7.672h31.128l-16.189-47.897c-1.419-4.672-6.095-8.109-11.632-8.109-5.544 0-10.206 3.422-11.636 8.09l-16.337 47.917h8.149l15.862-46.578c.663-1.591 2.226-2.631 3.949-2.629 1.72.002 3.28 1.036 3.952 2.619z"/></g></svg>