<svg clip-rule="evenodd" fill-rule="evenodd" stroke-linejoin="round" stroke-miterlimit="2" viewBox="0 0 600 199" xmlns="http://www.w3.org/2000/svg"><g fill="#fff" fill-rule="nonzero"><path d="m80.218 181.343c0 5.143-1.561 9.297-4.682 12.46-3.121 3.164-7.338 4.746-12.651 4.746h-61.491v-17.206h61.491v-17.21h-45.803c-5.061 0-9.173-1.602-12.336-4.807-3.164-3.205-4.746-7.338-4.746-12.398v-17.338c0-2.445.464-4.722 1.392-6.83s2.172-3.922 3.732-5.441c1.56-1.518 3.373-2.721 5.44-3.606 2.068-.886 4.24-1.328 6.518-1.329h57.317v17.206h-57.317v17.338h45.803c2.445 0 4.723.442 6.832 1.328 2.11.885 3.944 2.087 5.505 3.604 1.559 1.518 2.782 3.331 3.668 5.441.885 2.109 1.328 4.387 1.328 6.832z"/><path d="m180.179 198.549h-68.955c-11.473 0-17.21-5.735-17.21-17.206v-51.753c0-2.445.464-4.722 1.392-6.83s2.173-3.922 3.734-5.441c1.561-1.518 3.375-2.721 5.441-3.606 2.065-.886 4.28-1.328 6.643-1.329h66.047v17.206h-66.047v51.753h51.621v-17.21h-34.288v-17.205h51.622z"/><path d="m193.292 146.928h51.625v17.206h-51.625z"/><path d="m304.848 198.549h-51.626v-17.206h17.334v-51.753h-17.334v-17.206h34.543v68.959h17.083z"/><path d="m333.471 112.384c-2.276.001-4.444.44-6.511 1.326-2.067.885-3.879 2.088-5.439 3.606-1.56 1.519-2.805 3.331-3.733 5.439s-1.394 4.387-1.394 6.833v51.756c0 11.47 5.691 17.203 17.077 17.203h51.629c11.471 0 17.203-5.733 17.204-17.203v-51.756c-.001-2.361-.441-4.588-1.326-6.696-.886-2.109-2.105-3.946-3.665-5.507s-3.397-2.79-5.507-3.675c-2.11-.886-4.345-1.325-6.706-1.326zm0 17.204h51.629v51.756h-51.629z"/><path d="m432.324 112.384c-2.276.001-4.444.44-6.511 1.326-2.067.885-3.879 2.088-5.439 3.606-1.56 1.519-2.805 3.331-3.733 5.439s-1.394 4.387-1.394 6.833v51.756c0 11.47 5.691 17.203 17.077 17.203h51.629c11.471 0 17.204-5.733 17.204-17.203v-51.756c0-2.361-.441-4.588-1.326-6.696-.886-2.109-2.115-3.946-3.675-5.507s-3.397-2.79-5.507-3.675c-2.109-.886-4.335-1.325-6.696-1.326zm0 17.204h51.629v51.756h-51.629z"/><path d="m531.177 112.384c-2.276.001-4.454.44-6.521 1.326-2.067.885-3.878 2.088-5.438 3.606-1.56 1.519-2.805 3.331-3.733 5.439s-1.394 4.387-1.394 6.833v51.756c0 11.47 5.701 17.203 17.086 17.203h51.62c11.47 0 17.203-5.733 17.203-17.203v-51.756c0-2.361-.44-4.588-1.326-6.696-.885-2.109-2.105-3.946-3.664-5.507-1.56-1.561-3.398-2.79-5.507-3.675-2.11-.886-4.346-1.325-6.706-1.326zm0 17.204h51.62v51.756h-51.62z"/><path d="m157.082 86.639 37.773-.038c15.454 0 27.978-12.486 27.978-27.871 0-15.414-12.524-27.901-27.978-27.901l-9.81.053c-.773 0-1.4-.634-1.4-1.414s.627-1.415 1.4-1.415l37.705.008.015-11.829h-37.728c-7.294 0-13.228 5.926-13.228 13.206 0 7.287 5.933 13.189 13.228 13.189l9.856.13c8.855 0 16.02 7.141 16.02 15.951 0 8.816-7.164 15.973-16.02 15.973h-37.796z"/><path d="m157.097 71.904h37.796c7.318 0 13.236-5.902 13.236-13.197 0-7.287-5.918-13.182-13.236-13.182l-9.856-.107c-8.839 0-16.011-7.149-16.011-15.981 0-8.808 7.172-15.958 16.011-15.958l37.728-.008-.015-11.874h-37.705c-15.438 0-27.978 12.471-27.978 27.871s12.54 27.878 27.978 27.878l9.757.016c.741 0 1.368.604 1.368 1.368 0 .75-.627 1.354-1.368 1.354l-37.72.03zm95.022 2.853c-6.554 0-11.922-5.223-11.922-11.891v-37.734c0-6.415 5.368-11.691 11.922-11.691l40.318.007v-11.851h-40.318c-13.121 0-23.749 10.59-23.749 23.665v37.605c0 13.076 10.628 23.681 23.749 23.681l40.15.016-.008-11.821z"/><path d="m243.088 25.262c0-5 4.022-9.053 9.031-9.053h40.318v11.867h-34.737c-2.783 0-2.821 2.761-2.821 2.761h28.98v11.813h-40.785zm9.031 46.62c-4.994 0-9.046-4.029-9.046-9.015v-17.404h40.785v11.838h-28.98c.038 2.783 2.821 2.797 2.821 2.797h34.569l-.008 11.768zm68.573 2.845c-6.531 0-11.867-5.322-11.867-11.861v-37.605c0-6.545 5.298-11.821 11.835-11.821h39.051v-11.843h-39.141c-13.115 0-23.743 10.59-23.743 23.665v37.605c0 13.076 10.72 23.681 23.833 23.681l39.051.016v-55.727h-33.56v11.813h21.7v32.077z"/><path d="m311.607 62.866c0 5.01 4.053 9.085 9.053 9.085h24.392v-26.503h-18.871v11.853h7.003l.023 2.783h-6.973c-1.522 0-2.768-1.261-2.768-2.783l-.062-26.472s-.008-2.753 2.799-2.821h33.521l-.015-11.807-39.051.008c-4.966 0-9.053 4.087-9.053 9.053v37.604m84.801-46.833c.541-1.546 2.009-2.587 3.647-2.587 1.637 0 3.105 1.041 3.647 2.587l18.956 56.001h-27.757l.03-13.174h9.276l-4.176-12.41-13.603 40.104h-13.992z"/><path d="m426.478 74.727h-31.533v11.827h47.988l-24.958-73.84c-2.187-7.203-9.396-12.501-17.931-12.501-8.548 0-15.735 5.275-17.938 12.472l-25.187 73.87h12.564l24.453-71.806c1.022-2.452 3.431-4.056 6.087-4.053 2.651.004 5.056 1.598 6.094 4.038z"/></g></svg>