<?xml version="1.0" encoding="UTF-8" standalone="no"?><!DOCTYPE svg PUBLIC "-//W3C//DTD SVG 1.1//EN" "http://www.w3.org/Graphics/SVG/1.1/DTD/svg11.dtd"><svg width="100%" height="100%" viewBox="0 0 600 90" version="1.1" xmlns="http://www.w3.org/2000/svg" xmlns:xlink="http://www.w3.org/1999/xlink" xml:space="preserve" xmlns:serif="http://www.serif.com/" style="fill-rule:evenodd;clip-rule:evenodd;stroke-linejoin:round;stroke-miterlimit:2;"><g id="sharp"><path d="M124.223,4.265l-0,82.109l28.119,-0l0,-32.618l53.989,-0l0,32.618l28.118,-0l0,-82.109l-28.118,0l0,31.494l-53.989,0l0,-31.494l-28.119,0Z" style="fill:#fff;fill-rule:nonzero;"/><path d="M325.957,68.379l10.846,17.995l32.618,-0l-49.489,-82.109l-32.618,0l-49.489,82.109l21.37,-0l10.847,-17.995l55.915,-0Zm-27.959,-46.39l17.783,29.517l-35.578,0l17.795,-29.517Z" style="fill:#fff;fill-rule:nonzero;"/><path d="M517.889,17.25c-0,0 6.586,-0.774 12.523,-1.161c5.922,-0.375 7.498,-0.3 11.794,-0.3c16.574,-0 26.458,5.274 26.296,15.022c-0.137,8.122 -7.698,14.721 -24.27,14.721c-4.985,0 -12.497,-0.7 -17.559,-1.412c-5.062,-0.7 -8.784,-2.311 -8.784,-2.311l-0,-24.559Zm-26.994,-12.985l-0,82.109l26.994,-0l-0,-29.732c8.911,1.813 19.059,2.738 29.806,2.738c35.716,0 52,-12.846 52.301,-28.682c0.348,-18.996 -21.084,-29.805 -56.799,-29.805c-9.275,-0 -12.524,0.386 -25.308,1.124c-12.783,0.738 -26.994,2.248 -26.994,2.248Z" style="fill:#fff;fill-rule:nonzero;"/><path d="M372.796,4.265l-0,82.109l26.992,-0l-0,-69.124c-0,0 6.588,-0.774 12.524,-1.161c5.924,-0.375 7.498,-0.3 11.797,-0.3c16.573,-0 27.579,5.274 27.419,15.022c-0.139,8.122 -8.823,12.471 -25.395,12.471c-4.985,0 -11.124,-0.687 -16.183,-1.387c-0.275,-0.038 -5.661,8.7 -5.661,8.7l40.491,35.779l40.491,-0l-35.757,-30.769c22.385,-3.749 33.495,-13.921 33.507,-24.907c0.027,-21.319 -21.182,-30.231 -57.925,-29.805c-9.272,0.111 -12.524,0.386 -25.308,1.124c-12.783,0.738 -26.992,2.248 -26.992,2.248Z" style="fill:#fff;fill-rule:nonzero;"/><path d="M106.227,29.011c0,-0 9.423,-17.296 8.999,-17.996c-0.425,-0.699 -19.021,-10.548 -56.238,-10.122c-57.675,0.65 -57.362,24.744 -57.362,24.744c0,-0 -5.762,22.395 39.066,26.993c27.506,2.813 47.103,7.41 46.99,14.098c-0.113,6.699 -11.66,6.297 -16.835,5.874c-45.001,-3.649 -61.085,-16.259 -61.085,-16.259l-9.762,20.22c0,0 21.721,13.597 66.861,13.184c45.191,-0.411 51.377,-11.134 52.202,-25.569c1.024,-17.97 -24.082,-25.045 -24.082,-25.045c-0,0 -13.772,-3.024 -28.096,-5.072c-16.458,-2.363 -33.604,-5 -31.467,-11.498c0,-0.226 4.861,-9.536 39.365,-3.061c16.774,3.135 31.444,9.509 31.444,9.509Z" style="fill:#fff;fill-rule:nonzero;"/></g></svg>