<svg clip-rule="evenodd" fill-rule="evenodd" stroke-linejoin="round" stroke-miterlimit="2" viewBox="0 0 600 75" xmlns="http://www.w3.org/2000/svg"><g fill="#fff" fill-rule="nonzero"><path d="m420.454 74.774h-56.785l35.911-35.237zm-45.041-4.799h36.619l-13.46-22.724z"/><path d="m528.741.014-16.586 17.352h20.154l-29.603 52.609h-18.991l-40.241-69.961h-57.611l43.396 74.76h127.739l43.002-74.76h-71.259zm-96.718 69.961-37.825-65.161h46.5l37.48 65.161zm122.199 0h-46.009l32.304-57.408h-17.135l7.411-7.753h60.91z"/><path d="m471.642 33.691-18.886-33.677h52.107zm-10.692-28.877 11.756 20.963 20.681-20.963z"/><path d="m75.293 12.512v49.768h17.044v-19.771h32.724v19.771h17.042v-49.768h-17.042v19.089h-32.724v-19.089z"/><path d="m197.568 51.372 6.574 10.908h19.77l-29.996-49.768h-19.77l-29.997 49.768h12.953l6.575-10.908zm-16.947-28.117 10.779 17.891h-21.565z"/><path d="m313.9 20.383s3.992-.47 7.591-.704c3.589-.227 4.544-.182 7.149-.182 10.045 0 16.036 3.197 15.938 9.105-.083 4.923-4.666 8.923-14.711 8.923-3.021 0-7.574-.424-10.643-.856-3.067-.424-5.324-1.401-5.324-1.401zm-16.361-7.871v49.768h16.361v-18.021c5.401 1.098 11.552 1.659 18.066 1.659 21.648 0 31.519-7.786 31.701-17.385.211-11.513-12.779-18.065-34.427-18.065-5.622 0-7.591.234-15.34.682-7.748.447-16.361 1.362-16.361 1.362z"/><path d="m225.957 12.512v49.768h16.361v-41.897s3.992-.47 7.59-.704c3.591-.227 4.546-.182 7.151-.182 10.045 0 16.716 3.197 16.619 9.105-.084 4.923-5.348 7.559-15.392 7.559-3.022 0-6.743-.416-9.809-.841-.167-.023-3.431 5.273-3.431 5.273l24.542 21.687h24.542l-21.673-18.65c13.568-2.272 20.302-8.438 20.309-15.097.017-12.921-12.838-18.323-35.109-18.065-5.62.068-7.59.234-15.339.682-7.748.447-16.361 1.362-16.361 1.362z"/><path d="m64.386 27.511s5.712-10.483 5.454-10.907c-.257-.425-11.529-6.394-34.086-6.136-34.958.394-34.768 14.998-34.768 14.998s-3.493 13.574 23.678 16.361c16.672 1.705 28.55 4.491 28.481 8.545-.068 4.06-7.067 3.817-10.203 3.56-27.277-2.212-37.025-9.855-37.025-9.855l-5.917 12.256s13.165 8.241 40.525 7.991c27.391-.249 31.141-6.749 31.641-15.498.62-10.892-14.597-15.18-14.597-15.18s-8.347-1.833-17.029-3.074c-9.975-1.432-20.368-3.03-19.073-6.969 0-.137 2.947-5.78 23.86-1.856 10.167 1.901 19.059 5.764 19.059 5.764z"/></g></svg>