<svg clip-rule="evenodd" fill-rule="evenodd" stroke-linejoin="round" stroke-miterlimit="2" viewBox="0 0 600 196" xmlns="http://www.w3.org/2000/svg"><g fill="#fff"><path d="m373.514 1.759c0-.837-.678-1.515-1.514-1.515h-11.614c-.837 0-1.515.678-1.515 1.515v11.613c0 .837.678 1.515 1.515 1.515h11.614c.836 0 1.514-.678 1.514-1.515z"/><path d="m360.386 17.05c-.837 0-1.515.678-1.515 1.514v52.335c0 .837.678 1.515 1.515 1.515h11.614c.836 0 1.514-.678 1.514-1.515 0-7.911 0-44.423 0-52.335 0-.836-.678-1.514-1.514-1.514-2.811 0-8.803 0-11.614 0z"/><path d="m261.612.244c-.836 0-1.515.678-1.515 1.515v69.14c0 .837.679 1.515 1.515 1.515h11.614c.836 0 1.515-.678 1.515-1.515 0-9.406 0-59.734 0-69.14 0-.837-.679-1.515-1.515-1.515-2.811 0-8.803 0-11.614 0z"/><path d="m77.654 72.414c.837 0 1.515-.678 1.515-1.515 0-5.754 0-26.22 0-31.974 0-.837-.678-1.515-1.515-1.515-8.75 0-52.746 0-61.496 0-.402 0-.787-.159-1.071-.443-.284-.285-.444-.67-.444-1.072 0-.83 0-1.857 0-2.687 0-.402.16-.788.444-1.072s.669-.443 1.071-.443h61.496c.837 0 1.515-.679 1.515-1.515 0-2.811 0-8.803 0-11.614 0-.836-.678-1.514-1.515-1.514-9.977 0-66.162 0-76.139 0-.402 0-.787.159-1.071.443s-.444.67-.444 1.071v31.975c0 .836.678 1.514 1.515 1.514h61.496c.402 0 .787.16 1.071.444s.444.669.444 1.071v2.688c0 .402-.16.787-.444 1.071s-.669.444-1.071.444c-8.751 0-52.746 0-61.496 0-.837 0-1.515.678-1.515 1.515v11.613c0 .837.678 1.515 1.515 1.515z"/><path d="m277.221 70.899c0 .402.16.787.444 1.071.284.285.669.444 1.071.444h76.14c.836 0 1.514-.678 1.514-1.515v-52.335c0-.401-.159-.787-.443-1.071s-.67-.443-1.071-.443c-9.977 0-66.163 0-76.14 0-.836 0-1.515.678-1.515 1.514v11.614c0 .836.679 1.515 1.515 1.515h61.496c.402 0 .787.159 1.072.443.284.284.443.67.443 1.072v2.687c0 .402-.159.787-.443 1.072-.285.284-.67.443-1.072.443-8.75 0-52.745 0-61.496 0-.836 0-1.515.678-1.515 1.515zm16.158-18.846c-.401 0-.787.16-1.071.444s-.443.669-.443 1.071v2.688c0 .402.159.787.443 1.071s.67.444 1.071.444h46.853c.402 0 .787-.16 1.072-.444.284-.284.443-.669.443-1.071v-2.688c0-.402-.159-.787-.443-1.071-.285-.284-.67-.444-1.072-.444-7.376 0-39.476 0-46.853 0z"/><path d="m256.102 17.05h-76.14c-.836 0-1.514.678-1.514 1.514v53.85h77.654c.836 0 1.515-.678 1.515-1.515 0-2.81 0-8.802 0-11.613 0-.837-.679-1.515-1.515-1.515-8.751 0-52.746 0-61.496 0-.402 0-.787-.16-1.071-.444-.285-.284-.444-.669-.444-1.071 0-4.61 0-18.438 0-23.048 0-.402.159-.788.444-1.072.284-.284.669-.443 1.071-.443h61.496c.836 0 1.515-.679 1.515-1.515 0-2.811 0-8.803 0-11.614 0-.836-.679-1.514-1.515-1.514z"/><path d="m453.649 17.05h-76.139c-.837 0-1.515.678-1.515 1.514v52.335c0 .837.678 1.515 1.515 1.515h11.614c.836 0 1.514-.678 1.514-1.515 0-6.411 0-31.28 0-37.691 0-.402.16-.788.444-1.072s.669-.443 1.071-.443h61.496c.837 0 1.515-.679 1.515-1.515 0-2.811 0-8.803 0-11.614 0-.836-.678-1.514-1.515-1.514z"/><path d="m175.967 17.05h-75.678c-.837 0-1.515.678-1.515 1.514v52.335c0 .837.678 1.515 1.515 1.515h11.613c.837 0 1.515-.678 1.515-1.515 0-6.411 0-31.28 0-37.691 0-.837.678-1.515 1.515-1.515h44.877c.836 0 1.515.678 1.515 1.515v37.691c0 .837.678 1.515 1.515 1.515h11.613c.837 0 1.515-.678 1.515-1.515z"/><path d="m96.293 1.759c0-.837-.678-1.515-1.515-1.515h-11.613c-.837 0-1.515.678-1.515 1.515v11.613c0 .837.678 1.515 1.515 1.515h11.613c.837 0 1.515-.678 1.515-1.515 0-2.81 0-8.802 0-11.613z"/><path d="m83.165 17.05c-.837 0-1.515.678-1.515 1.514v52.335c0 .837.678 1.515 1.515 1.515h11.613c.837 0 1.515-.678 1.515-1.515 0-7.911 0-44.423 0-52.335 0-.836-.678-1.514-1.515-1.514-2.811 0-8.803 0-11.613 0z"/><g fill-rule="nonzero"><path d="m0 163.326v13.058h63.393v-13.9h-41.385l40.332-48.229v-13.058h-59.181v13.9h37.172z"/><path d="m93.61 137-26.22 39.384h18.533l16.744-26.01 16.427 26.01h19.692l-26.221-39.278 24.115-35.909h-18.113l-15.269 24.009-14.742-24.009h-19.165z"/><path d="m168 151.427h-16.006c-.07 4.633.772 8.635 2.527 12.004 1.755 3.37 4.125 6.143 7.108 8.319 2.984 2.177 6.424 3.774 10.32 4.792s7.915 1.527 12.057 1.527c5.125 0 9.636-.597 13.532-1.791 3.896-1.193 7.16-2.86 9.793-5.001 2.633-2.142 4.616-4.686 5.95-7.635 1.333-2.948 2-6.143 2-9.583 0-4.212-.895-7.669-2.685-10.372s-3.914-4.861-6.371-6.476-4.931-2.791-7.424-3.528c-2.492-.737-4.44-1.246-5.844-1.527-4.703-1.193-8.512-2.176-11.425-2.948-2.914-.772-5.195-1.545-6.845-2.317s-2.755-1.614-3.317-2.527-.842-2.106-.842-3.58c0-1.615.351-2.949 1.053-4.002s1.597-1.931 2.685-2.633 2.299-1.193 3.633-1.474 2.667-.421 4.001-.421c2.036 0 3.914.176 5.634.527s3.247.947 4.581 1.79c1.334.842 2.404 2 3.211 3.475.808 1.474 1.282 3.334 1.422 5.581h16.006c0-4.353-.825-8.056-2.474-11.11-1.65-3.054-3.879-5.563-6.687-7.529s-6.02-3.387-9.636-4.265c-3.615-.877-7.388-1.316-11.32-1.316-3.369 0-6.739.456-10.109 1.369-3.369.913-6.388 2.317-9.056 4.212-2.668 1.896-4.826 4.265-6.476 7.108s-2.475 6.195-2.475 10.057c0 3.439.65 6.37 1.949 8.792 1.298 2.422 3.001 4.441 5.107 6.055 2.106 1.615 4.493 2.931 7.16 3.949 2.668 1.018 5.406 1.878 8.214 2.58 2.738.772 5.441 1.474 8.108 2.106 2.668.632 5.055 1.369 7.161 2.212 2.106.842 3.808 1.895 5.107 3.159 1.299 1.263 1.948 2.913 1.948 4.949 0 1.895-.491 3.457-1.474 4.686-.983 1.228-2.211 2.194-3.686 2.896-1.474.702-3.053 1.176-4.738 1.421-1.685.246-3.265.369-4.739.369-2.176 0-4.282-.263-6.318-.79-2.036-.526-3.809-1.334-5.318-2.422s-2.72-2.51-3.633-4.265c-.912-1.755-1.369-3.896-1.369-6.423z"/><path d="m245.623 166.591c-2.386 0-4.422-.492-6.107-1.475s-3.036-2.264-4.054-3.843c-1.018-1.58-1.755-3.423-2.212-5.529-.456-2.106-.684-4.247-.684-6.423 0-2.247.21-4.423.632-6.529.421-2.106 1.14-3.966 2.158-5.581s2.352-2.931 4.002-3.949 3.703-1.527 6.16-1.527c2.387 0 4.405.509 6.055 1.527s3.001 2.352 4.054 4.002c1.053 1.649 1.808 3.527 2.264 5.633.457 2.106.685 4.248.685 6.424s-.211 4.317-.632 6.423-1.141 3.949-2.159 5.529c-1.018 1.579-2.352 2.86-4.001 3.843-1.65.983-3.704 1.475-6.161 1.475zm-27.484-44.649v73.502h14.953v-25.8h.211c1.825 2.668 4.159 4.686 7.003 6.055 2.843 1.369 5.949 2.054 9.319 2.054 4.001 0 7.494-.773 10.478-2.317 2.983-1.544 5.475-3.615 7.476-6.213 2.001-2.597 3.493-5.581 4.476-8.951.982-3.369 1.474-6.879 1.474-10.53 0-3.861-.492-7.564-1.474-11.11-.983-3.545-2.493-6.651-4.528-9.319-2.036-2.668-4.599-4.809-7.688-6.423-3.089-1.615-6.774-2.422-11.056-2.422-3.37 0-6.459.667-9.267 2-2.808 1.334-5.125 3.475-6.95 6.424h-.211v-6.95z"/><path d="m315.618 143.318h-24.325c.07-1.053.299-2.246.685-3.58s1.053-2.597 2-3.791c.948-1.193 2.212-2.194 3.791-3.001 1.58-.807 3.563-1.211 5.95-1.211 3.651 0 6.371.983 8.161 2.949 1.79 1.965 3.036 4.844 3.738 8.634zm-24.325 9.478h39.278c.281-4.212-.07-8.249-1.053-12.11s-2.58-7.301-4.791-10.32-5.037-5.423-8.477-7.213-7.476-2.685-12.11-2.685c-4.142 0-7.915.737-11.32 2.211s-6.336 3.493-8.793 6.055-4.352 5.599-5.686 9.109-2.001 7.301-2.001 11.372c0 4.213.65 8.074 1.948 11.584 1.299 3.51 3.142 6.529 5.529 9.056s5.3 4.475 8.74 5.844 7.301 2.054 11.583 2.054c6.178 0 11.443-1.404 15.796-4.212 4.352-2.809 7.582-7.477 9.688-14.006h-13.163c-.492 1.685-1.826 3.282-4.002 4.792-2.176 1.509-4.774 2.264-7.792 2.264-4.212 0-7.442-1.089-9.688-3.265-2.247-2.176-3.475-5.686-3.686-10.53z"/><path d="m372.853 141.107h14.637c-.21-3.51-1.053-6.546-2.527-9.109-1.474-2.562-3.387-4.703-5.739-6.423s-5.019-3.001-8.003-3.844c-2.984-.842-6.09-1.263-9.319-1.263-4.423 0-8.354.737-11.794 2.211s-6.354 3.528-8.741 6.16c-2.386 2.633-4.194 5.757-5.423 9.372-1.228 3.616-1.842 7.529-1.842 11.742 0 4.071.666 7.81 2 11.214 1.334 3.405 3.194 6.336 5.581 8.793s5.283 4.37 8.688 5.739 7.143 2.054 11.215 2.054c7.231 0 13.163-1.896 17.796-5.687s7.441-9.301 8.424-16.532h-14.426c-.492 3.369-1.703 6.055-3.633 8.055-1.931 2.001-4.686 3.002-8.267 3.002-2.316 0-4.282-.527-5.897-1.58-1.614-1.053-2.895-2.404-3.843-4.054s-1.632-3.493-2.054-5.529c-.421-2.035-.631-4.036-.631-6.002 0-2.036.21-4.089.631-6.16.422-2.071 1.141-3.967 2.159-5.687 1.018-1.719 2.334-3.124 3.949-4.212s3.615-1.632 6.002-1.632c6.389 0 10.074 3.124 11.057 9.372z"/><path d="m411.364 121.942v-16.322h-14.954v16.322h-9.056v10.004h9.056v32.117c0 2.738.457 4.95 1.369 6.634.913 1.685 2.159 2.984 3.739 3.897 1.579.912 3.404 1.526 5.475 1.842s4.265.474 6.582.474c1.474 0 2.983-.035 4.528-.105 1.544-.07 2.948-.211 4.212-.421v-11.584c-.702.141-1.439.246-2.211.316-.773.07-1.58.106-2.422.106-2.528 0-4.212-.422-5.055-1.264-.842-.842-1.263-2.527-1.263-5.055v-26.957h10.951v-10.004z"/><path d="m424.952 121.942v54.442h14.953v-24.536c0-2.457.245-4.739.737-6.845.491-2.106 1.316-3.949 2.474-5.528 1.159-1.58 2.686-2.826 4.581-3.738 1.896-.913 4.212-1.369 6.95-1.369.913 0 1.861.052 2.843.158.983.105 1.826.228 2.528.368v-13.9c-1.194-.351-2.282-.526-3.265-.526-1.895 0-3.72.28-5.476.842-1.755.562-3.404 1.351-4.949 2.369-1.544 1.018-2.913 2.247-4.107 3.686-1.193 1.439-2.141 3.001-2.843 4.686h-.21v-10.109z"/><path d="m513.634 176.384v-54.442h-14.954v28.537c0 5.546-.912 9.53-2.737 11.952-1.826 2.422-4.774 3.633-8.846 3.633-3.58 0-6.072-1.106-7.476-3.317s-2.106-5.564-2.106-10.057v-30.748h-14.954v33.486c0 3.37.299 6.441.896 9.214.596 2.773 1.632 5.125 3.106 7.056 1.474 1.93 3.493 3.422 6.055 4.475s5.844 1.58 9.846 1.58c3.159 0 6.248-.702 9.266-2.106 3.019-1.404 5.476-3.686 7.372-6.845h.316v7.582z"/><path d="m516.81 121.942v54.442h14.953v-31.591c0-2.668.387-4.827 1.159-6.476.772-1.65 1.702-2.914 2.79-3.791 1.088-.878 2.212-1.475 3.37-1.79 1.158-.316 2.089-.474 2.791-.474 2.386 0 4.194.403 5.423 1.211 1.228.807 2.106 1.878 2.632 3.211.527 1.334.825 2.791.895 4.37.071 1.58.106 3.177.106 4.792v30.538h14.953v-30.328c0-1.684.123-3.352.368-5.002.246-1.649.737-3.124 1.475-4.422.737-1.299 1.755-2.352 3.053-3.159 1.299-.808 3.001-1.211 5.108-1.211 2.106 0 3.773.351 5.001 1.053 1.229.702 2.159 1.649 2.791 2.843.632 1.193 1.018 2.597 1.158 4.212.141 1.615.211 3.335.211 5.16v30.854h14.953v-36.435c0-3.51-.491-6.511-1.474-9.004-.983-2.492-2.352-4.51-4.107-6.055-1.755-1.544-3.861-2.667-6.318-3.369s-5.125-1.053-8.003-1.053c-3.791 0-7.073.912-9.846 2.738-2.773 1.825-4.967 3.931-6.582 6.318-1.474-3.37-3.633-5.722-6.476-7.056-2.843-1.333-5.985-2-9.424-2-3.581 0-6.757.772-9.53 2.316-2.773 1.545-5.143 3.721-7.108 6.529h-.211v-7.371z"/></g><path d="m463.274 110.059 49.927-109.815h-25.696l-49.926 109.815zm28.933 0 49.927-109.815h-25.696l-49.926 109.815zm28.934 0 49.926-109.815h-25.695l-49.927 109.815zm28.933 0 49.926-109.815h-25.695l-49.927 109.815z"/></g></svg>