<?xml version="1.0" encoding="UTF-8" standalone="no"?><!DOCTYPE svg PUBLIC "-//W3C//DTD SVG 1.1//EN" "http://www.w3.org/Graphics/SVG/1.1/DTD/svg11.dtd"><svg width="100%" height="100%" viewBox="0 0 600 96" version="1.1" xmlns="http://www.w3.org/2000/svg" xmlns:xlink="http://www.w3.org/1999/xlink" xml:space="preserve" xmlns:serif="http://www.serif.com/" style="fill-rule:evenodd;clip-rule:evenodd;stroke-linejoin:round;stroke-miterlimit:2;"><g id="sinclair"><path d="M492.369,2.533c-0,-1.102 -0.894,-1.996 -1.997,-1.996l-15.309,-0c-1.103,-0 -1.997,0.894 -1.997,1.996l0,15.309c0,1.103 0.894,1.997 1.997,1.997l15.309,0c1.103,0 1.997,-0.894 1.997,-1.997l-0,-15.309Z" style="fill:#fff;"/><path d="M475.063,22.69c-1.103,-0 -1.997,0.894 -1.997,1.997c0,10.429 0,58.559 0,68.988c0,1.103 0.894,1.997 1.997,1.997c3.705,-0 11.604,-0 15.309,-0c1.103,-0 1.997,-0.894 1.997,-1.997c-0,-10.429 -0,-58.559 -0,-68.988c-0,-1.103 -0.894,-1.997 -1.997,-1.997c-3.705,-0 -11.604,-0 -15.309,-0Z" style="fill:#fff;"/><path d="M344.859,0.537c-1.103,-0 -1.997,0.894 -1.997,1.996c-0,12.4 -0,78.743 -0,91.142c-0,1.103 0.894,1.997 1.997,1.997c3.705,-0 11.604,-0 15.309,-0c1.103,-0 1.997,-0.894 1.997,-1.997c-0,-12.399 -0,-78.742 -0,-91.142c-0,-1.102 -0.894,-1.996 -1.997,-1.996c-3.705,-0 -11.604,-0 -15.309,-0Z" style="fill:#fff;"/><path d="M102.364,95.672c1.103,-0 1.997,-0.894 1.997,-1.997c0,-7.585 0,-34.564 0,-42.149c0,-1.103 -0.894,-1.997 -1.997,-1.997c-11.535,0 -69.529,0 -81.064,0c-0.53,0 -1.038,-0.21 -1.412,-0.584c-0.375,-0.375 -0.585,-0.883 -0.585,-1.412c-0,-1.095 -0,-2.449 -0,-3.544c-0,-0.529 0.21,-1.037 0.585,-1.412c0.374,-0.374 0.882,-0.584 1.412,-0.584c11.535,-0 69.529,-0 81.064,-0c1.103,-0 1.997,-0.895 1.997,-1.997c0,-3.706 0,-11.604 0,-15.309c0,-1.103 -0.894,-1.997 -1.997,-1.997c-13.151,-0 -87.216,-0 -100.367,-0c-0.53,-0 -1.038,0.21 -1.412,0.585c-0.375,0.374 -0.585,0.882 -0.585,1.412l0,42.148c0,1.103 0.894,1.997 1.997,1.997c11.535,0 69.529,0 81.064,0c0.53,0 1.038,0.211 1.412,0.585c0.375,0.374 0.585,0.882 0.585,1.412c0,1.095 0,2.448 0,3.543c0,0.53 -0.21,1.038 -0.585,1.412c-0.374,0.375 -0.882,0.585 -1.412,0.585c-11.535,0 -69.529,0 -81.064,0c-1.103,0 -1.997,0.894 -1.997,1.997c0,3.705 0,11.604 0,15.309c0,1.103 0.894,1.997 1.997,1.997l100.367,-0Z" style="fill:#fff;"/><path d="M365.435,93.675c-0,0.53 0.21,1.037 0.585,1.412c0.374,0.374 0.882,0.585 1.412,0.585l100.367,-0c1.103,-0 1.997,-0.894 1.997,-1.997l-0,-68.988c-0,-0.53 -0.211,-1.038 -0.585,-1.412c-0.374,-0.375 -0.882,-0.585 -1.412,-0.585c-13.151,-0 -87.216,-0 -100.367,-0c-1.103,-0 -1.997,0.894 -1.997,1.997c-0,3.705 -0,11.603 -0,15.309c-0,1.102 0.894,1.997 1.997,1.997c11.535,-0 69.529,-0 81.064,-0c0.53,-0 1.038,0.21 1.412,0.584c0.375,0.375 0.585,0.883 0.585,1.412c0,1.095 0,2.449 0,3.544c0,0.529 -0.21,1.037 -0.585,1.412c-0.374,0.374 -0.882,0.584 -1.412,0.584c-11.535,0 -69.529,0 -81.064,0c-1.103,0 -1.997,0.894 -1.997,1.997c-0,7.585 -0,34.564 -0,42.149Zm21.299,-24.843c-0.529,0 -1.037,0.211 -1.412,0.585c-0.374,0.374 -0.584,0.882 -0.584,1.412c-0,1.095 -0,2.448 -0,3.543c-0,0.53 0.21,1.038 0.584,1.412c0.375,0.375 0.883,0.585 1.412,0.585c9.724,0 52.039,0 61.762,0c0.53,0 1.038,-0.21 1.412,-0.585c0.375,-0.374 0.585,-0.882 0.585,-1.412l0,-3.543c0,-0.53 -0.21,-1.038 -0.585,-1.412c-0.374,-0.374 -0.882,-0.585 -1.412,-0.585c-9.723,0 -52.038,0 -61.762,0Z" style="fill:#fff;"/><path d="M337.595,22.69l-100.367,-0c-1.103,-0 -1.997,0.894 -1.997,1.997c-0,11.713 -0,70.985 -0,70.985c-0,-0 87.92,-0 102.364,-0c1.103,-0 1.997,-0.894 1.997,-1.997c-0,-3.705 -0,-11.604 -0,-15.309c-0,-1.103 -0.894,-1.997 -1.997,-1.997c-11.535,0 -69.53,0 -81.065,0c-0.529,0 -1.037,-0.21 -1.412,-0.585c-0.374,-0.374 -0.585,-0.882 -0.585,-1.412c0,-6.077 0,-24.305 0,-30.383c0,-0.529 0.211,-1.037 0.585,-1.412c0.375,-0.374 0.883,-0.584 1.412,-0.584c11.535,-0 69.53,-0 81.065,-0c1.103,-0 1.997,-0.895 1.997,-1.997c-0,-3.706 -0,-11.604 -0,-15.309c-0,-1.103 -0.894,-1.997 -1.997,-1.997Z" style="fill:#fff;"/><path d="M598.003,22.69l-100.367,-0c-1.103,-0 -1.997,0.894 -1.997,1.997c-0,10.429 -0,58.559 -0,68.988c-0,1.103 0.894,1.997 1.997,1.997c3.705,-0 11.604,-0 15.309,-0c1.103,-0 1.997,-0.894 1.997,-1.997c-0,-8.452 -0,-41.234 -0,-49.686c-0,-0.529 0.21,-1.037 0.585,-1.412c0.374,-0.374 0.882,-0.584 1.412,-0.584c11.535,-0 69.529,-0 81.064,-0c1.103,-0 1.997,-0.895 1.997,-1.997c0,-3.706 0,-11.604 0,-15.309c-0,-1.103 -0.894,-1.997 -1.997,-1.997Z" style="fill:#fff;"/><path d="M231.961,22.69l-99.76,-0c-1.103,-0 -1.997,0.894 -1.997,1.997c0,10.429 0,58.559 0,68.988c0,1.103 0.894,1.997 1.997,1.997c3.705,-0 11.604,-0 15.309,-0c1.103,-0 1.997,-0.894 1.997,-1.997c-0,-8.452 -0,-41.234 -0,-49.686c-0,-1.102 0.894,-1.996 1.997,-1.996c9.459,-0 49.697,-0 59.157,-0c1.103,-0 1.997,0.894 1.997,1.996c-0,8.452 -0,41.234 -0,49.686c-0,1.103 0.894,1.997 1.997,1.997c3.705,-0 11.603,-0 15.309,-0c1.103,-0 1.997,-0.894 1.997,-1.997l-0,-70.985Z" style="fill:#fff;"/><path d="M126.934,2.533c-0,-1.102 -0.894,-1.996 -1.997,-1.996l-15.309,-0c-1.103,-0 -1.997,0.894 -1.997,1.996c0,3.706 0,11.604 0,15.309c0,1.103 0.894,1.997 1.997,1.997c3.705,0 11.604,0 15.309,0c1.103,0 1.997,-0.894 1.997,-1.997c-0,-3.705 -0,-11.603 -0,-15.309Z" style="fill:#fff;"/><path d="M109.628,22.69c-1.103,-0 -1.997,0.894 -1.997,1.997c0,10.429 0,58.559 0,68.988c0,1.103 0.894,1.997 1.997,1.997c3.705,-0 11.604,-0 15.309,-0c1.103,-0 1.997,-0.894 1.997,-1.997c-0,-10.429 -0,-58.559 -0,-68.988c-0,-1.103 -0.894,-1.997 -1.997,-1.997c-3.705,-0 -11.604,-0 -15.309,-0Z" style="fill:#fff;"/></g></svg>