<svg clip-rule="evenodd" fill-rule="evenodd" stroke-linejoin="round" stroke-miterlimit="2" viewBox="0 0 600 143" xmlns="http://www.w3.org/2000/svg"><g fill="#fff"><g fill-rule="nonzero"><path d="m263.12.838h20.423l35.848 33.694v-33.711h19.011v54.373h-19.011s-36.169-31.824-36.095-31.824v31.824h-20.176v-54.356z"/><path d="m341.299.821h19.636v23.952c2.641-2.109 30.199-23.952 30.199-23.952h23.64l-31.857 26.283 32.207 28.09h-23.432l-30.757-26.375v26.375h-19.636v-54.373z"/><path d="m206.4 15.916h53.657v-15.059h-60.526c-2.118 0-14.554 1.769-14.554 17.177 0 15.168 11.115 17.278 14.554 17.278h39.718c2.421 0 2.724 4.456 0 4.456h-54.373v15.426h60.628c2.43 0 14.452-1.082 14.452-17.416 0-16.737-14.746-17.544-14.746-17.544h-38.911c-2.935 0-2.825-4.318.101-4.318"/><path d="m279.517 112.452h1.773c1.654 0 4.487.341 5.653 1.025 1.168.679 1.936 1.44 2.307 2.283.372.844.56 2.702.56 5.573v11.27c0 3.401-3.593 5.133-5.326 5.509-1.737.376-3.426.564-5.074.564-4.745 0-8.839-1.234-12.293-3.704-3.449-2.473-5.948-6.336-7.499-11.605-1.548-5.262-2.319-11.38-2.319-18.367 0-5.764.708-11.386 2.123-16.863 1.417-5.479 3.828-9.747 7.231-12.811 3.404-3.06 7.67-4.591 12.793-4.591 5.363 0 8.498 1.357 12.446 5.459 4.035 4.192 7.907 8.955 10.167 15.949h3.3v-25.677h-1.877c-.677 2.056-1.417 3.452-2.225 4.19-.811.74-1.689 1.108-2.631 1.108-.607 0-2.575-.668-5.893-2.005-3.321-1.338-5.724-2.151-7.207-2.437-2.731-.569-4.853-.857-8.255-.857-10.989 0-20.115 3.777-27.364 11.331-7.25 7.56-10.874 16.813-10.874 27.767 0 6.122 1.178 11.653 3.539 16.594 1.855 3.83 4.427 7.273 7.712 10.338 3.288 3.06 7.085 5.532 11.379 7.413 4.3 1.877 9.705 2.817 16.211 2.817 5.093 0 10.003-.526 14.742-1.578 4.74-1.055 9.296-2.617 13.689-4.685v-15.144c0-2.655.149-4.324.452-5.004.538-1.293 1.303-2.214 2.298-2.772.992-.559 3.7-.923 6.225-1.105v-2.479h-35.777v2.479z"/><path d="m361.757 132.068c-4.078 3.123-9.503 4.683-16.271 4.683h-3.859c-2.067 0-3.56-.282-4.488-.851-.924-.569-1.559-1.296-1.896-2.184-.338-.887-.508-3.318-.508-7.292v-20.341c3.476 0 7.547.453 9.375 1.362 1.824.905 3.428 2.675 4.804 5.307 1.383 2.631 2.287 5.537 2.716 9.661h2.934v-37.434h-2.934c-.573 5.624-1.897 9.4-3.977 12.281-2.076 2.882-5.427 4.323-10.046 4.323h-2.873v-25.111c-.024-4.364 3.866-3.858 3.866-3.858h4.546c5.498 0 9.242.321 11.24.962 3.425 1.064 6.074 2.736 7.95 5.008 1.875 2.276 3.326 6.022 4.363 11.245h2.459v-21.382h-61.162v2.929h1.929c2.349 0 4.203.497 5.554 1.489.962.675 1.623 1.636 1.977 2.878.179.743.269 2.75.269 6.016v45.238c0 3.621-.195 5.858-.589 6.714-.498 1.205-1.211 2.058-2.136 2.555-1.284.747-2.975 1.118-5.075 1.118h-1.929v3.403h62.198l3.737-23.003h-3.414c-1.781 6.403-4.712 11.167-8.791 14.286"/><path d="m409.883 67.311c-10.424-.43-19.208 2.968-26.342 10.198-7.145 7.225-10.709 16.259-10.709 27.091 0 9.649 2.743 17.989 8.236 25.019 6.945 8.894 16.777 13.347 29.497 13.347 12.677 0 22.497-4.664 29.448-13.993 5.245-7.024 7.871-15.169 7.871-24.428 0-10.832-3.52-19.854-10.552-27.066-7.036-7.213-16.179-10.6-27.437-10.168m16.624 57.897c-1.7 5.038-4.081 8.706-7.139 10.996-2.397 1.795-5.386 2.69-8.967 2.69-5.317 0-9.449-2.081-12.41-6.238-4.237-5.952-6.359-15.145-6.359-27.59 0-10.472 1.371-18.501 4.116-24.094 3.37-6.81 8.285-10.216 14.749-10.216 3.509 0 6.609.988 9.302 2.96 2.693 1.971 4.907 5.351 6.646 10.136 1.737 4.789 2.606 12.001 2.606 21.651 0 8.102-.85 14.675-2.555 19.713"/><path d="m178.94 142.546c12.677 0 22.497-4.665 29.448-13.993 5.245-7.03 7.871-15.169 7.871-24.429 0-10.831-3.52-19.853-10.551-27.066-7.036-7.213-16.18-10.6-27.438-10.167-10.423-.43-19.207 2.967-26.341 10.198-7.146 7.225-10.71 16.259-10.71 27.09 0 9.65 2.744 17.989 8.237 25.019 6.944 8.895 16.777 13.348 29.496 13.348m-14.925-61.954c3.37-6.811 8.285-10.217 14.749-10.217 3.509 0 6.609.986 9.302 2.959 2.693 1.972 4.907 5.352 6.646 10.137 1.737 4.788 2.606 12 2.606 21.644 0 8.102-.85 14.675-2.555 19.713-1.7 5.039-4.081 8.705-7.139 11.002-2.397 1.793-5.386 2.689-8.967 2.689-5.317 0-9.449-2.08-12.41-6.238-4.237-5.951-6.359-15.144-6.359-27.59 0-10.472 1.371-18.501 4.116-24.093"/><path d="m142.206 117.204h-3.414c-1.781 6.402-4.713 11.166-8.791 14.285-4.078 3.123-9.503 4.683-16.265 4.683h-3.859c-2.066 0-3.558-.284-4.487-.851-.925-.568-1.559-1.296-1.897-2.184s-.508-3.318-.508-7.292v-20.341c3.475 0 7.547.452 9.375 1.362 1.826.904 3.429 2.675 4.806 5.306 1.381 2.632 2.286 5.537 2.716 9.662h2.934v-37.434h-2.934c-.575 5.622-1.9 9.399-3.978 12.281-2.075 2.882-5.427 4.322-10.046 4.322h-2.875v-25.111c-.024-4.365 3.869-3.858 3.869-3.858h4.542c5.5 0 9.248.32 11.246.961 3.427 1.064 6.077 2.736 7.95 5.008 1.874 2.275 3.328 6.024 4.363 11.246h2.459v-21.401h-61.162v2.948h1.927c2.351 0 4.203.497 5.557 1.489.961.674 1.62 1.635 1.974 2.877.18.744.27 2.75.27 6.016v45.238c0 3.62-.195 5.858-.588 6.707-.498 1.206-1.213 2.061-2.135 2.556-1.284.747-2.975 1.118-5.078 1.118h-1.927v3.404h62.197l3.74-23.003z"/><path d="m24.816 136.758h-1.651c-2.368 0-4.472-.726-6.311-2.18-1.836-1.455-2.755-4.256-2.755-8.407v-43.691l47.328 59 3.068.003v-60.175c0-3.421.284-4.414.849-5.822.564-1.408 1.354-2.424 2.362-3.048 1.009-.623 2.989-1.13 5.932-1.523v-3.062h-23.478v3.062c3.871-.071 6.634.926 8.273 2.994 1.2 1.532 1.8 3.051 1.8 7.401v31.514l-36.844-44.971h-22.418v2.43c2.131.071 2.206.785 3.341 1.387l6.006 6.044-.009 48.454c0 3.832-.756 6.543-2.268 8.139-1.512 1.597-4.194 2.412-8.041 2.448v2.929h24.806v-2.929z"/><path d="m236.455 104.715c0 4.808-3.898 8.703-8.703 8.703-4.809 0-8.704-3.898-8.704-8.703 0-4.809 3.898-8.704 8.704-8.704 4.808 0 8.703 3.898 8.703 8.704z"/></g><path d="m594.958 84.286c-3.404-5.976-8.453-11.401-15.016-14.341-5.272-2.356-12.223-3.473-20.662-3.473l-30.444-.007h-7.42l-.347 2.541c-.2 1.434-.575 1.904-.684 2.015-.246.244-.431.299-.658.305-.166-.021-1.19-.183-4.785-1.584-5.6-2.176-11.016-3.277-16.104-3.277-6.918 0-13.538 1.732-19.679 5.151-6.167 3.434-11.131 8.325-14.752 14.537-3.62 6.202-5.457 12.87-5.457 19.808 0 6.592 1.661 12.891 4.934 18.722 3.306 5.895 8.073 10.478 14.16 13.622 5.99 3.094 12.904 4.661 20.544 4.661 5.855 0 11.081-.978 15.535-2.911 4.438-1.925 8.738-5.045 12.782-9.272l.815-.854v-14.945l-5.171 6.017c-3.654 4.249-7.117 7.252-10.3 8.928-3.084 1.627-6.542 2.449-10.277 2.449-4.472 0-8.113-1.072-10.811-3.184-2.75-2.148-4.82-5.448-6.158-9.801-1.429-4.655-2.153-9.919-2.153-15.644 0-5.722.975-10.969 2.903-15.602 1.416-3.419 3.595-6.106 6.655-8.22 3.038-2.094 6.278-3.114 9.908-3.114 4.374 0 8.183 1.38 11.65 4.226 3.447 2.826 5.853 7.027 7.153 12.482l.537 2.261h7.18v-21.747h2.468c1.676 0 2.557.31 3.001.573.741.438.935.77.979.872.054.179.328 2.867.328 6.997v44.477c0 3.704-.172 4.896-.241 5.221-.209.427-.562.813-1.077 1.12-.325.196-1.146.521-2.99.521h-5.177v7.636h33.153c4.576 0 7.888-.216 10.124-.652 4.805-.909 8.973-2.227 12.366-3.92 3.469-1.726 6.574-4.053 9.228-6.908 2.668-2.874 4.862-6.533 6.516-10.876 1.651-4.319 2.486-9.768 2.486-14.859 0-7.365-1.695-14.075-5.042-19.951zm-69.064 8.553h-1.911c-1.46-6.122-4.177-10.815-8.15-14.075-3.977-3.262-8.483-4.894-13.517-4.894-4.207 0-8.067 1.211-11.577 3.634-3.513 2.425-6.078 5.596-7.703 9.514-2.086 5.014-3.13 10.59-3.13 16.731 0 6.043.761 11.545 2.286 16.509 1.522 4.962 3.908 8.714 7.156 11.255 3.247 2.541 7.455 3.807 12.624 3.807 4.238 0 8.119-.927 11.649-2.787 3.53-1.861 7.246-5.063 11.159-9.614v5.829c-3.785 3.957-7.727 6.826-11.828 8.609-4.098 1.776-8.886 2.667-14.364 2.667-7.204 0-13.602-1.445-19.194-4.332-5.593-2.889-9.908-7.038-12.945-12.451-3.038-5.411-4.555-11.17-4.555-17.28 0-6.441 1.682-12.55 5.052-18.328 3.37-5.775 7.916-10.257 13.641-13.445 5.728-3.186 11.808-4.781 18.251-4.781 4.746 0 9.758 1.026 15.036 3.075 3.057 1.191 4.995 1.786 5.827 1.786 1.061 0 1.983-.387 2.761-1.165.782-.778 1.286-2.008 1.521-3.696h1.911zm68.872 25.209c-1.526 4.005-3.5 7.311-5.923 9.921-2.423 2.607-5.219 4.703-8.385 6.278-3.17 1.58-7.045 2.801-11.621 3.664-2.027.398-5.212.597-9.557.597h-30.211v-1.752h2.235c1.953 0 3.45-.308 4.494-.929 1.041-.621 1.811-1.468 2.308-2.54.298-.702.448-2.816.448-6.333v-44.477c0-3.484-.183-7.245-.545-8.117-.365-.872-1.102-1.634-2.211-2.288s-2.608-.979-4.494-.979h-2.235v-1.754h30.211c8.064 0 14.551 1.098 19.459 3.289 6.007 2.691 10.56 7.666 13.663 13.117 3.103 5.45 4.654 11.613 4.654 18.492 0 4.751-.761 9.806-2.29 13.811z"/><path d="m566.68 74.58c-2.384-1.029-6.339-1.528-11.867-1.495v54.348c0 2.792.132 4.505.398 5.137.262.632.71 1.115 1.34 1.446.892.499 2.184.744 3.873.744 5.526 0 9.746-1.89 12.662-5.681 3.971-5.121 5.958-13.744 5.958-24.519 0-8.678-1.358-15.611-4.071-20.795-2.153-4.058-4.916-7.723-8.293-9.185zm4.079 52.696c-2.354 3.062-5.731 4.546-10.335 4.546-1.643 0-2.284-.288-2.441-.377-.022-.011-.028-.015-.043-.022-.053-.318-.186-1.318-.186-3.99v-51.363c4.369.155 6.618.719 7.756 1.21 2.771 1.201 5.016 4.382 6.864 7.864 2.469 4.724 3.724 11.262 3.724 19.416 0 10.056-1.794 18.149-5.339 22.716z"/></g></svg>