<svg clip-rule="evenodd" fill-rule="evenodd" stroke-linejoin="round" stroke-miterlimit="2" viewBox="0 0 600 601" xmlns="http://www.w3.org/2000/svg"><path d="m0 300.487c0-165.673 134.328-300.001 299.999-300.001 165.672 0 300.001 134.328 300.001 300.001 0 165.672-134.329 299.998-300.001 299.998-165.671 0-299.999-134.326-299.999-299.998zm223.991 82.004-33.051-72.348s-18.316-16.526-50.825-15.359c-7.161.25-66.312.707-70.101 91.702-3.372 81.379 50.868 119.842 50.868 119.842s26.267 19.398 45.706 31.178c19.439 11.821 55.405 28.972 55.405 28.972l-27.974-177.995-60.025 17.983 12.03 2-20.021 16.026 17.981 1.996-11.987 11.989 32.01 1.998 11.987 45.997s-24.392-7.659-44.915-28.055c-16.815-16.734-30.343-44.002-31.093-65.937-.707-21.935 9.573-49.618 40.002-49.992 30.472-.375 84.003 40.003 84.003 40.003zm-15.985 49.992 113.973-156.014 72.012 58.026s-8.993-2.291-9.99-1.997c-.999.249 15.984 23.976 15.984 23.976l-21.978-7.993 11.988 15.983-74.011-25.973-5.994 5.993 47.995 80.008-97.988-3.996 53.991 103.981-19.983-3.997 9.408 23.52-16.9-14.696 13.486 25.185zm141.985 19.981-1.997 72.013 32.011 26.016 56.361-11.863 93.618-82.128 5.994-102.027h-107.978zm28.016 26.016 5.994-9.991 17.982-7.991 14.028 17.982h11.989l15.984-5.995 11.989 25.975-29.971 14.028h-14.028l-5.995-11.988h-19.979zm103.981-53.988s7.285-3.248 7.994-1.999c.706 1.207 9.99 1.999 9.99 1.999v9.99l-7.993 5.993-9.991-5.993zm-41.999-9.992-7.994-12.029 7.994-15.985 20.022-1.998 5.995 11.988-5.995 16.027zm-34.01-311.986-47.994 69.972 34.008 74.011 59.982 76.011 45.998 15.983 58.027-70.014-7.993-59.983-60.023-84.003zm-345.955 217.954 5.994-159.971 19.982-24.018 78.007 58.028 19.982-118.51 3.996 34.509 10.03-18.025 1.998 16.027 13.987-18.025 2.331 210.337-112.309-86.333s-43.998 104.981-43.998 105.981zm264.274-88.084c2.697-.885 18.701-.58 18.701-.58l-10.989 6.702h18.981l-114.97 81.962-2.04-239.974 135.368-38.005s-27.349 16.024-25.35 16.024c1.997 0 17.982 1.999 17.982 1.999l-31.97 19.982 35.966-1.998-95.99 55.984v3.998l104.024-5.995-104.024 74.013v21.977l78.341-9.657s-21.059 11.97-24.03 13.568c-.122.04-.217.082-.281.127-.15.098-.04.046.281-.127zm125.68 42.086c6.786 4.331 13.987 4.246 20.981 4.163 11.698-.125 22.934-3.788 31.009-13.154 6.537-9.489 6.704-15.403 10.533-26.14 2.248-6.287 4.995-9.866 4.995-9.866s2.248 8.492 1.998 18.522c-.167 6.704-1.373 13.779-5.495 20.482-7.992 13.029-15.526 18.023-21.019 19.022-5.496.998-20.981 2.997-30.973-1.498-7.824-3.538-12.029-11.531-12.029-11.531zm-33.967-65.976c-5.287-1.168-10.032-5.995-10.032-5.995l1.999-5.994 6.035-3.996s5.995.499 7.992 1.998c1.999 1.499 3.997 7.992 3.997 7.992l-4.496 3.997s-.999 2.996-5.495 1.998zm33.967-34.009 8.034-11.99h9.992s8.491 12.488 8.491 14.488c0 1.998-6.494 11.529-6.494 11.529l-13.031-.498z" fill="#fff"/></svg>