<svg clip-rule="evenodd" fill-rule="evenodd" stroke-linejoin="round" stroke-miterlimit="2" viewBox="0 0 600 171" xmlns="http://www.w3.org/2000/svg"><g fill="#fff"><g fill-rule="nonzero"><path d="m41.664 123.168h-5.747l-30.023-43.173v43.173h-5.894v-52.014h7.22l28.585 41.257v-41.257h5.859z"/><path d="m76.291 123.168h-29.028l-.112-52.014h29.028v5.879h-23.189v16.462h21.672v5.835h-21.672v18.962h23.235z"/><path d="m106.017 69.673c-15.079 0-27.488 12.408-27.488 27.488 0 15.079 12.409 27.488 27.488 27.488 15.08 0 27.488-12.409 27.488-27.488 0-15.08-12.408-27.488-27.488-27.488zm.073 6.048h.001c11.802 0 21.513 9.711 21.513 21.513v.001c0 11.802-9.712 21.513-21.514 21.513s-21.513-9.712-21.513-21.513c0-11.802 9.711-21.514 21.513-21.514z"/><path d="m253.365 69.673c-15.08 0-27.488 12.408-27.488 27.488 0 15.079 12.408 27.488 27.488 27.488 15.079 0 27.488-12.409 27.488-27.488 0-15.08-12.409-27.488-27.488-27.488zm.073 6.048c11.802 0 21.514 9.711 21.514 21.513v.001c0 11.802-9.712 21.513-21.514 21.513s-21.513-9.712-21.513-21.513c-.001-11.802 9.711-21.514 21.513-21.514z"/><path d="m164.305 69.394c-2.937.042-5.91.557-8.811 1.587-13.26 4.709-20.909 18.711-17.753 32.458s16.151 22.978 30.128 21.381 24.567-14.665 24.567-26.688h-6.52c0 9.086-8.065 18.984-18.788 20.209-10.722 1.225-20.601-5.783-23.029-16.362-2.429-10.579 3.404-21.239 13.58-24.852 9.099-3.231 19.004.106 24.383 7.824h7.541c-4.627-9.469-14.043-15.233-24.043-15.547-.417-.013-.836-.016-1.255-.01z"/><path d="m192.437 98.131h-36.402v5.887h31.882z"/><path d="m224.817 123.168h-29.027l-.112-52.014h29.027v5.879h-23.188v16.462h21.671v5.835h-21.671v18.962h23.234z"/><path d="m374.19 69.673c-15.079 0-27.488 12.408-27.488 27.488 0 15.079 12.409 27.488 27.488 27.488 15.079 0 27.488-12.409 27.488-27.488 0-15.08-12.409-27.488-27.488-27.488zm.073 6.048c11.803 0 21.514 9.711 21.514 21.513v.001c0 11.802-9.712 21.513-21.514 21.513s-21.513-9.712-21.513-21.513c0-11.802 9.711-21.514 21.513-21.514z"/><path d="m434.835 69.393v.001c-2.937.042-5.909.557-8.81 1.587-13.261 4.709-20.909 18.711-17.754 32.458 3.156 13.747 16.152 22.978 30.129 21.381 9.732-1.112 17.817-7.788 21.833-15.797h-7.455c-3.364 4.832-8.776 8.593-15.119 9.318-10.722 1.225-20.601-5.783-23.03-16.362-2.428-10.579 3.405-21.239 13.581-24.852 9.099-3.231 19.004.106 24.382 7.824h7.542c-4.627-9.469-14.043-15.233-24.043-15.547-.418-.013-.836-.016-1.256-.011z"/><path d="m548.393 123.168h-29.028l-.112-52.014h29.028v5.879h-23.189v16.462h21.672v5.835h-21.672v18.962h23.235z"/><path d="m466.909 71.154h5.929v52.014h-5.929z"/><path d="m502.161 123.168h7.81l-26.965-27.996-4.863 3.683z"/><path d="m502.014 71.154h7.662l-39.931 41.405 1.62-10.757z"/><path d="m557.564 71.154h42.436v5.879h-42.436z"/><path d="m575.688 71.154h6.006v52.014h-6.006z"/><path d="m298.559 72.933 7.445-21.46 19.768.059.169 9.621-13.047-.105-2.665 9.877 13.396 9.691c6.602-2.713 11.315-8.613 12.284-15.38s-1.961-13.318-7.636-17.075c-5.676-3.758-13.16-4.005-19.555-.832l-21.514 10.677 32.422 65.335-8.447 4.192-36.811-74.178 30.621-15.196c10.031-4.978 21.968-3.771 30.495 3.083s12.059 18.079 9.022 28.678-12.473 18.466-22.506 21.625z"/><path d="m323.261.14-3.439 25.527 6.46 1.25 9.065-25.006-12.086-1.771z"/><path d="m348.579 8.163-12.711 22.088 5.626 3.751 16.045-19.483z"/><path d="m365.562 23.479-18.442 16.462 4.272 6.356 20.317-12.712z"/><path d="m211.525 137.533v.001c-1.758.025-3.536.333-5.272.95-7.935 2.817-12.511 11.196-10.623 19.421 1.888 8.226 9.664 13.749 18.027 12.794 5.824-.666 10.661-4.66 13.065-9.453h-4.461c-2.013 2.892-5.251 5.142-9.047 5.576-6.415.733-12.327-3.46-13.78-9.79-1.453-6.331 2.037-12.709 8.126-14.871 5.445-1.933 11.371.064 14.59 4.682h4.512c-2.768-5.666-8.402-9.115-14.386-9.303-.25-.008-.5-.008-.751-.005z"/><path d="m264.665 138.05c-9.023 0-16.448 7.425-16.448 16.448 0 9.023 7.425 16.448 16.448 16.448 9.023 0 16.447-7.425 16.447-16.448 0-9.023-7.424-16.448-16.447-16.448zm.043 3.619h.001c7.062 0 12.873 5.811 12.873 12.873-.001 7.062-5.812 12.873-12.874 12.873-7.061 0-12.872-5.811-12.872-12.873 0-7.061 5.811-12.873 12.872-12.873z"/></g><path d="m304.88 138.623h3.46v31.123h-3.46z"/><path d="m304.88 166.828h17.329v2.917h-17.329z"/><path d="m356.125 138.05c-9.023 0-16.447 7.425-16.447 16.448 0 9.023 7.424 16.448 16.447 16.448 9.023 0 16.448-7.425 16.448-16.448 0-9.023-7.425-16.448-16.448-16.448zm.044 3.619c7.062 0 12.873 5.811 12.873 12.873 0 7.062-5.811 12.873-12.873 12.873s-12.872-5.811-12.873-12.873c0-7.061 5.811-12.873 12.873-12.873z" fill-rule="nonzero"/><path d="m395.262 138.623h3.46v31.123h-3.46z" fill-rule="nonzero"/><path d="m407.402 159.277c5.167-1.228 8.596-6.129 7.978-11.404-.618-5.274-5.088-9.25-10.398-9.25h-9.72l1.935 3.481h7.738c2.483 0 4.777 1.324 6.018 3.474s1.241 4.799 0 6.949-3.535 3.474-6.018 3.474h-7.674l-.129 3.746h5.841l7.347 9.999h4.476z" fill-rule="nonzero"/></g></svg>