<svg clip-rule="evenodd" fill-rule="evenodd" stroke-linejoin="round" stroke-miterlimit="2" viewBox="0 0 600 172" xmlns="http://www.w3.org/2000/svg"><g fill="#fff"><g fill-rule="nonzero"><path d="m41.664 123.343h-5.747l-30.023-43.173v43.173h-5.894v-52.013h7.22l28.585 41.257v-41.257h5.859z"/><path d="m76.291 123.343h-29.028l-.112-52.013h29.028v5.879h-23.189v16.462h21.672v5.834h-21.672v18.963h23.235z"/><path d="m106.017 69.849c-15.079 0-27.488 12.408-27.488 27.487 0 15.08 12.409 27.488 27.488 27.488 15.08 0 27.488-12.408 27.488-27.488 0-15.079-12.408-27.487-27.488-27.487zm.073 6.047h.001c11.802 0 21.513 9.712 21.513 21.514v.001c0 11.802-9.712 21.513-21.514 21.513-11.802-.001-21.513-9.712-21.513-21.513 0-11.803 9.711-21.514 21.513-21.515z"/><path d="m253.365 69.849c-15.08 0-27.488 12.408-27.488 27.487 0 15.08 12.408 27.488 27.488 27.488 15.079 0 27.488-12.408 27.488-27.488 0-15.079-12.409-27.487-27.488-27.487zm.073 6.047c11.802 0 21.514 9.712 21.514 21.514v.001c0 11.802-9.712 21.513-21.514 21.513-11.802-.001-21.513-9.712-21.513-21.513-.001-11.803 9.711-21.514 21.513-21.515z"/><path d="m164.305 69.569c-2.937.043-5.91.558-8.811 1.588-13.26 4.709-20.909 18.71-17.753 32.457s16.151 22.978 30.128 21.381 24.567-14.665 24.567-26.688h-6.52c0 9.087-8.065 18.985-18.788 20.21-10.722 1.225-20.601-5.783-23.029-16.362-2.429-10.58 3.404-21.239 13.58-24.852 9.099-3.232 19.004.105 24.383 7.824h7.541c-4.627-9.47-14.043-15.234-24.043-15.547-.417-.014-.836-.017-1.255-.011z"/><path d="m192.437 98.307h-36.402v5.887h31.882z"/><path d="m224.817 123.343h-29.027l-.112-52.013h29.027v5.879h-23.188v16.462h21.671v5.834h-21.671v18.963h23.234z"/><path d="m374.19 69.849c-15.079 0-27.488 12.408-27.488 27.487 0 15.08 12.409 27.488 27.488 27.488 15.079 0 27.488-12.408 27.488-27.488 0-15.079-12.409-27.487-27.488-27.487zm.073 6.047c11.803 0 21.514 9.712 21.514 21.514v.001c0 11.802-9.712 21.513-21.514 21.513-11.802-.001-21.513-9.712-21.513-21.513 0-11.803 9.711-21.514 21.513-21.515z"/><path d="m434.835 69.568v.001c-2.937.043-5.909.558-8.81 1.588-13.261 4.709-20.909 18.71-17.754 32.457 3.156 13.748 16.152 22.978 30.129 21.381 9.732-1.112 17.817-7.787 21.833-15.797h-7.455c-3.364 4.832-8.776 8.594-15.119 9.319-10.722 1.225-20.601-5.783-23.03-16.362-2.428-10.58 3.405-21.239 13.581-24.852 9.099-3.232 19.004.105 24.382 7.824h7.542c-4.627-9.47-14.043-15.234-24.043-15.547-.418-.014-.836-.016-1.256-.012z"/><path d="m548.393 123.343h-29.028l-.112-52.013h29.028v5.879h-23.189v16.462h21.672v5.834h-21.672v18.963h23.235z"/><path d="m466.909 71.33h5.929v52.014h-5.929z"/><path d="m502.161 123.343h7.81l-26.965-27.996-4.863 3.684z"/><path d="m502.014 71.33h7.662l-39.931 41.404 1.62-10.756z"/><path d="m557.564 71.33h42.436v5.879h-42.436z"/><path d="m575.688 71.33h6.006v52.014h-6.006z"/><path d="m298.559 73.108 7.445-21.46 19.768.06.169 9.621-13.047-.105-2.665 9.876 13.396 9.691c6.602-2.712 11.315-8.612 12.284-15.379s-1.961-13.318-7.636-17.076c-5.676-3.758-13.16-4.005-19.555-.831l-21.514 10.677 32.422 65.334-8.447 4.192-36.811-74.178 30.621-15.196c10.031-4.977 21.968-3.771 30.495 3.083s12.059 18.08 9.022 28.679-12.473 18.465-22.506 21.625z"/><path d="m323.261.316-3.439 25.527 6.46 1.25 9.065-25.006z"/><path d="m348.579 8.339-12.711 22.088 5.626 3.751 16.045-19.484z"/><path d="m365.562 23.655-18.442 16.462 4.272 6.355 20.317-12.711z"/><path d="m211.525 137.709v.001c-1.758.024-3.536.333-5.272.949-7.935 2.818-12.511 11.196-10.623 19.422s9.664 13.749 18.027 12.793c5.824-.665 10.661-4.659 13.065-9.452h-4.461c-2.013 2.891-5.251 5.142-9.047 5.576-6.415.733-12.327-3.46-13.78-9.791-1.453-6.33 2.037-12.708 8.126-14.87 5.445-1.933 11.371.063 14.59 4.682h4.512c-2.768-5.667-8.402-9.116-14.386-9.303-.25-.008-.5-.008-.751-.006z"/><path d="m264.665 138.226c-9.023 0-16.448 7.425-16.448 16.448 0 9.023 7.425 16.447 16.448 16.447 9.023 0 16.447-7.424 16.447-16.447 0-9.023-7.424-16.448-16.447-16.448zm.043 3.619h.001c7.062 0 12.873 5.811 12.873 12.873-.001 7.062-5.812 12.873-12.874 12.873-7.061-.001-12.872-5.811-12.872-12.873s5.811-12.873 12.872-12.873z"/></g><path d="m304.88 138.798h3.46v31.123h-3.46z"/><path d="m304.88 167.004h17.329v2.917h-17.329z"/><path d="m356.125 138.226c-9.023 0-16.447 7.425-16.447 16.448 0 9.023 7.424 16.447 16.447 16.447 9.023 0 16.448-7.424 16.448-16.447 0-9.023-7.425-16.448-16.448-16.448zm.044 3.619c7.062 0 12.873 5.811 12.873 12.873 0 7.062-5.811 12.873-12.873 12.873-7.062-.001-12.872-5.811-12.873-12.873 0-7.062 5.811-12.873 12.873-12.873z" fill-rule="nonzero"/><path d="m395.262 138.798h3.46v31.123h-3.46z" fill-rule="nonzero"/><path d="m407.402 159.453c5.167-1.228 8.596-6.13 7.978-11.404-.618-5.275-5.088-9.251-10.398-9.251h-9.72l1.935 3.482h7.738c2.483 0 4.777 1.324 6.018 3.474s1.241 4.799 0 6.949-3.535 3.474-6.018 3.474h-7.674l-.129 3.745h5.841l7.347 9.999h4.476z" fill-rule="nonzero"/></g></svg>