<?xml version="1.0" encoding="UTF-8" standalone="no"?><!DOCTYPE svg PUBLIC "-//W3C//DTD SVG 1.1//EN" "http://www.w3.org/Graphics/SVG/1.1/DTD/svg11.dtd"><svg width="100%" height="100%" viewBox="0 0 600 601" version="1.1" xmlns="http://www.w3.org/2000/svg" xmlns:xlink="http://www.w3.org/1999/xlink" xml:space="preserve" xmlns:serif="http://www.serif.com/" style="fill-rule:evenodd;clip-rule:evenodd;stroke-linejoin:round;stroke-miterlimit:2;"><g id="snk_neogeo_circle"><path d="M-0,300.487c-0,-165.673 134.328,-300.001 299.999,-300.001c165.672,0 300.001,134.328 300.001,300.001c-0,165.672 -134.329,299.998 -300.001,299.998c-165.671,0 -299.999,-134.326 -299.999,-299.998Zm223.991,82.004l-33.051,-72.348c-0,0 -18.316,-16.526 -50.825,-15.359c-7.161,0.25 -66.312,0.707 -70.101,91.702c-3.372,81.379 50.868,119.842 50.868,119.842c0,-0 26.267,19.398 45.706,31.178c19.439,11.821 55.405,28.972 55.405,28.972l-27.974,-177.995l-60.025,17.983l12.03,2l-20.021,16.026l17.981,1.996l-11.987,11.989l32.01,1.998l11.987,45.997c0,-0 -24.392,-7.659 -44.915,-28.055c-16.815,-16.734 -30.343,-44.002 -31.093,-65.937c-0.707,-21.935 9.573,-49.618 40.002,-49.992c30.472,-0.375 84.003,40.003 84.003,40.003Zm-15.985,49.992l113.973,-156.014l72.012,58.026c-0,0 -8.993,-2.291 -9.99,-1.997c-0.999,0.249 15.984,23.976 15.984,23.976l-21.978,-7.993l11.988,15.983l-74.011,-25.973l-5.994,5.993l47.995,80.008l-97.988,-3.996l53.991,103.981l-19.983,-3.997l9.408,23.52l-16.9,-14.696l13.486,25.185l-91.993,-122.006Zm141.985,19.981l-1.997,72.013l32.011,26.016l56.361,-11.863l93.618,-82.128l5.994,-102.027l-107.978,-0l-78.009,97.989Zm28.016,26.016l5.994,-9.991l17.982,-7.991l14.028,17.982l11.989,-0l15.984,-5.995l11.989,25.975l-29.971,14.028l-14.028,-0l-5.995,-11.988l-19.979,0l-7.993,-22.02Zm103.981,-53.988c0,0 7.285,-3.248 7.994,-1.999c0.706,1.207 9.99,1.999 9.99,1.999l-0,9.99l-7.993,5.993l-9.991,-5.993l0,-9.99Zm-41.999,-9.992l-7.994,-12.029l7.994,-15.985l20.022,-1.998l5.995,11.988l-5.995,16.027l-20.022,1.997Zm-34.01,-311.986l-47.994,69.972l34.008,74.011l59.982,76.011l45.998,15.983l58.027,-70.014l-7.993,-59.983l-60.023,-84.003l-82.005,-21.977Zm-345.955,217.954l5.994,-159.971l19.982,-24.018l78.007,58.028l19.982,-118.51l3.996,34.509l10.03,-18.025l1.998,16.027l13.987,-18.025l2.331,210.337l-112.309,-86.333c0,-0 -43.998,104.981 -43.998,105.981Zm264.274,-88.084c2.697,-0.885 18.701,-0.58 18.701,-0.58l-10.989,6.702l18.981,-0l-114.97,81.962l-2.04,-239.974l135.368,-38.005c0,-0 -27.349,16.024 -25.35,16.024c1.997,0 17.982,1.999 17.982,1.999l-31.97,19.982l35.966,-1.998l-95.99,55.984l0,3.998l104.024,-5.995l-104.024,74.013l0,21.977l78.341,-9.657c0,-0 -21.059,11.97 -24.03,13.568c-0.122,0.04 -0.217,0.082 -0.281,0.127c-0.15,0.098 -0.04,0.046 0.281,-0.127Zm125.68,42.086c6.786,4.331 13.987,4.246 20.981,4.163c11.698,-0.125 22.934,-3.788 31.009,-13.154c6.537,-9.489 6.704,-15.403 10.533,-26.14c2.248,-6.287 4.995,-9.866 4.995,-9.866c-0,0 2.248,8.492 1.998,18.522c-0.167,6.704 -1.373,13.779 -5.495,20.482c-7.992,13.029 -15.526,18.023 -21.019,19.022c-5.496,0.998 -20.981,2.997 -30.973,-1.498c-7.824,-3.538 -12.029,-11.531 -12.029,-11.531Zm-33.967,-65.976c-5.287,-1.168 -10.032,-5.995 -10.032,-5.995l1.999,-5.994l6.035,-3.996c0,0 5.995,0.499 7.992,1.998c1.999,1.499 3.997,7.992 3.997,7.992l-4.496,3.997c0,-0 -0.999,2.996 -5.495,1.998Zm33.967,-34.009l8.034,-11.99l9.992,0c0,0 8.491,12.488 8.491,14.488c-0,1.998 -6.494,11.529 -6.494,11.529l-13.031,-0.498l-6.992,-13.529Z" style="fill:#fff;"/></g></svg>