<svg clip-rule="evenodd" fill-rule="evenodd" stroke-linejoin="round" stroke-miterlimit="2" viewBox="0 0 600 107" xmlns="http://www.w3.org/2000/svg"><path d="m213.5 106.282c-21.638-.051-41.709-6.565-55.124-18.606-10.175-9.132-15.064-21.537-15.064-34.305 0-12.612 5.1-25.102 15.063-34.186 12.507-11.399 34.589-18.538 55.379-18.538 23.007 0 41.422 5.795 55.499 18.569 10.016 9.089 14.858 21.524 14.858 34.157 0 12.244-5.139 25.284-14.858 34.303-13.057 12.119-33.548 18.556-55.243 18.606h-.256zm-158.608-105.584h.002-.002c-11.625 0-24.833 2.175-36.056 7.187-10.358 4.621-18.836 12.096-18.836 24.488-.005 11.16 7.088 17.696 6.895 17.515 3.017 2.777 7.874 7.506 20.571 10.283 5.675 1.241 17.807 3.147 29.889 4.41 11.993 1.265 23.796 2.467 28.603 3.684 3.819.973 10.235 2.297 10.235 9.494 0 7.169-6.759 9.357-7.934 9.832-1.173.463-9.282 4.184-23.858 4.184-10.761 0-23.699-3.236-28.414-4.923-5.436-1.935-11.139-4.494-16.458-10.991-1.323-1.611-3.41-6.041-3.41-10.428h-13.191v36.964h14.662v-4.994c0-.569.711-2.908 3.173-1.796 3.062 1.392 12.053 4.972 21.453 6.934 7.707 1.612 12.677 2.768 22.259 2.768 15.633 0 24.032-2.547 29.838-4.205 5.47-1.566 12.229-4.378 17.72-8.757 2.973-2.367 9.494-8.436 9.494-19.452 0-10.573-5.675-17.136-7.672-19.132-2.719-2.721-6.041-4.829-9.502-6.454-3.016-1.42-7.775-3.124-11.669-4.077-7.557-1.856-24.647-4.145-32.819-5-8.57-.896-23.436-2.127-29.373-3.964-1.8-.558-5.47-2.306-5.47-6.567 0-3.03 1.678-5.598 4.995-7.674 5.265-3.299 15.9-5.35 26.985-5.35 13.106-.048 24.205 2.949 31.265 6.105 2.402 1.072 5.211 2.612 7.443 4.434 2.518 2.053 6.053 6.319 7.331 12.27h11.843v-32.176h-13.224v3.74c0 1.207-1.247 2.776-3.605 1.479-5.918-3.105-22.65-9.803-43.163-9.831zm289.802 5.847 64.508 58.217-.662-39.197c-.065-5.139-1.012-7.285-6.571-7.285h-12.129v-11.726h55.156v11.726h-11.831c-5.67 0-6.028 1.813-6.096 7.285l1 74.896h-18.889l-74.302-66.314.016 47.063c.065 5.116.305 7.525 5.576 7.525h13.247v11.721h-54.169v-11.72h12.663c4.73 0 4.542-4.509 4.542-7.792v-54.933c0-3.546-.498-7.723-7.924-7.723h-10.275v-11.743h46.14zm163.33 82.169c.519-.001 2.819-.067 3.265-.203 1.135-.343 2.063-1.167 2.538-2.253.168-.397.253-2.157.253-2.538l.009-18.531c0-.445-.032-.638-.789-1.631-.831-1.084-33.789-38.434-35.298-40.078-1.873-2.042-5.162-5.199-10.16-5.199h-11.461v-11.73h64.683v11.716h-7.798c-1.803 0-3.002 1.71-1.461 3.612 0 0 21.762 26.032 21.968 26.304.203.278.376.344.654.091.272-.259 22.308-26.157 22.481-26.362 1.049-1.255.338-3.632-1.921-3.632h-7.999v-11.729h53.012v11.729h-11.843c-4.297 0-6.045.795-9.277 4.449-1.479 1.672-34.788 39.693-35.694 40.723-.475.539-.434 1.289-.434 1.735v18.528c0 .376.084 2.137.253 2.532.474 1.088 1.405 1.913 2.542 2.253.446.138 2.716.205 3.233.205h12.114v11.728h-64.349v-11.729zm-294.135 3.635-.135.001v.001c-11.448 0-22.373-4.072-29.759-11.419-7.067-7.031-10.85-16.991-10.85-27.561 0-10.602 3.739-20.568 10.85-27.614 7.38-7.305 18.344-11.35 29.759-11.35 11.381 0 22.338 4.087 29.711 11.35 7.149 7.048 10.88 16.985 10.88 27.614 0 11.096-3.458 20.174-10.88 27.559-7.444 7.408-18.091 11.389-29.576 11.419z" fill="#fff"/></svg>