<svg clip-rule="evenodd" fill-rule="evenodd" stroke-linejoin="round" stroke-miterlimit="2" viewBox="0 0 600 64" xmlns="http://www.w3.org/2000/svg"><g fill="#fff"><g fill-rule="nonzero"><path d="m77.801.753c-5.332 0-9.625 4.292-9.625 9.624v36.094c0 5.332 4.293 9.624 9.625 9.624h12.833v7.219h12.031v-7.219h13.635c5.333 0 9.625-4.292 9.625-9.624v-36.094c0-5.332-4.292-9.624-9.625-9.624h-38.499zm2.406 9.624h32.885v35.292h-10.427v-5.615h-12.031v5.615h-10.427z"/><path d="m11.229.753c-5.332 0-9.625 4.292-9.625 9.624v12.834c0 5.332 4.293 9.624 9.625 9.624h36.895v12.834h-48.124v.802c0 5.332 4.293 9.624 9.625 9.624h39.301c5.333 0 9.625-4.292 9.625-9.624v-14.438c0-5.332-4.292-9.625-9.625-9.625h-36.895v-12.031h34.489v4.813h11.229v-4.813c0-5.332-4.293-9.624-9.625-9.624h-36.895z"/><path d="m135.55.753v45.718c0 5.332 4.293 9.624 9.625 9.624h34.489c5.332 0 9.625-4.292 9.625-9.624v-45.718h-12.031v44.916h-29.677v-44.916z"/><path d="m219.367 1.555-27.672 54.54h12.031l6.116-12.031h31.08l6.116 12.031h12.031l-27.671-54.54-.401-.802h-11.229zm6.015 11.855 10.678 21.03h-21.355z"/><path d="m264.684.753v55.342h12.031v-20.853h7.619l20.052 20.853h16.042l-20.052-20.853h6.015c5.332 0 9.625-4.293 9.625-9.625v-15.24c0-5.332-4.293-9.624-9.625-9.624h-41.707zm12.031 9.624h24.062c1.777 0 3.208 1.431 3.208 3.209v8.822c0 1.778-1.431 3.209-3.208 3.209h-24.062z"/><path d="m326.443.753v55.342h46.52v-10.426h-34.489v-35.292h34.489v-9.624h-46.52z"/></g><path d="m348.901 22.408h20.052v10.427h-20.052z"/><path d="m398.63.753v55.342h46.52v-10.426h-34.489v-35.292h34.489v-9.624h-46.52z" fill-rule="nonzero"/><path d="m421.088 22.408h20.052v10.427h-20.052z"/><path d="m454.775.753v55.342h11.229v-39.15l28.874 34.439.802.953 3.159 3.758h8.07v-55.342h-12.031v37.246l-28.874-34.439-2.356-2.807h-8.873z" fill-rule="nonzero"/><path d="m516.534.753h12.833v55.343h-12.833z"/><path d="m535.734.753 24.087 26.744-24.238 28.598h14.438l17.244-20.327 18.298 20.327h14.437l-25.742-28.598 22.684-26.744h-14.438l-15.691 18.498-16.642-18.498z" fill-rule="nonzero"/></g></svg>