<?xml version="1.0" encoding="UTF-8" standalone="no"?><!DOCTYPE svg PUBLIC "-//W3C//DTD SVG 1.1//EN" "http://www.w3.org/Graphics/SVG/1.1/DTD/svg11.dtd"><svg width="100%" height="100%" viewBox="0 0 600 190" version="1.1" xmlns="http://www.w3.org/2000/svg" xmlns:xlink="http://www.w3.org/1999/xlink" xml:space="preserve" xmlns:serif="http://www.serif.com/" style="fill-rule:evenodd;clip-rule:evenodd;stroke-linejoin:round;stroke-miterlimit:2;"><g id="steam"><path d="M94.478,0c-49.802,0 -90.601,38.401 -94.478,87.202l50.813,21.009c4.306,-2.945 9.507,-4.67 15.103,-4.67c0.502,-0 1.001,0.017 1.496,0.045l22.597,-32.754c0,-0.156 -0.002,-0.308 -0.002,-0.462c-0,-19.715 16.037,-35.754 35.754,-35.754c19.714,-0 35.751,16.039 35.751,35.754c0,19.714 -16.037,35.755 -35.751,35.755c-0.272,0 -0.542,-0.006 -0.813,-0.012l-32.228,22.995c0.017,0.418 0.032,0.845 0.032,1.269c0,14.8 -12.038,26.836 -26.836,26.836c-12.989,0 -23.851,-9.271 -26.311,-21.549l-36.339,-15.023c11.252,39.793 47.811,68.968 91.212,68.968c52.36,-0 94.805,-42.447 94.805,-94.801c-0,-52.363 -42.447,-94.808 -94.805,-94.808" style="fill:#fff;fill-rule:nonzero;"/><path d="M59.41,143.851l-11.646,-4.811c2.064,4.296 5.634,7.895 10.375,9.871c10.248,4.269 22.063,-0.594 26.334,-10.851c2.069,-4.959 2.081,-10.435 0.03,-15.407c-2.046,-4.974 -5.908,-8.853 -10.874,-10.923c-4.927,-2.051 -10.205,-1.976 -14.843,-0.225l12.029,4.974c7.559,3.15 11.134,11.83 7.983,19.389c-3.144,7.561 -11.83,11.135 -19.388,7.983" style="fill:#fff;fill-rule:nonzero;"/><path d="M149.582,70.37c-0,-13.136 -10.686,-23.823 -23.823,-23.823c-13.136,-0 -23.823,10.687 -23.823,23.823c-0,13.137 10.687,23.82 23.823,23.82c13.137,-0.002 23.823,-10.685 23.823,-23.82m-41.68,-0.041c0,-9.884 8.013,-17.895 17.897,-17.895c9.884,-0 17.898,8.011 17.898,17.895c-0,9.884 -8.014,17.895 -17.898,17.895c-9.884,-0 -17.897,-8.013 -17.897,-17.895" style="fill:#fff;fill-rule:nonzero;"/><path d="M290.531,64.866l-6.353,11.166c-4.892,-3.419 -11.523,-5.476 -17.312,-5.476c-6.616,-0 -10.709,2.739 -10.709,7.644c0,5.961 7.272,7.347 18.079,11.226c11.618,4.109 18.296,8.937 18.296,19.578c0,14.558 -11.448,22.734 -27.903,22.734c-8.02,-0 -17.694,-2.07 -25.13,-6.594l4.633,-12.379c6.041,3.191 13.268,5.083 19.71,5.083c8.684,0 12.812,-3.204 12.812,-7.94c-0,-5.42 -6.294,-7.049 -16.455,-10.413c-11.579,-3.867 -19.603,-8.939 -19.603,-20.716c-0,-13.281 10.636,-20.908 25.94,-20.908c10.667,-0 19.239,3.38 23.995,6.995" style="fill:#fff;fill-rule:nonzero;"/><path d="M340.187,71.923l-0,58.591l-14.957,0l-0,-58.591l-21.71,0l0,-12.828l58.312,-0l0,12.828l-21.645,0Z" style="fill:#fff;fill-rule:nonzero;"/><path d="M393.362,71.885l0,16.092l28.624,0l-0,12.829l-28.624,0l0,16.762l33.21,-0l-0,12.946l-48.163,0l0,-71.419l48.163,-0l-0,12.79l-33.21,-0Z" style="fill:#fff;fill-rule:nonzero;"/><path d="M459.955,116.648l-4.727,13.868l-15.679,0l26.778,-71.419l15.055,-0l27.535,71.417l-16.208,0l-4.831,-13.868l-27.923,0l0,0.002Zm13.815,-40.516l-9.753,28.596l19.708,0l-9.955,-28.596Z" style="fill:#fff;fill-rule:nonzero;"/><path d="M585.677,86.7l-19.545,41.733l-8.439,0l-19.229,-41.36l0,43.441l-14.322,0l-0,-71.419l14.29,-0l24.003,51.555l23.15,-51.555l14.415,-0l-0,71.419l-14.32,0l-0.003,-43.814Z" style="fill:#fff;fill-rule:nonzero;"/></g></svg>