<svg clip-rule="evenodd" fill-rule="evenodd" stroke-linejoin="round" stroke-miterlimit="2" viewBox="0 0 600 190" xmlns="http://www.w3.org/2000/svg"><g fill="#fff" fill-rule="nonzero"><path d="m94.478 0c-49.802 0-90.601 38.401-94.478 87.202l50.813 21.009c4.306-2.945 9.507-4.67 15.103-4.67.502 0 1.001.017 1.496.045l22.597-32.754c0-.156-.002-.308-.002-.462 0-19.715 16.037-35.754 35.754-35.754 19.714 0 35.751 16.039 35.751 35.754 0 19.714-16.037 35.755-35.751 35.755-.272 0-.542-.006-.813-.012l-32.228 22.995c.017.418.032.845.032 1.269 0 14.8-12.038 26.836-26.836 26.836-12.989 0-23.851-9.271-26.311-21.549l-36.339-15.023c11.252 39.793 47.811 68.968 91.212 68.968 52.36 0 94.805-42.447 94.805-94.801 0-52.363-42.447-94.808-94.805-94.808"/><path d="m59.41 143.851-11.646-4.811c2.064 4.296 5.634 7.895 10.375 9.871 10.248 4.269 22.063-.594 26.334-10.851 2.069-4.959 2.081-10.435.03-15.407-2.046-4.974-5.908-8.853-10.874-10.923-4.927-2.051-10.205-1.976-14.843-.225l12.029 4.974c7.559 3.15 11.134 11.83 7.983 19.389-3.144 7.561-11.83 11.135-19.388 7.983"/><path d="m149.582 70.37c0-13.136-10.686-23.823-23.823-23.823-13.136 0-23.823 10.687-23.823 23.823 0 13.137 10.687 23.82 23.823 23.82 13.137-.002 23.823-10.685 23.823-23.82m-41.68-.041c0-9.884 8.013-17.895 17.897-17.895s17.898 8.011 17.898 17.895-8.014 17.895-17.898 17.895-17.897-8.013-17.897-17.895"/><path d="m290.531 64.866-6.353 11.166c-4.892-3.419-11.523-5.476-17.312-5.476-6.616 0-10.709 2.739-10.709 7.644 0 5.961 7.272 7.347 18.079 11.226 11.618 4.109 18.296 8.937 18.296 19.578 0 14.558-11.448 22.734-27.903 22.734-8.02 0-17.694-2.07-25.13-6.594l4.633-12.379c6.041 3.191 13.268 5.083 19.71 5.083 8.684 0 12.812-3.204 12.812-7.94 0-5.42-6.294-7.049-16.455-10.413-11.579-3.867-19.603-8.939-19.603-20.716 0-13.281 10.636-20.908 25.94-20.908 10.667 0 19.239 3.38 23.995 6.995"/><path d="m340.187 71.923v58.591h-14.957v-58.591h-21.71v-12.828h58.312v12.828z"/><path d="m393.362 71.885v16.092h28.624v12.829h-28.624v16.762h33.21v12.946h-48.163v-71.419h48.163v12.79z"/><path d="m459.955 116.648-4.727 13.868h-15.679l26.778-71.419h15.055l27.535 71.417h-16.208l-4.831-13.868h-27.923zm13.815-40.516-9.753 28.596h19.708z"/><path d="m585.677 86.7-19.545 41.733h-8.439l-19.229-41.36v43.441h-14.322v-71.419h14.29l24.003 51.555 23.15-51.555h14.415v71.419h-14.32z"/></g></svg>