<svg clip-rule="evenodd" fill-rule="evenodd" stroke-linejoin="round" stroke-miterlimit="2" viewBox="0 0 600 108" xmlns="http://www.w3.org/2000/svg"><g fill="#fff"><path d="m100.891.578h-48.647c-44.977 8.297 9.915 79.668-7.158 80.668l-45.086.067.004 25.634 63.584-.063c43.304-5.972-14.063-77.848 7.854-78.85 19.385.451 29.449.039 29.449.039v-27.495z"/><path d="m133.95.589-27.538-.011-.022 86.031c-.075 13.967 15.462 21.284 37.733 21.334 25.951-.113 39.303-5.337 39.311-21.198l.052-86.167h-25.684l-.093 71.386c-.024 3.934-2.028 5.613-5.465 5.587l-11.042.002c-5.085.019-7.345-1.958-7.332-5.543l.08-71.421z"/><path d="m385.026.578h-48.647c-44.977 8.297 9.915 79.668-7.158 80.668l-45.086.067.004 25.634 63.584-.063c43.304-5.972-14.063-77.848 7.854-78.85 19.385.451 29.449.039 29.449.039v-27.495z"/><path d="m218.356.578-25.695-.004v106.432l25.684-.02v-47.688c-.008-15.421 16.516 47.586 33.038 47.697h25.684l-.013-106.415-25.675.003-.031 47.705c-.023 16.36-19.701-47.803-32.992-47.71z"/><path d="m406.197.698h44.408c9.498 0 17.264 5.542 17.264 12.317v81.643c0 6.775-7.766 12.317-17.264 12.317h-44.408c-9.498 0-17.263-5.542-17.263-12.317v-81.643c0-6.775 7.765-12.317 17.263-12.317zm16.644 27.95h9.336c4.506 0 8.19 4.048 8.19 9.006v34.228c0 4.957-3.684 9.006-8.19 9.006h-9.336c-4.506 0-8.191-4.049-8.191-9.006v-34.228c0-4.957 3.685-9.006 8.191-9.006z"/><path d="m473.383 22.598c.011-11.665 9.321-22.02 23.865-22.015l29.358-.005v29.343l-25.691.006-.004 16.527 25.695-.002v27.516l-25.691.005v33.031h-27.521z"/><path d="m535.781.58-.022 25.667h18.353l.015 80.755h27.524v-80.739l18.349.006v-25.689h-64.219z"/></g></svg>