<?xml version="1.0" encoding="UTF-8" standalone="no"?><!DOCTYPE svg PUBLIC "-//W3C//DTD SVG 1.1//EN" "http://www.w3.org/Graphics/SVG/1.1/DTD/svg11.dtd"><svg width="100%" height="100%" viewBox="0 0 600 199" version="1.1" xmlns="http://www.w3.org/2000/svg" xmlns:xlink="http://www.w3.org/1999/xlink" xml:space="preserve" xmlns:serif="http://www.serif.com/" style="fill-rule:evenodd;clip-rule:evenodd;stroke-linejoin:round;stroke-miterlimit:2;"><g id="taito"><g id="g4853"><g id="g4287"><path id="path3027" d="M133.213,61.507l-133.213,0l-0,25.98l50.621,0l-0,107.233l31.971,0l0,-107.233l50.621,0l0,-25.98Z" style="fill:#fff;fill-rule:nonzero;"/><path id="path3031" d="M440.149,61.507l-133.22,0l0,25.98l50.621,0l0,107.233l31.978,0l-0,-107.233l50.621,0l-0,-25.98Z" style="fill:#fff;fill-rule:nonzero;"/><rect id="path3033" x="264.85" y="61.51" width="31.971" height="133.213" style="fill:#fff;fill-rule:nonzero;"/><path id="path3037" d="M176.507,194.721l86.602,0l-57.661,-106.083c-21.456,29.604 -32.647,66.83 -28.941,106.083" style="fill:#fff;fill-rule:nonzero;"/><path id="path3041" d="M96.584,194.721l45.285,0c4.896,-46.597 26.21,-87.406 57.532,-117.207l-19.556,-35.988l-83.261,153.195Z" style="fill:#fff;fill-rule:nonzero;"/><path id="path3045" d="M280.837,0.225c-13.247,0 -23.985,10.739 -23.985,23.979c-0,13.24 10.738,23.978 23.985,23.978c13.24,0 23.978,-10.738 23.978,-23.978c0,-13.24 -10.738,-23.979 -23.978,-23.979" style="fill:#fff;fill-rule:nonzero;"/><path id="path3049" d="M245.31,50.308l-2.117,-3.875c-16.019,8.216 -30.767,18.69 -43.791,31.079l6.045,11.13c10.86,-14.971 24.35,-27.995 39.863,-38.334" style="fill:#fff;fill-rule:nonzero;"/><path id="path3053" d="M520.072,173.98c-25.459,-0 -46.077,-18.332 -46.077,-46.057c0,-27.724 20.618,-46.05 46.077,-46.05c25.459,0 46.077,18.326 46.077,46.05c-0,27.725 -20.618,46.057 -46.077,46.057m0,-116.741c-45.806,0 -79.928,28.435 -79.928,70.684c0,42.25 34.122,70.684 79.928,70.684c45.813,0 79.928,-28.434 79.928,-70.684c-0,-42.249 -34.115,-70.684 -79.928,-70.684" style="fill:#fff;fill-rule:nonzero;"/></g></g></g></svg>