<svg clip-rule="evenodd" fill-rule="evenodd" stroke-linejoin="round" stroke-miterlimit="2" viewBox="0 0 600 200" xmlns="http://www.w3.org/2000/svg"><g fill="#fff" fill-rule="nonzero"><path d="m133.213 62.034h-133.213v25.98h50.621v107.233h31.971v-107.233h50.621z"/><path d="m440.149 62.034h-133.22v25.98h50.621v107.233h31.978v-107.233h50.621z"/><path d="m264.85 62.037h31.971v133.213h-31.971z"/><path d="m176.507 195.249h86.602l-57.661-106.084c-21.456 29.604-32.647 66.83-28.941 106.084"/><path d="m96.584 195.249h45.285c4.896-46.598 26.21-87.407 57.532-117.208l-19.556-35.988z"/><path d="m280.837.753c-13.247 0-23.985 10.738-23.985 23.978s10.738 23.978 23.985 23.978c13.24 0 23.978-10.738 23.978-23.978s-10.738-23.978-23.978-23.978"/><path d="m245.31 50.835-2.117-3.875c-16.019 8.216-30.767 18.69-43.791 31.079l6.045 11.13c10.86-14.971 24.35-27.995 39.863-38.334"/><path d="m520.072 174.507c-25.459 0-46.077-18.332-46.077-46.057 0-27.724 20.618-46.05 46.077-46.05s46.077 18.326 46.077 46.05c0 27.725-20.618 46.057-46.077 46.057m0-116.741c-45.806 0-79.928 28.435-79.928 70.684 0 42.25 34.122 70.684 79.928 70.684 45.813 0 79.928-28.434 79.928-70.684 0-42.249-34.115-70.684-79.928-70.684"/></g></svg>