<svg clip-rule="evenodd" fill-rule="evenodd" stroke-linejoin="round" stroke-miterlimit="2" viewBox="0 0 600 81" xmlns="http://www.w3.org/2000/svg"><path d="m272.629 80.797c-46.724 0-48.619-3.737-48.619-25.93h23.769c0 9.333 2.255 8.643 22.329 8.643 18.802 0 27.387.352 27.371-6.843s-7.791-6.842-10.084-6.842h-35.294c-14.403 0-28.812-1.447-28.812-23.409 0-21.961 9.246-25.571 47.539-25.571 38.294 0 47.539 1.622 47.539 25.21l-23.8.037c0-8.881-6.692-7.96-19.057-7.96-21.044 0-28.451-.276-28.451 6.843s9.851 6.842 12.965 6.842h29.532c24.706 0 31.693 4.512 31.693 24.49 0 19.979-6.972 24.49-48.62 24.49zm125.69-20.888c0-10.626 2.618-15.231 12.965-19.808-9.341-2.294-12.244-7.368-12.244-18.007 0-22.056 15.844-20.529 45.378-20.529s45.378-1.676 45.378 20.529c0 10.668-2.216 16.233-12.245 18.007 11.196 3.697 12.965 9.153 12.965 19.087 0 23.598-21.29 21.609-46.098 21.609s-46.099 1.929-46.099-20.888zm46.099 4.321c13.403 0 23.769 1.072 23.769-8.283s-10.201-8.283-23.769-8.283c-13.569 0-23.77-1.039-23.77 8.283 0 9.323 10.367 8.283 23.77 8.283zm23.049-39.615c0-9.155-10.403-7.924-23.049-7.924s-23.049-1.148-23.049 7.924c0 9.071 10.402 7.923 23.049 7.923 12.646 0 23.049 1.231 23.049-7.923zm83.553 56.182c-39.424 0-48.979.093-48.979-39.976s11.634-39.976 48.979-39.976c37.346 0 48.98-.053 48.98 39.976s-9.555 39.976-48.98 39.976zm0-19.448c25.535 0 25.931-.805 25.931-20.528s-1.663-21.248-25.931-21.248-25.93 1.529-25.93 21.248c0 19.72.396 20.528 25.93 20.528zm-516.446 18.728v-58.343h-34.574v-20.169h93.637v20.169h-34.573v58.343zm73.469 0v-78.512h73.47c20.464 0 25.21 8.444 25.21 25.931s-6.43 20.171-12.965 22.535c8.965 2.269 12.244 6.373 12.244 14.92v15.126h-25.21v-10.805c0-4.363-.053-8.643-7.923-8.643h-40.336v19.448zm61.225-39.616c12.965 0 12.965-1.712 12.965-9.364 0-7.651-.001-9.363-12.965-9.363h-36.735v18.784zm162.065 11.525v-25.211h57.623v25.211z" fill="#fff" fill-rule="nonzero"/></svg>