<svg clip-rule="evenodd" fill-rule="evenodd" stroke-linejoin="round" stroke-miterlimit="2" viewBox="0 0 600 98" xmlns="http://www.w3.org/2000/svg"><g fill="#fff"><path d="m468.968.808h-49.017l-57.081 97.043h49.017l57.081-97.043z"/><path d="m600 .808h-49.017l-57.08 97.043h49.017l57.08-97.043z"/><path d="m534.484.808h-49.017l-57.08 97.043h49.017l57.08-97.043z"/><g fill-rule="nonzero"><path d="m0 17.556v13.189h25.179v50.358h20.384v-50.358h22.782l5.994-13.189z"/><path d="m88.815 56.049 9.505 13.064h18.772l5.208 11.99h21.582l-29.975-63.547h-27.578l-29.975 63.547h21.582zm22.556-.125h-22.506l11.253-24.729z"/><path d="m146.28 81.103h19.185v-37.382l35.97 37.382h16.787v-63.547h-19.185v36.133l-34.771-36.133h-17.986z"/><path d="m249.996 31.944h13.189c9.592 0 18.585 6.72 18.585 17.386s-8.993 17.386-18.585 17.386h-13.189zm-20.984-14.388v63.547h45.064c14.226 0 28.077-13.85 28.077-28.076v-7.394c0-14.226-13.851-28.077-28.077-28.077z"/><path d="m293.76 17.556 31.174 36.557v26.99h19.185v-26.99l31.174-36.557h-22.781l-17.986 21.083-17.985-21.083z"/></g></g></svg>