<svg clip-rule="evenodd" fill-rule="evenodd" stroke-linejoin="round" stroke-miterlimit="2" viewBox="0 0 600 137" xmlns="http://www.w3.org/2000/svg"><g fill="#fff" fill-rule="nonzero"><path d="m272.629 136.174c-46.724 0-48.619-3.738-48.619-25.931h23.769c0 9.333 2.255 8.644 22.329 8.644 18.802 0 27.387.352 27.371-6.843s-7.791-6.843-10.084-6.843h-35.294c-14.403 0-28.812-1.447-28.812-23.408 0-21.962 9.246-25.571 47.539-25.571 38.294 0 47.539 1.622 47.539 25.21l-23.8.036c0-8.88-6.692-7.959-19.057-7.959-21.044 0-28.451-.277-28.451 6.842s9.851 6.843 12.965 6.843h29.532c24.706 0 31.693 4.512 31.693 24.49s-6.972 24.49-48.62 24.49zm125.69-20.889c0-10.626 2.618-15.23 12.965-19.808-9.341-2.294-12.244-7.368-12.244-18.007 0-22.056 15.844-20.528 45.378-20.528s45.378-1.677 45.378 20.528c0 10.669-2.216 16.233-12.245 18.007 11.196 3.698 12.965 9.154 12.965 19.088 0 23.598-21.29 21.609-46.098 21.609s-46.099 1.929-46.099-20.889zm46.099 4.322c13.403 0 23.769 1.072 23.769-8.283s-10.201-8.284-23.769-8.284c-13.569 0-23.77-1.039-23.77 8.284 0 9.322 10.367 8.283 23.77 8.283zm23.049-39.616c0-9.154-10.403-7.923-23.049-7.923s-23.049-1.148-23.049 7.923 10.402 7.923 23.049 7.923c12.646 0 23.049 1.232 23.049-7.923zm83.553 56.183c-39.424 0-48.979.093-48.979-39.976s11.634-39.976 48.979-39.976c37.346 0 48.98-.053 48.98 39.976s-9.555 39.976-48.98 39.976zm0-19.448c25.535 0 25.931-.806 25.931-20.528 0-19.723-1.663-21.249-25.931-21.249s-25.93 1.529-25.93 21.249c0 19.719.396 20.528 25.93 20.528zm-516.446 18.727v-58.343h-34.574v-20.168h93.637v20.168h-34.573v58.343zm73.469 0v-78.511h73.47c20.464 0 25.21 8.443 25.21 25.93s-6.43 20.171-12.965 22.535c8.965 2.27 12.244 6.373 12.244 14.92v15.126h-25.21v-10.804c0-4.364-.053-8.643-7.923-8.643h-40.336v19.448zm61.225-39.616c12.965 0 12.965-1.712 12.965-9.363 0-7.652-.001-9.364-12.965-9.364h-36.735v18.784zm162.065 11.525v-25.21h57.623v25.21z"/><path d="m0 .495v9.529h18.191v36.381h14.726v-36.381h16.458l4.331-9.529h-53.706z"/><path d="m64.164 28.305 6.867 9.438h13.562l3.762 8.662h15.592l-21.655-45.91h-19.924l-21.655 45.91h15.592zm16.296-.091h-16.26l8.13-17.865z"/><path d="m105.68 46.405h13.859v-27.006l25.987 27.006h12.128v-45.91h-13.861v26.105l-25.12-26.105h-12.993z"/><path d="m180.608 10.89h9.529c6.93 0 13.427 4.855 13.427 12.56 0 7.706-6.497 12.561-13.427 12.561h-9.529zm-15.159-10.395v45.91h32.556c10.278 0 20.284-10.006 20.284-20.284v-5.341c0-10.278-10.006-20.285-20.284-20.285z"/><path d="m212.226.495 22.522 26.411v19.499h13.859v-19.499l22.522-26.411h-16.458l-12.994 15.232-12.993-15.232h-16.458z"/></g></svg>