<svg clip-rule="evenodd" fill-rule="evenodd" stroke-linejoin="round" stroke-miterlimit="2" viewBox="0 0 600 154" xmlns="http://www.w3.org/2000/svg"><path d="m0 34.245v29.25h39.277c-5.418 7.214-10.615 14.86-14.244 23.905-5.348 13.332-8.238 24.104-7.992 32.671.251 8.737 3.631 18.31 10.026 23.787 9.155 7.838 15.366 8.936 24.247 9.45 13.991.81 29.799-4.933 39.992-21.667l1.947-3.197-15.154-14.895-3.257 4.153c-2.786 3.553-4.912 5.922-7.115 7.403-2.204 1.48-4.624 2.349-8.959 2.638-3.148.209-8.525-1.516-11.494-5.79-2.968-4.274-4.501-11.502.973-24.17 2.975-6.885 5.254-10.441 11.564-18.893 4.303-5.765 9.893-12.152 14.218-15.395h13.028v-29.25zm472.772-33.295v151.946h30.116v-151.946h-30.116zm37.866 35.859v25.267h53.163v4.541l-46.108 78.708v7.571h30.555l51.752-95.55v-20.537zm-254.264-35.859-1.345 1.211c-43.881 39.463-52.609 90.367-52.609 120.537v30.198h28.451v-38.906c0-29.749 12.41-55.969 30.339-75.548v42.686h-16.321v23.881h17.332v47.887h27.44v-151.946h-33.287zm94.193 0-1.39 1.434c-40.207 41.453-52.07 79.136-52.07 112.552v37.96h28.45v-41.69c.298-1.707 9.421-52.963 37.033-81.006h25.025c27.612 28.043 36.736 79.299 37.033 81.006v41.69h28.451v-37.96c0-33.416-11.864-71.099-52.071-112.552l-1.39-1.434h-49.071zm-154.427 29.251v-29.25h-101.764v77.12c0 10.163 4.367 20.708 10.46 30.29 6.093 9.581 13.99 18.177 21.929 24.024 12.946 9.532 28.313 19.028 53.215 20.109l.102.005h16.466v-32.712l-5.176.504c-29.041 2.831-44.395-7.647-53.624-21.798-9.229-14.152-11.681-32.626-11.681-44.476v-23.816zm166.837 6.9v48.866h25.574v-48.866zm-231.228-.405v26.799h64.391v-26.799zm-131.749-35.746v29.251h87.057v-29.251zm510.638 0v29.251h89.362v-29.251z" fill="#fff"/></svg>