<svg clip-rule="evenodd" fill-rule="evenodd" stroke-linejoin="round" stroke-miterlimit="2" viewBox="0 0 600 115" xmlns="http://www.w3.org/2000/svg"><g fill="#fff" fill-rule="nonzero"><path d="m65.752.96c2.582 4.402 5.06 8.873 7.435 13.396-7.504 3.449-14.523 7.851-21.161 12.738 4.246-8.891 9.359-17.313 13.726-26.134z"/><path d="m46.966 46.244c4.02-12.876 15.753-21.767 28.023-26.065 4.125 1.837 4.957 7.747 7.418 11.386 3.188.191 6.36.382 9.566.572.555 2.115 1.144 4.212 1.733 6.326-9.913-1.872-20.034-1.335-30.034-.693.208 1.074.642 3.24.849 4.315 9.099 1.629 18.579-1.005 27.556 1.716 9.202 2.565 16.741 8.734 24.037 14.627-3.847 3.327-7.642 6.724-11.334 10.225.763 2.391 1.525 4.8 2.323 7.209-1.907 1.369-3.796 2.738-5.668 4.125-.831-8.908-4.194-17.227-8.093-25.164-2.028.294-4.055.589-6.066.918 3.553 7.972 7.73 16.083 8.024 24.991-.519 8.683-4.488 16.637-8.561 24.159-4.488-2.115-8.769-4.784-13.535-6.274-2.409 1.144-4.593 2.738-7.001 3.882-2.617-.78-5.026-2.114-7.487-3.258 8.89-3.813 18.041-8.024 24.609-15.372.607-2.686-.468-3.9-3.241-3.657-6.135 3.761-11.265 9.203-18.162 11.698-10.329 4.662-21.871 3.362-32.824 2.6.814-4.524 1.681-9.029 2.461-13.553-2.201-1.698-6.464-2.045-6.62-5.476.277-1.993-.538-5.858 2.72-4.939 7.089 5.545 14.073 11.784 22.963 14.211 6.257-2.808-1.369-6.621-4.506-8.042-13.569-6.083-22.893-19.999-23.084-34.903 4.437-.399 8.873-.798 13.31-1.214.901-2.824 1.802-5.649 2.704-8.474 3.084-.347 6.187-.676 9.289-1.023-5.251 8.18-9.515 17.296-9.861 27.175 7.452 1.213 6.533-7.297 8.492-12.028z"/><path d="m100.708 41.184c10.571.884 21.039 2.721 31.628 3.414-3.986 3.518-7.99 7.019-12.184 10.277-5.805-5.442-12.322-10.087-19.444-13.691z"/><path d="m0 44.442c5.546-.433 11.092-.849 16.62-1.352.884 7.781 3.934 15.008 6.828 22.2-7.955-6.793-16.36-13.119-23.448-20.848z"/><path d="m92.233 107.542c3.83-6.689 5.962-14.141 9.306-21.056 1.803 9.22 3.917 18.37 5.286 27.676-4.956-2.027-9.809-4.263-14.592-6.62z"/><path d="m28.214 100.211c8.873-.329 17.764 1.179 26.637-.138-9.74 5.182-19.843 9.584-29.652 14.575.693-4.853.866-9.931 3.015-14.437z"/><path d="m482.828 29.299c0-1.906.017-3.795.035-5.684 15.337 0 30.657-.069 45.995.052 0 1.404 0 4.211-.018 5.615-15.337.104-30.675 0-46.012.017z"/><path d="m135.126 34.862 57.035.018v57.035l-11.629-.018v-45.302h-45.302z"/><path d="m203.218 34.784h57.112v11.811h-45.77v10.979h45.77v11.811l-45.77.19v10.485h45.77v11.863h-45.77c-5.632.329-11.481-4.653-11.342-10.164z"/><path d="m272.54 48.692c1.369-8.925 10.554-14.219 19.063-13.908h37.625v11.846c-12.582.225-25.216-.451-37.781.433-6.689.537-7.937 8.336-8.37 13.674-.364 6.863.156 15.892 7.4 19.098 12.894.728 25.839.329 38.751.433v11.699c-13.189-.052-26.395.173-39.566-.07-7.868-.277-16.117-5.251-17.122-13.587-.503-9.861-.555-19.774 0-29.618z"/><path d="m340.752 34.802h11.491v22.781l34.418-.035v-22.746h10.97v57.121h-10.97v-22.434l-34.418.035v22.399h-11.473z"/><path d="m408.948 34.81h42.027c7.174-.537 14.522 5.633 14.696 12.946v44.193h-11.239v-36.446c.139-3.882-2.452-8.977-6.872-8.752h-27.642c.07 15.13.07 30.069 0 45.198h-11.022c.208-18.994.104-38.144.052-57.139z"/><path d="m476.554 46.37c7.608-10.104 18.988-11.577 29.726-11.577s21.899 3.896 27.586 10.45c5.688 6.555 6.343 14.645 5.685 22.426-.26 9.549-7.366 17.799-16.014 21.161-10.762 4.072-22.633 3.916-33.621.884-8.474-2.964-15.909-9.688-17.746-18.735-1.005-8.318-1.179-17.712 4.384-24.609m29.726-.278c-10.51 0-23.397 2.38-23.397 17.202s14.965 17.578 23.397 17.578 22.474-3.733 22.474-17.578-11.964-17.202-22.474-17.202z"/><path d="m550.365 37.393c2.214-2.589 6.006-2.6 7.989-2.6h41.594v12.045h-38.422c10.935 8.96 23.049 16.568 34.21 25.198 6.932 5.286 5.338 18.873-4.246 19.775l-43.309.086.052-11.88h38.405l-34.297-25.363c-7.134-5.182-4.19-14.672-1.976-17.261z"/></g></svg>