<?xml version="1.0" encoding="UTF-8" standalone="no"?><!DOCTYPE svg PUBLIC "-//W3C//DTD SVG 1.1//EN" "http://www.w3.org/Graphics/SVG/1.1/DTD/svg11.dtd"><svg width="100%" height="100%" viewBox="0 0 600 115" version="1.1" xmlns="http://www.w3.org/2000/svg" xmlns:xlink="http://www.w3.org/1999/xlink" xml:space="preserve" xmlns:serif="http://www.serif.com/" style="fill-rule:evenodd;clip-rule:evenodd;stroke-linejoin:round;stroke-miterlimit:2;"><g id="technos"><g><path id="path4205" d="M65.752,0.622c2.582,4.402 5.06,8.873 7.435,13.397c-7.504,3.448 -14.523,7.85 -21.161,12.738c4.246,-8.891 9.359,-17.314 13.726,-26.135Z" style="fill:#fff;fill-rule:nonzero;"/><path id="path4219" d="M46.966,45.907c4.02,-12.877 15.753,-21.767 28.023,-26.065c4.125,1.837 4.957,7.746 7.418,11.386c3.188,0.19 6.36,0.381 9.566,0.572c0.555,2.114 1.144,4.211 1.733,6.325c-9.913,-1.871 -20.034,-1.334 -30.034,-0.693c0.208,1.075 0.642,3.241 0.849,4.315c9.099,1.63 18.579,-1.005 27.556,1.716c9.202,2.565 16.741,8.735 24.037,14.627c-3.847,3.328 -7.642,6.724 -11.334,10.225c0.763,2.392 1.525,4.801 2.323,7.21c-1.907,1.369 -3.796,2.738 -5.668,4.124c-0.831,-8.908 -4.194,-17.226 -8.093,-25.164c-2.028,0.295 -4.055,0.59 -6.066,0.919c3.553,7.972 7.73,16.083 8.024,24.991c-0.519,8.682 -4.488,16.637 -8.561,24.158c-4.488,-2.114 -8.769,-4.783 -13.535,-6.273c-2.409,1.143 -4.593,2.738 -7.001,3.882c-2.617,-0.78 -5.026,-2.115 -7.487,-3.259c8.89,-3.812 18.041,-8.024 24.609,-15.372c0.607,-2.686 -0.468,-3.899 -3.241,-3.656c-6.135,3.76 -11.265,9.202 -18.162,11.698c-10.329,4.662 -21.871,3.362 -32.824,2.599c0.814,-4.523 1.681,-9.029 2.461,-13.552c-2.201,-1.699 -6.464,-2.045 -6.62,-5.477c0.277,-1.993 -0.538,-5.857 2.72,-4.939c7.089,5.546 14.073,11.785 22.963,14.211c6.257,-2.807 -1.369,-6.62 -4.506,-8.041c-13.569,-6.083 -22.893,-20 -23.084,-34.904c4.437,-0.398 8.873,-0.797 13.31,-1.213c0.901,-2.825 1.802,-5.65 2.704,-8.475c3.084,-0.346 6.187,-0.675 9.289,-1.022c-5.251,8.18 -9.515,17.296 -9.861,27.174c7.452,1.213 6.533,-7.296 8.492,-12.027Z" style="fill:#fff;fill-rule:nonzero;"/><path id="path4245" d="M100.708,40.846c10.571,0.884 21.039,2.721 31.628,3.414c-3.986,3.518 -7.99,7.019 -12.184,10.277c-5.805,-5.441 -12.322,-10.086 -19.444,-13.691Z" style="fill:#fff;fill-rule:nonzero;"/><path id="path4247" d="M-0,44.104c5.546,-0.433 11.092,-0.849 16.62,-1.351c0.884,7.781 3.934,15.008 6.828,22.2c-7.955,-6.794 -16.36,-13.119 -23.448,-20.849Z" style="fill:#fff;fill-rule:nonzero;"/><path id="path4271" d="M92.233,107.205c3.83,-6.69 5.962,-14.142 9.306,-21.057c1.803,9.22 3.917,18.371 5.286,27.677c-4.956,-2.028 -9.809,-4.263 -14.592,-6.62Z" style="fill:#fff;fill-rule:nonzero;"/><path id="path4307" d="M28.214,99.874c8.873,-0.329 17.764,1.178 26.637,-0.139c-9.74,5.182 -19.843,9.584 -29.652,14.575c0.693,-4.852 0.866,-9.93 3.015,-14.436Z" style="fill:#fff;fill-rule:nonzero;"/></g><g><path id="path4217" d="M482.828,28.962c-0,-1.906 0.017,-3.795 0.035,-5.684c15.337,-0 30.657,-0.07 45.995,0.052c-0,1.403 -0,4.211 -0.018,5.615c-15.337,0.104 -30.675,-0 -46.012,0.017Z" style="fill:#fff;fill-rule:nonzero;"/><path id="path4229" d="M135.126,34.525l57.035,0.017l-0,57.035l-11.629,-0.017l-0,-45.302l-45.302,-0l-0.104,-11.733Z" style="fill:#fff;fill-rule:nonzero;"/><path id="path4231" d="M203.218,34.447l57.112,0l0,11.811l-45.77,-0l0,10.979l45.77,-0l0,11.81l-45.77,0.191l0,10.485l45.77,0l0,11.863l-45.77,-0c-5.632,0.329 -11.481,-4.653 -11.342,-10.165l-0,-46.974Z" style="fill:#fff;fill-rule:nonzero;"/><path id="path4233" d="M272.54,48.355c1.369,-8.925 10.554,-14.22 19.063,-13.908l37.625,0l-0,11.845c-12.582,0.226 -25.216,-0.45 -37.781,0.434c-6.689,0.537 -7.937,8.336 -8.37,13.674c-0.364,6.862 0.156,15.892 7.4,19.098c12.894,0.728 25.839,0.329 38.751,0.433l-0,11.698c-13.189,-0.052 -26.395,0.173 -39.566,-0.069c-7.868,-0.278 -16.117,-5.251 -17.122,-13.587c-0.503,-9.861 -0.555,-19.774 -0,-29.618Z" style="fill:#fff;fill-rule:nonzero;"/><path id="path4235" d="M340.752,34.464l11.491,0l-0,22.781l34.418,-0.034l-0,-22.747l10.97,0l0,57.122l-10.97,-0l-0,-22.435l-34.418,0.035l-0,22.4l-11.473,-0l-0.018,-57.122Z" style="fill:#fff;fill-rule:nonzero;"/><path id="path4237" d="M408.948,34.473l42.027,0c7.174,-0.537 14.522,5.632 14.696,12.946l-0,44.193l-11.239,-0l-0,-36.446c0.139,-3.882 -2.452,-8.978 -6.872,-8.752l-27.642,-0c0.07,15.129 0.07,30.068 0,45.198l-11.022,-0c0.208,-18.994 0.104,-38.145 0.052,-57.139Z" style="fill:#fff;fill-rule:nonzero;"/><path id="path4239" d="M476.554,46.033c7.608,-10.104 18.988,-11.577 29.726,-11.577c10.738,-0 21.899,3.895 27.586,10.45c5.688,6.555 6.343,14.644 5.685,22.426c-0.26,9.549 -7.366,17.798 -16.014,21.16c-10.762,4.073 -22.633,3.917 -33.621,0.884c-8.474,-2.963 -15.909,-9.688 -17.746,-18.734c-1.005,-8.319 -1.179,-17.712 4.384,-24.609m29.726,-0.278c-10.51,-0 -23.397,2.38 -23.397,17.201c-0,14.822 14.965,17.578 23.397,17.578c8.432,0 22.474,-3.732 22.474,-17.578c-0,-13.845 -11.964,-17.201 -22.474,-17.201Z" style="fill:#fff;fill-rule:nonzero;"/><path id="path4241" d="M550.365,37.055c2.214,-2.589 6.006,-2.599 7.989,-2.599l41.594,-0l-0,12.044l-38.422,0c10.935,8.96 23.049,16.568 34.21,25.199c6.932,5.286 5.338,18.873 -4.246,19.774l-43.309,0.087l0.052,-11.88l38.405,-0l-34.297,-25.364c-7.134,-5.182 -4.19,-14.672 -1.976,-17.261Z" style="fill:#fff;fill-rule:nonzero;"/></g></g></svg>