<svg clip-rule="evenodd" fill-rule="evenodd" stroke-linejoin="round" stroke-miterlimit="2" viewBox="0 0 600 115" xmlns="http://www.w3.org/2000/svg"><g fill="#fff" fill-rule="nonzero"><path d="m65.752.622c2.582 4.402 5.06 8.873 7.435 13.397-7.504 3.448-14.523 7.85-21.161 12.738 4.246-8.891 9.359-17.314 13.726-26.135z"/><path d="m46.966 45.907c4.02-12.877 15.753-21.767 28.023-26.065 4.125 1.837 4.957 7.746 7.418 11.386 3.188.19 6.36.381 9.566.572.555 2.114 1.144 4.211 1.733 6.325-9.913-1.871-20.034-1.334-30.034-.693.208 1.075.642 3.241.849 4.315 9.099 1.63 18.579-1.005 27.556 1.716 9.202 2.565 16.741 8.735 24.037 14.627-3.847 3.328-7.642 6.724-11.334 10.225.763 2.392 1.525 4.801 2.323 7.21-1.907 1.369-3.796 2.738-5.668 4.124-.831-8.908-4.194-17.226-8.093-25.164-2.028.295-4.055.59-6.066.919 3.553 7.972 7.73 16.083 8.024 24.991-.519 8.682-4.488 16.637-8.561 24.158-4.488-2.114-8.769-4.783-13.535-6.273-2.409 1.143-4.593 2.738-7.001 3.882-2.617-.78-5.026-2.115-7.487-3.259 8.89-3.812 18.041-8.024 24.609-15.372.607-2.686-.468-3.899-3.241-3.656-6.135 3.76-11.265 9.202-18.162 11.698-10.329 4.662-21.871 3.362-32.824 2.599.814-4.523 1.681-9.029 2.461-13.552-2.201-1.699-6.464-2.045-6.62-5.477.277-1.993-.538-5.857 2.72-4.939 7.089 5.546 14.073 11.785 22.963 14.211 6.257-2.807-1.369-6.62-4.506-8.041-13.569-6.083-22.893-20-23.084-34.904 4.437-.398 8.873-.797 13.31-1.213.901-2.825 1.802-5.65 2.704-8.475 3.084-.346 6.187-.675 9.289-1.022-5.251 8.18-9.515 17.296-9.861 27.174 7.452 1.213 6.533-7.296 8.492-12.027z"/><path d="m100.708 40.846c10.571.884 21.039 2.721 31.628 3.414-3.986 3.518-7.99 7.019-12.184 10.277-5.805-5.441-12.322-10.086-19.444-13.691z"/><path d="m0 44.104c5.546-.433 11.092-.849 16.62-1.351.884 7.781 3.934 15.008 6.828 22.2-7.955-6.794-16.36-13.119-23.448-20.849z"/><path d="m92.233 107.205c3.83-6.69 5.962-14.142 9.306-21.057 1.803 9.22 3.917 18.371 5.286 27.677-4.956-2.028-9.809-4.263-14.592-6.62z"/><path d="m28.214 99.874c8.873-.329 17.764 1.178 26.637-.139-9.74 5.182-19.843 9.584-29.652 14.575.693-4.852.866-9.93 3.015-14.436z"/><path d="m482.828 28.962c0-1.906.017-3.795.035-5.684 15.337 0 30.657-.07 45.995.052 0 1.403 0 4.211-.018 5.615-15.337.104-30.675 0-46.012.017z"/><path d="m135.126 34.525 57.035.017v57.035l-11.629-.017v-45.302h-45.302z"/><path d="m203.218 34.447h57.112v11.811h-45.77v10.979h45.77v11.81l-45.77.191v10.485h45.77v11.863h-45.77c-5.632.329-11.481-4.653-11.342-10.165z"/><path d="m272.54 48.355c1.369-8.925 10.554-14.22 19.063-13.908h37.625v11.845c-12.582.226-25.216-.45-37.781.434-6.689.537-7.937 8.336-8.37 13.674-.364 6.862.156 15.892 7.4 19.098 12.894.728 25.839.329 38.751.433v11.698c-13.189-.052-26.395.173-39.566-.069-7.868-.278-16.117-5.251-17.122-13.587-.503-9.861-.555-19.774 0-29.618z"/><path d="m340.752 34.464h11.491v22.781l34.418-.034v-22.747h10.97v57.122h-10.97v-22.435l-34.418.035v22.4h-11.473z"/><path d="m408.948 34.473h42.027c7.174-.537 14.522 5.632 14.696 12.946v44.193h-11.239v-36.446c.139-3.882-2.452-8.978-6.872-8.752h-27.642c.07 15.129.07 30.068 0 45.198h-11.022c.208-18.994.104-38.145.052-57.139z"/><path d="m476.554 46.033c7.608-10.104 18.988-11.577 29.726-11.577s21.899 3.895 27.586 10.45c5.688 6.555 6.343 14.644 5.685 22.426-.26 9.549-7.366 17.798-16.014 21.16-10.762 4.073-22.633 3.917-33.621.884-8.474-2.963-15.909-9.688-17.746-18.734-1.005-8.319-1.179-17.712 4.384-24.609m29.726-.278c-10.51 0-23.397 2.38-23.397 17.201 0 14.822 14.965 17.578 23.397 17.578s22.474-3.732 22.474-17.578c0-13.845-11.964-17.201-22.474-17.201z"/><path d="m550.365 37.055c2.214-2.589 6.006-2.599 7.989-2.599h41.594v12.044h-38.422c10.935 8.96 23.049 16.568 34.21 25.199 6.932 5.286 5.338 18.873-4.246 19.774l-43.309.087.052-11.88h38.405l-34.297-25.364c-7.134-5.182-4.19-14.672-1.976-17.261z"/></g></svg>