<svg clip-rule="evenodd" fill-rule="evenodd" stroke-linejoin="round" stroke-miterlimit="2" viewBox="0 0 600 117" xmlns="http://www.w3.org/2000/svg"><g fill="#fff"><g fill-rule="nonzero"><path d="m326.918 1.122c12.037-1.049 24.814.432 35.246 6.914 9.568-5.926 21.234-7.099 32.283-6.914 10.741.371 21.852 2.778 30.741 9.074 8.518 5.803 14.259 15.988 13.703 26.419-.062 25.988.124 51.975-.062 77.962-11.851-.123-23.641.124-35.431-.123-.062-26.173.123-52.283-.124-78.456.124-6.296-7.777-7.469-12.592-7.345-4.383.123-11.666 1.481-11.049 7.345 0 26.049.062 52.16-.062 78.209-12.098-.124-24.197.247-36.296.123-.123-26.11-.185-52.221.124-78.332.247-2.037-.926-4.012-2.84-4.815-4.814-2.283-10.678-2.407-15.678-.555-2.037.741-4.383 2.284-4.198 4.753-.247 26.419-.123 52.777-.123 79.196-11.667-.432-23.395 0-35.061-.247.432-27.777-.124-55.554.308-83.332.247-7.407 4.383-14.32 10.124-18.827 8.827-6.913 19.999-10.061 30.987-11.049z"/><path d="m.071 2.974h93.579v28.024c-10 .185-20-.061-30 .124-.123 27.654.062 55.307-.123 82.961-11.605 0-23.271-.061-34.876 0-.247-24.999 0-49.999-.123-74.998-.062-2.778.308-5.556-.309-8.272-9.383.185-18.765.062-28.148.062-.061-9.321-.123-18.642 0-27.901z"/><path d="m210.685 18.9c19.136-13.272 43.271-16.79 66.048-16.173 0 9.012-.061 18.025 0 27.037-15.185.061-31.851 1.543-43.826 11.975-5.494 4.876-9.259 12.098-8.457 19.567.803 8.457 6.852 15.432 13.889 19.691 10.741 6.544 23.703 7.84 36.049 7.655v27.036c-21.234.618-43.456-2.901-61.481-14.814-13.641-9.013-24.135-24.074-24.444-40.802-.802-16.543 8.951-31.975 22.222-41.172z"/><path d="m107.786 13.529c7.53-6.851 17.777-10.864 28.024-10.431 15.987.123 31.913-.186 47.9.246-.062 8.951-.062 17.963 0 26.914-14.753.061-29.505 0-44.258.061-1.729-.123-3.21.803-4.568 1.729-.309 4.506-.124 9.012-.185 13.518h48.579c.124 9.074.124 18.148 0 27.16h-48.703c-.123 3.395-.247 6.852-.123 10.247 0 3.086 3.642 4.629 6.296 4.568h42.53c.124 9.012.124 18.024 0 27.036-16.049-.123-32.098.185-48.086-.185-9.691-.617-19.382-3.951-26.789-10.247-5.062-4.382-8.951-10.679-8.827-17.53-.062-18.704 0-37.469 0-56.172-.062-6.543 3.58-12.531 8.21-16.914z"/></g><path d="m515.124 1.307c20.062-1.543 40.864 2.531 57.962 13.457 10.124 6.605 18.951 15.74 23.519 27.037 4.753 11.357 4.506 24.629-.679 35.801-6.605 14.445-19.691 25.062-34.012 31.358-21.852 9.506-47.283 10.37-69.876 2.963-16.728-5.494-32.345-16.42-40.554-32.345-5.803-11.358-6.605-25.247-1.791-37.16 3.704-9.753 10.741-17.901 18.889-24.259 13.395-10.185 29.938-15.555 46.542-16.852zm2.47 28.272c12.469-1.173 25.678 1.543 35.863 9.135 6.296 4.692 11.358 11.975 11.235 20.123.185 7.408-4.013 14.136-9.445 18.827-14.259 11.852-35.184 13.642-52.159 7.099-8.766-3.58-17.222-9.938-20.247-19.259-2.531-7.346-.37-15.802 4.691-21.605 7.408-8.765 18.827-13.148 30.062-14.32z"/></g></svg>