<svg clip-rule="evenodd" fill-rule="evenodd" stroke-linejoin="round" stroke-miterlimit="2" viewBox="0 0 600 65" xmlns="http://www.w3.org/2000/svg"><g fill="#fff" fill-rule="nonzero"><path d="m0 .418v8.847h50.872v-8.847h-50.872zm0 11.059v8.848h15.483v44.236h8.847v-53.084h-24.33zm26.542 53.084h8.847v-44.236h15.483v-8.848h-24.33z"/><path d="m55.296 20.325c0-13.271 6.635-19.907 19.907-19.907h26.542v8.847h-26.542c-7.373 0-11.06 3.687-11.06 11.06v24.33c0 7.373 3.687 11.059 11.06 11.059h26.542v8.847h-26.542c-13.272 0-19.907-6.635-19.907-19.906zm11.059 11.059v-11.059c0-5.899 2.949-8.848 8.848-8.848h26.542v8.848h-24.331c-1.474 0-2.211.737-2.211 2.212h19.906v8.847zm0 2.212h28.754v8.847h-19.906c0 1.475.737 2.212 2.211 2.212h24.331v8.847h-26.542c-5.899 0-8.848-2.949-8.848-8.847z"/><path d="m106.168 64.561v-64.143h8.848v64.143zm11.059-64.143h8.848v20.644l8.847-20.644h8.848l-13.272 30.966 13.272 33.177h-8.848l-8.847-22.118v22.118h-8.848zm28.754 64.143-13.271-33.177 13.271-30.966h8.848l-13.271 30.966 13.271 33.177z"/><path d="m159.252 64.561v-53.084c0-7.372 3.687-11.059 11.06-11.059 4.423 0 7.372.885 8.847 2.654l16.22 19.907c.983 1.18 1.475 1.032 1.475-.442v-22.119h8.847v46.744c.197 3.539-.295 4.423-1.475 2.654l-31.555-38.339c-1.18-1.474-2.286-2.212-3.318-2.212s-1.45 1.475-1.253 4.424v50.872zm57.508-64.143v53.084c0 7.373-3.686 11.059-11.059 11.059-4.424 0-7.373-.884-8.847-2.654l-16.221-19.906c-.983-1.18-1.474-1.033-1.474.442v22.118h-8.847v-46.743c-.197-3.539.294-4.424 1.474-2.654l31.556 38.338c1.179 1.475 2.285 2.212 3.317 2.212 1.033 0 1.45-1.474 1.254-4.424v-50.872h8.847z"/><path d="m269.844 20.325v24.33c0 13.271-6.635 19.906-19.906 19.906h-8.848c-13.271 0-19.906-6.635-19.906-19.906v-24.33c0-13.271 6.635-19.907 19.906-19.907h8.848c13.271 0 19.906 6.636 19.906 19.907zm-11.059 0v24.33c0 5.898-2.949 8.847-8.847 8.847h-8.848c-5.898 0-8.847-2.949-8.847-8.847v-24.33c0-5.899 2.949-8.848 8.847-8.848h8.848c5.898 0 8.847 2.949 8.847 8.848zm2.212 0c0-7.373-3.686-11.06-11.059-11.06h-8.848c-7.372 0-11.059 3.687-11.059 11.06v24.33c0 7.373 3.687 11.059 11.059 11.059h8.848c7.373 0 11.059-3.686 11.059-11.059zm-11.059 2.212c0-1.475-.737-2.212-2.212-2.212h-4.424c-1.474 0-2.212.737-2.212 2.212v19.906c0 1.475.738 2.212 2.212 2.212h4.424c1.475 0 2.212-.737 2.212-2.212z"/><path d="m325.14 21.431c0 5.8-2.052 10.752-6.156 14.856s-8.688 6.156-13.75 6.156h-8.848v-8.847h8.848c2.605 0 5.099-1.192 7.483-3.576s3.576-5.247 3.576-8.589c0-3.294-1.192-6.144-3.576-8.553-2.384-2.408-4.878-3.613-7.483-3.613h-22.119v55.296h-8.847v-64.143h30.966c5.062 0 9.646 2.064 13.75 6.193s6.156 9.069 6.156 14.82zm-11.059 0c0 2.752-.971 5.099-2.912 7.041-1.942 1.941-3.92 2.912-5.935 2.912h-8.848v-8.847h6.636c1.474 0 2.212-.369 2.212-1.106 0-.738-.738-1.106-2.212-1.106h-8.847v44.236h-8.848v-53.084h19.907c2.015 0 3.993.983 5.935 2.949 1.941 1.967 2.912 4.301 2.912 7.005z"/><path d="m343.058 55.714h26.173l-17.694-44.974c-.492-.983-1.475-1.475-2.949-1.475-1.229 0-2.212.492-2.949 1.475l-19.907 53.821h-8.847l20.643-56.77c2.458-4.915 6.144-7.373 11.06-7.373 5.652 0 9.339 2.458 11.059 7.373l21.381 56.77h-37.97zm0-2.212v-4.792l-6.267 15.851h-8.847l19.169-51.609c.246-.983.737-1.475 1.475-1.475.737 0 1.228.492 1.474 1.475l15.483 40.55zm5.53-19.169-4.055 10.322h8.11z"/><path d="m436.324 21.431c0 5.8-1.487 10.186-4.461 13.16-2.973 2.974-5.173 4.977-6.598 6.009l11.059 23.961h-8.847l-12.977-27.426c-.589-1.278-.442-2.065.443-2.36 3.588-.786 6.574-2.371 8.958-4.755s3.576-5.247 3.576-8.589c0-3.294-1.192-6.144-3.576-8.553-2.384-2.408-4.879-3.613-7.484-3.613h-22.118v55.296h-8.847v-64.143h30.965c5.063 0 9.646 2.064 13.751 6.193 4.104 4.129 6.156 9.069 6.156 14.82zm-11.059 0c0 2.752-.971 5.099-2.913 7.041-1.941 1.941-5.246 3.502-9.916 4.681-1.081.295-1.376.983-.885 2.065l13.714 29.343h-8.848l-11.059-22.118v22.118h-8.847v-53.084h19.906c2.016 0 3.994.983 5.935 2.949 1.942 1.967 2.913 4.301 2.913 7.005zm-19.907-1.106v4.718c1.671-.295 3.932-.786 6.783-1.474s4.276-1.77 4.276-3.244z"/><path d="m491.62 21.431c0 5.8-1.487 10.186-4.461 13.16-2.973 2.974-5.173 4.977-6.598 6.009l11.059 23.961h-8.847l-12.977-27.426c-.589-1.278-.442-2.065.443-2.36 3.588-.786 6.574-2.371 8.958-4.755s3.576-5.247 3.576-8.589c0-3.294-1.192-6.144-3.576-8.553-2.384-2.408-4.879-3.613-7.484-3.613h-22.118v55.296h-8.847v-64.143h30.965c5.063 0 9.646 2.064 13.751 6.193 4.104 4.129 6.156 9.069 6.156 14.82zm-11.059 0c0 2.752-.971 5.099-2.913 7.041-1.941 1.941-5.247 3.502-9.916 4.681-1.081.295-1.376.983-.885 2.065l13.714 29.343h-8.848l-11.059-22.118v22.118h-8.847v-53.084h19.906c2.016 0 3.994.983 5.935 2.949 1.942 1.967 2.913 4.301 2.913 7.005zm-19.907-1.106v4.718c1.671-.295 3.932-.786 6.783-1.474s4.276-1.77 4.276-3.244z"/><path d="m544.704 20.325v24.33c0 13.271-6.635 19.906-19.907 19.906h-8.847c-13.271 0-19.906-6.635-19.906-19.906v-24.33c0-13.271 6.635-19.907 19.906-19.907h8.847c13.272 0 19.907 6.636 19.907 19.907zm-11.059 0v24.33c0 5.898-2.949 8.847-8.848 8.847h-8.847c-5.898 0-8.847-2.949-8.847-8.847v-24.33c0-5.899 2.949-8.848 8.847-8.848h8.847c5.899 0 8.848 2.949 8.848 8.848zm2.212 0c0-7.373-3.687-11.06-11.06-11.06h-8.847c-7.373 0-11.059 3.687-11.059 11.06v24.33c0 7.373 3.686 11.059 11.059 11.059h8.847c7.373 0 11.06-3.686 11.06-11.059zm-11.06 2.212c0-1.475-.737-2.212-2.211-2.212h-4.424c-1.475 0-2.212.737-2.212 2.212v19.906c0 1.475.737 2.212 2.212 2.212h4.424c1.474 0 2.211-.737 2.211-2.212z"/><path d="m549.128.418v8.847h50.872v-8.847h-50.872zm0 11.059v8.848h15.483v44.236h8.847v-53.084h-24.33zm26.542 53.084h8.847v-44.236h15.483v-8.848h-24.33z"/></g></svg>