<svg clip-rule="evenodd" fill-rule="evenodd" stroke-linejoin="round" stroke-miterlimit="2" viewBox="0 0 600 66" xmlns="http://www.w3.org/2000/svg"><g fill="#fff" fill-rule="nonzero"><path d="m0 .945v8.847h50.872v-8.847zm0 11.059v8.847h15.483v44.237h8.847v-53.084h-24.33zm26.542 53.084h8.847v-44.237h15.483v-8.847h-24.33z"/><path d="m55.296 20.851c0-13.271 6.635-19.906 19.907-19.906h26.542v8.847h-26.542c-7.373 0-11.06 3.686-11.06 11.059v24.33c0 7.373 3.687 11.06 11.06 11.06h26.542v8.847h-26.542c-13.272 0-19.907-6.636-19.907-19.907zm11.059 11.059v-11.059c0-5.898 2.949-8.847 8.848-8.847h26.542v8.847h-24.331c-1.474 0-2.211.737-2.211 2.212h19.906v8.847zm0 2.212h28.754v8.848h-19.906c0 1.474.737 2.211 2.211 2.211h24.331v8.848h-26.542c-5.899 0-8.848-2.949-8.848-8.848z"/><path d="m106.168 65.088v-64.143h8.848v64.143zm11.059-64.143h8.848v20.643l8.847-20.643h8.848l-13.272 30.965 13.272 33.178h-8.848l-8.847-22.118v22.118h-8.848zm28.754 64.143-13.271-33.178 13.271-30.965h8.848l-13.271 30.965 13.271 33.178z"/><path d="m159.252 65.088v-53.084c0-7.373 3.687-11.059 11.06-11.059 4.423 0 7.372.884 8.847 2.654l16.22 19.906c.983 1.18 1.475 1.033 1.475-.442v-22.118h8.847v46.743c.197 3.539-.295 4.424-1.475 2.654l-31.555-38.338c-1.18-1.475-2.286-2.212-3.318-2.212s-1.45 1.475-1.253 4.424v50.872zm57.508-64.143v53.084c0 7.373-3.686 11.059-11.059 11.059-4.424 0-7.373-.885-8.847-2.654l-16.221-19.907c-.983-1.179-1.474-1.032-1.474.443v22.118h-8.847v-46.744c-.197-3.539.294-4.423 1.474-2.654l31.556 38.339c1.179 1.474 2.285 2.212 3.317 2.212 1.033 0 1.45-1.475 1.254-4.424v-50.872h8.847z"/><path d="m269.844 20.851v24.33c0 13.271-6.635 19.907-19.906 19.907h-8.848c-13.271 0-19.906-6.636-19.906-19.907v-24.33c0-13.271 6.635-19.906 19.906-19.906h8.848c13.271 0 19.906 6.635 19.906 19.906zm-11.059 0v24.33c0 5.899-2.949 8.848-8.847 8.848h-8.848c-5.898 0-8.847-2.949-8.847-8.848v-24.33c0-5.898 2.949-8.847 8.847-8.847h8.848c5.898 0 8.847 2.949 8.847 8.847zm2.212 0c0-7.373-3.686-11.059-11.059-11.059h-8.848c-7.372 0-11.059 3.686-11.059 11.059v24.33c0 7.373 3.687 11.06 11.059 11.06h8.848c7.373 0 11.059-3.687 11.059-11.06zm-11.059 2.212c0-1.475-.737-2.212-2.212-2.212h-4.424c-1.474 0-2.212.737-2.212 2.212v19.907c0 1.474.738 2.211 2.212 2.211h4.424c1.475 0 2.212-.737 2.212-2.211z"/><path d="m325.14 21.957c0 5.8-2.052 10.752-6.156 14.856s-8.688 6.157-13.75 6.157h-8.848v-8.848h8.848c2.605 0 5.099-1.192 7.483-3.576 2.384-2.383 3.576-5.247 3.576-8.589 0-3.293-1.192-6.144-3.576-8.552-2.384-2.409-4.878-3.613-7.483-3.613h-22.119v55.296h-8.847v-64.143h30.966c5.062 0 9.646 2.064 13.75 6.193s6.156 9.068 6.156 14.819zm-11.059 0c0 2.753-.971 5.1-2.912 7.041-1.942 1.942-3.92 2.912-5.935 2.912h-8.848v-8.847h6.636c1.474 0 2.212-.369 2.212-1.106s-.738-1.106-2.212-1.106h-8.847v44.237h-8.848v-53.084h19.907c2.015 0 3.993.983 5.935 2.949 1.941 1.966 2.912 4.301 2.912 7.004z"/><path d="m343.058 56.241h26.173l-17.694-44.974c-.492-.983-1.475-1.475-2.949-1.475-1.229 0-2.212.492-2.949 1.475l-19.907 53.821h-8.847l20.643-56.771c2.458-4.915 6.144-7.372 11.06-7.372 5.652 0 9.339 2.457 11.059 7.372l21.381 56.771h-37.97zm0-2.212v-4.793l-6.267 15.852h-8.847l19.169-51.61c.246-.983.737-1.474 1.475-1.474.737 0 1.228.491 1.474 1.474l15.483 40.551zm5.53-19.17-4.055 10.322h8.11z"/><path d="m436.324 21.957c0 5.8-1.487 10.187-4.461 13.161-2.973 2.973-5.173 4.976-6.598 6.008l11.059 23.962h-8.847l-12.977-27.427c-.589-1.278-.442-2.064.443-2.359 3.588-.787 6.574-2.372 8.958-4.756 2.384-2.383 3.576-5.247 3.576-8.589 0-3.293-1.192-6.144-3.576-8.552-2.384-2.409-4.879-3.613-7.484-3.613h-22.118v55.296h-8.847v-64.143h30.965c5.063 0 9.646 2.064 13.751 6.193 4.104 4.129 6.156 9.068 6.156 14.819zm-11.059 0c0 2.753-.971 5.1-2.913 7.041-1.941 1.942-5.246 3.502-9.916 4.682-1.081.295-1.376.983-.885 2.064l13.714 29.344h-8.848l-11.059-22.118v22.118h-8.847v-53.084h19.906c2.016 0 3.994.983 5.935 2.949 1.942 1.966 2.913 4.301 2.913 7.004zm-19.907-1.106v4.719c1.671-.295 3.932-.787 6.783-1.475s4.276-1.769 4.276-3.244z"/><path d="m491.62 21.957c0 5.8-1.487 10.187-4.461 13.161-2.973 2.973-5.173 4.976-6.598 6.008l11.059 23.962h-8.847l-12.977-27.427c-.589-1.278-.442-2.064.443-2.359 3.588-.787 6.574-2.372 8.958-4.756 2.384-2.383 3.576-5.247 3.576-8.589 0-3.293-1.192-6.144-3.576-8.552-2.384-2.409-4.879-3.613-7.484-3.613h-22.118v55.296h-8.847v-64.143h30.965c5.063 0 9.646 2.064 13.751 6.193 4.104 4.129 6.156 9.068 6.156 14.819zm-11.059 0c0 2.753-.971 5.1-2.913 7.041-1.941 1.942-5.247 3.502-9.916 4.682-1.081.295-1.376.983-.885 2.064l13.714 29.344h-8.848l-11.059-22.118v22.118h-8.847v-53.084h19.906c2.016 0 3.994.983 5.935 2.949 1.942 1.966 2.913 4.301 2.913 7.004zm-19.907-1.106v4.719c1.671-.295 3.932-.787 6.783-1.475s4.276-1.769 4.276-3.244z"/><path d="m544.704 20.851v24.33c0 13.271-6.635 19.907-19.907 19.907h-8.847c-13.271 0-19.906-6.636-19.906-19.907v-24.33c0-13.271 6.635-19.906 19.906-19.906h8.847c13.272 0 19.907 6.635 19.907 19.906zm-11.059 0v24.33c0 5.899-2.949 8.848-8.848 8.848h-8.847c-5.898 0-8.847-2.949-8.847-8.848v-24.33c0-5.898 2.949-8.847 8.847-8.847h8.847c5.899 0 8.848 2.949 8.848 8.847zm2.212 0c0-7.373-3.687-11.059-11.06-11.059h-8.847c-7.373 0-11.059 3.686-11.059 11.059v24.33c0 7.373 3.686 11.06 11.059 11.06h8.847c7.373 0 11.06-3.687 11.06-11.06zm-11.06 2.212c0-1.475-.737-2.212-2.211-2.212h-4.424c-1.475 0-2.212.737-2.212 2.212v19.907c0 1.474.737 2.211 2.212 2.211h4.424c1.474 0 2.211-.737 2.211-2.211z"/><path d="m549.128.945v8.847h50.872v-8.847zm0 11.059v8.847h15.483v44.237h8.847v-53.084h-24.33zm26.542 53.084h8.847v-44.237h15.483v-8.847h-24.33z"/></g></svg>