<?xml version="1.0" encoding="UTF-8" standalone="no"?><!DOCTYPE svg PUBLIC "-//W3C//DTD SVG 1.1//EN" "http://www.w3.org/Graphics/SVG/1.1/DTD/svg11.dtd"><svg width="100%" height="100%" viewBox="0 0 600 221" version="1.1" xmlns="http://www.w3.org/2000/svg" xmlns:xlink="http://www.w3.org/1999/xlink" xml:space="preserve" xmlns:serif="http://www.serif.com/" style="fill-rule:evenodd;clip-rule:evenodd;stroke-linejoin:round;stroke-miterlimit:2;"><g id="teknoparrot"><g><path d="M119.146,28.196l-40.101,-0l-7.443,107.972l-39.959,7.392l8.564,-113.09l-40.207,-0l2.274,-30.271l116.872,-0l0,27.997Z" style="fill:#fff;fill-rule:nonzero;"/><path d="M231.912,89.847l-12.185,23.411l-94.456,10.681l3.411,-115.782l104.367,-0l-11.704,22.564l-57.236,1.137l0,20.868l56.099,-2.273l0,20.8l-56.099,3.41l0,20.527l67.803,-5.343Z" style="fill:#fff;fill-rule:nonzero;"/><path d="M347.004,112.069l-46.215,-1.386l-28.229,-35.229l0,35.192l-34.291,1.362l0,-103.851l34.291,-0l0,31.781l25.955,-31.781l41.848,-0l-46.922,51.286l1.354,1.392l52.209,51.234Z" style="fill:#fff;fill-rule:nonzero;"/><path d="M460.064,123.939l-38.846,-5.375l-2.274,-88.225l-30.207,0l-0,84.995l-36.565,-2.922l0,-104.255l89.254,-0c3.438,-0 6.42,1.028 8.946,3.085c2.596,2.057 3.894,4.448 3.894,7.172l5.798,105.525Z" style="fill:#fff;fill-rule:nonzero;"/><path d="M600,137.395c0,3.438 -1.298,6.455 -3.894,9.051c-2.526,2.597 -5.509,3.895 -8.947,3.895l-96.769,-19.225c-3.439,-0 -6.456,-1.299 -9.052,-3.895c-2.596,-2.596 -3.894,-5.613 -3.894,-9.051l-4.548,-105.025c0,-3.438 1.298,-6.456 3.895,-9.052c2.596,-2.596 5.613,-3.894 9.051,-3.894l88.812,-0c3.439,-0 6.421,1.298 8.947,3.894c2.596,2.596 6.168,7.887 6.168,11.325l10.231,121.977Zm-47.827,-24.47l-3.411,-83.592l-33.617,-0l3.41,79.044l33.618,4.548Z" style="fill:#fff;fill-rule:nonzero;"/></g><g><path d="M488.235,157.36l-18.436,0l-0,63.529l-20.805,0l0,-63.529l-18.492,0l-0,-14.997l57.733,0l0,14.997Z" style="fill:#fff;"/><path d="M301.159,220.889l-18.437,0l-18.492,-49.659l13.869,0l0,-13.87l-16.181,0l0,63.529l-20.804,0l-0,-78.526l50.855,0c1.842,0 3.439,0.696 4.792,2.086c1.391,1.391 2.086,3.007 2.086,4.849l0,26.555c0,1.842 -0.695,3.458 -2.086,4.849c-1.353,1.391 -2.95,2.086 -4.792,2.086l-4.06,-0l13.25,38.101Z" style="fill:#fff;"/><path d="M365.827,220.889l-18.436,0l-18.493,-49.659l13.87,0l-0,-13.87l-16.182,0l0,63.529l-20.804,0l0,-78.526l50.855,0c1.842,0 3.439,0.696 4.793,2.086c1.39,1.391 2.086,3.007 2.086,4.849l-0,26.555c-0,1.842 -0.696,3.458 -2.086,4.849c-1.354,1.391 -2.951,2.086 -4.793,2.086l-4.059,-0l13.249,38.101Z" style="fill:#fff;"/><path d="M241.114,220.889l-46.176,0l0,-14.997l16.858,-0l-11.107,-35.79l-17.309,50.787l-22.947,0l28.754,-78.526l23.06,0l28.867,78.526Z" style="fill:#fff;"/><path d="M426.337,213.954c0,1.842 -0.695,3.458 -2.086,4.849c-1.353,1.391 -2.951,2.086 -4.792,2.086l-43.921,0c-1.841,0 -3.458,-0.695 -4.848,-2.086c-1.391,-1.391 -2.086,-3.007 -2.086,-4.849l-0,-64.656c-0,-1.842 0.695,-3.458 2.086,-4.849c1.39,-1.39 3.007,-2.086 4.848,-2.086l43.921,0c1.841,0 3.439,0.696 4.792,2.086c1.391,1.391 2.086,3.007 2.086,4.849l0,64.656Zm-20.748,-8.062l0,-48.532l-16.181,0l-0,48.532l16.181,-0Z" style="fill:#fff;"/><path d="M169.498,180.476c0,1.842 -0.695,3.458 -2.086,4.849c-1.353,1.391 -2.95,2.086 -4.792,2.086l-30.051,0l0,33.478l-20.804,0l-0,-78.526l50.855,0c1.842,0 3.439,0.696 4.792,2.086c1.391,1.391 2.086,3.007 2.086,4.849l0,31.178Zm-20.748,-4.623l0,-18.493l-16.181,0l0,18.493l16.181,0Z" style="fill:#fff;"/></g></g></svg>