<svg clip-rule="evenodd" fill-rule="evenodd" stroke-linejoin="round" stroke-miterlimit="2" viewBox="0 0 600 240" xmlns="http://www.w3.org/2000/svg"><g fill="#fff"><path d="m36.186 139.393v98.73h37.943v-98.73h36.197v-32.761h-110.326v32.761z"/><path d="m121.413 106.632h37.869v131.491h-37.869z"/><path d="m583.741 100.591h-39.146l-62.282 74.553-.04 34.134h58.864v27.805h42.604v-27.805h16.259v-36.277h-16.259zm-7.045 7.045v72.41h16.259v22.188h-16.259v27.805c0-.001-28.515-.001-28.515-.001v-27.804h-58.855s.028-24.531.028-24.531 58.535-70.067 58.535-70.067zm-28.515 21.826-43 50.584h43zm-27.765 43.539h20.721v-24.375z"/><path d="m441.707 239.371 56.96-132.739h-12.216l-56.96 132.739z"/><path d="m167.908 153.127h33.815v28.17h-33.815z"/><path d="m282.032 186.941c-.429 23.098-14.139 25.432-21.134 25.361-6.918-.07-13.305-6.455-14.853-11.737 0 0-32.211 2.119-32.181 2.318.844 5.639 2.404 9.63 5.077 14.043 2.678 4.419 6.13 8.163 10.357 11.232 4.218 3.062 9.067 5.36 14.55 6.891 5.456 1.523 13.298 2.614 19.594 2.614 19.405 0 56.146-10.567 56.146-67.007 0-64.026-45.368-66.138-56.576-66.138-7.707 0-51.848 4.227-51.848 46.975 0 24.881 18.033 43.902 45.507 43.902 7.16 0 20.608-1.793 25.361-8.454zm-17.964-56.615c11.081 0 20.078 9.058 20.078 20.215 0 11.156-8.997 20.214-20.078 20.214s-20.077-9.058-20.077-20.214c0-11.157 8.996-20.215 20.077-20.215z"/><path d="m397.834 186.941c-.429 23.098-14.138 25.432-21.134 25.361-6.918-.07-13.305-6.455-14.853-11.737 0 0-32.211 2.119-32.181 2.318.844 5.639 2.404 9.63 5.078 14.043 2.677 4.419 6.129 8.163 10.356 11.232 4.218 3.062 9.067 5.36 14.55 6.891 5.457 1.523 13.298 2.614 19.594 2.614 19.405 0 56.146-10.567 56.146-67.007 0-64.026-45.368-66.138-56.576-66.138-7.707 0-51.847 4.227-51.847 46.975 0 24.881 18.032 43.902 45.507 43.902 7.159 0 20.607-1.793 25.36-8.454zm-17.964-56.615c11.081 0 20.078 9.058 20.078 20.215 0 11.156-8.997 20.214-20.078 20.214s-20.077-9.058-20.077-20.214c0-11.157 8.996-20.215 20.077-20.215z"/><path d="m44.448 11.482c4.44 0 9.728.449 11.324 1.247v5.637c0 5.687 3.243 6.485 3.243 6.485v5.238c0 3.642-.798 6.087-.798 6.087-1.647.399-5.687 1.596-10.127 4.838-3.243 2.445-6.086 6.086-6.086 9.728 0 2.395.399 4.041 1.247 5.637 0 0-1.646.798-4.49.798-3.592-.399-7.632-3.242-10.077-7.682-3.242-5.637-4.839-12.521-8.48-12.521-3.642 0-3.642 3.641-6.486 3.641-3.242 0-5.238-5.238-6.036-7.682-2.045-3.642-6.884-4.839-7.283-10.526h15.365v-21.8h14.517v9.279c.448.399 1.646.798 3.242 1.197l-1.596 7.283h-4.44l-1.646 6.485h4.44l-1.597 8.082c0 1.197-.399 4.041 0 5.238.798 3.242 2.844 4.44 5.637 4.44 4.041 0 7.683-1.996 7.683-1.996l1.646-5.238h-2.844c-.798 0-1.596 0-1.197-2.045l1.996-8.481h4.439l1.647-6.485h-4.44z"/><path d="m35.568 13.927h5.638l-4.44 21.051h-5.637z"/><path d="m39.609 6.244c1.597 0 3.243 1.197 3.243 3.243 0 1.596-1.646 2.843-3.243 2.843-1.646 0-3.243-1.247-3.243-2.843 0-2.046 1.597-3.243 3.243-3.243"/><path d="m180.287 32.135c3.242 0 5.238.399 5.637.798.798 0 .399-.399.798-.798h.449l1.995 5.637-.798.399c-1.197-1.596-3.642-3.193-7.682-3.193-1.597 0-4.839.399-4.839 2.794 0 4.839 14.966 2.045 14.966 11.723 0 4.44-3.642 7.682-10.526 7.682-2.445 0-4.44-.399-6.485-1.197-.4 0-.799.399-.799.798l-.798.399-2.444-7.283.798-.399c2.045 2.444 4.889 4.44 9.728 4.44 4.04 0 5.238-1.597 5.238-3.193 0-5.687-14.567-2.045-14.567-11.773 0-4.44 4.49-6.834 9.329-6.834"/><path d="m96.179 56.778v-.798c1.647-.399 2.445-.798 2.445-3.242v-16.562c0-2.445-.798-2.844-2.445-3.243v-.798h19.007l2.045 5.238-.798.399c-1.646-1.996-3.243-2.395-6.086-2.395h-4.44c-1.646 0-2.045.399-2.045 1.597v5.238h6.485c2.444 0 2.843-.399 3.243-1.597h.798v6.485h-.798c-.4-1.247-.799-1.646-3.243-1.646h-6.485v6.485c0 1.597.399 1.597 2.045 1.597h5.637c2.445 0 4.44 0 6.485-2.395l.399.399-1.596 5.238z"/><path d="m90.143 52.738c0 2.444.798 2.843 1.996 3.242v.798h-10.476v-.798c1.197-.399 2.394-.798 2.394-3.242v-23.447c0-1.197-.798-1.197-2.394-1.197-5.288 0-7.284 0-9.329 1.995h-.399l2.045-5.637h26.24l2.045 5.637h-.798c-1.646-1.995-4.04-1.995-9.328-1.995-1.597 0-1.996 0-1.996 1.197z"/><path d="m128.954 44.656-6.884-8.88c-1.197-2.045-2.045-2.444-3.642-2.843v-.798h11.324v.798c-1.197 0-2.045 1.197-.798 2.843l3.193 4.839 4.091-5.238c.798-1.247.798-2.444-.849-2.444v-.798h9.329v.798c-1.646.399-2.843.798-4.44 2.444l-5.687 8.082 6.885 9.678c.798 1.197 1.596 2.045 1.596 2.045s1.247-.399 2.843-4.44l7.683-18.607h4.839l8.929 21.002c.399 1.197 1.596 2.444 2.794 2.843v.798h-10.476v-.798c.798 0 2.394-.399 1.197-2.843l-1.197-3.243h-10.127l-1.197 3.243c-1.247 2.444.798 2.843 1.197 2.843v.798h-15.764v-.798c.798 0 2.844-.798 1.197-2.843l-4.04-5.238-4.041 5.637c-1.197 1.646 0 2.444.798 2.444v.798h-9.279v-.798c1.597-.399 3.243-1.197 4.44-3.242zm25.841-7.682-4.041 9.727h7.683z"/><path d="m2.394 60.42c0-2.444-1.197-2.844-2.394-3.243v-.399h10.476v.399c-.798.399-1.996.799-1.996 3.243v24.643c0 2.445 1.198 2.844 1.996 3.243v.798h-10.476v-.798c1.197-.399 2.394-.798 2.394-3.243z"/><path d="m35.967 89.104h-.798l-16.612-17.36v13.319c0 2.445 1.248 2.844 2.046 3.243v.798h-7.284v-.798c1.198-.399 1.996-.798 1.996-3.243v-16.562c0-2.444-.798-2.843-1.996-3.242v-.798h6.885l12.521 13.768v-9.728c0-2.444-.798-2.843-1.996-3.242v-.798h7.633v.798c-1.197.399-2.395.798-2.395 3.242z"/><path d="m131.748 80.624c0 7.283-6.435 8.879-10.476 8.879-4.44 0-10.925-1.596-10.925-8.48v-12.522c0-2.444-1.197-3.242-2.444-3.242v-.798h10.126v.798c-1.197 0-2.444.798-2.444 3.242v12.123c0 4.04 2.444 5.687 6.485 5.687 3.642 0 6.485-1.647 6.485-5.687v-12.123c0-2.444-1.247-2.843-2.444-3.242v-.798h7.682v.798c-1.197.399-2.045.798-2.045 3.242z"/><path d="m68.692 69.3c0-1.597 0-1.597-1.197-1.597-4.04 0-4.839 0-7.283 2.844l-.399-.399 1.596-5.687h20.254l1.995 5.687-.798.399c-2.045-2.844-2.843-2.844-6.884-2.844-1.197 0-1.597 0-1.597 1.597v15.763c0 2.445.799 2.844 2.395 3.243v.798h-10.077v-.798c1.596-.399 1.995-.798 1.995-3.243z"/><path d="m50.135 64.062c2.794 0 4.839.798 5.238.798.798.399.798-.399.798-.399l.798-.399 1.646 6.086h-.847c-1.198-1.248-3.193-2.844-7.234-2.844-2.045 0-5.288.399-5.288 2.844 0 4.439 15.365 1.995 15.365 11.673 0 4.49-3.642 7.283-10.476 7.283-2.844 0-4.889-.399-6.884-.798-.399 0-.399.399-.848.399 0 .399-.798.399-.798.399l-2.395-6.834.798-.449c1.996 2.444 4.839 4.49 9.678 4.49 4.041 0 5.288-1.647 5.288-3.243 0-5.687-14.567-2.045-14.567-11.723 0-4.44 4.839-7.283 9.728-7.283"/><path d="m164.523 85.063c0 2.445 1.197 2.844 2.394 3.243v.798h-10.077v-.798c1.198-.399 2.395-.798 2.395-3.243v-11.723l-8.88 16.163h-.798l-8.88-16.562v12.122c0 2.445 1.198 2.844 2.395 3.243v.798h-7.683v-.798c.849-.399 2.046-.798 2.046-3.243v-16.562c0-2.444-1.197-2.843-2.046-3.242v-.798h7.683l8.081 16.163 8.93-16.163h6.834v.798c-1.197.399-2.394.798-2.394 3.242z"/><path d="m215.456 89.104h-.798l-16.612-17.36v13.319c0 2.445 1.247 2.844 2.045 3.243v.798h-7.682v-.798c1.197-.399 2.444-.798 2.444-3.243v-16.562c0-2.444-.848-2.843-2.444-3.242v-.798h7.283l12.521 13.768v-9.728c0-2.444-1.197-2.843-2.444-3.242v-.798h7.732v.798c-.848.399-2.045.798-2.045 3.242z"/><path d="m169.761 89.104v-.798c1.197-.399 2.045-1.197 2.045-3.243v-16.562c0-2.444-.848-2.843-2.045-3.242v-.798h19.006l1.646 5.238-.449.449c-1.596-2.046-3.641-2.445-6.036-2.445h-4.839c-1.247 0-1.646.399-1.646 1.597v5.287h6.086c2.395 0 3.193-.848 3.193-1.646h.848v6.485h-.848c0-1.197-.798-1.596-3.193-1.596h-6.086v6.435c0 1.247.399 1.646 1.646 1.646h5.637c2.445 0 4.839 0 6.485-2.444l.799.399-2.046 5.238z"/><path d="m226.78 69.3c0-1.597-.399-1.597-1.247-1.597-4.44 0-4.839 0-7.234 2.844l-.449-.399 1.647-5.687h20.203l2.046 5.687-.798.399c-2.046-2.844-2.844-2.844-6.885-2.844-1.247 0-1.646 0-1.646 1.597v15.763c0 2.445.798 2.844 2.444 3.243v.798h-10.126v-.798c1.247-.399 2.045-.798 2.045-3.243z"/><path d="m252.222 64.062c2.843 0 4.888.798 5.687.798.399.399.399-.399.399-.399.399 0 .798-.399.798-.399l1.596 6.086h-.399c-1.197-1.248-3.642-2.844-7.632-2.844-2.046 0-4.889.399-4.889 2.844 0 4.439 14.965 1.995 14.965 11.673 0 4.49-3.641 7.283-10.525 7.283-2.794 0-4.839-.399-6.835-.798-.399 0-.399.399-.399.399-.449.399-.848.399-.848.399l-2.793-6.834.798-.449c1.995 2.444 5.238 4.49 9.678 4.49 4.04 0 5.287-1.647 5.287-3.243 0-5.687-14.566-2.045-14.566-11.723 0-4.44 4.839-7.283 9.678-7.283"/><path d="m96.978 64.461c5.287 0 9.328 2.045 9.328 6.485 0 4.839-4.44 5.637-6.884 6.036 6.485 2.444 6.884 10.925 10.925 10.925v.399c-.798.399-1.596.798-3.642.798-8.879 0-6.884-10.875-12.521-10.875h-2.843v6.834c0 2.445.798 2.844 2.045 3.243v.798h-9.728v-.798c1.197-.399 2.045-.798 2.045-3.243v-16.562c0-2.444-.848-2.843-2.045-3.242v-.798zm-5.637 10.925h3.242c2.844 0 6.036-1.198 6.036-4.041 0-1.646-1.197-4.041-4.839-4.041h-2.793c-1.247 0-1.646.399-1.646 1.996z"/></g></svg>