<?xml version="1.0" encoding="UTF-8" standalone="no"?><!DOCTYPE svg PUBLIC "-//W3C//DTD SVG 1.1//EN" "http://www.w3.org/Graphics/SVG/1.1/DTD/svg11.dtd"><svg width="100%" height="100%" viewBox="0 0 600 102" version="1.1" xmlns="http://www.w3.org/2000/svg" xmlns:xlink="http://www.w3.org/1999/xlink" xml:space="preserve" xmlns:serif="http://www.serif.com/" style="fill-rule:evenodd;clip-rule:evenodd;stroke-linejoin:round;stroke-miterlimit:2;"><g id="texas_instruments_ti99"><g><path id="path10" d="M50.326,13.157c5.027,-0 11.015,0.508 12.822,1.412l0,6.382c0,6.439 3.671,7.343 3.671,7.343l0,5.931c0,4.123 -0.903,6.891 -0.903,6.891c-1.864,0.452 -6.439,1.807 -11.466,5.479c-3.672,2.767 -6.891,6.891 -6.891,11.014c-0,2.711 0.452,4.575 1.412,6.382c-0,0 -1.864,0.904 -5.084,0.904c-4.066,-0.452 -8.642,-3.671 -11.409,-8.698c-3.672,-6.383 -5.479,-14.178 -9.602,-14.178c-4.124,0 -4.124,4.124 -7.343,4.124c-3.672,-0 -5.931,-5.931 -6.835,-8.699c-2.315,-4.123 -7.794,-5.479 -8.246,-11.918l17.397,0l-0,-24.683l16.436,0l0,10.506c0.508,0.452 1.864,0.904 3.672,1.356l-1.808,8.246l-5.027,0l-1.864,7.343l5.027,0l-1.807,9.15c-0,1.356 -0.452,4.575 -0,5.931c0.903,3.671 3.219,5.027 6.382,5.027c4.575,0 8.699,-2.259 8.699,-2.259l1.864,-5.931l-3.22,0c-0.904,0 -1.807,0 -1.356,-2.316l2.26,-9.602l5.027,0l1.864,-7.343l-5.027,0l1.355,-7.794" style="fill:#fff;"/><path id="path14" d="M40.272,15.924l6.383,0l-5.027,23.836l-6.383,0l5.027,-23.836" style="fill:#fff;"/><path id="path18" d="M44.847,7.226c1.808,-0 3.672,1.355 3.672,3.671c-0,1.808 -1.864,3.22 -3.672,3.22c-1.863,-0 -3.671,-1.412 -3.671,-3.22c0,-2.316 1.808,-3.671 3.671,-3.671" style="fill:#fff;"/><path id="path22" d="M204.13,36.541c3.671,-0 5.93,0.451 6.382,0.903c0.904,0 0.452,-0.452 0.904,-0.903l0.508,-0l2.26,6.382l-0.904,0.452c-1.356,-1.807 -4.123,-3.615 -8.698,-3.615c-1.808,0 -5.479,0.452 -5.479,3.163c-0,5.479 16.945,2.316 16.945,13.274c-0,5.027 -4.124,8.698 -11.918,8.698c-2.768,0 -5.027,-0.452 -7.343,-1.355c-0.452,-0 -0.904,0.451 -0.904,0.903l-0.904,0.452l-2.767,-8.246l0.904,-0.452c2.315,2.767 5.535,5.027 11.014,5.027c4.575,-0 5.93,-1.808 5.93,-3.615c0,-6.439 -16.493,-2.316 -16.493,-13.33c0,-5.027 5.084,-7.738 10.563,-7.738" style="fill:#fff;"/><path id="path26" d="M108.899,64.443l0,-0.903c1.864,-0.452 2.768,-0.904 2.768,-3.672l0,-18.752c0,-2.768 -0.904,-3.22 -2.768,-3.672l0,-0.903l21.52,-0l2.316,5.93l-0.904,0.452c-1.864,-2.259 -3.671,-2.711 -6.89,-2.711l-5.027,0c-1.864,0 -2.316,0.452 -2.316,1.807l-0,5.931l7.343,0c2.767,0 3.219,-0.452 3.671,-1.807l0.904,-0l-0,7.343l-0.904,-0c-0.452,-1.413 -0.904,-1.864 -3.671,-1.864l-7.343,-0l-0,7.342c-0,1.808 0.452,1.808 2.316,1.808l6.382,-0c2.768,-0 5.027,-0 7.343,-2.711l0.452,0.452l-1.808,5.93l-23.384,0" style="fill:#fff;"/><path id="path30" d="M102.065,59.868c-0,2.768 0.904,3.22 2.259,3.672l0,0.903l-11.861,0l-0,-0.903c1.355,-0.452 2.711,-0.904 2.711,-3.672l0,-26.547c0,-1.356 -0.904,-1.356 -2.711,-1.356c-5.987,0 -8.247,0 -10.563,2.26l-0.452,-0l2.316,-6.383l29.71,0l2.316,6.383l-0.904,-0c-1.863,-2.26 -4.575,-2.26 -10.562,-2.26c-1.807,0 -2.259,0 -2.259,1.356l-0,26.547" style="fill:#fff;"/><path id="path34" d="M146.009,50.718l-7.795,-10.054c-1.355,-2.316 -2.316,-2.768 -4.123,-3.22l-0,-0.903l12.821,-0l0,0.903c-1.355,0 -2.315,1.356 -0.903,3.22l3.615,5.479l4.631,-5.931c0.904,-1.412 0.904,-2.768 -0.96,-2.768l-0,-0.903l10.562,-0l0,0.903c-1.864,0.452 -3.219,0.904 -5.027,2.768l-6.439,9.15l7.795,10.958c0.904,1.356 1.807,2.316 1.807,2.316c0,-0 1.412,-0.452 3.22,-5.027l8.698,-21.068l5.479,-0l10.111,23.779c0.452,1.356 1.807,2.768 3.163,3.22l-0,0.903l-11.862,0l0,-0.903c0.904,-0 2.712,-0.452 1.356,-3.22l-1.356,-3.671l-11.466,-0l-1.355,3.671c-1.412,2.768 0.903,3.22 1.355,3.22l0,0.903l-17.848,0l-0,-0.903c0.903,-0 3.219,-0.904 1.355,-3.22l-4.575,-5.931l-4.575,6.383c-1.356,1.864 -0,2.768 0.904,2.768l-0,0.903l-10.506,0l-0,-0.903c1.807,-0.452 3.671,-1.356 5.027,-3.672l6.891,-9.15Zm29.258,-8.699l-4.575,11.015l8.698,-0l-4.123,-11.015" style="fill:#fff;"/><path id="path38" d="M2.711,68.567c0,-2.768 -1.356,-3.22 -2.711,-3.672l0,-0.452l11.861,0l0,0.452c-0.903,0.452 -2.259,0.904 -2.259,3.672l0,27.902c0,2.768 1.356,3.22 2.259,3.672l0,0.903l-11.861,0l0,-0.903c1.355,-0.452 2.711,-0.904 2.711,-3.672l0,-27.902" style="fill:#fff;"/><path id="path42" d="M40.724,101.044l-0.903,0l-18.809,-19.656l-0,15.081c-0,2.768 1.412,3.22 2.316,3.672l-0,0.903l-8.247,0l-0,-0.903c1.355,-0.452 2.259,-0.904 2.259,-3.672l0,-18.752c0,-2.768 -0.904,-3.22 -2.259,-3.672l-0,-0.903l7.795,-0l14.177,15.589l-0,-11.014c-0,-2.768 -0.904,-3.22 -2.26,-3.672l0,-0.903l8.642,-0l0,0.903c-1.355,0.452 -2.711,0.904 -2.711,3.672l0,23.327" style="fill:#fff;"/><path id="path46" d="M149.172,91.442c-0,8.247 -7.287,10.054 -11.862,10.054c-5.027,0 -12.369,-1.807 -12.369,-9.602l-0,-14.177c-0,-2.768 -1.356,-3.672 -2.768,-3.672l-0,-0.903l11.466,-0l-0,0.903c-1.356,0 -2.768,0.904 -2.768,3.672l0,13.725c0,4.575 2.768,6.439 7.343,6.439c4.123,0 7.343,-1.864 7.343,-6.439l-0,-13.725c-0,-2.768 -1.412,-3.22 -2.768,-3.672l0,-0.903l8.699,-0l-0,0.903c-1.356,0.452 -2.316,0.904 -2.316,3.672l-0,13.725" style="fill:#fff;"/><path id="path50" d="M77.777,78.621c0,-1.808 0,-1.808 -1.355,-1.808c-4.576,0 -5.479,0 -8.247,3.22l-0.452,-0.452l1.808,-6.439l22.932,-0l2.259,6.439l-0.904,0.452c-2.315,-3.22 -3.219,-3.22 -7.794,-3.22c-1.356,0 -1.808,0 -1.808,1.808l0,17.848c0,2.768 0.904,3.22 2.711,3.672l0,0.903l-11.409,0l-0,-0.903c1.807,-0.452 2.259,-0.904 2.259,-3.672l0,-17.848" style="fill:#fff;"/><path id="path54" d="M56.765,72.69c3.163,-0 5.479,0.904 5.931,0.904c0.904,0.451 0.904,-0.452 0.904,-0.452l0.904,-0.452l1.863,6.891l-0.96,-0c-1.355,-1.412 -3.615,-3.22 -8.19,-3.22c-2.315,0 -5.987,0.452 -5.987,3.22c0,5.027 17.397,2.259 17.397,13.217c-0,5.083 -4.123,8.246 -11.862,8.246c-3.219,0 -5.535,-0.452 -7.794,-0.903c-0.452,-0 -0.452,0.451 -0.96,0.451c-0,0.452 -0.904,0.452 -0.904,0.452l-2.711,-7.738l0.903,-0.508c2.26,2.767 5.479,5.083 10.958,5.083c4.575,0 5.987,-1.864 5.987,-3.671c0,-6.439 -16.493,-2.316 -16.493,-13.274c0,-5.027 5.479,-8.246 11.014,-8.246" style="fill:#fff;"/><path id="path58" d="M186.281,96.469c0,2.768 1.356,3.22 2.711,3.672l0,0.903l-11.409,0l-0,-0.903c1.355,-0.452 2.711,-0.904 2.711,-3.672l-0,-13.273l-10.054,18.3l-0.904,0l-10.054,-18.752l0,13.725c0,2.768 1.356,3.22 2.711,3.672l0,0.903l-8.698,0l-0,-0.903c0.96,-0.452 2.316,-0.904 2.316,-3.672l-0,-18.752c-0,-2.768 -1.356,-3.22 -2.316,-3.672l-0,-0.903l8.698,-0l9.151,18.3l10.11,-18.3l7.738,-0l0,0.903c-1.355,0.452 -2.711,0.904 -2.711,3.672l0,18.752" style="fill:#fff;"/><path id="path62" d="M243.95,101.044l-0.903,0l-18.809,-19.656l-0,15.081c-0,2.768 1.412,3.22 2.316,3.672l-0,0.903l-8.699,0l0,-0.903c1.356,-0.452 2.768,-0.904 2.768,-3.672l-0,-18.752c-0,-2.768 -0.96,-3.22 -2.768,-3.672l0,-0.903l8.247,-0l14.177,15.589l0,-11.014c0,-2.768 -1.356,-3.22 -2.768,-3.672l0,-0.903l8.755,-0l0,0.903c-0.96,0.452 -2.316,0.904 -2.316,3.672l0,23.327" style="fill:#fff;"/><path id="path66" d="M192.212,101.044l-0,-0.903c1.355,-0.452 2.316,-1.356 2.316,-3.672l-0,-18.752c-0,-2.768 -0.961,-3.22 -2.316,-3.672l-0,-0.903l21.52,-0l1.864,5.93l-0.508,0.509c-1.808,-2.316 -4.124,-2.768 -6.835,-2.768l-5.479,0c-1.412,0 -1.864,0.452 -1.864,1.808l0,5.987l6.891,-0c2.711,-0 3.615,-0.96 3.615,-1.864l0.96,-0l0,7.343l-0.96,-0c0,-1.356 -0.904,-1.808 -3.615,-1.808l-6.891,0l0,7.286c0,1.413 0.452,1.864 1.864,1.864l6.383,0c2.767,0 5.479,0 7.343,-2.767l0.903,0.452l-2.315,5.93l-22.876,0" style="fill:#fff;"/><path id="path70" d="M256.772,78.621c0,-1.808 -0.452,-1.808 -1.412,-1.808c-5.027,0 -5.479,0 -8.19,3.22l-0.508,-0.452l1.864,-6.439l22.875,-0l2.316,6.439l-0.904,0.452c-2.316,-3.22 -3.219,-3.22 -7.794,-3.22c-1.412,0 -1.864,0 -1.864,1.808l-0,17.848c-0,2.768 0.903,3.22 2.767,3.672l0,0.903l-11.466,0l0,-0.903c1.412,-0.452 2.316,-0.904 2.316,-3.672l0,-17.848" style="fill:#fff;"/><path id="path74" d="M285.578,72.69c3.22,-0 5.536,0.904 6.439,0.904c0.452,0.451 0.452,-0.452 0.452,-0.452c0.452,-0 0.904,-0.452 0.904,-0.452l1.808,6.891l-0.452,-0c-1.356,-1.412 -4.124,-3.22 -8.642,-3.22c-2.316,0 -5.535,0.452 -5.535,3.22c-0,5.027 16.944,2.259 16.944,13.217c0,5.083 -4.123,8.246 -11.918,8.246c-3.163,0 -5.478,-0.452 -7.738,-0.903c-0.452,-0 -0.452,0.451 -0.452,0.451c-0.508,0.452 -0.96,0.452 -0.96,0.452l-3.163,-7.738l0.904,-0.508c2.259,2.767 5.931,5.083 10.958,5.083c4.575,0 5.987,-1.864 5.987,-3.671c-0,-6.439 -16.493,-2.316 -16.493,-13.274c-0,-5.027 5.479,-8.246 10.957,-8.246" style="fill:#fff;"/><path id="path78" d="M109.803,73.142c5.987,-0 10.562,2.315 10.562,7.342c0,5.479 -5.027,6.383 -7.794,6.835c7.343,2.768 7.794,12.37 12.37,12.37l-0,0.452c-0.904,0.451 -1.808,0.903 -4.124,0.903c-10.054,0 -7.794,-12.313 -14.177,-12.313l-3.22,0l0,7.738c0,2.768 0.904,3.22 2.316,3.672l0,0.903l-11.014,0l0,-0.903c1.356,-0.452 2.316,-0.904 2.316,-3.672l-0,-18.752c-0,-2.768 -0.96,-3.22 -2.316,-3.672l0,-0.903l15.081,-0Zm-6.383,12.369l3.672,0c3.219,0 6.834,-1.355 6.834,-4.575c0,-1.864 -1.355,-4.575 -5.479,-4.575l-3.163,0c-1.412,0 -1.864,0.452 -1.864,2.26l0,6.89" style="fill:#fff;"/></g><g><path d="M355.053,31.669l-0,59.441l24.643,-0l0,-59.441l21.679,-0l0,-20.852l-68.001,0l-0,20.852l21.679,-0Z" style="fill:#fff;"/><rect x="406.083" y="10.817" width="25.854" height="80.293" style="fill:#fff;"/><rect x="437.169" y="38.527" width="19.212" height="19.579" style="fill:#fff;"/><path d="M507.364,58.413c-0.316,16.981 -8.848,19.787 -13.165,19.368c-4.237,-0.411 -7.135,-3.583 -8.088,-6.832c-0,-0.025 -21.891,0.381 -21.872,0.504c0.519,3.469 1.605,5.201 3.25,7.916c1.647,2.719 3.771,5.022 6.371,6.91c2.595,1.884 5.579,3.298 8.952,4.24c3.357,0.937 8.181,1.608 12.055,1.608c6.469,-0 11.743,-1.026 16.228,-3.468c4.485,-2.442 7.546,-5.435 10.393,-9.38c2.839,-3.934 5.004,-8.941 6.295,-13.812c1.286,-4.855 1.626,-9.71 1.626,-14.565c0,-4.923 -0.614,-9.808 -1.641,-14.656c-1.034,-4.876 -2.786,-9.447 -5.455,-13.311c-2.678,-3.874 -6.441,-6.796 -10.888,-9.166c-4.44,-2.366 -10.105,-3.556 -17.001,-3.556c-4.741,-0 -9.353,0.249 -13.233,1.751c-3.884,1.504 -7.229,3.453 -10.035,6.048c-2.81,2.599 -4.972,5.549 -6.486,9.052c-1.511,3.499 -1.966,7.985 -1.966,12.049c0,3.162 0.561,6.287 1.685,9.373c1.128,3.099 2.905,5.857 5.334,8.276c0.002,0.002 0.004,0.004 0.006,0.005c2.593,2.485 5.445,4.765 9.161,6.233c3.714,1.468 7.817,1.899 11.704,1.899c4.404,-0 13.845,-2.387 16.77,-6.486Zm-11.663,-8.834c-1.623,0 -3.051,-0.313 -4.284,-0.944c-1.229,-0.63 -2.235,-1.451 -3.014,-2.465c-0.784,-1.02 -1.372,-2.177 -1.764,-3.472c-0.394,-1.304 -0.592,-2.649 -0.592,-4.035c0,-1.327 0.212,-2.627 0.636,-3.899c0.421,-1.265 1.053,-2.393 1.896,-3.383c0.842,-0.99 1.866,-1.786 3.069,-2.391c1.201,-0.604 2.552,-0.903 4.053,-0.903c1.627,-0 3.073,0.3 4.338,0.905c1.263,0.605 2.332,1.415 3.204,2.433c0.875,1.019 1.538,2.176 1.99,3.472c0.454,1.298 0.681,2.61 0.681,3.936c-0,1.44 -0.212,2.812 -0.636,4.113c-0.422,1.293 -1.053,2.434 -1.896,3.424c-0.84,0.987 -1.891,1.768 -3.151,2.344c-1.268,0.579 -2.779,0.865 -4.53,0.865Z" style="fill:#fff;"/><path d="M577.954,58.413c-0.315,16.981 -8.848,19.787 -13.164,19.368c-4.237,-0.411 -7.135,-3.583 -8.088,-6.832c-0.001,-0.025 -21.891,0.381 -21.873,0.504c0.52,3.469 1.605,5.201 3.25,7.916c1.647,2.719 3.771,5.022 6.372,6.91c2.595,1.884 5.578,3.298 8.951,4.24c3.358,0.937 8.182,1.608 12.055,1.608c6.469,-0 11.743,-1.026 16.229,-3.468c4.485,-2.442 7.546,-5.435 10.392,-9.38c2.839,-3.934 5.005,-8.941 6.295,-13.812c1.286,-4.855 1.627,-9.71 1.627,-14.565c0,-4.923 -0.614,-9.808 -1.642,-14.656c-1.033,-4.876 -2.785,-9.447 -5.455,-13.311c-2.677,-3.874 -6.44,-6.796 -10.888,-9.166c-4.439,-2.366 -10.105,-3.556 -17.001,-3.556c-4.741,-0 -9.353,0.249 -13.232,1.751c-3.885,1.504 -7.229,3.453 -10.035,6.048c-2.811,2.599 -4.973,5.549 -6.486,9.052c-1.512,3.499 -1.966,7.985 -1.966,12.049c-0,3.162 0.561,6.287 1.685,9.373c1.127,3.099 2.905,5.857 5.334,8.276c0.002,0.002 0.004,0.004 0.006,0.005c2.593,2.485 5.444,4.765 9.161,6.233c3.714,1.468 7.817,1.899 11.703,1.899c4.405,-0 13.846,-2.387 16.77,-6.486Zm-11.662,-8.834c-1.623,0 -3.052,-0.313 -4.284,-0.944c-1.23,-0.63 -2.235,-1.451 -3.015,-2.465c-0.784,-1.02 -1.371,-2.177 -1.763,-3.472c-0.395,-1.304 -0.592,-2.649 -0.592,-4.035c-0,-1.327 0.212,-2.627 0.636,-3.899c0.421,-1.265 1.053,-2.393 1.896,-3.383c0.842,-0.99 1.865,-1.786 3.069,-2.391c1.2,-0.604 2.552,-0.903 4.053,-0.903c1.626,-0 3.073,0.3 4.338,0.905c1.263,0.605 2.331,1.415 3.204,2.433c0.874,1.019 1.538,2.176 1.99,3.472c0.453,1.298 0.681,2.61 0.681,3.936c-0,1.44 -0.212,2.812 -0.637,4.113c-0.421,1.293 -1.053,2.434 -1.895,3.424c-0.84,0.987 -1.891,1.768 -3.152,2.344c-1.268,0.579 -2.778,0.865 -4.529,0.865Z" style="fill:#fff;"/></g></g></svg>