<svg clip-rule="evenodd" fill-rule="evenodd" stroke-linejoin="round" stroke-miterlimit="2" viewBox="0 0 600 139" xmlns="http://www.w3.org/2000/svg"><g fill="#fff"><path d="m36.186 38.989v98.729h37.943v-98.729h36.197v-32.762h-110.326v32.762z"/><path d="m121.413 6.227h37.869v131.491h-37.869z"/><path d="m583.741.187h-39.146l-62.282 74.552-.04 34.134h58.864v27.805h42.604v-27.805h16.259v-36.276h-16.259v-72.41zm-7.045 7.044v72.41h16.259v22.188h-16.259v27.805h-28.515v-27.805h-58.855s.028-24.531.028-24.531 58.535-70.067 58.535-70.067h28.807zm-28.515 21.827-43 50.583h43zm-27.765 43.539h20.721v-24.375z"/><path d="m441.707 138.966 56.96-132.739h-12.216l-56.96 132.739z"/><path d="m167.908 52.722h33.815v28.17h-33.815z"/><path d="m282.032 86.536c-.429 23.098-14.139 25.432-21.134 25.361-6.918-.07-13.305-6.454-14.853-11.736 0 0-32.211 2.118-32.181 2.317.844 5.639 2.404 9.631 5.077 14.044 2.678 4.419 6.13 8.163 10.357 11.231 4.218 3.062 9.067 5.36 14.55 6.891 5.456 1.523 13.298 2.614 19.594 2.614 19.405 0 56.146-10.567 56.146-67.007 0-64.026-45.368-66.138-56.576-66.138-7.707 0-51.848 4.227-51.848 46.975 0 24.881 18.033 43.902 45.507 43.902 7.16 0 20.608-1.792 25.361-8.454zm-17.964-56.615c11.081 0 20.078 9.058 20.078 20.215s-8.997 20.214-20.078 20.214-20.077-9.057-20.077-20.214 8.996-20.215 20.077-20.215z"/><path d="m397.834 86.536c-.429 23.098-14.138 25.432-21.134 25.361-6.918-.07-13.305-6.454-14.853-11.736 0 0-32.211 2.118-32.181 2.317.844 5.639 2.404 9.631 5.078 14.044 2.677 4.419 6.129 8.163 10.356 11.231 4.218 3.062 9.067 5.36 14.55 6.891 5.457 1.523 13.298 2.614 19.594 2.614 19.405 0 56.146-10.567 56.146-67.007 0-64.026-45.368-66.138-56.576-66.138-7.707 0-51.847 4.227-51.847 46.975 0 24.881 18.032 43.902 45.507 43.902 7.159 0 20.607-1.792 25.36-8.454zm-17.964-56.615c11.081 0 20.078 9.058 20.078 20.215s-8.997 20.214-20.078 20.214-20.077-9.057-20.077-20.214 8.996-20.215 20.077-20.215z"/></g></svg>