<svg clip-rule="evenodd" fill-rule="evenodd" stroke-linejoin="round" stroke-miterlimit="2" viewBox="0 0 600 74" xmlns="http://www.w3.org/2000/svg"><g fill="#fff"><path d="m234.612 20.932v51.692h19.865v-51.692h18.952v-17.153h-57.763v17.153z"/><path d="m279.234 3.779h19.827v68.844h-19.827z"/><path d="m521.292.617h-20.495l-32.609 39.033-.021 17.872h30.819v14.557h22.306v-14.557h8.513v-18.994h-8.513v-37.911zm-3.688 3.688v37.912h8.512v11.616h-8.512v14.558h-14.93v-14.558h-30.814s.015-12.843.015-12.843 30.646-36.685 30.646-36.685h15.083zm-14.93 11.428-22.513 26.484h22.513zm-14.537 22.795h10.849v-12.762z"/><path d="m446.928 73.277 29.822-69.498h-6.395l-29.823 69.498z"/><path d="m555.867 57.782-4.794 13.902h-18.431l24.464-70.939h18.43l24.464 70.939h-18.43l-4.795-13.902zm23.538-3.689h-26.167l-4.795 13.903h-10.627s21.92-63.562 21.92-63.562c-.001 0 13.171 0 13.171 0s21.92 63.562 21.92 63.562h-10.628s-4.794-13.903-4.794-13.903zm-13.084-37.939-10.224 29.648h20.449zm-5.051 25.96h10.102l-5.051-14.647z"/><path d="m303.577 28.123h17.704v14.749h-17.704z"/><path d="m363.328 45.827c-.225 12.093-7.403 13.315-11.065 13.278-3.622-.037-6.966-3.38-7.777-6.145 0 0-16.864 1.109-16.849 1.213.443 2.952 1.259 5.042 2.659 7.353 1.402 2.313 3.209 4.274 5.422 5.88 2.208 1.603 4.747 2.806 7.618 3.608 2.857.798 6.962 1.369 10.259 1.369 10.159 0 29.396-5.533 29.396-35.083 0-33.522-23.753-34.627-29.622-34.627-4.034 0-27.145 2.213-27.145 24.594 0 13.027 9.441 22.986 23.826 22.986 3.748 0 10.789-.939 13.278-4.426zm-9.405-29.642c5.801 0 10.512 4.742 10.512 10.584 0 5.841-4.711 10.583-10.512 10.583-5.802 0-10.512-4.742-10.512-10.583 0-5.842 4.71-10.584 10.512-10.584z"/><path d="m423.958 45.827c-.225 12.093-7.403 13.315-11.065 13.278-3.622-.037-6.966-3.38-7.777-6.145 0 0-16.864 1.109-16.849 1.213.442 2.952 1.259 5.042 2.659 7.353 1.402 2.313 3.209 4.274 5.422 5.88 2.208 1.603 4.747 2.806 7.618 3.608 2.857.798 6.962 1.369 10.259 1.369 10.159 0 29.396-5.533 29.396-35.083 0-33.522-23.753-34.627-29.622-34.627-4.034 0-27.145 2.213-27.145 24.594 0 13.027 9.441 22.986 23.826 22.986 3.748 0 10.789-.939 13.278-4.426zm-9.405-29.642c5.801 0 10.511 4.742 10.511 10.584 0 5.841-4.71 10.583-10.511 10.583-5.802 0-10.512-4.742-10.512-10.583 0-5.842 4.71-10.584 10.512-10.584z"/><path d="m36.33 9.506c3.629 0 7.951.367 9.256 1.019v4.608c0 4.648 2.65 5.3 2.65 5.3v4.282c0 2.976-.652 4.974-.652 4.974-1.346.326-4.649 1.305-8.278 3.955-2.65 1.998-4.974 4.975-4.974 7.951 0 1.957.326 3.303 1.019 4.608 0 0-1.345.652-3.669.652-2.936-.326-6.239-2.65-8.237-6.279-2.65-4.608-3.955-10.234-6.931-10.234-2.977 0-2.977 2.976-5.301 2.976-2.65 0-4.281-4.281-4.934-6.279-1.672-2.977-5.627-3.955-5.953-8.604h12.559v-17.818h11.865v7.584c.367.326 1.346.652 2.65.979l-1.304 5.953h-3.629l-1.346 5.3h3.629l-1.305 6.606c0 .978-.326 3.303 0 4.281.653 2.65 2.324 3.629 4.608 3.629 3.302 0 6.279-1.631 6.279-1.631l1.346-4.281h-2.325c-.652 0-1.304 0-.978-1.672l1.631-6.932h3.629l1.345-5.3h-3.629l.979-5.627"/><path d="m29.072 11.504h4.608l-3.629 17.207h-4.608z"/><path d="m32.375 5.225c1.305 0 2.65.978 2.65 2.65 0 1.305-1.345 2.324-2.65 2.324-1.346 0-2.651-1.019-2.651-2.324 0-1.672 1.305-2.65 2.651-2.65"/><path d="m147.359 26.386c2.65 0 4.281.327 4.607.653.653 0 .326-.326.653-.653h.367l1.631 4.608-.653.326c-.978-1.305-2.976-2.609-6.279-2.609-1.305 0-3.955.326-3.955 2.283 0 3.955 12.232 1.672 12.232 9.582 0 3.629-2.976 6.279-8.603 6.279-1.998 0-3.629-.326-5.301-.978-.326 0-.652.326-.652.652l-.653.326-1.998-5.953.653-.326c1.671 1.998 3.996 3.629 7.951 3.629 3.302 0 4.281-1.305 4.281-2.61 0-4.648-11.906-1.671-11.906-9.622 0-3.629 3.67-5.587 7.625-5.587"/><path d="m78.613 46.529v-.652c1.346-.327 1.998-.653 1.998-2.651v-13.537c0-1.998-.652-2.324-1.998-2.65v-.653h15.535l1.672 4.282-.653.326c-1.345-1.631-2.65-1.957-4.974-1.957h-3.629c-1.346 0-1.672.326-1.672 1.305v4.281h5.301c1.998 0 2.324-.326 2.65-1.305h.653v5.301h-.653c-.326-1.02-.652-1.346-2.65-1.346h-5.301v5.301c0 1.305.326 1.305 1.672 1.305h4.608c1.997 0 3.629 0 5.3-1.958l.326.327-1.304 4.281z"/><path d="m73.679 43.226c0 1.998.653 2.324 1.631 2.651v.652h-8.562v-.652c.978-.327 1.957-.653 1.957-2.651v-19.164c0-.978-.652-.978-1.957-.978-4.322 0-5.953 0-7.625 1.631h-.326l1.671-4.608h21.448l1.671 4.608h-.652c-1.345-1.631-3.303-1.631-7.625-1.631-1.304 0-1.631 0-1.631.978z"/><path d="m105.402 36.621-5.627-7.258c-.979-1.672-1.672-1.998-2.977-2.324v-.653h9.256v.653c-.978 0-1.671.978-.652 2.324l2.609 3.955 3.344-4.281c.652-1.02.652-1.998-.693-1.998v-.653h7.625v.653c-1.346.326-2.325.652-3.629 1.998l-4.649 6.605 5.627 7.91c.653.979 1.305 1.672 1.305 1.672s1.019-.326 2.324-3.629l6.279-15.209h3.955l7.299 17.166c.326.979 1.305 1.998 2.284 2.325v.652h-8.563v-.652c.652 0 1.957-.327.978-2.325l-.978-2.65h-8.277l-.979 2.65c-1.019 1.998.652 2.325.979 2.325v.652h-12.885v-.652c.652 0 2.324-.653.979-2.325l-3.303-4.281-3.303 4.608c-.978 1.345 0 1.998.653 1.998v.652h-7.585v-.652c1.305-.327 2.651-.979 3.629-2.651zm21.121-6.279-3.303 7.951h6.279z"/><path d="m1.957 49.506c0-1.998-.978-2.325-1.957-2.651v-.326h8.563v.326c-.653.326-1.631.653-1.631 2.651v20.142c0 1.998.978 2.324 1.631 2.65v.653h-8.563v-.653c.979-.326 1.957-.652 1.957-2.65z"/><path d="m29.398 72.951h-.652l-13.578-14.19v10.887c0 1.998 1.019 2.324 1.672 2.65v.653h-5.953v-.653c.978-.326 1.631-.652 1.631-2.65v-13.537c0-1.998-.653-2.324-1.631-2.65v-.653h5.627l10.234 11.254v-7.951c0-1.998-.652-2.324-1.631-2.65v-.653h6.238v.653c-.978.326-1.957.652-1.957 2.65z"/><path d="m107.685 66.019c0 5.953-5.26 7.258-8.562 7.258-3.629 0-8.93-1.305-8.93-6.932v-10.234c0-1.998-.979-2.65-1.998-2.65v-.653h8.277v.653c-.978 0-1.998.652-1.998 2.65v9.908c0 3.303 1.998 4.648 5.301 4.648 2.977 0 5.301-1.345 5.301-4.648v-9.908c0-1.998-1.02-2.324-1.998-2.65v-.653h6.279v.653c-.979.326-1.672.652-1.672 2.65z"/><path d="m56.146 56.763c0-1.304 0-1.304-.978-1.304-3.303 0-3.955 0-5.953 2.324l-.327-.326 1.305-4.649h16.555l1.631 4.649-.653.326c-1.671-2.324-2.324-2.324-5.627-2.324-.978 0-1.304 0-1.304 1.304v12.885c0 1.998.652 2.324 1.957 2.65v.653h-8.237v-.653c1.305-.326 1.631-.652 1.631-2.65z"/><path d="m40.978 52.482c2.284 0 3.955.652 4.282.652.652.327.652-.326.652-.326l.652-.326 1.346 4.975h-.693c-.979-1.02-2.61-2.325-5.913-2.325-1.671 0-4.322.327-4.322 2.325 0 3.628 12.559 1.631 12.559 9.541 0 3.669-2.977 5.953-8.563 5.953-2.324 0-3.996-.326-5.627-.653-.326 0-.326.327-.693.327 0 .326-.652.326-.652.326l-1.957-5.586.652-.367c1.631 1.998 3.955 3.669 7.91 3.669 3.303 0 4.322-1.345 4.322-2.65 0-4.648-11.906-1.672-11.906-9.582 0-3.629 3.955-5.953 7.951-5.953"/><path d="m134.474 69.648c0 1.998.979 2.324 1.957 2.65v.653h-8.236v-.653c.978-.326 1.957-.652 1.957-2.65v-9.582l-7.258 13.211h-.652l-7.258-13.537v9.908c0 1.998.978 2.324 1.957 2.65v.653h-6.279v-.653c.693-.326 1.672-.652 1.672-2.65v-13.537c0-1.998-.979-2.324-1.672-2.65v-.653h6.279l6.605 13.211 7.299-13.211h5.586v.653c-.978.326-1.957.652-1.957 2.65z"/><path d="m176.105 72.951h-.653l-13.578-14.19v10.887c0 1.998 1.02 2.324 1.672 2.65v.653h-6.279v-.653c.979-.326 1.998-.652 1.998-2.65v-13.537c0-1.998-.693-2.324-1.998-2.65v-.653h5.953l10.234 11.254v-7.951c0-1.998-.978-2.324-1.998-2.65v-.653h6.32v.653c-.693.326-1.671.652-1.671 2.65z"/><path d="m138.755 72.951v-.653c.979-.326 1.672-.978 1.672-2.65v-13.537c0-1.998-.693-2.324-1.672-2.65v-.653h15.535l1.346 4.282-.367.367c-1.305-1.672-2.977-1.998-4.934-1.998h-3.955c-1.019 0-1.345.326-1.345 1.304v4.322h4.974c1.957 0 2.61-.693 2.61-1.345h.693v5.301h-.693c0-.979-.653-1.305-2.61-1.305h-4.974v5.26c0 1.019.326 1.345 1.345 1.345h4.608c1.998 0 3.955 0 5.3-1.998l.653.327-1.672 4.281z"/><path d="m185.36 56.763c0-1.304-.326-1.304-1.019-1.304-3.629 0-3.955 0-5.912 2.324l-.367-.326 1.345-4.649h16.514l1.672 4.649-.653.326c-1.671-2.324-2.324-2.324-5.626-2.324-1.02 0-1.346 0-1.346 1.304v12.885c0 1.998.652 2.324 1.998 2.65v.653h-8.277v-.653c1.019-.326 1.671-.652 1.671-2.65z"/><path d="m206.155 52.482c2.325 0 3.996.652 4.649.652.326.327.326-.326.326-.326.326 0 .652-.326.652-.326l1.305 4.975h-.326c-.979-1.02-2.977-2.325-6.239-2.325-1.671 0-3.995.327-3.995 2.325 0 3.628 12.232 1.631 12.232 9.541 0 3.669-2.977 5.953-8.604 5.953-2.283 0-3.955-.326-5.586-.653-.326 0-.326.327-.326.327-.367.326-.693.326-.693.326l-2.283-5.586.652-.367c1.631 1.998 4.281 3.669 7.91 3.669 3.303 0 4.322-1.345 4.322-2.65 0-4.648-11.906-1.672-11.906-9.582 0-3.629 3.955-5.953 7.91-5.953"/><path d="m79.265 52.808c4.322 0 7.625 1.672 7.625 5.301 0 3.955-3.629 4.607-5.627 4.934 5.301 1.998 5.627 8.929 8.93 8.929v.326c-.652.327-1.305.653-2.977.653-7.257 0-5.626-8.889-10.234-8.889h-2.324v5.586c0 1.998.652 2.324 1.672 2.65v.653h-7.951v-.653c.978-.326 1.671-.652 1.671-2.65v-13.537c0-1.998-.693-2.324-1.671-2.65v-.653zm-4.607 8.93h2.65c2.324 0 4.934-.979 4.934-3.303 0-1.345-.979-3.303-3.955-3.303h-2.283c-1.02 0-1.346.327-1.346 1.631z"/></g></svg>