<?xml version="1.0" encoding="UTF-8" standalone="no"?><!DOCTYPE svg PUBLIC "-//W3C//DTD SVG 1.1//EN" "http://www.w3.org/Graphics/SVG/1.1/DTD/svg11.dtd"><svg width="100%" height="100%" viewBox="0 0 600 197" version="1.1" xmlns="http://www.w3.org/2000/svg" xmlns:xlink="http://www.w3.org/1999/xlink" xml:space="preserve" xmlns:serif="http://www.serif.com/" style="fill-rule:evenodd;clip-rule:evenodd;stroke-linejoin:round;stroke-miterlimit:2;"><g id="tic-80"><g><path d="M147.405,184.129l12.7,-0l-0,-12.268l11.836,0l-0,-49.071l12.267,-0l0,-12.32l12.268,-0l0,-61.339l-24.439,-0l-0,-37.078l-12.364,0l-0,-11.941l-147.213,0l-0,12.268l-12.364,-0l-0,12.268l0.096,-0l-0,147.213l-0.192,0l0,12.268l12.46,-0c-0,-0 -0,12.268 -0,12.268l61.339,-0c-0,-0 -0,-12.268 -0,-12.268c-0,-0 12.171,-0 12.171,-0l0,12.268l61.435,-0c0,-0 0,-12.268 0,-12.268Zm0,-24.536l12.268,0l-0,-49.071l12.268,0l-0,-12.268l-12.268,0c-0,0 -0,-73.933 -0,-73.933l-12.364,-0l0,-11.941l-122.486,-0l0,12.268l-12.363,-0l-0,147.213c-0,0 12.267,0 12.267,0c0,0 0,12.268 0,12.268l36.804,-0l-0,-12.268l36.938,0l0,12.268l-0.231,-0c0,-0 37.233,-0 37.233,-0l-0.094,-0l0,-12.268l12.028,0l0,-12.268Z" style="fill:#fff;"/><path d="M61.531,135.11l-0,12.268l36.908,-0l-0,-12.268l-36.908,0Zm-12.268,-12.268l-0,12.268l12.268,0l-0,-12.268l-12.268,0Zm49.206,0l0,12.268l12.268,0l-0,-12.268l-12.268,0Zm-73.742,-73.711l0,61.444l110.65,-0l0,-61.444l-110.65,-0Zm85.875,12.163l-12.268,-0l0,36.908l12.268,-0l-0,-36.908Zm-49.071,-0l-12.268,-0l-0,36.908l12.268,-0l-0,-36.908Z" style="fill:#fff;"/></g><path d="M253.092,134.391l14.454,-0l0,-57.818l14.455,-0l-0,-14.455l-43.364,0l0,14.455l14.455,-0l-0,57.818Z" style="fill:#fff;fill-rule:nonzero;"/><path d="M339.819,134.391l-0,-14.455l-14.455,0l0,-43.363l14.455,-0l-0,-14.455l-43.364,0l0,14.455l14.455,-0l-0,43.363l-14.455,0l0,14.455l43.364,-0Z" style="fill:#fff;fill-rule:nonzero;"/><path d="M397.637,76.573l-0,-14.455l-28.909,0l-0,14.455l28.909,-0Zm-28.909,-0l-14.455,-0l0,43.363l14.455,0l-0,-43.363Zm28.909,57.818l-0,-14.455l-28.909,0l-0,14.455l28.909,-0Z" style="fill:#fff;fill-rule:nonzero;"/><rect x="412.091" y="91.027" width="43.364" height="14.455" style="fill:#fff;fill-rule:nonzero;"/><path d="M469.909,76.573l0,14.454l14.455,0l-0,-14.454l-14.455,-0Zm43.364,-0l-0,-14.455l-28.909,0l-0,14.455l28.909,-0Zm14.454,14.454l0,-14.454l-14.454,-0l-0,14.454l14.454,0Zm-43.363,14.455l-14.455,-0l0,14.454l14.455,0l-0,-14.454Zm28.909,-0l-0,-14.455l-28.909,0l-0,14.455l28.909,-0Zm14.454,14.454l0,-14.454l-14.454,-0l-0,14.454l14.454,0Zm-43.363,0l-0,14.455l28.909,-0l-0,-14.455l-28.909,0Z" style="fill:#fff;fill-rule:nonzero;"/><path d="M585.545,76.573l0,-14.455l-28.909,0l0,14.455l28.909,-0Zm0,43.363l14.455,0l0,-43.363l-14.455,-0l0,43.363Zm-28.909,-43.363l-14.454,-0l-0,43.363l14.454,0l0,-43.363Zm0,43.363l0,14.455l28.909,-0l0,-14.455l-28.909,0Z" style="fill:#fff;fill-rule:nonzero;"/></g></svg>