<svg clip-rule="evenodd" fill-rule="evenodd" stroke-linejoin="round" stroke-miterlimit="2" viewBox="0 0 600 197" xmlns="http://www.w3.org/2000/svg"><g fill="#fff"><path d="m147.405 184.661h12.7v-12.268h11.836v-49.071h12.267v-12.32h12.268v-61.339h-24.439v-37.078h-12.364v-11.941h-147.213v12.268h-12.364v12.268h.096v147.213h-.192v12.268h12.46v12.268h61.339v-12.268h12.171v12.268h61.435zm0-24.536h12.268v-49.071h12.268v-12.268h-12.268v-73.933h-12.364v-11.941h-122.486v12.268h-12.363v147.213h12.267v12.268h36.804v-12.268h36.938v12.268h-.231 37.233-.094v-12.268h12.028zm38.264-98.247h-12.267v36.908h12.267z"/><path d="m61.531 135.642v12.268h36.908v-12.268zm-12.268-12.268v12.268h12.268v-12.268zm49.206 0v12.268h12.268v-12.268zm-73.742-73.711v61.444h110.65v-61.444zm85.875 12.163h-12.268v36.908h12.268zm-49.071 0h-12.268v36.908h12.268z"/><g fill-rule="nonzero"><path d="m253.092 134.923h14.454v-57.818h14.455v-14.455h-43.364v14.455h14.455z"/><path d="m339.819 134.923v-14.455h-14.455v-43.363h14.455v-14.455h-43.364v14.455h14.455v43.363h-14.455v14.455z"/><path d="m397.637 77.105v-14.455h-28.909v14.455zm-28.909 0h-14.455v43.363h14.455zm28.909 57.818v-14.455h-28.909v14.455z"/><path d="m412.091 91.559h43.364v14.455h-43.364z"/><path d="m469.909 77.105v14.454h14.455v-14.454zm43.364 0v-14.455h-28.909v14.455zm14.454 14.454v-14.454h-14.454v14.454zm-43.363 14.455h-14.455v14.454h14.455zm28.909 0v-14.455h-28.909v14.455zm14.454 14.454v-14.454h-14.454v14.454zm-43.363 0v14.455h28.909v-14.455z"/><path d="m585.545 77.105v-14.455h-28.909v14.455zm0 43.363h14.455v-43.363h-14.455zm-28.909-43.363h-14.454v43.363h14.454zm0 43.363v14.455h28.909v-14.455z"/></g></g></svg>