<svg clip-rule="evenodd" fill-rule="evenodd" stroke-linejoin="round" stroke-miterlimit="2" viewBox="0 0 600 255" xmlns="http://www.w3.org/2000/svg"><g fill="#fff"><g fill-rule="nonzero"><path d="m361.001 99.238-56.653-98.287-57.181 98.287h16.074l41.107-70.619 41.37 70.619z"/><path d="m184.19 208.066h15.283l-17.655 32.411h245.059l-18.181-32.411h15.81l26.087 46.113h-293.017z"/><path d="m0 107.143h81.423v15.415h-30.435v52.306h-20.685v-52.306h-30.303z"/><path d="m86.298 174.864v-67.721h55.599s19.104-1.185 19.104 15.415v13.703s-1.976 15.151-19.104 15.151l29.513 23.452h-25.955l-29.908-23.452v-15.151h22.266s4.084.658 4.084-2.899v-8.037s1.581-2.767-4.611-2.767h-31.094v52.306z"/><path d="m173.254 107.143h20.685v67.721h-20.685z"/><path d="m205.929 174.864h20.948v-26.219h36.364v-15.283h-36.364v-10.804h43.083v-15.415h-64.031z"/><path d="m296.84 107.142c-21.213 0-21.358 15.423-21.358 15.423v37.531c0 16.996 21.358 14.771 21.358 14.771h40.987c20.026 0 20.412-14.771 20.412-14.771v-37.531c0-16.469-20.412-15.423-20.412-15.423zm0 15.423h40.987v37.531h-40.987z"/><path d="m365.876 174.864v-67.721h55.6s19.104-1.185 19.104 15.415v13.703s-1.977 15.151-19.104 15.151l29.512 23.452h-25.955l-29.908-23.452v-15.151h22.266s4.085.658 4.085-2.899v-8.037s1.581-2.767-4.612-2.767h-31.093v52.306z"/><path d="m468.907 107.142c-21.212 0-20.027 15.416-20.027 15.416v37.55c0 16.996 20.027 14.759 20.027 14.759h40.987c20.026 0 16.852-14.759 16.852-14.759v-11.463l-16.852.005h-2.641v11.446h-38.346v-37.531h38.346v10.793h2.641l16.852.004v-10.804c0-16.469-16.852-15.416-16.852-15.416z"/><path d="m532.675 107.143v67.721h67.325v-14.756h-45.718v-11.463h32.411v-15.283h-32.411v-10.804h45.718v-15.415z"/><path d="m186.825 192.123c0 1.374-1.13 2.504-2.504 2.504-1.373 0-2.503-1.13-2.503-2.504 0-1.373 1.13-2.503 2.503-2.503 1.374 0 2.504 1.13 2.504 2.503z"/><path d="m345.718 192.519c0 1.373-1.13 2.503-2.503 2.503-1.374 0-2.504-1.13-2.504-2.503s1.13-2.504 2.504-2.504c1.373 0 2.503 1.131 2.503 2.504z"/><path d="m17.128 183.428h3.821l9.354 10.672h2.108v-10.672h3.689v17.391h-3.689l-11.462-13.834v13.834h-3.821z"/><path d="m50.526 183.377c-.815.013-2.446.458-2.446 3.62v13.825h2.902v-6.717h12.391v6.717h3.293v-13.825s.133-3.555-3.293-3.555h-12.391s-.184-.069-.456-.065zm.456 3.62h12.391v4.206h-12.391z"/><path d="m78.788 200.819h2.635v-13.834h2.108l5.007 13.834h4.084l4.875-13.834h1.976v13.834h3.426v-17.391h-7.642l-4.875 14.493-4.084-14.493h-7.51z"/><path d="m112.648 186.985s.132-3.557 4.875-3.557h13.307v3.557h-13.307v10.936h13.307v2.898h-15.283s-2.899 0-2.899-2.898z"/><path d="m145.673 183.377c-1.26.013-3.782.458-3.782 3.62v10.923s.152 2.902 4.5 2.902h9.749s4.859.919 4.859-2.902v-10.923s-.116-3.555-4.859-3.555h-9.749s-.298-.069-.718-.065zm.718 3.62h9.749v10.923h-9.749z"/><path d="m306.793 183.366c-.815.012-2.445.457-2.445 3.619v13.826h2.902v-6.717h12.391v6.717h3.293v-13.826s.132-3.554-3.293-3.554h-12.391s-.185-.069-.457-.065zm.457 3.619h12.391v4.206h-12.391z"/><path d="m239.526 186.985s-1.45-3.557 4.479-3.557h14.361v3.557h-14.361v4.216h10.672v2.899h-10.672v3.821h14.361v2.898h-14.361s-4.479.922-4.479-2.898z"/><path d="m225.033 183.428h-13.175s-4.085-.659-4.085 3.557v4.216s.527 2.899 4.085 2.899h10.276v3.821h-14.361v2.898h14.361s4.743.922 4.743-2.898v-3.821s0-2.899-1.844-2.899h-13.175v-4.216h13.175z"/><path d="m271.278 186.985s-.264-3.557 4.216-3.557h15.152v3.557h-15.152v10.936h10.804v-3.821h-6.324v-2.899h10.672v6.72s-1.054 2.898-4.348 2.898h-10.804s-4.216.922-4.216-2.898z"/><path d="m365.876 183.428h3.821l9.354 10.672h2.108v-10.672h3.689v17.391h-3.689l-11.462-13.834v13.834h-3.821z"/><path d="m416.074 183.428h3.821l9.354 10.672h2.108v-10.672h3.689v17.391h-3.689l-11.462-13.834v13.834h-3.821z"/></g><path d="m398.024 183.428h4.48v17.391h-4.48z"/><path d="m503.426 183.428h3.82l9.355 10.672h2.108v-10.672h3.689v17.391h-3.689l-11.463-13.834v13.834h-3.82z" fill-rule="nonzero"/><path d="m570.581 183.378c-1.26.012-3.783.457-3.783 3.619v10.924s.152 2.902 4.5 2.902h9.75s4.858.918 4.858-2.902v-10.924s-.115-3.554-4.858-3.554h-9.75s-.297-.069-.717-.065zm.717 3.619h9.75v10.924h-9.75z" fill-rule="nonzero"/><path d="m446.113 183.428h18.446v3.557h-6.72v13.834h-5.006v-13.834h-6.72z" fill-rule="nonzero"/><path d="m476.153 183.428h15.678v3.557h-11.199v4.216h11.199v2.899h-11.199v3.821h11.199v2.898h-15.678z" fill-rule="nonzero"/><path d="m535.588 183.442v17.38h14.999s3.685.919 3.685-2.902v-10.923s-.391-3.555-3.685-3.555zm3.554 3.555h11.445v10.923h-11.445z" fill-rule="nonzero"/></g></svg>