<svg clip-rule="evenodd" fill-rule="evenodd" stroke-linejoin="round" stroke-miterlimit="2" viewBox="0 0 600 152" xmlns="http://www.w3.org/2000/svg"><g fill="#fff"><path d="m254.609 82.648c-15.745 15.754-15.745 41.284 0 57.039 15.753 15.745 41.283 15.745 57.036 0 13.622-13.621 15.457-34.561 5.524-50.157l-21.696 21.696c-.017 3.144-1.218 6.28-3.613 8.671-4.823 4.816-12.642 4.816-17.465 0-4.815-4.823-4.815-12.638 0-17.463 4.823-4.816 12.642-4.816 17.465 0l.37.393 19.796-19.794-.375-.386c-15.759-15.743-41.289-15.743-57.042.001z"/><path d="m97.473 151.333 97.473-110.955h-40.675l-62.304 63.432c-1.902 1.935-4.988 1.935-6.889 0-1.9-1.932-1.9-5.077 0-7.02l55.416-56.411h-140.494z"/><path d="m532.484 110.986-33.754 39.688h27.581l26.281-26.756c1.523-1.548 3.991-1.548 5.515 0 1.522 1.546 1.522 4.058 0 5.616l-20.766 21.144h62.659l-33.753-39.689 33.753-39.687h-27.581l-26.281 26.757c-1.523 1.557-3.991 1.557-5.515 0-1.523-1.547-1.523-4.056 0-5.614l20.766-21.144h-62.659z"/><path d="m377.126 71.3v79.375h25.334v-51.59h19.209l23.628-27.785h-27.581l-26.289 26.757c-1.516 1.557-3.986 1.557-5.505 0-1.523-1.548-1.523-4.057 0-5.614l20.764-21.144z"/><path d="m358.244 45.505v-44.625l-61.755 70.757h27.008l18.492-17.177c1.523-1.547 3.993-1.547 5.506 0 1.522 1.558 1.522 4.066 0 5.615l-14.586 14.855v75.746h25.335v-79.039h15.304l25.287-26.132z"/><path d="m168.189 82.648c-15.745 15.754-15.745 41.284 0 57.039 15.754 15.745 41.284 15.745 57.037 0 13.622-13.621 15.457-34.561 5.522-50.157l-21.695 21.696c-.017 3.144-1.219 6.28-3.614 8.671-3.959 3.95-9.926 4.657-14.6 2.135l36.774-36.774c-.634-.756-4.683-4.775-5.902-5.736-15.826-12.543-38.897-11.499-53.522 3.126zm17.119 33.277c-1.868-4.476-.979-9.844 2.667-13.488 3.646-3.645 9.013-4.537 13.489-2.668z"/><path d="m443.086 82.648c-15.745 15.754-15.745 41.284 0 57.039 15.756 15.745 41.286 15.745 57.039 0 13.622-13.621 15.457-34.561 5.528-50.157l-21.696 21.696c-.021 3.144-1.217 6.28-3.613 8.671-3.958 3.95-9.926 4.657-14.6 2.135l36.773-36.774c-.639-.756-4.689-4.775-5.901-5.736-15.833-12.543-38.904-11.499-53.53 3.126zm17.119 33.277c-1.869-4.476-.98-9.844 2.667-13.488 3.646-3.645 9.015-4.537 13.489-2.668z"/></g></svg>