<?xml version="1.0" encoding="UTF-8" standalone="no"?><!DOCTYPE svg PUBLIC "-//W3C//DTD SVG 1.1//EN" "http://www.w3.org/Graphics/SVG/1.1/DTD/svg11.dtd"><svg width="100%" height="100%" viewBox="0 0 600 151" version="1.1" xmlns="http://www.w3.org/2000/svg" xmlns:xlink="http://www.w3.org/1999/xlink" xml:space="preserve" xmlns:serif="http://www.serif.com/" style="fill-rule:evenodd;clip-rule:evenodd;stroke-linejoin:round;stroke-miterlimit:2;"><g id="vectrex_alt"><path d="M254.609,81.825c-15.745,15.753 -15.745,41.283 -0,57.039c15.753,15.744 41.283,15.744 57.036,-0c13.622,-13.622 15.457,-34.561 5.524,-50.158l-21.696,21.696c-0.017,3.144 -1.218,6.28 -3.613,8.671c-4.823,4.816 -12.642,4.816 -17.465,-0c-4.815,-4.823 -4.815,-12.638 0,-17.463c4.823,-4.816 12.642,-4.816 17.465,0l0.37,0.393l19.796,-19.794l-0.375,-0.385c-15.759,-15.744 -41.289,-15.744 -57.042,0.001Z" style="fill:#fff;"/><path d="M97.473,150.509l97.473,-110.955l-40.675,-0l-62.304,63.432c-1.902,1.935 -4.988,1.935 -6.889,0c-1.9,-1.931 -1.9,-5.077 0,-7.02l55.416,-56.411l-140.494,-0l97.473,110.954Z" style="fill:#fff;"/><path d="M532.484,110.163l-33.754,39.687l27.581,0l26.281,-26.756c1.523,-1.548 3.991,-1.548 5.515,0c1.522,1.547 1.522,4.058 -0,5.616l-20.766,21.144l62.659,0l-33.753,-39.689l33.753,-39.687l-27.581,0l-26.281,26.757c-1.523,1.557 -3.991,1.557 -5.515,0c-1.523,-1.547 -1.523,-4.055 0,-5.613l20.766,-21.145l-62.659,0l33.754,39.686Z" style="fill:#fff;"/><path d="M377.126,70.476l-0,79.375l25.334,0l-0,-51.589l19.209,-0l23.628,-27.786l-27.581,0l-26.289,26.757c-1.516,1.557 -3.986,1.557 -5.505,-0c-1.523,-1.547 -1.523,-4.057 0,-5.613l20.764,-21.145l-29.56,0.001Z" style="fill:#fff;"/><path d="M358.244,44.681l-0,-44.625l-61.755,70.757l27.008,-0l18.492,-17.177c1.523,-1.547 3.993,-1.547 5.506,-0c1.522,1.558 1.522,4.066 0,5.615l-14.586,14.855l0,75.746l25.335,0l-0,-79.039l15.304,-0l25.287,-26.132l-40.591,0Z" style="fill:#fff;"/><path d="M168.189,81.825c-15.745,15.753 -15.745,41.283 0,57.039c15.754,15.744 41.284,15.744 57.037,-0c13.622,-13.622 15.457,-34.561 5.522,-50.158l-21.695,21.696c-0.017,3.144 -1.219,6.28 -3.614,8.671c-3.959,3.95 -9.926,4.657 -14.6,2.135l36.774,-36.773c-0.634,-0.757 -4.683,-4.776 -5.902,-5.737c-15.826,-12.543 -38.897,-11.498 -53.522,3.127Zm17.119,33.276c-1.868,-4.476 -0.979,-9.844 2.667,-13.488c3.646,-3.645 9.013,-4.537 13.489,-2.668l-16.156,16.156Z" style="fill:#fff;"/><path d="M443.086,81.825c-15.745,15.753 -15.745,41.283 0,57.039c15.756,15.744 41.286,15.744 57.039,-0c13.622,-13.622 15.457,-34.561 5.528,-50.158l-21.696,21.696c-0.021,3.144 -1.217,6.28 -3.613,8.671c-3.958,3.95 -9.926,4.657 -14.6,2.135l36.773,-36.773c-0.639,-0.757 -4.689,-4.776 -5.901,-5.737c-15.833,-12.543 -38.904,-11.498 -53.53,3.127Zm17.119,33.276c-1.869,-4.476 -0.98,-9.844 2.667,-13.488c3.646,-3.645 9.015,-4.537 13.489,-2.668l-16.156,16.156Z" style="fill:#fff;"/></g></svg>