<svg clip-rule="evenodd" fill-rule="evenodd" stroke-linejoin="round" stroke-miterlimit="2" viewBox="0 0 600 107" xmlns="http://www.w3.org/2000/svg"><path d="m266.644 89.205c-.074.677-.102 1.367-.08 2.066.244 7.971 6.776 14.307 14.751 14.307h303.927c5.355 0 10.29-2.901 12.895-7.581 2.604-4.679 2.47-10.402-.352-14.954l-17.799-28.71s17.799-28.711 17.799-28.711c2.822-4.552 2.957-10.275.352-14.954s-7.54-7.58-12.895-7.58h-163.154c-5.216 0-9.833 2.715-12.459 6.845-5.971-4.23-13.242-6.682-20.999-6.682h-59.191c-.473-.046-.952-.069-1.436-.069h-62.822c-4.184 0-8.017 1.755-10.729 4.623-13.705-8.255-30.713-10.093-46.26-4.283-5.95 2.223-11.326 5.431-15.975 9.4-2.064-5.819-7.597-9.816-13.907-9.816h-163.551c-7.653 0-14.036 5.849-14.702 13.473-.343 3.917.882 7.634 3.177 10.504l47.192 71.849c2.728 4.154 7.365 6.656 12.335 6.656s9.607-2.502 12.335-6.656l26.579-40.466v32.115c0 8.151 6.608 14.758 14.758 14.758h61.877c6.688 0 12.504-4.49 14.24-10.881 4.766 4.001 10.277 7.207 16.368 9.383 20.486 7.319 43.29 1.466 57.726-14.636zm-8.658-59.087c.854-.949.872-2.384.041-3.355-11.247-13.14-29.507-17.853-45.709-11.799-16.203 6.054-26.897 21.587-26.772 38.883.126 17.296 11.043 32.672 27.332 38.491s34.478.842 45.534-12.46c.812-.976.779-2.402-.078-3.34l-17.558-19.229c-.491-.537-1.189-.839-1.917-.828s-1.416.334-1.89.886c-3.517 4.094-8.606 7.098-13.326 5.731-4.49-1.3-7.523-5.485-7.361-10.158.163-4.672 3.479-8.637 8.05-9.622 4.807-1.036 8.409 1.115 12.517 5.968.474.56 1.168.888 1.902.9.735.011 1.438-.296 1.929-.842zm-243.06-14.432c-.934 0-1.794.513-2.238 1.335-.444.823-.401 1.823.113 2.604l47.685 72.601c.47.716 1.269 1.147 2.126 1.147.856 0 1.655-.431 2.125-1.147l47.686-72.601c.513-.781.556-1.781.112-2.604-.444-.822-1.303-1.335-2.238-1.335h-32.993c-.794 0-1.543.371-2.023 1.003l-12.669 16.649s-12.669-16.649-12.669-16.649c-.481-.632-1.23-1.003-2.024-1.003h-32.993zm514.335 77.658c.834 0 1.614-.412 2.085-1.1l8.752-12.811s8.753 12.811 8.753 12.811c.471.688 1.251 1.1 2.085 1.1h34.156c.916 0 1.761-.496 2.206-1.297.446-.8.423-1.779-.06-2.558l-21.796-35.156s21.796-35.157 21.796-35.157c.483-.779.506-1.758.06-2.558-.445-.8-1.29-1.297-2.206-1.297h-34.156c-.834 0-1.614.412-2.085 1.101l-8.753 12.81s-8.753-12.81-8.753-12.81c-.47-.689-1.25-1.101-2.084-1.101h-34.157c-.916 0-1.76.497-2.205 1.297-.446.8-.423 1.779.06 2.558l21.796 35.157s-21.796 35.156-21.796 35.156c-.483.779-.506 1.758-.06 2.558.445.801 1.289 1.297 2.205 1.297zm-58.682-47.837c0-1.405-1.138-2.544-2.543-2.544h-12.149v-2.882h34.313c.768 0 1.495-.348 1.978-.945.483-.598.67-1.382.508-2.133l-4.233-19.674c-.252-1.171-1.288-2.008-2.487-2.008h-61.877c-1.404 0-2.543 1.139-2.543 2.543v72.717c0 1.404 1.139 2.543 2.543 2.543h61.877c1.199 0 2.235-.837 2.487-2.008l4.233-19.673c.162-.752-.025-1.536-.508-2.133-.483-.598-1.21-.946-1.978-.946h-34.313v-2.882h12.149c1.405 0 2.543-1.139 2.543-2.543zm-307.805 0c0-1.405-1.138-2.544-2.543-2.544h-12.15v-2.882h34.314c.768 0 1.495-.348 1.978-.945.483-.598.669-1.382.508-2.133l-4.234-19.674c-.252-1.171-1.288-2.008-2.486-2.008h-61.877c-1.404 0-2.543 1.139-2.543 2.543v72.717c0 1.404 1.139 2.543 2.543 2.543h61.877c1.198 0 2.234-.837 2.486-2.008l4.234-19.673c.161-.752-.025-1.536-.508-2.133-.483-.598-1.21-.946-1.978-.946h-34.314v-2.882h12.15c1.405 0 2.543-1.139 2.543-2.543zm167.609-27.826c-.132-1.298-1.225-2.284-2.53-2.284h-62.822c-1.245 0-2.307.901-2.509 2.13l-4.18 25.385c-.121.737.088 1.489.571 2.059.483.569 1.192.897 1.939.897h18.047v44.638c0 1.404 1.138 2.543 2.543 2.543h30.77c1.405 0 2.543-1.139 2.543-2.543v-44.638h15.694c.72 0 1.405-.305 1.888-.839.482-.534.715-1.247.642-1.963zm81.778 17.332c-2.19-11.348-12.123-19.547-23.68-19.547h-50.846c-1.404 0-2.543 1.139-2.543 2.543v72.396c0 1.404 1.139 2.543 2.543 2.543h27.343c1.405 0 2.544-1.139 2.544-2.543v-48.687h9.652c.417 0 .802.223 1.01.583.209.361.209.806 0 1.167-.208.361-.593.583-1.01.583h-2.764c-1.405 0-2.544 1.139-2.544 2.543v33.193c0 .645.246 1.266.686 1.737l9.929 10.618c.481.514 1.154.806 1.858.806h32.171c.935 0 1.794-.513 2.238-1.336.444-.822.401-1.822-.112-2.603l-18.137-27.621c8.711-5.729 13.655-16.046 11.662-26.375zm-159.495-6.587-13.884 15.425c-4.927-5.032-9.676-6.765-15.522-5.505-6.848 1.476-11.817 7.417-12.061 14.418-.244 7 4.301 13.272 11.03 15.22 5.667 1.641 11.904-.843 16.62-5.242 0 0 14.189 15.539 14.189 15.539-9.78 10.408-24.868 14.119-38.449 9.267-14.277-5.1-23.847-18.577-23.957-33.738-.109-15.16 9.264-28.775 23.466-34.081 13.504-5.046 28.637-1.559 38.568 8.697zm275.263 59.869h-28.289s20.23-32.632 20.23-32.632c.505-.815.505-1.846 0-2.661l-20.23-32.632h28.289s10.085 14.761 10.085 14.761c.47.689 1.251 1.1 2.084 1.1.834 0 1.614-.411 2.085-1.1l10.085-14.761h28.289s-20.231 32.632-20.231 32.632c-.505.815-.505 1.846 0 2.661l20.231 32.632h-28.289s-10.085-14.761-10.085-14.761c-.471-.688-1.251-1.1-2.085-1.1s-1.614.412-2.084 1.1zm-370.241-40.245v12.346h-12.15c-1.404 0-2.543 1.138-2.543 2.543v7.969c0 1.404 1.139 2.543 2.543 2.543h33.708s-3.139 14.587-3.139 14.587h-57.28v-67.63h57.28s3.139 14.587 3.139 14.587h-33.708c-1.404 0-2.543 1.138-2.543 2.543v7.969c0 1.404 1.139 2.543 2.543 2.543zm307.805 0v12.346h-12.149c-1.405 0-2.544 1.138-2.544 2.543v7.969c0 1.404 1.139 2.543 2.544 2.543h33.707s-3.139 14.587-3.139 14.587h-57.279v-67.63h57.279s3.139 14.587 3.139 14.587h-33.707c-1.405 0-2.544 1.138-2.544 2.543v7.969c0 1.404 1.139 2.543 2.544 2.543zm-139.936-27.567 2.076 20.299h-15.421c-1.405 0-2.543 1.138-2.543 2.543v44.637h-25.684v-44.637c0-1.405-1.138-2.543-2.543-2.543h-17.594s3.342-20.299 3.342-20.299zm81.61 15.494c1.747 9.054-3.232 18.046-11.434 22.319-.638.332-1.105.918-1.287 1.614-.181.696-.059 1.436.336 2.037l17.016 25.915h-26.356s-8.489-9.079-8.489-9.079v-29.645h.221c2.234 0 4.298-1.192 5.415-3.127 1.117-1.934 1.117-4.318 0-6.253-1.117-1.934-3.181-3.126-5.415-3.126h-12.196c-1.404 0-2.543 1.139-2.543 2.543v48.687h-22.257c0-.001 0-67.31 0-67.31h48.303c9.12 0 16.958 6.47 18.686 15.425zm-387.528-15.205h27.019s13.93 18.306 13.93 18.306c.481.632 1.229 1.003 2.024 1.003.794 0 1.543-.371 2.024-1.003l13.929-18.306h27.019s-42.972 65.425-42.972 65.425z" fill="#fff"/></svg>