<svg clip-rule="evenodd" fill-rule="evenodd" stroke-linejoin="round" stroke-miterlimit="2" viewBox="0 0 600 151" xmlns="http://www.w3.org/2000/svg"><g fill="#fff"><path d="m254.609 81.825c-15.745 15.753-15.745 41.283 0 57.039 15.753 15.744 41.283 15.744 57.036 0 13.622-13.622 15.457-34.561 5.524-50.158l-21.696 21.696c-.017 3.144-1.218 6.28-3.613 8.671-4.823 4.816-12.642 4.816-17.465 0-4.815-4.823-4.815-12.638 0-17.463 4.823-4.816 12.642-4.816 17.465 0l.37.393 19.796-19.794-.375-.385c-15.759-15.744-41.289-15.744-57.042.001z"/><path d="m97.473 150.509 97.473-110.955h-40.675l-62.304 63.432c-1.902 1.935-4.988 1.935-6.889 0-1.9-1.931-1.9-5.077 0-7.02l55.416-56.411h-140.494z"/><path d="m532.484 110.163-33.754 39.687h27.581l26.281-26.756c1.523-1.548 3.991-1.548 5.515 0 1.522 1.547 1.522 4.058 0 5.616l-20.766 21.144h62.659l-33.753-39.689 33.753-39.687h-27.581l-26.281 26.757c-1.523 1.557-3.991 1.557-5.515 0-1.523-1.547-1.523-4.055 0-5.613l20.766-21.145h-62.659z"/><path d="m377.126 70.476v79.375h25.334v-51.589h19.209l23.628-27.786h-27.581l-26.289 26.757c-1.516 1.557-3.986 1.557-5.505 0-1.523-1.547-1.523-4.057 0-5.613l20.764-21.145z"/><path d="m358.244 44.681v-44.625l-61.755 70.757h27.008l18.492-17.177c1.523-1.547 3.993-1.547 5.506 0 1.522 1.558 1.522 4.066 0 5.615l-14.586 14.855v75.746h25.335v-79.039h15.304l25.287-26.132z"/><path d="m168.189 81.825c-15.745 15.753-15.745 41.283 0 57.039 15.754 15.744 41.284 15.744 57.037 0 13.622-13.622 15.457-34.561 5.522-50.158l-21.695 21.696c-.017 3.144-1.219 6.28-3.614 8.671-3.959 3.95-9.926 4.657-14.6 2.135l36.774-36.773c-.634-.757-4.683-4.776-5.902-5.737-15.826-12.543-38.897-11.498-53.522 3.127zm17.119 33.276c-1.868-4.476-.979-9.844 2.667-13.488 3.646-3.645 9.013-4.537 13.489-2.668z"/><path d="m443.086 81.825c-15.745 15.753-15.745 41.283 0 57.039 15.756 15.744 41.286 15.744 57.039 0 13.622-13.622 15.457-34.561 5.528-50.158l-21.696 21.696c-.021 3.144-1.217 6.28-3.613 8.671-3.958 3.95-9.926 4.657-14.6 2.135l36.773-36.773c-.639-.757-4.689-4.776-5.901-5.737-15.833-12.543-38.904-11.498-53.53 3.127zm17.119 33.276c-1.869-4.476-.98-9.844 2.667-13.488 3.646-3.645 9.015-4.537 13.489-2.668z"/></g></svg>