<svg clip-rule="evenodd" fill-rule="evenodd" stroke-linejoin="round" stroke-miterlimit="2" viewBox="0 0 600 187" xmlns="http://www.w3.org/2000/svg"><g fill="#fff"><path d="m179.862 66.737c5.53 0 10.836 1.079 15.918 3.238 5.082 2.16 9.453 5.07 13.114 8.73 3.66 3.66 6.57 8.031 8.729 13.113 2.159 5.083 3.239 10.389 3.239 15.918 0 7.426-1.83 14.286-5.491 20.579-3.66 6.294-8.637 11.284-14.93 14.97-6.294 3.687-13.153 5.53-20.579 5.53-6.688 0-13.035-1.58-19.038-4.74v29.861c0 3.055-1.067 5.649-3.2 7.782s-4.727 3.199-7.781 3.199c-3.055 0-5.662-1.066-7.821-3.199s-3.239-4.727-3.239-7.782v-66.2c0-7.425 1.843-14.285 5.53-20.579 3.687-6.293 8.677-11.27 14.97-14.93 6.294-3.66 13.153-5.49 20.579-5.49zm13.43 54.508c3.739-3.739 5.608-8.242 5.608-13.509 0-5.266-1.856-9.756-5.569-13.469s-8.203-5.569-13.469-5.569c-5.267 0-9.756 1.856-13.469 5.569s-5.569 8.203-5.569 13.469c0 5.267 1.856 9.757 5.569 13.469 3.713 3.713 8.202 5.57 13.469 5.57 5.266 0 9.743-1.843 13.43-5.53z" fill-rule="nonzero"/><path d="m229.462 69.975c2.159-2.159 4.766-3.238 7.821-3.238 3.054 0 5.648 1.066 7.781 3.199s3.199 4.727 3.199 7.781v60.117c0 3.055-1.066 5.649-3.199 7.782s-4.727 3.199-7.781 3.199c-3.055 0-5.649-1.066-7.782-3.199s-3.199-4.727-3.199-7.782v-60.117c0-3.054 1.053-5.635 3.16-7.742z"/><path d="m254.582 52.583c-4.813 4.813-10.579 7.22-17.299 7.22-6.721 0-12.487-2.407-17.3-7.22s-7.22-10.579-7.22-17.299c0-6.721 2.407-12.487 7.22-17.3s10.579-7.22 17.3-7.22c6.72 0 12.486 2.407 17.299 7.22s7.22 10.579 7.22 17.3c0 6.72-2.407 12.486-7.22 17.299z"/><g fill-rule="nonzero"><path d="m381.251 66.737c5.53 0 10.836 1.079 15.918 3.238 5.082 2.16 9.453 5.07 13.113 8.73 3.661 3.66 6.57 8.031 8.73 13.113 2.159 5.083 3.239 10.389 3.239 15.918 0 7.426-1.83 14.286-5.491 20.579-3.66 6.294-8.637 11.284-14.93 14.97-6.294 3.687-13.153 5.53-20.579 5.53s-14.286-1.843-20.579-5.53c-6.294-3.686-11.284-8.676-14.97-14.97-3.687-6.293-5.53-13.153-5.53-20.579v-66.121c0-3.054 1.08-5.661 3.239-7.82 2.159-2.16 4.766-3.239 7.821-3.239 3.054 0 5.648 1.079 7.781 3.239 2.133 2.159 3.199 4.766 3.199 7.82v29.861c6.004-3.159 12.35-4.739 19.039-4.739zm-13.509 54.508c3.739 3.687 8.242 5.53 13.509 5.53 5.266 0 9.756-1.857 13.469-5.57 3.713-3.712 5.569-8.202 5.569-13.469 0-5.266-1.856-9.756-5.569-13.469s-8.203-5.569-13.469-5.569c-5.267 0-9.756 1.856-13.469 5.569s-5.57 8.203-5.57 13.469c0 5.267 1.844 9.77 5.53 13.509z"/><path d="m381.251 66.759c5.53 0 10.836 1.08 15.918 3.239s9.453 5.069 13.113 8.729c3.661 3.66 6.57 8.032 8.73 13.114 2.159 5.082 3.239 10.388 3.239 15.918 0 7.426-1.83 14.285-5.491 20.579-3.66 6.293-8.637 11.283-14.93 14.97-6.294 3.686-13.153 5.53-20.579 5.53s-14.286-1.844-20.579-5.53c-6.294-3.687-11.284-8.677-14.97-14.97-3.687-6.294-5.53-13.153-5.53-20.579l22.04-36.26c6.004-3.16 12.35-4.74 19.039-4.74zm-13.509 54.508c3.739 3.687 8.242 5.53 13.509 5.53 5.266 0 9.756-1.856 13.469-5.569s5.569-8.203 5.569-13.469c0-5.267-1.856-9.756-5.569-13.469s-8.203-5.57-13.469-5.57c-5.267 0-9.756 1.857-13.469 5.57s-5.57 8.202-5.57 13.469c0 5.266 1.844 9.769 5.53 13.508z"/><path d="m467.809 66.737c7.426 0 14.286 1.83 20.579 5.49 6.294 3.66 11.284 8.637 14.97 14.93 3.687 6.294 5.53 13.154 5.53 20.579v30.098c0 3.055-1.066 5.649-3.199 7.782s-4.727 3.199-7.782 3.199c-1.948 0-3.792-.5-5.53-1.501-1.737-1-3.08-2.343-4.028-4.029-6.32 3.687-13.167 5.53-20.54 5.53-7.426 0-14.285-1.843-20.579-5.53-6.293-3.686-11.27-8.676-14.93-14.97-3.66-6.293-5.491-13.153-5.491-20.579 0-11.27 4.016-20.921 12.048-28.952 8.031-8.032 17.682-12.047 28.952-12.047zm13.43 54.508c3.739-3.739 5.609-8.242 5.609-13.509 0-5.266-1.857-9.756-5.57-13.469s-8.202-5.569-13.469-5.569c-5.266 0-9.756 1.856-13.469 5.569s-5.569 8.203-5.569 13.469c0 5.267 1.856 9.757 5.569 13.469 3.713 3.713 8.203 5.57 13.469 5.57 5.267 0 9.743-1.843 13.43-5.53z"/><path d="m549.324 125.906c2.37.737 4.266 2.08 5.688 4.029 1.422 1.948 2.133 4.134 2.133 6.557 0 3.686-1.501 6.662-4.503 8.926-1.896 1.422-4.055 2.133-6.478 2.133-.895 0-1.948-.184-3.16-.553-8.479-2.633-15.338-7.491-20.579-14.575-5.24-7.083-7.86-15.075-7.86-23.976v-66.832c0-3.318 1.29-6.109 3.871-8.373 2.528-2.212 5.53-3.029 9.006-2.449 2.633.421 4.819 1.711 6.557 3.871 1.738 2.159 2.606 4.634 2.606 7.425v66.358c0 4.003 1.172 7.61 3.516 10.823 2.343 3.213 5.411 5.425 9.203 6.636z"/><path d="m592.179 125.906c2.37.737 4.266 2.08 5.688 4.029 1.422 1.948 2.133 4.134 2.133 6.557 0 3.686-1.501 6.662-4.503 8.926-1.896 1.422-4.055 2.133-6.478 2.133-.895 0-1.948-.184-3.16-.553-8.479-2.633-15.338-7.491-20.578-14.575-5.241-7.083-7.861-15.075-7.861-23.976v-66.832c0-3.318 1.291-6.109 3.871-8.373 2.528-2.212 5.53-3.029 9.006-2.449 2.633.421 4.819 1.711 6.557 3.871 1.738 2.159 2.607 4.634 2.607 7.425v66.358c0 4.003 1.171 7.61 3.515 10.823s5.411 5.425 9.203 6.636z"/><path d="m44.811 3.502c.473 1.193.462 2.396-.033 3.611l-17.584 41.242c-.382.855-.962 1.547-1.738 2.076s-1.637.793-2.582.793l-.304-.034c-.022 0-.062.006-.118.017-.056.012-.107.017-.152.017-.945 0-1.805-.264-2.582-.793-.776-.529-1.355-1.221-1.738-2.076l-17.583-41.242c-.518-1.17-.529-2.373-.034-3.611.472-1.17 1.316-2.025 2.531-2.565 1.193-.495 2.385-.5 3.578-.017 1.192.484 2.047 1.322 2.565 2.515l13.533 31.758 13.568-31.758c.517-1.193 1.372-2.031 2.565-2.515 1.192-.483 2.385-.478 3.577.017 1.215.54 2.059 1.395 2.531 2.565zm-22.004 46.777"/><path d="m49.739 17.542c.922-.922 2.036-1.384 3.341-1.384s2.413.456 3.324 1.367c.912.911 1.367 2.019 1.367 3.324v25.684c0 1.305-.455 2.413-1.367 3.324-.911.912-2.019 1.367-3.324 1.367s-2.413-.455-3.324-1.367c-.912-.911-1.367-2.019-1.367-3.324v-25.684c0-1.305.45-2.407 1.35-3.307zm7.627-6.48c-1.192 1.193-2.621 1.789-4.286 1.789s-3.094-.596-4.286-1.789c-1.193-1.192-1.789-2.621-1.789-4.286s.596-3.094 1.789-4.286c1.192-1.193 2.621-1.789 4.286-1.789s3.094.596 4.286 1.789c1.193 1.192 1.789 2.621 1.789 4.286s-.596 3.094-1.789 4.286z"/><path d="m75.861 29.658 3.578.473c.472.067 1.158.18 2.058.337.9.158 1.609.321 2.127.49.517.168 1.164.393 1.94.675.776.281 1.395.59 1.856.928.462.337.968.753 1.519 1.248s.973 1.035 1.266 1.62c.292.585.54 1.272.742 2.059.203.788.304 1.631.304 2.531 0 3.263-1.35 5.923-4.05 7.982s-6.199 3.088-10.496 3.088c-2.273 0-4.618-.315-7.037-.945s-4.359-1.552-5.822-2.767c-.99-.81-1.552-1.868-1.687-3.173-.135-1.282.213-2.43 1.046-3.442.855-1.035 1.935-1.609 3.24-1.721 1.282-.113 2.407.247 3.375 1.08 1.192 1.012 2.959 1.608 5.299 1.788s4.185-.067 5.535-.742c.81-.36 1.215-.743 1.215-1.148 0-.225-.068-.427-.203-.607s-.371-.343-.709-.49c-.337-.146-.647-.27-.928-.371s-.714-.208-1.299-.32c-.585-.113-1.046-.197-1.384-.254-.337-.056-.855-.14-1.552-.253-3.645-.562-6.278-1.181-7.898-1.856-3.825-1.687-5.749-4.556-5.771-8.606 0-3.263 1.361-5.929 4.084-7.999 2.722-2.07 6.221-3.105 10.496-3.105 2.25 0 4.579.321 6.986.962s4.354 1.57 5.839 2.784c.99.81 1.552 1.868 1.687 3.173s-.202 2.452-1.012 3.442c-.518.63-1.193 1.125-2.025 1.485-.833.36-1.643.507-2.43.439-1.103-.112-1.901-.63-2.396-1.552-.36-.653-1.542-1.17-3.544-1.553-2.003-.382-3.926-.371-5.771.034-1.8.45-2.7 1.26-2.7 2.43 0 .202.067.388.202.557s.371.32.709.455c.337.135.647.248.928.338s.72.186 1.316.287 1.052.174 1.367.219z"/><path d="m125.608 16.226c1.125.18 2.059.731 2.801 1.654.743.922 1.114 1.979 1.114 3.172v12.926c0 4.748-1.687 8.809-5.062 12.184s-7.437 5.062-12.184 5.062c-3.127 0-6.019-.77-8.674-2.312-2.655-1.541-4.753-3.633-6.294-6.277s-2.312-5.529-2.312-8.657v-13.129c0-1.417.551-2.609 1.654-3.577 1.08-.945 2.362-1.294 3.847-1.046 1.125.18 2.059.731 2.802 1.654.742.922 1.113 1.979 1.113 3.172v12.926c0 2.16.771 4.005 2.312 5.535s3.392 2.295 5.552 2.295 4.005-.765 5.535-2.295 2.295-3.375 2.295-5.535v-13.129c0-1.417.551-2.609 1.654-3.577 1.08-.945 2.362-1.294 3.847-1.046z"/><path d="m150.38 16.158c3.173 0 6.104.782 8.792 2.346 2.689 1.564 4.821 3.69 6.396 6.379 1.575 2.688 2.362 5.619 2.362 8.791v12.859c0 1.305-.455 2.413-1.367 3.324-.911.912-2.019 1.367-3.324 1.367-.832 0-1.62-.214-2.362-.641-.743-.428-1.317-1.001-1.722-1.721-2.7 1.575-5.625 2.362-8.775 2.362-3.172 0-6.103-.787-8.791-2.362-2.689-1.575-4.815-3.707-6.379-6.396s-2.346-5.619-2.346-8.792c0-4.815 1.716-8.938 5.147-12.369s7.554-5.147 12.369-5.147zm5.738 23.288c1.597-1.598 2.396-3.522 2.396-5.772s-.793-4.168-2.379-5.754-3.505-2.379-5.755-2.379-4.168.793-5.754 2.379-2.379 3.504-2.379 5.754.793 4.168 2.379 5.755c1.586 1.586 3.504 2.379 5.754 2.379s4.163-.787 5.738-2.362z"/><path d="m186.864 41.437c1.012.315 1.822.889 2.43 1.721.607.833.911 1.766.911 2.801 0 1.575-.641 2.846-1.924 3.814-.81.607-1.732.911-2.767.911-.383 0-.833-.079-1.35-.236-3.623-1.125-6.553-3.201-8.792-6.227s-3.358-6.44-3.358-10.243v-28.552c0-1.418.551-2.61 1.654-3.578 1.08-.945 2.362-1.293 3.847-1.046 1.125.18 2.059.731 2.801 1.654.743.922 1.114 1.98 1.114 3.172v28.35c0 1.71.501 3.251 1.502 4.624 1.001 1.372 2.312 2.317 3.932 2.835z"/></g><path d="m381.105 186.32c-12.336-.046-23.603-3.168-34.071-9.3-10.425-6.107-18.691-14.373-24.797-24.797-6.171-10.535-9.387-21.878-9.394-34.307v-10.812c0-5.055-1.791-9.387-5.372-12.995-3.581-3.607-7.9-5.411-12.956-5.411s-9.387 1.804-12.995 5.411c-3.607 3.608-5.411 7.94-5.411 12.995v30.73c0 3.318-1.29 6.11-3.871 8.374-2.528 2.212-5.53 3.028-9.006 2.449-2.633-.421-4.819-1.711-6.557-3.871-1.738-2.159-2.607-4.634-2.607-7.425v-30.257c0-7.32 1.804-14.074 5.412-20.262 3.607-6.189 8.518-11.073 14.733-14.655 6.214-3.633 12.982-5.45 20.302-5.45 7.321 0 14.075 1.803 20.263 5.411 6.188 3.607 11.086 8.505 14.694 14.694 3.607 6.188 5.411 12.942 5.411 20.262v10.812.097c.024 8.309 2.272 16.113 6.4 23.16 4.137 7.063 9.867 12.663 16.93 16.801 6.746 3.952 14.07 6.028 21.972 6.217.339-.031.681-.047 1.026-.047 6.12 0 11.088 4.969 11.088 11.088 0 6.12-4.968 11.088-11.088 11.088-.035 0-.071 0-.106 0z"/></g></svg>