<?xml version="1.0" encoding="UTF-8" standalone="no"?><!DOCTYPE svg PUBLIC "-//W3C//DTD SVG 1.1//EN" "http://www.w3.org/Graphics/SVG/1.1/DTD/svg11.dtd"><svg width="100%" height="100%" viewBox="0 0 600 186" version="1.1" xmlns="http://www.w3.org/2000/svg" xmlns:xlink="http://www.w3.org/1999/xlink" xml:space="preserve" xmlns:serif="http://www.serif.com/" style="fill-rule:evenodd;clip-rule:evenodd;stroke-linejoin:round;stroke-miterlimit:2;"><g id="visual_pinball"><path d="M179.862,66.21c5.53,0 10.836,1.08 15.918,3.239c5.082,2.159 9.453,5.069 13.114,8.729c3.66,3.66 6.57,8.032 8.729,13.114c2.159,5.082 3.239,10.388 3.239,15.918c-0,7.426 -1.83,14.285 -5.491,20.579c-3.66,6.293 -8.637,11.283 -14.93,14.97c-6.294,3.686 -13.153,5.53 -20.579,5.53c-6.688,-0 -13.035,-1.58 -19.038,-4.74l-0,29.861c-0,3.054 -1.067,5.648 -3.2,7.781c-2.133,2.133 -4.727,3.2 -7.781,3.2c-3.055,-0 -5.662,-1.067 -7.821,-3.2c-2.159,-2.133 -3.239,-4.727 -3.239,-7.781l0,-66.2c0,-7.426 1.843,-14.286 5.53,-20.579c3.687,-6.294 8.677,-11.27 14.97,-14.931c6.294,-3.66 13.153,-5.49 20.579,-5.49Zm13.43,54.508c3.739,-3.739 5.608,-8.242 5.608,-13.508c0,-5.267 -1.856,-9.756 -5.569,-13.469c-3.713,-3.713 -8.203,-5.57 -13.469,-5.57c-5.267,0 -9.756,1.857 -13.469,5.57c-3.713,3.713 -5.569,8.202 -5.569,13.469c-0,5.266 1.856,9.756 5.569,13.469c3.713,3.713 8.202,5.569 13.469,5.569c5.266,0 9.743,-1.843 13.43,-5.53Z" style="fill:#fff;fill-rule:nonzero;"/><path d="M229.462,69.449c2.159,-2.159 4.766,-3.239 7.821,-3.239c3.054,0 5.648,1.067 7.781,3.199c2.133,2.133 3.199,4.727 3.199,7.782l0,60.117c0,3.055 -1.066,5.648 -3.199,7.781c-2.133,2.133 -4.727,3.2 -7.781,3.2c-3.055,-0 -5.649,-1.067 -7.782,-3.2c-2.133,-2.133 -3.199,-4.726 -3.199,-7.781l-0,-60.117c-0,-3.055 1.053,-5.635 3.16,-7.742Z" style="fill:#fff;"/><path d="M254.582,52.057c-4.813,4.813 -10.579,7.219 -17.299,7.219c-6.721,0 -12.487,-2.406 -17.3,-7.219c-4.813,-4.813 -7.22,-10.58 -7.22,-17.3c0,-6.72 2.407,-12.487 7.22,-17.3c4.813,-4.813 10.579,-7.219 17.3,-7.219c6.72,-0 12.486,2.406 17.299,7.219c4.813,4.813 7.22,10.58 7.22,17.3c-0,6.72 -2.407,12.487 -7.22,17.3Z" style="fill:#fff;"/><path d="M381.251,66.21c5.53,0 10.836,1.08 15.918,3.239c5.082,2.159 9.453,5.069 13.113,8.729c3.661,3.66 6.57,8.032 8.73,13.114c2.159,5.082 3.239,10.388 3.239,15.918c-0,7.426 -1.83,14.285 -5.491,20.579c-3.66,6.293 -8.637,11.283 -14.93,14.97c-6.294,3.686 -13.153,5.53 -20.579,5.53c-7.426,-0 -14.286,-1.844 -20.579,-5.53c-6.294,-3.687 -11.284,-8.677 -14.97,-14.97c-3.687,-6.294 -5.53,-13.153 -5.53,-20.579l0,-66.121c0,-3.055 1.08,-5.662 3.239,-7.821c2.159,-2.159 4.766,-3.239 7.821,-3.239c3.054,0 5.648,1.08 7.781,3.239c2.133,2.159 3.199,4.766 3.199,7.821l0,29.861c6.004,-3.16 12.35,-4.74 19.039,-4.74Zm-13.509,54.508c3.739,3.687 8.242,5.53 13.509,5.53c5.266,0 9.756,-1.856 13.469,-5.569c3.713,-3.713 5.569,-8.203 5.569,-13.469c0,-5.267 -1.856,-9.756 -5.569,-13.469c-3.713,-3.713 -8.203,-5.57 -13.469,-5.57c-5.267,0 -9.756,1.857 -13.469,5.57c-3.713,3.713 -5.57,8.202 -5.57,13.469c0,5.266 1.844,9.769 5.53,13.508Z" style="fill:#fff;fill-rule:nonzero;"/><path d="M381.251,66.232c5.53,0 10.836,1.08 15.918,3.239c5.082,2.16 9.453,5.069 13.113,8.73c3.661,3.66 6.57,8.031 8.73,13.113c2.159,5.082 3.239,10.388 3.239,15.918c-0,7.426 -1.83,14.286 -5.491,20.579c-3.66,6.294 -8.637,11.284 -14.93,14.97c-6.294,3.687 -13.153,5.53 -20.579,5.53c-7.426,0 -14.286,-1.843 -20.579,-5.53c-6.294,-3.686 -11.284,-8.676 -14.97,-14.97c-3.687,-6.293 -5.53,-13.153 -5.53,-20.579l22.04,-36.26c6.004,-3.16 12.35,-4.74 19.039,-4.74Zm-13.509,54.509c3.739,3.686 8.242,5.53 13.509,5.53c5.266,-0 9.756,-1.857 13.469,-5.57c3.713,-3.713 5.569,-8.202 5.569,-13.469c0,-5.266 -1.856,-9.756 -5.569,-13.469c-3.713,-3.713 -8.203,-5.569 -13.469,-5.569c-5.267,-0 -9.756,1.856 -13.469,5.569c-3.713,3.713 -5.57,8.203 -5.57,13.469c0,5.267 1.844,9.77 5.53,13.509Z" style="fill:#fff;fill-rule:nonzero;"/><path d="M467.809,66.21c7.426,0 14.286,1.83 20.579,5.49c6.294,3.661 11.284,8.637 14.97,14.931c3.687,6.293 5.53,13.153 5.53,20.579l0,30.098c0,3.055 -1.066,5.648 -3.199,7.781c-2.133,2.133 -4.727,3.2 -7.782,3.2c-1.948,-0 -3.792,-0.501 -5.53,-1.501c-1.737,-1.001 -3.08,-2.344 -4.028,-4.029c-6.32,3.686 -13.167,5.53 -20.54,5.53c-7.426,-0 -14.285,-1.844 -20.579,-5.53c-6.293,-3.687 -11.27,-8.677 -14.93,-14.97c-3.66,-6.294 -5.491,-13.153 -5.491,-20.579c0,-11.27 4.016,-20.921 12.048,-28.953c8.031,-8.031 17.682,-12.047 28.952,-12.047Zm13.43,54.508c3.739,-3.739 5.609,-8.242 5.609,-13.508c-0,-5.267 -1.857,-9.756 -5.57,-13.469c-3.713,-3.713 -8.202,-5.57 -13.469,-5.57c-5.266,0 -9.756,1.857 -13.469,5.57c-3.713,3.713 -5.569,8.202 -5.569,13.469c-0,5.266 1.856,9.756 5.569,13.469c3.713,3.713 8.203,5.569 13.469,5.569c5.267,0 9.743,-1.843 13.43,-5.53Z" style="fill:#fff;fill-rule:nonzero;"/><path d="M549.324,125.379c2.37,0.738 4.266,2.081 5.688,4.029c1.422,1.949 2.133,4.134 2.133,6.557c-0,3.687 -1.501,6.662 -4.503,8.927c-1.896,1.422 -4.055,2.133 -6.478,2.133c-0.895,-0 -1.948,-0.185 -3.16,-0.553c-8.479,-2.634 -15.338,-7.492 -20.579,-14.575c-5.24,-7.084 -7.86,-15.076 -7.86,-23.976l0,-66.832c0,-3.318 1.29,-6.109 3.871,-8.374c2.528,-2.212 5.53,-3.028 9.006,-2.449c2.633,0.421 4.819,1.712 6.557,3.871c1.738,2.159 2.606,4.635 2.606,7.426l0,66.358c0,4.002 1.172,7.61 3.516,10.823c2.343,3.212 5.411,5.424 9.203,6.635Z" style="fill:#fff;fill-rule:nonzero;"/><path d="M592.179,125.379c2.37,0.738 4.266,2.081 5.688,4.029c1.422,1.949 2.133,4.134 2.133,6.557c0,3.687 -1.501,6.662 -4.503,8.927c-1.896,1.422 -4.055,2.133 -6.478,2.133c-0.895,-0 -1.948,-0.185 -3.16,-0.553c-8.479,-2.634 -15.338,-7.492 -20.578,-14.575c-5.241,-7.084 -7.861,-15.076 -7.861,-23.976l0,-66.832c0,-3.318 1.291,-6.109 3.871,-8.374c2.528,-2.212 5.53,-3.028 9.006,-2.449c2.633,0.421 4.819,1.712 6.557,3.871c1.738,2.159 2.607,4.635 2.607,7.426l-0,66.358c-0,4.002 1.171,7.61 3.515,10.823c2.344,3.212 5.411,5.424 9.203,6.635Z" style="fill:#fff;fill-rule:nonzero;"/><g><path d="M44.811,2.976c0.473,1.192 0.462,2.396 -0.033,3.611l-17.584,41.242c-0.382,0.855 -0.962,1.547 -1.738,2.076c-0.776,0.528 -1.637,0.793 -2.582,0.793l-0.304,-0.034c-0.022,-0 -0.062,0.006 -0.118,0.017c-0.056,0.011 -0.107,0.017 -0.152,0.017c-0.945,-0 -1.805,-0.265 -2.582,-0.793c-0.776,-0.529 -1.355,-1.221 -1.738,-2.076l-17.583,-41.242c-0.518,-1.17 -0.529,-2.374 -0.034,-3.611c0.472,-1.17 1.316,-2.025 2.531,-2.565c1.193,-0.495 2.385,-0.501 3.578,-0.017c1.192,0.484 2.047,1.322 2.565,2.514l13.533,31.759l13.568,-31.759c0.517,-1.192 1.372,-2.03 2.565,-2.514c1.192,-0.484 2.385,-0.478 3.577,0.017c1.215,0.54 2.059,1.395 2.531,2.565Zm-22.004,46.777" style="fill:#fff;fill-rule:nonzero;"/><path d="M49.739,17.015c0.922,-0.922 2.036,-1.383 3.341,-1.383c1.305,-0 2.413,0.455 3.324,1.367c0.912,0.911 1.367,2.019 1.367,3.324l0,25.683c0,1.305 -0.455,2.414 -1.367,3.325c-0.911,0.911 -2.019,1.367 -3.324,1.367c-1.305,-0 -2.413,-0.456 -3.324,-1.367c-0.912,-0.911 -1.367,-2.02 -1.367,-3.325l-0,-25.683c-0,-1.305 0.45,-2.408 1.35,-3.308Zm7.627,-6.479c-1.192,1.192 -2.621,1.788 -4.286,1.788c-1.665,0 -3.094,-0.596 -4.286,-1.788c-1.193,-1.193 -1.789,-2.622 -1.789,-4.287c0,-1.665 0.596,-3.093 1.789,-4.286c1.192,-1.192 2.621,-1.789 4.286,-1.789c1.665,0 3.094,0.597 4.286,1.789c1.193,1.193 1.789,2.621 1.789,4.286c-0,1.665 -0.596,3.094 -1.789,4.287Z" style="fill:#fff;fill-rule:nonzero;"/><path d="M75.861,29.132l3.578,0.472c0.472,0.068 1.158,0.18 2.058,0.338c0.9,0.157 1.609,0.32 2.127,0.489c0.517,0.169 1.164,0.394 1.94,0.675c0.776,0.281 1.395,0.591 1.856,0.928c0.462,0.338 0.968,0.754 1.519,1.249c0.551,0.495 0.973,1.035 1.266,1.62c0.292,0.585 0.54,1.271 0.742,2.059c0.203,0.787 0.304,1.631 0.304,2.531c-0,3.262 -1.35,5.923 -4.05,7.982c-2.7,2.058 -6.199,3.088 -10.496,3.088c-2.273,-0 -4.618,-0.315 -7.037,-0.945c-2.419,-0.63 -4.359,-1.553 -5.822,-2.768c-0.99,-0.81 -1.552,-1.867 -1.687,-3.172c-0.135,-1.283 0.213,-2.43 1.046,-3.443c0.855,-1.035 1.935,-1.608 3.24,-1.721c1.282,-0.112 2.407,0.248 3.375,1.08c1.192,1.013 2.959,1.609 5.299,1.789c2.34,0.18 4.185,-0.068 5.535,-0.743c0.81,-0.36 1.215,-0.742 1.215,-1.147c-0,-0.225 -0.068,-0.428 -0.203,-0.608c-0.135,-0.18 -0.371,-0.343 -0.709,-0.489c-0.337,-0.146 -0.647,-0.27 -0.928,-0.371c-0.281,-0.102 -0.714,-0.208 -1.299,-0.321c-0.585,-0.112 -1.046,-0.197 -1.384,-0.253c-0.337,-0.056 -0.855,-0.141 -1.552,-0.253c-3.645,-0.563 -6.278,-1.181 -7.898,-1.856c-3.825,-1.688 -5.749,-4.557 -5.771,-8.607c-0,-3.262 1.361,-5.928 4.084,-7.998c2.722,-2.07 6.221,-3.105 10.496,-3.105c2.25,-0 4.579,0.32 6.986,0.962c2.407,0.641 4.354,1.569 5.839,2.784c0.99,0.81 1.552,1.867 1.687,3.172c0.135,1.305 -0.202,2.453 -1.012,3.443c-0.518,0.63 -1.193,1.125 -2.025,1.485c-0.833,0.36 -1.643,0.506 -2.43,0.439c-1.103,-0.113 -1.901,-0.63 -2.396,-1.553c-0.36,-0.652 -1.542,-1.17 -3.544,-1.552c-2.003,-0.383 -3.926,-0.372 -5.771,0.033c-1.8,0.45 -2.7,1.26 -2.7,2.43c-0,0.203 0.067,0.389 0.202,0.557c0.135,0.169 0.371,0.321 0.709,0.456c0.337,0.135 0.647,0.247 0.928,0.337c0.281,0.09 0.72,0.186 1.316,0.287c0.596,0.102 1.052,0.175 1.367,0.22Z" style="fill:#fff;fill-rule:nonzero;"/><path d="M125.608,15.699c1.125,0.18 2.059,0.731 2.801,1.654c0.743,0.922 1.114,1.98 1.114,3.172l0,12.927c0,4.747 -1.687,8.808 -5.062,12.183c-3.375,3.375 -7.437,5.063 -12.184,5.063c-3.127,-0 -6.019,-0.771 -8.674,-2.312c-2.655,-1.541 -4.753,-3.634 -6.294,-6.278c-1.541,-2.643 -2.312,-5.529 -2.312,-8.656l0,-13.129c0,-1.418 0.551,-2.61 1.654,-3.578c1.08,-0.944 2.362,-1.293 3.847,-1.046c1.125,0.18 2.059,0.731 2.802,1.654c0.742,0.922 1.113,1.98 1.113,3.172l0,12.927c0,2.16 0.771,4.005 2.312,5.535c1.541,1.53 3.392,2.295 5.552,2.295c2.16,-0 4.005,-0.765 5.535,-2.295c1.53,-1.53 2.295,-3.375 2.295,-5.535l-0,-13.129c-0,-1.418 0.551,-2.61 1.654,-3.578c1.08,-0.944 2.362,-1.293 3.847,-1.046Z" style="fill:#fff;fill-rule:nonzero;"/><path d="M150.38,15.632c3.173,-0 6.104,0.782 8.792,2.345c2.689,1.564 4.821,3.69 6.396,6.379c1.575,2.689 2.362,5.619 2.362,8.792l0,12.858c0,1.305 -0.455,2.414 -1.367,3.325c-0.911,0.911 -2.019,1.367 -3.324,1.367c-0.832,-0 -1.62,-0.214 -2.362,-0.642c-0.743,-0.427 -1.317,-1.001 -1.722,-1.721c-2.7,1.575 -5.625,2.363 -8.775,2.363c-3.172,-0 -6.103,-0.788 -8.791,-2.363c-2.689,-1.575 -4.815,-3.707 -6.379,-6.395c-1.564,-2.689 -2.346,-5.62 -2.346,-8.792c0,-4.815 1.716,-8.938 5.147,-12.369c3.431,-3.432 7.554,-5.147 12.369,-5.147Zm5.738,23.287c1.597,-1.597 2.396,-3.521 2.396,-5.771c0,-2.25 -0.793,-4.168 -2.379,-5.754c-1.586,-1.587 -3.505,-2.38 -5.755,-2.38c-2.25,0 -4.168,0.793 -5.754,2.38c-1.586,1.586 -2.379,3.504 -2.379,5.754c-0,2.25 0.793,4.168 2.379,5.754c1.586,1.586 3.504,2.38 5.754,2.38c2.25,-0 4.163,-0.788 5.738,-2.363Z" style="fill:#fff;fill-rule:nonzero;"/><path d="M186.864,40.91c1.012,0.315 1.822,0.889 2.43,1.722c0.607,0.832 0.911,1.766 0.911,2.801c0,1.575 -0.641,2.846 -1.924,3.813c-0.81,0.608 -1.732,0.912 -2.767,0.912c-0.383,-0 -0.833,-0.079 -1.35,-0.237c-3.623,-1.125 -6.553,-3.2 -8.792,-6.226c-2.239,-3.027 -3.358,-6.441 -3.358,-10.243l-0,-28.553c-0,-1.417 0.551,-2.61 1.654,-3.577c1.08,-0.945 2.362,-1.294 3.847,-1.046c1.125,0.18 2.059,0.731 2.801,1.653c0.743,0.923 1.114,1.98 1.114,3.173l0,28.35c0,1.71 0.501,3.251 1.502,4.623c1.001,1.373 2.312,2.318 3.932,2.835Z" style="fill:#fff;fill-rule:nonzero;"/></g><path d="M381.105,185.793c-12.336,-0.046 -23.603,-3.168 -34.071,-9.3c-10.425,-6.106 -18.691,-14.372 -24.797,-24.797c-6.171,-10.535 -9.387,-21.877 -9.394,-34.307l-0,-10.811c-0,-5.056 -1.791,-9.388 -5.372,-12.995c-3.581,-3.608 -7.9,-5.412 -12.956,-5.412c-5.056,0 -9.387,1.804 -12.995,5.412c-3.607,3.607 -5.411,7.939 -5.411,12.995l-0,30.73c-0,3.318 -1.29,6.109 -3.871,8.374c-2.528,2.212 -5.53,3.028 -9.006,2.449c-2.633,-0.422 -4.819,-1.712 -6.557,-3.871c-1.738,-2.159 -2.607,-4.635 -2.607,-7.426l0,-30.256c0,-7.321 1.804,-14.075 5.412,-20.263c3.607,-6.188 8.518,-11.073 14.733,-14.654c6.214,-3.634 12.982,-5.451 20.302,-5.451c7.321,0 14.075,1.804 20.263,5.411c6.188,3.608 11.086,8.506 14.694,14.694c3.607,6.188 5.411,12.942 5.411,20.263l0,10.811l0,0.098c0.024,8.309 2.272,16.113 6.4,23.159c4.137,7.064 9.867,12.664 16.93,16.801c6.746,3.952 14.07,6.028 21.972,6.218c0.339,-0.031 0.681,-0.047 1.026,-0.047c6.12,-0 11.088,4.968 11.088,11.088c0,6.119 -4.968,11.088 -11.088,11.088c-0.035,-0 -0.071,-0.001 -0.106,-0.001Z" style="fill:#fff;"/></g></svg>