<svg clip-rule="evenodd" fill-rule="evenodd" stroke-linejoin="round" stroke-miterlimit="2" viewBox="0 0 600 72" xmlns="http://www.w3.org/2000/svg"><g fill="#fff"><path d="m0 .883v14.093h14.093v-14.093h-14.093z"/><path d="m14.093.883v14.093h14.092v-14.093h-14.092z"/><path d="m14.093 29.068v14.093h14.092v-14.093z"/><path d="m28.185.883v14.093h14.093v-14.093h-14.093z"/><path d="m28.185 29.068v14.093h14.093v-14.093z"/><path d="m42.278.883v14.093h14.092v-14.093h-14.092z"/><path d="m42.278 29.068v14.093h14.092v-14.093z"/><path d="m42.278 57.253v14.093h14.092v-14.093z"/><path d="m42.278 14.976v14.092h14.092v-14.092z"/><path d="m56.37 43.161v14.092h14.093v-14.092z"/><path d="m56.37 29.068v14.093h14.093v-14.093z"/><path d="m70.463 43.161v14.092h14.093v-14.092z"/><path d="m70.463 29.068v14.093h14.093v-14.093z"/><path d="m84.556.883v14.093h14.092v-14.093h-14.092z"/><path d="m84.556 29.068v14.093h14.092v-14.093z"/><path d="m84.556 57.253v14.093h14.092v-14.093z"/><path d="m84.556 14.976v14.092h14.092v-14.092z"/><path d="m98.648.883v14.093h14.093v-14.093h-14.093z"/><path d="m98.648 29.068v14.093h14.093v-14.093z"/><path d="m112.741.883v14.093h14.092v-14.093h-14.092z"/><path d="m112.741 29.068v14.093h14.092v-14.093z"/><path d="m126.833.883v14.093h14.093v-14.093h-14.093z"/><g fill-rule="nonzero"><path d="m241.463.883-25.106 68.845h-19.881l-25.106-68.845h18.633l16.645 48.362 16.645-48.362h18.17z"/><path d="m292.808 43.79c0 8.538-2.489 15.265-7.467 20.181-4.978 4.917-11.967 7.375-20.968 7.375-9 0-15.99-2.458-20.968-7.375-4.978-4.916-7.467-11.643-7.467-20.181 0-8.6 2.505-15.351 7.514-20.252 5.008-4.901 11.982-7.351 20.921-7.351 9.062 0 16.067 2.466 21.014 7.398 4.947 4.931 7.421 11.666 7.421 20.205zm-20.482 12.622c1.079-1.326 1.888-2.921 2.427-4.785.539-1.865.809-4.447.809-7.745 0-3.051-.277-5.61-.832-7.675s-1.325-3.714-2.312-4.947c-.986-1.264-2.173-2.158-3.56-2.682s-2.882-.786-4.485-.786-3.028.216-4.277.647c-1.248.432-2.442 1.295-3.583 2.59-1.017 1.202-1.826 2.851-2.427 4.947s-.902 4.731-.902 7.906c0 2.836.262 5.294.786 7.375.524 2.08 1.295 3.752 2.312 5.016.986 1.202 2.165 2.081 3.537 2.636 1.372.554 2.936.832 4.693.832 1.51 0 2.951-.254 4.323-.763s2.535-1.364 3.491-2.566z"/><path d="m350.784 69.728h-19.419l-11.096-15.535-11.374 15.535h-19.049l20.482-25.938-20.159-25.985h19.419l10.912 15.258 10.958-15.258h19.095l-20.205 25.568z"/><path d="m385.523 56.181v-10.819c-2.25.185-4.685.439-7.305.762-2.62.324-4.608.702-5.964 1.133-1.665.524-2.936 1.287-3.815 2.289-.878 1.002-1.318 2.319-1.318 3.953 0 1.079.093 1.957.278 2.635.185.679.647 1.326 1.387 1.942.709.617 1.557 1.071 2.543 1.364s2.527.44 4.623.44c1.665 0 3.352-.34 5.063-1.018s3.214-1.572 4.508-2.681zm0 8.045c-.894.678-2.003 1.495-3.329 2.45-1.325.956-2.574 1.711-3.745 2.266-1.634.739-3.329 1.287-5.086 1.641-1.757.355-3.683.532-5.779.532-4.932 0-9.062-1.526-12.391-4.578-3.329-3.051-4.994-6.95-4.994-11.697 0-3.791.848-6.889 2.543-9.293 1.695-2.405 4.1-4.3 7.213-5.687 3.082-1.388 6.904-2.374 11.466-2.96 4.562-.585 9.294-1.017 14.195-1.294v-.278c0-2.866-1.172-4.847-3.514-5.941-2.343-1.094-5.795-1.641-10.357-1.641-2.743 0-5.672.485-8.785 1.456s-5.348 1.719-6.704 2.243h-1.526v-12.53c1.757-.463 4.616-1.01 8.577-1.642 3.961-.631 7.929-.947 11.906-.947 9.463 0 16.298 1.456 20.505 4.369 4.208 2.913 6.311 7.482 6.311 13.709v35.324h-16.506z"/><path d="m443.944 69.265c-1.788.463-3.684.825-5.687 1.087-2.004.262-4.454.393-7.352.393-6.473 0-11.289-1.31-14.448-3.93-3.16-2.62-4.739-7.105-4.739-13.455v-24.273h-6.843v-11.282h6.843v-14.841h16.644v14.841h15.582v11.282h-15.582v18.401c0 1.819.016 3.406.047 4.763.03 1.356.277 2.573.739 3.652.432 1.079 1.195 1.934 2.289 2.566s2.689.948 4.785.948c.864 0 1.996-.185 3.399-.555 1.402-.37 2.381-.709 2.936-1.017h1.387z"/><path d="m485.757 33.664h-1.48c-.709-.247-1.849-.432-3.421-.555s-2.882-.185-3.93-.185c-2.374 0-4.47.154-6.288.463-1.819.308-3.776.832-5.872 1.572v34.769h-16.645v-51.923h16.645v7.629c3.668-3.144 6.858-5.232 9.571-6.265 2.712-1.032 5.209-1.549 7.49-1.549.586 0 1.248.016 1.988.046.74.031 1.387.078 1.942.139z"/><path d="m544.151 43.79c0 8.538-2.489 15.265-7.467 20.181-4.978 4.917-11.968 7.375-20.968 7.375-9.001 0-15.99-2.458-20.968-7.375-4.978-4.916-7.467-11.643-7.467-20.181 0-8.6 2.504-15.351 7.513-20.252s11.983-7.351 20.922-7.351c9.062 0 16.067 2.466 21.014 7.398 4.947 4.931 7.421 11.666 7.421 20.205zm-20.483 12.622c1.079-1.326 1.888-2.921 2.428-4.785.539-1.865.809-4.447.809-7.745 0-3.051-.278-5.61-.832-7.675-.555-2.065-1.326-3.714-2.312-4.947-.986-1.264-2.173-2.158-3.56-2.682s-2.882-.786-4.485-.786-3.029.216-4.277.647c-1.248.432-2.443 1.295-3.583 2.59-1.017 1.202-1.826 2.851-2.428 4.947-.601 2.096-.901 4.731-.901 7.906 0 2.836.262 5.294.786 7.375.524 2.08 1.294 3.752 2.312 5.016.986 1.202 2.165 2.081 3.537 2.636 1.371.554 2.936.832 4.693.832 1.51 0 2.951-.254 4.323-.763 1.371-.509 2.535-1.364 3.49-2.566z"/><path d="m600 69.728h-16.737v-25.753c0-2.096-.108-4.185-.324-6.265-.216-2.081-.586-3.614-1.11-4.601-.616-1.14-1.518-1.973-2.704-2.497-1.187-.524-2.844-.786-4.971-.786-1.51 0-3.044.247-4.6.74-1.557.493-3.244 1.279-5.063 2.358v36.804h-16.645v-51.923h16.645v5.733c2.959-2.311 5.803-4.084 8.531-5.317 2.727-1.233 5.756-1.849 9.085-1.849 5.61 0 9.994 1.634 13.154 4.901 3.159 3.267 4.739 8.153 4.739 14.657z"/></g></g></svg>