<svg clip-rule="evenodd" fill-rule="evenodd" stroke-linejoin="round" stroke-miterlimit="2" viewBox="0 0 600 124" xmlns="http://www.w3.org/2000/svg"><g fill="#fff"><g fill-rule="nonzero"><path d="m258.141 15.336s-26.973 73.293-26.973 78.1c0 0-.165 2.296.334 1.797 0 0 5.695-11.083 12.342-22.196 5.102-8.53 10.764-16.815 14.84-21.711 9.389-11.274 17.136-16.693 19.386-18.089 2.21-1.371 2.713.094 1.086 1.232s-10.454 6.797-19.383 18.304c-3.717 4.79-9.724 13.252-15.23 22.953-8.692 15.316-16.382 32.949-16.382 32.949s-2.911 6.431-6.421.675c-14.524-29.665 23.439-71.971 21.861-73.549-.59-.59-18.836 23.077-30.049 35.119-11.783 12.654-43.667 40.796-50.614 39.973 0 0-2.711-.737-.604-2.691 17.204-14.754 63.42-88.028 33.93-92.031-28.57-3.877-57.79 40.677-45.409 54.141 9.727 9.726 24.876-10.469 27.914-17.866 7.48-17.38 5.084-24.378 5.084-24.378-.34-1.125.98-2.524 1.534-.812 0 0 6.232 18.933-1.112 32.263-5.185 9.682-23.686 23.404-34.744 12.346-14.935-14.935 18.428-64.685 50.71-58.273 22.325 4.434 23.079 24.826 12.601 43.975-12.184 22.266-37.332 42.301-37.332 42.301-1.348.955.235 1.149.965.608 0 0 17.565-10.782 36.866-32.286 14.755-14.755 43.205-54.758 43.205-54.758s2.887-1.838 1.595 1.904z"/><path d="m297.519 43.406c-2.482 3.68-6.977 4.988-10.042 2.922-3.064-2.067-3.537-6.725-1.056-10.404 2.482-3.68 6.977-4.989 10.042-2.922 3.064 2.066 3.537 6.724 1.056 10.404z"/><path d="m401.393 43.057c-2.482 3.68-6.977 4.988-10.042 2.921-3.064-2.066-3.537-6.724-1.056-10.404 2.482-3.68 6.978-4.988 10.042-2.921 3.064 2.066 3.537 6.724 1.056 10.404z"/><path d="m402.409 75.286s-4.805 4.857-12.513 13.931c-9.272 11.143-17.908 20.191-20.284 18.495-4.767-3.133 21.601-41.921 20.378-43.145-.646-.646-12.927-.999-14.94 1.015-1.57 1.57-6.608 8.037-13.955 17.309-7.348 9.271-21.669 27.591-25.875 24.821-4.762-3.139 47.605-89.627 46.644-90.589-.627-.626-11.397-.611-13.41 1.402-.974.974-9.959 16.863-20.919 35.258 0 0-9.779 13.635-22.045 28.9-9.939 12.368-20.596 28.298-25.3 25.029-4.767-3.133 47.605-89.627 46.643-90.589-.627-.626-11.397-.611-13.41 1.402-.974.974-9.699 16.477-20.658 34.872 0 0-41.385 58.39-47.094 54.315-4.767-3.133 21.601-41.921 20.378-43.145-.646-.646-13.314-.611-15.328 1.402-2.461 2.461-18.459 23.241-18.459 23.241-1.063 1.377.445 2.62 1.592 1.054 0 0 10.384-14.407 11.027-13.243.825 1.494-15.967 26.197-5.281 32.763 8.624 5.281 18.115-7.26 26.649-17.888 7.327-9.124 14.515-20.38 12.488-14.704-7.458 13.892-12.375 27.399-4.618 32.592 8.623 5.281 18.115-7.26 26.649-17.888 7.241-9.017 14.645-19.855 12.903-14.592-7.427 13.833-12.307 27.268-4.522 32.48 8.624 5.281 21.332-9.882 28.647-19.52 7.314-9.637 10.383-14.407 11.026-13.243.824 1.494-15.967 26.197-5.281 32.763 8.623 5.281 18.182-7.206 26.649-17.888 3.779-4.766 2.917-.518 2.917-.518z"/><path d="m513.606 87.867c-.87-1.467 7.253-18.845-.702-23.65-8.783-5.013-17.586 8.313-25.79 19.199-5.789 7.682-5.316 5.094-5.316 5.094s9.08-19.918 1.586-23.96-16.554 6.705-22.324 14.784c-5.77 8.081-23.555 31.772-27.921 28.754-4.297-2.969 21.601-41.921 20.378-43.145-.647-.646-12.163-1.879-14.177.759-.481.632-2.484 6.015-3.625 3.754l-3.037 10.74-11.402 18.912c2.219-2.509 1.878.668 1.878.668-.514 4.328-.366 7.952 3.689 10.608 7.177 4.715 18.759-7.803 26.874-18.111 6.366-8.087 19.242-26.769 22.69-24.537 3.447 2.232-20.501 40.018-21.166 42.713-.279 1.044 13.976.7 14.977-.426.569-.605 29.772-45.811 35.708-42.62 4.862 2.984-19.755 42.207-18.494 43.392.666.626 13.68.471 15.041-1.014 1.024-1.09 28.32-46.493 36.666-43.823 3.25 1.3-3.088 8.676-7.991 17.248-5.347 9.346-8.922 23.107-.527 27.212 10.313 4.873 22.787-15.052 31.78-26.572s16.109-20.626 16.109-20.626c2.391-3.199 4.829 14.71-1.139 29.058-9.538 23.607-15.251 12.687-14.514 11.123 6.617-1.102 7.406-10.502.834-11.525-6.573-1.023-7.694 7.478-5.094 11.899 2.6 4.42 8.275 7.161 14.243 7.161 10.827 0 19.832-12.209 22.244-15.223 2.412-3.012 4.665-6.132 4.665-6.132.797-1.262-.483-1.879-1.323-.85 0 0-8.923 11.58-7.461 7.089 4.091-16.908-13.703-33.294-7.668-39.039 5.812-5.534 1.633-6.596-.423-3.11-1.974 3.347-21.435 27.548-28.911 37.838-7.477 10.289-17.035 18.788-19.034 17.189-3.758-2.994 5.731-12.75 10.008-22.176 4.275-9.426 5.602-16.922-.848-22.012-10.103-7.017-29.804 24.502-30.483 23.357z"/><path d="m431.437 64.966c-6.831-5.102-19.751-.603-29.608 10.99-9.856 11.592-12.851 24.963-6.086 31.728 9.166 9.166 19.591-1.097 29.448-12.689 7.694-9.05 21.129-18.913 6.246-30.029zm-7.605 27.184c-7.519 11.718-16.942 19.043-20.66 16.616-4.277-2.791.801-12.815 8.319-24.533 7.519-11.718 14.075-21.316 19.784-17.259 5.707 4.057.075 13.458-7.443 25.176z"/></g><path d="m61.439.924c33.909 0 61.438 27.529 61.438 61.438s-27.529 61.439-61.438 61.439-61.439-27.53-61.439-61.439 27.53-61.438 61.439-61.438zm2.546 45.642 15.003 19.559 24.763-32.283-24.763 67.501-17.549-47.837-17.55 47.837-24.763-67.501 24.763 32.283 15.004-19.559-4.668-12.724 7.214 9.405 7.213-9.405z"/></g></svg>