<svg clip-rule="evenodd" fill-rule="evenodd" stroke-linejoin="round" stroke-miterlimit="2" viewBox="0 0 600 101" xmlns="http://www.w3.org/2000/svg"><g fill="#fff"><path d="m573.103.187-48.222 39.017-47.983-39.017h-27.14l61.794 49.924-61.794 49.921h27.14l47.983-39.26 48.222 39.26h26.897l-61.551-49.921 61.551-49.924h-26.897z"/><path d="m441.762 50.111c0-22.295-5.814-38.77-16.96-49.924h-98.627c-11.635 11.154-17.449 27.629-17.449 49.924 0 22.292 5.814 38.771 17.449 49.925h98.627c11.146-11.158 16.96-27.875 16.96-49.925zm-16.479 0c0 7.512-1.689 15.262-4.847 23.267l-4.605 10.418h-80.94l-4.605-10.418c-3.391-8.001-4.847-15.751-4.847-23.267 0-11.873 3.154-23.023 9.452-33.441h80.94c6.303 10.414 9.452 21.568 9.452 33.441z"/><path d="m283.528 54.231v-8.239l7.269-3.881c-1.698-18.658-7.269-32.71-16.721-41.924h-98.632c-9.452 8.971-15.265 23.024-16.721 41.681h-15.989v16.483h15.989c1.456 18.653 7.269 32.471 16.721 41.685h98.632c9.452-9.456 15.019-23.266 16.721-41.685zm-9.452 4.12c-1.365 8.969-4.407 17.602-8.967 25.445h-80.698c-4.605-7.512-7.511-15.993-8.967-25.445zm-8.967-41.685c4.557 7.756 7.6 16.307 8.967 25.198h-98.632c1.456-9.448 4.362-17.687 8.967-25.198z"/><path d="m88.452 50.111 61.547-49.924h-27.139l-47.98 39.017-48.222-39.017h-26.658l61.309 49.924-61.309 49.921h26.658l48.222-39.26 47.98 39.26h27.139z" fill-rule="nonzero"/></g></svg>