<?xml version="1.0" encoding="UTF-8" standalone="no"?><!DOCTYPE svg PUBLIC "-//W3C//DTD SVG 1.1//EN" "http://www.w3.org/Graphics/SVG/1.1/DTD/svg11.dtd"><svg width="100%" height="100%" viewBox="0 0 600 127" version="1.1" xmlns="http://www.w3.org/2000/svg" xmlns:xlink="http://www.w3.org/1999/xlink" xml:space="preserve" xmlns:serif="http://www.serif.com/" style="fill-rule:evenodd;clip-rule:evenodd;stroke-linejoin:round;stroke-miterlimit:2;"><g id="xbox_360"><path id="path6965" d="M414.926,102.194l-28.614,-38.553l26.144,-35l-9.819,0l-21.264,28.554l-21.265,-28.554l-9.759,0l26.084,35.06l-28.554,38.553l9.819,0l23.675,-31.927l23.734,31.927l9.819,0" style="fill:#fff;fill-rule:nonzero;"/><path id="path6967" d="M219.99,102.194l-28.554,-38.553l26.084,-35l-9.759,0l-21.265,28.554l-21.264,-28.554l-9.819,0l26.144,35.06l-28.614,38.553l9.819,0l23.734,-31.927l23.675,31.927l9.819,0" style="fill:#fff;fill-rule:nonzero;"/><path id="path6969" d="M254.266,94.483l-21.867,0l0,-26.746l21.867,-0c8.313,-0 18.193,2.229 18.193,12.771c-0,12.168 -11.446,13.975 -18.193,13.975Zm-21.867,-58.191l21.867,-0c5.904,-0 15.843,1.445 15.843,11.686c0,7.711 -5.783,12.349 -15.843,12.349l-21.867,0l0,-24.035Zm41.927,30.12c-1.566,-1.326 -3.193,-2.35 -4.879,-3.073c5.361,-2.891 8.915,-8.373 8.915,-14.698c0,-4.699 -1.747,-20 -24.156,-20l-30.18,0l-0,31.747l-10.06,-0c-1.325,1.686 -4.277,5.722 -5.422,7.349l15.482,-0l-0,34.457l30.18,0c16.385,0 26.566,-8.253 26.566,-21.506c0.06,-5.783 -2.169,-10.722 -6.446,-14.276" style="fill:#fff;fill-rule:nonzero;"/><path id="path6971" d="M320.048,96.05c-15.963,-0 -27.108,-12.591 -27.108,-30.663c0,-18.072 11.145,-30.662 27.108,-30.662c15.904,0 26.988,12.59 26.988,30.662c-0,18.012 -11.084,30.663 -26.988,30.663Zm0,-69.096c-20.963,0 -35.541,15.783 -35.541,38.433c-0,22.651 14.578,38.434 35.541,38.434c20.843,-0 35.421,-15.783 35.421,-38.434c0,-22.65 -14.578,-38.433 -35.421,-38.433" style="fill:#fff;fill-rule:nonzero;"/><path id="path4148" d="M56.333,125.817c-9.632,-0.919 -19.389,-4.385 -27.783,-9.869c-7.029,-4.593 -8.616,-6.472 -8.616,-10.244c0,-7.559 8.31,-20.809 22.508,-35.898c8.073,-8.574 19.305,-18.623 20.516,-18.359c2.367,0.529 21.255,18.986 28.326,27.657c11.191,13.752 16.341,24.999 13.724,30.01c-1.991,3.814 -14.309,11.26 -23.356,14.114c-7.461,2.366 -17.26,3.368 -25.319,2.589Zm-45.877,-27.964c-5.833,-8.964 -8.783,-17.802 -10.217,-30.566c-0.473,-4.218 -0.306,-6.626 1.072,-15.283c1.712,-10.788 7.836,-23.259 15.213,-30.942c3.146,-3.271 3.424,-3.355 7.252,-2.06c4.649,1.572 9.604,4.997 17.302,11.97l4.495,4.064l-2.449,3.021c-11.4,14.002 -23.412,33.851 -27.936,46.128c-2.464,6.667 -3.452,13.376 -2.394,16.16c0.71,1.879 0.056,1.183 -2.338,-2.492Zm102.444,1.517c0.571,-2.811 -0.153,-7.989 -1.865,-13.209c-3.689,-11.302 -16.063,-32.348 -27.421,-46.643l-3.577,-4.496l3.87,-3.563c5.052,-4.649 8.56,-7.433 12.346,-9.785c2.992,-1.865 7.252,-3.508 9.089,-3.508c1.127,0 5.108,4.134 8.324,8.658c4.983,6.988 8.643,15.478 10.495,24.303c1.197,5.707 1.294,17.914 0.194,23.593c-0.904,4.663 -2.825,10.717 -4.69,14.837c-1.406,3.077 -4.886,9.048 -6.417,10.996c-0.78,0.975 -0.78,0.975 -0.348,-1.183Zm-55.537,-83.347c-5.248,-2.673 -13.335,-5.526 -17.803,-6.305c-1.573,-0.265 -4.231,-0.418 -5.943,-0.334c-3.689,0.18 -3.522,-0 2.394,-2.798c4.913,-2.325 9.02,-3.689 14.587,-4.858c6.264,-1.322 18.025,-1.336 24.192,-0.028c6.653,1.406 14.489,4.329 18.902,7.043l1.308,0.808l-3.006,-0.154c-5.986,-0.306 -14.699,2.116 -24.067,6.682c-2.825,1.378 -5.275,2.477 -5.456,2.435c-0.167,-0.027 -2.477,-1.155 -5.108,-2.491Z" style="fill:#fff;fill-rule:nonzero;"/><path id="path3009" d="M572.519,27.086c-17.472,0 -27.503,14.065 -27.503,38.584c0,24.503 10.031,38.584 27.503,38.584c9.963,0 17.365,-4.353 22.067,-12.88c4.466,-8.145 5.414,-18.478 5.414,-25.704c-0,-11.596 -2.686,-38.584 -27.481,-38.584m-0,70.566c-4.987,0 -9.126,-1.628 -12.318,-4.793c-7.01,-7.044 -8.064,-20.047 -8.064,-27.189c-0,-9.619 1.994,-31.974 20.382,-31.974c18.383,-0 20.357,22.355 20.357,31.974c-0.001,9.618 -1.974,31.982 -20.357,31.982m-59.045,-45.083c-7.979,-0 -15.27,3.892 -19.755,10.307c0.94,-13.974 5.429,-29.18 20.592,-29.18c8.481,-0 14.904,5.53 16.346,14.102l0.221,1.344l7.042,0l-0.185,-1.786c-1.393,-12.497 -10.369,-20.27 -23.424,-20.27c-23.078,0 -27.912,22.897 -27.912,42.093c0,22.947 9.361,35.075 27.075,35.075c14.544,0 25.547,-11.019 25.547,-25.625c0,-15.114 -10.757,-26.06 -25.547,-26.06m0,45.083c-10.43,0 -18.615,-8.364 -18.615,-19.023c-0,-11.096 8.022,-19.447 18.615,-19.447c4.763,-0 9.269,1.859 12.628,5.233c3.686,3.663 5.767,8.842 5.767,14.214c-0,10.659 -8.079,19.023 -18.395,19.023m-32.614,-16.159c-0,13.748 -10.23,22.626 -26.046,22.626c-8.577,-0 -15.548,-2.554 -20.157,-7.386c-4.41,-4.625 -6.554,-11.242 -6.202,-19.149l0.054,-1.507l7.134,-0l-0.049,1.649c-0.25,5.956 1.374,10.95 4.709,14.421c3.376,3.501 8.41,5.38 14.511,5.38c9.415,0 18.901,-5.517 18.901,-16.034c-0,-4.344 -1.329,-7.801 -3.994,-10.286c-3.212,-3.017 -8.392,-4.384 -14.935,-4.454l-4.962,0c-0.043,-1.724 -0.043,-5.172 -0,-6.958c1.809,-0.009 3.683,-0.038 4.933,-0.038c3.48,0 10.248,-0.874 13.91,-4.395c2.237,-2.166 3.416,-5.128 3.416,-8.783c0,-8.55 -8.691,-13.019 -17.269,-13.019c-8.495,0 -14.907,5.537 -16.353,14.117l-0.217,1.332l-7.085,-0l0.206,-1.778c1.407,-12.492 10.405,-20.277 23.449,-20.277c7.972,0 15.014,2.471 19.314,6.763c3.352,3.371 5.076,7.69 5.076,12.862c-0,7.328 -3.958,13.529 -10.181,16.391c7.321,2.937 11.838,9.831 11.838,18.523" style="fill:#fff;fill-rule:nonzero;"/></g></svg>