<svg clip-rule="evenodd" fill-rule="evenodd" stroke-linejoin="round" stroke-miterlimit="2" viewBox="0 0 600 103" xmlns="http://www.w3.org/2000/svg"><g fill="#fff" fill-rule="nonzero"><path d="m553.375 56.504 8.341-11.519c-2.78-.596-5.362-1.788-7.745-3.377-2.384-1.787-3.575-4.568-3.377-7.547-.198-2.979 1.39-5.759 3.774-7.348 3.177-1.986 6.951-2.781 10.725-2.582 14.696 0 18.47 7.745 21.052 10.923l7.944-10.923c-1.39-2.185-2.979-4.171-4.965-5.76-5.362-4.17-13.505-6.355-24.23-6.355-9.335 0-16.683 1.986-22.045 6.157-5.164 3.972-8.143 10.129-7.945 16.683 0 10.923 6.157 17.874 18.471 21.648zm40.515-.596c-3.773-3.376-9.334-5.76-17.08-7.746l-8.54 11.718c4.37.794 8.54 2.582 12.314 5.164 2.383 1.589 3.773 4.369 3.575 7.348.198 3.377-1.391 6.753-4.171 8.739-3.575 2.185-7.944 3.376-12.115 2.979-12.314 0-18.073-3.972-23.833-14.697l-8.54 11.519c1.589 3.178 3.774 5.76 6.356 7.945 5.958 4.965 14.498 7.348 25.421 7.348 10.328 0 18.272-2.185 24.032-6.554 5.759-4.369 8.937-11.122 8.54-18.272.794-5.759-1.589-11.519-5.959-15.491zm-72.69 38.53h-3.574v-80.635h3.574zm-103.473-81.032c1.191 0 2.184.397 2.979 1.39 1.39 2.582 1.39 5.561-.199 7.945-.794.993-2.185 1.588-3.376 1.39v-2.383c.794 0 1.589-.199 1.986-.795.397-.794.596-1.589.596-2.383 0-.596-.199-1.39-.398-1.986-.397-.397-.794-.795-1.39-.596-.397 0-.993.199-1.191.596-.398.596-.596 1.39-.795 2.184l-.199 1.192c-.198 1.192-.595 2.185-1.39 3.178-.596.794-1.589.993-2.582.993s-1.986-.397-2.78-1.192c-.596-1.39-.993-2.582-.993-3.972s.198-2.78 1.191-3.972c.795-.993 1.987-1.39 3.178-1.39v2.383c-.794.199-1.39.397-1.787.993-.398.596-.596 1.39-.398 1.986 0 .596.199 1.192.398 1.788.198.397.794.595 1.191.595.398 0 .993-.198 1.192-.595.397-.596.596-1.192.794-1.987l.199-1.191c0-1.192.596-2.185 1.192-3.178.794-.794 1.589-1.192 2.582-.993zm-2.582 71.3c-.795.993-1.192 2.184-1.391 3.376l-.198 1.192c-.199.794-.397 1.39-.795 1.986-.198.397-.794.596-1.191.596s-.993-.199-1.192-.596c-.397-.596-.397-1.192-.397-1.788 0-.794.198-1.588.596-2.184.397-.398.993-.795 1.589-.795v-2.383c-1.192 0-2.384.596-3.178 1.39-.795 1.192-1.192 2.582-1.192 3.972 0 1.192.199 2.582.993 3.575.596.795 1.589 1.391 2.781 1.192.993 0 1.986-.397 2.582-.993.794-.993 1.191-1.986 1.39-3.178l.198-1.191c.199-.795.398-1.391.795-2.185.199-.397.794-.596 1.192-.596.595 0 .993.199 1.39.596.397.596.596 1.192.397 1.986 0 .794-.199 1.589-.596 2.383-.397.596-1.191.795-1.986.795v2.383c1.39 0 2.582-.397 3.376-1.39 1.589-2.384 1.589-5.561.199-7.945-.794-.993-1.787-1.39-2.979-1.39-.794 0-1.788.397-2.383 1.192zm6.355-31.976v2.582c-.397.199-.993.397-1.589.397h-1.39c-.596 0-1.192.199-1.589.596s-.596.993-.397 1.589v3.178h5.164v2.582h-13.307v-6.753.199c0-.795.199-1.788.794-2.582l-.198.198c0-.198.198-.397.397-.397.596-.794 1.589-1.192 2.781-1.192 1.39 0 2.78.795 3.177 2.185.199-.596.596-.993.993-1.39.596-.397 1.192-.397 1.788-.397l1.986-.199c.397-.199.794-.199 1.39-.596zm-9.136 2.979c-.596 0-.993.199-1.39.596s-.596.993-.397 1.589v3.178h3.972v-3.377c0-.595-.199-1.191-.596-1.589-.596-.397-.993-.595-1.589-.397zm-3.972-8.143h13.108v-2.581h-13.108zm2.185-18.271h-2.185v9.731h13.108v-9.731h-2.185v7.149h-3.376v-6.554h-2.185v6.554h-3.177zm0 39.721h-2.185v9.732h13.108v-9.732h-2.185v7.15h-3.376v-6.554h-2.185v6.554h-3.177zm16.484 25.422h17.477l13.108-18.074-8.738-11.916zm76.265-80.635h-17.477l-10.725 14.896 8.738 11.916zm-56.404 0h-17.478l58.986 80.635h17.478z"/><path d="m45.346.487c-3.838.475-8.777 1.615-11.891 2.819-3.46 1.298-7.707 3.389-7.707 3.8 0 .254.755.475 1.982.602 4.404.507 12.583 3.959 19.975 8.362 1.793 1.077 3.555 1.964 3.869 1.964.346 0 2.077-.887 3.838-1.964 4.215-2.565 11.168-5.955 14.376-7.032 1.447-.475 3.712-1.013 5.065-1.235 1.636-.222 2.485-.507 2.485-.76 0-.919-7.33-4.054-12.426-5.321-6.7-1.679-12.866-2.059-19.566-1.235z"/><path d="m14.927 15.247c-8.4 8.615-12.961 17.959-14.502 29.932-.724 5.574-.535 10.325.66 16.407 1.164 5.859 3.838 12.448 6.984 17.104 2.076 3.104 2.422 3.072 2.674-.254.975-12.479 10.601-29.615 26.613-47.226 1.384-1.552 2.548-3.009 2.548-3.199 0-.443-4.782-5.131-8.305-8.172-4.719-4.054-10.853-7.823-12.646-7.823-.692 0-1.573.728-4.026 3.231z"/><path d="m81.836 12.934c-3.995 1.933-9.374 5.987-14.564 11.023-2.077 1.995-3.775 3.864-3.775 4.118 0 .253 1.541 2.185 3.429 4.307 13.589 15.235 22.208 29.774 24.882 41.937.346 1.552.63 3.674.63 4.751 0 1.773.062 1.995.597 1.995.724 0 3.586-4.434 5.379-8.393 3.649-7.887 4.939-14.444 4.625-23.503-.315-10.484-3.146-19.067-8.966-27.303-2.674-3.8-8.556-9.85-9.563-9.85-.409 0-1.604.412-2.674.918z"/><path d="m48.083 40.903c-7.456 6.524-17.302 16.787-22.901 23.913-5.946 7.539-12.332 17.738-12.332 19.638 0 .602 3.303 3.991 6.292 6.493 10.507 8.742 25.763 12.797 40.108 10.675 11.073-1.648 21.139-6.715 29.507-14.824 1.29-1.235 1.478-1.584 1.478-2.724-.031-5.828-11.387-20.271-30.167-38.357-5.096-4.91-7.927-7.412-8.368-7.412-.377 0-1.919 1.109-3.617 2.598z"/><path d="m329.464 15.042 22.162 30.104 22.141-30.104h10.184l-27.171 36.906 29.785 40.609h-10.184l-24.755-33.611-24.742 33.611h-10.198l29.771-40.609-27.184-36.906z"/><path d="m240.088 54.881c-1.616-1.378-3.372-2.443-5.077-3.232 5.625-3.053 9.315-8.824 9.315-15.518 0-4.961-1.828-21.085-25.196-21.085h-31.475v33.415h-10.487c-1.365 1.772-4.449 6.028-5.628 7.778h16.115v36.311l31.475.004c17.049 0 27.645-8.662 27.645-22.627 0-6.103-2.306-11.291-6.687-15.045m-43.731-31.751h22.773c6.168 0 16.487 1.535 16.487 12.319 0 8.153-6.015 13.011-16.487 13.011h-22.773zm22.773 61.338h-22.773v-28.219h22.773c8.636 0 18.966 2.385 18.966 13.509-.001 12.79-11.878 14.71-18.966 14.71"/><path d="m287.715 13.252c-21.769 0-36.987 16.655-36.987 40.498 0 23.879 15.218 40.523 36.987 40.523 21.754 0 36.924-16.644 36.924-40.523 0-23.843-15.17-40.498-36.924-40.498m0 72.823c-16.586 0-28.205-13.294-28.205-32.325 0-19.017 11.619-32.307 28.205-32.307 16.56 0 28.12 13.29 28.12 32.307 0 19.031-11.56 32.325-28.12 32.325"/><path d="m116.161 15.044 27.171 36.903-29.792 40.603h10.206l24.733-33.603 24.747 33.603h10.195l-29.796-40.603 27.19-36.903h-10.188l-22.163 30.112-22.145-30.112z"/></g></svg>