<svg clip-rule="evenodd" fill-rule="evenodd" stroke-linejoin="round" stroke-miterlimit="2" viewBox="0 0 600 158" xmlns="http://www.w3.org/2000/svg"><g fill="#fff"><path d="m581.675 45.292-32.853 26.582-32.691-26.582h-18.49l42.1 34.014-42.1 34.01h18.49l32.691-26.747 32.853 26.747h18.325l-41.935-34.01 41.935-34.014z"/><path d="m492.193 79.306c0-15.19-3.961-26.414-11.555-34.014h-67.194c-7.927 7.6-11.888 18.824-11.888 34.014 0 15.187 3.961 26.414 11.888 34.013h67.194c7.594-7.602 11.555-18.991 11.555-34.013zm-11.227 0c0 5.117-1.151 10.397-3.302 15.851l-3.138 7.098h-55.144l-3.137-7.098c-2.311-5.451-3.303-10.731-3.303-15.851 0-8.09 2.149-15.686 6.44-22.784h55.144c4.294 7.095 6.44 14.694 6.44 22.784z"/><path d="m384.388 82.112v-5.613l4.952-2.644c-1.156-12.711-4.952-22.285-11.391-28.563h-67.198c-6.44 6.112-10.4 15.686-11.392 28.398h-10.893v11.229h10.893c.992 12.708 4.952 22.123 11.392 28.4h67.198c6.439-6.442 10.232-15.851 11.391-28.4zm-6.439 2.807c-.93 6.111-3.003 11.992-6.11 17.336h-54.979c-3.137-5.118-5.117-10.896-6.109-17.336zm-6.11-28.4c3.105 5.284 5.178 11.11 6.11 17.168h-67.198c.992-6.437 2.972-12.05 6.109-17.168z"/><path d="m251.483 79.306 41.932-34.014h-18.49l-32.688 26.582-32.854-26.582h-18.162l41.77 34.014-41.77 34.01h18.162l32.854-26.747 32.688 26.747h18.49z" fill-rule="nonzero"/><path d="m78.67.77c43.42 0 78.671 35.191 78.671 78.536s-35.251 78.535-78.671 78.535c-43.419 0-78.67-35.19-78.67-78.535s35.251-78.536 78.67-78.536zm-24.439 86.403c-4.687 6.44-9.338 12.427-13.637 17.499-4.913 5.813-9.373 10.572-13.422 14.298l-.024.031c-.246.226-.491.448-.734.667 3.787-2.159 7.312-4.252 10.583-6.301 15.305-9.523 29.1-20.418 41.522-32.682 12.627 11.169 26.628 21.719 41.933 31.791 3.271 2.111 6.763 4.303 10.474 6.572l-.019-.019.019.012c-8.352-8.175-15.817-16.559-22.525-25.194-2.387-3.08-5.467-7.259-8.887-12.032-2.521-3.533-5.276-7.468-8.269-11.804 5.285-4.955 15.012-15.134 29.182-30.471l-.024.018.024-.025c-2.961 2.187-6.675 4.427-11.159 6.697-7.069 3.7-17.294 8.016-30.746 13.153-7.274-2.808-12.147-4.726-14.413-5.618-5.696-2.26-10.5-4.384-14.549-6.44-5.207-2.565-9.651-5.212-13.332-7.924l-.025-.011c-.202-.149-.401-.298-.598-.447 2.183 2.636 4.439 5.204 6.773 7.704 2.952 3.29 6.726 7.058 11.188 11.511l12.354 11.922c-3.947 6.066-7.837 11.762-11.689 17.093z"/></g></svg>