<?xml version="1.0" encoding="UTF-8" standalone="no"?><!DOCTYPE svg PUBLIC "-//W3C//DTD SVG 1.1//EN" "http://www.w3.org/Graphics/SVG/1.1/DTD/svg11.dtd"><svg width="100%" height="100%" viewBox="0 0 600 101" version="1.1" xmlns="http://www.w3.org/2000/svg" xmlns:xlink="http://www.w3.org/1999/xlink" xml:space="preserve" xmlns:serif="http://www.serif.com/" style="fill-rule:evenodd;clip-rule:evenodd;stroke-linejoin:round;stroke-miterlimit:2;"><g id="xbox_original_alt"><path d="M573.103,0.648l-48.222,39.017l-47.983,-39.017l-27.14,0l61.794,49.924l-61.794,49.92l27.14,0l47.983,-39.259l48.222,39.259l26.897,0l-61.551,-49.92l61.551,-49.924l-26.897,0Z" style="fill:#fff;"/><path d="M441.762,50.572c-0,-22.296 -5.814,-38.77 -16.96,-49.924l-98.627,0c-11.635,11.154 -17.449,27.628 -17.449,49.924c0,22.292 5.814,38.77 17.449,49.924l98.627,0c11.146,-11.158 16.96,-27.875 16.96,-49.924Zm-16.479,0c0,7.512 -1.689,15.262 -4.847,23.266l-4.605,10.419l-80.94,-0l-4.605,-10.419c-3.391,-8 -4.847,-15.75 -4.847,-23.266c0,-11.873 3.154,-23.023 9.452,-33.442l80.94,0c6.303,10.415 9.452,21.569 9.452,33.442Z" style="fill:#fff;"/><path d="M283.528,54.692l-0,-8.239l7.269,-3.881c-1.698,-18.658 -7.269,-32.711 -16.721,-41.924l-98.632,0c-9.452,8.971 -15.265,23.024 -16.721,41.681l-15.989,-0l0,16.482l15.989,0c1.456,18.654 7.269,32.472 16.721,41.685l98.632,0c9.452,-9.456 15.019,-23.266 16.721,-41.685l-7.269,-4.119Zm-9.452,4.119c-1.365,8.97 -4.407,17.602 -8.967,25.446l-80.698,-0c-4.605,-7.512 -7.511,-15.994 -8.967,-25.446l98.632,0Zm-8.967,-41.685c4.557,7.756 7.6,16.308 8.967,25.199l-98.632,-0c1.456,-9.448 4.362,-17.687 8.967,-25.199l80.698,0Z" style="fill:#fff;"/><path d="M88.452,50.572l61.547,-49.924l-27.139,0l-47.98,39.017l-48.222,-39.017l-26.658,0l61.309,49.924l-61.309,49.92l26.658,0l48.222,-39.259l47.98,39.259l27.139,0l-61.547,-49.92Z" style="fill:#fff;fill-rule:nonzero;"/></g></svg>