<?xml version="1.0" encoding="UTF-8" standalone="no"?><!DOCTYPE svg PUBLIC "-//W3C//DTD SVG 1.1//EN" "http://www.w3.org/Graphics/SVG/1.1/DTD/svg11.dtd"><svg width="100%" height="100%" viewBox="0 0 600 498" version="1.1" xmlns="http://www.w3.org/2000/svg" xmlns:xlink="http://www.w3.org/1999/xlink" xml:space="preserve" xmlns:serif="http://www.serif.com/" style="fill-rule:evenodd;clip-rule:evenodd;stroke-linejoin:round;stroke-miterlimit:2;"><g id="xbox_original_tall"><g><path d="M573.103,397.757l-48.222,39.017l-47.983,-39.017l-27.14,0l61.794,49.925l-61.794,49.92l27.14,-0l47.983,-39.26l48.222,39.26l26.897,-0l-61.551,-49.92l61.551,-49.925l-26.897,0Z" style="fill:#fff;"/><path d="M441.762,447.682c-0,-22.296 -5.814,-38.771 -16.96,-49.925l-98.627,0c-11.635,11.154 -17.449,27.629 -17.449,49.925c0,22.291 5.814,38.77 17.449,49.924l98.627,-0c11.146,-11.158 16.96,-27.875 16.96,-49.924Zm-16.479,-0c0,7.511 -1.689,15.261 -4.847,23.266l-4.605,10.418l-80.94,0l-4.605,-10.418c-3.391,-8.001 -4.847,-15.751 -4.847,-23.266c0,-11.874 3.154,-23.024 9.452,-33.442l80.94,-0c6.303,10.414 9.452,21.568 9.452,33.442Z" style="fill:#fff;"/><path d="M283.528,451.801l-0,-8.239l7.269,-3.881c-1.698,-18.657 -7.269,-32.71 -16.721,-41.924l-98.632,0c-9.452,8.971 -15.265,23.024 -16.721,41.681l-15.989,0l0,16.483l15.989,-0c1.456,18.653 7.269,32.471 16.721,41.685l98.632,-0c9.452,-9.456 15.019,-23.266 16.721,-41.685l-7.269,-4.12Zm-9.452,4.12c-1.365,8.969 -4.407,17.602 -8.967,25.445l-80.698,0c-4.605,-7.511 -7.511,-15.993 -8.967,-25.445l98.632,-0Zm-8.967,-41.685c4.557,7.756 7.6,16.307 8.967,25.198l-98.632,0c1.456,-9.448 4.362,-17.687 8.967,-25.198l80.698,-0Z" style="fill:#fff;"/><path d="M88.452,447.682l61.547,-49.925l-27.139,0l-47.98,39.017l-48.222,-39.017l-26.658,0l61.309,49.925l-61.309,49.92l26.658,-0l48.222,-39.26l47.98,39.26l27.139,-0l-61.547,-49.92Z" style="fill:#fff;fill-rule:nonzero;"/></g><path d="M189.093,219.242c-21.269,29.274 -42.376,56.491 -61.884,79.549c-22.294,26.423 -42.535,48.058 -60.908,64.994l-0.11,0.14c-1.117,1.029 -2.227,2.04 -3.329,3.034c17.183,-9.815 33.18,-19.331 48.022,-28.645c69.455,-43.29 132.057,-92.814 188.429,-148.563c57.303,50.769 120.839,98.728 190.294,144.512c14.844,9.597 30.688,19.564 47.531,29.876l-0.085,-0.084l0.085,0.053c-37.902,-37.161 -71.778,-75.272 -102.218,-114.526c-10.835,-14.003 -24.812,-32.999 -40.33,-54.695c-11.44,-16.06 -23.942,-33.947 -37.526,-53.658c23.983,-22.527 68.127,-68.797 132.43,-138.515l-0.11,0.081l0.107,-0.115c-13.436,9.944 -30.291,20.124 -50.637,30.444c-32.08,16.818 -78.482,36.437 -139.528,59.792c-33.01,-12.767 -55.124,-21.487 -65.404,-25.538c-25.85,-10.276 -47.652,-19.931 -66.027,-29.277c-23.629,-11.661 -43.796,-23.691 -60.499,-36.019l-0.114,-0.053c-0.916,-0.676 -1.819,-1.352 -2.712,-2.029c9.903,11.979 20.144,23.657 30.736,35.021c13.394,14.955 30.523,32.084 50.769,52.326l56.066,54.193c-17.913,27.578 -35.565,53.467 -53.048,77.702Zm-46.737,-182.693c12.71,13.861 28.417,29.564 46.661,47.805l58.491,56.538c-0.168,0.126 0,0 0,0l-0.062,13.13c-47.409,72.78 -94.402,135.465 -132.388,176.715c66.639,-42.161 129.803,-93.127 184.222,-146.944c-0.022,0.049 0.053,0.009 -0,-0c54.948,48.684 118.462,97.592 184.63,141.661c-45.015,-53.782 -91.918,-115.157 -131.532,-172.139l-0.409,-12.892l0.003,0.076c19.404,-18.263 54.373,-54.496 99.783,-103.235c-32.572,18.099 -83.326,41.309 -152.312,69.628l-0,0.045l-0.059,-0.021l-0.05,0.021l-0,-0.038c-64.916,-22.495 -117.241,-45.83 -156.978,-70.35Z" style="fill:#fff;"/></g></svg>