<?xml version="1.0" encoding="UTF-8" standalone="no"?><!DOCTYPE svg PUBLIC "-//W3C//DTD SVG 1.1//EN" "http://www.w3.org/Graphics/SVG/1.1/DTD/svg11.dtd"><svg width="100%" height="100%" viewBox="0 0 600 606" version="1.1" xmlns="http://www.w3.org/2000/svg" xmlns:xlink="http://www.w3.org/1999/xlink" xml:space="preserve" xmlns:serif="http://www.serif.com/" style="fill-rule:evenodd;clip-rule:evenodd;stroke-linejoin:round;stroke-miterlimit:2;"><g id="xbox_series_tall"><path id="path2" d="M299.997,0.569c-27.242,0 -49.771,7.4 -70.286,19.844c-0.337,0 -0.342,0.334 -0.342,0.67c0,0.337 0.34,0.342 0.677,0.342c26.233,-5.717 65.916,16.813 69.616,19.168l0.676,-0c3.7,-2.355 43.383,-24.885 69.616,-19.168c0.337,0 0.67,-0.005 0.67,-0.342c0,-0.336 0.002,-0.67 -0.335,-0.67c-20.515,-12.444 -43.05,-19.844 -70.292,-19.844Zm90.202,37.909c-6.668,0.394 -22.181,5.561 -53.207,36.082l-0.335,0.335c0,-0 -0.001,0.342 0.335,0.342c27.242,32.286 79.712,109.304 69.623,141.255l-0,0.67c0.336,-0 0.67,0.001 0.67,-0.335c17.152,-22.534 27.582,-51.124 27.582,-81.729c0,-37.332 -15.136,-71.3 -40.023,-95.852c-0.337,-0.336 -0.341,-0.335 -0.677,-0.335c-0.505,-0.168 -1.745,-0.565 -3.968,-0.433l0,-0Zm-180.543,0.144c-2.27,-0.089 -3.576,0.372 -4.164,0.624c-0.337,0 -0.334,0.335 -0.671,0.335c-24.551,24.552 -39.688,58.52 -39.688,95.852c-0,30.605 10.43,59.195 27.582,81.729c0,0.336 0.334,0.335 0.67,0.335c0.337,-0 0.337,-0.334 0,-0.67c-10.426,-31.951 42.374,-108.969 69.616,-141.255l0.342,-0.335c-0,-0.337 -0.006,-0.342 -0.342,-0.342c-31.025,-30.773 -46.534,-36.005 -53.345,-36.273Zm90.341,70.247c-0,-0 -0.335,-0.002 -0.335,0.335c-40.359,30.605 -109.637,106.613 -88.449,128.137c23.542,20.852 54.815,33.297 88.784,33.297c33.968,0 64.911,-12.445 88.79,-33.297c20.852,-21.524 -48.09,-97.532 -88.449,-128.137c0,-0.337 -0.341,-0.335 -0.341,-0.335Zm81.394,200.111c-11.772,0 -22.869,2.016 -32.286,5.715c-9.753,4.036 -18.161,9.751 -25.224,17.486c-7.399,7.736 -12.782,17.158 -16.481,27.248c-3.7,10.089 -5.38,21.858 -5.38,34.302c-0,12.444 1.68,24.213 5.38,34.302c3.699,10.09 9.082,19.171 16.481,26.906c7.399,7.735 15.807,13.457 25.224,17.493c9.417,3.699 20.514,5.715 32.286,5.715c12.107,-0 22.868,-1.679 32.285,-5.715c9.417,-3.7 17.825,-9.758 25.224,-17.493c7.063,-7.735 12.447,-16.816 16.146,-26.906c3.7,-10.089 5.38,-21.858 5.38,-34.302c0,-12.78 -2.016,-24.213 -5.38,-34.302c-3.363,-10.09 -9.083,-19.512 -16.146,-27.248c-7.062,-7.735 -15.807,-13.786 -25.224,-17.486c-9.753,-3.699 -20.514,-5.715 -32.285,-5.715Zm-376.346,3.699l56.163,77.689l-61.208,84.415l27.576,0l47.761,-65.583l47.421,65.583l27.575,0l-61.208,-84.415l56.505,-77.689l-27.582,-0l-42.711,58.856l-42.716,-58.856l-27.576,-0Zm158.406,-0l0,68.946l-21.184,-0l-15.135,20.849l36.319,0l0,72.309l75.673,0c17.488,0 30.941,-4.369 40.358,-12.441c9.417,-8.072 14.13,-19.507 14.13,-33.632c-0,-8.745 -2.358,-16.818 -7.403,-23.208c-4.709,-6.39 -11.434,-11.771 -20.515,-15.134c14.126,-7.736 21.191,-19.843 21.191,-35.314c0,-12.444 -4.373,-22.869 -13.117,-30.604c-8.745,-7.735 -21.193,-11.771 -37.672,-11.771l-72.645,-0Zm290.919,-0l56.505,77.689l-61.215,84.415l27.582,0l47.421,-65.583l47.755,65.583l27.582,0l-61.55,-84.415l56.505,-77.689l-27.582,-0l-42.71,58.856l-42.711,-58.856l-27.582,-0Zm-72.979,18.497c16.143,0 29.258,5.718 39.012,16.816c9.753,11.099 14.464,26.569 14.464,45.739c0,19.17 -4.711,34.305 -14.464,45.403c-9.754,11.099 -22.869,16.817 -39.012,16.817c-16.48,-0 -29.259,-5.718 -39.012,-16.817c-9.754,-11.098 -14.8,-26.233 -14.8,-45.403c0,-19.17 5.046,-34.304 14.8,-45.739c9.753,-11.098 22.868,-16.816 39.012,-16.816Zm-193.386,2.687l46.409,0c9.081,0 16.147,2.021 20.856,6.056c5.045,4.036 7.396,9.754 7.396,16.817c0,8.408 -2.353,14.796 -7.061,18.832c-4.709,4.372 -11.774,6.392 -21.191,6.392l-46.409,-0l0,-48.097Zm0,68.611l50.114,0c10.089,0 17.821,2.019 22.866,6.391c5.044,4.036 7.738,10.76 7.738,19.168c-0,8.072 -2.692,14.467 -8.073,18.839c-5.382,4.036 -13.12,6.385 -22.873,6.385l-49.772,0l0,-50.783Zm-119.059,135.54c-7.063,0 -12.78,1.683 -16.816,4.71c-4.036,3.027 -6.056,7.395 -6.056,12.777c-0,5.381 1.681,9.421 5.044,12.447c3.364,3.027 8.408,5.382 15.135,6.727l5.386,1.34c5.381,1.345 9.412,2.694 11.43,4.04c2.018,1.681 3.028,3.701 3.028,6.391c0,3.363 -1.344,6.049 -3.698,8.067c-2.691,1.681 -6.393,2.693 -11.101,2.693c-5.718,-0 -10.085,-1.344 -13.112,-3.698c-3.027,-2.355 -4.374,-6.058 -4.374,-10.767l-9.42,0c-0,7.399 2.358,13.122 7.403,17.158c4.708,4.036 11.436,5.715 19.844,5.715c7.736,-0 14.126,-1.682 18.498,-5.045c4.372,-3.363 6.726,-8.405 6.726,-14.123c0,-5.045 -1.681,-9.086 -5.044,-12.113c-3.364,-3.027 -8.747,-5.381 -16.147,-6.726l-5.714,-1.34c-5.382,-1.009 -9.084,-2.695 -11.102,-4.04c-2.018,-1.345 -3.028,-3.7 -3.028,-6.726c0,-3.027 1.009,-5.045 3.363,-6.727c2.355,-1.681 5.383,-2.351 9.755,-2.351c5.381,-0 9.417,1.01 11.771,3.028c2.355,2.018 3.697,5.042 4.034,9.078l10.089,-0c0,-6.39 -2.354,-11.435 -6.726,-15.135c-4.372,-3.699 -10.76,-5.38 -19.168,-5.38Zm348.428,0c-7.062,0 -12.78,1.683 -16.816,4.71c-4.036,3.027 -6.05,7.395 -6.05,12.777c0,5.381 1.682,9.421 5.045,12.447c3.364,3.027 8.408,5.382 15.135,6.727l5.38,1.34c5.381,1.345 9.418,2.694 11.436,4.04c2.018,1.681 3.022,3.701 3.022,6.391c-0,3.363 -1.344,6.049 -3.699,8.067c-2.69,1.681 -6.386,2.693 -11.094,2.693c-5.718,-0 -10.091,-1.344 -13.118,-3.698c-3.027,-2.355 -4.375,-6.058 -4.375,-10.767l-9.755,0c0,7.399 2.359,13.122 7.403,17.158c4.709,4.036 11.437,5.715 19.845,5.715c7.735,-0 14.125,-1.682 18.497,-5.045c4.373,-3.363 6.727,-8.405 6.727,-14.123c0.673,-5.045 -1.012,-9.086 -4.375,-12.113c-3.363,-3.027 -8.747,-5.381 -16.146,-6.726l-5.715,-1.34c-5.381,-1.009 -9.083,-2.695 -11.101,-4.04c-2.018,-1.345 -3.022,-3.7 -3.022,-6.726c0,-3.027 1.009,-5.045 3.363,-6.727c2.355,-1.681 5.376,-2.351 9.748,-2.351c5.382,-0 9.417,1.01 11.772,3.028c2.354,2.018 3.703,5.042 4.04,9.078l9.754,-0c0,-6.39 -2.354,-11.435 -6.726,-15.135c-4.372,-3.699 -10.767,-5.38 -19.175,-5.38Zm-293.946,1.682l-0,64.906l46.08,0l-0,-9.078l-36.326,0l0,-19.844l32.286,-0l-0,-8.408l-32.286,-0l0,-18.833l36.326,0l-0,-8.743l-46.08,0Zm74.332,0l0,64.906l9.748,0l0,-26.564l18.839,0c3.7,0 6.385,1.005 8.067,2.687c1.682,1.681 2.693,4.707 2.693,8.743l0.335,7.068c0,3.699 0.671,6.39 2.017,8.408l10.089,-0c-1.009,-2.354 -1.68,-5.045 -2.016,-8.408l-0.67,-10.09c-0,-3.699 -1.013,-6.395 -2.358,-8.749c-1.346,-2.018 -3.7,-3.696 -6.727,-4.369c3.363,-1.009 6.057,-3.03 7.738,-5.721c2.018,-2.691 3.028,-6.054 3.028,-10.09c0,-5.717 -2.02,-10.084 -6.056,-13.111c-4.036,-3.027 -9.418,-4.71 -16.481,-4.71l-28.246,0Zm80.041,0l-0,64.906l9.754,0l0,-64.906l-9.754,0Zm42.375,0l0,64.906l46.415,0l0,-9.078l-36.66,0l-0,-19.844l32.285,-0l0,-8.408l-32.285,-0l-0,-18.833l36.66,0l0,-8.743l-46.415,0Zm176.569,0l22.538,30.939l-24.554,33.967l11.101,0l18.833,-26.229l19.167,26.229l11.102,0l-24.555,-33.967l22.538,-30.939l-11.101,0l-17.151,23.543l-16.817,-23.543l-11.101,0Zm-288.56,8.408l17.486,0c4.036,0 7.402,1.005 9.419,2.687c2.018,1.681 3.364,4.375 3.364,7.738c-0,3.363 -1.011,6.391 -3.029,8.073c-2.017,2.018 -5.043,3.028 -8.743,3.028l-18.497,0l-0,-21.526Z" style="fill:#fff;fill-rule:nonzero;"/></g></svg>