<svg clip-rule="evenodd" fill-rule="evenodd" stroke-linejoin="round" stroke-miterlimit="2" viewBox="0 0 600 127" xmlns="http://www.w3.org/2000/svg"><g fill="#fff" fill-rule="nonzero"><path d="m414.926 102.454-28.614-38.553 26.144-35h-9.819l-21.264 28.554-21.265-28.554h-9.759l26.084 35.06-28.554 38.554h9.819l23.675-31.927 23.734 31.927h9.819"/><path d="m219.99 102.454-28.554-38.553 26.084-35h-9.759l-21.265 28.554-21.264-28.554h-9.819l26.144 35.06-28.614 38.554h9.819l23.734-31.927 23.675 31.927h9.819"/><path d="m254.266 94.744h-21.867v-26.747h21.867c8.313 0 18.193 2.229 18.193 12.771 0 12.169-11.446 13.976-18.193 13.976zm-21.867-58.192h21.867c5.904 0 15.843 1.446 15.843 11.686 0 7.711-5.783 12.35-15.843 12.35h-21.867zm41.927 30.12c-1.566-1.325-3.193-2.349-4.879-3.072 5.361-2.892 8.915-8.374 8.915-14.699 0-4.699-1.747-20-24.156-20h-30.18v31.747h-10.06c-1.325 1.687-4.277 5.723-5.422 7.349h15.482v34.457h30.18c16.385 0 26.566-8.252 26.566-21.505.06-5.783-2.169-10.723-6.446-14.277"/><path d="m320.048 96.31c-15.963 0-27.108-12.59-27.108-30.662s11.145-30.662 27.108-30.662c15.904 0 26.988 12.59 26.988 30.662 0 18.012-11.084 30.662-26.988 30.662zm0-69.095c-20.963 0-35.541 15.783-35.541 38.433s14.578 38.433 35.541 38.433c20.843 0 35.421-15.783 35.421-38.433s-14.578-38.433-35.421-38.433"/><path d="m56.333 126.077c-9.632-.919-19.389-4.385-27.783-9.869-7.029-4.593-8.616-6.472-8.616-10.244 0-7.558 8.31-20.809 22.508-35.897 8.073-8.575 19.305-18.624 20.516-18.36 2.367.529 21.255 18.986 28.326 27.658 11.191 13.752 16.341 24.998 13.724 30.009-1.991 3.814-14.309 11.261-23.356 14.114-7.461 2.366-17.26 3.368-25.319 2.589zm-45.877-27.963c-5.833-8.964-8.783-17.803-10.217-30.567-.473-4.217-.306-6.625 1.072-15.283 1.712-10.787 7.836-23.259 15.213-30.942 3.146-3.271 3.424-3.355 7.252-2.06 4.649 1.573 9.604 4.997 17.302 11.97l4.495 4.065-2.449 3.02c-11.4 14.003-23.412 33.851-27.936 46.128-2.464 6.667-3.452 13.376-2.394 16.16.71 1.879.056 1.183-2.338-2.491zm102.444 1.517c.571-2.812-.153-7.99-1.865-13.209-3.689-11.303-16.063-32.348-27.421-46.643l-3.577-4.496 3.87-3.563c5.052-4.649 8.56-7.433 12.346-9.786 2.992-1.865 7.252-3.507 9.089-3.507 1.127 0 5.108 4.134 8.324 8.657 4.983 6.988 8.643 15.479 10.495 24.303 1.197 5.707 1.294 17.914.194 23.593-.904 4.663-2.825 10.718-4.69 14.838-1.406 3.076-4.886 9.047-6.417 10.996-.78.974-.78.974-.348-1.183zm-55.537-83.348c-5.248-2.672-13.335-5.526-17.803-6.305-1.573-.265-4.231-.418-5.943-.334-3.689.181-3.522 0 2.394-2.798 4.913-2.324 9.02-3.688 14.587-4.858 6.264-1.322 18.025-1.336 24.192-.027 6.653 1.405 14.489 4.328 18.902 7.043l1.308.807-3.006-.153c-5.986-.306-14.699 2.116-24.067 6.681-2.825 1.378-5.275 2.478-5.456 2.436-.167-.028-2.477-1.155-5.108-2.492z"/><path d="m572.519 27.346c-17.472 0-27.503 14.065-27.503 38.585 0 24.503 10.031 38.584 27.503 38.584 9.963 0 17.365-4.353 22.067-12.881 4.466-8.144 5.414-18.478 5.414-25.703 0-11.597-2.686-38.584-27.481-38.584m0 70.565c-4.987 0-9.126-1.627-12.318-4.792-7.01-7.044-8.064-20.048-8.064-27.189 0-9.62 1.994-31.975 20.382-31.975 18.383 0 20.357 22.355 20.357 31.975-.001 9.617-1.974 31.981-20.357 31.981m-59.045-45.083c-7.979 0-15.27 3.892-19.755 10.307.94-13.974 5.429-29.18 20.592-29.18 8.481 0 14.904 5.53 16.346 14.102l.221 1.345h7.042l-.185-1.787c-1.393-12.497-10.369-20.27-23.424-20.27-23.078 0-27.912 22.897-27.912 42.093 0 22.947 9.361 35.076 27.075 35.076 14.544 0 25.547-11.02 25.547-25.626 0-15.113-10.757-26.06-25.547-26.06m0 45.083c-10.43 0-18.615-8.363-18.615-19.023 0-11.095 8.022-19.447 18.615-19.447 4.763 0 9.269 1.86 12.628 5.233 3.686 3.664 5.767 8.843 5.767 14.214 0 10.66-8.079 19.023-18.395 19.023m-32.614-16.159c0 13.748-10.23 22.626-26.046 22.626-8.577 0-15.548-2.554-20.157-7.386-4.41-4.625-6.554-11.241-6.202-19.149l.054-1.507h7.134l-.049 1.649c-.25 5.956 1.374 10.95 4.709 14.421 3.376 3.502 8.41 5.381 14.511 5.381 9.415 0 18.901-5.518 18.901-16.035 0-4.344-1.329-7.801-3.994-10.285-3.212-3.017-8.392-4.385-14.935-4.455h-4.962c-.043-1.724-.043-5.172 0-6.958 1.809-.009 3.683-.037 4.933-.037 3.48 0 10.248-.875 13.91-4.396 2.237-2.166 3.416-5.128 3.416-8.782 0-8.551-8.691-13.019-17.269-13.019-8.495 0-14.907 5.537-16.353 14.116l-.217 1.332h-7.085l.206-1.777c1.407-12.492 10.405-20.277 23.449-20.277 7.972 0 15.014 2.47 19.314 6.762 3.352 3.372 5.076 7.691 5.076 12.863 0 7.327-3.958 13.528-10.181 16.391 7.321 2.936 11.838 9.831 11.838 18.522"/></g></svg>