<svg clip-rule="evenodd" fill-rule="evenodd" stroke-linejoin="round" stroke-miterlimit="2" viewBox="0 0 600 182" xmlns="http://www.w3.org/2000/svg"><g fill="#fff" fill-rule="nonzero"><path d="m600 147.025-41.377-55.75 37.806-50.611h-14.199l-30.75 41.29-30.75-41.29h-14.111l37.718 50.698-41.29 55.75h14.199l34.234-46.168 34.321 46.168h14.199"/><path d="m318.114 147.025-41.29-55.75 37.719-50.611h-14.112l-30.75 41.29-30.749-41.29h-14.199l37.805 50.698-41.377 55.75h14.199l34.321-46.168 34.234 46.168h14.199"/><path d="m367.679 135.875h-31.62v-38.677h31.62c12.021 0 26.307 3.223 26.307 18.467 0 17.596-16.55 20.21-26.307 20.21zm-31.62-84.148h31.62c8.537 0 22.91 2.091 22.91 16.899 0 11.15-8.362 17.858-22.91 17.858h-31.62zm60.628 43.555c-2.265-1.917-4.617-3.398-7.056-4.443 7.753-4.181 12.892-12.108 12.892-21.255 0-6.794-2.526-28.92-34.931-28.92h-43.642v45.907h-14.547c-1.916 2.439-6.185 8.275-7.84 10.627h22.387v49.827h43.642c23.694 0 38.415-11.934 38.415-31.098.088-8.363-3.136-15.506-9.32-20.645"/><path d="m462.803 138.14c-23.084 0-39.199-18.206-39.199-44.339s16.115-44.339 39.199-44.339c22.997 0 39.025 18.206 39.025 44.339 0 26.046-16.028 44.339-39.025 44.339zm0-99.915c-30.314 0-51.395 22.823-51.395 55.576s21.081 55.576 51.395 55.576c30.14 0 51.22-22.823 51.22-55.576s-21.08-55.576-51.22-55.576"/><path d="m81.46 181.184c-13.929-1.329-28.038-6.34-40.175-14.271-10.164-6.642-12.459-9.359-12.459-14.813 0-10.93 12.016-30.091 32.546-51.909 11.674-12.399 27.917-26.931 29.668-26.549 3.422.765 30.735 27.454 40.96 39.994 16.182 19.886 23.63 36.149 19.846 43.395-2.879 5.515-20.692 16.283-33.774 20.409-10.789 3.422-24.959 4.871-36.612 3.744zm-66.341-40.436c-8.433-12.962-12.7-25.743-14.773-44.2-.685-6.099-.443-9.581 1.549-22.1 2.476-15.599 11.332-33.634 22-44.744 4.549-4.73 4.951-4.851 10.486-2.979 6.723 2.274 13.888 7.226 25.019 17.31l6.501 5.877-3.542 4.368c-16.485 20.248-33.855 48.95-40.396 66.702-3.563 9.641-4.992 19.343-3.462 23.368 1.026 2.718.08 1.711-3.382-3.602zm148.139 2.194c.825-4.066-.222-11.554-2.697-19.101-5.334-16.344-23.227-46.777-39.651-67.448l-5.173-6.501 5.595-5.153c7.307-6.722 12.379-10.748 17.853-14.149 4.328-2.698 10.487-5.073 13.144-5.073 1.63 0 7.386 5.978 12.036 12.52 7.206 10.104 12.499 22.382 15.176 35.142 1.731 8.253 1.872 25.905.282 34.117-1.308 6.742-4.086 15.498-6.783 21.456-2.033 4.448-7.065 13.083-9.279 15.9-1.127 1.409-1.127 1.409-.503-1.71zm-80.309-120.524c-7.588-3.865-19.282-7.991-25.743-9.118-2.275-.382-6.119-.604-8.595-.483-5.333.262-5.092 0 3.462-4.046 7.105-3.361 13.043-5.333 21.094-7.024 9.057-1.912 26.065-1.932 34.982-.04 9.621 2.032 20.952 6.259 27.333 10.184l1.892 1.167-4.348-.221c-8.655-.443-21.254 3.059-34.8 9.661-4.086 1.993-7.629 3.583-7.89 3.523-.242-.041-3.583-1.671-7.387-3.603z"/></g></svg>