<?xml version="1.0" encoding="UTF-8" standalone="no"?><!DOCTYPE svg PUBLIC "-//W3C//DTD SVG 1.1//EN" "http://www.w3.org/Graphics/SVG/1.1/DTD/svg11.dtd"><svg width="100%" height="100%" viewBox="0 0 600 103" version="1.1" xmlns="http://www.w3.org/2000/svg" xmlns:xlink="http://www.w3.org/1999/xlink" xml:space="preserve" xmlns:serif="http://www.serif.com/" style="fill-rule:evenodd;clip-rule:evenodd;stroke-linejoin:round;stroke-miterlimit:2;"><g id="xbox_series"><path d="M553.375,56.911l8.341,-11.519c-2.78,-0.596 -5.362,-1.787 -7.745,-3.376c-2.384,-1.788 -3.575,-4.568 -3.377,-7.547c-0.198,-2.979 1.39,-5.76 3.774,-7.349c3.177,-1.986 6.951,-2.78 10.725,-2.582c14.696,0 18.47,7.746 21.052,10.924l7.944,-10.924c-1.39,-2.184 -2.979,-4.17 -4.965,-5.759c-5.362,-4.171 -13.505,-6.356 -24.23,-6.356c-9.335,0 -16.683,1.986 -22.045,6.157c-5.164,3.972 -8.143,10.129 -7.945,16.683c0,10.923 6.157,17.875 18.471,21.648Zm40.515,-0.596c-3.773,-3.376 -9.334,-5.759 -17.08,-7.745l-8.54,11.717c4.37,0.795 8.54,2.582 12.314,5.164c2.383,1.589 3.773,4.37 3.575,7.349c0.198,3.376 -1.391,6.752 -4.171,8.738c-3.575,2.185 -7.944,3.377 -12.115,2.979c-12.314,0 -18.073,-3.972 -23.833,-14.696l-8.54,11.519c1.589,3.177 3.774,5.759 6.356,7.944c5.958,4.965 14.498,7.348 25.421,7.348c10.328,0 18.272,-2.184 24.032,-6.554c5.759,-4.369 8.937,-11.122 8.54,-18.271c0.794,-5.76 -1.589,-11.52 -5.959,-15.492Zm-72.69,38.53l-3.574,-0l-0,-80.634l3.574,-0l0,80.634Zm-103.473,-81.031c1.191,-0 2.184,0.397 2.979,1.39c1.39,2.582 1.39,5.561 -0.199,7.944c-0.794,0.993 -2.185,1.589 -3.376,1.39l-0,-2.383c0.794,0 1.589,-0.199 1.986,-0.794c0.397,-0.795 0.596,-1.589 0.596,-2.384c-0,-0.596 -0.199,-1.39 -0.398,-1.986c-0.397,-0.397 -0.794,-0.794 -1.39,-0.596c-0.397,0 -0.993,0.199 -1.191,0.596c-0.398,0.596 -0.596,1.39 -0.795,2.185l-0.199,1.192c-0.198,1.191 -0.595,2.184 -1.39,3.177c-0.596,0.795 -1.589,0.993 -2.582,0.993c-0.993,0 -1.986,-0.397 -2.78,-1.191c-0.596,-1.391 -0.993,-2.582 -0.993,-3.972c-0,-1.391 0.198,-2.781 1.191,-3.973c0.795,-0.993 1.987,-1.39 3.178,-1.39l0,2.383c-0.794,0.199 -1.39,0.398 -1.787,0.993c-0.398,0.596 -0.596,1.391 -0.398,1.987c0,0.595 0.199,1.191 0.398,1.787c0.198,0.397 0.794,0.596 1.191,0.596c0.398,-0 0.993,-0.199 1.192,-0.596c0.397,-0.596 0.596,-1.192 0.794,-1.986l0.199,-1.192c0,-1.191 0.596,-2.184 1.192,-3.177c0.794,-0.795 1.589,-1.192 2.582,-0.993Zm-2.582,71.299c-0.795,0.993 -1.192,2.185 -1.391,3.377l-0.198,1.191c-0.199,0.795 -0.397,1.39 -0.795,1.986c-0.198,0.397 -0.794,0.596 -1.191,0.596c-0.397,0 -0.993,-0.199 -1.192,-0.596c-0.397,-0.596 -0.397,-1.191 -0.397,-1.787c-0,-0.795 0.198,-1.589 0.596,-2.185c0.397,-0.397 0.993,-0.794 1.589,-0.794l-0,-2.384c-1.192,0 -2.384,0.596 -3.178,1.391c-0.795,1.191 -1.192,2.582 -1.192,3.972c0,1.191 0.199,2.582 0.993,3.575c0.596,0.794 1.589,1.39 2.781,1.191c0.993,0 1.986,-0.397 2.582,-0.993c0.794,-0.993 1.191,-1.986 1.39,-3.177l0.198,-1.192c0.199,-0.794 0.398,-1.39 0.795,-2.185c0.199,-0.397 0.794,-0.595 1.192,-0.595c0.595,-0 0.993,0.198 1.39,0.595c0.397,0.596 0.596,1.192 0.397,1.986c-0,0.795 -0.199,1.589 -0.596,2.384c-0.397,0.595 -1.191,0.794 -1.986,0.794l0,2.383c1.39,0 2.582,-0.397 3.376,-1.39c1.589,-2.383 1.589,-5.561 0.199,-7.944c-0.794,-0.993 -1.787,-1.39 -2.979,-1.39c-0.794,-0 -1.788,0.397 -2.383,1.191Zm6.355,-31.975l0,2.582c-0.397,0.198 -0.993,0.397 -1.589,0.397l-1.39,-0c-0.596,-0 -1.192,0.198 -1.589,0.596c-0.397,0.397 -0.596,0.993 -0.397,1.588l-0,3.178l5.164,0l-0,2.582l-13.307,-0l0,-6.753l0,0.199c0,-0.794 0.199,-1.787 0.794,-2.582l-0.198,0.199c-0,-0.199 0.198,-0.398 0.397,-0.398c0.596,-0.794 1.589,-1.191 2.781,-1.191c1.39,-0 2.78,0.794 3.177,2.185c0.199,-0.596 0.596,-0.994 0.993,-1.391c0.596,-0.397 1.192,-0.397 1.788,-0.397l1.986,-0.199c0.397,-0.198 0.794,-0.198 1.39,-0.595Zm-9.136,2.979c-0.596,-0 -0.993,0.198 -1.39,0.596c-0.397,0.397 -0.596,0.993 -0.397,1.588l-0,3.178l3.972,0l-0,-3.376c-0,-0.596 -0.199,-1.192 -0.596,-1.589c-0.596,-0.397 -0.993,-0.596 -1.589,-0.397Zm-3.972,-8.143l13.108,-0l0,-2.582l-13.108,-0l0,2.582Zm2.185,-18.272l-2.185,0l0,9.732l13.108,-0l0,-9.732l-2.185,0l0,7.15l-3.376,-0l0,-6.554l-2.185,-0l0,6.554l-3.177,-0l-0,-7.15Zm-0,39.721l-2.185,0l0,9.732l13.108,0l0,-9.732l-2.185,0l0,7.15l-3.376,0l0,-6.554l-2.185,0l0,6.554l-3.177,0l-0,-7.15Zm16.484,25.422l17.477,-0l13.108,-18.073l-8.738,-11.917l-21.847,29.99Zm76.265,-80.634l-17.477,-0l-10.725,14.895l8.738,11.917l19.464,-26.812Zm-56.404,-0l-17.478,-0l58.986,80.634l17.478,-0l-58.986,-80.634Z" style="fill:#fff;fill-rule:nonzero;"/><path id="path10" d="M45.346,0.894c-3.838,0.475 -8.777,1.615 -11.891,2.819c-3.46,1.299 -7.707,3.389 -7.707,3.801c-0,0.253 0.755,0.475 1.982,0.602c4.404,0.506 12.583,3.959 19.975,8.362c1.793,1.076 3.555,1.963 3.869,1.963c0.346,0 2.077,-0.887 3.838,-1.963c4.215,-2.566 11.168,-5.955 14.376,-7.032c1.447,-0.475 3.712,-1.014 5.065,-1.235c1.636,-0.222 2.485,-0.507 2.485,-0.761c-0,-0.918 -7.33,-4.054 -12.426,-5.321c-6.7,-1.678 -12.866,-2.059 -19.566,-1.235Z" style="fill:#fff;fill-rule:nonzero;"/><path id="path12" d="M14.927,15.654c-8.4,8.615 -12.961,17.959 -14.502,29.932c-0.724,5.575 -0.535,10.326 0.66,16.407c1.164,5.86 3.838,12.448 6.984,17.104c2.076,3.104 2.422,3.072 2.674,-0.253c0.975,-12.48 10.601,-29.616 26.613,-47.226c1.384,-1.552 2.548,-3.009 2.548,-3.199c-0,-0.444 -4.782,-5.132 -8.305,-8.172c-4.719,-4.054 -10.853,-7.824 -12.646,-7.824c-0.692,0 -1.573,0.729 -4.026,3.231Z" style="fill:#fff;fill-rule:nonzero;"/><path id="path14" d="M81.836,13.342c-3.995,1.932 -9.374,5.986 -14.564,11.022c-2.077,1.996 -3.775,3.865 -3.775,4.118c-0,0.253 1.541,2.186 3.429,4.308c13.589,15.235 22.208,29.773 24.882,41.936c0.346,1.552 0.63,3.674 0.63,4.751c-0,1.774 0.062,1.996 0.597,1.996c0.724,-0 3.586,-4.435 5.379,-8.394c3.649,-7.887 4.939,-14.443 4.625,-23.502c-0.315,-10.484 -3.146,-19.068 -8.966,-27.303c-2.674,-3.801 -8.556,-9.851 -9.563,-9.851c-0.409,0 -1.604,0.412 -2.674,0.919Z" style="fill:#fff;fill-rule:nonzero;"/><path id="path16" d="M48.083,41.31c-7.456,6.525 -17.302,16.787 -22.901,23.914c-5.946,7.538 -12.332,17.737 -12.332,19.638c0,0.602 3.303,3.991 6.292,6.493c10.507,8.742 25.763,12.796 40.108,10.674c11.073,-1.647 21.139,-6.715 29.507,-14.823c1.29,-1.236 1.478,-1.584 1.478,-2.724c-0.031,-5.828 -11.387,-20.272 -30.167,-38.358c-5.096,-4.909 -7.927,-7.411 -8.368,-7.411c-0.377,-0 -1.919,1.108 -3.617,2.597Z" style="fill:#fff;fill-rule:nonzero;"/><path id="polygon14" d="M329.464,15.45l22.162,30.104l22.141,-30.104l10.184,-0l-27.171,36.906l29.785,40.609l-10.184,-0l-24.755,-33.612l-24.742,33.612l-10.198,-0l29.771,-40.609l-27.184,-36.906l10.191,-0Z" style="fill:#fff;fill-rule:nonzero;"/><path id="path16-7" d="M240.088,55.289c-1.616,-1.378 -3.372,-2.444 -5.077,-3.232c5.625,-3.054 9.315,-8.824 9.315,-15.519c0,-4.96 -1.828,-21.084 -25.196,-21.084l-31.475,-0l0,33.414l-10.487,0c-1.365,1.772 -4.449,6.029 -5.628,7.779l16.115,-0l0,36.311l31.475,0.003c17.049,0 27.645,-8.661 27.645,-22.627c0,-6.103 -2.306,-11.291 -6.687,-15.045m-43.731,-31.75l22.773,-0c6.168,-0 16.487,1.535 16.487,12.319c0,8.152 -6.015,13.01 -16.487,13.01l-22.773,0l-0,-25.329Zm22.773,61.338l-22.773,-0l-0,-28.219l22.773,-0c8.636,-0 18.966,2.385 18.966,13.509c-0.001,12.79 -11.878,14.71 -18.966,14.71" style="fill:#fff;fill-rule:nonzero;"/><path id="path18" d="M287.715,13.659c-21.769,0 -36.987,16.656 -36.987,40.498c0,23.879 15.218,40.523 36.987,40.523c21.754,0 36.924,-16.644 36.924,-40.523c-0,-23.842 -15.17,-40.498 -36.924,-40.498m-0,72.823c-16.586,0 -28.205,-13.293 -28.205,-32.325c0,-19.017 11.619,-32.306 28.205,-32.306c16.56,-0 28.12,13.289 28.12,32.306c-0,19.032 -11.56,32.325 -28.12,32.325" style="fill:#fff;fill-rule:nonzero;"/><path id="polygon20" d="M116.161,15.452l27.171,36.902l-29.792,40.604l10.206,-0l24.733,-33.603l24.747,33.603l10.195,-0l-29.796,-40.604l27.19,-36.902l-10.188,-0l-22.163,30.111l-22.145,-30.111l-10.158,-0Z" style="fill:#fff;fill-rule:nonzero;"/></g></svg>