<svg clip-rule="evenodd" fill-rule="evenodd" stroke-linejoin="round" stroke-miterlimit="2" viewBox="0 0 600 499" xmlns="http://www.w3.org/2000/svg"><g fill="#fff"><path d="m573.103 398.187-48.222 39.017-47.983-39.017h-27.14l61.794 49.924-61.794 49.92h27.14l47.983-39.259 48.222 39.259h26.897l-61.551-49.92 61.551-49.924z"/><path d="m441.762 448.111c0-22.296-5.814-38.77-16.96-49.924h-98.627c-11.635 11.154-17.449 27.628-17.449 49.924 0 22.292 5.814 38.77 17.449 49.924h98.627c11.146-11.158 16.96-27.875 16.96-49.924zm-16.479 0c0 7.511-1.689 15.261-4.847 23.266l-4.605 10.418h-80.94l-4.605-10.418c-3.391-8.001-4.847-15.751-4.847-23.266 0-11.874 3.154-23.024 9.452-33.442h80.94c6.303 10.414 9.452 21.568 9.452 33.442z"/><path d="m283.528 452.231v-8.24l7.269-3.881c-1.698-18.657-7.269-32.71-16.721-41.923h-98.632c-9.452 8.971-15.265 23.023-16.721 41.681h-15.989v16.482h15.989c1.456 18.653 7.269 32.472 16.721 41.685h98.632c9.452-9.456 15.019-23.266 16.721-41.685zm-9.452 4.119c-1.365 8.97-4.407 17.602-8.967 25.445h-80.698c-4.605-7.511-7.511-15.993-8.967-25.445zm-8.967-41.685c4.557 7.756 7.6 16.308 8.967 25.199h-98.632c1.456-9.448 4.362-17.687 8.967-25.199z"/><path d="m88.452 448.111 61.547-49.924h-27.139l-47.98 39.017-48.222-39.017h-26.658l61.309 49.924-61.309 49.92h26.658l48.222-39.259 47.98 39.259h27.139z" fill-rule="nonzero"/><path d="m189.093 219.672c-21.269 29.274-42.376 56.49-61.884 79.548-22.294 26.423-42.535 48.058-60.908 64.995l-.11.139c-1.117 1.029-2.227 2.04-3.329 3.034 17.183-9.814 33.18-19.331 48.022-28.644 69.455-43.29 132.057-92.814 188.429-148.564 57.303 50.769 120.839 98.728 190.294 144.513 14.844 9.596 30.688 19.563 47.531 29.876l-.085-.084.085.052c-37.902-37.161-71.778-75.271-102.218-114.526-10.835-14.003-24.812-32.999-40.33-54.695-11.44-16.059-23.942-33.947-37.526-53.658 23.983-22.527 68.127-68.797 132.43-138.515l-.11.082.107-.116c-13.436 9.944-30.291 20.124-50.637 30.444-32.08 16.818-78.482 36.438-139.528 59.793-33.01-12.767-55.124-21.488-65.404-25.538-25.85-10.277-47.652-19.931-66.027-29.278-23.629-11.661-43.796-23.691-60.499-36.018l-.114-.053c-.916-.677-1.819-1.353-2.712-2.03 9.903 11.98 20.144 23.657 30.736 35.022 13.394 14.954 30.523 32.083 50.769 52.325l56.066 54.194c-17.913 27.577-35.565 53.467-53.048 77.702zm-46.737-182.694c12.71 13.861 28.417 29.565 46.661 47.806l58.491 56.538c-.168.125 0 0 0 0l-.062 13.129c-47.409 72.781-94.402 135.466-132.388 176.716 66.639-42.161 129.803-93.128 184.222-146.945-.022.049.053.01 0 0 54.948 48.684 118.462 97.593 184.63 141.662-45.015-53.783-91.918-115.157-131.532-172.14l-.409-12.892.003.076c19.404-18.263 54.373-54.495 99.783-103.234-32.572 18.099-83.326 41.308-152.312 69.627v.045l-.059-.02-.05.02v-.038c-64.916-22.495-117.241-45.83-156.978-70.35z"/></g></svg>