<svg clip-rule="evenodd" fill-rule="evenodd" stroke-linejoin="round" stroke-miterlimit="2" viewBox="0 0 600 182" xmlns="http://www.w3.org/2000/svg"><g fill="#fff" fill-rule="nonzero"><path d="m600 147.106-41.377-55.75 37.806-50.61h-14.199l-30.75 41.29-30.75-41.29h-14.111l37.718 50.697-41.29 55.75h14.199l34.234-46.168 34.321 46.168h14.199"/><path d="m318.114 147.106-41.29-55.75 37.719-50.61h-14.112l-30.75 41.29-30.749-41.29h-14.199l37.805 50.697-41.377 55.75h14.199l34.321-46.168 34.234 46.168h14.199"/><path d="m367.679 135.956h-31.62v-38.676h31.62c12.021 0 26.307 3.223 26.307 18.467 0 17.596-16.55 20.209-26.307 20.209zm-31.62-84.147h31.62c8.537 0 22.91 2.09 22.91 16.899 0 11.15-8.362 17.857-22.91 17.857h-31.62zm60.628 43.554c-2.265-1.916-4.617-3.397-7.056-4.442 7.753-4.181 12.892-12.108 12.892-21.255 0-6.794-2.526-28.92-34.931-28.92h-43.642v45.906h-14.547c-1.916 2.44-6.185 8.276-7.84 10.628h22.387v49.826h43.642c23.694 0 38.415-11.934 38.415-31.098.088-8.362-3.136-15.505-9.32-20.645"/><path d="m462.803 138.221c-23.084 0-39.199-18.206-39.199-44.338 0-26.133 16.115-44.339 39.199-44.339 22.997 0 39.025 18.206 39.025 44.339 0 26.045-16.028 44.338-39.025 44.338zm0-99.914c-30.314 0-51.395 22.822-51.395 55.576 0 32.753 21.081 55.575 51.395 55.575 30.14 0 51.22-22.822 51.22-55.575 0-32.754-21.08-55.576-51.22-55.576"/><path d="m81.46 181.266c-13.929-1.329-28.038-6.341-40.175-14.271-10.164-6.642-12.459-9.359-12.459-14.814 0-10.929 12.016-30.09 32.546-51.909 11.674-12.398 27.917-26.93 29.668-26.548 3.422.765 30.735 27.454 40.96 39.993 16.182 19.886 23.63 36.15 19.846 43.395-2.879 5.515-20.692 16.284-33.774 20.41-10.789 3.421-24.959 4.871-36.612 3.744zm-66.341-40.437c-8.433-12.962-12.7-25.743-14.773-44.2-.685-6.098-.443-9.581 1.549-22.1 2.476-15.599 11.332-33.633 22-44.743 4.549-4.73 4.951-4.851 10.486-2.979 6.723 2.274 13.888 7.225 25.019 17.309l6.501 5.878-3.542 4.367c-16.485 20.249-33.855 48.951-40.396 66.703-3.563 9.641-4.992 19.343-3.462 23.368 1.026 2.717.08 1.711-3.382-3.603zm148.139 2.194c.825-4.066-.222-11.553-2.697-19.101-5.334-16.343-23.227-46.776-39.651-67.447l-5.173-6.501 5.595-5.153c7.307-6.723 12.379-10.748 17.853-14.15 4.328-2.697 10.487-5.072 13.144-5.072 1.63 0 7.386 5.978 12.036 12.519 7.206 10.104 12.499 22.382 15.176 35.143 1.731 8.252 1.872 25.904.282 34.116-1.308 6.743-4.086 15.498-6.783 21.456-2.033 4.448-7.065 13.083-9.279 15.901-1.127 1.409-1.127 1.409-.503-1.711zm-80.309-120.524c-7.588-3.864-19.282-7.99-25.743-9.117-2.275-.383-6.119-.604-8.595-.483-5.333.261-5.092 0 3.462-4.046 7.105-3.361 13.043-5.334 21.094-7.025 9.057-1.912 26.065-1.932 34.982-.04 9.621 2.033 20.952 6.26 27.333 10.185l1.892 1.167-4.348-.221c-8.655-.443-21.254 3.059-34.8 9.661-4.086 1.993-7.629 3.583-7.89 3.522-.242-.04-3.583-1.67-7.387-3.603z"/></g></svg>