<svg clip-rule="evenodd" fill-rule="evenodd" stroke-linejoin="round" stroke-miterlimit="2" viewBox="0 0 600 158" xmlns="http://www.w3.org/2000/svg"><g fill="#fff"><path d="m581.675 44.932-32.853 26.582-32.691-26.582h-18.49l42.1 34.013-42.1 34.011h18.49l32.691-26.748 32.853 26.748h18.325l-41.935-34.011 41.935-34.013z"/><path d="m492.193 78.945c0-15.19-3.961-26.414-11.555-34.013h-67.194c-7.927 7.599-11.888 18.823-11.888 34.013 0 15.188 3.961 26.414 11.888 34.013h67.194c7.594-7.602 11.555-18.991 11.555-34.013zm-11.227 0c0 5.118-1.151 10.398-3.302 15.851l-3.138 7.098h-55.144l-3.137-7.098c-2.311-5.451-3.303-10.731-3.303-15.851 0-8.089 2.149-15.686 6.44-22.784h55.144c4.294 7.095 6.44 14.695 6.44 22.784z"/><path d="m384.388 81.752v-5.614l4.952-2.644c-1.156-12.711-4.952-22.285-11.391-28.562h-67.198c-6.44 6.112-10.4 15.686-11.392 28.397h-10.893v11.229h10.893c.992 12.709 4.952 22.123 11.392 28.4h67.198c6.439-6.442 10.232-15.851 11.391-28.4zm-6.439 2.806c-.93 6.111-3.003 11.993-6.11 17.336h-54.979c-3.137-5.117-5.117-10.896-6.109-17.336zm-6.11-28.399c3.105 5.284 5.178 11.11 6.11 17.167h-67.198c.992-6.437 2.972-12.05 6.109-17.167z"/><path d="m251.483 78.945 41.932-34.013h-18.49l-32.688 26.582-32.854-26.582h-18.162l41.77 34.013-41.77 34.011h18.162l32.854-26.748 32.688 26.748h18.49z" fill-rule="nonzero"/><path d="m78.67.409c43.42 0 78.671 35.191 78.671 78.536s-35.251 78.536-78.671 78.536c-43.419 0-78.67-35.191-78.67-78.536s35.251-78.536 78.67-78.536zm-24.439 86.403c-4.687 6.44-9.338 12.427-13.637 17.5-4.913 5.812-9.373 10.572-13.422 14.297l-.024.031c-.246.226-.491.449-.734.667 3.787-2.158 7.312-4.252 10.583-6.301 15.305-9.523 29.1-20.417 41.522-32.681 12.627 11.168 26.628 21.718 41.933 31.79 3.271 2.111 6.763 4.304 10.474 6.572l-.019-.018.019.011c-8.352-8.174-15.817-16.558-22.525-25.193-2.387-3.081-5.467-7.26-8.887-12.032-2.521-3.533-5.276-7.468-8.269-11.804 5.285-4.956 15.012-15.134 29.182-30.471l-.024.018.024-.026c-2.961 2.188-6.675 4.427-11.159 6.697-7.069 3.7-17.294 8.016-30.746 13.154-7.274-2.809-12.147-4.727-14.413-5.618-5.696-2.261-10.5-4.385-14.549-6.441-5.207-2.565-9.651-5.211-13.332-7.923l-.025-.012c-.202-.149-.401-.297-.598-.446 2.183 2.635 4.439 5.204 6.773 7.704 2.952 3.29 6.726 7.058 11.188 11.511l12.354 11.921c-3.947 6.067-7.837 11.762-11.689 17.093z"/></g></svg>