<?xml version="1.0" encoding="UTF-8" standalone="no"?><!DOCTYPE svg PUBLIC "-//W3C//DTD SVG 1.1//EN" "http://www.w3.org/Graphics/SVG/1.1/DTD/svg11.dtd"><svg width="100%" height="100%" viewBox="0 0 600 182" version="1.1" xmlns="http://www.w3.org/2000/svg" xmlns:xlink="http://www.w3.org/1999/xlink" xml:space="preserve" xmlns:serif="http://www.serif.com/" style="fill-rule:evenodd;clip-rule:evenodd;stroke-linejoin:round;stroke-miterlimit:2;"><g id="xbox"><path id="path6965" d="M600,147.207l-41.377,-55.75l37.806,-50.611l-14.199,-0l-30.75,41.29l-30.75,-41.29l-14.111,-0l37.718,50.698l-41.29,55.75l14.199,-0l34.234,-46.168l34.321,46.168l14.199,-0" style="fill:#fff;fill-rule:nonzero;"/><path id="path6967" d="M318.114,147.207l-41.29,-55.75l37.719,-50.611l-14.112,-0l-30.75,41.29l-30.749,-41.29l-14.199,-0l37.805,50.698l-41.377,55.75l14.199,-0l34.321,-46.168l34.234,46.168l14.199,-0" style="fill:#fff;fill-rule:nonzero;"/><path id="path6969" d="M367.679,136.057l-31.62,-0l-0,-38.677l31.62,-0c12.021,-0 26.307,3.223 26.307,18.467c0,17.596 -16.55,20.21 -26.307,20.21Zm-31.62,-84.148l31.62,-0c8.537,-0 22.91,2.09 22.91,16.899c0,11.15 -8.362,17.858 -22.91,17.858l-31.62,-0l-0,-34.757Zm60.628,43.555c-2.265,-1.917 -4.617,-3.398 -7.056,-4.443c7.753,-4.181 12.892,-12.108 12.892,-21.255c0,-6.794 -2.526,-28.92 -34.931,-28.92l-43.642,-0l0,45.907l-14.547,-0c-1.916,2.439 -6.185,8.275 -7.84,10.627l22.387,-0l0,49.827l43.642,-0c23.694,-0 38.415,-11.934 38.415,-31.099c0.088,-8.362 -3.136,-15.505 -9.32,-20.644" style="fill:#fff;fill-rule:nonzero;"/><path id="path6971" d="M462.803,138.321c-23.084,0 -39.199,-18.205 -39.199,-44.338c-0,-26.133 16.115,-44.339 39.199,-44.339c22.997,0 39.025,18.206 39.025,44.339c-0,26.045 -16.028,44.338 -39.025,44.338Zm-0,-99.914c-30.314,-0 -51.395,22.823 -51.395,55.576c0,32.753 21.081,55.575 51.395,55.575c30.14,0 51.22,-22.822 51.22,-55.575c0,-32.753 -21.08,-55.576 -51.22,-55.576" style="fill:#fff;fill-rule:nonzero;"/><path id="path4148" d="M81.46,181.366c-13.929,-1.329 -28.038,-6.34 -40.175,-14.271c-10.164,-6.642 -12.459,-9.359 -12.459,-14.814c0,-10.929 12.016,-30.09 32.546,-51.909c11.674,-12.398 27.917,-26.93 29.668,-26.548c3.422,0.765 30.735,27.454 40.96,39.994c16.182,19.886 23.63,36.149 19.846,43.395c-2.879,5.515 -20.692,16.283 -33.774,20.409c-10.789,3.422 -24.959,4.871 -36.612,3.744Zm-66.341,-40.437c-8.433,-12.962 -12.7,-25.743 -14.773,-44.2c-0.685,-6.098 -0.443,-9.58 1.549,-22.1c2.476,-15.599 11.332,-33.633 22,-44.743c4.549,-4.73 4.951,-4.851 10.486,-2.979c6.723,2.274 13.888,7.226 25.019,17.31l6.501,5.877l-3.542,4.367c-16.485,20.249 -33.855,48.951 -40.396,66.703c-3.563,9.641 -4.992,19.343 -3.462,23.368c1.026,2.717 0.08,1.711 -3.382,-3.603Zm148.139,2.194c0.825,-4.065 -0.222,-11.553 -2.697,-19.101c-5.334,-16.343 -23.227,-46.776 -39.651,-67.447l-5.173,-6.501l5.595,-5.153c7.307,-6.723 12.379,-10.748 17.853,-14.15c4.328,-2.697 10.487,-5.072 13.144,-5.072c1.63,0 7.386,5.978 12.036,12.52c7.206,10.104 12.499,22.381 15.176,35.142c1.731,8.253 1.872,25.904 0.282,34.116c-1.308,6.743 -4.086,15.499 -6.783,21.456c-2.033,4.449 -7.065,13.083 -9.279,15.901c-1.127,1.409 -1.127,1.409 -0.503,-1.711Zm-80.309,-120.523c-7.588,-3.865 -19.282,-7.991 -25.743,-9.118c-2.275,-0.383 -6.119,-0.604 -8.595,-0.483c-5.333,0.261 -5.092,-0 3.462,-4.046c7.105,-3.361 13.043,-5.334 21.094,-7.024c9.057,-1.913 26.065,-1.933 34.982,-0.041c9.621,2.033 20.952,6.26 27.333,10.185l1.892,1.167l-4.348,-0.221c-8.655,-0.443 -21.254,3.059 -34.8,9.661c-4.086,1.993 -7.629,3.583 -7.89,3.522c-0.242,-0.04 -3.583,-1.67 -7.387,-3.602Z" style="fill:#fff;fill-rule:nonzero;"/></g></svg>