<svg clip-rule="evenodd" fill-rule="evenodd" stroke-linejoin="round" stroke-miterlimit="2" viewBox="0 0 600 103" xmlns="http://www.w3.org/2000/svg"><g fill="#fff" fill-rule="nonzero"><path d="m553.375 56.729 8.341-11.519c-2.78-.596-5.362-1.787-7.745-3.376-2.384-1.788-3.575-4.568-3.377-7.547-.198-2.979 1.39-5.76 3.774-7.349 3.177-1.986 6.951-2.78 10.725-2.581 14.696 0 18.47 7.745 21.052 10.923l7.944-10.923c-1.39-2.185-2.979-4.171-4.965-5.76-5.362-4.171-13.505-6.355-24.23-6.355-9.335 0-16.683 1.986-22.045 6.156-5.164 3.972-8.143 10.129-7.945 16.683 0 10.924 6.157 17.875 18.471 21.648zm40.515-.595c-3.773-3.377-9.334-5.76-17.08-7.746l-8.54 11.718c4.37.794 8.54 2.582 12.314 5.163 2.383 1.589 3.773 4.37 3.575 7.349.198 3.376-1.391 6.752-4.171 8.739-3.575 2.184-7.944 3.376-12.115 2.979-12.314 0-18.073-3.972-23.833-14.697l-8.54 11.519c1.589 3.178 3.774 5.76 6.356 7.944 5.958 4.965 14.498 7.349 25.421 7.349 10.328 0 18.272-2.185 24.032-6.554 5.759-4.37 8.937-11.122 8.54-18.272.794-5.76-1.589-11.519-5.959-15.491zm-72.69 38.529h-3.574v-80.634h3.574zm-103.473-81.031c1.191 0 2.184.397 2.979 1.39 1.39 2.582 1.39 5.561-.199 7.944-.794.993-2.185 1.589-3.376 1.391v-2.384c.794 0 1.589-.198 1.986-.794.397-.795.596-1.589.596-2.383 0-.596-.199-1.391-.398-1.987-.397-.397-.794-.794-1.39-.595-.397 0-.993.198-1.191.595-.398.596-.596 1.391-.795 2.185l-.199 1.192c-.198 1.191-.595 2.184-1.39 3.177-.596.795-1.589.994-2.582.994s-1.986-.398-2.78-1.192c-.596-1.39-.993-2.582-.993-3.972 0-1.391.198-2.781 1.191-3.972.795-.993 1.987-1.391 3.178-1.391v2.384c-.794.198-1.39.397-1.787.993-.398.595-.596 1.39-.398 1.986 0 .596.199 1.191.398 1.787.198.397.794.596 1.191.596.398 0 .993-.199 1.192-.596.397-.596.596-1.191.794-1.986l.199-1.192c0-1.191.596-2.184 1.192-3.177.794-.795 1.589-1.192 2.582-.993zm-2.582 71.299c-.795.993-1.192 2.185-1.391 3.377l-.198 1.191c-.199.795-.397 1.391-.795 1.986-.198.398-.794.596-1.191.596s-.993-.198-1.192-.596c-.397-.595-.397-1.191-.397-1.787 0-.794.198-1.589.596-2.185.397-.397.993-.794 1.589-.794v-2.383c-1.192 0-2.384.595-3.178 1.39-.795 1.192-1.192 2.582-1.192 3.972 0 1.192.199 2.582.993 3.575.596.794 1.589 1.39 2.781 1.192.993 0 1.986-.398 2.582-.993.794-.993 1.191-1.987 1.39-3.178l.198-1.192c.199-.794.398-1.39.795-2.184.199-.398.794-.596 1.192-.596.595 0 .993.198 1.39.596.397.595.596 1.191.397 1.986 0 .794-.199 1.588-.596 2.383-.397.596-1.191.794-1.986.794v2.384c1.39 0 2.582-.398 3.376-1.391 1.589-2.383 1.589-5.561.199-7.944-.794-.993-1.787-1.39-2.979-1.39-.794 0-1.788.397-2.383 1.191zm6.355-31.975v2.582c-.397.198-.993.397-1.589.397h-1.39c-.596 0-1.192.199-1.589.596s-.596.993-.397 1.589v3.177h5.164v2.582h-13.307v-6.752.198c0-.794.199-1.787.794-2.582l-.198.199c0-.199.198-.397.397-.397.596-.795 1.589-1.192 2.781-1.192 1.39 0 2.78.794 3.177 2.185.199-.596.596-.993.993-1.391.596-.397 1.192-.397 1.788-.397l1.986-.198c.397-.199.794-.199 1.39-.596zm-9.136 2.979c-.596 0-.993.199-1.39.596s-.596.993-.397 1.589v3.177h3.972v-3.376c0-.596-.199-1.192-.596-1.589-.596-.397-.993-.596-1.589-.397zm-3.972-8.143h13.108v-2.582h-13.108zm2.185-18.272h-2.185v9.732h13.108v-9.732h-2.185v7.15h-3.376v-6.554h-2.185v6.554h-3.177zm0 39.722h-2.185v9.731h13.108v-9.731h-2.185v7.149h-3.376v-6.554h-2.185v6.554h-3.177zm16.484 25.421h17.477l13.108-18.073-8.738-11.916zm76.265-80.634h-17.477l-10.725 14.895 8.738 11.917zm-56.404 0h-17.478l58.986 80.634h17.478z"/><path d="m45.346.712c-3.838.475-8.777 1.616-11.891 2.819-3.46 1.299-7.707 3.389-7.707 3.801 0 .253.755.475 1.982.602 4.404.507 12.583 3.959 19.975 8.362 1.793 1.077 3.555 1.964 3.869 1.964.346 0 2.077-.887 3.838-1.964 4.215-2.566 11.168-5.955 14.376-7.032 1.447-.475 3.712-1.013 5.065-1.235 1.636-.222 2.485-.507 2.485-.76 0-.919-7.33-4.055-12.426-5.322-6.7-1.678-12.866-2.058-19.566-1.235z"/><path d="m14.927 15.472c-8.4 8.616-12.961 17.959-14.502 29.932-.724 5.575-.535 10.326.66 16.407 1.164 5.86 3.838 12.448 6.984 17.104 2.076 3.104 2.422 3.073 2.674-.253.975-12.48 10.601-29.615 26.613-47.226 1.384-1.552 2.548-3.009 2.548-3.199 0-.444-4.782-5.131-8.305-8.172-4.719-4.054-10.853-7.823-12.646-7.823-.692 0-1.573.728-4.026 3.23z"/><path d="m81.836 13.16c-3.995 1.932-9.374 5.986-14.564 11.023-2.077 1.995-3.775 3.864-3.775 4.117 0 .254 1.541 2.186 3.429 4.308 13.589 15.235 22.208 29.773 24.882 41.936.346 1.552.63 3.674.63 4.751 0 1.774.062 1.996.597 1.996.724 0 3.586-4.435 5.379-8.394 3.649-7.887 4.939-14.443 4.625-23.502-.315-10.484-3.146-19.068-8.966-27.303-2.674-3.801-8.556-9.85-9.563-9.85-.409 0-1.604.411-2.674.918z"/><path d="m48.083 41.128c-7.456 6.525-17.302 16.787-22.901 23.914-5.946 7.538-12.332 17.737-12.332 19.638 0 .602 3.303 3.991 6.292 6.493 10.507 8.742 25.763 12.796 40.108 10.674 11.073-1.647 21.139-6.715 29.507-14.823 1.29-1.235 1.478-1.584 1.478-2.724-.031-5.828-11.387-20.272-30.167-38.357-5.096-4.91-7.927-7.412-8.368-7.412-.377 0-1.919 1.109-3.617 2.597z"/><path d="m329.464 15.268 22.162 30.104 22.141-30.104h10.184l-27.171 36.906 29.785 40.609h-10.184l-24.755-33.612-24.742 33.612h-10.198l29.771-40.609-27.184-36.906z"/><path d="m240.088 55.107c-1.616-1.378-3.372-2.444-5.077-3.232 5.625-3.053 9.315-8.824 9.315-15.519 0-4.96-1.828-21.084-25.196-21.084h-31.475v33.415h-10.487c-1.365 1.772-4.449 6.028-5.628 7.778h16.115v36.311l31.475.003c17.049 0 27.645-8.661 27.645-22.626 0-6.103-2.306-11.292-6.687-15.046m-43.731-31.75h22.773c6.168 0 16.487 1.535 16.487 12.319 0 8.152-6.015 13.011-16.487 13.011h-22.773zm22.773 61.338h-22.773v-28.219h22.773c8.636 0 18.966 2.385 18.966 13.509-.001 12.79-11.878 14.71-18.966 14.71"/><path d="m287.715 13.478c-21.769 0-36.987 16.655-36.987 40.497 0 23.879 15.218 40.524 36.987 40.524 21.754 0 36.924-16.645 36.924-40.524 0-23.842-15.17-40.497-36.924-40.497m0 72.822c-16.586 0-28.205-13.293-28.205-32.325 0-19.016 11.619-32.306 28.205-32.306 16.56 0 28.12 13.29 28.12 32.306 0 19.032-11.56 32.325-28.12 32.325"/><path d="m116.161 15.27 27.171 36.902-29.792 40.604h10.206l24.733-33.603 24.747 33.603h10.195l-29.796-40.604 27.19-36.902h-10.188l-22.163 30.111-22.145-30.111z"/></g></svg>