<svg clip-rule="evenodd" fill-rule="evenodd" stroke-linejoin="round" stroke-miterlimit="2" viewBox="0 0 600 73" xmlns="http://www.w3.org/2000/svg"><g fill="#fff" fill-rule="nonzero"><path d="m0 65.701c0 3.46 2.806 6.266 6.267 6.266h71.992c3.461 0 6.267-2.806 6.267-6.266v-4.589c0-3.461-2.806-6.266-6.267-6.266l-35.463-.001c-.913-.017-1.683-.685-1.828-1.586-.146-.901.374-1.778 1.235-2.082 11.185-3.95 28.939-10.22 36.962-13.054 2.505-.885 4.18-3.252 4.18-5.909v-6.422c0-1.662-.66-3.256-1.836-4.431-1.175-1.176-2.769-1.836-4.431-1.836h-69.434c-1.662 0-3.256.66-4.431 1.836-1.175 1.175-1.835 2.769-1.835 4.431v4.588c0 1.662.66 3.256 1.835 4.431 1.175 1.176 2.769 1.836 4.431 1.836h30.907c1.086.017 2.004.81 2.179 1.882.174 1.072-.444 2.116-1.469 2.477-11.228 3.958-27.495 9.692-35.078 12.365-2.506.884-4.183 3.252-4.183 5.91z"/><path d="m90.264 49.661c0 1.662.66 3.256 1.835 4.431 1.176 1.176 2.769 1.836 4.432 1.836h25.463c1.662 0 3.256-.66 4.431-1.836 1.175-1.175 1.835-2.769 1.835-4.431v-5.179c0-1.662-.66-3.255-1.835-4.431-1.175-1.175-2.769-1.835-4.431-1.835h-25.463c-1.663 0-3.256.66-4.432 1.835-1.175 1.176-1.835 2.769-1.835 4.431z"/><path d="m135.199 65.701c0 3.46 2.805 6.266 6.266 6.266h4.77c3.461 0 6.266-2.806 6.266-6.266v-26.679c0-.034.027-.061.061-.062.034 0 .062.026.063.06v.006c.011.324.101.64.26.922 1.59 2.801 10.57 18.631 15.28 26.934 1.783 3.143 5.117 5.085 8.73 5.085h.001c3.613 0 6.947-1.942 8.73-5.085 4.711-8.303 13.691-24.133 15.28-26.934.16-.282.249-.598.26-.922 0-.002 0-.004 0-.006.001-.034.029-.06.063-.06.034.001.061.028.061.062v26.679c0 3.46 2.806 6.266 6.267 6.266h4.769c3.461 0 6.267-2.806 6.267-6.266v-38.462c0-1.662-.661-3.256-1.836-4.431s-2.769-1.835-4.431-1.835h-16.116c-2.296 0-4.407 1.255-5.505 3.271-2.703 4.968-7.867 14.456-11.057 20.317-.549 1.008-1.605 1.635-2.752 1.635-1.148 0-2.204-.627-2.753-1.635-3.189-5.861-8.353-15.349-11.057-20.317-1.098-2.016-3.209-3.271-5.504-3.271h-16.117c-1.662 0-3.256.66-4.431 1.835s-1.835 2.769-1.835 4.431z"/><path d="m224.985 58.486c0 11.799 7.369 14.363 18.865 14.269l12.919-.001c8.228 0 14.74-.597 16.282-.751.221-.024.443-.035.665-.035 1.361-.001 6.839-.001 11.325-.001 1.662 0 3.255-.66 4.431-1.835 1.175-1.176 1.835-2.769 1.835-4.431 0-9.561 0-26.691 0-26.698 0-11.808-6.888-18.007-19.877-18.007-.008 0-21.935 0-21.943 0-11.247 0-17.89 1.127-20.826 6.56-1.067 1.935-1.033 4.289.091 6.192 1.124 1.902 3.169 3.07 5.378 3.07 2.263.02 4.686.02 6.683.02 1.994 0 3.869-.949 5.05-2.556.912-1.252 2.839-1.478 6.576-1.478h11.119c7.38 0 8.856 1.771 8.856 6.691v.025c-.01.338-.182.652-.463.841s-.636.231-.953.112c-3.71-1.306-9.123-.584-18.264-.584-18.302 0-27.749.787-27.749 14.465zm28.241 2.46c-7.38 0-9.938-1.279-9.938-4.526 0-4.133 1.673-5.904 9.643-5.904h8.364c10.43 0 11.513 1.378 11.513 5.117 0 3.345-1.181 5.313-14.17 5.313z"/><path d="m296.871 48.942c0 21.451 13.186 23.812 25.682 23.812h19.287c10.824 0 22.041-3.837 22.041-17.318 0-1.174-.466-2.301-1.296-3.131-.831-.831-1.957-1.297-3.132-1.297h-11.513c-1.304 0-2.361 1.057-2.361 2.361v.001c0 4.624-4.822 4.624-10.135 4.624h-9.643c-5.904 0-10.037-1.968-10.037-8.462 0-.005 0-6.687 0-6.691 0-5.511 3.739-7.675 11.611-7.676h7.282c5.995 0 9.039.984 10.259 3.477 1.051 2.135 3.224 3.488 5.604 3.488 2.752.022 6.153.022 8.835.022 2.5 0 4.526-2.027 4.526-4.526 0-11.513-8.56-16.63-22.533-16.63h-21.255c-13.776 0-23.222 4.133-23.222 23.124z"/><path d="m368.242 65.701c0 3.46 2.806 6.266 6.267 6.266h6.359c3.461 0 6.267-2.806 6.267-6.266v-19.023c0-7.183 4.822-10.922 12.89-10.922h4.33c8.266 0 12.202 2.46 12.202 7.38v22.565c0 3.46 2.805 6.266 6.266 6.266h6.36c3.461 0 6.266-2.806 6.266-6.266v-22.565c0-21.648-16.334-22.059-28.044-22.14-9.503-.066-15.244.403-18.08.735-.545.091-1.102-.062-1.523-.419s-.664-.881-.664-1.433c-.003-2.998-.003-8.534-.003-12.887 0-3.461-2.806-6.267-6.267-6.267h-6.359c-3.461 0-6.267 2.806-6.267 6.267z"/><path d="m460.058 28.05c0-3.461-2.806-6.267-6.267-6.267h-6.359c-3.461 0-6.267 2.806-6.267 6.267v37.651c0 3.46 2.806 6.266 6.267 6.266h6.359c3.461 0 6.267-2.806 6.267-6.266zm0-21.058c0-3.461-2.806-6.267-6.267-6.267h-6.359c-3.461 0-6.267 2.806-6.267 6.267v2.227c0 3.461 2.806 6.266 6.267 6.266h6.359c3.461 0 6.267-2.805 6.267-6.266z"/><path d="m463.685 65.701c0 3.46 2.805 6.266 6.266 6.266h6.36c3.461 0 6.267-2.806 6.267-6.266v-19.023c0-7.183 4.821-10.922 12.89-10.922h4.33c8.265 0 12.201 2.46 12.201 7.38v22.565c0 3.46 2.806 6.266 6.267 6.266h6.36c3.46 0 6.266-2.806 6.266-6.266v-22.565c0-21.648-16.334-22.14-28.044-22.14-9.213 0-18.426.65-20.026.769-.159.012-.319.018-.478.018-1.272 0-7.481 0-12.393 0-3.461 0-6.266 2.806-6.266 6.267z"/><path d="m535.253 44.12v4.822c0 21.451 13.185 23.812 25.682 23.812h14.17c13.677 0 24.895-2.755 24.895-15.35 0-1.196-.969-2.165-2.165-2.165h-12.532c-1.488 0-2.818.93-3.328 2.328-.69 1.928-2.986 3.379-10.413 3.379h-5.805c-7.872 0-11.611-1.476-11.611-6.789 0-.809.321-1.585.893-2.157s1.348-.894 2.157-.894h39.262c.939 0 1.84-.373 2.504-1.037.665-.665 1.038-1.566 1.038-2.505v-4.92c0-17.417-8.266-21.648-28.339-21.648h-13.186c-13.776 0-23.222 4.133-23.222 23.124zm32.669-11.316h.259.003c10.802.018 13.514 1.13 13.514 7.085h-13.517c-.057.002-.114.004-.172.004-.029-.004-.058-.004-.087-.004h-13.776c0-5.935 1.443-7.06 13.365-7.085.04-.004.08-.008.121-.011.096.011.192.011.29.011z"/></g></svg>